<?xml version="1.0" encoding="utf-8" standalone="no"?>
<!DOCTYPE svg PUBLIC "-//W3C//DTD SVG 1.1//EN"
  "http://www.w3.org/Graphics/SVG/1.1/DTD/svg11.dtd">
<!-- Created with matplotlib (https://matplotlib.org/) -->
<svg height="321.713144pt" version="1.1" viewBox="0 0 420.348487 321.713144" width="420.348487pt" xmlns="http://www.w3.org/2000/svg" xmlns:xlink="http://www.w3.org/1999/xlink">
 <metadata>
  <rdf:RDF xmlns:cc="http://creativecommons.org/ns#" xmlns:dc="http://purl.org/dc/elements/1.1/" xmlns:rdf="http://www.w3.org/1999/02/22-rdf-syntax-ns#">
   <cc:Work>
    <dc:type rdf:resource="http://purl.org/dc/dcmitype/StillImage"/>
    <dc:date>2021-09-21T16:33:55.847522</dc:date>
    <dc:format>image/svg+xml</dc:format>
    <dc:creator>
     <cc:Agent>
      <dc:title>Matplotlib v3.3.1, https://matplotlib.org/</dc:title>
     </cc:Agent>
    </dc:creator>
   </cc:Work>
  </rdf:RDF>
 </metadata>
 <defs>
  <style type="text/css">*{stroke-linecap:butt;stroke-linejoin:round;}</style>
 </defs>
 <g id="figure_1">
  <g id="patch_1">
   <path d="M 0 321.713144 
L 420.348487 321.713144 
L 420.348487 0 
L 0 0 
z
" style="fill:#ffffff;"/>
  </g>
  <g id="axes_1">
   <g id="patch_2">
    <path d="M 56.028488 277.111219 
L 413.148488 277.111219 
L 413.148488 10.999219 
L 56.028488 10.999219 
z
" style="fill:#ffffff;"/>
   </g>
   <g id="matplotlib.axis_1">
    <g id="xtick_1">
     <g id="line2d_1">
      <defs>
       <path d="M 0 0 
L 0 3.5 
" id="m827f3049af" style="stroke:#000000;stroke-width:0.8;"/>
      </defs>
      <g>
       <use style="stroke:#000000;stroke-width:0.8;" x="56.028487" xlink:href="#m827f3049af" y="277.111219"/>
      </g>
     </g>
     <g id="text_1">
      <!-- −20 -->
      <g transform="translate(45.476144 291.709656)scale(0.1 -0.1)">
       <defs>
        <path d="M 10.59375 35.5 
L 73.1875 35.5 
L 73.1875 27.203125 
L 10.59375 27.203125 
z
" id="DejaVuSans-8722"/>
        <path d="M 19.1875 8.296875 
L 53.609375 8.296875 
L 53.609375 0 
L 7.328125 0 
L 7.328125 8.296875 
Q 12.9375 14.109375 22.625 23.890625 
Q 32.328125 33.6875 34.8125 36.53125 
Q 39.546875 41.84375 41.421875 45.53125 
Q 43.3125 49.21875 43.3125 52.78125 
Q 43.3125 58.59375 39.234375 62.25 
Q 35.15625 65.921875 28.609375 65.921875 
Q 23.96875 65.921875 18.8125 64.3125 
Q 13.671875 62.703125 7.8125 59.421875 
L 7.8125 69.390625 
Q 13.765625 71.78125 18.9375 73 
Q 24.125 74.21875 28.421875 74.21875 
Q 39.75 74.21875 46.484375 68.546875 
Q 53.21875 62.890625 53.21875 53.421875 
Q 53.21875 48.921875 51.53125 44.890625 
Q 49.859375 40.875 45.40625 35.40625 
Q 44.1875 33.984375 37.640625 27.21875 
Q 31.109375 20.453125 19.1875 8.296875 
z
" id="DejaVuSans-50"/>
        <path d="M 31.78125 66.40625 
Q 24.171875 66.40625 20.328125 58.90625 
Q 16.5 51.421875 16.5 36.375 
Q 16.5 21.390625 20.328125 13.890625 
Q 24.171875 6.390625 31.78125 6.390625 
Q 39.453125 6.390625 43.28125 13.890625 
Q 47.125 21.390625 47.125 36.375 
Q 47.125 51.421875 43.28125 58.90625 
Q 39.453125 66.40625 31.78125 66.40625 
z
M 31.78125 74.21875 
Q 44.046875 74.21875 50.515625 64.515625 
Q 56.984375 54.828125 56.984375 36.375 
Q 56.984375 17.96875 50.515625 8.265625 
Q 44.046875 -1.421875 31.78125 -1.421875 
Q 19.53125 -1.421875 13.0625 8.265625 
Q 6.59375 17.96875 6.59375 36.375 
Q 6.59375 54.828125 13.0625 64.515625 
Q 19.53125 74.21875 31.78125 74.21875 
z
" id="DejaVuSans-48"/>
       </defs>
       <use xlink:href="#DejaVuSans-8722"/>
       <use x="83.789062" xlink:href="#DejaVuSans-50"/>
       <use x="147.412109" xlink:href="#DejaVuSans-48"/>
      </g>
     </g>
    </g>
    <g id="xtick_2">
     <g id="line2d_2">
      <g>
       <use style="stroke:#000000;stroke-width:0.8;" x="95.980723" xlink:href="#m827f3049af" y="277.111219"/>
      </g>
     </g>
     <g id="text_2">
      <!-- −10 -->
      <g transform="translate(85.428379 291.709656)scale(0.1 -0.1)">
       <defs>
        <path d="M 12.40625 8.296875 
L 28.515625 8.296875 
L 28.515625 63.921875 
L 10.984375 60.40625 
L 10.984375 69.390625 
L 28.421875 72.90625 
L 38.28125 72.90625 
L 38.28125 8.296875 
L 54.390625 8.296875 
L 54.390625 0 
L 12.40625 0 
z
" id="DejaVuSans-49"/>
       </defs>
       <use xlink:href="#DejaVuSans-8722"/>
       <use x="83.789062" xlink:href="#DejaVuSans-49"/>
       <use x="147.412109" xlink:href="#DejaVuSans-48"/>
      </g>
     </g>
    </g>
    <g id="xtick_3">
     <g id="line2d_3">
      <g>
       <use style="stroke:#000000;stroke-width:0.8;" x="135.932959" xlink:href="#m827f3049af" y="277.111219"/>
      </g>
     </g>
     <g id="text_3">
      <!-- 0 -->
      <g transform="translate(132.751709 291.709656)scale(0.1 -0.1)">
       <use xlink:href="#DejaVuSans-48"/>
      </g>
     </g>
    </g>
    <g id="xtick_4">
     <g id="line2d_4">
      <g>
       <use style="stroke:#000000;stroke-width:0.8;" x="175.885195" xlink:href="#m827f3049af" y="277.111219"/>
      </g>
     </g>
     <g id="text_4">
      <!-- 10 -->
      <g transform="translate(169.522695 291.709656)scale(0.1 -0.1)">
       <use xlink:href="#DejaVuSans-49"/>
       <use x="63.623047" xlink:href="#DejaVuSans-48"/>
      </g>
     </g>
    </g>
    <g id="xtick_5">
     <g id="line2d_5">
      <g>
       <use style="stroke:#000000;stroke-width:0.8;" x="215.83743" xlink:href="#m827f3049af" y="277.111219"/>
      </g>
     </g>
     <g id="text_5">
      <!-- 20 -->
      <g transform="translate(209.47493 291.709656)scale(0.1 -0.1)">
       <use xlink:href="#DejaVuSans-50"/>
       <use x="63.623047" xlink:href="#DejaVuSans-48"/>
      </g>
     </g>
    </g>
    <g id="xtick_6">
     <g id="line2d_6">
      <g>
       <use style="stroke:#000000;stroke-width:0.8;" x="255.789666" xlink:href="#m827f3049af" y="277.111219"/>
      </g>
     </g>
     <g id="text_6">
      <!-- 30 -->
      <g transform="translate(249.427166 291.709656)scale(0.1 -0.1)">
       <defs>
        <path d="M 40.578125 39.3125 
Q 47.65625 37.796875 51.625 33 
Q 55.609375 28.21875 55.609375 21.1875 
Q 55.609375 10.40625 48.1875 4.484375 
Q 40.765625 -1.421875 27.09375 -1.421875 
Q 22.515625 -1.421875 17.65625 -0.515625 
Q 12.796875 0.390625 7.625 2.203125 
L 7.625 11.71875 
Q 11.71875 9.328125 16.59375 8.109375 
Q 21.484375 6.890625 26.8125 6.890625 
Q 36.078125 6.890625 40.9375 10.546875 
Q 45.796875 14.203125 45.796875 21.1875 
Q 45.796875 27.640625 41.28125 31.265625 
Q 36.765625 34.90625 28.71875 34.90625 
L 20.21875 34.90625 
L 20.21875 43.015625 
L 29.109375 43.015625 
Q 36.375 43.015625 40.234375 45.921875 
Q 44.09375 48.828125 44.09375 54.296875 
Q 44.09375 59.90625 40.109375 62.90625 
Q 36.140625 65.921875 28.71875 65.921875 
Q 24.65625 65.921875 20.015625 65.03125 
Q 15.375 64.15625 9.8125 62.3125 
L 9.8125 71.09375 
Q 15.4375 72.65625 20.34375 73.4375 
Q 25.25 74.21875 29.59375 74.21875 
Q 40.828125 74.21875 47.359375 69.109375 
Q 53.90625 64.015625 53.90625 55.328125 
Q 53.90625 49.265625 50.4375 45.09375 
Q 46.96875 40.921875 40.578125 39.3125 
z
" id="DejaVuSans-51"/>
       </defs>
       <use xlink:href="#DejaVuSans-51"/>
       <use x="63.623047" xlink:href="#DejaVuSans-48"/>
      </g>
     </g>
    </g>
    <g id="xtick_7">
     <g id="line2d_7">
      <g>
       <use style="stroke:#000000;stroke-width:0.8;" x="295.741902" xlink:href="#m827f3049af" y="277.111219"/>
      </g>
     </g>
     <g id="text_7">
      <!-- 40 -->
      <g transform="translate(289.379402 291.709656)scale(0.1 -0.1)">
       <defs>
        <path d="M 37.796875 64.3125 
L 12.890625 25.390625 
L 37.796875 25.390625 
z
M 35.203125 72.90625 
L 47.609375 72.90625 
L 47.609375 25.390625 
L 58.015625 25.390625 
L 58.015625 17.1875 
L 47.609375 17.1875 
L 47.609375 0 
L 37.796875 0 
L 37.796875 17.1875 
L 4.890625 17.1875 
L 4.890625 26.703125 
z
" id="DejaVuSans-52"/>
       </defs>
       <use xlink:href="#DejaVuSans-52"/>
       <use x="63.623047" xlink:href="#DejaVuSans-48"/>
      </g>
     </g>
    </g>
    <g id="xtick_8">
     <g id="line2d_8">
      <g>
       <use style="stroke:#000000;stroke-width:0.8;" x="335.694137" xlink:href="#m827f3049af" y="277.111219"/>
      </g>
     </g>
     <g id="text_8">
      <!-- 50 -->
      <g transform="translate(329.331637 291.709656)scale(0.1 -0.1)">
       <defs>
        <path d="M 10.796875 72.90625 
L 49.515625 72.90625 
L 49.515625 64.59375 
L 19.828125 64.59375 
L 19.828125 46.734375 
Q 21.96875 47.46875 24.109375 47.828125 
Q 26.265625 48.1875 28.421875 48.1875 
Q 40.625 48.1875 47.75 41.5 
Q 54.890625 34.8125 54.890625 23.390625 
Q 54.890625 11.625 47.5625 5.09375 
Q 40.234375 -1.421875 26.90625 -1.421875 
Q 22.3125 -1.421875 17.546875 -0.640625 
Q 12.796875 0.140625 7.71875 1.703125 
L 7.71875 11.625 
Q 12.109375 9.234375 16.796875 8.0625 
Q 21.484375 6.890625 26.703125 6.890625 
Q 35.15625 6.890625 40.078125 11.328125 
Q 45.015625 15.765625 45.015625 23.390625 
Q 45.015625 31 40.078125 35.4375 
Q 35.15625 39.890625 26.703125 39.890625 
Q 22.75 39.890625 18.8125 39.015625 
Q 14.890625 38.140625 10.796875 36.28125 
z
" id="DejaVuSans-53"/>
       </defs>
       <use xlink:href="#DejaVuSans-53"/>
       <use x="63.623047" xlink:href="#DejaVuSans-48"/>
      </g>
     </g>
    </g>
    <g id="xtick_9">
     <g id="line2d_9">
      <g>
       <use style="stroke:#000000;stroke-width:0.8;" x="375.646373" xlink:href="#m827f3049af" y="277.111219"/>
      </g>
     </g>
     <g id="text_9">
      <!-- 60 -->
      <g transform="translate(369.283873 291.709656)scale(0.1 -0.1)">
       <defs>
        <path d="M 33.015625 40.375 
Q 26.375 40.375 22.484375 35.828125 
Q 18.609375 31.296875 18.609375 23.390625 
Q 18.609375 15.53125 22.484375 10.953125 
Q 26.375 6.390625 33.015625 6.390625 
Q 39.65625 6.390625 43.53125 10.953125 
Q 47.40625 15.53125 47.40625 23.390625 
Q 47.40625 31.296875 43.53125 35.828125 
Q 39.65625 40.375 33.015625 40.375 
z
M 52.59375 71.296875 
L 52.59375 62.3125 
Q 48.875 64.0625 45.09375 64.984375 
Q 41.3125 65.921875 37.59375 65.921875 
Q 27.828125 65.921875 22.671875 59.328125 
Q 17.53125 52.734375 16.796875 39.40625 
Q 19.671875 43.65625 24.015625 45.921875 
Q 28.375 48.1875 33.59375 48.1875 
Q 44.578125 48.1875 50.953125 41.515625 
Q 57.328125 34.859375 57.328125 23.390625 
Q 57.328125 12.15625 50.6875 5.359375 
Q 44.046875 -1.421875 33.015625 -1.421875 
Q 20.359375 -1.421875 13.671875 8.265625 
Q 6.984375 17.96875 6.984375 36.375 
Q 6.984375 53.65625 15.1875 63.9375 
Q 23.390625 74.21875 37.203125 74.21875 
Q 40.921875 74.21875 44.703125 73.484375 
Q 48.484375 72.75 52.59375 71.296875 
z
" id="DejaVuSans-54"/>
       </defs>
       <use xlink:href="#DejaVuSans-54"/>
       <use x="63.623047" xlink:href="#DejaVuSans-48"/>
      </g>
     </g>
    </g>
    <g id="text_10">
     <!-- 1st PC: 98.74 % -->
     <g transform="translate(165.868088 310.919444)scale(0.1728 -0.1728)">
      <defs>
       <path d="M 44.28125 53.078125 
L 44.28125 44.578125 
Q 40.484375 46.53125 36.375 47.5 
Q 32.28125 48.484375 27.875 48.484375 
Q 21.1875 48.484375 17.84375 46.4375 
Q 14.5 44.390625 14.5 40.28125 
Q 14.5 37.15625 16.890625 35.375 
Q 19.28125 33.59375 26.515625 31.984375 
L 29.59375 31.296875 
Q 39.15625 29.25 43.1875 25.515625 
Q 47.21875 21.78125 47.21875 15.09375 
Q 47.21875 7.46875 41.1875 3.015625 
Q 35.15625 -1.421875 24.609375 -1.421875 
Q 20.21875 -1.421875 15.453125 -0.5625 
Q 10.6875 0.296875 5.421875 2 
L 5.421875 11.28125 
Q 10.40625 8.6875 15.234375 7.390625 
Q 20.0625 6.109375 24.8125 6.109375 
Q 31.15625 6.109375 34.5625 8.28125 
Q 37.984375 10.453125 37.984375 14.40625 
Q 37.984375 18.0625 35.515625 20.015625 
Q 33.0625 21.96875 24.703125 23.78125 
L 21.578125 24.515625 
Q 13.234375 26.265625 9.515625 29.90625 
Q 5.8125 33.546875 5.8125 39.890625 
Q 5.8125 47.609375 11.28125 51.796875 
Q 16.75 56 26.8125 56 
Q 31.78125 56 36.171875 55.265625 
Q 40.578125 54.546875 44.28125 53.078125 
z
" id="DejaVuSans-115"/>
       <path d="M 18.3125 70.21875 
L 18.3125 54.6875 
L 36.8125 54.6875 
L 36.8125 47.703125 
L 18.3125 47.703125 
L 18.3125 18.015625 
Q 18.3125 11.328125 20.140625 9.421875 
Q 21.96875 7.515625 27.59375 7.515625 
L 36.8125 7.515625 
L 36.8125 0 
L 27.59375 0 
Q 17.1875 0 13.234375 3.875 
Q 9.28125 7.765625 9.28125 18.015625 
L 9.28125 47.703125 
L 2.6875 47.703125 
L 2.6875 54.6875 
L 9.28125 54.6875 
L 9.28125 70.21875 
z
" id="DejaVuSans-116"/>
       <path id="DejaVuSans-32"/>
       <path d="M 19.671875 64.796875 
L 19.671875 37.40625 
L 32.078125 37.40625 
Q 38.96875 37.40625 42.71875 40.96875 
Q 46.484375 44.53125 46.484375 51.125 
Q 46.484375 57.671875 42.71875 61.234375 
Q 38.96875 64.796875 32.078125 64.796875 
z
M 9.8125 72.90625 
L 32.078125 72.90625 
Q 44.34375 72.90625 50.609375 67.359375 
Q 56.890625 61.8125 56.890625 51.125 
Q 56.890625 40.328125 50.609375 34.8125 
Q 44.34375 29.296875 32.078125 29.296875 
L 19.671875 29.296875 
L 19.671875 0 
L 9.8125 0 
z
" id="DejaVuSans-80"/>
       <path d="M 64.40625 67.28125 
L 64.40625 56.890625 
Q 59.421875 61.53125 53.78125 63.8125 
Q 48.140625 66.109375 41.796875 66.109375 
Q 29.296875 66.109375 22.65625 58.46875 
Q 16.015625 50.828125 16.015625 36.375 
Q 16.015625 21.96875 22.65625 14.328125 
Q 29.296875 6.6875 41.796875 6.6875 
Q 48.140625 6.6875 53.78125 8.984375 
Q 59.421875 11.28125 64.40625 15.921875 
L 64.40625 5.609375 
Q 59.234375 2.09375 53.4375 0.328125 
Q 47.65625 -1.421875 41.21875 -1.421875 
Q 24.65625 -1.421875 15.125 8.703125 
Q 5.609375 18.84375 5.609375 36.375 
Q 5.609375 53.953125 15.125 64.078125 
Q 24.65625 74.21875 41.21875 74.21875 
Q 47.75 74.21875 53.53125 72.484375 
Q 59.328125 70.75 64.40625 67.28125 
z
" id="DejaVuSans-67"/>
       <path d="M 11.71875 12.40625 
L 22.015625 12.40625 
L 22.015625 0 
L 11.71875 0 
z
M 11.71875 51.703125 
L 22.015625 51.703125 
L 22.015625 39.3125 
L 11.71875 39.3125 
z
" id="DejaVuSans-58"/>
       <path d="M 10.984375 1.515625 
L 10.984375 10.5 
Q 14.703125 8.734375 18.5 7.8125 
Q 22.3125 6.890625 25.984375 6.890625 
Q 35.75 6.890625 40.890625 13.453125 
Q 46.046875 20.015625 46.78125 33.40625 
Q 43.953125 29.203125 39.59375 26.953125 
Q 35.25 24.703125 29.984375 24.703125 
Q 19.046875 24.703125 12.671875 31.3125 
Q 6.296875 37.9375 6.296875 49.421875 
Q 6.296875 60.640625 12.9375 67.421875 
Q 19.578125 74.21875 30.609375 74.21875 
Q 43.265625 74.21875 49.921875 64.515625 
Q 56.59375 54.828125 56.59375 36.375 
Q 56.59375 19.140625 48.40625 8.859375 
Q 40.234375 -1.421875 26.421875 -1.421875 
Q 22.703125 -1.421875 18.890625 -0.6875 
Q 15.09375 0.046875 10.984375 1.515625 
z
M 30.609375 32.421875 
Q 37.25 32.421875 41.125 36.953125 
Q 45.015625 41.5 45.015625 49.421875 
Q 45.015625 57.28125 41.125 61.84375 
Q 37.25 66.40625 30.609375 66.40625 
Q 23.96875 66.40625 20.09375 61.84375 
Q 16.21875 57.28125 16.21875 49.421875 
Q 16.21875 41.5 20.09375 36.953125 
Q 23.96875 32.421875 30.609375 32.421875 
z
" id="DejaVuSans-57"/>
       <path d="M 31.78125 34.625 
Q 24.75 34.625 20.71875 30.859375 
Q 16.703125 27.09375 16.703125 20.515625 
Q 16.703125 13.921875 20.71875 10.15625 
Q 24.75 6.390625 31.78125 6.390625 
Q 38.8125 6.390625 42.859375 10.171875 
Q 46.921875 13.96875 46.921875 20.515625 
Q 46.921875 27.09375 42.890625 30.859375 
Q 38.875 34.625 31.78125 34.625 
z
M 21.921875 38.8125 
Q 15.578125 40.375 12.03125 44.71875 
Q 8.5 49.078125 8.5 55.328125 
Q 8.5 64.0625 14.71875 69.140625 
Q 20.953125 74.21875 31.78125 74.21875 
Q 42.671875 74.21875 48.875 69.140625 
Q 55.078125 64.0625 55.078125 55.328125 
Q 55.078125 49.078125 51.53125 44.71875 
Q 48 40.375 41.703125 38.8125 
Q 48.828125 37.15625 52.796875 32.3125 
Q 56.78125 27.484375 56.78125 20.515625 
Q 56.78125 9.90625 50.3125 4.234375 
Q 43.84375 -1.421875 31.78125 -1.421875 
Q 19.734375 -1.421875 13.25 4.234375 
Q 6.78125 9.90625 6.78125 20.515625 
Q 6.78125 27.484375 10.78125 32.3125 
Q 14.796875 37.15625 21.921875 38.8125 
z
M 18.3125 54.390625 
Q 18.3125 48.734375 21.84375 45.5625 
Q 25.390625 42.390625 31.78125 42.390625 
Q 38.140625 42.390625 41.71875 45.5625 
Q 45.3125 48.734375 45.3125 54.390625 
Q 45.3125 60.0625 41.71875 63.234375 
Q 38.140625 66.40625 31.78125 66.40625 
Q 25.390625 66.40625 21.84375 63.234375 
Q 18.3125 60.0625 18.3125 54.390625 
z
" id="DejaVuSans-56"/>
       <path d="M 10.6875 12.40625 
L 21 12.40625 
L 21 0 
L 10.6875 0 
z
" id="DejaVuSans-46"/>
       <path d="M 8.203125 72.90625 
L 55.078125 72.90625 
L 55.078125 68.703125 
L 28.609375 0 
L 18.3125 0 
L 43.21875 64.59375 
L 8.203125 64.59375 
z
" id="DejaVuSans-55"/>
       <path d="M 72.703125 32.078125 
Q 68.453125 32.078125 66.03125 28.46875 
Q 63.625 24.859375 63.625 18.40625 
Q 63.625 12.0625 66.03125 8.421875 
Q 68.453125 4.78125 72.703125 4.78125 
Q 76.859375 4.78125 79.265625 8.421875 
Q 81.6875 12.0625 81.6875 18.40625 
Q 81.6875 24.8125 79.265625 28.4375 
Q 76.859375 32.078125 72.703125 32.078125 
z
M 72.703125 38.28125 
Q 80.421875 38.28125 84.953125 32.90625 
Q 89.5 27.546875 89.5 18.40625 
Q 89.5 9.28125 84.9375 3.921875 
Q 80.375 -1.421875 72.703125 -1.421875 
Q 64.890625 -1.421875 60.34375 3.921875 
Q 55.8125 9.28125 55.8125 18.40625 
Q 55.8125 27.59375 60.375 32.9375 
Q 64.9375 38.28125 72.703125 38.28125 
z
M 22.3125 68.015625 
Q 18.109375 68.015625 15.6875 64.375 
Q 13.28125 60.75 13.28125 54.390625 
Q 13.28125 47.953125 15.671875 44.328125 
Q 18.0625 40.71875 22.3125 40.71875 
Q 26.5625 40.71875 28.96875 44.328125 
Q 31.390625 47.953125 31.390625 54.390625 
Q 31.390625 60.6875 28.953125 64.34375 
Q 26.515625 68.015625 22.3125 68.015625 
z
M 66.40625 74.21875 
L 74.21875 74.21875 
L 28.609375 -1.421875 
L 20.796875 -1.421875 
z
M 22.3125 74.21875 
Q 30.03125 74.21875 34.609375 68.875 
Q 39.203125 63.53125 39.203125 54.390625 
Q 39.203125 45.171875 34.640625 39.84375 
Q 30.078125 34.515625 22.3125 34.515625 
Q 14.546875 34.515625 10.03125 39.859375 
Q 5.515625 45.21875 5.515625 54.390625 
Q 5.515625 63.484375 10.046875 68.84375 
Q 14.59375 74.21875 22.3125 74.21875 
z
" id="DejaVuSans-37"/>
      </defs>
      <use xlink:href="#DejaVuSans-49"/>
      <use x="63.623047" xlink:href="#DejaVuSans-115"/>
      <use x="115.722656" xlink:href="#DejaVuSans-116"/>
      <use x="154.931641" xlink:href="#DejaVuSans-32"/>
      <use x="186.71875" xlink:href="#DejaVuSans-80"/>
      <use x="247.021484" xlink:href="#DejaVuSans-67"/>
      <use x="316.845703" xlink:href="#DejaVuSans-58"/>
      <use x="350.537109" xlink:href="#DejaVuSans-32"/>
      <use x="382.324219" xlink:href="#DejaVuSans-57"/>
      <use x="445.947266" xlink:href="#DejaVuSans-56"/>
      <use x="509.570312" xlink:href="#DejaVuSans-46"/>
      <use x="541.357422" xlink:href="#DejaVuSans-55"/>
      <use x="604.980469" xlink:href="#DejaVuSans-52"/>
      <use x="668.603516" xlink:href="#DejaVuSans-32"/>
      <use x="700.390625" xlink:href="#DejaVuSans-37"/>
     </g>
    </g>
   </g>
   <g id="matplotlib.axis_2">
    <g id="ytick_1">
     <g id="line2d_10">
      <defs>
       <path d="M 0 0 
L -3.5 0 
" id="m448ceb327a" style="stroke:#000000;stroke-width:0.8;"/>
      </defs>
      <g>
       <use style="stroke:#000000;stroke-width:0.8;" x="56.028488" xlink:href="#m448ceb327a" y="277.111219"/>
      </g>
     </g>
     <g id="text_11">
      <!-- −20 -->
      <g transform="translate(27.9238 280.910437)scale(0.1 -0.1)">
       <use xlink:href="#DejaVuSans-8722"/>
       <use x="83.789062" xlink:href="#DejaVuSans-50"/>
       <use x="147.412109" xlink:href="#DejaVuSans-48"/>
      </g>
     </g>
    </g>
    <g id="ytick_2">
     <g id="line2d_11">
      <g>
       <use style="stroke:#000000;stroke-width:0.8;" x="56.028488" xlink:href="#m448ceb327a" y="243.847219"/>
      </g>
     </g>
     <g id="text_12">
      <!-- −15 -->
      <g transform="translate(27.9238 247.646437)scale(0.1 -0.1)">
       <use xlink:href="#DejaVuSans-8722"/>
       <use x="83.789062" xlink:href="#DejaVuSans-49"/>
       <use x="147.412109" xlink:href="#DejaVuSans-53"/>
      </g>
     </g>
    </g>
    <g id="ytick_3">
     <g id="line2d_12">
      <g>
       <use style="stroke:#000000;stroke-width:0.8;" x="56.028488" xlink:href="#m448ceb327a" y="210.583219"/>
      </g>
     </g>
     <g id="text_13">
      <!-- −10 -->
      <g transform="translate(27.9238 214.382437)scale(0.1 -0.1)">
       <use xlink:href="#DejaVuSans-8722"/>
       <use x="83.789062" xlink:href="#DejaVuSans-49"/>
       <use x="147.412109" xlink:href="#DejaVuSans-48"/>
      </g>
     </g>
    </g>
    <g id="ytick_4">
     <g id="line2d_13">
      <g>
       <use style="stroke:#000000;stroke-width:0.8;" x="56.028488" xlink:href="#m448ceb327a" y="177.319219"/>
      </g>
     </g>
     <g id="text_14">
      <!-- −5 -->
      <g transform="translate(34.2863 181.118437)scale(0.1 -0.1)">
       <use xlink:href="#DejaVuSans-8722"/>
       <use x="83.789062" xlink:href="#DejaVuSans-53"/>
      </g>
     </g>
    </g>
    <g id="ytick_5">
     <g id="line2d_14">
      <g>
       <use style="stroke:#000000;stroke-width:0.8;" x="56.028488" xlink:href="#m448ceb327a" y="144.055219"/>
      </g>
     </g>
     <g id="text_15">
      <!-- 0 -->
      <g transform="translate(42.665987 147.854437)scale(0.1 -0.1)">
       <use xlink:href="#DejaVuSans-48"/>
      </g>
     </g>
    </g>
    <g id="ytick_6">
     <g id="line2d_15">
      <g>
       <use style="stroke:#000000;stroke-width:0.8;" x="56.028488" xlink:href="#m448ceb327a" y="110.791219"/>
      </g>
     </g>
     <g id="text_16">
      <!-- 5 -->
      <g transform="translate(42.665987 114.590437)scale(0.1 -0.1)">
       <use xlink:href="#DejaVuSans-53"/>
      </g>
     </g>
    </g>
    <g id="ytick_7">
     <g id="line2d_16">
      <g>
       <use style="stroke:#000000;stroke-width:0.8;" x="56.028488" xlink:href="#m448ceb327a" y="77.527219"/>
      </g>
     </g>
     <g id="text_17">
      <!-- 10 -->
      <g transform="translate(36.303488 81.326437)scale(0.1 -0.1)">
       <use xlink:href="#DejaVuSans-49"/>
       <use x="63.623047" xlink:href="#DejaVuSans-48"/>
      </g>
     </g>
    </g>
    <g id="ytick_8">
     <g id="line2d_17">
      <g>
       <use style="stroke:#000000;stroke-width:0.8;" x="56.028488" xlink:href="#m448ceb327a" y="44.263219"/>
      </g>
     </g>
     <g id="text_18">
      <!-- 15 -->
      <g transform="translate(36.303488 48.062437)scale(0.1 -0.1)">
       <use xlink:href="#DejaVuSans-49"/>
       <use x="63.623047" xlink:href="#DejaVuSans-53"/>
      </g>
     </g>
    </g>
    <g id="ytick_9">
     <g id="line2d_18">
      <g>
       <use style="stroke:#000000;stroke-width:0.8;" x="56.028488" xlink:href="#m448ceb327a" y="10.999219"/>
      </g>
     </g>
     <g id="text_19">
      <!-- 20 -->
      <g transform="translate(36.303488 14.798437)scale(0.1 -0.1)">
       <use xlink:href="#DejaVuSans-50"/>
       <use x="63.623047" xlink:href="#DejaVuSans-48"/>
      </g>
     </g>
    </g>
    <g id="text_20">
     <!-- 2nd PC: 0.66 % -->
     <g transform="translate(20.3301 210.351019)rotate(-90)scale(0.1728 -0.1728)">
      <defs>
       <path d="M 54.890625 33.015625 
L 54.890625 0 
L 45.90625 0 
L 45.90625 32.71875 
Q 45.90625 40.484375 42.875 44.328125 
Q 39.84375 48.1875 33.796875 48.1875 
Q 26.515625 48.1875 22.3125 43.546875 
Q 18.109375 38.921875 18.109375 30.90625 
L 18.109375 0 
L 9.078125 0 
L 9.078125 54.6875 
L 18.109375 54.6875 
L 18.109375 46.1875 
Q 21.34375 51.125 25.703125 53.5625 
Q 30.078125 56 35.796875 56 
Q 45.21875 56 50.046875 50.171875 
Q 54.890625 44.34375 54.890625 33.015625 
z
" id="DejaVuSans-110"/>
       <path d="M 45.40625 46.390625 
L 45.40625 75.984375 
L 54.390625 75.984375 
L 54.390625 0 
L 45.40625 0 
L 45.40625 8.203125 
Q 42.578125 3.328125 38.25 0.953125 
Q 33.9375 -1.421875 27.875 -1.421875 
Q 17.96875 -1.421875 11.734375 6.484375 
Q 5.515625 14.40625 5.515625 27.296875 
Q 5.515625 40.1875 11.734375 48.09375 
Q 17.96875 56 27.875 56 
Q 33.9375 56 38.25 53.625 
Q 42.578125 51.265625 45.40625 46.390625 
z
M 14.796875 27.296875 
Q 14.796875 17.390625 18.875 11.75 
Q 22.953125 6.109375 30.078125 6.109375 
Q 37.203125 6.109375 41.296875 11.75 
Q 45.40625 17.390625 45.40625 27.296875 
Q 45.40625 37.203125 41.296875 42.84375 
Q 37.203125 48.484375 30.078125 48.484375 
Q 22.953125 48.484375 18.875 42.84375 
Q 14.796875 37.203125 14.796875 27.296875 
z
" id="DejaVuSans-100"/>
      </defs>
      <use xlink:href="#DejaVuSans-50"/>
      <use x="63.623047" xlink:href="#DejaVuSans-110"/>
      <use x="127.001953" xlink:href="#DejaVuSans-100"/>
      <use x="190.478516" xlink:href="#DejaVuSans-32"/>
      <use x="222.265625" xlink:href="#DejaVuSans-80"/>
      <use x="282.568359" xlink:href="#DejaVuSans-67"/>
      <use x="352.392578" xlink:href="#DejaVuSans-58"/>
      <use x="386.083984" xlink:href="#DejaVuSans-32"/>
      <use x="417.871094" xlink:href="#DejaVuSans-48"/>
      <use x="481.494141" xlink:href="#DejaVuSans-46"/>
      <use x="513.28125" xlink:href="#DejaVuSans-54"/>
      <use x="576.904297" xlink:href="#DejaVuSans-54"/>
      <use x="640.527344" xlink:href="#DejaVuSans-32"/>
      <use x="672.314453" xlink:href="#DejaVuSans-37"/>
     </g>
    </g>
   </g>
   <g id="LineCollection_1"/>
   <g id="LineCollection_2"/>
   <g id="LineCollection_3"/>
   <g id="LineCollection_4"/>
   <g id="LineCollection_5">
    <path clip-path="url(#p5aa723d003)" d="M 138.541267 145.340951 
L 137.124031 152.925619 
L 135.932959 153.585527 
L 131.937735 154.593281 
L 127.942512 155.166253 
L 123.947288 154.85501 
L 120.832773 152.925619 
L 123.947288 144.929243 
L 124.202081 144.055219 
L 127.386571 135.184819 
L 127.942512 134.260064 
L 131.937735 131.509195 
L 132.455751 131.881201 
" style="fill:none;stroke:#404688;stroke-width:1.5;"/>
   </g>
   <g id="LineCollection_6">
    <path clip-path="url(#p5aa723d003)" d="M 56.028487 137.564582 
L 60.023711 138.661294 
L 64.018935 139.666716 
L 68.014158 140.478463 
L 72.009382 140.991356 
L 76.004605 141.147833 
L 79.999829 140.869297 
L 83.995052 140.014691 
L 87.990276 138.37406 
L 91.9855 135.610301 
L 92.42985 135.184819 
L 95.980723 131.716362 
L 96.065884 131.611837 
" style="fill:none;stroke:#39558c;stroke-width:1.5;"/>
    <path clip-path="url(#p5aa723d003)" d="M 104.11334 124.386436 
L 107.966394 122.859877 
L 111.961617 122.012695 
L 115.956841 121.797172 
L 119.952065 121.905736 
L 123.947288 122.154854 
L 127.942512 122.706739 
L 131.937735 124.709505 
L 133.846189 126.314419 
L 135.932959 129.641073 
L 139.928182 135.151729 
L 139.942794 135.184819 
L 140.98832 144.055219 
L 141.738246 152.925619 
L 139.928182 159.698697 
L 135.932959 160.745954 
L 133.175353 161.796019 
L 131.937735 161.956523 
L 127.942512 162.570073 
L 123.947288 163.111708 
L 119.952065 163.476025 
L 115.956841 163.607179 
L 111.961617 163.48993 
L 107.966394 163.192245 
L 103.97117 162.834527 
L 99.975947 162.521053 
L 95.980723 162.298491 
L 91.9855 162.163475 
L 87.990276 162.088561 
L 83.995052 162.050502 
L 79.999829 162.039183 
L 76.004605 162.051523 
L 72.009382 162.081987 
L 68.014158 162.124738 
L 64.018935 162.163676 
L 60.023711 162.188884 
L 56.028487 162.19621 
" style="fill:none;stroke:#39558c;stroke-width:1.5;"/>
   </g>
   <g id="LineCollection_7">
    <path clip-path="url(#p5aa723d003)" d="M 56.028487 116.109404 
L 60.023711 116.175911 
L 64.018935 115.937069 
L 68.014158 115.329632 
L 72.009382 114.385367 
L 76.004605 113.198169 
L 79.999829 111.875995 
L 83.995052 110.697964 
L 87.990276 110.011045 
L 91.9855 110.052946 
L 95.980723 110.789051 
L 99.975947 111.934205 
L 103.97117 113.13089 
L 107.966394 114.185165 
L 111.961617 115.069793 
L 115.956841 115.796442 
L 119.952065 116.41303 
L 123.947288 116.953714 
L 127.76522 117.444019 
L 127.942512 117.539967 
L 131.937735 122.210526 
L 135.932959 126.083992 
L 136.145237 126.314419 
L 139.928182 133.750401 
L 140.561602 135.184819 
L 142.223289 144.055219 
L 143.923406 152.586574 
L 143.951859 152.925619 
L 144.151188 161.796019 
L 143.923406 162.74117 
L 139.928182 164.152892 
L 135.932959 164.066101 
L 131.937735 164.395202 
L 127.942512 164.961826 
L 123.947288 165.585142 
L 119.952065 166.118228 
L 116.190229 166.439661 
" style="fill:none;stroke:#33638d;stroke-width:1.5;"/>
    <path clip-path="url(#p5aa723d003)" d="M 107.733157 166.386165 
L 103.97117 166.138397 
L 99.975947 165.893959 
L 95.980723 165.761544 
L 91.9855 165.757614 
L 87.990276 165.85527 
L 83.995052 166.015364 
L 79.999829 166.210025 
L 76.004605 166.428472 
L 72.009382 166.652404 
L 68.014158 166.872954 
L 64.018935 167.094036 
L 60.023711 167.325369 
L 56.028487 167.550642 
" style="fill:none;stroke:#33638d;stroke-width:1.5;"/>
   </g>
   <g id="LineCollection_8">
    <path clip-path="url(#p5aa723d003)" d="M 56.028487 108.690622 
L 57.988027 108.573619 
L 60.023711 108.553245 
L 64.018935 108.465688 
L 68.014158 108.238917 
L 72.009382 107.729642 
L 76.004605 107.103814 
L 79.999829 106.76108 
L 83.995052 106.75933 
L 87.990276 106.96321 
L 91.9855 107.278994 
L 95.980723 107.655434 
L 99.975947 108.064055 
L 103.97117 108.469542 
L 104.900864 108.573619 
L 107.966394 110.268861 
L 111.961617 112.146683 
L 115.956841 113.58418 
L 119.952065 114.733871 
L 123.947288 115.727661 
L 127.942512 116.677603 
L 130.018436 117.444019 
L 131.937735 119.711547 
L 135.932959 125.310138 
L 136.858142 126.314419 
L 139.928182 132.349074 
L 141.180409 135.184819 
L 143.458259 144.055219 
L 143.923406 146.389374 
L 144.47194 152.925619 
L 145.328854 161.796019 
L 143.923406 167.627744 
L 139.928182 167.264146 
L 135.932959 166.726296 
L 131.937735 166.833881 
L 127.942512 167.353579 
L 124.173545 168.01865 
" style="fill:none;stroke:#2d718e;stroke-width:1.5;"/>
    <path clip-path="url(#p5aa723d003)" d="M 115.727605 169.328766 
L 111.961617 169.603779 
L 107.966394 169.610808 
L 103.97117 169.442267 
L 99.975947 169.266865 
L 95.980723 169.224598 
L 91.9855 169.351753 
L 87.990276 169.621979 
L 83.995052 169.980226 
L 79.999829 170.380866 
L 77.270596 170.666419 
L 76.004605 170.699214 
L 72.009382 170.79614 
L 68.014158 170.887917 
L 64.018935 170.980907 
L 60.023711 171.081521 
L 56.028487 171.184554 
" style="fill:none;stroke:#2d718e;stroke-width:1.5;"/>
   </g>
   <g id="LineCollection_9">
    <path clip-path="url(#p5aa723d003)" d="M 56.028487 107.5379 
L 60.023711 107.309743 
L 64.018935 106.901072 
L 68.014158 106.199369 
L 72.009382 105.155654 
L 76.004605 104.252461 
L 79.999829 104.126524 
L 83.995052 104.525503 
L 87.990276 105.117616 
L 91.9855 105.76881 
L 95.980723 106.426914 
L 99.747807 107.037246 
" style="fill:none;stroke:#287d8e;stroke-width:1.5;"/>
    <path clip-path="url(#p5aa723d003)" d="M 108.195695 108.244127 
L 110.8364 108.573619 
L 111.961617 109.223573 
L 115.956841 111.371918 
L 119.952065 113.054712 
L 123.947288 114.501609 
L 127.942512 115.896686 
L 131.937735 117.411708 
L 131.977706 117.444019 
L 135.932959 124.536285 
L 137.571046 126.314419 
L 139.928182 130.947746 
L 141.799217 135.184819 
L 143.923406 142.691979 
L 144.097043 144.055219 
L 144.99202 152.925619 
L 146.50652 161.796019 
L 146.958864 170.666419 
L 143.923406 171.419399 
L 140.720438 170.666419 
L 139.928182 170.375399 
L 135.932959 169.386492 
L 131.937735 169.27256 
L 127.942512 169.745333 
L 123.947288 170.532009 
L 123.295276 170.666419 
L 119.952065 170.965057 
L 115.956841 171.216797 
L 111.961617 171.33816 
L 107.966394 171.34375 
L 103.97117 171.286765 
L 99.975947 171.232186 
L 95.980723 171.224737 
L 91.9855 171.271739 
L 87.990276 171.361861 
L 83.995052 171.476735 
L 79.999829 171.6016 
L 76.004605 171.731885 
L 72.009382 171.861699 
L 68.014158 171.989483 
L 64.018935 172.12271 
L 60.023711 172.269069 
L 56.028487 172.423833 
" style="fill:none;stroke:#287d8e;stroke-width:1.5;"/>
   </g>
   <g id="LineCollection_10">
    <path clip-path="url(#p5aa723d003)" d="M 56.028487 106.485585 
L 60.023711 106.06624 
L 64.018935 105.336456 
L 68.014158 104.159822 
L 72.009382 102.581665 
L 76.004605 101.401108 
L 79.999829 101.491968 
L 83.995052 102.291676 
L 87.990276 103.272022 
L 91.9855 104.258626 
L 95.980723 105.198394 
L 99.975947 106.084362 
L 103.97117 106.883944 
L 107.966394 107.584089 
L 111.961617 108.186338 
L 114.941689 108.573619 
L 115.956841 109.159656 
L 119.952065 111.375553 
L 123.947288 113.275557 
L 127.942512 115.115769 
L 131.937735 117.062844 
L 132.409273 117.444019 
L 135.932959 123.762431 
L 138.283951 126.314419 
L 139.928182 129.546418 
L 142.418024 135.184819 
L 143.923406 140.505034 
L 144.375595 144.055219 
L 145.512101 152.925619 
L 147.684186 161.796019 
L 147.91863 163.431834 
L 148.814289 170.666419 
L 147.91863 172.767595 
L 143.923406 173.410576 
L 139.928182 172.233691 
L 135.932959 171.421625 
L 132.170867 171.226195 
" style="fill:none;stroke:#238a8d;stroke-width:1.5;"/>
    <path clip-path="url(#p5aa723d003)" d="M 123.715298 171.734329 
L 119.952065 172.036842 
L 115.956841 172.26478 
L 111.961617 172.367834 
L 107.966394 172.353072 
L 103.97117 172.272257 
L 99.975947 172.199211 
L 95.980723 172.181325 
L 91.9855 172.226171 
L 87.990276 172.32412 
L 83.995052 172.456642 
L 79.999829 172.605513 
L 76.004605 172.764557 
L 72.009382 172.927259 
L 68.014158 173.091048 
L 64.018935 173.264512 
L 60.023711 173.456617 
L 56.028487 173.663112 
" style="fill:none;stroke:#238a8d;stroke-width:1.5;"/>
   </g>
   <g id="LineCollection_11">
    <path clip-path="url(#p5aa723d003)" d="M 56.028487 105.433269 
L 60.023711 104.822738 
L 64.018935 103.77184 
L 68.014158 102.120274 
L 72.009382 100.007676 
L 72.913267 99.703219 
L 76.004605 99.579039 
L 79.999829 99.549997 
L 82.673123 99.703219 
L 83.995052 100.057848 
L 87.990276 101.426428 
L 91.774183 102.678518 
" style="fill:none;stroke:#1f968b;stroke-width:1.5;"/>
    <path clip-path="url(#p5aa723d003)" d="M 100.190996 105.148161 
L 103.97117 106.091145 
L 107.966394 106.952662 
L 111.961617 107.688323 
L 115.956841 108.304013 
L 118.049005 108.573619 
L 119.952065 109.696394 
L 123.947288 112.049505 
L 127.942512 114.334852 
L 131.937735 116.713981 
L 132.84084 117.444019 
L 135.932959 122.988577 
L 138.996855 126.314419 
L 139.928182 128.145091 
L 143.036832 135.184819 
L 143.923406 138.318088 
L 144.654148 144.055219 
L 146.032182 152.925619 
L 147.91863 160.191617 
L 148.175105 161.796019 
L 149.831585 170.666419 
L 147.91863 175.154124 
L 143.923406 175.401752 
L 139.928182 173.96269 
L 135.932959 172.877137 
L 131.937735 172.492371 
L 127.942512 172.56043 
L 123.947288 172.825237 
L 119.952065 173.108627 
L 115.956841 173.312763 
L 111.961617 173.397508 
L 107.966394 173.362394 
L 103.97117 173.257748 
L 99.975947 173.166236 
L 95.980723 173.137913 
L 91.9855 173.180603 
L 87.990276 173.286379 
L 83.995052 173.436549 
L 79.999829 173.609427 
L 76.004605 173.797228 
L 72.009382 173.992818 
L 68.014158 174.192613 
L 64.018935 174.406315 
L 60.023711 174.644164 
L 56.028487 174.902392 
" style="fill:none;stroke:#1f968b;stroke-width:1.5;"/>
   </g>
   <g id="LineCollection_12">
    <path clip-path="url(#p5aa723d003)" d="M 56.028487 104.380954 
L 60.023711 103.579236 
L 64.018935 102.207224 
L 68.014158 100.080727 
L 68.707338 99.703219 
L 72.009382 99.53194 
L 76.004605 99.272067 
L 79.999829 99.072735 
L 83.995052 99.254708 
L 87.990276 99.672002 
L 88.234955 99.703219 
L 91.9855 101.238259 
L 95.980723 102.741355 
L 99.975947 104.104669 
L 103.97117 105.298346 
L 107.966394 106.321235 
L 111.961617 107.190309 
L 115.956841 107.937252 
L 119.952065 108.495162 
L 120.563135 108.573619 
L 123.947288 110.823452 
L 127.942512 113.553934 
L 131.937735 116.365117 
L 133.272407 117.444019 
L 135.932959 122.214723 
L 139.70976 126.314419 
L 139.928182 126.743763 
L 143.655639 135.184819 
L 143.923406 136.131142 
L 144.9327 144.055219 
L 146.552262 152.925619 
L 147.91863 158.188432 
L 148.495329 161.796019 
L 150.848881 170.666419 
L 147.91863 177.540653 
L 143.923406 177.392929 
L 140.133733 175.779216 
" style="fill:none;stroke:#20a386;stroke-width:1.5;"/>
    <path clip-path="url(#p5aa723d003)" d="M 131.708595 173.768514 
L 127.942512 173.733272 
L 123.947288 173.934793 
L 119.952065 174.180412 
L 115.956841 174.360746 
L 111.961617 174.427182 
L 107.966394 174.371716 
L 103.97117 174.24324 
L 99.975947 174.133261 
L 95.980723 174.094501 
L 91.9855 174.135035 
L 87.990276 174.248638 
L 83.995052 174.416456 
L 79.999829 174.61334 
L 76.004605 174.829899 
L 72.009382 175.058378 
L 68.014158 175.294179 
L 64.018935 175.548117 
L 60.023711 175.831712 
L 56.028487 176.141671 
" style="fill:none;stroke:#20a386;stroke-width:1.5;"/>
   </g>
   <g id="LineCollection_13">
    <path clip-path="url(#p5aa723d003)" d="M 56.028487 103.328639 
L 60.023711 102.335733 
L 64.018935 100.642608 
L 65.713779 99.703219 
L 68.014158 99.584503 
L 72.009382 99.337683 
L 76.004605 98.965096 
L 79.999829 98.595472 
L 83.995052 98.721556 
L 87.990276 99.201243 
L 91.924768 99.703219 
L 91.9855 99.728075 
L 95.980723 101.512835 
L 99.975947 103.114823 
L 103.97117 104.505547 
L 107.966394 105.689807 
L 111.961617 106.692294 
L 115.956841 107.57049 
L 119.952065 108.258382 
L 122.407338 108.573619 
L 123.947288 109.5974 
L 127.942512 112.773017 
L 131.937735 116.016254 
L 133.703974 117.444019 
L 135.932959 121.44087 
L 139.928182 126.190857 
L 140.044309 126.314419 
L 143.923406 134.972827 
L 143.999869 135.184819 
L 145.211252 144.055219 
L 147.072343 152.925619 
L 147.91863 156.185246 
L 148.815553 161.796019 
L 151.866176 170.666419 
L 148.547553 179.536819 
L 148.150088 179.627487 
" style="fill:none;stroke:#29af7f;stroke-width:1.5;"/>
    <path clip-path="url(#p5aa723d003)" d="M 139.750236 177.347975 
L 135.932959 175.78816 
L 131.937735 175.048945 
L 127.942512 174.906114 
L 123.947288 175.04435 
L 119.952065 175.252196 
L 115.956841 175.408729 
L 111.961617 175.456856 
L 107.966394 175.381038 
L 103.97117 175.228731 
L 99.975947 175.100286 
L 95.980723 175.051088 
L 91.9855 175.089468 
L 87.990276 175.210897 
L 83.995052 175.396363 
L 79.999829 175.617253 
L 76.004605 175.86257 
L 72.009382 176.123937 
L 68.014158 176.395744 
L 64.018935 176.68992 
L 60.023711 177.01926 
L 56.028487 177.38095 
" style="fill:none;stroke:#29af7f;stroke-width:1.5;"/>
   </g>
   <g id="LineCollection_14">
    <path clip-path="url(#p5aa723d003)" d="M 60.234952 100.992516 
L 62.96626 99.703219 
L 64.018935 99.654241 
L 68.014158 99.438822 
L 72.009382 99.143427 
L 76.004605 98.658124 
L 79.999829 98.11821 
L 83.995052 98.188405 
L 87.990276 98.730484 
L 91.9855 99.345743 
L 94.683297 99.703219 
L 95.980723 100.284315 
L 99.975947 102.124976 
L 103.97117 103.712748 
L 107.966394 105.05838 
L 111.961617 106.19428 
L 115.956841 107.203728 
L 119.952065 108.021601 
L 123.947288 108.551958 
L 124.092389 108.573619 
L 127.942512 111.9921 
L 131.937735 115.66739 
L 134.13554 117.444019 
L 135.932959 120.667016 
L 139.928182 126.012716 
L 140.21173 126.314419 
L 143.923406 134.599131 
L 144.134657 135.184819 
L 145.489805 144.055219 
L 147.592424 152.925619 
L 147.91863 154.182061 
L 149.135777 161.796019 
L 151.913853 169.788334 
L 152.183818 170.666419 
L 152.020449 179.536819 
L 151.913853 179.625593 
L 147.91863 180.557393 
L 143.923406 180.46085 
L 140.707945 179.536819 
L 139.928182 179.149687 
L 135.932959 177.243671 
L 131.937735 176.327231 
L 127.942512 176.078956 
L 123.947288 176.153906 
L 119.952065 176.323981 
L 115.956841 176.456712 
L 111.961617 176.48653 
L 107.966394 176.390359 
L 103.97117 176.214223 
L 99.975947 176.067311 
L 95.980723 176.007676 
L 91.9855 176.0439 
L 87.990276 176.173156 
L 83.995052 176.376271 
L 79.999829 176.621166 
L 76.004605 176.895241 
L 72.009382 177.189496 
L 68.014158 177.49731 
L 64.018935 177.831722 
L 60.023711 178.206808 
L 56.028487 178.620229 
" style="fill:none;stroke:#3dbc74;stroke-width:1.5;"/>
   </g>
   <g id="LineCollection_15">
    <path clip-path="url(#p5aa723d003)" d="M 56.028487 101.224008 
L 60.023711 99.848728 
L 60.331966 99.703219 
L 64.018935 99.531674 
L 68.014158 99.293141 
L 72.009382 98.949171 
L 76.004605 98.351153 
L 79.999829 97.640948 
L 83.995052 97.655254 
L 87.990276 98.259725 
L 91.9855 98.982286 
L 95.980723 99.56262 
L 97.04754 99.703219 
L 99.975947 101.13513 
L 103.97117 102.919949 
L 107.966394 104.426953 
L 111.961617 105.696265 
L 115.956841 106.836966 
L 119.952065 107.784821 
L 123.947288 108.420664 
L 124.971911 108.573619 
L 127.942512 111.211183 
L 131.937735 115.318527 
L 134.567107 117.444019 
L 135.932959 119.893162 
L 139.928182 125.834575 
L 140.379151 126.314419 
L 143.923406 134.225435 
L 144.269445 135.184819 
L 145.768357 144.055219 
L 147.91863 152.516993 
L 147.970235 152.925619 
L 149.456001 161.796019 
L 151.913853 168.867074 
L 152.467057 170.666419 
L 152.876654 179.536819 
L 151.913853 180.338653 
L 147.91863 181.434499 
L 143.923406 181.461636 
L 139.928182 180.283501 
L 137.634086 179.536819 
L 135.932959 178.699183 
L 131.937735 177.605518 
L 127.942512 177.251798 
L 123.947288 177.263462 
L 119.952065 177.395766 
L 115.956841 177.504695 
L 111.961617 177.516204 
L 107.966394 177.399681 
L 103.97117 177.199715 
L 99.975947 177.034336 
L 95.980723 176.964264 
L 91.9855 176.998332 
L 87.990276 177.135416 
L 83.995052 177.356178 
L 79.999829 177.62508 
L 76.004605 177.927912 
L 72.009382 178.255056 
L 68.014158 178.598875 
L 64.018935 178.973525 
L 60.255727 179.369917 
" style="fill:none;stroke:#56c667;stroke-width:1.5;"/>
   </g>
   <g id="LineCollection_16">
    <path clip-path="url(#p5aa723d003)" d="M 56.028487 100.171693 
L 57.367633 99.703219 
L 60.023711 99.606193 
L 64.018935 99.409107 
L 68.014158 99.14746 
L 72.009382 98.754915 
L 76.004605 98.044181 
L 79.999829 97.163686 
L 83.995052 97.122103 
L 87.990276 97.788966 
L 91.9855 98.618828 
L 94.847917 99.10387 
" style="fill:none;stroke:#75d054;stroke-width:1.5;"/>
    <path clip-path="url(#p5aa723d003)" d="M 103.243624 101.766244 
L 103.97117 102.12715 
L 107.966394 103.795526 
L 111.961617 105.19825 
L 115.956841 106.470204 
L 119.952065 107.54804 
L 123.947288 108.28937 
L 125.851432 108.573619 
L 127.942512 110.430265 
L 131.937735 114.969663 
L 134.998674 117.444019 
L 135.932959 119.119309 
L 139.928182 125.656433 
L 140.546573 126.314419 
L 143.923406 133.851739 
L 144.404233 135.184819 
L 146.04691 144.055219 
L 147.91863 151.420831 
L 148.108671 152.925619 
L 149.776225 161.796019 
L 151.913853 167.945813 
L 152.750296 170.666419 
L 153.732859 179.536819 
L 151.913853 181.051712 
L 147.91863 182.311606 
L 143.923406 182.462422 
L 139.928182 181.245603 
L 135.932959 179.90086 
L 134.119747 179.536819 
L 131.937735 178.883805 
L 127.942512 178.424639 
L 123.947288 178.373019 
L 119.952065 178.467551 
L 115.956841 178.552678 
L 111.961617 178.545877 
L 107.966394 178.409003 
L 103.97117 178.185206 
L 99.975947 178.001361 
L 95.980723 177.920852 
L 91.9855 177.952764 
L 87.990276 178.097675 
L 83.995052 178.336085 
L 79.999829 178.628993 
L 76.004605 178.960583 
L 72.009382 179.320615 
L 69.702749 179.536819 
L 68.014158 179.619794 
L 64.018935 179.827913 
L 60.023711 180.058547 
L 56.028487 180.308934 
" style="fill:none;stroke:#75d054;stroke-width:1.5;"/>
   </g>
   <g id="LineCollection_17">
    <path clip-path="url(#p5aa723d003)" d="M 56.028487 99.646459 
L 60.023711 99.49631 
L 64.018935 99.28654 
L 68.014158 99.001779 
L 72.009382 98.560658 
L 76.004605 97.737209 
L 79.999829 96.686424 
L 83.995052 96.588951 
L 87.990276 97.318207 
L 91.9855 98.25537 
L 95.980723 99.029033 
L 96.598565 99.116519 
" style="fill:none;stroke:#95d840;stroke-width:1.5;"/>
    <path clip-path="url(#p5aa723d003)" d="M 104.992369 101.802044 
L 107.966394 103.164099 
L 111.961617 104.700236 
L 115.956841 106.103442 
L 119.952065 107.31126 
L 123.947288 108.158075 
L 126.730953 108.573619 
L 127.942512 109.649348 
L 131.937735 114.6208 
L 135.430241 117.444019 
L 135.932959 118.345455 
L 139.928182 125.478292 
L 140.713994 126.314419 
L 143.923406 133.478043 
L 144.539021 135.184819 
L 146.325462 144.055219 
L 147.91863 150.324668 
L 148.247107 152.925619 
L 150.096449 161.796019 
L 151.913853 167.024553 
L 153.033536 170.666419 
L 154.589063 179.536819 
L 151.913853 181.764772 
L 147.91863 183.188712 
L 143.923406 183.463208 
L 139.928182 182.207705 
L 135.932959 180.758422 
L 131.937735 179.917433 
L 127.942512 179.574037 
L 125.888611 179.536819 
L 123.947288 179.482575 
L 120.135181 179.536819 
L 119.952065 179.538317 
L 115.956841 179.573849 
L 111.961617 179.558909 
L 110.992131 179.536819 
L 107.966394 179.418325 
L 103.97117 179.170698 
L 99.975947 178.968386 
L 95.980723 178.87744 
L 91.9855 178.907197 
L 87.990276 179.059934 
L 83.995052 179.315992 
L 81.190839 179.536819 
L 79.999829 179.587464 
L 76.004605 179.774163 
L 72.009382 179.972737 
L 68.014158 180.178418 
L 64.018935 180.402445 
L 60.023711 180.651397 
L 56.028487 180.921537 
" style="fill:none;stroke:#95d840;stroke-width:1.5;"/>
   </g>
   <g id="LineCollection_18">
    <path clip-path="url(#p5aa723d003)" d="M 56.028487 99.544156 
L 59.790837 99.39562 
" style="fill:none;stroke:#bade28;stroke-width:1.5;"/>
    <path clip-path="url(#p5aa723d003)" d="M 68.246218 98.827655 
L 72.009382 98.366402 
L 76.004605 97.430238 
L 79.999829 96.209161 
L 83.995052 96.0558 
L 87.990276 96.847448 
L 91.9855 97.891912 
L 95.980723 98.76224 
L 99.975947 99.398754 
L 102.353033 99.703219 
L 103.97117 100.541552 
L 107.966394 102.532671 
L 111.961617 104.202221 
L 115.956841 105.73668 
L 119.952065 107.074479 
L 123.947288 108.026781 
L 127.610474 108.573619 
L 127.942512 108.868431 
L 131.937735 114.271936 
L 135.861808 117.444019 
L 135.932959 117.571601 
L 139.928182 125.300151 
L 140.881416 126.314419 
L 143.923406 133.104347 
L 144.673809 135.184819 
L 146.604015 144.055219 
L 147.91863 149.228505 
L 148.385542 152.925619 
L 150.416673 161.796019 
L 151.913853 166.103293 
L 153.316775 170.666419 
L 155.445268 179.536819 
L 151.913853 182.477832 
L 147.91863 184.065819 
L 143.923406 184.463994 
L 139.928182 183.169807 
L 135.932959 181.615984 
L 131.937735 180.695548 
L 127.942512 180.293611 
L 123.947288 180.179014 
L 119.952065 180.176373 
L 115.956841 180.181709 
L 111.961617 180.14617 
L 107.966394 180.042204 
L 103.97117 179.888308 
L 99.975947 179.76185 
L 95.980723 179.703401 
L 91.9855 179.716912 
L 87.990276 179.801601 
L 83.995052 179.943129 
L 79.999829 180.116596 
L 76.004605 180.311146 
L 72.009382 180.519619 
L 68.014158 180.737042 
L 64.018935 180.976977 
L 60.023711 181.244246 
L 56.028487 181.53414 
" style="fill:none;stroke:#bade28;stroke-width:1.5;"/>
   </g>
   <g id="LineCollection_19">
    <path clip-path="url(#p5aa723d003)" d="M 56.028487 99.441852 
L 60.023711 99.276543 
L 64.018935 99.041407 
L 68.014158 98.710418 
L 72.009382 98.172146 
L 76.004605 97.123266 
L 79.999829 95.731899 
L 83.995052 95.522649 
L 87.990276 96.37669 
L 91.9855 97.528454 
L 95.980723 98.495446 
L 99.975947 99.202755 
L 103.88328 99.703219 
L 103.97117 99.748753 
L 107.966394 101.901244 
L 111.961617 103.704207 
L 115.956841 105.369918 
L 119.952065 106.837699 
L 123.947288 107.895487 
L 127.942512 108.53452 
L 128.09837 108.573619 
L 131.937735 113.923073 
L 135.932959 117.367657 
L 136.0089 117.444019 
L 139.928182 125.122009 
L 141.048837 126.314419 
L 143.923406 132.730651 
L 144.808597 135.184819 
L 146.882567 144.055219 
L 147.91863 148.132342 
L 148.523978 152.925619 
L 150.736897 161.796019 
L 151.913853 165.182032 
L 153.600014 170.666419 
L 155.909077 179.064696 
L 156.023562 179.536819 
L 155.968313 179.657822 
" style="fill:none;stroke:#dde318;stroke-width:1.5;"/>
    <path clip-path="url(#p5aa723d003)" d="M 147.728261 184.967791 
L 143.923406 185.46478 
L 139.928182 184.131909 
L 135.932959 182.473547 
L 131.937735 181.473663 
L 127.942512 181.013185 
L 123.947288 180.854218 
L 119.952065 180.814429 
L 115.956841 180.789568 
L 111.961617 180.733431 
L 107.966394 180.614813 
L 103.97117 180.44757 
L 99.975947 180.307798 
L 95.980723 180.239557 
L 91.9855 180.246104 
L 87.990276 180.326534 
L 83.995052 180.467641 
L 79.999829 180.645729 
L 76.004605 180.84813 
L 72.009382 181.066501 
L 68.014158 181.295666 
L 64.018935 181.551509 
L 60.023711 181.837095 
L 56.028487 182.146743 
" style="fill:none;stroke:#dde318;stroke-width:1.5;"/>
   </g>
   <g id="LineCollection_20">
    <path clip-path="url(#p5aa723d003)" d="M 56.028487 99.339549 
L 60.023711 99.166659 
L 64.018935 98.91884 
L 68.014158 98.564737 
L 72.009382 97.97789 
L 76.004605 96.816295 
L 79.999829 95.254637 
L 83.995052 94.989498 
L 87.990276 95.905931 
L 91.9855 97.164997 
L 95.980723 98.228653 
L 99.747233 98.962212 
" style="fill:none;stroke:#fde725;stroke-width:1.5;"/>
    <path clip-path="url(#p5aa723d003)" d="M 108.14925 101.358442 
L 111.961617 103.206192 
L 115.956841 105.003156 
L 119.952065 106.600918 
L 123.947288 107.764192 
L 127.942512 108.471709 
L 128.348754 108.573619 
L 131.937735 113.57421 
L 135.932959 117.27622 
L 136.099834 117.444019 
L 139.928182 124.943868 
L 141.216258 126.314419 
L 143.923406 132.356956 
L 144.943384 135.184819 
L 147.16112 144.055219 
L 147.91863 147.036179 
L 148.662414 152.925619 
L 151.057121 161.796019 
L 151.913853 164.260772 
L 153.883253 170.666419 
L 155.909077 178.034528 
L 156.273367 179.536819 
L 155.909077 180.334672 
L 151.913853 183.903951 
L 147.91863 185.820031 
L 143.923406 186.465566 
L 139.928182 185.094011 
L 135.932959 183.331109 
L 131.937735 182.251778 
L 127.942512 181.732758 
L 123.947288 181.529422 
L 119.952065 181.452485 
L 115.956841 181.397427 
L 111.961617 181.320692 
L 107.966394 181.187423 
L 103.97117 181.006832 
L 99.975947 180.853746 
L 95.980723 180.775714 
L 91.9855 180.775296 
L 87.990276 180.851468 
L 83.995052 180.992152 
L 79.999829 181.174861 
L 76.004605 181.385113 
L 72.009382 181.613383 
L 68.014158 181.85429 
L 64.018935 182.126042 
L 60.023711 182.429944 
L 56.028487 182.759346 
" style="fill:none;stroke:#fde725;stroke-width:1.5;"/>
   </g>
   <g id="LineCollection_21">
    <path clip-path="url(#p5aa723d003)" d="M 56.028487 99.237245 
L 60.023711 99.056776 
L 64.018935 98.796273 
L 68.014158 98.419056 
L 72.009382 97.783633 
L 76.004605 96.509323 
L 79.999829 94.777375 
L 83.995052 94.456346 
L 87.990276 95.435172 
L 91.9855 96.801539 
L 95.980723 97.961859 
L 99.975947 98.810757 
L 103.164795 99.295646 
" style="fill:none;stroke:#440154;stroke-width:1.5;"/>
    <path clip-path="url(#p5aa723d003)" d="M 112.729377 103.078722 
L 115.956841 104.636394 
L 119.952065 106.364138 
L 123.947288 107.632898 
L 127.942512 108.408898 
L 128.599137 108.573619 
L 131.937735 113.225346 
L 135.932959 117.184783 
L 136.190767 117.444019 
L 139.928182 124.765727 
L 141.38368 126.314419 
L 143.923406 131.98326 
L 145.078172 135.184819 
L 147.439672 144.055219 
L 147.91863 145.940016 
L 148.800849 152.925619 
L 151.377345 161.796019 
L 151.913853 163.339511 
L 154.166492 170.666419 
L 155.909077 177.004361 
L 156.523173 179.536819 
L 155.909077 180.881784 
L 151.913853 184.61701 
L 147.91863 186.697138 
L 143.923406 187.466352 
L 139.928182 186.056113 
L 135.932959 184.188671 
L 131.937735 183.029893 
L 127.942512 182.452332 
L 123.947288 182.204626 
L 119.952065 182.090541 
L 115.956841 182.005287 
L 111.961617 181.907952 
L 107.966394 181.760032 
L 103.97117 181.566094 
L 99.975947 181.399694 
L 95.980723 181.311871 
L 91.9855 181.304488 
L 87.990276 181.376401 
L 83.995052 181.516663 
L 79.999829 181.703994 
L 76.004605 181.922097 
L 72.009382 182.160264 
L 68.014158 182.412914 
L 64.018935 182.700574 
L 60.023711 183.022793 
L 56.028487 183.371949 
" style="fill:none;stroke:#440154;stroke-width:1.5;"/>
   </g>
   <g id="LineCollection_22">
    <path clip-path="url(#p5aa723d003)" d="M 56.028487 86.358492 
L 60.023711 85.803473 
L 64.018935 84.888773 
L 68.014158 83.457722 
L 70.890935 81.962419 
L 72.009382 81.735275 
L 76.004605 81.229021 
L 79.999829 81.236607 
L 83.995052 81.555677 
L 87.990276 81.909471 
L 88.529904 81.962419 
L 91.9855 83.921938 
L 95.980723 85.766017 
L 99.975947 87.237809 
L 103.97117 88.543223 
L 107.966394 89.71438 
L 111.961617 90.548099 
L 113.783761 90.832819 
L 115.956841 93.119936 
L 119.952065 96.849347 
L 123.947288 98.698524 
L 127.942512 99.540622 
L 128.669339 99.703219 
L 131.937735 104.383518 
L 135.932959 107.796505 
L 136.99499 108.573619 
L 139.928182 114.166596 
L 143.420097 117.444019 
L 143.923406 118.404733 
L 147.91863 125.457521 
L 148.425877 126.314419 
L 151.913853 134.904112 
L 151.983433 135.184819 
L 153.777906 144.055219 
L 155.909077 150.343825 
L 156.506919 152.925619 
L 159.9043 161.745162 
L 159.91998 161.796019 
L 163.236265 170.666419 
L 163.899524 172.257514 
L 166.441122 179.536819 
L 167.894747 186.828715 
L 168.089843 188.407219 
L 167.894747 188.890256 
L 163.899524 194.364264 
L 162.008444 197.277619 
L 159.9043 198.837974 
L 155.909077 203.327798 
L 153.690388 206.148019 
L 151.913853 207.026745 
L 147.91863 209.30582 
L 145.285822 211.137988 
" style="fill:none;stroke:#440154;stroke-width:1.5;"/>
    <path clip-path="url(#p5aa723d003)" d="M 134.498946 214.485338 
L 131.937735 214.343316 
L 127.942512 213.753555 
L 123.947288 213.300004 
L 119.952065 213.142811 
L 115.956841 213.257374 
L 111.961617 213.619281 
L 107.966394 214.182781 
L 103.97117 214.888752 
L 103.231874 215.018419 
L 99.975947 215.225702 
L 95.980723 215.485787 
L 91.9855 215.727455 
L 87.990276 215.907805 
L 83.995052 216.014924 
L 79.999829 216.075656 
L 76.004605 216.198864 
L 72.009382 216.433371 
L 68.014158 216.817819 
L 64.018935 217.388528 
L 60.023711 218.105747 
L 56.028487 218.961007 
" style="fill:none;stroke:#440154;stroke-width:1.5;"/>
   </g>
   <g id="LineCollection_23">
    <path clip-path="url(#p5aa723d003)" d="M 175.885195 197.712395 
L 171.889971 201.032034 
L 168.291679 206.148019 
L 167.894747 206.379701 
L 163.899524 209.204734 
L 160.029045 215.018419 
L 159.9043 215.091794 
L 155.909077 217.017823 
L 151.913853 220.055734 
L 148.47195 223.888819 
L 147.91863 224.048984 
L 143.923406 224.935036 
L 139.928182 225.703061 
L 135.932959 226.502652 
L 131.937735 227.220906 
L 127.942512 227.716272 
L 123.947288 228.042268 
L 121.996885 228.212317 
" style="fill:none;stroke:#440154;stroke-width:1.5;"/>
    <path clip-path="url(#p5aa723d003)" d="M 109.923964 229.130901 
L 107.966394 229.576364 
L 103.97117 231.017732 
L 100.580244 232.759219 
L 99.975947 232.825696 
L 95.980723 233.349894 
L 91.9855 234.084519 
L 87.990276 235.120823 
L 83.995052 236.578338 
L 79.999829 238.684072 
L 76.166735 241.629619 
L 76.004605 241.658028 
L 72.009382 242.352107 
L 68.014158 243.251765 
L 64.018935 244.383451 
L 60.023711 245.845899 
L 56.028487 247.798229 
" style="fill:none;stroke:#440154;stroke-width:1.5;"/>
    <path clip-path="url(#p5aa723d003)" d="M 56.028488 64.087468 
L 59.761635 64.221619 
L 60.023711 64.277212 
L 64.018935 65.838788 
L 68.014158 67.586151 
L 72.009382 69.060551 
L 76.004605 70.236573 
L 79.999829 71.171368 
L 83.995052 71.918632 
L 87.990276 72.502501 
L 91.9855 72.94855 
L 93.372351 73.092019 
L 95.980723 74.65635 
L 99.975947 76.960045 
L 103.97117 79.279076 
L 107.966394 80.842854 
L 111.961617 81.791301 
L 112.664026 81.962419 
L 114.173592 83.89627 
" style="fill:none;stroke:#440154;stroke-width:1.5;"/>
    <path clip-path="url(#p5aa723d003)" d="M 125.963704 90.680373 
L 126.641331 90.832819 
L 127.942512 92.471065 
L 131.937735 96.616219 
L 135.932959 98.861918 
L 137.61632 99.703219 
L 139.928182 103.635342 
L 143.923406 107.950126 
L 144.633618 108.573619 
L 147.91863 114.598421 
L 150.241645 117.444019 
L 151.913853 120.908436 
L 154.14244 126.314419 
L 155.909077 130.893802 
L 156.882369 135.184819 
L 159.9043 143.003675 
L 160.17226 144.055219 
L 163.430567 152.925619 
L 163.899524 154.06721 
L 166.413492 161.796019 
L 167.894747 165.303851 
L 169.621823 170.666419 
L 171.889971 176.275002 
L 172.705335 179.536819 
L 175.885195 187.90778 
" style="fill:none;stroke:#440154;stroke-width:1.5;"/>
   </g>
   <g id="LineCollection_24">
    <path clip-path="url(#p5aa723d003)" d="M 175.885195 209.84751 
L 172.30893 215.018419 
L 171.889971 215.26768 
L 167.894747 217.9376 
L 163.899524 223.638574 
L 163.724184 223.888819 
L 159.9043 225.720279 
L 155.909077 228.647376 
L 152.261432 232.759219 
L 151.913853 232.857123 
L 147.91863 233.907664 
L 143.923406 234.970743 
L 139.928182 235.918027 
L 135.932959 237.053644 
L 131.937735 238.362577 
L 127.942512 239.911086 
L 126.568805 240.564274 
" style="fill:none;stroke:#440154;stroke-width:1.5;"/>
    <path clip-path="url(#p5aa723d003)" d="M 113.307155 241.78233 
L 111.961617 241.849421 
L 107.966394 242.197715 
L 103.97117 242.713278 
L 99.975947 243.443603 
L 95.980723 244.466367 
L 91.9855 245.887666 
L 87.990276 247.833767 
L 83.995052 250.475166 
L 83.958186 250.500019 
L 79.999829 251.137953 
L 76.004605 252.0208 
L 72.009382 253.247854 
L 68.014158 254.94969 
L 64.018935 257.322644 
L 61.27477 259.370419 
L 60.023711 259.636545 
L 56.028487 260.670225 
" style="fill:none;stroke:#440154;stroke-width:1.5;"/>
    <path clip-path="url(#p5aa723d003)" d="M 56.028487 54.05141 
L 60.023711 54.641159 
L 64.018935 55.089613 
L 66.90666 55.351219 
L 68.014158 55.973995 
L 72.009382 58.098116 
L 76.004605 59.785177 
L 79.999829 61.110332 
L 83.995052 62.145711 
L 87.990276 62.958682 
L 91.9855 63.59262 
L 95.980723 64.085266 
L 96.752894 64.221619 
L 99.975947 67.003935 
L 103.97117 69.899996 
L 107.966394 71.799252 
L 111.961617 73.029464 
L 112.160084 73.092019 
L 115.956841 77.554525 
L 119.952065 80.009182 
L 121.434825 80.514798 
" style="fill:none;stroke:#440154;stroke-width:1.5;"/>
    <path clip-path="url(#p5aa723d003)" d="M 134.361601 88.852891 
L 135.932959 89.718236 
L 138.632152 90.832819 
L 139.928182 92.707564 
L 143.923406 97.911579 
L 146.203876 99.703219 
L 147.91863 102.721777 
L 151.913853 108.037552 
L 152.320207 108.573619 
L 155.909077 115.931465 
L 156.618255 117.444019 
L 159.9043 125.52895 
L 160.108897 126.314419 
L 162.587386 135.184819 
L 163.899524 138.516339 
L 165.336389 144.055219 
L 167.894747 150.276921 
L 168.659532 152.925619 
L 171.889971 160.649161 
L 172.247689 161.796019 
L 175.885195 170.61773 
" style="fill:none;stroke:#440154;stroke-width:1.5;"/>
   </g>
   <g id="LineCollection_25">
    <path clip-path="url(#p5aa723d003)" d="M 175.885195 223.81087 
L 175.832528 223.888819 
L 171.889971 226.072637 
L 167.894747 230.76511 
L 166.497341 232.759219 
L 163.899524 234.000074 
L 159.9043 236.599327 
L 155.909077 240.794559 
L 155.132834 241.629619 
L 151.913853 242.467778 
L 147.91863 243.900808 
L 143.923406 245.423324 
L 139.928182 246.897867 
L 135.932959 248.841384 
L 133.079754 250.500019 
L 131.937735 250.647886 
L 127.942512 251.234313 
L 127.200022 251.298568 
" style="fill:none;stroke:#440154;stroke-width:1.5;"/>
    <path clip-path="url(#p5aa723d003)" d="M 112.705237 252.182735 
L 111.961617 252.262024 
L 107.966394 252.939628 
L 103.97117 253.90548 
L 99.975947 255.256682 
L 95.980723 257.121917 
L 92.361121 259.370419 
L 91.9855 259.423648 
L 87.990276 260.043551 
L 83.995052 260.902668 
L 79.999829 262.098984 
L 76.004605 263.785124 
L 72.009382 266.217657 
L 69.400715 268.240819 
L 68.014158 268.515595 
L 64.018935 269.462732 
L 60.023711 270.891894 
L 56.028487 273.059734 
" style="fill:none;stroke:#440154;stroke-width:1.5;"/>
    <path clip-path="url(#p5aa723d003)" d="M 56.028487 44.715927 
L 60.023711 45.406111 
L 64.018935 45.922603 
L 68.014158 46.301294 
L 70.296742 46.480819 
L 72.009382 47.493667 
L 76.004605 49.618614 
L 79.999829 51.24531 
L 83.995052 52.486847 
L 87.990276 53.431686 
L 91.9855 54.14688 
L 95.980723 54.795474 
L 99.119799 55.351219 
L 99.975947 56.148625 
L 103.97117 59.627785 
L 107.966394 61.95091 
L 111.961617 63.551465 
L 114.112603 64.221619 
L 115.956841 66.28188 
L 119.952065 69.699082 
L 121.147801 70.304252 
" style="fill:none;stroke:#440154;stroke-width:1.5;"/>
    <path clip-path="url(#p5aa723d003)" d="M 135.241928 79.504886 
L 135.932959 80.004885 
L 139.928182 81.745613 
L 140.376288 81.962419 
L 143.923406 87.205178 
L 147.91863 90.519821 
L 148.274874 90.832819 
L 151.913853 97.338821 
L 153.923639 99.703219 
L 155.909077 103.597014 
L 158.821107 108.573619 
L 159.9043 110.956032 
L 162.478729 117.444019 
L 163.899524 121.080726 
L 165.160121 126.314419 
L 167.894747 133.491289 
L 168.284487 135.184819 
L 171.444424 144.055219 
L 171.889971 145.149447 
L 174.052515 152.925619 
L 175.885195 157.325918 
" style="fill:none;stroke:#440154;stroke-width:1.5;"/>
   </g>
   <g id="LineCollection_26">
    <path clip-path="url(#p5aa723d003)" d="M 175.885195 234.014613 
L 171.889971 237.628629 
L 169.080011 241.629619 
L 167.894747 242.190111 
L 163.899524 244.433844 
L 159.9043 248.106262 
L 157.754558 250.500019 
L 155.909077 251.064064 
L 151.913853 252.531116 
L 147.91863 254.734211 
L 143.923406 257.512536 
L 141.001542 259.370419 
L 139.928182 259.531275 
L 135.932959 260.132683 
L 135.776001 260.164301 
" style="fill:none;stroke:#450457;stroke-width:1.5;"/>
    <path clip-path="url(#p5aa723d003)" d="M 120.092795 262.496534 
L 119.952065 262.503041 
L 115.956841 262.889297 
L 111.961617 263.669757 
L 107.966394 264.870041 
L 103.97117 266.582045 
L 101.020907 268.240819 
L 99.975947 268.373737 
L 95.980723 268.965868 
L 91.9855 269.787735 
L 87.990276 270.924208 
L 83.995052 272.499935 
L 79.999829 274.724472 
L 76.758322 277.111219 
" style="fill:none;stroke:#450457;stroke-width:1.5;"/>
    <path clip-path="url(#p5aa723d003)" d="M 56.028487 35.953834 
L 60.023711 36.576446 
L 64.018935 37.048197 
L 68.014158 37.407813 
L 70.761843 37.610419 
L 72.009382 38.364503 
L 76.004605 40.548046 
L 79.999829 42.155544 
L 83.995052 43.34844 
L 87.990276 44.232778 
L 91.9855 44.878867 
L 95.980723 45.669636 
L 99.975947 46.31268 
L 101.134129 46.480819 
L 103.97117 48.98048 
L 107.966394 51.676246 
L 111.961617 53.539531 
L 115.956841 54.852952 
L 117.781859 55.351219 
L 119.952065 57.690827 
L 120.301834 57.999608 
" style="fill:none;stroke:#450457;stroke-width:1.5;"/>
    <path clip-path="url(#p5aa723d003)" d="M 135.488134 69.04376 
L 135.932959 69.53106 
L 139.928182 72.08229 
L 142.11478 73.092019 
L 143.923406 75.669686 
L 147.91863 80.37716 
L 149.984725 81.962419 
L 151.913853 85.325062 
L 155.909077 90.46282 
L 156.163846 90.832819 
L 159.9043 98.515452 
L 160.576105 99.703219 
L 163.899524 106.830526 
L 164.744847 108.573619 
L 167.894747 116.051851 
L 168.3158 117.444019 
L 171.222097 126.314419 
L 171.889971 128.072308 
L 173.509875 135.184819 
L 175.885195 141.298158 
" style="fill:none;stroke:#450457;stroke-width:1.5;"/>
   </g>
   <g id="LineCollection_27">
    <path clip-path="url(#p5aa723d003)" d="M 175.885195 244.700848 
L 171.889971 250.310846 
L 171.754731 250.500019 
L 167.894747 252.33577 
L 163.899524 255.719363 
L 160.844382 259.370419 
L 159.9043 259.722252 
L 155.909077 261.329293 
L 155.324577 261.69451 
" style="fill:none;stroke:#482475;stroke-width:1.5;"/>
    <path clip-path="url(#p5aa723d003)" d="M 138.737983 270.307297 
L 135.932959 271.067236 
L 131.937735 272.41779 
L 127.942512 273.764361 
L 123.947288 274.611632 
L 119.952065 275.178208 
L 115.956841 275.994838 
L 112.684955 277.111219 
" style="fill:none;stroke:#482475;stroke-width:1.5;"/>
    <path clip-path="url(#p5aa723d003)" d="M 56.028487 27.380166 
L 60.023711 27.901695 
L 64.018935 28.301937 
L 68.014158 28.614304 
L 69.833228 28.740019 
L 72.009382 29.986215 
L 76.004605 31.92977 
L 79.999829 33.387195 
L 83.995052 34.485494 
L 87.990276 35.293775 
L 91.9855 35.936063 
L 95.980723 36.748341 
L 99.975947 37.339907 
L 102.194492 37.610419 
L 103.97117 39.069596 
L 107.966394 41.895641 
L 111.961617 43.830957 
L 115.956841 45.263905 
L 119.854987 46.275742 
" style="fill:none;stroke:#482475;stroke-width:1.5;"/>
    <path clip-path="url(#p5aa723d003)" d="M 136.12685 58.702275 
L 139.928182 62.289697 
L 143.923406 64.069014 
L 144.253731 64.221619 
L 147.91863 69.936766 
L 151.913853 72.871384 
L 152.206345 73.092019 
L 155.909077 79.785641 
L 157.571929 81.962419 
L 159.9043 86.664031 
L 162.450081 90.832819 
L 163.899524 93.891921 
L 166.949 99.703219 
L 167.894747 101.768718 
L 170.869386 108.573619 
L 171.889971 111.076125 
L 173.641715 117.444019 
L 175.885195 123.424464 
" style="fill:none;stroke:#482475;stroke-width:1.5;"/>
   </g>
   <g id="LineCollection_28">
    <path clip-path="url(#p5aa723d003)" d="M 175.885195 256.617301 
L 173.944613 259.370419 
L 172.916856 259.922196 
" style="fill:none;stroke:#fde725;stroke-width:1.5;"/>
    <path clip-path="url(#p5aa723d003)" d="M 155.448659 273.387613 
L 151.919194 277.111219 
" style="fill:none;stroke:#fde725;stroke-width:1.5;"/>
    <path clip-path="url(#p5aa723d003)" d="M 56.028488 18.725292 
L 60.023711 19.17975 
L 64.018935 19.536182 
L 68.014158 19.816961 
L 68.805551 19.869619 
L 72.009382 21.586192 
L 76.004605 23.319979 
L 79.999829 24.651274 
L 83.995052 25.66493 
L 87.990276 26.409135 
L 91.9855 27.124768 
L 95.980723 27.900191 
L 99.975947 28.458169 
L 102.488011 28.740019 
L 103.97117 29.886466 
L 107.966394 32.628497 
L 111.961617 34.597083 
L 115.110771 35.943267 
" style="fill:none;stroke:#fde725;stroke-width:1.5;"/>
    <path clip-path="url(#p5aa723d003)" d="M 132.813986 46.010006 
L 134.464241 46.480819 
L 135.932959 48.392976 
L 139.928182 52.797858 
L 143.923406 54.923268 
L 144.909024 55.351219 
L 147.91863 59.913633 
L 151.913853 63.417106 
L 153.203024 64.221619 
L 155.909077 68.886855 
L 159.9043 73.027421 
L 159.956031 73.092019 
L 163.899524 81.097746 
L 164.430882 81.962419 
L 167.894747 89.285287 
L 168.692241 90.832819 
L 171.889971 97.800072 
L 172.759085 99.703219 
L 175.885195 106.856144 
" style="fill:none;stroke:#fde725;stroke-width:1.5;"/>
   </g>
   <g id="line2d_19">
    <path clip-path="url(#p5aa723d003)" d="M 385.48451 120.215445 
L 396.142773 127.395079 
L 388.91754 130.082634 
L 381.394902 132.57459 
L 374.015373 134.736192 
L 366.774518 136.651847 
L 359.643456 138.49963 
L 352.638586 140.375309 
L 345.741177 142.397866 
L 338.954186 144.463416 
L 332.277507 146.618555 
L 325.712891 148.688197 
L 319.258373 150.742809 
L 312.906439 152.809621 
L 306.676689 154.744847 
L 300.516177 156.791465 
L 294.477392 158.652845 
L 288.501991 160.709569 
L 282.642298 162.415066 
L 276.871898 164.181232 
L 271.205882 165.692439 
L 265.634357 166.974604 
L 260.183019 167.958638 
L 254.827346 168.772932 
L 249.567353 169.373785 
L 244.377772 169.871042 
L 239.293999 170.16417 
L 234.309304 170.410752 
L 229.410162 170.463883 
L 224.593594 170.314407 
L 219.870344 170.084044 
L 215.22197 169.674242 
L 210.671068 169.314377 
L 206.189129 168.806368 
L 201.790358 168.08078 
L 197.453639 167.383289 
L 193.206718 166.427714 
L 189.027983 165.3198 
L 184.946006 164.309307 
L 180.921395 163.118092 
L 176.978305 161.766882 
L 173.127696 160.548454 
L 169.303044 159.219829 
L 165.602533 157.763719 
L 161.946792 156.406049 
L 158.34751 154.820704 
L 154.831361 153.343398 
L 151.368924 151.705744 
L 147.972874 149.82926 
L 144.668732 148.256295 
L 144.335762 148.165976 
L 144.001596 148.029288 
L 143.672756 147.860662 
L 143.345595 147.669307 
L 143.019341 147.508219 
L 142.694275 147.329282 
L 142.371597 147.166187 
L 142.049766 146.995666 
L 141.729861 146.841248 
L 141.411358 146.674998 
L 141.089995 146.489031 
L 140.774143 146.317751 
L 140.458936 146.1637 
L 140.138698 146.012218 
L 139.824246 145.844526 
L 139.510445 145.716137 
L 139.192894 145.557647 
L 138.878369 145.425275 
L 138.565266 145.240753 
L 138.253379 145.097186 
L 137.945708 144.963033 
L 137.633233 144.817258 
L 137.326614 144.68251 
L 137.014517 144.529112 
L 136.704977 144.372916 
L 136.673733 144.361569 
L 136.642812 144.350083 
L 136.612146 144.335079 
L 136.580975 144.324927 
L 136.550545 144.310742 
L 136.519645 144.297026 
L 136.488641 144.284967 
L 136.457641 144.269286 
L 136.426777 144.256862 
L 136.395774 144.248039 
L 136.364905 144.232624 
L 136.334188 144.219575 
L 136.302968 144.205503 
L 136.271699 144.196755 
L 136.240311 144.183203 
L 136.210626 144.171079 
L 136.180097 144.156917 
L 136.148928 144.142116 
L 136.118142 144.132176 
L 136.087347 144.118722 
L 136.056937 144.106465 
L 136.026103 144.093236 
L 135.995187 144.080646 
L 135.96393 144.06704 
" style="fill:none;stroke:#1f77b4;stroke-linecap:square;stroke-width:1.5;"/>
    <defs>
     <path d="M 0 1.5 
C 0.397805 1.5 0.77937 1.341951 1.06066 1.06066 
C 1.341951 0.77937 1.5 0.397805 1.5 0 
C 1.5 -0.397805 1.341951 -0.77937 1.06066 -1.06066 
C 0.77937 -1.341951 0.397805 -1.5 0 -1.5 
C -0.397805 -1.5 -0.77937 -1.341951 -1.06066 -1.06066 
C -1.341951 -0.77937 -1.5 -0.397805 -1.5 0 
C -1.5 0.397805 -1.341951 0.77937 -1.06066 1.06066 
C -0.77937 1.341951 -0.397805 1.5 0 1.5 
z
" id="mae405d56c6" style="stroke:#1f77b4;"/>
    </defs>
    <g clip-path="url(#p5aa723d003)">
     <use style="fill:#1f77b4;stroke:#1f77b4;" x="385.48451" xlink:href="#mae405d56c6" y="120.215445"/>
     <use style="fill:#1f77b4;stroke:#1f77b4;" x="396.142773" xlink:href="#mae405d56c6" y="127.395079"/>
     <use style="fill:#1f77b4;stroke:#1f77b4;" x="388.91754" xlink:href="#mae405d56c6" y="130.082634"/>
     <use style="fill:#1f77b4;stroke:#1f77b4;" x="381.394902" xlink:href="#mae405d56c6" y="132.57459"/>
     <use style="fill:#1f77b4;stroke:#1f77b4;" x="374.015373" xlink:href="#mae405d56c6" y="134.736192"/>
     <use style="fill:#1f77b4;stroke:#1f77b4;" x="366.774518" xlink:href="#mae405d56c6" y="136.651847"/>
     <use style="fill:#1f77b4;stroke:#1f77b4;" x="359.643456" xlink:href="#mae405d56c6" y="138.49963"/>
     <use style="fill:#1f77b4;stroke:#1f77b4;" x="352.638586" xlink:href="#mae405d56c6" y="140.375309"/>
     <use style="fill:#1f77b4;stroke:#1f77b4;" x="345.741177" xlink:href="#mae405d56c6" y="142.397866"/>
     <use style="fill:#1f77b4;stroke:#1f77b4;" x="338.954186" xlink:href="#mae405d56c6" y="144.463416"/>
     <use style="fill:#1f77b4;stroke:#1f77b4;" x="332.277507" xlink:href="#mae405d56c6" y="146.618555"/>
     <use style="fill:#1f77b4;stroke:#1f77b4;" x="325.712891" xlink:href="#mae405d56c6" y="148.688197"/>
     <use style="fill:#1f77b4;stroke:#1f77b4;" x="319.258373" xlink:href="#mae405d56c6" y="150.742809"/>
     <use style="fill:#1f77b4;stroke:#1f77b4;" x="312.906439" xlink:href="#mae405d56c6" y="152.809621"/>
     <use style="fill:#1f77b4;stroke:#1f77b4;" x="306.676689" xlink:href="#mae405d56c6" y="154.744847"/>
     <use style="fill:#1f77b4;stroke:#1f77b4;" x="300.516177" xlink:href="#mae405d56c6" y="156.791465"/>
     <use style="fill:#1f77b4;stroke:#1f77b4;" x="294.477392" xlink:href="#mae405d56c6" y="158.652845"/>
     <use style="fill:#1f77b4;stroke:#1f77b4;" x="288.501991" xlink:href="#mae405d56c6" y="160.709569"/>
     <use style="fill:#1f77b4;stroke:#1f77b4;" x="282.642298" xlink:href="#mae405d56c6" y="162.415066"/>
     <use style="fill:#1f77b4;stroke:#1f77b4;" x="276.871898" xlink:href="#mae405d56c6" y="164.181232"/>
     <use style="fill:#1f77b4;stroke:#1f77b4;" x="271.205882" xlink:href="#mae405d56c6" y="165.692439"/>
     <use style="fill:#1f77b4;stroke:#1f77b4;" x="265.634357" xlink:href="#mae405d56c6" y="166.974604"/>
     <use style="fill:#1f77b4;stroke:#1f77b4;" x="260.183019" xlink:href="#mae405d56c6" y="167.958638"/>
     <use style="fill:#1f77b4;stroke:#1f77b4;" x="254.827346" xlink:href="#mae405d56c6" y="168.772932"/>
     <use style="fill:#1f77b4;stroke:#1f77b4;" x="249.567353" xlink:href="#mae405d56c6" y="169.373785"/>
     <use style="fill:#1f77b4;stroke:#1f77b4;" x="244.377772" xlink:href="#mae405d56c6" y="169.871042"/>
     <use style="fill:#1f77b4;stroke:#1f77b4;" x="239.293999" xlink:href="#mae405d56c6" y="170.16417"/>
     <use style="fill:#1f77b4;stroke:#1f77b4;" x="234.309304" xlink:href="#mae405d56c6" y="170.410752"/>
     <use style="fill:#1f77b4;stroke:#1f77b4;" x="229.410162" xlink:href="#mae405d56c6" y="170.463883"/>
     <use style="fill:#1f77b4;stroke:#1f77b4;" x="224.593594" xlink:href="#mae405d56c6" y="170.314407"/>
     <use style="fill:#1f77b4;stroke:#1f77b4;" x="219.870344" xlink:href="#mae405d56c6" y="170.084044"/>
     <use style="fill:#1f77b4;stroke:#1f77b4;" x="215.22197" xlink:href="#mae405d56c6" y="169.674242"/>
     <use style="fill:#1f77b4;stroke:#1f77b4;" x="210.671068" xlink:href="#mae405d56c6" y="169.314377"/>
     <use style="fill:#1f77b4;stroke:#1f77b4;" x="206.189129" xlink:href="#mae405d56c6" y="168.806368"/>
     <use style="fill:#1f77b4;stroke:#1f77b4;" x="201.790358" xlink:href="#mae405d56c6" y="168.08078"/>
     <use style="fill:#1f77b4;stroke:#1f77b4;" x="197.453639" xlink:href="#mae405d56c6" y="167.383289"/>
     <use style="fill:#1f77b4;stroke:#1f77b4;" x="193.206718" xlink:href="#mae405d56c6" y="166.427714"/>
     <use style="fill:#1f77b4;stroke:#1f77b4;" x="189.027983" xlink:href="#mae405d56c6" y="165.3198"/>
     <use style="fill:#1f77b4;stroke:#1f77b4;" x="184.946006" xlink:href="#mae405d56c6" y="164.309307"/>
     <use style="fill:#1f77b4;stroke:#1f77b4;" x="180.921395" xlink:href="#mae405d56c6" y="163.118092"/>
     <use style="fill:#1f77b4;stroke:#1f77b4;" x="176.978305" xlink:href="#mae405d56c6" y="161.766882"/>
     <use style="fill:#1f77b4;stroke:#1f77b4;" x="173.127696" xlink:href="#mae405d56c6" y="160.548454"/>
     <use style="fill:#1f77b4;stroke:#1f77b4;" x="169.303044" xlink:href="#mae405d56c6" y="159.219829"/>
     <use style="fill:#1f77b4;stroke:#1f77b4;" x="165.602533" xlink:href="#mae405d56c6" y="157.763719"/>
     <use style="fill:#1f77b4;stroke:#1f77b4;" x="161.946792" xlink:href="#mae405d56c6" y="156.406049"/>
     <use style="fill:#1f77b4;stroke:#1f77b4;" x="158.34751" xlink:href="#mae405d56c6" y="154.820704"/>
     <use style="fill:#1f77b4;stroke:#1f77b4;" x="154.831361" xlink:href="#mae405d56c6" y="153.343398"/>
     <use style="fill:#1f77b4;stroke:#1f77b4;" x="151.368924" xlink:href="#mae405d56c6" y="151.705744"/>
     <use style="fill:#1f77b4;stroke:#1f77b4;" x="147.972874" xlink:href="#mae405d56c6" y="149.82926"/>
     <use style="fill:#1f77b4;stroke:#1f77b4;" x="144.668732" xlink:href="#mae405d56c6" y="148.256295"/>
     <use style="fill:#1f77b4;stroke:#1f77b4;" x="144.335762" xlink:href="#mae405d56c6" y="148.165976"/>
     <use style="fill:#1f77b4;stroke:#1f77b4;" x="144.001596" xlink:href="#mae405d56c6" y="148.029288"/>
     <use style="fill:#1f77b4;stroke:#1f77b4;" x="143.672756" xlink:href="#mae405d56c6" y="147.860662"/>
     <use style="fill:#1f77b4;stroke:#1f77b4;" x="143.345595" xlink:href="#mae405d56c6" y="147.669307"/>
     <use style="fill:#1f77b4;stroke:#1f77b4;" x="143.019341" xlink:href="#mae405d56c6" y="147.508219"/>
     <use style="fill:#1f77b4;stroke:#1f77b4;" x="142.694275" xlink:href="#mae405d56c6" y="147.329282"/>
     <use style="fill:#1f77b4;stroke:#1f77b4;" x="142.371597" xlink:href="#mae405d56c6" y="147.166187"/>
     <use style="fill:#1f77b4;stroke:#1f77b4;" x="142.049766" xlink:href="#mae405d56c6" y="146.995666"/>
     <use style="fill:#1f77b4;stroke:#1f77b4;" x="141.729861" xlink:href="#mae405d56c6" y="146.841248"/>
     <use style="fill:#1f77b4;stroke:#1f77b4;" x="141.411358" xlink:href="#mae405d56c6" y="146.674998"/>
     <use style="fill:#1f77b4;stroke:#1f77b4;" x="141.089995" xlink:href="#mae405d56c6" y="146.489031"/>
     <use style="fill:#1f77b4;stroke:#1f77b4;" x="140.774143" xlink:href="#mae405d56c6" y="146.317751"/>
     <use style="fill:#1f77b4;stroke:#1f77b4;" x="140.458936" xlink:href="#mae405d56c6" y="146.1637"/>
     <use style="fill:#1f77b4;stroke:#1f77b4;" x="140.138698" xlink:href="#mae405d56c6" y="146.012218"/>
     <use style="fill:#1f77b4;stroke:#1f77b4;" x="139.824246" xlink:href="#mae405d56c6" y="145.844526"/>
     <use style="fill:#1f77b4;stroke:#1f77b4;" x="139.510445" xlink:href="#mae405d56c6" y="145.716137"/>
     <use style="fill:#1f77b4;stroke:#1f77b4;" x="139.192894" xlink:href="#mae405d56c6" y="145.557647"/>
     <use style="fill:#1f77b4;stroke:#1f77b4;" x="138.878369" xlink:href="#mae405d56c6" y="145.425275"/>
     <use style="fill:#1f77b4;stroke:#1f77b4;" x="138.565266" xlink:href="#mae405d56c6" y="145.240753"/>
     <use style="fill:#1f77b4;stroke:#1f77b4;" x="138.253379" xlink:href="#mae405d56c6" y="145.097186"/>
     <use style="fill:#1f77b4;stroke:#1f77b4;" x="137.945708" xlink:href="#mae405d56c6" y="144.963033"/>
     <use style="fill:#1f77b4;stroke:#1f77b4;" x="137.633233" xlink:href="#mae405d56c6" y="144.817258"/>
     <use style="fill:#1f77b4;stroke:#1f77b4;" x="137.326614" xlink:href="#mae405d56c6" y="144.68251"/>
     <use style="fill:#1f77b4;stroke:#1f77b4;" x="137.014517" xlink:href="#mae405d56c6" y="144.529112"/>
     <use style="fill:#1f77b4;stroke:#1f77b4;" x="136.704977" xlink:href="#mae405d56c6" y="144.372916"/>
     <use style="fill:#1f77b4;stroke:#1f77b4;" x="136.673733" xlink:href="#mae405d56c6" y="144.361569"/>
     <use style="fill:#1f77b4;stroke:#1f77b4;" x="136.642812" xlink:href="#mae405d56c6" y="144.350083"/>
     <use style="fill:#1f77b4;stroke:#1f77b4;" x="136.612146" xlink:href="#mae405d56c6" y="144.335079"/>
     <use style="fill:#1f77b4;stroke:#1f77b4;" x="136.580975" xlink:href="#mae405d56c6" y="144.324927"/>
     <use style="fill:#1f77b4;stroke:#1f77b4;" x="136.550545" xlink:href="#mae405d56c6" y="144.310742"/>
     <use style="fill:#1f77b4;stroke:#1f77b4;" x="136.519645" xlink:href="#mae405d56c6" y="144.297026"/>
     <use style="fill:#1f77b4;stroke:#1f77b4;" x="136.488641" xlink:href="#mae405d56c6" y="144.284967"/>
     <use style="fill:#1f77b4;stroke:#1f77b4;" x="136.457641" xlink:href="#mae405d56c6" y="144.269286"/>
     <use style="fill:#1f77b4;stroke:#1f77b4;" x="136.426777" xlink:href="#mae405d56c6" y="144.256862"/>
     <use style="fill:#1f77b4;stroke:#1f77b4;" x="136.395774" xlink:href="#mae405d56c6" y="144.248039"/>
     <use style="fill:#1f77b4;stroke:#1f77b4;" x="136.364905" xlink:href="#mae405d56c6" y="144.232624"/>
     <use style="fill:#1f77b4;stroke:#1f77b4;" x="136.334188" xlink:href="#mae405d56c6" y="144.219575"/>
     <use style="fill:#1f77b4;stroke:#1f77b4;" x="136.302968" xlink:href="#mae405d56c6" y="144.205503"/>
     <use style="fill:#1f77b4;stroke:#1f77b4;" x="136.271699" xlink:href="#mae405d56c6" y="144.196755"/>
     <use style="fill:#1f77b4;stroke:#1f77b4;" x="136.240311" xlink:href="#mae405d56c6" y="144.183203"/>
     <use style="fill:#1f77b4;stroke:#1f77b4;" x="136.210626" xlink:href="#mae405d56c6" y="144.171079"/>
     <use style="fill:#1f77b4;stroke:#1f77b4;" x="136.180097" xlink:href="#mae405d56c6" y="144.156917"/>
     <use style="fill:#1f77b4;stroke:#1f77b4;" x="136.148928" xlink:href="#mae405d56c6" y="144.142116"/>
     <use style="fill:#1f77b4;stroke:#1f77b4;" x="136.118142" xlink:href="#mae405d56c6" y="144.132176"/>
     <use style="fill:#1f77b4;stroke:#1f77b4;" x="136.087347" xlink:href="#mae405d56c6" y="144.118722"/>
     <use style="fill:#1f77b4;stroke:#1f77b4;" x="136.056937" xlink:href="#mae405d56c6" y="144.106465"/>
     <use style="fill:#1f77b4;stroke:#1f77b4;" x="136.026103" xlink:href="#mae405d56c6" y="144.093236"/>
     <use style="fill:#1f77b4;stroke:#1f77b4;" x="135.995187" xlink:href="#mae405d56c6" y="144.080646"/>
     <use style="fill:#1f77b4;stroke:#1f77b4;" x="135.96393" xlink:href="#mae405d56c6" y="144.06704"/>
    </g>
   </g>
   <g id="patch_3">
    <path d="M 56.028488 277.111219 
L 56.028488 10.999219 
" style="fill:none;stroke:#000000;stroke-linecap:square;stroke-linejoin:miter;stroke-width:0.8;"/>
   </g>
   <g id="patch_4">
    <path d="M 413.148488 277.111219 
L 413.148488 10.999219 
" style="fill:none;stroke:#000000;stroke-linecap:square;stroke-linejoin:miter;stroke-width:0.8;"/>
   </g>
   <g id="patch_5">
    <path d="M 56.028487 277.111219 
L 413.148488 277.111219 
" style="fill:none;stroke:#000000;stroke-linecap:square;stroke-linejoin:miter;stroke-width:0.8;"/>
   </g>
   <g id="patch_6">
    <path d="M 56.028487 10.999219 
L 413.148488 10.999219 
" style="fill:none;stroke:#000000;stroke-linecap:square;stroke-linejoin:miter;stroke-width:0.8;"/>
   </g>
   <g id="text_21">
    <g clip-path="url(#p5aa723d003)">
     <!-- 2.000 -->
     <g style="fill:#404688;" transform="translate(128.505165 131.696831)rotate(-325.586551)scale(0.06 -0.06)">
      <use xlink:href="#DejaVuSans-50"/>
      <use x="63.623047" xlink:href="#DejaVuSans-46"/>
      <use x="95.410156" xlink:href="#DejaVuSans-48"/>
      <use x="159.033203" xlink:href="#DejaVuSans-48"/>
      <use x="222.65625" xlink:href="#DejaVuSans-48"/>
     </g>
    </g>
   </g>
   <g id="text_22">
    <g clip-path="url(#p5aa723d003)">
     <!-- 2.500 -->
     <g style="fill:#39558c;" transform="translate(92.253109 130.91883)rotate(-17.087585)scale(0.06 -0.06)">
      <use xlink:href="#DejaVuSans-50"/>
      <use x="63.623047" xlink:href="#DejaVuSans-46"/>
      <use x="95.410156" xlink:href="#DejaVuSans-53"/>
      <use x="159.033203" xlink:href="#DejaVuSans-48"/>
      <use x="222.65625" xlink:href="#DejaVuSans-48"/>
     </g>
    </g>
   </g>
   <g id="text_23">
    <g clip-path="url(#p5aa723d003)">
     <!-- 3.000 -->
     <g style="fill:#33638d;" transform="translate(103.369167 168.181526)rotate(-359.860248)scale(0.06 -0.06)">
      <use xlink:href="#DejaVuSans-51"/>
      <use x="63.623047" xlink:href="#DejaVuSans-46"/>
      <use x="95.410156" xlink:href="#DejaVuSans-48"/>
      <use x="159.033203" xlink:href="#DejaVuSans-48"/>
      <use x="222.65625" xlink:href="#DejaVuSans-48"/>
     </g>
    </g>
   </g>
   <g id="text_24">
    <g clip-path="url(#p5aa723d003)">
     <!-- 3.500 -->
     <g style="fill:#2d718e;" transform="translate(111.462546 170.865289)rotate(-3.013624)scale(0.06 -0.06)">
      <use xlink:href="#DejaVuSans-51"/>
      <use x="63.623047" xlink:href="#DejaVuSans-46"/>
      <use x="95.410156" xlink:href="#DejaVuSans-53"/>
      <use x="159.033203" xlink:href="#DejaVuSans-48"/>
      <use x="222.65625" xlink:href="#DejaVuSans-48"/>
     </g>
    </g>
   </g>
   <g id="text_25">
    <g clip-path="url(#p5aa723d003)">
     <!-- 4.000 -->
     <g style="fill:#287d8e;" transform="translate(95.313308 108.919232)rotate(-357.255477)scale(0.06 -0.06)">
      <use xlink:href="#DejaVuSans-52"/>
      <use x="63.623047" xlink:href="#DejaVuSans-46"/>
      <use x="95.410156" xlink:href="#DejaVuSans-48"/>
      <use x="159.033203" xlink:href="#DejaVuSans-48"/>
      <use x="222.65625" xlink:href="#DejaVuSans-48"/>
     </g>
    </g>
   </g>
   <g id="text_26">
    <g clip-path="url(#p5aa723d003)">
     <!-- 4.500 -->
     <g style="fill:#238a8d;" transform="translate(119.390852 173.223743)rotate(-1.2069)scale(0.06 -0.06)">
      <use xlink:href="#DejaVuSans-52"/>
      <use x="63.623047" xlink:href="#DejaVuSans-46"/>
      <use x="95.410156" xlink:href="#DejaVuSans-53"/>
      <use x="159.033203" xlink:href="#DejaVuSans-48"/>
      <use x="222.65625" xlink:href="#DejaVuSans-48"/>
     </g>
    </g>
   </g>
   <g id="text_27">
    <g clip-path="url(#p5aa723d003)">
     <!-- 5.000 -->
     <g style="fill:#1f968b;" transform="translate(87.271323 104.775296)rotate(-354.372256)scale(0.06 -0.06)">
      <use xlink:href="#DejaVuSans-53"/>
      <use x="63.623047" xlink:href="#DejaVuSans-46"/>
      <use x="95.410156" xlink:href="#DejaVuSans-48"/>
      <use x="159.033203" xlink:href="#DejaVuSans-48"/>
      <use x="222.65625" xlink:href="#DejaVuSans-48"/>
     </g>
    </g>
   </g>
   <g id="text_28">
    <g clip-path="url(#p5aa723d003)">
     <!-- 5.500 -->
     <g style="fill:#20a386;" transform="translate(127.239272 175.292942)rotate(-355.391994)scale(0.06 -0.06)">
      <use xlink:href="#DejaVuSans-53"/>
      <use x="63.623047" xlink:href="#DejaVuSans-46"/>
      <use x="95.410156" xlink:href="#DejaVuSans-53"/>
      <use x="159.033203" xlink:href="#DejaVuSans-48"/>
      <use x="222.65625" xlink:href="#DejaVuSans-48"/>
     </g>
    </g>
   </g>
   <g id="text_29">
    <g clip-path="url(#p5aa723d003)">
     <!-- 6.000 -->
     <g style="fill:#29af7f;" transform="translate(135.21637 180.214699)rotate(-354.53787)scale(0.06 -0.06)">
      <use xlink:href="#DejaVuSans-54"/>
      <use x="63.623047" xlink:href="#DejaVuSans-46"/>
      <use x="95.410156" xlink:href="#DejaVuSans-48"/>
      <use x="159.033203" xlink:href="#DejaVuSans-48"/>
      <use x="222.65625" xlink:href="#DejaVuSans-48"/>
     </g>
    </g>
   </g>
   <g id="text_30">
    <g clip-path="url(#p5aa723d003)">
     <!-- 6.500 -->
     <g style="fill:#3dbc74;" transform="translate(47.646102 104.773916)rotate(-5.680534)scale(0.06 -0.06)">
      <use xlink:href="#DejaVuSans-54"/>
      <use x="63.623047" xlink:href="#DejaVuSans-46"/>
      <use x="95.410156" xlink:href="#DejaVuSans-53"/>
      <use x="159.033203" xlink:href="#DejaVuSans-48"/>
      <use x="222.65625" xlink:href="#DejaVuSans-48"/>
     </g>
    </g>
   </g>
   <g id="text_31">
    <g clip-path="url(#p5aa723d003)">
     <!-- 7.000 -->
     <g style="fill:#56c667;" transform="translate(47.477265 181.534521)rotate(-1.220537)scale(0.06 -0.06)">
      <use xlink:href="#DejaVuSans-55"/>
      <use x="63.623047" xlink:href="#DejaVuSans-46"/>
      <use x="95.410156" xlink:href="#DejaVuSans-48"/>
      <use x="159.033203" xlink:href="#DejaVuSans-48"/>
      <use x="222.65625" xlink:href="#DejaVuSans-48"/>
     </g>
    </g>
   </g>
   <g id="text_32">
    <g clip-path="url(#p5aa723d003)">
     <!-- 7.500 -->
     <g style="fill:#75d054;" transform="translate(90.357792 100.456237)rotate(-354.027612)scale(0.06 -0.06)">
      <use xlink:href="#DejaVuSans-55"/>
      <use x="63.623047" xlink:href="#DejaVuSans-46"/>
      <use x="95.410156" xlink:href="#DejaVuSans-53"/>
      <use x="159.033203" xlink:href="#DejaVuSans-48"/>
      <use x="222.65625" xlink:href="#DejaVuSans-48"/>
     </g>
    </g>
   </g>
   <g id="text_33">
    <g clip-path="url(#p5aa723d003)">
     <!-- 8.000 -->
     <g style="fill:#95d840;" transform="translate(92.105079 100.413091)rotate(-353.743977)scale(0.06 -0.06)">
      <use xlink:href="#DejaVuSans-56"/>
      <use x="63.623047" xlink:href="#DejaVuSans-46"/>
      <use x="95.410156" xlink:href="#DejaVuSans-48"/>
      <use x="159.033203" xlink:href="#DejaVuSans-48"/>
      <use x="222.65625" xlink:href="#DejaVuSans-48"/>
     </g>
    </g>
   </g>
   <g id="text_34">
    <g clip-path="url(#p5aa723d003)">
     <!-- 8.500 -->
     <g style="fill:#bade28;" transform="translate(55.469497 101.010447)rotate(-1.276047)scale(0.06 -0.06)">
      <use xlink:href="#DejaVuSans-56"/>
      <use x="63.623047" xlink:href="#DejaVuSans-46"/>
      <use x="95.410156" xlink:href="#DejaVuSans-53"/>
      <use x="159.033203" xlink:href="#DejaVuSans-48"/>
      <use x="222.65625" xlink:href="#DejaVuSans-48"/>
     </g>
    </g>
   </g>
   <g id="text_35">
    <g clip-path="url(#p5aa723d003)">
     <!-- 9.000 -->
     <g style="fill:#dde318;" transform="translate(143.867092 186.619008)rotate(-12.163917)scale(0.06 -0.06)">
      <use xlink:href="#DejaVuSans-57"/>
      <use x="63.623047" xlink:href="#DejaVuSans-46"/>
      <use x="95.410156" xlink:href="#DejaVuSans-48"/>
      <use x="159.033203" xlink:href="#DejaVuSans-48"/>
      <use x="222.65625" xlink:href="#DejaVuSans-48"/>
     </g>
    </g>
   </g>
   <g id="text_36">
    <g clip-path="url(#p5aa723d003)">
     <!-- 9.500 -->
     <g style="fill:#fde725;" transform="translate(95.270312 100.457934)rotate(-354.948556)scale(0.06 -0.06)">
      <use xlink:href="#DejaVuSans-57"/>
      <use x="63.623047" xlink:href="#DejaVuSans-46"/>
      <use x="95.410156" xlink:href="#DejaVuSans-53"/>
      <use x="159.033203" xlink:href="#DejaVuSans-48"/>
      <use x="222.65625" xlink:href="#DejaVuSans-48"/>
     </g>
    </g>
   </g>
   <g id="text_37">
    <g clip-path="url(#p5aa723d003)">
     <!-- 10.000 -->
     <g style="fill:#440154;" transform="translate(97.340793 100.807631)rotate(-351.94961)scale(0.06 -0.06)">
      <use xlink:href="#DejaVuSans-49"/>
      <use x="63.623047" xlink:href="#DejaVuSans-48"/>
      <use x="127.246094" xlink:href="#DejaVuSans-46"/>
      <use x="159.033203" xlink:href="#DejaVuSans-48"/>
      <use x="222.65625" xlink:href="#DejaVuSans-48"/>
      <use x="286.279297" xlink:href="#DejaVuSans-48"/>
     </g>
    </g>
   </g>
   <g id="text_38">
    <g clip-path="url(#p5aa723d003)">
     <!-- 100.000 -->
     <g style="fill:#440154;" transform="translate(127.759122 216.758161)rotate(-5.919105)scale(0.06 -0.06)">
      <use xlink:href="#DejaVuSans-49"/>
      <use x="63.623047" xlink:href="#DejaVuSans-48"/>
      <use x="127.246094" xlink:href="#DejaVuSans-48"/>
      <use x="190.869141" xlink:href="#DejaVuSans-46"/>
      <use x="222.65625" xlink:href="#DejaVuSans-48"/>
      <use x="286.279297" xlink:href="#DejaVuSans-48"/>
      <use x="349.902344" xlink:href="#DejaVuSans-48"/>
     </g>
    </g>
   </g>
   <g id="text_39">
    <g clip-path="url(#p5aa723d003)">
     <!-- 1000.000 -->
     <g style="fill:#440154;" transform="translate(101.675669 230.181955)rotate(-1.073059)scale(0.06 -0.06)">
      <use xlink:href="#DejaVuSans-49"/>
      <use x="63.623047" xlink:href="#DejaVuSans-48"/>
      <use x="127.246094" xlink:href="#DejaVuSans-48"/>
      <use x="190.869141" xlink:href="#DejaVuSans-48"/>
      <use x="254.492188" xlink:href="#DejaVuSans-46"/>
      <use x="286.279297" xlink:href="#DejaVuSans-48"/>
      <use x="349.902344" xlink:href="#DejaVuSans-48"/>
      <use x="413.525391" xlink:href="#DejaVuSans-48"/>
     </g>
    </g>
   </g>
   <g id="text_40">
    <g clip-path="url(#p5aa723d003)">
     <!-- 1000.000 -->
     <g style="fill:#440154;" transform="translate(105.570778 88.01481)rotate(-349.777769)scale(0.06 -0.06)">
      <use xlink:href="#DejaVuSans-49"/>
      <use x="63.623047" xlink:href="#DejaVuSans-48"/>
      <use x="127.246094" xlink:href="#DejaVuSans-48"/>
      <use x="190.869141" xlink:href="#DejaVuSans-48"/>
      <use x="254.492188" xlink:href="#DejaVuSans-46"/>
      <use x="286.279297" xlink:href="#DejaVuSans-48"/>
      <use x="349.902344" xlink:href="#DejaVuSans-48"/>
      <use x="413.525391" xlink:href="#DejaVuSans-48"/>
     </g>
    </g>
   </g>
   <g id="text_41">
    <g clip-path="url(#p5aa723d003)">
     <!-- 10000.000 -->
     <g style="fill:#440154;" transform="translate(103.761534 243.596146)rotate(-1.045415)scale(0.06 -0.06)">
      <use xlink:href="#DejaVuSans-49"/>
      <use x="63.623047" xlink:href="#DejaVuSans-48"/>
      <use x="127.246094" xlink:href="#DejaVuSans-48"/>
      <use x="190.869141" xlink:href="#DejaVuSans-48"/>
      <use x="254.492188" xlink:href="#DejaVuSans-48"/>
      <use x="318.115234" xlink:href="#DejaVuSans-46"/>
      <use x="349.902344" xlink:href="#DejaVuSans-48"/>
      <use x="413.525391" xlink:href="#DejaVuSans-48"/>
      <use x="477.148438" xlink:href="#DejaVuSans-48"/>
     </g>
    </g>
   </g>
   <g id="text_42">
    <g clip-path="url(#p5aa723d003)">
     <!-- 10000.000 -->
     <g style="fill:#440154;" transform="translate(111.764011 81.803651)rotate(-346.956086)scale(0.06 -0.06)">
      <use xlink:href="#DejaVuSans-49"/>
      <use x="63.623047" xlink:href="#DejaVuSans-48"/>
      <use x="127.246094" xlink:href="#DejaVuSans-48"/>
      <use x="190.869141" xlink:href="#DejaVuSans-48"/>
      <use x="254.492188" xlink:href="#DejaVuSans-48"/>
      <use x="318.115234" xlink:href="#DejaVuSans-46"/>
      <use x="349.902344" xlink:href="#DejaVuSans-48"/>
      <use x="413.525391" xlink:href="#DejaVuSans-48"/>
      <use x="477.148438" xlink:href="#DejaVuSans-48"/>
     </g>
    </g>
   </g>
   <g id="text_43">
    <g clip-path="url(#p5aa723d003)">
     <!-- 100000.000 -->
     <g style="fill:#440154;" transform="translate(101.852778 253.633151)rotate(-1.036065)scale(0.06 -0.06)">
      <use xlink:href="#DejaVuSans-49"/>
      <use x="63.623047" xlink:href="#DejaVuSans-48"/>
      <use x="127.246094" xlink:href="#DejaVuSans-48"/>
      <use x="190.869141" xlink:href="#DejaVuSans-48"/>
      <use x="254.492188" xlink:href="#DejaVuSans-48"/>
      <use x="318.115234" xlink:href="#DejaVuSans-48"/>
      <use x="381.738281" xlink:href="#DejaVuSans-46"/>
      <use x="413.525391" xlink:href="#DejaVuSans-48"/>
      <use x="477.148438" xlink:href="#DejaVuSans-48"/>
      <use x="540.771484" xlink:href="#DejaVuSans-48"/>
     </g>
    </g>
   </g>
   <g id="text_44">
    <g clip-path="url(#p5aa723d003)">
     <!-- 100000.000 -->
     <g style="fill:#440154;" transform="translate(110.272348 70.783517)rotate(-347.498864)scale(0.06 -0.06)">
      <use xlink:href="#DejaVuSans-49"/>
      <use x="63.623047" xlink:href="#DejaVuSans-48"/>
      <use x="127.246094" xlink:href="#DejaVuSans-48"/>
      <use x="190.869141" xlink:href="#DejaVuSans-48"/>
      <use x="254.492188" xlink:href="#DejaVuSans-48"/>
      <use x="318.115234" xlink:href="#DejaVuSans-48"/>
      <use x="381.738281" xlink:href="#DejaVuSans-46"/>
      <use x="413.525391" xlink:href="#DejaVuSans-48"/>
      <use x="477.148438" xlink:href="#DejaVuSans-48"/>
      <use x="540.771484" xlink:href="#DejaVuSans-48"/>
     </g>
    </g>
   </g>
   <g id="text_45">
    <g clip-path="url(#p5aa723d003)">
     <!-- 1000000.000 -->
     <g style="fill:#450457;" transform="translate(108.01307 264.514799)rotate(-2.944287)scale(0.06 -0.06)">
      <use xlink:href="#DejaVuSans-49"/>
      <use x="63.623047" xlink:href="#DejaVuSans-48"/>
      <use x="127.246094" xlink:href="#DejaVuSans-48"/>
      <use x="190.869141" xlink:href="#DejaVuSans-48"/>
      <use x="254.492188" xlink:href="#DejaVuSans-48"/>
      <use x="318.115234" xlink:href="#DejaVuSans-48"/>
      <use x="381.738281" xlink:href="#DejaVuSans-48"/>
      <use x="445.361328" xlink:href="#DejaVuSans-46"/>
      <use x="477.148438" xlink:href="#DejaVuSans-48"/>
      <use x="540.771484" xlink:href="#DejaVuSans-48"/>
      <use x="604.394531" xlink:href="#DejaVuSans-48"/>
     </g>
    </g>
   </g>
   <g id="text_46">
    <g clip-path="url(#p5aa723d003)">
     <!-- 1000000.000 -->
     <g style="fill:#450457;" transform="translate(108.036372 60.370746)rotate(-347.127948)scale(0.06 -0.06)">
      <use xlink:href="#DejaVuSans-49"/>
      <use x="63.623047" xlink:href="#DejaVuSans-48"/>
      <use x="127.246094" xlink:href="#DejaVuSans-48"/>
      <use x="190.869141" xlink:href="#DejaVuSans-48"/>
      <use x="254.492188" xlink:href="#DejaVuSans-48"/>
      <use x="318.115234" xlink:href="#DejaVuSans-48"/>
      <use x="381.738281" xlink:href="#DejaVuSans-48"/>
      <use x="445.361328" xlink:href="#DejaVuSans-46"/>
      <use x="477.148438" xlink:href="#DejaVuSans-48"/>
      <use x="540.771484" xlink:href="#DejaVuSans-48"/>
      <use x="604.394531" xlink:href="#DejaVuSans-48"/>
     </g>
    </g>
   </g>
   <g id="text_47">
    <g clip-path="url(#p5aa723d003)">
     <!-- 10000000.000 -->
     <g style="fill:#482475;" transform="translate(125.849295 273.72556)rotate(-10.114857)scale(0.06 -0.06)">
      <use xlink:href="#DejaVuSans-49"/>
      <use x="63.623047" xlink:href="#DejaVuSans-48"/>
      <use x="127.246094" xlink:href="#DejaVuSans-48"/>
      <use x="190.869141" xlink:href="#DejaVuSans-48"/>
      <use x="254.492188" xlink:href="#DejaVuSans-48"/>
      <use x="318.115234" xlink:href="#DejaVuSans-48"/>
      <use x="381.738281" xlink:href="#DejaVuSans-48"/>
      <use x="445.361328" xlink:href="#DejaVuSans-48"/>
      <use x="508.984375" xlink:href="#DejaVuSans-46"/>
      <use x="540.771484" xlink:href="#DejaVuSans-48"/>
      <use x="604.394531" xlink:href="#DejaVuSans-48"/>
      <use x="668.017578" xlink:href="#DejaVuSans-48"/>
     </g>
    </g>
   </g>
   <g id="text_48">
    <g clip-path="url(#p5aa723d003)">
     <!-- 10000000.000 -->
     <g style="fill:#482475;" transform="translate(106.256676 49.524429)rotate(-345.810249)scale(0.06 -0.06)">
      <use xlink:href="#DejaVuSans-49"/>
      <use x="63.623047" xlink:href="#DejaVuSans-48"/>
      <use x="127.246094" xlink:href="#DejaVuSans-48"/>
      <use x="190.869141" xlink:href="#DejaVuSans-48"/>
      <use x="254.492188" xlink:href="#DejaVuSans-48"/>
      <use x="318.115234" xlink:href="#DejaVuSans-48"/>
      <use x="381.738281" xlink:href="#DejaVuSans-48"/>
      <use x="445.361328" xlink:href="#DejaVuSans-48"/>
      <use x="508.984375" xlink:href="#DejaVuSans-46"/>
      <use x="540.771484" xlink:href="#DejaVuSans-48"/>
      <use x="604.394531" xlink:href="#DejaVuSans-48"/>
      <use x="668.017578" xlink:href="#DejaVuSans-48"/>
     </g>
    </g>
   </g>
   <g id="text_49">
    <g clip-path="url(#p5aa723d003)">
     <!-- 100000000.000 -->
     <g style="fill:#fde725;" transform="translate(141.673619 275.896693)rotate(-14.700439)scale(0.06 -0.06)">
      <use xlink:href="#DejaVuSans-49"/>
      <use x="63.623047" xlink:href="#DejaVuSans-48"/>
      <use x="127.246094" xlink:href="#DejaVuSans-48"/>
      <use x="190.869141" xlink:href="#DejaVuSans-48"/>
      <use x="254.492188" xlink:href="#DejaVuSans-48"/>
      <use x="318.115234" xlink:href="#DejaVuSans-48"/>
      <use x="381.738281" xlink:href="#DejaVuSans-48"/>
      <use x="445.361328" xlink:href="#DejaVuSans-48"/>
      <use x="508.984375" xlink:href="#DejaVuSans-48"/>
      <use x="572.607422" xlink:href="#DejaVuSans-46"/>
      <use x="604.394531" xlink:href="#DejaVuSans-48"/>
      <use x="668.017578" xlink:href="#DejaVuSans-48"/>
      <use x="731.640625" xlink:href="#DejaVuSans-48"/>
     </g>
    </g>
   </g>
   <g id="text_50">
    <g clip-path="url(#p5aa723d003)">
     <!-- 100000000.000 -->
     <g style="fill:#fde725;" transform="translate(100.234068 37.62883)rotate(-348.567376)scale(0.06 -0.06)">
      <use xlink:href="#DejaVuSans-49"/>
      <use x="63.623047" xlink:href="#DejaVuSans-48"/>
      <use x="127.246094" xlink:href="#DejaVuSans-48"/>
      <use x="190.869141" xlink:href="#DejaVuSans-48"/>
      <use x="254.492188" xlink:href="#DejaVuSans-48"/>
      <use x="318.115234" xlink:href="#DejaVuSans-48"/>
      <use x="381.738281" xlink:href="#DejaVuSans-48"/>
      <use x="445.361328" xlink:href="#DejaVuSans-48"/>
      <use x="508.984375" xlink:href="#DejaVuSans-48"/>
      <use x="572.607422" xlink:href="#DejaVuSans-46"/>
      <use x="604.394531" xlink:href="#DejaVuSans-48"/>
      <use x="668.017578" xlink:href="#DejaVuSans-48"/>
      <use x="731.640625" xlink:href="#DejaVuSans-48"/>
     </g>
    </g>
   </g>
  </g>
 </g>
 <defs>
  <clipPath id="p5aa723d003">
   <rect height="266.112" width="357.12" x="56.028488" y="10.999219"/>
  </clipPath>
 </defs>
</svg>
