<?xml version="1.0" encoding="utf-8" standalone="no"?>
<!DOCTYPE svg PUBLIC "-//W3C//DTD SVG 1.1//EN"
  "http://www.w3.org/Graphics/SVG/1.1/DTD/svg11.dtd">
<!-- Created with matplotlib (https://matplotlib.org/) -->
<svg height="321.713144pt" version="1.1" viewBox="0 0 420.348487 321.713144" width="420.348487pt" xmlns="http://www.w3.org/2000/svg" xmlns:xlink="http://www.w3.org/1999/xlink">
 <metadata>
  <rdf:RDF xmlns:cc="http://creativecommons.org/ns#" xmlns:dc="http://purl.org/dc/elements/1.1/" xmlns:rdf="http://www.w3.org/1999/02/22-rdf-syntax-ns#">
   <cc:Work>
    <dc:type rdf:resource="http://purl.org/dc/dcmitype/StillImage"/>
    <dc:date>2021-09-21T16:28:44.474222</dc:date>
    <dc:format>image/svg+xml</dc:format>
    <dc:creator>
     <cc:Agent>
      <dc:title>Matplotlib v3.3.1, https://matplotlib.org/</dc:title>
     </cc:Agent>
    </dc:creator>
   </cc:Work>
  </rdf:RDF>
 </metadata>
 <defs>
  <style type="text/css">*{stroke-linecap:butt;stroke-linejoin:round;}</style>
 </defs>
 <g id="figure_1">
  <g id="patch_1">
   <path d="M 0 321.713144 
L 420.348487 321.713144 
L 420.348487 0 
L 0 0 
z
" style="fill:#ffffff;"/>
  </g>
  <g id="axes_1">
   <g id="patch_2">
    <path d="M 56.028488 277.111219 
L 413.148488 277.111219 
L 413.148488 10.999219 
L 56.028488 10.999219 
z
" style="fill:#ffffff;"/>
   </g>
   <g id="matplotlib.axis_1">
    <g id="xtick_1">
     <g id="line2d_1">
      <defs>
       <path d="M 0 0 
L 0 3.5 
" id="mc14115848f" style="stroke:#000000;stroke-width:0.8;"/>
      </defs>
      <g>
       <use style="stroke:#000000;stroke-width:0.8;" x="56.028488" xlink:href="#mc14115848f" y="277.111219"/>
      </g>
     </g>
     <g id="text_1">
      <!-- −20 -->
      <g transform="translate(45.476144 291.709656)scale(0.1 -0.1)">
       <defs>
        <path d="M 10.59375 35.5 
L 73.1875 35.5 
L 73.1875 27.203125 
L 10.59375 27.203125 
z
" id="DejaVuSans-8722"/>
        <path d="M 19.1875 8.296875 
L 53.609375 8.296875 
L 53.609375 0 
L 7.328125 0 
L 7.328125 8.296875 
Q 12.9375 14.109375 22.625 23.890625 
Q 32.328125 33.6875 34.8125 36.53125 
Q 39.546875 41.84375 41.421875 45.53125 
Q 43.3125 49.21875 43.3125 52.78125 
Q 43.3125 58.59375 39.234375 62.25 
Q 35.15625 65.921875 28.609375 65.921875 
Q 23.96875 65.921875 18.8125 64.3125 
Q 13.671875 62.703125 7.8125 59.421875 
L 7.8125 69.390625 
Q 13.765625 71.78125 18.9375 73 
Q 24.125 74.21875 28.421875 74.21875 
Q 39.75 74.21875 46.484375 68.546875 
Q 53.21875 62.890625 53.21875 53.421875 
Q 53.21875 48.921875 51.53125 44.890625 
Q 49.859375 40.875 45.40625 35.40625 
Q 44.1875 33.984375 37.640625 27.21875 
Q 31.109375 20.453125 19.1875 8.296875 
z
" id="DejaVuSans-50"/>
        <path d="M 31.78125 66.40625 
Q 24.171875 66.40625 20.328125 58.90625 
Q 16.5 51.421875 16.5 36.375 
Q 16.5 21.390625 20.328125 13.890625 
Q 24.171875 6.390625 31.78125 6.390625 
Q 39.453125 6.390625 43.28125 13.890625 
Q 47.125 21.390625 47.125 36.375 
Q 47.125 51.421875 43.28125 58.90625 
Q 39.453125 66.40625 31.78125 66.40625 
z
M 31.78125 74.21875 
Q 44.046875 74.21875 50.515625 64.515625 
Q 56.984375 54.828125 56.984375 36.375 
Q 56.984375 17.96875 50.515625 8.265625 
Q 44.046875 -1.421875 31.78125 -1.421875 
Q 19.53125 -1.421875 13.0625 8.265625 
Q 6.59375 17.96875 6.59375 36.375 
Q 6.59375 54.828125 13.0625 64.515625 
Q 19.53125 74.21875 31.78125 74.21875 
z
" id="DejaVuSans-48"/>
       </defs>
       <use xlink:href="#DejaVuSans-8722"/>
       <use x="83.789062" xlink:href="#DejaVuSans-50"/>
       <use x="147.412109" xlink:href="#DejaVuSans-48"/>
      </g>
     </g>
    </g>
    <g id="xtick_2">
     <g id="line2d_2">
      <g>
       <use style="stroke:#000000;stroke-width:0.8;" x="125.983596" xlink:href="#mc14115848f" y="277.111219"/>
      </g>
     </g>
     <g id="text_2">
      <!-- 0 -->
      <g transform="translate(122.802346 291.709656)scale(0.1 -0.1)">
       <use xlink:href="#DejaVuSans-48"/>
      </g>
     </g>
    </g>
    <g id="xtick_3">
     <g id="line2d_3">
      <g>
       <use style="stroke:#000000;stroke-width:0.8;" x="195.938705" xlink:href="#mc14115848f" y="277.111219"/>
      </g>
     </g>
     <g id="text_3">
      <!-- 20 -->
      <g transform="translate(189.576205 291.709656)scale(0.1 -0.1)">
       <use xlink:href="#DejaVuSans-50"/>
       <use x="63.623047" xlink:href="#DejaVuSans-48"/>
      </g>
     </g>
    </g>
    <g id="xtick_4">
     <g id="line2d_4">
      <g>
       <use style="stroke:#000000;stroke-width:0.8;" x="265.893814" xlink:href="#mc14115848f" y="277.111219"/>
      </g>
     </g>
     <g id="text_4">
      <!-- 40 -->
      <g transform="translate(259.531314 291.709656)scale(0.1 -0.1)">
       <defs>
        <path d="M 37.796875 64.3125 
L 12.890625 25.390625 
L 37.796875 25.390625 
z
M 35.203125 72.90625 
L 47.609375 72.90625 
L 47.609375 25.390625 
L 58.015625 25.390625 
L 58.015625 17.1875 
L 47.609375 17.1875 
L 47.609375 0 
L 37.796875 0 
L 37.796875 17.1875 
L 4.890625 17.1875 
L 4.890625 26.703125 
z
" id="DejaVuSans-52"/>
       </defs>
       <use xlink:href="#DejaVuSans-52"/>
       <use x="63.623047" xlink:href="#DejaVuSans-48"/>
      </g>
     </g>
    </g>
    <g id="xtick_5">
     <g id="line2d_5">
      <g>
       <use style="stroke:#000000;stroke-width:0.8;" x="335.848922" xlink:href="#mc14115848f" y="277.111219"/>
      </g>
     </g>
     <g id="text_5">
      <!-- 60 -->
      <g transform="translate(329.486422 291.709656)scale(0.1 -0.1)">
       <defs>
        <path d="M 33.015625 40.375 
Q 26.375 40.375 22.484375 35.828125 
Q 18.609375 31.296875 18.609375 23.390625 
Q 18.609375 15.53125 22.484375 10.953125 
Q 26.375 6.390625 33.015625 6.390625 
Q 39.65625 6.390625 43.53125 10.953125 
Q 47.40625 15.53125 47.40625 23.390625 
Q 47.40625 31.296875 43.53125 35.828125 
Q 39.65625 40.375 33.015625 40.375 
z
M 52.59375 71.296875 
L 52.59375 62.3125 
Q 48.875 64.0625 45.09375 64.984375 
Q 41.3125 65.921875 37.59375 65.921875 
Q 27.828125 65.921875 22.671875 59.328125 
Q 17.53125 52.734375 16.796875 39.40625 
Q 19.671875 43.65625 24.015625 45.921875 
Q 28.375 48.1875 33.59375 48.1875 
Q 44.578125 48.1875 50.953125 41.515625 
Q 57.328125 34.859375 57.328125 23.390625 
Q 57.328125 12.15625 50.6875 5.359375 
Q 44.046875 -1.421875 33.015625 -1.421875 
Q 20.359375 -1.421875 13.671875 8.265625 
Q 6.984375 17.96875 6.984375 36.375 
Q 6.984375 53.65625 15.1875 63.9375 
Q 23.390625 74.21875 37.203125 74.21875 
Q 40.921875 74.21875 44.703125 73.484375 
Q 48.484375 72.75 52.59375 71.296875 
z
" id="DejaVuSans-54"/>
       </defs>
       <use xlink:href="#DejaVuSans-54"/>
       <use x="63.623047" xlink:href="#DejaVuSans-48"/>
      </g>
     </g>
    </g>
    <g id="xtick_6">
     <g id="line2d_6">
      <g>
       <use style="stroke:#000000;stroke-width:0.8;" x="405.804031" xlink:href="#mc14115848f" y="277.111219"/>
      </g>
     </g>
     <g id="text_6">
      <!-- 80 -->
      <g transform="translate(399.441531 291.709656)scale(0.1 -0.1)">
       <defs>
        <path d="M 31.78125 34.625 
Q 24.75 34.625 20.71875 30.859375 
Q 16.703125 27.09375 16.703125 20.515625 
Q 16.703125 13.921875 20.71875 10.15625 
Q 24.75 6.390625 31.78125 6.390625 
Q 38.8125 6.390625 42.859375 10.171875 
Q 46.921875 13.96875 46.921875 20.515625 
Q 46.921875 27.09375 42.890625 30.859375 
Q 38.875 34.625 31.78125 34.625 
z
M 21.921875 38.8125 
Q 15.578125 40.375 12.03125 44.71875 
Q 8.5 49.078125 8.5 55.328125 
Q 8.5 64.0625 14.71875 69.140625 
Q 20.953125 74.21875 31.78125 74.21875 
Q 42.671875 74.21875 48.875 69.140625 
Q 55.078125 64.0625 55.078125 55.328125 
Q 55.078125 49.078125 51.53125 44.71875 
Q 48 40.375 41.703125 38.8125 
Q 48.828125 37.15625 52.796875 32.3125 
Q 56.78125 27.484375 56.78125 20.515625 
Q 56.78125 9.90625 50.3125 4.234375 
Q 43.84375 -1.421875 31.78125 -1.421875 
Q 19.734375 -1.421875 13.25 4.234375 
Q 6.78125 9.90625 6.78125 20.515625 
Q 6.78125 27.484375 10.78125 32.3125 
Q 14.796875 37.15625 21.921875 38.8125 
z
M 18.3125 54.390625 
Q 18.3125 48.734375 21.84375 45.5625 
Q 25.390625 42.390625 31.78125 42.390625 
Q 38.140625 42.390625 41.71875 45.5625 
Q 45.3125 48.734375 45.3125 54.390625 
Q 45.3125 60.0625 41.71875 63.234375 
Q 38.140625 66.40625 31.78125 66.40625 
Q 25.390625 66.40625 21.84375 63.234375 
Q 18.3125 60.0625 18.3125 54.390625 
z
" id="DejaVuSans-56"/>
       </defs>
       <use xlink:href="#DejaVuSans-56"/>
       <use x="63.623047" xlink:href="#DejaVuSans-48"/>
      </g>
     </g>
    </g>
    <g id="text_7">
     <!-- 1st PC: 75.70 % -->
     <g transform="translate(165.868088 310.919444)scale(0.1728 -0.1728)">
      <defs>
       <path d="M 12.40625 8.296875 
L 28.515625 8.296875 
L 28.515625 63.921875 
L 10.984375 60.40625 
L 10.984375 69.390625 
L 28.421875 72.90625 
L 38.28125 72.90625 
L 38.28125 8.296875 
L 54.390625 8.296875 
L 54.390625 0 
L 12.40625 0 
z
" id="DejaVuSans-49"/>
       <path d="M 44.28125 53.078125 
L 44.28125 44.578125 
Q 40.484375 46.53125 36.375 47.5 
Q 32.28125 48.484375 27.875 48.484375 
Q 21.1875 48.484375 17.84375 46.4375 
Q 14.5 44.390625 14.5 40.28125 
Q 14.5 37.15625 16.890625 35.375 
Q 19.28125 33.59375 26.515625 31.984375 
L 29.59375 31.296875 
Q 39.15625 29.25 43.1875 25.515625 
Q 47.21875 21.78125 47.21875 15.09375 
Q 47.21875 7.46875 41.1875 3.015625 
Q 35.15625 -1.421875 24.609375 -1.421875 
Q 20.21875 -1.421875 15.453125 -0.5625 
Q 10.6875 0.296875 5.421875 2 
L 5.421875 11.28125 
Q 10.40625 8.6875 15.234375 7.390625 
Q 20.0625 6.109375 24.8125 6.109375 
Q 31.15625 6.109375 34.5625 8.28125 
Q 37.984375 10.453125 37.984375 14.40625 
Q 37.984375 18.0625 35.515625 20.015625 
Q 33.0625 21.96875 24.703125 23.78125 
L 21.578125 24.515625 
Q 13.234375 26.265625 9.515625 29.90625 
Q 5.8125 33.546875 5.8125 39.890625 
Q 5.8125 47.609375 11.28125 51.796875 
Q 16.75 56 26.8125 56 
Q 31.78125 56 36.171875 55.265625 
Q 40.578125 54.546875 44.28125 53.078125 
z
" id="DejaVuSans-115"/>
       <path d="M 18.3125 70.21875 
L 18.3125 54.6875 
L 36.8125 54.6875 
L 36.8125 47.703125 
L 18.3125 47.703125 
L 18.3125 18.015625 
Q 18.3125 11.328125 20.140625 9.421875 
Q 21.96875 7.515625 27.59375 7.515625 
L 36.8125 7.515625 
L 36.8125 0 
L 27.59375 0 
Q 17.1875 0 13.234375 3.875 
Q 9.28125 7.765625 9.28125 18.015625 
L 9.28125 47.703125 
L 2.6875 47.703125 
L 2.6875 54.6875 
L 9.28125 54.6875 
L 9.28125 70.21875 
z
" id="DejaVuSans-116"/>
       <path id="DejaVuSans-32"/>
       <path d="M 19.671875 64.796875 
L 19.671875 37.40625 
L 32.078125 37.40625 
Q 38.96875 37.40625 42.71875 40.96875 
Q 46.484375 44.53125 46.484375 51.125 
Q 46.484375 57.671875 42.71875 61.234375 
Q 38.96875 64.796875 32.078125 64.796875 
z
M 9.8125 72.90625 
L 32.078125 72.90625 
Q 44.34375 72.90625 50.609375 67.359375 
Q 56.890625 61.8125 56.890625 51.125 
Q 56.890625 40.328125 50.609375 34.8125 
Q 44.34375 29.296875 32.078125 29.296875 
L 19.671875 29.296875 
L 19.671875 0 
L 9.8125 0 
z
" id="DejaVuSans-80"/>
       <path d="M 64.40625 67.28125 
L 64.40625 56.890625 
Q 59.421875 61.53125 53.78125 63.8125 
Q 48.140625 66.109375 41.796875 66.109375 
Q 29.296875 66.109375 22.65625 58.46875 
Q 16.015625 50.828125 16.015625 36.375 
Q 16.015625 21.96875 22.65625 14.328125 
Q 29.296875 6.6875 41.796875 6.6875 
Q 48.140625 6.6875 53.78125 8.984375 
Q 59.421875 11.28125 64.40625 15.921875 
L 64.40625 5.609375 
Q 59.234375 2.09375 53.4375 0.328125 
Q 47.65625 -1.421875 41.21875 -1.421875 
Q 24.65625 -1.421875 15.125 8.703125 
Q 5.609375 18.84375 5.609375 36.375 
Q 5.609375 53.953125 15.125 64.078125 
Q 24.65625 74.21875 41.21875 74.21875 
Q 47.75 74.21875 53.53125 72.484375 
Q 59.328125 70.75 64.40625 67.28125 
z
" id="DejaVuSans-67"/>
       <path d="M 11.71875 12.40625 
L 22.015625 12.40625 
L 22.015625 0 
L 11.71875 0 
z
M 11.71875 51.703125 
L 22.015625 51.703125 
L 22.015625 39.3125 
L 11.71875 39.3125 
z
" id="DejaVuSans-58"/>
       <path d="M 8.203125 72.90625 
L 55.078125 72.90625 
L 55.078125 68.703125 
L 28.609375 0 
L 18.3125 0 
L 43.21875 64.59375 
L 8.203125 64.59375 
z
" id="DejaVuSans-55"/>
       <path d="M 10.796875 72.90625 
L 49.515625 72.90625 
L 49.515625 64.59375 
L 19.828125 64.59375 
L 19.828125 46.734375 
Q 21.96875 47.46875 24.109375 47.828125 
Q 26.265625 48.1875 28.421875 48.1875 
Q 40.625 48.1875 47.75 41.5 
Q 54.890625 34.8125 54.890625 23.390625 
Q 54.890625 11.625 47.5625 5.09375 
Q 40.234375 -1.421875 26.90625 -1.421875 
Q 22.3125 -1.421875 17.546875 -0.640625 
Q 12.796875 0.140625 7.71875 1.703125 
L 7.71875 11.625 
Q 12.109375 9.234375 16.796875 8.0625 
Q 21.484375 6.890625 26.703125 6.890625 
Q 35.15625 6.890625 40.078125 11.328125 
Q 45.015625 15.765625 45.015625 23.390625 
Q 45.015625 31 40.078125 35.4375 
Q 35.15625 39.890625 26.703125 39.890625 
Q 22.75 39.890625 18.8125 39.015625 
Q 14.890625 38.140625 10.796875 36.28125 
z
" id="DejaVuSans-53"/>
       <path d="M 10.6875 12.40625 
L 21 12.40625 
L 21 0 
L 10.6875 0 
z
" id="DejaVuSans-46"/>
       <path d="M 72.703125 32.078125 
Q 68.453125 32.078125 66.03125 28.46875 
Q 63.625 24.859375 63.625 18.40625 
Q 63.625 12.0625 66.03125 8.421875 
Q 68.453125 4.78125 72.703125 4.78125 
Q 76.859375 4.78125 79.265625 8.421875 
Q 81.6875 12.0625 81.6875 18.40625 
Q 81.6875 24.8125 79.265625 28.4375 
Q 76.859375 32.078125 72.703125 32.078125 
z
M 72.703125 38.28125 
Q 80.421875 38.28125 84.953125 32.90625 
Q 89.5 27.546875 89.5 18.40625 
Q 89.5 9.28125 84.9375 3.921875 
Q 80.375 -1.421875 72.703125 -1.421875 
Q 64.890625 -1.421875 60.34375 3.921875 
Q 55.8125 9.28125 55.8125 18.40625 
Q 55.8125 27.59375 60.375 32.9375 
Q 64.9375 38.28125 72.703125 38.28125 
z
M 22.3125 68.015625 
Q 18.109375 68.015625 15.6875 64.375 
Q 13.28125 60.75 13.28125 54.390625 
Q 13.28125 47.953125 15.671875 44.328125 
Q 18.0625 40.71875 22.3125 40.71875 
Q 26.5625 40.71875 28.96875 44.328125 
Q 31.390625 47.953125 31.390625 54.390625 
Q 31.390625 60.6875 28.953125 64.34375 
Q 26.515625 68.015625 22.3125 68.015625 
z
M 66.40625 74.21875 
L 74.21875 74.21875 
L 28.609375 -1.421875 
L 20.796875 -1.421875 
z
M 22.3125 74.21875 
Q 30.03125 74.21875 34.609375 68.875 
Q 39.203125 63.53125 39.203125 54.390625 
Q 39.203125 45.171875 34.640625 39.84375 
Q 30.078125 34.515625 22.3125 34.515625 
Q 14.546875 34.515625 10.03125 39.859375 
Q 5.515625 45.21875 5.515625 54.390625 
Q 5.515625 63.484375 10.046875 68.84375 
Q 14.59375 74.21875 22.3125 74.21875 
z
" id="DejaVuSans-37"/>
      </defs>
      <use xlink:href="#DejaVuSans-49"/>
      <use x="63.623047" xlink:href="#DejaVuSans-115"/>
      <use x="115.722656" xlink:href="#DejaVuSans-116"/>
      <use x="154.931641" xlink:href="#DejaVuSans-32"/>
      <use x="186.71875" xlink:href="#DejaVuSans-80"/>
      <use x="247.021484" xlink:href="#DejaVuSans-67"/>
      <use x="316.845703" xlink:href="#DejaVuSans-58"/>
      <use x="350.537109" xlink:href="#DejaVuSans-32"/>
      <use x="382.324219" xlink:href="#DejaVuSans-55"/>
      <use x="445.947266" xlink:href="#DejaVuSans-53"/>
      <use x="509.570312" xlink:href="#DejaVuSans-46"/>
      <use x="541.357422" xlink:href="#DejaVuSans-55"/>
      <use x="604.980469" xlink:href="#DejaVuSans-48"/>
      <use x="668.603516" xlink:href="#DejaVuSans-32"/>
      <use x="700.390625" xlink:href="#DejaVuSans-37"/>
     </g>
    </g>
   </g>
   <g id="matplotlib.axis_2">
    <g id="ytick_1">
     <g id="line2d_7">
      <defs>
       <path d="M 0 0 
L -3.5 0 
" id="md845e5ee81" style="stroke:#000000;stroke-width:0.8;"/>
      </defs>
      <g>
       <use style="stroke:#000000;stroke-width:0.8;" x="56.028488" xlink:href="#md845e5ee81" y="277.111219"/>
      </g>
     </g>
     <g id="text_8">
      <!-- −20 -->
      <g transform="translate(27.9238 280.910437)scale(0.1 -0.1)">
       <use xlink:href="#DejaVuSans-8722"/>
       <use x="83.789062" xlink:href="#DejaVuSans-50"/>
       <use x="147.412109" xlink:href="#DejaVuSans-48"/>
      </g>
     </g>
    </g>
    <g id="ytick_2">
     <g id="line2d_8">
      <g>
       <use style="stroke:#000000;stroke-width:0.8;" x="56.028488" xlink:href="#md845e5ee81" y="243.847219"/>
      </g>
     </g>
     <g id="text_9">
      <!-- −15 -->
      <g transform="translate(27.9238 247.646437)scale(0.1 -0.1)">
       <use xlink:href="#DejaVuSans-8722"/>
       <use x="83.789062" xlink:href="#DejaVuSans-49"/>
       <use x="147.412109" xlink:href="#DejaVuSans-53"/>
      </g>
     </g>
    </g>
    <g id="ytick_3">
     <g id="line2d_9">
      <g>
       <use style="stroke:#000000;stroke-width:0.8;" x="56.028488" xlink:href="#md845e5ee81" y="210.583219"/>
      </g>
     </g>
     <g id="text_10">
      <!-- −10 -->
      <g transform="translate(27.9238 214.382437)scale(0.1 -0.1)">
       <use xlink:href="#DejaVuSans-8722"/>
       <use x="83.789062" xlink:href="#DejaVuSans-49"/>
       <use x="147.412109" xlink:href="#DejaVuSans-48"/>
      </g>
     </g>
    </g>
    <g id="ytick_4">
     <g id="line2d_10">
      <g>
       <use style="stroke:#000000;stroke-width:0.8;" x="56.028488" xlink:href="#md845e5ee81" y="177.319219"/>
      </g>
     </g>
     <g id="text_11">
      <!-- −5 -->
      <g transform="translate(34.2863 181.118437)scale(0.1 -0.1)">
       <use xlink:href="#DejaVuSans-8722"/>
       <use x="83.789062" xlink:href="#DejaVuSans-53"/>
      </g>
     </g>
    </g>
    <g id="ytick_5">
     <g id="line2d_11">
      <g>
       <use style="stroke:#000000;stroke-width:0.8;" x="56.028488" xlink:href="#md845e5ee81" y="144.055219"/>
      </g>
     </g>
     <g id="text_12">
      <!-- 0 -->
      <g transform="translate(42.665987 147.854437)scale(0.1 -0.1)">
       <use xlink:href="#DejaVuSans-48"/>
      </g>
     </g>
    </g>
    <g id="ytick_6">
     <g id="line2d_12">
      <g>
       <use style="stroke:#000000;stroke-width:0.8;" x="56.028488" xlink:href="#md845e5ee81" y="110.791219"/>
      </g>
     </g>
     <g id="text_13">
      <!-- 5 -->
      <g transform="translate(42.665987 114.590437)scale(0.1 -0.1)">
       <use xlink:href="#DejaVuSans-53"/>
      </g>
     </g>
    </g>
    <g id="ytick_7">
     <g id="line2d_13">
      <g>
       <use style="stroke:#000000;stroke-width:0.8;" x="56.028488" xlink:href="#md845e5ee81" y="77.527219"/>
      </g>
     </g>
     <g id="text_14">
      <!-- 10 -->
      <g transform="translate(36.303488 81.326437)scale(0.1 -0.1)">
       <use xlink:href="#DejaVuSans-49"/>
       <use x="63.623047" xlink:href="#DejaVuSans-48"/>
      </g>
     </g>
    </g>
    <g id="ytick_8">
     <g id="line2d_14">
      <g>
       <use style="stroke:#000000;stroke-width:0.8;" x="56.028488" xlink:href="#md845e5ee81" y="44.263219"/>
      </g>
     </g>
     <g id="text_15">
      <!-- 15 -->
      <g transform="translate(36.303488 48.062437)scale(0.1 -0.1)">
       <use xlink:href="#DejaVuSans-49"/>
       <use x="63.623047" xlink:href="#DejaVuSans-53"/>
      </g>
     </g>
    </g>
    <g id="ytick_9">
     <g id="line2d_15">
      <g>
       <use style="stroke:#000000;stroke-width:0.8;" x="56.028488" xlink:href="#md845e5ee81" y="10.999219"/>
      </g>
     </g>
     <g id="text_16">
      <!-- 20 -->
      <g transform="translate(36.303488 14.798437)scale(0.1 -0.1)">
       <use xlink:href="#DejaVuSans-50"/>
       <use x="63.623047" xlink:href="#DejaVuSans-48"/>
      </g>
     </g>
    </g>
    <g id="text_17">
     <!-- 2nd PC: 12.20 % -->
     <g transform="translate(20.3301 215.848219)rotate(-90)scale(0.1728 -0.1728)">
      <defs>
       <path d="M 54.890625 33.015625 
L 54.890625 0 
L 45.90625 0 
L 45.90625 32.71875 
Q 45.90625 40.484375 42.875 44.328125 
Q 39.84375 48.1875 33.796875 48.1875 
Q 26.515625 48.1875 22.3125 43.546875 
Q 18.109375 38.921875 18.109375 30.90625 
L 18.109375 0 
L 9.078125 0 
L 9.078125 54.6875 
L 18.109375 54.6875 
L 18.109375 46.1875 
Q 21.34375 51.125 25.703125 53.5625 
Q 30.078125 56 35.796875 56 
Q 45.21875 56 50.046875 50.171875 
Q 54.890625 44.34375 54.890625 33.015625 
z
" id="DejaVuSans-110"/>
       <path d="M 45.40625 46.390625 
L 45.40625 75.984375 
L 54.390625 75.984375 
L 54.390625 0 
L 45.40625 0 
L 45.40625 8.203125 
Q 42.578125 3.328125 38.25 0.953125 
Q 33.9375 -1.421875 27.875 -1.421875 
Q 17.96875 -1.421875 11.734375 6.484375 
Q 5.515625 14.40625 5.515625 27.296875 
Q 5.515625 40.1875 11.734375 48.09375 
Q 17.96875 56 27.875 56 
Q 33.9375 56 38.25 53.625 
Q 42.578125 51.265625 45.40625 46.390625 
z
M 14.796875 27.296875 
Q 14.796875 17.390625 18.875 11.75 
Q 22.953125 6.109375 30.078125 6.109375 
Q 37.203125 6.109375 41.296875 11.75 
Q 45.40625 17.390625 45.40625 27.296875 
Q 45.40625 37.203125 41.296875 42.84375 
Q 37.203125 48.484375 30.078125 48.484375 
Q 22.953125 48.484375 18.875 42.84375 
Q 14.796875 37.203125 14.796875 27.296875 
z
" id="DejaVuSans-100"/>
      </defs>
      <use xlink:href="#DejaVuSans-50"/>
      <use x="63.623047" xlink:href="#DejaVuSans-110"/>
      <use x="127.001953" xlink:href="#DejaVuSans-100"/>
      <use x="190.478516" xlink:href="#DejaVuSans-32"/>
      <use x="222.265625" xlink:href="#DejaVuSans-80"/>
      <use x="282.568359" xlink:href="#DejaVuSans-67"/>
      <use x="352.392578" xlink:href="#DejaVuSans-58"/>
      <use x="386.083984" xlink:href="#DejaVuSans-32"/>
      <use x="417.871094" xlink:href="#DejaVuSans-49"/>
      <use x="481.494141" xlink:href="#DejaVuSans-50"/>
      <use x="545.117188" xlink:href="#DejaVuSans-46"/>
      <use x="576.904297" xlink:href="#DejaVuSans-50"/>
      <use x="640.527344" xlink:href="#DejaVuSans-48"/>
      <use x="704.150391" xlink:href="#DejaVuSans-32"/>
      <use x="735.9375" xlink:href="#DejaVuSans-37"/>
     </g>
    </g>
   </g>
   <g id="LineCollection_1"/>
   <g id="LineCollection_2"/>
   <g id="LineCollection_3"/>
   <g id="LineCollection_4">
    <path clip-path="url(#pa66272b372)" d="M 130.423136 147.333182 
L 130.529263 152.925619 
L 129.481352 155.221083 
L 126.51686 161.796019 
L 125.983596 162.719763 
L 122.485841 166.293365 
L 120.674324 161.796019 
L 120.6582 152.925619 
L 120.758825 144.055219 
L 121.425849 135.184819 
L 122.485841 133.948474 
L 125.954139 132.637527 
" style="fill:none;stroke:#453781;stroke-width:1.5;"/>
   </g>
   <g id="LineCollection_5">
    <path clip-path="url(#pa66272b372)" d="M 129.336109 133.46588 
L 129.481352 133.697485 
L 129.659944 135.184819 
L 132.314514 144.055219 
L 132.979107 147.455827 
L 133.013377 152.925619 
L 132.979107 155.812227 
L 130.467262 161.796019 
L 129.481352 163.546723 
L 126.237109 170.666419 
L 125.983596 171.06673 
L 122.485841 175.061026 
L 119.139343 179.536819 
L 118.988085 179.643828 
L 118.032358 179.536819 
L 115.49033 176.631428 
L 114.873242 170.666419 
L 115.373657 161.796019 
L 115.49033 160.230663 
L 116.112106 152.925619 
L 116.578485 144.055219 
L 117.908031 135.184819 
L 118.988085 133.980095 
L 122.312435 129.572722 
" style="fill:none;stroke:#404688;stroke-width:1.5;"/>
   </g>
   <g id="LineCollection_6">
    <path clip-path="url(#pa66272b372)" d="M 115.495579 134.870745 
L 118.988085 130.831655 
L 121.811843 126.314419 
L 122.485841 126.222901 
L 125.983596 126.172739 
L 126.322785 126.314419 
L 129.481352 132.575635 
L 129.79465 135.184819 
L 132.979107 143.814362 
L 132.989386 144.055219 
L 133.076006 152.925619 
L 132.979107 161.087562 
L 132.681715 161.796019 
L 129.481352 167.478978 
L 128.028926 170.666419 
L 125.983596 173.896112 
L 122.750147 179.536819 
L 122.485841 179.833186 
L 118.988085 182.472286 
L 115.49033 184.500919 
L 112.849406 179.536819 
L 111.992574 171.630137 
L 111.876765 170.666419 
L 111.968622 161.796019 
L 111.992574 161.373806 
L 112.266046 156.329273 
" style="fill:none;stroke:#39558c;stroke-width:1.5;"/>
   </g>
   <g id="LineCollection_7">
    <path clip-path="url(#pa66272b372)" d="M 108.787963 181.355789 
L 108.494819 180.682078 
L 108.426407 179.536819 
L 108.494819 171.665081 
L 108.620573 170.666419 
L 108.494819 167.842916 
L 107.605799 161.796019 
L 104.997064 157.465817 
L 104.969758 152.925619 
L 104.997064 145.792398 
L 107.143648 144.055219 
L 108.494819 143.512311 
L 111.992574 136.002844 
L 112.190817 135.184819 
L 115.49033 132.729812 
L 118.988085 127.683214 
L 119.843729 126.314419 
L 122.485841 125.955664 
L 125.983596 125.936347 
L 126.888719 126.314419 
L 129.481352 131.453785 
L 129.929357 135.184819 
L 132.979107 143.449321 
L 133.004965 144.055219 
L 133.138635 152.925619 
L 133.176447 161.796019 
L 132.979107 163.937163 
L 129.709007 170.666419 
L 129.481352 171.0386 
L 125.983596 176.725493 
L 124.372047 179.536819 
L 122.485841 181.651827 
L 118.988085 185.300744 
L 116.225502 188.407219 
L 115.498305 189.051456 
" style="fill:none;stroke:#33638d;stroke-width:1.5;"/>
   </g>
   <g id="LineCollection_8">
    <path clip-path="url(#pa66272b372)" d="M 108.166893 179.039842 
L 107.580905 170.666419 
L 104.997064 163.728935 
L 104.942133 161.796019 
L 104.862456 152.925619 
L 104.901865 144.055219 
L 104.997064 141.643518 
L 108.012658 135.184819 
L 108.494819 134.921414 
L 111.992574 134.068298 
L 115.49033 130.582808 
L 118.213761 126.314419 
L 118.988085 126.164677 
L 122.485841 125.688427 
L 125.983596 125.699955 
L 127.454654 126.314419 
L 129.481352 130.331936 
L 130.064063 135.184819 
L 132.979107 143.084281 
L 133.020543 144.055219 
L 133.201264 152.925619 
L 133.404399 161.796019 
L 132.979107 166.410462 
L 130.910913 170.666419 
L 129.481352 173.003537 
L 125.990296 179.536819 
L 125.983596 179.545473 
L 122.485841 183.470468 
L 118.988085 188.129202 
L 118.740846 188.407219 
L 115.49033 191.28691 
L 113.105049 193.565457 
" style="fill:none;stroke:#2d718e;stroke-width:1.5;"/>
   </g>
   <g id="LineCollection_9">
    <path clip-path="url(#pa66272b372)" d="M 108.98416 189.484139 
L 108.582176 188.407219 
L 108.494819 188.206454 
L 107.976937 179.536819 
L 106.630278 170.666419 
L 104.997064 166.281321 
L 104.869597 161.796019 
L 104.755155 152.925619 
L 104.800376 144.055219 
L 104.997064 139.072484 
L 106.812231 135.184819 
L 108.494819 134.26562 
L 111.992574 132.869413 
L 115.49033 128.435805 
L 116.843873 126.314419 
L 118.988085 125.899762 
L 122.485841 125.42119 
L 125.983596 125.463563 
L 128.020588 126.314419 
L 129.481352 129.210086 
L 130.19877 135.184819 
L 132.979107 142.71924 
L 133.036122 144.055219 
L 133.263893 152.925619 
L 133.632352 161.796019 
L 132.979107 168.88376 
L 132.112819 170.666419 
L 129.481352 174.968474 
L 127.040259 179.536819 
L 125.983596 180.901597 
L 122.485841 185.289108 
L 120.193616 188.407219 
L 118.988085 189.444731 
L 115.49033 193.515298 
L 115.345988 193.720088 
" style="fill:none;stroke:#287d8e;stroke-width:1.5;"/>
   </g>
   <g id="LineCollection_10">
    <path clip-path="url(#pa66272b372)" d="M 108.774259 189.595668 
L 108.494819 188.864171 
L 108.420199 188.407219 
L 107.752202 179.536819 
L 105.679651 170.666419 
L 104.997064 168.833707 
L 104.797061 161.796019 
L 104.647853 152.925619 
L 104.698888 144.055219 
L 104.997064 136.501449 
L 105.611804 135.184819 
L 108.494819 133.609825 
L 111.992574 131.670527 
L 115.481013 126.314419 
L 115.49033 126.31168 
L 118.988085 125.634848 
L 122.485841 125.153953 
L 125.983596 125.227171 
L 128.586522 126.314419 
L 129.481352 128.088236 
L 130.333477 135.184819 
L 132.979107 142.3542 
L 133.051701 144.055219 
L 133.326522 152.925619 
L 133.860305 161.796019 
L 133.133178 170.666419 
L 132.979107 171.101478 
L 129.481352 176.933411 
L 128.090222 179.536819 
L 125.983596 182.257721 
L 122.485841 187.107749 
L 121.530558 188.407219 
L 118.988085 190.59534 
L 115.49033 195.743686 
L 115.227542 196.116525 
" style="fill:none;stroke:#238a8d;stroke-width:1.5;"/>
   </g>
   <g id="LineCollection_11">
    <path clip-path="url(#pa66272b372)" d="M 108.589857 189.595668 
L 108.494819 189.346884 
L 108.341373 188.407219 
L 107.527467 179.536819 
L 104.997064 170.883125 
L 104.985151 170.666419 
L 104.724526 161.796019 
L 104.540551 152.925619 
L 104.597399 144.055219 
L 104.96142 135.184819 
L 104.997064 135.07132 
L 108.494819 132.954031 
L 111.992574 130.471641 
L 114.700178 126.314419 
L 115.49033 126.082138 
L 118.988085 125.369933 
L 122.485841 124.886716 
L 125.983596 124.990779 
L 129.152456 126.314419 
L 129.481352 126.966387 
L 130.468183 135.184819 
L 132.979107 141.989159 
L 133.067279 144.055219 
L 133.389151 152.925619 
L 134.088258 161.796019 
L 133.684931 170.666419 
L 132.979107 172.6595 
L 129.481352 178.898348 
L 129.140185 179.536819 
L 125.983596 183.613845 
L 122.747225 188.407219 
L 122.485841 188.64337 
L 118.988085 191.745949 
L 115.70326 197.277619 
L 115.49033 197.597107 
L 115.045509 197.74237 
" style="fill:none;stroke:#1f968b;stroke-width:1.5;"/>
   </g>
   <g id="LineCollection_12">
    <path clip-path="url(#pa66272b372)" d="M 108.440052 189.494219 
L 108.262546 188.407219 
L 107.302732 179.536819 
L 104.997064 171.651693 
L 104.942903 170.666419 
L 104.65199 161.796019 
L 104.433249 152.925619 
L 104.49591 144.055219 
L 104.888366 135.184819 
L 104.997064 134.838691 
L 108.494819 132.298237 
L 111.992574 129.272755 
L 113.919342 126.314419 
L 115.49033 125.852595 
L 118.988085 125.105019 
L 122.485841 124.619479 
L 125.983596 124.754387 
L 129.481352 126.298568 
L 129.487376 126.314419 
L 130.60289 135.184819 
L 132.979107 141.624119 
L 133.082858 144.055219 
L 133.451779 152.925619 
L 134.31621 161.796019 
L 134.236684 170.666419 
L 132.979107 174.217521 
L 130.05878 179.536819 
L 129.481352 180.231846 
L 125.983596 184.969969 
L 123.662848 188.407219 
L 122.485841 189.470602 
L 118.988085 192.896558 
L 116.386516 197.277619 
L 115.49033 198.622289 
L 114.804516 198.75814 
" style="fill:none;stroke:#20a386;stroke-width:1.5;"/>
   </g>
   <g id="LineCollection_13">
    <path clip-path="url(#pa66272b372)" d="M 108.327041 189.284878 
L 108.18372 188.407219 
L 107.077997 179.536819 
L 104.997064 172.420261 
L 104.900655 170.666419 
L 104.579454 161.796019 
L 104.325947 152.925619 
L 104.394422 144.055219 
L 104.815311 135.184819 
L 104.997064 134.606062 
L 108.494819 131.642443 
L 111.992574 128.07387 
L 113.138507 126.314419 
L 115.49033 125.623053 
L 118.988085 124.840104 
L 122.485841 124.352242 
L 125.983596 124.517995 
L 129.481352 126.260723 
L 129.50176 126.314419 
L 130.737596 135.184819 
L 132.979107 141.259078 
L 133.098437 144.055219 
L 133.514408 152.925619 
L 134.544163 161.796019 
L 134.788437 170.666419 
L 132.979107 175.775542 
L 130.914143 179.536819 
L 129.481352 181.261411 
L 125.983596 186.326093 
L 124.57847 188.407219 
L 122.485841 190.297834 
L 118.988085 194.047166 
L 117.069773 197.277619 
L 115.49033 199.647472 
L 114.558482 199.712337 
" style="fill:none;stroke:#29af7f;stroke-width:1.5;"/>
   </g>
   <g id="LineCollection_14">
    <path clip-path="url(#pa66272b372)" d="M 108.214029 189.075538 
L 108.104893 188.407219 
L 106.853262 179.536819 
L 104.997064 173.188829 
L 104.858407 170.666419 
L 104.506919 161.796019 
L 104.218646 152.925619 
L 104.292933 144.055219 
L 104.742257 135.184819 
L 104.997064 134.373434 
L 108.494819 130.986649 
L 111.992574 126.874984 
L 112.357671 126.314419 
L 115.49033 125.393511 
L 118.988085 124.575189 
L 122.485841 124.085005 
L 125.983596 124.281603 
L 129.481352 126.222878 
L 129.516144 126.314419 
L 130.872303 135.184819 
L 132.979107 140.894038 
L 133.114015 144.055219 
L 133.577037 152.925619 
L 134.772116 161.796019 
L 135.34019 170.666419 
L 132.979107 177.333563 
L 131.769506 179.536819 
L 129.481352 182.290977 
L 125.983596 187.682217 
L 125.494092 188.407219 
L 122.485841 191.125066 
L 118.988085 195.197775 
L 117.753029 197.277619 
L 115.49033 200.672655 
L 114.308416 200.603077 
" style="fill:none;stroke:#3dbc74;stroke-width:1.5;"/>
   </g>
   <g id="LineCollection_15">
    <path clip-path="url(#pa66272b372)" d="M 108.101018 188.866197 
L 108.026067 188.407219 
L 106.628528 179.536819 
L 104.997064 173.957397 
L 104.816159 170.666419 
L 104.434383 161.796019 
L 104.111344 152.925619 
L 104.191445 144.055219 
L 104.669203 135.184819 
L 104.997064 134.140805 
L 108.494819 130.330854 
L 111.712822 126.314419 
L 111.992574 126.242843 
L 115.49033 125.163969 
L 118.988085 124.310275 
L 122.485841 123.817768 
L 125.983596 124.045211 
L 129.481352 126.185034 
L 129.530528 126.314419 
L 131.007009 135.184819 
L 132.979107 140.528997 
L 133.129594 144.055219 
L 133.639666 152.925619 
L 135.000069 161.796019 
L 135.891943 170.666419 
L 132.979107 178.891584 
L 132.624869 179.536819 
L 129.481352 183.320542 
L 126.284708 188.407219 
L 125.983596 188.699874 
L 122.485841 191.952298 
L 118.988085 196.348384 
L 118.436286 197.277619 
L 115.49033 201.697837 
L 114.055383 201.429005 
" style="fill:none;stroke:#56c667;stroke-width:1.5;"/>
   </g>
   <g id="LineCollection_16">
    <path clip-path="url(#pa66272b372)" d="M 107.988006 188.656856 
L 107.947241 188.407219 
L 106.403793 179.536819 
L 104.997064 174.725965 
L 104.773911 170.666419 
L 104.361847 161.796019 
L 104.004042 152.925619 
L 104.089956 144.055219 
L 104.596148 135.184819 
L 104.997064 133.908177 
L 108.494819 129.67506 
L 111.187394 126.314419 
L 111.992574 126.108411 
L 115.49033 124.934426 
L 118.988085 124.04536 
L 122.485841 123.550531 
L 125.983596 123.80882 
L 129.481352 126.147189 
L 129.544912 126.314419 
L 131.141716 135.184819 
L 132.979107 140.163956 
L 133.145173 144.055219 
L 133.702295 152.925619 
L 135.228021 161.796019 
L 136.443696 170.666419 
L 133.306086 179.536819 
L 132.979107 179.972521 
L 129.481352 184.350108 
L 126.931723 188.407219 
L 125.983596 189.328717 
L 122.485841 192.77953 
L 119.107618 197.277619 
L 118.988085 197.375112 
L 115.49033 202.72302 
L 113.800482 202.189325 
" style="fill:none;stroke:#75d054;stroke-width:1.5;"/>
   </g>
   <g id="LineCollection_17">
    <path clip-path="url(#pa66272b372)" d="M 112.051852 125.952471 
L 115.49033 124.704884 
L 118.988085 123.780446 
L 122.485841 123.283294 
L 125.983596 123.572428 
L 129.481352 126.109344 
L 129.559296 126.314419 
L 131.276422 135.184819 
L 132.979107 139.798916 
L 133.160751 144.055219 
L 133.764924 152.925619 
L 135.455974 161.796019 
L 136.476863 169.127738 
L 136.502871 170.666419 
L 136.476863 172.149608 
L 133.8642 179.536819 
L 132.979107 180.716214 
L 129.481352 185.379674 
L 127.578737 188.407219 
L 125.983596 189.957559 
L 122.485841 193.606762 
L 119.728898 197.277619 
L 118.988085 197.881841 
L 115.49033 203.748203 
L 111.992574 202.194144 
L 110.418041 197.277619 
L 108.494819 192.243157 
L 107.868414 188.407219 
L 106.179058 179.536819 
L 104.997064 175.494533 
L 104.731663 170.666419 
L 104.289312 161.796019 
L 103.89674 152.925619 
L 103.988468 144.055219 
L 104.523094 135.184819 
L 104.997064 133.675548 
L 105.046938 133.609155 
" style="fill:none;stroke:#95d840;stroke-width:1.5;"/>
   </g>
   <g id="LineCollection_18">
    <path clip-path="url(#pa66272b372)" d="M 111.87813 202.412588 
L 110.233639 197.277619 
L 108.494819 192.725869 
L 107.789588 188.407219 
L 105.954323 179.536819 
L 104.997064 176.263101 
L 104.689415 170.666419 
L 104.216776 161.796019 
L 103.789438 152.925619 
L 103.886979 144.055219 
L 104.450039 135.184819 
L 104.997064 133.44292 
L 108.494819 128.363472 
L 110.136538 126.314419 
L 111.992574 125.839547 
L 115.49033 124.475342 
L 118.988085 123.515531 
L 122.485841 123.016057 
L 125.983596 123.336036 
L 129.481352 126.0715 
L 129.57368 126.314419 
L 131.411129 135.184819 
L 132.979107 139.433875 
L 133.17633 144.055219 
L 133.827553 152.925619 
L 135.683927 161.796019 
L 136.476863 167.490648 
L 136.530542 170.666419 
L 136.476863 173.727657 
L 134.422314 179.536819 
L 132.979107 181.459908 
L 129.481352 186.409239 
L 128.225752 188.407219 
L 125.983596 190.586402 
L 122.485841 194.433994 
L 120.350178 197.277619 
L 118.988085 198.38857 
L 118.752923 198.817836 
" style="fill:none;stroke:#bade28;stroke-width:1.5;"/>
   </g>
   <g id="LineCollection_19">
    <path clip-path="url(#pa66272b372)" d="M 111.896028 203.044272 
L 110.049238 197.277619 
L 108.494819 193.208581 
L 107.710761 188.407219 
L 105.729588 179.536819 
L 104.997064 177.031669 
L 104.647167 170.666419 
L 104.144241 161.796019 
L 103.682137 152.925619 
L 103.785491 144.055219 
L 104.376985 135.184819 
L 104.997064 133.210291 
L 108.494819 127.707678 
L 109.61111 126.314419 
L 111.992574 125.705115 
L 115.49033 124.2458 
L 118.988085 123.250617 
L 122.485841 122.74882 
L 125.983596 123.099644 
L 129.481352 126.033655 
L 129.588063 126.314419 
L 131.545835 135.184819 
L 132.979107 139.068835 
L 133.191909 144.055219 
L 133.890182 152.925619 
L 135.91188 161.796019 
L 136.476863 165.853559 
L 136.558214 170.666419 
L 136.476863 175.305706 
L 134.980429 179.536819 
L 132.979107 182.203601 
L 129.481352 187.438805 
L 128.872767 188.407219 
L 125.983596 191.215245 
L 122.485841 195.261226 
L 120.971459 197.277619 
L 118.988085 198.895299 
L 118.693024 199.47764 
" style="fill:none;stroke:#dde318;stroke-width:1.5;"/>
   </g>
   <g id="LineCollection_20">
    <path clip-path="url(#pa66272b372)" d="M 118.108109 201.183235 
L 115.655338 206.148019 
L 115.49033 206.43645 
L 114.980931 206.148019 
L 111.992574 203.92154 
L 109.864836 197.277619 
L 108.494819 193.691293 
L 107.631935 188.407219 
L 105.504853 179.536819 
L 104.997064 177.800236 
L 104.604919 170.666419 
L 104.071705 161.796019 
L 103.574835 152.925619 
L 103.684002 144.055219 
L 104.30393 135.184819 
L 104.997064 132.977663 
L 108.494819 127.051883 
L 109.085682 126.314419 
L 111.992574 125.570683 
L 115.49033 124.016257 
L 118.988085 122.985702 
L 122.485841 122.481583 
L 125.983596 122.863252 
L 129.481352 125.995811 
L 129.602447 126.314419 
L 131.680542 135.184819 
L 132.979107 138.703794 
L 133.207487 144.055219 
L 133.952811 152.925619 
L 136.139832 161.796019 
L 136.476863 164.216469 
L 136.585886 170.666419 
L 136.476863 176.883755 
L 135.538543 179.536819 
L 132.979107 182.947294 
L 129.509422 188.407219 
L 129.481352 188.433809 
L 125.983596 191.844088 
L 125.069751 192.952998 
" style="fill:none;stroke:#fde725;stroke-width:1.5;"/>
   </g>
   <g id="LineCollection_21">
    <path clip-path="url(#pa66272b372)" d="M 110.546017 199.980425 
L 109.680435 197.277619 
L 108.494819 194.174005 
L 107.553109 188.407219 
L 105.280118 179.536819 
L 104.997064 178.568804 
L 104.562671 170.666419 
L 103.999169 161.796019 
L 103.467533 152.925619 
L 103.582514 144.055219 
L 104.230876 135.184819 
L 104.997064 132.745034 
L 108.494819 126.396089 
L 108.560254 126.314419 
L 111.992574 125.43625 
L 115.49033 123.786715 
L 118.988085 122.720788 
L 122.485841 122.214346 
L 125.983596 122.62686 
L 129.481352 125.957966 
L 129.616831 126.314419 
L 131.815248 135.184819 
L 132.979107 138.338754 
L 133.223066 144.055219 
L 134.01544 152.925619 
L 136.367785 161.796019 
L 136.476863 162.57938 
L 136.613558 170.666419 
L 136.476863 178.461803 
L 136.096658 179.536819 
L 132.979107 183.690988 
L 129.982026 188.407219 
L 129.481352 188.881494 
L 125.983596 192.47293 
L 122.485841 196.915689 
L 122.214019 197.277619 
L 118.988085 199.908757 
L 118.023743 201.860734 
" style="fill:none;stroke:#440154;stroke-width:1.5;"/>
   </g>
   <g id="LineCollection_22">
    <path clip-path="url(#pa66272b372)" d="M 107.716577 119.461599 
L 108.494819 118.012714 
L 108.819193 117.444019 
L 111.992574 116.700622 
L 115.49033 115.874152 
L 118.988085 115.712701 
L 122.485841 116.024668 
L 125.983596 116.521542 
L 128.706663 117.444019 
L 129.481352 119.145931 
L 132.205928 126.314419 
L 132.979107 128.432518 
L 133.621606 135.184819 
L 136.027225 144.055219 
L 136.476863 145.565125 
L 137.025762 152.925619 
L 138.567043 161.796019 
L 139.974618 167.772536 
L 140.118879 170.666419 
L 140.470462 179.536819 
L 140.602897 188.407219 
L 140.186554 197.277619 
L 139.974618 198.523285 
L 136.476863 204.603407 
L 135.498307 206.148019 
L 132.979107 208.331596 
L 129.481352 213.065993 
L 128.098385 215.018419 
L 125.983596 216.643833 
L 122.485841 219.543011 
L 119.884874 223.888819 
L 118.988085 224.962025 
L 115.49033 225.29594 
L 114.526326 223.888819 
L 111.992574 218.263547 
L 110.285157 215.018419 
L 108.494819 210.474983 
L 107.133539 206.148019 
L 104.997064 199.751775 
L 104.568289 197.277619 
L 102.881975 188.407219 
L 101.499308 182.311655 
L 101.310507 179.536819 
L 100.74155 170.666419 
L 100.056835 161.796019 
L 99.859817 152.925619 
L 100.478135 144.055219 
L 100.771594 138.829064 
" style="fill:none;stroke:#440154;stroke-width:1.5;"/>
   </g>
   <g id="LineCollection_23">
    <path clip-path="url(#pa66272b372)" d="M 117.481104 241.860386 
L 117.261893 241.629619 
L 115.49033 238.423473 
L 111.992574 232.930482 
L 111.810201 232.759219 
L 108.494819 225.85061 
L 107.393361 223.888819 
L 104.997064 217.904422 
L 104.294178 215.018419 
L 101.499308 206.657283 
L 101.421163 206.148019 
L 100.153081 197.277619 
L 98.001553 189.143178 
L 97.945391 188.407219 
L 97.413389 179.536819 
L 96.566683 170.666419 
L 95.549748 161.796019 
L 95.874406 152.925619 
L 96.908846 144.055219 
L 97.626432 135.184819 
L 98.001553 129.801835 
L 98.995549 126.314419 
L 101.499308 120.895743 
L 103.11524 117.444019 
L 104.997064 115.634942 
L 108.494819 111.612302 
L 110.79962 108.573619 
L 111.992574 108.280509 
L 115.49033 107.805544 
L 118.988085 107.828298 
L 122.485841 108.056746 
L 125.983596 108.400745 
L 126.371281 108.573619 
L 129.481352 114.48948 
L 131.627746 117.444019 
L 132.979107 120.881662 
L 134.49698 126.314419 
L 136.476863 132.407065 
L 136.69024 135.184819 
L 138.290309 144.055219 
L 139.974618 149.481462 
L 140.22513 152.925619 
L 141.494617 161.796019 
L 143.472373 169.181614 
L 143.542191 170.666419 
L 143.876341 179.536819 
L 144.135603 188.407219 
L 144.078328 197.277619 
L 143.729721 206.148019 
L 143.472373 209.017861 
L 140.939458 215.018419 
L 139.974618 216.166857 
L 136.476863 221.356169 
L 135.026948 223.888819 
L 132.979107 225.853243 
L 129.481352 232.157468 
L 129.093447 232.759219 
L 127.516295 234.069198 
" style="fill:none;stroke:#440154;stroke-width:1.5;"/>
   </g>
   <g id="LineCollection_24">
    <path clip-path="url(#pa66272b372)" d="M 116.916427 253.910809 
L 115.49033 251.59383 
L 115.117594 250.500019 
L 111.992574 242.997635 
L 110.475206 241.629619 
L 108.494819 237.570751 
L 105.00144 232.759219 
L 104.997064 232.748898 
L 102.02342 223.888819 
L 101.499308 222.430856 
L 99.850592 215.018419 
L 98.001553 209.2276 
L 97.55312 206.148019 
L 95.799495 197.277619 
L 94.503797 191.943715 
L 94.279433 188.407219 
L 93.66035 179.536819 
L 92.683225 170.666419 
L 91.526644 161.796019 
L 91.958547 152.925619 
L 93.004611 144.055219 
L 94.000204 135.184819 
L 94.503797 128.921347 
L 95.167481 126.314419 
L 97.597266 117.444019 
L 98.001553 116.287643 
L 101.417518 108.573619 
L 101.499308 108.475868 
L 104.997064 105.82524 
L 108.494819 101.855925 
L 110.538594 99.703219 
L 111.992574 99.444014 
L 115.49033 99.229269 
L 118.988085 99.347907 
L 122.485841 99.566575 
L 123.876688 99.703219 
L 125.983596 101.297118 
L 129.481352 106.874376 
L 130.859426 108.573619 
L 132.979107 113.61862 
L 135.206561 117.444019 
L 136.476863 120.814537 
L 137.026526 126.314419 
L 139.974618 134.977767 
L 139.989337 135.184819 
L 140.742539 144.055219 
L 143.472373 152.292899 
L 143.516611 152.925619 
L 144.210845 161.796019 
L 146.403373 170.666419 
L 146.970129 173.159682 
L 147.126813 179.536819 
L 147.370754 188.407219 
L 147.394714 197.277619 
L 147.201339 206.148019 
L 146.970129 214.787607 
L 146.91923 215.018419 
L 144.05158 223.888819 
L 143.472373 225.292188 
L 139.974618 230.268127 
L 138.684385 232.759219 
L 136.476863 235.04737 
L 133.140976 241.629619 
L 132.979107 241.816606 
L 129.481352 247.735343 
L 127.878546 250.500019 
L 127.76284 250.608841 
" style="fill:none;stroke:#440154;stroke-width:1.5;"/>
   </g>
   <g id="LineCollection_25">
    <path clip-path="url(#pa66272b372)" d="M 119.889114 269.629973 
L 118.988085 269.043582 
L 117.624137 268.240819 
L 115.49033 264.145903 
L 114.67903 259.370419 
L 111.992574 252.461187 
L 110.064869 250.500019 
L 108.494819 247.116121 
L 104.997064 242.062198 
L 104.809044 241.629619 
L 101.499308 233.340389 
L 101.314257 232.759219 
L 98.001553 223.936876 
L 97.987624 223.888819 
L 95.687766 215.018419 
L 94.503797 211.393278 
L 93.579666 206.148019 
L 91.385264 197.277619 
L 91.006042 195.610523 
L 90.565993 188.407219 
L 89.83643 179.536819 
L 88.910927 170.666419 
L 88.604311 161.796019 
L 88.857773 152.925619 
L 89.372067 144.055219 
L 90.242803 135.184819 
L 90.940071 126.314419 
L 91.006042 125.671276 
L 93.461719 117.444019 
L 94.503797 113.267271 
L 96.305557 108.573619 
L 98.001553 105.092644 
L 100.554353 99.703219 
L 101.499308 98.873368 
L 104.997064 95.990915 
L 108.494819 91.995215 
L 109.689672 90.832819 
L 111.992574 90.516677 
L 115.49033 90.402651 
L 118.988085 90.53948 
L 122.485841 90.78114 
L 122.819799 90.832819 
L 125.983596 93.852872 
L 129.481352 98.735877 
L 130.307149 99.703219 
L 132.979107 105.993931 
L 134.516867 108.573619 
L 136.476863 113.374963 
L 137.366057 117.444019 
L 139.974618 124.889183 
L 140.065803 126.314419 
L 141.303918 135.184819 
L 143.472373 141.474011 
L 143.685821 144.055219 
L 145.299772 152.925619 
L 146.970129 158.091639 
L 147.162639 161.796019 
L 148.033696 170.666419 
L 150.219366 179.536819 
L 150.467884 180.832783 
L 150.558632 188.407219 
L 150.619138 197.277619 
L 150.545781 206.148019 
L 150.467884 209.574592 
L 149.382139 215.018419 
L 147.808332 223.888819 
L 146.970129 232.151431 
L 146.727408 232.759219 
L 143.472373 238.651929 
L 141.826704 241.629619 
L 139.974618 243.239152 
L 136.476863 249.394362 
L 135.934219 250.500019 
L 132.979107 254.235023 
L 131.581358 257.517992 
" style="fill:none;stroke:#440154;stroke-width:1.5;"/>
   </g>
   <g id="LineCollection_26">
    <path clip-path="url(#pa66272b372)" d="M 115.463864 277.111219 
L 114.418344 268.240819 
L 111.992574 261.695039 
L 108.662327 259.370419 
L 108.494819 259.028217 
L 104.997064 252.01496 
L 104.405641 250.500019 
L 101.499308 243.233911 
L 100.96384 241.629619 
L 98.001553 233.898348 
L 97.630301 232.759219 
L 94.503797 224.474647 
L 94.327342 223.888819 
L 91.188829 215.018419 
L 91.006042 214.47929 
L 89.159062 206.148019 
L 87.508286 199.522411 
L 87.323597 197.277619 
L 86.632811 188.407219 
L 85.681508 179.536819 
L 85.259973 170.666419 
L 85.511262 161.796019 
L 85.917485 152.925619 
L 86.299692 144.055219 
L 86.631148 137.882646 
" style="fill:none;stroke:#450457;stroke-width:1.5;"/>
    <path clip-path="url(#pa66272b372)" d="M 94.055176 100.788043 
L 94.4844 99.703219 
L 94.503797 99.660706 
L 98.001553 92.911574 
L 99.097385 90.832819 
L 101.499308 89.392368 
L 104.997064 86.256978 
L 108.494819 82.382414 
L 109.092898 81.962419 
L 111.992574 81.708797 
L 115.49033 81.655713 
L 118.988085 81.727557 
L 122.485841 81.888375 
L 122.827438 81.962419 
L 125.983596 86.128499 
L 129.481352 90.373404 
L 129.870615 90.832819 
L 132.979107 98.140556 
L 133.946078 99.703219 
L 136.476863 105.899185 
L 137.240692 108.573619 
L 139.974618 115.80186 
L 140.162545 117.444019 
L 141.781335 126.314419 
L 143.472373 131.116651 
L 143.881536 135.184819 
L 146.838645 144.055219 
L 146.970129 144.445426 
L 147.516826 152.925619 
L 150.028636 161.796019 
L 150.467884 163.259534 
L 150.698022 170.666419 
L 151.30289 179.536819 
L 152.490759 188.407219 
L 153.569432 197.277619 
L 153.298762 206.148019 
L 151.92372 215.018419 
L 150.907687 223.888819 
L 150.467884 232.525651 
L 150.398447 232.759219 
L 147.413797 241.629619 
L 146.970129 243.583224 
L 143.995475 250.500019 
L 143.472373 251.36596 
L 139.974618 256.108862 
L 138.336441 259.370419 
L 136.476863 261.341745 
L 133.357451 268.240819 
L 132.979107 268.79712 
L 129.481352 276.182886 
L 128.981102 277.111219 
" style="fill:none;stroke:#450457;stroke-width:1.5;"/>
   </g>
   <g id="LineCollection_27">
    <path clip-path="url(#pa66272b372)" d="M 114.022589 277.111219 
L 111.992574 271.423753 
L 111.840283 271.304052 
" style="fill:none;stroke:#482475;stroke-width:1.5;"/>
    <path clip-path="url(#pa66272b372)" d="M 99.18261 246.88669 
L 98.001553 243.827949 
L 97.258757 241.629619 
L 94.503797 234.470059 
L 93.898623 232.759219 
L 91.006042 225.134901 
L 90.613856 223.888819 
L 87.508286 215.572193 
L 87.348683 215.018419 
L 84.010531 206.170644 
L 84.003775 206.148019 
L 83.262422 197.277619 
L 82.173701 188.407219 
L 81.311024 179.536819 
L 81.522779 170.666419 
L 82.033993 161.796019 
L 82.614221 152.925619 
L 83.126251 144.055219 
L 83.49083 135.184819 
L 83.823957 126.314419 
L 84.010531 122.555267 
L 85.291047 117.444019 
L 87.104751 108.573619 
L 87.508286 106.776169 
L 90.148821 99.703219 
L 91.006042 97.929994 
L 93.880223 90.832819 
L 94.503797 89.561133 
L 97.905181 81.962419 
L 98.001553 81.866919 
L 101.499308 80.046094 
L 104.997064 76.624867 
L 108.341526 73.092019 
L 108.494819 73.065083 
L 111.992574 72.887812 
L 115.49033 72.911225 
L 118.988085 73.009956 
L 120.887378 73.092019 
L 122.485841 73.752806 
L 125.983596 78.880765 
L 129.481352 81.863644 
L 129.568939 81.962419 
L 132.979107 90.001011 
L 133.469747 90.832819 
L 136.476863 98.194487 
L 136.995837 99.703219 
L 139.974618 107.41915 
L 140.196627 108.573619 
L 142.764179 117.444019 
L 143.472373 119.5014 
L 144.103699 126.314419 
L 146.970129 134.450011 
L 147.028061 135.184819 
L 148.014337 144.055219 
L 150.467884 151.336252 
L 150.561741 152.925619 
L 151.299965 161.796019 
L 153.665008 170.666419 
L 153.96564 171.811386 
L 154.115177 179.536819 
L 154.42715 188.407219 
L 154.814654 197.277619 
L 155.076999 206.148019 
L 154.763788 215.018419 
L 154.160876 223.888819 
L 153.96564 227.152517 
L 152.378928 232.759219 
L 150.78945 241.629619 
L 150.467884 244.28642 
L 148.213397 250.500019 
L 146.970129 255.497258 
L 145.303114 259.370419 
L 143.472373 262.248212 
L 140.484571 268.240819 
L 139.974618 268.695515 
L 136.476863 273.15112 
L 134.739125 277.111219 
" style="fill:none;stroke:#482475;stroke-width:1.5;"/>
   </g>
   <g id="LineCollection_28">
    <path clip-path="url(#pa66272b372)" d="M 107.052847 277.111219 
L 104.997064 273.233686 
L 103.034517 268.240819 
L 101.499308 264.337409 
L 99.98447 259.370419 
L 98.001553 254.176801 
L 96.806702 250.500019 
L 94.503797 244.542451 
L 93.78981 242.50677 
" style="fill:none;stroke:#fde725;stroke-width:1.5;"/>
    <path clip-path="url(#pa66272b372)" d="M 81.358493 209.011853 
L 80.512776 206.785459 
L 80.360952 206.148019 
L 78.918711 197.277619 
L 77.701786 188.407219 
L 77.361952 179.536819 
L 77.722333 170.666419 
L 78.284657 161.796019 
L 79.077218 152.925619 
L 79.712118 144.055219 
L 80.139547 135.184819 
L 80.389741 126.314419 
L 80.512776 122.386134 
L 81.558504 117.444019 
L 83.21234 108.573619 
L 84.010531 102.678995 
L 85.024278 99.703219 
L 87.508286 93.733155 
L 88.700448 90.832819 
L 91.006042 86.644027 
L 92.927185 81.962419 
L 94.503797 79.189529 
L 97.501244 73.092019 
L 98.001553 72.738243 
L 101.499308 70.790786 
L 104.997064 67.176059 
L 107.94964 64.221619 
L 108.494819 64.135859 
L 111.992574 64.044402 
L 115.49033 64.14488 
L 118.062641 64.221619 
L 118.988085 64.506734 
L 122.485841 66.72271 
L 125.983596 71.574635 
L 128.354169 73.092019 
L 129.481352 75.569792 
L 132.979107 81.642975 
L 133.18073 81.962419 
L 136.476863 90.053495 
L 136.759634 90.832819 
L 139.974618 99.060308 
L 140.131536 99.703219 
L 143.451658 108.573619 
L 143.472373 108.631272 
L 144.408299 117.444019 
L 146.970129 124.703828 
L 147.097361 126.314419 
L 148.595235 135.184819 
L 150.467884 140.590116 
L 150.722963 144.055219 
L 152.399307 152.925619 
L 153.96564 157.845183 
L 154.139623 161.796019 
L 154.7797 170.666419 
L 156.302435 179.536819 
L 157.463395 184.637247 
L 157.519715 188.407219 
L 157.628788 197.277619 
L 157.738593 206.148019 
L 157.746364 215.018419 
L 157.513884 223.888819 
L 157.463395 224.634725 
L 155.063377 232.759219 
L 154.084253 241.629619 
L 153.96564 242.896703 
L 151.418086 250.500019 
L 150.467884 256.690055 
L 149.478797 259.370419 
L 146.984454 268.240819 
L 146.970129 268.284051 
L 143.472373 273.301292 
L 141.580696 277.111219 
" style="fill:none;stroke:#fde725;stroke-width:1.5;"/>
   </g>
   <g id="line2d_16">
    <path clip-path="url(#pa66272b372)" d="M 396.142773 107.501091 
L 354.538105 126.339768 
L 319.527407 143.64441 
L 290.043582 159.2856 
L 265.319336 173.821384 
L 244.476213 186.595805 
L 226.983419 197.926735 
L 212.316687 207.82211 
L 200.026896 215.99516 
L 189.715573 222.581469 
L 181.055011 228.202382 
L 173.812914 232.656402 
L 167.668856 236.056641 
L 162.4791 238.663969 
L 158.134699 240.280929 
L 154.42706 241.487711 
L 151.285099 242.129074 
L 148.646633 242.288794 
L 146.289704 241.866021 
L 144.285704 241.124622 
L 142.499167 239.866734 
L 140.892455 238.575436 
L 139.528033 236.749973 
L 138.28084 234.817597 
L 137.118126 232.811648 
L 136.122139 230.515155 
L 135.199681 227.992471 
L 134.333178 225.620084 
L 133.577875 223.004927 
L 132.797621 220.216447 
L 132.125363 217.49281 
L 131.457967 214.716767 
L 130.88421 211.810716 
L 130.345085 208.874528 
L 129.835632 206.072389 
L 129.329878 203.253595 
L 128.938884 200.230747 
L 128.511611 197.341369 
L 128.132096 194.373674 
L 127.7719 191.515243 
L 127.403665 188.544442 
L 127.080933 185.686122 
L 126.748708 183.006446 
L 126.466796 180.266814 
L 126.106022 177.412624 
L 125.818947 174.507972 
L 125.535106 171.432203 
L 125.180588 168.273673 
L 124.827898 164.605797 
L 124.495888 160.635908 
L 124.56312 159.676111 
L 124.632164 158.770994 
L 124.694846 157.958357 
L 124.759113 157.171495 
L 124.818958 156.441928 
L 124.876162 155.676247 
L 124.933936 154.997564 
L 124.990747 154.324503 
L 125.038272 153.663155 
L 125.082155 153.03011 
L 125.129841 152.420776 
L 125.165227 151.803156 
L 125.206546 151.189132 
L 125.235848 150.640191 
L 125.27632 150.06302 
L 125.302128 149.521969 
L 125.321016 148.979834 
L 125.352067 148.447595 
L 125.370058 147.928347 
L 125.392507 147.426426 
L 125.410513 146.924216 
L 125.424868 146.442156 
L 125.439683 145.94226 
L 125.450231 145.419416 
L 125.452469 144.895815 
L 125.468416 144.794206 
L 125.487697 144.694628 
L 125.506382 144.608071 
L 125.526378 144.534319 
L 125.546435 144.470321 
L 125.568275 144.416378 
L 125.588829 144.368296 
L 125.609779 144.327086 
L 125.630646 144.282626 
L 125.652525 144.242695 
L 125.673732 144.209617 
L 125.696147 144.18346 
L 125.717888 144.161778 
L 125.738195 144.14587 
L 125.760301 144.124378 
L 125.782067 144.102451 
L 125.803966 144.091519 
L 125.824915 144.078434 
L 125.84786 144.071165 
L 125.870638 144.060202 
L 125.892871 144.056794 
L 125.914984 144.058213 
L 125.938095 144.057109 
L 125.960868 144.058631 
" style="fill:none;stroke:#1f77b4;stroke-linecap:square;stroke-width:1.5;"/>
    <defs>
     <path d="M 0 1.5 
C 0.397805 1.5 0.77937 1.341951 1.06066 1.06066 
C 1.341951 0.77937 1.5 0.397805 1.5 0 
C 1.5 -0.397805 1.341951 -0.77937 1.06066 -1.06066 
C 0.77937 -1.341951 0.397805 -1.5 0 -1.5 
C -0.397805 -1.5 -0.77937 -1.341951 -1.06066 -1.06066 
C -1.341951 -0.77937 -1.5 -0.397805 -1.5 0 
C -1.5 0.397805 -1.341951 0.77937 -1.06066 1.06066 
C -0.77937 1.341951 -0.397805 1.5 0 1.5 
z
" id="m6222e2e34f" style="stroke:#1f77b4;"/>
    </defs>
    <g clip-path="url(#pa66272b372)">
     <use style="fill:#1f77b4;stroke:#1f77b4;" x="396.142773" xlink:href="#m6222e2e34f" y="107.501091"/>
     <use style="fill:#1f77b4;stroke:#1f77b4;" x="354.538105" xlink:href="#m6222e2e34f" y="126.339768"/>
     <use style="fill:#1f77b4;stroke:#1f77b4;" x="319.527407" xlink:href="#m6222e2e34f" y="143.64441"/>
     <use style="fill:#1f77b4;stroke:#1f77b4;" x="290.043582" xlink:href="#m6222e2e34f" y="159.2856"/>
     <use style="fill:#1f77b4;stroke:#1f77b4;" x="265.319336" xlink:href="#m6222e2e34f" y="173.821384"/>
     <use style="fill:#1f77b4;stroke:#1f77b4;" x="244.476213" xlink:href="#m6222e2e34f" y="186.595805"/>
     <use style="fill:#1f77b4;stroke:#1f77b4;" x="226.983419" xlink:href="#m6222e2e34f" y="197.926735"/>
     <use style="fill:#1f77b4;stroke:#1f77b4;" x="212.316687" xlink:href="#m6222e2e34f" y="207.82211"/>
     <use style="fill:#1f77b4;stroke:#1f77b4;" x="200.026896" xlink:href="#m6222e2e34f" y="215.99516"/>
     <use style="fill:#1f77b4;stroke:#1f77b4;" x="189.715573" xlink:href="#m6222e2e34f" y="222.581469"/>
     <use style="fill:#1f77b4;stroke:#1f77b4;" x="181.055011" xlink:href="#m6222e2e34f" y="228.202382"/>
     <use style="fill:#1f77b4;stroke:#1f77b4;" x="173.812914" xlink:href="#m6222e2e34f" y="232.656402"/>
     <use style="fill:#1f77b4;stroke:#1f77b4;" x="167.668856" xlink:href="#m6222e2e34f" y="236.056641"/>
     <use style="fill:#1f77b4;stroke:#1f77b4;" x="162.4791" xlink:href="#m6222e2e34f" y="238.663969"/>
     <use style="fill:#1f77b4;stroke:#1f77b4;" x="158.134699" xlink:href="#m6222e2e34f" y="240.280929"/>
     <use style="fill:#1f77b4;stroke:#1f77b4;" x="154.42706" xlink:href="#m6222e2e34f" y="241.487711"/>
     <use style="fill:#1f77b4;stroke:#1f77b4;" x="151.285099" xlink:href="#m6222e2e34f" y="242.129074"/>
     <use style="fill:#1f77b4;stroke:#1f77b4;" x="148.646633" xlink:href="#m6222e2e34f" y="242.288794"/>
     <use style="fill:#1f77b4;stroke:#1f77b4;" x="146.289704" xlink:href="#m6222e2e34f" y="241.866021"/>
     <use style="fill:#1f77b4;stroke:#1f77b4;" x="144.285704" xlink:href="#m6222e2e34f" y="241.124622"/>
     <use style="fill:#1f77b4;stroke:#1f77b4;" x="142.499167" xlink:href="#m6222e2e34f" y="239.866734"/>
     <use style="fill:#1f77b4;stroke:#1f77b4;" x="140.892455" xlink:href="#m6222e2e34f" y="238.575436"/>
     <use style="fill:#1f77b4;stroke:#1f77b4;" x="139.528033" xlink:href="#m6222e2e34f" y="236.749973"/>
     <use style="fill:#1f77b4;stroke:#1f77b4;" x="138.28084" xlink:href="#m6222e2e34f" y="234.817597"/>
     <use style="fill:#1f77b4;stroke:#1f77b4;" x="137.118126" xlink:href="#m6222e2e34f" y="232.811648"/>
     <use style="fill:#1f77b4;stroke:#1f77b4;" x="136.122139" xlink:href="#m6222e2e34f" y="230.515155"/>
     <use style="fill:#1f77b4;stroke:#1f77b4;" x="135.199681" xlink:href="#m6222e2e34f" y="227.992471"/>
     <use style="fill:#1f77b4;stroke:#1f77b4;" x="134.333178" xlink:href="#m6222e2e34f" y="225.620084"/>
     <use style="fill:#1f77b4;stroke:#1f77b4;" x="133.577875" xlink:href="#m6222e2e34f" y="223.004927"/>
     <use style="fill:#1f77b4;stroke:#1f77b4;" x="132.797621" xlink:href="#m6222e2e34f" y="220.216447"/>
     <use style="fill:#1f77b4;stroke:#1f77b4;" x="132.125363" xlink:href="#m6222e2e34f" y="217.49281"/>
     <use style="fill:#1f77b4;stroke:#1f77b4;" x="131.457967" xlink:href="#m6222e2e34f" y="214.716767"/>
     <use style="fill:#1f77b4;stroke:#1f77b4;" x="130.88421" xlink:href="#m6222e2e34f" y="211.810716"/>
     <use style="fill:#1f77b4;stroke:#1f77b4;" x="130.345085" xlink:href="#m6222e2e34f" y="208.874528"/>
     <use style="fill:#1f77b4;stroke:#1f77b4;" x="129.835632" xlink:href="#m6222e2e34f" y="206.072389"/>
     <use style="fill:#1f77b4;stroke:#1f77b4;" x="129.329878" xlink:href="#m6222e2e34f" y="203.253595"/>
     <use style="fill:#1f77b4;stroke:#1f77b4;" x="128.938884" xlink:href="#m6222e2e34f" y="200.230747"/>
     <use style="fill:#1f77b4;stroke:#1f77b4;" x="128.511611" xlink:href="#m6222e2e34f" y="197.341369"/>
     <use style="fill:#1f77b4;stroke:#1f77b4;" x="128.132096" xlink:href="#m6222e2e34f" y="194.373674"/>
     <use style="fill:#1f77b4;stroke:#1f77b4;" x="127.7719" xlink:href="#m6222e2e34f" y="191.515243"/>
     <use style="fill:#1f77b4;stroke:#1f77b4;" x="127.403665" xlink:href="#m6222e2e34f" y="188.544442"/>
     <use style="fill:#1f77b4;stroke:#1f77b4;" x="127.080933" xlink:href="#m6222e2e34f" y="185.686122"/>
     <use style="fill:#1f77b4;stroke:#1f77b4;" x="126.748708" xlink:href="#m6222e2e34f" y="183.006446"/>
     <use style="fill:#1f77b4;stroke:#1f77b4;" x="126.466796" xlink:href="#m6222e2e34f" y="180.266814"/>
     <use style="fill:#1f77b4;stroke:#1f77b4;" x="126.106022" xlink:href="#m6222e2e34f" y="177.412624"/>
     <use style="fill:#1f77b4;stroke:#1f77b4;" x="125.818947" xlink:href="#m6222e2e34f" y="174.507972"/>
     <use style="fill:#1f77b4;stroke:#1f77b4;" x="125.535106" xlink:href="#m6222e2e34f" y="171.432203"/>
     <use style="fill:#1f77b4;stroke:#1f77b4;" x="125.180588" xlink:href="#m6222e2e34f" y="168.273673"/>
     <use style="fill:#1f77b4;stroke:#1f77b4;" x="124.827898" xlink:href="#m6222e2e34f" y="164.605797"/>
     <use style="fill:#1f77b4;stroke:#1f77b4;" x="124.495888" xlink:href="#m6222e2e34f" y="160.635908"/>
     <use style="fill:#1f77b4;stroke:#1f77b4;" x="124.56312" xlink:href="#m6222e2e34f" y="159.676111"/>
     <use style="fill:#1f77b4;stroke:#1f77b4;" x="124.632164" xlink:href="#m6222e2e34f" y="158.770994"/>
     <use style="fill:#1f77b4;stroke:#1f77b4;" x="124.694846" xlink:href="#m6222e2e34f" y="157.958357"/>
     <use style="fill:#1f77b4;stroke:#1f77b4;" x="124.759113" xlink:href="#m6222e2e34f" y="157.171495"/>
     <use style="fill:#1f77b4;stroke:#1f77b4;" x="124.818958" xlink:href="#m6222e2e34f" y="156.441928"/>
     <use style="fill:#1f77b4;stroke:#1f77b4;" x="124.876162" xlink:href="#m6222e2e34f" y="155.676247"/>
     <use style="fill:#1f77b4;stroke:#1f77b4;" x="124.933936" xlink:href="#m6222e2e34f" y="154.997564"/>
     <use style="fill:#1f77b4;stroke:#1f77b4;" x="124.990747" xlink:href="#m6222e2e34f" y="154.324503"/>
     <use style="fill:#1f77b4;stroke:#1f77b4;" x="125.038272" xlink:href="#m6222e2e34f" y="153.663155"/>
     <use style="fill:#1f77b4;stroke:#1f77b4;" x="125.082155" xlink:href="#m6222e2e34f" y="153.03011"/>
     <use style="fill:#1f77b4;stroke:#1f77b4;" x="125.129841" xlink:href="#m6222e2e34f" y="152.420776"/>
     <use style="fill:#1f77b4;stroke:#1f77b4;" x="125.165227" xlink:href="#m6222e2e34f" y="151.803156"/>
     <use style="fill:#1f77b4;stroke:#1f77b4;" x="125.206546" xlink:href="#m6222e2e34f" y="151.189132"/>
     <use style="fill:#1f77b4;stroke:#1f77b4;" x="125.235848" xlink:href="#m6222e2e34f" y="150.640191"/>
     <use style="fill:#1f77b4;stroke:#1f77b4;" x="125.27632" xlink:href="#m6222e2e34f" y="150.06302"/>
     <use style="fill:#1f77b4;stroke:#1f77b4;" x="125.302128" xlink:href="#m6222e2e34f" y="149.521969"/>
     <use style="fill:#1f77b4;stroke:#1f77b4;" x="125.321016" xlink:href="#m6222e2e34f" y="148.979834"/>
     <use style="fill:#1f77b4;stroke:#1f77b4;" x="125.352067" xlink:href="#m6222e2e34f" y="148.447595"/>
     <use style="fill:#1f77b4;stroke:#1f77b4;" x="125.370058" xlink:href="#m6222e2e34f" y="147.928347"/>
     <use style="fill:#1f77b4;stroke:#1f77b4;" x="125.392507" xlink:href="#m6222e2e34f" y="147.426426"/>
     <use style="fill:#1f77b4;stroke:#1f77b4;" x="125.410513" xlink:href="#m6222e2e34f" y="146.924216"/>
     <use style="fill:#1f77b4;stroke:#1f77b4;" x="125.424868" xlink:href="#m6222e2e34f" y="146.442156"/>
     <use style="fill:#1f77b4;stroke:#1f77b4;" x="125.439683" xlink:href="#m6222e2e34f" y="145.94226"/>
     <use style="fill:#1f77b4;stroke:#1f77b4;" x="125.450231" xlink:href="#m6222e2e34f" y="145.419416"/>
     <use style="fill:#1f77b4;stroke:#1f77b4;" x="125.452469" xlink:href="#m6222e2e34f" y="144.895815"/>
     <use style="fill:#1f77b4;stroke:#1f77b4;" x="125.468416" xlink:href="#m6222e2e34f" y="144.794206"/>
     <use style="fill:#1f77b4;stroke:#1f77b4;" x="125.487697" xlink:href="#m6222e2e34f" y="144.694628"/>
     <use style="fill:#1f77b4;stroke:#1f77b4;" x="125.506382" xlink:href="#m6222e2e34f" y="144.608071"/>
     <use style="fill:#1f77b4;stroke:#1f77b4;" x="125.526378" xlink:href="#m6222e2e34f" y="144.534319"/>
     <use style="fill:#1f77b4;stroke:#1f77b4;" x="125.546435" xlink:href="#m6222e2e34f" y="144.470321"/>
     <use style="fill:#1f77b4;stroke:#1f77b4;" x="125.568275" xlink:href="#m6222e2e34f" y="144.416378"/>
     <use style="fill:#1f77b4;stroke:#1f77b4;" x="125.588829" xlink:href="#m6222e2e34f" y="144.368296"/>
     <use style="fill:#1f77b4;stroke:#1f77b4;" x="125.609779" xlink:href="#m6222e2e34f" y="144.327086"/>
     <use style="fill:#1f77b4;stroke:#1f77b4;" x="125.630646" xlink:href="#m6222e2e34f" y="144.282626"/>
     <use style="fill:#1f77b4;stroke:#1f77b4;" x="125.652525" xlink:href="#m6222e2e34f" y="144.242695"/>
     <use style="fill:#1f77b4;stroke:#1f77b4;" x="125.673732" xlink:href="#m6222e2e34f" y="144.209617"/>
     <use style="fill:#1f77b4;stroke:#1f77b4;" x="125.696147" xlink:href="#m6222e2e34f" y="144.18346"/>
     <use style="fill:#1f77b4;stroke:#1f77b4;" x="125.717888" xlink:href="#m6222e2e34f" y="144.161778"/>
     <use style="fill:#1f77b4;stroke:#1f77b4;" x="125.738195" xlink:href="#m6222e2e34f" y="144.14587"/>
     <use style="fill:#1f77b4;stroke:#1f77b4;" x="125.760301" xlink:href="#m6222e2e34f" y="144.124378"/>
     <use style="fill:#1f77b4;stroke:#1f77b4;" x="125.782067" xlink:href="#m6222e2e34f" y="144.102451"/>
     <use style="fill:#1f77b4;stroke:#1f77b4;" x="125.803966" xlink:href="#m6222e2e34f" y="144.091519"/>
     <use style="fill:#1f77b4;stroke:#1f77b4;" x="125.824915" xlink:href="#m6222e2e34f" y="144.078434"/>
     <use style="fill:#1f77b4;stroke:#1f77b4;" x="125.84786" xlink:href="#m6222e2e34f" y="144.071165"/>
     <use style="fill:#1f77b4;stroke:#1f77b4;" x="125.870638" xlink:href="#m6222e2e34f" y="144.060202"/>
     <use style="fill:#1f77b4;stroke:#1f77b4;" x="125.892871" xlink:href="#m6222e2e34f" y="144.056794"/>
     <use style="fill:#1f77b4;stroke:#1f77b4;" x="125.914984" xlink:href="#m6222e2e34f" y="144.058213"/>
     <use style="fill:#1f77b4;stroke:#1f77b4;" x="125.938095" xlink:href="#m6222e2e34f" y="144.057109"/>
     <use style="fill:#1f77b4;stroke:#1f77b4;" x="125.960868" xlink:href="#m6222e2e34f" y="144.058631"/>
    </g>
   </g>
   <g id="patch_3">
    <path d="M 56.028488 277.111219 
L 56.028488 10.999219 
" style="fill:none;stroke:#000000;stroke-linecap:square;stroke-linejoin:miter;stroke-width:0.8;"/>
   </g>
   <g id="patch_4">
    <path d="M 413.148488 277.111219 
L 413.148488 10.999219 
" style="fill:none;stroke:#000000;stroke-linecap:square;stroke-linejoin:miter;stroke-width:0.8;"/>
   </g>
   <g id="patch_5">
    <path d="M 56.028488 277.111219 
L 413.148488 277.111219 
" style="fill:none;stroke:#000000;stroke-linecap:square;stroke-linejoin:miter;stroke-width:0.8;"/>
   </g>
   <g id="patch_6">
    <path d="M 56.028488 10.999219 
L 413.148488 10.999219 
" style="fill:none;stroke:#000000;stroke-linecap:square;stroke-linejoin:miter;stroke-width:0.8;"/>
   </g>
   <g id="text_18">
    <g clip-path="url(#pa66272b372)">
     <!-- 1.500 -->
     <g style="fill:#453781;" transform="translate(122.09332 130.572991)rotate(-317.267326)scale(0.06 -0.06)">
      <use xlink:href="#DejaVuSans-49"/>
      <use x="63.623047" xlink:href="#DejaVuSans-46"/>
      <use x="95.410156" xlink:href="#DejaVuSans-53"/>
      <use x="159.033203" xlink:href="#DejaVuSans-48"/>
      <use x="222.65625" xlink:href="#DejaVuSans-48"/>
     </g>
    </g>
   </g>
   <g id="text_19">
    <g clip-path="url(#pa66272b372)">
     <!-- 2.000 -->
     <g style="fill:#404688;" transform="translate(117.239255 128.317074)rotate(-350.380097)scale(0.06 -0.06)">
      <use xlink:href="#DejaVuSans-50"/>
      <use x="63.623047" xlink:href="#DejaVuSans-46"/>
      <use x="95.410156" xlink:href="#DejaVuSans-48"/>
      <use x="159.033203" xlink:href="#DejaVuSans-48"/>
      <use x="222.65625" xlink:href="#DejaVuSans-48"/>
     </g>
    </g>
   </g>
   <g id="text_20">
    <g clip-path="url(#pa66272b372)">
     <!-- 2.500 -->
     <g style="fill:#39558c;" transform="translate(110.883165 152.517055)rotate(-64.42926)scale(0.06 -0.06)">
      <use xlink:href="#DejaVuSans-50"/>
      <use x="63.623047" xlink:href="#DejaVuSans-46"/>
      <use x="95.410156" xlink:href="#DejaVuSans-53"/>
      <use x="159.033203" xlink:href="#DejaVuSans-48"/>
      <use x="222.65625" xlink:href="#DejaVuSans-48"/>
     </g>
    </g>
   </g>
   <g id="text_21">
    <g clip-path="url(#pa66272b372)">
     <!-- 3.000 -->
     <g style="fill:#33638d;" transform="translate(103.199281 187.157943)rotate(-340.877059)scale(0.06 -0.06)">
      <defs>
       <path d="M 40.578125 39.3125 
Q 47.65625 37.796875 51.625 33 
Q 55.609375 28.21875 55.609375 21.1875 
Q 55.609375 10.40625 48.1875 4.484375 
Q 40.765625 -1.421875 27.09375 -1.421875 
Q 22.515625 -1.421875 17.65625 -0.515625 
Q 12.796875 0.390625 7.625 2.203125 
L 7.625 11.71875 
Q 11.71875 9.328125 16.59375 8.109375 
Q 21.484375 6.890625 26.8125 6.890625 
Q 36.078125 6.890625 40.9375 10.546875 
Q 45.796875 14.203125 45.796875 21.1875 
Q 45.796875 27.640625 41.28125 31.265625 
Q 36.765625 34.90625 28.71875 34.90625 
L 20.21875 34.90625 
L 20.21875 43.015625 
L 29.109375 43.015625 
Q 36.375 43.015625 40.234375 45.921875 
Q 44.09375 48.828125 44.09375 54.296875 
Q 44.09375 59.90625 40.109375 62.90625 
Q 36.140625 65.921875 28.71875 65.921875 
Q 24.65625 65.921875 20.015625 65.03125 
Q 15.375 64.15625 9.8125 62.3125 
L 9.8125 71.09375 
Q 15.4375 72.65625 20.34375 73.4375 
Q 25.25 74.21875 29.59375 74.21875 
Q 40.828125 74.21875 47.359375 69.109375 
Q 53.90625 64.015625 53.90625 55.328125 
Q 53.90625 49.265625 50.4375 45.09375 
Q 46.96875 40.921875 40.578125 39.3125 
z
" id="DejaVuSans-51"/>
      </defs>
      <use xlink:href="#DejaVuSans-51"/>
      <use x="63.623047" xlink:href="#DejaVuSans-46"/>
      <use x="95.410156" xlink:href="#DejaVuSans-48"/>
      <use x="159.033203" xlink:href="#DejaVuSans-48"/>
      <use x="222.65625" xlink:href="#DejaVuSans-48"/>
     </g>
    </g>
   </g>
   <g id="text_22">
    <g clip-path="url(#pa66272b372)">
     <!-- 3.500 -->
     <g style="fill:#2d718e;" transform="translate(102.851915 183.692784)rotate(-316.472842)scale(0.06 -0.06)">
      <use xlink:href="#DejaVuSans-51"/>
      <use x="63.623047" xlink:href="#DejaVuSans-46"/>
      <use x="95.410156" xlink:href="#DejaVuSans-53"/>
      <use x="159.033203" xlink:href="#DejaVuSans-48"/>
      <use x="222.65625" xlink:href="#DejaVuSans-48"/>
     </g>
    </g>
   </g>
   <g id="text_23">
    <g clip-path="url(#pa66272b372)">
     <!-- 4.000 -->
     <g style="fill:#287d8e;" transform="translate(103.149459 197.057586)rotate(-347.647216)scale(0.06 -0.06)">
      <use xlink:href="#DejaVuSans-52"/>
      <use x="63.623047" xlink:href="#DejaVuSans-46"/>
      <use x="95.410156" xlink:href="#DejaVuSans-48"/>
      <use x="159.033203" xlink:href="#DejaVuSans-48"/>
      <use x="222.65625" xlink:href="#DejaVuSans-48"/>
     </g>
    </g>
   </g>
   <g id="text_24">
    <g clip-path="url(#pa66272b372)">
     <!-- 4.500 -->
     <g style="fill:#238a8d;" transform="translate(103.058465 195.98411)rotate(-340.584189)scale(0.06 -0.06)">
      <use xlink:href="#DejaVuSans-52"/>
      <use x="63.623047" xlink:href="#DejaVuSans-46"/>
      <use x="95.410156" xlink:href="#DejaVuSans-53"/>
      <use x="159.033203" xlink:href="#DejaVuSans-48"/>
      <use x="222.65625" xlink:href="#DejaVuSans-48"/>
     </g>
    </g>
   </g>
   <g id="text_25">
    <g clip-path="url(#pa66272b372)">
     <!-- 5.000 -->
     <g style="fill:#1f968b;" transform="translate(102.943023 195.586035)rotate(-337.937462)scale(0.06 -0.06)">
      <use xlink:href="#DejaVuSans-53"/>
      <use x="63.623047" xlink:href="#DejaVuSans-46"/>
      <use x="95.410156" xlink:href="#DejaVuSans-48"/>
      <use x="159.033203" xlink:href="#DejaVuSans-48"/>
      <use x="222.65625" xlink:href="#DejaVuSans-48"/>
     </g>
    </g>
   </g>
   <g id="text_26">
    <g clip-path="url(#pa66272b372)">
     <!-- 5.500 -->
     <g style="fill:#20a386;" transform="translate(102.859787 195.13577)rotate(-334.914048)scale(0.06 -0.06)">
      <use xlink:href="#DejaVuSans-53"/>
      <use x="63.623047" xlink:href="#DejaVuSans-46"/>
      <use x="95.410156" xlink:href="#DejaVuSans-53"/>
      <use x="159.033203" xlink:href="#DejaVuSans-48"/>
      <use x="222.65625" xlink:href="#DejaVuSans-48"/>
     </g>
    </g>
   </g>
   <g id="text_27">
    <g clip-path="url(#pa66272b372)">
     <!-- 6.000 -->
     <g style="fill:#29af7f;" transform="translate(102.789732 194.725401)rotate(-332.123177)scale(0.06 -0.06)">
      <use xlink:href="#DejaVuSans-54"/>
      <use x="63.623047" xlink:href="#DejaVuSans-46"/>
      <use x="95.410156" xlink:href="#DejaVuSans-48"/>
      <use x="159.033203" xlink:href="#DejaVuSans-48"/>
      <use x="222.65625" xlink:href="#DejaVuSans-48"/>
     </g>
    </g>
   </g>
   <g id="text_28">
    <g clip-path="url(#pa66272b372)">
     <!-- 6.500 -->
     <g style="fill:#3dbc74;" transform="translate(102.727739 194.354101)rotate(-329.56193)scale(0.06 -0.06)">
      <use xlink:href="#DejaVuSans-54"/>
      <use x="63.623047" xlink:href="#DejaVuSans-46"/>
      <use x="95.410156" xlink:href="#DejaVuSans-53"/>
      <use x="159.033203" xlink:href="#DejaVuSans-48"/>
      <use x="222.65625" xlink:href="#DejaVuSans-48"/>
     </g>
    </g>
   </g>
   <g id="text_29">
    <g clip-path="url(#pa66272b372)">
     <!-- 7.000 -->
     <g style="fill:#56c667;" transform="translate(102.669386 194.020437)rotate(-327.225284)scale(0.06 -0.06)">
      <use xlink:href="#DejaVuSans-55"/>
      <use x="63.623047" xlink:href="#DejaVuSans-46"/>
      <use x="95.410156" xlink:href="#DejaVuSans-48"/>
      <use x="159.033203" xlink:href="#DejaVuSans-48"/>
      <use x="222.65625" xlink:href="#DejaVuSans-48"/>
     </g>
    </g>
   </g>
   <g id="text_30">
    <g clip-path="url(#pa66272b372)">
     <!-- 7.500 -->
     <g style="fill:#75d054;" transform="translate(102.610933 193.722604)rotate(-325.106885)scale(0.06 -0.06)">
      <use xlink:href="#DejaVuSans-55"/>
      <use x="63.623047" xlink:href="#DejaVuSans-46"/>
      <use x="95.410156" xlink:href="#DejaVuSans-53"/>
      <use x="159.033203" xlink:href="#DejaVuSans-48"/>
      <use x="222.65625" xlink:href="#DejaVuSans-48"/>
     </g>
    </g>
   </g>
   <g id="text_31">
    <g clip-path="url(#pa66272b372)">
     <!-- 8.000 -->
     <g style="fill:#95d840;" transform="translate(100.971539 133.480501)rotate(-19.756274)scale(0.06 -0.06)">
      <use xlink:href="#DejaVuSans-56"/>
      <use x="63.623047" xlink:href="#DejaVuSans-46"/>
      <use x="95.410156" xlink:href="#DejaVuSans-48"/>
      <use x="159.033203" xlink:href="#DejaVuSans-48"/>
      <use x="222.65625" xlink:href="#DejaVuSans-48"/>
     </g>
    </g>
   </g>
   <g id="text_32">
    <g clip-path="url(#pa66272b372)">
     <!-- 8.500 -->
     <g style="fill:#bade28;" transform="translate(107.28376 207.799035)rotate(-9.326963)scale(0.06 -0.06)">
      <use xlink:href="#DejaVuSans-56"/>
      <use x="63.623047" xlink:href="#DejaVuSans-46"/>
      <use x="95.410156" xlink:href="#DejaVuSans-53"/>
      <use x="159.033203" xlink:href="#DejaVuSans-48"/>
      <use x="222.65625" xlink:href="#DejaVuSans-48"/>
     </g>
    </g>
   </g>
   <g id="text_33">
    <g clip-path="url(#pa66272b372)">
     <!-- 9.000 -->
     <g style="fill:#dde318;" transform="translate(107.278837 208.810831)rotate(-9.233532)scale(0.06 -0.06)">
      <defs>
       <path d="M 10.984375 1.515625 
L 10.984375 10.5 
Q 14.703125 8.734375 18.5 7.8125 
Q 22.3125 6.890625 25.984375 6.890625 
Q 35.75 6.890625 40.890625 13.453125 
Q 46.046875 20.015625 46.78125 33.40625 
Q 43.953125 29.203125 39.59375 26.953125 
Q 35.25 24.703125 29.984375 24.703125 
Q 19.046875 24.703125 12.671875 31.3125 
Q 6.296875 37.9375 6.296875 49.421875 
Q 6.296875 60.640625 12.9375 67.421875 
Q 19.578125 74.21875 30.609375 74.21875 
Q 43.265625 74.21875 49.921875 64.515625 
Q 56.59375 54.828125 56.59375 36.375 
Q 56.59375 19.140625 48.40625 8.859375 
Q 40.234375 -1.421875 26.421875 -1.421875 
Q 22.703125 -1.421875 18.890625 -0.6875 
Q 15.09375 0.046875 10.984375 1.515625 
z
M 30.609375 32.421875 
Q 37.25 32.421875 41.125 36.953125 
Q 45.015625 41.5 45.015625 49.421875 
Q 45.015625 57.28125 41.125 61.84375 
Q 37.25 66.40625 30.609375 66.40625 
Q 23.96875 66.40625 20.09375 61.84375 
Q 16.21875 57.28125 16.21875 49.421875 
Q 16.21875 41.5 20.09375 36.953125 
Q 23.96875 32.421875 30.609375 32.421875 
z
" id="DejaVuSans-57"/>
      </defs>
      <use xlink:href="#DejaVuSans-57"/>
      <use x="63.623047" xlink:href="#DejaVuSans-46"/>
      <use x="95.410156" xlink:href="#DejaVuSans-48"/>
      <use x="159.033203" xlink:href="#DejaVuSans-48"/>
      <use x="222.65625" xlink:href="#DejaVuSans-48"/>
     </g>
    </g>
   </g>
   <g id="text_34">
    <g clip-path="url(#pa66272b372)">
     <!-- 9.500 -->
     <g style="fill:#fde725;" transform="translate(113.854098 201.353867)rotate(-16.866276)scale(0.06 -0.06)">
      <use xlink:href="#DejaVuSans-57"/>
      <use x="63.623047" xlink:href="#DejaVuSans-46"/>
      <use x="95.410156" xlink:href="#DejaVuSans-53"/>
      <use x="159.033203" xlink:href="#DejaVuSans-48"/>
      <use x="222.65625" xlink:href="#DejaVuSans-48"/>
     </g>
    </g>
   </g>
   <g id="text_35">
    <g clip-path="url(#pa66272b372)">
     <!-- 10.000 -->
     <g style="fill:#440154;" transform="translate(103.62533 207.116015)rotate(-356.263343)scale(0.06 -0.06)">
      <use xlink:href="#DejaVuSans-49"/>
      <use x="63.623047" xlink:href="#DejaVuSans-48"/>
      <use x="127.246094" xlink:href="#DejaVuSans-46"/>
      <use x="159.033203" xlink:href="#DejaVuSans-48"/>
      <use x="222.65625" xlink:href="#DejaVuSans-48"/>
      <use x="286.279297" xlink:href="#DejaVuSans-48"/>
     </g>
    </g>
   </g>
   <g id="text_36">
    <g clip-path="url(#pa66272b372)">
     <!-- 100.000 -->
     <g style="fill:#440154;" transform="translate(94.277917 134.860063)rotate(-35.459949)scale(0.06 -0.06)">
      <use xlink:href="#DejaVuSans-49"/>
      <use x="63.623047" xlink:href="#DejaVuSans-48"/>
      <use x="127.246094" xlink:href="#DejaVuSans-48"/>
      <use x="190.869141" xlink:href="#DejaVuSans-46"/>
      <use x="222.65625" xlink:href="#DejaVuSans-48"/>
      <use x="286.279297" xlink:href="#DejaVuSans-48"/>
      <use x="349.902344" xlink:href="#DejaVuSans-48"/>
     </g>
    </g>
   </g>
   <g id="text_37">
    <g clip-path="url(#pa66272b372)">
     <!-- 1000.000 -->
     <g style="fill:#440154;" transform="translate(109.219344 245.190479)rotate(-16.383008)scale(0.06 -0.06)">
      <use xlink:href="#DejaVuSans-49"/>
      <use x="63.623047" xlink:href="#DejaVuSans-48"/>
      <use x="127.246094" xlink:href="#DejaVuSans-48"/>
      <use x="190.869141" xlink:href="#DejaVuSans-48"/>
      <use x="254.492188" xlink:href="#DejaVuSans-46"/>
      <use x="286.279297" xlink:href="#DejaVuSans-48"/>
      <use x="349.902344" xlink:href="#DejaVuSans-48"/>
      <use x="413.525391" xlink:href="#DejaVuSans-48"/>
     </g>
    </g>
   </g>
   <g id="text_38">
    <g clip-path="url(#pa66272b372)">
     <!-- 10000.000 -->
     <g style="fill:#440154;" transform="translate(106.607404 262.404153)rotate(-7.348326)scale(0.06 -0.06)">
      <use xlink:href="#DejaVuSans-49"/>
      <use x="63.623047" xlink:href="#DejaVuSans-48"/>
      <use x="127.246094" xlink:href="#DejaVuSans-48"/>
      <use x="190.869141" xlink:href="#DejaVuSans-48"/>
      <use x="254.492188" xlink:href="#DejaVuSans-48"/>
      <use x="318.115234" xlink:href="#DejaVuSans-46"/>
      <use x="349.902344" xlink:href="#DejaVuSans-48"/>
      <use x="413.525391" xlink:href="#DejaVuSans-48"/>
      <use x="477.148438" xlink:href="#DejaVuSans-48"/>
     </g>
    </g>
   </g>
   <g id="text_39">
    <g clip-path="url(#pa66272b372)">
     <!-- 100000.000 -->
     <g style="fill:#440154;" transform="translate(109.335144 275.399183)rotate(-17.933649)scale(0.06 -0.06)">
      <use xlink:href="#DejaVuSans-49"/>
      <use x="63.623047" xlink:href="#DejaVuSans-48"/>
      <use x="127.246094" xlink:href="#DejaVuSans-48"/>
      <use x="190.869141" xlink:href="#DejaVuSans-48"/>
      <use x="254.492188" xlink:href="#DejaVuSans-48"/>
      <use x="318.115234" xlink:href="#DejaVuSans-48"/>
      <use x="381.738281" xlink:href="#DejaVuSans-46"/>
      <use x="413.525391" xlink:href="#DejaVuSans-48"/>
      <use x="477.148438" xlink:href="#DejaVuSans-48"/>
      <use x="540.771484" xlink:href="#DejaVuSans-48"/>
     </g>
    </g>
   </g>
   <g id="text_40">
    <g clip-path="url(#pa66272b372)">
     <!-- 1000000.000 -->
     <g style="fill:#450457;" transform="translate(79.378302 134.872623)rotate(-55.354525)scale(0.06 -0.06)">
      <use xlink:href="#DejaVuSans-49"/>
      <use x="63.623047" xlink:href="#DejaVuSans-48"/>
      <use x="127.246094" xlink:href="#DejaVuSans-48"/>
      <use x="190.869141" xlink:href="#DejaVuSans-48"/>
      <use x="254.492188" xlink:href="#DejaVuSans-48"/>
      <use x="318.115234" xlink:href="#DejaVuSans-48"/>
      <use x="381.738281" xlink:href="#DejaVuSans-48"/>
      <use x="445.361328" xlink:href="#DejaVuSans-46"/>
      <use x="477.148438" xlink:href="#DejaVuSans-48"/>
      <use x="540.771484" xlink:href="#DejaVuSans-48"/>
      <use x="604.394531" xlink:href="#DejaVuSans-48"/>
     </g>
    </g>
   </g>
   <g id="text_41">
    <g clip-path="url(#pa66272b372)">
     <!-- 10000000.000 -->
     <g style="fill:#482475;" transform="translate(85.206211 252.8119)rotate(-329.725444)scale(0.06 -0.06)">
      <use xlink:href="#DejaVuSans-49"/>
      <use x="63.623047" xlink:href="#DejaVuSans-48"/>
      <use x="127.246094" xlink:href="#DejaVuSans-48"/>
      <use x="190.869141" xlink:href="#DejaVuSans-48"/>
      <use x="254.492188" xlink:href="#DejaVuSans-48"/>
      <use x="318.115234" xlink:href="#DejaVuSans-48"/>
      <use x="381.738281" xlink:href="#DejaVuSans-48"/>
      <use x="445.361328" xlink:href="#DejaVuSans-48"/>
      <use x="508.984375" xlink:href="#DejaVuSans-46"/>
      <use x="540.771484" xlink:href="#DejaVuSans-48"/>
      <use x="604.394531" xlink:href="#DejaVuSans-48"/>
      <use x="668.017578" xlink:href="#DejaVuSans-48"/>
     </g>
    </g>
   </g>
   <g id="text_42">
    <g clip-path="url(#pa66272b372)">
     <!-- 100000000.000 -->
     <g style="fill:#fde725;" transform="translate(67.790101 212.484835)rotate(-321.566525)scale(0.06 -0.06)">
      <use xlink:href="#DejaVuSans-49"/>
      <use x="63.623047" xlink:href="#DejaVuSans-48"/>
      <use x="127.246094" xlink:href="#DejaVuSans-48"/>
      <use x="190.869141" xlink:href="#DejaVuSans-48"/>
      <use x="254.492188" xlink:href="#DejaVuSans-48"/>
      <use x="318.115234" xlink:href="#DejaVuSans-48"/>
      <use x="381.738281" xlink:href="#DejaVuSans-48"/>
      <use x="445.361328" xlink:href="#DejaVuSans-48"/>
      <use x="508.984375" xlink:href="#DejaVuSans-48"/>
      <use x="572.607422" xlink:href="#DejaVuSans-46"/>
      <use x="604.394531" xlink:href="#DejaVuSans-48"/>
      <use x="668.017578" xlink:href="#DejaVuSans-48"/>
      <use x="731.640625" xlink:href="#DejaVuSans-48"/>
     </g>
    </g>
   </g>
  </g>
 </g>
 <defs>
  <clipPath id="pa66272b372">
   <rect height="266.112" width="357.12" x="56.028488" y="10.999219"/>
  </clipPath>
 </defs>
</svg>
