<?xml version="1.0" encoding="utf-8" standalone="no"?>
<!DOCTYPE svg PUBLIC "-//W3C//DTD SVG 1.1//EN"
  "http://www.w3.org/Graphics/SVG/1.1/DTD/svg11.dtd">
<!-- Created with matplotlib (https://matplotlib.org/) -->
<svg height="321.713144pt" version="1.1" viewBox="0 0 426.710987 321.713144" width="426.710987pt" xmlns="http://www.w3.org/2000/svg" xmlns:xlink="http://www.w3.org/1999/xlink">
 <metadata>
  <rdf:RDF xmlns:cc="http://creativecommons.org/ns#" xmlns:dc="http://purl.org/dc/elements/1.1/" xmlns:rdf="http://www.w3.org/1999/02/22-rdf-syntax-ns#">
   <cc:Work>
    <dc:type rdf:resource="http://purl.org/dc/dcmitype/StillImage"/>
    <dc:date>2021-09-21T16:26:44.623436</dc:date>
    <dc:format>image/svg+xml</dc:format>
    <dc:creator>
     <cc:Agent>
      <dc:title>Matplotlib v3.3.1, https://matplotlib.org/</dc:title>
     </cc:Agent>
    </dc:creator>
   </cc:Work>
  </rdf:RDF>
 </metadata>
 <defs>
  <style type="text/css">*{stroke-linecap:butt;stroke-linejoin:round;}</style>
 </defs>
 <g id="figure_1">
  <g id="patch_1">
   <path d="M 0 321.713144 
L 426.710987 321.713144 
L 426.710987 0 
L 0 0 
z
" style="fill:#ffffff;"/>
  </g>
  <g id="axes_1">
   <g id="patch_2">
    <path d="M 56.028488 277.111219 
L 413.148488 277.111219 
L 413.148488 10.999219 
L 56.028488 10.999219 
z
" style="fill:#ffffff;"/>
   </g>
   <g id="matplotlib.axis_1">
    <g id="xtick_1">
     <g id="line2d_1">
      <defs>
       <path d="M 0 0 
L 0 3.5 
" id="mf2d5479b20" style="stroke:#000000;stroke-width:0.8;"/>
      </defs>
      <g>
       <use style="stroke:#000000;stroke-width:0.8;" x="56.028488" xlink:href="#mf2d5479b20" y="277.111219"/>
      </g>
     </g>
     <g id="text_1">
      <!-- −20 -->
      <g transform="translate(45.476144 291.709656)scale(0.1 -0.1)">
       <defs>
        <path d="M 10.59375 35.5 
L 73.1875 35.5 
L 73.1875 27.203125 
L 10.59375 27.203125 
z
" id="DejaVuSans-8722"/>
        <path d="M 19.1875 8.296875 
L 53.609375 8.296875 
L 53.609375 0 
L 7.328125 0 
L 7.328125 8.296875 
Q 12.9375 14.109375 22.625 23.890625 
Q 32.328125 33.6875 34.8125 36.53125 
Q 39.546875 41.84375 41.421875 45.53125 
Q 43.3125 49.21875 43.3125 52.78125 
Q 43.3125 58.59375 39.234375 62.25 
Q 35.15625 65.921875 28.609375 65.921875 
Q 23.96875 65.921875 18.8125 64.3125 
Q 13.671875 62.703125 7.8125 59.421875 
L 7.8125 69.390625 
Q 13.765625 71.78125 18.9375 73 
Q 24.125 74.21875 28.421875 74.21875 
Q 39.75 74.21875 46.484375 68.546875 
Q 53.21875 62.890625 53.21875 53.421875 
Q 53.21875 48.921875 51.53125 44.890625 
Q 49.859375 40.875 45.40625 35.40625 
Q 44.1875 33.984375 37.640625 27.21875 
Q 31.109375 20.453125 19.1875 8.296875 
z
" id="DejaVuSans-50"/>
        <path d="M 31.78125 66.40625 
Q 24.171875 66.40625 20.328125 58.90625 
Q 16.5 51.421875 16.5 36.375 
Q 16.5 21.390625 20.328125 13.890625 
Q 24.171875 6.390625 31.78125 6.390625 
Q 39.453125 6.390625 43.28125 13.890625 
Q 47.125 21.390625 47.125 36.375 
Q 47.125 51.421875 43.28125 58.90625 
Q 39.453125 66.40625 31.78125 66.40625 
z
M 31.78125 74.21875 
Q 44.046875 74.21875 50.515625 64.515625 
Q 56.984375 54.828125 56.984375 36.375 
Q 56.984375 17.96875 50.515625 8.265625 
Q 44.046875 -1.421875 31.78125 -1.421875 
Q 19.53125 -1.421875 13.0625 8.265625 
Q 6.59375 17.96875 6.59375 36.375 
Q 6.59375 54.828125 13.0625 64.515625 
Q 19.53125 74.21875 31.78125 74.21875 
z
" id="DejaVuSans-48"/>
       </defs>
       <use xlink:href="#DejaVuSans-8722"/>
       <use x="83.789062" xlink:href="#DejaVuSans-50"/>
       <use x="147.412109" xlink:href="#DejaVuSans-48"/>
      </g>
     </g>
    </g>
    <g id="xtick_2">
     <g id="line2d_2">
      <g>
       <use style="stroke:#000000;stroke-width:0.8;" x="95.708488" xlink:href="#mf2d5479b20" y="277.111219"/>
      </g>
     </g>
     <g id="text_2">
      <!-- −15 -->
      <g transform="translate(85.156144 291.709656)scale(0.1 -0.1)">
       <defs>
        <path d="M 12.40625 8.296875 
L 28.515625 8.296875 
L 28.515625 63.921875 
L 10.984375 60.40625 
L 10.984375 69.390625 
L 28.421875 72.90625 
L 38.28125 72.90625 
L 38.28125 8.296875 
L 54.390625 8.296875 
L 54.390625 0 
L 12.40625 0 
z
" id="DejaVuSans-49"/>
        <path d="M 10.796875 72.90625 
L 49.515625 72.90625 
L 49.515625 64.59375 
L 19.828125 64.59375 
L 19.828125 46.734375 
Q 21.96875 47.46875 24.109375 47.828125 
Q 26.265625 48.1875 28.421875 48.1875 
Q 40.625 48.1875 47.75 41.5 
Q 54.890625 34.8125 54.890625 23.390625 
Q 54.890625 11.625 47.5625 5.09375 
Q 40.234375 -1.421875 26.90625 -1.421875 
Q 22.3125 -1.421875 17.546875 -0.640625 
Q 12.796875 0.140625 7.71875 1.703125 
L 7.71875 11.625 
Q 12.109375 9.234375 16.796875 8.0625 
Q 21.484375 6.890625 26.703125 6.890625 
Q 35.15625 6.890625 40.078125 11.328125 
Q 45.015625 15.765625 45.015625 23.390625 
Q 45.015625 31 40.078125 35.4375 
Q 35.15625 39.890625 26.703125 39.890625 
Q 22.75 39.890625 18.8125 39.015625 
Q 14.890625 38.140625 10.796875 36.28125 
z
" id="DejaVuSans-53"/>
       </defs>
       <use xlink:href="#DejaVuSans-8722"/>
       <use x="83.789062" xlink:href="#DejaVuSans-49"/>
       <use x="147.412109" xlink:href="#DejaVuSans-53"/>
      </g>
     </g>
    </g>
    <g id="xtick_3">
     <g id="line2d_3">
      <g>
       <use style="stroke:#000000;stroke-width:0.8;" x="135.388488" xlink:href="#mf2d5479b20" y="277.111219"/>
      </g>
     </g>
     <g id="text_3">
      <!-- −10 -->
      <g transform="translate(124.836144 291.709656)scale(0.1 -0.1)">
       <use xlink:href="#DejaVuSans-8722"/>
       <use x="83.789062" xlink:href="#DejaVuSans-49"/>
       <use x="147.412109" xlink:href="#DejaVuSans-48"/>
      </g>
     </g>
    </g>
    <g id="xtick_4">
     <g id="line2d_4">
      <g>
       <use style="stroke:#000000;stroke-width:0.8;" x="175.068488" xlink:href="#mf2d5479b20" y="277.111219"/>
      </g>
     </g>
     <g id="text_4">
      <!-- −5 -->
      <g transform="translate(167.697394 291.709656)scale(0.1 -0.1)">
       <use xlink:href="#DejaVuSans-8722"/>
       <use x="83.789062" xlink:href="#DejaVuSans-53"/>
      </g>
     </g>
    </g>
    <g id="xtick_5">
     <g id="line2d_5">
      <g>
       <use style="stroke:#000000;stroke-width:0.8;" x="214.748488" xlink:href="#mf2d5479b20" y="277.111219"/>
      </g>
     </g>
     <g id="text_5">
      <!-- 0 -->
      <g transform="translate(211.567238 291.709656)scale(0.1 -0.1)">
       <use xlink:href="#DejaVuSans-48"/>
      </g>
     </g>
    </g>
    <g id="xtick_6">
     <g id="line2d_6">
      <g>
       <use style="stroke:#000000;stroke-width:0.8;" x="254.428488" xlink:href="#mf2d5479b20" y="277.111219"/>
      </g>
     </g>
     <g id="text_6">
      <!-- 5 -->
      <g transform="translate(251.247238 291.709656)scale(0.1 -0.1)">
       <use xlink:href="#DejaVuSans-53"/>
      </g>
     </g>
    </g>
    <g id="xtick_7">
     <g id="line2d_7">
      <g>
       <use style="stroke:#000000;stroke-width:0.8;" x="294.108488" xlink:href="#mf2d5479b20" y="277.111219"/>
      </g>
     </g>
     <g id="text_7">
      <!-- 10 -->
      <g transform="translate(287.745988 291.709656)scale(0.1 -0.1)">
       <use xlink:href="#DejaVuSans-49"/>
       <use x="63.623047" xlink:href="#DejaVuSans-48"/>
      </g>
     </g>
    </g>
    <g id="xtick_8">
     <g id="line2d_8">
      <g>
       <use style="stroke:#000000;stroke-width:0.8;" x="333.788488" xlink:href="#mf2d5479b20" y="277.111219"/>
      </g>
     </g>
     <g id="text_8">
      <!-- 15 -->
      <g transform="translate(327.425988 291.709656)scale(0.1 -0.1)">
       <use xlink:href="#DejaVuSans-49"/>
       <use x="63.623047" xlink:href="#DejaVuSans-53"/>
      </g>
     </g>
    </g>
    <g id="xtick_9">
     <g id="line2d_9">
      <g>
       <use style="stroke:#000000;stroke-width:0.8;" x="373.468488" xlink:href="#mf2d5479b20" y="277.111219"/>
      </g>
     </g>
     <g id="text_9">
      <!-- 20 -->
      <g transform="translate(367.105988 291.709656)scale(0.1 -0.1)">
       <use xlink:href="#DejaVuSans-50"/>
       <use x="63.623047" xlink:href="#DejaVuSans-48"/>
      </g>
     </g>
    </g>
    <g id="xtick_10">
     <g id="line2d_10">
      <g>
       <use style="stroke:#000000;stroke-width:0.8;" x="413.148488" xlink:href="#mf2d5479b20" y="277.111219"/>
      </g>
     </g>
     <g id="text_10">
      <!-- 25 -->
      <g transform="translate(406.785988 291.709656)scale(0.1 -0.1)">
       <use xlink:href="#DejaVuSans-50"/>
       <use x="63.623047" xlink:href="#DejaVuSans-53"/>
      </g>
     </g>
    </g>
    <g id="text_11">
     <!-- 1st PC: 85.66 % -->
     <g transform="translate(165.868088 310.919444)scale(0.1728 -0.1728)">
      <defs>
       <path d="M 44.28125 53.078125 
L 44.28125 44.578125 
Q 40.484375 46.53125 36.375 47.5 
Q 32.28125 48.484375 27.875 48.484375 
Q 21.1875 48.484375 17.84375 46.4375 
Q 14.5 44.390625 14.5 40.28125 
Q 14.5 37.15625 16.890625 35.375 
Q 19.28125 33.59375 26.515625 31.984375 
L 29.59375 31.296875 
Q 39.15625 29.25 43.1875 25.515625 
Q 47.21875 21.78125 47.21875 15.09375 
Q 47.21875 7.46875 41.1875 3.015625 
Q 35.15625 -1.421875 24.609375 -1.421875 
Q 20.21875 -1.421875 15.453125 -0.5625 
Q 10.6875 0.296875 5.421875 2 
L 5.421875 11.28125 
Q 10.40625 8.6875 15.234375 7.390625 
Q 20.0625 6.109375 24.8125 6.109375 
Q 31.15625 6.109375 34.5625 8.28125 
Q 37.984375 10.453125 37.984375 14.40625 
Q 37.984375 18.0625 35.515625 20.015625 
Q 33.0625 21.96875 24.703125 23.78125 
L 21.578125 24.515625 
Q 13.234375 26.265625 9.515625 29.90625 
Q 5.8125 33.546875 5.8125 39.890625 
Q 5.8125 47.609375 11.28125 51.796875 
Q 16.75 56 26.8125 56 
Q 31.78125 56 36.171875 55.265625 
Q 40.578125 54.546875 44.28125 53.078125 
z
" id="DejaVuSans-115"/>
       <path d="M 18.3125 70.21875 
L 18.3125 54.6875 
L 36.8125 54.6875 
L 36.8125 47.703125 
L 18.3125 47.703125 
L 18.3125 18.015625 
Q 18.3125 11.328125 20.140625 9.421875 
Q 21.96875 7.515625 27.59375 7.515625 
L 36.8125 7.515625 
L 36.8125 0 
L 27.59375 0 
Q 17.1875 0 13.234375 3.875 
Q 9.28125 7.765625 9.28125 18.015625 
L 9.28125 47.703125 
L 2.6875 47.703125 
L 2.6875 54.6875 
L 9.28125 54.6875 
L 9.28125 70.21875 
z
" id="DejaVuSans-116"/>
       <path id="DejaVuSans-32"/>
       <path d="M 19.671875 64.796875 
L 19.671875 37.40625 
L 32.078125 37.40625 
Q 38.96875 37.40625 42.71875 40.96875 
Q 46.484375 44.53125 46.484375 51.125 
Q 46.484375 57.671875 42.71875 61.234375 
Q 38.96875 64.796875 32.078125 64.796875 
z
M 9.8125 72.90625 
L 32.078125 72.90625 
Q 44.34375 72.90625 50.609375 67.359375 
Q 56.890625 61.8125 56.890625 51.125 
Q 56.890625 40.328125 50.609375 34.8125 
Q 44.34375 29.296875 32.078125 29.296875 
L 19.671875 29.296875 
L 19.671875 0 
L 9.8125 0 
z
" id="DejaVuSans-80"/>
       <path d="M 64.40625 67.28125 
L 64.40625 56.890625 
Q 59.421875 61.53125 53.78125 63.8125 
Q 48.140625 66.109375 41.796875 66.109375 
Q 29.296875 66.109375 22.65625 58.46875 
Q 16.015625 50.828125 16.015625 36.375 
Q 16.015625 21.96875 22.65625 14.328125 
Q 29.296875 6.6875 41.796875 6.6875 
Q 48.140625 6.6875 53.78125 8.984375 
Q 59.421875 11.28125 64.40625 15.921875 
L 64.40625 5.609375 
Q 59.234375 2.09375 53.4375 0.328125 
Q 47.65625 -1.421875 41.21875 -1.421875 
Q 24.65625 -1.421875 15.125 8.703125 
Q 5.609375 18.84375 5.609375 36.375 
Q 5.609375 53.953125 15.125 64.078125 
Q 24.65625 74.21875 41.21875 74.21875 
Q 47.75 74.21875 53.53125 72.484375 
Q 59.328125 70.75 64.40625 67.28125 
z
" id="DejaVuSans-67"/>
       <path d="M 11.71875 12.40625 
L 22.015625 12.40625 
L 22.015625 0 
L 11.71875 0 
z
M 11.71875 51.703125 
L 22.015625 51.703125 
L 22.015625 39.3125 
L 11.71875 39.3125 
z
" id="DejaVuSans-58"/>
       <path d="M 31.78125 34.625 
Q 24.75 34.625 20.71875 30.859375 
Q 16.703125 27.09375 16.703125 20.515625 
Q 16.703125 13.921875 20.71875 10.15625 
Q 24.75 6.390625 31.78125 6.390625 
Q 38.8125 6.390625 42.859375 10.171875 
Q 46.921875 13.96875 46.921875 20.515625 
Q 46.921875 27.09375 42.890625 30.859375 
Q 38.875 34.625 31.78125 34.625 
z
M 21.921875 38.8125 
Q 15.578125 40.375 12.03125 44.71875 
Q 8.5 49.078125 8.5 55.328125 
Q 8.5 64.0625 14.71875 69.140625 
Q 20.953125 74.21875 31.78125 74.21875 
Q 42.671875 74.21875 48.875 69.140625 
Q 55.078125 64.0625 55.078125 55.328125 
Q 55.078125 49.078125 51.53125 44.71875 
Q 48 40.375 41.703125 38.8125 
Q 48.828125 37.15625 52.796875 32.3125 
Q 56.78125 27.484375 56.78125 20.515625 
Q 56.78125 9.90625 50.3125 4.234375 
Q 43.84375 -1.421875 31.78125 -1.421875 
Q 19.734375 -1.421875 13.25 4.234375 
Q 6.78125 9.90625 6.78125 20.515625 
Q 6.78125 27.484375 10.78125 32.3125 
Q 14.796875 37.15625 21.921875 38.8125 
z
M 18.3125 54.390625 
Q 18.3125 48.734375 21.84375 45.5625 
Q 25.390625 42.390625 31.78125 42.390625 
Q 38.140625 42.390625 41.71875 45.5625 
Q 45.3125 48.734375 45.3125 54.390625 
Q 45.3125 60.0625 41.71875 63.234375 
Q 38.140625 66.40625 31.78125 66.40625 
Q 25.390625 66.40625 21.84375 63.234375 
Q 18.3125 60.0625 18.3125 54.390625 
z
" id="DejaVuSans-56"/>
       <path d="M 10.6875 12.40625 
L 21 12.40625 
L 21 0 
L 10.6875 0 
z
" id="DejaVuSans-46"/>
       <path d="M 33.015625 40.375 
Q 26.375 40.375 22.484375 35.828125 
Q 18.609375 31.296875 18.609375 23.390625 
Q 18.609375 15.53125 22.484375 10.953125 
Q 26.375 6.390625 33.015625 6.390625 
Q 39.65625 6.390625 43.53125 10.953125 
Q 47.40625 15.53125 47.40625 23.390625 
Q 47.40625 31.296875 43.53125 35.828125 
Q 39.65625 40.375 33.015625 40.375 
z
M 52.59375 71.296875 
L 52.59375 62.3125 
Q 48.875 64.0625 45.09375 64.984375 
Q 41.3125 65.921875 37.59375 65.921875 
Q 27.828125 65.921875 22.671875 59.328125 
Q 17.53125 52.734375 16.796875 39.40625 
Q 19.671875 43.65625 24.015625 45.921875 
Q 28.375 48.1875 33.59375 48.1875 
Q 44.578125 48.1875 50.953125 41.515625 
Q 57.328125 34.859375 57.328125 23.390625 
Q 57.328125 12.15625 50.6875 5.359375 
Q 44.046875 -1.421875 33.015625 -1.421875 
Q 20.359375 -1.421875 13.671875 8.265625 
Q 6.984375 17.96875 6.984375 36.375 
Q 6.984375 53.65625 15.1875 63.9375 
Q 23.390625 74.21875 37.203125 74.21875 
Q 40.921875 74.21875 44.703125 73.484375 
Q 48.484375 72.75 52.59375 71.296875 
z
" id="DejaVuSans-54"/>
       <path d="M 72.703125 32.078125 
Q 68.453125 32.078125 66.03125 28.46875 
Q 63.625 24.859375 63.625 18.40625 
Q 63.625 12.0625 66.03125 8.421875 
Q 68.453125 4.78125 72.703125 4.78125 
Q 76.859375 4.78125 79.265625 8.421875 
Q 81.6875 12.0625 81.6875 18.40625 
Q 81.6875 24.8125 79.265625 28.4375 
Q 76.859375 32.078125 72.703125 32.078125 
z
M 72.703125 38.28125 
Q 80.421875 38.28125 84.953125 32.90625 
Q 89.5 27.546875 89.5 18.40625 
Q 89.5 9.28125 84.9375 3.921875 
Q 80.375 -1.421875 72.703125 -1.421875 
Q 64.890625 -1.421875 60.34375 3.921875 
Q 55.8125 9.28125 55.8125 18.40625 
Q 55.8125 27.59375 60.375 32.9375 
Q 64.9375 38.28125 72.703125 38.28125 
z
M 22.3125 68.015625 
Q 18.109375 68.015625 15.6875 64.375 
Q 13.28125 60.75 13.28125 54.390625 
Q 13.28125 47.953125 15.671875 44.328125 
Q 18.0625 40.71875 22.3125 40.71875 
Q 26.5625 40.71875 28.96875 44.328125 
Q 31.390625 47.953125 31.390625 54.390625 
Q 31.390625 60.6875 28.953125 64.34375 
Q 26.515625 68.015625 22.3125 68.015625 
z
M 66.40625 74.21875 
L 74.21875 74.21875 
L 28.609375 -1.421875 
L 20.796875 -1.421875 
z
M 22.3125 74.21875 
Q 30.03125 74.21875 34.609375 68.875 
Q 39.203125 63.53125 39.203125 54.390625 
Q 39.203125 45.171875 34.640625 39.84375 
Q 30.078125 34.515625 22.3125 34.515625 
Q 14.546875 34.515625 10.03125 39.859375 
Q 5.515625 45.21875 5.515625 54.390625 
Q 5.515625 63.484375 10.046875 68.84375 
Q 14.59375 74.21875 22.3125 74.21875 
z
" id="DejaVuSans-37"/>
      </defs>
      <use xlink:href="#DejaVuSans-49"/>
      <use x="63.623047" xlink:href="#DejaVuSans-115"/>
      <use x="115.722656" xlink:href="#DejaVuSans-116"/>
      <use x="154.931641" xlink:href="#DejaVuSans-32"/>
      <use x="186.71875" xlink:href="#DejaVuSans-80"/>
      <use x="247.021484" xlink:href="#DejaVuSans-67"/>
      <use x="316.845703" xlink:href="#DejaVuSans-58"/>
      <use x="350.537109" xlink:href="#DejaVuSans-32"/>
      <use x="382.324219" xlink:href="#DejaVuSans-56"/>
      <use x="445.947266" xlink:href="#DejaVuSans-53"/>
      <use x="509.570312" xlink:href="#DejaVuSans-46"/>
      <use x="541.357422" xlink:href="#DejaVuSans-54"/>
      <use x="604.980469" xlink:href="#DejaVuSans-54"/>
      <use x="668.603516" xlink:href="#DejaVuSans-32"/>
      <use x="700.390625" xlink:href="#DejaVuSans-37"/>
     </g>
    </g>
   </g>
   <g id="matplotlib.axis_2">
    <g id="ytick_1">
     <g id="line2d_11">
      <defs>
       <path d="M 0 0 
L -3.5 0 
" id="m60a226b7cd" style="stroke:#000000;stroke-width:0.8;"/>
      </defs>
      <g>
       <use style="stroke:#000000;stroke-width:0.8;" x="56.028488" xlink:href="#m60a226b7cd" y="277.111219"/>
      </g>
     </g>
     <g id="text_12">
      <!-- −20 -->
      <g transform="translate(27.9238 280.910437)scale(0.1 -0.1)">
       <use xlink:href="#DejaVuSans-8722"/>
       <use x="83.789062" xlink:href="#DejaVuSans-50"/>
       <use x="147.412109" xlink:href="#DejaVuSans-48"/>
      </g>
     </g>
    </g>
    <g id="ytick_2">
     <g id="line2d_12">
      <g>
       <use style="stroke:#000000;stroke-width:0.8;" x="56.028488" xlink:href="#m60a226b7cd" y="243.847219"/>
      </g>
     </g>
     <g id="text_13">
      <!-- −15 -->
      <g transform="translate(27.9238 247.646437)scale(0.1 -0.1)">
       <use xlink:href="#DejaVuSans-8722"/>
       <use x="83.789062" xlink:href="#DejaVuSans-49"/>
       <use x="147.412109" xlink:href="#DejaVuSans-53"/>
      </g>
     </g>
    </g>
    <g id="ytick_3">
     <g id="line2d_13">
      <g>
       <use style="stroke:#000000;stroke-width:0.8;" x="56.028488" xlink:href="#m60a226b7cd" y="210.583219"/>
      </g>
     </g>
     <g id="text_14">
      <!-- −10 -->
      <g transform="translate(27.9238 214.382437)scale(0.1 -0.1)">
       <use xlink:href="#DejaVuSans-8722"/>
       <use x="83.789062" xlink:href="#DejaVuSans-49"/>
       <use x="147.412109" xlink:href="#DejaVuSans-48"/>
      </g>
     </g>
    </g>
    <g id="ytick_4">
     <g id="line2d_14">
      <g>
       <use style="stroke:#000000;stroke-width:0.8;" x="56.028488" xlink:href="#m60a226b7cd" y="177.319219"/>
      </g>
     </g>
     <g id="text_15">
      <!-- −5 -->
      <g transform="translate(34.2863 181.118437)scale(0.1 -0.1)">
       <use xlink:href="#DejaVuSans-8722"/>
       <use x="83.789062" xlink:href="#DejaVuSans-53"/>
      </g>
     </g>
    </g>
    <g id="ytick_5">
     <g id="line2d_15">
      <g>
       <use style="stroke:#000000;stroke-width:0.8;" x="56.028488" xlink:href="#m60a226b7cd" y="144.055219"/>
      </g>
     </g>
     <g id="text_16">
      <!-- 0 -->
      <g transform="translate(42.665987 147.854437)scale(0.1 -0.1)">
       <use xlink:href="#DejaVuSans-48"/>
      </g>
     </g>
    </g>
    <g id="ytick_6">
     <g id="line2d_16">
      <g>
       <use style="stroke:#000000;stroke-width:0.8;" x="56.028488" xlink:href="#m60a226b7cd" y="110.791219"/>
      </g>
     </g>
     <g id="text_17">
      <!-- 5 -->
      <g transform="translate(42.665987 114.590437)scale(0.1 -0.1)">
       <use xlink:href="#DejaVuSans-53"/>
      </g>
     </g>
    </g>
    <g id="ytick_7">
     <g id="line2d_17">
      <g>
       <use style="stroke:#000000;stroke-width:0.8;" x="56.028488" xlink:href="#m60a226b7cd" y="77.527219"/>
      </g>
     </g>
     <g id="text_18">
      <!-- 10 -->
      <g transform="translate(36.303488 81.326437)scale(0.1 -0.1)">
       <use xlink:href="#DejaVuSans-49"/>
       <use x="63.623047" xlink:href="#DejaVuSans-48"/>
      </g>
     </g>
    </g>
    <g id="ytick_8">
     <g id="line2d_18">
      <g>
       <use style="stroke:#000000;stroke-width:0.8;" x="56.028488" xlink:href="#m60a226b7cd" y="44.263219"/>
      </g>
     </g>
     <g id="text_19">
      <!-- 15 -->
      <g transform="translate(36.303488 48.062437)scale(0.1 -0.1)">
       <use xlink:href="#DejaVuSans-49"/>
       <use x="63.623047" xlink:href="#DejaVuSans-53"/>
      </g>
     </g>
    </g>
    <g id="ytick_9">
     <g id="line2d_19">
      <g>
       <use style="stroke:#000000;stroke-width:0.8;" x="56.028488" xlink:href="#m60a226b7cd" y="10.999219"/>
      </g>
     </g>
     <g id="text_20">
      <!-- 20 -->
      <g transform="translate(36.303488 14.798437)scale(0.1 -0.1)">
       <use xlink:href="#DejaVuSans-50"/>
       <use x="63.623047" xlink:href="#DejaVuSans-48"/>
      </g>
     </g>
    </g>
    <g id="text_21">
     <!-- 2nd PC: 9.18 % -->
     <g transform="translate(20.3301 210.351019)rotate(-90)scale(0.1728 -0.1728)">
      <defs>
       <path d="M 54.890625 33.015625 
L 54.890625 0 
L 45.90625 0 
L 45.90625 32.71875 
Q 45.90625 40.484375 42.875 44.328125 
Q 39.84375 48.1875 33.796875 48.1875 
Q 26.515625 48.1875 22.3125 43.546875 
Q 18.109375 38.921875 18.109375 30.90625 
L 18.109375 0 
L 9.078125 0 
L 9.078125 54.6875 
L 18.109375 54.6875 
L 18.109375 46.1875 
Q 21.34375 51.125 25.703125 53.5625 
Q 30.078125 56 35.796875 56 
Q 45.21875 56 50.046875 50.171875 
Q 54.890625 44.34375 54.890625 33.015625 
z
" id="DejaVuSans-110"/>
       <path d="M 45.40625 46.390625 
L 45.40625 75.984375 
L 54.390625 75.984375 
L 54.390625 0 
L 45.40625 0 
L 45.40625 8.203125 
Q 42.578125 3.328125 38.25 0.953125 
Q 33.9375 -1.421875 27.875 -1.421875 
Q 17.96875 -1.421875 11.734375 6.484375 
Q 5.515625 14.40625 5.515625 27.296875 
Q 5.515625 40.1875 11.734375 48.09375 
Q 17.96875 56 27.875 56 
Q 33.9375 56 38.25 53.625 
Q 42.578125 51.265625 45.40625 46.390625 
z
M 14.796875 27.296875 
Q 14.796875 17.390625 18.875 11.75 
Q 22.953125 6.109375 30.078125 6.109375 
Q 37.203125 6.109375 41.296875 11.75 
Q 45.40625 17.390625 45.40625 27.296875 
Q 45.40625 37.203125 41.296875 42.84375 
Q 37.203125 48.484375 30.078125 48.484375 
Q 22.953125 48.484375 18.875 42.84375 
Q 14.796875 37.203125 14.796875 27.296875 
z
" id="DejaVuSans-100"/>
       <path d="M 10.984375 1.515625 
L 10.984375 10.5 
Q 14.703125 8.734375 18.5 7.8125 
Q 22.3125 6.890625 25.984375 6.890625 
Q 35.75 6.890625 40.890625 13.453125 
Q 46.046875 20.015625 46.78125 33.40625 
Q 43.953125 29.203125 39.59375 26.953125 
Q 35.25 24.703125 29.984375 24.703125 
Q 19.046875 24.703125 12.671875 31.3125 
Q 6.296875 37.9375 6.296875 49.421875 
Q 6.296875 60.640625 12.9375 67.421875 
Q 19.578125 74.21875 30.609375 74.21875 
Q 43.265625 74.21875 49.921875 64.515625 
Q 56.59375 54.828125 56.59375 36.375 
Q 56.59375 19.140625 48.40625 8.859375 
Q 40.234375 -1.421875 26.421875 -1.421875 
Q 22.703125 -1.421875 18.890625 -0.6875 
Q 15.09375 0.046875 10.984375 1.515625 
z
M 30.609375 32.421875 
Q 37.25 32.421875 41.125 36.953125 
Q 45.015625 41.5 45.015625 49.421875 
Q 45.015625 57.28125 41.125 61.84375 
Q 37.25 66.40625 30.609375 66.40625 
Q 23.96875 66.40625 20.09375 61.84375 
Q 16.21875 57.28125 16.21875 49.421875 
Q 16.21875 41.5 20.09375 36.953125 
Q 23.96875 32.421875 30.609375 32.421875 
z
" id="DejaVuSans-57"/>
      </defs>
      <use xlink:href="#DejaVuSans-50"/>
      <use x="63.623047" xlink:href="#DejaVuSans-110"/>
      <use x="127.001953" xlink:href="#DejaVuSans-100"/>
      <use x="190.478516" xlink:href="#DejaVuSans-32"/>
      <use x="222.265625" xlink:href="#DejaVuSans-80"/>
      <use x="282.568359" xlink:href="#DejaVuSans-67"/>
      <use x="352.392578" xlink:href="#DejaVuSans-58"/>
      <use x="386.083984" xlink:href="#DejaVuSans-32"/>
      <use x="417.871094" xlink:href="#DejaVuSans-57"/>
      <use x="481.494141" xlink:href="#DejaVuSans-46"/>
      <use x="513.28125" xlink:href="#DejaVuSans-49"/>
      <use x="576.904297" xlink:href="#DejaVuSans-56"/>
      <use x="640.527344" xlink:href="#DejaVuSans-32"/>
      <use x="672.314453" xlink:href="#DejaVuSans-37"/>
     </g>
    </g>
   </g>
   <g id="LineCollection_1"/>
   <g id="LineCollection_2"/>
   <g id="LineCollection_3"/>
   <g id="LineCollection_4"/>
   <g id="LineCollection_5"/>
   <g id="LineCollection_6">
    <path clip-path="url(#p901a3521d7)" d="M 127.454455 169.322532 
L 127.452488 169.323216 
L 122.803331 170.666419 
L 115.548488 172.186572 
L 103.644488 173.090763 
L 95.173832 170.666419 
L 96.03795 161.796019 
L 101.337434 152.925619 
L 103.644488 149.664293 
L 107.945175 144.055219 
L 114.239901 135.184819 
L 115.548488 133.230397 
L 120.729464 126.314419 
L 127.21252 117.444019 
L 127.452488 117.102899 
L 134.538102 108.573619 
L 139.356488 102.953498 
L 142.783926 99.703219 
L 151.260488 91.905887 
L 152.768664 90.832819 
L 163.164488 83.630375 
L 166.568527 81.962419 
L 175.068488 77.753533 
L 186.972488 73.946995 
L 190.403655 73.092019 
L 198.876488 71.093492 
L 210.780488 68.95632 
L 222.684488 67.234164 
L 234.588488 65.668707 
L 245.698544 64.221619 
L 246.492488 64.137619 
L 258.396488 62.768601 
L 270.300488 61.627084 
L 282.204488 60.851481 
L 294.108488 60.626848 
L 306.012488 61.129013 
L 317.916488 62.371515 
L 329.820488 64.120905 
L 330.102503 64.221619 
L 334.981825 73.092019 
L 330.912234 81.962419 
L 329.820488 83.38094 
L 320.153938 90.832819 
L 317.916488 91.802779 
L 306.012488 99.464665 
L 305.697239 99.703219 
L 294.108488 105.312879 
L 289.753547 108.573619 
L 282.204488 113.743957 
L 277.163187 117.444019 
L 270.300488 121.877339 
L 263.678715 126.314419 
L 258.396488 129.342634 
L 249.208103 135.184819 
L 246.492488 136.706491 
L 234.662213 144.055219 
L 234.588488 144.093157 
L 222.684488 146.039145 
L 210.780488 145.368415 
L 198.876488 146.847624 
L 186.972488 149.307541 
L 175.454559 152.925619 
L 175.068488 153.040966 
L 163.164488 156.796908 
L 151.332818 161.277185 
" style="fill:none;stroke:#39558c;stroke-width:1.5;"/>
   </g>
   <g id="LineCollection_7">
    <path clip-path="url(#p901a3521d7)" d="M 185.772003 10.999219 
L 186.972488 11.401816 
L 198.876488 15.496805 
L 210.780488 19.061938 
L 213.598147 19.869619 
L 222.684488 23.221538 
L 234.588488 27.010239 
L 240.79911 28.740019 
L 246.492488 30.605864 
L 258.396488 33.971294 
L 270.300488 36.62354 
L 275.314368 37.610419 
L 282.204488 39.01324 
L 294.108488 41.223583 
L 306.012488 43.36887 
L 317.916488 45.760285 
L 320.641235 46.480819 
L 329.820488 48.943002 
L 341.724488 52.877811 
L 343.586313 55.351219 
L 344.331505 64.221619 
L 342.480117 73.092019 
L 341.724488 75.324466 
L 334.809347 81.962419 
L 329.820488 88.444513 
L 326.722386 90.832819 
L 317.916488 94.650275 
L 310.252505 99.703219 
L 306.012488 101.618662 
L 295.847224 108.573619 
L 294.108488 109.614086 
L 283.407555 117.444019 
L 282.204488 118.263403 
L 271.049588 126.314419 
L 270.300488 126.806095 
L 258.396488 135.097741 
L 258.259535 135.184819 
L 257.484462 135.619124 
" style="fill:none;stroke:#33638d;stroke-width:1.5;"/>
    <path clip-path="url(#p901a3521d7)" d="M 235.46025 147.846139 
L 234.588488 148.294738 
L 227.097992 152.925619 
L 222.684488 154.564118 
L 211.126636 161.796019 
L 210.780488 161.912986 
L 198.876488 165.044242 
L 189.035536 170.666419 
L 186.972488 171.268601 
L 175.068488 174.783354 
L 164.542999 179.536819 
L 163.164488 179.847416 
L 151.260488 182.580074 
L 139.356488 187.173502 
L 135.998291 188.407219 
L 127.452488 190.291762 
L 115.548488 193.139522 
L 103.644488 195.85049 
L 96.898511 197.277619 
L 91.740488 197.935691 
L 79.836488 199.142965 
L 67.932488 200.027574 
L 56.028488 200.373314 
" style="fill:none;stroke:#33638d;stroke-width:1.5;"/>
   </g>
   <g id="LineCollection_8">
    <path clip-path="url(#p901a3521d7)" d="M 237.251635 10.999219 
L 246.492488 14.112899 
L 258.396488 17.566833 
L 267.681241 19.869619 
L 270.300488 20.697493 
L 282.204488 24.16888 
L 294.108488 27.10676 
L 301.070604 28.740019 
L 306.012488 30.092079 
L 317.916488 33.548579 
L 329.820488 37.385513 
L 330.318817 37.610419 
L 341.724488 42.587029 
L 346.307911 46.480819 
L 351.754295 55.351219 
L 347.765861 64.221619 
L 343.746321 73.092019 
L 341.724488 79.065367 
L 338.70646 81.962419 
L 330.308401 90.832819 
L 329.820488 91.203207 
L 317.916488 97.49777 
L 314.571404 99.703219 
L 306.012488 103.569741 
L 298.698893 108.573619 
L 294.108488 111.320537 
L 285.73971 117.444019 
L 282.204488 119.851783 
L 273.250332 126.314419 
L 270.300488 128.250566 
L 260.422942 135.184819 
L 258.396488 136.472094 
L 247.525129 144.055219 
L 246.492488 144.697316 
L 234.588488 152.496319 
L 233.894091 152.925619 
L 226.174355 155.791545 
" style="fill:none;stroke:#2d718e;stroke-width:1.5;"/>
    <path clip-path="url(#p901a3521d7)" d="M 203.872678 167.267627 
L 198.876488 170.154984 
L 197.981282 170.666419 
L 186.972488 173.879771 
L 177.399835 179.536819 
L 175.068488 180.298279 
L 163.164488 184.867915 
L 155.965672 188.407219 
L 151.260488 189.355381 
L 139.356488 193.229888 
L 130.420461 197.277619 
L 127.452488 197.786552 
L 115.548488 200.547738 
L 103.644488 204.090855 
L 92.846806 206.148019 
L 91.740488 206.265364 
L 79.836488 207.52284 
L 67.932488 208.719508 
L 56.028488 209.706957 
" style="fill:none;stroke:#2d718e;stroke-width:1.5;"/>
   </g>
   <g id="LineCollection_9">
    <path clip-path="url(#p901a3521d7)" d="M 270.403503 10.999219 
L 282.204488 14.518514 
L 294.108488 17.499415 
L 304.755388 19.869619 
L 305.866182 20.189311 
" style="fill:none;stroke:#287d8e;stroke-width:1.5;"/>
    <path clip-path="url(#p901a3521d7)" d="M 329.869476 27.855176 
L 331.842291 28.740019 
L 341.724488 33.61908 
L 346.474803 37.610419 
L 353.628488 43.599572 
L 354.15114 46.480819 
L 354.253388 55.351219 
L 353.628488 59.976996 
L 351.200217 64.221619 
L 345.012525 73.092019 
L 341.828694 81.962419 
L 341.724488 82.135099 
L 331.231891 90.832819 
L 329.820488 91.904255 
L 318.152967 99.703219 
L 317.916488 99.823193 
L 306.012488 105.520819 
L 301.550561 108.573619 
L 294.108488 113.026987 
L 288.071864 117.444019 
L 282.204488 121.440164 
L 275.451077 126.314419 
L 270.300488 129.695036 
L 262.480528 135.184819 
L 258.396488 137.779147 
L 249.398952 144.055219 
L 246.492488 145.862461 
L 236.124106 152.925619 
L 234.588488 153.545142 
L 222.684488 159.610177 
L 219.191128 161.796019 
L 210.780488 164.638061 
L 200.888542 170.666419 
L 198.876488 171.358853 
L 186.972488 176.49094 
L 181.818362 179.536819 
L 175.068488 181.741451 
L 163.879206 188.407219 
L 163.164488 188.633926 
L 151.260488 191.413149 
L 140.234033 197.277619 
L 139.356488 197.445077 
L 127.452488 199.768354 
L 115.548488 205.466669 
L 113.647406 206.148019 
L 103.644488 207.405351 
L 91.740488 210.488865 
L 79.836488 213.118012 
L 67.932488 214.569376 
L 63.935347 215.018419 
L 56.028488 215.613763 
" style="fill:none;stroke:#287d8e;stroke-width:1.5;"/>
   </g>
   <g id="LineCollection_10">
    <path clip-path="url(#p901a3521d7)" d="M 296.990779 10.999219 
L 306.012488 13.486588 
L 317.916488 16.686505 
L 328.914372 19.869619 
L 329.820488 20.205833 
L 341.724488 26.046522 
L 343.86363 27.684725 
" style="fill:none;stroke:#238a8d;stroke-width:1.5;"/>
    <path clip-path="url(#p901a3521d7)" d="M 355.563617 48.02341 
L 355.064373 55.351219 
L 353.761298 64.221619 
L 353.628488 64.647786 
L 346.278729 73.092019 
L 342.290657 81.962419 
L 341.724488 82.900616 
L 332.155382 90.832819 
L 329.820488 92.605303 
L 319.201759 99.703219 
L 317.916488 100.355281 
L 306.012488 107.471898 
L 304.402229 108.573619 
L 294.108488 114.733438 
L 290.404018 117.444019 
L 282.204488 123.028545 
L 277.651821 126.314419 
L 270.300488 131.139507 
L 264.538115 135.184819 
L 258.396488 139.086199 
L 251.272775 144.055219 
L 246.492488 147.027606 
L 237.834484 152.925619 
L 234.588488 154.235169 
L 222.827928 161.796019 
L 222.684488 161.854145 
L 210.780488 166.000598 
L 203.124332 170.666419 
L 198.876488 172.128284 
L 186.972488 179.10211 
L 186.236889 179.536819 
L 175.068488 183.184622 
L 166.30174 188.407219 
L 163.164488 189.402347 
L 151.260488 193.470916 
L 144.103075 197.277619 
L 139.356488 198.18339 
L 127.452488 201.750156 
L 118.877411 206.148019 
L 115.548488 206.650652 
L 103.644488 209.130494 
L 91.740488 214.712366 
L 90.563361 215.018419 
L 79.836488 215.815314 
L 67.932488 217.690646 
L 56.028488 219.534535 
" style="fill:none;stroke:#238a8d;stroke-width:1.5;"/>
   </g>
   <g id="LineCollection_11">
    <path clip-path="url(#p901a3521d7)" d="M 318.576997 10.999219 
L 329.820488 14.900304 
L 341.724488 19.703059 
L 341.981155 19.869619 
L 353.628488 28.734435 
L 353.631158 28.740019 
L 356.729788 37.610419 
L 357.186287 46.480819 
L 355.875359 55.351219 
L 354.214658 64.221619 
L 353.628488 66.102544 
L 347.544933 73.092019 
L 342.752621 81.962419 
L 341.724488 83.666133 
L 333.078872 90.832819 
L 329.820488 93.306351 
L 320.250551 99.703219 
L 317.916488 100.887368 
L 306.360731 108.573619 
L 306.012488 108.774962 
L 294.108488 116.439888 
L 292.736172 117.444019 
L 282.204488 124.616926 
L 279.852565 126.314419 
L 270.300488 132.583978 
L 266.595701 135.184819 
L 258.396488 140.393251 
L 253.146598 144.055219 
L 246.492488 148.192751 
L 239.544862 152.925619 
L 234.588488 154.925197 
L 223.901235 161.796019 
L 222.684488 162.289076 
L 210.780488 167.363136 
L 205.360123 170.666419 
L 198.876488 172.897716 
L 197.817178 173.545585 
" style="fill:none;stroke:#1f968b;stroke-width:1.5;"/>
    <path clip-path="url(#p901a3521d7)" d="M 175.254898 184.5541 
L 175.068488 184.627793 
L 168.724274 188.407219 
L 163.164488 190.170768 
L 151.260488 195.528684 
L 147.972116 197.277619 
L 139.356488 198.921703 
L 127.452488 203.731957 
L 122.741584 206.148019 
L 115.548488 207.234102 
L 103.644488 210.855637 
L 95.045755 215.018419 
L 91.740488 215.395267 
L 79.836488 217.022092 
L 67.932488 220.585052 
L 56.028487 223.455308 
" style="fill:none;stroke:#1f968b;stroke-width:1.5;"/>
   </g>
   <g id="LineCollection_12">
    <path clip-path="url(#p901a3521d7)" d="M 332.093256 10.999219 
L 341.724488 15.47295 
L 348.499722 19.869619 
L 353.628488 23.773136 
L 356.003469 28.740019 
L 359.144931 37.610419 
L 358.70386 46.480819 
L 356.688333 55.342475 
" style="fill:none;stroke:#20a386;stroke-width:1.5;"/>
    <path clip-path="url(#p901a3521d7)" d="M 346.003119 77.542659 
L 343.214584 81.962419 
L 341.724488 84.43165 
L 334.002363 90.832819 
L 329.820488 94.007399 
L 321.299343 99.703219 
L 317.916488 101.419456 
L 307.160689 108.573619 
L 306.012488 109.237472 
L 294.378346 117.444019 
L 294.108488 117.62073 
L 282.204488 126.205306 
L 282.053309 126.314419 
L 270.300488 134.028448 
L 268.653287 135.184819 
L 258.396488 141.700303 
L 255.020421 144.055219 
L 246.492488 149.357896 
L 241.25524 152.925619 
L 234.588488 155.615224 
L 224.974541 161.796019 
L 222.684488 162.724007 
L 210.780488 168.725673 
L 207.595914 170.666419 
L 198.876488 173.667147 
L 189.279186 179.536819 
L 186.972488 180.383702 
L 175.068488 186.070965 
L 171.146809 188.407219 
L 163.164488 190.939189 
L 151.473206 197.277619 
L 151.260488 197.326214 
L 139.356488 199.660015 
L 127.452488 205.713759 
L 126.605756 206.148019 
L 115.548488 207.817552 
L 103.644488 212.58078 
L 98.609248 215.018419 
L 91.740488 215.801556 
L 79.836488 218.228871 
L 67.932488 223.479457 
L 66.299289 223.888819 
L 56.028488 224.429698 
" style="fill:none;stroke:#20a386;stroke-width:1.5;"/>
   </g>
   <g id="LineCollection_13">
    <path clip-path="url(#p901a3521d7)" d="M 341.200005 10.999219 
L 341.724488 11.242842 
L 353.628488 19.211507 
L 354.060876 19.869619 
L 358.375781 28.740019 
L 361.560073 37.610419 
L 360.221434 46.480819 
L 357.49733 55.351219 
L 355.121377 64.221619 
L 353.628488 69.012061 
L 350.077341 73.092019 
L 343.676547 81.962419 
L 341.724488 85.197167 
L 334.925853 90.832819 
L 329.820488 94.708447 
L 322.348135 99.703219 
L 317.916488 101.951544 
L 307.960647 108.573619 
L 306.012488 109.699981 
L 295.03403 117.444019 
L 294.108488 118.050092 
L 282.753877 126.314419 
L 282.204488 126.702519 
L 270.416001 135.184819 
L 270.300488 135.268014 
L 258.396488 143.007355 
L 256.894244 144.055219 
L 246.492488 150.523041 
L 242.965617 152.925619 
L 234.588488 156.305251 
L 226.047847 161.796019 
L 222.684488 163.158938 
L 210.780488 170.088211 
L 209.831705 170.666419 
L 198.876488 174.436579 
L 190.537258 179.536819 
L 186.972488 180.845591 
L 186.061156 181.356113 
" style="fill:none;stroke:#29af7f;stroke-width:1.5;"/>
    <path clip-path="url(#p901a3521d7)" d="M 163.222396 191.689242 
L 163.164488 191.70761 
L 152.890565 197.277619 
L 151.260488 197.65001 
L 139.356488 200.398328 
L 128.537341 206.148019 
L 127.452488 206.332954 
L 115.548488 208.401002 
L 103.644488 214.305923 
L 102.172741 215.018419 
L 91.740488 216.207846 
L 79.836488 219.43565 
L 70.179371 223.888819 
L 67.932488 224.0923 
L 56.028488 225.037815 
" style="fill:none;stroke:#29af7f;stroke-width:1.5;"/>
   </g>
   <g id="LineCollection_14">
    <path clip-path="url(#p901a3521d7)" d="M 346.034424 10.999219 
L 353.628488 16.124775 
L 356.088903 19.869619 
L 360.748092 28.740019 
L 363.975216 37.610419 
L 361.739007 46.480819 
L 358.308315 55.351219 
L 355.574737 64.221619 
L 353.628488 70.466819 
L 351.343545 73.092019 
L 344.325485 81.732226 
" style="fill:none;stroke:#3dbc74;stroke-width:1.5;"/>
    <path clip-path="url(#p901a3521d7)" d="M 325.638038 98.205184 
L 323.396927 99.703219 
L 317.916488 102.483631 
L 308.760605 108.573619 
L 306.012488 110.162491 
L 295.689714 117.444019 
L 294.108488 118.479454 
L 283.343791 126.314419 
L 282.204488 127.119246 
L 270.995157 135.184819 
L 270.300488 135.685138 
L 258.512975 144.055219 
L 258.396488 144.13314 
L 246.492488 151.688186 
L 244.675995 152.925619 
L 234.588488 156.995278 
L 227.121153 161.796019 
L 222.684488 163.59387 
L 211.187474 170.666419 
L 210.780488 170.814942 
L 198.876488 175.20601 
L 191.795329 179.536819 
L 186.972488 181.307481 
L 175.356536 188.407219 
L 175.068488 188.510146 
L 163.164488 192.476031 
L 154.307923 197.277619 
L 151.260488 197.973805 
L 139.356488 201.136641 
L 129.926619 206.148019 
L 127.452488 206.569785 
L 115.548488 208.984453 
L 104.283856 215.018419 
L 103.644488 215.112581 
L 91.740488 216.614136 
L 79.836488 220.642428 
L 72.796384 223.888819 
L 67.932488 224.329301 
L 56.028488 225.645932 
" style="fill:none;stroke:#3dbc74;stroke-width:1.5;"/>
   </g>
   <g id="LineCollection_15">
    <path clip-path="url(#p901a3521d7)" d="M 350.60775 10.999219 
L 353.628488 13.038043 
L 358.116931 19.869619 
L 363.120404 28.740019 
L 365.532488 35.313859 
L 365.72504 37.610419 
L 365.532488 39.309055 
L 363.256581 46.480819 
L 359.119301 55.351219 
L 356.028097 64.221619 
L 353.628488 71.921577 
L 352.609749 73.092019 
L 344.600473 81.962419 
L 341.724488 86.728202 
L 336.772834 90.832819 
L 329.820488 96.110543 
L 324.445719 99.703219 
L 317.916488 103.015719 
L 309.560562 108.573619 
L 306.012488 110.625001 
L 296.345398 117.444019 
L 294.108488 118.908816 
L 283.933704 126.314419 
L 282.204488 127.535973 
L 271.574314 135.184819 
L 270.300488 136.102262 
L 259.100407 144.055219 
L 258.396488 144.526086 
L 246.492488 152.853331 
L 246.386373 152.925619 
L 234.588488 157.685306 
L 228.194459 161.796019 
L 222.684488 164.028801 
L 211.89449 170.666419 
L 210.780488 171.072958 
L 198.876488 175.975442 
L 198.276242 176.342549 
" style="fill:none;stroke:#56c667;stroke-width:1.5;"/>
    <path clip-path="url(#p901a3521d7)" d="M 176.22159 188.340382 
L 176.112237 188.407219 
L 175.068488 188.78018 
L 163.164488 193.244452 
L 155.725282 197.277619 
L 151.260488 198.2976 
L 139.356488 201.874954 
L 131.315896 206.148019 
L 127.452488 206.806616 
L 115.548488 209.567903 
L 105.373081 215.018419 
L 103.644488 215.272996 
L 91.740488 217.020425 
L 79.836488 221.849207 
L 75.413397 223.888819 
L 67.932488 224.566302 
L 56.028488 226.254049 
" style="fill:none;stroke:#56c667;stroke-width:1.5;"/>
   </g>
   <g id="LineCollection_16">
    <path clip-path="url(#p901a3521d7)" d="M 354.187785 10.999219 
L 360.144958 19.869619 
L 365.492715 28.740019 
L 365.532488 28.848413 
L 366.267128 37.610419 
L 365.532488 44.091184 
L 364.774154 46.480819 
L 359.930286 55.351219 
L 356.481456 64.221619 
L 353.674115 73.092019 
L 353.628488 73.184537 
L 345.062436 81.962419 
L 341.724488 87.493719 
L 337.696325 90.832819 
L 329.820488 96.81159 
L 325.494511 99.703219 
L 317.916488 103.547807 
L 310.36052 108.573619 
L 306.012488 111.08751 
L 297.001082 117.444019 
L 294.108488 119.338178 
L 284.523617 126.314419 
L 282.204488 127.9527 
L 272.153471 135.184819 
L 270.300488 136.519386 
L 259.687839 144.055219 
L 258.396488 144.919032 
L 247.016349 152.925619 
L 246.492488 153.140951 
L 234.588488 158.375333 
L 229.267765 161.796019 
L 222.684488 164.463732 
L 212.601507 170.666419 
L 210.780488 171.330973 
L 198.876488 176.744873 
L 194.311472 179.536819 
L 187.683594 181.970183 
" style="fill:none;stroke:#75d054;stroke-width:1.5;"/>
    <path clip-path="url(#p901a3521d7)" d="M 165.202392 193.163291 
L 163.164488 194.012873 
L 157.14264 197.277619 
L 151.260488 198.621395 
L 139.356488 202.613267 
L 132.705173 206.148019 
L 127.452488 207.043447 
L 115.548488 210.151353 
L 106.462307 215.018419 
L 103.644488 215.433411 
L 91.740488 217.426715 
L 79.836488 223.055986 
L 78.030411 223.888819 
L 67.932488 224.803303 
L 56.028488 226.862166 
" style="fill:none;stroke:#75d054;stroke-width:1.5;"/>
   </g>
   <g id="LineCollection_17">
    <path clip-path="url(#p901a3521d7)" d="M 355.835258 10.999219 
L 362.172985 19.869619 
L 365.532488 25.436064 
L 366.108315 28.740019 
L 366.809217 37.610419 
L 365.711486 46.480819 
L 365.532488 47.173347 
L 360.741272 55.351219 
L 356.934816 64.221619 
L 353.907578 73.092019 
L 353.628488 73.657924 
L 345.5244 81.962419 
L 341.724488 88.259236 
L 338.619815 90.832819 
L 329.820488 97.512638 
L 326.543303 99.703219 
L 317.916488 104.079895 
L 311.160478 108.573619 
L 306.012488 111.55002 
L 297.656767 117.444019 
L 294.108488 119.76754 
L 285.113531 126.314419 
L 282.204488 128.369428 
L 272.732628 135.184819 
L 270.300488 136.93651 
L 260.275271 144.055219 
L 258.396488 145.311978 
L 247.574862 152.925619 
L 246.492488 153.370527 
L 234.588488 159.06536 
L 230.341072 161.796019 
L 222.684488 164.898663 
L 213.308524 170.666419 
L 210.780488 171.588988 
L 198.876488 177.514305 
L 195.569543 179.536819 
L 188.51501 182.126826 
" style="fill:none;stroke:#95d840;stroke-width:1.5;"/>
    <path clip-path="url(#p901a3521d7)" d="M 166.082352 193.442702 
L 163.164488 194.781294 
L 158.559999 197.277619 
L 151.260488 198.945191 
L 139.356488 203.351579 
L 134.09445 206.148019 
L 127.452488 207.280278 
L 115.548488 210.734803 
L 107.551533 215.018419 
L 103.644488 215.593826 
L 91.740488 217.833004 
L 80.078925 223.888819 
L 79.836488 223.920164 
L 67.932488 225.040305 
L 56.028488 227.470283 
" style="fill:none;stroke:#95d840;stroke-width:1.5;"/>
   </g>
   <g id="LineCollection_18">
    <path clip-path="url(#p901a3521d7)" d="M 357.482731 10.999219 
L 364.201012 19.869619 
L 365.532488 22.075774 
L 366.693962 28.740019 
L 367.351305 37.610419 
L 366.069269 46.480819 
L 365.532488 48.557575 
L 361.552258 55.351219 
L 357.388176 64.221619 
L 354.14104 73.092019 
L 353.628488 74.131311 
L 345.986363 81.962419 
L 341.724488 89.024753 
L 339.543306 90.832819 
L 329.820488 98.213686 
L 327.592095 99.703219 
L 317.916488 104.611982 
L 311.960436 108.573619 
L 306.012488 112.01253 
L 298.312451 117.444019 
L 294.108488 120.196901 
L 285.703444 126.314419 
L 282.204488 128.786155 
L 273.311785 135.184819 
L 270.300488 137.353633 
L 260.862703 144.055219 
L 258.396488 145.704924 
L 248.133375 152.925619 
L 246.492488 153.600103 
L 234.588488 159.755387 
L 231.414378 161.796019 
L 222.684488 165.333594 
L 214.01554 170.666419 
L 210.780488 171.847003 
L 198.876488 178.283736 
L 196.827615 179.536819 
L 189.346425 182.283469 
" style="fill:none;stroke:#bade28;stroke-width:1.5;"/>
    <path clip-path="url(#p901a3521d7)" d="M 166.945432 193.656882 
L 163.164488 195.549716 
L 159.977357 197.277619 
L 151.260488 199.268986 
L 139.356488 204.089892 
L 135.483727 206.148019 
L 127.452488 207.517109 
L 115.548488 211.318253 
L 108.640759 215.018419 
L 103.644488 215.754241 
L 91.740488 218.239294 
L 80.861309 223.888819 
L 79.836488 224.021319 
L 67.932488 225.277306 
L 56.028488 228.0784 
" style="fill:none;stroke:#bade28;stroke-width:1.5;"/>
   </g>
   <g id="LineCollection_19">
    <path clip-path="url(#p901a3521d7)" d="M 359.130205 10.999219 
L 365.532488 19.149299 
L 365.701295 19.869619 
L 367.279608 28.740019 
L 367.893393 37.610419 
L 366.427052 46.480819 
L 365.532488 49.941803 
L 362.363243 55.351219 
L 357.841535 64.221619 
L 354.374502 73.092019 
L 353.628488 74.604698 
L 346.448326 81.962419 
L 341.724488 89.79027 
L 340.466796 90.832819 
L 329.820488 98.914734 
L 328.640887 99.703219 
L 317.916488 105.14407 
L 312.760394 108.573619 
L 306.012488 112.475039 
L 298.968135 117.444019 
L 294.108488 120.626263 
L 286.293358 126.314419 
L 282.204488 129.202882 
L 273.890942 135.184819 
L 270.300488 137.770757 
L 261.450135 144.055219 
L 258.396488 146.09787 
L 248.691887 152.925619 
L 246.492488 153.829678 
L 234.588488 160.445415 
L 232.487684 161.796019 
L 222.684488 165.768526 
L 214.722557 170.666419 
L 210.780488 172.105019 
L 198.876488 179.053168 
L 198.085686 179.536819 
L 190.17784 182.440111 
" style="fill:none;stroke:#dde318;stroke-width:1.5;"/>
    <path clip-path="url(#p901a3521d7)" d="M 167.789039 193.809355 
L 163.164488 196.318137 
L 161.394716 197.277619 
L 151.260488 199.592781 
L 139.356488 204.828205 
L 136.873004 206.148019 
L 127.452488 207.75394 
L 115.548488 211.901703 
L 109.729984 215.018419 
L 103.644488 215.914656 
L 91.740488 218.645583 
L 81.643693 223.888819 
L 79.836488 224.122474 
L 67.932488 225.514307 
L 56.028488 228.686517 
" style="fill:none;stroke:#dde318;stroke-width:1.5;"/>
   </g>
   <g id="LineCollection_20">
    <path clip-path="url(#p901a3521d7)" d="M 360.777678 10.999219 
L 365.532488 17.052072 
L 366.192783 19.869619 
L 367.865254 28.740019 
L 368.435482 37.610419 
L 366.784836 46.480819 
L 365.532488 51.326032 
L 363.174229 55.351219 
L 358.294895 64.221619 
L 354.607965 73.092019 
L 353.628488 75.078086 
L 346.910289 81.962419 
L 341.724488 90.555787 
L 341.390287 90.832819 
L 329.820488 99.615782 
L 329.689679 99.703219 
L 317.916488 105.676158 
L 313.560352 108.573619 
L 306.012488 112.937549 
L 299.623819 117.444019 
L 294.108488 121.055625 
L 286.883271 126.314419 
L 282.204488 129.619609 
L 274.470099 135.184819 
L 270.300488 138.187881 
L 262.037567 144.055219 
L 258.396488 146.490816 
L 249.2504 152.925619 
L 246.492488 154.059254 
L 234.588488 161.135442 
L 233.56099 161.796019 
L 222.684488 166.203457 
L 215.429574 170.666419 
L 210.780488 172.363034 
L 199.033412 179.536819 
L 198.876488 179.596491 
L 190.996881 182.563474 
" style="fill:none;stroke:#fde725;stroke-width:1.5;"/>
    <path clip-path="url(#p901a3521d7)" d="M 168.611061 193.903803 
L 163.164488 197.086558 
L 162.812074 197.277619 
L 151.260488 199.916577 
L 139.356488 205.566518 
L 138.262282 206.148019 
L 127.452488 207.990771 
L 115.548488 212.485153 
L 110.81921 215.018419 
L 103.644488 216.075071 
L 91.740488 219.051873 
L 82.426077 223.888819 
L 79.836488 224.22363 
L 67.932488 225.751308 
L 56.028488 229.294634 
" style="fill:none;stroke:#fde725;stroke-width:1.5;"/>
   </g>
   <g id="LineCollection_21">
    <path clip-path="url(#p901a3521d7)" d="M 362.425152 10.999219 
L 365.532488 14.954845 
L 366.684271 19.869619 
L 368.450901 28.740019 
L 368.97757 37.610419 
L 367.142619 46.480819 
L 365.532488 52.71026 
L 363.985214 55.351219 
L 358.748255 64.221619 
L 354.841427 73.092019 
L 353.628488 75.551473 
L 347.372252 81.962419 
L 341.844143 90.832819 
L 341.724488 90.952186 
L 341.565269 91.071423 
" style="fill:none;stroke:#440154;stroke-width:1.5;"/>
    <path clip-path="url(#p901a3521d7)" d="M 317.38226 106.563584 
L 314.360309 108.573619 
L 306.012488 113.400059 
L 300.279503 117.444019 
L 294.108488 121.484987 
L 287.473184 126.314419 
L 282.204488 130.036336 
L 275.049255 135.184819 
L 270.300488 138.605005 
L 262.624999 144.055219 
L 258.396488 146.883762 
L 249.808913 152.925619 
L 246.492488 154.28883 
L 234.604004 161.796019 
L 234.588488 161.802648 
L 222.684488 166.638388 
L 216.13659 170.666419 
L 210.780488 172.621049 
L 199.455912 179.536819 
L 198.876488 179.75715 
L 186.972488 184.540706 
L 180.646448 188.407219 
L 175.068488 190.40038 
L 163.505615 197.277619 
L 163.164488 197.376202 
L 151.260488 200.240372 
L 139.493469 206.148019 
L 139.356488 206.171952 
L 127.452488 208.227602 
L 115.548488 213.068604 
L 111.908436 215.018419 
L 103.644488 216.235487 
L 91.740488 219.458163 
L 83.208461 223.888819 
L 79.836488 224.324785 
L 67.932488 225.988309 
L 56.028488 229.902751 
" style="fill:none;stroke:#440154;stroke-width:1.5;"/>
   </g>
   <g id="LineCollection_22">
    <path clip-path="url(#p901a3521d7)" d="M 395.523458 10.999219 
L 397.881017 19.869619 
L 400.338366 28.740019 
L 401.244488 33.935878 
L 401.568741 37.610419 
L 401.244488 38.69738 
L 396.959264 46.480819 
L 390.51315 55.351219 
L 389.340488 56.863796 
L 382.880706 64.221619 
L 377.436488 72.017501 
L 376.490723 73.092019 
L 368.374236 81.962419 
L 365.532488 85.661484 
L 360.311054 90.832819 
L 353.628488 97.628396 
L 351.108773 99.703219 
L 341.724488 106.09004 
L 338.236426 108.573619 
L 329.820488 112.988554 
L 323.497099 117.444019 
L 317.916488 120.414768 
L 309.610976 126.314419 
L 306.012488 128.553306 
L 296.871798 135.184819 
L 294.108488 137.158756 
L 284.783355 144.055219 
L 282.204488 145.7676 
L 272.457469 152.925619 
L 270.300488 154.518405 
L 260.165703 161.796019 
L 258.396488 163.035224 
L 246.492488 170.050084 
L 245.514876 170.666419 
L 234.588488 175.209808 
L 227.365483 179.536819 
L 222.684488 181.192931 
L 210.802919 188.407219 
L 210.780488 188.416142 
L 198.876488 193.181236 
L 192.145149 197.277619 
L 186.972488 198.828443 
L 175.068488 204.938349 
L 172.956656 206.148019 
L 163.164488 208.546663 
L 151.260488 214.857424 
L 150.919819 215.018419 
L 139.356488 217.113375 
L 127.452488 220.930915 
L 120.740239 223.888819 
L 115.548488 224.716196 
L 106.923937 226.551753 
" style="fill:none;stroke:#440154;stroke-width:1.5;"/>
    <path clip-path="url(#p901a3521d7)" d="M 75.936584 235.36714 
L 67.932488 237.435332 
L 57.980885 241.629619 
L 56.028488 241.91891 
" style="fill:none;stroke:#440154;stroke-width:1.5;"/>
   </g>
   <g id="LineCollection_23">
    <path clip-path="url(#p901a3521d7)" d="M 413.148488 69.125206 
L 408.316858 73.092019 
L 401.244488 78.912865 
L 397.70915 81.962419 
L 389.340488 88.203764 
L 386.247033 90.832819 
L 377.436488 95.932969 
L 372.495352 99.703219 
L 365.532488 103.695066 
L 358.630575 108.573619 
L 353.628488 111.264649 
L 344.595819 117.444019 
L 341.724488 119.01349 
L 331.086193 126.314419 
L 329.820488 127.074023 
L 318.35165 135.184819 
L 317.916488 135.47263 
L 309.081575 141.896523 
" style="fill:none;stroke:#440154;stroke-width:1.5;"/>
    <path clip-path="url(#p901a3521d7)" d="M 279.264601 162.049563 
L 270.300488 169.515973 
L 268.731857 170.666419 
L 258.396488 177.726384 
L 255.535837 179.536819 
L 246.492488 183.642943 
L 238.541614 188.407219 
L 234.588488 189.834013 
L 222.684488 196.70379 
L 221.740724 197.277619 
L 210.780488 200.205321 
L 200.543054 206.148019 
L 198.876488 206.549179 
L 186.972488 210.264478 
L 178.567356 215.018419 
L 175.068488 215.884584 
L 163.164488 220.221206 
L 156.408305 223.888819 
L 151.260488 225.106124 
L 139.356488 229.490533 
L 132.311511 232.759219 
L 127.452488 233.73496 
L 115.548488 236.596772 
L 103.644488 241.363784 
L 102.986519 241.629619 
L 91.740488 243.473598 
L 79.836488 246.638072 
L 70.131496 250.500019 
L 67.932488 250.866333 
L 56.028488 253.054131 
" style="fill:none;stroke:#440154;stroke-width:1.5;"/>
   </g>
   <g id="LineCollection_24">
    <path clip-path="url(#p901a3521d7)" d="M 413.148488 90.968488 
L 401.244488 96.226102 
L 396.011842 99.703219 
L 389.340488 102.800826 
L 380.816144 108.573619 
L 377.436488 110.265141 
L 366.897282 117.444019 
L 365.532488 118.179193 
L 353.731996 126.314419 
L 353.628488 126.37489 
L 341.724488 133.563513 
L 339.422461 135.184819 
L 329.820488 141.484531 
L 326.258232 144.055219 
L 317.916488 149.299764 
L 312.812335 152.925619 
L 306.012488 156.920888 
L 299.125988 161.796019 
L 294.108488 165.056566 
L 286.524415 170.666419 
L 285.901117 171.149525 
" style="fill:none;stroke:#440154;stroke-width:1.5;"/>
    <path clip-path="url(#p901a3521d7)" d="M 253.211523 193.004134 
L 246.492488 197.049978 
L 246.143433 197.277619 
L 234.588488 200.456119 
L 225.431769 206.148019 
L 222.684488 206.930902 
L 210.780488 211.912251 
L 205.27297 215.018419 
L 198.876488 216.579663 
L 186.972488 222.393941 
L 184.350281 223.888819 
L 175.068488 226.285696 
L 163.66341 232.759219 
L 163.164488 232.890721 
L 151.260488 236.134988 
L 141.32369 241.629619 
L 139.356488 242.143331 
L 127.452488 245.846422 
L 118.176108 250.500019 
L 115.548488 251.128215 
L 103.644488 254.121291 
L 91.740488 258.940412 
L 90.658775 259.370419 
L 79.836488 261.316948 
L 67.932488 264.629016 
L 58.692786 268.240819 
L 56.028488 268.725703 
" style="fill:none;stroke:#440154;stroke-width:1.5;"/>
   </g>
   <g id="LineCollection_25">
    <path clip-path="url(#p901a3521d7)" d="M 413.148488 103.119364 
L 404.608466 108.573619 
L 401.244488 110.058588 
L 390.036681 117.444019 
L 389.340488 117.792017 
L 377.436488 124.754446 
L 375.155582 126.314419 
L 365.532488 131.854207 
L 360.759174 135.184819 
L 353.628488 139.636175 
L 347.455617 144.055219 
L 341.724488 147.732274 
L 334.478908 152.925619 
L 329.820488 155.798754 
L 321.268388 161.796019 
L 317.916488 163.838404 
L 308.240891 170.666419 
L 306.012488 172.143369 
L 295.940686 179.536819 
L 294.108488 180.882868 
L 284.142248 188.407219 
L 282.204488 189.461483 
L 278.18679 191.625753 
" style="fill:none;stroke:#440154;stroke-width:1.5;"/>
    <path clip-path="url(#p901a3521d7)" d="M 239.024524 209.160145 
L 234.588488 210.716613 
L 227.525249 215.018419 
L 222.684488 216.445718 
L 210.780488 223.198427 
L 209.62161 223.888819 
L 198.876488 227.038478 
L 189.122076 232.759219 
L 186.972488 233.405903 
L 175.068488 237.784495 
L 168.356627 241.629619 
L 163.164488 243.08793 
L 151.260488 248.896053 
L 148.423361 250.500019 
L 139.356488 253.073863 
L 128.199221 259.370419 
L 127.452488 259.589422 
L 115.548488 263.216907 
L 106.135154 268.240819 
L 103.644488 268.930306 
L 91.740488 272.647084 
L 82.123581 277.111219 
" style="fill:none;stroke:#440154;stroke-width:1.5;"/>
   </g>
   <g id="LineCollection_26">
    <path clip-path="url(#p901a3521d7)" d="M 413.148488 117.882653 
L 401.244488 124.461243 
L 398.466957 126.314419 
L 389.340488 131.375113 
L 383.806875 135.184819 
L 377.436488 138.916041 
L 370.106454 144.055219 
L 365.532488 146.79898 
L 356.888411 152.925619 
L 353.628488 154.909987 
L 343.88833 161.796019 
L 341.724488 163.162283 
L 331.165985 170.666419 
L 329.820488 171.565221 
L 318.674044 179.536819 
L 317.916488 180.054065 
L 306.54527 188.407219 
L 306.012488 188.779878 
L 294.341867 197.143266 
" style="fill:none;stroke:#450457;stroke-width:1.5;"/>
    <path clip-path="url(#p901a3521d7)" d="M 251.417018 215.162899 
L 246.492488 216.551181 
L 234.588488 222.84883 
L 232.845958 223.888819 
L 222.684488 226.941352 
L 212.983637 232.759219 
L 210.780488 233.447072 
L 198.876488 238.56461 
L 193.830312 241.629619 
L 186.972488 243.851812 
L 175.81076 250.500019 
L 175.068488 250.745243 
L 163.164488 254.739904 
L 155.157235 259.370419 
L 151.260488 260.577225 
L 139.356488 266.207917 
L 135.823705 268.240819 
L 127.452488 270.875123 
L 116.587082 277.111219 
" style="fill:none;stroke:#450457;stroke-width:1.5;"/>
   </g>
   <g id="LineCollection_27">
    <path clip-path="url(#p901a3521d7)" d="M 413.148488 131.819955 
L 408.182599 135.184819 
L 401.244488 139.145954 
L 394.118365 144.055219 
L 389.340488 146.751879 
L 380.408017 152.925619 
L 377.436488 154.653322 
L 367.190602 161.796019 
L 365.532488 162.813345 
L 354.417603 170.666419 
L 353.628488 171.181829 
L 342.02246 179.536819 
L 341.724488 179.738286 
L 329.831953 188.407219 
L 329.820488 188.415726 
L 317.916488 196.952197 
L 317.471106 197.277619 
L 306.012488 202.092066 
L 304.768317 202.845982 
" style="fill:none;stroke:#482475;stroke-width:1.5;"/>
    <path clip-path="url(#p901a3521d7)" d="M 259.312665 223.951428 
L 258.396488 224.214147 
L 246.492488 228.188089 
L 238.581903 232.759219 
L 234.588488 233.977227 
L 222.684488 239.684051 
L 219.385321 241.629619 
L 210.780488 244.380405 
L 200.482401 250.500019 
L 198.876488 251.027437 
L 186.972488 255.948159 
L 181.320735 259.370419 
L 175.068488 261.531089 
L 163.984604 268.240819 
L 163.164488 268.531755 
L 151.260488 272.973342 
L 144.179406 277.111219 
" style="fill:none;stroke:#482475;stroke-width:1.5;"/>
   </g>
   <g id="LineCollection_28">
    <path clip-path="url(#p901a3521d7)" d="M 413.148488 147.431581 
L 405.077877 152.925619 
L 401.244488 155.077871 
L 391.46891 161.796019 
L 389.340488 163.054135 
L 378.436215 170.666419 
L 377.436488 171.294079 
L 365.828149 179.536819 
L 365.532488 179.732196 
L 353.628488 188.011106 
L 353.08079 188.407219 
L 341.724488 196.346623 
L 340.473516 197.277619 
L 329.820488 203.36224 
L 325.574297 206.148019 
L 318.616583 208.646796 
" style="fill:none;stroke:#fde725;stroke-width:1.5;"/>
    <path clip-path="url(#p901a3521d7)" d="M 269.921692 231.532788 
L 267.748231 232.759219 
L 258.396488 235.579056 
L 247.748042 241.629619 
L 246.492488 242.018193 
L 234.588488 246.3499 
L 227.4364 250.500019 
L 222.684488 252.053875 
L 210.780488 258.41598 
L 209.149513 259.370419 
L 198.876488 262.815215 
L 189.649189 268.240819 
L 186.972488 269.162711 
L 175.068488 274.854516 
L 171.339296 277.111219 
" style="fill:none;stroke:#fde725;stroke-width:1.5;"/>
   </g>
   <g id="line2d_20">
    <path clip-path="url(#p901a3521d7)" d="M 386.231345 49.123884 
L 382.624098 80.209629 
L 378.861413 105.816484 
L 375.430524 123.249283 
L 372.214108 135.078661 
L 369.131121 143.167772 
L 366.128647 148.814599 
L 363.196922 152.757204 
L 360.281015 155.565296 
L 357.386647 157.572822 
L 354.49673 159.032476 
L 351.574571 160.144083 
L 348.610029 161.041422 
L 345.601925 161.780868 
L 342.566301 162.360911 
L 339.529217 162.821739 
L 336.430117 163.220109 
L 333.316078 163.554298 
L 330.189612 163.818508 
L 327.066982 164.000466 
L 323.921474 164.119429 
L 320.761744 164.169006 
L 317.535156 164.177928 
L 314.25238 164.135064 
L 310.917571 164.007853 
L 307.563116 163.833535 
L 304.220519 163.610949 
L 300.840286 163.367027 
L 297.471011 163.073589 
L 294.046609 162.717297 
L 290.611088 162.302809 
L 287.148897 161.828737 
L 283.685623 161.3001 
L 280.198925 160.740252 
L 276.696485 160.12631 
L 273.116322 159.441004 
L 269.486041 158.714297 
L 265.833903 157.913519 
L 262.162219 157.024462 
L 258.516885 156.1344 
L 254.891531 155.236215 
L 251.253538 154.279838 
L 247.581654 153.253392 
L 243.919113 152.218402 
L 240.298739 151.184186 
L 236.576162 150.017891 
L 232.742383 148.706527 
L 229.009487 147.485243 
L 225.422404 146.390869 
L 222.067449 145.415496 
L 221.757164 145.331026 
L 221.463765 145.262954 
L 221.180955 145.206276 
L 220.902282 145.156318 
L 220.626795 145.109272 
L 220.355124 145.062565 
L 220.082122 145.01745 
L 219.807015 144.969479 
L 219.535891 144.919241 
L 219.264425 144.868236 
L 218.994436 144.818379 
L 218.72681 144.769793 
L 218.459167 144.720174 
L 218.191469 144.669585 
L 217.925011 144.620238 
L 217.663739 144.570903 
L 217.404678 144.525368 
L 217.144889 144.480958 
L 216.886392 144.435476 
L 216.628168 144.384833 
L 216.369405 144.332212 
L 216.1131 144.280742 
L 215.862167 144.232131 
L 215.613508 144.189675 
L 215.364632 144.14883 
L 215.339616 144.144788 
L 215.314776 144.140924 
L 215.289702 144.137009 
L 215.264489 144.133315 
L 215.239586 144.12988 
L 215.215222 144.126577 
L 215.191081 144.123017 
L 215.1668 144.119426 
L 215.14231 144.115901 
L 215.11773 144.112456 
L 215.093081 144.109117 
L 215.068741 144.10585 
L 215.044559 144.102307 
L 215.020315 144.098648 
L 214.996022 144.095123 
L 214.971313 144.091456 
L 214.946589 144.08759 
L 214.921812 144.083671 
L 214.897002 144.079877 
L 214.872715 144.075928 
L 214.848173 144.071794 
L 214.823331 144.067522 
L 214.798479 144.063192 
L 214.773317 144.059127 
" style="fill:none;stroke:#1f77b4;stroke-linecap:square;stroke-width:1.5;"/>
    <defs>
     <path d="M 0 1.5 
C 0.397805 1.5 0.77937 1.341951 1.06066 1.06066 
C 1.341951 0.77937 1.5 0.397805 1.5 0 
C 1.5 -0.397805 1.341951 -0.77937 1.06066 -1.06066 
C 0.77937 -1.341951 0.397805 -1.5 0 -1.5 
C -0.397805 -1.5 -0.77937 -1.341951 -1.06066 -1.06066 
C -1.341951 -0.77937 -1.5 -0.397805 -1.5 0 
C -1.5 0.397805 -1.341951 0.77937 -1.06066 1.06066 
C -0.77937 1.341951 -0.397805 1.5 0 1.5 
z
" id="mdb9e89b1d3" style="stroke:#1f77b4;"/>
    </defs>
    <g clip-path="url(#p901a3521d7)">
     <use style="fill:#1f77b4;stroke:#1f77b4;" x="386.231345" xlink:href="#mdb9e89b1d3" y="49.123884"/>
     <use style="fill:#1f77b4;stroke:#1f77b4;" x="382.624098" xlink:href="#mdb9e89b1d3" y="80.209629"/>
     <use style="fill:#1f77b4;stroke:#1f77b4;" x="378.861413" xlink:href="#mdb9e89b1d3" y="105.816484"/>
     <use style="fill:#1f77b4;stroke:#1f77b4;" x="375.430524" xlink:href="#mdb9e89b1d3" y="123.249283"/>
     <use style="fill:#1f77b4;stroke:#1f77b4;" x="372.214108" xlink:href="#mdb9e89b1d3" y="135.078661"/>
     <use style="fill:#1f77b4;stroke:#1f77b4;" x="369.131121" xlink:href="#mdb9e89b1d3" y="143.167772"/>
     <use style="fill:#1f77b4;stroke:#1f77b4;" x="366.128647" xlink:href="#mdb9e89b1d3" y="148.814599"/>
     <use style="fill:#1f77b4;stroke:#1f77b4;" x="363.196922" xlink:href="#mdb9e89b1d3" y="152.757204"/>
     <use style="fill:#1f77b4;stroke:#1f77b4;" x="360.281015" xlink:href="#mdb9e89b1d3" y="155.565296"/>
     <use style="fill:#1f77b4;stroke:#1f77b4;" x="357.386647" xlink:href="#mdb9e89b1d3" y="157.572822"/>
     <use style="fill:#1f77b4;stroke:#1f77b4;" x="354.49673" xlink:href="#mdb9e89b1d3" y="159.032476"/>
     <use style="fill:#1f77b4;stroke:#1f77b4;" x="351.574571" xlink:href="#mdb9e89b1d3" y="160.144083"/>
     <use style="fill:#1f77b4;stroke:#1f77b4;" x="348.610029" xlink:href="#mdb9e89b1d3" y="161.041422"/>
     <use style="fill:#1f77b4;stroke:#1f77b4;" x="345.601925" xlink:href="#mdb9e89b1d3" y="161.780868"/>
     <use style="fill:#1f77b4;stroke:#1f77b4;" x="342.566301" xlink:href="#mdb9e89b1d3" y="162.360911"/>
     <use style="fill:#1f77b4;stroke:#1f77b4;" x="339.529217" xlink:href="#mdb9e89b1d3" y="162.821739"/>
     <use style="fill:#1f77b4;stroke:#1f77b4;" x="336.430117" xlink:href="#mdb9e89b1d3" y="163.220109"/>
     <use style="fill:#1f77b4;stroke:#1f77b4;" x="333.316078" xlink:href="#mdb9e89b1d3" y="163.554298"/>
     <use style="fill:#1f77b4;stroke:#1f77b4;" x="330.189612" xlink:href="#mdb9e89b1d3" y="163.818508"/>
     <use style="fill:#1f77b4;stroke:#1f77b4;" x="327.066982" xlink:href="#mdb9e89b1d3" y="164.000466"/>
     <use style="fill:#1f77b4;stroke:#1f77b4;" x="323.921474" xlink:href="#mdb9e89b1d3" y="164.119429"/>
     <use style="fill:#1f77b4;stroke:#1f77b4;" x="320.761744" xlink:href="#mdb9e89b1d3" y="164.169006"/>
     <use style="fill:#1f77b4;stroke:#1f77b4;" x="317.535156" xlink:href="#mdb9e89b1d3" y="164.177928"/>
     <use style="fill:#1f77b4;stroke:#1f77b4;" x="314.25238" xlink:href="#mdb9e89b1d3" y="164.135064"/>
     <use style="fill:#1f77b4;stroke:#1f77b4;" x="310.917571" xlink:href="#mdb9e89b1d3" y="164.007853"/>
     <use style="fill:#1f77b4;stroke:#1f77b4;" x="307.563116" xlink:href="#mdb9e89b1d3" y="163.833535"/>
     <use style="fill:#1f77b4;stroke:#1f77b4;" x="304.220519" xlink:href="#mdb9e89b1d3" y="163.610949"/>
     <use style="fill:#1f77b4;stroke:#1f77b4;" x="300.840286" xlink:href="#mdb9e89b1d3" y="163.367027"/>
     <use style="fill:#1f77b4;stroke:#1f77b4;" x="297.471011" xlink:href="#mdb9e89b1d3" y="163.073589"/>
     <use style="fill:#1f77b4;stroke:#1f77b4;" x="294.046609" xlink:href="#mdb9e89b1d3" y="162.717297"/>
     <use style="fill:#1f77b4;stroke:#1f77b4;" x="290.611088" xlink:href="#mdb9e89b1d3" y="162.302809"/>
     <use style="fill:#1f77b4;stroke:#1f77b4;" x="287.148897" xlink:href="#mdb9e89b1d3" y="161.828737"/>
     <use style="fill:#1f77b4;stroke:#1f77b4;" x="283.685623" xlink:href="#mdb9e89b1d3" y="161.3001"/>
     <use style="fill:#1f77b4;stroke:#1f77b4;" x="280.198925" xlink:href="#mdb9e89b1d3" y="160.740252"/>
     <use style="fill:#1f77b4;stroke:#1f77b4;" x="276.696485" xlink:href="#mdb9e89b1d3" y="160.12631"/>
     <use style="fill:#1f77b4;stroke:#1f77b4;" x="273.116322" xlink:href="#mdb9e89b1d3" y="159.441004"/>
     <use style="fill:#1f77b4;stroke:#1f77b4;" x="269.486041" xlink:href="#mdb9e89b1d3" y="158.714297"/>
     <use style="fill:#1f77b4;stroke:#1f77b4;" x="265.833903" xlink:href="#mdb9e89b1d3" y="157.913519"/>
     <use style="fill:#1f77b4;stroke:#1f77b4;" x="262.162219" xlink:href="#mdb9e89b1d3" y="157.024462"/>
     <use style="fill:#1f77b4;stroke:#1f77b4;" x="258.516885" xlink:href="#mdb9e89b1d3" y="156.1344"/>
     <use style="fill:#1f77b4;stroke:#1f77b4;" x="254.891531" xlink:href="#mdb9e89b1d3" y="155.236215"/>
     <use style="fill:#1f77b4;stroke:#1f77b4;" x="251.253538" xlink:href="#mdb9e89b1d3" y="154.279838"/>
     <use style="fill:#1f77b4;stroke:#1f77b4;" x="247.581654" xlink:href="#mdb9e89b1d3" y="153.253392"/>
     <use style="fill:#1f77b4;stroke:#1f77b4;" x="243.919113" xlink:href="#mdb9e89b1d3" y="152.218402"/>
     <use style="fill:#1f77b4;stroke:#1f77b4;" x="240.298739" xlink:href="#mdb9e89b1d3" y="151.184186"/>
     <use style="fill:#1f77b4;stroke:#1f77b4;" x="236.576162" xlink:href="#mdb9e89b1d3" y="150.017891"/>
     <use style="fill:#1f77b4;stroke:#1f77b4;" x="232.742383" xlink:href="#mdb9e89b1d3" y="148.706527"/>
     <use style="fill:#1f77b4;stroke:#1f77b4;" x="229.009487" xlink:href="#mdb9e89b1d3" y="147.485243"/>
     <use style="fill:#1f77b4;stroke:#1f77b4;" x="225.422404" xlink:href="#mdb9e89b1d3" y="146.390869"/>
     <use style="fill:#1f77b4;stroke:#1f77b4;" x="222.067449" xlink:href="#mdb9e89b1d3" y="145.415496"/>
     <use style="fill:#1f77b4;stroke:#1f77b4;" x="221.757164" xlink:href="#mdb9e89b1d3" y="145.331026"/>
     <use style="fill:#1f77b4;stroke:#1f77b4;" x="221.463765" xlink:href="#mdb9e89b1d3" y="145.262954"/>
     <use style="fill:#1f77b4;stroke:#1f77b4;" x="221.180955" xlink:href="#mdb9e89b1d3" y="145.206276"/>
     <use style="fill:#1f77b4;stroke:#1f77b4;" x="220.902282" xlink:href="#mdb9e89b1d3" y="145.156318"/>
     <use style="fill:#1f77b4;stroke:#1f77b4;" x="220.626795" xlink:href="#mdb9e89b1d3" y="145.109272"/>
     <use style="fill:#1f77b4;stroke:#1f77b4;" x="220.355124" xlink:href="#mdb9e89b1d3" y="145.062565"/>
     <use style="fill:#1f77b4;stroke:#1f77b4;" x="220.082122" xlink:href="#mdb9e89b1d3" y="145.01745"/>
     <use style="fill:#1f77b4;stroke:#1f77b4;" x="219.807015" xlink:href="#mdb9e89b1d3" y="144.969479"/>
     <use style="fill:#1f77b4;stroke:#1f77b4;" x="219.535891" xlink:href="#mdb9e89b1d3" y="144.919241"/>
     <use style="fill:#1f77b4;stroke:#1f77b4;" x="219.264425" xlink:href="#mdb9e89b1d3" y="144.868236"/>
     <use style="fill:#1f77b4;stroke:#1f77b4;" x="218.994436" xlink:href="#mdb9e89b1d3" y="144.818379"/>
     <use style="fill:#1f77b4;stroke:#1f77b4;" x="218.72681" xlink:href="#mdb9e89b1d3" y="144.769793"/>
     <use style="fill:#1f77b4;stroke:#1f77b4;" x="218.459167" xlink:href="#mdb9e89b1d3" y="144.720174"/>
     <use style="fill:#1f77b4;stroke:#1f77b4;" x="218.191469" xlink:href="#mdb9e89b1d3" y="144.669585"/>
     <use style="fill:#1f77b4;stroke:#1f77b4;" x="217.925011" xlink:href="#mdb9e89b1d3" y="144.620238"/>
     <use style="fill:#1f77b4;stroke:#1f77b4;" x="217.663739" xlink:href="#mdb9e89b1d3" y="144.570903"/>
     <use style="fill:#1f77b4;stroke:#1f77b4;" x="217.404678" xlink:href="#mdb9e89b1d3" y="144.525368"/>
     <use style="fill:#1f77b4;stroke:#1f77b4;" x="217.144889" xlink:href="#mdb9e89b1d3" y="144.480958"/>
     <use style="fill:#1f77b4;stroke:#1f77b4;" x="216.886392" xlink:href="#mdb9e89b1d3" y="144.435476"/>
     <use style="fill:#1f77b4;stroke:#1f77b4;" x="216.628168" xlink:href="#mdb9e89b1d3" y="144.384833"/>
     <use style="fill:#1f77b4;stroke:#1f77b4;" x="216.369405" xlink:href="#mdb9e89b1d3" y="144.332212"/>
     <use style="fill:#1f77b4;stroke:#1f77b4;" x="216.1131" xlink:href="#mdb9e89b1d3" y="144.280742"/>
     <use style="fill:#1f77b4;stroke:#1f77b4;" x="215.862167" xlink:href="#mdb9e89b1d3" y="144.232131"/>
     <use style="fill:#1f77b4;stroke:#1f77b4;" x="215.613508" xlink:href="#mdb9e89b1d3" y="144.189675"/>
     <use style="fill:#1f77b4;stroke:#1f77b4;" x="215.364632" xlink:href="#mdb9e89b1d3" y="144.14883"/>
     <use style="fill:#1f77b4;stroke:#1f77b4;" x="215.339616" xlink:href="#mdb9e89b1d3" y="144.144788"/>
     <use style="fill:#1f77b4;stroke:#1f77b4;" x="215.314776" xlink:href="#mdb9e89b1d3" y="144.140924"/>
     <use style="fill:#1f77b4;stroke:#1f77b4;" x="215.289702" xlink:href="#mdb9e89b1d3" y="144.137009"/>
     <use style="fill:#1f77b4;stroke:#1f77b4;" x="215.264489" xlink:href="#mdb9e89b1d3" y="144.133315"/>
     <use style="fill:#1f77b4;stroke:#1f77b4;" x="215.239586" xlink:href="#mdb9e89b1d3" y="144.12988"/>
     <use style="fill:#1f77b4;stroke:#1f77b4;" x="215.215222" xlink:href="#mdb9e89b1d3" y="144.126577"/>
     <use style="fill:#1f77b4;stroke:#1f77b4;" x="215.191081" xlink:href="#mdb9e89b1d3" y="144.123017"/>
     <use style="fill:#1f77b4;stroke:#1f77b4;" x="215.1668" xlink:href="#mdb9e89b1d3" y="144.119426"/>
     <use style="fill:#1f77b4;stroke:#1f77b4;" x="215.14231" xlink:href="#mdb9e89b1d3" y="144.115901"/>
     <use style="fill:#1f77b4;stroke:#1f77b4;" x="215.11773" xlink:href="#mdb9e89b1d3" y="144.112456"/>
     <use style="fill:#1f77b4;stroke:#1f77b4;" x="215.093081" xlink:href="#mdb9e89b1d3" y="144.109117"/>
     <use style="fill:#1f77b4;stroke:#1f77b4;" x="215.068741" xlink:href="#mdb9e89b1d3" y="144.10585"/>
     <use style="fill:#1f77b4;stroke:#1f77b4;" x="215.044559" xlink:href="#mdb9e89b1d3" y="144.102307"/>
     <use style="fill:#1f77b4;stroke:#1f77b4;" x="215.020315" xlink:href="#mdb9e89b1d3" y="144.098648"/>
     <use style="fill:#1f77b4;stroke:#1f77b4;" x="214.996022" xlink:href="#mdb9e89b1d3" y="144.095123"/>
     <use style="fill:#1f77b4;stroke:#1f77b4;" x="214.971313" xlink:href="#mdb9e89b1d3" y="144.091456"/>
     <use style="fill:#1f77b4;stroke:#1f77b4;" x="214.946589" xlink:href="#mdb9e89b1d3" y="144.08759"/>
     <use style="fill:#1f77b4;stroke:#1f77b4;" x="214.921812" xlink:href="#mdb9e89b1d3" y="144.083671"/>
     <use style="fill:#1f77b4;stroke:#1f77b4;" x="214.897002" xlink:href="#mdb9e89b1d3" y="144.079877"/>
     <use style="fill:#1f77b4;stroke:#1f77b4;" x="214.872715" xlink:href="#mdb9e89b1d3" y="144.075928"/>
     <use style="fill:#1f77b4;stroke:#1f77b4;" x="214.848173" xlink:href="#mdb9e89b1d3" y="144.071794"/>
     <use style="fill:#1f77b4;stroke:#1f77b4;" x="214.823331" xlink:href="#mdb9e89b1d3" y="144.067522"/>
     <use style="fill:#1f77b4;stroke:#1f77b4;" x="214.798479" xlink:href="#mdb9e89b1d3" y="144.063192"/>
     <use style="fill:#1f77b4;stroke:#1f77b4;" x="214.773317" xlink:href="#mdb9e89b1d3" y="144.059127"/>
    </g>
   </g>
   <g id="patch_3">
    <path d="M 56.028488 277.111219 
L 56.028488 10.999219 
" style="fill:none;stroke:#000000;stroke-linecap:square;stroke-linejoin:miter;stroke-width:0.8;"/>
   </g>
   <g id="patch_4">
    <path d="M 413.148488 277.111219 
L 413.148488 10.999219 
" style="fill:none;stroke:#000000;stroke-linecap:square;stroke-linejoin:miter;stroke-width:0.8;"/>
   </g>
   <g id="patch_5">
    <path d="M 56.028488 277.111219 
L 413.148488 277.111219 
" style="fill:none;stroke:#000000;stroke-linecap:square;stroke-linejoin:miter;stroke-width:0.8;"/>
   </g>
   <g id="patch_6">
    <path d="M 56.028488 10.999219 
L 413.148488 10.999219 
" style="fill:none;stroke:#000000;stroke-linecap:square;stroke-linejoin:miter;stroke-width:0.8;"/>
   </g>
   <g id="text_22">
    <g clip-path="url(#p901a3521d7)">
     <!-- 2.500 -->
     <g style="fill:#39558c;" transform="translate(131.733817 169.476321)rotate(-18.454756)scale(0.06 -0.06)">
      <use xlink:href="#DejaVuSans-50"/>
      <use x="63.623047" xlink:href="#DejaVuSans-46"/>
      <use x="95.410156" xlink:href="#DejaVuSans-53"/>
      <use x="159.033203" xlink:href="#DejaVuSans-48"/>
      <use x="222.65625" xlink:href="#DejaVuSans-48"/>
     </g>
    </g>
   </g>
   <g id="text_23">
    <g clip-path="url(#p901a3521d7)">
     <!-- 3.000 -->
     <g style="fill:#33638d;" transform="translate(239.818305 147.431493)rotate(-29.353706)scale(0.06 -0.06)">
      <defs>
       <path d="M 40.578125 39.3125 
Q 47.65625 37.796875 51.625 33 
Q 55.609375 28.21875 55.609375 21.1875 
Q 55.609375 10.40625 48.1875 4.484375 
Q 40.765625 -1.421875 27.09375 -1.421875 
Q 22.515625 -1.421875 17.65625 -0.515625 
Q 12.796875 0.390625 7.625 2.203125 
L 7.625 11.71875 
Q 11.71875 9.328125 16.59375 8.109375 
Q 21.484375 6.890625 26.8125 6.890625 
Q 36.078125 6.890625 40.9375 10.546875 
Q 45.796875 14.203125 45.796875 21.1875 
Q 45.796875 27.640625 41.28125 31.265625 
Q 36.765625 34.90625 28.71875 34.90625 
L 20.21875 34.90625 
L 20.21875 43.015625 
L 29.109375 43.015625 
Q 36.375 43.015625 40.234375 45.921875 
Q 44.09375 48.828125 44.09375 54.296875 
Q 44.09375 59.90625 40.109375 62.90625 
Q 36.140625 65.921875 28.71875 65.921875 
Q 24.65625 65.921875 20.015625 65.03125 
Q 15.375 64.15625 9.8125 62.3125 
L 9.8125 71.09375 
Q 15.4375 72.65625 20.34375 73.4375 
Q 25.25 74.21875 29.59375 74.21875 
Q 40.828125 74.21875 47.359375 69.109375 
Q 53.90625 64.015625 53.90625 55.328125 
Q 53.90625 49.265625 50.4375 45.09375 
Q 46.96875 40.921875 40.578125 39.3125 
z
" id="DejaVuSans-51"/>
      </defs>
      <use xlink:href="#DejaVuSans-51"/>
      <use x="63.623047" xlink:href="#DejaVuSans-46"/>
      <use x="95.410156" xlink:href="#DejaVuSans-48"/>
      <use x="159.033203" xlink:href="#DejaVuSans-48"/>
      <use x="222.65625" xlink:href="#DejaVuSans-48"/>
     </g>
    </g>
   </g>
   <g id="text_24">
    <g clip-path="url(#p901a3521d7)">
     <!-- 3.500 -->
     <g style="fill:#2d718e;" transform="translate(208.35724 167.295111)rotate(-28.044088)scale(0.06 -0.06)">
      <use xlink:href="#DejaVuSans-51"/>
      <use x="63.623047" xlink:href="#DejaVuSans-46"/>
      <use x="95.410156" xlink:href="#DejaVuSans-53"/>
      <use x="159.033203" xlink:href="#DejaVuSans-48"/>
      <use x="222.65625" xlink:href="#DejaVuSans-48"/>
     </g>
    </g>
   </g>
   <g id="text_25">
    <g clip-path="url(#p901a3521d7)">
     <!-- 4.000 -->
     <g style="fill:#287d8e;" transform="translate(309.231344 22.835577)rotate(-342.294747)scale(0.06 -0.06)">
      <defs>
       <path d="M 37.796875 64.3125 
L 12.890625 25.390625 
L 37.796875 25.390625 
z
M 35.203125 72.90625 
L 47.609375 72.90625 
L 47.609375 25.390625 
L 58.015625 25.390625 
L 58.015625 17.1875 
L 47.609375 17.1875 
L 47.609375 0 
L 37.796875 0 
L 37.796875 17.1875 
L 4.890625 17.1875 
L 4.890625 26.703125 
z
" id="DejaVuSans-52"/>
      </defs>
      <use xlink:href="#DejaVuSans-52"/>
      <use x="63.623047" xlink:href="#DejaVuSans-46"/>
      <use x="95.410156" xlink:href="#DejaVuSans-48"/>
      <use x="159.033203" xlink:href="#DejaVuSans-48"/>
      <use x="222.65625" xlink:href="#DejaVuSans-48"/>
     </g>
    </g>
   </g>
   <g id="text_26">
    <g clip-path="url(#p901a3521d7)">
     <!-- 4.500 -->
     <g style="fill:#238a8d;" transform="translate(347.802397 29.122407)rotate(-300.855547)scale(0.06 -0.06)">
      <use xlink:href="#DejaVuSans-52"/>
      <use x="63.623047" xlink:href="#DejaVuSans-46"/>
      <use x="95.410156" xlink:href="#DejaVuSans-53"/>
      <use x="159.033203" xlink:href="#DejaVuSans-48"/>
      <use x="222.65625" xlink:href="#DejaVuSans-48"/>
     </g>
    </g>
   </g>
   <g id="text_27">
    <g clip-path="url(#p901a3521d7)">
     <!-- 5.000 -->
     <g style="fill:#1f968b;" transform="translate(179.961458 185.151326)rotate(-25.807911)scale(0.06 -0.06)">
      <use xlink:href="#DejaVuSans-53"/>
      <use x="63.623047" xlink:href="#DejaVuSans-46"/>
      <use x="95.410156" xlink:href="#DejaVuSans-48"/>
      <use x="159.033203" xlink:href="#DejaVuSans-48"/>
      <use x="222.65625" xlink:href="#DejaVuSans-48"/>
     </g>
    </g>
   </g>
   <g id="text_28">
    <g clip-path="url(#p901a3521d7)">
     <!-- 5.500 -->
     <g style="fill:#20a386;" transform="translate(351.207192 75.962044)rotate(-63.017731)scale(0.06 -0.06)">
      <use xlink:href="#DejaVuSans-53"/>
      <use x="63.623047" xlink:href="#DejaVuSans-46"/>
      <use x="95.410156" xlink:href="#DejaVuSans-53"/>
      <use x="159.033203" xlink:href="#DejaVuSans-48"/>
      <use x="222.65625" xlink:href="#DejaVuSans-48"/>
     </g>
    </g>
   </g>
   <g id="text_29">
    <g clip-path="url(#p901a3521d7)">
     <!-- 6.000 -->
     <g style="fill:#29af7f;" transform="translate(167.958552 192.608365)rotate(-24.710114)scale(0.06 -0.06)">
      <use xlink:href="#DejaVuSans-54"/>
      <use x="63.623047" xlink:href="#DejaVuSans-46"/>
      <use x="95.410156" xlink:href="#DejaVuSans-48"/>
      <use x="159.033203" xlink:href="#DejaVuSans-48"/>
      <use x="222.65625" xlink:href="#DejaVuSans-48"/>
     </g>
    </g>
   </g>
   <g id="text_30">
    <g clip-path="url(#p901a3521d7)">
     <!-- 6.500 -->
     <g style="fill:#3dbc74;" transform="translate(330.286271 97.582231)rotate(-39.592331)scale(0.06 -0.06)">
      <use xlink:href="#DejaVuSans-54"/>
      <use x="63.623047" xlink:href="#DejaVuSans-46"/>
      <use x="95.410156" xlink:href="#DejaVuSans-53"/>
      <use x="159.033203" xlink:href="#DejaVuSans-48"/>
      <use x="222.65625" xlink:href="#DejaVuSans-48"/>
     </g>
    </g>
   </g>
   <g id="text_31">
    <g clip-path="url(#p901a3521d7)">
     <!-- 7.000 -->
     <g style="fill:#56c667;" transform="translate(180.107899 187.189682)rotate(-27.38352)scale(0.06 -0.06)">
      <defs>
       <path d="M 8.203125 72.90625 
L 55.078125 72.90625 
L 55.078125 68.703125 
L 28.609375 0 
L 18.3125 0 
L 43.21875 64.59375 
L 8.203125 64.59375 
z
" id="DejaVuSans-55"/>
      </defs>
      <use xlink:href="#DejaVuSans-55"/>
      <use x="63.623047" xlink:href="#DejaVuSans-46"/>
      <use x="95.410156" xlink:href="#DejaVuSans-48"/>
      <use x="159.033203" xlink:href="#DejaVuSans-48"/>
      <use x="222.65625" xlink:href="#DejaVuSans-48"/>
     </g>
    </g>
   </g>
   <g id="text_32">
    <g clip-path="url(#p901a3521d7)">
     <!-- 7.500 -->
     <g style="fill:#75d054;" transform="translate(169.940829 193.747396)rotate(-26.717706)scale(0.06 -0.06)">
      <use xlink:href="#DejaVuSans-55"/>
      <use x="63.623047" xlink:href="#DejaVuSans-46"/>
      <use x="95.410156" xlink:href="#DejaVuSans-53"/>
      <use x="159.033203" xlink:href="#DejaVuSans-48"/>
      <use x="222.65625" xlink:href="#DejaVuSans-48"/>
     </g>
    </g>
   </g>
   <g id="text_33">
    <g clip-path="url(#p901a3521d7)">
     <!-- 8.000 -->
     <g style="fill:#95d840;" transform="translate(170.750189 193.816287)rotate(-27.289731)scale(0.06 -0.06)">
      <use xlink:href="#DejaVuSans-56"/>
      <use x="63.623047" xlink:href="#DejaVuSans-46"/>
      <use x="95.410156" xlink:href="#DejaVuSans-48"/>
      <use x="159.033203" xlink:href="#DejaVuSans-48"/>
      <use x="222.65625" xlink:href="#DejaVuSans-48"/>
     </g>
    </g>
   </g>
   <g id="text_34">
    <g clip-path="url(#p901a3521d7)">
     <!-- 8.500 -->
     <g style="fill:#bade28;" transform="translate(171.541335 193.861026)rotate(-27.66363)scale(0.06 -0.06)">
      <use xlink:href="#DejaVuSans-56"/>
      <use x="63.623047" xlink:href="#DejaVuSans-46"/>
      <use x="95.410156" xlink:href="#DejaVuSans-53"/>
      <use x="159.033203" xlink:href="#DejaVuSans-48"/>
      <use x="222.65625" xlink:href="#DejaVuSans-48"/>
     </g>
    </g>
   </g>
   <g id="text_35">
    <g clip-path="url(#p901a3521d7)">
     <!-- 9.000 -->
     <g style="fill:#dde318;" transform="translate(172.314516 193.882869)rotate(-27.846888)scale(0.06 -0.06)">
      <use xlink:href="#DejaVuSans-57"/>
      <use x="63.623047" xlink:href="#DejaVuSans-46"/>
      <use x="95.410156" xlink:href="#DejaVuSans-48"/>
      <use x="159.033203" xlink:href="#DejaVuSans-48"/>
      <use x="222.65625" xlink:href="#DejaVuSans-48"/>
     </g>
    </g>
   </g>
   <g id="text_36">
    <g clip-path="url(#p901a3521d7)">
     <!-- 9.500 -->
     <g style="fill:#fde725;" transform="translate(173.030196 193.832641)rotate(-27.426188)scale(0.06 -0.06)">
      <use xlink:href="#DejaVuSans-57"/>
      <use x="63.623047" xlink:href="#DejaVuSans-46"/>
      <use x="95.410156" xlink:href="#DejaVuSans-53"/>
      <use x="159.033203" xlink:href="#DejaVuSans-48"/>
      <use x="222.65625" xlink:href="#DejaVuSans-48"/>
     </g>
    </g>
   </g>
   <g id="text_37">
    <g clip-path="url(#p901a3521d7)">
     <!-- 10.000 -->
     <g style="fill:#440154;" transform="translate(322.079726 106.74453)rotate(-32.534809)scale(0.06 -0.06)">
      <use xlink:href="#DejaVuSans-49"/>
      <use x="63.623047" xlink:href="#DejaVuSans-48"/>
      <use x="127.246094" xlink:href="#DejaVuSans-46"/>
      <use x="159.033203" xlink:href="#DejaVuSans-48"/>
      <use x="222.65625" xlink:href="#DejaVuSans-48"/>
      <use x="286.279297" xlink:href="#DejaVuSans-48"/>
     </g>
    </g>
   </g>
   <g id="text_38">
    <g clip-path="url(#p901a3521d7)">
     <!-- 100.000 -->
     <g style="fill:#440154;" transform="translate(80.318923 237.199377)rotate(-16.536637)scale(0.06 -0.06)">
      <use xlink:href="#DejaVuSans-49"/>
      <use x="63.623047" xlink:href="#DejaVuSans-48"/>
      <use x="127.246094" xlink:href="#DejaVuSans-48"/>
      <use x="190.869141" xlink:href="#DejaVuSans-46"/>
      <use x="222.65625" xlink:href="#DejaVuSans-48"/>
      <use x="286.279297" xlink:href="#DejaVuSans-48"/>
      <use x="349.902344" xlink:href="#DejaVuSans-48"/>
     </g>
    </g>
   </g>
   <g id="text_39">
    <g clip-path="url(#p901a3521d7)">
     <!-- 1000.000 -->
     <g style="fill:#440154;" transform="translate(283.076212 161.15035)rotate(-33.442797)scale(0.06 -0.06)">
      <use xlink:href="#DejaVuSans-49"/>
      <use x="63.623047" xlink:href="#DejaVuSans-48"/>
      <use x="127.246094" xlink:href="#DejaVuSans-48"/>
      <use x="190.869141" xlink:href="#DejaVuSans-48"/>
      <use x="254.492188" xlink:href="#DejaVuSans-46"/>
      <use x="286.279297" xlink:href="#DejaVuSans-48"/>
      <use x="349.902344" xlink:href="#DejaVuSans-48"/>
      <use x="413.525391" xlink:href="#DejaVuSans-48"/>
     </g>
    </g>
   </g>
   <g id="text_40">
    <g clip-path="url(#p901a3521d7)">
     <!-- 10000.000 -->
     <g style="fill:#440154;" transform="translate(257.707275 193.702702)rotate(-33.618937)scale(0.06 -0.06)">
      <use xlink:href="#DejaVuSans-49"/>
      <use x="63.623047" xlink:href="#DejaVuSans-48"/>
      <use x="127.246094" xlink:href="#DejaVuSans-48"/>
      <use x="190.869141" xlink:href="#DejaVuSans-48"/>
      <use x="254.492188" xlink:href="#DejaVuSans-48"/>
      <use x="318.115234" xlink:href="#DejaVuSans-46"/>
      <use x="349.902344" xlink:href="#DejaVuSans-48"/>
      <use x="413.525391" xlink:href="#DejaVuSans-48"/>
      <use x="477.148438" xlink:href="#DejaVuSans-48"/>
     </g>
    </g>
   </g>
   <g id="text_41">
    <g clip-path="url(#p901a3521d7)">
     <!-- 100000.000 -->
     <g style="fill:#440154;" transform="translate(242.533242 208.813786)rotate(-24.179549)scale(0.06 -0.06)">
      <use xlink:href="#DejaVuSans-49"/>
      <use x="63.623047" xlink:href="#DejaVuSans-48"/>
      <use x="127.246094" xlink:href="#DejaVuSans-48"/>
      <use x="190.869141" xlink:href="#DejaVuSans-48"/>
      <use x="254.492188" xlink:href="#DejaVuSans-48"/>
      <use x="318.115234" xlink:href="#DejaVuSans-48"/>
      <use x="381.738281" xlink:href="#DejaVuSans-46"/>
      <use x="413.525391" xlink:href="#DejaVuSans-48"/>
      <use x="477.148438" xlink:href="#DejaVuSans-48"/>
      <use x="540.771484" xlink:href="#DejaVuSans-48"/>
     </g>
    </g>
   </g>
   <g id="text_42">
    <g clip-path="url(#p901a3521d7)">
     <!-- 1000000.000 -->
     <g style="fill:#450457;" transform="translate(255.054037 215.416063)rotate(-22.721664)scale(0.06 -0.06)">
      <use xlink:href="#DejaVuSans-49"/>
      <use x="63.623047" xlink:href="#DejaVuSans-48"/>
      <use x="127.246094" xlink:href="#DejaVuSans-48"/>
      <use x="190.869141" xlink:href="#DejaVuSans-48"/>
      <use x="254.492188" xlink:href="#DejaVuSans-48"/>
      <use x="318.115234" xlink:href="#DejaVuSans-48"/>
      <use x="381.738281" xlink:href="#DejaVuSans-48"/>
      <use x="445.361328" xlink:href="#DejaVuSans-46"/>
      <use x="477.148438" xlink:href="#DejaVuSans-48"/>
      <use x="540.771484" xlink:href="#DejaVuSans-48"/>
      <use x="604.394531" xlink:href="#DejaVuSans-48"/>
     </g>
    </g>
   </g>
   <g id="text_43">
    <g clip-path="url(#p901a3521d7)">
     <!-- 10000000.000 -->
     <g style="fill:#482475;" transform="translate(262.838042 224.299248)rotate(-24.066818)scale(0.06 -0.06)">
      <use xlink:href="#DejaVuSans-49"/>
      <use x="63.623047" xlink:href="#DejaVuSans-48"/>
      <use x="127.246094" xlink:href="#DejaVuSans-48"/>
      <use x="190.869141" xlink:href="#DejaVuSans-48"/>
      <use x="254.492188" xlink:href="#DejaVuSans-48"/>
      <use x="318.115234" xlink:href="#DejaVuSans-48"/>
      <use x="381.738281" xlink:href="#DejaVuSans-48"/>
      <use x="445.361328" xlink:href="#DejaVuSans-48"/>
      <use x="508.984375" xlink:href="#DejaVuSans-46"/>
      <use x="540.771484" xlink:href="#DejaVuSans-48"/>
      <use x="604.394531" xlink:href="#DejaVuSans-48"/>
      <use x="668.017578" xlink:href="#DejaVuSans-48"/>
     </g>
    </g>
   </g>
   <g id="text_44">
    <g clip-path="url(#p901a3521d7)">
     <!-- 100000000.000 -->
     <g style="fill:#fde725;" transform="translate(273.151509 231.227608)rotate(-24.833425)scale(0.06 -0.06)">
      <use xlink:href="#DejaVuSans-49"/>
      <use x="63.623047" xlink:href="#DejaVuSans-48"/>
      <use x="127.246094" xlink:href="#DejaVuSans-48"/>
      <use x="190.869141" xlink:href="#DejaVuSans-48"/>
      <use x="254.492188" xlink:href="#DejaVuSans-48"/>
      <use x="318.115234" xlink:href="#DejaVuSans-48"/>
      <use x="381.738281" xlink:href="#DejaVuSans-48"/>
      <use x="445.361328" xlink:href="#DejaVuSans-48"/>
      <use x="508.984375" xlink:href="#DejaVuSans-48"/>
      <use x="572.607422" xlink:href="#DejaVuSans-46"/>
      <use x="604.394531" xlink:href="#DejaVuSans-48"/>
      <use x="668.017578" xlink:href="#DejaVuSans-48"/>
      <use x="731.640625" xlink:href="#DejaVuSans-48"/>
     </g>
    </g>
   </g>
  </g>
 </g>
 <defs>
  <clipPath id="p901a3521d7">
   <rect height="266.112" width="357.12" x="56.028488" y="10.999219"/>
  </clipPath>
 </defs>
</svg>
