<?xml version="1.0" encoding="utf-8" standalone="no"?>
<!DOCTYPE svg PUBLIC "-//W3C//DTD SVG 1.1//EN"
  "http://www.w3.org/Graphics/SVG/1.1/DTD/svg11.dtd">
<!-- Created with matplotlib (https://matplotlib.org/) -->
<svg height="321.713144pt" version="1.1" viewBox="0 0 426.604585 321.713144" width="426.604585pt" xmlns="http://www.w3.org/2000/svg" xmlns:xlink="http://www.w3.org/1999/xlink">
 <metadata>
  <rdf:RDF xmlns:cc="http://creativecommons.org/ns#" xmlns:dc="http://purl.org/dc/elements/1.1/" xmlns:rdf="http://www.w3.org/1999/02/22-rdf-syntax-ns#">
   <cc:Work>
    <dc:type rdf:resource="http://purl.org/dc/dcmitype/StillImage"/>
    <dc:date>2021-09-21T22:42:32.558904</dc:date>
    <dc:format>image/svg+xml</dc:format>
    <dc:creator>
     <cc:Agent>
      <dc:title>Matplotlib v3.3.1, https://matplotlib.org/</dc:title>
     </cc:Agent>
    </dc:creator>
   </cc:Work>
  </rdf:RDF>
 </metadata>
 <defs>
  <style type="text/css">*{stroke-linecap:butt;stroke-linejoin:round;}</style>
 </defs>
 <g id="figure_1">
  <g id="patch_1">
   <path d="M 0 321.713144 
L 426.604585 321.713144 
L 426.604585 0 
L 0 0 
z
" style="fill:#ffffff;"/>
  </g>
  <g id="axes_1">
   <g id="patch_2">
    <path d="M 56.028488 277.111219 
L 413.148488 277.111219 
L 413.148488 10.999219 
L 56.028488 10.999219 
z
" style="fill:#ffffff;"/>
   </g>
   <g id="matplotlib.axis_1">
    <g id="xtick_1">
     <g id="line2d_1">
      <defs>
       <path d="M 0 0 
L 0 3.5 
" id="m451c10774d" style="stroke:#000000;stroke-width:0.8;"/>
      </defs>
      <g>
       <use style="stroke:#000000;stroke-width:0.8;" x="56.028488" xlink:href="#m451c10774d" y="277.111219"/>
      </g>
     </g>
     <g id="text_1">
      <!-- −20 -->
      <g transform="translate(45.476144 291.709656)scale(0.1 -0.1)">
       <defs>
        <path d="M 10.59375 35.5 
L 73.1875 35.5 
L 73.1875 27.203125 
L 10.59375 27.203125 
z
" id="DejaVuSans-8722"/>
        <path d="M 19.1875 8.296875 
L 53.609375 8.296875 
L 53.609375 0 
L 7.328125 0 
L 7.328125 8.296875 
Q 12.9375 14.109375 22.625 23.890625 
Q 32.328125 33.6875 34.8125 36.53125 
Q 39.546875 41.84375 41.421875 45.53125 
Q 43.3125 49.21875 43.3125 52.78125 
Q 43.3125 58.59375 39.234375 62.25 
Q 35.15625 65.921875 28.609375 65.921875 
Q 23.96875 65.921875 18.8125 64.3125 
Q 13.671875 62.703125 7.8125 59.421875 
L 7.8125 69.390625 
Q 13.765625 71.78125 18.9375 73 
Q 24.125 74.21875 28.421875 74.21875 
Q 39.75 74.21875 46.484375 68.546875 
Q 53.21875 62.890625 53.21875 53.421875 
Q 53.21875 48.921875 51.53125 44.890625 
Q 49.859375 40.875 45.40625 35.40625 
Q 44.1875 33.984375 37.640625 27.21875 
Q 31.109375 20.453125 19.1875 8.296875 
z
" id="DejaVuSans-50"/>
        <path d="M 31.78125 66.40625 
Q 24.171875 66.40625 20.328125 58.90625 
Q 16.5 51.421875 16.5 36.375 
Q 16.5 21.390625 20.328125 13.890625 
Q 24.171875 6.390625 31.78125 6.390625 
Q 39.453125 6.390625 43.28125 13.890625 
Q 47.125 21.390625 47.125 36.375 
Q 47.125 51.421875 43.28125 58.90625 
Q 39.453125 66.40625 31.78125 66.40625 
z
M 31.78125 74.21875 
Q 44.046875 74.21875 50.515625 64.515625 
Q 56.984375 54.828125 56.984375 36.375 
Q 56.984375 17.96875 50.515625 8.265625 
Q 44.046875 -1.421875 31.78125 -1.421875 
Q 19.53125 -1.421875 13.0625 8.265625 
Q 6.59375 17.96875 6.59375 36.375 
Q 6.59375 54.828125 13.0625 64.515625 
Q 19.53125 74.21875 31.78125 74.21875 
z
" id="DejaVuSans-48"/>
       </defs>
       <use xlink:href="#DejaVuSans-8722"/>
       <use x="83.789062" xlink:href="#DejaVuSans-50"/>
       <use x="147.412109" xlink:href="#DejaVuSans-48"/>
      </g>
     </g>
    </g>
    <g id="xtick_2">
     <g id="line2d_2">
      <g>
       <use style="stroke:#000000;stroke-width:0.8;" x="127.431207" xlink:href="#m451c10774d" y="277.111219"/>
      </g>
     </g>
     <g id="text_2">
      <!-- 0 -->
      <g transform="translate(124.249957 291.709656)scale(0.1 -0.1)">
       <use xlink:href="#DejaVuSans-48"/>
      </g>
     </g>
    </g>
    <g id="xtick_3">
     <g id="line2d_3">
      <g>
       <use style="stroke:#000000;stroke-width:0.8;" x="198.833927" xlink:href="#m451c10774d" y="277.111219"/>
      </g>
     </g>
     <g id="text_3">
      <!-- 20 -->
      <g transform="translate(192.471427 291.709656)scale(0.1 -0.1)">
       <use xlink:href="#DejaVuSans-50"/>
       <use x="63.623047" xlink:href="#DejaVuSans-48"/>
      </g>
     </g>
    </g>
    <g id="xtick_4">
     <g id="line2d_4">
      <g>
       <use style="stroke:#000000;stroke-width:0.8;" x="270.236646" xlink:href="#m451c10774d" y="277.111219"/>
      </g>
     </g>
     <g id="text_4">
      <!-- 40 -->
      <g transform="translate(263.874146 291.709656)scale(0.1 -0.1)">
       <defs>
        <path d="M 37.796875 64.3125 
L 12.890625 25.390625 
L 37.796875 25.390625 
z
M 35.203125 72.90625 
L 47.609375 72.90625 
L 47.609375 25.390625 
L 58.015625 25.390625 
L 58.015625 17.1875 
L 47.609375 17.1875 
L 47.609375 0 
L 37.796875 0 
L 37.796875 17.1875 
L 4.890625 17.1875 
L 4.890625 26.703125 
z
" id="DejaVuSans-52"/>
       </defs>
       <use xlink:href="#DejaVuSans-52"/>
       <use x="63.623047" xlink:href="#DejaVuSans-48"/>
      </g>
     </g>
    </g>
    <g id="xtick_5">
     <g id="line2d_5">
      <g>
       <use style="stroke:#000000;stroke-width:0.8;" x="341.639366" xlink:href="#m451c10774d" y="277.111219"/>
      </g>
     </g>
     <g id="text_5">
      <!-- 60 -->
      <g transform="translate(335.276866 291.709656)scale(0.1 -0.1)">
       <defs>
        <path d="M 33.015625 40.375 
Q 26.375 40.375 22.484375 35.828125 
Q 18.609375 31.296875 18.609375 23.390625 
Q 18.609375 15.53125 22.484375 10.953125 
Q 26.375 6.390625 33.015625 6.390625 
Q 39.65625 6.390625 43.53125 10.953125 
Q 47.40625 15.53125 47.40625 23.390625 
Q 47.40625 31.296875 43.53125 35.828125 
Q 39.65625 40.375 33.015625 40.375 
z
M 52.59375 71.296875 
L 52.59375 62.3125 
Q 48.875 64.0625 45.09375 64.984375 
Q 41.3125 65.921875 37.59375 65.921875 
Q 27.828125 65.921875 22.671875 59.328125 
Q 17.53125 52.734375 16.796875 39.40625 
Q 19.671875 43.65625 24.015625 45.921875 
Q 28.375 48.1875 33.59375 48.1875 
Q 44.578125 48.1875 50.953125 41.515625 
Q 57.328125 34.859375 57.328125 23.390625 
Q 57.328125 12.15625 50.6875 5.359375 
Q 44.046875 -1.421875 33.015625 -1.421875 
Q 20.359375 -1.421875 13.671875 8.265625 
Q 6.984375 17.96875 6.984375 36.375 
Q 6.984375 53.65625 15.1875 63.9375 
Q 23.390625 74.21875 37.203125 74.21875 
Q 40.921875 74.21875 44.703125 73.484375 
Q 48.484375 72.75 52.59375 71.296875 
z
" id="DejaVuSans-54"/>
       </defs>
       <use xlink:href="#DejaVuSans-54"/>
       <use x="63.623047" xlink:href="#DejaVuSans-48"/>
      </g>
     </g>
    </g>
    <g id="xtick_6">
     <g id="line2d_6">
      <g>
       <use style="stroke:#000000;stroke-width:0.8;" x="413.042085" xlink:href="#m451c10774d" y="277.111219"/>
      </g>
     </g>
     <g id="text_6">
      <!-- 80 -->
      <g transform="translate(406.679585 291.709656)scale(0.1 -0.1)">
       <defs>
        <path d="M 31.78125 34.625 
Q 24.75 34.625 20.71875 30.859375 
Q 16.703125 27.09375 16.703125 20.515625 
Q 16.703125 13.921875 20.71875 10.15625 
Q 24.75 6.390625 31.78125 6.390625 
Q 38.8125 6.390625 42.859375 10.171875 
Q 46.921875 13.96875 46.921875 20.515625 
Q 46.921875 27.09375 42.890625 30.859375 
Q 38.875 34.625 31.78125 34.625 
z
M 21.921875 38.8125 
Q 15.578125 40.375 12.03125 44.71875 
Q 8.5 49.078125 8.5 55.328125 
Q 8.5 64.0625 14.71875 69.140625 
Q 20.953125 74.21875 31.78125 74.21875 
Q 42.671875 74.21875 48.875 69.140625 
Q 55.078125 64.0625 55.078125 55.328125 
Q 55.078125 49.078125 51.53125 44.71875 
Q 48 40.375 41.703125 38.8125 
Q 48.828125 37.15625 52.796875 32.3125 
Q 56.78125 27.484375 56.78125 20.515625 
Q 56.78125 9.90625 50.3125 4.234375 
Q 43.84375 -1.421875 31.78125 -1.421875 
Q 19.734375 -1.421875 13.25 4.234375 
Q 6.78125 9.90625 6.78125 20.515625 
Q 6.78125 27.484375 10.78125 32.3125 
Q 14.796875 37.15625 21.921875 38.8125 
z
M 18.3125 54.390625 
Q 18.3125 48.734375 21.84375 45.5625 
Q 25.390625 42.390625 31.78125 42.390625 
Q 38.140625 42.390625 41.71875 45.5625 
Q 45.3125 48.734375 45.3125 54.390625 
Q 45.3125 60.0625 41.71875 63.234375 
Q 38.140625 66.40625 31.78125 66.40625 
Q 25.390625 66.40625 21.84375 63.234375 
Q 18.3125 60.0625 18.3125 54.390625 
z
" id="DejaVuSans-56"/>
       </defs>
       <use xlink:href="#DejaVuSans-56"/>
       <use x="63.623047" xlink:href="#DejaVuSans-48"/>
      </g>
     </g>
    </g>
    <g id="text_7">
     <!-- 1st PC: 75.94 % -->
     <g transform="translate(165.868088 310.919444)scale(0.1728 -0.1728)">
      <defs>
       <path d="M 12.40625 8.296875 
L 28.515625 8.296875 
L 28.515625 63.921875 
L 10.984375 60.40625 
L 10.984375 69.390625 
L 28.421875 72.90625 
L 38.28125 72.90625 
L 38.28125 8.296875 
L 54.390625 8.296875 
L 54.390625 0 
L 12.40625 0 
z
" id="DejaVuSans-49"/>
       <path d="M 44.28125 53.078125 
L 44.28125 44.578125 
Q 40.484375 46.53125 36.375 47.5 
Q 32.28125 48.484375 27.875 48.484375 
Q 21.1875 48.484375 17.84375 46.4375 
Q 14.5 44.390625 14.5 40.28125 
Q 14.5 37.15625 16.890625 35.375 
Q 19.28125 33.59375 26.515625 31.984375 
L 29.59375 31.296875 
Q 39.15625 29.25 43.1875 25.515625 
Q 47.21875 21.78125 47.21875 15.09375 
Q 47.21875 7.46875 41.1875 3.015625 
Q 35.15625 -1.421875 24.609375 -1.421875 
Q 20.21875 -1.421875 15.453125 -0.5625 
Q 10.6875 0.296875 5.421875 2 
L 5.421875 11.28125 
Q 10.40625 8.6875 15.234375 7.390625 
Q 20.0625 6.109375 24.8125 6.109375 
Q 31.15625 6.109375 34.5625 8.28125 
Q 37.984375 10.453125 37.984375 14.40625 
Q 37.984375 18.0625 35.515625 20.015625 
Q 33.0625 21.96875 24.703125 23.78125 
L 21.578125 24.515625 
Q 13.234375 26.265625 9.515625 29.90625 
Q 5.8125 33.546875 5.8125 39.890625 
Q 5.8125 47.609375 11.28125 51.796875 
Q 16.75 56 26.8125 56 
Q 31.78125 56 36.171875 55.265625 
Q 40.578125 54.546875 44.28125 53.078125 
z
" id="DejaVuSans-115"/>
       <path d="M 18.3125 70.21875 
L 18.3125 54.6875 
L 36.8125 54.6875 
L 36.8125 47.703125 
L 18.3125 47.703125 
L 18.3125 18.015625 
Q 18.3125 11.328125 20.140625 9.421875 
Q 21.96875 7.515625 27.59375 7.515625 
L 36.8125 7.515625 
L 36.8125 0 
L 27.59375 0 
Q 17.1875 0 13.234375 3.875 
Q 9.28125 7.765625 9.28125 18.015625 
L 9.28125 47.703125 
L 2.6875 47.703125 
L 2.6875 54.6875 
L 9.28125 54.6875 
L 9.28125 70.21875 
z
" id="DejaVuSans-116"/>
       <path id="DejaVuSans-32"/>
       <path d="M 19.671875 64.796875 
L 19.671875 37.40625 
L 32.078125 37.40625 
Q 38.96875 37.40625 42.71875 40.96875 
Q 46.484375 44.53125 46.484375 51.125 
Q 46.484375 57.671875 42.71875 61.234375 
Q 38.96875 64.796875 32.078125 64.796875 
z
M 9.8125 72.90625 
L 32.078125 72.90625 
Q 44.34375 72.90625 50.609375 67.359375 
Q 56.890625 61.8125 56.890625 51.125 
Q 56.890625 40.328125 50.609375 34.8125 
Q 44.34375 29.296875 32.078125 29.296875 
L 19.671875 29.296875 
L 19.671875 0 
L 9.8125 0 
z
" id="DejaVuSans-80"/>
       <path d="M 64.40625 67.28125 
L 64.40625 56.890625 
Q 59.421875 61.53125 53.78125 63.8125 
Q 48.140625 66.109375 41.796875 66.109375 
Q 29.296875 66.109375 22.65625 58.46875 
Q 16.015625 50.828125 16.015625 36.375 
Q 16.015625 21.96875 22.65625 14.328125 
Q 29.296875 6.6875 41.796875 6.6875 
Q 48.140625 6.6875 53.78125 8.984375 
Q 59.421875 11.28125 64.40625 15.921875 
L 64.40625 5.609375 
Q 59.234375 2.09375 53.4375 0.328125 
Q 47.65625 -1.421875 41.21875 -1.421875 
Q 24.65625 -1.421875 15.125 8.703125 
Q 5.609375 18.84375 5.609375 36.375 
Q 5.609375 53.953125 15.125 64.078125 
Q 24.65625 74.21875 41.21875 74.21875 
Q 47.75 74.21875 53.53125 72.484375 
Q 59.328125 70.75 64.40625 67.28125 
z
" id="DejaVuSans-67"/>
       <path d="M 11.71875 12.40625 
L 22.015625 12.40625 
L 22.015625 0 
L 11.71875 0 
z
M 11.71875 51.703125 
L 22.015625 51.703125 
L 22.015625 39.3125 
L 11.71875 39.3125 
z
" id="DejaVuSans-58"/>
       <path d="M 8.203125 72.90625 
L 55.078125 72.90625 
L 55.078125 68.703125 
L 28.609375 0 
L 18.3125 0 
L 43.21875 64.59375 
L 8.203125 64.59375 
z
" id="DejaVuSans-55"/>
       <path d="M 10.796875 72.90625 
L 49.515625 72.90625 
L 49.515625 64.59375 
L 19.828125 64.59375 
L 19.828125 46.734375 
Q 21.96875 47.46875 24.109375 47.828125 
Q 26.265625 48.1875 28.421875 48.1875 
Q 40.625 48.1875 47.75 41.5 
Q 54.890625 34.8125 54.890625 23.390625 
Q 54.890625 11.625 47.5625 5.09375 
Q 40.234375 -1.421875 26.90625 -1.421875 
Q 22.3125 -1.421875 17.546875 -0.640625 
Q 12.796875 0.140625 7.71875 1.703125 
L 7.71875 11.625 
Q 12.109375 9.234375 16.796875 8.0625 
Q 21.484375 6.890625 26.703125 6.890625 
Q 35.15625 6.890625 40.078125 11.328125 
Q 45.015625 15.765625 45.015625 23.390625 
Q 45.015625 31 40.078125 35.4375 
Q 35.15625 39.890625 26.703125 39.890625 
Q 22.75 39.890625 18.8125 39.015625 
Q 14.890625 38.140625 10.796875 36.28125 
z
" id="DejaVuSans-53"/>
       <path d="M 10.6875 12.40625 
L 21 12.40625 
L 21 0 
L 10.6875 0 
z
" id="DejaVuSans-46"/>
       <path d="M 10.984375 1.515625 
L 10.984375 10.5 
Q 14.703125 8.734375 18.5 7.8125 
Q 22.3125 6.890625 25.984375 6.890625 
Q 35.75 6.890625 40.890625 13.453125 
Q 46.046875 20.015625 46.78125 33.40625 
Q 43.953125 29.203125 39.59375 26.953125 
Q 35.25 24.703125 29.984375 24.703125 
Q 19.046875 24.703125 12.671875 31.3125 
Q 6.296875 37.9375 6.296875 49.421875 
Q 6.296875 60.640625 12.9375 67.421875 
Q 19.578125 74.21875 30.609375 74.21875 
Q 43.265625 74.21875 49.921875 64.515625 
Q 56.59375 54.828125 56.59375 36.375 
Q 56.59375 19.140625 48.40625 8.859375 
Q 40.234375 -1.421875 26.421875 -1.421875 
Q 22.703125 -1.421875 18.890625 -0.6875 
Q 15.09375 0.046875 10.984375 1.515625 
z
M 30.609375 32.421875 
Q 37.25 32.421875 41.125 36.953125 
Q 45.015625 41.5 45.015625 49.421875 
Q 45.015625 57.28125 41.125 61.84375 
Q 37.25 66.40625 30.609375 66.40625 
Q 23.96875 66.40625 20.09375 61.84375 
Q 16.21875 57.28125 16.21875 49.421875 
Q 16.21875 41.5 20.09375 36.953125 
Q 23.96875 32.421875 30.609375 32.421875 
z
" id="DejaVuSans-57"/>
       <path d="M 72.703125 32.078125 
Q 68.453125 32.078125 66.03125 28.46875 
Q 63.625 24.859375 63.625 18.40625 
Q 63.625 12.0625 66.03125 8.421875 
Q 68.453125 4.78125 72.703125 4.78125 
Q 76.859375 4.78125 79.265625 8.421875 
Q 81.6875 12.0625 81.6875 18.40625 
Q 81.6875 24.8125 79.265625 28.4375 
Q 76.859375 32.078125 72.703125 32.078125 
z
M 72.703125 38.28125 
Q 80.421875 38.28125 84.953125 32.90625 
Q 89.5 27.546875 89.5 18.40625 
Q 89.5 9.28125 84.9375 3.921875 
Q 80.375 -1.421875 72.703125 -1.421875 
Q 64.890625 -1.421875 60.34375 3.921875 
Q 55.8125 9.28125 55.8125 18.40625 
Q 55.8125 27.59375 60.375 32.9375 
Q 64.9375 38.28125 72.703125 38.28125 
z
M 22.3125 68.015625 
Q 18.109375 68.015625 15.6875 64.375 
Q 13.28125 60.75 13.28125 54.390625 
Q 13.28125 47.953125 15.671875 44.328125 
Q 18.0625 40.71875 22.3125 40.71875 
Q 26.5625 40.71875 28.96875 44.328125 
Q 31.390625 47.953125 31.390625 54.390625 
Q 31.390625 60.6875 28.953125 64.34375 
Q 26.515625 68.015625 22.3125 68.015625 
z
M 66.40625 74.21875 
L 74.21875 74.21875 
L 28.609375 -1.421875 
L 20.796875 -1.421875 
z
M 22.3125 74.21875 
Q 30.03125 74.21875 34.609375 68.875 
Q 39.203125 63.53125 39.203125 54.390625 
Q 39.203125 45.171875 34.640625 39.84375 
Q 30.078125 34.515625 22.3125 34.515625 
Q 14.546875 34.515625 10.03125 39.859375 
Q 5.515625 45.21875 5.515625 54.390625 
Q 5.515625 63.484375 10.046875 68.84375 
Q 14.59375 74.21875 22.3125 74.21875 
z
" id="DejaVuSans-37"/>
      </defs>
      <use xlink:href="#DejaVuSans-49"/>
      <use x="63.623047" xlink:href="#DejaVuSans-115"/>
      <use x="115.722656" xlink:href="#DejaVuSans-116"/>
      <use x="154.931641" xlink:href="#DejaVuSans-32"/>
      <use x="186.71875" xlink:href="#DejaVuSans-80"/>
      <use x="247.021484" xlink:href="#DejaVuSans-67"/>
      <use x="316.845703" xlink:href="#DejaVuSans-58"/>
      <use x="350.537109" xlink:href="#DejaVuSans-32"/>
      <use x="382.324219" xlink:href="#DejaVuSans-55"/>
      <use x="445.947266" xlink:href="#DejaVuSans-53"/>
      <use x="509.570312" xlink:href="#DejaVuSans-46"/>
      <use x="541.357422" xlink:href="#DejaVuSans-57"/>
      <use x="604.980469" xlink:href="#DejaVuSans-52"/>
      <use x="668.603516" xlink:href="#DejaVuSans-32"/>
      <use x="700.390625" xlink:href="#DejaVuSans-37"/>
     </g>
    </g>
   </g>
   <g id="matplotlib.axis_2">
    <g id="ytick_1">
     <g id="line2d_7">
      <defs>
       <path d="M 0 0 
L -3.5 0 
" id="m1d0de4f71c" style="stroke:#000000;stroke-width:0.8;"/>
      </defs>
      <g>
       <use style="stroke:#000000;stroke-width:0.8;" x="56.028488" xlink:href="#m1d0de4f71c" y="277.111219"/>
      </g>
     </g>
     <g id="text_8">
      <!-- −20 -->
      <g transform="translate(27.9238 280.910437)scale(0.1 -0.1)">
       <use xlink:href="#DejaVuSans-8722"/>
       <use x="83.789062" xlink:href="#DejaVuSans-50"/>
       <use x="147.412109" xlink:href="#DejaVuSans-48"/>
      </g>
     </g>
    </g>
    <g id="ytick_2">
     <g id="line2d_8">
      <g>
       <use style="stroke:#000000;stroke-width:0.8;" x="56.028488" xlink:href="#m1d0de4f71c" y="243.847219"/>
      </g>
     </g>
     <g id="text_9">
      <!-- −15 -->
      <g transform="translate(27.9238 247.646437)scale(0.1 -0.1)">
       <use xlink:href="#DejaVuSans-8722"/>
       <use x="83.789062" xlink:href="#DejaVuSans-49"/>
       <use x="147.412109" xlink:href="#DejaVuSans-53"/>
      </g>
     </g>
    </g>
    <g id="ytick_3">
     <g id="line2d_9">
      <g>
       <use style="stroke:#000000;stroke-width:0.8;" x="56.028488" xlink:href="#m1d0de4f71c" y="210.583219"/>
      </g>
     </g>
     <g id="text_10">
      <!-- −10 -->
      <g transform="translate(27.9238 214.382437)scale(0.1 -0.1)">
       <use xlink:href="#DejaVuSans-8722"/>
       <use x="83.789062" xlink:href="#DejaVuSans-49"/>
       <use x="147.412109" xlink:href="#DejaVuSans-48"/>
      </g>
     </g>
    </g>
    <g id="ytick_4">
     <g id="line2d_10">
      <g>
       <use style="stroke:#000000;stroke-width:0.8;" x="56.028488" xlink:href="#m1d0de4f71c" y="177.319219"/>
      </g>
     </g>
     <g id="text_11">
      <!-- −5 -->
      <g transform="translate(34.2863 181.118437)scale(0.1 -0.1)">
       <use xlink:href="#DejaVuSans-8722"/>
       <use x="83.789062" xlink:href="#DejaVuSans-53"/>
      </g>
     </g>
    </g>
    <g id="ytick_5">
     <g id="line2d_11">
      <g>
       <use style="stroke:#000000;stroke-width:0.8;" x="56.028488" xlink:href="#m1d0de4f71c" y="144.055219"/>
      </g>
     </g>
     <g id="text_12">
      <!-- 0 -->
      <g transform="translate(42.665987 147.854437)scale(0.1 -0.1)">
       <use xlink:href="#DejaVuSans-48"/>
      </g>
     </g>
    </g>
    <g id="ytick_6">
     <g id="line2d_12">
      <g>
       <use style="stroke:#000000;stroke-width:0.8;" x="56.028488" xlink:href="#m1d0de4f71c" y="110.791219"/>
      </g>
     </g>
     <g id="text_13">
      <!-- 5 -->
      <g transform="translate(42.665987 114.590437)scale(0.1 -0.1)">
       <use xlink:href="#DejaVuSans-53"/>
      </g>
     </g>
    </g>
    <g id="ytick_7">
     <g id="line2d_13">
      <g>
       <use style="stroke:#000000;stroke-width:0.8;" x="56.028488" xlink:href="#m1d0de4f71c" y="77.527219"/>
      </g>
     </g>
     <g id="text_14">
      <!-- 10 -->
      <g transform="translate(36.303488 81.326437)scale(0.1 -0.1)">
       <use xlink:href="#DejaVuSans-49"/>
       <use x="63.623047" xlink:href="#DejaVuSans-48"/>
      </g>
     </g>
    </g>
    <g id="ytick_8">
     <g id="line2d_14">
      <g>
       <use style="stroke:#000000;stroke-width:0.8;" x="56.028488" xlink:href="#m1d0de4f71c" y="44.263219"/>
      </g>
     </g>
     <g id="text_15">
      <!-- 15 -->
      <g transform="translate(36.303488 48.062437)scale(0.1 -0.1)">
       <use xlink:href="#DejaVuSans-49"/>
       <use x="63.623047" xlink:href="#DejaVuSans-53"/>
      </g>
     </g>
    </g>
    <g id="ytick_9">
     <g id="line2d_15">
      <g>
       <use style="stroke:#000000;stroke-width:0.8;" x="56.028488" xlink:href="#m1d0de4f71c" y="10.999219"/>
      </g>
     </g>
     <g id="text_16">
      <!-- 20 -->
      <g transform="translate(36.303488 14.798437)scale(0.1 -0.1)">
       <use xlink:href="#DejaVuSans-50"/>
       <use x="63.623047" xlink:href="#DejaVuSans-48"/>
      </g>
     </g>
    </g>
    <g id="text_17">
     <!-- 2nd PC: 12.45 % -->
     <g transform="translate(20.3301 215.848219)rotate(-90)scale(0.1728 -0.1728)">
      <defs>
       <path d="M 54.890625 33.015625 
L 54.890625 0 
L 45.90625 0 
L 45.90625 32.71875 
Q 45.90625 40.484375 42.875 44.328125 
Q 39.84375 48.1875 33.796875 48.1875 
Q 26.515625 48.1875 22.3125 43.546875 
Q 18.109375 38.921875 18.109375 30.90625 
L 18.109375 0 
L 9.078125 0 
L 9.078125 54.6875 
L 18.109375 54.6875 
L 18.109375 46.1875 
Q 21.34375 51.125 25.703125 53.5625 
Q 30.078125 56 35.796875 56 
Q 45.21875 56 50.046875 50.171875 
Q 54.890625 44.34375 54.890625 33.015625 
z
" id="DejaVuSans-110"/>
       <path d="M 45.40625 46.390625 
L 45.40625 75.984375 
L 54.390625 75.984375 
L 54.390625 0 
L 45.40625 0 
L 45.40625 8.203125 
Q 42.578125 3.328125 38.25 0.953125 
Q 33.9375 -1.421875 27.875 -1.421875 
Q 17.96875 -1.421875 11.734375 6.484375 
Q 5.515625 14.40625 5.515625 27.296875 
Q 5.515625 40.1875 11.734375 48.09375 
Q 17.96875 56 27.875 56 
Q 33.9375 56 38.25 53.625 
Q 42.578125 51.265625 45.40625 46.390625 
z
M 14.796875 27.296875 
Q 14.796875 17.390625 18.875 11.75 
Q 22.953125 6.109375 30.078125 6.109375 
Q 37.203125 6.109375 41.296875 11.75 
Q 45.40625 17.390625 45.40625 27.296875 
Q 45.40625 37.203125 41.296875 42.84375 
Q 37.203125 48.484375 30.078125 48.484375 
Q 22.953125 48.484375 18.875 42.84375 
Q 14.796875 37.203125 14.796875 27.296875 
z
" id="DejaVuSans-100"/>
      </defs>
      <use xlink:href="#DejaVuSans-50"/>
      <use x="63.623047" xlink:href="#DejaVuSans-110"/>
      <use x="127.001953" xlink:href="#DejaVuSans-100"/>
      <use x="190.478516" xlink:href="#DejaVuSans-32"/>
      <use x="222.265625" xlink:href="#DejaVuSans-80"/>
      <use x="282.568359" xlink:href="#DejaVuSans-67"/>
      <use x="352.392578" xlink:href="#DejaVuSans-58"/>
      <use x="386.083984" xlink:href="#DejaVuSans-32"/>
      <use x="417.871094" xlink:href="#DejaVuSans-49"/>
      <use x="481.494141" xlink:href="#DejaVuSans-50"/>
      <use x="545.117188" xlink:href="#DejaVuSans-46"/>
      <use x="576.904297" xlink:href="#DejaVuSans-52"/>
      <use x="640.527344" xlink:href="#DejaVuSans-53"/>
      <use x="704.150391" xlink:href="#DejaVuSans-32"/>
      <use x="735.9375" xlink:href="#DejaVuSans-37"/>
     </g>
    </g>
   </g>
   <g id="LineCollection_1"/>
   <g id="LineCollection_2"/>
   <g id="LineCollection_3"/>
   <g id="LineCollection_4">
    <path clip-path="url(#p29b4538bd0)" d="M 134.62866 150.938539 
L 134.571479 152.119804 
L 134.3573 152.925619 
L 131.001343 157.400779 
L 127.623596 161.796019 
L 127.431207 161.927675 
L 123.861071 163.520072 
L 120.290935 163.964287 
L 118.106724 161.796019 
L 118.091141 152.925619 
L 118.936371 144.055219 
L 119.779277 135.184819 
L 120.290935 134.075121 
L 123.861071 129.039877 
L 127.431207 127.73302 
L 131.001343 130.142101 
L 131.648695 131.249596 
" style="fill:none;stroke:#453781;stroke-width:1.5;"/>
   </g>
   <g id="LineCollection_5">
    <path clip-path="url(#p29b4538bd0)" d="M 124.068547 125.578004 
L 127.431207 125.504303 
L 131.001343 125.799118 
L 133.15815 126.314419 
L 134.571479 129.228938 
L 136.102843 135.184819 
L 137.683714 144.055219 
L 138.141615 152.832145 
L 138.143091 152.925619 
L 138.141615 152.944806 
L 135.558172 161.796019 
L 134.571479 162.909324 
L 131.001343 166.49276 
L 128.122179 170.666419 
L 127.431207 171.110293 
L 123.861071 173.172411 
L 120.290935 175.951647 
L 116.720799 179.290109 
L 116.33702 179.536819 
L 113.150663 180.244956 
L 109.580527 180.800523 
L 106.010391 180.618065 
L 104.977043 179.536819 
L 104.076246 170.666419 
L 105.430898 161.796019 
L 106.010391 159.823377 
L 108.250518 152.925619 
L 109.580527 149.193692 
L 111.142153 144.055219 
L 113.150663 137.267483 
L 113.637365 135.184819 
L 116.720799 128.706519 
L 116.730428 128.685117 
" style="fill:none;stroke:#404688;stroke-width:1.5;"/>
   </g>
   <g id="LineCollection_6">
    <path clip-path="url(#p29b4538bd0)" d="M 102.796533 185.159728 
L 102.440255 184.759594 
L 101.000523 179.536819 
L 100.207908 170.666419 
L 100.56298 161.796019 
L 101.513704 152.925619 
L 102.367017 144.055219 
L 102.440255 143.624971 
L 106.010391 136.854394 
L 106.713792 135.184819 
L 109.580527 132.707454 
L 113.150663 126.579244 
L 113.271954 126.314419 
L 116.720799 125.527031 
L 120.290935 124.999436 
L 123.861071 124.693984 
L 127.431207 124.608749 
L 131.001343 125.041714 
L 134.571479 126.155001 
L 134.88876 126.314419 
L 137.783715 135.184819 
L 138.141615 136.992746 
L 138.56338 144.055219 
L 138.967038 152.925619 
L 138.300218 161.796019 
L 138.141615 162.261766 
L 134.571479 166.436196 
L 131.729573 170.666419 
L 131.001343 171.200594 
L 127.431207 173.780545 
L 123.861071 177.446004 
L 122.061486 179.536819 
L 120.290935 180.415442 
L 116.720799 182.118037 
L 113.150663 184.020959 
L 110.123591 186.007624 
" style="fill:none;stroke:#39558c;stroke-width:1.5;"/>
   </g>
   <g id="LineCollection_7">
    <path clip-path="url(#p29b4538bd0)" d="M 113.204423 125.351118 
L 116.720799 124.543239 
L 120.290935 124.10036 
L 123.861071 123.805416 
L 127.431207 123.713194 
L 131.001343 124.28431 
L 134.571479 125.867334 
L 135.461288 126.314419 
L 138.141615 133.908144 
L 138.269189 135.184819 
L 139.070451 144.055219 
L 139.790984 152.925619 
L 139.214343 161.796019 
L 138.141615 164.946149 
L 134.571479 169.963067 
L 134.09896 170.666419 
L 131.001343 172.938601 
L 127.431207 176.450797 
L 124.955293 179.536819 
L 123.861071 180.187485 
L 120.290935 182.240784 
L 116.720799 184.758907 
L 113.150663 187.796963 
L 112.424319 188.407219 
L 109.580527 189.411657 
L 106.010391 190.356692 
L 102.440255 189.14999 
L 101.910634 188.407219 
L 98.870119 179.539561 
L 98.869629 179.536819 
L 98.396559 170.666419 
L 98.469439 161.796019 
L 98.861414 152.925619 
L 98.870119 152.834015 
L 100.956226 144.055219 
L 102.440255 135.337086 
L 102.510786 135.184819 
L 106.010391 132.053198 
L 106.059853 131.970352 
" style="fill:none;stroke:#33638d;stroke-width:1.5;"/>
   </g>
   <g id="LineCollection_8">
    <path clip-path="url(#p29b4538bd0)" d="M 109.404554 191.059196 
L 106.010391 192.219019 
L 102.440255 190.555536 
L 100.908434 188.407219 
L 98.870119 182.462478 
L 98.34682 179.536819 
L 97.510748 170.666419 
L 97.579642 161.796019 
L 98.297208 152.925619 
L 98.870119 146.8971 
L 99.545436 144.055219 
L 101.956313 135.184819 
L 102.440255 133.86228 
L 106.010391 128.617857 
L 107.385614 126.314419 
L 109.580527 125.682005 
L 113.150663 124.384979 
L 116.720799 123.559448 
L 120.290935 123.201285 
L 123.861071 122.916848 
L 127.431207 122.81764 
L 131.001343 123.526906 
L 134.571479 125.579667 
L 136.033817 126.314419 
L 138.141615 132.286093 
L 138.431276 135.184819 
L 139.577521 144.055219 
L 140.614931 152.925619 
L 140.128468 161.796019 
L 138.141615 167.630532 
L 136.051225 170.666419 
L 134.571479 171.624997 
L 131.001343 174.676609 
L 127.431207 179.121049 
L 127.097635 179.536819 
L 123.861071 181.461404 
L 120.290935 184.066126 
L 116.865603 187.264565 
" style="fill:none;stroke:#2d718e;stroke-width:1.5;"/>
   </g>
   <g id="LineCollection_9">
    <path clip-path="url(#p29b4538bd0)" d="M 109.422573 192.652611 
L 106.010391 194.081347 
L 102.440255 191.961082 
L 99.906233 188.407219 
L 98.870119 185.385395 
L 97.824011 179.536819 
L 96.624938 170.666419 
L 96.689846 161.796019 
L 97.733002 152.925619 
L 98.72258 144.055219 
L 98.870119 143.255351 
L 101.463313 135.184819 
L 102.440255 132.514989 
L 105.771872 126.314419 
L 106.010391 126.228483 
L 109.580527 125.091055 
L 113.150663 123.406488 
L 116.720799 122.575657 
L 120.290935 122.302209 
L 123.861071 122.028281 
L 127.431207 121.922086 
L 131.001343 122.769502 
L 134.571479 125.292 
L 136.606346 126.314419 
L 138.141615 130.664043 
L 138.593363 135.184819 
L 140.084592 144.055219 
L 141.438877 152.925619 
L 141.042593 161.796019 
L 138.141615 170.314914 
L 137.899583 170.666419 
L 134.571479 172.822361 
L 131.001343 176.414616 
L 128.572656 179.536819 
L 127.431207 180.294601 
L 123.861071 182.735324 
L 120.290935 185.891468 
L 117.826692 188.407219 
L 116.893917 188.870765 
" style="fill:none;stroke:#287d8e;stroke-width:1.5;"/>
   </g>
   <g id="LineCollection_10">
    <path clip-path="url(#p29b4538bd0)" d="M 115.878882 190.30329 
L 113.150663 191.78728 
L 109.580527 194.173881 
L 106.010391 195.943674 
L 102.440255 193.366628 
L 98.904032 188.407219 
L 98.870119 188.308313 
L 97.301202 179.536819 
L 95.739127 170.666419 
L 95.800049 161.796019 
L 97.168797 152.925619 
L 98.439569 144.055219 
L 98.870119 141.721039 
L 100.970314 135.184819 
L 102.440255 131.167698 
L 105.047961 126.314419 
L 106.010391 125.967668 
L 109.580527 124.500105 
L 113.150663 122.427997 
L 116.720799 121.591866 
L 120.290935 121.403134 
L 123.861071 121.139713 
L 127.431207 121.026531 
L 131.001343 122.012097 
L 134.571479 125.004333 
L 137.178874 126.314419 
L 138.141615 129.041993 
L 138.755449 135.184819 
L 140.591662 144.055219 
L 141.711751 150.864047 
L 141.754815 152.925619 
L 141.744275 161.796019 
L 141.711751 162.446206 
L 138.870434 170.666419 
L 138.141615 171.49029 
L 134.571479 174.019725 
L 131.001343 178.152623 
L 129.924611 179.536819 
L 127.431207 181.192132 
L 123.861071 184.009243 
L 123.223597 184.671256 
" style="fill:none;stroke:#238a8d;stroke-width:1.5;"/>
   </g>
   <g id="LineCollection_11">
    <path clip-path="url(#p29b4538bd0)" d="M 127.300348 182.206717 
L 123.861071 185.283162 
L 121.013031 188.407219 
L 120.290935 188.81482 
L 116.720799 190.733876 
L 113.150663 192.97812 
L 109.580527 195.761289 
L 106.827962 197.277619 
L 106.010391 197.422381 
L 105.52017 197.277619 
L 102.440255 194.772174 
L 98.870119 189.258312 
L 98.62077 188.407219 
L 96.778393 179.536819 
L 95.299983 172.00879 
L 95.234684 170.666419 
L 95.226204 161.796019 
L 95.299983 160.383357 
L 96.604591 152.925619 
L 98.156558 144.055219 
L 98.870119 140.186727 
L 100.477314 135.184819 
L 102.440255 129.820407 
L 104.324051 126.314419 
L 106.010391 125.706853 
L 109.580527 123.909155 
L 113.150663 121.449505 
L 116.720799 120.608075 
L 120.290935 120.504058 
L 123.861071 120.251145 
L 127.431207 120.130977 
L 131.001343 121.254693 
L 134.571479 124.716666 
L 137.751403 126.314419 
L 138.141615 127.419942 
L 138.917536 135.184819 
L 141.098733 144.055219 
L 141.711751 147.781653 
L 141.819203 152.925619 
L 141.865644 161.796019 
L 141.711751 164.872457 
L 139.709068 170.666419 
L 138.141615 172.438298 
L 134.571479 175.217089 
L 134.538827 175.258826 
" style="fill:none;stroke:#1f968b;stroke-width:1.5;"/>
   </g>
   <g id="LineCollection_12">
    <path clip-path="url(#p29b4538bd0)" d="M 101.728171 130.419131 
L 102.440255 128.473116 
L 103.600141 126.314419 
L 106.010391 125.446038 
L 109.580527 123.318206 
L 113.150663 120.471014 
L 116.720799 119.624284 
L 120.290935 119.604983 
L 123.861071 119.362577 
L 127.431207 119.235423 
L 131.001343 120.497289 
L 134.571479 124.428999 
L 138.141615 126.3015 
L 138.148096 126.314419 
L 139.079622 135.184819 
L 141.605803 144.055219 
L 141.711751 144.699258 
L 141.883592 152.925619 
L 141.987012 161.796019 
L 141.711751 167.298709 
L 140.547702 170.666419 
L 138.141615 173.386305 
L 134.571479 176.414453 
L 132.128767 179.536819 
L 131.001343 180.299979 
L 127.431207 182.987195 
L 123.861071 186.557081 
L 122.174397 188.407219 
L 120.290935 189.470376 
L 116.720799 191.622415 
L 113.150663 194.168959 
L 109.640731 197.277619 
L 109.580527 197.302369 
L 106.010391 197.932608 
L 103.792348 197.277619 
L 102.440255 196.17772 
L 98.870119 190.139214 
L 98.362687 188.407219 
L 96.255584 179.536819 
L 95.299983 174.67092 
L 95.105184 170.666419 
L 95.057759 161.796019 
L 95.299983 157.158097 
L 96.040385 152.925619 
L 96.808759 149.207571 
" style="fill:none;stroke:#20a386;stroke-width:1.5;"/>
   </g>
   <g id="LineCollection_13">
    <path clip-path="url(#p29b4538bd0)" d="M 123.844281 187.849418 
L 123.335763 188.407219 
L 120.290935 190.125932 
L 116.720799 192.510955 
L 113.150663 195.359799 
L 110.985287 197.277619 
L 109.580527 197.855126 
L 106.010391 198.442835 
L 102.440255 197.368363 
L 102.33421 197.277619 
L 98.870119 191.020116 
L 98.104605 188.407219 
L 95.732776 179.536819 
L 95.299983 177.33305 
L 94.975685 170.666419 
L 94.889313 161.796019 
L 95.299983 153.932837 
L 95.476179 152.925619 
L 97.590536 144.055219 
L 98.870119 137.118103 
L 99.491315 135.184819 
L 102.440255 127.125825 
L 102.876231 126.314419 
L 106.010391 125.185222 
L 109.580527 122.727256 
L 113.150663 119.492523 
L 116.720799 118.640493 
L 120.290935 118.705907 
L 123.861071 118.47401 
L 127.431207 118.339868 
L 131.001343 119.739885 
L 134.571479 124.141332 
L 138.141615 126.260931 
L 138.16845 126.314419 
L 139.241709 135.184819 
L 141.711751 143.617479 
L 141.72872 144.055219 
L 141.94798 152.925619 
L 142.108381 161.796019 
L 141.711751 169.72496 
L 141.386336 170.666419 
L 138.141615 174.334313 
L 134.571479 177.611818 
L 133.065498 179.536819 
L 131.100027 180.867258 
" style="fill:none;stroke:#29af7f;stroke-width:1.5;"/>
   </g>
   <g id="LineCollection_14">
    <path clip-path="url(#p29b4538bd0)" d="M 123.842141 188.674124 
L 120.290935 190.781487 
L 116.720799 193.399494 
L 113.150663 196.550638 
L 112.329842 197.277619 
L 109.580527 198.407883 
L 106.010391 198.953062 
L 102.440255 197.785661 
L 101.846552 197.277619 
L 98.870119 191.901017 
L 97.846522 188.407219 
L 95.299983 179.68895 
L 95.286278 179.536819 
L 94.846186 170.666419 
L 94.720868 161.796019 
L 95.224217 152.925619 
L 95.299983 152.141647 
L 97.307525 144.055219 
L 98.870119 135.583791 
L 98.998315 135.184819 
L 102.382135 126.314419 
L 102.440255 126.259835 
L 106.010391 124.924407 
L 109.580527 122.136306 
L 113.150663 118.514032 
L 116.720799 117.656701 
L 120.290935 117.806832 
L 123.861071 117.585442 
L 127.431207 117.444314 
L 131.001343 118.982481 
L 134.571479 123.853665 
L 138.141615 126.220361 
L 138.188804 126.314419 
L 139.403796 135.184819 
L 141.711751 143.064119 
L 141.75017 144.055219 
L 142.012368 152.925619 
L 142.22975 161.796019 
L 141.800726 170.666419 
L 141.711751 171.179983 
L 138.141615 175.282321 
L 134.571479 178.809182 
L 134.002229 179.536819 
L 131.080618 181.514475 
" style="fill:none;stroke:#3dbc74;stroke-width:1.5;"/>
   </g>
   <g id="LineCollection_15">
    <path clip-path="url(#p29b4538bd0)" d="M 130.875344 182.324947 
L 127.431207 185.679788 
L 125.065789 188.407219 
L 123.861071 189.129715 
L 120.290935 191.437043 
L 116.720799 194.288034 
L 113.521095 197.277619 
L 113.150663 197.453252 
L 109.580527 198.96064 
L 106.010391 199.463289 
L 102.440255 198.202958 
L 101.358893 197.277619 
L 98.870119 192.781919 
L 97.58844 188.407219 
L 95.299983 180.572514 
L 95.206679 179.536819 
L 94.716686 170.666419 
L 94.552422 161.796019 
L 95.114044 152.925619 
L 95.299983 151.001671 
L 97.024514 144.055219 
L 98.792438 135.184819 
L 98.870119 134.908737 
L 102.236014 126.314419 
L 102.440255 126.122604 
L 106.010391 124.663592 
L 109.580527 121.545356 
L 113.150663 117.535541 
L 113.531277 117.444019 
L 116.720799 117.415841 
L 120.290935 117.421874 
L 123.861071 117.414241 
L 127.431207 117.423709 
L 129.188536 117.444019 
L 131.001343 118.225077 
L 134.571479 123.565998 
L 138.141615 126.179792 
L 138.209158 126.314419 
L 139.565882 135.184819 
L 141.711751 142.510759 
L 141.771621 144.055219 
L 142.076757 152.925619 
L 142.351118 161.796019 
L 141.946118 170.666419 
L 141.711751 172.019182 
L 138.193794 176.16878 
" style="fill:none;stroke:#56c667;stroke-width:1.5;"/>
   </g>
   <g id="LineCollection_16">
    <path clip-path="url(#p29b4538bd0)" d="M 130.888014 182.955048 
L 127.431207 186.57732 
L 125.844191 188.407219 
L 123.861071 189.596541 
L 120.290935 192.092599 
L 116.720799 195.176573 
L 114.472084 197.277619 
L 113.150663 197.904147 
L 109.580527 199.513398 
L 106.010391 199.973517 
L 102.440255 198.620255 
L 100.871235 197.277619 
L 98.870119 193.662821 
L 97.330358 188.407219 
L 95.299983 181.456079 
L 95.127079 179.536819 
L 94.587187 170.666419 
L 94.383977 161.796019 
L 95.003871 152.925619 
L 95.299983 149.861696 
L 96.741503 144.055219 
L 98.687458 135.184819 
L 98.870119 134.535637 
L 102.089892 126.314419 
L 102.440255 125.985374 
L 106.010391 124.402776 
L 109.580527 120.954406 
L 112.677997 117.444019 
L 113.150663 117.41383 
L 116.720799 117.379892 
L 120.290935 117.384746 
L 123.861071 117.378827 
L 127.431207 117.403393 
L 130.946444 117.444019 
L 131.001343 117.467672 
L 134.571479 123.278331 
L 138.141615 126.139223 
L 138.229512 126.314419 
L 139.727969 135.184819 
L 141.711751 141.9574 
L 141.793072 144.055219 
L 142.141145 152.925619 
L 142.472487 161.796019 
L 142.091509 170.666419 
L 141.711751 172.858381 
L 138.225202 177.077193 
" style="fill:none;stroke:#75d054;stroke-width:1.5;"/>
   </g>
   <g id="LineCollection_17">
    <path clip-path="url(#p29b4538bd0)" d="M 130.901417 183.582456 
L 127.431207 187.474851 
L 126.622593 188.407219 
L 123.861071 190.063366 
L 120.290935 192.748155 
L 116.720799 196.065113 
L 115.423074 197.277619 
L 113.150663 198.355041 
L 109.580527 200.066155 
L 106.010391 200.483744 
L 102.440255 199.037552 
L 100.383577 197.277619 
L 98.870119 194.543722 
L 97.072275 188.407219 
L 95.299983 182.339644 
L 95.04748 179.536819 
L 94.457688 170.666419 
L 94.215531 161.796019 
L 94.893699 152.925619 
L 95.299983 148.72172 
L 96.458492 144.055219 
L 98.582478 135.184819 
L 98.870119 134.162537 
L 101.943771 126.314419 
L 102.440255 125.848143 
L 106.010391 124.141961 
L 109.580527 120.363457 
L 112.156559 117.444019 
L 113.150663 117.380526 
L 116.720799 117.343943 
L 120.290935 117.347618 
L 123.861071 117.343413 
L 127.431207 117.383077 
L 131.001343 117.432759 
L 131.172138 117.444019 
L 134.571479 122.990664 
L 138.141615 126.098653 
L 138.249865 126.314419 
L 139.890056 135.184819 
L 141.711751 141.40404 
L 141.814522 144.055219 
L 142.205533 152.925619 
L 142.593855 161.796019 
L 142.236901 170.666419 
L 141.711751 173.69758 
L 138.256421 177.983926 
" style="fill:none;stroke:#95d840;stroke-width:1.5;"/>
   </g>
   <g id="LineCollection_18">
    <path clip-path="url(#p29b4538bd0)" d="M 130.915513 184.207057 
L 127.431207 188.372382 
L 127.400994 188.407219 
L 123.861071 190.530191 
L 120.290935 193.40371 
L 116.720799 196.953652 
L 116.374063 197.277619 
L 113.150663 198.805936 
L 109.580527 200.618912 
L 106.010391 200.993971 
L 102.440255 199.45485 
L 99.895918 197.277619 
L 98.870119 195.424624 
L 96.814193 188.407219 
L 95.299983 183.223208 
L 94.967881 179.536819 
L 94.328188 170.666419 
L 94.047086 161.796019 
L 94.783526 152.925619 
L 95.299983 147.581744 
L 96.175481 144.055219 
L 98.477498 135.184819 
L 98.870119 133.789437 
L 101.797649 126.314419 
L 102.440255 125.710912 
L 106.010391 123.881146 
L 109.580527 119.772507 
L 111.635121 117.444019 
L 113.150663 117.347222 
L 116.720799 117.307994 
L 120.290935 117.31049 
L 123.861071 117.307999 
L 127.431207 117.362761 
L 131.001343 117.421137 
L 131.348439 117.444019 
L 134.571479 122.702997 
L 138.141615 126.058084 
L 138.270219 126.314419 
L 140.052142 135.184819 
L 141.711751 140.850681 
L 141.835973 144.055219 
L 142.269921 152.925619 
L 142.715224 161.796019 
L 142.382292 170.666419 
L 141.711751 174.536779 
L 138.287447 178.889001 
" style="fill:none;stroke:#bade28;stroke-width:1.5;"/>
   </g>
   <g id="LineCollection_19">
    <path clip-path="url(#p29b4538bd0)" d="M 130.929769 184.824299 
L 127.93981 188.407219 
L 127.431207 188.71645 
L 123.861071 190.997016 
L 120.290935 194.059266 
L 117.129915 197.277619 
L 116.720799 197.488692 
L 113.150663 199.25683 
L 109.580527 201.171669 
L 106.010391 201.504198 
L 102.440255 199.872147 
L 99.40826 197.277619 
L 98.870119 196.305526 
L 96.55611 188.407219 
L 95.299983 184.106773 
L 94.888282 179.536819 
L 94.198689 170.666419 
L 93.87864 161.796019 
L 94.673354 152.925619 
L 95.299983 146.441769 
L 95.89247 144.055219 
L 98.372519 135.184819 
L 98.870119 133.416338 
L 101.651528 126.314419 
L 102.440255 125.573681 
L 106.010391 123.620331 
L 109.580527 119.181557 
L 111.113683 117.444019 
L 113.150663 117.313918 
L 116.720799 117.272044 
L 120.290935 117.273363 
L 123.861071 117.272585 
L 127.431207 117.342444 
L 131.001343 117.409515 
L 131.52474 117.444019 
L 134.571479 122.41533 
L 138.141615 126.017515 
L 138.290573 126.314419 
L 140.214229 135.184819 
L 141.711751 140.297321 
L 141.857424 144.055219 
L 142.33431 152.925619 
L 142.836592 161.796019 
L 142.527684 170.666419 
L 141.711751 175.375978 
L 138.475878 179.536819 
L 138.309528 179.616049 
" style="fill:none;stroke:#dde318;stroke-width:1.5;"/>
   </g>
   <g id="LineCollection_20">
    <path clip-path="url(#p29b4538bd0)" d="M 130.944813 185.44035 
L 128.468951 188.407219 
L 127.431207 189.038169 
L 123.861071 191.463842 
L 120.290935 194.714822 
L 117.773793 197.277619 
L 116.720799 197.820884 
L 113.150663 199.707725 
L 109.580527 201.724426 
L 106.010391 202.014425 
L 102.440255 200.289444 
L 98.920602 197.277619 
L 98.870119 197.186427 
L 96.298028 188.407219 
L 95.299983 184.990338 
L 94.808682 179.536819 
L 94.06919 170.666419 
L 93.710195 161.796019 
L 94.563181 152.925619 
L 95.299983 145.301793 
L 95.609459 144.055219 
L 98.267539 135.184819 
L 98.870119 133.043238 
L 101.505406 126.314419 
L 102.440255 125.43645 
L 106.010391 123.359515 
L 109.580527 118.590607 
L 110.592246 117.444019 
L 113.150663 117.280614 
L 116.720799 117.236095 
L 120.290935 117.236235 
L 123.861071 117.237172 
L 127.431207 117.322128 
L 131.001343 117.397893 
L 131.70104 117.444019 
L 134.571479 122.127663 
L 138.141615 125.976945 
L 138.310927 126.314419 
L 140.376315 135.184819 
L 141.711751 139.743961 
L 141.878874 144.055219 
L 142.398698 152.925619 
L 142.957961 161.796019 
L 142.673075 170.666419 
L 141.711751 176.215177 
L 139.128521 179.536819 
L 138.303764 179.92964 
" style="fill:none;stroke:#fde725;stroke-width:1.5;"/>
   </g>
   <g id="LineCollection_21">
    <path clip-path="url(#p29b4538bd0)" d="M 112.463202 200.566567 
L 109.580527 202.277183 
L 106.010391 202.524652 
L 102.440255 200.706741 
L 98.870119 197.551946 
L 98.764903 197.277619 
L 96.039945 188.407219 
L 95.299983 185.873902 
L 94.729083 179.536819 
L 93.93969 170.666419 
L 93.541749 161.796019 
L 94.453009 152.925619 
L 95.299983 144.161818 
L 95.326448 144.055219 
L 98.162559 135.184819 
L 98.870119 132.670138 
L 101.359285 126.314419 
L 102.440255 125.29922 
L 106.010391 123.0987 
L 109.580527 117.999657 
L 110.070808 117.444019 
L 113.150663 117.247311 
L 116.720799 117.200146 
L 120.290935 117.199107 
L 123.861071 117.201758 
L 127.431207 117.301812 
L 131.001343 117.386271 
L 131.877341 117.444019 
L 134.571479 121.839996 
L 138.141615 125.936376 
L 138.331281 126.314419 
L 140.538402 135.184819 
L 141.711751 139.190602 
L 141.900325 144.055219 
L 142.463086 152.925619 
L 143.07933 161.796019 
L 142.818467 170.666419 
L 141.711751 177.054376 
L 139.781163 179.536819 
L 138.141615 180.317714 
L 134.571479 182.340213 
L 131.001343 186.006688 
L 128.998092 188.407219 
L 127.431207 189.359887 
L 123.861071 191.930667 
L 120.908663 194.775217 
" style="fill:none;stroke:#440154;stroke-width:1.5;"/>
   </g>
   <g id="LineCollection_22">
    <path clip-path="url(#p29b4538bd0)" d="M 103.699672 115.522254 
L 106.010391 114.684895 
L 109.580527 112.79436 
L 113.150663 111.252612 
L 116.720799 110.729283 
L 120.290935 110.51612 
L 123.861071 110.827249 
L 127.431207 113.64489 
L 131.001343 115.294272 
L 134.571479 116.438984 
L 137.602003 117.444019 
L 138.141615 118.633902 
L 141.711751 126.262386 
L 141.722634 126.314419 
L 142.554297 135.184819 
L 145.281887 143.714268 
L 145.301693 144.055219 
L 145.6724 152.925619 
L 146.493672 161.796019 
L 147.588421 170.666419 
L 147.855775 179.536819 
L 146.698807 188.407219 
L 145.281887 194.542421 
L 142.023867 197.277619 
L 141.711751 197.334466 
L 138.141615 198.584063 
L 134.571479 201.461788 
L 131.030241 206.148019 
L 131.001343 206.165482 
L 127.431207 208.289926 
L 123.861071 211.644977 
L 121.167751 215.018419 
L 120.290935 215.535727 
L 116.720799 217.886314 
L 113.150663 221.012149 
L 109.580527 221.936235 
L 106.010391 220.96807 
L 102.440255 219.247724 
L 98.870119 216.491592 
L 98.165414 215.018419 
L 95.299983 208.083084 
L 94.90392 206.148019 
L 92.782581 197.277619 
L 91.729847 193.597523 
L 91.277412 188.407219 
L 90.396064 179.536819 
L 89.567111 170.666419 
L 89.06679 161.796019 
L 89.539151 152.925619 
L 90.86026 144.055219 
L 91.729847 137.156411 
L 92.350867 135.184819 
L 94.935211 126.667397 
" style="fill:none;stroke:#440154;stroke-width:1.5;"/>
   </g>
   <g id="LineCollection_23">
    <path clip-path="url(#p29b4538bd0)" d="M 118.768336 234.042929 
L 116.720799 235.478093 
L 113.150663 236.927143 
L 109.580527 236.580783 
L 106.010391 235.787768 
L 102.440255 234.629794 
L 98.870119 232.785744 
L 98.853028 232.759219 
L 95.299983 224.62061 
L 95.094208 223.888819 
L 92.338838 215.018419 
L 91.729847 213.228421 
L 90.698244 206.148019 
L 88.159711 197.735531 
L 88.119528 197.277619 
L 87.49429 188.407219 
L 86.615947 179.536819 
L 85.770344 170.666419 
L 85.32427 161.796019 
L 85.444537 152.925619 
L 86.461143 144.055219 
L 87.725999 135.184819 
L 88.159711 132.552335 
L 90.203032 126.314419 
L 91.729847 120.094366 
L 92.704903 117.444019 
L 95.299983 111.010455 
L 96.86012 108.573619 
L 98.870119 108.019901 
L 102.440255 107.168128 
L 106.010391 106.299123 
L 109.580527 105.5827 
L 113.150663 105.248943 
L 116.720799 105.017332 
L 120.290935 104.75381 
L 123.861071 104.454822 
L 127.431207 106.001377 
L 131.001343 107.281216 
L 134.571479 108.291927 
L 135.209267 108.573619 
L 138.141615 113.631482 
L 140.85604 117.444019 
L 141.711751 119.531369 
L 143.130485 126.314419 
L 145.281887 132.427461 
L 145.545867 135.184819 
L 146.896338 144.055219 
L 148.852023 150.811273 
L 148.930218 152.925619 
L 149.35241 161.796019 
L 150.299076 170.666419 
L 151.647354 179.536819 
L 152.041685 188.407219 
L 150.730292 197.277619 
L 148.907423 206.148019 
L 148.852023 206.311346 
L 145.281887 207.673846 
L 141.711751 209.388534 
L 138.141615 214.282375 
L 137.650729 215.018419 
L 134.571479 217.170204 
L 131.001343 221.492798 
L 129.317002 223.888819 
L 129.10349 224.030684 
" style="fill:none;stroke:#440154;stroke-width:1.5;"/>
   </g>
   <g id="LineCollection_24">
    <path clip-path="url(#p29b4538bd0)" d="M 88.966013 113.35129 
L 90.802839 108.573619 
L 91.729847 106.840833 
L 95.299983 100.652401 
L 96.081883 99.703219 
L 98.870119 99.129879 
L 102.440255 98.36936 
L 106.010391 97.594462 
L 109.580527 97.108971 
L 113.150663 96.923424 
L 116.720799 96.673777 
L 120.290935 96.686744 
L 123.861071 96.291114 
L 127.431207 97.737118 
L 131.001343 98.803517 
L 134.571479 99.604313 
L 134.772983 99.703219 
L 138.141615 106.100863 
L 140.061604 108.573619 
L 141.711751 112.43592 
L 143.434686 117.444019 
L 145.281887 122.329994 
L 145.89493 126.314419 
L 148.852023 134.89766 
L 148.871438 135.184819 
L 149.367438 144.055219 
L 150.967546 152.925619 
L 152.422159 158.169009 
L 152.524725 161.796019 
L 152.94365 170.666419 
L 153.855571 179.536819 
L 155.043231 188.407219 
L 155.253244 197.277619 
L 153.676284 206.148019 
L 152.422159 212.118706 
L 151.309925 215.018419 
L 148.852023 218.364215 
L 145.281887 219.222305 
L 141.93777 223.888819 
L 141.711751 224.021714 
L 138.141615 226.952488 
L 134.721451 232.759219 
L 134.571479 232.890665 
L 131.001343 235.878405 
L 127.431207 241.224009 
L 127.155029 241.629619 
L 123.861071 243.792728 
L 120.290935 248.104396 
L 118.293755 250.500019 
L 116.720799 251.022803 
L 113.150663 250.967113 
L 109.580527 250.713675 
L 106.728981 250.500019 
L 106.010391 250.212307 
L 102.440255 247.507708 
L 98.870119 243.912256 
L 97.155798 241.629619 
L 95.299983 237.530257 
L 93.818739 232.759219 
L 91.729847 227.198609 
L 91.119368 223.888819 
L 88.159711 215.38257 
L 88.113057 215.018419 
L 87.011278 206.148019 
L 84.589575 198.059081 
L 84.536721 197.277619 
L 84.004955 188.407219 
L 83.154927 179.536819 
L 82.180791 170.666419 
L 81.48148 161.796019 
L 81.507326 152.925619 
L 82.087683 144.415844 
" style="fill:none;stroke:#440154;stroke-width:1.5;"/>
   </g>
   <g id="LineCollection_25">
    <path clip-path="url(#p29b4538bd0)" d="M 124.905697 257.936024 
L 124.0093 259.370419 
L 123.861071 259.47735 
L 120.290935 261.684713 
L 116.720799 261.867873 
L 113.150663 261.223933 
L 109.580527 260.701069 
L 106.010391 260.29929 
L 102.440255 259.677797 
L 101.546682 259.370419 
L 98.870119 255.822021 
L 95.299983 250.813749 
L 95.198095 250.500019 
L 91.814751 241.629619 
L 91.729847 241.409224 
L 89.988082 232.759219 
L 88.159711 227.666069 
L 87.624734 223.888819 
L 84.589575 215.061544 
L 84.584879 215.018419 
L 83.766903 206.148019 
L 81.395941 197.277619 
L 81.019439 195.871791 
L 80.704129 188.407219 
L 80.050088 179.536819 
L 79.067051 170.666419 
L 78.133802 161.796019 
L 77.864259 152.925619 
L 78.248569 144.055219 
L 78.991295 135.184819 
L 80.078575 126.314419 
L 81.019439 119.896716 
L 81.837117 117.444019 
L 84.586865 108.573619 
L 84.589575 108.566515 
L 88.159711 99.774444 
L 88.190785 99.703219 
L 91.729847 96.475105 
L 95.299983 91.0998 
L 95.554037 90.832819 
L 98.870119 90.261816 
L 102.440255 89.568901 
L 106.010391 88.860361 
L 109.580527 88.361902 
L 113.150663 88.208299 
L 116.720799 88.286755 
L 120.290935 88.345921 
L 123.861071 88.061223 
L 127.431207 89.401745 
L 131.001343 90.292712 
L 133.525376 90.832819 
L 134.571479 92.254364 
L 138.141615 98.00073 
L 139.654768 99.703219 
L 141.711751 104.426018 
L 143.507933 108.573619 
L 145.281887 113.05221 
L 146.224433 117.444019 
L 148.852023 124.616566 
L 149.005181 126.314419 
L 150.291534 135.184819 
L 152.422159 141.90514 
L 152.498124 144.055219 
L 152.992449 152.925619 
L 154.601461 161.796019 
L 155.992295 166.888182 
L 156.071621 170.666419 
L 156.400942 179.536819 
L 157.107413 188.407219 
L 157.917104 197.277619 
L 157.741692 206.148019 
L 156.207097 215.018419 
L 155.992295 216.063283 
L 153.122523 223.888819 
L 152.422159 226.460452 
L 148.852023 230.02924 
L 146.168477 232.759219 
L 145.281887 233.066318 
L 141.711751 236.075568 
L 138.586987 241.629619 
L 138.141615 242.014118 
L 137.007613 243.15046 
" style="fill:none;stroke:#440154;stroke-width:1.5;"/>
   </g>
   <g id="LineCollection_26">
    <path clip-path="url(#p29b4538bd0)" d="M 124.477776 270.36341 
L 123.861071 270.791741 
L 120.290935 272.642896 
L 116.720799 271.979927 
L 113.150663 271.022126 
L 109.580527 270.406338 
L 106.010391 269.940767 
L 102.440255 269.258692 
L 98.870119 268.268848 
L 98.840223 268.240819 
L 95.299983 260.88334 
L 94.82804 259.370419 
L 91.729847 251.455452 
L 91.511676 250.500019 
L 88.379101 241.629619 
L 88.159711 241.033087 
L 86.876454 232.759219 
L 84.589575 226.305806 
L 84.29378 223.888819 
L 82.152842 215.018419 
L 81.019439 211.545266 
L 80.603998 206.148019 
L 79.213011 197.277619 
L 77.449303 190.733754 
L 77.358589 188.407219 
L 76.964272 179.536819 
L 76.243528 170.666419 
L 75.288945 161.796019 
L 74.737022 152.925619 
L 74.870825 144.055219 
L 75.368312 135.184819 
L 76.090261 126.314419 
L 76.994682 117.444019 
L 77.449303 114.424552 
L 79.491886 108.573619 
L 81.019439 104.108949 
L 82.768498 99.703219 
L 84.589575 95.931075 
L 86.933613 90.832819 
L 88.159711 89.726369 
L 91.729847 86.349023 
L 95.005433 81.962419 
L 95.299983 81.885613 
L 98.870119 81.350105 
L 102.440255 80.748951 
L 106.010391 80.117199 
L 109.580527 79.727654 
L 113.150663 79.685465 
L 116.720799 79.875233 
L 120.290935 79.904325 
L 123.861071 79.776751 
L 127.431207 80.920028 
L 131.001343 81.70322 
L 132.175256 81.962419 
L 134.571479 85.230519 
L 138.141615 89.674454 
L 139.311881 90.832819 
L 141.711751 96.216749 
L 143.455068 99.703219 
L 145.281887 104.207788 
L 146.412303 108.573619 
L 148.852023 114.989598 
L 149.130542 117.444019 
L 151.595156 126.314419 
L 152.422159 128.736775 
L 152.704648 135.184819 
L 154.080696 144.055219 
L 155.992295 150.286663 
L 156.054776 152.925619 
L 156.429431 161.796019 
L 157.667992 170.666419 
L 159.562431 177.56779 
L 159.597361 179.536819 
L 159.808629 188.407219 
L 160.238839 197.277619 
L 160.614606 206.148019 
L 159.950427 215.018419 
L 159.562431 217.526237 
L 157.292868 223.888819 
L 155.992295 230.001961 
L 154.964491 232.759219 
L 152.422159 239.739471 
L 150.637912 241.629619 
L 148.852023 242.109872 
L 145.281887 244.513389 
L 141.869341 250.500019 
L 141.711751 250.614659 
L 138.141615 253.601267 
L 137.564693 254.626457 
" style="fill:none;stroke:#450457;stroke-width:1.5;"/>
   </g>
   <g id="LineCollection_27">
    <path clip-path="url(#p29b4538bd0)" d="M 98.33986 277.111219 
L 95.299983 270.930923 
L 94.486951 268.240819 
L 91.729847 261.188091 
L 91.298041 259.370419 
L 88.159711 251.097218 
L 88.048 250.500019 
L 85.845952 241.629619 
L 84.589575 238.157028 
L 83.870485 232.759219 
L 81.019439 224.691051 
L 80.925855 223.888819 
L 79.665187 215.018419 
L 77.449303 208.134172 
L 77.365355 206.959673 
" style="fill:none;stroke:#482475;stroke-width:1.5;"/>
    <path clip-path="url(#p29b4538bd0)" d="M 72.553255 160.253731 
L 72.033083 152.925619 
L 71.86497 144.055219 
L 72.206371 135.184819 
L 72.665322 126.314419 
L 73.188163 117.444019 
L 73.834086 108.573619 
L 73.879167 108.280133 
L 76.939031 99.703219 
L 77.449303 98.242548 
L 80.471343 90.832819 
L 81.019439 89.768474 
L 84.589575 82.745229 
L 85.00621 81.962419 
L 88.159711 79.915418 
L 91.729847 76.257807 
L 94.568951 73.092019 
L 95.299983 72.948912 
L 98.870119 72.401999 
L 102.440255 71.868767 
L 106.010391 71.39341 
L 109.580527 71.170574 
L 113.150663 71.233486 
L 116.720799 71.420263 
L 120.290935 71.383494 
L 123.861071 71.440038 
L 127.431207 72.393352 
L 131.001343 73.045441 
L 131.210826 73.092019 
L 134.571479 77.87991 
L 138.141615 81.259673 
L 138.945654 81.962419 
L 141.711751 88.061987 
L 143.278475 90.832819 
L 145.281887 95.700461 
L 146.441834 99.703219 
L 148.852023 105.919715 
L 149.224694 108.573619 
L 152.422159 117.300527 
L 152.431051 117.444019 
L 152.966564 126.314419 
L 155.992295 135.167053 
L 155.992863 135.184819 
L 156.235435 144.055219 
L 157.276222 152.925619 
L 159.562431 160.462087 
L 159.587778 161.796019 
L 159.82195 170.666419 
L 160.629031 179.536819 
L 162.934061 188.407219 
L 163.132567 189.246363 
" style="fill:none;stroke:#482475;stroke-width:1.5;"/>
    <path clip-path="url(#p29b4538bd0)" d="M 163.132567 218.08673 
L 161.164054 223.888819 
L 159.575911 232.759219 
L 159.562431 232.827723 
L 156.359239 241.629619 
L 155.992295 243.054551 
L 155.736834 243.628713 
" style="fill:none;stroke:#482475;stroke-width:1.5;"/>
    <path clip-path="url(#p29b4538bd0)" d="M 141.780426 260.869669 
L 141.711751 260.917605 
L 138.141615 265.789069 
L 136.751988 268.240819 
L 134.571479 269.694644 
L 131.001343 274.233587 
L 129.38166 277.111219 
" style="fill:none;stroke:#482475;stroke-width:1.5;"/>
   </g>
   <g id="LineCollection_28">
    <path clip-path="url(#p29b4538bd0)" d="M 94.201547 277.111219 
L 91.729847 270.781577 
L 91.117045 268.240819 
L 88.159711 260.508082 
L 87.937162 259.370419 
L 84.734251 250.500019 
L 84.589575 250.108718 
L 83.32006 241.629619 
L 81.019439 235.245107 
L 80.688915 232.759219 
L 78.09487 223.888819 
L 77.449303 222.001972 
L 76.776762 215.018419 
L 74.153105 206.148019 
L 73.879167 205.213614 
L 73.487985 197.277619 
L 72.526355 188.407219 
L 70.36857 179.536819 
L 70.309031 179.269434 
L 70.105699 170.666419 
L 69.777117 161.796019 
L 69.372072 152.925619 
L 69.128376 144.055219 
L 69.223881 135.184819 
L 69.496831 126.314419 
L 69.776267 117.444019 
L 70.102804 108.573619 
L 70.309031 105.423626 
L 72.023167 99.703219 
L 72.219617 98.942977 
" style="fill:none;stroke:#fde725;stroke-width:1.5;"/>
    <path clip-path="url(#p29b4538bd0)" d="M 85.86684 71.690422 
L 88.159711 70.049123 
L 91.729847 66.223246 
L 93.792547 64.221619 
L 95.299983 63.972493 
L 98.870119 63.415963 
L 102.440255 62.990683 
L 106.010391 62.711407 
L 109.580527 62.598854 
L 113.150663 62.759734 
L 116.720799 62.930395 
L 120.290935 62.844695 
L 123.861071 63.089086 
L 127.431207 63.864857 
L 129.4066 64.221619 
L 131.001343 66.287455 
L 134.571479 70.457234 
L 138.141615 72.78624 
L 138.544369 73.092019 
L 141.711751 79.984526 
L 142.980131 81.962419 
L 145.281887 87.488716 
L 146.351694 90.832819 
L 148.852023 97.212968 
L 149.257281 99.703219 
L 152.422159 108.159706 
L 152.452644 108.573619 
L 153.215125 117.444019 
L 155.992295 125.290982 
L 156.031756 126.314419 
L 156.5187 135.184819 
L 159.000872 144.055219 
L 159.562431 145.828295 
L 159.70887 152.925619 
L 160.352883 161.796019 
L 162.766585 170.666419 
L 163.132567 171.916936 
" style="fill:none;stroke:#fde725;stroke-width:1.5;"/>
    <path clip-path="url(#p29b4538bd0)" d="M 163.132567 233.445756 
L 160.243303 241.629619 
L 159.562431 244.667364 
L 159.141198 245.80192 
" style="fill:none;stroke:#fde725;stroke-width:1.5;"/>
    <path clip-path="url(#p29b4538bd0)" d="M 144.833365 268.91581 
L 141.711751 271.448483 
L 138.519216 277.111219 
" style="fill:none;stroke:#fde725;stroke-width:1.5;"/>
   </g>
   <g id="line2d_16">
    <path clip-path="url(#p29b4538bd0)" d="M 396.142773 106.945852 
L 354.737237 125.349891 
L 319.924802 142.580377 
L 290.626327 157.93987 
L 266.049107 171.923478 
L 245.420044 184.091998 
L 228.180803 194.903766 
L 213.732643 204.49151 
L 201.637062 212.80442 
L 191.477385 219.673609 
L 182.888867 225.418173 
L 175.70721 230.048878 
L 169.637601 233.5553 
L 164.515711 236.21676 
L 160.180321 238.099667 
L 156.498955 239.401098 
L 153.378076 240.167202 
L 150.69506 240.430725 
L 148.323393 240.058081 
L 146.290027 239.351914 
L 144.488302 238.14972 
L 142.892284 236.971139 
L 141.483395 235.142193 
L 140.211527 233.218959 
L 139.081866 231.180191 
L 138.037688 228.924094 
L 137.078178 226.403059 
L 136.206232 223.935966 
L 135.409743 221.252096 
L 134.651488 218.493291 
L 133.983749 215.798166 
L 133.349407 213.018367 
L 132.738991 210.084469 
L 132.176268 206.972073 
L 131.682618 204.146522 
L 131.159229 201.149725 
L 130.744849 198.197352 
L 130.279714 195.23503 
L 129.913422 192.162545 
L 129.518649 189.247186 
L 129.157123 186.279897 
L 128.827904 183.34284 
L 128.507852 180.583169 
L 128.161522 177.647279 
L 127.827049 174.616706 
L 127.558774 171.752586 
L 127.297006 168.835975 
L 126.933073 165.820265 
L 126.61564 162.233569 
L 126.292469 158.553539 
L 126.309367 157.656133 
L 126.349508 156.852394 
L 126.389842 156.152318 
L 126.43308 155.474 
L 126.476473 154.827816 
L 126.521339 154.188197 
L 126.562335 153.577532 
L 126.603557 153.008238 
L 126.639666 152.4554 
L 126.67025 151.882784 
L 126.70961 151.328325 
L 126.737097 150.803806 
L 126.766213 150.259093 
L 126.792752 149.763495 
L 126.822886 149.243125 
L 126.841635 148.743748 
L 126.864457 148.272442 
L 126.890858 147.768695 
L 126.903514 147.332791 
L 126.920202 146.865063 
L 126.945065 146.404022 
L 126.957433 145.946669 
L 126.958562 145.500481 
L 126.972429 145.015693 
L 126.972561 144.531724 
L 126.984034 144.444562 
L 126.99824 144.356559 
L 127.013427 144.291485 
L 127.02936 144.229195 
L 127.046918 144.186556 
L 127.063171 144.145943 
L 127.080247 144.113063 
L 127.09853 144.085908 
L 127.118024 144.055899 
L 127.136009 144.035071 
L 127.155074 144.022687 
L 127.17444 144.006677 
L 127.193314 144.001919 
L 127.21165 143.996982 
L 127.230814 143.995851 
L 127.250508 143.987663 
L 127.269806 143.991794 
L 127.28846 143.99417 
L 127.308832 144.00164 
L 127.329833 144.002431 
L 127.350106 144.011476 
L 127.369882 144.023117 
L 127.389617 144.032489 
L 127.410369 144.048703 
" style="fill:none;stroke:#1f77b4;stroke-linecap:square;stroke-width:1.5;"/>
    <defs>
     <path d="M 0 1.5 
C 0.397805 1.5 0.77937 1.341951 1.06066 1.06066 
C 1.341951 0.77937 1.5 0.397805 1.5 0 
C 1.5 -0.397805 1.341951 -0.77937 1.06066 -1.06066 
C 0.77937 -1.341951 0.397805 -1.5 0 -1.5 
C -0.397805 -1.5 -0.77937 -1.341951 -1.06066 -1.06066 
C -1.341951 -0.77937 -1.5 -0.397805 -1.5 0 
C -1.5 0.397805 -1.341951 0.77937 -1.06066 1.06066 
C -0.77937 1.341951 -0.397805 1.5 0 1.5 
z
" id="m193f21a726" style="stroke:#1f77b4;"/>
    </defs>
    <g clip-path="url(#p29b4538bd0)">
     <use style="fill:#1f77b4;stroke:#1f77b4;" x="396.142773" xlink:href="#m193f21a726" y="106.945852"/>
     <use style="fill:#1f77b4;stroke:#1f77b4;" x="354.737237" xlink:href="#m193f21a726" y="125.349891"/>
     <use style="fill:#1f77b4;stroke:#1f77b4;" x="319.924802" xlink:href="#m193f21a726" y="142.580377"/>
     <use style="fill:#1f77b4;stroke:#1f77b4;" x="290.626327" xlink:href="#m193f21a726" y="157.93987"/>
     <use style="fill:#1f77b4;stroke:#1f77b4;" x="266.049107" xlink:href="#m193f21a726" y="171.923478"/>
     <use style="fill:#1f77b4;stroke:#1f77b4;" x="245.420044" xlink:href="#m193f21a726" y="184.091998"/>
     <use style="fill:#1f77b4;stroke:#1f77b4;" x="228.180803" xlink:href="#m193f21a726" y="194.903766"/>
     <use style="fill:#1f77b4;stroke:#1f77b4;" x="213.732643" xlink:href="#m193f21a726" y="204.49151"/>
     <use style="fill:#1f77b4;stroke:#1f77b4;" x="201.637062" xlink:href="#m193f21a726" y="212.80442"/>
     <use style="fill:#1f77b4;stroke:#1f77b4;" x="191.477385" xlink:href="#m193f21a726" y="219.673609"/>
     <use style="fill:#1f77b4;stroke:#1f77b4;" x="182.888867" xlink:href="#m193f21a726" y="225.418173"/>
     <use style="fill:#1f77b4;stroke:#1f77b4;" x="175.70721" xlink:href="#m193f21a726" y="230.048878"/>
     <use style="fill:#1f77b4;stroke:#1f77b4;" x="169.637601" xlink:href="#m193f21a726" y="233.5553"/>
     <use style="fill:#1f77b4;stroke:#1f77b4;" x="164.515711" xlink:href="#m193f21a726" y="236.21676"/>
     <use style="fill:#1f77b4;stroke:#1f77b4;" x="160.180321" xlink:href="#m193f21a726" y="238.099667"/>
     <use style="fill:#1f77b4;stroke:#1f77b4;" x="156.498955" xlink:href="#m193f21a726" y="239.401098"/>
     <use style="fill:#1f77b4;stroke:#1f77b4;" x="153.378076" xlink:href="#m193f21a726" y="240.167202"/>
     <use style="fill:#1f77b4;stroke:#1f77b4;" x="150.69506" xlink:href="#m193f21a726" y="240.430725"/>
     <use style="fill:#1f77b4;stroke:#1f77b4;" x="148.323393" xlink:href="#m193f21a726" y="240.058081"/>
     <use style="fill:#1f77b4;stroke:#1f77b4;" x="146.290027" xlink:href="#m193f21a726" y="239.351914"/>
     <use style="fill:#1f77b4;stroke:#1f77b4;" x="144.488302" xlink:href="#m193f21a726" y="238.14972"/>
     <use style="fill:#1f77b4;stroke:#1f77b4;" x="142.892284" xlink:href="#m193f21a726" y="236.971139"/>
     <use style="fill:#1f77b4;stroke:#1f77b4;" x="141.483395" xlink:href="#m193f21a726" y="235.142193"/>
     <use style="fill:#1f77b4;stroke:#1f77b4;" x="140.211527" xlink:href="#m193f21a726" y="233.218959"/>
     <use style="fill:#1f77b4;stroke:#1f77b4;" x="139.081866" xlink:href="#m193f21a726" y="231.180191"/>
     <use style="fill:#1f77b4;stroke:#1f77b4;" x="138.037688" xlink:href="#m193f21a726" y="228.924094"/>
     <use style="fill:#1f77b4;stroke:#1f77b4;" x="137.078178" xlink:href="#m193f21a726" y="226.403059"/>
     <use style="fill:#1f77b4;stroke:#1f77b4;" x="136.206232" xlink:href="#m193f21a726" y="223.935966"/>
     <use style="fill:#1f77b4;stroke:#1f77b4;" x="135.409743" xlink:href="#m193f21a726" y="221.252096"/>
     <use style="fill:#1f77b4;stroke:#1f77b4;" x="134.651488" xlink:href="#m193f21a726" y="218.493291"/>
     <use style="fill:#1f77b4;stroke:#1f77b4;" x="133.983749" xlink:href="#m193f21a726" y="215.798166"/>
     <use style="fill:#1f77b4;stroke:#1f77b4;" x="133.349407" xlink:href="#m193f21a726" y="213.018367"/>
     <use style="fill:#1f77b4;stroke:#1f77b4;" x="132.738991" xlink:href="#m193f21a726" y="210.084469"/>
     <use style="fill:#1f77b4;stroke:#1f77b4;" x="132.176268" xlink:href="#m193f21a726" y="206.972073"/>
     <use style="fill:#1f77b4;stroke:#1f77b4;" x="131.682618" xlink:href="#m193f21a726" y="204.146522"/>
     <use style="fill:#1f77b4;stroke:#1f77b4;" x="131.159229" xlink:href="#m193f21a726" y="201.149725"/>
     <use style="fill:#1f77b4;stroke:#1f77b4;" x="130.744849" xlink:href="#m193f21a726" y="198.197352"/>
     <use style="fill:#1f77b4;stroke:#1f77b4;" x="130.279714" xlink:href="#m193f21a726" y="195.23503"/>
     <use style="fill:#1f77b4;stroke:#1f77b4;" x="129.913422" xlink:href="#m193f21a726" y="192.162545"/>
     <use style="fill:#1f77b4;stroke:#1f77b4;" x="129.518649" xlink:href="#m193f21a726" y="189.247186"/>
     <use style="fill:#1f77b4;stroke:#1f77b4;" x="129.157123" xlink:href="#m193f21a726" y="186.279897"/>
     <use style="fill:#1f77b4;stroke:#1f77b4;" x="128.827904" xlink:href="#m193f21a726" y="183.34284"/>
     <use style="fill:#1f77b4;stroke:#1f77b4;" x="128.507852" xlink:href="#m193f21a726" y="180.583169"/>
     <use style="fill:#1f77b4;stroke:#1f77b4;" x="128.161522" xlink:href="#m193f21a726" y="177.647279"/>
     <use style="fill:#1f77b4;stroke:#1f77b4;" x="127.827049" xlink:href="#m193f21a726" y="174.616706"/>
     <use style="fill:#1f77b4;stroke:#1f77b4;" x="127.558774" xlink:href="#m193f21a726" y="171.752586"/>
     <use style="fill:#1f77b4;stroke:#1f77b4;" x="127.297006" xlink:href="#m193f21a726" y="168.835975"/>
     <use style="fill:#1f77b4;stroke:#1f77b4;" x="126.933073" xlink:href="#m193f21a726" y="165.820265"/>
     <use style="fill:#1f77b4;stroke:#1f77b4;" x="126.61564" xlink:href="#m193f21a726" y="162.233569"/>
     <use style="fill:#1f77b4;stroke:#1f77b4;" x="126.292469" xlink:href="#m193f21a726" y="158.553539"/>
     <use style="fill:#1f77b4;stroke:#1f77b4;" x="126.309367" xlink:href="#m193f21a726" y="157.656133"/>
     <use style="fill:#1f77b4;stroke:#1f77b4;" x="126.349508" xlink:href="#m193f21a726" y="156.852394"/>
     <use style="fill:#1f77b4;stroke:#1f77b4;" x="126.389842" xlink:href="#m193f21a726" y="156.152318"/>
     <use style="fill:#1f77b4;stroke:#1f77b4;" x="126.43308" xlink:href="#m193f21a726" y="155.474"/>
     <use style="fill:#1f77b4;stroke:#1f77b4;" x="126.476473" xlink:href="#m193f21a726" y="154.827816"/>
     <use style="fill:#1f77b4;stroke:#1f77b4;" x="126.521339" xlink:href="#m193f21a726" y="154.188197"/>
     <use style="fill:#1f77b4;stroke:#1f77b4;" x="126.562335" xlink:href="#m193f21a726" y="153.577532"/>
     <use style="fill:#1f77b4;stroke:#1f77b4;" x="126.603557" xlink:href="#m193f21a726" y="153.008238"/>
     <use style="fill:#1f77b4;stroke:#1f77b4;" x="126.639666" xlink:href="#m193f21a726" y="152.4554"/>
     <use style="fill:#1f77b4;stroke:#1f77b4;" x="126.67025" xlink:href="#m193f21a726" y="151.882784"/>
     <use style="fill:#1f77b4;stroke:#1f77b4;" x="126.70961" xlink:href="#m193f21a726" y="151.328325"/>
     <use style="fill:#1f77b4;stroke:#1f77b4;" x="126.737097" xlink:href="#m193f21a726" y="150.803806"/>
     <use style="fill:#1f77b4;stroke:#1f77b4;" x="126.766213" xlink:href="#m193f21a726" y="150.259093"/>
     <use style="fill:#1f77b4;stroke:#1f77b4;" x="126.792752" xlink:href="#m193f21a726" y="149.763495"/>
     <use style="fill:#1f77b4;stroke:#1f77b4;" x="126.822886" xlink:href="#m193f21a726" y="149.243125"/>
     <use style="fill:#1f77b4;stroke:#1f77b4;" x="126.841635" xlink:href="#m193f21a726" y="148.743748"/>
     <use style="fill:#1f77b4;stroke:#1f77b4;" x="126.864457" xlink:href="#m193f21a726" y="148.272442"/>
     <use style="fill:#1f77b4;stroke:#1f77b4;" x="126.890858" xlink:href="#m193f21a726" y="147.768695"/>
     <use style="fill:#1f77b4;stroke:#1f77b4;" x="126.903514" xlink:href="#m193f21a726" y="147.332791"/>
     <use style="fill:#1f77b4;stroke:#1f77b4;" x="126.920202" xlink:href="#m193f21a726" y="146.865063"/>
     <use style="fill:#1f77b4;stroke:#1f77b4;" x="126.945065" xlink:href="#m193f21a726" y="146.404022"/>
     <use style="fill:#1f77b4;stroke:#1f77b4;" x="126.957433" xlink:href="#m193f21a726" y="145.946669"/>
     <use style="fill:#1f77b4;stroke:#1f77b4;" x="126.958562" xlink:href="#m193f21a726" y="145.500481"/>
     <use style="fill:#1f77b4;stroke:#1f77b4;" x="126.972429" xlink:href="#m193f21a726" y="145.015693"/>
     <use style="fill:#1f77b4;stroke:#1f77b4;" x="126.972561" xlink:href="#m193f21a726" y="144.531724"/>
     <use style="fill:#1f77b4;stroke:#1f77b4;" x="126.984034" xlink:href="#m193f21a726" y="144.444562"/>
     <use style="fill:#1f77b4;stroke:#1f77b4;" x="126.99824" xlink:href="#m193f21a726" y="144.356559"/>
     <use style="fill:#1f77b4;stroke:#1f77b4;" x="127.013427" xlink:href="#m193f21a726" y="144.291485"/>
     <use style="fill:#1f77b4;stroke:#1f77b4;" x="127.02936" xlink:href="#m193f21a726" y="144.229195"/>
     <use style="fill:#1f77b4;stroke:#1f77b4;" x="127.046918" xlink:href="#m193f21a726" y="144.186556"/>
     <use style="fill:#1f77b4;stroke:#1f77b4;" x="127.063171" xlink:href="#m193f21a726" y="144.145943"/>
     <use style="fill:#1f77b4;stroke:#1f77b4;" x="127.080247" xlink:href="#m193f21a726" y="144.113063"/>
     <use style="fill:#1f77b4;stroke:#1f77b4;" x="127.09853" xlink:href="#m193f21a726" y="144.085908"/>
     <use style="fill:#1f77b4;stroke:#1f77b4;" x="127.118024" xlink:href="#m193f21a726" y="144.055899"/>
     <use style="fill:#1f77b4;stroke:#1f77b4;" x="127.136009" xlink:href="#m193f21a726" y="144.035071"/>
     <use style="fill:#1f77b4;stroke:#1f77b4;" x="127.155074" xlink:href="#m193f21a726" y="144.022687"/>
     <use style="fill:#1f77b4;stroke:#1f77b4;" x="127.17444" xlink:href="#m193f21a726" y="144.006677"/>
     <use style="fill:#1f77b4;stroke:#1f77b4;" x="127.193314" xlink:href="#m193f21a726" y="144.001919"/>
     <use style="fill:#1f77b4;stroke:#1f77b4;" x="127.21165" xlink:href="#m193f21a726" y="143.996982"/>
     <use style="fill:#1f77b4;stroke:#1f77b4;" x="127.230814" xlink:href="#m193f21a726" y="143.995851"/>
     <use style="fill:#1f77b4;stroke:#1f77b4;" x="127.250508" xlink:href="#m193f21a726" y="143.987663"/>
     <use style="fill:#1f77b4;stroke:#1f77b4;" x="127.269806" xlink:href="#m193f21a726" y="143.991794"/>
     <use style="fill:#1f77b4;stroke:#1f77b4;" x="127.28846" xlink:href="#m193f21a726" y="143.99417"/>
     <use style="fill:#1f77b4;stroke:#1f77b4;" x="127.308832" xlink:href="#m193f21a726" y="144.00164"/>
     <use style="fill:#1f77b4;stroke:#1f77b4;" x="127.329833" xlink:href="#m193f21a726" y="144.002431"/>
     <use style="fill:#1f77b4;stroke:#1f77b4;" x="127.350106" xlink:href="#m193f21a726" y="144.011476"/>
     <use style="fill:#1f77b4;stroke:#1f77b4;" x="127.369882" xlink:href="#m193f21a726" y="144.023117"/>
     <use style="fill:#1f77b4;stroke:#1f77b4;" x="127.389617" xlink:href="#m193f21a726" y="144.032489"/>
     <use style="fill:#1f77b4;stroke:#1f77b4;" x="127.410369" xlink:href="#m193f21a726" y="144.048703"/>
    </g>
   </g>
   <g id="patch_3">
    <path d="M 56.028488 277.111219 
L 56.028488 10.999219 
" style="fill:none;stroke:#000000;stroke-linecap:square;stroke-linejoin:miter;stroke-width:0.8;"/>
   </g>
   <g id="patch_4">
    <path d="M 413.148488 277.111219 
L 413.148488 10.999219 
" style="fill:none;stroke:#000000;stroke-linecap:square;stroke-linejoin:miter;stroke-width:0.8;"/>
   </g>
   <g id="patch_5">
    <path d="M 56.028488 277.111219 
L 413.148488 277.111219 
" style="fill:none;stroke:#000000;stroke-linecap:square;stroke-linejoin:miter;stroke-width:0.8;"/>
   </g>
   <g id="patch_6">
    <path d="M 56.028488 10.999219 
L 413.148488 10.999219 
" style="fill:none;stroke:#000000;stroke-linecap:square;stroke-linejoin:miter;stroke-width:0.8;"/>
   </g>
   <g id="text_18">
    <g clip-path="url(#p29b4538bd0)">
     <!-- 1.500 -->
     <g style="fill:#453781;" transform="translate(129.226452 131.656855)rotate(-296.757833)scale(0.06 -0.06)">
      <use xlink:href="#DejaVuSans-49"/>
      <use x="63.623047" xlink:href="#DejaVuSans-46"/>
      <use x="95.410156" xlink:href="#DejaVuSans-53"/>
      <use x="159.033203" xlink:href="#DejaVuSans-48"/>
      <use x="222.65625" xlink:href="#DejaVuSans-48"/>
     </g>
    </g>
   </g>
   <g id="text_19">
    <g clip-path="url(#p29b4538bd0)">
     <!-- 2.000 -->
     <g style="fill:#404688;" transform="translate(111.811815 128.044876)rotate(-3.293918)scale(0.06 -0.06)">
      <use xlink:href="#DejaVuSans-50"/>
      <use x="63.623047" xlink:href="#DejaVuSans-46"/>
      <use x="95.410156" xlink:href="#DejaVuSans-48"/>
      <use x="159.033203" xlink:href="#DejaVuSans-48"/>
      <use x="222.65625" xlink:href="#DejaVuSans-48"/>
     </g>
    </g>
   </g>
   <g id="text_20">
    <g clip-path="url(#p29b4538bd0)">
     <!-- 2.500 -->
     <g style="fill:#39558c;" transform="translate(97.790787 189.871669)rotate(-358.72724)scale(0.06 -0.06)">
      <use xlink:href="#DejaVuSans-50"/>
      <use x="63.623047" xlink:href="#DejaVuSans-46"/>
      <use x="95.410156" xlink:href="#DejaVuSans-53"/>
      <use x="159.033203" xlink:href="#DejaVuSans-48"/>
      <use x="222.65625" xlink:href="#DejaVuSans-48"/>
     </g>
    </g>
   </g>
   <g id="text_21">
    <g clip-path="url(#p29b4538bd0)">
     <!-- 3.000 -->
     <g style="fill:#33638d;" transform="translate(101.605417 130.209883)rotate(-15.5358)scale(0.06 -0.06)">
      <defs>
       <path d="M 40.578125 39.3125 
Q 47.65625 37.796875 51.625 33 
Q 55.609375 28.21875 55.609375 21.1875 
Q 55.609375 10.40625 48.1875 4.484375 
Q 40.765625 -1.421875 27.09375 -1.421875 
Q 22.515625 -1.421875 17.65625 -0.515625 
Q 12.796875 0.390625 7.625 2.203125 
L 7.625 11.71875 
Q 11.71875 9.328125 16.59375 8.109375 
Q 21.484375 6.890625 26.8125 6.890625 
Q 36.078125 6.890625 40.9375 10.546875 
Q 45.796875 14.203125 45.796875 21.1875 
Q 45.796875 27.640625 41.28125 31.265625 
Q 36.765625 34.90625 28.71875 34.90625 
L 20.21875 34.90625 
L 20.21875 43.015625 
L 29.109375 43.015625 
Q 36.375 43.015625 40.234375 45.921875 
Q 44.09375 48.828125 44.09375 54.296875 
Q 44.09375 59.90625 40.109375 62.90625 
Q 36.140625 65.921875 28.71875 65.921875 
Q 24.65625 65.921875 20.015625 65.03125 
Q 15.375 64.15625 9.8125 62.3125 
L 9.8125 71.09375 
Q 15.4375 72.65625 20.34375 73.4375 
Q 25.25 74.21875 29.59375 74.21875 
Q 40.828125 74.21875 47.359375 69.109375 
Q 53.90625 64.015625 53.90625 55.328125 
Q 53.90625 49.265625 50.4375 45.09375 
Q 46.96875 40.921875 40.578125 39.3125 
z
" id="DejaVuSans-51"/>
      </defs>
      <use xlink:href="#DejaVuSans-51"/>
      <use x="63.623047" xlink:href="#DejaVuSans-46"/>
      <use x="95.410156" xlink:href="#DejaVuSans-48"/>
      <use x="159.033203" xlink:href="#DejaVuSans-48"/>
      <use x="222.65625" xlink:href="#DejaVuSans-48"/>
     </g>
    </g>
   </g>
   <g id="text_22">
    <g clip-path="url(#p29b4538bd0)">
     <!-- 3.500 -->
     <g style="fill:#2d718e;" transform="translate(104.858319 192.187576)rotate(-7.634667)scale(0.06 -0.06)">
      <use xlink:href="#DejaVuSans-51"/>
      <use x="63.623047" xlink:href="#DejaVuSans-46"/>
      <use x="95.410156" xlink:href="#DejaVuSans-53"/>
      <use x="159.033203" xlink:href="#DejaVuSans-48"/>
      <use x="222.65625" xlink:href="#DejaVuSans-48"/>
     </g>
    </g>
   </g>
   <g id="text_23">
    <g clip-path="url(#p29b4538bd0)">
     <!-- 4.000 -->
     <g style="fill:#287d8e;" transform="translate(104.909763 193.527298)rotate(-8.666539)scale(0.06 -0.06)">
      <use xlink:href="#DejaVuSans-52"/>
      <use x="63.623047" xlink:href="#DejaVuSans-46"/>
      <use x="95.410156" xlink:href="#DejaVuSans-48"/>
      <use x="159.033203" xlink:href="#DejaVuSans-48"/>
      <use x="222.65625" xlink:href="#DejaVuSans-48"/>
     </g>
    </g>
   </g>
   <g id="text_24">
    <g clip-path="url(#p29b4538bd0)">
     <!-- 4.500 -->
     <g style="fill:#238a8d;" transform="translate(111.609656 191.931739)rotate(-12.852118)scale(0.06 -0.06)">
      <use xlink:href="#DejaVuSans-52"/>
      <use x="63.623047" xlink:href="#DejaVuSans-46"/>
      <use x="95.410156" xlink:href="#DejaVuSans-53"/>
      <use x="159.033203" xlink:href="#DejaVuSans-48"/>
      <use x="222.65625" xlink:href="#DejaVuSans-48"/>
     </g>
    </g>
   </g>
   <g id="text_25">
    <g clip-path="url(#p29b4538bd0)">
     <!-- 5.000 -->
     <g style="fill:#1f968b;" transform="translate(123.194958 183.610859)rotate(-15.898489)scale(0.06 -0.06)">
      <use xlink:href="#DejaVuSans-53"/>
      <use x="63.623047" xlink:href="#DejaVuSans-46"/>
      <use x="95.410156" xlink:href="#DejaVuSans-48"/>
      <use x="159.033203" xlink:href="#DejaVuSans-48"/>
      <use x="222.65625" xlink:href="#DejaVuSans-48"/>
     </g>
    </g>
   </g>
   <g id="text_26">
    <g clip-path="url(#p29b4538bd0)">
     <!-- 5.500 -->
     <g style="fill:#20a386;" transform="translate(94.548086 146.256517)rotate(-49.475617)scale(0.06 -0.06)">
      <use xlink:href="#DejaVuSans-53"/>
      <use x="63.623047" xlink:href="#DejaVuSans-46"/>
      <use x="95.410156" xlink:href="#DejaVuSans-53"/>
      <use x="159.033203" xlink:href="#DejaVuSans-48"/>
      <use x="222.65625" xlink:href="#DejaVuSans-48"/>
     </g>
    </g>
   </g>
   <g id="text_27">
    <g clip-path="url(#p29b4538bd0)">
     <!-- 6.000 -->
     <g style="fill:#29af7f;" transform="translate(119.640902 187.861346)rotate(-16.13111)scale(0.06 -0.06)">
      <use xlink:href="#DejaVuSans-54"/>
      <use x="63.623047" xlink:href="#DejaVuSans-46"/>
      <use x="95.410156" xlink:href="#DejaVuSans-48"/>
      <use x="159.033203" xlink:href="#DejaVuSans-48"/>
      <use x="222.65625" xlink:href="#DejaVuSans-48"/>
     </g>
    </g>
   </g>
   <g id="text_28">
    <g clip-path="url(#p29b4538bd0)">
     <!-- 6.500 -->
     <g style="fill:#3dbc74;" transform="translate(119.708745 188.889072)rotate(-17.092828)scale(0.06 -0.06)">
      <use xlink:href="#DejaVuSans-54"/>
      <use x="63.623047" xlink:href="#DejaVuSans-46"/>
      <use x="95.410156" xlink:href="#DejaVuSans-53"/>
      <use x="159.033203" xlink:href="#DejaVuSans-48"/>
      <use x="222.65625" xlink:href="#DejaVuSans-48"/>
     </g>
    </g>
   </g>
   <g id="text_29">
    <g clip-path="url(#p29b4538bd0)">
     <!-- 7.000 -->
     <g style="fill:#56c667;" transform="translate(126.631654 183.377861)rotate(-13.890395)scale(0.06 -0.06)">
      <use xlink:href="#DejaVuSans-55"/>
      <use x="63.623047" xlink:href="#DejaVuSans-46"/>
      <use x="95.410156" xlink:href="#DejaVuSans-48"/>
      <use x="159.033203" xlink:href="#DejaVuSans-48"/>
      <use x="222.65625" xlink:href="#DejaVuSans-48"/>
     </g>
    </g>
   </g>
   <g id="text_30">
    <g clip-path="url(#p29b4538bd0)">
     <!-- 7.500 -->
     <g style="fill:#75d054;" transform="translate(126.56228 183.662404)rotate(-12.783857)scale(0.06 -0.06)">
      <use xlink:href="#DejaVuSans-55"/>
      <use x="63.623047" xlink:href="#DejaVuSans-46"/>
      <use x="95.410156" xlink:href="#DejaVuSans-53"/>
      <use x="159.033203" xlink:href="#DejaVuSans-48"/>
      <use x="222.65625" xlink:href="#DejaVuSans-48"/>
     </g>
    </g>
   </g>
   <g id="text_31">
    <g clip-path="url(#p29b4538bd0)">
     <!-- 8.000 -->
     <g style="fill:#95d840;" transform="translate(126.495702 183.945175)rotate(-11.674043)scale(0.06 -0.06)">
      <use xlink:href="#DejaVuSans-56"/>
      <use x="63.623047" xlink:href="#DejaVuSans-46"/>
      <use x="95.410156" xlink:href="#DejaVuSans-48"/>
      <use x="159.033203" xlink:href="#DejaVuSans-48"/>
      <use x="222.65625" xlink:href="#DejaVuSans-48"/>
     </g>
    </g>
   </g>
   <g id="text_32">
    <g clip-path="url(#p29b4538bd0)">
     <!-- 8.500 -->
     <g style="fill:#bade28;" transform="translate(126.475135 184.333855)rotate(-11.320621)scale(0.06 -0.06)">
      <use xlink:href="#DejaVuSans-56"/>
      <use x="63.623047" xlink:href="#DejaVuSans-46"/>
      <use x="95.410156" xlink:href="#DejaVuSans-53"/>
      <use x="159.033203" xlink:href="#DejaVuSans-48"/>
      <use x="222.65625" xlink:href="#DejaVuSans-48"/>
     </g>
    </g>
   </g>
   <g id="text_33">
    <g clip-path="url(#p29b4538bd0)">
     <!-- 9.000 -->
     <g style="fill:#dde318;" transform="translate(126.509841 184.856082)rotate(-11.913994)scale(0.06 -0.06)">
      <use xlink:href="#DejaVuSans-57"/>
      <use x="63.623047" xlink:href="#DejaVuSans-46"/>
      <use x="95.410156" xlink:href="#DejaVuSans-48"/>
      <use x="159.033203" xlink:href="#DejaVuSans-48"/>
      <use x="222.65625" xlink:href="#DejaVuSans-48"/>
     </g>
    </g>
   </g>
   <g id="text_34">
    <g clip-path="url(#p29b4538bd0)">
     <!-- 9.500 -->
     <g style="fill:#fde725;" transform="translate(126.554078 185.397886)rotate(-12.649795)scale(0.06 -0.06)">
      <use xlink:href="#DejaVuSans-57"/>
      <use x="63.623047" xlink:href="#DejaVuSans-46"/>
      <use x="95.410156" xlink:href="#DejaVuSans-53"/>
      <use x="159.033203" xlink:href="#DejaVuSans-48"/>
      <use x="222.65625" xlink:href="#DejaVuSans-48"/>
     </g>
    </g>
   </g>
   <g id="text_35">
    <g clip-path="url(#p29b4538bd0)">
     <!-- 10.000 -->
     <g style="fill:#440154;" transform="translate(106.738738 201.79869)rotate(-11.100122)scale(0.06 -0.06)">
      <use xlink:href="#DejaVuSans-49"/>
      <use x="63.623047" xlink:href="#DejaVuSans-48"/>
      <use x="127.246094" xlink:href="#DejaVuSans-46"/>
      <use x="159.033203" xlink:href="#DejaVuSans-48"/>
      <use x="222.65625" xlink:href="#DejaVuSans-48"/>
      <use x="286.279297" xlink:href="#DejaVuSans-48"/>
     </g>
    </g>
   </g>
   <g id="text_36">
    <g clip-path="url(#p29b4538bd0)">
     <!-- 100.000 -->
     <g style="fill:#440154;" transform="translate(87.798227 123.125801)rotate(-20.19322)scale(0.06 -0.06)">
      <use xlink:href="#DejaVuSans-49"/>
      <use x="63.623047" xlink:href="#DejaVuSans-48"/>
      <use x="127.246094" xlink:href="#DejaVuSans-48"/>
      <use x="190.869141" xlink:href="#DejaVuSans-46"/>
      <use x="222.65625" xlink:href="#DejaVuSans-48"/>
      <use x="286.279297" xlink:href="#DejaVuSans-48"/>
      <use x="349.902344" xlink:href="#DejaVuSans-48"/>
     </g>
    </g>
   </g>
   <g id="text_37">
    <g clip-path="url(#p29b4538bd0)">
     <!-- 1000.000 -->
     <g style="fill:#440154;" transform="translate(110.692474 234.146042)rotate(-17.360434)scale(0.06 -0.06)">
      <use xlink:href="#DejaVuSans-49"/>
      <use x="63.623047" xlink:href="#DejaVuSans-48"/>
      <use x="127.246094" xlink:href="#DejaVuSans-48"/>
      <use x="190.869141" xlink:href="#DejaVuSans-48"/>
      <use x="254.492188" xlink:href="#DejaVuSans-46"/>
      <use x="286.279297" xlink:href="#DejaVuSans-48"/>
      <use x="349.902344" xlink:href="#DejaVuSans-48"/>
      <use x="413.525391" xlink:href="#DejaVuSans-48"/>
     </g>
    </g>
   </g>
   <g id="text_38">
    <g clip-path="url(#p29b4538bd0)">
     <!-- 10000.000 -->
     <g style="fill:#440154;" transform="translate(76.20389 140.362376)rotate(-53.650694)scale(0.06 -0.06)">
      <use xlink:href="#DejaVuSans-49"/>
      <use x="63.623047" xlink:href="#DejaVuSans-48"/>
      <use x="127.246094" xlink:href="#DejaVuSans-48"/>
      <use x="190.869141" xlink:href="#DejaVuSans-48"/>
      <use x="254.492188" xlink:href="#DejaVuSans-48"/>
      <use x="318.115234" xlink:href="#DejaVuSans-46"/>
      <use x="349.902344" xlink:href="#DejaVuSans-48"/>
      <use x="413.525391" xlink:href="#DejaVuSans-48"/>
      <use x="477.148438" xlink:href="#DejaVuSans-48"/>
     </g>
    </g>
   </g>
   <g id="text_39">
    <g clip-path="url(#p29b4538bd0)">
     <!-- 100000.000 -->
     <g style="fill:#440154;" transform="translate(114.516956 258.695324)rotate(-19.911506)scale(0.06 -0.06)">
      <use xlink:href="#DejaVuSans-49"/>
      <use x="63.623047" xlink:href="#DejaVuSans-48"/>
      <use x="127.246094" xlink:href="#DejaVuSans-48"/>
      <use x="190.869141" xlink:href="#DejaVuSans-48"/>
      <use x="254.492188" xlink:href="#DejaVuSans-48"/>
      <use x="318.115234" xlink:href="#DejaVuSans-48"/>
      <use x="381.738281" xlink:href="#DejaVuSans-46"/>
      <use x="413.525391" xlink:href="#DejaVuSans-48"/>
      <use x="477.148438" xlink:href="#DejaVuSans-48"/>
      <use x="540.771484" xlink:href="#DejaVuSans-48"/>
     </g>
    </g>
   </g>
   <g id="text_40">
    <g clip-path="url(#p29b4538bd0)">
     <!-- 1000000.000 -->
     <g style="fill:#450457;" transform="translate(112.708506 270.669129)rotate(-19.816967)scale(0.06 -0.06)">
      <use xlink:href="#DejaVuSans-49"/>
      <use x="63.623047" xlink:href="#DejaVuSans-48"/>
      <use x="127.246094" xlink:href="#DejaVuSans-48"/>
      <use x="190.869141" xlink:href="#DejaVuSans-48"/>
      <use x="254.492188" xlink:href="#DejaVuSans-48"/>
      <use x="318.115234" xlink:href="#DejaVuSans-48"/>
      <use x="381.738281" xlink:href="#DejaVuSans-48"/>
      <use x="445.361328" xlink:href="#DejaVuSans-46"/>
      <use x="477.148438" xlink:href="#DejaVuSans-48"/>
      <use x="540.771484" xlink:href="#DejaVuSans-48"/>
      <use x="604.394531" xlink:href="#DejaVuSans-48"/>
     </g>
    </g>
   </g>
   <g id="text_41">
    <g clip-path="url(#p29b4538bd0)">
     <!-- 10000000.000 -->
     <g style="fill:#482475;" transform="translate(64.914348 164.922055)rotate(-289.71984)scale(0.06 -0.06)">
      <use xlink:href="#DejaVuSans-49"/>
      <use x="63.623047" xlink:href="#DejaVuSans-48"/>
      <use x="127.246094" xlink:href="#DejaVuSans-48"/>
      <use x="190.869141" xlink:href="#DejaVuSans-48"/>
      <use x="254.492188" xlink:href="#DejaVuSans-48"/>
      <use x="318.115234" xlink:href="#DejaVuSans-48"/>
      <use x="381.738281" xlink:href="#DejaVuSans-48"/>
      <use x="445.361328" xlink:href="#DejaVuSans-48"/>
      <use x="508.984375" xlink:href="#DejaVuSans-46"/>
      <use x="540.771484" xlink:href="#DejaVuSans-48"/>
      <use x="604.394531" xlink:href="#DejaVuSans-48"/>
      <use x="668.017578" xlink:href="#DejaVuSans-48"/>
     </g>
    </g>
   </g>
   <g id="text_42">
    <g clip-path="url(#p29b4538bd0)">
     <!-- 10000000.000 -->
     <g style="fill:#482475;" transform="translate(128.776883 261.377672)rotate(-19.902223)scale(0.06 -0.06)">
      <use xlink:href="#DejaVuSans-49"/>
      <use x="63.623047" xlink:href="#DejaVuSans-48"/>
      <use x="127.246094" xlink:href="#DejaVuSans-48"/>
      <use x="190.869141" xlink:href="#DejaVuSans-48"/>
      <use x="254.492188" xlink:href="#DejaVuSans-48"/>
      <use x="318.115234" xlink:href="#DejaVuSans-48"/>
      <use x="381.738281" xlink:href="#DejaVuSans-48"/>
      <use x="445.361328" xlink:href="#DejaVuSans-48"/>
      <use x="508.984375" xlink:href="#DejaVuSans-46"/>
      <use x="540.771484" xlink:href="#DejaVuSans-48"/>
      <use x="604.394531" xlink:href="#DejaVuSans-48"/>
      <use x="668.017578" xlink:href="#DejaVuSans-48"/>
     </g>
    </g>
   </g>
   <g id="text_43">
    <g clip-path="url(#p29b4538bd0)">
     <!-- 100000000.000 -->
     <g style="fill:#fde725;" transform="translate(58.832232 95.653101)rotate(-30.951866)scale(0.06 -0.06)">
      <use xlink:href="#DejaVuSans-49"/>
      <use x="63.623047" xlink:href="#DejaVuSans-48"/>
      <use x="127.246094" xlink:href="#DejaVuSans-48"/>
      <use x="190.869141" xlink:href="#DejaVuSans-48"/>
      <use x="254.492188" xlink:href="#DejaVuSans-48"/>
      <use x="318.115234" xlink:href="#DejaVuSans-48"/>
      <use x="381.738281" xlink:href="#DejaVuSans-48"/>
      <use x="445.361328" xlink:href="#DejaVuSans-48"/>
      <use x="508.984375" xlink:href="#DejaVuSans-48"/>
      <use x="572.607422" xlink:href="#DejaVuSans-46"/>
      <use x="604.394531" xlink:href="#DejaVuSans-48"/>
      <use x="668.017578" xlink:href="#DejaVuSans-48"/>
      <use x="731.640625" xlink:href="#DejaVuSans-48"/>
     </g>
    </g>
   </g>
   <g id="text_44">
    <g clip-path="url(#p29b4538bd0)">
     <!-- 100000000.000 -->
     <g style="fill:#fde725;" transform="translate(131.650349 272.034295)rotate(-25.741129)scale(0.06 -0.06)">
      <use xlink:href="#DejaVuSans-49"/>
      <use x="63.623047" xlink:href="#DejaVuSans-48"/>
      <use x="127.246094" xlink:href="#DejaVuSans-48"/>
      <use x="190.869141" xlink:href="#DejaVuSans-48"/>
      <use x="254.492188" xlink:href="#DejaVuSans-48"/>
      <use x="318.115234" xlink:href="#DejaVuSans-48"/>
      <use x="381.738281" xlink:href="#DejaVuSans-48"/>
      <use x="445.361328" xlink:href="#DejaVuSans-48"/>
      <use x="508.984375" xlink:href="#DejaVuSans-48"/>
      <use x="572.607422" xlink:href="#DejaVuSans-46"/>
      <use x="604.394531" xlink:href="#DejaVuSans-48"/>
      <use x="668.017578" xlink:href="#DejaVuSans-48"/>
      <use x="731.640625" xlink:href="#DejaVuSans-48"/>
     </g>
    </g>
   </g>
  </g>
 </g>
 <defs>
  <clipPath id="p29b4538bd0">
   <rect height="266.112" width="357.12" x="56.028488" y="10.999219"/>
  </clipPath>
 </defs>
</svg>
