<?xml version="1.0" encoding="utf-8" standalone="no"?>
<!DOCTYPE svg PUBLIC "-//W3C//DTD SVG 1.1//EN"
  "http://www.w3.org/Graphics/SVG/1.1/DTD/svg11.dtd">
<!-- Created with matplotlib (https://matplotlib.org/) -->
<svg height="321.713144pt" version="1.1" viewBox="0 0 426.710987 321.713144" width="426.710987pt" xmlns="http://www.w3.org/2000/svg" xmlns:xlink="http://www.w3.org/1999/xlink">
 <metadata>
  <rdf:RDF xmlns:cc="http://creativecommons.org/ns#" xmlns:dc="http://purl.org/dc/elements/1.1/" xmlns:rdf="http://www.w3.org/1999/02/22-rdf-syntax-ns#">
   <cc:Work>
    <dc:type rdf:resource="http://purl.org/dc/dcmitype/StillImage"/>
    <dc:date>2021-09-21T16:29:00.393964</dc:date>
    <dc:format>image/svg+xml</dc:format>
    <dc:creator>
     <cc:Agent>
      <dc:title>Matplotlib v3.3.1, https://matplotlib.org/</dc:title>
     </cc:Agent>
    </dc:creator>
   </cc:Work>
  </rdf:RDF>
 </metadata>
 <defs>
  <style type="text/css">*{stroke-linecap:butt;stroke-linejoin:round;}</style>
 </defs>
 <g id="figure_1">
  <g id="patch_1">
   <path d="M 0 321.713144 
L 426.710987 321.713144 
L 426.710987 0 
L 0 0 
z
" style="fill:#ffffff;"/>
  </g>
  <g id="axes_1">
   <g id="patch_2">
    <path d="M 56.028488 277.111219 
L 413.148488 277.111219 
L 413.148488 10.999219 
L 56.028488 10.999219 
z
" style="fill:#ffffff;"/>
   </g>
   <g id="matplotlib.axis_1">
    <g id="xtick_1">
     <g id="line2d_1">
      <defs>
       <path d="M 0 0 
L 0 3.5 
" id="m427aee072b" style="stroke:#000000;stroke-width:0.8;"/>
      </defs>
      <g>
       <use style="stroke:#000000;stroke-width:0.8;" x="56.028488" xlink:href="#m427aee072b" y="277.111219"/>
      </g>
     </g>
     <g id="text_1">
      <!-- −20 -->
      <g transform="translate(45.476144 291.709656)scale(0.1 -0.1)">
       <defs>
        <path d="M 10.59375 35.5 
L 73.1875 35.5 
L 73.1875 27.203125 
L 10.59375 27.203125 
z
" id="DejaVuSans-8722"/>
        <path d="M 19.1875 8.296875 
L 53.609375 8.296875 
L 53.609375 0 
L 7.328125 0 
L 7.328125 8.296875 
Q 12.9375 14.109375 22.625 23.890625 
Q 32.328125 33.6875 34.8125 36.53125 
Q 39.546875 41.84375 41.421875 45.53125 
Q 43.3125 49.21875 43.3125 52.78125 
Q 43.3125 58.59375 39.234375 62.25 
Q 35.15625 65.921875 28.609375 65.921875 
Q 23.96875 65.921875 18.8125 64.3125 
Q 13.671875 62.703125 7.8125 59.421875 
L 7.8125 69.390625 
Q 13.765625 71.78125 18.9375 73 
Q 24.125 74.21875 28.421875 74.21875 
Q 39.75 74.21875 46.484375 68.546875 
Q 53.21875 62.890625 53.21875 53.421875 
Q 53.21875 48.921875 51.53125 44.890625 
Q 49.859375 40.875 45.40625 35.40625 
Q 44.1875 33.984375 37.640625 27.21875 
Q 31.109375 20.453125 19.1875 8.296875 
z
" id="DejaVuSans-50"/>
        <path d="M 31.78125 66.40625 
Q 24.171875 66.40625 20.328125 58.90625 
Q 16.5 51.421875 16.5 36.375 
Q 16.5 21.390625 20.328125 13.890625 
Q 24.171875 6.390625 31.78125 6.390625 
Q 39.453125 6.390625 43.28125 13.890625 
Q 47.125 21.390625 47.125 36.375 
Q 47.125 51.421875 43.28125 58.90625 
Q 39.453125 66.40625 31.78125 66.40625 
z
M 31.78125 74.21875 
Q 44.046875 74.21875 50.515625 64.515625 
Q 56.984375 54.828125 56.984375 36.375 
Q 56.984375 17.96875 50.515625 8.265625 
Q 44.046875 -1.421875 31.78125 -1.421875 
Q 19.53125 -1.421875 13.0625 8.265625 
Q 6.59375 17.96875 6.59375 36.375 
Q 6.59375 54.828125 13.0625 64.515625 
Q 19.53125 74.21875 31.78125 74.21875 
z
" id="DejaVuSans-48"/>
       </defs>
       <use xlink:href="#DejaVuSans-8722"/>
       <use x="83.789062" xlink:href="#DejaVuSans-50"/>
       <use x="147.412109" xlink:href="#DejaVuSans-48"/>
      </g>
     </g>
    </g>
    <g id="xtick_2">
     <g id="line2d_2">
      <g>
       <use style="stroke:#000000;stroke-width:0.8;" x="95.708488" xlink:href="#m427aee072b" y="277.111219"/>
      </g>
     </g>
     <g id="text_2">
      <!-- −15 -->
      <g transform="translate(85.156144 291.709656)scale(0.1 -0.1)">
       <defs>
        <path d="M 12.40625 8.296875 
L 28.515625 8.296875 
L 28.515625 63.921875 
L 10.984375 60.40625 
L 10.984375 69.390625 
L 28.421875 72.90625 
L 38.28125 72.90625 
L 38.28125 8.296875 
L 54.390625 8.296875 
L 54.390625 0 
L 12.40625 0 
z
" id="DejaVuSans-49"/>
        <path d="M 10.796875 72.90625 
L 49.515625 72.90625 
L 49.515625 64.59375 
L 19.828125 64.59375 
L 19.828125 46.734375 
Q 21.96875 47.46875 24.109375 47.828125 
Q 26.265625 48.1875 28.421875 48.1875 
Q 40.625 48.1875 47.75 41.5 
Q 54.890625 34.8125 54.890625 23.390625 
Q 54.890625 11.625 47.5625 5.09375 
Q 40.234375 -1.421875 26.90625 -1.421875 
Q 22.3125 -1.421875 17.546875 -0.640625 
Q 12.796875 0.140625 7.71875 1.703125 
L 7.71875 11.625 
Q 12.109375 9.234375 16.796875 8.0625 
Q 21.484375 6.890625 26.703125 6.890625 
Q 35.15625 6.890625 40.078125 11.328125 
Q 45.015625 15.765625 45.015625 23.390625 
Q 45.015625 31 40.078125 35.4375 
Q 35.15625 39.890625 26.703125 39.890625 
Q 22.75 39.890625 18.8125 39.015625 
Q 14.890625 38.140625 10.796875 36.28125 
z
" id="DejaVuSans-53"/>
       </defs>
       <use xlink:href="#DejaVuSans-8722"/>
       <use x="83.789062" xlink:href="#DejaVuSans-49"/>
       <use x="147.412109" xlink:href="#DejaVuSans-53"/>
      </g>
     </g>
    </g>
    <g id="xtick_3">
     <g id="line2d_3">
      <g>
       <use style="stroke:#000000;stroke-width:0.8;" x="135.388488" xlink:href="#m427aee072b" y="277.111219"/>
      </g>
     </g>
     <g id="text_3">
      <!-- −10 -->
      <g transform="translate(124.836144 291.709656)scale(0.1 -0.1)">
       <use xlink:href="#DejaVuSans-8722"/>
       <use x="83.789062" xlink:href="#DejaVuSans-49"/>
       <use x="147.412109" xlink:href="#DejaVuSans-48"/>
      </g>
     </g>
    </g>
    <g id="xtick_4">
     <g id="line2d_4">
      <g>
       <use style="stroke:#000000;stroke-width:0.8;" x="175.068488" xlink:href="#m427aee072b" y="277.111219"/>
      </g>
     </g>
     <g id="text_4">
      <!-- −5 -->
      <g transform="translate(167.697394 291.709656)scale(0.1 -0.1)">
       <use xlink:href="#DejaVuSans-8722"/>
       <use x="83.789062" xlink:href="#DejaVuSans-53"/>
      </g>
     </g>
    </g>
    <g id="xtick_5">
     <g id="line2d_5">
      <g>
       <use style="stroke:#000000;stroke-width:0.8;" x="214.748488" xlink:href="#m427aee072b" y="277.111219"/>
      </g>
     </g>
     <g id="text_5">
      <!-- 0 -->
      <g transform="translate(211.567238 291.709656)scale(0.1 -0.1)">
       <use xlink:href="#DejaVuSans-48"/>
      </g>
     </g>
    </g>
    <g id="xtick_6">
     <g id="line2d_6">
      <g>
       <use style="stroke:#000000;stroke-width:0.8;" x="254.428488" xlink:href="#m427aee072b" y="277.111219"/>
      </g>
     </g>
     <g id="text_6">
      <!-- 5 -->
      <g transform="translate(251.247238 291.709656)scale(0.1 -0.1)">
       <use xlink:href="#DejaVuSans-53"/>
      </g>
     </g>
    </g>
    <g id="xtick_7">
     <g id="line2d_7">
      <g>
       <use style="stroke:#000000;stroke-width:0.8;" x="294.108488" xlink:href="#m427aee072b" y="277.111219"/>
      </g>
     </g>
     <g id="text_7">
      <!-- 10 -->
      <g transform="translate(287.745988 291.709656)scale(0.1 -0.1)">
       <use xlink:href="#DejaVuSans-49"/>
       <use x="63.623047" xlink:href="#DejaVuSans-48"/>
      </g>
     </g>
    </g>
    <g id="xtick_8">
     <g id="line2d_8">
      <g>
       <use style="stroke:#000000;stroke-width:0.8;" x="333.788488" xlink:href="#m427aee072b" y="277.111219"/>
      </g>
     </g>
     <g id="text_8">
      <!-- 15 -->
      <g transform="translate(327.425988 291.709656)scale(0.1 -0.1)">
       <use xlink:href="#DejaVuSans-49"/>
       <use x="63.623047" xlink:href="#DejaVuSans-53"/>
      </g>
     </g>
    </g>
    <g id="xtick_9">
     <g id="line2d_9">
      <g>
       <use style="stroke:#000000;stroke-width:0.8;" x="373.468488" xlink:href="#m427aee072b" y="277.111219"/>
      </g>
     </g>
     <g id="text_9">
      <!-- 20 -->
      <g transform="translate(367.105988 291.709656)scale(0.1 -0.1)">
       <use xlink:href="#DejaVuSans-50"/>
       <use x="63.623047" xlink:href="#DejaVuSans-48"/>
      </g>
     </g>
    </g>
    <g id="xtick_10">
     <g id="line2d_10">
      <g>
       <use style="stroke:#000000;stroke-width:0.8;" x="413.148488" xlink:href="#m427aee072b" y="277.111219"/>
      </g>
     </g>
     <g id="text_10">
      <!-- 25 -->
      <g transform="translate(406.785988 291.709656)scale(0.1 -0.1)">
       <use xlink:href="#DejaVuSans-50"/>
       <use x="63.623047" xlink:href="#DejaVuSans-53"/>
      </g>
     </g>
    </g>
    <g id="text_11">
     <!-- 1st PC: 85.66 % -->
     <g transform="translate(165.868088 310.919444)scale(0.1728 -0.1728)">
      <defs>
       <path d="M 44.28125 53.078125 
L 44.28125 44.578125 
Q 40.484375 46.53125 36.375 47.5 
Q 32.28125 48.484375 27.875 48.484375 
Q 21.1875 48.484375 17.84375 46.4375 
Q 14.5 44.390625 14.5 40.28125 
Q 14.5 37.15625 16.890625 35.375 
Q 19.28125 33.59375 26.515625 31.984375 
L 29.59375 31.296875 
Q 39.15625 29.25 43.1875 25.515625 
Q 47.21875 21.78125 47.21875 15.09375 
Q 47.21875 7.46875 41.1875 3.015625 
Q 35.15625 -1.421875 24.609375 -1.421875 
Q 20.21875 -1.421875 15.453125 -0.5625 
Q 10.6875 0.296875 5.421875 2 
L 5.421875 11.28125 
Q 10.40625 8.6875 15.234375 7.390625 
Q 20.0625 6.109375 24.8125 6.109375 
Q 31.15625 6.109375 34.5625 8.28125 
Q 37.984375 10.453125 37.984375 14.40625 
Q 37.984375 18.0625 35.515625 20.015625 
Q 33.0625 21.96875 24.703125 23.78125 
L 21.578125 24.515625 
Q 13.234375 26.265625 9.515625 29.90625 
Q 5.8125 33.546875 5.8125 39.890625 
Q 5.8125 47.609375 11.28125 51.796875 
Q 16.75 56 26.8125 56 
Q 31.78125 56 36.171875 55.265625 
Q 40.578125 54.546875 44.28125 53.078125 
z
" id="DejaVuSans-115"/>
       <path d="M 18.3125 70.21875 
L 18.3125 54.6875 
L 36.8125 54.6875 
L 36.8125 47.703125 
L 18.3125 47.703125 
L 18.3125 18.015625 
Q 18.3125 11.328125 20.140625 9.421875 
Q 21.96875 7.515625 27.59375 7.515625 
L 36.8125 7.515625 
L 36.8125 0 
L 27.59375 0 
Q 17.1875 0 13.234375 3.875 
Q 9.28125 7.765625 9.28125 18.015625 
L 9.28125 47.703125 
L 2.6875 47.703125 
L 2.6875 54.6875 
L 9.28125 54.6875 
L 9.28125 70.21875 
z
" id="DejaVuSans-116"/>
       <path id="DejaVuSans-32"/>
       <path d="M 19.671875 64.796875 
L 19.671875 37.40625 
L 32.078125 37.40625 
Q 38.96875 37.40625 42.71875 40.96875 
Q 46.484375 44.53125 46.484375 51.125 
Q 46.484375 57.671875 42.71875 61.234375 
Q 38.96875 64.796875 32.078125 64.796875 
z
M 9.8125 72.90625 
L 32.078125 72.90625 
Q 44.34375 72.90625 50.609375 67.359375 
Q 56.890625 61.8125 56.890625 51.125 
Q 56.890625 40.328125 50.609375 34.8125 
Q 44.34375 29.296875 32.078125 29.296875 
L 19.671875 29.296875 
L 19.671875 0 
L 9.8125 0 
z
" id="DejaVuSans-80"/>
       <path d="M 64.40625 67.28125 
L 64.40625 56.890625 
Q 59.421875 61.53125 53.78125 63.8125 
Q 48.140625 66.109375 41.796875 66.109375 
Q 29.296875 66.109375 22.65625 58.46875 
Q 16.015625 50.828125 16.015625 36.375 
Q 16.015625 21.96875 22.65625 14.328125 
Q 29.296875 6.6875 41.796875 6.6875 
Q 48.140625 6.6875 53.78125 8.984375 
Q 59.421875 11.28125 64.40625 15.921875 
L 64.40625 5.609375 
Q 59.234375 2.09375 53.4375 0.328125 
Q 47.65625 -1.421875 41.21875 -1.421875 
Q 24.65625 -1.421875 15.125 8.703125 
Q 5.609375 18.84375 5.609375 36.375 
Q 5.609375 53.953125 15.125 64.078125 
Q 24.65625 74.21875 41.21875 74.21875 
Q 47.75 74.21875 53.53125 72.484375 
Q 59.328125 70.75 64.40625 67.28125 
z
" id="DejaVuSans-67"/>
       <path d="M 11.71875 12.40625 
L 22.015625 12.40625 
L 22.015625 0 
L 11.71875 0 
z
M 11.71875 51.703125 
L 22.015625 51.703125 
L 22.015625 39.3125 
L 11.71875 39.3125 
z
" id="DejaVuSans-58"/>
       <path d="M 31.78125 34.625 
Q 24.75 34.625 20.71875 30.859375 
Q 16.703125 27.09375 16.703125 20.515625 
Q 16.703125 13.921875 20.71875 10.15625 
Q 24.75 6.390625 31.78125 6.390625 
Q 38.8125 6.390625 42.859375 10.171875 
Q 46.921875 13.96875 46.921875 20.515625 
Q 46.921875 27.09375 42.890625 30.859375 
Q 38.875 34.625 31.78125 34.625 
z
M 21.921875 38.8125 
Q 15.578125 40.375 12.03125 44.71875 
Q 8.5 49.078125 8.5 55.328125 
Q 8.5 64.0625 14.71875 69.140625 
Q 20.953125 74.21875 31.78125 74.21875 
Q 42.671875 74.21875 48.875 69.140625 
Q 55.078125 64.0625 55.078125 55.328125 
Q 55.078125 49.078125 51.53125 44.71875 
Q 48 40.375 41.703125 38.8125 
Q 48.828125 37.15625 52.796875 32.3125 
Q 56.78125 27.484375 56.78125 20.515625 
Q 56.78125 9.90625 50.3125 4.234375 
Q 43.84375 -1.421875 31.78125 -1.421875 
Q 19.734375 -1.421875 13.25 4.234375 
Q 6.78125 9.90625 6.78125 20.515625 
Q 6.78125 27.484375 10.78125 32.3125 
Q 14.796875 37.15625 21.921875 38.8125 
z
M 18.3125 54.390625 
Q 18.3125 48.734375 21.84375 45.5625 
Q 25.390625 42.390625 31.78125 42.390625 
Q 38.140625 42.390625 41.71875 45.5625 
Q 45.3125 48.734375 45.3125 54.390625 
Q 45.3125 60.0625 41.71875 63.234375 
Q 38.140625 66.40625 31.78125 66.40625 
Q 25.390625 66.40625 21.84375 63.234375 
Q 18.3125 60.0625 18.3125 54.390625 
z
" id="DejaVuSans-56"/>
       <path d="M 10.6875 12.40625 
L 21 12.40625 
L 21 0 
L 10.6875 0 
z
" id="DejaVuSans-46"/>
       <path d="M 33.015625 40.375 
Q 26.375 40.375 22.484375 35.828125 
Q 18.609375 31.296875 18.609375 23.390625 
Q 18.609375 15.53125 22.484375 10.953125 
Q 26.375 6.390625 33.015625 6.390625 
Q 39.65625 6.390625 43.53125 10.953125 
Q 47.40625 15.53125 47.40625 23.390625 
Q 47.40625 31.296875 43.53125 35.828125 
Q 39.65625 40.375 33.015625 40.375 
z
M 52.59375 71.296875 
L 52.59375 62.3125 
Q 48.875 64.0625 45.09375 64.984375 
Q 41.3125 65.921875 37.59375 65.921875 
Q 27.828125 65.921875 22.671875 59.328125 
Q 17.53125 52.734375 16.796875 39.40625 
Q 19.671875 43.65625 24.015625 45.921875 
Q 28.375 48.1875 33.59375 48.1875 
Q 44.578125 48.1875 50.953125 41.515625 
Q 57.328125 34.859375 57.328125 23.390625 
Q 57.328125 12.15625 50.6875 5.359375 
Q 44.046875 -1.421875 33.015625 -1.421875 
Q 20.359375 -1.421875 13.671875 8.265625 
Q 6.984375 17.96875 6.984375 36.375 
Q 6.984375 53.65625 15.1875 63.9375 
Q 23.390625 74.21875 37.203125 74.21875 
Q 40.921875 74.21875 44.703125 73.484375 
Q 48.484375 72.75 52.59375 71.296875 
z
" id="DejaVuSans-54"/>
       <path d="M 72.703125 32.078125 
Q 68.453125 32.078125 66.03125 28.46875 
Q 63.625 24.859375 63.625 18.40625 
Q 63.625 12.0625 66.03125 8.421875 
Q 68.453125 4.78125 72.703125 4.78125 
Q 76.859375 4.78125 79.265625 8.421875 
Q 81.6875 12.0625 81.6875 18.40625 
Q 81.6875 24.8125 79.265625 28.4375 
Q 76.859375 32.078125 72.703125 32.078125 
z
M 72.703125 38.28125 
Q 80.421875 38.28125 84.953125 32.90625 
Q 89.5 27.546875 89.5 18.40625 
Q 89.5 9.28125 84.9375 3.921875 
Q 80.375 -1.421875 72.703125 -1.421875 
Q 64.890625 -1.421875 60.34375 3.921875 
Q 55.8125 9.28125 55.8125 18.40625 
Q 55.8125 27.59375 60.375 32.9375 
Q 64.9375 38.28125 72.703125 38.28125 
z
M 22.3125 68.015625 
Q 18.109375 68.015625 15.6875 64.375 
Q 13.28125 60.75 13.28125 54.390625 
Q 13.28125 47.953125 15.671875 44.328125 
Q 18.0625 40.71875 22.3125 40.71875 
Q 26.5625 40.71875 28.96875 44.328125 
Q 31.390625 47.953125 31.390625 54.390625 
Q 31.390625 60.6875 28.953125 64.34375 
Q 26.515625 68.015625 22.3125 68.015625 
z
M 66.40625 74.21875 
L 74.21875 74.21875 
L 28.609375 -1.421875 
L 20.796875 -1.421875 
z
M 22.3125 74.21875 
Q 30.03125 74.21875 34.609375 68.875 
Q 39.203125 63.53125 39.203125 54.390625 
Q 39.203125 45.171875 34.640625 39.84375 
Q 30.078125 34.515625 22.3125 34.515625 
Q 14.546875 34.515625 10.03125 39.859375 
Q 5.515625 45.21875 5.515625 54.390625 
Q 5.515625 63.484375 10.046875 68.84375 
Q 14.59375 74.21875 22.3125 74.21875 
z
" id="DejaVuSans-37"/>
      </defs>
      <use xlink:href="#DejaVuSans-49"/>
      <use x="63.623047" xlink:href="#DejaVuSans-115"/>
      <use x="115.722656" xlink:href="#DejaVuSans-116"/>
      <use x="154.931641" xlink:href="#DejaVuSans-32"/>
      <use x="186.71875" xlink:href="#DejaVuSans-80"/>
      <use x="247.021484" xlink:href="#DejaVuSans-67"/>
      <use x="316.845703" xlink:href="#DejaVuSans-58"/>
      <use x="350.537109" xlink:href="#DejaVuSans-32"/>
      <use x="382.324219" xlink:href="#DejaVuSans-56"/>
      <use x="445.947266" xlink:href="#DejaVuSans-53"/>
      <use x="509.570312" xlink:href="#DejaVuSans-46"/>
      <use x="541.357422" xlink:href="#DejaVuSans-54"/>
      <use x="604.980469" xlink:href="#DejaVuSans-54"/>
      <use x="668.603516" xlink:href="#DejaVuSans-32"/>
      <use x="700.390625" xlink:href="#DejaVuSans-37"/>
     </g>
    </g>
   </g>
   <g id="matplotlib.axis_2">
    <g id="ytick_1">
     <g id="line2d_11">
      <defs>
       <path d="M 0 0 
L -3.5 0 
" id="m165b36107e" style="stroke:#000000;stroke-width:0.8;"/>
      </defs>
      <g>
       <use style="stroke:#000000;stroke-width:0.8;" x="56.028488" xlink:href="#m165b36107e" y="277.111219"/>
      </g>
     </g>
     <g id="text_12">
      <!-- −20 -->
      <g transform="translate(27.9238 280.910437)scale(0.1 -0.1)">
       <use xlink:href="#DejaVuSans-8722"/>
       <use x="83.789062" xlink:href="#DejaVuSans-50"/>
       <use x="147.412109" xlink:href="#DejaVuSans-48"/>
      </g>
     </g>
    </g>
    <g id="ytick_2">
     <g id="line2d_12">
      <g>
       <use style="stroke:#000000;stroke-width:0.8;" x="56.028488" xlink:href="#m165b36107e" y="243.847219"/>
      </g>
     </g>
     <g id="text_13">
      <!-- −15 -->
      <g transform="translate(27.9238 247.646437)scale(0.1 -0.1)">
       <use xlink:href="#DejaVuSans-8722"/>
       <use x="83.789062" xlink:href="#DejaVuSans-49"/>
       <use x="147.412109" xlink:href="#DejaVuSans-53"/>
      </g>
     </g>
    </g>
    <g id="ytick_3">
     <g id="line2d_13">
      <g>
       <use style="stroke:#000000;stroke-width:0.8;" x="56.028488" xlink:href="#m165b36107e" y="210.583219"/>
      </g>
     </g>
     <g id="text_14">
      <!-- −10 -->
      <g transform="translate(27.9238 214.382437)scale(0.1 -0.1)">
       <use xlink:href="#DejaVuSans-8722"/>
       <use x="83.789062" xlink:href="#DejaVuSans-49"/>
       <use x="147.412109" xlink:href="#DejaVuSans-48"/>
      </g>
     </g>
    </g>
    <g id="ytick_4">
     <g id="line2d_14">
      <g>
       <use style="stroke:#000000;stroke-width:0.8;" x="56.028488" xlink:href="#m165b36107e" y="177.319219"/>
      </g>
     </g>
     <g id="text_15">
      <!-- −5 -->
      <g transform="translate(34.2863 181.118437)scale(0.1 -0.1)">
       <use xlink:href="#DejaVuSans-8722"/>
       <use x="83.789062" xlink:href="#DejaVuSans-53"/>
      </g>
     </g>
    </g>
    <g id="ytick_5">
     <g id="line2d_15">
      <g>
       <use style="stroke:#000000;stroke-width:0.8;" x="56.028488" xlink:href="#m165b36107e" y="144.055219"/>
      </g>
     </g>
     <g id="text_16">
      <!-- 0 -->
      <g transform="translate(42.665987 147.854437)scale(0.1 -0.1)">
       <use xlink:href="#DejaVuSans-48"/>
      </g>
     </g>
    </g>
    <g id="ytick_6">
     <g id="line2d_16">
      <g>
       <use style="stroke:#000000;stroke-width:0.8;" x="56.028488" xlink:href="#m165b36107e" y="110.791219"/>
      </g>
     </g>
     <g id="text_17">
      <!-- 5 -->
      <g transform="translate(42.665987 114.590437)scale(0.1 -0.1)">
       <use xlink:href="#DejaVuSans-53"/>
      </g>
     </g>
    </g>
    <g id="ytick_7">
     <g id="line2d_17">
      <g>
       <use style="stroke:#000000;stroke-width:0.8;" x="56.028488" xlink:href="#m165b36107e" y="77.527219"/>
      </g>
     </g>
     <g id="text_18">
      <!-- 10 -->
      <g transform="translate(36.303488 81.326437)scale(0.1 -0.1)">
       <use xlink:href="#DejaVuSans-49"/>
       <use x="63.623047" xlink:href="#DejaVuSans-48"/>
      </g>
     </g>
    </g>
    <g id="ytick_8">
     <g id="line2d_18">
      <g>
       <use style="stroke:#000000;stroke-width:0.8;" x="56.028488" xlink:href="#m165b36107e" y="44.263219"/>
      </g>
     </g>
     <g id="text_19">
      <!-- 15 -->
      <g transform="translate(36.303488 48.062437)scale(0.1 -0.1)">
       <use xlink:href="#DejaVuSans-49"/>
       <use x="63.623047" xlink:href="#DejaVuSans-53"/>
      </g>
     </g>
    </g>
    <g id="ytick_9">
     <g id="line2d_19">
      <g>
       <use style="stroke:#000000;stroke-width:0.8;" x="56.028488" xlink:href="#m165b36107e" y="10.999219"/>
      </g>
     </g>
     <g id="text_20">
      <!-- 20 -->
      <g transform="translate(36.303488 14.798437)scale(0.1 -0.1)">
       <use xlink:href="#DejaVuSans-50"/>
       <use x="63.623047" xlink:href="#DejaVuSans-48"/>
      </g>
     </g>
    </g>
    <g id="text_21">
     <!-- 2nd PC: 9.18 % -->
     <g transform="translate(20.3301 210.351019)rotate(-90)scale(0.1728 -0.1728)">
      <defs>
       <path d="M 54.890625 33.015625 
L 54.890625 0 
L 45.90625 0 
L 45.90625 32.71875 
Q 45.90625 40.484375 42.875 44.328125 
Q 39.84375 48.1875 33.796875 48.1875 
Q 26.515625 48.1875 22.3125 43.546875 
Q 18.109375 38.921875 18.109375 30.90625 
L 18.109375 0 
L 9.078125 0 
L 9.078125 54.6875 
L 18.109375 54.6875 
L 18.109375 46.1875 
Q 21.34375 51.125 25.703125 53.5625 
Q 30.078125 56 35.796875 56 
Q 45.21875 56 50.046875 50.171875 
Q 54.890625 44.34375 54.890625 33.015625 
z
" id="DejaVuSans-110"/>
       <path d="M 45.40625 46.390625 
L 45.40625 75.984375 
L 54.390625 75.984375 
L 54.390625 0 
L 45.40625 0 
L 45.40625 8.203125 
Q 42.578125 3.328125 38.25 0.953125 
Q 33.9375 -1.421875 27.875 -1.421875 
Q 17.96875 -1.421875 11.734375 6.484375 
Q 5.515625 14.40625 5.515625 27.296875 
Q 5.515625 40.1875 11.734375 48.09375 
Q 17.96875 56 27.875 56 
Q 33.9375 56 38.25 53.625 
Q 42.578125 51.265625 45.40625 46.390625 
z
M 14.796875 27.296875 
Q 14.796875 17.390625 18.875 11.75 
Q 22.953125 6.109375 30.078125 6.109375 
Q 37.203125 6.109375 41.296875 11.75 
Q 45.40625 17.390625 45.40625 27.296875 
Q 45.40625 37.203125 41.296875 42.84375 
Q 37.203125 48.484375 30.078125 48.484375 
Q 22.953125 48.484375 18.875 42.84375 
Q 14.796875 37.203125 14.796875 27.296875 
z
" id="DejaVuSans-100"/>
       <path d="M 10.984375 1.515625 
L 10.984375 10.5 
Q 14.703125 8.734375 18.5 7.8125 
Q 22.3125 6.890625 25.984375 6.890625 
Q 35.75 6.890625 40.890625 13.453125 
Q 46.046875 20.015625 46.78125 33.40625 
Q 43.953125 29.203125 39.59375 26.953125 
Q 35.25 24.703125 29.984375 24.703125 
Q 19.046875 24.703125 12.671875 31.3125 
Q 6.296875 37.9375 6.296875 49.421875 
Q 6.296875 60.640625 12.9375 67.421875 
Q 19.578125 74.21875 30.609375 74.21875 
Q 43.265625 74.21875 49.921875 64.515625 
Q 56.59375 54.828125 56.59375 36.375 
Q 56.59375 19.140625 48.40625 8.859375 
Q 40.234375 -1.421875 26.421875 -1.421875 
Q 22.703125 -1.421875 18.890625 -0.6875 
Q 15.09375 0.046875 10.984375 1.515625 
z
M 30.609375 32.421875 
Q 37.25 32.421875 41.125 36.953125 
Q 45.015625 41.5 45.015625 49.421875 
Q 45.015625 57.28125 41.125 61.84375 
Q 37.25 66.40625 30.609375 66.40625 
Q 23.96875 66.40625 20.09375 61.84375 
Q 16.21875 57.28125 16.21875 49.421875 
Q 16.21875 41.5 20.09375 36.953125 
Q 23.96875 32.421875 30.609375 32.421875 
z
" id="DejaVuSans-57"/>
      </defs>
      <use xlink:href="#DejaVuSans-50"/>
      <use x="63.623047" xlink:href="#DejaVuSans-110"/>
      <use x="127.001953" xlink:href="#DejaVuSans-100"/>
      <use x="190.478516" xlink:href="#DejaVuSans-32"/>
      <use x="222.265625" xlink:href="#DejaVuSans-80"/>
      <use x="282.568359" xlink:href="#DejaVuSans-67"/>
      <use x="352.392578" xlink:href="#DejaVuSans-58"/>
      <use x="386.083984" xlink:href="#DejaVuSans-32"/>
      <use x="417.871094" xlink:href="#DejaVuSans-57"/>
      <use x="481.494141" xlink:href="#DejaVuSans-46"/>
      <use x="513.28125" xlink:href="#DejaVuSans-49"/>
      <use x="576.904297" xlink:href="#DejaVuSans-56"/>
      <use x="640.527344" xlink:href="#DejaVuSans-32"/>
      <use x="672.314453" xlink:href="#DejaVuSans-37"/>
     </g>
    </g>
   </g>
   <g id="LineCollection_1"/>
   <g id="LineCollection_2"/>
   <g id="LineCollection_3"/>
   <g id="LineCollection_4">
    <path clip-path="url(#p1d066c496b)" d="M 270.644091 107.027788 
L 271.749154 108.573619 
L 270.300488 111.906975 
L 267.524413 117.444019 
L 258.644349 126.314419 
L 258.396488 126.475115 
L 246.492488 134.922588 
L 246.121508 135.184819 
L 234.588488 140.432821 
L 228.282635 144.055219 
L 222.684488 146.144123 
L 210.780488 151.19084 
L 198.876488 148.818405 
L 194.551487 144.055219 
L 198.373893 135.184819 
L 198.876488 134.724134 
L 207.94593 126.314419 
L 210.780488 124.262897 
L 220.727591 117.444019 
L 222.684488 116.342268 
L 234.588488 110.616741 
L 240.19358 108.573619 
L 245.942976 106.835604 
" style="fill:none;stroke:#453781;stroke-width:1.5;"/>
   </g>
   <g id="LineCollection_5">
    <path clip-path="url(#p1d066c496b)" d="M 170.05515 109.868448 
L 171.809858 108.573619 
L 175.068488 106.3362 
L 185.592506 99.703219 
L 186.972488 98.877425 
L 198.876488 92.357143 
L 201.9521 90.832819 
L 210.780488 86.654693 
L 222.421488 81.962419 
L 222.684488 81.860374 
L 234.588488 77.767684 
L 246.492488 74.546987 
L 253.337476 73.092019 
L 258.396488 72.119744 
L 270.300488 70.671647 
L 282.204488 70.227078 
L 294.108488 70.955943 
L 306.012488 73.013969 
L 306.29666 73.092019 
L 317.916488 78.868375 
L 319.889822 81.962419 
L 317.916488 85.862853 
L 315.557985 90.832819 
L 306.012488 96.28281 
L 302.618773 99.703219 
L 294.108488 104.710919 
L 289.784819 108.573619 
L 282.204488 114.539704 
L 278.86363 117.444019 
L 270.300488 123.898026 
L 267.256698 126.314419 
L 258.396488 132.058762 
L 254.102846 135.184819 
L 246.492488 139.855246 
L 240.344626 144.055219 
L 234.588488 147.213408 
L 225.757836 152.925619 
L 222.684488 154.140816 
L 210.780488 161.234531 
L 209.753445 161.796019 
L 198.876488 164.82765 
L 188.530623 170.666419 
L 186.972488 171.144783 
L 175.068488 174.352318 
L 163.164488 179.320606 
L 162.204063 179.536819 
L 151.260488 180.866426 
L 139.356488 182.383359 
L 127.452488 182.807069 
L 115.548488 181.537666 
L 108.450313 179.536819 
L 105.31624 170.666419 
L 110.979593 161.796019 
L 115.548488 157.036107 
L 119.368613 152.925619 
L 127.452488 145.496327 
L 128.999534 144.055219 
L 139.073037 135.184819 
L 139.356488 134.93006 
L 149.33039 126.314419 
L 150.289417 125.486667 
" style="fill:none;stroke:#404688;stroke-width:1.5;"/>
   </g>
   <g id="LineCollection_6">
    <path clip-path="url(#p1d066c496b)" d="M 56.028488 174.127229 
L 58.283064 170.666419 
L 65.407316 161.796019 
L 67.932488 158.679412 
L 73.037067 152.925619 
L 79.836488 144.721614 
L 80.443429 144.055219 
L 87.395724 135.184819 
L 91.740488 128.913781 
L 93.737894 126.314419 
L 98.238063 119.351408 
" style="fill:none;stroke:#39558c;stroke-width:1.5;"/>
    <path clip-path="url(#p1d066c496b)" d="M 110.436486 97.330547 
L 113.334689 90.832819 
L 115.548488 84.927438 
L 116.936254 81.962419 
L 120.070594 73.092019 
L 123.156229 64.221619 
L 127.376803 55.351219 
L 127.452488 55.256409 
L 139.356488 46.616861 
L 139.745189 46.480819 
L 151.260488 44.241606 
L 163.164488 43.507611 
L 175.068488 43.608874 
L 186.972488 44.15346 
L 198.876488 44.902946 
L 210.780488 45.716486 
L 222.602013 46.480819 
L 222.684488 46.485502 
L 234.588488 47.194684 
L 246.492488 47.828714 
L 258.396488 48.465112 
L 270.300488 49.174517 
L 282.204488 50.061415 
L 294.108488 51.277245 
L 306.012488 52.986841 
L 317.916488 55.260482 
L 318.277082 55.351219 
L 329.820488 58.731645 
L 341.374958 64.221619 
L 338.766442 73.092019 
L 332.072921 81.962419 
L 329.820488 85.317675 
L 323.384701 90.832819 
L 317.916488 93.653226 
L 309.395721 99.703219 
L 306.012488 101.283592 
L 295.738267 108.573619 
L 294.108488 109.563365 
L 283.662353 117.444019 
L 282.204488 118.464654 
L 271.698607 126.314419 
L 270.300488 127.253696 
L 259.284564 135.184819 
L 258.396488 135.7554 
L 246.689285 144.055219 
L 246.492488 144.177827 
L 234.588488 150.993331 
L 231.601315 152.925619 
L 222.684488 156.451319 
L 214.205397 161.796019 
L 210.780488 162.997646 
L 198.876488 169.189034 
L 196.258672 170.666419 
L 186.972488 173.517379 
L 176.58225 179.536819 
L 175.068488 180.04012 
L 163.164488 183.935119 
L 153.691887 188.407219 
L 151.260488 188.906751 
L 139.356488 191.68291 
L 127.452488 196.021795 
L 121.835253 197.277619 
L 115.548488 197.99367 
L 103.644488 198.976402 
L 91.740488 199.395963 
L 79.836488 199.315138 
L 67.932488 198.612249 
L 58.970884 197.277619 
L 56.028488 195.415155 
" style="fill:none;stroke:#39558c;stroke-width:1.5;"/>
   </g>
   <g id="LineCollection_7">
    <path clip-path="url(#p1d066c496b)" d="M 197.853773 10.999219 
L 198.876488 11.321252 
L 210.780488 15.13437 
L 222.684488 18.440044 
L 228.243719 19.869619 
L 234.588488 21.86777 
L 246.492488 25.28508 
L 258.396488 28.172673 
L 260.8507 28.740019 
L 270.300488 31.155614 
L 282.204488 33.8865 
L 294.108488 36.406093 
L 299.467836 37.610419 
L 306.012488 39.112493 
L 317.916488 42.245063 
L 329.820488 45.84515 
L 331.380148 46.480819 
L 341.724488 50.642336 
L 345.033595 55.351219 
L 344.825399 64.221619 
L 342.643954 73.092019 
L 341.724488 75.765097 
L 335.521574 81.962419 
L 329.820488 90.454835 
L 329.379407 90.832819 
L 317.916488 96.745188 
L 313.750418 99.703219 
L 306.012488 103.317755 
L 298.60512 108.573619 
L 294.108488 111.304372 
L 285.97013 117.444019 
L 282.204488 120.080304 
L 273.860942 126.314419 
L 270.300488 128.706386 
L 261.302276 135.184819 
L 258.396488 137.051762 
L 256.850074 138.148091 
" style="fill:none;stroke:#33638d;stroke-width:1.5;"/>
    <path clip-path="url(#p1d066c496b)" d="M 236.101995 152.444302 
L 235.400305 152.925619 
L 234.588488 153.254089 
L 222.684488 158.761821 
L 217.87089 161.796019 
L 210.780488 164.283683 
L 200.276043 170.666419 
L 198.876488 171.156852 
L 186.972488 175.889975 
L 180.677621 179.536819 
L 175.068488 181.401765 
L 163.164488 188.384507 
L 163.11638 188.407219 
L 151.260488 190.843016 
L 139.356488 196.71272 
L 137.998756 197.277619 
L 127.452488 198.952033 
L 115.548488 203.006758 
L 105.518184 206.148019 
L 103.644488 206.348161 
L 91.740488 207.341904 
L 79.836488 208.215927 
L 67.932488 208.705595 
L 56.028488 208.940458 
" style="fill:none;stroke:#33638d;stroke-width:1.5;"/>
   </g>
   <g id="LineCollection_8">
    <path clip-path="url(#p1d066c496b)" d="M 244.734744 10.999219 
L 246.492488 11.564383 
L 258.396488 15.237237 
L 270.300488 18.345795 
L 276.788577 19.869619 
L 282.204488 21.445923 
L 294.108488 24.682327 
L 306.012488 27.684433 
L 309.873072 28.740019 
L 317.916488 31.252313 
L 329.820488 35.510486 
L 334.322547 37.610419 
L 341.724488 40.973051 
L 347.971939 46.480819 
L 352.392185 55.351219 
L 347.959033 64.221619 
L 343.829129 73.092019 
L 341.724488 79.210641 
L 338.970228 81.962419 
L 330.647268 90.832819 
L 329.820488 91.523871 
L 317.963327 99.703219 
L 317.916488 99.727282 
L 306.012488 105.351917 
L 301.471973 108.573619 
L 294.108488 113.045379 
L 288.277907 117.444019 
L 282.204488 121.695953 
L 276.023277 126.314419 
L 270.300488 130.159075 
L 263.319987 135.184819 
L 258.396488 138.348123 
L 250.346417 144.055219 
L 246.492488 146.456283 
L 237.061134 152.925619 
L 234.588488 153.926078 
L 232.32377 155.28564 
" style="fill:none;stroke:#2d718e;stroke-width:1.5;"/>
    <path clip-path="url(#p1d066c496b)" d="M 209.75384 166.193533 
L 202.392549 170.666419 
L 198.876488 171.89852 
L 186.972488 178.262571 
L 184.772992 179.536819 
L 175.068488 182.76341 
L 165.468734 188.407219 
L 163.164488 189.148959 
L 151.260488 192.779282 
L 142.647492 197.277619 
L 139.356488 197.915568 
L 127.452488 200.871407 
L 116.971957 206.148019 
L 115.548488 206.3618 
L 103.644488 208.058004 
L 91.740488 211.723567 
L 79.836488 214.203359 
L 67.932488 214.990074 
L 67.428421 215.018419 
L 56.028488 215.442413 
" style="fill:none;stroke:#2d718e;stroke-width:1.5;"/>
   </g>
   <g id="LineCollection_9">
    <path clip-path="url(#p1d066c496b)" d="M 275.685384 10.999219 
L 282.204488 12.926308 
L 294.108488 16.09601 
L 305.83055 18.88179 
" style="fill:none;stroke:#287d8e;stroke-width:1.5;"/>
    <path clip-path="url(#p1d066c496b)" d="M 329.784522 26.655813 
L 329.820488 26.668637 
L 334.333744 28.740019 
L 341.724488 32.458181 
L 347.766539 37.610419 
L 353.628488 42.705504 
L 354.296383 46.480819 
L 354.284909 55.351219 
L 353.628488 59.84794 
L 351.092668 64.221619 
L 345.014303 73.092019 
L 341.814033 81.962419 
L 341.724488 82.116211 
L 331.539714 90.832819 
L 329.820488 92.269808 
L 319.044672 99.703219 
L 317.916488 100.28282 
L 306.012488 107.38608 
L 304.338826 108.573619 
L 294.108488 114.786386 
L 290.585685 117.444019 
L 282.204488 123.311603 
L 278.185612 126.314419 
L 270.300488 131.611765 
L 265.337698 135.184819 
L 258.396488 139.644485 
L 252.174983 144.055219 
L 246.492488 147.595511 
L 238.721963 152.925619 
L 234.588488 154.598067 
L 223.401745 161.796019 
L 222.684488 162.088769 
L 210.780488 166.855755 
L 204.509054 170.666419 
L 198.876488 172.640187 
L 187.537011 179.536819 
L 186.972488 179.746296 
L 175.068488 184.125055 
L 167.784804 188.407219 
L 163.164488 189.894504 
L 151.260488 194.715548 
L 146.354874 197.277619 
L 139.356488 198.634229 
L 127.452488 202.79078 
L 120.784261 206.148019 
L 115.548488 206.934345 
L 103.644488 209.767846 
L 92.630146 215.018419 
L 91.740488 215.117852 
L 79.836488 216.053936 
L 67.932488 217.988296 
L 56.028488 219.599009 
" style="fill:none;stroke:#287d8e;stroke-width:1.5;"/>
   </g>
   <g id="LineCollection_10">
    <path clip-path="url(#p1d066c496b)" d="M 300.926492 10.999219 
L 306.012488 12.420103 
L 317.916488 15.805813 
L 329.820488 19.428416 
L 330.901949 19.869619 
L 341.724488 25.296631 
L 346.168567 28.740019 
L 353.628488 34.970823 
L 354.540012 37.610419 
L 355.766179 46.480819 
L 355.073884 55.351219 
L 353.713065 64.221619 
L 353.628488 64.483613 
L 346.199478 73.092019 
L 342.258756 81.962419 
L 341.724488 82.880007 
L 332.432159 90.832819 
L 329.820488 93.015745 
L 320.126016 99.703219 
L 317.916488 100.838359 
L 306.357985 108.573619 
L 306.012488 108.771127 
L 294.108488 116.527393 
L 292.893462 117.444019 
L 282.204488 124.927252 
L 280.347947 126.314419 
L 270.300488 133.064454 
L 267.355409 135.184819 
L 258.396488 140.940846 
L 254.003549 144.055219 
L 246.492488 148.734739 
L 240.382792 152.925619 
L 234.588488 155.270056 
L 224.446121 161.796019 
L 222.684488 162.515033 
L 210.780488 168.141791 
L 210.376362 168.387347 
" style="fill:none;stroke:#238a8d;stroke-width:1.5;"/>
    <path clip-path="url(#p1d066c496b)" d="M 188.048405 179.799558 
L 186.972488 180.198797 
L 175.068488 185.486699 
L 170.100873 188.407219 
L 163.164488 190.64005 
L 151.260488 196.651814 
L 150.062255 197.277619 
L 139.356488 199.352891 
L 127.452488 204.710153 
L 124.596565 206.148019 
L 115.548488 207.50689 
L 103.644488 211.477688 
L 96.216951 215.018419 
L 91.740488 215.518734 
L 79.836488 217.25263 
L 67.932488 220.97163 
L 56.028488 223.755605 
" style="fill:none;stroke:#238a8d;stroke-width:1.5;"/>
   </g>
   <g id="LineCollection_11">
    <path clip-path="url(#p1d066c496b)" d="M 320.546589 10.999219 
L 329.820488 14.277109 
L 341.724488 19.267301 
L 342.642697 19.869619 
L 353.628488 28.309921 
L 353.832027 28.740019 
L 356.897003 37.610419 
L 357.09759 42.85951 
" style="fill:none;stroke:#1f968b;stroke-width:1.5;"/>
    <path clip-path="url(#p1d066c496b)" d="M 352.420767 67.256393 
L 347.384652 73.092019 
L 342.703478 81.962419 
L 341.724488 83.643804 
L 333.324605 90.832819 
L 329.820488 93.761682 
L 321.207361 99.703219 
L 317.916488 101.393897 
L 307.188104 108.573619 
L 306.012488 109.245676 
L 294.426052 117.444019 
L 294.108488 117.652669 
L 282.289517 126.314419 
L 282.204488 126.374745 
L 270.300488 134.517143 
L 269.37312 135.184819 
L 258.396488 142.237208 
L 255.832115 144.055219 
L 246.492488 149.873967 
L 242.043621 152.925619 
L 234.588488 155.942045 
L 225.490497 161.796019 
L 222.684488 162.941297 
L 210.780488 169.427827 
L 208.742065 170.666419 
L 198.876488 174.123522 
L 189.975918 179.536819 
L 186.972488 180.651299 
L 175.068488 186.848344 
L 172.416943 188.407219 
L 163.164488 191.385595 
L 152.199511 197.277619 
L 151.260488 197.494736 
L 139.356488 200.071553 
L 127.795502 206.148019 
L 127.452488 206.206821 
L 115.548488 208.079435 
L 103.644488 213.18753 
L 99.803757 215.018419 
L 91.740488 215.919616 
L 79.836488 218.451324 
L 67.990387 223.888819 
L 67.932488 223.894013 
L 56.028488 224.470297 
" style="fill:none;stroke:#1f968b;stroke-width:1.5;"/>
   </g>
   <g id="LineCollection_12">
    <path clip-path="url(#p1d066c496b)" d="M 333.087661 10.999219 
L 341.724488 15.051879 
L 349.068941 19.869619 
L 353.628488 23.372685 
L 356.168521 28.740019 
L 359.253994 37.610419 
L 358.705769 46.480819 
L 356.651835 55.351219 
L 354.599748 64.221619 
L 353.628488 67.230268 
L 348.569826 73.092019 
L 343.148201 81.962419 
L 341.724488 84.407601 
L 334.21705 90.832819 
L 329.820488 94.507619 
L 322.288706 99.703219 
L 317.916488 101.949435 
L 308.018224 108.573619 
L 306.012488 109.720225 
L 295.096716 117.444019 
L 294.108488 118.093315 
L 282.89078 126.314419 
L 282.204488 126.801323 
L 270.619047 135.184819 
L 270.300488 135.41403 
L 258.396488 143.533569 
L 257.660681 144.055219 
L 246.492488 151.013194 
L 243.70445 152.925619 
L 234.588488 156.614034 
L 226.534873 161.796019 
L 222.684488 163.367561 
L 210.80608 170.666419 
L 210.780488 170.675817 
L 198.876488 174.86519 
L 191.195371 179.536819 
L 186.972488 181.1038 
L 185.887391 181.751557 
" style="fill:none;stroke:#20a386;stroke-width:1.5;"/>
    <path clip-path="url(#p1d066c496b)" d="M 163.113642 192.158463 
L 153.586961 197.277619 
L 151.260488 197.815537 
L 139.356488 200.790215 
L 129.162816 206.148019 
L 127.452488 206.441219 
L 115.548488 208.65198 
L 103.644488 214.897372 
L 103.390563 215.018419 
L 91.740488 216.320497 
L 79.836488 219.650018 
L 70.601856 223.888819 
L 67.932488 224.128277 
L 56.028488 225.071028 
" style="fill:none;stroke:#20a386;stroke-width:1.5;"/>
   </g>
   <g id="LineCollection_13">
    <path clip-path="url(#p1d066c496b)" d="M 341.90022 10.999219 
L 353.628488 18.970998 
L 354.213056 19.869619 
L 358.505015 28.740019 
L 361.610985 37.610419 
L 360.175565 46.480819 
L 357.44081 55.351219 
L 355.043089 64.221619 
L 353.628488 68.603595 
L 349.755001 73.092019 
L 343.695514 81.814739 
" style="fill:none;stroke:#29af7f;stroke-width:1.5;"/>
    <path clip-path="url(#p1d066c496b)" d="M 325.122965 98.494017 
L 323.370051 99.703219 
L 317.916488 102.504973 
L 308.848343 108.573619 
L 306.012488 110.194774 
L 295.76738 117.444019 
L 294.108488 118.533962 
L 283.492043 126.314419 
L 282.204488 127.227901 
L 271.20855 135.184819 
L 270.300488 135.838191 
L 258.752716 144.055219 
L 258.396488 144.291564 
L 246.492488 152.152422 
L 245.365279 152.925619 
L 234.588488 157.286024 
L 227.57925 161.796019 
L 222.684488 163.793825 
L 211.499797 170.666419 
L 210.780488 170.930564 
L 198.876488 175.606857 
L 192.414825 179.536819 
L 186.972488 181.556301 
L 175.70491 188.407219 
L 175.068488 188.636651 
L 163.164488 192.876686 
L 154.974411 197.277619 
L 151.260488 198.136338 
L 139.356488 201.508876 
L 130.53013 206.148019 
L 127.452488 206.675616 
L 115.548488 209.224524 
L 104.64562 215.018419 
L 103.644488 215.165891 
L 91.740488 216.721379 
L 79.836488 220.848712 
L 73.213325 223.888819 
L 67.932488 224.362542 
L 56.028488 225.671759 
" style="fill:none;stroke:#29af7f;stroke-width:1.5;"/>
   </g>
   <g id="LineCollection_14">
    <path clip-path="url(#p1d066c496b)" d="M 346.451546 10.999219 
L 353.628488 15.877432 
L 356.225475 19.869619 
L 360.841509 28.740019 
L 363.967976 37.610419 
L 361.64536 46.480819 
L 358.229786 55.351219 
L 355.486431 64.221619 
L 353.628488 69.976923 
L 350.940175 73.092019 
L 344.037646 81.962419 
L 341.724488 85.935194 
L 336.001941 90.832819 
L 329.820488 95.999493 
L 324.451396 99.703219 
L 317.916488 103.060511 
L 309.678462 108.573619 
L 306.012488 110.669323 
L 296.438043 117.444019 
L 294.108488 118.974608 
L 284.093306 126.314419 
L 282.204488 127.654479 
L 271.798053 135.184819 
L 270.300488 136.262352 
L 259.348809 144.055219 
L 258.396488 144.687051 
L 246.673302 152.925619 
L 246.492488 152.998901 
L 234.588488 157.958013 
L 228.623626 161.796019 
L 222.684488 164.220089 
L 212.193513 170.666419 
L 210.780488 171.185311 
L 198.876488 176.348525 
L 193.634278 179.536819 
L 186.972488 182.008803 
L 185.961245 182.623659 
" style="fill:none;stroke:#3dbc74;stroke-width:1.5;"/>
    <path clip-path="url(#p1d066c496b)" d="M 163.354705 193.546853 
L 163.164488 193.622232 
L 156.361862 197.277619 
L 151.260488 198.457139 
L 139.356488 202.227538 
L 131.897444 206.148019 
L 127.452488 206.910013 
L 115.548488 209.797069 
L 105.723027 215.018419 
L 103.644488 215.324598 
L 91.740488 217.122261 
L 79.836488 222.047406 
L 75.824794 223.888819 
L 67.932488 224.596807 
L 56.028488 226.272489 
" style="fill:none;stroke:#3dbc74;stroke-width:1.5;"/>
   </g>
   <g id="LineCollection_15">
    <path clip-path="url(#p1d066c496b)" d="M 351.002873 10.999219 
L 353.628488 12.783866 
L 358.237895 19.869619 
L 363.178003 28.740019 
L 365.532488 35.39121 
L 365.713989 37.610419 
L 365.532488 39.116024 
L 363.115155 46.480819 
L 359.018761 55.351219 
L 355.929772 64.221619 
L 353.628488 71.35025 
L 352.12535 73.092019 
L 344.482369 81.962419 
L 341.724488 86.698991 
L 336.894386 90.832819 
L 329.820488 96.74543 
L 325.53274 99.703219 
L 317.916488 103.616049 
L 310.508582 108.573619 
L 306.012488 111.143872 
L 297.108707 117.444019 
L 294.108488 119.415255 
L 284.694569 126.314419 
L 282.204488 128.081057 
L 272.387556 135.184819 
L 270.300488 136.686512 
L 259.944902 144.055219 
L 258.396488 145.082538 
L 247.236067 152.925619 
L 246.492488 153.226985 
L 234.588488 158.630002 
L 229.668002 161.796019 
L 222.684488 164.646353 
L 212.88723 170.666419 
L 210.780488 171.440058 
L 198.876488 177.090192 
L 198.43674 177.357645 
" style="fill:none;stroke:#56c667;stroke-width:1.5;"/>
    <path clip-path="url(#p1d066c496b)" d="M 176.106693 188.798963 
L 175.068488 189.173239 
L 163.164488 194.367777 
L 157.749312 197.277619 
L 151.260488 198.77794 
L 139.356488 202.9462 
L 133.264759 206.148019 
L 127.452488 207.14441 
L 115.548488 210.369614 
L 106.800433 215.018419 
L 103.644488 215.483306 
L 91.740488 217.523143 
L 79.836488 223.2461 
L 78.436263 223.888819 
L 67.932488 224.831072 
L 56.028488 226.87322 
" style="fill:none;stroke:#56c667;stroke-width:1.5;"/>
   </g>
   <g id="LineCollection_16">
    <path clip-path="url(#p1d066c496b)" d="M 354.325027 10.999219 
L 360.250314 19.869619 
L 365.514497 28.740019 
L 365.532488 28.79084 
L 366.25381 37.610419 
L 365.532488 43.593994 
L 364.584951 46.480819 
L 359.807737 55.351219 
L 356.373114 64.221619 
L 353.628488 72.723577 
L 353.310524 73.092019 
L 344.927091 81.962419 
L 341.724488 87.462788 
L 337.786832 90.832819 
L 329.820488 97.491367 
L 326.614085 99.703219 
L 317.916488 104.171587 
L 311.338701 108.573619 
L 306.012488 111.618421 
L 297.779371 117.444019 
L 294.108488 119.855902 
L 285.295832 126.314419 
L 282.204488 128.507635 
L 272.977059 135.184819 
L 270.300488 137.110673 
L 260.540995 144.055219 
L 258.396488 145.478025 
L 247.798831 152.925619 
L 246.492488 153.455068 
L 234.588488 159.301991 
L 230.712379 161.796019 
L 222.684488 165.072617 
L 213.580946 170.666419 
L 210.780488 171.694805 
L 198.876488 177.83186 
L 196.073186 179.536819 
L 188.872031 182.208944 
" style="fill:none;stroke:#75d054;stroke-width:1.5;"/>
    <path clip-path="url(#p1d066c496b)" d="M 166.44692 193.549373 
L 163.164488 195.113323 
L 159.136762 197.277619 
L 151.260488 199.09874 
L 139.356488 203.664862 
L 134.632073 206.148019 
L 127.452488 207.378808 
L 115.548488 210.942159 
L 107.87784 215.018419 
L 103.644488 215.642014 
L 91.740488 217.924024 
L 80.196344 223.888819 
L 79.836488 223.93529 
L 67.932488 225.065337 
L 56.028488 227.473951 
" style="fill:none;stroke:#75d054;stroke-width:1.5;"/>
   </g>
   <g id="LineCollection_17">
    <path clip-path="url(#p1d066c496b)" d="M 355.971265 10.999219 
L 362.262734 19.869619 
L 365.532488 25.3767 
L 366.112439 28.740019 
L 366.793632 37.610419 
L 365.6592 46.480819 
L 365.532488 46.957565 
L 360.596712 55.351219 
L 356.816455 64.221619 
L 353.796484 73.092019 
L 353.628488 73.428362 
L 345.371814 81.962419 
L 341.724488 88.226585 
L 338.679277 90.832819 
L 329.820488 98.237304 
L 327.69543 99.703219 
L 317.916488 104.727125 
L 312.16882 108.573619 
L 306.012488 112.09297 
L 298.450034 117.444019 
L 294.108488 120.296548 
L 285.897095 126.314419 
L 282.204488 128.934213 
L 273.566561 135.184819 
L 270.300488 137.534834 
L 261.137088 144.055219 
L 258.396488 145.873513 
L 248.361595 152.925619 
L 246.492488 153.683151 
L 234.588488 159.97398 
L 231.756755 161.796019 
L 222.684488 165.498881 
L 214.274663 170.666419 
L 210.780488 171.949552 
L 198.876488 178.573528 
L 197.292639 179.536819 
L 189.688614 182.358437 
" style="fill:none;stroke:#95d840;stroke-width:1.5;"/>
    <path clip-path="url(#p1d066c496b)" d="M 167.286343 193.729713 
L 163.164488 195.858868 
L 160.524212 197.277619 
L 151.260488 199.419541 
L 139.356488 204.383523 
L 135.999387 206.148019 
L 127.452488 207.613205 
L 115.548488 211.514704 
L 108.955247 215.018419 
L 103.644488 215.800721 
L 91.740488 218.324906 
L 80.972203 223.888819 
L 79.836488 224.035483 
L 67.932488 225.299601 
L 56.028488 228.074682 
" style="fill:none;stroke:#95d840;stroke-width:1.5;"/>
   </g>
   <g id="LineCollection_18">
    <path clip-path="url(#p1d066c496b)" d="M 357.617503 10.999219 
L 364.275153 19.869619 
L 365.532488 21.987283 
L 366.696891 28.740019 
L 367.333453 37.610419 
L 366.015809 46.480819 
L 365.532488 48.299277 
L 361.385687 55.351219 
L 357.259796 64.221619 
L 354.026077 73.092019 
L 353.628488 73.888025 
L 345.816537 81.962419 
L 341.724488 88.990381 
L 339.571723 90.832819 
L 329.820488 98.983241 
L 328.776775 99.703219 
L 317.916488 105.282663 
L 312.998939 108.573619 
L 306.012488 112.567519 
L 299.120698 117.444019 
L 294.108488 120.737195 
L 286.498358 126.314419 
L 282.204488 129.360791 
L 274.156064 135.184819 
L 270.300488 137.958995 
L 261.733181 144.055219 
L 258.396488 146.269 
L 248.924359 152.925619 
L 246.492488 153.911235 
L 234.588488 160.64597 
L 232.801131 161.796019 
L 222.684488 165.925145 
L 214.968379 170.666419 
L 210.780488 172.204299 
L 198.876488 179.315195 
L 198.512093 179.536819 
L 190.505197 182.507929 
" style="fill:none;stroke:#bade28;stroke-width:1.5;"/>
    <path clip-path="url(#p1d066c496b)" d="M 168.106455 193.853496 
L 163.164488 196.604414 
L 161.911662 197.277619 
L 151.260488 199.740342 
L 139.356488 205.102185 
L 137.366701 206.148019 
L 127.452488 207.847602 
L 115.548488 212.087249 
L 110.032653 215.018419 
L 103.644488 215.959429 
L 91.740488 218.725788 
L 81.748061 223.888819 
L 79.836488 224.135676 
L 67.932488 225.533866 
L 56.028488 228.675413 
" style="fill:none;stroke:#bade28;stroke-width:1.5;"/>
   </g>
   <g id="LineCollection_19">
    <path clip-path="url(#p1d066c496b)" d="M 359.263741 10.999219 
L 365.532488 19.073975 
L 365.716966 19.869619 
L 367.281343 28.740019 
L 367.873274 37.610419 
L 366.372417 46.480819 
L 365.532488 49.640988 
L 362.174663 55.351219 
L 357.703138 64.221619 
L 354.255669 73.092019 
L 353.628488 74.347688 
L 346.261259 81.962419 
L 341.724488 89.754178 
L 340.464168 90.832819 
L 329.829421 99.703219 
L 329.820488 99.708997 
L 317.916488 105.838202 
L 313.829059 108.573619 
L 306.012488 113.042068 
L 299.791362 117.444019 
L 294.108488 121.177841 
L 287.099621 126.314419 
L 282.204488 129.78737 
L 274.745567 135.184819 
L 270.300488 138.383156 
L 262.329274 144.055219 
L 258.396488 146.664487 
L 249.487123 152.925619 
L 246.492488 154.139318 
L 234.588488 161.317959 
L 233.845507 161.796019 
L 222.684488 166.351409 
L 215.662096 170.666419 
L 210.780488 172.459046 
L 199.169517 179.536819 
L 198.876488 179.649001 
L 191.296985 182.592113 
" style="fill:none;stroke:#dde318;stroke-width:1.5;"/>
    <path clip-path="url(#p1d066c496b)" d="M 168.894983 193.906352 
L 163.208399 197.277619 
L 163.164488 197.290365 
L 151.260488 200.061143 
L 139.356488 205.820847 
L 138.734016 206.148019 
L 127.452488 208.081999 
L 115.548488 212.659793 
L 111.11006 215.018419 
L 103.644488 216.118136 
L 91.740488 219.12667 
L 82.52392 223.888819 
L 79.836488 224.235869 
L 67.932488 225.768131 
L 56.028488 229.276144 
" style="fill:none;stroke:#dde318;stroke-width:1.5;"/>
   </g>
   <g id="LineCollection_20">
    <path clip-path="url(#p1d066c496b)" d="M 360.909979 10.999219 
L 365.532488 16.95346 
L 366.208629 19.869619 
L 367.865795 28.740019 
L 368.413096 37.610419 
L 366.729026 46.480819 
L 365.532488 50.9827 
L 362.963638 55.351219 
L 358.146479 64.221619 
L 354.485262 73.092019 
L 353.628488 74.807351 
L 346.705982 81.962419 
L 341.724488 90.517975 
L 341.356613 90.832819 
L 330.086129 99.703219 
L 329.820488 99.875019 
L 317.916488 106.39374 
L 314.659178 108.573619 
L 306.012488 113.516617 
L 300.462026 117.444019 
L 294.108488 121.618488 
L 287.700884 126.314419 
L 282.204488 130.213948 
L 275.33507 135.184819 
L 270.300488 138.807317 
L 262.925367 144.055219 
L 258.396488 147.059974 
L 250.049887 152.925619 
L 246.492488 154.367402 
L 234.693038 161.796019 
L 234.588488 161.840608 
L 222.684488 166.777673 
L 216.355812 170.666419 
L 210.780488 172.713793 
L 199.587425 179.536819 
L 198.876488 179.808992 
L 192.065533 182.621039 
" style="fill:none;stroke:#fde725;stroke-width:1.5;"/>
    <path clip-path="url(#p1d066c496b)" d="M 169.575487 193.771211 
L 163.660952 197.277619 
L 163.164488 197.421731 
L 151.260488 200.381944 
L 139.706656 206.148019 
L 139.356488 206.209217 
L 127.452488 208.316397 
L 115.548488 213.232338 
L 112.187467 215.018419 
L 103.644488 216.276844 
L 91.740488 219.527551 
L 83.299778 223.888819 
L 79.836488 224.336062 
L 67.932488 226.002396 
L 56.028488 229.876874 
" style="fill:none;stroke:#fde725;stroke-width:1.5;"/>
   </g>
   <g id="LineCollection_21">
    <path clip-path="url(#p1d066c496b)" d="M 362.556216 10.999219 
L 365.532488 14.832946 
L 366.700292 19.869619 
L 368.450247 28.740019 
L 368.952917 37.610419 
L 367.085634 46.480819 
L 365.532488 52.324411 
L 363.752614 55.351219 
L 358.58982 64.221619 
L 354.714855 73.092019 
L 353.628488 75.267014 
L 347.150704 81.962419 
L 341.833916 90.832819 
L 341.752625 90.919036 
" style="fill:none;stroke:#440154;stroke-width:1.5;"/>
    <path clip-path="url(#p1d066c496b)" d="M 317.904346 106.957403 
L 315.489297 108.573619 
L 306.012488 113.991166 
L 301.132689 117.444019 
L 294.108488 122.059135 
L 288.302146 126.314419 
L 282.204488 130.640526 
L 275.924573 135.184819 
L 270.300488 139.231478 
L 263.52146 144.055219 
L 258.396488 147.455462 
L 250.612651 152.925619 
L 246.492488 154.595485 
L 235.055321 161.796019 
L 234.588488 161.995117 
L 222.684488 167.203938 
L 217.049529 170.666419 
L 210.780488 172.96854 
L 200.005334 179.536819 
L 198.876488 179.968982 
L 186.972488 185.176313 
L 181.658676 188.407219 
L 175.068488 190.783003 
L 164.113504 197.277619 
L 163.164488 197.553097 
L 151.260488 200.702745 
L 140.349464 206.148019 
L 139.356488 206.321559 
L 127.452488 208.550794 
L 115.548488 213.804883 
L 113.264873 215.018419 
L 103.644488 216.435551 
L 91.740488 219.928433 
L 84.075637 223.888819 
L 79.836488 224.436255 
L 67.932488 226.236661 
L 56.028488 230.477605 
" style="fill:none;stroke:#440154;stroke-width:1.5;"/>
   </g>
   <g id="LineCollection_22">
    <path clip-path="url(#p1d066c496b)" d="M 395.616045 10.999219 
L 397.965133 19.869619 
L 400.411007 28.740019 
L 401.244488 33.538887 
L 401.602246 37.610419 
L 401.244488 38.802553 
L 396.991864 46.480819 
L 390.496955 55.351219 
L 389.340488 56.828864 
L 382.812999 64.221619 
L 377.436488 71.844023 
L 376.332128 73.092019 
L 368.277695 81.962419 
L 365.532488 85.594299 
L 360.300231 90.832819 
L 353.628488 97.93137 
L 351.525105 99.703219 
L 341.724488 106.494347 
L 338.818386 108.573619 
L 329.820488 113.23875 
L 323.837678 117.444019 
L 317.916488 120.563321 
L 309.809892 126.314419 
L 306.012488 128.673142 
L 297.042562 135.184819 
L 294.108488 137.275889 
L 284.93496 144.055219 
L 282.204488 145.847808 
L 272.541984 152.925619 
L 270.300488 154.569063 
L 260.215376 161.796019 
L 258.396488 163.072038 
L 246.492488 170.10738 
L 245.604661 170.666419 
L 234.588488 175.249712 
L 227.423661 179.536819 
L 222.684488 181.218311 
L 210.848091 188.407219 
L 210.780488 188.434332 
L 198.876488 193.267169 
L 192.291613 197.277619 
L 186.972488 198.875902 
L 175.068488 205.058397 
L 173.164293 206.148019 
L 163.164488 208.591241 
L 151.260488 214.940145 
L 151.094421 215.018419 
L 139.356488 217.140541 
L 127.452488 220.960884 
L 120.783059 223.888819 
L 115.548488 224.720754 
L 106.928305 226.553868 
" style="fill:none;stroke:#440154;stroke-width:1.5;"/>
    <path clip-path="url(#p1d066c496b)" d="M 75.937745 235.362989 
L 67.932488 237.427238 
L 57.943381 241.629619 
L 56.028488 241.913872 
" style="fill:none;stroke:#440154;stroke-width:1.5;"/>
   </g>
   <g id="LineCollection_23">
    <path clip-path="url(#p1d066c496b)" d="M 413.148488 69.15152 
L 408.335821 73.092019 
L 401.244488 78.922287 
L 397.718704 81.962419 
L 389.340488 88.277015 
L 386.350293 90.832819 
L 377.436488 96.09112 
L 372.740934 99.703219 
L 365.532488 103.881392 
L 358.916756 108.573619 
L 353.628488 111.412757 
L 344.800211 117.444019 
L 341.724488 119.11455 
L 331.211583 126.314419 
L 329.820488 127.147674 
L 318.450272 135.184819 
L 317.916488 135.536684 
L 309.062477 141.968267 
" style="fill:none;stroke:#440154;stroke-width:1.5;"/>
    <path clip-path="url(#p1d066c496b)" d="M 279.238746 162.111241 
L 270.300488 169.574315 
L 268.81195 170.666419 
L 258.396488 177.835802 
L 255.706268 179.536819 
L 246.492488 183.745993 
L 238.702111 188.407219 
L 234.588488 189.899163 
L 222.684488 196.879977 
L 222.030986 197.277619 
L 210.780488 200.282239 
L 200.669601 206.148019 
L 198.876488 206.577622 
L 186.972488 210.332345 
L 178.676788 215.018419 
L 175.068488 215.909379 
L 163.164488 220.278952 
L 156.506693 223.888819 
L 151.260488 225.127655 
L 139.356488 229.534643 
L 132.389679 232.759219 
L 127.452488 233.748375 
L 115.548488 236.612577 
L 103.644488 241.367613 
L 102.994429 241.629619 
L 91.740488 243.474127 
L 79.836488 246.637217 
L 70.118165 250.500019 
L 67.932488 250.86451 
L 56.028488 253.053417 
" style="fill:none;stroke:#440154;stroke-width:1.5;"/>
   </g>
   <g id="LineCollection_24">
    <path clip-path="url(#p1d066c496b)" d="M 413.148488 90.994202 
L 401.244488 96.356677 
L 396.226055 99.703219 
L 389.340488 102.924098 
L 381.018459 108.573619 
L 377.436488 110.369111 
L 367.052147 117.444019 
L 365.532488 118.260812 
L 353.839803 126.314419 
L 353.628488 126.437513 
L 341.724488 133.763103 
L 339.704993 135.184819 
L 329.820488 141.65421 
L 326.490489 144.055219 
L 317.916488 149.413857 
L 312.961393 152.925619 
L 306.012488 156.979721 
L 299.196013 161.796019 
L 294.108488 165.096685 
L 286.579246 170.666419 
L 285.866654 171.221403 
" style="fill:none;stroke:#440154;stroke-width:1.5;"/>
    <path clip-path="url(#p1d066c496b)" d="M 253.221565 193.123985 
L 246.492488 197.266041 
L 246.474758 197.277619 
L 234.588488 200.534875 
L 225.563391 206.148019 
L 222.684488 206.966445 
L 210.780488 212.034285 
L 205.48176 215.018419 
L 198.876488 216.622578 
L 186.972488 222.500457 
L 184.535073 223.888819 
L 175.068488 226.327359 
L 163.731046 232.759219 
L 163.164488 232.908317 
L 151.260488 236.179227 
L 141.398883 241.629619 
L 139.356488 242.162391 
L 127.452488 245.891452 
L 118.258544 250.500019 
L 115.548488 251.147041 
L 103.644488 254.156203 
L 91.740488 258.991383 
L 90.786253 259.370419 
L 79.836488 261.338384 
L 67.932488 264.663819 
L 58.781843 268.240819 
L 56.028488 268.74197 
" style="fill:none;stroke:#440154;stroke-width:1.5;"/>
   </g>
   <g id="LineCollection_25">
    <path clip-path="url(#p1d066c496b)" d="M 413.148488 103.225863 
L 404.787789 108.573619 
L 401.244488 110.141072 
L 390.167622 117.444019 
L 389.340488 117.857274 
L 377.436488 124.961571 
L 375.457532 126.314419 
L 365.532488 132.015157 
L 360.986714 135.184819 
L 353.628488 139.767936 
L 347.63624 144.055219 
L 341.724488 147.837756 
L 334.619169 152.925619 
L 329.820488 155.873318 
L 321.362544 161.796019 
L 317.916488 163.889908 
L 308.30658 170.666419 
L 306.012488 172.186399 
L 296.002872 179.536819 
L 294.108488 180.932889 
L 284.227893 188.407219 
L 282.204488 189.513306 
L 278.190024 191.709933 
" style="fill:none;stroke:#440154;stroke-width:1.5;"/>
    <path clip-path="url(#p1d066c496b)" d="M 239.021916 209.219783 
L 234.588488 210.794002 
L 227.652327 215.018419 
L 222.684488 216.480823 
L 210.780488 223.313653 
L 209.814772 223.888819 
L 198.876488 227.091385 
L 189.209099 232.759219 
L 186.972488 233.431478 
L 175.068488 237.850287 
L 168.469055 241.629619 
L 163.164488 243.117752 
L 151.260488 248.973738 
L 148.560035 250.500019 
L 139.356488 253.110399 
L 128.260644 259.370419 
L 127.452488 259.607217 
L 115.548488 263.258932 
L 106.210139 268.240819 
L 103.644488 268.950473 
L 91.740488 272.690425 
L 82.211143 277.111219 
" style="fill:none;stroke:#440154;stroke-width:1.5;"/>
   </g>
   <g id="LineCollection_26">
    <path clip-path="url(#p1d066c496b)" d="M 413.148488 117.946151 
L 401.244488 124.653546 
L 398.754913 126.314419 
L 389.340488 131.526107 
L 384.023641 135.184819 
L 377.436488 139.033144 
L 370.268942 144.055219 
L 365.532488 146.889755 
L 357.011489 152.925619 
L 353.628488 154.979806 
L 343.979306 161.796019 
L 341.724488 163.216759 
L 331.235187 170.666419 
L 329.820488 171.610705 
L 318.735135 179.536819 
L 317.916488 180.096181 
L 306.608083 188.407219 
L 306.012488 188.824693 
L 294.452179 197.11651 
" style="fill:none;stroke:#450457;stroke-width:1.5;"/>
    <path clip-path="url(#p1d066c496b)" d="M 251.533936 215.16566 
L 246.492488 216.585293 
L 234.588488 222.944393 
L 233.005907 223.888819 
L 222.684488 226.986814 
L 213.059482 232.759219 
L 210.780488 233.470574 
L 198.876488 238.635529 
L 193.947237 241.629619 
L 186.972488 243.888645 
L 175.871187 250.500019 
L 175.068488 250.765026 
L 163.164488 254.792264 
L 155.246162 259.370419 
L 151.260488 260.603701 
L 139.356488 266.275488 
L 135.940324 268.240819 
L 127.452488 270.909699 
L 116.645069 277.111219 
" style="fill:none;stroke:#450457;stroke-width:1.5;"/>
   </g>
   <g id="LineCollection_27">
    <path clip-path="url(#p1d066c496b)" d="M 413.148488 131.983351 
L 408.422154 135.184819 
L 401.244488 139.272345 
L 394.295975 144.055219 
L 389.340488 146.844758 
L 380.536285 152.925619 
L 377.436488 154.723455 
L 367.284619 161.796019 
L 365.532488 162.869189 
L 354.490733 170.666419 
L 353.628488 171.22911 
L 342.085497 179.536819 
L 341.724488 179.780908 
L 329.891167 188.407219 
L 329.820488 188.459719 
L 317.916488 197.104482 
L 317.679681 197.277619 
L 306.012488 202.177845 
L 304.764111 202.934137 
" style="fill:none;stroke:#482475;stroke-width:1.5;"/>
    <path clip-path="url(#p1d066c496b)" d="M 259.287118 223.978883 
L 258.396488 224.234095 
L 246.492488 228.238806 
L 238.670429 232.759219 
L 234.588488 234.004094 
L 222.684488 239.757531 
L 219.510278 241.629619 
L 210.780488 244.419976 
L 200.549672 250.500019 
L 198.876488 251.049362 
L 186.972488 256.007768 
L 181.418931 259.370419 
L 175.068488 261.563848 
L 164.038279 268.240819 
L 163.164488 268.550643 
L 151.260488 273.023827 
L 144.264637 277.111219 
" style="fill:none;stroke:#482475;stroke-width:1.5;"/>
   </g>
   <g id="LineCollection_28">
    <path clip-path="url(#p1d066c496b)" d="M 413.148488 147.541897 
L 405.233978 152.925619 
L 401.244488 155.160548 
L 391.5821 161.796019 
L 389.340488 163.118812 
L 378.522581 170.666419 
L 377.436488 171.347723 
L 365.899938 179.536819 
L 365.532488 179.779457 
L 353.628488 188.151263 
L 353.274582 188.407219 
L 341.724488 196.485563 
L 340.660533 197.277619 
L 329.820488 203.471573 
L 325.74086 206.148019 
L 318.61857 208.698287 
" style="fill:none;stroke:#fde725;stroke-width:1.5;"/>
    <path clip-path="url(#p1d066c496b)" d="M 269.927994 231.594953 
L 267.864634 232.759219 
L 258.396488 235.613204 
L 247.809405 241.629619 
L 246.492488 242.037187 
L 234.588488 246.39815 
L 227.52055 250.500019 
L 222.684488 252.081241 
L 210.780488 258.488006 
L 209.272739 259.370419 
L 198.876488 262.855547 
L 189.718264 268.240819 
L 186.972488 269.186297 
L 175.068488 274.915056 
L 171.439115 277.111219 
" style="fill:none;stroke:#fde725;stroke-width:1.5;"/>
   </g>
   <g id="line2d_20">
    <path clip-path="url(#p1d066c496b)" d="M 386.231345 49.123884 
L 382.624098 80.209629 
L 378.861413 105.816484 
L 375.430524 123.249283 
L 372.214108 135.078661 
L 369.131121 143.167772 
L 366.128647 148.814599 
L 363.196922 152.757204 
L 360.281015 155.565296 
L 357.386647 157.572822 
L 354.49673 159.032476 
L 351.574571 160.144083 
L 348.610029 161.041422 
L 345.601925 161.780868 
L 342.566301 162.360911 
L 339.529217 162.821739 
L 336.430117 163.220109 
L 333.316078 163.554298 
L 330.189612 163.818508 
L 327.066982 164.000466 
L 323.921474 164.119429 
L 320.761744 164.169006 
L 317.535156 164.177928 
L 314.25238 164.135064 
L 310.917571 164.007853 
L 307.563116 163.833535 
L 304.220519 163.610949 
L 300.840286 163.367027 
L 297.471011 163.073589 
L 294.046609 162.717297 
L 290.611088 162.302809 
L 287.148897 161.828737 
L 283.685623 161.3001 
L 280.198925 160.740252 
L 276.696485 160.12631 
L 273.116322 159.441004 
L 269.486041 158.714297 
L 265.833903 157.913519 
L 262.162219 157.024462 
L 258.516885 156.1344 
L 254.891531 155.236215 
L 251.253538 154.279838 
L 247.581654 153.253392 
L 243.919113 152.218402 
L 240.298739 151.184186 
L 236.576162 150.017891 
L 232.742383 148.706527 
L 229.009487 147.485243 
L 225.422404 146.390869 
L 222.067449 145.415496 
L 221.757164 145.331026 
L 221.463765 145.262954 
L 221.180955 145.206276 
L 220.902282 145.156318 
L 220.626795 145.109272 
L 220.355124 145.062565 
L 220.082122 145.01745 
L 219.807015 144.969479 
L 219.535891 144.919241 
L 219.264425 144.868236 
L 218.994436 144.818379 
L 218.72681 144.769793 
L 218.459167 144.720174 
L 218.191469 144.669585 
L 217.925011 144.620238 
L 217.663739 144.570903 
L 217.404678 144.525368 
L 217.144889 144.480958 
L 216.886392 144.435476 
L 216.628168 144.384833 
L 216.369405 144.332212 
L 216.1131 144.280742 
L 215.862167 144.232131 
L 215.613508 144.189675 
L 215.364632 144.14883 
L 215.339616 144.144788 
L 215.314776 144.140924 
L 215.289702 144.137009 
L 215.264489 144.133315 
L 215.239586 144.12988 
L 215.215222 144.126577 
L 215.191081 144.123017 
L 215.1668 144.119426 
L 215.14231 144.115901 
L 215.11773 144.112456 
L 215.093081 144.109117 
L 215.068741 144.10585 
L 215.044559 144.102307 
L 215.020315 144.098648 
L 214.996022 144.095123 
L 214.971313 144.091456 
L 214.946589 144.08759 
L 214.921812 144.083671 
L 214.897002 144.079877 
L 214.872715 144.075928 
L 214.848173 144.071794 
L 214.823331 144.067522 
L 214.798479 144.063192 
L 214.773317 144.059127 
" style="fill:none;stroke:#1f77b4;stroke-linecap:square;stroke-width:1.5;"/>
    <defs>
     <path d="M 0 1.5 
C 0.397805 1.5 0.77937 1.341951 1.06066 1.06066 
C 1.341951 0.77937 1.5 0.397805 1.5 0 
C 1.5 -0.397805 1.341951 -0.77937 1.06066 -1.06066 
C 0.77937 -1.341951 0.397805 -1.5 0 -1.5 
C -0.397805 -1.5 -0.77937 -1.341951 -1.06066 -1.06066 
C -1.341951 -0.77937 -1.5 -0.397805 -1.5 0 
C -1.5 0.397805 -1.341951 0.77937 -1.06066 1.06066 
C -0.77937 1.341951 -0.397805 1.5 0 1.5 
z
" id="m032fbd463a" style="stroke:#1f77b4;"/>
    </defs>
    <g clip-path="url(#p1d066c496b)">
     <use style="fill:#1f77b4;stroke:#1f77b4;" x="386.231345" xlink:href="#m032fbd463a" y="49.123884"/>
     <use style="fill:#1f77b4;stroke:#1f77b4;" x="382.624098" xlink:href="#m032fbd463a" y="80.209629"/>
     <use style="fill:#1f77b4;stroke:#1f77b4;" x="378.861413" xlink:href="#m032fbd463a" y="105.816484"/>
     <use style="fill:#1f77b4;stroke:#1f77b4;" x="375.430524" xlink:href="#m032fbd463a" y="123.249283"/>
     <use style="fill:#1f77b4;stroke:#1f77b4;" x="372.214108" xlink:href="#m032fbd463a" y="135.078661"/>
     <use style="fill:#1f77b4;stroke:#1f77b4;" x="369.131121" xlink:href="#m032fbd463a" y="143.167772"/>
     <use style="fill:#1f77b4;stroke:#1f77b4;" x="366.128647" xlink:href="#m032fbd463a" y="148.814599"/>
     <use style="fill:#1f77b4;stroke:#1f77b4;" x="363.196922" xlink:href="#m032fbd463a" y="152.757204"/>
     <use style="fill:#1f77b4;stroke:#1f77b4;" x="360.281015" xlink:href="#m032fbd463a" y="155.565296"/>
     <use style="fill:#1f77b4;stroke:#1f77b4;" x="357.386647" xlink:href="#m032fbd463a" y="157.572822"/>
     <use style="fill:#1f77b4;stroke:#1f77b4;" x="354.49673" xlink:href="#m032fbd463a" y="159.032476"/>
     <use style="fill:#1f77b4;stroke:#1f77b4;" x="351.574571" xlink:href="#m032fbd463a" y="160.144083"/>
     <use style="fill:#1f77b4;stroke:#1f77b4;" x="348.610029" xlink:href="#m032fbd463a" y="161.041422"/>
     <use style="fill:#1f77b4;stroke:#1f77b4;" x="345.601925" xlink:href="#m032fbd463a" y="161.780868"/>
     <use style="fill:#1f77b4;stroke:#1f77b4;" x="342.566301" xlink:href="#m032fbd463a" y="162.360911"/>
     <use style="fill:#1f77b4;stroke:#1f77b4;" x="339.529217" xlink:href="#m032fbd463a" y="162.821739"/>
     <use style="fill:#1f77b4;stroke:#1f77b4;" x="336.430117" xlink:href="#m032fbd463a" y="163.220109"/>
     <use style="fill:#1f77b4;stroke:#1f77b4;" x="333.316078" xlink:href="#m032fbd463a" y="163.554298"/>
     <use style="fill:#1f77b4;stroke:#1f77b4;" x="330.189612" xlink:href="#m032fbd463a" y="163.818508"/>
     <use style="fill:#1f77b4;stroke:#1f77b4;" x="327.066982" xlink:href="#m032fbd463a" y="164.000466"/>
     <use style="fill:#1f77b4;stroke:#1f77b4;" x="323.921474" xlink:href="#m032fbd463a" y="164.119429"/>
     <use style="fill:#1f77b4;stroke:#1f77b4;" x="320.761744" xlink:href="#m032fbd463a" y="164.169006"/>
     <use style="fill:#1f77b4;stroke:#1f77b4;" x="317.535156" xlink:href="#m032fbd463a" y="164.177928"/>
     <use style="fill:#1f77b4;stroke:#1f77b4;" x="314.25238" xlink:href="#m032fbd463a" y="164.135064"/>
     <use style="fill:#1f77b4;stroke:#1f77b4;" x="310.917571" xlink:href="#m032fbd463a" y="164.007853"/>
     <use style="fill:#1f77b4;stroke:#1f77b4;" x="307.563116" xlink:href="#m032fbd463a" y="163.833535"/>
     <use style="fill:#1f77b4;stroke:#1f77b4;" x="304.220519" xlink:href="#m032fbd463a" y="163.610949"/>
     <use style="fill:#1f77b4;stroke:#1f77b4;" x="300.840286" xlink:href="#m032fbd463a" y="163.367027"/>
     <use style="fill:#1f77b4;stroke:#1f77b4;" x="297.471011" xlink:href="#m032fbd463a" y="163.073589"/>
     <use style="fill:#1f77b4;stroke:#1f77b4;" x="294.046609" xlink:href="#m032fbd463a" y="162.717297"/>
     <use style="fill:#1f77b4;stroke:#1f77b4;" x="290.611088" xlink:href="#m032fbd463a" y="162.302809"/>
     <use style="fill:#1f77b4;stroke:#1f77b4;" x="287.148897" xlink:href="#m032fbd463a" y="161.828737"/>
     <use style="fill:#1f77b4;stroke:#1f77b4;" x="283.685623" xlink:href="#m032fbd463a" y="161.3001"/>
     <use style="fill:#1f77b4;stroke:#1f77b4;" x="280.198925" xlink:href="#m032fbd463a" y="160.740252"/>
     <use style="fill:#1f77b4;stroke:#1f77b4;" x="276.696485" xlink:href="#m032fbd463a" y="160.12631"/>
     <use style="fill:#1f77b4;stroke:#1f77b4;" x="273.116322" xlink:href="#m032fbd463a" y="159.441004"/>
     <use style="fill:#1f77b4;stroke:#1f77b4;" x="269.486041" xlink:href="#m032fbd463a" y="158.714297"/>
     <use style="fill:#1f77b4;stroke:#1f77b4;" x="265.833903" xlink:href="#m032fbd463a" y="157.913519"/>
     <use style="fill:#1f77b4;stroke:#1f77b4;" x="262.162219" xlink:href="#m032fbd463a" y="157.024462"/>
     <use style="fill:#1f77b4;stroke:#1f77b4;" x="258.516885" xlink:href="#m032fbd463a" y="156.1344"/>
     <use style="fill:#1f77b4;stroke:#1f77b4;" x="254.891531" xlink:href="#m032fbd463a" y="155.236215"/>
     <use style="fill:#1f77b4;stroke:#1f77b4;" x="251.253538" xlink:href="#m032fbd463a" y="154.279838"/>
     <use style="fill:#1f77b4;stroke:#1f77b4;" x="247.581654" xlink:href="#m032fbd463a" y="153.253392"/>
     <use style="fill:#1f77b4;stroke:#1f77b4;" x="243.919113" xlink:href="#m032fbd463a" y="152.218402"/>
     <use style="fill:#1f77b4;stroke:#1f77b4;" x="240.298739" xlink:href="#m032fbd463a" y="151.184186"/>
     <use style="fill:#1f77b4;stroke:#1f77b4;" x="236.576162" xlink:href="#m032fbd463a" y="150.017891"/>
     <use style="fill:#1f77b4;stroke:#1f77b4;" x="232.742383" xlink:href="#m032fbd463a" y="148.706527"/>
     <use style="fill:#1f77b4;stroke:#1f77b4;" x="229.009487" xlink:href="#m032fbd463a" y="147.485243"/>
     <use style="fill:#1f77b4;stroke:#1f77b4;" x="225.422404" xlink:href="#m032fbd463a" y="146.390869"/>
     <use style="fill:#1f77b4;stroke:#1f77b4;" x="222.067449" xlink:href="#m032fbd463a" y="145.415496"/>
     <use style="fill:#1f77b4;stroke:#1f77b4;" x="221.757164" xlink:href="#m032fbd463a" y="145.331026"/>
     <use style="fill:#1f77b4;stroke:#1f77b4;" x="221.463765" xlink:href="#m032fbd463a" y="145.262954"/>
     <use style="fill:#1f77b4;stroke:#1f77b4;" x="221.180955" xlink:href="#m032fbd463a" y="145.206276"/>
     <use style="fill:#1f77b4;stroke:#1f77b4;" x="220.902282" xlink:href="#m032fbd463a" y="145.156318"/>
     <use style="fill:#1f77b4;stroke:#1f77b4;" x="220.626795" xlink:href="#m032fbd463a" y="145.109272"/>
     <use style="fill:#1f77b4;stroke:#1f77b4;" x="220.355124" xlink:href="#m032fbd463a" y="145.062565"/>
     <use style="fill:#1f77b4;stroke:#1f77b4;" x="220.082122" xlink:href="#m032fbd463a" y="145.01745"/>
     <use style="fill:#1f77b4;stroke:#1f77b4;" x="219.807015" xlink:href="#m032fbd463a" y="144.969479"/>
     <use style="fill:#1f77b4;stroke:#1f77b4;" x="219.535891" xlink:href="#m032fbd463a" y="144.919241"/>
     <use style="fill:#1f77b4;stroke:#1f77b4;" x="219.264425" xlink:href="#m032fbd463a" y="144.868236"/>
     <use style="fill:#1f77b4;stroke:#1f77b4;" x="218.994436" xlink:href="#m032fbd463a" y="144.818379"/>
     <use style="fill:#1f77b4;stroke:#1f77b4;" x="218.72681" xlink:href="#m032fbd463a" y="144.769793"/>
     <use style="fill:#1f77b4;stroke:#1f77b4;" x="218.459167" xlink:href="#m032fbd463a" y="144.720174"/>
     <use style="fill:#1f77b4;stroke:#1f77b4;" x="218.191469" xlink:href="#m032fbd463a" y="144.669585"/>
     <use style="fill:#1f77b4;stroke:#1f77b4;" x="217.925011" xlink:href="#m032fbd463a" y="144.620238"/>
     <use style="fill:#1f77b4;stroke:#1f77b4;" x="217.663739" xlink:href="#m032fbd463a" y="144.570903"/>
     <use style="fill:#1f77b4;stroke:#1f77b4;" x="217.404678" xlink:href="#m032fbd463a" y="144.525368"/>
     <use style="fill:#1f77b4;stroke:#1f77b4;" x="217.144889" xlink:href="#m032fbd463a" y="144.480958"/>
     <use style="fill:#1f77b4;stroke:#1f77b4;" x="216.886392" xlink:href="#m032fbd463a" y="144.435476"/>
     <use style="fill:#1f77b4;stroke:#1f77b4;" x="216.628168" xlink:href="#m032fbd463a" y="144.384833"/>
     <use style="fill:#1f77b4;stroke:#1f77b4;" x="216.369405" xlink:href="#m032fbd463a" y="144.332212"/>
     <use style="fill:#1f77b4;stroke:#1f77b4;" x="216.1131" xlink:href="#m032fbd463a" y="144.280742"/>
     <use style="fill:#1f77b4;stroke:#1f77b4;" x="215.862167" xlink:href="#m032fbd463a" y="144.232131"/>
     <use style="fill:#1f77b4;stroke:#1f77b4;" x="215.613508" xlink:href="#m032fbd463a" y="144.189675"/>
     <use style="fill:#1f77b4;stroke:#1f77b4;" x="215.364632" xlink:href="#m032fbd463a" y="144.14883"/>
     <use style="fill:#1f77b4;stroke:#1f77b4;" x="215.339616" xlink:href="#m032fbd463a" y="144.144788"/>
     <use style="fill:#1f77b4;stroke:#1f77b4;" x="215.314776" xlink:href="#m032fbd463a" y="144.140924"/>
     <use style="fill:#1f77b4;stroke:#1f77b4;" x="215.289702" xlink:href="#m032fbd463a" y="144.137009"/>
     <use style="fill:#1f77b4;stroke:#1f77b4;" x="215.264489" xlink:href="#m032fbd463a" y="144.133315"/>
     <use style="fill:#1f77b4;stroke:#1f77b4;" x="215.239586" xlink:href="#m032fbd463a" y="144.12988"/>
     <use style="fill:#1f77b4;stroke:#1f77b4;" x="215.215222" xlink:href="#m032fbd463a" y="144.126577"/>
     <use style="fill:#1f77b4;stroke:#1f77b4;" x="215.191081" xlink:href="#m032fbd463a" y="144.123017"/>
     <use style="fill:#1f77b4;stroke:#1f77b4;" x="215.1668" xlink:href="#m032fbd463a" y="144.119426"/>
     <use style="fill:#1f77b4;stroke:#1f77b4;" x="215.14231" xlink:href="#m032fbd463a" y="144.115901"/>
     <use style="fill:#1f77b4;stroke:#1f77b4;" x="215.11773" xlink:href="#m032fbd463a" y="144.112456"/>
     <use style="fill:#1f77b4;stroke:#1f77b4;" x="215.093081" xlink:href="#m032fbd463a" y="144.109117"/>
     <use style="fill:#1f77b4;stroke:#1f77b4;" x="215.068741" xlink:href="#m032fbd463a" y="144.10585"/>
     <use style="fill:#1f77b4;stroke:#1f77b4;" x="215.044559" xlink:href="#m032fbd463a" y="144.102307"/>
     <use style="fill:#1f77b4;stroke:#1f77b4;" x="215.020315" xlink:href="#m032fbd463a" y="144.098648"/>
     <use style="fill:#1f77b4;stroke:#1f77b4;" x="214.996022" xlink:href="#m032fbd463a" y="144.095123"/>
     <use style="fill:#1f77b4;stroke:#1f77b4;" x="214.971313" xlink:href="#m032fbd463a" y="144.091456"/>
     <use style="fill:#1f77b4;stroke:#1f77b4;" x="214.946589" xlink:href="#m032fbd463a" y="144.08759"/>
     <use style="fill:#1f77b4;stroke:#1f77b4;" x="214.921812" xlink:href="#m032fbd463a" y="144.083671"/>
     <use style="fill:#1f77b4;stroke:#1f77b4;" x="214.897002" xlink:href="#m032fbd463a" y="144.079877"/>
     <use style="fill:#1f77b4;stroke:#1f77b4;" x="214.872715" xlink:href="#m032fbd463a" y="144.075928"/>
     <use style="fill:#1f77b4;stroke:#1f77b4;" x="214.848173" xlink:href="#m032fbd463a" y="144.071794"/>
     <use style="fill:#1f77b4;stroke:#1f77b4;" x="214.823331" xlink:href="#m032fbd463a" y="144.067522"/>
     <use style="fill:#1f77b4;stroke:#1f77b4;" x="214.798479" xlink:href="#m032fbd463a" y="144.063192"/>
     <use style="fill:#1f77b4;stroke:#1f77b4;" x="214.773317" xlink:href="#m032fbd463a" y="144.059127"/>
    </g>
   </g>
   <g id="patch_3">
    <path d="M 56.028488 277.111219 
L 56.028488 10.999219 
" style="fill:none;stroke:#000000;stroke-linecap:square;stroke-linejoin:miter;stroke-width:0.8;"/>
   </g>
   <g id="patch_4">
    <path d="M 413.148488 277.111219 
L 413.148488 10.999219 
" style="fill:none;stroke:#000000;stroke-linecap:square;stroke-linejoin:miter;stroke-width:0.8;"/>
   </g>
   <g id="patch_5">
    <path d="M 56.028488 277.111219 
L 413.148488 277.111219 
" style="fill:none;stroke:#000000;stroke-linecap:square;stroke-linejoin:miter;stroke-width:0.8;"/>
   </g>
   <g id="patch_6">
    <path d="M 56.028488 10.999219 
L 413.148488 10.999219 
" style="fill:none;stroke:#000000;stroke-linecap:square;stroke-linejoin:miter;stroke-width:0.8;"/>
   </g>
   <g id="text_22">
    <g clip-path="url(#p1d066c496b)">
     <!-- 1.500 -->
     <g style="fill:#453781;" transform="translate(249.816508 106.660256)rotate(-0.288923)scale(0.06 -0.06)">
      <use xlink:href="#DejaVuSans-49"/>
      <use x="63.623047" xlink:href="#DejaVuSans-46"/>
      <use x="95.410156" xlink:href="#DejaVuSans-53"/>
      <use x="159.033203" xlink:href="#DejaVuSans-48"/>
      <use x="222.65625" xlink:href="#DejaVuSans-48"/>
     </g>
    </g>
   </g>
   <g id="text_23">
    <g clip-path="url(#p1d066c496b)">
     <!-- 2.000 -->
     <g style="fill:#404688;" transform="translate(154.281168 124.072045)rotate(-38.358163)scale(0.06 -0.06)">
      <use xlink:href="#DejaVuSans-50"/>
      <use x="63.623047" xlink:href="#DejaVuSans-46"/>
      <use x="95.410156" xlink:href="#DejaVuSans-48"/>
      <use x="159.033203" xlink:href="#DejaVuSans-48"/>
      <use x="222.65625" xlink:href="#DejaVuSans-48"/>
     </g>
    </g>
   </g>
   <g id="text_24">
    <g clip-path="url(#p1d066c496b)">
     <!-- 2.500 -->
     <g style="fill:#39558c;" transform="translate(102.011593 116.878169)rotate(-60.795836)scale(0.06 -0.06)">
      <use xlink:href="#DejaVuSans-50"/>
      <use x="63.623047" xlink:href="#DejaVuSans-46"/>
      <use x="95.410156" xlink:href="#DejaVuSans-53"/>
      <use x="159.033203" xlink:href="#DejaVuSans-48"/>
      <use x="222.65625" xlink:href="#DejaVuSans-48"/>
     </g>
    </g>
   </g>
   <g id="text_25">
    <g clip-path="url(#p1d066c496b)">
     <!-- 3.000 -->
     <g style="fill:#33638d;" transform="translate(240.345672 151.539515)rotate(-34.43912)scale(0.06 -0.06)">
      <defs>
       <path d="M 40.578125 39.3125 
Q 47.65625 37.796875 51.625 33 
Q 55.609375 28.21875 55.609375 21.1875 
Q 55.609375 10.40625 48.1875 4.484375 
Q 40.765625 -1.421875 27.09375 -1.421875 
Q 22.515625 -1.421875 17.65625 -0.515625 
Q 12.796875 0.390625 7.625 2.203125 
L 7.625 11.71875 
Q 11.71875 9.328125 16.59375 8.109375 
Q 21.484375 6.890625 26.8125 6.890625 
Q 36.078125 6.890625 40.9375 10.546875 
Q 45.796875 14.203125 45.796875 21.1875 
Q 45.796875 27.640625 41.28125 31.265625 
Q 36.765625 34.90625 28.71875 34.90625 
L 20.21875 34.90625 
L 20.21875 43.015625 
L 29.109375 43.015625 
Q 36.375 43.015625 40.234375 45.921875 
Q 44.09375 48.828125 44.09375 54.296875 
Q 44.09375 59.90625 40.109375 62.90625 
Q 36.140625 65.921875 28.71875 65.921875 
Q 24.65625 65.921875 20.015625 65.03125 
Q 15.375 64.15625 9.8125 62.3125 
L 9.8125 71.09375 
Q 15.4375 72.65625 20.34375 73.4375 
Q 25.25 74.21875 29.59375 74.21875 
Q 40.828125 74.21875 47.359375 69.109375 
Q 53.90625 64.015625 53.90625 55.328125 
Q 53.90625 49.265625 50.4375 45.09375 
Q 46.96875 40.921875 40.578125 39.3125 
z
" id="DejaVuSans-51"/>
      </defs>
      <use xlink:href="#DejaVuSans-51"/>
      <use x="63.623047" xlink:href="#DejaVuSans-46"/>
      <use x="95.410156" xlink:href="#DejaVuSans-48"/>
      <use x="159.033203" xlink:href="#DejaVuSans-48"/>
      <use x="222.65625" xlink:href="#DejaVuSans-48"/>
     </g>
    </g>
   </g>
   <g id="text_26">
    <g clip-path="url(#p1d066c496b)">
     <!-- 3.500 -->
     <g style="fill:#2d718e;" transform="translate(214.474705 166.956935)rotate(-25.249341)scale(0.06 -0.06)">
      <use xlink:href="#DejaVuSans-51"/>
      <use x="63.623047" xlink:href="#DejaVuSans-46"/>
      <use x="95.410156" xlink:href="#DejaVuSans-53"/>
      <use x="159.033203" xlink:href="#DejaVuSans-48"/>
      <use x="222.65625" xlink:href="#DejaVuSans-48"/>
     </g>
    </g>
   </g>
   <g id="text_27">
    <g clip-path="url(#p1d066c496b)">
     <!-- 4.000 -->
     <g style="fill:#287d8e;" transform="translate(309.246037 21.272456)rotate(-341.524566)scale(0.06 -0.06)">
      <defs>
       <path d="M 37.796875 64.3125 
L 12.890625 25.390625 
L 37.796875 25.390625 
z
M 35.203125 72.90625 
L 47.609375 72.90625 
L 47.609375 25.390625 
L 58.015625 25.390625 
L 58.015625 17.1875 
L 47.609375 17.1875 
L 47.609375 0 
L 37.796875 0 
L 37.796875 17.1875 
L 4.890625 17.1875 
L 4.890625 26.703125 
z
" id="DejaVuSans-52"/>
      </defs>
      <use xlink:href="#DejaVuSans-52"/>
      <use x="63.623047" xlink:href="#DejaVuSans-46"/>
      <use x="95.410156" xlink:href="#DejaVuSans-48"/>
      <use x="159.033203" xlink:href="#DejaVuSans-48"/>
      <use x="222.65625" xlink:href="#DejaVuSans-48"/>
     </g>
    </g>
   </g>
   <g id="text_28">
    <g clip-path="url(#p1d066c496b)">
     <!-- 4.500 -->
     <g style="fill:#238a8d;" transform="translate(191.868052 178.614844)rotate(-25.836325)scale(0.06 -0.06)">
      <use xlink:href="#DejaVuSans-52"/>
      <use x="63.623047" xlink:href="#DejaVuSans-46"/>
      <use x="95.410156" xlink:href="#DejaVuSans-53"/>
      <use x="159.033203" xlink:href="#DejaVuSans-48"/>
      <use x="222.65625" xlink:href="#DejaVuSans-48"/>
     </g>
    </g>
   </g>
   <g id="text_29">
    <g clip-path="url(#p1d066c496b)">
     <!-- 5.000 -->
     <g style="fill:#1f968b;" transform="translate(356.027937 64.096223)rotate(-80.170156)scale(0.06 -0.06)">
      <use xlink:href="#DejaVuSans-53"/>
      <use x="63.623047" xlink:href="#DejaVuSans-46"/>
      <use x="95.410156" xlink:href="#DejaVuSans-48"/>
      <use x="159.033203" xlink:href="#DejaVuSans-48"/>
      <use x="222.65625" xlink:href="#DejaVuSans-48"/>
     </g>
    </g>
   </g>
   <g id="text_30">
    <g clip-path="url(#p1d066c496b)">
     <!-- 5.500 -->
     <g style="fill:#20a386;" transform="translate(167.949947 193.292187)rotate(-24.613221)scale(0.06 -0.06)">
      <use xlink:href="#DejaVuSans-53"/>
      <use x="63.623047" xlink:href="#DejaVuSans-46"/>
      <use x="95.410156" xlink:href="#DejaVuSans-53"/>
      <use x="159.033203" xlink:href="#DejaVuSans-48"/>
      <use x="222.65625" xlink:href="#DejaVuSans-48"/>
     </g>
    </g>
   </g>
   <g id="text_31">
    <g clip-path="url(#p1d066c496b)">
     <!-- 6.000 -->
     <g style="fill:#29af7f;" transform="translate(329.584231 97.613218)rotate(-39.912557)scale(0.06 -0.06)">
      <use xlink:href="#DejaVuSans-54"/>
      <use x="63.623047" xlink:href="#DejaVuSans-46"/>
      <use x="95.410156" xlink:href="#DejaVuSans-48"/>
      <use x="159.033203" xlink:href="#DejaVuSans-48"/>
      <use x="222.65625" xlink:href="#DejaVuSans-48"/>
     </g>
    </g>
   </g>
   <g id="text_32">
    <g clip-path="url(#p1d066c496b)">
     <!-- 6.500 -->
     <g style="fill:#3dbc74;" transform="translate(168.031391 194.09933)rotate(-25.521364)scale(0.06 -0.06)">
      <use xlink:href="#DejaVuSans-54"/>
      <use x="63.623047" xlink:href="#DejaVuSans-46"/>
      <use x="95.410156" xlink:href="#DejaVuSans-53"/>
      <use x="159.033203" xlink:href="#DejaVuSans-48"/>
      <use x="222.65625" xlink:href="#DejaVuSans-48"/>
     </g>
    </g>
   </g>
   <g id="text_33">
    <g clip-path="url(#p1d066c496b)">
     <!-- 7.000 -->
     <g style="fill:#56c667;" transform="translate(179.996636 187.737652)rotate(-26.191612)scale(0.06 -0.06)">
      <defs>
       <path d="M 8.203125 72.90625 
L 55.078125 72.90625 
L 55.078125 68.703125 
L 28.609375 0 
L 18.3125 0 
L 43.21875 64.59375 
L 8.203125 64.59375 
z
" id="DejaVuSans-55"/>
      </defs>
      <use xlink:href="#DejaVuSans-55"/>
      <use x="63.623047" xlink:href="#DejaVuSans-46"/>
      <use x="95.410156" xlink:href="#DejaVuSans-48"/>
      <use x="159.033203" xlink:href="#DejaVuSans-48"/>
      <use x="222.65625" xlink:href="#DejaVuSans-48"/>
     </g>
    </g>
   </g>
   <g id="text_34">
    <g clip-path="url(#p1d066c496b)">
     <!-- 7.500 -->
     <g style="fill:#75d054;" transform="translate(171.077676 193.833467)rotate(-27.433084)scale(0.06 -0.06)">
      <use xlink:href="#DejaVuSans-55"/>
      <use x="63.623047" xlink:href="#DejaVuSans-46"/>
      <use x="95.410156" xlink:href="#DejaVuSans-53"/>
      <use x="159.033203" xlink:href="#DejaVuSans-48"/>
      <use x="222.65625" xlink:href="#DejaVuSans-48"/>
     </g>
    </g>
   </g>
   <g id="text_35">
    <g clip-path="url(#p1d066c496b)">
     <!-- 8.000 -->
     <g style="fill:#95d840;" transform="translate(171.848637 193.867102)rotate(-27.714561)scale(0.06 -0.06)">
      <use xlink:href="#DejaVuSans-56"/>
      <use x="63.623047" xlink:href="#DejaVuSans-46"/>
      <use x="95.410156" xlink:href="#DejaVuSans-48"/>
      <use x="159.033203" xlink:href="#DejaVuSans-48"/>
      <use x="222.65625" xlink:href="#DejaVuSans-48"/>
     </g>
    </g>
   </g>
   <g id="text_36">
    <g clip-path="url(#p1d066c496b)">
     <!-- 8.500 -->
     <g style="fill:#bade28;" transform="translate(172.593098 193.867403)rotate(-27.717084)scale(0.06 -0.06)">
      <use xlink:href="#DejaVuSans-56"/>
      <use x="63.623047" xlink:href="#DejaVuSans-46"/>
      <use x="95.410156" xlink:href="#DejaVuSans-53"/>
      <use x="159.033203" xlink:href="#DejaVuSans-48"/>
      <use x="222.65625" xlink:href="#DejaVuSans-48"/>
     </g>
    </g>
   </g>
   <g id="text_37">
    <g clip-path="url(#p1d066c496b)">
     <!-- 9.000 -->
     <g style="fill:#dde318;" transform="translate(173.282538 193.798136)rotate(-27.138584)scale(0.06 -0.06)">
      <use xlink:href="#DejaVuSans-57"/>
      <use x="63.623047" xlink:href="#DejaVuSans-46"/>
      <use x="95.410156" xlink:href="#DejaVuSans-48"/>
      <use x="159.033203" xlink:href="#DejaVuSans-48"/>
      <use x="222.65625" xlink:href="#DejaVuSans-48"/>
     </g>
    </g>
   </g>
   <g id="text_38">
    <g clip-path="url(#p1d066c496b)">
     <!-- 9.500 -->
     <g style="fill:#fde725;" transform="translate(173.948662 193.696839)rotate(-26.300702)scale(0.06 -0.06)">
      <use xlink:href="#DejaVuSans-57"/>
      <use x="63.623047" xlink:href="#DejaVuSans-46"/>
      <use x="95.410156" xlink:href="#DejaVuSans-53"/>
      <use x="159.033203" xlink:href="#DejaVuSans-48"/>
      <use x="222.65625" xlink:href="#DejaVuSans-48"/>
     </g>
    </g>
   </g>
   <g id="text_39">
    <g clip-path="url(#p1d066c496b)">
     <!-- 10.000 -->
     <g style="fill:#440154;" transform="translate(322.556828 106.935791)rotate(-33.926692)scale(0.06 -0.06)">
      <use xlink:href="#DejaVuSans-49"/>
      <use x="63.623047" xlink:href="#DejaVuSans-48"/>
      <use x="127.246094" xlink:href="#DejaVuSans-46"/>
      <use x="159.033203" xlink:href="#DejaVuSans-48"/>
      <use x="222.65625" xlink:href="#DejaVuSans-48"/>
      <use x="286.279297" xlink:href="#DejaVuSans-48"/>
     </g>
    </g>
   </g>
   <g id="text_40">
    <g clip-path="url(#p1d066c496b)">
     <!-- 100.000 -->
     <g style="fill:#440154;" transform="translate(80.318186 237.18863)rotate(-16.528386)scale(0.06 -0.06)">
      <use xlink:href="#DejaVuSans-49"/>
      <use x="63.623047" xlink:href="#DejaVuSans-48"/>
      <use x="127.246094" xlink:href="#DejaVuSans-48"/>
      <use x="190.869141" xlink:href="#DejaVuSans-46"/>
      <use x="222.65625" xlink:href="#DejaVuSans-48"/>
      <use x="286.279297" xlink:href="#DejaVuSans-48"/>
      <use x="349.902344" xlink:href="#DejaVuSans-48"/>
     </g>
    </g>
   </g>
   <g id="text_41">
    <g clip-path="url(#p1d066c496b)">
     <!-- 1000.000 -->
     <g style="fill:#440154;" transform="translate(283.072917 161.247691)rotate(-33.422423)scale(0.06 -0.06)">
      <use xlink:href="#DejaVuSans-49"/>
      <use x="63.623047" xlink:href="#DejaVuSans-48"/>
      <use x="127.246094" xlink:href="#DejaVuSans-48"/>
      <use x="190.869141" xlink:href="#DejaVuSans-48"/>
      <use x="254.492188" xlink:href="#DejaVuSans-46"/>
      <use x="286.279297" xlink:href="#DejaVuSans-48"/>
      <use x="349.902344" xlink:href="#DejaVuSans-48"/>
      <use x="413.525391" xlink:href="#DejaVuSans-48"/>
     </g>
    </g>
   </g>
   <g id="text_42">
    <g clip-path="url(#p1d066c496b)">
     <!-- 10000.000 -->
     <g style="fill:#440154;" transform="translate(257.714063 193.826404)rotate(-33.656461)scale(0.06 -0.06)">
      <use xlink:href="#DejaVuSans-49"/>
      <use x="63.623047" xlink:href="#DejaVuSans-48"/>
      <use x="127.246094" xlink:href="#DejaVuSans-48"/>
      <use x="190.869141" xlink:href="#DejaVuSans-48"/>
      <use x="254.492188" xlink:href="#DejaVuSans-48"/>
      <use x="318.115234" xlink:href="#DejaVuSans-46"/>
      <use x="349.902344" xlink:href="#DejaVuSans-48"/>
      <use x="413.525391" xlink:href="#DejaVuSans-48"/>
      <use x="477.148438" xlink:href="#DejaVuSans-48"/>
     </g>
    </g>
   </g>
   <g id="text_43">
    <g clip-path="url(#p1d066c496b)">
     <!-- 100000.000 -->
     <g style="fill:#440154;" transform="translate(242.517816 208.846731)rotate(-24.080498)scale(0.06 -0.06)">
      <use xlink:href="#DejaVuSans-49"/>
      <use x="63.623047" xlink:href="#DejaVuSans-48"/>
      <use x="127.246094" xlink:href="#DejaVuSans-48"/>
      <use x="190.869141" xlink:href="#DejaVuSans-48"/>
      <use x="254.492188" xlink:href="#DejaVuSans-48"/>
      <use x="318.115234" xlink:href="#DejaVuSans-48"/>
      <use x="381.738281" xlink:href="#DejaVuSans-46"/>
      <use x="413.525391" xlink:href="#DejaVuSans-48"/>
      <use x="477.148438" xlink:href="#DejaVuSans-48"/>
      <use x="540.771484" xlink:href="#DejaVuSans-48"/>
     </g>
    </g>
   </g>
   <g id="text_44">
    <g clip-path="url(#p1d066c496b)">
     <!-- 1000000.000 -->
     <g style="fill:#450457;" transform="translate(255.17216 215.417596)rotate(-22.726585)scale(0.06 -0.06)">
      <use xlink:href="#DejaVuSans-49"/>
      <use x="63.623047" xlink:href="#DejaVuSans-48"/>
      <use x="127.246094" xlink:href="#DejaVuSans-48"/>
      <use x="190.869141" xlink:href="#DejaVuSans-48"/>
      <use x="254.492188" xlink:href="#DejaVuSans-48"/>
      <use x="318.115234" xlink:href="#DejaVuSans-48"/>
      <use x="381.738281" xlink:href="#DejaVuSans-48"/>
      <use x="445.361328" xlink:href="#DejaVuSans-46"/>
      <use x="477.148438" xlink:href="#DejaVuSans-48"/>
      <use x="540.771484" xlink:href="#DejaVuSans-48"/>
      <use x="604.394531" xlink:href="#DejaVuSans-48"/>
     </g>
    </g>
   </g>
   <g id="text_45">
    <g clip-path="url(#p1d066c496b)">
     <!-- 10000000.000 -->
     <g style="fill:#482475;" transform="translate(262.828269 224.370732)rotate(-24.013254)scale(0.06 -0.06)">
      <use xlink:href="#DejaVuSans-49"/>
      <use x="63.623047" xlink:href="#DejaVuSans-48"/>
      <use x="127.246094" xlink:href="#DejaVuSans-48"/>
      <use x="190.869141" xlink:href="#DejaVuSans-48"/>
      <use x="254.492188" xlink:href="#DejaVuSans-48"/>
      <use x="318.115234" xlink:href="#DejaVuSans-48"/>
      <use x="381.738281" xlink:href="#DejaVuSans-48"/>
      <use x="445.361328" xlink:href="#DejaVuSans-48"/>
      <use x="508.984375" xlink:href="#DejaVuSans-46"/>
      <use x="540.771484" xlink:href="#DejaVuSans-48"/>
      <use x="604.394531" xlink:href="#DejaVuSans-48"/>
      <use x="668.017578" xlink:href="#DejaVuSans-48"/>
     </g>
    </g>
   </g>
   <g id="text_46">
    <g clip-path="url(#p1d066c496b)">
     <!-- 100000000.000 -->
     <g style="fill:#fde725;" transform="translate(273.152858 231.282069)rotate(-24.840132)scale(0.06 -0.06)">
      <use xlink:href="#DejaVuSans-49"/>
      <use x="63.623047" xlink:href="#DejaVuSans-48"/>
      <use x="127.246094" xlink:href="#DejaVuSans-48"/>
      <use x="190.869141" xlink:href="#DejaVuSans-48"/>
      <use x="254.492188" xlink:href="#DejaVuSans-48"/>
      <use x="318.115234" xlink:href="#DejaVuSans-48"/>
      <use x="381.738281" xlink:href="#DejaVuSans-48"/>
      <use x="445.361328" xlink:href="#DejaVuSans-48"/>
      <use x="508.984375" xlink:href="#DejaVuSans-48"/>
      <use x="572.607422" xlink:href="#DejaVuSans-46"/>
      <use x="604.394531" xlink:href="#DejaVuSans-48"/>
      <use x="668.017578" xlink:href="#DejaVuSans-48"/>
      <use x="731.640625" xlink:href="#DejaVuSans-48"/>
     </g>
    </g>
   </g>
  </g>
 </g>
 <defs>
  <clipPath id="p1d066c496b">
   <rect height="266.112" width="357.12" x="56.028488" y="10.999219"/>
  </clipPath>
 </defs>
</svg>
