<?xml version="1.0" encoding="utf-8" standalone="no"?>
<!DOCTYPE svg PUBLIC "-//W3C//DTD SVG 1.1//EN"
  "http://www.w3.org/Graphics/SVG/1.1/DTD/svg11.dtd">
<!-- Created with matplotlib (https://matplotlib.org/) -->
<svg height="321.713144pt" version="1.1" viewBox="0 0 420.348487 321.713144" width="420.348487pt" xmlns="http://www.w3.org/2000/svg" xmlns:xlink="http://www.w3.org/1999/xlink">
 <metadata>
  <rdf:RDF xmlns:cc="http://creativecommons.org/ns#" xmlns:dc="http://purl.org/dc/elements/1.1/" xmlns:rdf="http://www.w3.org/1999/02/22-rdf-syntax-ns#">
   <cc:Work>
    <dc:type rdf:resource="http://purl.org/dc/dcmitype/StillImage"/>
    <dc:date>2021-09-21T16:28:57.317536</dc:date>
    <dc:format>image/svg+xml</dc:format>
    <dc:creator>
     <cc:Agent>
      <dc:title>Matplotlib v3.3.1, https://matplotlib.org/</dc:title>
     </cc:Agent>
    </dc:creator>
   </cc:Work>
  </rdf:RDF>
 </metadata>
 <defs>
  <style type="text/css">*{stroke-linecap:butt;stroke-linejoin:round;}</style>
 </defs>
 <g id="figure_1">
  <g id="patch_1">
   <path d="M 0 321.713144 
L 420.348487 321.713144 
L 420.348487 0 
L 0 0 
z
" style="fill:#ffffff;"/>
  </g>
  <g id="axes_1">
   <g id="patch_2">
    <path d="M 56.028488 277.111219 
L 413.148488 277.111219 
L 413.148488 10.999219 
L 56.028488 10.999219 
z
" style="fill:#ffffff;"/>
   </g>
   <g id="matplotlib.axis_1">
    <g id="xtick_1">
     <g id="line2d_1">
      <defs>
       <path d="M 0 0 
L 0 3.5 
" id="m935d2e4fba" style="stroke:#000000;stroke-width:0.8;"/>
      </defs>
      <g>
       <use style="stroke:#000000;stroke-width:0.8;" x="56.028488" xlink:href="#m935d2e4fba" y="277.111219"/>
      </g>
     </g>
     <g id="text_1">
      <!-- −20 -->
      <g transform="translate(45.476144 291.709656)scale(0.1 -0.1)">
       <defs>
        <path d="M 10.59375 35.5 
L 73.1875 35.5 
L 73.1875 27.203125 
L 10.59375 27.203125 
z
" id="DejaVuSans-8722"/>
        <path d="M 19.1875 8.296875 
L 53.609375 8.296875 
L 53.609375 0 
L 7.328125 0 
L 7.328125 8.296875 
Q 12.9375 14.109375 22.625 23.890625 
Q 32.328125 33.6875 34.8125 36.53125 
Q 39.546875 41.84375 41.421875 45.53125 
Q 43.3125 49.21875 43.3125 52.78125 
Q 43.3125 58.59375 39.234375 62.25 
Q 35.15625 65.921875 28.609375 65.921875 
Q 23.96875 65.921875 18.8125 64.3125 
Q 13.671875 62.703125 7.8125 59.421875 
L 7.8125 69.390625 
Q 13.765625 71.78125 18.9375 73 
Q 24.125 74.21875 28.421875 74.21875 
Q 39.75 74.21875 46.484375 68.546875 
Q 53.21875 62.890625 53.21875 53.421875 
Q 53.21875 48.921875 51.53125 44.890625 
Q 49.859375 40.875 45.40625 35.40625 
Q 44.1875 33.984375 37.640625 27.21875 
Q 31.109375 20.453125 19.1875 8.296875 
z
" id="DejaVuSans-50"/>
        <path d="M 31.78125 66.40625 
Q 24.171875 66.40625 20.328125 58.90625 
Q 16.5 51.421875 16.5 36.375 
Q 16.5 21.390625 20.328125 13.890625 
Q 24.171875 6.390625 31.78125 6.390625 
Q 39.453125 6.390625 43.28125 13.890625 
Q 47.125 21.390625 47.125 36.375 
Q 47.125 51.421875 43.28125 58.90625 
Q 39.453125 66.40625 31.78125 66.40625 
z
M 31.78125 74.21875 
Q 44.046875 74.21875 50.515625 64.515625 
Q 56.984375 54.828125 56.984375 36.375 
Q 56.984375 17.96875 50.515625 8.265625 
Q 44.046875 -1.421875 31.78125 -1.421875 
Q 19.53125 -1.421875 13.0625 8.265625 
Q 6.59375 17.96875 6.59375 36.375 
Q 6.59375 54.828125 13.0625 64.515625 
Q 19.53125 74.21875 31.78125 74.21875 
z
" id="DejaVuSans-48"/>
       </defs>
       <use xlink:href="#DejaVuSans-8722"/>
       <use x="83.789062" xlink:href="#DejaVuSans-50"/>
       <use x="147.412109" xlink:href="#DejaVuSans-48"/>
      </g>
     </g>
    </g>
    <g id="xtick_2">
     <g id="line2d_2">
      <g>
       <use style="stroke:#000000;stroke-width:0.8;" x="125.983596" xlink:href="#m935d2e4fba" y="277.111219"/>
      </g>
     </g>
     <g id="text_2">
      <!-- 0 -->
      <g transform="translate(122.802346 291.709656)scale(0.1 -0.1)">
       <use xlink:href="#DejaVuSans-48"/>
      </g>
     </g>
    </g>
    <g id="xtick_3">
     <g id="line2d_3">
      <g>
       <use style="stroke:#000000;stroke-width:0.8;" x="195.938705" xlink:href="#m935d2e4fba" y="277.111219"/>
      </g>
     </g>
     <g id="text_3">
      <!-- 20 -->
      <g transform="translate(189.576205 291.709656)scale(0.1 -0.1)">
       <use xlink:href="#DejaVuSans-50"/>
       <use x="63.623047" xlink:href="#DejaVuSans-48"/>
      </g>
     </g>
    </g>
    <g id="xtick_4">
     <g id="line2d_4">
      <g>
       <use style="stroke:#000000;stroke-width:0.8;" x="265.893814" xlink:href="#m935d2e4fba" y="277.111219"/>
      </g>
     </g>
     <g id="text_4">
      <!-- 40 -->
      <g transform="translate(259.531314 291.709656)scale(0.1 -0.1)">
       <defs>
        <path d="M 37.796875 64.3125 
L 12.890625 25.390625 
L 37.796875 25.390625 
z
M 35.203125 72.90625 
L 47.609375 72.90625 
L 47.609375 25.390625 
L 58.015625 25.390625 
L 58.015625 17.1875 
L 47.609375 17.1875 
L 47.609375 0 
L 37.796875 0 
L 37.796875 17.1875 
L 4.890625 17.1875 
L 4.890625 26.703125 
z
" id="DejaVuSans-52"/>
       </defs>
       <use xlink:href="#DejaVuSans-52"/>
       <use x="63.623047" xlink:href="#DejaVuSans-48"/>
      </g>
     </g>
    </g>
    <g id="xtick_5">
     <g id="line2d_5">
      <g>
       <use style="stroke:#000000;stroke-width:0.8;" x="335.848922" xlink:href="#m935d2e4fba" y="277.111219"/>
      </g>
     </g>
     <g id="text_5">
      <!-- 60 -->
      <g transform="translate(329.486422 291.709656)scale(0.1 -0.1)">
       <defs>
        <path d="M 33.015625 40.375 
Q 26.375 40.375 22.484375 35.828125 
Q 18.609375 31.296875 18.609375 23.390625 
Q 18.609375 15.53125 22.484375 10.953125 
Q 26.375 6.390625 33.015625 6.390625 
Q 39.65625 6.390625 43.53125 10.953125 
Q 47.40625 15.53125 47.40625 23.390625 
Q 47.40625 31.296875 43.53125 35.828125 
Q 39.65625 40.375 33.015625 40.375 
z
M 52.59375 71.296875 
L 52.59375 62.3125 
Q 48.875 64.0625 45.09375 64.984375 
Q 41.3125 65.921875 37.59375 65.921875 
Q 27.828125 65.921875 22.671875 59.328125 
Q 17.53125 52.734375 16.796875 39.40625 
Q 19.671875 43.65625 24.015625 45.921875 
Q 28.375 48.1875 33.59375 48.1875 
Q 44.578125 48.1875 50.953125 41.515625 
Q 57.328125 34.859375 57.328125 23.390625 
Q 57.328125 12.15625 50.6875 5.359375 
Q 44.046875 -1.421875 33.015625 -1.421875 
Q 20.359375 -1.421875 13.671875 8.265625 
Q 6.984375 17.96875 6.984375 36.375 
Q 6.984375 53.65625 15.1875 63.9375 
Q 23.390625 74.21875 37.203125 74.21875 
Q 40.921875 74.21875 44.703125 73.484375 
Q 48.484375 72.75 52.59375 71.296875 
z
" id="DejaVuSans-54"/>
       </defs>
       <use xlink:href="#DejaVuSans-54"/>
       <use x="63.623047" xlink:href="#DejaVuSans-48"/>
      </g>
     </g>
    </g>
    <g id="xtick_6">
     <g id="line2d_6">
      <g>
       <use style="stroke:#000000;stroke-width:0.8;" x="405.804031" xlink:href="#m935d2e4fba" y="277.111219"/>
      </g>
     </g>
     <g id="text_6">
      <!-- 80 -->
      <g transform="translate(399.441531 291.709656)scale(0.1 -0.1)">
       <defs>
        <path d="M 31.78125 34.625 
Q 24.75 34.625 20.71875 30.859375 
Q 16.703125 27.09375 16.703125 20.515625 
Q 16.703125 13.921875 20.71875 10.15625 
Q 24.75 6.390625 31.78125 6.390625 
Q 38.8125 6.390625 42.859375 10.171875 
Q 46.921875 13.96875 46.921875 20.515625 
Q 46.921875 27.09375 42.890625 30.859375 
Q 38.875 34.625 31.78125 34.625 
z
M 21.921875 38.8125 
Q 15.578125 40.375 12.03125 44.71875 
Q 8.5 49.078125 8.5 55.328125 
Q 8.5 64.0625 14.71875 69.140625 
Q 20.953125 74.21875 31.78125 74.21875 
Q 42.671875 74.21875 48.875 69.140625 
Q 55.078125 64.0625 55.078125 55.328125 
Q 55.078125 49.078125 51.53125 44.71875 
Q 48 40.375 41.703125 38.8125 
Q 48.828125 37.15625 52.796875 32.3125 
Q 56.78125 27.484375 56.78125 20.515625 
Q 56.78125 9.90625 50.3125 4.234375 
Q 43.84375 -1.421875 31.78125 -1.421875 
Q 19.734375 -1.421875 13.25 4.234375 
Q 6.78125 9.90625 6.78125 20.515625 
Q 6.78125 27.484375 10.78125 32.3125 
Q 14.796875 37.15625 21.921875 38.8125 
z
M 18.3125 54.390625 
Q 18.3125 48.734375 21.84375 45.5625 
Q 25.390625 42.390625 31.78125 42.390625 
Q 38.140625 42.390625 41.71875 45.5625 
Q 45.3125 48.734375 45.3125 54.390625 
Q 45.3125 60.0625 41.71875 63.234375 
Q 38.140625 66.40625 31.78125 66.40625 
Q 25.390625 66.40625 21.84375 63.234375 
Q 18.3125 60.0625 18.3125 54.390625 
z
" id="DejaVuSans-56"/>
       </defs>
       <use xlink:href="#DejaVuSans-56"/>
       <use x="63.623047" xlink:href="#DejaVuSans-48"/>
      </g>
     </g>
    </g>
    <g id="text_7">
     <!-- 1st PC: 75.70 % -->
     <g transform="translate(165.868088 310.919444)scale(0.1728 -0.1728)">
      <defs>
       <path d="M 12.40625 8.296875 
L 28.515625 8.296875 
L 28.515625 63.921875 
L 10.984375 60.40625 
L 10.984375 69.390625 
L 28.421875 72.90625 
L 38.28125 72.90625 
L 38.28125 8.296875 
L 54.390625 8.296875 
L 54.390625 0 
L 12.40625 0 
z
" id="DejaVuSans-49"/>
       <path d="M 44.28125 53.078125 
L 44.28125 44.578125 
Q 40.484375 46.53125 36.375 47.5 
Q 32.28125 48.484375 27.875 48.484375 
Q 21.1875 48.484375 17.84375 46.4375 
Q 14.5 44.390625 14.5 40.28125 
Q 14.5 37.15625 16.890625 35.375 
Q 19.28125 33.59375 26.515625 31.984375 
L 29.59375 31.296875 
Q 39.15625 29.25 43.1875 25.515625 
Q 47.21875 21.78125 47.21875 15.09375 
Q 47.21875 7.46875 41.1875 3.015625 
Q 35.15625 -1.421875 24.609375 -1.421875 
Q 20.21875 -1.421875 15.453125 -0.5625 
Q 10.6875 0.296875 5.421875 2 
L 5.421875 11.28125 
Q 10.40625 8.6875 15.234375 7.390625 
Q 20.0625 6.109375 24.8125 6.109375 
Q 31.15625 6.109375 34.5625 8.28125 
Q 37.984375 10.453125 37.984375 14.40625 
Q 37.984375 18.0625 35.515625 20.015625 
Q 33.0625 21.96875 24.703125 23.78125 
L 21.578125 24.515625 
Q 13.234375 26.265625 9.515625 29.90625 
Q 5.8125 33.546875 5.8125 39.890625 
Q 5.8125 47.609375 11.28125 51.796875 
Q 16.75 56 26.8125 56 
Q 31.78125 56 36.171875 55.265625 
Q 40.578125 54.546875 44.28125 53.078125 
z
" id="DejaVuSans-115"/>
       <path d="M 18.3125 70.21875 
L 18.3125 54.6875 
L 36.8125 54.6875 
L 36.8125 47.703125 
L 18.3125 47.703125 
L 18.3125 18.015625 
Q 18.3125 11.328125 20.140625 9.421875 
Q 21.96875 7.515625 27.59375 7.515625 
L 36.8125 7.515625 
L 36.8125 0 
L 27.59375 0 
Q 17.1875 0 13.234375 3.875 
Q 9.28125 7.765625 9.28125 18.015625 
L 9.28125 47.703125 
L 2.6875 47.703125 
L 2.6875 54.6875 
L 9.28125 54.6875 
L 9.28125 70.21875 
z
" id="DejaVuSans-116"/>
       <path id="DejaVuSans-32"/>
       <path d="M 19.671875 64.796875 
L 19.671875 37.40625 
L 32.078125 37.40625 
Q 38.96875 37.40625 42.71875 40.96875 
Q 46.484375 44.53125 46.484375 51.125 
Q 46.484375 57.671875 42.71875 61.234375 
Q 38.96875 64.796875 32.078125 64.796875 
z
M 9.8125 72.90625 
L 32.078125 72.90625 
Q 44.34375 72.90625 50.609375 67.359375 
Q 56.890625 61.8125 56.890625 51.125 
Q 56.890625 40.328125 50.609375 34.8125 
Q 44.34375 29.296875 32.078125 29.296875 
L 19.671875 29.296875 
L 19.671875 0 
L 9.8125 0 
z
" id="DejaVuSans-80"/>
       <path d="M 64.40625 67.28125 
L 64.40625 56.890625 
Q 59.421875 61.53125 53.78125 63.8125 
Q 48.140625 66.109375 41.796875 66.109375 
Q 29.296875 66.109375 22.65625 58.46875 
Q 16.015625 50.828125 16.015625 36.375 
Q 16.015625 21.96875 22.65625 14.328125 
Q 29.296875 6.6875 41.796875 6.6875 
Q 48.140625 6.6875 53.78125 8.984375 
Q 59.421875 11.28125 64.40625 15.921875 
L 64.40625 5.609375 
Q 59.234375 2.09375 53.4375 0.328125 
Q 47.65625 -1.421875 41.21875 -1.421875 
Q 24.65625 -1.421875 15.125 8.703125 
Q 5.609375 18.84375 5.609375 36.375 
Q 5.609375 53.953125 15.125 64.078125 
Q 24.65625 74.21875 41.21875 74.21875 
Q 47.75 74.21875 53.53125 72.484375 
Q 59.328125 70.75 64.40625 67.28125 
z
" id="DejaVuSans-67"/>
       <path d="M 11.71875 12.40625 
L 22.015625 12.40625 
L 22.015625 0 
L 11.71875 0 
z
M 11.71875 51.703125 
L 22.015625 51.703125 
L 22.015625 39.3125 
L 11.71875 39.3125 
z
" id="DejaVuSans-58"/>
       <path d="M 8.203125 72.90625 
L 55.078125 72.90625 
L 55.078125 68.703125 
L 28.609375 0 
L 18.3125 0 
L 43.21875 64.59375 
L 8.203125 64.59375 
z
" id="DejaVuSans-55"/>
       <path d="M 10.796875 72.90625 
L 49.515625 72.90625 
L 49.515625 64.59375 
L 19.828125 64.59375 
L 19.828125 46.734375 
Q 21.96875 47.46875 24.109375 47.828125 
Q 26.265625 48.1875 28.421875 48.1875 
Q 40.625 48.1875 47.75 41.5 
Q 54.890625 34.8125 54.890625 23.390625 
Q 54.890625 11.625 47.5625 5.09375 
Q 40.234375 -1.421875 26.90625 -1.421875 
Q 22.3125 -1.421875 17.546875 -0.640625 
Q 12.796875 0.140625 7.71875 1.703125 
L 7.71875 11.625 
Q 12.109375 9.234375 16.796875 8.0625 
Q 21.484375 6.890625 26.703125 6.890625 
Q 35.15625 6.890625 40.078125 11.328125 
Q 45.015625 15.765625 45.015625 23.390625 
Q 45.015625 31 40.078125 35.4375 
Q 35.15625 39.890625 26.703125 39.890625 
Q 22.75 39.890625 18.8125 39.015625 
Q 14.890625 38.140625 10.796875 36.28125 
z
" id="DejaVuSans-53"/>
       <path d="M 10.6875 12.40625 
L 21 12.40625 
L 21 0 
L 10.6875 0 
z
" id="DejaVuSans-46"/>
       <path d="M 72.703125 32.078125 
Q 68.453125 32.078125 66.03125 28.46875 
Q 63.625 24.859375 63.625 18.40625 
Q 63.625 12.0625 66.03125 8.421875 
Q 68.453125 4.78125 72.703125 4.78125 
Q 76.859375 4.78125 79.265625 8.421875 
Q 81.6875 12.0625 81.6875 18.40625 
Q 81.6875 24.8125 79.265625 28.4375 
Q 76.859375 32.078125 72.703125 32.078125 
z
M 72.703125 38.28125 
Q 80.421875 38.28125 84.953125 32.90625 
Q 89.5 27.546875 89.5 18.40625 
Q 89.5 9.28125 84.9375 3.921875 
Q 80.375 -1.421875 72.703125 -1.421875 
Q 64.890625 -1.421875 60.34375 3.921875 
Q 55.8125 9.28125 55.8125 18.40625 
Q 55.8125 27.59375 60.375 32.9375 
Q 64.9375 38.28125 72.703125 38.28125 
z
M 22.3125 68.015625 
Q 18.109375 68.015625 15.6875 64.375 
Q 13.28125 60.75 13.28125 54.390625 
Q 13.28125 47.953125 15.671875 44.328125 
Q 18.0625 40.71875 22.3125 40.71875 
Q 26.5625 40.71875 28.96875 44.328125 
Q 31.390625 47.953125 31.390625 54.390625 
Q 31.390625 60.6875 28.953125 64.34375 
Q 26.515625 68.015625 22.3125 68.015625 
z
M 66.40625 74.21875 
L 74.21875 74.21875 
L 28.609375 -1.421875 
L 20.796875 -1.421875 
z
M 22.3125 74.21875 
Q 30.03125 74.21875 34.609375 68.875 
Q 39.203125 63.53125 39.203125 54.390625 
Q 39.203125 45.171875 34.640625 39.84375 
Q 30.078125 34.515625 22.3125 34.515625 
Q 14.546875 34.515625 10.03125 39.859375 
Q 5.515625 45.21875 5.515625 54.390625 
Q 5.515625 63.484375 10.046875 68.84375 
Q 14.59375 74.21875 22.3125 74.21875 
z
" id="DejaVuSans-37"/>
      </defs>
      <use xlink:href="#DejaVuSans-49"/>
      <use x="63.623047" xlink:href="#DejaVuSans-115"/>
      <use x="115.722656" xlink:href="#DejaVuSans-116"/>
      <use x="154.931641" xlink:href="#DejaVuSans-32"/>
      <use x="186.71875" xlink:href="#DejaVuSans-80"/>
      <use x="247.021484" xlink:href="#DejaVuSans-67"/>
      <use x="316.845703" xlink:href="#DejaVuSans-58"/>
      <use x="350.537109" xlink:href="#DejaVuSans-32"/>
      <use x="382.324219" xlink:href="#DejaVuSans-55"/>
      <use x="445.947266" xlink:href="#DejaVuSans-53"/>
      <use x="509.570312" xlink:href="#DejaVuSans-46"/>
      <use x="541.357422" xlink:href="#DejaVuSans-55"/>
      <use x="604.980469" xlink:href="#DejaVuSans-48"/>
      <use x="668.603516" xlink:href="#DejaVuSans-32"/>
      <use x="700.390625" xlink:href="#DejaVuSans-37"/>
     </g>
    </g>
   </g>
   <g id="matplotlib.axis_2">
    <g id="ytick_1">
     <g id="line2d_7">
      <defs>
       <path d="M 0 0 
L -3.5 0 
" id="m6a29b87063" style="stroke:#000000;stroke-width:0.8;"/>
      </defs>
      <g>
       <use style="stroke:#000000;stroke-width:0.8;" x="56.028488" xlink:href="#m6a29b87063" y="277.111219"/>
      </g>
     </g>
     <g id="text_8">
      <!-- −20 -->
      <g transform="translate(27.9238 280.910437)scale(0.1 -0.1)">
       <use xlink:href="#DejaVuSans-8722"/>
       <use x="83.789062" xlink:href="#DejaVuSans-50"/>
       <use x="147.412109" xlink:href="#DejaVuSans-48"/>
      </g>
     </g>
    </g>
    <g id="ytick_2">
     <g id="line2d_8">
      <g>
       <use style="stroke:#000000;stroke-width:0.8;" x="56.028488" xlink:href="#m6a29b87063" y="243.847219"/>
      </g>
     </g>
     <g id="text_9">
      <!-- −15 -->
      <g transform="translate(27.9238 247.646437)scale(0.1 -0.1)">
       <use xlink:href="#DejaVuSans-8722"/>
       <use x="83.789062" xlink:href="#DejaVuSans-49"/>
       <use x="147.412109" xlink:href="#DejaVuSans-53"/>
      </g>
     </g>
    </g>
    <g id="ytick_3">
     <g id="line2d_9">
      <g>
       <use style="stroke:#000000;stroke-width:0.8;" x="56.028488" xlink:href="#m6a29b87063" y="210.583219"/>
      </g>
     </g>
     <g id="text_10">
      <!-- −10 -->
      <g transform="translate(27.9238 214.382437)scale(0.1 -0.1)">
       <use xlink:href="#DejaVuSans-8722"/>
       <use x="83.789062" xlink:href="#DejaVuSans-49"/>
       <use x="147.412109" xlink:href="#DejaVuSans-48"/>
      </g>
     </g>
    </g>
    <g id="ytick_4">
     <g id="line2d_10">
      <g>
       <use style="stroke:#000000;stroke-width:0.8;" x="56.028488" xlink:href="#m6a29b87063" y="177.319219"/>
      </g>
     </g>
     <g id="text_11">
      <!-- −5 -->
      <g transform="translate(34.2863 181.118437)scale(0.1 -0.1)">
       <use xlink:href="#DejaVuSans-8722"/>
       <use x="83.789062" xlink:href="#DejaVuSans-53"/>
      </g>
     </g>
    </g>
    <g id="ytick_5">
     <g id="line2d_11">
      <g>
       <use style="stroke:#000000;stroke-width:0.8;" x="56.028488" xlink:href="#m6a29b87063" y="144.055219"/>
      </g>
     </g>
     <g id="text_12">
      <!-- 0 -->
      <g transform="translate(42.665987 147.854437)scale(0.1 -0.1)">
       <use xlink:href="#DejaVuSans-48"/>
      </g>
     </g>
    </g>
    <g id="ytick_6">
     <g id="line2d_12">
      <g>
       <use style="stroke:#000000;stroke-width:0.8;" x="56.028488" xlink:href="#m6a29b87063" y="110.791219"/>
      </g>
     </g>
     <g id="text_13">
      <!-- 5 -->
      <g transform="translate(42.665987 114.590437)scale(0.1 -0.1)">
       <use xlink:href="#DejaVuSans-53"/>
      </g>
     </g>
    </g>
    <g id="ytick_7">
     <g id="line2d_13">
      <g>
       <use style="stroke:#000000;stroke-width:0.8;" x="56.028488" xlink:href="#m6a29b87063" y="77.527219"/>
      </g>
     </g>
     <g id="text_14">
      <!-- 10 -->
      <g transform="translate(36.303488 81.326437)scale(0.1 -0.1)">
       <use xlink:href="#DejaVuSans-49"/>
       <use x="63.623047" xlink:href="#DejaVuSans-48"/>
      </g>
     </g>
    </g>
    <g id="ytick_8">
     <g id="line2d_14">
      <g>
       <use style="stroke:#000000;stroke-width:0.8;" x="56.028488" xlink:href="#m6a29b87063" y="44.263219"/>
      </g>
     </g>
     <g id="text_15">
      <!-- 15 -->
      <g transform="translate(36.303488 48.062437)scale(0.1 -0.1)">
       <use xlink:href="#DejaVuSans-49"/>
       <use x="63.623047" xlink:href="#DejaVuSans-53"/>
      </g>
     </g>
    </g>
    <g id="ytick_9">
     <g id="line2d_15">
      <g>
       <use style="stroke:#000000;stroke-width:0.8;" x="56.028488" xlink:href="#m6a29b87063" y="10.999219"/>
      </g>
     </g>
     <g id="text_16">
      <!-- 20 -->
      <g transform="translate(36.303488 14.798437)scale(0.1 -0.1)">
       <use xlink:href="#DejaVuSans-50"/>
       <use x="63.623047" xlink:href="#DejaVuSans-48"/>
      </g>
     </g>
    </g>
    <g id="text_17">
     <!-- 2nd PC: 12.20 % -->
     <g transform="translate(20.3301 215.848219)rotate(-90)scale(0.1728 -0.1728)">
      <defs>
       <path d="M 54.890625 33.015625 
L 54.890625 0 
L 45.90625 0 
L 45.90625 32.71875 
Q 45.90625 40.484375 42.875 44.328125 
Q 39.84375 48.1875 33.796875 48.1875 
Q 26.515625 48.1875 22.3125 43.546875 
Q 18.109375 38.921875 18.109375 30.90625 
L 18.109375 0 
L 9.078125 0 
L 9.078125 54.6875 
L 18.109375 54.6875 
L 18.109375 46.1875 
Q 21.34375 51.125 25.703125 53.5625 
Q 30.078125 56 35.796875 56 
Q 45.21875 56 50.046875 50.171875 
Q 54.890625 44.34375 54.890625 33.015625 
z
" id="DejaVuSans-110"/>
       <path d="M 45.40625 46.390625 
L 45.40625 75.984375 
L 54.390625 75.984375 
L 54.390625 0 
L 45.40625 0 
L 45.40625 8.203125 
Q 42.578125 3.328125 38.25 0.953125 
Q 33.9375 -1.421875 27.875 -1.421875 
Q 17.96875 -1.421875 11.734375 6.484375 
Q 5.515625 14.40625 5.515625 27.296875 
Q 5.515625 40.1875 11.734375 48.09375 
Q 17.96875 56 27.875 56 
Q 33.9375 56 38.25 53.625 
Q 42.578125 51.265625 45.40625 46.390625 
z
M 14.796875 27.296875 
Q 14.796875 17.390625 18.875 11.75 
Q 22.953125 6.109375 30.078125 6.109375 
Q 37.203125 6.109375 41.296875 11.75 
Q 45.40625 17.390625 45.40625 27.296875 
Q 45.40625 37.203125 41.296875 42.84375 
Q 37.203125 48.484375 30.078125 48.484375 
Q 22.953125 48.484375 18.875 42.84375 
Q 14.796875 37.203125 14.796875 27.296875 
z
" id="DejaVuSans-100"/>
      </defs>
      <use xlink:href="#DejaVuSans-50"/>
      <use x="63.623047" xlink:href="#DejaVuSans-110"/>
      <use x="127.001953" xlink:href="#DejaVuSans-100"/>
      <use x="190.478516" xlink:href="#DejaVuSans-32"/>
      <use x="222.265625" xlink:href="#DejaVuSans-80"/>
      <use x="282.568359" xlink:href="#DejaVuSans-67"/>
      <use x="352.392578" xlink:href="#DejaVuSans-58"/>
      <use x="386.083984" xlink:href="#DejaVuSans-32"/>
      <use x="417.871094" xlink:href="#DejaVuSans-49"/>
      <use x="481.494141" xlink:href="#DejaVuSans-50"/>
      <use x="545.117188" xlink:href="#DejaVuSans-46"/>
      <use x="576.904297" xlink:href="#DejaVuSans-50"/>
      <use x="640.527344" xlink:href="#DejaVuSans-48"/>
      <use x="704.150391" xlink:href="#DejaVuSans-32"/>
      <use x="735.9375" xlink:href="#DejaVuSans-37"/>
     </g>
    </g>
   </g>
   <g id="LineCollection_1"/>
   <g id="LineCollection_2"/>
   <g id="LineCollection_3">
    <path clip-path="url(#p16d632f4ac)" d="M 130.710419 147.095222 
L 130.973445 152.925619 
L 129.481352 156.112879 
L 125.983596 161.68782 
L 122.485841 153.71735 
L 122.434714 152.925619 
L 122.016583 144.055219 
L 122.025476 135.184819 
L 122.485841 134.550506 
L 125.983596 132.231611 
L 126.037158 132.267597 
" style="fill:none;stroke:#482576;stroke-width:1.5;"/>
   </g>
   <g id="LineCollection_4">
    <path clip-path="url(#p16d632f4ac)" d="M 132.921026 155.896953 
L 130.421356 161.796019 
L 129.481352 163.460548 
L 125.983596 170.560108 
L 125.908835 170.666419 
L 122.485841 173.4844 
L 118.988085 175.108388 
L 117.110811 170.666419 
L 117.444938 161.796019 
L 117.87047 152.925619 
L 118.038681 144.055219 
L 118.712543 135.184819 
L 118.988085 134.839499 
L 122.485841 129.821002 
L 125.983596 127.473522 
L 129.481352 133.519849 
L 129.682335 135.184819 
L 129.694906 135.226835 
" style="fill:none;stroke:#453781;stroke-width:1.5;"/>
   </g>
   <g id="LineCollection_5">
    <path clip-path="url(#p16d632f4ac)" d="M 125.756939 126.148301 
L 125.983596 126.141469 
L 126.387997 126.314419 
L 129.481352 132.458013 
L 129.810512 135.184819 
L 132.979107 143.832899 
L 132.988896 144.055219 
L 133.076521 152.925619 
L 132.979107 160.48054 
L 132.421686 161.796019 
L 129.481352 167.002669 
L 127.692331 170.666419 
L 125.983596 173.264949 
L 122.485841 178.579118 
L 121.66732 179.536819 
L 118.988085 181.19348 
L 115.49033 181.352985 
L 114.629745 179.536819 
L 113.785729 170.666419 
L 114.111547 161.796019 
L 114.644971 152.925619 
L 115.000257 144.055219 
L 115.49033 141.131951 
L 116.31892 135.184819 
L 118.770462 132.112464 
" style="fill:none;stroke:#404688;stroke-width:1.5;"/>
   </g>
   <g id="LineCollection_6">
    <path clip-path="url(#p16d632f4ac)" d="M 114.444351 134.754187 
L 115.49033 133.875927 
L 118.988085 128.839963 
L 120.39005 126.314419 
L 122.485841 125.985788 
L 125.983596 125.912819 
L 126.922641 126.314419 
L 129.481352 131.396177 
L 129.938689 135.184819 
L 132.979107 143.483064 
L 133.0043 144.055219 
L 133.137389 152.925619 
L 133.133152 161.796019 
L 132.979107 163.404598 
L 129.481352 170.544791 
L 129.42196 170.666419 
L 125.983596 175.895255 
L 123.77893 179.536819 
L 122.485841 180.944779 
L 118.988085 183.885899 
L 115.49033 186.50723 
L 112.187422 179.536819 
L 111.992574 177.665753 
L 111.169163 170.666419 
L 111.117388 161.796019 
L 111.309074 156.317555 
" style="fill:none;stroke:#39558c;stroke-width:1.5;"/>
   </g>
   <g id="LineCollection_7">
    <path clip-path="url(#p16d632f4ac)" d="M 108.643603 181.224902 
L 108.494819 180.873602 
L 108.414391 179.536819 
L 108.466641 170.666419 
L 106.700656 161.796019 
L 104.997064 158.924253 
L 104.956258 152.925619 
L 104.990927 144.055219 
L 104.997064 143.906514 
L 108.494819 141.459388 
L 111.044565 135.184819 
L 111.992574 134.968836 
L 115.49033 131.874057 
L 118.799707 126.314419 
L 118.988085 126.273155 
L 122.485841 125.724675 
L 125.983596 125.684169 
L 127.457285 126.314419 
L 129.481352 130.334341 
L 130.066866 135.184819 
L 132.979107 143.133228 
L 133.019704 144.055219 
L 133.198258 152.925619 
L 133.346707 161.796019 
L 132.979107 165.6346 
L 130.529634 170.666419 
L 129.481352 172.433388 
L 125.983596 178.525561 
L 125.371363 179.536819 
L 122.485841 182.678676 
L 118.988085 186.578318 
L 117.175287 188.407219 
L 115.49033 189.761432 
L 115.253642 189.742456 
" style="fill:none;stroke:#33638d;stroke-width:1.5;"/>
   </g>
   <g id="LineCollection_8">
    <path clip-path="url(#p16d632f4ac)" d="M 108.143806 178.849075 
L 107.548761 170.666419 
L 104.997064 163.805568 
L 104.939034 161.796019 
L 104.851082 152.925619 
L 104.891119 144.055219 
L 104.997064 141.487989 
L 107.933957 135.184819 
L 108.494819 134.864684 
L 111.992574 133.81233 
L 115.49033 129.872187 
L 117.608093 126.314419 
L 118.988085 126.012137 
L 122.485841 125.463561 
L 125.983596 125.455519 
L 127.991929 126.314419 
L 129.481352 129.272505 
L 130.195044 135.184819 
L 132.979107 142.783393 
L 133.035108 144.055219 
L 133.259126 152.925619 
L 133.560263 161.796019 
L 132.979107 167.864602 
L 131.615191 170.666419 
L 129.481352 174.263188 
L 126.599157 179.536819 
L 125.983596 180.339289 
L 122.485841 184.412573 
L 119.41551 188.407219 
L 118.988085 188.767929 
L 115.49033 191.906298 
L 112.996938 194.047624 
" style="fill:none;stroke:#2d718e;stroke-width:1.5;"/>
   </g>
   <g id="LineCollection_9">
    <path clip-path="url(#p16d632f4ac)" d="M 108.981019 189.481745 
L 108.580127 188.407219 
L 108.494819 188.205794 
L 107.973247 179.536819 
L 106.630882 170.666419 
L 104.997064 166.273507 
L 104.867768 161.796019 
L 104.745906 152.925619 
L 104.791311 144.055219 
L 104.997064 139.069463 
L 106.807071 135.184819 
L 108.494819 134.221468 
L 111.992574 132.655823 
L 115.49033 127.870317 
L 116.416479 126.314419 
L 118.988085 125.75112 
L 122.485841 125.202447 
L 125.983596 125.226869 
L 128.526573 126.314419 
L 129.481352 128.210669 
L 130.323221 135.184819 
L 132.979107 142.433558 
L 133.050512 144.055219 
L 133.319995 152.925619 
L 133.773818 161.796019 
L 132.979107 170.094603 
L 132.700749 170.666419 
L 129.481352 176.092988 
L 127.599196 179.536819 
L 125.983596 181.642983 
L 122.485841 186.14647 
L 120.748203 188.407219 
L 118.988085 189.892611 
L 115.49033 194.051165 
L 115.386399 194.182975 
" style="fill:none;stroke:#287d8e;stroke-width:1.5;"/>
   </g>
   <g id="LineCollection_10">
    <path clip-path="url(#p16d632f4ac)" d="M 108.773546 189.590122 
L 108.494819 188.859654 
L 108.421128 188.407219 
L 107.752675 179.536819 
L 105.713002 170.666419 
L 104.997064 168.741447 
L 104.796502 161.796019 
L 104.64073 152.925619 
L 104.691503 144.055219 
L 104.997064 136.650937 
L 105.680185 135.184819 
L 108.494819 133.578253 
L 111.992574 131.499316 
L 115.32475 126.314419 
L 115.49033 126.263379 
L 118.988085 125.490102 
L 122.485841 124.941334 
L 125.983596 124.998219 
L 129.061217 126.314419 
L 129.481352 127.148833 
L 130.451398 135.184819 
L 132.979107 142.083722 
L 133.065916 144.055219 
L 133.380863 152.925619 
L 133.987373 161.796019 
L 133.356925 170.666419 
L 132.979107 171.772836 
L 129.481352 177.922788 
L 128.599236 179.536819 
L 125.983596 182.946676 
L 122.485841 187.880368 
L 122.080897 188.407219 
L 118.988085 191.017293 
L 115.49033 196.196031 
L 115.252726 196.497372 
" style="fill:none;stroke:#238a8d;stroke-width:1.5;"/>
   </g>
   <g id="LineCollection_11">
    <path clip-path="url(#p16d632f4ac)" d="M 108.590872 189.590122 
L 108.494819 189.338392 
L 108.343152 188.407219 
L 107.532102 179.536819 
L 104.997064 170.833033 
L 104.98789 170.666419 
L 104.725236 161.796019 
L 104.535553 152.925619 
L 104.591695 144.055219 
L 104.968513 135.184819 
L 104.997064 135.096479 
L 108.494819 132.935037 
L 111.992574 130.342809 
L 114.581498 126.314419 
L 115.49033 126.034274 
L 118.988085 125.229084 
L 122.485841 124.68022 
L 125.983596 124.769569 
L 129.481352 126.306518 
L 129.484379 126.314419 
L 130.579575 135.184819 
L 132.979107 141.733887 
L 133.08132 144.055219 
L 133.441732 152.925619 
L 134.200929 161.796019 
L 133.865031 170.666419 
L 132.979107 173.260795 
L 129.576479 179.536819 
L 129.481352 179.655165 
L 125.983596 184.25037 
L 123.112652 188.407219 
L 122.485841 188.973744 
L 118.988085 192.141974 
L 115.832869 197.277619 
L 115.49033 197.776778 
L 115.049047 197.898408 
" style="fill:none;stroke:#1f968b;stroke-width:1.5;"/>
   </g>
   <g id="LineCollection_12">
    <path clip-path="url(#p16d632f4ac)" d="M 108.441816 189.491711 
L 108.265177 188.407219 
L 107.31153 179.536819 
L 104.997064 171.590344 
L 104.946195 170.666419 
L 104.65397 161.796019 
L 104.430377 152.925619 
L 104.491888 144.055219 
L 104.896012 135.184819 
L 104.997064 134.872152 
L 108.494819 132.291822 
L 111.992574 129.186302 
L 113.838247 126.314419 
L 115.49033 125.805169 
L 118.988085 124.968066 
L 122.485841 124.419106 
L 125.983596 124.540919 
L 129.481352 126.269629 
L 129.498513 126.314419 
L 130.707752 135.184819 
L 132.979107 141.384051 
L 133.096723 144.055219 
L 133.5026 152.925619 
L 134.414484 161.796019 
L 134.373138 170.666419 
L 132.979107 174.748754 
L 130.383195 179.536819 
L 129.481352 180.658786 
L 125.983596 185.554064 
L 124.013053 188.407219 
L 122.485841 189.787546 
L 118.988085 193.266656 
L 116.523847 197.277619 
L 115.49033 198.783691 
L 114.808317 198.886619 
" style="fill:none;stroke:#20a386;stroke-width:1.5;"/>
   </g>
   <g id="LineCollection_13">
    <path clip-path="url(#p16d632f4ac)" d="M 108.330037 189.284171 
L 108.187201 188.407219 
L 107.090958 179.536819 
L 104.997064 172.347655 
L 104.904499 170.666419 
L 104.582703 161.796019 
L 104.325201 152.925619 
L 104.39208 144.055219 
L 104.823511 135.184819 
L 104.997064 134.647824 
L 108.494819 131.648607 
L 111.992574 128.029796 
L 113.094995 126.314419 
L 115.49033 125.576064 
L 118.988085 124.707048 
L 122.485841 124.157993 
L 125.983596 124.312269 
L 129.481352 126.23274 
L 129.512646 126.314419 
L 130.835929 135.184819 
L 132.979107 141.034216 
L 133.112127 144.055219 
L 133.563468 152.925619 
L 134.628039 161.796019 
L 134.881244 170.666419 
L 132.979107 176.236713 
L 131.189912 179.536819 
L 129.481352 181.662406 
L 125.983596 186.857757 
L 124.913454 188.407219 
L 122.485841 190.601348 
L 118.988085 194.391337 
L 117.214824 197.277619 
L 115.49033 199.790605 
L 114.563038 199.814905 
" style="fill:none;stroke:#29af7f;stroke-width:1.5;"/>
   </g>
   <g id="LineCollection_14">
    <path clip-path="url(#p16d632f4ac)" d="M 108.218258 189.076631 
L 108.109226 188.407219 
L 106.870386 179.536819 
L 104.997064 173.104966 
L 104.862804 170.666419 
L 104.511437 161.796019 
L 104.220025 152.925619 
L 104.292272 144.055219 
L 104.75101 135.184819 
L 104.997064 134.423497 
L 108.494819 131.005391 
L 111.992574 126.873289 
L 112.351743 126.314419 
L 115.49033 125.346959 
L 118.988085 124.44603 
L 122.485841 123.896879 
L 125.983596 124.083618 
L 129.481352 126.195851 
L 129.52678 126.314419 
L 130.964107 135.184819 
L 132.979107 140.684381 
L 133.127531 144.055219 
L 133.624337 152.925619 
L 134.841595 161.796019 
L 135.38935 170.666419 
L 132.979107 177.724672 
L 131.996628 179.536819 
L 129.481352 182.666027 
L 125.983596 188.161451 
L 125.813856 188.407219 
L 122.485841 191.415151 
L 118.988085 195.516019 
L 117.905801 197.277619 
L 115.49033 200.797518 
L 114.314171 200.681659 
" style="fill:none;stroke:#3dbc74;stroke-width:1.5;"/>
   </g>
   <g id="LineCollection_15">
    <path clip-path="url(#p16d632f4ac)" d="M 108.106478 188.869091 
L 108.03125 188.407219 
L 106.649814 179.536819 
L 104.997064 173.862277 
L 104.821108 170.666419 
L 104.440171 161.796019 
L 104.114849 152.925619 
L 104.192464 144.055219 
L 104.678509 135.184819 
L 104.997064 134.199169 
L 108.494819 130.362176 
L 111.727147 126.314419 
L 111.992574 126.245608 
L 115.49033 125.117853 
L 118.988085 124.185013 
L 122.485841 123.635765 
L 125.983596 123.854968 
L 129.481352 126.158961 
L 129.540914 126.314419 
L 131.092284 135.184819 
L 132.979107 140.334545 
L 133.142935 144.055219 
L 133.685205 152.925619 
L 135.05515 161.796019 
L 135.897457 170.666419 
L 132.979107 179.212631 
L 132.803344 179.536819 
L 129.481352 183.669648 
L 126.496682 188.407219 
L 125.983596 188.910732 
L 122.485841 192.228953 
L 118.988085 196.640701 
L 118.596778 197.277619 
L 115.49033 201.804431 
L 114.062725 201.485764 
" style="fill:none;stroke:#56c667;stroke-width:1.5;"/>
   </g>
   <g id="LineCollection_16">
    <path clip-path="url(#p16d632f4ac)" d="M 107.994699 188.661551 
L 107.953275 188.407219 
L 106.429242 179.536819 
L 104.997064 174.619588 
L 104.779413 170.666419 
L 104.368905 161.796019 
L 104.009673 152.925619 
L 104.092656 144.055219 
L 104.606008 135.184819 
L 104.997064 133.974842 
L 108.494819 129.71896 
L 111.213508 126.314419 
L 111.992574 126.112451 
L 115.49033 124.888748 
L 118.988085 123.923995 
L 122.485841 123.374652 
L 125.983596 123.626318 
L 129.481352 126.122072 
L 129.555048 126.314419 
L 131.220461 135.184819 
L 132.979107 139.98471 
L 133.158339 144.055219 
L 133.746074 152.925619 
L 135.268705 161.796019 
L 136.405563 170.666419 
L 133.394147 179.536819 
L 132.979107 180.108919 
L 129.481352 184.673268 
L 127.128963 188.407219 
L 125.983596 189.531217 
L 122.485841 193.042755 
L 119.257167 197.277619 
L 118.988085 197.495691 
L 115.49033 202.811344 
L 113.809731 202.226614 
" style="fill:none;stroke:#75d054;stroke-width:1.5;"/>
   </g>
   <g id="LineCollection_17">
    <path clip-path="url(#p16d632f4ac)" d="M 111.86665 201.771663 
L 110.42817 197.277619 
L 108.494819 192.210822 
L 107.875299 188.407219 
L 106.20867 179.536819 
L 104.997064 175.376899 
L 104.737717 170.666419 
L 104.297639 161.796019 
L 103.904497 152.925619 
L 103.992848 144.055219 
L 104.533508 135.184819 
L 104.997064 133.750514 
L 108.494819 129.075745 
L 110.69987 126.314419 
L 111.992574 125.979294 
L 115.49033 124.659643 
L 118.988085 123.662977 
L 122.485841 123.113538 
L 125.983596 123.397668 
L 129.481352 126.085183 
L 129.569182 126.314419 
L 131.348638 135.184819 
L 132.979107 139.634875 
L 133.173743 144.055219 
L 133.806942 152.925619 
L 135.482261 161.796019 
L 136.476863 169.284212 
L 136.500527 170.666419 
L 136.476863 172.011589 
L 133.924803 179.536819 
L 132.979107 180.840388 
L 129.481352 185.676889 
L 127.761244 188.407219 
L 125.983596 190.151703 
L 122.485841 193.856557 
L 119.877612 197.277619 
L 118.988085 197.998519 
L 118.816383 198.284206 
" style="fill:none;stroke:#95d840;stroke-width:1.5;"/>
   </g>
   <g id="LineCollection_18">
    <path clip-path="url(#p16d632f4ac)" d="M 111.88131 202.388167 
L 110.245497 197.277619 
L 108.494819 192.689561 
L 107.797323 188.407219 
L 105.988097 179.536819 
L 104.997064 176.13421 
L 104.696022 170.666419 
L 104.226373 161.796019 
L 103.799321 152.925619 
L 103.893041 144.055219 
L 104.461007 135.184819 
L 104.997064 133.526187 
L 108.494819 128.432529 
L 110.186232 126.314419 
L 111.992574 125.846137 
L 115.49033 124.430538 
L 118.988085 123.401959 
L 122.485841 122.852424 
L 125.983596 123.169018 
L 129.481352 126.048294 
L 129.583316 126.314419 
L 131.476815 135.184819 
L 132.979107 139.285039 
L 133.189147 144.055219 
L 133.867811 152.925619 
L 135.695816 161.796019 
L 136.476863 167.676389 
L 136.528054 170.666419 
L 136.476863 173.57633 
L 134.45546 179.536819 
L 132.979107 181.571857 
L 129.481352 186.68051 
L 128.393525 188.407219 
L 125.983596 190.772188 
L 122.485841 194.670359 
L 120.498058 197.277619 
L 118.988085 198.501348 
L 118.759875 198.913944 
" style="fill:none;stroke:#bade28;stroke-width:1.5;"/>
   </g>
   <g id="LineCollection_19">
    <path clip-path="url(#p16d632f4ac)" d="M 111.899276 203.014996 
L 110.062823 197.277619 
L 108.494819 193.168299 
L 107.719348 188.407219 
L 105.767525 179.536819 
L 104.997064 176.891521 
L 104.654326 170.666419 
L 104.155107 161.796019 
L 103.694145 152.925619 
L 103.793233 144.055219 
L 104.388506 135.184819 
L 104.997064 133.301859 
L 108.494819 127.789314 
L 109.672593 126.314419 
L 111.992574 125.71298 
L 115.49033 124.201433 
L 118.988085 123.140941 
L 122.485841 122.591311 
L 125.983596 122.940368 
L 129.481352 126.011405 
L 129.597449 126.314419 
L 131.604993 135.184819 
L 132.979107 138.935204 
L 133.204551 144.055219 
L 133.928679 152.925619 
L 135.909371 161.796019 
L 136.476863 166.068566 
L 136.555581 170.666419 
L 136.476863 175.141071 
L 134.986116 179.536819 
L 132.979107 182.303326 
L 129.481352 187.68413 
L 129.025806 188.407219 
L 125.983596 191.392673 
L 122.485841 195.484162 
L 121.118503 197.277619 
L 118.988085 199.004177 
L 118.701811 199.563008 
" style="fill:none;stroke:#dde318;stroke-width:1.5;"/>
   </g>
   <g id="LineCollection_20">
    <path clip-path="url(#p16d632f4ac)" d="M 118.233892 201.013357 
L 115.663092 206.148019 
L 115.49033 206.444756 
L 114.97583 206.148019 
L 111.992574 203.877178 
L 109.88015 197.277619 
L 108.494819 193.647037 
L 107.641372 188.407219 
L 105.546953 179.536819 
L 104.997064 177.648832 
L 104.612631 170.666419 
L 104.08384 161.796019 
L 103.588969 152.925619 
L 103.693425 144.055219 
L 104.316005 135.184819 
L 104.997064 133.077532 
L 108.494819 127.146098 
L 109.158955 126.314419 
L 111.992574 125.579822 
L 115.49033 123.972327 
L 118.988085 122.879924 
L 122.485841 122.330197 
L 125.983596 122.711718 
L 129.481352 125.974516 
L 129.611583 126.314419 
L 131.73317 135.184819 
L 132.979107 138.585369 
L 133.219955 144.055219 
L 133.989548 152.925619 
L 136.122927 161.796019 
L 136.476863 164.460743 
L 136.583109 170.666419 
L 136.476863 176.705812 
L 135.516773 179.536819 
L 132.979107 183.034795 
L 129.609587 188.407219 
L 129.481352 188.530901 
L 125.983596 192.013159 
L 125.216173 192.953264 
" style="fill:none;stroke:#fde725;stroke-width:1.5;"/>
   </g>
   <g id="LineCollection_21">
    <path clip-path="url(#p16d632f4ac)" d="M 110.561613 199.977324 
L 109.697476 197.277619 
L 108.494819 194.125775 
L 107.563397 188.407219 
L 105.326381 179.536819 
L 104.997064 178.406143 
L 104.570935 170.666419 
L 104.012574 161.796019 
L 103.483792 152.925619 
L 103.593617 144.055219 
L 104.243504 135.184819 
L 104.997064 132.853204 
L 108.494819 126.502883 
L 108.645317 126.314419 
L 111.992574 125.446665 
L 115.49033 123.743222 
L 118.988085 122.618906 
L 122.485841 122.069084 
L 125.983596 122.483068 
L 129.481352 125.937627 
L 129.625717 126.314419 
L 131.861347 135.184819 
L 132.979107 138.235533 
L 133.235358 144.055219 
L 134.050416 152.925619 
L 136.336482 161.796019 
L 136.476863 162.85292 
L 136.610636 170.666419 
L 136.476863 178.270553 
L 136.047429 179.536819 
L 132.979107 183.766264 
L 130.068355 188.407219 
L 129.481352 188.973383 
L 125.983596 192.633644 
L 122.485841 197.111766 
L 122.359394 197.277619 
L 118.988085 200.009834 
L 118.048002 201.887463 
" style="fill:none;stroke:#440154;stroke-width:1.5;"/>
   </g>
   <g id="LineCollection_22">
    <path clip-path="url(#p16d632f4ac)" d="M 107.773458 119.495133 
L 108.494819 118.176934 
L 108.910829 117.444019 
L 111.992574 116.711438 
L 115.49033 115.886166 
L 118.988085 115.736417 
L 122.485841 116.049203 
L 125.983596 116.53756 
L 128.63724 117.444019 
L 129.481352 119.297582 
L 132.169804 126.314419 
L 132.979107 128.536876 
L 133.617603 135.184819 
L 136.008058 144.055219 
L 136.476863 145.637926 
L 137.02118 152.925619 
L 138.554359 161.796019 
L 139.974618 167.824629 
L 140.116477 170.666419 
L 140.466647 179.536819 
L 140.598555 188.407219 
L 140.181897 197.277619 
L 139.974618 198.493971 
L 136.476863 204.47944 
L 135.42098 206.148019 
L 132.979107 208.262647 
L 129.481352 212.94003 
L 128.014769 215.018419 
L 125.983596 216.588335 
L 122.485841 219.483435 
L 119.845691 223.888819 
L 118.988085 224.914837 
L 115.49033 225.276685 
L 114.54001 223.888819 
L 111.992574 218.236015 
L 110.299995 215.018419 
L 108.494819 210.43685 
L 107.148396 206.148019 
L 104.997064 199.701121 
L 104.578238 197.277619 
L 102.908729 188.407219 
L 101.499308 182.185209 
L 101.319687 179.536819 
L 100.759307 170.666419 
L 100.085331 161.796019 
L 99.886304 152.925619 
L 100.493521 144.055219 
L 100.786425 138.739981 
" style="fill:none;stroke:#440154;stroke-width:1.5;"/>
   </g>
   <g id="LineCollection_23">
    <path clip-path="url(#p16d632f4ac)" d="M 117.487635 241.851269 
L 117.276135 241.629619 
L 115.49033 238.403564 
L 111.992574 232.921622 
L 111.819304 232.759219 
L 108.494819 225.83046 
L 107.405223 223.888819 
L 104.997064 217.871011 
L 104.303524 215.018419 
L 101.499308 206.624333 
L 101.426403 206.148019 
L 100.170824 197.277619 
L 98.001553 189.068008 
L 97.951246 188.407219 
L 97.426401 179.536819 
L 96.593509 170.666419 
L 95.594549 161.796019 
L 95.907675 152.925619 
L 96.926471 144.055219 
L 97.633537 135.184819 
L 98.001553 129.838389 
L 99.005656 126.314419 
L 101.499308 121.009401 
L 103.166414 117.444019 
L 104.997064 115.670976 
L 108.494819 111.680522 
L 110.84738 108.573619 
L 111.992574 108.290655 
L 115.49033 107.813734 
L 118.988085 107.840855 
L 122.485841 108.07165 
L 125.983596 108.412419 
L 126.344885 108.573619 
L 129.481352 114.53095 
L 131.601422 117.444019 
L 132.979107 120.946373 
L 134.485475 126.314419 
L 136.476863 132.438811 
L 136.688253 135.184819 
L 138.281464 144.055219 
L 139.974618 149.50998 
L 140.223039 152.925619 
L 141.48671 161.796019 
L 143.472373 169.209802 
L 143.540894 170.666419 
L 143.873795 179.536819 
L 144.132477 188.407219 
L 144.075443 197.277619 
L 143.72798 206.148019 
L 143.472373 209.009747 
L 140.932409 215.018419 
L 139.974618 216.151999 
L 136.476863 221.257438 
L 134.966133 223.888819 
L 132.979107 225.779682 
L 129.481352 231.950189 
L 128.963307 232.759219 
L 127.517292 233.976893 
" style="fill:none;stroke:#440154;stroke-width:1.5;"/>
   </g>
   <g id="LineCollection_24">
    <path clip-path="url(#p16d632f4ac)" d="M 116.912563 253.88109 
L 115.49033 251.583853 
L 115.122924 250.500019 
L 111.992574 242.978027 
L 110.494668 241.629619 
L 108.494819 237.532382 
L 105.023192 232.759219 
L 104.997064 232.69759 
L 102.044249 223.888819 
L 101.499308 222.372418 
L 99.867716 215.018419 
L 98.001553 209.171356 
L 97.56223 206.148019 
L 95.826572 197.277619 
L 94.503797 191.828305 
L 94.287215 188.407219 
L 93.676234 179.536819 
L 92.714199 170.666419 
L 91.573339 161.796019 
L 91.996438 152.925619 
L 93.027966 144.055219 
L 94.011042 135.184819 
L 94.503797 129.006392 
L 95.186678 126.314419 
L 97.603342 117.444019 
L 98.001553 116.317826 
L 101.435545 108.573619 
L 101.499308 108.497331 
L 104.997064 105.85905 
L 108.494819 101.919891 
L 110.591234 99.703219 
L 111.992574 99.451443 
L 115.49033 99.235026 
L 118.988085 99.356434 
L 122.485841 99.576549 
L 123.775096 99.703219 
L 125.983596 101.372839 
L 129.481352 106.897383 
L 130.841057 108.573619 
L 132.979107 113.660997 
L 135.187778 117.444019 
L 136.476863 120.862537 
L 137.023318 126.314419 
L 139.974618 134.986288 
L 139.988744 135.184819 
L 140.739002 144.055219 
L 143.472373 152.304194 
L 143.515843 152.925619 
L 144.207534 161.796019 
L 146.39077 170.666419 
L 146.970129 173.214682 
L 147.125581 179.536819 
L 147.368417 188.407219 
L 147.391945 197.277619 
L 147.198881 206.148019 
L 146.970129 214.677023 
L 146.894754 215.018419 
L 144.042585 223.888819 
L 143.472373 225.27898 
L 139.974618 230.219568 
L 138.654604 232.759219 
L 136.476863 235.000473 
L 133.104623 241.629619 
L 132.979107 241.77325 
L 129.481352 247.49797 
L 127.763629 250.497698 
" style="fill:none;stroke:#440154;stroke-width:1.5;"/>
   </g>
   <g id="LineCollection_25">
    <path clip-path="url(#p16d632f4ac)" d="M 119.859185 269.586078 
L 118.988085 269.024152 
L 117.642238 268.240819 
L 115.49033 264.116657 
L 114.684177 259.370419 
L 111.992574 252.444318 
L 110.080413 250.500019 
L 108.494819 247.085045 
L 104.997064 242.052436 
L 104.81342 241.629619 
L 101.499308 233.329579 
L 101.318234 232.759219 
L 98.001553 223.923327 
L 97.991575 223.888819 
L 95.714984 215.018419 
L 94.503797 211.309306 
L 93.595498 206.148019 
L 91.424219 197.277619 
L 91.006042 195.437996 
L 90.577877 188.407219 
L 89.8587 179.536819 
L 88.946538 170.666419 
L 88.638831 161.796019 
L 88.886781 152.925619 
L 89.394931 144.055219 
L 90.256915 135.184819 
L 90.943945 126.314419 
L 91.006042 125.698771 
L 93.459872 117.444019 
L 94.503797 113.242265 
L 96.299928 108.573619 
L 98.001553 105.142554 
L 100.577158 99.703219 
L 101.499308 98.891124 
L 104.997064 96.02586 
L 108.494819 92.050351 
L 109.740895 90.832819 
L 111.992574 90.521503 
L 115.49033 90.407185 
L 118.988085 90.547126 
L 122.485841 90.790215 
L 122.761596 90.832819 
L 125.983596 93.904739 
L 129.481352 98.750745 
L 130.293939 99.703219 
L 132.979107 106.025167 
L 134.499755 108.573619 
L 136.476863 113.415865 
L 137.360755 117.444019 
L 139.974618 124.902853 
L 140.065111 126.314419 
L 141.298909 135.184819 
L 143.472373 141.488728 
L 143.684675 144.055219 
L 145.293478 152.925619 
L 146.970129 158.111257 
L 147.161588 161.796019 
L 148.029752 170.666419 
L 150.207736 179.536819 
L 150.467884 180.894015 
L 150.557953 188.407219 
L 150.617903 197.277619 
L 150.544035 206.148019 
L 150.467884 209.475246 
L 149.358867 215.018419 
L 147.79358 223.888819 
L 146.970129 232.000789 
L 146.667794 232.759219 
L 143.472373 238.602083 
L 141.797945 241.629619 
L 139.974618 243.21172 
L 136.476863 249.301816 
L 135.886752 250.500019 
L 132.979107 254.143037 
L 131.549277 257.490016 
" style="fill:none;stroke:#440154;stroke-width:1.5;"/>
   </g>
   <g id="LineCollection_26">
    <path clip-path="url(#p16d632f4ac)" d="M 115.464889 277.111219 
L 114.42141 268.240819 
L 111.992574 261.68553 
L 108.675175 259.370419 
L 108.494819 259.002188 
L 104.997064 252.004938 
L 104.411144 250.500019 
L 101.499308 243.219304 
L 100.970294 241.629619 
L 98.001553 233.878785 
L 97.63754 232.759219 
L 94.503797 224.453126 
L 94.334285 223.888819 
L 91.2322 215.018419 
L 91.006042 214.351318 
L 89.193513 206.148019 
L 87.508286 199.387019 
L 87.335116 197.277619 
L 86.655868 188.407219 
L 85.720642 179.536819 
L 85.296243 170.666419 
L 85.538164 161.796019 
L 85.937869 152.925619 
L 86.316238 144.055219 
L 86.644403 137.889415 
" style="fill:none;stroke:#450457;stroke-width:1.5;"/>
    <path clip-path="url(#p16d632f4ac)" d="M 94.056288 100.780386 
L 94.48307 99.703219 
L 94.503797 99.657971 
L 98.001553 92.959314 
L 99.122656 90.832819 
L 101.499308 89.410617 
L 104.997064 86.296534 
L 108.494819 82.434223 
L 109.162302 81.962419 
L 111.992574 81.713045 
L 115.49033 81.660366 
L 118.988085 81.734498 
L 122.485841 81.895635 
L 122.794406 81.962419 
L 125.983596 86.169542 
L 129.481352 90.383466 
L 129.861948 90.832819 
L 132.979107 98.161491 
L 133.933731 99.703219 
L 136.476863 105.928819 
L 137.235155 108.573619 
L 139.974618 115.814825 
L 140.161425 117.444019 
L 141.775599 126.314419 
L 143.472373 131.133064 
L 143.879871 135.184819 
L 146.828051 144.055219 
L 146.970129 144.476865 
L 147.514618 152.925619 
L 150.01831 161.796019 
L 150.467884 163.29391 
L 150.69696 170.666419 
L 151.300369 179.536819 
L 152.485588 188.407219 
L 153.558961 197.277619 
L 153.2822 206.148019 
L 151.908566 215.018419 
L 150.898456 223.888819 
L 150.467884 232.286676 
L 150.327154 232.759219 
L 147.396519 241.629619 
L 146.970129 243.516075 
L 143.975549 250.500019 
L 143.472373 251.340865 
L 139.974618 256.042536 
L 138.301845 259.370419 
L 136.476863 261.289064 
L 133.325171 268.240819 
L 132.979107 268.741812 
L 129.481352 276.050643 
L 128.913214 277.111219 
" style="fill:none;stroke:#450457;stroke-width:1.5;"/>
   </g>
   <g id="LineCollection_27">
    <path clip-path="url(#p16d632f4ac)" d="M 114.024081 277.111219 
L 111.992574 271.41977 
L 111.839102 271.299308 
" style="fill:none;stroke:#482475;stroke-width:1.5;"/>
    <path clip-path="url(#p16d632f4ac)" d="M 99.184385 246.866726 
L 98.001553 243.802289 
L 97.269703 241.629619 
L 94.503797 234.439647 
L 93.91141 232.759219 
L 91.006042 225.098836 
L 90.626851 223.888819 
L 87.508286 215.53468 
L 87.360408 215.018419 
L 84.04384 206.148019 
L 84.010531 206.006742 
L 83.294019 197.277619 
L 82.229352 188.407219 
L 81.372687 179.536819 
L 81.57077 170.666419 
L 82.06583 161.796019 
L 82.633366 152.925619 
L 83.139929 144.055219 
L 83.499965 135.184819 
L 83.829966 126.314419 
L 84.010531 122.670087 
L 85.317542 117.444019 
L 87.107782 108.573619 
L 87.508286 106.767151 
L 90.142066 99.703219 
L 91.006042 97.914595 
L 93.876007 90.832819 
L 94.503797 89.553663 
L 97.910026 81.962419 
L 98.001553 81.872575 
L 101.499308 80.06632 
L 104.997064 76.668843 
L 108.37505 73.092019 
L 108.494819 73.070917 
L 111.992574 72.893336 
L 115.49033 72.916734 
L 118.988085 73.017103 
L 120.715765 73.092019 
L 122.485841 73.827525 
L 125.983596 78.910647 
L 129.481352 81.870045 
L 129.56329 81.962419 
L 132.979107 90.014425 
L 133.462222 90.832819 
L 136.476863 98.212298 
L 136.990958 99.703219 
L 139.974618 107.429976 
L 140.195005 108.573619 
L 142.754356 117.444019 
L 143.472373 119.529695 
L 144.101355 126.314419 
L 146.970129 134.456606 
L 147.027528 135.184819 
L 148.010614 144.055219 
L 150.467884 151.347524 
L 150.561007 152.925619 
L 151.296533 161.796019 
L 153.654372 170.666419 
L 153.96564 171.851515 
L 154.11452 179.536819 
L 154.425981 188.407219 
L 154.812656 197.277619 
L 155.073249 206.148019 
L 154.757481 215.018419 
L 154.15488 223.888819 
L 153.96564 227.020372 
L 152.337397 232.759219 
L 150.776106 241.629619 
L 150.467884 244.177858 
L 148.17478 250.500019 
L 146.970129 255.36287 
L 145.249529 259.370419 
L 143.472373 262.192566 
L 140.455776 268.240819 
L 139.974618 268.667163 
L 136.476863 273.003285 
L 134.669008 277.111219 
" style="fill:none;stroke:#482475;stroke-width:1.5;"/>
   </g>
   <g id="LineCollection_28">
    <path clip-path="url(#p16d632f4ac)" d="M 107.060533 277.111219 
L 104.997064 273.209401 
L 103.0497 268.240819 
L 101.499308 264.296889 
L 99.998428 259.370419 
L 98.001553 254.139382 
L 96.821225 250.500019 
L 94.503797 244.50256 
L 93.787646 242.453311 
" style="fill:none;stroke:#fde725;stroke-width:1.5;"/>
    <path clip-path="url(#p16d632f4ac)" d="M 81.358872 208.94851 
L 80.512776 206.718976 
L 80.377939 206.148019 
L 78.993889 197.277619 
L 77.803562 188.407219 
L 77.452424 179.536819 
L 77.789306 170.666419 
L 78.331029 161.796019 
L 79.100212 152.925619 
L 79.726305 144.055219 
L 80.147978 135.184819 
L 80.394484 126.314419 
L 80.512776 122.530626 
L 81.588352 117.444019 
L 83.224112 108.573619 
L 84.010531 102.726062 
L 85.037195 99.703219 
L 87.508286 93.725911 
L 88.697146 90.832819 
L 91.006042 86.629863 
L 92.921569 81.962419 
L 94.503797 79.172453 
L 97.503797 73.092019 
L 98.001553 72.744334 
L 101.499308 70.812649 
L 104.997064 67.221081 
L 107.994435 64.221619 
L 108.494819 64.142932 
L 111.992574 64.051197 
L 115.49033 64.151276 
L 117.794847 64.221619 
L 118.988085 64.59759 
L 122.485841 66.781506 
L 125.983596 71.589489 
L 128.324922 73.092019 
L 129.481352 75.634785 
L 132.979107 81.651227 
L 133.175856 81.962419 
L 136.476863 90.064635 
L 136.756102 90.832819 
L 139.974618 99.06811 
L 140.129839 99.703219 
L 143.437016 108.573619 
L 143.472373 108.672012 
L 144.40483 117.444019 
L 146.970129 124.713369 
L 147.0966 126.314419 
L 148.589588 135.184819 
L 150.467884 140.606425 
L 150.721633 144.055219 
L 152.391379 152.925619 
L 153.96564 157.869895 
L 154.13851 161.796019 
L 154.776517 170.666419 
L 156.29578 179.536819 
L 157.463395 184.663779 
L 157.51938 188.407219 
L 157.62834 197.277619 
L 157.737864 206.148019 
L 157.744814 215.018419 
L 157.510407 223.888819 
L 157.463395 224.572058 
L 155.0372 232.759219 
L 154.075775 241.629619 
L 153.96564 242.805208 
L 151.387557 250.500019 
L 150.467884 256.485806 
L 149.403842 259.370419 
L 146.974021 268.240819 
L 146.970129 268.252646 
L 143.472373 273.200009 
L 141.527493 277.111219 
" style="fill:none;stroke:#fde725;stroke-width:1.5;"/>
   </g>
   <g id="line2d_16">
    <path clip-path="url(#p16d632f4ac)" d="M 396.142773 107.501091 
L 354.538105 126.339768 
L 319.527407 143.64441 
L 290.043582 159.2856 
L 265.319336 173.821384 
L 244.476213 186.595805 
L 226.983419 197.926735 
L 212.316687 207.82211 
L 200.026896 215.99516 
L 189.715573 222.581469 
L 181.055011 228.202382 
L 173.812914 232.656402 
L 167.668856 236.056641 
L 162.4791 238.663969 
L 158.134699 240.280929 
L 154.42706 241.487711 
L 151.285099 242.129074 
L 148.646633 242.288794 
L 146.289704 241.866021 
L 144.285704 241.124622 
L 142.499167 239.866734 
L 140.892455 238.575436 
L 139.528033 236.749973 
L 138.28084 234.817597 
L 137.118126 232.811648 
L 136.122139 230.515155 
L 135.199681 227.992471 
L 134.333178 225.620084 
L 133.577875 223.004927 
L 132.797621 220.216447 
L 132.125363 217.49281 
L 131.457967 214.716767 
L 130.88421 211.810716 
L 130.345085 208.874528 
L 129.835632 206.072389 
L 129.329878 203.253595 
L 128.938884 200.230747 
L 128.511611 197.341369 
L 128.132096 194.373674 
L 127.7719 191.515243 
L 127.403665 188.544442 
L 127.080933 185.686122 
L 126.748708 183.006446 
L 126.466796 180.266814 
L 126.106022 177.412624 
L 125.818947 174.507972 
L 125.535106 171.432203 
L 125.180588 168.273673 
L 124.827898 164.605797 
L 124.495888 160.635908 
L 124.56312 159.676111 
L 124.632164 158.770994 
L 124.694846 157.958357 
L 124.759113 157.171495 
L 124.818958 156.441928 
L 124.876162 155.676247 
L 124.933936 154.997564 
L 124.990747 154.324503 
L 125.038272 153.663155 
L 125.082155 153.03011 
L 125.129841 152.420776 
L 125.165227 151.803156 
L 125.206546 151.189132 
L 125.235848 150.640191 
L 125.27632 150.06302 
L 125.302128 149.521969 
L 125.321016 148.979834 
L 125.352067 148.447595 
L 125.370058 147.928347 
L 125.392507 147.426426 
L 125.410513 146.924216 
L 125.424868 146.442156 
L 125.439683 145.94226 
L 125.450231 145.419416 
L 125.452469 144.895815 
L 125.468416 144.794206 
L 125.487697 144.694628 
L 125.506382 144.608071 
L 125.526378 144.534319 
L 125.546435 144.470321 
L 125.568275 144.416378 
L 125.588829 144.368296 
L 125.609779 144.327086 
L 125.630646 144.282626 
L 125.652525 144.242695 
L 125.673732 144.209617 
L 125.696147 144.18346 
L 125.717888 144.161778 
L 125.738195 144.14587 
L 125.760301 144.124378 
L 125.782067 144.102451 
L 125.803966 144.091519 
L 125.824915 144.078434 
L 125.84786 144.071165 
L 125.870638 144.060202 
L 125.892871 144.056794 
L 125.914984 144.058213 
L 125.938095 144.057109 
L 125.960868 144.058631 
" style="fill:none;stroke:#1f77b4;stroke-linecap:square;stroke-width:1.5;"/>
    <defs>
     <path d="M 0 1.5 
C 0.397805 1.5 0.77937 1.341951 1.06066 1.06066 
C 1.341951 0.77937 1.5 0.397805 1.5 0 
C 1.5 -0.397805 1.341951 -0.77937 1.06066 -1.06066 
C 0.77937 -1.341951 0.397805 -1.5 0 -1.5 
C -0.397805 -1.5 -0.77937 -1.341951 -1.06066 -1.06066 
C -1.341951 -0.77937 -1.5 -0.397805 -1.5 0 
C -1.5 0.397805 -1.341951 0.77937 -1.06066 1.06066 
C -0.77937 1.341951 -0.397805 1.5 0 1.5 
z
" id="m0805ad9662" style="stroke:#1f77b4;"/>
    </defs>
    <g clip-path="url(#p16d632f4ac)">
     <use style="fill:#1f77b4;stroke:#1f77b4;" x="396.142773" xlink:href="#m0805ad9662" y="107.501091"/>
     <use style="fill:#1f77b4;stroke:#1f77b4;" x="354.538105" xlink:href="#m0805ad9662" y="126.339768"/>
     <use style="fill:#1f77b4;stroke:#1f77b4;" x="319.527407" xlink:href="#m0805ad9662" y="143.64441"/>
     <use style="fill:#1f77b4;stroke:#1f77b4;" x="290.043582" xlink:href="#m0805ad9662" y="159.2856"/>
     <use style="fill:#1f77b4;stroke:#1f77b4;" x="265.319336" xlink:href="#m0805ad9662" y="173.821384"/>
     <use style="fill:#1f77b4;stroke:#1f77b4;" x="244.476213" xlink:href="#m0805ad9662" y="186.595805"/>
     <use style="fill:#1f77b4;stroke:#1f77b4;" x="226.983419" xlink:href="#m0805ad9662" y="197.926735"/>
     <use style="fill:#1f77b4;stroke:#1f77b4;" x="212.316687" xlink:href="#m0805ad9662" y="207.82211"/>
     <use style="fill:#1f77b4;stroke:#1f77b4;" x="200.026896" xlink:href="#m0805ad9662" y="215.99516"/>
     <use style="fill:#1f77b4;stroke:#1f77b4;" x="189.715573" xlink:href="#m0805ad9662" y="222.581469"/>
     <use style="fill:#1f77b4;stroke:#1f77b4;" x="181.055011" xlink:href="#m0805ad9662" y="228.202382"/>
     <use style="fill:#1f77b4;stroke:#1f77b4;" x="173.812914" xlink:href="#m0805ad9662" y="232.656402"/>
     <use style="fill:#1f77b4;stroke:#1f77b4;" x="167.668856" xlink:href="#m0805ad9662" y="236.056641"/>
     <use style="fill:#1f77b4;stroke:#1f77b4;" x="162.4791" xlink:href="#m0805ad9662" y="238.663969"/>
     <use style="fill:#1f77b4;stroke:#1f77b4;" x="158.134699" xlink:href="#m0805ad9662" y="240.280929"/>
     <use style="fill:#1f77b4;stroke:#1f77b4;" x="154.42706" xlink:href="#m0805ad9662" y="241.487711"/>
     <use style="fill:#1f77b4;stroke:#1f77b4;" x="151.285099" xlink:href="#m0805ad9662" y="242.129074"/>
     <use style="fill:#1f77b4;stroke:#1f77b4;" x="148.646633" xlink:href="#m0805ad9662" y="242.288794"/>
     <use style="fill:#1f77b4;stroke:#1f77b4;" x="146.289704" xlink:href="#m0805ad9662" y="241.866021"/>
     <use style="fill:#1f77b4;stroke:#1f77b4;" x="144.285704" xlink:href="#m0805ad9662" y="241.124622"/>
     <use style="fill:#1f77b4;stroke:#1f77b4;" x="142.499167" xlink:href="#m0805ad9662" y="239.866734"/>
     <use style="fill:#1f77b4;stroke:#1f77b4;" x="140.892455" xlink:href="#m0805ad9662" y="238.575436"/>
     <use style="fill:#1f77b4;stroke:#1f77b4;" x="139.528033" xlink:href="#m0805ad9662" y="236.749973"/>
     <use style="fill:#1f77b4;stroke:#1f77b4;" x="138.28084" xlink:href="#m0805ad9662" y="234.817597"/>
     <use style="fill:#1f77b4;stroke:#1f77b4;" x="137.118126" xlink:href="#m0805ad9662" y="232.811648"/>
     <use style="fill:#1f77b4;stroke:#1f77b4;" x="136.122139" xlink:href="#m0805ad9662" y="230.515155"/>
     <use style="fill:#1f77b4;stroke:#1f77b4;" x="135.199681" xlink:href="#m0805ad9662" y="227.992471"/>
     <use style="fill:#1f77b4;stroke:#1f77b4;" x="134.333178" xlink:href="#m0805ad9662" y="225.620084"/>
     <use style="fill:#1f77b4;stroke:#1f77b4;" x="133.577875" xlink:href="#m0805ad9662" y="223.004927"/>
     <use style="fill:#1f77b4;stroke:#1f77b4;" x="132.797621" xlink:href="#m0805ad9662" y="220.216447"/>
     <use style="fill:#1f77b4;stroke:#1f77b4;" x="132.125363" xlink:href="#m0805ad9662" y="217.49281"/>
     <use style="fill:#1f77b4;stroke:#1f77b4;" x="131.457967" xlink:href="#m0805ad9662" y="214.716767"/>
     <use style="fill:#1f77b4;stroke:#1f77b4;" x="130.88421" xlink:href="#m0805ad9662" y="211.810716"/>
     <use style="fill:#1f77b4;stroke:#1f77b4;" x="130.345085" xlink:href="#m0805ad9662" y="208.874528"/>
     <use style="fill:#1f77b4;stroke:#1f77b4;" x="129.835632" xlink:href="#m0805ad9662" y="206.072389"/>
     <use style="fill:#1f77b4;stroke:#1f77b4;" x="129.329878" xlink:href="#m0805ad9662" y="203.253595"/>
     <use style="fill:#1f77b4;stroke:#1f77b4;" x="128.938884" xlink:href="#m0805ad9662" y="200.230747"/>
     <use style="fill:#1f77b4;stroke:#1f77b4;" x="128.511611" xlink:href="#m0805ad9662" y="197.341369"/>
     <use style="fill:#1f77b4;stroke:#1f77b4;" x="128.132096" xlink:href="#m0805ad9662" y="194.373674"/>
     <use style="fill:#1f77b4;stroke:#1f77b4;" x="127.7719" xlink:href="#m0805ad9662" y="191.515243"/>
     <use style="fill:#1f77b4;stroke:#1f77b4;" x="127.403665" xlink:href="#m0805ad9662" y="188.544442"/>
     <use style="fill:#1f77b4;stroke:#1f77b4;" x="127.080933" xlink:href="#m0805ad9662" y="185.686122"/>
     <use style="fill:#1f77b4;stroke:#1f77b4;" x="126.748708" xlink:href="#m0805ad9662" y="183.006446"/>
     <use style="fill:#1f77b4;stroke:#1f77b4;" x="126.466796" xlink:href="#m0805ad9662" y="180.266814"/>
     <use style="fill:#1f77b4;stroke:#1f77b4;" x="126.106022" xlink:href="#m0805ad9662" y="177.412624"/>
     <use style="fill:#1f77b4;stroke:#1f77b4;" x="125.818947" xlink:href="#m0805ad9662" y="174.507972"/>
     <use style="fill:#1f77b4;stroke:#1f77b4;" x="125.535106" xlink:href="#m0805ad9662" y="171.432203"/>
     <use style="fill:#1f77b4;stroke:#1f77b4;" x="125.180588" xlink:href="#m0805ad9662" y="168.273673"/>
     <use style="fill:#1f77b4;stroke:#1f77b4;" x="124.827898" xlink:href="#m0805ad9662" y="164.605797"/>
     <use style="fill:#1f77b4;stroke:#1f77b4;" x="124.495888" xlink:href="#m0805ad9662" y="160.635908"/>
     <use style="fill:#1f77b4;stroke:#1f77b4;" x="124.56312" xlink:href="#m0805ad9662" y="159.676111"/>
     <use style="fill:#1f77b4;stroke:#1f77b4;" x="124.632164" xlink:href="#m0805ad9662" y="158.770994"/>
     <use style="fill:#1f77b4;stroke:#1f77b4;" x="124.694846" xlink:href="#m0805ad9662" y="157.958357"/>
     <use style="fill:#1f77b4;stroke:#1f77b4;" x="124.759113" xlink:href="#m0805ad9662" y="157.171495"/>
     <use style="fill:#1f77b4;stroke:#1f77b4;" x="124.818958" xlink:href="#m0805ad9662" y="156.441928"/>
     <use style="fill:#1f77b4;stroke:#1f77b4;" x="124.876162" xlink:href="#m0805ad9662" y="155.676247"/>
     <use style="fill:#1f77b4;stroke:#1f77b4;" x="124.933936" xlink:href="#m0805ad9662" y="154.997564"/>
     <use style="fill:#1f77b4;stroke:#1f77b4;" x="124.990747" xlink:href="#m0805ad9662" y="154.324503"/>
     <use style="fill:#1f77b4;stroke:#1f77b4;" x="125.038272" xlink:href="#m0805ad9662" y="153.663155"/>
     <use style="fill:#1f77b4;stroke:#1f77b4;" x="125.082155" xlink:href="#m0805ad9662" y="153.03011"/>
     <use style="fill:#1f77b4;stroke:#1f77b4;" x="125.129841" xlink:href="#m0805ad9662" y="152.420776"/>
     <use style="fill:#1f77b4;stroke:#1f77b4;" x="125.165227" xlink:href="#m0805ad9662" y="151.803156"/>
     <use style="fill:#1f77b4;stroke:#1f77b4;" x="125.206546" xlink:href="#m0805ad9662" y="151.189132"/>
     <use style="fill:#1f77b4;stroke:#1f77b4;" x="125.235848" xlink:href="#m0805ad9662" y="150.640191"/>
     <use style="fill:#1f77b4;stroke:#1f77b4;" x="125.27632" xlink:href="#m0805ad9662" y="150.06302"/>
     <use style="fill:#1f77b4;stroke:#1f77b4;" x="125.302128" xlink:href="#m0805ad9662" y="149.521969"/>
     <use style="fill:#1f77b4;stroke:#1f77b4;" x="125.321016" xlink:href="#m0805ad9662" y="148.979834"/>
     <use style="fill:#1f77b4;stroke:#1f77b4;" x="125.352067" xlink:href="#m0805ad9662" y="148.447595"/>
     <use style="fill:#1f77b4;stroke:#1f77b4;" x="125.370058" xlink:href="#m0805ad9662" y="147.928347"/>
     <use style="fill:#1f77b4;stroke:#1f77b4;" x="125.392507" xlink:href="#m0805ad9662" y="147.426426"/>
     <use style="fill:#1f77b4;stroke:#1f77b4;" x="125.410513" xlink:href="#m0805ad9662" y="146.924216"/>
     <use style="fill:#1f77b4;stroke:#1f77b4;" x="125.424868" xlink:href="#m0805ad9662" y="146.442156"/>
     <use style="fill:#1f77b4;stroke:#1f77b4;" x="125.439683" xlink:href="#m0805ad9662" y="145.94226"/>
     <use style="fill:#1f77b4;stroke:#1f77b4;" x="125.450231" xlink:href="#m0805ad9662" y="145.419416"/>
     <use style="fill:#1f77b4;stroke:#1f77b4;" x="125.452469" xlink:href="#m0805ad9662" y="144.895815"/>
     <use style="fill:#1f77b4;stroke:#1f77b4;" x="125.468416" xlink:href="#m0805ad9662" y="144.794206"/>
     <use style="fill:#1f77b4;stroke:#1f77b4;" x="125.487697" xlink:href="#m0805ad9662" y="144.694628"/>
     <use style="fill:#1f77b4;stroke:#1f77b4;" x="125.506382" xlink:href="#m0805ad9662" y="144.608071"/>
     <use style="fill:#1f77b4;stroke:#1f77b4;" x="125.526378" xlink:href="#m0805ad9662" y="144.534319"/>
     <use style="fill:#1f77b4;stroke:#1f77b4;" x="125.546435" xlink:href="#m0805ad9662" y="144.470321"/>
     <use style="fill:#1f77b4;stroke:#1f77b4;" x="125.568275" xlink:href="#m0805ad9662" y="144.416378"/>
     <use style="fill:#1f77b4;stroke:#1f77b4;" x="125.588829" xlink:href="#m0805ad9662" y="144.368296"/>
     <use style="fill:#1f77b4;stroke:#1f77b4;" x="125.609779" xlink:href="#m0805ad9662" y="144.327086"/>
     <use style="fill:#1f77b4;stroke:#1f77b4;" x="125.630646" xlink:href="#m0805ad9662" y="144.282626"/>
     <use style="fill:#1f77b4;stroke:#1f77b4;" x="125.652525" xlink:href="#m0805ad9662" y="144.242695"/>
     <use style="fill:#1f77b4;stroke:#1f77b4;" x="125.673732" xlink:href="#m0805ad9662" y="144.209617"/>
     <use style="fill:#1f77b4;stroke:#1f77b4;" x="125.696147" xlink:href="#m0805ad9662" y="144.18346"/>
     <use style="fill:#1f77b4;stroke:#1f77b4;" x="125.717888" xlink:href="#m0805ad9662" y="144.161778"/>
     <use style="fill:#1f77b4;stroke:#1f77b4;" x="125.738195" xlink:href="#m0805ad9662" y="144.14587"/>
     <use style="fill:#1f77b4;stroke:#1f77b4;" x="125.760301" xlink:href="#m0805ad9662" y="144.124378"/>
     <use style="fill:#1f77b4;stroke:#1f77b4;" x="125.782067" xlink:href="#m0805ad9662" y="144.102451"/>
     <use style="fill:#1f77b4;stroke:#1f77b4;" x="125.803966" xlink:href="#m0805ad9662" y="144.091519"/>
     <use style="fill:#1f77b4;stroke:#1f77b4;" x="125.824915" xlink:href="#m0805ad9662" y="144.078434"/>
     <use style="fill:#1f77b4;stroke:#1f77b4;" x="125.84786" xlink:href="#m0805ad9662" y="144.071165"/>
     <use style="fill:#1f77b4;stroke:#1f77b4;" x="125.870638" xlink:href="#m0805ad9662" y="144.060202"/>
     <use style="fill:#1f77b4;stroke:#1f77b4;" x="125.892871" xlink:href="#m0805ad9662" y="144.056794"/>
     <use style="fill:#1f77b4;stroke:#1f77b4;" x="125.914984" xlink:href="#m0805ad9662" y="144.058213"/>
     <use style="fill:#1f77b4;stroke:#1f77b4;" x="125.938095" xlink:href="#m0805ad9662" y="144.057109"/>
     <use style="fill:#1f77b4;stroke:#1f77b4;" x="125.960868" xlink:href="#m0805ad9662" y="144.058631"/>
    </g>
   </g>
   <g id="patch_3">
    <path d="M 56.028488 277.111219 
L 56.028488 10.999219 
" style="fill:none;stroke:#000000;stroke-linecap:square;stroke-linejoin:miter;stroke-width:0.8;"/>
   </g>
   <g id="patch_4">
    <path d="M 413.148488 277.111219 
L 413.148488 10.999219 
" style="fill:none;stroke:#000000;stroke-linecap:square;stroke-linejoin:miter;stroke-width:0.8;"/>
   </g>
   <g id="patch_5">
    <path d="M 56.028488 277.111219 
L 413.148488 277.111219 
" style="fill:none;stroke:#000000;stroke-linecap:square;stroke-linejoin:miter;stroke-width:0.8;"/>
   </g>
   <g id="patch_6">
    <path d="M 56.028488 10.999219 
L 413.148488 10.999219 
" style="fill:none;stroke:#000000;stroke-linecap:square;stroke-linejoin:miter;stroke-width:0.8;"/>
   </g>
   <g id="text_18">
    <g clip-path="url(#p16d632f4ac)">
     <!-- 1.000 -->
     <g style="fill:#482576;" transform="translate(122.075302 130.649504)rotate(-317.855337)scale(0.06 -0.06)">
      <use xlink:href="#DejaVuSans-49"/>
      <use x="63.623047" xlink:href="#DejaVuSans-46"/>
      <use x="95.410156" xlink:href="#DejaVuSans-48"/>
      <use x="159.033203" xlink:href="#DejaVuSans-48"/>
      <use x="222.65625" xlink:href="#DejaVuSans-48"/>
     </g>
    </g>
   </g>
   <g id="text_19">
    <g clip-path="url(#p16d632f4ac)">
     <!-- 1.500 -->
     <g style="fill:#453781;" transform="translate(126.521383 137.521648)rotate(-300.758654)scale(0.06 -0.06)">
      <use xlink:href="#DejaVuSans-49"/>
      <use x="63.623047" xlink:href="#DejaVuSans-46"/>
      <use x="95.410156" xlink:href="#DejaVuSans-53"/>
      <use x="159.033203" xlink:href="#DejaVuSans-48"/>
      <use x="222.65625" xlink:href="#DejaVuSans-48"/>
     </g>
    </g>
   </g>
   <g id="text_20">
    <g clip-path="url(#p16d632f4ac)">
     <!-- 2.000 -->
     <g style="fill:#404688;" transform="translate(114.146718 130.050362)rotate(-14.374463)scale(0.06 -0.06)">
      <use xlink:href="#DejaVuSans-50"/>
      <use x="63.623047" xlink:href="#DejaVuSans-46"/>
      <use x="95.410156" xlink:href="#DejaVuSans-48"/>
      <use x="159.033203" xlink:href="#DejaVuSans-48"/>
      <use x="222.65625" xlink:href="#DejaVuSans-48"/>
     </g>
    </g>
   </g>
   <g id="text_21">
    <g clip-path="url(#p16d632f4ac)">
     <!-- 2.500 -->
     <g style="fill:#39558c;" transform="translate(110.016369 152.545016)rotate(-65.17141)scale(0.06 -0.06)">
      <use xlink:href="#DejaVuSans-50"/>
      <use x="63.623047" xlink:href="#DejaVuSans-46"/>
      <use x="95.410156" xlink:href="#DejaVuSans-53"/>
      <use x="159.033203" xlink:href="#DejaVuSans-48"/>
      <use x="222.65625" xlink:href="#DejaVuSans-48"/>
     </g>
    </g>
   </g>
   <g id="text_22">
    <g clip-path="url(#p16d632f4ac)">
     <!-- 3.000 -->
     <g style="fill:#33638d;" transform="translate(103.096879 186.752448)rotate(-338.183154)scale(0.06 -0.06)">
      <defs>
       <path d="M 40.578125 39.3125 
Q 47.65625 37.796875 51.625 33 
Q 55.609375 28.21875 55.609375 21.1875 
Q 55.609375 10.40625 48.1875 4.484375 
Q 40.765625 -1.421875 27.09375 -1.421875 
Q 22.515625 -1.421875 17.65625 -0.515625 
Q 12.796875 0.390625 7.625 2.203125 
L 7.625 11.71875 
Q 11.71875 9.328125 16.59375 8.109375 
Q 21.484375 6.890625 26.8125 6.890625 
Q 36.078125 6.890625 40.9375 10.546875 
Q 45.796875 14.203125 45.796875 21.1875 
Q 45.796875 27.640625 41.28125 31.265625 
Q 36.765625 34.90625 28.71875 34.90625 
L 20.21875 34.90625 
L 20.21875 43.015625 
L 29.109375 43.015625 
Q 36.375 43.015625 40.234375 45.921875 
Q 44.09375 48.828125 44.09375 54.296875 
Q 44.09375 59.90625 40.109375 62.90625 
Q 36.140625 65.921875 28.71875 65.921875 
Q 24.65625 65.921875 20.015625 65.03125 
Q 15.375 64.15625 9.8125 62.3125 
L 9.8125 71.09375 
Q 15.4375 72.65625 20.34375 73.4375 
Q 25.25 74.21875 29.59375 74.21875 
Q 40.828125 74.21875 47.359375 69.109375 
Q 53.90625 64.015625 53.90625 55.328125 
Q 53.90625 49.265625 50.4375 45.09375 
Q 46.96875 40.921875 40.578125 39.3125 
z
" id="DejaVuSans-51"/>
      </defs>
      <use xlink:href="#DejaVuSans-51"/>
      <use x="63.623047" xlink:href="#DejaVuSans-46"/>
      <use x="95.410156" xlink:href="#DejaVuSans-48"/>
      <use x="159.033203" xlink:href="#DejaVuSans-48"/>
      <use x="222.65625" xlink:href="#DejaVuSans-48"/>
     </g>
    </g>
   </g>
   <g id="text_23">
    <g clip-path="url(#p16d632f4ac)">
     <!-- 3.500 -->
     <g style="fill:#2d718e;" transform="translate(102.927118 183.449352)rotate(-314.55884)scale(0.06 -0.06)">
      <use xlink:href="#DejaVuSans-51"/>
      <use x="63.623047" xlink:href="#DejaVuSans-46"/>
      <use x="95.410156" xlink:href="#DejaVuSans-53"/>
      <use x="159.033203" xlink:href="#DejaVuSans-48"/>
      <use x="222.65625" xlink:href="#DejaVuSans-48"/>
     </g>
    </g>
   </g>
   <g id="text_24">
    <g clip-path="url(#p16d632f4ac)">
     <!-- 4.000 -->
     <g style="fill:#287d8e;" transform="translate(103.151594 196.88989)rotate(-346.548013)scale(0.06 -0.06)">
      <use xlink:href="#DejaVuSans-52"/>
      <use x="63.623047" xlink:href="#DejaVuSans-46"/>
      <use x="95.410156" xlink:href="#DejaVuSans-48"/>
      <use x="159.033203" xlink:href="#DejaVuSans-48"/>
      <use x="222.65625" xlink:href="#DejaVuSans-48"/>
     </g>
    </g>
   </g>
   <g id="text_25">
    <g clip-path="url(#p16d632f4ac)">
     <!-- 4.500 -->
     <g style="fill:#238a8d;" transform="translate(103.06212 195.947055)rotate(-340.338681)scale(0.06 -0.06)">
      <use xlink:href="#DejaVuSans-52"/>
      <use x="63.623047" xlink:href="#DejaVuSans-46"/>
      <use x="95.410156" xlink:href="#DejaVuSans-53"/>
      <use x="159.033203" xlink:href="#DejaVuSans-48"/>
      <use x="222.65625" xlink:href="#DejaVuSans-48"/>
     </g>
    </g>
   </g>
   <g id="text_26">
    <g clip-path="url(#p16d632f4ac)">
     <!-- 5.000 -->
     <g style="fill:#1f968b;" transform="translate(102.952692 195.536524)rotate(-337.606703)scale(0.06 -0.06)">
      <use xlink:href="#DejaVuSans-53"/>
      <use x="63.623047" xlink:href="#DejaVuSans-46"/>
      <use x="95.410156" xlink:href="#DejaVuSans-48"/>
      <use x="159.033203" xlink:href="#DejaVuSans-48"/>
      <use x="222.65625" xlink:href="#DejaVuSans-48"/>
     </g>
    </g>
   </g>
   <g id="text_27">
    <g clip-path="url(#p16d632f4ac)">
     <!-- 5.500 -->
     <g style="fill:#20a386;" transform="translate(102.870696 195.098813)rotate(-334.664211)scale(0.06 -0.06)">
      <use xlink:href="#DejaVuSans-53"/>
      <use x="63.623047" xlink:href="#DejaVuSans-46"/>
      <use x="95.410156" xlink:href="#DejaVuSans-53"/>
      <use x="159.033203" xlink:href="#DejaVuSans-48"/>
      <use x="222.65625" xlink:href="#DejaVuSans-48"/>
     </g>
    </g>
   </g>
   <g id="text_28">
    <g clip-path="url(#p16d632f4ac)">
     <!-- 6.000 -->
     <g style="fill:#29af7f;" transform="translate(102.800915 194.699434)rotate(-331.945249)scale(0.06 -0.06)">
      <use xlink:href="#DejaVuSans-54"/>
      <use x="63.623047" xlink:href="#DejaVuSans-46"/>
      <use x="95.410156" xlink:href="#DejaVuSans-48"/>
      <use x="159.033203" xlink:href="#DejaVuSans-48"/>
      <use x="222.65625" xlink:href="#DejaVuSans-48"/>
     </g>
    </g>
   </g>
   <g id="text_29">
    <g clip-path="url(#p16d632f4ac)">
     <!-- 6.500 -->
     <g style="fill:#3dbc74;" transform="translate(102.738568 194.337564)rotate(-329.446952)scale(0.06 -0.06)">
      <use xlink:href="#DejaVuSans-54"/>
      <use x="63.623047" xlink:href="#DejaVuSans-46"/>
      <use x="95.410156" xlink:href="#DejaVuSans-53"/>
      <use x="159.033203" xlink:href="#DejaVuSans-48"/>
      <use x="222.65625" xlink:href="#DejaVuSans-48"/>
     </g>
    </g>
   </g>
   <g id="text_30">
    <g clip-path="url(#p16d632f4ac)">
     <!-- 7.000 -->
     <g style="fill:#56c667;" transform="translate(102.679518 194.01183)rotate(-327.164521)scale(0.06 -0.06)">
      <use xlink:href="#DejaVuSans-55"/>
      <use x="63.623047" xlink:href="#DejaVuSans-46"/>
      <use x="95.410156" xlink:href="#DejaVuSans-48"/>
      <use x="159.033203" xlink:href="#DejaVuSans-48"/>
      <use x="222.65625" xlink:href="#DejaVuSans-48"/>
     </g>
    </g>
   </g>
   <g id="text_31">
    <g clip-path="url(#p16d632f4ac)">
     <!-- 7.500 -->
     <g style="fill:#75d054;" transform="translate(102.620263 193.720517)rotate(-325.091923)scale(0.06 -0.06)">
      <use xlink:href="#DejaVuSans-55"/>
      <use x="63.623047" xlink:href="#DejaVuSans-46"/>
      <use x="95.410156" xlink:href="#DejaVuSans-53"/>
      <use x="159.033203" xlink:href="#DejaVuSans-48"/>
      <use x="222.65625" xlink:href="#DejaVuSans-48"/>
     </g>
    </g>
   </g>
   <g id="text_32">
    <g clip-path="url(#p16d632f4ac)">
     <!-- 8.000 -->
     <g style="fill:#95d840;" transform="translate(107.270457 206.807578)rotate(-9.073527)scale(0.06 -0.06)">
      <use xlink:href="#DejaVuSans-56"/>
      <use x="63.623047" xlink:href="#DejaVuSans-46"/>
      <use x="95.410156" xlink:href="#DejaVuSans-48"/>
      <use x="159.033203" xlink:href="#DejaVuSans-48"/>
      <use x="222.65625" xlink:href="#DejaVuSans-48"/>
     </g>
    </g>
   </g>
   <g id="text_33">
    <g clip-path="url(#p16d632f4ac)">
     <!-- 8.500 -->
     <g style="fill:#bade28;" transform="translate(107.267242 207.805636)rotate(-9.011815)scale(0.06 -0.06)">
      <use xlink:href="#DejaVuSans-56"/>
      <use x="63.623047" xlink:href="#DejaVuSans-46"/>
      <use x="95.410156" xlink:href="#DejaVuSans-53"/>
      <use x="159.033203" xlink:href="#DejaVuSans-48"/>
      <use x="222.65625" xlink:href="#DejaVuSans-48"/>
     </g>
    </g>
   </g>
   <g id="text_34">
    <g clip-path="url(#p16d632f4ac)">
     <!-- 9.000 -->
     <g style="fill:#dde318;" transform="translate(107.262975 208.80075)rotate(-8.929624)scale(0.06 -0.06)">
      <defs>
       <path d="M 10.984375 1.515625 
L 10.984375 10.5 
Q 14.703125 8.734375 18.5 7.8125 
Q 22.3125 6.890625 25.984375 6.890625 
Q 35.75 6.890625 40.890625 13.453125 
Q 46.046875 20.015625 46.78125 33.40625 
Q 43.953125 29.203125 39.59375 26.953125 
Q 35.25 24.703125 29.984375 24.703125 
Q 19.046875 24.703125 12.671875 31.3125 
Q 6.296875 37.9375 6.296875 49.421875 
Q 6.296875 60.640625 12.9375 67.421875 
Q 19.578125 74.21875 30.609375 74.21875 
Q 43.265625 74.21875 49.921875 64.515625 
Q 56.59375 54.828125 56.59375 36.375 
Q 56.59375 19.140625 48.40625 8.859375 
Q 40.234375 -1.421875 26.421875 -1.421875 
Q 22.703125 -1.421875 18.890625 -0.6875 
Q 15.09375 0.046875 10.984375 1.515625 
z
M 30.609375 32.421875 
Q 37.25 32.421875 41.125 36.953125 
Q 45.015625 41.5 45.015625 49.421875 
Q 45.015625 57.28125 41.125 61.84375 
Q 37.25 66.40625 30.609375 66.40625 
Q 23.96875 66.40625 20.09375 61.84375 
Q 16.21875 57.28125 16.21875 49.421875 
Q 16.21875 41.5 20.09375 36.953125 
Q 23.96875 32.421875 30.609375 32.421875 
z
" id="DejaVuSans-57"/>
      </defs>
      <use xlink:href="#DejaVuSans-57"/>
      <use x="63.623047" xlink:href="#DejaVuSans-46"/>
      <use x="95.410156" xlink:href="#DejaVuSans-48"/>
      <use x="159.033203" xlink:href="#DejaVuSans-48"/>
      <use x="222.65625" xlink:href="#DejaVuSans-48"/>
     </g>
    </g>
   </g>
   <g id="text_35">
    <g clip-path="url(#p16d632f4ac)">
     <!-- 9.500 -->
     <g style="fill:#fde725;" transform="translate(113.994814 201.34342)rotate(-16.788958)scale(0.06 -0.06)">
      <use xlink:href="#DejaVuSans-57"/>
      <use x="63.623047" xlink:href="#DejaVuSans-46"/>
      <use x="95.410156" xlink:href="#DejaVuSans-53"/>
      <use x="159.033203" xlink:href="#DejaVuSans-48"/>
      <use x="222.65625" xlink:href="#DejaVuSans-48"/>
     </g>
    </g>
   </g>
   <g id="text_36">
    <g clip-path="url(#p16d632f4ac)">
     <!-- 10.000 -->
     <g style="fill:#440154;" transform="translate(103.642841 207.110809)rotate(-356.235159)scale(0.06 -0.06)">
      <use xlink:href="#DejaVuSans-49"/>
      <use x="63.623047" xlink:href="#DejaVuSans-48"/>
      <use x="127.246094" xlink:href="#DejaVuSans-46"/>
      <use x="159.033203" xlink:href="#DejaVuSans-48"/>
      <use x="222.65625" xlink:href="#DejaVuSans-48"/>
      <use x="286.279297" xlink:href="#DejaVuSans-48"/>
     </g>
    </g>
   </g>
   <g id="text_37">
    <g clip-path="url(#p16d632f4ac)">
     <!-- 100.000 -->
     <g style="fill:#440154;" transform="translate(94.270593 134.798356)rotate(-35.074522)scale(0.06 -0.06)">
      <use xlink:href="#DejaVuSans-49"/>
      <use x="63.623047" xlink:href="#DejaVuSans-48"/>
      <use x="127.246094" xlink:href="#DejaVuSans-48"/>
      <use x="190.869141" xlink:href="#DejaVuSans-46"/>
      <use x="222.65625" xlink:href="#DejaVuSans-48"/>
      <use x="286.279297" xlink:href="#DejaVuSans-48"/>
      <use x="349.902344" xlink:href="#DejaVuSans-48"/>
     </g>
    </g>
   </g>
   <g id="text_38">
    <g clip-path="url(#p16d632f4ac)">
     <!-- 1000.000 -->
     <g style="fill:#440154;" transform="translate(109.233239 245.126191)rotate(-16.524112)scale(0.06 -0.06)">
      <use xlink:href="#DejaVuSans-49"/>
      <use x="63.623047" xlink:href="#DejaVuSans-48"/>
      <use x="127.246094" xlink:href="#DejaVuSans-48"/>
      <use x="190.869141" xlink:href="#DejaVuSans-48"/>
      <use x="254.492188" xlink:href="#DejaVuSans-46"/>
      <use x="286.279297" xlink:href="#DejaVuSans-48"/>
      <use x="349.902344" xlink:href="#DejaVuSans-48"/>
      <use x="413.525391" xlink:href="#DejaVuSans-48"/>
     </g>
    </g>
   </g>
   <g id="text_39">
    <g clip-path="url(#p16d632f4ac)">
     <!-- 10000.000 -->
     <g style="fill:#440154;" transform="translate(106.612985 262.331772)rotate(-7.434075)scale(0.06 -0.06)">
      <use xlink:href="#DejaVuSans-49"/>
      <use x="63.623047" xlink:href="#DejaVuSans-48"/>
      <use x="127.246094" xlink:href="#DejaVuSans-48"/>
      <use x="190.869141" xlink:href="#DejaVuSans-48"/>
      <use x="254.492188" xlink:href="#DejaVuSans-48"/>
      <use x="318.115234" xlink:href="#DejaVuSans-46"/>
      <use x="349.902344" xlink:href="#DejaVuSans-48"/>
      <use x="413.525391" xlink:href="#DejaVuSans-48"/>
      <use x="477.148438" xlink:href="#DejaVuSans-48"/>
     </g>
    </g>
   </g>
   <g id="text_40">
    <g clip-path="url(#p16d632f4ac)">
     <!-- 100000.000 -->
     <g style="fill:#440154;" transform="translate(109.303924 275.390845)rotate(-17.905115)scale(0.06 -0.06)">
      <use xlink:href="#DejaVuSans-49"/>
      <use x="63.623047" xlink:href="#DejaVuSans-48"/>
      <use x="127.246094" xlink:href="#DejaVuSans-48"/>
      <use x="190.869141" xlink:href="#DejaVuSans-48"/>
      <use x="254.492188" xlink:href="#DejaVuSans-48"/>
      <use x="318.115234" xlink:href="#DejaVuSans-48"/>
      <use x="381.738281" xlink:href="#DejaVuSans-46"/>
      <use x="413.525391" xlink:href="#DejaVuSans-48"/>
      <use x="477.148438" xlink:href="#DejaVuSans-48"/>
      <use x="540.771484" xlink:href="#DejaVuSans-48"/>
     </g>
    </g>
   </g>
   <g id="text_41">
    <g clip-path="url(#p16d632f4ac)">
     <!-- 1000000.000 -->
     <g style="fill:#450457;" transform="translate(79.402991 134.882753)rotate(-55.412435)scale(0.06 -0.06)">
      <use xlink:href="#DejaVuSans-49"/>
      <use x="63.623047" xlink:href="#DejaVuSans-48"/>
      <use x="127.246094" xlink:href="#DejaVuSans-48"/>
      <use x="190.869141" xlink:href="#DejaVuSans-48"/>
      <use x="254.492188" xlink:href="#DejaVuSans-48"/>
      <use x="318.115234" xlink:href="#DejaVuSans-48"/>
      <use x="381.738281" xlink:href="#DejaVuSans-48"/>
      <use x="445.361328" xlink:href="#DejaVuSans-46"/>
      <use x="477.148438" xlink:href="#DejaVuSans-48"/>
      <use x="540.771484" xlink:href="#DejaVuSans-48"/>
      <use x="604.394531" xlink:href="#DejaVuSans-48"/>
     </g>
    </g>
   </g>
   <g id="text_42">
    <g clip-path="url(#p16d632f4ac)">
     <!-- 10000000.000 -->
     <g style="fill:#482475;" transform="translate(85.21044 252.791027)rotate(-329.700312)scale(0.06 -0.06)">
      <use xlink:href="#DejaVuSans-49"/>
      <use x="63.623047" xlink:href="#DejaVuSans-48"/>
      <use x="127.246094" xlink:href="#DejaVuSans-48"/>
      <use x="190.869141" xlink:href="#DejaVuSans-48"/>
      <use x="254.492188" xlink:href="#DejaVuSans-48"/>
      <use x="318.115234" xlink:href="#DejaVuSans-48"/>
      <use x="381.738281" xlink:href="#DejaVuSans-48"/>
      <use x="445.361328" xlink:href="#DejaVuSans-48"/>
      <use x="508.984375" xlink:href="#DejaVuSans-46"/>
      <use x="540.771484" xlink:href="#DejaVuSans-48"/>
      <use x="604.394531" xlink:href="#DejaVuSans-48"/>
      <use x="668.017578" xlink:href="#DejaVuSans-48"/>
     </g>
    </g>
   </g>
   <g id="text_43">
    <g clip-path="url(#p16d632f4ac)">
     <!-- 100000000.000 -->
     <g style="fill:#fde725;" transform="translate(67.793865 212.416611)rotate(-321.550595)scale(0.06 -0.06)">
      <use xlink:href="#DejaVuSans-49"/>
      <use x="63.623047" xlink:href="#DejaVuSans-48"/>
      <use x="127.246094" xlink:href="#DejaVuSans-48"/>
      <use x="190.869141" xlink:href="#DejaVuSans-48"/>
      <use x="254.492188" xlink:href="#DejaVuSans-48"/>
      <use x="318.115234" xlink:href="#DejaVuSans-48"/>
      <use x="381.738281" xlink:href="#DejaVuSans-48"/>
      <use x="445.361328" xlink:href="#DejaVuSans-48"/>
      <use x="508.984375" xlink:href="#DejaVuSans-48"/>
      <use x="572.607422" xlink:href="#DejaVuSans-46"/>
      <use x="604.394531" xlink:href="#DejaVuSans-48"/>
      <use x="668.017578" xlink:href="#DejaVuSans-48"/>
      <use x="731.640625" xlink:href="#DejaVuSans-48"/>
     </g>
    </g>
   </g>
  </g>
 </g>
 <defs>
  <clipPath id="p16d632f4ac">
   <rect height="266.112" width="357.12" x="56.028488" y="10.999219"/>
  </clipPath>
 </defs>
</svg>
