<?xml version="1.0" encoding="utf-8" standalone="no"?>
<!DOCTYPE svg PUBLIC "-//W3C//DTD SVG 1.1//EN"
  "http://www.w3.org/Graphics/SVG/1.1/DTD/svg11.dtd">
<!-- Created with matplotlib (https://matplotlib.org/) -->
<svg height="321.713144pt" version="1.1" viewBox="0 0 420.348487 321.713144" width="420.348487pt" xmlns="http://www.w3.org/2000/svg" xmlns:xlink="http://www.w3.org/1999/xlink">
 <metadata>
  <rdf:RDF xmlns:cc="http://creativecommons.org/ns#" xmlns:dc="http://purl.org/dc/elements/1.1/" xmlns:rdf="http://www.w3.org/1999/02/22-rdf-syntax-ns#">
   <cc:Work>
    <dc:type rdf:resource="http://purl.org/dc/dcmitype/StillImage"/>
    <dc:date>2021-09-21T23:35:47.069987</dc:date>
    <dc:format>image/svg+xml</dc:format>
    <dc:creator>
     <cc:Agent>
      <dc:title>Matplotlib v3.3.1, https://matplotlib.org/</dc:title>
     </cc:Agent>
    </dc:creator>
   </cc:Work>
  </rdf:RDF>
 </metadata>
 <defs>
  <style type="text/css">*{stroke-linecap:butt;stroke-linejoin:round;}</style>
 </defs>
 <g id="figure_1">
  <g id="patch_1">
   <path d="M 0 321.713144 
L 420.348487 321.713144 
L 420.348487 0 
L 0 0 
z
" style="fill:#ffffff;"/>
  </g>
  <g id="axes_1">
   <g id="patch_2">
    <path d="M 56.028488 277.111219 
L 413.148488 277.111219 
L 413.148488 10.999219 
L 56.028488 10.999219 
z
" style="fill:#ffffff;"/>
   </g>
   <g id="matplotlib.axis_1">
    <g id="xtick_1">
     <g id="line2d_1">
      <defs>
       <path d="M 0 0 
L 0 3.5 
" id="m1216590745" style="stroke:#000000;stroke-width:0.8;"/>
      </defs>
      <g>
       <use style="stroke:#000000;stroke-width:0.8;" x="56.028488" xlink:href="#m1216590745" y="277.111219"/>
      </g>
     </g>
     <g id="text_1">
      <!-- −20 -->
      <g transform="translate(45.476144 291.709656)scale(0.1 -0.1)">
       <defs>
        <path d="M 10.59375 35.5 
L 73.1875 35.5 
L 73.1875 27.203125 
L 10.59375 27.203125 
z
" id="DejaVuSans-8722"/>
        <path d="M 19.1875 8.296875 
L 53.609375 8.296875 
L 53.609375 0 
L 7.328125 0 
L 7.328125 8.296875 
Q 12.9375 14.109375 22.625 23.890625 
Q 32.328125 33.6875 34.8125 36.53125 
Q 39.546875 41.84375 41.421875 45.53125 
Q 43.3125 49.21875 43.3125 52.78125 
Q 43.3125 58.59375 39.234375 62.25 
Q 35.15625 65.921875 28.609375 65.921875 
Q 23.96875 65.921875 18.8125 64.3125 
Q 13.671875 62.703125 7.8125 59.421875 
L 7.8125 69.390625 
Q 13.765625 71.78125 18.9375 73 
Q 24.125 74.21875 28.421875 74.21875 
Q 39.75 74.21875 46.484375 68.546875 
Q 53.21875 62.890625 53.21875 53.421875 
Q 53.21875 48.921875 51.53125 44.890625 
Q 49.859375 40.875 45.40625 35.40625 
Q 44.1875 33.984375 37.640625 27.21875 
Q 31.109375 20.453125 19.1875 8.296875 
z
" id="DejaVuSans-50"/>
        <path d="M 31.78125 66.40625 
Q 24.171875 66.40625 20.328125 58.90625 
Q 16.5 51.421875 16.5 36.375 
Q 16.5 21.390625 20.328125 13.890625 
Q 24.171875 6.390625 31.78125 6.390625 
Q 39.453125 6.390625 43.28125 13.890625 
Q 47.125 21.390625 47.125 36.375 
Q 47.125 51.421875 43.28125 58.90625 
Q 39.453125 66.40625 31.78125 66.40625 
z
M 31.78125 74.21875 
Q 44.046875 74.21875 50.515625 64.515625 
Q 56.984375 54.828125 56.984375 36.375 
Q 56.984375 17.96875 50.515625 8.265625 
Q 44.046875 -1.421875 31.78125 -1.421875 
Q 19.53125 -1.421875 13.0625 8.265625 
Q 6.59375 17.96875 6.59375 36.375 
Q 6.59375 54.828125 13.0625 64.515625 
Q 19.53125 74.21875 31.78125 74.21875 
z
" id="DejaVuSans-48"/>
       </defs>
       <use xlink:href="#DejaVuSans-8722"/>
       <use x="83.789062" xlink:href="#DejaVuSans-50"/>
       <use x="147.412109" xlink:href="#DejaVuSans-48"/>
      </g>
     </g>
    </g>
    <g id="xtick_2">
     <g id="line2d_2">
      <g>
       <use style="stroke:#000000;stroke-width:0.8;" x="98.042605" xlink:href="#m1216590745" y="277.111219"/>
      </g>
     </g>
     <g id="text_2">
      <!-- 0 -->
      <g transform="translate(94.861355 291.709656)scale(0.1 -0.1)">
       <use xlink:href="#DejaVuSans-48"/>
      </g>
     </g>
    </g>
    <g id="xtick_3">
     <g id="line2d_3">
      <g>
       <use style="stroke:#000000;stroke-width:0.8;" x="140.056723" xlink:href="#m1216590745" y="277.111219"/>
      </g>
     </g>
     <g id="text_3">
      <!-- 20 -->
      <g transform="translate(133.694223 291.709656)scale(0.1 -0.1)">
       <use xlink:href="#DejaVuSans-50"/>
       <use x="63.623047" xlink:href="#DejaVuSans-48"/>
      </g>
     </g>
    </g>
    <g id="xtick_4">
     <g id="line2d_4">
      <g>
       <use style="stroke:#000000;stroke-width:0.8;" x="182.07084" xlink:href="#m1216590745" y="277.111219"/>
      </g>
     </g>
     <g id="text_4">
      <!-- 40 -->
      <g transform="translate(175.70834 291.709656)scale(0.1 -0.1)">
       <defs>
        <path d="M 37.796875 64.3125 
L 12.890625 25.390625 
L 37.796875 25.390625 
z
M 35.203125 72.90625 
L 47.609375 72.90625 
L 47.609375 25.390625 
L 58.015625 25.390625 
L 58.015625 17.1875 
L 47.609375 17.1875 
L 47.609375 0 
L 37.796875 0 
L 37.796875 17.1875 
L 4.890625 17.1875 
L 4.890625 26.703125 
z
" id="DejaVuSans-52"/>
       </defs>
       <use xlink:href="#DejaVuSans-52"/>
       <use x="63.623047" xlink:href="#DejaVuSans-48"/>
      </g>
     </g>
    </g>
    <g id="xtick_5">
     <g id="line2d_5">
      <g>
       <use style="stroke:#000000;stroke-width:0.8;" x="224.084958" xlink:href="#m1216590745" y="277.111219"/>
      </g>
     </g>
     <g id="text_5">
      <!-- 60 -->
      <g transform="translate(217.722458 291.709656)scale(0.1 -0.1)">
       <defs>
        <path d="M 33.015625 40.375 
Q 26.375 40.375 22.484375 35.828125 
Q 18.609375 31.296875 18.609375 23.390625 
Q 18.609375 15.53125 22.484375 10.953125 
Q 26.375 6.390625 33.015625 6.390625 
Q 39.65625 6.390625 43.53125 10.953125 
Q 47.40625 15.53125 47.40625 23.390625 
Q 47.40625 31.296875 43.53125 35.828125 
Q 39.65625 40.375 33.015625 40.375 
z
M 52.59375 71.296875 
L 52.59375 62.3125 
Q 48.875 64.0625 45.09375 64.984375 
Q 41.3125 65.921875 37.59375 65.921875 
Q 27.828125 65.921875 22.671875 59.328125 
Q 17.53125 52.734375 16.796875 39.40625 
Q 19.671875 43.65625 24.015625 45.921875 
Q 28.375 48.1875 33.59375 48.1875 
Q 44.578125 48.1875 50.953125 41.515625 
Q 57.328125 34.859375 57.328125 23.390625 
Q 57.328125 12.15625 50.6875 5.359375 
Q 44.046875 -1.421875 33.015625 -1.421875 
Q 20.359375 -1.421875 13.671875 8.265625 
Q 6.984375 17.96875 6.984375 36.375 
Q 6.984375 53.65625 15.1875 63.9375 
Q 23.390625 74.21875 37.203125 74.21875 
Q 40.921875 74.21875 44.703125 73.484375 
Q 48.484375 72.75 52.59375 71.296875 
z
" id="DejaVuSans-54"/>
       </defs>
       <use xlink:href="#DejaVuSans-54"/>
       <use x="63.623047" xlink:href="#DejaVuSans-48"/>
      </g>
     </g>
    </g>
    <g id="xtick_6">
     <g id="line2d_6">
      <g>
       <use style="stroke:#000000;stroke-width:0.8;" x="266.099076" xlink:href="#m1216590745" y="277.111219"/>
      </g>
     </g>
     <g id="text_6">
      <!-- 80 -->
      <g transform="translate(259.736576 291.709656)scale(0.1 -0.1)">
       <defs>
        <path d="M 31.78125 34.625 
Q 24.75 34.625 20.71875 30.859375 
Q 16.703125 27.09375 16.703125 20.515625 
Q 16.703125 13.921875 20.71875 10.15625 
Q 24.75 6.390625 31.78125 6.390625 
Q 38.8125 6.390625 42.859375 10.171875 
Q 46.921875 13.96875 46.921875 20.515625 
Q 46.921875 27.09375 42.890625 30.859375 
Q 38.875 34.625 31.78125 34.625 
z
M 21.921875 38.8125 
Q 15.578125 40.375 12.03125 44.71875 
Q 8.5 49.078125 8.5 55.328125 
Q 8.5 64.0625 14.71875 69.140625 
Q 20.953125 74.21875 31.78125 74.21875 
Q 42.671875 74.21875 48.875 69.140625 
Q 55.078125 64.0625 55.078125 55.328125 
Q 55.078125 49.078125 51.53125 44.71875 
Q 48 40.375 41.703125 38.8125 
Q 48.828125 37.15625 52.796875 32.3125 
Q 56.78125 27.484375 56.78125 20.515625 
Q 56.78125 9.90625 50.3125 4.234375 
Q 43.84375 -1.421875 31.78125 -1.421875 
Q 19.734375 -1.421875 13.25 4.234375 
Q 6.78125 9.90625 6.78125 20.515625 
Q 6.78125 27.484375 10.78125 32.3125 
Q 14.796875 37.15625 21.921875 38.8125 
z
M 18.3125 54.390625 
Q 18.3125 48.734375 21.84375 45.5625 
Q 25.390625 42.390625 31.78125 42.390625 
Q 38.140625 42.390625 41.71875 45.5625 
Q 45.3125 48.734375 45.3125 54.390625 
Q 45.3125 60.0625 41.71875 63.234375 
Q 38.140625 66.40625 31.78125 66.40625 
Q 25.390625 66.40625 21.84375 63.234375 
Q 18.3125 60.0625 18.3125 54.390625 
z
" id="DejaVuSans-56"/>
       </defs>
       <use xlink:href="#DejaVuSans-56"/>
       <use x="63.623047" xlink:href="#DejaVuSans-48"/>
      </g>
     </g>
    </g>
    <g id="xtick_7">
     <g id="line2d_7">
      <g>
       <use style="stroke:#000000;stroke-width:0.8;" x="308.113193" xlink:href="#m1216590745" y="277.111219"/>
      </g>
     </g>
     <g id="text_7">
      <!-- 100 -->
      <g transform="translate(298.569443 291.709656)scale(0.1 -0.1)">
       <defs>
        <path d="M 12.40625 8.296875 
L 28.515625 8.296875 
L 28.515625 63.921875 
L 10.984375 60.40625 
L 10.984375 69.390625 
L 28.421875 72.90625 
L 38.28125 72.90625 
L 38.28125 8.296875 
L 54.390625 8.296875 
L 54.390625 0 
L 12.40625 0 
z
" id="DejaVuSans-49"/>
       </defs>
       <use xlink:href="#DejaVuSans-49"/>
       <use x="63.623047" xlink:href="#DejaVuSans-48"/>
       <use x="127.246094" xlink:href="#DejaVuSans-48"/>
      </g>
     </g>
    </g>
    <g id="xtick_8">
     <g id="line2d_8">
      <g>
       <use style="stroke:#000000;stroke-width:0.8;" x="350.127311" xlink:href="#m1216590745" y="277.111219"/>
      </g>
     </g>
     <g id="text_8">
      <!-- 120 -->
      <g transform="translate(340.583561 291.709656)scale(0.1 -0.1)">
       <use xlink:href="#DejaVuSans-49"/>
       <use x="63.623047" xlink:href="#DejaVuSans-50"/>
       <use x="127.246094" xlink:href="#DejaVuSans-48"/>
      </g>
     </g>
    </g>
    <g id="xtick_9">
     <g id="line2d_9">
      <g>
       <use style="stroke:#000000;stroke-width:0.8;" x="392.141429" xlink:href="#m1216590745" y="277.111219"/>
      </g>
     </g>
     <g id="text_9">
      <!-- 140 -->
      <g transform="translate(382.597679 291.709656)scale(0.1 -0.1)">
       <use xlink:href="#DejaVuSans-49"/>
       <use x="63.623047" xlink:href="#DejaVuSans-52"/>
       <use x="127.246094" xlink:href="#DejaVuSans-48"/>
      </g>
     </g>
    </g>
    <g id="text_10">
     <!-- 1st PC: 98.74 % -->
     <g transform="translate(165.868088 310.919444)scale(0.1728 -0.1728)">
      <defs>
       <path d="M 44.28125 53.078125 
L 44.28125 44.578125 
Q 40.484375 46.53125 36.375 47.5 
Q 32.28125 48.484375 27.875 48.484375 
Q 21.1875 48.484375 17.84375 46.4375 
Q 14.5 44.390625 14.5 40.28125 
Q 14.5 37.15625 16.890625 35.375 
Q 19.28125 33.59375 26.515625 31.984375 
L 29.59375 31.296875 
Q 39.15625 29.25 43.1875 25.515625 
Q 47.21875 21.78125 47.21875 15.09375 
Q 47.21875 7.46875 41.1875 3.015625 
Q 35.15625 -1.421875 24.609375 -1.421875 
Q 20.21875 -1.421875 15.453125 -0.5625 
Q 10.6875 0.296875 5.421875 2 
L 5.421875 11.28125 
Q 10.40625 8.6875 15.234375 7.390625 
Q 20.0625 6.109375 24.8125 6.109375 
Q 31.15625 6.109375 34.5625 8.28125 
Q 37.984375 10.453125 37.984375 14.40625 
Q 37.984375 18.0625 35.515625 20.015625 
Q 33.0625 21.96875 24.703125 23.78125 
L 21.578125 24.515625 
Q 13.234375 26.265625 9.515625 29.90625 
Q 5.8125 33.546875 5.8125 39.890625 
Q 5.8125 47.609375 11.28125 51.796875 
Q 16.75 56 26.8125 56 
Q 31.78125 56 36.171875 55.265625 
Q 40.578125 54.546875 44.28125 53.078125 
z
" id="DejaVuSans-115"/>
       <path d="M 18.3125 70.21875 
L 18.3125 54.6875 
L 36.8125 54.6875 
L 36.8125 47.703125 
L 18.3125 47.703125 
L 18.3125 18.015625 
Q 18.3125 11.328125 20.140625 9.421875 
Q 21.96875 7.515625 27.59375 7.515625 
L 36.8125 7.515625 
L 36.8125 0 
L 27.59375 0 
Q 17.1875 0 13.234375 3.875 
Q 9.28125 7.765625 9.28125 18.015625 
L 9.28125 47.703125 
L 2.6875 47.703125 
L 2.6875 54.6875 
L 9.28125 54.6875 
L 9.28125 70.21875 
z
" id="DejaVuSans-116"/>
       <path id="DejaVuSans-32"/>
       <path d="M 19.671875 64.796875 
L 19.671875 37.40625 
L 32.078125 37.40625 
Q 38.96875 37.40625 42.71875 40.96875 
Q 46.484375 44.53125 46.484375 51.125 
Q 46.484375 57.671875 42.71875 61.234375 
Q 38.96875 64.796875 32.078125 64.796875 
z
M 9.8125 72.90625 
L 32.078125 72.90625 
Q 44.34375 72.90625 50.609375 67.359375 
Q 56.890625 61.8125 56.890625 51.125 
Q 56.890625 40.328125 50.609375 34.8125 
Q 44.34375 29.296875 32.078125 29.296875 
L 19.671875 29.296875 
L 19.671875 0 
L 9.8125 0 
z
" id="DejaVuSans-80"/>
       <path d="M 64.40625 67.28125 
L 64.40625 56.890625 
Q 59.421875 61.53125 53.78125 63.8125 
Q 48.140625 66.109375 41.796875 66.109375 
Q 29.296875 66.109375 22.65625 58.46875 
Q 16.015625 50.828125 16.015625 36.375 
Q 16.015625 21.96875 22.65625 14.328125 
Q 29.296875 6.6875 41.796875 6.6875 
Q 48.140625 6.6875 53.78125 8.984375 
Q 59.421875 11.28125 64.40625 15.921875 
L 64.40625 5.609375 
Q 59.234375 2.09375 53.4375 0.328125 
Q 47.65625 -1.421875 41.21875 -1.421875 
Q 24.65625 -1.421875 15.125 8.703125 
Q 5.609375 18.84375 5.609375 36.375 
Q 5.609375 53.953125 15.125 64.078125 
Q 24.65625 74.21875 41.21875 74.21875 
Q 47.75 74.21875 53.53125 72.484375 
Q 59.328125 70.75 64.40625 67.28125 
z
" id="DejaVuSans-67"/>
       <path d="M 11.71875 12.40625 
L 22.015625 12.40625 
L 22.015625 0 
L 11.71875 0 
z
M 11.71875 51.703125 
L 22.015625 51.703125 
L 22.015625 39.3125 
L 11.71875 39.3125 
z
" id="DejaVuSans-58"/>
       <path d="M 10.984375 1.515625 
L 10.984375 10.5 
Q 14.703125 8.734375 18.5 7.8125 
Q 22.3125 6.890625 25.984375 6.890625 
Q 35.75 6.890625 40.890625 13.453125 
Q 46.046875 20.015625 46.78125 33.40625 
Q 43.953125 29.203125 39.59375 26.953125 
Q 35.25 24.703125 29.984375 24.703125 
Q 19.046875 24.703125 12.671875 31.3125 
Q 6.296875 37.9375 6.296875 49.421875 
Q 6.296875 60.640625 12.9375 67.421875 
Q 19.578125 74.21875 30.609375 74.21875 
Q 43.265625 74.21875 49.921875 64.515625 
Q 56.59375 54.828125 56.59375 36.375 
Q 56.59375 19.140625 48.40625 8.859375 
Q 40.234375 -1.421875 26.421875 -1.421875 
Q 22.703125 -1.421875 18.890625 -0.6875 
Q 15.09375 0.046875 10.984375 1.515625 
z
M 30.609375 32.421875 
Q 37.25 32.421875 41.125 36.953125 
Q 45.015625 41.5 45.015625 49.421875 
Q 45.015625 57.28125 41.125 61.84375 
Q 37.25 66.40625 30.609375 66.40625 
Q 23.96875 66.40625 20.09375 61.84375 
Q 16.21875 57.28125 16.21875 49.421875 
Q 16.21875 41.5 20.09375 36.953125 
Q 23.96875 32.421875 30.609375 32.421875 
z
" id="DejaVuSans-57"/>
       <path d="M 10.6875 12.40625 
L 21 12.40625 
L 21 0 
L 10.6875 0 
z
" id="DejaVuSans-46"/>
       <path d="M 8.203125 72.90625 
L 55.078125 72.90625 
L 55.078125 68.703125 
L 28.609375 0 
L 18.3125 0 
L 43.21875 64.59375 
L 8.203125 64.59375 
z
" id="DejaVuSans-55"/>
       <path d="M 72.703125 32.078125 
Q 68.453125 32.078125 66.03125 28.46875 
Q 63.625 24.859375 63.625 18.40625 
Q 63.625 12.0625 66.03125 8.421875 
Q 68.453125 4.78125 72.703125 4.78125 
Q 76.859375 4.78125 79.265625 8.421875 
Q 81.6875 12.0625 81.6875 18.40625 
Q 81.6875 24.8125 79.265625 28.4375 
Q 76.859375 32.078125 72.703125 32.078125 
z
M 72.703125 38.28125 
Q 80.421875 38.28125 84.953125 32.90625 
Q 89.5 27.546875 89.5 18.40625 
Q 89.5 9.28125 84.9375 3.921875 
Q 80.375 -1.421875 72.703125 -1.421875 
Q 64.890625 -1.421875 60.34375 3.921875 
Q 55.8125 9.28125 55.8125 18.40625 
Q 55.8125 27.59375 60.375 32.9375 
Q 64.9375 38.28125 72.703125 38.28125 
z
M 22.3125 68.015625 
Q 18.109375 68.015625 15.6875 64.375 
Q 13.28125 60.75 13.28125 54.390625 
Q 13.28125 47.953125 15.671875 44.328125 
Q 18.0625 40.71875 22.3125 40.71875 
Q 26.5625 40.71875 28.96875 44.328125 
Q 31.390625 47.953125 31.390625 54.390625 
Q 31.390625 60.6875 28.953125 64.34375 
Q 26.515625 68.015625 22.3125 68.015625 
z
M 66.40625 74.21875 
L 74.21875 74.21875 
L 28.609375 -1.421875 
L 20.796875 -1.421875 
z
M 22.3125 74.21875 
Q 30.03125 74.21875 34.609375 68.875 
Q 39.203125 63.53125 39.203125 54.390625 
Q 39.203125 45.171875 34.640625 39.84375 
Q 30.078125 34.515625 22.3125 34.515625 
Q 14.546875 34.515625 10.03125 39.859375 
Q 5.515625 45.21875 5.515625 54.390625 
Q 5.515625 63.484375 10.046875 68.84375 
Q 14.59375 74.21875 22.3125 74.21875 
z
" id="DejaVuSans-37"/>
      </defs>
      <use xlink:href="#DejaVuSans-49"/>
      <use x="63.623047" xlink:href="#DejaVuSans-115"/>
      <use x="115.722656" xlink:href="#DejaVuSans-116"/>
      <use x="154.931641" xlink:href="#DejaVuSans-32"/>
      <use x="186.71875" xlink:href="#DejaVuSans-80"/>
      <use x="247.021484" xlink:href="#DejaVuSans-67"/>
      <use x="316.845703" xlink:href="#DejaVuSans-58"/>
      <use x="350.537109" xlink:href="#DejaVuSans-32"/>
      <use x="382.324219" xlink:href="#DejaVuSans-57"/>
      <use x="445.947266" xlink:href="#DejaVuSans-56"/>
      <use x="509.570312" xlink:href="#DejaVuSans-46"/>
      <use x="541.357422" xlink:href="#DejaVuSans-55"/>
      <use x="604.980469" xlink:href="#DejaVuSans-52"/>
      <use x="668.603516" xlink:href="#DejaVuSans-32"/>
      <use x="700.390625" xlink:href="#DejaVuSans-37"/>
     </g>
    </g>
   </g>
   <g id="matplotlib.axis_2">
    <g id="ytick_1">
     <g id="line2d_10">
      <defs>
       <path d="M 0 0 
L -3.5 0 
" id="m1d56b705ed" style="stroke:#000000;stroke-width:0.8;"/>
      </defs>
      <g>
       <use style="stroke:#000000;stroke-width:0.8;" x="56.028488" xlink:href="#m1d56b705ed" y="277.111219"/>
      </g>
     </g>
     <g id="text_11">
      <!-- −20 -->
      <g transform="translate(27.9238 280.910437)scale(0.1 -0.1)">
       <use xlink:href="#DejaVuSans-8722"/>
       <use x="83.789062" xlink:href="#DejaVuSans-50"/>
       <use x="147.412109" xlink:href="#DejaVuSans-48"/>
      </g>
     </g>
    </g>
    <g id="ytick_2">
     <g id="line2d_11">
      <g>
       <use style="stroke:#000000;stroke-width:0.8;" x="56.028488" xlink:href="#m1d56b705ed" y="243.847219"/>
      </g>
     </g>
     <g id="text_12">
      <!-- −15 -->
      <g transform="translate(27.9238 247.646437)scale(0.1 -0.1)">
       <defs>
        <path d="M 10.796875 72.90625 
L 49.515625 72.90625 
L 49.515625 64.59375 
L 19.828125 64.59375 
L 19.828125 46.734375 
Q 21.96875 47.46875 24.109375 47.828125 
Q 26.265625 48.1875 28.421875 48.1875 
Q 40.625 48.1875 47.75 41.5 
Q 54.890625 34.8125 54.890625 23.390625 
Q 54.890625 11.625 47.5625 5.09375 
Q 40.234375 -1.421875 26.90625 -1.421875 
Q 22.3125 -1.421875 17.546875 -0.640625 
Q 12.796875 0.140625 7.71875 1.703125 
L 7.71875 11.625 
Q 12.109375 9.234375 16.796875 8.0625 
Q 21.484375 6.890625 26.703125 6.890625 
Q 35.15625 6.890625 40.078125 11.328125 
Q 45.015625 15.765625 45.015625 23.390625 
Q 45.015625 31 40.078125 35.4375 
Q 35.15625 39.890625 26.703125 39.890625 
Q 22.75 39.890625 18.8125 39.015625 
Q 14.890625 38.140625 10.796875 36.28125 
z
" id="DejaVuSans-53"/>
       </defs>
       <use xlink:href="#DejaVuSans-8722"/>
       <use x="83.789062" xlink:href="#DejaVuSans-49"/>
       <use x="147.412109" xlink:href="#DejaVuSans-53"/>
      </g>
     </g>
    </g>
    <g id="ytick_3">
     <g id="line2d_12">
      <g>
       <use style="stroke:#000000;stroke-width:0.8;" x="56.028488" xlink:href="#m1d56b705ed" y="210.583219"/>
      </g>
     </g>
     <g id="text_13">
      <!-- −10 -->
      <g transform="translate(27.9238 214.382437)scale(0.1 -0.1)">
       <use xlink:href="#DejaVuSans-8722"/>
       <use x="83.789062" xlink:href="#DejaVuSans-49"/>
       <use x="147.412109" xlink:href="#DejaVuSans-48"/>
      </g>
     </g>
    </g>
    <g id="ytick_4">
     <g id="line2d_13">
      <g>
       <use style="stroke:#000000;stroke-width:0.8;" x="56.028488" xlink:href="#m1d56b705ed" y="177.319219"/>
      </g>
     </g>
     <g id="text_14">
      <!-- −5 -->
      <g transform="translate(34.2863 181.118437)scale(0.1 -0.1)">
       <use xlink:href="#DejaVuSans-8722"/>
       <use x="83.789062" xlink:href="#DejaVuSans-53"/>
      </g>
     </g>
    </g>
    <g id="ytick_5">
     <g id="line2d_14">
      <g>
       <use style="stroke:#000000;stroke-width:0.8;" x="56.028488" xlink:href="#m1d56b705ed" y="144.055219"/>
      </g>
     </g>
     <g id="text_15">
      <!-- 0 -->
      <g transform="translate(42.665987 147.854437)scale(0.1 -0.1)">
       <use xlink:href="#DejaVuSans-48"/>
      </g>
     </g>
    </g>
    <g id="ytick_6">
     <g id="line2d_15">
      <g>
       <use style="stroke:#000000;stroke-width:0.8;" x="56.028488" xlink:href="#m1d56b705ed" y="110.791219"/>
      </g>
     </g>
     <g id="text_16">
      <!-- 5 -->
      <g transform="translate(42.665987 114.590437)scale(0.1 -0.1)">
       <use xlink:href="#DejaVuSans-53"/>
      </g>
     </g>
    </g>
    <g id="ytick_7">
     <g id="line2d_16">
      <g>
       <use style="stroke:#000000;stroke-width:0.8;" x="56.028488" xlink:href="#m1d56b705ed" y="77.527219"/>
      </g>
     </g>
     <g id="text_17">
      <!-- 10 -->
      <g transform="translate(36.303488 81.326437)scale(0.1 -0.1)">
       <use xlink:href="#DejaVuSans-49"/>
       <use x="63.623047" xlink:href="#DejaVuSans-48"/>
      </g>
     </g>
    </g>
    <g id="ytick_8">
     <g id="line2d_17">
      <g>
       <use style="stroke:#000000;stroke-width:0.8;" x="56.028488" xlink:href="#m1d56b705ed" y="44.263219"/>
      </g>
     </g>
     <g id="text_18">
      <!-- 15 -->
      <g transform="translate(36.303488 48.062437)scale(0.1 -0.1)">
       <use xlink:href="#DejaVuSans-49"/>
       <use x="63.623047" xlink:href="#DejaVuSans-53"/>
      </g>
     </g>
    </g>
    <g id="ytick_9">
     <g id="line2d_18">
      <g>
       <use style="stroke:#000000;stroke-width:0.8;" x="56.028488" xlink:href="#m1d56b705ed" y="10.999219"/>
      </g>
     </g>
     <g id="text_19">
      <!-- 20 -->
      <g transform="translate(36.303488 14.798437)scale(0.1 -0.1)">
       <use xlink:href="#DejaVuSans-50"/>
       <use x="63.623047" xlink:href="#DejaVuSans-48"/>
      </g>
     </g>
    </g>
    <g id="text_20">
     <!-- 2nd PC: 0.66 % -->
     <g transform="translate(20.3301 210.351019)rotate(-90)scale(0.1728 -0.1728)">
      <defs>
       <path d="M 54.890625 33.015625 
L 54.890625 0 
L 45.90625 0 
L 45.90625 32.71875 
Q 45.90625 40.484375 42.875 44.328125 
Q 39.84375 48.1875 33.796875 48.1875 
Q 26.515625 48.1875 22.3125 43.546875 
Q 18.109375 38.921875 18.109375 30.90625 
L 18.109375 0 
L 9.078125 0 
L 9.078125 54.6875 
L 18.109375 54.6875 
L 18.109375 46.1875 
Q 21.34375 51.125 25.703125 53.5625 
Q 30.078125 56 35.796875 56 
Q 45.21875 56 50.046875 50.171875 
Q 54.890625 44.34375 54.890625 33.015625 
z
" id="DejaVuSans-110"/>
       <path d="M 45.40625 46.390625 
L 45.40625 75.984375 
L 54.390625 75.984375 
L 54.390625 0 
L 45.40625 0 
L 45.40625 8.203125 
Q 42.578125 3.328125 38.25 0.953125 
Q 33.9375 -1.421875 27.875 -1.421875 
Q 17.96875 -1.421875 11.734375 6.484375 
Q 5.515625 14.40625 5.515625 27.296875 
Q 5.515625 40.1875 11.734375 48.09375 
Q 17.96875 56 27.875 56 
Q 33.9375 56 38.25 53.625 
Q 42.578125 51.265625 45.40625 46.390625 
z
M 14.796875 27.296875 
Q 14.796875 17.390625 18.875 11.75 
Q 22.953125 6.109375 30.078125 6.109375 
Q 37.203125 6.109375 41.296875 11.75 
Q 45.40625 17.390625 45.40625 27.296875 
Q 45.40625 37.203125 41.296875 42.84375 
Q 37.203125 48.484375 30.078125 48.484375 
Q 22.953125 48.484375 18.875 42.84375 
Q 14.796875 37.203125 14.796875 27.296875 
z
" id="DejaVuSans-100"/>
      </defs>
      <use xlink:href="#DejaVuSans-50"/>
      <use x="63.623047" xlink:href="#DejaVuSans-110"/>
      <use x="127.001953" xlink:href="#DejaVuSans-100"/>
      <use x="190.478516" xlink:href="#DejaVuSans-32"/>
      <use x="222.265625" xlink:href="#DejaVuSans-80"/>
      <use x="282.568359" xlink:href="#DejaVuSans-67"/>
      <use x="352.392578" xlink:href="#DejaVuSans-58"/>
      <use x="386.083984" xlink:href="#DejaVuSans-32"/>
      <use x="417.871094" xlink:href="#DejaVuSans-48"/>
      <use x="481.494141" xlink:href="#DejaVuSans-46"/>
      <use x="513.28125" xlink:href="#DejaVuSans-54"/>
      <use x="576.904297" xlink:href="#DejaVuSans-54"/>
      <use x="640.527344" xlink:href="#DejaVuSans-32"/>
      <use x="672.314453" xlink:href="#DejaVuSans-37"/>
     </g>
    </g>
   </g>
   <g id="LineCollection_1"/>
   <g id="LineCollection_2"/>
   <g id="LineCollection_3"/>
   <g id="LineCollection_4"/>
   <g id="LineCollection_5">
    <path clip-path="url(#p01bec289b5)" d="M 99.183429 147.688407 
L 98.668876 152.925619 
L 98.042605 153.585527 
L 95.941899 154.593281 
L 93.841193 155.166253 
L 91.740488 154.85501 
L 90.102862 152.925619 
L 91.740488 144.929243 
L 91.874459 144.055219 
L 92.853623 138.867998 
" style="fill:none;stroke:#404688;stroke-width:1.5;"/>
   </g>
   <g id="LineCollection_6">
    <path clip-path="url(#p01bec289b5)" d="M 56.028488 137.564582 
L 58.129193 138.661294 
L 60.229899 139.666716 
L 62.330605 140.478463 
L 64.431311 140.991356 
L 66.532017 141.147833 
L 68.632723 140.869297 
L 70.733429 140.014691 
L 72.834135 138.37406 
L 74.93484 135.610301 
L 75.168482 135.184819 
L 77.035546 131.716362 
L 79.136252 126.812722 
L 79.330031 126.314419 
L 81.236958 124.442762 
L 83.337664 122.859877 
L 85.43837 122.012695 
L 87.539076 121.797172 
L 89.639782 121.905736 
L 91.740488 122.154854 
L 93.841193 122.706739 
L 95.941899 124.709505 
L 96.945372 126.314419 
L 98.042605 129.641073 
L 100.143311 135.151729 
L 100.150994 135.184819 
L 100.700736 144.055219 
L 101.095051 152.925619 
L 100.143311 159.698697 
L 98.042605 160.745954 
L 96.592644 161.796019 
L 95.941899 161.956523 
L 95.73033 162.018316 
" style="fill:none;stroke:#39558c;stroke-width:1.5;"/>
    <path clip-path="url(#p01bec289b5)" d="M 70.808922 162.05187 
L 70.733429 162.050502 
L 68.632723 162.039183 
L 66.532017 162.051523 
L 64.431311 162.081987 
L 62.330605 162.124738 
L 60.229899 162.163676 
L 58.129193 162.188884 
L 56.028488 162.19621 
" style="fill:none;stroke:#39558c;stroke-width:1.5;"/>
   </g>
   <g id="LineCollection_7">
    <path clip-path="url(#p01bec289b5)" d="M 56.028488 116.109404 
L 58.129193 116.175911 
L 60.229899 115.937069 
L 62.330605 115.329632 
L 64.431311 114.385367 
L 66.532017 113.198169 
L 68.632723 111.875995 
L 69.640922 111.310619 
" style="fill:none;stroke:#33638d;stroke-width:1.5;"/>
    <path clip-path="url(#p01bec289b5)" d="M 93.089711 117.283246 
L 93.747973 117.444019 
L 93.841193 117.539967 
L 95.941899 122.210526 
L 98.042605 126.083992 
L 98.154222 126.314419 
L 100.143311 133.750401 
L 100.476366 135.184819 
L 101.350088 144.055219 
L 102.244017 152.586574 
L 102.258978 152.925619 
L 102.363786 161.796019 
L 102.244017 162.74117 
L 100.143311 164.152892 
L 98.042605 164.066101 
L 95.941899 164.395202 
L 93.841193 164.961826 
L 91.740488 165.585142 
L 89.639782 166.118228 
L 87.539076 166.459603 
L 85.43837 166.546855 
L 83.337664 166.401526 
L 81.236958 166.138397 
L 79.136252 165.893959 
L 77.035546 165.761544 
L 74.93484 165.757614 
L 72.834135 165.85527 
L 70.733429 166.015364 
L 68.632723 166.210025 
L 66.532017 166.428472 
L 64.431311 166.652404 
L 62.330605 166.872954 
L 60.229899 167.094036 
L 58.129193 167.325369 
L 56.028488 167.550642 
" style="fill:none;stroke:#33638d;stroke-width:1.5;"/>
   </g>
   <g id="LineCollection_8">
    <path clip-path="url(#p01bec289b5)" d="M 56.028488 108.690622 
L 57.058822 108.573619 
L 58.129193 108.553245 
L 60.229899 108.465688 
L 62.330605 108.238917 
L 64.431311 107.729642 
L 66.532017 107.103814 
L 66.66853 107.081542 
" style="fill:none;stroke:#2d718e;stroke-width:1.5;"/>
    <path clip-path="url(#p01bec289b5)" d="M 89.520174 114.668411 
L 89.639782 114.733871 
L 91.740488 115.727661 
L 93.841193 116.677603 
L 94.932724 117.444019 
L 95.941899 119.711547 
L 98.042605 125.310138 
L 98.52907 126.314419 
L 100.143311 132.349074 
L 100.801737 135.184819 
L 101.99944 144.055219 
L 102.244017 146.389374 
L 102.532438 152.925619 
L 102.983007 161.796019 
L 102.244017 167.627744 
L 100.143311 167.264146 
L 98.042605 166.726296 
L 95.941899 166.833881 
L 93.841193 167.353579 
L 91.740488 168.058575 
L 89.639782 168.76043 
L 87.539076 169.312026 
L 85.43837 169.603779 
L 83.337664 169.610808 
L 81.236958 169.442267 
L 79.136252 169.266865 
L 77.035546 169.224598 
L 74.93484 169.351753 
L 72.834135 169.621979 
L 70.733429 169.980226 
L 68.632723 170.380866 
L 67.19768 170.666419 
L 66.532017 170.699214 
L 64.431311 170.79614 
L 62.330605 170.887917 
L 60.229899 170.980907 
L 58.129193 171.081521 
L 56.028488 171.184554 
" style="fill:none;stroke:#2d718e;stroke-width:1.5;"/>
   </g>
   <g id="LineCollection_9">
    <path clip-path="url(#p01bec289b5)" d="M 56.028488 107.5379 
L 58.129193 107.309743 
L 60.229899 106.901072 
L 62.330605 106.199369 
L 64.431311 105.155654 
L 66.532017 104.252461 
L 68.632723 104.126524 
L 69.12895 104.22077 
" style="fill:none;stroke:#287d8e;stroke-width:1.5;"/>
    <path clip-path="url(#p01bec289b5)" d="M 91.538152 114.362247 
L 91.740488 114.501609 
L 93.841193 115.896686 
L 95.941899 117.411708 
L 95.962916 117.444019 
L 98.042605 124.536285 
L 98.903919 126.314419 
L 100.143311 130.947746 
L 101.127109 135.184819 
L 102.244017 142.691979 
L 102.335316 144.055219 
L 102.805899 152.925619 
L 103.602229 161.796019 
L 103.840074 170.666419 
L 102.244017 171.419399 
L 100.559882 170.666419 
L 100.143311 170.375399 
L 98.042605 169.386492 
L 95.941899 169.27256 
L 93.841193 169.745333 
L 91.740488 170.532009 
L 91.397657 170.666419 
L 89.639782 170.965057 
L 87.539076 171.216797 
L 85.43837 171.33816 
L 83.337664 171.34375 
L 81.236958 171.286765 
L 79.136252 171.232186 
L 77.035546 171.224737 
L 74.93484 171.271739 
L 72.834135 171.361861 
L 70.733429 171.476735 
L 68.632723 171.6016 
L 66.532017 171.731885 
L 64.431311 171.861699 
L 62.330605 171.989483 
L 60.229899 172.12271 
L 58.129193 172.269069 
L 56.028488 172.423833 
" style="fill:none;stroke:#287d8e;stroke-width:1.5;"/>
   </g>
   <g id="LineCollection_10">
    <path clip-path="url(#p01bec289b5)" d="M 56.028488 106.485585 
L 58.129193 106.06624 
L 60.229899 105.336456 
L 62.330605 104.159822 
L 64.431311 102.581665 
L 66.532017 101.401108 
L 68.632723 101.491968 
L 69.675499 101.888938 
" style="fill:none;stroke:#238a8d;stroke-width:1.5;"/>
    <path clip-path="url(#p01bec289b5)" d="M 91.672046 113.213654 
L 91.740488 113.275557 
L 93.841193 115.115769 
L 95.941899 117.062844 
L 96.189836 117.444019 
L 98.042605 123.762431 
L 99.278767 126.314419 
L 100.143311 129.546418 
L 101.452481 135.184819 
L 102.244017 140.505034 
L 102.48178 144.055219 
L 103.07936 152.925619 
L 104.221451 161.796019 
L 104.344723 163.431834 
L 104.815665 170.666419 
L 104.344723 172.767595 
L 102.244017 173.410576 
L 100.143311 172.233691 
L 98.042605 171.421625 
L 95.941899 171.214084 
L 93.841193 171.387588 
L 91.740488 171.71568 
L 89.639782 172.036842 
L 87.539076 172.26478 
L 85.43837 172.367834 
L 83.337664 172.353072 
L 81.236958 172.272257 
L 79.136252 172.199211 
L 77.035546 172.181325 
L 74.93484 172.226171 
L 72.834135 172.32412 
L 70.733429 172.456642 
L 68.632723 172.605513 
L 66.532017 172.764557 
L 64.431311 172.927259 
L 62.330605 173.091048 
L 60.229899 173.264512 
L 58.129193 173.456617 
L 56.028488 173.663112 
" style="fill:none;stroke:#238a8d;stroke-width:1.5;"/>
   </g>
   <g id="LineCollection_11">
    <path clip-path="url(#p01bec289b5)" d="M 56.028488 105.433269 
L 58.129193 104.822738 
L 60.229899 103.77184 
L 62.330605 102.120274 
L 64.431311 100.007676 
L 64.906578 99.703219 
L 65.649019 99.646498 
" style="fill:none;stroke:#1f968b;stroke-width:1.5;"/>
    <path clip-path="url(#p01bec289b5)" d="M 88.688423 108.628912 
L 89.639782 109.696394 
L 91.740488 112.049505 
L 93.841193 114.334852 
L 95.941899 116.713981 
L 96.416756 117.444019 
L 98.042605 122.988577 
L 99.653615 126.314419 
L 100.143311 128.145091 
L 101.777852 135.184819 
L 102.244017 138.318088 
L 102.628244 144.055219 
L 103.35282 152.925619 
L 104.344723 160.191617 
L 104.479579 161.796019 
L 105.350563 170.666419 
L 104.344723 175.154124 
L 102.244017 175.401752 
L 100.143311 173.96269 
L 98.042605 172.877137 
L 95.941899 172.492371 
L 93.841193 172.56043 
L 91.740488 172.825237 
L 89.639782 173.108627 
L 87.539076 173.312763 
L 85.43837 173.397508 
L 83.337664 173.362394 
L 81.236958 173.257748 
L 79.136252 173.166236 
L 77.035546 173.137913 
L 74.93484 173.180603 
L 72.834135 173.286379 
L 70.733429 173.436549 
L 68.632723 173.609427 
L 66.532017 173.797228 
L 64.431311 173.992818 
L 62.330605 174.192613 
L 60.229899 174.406315 
L 58.129193 174.644164 
L 56.028488 174.902392 
" style="fill:none;stroke:#1f968b;stroke-width:1.5;"/>
   </g>
   <g id="LineCollection_12">
    <path clip-path="url(#p01bec289b5)" d="M 56.028488 104.380954 
L 58.129193 103.579236 
L 60.229899 102.207224 
L 62.330605 100.080727 
L 62.695082 99.703219 
L 64.431311 99.53194 
L 65.514764 99.397909 
" style="fill:none;stroke:#20a386;stroke-width:1.5;"/>
    <path clip-path="url(#p01bec289b5)" d="M 88.351018 108.152889 
L 89.639782 108.495162 
L 89.961085 108.573619 
L 91.740488 110.823452 
L 93.841193 113.553934 
L 95.941899 116.365117 
L 96.643675 117.444019 
L 98.042605 122.214723 
L 100.028464 126.314419 
L 100.143311 126.743763 
L 102.103224 135.184819 
L 102.244017 136.131142 
L 102.774708 144.055219 
L 103.626281 152.925619 
L 104.344723 158.188432 
L 104.647954 161.796019 
L 105.885462 170.666419 
L 104.344723 177.540653 
L 102.244017 177.392929 
L 100.143311 175.691689 
L 98.042605 174.332648 
L 95.941899 173.770658 
L 93.841193 173.733272 
L 91.740488 173.934793 
L 89.639782 174.180412 
L 87.539076 174.360746 
L 85.43837 174.427182 
L 83.337664 174.371716 
L 81.236958 174.24324 
L 79.136252 174.133261 
L 77.035546 174.094501 
L 74.93484 174.135035 
L 72.834135 174.248638 
L 70.733429 174.416456 
L 68.632723 174.61334 
L 66.532017 174.829899 
L 64.431311 175.058378 
L 62.330605 175.294179 
L 60.229899 175.548117 
L 58.129193 175.831712 
L 56.028488 176.141671 
" style="fill:none;stroke:#20a386;stroke-width:1.5;"/>
   </g>
   <g id="LineCollection_13">
    <path clip-path="url(#p01bec289b5)" d="M 56.028488 103.328639 
L 58.129193 102.335733 
L 60.229899 100.642608 
L 61.121056 99.703219 
L 62.330605 99.584503 
L 64.431311 99.337683 
L 66.532017 98.965096 
L 68.632723 98.595472 
L 70.733429 98.721556 
L 72.834135 99.201243 
L 74.902907 99.703219 
L 74.93484 99.728075 
L 77.035546 101.512835 
L 79.136252 103.114823 
L 81.236958 104.505547 
L 83.337664 105.689807 
L 85.43837 106.692294 
L 87.539076 107.57049 
L 89.639782 108.258382 
L 90.930775 108.573619 
L 91.740488 109.5974 
L 93.841193 112.773017 
L 95.941899 116.016254 
L 96.870595 117.444019 
L 98.042605 121.44087 
L 100.143311 126.190857 
L 100.204371 126.314419 
L 102.244017 134.972827 
L 102.284222 135.184819 
L 102.921172 144.055219 
L 103.899742 152.925619 
L 104.344723 156.185246 
L 104.816329 161.796019 
L 106.229235 169.609485 
" style="fill:none;stroke:#29af7f;stroke-width:1.5;"/>
    <path clip-path="url(#p01bec289b5)" d="M 91.117189 175.10602 
L 89.639782 175.252196 
L 87.539076 175.408729 
L 85.43837 175.456856 
L 83.337664 175.381038 
L 81.236958 175.228731 
L 79.136252 175.100286 
L 77.035546 175.051088 
L 74.93484 175.089468 
L 72.834135 175.210897 
L 70.733429 175.396363 
L 68.632723 175.617253 
L 66.532017 175.86257 
L 64.431311 176.123937 
L 62.330605 176.395744 
L 60.229899 176.68992 
L 58.129193 177.01926 
L 56.028488 177.38095 
" style="fill:none;stroke:#29af7f;stroke-width:1.5;"/>
   </g>
   <g id="LineCollection_14">
    <path clip-path="url(#p01bec289b5)" d="M 56.028488 102.276324 
L 58.129193 101.092231 
L 59.676398 99.703219 
L 60.229899 99.654241 
L 62.330605 99.438822 
L 64.431311 99.143427 
L 64.961704 99.020896 
" style="fill:none;stroke:#3dbc74;stroke-width:1.5;"/>
    <path clip-path="url(#p01bec289b5)" d="M 87.503199 107.186488 
L 87.539076 107.203728 
L 89.639782 108.021601 
L 91.740488 108.551958 
L 91.816782 108.573619 
L 93.841193 111.9921 
L 95.941899 115.66739 
L 97.097515 117.444019 
L 98.042605 120.667016 
L 100.143311 126.012716 
L 100.292402 126.314419 
L 102.244017 134.599131 
L 102.355094 135.184819 
L 103.067636 144.055219 
L 104.173202 152.925619 
L 104.344723 154.182061 
L 104.984704 161.796019 
L 106.445429 169.788334 
L 106.587377 170.666419 
L 106.501477 179.536819 
L 106.445429 179.625593 
L 104.344723 180.557393 
L 102.244017 180.46085 
L 100.553313 179.536819 
L 100.143311 179.149687 
L 98.042605 177.243671 
L 95.941899 176.327231 
L 93.841193 176.078956 
L 91.740488 176.153906 
L 89.639782 176.323981 
L 87.539076 176.456712 
L 85.43837 176.48653 
L 83.337664 176.390359 
L 81.236958 176.214223 
L 79.136252 176.067311 
L 77.035546 176.007676 
L 74.93484 176.0439 
L 72.834135 176.173156 
L 70.733429 176.376271 
L 68.632723 176.621166 
L 66.532017 176.895241 
L 64.431311 177.189496 
L 62.330605 177.49731 
L 60.229899 177.831722 
L 58.129193 178.206808 
L 56.028488 178.620229 
" style="fill:none;stroke:#3dbc74;stroke-width:1.5;"/>
   </g>
   <g id="LineCollection_15">
    <path clip-path="url(#p01bec289b5)" d="M 56.028488 101.224008 
L 58.129193 99.848728 
L 58.291275 99.703219 
L 60.229899 99.531674 
L 62.330605 99.293141 
L 64.431311 98.949171 
L 66.532017 98.351153 
L 68.632723 97.640948 
L 70.733429 97.655254 
L 72.834135 98.259725 
L 74.93484 98.982286 
L 77.035546 99.56262 
L 77.596483 99.703219 
L 79.136252 101.13513 
L 81.236958 102.919949 
L 83.337664 104.426953 
L 85.43837 105.696265 
L 87.539076 106.836966 
L 89.639782 107.784821 
L 91.740488 108.420664 
L 92.279238 108.573619 
L 93.841193 111.211183 
L 95.941899 115.318527 
L 97.324435 117.444019 
L 98.042605 119.893162 
L 100.143311 125.834575 
L 100.380432 126.314419 
L 102.244017 134.225435 
L 102.425966 135.184819 
L 103.2141 144.055219 
L 104.344723 152.516993 
L 104.371857 152.925619 
L 105.153079 161.796019 
L 106.445429 168.867074 
L 106.736306 170.666419 
L 106.951673 179.536819 
L 106.445429 180.338653 
L 104.344723 181.434499 
L 102.244017 181.461636 
L 100.143311 180.283501 
L 98.937065 179.536819 
L 98.042605 178.699183 
L 95.941899 177.605518 
L 93.841193 177.251798 
L 91.740488 177.263462 
L 89.639782 177.395766 
L 87.539076 177.504695 
L 85.43837 177.516204 
L 83.337664 177.399681 
L 81.236958 177.199715 
L 79.136252 177.034336 
L 77.035546 176.964264 
L 74.93484 176.998332 
L 72.834135 177.135416 
L 70.733429 177.356178 
L 68.632723 177.62508 
L 68.456477 177.650487 
" style="fill:none;stroke:#56c667;stroke-width:1.5;"/>
   </g>
   <g id="LineCollection_16">
    <path clip-path="url(#p01bec289b5)" d="M 56.028488 100.171693 
L 56.732616 99.703219 
L 58.129193 99.606193 
L 60.229899 99.409107 
L 62.330605 99.14746 
L 64.431311 98.754915 
L 66.532017 98.044181 
L 66.646657 97.996131 
" style="fill:none;stroke:#75d054;stroke-width:1.5;"/>
    <path clip-path="url(#p01bec289b5)" d="M 88.783297 107.108593 
L 89.639782 107.54804 
L 91.740488 108.28937 
L 92.741695 108.573619 
L 93.841193 110.430265 
L 95.941899 114.969663 
L 97.551354 117.444019 
L 98.042605 119.119309 
L 100.143311 125.656433 
L 100.468463 126.314419 
L 102.244017 133.851739 
L 102.496838 135.184819 
L 103.360564 144.055219 
L 104.344723 151.420831 
L 104.444647 152.925619 
L 105.321455 161.796019 
L 106.445429 167.945813 
L 106.885234 170.666419 
L 107.40187 179.536819 
L 106.445429 181.051712 
L 104.344723 182.311606 
L 102.244017 182.462422 
L 100.143311 181.245603 
L 98.042605 179.90086 
L 97.089211 179.536819 
L 95.941899 178.883805 
L 93.841193 178.424639 
L 91.740488 178.373019 
L 89.639782 178.467551 
L 87.539076 178.552678 
L 85.43837 178.545877 
L 83.337664 178.409003 
L 81.236958 178.185206 
L 79.136252 178.001361 
L 77.035546 177.920852 
L 74.93484 177.952764 
L 72.834135 178.097675 
L 70.733429 178.336085 
L 68.632723 178.628993 
L 66.532017 178.960583 
L 64.431311 179.320615 
L 63.218474 179.536819 
L 62.330605 179.619794 
L 60.229899 179.827913 
L 58.129193 180.058547 
L 56.028488 180.308934 
" style="fill:none;stroke:#75d054;stroke-width:1.5;"/>
   </g>
   <g id="LineCollection_17">
    <path clip-path="url(#p01bec289b5)" d="M 56.028488 99.646459 
L 58.129193 99.49631 
L 60.229899 99.28654 
L 62.330605 99.001779 
L 64.431311 98.560658 
L 66.532017 97.737209 
L 67.6484 97.178788 
" style="fill:none;stroke:#95d840;stroke-width:1.5;"/>
    <path clip-path="url(#p01bec289b5)" d="M 89.586265 107.28049 
L 89.639782 107.31126 
L 91.740488 108.158075 
L 93.204151 108.573619 
L 93.841193 109.649348 
L 95.941899 114.6208 
L 97.778274 117.444019 
L 98.042605 118.345455 
L 100.143311 125.478292 
L 100.556494 126.314419 
L 102.244017 133.478043 
L 102.56771 135.184819 
L 103.507029 144.055219 
L 104.344723 150.324668 
L 104.517437 152.925619 
L 105.48983 161.796019 
L 106.445429 167.024553 
L 107.034163 170.666419 
L 107.852066 179.536819 
L 106.445429 181.764772 
L 104.344723 183.188712 
L 102.244017 183.463208 
L 100.143311 182.207705 
L 98.042605 180.758422 
L 95.941899 179.917433 
L 93.841193 179.574037 
L 92.761244 179.536819 
L 91.740488 179.482575 
L 89.736065 179.536819 
L 89.639782 179.538317 
L 87.539076 179.573849 
L 85.43837 179.558909 
L 84.92861 179.536819 
L 83.337664 179.418325 
L 81.236958 179.170698 
L 79.136252 178.968386 
L 77.035546 178.87744 
L 74.93484 178.907197 
L 72.834135 179.059934 
L 70.733429 179.315992 
L 69.258961 179.536819 
L 68.632723 179.587464 
L 66.532017 179.774163 
L 64.431311 179.972737 
L 62.330605 180.178418 
L 60.229899 180.402445 
L 58.129193 180.651397 
L 56.028488 180.921537 
" style="fill:none;stroke:#95d840;stroke-width:1.5;"/>
   </g>
   <g id="LineCollection_18">
    <path clip-path="url(#p01bec289b5)" d="M 56.028488 99.544156 
L 58.129193 99.386426 
L 60.229899 99.163973 
L 62.330605 98.856099 
L 64.431311 98.366402 
L 66.532017 97.430238 
L 68.505254 96.283255 
" style="fill:none;stroke:#bade28;stroke-width:1.5;"/>
    <path clip-path="url(#p01bec289b5)" d="M 90.309979 107.378296 
L 91.740488 108.026781 
L 93.666607 108.573619 
L 93.841193 108.868431 
L 95.941899 114.271936 
L 98.005194 117.444019 
L 98.042605 117.571601 
L 100.143311 125.300151 
L 100.644525 126.314419 
L 102.244017 133.104347 
L 102.638582 135.184819 
L 103.653493 144.055219 
L 104.344723 149.228505 
L 104.590228 152.925619 
L 105.658205 161.796019 
L 106.445429 166.103293 
L 107.183091 170.666419 
L 108.302262 179.536819 
L 106.445429 182.477832 
L 104.344723 184.065819 
L 102.244017 184.463994 
L 100.143311 183.169807 
L 98.042605 181.615984 
L 95.941899 180.695548 
L 93.841193 180.293611 
L 91.740488 180.179014 
L 89.639782 180.176373 
L 87.539076 180.181709 
L 85.43837 180.14617 
L 83.337664 180.042204 
L 81.236958 179.888308 
L 79.136252 179.76185 
L 77.035546 179.703401 
L 74.93484 179.716912 
L 72.834135 179.801601 
L 70.733429 179.943129 
L 68.632723 180.116596 
L 66.532017 180.311146 
L 64.431311 180.519619 
L 62.330605 180.737042 
L 60.229899 180.976977 
L 58.129193 181.244246 
L 56.028488 181.53414 
" style="fill:none;stroke:#bade28;stroke-width:1.5;"/>
   </g>
   <g id="LineCollection_19">
    <path clip-path="url(#p01bec289b5)" d="M 56.028488 99.441852 
L 58.129193 99.276543 
L 60.229899 99.041407 
L 62.330605 98.710418 
L 64.431311 98.172146 
L 66.532017 97.123266 
L 68.632723 95.731899 
L 69.446939 95.650796 
" style="fill:none;stroke:#dde318;stroke-width:1.5;"/>
    <path clip-path="url(#p01bec289b5)" d="M 90.993331 107.519264 
L 91.740488 107.895487 
L 93.841193 108.53452 
L 93.923144 108.573619 
L 95.941899 113.923073 
L 98.042605 117.367657 
L 98.082536 117.444019 
L 100.143311 125.122009 
L 100.732556 126.314419 
L 102.244017 132.730651 
L 102.709454 135.184819 
L 103.799957 144.055219 
L 104.344723 148.132342 
L 104.663018 152.925619 
L 105.82658 161.796019 
L 106.445429 165.182032 
L 107.332019 170.666419 
L 108.546135 179.064696 
L 108.606331 179.536819 
L 108.546135 179.787559 
L 106.445429 183.190891 
L 104.344723 184.942925 
L 102.244017 185.46478 
L 100.143311 184.131909 
L 98.042605 182.473547 
L 95.941899 181.473663 
L 93.841193 181.013185 
L 91.740488 180.854218 
L 89.639782 180.814429 
L 87.539076 180.789568 
L 85.43837 180.733431 
L 83.337664 180.614813 
L 81.236958 180.44757 
L 79.136252 180.307798 
L 77.035546 180.239557 
L 74.93484 180.246104 
L 72.834135 180.326534 
L 70.733429 180.467641 
L 68.632723 180.645729 
L 66.532017 180.84813 
L 64.431311 181.066501 
L 62.330605 181.295666 
L 60.229899 181.551509 
L 58.129193 181.837095 
L 56.028488 182.146743 
" style="fill:none;stroke:#dde318;stroke-width:1.5;"/>
   </g>
   <g id="LineCollection_20">
    <path clip-path="url(#p01bec289b5)" d="M 56.028488 99.339549 
L 58.129193 99.166659 
L 60.229899 98.91884 
L 62.330605 98.564737 
L 64.431311 97.97789 
L 66.532017 96.816295 
L 68.632723 95.254637 
L 69.651463 95.126057 
" style="fill:none;stroke:#fde725;stroke-width:1.5;"/>
    <path clip-path="url(#p01bec289b5)" d="M 91.004675 107.356733 
L 91.740488 107.764192 
L 93.841193 108.471709 
L 94.054797 108.573619 
L 95.941899 113.57421 
L 98.042605 117.27622 
L 98.130349 117.444019 
L 100.143311 124.943868 
L 100.820587 126.314419 
L 102.244017 132.356956 
L 102.780326 135.184819 
L 103.946421 144.055219 
L 104.344723 147.036179 
L 104.735808 152.925619 
L 105.994955 161.796019 
L 106.445429 164.260772 
L 107.480948 170.666419 
L 108.546135 178.034528 
L 108.73768 179.536819 
L 108.546135 180.334672 
L 106.445429 183.903951 
L 104.344723 185.820031 
L 102.244017 186.465566 
L 100.143311 185.094011 
L 98.042605 183.331109 
L 95.941899 182.251778 
L 93.841193 181.732758 
L 91.740488 181.529422 
L 89.639782 181.452485 
L 87.539076 181.397427 
L 85.43837 181.320692 
L 83.337664 181.187423 
L 81.236958 181.006832 
L 79.136252 180.853746 
L 77.035546 180.775714 
L 74.93484 180.775296 
L 72.834135 180.851468 
L 70.733429 180.992152 
L 68.632723 181.174861 
L 66.532017 181.385113 
L 64.431311 181.613383 
L 62.330605 181.85429 
L 60.229899 182.126042 
L 58.129193 182.429944 
L 56.028488 182.759346 
" style="fill:none;stroke:#fde725;stroke-width:1.5;"/>
   </g>
   <g id="LineCollection_21">
    <path clip-path="url(#p01bec289b5)" d="M 56.028488 99.237245 
L 58.129193 99.056776 
L 60.229899 98.796273 
L 62.330605 98.419056 
L 64.431311 97.783633 
L 66.532017 96.509323 
L 68.632723 94.777375 
L 70.541104 94.485737 
" style="fill:none;stroke:#440154;stroke-width:1.5;"/>
    <path clip-path="url(#p01bec289b5)" d="M 94.470106 109.325274 
L 95.941899 113.225346 
L 98.042605 117.184783 
L 98.178162 117.444019 
L 100.143311 124.765727 
L 100.908618 126.314419 
L 102.244017 131.98326 
L 102.851198 135.184819 
L 104.092885 144.055219 
L 104.344723 145.940016 
L 104.808598 152.925619 
L 106.163331 161.796019 
L 106.445429 163.339511 
L 107.629876 170.666419 
L 108.546135 177.004361 
L 108.869029 179.536819 
L 108.546135 180.881784 
L 106.445429 184.61701 
L 104.344723 186.697138 
L 102.244017 187.466352 
L 100.143311 186.056113 
L 98.042605 184.188671 
L 95.941899 183.029893 
L 93.841193 182.452332 
L 91.740488 182.204626 
L 89.639782 182.090541 
L 87.539076 182.005287 
L 85.43837 181.907952 
L 83.337664 181.760032 
L 81.236958 181.566094 
L 79.136252 181.399694 
L 77.035546 181.311871 
L 74.93484 181.304488 
L 72.834135 181.376401 
L 70.733429 181.516663 
L 68.632723 181.703994 
L 66.532017 181.922097 
L 64.431311 182.160264 
L 62.330605 182.412914 
L 60.229899 182.700574 
L 58.129193 183.022793 
L 56.028488 183.371949 
" style="fill:none;stroke:#440154;stroke-width:1.5;"/>
   </g>
   <g id="LineCollection_22">
    <path clip-path="url(#p01bec289b5)" d="M 56.028488 86.358492 
L 58.129193 85.803473 
L 60.229899 84.888773 
L 62.330605 83.457722 
L 63.843227 81.962419 
L 64.431311 81.735275 
L 66.532017 81.229021 
L 68.632723 81.236607 
L 70.733429 81.555677 
L 72.834135 81.909471 
L 73.117873 81.962419 
L 74.93484 83.921938 
L 77.035546 85.766017 
L 79.136252 87.237809 
L 81.236958 88.543223 
L 83.337664 89.71438 
L 85.43837 90.548099 
L 86.396461 90.832819 
L 87.539076 93.119936 
L 89.639782 96.849347 
L 91.740488 98.698524 
L 93.841193 99.540622 
L 94.223362 99.703219 
L 95.941899 104.383518 
L 98.042605 107.796505 
L 98.601026 108.573619 
L 100.143311 114.166596 
L 101.979375 117.444019 
L 102.244017 118.404733 
L 104.344723 125.457521 
L 104.611436 126.314419 
L 106.445429 134.904112 
L 106.482014 135.184819 
L 107.425556 144.055219 
L 108.546135 150.343825 
L 108.860482 152.925619 
L 110.64684 161.745162 
L 110.655085 161.796019 
L 112.398802 170.666419 
L 112.747546 172.257514 
L 114.08393 179.536819 
L 114.848252 186.828715 
L 114.950834 188.407219 
L 114.848252 188.890256 
L 112.747546 194.364264 
L 111.753208 197.277619 
L 110.64684 198.837974 
L 109.626724 201.018262 
" style="fill:none;stroke:#440154;stroke-width:1.5;"/>
    <path clip-path="url(#p01bec289b5)" d="M 84.289303 213.92751 
L 83.337664 214.182781 
L 81.236958 214.888752 
L 80.848233 215.018419 
L 79.136252 215.225702 
L 77.035546 215.485787 
L 74.93484 215.727455 
L 72.834135 215.907805 
L 70.733429 216.014924 
L 68.632723 216.075656 
L 66.532017 216.198864 
L 64.431311 216.433371 
L 62.330605 216.817819 
L 60.229899 217.388528 
L 58.129193 218.105747 
L 56.028488 218.961007 
" style="fill:none;stroke:#440154;stroke-width:1.5;"/>
   </g>
   <g id="LineCollection_23">
    <path clip-path="url(#p01bec289b5)" d="M 119.049664 197.712395 
L 116.948958 201.032034 
L 115.05696 206.148019 
L 114.848252 206.379701 
L 112.747546 209.204734 
L 110.712432 215.018419 
L 110.64684 215.091794 
L 108.546135 217.017823 
L 106.445429 220.055734 
L 104.706114 223.739601 
" style="fill:none;stroke:#440154;stroke-width:1.5;"/>
    <path clip-path="url(#p01bec289b5)" d="M 71.623638 235.960691 
L 70.733429 236.578338 
L 68.632723 238.684072 
L 66.617266 241.629619 
L 66.532017 241.658028 
L 64.431311 242.352107 
L 62.330605 243.251765 
L 60.229899 244.383451 
L 58.129193 245.845899 
L 56.028488 247.798229 
" style="fill:none;stroke:#440154;stroke-width:1.5;"/>
    <path clip-path="url(#p01bec289b5)" d="M 56.028488 64.087468 
L 57.991393 64.221619 
L 58.129193 64.277212 
L 60.229899 65.838788 
L 62.330605 67.586151 
L 64.431311 69.060551 
L 66.532017 70.236573 
L 68.632723 71.171368 
L 70.733429 71.918632 
L 72.834135 72.502501 
L 74.93484 72.94855 
L 75.664053 73.092019 
L 77.035546 74.65635 
L 78.109579 75.834165 
" style="fill:none;stroke:#440154;stroke-width:1.5;"/>
    <path clip-path="url(#p01bec289b5)" d="M 99.893429 102.827035 
L 100.143311 103.635342 
L 102.244017 107.950126 
L 102.617449 108.573619 
L 104.344723 114.598421 
L 105.566174 117.444019 
L 106.445429 120.908436 
L 107.617229 126.314419 
L 108.546135 130.893802 
L 109.057896 135.184819 
L 110.64684 143.003675 
L 110.787735 144.055219 
L 112.500967 152.925619 
L 112.747546 154.06721 
L 114.069401 161.796019 
L 114.848252 165.303851 
L 115.756356 170.666419 
L 116.948958 176.275002 
L 117.37768 179.536819 
L 119.049664 187.90778 
" style="fill:none;stroke:#440154;stroke-width:1.5;"/>
   </g>
   <g id="LineCollection_24">
    <path clip-path="url(#p01bec289b5)" d="M 119.049664 209.84751 
L 117.169249 215.018419 
L 116.948958 215.26768 
L 114.848252 217.9376 
L 112.747546 223.638574 
L 112.655352 223.888819 
L 110.64684 225.720279 
L 108.546135 228.647376 
L 106.732099 232.536444 
" style="fill:none;stroke:#440154;stroke-width:1.5;"/>
    <path clip-path="url(#p01bec289b5)" d="M 72.002368 248.879618 
L 70.733429 250.475166 
L 70.714044 250.500019 
L 68.632723 251.137953 
L 66.532017 252.0208 
L 64.431311 253.247854 
L 62.330605 254.94969 
L 60.229899 257.322644 
L 58.787005 259.370419 
L 58.129193 259.636545 
L 56.028488 260.670225 
" style="fill:none;stroke:#440154;stroke-width:1.5;"/>
    <path clip-path="url(#p01bec289b5)" d="M 56.028488 54.05141 
L 58.129193 54.641159 
L 60.229899 55.089613 
L 61.748278 55.351219 
L 62.330605 55.973995 
L 64.431311 58.098116 
L 66.532017 59.785177 
L 68.632723 61.110332 
L 70.733429 62.145711 
L 72.834135 62.958682 
L 74.93484 63.59262 
L 77.035546 64.085266 
L 77.441557 64.221619 
L 79.136252 67.003935 
L 81.024436 69.607011 
" style="fill:none;stroke:#440154;stroke-width:1.5;"/>
    <path clip-path="url(#p01bec289b5)" d="M 103.719505 100.628605 
L 104.344723 102.721777 
L 106.445429 108.037552 
L 106.659091 108.573619 
L 108.546135 115.931465 
L 108.919023 117.444019 
L 110.64684 125.52895 
L 110.754418 126.314419 
L 112.057619 135.184819 
L 112.747546 138.516339 
L 113.503056 144.055219 
L 114.848252 150.276921 
L 115.25038 152.925619 
L 116.948958 160.649161 
L 117.137048 161.796019 
L 119.049664 170.61773 
" style="fill:none;stroke:#440154;stroke-width:1.5;"/>
   </g>
   <g id="LineCollection_25">
    <path clip-path="url(#p01bec289b5)" d="M 119.049664 223.81087 
L 119.021972 223.888819 
L 116.948958 226.072637 
L 114.848252 230.76511 
L 114.11349 232.759219 
L 112.747546 234.000074 
L 110.64684 236.599327 
L 108.546135 240.794559 
L 108.137983 241.629619 
L 108.029342 241.683418 
" style="fill:none;stroke:#440154;stroke-width:1.5;"/>
    <path clip-path="url(#p01bec289b5)" d="M 70.815853 260.868959 
L 70.733429 260.902668 
L 68.632723 262.098984 
L 66.532017 263.785124 
L 64.431311 266.217657 
L 63.059663 268.240819 
L 62.330605 268.515595 
L 60.229899 269.462732 
L 58.129193 270.891894 
L 56.028488 273.059734 
" style="fill:none;stroke:#440154;stroke-width:1.5;"/>
    <path clip-path="url(#p01bec289b5)" d="M 56.028488 44.715927 
L 58.129193 45.406111 
L 60.229899 45.922603 
L 62.330605 46.301294 
L 63.530798 46.480819 
L 64.431311 47.493667 
L 66.532017 49.618614 
L 68.632723 51.24531 
L 70.733429 52.486847 
L 72.834135 53.431686 
L 74.93484 54.14688 
L 77.035546 54.795474 
L 78.686086 55.351219 
L 79.136252 56.148625 
L 79.879902 57.380248 
" style="fill:none;stroke:#440154;stroke-width:1.5;"/>
    <path clip-path="url(#p01bec289b5)" d="M 104.723389 91.48346 
L 106.445429 97.338821 
L 107.502183 99.703219 
L 108.546135 103.597014 
L 110.077293 108.573619 
L 110.64684 110.956032 
L 112.000486 117.444019 
L 112.747546 121.080726 
L 113.410374 126.314419 
L 114.848252 133.491289 
L 115.053179 135.184819 
L 116.714688 144.055219 
L 116.948958 145.149447 
L 118.086033 152.925619 
L 119.049664 157.325918 
" style="fill:none;stroke:#440154;stroke-width:1.5;"/>
   </g>
   <g id="LineCollection_26">
    <path clip-path="url(#p01bec289b5)" d="M 119.049664 234.014613 
L 116.948958 237.628629 
L 115.471469 241.629619 
L 114.848252 242.190111 
L 112.747546 244.433844 
L 111.056647 247.389846 
" style="fill:none;stroke:#450457;stroke-width:1.5;"/>
    <path clip-path="url(#p01bec289b5)" d="M 72.864515 270.907772 
L 72.834135 270.924208 
L 70.733429 272.499935 
L 68.632723 274.724472 
L 66.928325 277.111219 
" style="fill:none;stroke:#450457;stroke-width:1.5;"/>
    <path clip-path="url(#p01bec289b5)" d="M 56.028488 35.953834 
L 58.129193 36.576446 
L 60.229899 37.048197 
L 62.330605 37.407813 
L 63.77535 37.610419 
L 64.431311 38.364503 
L 66.532017 40.548046 
L 68.632723 42.155544 
L 70.733429 43.34844 
L 72.834135 44.232778 
L 74.93484 44.878867 
L 77.035546 45.669636 
L 78.694737 46.177529 
" style="fill:none;stroke:#450457;stroke-width:1.5;"/>
    <path clip-path="url(#p01bec289b5)" d="M 105.694424 82.835412 
L 106.445429 85.325062 
L 108.546135 90.46282 
L 108.680093 90.832819 
L 110.64684 98.515452 
L 111.000078 99.703219 
L 112.747546 106.830526 
L 113.192021 108.573619 
L 114.848252 116.051851 
L 115.069644 117.444019 
L 116.597787 126.314419 
L 116.948958 128.072308 
L 117.800711 135.184819 
L 119.049664 141.298158 
" style="fill:none;stroke:#450457;stroke-width:1.5;"/>
   </g>
   <g id="LineCollection_27">
    <path clip-path="url(#p01bec289b5)" d="M 119.049664 244.700848 
L 116.948958 250.310846 
L 116.877848 250.500019 
L 114.848252 252.33577 
L 112.747546 255.719363 
L 111.14114 259.370419 
L 110.64684 259.722252 
L 108.546135 261.329293 
L 106.445429 263.825658 
L 104.344723 267.556308 
L 103.949549 268.240819 
L 102.244017 269.006415 
L 100.143311 269.984847 
L 98.042605 271.067236 
L 95.941899 272.41779 
L 93.841193 273.764361 
L 91.740488 274.611632 
L 89.639782 275.178208 
L 87.539076 275.994838 
L 85.818704 277.111219 
" style="fill:none;stroke:#482475;stroke-width:1.5;"/>
    <path clip-path="url(#p01bec289b5)" d="M 56.028488 27.380166 
L 58.129193 27.901695 
L 60.229899 28.301937 
L 62.330605 28.614304 
L 63.28708 28.740019 
L 64.431311 29.986215 
L 66.532017 31.92977 
L 68.632723 33.387195 
L 70.733429 34.485494 
L 72.834135 35.293775 
L 74.93484 35.936063 
L 76.530003 36.552863 
" style="fill:none;stroke:#482475;stroke-width:1.5;"/>
    <path clip-path="url(#p01bec289b5)" d="M 106.879347 74.055108 
L 108.546135 79.785641 
L 109.42047 81.962419 
L 110.64684 86.664031 
L 111.985423 90.832819 
L 112.747546 93.891921 
L 114.350974 99.703219 
L 114.848252 101.768718 
L 116.41233 108.573619 
L 116.948958 111.076125 
L 117.870033 117.444019 
L 119.049664 123.424464 
" style="fill:none;stroke:#482475;stroke-width:1.5;"/>
   </g>
   <g id="LineCollection_28">
    <path clip-path="url(#p01bec289b5)" d="M 119.049664 256.617301 
L 118.029298 259.370419 
L 116.948958 260.473505 
L 114.848252 263.635494 
L 112.974381 268.240819 
L 112.747546 268.433647 
L 110.64684 270.151384 
L 108.546135 272.90187 
L 106.448237 277.111219 
" style="fill:none;stroke:#fde725;stroke-width:1.5;"/>
    <path clip-path="url(#p01bec289b5)" d="M 56.028488 18.725292 
L 58.129193 19.17975 
L 60.229899 19.536182 
L 62.330605 19.816961 
L 62.746723 19.869619 
L 64.431311 21.586192 
L 66.532017 23.319979 
L 68.632723 24.651274 
L 70.733429 25.66493 
L 70.876888 25.715753 
" style="fill:none;stroke:#fde725;stroke-width:1.5;"/>
    <path clip-path="url(#p01bec289b5)" d="M 106.110394 62.858349 
L 106.445429 63.417106 
L 107.12328 64.221619 
L 108.546135 68.886855 
L 110.64684 73.027421 
L 110.674041 73.092019 
L 112.747546 81.097746 
L 113.026937 81.962419 
L 114.848252 89.285287 
L 115.267578 90.832819 
L 116.948958 97.800072 
L 117.405942 99.703219 
L 119.049664 106.856144 
" style="fill:none;stroke:#fde725;stroke-width:1.5;"/>
   </g>
   <g id="line2d_19">
    <path clip-path="url(#p01bec289b5)" d="M 229.257893 120.215445 
L 234.862054 127.395079 
L 231.062995 130.082634 
L 227.10756 132.57459 
L 223.227371 134.736192 
L 219.420098 136.651847 
L 215.670555 138.49963 
L 211.987364 140.375309 
L 208.360676 142.397866 
L 204.792047 144.463416 
L 201.28142 146.618555 
L 197.829717 148.688197 
L 194.435903 150.742809 
L 191.096029 152.809621 
L 187.820399 154.744847 
L 184.581175 156.791465 
L 181.405956 158.652845 
L 178.264064 160.709569 
L 175.183012 162.415066 
L 172.148911 164.181232 
L 169.169695 165.692439 
L 166.240163 166.974604 
L 163.373826 167.958638 
L 160.55779 168.772932 
L 157.792063 169.373785 
L 155.063358 169.871042 
L 152.390288 170.16417 
L 149.769314 170.410752 
L 147.193324 170.463883 
L 144.660752 170.314407 
L 142.177246 170.084044 
L 139.733111 169.674242 
L 137.340227 169.314377 
L 134.983604 168.806368 
L 132.670711 168.08078 
L 130.390446 167.383289 
L 128.157396 166.427714 
L 125.960199 165.3198 
L 123.813878 164.309307 
L 121.69772 163.118092 
L 119.624426 161.766882 
L 117.599759 160.548454 
L 115.588741 159.219829 
L 113.642996 157.763719 
L 111.720791 156.406049 
L 109.828274 154.820704 
L 107.979467 153.343398 
L 106.158902 151.705744 
L 104.373245 149.82926 
L 102.635912 148.256295 
L 102.460836 148.165976 
L 102.285129 148.029288 
L 102.112224 147.860662 
L 101.940201 147.669307 
L 101.768656 147.508219 
L 101.597734 147.329282 
L 101.428069 147.166187 
L 101.258849 146.995666 
L 101.090642 146.841248 
L 100.923171 146.674998 
L 100.754197 146.489031 
L 100.588121 146.317751 
L 100.422384 146.1637 
L 100.254001 146.012218 
L 100.088661 145.844526 
L 99.923663 145.716137 
L 99.756693 145.557647 
L 99.591314 145.425275 
L 99.426684 145.240753 
L 99.262692 145.097186 
L 99.100917 144.963033 
L 98.936616 144.817258 
L 98.775395 144.68251 
L 98.611293 144.529112 
L 98.448536 144.372916 
L 98.432107 144.361569 
L 98.415849 144.350083 
L 98.399725 144.335079 
L 98.383335 144.324927 
L 98.367334 144.310742 
L 98.351087 144.297026 
L 98.334785 144.284967 
L 98.318485 144.269286 
L 98.302257 144.256862 
L 98.285955 144.248039 
L 98.269724 144.232624 
L 98.253573 144.219575 
L 98.237157 144.205503 
L 98.220716 144.196755 
L 98.204212 144.183203 
L 98.188604 144.171079 
L 98.172552 144.156917 
L 98.156163 144.142116 
L 98.139975 144.132176 
L 98.123783 144.118722 
L 98.107794 144.106465 
L 98.091581 144.093236 
L 98.075325 144.080646 
L 98.05889 144.06704 
" style="fill:none;stroke:#1f77b4;stroke-linecap:square;stroke-width:1.5;"/>
    <defs>
     <path d="M 0 1.5 
C 0.397805 1.5 0.77937 1.341951 1.06066 1.06066 
C 1.341951 0.77937 1.5 0.397805 1.5 0 
C 1.5 -0.397805 1.341951 -0.77937 1.06066 -1.06066 
C 0.77937 -1.341951 0.397805 -1.5 0 -1.5 
C -0.397805 -1.5 -0.77937 -1.341951 -1.06066 -1.06066 
C -1.341951 -0.77937 -1.5 -0.397805 -1.5 0 
C -1.5 0.397805 -1.341951 0.77937 -1.06066 1.06066 
C -0.77937 1.341951 -0.397805 1.5 0 1.5 
z
" id="m791b8e1987" style="stroke:#1f77b4;"/>
    </defs>
    <g clip-path="url(#p01bec289b5)">
     <use style="fill:#1f77b4;stroke:#1f77b4;" x="229.257893" xlink:href="#m791b8e1987" y="120.215445"/>
     <use style="fill:#1f77b4;stroke:#1f77b4;" x="234.862054" xlink:href="#m791b8e1987" y="127.395079"/>
     <use style="fill:#1f77b4;stroke:#1f77b4;" x="231.062995" xlink:href="#m791b8e1987" y="130.082634"/>
     <use style="fill:#1f77b4;stroke:#1f77b4;" x="227.10756" xlink:href="#m791b8e1987" y="132.57459"/>
     <use style="fill:#1f77b4;stroke:#1f77b4;" x="223.227371" xlink:href="#m791b8e1987" y="134.736192"/>
     <use style="fill:#1f77b4;stroke:#1f77b4;" x="219.420098" xlink:href="#m791b8e1987" y="136.651847"/>
     <use style="fill:#1f77b4;stroke:#1f77b4;" x="215.670555" xlink:href="#m791b8e1987" y="138.49963"/>
     <use style="fill:#1f77b4;stroke:#1f77b4;" x="211.987364" xlink:href="#m791b8e1987" y="140.375309"/>
     <use style="fill:#1f77b4;stroke:#1f77b4;" x="208.360676" xlink:href="#m791b8e1987" y="142.397866"/>
     <use style="fill:#1f77b4;stroke:#1f77b4;" x="204.792047" xlink:href="#m791b8e1987" y="144.463416"/>
     <use style="fill:#1f77b4;stroke:#1f77b4;" x="201.28142" xlink:href="#m791b8e1987" y="146.618555"/>
     <use style="fill:#1f77b4;stroke:#1f77b4;" x="197.829717" xlink:href="#m791b8e1987" y="148.688197"/>
     <use style="fill:#1f77b4;stroke:#1f77b4;" x="194.435903" xlink:href="#m791b8e1987" y="150.742809"/>
     <use style="fill:#1f77b4;stroke:#1f77b4;" x="191.096029" xlink:href="#m791b8e1987" y="152.809621"/>
     <use style="fill:#1f77b4;stroke:#1f77b4;" x="187.820399" xlink:href="#m791b8e1987" y="154.744847"/>
     <use style="fill:#1f77b4;stroke:#1f77b4;" x="184.581175" xlink:href="#m791b8e1987" y="156.791465"/>
     <use style="fill:#1f77b4;stroke:#1f77b4;" x="181.405956" xlink:href="#m791b8e1987" y="158.652845"/>
     <use style="fill:#1f77b4;stroke:#1f77b4;" x="178.264064" xlink:href="#m791b8e1987" y="160.709569"/>
     <use style="fill:#1f77b4;stroke:#1f77b4;" x="175.183012" xlink:href="#m791b8e1987" y="162.415066"/>
     <use style="fill:#1f77b4;stroke:#1f77b4;" x="172.148911" xlink:href="#m791b8e1987" y="164.181232"/>
     <use style="fill:#1f77b4;stroke:#1f77b4;" x="169.169695" xlink:href="#m791b8e1987" y="165.692439"/>
     <use style="fill:#1f77b4;stroke:#1f77b4;" x="166.240163" xlink:href="#m791b8e1987" y="166.974604"/>
     <use style="fill:#1f77b4;stroke:#1f77b4;" x="163.373826" xlink:href="#m791b8e1987" y="167.958638"/>
     <use style="fill:#1f77b4;stroke:#1f77b4;" x="160.55779" xlink:href="#m791b8e1987" y="168.772932"/>
     <use style="fill:#1f77b4;stroke:#1f77b4;" x="157.792063" xlink:href="#m791b8e1987" y="169.373785"/>
     <use style="fill:#1f77b4;stroke:#1f77b4;" x="155.063358" xlink:href="#m791b8e1987" y="169.871042"/>
     <use style="fill:#1f77b4;stroke:#1f77b4;" x="152.390288" xlink:href="#m791b8e1987" y="170.16417"/>
     <use style="fill:#1f77b4;stroke:#1f77b4;" x="149.769314" xlink:href="#m791b8e1987" y="170.410752"/>
     <use style="fill:#1f77b4;stroke:#1f77b4;" x="147.193324" xlink:href="#m791b8e1987" y="170.463883"/>
     <use style="fill:#1f77b4;stroke:#1f77b4;" x="144.660752" xlink:href="#m791b8e1987" y="170.314407"/>
     <use style="fill:#1f77b4;stroke:#1f77b4;" x="142.177246" xlink:href="#m791b8e1987" y="170.084044"/>
     <use style="fill:#1f77b4;stroke:#1f77b4;" x="139.733111" xlink:href="#m791b8e1987" y="169.674242"/>
     <use style="fill:#1f77b4;stroke:#1f77b4;" x="137.340227" xlink:href="#m791b8e1987" y="169.314377"/>
     <use style="fill:#1f77b4;stroke:#1f77b4;" x="134.983604" xlink:href="#m791b8e1987" y="168.806368"/>
     <use style="fill:#1f77b4;stroke:#1f77b4;" x="132.670711" xlink:href="#m791b8e1987" y="168.08078"/>
     <use style="fill:#1f77b4;stroke:#1f77b4;" x="130.390446" xlink:href="#m791b8e1987" y="167.383289"/>
     <use style="fill:#1f77b4;stroke:#1f77b4;" x="128.157396" xlink:href="#m791b8e1987" y="166.427714"/>
     <use style="fill:#1f77b4;stroke:#1f77b4;" x="125.960199" xlink:href="#m791b8e1987" y="165.3198"/>
     <use style="fill:#1f77b4;stroke:#1f77b4;" x="123.813878" xlink:href="#m791b8e1987" y="164.309307"/>
     <use style="fill:#1f77b4;stroke:#1f77b4;" x="121.69772" xlink:href="#m791b8e1987" y="163.118092"/>
     <use style="fill:#1f77b4;stroke:#1f77b4;" x="119.624426" xlink:href="#m791b8e1987" y="161.766882"/>
     <use style="fill:#1f77b4;stroke:#1f77b4;" x="117.599759" xlink:href="#m791b8e1987" y="160.548454"/>
     <use style="fill:#1f77b4;stroke:#1f77b4;" x="115.588741" xlink:href="#m791b8e1987" y="159.219829"/>
     <use style="fill:#1f77b4;stroke:#1f77b4;" x="113.642996" xlink:href="#m791b8e1987" y="157.763719"/>
     <use style="fill:#1f77b4;stroke:#1f77b4;" x="111.720791" xlink:href="#m791b8e1987" y="156.406049"/>
     <use style="fill:#1f77b4;stroke:#1f77b4;" x="109.828274" xlink:href="#m791b8e1987" y="154.820704"/>
     <use style="fill:#1f77b4;stroke:#1f77b4;" x="107.979467" xlink:href="#m791b8e1987" y="153.343398"/>
     <use style="fill:#1f77b4;stroke:#1f77b4;" x="106.158902" xlink:href="#m791b8e1987" y="151.705744"/>
     <use style="fill:#1f77b4;stroke:#1f77b4;" x="104.373245" xlink:href="#m791b8e1987" y="149.82926"/>
     <use style="fill:#1f77b4;stroke:#1f77b4;" x="102.635912" xlink:href="#m791b8e1987" y="148.256295"/>
     <use style="fill:#1f77b4;stroke:#1f77b4;" x="102.460836" xlink:href="#m791b8e1987" y="148.165976"/>
     <use style="fill:#1f77b4;stroke:#1f77b4;" x="102.285129" xlink:href="#m791b8e1987" y="148.029288"/>
     <use style="fill:#1f77b4;stroke:#1f77b4;" x="102.112224" xlink:href="#m791b8e1987" y="147.860662"/>
     <use style="fill:#1f77b4;stroke:#1f77b4;" x="101.940201" xlink:href="#m791b8e1987" y="147.669307"/>
     <use style="fill:#1f77b4;stroke:#1f77b4;" x="101.768656" xlink:href="#m791b8e1987" y="147.508219"/>
     <use style="fill:#1f77b4;stroke:#1f77b4;" x="101.597734" xlink:href="#m791b8e1987" y="147.329282"/>
     <use style="fill:#1f77b4;stroke:#1f77b4;" x="101.428069" xlink:href="#m791b8e1987" y="147.166187"/>
     <use style="fill:#1f77b4;stroke:#1f77b4;" x="101.258849" xlink:href="#m791b8e1987" y="146.995666"/>
     <use style="fill:#1f77b4;stroke:#1f77b4;" x="101.090642" xlink:href="#m791b8e1987" y="146.841248"/>
     <use style="fill:#1f77b4;stroke:#1f77b4;" x="100.923171" xlink:href="#m791b8e1987" y="146.674998"/>
     <use style="fill:#1f77b4;stroke:#1f77b4;" x="100.754197" xlink:href="#m791b8e1987" y="146.489031"/>
     <use style="fill:#1f77b4;stroke:#1f77b4;" x="100.588121" xlink:href="#m791b8e1987" y="146.317751"/>
     <use style="fill:#1f77b4;stroke:#1f77b4;" x="100.422384" xlink:href="#m791b8e1987" y="146.1637"/>
     <use style="fill:#1f77b4;stroke:#1f77b4;" x="100.254001" xlink:href="#m791b8e1987" y="146.012218"/>
     <use style="fill:#1f77b4;stroke:#1f77b4;" x="100.088661" xlink:href="#m791b8e1987" y="145.844526"/>
     <use style="fill:#1f77b4;stroke:#1f77b4;" x="99.923663" xlink:href="#m791b8e1987" y="145.716137"/>
     <use style="fill:#1f77b4;stroke:#1f77b4;" x="99.756693" xlink:href="#m791b8e1987" y="145.557647"/>
     <use style="fill:#1f77b4;stroke:#1f77b4;" x="99.591314" xlink:href="#m791b8e1987" y="145.425275"/>
     <use style="fill:#1f77b4;stroke:#1f77b4;" x="99.426684" xlink:href="#m791b8e1987" y="145.240753"/>
     <use style="fill:#1f77b4;stroke:#1f77b4;" x="99.262692" xlink:href="#m791b8e1987" y="145.097186"/>
     <use style="fill:#1f77b4;stroke:#1f77b4;" x="99.100917" xlink:href="#m791b8e1987" y="144.963033"/>
     <use style="fill:#1f77b4;stroke:#1f77b4;" x="98.936616" xlink:href="#m791b8e1987" y="144.817258"/>
     <use style="fill:#1f77b4;stroke:#1f77b4;" x="98.775395" xlink:href="#m791b8e1987" y="144.68251"/>
     <use style="fill:#1f77b4;stroke:#1f77b4;" x="98.611293" xlink:href="#m791b8e1987" y="144.529112"/>
     <use style="fill:#1f77b4;stroke:#1f77b4;" x="98.448536" xlink:href="#m791b8e1987" y="144.372916"/>
     <use style="fill:#1f77b4;stroke:#1f77b4;" x="98.432107" xlink:href="#m791b8e1987" y="144.361569"/>
     <use style="fill:#1f77b4;stroke:#1f77b4;" x="98.415849" xlink:href="#m791b8e1987" y="144.350083"/>
     <use style="fill:#1f77b4;stroke:#1f77b4;" x="98.399725" xlink:href="#m791b8e1987" y="144.335079"/>
     <use style="fill:#1f77b4;stroke:#1f77b4;" x="98.383335" xlink:href="#m791b8e1987" y="144.324927"/>
     <use style="fill:#1f77b4;stroke:#1f77b4;" x="98.367334" xlink:href="#m791b8e1987" y="144.310742"/>
     <use style="fill:#1f77b4;stroke:#1f77b4;" x="98.351087" xlink:href="#m791b8e1987" y="144.297026"/>
     <use style="fill:#1f77b4;stroke:#1f77b4;" x="98.334785" xlink:href="#m791b8e1987" y="144.284967"/>
     <use style="fill:#1f77b4;stroke:#1f77b4;" x="98.318485" xlink:href="#m791b8e1987" y="144.269286"/>
     <use style="fill:#1f77b4;stroke:#1f77b4;" x="98.302257" xlink:href="#m791b8e1987" y="144.256862"/>
     <use style="fill:#1f77b4;stroke:#1f77b4;" x="98.285955" xlink:href="#m791b8e1987" y="144.248039"/>
     <use style="fill:#1f77b4;stroke:#1f77b4;" x="98.269724" xlink:href="#m791b8e1987" y="144.232624"/>
     <use style="fill:#1f77b4;stroke:#1f77b4;" x="98.253573" xlink:href="#m791b8e1987" y="144.219575"/>
     <use style="fill:#1f77b4;stroke:#1f77b4;" x="98.237157" xlink:href="#m791b8e1987" y="144.205503"/>
     <use style="fill:#1f77b4;stroke:#1f77b4;" x="98.220716" xlink:href="#m791b8e1987" y="144.196755"/>
     <use style="fill:#1f77b4;stroke:#1f77b4;" x="98.204212" xlink:href="#m791b8e1987" y="144.183203"/>
     <use style="fill:#1f77b4;stroke:#1f77b4;" x="98.188604" xlink:href="#m791b8e1987" y="144.171079"/>
     <use style="fill:#1f77b4;stroke:#1f77b4;" x="98.172552" xlink:href="#m791b8e1987" y="144.156917"/>
     <use style="fill:#1f77b4;stroke:#1f77b4;" x="98.156163" xlink:href="#m791b8e1987" y="144.142116"/>
     <use style="fill:#1f77b4;stroke:#1f77b4;" x="98.139975" xlink:href="#m791b8e1987" y="144.132176"/>
     <use style="fill:#1f77b4;stroke:#1f77b4;" x="98.123783" xlink:href="#m791b8e1987" y="144.118722"/>
     <use style="fill:#1f77b4;stroke:#1f77b4;" x="98.107794" xlink:href="#m791b8e1987" y="144.106465"/>
     <use style="fill:#1f77b4;stroke:#1f77b4;" x="98.091581" xlink:href="#m791b8e1987" y="144.093236"/>
     <use style="fill:#1f77b4;stroke:#1f77b4;" x="98.075325" xlink:href="#m791b8e1987" y="144.080646"/>
     <use style="fill:#1f77b4;stroke:#1f77b4;" x="98.05889" xlink:href="#m791b8e1987" y="144.06704"/>
    </g>
   </g>
   <g id="patch_3">
    <path d="M 56.028488 277.111219 
L 56.028488 10.999219 
" style="fill:none;stroke:#000000;stroke-linecap:square;stroke-linejoin:miter;stroke-width:0.8;"/>
   </g>
   <g id="patch_4">
    <path d="M 413.148488 277.111219 
L 413.148488 10.999219 
" style="fill:none;stroke:#000000;stroke-linecap:square;stroke-linejoin:miter;stroke-width:0.8;"/>
   </g>
   <g id="patch_5">
    <path d="M 56.028488 277.111219 
L 413.148488 277.111219 
" style="fill:none;stroke:#000000;stroke-linecap:square;stroke-linejoin:miter;stroke-width:0.8;"/>
   </g>
   <g id="patch_6">
    <path d="M 56.028488 10.999219 
L 413.148488 10.999219 
" style="fill:none;stroke:#000000;stroke-linecap:square;stroke-linejoin:miter;stroke-width:0.8;"/>
   </g>
   <g id="text_21">
    <g clip-path="url(#p01bec289b5)">
     <!-- 2.000 -->
     <g style="fill:#404688;" transform="translate(92.1336 129.036435)rotate(-304.424677)scale(0.06 -0.06)">
      <use xlink:href="#DejaVuSans-50"/>
      <use x="63.623047" xlink:href="#DejaVuSans-46"/>
      <use x="95.410156" xlink:href="#DejaVuSans-48"/>
      <use x="159.033203" xlink:href="#DejaVuSans-48"/>
      <use x="222.65625" xlink:href="#DejaVuSans-48"/>
     </g>
    </g>
   </g>
   <g id="text_22">
    <g clip-path="url(#p01bec289b5)">
     <!-- 2.500 -->
     <g style="fill:#39558c;" transform="translate(74.681406 164.445862)rotate(-357.329131)scale(0.06 -0.06)">
      <use xlink:href="#DejaVuSans-50"/>
      <use x="63.623047" xlink:href="#DejaVuSans-46"/>
      <use x="95.410156" xlink:href="#DejaVuSans-53"/>
      <use x="159.033203" xlink:href="#DejaVuSans-48"/>
      <use x="222.65625" xlink:href="#DejaVuSans-48"/>
     </g>
    </g>
   </g>
   <g id="text_23">
    <g clip-path="url(#p01bec289b5)">
     <!-- 3.000 -->
     <g style="fill:#33638d;" transform="translate(72.625998 111.596705)rotate(-338.986535)scale(0.06 -0.06)">
      <defs>
       <path d="M 40.578125 39.3125 
Q 47.65625 37.796875 51.625 33 
Q 55.609375 28.21875 55.609375 21.1875 
Q 55.609375 10.40625 48.1875 4.484375 
Q 40.765625 -1.421875 27.09375 -1.421875 
Q 22.515625 -1.421875 17.65625 -0.515625 
Q 12.796875 0.390625 7.625 2.203125 
L 7.625 11.71875 
Q 11.71875 9.328125 16.59375 8.109375 
Q 21.484375 6.890625 26.8125 6.890625 
Q 36.078125 6.890625 40.9375 10.546875 
Q 45.796875 14.203125 45.796875 21.1875 
Q 45.796875 27.640625 41.28125 31.265625 
Q 36.765625 34.90625 28.71875 34.90625 
L 20.21875 34.90625 
L 20.21875 43.015625 
L 29.109375 43.015625 
Q 36.375 43.015625 40.234375 45.921875 
Q 44.09375 48.828125 44.09375 54.296875 
Q 44.09375 59.90625 40.109375 62.90625 
Q 36.140625 65.921875 28.71875 65.921875 
Q 24.65625 65.921875 20.015625 65.03125 
Q 15.375 64.15625 9.8125 62.3125 
L 9.8125 71.09375 
Q 15.4375 72.65625 20.34375 73.4375 
Q 25.25 74.21875 29.59375 74.21875 
Q 40.828125 74.21875 47.359375 69.109375 
Q 53.90625 64.015625 53.90625 55.328125 
Q 53.90625 49.265625 50.4375 45.09375 
Q 46.96875 40.921875 40.578125 39.3125 
z
" id="DejaVuSans-51"/>
      </defs>
      <use xlink:href="#DejaVuSans-51"/>
      <use x="63.623047" xlink:href="#DejaVuSans-46"/>
      <use x="95.410156" xlink:href="#DejaVuSans-48"/>
      <use x="159.033203" xlink:href="#DejaVuSans-48"/>
      <use x="222.65625" xlink:href="#DejaVuSans-48"/>
     </g>
    </g>
   </g>
   <g id="text_24">
    <g clip-path="url(#p01bec289b5)">
     <!-- 3.500 -->
     <g style="fill:#2d718e;" transform="translate(70.512986 106.600626)rotate(-339.456992)scale(0.06 -0.06)">
      <use xlink:href="#DejaVuSans-51"/>
      <use x="63.623047" xlink:href="#DejaVuSans-46"/>
      <use x="95.410156" xlink:href="#DejaVuSans-53"/>
      <use x="159.033203" xlink:href="#DejaVuSans-48"/>
      <use x="222.65625" xlink:href="#DejaVuSans-48"/>
     </g>
    </g>
   </g>
   <g id="text_25">
    <g clip-path="url(#p01bec289b5)">
     <!-- 4.000 -->
     <g style="fill:#287d8e;" transform="translate(72.723983 105.668855)rotate(-335.817373)scale(0.06 -0.06)">
      <use xlink:href="#DejaVuSans-52"/>
      <use x="63.623047" xlink:href="#DejaVuSans-46"/>
      <use x="95.410156" xlink:href="#DejaVuSans-48"/>
      <use x="159.033203" xlink:href="#DejaVuSans-48"/>
      <use x="222.65625" xlink:href="#DejaVuSans-48"/>
     </g>
    </g>
   </g>
   <g id="text_26">
    <g clip-path="url(#p01bec289b5)">
     <!-- 4.500 -->
     <g style="fill:#238a8d;" transform="translate(72.744668 104.790297)rotate(-335.239482)scale(0.06 -0.06)">
      <use xlink:href="#DejaVuSans-52"/>
      <use x="63.623047" xlink:href="#DejaVuSans-46"/>
      <use x="95.410156" xlink:href="#DejaVuSans-53"/>
      <use x="159.033203" xlink:href="#DejaVuSans-48"/>
      <use x="222.65625" xlink:href="#DejaVuSans-48"/>
     </g>
    </g>
   </g>
   <g id="text_27">
    <g clip-path="url(#p01bec289b5)">
     <!-- 5.000 -->
     <g style="fill:#1f968b;" transform="translate(68.613733 101.608645)rotate(-333.426787)scale(0.06 -0.06)">
      <use xlink:href="#DejaVuSans-53"/>
      <use x="63.623047" xlink:href="#DejaVuSans-46"/>
      <use x="95.410156" xlink:href="#DejaVuSans-48"/>
      <use x="159.033203" xlink:href="#DejaVuSans-48"/>
      <use x="222.65625" xlink:href="#DejaVuSans-48"/>
     </g>
    </g>
   </g>
   <g id="text_28">
    <g clip-path="url(#p01bec289b5)">
     <!-- 5.500 -->
     <g style="fill:#20a386;" transform="translate(68.607281 100.403257)rotate(-333.584103)scale(0.06 -0.06)">
      <use xlink:href="#DejaVuSans-53"/>
      <use x="63.623047" xlink:href="#DejaVuSans-46"/>
      <use x="95.410156" xlink:href="#DejaVuSans-53"/>
      <use x="159.033203" xlink:href="#DejaVuSans-48"/>
      <use x="222.65625" xlink:href="#DejaVuSans-48"/>
     </g>
    </g>
   </g>
   <g id="text_29">
    <g clip-path="url(#p01bec289b5)">
     <!-- 6.000 -->
     <g style="fill:#29af7f;" transform="translate(94.031308 182.393053)rotate(-9.210396)scale(0.06 -0.06)">
      <use xlink:href="#DejaVuSans-54"/>
      <use x="63.623047" xlink:href="#DejaVuSans-46"/>
      <use x="95.410156" xlink:href="#DejaVuSans-48"/>
      <use x="159.033203" xlink:href="#DejaVuSans-48"/>
      <use x="222.65625" xlink:href="#DejaVuSans-48"/>
     </g>
    </g>
   </g>
   <g id="text_30">
    <g clip-path="url(#p01bec289b5)">
     <!-- 6.500 -->
     <g style="fill:#3dbc74;" transform="translate(68.555095 98.143219)rotate(-334.919135)scale(0.06 -0.06)">
      <use xlink:href="#DejaVuSans-54"/>
      <use x="63.623047" xlink:href="#DejaVuSans-46"/>
      <use x="95.410156" xlink:href="#DejaVuSans-53"/>
      <use x="159.033203" xlink:href="#DejaVuSans-48"/>
      <use x="222.65625" xlink:href="#DejaVuSans-48"/>
     </g>
    </g>
   </g>
   <g id="text_31">
    <g clip-path="url(#p01bec289b5)">
     <!-- 7.000 -->
     <g style="fill:#56c667;" transform="translate(47.841078 182.773453)rotate(-9.686744)scale(0.06 -0.06)">
      <use xlink:href="#DejaVuSans-55"/>
      <use x="63.623047" xlink:href="#DejaVuSans-46"/>
      <use x="95.410156" xlink:href="#DejaVuSans-48"/>
      <use x="159.033203" xlink:href="#DejaVuSans-48"/>
      <use x="222.65625" xlink:href="#DejaVuSans-48"/>
     </g>
    </g>
   </g>
   <g id="text_32">
    <g clip-path="url(#p01bec289b5)">
     <!-- 7.500 -->
     <g style="fill:#75d054;" transform="translate(70.289279 97.169744)rotate(-332.251495)scale(0.06 -0.06)">
      <use xlink:href="#DejaVuSans-55"/>
      <use x="63.623047" xlink:href="#DejaVuSans-46"/>
      <use x="95.410156" xlink:href="#DejaVuSans-53"/>
      <use x="159.033203" xlink:href="#DejaVuSans-48"/>
      <use x="222.65625" xlink:href="#DejaVuSans-48"/>
     </g>
    </g>
   </g>
   <g id="text_33">
    <g clip-path="url(#p01bec289b5)">
     <!-- 8.000 -->
     <g style="fill:#95d840;" transform="translate(71.288922 96.922014)rotate(-330.548109)scale(0.06 -0.06)">
      <use xlink:href="#DejaVuSans-56"/>
      <use x="63.623047" xlink:href="#DejaVuSans-46"/>
      <use x="95.410156" xlink:href="#DejaVuSans-48"/>
      <use x="159.033203" xlink:href="#DejaVuSans-48"/>
      <use x="222.65625" xlink:href="#DejaVuSans-48"/>
     </g>
    </g>
   </g>
   <g id="text_34">
    <g clip-path="url(#p01bec289b5)">
     <!-- 8.500 -->
     <g style="fill:#bade28;" transform="translate(72.146687 96.768283)rotate(-329.482553)scale(0.06 -0.06)">
      <use xlink:href="#DejaVuSans-56"/>
      <use x="63.623047" xlink:href="#DejaVuSans-46"/>
      <use x="95.410156" xlink:href="#DejaVuSans-53"/>
      <use x="159.033203" xlink:href="#DejaVuSans-48"/>
      <use x="222.65625" xlink:href="#DejaVuSans-48"/>
     </g>
    </g>
   </g>
   <g id="text_35">
    <g clip-path="url(#p01bec289b5)">
     <!-- 9.000 -->
     <g style="fill:#dde318;" transform="translate(73.005501 96.620342)rotate(-328.450432)scale(0.06 -0.06)">
      <use xlink:href="#DejaVuSans-57"/>
      <use x="63.623047" xlink:href="#DejaVuSans-46"/>
      <use x="95.410156" xlink:href="#DejaVuSans-48"/>
      <use x="159.033203" xlink:href="#DejaVuSans-48"/>
      <use x="222.65625" xlink:href="#DejaVuSans-48"/>
     </g>
    </g>
   </g>
   <g id="text_36">
    <g clip-path="url(#p01bec289b5)">
     <!-- 9.500 -->
     <g style="fill:#fde725;" transform="translate(73.072895 96.426412)rotate(-328.060289)scale(0.06 -0.06)">
      <use xlink:href="#DejaVuSans-57"/>
      <use x="63.623047" xlink:href="#DejaVuSans-46"/>
      <use x="95.410156" xlink:href="#DejaVuSans-53"/>
      <use x="159.033203" xlink:href="#DejaVuSans-48"/>
      <use x="222.65625" xlink:href="#DejaVuSans-48"/>
     </g>
    </g>
   </g>
   <g id="text_37">
    <g clip-path="url(#p01bec289b5)">
     <!-- 10.000 -->
     <g style="fill:#440154;" transform="translate(73.619597 96.338249)rotate(-327.168218)scale(0.06 -0.06)">
      <use xlink:href="#DejaVuSans-49"/>
      <use x="63.623047" xlink:href="#DejaVuSans-48"/>
      <use x="127.246094" xlink:href="#DejaVuSans-46"/>
      <use x="159.033203" xlink:href="#DejaVuSans-48"/>
      <use x="222.65625" xlink:href="#DejaVuSans-48"/>
      <use x="286.279297" xlink:href="#DejaVuSans-48"/>
     </g>
    </g>
   </g>
   <g id="text_38">
    <g clip-path="url(#p01bec289b5)">
     <!-- 100.000 -->
     <g style="fill:#440154;" transform="translate(89.454734 220.343746)rotate(-23.749318)scale(0.06 -0.06)">
      <use xlink:href="#DejaVuSans-49"/>
      <use x="63.623047" xlink:href="#DejaVuSans-48"/>
      <use x="127.246094" xlink:href="#DejaVuSans-48"/>
      <use x="190.869141" xlink:href="#DejaVuSans-46"/>
      <use x="222.65625" xlink:href="#DejaVuSans-48"/>
      <use x="286.279297" xlink:href="#DejaVuSans-48"/>
      <use x="349.902344" xlink:href="#DejaVuSans-48"/>
     </g>
    </g>
   </g>
   <g id="text_39">
    <g clip-path="url(#p01bec289b5)">
     <!-- 1000.000 -->
     <g style="fill:#440154;" transform="translate(74.493304 234.378937)rotate(-18.536043)scale(0.06 -0.06)">
      <use xlink:href="#DejaVuSans-49"/>
      <use x="63.623047" xlink:href="#DejaVuSans-48"/>
      <use x="127.246094" xlink:href="#DejaVuSans-48"/>
      <use x="190.869141" xlink:href="#DejaVuSans-48"/>
      <use x="254.492188" xlink:href="#DejaVuSans-46"/>
      <use x="286.279297" xlink:href="#DejaVuSans-48"/>
      <use x="349.902344" xlink:href="#DejaVuSans-48"/>
      <use x="413.525391" xlink:href="#DejaVuSans-48"/>
     </g>
    </g>
   </g>
   <g id="text_40">
    <g clip-path="url(#p01bec289b5)">
     <!-- 1000.000 -->
     <g style="fill:#440154;" transform="translate(79.019293 79.186408)rotate(-310.880396)scale(0.06 -0.06)">
      <use xlink:href="#DejaVuSans-49"/>
      <use x="63.623047" xlink:href="#DejaVuSans-48"/>
      <use x="127.246094" xlink:href="#DejaVuSans-48"/>
      <use x="190.869141" xlink:href="#DejaVuSans-48"/>
      <use x="254.492188" xlink:href="#DejaVuSans-46"/>
      <use x="286.279297" xlink:href="#DejaVuSans-48"/>
      <use x="349.902344" xlink:href="#DejaVuSans-48"/>
      <use x="413.525391" xlink:href="#DejaVuSans-48"/>
     </g>
    </g>
   </g>
   <g id="text_41">
    <g clip-path="url(#p01bec289b5)">
     <!-- 10000.000 -->
     <g style="fill:#440154;" transform="translate(75.275352 249.365175)rotate(-22.429515)scale(0.06 -0.06)">
      <use xlink:href="#DejaVuSans-49"/>
      <use x="63.623047" xlink:href="#DejaVuSans-48"/>
      <use x="127.246094" xlink:href="#DejaVuSans-48"/>
      <use x="190.869141" xlink:href="#DejaVuSans-48"/>
      <use x="254.492188" xlink:href="#DejaVuSans-48"/>
      <use x="318.115234" xlink:href="#DejaVuSans-46"/>
      <use x="349.902344" xlink:href="#DejaVuSans-48"/>
      <use x="413.525391" xlink:href="#DejaVuSans-48"/>
      <use x="477.148438" xlink:href="#DejaVuSans-48"/>
     </g>
    </g>
   </g>
   <g id="text_42">
    <g clip-path="url(#p01bec289b5)">
     <!-- 10000.000 -->
     <g style="fill:#440154;" transform="translate(83.004574 71.665925)rotate(-305.817756)scale(0.06 -0.06)">
      <use xlink:href="#DejaVuSans-49"/>
      <use x="63.623047" xlink:href="#DejaVuSans-48"/>
      <use x="127.246094" xlink:href="#DejaVuSans-48"/>
      <use x="190.869141" xlink:href="#DejaVuSans-48"/>
      <use x="254.492188" xlink:href="#DejaVuSans-48"/>
      <use x="318.115234" xlink:href="#DejaVuSans-46"/>
      <use x="349.902344" xlink:href="#DejaVuSans-48"/>
      <use x="413.525391" xlink:href="#DejaVuSans-48"/>
      <use x="477.148438" xlink:href="#DejaVuSans-48"/>
     </g>
    </g>
   </g>
   <g id="text_43">
    <g clip-path="url(#p01bec289b5)">
     <!-- 100000.000 -->
     <g style="fill:#440154;" transform="translate(74.356413 261.546195)rotate(-27.706664)scale(0.06 -0.06)">
      <use xlink:href="#DejaVuSans-49"/>
      <use x="63.623047" xlink:href="#DejaVuSans-48"/>
      <use x="127.246094" xlink:href="#DejaVuSans-48"/>
      <use x="190.869141" xlink:href="#DejaVuSans-48"/>
      <use x="254.492188" xlink:href="#DejaVuSans-48"/>
      <use x="318.115234" xlink:href="#DejaVuSans-48"/>
      <use x="381.738281" xlink:href="#DejaVuSans-46"/>
      <use x="413.525391" xlink:href="#DejaVuSans-48"/>
      <use x="477.148438" xlink:href="#DejaVuSans-48"/>
      <use x="540.771484" xlink:href="#DejaVuSans-48"/>
     </g>
    </g>
   </g>
   <g id="text_44">
    <g clip-path="url(#p01bec289b5)">
     <!-- 100000.000 -->
     <g style="fill:#440154;" transform="translate(81.818599 59.601464)rotate(-306.972241)scale(0.06 -0.06)">
      <use xlink:href="#DejaVuSans-49"/>
      <use x="63.623047" xlink:href="#DejaVuSans-48"/>
      <use x="127.246094" xlink:href="#DejaVuSans-48"/>
      <use x="190.869141" xlink:href="#DejaVuSans-48"/>
      <use x="254.492188" xlink:href="#DejaVuSans-48"/>
      <use x="318.115234" xlink:href="#DejaVuSans-48"/>
      <use x="381.738281" xlink:href="#DejaVuSans-46"/>
      <use x="413.525391" xlink:href="#DejaVuSans-48"/>
      <use x="477.148438" xlink:href="#DejaVuSans-48"/>
      <use x="540.771484" xlink:href="#DejaVuSans-48"/>
     </g>
    </g>
   </g>
   <g id="text_45">
    <g clip-path="url(#p01bec289b5)">
     <!-- 1000000.000 -->
     <g style="fill:#450457;" transform="translate(77.193971 273.112484)rotate(-29.399829)scale(0.06 -0.06)">
      <use xlink:href="#DejaVuSans-49"/>
      <use x="63.623047" xlink:href="#DejaVuSans-48"/>
      <use x="127.246094" xlink:href="#DejaVuSans-48"/>
      <use x="190.869141" xlink:href="#DejaVuSans-48"/>
      <use x="254.492188" xlink:href="#DejaVuSans-48"/>
      <use x="318.115234" xlink:href="#DejaVuSans-48"/>
      <use x="381.738281" xlink:href="#DejaVuSans-48"/>
      <use x="445.361328" xlink:href="#DejaVuSans-46"/>
      <use x="477.148438" xlink:href="#DejaVuSans-48"/>
      <use x="540.771484" xlink:href="#DejaVuSans-48"/>
      <use x="604.394531" xlink:href="#DejaVuSans-48"/>
     </g>
    </g>
   </g>
   <g id="text_46">
    <g clip-path="url(#p01bec289b5)">
     <!-- 1000000.000 -->
     <g style="fill:#450457;" transform="translate(80.579664 48.104722)rotate(-306.537275)scale(0.06 -0.06)">
      <use xlink:href="#DejaVuSans-49"/>
      <use x="63.623047" xlink:href="#DejaVuSans-48"/>
      <use x="127.246094" xlink:href="#DejaVuSans-48"/>
      <use x="190.869141" xlink:href="#DejaVuSans-48"/>
      <use x="254.492188" xlink:href="#DejaVuSans-48"/>
      <use x="318.115234" xlink:href="#DejaVuSans-48"/>
      <use x="381.738281" xlink:href="#DejaVuSans-48"/>
      <use x="445.361328" xlink:href="#DejaVuSans-46"/>
      <use x="477.148438" xlink:href="#DejaVuSans-48"/>
      <use x="540.771484" xlink:href="#DejaVuSans-48"/>
      <use x="604.394531" xlink:href="#DejaVuSans-48"/>
     </g>
    </g>
   </g>
   <g id="text_47">
    <g clip-path="url(#p01bec289b5)">
     <!-- 10000000.000 -->
     <g style="fill:#482475;" transform="translate(79.340337 36.739285)rotate(-306.892535)scale(0.06 -0.06)">
      <use xlink:href="#DejaVuSans-49"/>
      <use x="63.623047" xlink:href="#DejaVuSans-48"/>
      <use x="127.246094" xlink:href="#DejaVuSans-48"/>
      <use x="190.869141" xlink:href="#DejaVuSans-48"/>
      <use x="254.492188" xlink:href="#DejaVuSans-48"/>
      <use x="318.115234" xlink:href="#DejaVuSans-48"/>
      <use x="381.738281" xlink:href="#DejaVuSans-48"/>
      <use x="445.361328" xlink:href="#DejaVuSans-48"/>
      <use x="508.984375" xlink:href="#DejaVuSans-46"/>
      <use x="540.771484" xlink:href="#DejaVuSans-48"/>
      <use x="604.394531" xlink:href="#DejaVuSans-48"/>
      <use x="668.017578" xlink:href="#DejaVuSans-48"/>
     </g>
    </g>
   </g>
   <g id="text_48">
    <g clip-path="url(#p01bec289b5)">
     <!-- 100000000.000 -->
     <g style="fill:#fde725;" transform="translate(74.426715 24.2367)rotate(-312.411689)scale(0.06 -0.06)">
      <use xlink:href="#DejaVuSans-49"/>
      <use x="63.623047" xlink:href="#DejaVuSans-48"/>
      <use x="127.246094" xlink:href="#DejaVuSans-48"/>
      <use x="190.869141" xlink:href="#DejaVuSans-48"/>
      <use x="254.492188" xlink:href="#DejaVuSans-48"/>
      <use x="318.115234" xlink:href="#DejaVuSans-48"/>
      <use x="381.738281" xlink:href="#DejaVuSans-48"/>
      <use x="445.361328" xlink:href="#DejaVuSans-48"/>
      <use x="508.984375" xlink:href="#DejaVuSans-48"/>
      <use x="572.607422" xlink:href="#DejaVuSans-46"/>
      <use x="604.394531" xlink:href="#DejaVuSans-48"/>
      <use x="668.017578" xlink:href="#DejaVuSans-48"/>
      <use x="731.640625" xlink:href="#DejaVuSans-48"/>
     </g>
    </g>
   </g>
  </g>
 </g>
 <defs>
  <clipPath id="p01bec289b5">
   <rect height="266.112" width="357.12" x="56.028488" y="10.999219"/>
  </clipPath>
 </defs>
</svg>
