<?xml version="1.0" encoding="utf-8" standalone="no"?>
<!DOCTYPE svg PUBLIC "-//W3C//DTD SVG 1.1//EN"
  "http://www.w3.org/Graphics/SVG/1.1/DTD/svg11.dtd">
<!-- Created with matplotlib (https://matplotlib.org/) -->
<svg height="321.713144pt" version="1.1" viewBox="0 0 420.348487 321.713144" width="420.348487pt" xmlns="http://www.w3.org/2000/svg" xmlns:xlink="http://www.w3.org/1999/xlink">
 <metadata>
  <rdf:RDF xmlns:cc="http://creativecommons.org/ns#" xmlns:dc="http://purl.org/dc/elements/1.1/" xmlns:rdf="http://www.w3.org/1999/02/22-rdf-syntax-ns#">
   <cc:Work>
    <dc:type rdf:resource="http://purl.org/dc/dcmitype/StillImage"/>
    <dc:date>2021-09-21T23:35:58.708056</dc:date>
    <dc:format>image/svg+xml</dc:format>
    <dc:creator>
     <cc:Agent>
      <dc:title>Matplotlib v3.3.1, https://matplotlib.org/</dc:title>
     </cc:Agent>
    </dc:creator>
   </cc:Work>
  </rdf:RDF>
 </metadata>
 <defs>
  <style type="text/css">*{stroke-linecap:butt;stroke-linejoin:round;}</style>
 </defs>
 <g id="figure_1">
  <g id="patch_1">
   <path d="M 0 321.713144 
L 420.348487 321.713144 
L 420.348487 0 
L 0 0 
z
" style="fill:#ffffff;"/>
  </g>
  <g id="axes_1">
   <g id="patch_2">
    <path d="M 56.028488 277.111219 
L 413.148488 277.111219 
L 413.148488 10.999219 
L 56.028488 10.999219 
z
" style="fill:#ffffff;"/>
   </g>
   <g id="matplotlib.axis_1">
    <g id="xtick_1">
     <g id="line2d_1">
      <defs>
       <path d="M 0 0 
L 0 3.5 
" id="mf69c77deda" style="stroke:#000000;stroke-width:0.8;"/>
      </defs>
      <g>
       <use style="stroke:#000000;stroke-width:0.8;" x="56.028488" xlink:href="#mf69c77deda" y="277.111219"/>
      </g>
     </g>
     <g id="text_1">
      <!-- −20 -->
      <g transform="translate(45.476144 291.709656)scale(0.1 -0.1)">
       <defs>
        <path d="M 10.59375 35.5 
L 73.1875 35.5 
L 73.1875 27.203125 
L 10.59375 27.203125 
z
" id="DejaVuSans-8722"/>
        <path d="M 19.1875 8.296875 
L 53.609375 8.296875 
L 53.609375 0 
L 7.328125 0 
L 7.328125 8.296875 
Q 12.9375 14.109375 22.625 23.890625 
Q 32.328125 33.6875 34.8125 36.53125 
Q 39.546875 41.84375 41.421875 45.53125 
Q 43.3125 49.21875 43.3125 52.78125 
Q 43.3125 58.59375 39.234375 62.25 
Q 35.15625 65.921875 28.609375 65.921875 
Q 23.96875 65.921875 18.8125 64.3125 
Q 13.671875 62.703125 7.8125 59.421875 
L 7.8125 69.390625 
Q 13.765625 71.78125 18.9375 73 
Q 24.125 74.21875 28.421875 74.21875 
Q 39.75 74.21875 46.484375 68.546875 
Q 53.21875 62.890625 53.21875 53.421875 
Q 53.21875 48.921875 51.53125 44.890625 
Q 49.859375 40.875 45.40625 35.40625 
Q 44.1875 33.984375 37.640625 27.21875 
Q 31.109375 20.453125 19.1875 8.296875 
z
" id="DejaVuSans-50"/>
        <path d="M 31.78125 66.40625 
Q 24.171875 66.40625 20.328125 58.90625 
Q 16.5 51.421875 16.5 36.375 
Q 16.5 21.390625 20.328125 13.890625 
Q 24.171875 6.390625 31.78125 6.390625 
Q 39.453125 6.390625 43.28125 13.890625 
Q 47.125 21.390625 47.125 36.375 
Q 47.125 51.421875 43.28125 58.90625 
Q 39.453125 66.40625 31.78125 66.40625 
z
M 31.78125 74.21875 
Q 44.046875 74.21875 50.515625 64.515625 
Q 56.984375 54.828125 56.984375 36.375 
Q 56.984375 17.96875 50.515625 8.265625 
Q 44.046875 -1.421875 31.78125 -1.421875 
Q 19.53125 -1.421875 13.0625 8.265625 
Q 6.59375 17.96875 6.59375 36.375 
Q 6.59375 54.828125 13.0625 64.515625 
Q 19.53125 74.21875 31.78125 74.21875 
z
" id="DejaVuSans-48"/>
       </defs>
       <use xlink:href="#DejaVuSans-8722"/>
       <use x="83.789062" xlink:href="#DejaVuSans-50"/>
       <use x="147.412109" xlink:href="#DejaVuSans-48"/>
      </g>
     </g>
    </g>
    <g id="xtick_2">
     <g id="line2d_2">
      <g>
       <use style="stroke:#000000;stroke-width:0.8;" x="98.042605" xlink:href="#mf69c77deda" y="277.111219"/>
      </g>
     </g>
     <g id="text_2">
      <!-- 0 -->
      <g transform="translate(94.861355 291.709656)scale(0.1 -0.1)">
       <use xlink:href="#DejaVuSans-48"/>
      </g>
     </g>
    </g>
    <g id="xtick_3">
     <g id="line2d_3">
      <g>
       <use style="stroke:#000000;stroke-width:0.8;" x="140.056723" xlink:href="#mf69c77deda" y="277.111219"/>
      </g>
     </g>
     <g id="text_3">
      <!-- 20 -->
      <g transform="translate(133.694223 291.709656)scale(0.1 -0.1)">
       <use xlink:href="#DejaVuSans-50"/>
       <use x="63.623047" xlink:href="#DejaVuSans-48"/>
      </g>
     </g>
    </g>
    <g id="xtick_4">
     <g id="line2d_4">
      <g>
       <use style="stroke:#000000;stroke-width:0.8;" x="182.07084" xlink:href="#mf69c77deda" y="277.111219"/>
      </g>
     </g>
     <g id="text_4">
      <!-- 40 -->
      <g transform="translate(175.70834 291.709656)scale(0.1 -0.1)">
       <defs>
        <path d="M 37.796875 64.3125 
L 12.890625 25.390625 
L 37.796875 25.390625 
z
M 35.203125 72.90625 
L 47.609375 72.90625 
L 47.609375 25.390625 
L 58.015625 25.390625 
L 58.015625 17.1875 
L 47.609375 17.1875 
L 47.609375 0 
L 37.796875 0 
L 37.796875 17.1875 
L 4.890625 17.1875 
L 4.890625 26.703125 
z
" id="DejaVuSans-52"/>
       </defs>
       <use xlink:href="#DejaVuSans-52"/>
       <use x="63.623047" xlink:href="#DejaVuSans-48"/>
      </g>
     </g>
    </g>
    <g id="xtick_5">
     <g id="line2d_5">
      <g>
       <use style="stroke:#000000;stroke-width:0.8;" x="224.084958" xlink:href="#mf69c77deda" y="277.111219"/>
      </g>
     </g>
     <g id="text_5">
      <!-- 60 -->
      <g transform="translate(217.722458 291.709656)scale(0.1 -0.1)">
       <defs>
        <path d="M 33.015625 40.375 
Q 26.375 40.375 22.484375 35.828125 
Q 18.609375 31.296875 18.609375 23.390625 
Q 18.609375 15.53125 22.484375 10.953125 
Q 26.375 6.390625 33.015625 6.390625 
Q 39.65625 6.390625 43.53125 10.953125 
Q 47.40625 15.53125 47.40625 23.390625 
Q 47.40625 31.296875 43.53125 35.828125 
Q 39.65625 40.375 33.015625 40.375 
z
M 52.59375 71.296875 
L 52.59375 62.3125 
Q 48.875 64.0625 45.09375 64.984375 
Q 41.3125 65.921875 37.59375 65.921875 
Q 27.828125 65.921875 22.671875 59.328125 
Q 17.53125 52.734375 16.796875 39.40625 
Q 19.671875 43.65625 24.015625 45.921875 
Q 28.375 48.1875 33.59375 48.1875 
Q 44.578125 48.1875 50.953125 41.515625 
Q 57.328125 34.859375 57.328125 23.390625 
Q 57.328125 12.15625 50.6875 5.359375 
Q 44.046875 -1.421875 33.015625 -1.421875 
Q 20.359375 -1.421875 13.671875 8.265625 
Q 6.984375 17.96875 6.984375 36.375 
Q 6.984375 53.65625 15.1875 63.9375 
Q 23.390625 74.21875 37.203125 74.21875 
Q 40.921875 74.21875 44.703125 73.484375 
Q 48.484375 72.75 52.59375 71.296875 
z
" id="DejaVuSans-54"/>
       </defs>
       <use xlink:href="#DejaVuSans-54"/>
       <use x="63.623047" xlink:href="#DejaVuSans-48"/>
      </g>
     </g>
    </g>
    <g id="xtick_6">
     <g id="line2d_6">
      <g>
       <use style="stroke:#000000;stroke-width:0.8;" x="266.099076" xlink:href="#mf69c77deda" y="277.111219"/>
      </g>
     </g>
     <g id="text_6">
      <!-- 80 -->
      <g transform="translate(259.736576 291.709656)scale(0.1 -0.1)">
       <defs>
        <path d="M 31.78125 34.625 
Q 24.75 34.625 20.71875 30.859375 
Q 16.703125 27.09375 16.703125 20.515625 
Q 16.703125 13.921875 20.71875 10.15625 
Q 24.75 6.390625 31.78125 6.390625 
Q 38.8125 6.390625 42.859375 10.171875 
Q 46.921875 13.96875 46.921875 20.515625 
Q 46.921875 27.09375 42.890625 30.859375 
Q 38.875 34.625 31.78125 34.625 
z
M 21.921875 38.8125 
Q 15.578125 40.375 12.03125 44.71875 
Q 8.5 49.078125 8.5 55.328125 
Q 8.5 64.0625 14.71875 69.140625 
Q 20.953125 74.21875 31.78125 74.21875 
Q 42.671875 74.21875 48.875 69.140625 
Q 55.078125 64.0625 55.078125 55.328125 
Q 55.078125 49.078125 51.53125 44.71875 
Q 48 40.375 41.703125 38.8125 
Q 48.828125 37.15625 52.796875 32.3125 
Q 56.78125 27.484375 56.78125 20.515625 
Q 56.78125 9.90625 50.3125 4.234375 
Q 43.84375 -1.421875 31.78125 -1.421875 
Q 19.734375 -1.421875 13.25 4.234375 
Q 6.78125 9.90625 6.78125 20.515625 
Q 6.78125 27.484375 10.78125 32.3125 
Q 14.796875 37.15625 21.921875 38.8125 
z
M 18.3125 54.390625 
Q 18.3125 48.734375 21.84375 45.5625 
Q 25.390625 42.390625 31.78125 42.390625 
Q 38.140625 42.390625 41.71875 45.5625 
Q 45.3125 48.734375 45.3125 54.390625 
Q 45.3125 60.0625 41.71875 63.234375 
Q 38.140625 66.40625 31.78125 66.40625 
Q 25.390625 66.40625 21.84375 63.234375 
Q 18.3125 60.0625 18.3125 54.390625 
z
" id="DejaVuSans-56"/>
       </defs>
       <use xlink:href="#DejaVuSans-56"/>
       <use x="63.623047" xlink:href="#DejaVuSans-48"/>
      </g>
     </g>
    </g>
    <g id="xtick_7">
     <g id="line2d_7">
      <g>
       <use style="stroke:#000000;stroke-width:0.8;" x="308.113193" xlink:href="#mf69c77deda" y="277.111219"/>
      </g>
     </g>
     <g id="text_7">
      <!-- 100 -->
      <g transform="translate(298.569443 291.709656)scale(0.1 -0.1)">
       <defs>
        <path d="M 12.40625 8.296875 
L 28.515625 8.296875 
L 28.515625 63.921875 
L 10.984375 60.40625 
L 10.984375 69.390625 
L 28.421875 72.90625 
L 38.28125 72.90625 
L 38.28125 8.296875 
L 54.390625 8.296875 
L 54.390625 0 
L 12.40625 0 
z
" id="DejaVuSans-49"/>
       </defs>
       <use xlink:href="#DejaVuSans-49"/>
       <use x="63.623047" xlink:href="#DejaVuSans-48"/>
       <use x="127.246094" xlink:href="#DejaVuSans-48"/>
      </g>
     </g>
    </g>
    <g id="xtick_8">
     <g id="line2d_8">
      <g>
       <use style="stroke:#000000;stroke-width:0.8;" x="350.127311" xlink:href="#mf69c77deda" y="277.111219"/>
      </g>
     </g>
     <g id="text_8">
      <!-- 120 -->
      <g transform="translate(340.583561 291.709656)scale(0.1 -0.1)">
       <use xlink:href="#DejaVuSans-49"/>
       <use x="63.623047" xlink:href="#DejaVuSans-50"/>
       <use x="127.246094" xlink:href="#DejaVuSans-48"/>
      </g>
     </g>
    </g>
    <g id="xtick_9">
     <g id="line2d_9">
      <g>
       <use style="stroke:#000000;stroke-width:0.8;" x="392.141429" xlink:href="#mf69c77deda" y="277.111219"/>
      </g>
     </g>
     <g id="text_9">
      <!-- 140 -->
      <g transform="translate(382.597679 291.709656)scale(0.1 -0.1)">
       <use xlink:href="#DejaVuSans-49"/>
       <use x="63.623047" xlink:href="#DejaVuSans-52"/>
       <use x="127.246094" xlink:href="#DejaVuSans-48"/>
      </g>
     </g>
    </g>
    <g id="text_10">
     <!-- 1st PC: 98.29 % -->
     <g transform="translate(165.868088 310.919444)scale(0.1728 -0.1728)">
      <defs>
       <path d="M 44.28125 53.078125 
L 44.28125 44.578125 
Q 40.484375 46.53125 36.375 47.5 
Q 32.28125 48.484375 27.875 48.484375 
Q 21.1875 48.484375 17.84375 46.4375 
Q 14.5 44.390625 14.5 40.28125 
Q 14.5 37.15625 16.890625 35.375 
Q 19.28125 33.59375 26.515625 31.984375 
L 29.59375 31.296875 
Q 39.15625 29.25 43.1875 25.515625 
Q 47.21875 21.78125 47.21875 15.09375 
Q 47.21875 7.46875 41.1875 3.015625 
Q 35.15625 -1.421875 24.609375 -1.421875 
Q 20.21875 -1.421875 15.453125 -0.5625 
Q 10.6875 0.296875 5.421875 2 
L 5.421875 11.28125 
Q 10.40625 8.6875 15.234375 7.390625 
Q 20.0625 6.109375 24.8125 6.109375 
Q 31.15625 6.109375 34.5625 8.28125 
Q 37.984375 10.453125 37.984375 14.40625 
Q 37.984375 18.0625 35.515625 20.015625 
Q 33.0625 21.96875 24.703125 23.78125 
L 21.578125 24.515625 
Q 13.234375 26.265625 9.515625 29.90625 
Q 5.8125 33.546875 5.8125 39.890625 
Q 5.8125 47.609375 11.28125 51.796875 
Q 16.75 56 26.8125 56 
Q 31.78125 56 36.171875 55.265625 
Q 40.578125 54.546875 44.28125 53.078125 
z
" id="DejaVuSans-115"/>
       <path d="M 18.3125 70.21875 
L 18.3125 54.6875 
L 36.8125 54.6875 
L 36.8125 47.703125 
L 18.3125 47.703125 
L 18.3125 18.015625 
Q 18.3125 11.328125 20.140625 9.421875 
Q 21.96875 7.515625 27.59375 7.515625 
L 36.8125 7.515625 
L 36.8125 0 
L 27.59375 0 
Q 17.1875 0 13.234375 3.875 
Q 9.28125 7.765625 9.28125 18.015625 
L 9.28125 47.703125 
L 2.6875 47.703125 
L 2.6875 54.6875 
L 9.28125 54.6875 
L 9.28125 70.21875 
z
" id="DejaVuSans-116"/>
       <path id="DejaVuSans-32"/>
       <path d="M 19.671875 64.796875 
L 19.671875 37.40625 
L 32.078125 37.40625 
Q 38.96875 37.40625 42.71875 40.96875 
Q 46.484375 44.53125 46.484375 51.125 
Q 46.484375 57.671875 42.71875 61.234375 
Q 38.96875 64.796875 32.078125 64.796875 
z
M 9.8125 72.90625 
L 32.078125 72.90625 
Q 44.34375 72.90625 50.609375 67.359375 
Q 56.890625 61.8125 56.890625 51.125 
Q 56.890625 40.328125 50.609375 34.8125 
Q 44.34375 29.296875 32.078125 29.296875 
L 19.671875 29.296875 
L 19.671875 0 
L 9.8125 0 
z
" id="DejaVuSans-80"/>
       <path d="M 64.40625 67.28125 
L 64.40625 56.890625 
Q 59.421875 61.53125 53.78125 63.8125 
Q 48.140625 66.109375 41.796875 66.109375 
Q 29.296875 66.109375 22.65625 58.46875 
Q 16.015625 50.828125 16.015625 36.375 
Q 16.015625 21.96875 22.65625 14.328125 
Q 29.296875 6.6875 41.796875 6.6875 
Q 48.140625 6.6875 53.78125 8.984375 
Q 59.421875 11.28125 64.40625 15.921875 
L 64.40625 5.609375 
Q 59.234375 2.09375 53.4375 0.328125 
Q 47.65625 -1.421875 41.21875 -1.421875 
Q 24.65625 -1.421875 15.125 8.703125 
Q 5.609375 18.84375 5.609375 36.375 
Q 5.609375 53.953125 15.125 64.078125 
Q 24.65625 74.21875 41.21875 74.21875 
Q 47.75 74.21875 53.53125 72.484375 
Q 59.328125 70.75 64.40625 67.28125 
z
" id="DejaVuSans-67"/>
       <path d="M 11.71875 12.40625 
L 22.015625 12.40625 
L 22.015625 0 
L 11.71875 0 
z
M 11.71875 51.703125 
L 22.015625 51.703125 
L 22.015625 39.3125 
L 11.71875 39.3125 
z
" id="DejaVuSans-58"/>
       <path d="M 10.984375 1.515625 
L 10.984375 10.5 
Q 14.703125 8.734375 18.5 7.8125 
Q 22.3125 6.890625 25.984375 6.890625 
Q 35.75 6.890625 40.890625 13.453125 
Q 46.046875 20.015625 46.78125 33.40625 
Q 43.953125 29.203125 39.59375 26.953125 
Q 35.25 24.703125 29.984375 24.703125 
Q 19.046875 24.703125 12.671875 31.3125 
Q 6.296875 37.9375 6.296875 49.421875 
Q 6.296875 60.640625 12.9375 67.421875 
Q 19.578125 74.21875 30.609375 74.21875 
Q 43.265625 74.21875 49.921875 64.515625 
Q 56.59375 54.828125 56.59375 36.375 
Q 56.59375 19.140625 48.40625 8.859375 
Q 40.234375 -1.421875 26.421875 -1.421875 
Q 22.703125 -1.421875 18.890625 -0.6875 
Q 15.09375 0.046875 10.984375 1.515625 
z
M 30.609375 32.421875 
Q 37.25 32.421875 41.125 36.953125 
Q 45.015625 41.5 45.015625 49.421875 
Q 45.015625 57.28125 41.125 61.84375 
Q 37.25 66.40625 30.609375 66.40625 
Q 23.96875 66.40625 20.09375 61.84375 
Q 16.21875 57.28125 16.21875 49.421875 
Q 16.21875 41.5 20.09375 36.953125 
Q 23.96875 32.421875 30.609375 32.421875 
z
" id="DejaVuSans-57"/>
       <path d="M 10.6875 12.40625 
L 21 12.40625 
L 21 0 
L 10.6875 0 
z
" id="DejaVuSans-46"/>
       <path d="M 72.703125 32.078125 
Q 68.453125 32.078125 66.03125 28.46875 
Q 63.625 24.859375 63.625 18.40625 
Q 63.625 12.0625 66.03125 8.421875 
Q 68.453125 4.78125 72.703125 4.78125 
Q 76.859375 4.78125 79.265625 8.421875 
Q 81.6875 12.0625 81.6875 18.40625 
Q 81.6875 24.8125 79.265625 28.4375 
Q 76.859375 32.078125 72.703125 32.078125 
z
M 72.703125 38.28125 
Q 80.421875 38.28125 84.953125 32.90625 
Q 89.5 27.546875 89.5 18.40625 
Q 89.5 9.28125 84.9375 3.921875 
Q 80.375 -1.421875 72.703125 -1.421875 
Q 64.890625 -1.421875 60.34375 3.921875 
Q 55.8125 9.28125 55.8125 18.40625 
Q 55.8125 27.59375 60.375 32.9375 
Q 64.9375 38.28125 72.703125 38.28125 
z
M 22.3125 68.015625 
Q 18.109375 68.015625 15.6875 64.375 
Q 13.28125 60.75 13.28125 54.390625 
Q 13.28125 47.953125 15.671875 44.328125 
Q 18.0625 40.71875 22.3125 40.71875 
Q 26.5625 40.71875 28.96875 44.328125 
Q 31.390625 47.953125 31.390625 54.390625 
Q 31.390625 60.6875 28.953125 64.34375 
Q 26.515625 68.015625 22.3125 68.015625 
z
M 66.40625 74.21875 
L 74.21875 74.21875 
L 28.609375 -1.421875 
L 20.796875 -1.421875 
z
M 22.3125 74.21875 
Q 30.03125 74.21875 34.609375 68.875 
Q 39.203125 63.53125 39.203125 54.390625 
Q 39.203125 45.171875 34.640625 39.84375 
Q 30.078125 34.515625 22.3125 34.515625 
Q 14.546875 34.515625 10.03125 39.859375 
Q 5.515625 45.21875 5.515625 54.390625 
Q 5.515625 63.484375 10.046875 68.84375 
Q 14.59375 74.21875 22.3125 74.21875 
z
" id="DejaVuSans-37"/>
      </defs>
      <use xlink:href="#DejaVuSans-49"/>
      <use x="63.623047" xlink:href="#DejaVuSans-115"/>
      <use x="115.722656" xlink:href="#DejaVuSans-116"/>
      <use x="154.931641" xlink:href="#DejaVuSans-32"/>
      <use x="186.71875" xlink:href="#DejaVuSans-80"/>
      <use x="247.021484" xlink:href="#DejaVuSans-67"/>
      <use x="316.845703" xlink:href="#DejaVuSans-58"/>
      <use x="350.537109" xlink:href="#DejaVuSans-32"/>
      <use x="382.324219" xlink:href="#DejaVuSans-57"/>
      <use x="445.947266" xlink:href="#DejaVuSans-56"/>
      <use x="509.570312" xlink:href="#DejaVuSans-46"/>
      <use x="541.357422" xlink:href="#DejaVuSans-50"/>
      <use x="604.980469" xlink:href="#DejaVuSans-57"/>
      <use x="668.603516" xlink:href="#DejaVuSans-32"/>
      <use x="700.390625" xlink:href="#DejaVuSans-37"/>
     </g>
    </g>
   </g>
   <g id="matplotlib.axis_2">
    <g id="ytick_1">
     <g id="line2d_10">
      <defs>
       <path d="M 0 0 
L -3.5 0 
" id="m52049aae59" style="stroke:#000000;stroke-width:0.8;"/>
      </defs>
      <g>
       <use style="stroke:#000000;stroke-width:0.8;" x="56.028488" xlink:href="#m52049aae59" y="277.111219"/>
      </g>
     </g>
     <g id="text_11">
      <!-- −20 -->
      <g transform="translate(27.9238 280.910437)scale(0.1 -0.1)">
       <use xlink:href="#DejaVuSans-8722"/>
       <use x="83.789062" xlink:href="#DejaVuSans-50"/>
       <use x="147.412109" xlink:href="#DejaVuSans-48"/>
      </g>
     </g>
    </g>
    <g id="ytick_2">
     <g id="line2d_11">
      <g>
       <use style="stroke:#000000;stroke-width:0.8;" x="56.028488" xlink:href="#m52049aae59" y="243.847219"/>
      </g>
     </g>
     <g id="text_12">
      <!-- −15 -->
      <g transform="translate(27.9238 247.646437)scale(0.1 -0.1)">
       <defs>
        <path d="M 10.796875 72.90625 
L 49.515625 72.90625 
L 49.515625 64.59375 
L 19.828125 64.59375 
L 19.828125 46.734375 
Q 21.96875 47.46875 24.109375 47.828125 
Q 26.265625 48.1875 28.421875 48.1875 
Q 40.625 48.1875 47.75 41.5 
Q 54.890625 34.8125 54.890625 23.390625 
Q 54.890625 11.625 47.5625 5.09375 
Q 40.234375 -1.421875 26.90625 -1.421875 
Q 22.3125 -1.421875 17.546875 -0.640625 
Q 12.796875 0.140625 7.71875 1.703125 
L 7.71875 11.625 
Q 12.109375 9.234375 16.796875 8.0625 
Q 21.484375 6.890625 26.703125 6.890625 
Q 35.15625 6.890625 40.078125 11.328125 
Q 45.015625 15.765625 45.015625 23.390625 
Q 45.015625 31 40.078125 35.4375 
Q 35.15625 39.890625 26.703125 39.890625 
Q 22.75 39.890625 18.8125 39.015625 
Q 14.890625 38.140625 10.796875 36.28125 
z
" id="DejaVuSans-53"/>
       </defs>
       <use xlink:href="#DejaVuSans-8722"/>
       <use x="83.789062" xlink:href="#DejaVuSans-49"/>
       <use x="147.412109" xlink:href="#DejaVuSans-53"/>
      </g>
     </g>
    </g>
    <g id="ytick_3">
     <g id="line2d_12">
      <g>
       <use style="stroke:#000000;stroke-width:0.8;" x="56.028488" xlink:href="#m52049aae59" y="210.583219"/>
      </g>
     </g>
     <g id="text_13">
      <!-- −10 -->
      <g transform="translate(27.9238 214.382437)scale(0.1 -0.1)">
       <use xlink:href="#DejaVuSans-8722"/>
       <use x="83.789062" xlink:href="#DejaVuSans-49"/>
       <use x="147.412109" xlink:href="#DejaVuSans-48"/>
      </g>
     </g>
    </g>
    <g id="ytick_4">
     <g id="line2d_13">
      <g>
       <use style="stroke:#000000;stroke-width:0.8;" x="56.028488" xlink:href="#m52049aae59" y="177.319219"/>
      </g>
     </g>
     <g id="text_14">
      <!-- −5 -->
      <g transform="translate(34.2863 181.118437)scale(0.1 -0.1)">
       <use xlink:href="#DejaVuSans-8722"/>
       <use x="83.789062" xlink:href="#DejaVuSans-53"/>
      </g>
     </g>
    </g>
    <g id="ytick_5">
     <g id="line2d_14">
      <g>
       <use style="stroke:#000000;stroke-width:0.8;" x="56.028488" xlink:href="#m52049aae59" y="144.055219"/>
      </g>
     </g>
     <g id="text_15">
      <!-- 0 -->
      <g transform="translate(42.665987 147.854437)scale(0.1 -0.1)">
       <use xlink:href="#DejaVuSans-48"/>
      </g>
     </g>
    </g>
    <g id="ytick_6">
     <g id="line2d_15">
      <g>
       <use style="stroke:#000000;stroke-width:0.8;" x="56.028488" xlink:href="#m52049aae59" y="110.791219"/>
      </g>
     </g>
     <g id="text_16">
      <!-- 5 -->
      <g transform="translate(42.665987 114.590437)scale(0.1 -0.1)">
       <use xlink:href="#DejaVuSans-53"/>
      </g>
     </g>
    </g>
    <g id="ytick_7">
     <g id="line2d_16">
      <g>
       <use style="stroke:#000000;stroke-width:0.8;" x="56.028488" xlink:href="#m52049aae59" y="77.527219"/>
      </g>
     </g>
     <g id="text_17">
      <!-- 10 -->
      <g transform="translate(36.303488 81.326437)scale(0.1 -0.1)">
       <use xlink:href="#DejaVuSans-49"/>
       <use x="63.623047" xlink:href="#DejaVuSans-48"/>
      </g>
     </g>
    </g>
    <g id="ytick_8">
     <g id="line2d_17">
      <g>
       <use style="stroke:#000000;stroke-width:0.8;" x="56.028488" xlink:href="#m52049aae59" y="44.263219"/>
      </g>
     </g>
     <g id="text_18">
      <!-- 15 -->
      <g transform="translate(36.303488 48.062437)scale(0.1 -0.1)">
       <use xlink:href="#DejaVuSans-49"/>
       <use x="63.623047" xlink:href="#DejaVuSans-53"/>
      </g>
     </g>
    </g>
    <g id="ytick_9">
     <g id="line2d_18">
      <g>
       <use style="stroke:#000000;stroke-width:0.8;" x="56.028488" xlink:href="#m52049aae59" y="10.999219"/>
      </g>
     </g>
     <g id="text_19">
      <!-- 20 -->
      <g transform="translate(36.303488 14.798437)scale(0.1 -0.1)">
       <use xlink:href="#DejaVuSans-50"/>
       <use x="63.623047" xlink:href="#DejaVuSans-48"/>
      </g>
     </g>
    </g>
    <g id="text_20">
     <!-- 2nd PC: 0.80 % -->
     <g transform="translate(20.3301 210.351019)rotate(-90)scale(0.1728 -0.1728)">
      <defs>
       <path d="M 54.890625 33.015625 
L 54.890625 0 
L 45.90625 0 
L 45.90625 32.71875 
Q 45.90625 40.484375 42.875 44.328125 
Q 39.84375 48.1875 33.796875 48.1875 
Q 26.515625 48.1875 22.3125 43.546875 
Q 18.109375 38.921875 18.109375 30.90625 
L 18.109375 0 
L 9.078125 0 
L 9.078125 54.6875 
L 18.109375 54.6875 
L 18.109375 46.1875 
Q 21.34375 51.125 25.703125 53.5625 
Q 30.078125 56 35.796875 56 
Q 45.21875 56 50.046875 50.171875 
Q 54.890625 44.34375 54.890625 33.015625 
z
" id="DejaVuSans-110"/>
       <path d="M 45.40625 46.390625 
L 45.40625 75.984375 
L 54.390625 75.984375 
L 54.390625 0 
L 45.40625 0 
L 45.40625 8.203125 
Q 42.578125 3.328125 38.25 0.953125 
Q 33.9375 -1.421875 27.875 -1.421875 
Q 17.96875 -1.421875 11.734375 6.484375 
Q 5.515625 14.40625 5.515625 27.296875 
Q 5.515625 40.1875 11.734375 48.09375 
Q 17.96875 56 27.875 56 
Q 33.9375 56 38.25 53.625 
Q 42.578125 51.265625 45.40625 46.390625 
z
M 14.796875 27.296875 
Q 14.796875 17.390625 18.875 11.75 
Q 22.953125 6.109375 30.078125 6.109375 
Q 37.203125 6.109375 41.296875 11.75 
Q 45.40625 17.390625 45.40625 27.296875 
Q 45.40625 37.203125 41.296875 42.84375 
Q 37.203125 48.484375 30.078125 48.484375 
Q 22.953125 48.484375 18.875 42.84375 
Q 14.796875 37.203125 14.796875 27.296875 
z
" id="DejaVuSans-100"/>
      </defs>
      <use xlink:href="#DejaVuSans-50"/>
      <use x="63.623047" xlink:href="#DejaVuSans-110"/>
      <use x="127.001953" xlink:href="#DejaVuSans-100"/>
      <use x="190.478516" xlink:href="#DejaVuSans-32"/>
      <use x="222.265625" xlink:href="#DejaVuSans-80"/>
      <use x="282.568359" xlink:href="#DejaVuSans-67"/>
      <use x="352.392578" xlink:href="#DejaVuSans-58"/>
      <use x="386.083984" xlink:href="#DejaVuSans-32"/>
      <use x="417.871094" xlink:href="#DejaVuSans-48"/>
      <use x="481.494141" xlink:href="#DejaVuSans-46"/>
      <use x="513.28125" xlink:href="#DejaVuSans-56"/>
      <use x="576.904297" xlink:href="#DejaVuSans-48"/>
      <use x="640.527344" xlink:href="#DejaVuSans-32"/>
      <use x="672.314453" xlink:href="#DejaVuSans-37"/>
     </g>
    </g>
   </g>
   <g id="LineCollection_1"/>
   <g id="LineCollection_2"/>
   <g id="LineCollection_3"/>
   <g id="LineCollection_4">
    <path clip-path="url(#pbcfff5d4a4)" d="M 96.504382 132.492382 
L 96.740042 135.184819 
L 97.261235 144.055219 
L 97.792714 152.925619 
L 97.955914 161.796019 
L 97.623627 170.666419 
L 96.940586 179.536819 
L 96.119456 188.407219 
L 95.941899 190.037071 
L 94.424606 197.277619 
L 93.841193 200.578421 
L 92.329024 197.277619 
L 91.760937 188.407219 
L 91.740488 180.042017 
L 91.740007 179.536819 
L 91.740488 179.438873 
L 91.80702 170.666419 
L 91.902356 161.796019 
L 92.016959 152.925619 
L 92.161059 144.055219 
L 92.39517 135.184819 
L 92.524368 132.793272 
" style="fill:none;stroke:#453781;stroke-width:1.5;"/>
   </g>
   <g id="LineCollection_5">
    <path clip-path="url(#pbcfff5d4a4)" d="M 86.757046 158.067333 
L 86.798958 152.925619 
L 86.825654 144.055219 
L 86.813373 135.184819 
L 86.772311 126.314419 
L 86.713663 117.444019 
L 86.676827 108.573619 
L 86.781387 99.703219 
L 87.539076 92.045201 
L 89.639782 93.736046 
L 91.740488 99.096259 
L 91.885303 99.703219 
L 93.841193 107.012069 
L 94.233437 108.573619 
L 95.941899 115.440552 
L 96.580543 117.444019 
L 98.042605 124.119532 
L 98.686717 126.314419 
L 100.143311 134.915524 
L 100.198535 135.184819 
L 101.05436 144.055219 
L 101.563492 152.925619 
L 101.752495 161.796019 
L 101.575444 170.666419 
L 101.025453 179.536819 
L 100.278202 188.407219 
L 100.143311 189.651776 
L 99.137221 197.277619 
L 98.073349 206.148019 
L 98.042605 206.374943 
L 96.57135 215.018419 
L 95.941899 219.278075 
L 95.018791 223.888819 
L 93.841193 230.389554 
L 93.19905 232.759219 
L 91.740488 238.505163 
L 90.451747 241.629619 
L 89.639782 243.804902 
L 87.539076 245.862983 
L 85.43837 245.532859 
L 83.722951 241.629619 
L 83.978747 232.759219 
L 84.577012 223.888819 
L 85.152404 215.018419 
L 85.43837 210.008316 
L 85.623341 206.148019 
L 85.962239 197.277619 
L 86.231902 188.407219 
L 86.355421 183.263841 
" style="fill:none;stroke:#404688;stroke-width:1.5;"/>
   </g>
   <g id="LineCollection_6">
    <path clip-path="url(#pbcfff5d4a4)" d="M 56.028488 268.686096 
L 56.191946 268.240819 
L 58.129193 263.541763 
L 59.84434 259.370419 
L 60.229899 258.417793 
L 62.330605 253.106659 
L 63.36313 250.500019 
L 64.431311 247.540216 
L 66.532017 241.719517 
L 66.563652 241.629619 
L 67.311135 239.19844 
" style="fill:none;stroke:#39558c;stroke-width:1.5;"/>
    <path clip-path="url(#pbcfff5d4a4)" d="M 73.229197 214.729479 
L 74.359323 206.148019 
L 74.93484 200.200112 
L 75.169562 197.277619 
L 75.667696 188.407219 
L 75.988683 179.536819 
L 76.158508 170.666419 
L 76.206102 161.796019 
L 76.150375 152.925619 
L 75.995206 144.055219 
L 75.725297 135.184819 
L 75.31178 126.314419 
L 74.93484 120.415669 
L 74.719431 117.444019 
L 73.904759 108.573619 
L 72.941694 99.703219 
L 72.834135 98.845868 
L 71.739902 90.832819 
L 70.733429 84.029316 
L 70.41086 81.962419 
L 68.950339 73.092019 
L 68.632723 71.229165 
L 67.403982 64.221619 
L 66.532017 59.28649 
L 65.836366 55.351219 
L 64.431311 47.178561 
L 64.312299 46.480819 
L 62.883411 37.610419 
L 62.330605 33.62173 
L 61.619859 28.740019 
L 60.618713 19.869619 
L 60.229899 13.319297 
L 60.068397 10.999219 
" style="fill:none;stroke:#39558c;stroke-width:1.5;"/>
    <path clip-path="url(#pbcfff5d4a4)" d="M 79.827738 277.111219 
L 79.524368 268.240819 
L 79.136252 267.952411 
L 78.651642 268.240819 
L 77.035546 269.263312 
L 74.93484 270.235595 
L 72.834135 271.549204 
L 70.733429 273.373285 
L 68.632723 276.107325 
L 68.007498 277.111219 
" style="fill:none;stroke:#39558c;stroke-width:1.5;"/>
    <path clip-path="url(#pbcfff5d4a4)" d="M 64.132811 10.999219 
L 64.431311 11.456713 
L 66.532017 16.740502 
L 68.632723 19.399676 
L 69.005548 19.869619 
L 70.733429 25.110327 
L 72.834135 28.50313 
L 72.987658 28.740019 
L 74.683736 34.758791 
" style="fill:none;stroke:#39558c;stroke-width:1.5;"/>
    <path clip-path="url(#pbcfff5d4a4)" d="M 82.417665 58.658242 
L 83.337664 62.217256 
L 83.950057 64.221619 
L 85.43837 69.81475 
L 86.304172 73.092019 
L 87.539076 77.604622 
L 88.479048 81.962419 
L 89.639782 86.213089 
L 90.705376 90.832819 
L 91.740488 94.601106 
L 92.95781 99.703219 
L 93.841193 103.004281 
L 95.240149 108.573619 
L 95.941899 111.394208 
L 97.870393 117.444019 
L 98.042605 118.230311 
L 100.143311 125.925459 
L 100.268892 126.314419 
L 102.244017 135.104501 
L 102.257744 135.184819 
L 103.339267 144.055219 
L 104.344723 152.223633 
L 104.372327 152.925619 
L 104.455509 161.796019 
L 104.344723 166.979224 
L 104.141569 170.666419 
L 103.29593 179.536819 
L 102.389812 188.407219 
L 102.244017 189.570188 
L 101.104088 197.277619 
L 100.143311 204.527357 
L 99.888941 206.148019 
L 98.455367 215.018419 
L 98.042605 217.755867 
L 96.926227 223.888819 
L 95.941899 229.923306 
L 95.360422 232.759219 
L 93.841193 240.642886 
L 93.599363 241.629619 
L 91.740488 249.377021 
L 91.420122 250.500019 
L 89.639782 256.192873 
L 88.686536 259.370419 
L 87.539076 262.176672 
L 85.770291 268.240819 
L 85.43837 268.931545 
L 83.337664 272.728341 
L 82.006203 277.111219 
" style="fill:none;stroke:#39558c;stroke-width:1.5;"/>
   </g>
   <g id="LineCollection_7">
    <path clip-path="url(#pbcfff5d4a4)" d="M 75.714936 31.558393 
L 77.035546 36.478046 
L 77.606387 37.610419 
L 79.136252 43.429952 
L 80.391689 46.480819 
L 81.236958 49.751941 
L 83.143257 55.351219 
L 83.337664 56.10328 
L 85.43837 63.882389 
L 85.518995 64.221619 
L 87.539076 72.545866 
L 87.629775 73.092019 
L 89.639782 81.722375 
L 89.686781 81.962419 
L 91.740488 90.67625 
L 91.778042 90.832819 
L 93.841193 99.530567 
L 93.887666 99.703219 
L 95.941899 108.241777 
L 96.059211 108.573619 
L 98.042605 116.160462 
L 98.595192 117.444019 
L 100.143311 123.450957 
L 101.067816 126.314419 
L 102.244017 131.548976 
L 102.865404 135.184819 
L 104.344723 142.774895 
L 104.493172 144.055219 
L 104.917356 152.925619 
L 105.381995 161.796019 
L 105.361386 170.666419 
L 104.712392 179.536819 
L 104.344723 183.617492 
L 103.68924 188.407219 
L 102.456594 197.277619 
L 102.244017 198.787709 
L 100.999555 206.148019 
L 100.143311 211.962908 
L 99.617988 215.018419 
L 98.190386 223.888819 
L 98.042605 224.793462 
L 96.511617 232.759219 
L 95.941899 235.738882 
L 94.686377 241.629619 
L 93.841193 245.229968 
L 92.586102 250.500019 
L 91.740488 253.331331 
L 90.166157 259.370419 
L 89.639782 260.83046 
L 87.559383 268.240819 
L 87.539076 268.290671 
L 85.43837 272.730486 
L 84.136751 277.111219 
" style="fill:none;stroke:#33638d;stroke-width:1.5;"/>
   </g>
   <g id="LineCollection_8">
    <path clip-path="url(#pbcfff5d4a4)" d="M 68.896237 10.999219 
L 70.733429 17.623906 
L 72.2073 19.869619 
L 72.834135 22.126119 
L 74.93484 27.964339 
L 75.366449 28.740019 
L 77.035546 34.957889 
L 78.372714 37.610419 
L 79.136252 40.514881 
L 80.147274 43.279028 
" style="fill:none;stroke:#2d718e;stroke-width:1.5;"/>
    <path clip-path="url(#pbcfff5d4a4)" d="M 86.731297 67.582671 
L 87.539076 70.911324 
L 87.901223 73.092019 
L 89.639782 80.55686 
L 89.914986 81.962419 
L 91.740488 89.707981 
L 92.010288 90.832819 
L 93.841193 98.551473 
L 94.151212 99.703219 
L 95.941899 107.146333 
L 96.44647 108.573619 
L 98.042605 114.679127 
L 99.232925 117.444019 
L 100.143311 120.976455 
L 101.86674 126.314419 
L 102.244017 127.99345 
L 103.473064 135.184819 
L 104.344723 139.657119 
L 104.854667 144.055219 
L 105.462385 152.925619 
L 106.308482 161.796019 
L 106.445429 169.408482 
L 106.45044 170.666419 
L 106.445429 170.872736 
L 105.567905 179.536819 
L 104.609022 188.407219 
L 104.344723 190.886494 
L 103.285642 197.277619 
L 102.244017 204.677036 
L 101.995307 206.148019 
L 100.472368 215.018419 
L 100.143311 217.177594 
L 98.912676 223.888819 
L 98.042605 229.214974 
L 97.361415 232.759219 
L 95.941899 240.183381 
L 95.633655 241.629619 
L 93.841193 249.265228 
L 93.547121 250.500019 
L 91.740488 256.549043 
L 91.004983 259.370419 
L 89.639782 263.157163 
L 88.212586 268.240819 
L 87.539076 269.894227 
L 85.43837 276.529427 
L 85.265506 277.111219 
" style="fill:none;stroke:#2d718e;stroke-width:1.5;"/>
   </g>
   <g id="LineCollection_9">
    <path clip-path="url(#pbcfff5d4a4)" d="M 69.27051 10.999219 
L 70.733429 16.274323 
L 72.834135 19.758153 
L 72.893577 19.869619 
L 74.93484 27.230973 
L 75.774513 28.740019 
L 77.035546 33.437732 
L 79.136252 37.60888 
L 79.136982 37.610419 
L 81.236958 45.504614 
L 81.643978 46.480819 
L 83.337664 53.06014 
L 84.128054 55.351219 
L 85.43837 60.544489 
L 86.312317 64.221619 
L 87.539076 69.276782 
L 88.172671 73.092019 
L 89.639782 79.391344 
L 90.143192 81.962419 
L 91.740488 88.739712 
L 92.242534 90.832819 
L 93.841193 97.57238 
L 94.414757 99.703219 
L 95.941899 106.050889 
L 96.833729 108.573619 
L 98.042605 113.197791 
L 99.870658 117.444019 
L 100.143311 118.501953 
L 102.244017 125.830052 
L 102.385009 126.314419 
L 104.080724 135.184819 
L 104.344723 136.539343 
L 105.216162 144.055219 
L 106.007414 152.925619 
L 106.445429 157.230821 
L 106.569372 161.796019 
L 106.617273 166.722247 
" style="fill:none;stroke:#287d8e;stroke-width:1.5;"/>
    <path clip-path="url(#pbcfff5d4a4)" d="M 104.779916 191.807104 
L 104.344723 195.889464 
L 104.11469 197.277619 
L 102.597149 206.148019 
L 102.244017 208.611394 
L 101.072666 215.018419 
L 100.143311 221.116575 
L 99.634966 223.888819 
L 98.111584 232.759219 
L 98.042605 233.102649 
L 96.194921 241.629619 
L 95.941899 242.705622 
L 94.102431 250.500019 
L 93.841193 251.427523 
L 91.783141 259.370419 
L 91.740488 259.499306 
L 89.639782 265.483866 
L 88.865789 268.240819 
L 87.539076 271.497782 
L 85.847571 277.111219 
" style="fill:none;stroke:#287d8e;stroke-width:1.5;"/>
   </g>
   <g id="LineCollection_10">
    <path clip-path="url(#pbcfff5d4a4)" d="M 69.644783 10.999219 
L 70.733429 14.924741 
L 72.834135 19.376813 
L 73.096935 19.869619 
L 74.93484 26.497606 
L 76.182577 28.740019 
L 77.035546 31.917576 
L 79.136252 37.186042 
L 79.337457 37.610419 
L 80.857097 43.323021 
" style="fill:none;stroke:#238a8d;stroke-width:1.5;"/>
    <path clip-path="url(#pbcfff5d4a4)" d="M 87.527362 67.59397 
L 87.539076 67.642241 
L 88.44412 73.092019 
L 89.639782 78.225829 
L 90.371397 81.962419 
L 91.740488 87.771443 
L 92.47478 90.832819 
L 93.841193 96.593286 
L 94.678302 99.703219 
L 95.941899 104.955445 
L 97.220988 108.573619 
L 98.042605 111.716456 
L 100.143311 117.083304 
L 100.281381 117.444019 
L 102.244017 124.912288 
L 102.652155 126.314419 
L 104.344723 134.457903 
L 104.440502 135.184819 
L 105.577657 144.055219 
L 106.445429 152.254933 
L 106.465401 152.925619 
L 106.714814 161.796019 
L 106.860808 170.666419 
L 106.640799 179.536819 
L 106.445429 183.111611 
L 105.675688 188.407219 
L 104.558719 197.277619 
L 104.344723 199.143322 
L 103.067848 206.148019 
L 102.244017 211.894892 
L 101.672965 215.018419 
L 100.232446 223.888819 
L 100.143311 224.399976 
L 98.459246 232.759219 
L 98.042605 234.833569 
L 96.569989 241.629619 
L 95.941899 244.300644 
L 94.478854 250.500019 
L 93.841193 252.763985 
L 92.129426 259.370419 
L 91.740488 260.545698 
L 89.639782 267.810569 
L 89.518992 268.240819 
L 87.539076 273.101337 
L 86.330773 277.111219 
" style="fill:none;stroke:#238a8d;stroke-width:1.5;"/>
   </g>
   <g id="LineCollection_11">
    <path clip-path="url(#pbcfff5d4a4)" d="M 70.019056 10.999219 
L 70.733429 13.575158 
L 72.834135 18.995474 
L 73.300294 19.869619 
L 74.93484 25.76424 
L 76.590641 28.740019 
L 77.035546 30.397419 
L 79.136252 36.763204 
L 79.537933 37.610419 
L 81.074917 43.388225 
" style="fill:none;stroke:#1f968b;stroke-width:1.5;"/>
    <path clip-path="url(#pbcfff5d4a4)" d="M 87.807443 67.623692 
L 88.715568 73.092019 
L 89.639782 77.060313 
L 90.599602 81.962419 
L 91.740488 86.803174 
L 92.707026 90.832819 
L 93.841193 95.614192 
L 94.941848 99.703219 
L 95.941899 103.860001 
L 97.608246 108.573619 
L 98.042605 110.23512 
L 100.143311 116.453196 
L 100.522566 117.444019 
L 102.244017 123.994525 
L 102.919302 126.314419 
L 104.344723 133.172574 
L 104.609858 135.184819 
L 105.939153 144.055219 
L 106.445429 148.839105 
L 106.567123 152.925619 
L 106.860256 161.796019 
L 107.065992 170.666419 
L 106.841329 179.536819 
L 106.445429 186.780802 
L 106.209022 188.407219 
L 104.854893 197.277619 
L 104.344723 201.72549 
L 103.538547 206.148019 
L 102.25589 215.018419 
L 102.244017 215.093796 
L 100.533371 223.888819 
L 100.143311 226.125676 
L 98.806908 232.759219 
L 98.042605 236.56449 
L 96.945057 241.629619 
L 95.941899 245.895666 
L 94.855278 250.500019 
L 93.841193 254.100447 
L 92.475712 259.370419 
L 91.740488 261.592089 
L 89.878621 268.240819 
L 89.639782 268.876143 
L 87.539076 274.704893 
L 86.813974 277.111219 
" style="fill:none;stroke:#1f968b;stroke-width:1.5;"/>
   </g>
   <g id="LineCollection_12">
    <path clip-path="url(#pbcfff5d4a4)" d="M 70.393329 10.999219 
L 70.733429 12.225575 
L 72.834135 18.614135 
L 73.503652 19.869619 
L 74.93484 25.030874 
L 76.998705 28.740019 
L 77.035546 28.877262 
L 79.136252 36.340366 
L 79.738408 37.610419 
L 81.236958 43.243743 
L 81.320458 43.444012 
" style="fill:none;stroke:#20a386;stroke-width:1.5;"/>
    <path clip-path="url(#pbcfff5d4a4)" d="M 88.083949 67.654143 
L 88.987016 73.092019 
L 89.639782 75.894797 
L 90.827807 81.962419 
L 91.740488 85.834905 
L 92.939273 90.832819 
L 93.841193 94.635098 
L 95.205393 99.703219 
L 95.941899 102.764557 
L 97.995505 108.573619 
L 98.042605 108.753785 
L 100.143311 115.823089 
L 100.763752 117.444019 
L 102.244017 123.076761 
L 103.186449 126.314419 
L 104.344723 131.887245 
L 104.779213 135.184819 
L 106.300648 144.055219 
L 106.445429 145.423277 
L 106.668845 152.925619 
L 107.005697 161.796019 
L 107.271175 170.666419 
L 107.041858 179.536819 
L 106.523832 188.407219 
L 106.445429 189.409546 
L 105.151067 197.277619 
L 104.344723 204.307657 
L 104.009246 206.148019 
L 102.499598 215.018419 
L 102.244017 216.640956 
L 100.834296 223.888819 
L 100.143311 227.851376 
L 99.15457 232.759219 
L 98.042605 238.295411 
L 97.320125 241.629619 
L 95.941899 247.490688 
L 95.231701 250.500019 
L 93.841193 255.436909 
L 92.821997 259.370419 
L 91.740488 262.63848 
L 90.171645 268.240819 
L 89.639782 269.655605 
L 87.539076 276.308448 
L 87.297176 277.111219 
" style="fill:none;stroke:#20a386;stroke-width:1.5;"/>
   </g>
   <g id="LineCollection_13">
    <path clip-path="url(#pbcfff5d4a4)" d="M 70.743492 10.999219 
L 72.834135 18.232796 
L 73.707011 19.869619 
L 74.93484 24.297507 
L 77.035546 28.526621 
L 77.142402 28.740019 
L 79.136252 35.917528 
L 79.938883 37.610419 
L 81.236958 42.490119 
L 81.612307 43.390364 
" style="fill:none;stroke:#29af7f;stroke-width:1.5;"/>
    <path clip-path="url(#pbcfff5d4a4)" d="M 88.240282 67.651324 
L 89.258464 73.092019 
L 89.639782 74.729282 
L 91.056012 81.962419 
L 91.740488 84.866636 
L 93.171519 90.832819 
L 93.841193 93.656005 
L 95.468938 99.703219 
L 95.941899 101.669113 
L 98.042605 108.272243 
L 98.2047 108.573619 
L 100.143311 115.192982 
L 101.004937 117.444019 
L 102.244017 122.158997 
L 103.453596 126.314419 
L 104.344723 130.601915 
L 104.948569 135.184819 
L 106.445429 143.49178 
L 106.497352 144.055219 
L 106.770567 152.925619 
L 107.151139 161.796019 
L 107.476359 170.666419 
L 107.242388 179.536819 
L 106.664659 188.407219 
L 106.445429 191.209908 
L 105.447241 197.277619 
L 104.391914 206.148019 
L 104.344723 206.519579 
L 102.743305 215.018419 
L 102.244017 218.188116 
L 101.135221 223.888819 
L 100.143311 229.577077 
L 99.502232 232.759219 
L 98.042605 240.026331 
L 97.695193 241.629619 
L 95.941899 249.08571 
L 95.608124 250.500019 
L 93.841193 256.773371 
L 93.168283 259.370419 
L 91.740488 263.684872 
L 90.46467 268.240819 
L 89.639782 270.435066 
L 87.654808 277.111219 
" style="fill:none;stroke:#29af7f;stroke-width:1.5;"/>
   </g>
   <g id="LineCollection_14">
    <path clip-path="url(#pbcfff5d4a4)" d="M 70.853706 10.999219 
L 72.834135 17.851457 
L 73.910369 19.869619 
L 74.93484 23.564141 
L 77.035546 28.292046 
L 77.259863 28.740019 
L 79.136252 35.49469 
L 80.139359 37.610419 
L 81.236958 41.736496 
L 81.903028 43.334011 
" style="fill:none;stroke:#3dbc74;stroke-width:1.5;"/>
    <path clip-path="url(#pbcfff5d4a4)" d="M 88.383402 67.641975 
L 89.529912 73.092019 
L 89.639782 73.563766 
L 91.284217 81.962419 
L 91.740488 83.898367 
L 93.403765 90.832819 
L 93.841193 92.676911 
L 95.732484 99.703219 
L 95.941899 100.573669 
L 98.042605 107.929138 
L 98.389239 108.573619 
L 100.143311 114.562874 
L 101.246122 117.444019 
L 102.244017 121.241233 
L 103.720743 126.314419 
L 104.344723 129.316586 
L 105.117925 135.184819 
L 106.445429 142.551924 
L 106.583963 144.055219 
L 106.872289 152.925619 
L 107.296581 161.796019 
L 107.681543 170.666419 
L 107.442917 179.536819 
L 106.805487 188.407219 
L 106.445429 193.01027 
L 105.743415 197.277619 
L 104.556184 206.148019 
L 104.344723 207.812951 
L 102.987012 215.018419 
L 102.244017 219.735276 
L 101.436146 223.888819 
L 100.143311 231.302777 
L 99.849894 232.759219 
L 98.054459 241.629619 
L 98.042605 241.681082 
L 95.960567 250.500019 
L 95.941899 250.569308 
L 93.841193 258.109833 
L 93.514568 259.370419 
L 91.740488 264.731263 
L 90.757695 268.240819 
L 89.639782 271.214527 
L 87.88656 277.111219 
" style="fill:none;stroke:#3dbc74;stroke-width:1.5;"/>
   </g>
   <g id="LineCollection_15">
    <path clip-path="url(#pbcfff5d4a4)" d="M 70.963921 10.999219 
L 72.834135 17.470118 
L 74.113728 19.869619 
L 74.93484 22.830775 
L 77.035546 28.05747 
L 77.377324 28.740019 
L 79.136252 35.071852 
L 80.339834 37.610419 
L 81.236958 40.982872 
L 82.141115 43.287248 
" style="fill:none;stroke:#56c667;stroke-width:1.5;"/>
    <path clip-path="url(#pbcfff5d4a4)" d="M 88.480818 67.641206 
L 89.639782 72.914797 
L 89.671607 73.092019 
L 91.512422 81.962419 
L 91.740488 82.930098 
L 93.636011 90.832819 
L 93.841193 91.697817 
L 95.941899 99.649662 
L 95.960513 99.703219 
L 98.042605 107.586033 
L 98.573779 108.573619 
L 100.143311 113.932767 
L 101.487307 117.444019 
L 102.244017 120.32347 
L 103.98789 126.314419 
L 104.344723 128.031256 
L 105.287281 135.184819 
L 106.445429 141.612067 
L 106.670575 144.055219 
L 106.97401 152.925619 
L 107.442023 161.796019 
L 107.886727 170.666419 
L 107.643447 179.536819 
L 106.946314 188.407219 
L 106.445429 194.810632 
L 106.039589 197.277619 
L 104.720454 206.148019 
L 104.344723 209.106323 
L 103.230719 215.018419 
L 102.244017 221.282436 
L 101.737071 223.888819 
L 100.166174 232.759219 
L 100.143311 232.873129 
L 98.215211 241.629619 
L 98.042605 242.379004 
L 96.125338 250.500019 
L 95.941899 251.180873 
L 93.850062 259.370419 
L 93.841193 259.398685 
L 91.740488 265.777655 
L 91.050719 268.240819 
L 89.639782 271.993989 
L 88.118312 277.111219 
" style="fill:none;stroke:#56c667;stroke-width:1.5;"/>
   </g>
   <g id="LineCollection_16">
    <path clip-path="url(#pbcfff5d4a4)" d="M 71.074135 10.999219 
L 72.834135 17.088779 
L 74.317086 19.869619 
L 74.93484 22.097408 
L 77.035546 27.822894 
L 77.494785 28.740019 
L 79.136252 34.649014 
L 80.540309 37.610419 
L 81.236958 40.229248 
L 82.319967 43.25625 
" style="fill:none;stroke:#75d054;stroke-width:1.5;"/>
    <path clip-path="url(#pbcfff5d4a4)" d="M 88.547531 67.64704 
L 89.639782 72.617067 
L 89.725072 73.092019 
L 91.740488 81.962275 
L 91.740521 81.962419 
L 93.841193 90.80605 
L 93.848628 90.832819 
L 95.941899 99.388905 
L 96.051137 99.703219 
L 98.042605 107.242928 
L 98.758318 108.573619 
L 100.143311 113.30266 
L 101.728492 117.444019 
L 102.244017 119.405706 
L 104.255037 126.314419 
L 104.344723 126.745927 
L 105.456637 135.184819 
L 106.445429 140.672211 
L 106.757187 144.055219 
L 107.075732 152.925619 
L 107.587464 161.796019 
L 108.09191 170.666419 
L 107.843976 179.536819 
L 107.087141 188.407219 
L 106.445429 196.610995 
L 106.335764 197.277619 
L 104.884725 206.148019 
L 104.344723 210.399695 
L 103.474427 215.018419 
L 102.244017 222.829596 
L 102.037996 223.888819 
L 100.312703 232.759219 
L 100.143311 233.603188 
L 98.375964 241.629619 
L 98.042605 243.076927 
L 96.290109 250.500019 
L 95.941899 251.792438 
L 94.006273 259.370419 
L 93.841193 259.896556 
L 91.740488 266.824046 
L 91.343744 268.240819 
L 89.639782 272.77345 
L 88.350063 277.111219 
" style="fill:none;stroke:#75d054;stroke-width:1.5;"/>
   </g>
   <g id="LineCollection_17">
    <path clip-path="url(#pbcfff5d4a4)" d="M 71.184349 10.999219 
L 72.834135 16.707439 
L 74.520445 19.869619 
L 74.93484 21.364042 
L 77.035546 27.588319 
L 77.612245 28.740019 
L 79.136252 34.226176 
L 80.740785 37.610419 
L 81.236958 39.475625 
L 82.473657 43.236842 
" style="fill:none;stroke:#95d840;stroke-width:1.5;"/>
    <path clip-path="url(#pbcfff5d4a4)" d="M 88.614244 67.652875 
L 89.639782 72.319338 
L 89.778538 73.092019 
L 91.740488 81.726962 
L 91.795085 81.962419 
L 93.841193 90.576342 
L 93.912422 90.832819 
L 95.941899 99.128149 
L 96.141762 99.703219 
L 98.042605 106.899823 
L 98.942858 108.573619 
L 100.143311 112.672552 
L 101.969677 117.444019 
L 102.244017 118.487942 
L 104.344723 126.074877 
L 104.400201 126.314419 
L 105.625993 135.184819 
L 106.445429 139.732354 
L 106.843798 144.055219 
L 107.177454 152.925619 
L 107.732906 161.796019 
L 108.297094 170.666419 
L 108.044506 179.536819 
L 107.227968 188.407219 
L 106.503061 197.277619 
L 106.445429 197.889403 
L 105.048995 206.148019 
L 104.344723 211.693067 
L 103.718134 215.018419 
L 102.283615 223.888819 
L 102.244017 224.112695 
L 100.459231 232.759219 
L 100.143311 234.333248 
L 98.536716 241.629619 
L 98.042605 243.774849 
L 96.454879 250.500019 
L 95.941899 252.404003 
L 94.162484 259.370419 
L 93.841193 260.394426 
L 91.740488 267.870438 
L 91.636768 268.240819 
L 89.639782 273.552911 
L 88.581815 277.111219 
" style="fill:none;stroke:#95d840;stroke-width:1.5;"/>
   </g>
   <g id="LineCollection_18">
    <path clip-path="url(#pbcfff5d4a4)" d="M 71.294564 10.999219 
L 72.834135 16.3261 
L 74.723803 19.869619 
L 74.93484 20.630676 
L 77.035546 27.353743 
L 77.729706 28.740019 
L 79.136252 33.803338 
L 80.94126 37.610419 
L 81.236958 38.722001 
L 82.606887 43.225892 
" style="fill:none;stroke:#bade28;stroke-width:1.5;"/>
    <path clip-path="url(#pbcfff5d4a4)" d="M 88.680958 67.658709 
L 89.639782 72.021609 
L 89.832004 73.092019 
L 91.740488 81.491649 
L 91.849649 81.962419 
L 93.841193 90.346633 
L 93.976217 90.832819 
L 95.941899 98.867392 
L 96.232386 99.703219 
L 98.042605 106.556718 
L 99.127397 108.573619 
L 100.143311 112.042445 
L 102.210863 117.444019 
L 102.244017 117.570178 
L 104.344723 125.714275 
L 104.483718 126.314419 
L 105.795349 135.184819 
L 106.445429 138.792498 
L 106.93041 144.055219 
L 107.279176 152.925619 
L 107.878348 161.796019 
L 108.502278 170.666419 
L 108.245035 179.536819 
L 107.368795 188.407219 
L 106.59458 197.277619 
L 106.445429 198.860908 
L 105.213265 206.148019 
L 104.344723 212.986439 
L 103.961841 215.018419 
L 102.409174 223.888819 
L 102.244017 224.822564 
L 100.60576 232.759219 
L 100.143311 235.063308 
L 98.697469 241.629619 
L 98.042605 244.472772 
L 96.61965 250.500019 
L 95.941899 253.015568 
L 94.318694 259.370419 
L 93.841193 260.892297 
L 91.828579 268.240819 
L 91.740488 268.490241 
L 89.639782 274.332373 
L 88.813567 277.111219 
" style="fill:none;stroke:#bade28;stroke-width:1.5;"/>
   </g>
   <g id="LineCollection_19">
    <path clip-path="url(#pbcfff5d4a4)" d="M 71.404778 10.999219 
L 72.834135 15.944761 
L 74.927162 19.869619 
L 74.93484 19.897309 
L 77.035546 27.119167 
L 77.847167 28.740019 
L 79.136252 33.3805 
L 81.141736 37.610419 
L 81.236958 37.968377 
L 82.723321 43.221224 
" style="fill:none;stroke:#dde318;stroke-width:1.5;"/>
    <path clip-path="url(#pbcfff5d4a4)" d="M 88.747671 67.664543 
L 89.639782 71.72388 
L 89.885469 73.092019 
L 91.740488 81.256336 
L 91.904212 81.962419 
L 93.841193 90.116924 
L 94.040012 90.832819 
L 95.941899 98.606636 
L 96.323011 99.703219 
L 98.042605 106.213613 
L 99.311936 108.573619 
L 100.143311 111.412338 
L 102.244017 117.206856 
L 102.323498 117.444019 
L 104.344723 125.353672 
L 104.567234 126.314419 
L 105.964705 135.184819 
L 106.445429 137.852641 
L 107.017021 144.055219 
L 107.380898 152.925619 
L 108.02379 161.796019 
L 108.546135 169.07325 
L 108.581358 170.666419 
L 108.546135 176.082271 
L 108.445565 179.536819 
L 107.509622 188.407219 
L 106.686099 197.277619 
L 106.445429 199.832414 
L 105.377535 206.148019 
L 104.344723 214.279812 
L 104.205549 215.018419 
L 102.534733 223.888819 
L 102.244017 225.532434 
L 100.752289 232.759219 
L 100.143311 235.793368 
L 98.858221 241.629619 
L 98.042605 245.170694 
L 96.78442 250.500019 
L 95.941899 253.627134 
L 94.474905 259.370419 
L 93.841193 261.390168 
L 91.964936 268.240819 
L 91.740488 268.876319 
L 89.639782 275.111834 
L 89.045319 277.111219 
" style="fill:none;stroke:#dde318;stroke-width:1.5;"/>
   </g>
   <g id="LineCollection_20">
    <path clip-path="url(#pbcfff5d4a4)" d="M 71.514992 10.999219 
L 72.834135 15.563422 
L 74.93484 19.741971 
L 75.000327 19.869619 
L 77.035546 26.884592 
L 77.964627 28.740019 
L 79.136252 32.957662 
L 81.236958 37.539382 
L 81.270913 37.610419 
L 82.808948 43.225845 
" style="fill:none;stroke:#fde725;stroke-width:1.5;"/>
    <path clip-path="url(#pbcfff5d4a4)" d="M 88.814385 67.670378 
L 89.639782 71.42615 
L 89.938935 73.092019 
L 91.740488 81.021023 
L 91.958776 81.962419 
L 93.841193 89.887216 
L 94.103807 90.832819 
L 95.941899 98.345879 
L 96.413635 99.703219 
L 98.042605 105.870508 
L 99.496476 108.573619 
L 100.143311 110.78223 
L 102.244017 116.931896 
L 102.415646 117.444019 
L 104.344723 124.99307 
L 104.65075 126.314419 
L 106.134061 135.184819 
L 106.445429 136.912784 
L 107.103633 144.055219 
L 107.482619 152.925619 
L 108.169231 161.796019 
L 108.546135 167.046978 
L 108.626157 170.666419 
L 108.571936 179.536819 
L 108.546135 180.18151 
L 107.650449 188.407219 
L 106.777618 197.277619 
L 106.445429 200.803919 
L 105.541805 206.148019 
L 104.386592 215.018419 
L 104.344723 215.293243 
L 102.660293 223.888819 
L 102.244017 226.242304 
L 100.898818 232.759219 
L 100.143311 236.523427 
L 99.018974 241.629619 
L 98.042605 245.868617 
L 96.949191 250.500019 
L 95.941899 254.238699 
L 94.631116 259.370419 
L 93.841193 261.888039 
L 92.101293 268.240819 
L 91.740488 269.262397 
L 89.639782 275.891295 
L 89.27707 277.111219 
" style="fill:none;stroke:#fde725;stroke-width:1.5;"/>
   </g>
   <g id="LineCollection_21">
    <path clip-path="url(#pbcfff5d4a4)" d="M 71.625207 10.999219 
L 72.834135 15.182083 
L 74.93484 19.609313 
L 75.068383 19.869619 
L 77.035546 26.650016 
L 78.082088 28.740019 
L 79.136252 32.534824 
L 81.236958 37.404077 
L 81.335586 37.610419 
L 83.337664 44.920084 
L 83.971945 46.480819 
L 84.941238 50.187894 
" style="fill:none;stroke:#440154;stroke-width:1.5;"/>
    <path clip-path="url(#pbcfff5d4a4)" d="M 91.174079 78.292828 
L 91.740488 80.785709 
L 92.01334 81.962419 
L 93.841193 89.657507 
L 94.167602 90.832819 
L 95.941899 98.085123 
L 96.50426 99.703219 
L 98.042605 105.527402 
L 99.681015 108.573619 
L 100.143311 110.152123 
L 102.244017 116.656936 
L 102.507794 117.444019 
L 104.344723 124.632468 
L 104.734267 126.314419 
L 106.303417 135.184819 
L 106.445429 135.972928 
L 107.190245 144.055219 
L 107.584341 152.925619 
L 108.314673 161.796019 
L 108.546135 165.020706 
L 108.670956 170.666419 
L 108.623697 179.536819 
L 108.546135 181.474824 
L 107.791276 188.407219 
L 106.869137 197.277619 
L 106.445429 201.775425 
L 105.706075 206.148019 
L 104.484205 215.018419 
L 104.344723 215.933966 
L 102.785852 223.888819 
L 102.244017 226.952173 
L 101.045347 232.759219 
L 100.143311 237.253487 
L 99.179726 241.629619 
L 98.042605 246.566539 
L 97.113961 250.500019 
L 95.941899 254.850264 
L 94.787326 259.370419 
L 93.841193 262.385909 
L 92.23765 268.240819 
L 91.740488 269.648475 
L 89.639782 276.670757 
L 89.508822 277.111219 
" style="fill:none;stroke:#440154;stroke-width:1.5;"/>
   </g>
   <g id="LineCollection_22">
    <path clip-path="url(#pbcfff5d4a4)" d="M 76.363532 10.999219 
L 77.035546 13.339103 
L 79.136252 19.045314 
L 79.515379 19.869619 
L 81.236958 25.860246 
L 82.574254 28.740019 
L 83.337664 31.468208 
L 85.43837 37.090505 
L 85.630372 37.610419 
L 87.539076 44.978815 
L 87.906544 46.480819 
L 89.639782 54.219586 
L 89.858191 55.351219 
L 91.740488 63.94889 
L 91.798209 64.221619 
L 93.841193 73.042638 
L 93.854056 73.092019 
L 95.941899 81.572139 
L 96.062436 81.962419 
L 98.042605 89.56357 
L 98.532897 90.832819 
L 100.143311 96.36904 
L 102.244017 99.603766 
L 102.322012 99.703219 
L 104.344723 105.944735 
L 105.388529 108.573619 
L 106.445429 112.618899 
L 107.755191 117.444019 
L 108.546135 121.020155 
L 109.565569 126.314419 
L 110.64684 132.240713 
L 111.066191 135.184819 
L 111.412154 144.055219 
L 111.580457 152.925619 
L 112.00498 161.796019 
L 112.521534 170.666419 
L 112.747546 175.869595 
L 112.812763 179.536819 
L 112.770804 188.407219 
L 112.747546 189.069329 
L 112.089379 197.277619 
L 111.240818 206.148019 
L 110.64684 212.944601 
L 110.362322 215.018419 
L 109.145571 223.888819 
L 108.546135 227.408488 
L 107.474698 232.759219 
L 106.445429 237.885922 
L 105.6387 241.629619 
L 105.175528 243.617565 
" style="fill:none;stroke:#440154;stroke-width:1.5;"/>
    <path clip-path="url(#pbcfff5d4a4)" d="M 97.141973 275.000245 
L 96.571995 277.111219 
" style="fill:none;stroke:#440154;stroke-width:1.5;"/>
   </g>
   <g id="LineCollection_23">
    <path clip-path="url(#pbcfff5d4a4)" d="M 90.491178 41.13167 
L 91.711974 46.480819 
L 91.740488 46.608947 
L 93.583475 55.351219 
L 93.841193 56.477716 
L 95.735677 64.221619 
L 95.941899 65.066767 
L 98.042605 72.73122 
L 98.163814 73.092019 
L 100.143311 80.386039 
L 100.791347 81.962419 
L 102.244017 86.75369 
L 104.344723 90.310452 
L 104.820119 90.832819 
L 106.445429 95.122195 
L 108.546135 99.444369 
L 108.654595 99.703219 
L 110.64684 107.147856 
L 111.009531 108.573619 
L 112.747546 116.098261 
L 113.081803 117.444019 
L 114.848252 125.327619 
L 115.050676 126.314419 
L 116.546052 135.184819 
L 116.325749 144.055219 
L 116.422481 152.925619 
L 116.828606 161.796019 
L 116.948958 164.452935 
L 117.05708 170.666419 
L 117.224515 179.536819 
L 117.360435 188.407219 
L 117.383556 197.277619 
L 117.190899 206.148019 
L 116.948958 211.542854 
L 116.611296 215.018419 
L 115.658142 223.888819 
L 114.848252 231.215805 
L 114.601258 232.759219 
L 112.747546 241.560957 
L 112.732182 241.629619 
L 110.64684 250.230284 
L 110.582564 250.500019 
L 108.546135 258.534531 
L 108.342502 259.370419 
L 106.445429 266.661345 
L 106.054813 268.240819 
L 104.344723 274.636108 
L 103.711749 277.111219 
" style="fill:none;stroke:#440154;stroke-width:1.5;"/>
   </g>
   <g id="LineCollection_24">
    <path clip-path="url(#pbcfff5d4a4)" d="M 119.049664 248.046831 
L 118.482976 250.500019 
L 116.948958 256.793759 
L 116.316309 259.370419 
L 114.848252 265.036631 
L 114.044964 268.240819 
L 112.747546 273.045046 
L 111.71144 277.111219 
" style="fill:none;stroke:#440154;stroke-width:1.5;"/>
    <path clip-path="url(#pbcfff5d4a4)" d="M 86.841962 10.999219 
L 87.539076 13.451135 
L 89.639782 19.848003 
L 89.645938 19.869619 
L 91.740488 28.367564 
L 91.830548 28.740019 
L 93.841193 37.346566 
L 93.901975 37.610419 
L 95.941899 46.311344 
L 95.984263 46.480819 
L 97.090647 51.004094 
" style="fill:none;stroke:#440154;stroke-width:1.5;"/>
    <path clip-path="url(#pbcfff5d4a4)" d="M 110.534411 87.910268 
L 110.64684 88.18165 
L 111.913417 90.832819 
L 112.747546 93.790815 
L 114.479975 99.703219 
L 114.848252 101.316147 
L 116.46337 108.573619 
L 116.948958 110.465607 
L 119.040458 117.444019 
L 119.049664 117.487841 
" style="fill:none;stroke:#440154;stroke-width:1.5;"/>
   </g>
   <g id="LineCollection_25">
    <path clip-path="url(#pbcfff5d4a4)" d="M 92.096558 10.999219 
L 93.841193 18.128656 
L 94.267666 19.869619 
L 95.941899 26.959054 
L 96.373296 28.740019 
L 98.042605 35.71009 
L 98.51527 37.511862 
" style="fill:none;stroke:#440154;stroke-width:1.5;"/>
    <path clip-path="url(#pbcfff5d4a4)" d="M 113.61403 77.56326 
L 114.848252 80.393487 
L 115.539413 81.962419 
L 116.948958 87.029505 
L 117.989447 90.832819 
L 119.049664 95.435115 
" style="fill:none;stroke:#440154;stroke-width:1.5;"/>
   </g>
   <g id="LineCollection_26">
    <path clip-path="url(#pbcfff5d4a4)" d="M 97.052185 10.999219 
L 98.042605 15.124081 
L 99.268598 19.869619 
L 100.143311 23.443848 
L 100.30497 24.032612 
" style="fill:none;stroke:#450457;stroke-width:1.5;"/>
    <path clip-path="url(#pbcfff5d4a4)" d="M 117.079062 67.223521 
L 119.049664 72.354496 
" style="fill:none;stroke:#450457;stroke-width:1.5;"/>
   </g>
   <g id="LineCollection_27">
    <path clip-path="url(#pbcfff5d4a4)" d="M 102.473595 10.999219 
L 104.344723 18.246119 
L 104.861921 19.869619 
L 106.445429 25.777426 
L 107.507298 28.740019 
L 108.546135 32.36957 
L 110.64684 37.40471 
L 110.749485 37.610419 
L 112.747546 43.580611 
L 114.627069 46.480819 
L 114.848252 47.029319 
L 116.948958 51.599102 
L 119.049664 54.417635 
" style="fill:none;stroke:#482475;stroke-width:1.5;"/>
   </g>
   <g id="LineCollection_28">
    <path clip-path="url(#pbcfff5d4a4)" d="M 108.301746 10.999219 
L 108.546135 11.888434 
L 110.64684 18.770815 
L 111.12275 19.869619 
L 112.747546 25.086635 
L 114.660687 28.740019 
L 114.848252 29.302018 
L 116.948958 35.328526 
L 118.31517 37.610419 
L 119.049664 39.621759 
" style="fill:none;stroke:#fde725;stroke-width:1.5;"/>
   </g>
   <g id="line2d_19">
    <path clip-path="url(#pbcfff5d4a4)" d="M 334.248608 113.520392 
L 328.089997 116.365699 
L 321.408582 119.283105 
L 314.816358 122.33342 
L 308.32871 125.618575 
L 301.944966 129.07097 
L 295.665912 132.559212 
L 289.485424 136.379482 
L 283.406083 140.071568 
L 277.42587 143.745258 
L 271.535857 147.722155 
L 265.737568 151.557999 
L 260.039673 155.258235 
L 254.438004 158.817917 
L 248.916086 162.488907 
L 243.491068 166.017681 
L 238.159312 169.292672 
L 232.915401 172.425781 
L 227.757275 175.455913 
L 222.69834 178.193943 
L 217.716272 180.856361 
L 212.822208 183.184057 
L 208.014819 185.351053 
L 203.288207 187.287665 
L 198.638749 189.019491 
L 194.06885 190.593242 
L 189.591179 191.688289 
L 185.176438 192.584991 
L 180.830005 193.298943 
L 176.577427 193.831962 
L 172.383973 194.016641 
L 168.278972 193.842558 
L 164.24401 193.676713 
L 160.278954 193.214042 
L 156.395608 192.185753 
L 152.567837 190.913073 
L 148.822861 189.491488 
L 145.136909 187.701155 
L 141.520183 185.75293 
L 137.969904 183.46276 
L 134.47014 180.825431 
L 131.051715 178.121849 
L 127.690793 175.246005 
L 124.385074 172.178773 
L 121.142509 169.049301 
L 117.95034 165.443406 
L 114.81946 161.779815 
L 111.744621 158.059774 
L 108.690245 153.521971 
L 105.737013 149.912178 
L 105.454539 149.824154 
L 105.168549 149.68954 
L 104.880253 149.505495 
L 104.594418 149.307705 
L 104.30878 149.094088 
L 104.023067 148.868117 
L 103.738176 148.636942 
L 103.45337 148.418123 
L 103.170563 148.181129 
L 102.888305 147.949863 
L 102.606486 147.71998 
L 102.32604 147.471979 
L 102.044619 147.240663 
L 101.763455 147.009412 
L 101.483894 146.769771 
L 101.20449 146.531884 
L 100.926247 146.318072 
L 100.648497 146.072347 
L 100.372253 145.841183 
L 100.095602 145.589784 
L 99.820812 145.356148 
L 99.545072 145.090488 
L 99.269832 144.874576 
L 98.995807 144.598694 
L 98.72255 144.371261 
L 98.695668 144.357492 
L 98.668404 144.342967 
L 98.640967 144.327851 
L 98.61358 144.31233 
L 98.586333 144.299424 
L 98.558732 144.285302 
L 98.531526 144.27188 
L 98.504326 144.259398 
L 98.476996 144.249307 
L 98.449591 144.23828 
L 98.422359 144.224133 
L 98.395214 144.208635 
L 98.368014 144.194933 
L 98.34064 144.181011 
L 98.313475 144.17045 
L 98.286333 144.156072 
L 98.259356 144.142423 
L 98.232149 144.132236 
L 98.204991 144.122923 
L 98.177722 144.112418 
L 98.150608 144.097406 
L 98.123555 144.084806 
L 98.096653 144.073903 
L 98.069603 144.065578 
" style="fill:none;stroke:#1f77b4;stroke-linecap:square;stroke-width:1.5;"/>
    <defs>
     <path d="M 0 1.5 
C 0.397805 1.5 0.77937 1.341951 1.06066 1.06066 
C 1.341951 0.77937 1.5 0.397805 1.5 0 
C 1.5 -0.397805 1.341951 -0.77937 1.06066 -1.06066 
C 0.77937 -1.341951 0.397805 -1.5 0 -1.5 
C -0.397805 -1.5 -0.77937 -1.341951 -1.06066 -1.06066 
C -1.341951 -0.77937 -1.5 -0.397805 -1.5 0 
C -1.5 0.397805 -1.341951 0.77937 -1.06066 1.06066 
C -0.77937 1.341951 -0.397805 1.5 0 1.5 
z
" id="m5fecbd246e" style="stroke:#1f77b4;"/>
    </defs>
    <g clip-path="url(#pbcfff5d4a4)">
     <use style="fill:#1f77b4;stroke:#1f77b4;" x="334.248608" xlink:href="#m5fecbd246e" y="113.520392"/>
     <use style="fill:#1f77b4;stroke:#1f77b4;" x="328.089997" xlink:href="#m5fecbd246e" y="116.365699"/>
     <use style="fill:#1f77b4;stroke:#1f77b4;" x="321.408582" xlink:href="#m5fecbd246e" y="119.283105"/>
     <use style="fill:#1f77b4;stroke:#1f77b4;" x="314.816358" xlink:href="#m5fecbd246e" y="122.33342"/>
     <use style="fill:#1f77b4;stroke:#1f77b4;" x="308.32871" xlink:href="#m5fecbd246e" y="125.618575"/>
     <use style="fill:#1f77b4;stroke:#1f77b4;" x="301.944966" xlink:href="#m5fecbd246e" y="129.07097"/>
     <use style="fill:#1f77b4;stroke:#1f77b4;" x="295.665912" xlink:href="#m5fecbd246e" y="132.559212"/>
     <use style="fill:#1f77b4;stroke:#1f77b4;" x="289.485424" xlink:href="#m5fecbd246e" y="136.379482"/>
     <use style="fill:#1f77b4;stroke:#1f77b4;" x="283.406083" xlink:href="#m5fecbd246e" y="140.071568"/>
     <use style="fill:#1f77b4;stroke:#1f77b4;" x="277.42587" xlink:href="#m5fecbd246e" y="143.745258"/>
     <use style="fill:#1f77b4;stroke:#1f77b4;" x="271.535857" xlink:href="#m5fecbd246e" y="147.722155"/>
     <use style="fill:#1f77b4;stroke:#1f77b4;" x="265.737568" xlink:href="#m5fecbd246e" y="151.557999"/>
     <use style="fill:#1f77b4;stroke:#1f77b4;" x="260.039673" xlink:href="#m5fecbd246e" y="155.258235"/>
     <use style="fill:#1f77b4;stroke:#1f77b4;" x="254.438004" xlink:href="#m5fecbd246e" y="158.817917"/>
     <use style="fill:#1f77b4;stroke:#1f77b4;" x="248.916086" xlink:href="#m5fecbd246e" y="162.488907"/>
     <use style="fill:#1f77b4;stroke:#1f77b4;" x="243.491068" xlink:href="#m5fecbd246e" y="166.017681"/>
     <use style="fill:#1f77b4;stroke:#1f77b4;" x="238.159312" xlink:href="#m5fecbd246e" y="169.292672"/>
     <use style="fill:#1f77b4;stroke:#1f77b4;" x="232.915401" xlink:href="#m5fecbd246e" y="172.425781"/>
     <use style="fill:#1f77b4;stroke:#1f77b4;" x="227.757275" xlink:href="#m5fecbd246e" y="175.455913"/>
     <use style="fill:#1f77b4;stroke:#1f77b4;" x="222.69834" xlink:href="#m5fecbd246e" y="178.193943"/>
     <use style="fill:#1f77b4;stroke:#1f77b4;" x="217.716272" xlink:href="#m5fecbd246e" y="180.856361"/>
     <use style="fill:#1f77b4;stroke:#1f77b4;" x="212.822208" xlink:href="#m5fecbd246e" y="183.184057"/>
     <use style="fill:#1f77b4;stroke:#1f77b4;" x="208.014819" xlink:href="#m5fecbd246e" y="185.351053"/>
     <use style="fill:#1f77b4;stroke:#1f77b4;" x="203.288207" xlink:href="#m5fecbd246e" y="187.287665"/>
     <use style="fill:#1f77b4;stroke:#1f77b4;" x="198.638749" xlink:href="#m5fecbd246e" y="189.019491"/>
     <use style="fill:#1f77b4;stroke:#1f77b4;" x="194.06885" xlink:href="#m5fecbd246e" y="190.593242"/>
     <use style="fill:#1f77b4;stroke:#1f77b4;" x="189.591179" xlink:href="#m5fecbd246e" y="191.688289"/>
     <use style="fill:#1f77b4;stroke:#1f77b4;" x="185.176438" xlink:href="#m5fecbd246e" y="192.584991"/>
     <use style="fill:#1f77b4;stroke:#1f77b4;" x="180.830005" xlink:href="#m5fecbd246e" y="193.298943"/>
     <use style="fill:#1f77b4;stroke:#1f77b4;" x="176.577427" xlink:href="#m5fecbd246e" y="193.831962"/>
     <use style="fill:#1f77b4;stroke:#1f77b4;" x="172.383973" xlink:href="#m5fecbd246e" y="194.016641"/>
     <use style="fill:#1f77b4;stroke:#1f77b4;" x="168.278972" xlink:href="#m5fecbd246e" y="193.842558"/>
     <use style="fill:#1f77b4;stroke:#1f77b4;" x="164.24401" xlink:href="#m5fecbd246e" y="193.676713"/>
     <use style="fill:#1f77b4;stroke:#1f77b4;" x="160.278954" xlink:href="#m5fecbd246e" y="193.214042"/>
     <use style="fill:#1f77b4;stroke:#1f77b4;" x="156.395608" xlink:href="#m5fecbd246e" y="192.185753"/>
     <use style="fill:#1f77b4;stroke:#1f77b4;" x="152.567837" xlink:href="#m5fecbd246e" y="190.913073"/>
     <use style="fill:#1f77b4;stroke:#1f77b4;" x="148.822861" xlink:href="#m5fecbd246e" y="189.491488"/>
     <use style="fill:#1f77b4;stroke:#1f77b4;" x="145.136909" xlink:href="#m5fecbd246e" y="187.701155"/>
     <use style="fill:#1f77b4;stroke:#1f77b4;" x="141.520183" xlink:href="#m5fecbd246e" y="185.75293"/>
     <use style="fill:#1f77b4;stroke:#1f77b4;" x="137.969904" xlink:href="#m5fecbd246e" y="183.46276"/>
     <use style="fill:#1f77b4;stroke:#1f77b4;" x="134.47014" xlink:href="#m5fecbd246e" y="180.825431"/>
     <use style="fill:#1f77b4;stroke:#1f77b4;" x="131.051715" xlink:href="#m5fecbd246e" y="178.121849"/>
     <use style="fill:#1f77b4;stroke:#1f77b4;" x="127.690793" xlink:href="#m5fecbd246e" y="175.246005"/>
     <use style="fill:#1f77b4;stroke:#1f77b4;" x="124.385074" xlink:href="#m5fecbd246e" y="172.178773"/>
     <use style="fill:#1f77b4;stroke:#1f77b4;" x="121.142509" xlink:href="#m5fecbd246e" y="169.049301"/>
     <use style="fill:#1f77b4;stroke:#1f77b4;" x="117.95034" xlink:href="#m5fecbd246e" y="165.443406"/>
     <use style="fill:#1f77b4;stroke:#1f77b4;" x="114.81946" xlink:href="#m5fecbd246e" y="161.779815"/>
     <use style="fill:#1f77b4;stroke:#1f77b4;" x="111.744621" xlink:href="#m5fecbd246e" y="158.059774"/>
     <use style="fill:#1f77b4;stroke:#1f77b4;" x="108.690245" xlink:href="#m5fecbd246e" y="153.521971"/>
     <use style="fill:#1f77b4;stroke:#1f77b4;" x="105.737013" xlink:href="#m5fecbd246e" y="149.912178"/>
     <use style="fill:#1f77b4;stroke:#1f77b4;" x="105.454539" xlink:href="#m5fecbd246e" y="149.824154"/>
     <use style="fill:#1f77b4;stroke:#1f77b4;" x="105.168549" xlink:href="#m5fecbd246e" y="149.68954"/>
     <use style="fill:#1f77b4;stroke:#1f77b4;" x="104.880253" xlink:href="#m5fecbd246e" y="149.505495"/>
     <use style="fill:#1f77b4;stroke:#1f77b4;" x="104.594418" xlink:href="#m5fecbd246e" y="149.307705"/>
     <use style="fill:#1f77b4;stroke:#1f77b4;" x="104.30878" xlink:href="#m5fecbd246e" y="149.094088"/>
     <use style="fill:#1f77b4;stroke:#1f77b4;" x="104.023067" xlink:href="#m5fecbd246e" y="148.868117"/>
     <use style="fill:#1f77b4;stroke:#1f77b4;" x="103.738176" xlink:href="#m5fecbd246e" y="148.636942"/>
     <use style="fill:#1f77b4;stroke:#1f77b4;" x="103.45337" xlink:href="#m5fecbd246e" y="148.418123"/>
     <use style="fill:#1f77b4;stroke:#1f77b4;" x="103.170563" xlink:href="#m5fecbd246e" y="148.181129"/>
     <use style="fill:#1f77b4;stroke:#1f77b4;" x="102.888305" xlink:href="#m5fecbd246e" y="147.949863"/>
     <use style="fill:#1f77b4;stroke:#1f77b4;" x="102.606486" xlink:href="#m5fecbd246e" y="147.71998"/>
     <use style="fill:#1f77b4;stroke:#1f77b4;" x="102.32604" xlink:href="#m5fecbd246e" y="147.471979"/>
     <use style="fill:#1f77b4;stroke:#1f77b4;" x="102.044619" xlink:href="#m5fecbd246e" y="147.240663"/>
     <use style="fill:#1f77b4;stroke:#1f77b4;" x="101.763455" xlink:href="#m5fecbd246e" y="147.009412"/>
     <use style="fill:#1f77b4;stroke:#1f77b4;" x="101.483894" xlink:href="#m5fecbd246e" y="146.769771"/>
     <use style="fill:#1f77b4;stroke:#1f77b4;" x="101.20449" xlink:href="#m5fecbd246e" y="146.531884"/>
     <use style="fill:#1f77b4;stroke:#1f77b4;" x="100.926247" xlink:href="#m5fecbd246e" y="146.318072"/>
     <use style="fill:#1f77b4;stroke:#1f77b4;" x="100.648497" xlink:href="#m5fecbd246e" y="146.072347"/>
     <use style="fill:#1f77b4;stroke:#1f77b4;" x="100.372253" xlink:href="#m5fecbd246e" y="145.841183"/>
     <use style="fill:#1f77b4;stroke:#1f77b4;" x="100.095602" xlink:href="#m5fecbd246e" y="145.589784"/>
     <use style="fill:#1f77b4;stroke:#1f77b4;" x="99.820812" xlink:href="#m5fecbd246e" y="145.356148"/>
     <use style="fill:#1f77b4;stroke:#1f77b4;" x="99.545072" xlink:href="#m5fecbd246e" y="145.090488"/>
     <use style="fill:#1f77b4;stroke:#1f77b4;" x="99.269832" xlink:href="#m5fecbd246e" y="144.874576"/>
     <use style="fill:#1f77b4;stroke:#1f77b4;" x="98.995807" xlink:href="#m5fecbd246e" y="144.598694"/>
     <use style="fill:#1f77b4;stroke:#1f77b4;" x="98.72255" xlink:href="#m5fecbd246e" y="144.371261"/>
     <use style="fill:#1f77b4;stroke:#1f77b4;" x="98.695668" xlink:href="#m5fecbd246e" y="144.357492"/>
     <use style="fill:#1f77b4;stroke:#1f77b4;" x="98.668404" xlink:href="#m5fecbd246e" y="144.342967"/>
     <use style="fill:#1f77b4;stroke:#1f77b4;" x="98.640967" xlink:href="#m5fecbd246e" y="144.327851"/>
     <use style="fill:#1f77b4;stroke:#1f77b4;" x="98.61358" xlink:href="#m5fecbd246e" y="144.31233"/>
     <use style="fill:#1f77b4;stroke:#1f77b4;" x="98.586333" xlink:href="#m5fecbd246e" y="144.299424"/>
     <use style="fill:#1f77b4;stroke:#1f77b4;" x="98.558732" xlink:href="#m5fecbd246e" y="144.285302"/>
     <use style="fill:#1f77b4;stroke:#1f77b4;" x="98.531526" xlink:href="#m5fecbd246e" y="144.27188"/>
     <use style="fill:#1f77b4;stroke:#1f77b4;" x="98.504326" xlink:href="#m5fecbd246e" y="144.259398"/>
     <use style="fill:#1f77b4;stroke:#1f77b4;" x="98.476996" xlink:href="#m5fecbd246e" y="144.249307"/>
     <use style="fill:#1f77b4;stroke:#1f77b4;" x="98.449591" xlink:href="#m5fecbd246e" y="144.23828"/>
     <use style="fill:#1f77b4;stroke:#1f77b4;" x="98.422359" xlink:href="#m5fecbd246e" y="144.224133"/>
     <use style="fill:#1f77b4;stroke:#1f77b4;" x="98.395214" xlink:href="#m5fecbd246e" y="144.208635"/>
     <use style="fill:#1f77b4;stroke:#1f77b4;" x="98.368014" xlink:href="#m5fecbd246e" y="144.194933"/>
     <use style="fill:#1f77b4;stroke:#1f77b4;" x="98.34064" xlink:href="#m5fecbd246e" y="144.181011"/>
     <use style="fill:#1f77b4;stroke:#1f77b4;" x="98.313475" xlink:href="#m5fecbd246e" y="144.17045"/>
     <use style="fill:#1f77b4;stroke:#1f77b4;" x="98.286333" xlink:href="#m5fecbd246e" y="144.156072"/>
     <use style="fill:#1f77b4;stroke:#1f77b4;" x="98.259356" xlink:href="#m5fecbd246e" y="144.142423"/>
     <use style="fill:#1f77b4;stroke:#1f77b4;" x="98.232149" xlink:href="#m5fecbd246e" y="144.132236"/>
     <use style="fill:#1f77b4;stroke:#1f77b4;" x="98.204991" xlink:href="#m5fecbd246e" y="144.122923"/>
     <use style="fill:#1f77b4;stroke:#1f77b4;" x="98.177722" xlink:href="#m5fecbd246e" y="144.112418"/>
     <use style="fill:#1f77b4;stroke:#1f77b4;" x="98.150608" xlink:href="#m5fecbd246e" y="144.097406"/>
     <use style="fill:#1f77b4;stroke:#1f77b4;" x="98.123555" xlink:href="#m5fecbd246e" y="144.084806"/>
     <use style="fill:#1f77b4;stroke:#1f77b4;" x="98.096653" xlink:href="#m5fecbd246e" y="144.073903"/>
     <use style="fill:#1f77b4;stroke:#1f77b4;" x="98.069603" xlink:href="#m5fecbd246e" y="144.065578"/>
    </g>
   </g>
   <g id="patch_3">
    <path d="M 56.028488 277.111219 
L 56.028488 10.999219 
" style="fill:none;stroke:#000000;stroke-linecap:square;stroke-linejoin:miter;stroke-width:0.8;"/>
   </g>
   <g id="patch_4">
    <path d="M 413.148488 277.111219 
L 413.148488 10.999219 
" style="fill:none;stroke:#000000;stroke-linecap:square;stroke-linejoin:miter;stroke-width:0.8;"/>
   </g>
   <g id="patch_5">
    <path d="M 56.028488 277.111219 
L 413.148488 277.111219 
" style="fill:none;stroke:#000000;stroke-linecap:square;stroke-linejoin:miter;stroke-width:0.8;"/>
   </g>
   <g id="patch_6">
    <path d="M 56.028488 10.999219 
L 413.148488 10.999219 
" style="fill:none;stroke:#000000;stroke-linecap:square;stroke-linejoin:miter;stroke-width:0.8;"/>
   </g>
   <g id="text_21">
    <g clip-path="url(#pbcfff5d4a4)">
     <!-- 1.500 -->
     <g style="fill:#453781;" transform="translate(85.422009 122.650264)rotate(-4.814351)scale(0.06 -0.06)">
      <use xlink:href="#DejaVuSans-49"/>
      <use x="63.623047" xlink:href="#DejaVuSans-46"/>
      <use x="95.410156" xlink:href="#DejaVuSans-53"/>
      <use x="159.033203" xlink:href="#DejaVuSans-48"/>
      <use x="222.65625" xlink:href="#DejaVuSans-48"/>
     </g>
    </g>
   </g>
   <g id="text_22">
    <g clip-path="url(#pbcfff5d4a4)">
     <!-- 2.000 -->
     <g style="fill:#404688;" transform="translate(88.127244 179.280066)rotate(-89.090068)scale(0.06 -0.06)">
      <use xlink:href="#DejaVuSans-50"/>
      <use x="63.623047" xlink:href="#DejaVuSans-46"/>
      <use x="95.410156" xlink:href="#DejaVuSans-48"/>
      <use x="159.033203" xlink:href="#DejaVuSans-48"/>
      <use x="222.65625" xlink:href="#DejaVuSans-48"/>
     </g>
    </g>
   </g>
   <g id="text_23">
    <g clip-path="url(#pbcfff5d4a4)">
     <!-- 2.500 -->
     <g style="fill:#39558c;" transform="translate(70.322737 235.812569)rotate(-76.397434)scale(0.06 -0.06)">
      <use xlink:href="#DejaVuSans-50"/>
      <use x="63.623047" xlink:href="#DejaVuSans-46"/>
      <use x="95.410156" xlink:href="#DejaVuSans-53"/>
      <use x="159.033203" xlink:href="#DejaVuSans-48"/>
      <use x="222.65625" xlink:href="#DejaVuSans-48"/>
     </g>
    </g>
   </g>
   <g id="text_24">
    <g clip-path="url(#pbcfff5d4a4)">
     <!-- 2.500 -->
     <g style="fill:#39558c;" transform="translate(75.043559 38.780709)rotate(-287.403092)scale(0.06 -0.06)">
      <use xlink:href="#DejaVuSans-50"/>
      <use x="63.623047" xlink:href="#DejaVuSans-46"/>
      <use x="95.410156" xlink:href="#DejaVuSans-53"/>
      <use x="159.033203" xlink:href="#DejaVuSans-48"/>
      <use x="222.65625" xlink:href="#DejaVuSans-48"/>
     </g>
    </g>
   </g>
   <g id="text_25">
    <g clip-path="url(#pbcfff5d4a4)">
     <!-- 3.000 -->
     <g style="fill:#33638d;" transform="translate(66.694586 12.447124)rotate(-291.026995)scale(0.06 -0.06)">
      <defs>
       <path d="M 40.578125 39.3125 
Q 47.65625 37.796875 51.625 33 
Q 55.609375 28.21875 55.609375 21.1875 
Q 55.609375 10.40625 48.1875 4.484375 
Q 40.765625 -1.421875 27.09375 -1.421875 
Q 22.515625 -1.421875 17.65625 -0.515625 
Q 12.796875 0.390625 7.625 2.203125 
L 7.625 11.71875 
Q 11.71875 9.328125 16.59375 8.109375 
Q 21.484375 6.890625 26.8125 6.890625 
Q 36.078125 6.890625 40.9375 10.546875 
Q 45.796875 14.203125 45.796875 21.1875 
Q 45.796875 27.640625 41.28125 31.265625 
Q 36.765625 34.90625 28.71875 34.90625 
L 20.21875 34.90625 
L 20.21875 43.015625 
L 29.109375 43.015625 
Q 36.375 43.015625 40.234375 45.921875 
Q 44.09375 48.828125 44.09375 54.296875 
Q 44.09375 59.90625 40.109375 62.90625 
Q 36.140625 65.921875 28.71875 65.921875 
Q 24.65625 65.921875 20.015625 65.03125 
Q 15.375 64.15625 9.8125 62.3125 
L 9.8125 71.09375 
Q 15.4375 72.65625 20.34375 73.4375 
Q 25.25 74.21875 29.59375 74.21875 
Q 40.828125 74.21875 47.359375 69.109375 
Q 53.90625 64.015625 53.90625 55.328125 
Q 53.90625 49.265625 50.4375 45.09375 
Q 46.96875 40.921875 40.578125 39.3125 
z
" id="DejaVuSans-51"/>
      </defs>
      <use xlink:href="#DejaVuSans-51"/>
      <use x="63.623047" xlink:href="#DejaVuSans-46"/>
      <use x="95.410156" xlink:href="#DejaVuSans-48"/>
      <use x="159.033203" xlink:href="#DejaVuSans-48"/>
      <use x="222.65625" xlink:href="#DejaVuSans-48"/>
     </g>
    </g>
   </g>
   <g id="text_26">
    <g clip-path="url(#pbcfff5d4a4)">
     <!-- 3.500 -->
     <g style="fill:#2d718e;" transform="translate(79.953311 47.451062)rotate(-284.502801)scale(0.06 -0.06)">
      <use xlink:href="#DejaVuSans-51"/>
      <use x="63.623047" xlink:href="#DejaVuSans-46"/>
      <use x="95.410156" xlink:href="#DejaVuSans-53"/>
      <use x="159.033203" xlink:href="#DejaVuSans-48"/>
      <use x="222.65625" xlink:href="#DejaVuSans-48"/>
     </g>
    </g>
   </g>
   <g id="text_27">
    <g clip-path="url(#pbcfff5d4a4)">
     <!-- 4.000 -->
     <g style="fill:#287d8e;" transform="translate(107.386015 188.015349)rotate(-85.262125)scale(0.06 -0.06)">
      <use xlink:href="#DejaVuSans-52"/>
      <use x="63.623047" xlink:href="#DejaVuSans-46"/>
      <use x="95.410156" xlink:href="#DejaVuSans-48"/>
      <use x="159.033203" xlink:href="#DejaVuSans-48"/>
      <use x="222.65625" xlink:href="#DejaVuSans-48"/>
     </g>
    </g>
   </g>
   <g id="text_28">
    <g clip-path="url(#pbcfff5d4a4)">
     <!-- 4.500 -->
     <g style="fill:#238a8d;" transform="translate(80.725605 47.484652)rotate(-285.010779)scale(0.06 -0.06)">
      <use xlink:href="#DejaVuSans-52"/>
      <use x="63.623047" xlink:href="#DejaVuSans-46"/>
      <use x="95.410156" xlink:href="#DejaVuSans-53"/>
      <use x="159.033203" xlink:href="#DejaVuSans-48"/>
      <use x="222.65625" xlink:href="#DejaVuSans-48"/>
     </g>
    </g>
   </g>
   <g id="text_29">
    <g clip-path="url(#pbcfff5d4a4)">
     <!-- 5.000 -->
     <g style="fill:#1f968b;" transform="translate(81.111843 47.501689)rotate(-285.264926)scale(0.06 -0.06)">
      <use xlink:href="#DejaVuSans-53"/>
      <use x="63.623047" xlink:href="#DejaVuSans-46"/>
      <use x="95.410156" xlink:href="#DejaVuSans-48"/>
      <use x="159.033203" xlink:href="#DejaVuSans-48"/>
      <use x="222.65625" xlink:href="#DejaVuSans-48"/>
     </g>
    </g>
   </g>
   <g id="text_30">
    <g clip-path="url(#pbcfff5d4a4)">
     <!-- 5.500 -->
     <g style="fill:#20a386;" transform="translate(81.498143 47.518887)rotate(-285.519166)scale(0.06 -0.06)">
      <use xlink:href="#DejaVuSans-53"/>
      <use x="63.623047" xlink:href="#DejaVuSans-46"/>
      <use x="95.410156" xlink:href="#DejaVuSans-53"/>
      <use x="159.033203" xlink:href="#DejaVuSans-48"/>
      <use x="222.65625" xlink:href="#DejaVuSans-48"/>
     </g>
    </g>
   </g>
   <g id="text_31">
    <g clip-path="url(#pbcfff5d4a4)">
     <!-- 6.000 -->
     <g style="fill:#29af7f;" transform="translate(81.719281 47.475367)rotate(-284.871302)scale(0.06 -0.06)">
      <use xlink:href="#DejaVuSans-54"/>
      <use x="63.623047" xlink:href="#DejaVuSans-46"/>
      <use x="95.410156" xlink:href="#DejaVuSans-48"/>
      <use x="159.033203" xlink:href="#DejaVuSans-48"/>
      <use x="222.65625" xlink:href="#DejaVuSans-48"/>
     </g>
    </g>
   </g>
   <g id="text_32">
    <g clip-path="url(#pbcfff5d4a4)">
     <!-- 6.500 -->
     <g style="fill:#3dbc74;" transform="translate(81.921341 47.425019)rotate(-284.102323)scale(0.06 -0.06)">
      <use xlink:href="#DejaVuSans-54"/>
      <use x="63.623047" xlink:href="#DejaVuSans-46"/>
      <use x="95.410156" xlink:href="#DejaVuSans-53"/>
      <use x="159.033203" xlink:href="#DejaVuSans-48"/>
      <use x="222.65625" xlink:href="#DejaVuSans-48"/>
     </g>
    </g>
   </g>
   <g id="text_33">
    <g clip-path="url(#pbcfff5d4a4)">
     <!-- 7.000 -->
     <g style="fill:#56c667;" transform="translate(82.067303 47.401905)rotate(-283.741809)scale(0.06 -0.06)">
      <defs>
       <path d="M 8.203125 72.90625 
L 55.078125 72.90625 
L 55.078125 68.703125 
L 28.609375 0 
L 18.3125 0 
L 43.21875 64.59375 
L 8.203125 64.59375 
z
" id="DejaVuSans-55"/>
      </defs>
      <use xlink:href="#DejaVuSans-55"/>
      <use x="63.623047" xlink:href="#DejaVuSans-46"/>
      <use x="95.410156" xlink:href="#DejaVuSans-48"/>
      <use x="159.033203" xlink:href="#DejaVuSans-48"/>
      <use x="222.65625" xlink:href="#DejaVuSans-48"/>
     </g>
    </g>
   </g>
   <g id="text_34">
    <g clip-path="url(#pbcfff5d4a4)">
     <!-- 7.500 -->
     <g style="fill:#75d054;" transform="translate(82.176636 47.395807)rotate(-283.645866)scale(0.06 -0.06)">
      <use xlink:href="#DejaVuSans-55"/>
      <use x="63.623047" xlink:href="#DejaVuSans-46"/>
      <use x="95.410156" xlink:href="#DejaVuSans-53"/>
      <use x="159.033203" xlink:href="#DejaVuSans-48"/>
      <use x="222.65625" xlink:href="#DejaVuSans-48"/>
     </g>
    </g>
   </g>
   <g id="text_35">
    <g clip-path="url(#pbcfff5d4a4)">
     <!-- 8.000 -->
     <g style="fill:#95d840;" transform="translate(82.285982 47.38973)rotate(-283.549909)scale(0.06 -0.06)">
      <use xlink:href="#DejaVuSans-56"/>
      <use x="63.623047" xlink:href="#DejaVuSans-46"/>
      <use x="95.410156" xlink:href="#DejaVuSans-48"/>
      <use x="159.033203" xlink:href="#DejaVuSans-48"/>
      <use x="222.65625" xlink:href="#DejaVuSans-48"/>
     </g>
    </g>
   </g>
   <g id="text_36">
    <g clip-path="url(#pbcfff5d4a4)">
     <!-- 8.500 -->
     <g style="fill:#bade28;" transform="translate(82.395339 47.383675)rotate(-283.453939)scale(0.06 -0.06)">
      <use xlink:href="#DejaVuSans-56"/>
      <use x="63.623047" xlink:href="#DejaVuSans-46"/>
      <use x="95.410156" xlink:href="#DejaVuSans-53"/>
      <use x="159.033203" xlink:href="#DejaVuSans-48"/>
      <use x="222.65625" xlink:href="#DejaVuSans-48"/>
     </g>
    </g>
   </g>
   <g id="text_37">
    <g clip-path="url(#pbcfff5d4a4)">
     <!-- 9.000 -->
     <g style="fill:#dde318;" transform="translate(82.504708 47.377641)rotate(-283.357957)scale(0.06 -0.06)">
      <use xlink:href="#DejaVuSans-57"/>
      <use x="63.623047" xlink:href="#DejaVuSans-46"/>
      <use x="95.410156" xlink:href="#DejaVuSans-48"/>
      <use x="159.033203" xlink:href="#DejaVuSans-48"/>
      <use x="222.65625" xlink:href="#DejaVuSans-48"/>
     </g>
    </g>
   </g>
   <g id="text_38">
    <g clip-path="url(#pbcfff5d4a4)">
     <!-- 9.500 -->
     <g style="fill:#fde725;" transform="translate(82.614089 47.371629)rotate(-283.261963)scale(0.06 -0.06)">
      <use xlink:href="#DejaVuSans-57"/>
      <use x="63.623047" xlink:href="#DejaVuSans-46"/>
      <use x="95.410156" xlink:href="#DejaVuSans-53"/>
      <use x="159.033203" xlink:href="#DejaVuSans-48"/>
      <use x="222.65625" xlink:href="#DejaVuSans-48"/>
     </g>
    </g>
   </g>
   <g id="text_39">
    <g clip-path="url(#pbcfff5d4a4)">
     <!-- 10.000 -->
     <g style="fill:#440154;" transform="translate(84.30337 54.304415)rotate(-282.095799)scale(0.06 -0.06)">
      <use xlink:href="#DejaVuSans-49"/>
      <use x="63.623047" xlink:href="#DejaVuSans-48"/>
      <use x="127.246094" xlink:href="#DejaVuSans-46"/>
      <use x="159.033203" xlink:href="#DejaVuSans-48"/>
      <use x="222.65625" xlink:href="#DejaVuSans-48"/>
      <use x="286.279297" xlink:href="#DejaVuSans-48"/>
     </g>
    </g>
   </g>
   <g id="text_40">
    <g clip-path="url(#pbcfff5d4a4)">
     <!-- 100.000 -->
     <g style="fill:#440154;" transform="translate(99.91069 271.797807)rotate(-75.579507)scale(0.06 -0.06)">
      <use xlink:href="#DejaVuSans-49"/>
      <use x="63.623047" xlink:href="#DejaVuSans-48"/>
      <use x="127.246094" xlink:href="#DejaVuSans-48"/>
      <use x="190.869141" xlink:href="#DejaVuSans-46"/>
      <use x="222.65625" xlink:href="#DejaVuSans-48"/>
      <use x="286.279297" xlink:href="#DejaVuSans-48"/>
      <use x="349.902344" xlink:href="#DejaVuSans-48"/>
     </g>
    </g>
   </g>
   <g id="text_41">
    <g clip-path="url(#pbcfff5d4a4)">
     <!-- 1000.000 -->
     <g style="fill:#440154;" transform="translate(79.583832 10.713467)rotate(-287.373883)scale(0.06 -0.06)">
      <use xlink:href="#DejaVuSans-49"/>
      <use x="63.623047" xlink:href="#DejaVuSans-48"/>
      <use x="127.246094" xlink:href="#DejaVuSans-48"/>
      <use x="190.869141" xlink:href="#DejaVuSans-48"/>
      <use x="254.492188" xlink:href="#DejaVuSans-46"/>
      <use x="286.279297" xlink:href="#DejaVuSans-48"/>
      <use x="349.902344" xlink:href="#DejaVuSans-48"/>
      <use x="413.525391" xlink:href="#DejaVuSans-48"/>
     </g>
    </g>
   </g>
   <g id="text_42">
    <g clip-path="url(#pbcfff5d4a4)">
     <!-- 10000.000 -->
     <g style="fill:#440154;" transform="translate(95.027519 55.492699)rotate(-290.437896)scale(0.06 -0.06)">
      <use xlink:href="#DejaVuSans-49"/>
      <use x="63.623047" xlink:href="#DejaVuSans-48"/>
      <use x="127.246094" xlink:href="#DejaVuSans-48"/>
      <use x="190.869141" xlink:href="#DejaVuSans-48"/>
      <use x="254.492188" xlink:href="#DejaVuSans-48"/>
      <use x="318.115234" xlink:href="#DejaVuSans-46"/>
      <use x="349.902344" xlink:href="#DejaVuSans-48"/>
      <use x="413.525391" xlink:href="#DejaVuSans-48"/>
      <use x="477.148438" xlink:href="#DejaVuSans-48"/>
     </g>
    </g>
   </g>
   <g id="text_43">
    <g clip-path="url(#pbcfff5d4a4)">
     <!-- 100000.000 -->
     <g style="fill:#440154;" transform="translate(96.284437 41.973363)rotate(-291.058352)scale(0.06 -0.06)">
      <use xlink:href="#DejaVuSans-49"/>
      <use x="63.623047" xlink:href="#DejaVuSans-48"/>
      <use x="127.246094" xlink:href="#DejaVuSans-48"/>
      <use x="190.869141" xlink:href="#DejaVuSans-48"/>
      <use x="254.492188" xlink:href="#DejaVuSans-48"/>
      <use x="318.115234" xlink:href="#DejaVuSans-48"/>
      <use x="381.738281" xlink:href="#DejaVuSans-46"/>
      <use x="413.525391" xlink:href="#DejaVuSans-48"/>
      <use x="477.148438" xlink:href="#DejaVuSans-48"/>
      <use x="540.771484" xlink:href="#DejaVuSans-48"/>
     </g>
    </g>
   </g>
   <g id="text_44">
    <g clip-path="url(#pbcfff5d4a4)">
     <!-- 1000000.000 -->
     <g style="fill:#450457;" transform="translate(97.98698 28.444357)rotate(-291.520565)scale(0.06 -0.06)">
      <use xlink:href="#DejaVuSans-49"/>
      <use x="63.623047" xlink:href="#DejaVuSans-48"/>
      <use x="127.246094" xlink:href="#DejaVuSans-48"/>
      <use x="190.869141" xlink:href="#DejaVuSans-48"/>
      <use x="254.492188" xlink:href="#DejaVuSans-48"/>
      <use x="318.115234" xlink:href="#DejaVuSans-48"/>
      <use x="381.738281" xlink:href="#DejaVuSans-48"/>
      <use x="445.361328" xlink:href="#DejaVuSans-46"/>
      <use x="477.148438" xlink:href="#DejaVuSans-48"/>
      <use x="540.771484" xlink:href="#DejaVuSans-48"/>
      <use x="604.394531" xlink:href="#DejaVuSans-48"/>
     </g>
    </g>
   </g>
  </g>
 </g>
 <defs>
  <clipPath id="pbcfff5d4a4">
   <rect height="266.112" width="357.12" x="56.028488" y="10.999219"/>
  </clipPath>
 </defs>
</svg>
