<?xml version="1.0" encoding="utf-8" standalone="no"?>
<!DOCTYPE svg PUBLIC "-//W3C//DTD SVG 1.1//EN"
  "http://www.w3.org/Graphics/SVG/1.1/DTD/svg11.dtd">
<!-- Created with matplotlib (https://matplotlib.org/) -->
<svg height="321.713144pt" version="1.1" viewBox="0 0 420.348487 321.713144" width="420.348487pt" xmlns="http://www.w3.org/2000/svg" xmlns:xlink="http://www.w3.org/1999/xlink">
 <metadata>
  <rdf:RDF xmlns:cc="http://creativecommons.org/ns#" xmlns:dc="http://purl.org/dc/elements/1.1/" xmlns:rdf="http://www.w3.org/1999/02/22-rdf-syntax-ns#">
   <cc:Work>
    <dc:type rdf:resource="http://purl.org/dc/dcmitype/StillImage"/>
    <dc:date>2021-09-21T23:35:49.775036</dc:date>
    <dc:format>image/svg+xml</dc:format>
    <dc:creator>
     <cc:Agent>
      <dc:title>Matplotlib v3.3.1, https://matplotlib.org/</dc:title>
     </cc:Agent>
    </dc:creator>
   </cc:Work>
  </rdf:RDF>
 </metadata>
 <defs>
  <style type="text/css">*{stroke-linecap:butt;stroke-linejoin:round;}</style>
 </defs>
 <g id="figure_1">
  <g id="patch_1">
   <path d="M 0 321.713144 
L 420.348487 321.713144 
L 420.348487 0 
L 0 0 
z
" style="fill:#ffffff;"/>
  </g>
  <g id="axes_1">
   <g id="patch_2">
    <path d="M 56.028488 277.111219 
L 413.148488 277.111219 
L 413.148488 10.999219 
L 56.028488 10.999219 
z
" style="fill:#ffffff;"/>
   </g>
   <g id="matplotlib.axis_1">
    <g id="xtick_1">
     <g id="line2d_1">
      <defs>
       <path d="M 0 0 
L 0 3.5 
" id="m3ec7a94349" style="stroke:#000000;stroke-width:0.8;"/>
      </defs>
      <g>
       <use style="stroke:#000000;stroke-width:0.8;" x="56.028488" xlink:href="#m3ec7a94349" y="277.111219"/>
      </g>
     </g>
     <g id="text_1">
      <!-- −20 -->
      <g transform="translate(45.476144 291.709656)scale(0.1 -0.1)">
       <defs>
        <path d="M 10.59375 35.5 
L 73.1875 35.5 
L 73.1875 27.203125 
L 10.59375 27.203125 
z
" id="DejaVuSans-8722"/>
        <path d="M 19.1875 8.296875 
L 53.609375 8.296875 
L 53.609375 0 
L 7.328125 0 
L 7.328125 8.296875 
Q 12.9375 14.109375 22.625 23.890625 
Q 32.328125 33.6875 34.8125 36.53125 
Q 39.546875 41.84375 41.421875 45.53125 
Q 43.3125 49.21875 43.3125 52.78125 
Q 43.3125 58.59375 39.234375 62.25 
Q 35.15625 65.921875 28.609375 65.921875 
Q 23.96875 65.921875 18.8125 64.3125 
Q 13.671875 62.703125 7.8125 59.421875 
L 7.8125 69.390625 
Q 13.765625 71.78125 18.9375 73 
Q 24.125 74.21875 28.421875 74.21875 
Q 39.75 74.21875 46.484375 68.546875 
Q 53.21875 62.890625 53.21875 53.421875 
Q 53.21875 48.921875 51.53125 44.890625 
Q 49.859375 40.875 45.40625 35.40625 
Q 44.1875 33.984375 37.640625 27.21875 
Q 31.109375 20.453125 19.1875 8.296875 
z
" id="DejaVuSans-50"/>
        <path d="M 31.78125 66.40625 
Q 24.171875 66.40625 20.328125 58.90625 
Q 16.5 51.421875 16.5 36.375 
Q 16.5 21.390625 20.328125 13.890625 
Q 24.171875 6.390625 31.78125 6.390625 
Q 39.453125 6.390625 43.28125 13.890625 
Q 47.125 21.390625 47.125 36.375 
Q 47.125 51.421875 43.28125 58.90625 
Q 39.453125 66.40625 31.78125 66.40625 
z
M 31.78125 74.21875 
Q 44.046875 74.21875 50.515625 64.515625 
Q 56.984375 54.828125 56.984375 36.375 
Q 56.984375 17.96875 50.515625 8.265625 
Q 44.046875 -1.421875 31.78125 -1.421875 
Q 19.53125 -1.421875 13.0625 8.265625 
Q 6.59375 17.96875 6.59375 36.375 
Q 6.59375 54.828125 13.0625 64.515625 
Q 19.53125 74.21875 31.78125 74.21875 
z
" id="DejaVuSans-48"/>
       </defs>
       <use xlink:href="#DejaVuSans-8722"/>
       <use x="83.789062" xlink:href="#DejaVuSans-50"/>
       <use x="147.412109" xlink:href="#DejaVuSans-48"/>
      </g>
     </g>
    </g>
    <g id="xtick_2">
     <g id="line2d_2">
      <g>
       <use style="stroke:#000000;stroke-width:0.8;" x="98.042605" xlink:href="#m3ec7a94349" y="277.111219"/>
      </g>
     </g>
     <g id="text_2">
      <!-- 0 -->
      <g transform="translate(94.861355 291.709656)scale(0.1 -0.1)">
       <use xlink:href="#DejaVuSans-48"/>
      </g>
     </g>
    </g>
    <g id="xtick_3">
     <g id="line2d_3">
      <g>
       <use style="stroke:#000000;stroke-width:0.8;" x="140.056723" xlink:href="#m3ec7a94349" y="277.111219"/>
      </g>
     </g>
     <g id="text_3">
      <!-- 20 -->
      <g transform="translate(133.694223 291.709656)scale(0.1 -0.1)">
       <use xlink:href="#DejaVuSans-50"/>
       <use x="63.623047" xlink:href="#DejaVuSans-48"/>
      </g>
     </g>
    </g>
    <g id="xtick_4">
     <g id="line2d_4">
      <g>
       <use style="stroke:#000000;stroke-width:0.8;" x="182.07084" xlink:href="#m3ec7a94349" y="277.111219"/>
      </g>
     </g>
     <g id="text_4">
      <!-- 40 -->
      <g transform="translate(175.70834 291.709656)scale(0.1 -0.1)">
       <defs>
        <path d="M 37.796875 64.3125 
L 12.890625 25.390625 
L 37.796875 25.390625 
z
M 35.203125 72.90625 
L 47.609375 72.90625 
L 47.609375 25.390625 
L 58.015625 25.390625 
L 58.015625 17.1875 
L 47.609375 17.1875 
L 47.609375 0 
L 37.796875 0 
L 37.796875 17.1875 
L 4.890625 17.1875 
L 4.890625 26.703125 
z
" id="DejaVuSans-52"/>
       </defs>
       <use xlink:href="#DejaVuSans-52"/>
       <use x="63.623047" xlink:href="#DejaVuSans-48"/>
      </g>
     </g>
    </g>
    <g id="xtick_5">
     <g id="line2d_5">
      <g>
       <use style="stroke:#000000;stroke-width:0.8;" x="224.084958" xlink:href="#m3ec7a94349" y="277.111219"/>
      </g>
     </g>
     <g id="text_5">
      <!-- 60 -->
      <g transform="translate(217.722458 291.709656)scale(0.1 -0.1)">
       <defs>
        <path d="M 33.015625 40.375 
Q 26.375 40.375 22.484375 35.828125 
Q 18.609375 31.296875 18.609375 23.390625 
Q 18.609375 15.53125 22.484375 10.953125 
Q 26.375 6.390625 33.015625 6.390625 
Q 39.65625 6.390625 43.53125 10.953125 
Q 47.40625 15.53125 47.40625 23.390625 
Q 47.40625 31.296875 43.53125 35.828125 
Q 39.65625 40.375 33.015625 40.375 
z
M 52.59375 71.296875 
L 52.59375 62.3125 
Q 48.875 64.0625 45.09375 64.984375 
Q 41.3125 65.921875 37.59375 65.921875 
Q 27.828125 65.921875 22.671875 59.328125 
Q 17.53125 52.734375 16.796875 39.40625 
Q 19.671875 43.65625 24.015625 45.921875 
Q 28.375 48.1875 33.59375 48.1875 
Q 44.578125 48.1875 50.953125 41.515625 
Q 57.328125 34.859375 57.328125 23.390625 
Q 57.328125 12.15625 50.6875 5.359375 
Q 44.046875 -1.421875 33.015625 -1.421875 
Q 20.359375 -1.421875 13.671875 8.265625 
Q 6.984375 17.96875 6.984375 36.375 
Q 6.984375 53.65625 15.1875 63.9375 
Q 23.390625 74.21875 37.203125 74.21875 
Q 40.921875 74.21875 44.703125 73.484375 
Q 48.484375 72.75 52.59375 71.296875 
z
" id="DejaVuSans-54"/>
       </defs>
       <use xlink:href="#DejaVuSans-54"/>
       <use x="63.623047" xlink:href="#DejaVuSans-48"/>
      </g>
     </g>
    </g>
    <g id="xtick_6">
     <g id="line2d_6">
      <g>
       <use style="stroke:#000000;stroke-width:0.8;" x="266.099076" xlink:href="#m3ec7a94349" y="277.111219"/>
      </g>
     </g>
     <g id="text_6">
      <!-- 80 -->
      <g transform="translate(259.736576 291.709656)scale(0.1 -0.1)">
       <defs>
        <path d="M 31.78125 34.625 
Q 24.75 34.625 20.71875 30.859375 
Q 16.703125 27.09375 16.703125 20.515625 
Q 16.703125 13.921875 20.71875 10.15625 
Q 24.75 6.390625 31.78125 6.390625 
Q 38.8125 6.390625 42.859375 10.171875 
Q 46.921875 13.96875 46.921875 20.515625 
Q 46.921875 27.09375 42.890625 30.859375 
Q 38.875 34.625 31.78125 34.625 
z
M 21.921875 38.8125 
Q 15.578125 40.375 12.03125 44.71875 
Q 8.5 49.078125 8.5 55.328125 
Q 8.5 64.0625 14.71875 69.140625 
Q 20.953125 74.21875 31.78125 74.21875 
Q 42.671875 74.21875 48.875 69.140625 
Q 55.078125 64.0625 55.078125 55.328125 
Q 55.078125 49.078125 51.53125 44.71875 
Q 48 40.375 41.703125 38.8125 
Q 48.828125 37.15625 52.796875 32.3125 
Q 56.78125 27.484375 56.78125 20.515625 
Q 56.78125 9.90625 50.3125 4.234375 
Q 43.84375 -1.421875 31.78125 -1.421875 
Q 19.734375 -1.421875 13.25 4.234375 
Q 6.78125 9.90625 6.78125 20.515625 
Q 6.78125 27.484375 10.78125 32.3125 
Q 14.796875 37.15625 21.921875 38.8125 
z
M 18.3125 54.390625 
Q 18.3125 48.734375 21.84375 45.5625 
Q 25.390625 42.390625 31.78125 42.390625 
Q 38.140625 42.390625 41.71875 45.5625 
Q 45.3125 48.734375 45.3125 54.390625 
Q 45.3125 60.0625 41.71875 63.234375 
Q 38.140625 66.40625 31.78125 66.40625 
Q 25.390625 66.40625 21.84375 63.234375 
Q 18.3125 60.0625 18.3125 54.390625 
z
" id="DejaVuSans-56"/>
       </defs>
       <use xlink:href="#DejaVuSans-56"/>
       <use x="63.623047" xlink:href="#DejaVuSans-48"/>
      </g>
     </g>
    </g>
    <g id="xtick_7">
     <g id="line2d_7">
      <g>
       <use style="stroke:#000000;stroke-width:0.8;" x="308.113193" xlink:href="#m3ec7a94349" y="277.111219"/>
      </g>
     </g>
     <g id="text_7">
      <!-- 100 -->
      <g transform="translate(298.569443 291.709656)scale(0.1 -0.1)">
       <defs>
        <path d="M 12.40625 8.296875 
L 28.515625 8.296875 
L 28.515625 63.921875 
L 10.984375 60.40625 
L 10.984375 69.390625 
L 28.421875 72.90625 
L 38.28125 72.90625 
L 38.28125 8.296875 
L 54.390625 8.296875 
L 54.390625 0 
L 12.40625 0 
z
" id="DejaVuSans-49"/>
       </defs>
       <use xlink:href="#DejaVuSans-49"/>
       <use x="63.623047" xlink:href="#DejaVuSans-48"/>
       <use x="127.246094" xlink:href="#DejaVuSans-48"/>
      </g>
     </g>
    </g>
    <g id="xtick_8">
     <g id="line2d_8">
      <g>
       <use style="stroke:#000000;stroke-width:0.8;" x="350.127311" xlink:href="#m3ec7a94349" y="277.111219"/>
      </g>
     </g>
     <g id="text_8">
      <!-- 120 -->
      <g transform="translate(340.583561 291.709656)scale(0.1 -0.1)">
       <use xlink:href="#DejaVuSans-49"/>
       <use x="63.623047" xlink:href="#DejaVuSans-50"/>
       <use x="127.246094" xlink:href="#DejaVuSans-48"/>
      </g>
     </g>
    </g>
    <g id="xtick_9">
     <g id="line2d_9">
      <g>
       <use style="stroke:#000000;stroke-width:0.8;" x="392.141429" xlink:href="#m3ec7a94349" y="277.111219"/>
      </g>
     </g>
     <g id="text_9">
      <!-- 140 -->
      <g transform="translate(382.597679 291.709656)scale(0.1 -0.1)">
       <use xlink:href="#DejaVuSans-49"/>
       <use x="63.623047" xlink:href="#DejaVuSans-52"/>
       <use x="127.246094" xlink:href="#DejaVuSans-48"/>
      </g>
     </g>
    </g>
    <g id="text_10">
     <!-- 1st PC: 85.66 % -->
     <g transform="translate(165.868088 310.919444)scale(0.1728 -0.1728)">
      <defs>
       <path d="M 44.28125 53.078125 
L 44.28125 44.578125 
Q 40.484375 46.53125 36.375 47.5 
Q 32.28125 48.484375 27.875 48.484375 
Q 21.1875 48.484375 17.84375 46.4375 
Q 14.5 44.390625 14.5 40.28125 
Q 14.5 37.15625 16.890625 35.375 
Q 19.28125 33.59375 26.515625 31.984375 
L 29.59375 31.296875 
Q 39.15625 29.25 43.1875 25.515625 
Q 47.21875 21.78125 47.21875 15.09375 
Q 47.21875 7.46875 41.1875 3.015625 
Q 35.15625 -1.421875 24.609375 -1.421875 
Q 20.21875 -1.421875 15.453125 -0.5625 
Q 10.6875 0.296875 5.421875 2 
L 5.421875 11.28125 
Q 10.40625 8.6875 15.234375 7.390625 
Q 20.0625 6.109375 24.8125 6.109375 
Q 31.15625 6.109375 34.5625 8.28125 
Q 37.984375 10.453125 37.984375 14.40625 
Q 37.984375 18.0625 35.515625 20.015625 
Q 33.0625 21.96875 24.703125 23.78125 
L 21.578125 24.515625 
Q 13.234375 26.265625 9.515625 29.90625 
Q 5.8125 33.546875 5.8125 39.890625 
Q 5.8125 47.609375 11.28125 51.796875 
Q 16.75 56 26.8125 56 
Q 31.78125 56 36.171875 55.265625 
Q 40.578125 54.546875 44.28125 53.078125 
z
" id="DejaVuSans-115"/>
       <path d="M 18.3125 70.21875 
L 18.3125 54.6875 
L 36.8125 54.6875 
L 36.8125 47.703125 
L 18.3125 47.703125 
L 18.3125 18.015625 
Q 18.3125 11.328125 20.140625 9.421875 
Q 21.96875 7.515625 27.59375 7.515625 
L 36.8125 7.515625 
L 36.8125 0 
L 27.59375 0 
Q 17.1875 0 13.234375 3.875 
Q 9.28125 7.765625 9.28125 18.015625 
L 9.28125 47.703125 
L 2.6875 47.703125 
L 2.6875 54.6875 
L 9.28125 54.6875 
L 9.28125 70.21875 
z
" id="DejaVuSans-116"/>
       <path id="DejaVuSans-32"/>
       <path d="M 19.671875 64.796875 
L 19.671875 37.40625 
L 32.078125 37.40625 
Q 38.96875 37.40625 42.71875 40.96875 
Q 46.484375 44.53125 46.484375 51.125 
Q 46.484375 57.671875 42.71875 61.234375 
Q 38.96875 64.796875 32.078125 64.796875 
z
M 9.8125 72.90625 
L 32.078125 72.90625 
Q 44.34375 72.90625 50.609375 67.359375 
Q 56.890625 61.8125 56.890625 51.125 
Q 56.890625 40.328125 50.609375 34.8125 
Q 44.34375 29.296875 32.078125 29.296875 
L 19.671875 29.296875 
L 19.671875 0 
L 9.8125 0 
z
" id="DejaVuSans-80"/>
       <path d="M 64.40625 67.28125 
L 64.40625 56.890625 
Q 59.421875 61.53125 53.78125 63.8125 
Q 48.140625 66.109375 41.796875 66.109375 
Q 29.296875 66.109375 22.65625 58.46875 
Q 16.015625 50.828125 16.015625 36.375 
Q 16.015625 21.96875 22.65625 14.328125 
Q 29.296875 6.6875 41.796875 6.6875 
Q 48.140625 6.6875 53.78125 8.984375 
Q 59.421875 11.28125 64.40625 15.921875 
L 64.40625 5.609375 
Q 59.234375 2.09375 53.4375 0.328125 
Q 47.65625 -1.421875 41.21875 -1.421875 
Q 24.65625 -1.421875 15.125 8.703125 
Q 5.609375 18.84375 5.609375 36.375 
Q 5.609375 53.953125 15.125 64.078125 
Q 24.65625 74.21875 41.21875 74.21875 
Q 47.75 74.21875 53.53125 72.484375 
Q 59.328125 70.75 64.40625 67.28125 
z
" id="DejaVuSans-67"/>
       <path d="M 11.71875 12.40625 
L 22.015625 12.40625 
L 22.015625 0 
L 11.71875 0 
z
M 11.71875 51.703125 
L 22.015625 51.703125 
L 22.015625 39.3125 
L 11.71875 39.3125 
z
" id="DejaVuSans-58"/>
       <path d="M 10.796875 72.90625 
L 49.515625 72.90625 
L 49.515625 64.59375 
L 19.828125 64.59375 
L 19.828125 46.734375 
Q 21.96875 47.46875 24.109375 47.828125 
Q 26.265625 48.1875 28.421875 48.1875 
Q 40.625 48.1875 47.75 41.5 
Q 54.890625 34.8125 54.890625 23.390625 
Q 54.890625 11.625 47.5625 5.09375 
Q 40.234375 -1.421875 26.90625 -1.421875 
Q 22.3125 -1.421875 17.546875 -0.640625 
Q 12.796875 0.140625 7.71875 1.703125 
L 7.71875 11.625 
Q 12.109375 9.234375 16.796875 8.0625 
Q 21.484375 6.890625 26.703125 6.890625 
Q 35.15625 6.890625 40.078125 11.328125 
Q 45.015625 15.765625 45.015625 23.390625 
Q 45.015625 31 40.078125 35.4375 
Q 35.15625 39.890625 26.703125 39.890625 
Q 22.75 39.890625 18.8125 39.015625 
Q 14.890625 38.140625 10.796875 36.28125 
z
" id="DejaVuSans-53"/>
       <path d="M 10.6875 12.40625 
L 21 12.40625 
L 21 0 
L 10.6875 0 
z
" id="DejaVuSans-46"/>
       <path d="M 72.703125 32.078125 
Q 68.453125 32.078125 66.03125 28.46875 
Q 63.625 24.859375 63.625 18.40625 
Q 63.625 12.0625 66.03125 8.421875 
Q 68.453125 4.78125 72.703125 4.78125 
Q 76.859375 4.78125 79.265625 8.421875 
Q 81.6875 12.0625 81.6875 18.40625 
Q 81.6875 24.8125 79.265625 28.4375 
Q 76.859375 32.078125 72.703125 32.078125 
z
M 72.703125 38.28125 
Q 80.421875 38.28125 84.953125 32.90625 
Q 89.5 27.546875 89.5 18.40625 
Q 89.5 9.28125 84.9375 3.921875 
Q 80.375 -1.421875 72.703125 -1.421875 
Q 64.890625 -1.421875 60.34375 3.921875 
Q 55.8125 9.28125 55.8125 18.40625 
Q 55.8125 27.59375 60.375 32.9375 
Q 64.9375 38.28125 72.703125 38.28125 
z
M 22.3125 68.015625 
Q 18.109375 68.015625 15.6875 64.375 
Q 13.28125 60.75 13.28125 54.390625 
Q 13.28125 47.953125 15.671875 44.328125 
Q 18.0625 40.71875 22.3125 40.71875 
Q 26.5625 40.71875 28.96875 44.328125 
Q 31.390625 47.953125 31.390625 54.390625 
Q 31.390625 60.6875 28.953125 64.34375 
Q 26.515625 68.015625 22.3125 68.015625 
z
M 66.40625 74.21875 
L 74.21875 74.21875 
L 28.609375 -1.421875 
L 20.796875 -1.421875 
z
M 22.3125 74.21875 
Q 30.03125 74.21875 34.609375 68.875 
Q 39.203125 63.53125 39.203125 54.390625 
Q 39.203125 45.171875 34.640625 39.84375 
Q 30.078125 34.515625 22.3125 34.515625 
Q 14.546875 34.515625 10.03125 39.859375 
Q 5.515625 45.21875 5.515625 54.390625 
Q 5.515625 63.484375 10.046875 68.84375 
Q 14.59375 74.21875 22.3125 74.21875 
z
" id="DejaVuSans-37"/>
      </defs>
      <use xlink:href="#DejaVuSans-49"/>
      <use x="63.623047" xlink:href="#DejaVuSans-115"/>
      <use x="115.722656" xlink:href="#DejaVuSans-116"/>
      <use x="154.931641" xlink:href="#DejaVuSans-32"/>
      <use x="186.71875" xlink:href="#DejaVuSans-80"/>
      <use x="247.021484" xlink:href="#DejaVuSans-67"/>
      <use x="316.845703" xlink:href="#DejaVuSans-58"/>
      <use x="350.537109" xlink:href="#DejaVuSans-32"/>
      <use x="382.324219" xlink:href="#DejaVuSans-56"/>
      <use x="445.947266" xlink:href="#DejaVuSans-53"/>
      <use x="509.570312" xlink:href="#DejaVuSans-46"/>
      <use x="541.357422" xlink:href="#DejaVuSans-54"/>
      <use x="604.980469" xlink:href="#DejaVuSans-54"/>
      <use x="668.603516" xlink:href="#DejaVuSans-32"/>
      <use x="700.390625" xlink:href="#DejaVuSans-37"/>
     </g>
    </g>
   </g>
   <g id="matplotlib.axis_2">
    <g id="ytick_1">
     <g id="line2d_10">
      <defs>
       <path d="M 0 0 
L -3.5 0 
" id="m5ed431539f" style="stroke:#000000;stroke-width:0.8;"/>
      </defs>
      <g>
       <use style="stroke:#000000;stroke-width:0.8;" x="56.028488" xlink:href="#m5ed431539f" y="277.111219"/>
      </g>
     </g>
     <g id="text_11">
      <!-- −20 -->
      <g transform="translate(27.9238 280.910437)scale(0.1 -0.1)">
       <use xlink:href="#DejaVuSans-8722"/>
       <use x="83.789062" xlink:href="#DejaVuSans-50"/>
       <use x="147.412109" xlink:href="#DejaVuSans-48"/>
      </g>
     </g>
    </g>
    <g id="ytick_2">
     <g id="line2d_11">
      <g>
       <use style="stroke:#000000;stroke-width:0.8;" x="56.028488" xlink:href="#m5ed431539f" y="243.847219"/>
      </g>
     </g>
     <g id="text_12">
      <!-- −15 -->
      <g transform="translate(27.9238 247.646437)scale(0.1 -0.1)">
       <use xlink:href="#DejaVuSans-8722"/>
       <use x="83.789062" xlink:href="#DejaVuSans-49"/>
       <use x="147.412109" xlink:href="#DejaVuSans-53"/>
      </g>
     </g>
    </g>
    <g id="ytick_3">
     <g id="line2d_12">
      <g>
       <use style="stroke:#000000;stroke-width:0.8;" x="56.028488" xlink:href="#m5ed431539f" y="210.583219"/>
      </g>
     </g>
     <g id="text_13">
      <!-- −10 -->
      <g transform="translate(27.9238 214.382437)scale(0.1 -0.1)">
       <use xlink:href="#DejaVuSans-8722"/>
       <use x="83.789062" xlink:href="#DejaVuSans-49"/>
       <use x="147.412109" xlink:href="#DejaVuSans-48"/>
      </g>
     </g>
    </g>
    <g id="ytick_4">
     <g id="line2d_13">
      <g>
       <use style="stroke:#000000;stroke-width:0.8;" x="56.028488" xlink:href="#m5ed431539f" y="177.319219"/>
      </g>
     </g>
     <g id="text_14">
      <!-- −5 -->
      <g transform="translate(34.2863 181.118437)scale(0.1 -0.1)">
       <use xlink:href="#DejaVuSans-8722"/>
       <use x="83.789062" xlink:href="#DejaVuSans-53"/>
      </g>
     </g>
    </g>
    <g id="ytick_5">
     <g id="line2d_14">
      <g>
       <use style="stroke:#000000;stroke-width:0.8;" x="56.028488" xlink:href="#m5ed431539f" y="144.055219"/>
      </g>
     </g>
     <g id="text_15">
      <!-- 0 -->
      <g transform="translate(42.665987 147.854437)scale(0.1 -0.1)">
       <use xlink:href="#DejaVuSans-48"/>
      </g>
     </g>
    </g>
    <g id="ytick_6">
     <g id="line2d_15">
      <g>
       <use style="stroke:#000000;stroke-width:0.8;" x="56.028488" xlink:href="#m5ed431539f" y="110.791219"/>
      </g>
     </g>
     <g id="text_16">
      <!-- 5 -->
      <g transform="translate(42.665987 114.590437)scale(0.1 -0.1)">
       <use xlink:href="#DejaVuSans-53"/>
      </g>
     </g>
    </g>
    <g id="ytick_7">
     <g id="line2d_16">
      <g>
       <use style="stroke:#000000;stroke-width:0.8;" x="56.028488" xlink:href="#m5ed431539f" y="77.527219"/>
      </g>
     </g>
     <g id="text_17">
      <!-- 10 -->
      <g transform="translate(36.303488 81.326437)scale(0.1 -0.1)">
       <use xlink:href="#DejaVuSans-49"/>
       <use x="63.623047" xlink:href="#DejaVuSans-48"/>
      </g>
     </g>
    </g>
    <g id="ytick_8">
     <g id="line2d_17">
      <g>
       <use style="stroke:#000000;stroke-width:0.8;" x="56.028488" xlink:href="#m5ed431539f" y="44.263219"/>
      </g>
     </g>
     <g id="text_18">
      <!-- 15 -->
      <g transform="translate(36.303488 48.062437)scale(0.1 -0.1)">
       <use xlink:href="#DejaVuSans-49"/>
       <use x="63.623047" xlink:href="#DejaVuSans-53"/>
      </g>
     </g>
    </g>
    <g id="ytick_9">
     <g id="line2d_18">
      <g>
       <use style="stroke:#000000;stroke-width:0.8;" x="56.028488" xlink:href="#m5ed431539f" y="10.999219"/>
      </g>
     </g>
     <g id="text_19">
      <!-- 20 -->
      <g transform="translate(36.303488 14.798437)scale(0.1 -0.1)">
       <use xlink:href="#DejaVuSans-50"/>
       <use x="63.623047" xlink:href="#DejaVuSans-48"/>
      </g>
     </g>
    </g>
    <g id="text_20">
     <!-- 2nd PC: 9.18 % -->
     <g transform="translate(20.3301 210.351019)rotate(-90)scale(0.1728 -0.1728)">
      <defs>
       <path d="M 54.890625 33.015625 
L 54.890625 0 
L 45.90625 0 
L 45.90625 32.71875 
Q 45.90625 40.484375 42.875 44.328125 
Q 39.84375 48.1875 33.796875 48.1875 
Q 26.515625 48.1875 22.3125 43.546875 
Q 18.109375 38.921875 18.109375 30.90625 
L 18.109375 0 
L 9.078125 0 
L 9.078125 54.6875 
L 18.109375 54.6875 
L 18.109375 46.1875 
Q 21.34375 51.125 25.703125 53.5625 
Q 30.078125 56 35.796875 56 
Q 45.21875 56 50.046875 50.171875 
Q 54.890625 44.34375 54.890625 33.015625 
z
" id="DejaVuSans-110"/>
       <path d="M 45.40625 46.390625 
L 45.40625 75.984375 
L 54.390625 75.984375 
L 54.390625 0 
L 45.40625 0 
L 45.40625 8.203125 
Q 42.578125 3.328125 38.25 0.953125 
Q 33.9375 -1.421875 27.875 -1.421875 
Q 17.96875 -1.421875 11.734375 6.484375 
Q 5.515625 14.40625 5.515625 27.296875 
Q 5.515625 40.1875 11.734375 48.09375 
Q 17.96875 56 27.875 56 
Q 33.9375 56 38.25 53.625 
Q 42.578125 51.265625 45.40625 46.390625 
z
M 14.796875 27.296875 
Q 14.796875 17.390625 18.875 11.75 
Q 22.953125 6.109375 30.078125 6.109375 
Q 37.203125 6.109375 41.296875 11.75 
Q 45.40625 17.390625 45.40625 27.296875 
Q 45.40625 37.203125 41.296875 42.84375 
Q 37.203125 48.484375 30.078125 48.484375 
Q 22.953125 48.484375 18.875 42.84375 
Q 14.796875 37.203125 14.796875 27.296875 
z
" id="DejaVuSans-100"/>
       <path d="M 10.984375 1.515625 
L 10.984375 10.5 
Q 14.703125 8.734375 18.5 7.8125 
Q 22.3125 6.890625 25.984375 6.890625 
Q 35.75 6.890625 40.890625 13.453125 
Q 46.046875 20.015625 46.78125 33.40625 
Q 43.953125 29.203125 39.59375 26.953125 
Q 35.25 24.703125 29.984375 24.703125 
Q 19.046875 24.703125 12.671875 31.3125 
Q 6.296875 37.9375 6.296875 49.421875 
Q 6.296875 60.640625 12.9375 67.421875 
Q 19.578125 74.21875 30.609375 74.21875 
Q 43.265625 74.21875 49.921875 64.515625 
Q 56.59375 54.828125 56.59375 36.375 
Q 56.59375 19.140625 48.40625 8.859375 
Q 40.234375 -1.421875 26.421875 -1.421875 
Q 22.703125 -1.421875 18.890625 -0.6875 
Q 15.09375 0.046875 10.984375 1.515625 
z
M 30.609375 32.421875 
Q 37.25 32.421875 41.125 36.953125 
Q 45.015625 41.5 45.015625 49.421875 
Q 45.015625 57.28125 41.125 61.84375 
Q 37.25 66.40625 30.609375 66.40625 
Q 23.96875 66.40625 20.09375 61.84375 
Q 16.21875 57.28125 16.21875 49.421875 
Q 16.21875 41.5 20.09375 36.953125 
Q 23.96875 32.421875 30.609375 32.421875 
z
" id="DejaVuSans-57"/>
      </defs>
      <use xlink:href="#DejaVuSans-50"/>
      <use x="63.623047" xlink:href="#DejaVuSans-110"/>
      <use x="127.001953" xlink:href="#DejaVuSans-100"/>
      <use x="190.478516" xlink:href="#DejaVuSans-32"/>
      <use x="222.265625" xlink:href="#DejaVuSans-80"/>
      <use x="282.568359" xlink:href="#DejaVuSans-67"/>
      <use x="352.392578" xlink:href="#DejaVuSans-58"/>
      <use x="386.083984" xlink:href="#DejaVuSans-32"/>
      <use x="417.871094" xlink:href="#DejaVuSans-57"/>
      <use x="481.494141" xlink:href="#DejaVuSans-46"/>
      <use x="513.28125" xlink:href="#DejaVuSans-49"/>
      <use x="576.904297" xlink:href="#DejaVuSans-56"/>
      <use x="640.527344" xlink:href="#DejaVuSans-32"/>
      <use x="672.314453" xlink:href="#DejaVuSans-37"/>
     </g>
    </g>
   </g>
   <g id="LineCollection_1"/>
   <g id="LineCollection_2"/>
   <g id="LineCollection_3"/>
   <g id="LineCollection_4"/>
   <g id="LineCollection_5"/>
   <g id="LineCollection_6">
    <path clip-path="url(#pa8e0acdd2e)" d="M 81.624602 90.863942 
L 81.636181 90.832819 
L 84.388017 83.630375 
L 85.289086 81.962419 
L 87.539076 77.753533 
L 90.690135 73.946995 
L 91.598385 73.092019 
L 93.841193 71.093492 
L 96.992252 68.95632 
L 100.143311 67.234164 
L 103.29437 65.668707 
L 106.235267 64.221619 
L 106.445429 64.137619 
L 109.596488 62.768601 
L 112.747546 61.627084 
L 115.898605 60.851481 
L 119.049664 60.626848 
L 122.200723 61.129013 
L 125.351782 62.371515 
L 128.50284 64.120905 
L 128.577492 64.221619 
L 129.869077 73.092019 
L 128.791832 81.962419 
L 128.50284 83.38094 
L 125.944048 90.832819 
L 125.351782 91.802779 
L 122.200723 99.464665 
L 122.117275 99.703219 
L 119.049664 105.312879 
L 117.896886 108.573619 
L 115.898605 113.743957 
L 114.564143 117.444019 
L 112.747546 121.877339 
L 110.994724 126.314419 
L 109.596488 129.342634 
L 107.164268 135.184819 
L 106.445429 136.706491 
L 103.313885 144.055219 
L 103.29437 144.093157 
L 100.143311 146.039145 
L 96.992252 145.368415 
L 93.841193 146.847624 
L 90.690135 149.307541 
L 87.641271 152.925619 
L 87.539076 153.040966 
L 84.388017 156.796908 
L 81.236958 161.304574 
L 80.890222 161.796019 
L 78.085899 165.18712 
L 74.93484 169.323216 
L 73.704181 170.666419 
L 71.783782 172.186572 
L 68.632723 173.090763 
L 66.39049 170.666419 
L 66.619228 161.796019 
L 68.022032 152.925619 
L 68.632723 149.664293 
L 69.77114 144.055219 
L 71.437391 135.184819 
L 71.783782 133.230397 
L 73.155217 126.314419 
L 74.87132 117.444019 
L 74.93484 117.102899 
L 75.342067 115.251043 
" style="fill:none;stroke:#39558c;stroke-width:1.5;"/>
   </g>
   <g id="LineCollection_7">
    <path clip-path="url(#pa8e0acdd2e)" d="M 90.372359 10.999219 
L 90.690135 11.401816 
L 93.841193 15.496805 
L 96.992252 19.061938 
L 97.738103 19.869619 
L 100.143311 23.221538 
L 103.29437 27.010239 
L 104.938358 28.740019 
L 106.445429 30.605864 
L 109.596488 33.971294 
L 112.747546 36.62354 
L 114.07475 37.610419 
L 115.898605 39.01324 
L 119.049664 41.223583 
L 122.200723 43.36887 
L 125.351782 45.760285 
L 126.073038 46.480819 
L 128.50284 48.943002 
L 131.653899 52.877811 
L 132.146736 55.351219 
L 132.343992 64.221619 
L 131.853919 73.092019 
L 131.653899 75.324466 
L 129.823421 81.962419 
L 128.50284 88.444513 
L 127.682755 90.832819 
L 125.351782 94.650275 
L 123.32308 99.703219 
L 122.200723 101.618662 
L 119.509918 108.573619 
L 119.049664 109.614086 
L 116.217064 117.444019 
L 115.898605 118.263403 
L 112.945838 126.314419 
L 112.747546 126.806095 
L 111.448504 130.224374 
" style="fill:none;stroke:#33638d;stroke-width:1.5;"/>
    <path clip-path="url(#pa8e0acdd2e)" d="M 101.125811 153.186174 
L 100.143311 154.564118 
L 97.08388 161.796019 
L 96.992252 161.912986 
L 93.841193 165.044242 
L 91.236236 170.666419 
L 90.690135 171.268601 
L 87.539076 174.783354 
L 84.752917 179.536819 
L 84.388017 179.847416 
L 81.236958 182.580074 
L 78.085899 187.173502 
L 77.196965 188.407219 
L 74.93484 190.291762 
L 71.783782 193.139522 
L 68.632723 195.85049 
L 66.847023 197.277619 
L 65.481664 197.935691 
L 62.330605 199.142965 
L 59.179546 200.027574 
L 56.028488 200.373314 
" style="fill:none;stroke:#33638d;stroke-width:1.5;"/>
   </g>
   <g id="LineCollection_8">
    <path clip-path="url(#pa8e0acdd2e)" d="M 103.999321 10.999219 
L 106.445429 14.112899 
L 109.596488 17.566833 
L 112.054216 19.869619 
L 112.747546 20.697493 
L 115.898605 24.16888 
L 119.049664 27.10676 
L 120.892577 28.740019 
L 122.200723 30.092079 
L 125.351782 33.548579 
L 128.50284 37.385513 
L 128.634751 37.610419 
L 131.653899 42.587029 
L 132.867158 46.480819 
L 134.308848 55.351219 
L 133.253086 64.221619 
L 132.18909 73.092019 
L 131.653899 79.065367 
L 130.85501 81.962419 
L 128.631994 90.832819 
L 128.50284 91.203207 
L 125.351782 97.49777 
L 124.466318 99.703219 
L 122.200723 103.569741 
L 120.264771 108.573619 
L 119.049664 111.320537 
L 116.834399 117.444019 
L 115.898605 119.851783 
L 113.528388 126.314419 
L 112.747546 128.250566 
L 110.132902 135.184819 
L 109.596488 136.472094 
L 106.718775 144.055219 
L 106.445429 144.697316 
L 104.009521 150.72629 
" style="fill:none;stroke:#2d718e;stroke-width:1.5;"/>
    <path clip-path="url(#pa8e0acdd2e)" d="M 91.864242 172.58509 
L 90.690135 173.879771 
L 88.156197 179.536819 
L 87.539076 180.298279 
L 84.388017 184.867915 
L 82.482448 188.407219 
L 81.236958 189.355381 
L 78.085899 193.229888 
L 75.72048 197.277619 
L 74.93484 197.786552 
L 71.783782 200.547738 
L 68.632723 204.090855 
L 65.774513 206.148019 
L 65.481664 206.265364 
L 62.330605 207.52284 
L 59.179546 208.719508 
L 56.028488 209.706957 
" style="fill:none;stroke:#2d718e;stroke-width:1.5;"/>
   </g>
   <g id="LineCollection_9">
    <path clip-path="url(#pa8e0acdd2e)" d="M 112.774815 10.999219 
L 115.898605 14.518514 
L 119.049664 17.499415 
L 121.867961 19.869619 
L 122.200723 20.231418 
L 125.351782 23.870293 
L 128.50284 27.833203 
L 129.038024 28.740019 
L 131.653899 33.61908 
L 132.911336 37.610419 
L 134.550222 42.793891 
" style="fill:none;stroke:#287d8e;stroke-width:1.5;"/>
    <path clip-path="url(#pa8e0acdd2e)" d="M 133.494283 67.838722 
L 132.524262 73.092019 
L 131.681483 81.962419 
L 131.653899 82.135099 
L 128.876447 90.832819 
L 128.50284 91.904255 
L 125.414379 99.703219 
L 125.351782 99.823193 
L 122.200723 105.520819 
L 121.019624 108.573619 
L 119.049664 113.026987 
L 117.451734 117.444019 
L 115.898605 121.440164 
L 114.110938 126.314419 
L 112.747546 129.695036 
L 110.677557 135.184819 
L 109.596488 137.779147 
L 107.214787 144.055219 
L 106.445429 145.862461 
L 103.700857 152.925619 
L 103.29437 153.545142 
L 100.143311 159.610177 
L 99.218598 161.796019 
L 96.992252 164.638061 
L 94.373796 170.666419 
L 93.841193 171.358853 
L 90.690135 176.49094 
L 89.325807 179.536819 
L 87.539076 181.741451 
L 84.577207 188.407219 
L 84.388017 188.633926 
L 81.236958 191.413149 
L 78.318191 197.277619 
L 78.085899 197.445077 
L 74.93484 199.768354 
L 71.783782 205.466669 
L 71.280554 206.148019 
L 68.632723 207.405351 
L 65.481664 210.488865 
L 62.330605 213.118012 
L 59.179546 214.569376 
L 58.12148 215.018419 
L 56.028488 215.613763 
" style="fill:none;stroke:#287d8e;stroke-width:1.5;"/>
   </g>
   <g id="LineCollection_10">
    <path clip-path="url(#pa8e0acdd2e)" d="M 119.812623 10.999219 
L 122.200723 13.486588 
L 125.351782 16.686505 
L 128.262986 19.869619 
L 128.50284 20.205833 
L 131.653899 26.046522 
L 132.584904 28.740019 
L 134.804958 35.646135 
L 134.986588 37.610419 
L 135.345018 46.480819 
L 135.185045 55.351219 
L 134.840114 64.221619 
L 134.804958 64.647786 
L 132.859434 73.092019 
L 131.803768 81.962419 
L 131.653899 82.900616 
L 129.120901 90.832819 
L 128.50284 92.605303 
L 125.692001 99.703219 
L 125.351782 100.355281 
L 122.200723 107.471898 
L 121.774478 108.573619 
L 119.049664 114.733438 
L 118.069069 117.444019 
L 115.898605 123.028545 
L 114.693488 126.314419 
L 112.747546 131.139507 
L 111.222212 135.184819 
L 109.596488 139.086199 
L 107.710799 144.055219 
L 106.445429 147.027606 
L 104.153604 152.925619 
L 103.29437 154.235169 
L 100.330309 161.434071 
" style="fill:none;stroke:#238a8d;stroke-width:1.5;"/>
    <path clip-path="url(#pa8e0acdd2e)" d="M 87.680341 183.010316 
L 87.539076 183.184622 
L 85.218466 188.407219 
L 84.388017 189.402347 
L 81.236958 193.470916 
L 79.342349 197.277619 
L 78.085899 198.18339 
L 74.93484 201.750156 
L 72.664967 206.148019 
L 71.783782 206.650652 
L 68.632723 209.130494 
L 65.481664 214.712366 
L 65.170072 215.018419 
L 62.330605 215.815314 
L 59.179546 217.690646 
L 56.028488 219.534535 
" style="fill:none;stroke:#238a8d;stroke-width:1.5;"/>
   </g>
   <g id="LineCollection_11">
    <path clip-path="url(#pa8e0acdd2e)" d="M 125.526622 10.999219 
L 128.50284 14.900304 
L 131.653899 19.703059 
L 131.721841 19.869619 
L 134.804958 28.734435 
L 134.805665 28.740019 
L 135.625891 37.610419 
L 135.746729 46.480819 
L 135.399718 55.351219 
L 134.960121 64.221619 
L 134.804958 66.102544 
L 134.011694 69.545578 
" style="fill:none;stroke:#1f968b;stroke-width:1.5;"/>
    <path clip-path="url(#pa8e0acdd2e)" d="M 128.233374 93.986807 
L 125.969622 99.703219 
L 125.351782 100.887368 
L 122.292905 108.573619 
L 122.200723 108.774962 
L 119.049664 116.439888 
L 118.686404 117.444019 
L 115.898605 124.616926 
L 115.276037 126.314419 
L 112.747546 132.583978 
L 111.766868 135.184819 
L 109.596488 140.393251 
L 108.206811 144.055219 
L 106.445429 148.192751 
L 104.606351 152.925619 
L 103.29437 154.925197 
L 100.465391 161.796019 
L 100.143311 162.289076 
L 96.992252 167.363136 
L 95.55745 170.666419 
L 93.841193 172.897716 
L 90.967712 179.536819 
L 90.690135 179.921812 
L 87.539076 184.627793 
L 85.859725 188.407219 
L 84.388017 190.170768 
L 81.236958 195.528684 
L 80.366507 197.277619 
L 78.085899 198.921703 
L 74.93484 203.731957 
L 73.687837 206.148019 
L 71.783782 207.234102 
L 68.632723 210.855637 
L 66.356588 215.018419 
L 65.481664 215.395267 
L 62.330605 217.022092 
L 59.179546 220.585052 
L 56.028487 223.455308 
" style="fill:none;stroke:#1f968b;stroke-width:1.5;"/>
   </g>
   <g id="LineCollection_12">
    <path clip-path="url(#pa8e0acdd2e)" d="M 129.104456 10.999219 
L 131.653899 15.47295 
L 133.447344 19.869619 
L 134.804958 23.773136 
L 135.43363 28.740019 
L 136.265193 37.610419 
L 136.148439 46.480819 
L 135.614391 55.351219 
L 135.080128 64.221619 
L 134.804958 67.557303 
L 133.529777 73.092019 
L 132.048337 81.962419 
L 131.653899 84.43165 
L 129.609807 90.832819 
L 128.50284 94.007399 
L 126.247243 99.703219 
L 125.351782 101.419456 
L 122.504658 108.573619 
L 122.200723 109.237472 
L 119.121097 117.444019 
L 119.049664 117.62073 
L 115.898605 126.205306 
L 115.858587 126.314419 
L 112.747546 134.028448 
L 112.311523 135.184819 
L 109.596488 141.700303 
L 108.702823 144.055219 
L 106.445429 149.357896 
L 105.059098 152.925619 
L 103.29437 155.615224 
L 100.749502 161.796019 
L 100.143311 162.724007 
L 96.992252 168.725673 
L 96.149277 170.666419 
L 93.841193 173.667147 
L 93.308239 174.898524 
" style="fill:none;stroke:#20a386;stroke-width:1.5;"/>
    <path clip-path="url(#pa8e0acdd2e)" d="M 81.428357 197.000936 
L 81.293266 197.277619 
L 81.236958 197.326214 
L 78.085899 199.660015 
L 74.93484 205.713759 
L 74.710706 206.148019 
L 71.783782 207.817552 
L 68.632723 212.58078 
L 67.299865 215.018419 
L 65.481664 215.801556 
L 62.330605 218.228871 
L 59.179546 223.479457 
L 58.747229 223.888819 
L 56.028488 224.429698 
" style="fill:none;stroke:#20a386;stroke-width:1.5;"/>
   </g>
   <g id="LineCollection_13">
    <path clip-path="url(#pa8e0acdd2e)" d="M 131.515066 10.999219 
L 131.653899 11.242842 
L 134.804958 19.211507 
L 134.919414 19.869619 
L 136.061595 28.740019 
L 136.904495 37.610419 
L 136.55015 46.480819 
L 135.829063 55.351219 
L 135.200135 64.221619 
L 134.804958 69.012061 
L 133.864949 73.092019 
L 132.170621 81.962419 
L 131.653899 85.197167 
L 129.854261 90.832819 
L 128.50284 94.708447 
L 126.524865 99.703219 
L 125.351782 101.951544 
L 122.716412 108.573619 
L 122.200723 109.699981 
L 119.294661 117.444019 
L 119.049664 118.050092 
L 116.044032 126.314419 
L 115.898605 126.702519 
L 112.778123 135.184819 
L 112.747546 135.268014 
L 109.596488 143.007355 
L 109.198835 144.055219 
L 106.445429 150.523041 
L 105.511845 152.925619 
L 103.29437 156.305251 
L 101.033612 161.796019 
L 100.143311 163.158938 
L 96.992252 170.088211 
L 96.741104 170.666419 
L 93.841193 174.436579 
L 93.068048 176.222912 
" style="fill:none;stroke:#29af7f;stroke-width:1.5;"/>
    <path clip-path="url(#pa8e0acdd2e)" d="M 80.818212 198.015235 
L 78.085899 200.398328 
L 75.222008 206.148019 
L 74.93484 206.332954 
L 71.783782 208.401002 
L 68.632723 214.305923 
L 68.243143 215.018419 
L 65.481664 216.207846 
L 62.330605 219.43565 
L 59.77431 223.888819 
L 59.179546 224.0923 
L 56.028488 225.037815 
" style="fill:none;stroke:#29af7f;stroke-width:1.5;"/>
   </g>
   <g id="LineCollection_14">
    <path clip-path="url(#pa8e0acdd2e)" d="M 132.794765 10.999219 
L 134.804958 16.124775 
L 135.456245 19.869619 
L 136.689559 28.740019 
L 137.543798 37.610419 
L 136.95186 46.480819 
L 136.043736 55.351219 
L 135.320142 64.221619 
L 134.804958 70.466819 
L 134.20012 73.092019 
L 132.292905 81.962419 
L 131.653899 85.962685 
L 130.098714 90.832819 
L 128.50284 95.409495 
L 126.802486 99.703219 
L 125.351782 102.483631 
L 122.928166 108.573619 
L 122.200723 110.162491 
L 119.468224 117.444019 
L 119.049664 118.479454 
L 116.200185 126.314419 
L 115.898605 127.119246 
L 112.93143 135.184819 
L 112.747546 135.685138 
L 109.627322 144.055219 
L 109.596488 144.13314 
L 106.445429 151.688186 
L 105.964592 152.925619 
L 103.29437 156.995278 
L 101.317723 161.796019 
L 100.143311 163.59387 
L 97.099984 170.666419 
L 96.992252 170.814942 
L 93.841193 175.20601 
L 92.980449 177.194737 
" style="fill:none;stroke:#3dbc74;stroke-width:1.5;"/>
    <path clip-path="url(#pa8e0acdd2e)" d="M 80.442394 198.771339 
L 78.085899 201.136641 
L 75.589757 206.148019 
L 74.93484 206.569785 
L 71.783782 208.984453 
L 68.801967 215.018419 
L 68.632723 215.112581 
L 65.481664 216.614136 
L 62.330605 220.642428 
L 60.467048 223.888819 
L 59.179546 224.329301 
L 56.028488 225.645932 
" style="fill:none;stroke:#3dbc74;stroke-width:1.5;"/>
   </g>
   <g id="LineCollection_15">
    <path clip-path="url(#pa8e0acdd2e)" d="M 134.005351 10.999219 
L 134.804958 13.038043 
L 135.993075 19.869619 
L 137.317524 28.740019 
L 137.956017 35.313859 
L 138.006987 37.610419 
L 137.956017 39.309055 
L 137.353571 46.480819 
L 136.258409 55.351219 
L 135.440149 64.221619 
L 134.804958 71.921577 
L 134.535292 73.092019 
L 132.41519 81.962419 
L 131.653899 86.728202 
L 130.343168 90.832819 
L 128.50284 96.110543 
L 127.080108 99.703219 
L 125.351782 103.015719 
L 123.139919 108.573619 
L 122.200723 110.625001 
L 119.641787 117.444019 
L 119.049664 118.908816 
L 116.356339 126.314419 
L 115.898605 127.535973 
L 113.084736 135.184819 
L 112.747546 136.102262 
L 109.782819 144.055219 
L 109.596488 144.526086 
L 106.445429 152.853331 
L 106.417339 152.925619 
L 103.29437 157.685306 
L 101.601833 161.796019 
L 100.143311 164.028801 
L 97.287135 170.666419 
L 97.073996 170.960262 
" style="fill:none;stroke:#56c667;stroke-width:1.5;"/>
    <path clip-path="url(#pa8e0acdd2e)" d="M 84.71216 192.785221 
L 84.388017 193.244452 
L 82.418815 197.277619 
L 81.236958 198.2976 
L 78.085899 201.874954 
L 75.957507 206.148019 
L 74.93484 206.806616 
L 71.783782 209.567903 
L 69.090292 215.018419 
L 68.632723 215.272996 
L 65.481664 217.020425 
L 62.330605 221.849207 
L 61.159787 223.888819 
L 59.179546 224.566302 
L 56.028488 226.254049 
" style="fill:none;stroke:#56c667;stroke-width:1.5;"/>
   </g>
   <g id="LineCollection_16">
    <path clip-path="url(#pa8e0acdd2e)" d="M 134.953007 10.999219 
L 136.529906 19.869619 
L 137.945489 28.740019 
L 137.956017 28.848413 
L 138.150481 37.610419 
L 137.956017 44.091184 
L 137.755282 46.480819 
L 136.473081 55.351219 
L 135.560156 64.221619 
L 134.817036 73.092019 
L 134.804958 73.184537 
L 132.537474 81.962419 
L 131.653899 87.493719 
L 130.587621 90.832819 
L 128.50284 96.81159 
L 127.357729 99.703219 
L 125.351782 103.547807 
L 123.351673 108.573619 
L 122.200723 111.08751 
L 119.815351 117.444019 
L 119.049664 119.338178 
L 116.512492 126.314419 
L 115.898605 127.9527 
L 113.238042 135.184819 
L 112.747546 136.519386 
L 109.938316 144.055219 
L 109.596488 144.919032 
L 106.584098 152.925619 
L 106.445429 153.140951 
L 103.29437 158.375333 
L 101.885943 161.796019 
L 100.143311 164.463732 
L 97.474287 170.666419 
L 96.992252 171.330973 
L 93.841193 176.744873 
L 93.644874 177.198465 
" style="fill:none;stroke:#75d054;stroke-width:1.5;"/>
    <path clip-path="url(#pa8e0acdd2e)" d="M 81.093564 198.803051 
L 78.085899 202.613267 
L 76.325257 206.148019 
L 74.93484 207.043447 
L 71.783782 210.151353 
L 69.378616 215.018419 
L 68.632723 215.433411 
L 65.481664 217.426715 
L 62.330605 223.055986 
L 61.852526 223.888819 
L 59.179546 224.803303 
L 56.028488 226.862166 
" style="fill:none;stroke:#75d054;stroke-width:1.5;"/>
   </g>
   <g id="LineCollection_17">
    <path clip-path="url(#pa8e0acdd2e)" d="M 135.389103 10.999219 
L 137.066737 19.869619 
L 137.956017 25.436064 
L 138.108442 28.740019 
L 138.293975 37.610419 
L 138.003399 46.480819 
L 137.956017 47.173347 
L 136.687754 55.351219 
L 135.680163 64.221619 
L 134.878835 73.092019 
L 134.804958 73.657924 
L 132.659758 81.962419 
L 131.653899 88.259236 
L 130.832074 90.832819 
L 128.50284 97.512638 
L 127.63535 99.703219 
L 125.351782 104.079895 
L 123.563426 108.573619 
L 122.200723 111.55002 
L 119.988914 117.444019 
L 119.049664 119.76754 
L 116.668646 126.314419 
L 115.898605 128.369428 
L 113.391348 135.184819 
L 112.747546 136.93651 
L 110.093813 144.055219 
L 109.596488 145.311978 
L 106.73194 152.925619 
L 106.445429 153.370527 
L 103.29437 159.06536 
L 102.170054 161.796019 
L 100.143311 164.898663 
L 97.661438 170.666419 
L 96.992252 171.588988 
L 93.971759 177.268787 
" style="fill:none;stroke:#95d840;stroke-width:1.5;"/>
    <path clip-path="url(#pa8e0acdd2e)" d="M 81.366784 198.833146 
L 81.236958 198.945191 
L 78.085899 203.351579 
L 76.693007 206.148019 
L 74.93484 207.280278 
L 71.783782 210.734803 
L 69.666941 215.018419 
L 68.632723 215.593826 
L 65.481664 217.833004 
L 62.39478 223.888819 
L 62.330605 223.920164 
L 59.179546 225.040305 
L 56.028488 227.470283 
" style="fill:none;stroke:#95d840;stroke-width:1.5;"/>
   </g>
   <g id="LineCollection_18">
    <path clip-path="url(#pa8e0acdd2e)" d="M 135.825199 10.999219 
L 137.603568 19.869619 
L 137.956017 22.075774 
L 138.263466 28.740019 
L 138.437469 37.610419 
L 138.098106 46.480819 
L 137.956017 48.557575 
L 136.902427 55.351219 
L 135.80017 64.221619 
L 134.940634 73.092019 
L 134.804958 74.131311 
L 132.782043 81.962419 
L 131.653899 89.024753 
L 131.076528 90.832819 
L 128.50284 98.213686 
L 127.912972 99.703219 
L 125.351782 104.611982 
L 123.77518 108.573619 
L 122.200723 112.01253 
L 120.162478 117.444019 
L 119.049664 120.196901 
L 116.8248 126.314419 
L 115.898605 128.786155 
L 113.544654 135.184819 
L 112.747546 137.353633 
L 110.249309 144.055219 
L 109.596488 145.704924 
L 106.879781 152.925619 
L 106.445429 153.600103 
L 103.29437 159.755387 
L 102.454164 161.796019 
L 100.143311 165.333594 
L 97.84859 170.666419 
L 96.992252 171.847003 
L 94.30304 177.340313 
" style="fill:none;stroke:#bade28;stroke-width:1.5;"/>
    <path clip-path="url(#pa8e0acdd2e)" d="M 81.679297 198.887233 
L 81.236958 199.268986 
L 78.085899 204.089892 
L 77.060757 206.148019 
L 74.93484 207.517109 
L 71.783782 211.318253 
L 69.955265 215.018419 
L 68.632723 215.754241 
L 65.481664 218.239294 
L 62.601881 223.888819 
L 62.330605 224.021319 
L 59.179546 225.277306 
L 56.028488 228.0784 
" style="fill:none;stroke:#bade28;stroke-width:1.5;"/>
   </g>
   <g id="LineCollection_19">
    <path clip-path="url(#pa8e0acdd2e)" d="M 136.261295 10.999219 
L 137.956017 19.149299 
L 138.000701 19.869619 
L 138.41849 28.740019 
L 138.580963 37.610419 
L 138.192813 46.480819 
L 137.956017 49.941803 
L 137.117099 55.351219 
L 135.920177 64.221619 
L 135.002433 73.092019 
L 134.804958 74.604698 
L 132.904327 81.962419 
L 131.653899 89.79027 
L 131.320981 90.832819 
L 128.50284 98.914734 
L 128.190593 99.703219 
L 125.351782 105.14407 
L 123.986933 108.573619 
L 122.200723 112.475039 
L 120.336041 117.444019 
L 119.049664 120.626263 
L 116.980953 126.314419 
L 115.898605 129.202882 
L 113.697961 135.184819 
L 112.747546 137.770757 
L 110.404806 144.055219 
L 109.596488 146.09787 
L 107.027623 152.925619 
L 106.445429 153.829678 
L 103.29437 160.445415 
L 102.738275 161.796019 
L 100.143311 165.768526 
L 98.035741 170.666419 
L 96.992252 172.105019 
L 94.594022 177.393165 
" style="fill:none;stroke:#dde318;stroke-width:1.5;"/>
    <path clip-path="url(#pa8e0acdd2e)" d="M 81.997929 198.936038 
L 81.236958 199.592781 
L 78.085899 204.828205 
L 77.428507 206.148019 
L 74.93484 207.75394 
L 71.783782 211.901703 
L 70.24359 215.018419 
L 68.632723 215.914656 
L 65.481664 218.645583 
L 62.808983 223.888819 
L 62.330605 224.122474 
L 59.179546 225.514307 
L 56.028488 228.686517 
" style="fill:none;stroke:#dde318;stroke-width:1.5;"/>
   </g>
   <g id="LineCollection_20">
    <path clip-path="url(#pa8e0acdd2e)" d="M 136.697391 10.999219 
L 137.956017 17.052072 
L 138.130801 19.869619 
L 138.573514 28.740019 
L 138.724457 37.610419 
L 138.287521 46.480819 
L 137.956017 51.326032 
L 137.331772 55.351219 
L 136.040184 64.221619 
L 135.064231 73.092019 
L 134.804958 75.078086 
L 133.026611 81.962419 
L 131.653899 90.555787 
L 131.565434 90.832819 
L 128.50284 99.615782 
L 128.468215 99.703219 
L 125.351782 105.676158 
L 124.198687 108.573619 
L 122.200723 112.937549 
L 120.509605 117.444019 
L 119.049664 121.055625 
L 117.137107 126.314419 
L 115.898605 129.619609 
L 113.851267 135.184819 
L 112.747546 138.187881 
L 110.560303 144.055219 
L 109.596488 146.490816 
L 107.175464 152.925619 
L 106.445429 154.059254 
L 103.29437 161.135442 
L 103.022385 161.796019 
L 100.143311 166.203457 
L 98.222893 170.666419 
L 96.992252 172.363034 
L 94.809899 177.397809 
" style="fill:none;stroke:#fde725;stroke-width:1.5;"/>
    <path clip-path="url(#pa8e0acdd2e)" d="M 82.321613 198.980484 
L 81.236958 199.916577 
L 78.085899 205.566518 
L 77.796257 206.148019 
L 74.93484 207.990771 
L 71.783782 212.485153 
L 70.531914 215.018419 
L 68.632723 216.075071 
L 65.481664 219.051873 
L 63.016085 223.888819 
L 62.330605 224.22363 
L 59.179546 225.751308 
L 56.028488 229.294634 
" style="fill:none;stroke:#fde725;stroke-width:1.5;"/>
   </g>
   <g id="LineCollection_21">
    <path clip-path="url(#pa8e0acdd2e)" d="M 137.133487 10.999219 
L 137.956017 14.954845 
L 138.260901 19.869619 
L 138.728538 28.740019 
L 138.867951 37.610419 
L 138.382228 46.480819 
L 137.956017 52.71026 
L 137.546445 55.351219 
L 136.160191 64.221619 
L 135.12603 73.092019 
L 134.804958 75.551473 
L 133.148896 81.962419 
L 132.498576 85.904541 
" style="fill:none;stroke:#440154;stroke-width:1.5;"/>
    <path clip-path="url(#pa8e0acdd2e)" d="M 122.495369 112.756496 
L 122.200723 113.400059 
L 120.683168 117.444019 
L 119.049664 121.484987 
L 117.29326 126.314419 
L 115.898605 130.036336 
L 114.004573 135.184819 
L 112.747546 138.605005 
L 110.715799 144.055219 
L 109.596488 146.883762 
L 107.323306 152.925619 
L 106.445429 154.28883 
L 103.298477 161.796019 
L 103.29437 161.802648 
L 100.143311 166.638388 
L 98.410044 170.666419 
L 96.992252 172.621049 
L 93.99457 179.536819 
L 93.841193 179.75715 
L 90.690135 184.540706 
L 89.015595 188.407219 
L 87.539076 190.40038 
L 84.478315 197.277619 
L 84.388017 197.376202 
L 81.236958 200.240372 
L 78.122159 206.148019 
L 78.085899 206.171952 
L 74.93484 208.227602 
L 71.783782 213.068604 
L 70.820238 215.018419 
L 68.632723 216.235487 
L 65.481664 219.458163 
L 63.223186 223.888819 
L 62.330605 224.324785 
L 59.179546 225.988309 
L 56.028488 229.902751 
" style="fill:none;stroke:#440154;stroke-width:1.5;"/>
   </g>
   <g id="LineCollection_22">
    <path clip-path="url(#pa8e0acdd2e)" d="M 145.894803 10.999219 
L 146.518863 19.869619 
L 147.169338 28.740019 
L 147.409193 33.935878 
L 147.495025 37.610419 
L 147.409193 38.69738 
L 146.274869 46.480819 
L 144.568545 55.351219 
L 144.258135 56.863796 
L 142.548192 64.221619 
L 141.107076 72.017501 
L 140.856726 73.092019 
L 138.708244 81.962419 
L 137.956017 85.661484 
L 136.573873 90.832819 
L 134.804958 97.628396 
L 134.137975 99.703219 
L 131.653899 106.09004 
L 130.730589 108.573619 
L 128.50284 112.988554 
L 126.829002 117.444019 
L 125.351782 120.414768 
L 123.153264 126.314419 
L 122.200723 128.553306 
L 119.781129 135.184819 
L 119.049664 137.158756 
L 116.581247 144.055219 
L 115.898605 145.7676 
L 113.318512 152.925619 
L 112.747546 154.518405 
L 110.064809 161.796019 
L 109.596488 163.035224 
L 106.445429 170.050084 
L 106.186649 170.666419 
L 103.29437 175.209808 
L 101.382398 179.536819 
L 100.143311 181.192931 
L 96.99819 188.407219 
L 96.992252 188.416142 
L 93.841193 193.181236 
L 92.059369 197.277619 
L 90.690135 198.828443 
L 87.539076 204.938349 
L 86.980061 206.148019 
L 84.388017 208.546663 
L 81.236958 214.857424 
L 81.146781 215.018419 
L 78.085899 217.113375 
L 75.783976 219.902178 
" style="fill:none;stroke:#440154;stroke-width:1.5;"/>
   </g>
   <g id="LineCollection_23">
    <path clip-path="url(#pa8e0acdd2e)" d="M 150.560252 69.125206 
L 149.281291 73.092019 
L 147.409193 78.912865 
L 146.473369 81.962419 
L 144.258135 88.203764 
L 143.439279 90.832819 
L 141.107076 95.932969 
L 139.799128 99.703219 
L 137.956017 103.695066 
L 136.12904 108.573619 
L 134.804958 111.264649 
L 132.413957 117.444019 
L 131.653899 119.01349 
L 128.83788 126.314419 
L 128.50284 127.074023 
L 125.505887 135.080851 
" style="fill:none;stroke:#440154;stroke-width:1.5;"/>
    <path clip-path="url(#pa8e0acdd2e)" d="M 112.971279 168.811978 
L 112.747546 169.515973 
L 112.33232 170.666419 
L 109.596488 177.726384 
L 108.839257 179.536819 
L 106.445429 183.642943 
L 104.340786 188.407219 
L 103.29437 189.834013 
L 100.143311 196.70379 
L 99.893491 197.277619 
L 96.992252 200.205321 
L 94.282343 206.148019 
L 93.841193 206.549179 
L 90.690135 210.264478 
L 88.465247 215.018419 
L 87.539076 215.884584 
L 84.388017 220.221206 
L 82.599616 223.888819 
L 81.236958 225.106124 
L 78.085899 229.490533 
L 76.221053 232.759219 
L 74.93484 233.73496 
L 71.783782 236.596772 
L 68.632723 241.363784 
L 68.458555 241.629619 
L 65.481664 243.473598 
L 62.330605 246.638072 
L 59.761637 250.500019 
L 59.179546 250.866333 
L 56.028488 253.054131 
" style="fill:none;stroke:#440154;stroke-width:1.5;"/>
   </g>
   <g id="LineCollection_24">
    <path clip-path="url(#pa8e0acdd2e)" d="M 150.560252 90.968488 
L 147.409193 96.226102 
L 146.024081 99.703219 
L 144.258135 102.800826 
L 142.001691 108.573619 
L 141.107076 110.265141 
L 138.317286 117.444019 
L 137.956017 118.179193 
L 134.832357 126.314419 
L 134.804958 126.37489 
L 131.653899 133.563513 
L 131.044539 135.184819 
L 128.50284 141.484531 
L 127.559891 144.055219 
L 125.351782 149.299764 
L 124.000682 152.925619 
L 122.200723 156.920888 
L 120.377826 161.796019 
L 119.222703 164.631767 
" style="fill:none;stroke:#440154;stroke-width:1.5;"/>
    <path clip-path="url(#pa8e0acdd2e)" d="M 103.320338 200.429133 
L 103.29437 200.456119 
L 100.870532 206.148019 
L 100.143311 206.930902 
L 96.992252 211.912251 
L 95.53438 215.018419 
L 93.841193 216.579663 
L 90.690135 222.393941 
L 89.996021 223.888819 
L 87.539076 226.285696 
L 84.520085 232.759219 
L 84.388017 232.890721 
L 81.236958 236.134988 
L 78.606629 241.629619 
L 78.085899 242.143331 
L 74.93484 245.846422 
L 72.479328 250.500019 
L 71.783782 251.128215 
L 68.632723 254.121291 
L 65.481664 258.940412 
L 65.195328 259.370419 
L 62.330605 261.316948 
L 59.179546 264.629016 
L 56.733743 268.240819 
L 56.028488 268.725703 
" style="fill:none;stroke:#440154;stroke-width:1.5;"/>
   </g>
   <g id="LineCollection_25">
    <path clip-path="url(#pa8e0acdd2e)" d="M 150.560252 103.119364 
L 148.299658 108.573619 
L 147.409193 110.058588 
L 144.442421 117.444019 
L 144.258135 117.792017 
L 141.107076 124.754446 
L 140.503307 126.314419 
L 137.956017 131.854207 
L 136.692493 135.184819 
L 134.804958 139.636175 
L 133.170963 144.055219 
L 131.653899 147.732274 
L 129.735952 152.925619 
L 128.50284 155.798754 
L 126.239049 161.796019 
L 125.351782 163.838404 
L 122.790594 170.666419 
L 122.200723 172.143369 
L 119.534658 179.536819 
L 119.098785 180.746538 
" style="fill:none;stroke:#440154;stroke-width:1.5;"/>
    <path clip-path="url(#pa8e0acdd2e)" d="M 99.144891 218.585328 
L 96.992252 223.198427 
L 96.685491 223.888819 
L 93.841193 227.038478 
L 91.259143 232.759219 
L 90.690135 233.405903 
L 87.539076 237.784495 
L 85.762407 241.629619 
L 84.388017 243.08793 
L 81.236958 248.896053 
L 80.485954 250.500019 
L 78.085899 253.073863 
L 75.132505 259.370419 
L 74.93484 259.589422 
L 71.783782 263.216907 
L 69.292017 268.240819 
L 68.632723 268.930306 
L 65.481664 272.647084 
L 62.936012 277.111219 
" style="fill:none;stroke:#440154;stroke-width:1.5;"/>
   </g>
   <g id="LineCollection_26">
    <path clip-path="url(#pa8e0acdd2e)" d="M 150.560252 117.882653 
L 147.409193 124.461243 
L 146.673965 126.314419 
L 144.258135 131.375113 
L 142.793355 135.184819 
L 141.107076 138.916041 
L 139.166773 144.055219 
L 137.956017 146.79898 
L 135.667879 152.925619 
L 134.804958 154.909987 
L 132.226681 161.796019 
L 131.653899 163.162283 
L 128.859001 170.666419 
L 128.50284 171.565221 
L 125.552311 179.536819 
L 125.351782 180.054065 
L 123.472737 185.268617 
" style="fill:none;stroke:#450457;stroke-width:1.5;"/>
    <path clip-path="url(#pa8e0acdd2e)" d="M 101.124635 225.827691 
L 100.143311 226.941352 
L 97.575439 232.759219 
L 96.992252 233.447072 
L 93.841193 238.56461 
L 92.505441 241.629619 
L 90.690135 243.851812 
L 87.73556 250.500019 
L 87.539076 250.745243 
L 84.388017 254.739904 
L 82.26845 259.370419 
L 81.236958 260.577225 
L 78.085899 266.207917 
L 77.150751 268.240819 
L 74.93484 270.875123 
L 72.058704 277.111219 
" style="fill:none;stroke:#450457;stroke-width:1.5;"/>
   </g>
   <g id="LineCollection_27">
    <path clip-path="url(#pa8e0acdd2e)" d="M 150.560252 131.819955 
L 149.245752 135.184819 
L 147.409193 139.145954 
L 145.522867 144.055219 
L 144.258135 146.751879 
L 141.893657 152.925619 
L 141.107076 154.653322 
L 138.39493 161.796019 
L 137.956017 162.813345 
L 135.013841 170.666419 
L 134.804958 171.181829 
L 131.732774 179.536819 
L 131.653899 179.738286 
L 128.505875 188.407219 
L 128.50284 188.415726 
L 127.347768 191.544911 
" style="fill:none;stroke:#482475;stroke-width:1.5;"/>
    <path clip-path="url(#pa8e0acdd2e)" d="M 102.708997 235.037384 
L 100.143311 239.684051 
L 99.270002 241.629619 
L 96.992252 244.380405 
L 94.266288 250.500019 
L 93.841193 251.027437 
L 90.690135 255.948159 
L 89.194082 259.370419 
L 87.539076 261.531089 
L 84.605107 268.240819 
L 84.388017 268.531755 
L 81.236958 272.973342 
L 79.362554 277.111219 
" style="fill:none;stroke:#482475;stroke-width:1.5;"/>
   </g>
   <g id="LineCollection_28">
    <path clip-path="url(#pa8e0acdd2e)" d="M 150.560252 147.431581 
L 148.423914 152.925619 
L 147.409193 155.077871 
L 144.821541 161.796019 
L 144.258135 163.054135 
L 141.371709 170.666419 
L 141.107076 171.294079 
L 138.03428 179.536819 
L 137.956017 179.732196 
L 134.804958 188.011106 
L 134.659979 188.407219 
L 131.761444 196.062584 
" style="fill:none;stroke:#fde725;stroke-width:1.5;"/>
    <path clip-path="url(#pa8e0acdd2e)" d="M 105.735102 242.994667 
L 103.29437 246.3499 
L 101.40117 250.500019 
L 100.143311 252.053875 
L 96.992252 258.41598 
L 96.560524 259.370419 
L 93.841193 262.815215 
L 91.398673 268.240819 
L 90.690135 269.162711 
L 87.539076 274.854516 
L 86.551937 277.111219 
" style="fill:none;stroke:#fde725;stroke-width:1.5;"/>
   </g>
   <g id="line2d_19">
    <path clip-path="url(#pa8e0acdd2e)" d="M 143.435126 49.123884 
L 142.480267 80.209629 
L 141.484262 105.816484 
L 140.576085 123.249283 
L 139.724681 135.078661 
L 138.908596 143.167772 
L 138.113824 148.814599 
L 137.337779 152.757204 
L 136.565921 155.565296 
L 135.799765 157.572822 
L 135.034787 159.032476 
L 134.261274 160.144083 
L 133.476543 161.041422 
L 132.68028 161.780868 
L 131.876732 162.360911 
L 131.072798 162.821739 
L 130.252448 163.220109 
L 129.428144 163.554298 
L 128.60055 163.818508 
L 127.773971 164.000466 
L 126.941337 164.119429 
L 126.104938 164.169006 
L 125.250841 164.177928 
L 124.381871 164.135064 
L 123.499127 164.007853 
L 122.611183 163.833535 
L 121.726378 163.610949 
L 120.831611 163.367027 
L 119.939744 163.073589 
L 119.033284 162.717297 
L 118.123882 162.302809 
L 117.207419 161.828737 
L 116.29067 161.3001 
L 115.367721 160.740252 
L 114.440605 160.12631 
L 113.492914 159.441004 
L 112.531958 158.714297 
L 111.565215 157.913519 
L 110.593299 157.024462 
L 109.628357 156.1344 
L 108.668705 155.236215 
L 107.705707 154.279838 
L 106.733737 153.253392 
L 105.764241 152.218402 
L 104.805907 151.184186 
L 103.820519 150.017891 
L 102.805695 148.706527 
L 101.817575 147.485243 
L 100.868054 146.390869 
L 99.979977 145.415496 
L 99.897843 145.331026 
L 99.820179 145.262954 
L 99.745317 145.206276 
L 99.671551 145.156318 
L 99.598628 145.109272 
L 99.526715 145.062565 
L 99.45445 145.01745 
L 99.381627 144.969479 
L 99.309859 144.919241 
L 99.238 144.868236 
L 99.166533 144.818379 
L 99.095691 144.769793 
L 99.024844 144.720174 
L 98.953983 144.669585 
L 98.88345 144.620238 
L 98.814289 144.570903 
L 98.745714 144.525368 
L 98.676947 144.480958 
L 98.608521 144.435476 
L 98.540168 144.384833 
L 98.471672 144.332212 
L 98.403826 144.280742 
L 98.337403 144.232131 
L 98.271581 144.189675 
L 98.205702 144.14883 
L 98.19908 144.144788 
L 98.192505 144.140924 
L 98.185868 144.137009 
L 98.179194 144.133315 
L 98.172602 144.12988 
L 98.166153 144.126577 
L 98.159762 144.123017 
L 98.153335 144.119426 
L 98.146852 144.115901 
L 98.140346 144.112456 
L 98.133821 144.109117 
L 98.127378 144.10585 
L 98.120977 144.102307 
L 98.11456 144.098648 
L 98.108129 144.095123 
L 98.101588 144.091456 
L 98.095044 144.08759 
L 98.088485 144.083671 
L 98.081918 144.079877 
L 98.075489 144.075928 
L 98.068993 144.071794 
L 98.062417 144.067522 
L 98.055838 144.063192 
L 98.049178 144.059127 
" style="fill:none;stroke:#1f77b4;stroke-linecap:square;stroke-width:1.5;"/>
    <defs>
     <path d="M 0 1.5 
C 0.397805 1.5 0.77937 1.341951 1.06066 1.06066 
C 1.341951 0.77937 1.5 0.397805 1.5 0 
C 1.5 -0.397805 1.341951 -0.77937 1.06066 -1.06066 
C 0.77937 -1.341951 0.397805 -1.5 0 -1.5 
C -0.397805 -1.5 -0.77937 -1.341951 -1.06066 -1.06066 
C -1.341951 -0.77937 -1.5 -0.397805 -1.5 0 
C -1.5 0.397805 -1.341951 0.77937 -1.06066 1.06066 
C -0.77937 1.341951 -0.397805 1.5 0 1.5 
z
" id="m0ebbec6dd1" style="stroke:#1f77b4;"/>
    </defs>
    <g clip-path="url(#pa8e0acdd2e)">
     <use style="fill:#1f77b4;stroke:#1f77b4;" x="143.435126" xlink:href="#m0ebbec6dd1" y="49.123884"/>
     <use style="fill:#1f77b4;stroke:#1f77b4;" x="142.480267" xlink:href="#m0ebbec6dd1" y="80.209629"/>
     <use style="fill:#1f77b4;stroke:#1f77b4;" x="141.484262" xlink:href="#m0ebbec6dd1" y="105.816484"/>
     <use style="fill:#1f77b4;stroke:#1f77b4;" x="140.576085" xlink:href="#m0ebbec6dd1" y="123.249283"/>
     <use style="fill:#1f77b4;stroke:#1f77b4;" x="139.724681" xlink:href="#m0ebbec6dd1" y="135.078661"/>
     <use style="fill:#1f77b4;stroke:#1f77b4;" x="138.908596" xlink:href="#m0ebbec6dd1" y="143.167772"/>
     <use style="fill:#1f77b4;stroke:#1f77b4;" x="138.113824" xlink:href="#m0ebbec6dd1" y="148.814599"/>
     <use style="fill:#1f77b4;stroke:#1f77b4;" x="137.337779" xlink:href="#m0ebbec6dd1" y="152.757204"/>
     <use style="fill:#1f77b4;stroke:#1f77b4;" x="136.565921" xlink:href="#m0ebbec6dd1" y="155.565296"/>
     <use style="fill:#1f77b4;stroke:#1f77b4;" x="135.799765" xlink:href="#m0ebbec6dd1" y="157.572822"/>
     <use style="fill:#1f77b4;stroke:#1f77b4;" x="135.034787" xlink:href="#m0ebbec6dd1" y="159.032476"/>
     <use style="fill:#1f77b4;stroke:#1f77b4;" x="134.261274" xlink:href="#m0ebbec6dd1" y="160.144083"/>
     <use style="fill:#1f77b4;stroke:#1f77b4;" x="133.476543" xlink:href="#m0ebbec6dd1" y="161.041422"/>
     <use style="fill:#1f77b4;stroke:#1f77b4;" x="132.68028" xlink:href="#m0ebbec6dd1" y="161.780868"/>
     <use style="fill:#1f77b4;stroke:#1f77b4;" x="131.876732" xlink:href="#m0ebbec6dd1" y="162.360911"/>
     <use style="fill:#1f77b4;stroke:#1f77b4;" x="131.072798" xlink:href="#m0ebbec6dd1" y="162.821739"/>
     <use style="fill:#1f77b4;stroke:#1f77b4;" x="130.252448" xlink:href="#m0ebbec6dd1" y="163.220109"/>
     <use style="fill:#1f77b4;stroke:#1f77b4;" x="129.428144" xlink:href="#m0ebbec6dd1" y="163.554298"/>
     <use style="fill:#1f77b4;stroke:#1f77b4;" x="128.60055" xlink:href="#m0ebbec6dd1" y="163.818508"/>
     <use style="fill:#1f77b4;stroke:#1f77b4;" x="127.773971" xlink:href="#m0ebbec6dd1" y="164.000466"/>
     <use style="fill:#1f77b4;stroke:#1f77b4;" x="126.941337" xlink:href="#m0ebbec6dd1" y="164.119429"/>
     <use style="fill:#1f77b4;stroke:#1f77b4;" x="126.104938" xlink:href="#m0ebbec6dd1" y="164.169006"/>
     <use style="fill:#1f77b4;stroke:#1f77b4;" x="125.250841" xlink:href="#m0ebbec6dd1" y="164.177928"/>
     <use style="fill:#1f77b4;stroke:#1f77b4;" x="124.381871" xlink:href="#m0ebbec6dd1" y="164.135064"/>
     <use style="fill:#1f77b4;stroke:#1f77b4;" x="123.499127" xlink:href="#m0ebbec6dd1" y="164.007853"/>
     <use style="fill:#1f77b4;stroke:#1f77b4;" x="122.611183" xlink:href="#m0ebbec6dd1" y="163.833535"/>
     <use style="fill:#1f77b4;stroke:#1f77b4;" x="121.726378" xlink:href="#m0ebbec6dd1" y="163.610949"/>
     <use style="fill:#1f77b4;stroke:#1f77b4;" x="120.831611" xlink:href="#m0ebbec6dd1" y="163.367027"/>
     <use style="fill:#1f77b4;stroke:#1f77b4;" x="119.939744" xlink:href="#m0ebbec6dd1" y="163.073589"/>
     <use style="fill:#1f77b4;stroke:#1f77b4;" x="119.033284" xlink:href="#m0ebbec6dd1" y="162.717297"/>
     <use style="fill:#1f77b4;stroke:#1f77b4;" x="118.123882" xlink:href="#m0ebbec6dd1" y="162.302809"/>
     <use style="fill:#1f77b4;stroke:#1f77b4;" x="117.207419" xlink:href="#m0ebbec6dd1" y="161.828737"/>
     <use style="fill:#1f77b4;stroke:#1f77b4;" x="116.29067" xlink:href="#m0ebbec6dd1" y="161.3001"/>
     <use style="fill:#1f77b4;stroke:#1f77b4;" x="115.367721" xlink:href="#m0ebbec6dd1" y="160.740252"/>
     <use style="fill:#1f77b4;stroke:#1f77b4;" x="114.440605" xlink:href="#m0ebbec6dd1" y="160.12631"/>
     <use style="fill:#1f77b4;stroke:#1f77b4;" x="113.492914" xlink:href="#m0ebbec6dd1" y="159.441004"/>
     <use style="fill:#1f77b4;stroke:#1f77b4;" x="112.531958" xlink:href="#m0ebbec6dd1" y="158.714297"/>
     <use style="fill:#1f77b4;stroke:#1f77b4;" x="111.565215" xlink:href="#m0ebbec6dd1" y="157.913519"/>
     <use style="fill:#1f77b4;stroke:#1f77b4;" x="110.593299" xlink:href="#m0ebbec6dd1" y="157.024462"/>
     <use style="fill:#1f77b4;stroke:#1f77b4;" x="109.628357" xlink:href="#m0ebbec6dd1" y="156.1344"/>
     <use style="fill:#1f77b4;stroke:#1f77b4;" x="108.668705" xlink:href="#m0ebbec6dd1" y="155.236215"/>
     <use style="fill:#1f77b4;stroke:#1f77b4;" x="107.705707" xlink:href="#m0ebbec6dd1" y="154.279838"/>
     <use style="fill:#1f77b4;stroke:#1f77b4;" x="106.733737" xlink:href="#m0ebbec6dd1" y="153.253392"/>
     <use style="fill:#1f77b4;stroke:#1f77b4;" x="105.764241" xlink:href="#m0ebbec6dd1" y="152.218402"/>
     <use style="fill:#1f77b4;stroke:#1f77b4;" x="104.805907" xlink:href="#m0ebbec6dd1" y="151.184186"/>
     <use style="fill:#1f77b4;stroke:#1f77b4;" x="103.820519" xlink:href="#m0ebbec6dd1" y="150.017891"/>
     <use style="fill:#1f77b4;stroke:#1f77b4;" x="102.805695" xlink:href="#m0ebbec6dd1" y="148.706527"/>
     <use style="fill:#1f77b4;stroke:#1f77b4;" x="101.817575" xlink:href="#m0ebbec6dd1" y="147.485243"/>
     <use style="fill:#1f77b4;stroke:#1f77b4;" x="100.868054" xlink:href="#m0ebbec6dd1" y="146.390869"/>
     <use style="fill:#1f77b4;stroke:#1f77b4;" x="99.979977" xlink:href="#m0ebbec6dd1" y="145.415496"/>
     <use style="fill:#1f77b4;stroke:#1f77b4;" x="99.897843" xlink:href="#m0ebbec6dd1" y="145.331026"/>
     <use style="fill:#1f77b4;stroke:#1f77b4;" x="99.820179" xlink:href="#m0ebbec6dd1" y="145.262954"/>
     <use style="fill:#1f77b4;stroke:#1f77b4;" x="99.745317" xlink:href="#m0ebbec6dd1" y="145.206276"/>
     <use style="fill:#1f77b4;stroke:#1f77b4;" x="99.671551" xlink:href="#m0ebbec6dd1" y="145.156318"/>
     <use style="fill:#1f77b4;stroke:#1f77b4;" x="99.598628" xlink:href="#m0ebbec6dd1" y="145.109272"/>
     <use style="fill:#1f77b4;stroke:#1f77b4;" x="99.526715" xlink:href="#m0ebbec6dd1" y="145.062565"/>
     <use style="fill:#1f77b4;stroke:#1f77b4;" x="99.45445" xlink:href="#m0ebbec6dd1" y="145.01745"/>
     <use style="fill:#1f77b4;stroke:#1f77b4;" x="99.381627" xlink:href="#m0ebbec6dd1" y="144.969479"/>
     <use style="fill:#1f77b4;stroke:#1f77b4;" x="99.309859" xlink:href="#m0ebbec6dd1" y="144.919241"/>
     <use style="fill:#1f77b4;stroke:#1f77b4;" x="99.238" xlink:href="#m0ebbec6dd1" y="144.868236"/>
     <use style="fill:#1f77b4;stroke:#1f77b4;" x="99.166533" xlink:href="#m0ebbec6dd1" y="144.818379"/>
     <use style="fill:#1f77b4;stroke:#1f77b4;" x="99.095691" xlink:href="#m0ebbec6dd1" y="144.769793"/>
     <use style="fill:#1f77b4;stroke:#1f77b4;" x="99.024844" xlink:href="#m0ebbec6dd1" y="144.720174"/>
     <use style="fill:#1f77b4;stroke:#1f77b4;" x="98.953983" xlink:href="#m0ebbec6dd1" y="144.669585"/>
     <use style="fill:#1f77b4;stroke:#1f77b4;" x="98.88345" xlink:href="#m0ebbec6dd1" y="144.620238"/>
     <use style="fill:#1f77b4;stroke:#1f77b4;" x="98.814289" xlink:href="#m0ebbec6dd1" y="144.570903"/>
     <use style="fill:#1f77b4;stroke:#1f77b4;" x="98.745714" xlink:href="#m0ebbec6dd1" y="144.525368"/>
     <use style="fill:#1f77b4;stroke:#1f77b4;" x="98.676947" xlink:href="#m0ebbec6dd1" y="144.480958"/>
     <use style="fill:#1f77b4;stroke:#1f77b4;" x="98.608521" xlink:href="#m0ebbec6dd1" y="144.435476"/>
     <use style="fill:#1f77b4;stroke:#1f77b4;" x="98.540168" xlink:href="#m0ebbec6dd1" y="144.384833"/>
     <use style="fill:#1f77b4;stroke:#1f77b4;" x="98.471672" xlink:href="#m0ebbec6dd1" y="144.332212"/>
     <use style="fill:#1f77b4;stroke:#1f77b4;" x="98.403826" xlink:href="#m0ebbec6dd1" y="144.280742"/>
     <use style="fill:#1f77b4;stroke:#1f77b4;" x="98.337403" xlink:href="#m0ebbec6dd1" y="144.232131"/>
     <use style="fill:#1f77b4;stroke:#1f77b4;" x="98.271581" xlink:href="#m0ebbec6dd1" y="144.189675"/>
     <use style="fill:#1f77b4;stroke:#1f77b4;" x="98.205702" xlink:href="#m0ebbec6dd1" y="144.14883"/>
     <use style="fill:#1f77b4;stroke:#1f77b4;" x="98.19908" xlink:href="#m0ebbec6dd1" y="144.144788"/>
     <use style="fill:#1f77b4;stroke:#1f77b4;" x="98.192505" xlink:href="#m0ebbec6dd1" y="144.140924"/>
     <use style="fill:#1f77b4;stroke:#1f77b4;" x="98.185868" xlink:href="#m0ebbec6dd1" y="144.137009"/>
     <use style="fill:#1f77b4;stroke:#1f77b4;" x="98.179194" xlink:href="#m0ebbec6dd1" y="144.133315"/>
     <use style="fill:#1f77b4;stroke:#1f77b4;" x="98.172602" xlink:href="#m0ebbec6dd1" y="144.12988"/>
     <use style="fill:#1f77b4;stroke:#1f77b4;" x="98.166153" xlink:href="#m0ebbec6dd1" y="144.126577"/>
     <use style="fill:#1f77b4;stroke:#1f77b4;" x="98.159762" xlink:href="#m0ebbec6dd1" y="144.123017"/>
     <use style="fill:#1f77b4;stroke:#1f77b4;" x="98.153335" xlink:href="#m0ebbec6dd1" y="144.119426"/>
     <use style="fill:#1f77b4;stroke:#1f77b4;" x="98.146852" xlink:href="#m0ebbec6dd1" y="144.115901"/>
     <use style="fill:#1f77b4;stroke:#1f77b4;" x="98.140346" xlink:href="#m0ebbec6dd1" y="144.112456"/>
     <use style="fill:#1f77b4;stroke:#1f77b4;" x="98.133821" xlink:href="#m0ebbec6dd1" y="144.109117"/>
     <use style="fill:#1f77b4;stroke:#1f77b4;" x="98.127378" xlink:href="#m0ebbec6dd1" y="144.10585"/>
     <use style="fill:#1f77b4;stroke:#1f77b4;" x="98.120977" xlink:href="#m0ebbec6dd1" y="144.102307"/>
     <use style="fill:#1f77b4;stroke:#1f77b4;" x="98.11456" xlink:href="#m0ebbec6dd1" y="144.098648"/>
     <use style="fill:#1f77b4;stroke:#1f77b4;" x="98.108129" xlink:href="#m0ebbec6dd1" y="144.095123"/>
     <use style="fill:#1f77b4;stroke:#1f77b4;" x="98.101588" xlink:href="#m0ebbec6dd1" y="144.091456"/>
     <use style="fill:#1f77b4;stroke:#1f77b4;" x="98.095044" xlink:href="#m0ebbec6dd1" y="144.08759"/>
     <use style="fill:#1f77b4;stroke:#1f77b4;" x="98.088485" xlink:href="#m0ebbec6dd1" y="144.083671"/>
     <use style="fill:#1f77b4;stroke:#1f77b4;" x="98.081918" xlink:href="#m0ebbec6dd1" y="144.079877"/>
     <use style="fill:#1f77b4;stroke:#1f77b4;" x="98.075489" xlink:href="#m0ebbec6dd1" y="144.075928"/>
     <use style="fill:#1f77b4;stroke:#1f77b4;" x="98.068993" xlink:href="#m0ebbec6dd1" y="144.071794"/>
     <use style="fill:#1f77b4;stroke:#1f77b4;" x="98.062417" xlink:href="#m0ebbec6dd1" y="144.067522"/>
     <use style="fill:#1f77b4;stroke:#1f77b4;" x="98.055838" xlink:href="#m0ebbec6dd1" y="144.063192"/>
     <use style="fill:#1f77b4;stroke:#1f77b4;" x="98.049178" xlink:href="#m0ebbec6dd1" y="144.059127"/>
    </g>
   </g>
   <g id="patch_3">
    <path d="M 56.028488 277.111219 
L 56.028488 10.999219 
" style="fill:none;stroke:#000000;stroke-linecap:square;stroke-linejoin:miter;stroke-width:0.8;"/>
   </g>
   <g id="patch_4">
    <path d="M 413.148488 277.111219 
L 413.148488 10.999219 
" style="fill:none;stroke:#000000;stroke-linecap:square;stroke-linejoin:miter;stroke-width:0.8;"/>
   </g>
   <g id="patch_5">
    <path d="M 56.028488 277.111219 
L 413.148488 277.111219 
" style="fill:none;stroke:#000000;stroke-linecap:square;stroke-linejoin:miter;stroke-width:0.8;"/>
   </g>
   <g id="patch_6">
    <path d="M 56.028488 10.999219 
L 413.148488 10.999219 
" style="fill:none;stroke:#000000;stroke-linecap:square;stroke-linejoin:miter;stroke-width:0.8;"/>
   </g>
   <g id="text_21">
    <g clip-path="url(#pa8e0acdd2e)">
     <!-- 2.500 -->
     <g style="fill:#39558c;" transform="translate(77.574189 111.685079)rotate(-75.734767)scale(0.06 -0.06)">
      <use xlink:href="#DejaVuSans-50"/>
      <use x="63.623047" xlink:href="#DejaVuSans-46"/>
      <use x="95.410156" xlink:href="#DejaVuSans-53"/>
      <use x="159.033203" xlink:href="#DejaVuSans-48"/>
      <use x="222.65625" xlink:href="#DejaVuSans-48"/>
     </g>
    </g>
   </g>
   <g id="text_22">
    <g clip-path="url(#pa8e0acdd2e)">
     <!-- 3.000 -->
     <g style="fill:#33638d;" transform="translate(104.334898 150.266495)rotate(-65.125546)scale(0.06 -0.06)">
      <defs>
       <path d="M 40.578125 39.3125 
Q 47.65625 37.796875 51.625 33 
Q 55.609375 28.21875 55.609375 21.1875 
Q 55.609375 10.40625 48.1875 4.484375 
Q 40.765625 -1.421875 27.09375 -1.421875 
Q 22.515625 -1.421875 17.65625 -0.515625 
Q 12.796875 0.390625 7.625 2.203125 
L 7.625 11.71875 
Q 11.71875 9.328125 16.59375 8.109375 
Q 21.484375 6.890625 26.8125 6.890625 
Q 36.078125 6.890625 40.9375 10.546875 
Q 45.796875 14.203125 45.796875 21.1875 
Q 45.796875 27.640625 41.28125 31.265625 
Q 36.765625 34.90625 28.71875 34.90625 
L 20.21875 34.90625 
L 20.21875 43.015625 
L 29.109375 43.015625 
Q 36.375 43.015625 40.234375 45.921875 
Q 44.09375 48.828125 44.09375 54.296875 
Q 44.09375 59.90625 40.109375 62.90625 
Q 36.140625 65.921875 28.71875 65.921875 
Q 24.65625 65.921875 20.015625 65.03125 
Q 15.375 64.15625 9.8125 62.3125 
L 9.8125 71.09375 
Q 15.4375 72.65625 20.34375 73.4375 
Q 25.25 74.21875 29.59375 74.21875 
Q 40.828125 74.21875 47.359375 69.109375 
Q 53.90625 64.015625 53.90625 55.328125 
Q 53.90625 49.265625 50.4375 45.09375 
Q 46.96875 40.921875 40.578125 39.3125 
z
" id="DejaVuSans-51"/>
      </defs>
      <use xlink:href="#DejaVuSans-51"/>
      <use x="63.623047" xlink:href="#DejaVuSans-46"/>
      <use x="95.410156" xlink:href="#DejaVuSans-48"/>
      <use x="159.033203" xlink:href="#DejaVuSans-48"/>
      <use x="222.65625" xlink:href="#DejaVuSans-48"/>
     </g>
    </g>
   </g>
   <g id="text_23">
    <g clip-path="url(#pa8e0acdd2e)">
     <!-- 3.500 -->
     <g style="fill:#2d718e;" transform="translate(95.59855 170.16179)rotate(-62.119946)scale(0.06 -0.06)">
      <use xlink:href="#DejaVuSans-51"/>
      <use x="63.623047" xlink:href="#DejaVuSans-46"/>
      <use x="95.410156" xlink:href="#DejaVuSans-53"/>
      <use x="159.033203" xlink:href="#DejaVuSans-48"/>
      <use x="222.65625" xlink:href="#DejaVuSans-48"/>
     </g>
    </g>
   </g>
   <g id="text_24">
    <g clip-path="url(#pa8e0acdd2e)">
     <!-- 4.000 -->
     <g style="fill:#287d8e;" transform="translate(136.247138 64.004092)rotate(-87.482374)scale(0.06 -0.06)">
      <use xlink:href="#DejaVuSans-52"/>
      <use x="63.623047" xlink:href="#DejaVuSans-46"/>
      <use x="95.410156" xlink:href="#DejaVuSans-48"/>
      <use x="159.033203" xlink:href="#DejaVuSans-48"/>
      <use x="222.65625" xlink:href="#DejaVuSans-48"/>
     </g>
    </g>
   </g>
   <g id="text_25">
    <g clip-path="url(#pa8e0acdd2e)">
     <!-- 4.500 -->
     <g style="fill:#238a8d;" transform="translate(91.327128 180.505744)rotate(-62.384287)scale(0.06 -0.06)">
      <use xlink:href="#DejaVuSans-52"/>
      <use x="63.623047" xlink:href="#DejaVuSans-46"/>
      <use x="95.410156" xlink:href="#DejaVuSans-53"/>
      <use x="159.033203" xlink:href="#DejaVuSans-48"/>
      <use x="222.65625" xlink:href="#DejaVuSans-48"/>
     </g>
    </g>
   </g>
   <g id="text_26">
    <g clip-path="url(#pa8e0acdd2e)">
     <!-- 5.000 -->
     <g style="fill:#1f968b;" transform="translate(131.743779 90.707082)rotate(-77.894629)scale(0.06 -0.06)">
      <use xlink:href="#DejaVuSans-53"/>
      <use x="63.623047" xlink:href="#DejaVuSans-46"/>
      <use x="95.410156" xlink:href="#DejaVuSans-48"/>
      <use x="159.033203" xlink:href="#DejaVuSans-48"/>
      <use x="222.65625" xlink:href="#DejaVuSans-48"/>
     </g>
    </g>
   </g>
   <g id="text_27">
    <g clip-path="url(#pa8e0acdd2e)">
     <!-- 5.500 -->
     <g style="fill:#20a386;" transform="translate(84.724742 194.352383)rotate(-60.319058)scale(0.06 -0.06)">
      <use xlink:href="#DejaVuSans-53"/>
      <use x="63.623047" xlink:href="#DejaVuSans-46"/>
      <use x="95.410156" xlink:href="#DejaVuSans-53"/>
      <use x="159.033203" xlink:href="#DejaVuSans-48"/>
      <use x="222.65625" xlink:href="#DejaVuSans-48"/>
     </g>
    </g>
   </g>
   <g id="text_28">
    <g clip-path="url(#pa8e0acdd2e)">
     <!-- 6.000 -->
     <g style="fill:#29af7f;" transform="translate(84.710984 195.790865)rotate(-60.223839)scale(0.06 -0.06)">
      <use xlink:href="#DejaVuSans-54"/>
      <use x="63.623047" xlink:href="#DejaVuSans-46"/>
      <use x="95.410156" xlink:href="#DejaVuSans-48"/>
      <use x="159.033203" xlink:href="#DejaVuSans-48"/>
      <use x="222.65625" xlink:href="#DejaVuSans-48"/>
     </g>
    </g>
   </g>
   <g id="text_29">
    <g clip-path="url(#pa8e0acdd2e)">
     <!-- 6.500 -->
     <g style="fill:#3dbc74;" transform="translate(84.810684 196.820275)rotate(-60.912618)scale(0.06 -0.06)">
      <use xlink:href="#DejaVuSans-54"/>
      <use x="63.623047" xlink:href="#DejaVuSans-46"/>
      <use x="95.410156" xlink:href="#DejaVuSans-53"/>
      <use x="159.033203" xlink:href="#DejaVuSans-48"/>
      <use x="222.65625" xlink:href="#DejaVuSans-48"/>
     </g>
    </g>
   </g>
   <g id="text_30">
    <g clip-path="url(#pa8e0acdd2e)">
     <!-- 7.000 -->
     <g style="fill:#56c667;" transform="translate(88.161141 190.142335)rotate(-62.282168)scale(0.06 -0.06)">
      <defs>
       <path d="M 8.203125 72.90625 
L 55.078125 72.90625 
L 55.078125 68.703125 
L 28.609375 0 
L 18.3125 0 
L 43.21875 64.59375 
L 8.203125 64.59375 
z
" id="DejaVuSans-55"/>
      </defs>
      <use xlink:href="#DejaVuSans-55"/>
      <use x="63.623047" xlink:href="#DejaVuSans-46"/>
      <use x="95.410156" xlink:href="#DejaVuSans-48"/>
      <use x="159.033203" xlink:href="#DejaVuSans-48"/>
      <use x="222.65625" xlink:href="#DejaVuSans-48"/>
     </g>
    </g>
   </g>
   <g id="text_31">
    <g clip-path="url(#pa8e0acdd2e)">
     <!-- 7.500 -->
     <g style="fill:#75d054;" transform="translate(85.323805 196.729338)rotate(-61.166131)scale(0.06 -0.06)">
      <use xlink:href="#DejaVuSans-55"/>
      <use x="63.623047" xlink:href="#DejaVuSans-46"/>
      <use x="95.410156" xlink:href="#DejaVuSans-53"/>
      <use x="159.033203" xlink:href="#DejaVuSans-48"/>
      <use x="222.65625" xlink:href="#DejaVuSans-48"/>
     </g>
    </g>
   </g>
   <g id="text_32">
    <g clip-path="url(#pa8e0acdd2e)">
     <!-- 8.000 -->
     <g style="fill:#95d840;" transform="translate(85.546811 196.736731)rotate(-61.324182)scale(0.06 -0.06)">
      <use xlink:href="#DejaVuSans-56"/>
      <use x="63.623047" xlink:href="#DejaVuSans-46"/>
      <use x="95.410156" xlink:href="#DejaVuSans-48"/>
      <use x="159.033203" xlink:href="#DejaVuSans-48"/>
      <use x="222.65625" xlink:href="#DejaVuSans-48"/>
     </g>
    </g>
   </g>
   <g id="text_33">
    <g clip-path="url(#pa8e0acdd2e)">
     <!-- 8.500 -->
     <g style="fill:#bade28;" transform="translate(85.769619 196.743992)rotate(-61.480741)scale(0.06 -0.06)">
      <use xlink:href="#DejaVuSans-56"/>
      <use x="63.623047" xlink:href="#DejaVuSans-46"/>
      <use x="95.410156" xlink:href="#DejaVuSans-53"/>
      <use x="159.033203" xlink:href="#DejaVuSans-48"/>
      <use x="222.65625" xlink:href="#DejaVuSans-48"/>
     </g>
    </g>
   </g>
   <g id="text_34">
    <g clip-path="url(#pa8e0acdd2e)">
     <!-- 9.000 -->
     <g style="fill:#dde318;" transform="translate(85.992302 196.751144)rotate(-61.636297)scale(0.06 -0.06)">
      <use xlink:href="#DejaVuSans-57"/>
      <use x="63.623047" xlink:href="#DejaVuSans-46"/>
      <use x="95.410156" xlink:href="#DejaVuSans-48"/>
      <use x="159.033203" xlink:href="#DejaVuSans-48"/>
      <use x="222.65625" xlink:href="#DejaVuSans-48"/>
     </g>
    </g>
   </g>
   <g id="text_35">
    <g clip-path="url(#pa8e0acdd2e)">
     <!-- 9.500 -->
     <g style="fill:#fde725;" transform="translate(86.228073 196.762294)rotate(-61.881499)scale(0.06 -0.06)">
      <use xlink:href="#DejaVuSans-57"/>
      <use x="63.623047" xlink:href="#DejaVuSans-46"/>
      <use x="95.410156" xlink:href="#DejaVuSans-53"/>
      <use x="159.033203" xlink:href="#DejaVuSans-48"/>
      <use x="222.65625" xlink:href="#DejaVuSans-48"/>
     </g>
    </g>
   </g>
   <g id="text_36">
    <g clip-path="url(#pa8e0acdd2e)">
     <!-- 10.000 -->
     <g style="fill:#440154;" transform="translate(126.240505 110.073786)rotate(-68.42598)scale(0.06 -0.06)">
      <use xlink:href="#DejaVuSans-49"/>
      <use x="63.623047" xlink:href="#DejaVuSans-48"/>
      <use x="127.246094" xlink:href="#DejaVuSans-46"/>
      <use x="159.033203" xlink:href="#DejaVuSans-48"/>
      <use x="222.65625" xlink:href="#DejaVuSans-48"/>
      <use x="286.279297" xlink:href="#DejaVuSans-48"/>
     </g>
    </g>
   </g>
   <g id="text_37">
    <g clip-path="url(#pa8e0acdd2e)">
     <!-- 100.000 -->
     <g style="fill:#440154;" transform="translate(58.255928 242.300598)rotate(-47.136047)scale(0.06 -0.06)">
      <use xlink:href="#DejaVuSans-49"/>
      <use x="63.623047" xlink:href="#DejaVuSans-48"/>
      <use x="127.246094" xlink:href="#DejaVuSans-48"/>
      <use x="190.869141" xlink:href="#DejaVuSans-46"/>
      <use x="222.65625" xlink:href="#DejaVuSans-48"/>
      <use x="286.279297" xlink:href="#DejaVuSans-48"/>
      <use x="349.902344" xlink:href="#DejaVuSans-48"/>
     </g>
    </g>
   </g>
   <g id="text_38">
    <g clip-path="url(#pa8e0acdd2e)">
     <!-- 1000.000 -->
     <g style="fill:#440154;" transform="translate(115.524927 165.85234)rotate(-69.24424)scale(0.06 -0.06)">
      <use xlink:href="#DejaVuSans-49"/>
      <use x="63.623047" xlink:href="#DejaVuSans-48"/>
      <use x="127.246094" xlink:href="#DejaVuSans-48"/>
      <use x="190.869141" xlink:href="#DejaVuSans-48"/>
      <use x="254.492188" xlink:href="#DejaVuSans-46"/>
      <use x="286.279297" xlink:href="#DejaVuSans-48"/>
      <use x="349.902344" xlink:href="#DejaVuSans-48"/>
      <use x="413.525391" xlink:href="#DejaVuSans-48"/>
     </g>
    </g>
   </g>
   <g id="text_39">
    <g clip-path="url(#pa8e0acdd2e)">
     <!-- 10000.000 -->
     <g style="fill:#440154;" transform="translate(108.148317 198.987327)rotate(-67.791768)scale(0.06 -0.06)">
      <use xlink:href="#DejaVuSans-49"/>
      <use x="63.623047" xlink:href="#DejaVuSans-48"/>
      <use x="127.246094" xlink:href="#DejaVuSans-48"/>
      <use x="190.869141" xlink:href="#DejaVuSans-48"/>
      <use x="254.492188" xlink:href="#DejaVuSans-48"/>
      <use x="318.115234" xlink:href="#DejaVuSans-46"/>
      <use x="349.902344" xlink:href="#DejaVuSans-48"/>
      <use x="413.525391" xlink:href="#DejaVuSans-48"/>
      <use x="477.148438" xlink:href="#DejaVuSans-48"/>
     </g>
    </g>
   </g>
   <g id="text_40">
    <g clip-path="url(#pa8e0acdd2e)">
     <!-- 100000.000 -->
     <g style="fill:#440154;" transform="translate(102.441884 216.619545)rotate(-61.644959)scale(0.06 -0.06)">
      <use xlink:href="#DejaVuSans-49"/>
      <use x="63.623047" xlink:href="#DejaVuSans-48"/>
      <use x="127.246094" xlink:href="#DejaVuSans-48"/>
      <use x="190.869141" xlink:href="#DejaVuSans-48"/>
      <use x="254.492188" xlink:href="#DejaVuSans-48"/>
      <use x="318.115234" xlink:href="#DejaVuSans-48"/>
      <use x="381.738281" xlink:href="#DejaVuSans-46"/>
      <use x="413.525391" xlink:href="#DejaVuSans-48"/>
      <use x="477.148438" xlink:href="#DejaVuSans-48"/>
      <use x="540.771484" xlink:href="#DejaVuSans-48"/>
     </g>
    </g>
   </g>
   <g id="text_41">
    <g clip-path="url(#pa8e0acdd2e)">
     <!-- 1000000.000 -->
     <g style="fill:#450457;" transform="translate(105.172952 224.481251)rotate(-61.016433)scale(0.06 -0.06)">
      <use xlink:href="#DejaVuSans-49"/>
      <use x="63.623047" xlink:href="#DejaVuSans-48"/>
      <use x="127.246094" xlink:href="#DejaVuSans-48"/>
      <use x="190.869141" xlink:href="#DejaVuSans-48"/>
      <use x="254.492188" xlink:href="#DejaVuSans-48"/>
      <use x="318.115234" xlink:href="#DejaVuSans-48"/>
      <use x="381.738281" xlink:href="#DejaVuSans-48"/>
      <use x="445.361328" xlink:href="#DejaVuSans-46"/>
      <use x="477.148438" xlink:href="#DejaVuSans-48"/>
      <use x="540.771484" xlink:href="#DejaVuSans-48"/>
      <use x="604.394531" xlink:href="#DejaVuSans-48"/>
     </g>
    </g>
   </g>
   <g id="text_42">
    <g clip-path="url(#pa8e0acdd2e)">
     <!-- 10000000.000 -->
     <g style="fill:#482475;" transform="translate(106.362141 233.67542)rotate(-60.013188)scale(0.06 -0.06)">
      <use xlink:href="#DejaVuSans-49"/>
      <use x="63.623047" xlink:href="#DejaVuSans-48"/>
      <use x="127.246094" xlink:href="#DejaVuSans-48"/>
      <use x="190.869141" xlink:href="#DejaVuSans-48"/>
      <use x="254.492188" xlink:href="#DejaVuSans-48"/>
      <use x="318.115234" xlink:href="#DejaVuSans-48"/>
      <use x="381.738281" xlink:href="#DejaVuSans-48"/>
      <use x="445.361328" xlink:href="#DejaVuSans-48"/>
      <use x="508.984375" xlink:href="#DejaVuSans-46"/>
      <use x="540.771484" xlink:href="#DejaVuSans-48"/>
      <use x="604.394531" xlink:href="#DejaVuSans-48"/>
      <use x="668.017578" xlink:href="#DejaVuSans-48"/>
     </g>
    </g>
   </g>
   <g id="text_43">
    <g clip-path="url(#pa8e0acdd2e)">
     <!-- 100000000.000 -->
     <g style="fill:#fde725;" transform="translate(108.80827 241.317003)rotate(-60.675313)scale(0.06 -0.06)">
      <use xlink:href="#DejaVuSans-49"/>
      <use x="63.623047" xlink:href="#DejaVuSans-48"/>
      <use x="127.246094" xlink:href="#DejaVuSans-48"/>
      <use x="190.869141" xlink:href="#DejaVuSans-48"/>
      <use x="254.492188" xlink:href="#DejaVuSans-48"/>
      <use x="318.115234" xlink:href="#DejaVuSans-48"/>
      <use x="381.738281" xlink:href="#DejaVuSans-48"/>
      <use x="445.361328" xlink:href="#DejaVuSans-48"/>
      <use x="508.984375" xlink:href="#DejaVuSans-48"/>
      <use x="572.607422" xlink:href="#DejaVuSans-46"/>
      <use x="604.394531" xlink:href="#DejaVuSans-48"/>
      <use x="668.017578" xlink:href="#DejaVuSans-48"/>
      <use x="731.640625" xlink:href="#DejaVuSans-48"/>
     </g>
    </g>
   </g>
  </g>
 </g>
 <defs>
  <clipPath id="pa8e0acdd2e">
   <rect height="266.112" width="357.12" x="56.028488" y="10.999219"/>
  </clipPath>
 </defs>
</svg>
