<?xml version="1.0" encoding="utf-8" standalone="no"?>
<!DOCTYPE svg PUBLIC "-//W3C//DTD SVG 1.1//EN"
  "http://www.w3.org/Graphics/SVG/1.1/DTD/svg11.dtd">
<!-- Created with matplotlib (https://matplotlib.org/) -->
<svg height="321.713144pt" version="1.1" viewBox="0 0 420.348487 321.713144" width="420.348487pt" xmlns="http://www.w3.org/2000/svg" xmlns:xlink="http://www.w3.org/1999/xlink">
 <metadata>
  <rdf:RDF xmlns:cc="http://creativecommons.org/ns#" xmlns:dc="http://purl.org/dc/elements/1.1/" xmlns:rdf="http://www.w3.org/1999/02/22-rdf-syntax-ns#">
   <cc:Work>
    <dc:type rdf:resource="http://purl.org/dc/dcmitype/StillImage"/>
    <dc:date>2021-09-21T23:35:56.811713</dc:date>
    <dc:format>image/svg+xml</dc:format>
    <dc:creator>
     <cc:Agent>
      <dc:title>Matplotlib v3.3.1, https://matplotlib.org/</dc:title>
     </cc:Agent>
    </dc:creator>
   </cc:Work>
  </rdf:RDF>
 </metadata>
 <defs>
  <style type="text/css">*{stroke-linecap:butt;stroke-linejoin:round;}</style>
 </defs>
 <g id="figure_1">
  <g id="patch_1">
   <path d="M 0 321.713144 
L 420.348487 321.713144 
L 420.348487 0 
L 0 0 
z
" style="fill:#ffffff;"/>
  </g>
  <g id="axes_1">
   <g id="patch_2">
    <path d="M 56.028488 277.111219 
L 413.148488 277.111219 
L 413.148488 10.999219 
L 56.028488 10.999219 
z
" style="fill:#ffffff;"/>
   </g>
   <g id="matplotlib.axis_1">
    <g id="xtick_1">
     <g id="line2d_1">
      <defs>
       <path d="M 0 0 
L 0 3.5 
" id="m172ab26384" style="stroke:#000000;stroke-width:0.8;"/>
      </defs>
      <g>
       <use style="stroke:#000000;stroke-width:0.8;" x="56.028488" xlink:href="#m172ab26384" y="277.111219"/>
      </g>
     </g>
     <g id="text_1">
      <!-- −20 -->
      <g transform="translate(45.476144 291.709656)scale(0.1 -0.1)">
       <defs>
        <path d="M 10.59375 35.5 
L 73.1875 35.5 
L 73.1875 27.203125 
L 10.59375 27.203125 
z
" id="DejaVuSans-8722"/>
        <path d="M 19.1875 8.296875 
L 53.609375 8.296875 
L 53.609375 0 
L 7.328125 0 
L 7.328125 8.296875 
Q 12.9375 14.109375 22.625 23.890625 
Q 32.328125 33.6875 34.8125 36.53125 
Q 39.546875 41.84375 41.421875 45.53125 
Q 43.3125 49.21875 43.3125 52.78125 
Q 43.3125 58.59375 39.234375 62.25 
Q 35.15625 65.921875 28.609375 65.921875 
Q 23.96875 65.921875 18.8125 64.3125 
Q 13.671875 62.703125 7.8125 59.421875 
L 7.8125 69.390625 
Q 13.765625 71.78125 18.9375 73 
Q 24.125 74.21875 28.421875 74.21875 
Q 39.75 74.21875 46.484375 68.546875 
Q 53.21875 62.890625 53.21875 53.421875 
Q 53.21875 48.921875 51.53125 44.890625 
Q 49.859375 40.875 45.40625 35.40625 
Q 44.1875 33.984375 37.640625 27.21875 
Q 31.109375 20.453125 19.1875 8.296875 
z
" id="DejaVuSans-50"/>
        <path d="M 31.78125 66.40625 
Q 24.171875 66.40625 20.328125 58.90625 
Q 16.5 51.421875 16.5 36.375 
Q 16.5 21.390625 20.328125 13.890625 
Q 24.171875 6.390625 31.78125 6.390625 
Q 39.453125 6.390625 43.28125 13.890625 
Q 47.125 21.390625 47.125 36.375 
Q 47.125 51.421875 43.28125 58.90625 
Q 39.453125 66.40625 31.78125 66.40625 
z
M 31.78125 74.21875 
Q 44.046875 74.21875 50.515625 64.515625 
Q 56.984375 54.828125 56.984375 36.375 
Q 56.984375 17.96875 50.515625 8.265625 
Q 44.046875 -1.421875 31.78125 -1.421875 
Q 19.53125 -1.421875 13.0625 8.265625 
Q 6.59375 17.96875 6.59375 36.375 
Q 6.59375 54.828125 13.0625 64.515625 
Q 19.53125 74.21875 31.78125 74.21875 
z
" id="DejaVuSans-48"/>
       </defs>
       <use xlink:href="#DejaVuSans-8722"/>
       <use x="83.789062" xlink:href="#DejaVuSans-50"/>
       <use x="147.412109" xlink:href="#DejaVuSans-48"/>
      </g>
     </g>
    </g>
    <g id="xtick_2">
     <g id="line2d_2">
      <g>
       <use style="stroke:#000000;stroke-width:0.8;" x="98.042605" xlink:href="#m172ab26384" y="277.111219"/>
      </g>
     </g>
     <g id="text_2">
      <!-- 0 -->
      <g transform="translate(94.861355 291.709656)scale(0.1 -0.1)">
       <use xlink:href="#DejaVuSans-48"/>
      </g>
     </g>
    </g>
    <g id="xtick_3">
     <g id="line2d_3">
      <g>
       <use style="stroke:#000000;stroke-width:0.8;" x="140.056723" xlink:href="#m172ab26384" y="277.111219"/>
      </g>
     </g>
     <g id="text_3">
      <!-- 20 -->
      <g transform="translate(133.694223 291.709656)scale(0.1 -0.1)">
       <use xlink:href="#DejaVuSans-50"/>
       <use x="63.623047" xlink:href="#DejaVuSans-48"/>
      </g>
     </g>
    </g>
    <g id="xtick_4">
     <g id="line2d_4">
      <g>
       <use style="stroke:#000000;stroke-width:0.8;" x="182.07084" xlink:href="#m172ab26384" y="277.111219"/>
      </g>
     </g>
     <g id="text_4">
      <!-- 40 -->
      <g transform="translate(175.70834 291.709656)scale(0.1 -0.1)">
       <defs>
        <path d="M 37.796875 64.3125 
L 12.890625 25.390625 
L 37.796875 25.390625 
z
M 35.203125 72.90625 
L 47.609375 72.90625 
L 47.609375 25.390625 
L 58.015625 25.390625 
L 58.015625 17.1875 
L 47.609375 17.1875 
L 47.609375 0 
L 37.796875 0 
L 37.796875 17.1875 
L 4.890625 17.1875 
L 4.890625 26.703125 
z
" id="DejaVuSans-52"/>
       </defs>
       <use xlink:href="#DejaVuSans-52"/>
       <use x="63.623047" xlink:href="#DejaVuSans-48"/>
      </g>
     </g>
    </g>
    <g id="xtick_5">
     <g id="line2d_5">
      <g>
       <use style="stroke:#000000;stroke-width:0.8;" x="224.084958" xlink:href="#m172ab26384" y="277.111219"/>
      </g>
     </g>
     <g id="text_5">
      <!-- 60 -->
      <g transform="translate(217.722458 291.709656)scale(0.1 -0.1)">
       <defs>
        <path d="M 33.015625 40.375 
Q 26.375 40.375 22.484375 35.828125 
Q 18.609375 31.296875 18.609375 23.390625 
Q 18.609375 15.53125 22.484375 10.953125 
Q 26.375 6.390625 33.015625 6.390625 
Q 39.65625 6.390625 43.53125 10.953125 
Q 47.40625 15.53125 47.40625 23.390625 
Q 47.40625 31.296875 43.53125 35.828125 
Q 39.65625 40.375 33.015625 40.375 
z
M 52.59375 71.296875 
L 52.59375 62.3125 
Q 48.875 64.0625 45.09375 64.984375 
Q 41.3125 65.921875 37.59375 65.921875 
Q 27.828125 65.921875 22.671875 59.328125 
Q 17.53125 52.734375 16.796875 39.40625 
Q 19.671875 43.65625 24.015625 45.921875 
Q 28.375 48.1875 33.59375 48.1875 
Q 44.578125 48.1875 50.953125 41.515625 
Q 57.328125 34.859375 57.328125 23.390625 
Q 57.328125 12.15625 50.6875 5.359375 
Q 44.046875 -1.421875 33.015625 -1.421875 
Q 20.359375 -1.421875 13.671875 8.265625 
Q 6.984375 17.96875 6.984375 36.375 
Q 6.984375 53.65625 15.1875 63.9375 
Q 23.390625 74.21875 37.203125 74.21875 
Q 40.921875 74.21875 44.703125 73.484375 
Q 48.484375 72.75 52.59375 71.296875 
z
" id="DejaVuSans-54"/>
       </defs>
       <use xlink:href="#DejaVuSans-54"/>
       <use x="63.623047" xlink:href="#DejaVuSans-48"/>
      </g>
     </g>
    </g>
    <g id="xtick_6">
     <g id="line2d_6">
      <g>
       <use style="stroke:#000000;stroke-width:0.8;" x="266.099076" xlink:href="#m172ab26384" y="277.111219"/>
      </g>
     </g>
     <g id="text_6">
      <!-- 80 -->
      <g transform="translate(259.736576 291.709656)scale(0.1 -0.1)">
       <defs>
        <path d="M 31.78125 34.625 
Q 24.75 34.625 20.71875 30.859375 
Q 16.703125 27.09375 16.703125 20.515625 
Q 16.703125 13.921875 20.71875 10.15625 
Q 24.75 6.390625 31.78125 6.390625 
Q 38.8125 6.390625 42.859375 10.171875 
Q 46.921875 13.96875 46.921875 20.515625 
Q 46.921875 27.09375 42.890625 30.859375 
Q 38.875 34.625 31.78125 34.625 
z
M 21.921875 38.8125 
Q 15.578125 40.375 12.03125 44.71875 
Q 8.5 49.078125 8.5 55.328125 
Q 8.5 64.0625 14.71875 69.140625 
Q 20.953125 74.21875 31.78125 74.21875 
Q 42.671875 74.21875 48.875 69.140625 
Q 55.078125 64.0625 55.078125 55.328125 
Q 55.078125 49.078125 51.53125 44.71875 
Q 48 40.375 41.703125 38.8125 
Q 48.828125 37.15625 52.796875 32.3125 
Q 56.78125 27.484375 56.78125 20.515625 
Q 56.78125 9.90625 50.3125 4.234375 
Q 43.84375 -1.421875 31.78125 -1.421875 
Q 19.734375 -1.421875 13.25 4.234375 
Q 6.78125 9.90625 6.78125 20.515625 
Q 6.78125 27.484375 10.78125 32.3125 
Q 14.796875 37.15625 21.921875 38.8125 
z
M 18.3125 54.390625 
Q 18.3125 48.734375 21.84375 45.5625 
Q 25.390625 42.390625 31.78125 42.390625 
Q 38.140625 42.390625 41.71875 45.5625 
Q 45.3125 48.734375 45.3125 54.390625 
Q 45.3125 60.0625 41.71875 63.234375 
Q 38.140625 66.40625 31.78125 66.40625 
Q 25.390625 66.40625 21.84375 63.234375 
Q 18.3125 60.0625 18.3125 54.390625 
z
" id="DejaVuSans-56"/>
       </defs>
       <use xlink:href="#DejaVuSans-56"/>
       <use x="63.623047" xlink:href="#DejaVuSans-48"/>
      </g>
     </g>
    </g>
    <g id="xtick_7">
     <g id="line2d_7">
      <g>
       <use style="stroke:#000000;stroke-width:0.8;" x="308.113193" xlink:href="#m172ab26384" y="277.111219"/>
      </g>
     </g>
     <g id="text_7">
      <!-- 100 -->
      <g transform="translate(298.569443 291.709656)scale(0.1 -0.1)">
       <defs>
        <path d="M 12.40625 8.296875 
L 28.515625 8.296875 
L 28.515625 63.921875 
L 10.984375 60.40625 
L 10.984375 69.390625 
L 28.421875 72.90625 
L 38.28125 72.90625 
L 38.28125 8.296875 
L 54.390625 8.296875 
L 54.390625 0 
L 12.40625 0 
z
" id="DejaVuSans-49"/>
       </defs>
       <use xlink:href="#DejaVuSans-49"/>
       <use x="63.623047" xlink:href="#DejaVuSans-48"/>
       <use x="127.246094" xlink:href="#DejaVuSans-48"/>
      </g>
     </g>
    </g>
    <g id="xtick_8">
     <g id="line2d_8">
      <g>
       <use style="stroke:#000000;stroke-width:0.8;" x="350.127311" xlink:href="#m172ab26384" y="277.111219"/>
      </g>
     </g>
     <g id="text_8">
      <!-- 120 -->
      <g transform="translate(340.583561 291.709656)scale(0.1 -0.1)">
       <use xlink:href="#DejaVuSans-49"/>
       <use x="63.623047" xlink:href="#DejaVuSans-50"/>
       <use x="127.246094" xlink:href="#DejaVuSans-48"/>
      </g>
     </g>
    </g>
    <g id="xtick_9">
     <g id="line2d_9">
      <g>
       <use style="stroke:#000000;stroke-width:0.8;" x="392.141429" xlink:href="#m172ab26384" y="277.111219"/>
      </g>
     </g>
     <g id="text_9">
      <!-- 140 -->
      <g transform="translate(382.597679 291.709656)scale(0.1 -0.1)">
       <use xlink:href="#DejaVuSans-49"/>
       <use x="63.623047" xlink:href="#DejaVuSans-52"/>
       <use x="127.246094" xlink:href="#DejaVuSans-48"/>
      </g>
     </g>
    </g>
    <g id="text_10">
     <!-- 1st PC: 75.94 % -->
     <g transform="translate(165.868088 310.919444)scale(0.1728 -0.1728)">
      <defs>
       <path d="M 44.28125 53.078125 
L 44.28125 44.578125 
Q 40.484375 46.53125 36.375 47.5 
Q 32.28125 48.484375 27.875 48.484375 
Q 21.1875 48.484375 17.84375 46.4375 
Q 14.5 44.390625 14.5 40.28125 
Q 14.5 37.15625 16.890625 35.375 
Q 19.28125 33.59375 26.515625 31.984375 
L 29.59375 31.296875 
Q 39.15625 29.25 43.1875 25.515625 
Q 47.21875 21.78125 47.21875 15.09375 
Q 47.21875 7.46875 41.1875 3.015625 
Q 35.15625 -1.421875 24.609375 -1.421875 
Q 20.21875 -1.421875 15.453125 -0.5625 
Q 10.6875 0.296875 5.421875 2 
L 5.421875 11.28125 
Q 10.40625 8.6875 15.234375 7.390625 
Q 20.0625 6.109375 24.8125 6.109375 
Q 31.15625 6.109375 34.5625 8.28125 
Q 37.984375 10.453125 37.984375 14.40625 
Q 37.984375 18.0625 35.515625 20.015625 
Q 33.0625 21.96875 24.703125 23.78125 
L 21.578125 24.515625 
Q 13.234375 26.265625 9.515625 29.90625 
Q 5.8125 33.546875 5.8125 39.890625 
Q 5.8125 47.609375 11.28125 51.796875 
Q 16.75 56 26.8125 56 
Q 31.78125 56 36.171875 55.265625 
Q 40.578125 54.546875 44.28125 53.078125 
z
" id="DejaVuSans-115"/>
       <path d="M 18.3125 70.21875 
L 18.3125 54.6875 
L 36.8125 54.6875 
L 36.8125 47.703125 
L 18.3125 47.703125 
L 18.3125 18.015625 
Q 18.3125 11.328125 20.140625 9.421875 
Q 21.96875 7.515625 27.59375 7.515625 
L 36.8125 7.515625 
L 36.8125 0 
L 27.59375 0 
Q 17.1875 0 13.234375 3.875 
Q 9.28125 7.765625 9.28125 18.015625 
L 9.28125 47.703125 
L 2.6875 47.703125 
L 2.6875 54.6875 
L 9.28125 54.6875 
L 9.28125 70.21875 
z
" id="DejaVuSans-116"/>
       <path id="DejaVuSans-32"/>
       <path d="M 19.671875 64.796875 
L 19.671875 37.40625 
L 32.078125 37.40625 
Q 38.96875 37.40625 42.71875 40.96875 
Q 46.484375 44.53125 46.484375 51.125 
Q 46.484375 57.671875 42.71875 61.234375 
Q 38.96875 64.796875 32.078125 64.796875 
z
M 9.8125 72.90625 
L 32.078125 72.90625 
Q 44.34375 72.90625 50.609375 67.359375 
Q 56.890625 61.8125 56.890625 51.125 
Q 56.890625 40.328125 50.609375 34.8125 
Q 44.34375 29.296875 32.078125 29.296875 
L 19.671875 29.296875 
L 19.671875 0 
L 9.8125 0 
z
" id="DejaVuSans-80"/>
       <path d="M 64.40625 67.28125 
L 64.40625 56.890625 
Q 59.421875 61.53125 53.78125 63.8125 
Q 48.140625 66.109375 41.796875 66.109375 
Q 29.296875 66.109375 22.65625 58.46875 
Q 16.015625 50.828125 16.015625 36.375 
Q 16.015625 21.96875 22.65625 14.328125 
Q 29.296875 6.6875 41.796875 6.6875 
Q 48.140625 6.6875 53.78125 8.984375 
Q 59.421875 11.28125 64.40625 15.921875 
L 64.40625 5.609375 
Q 59.234375 2.09375 53.4375 0.328125 
Q 47.65625 -1.421875 41.21875 -1.421875 
Q 24.65625 -1.421875 15.125 8.703125 
Q 5.609375 18.84375 5.609375 36.375 
Q 5.609375 53.953125 15.125 64.078125 
Q 24.65625 74.21875 41.21875 74.21875 
Q 47.75 74.21875 53.53125 72.484375 
Q 59.328125 70.75 64.40625 67.28125 
z
" id="DejaVuSans-67"/>
       <path d="M 11.71875 12.40625 
L 22.015625 12.40625 
L 22.015625 0 
L 11.71875 0 
z
M 11.71875 51.703125 
L 22.015625 51.703125 
L 22.015625 39.3125 
L 11.71875 39.3125 
z
" id="DejaVuSans-58"/>
       <path d="M 8.203125 72.90625 
L 55.078125 72.90625 
L 55.078125 68.703125 
L 28.609375 0 
L 18.3125 0 
L 43.21875 64.59375 
L 8.203125 64.59375 
z
" id="DejaVuSans-55"/>
       <path d="M 10.796875 72.90625 
L 49.515625 72.90625 
L 49.515625 64.59375 
L 19.828125 64.59375 
L 19.828125 46.734375 
Q 21.96875 47.46875 24.109375 47.828125 
Q 26.265625 48.1875 28.421875 48.1875 
Q 40.625 48.1875 47.75 41.5 
Q 54.890625 34.8125 54.890625 23.390625 
Q 54.890625 11.625 47.5625 5.09375 
Q 40.234375 -1.421875 26.90625 -1.421875 
Q 22.3125 -1.421875 17.546875 -0.640625 
Q 12.796875 0.140625 7.71875 1.703125 
L 7.71875 11.625 
Q 12.109375 9.234375 16.796875 8.0625 
Q 21.484375 6.890625 26.703125 6.890625 
Q 35.15625 6.890625 40.078125 11.328125 
Q 45.015625 15.765625 45.015625 23.390625 
Q 45.015625 31 40.078125 35.4375 
Q 35.15625 39.890625 26.703125 39.890625 
Q 22.75 39.890625 18.8125 39.015625 
Q 14.890625 38.140625 10.796875 36.28125 
z
" id="DejaVuSans-53"/>
       <path d="M 10.6875 12.40625 
L 21 12.40625 
L 21 0 
L 10.6875 0 
z
" id="DejaVuSans-46"/>
       <path d="M 10.984375 1.515625 
L 10.984375 10.5 
Q 14.703125 8.734375 18.5 7.8125 
Q 22.3125 6.890625 25.984375 6.890625 
Q 35.75 6.890625 40.890625 13.453125 
Q 46.046875 20.015625 46.78125 33.40625 
Q 43.953125 29.203125 39.59375 26.953125 
Q 35.25 24.703125 29.984375 24.703125 
Q 19.046875 24.703125 12.671875 31.3125 
Q 6.296875 37.9375 6.296875 49.421875 
Q 6.296875 60.640625 12.9375 67.421875 
Q 19.578125 74.21875 30.609375 74.21875 
Q 43.265625 74.21875 49.921875 64.515625 
Q 56.59375 54.828125 56.59375 36.375 
Q 56.59375 19.140625 48.40625 8.859375 
Q 40.234375 -1.421875 26.421875 -1.421875 
Q 22.703125 -1.421875 18.890625 -0.6875 
Q 15.09375 0.046875 10.984375 1.515625 
z
M 30.609375 32.421875 
Q 37.25 32.421875 41.125 36.953125 
Q 45.015625 41.5 45.015625 49.421875 
Q 45.015625 57.28125 41.125 61.84375 
Q 37.25 66.40625 30.609375 66.40625 
Q 23.96875 66.40625 20.09375 61.84375 
Q 16.21875 57.28125 16.21875 49.421875 
Q 16.21875 41.5 20.09375 36.953125 
Q 23.96875 32.421875 30.609375 32.421875 
z
" id="DejaVuSans-57"/>
       <path d="M 72.703125 32.078125 
Q 68.453125 32.078125 66.03125 28.46875 
Q 63.625 24.859375 63.625 18.40625 
Q 63.625 12.0625 66.03125 8.421875 
Q 68.453125 4.78125 72.703125 4.78125 
Q 76.859375 4.78125 79.265625 8.421875 
Q 81.6875 12.0625 81.6875 18.40625 
Q 81.6875 24.8125 79.265625 28.4375 
Q 76.859375 32.078125 72.703125 32.078125 
z
M 72.703125 38.28125 
Q 80.421875 38.28125 84.953125 32.90625 
Q 89.5 27.546875 89.5 18.40625 
Q 89.5 9.28125 84.9375 3.921875 
Q 80.375 -1.421875 72.703125 -1.421875 
Q 64.890625 -1.421875 60.34375 3.921875 
Q 55.8125 9.28125 55.8125 18.40625 
Q 55.8125 27.59375 60.375 32.9375 
Q 64.9375 38.28125 72.703125 38.28125 
z
M 22.3125 68.015625 
Q 18.109375 68.015625 15.6875 64.375 
Q 13.28125 60.75 13.28125 54.390625 
Q 13.28125 47.953125 15.671875 44.328125 
Q 18.0625 40.71875 22.3125 40.71875 
Q 26.5625 40.71875 28.96875 44.328125 
Q 31.390625 47.953125 31.390625 54.390625 
Q 31.390625 60.6875 28.953125 64.34375 
Q 26.515625 68.015625 22.3125 68.015625 
z
M 66.40625 74.21875 
L 74.21875 74.21875 
L 28.609375 -1.421875 
L 20.796875 -1.421875 
z
M 22.3125 74.21875 
Q 30.03125 74.21875 34.609375 68.875 
Q 39.203125 63.53125 39.203125 54.390625 
Q 39.203125 45.171875 34.640625 39.84375 
Q 30.078125 34.515625 22.3125 34.515625 
Q 14.546875 34.515625 10.03125 39.859375 
Q 5.515625 45.21875 5.515625 54.390625 
Q 5.515625 63.484375 10.046875 68.84375 
Q 14.59375 74.21875 22.3125 74.21875 
z
" id="DejaVuSans-37"/>
      </defs>
      <use xlink:href="#DejaVuSans-49"/>
      <use x="63.623047" xlink:href="#DejaVuSans-115"/>
      <use x="115.722656" xlink:href="#DejaVuSans-116"/>
      <use x="154.931641" xlink:href="#DejaVuSans-32"/>
      <use x="186.71875" xlink:href="#DejaVuSans-80"/>
      <use x="247.021484" xlink:href="#DejaVuSans-67"/>
      <use x="316.845703" xlink:href="#DejaVuSans-58"/>
      <use x="350.537109" xlink:href="#DejaVuSans-32"/>
      <use x="382.324219" xlink:href="#DejaVuSans-55"/>
      <use x="445.947266" xlink:href="#DejaVuSans-53"/>
      <use x="509.570312" xlink:href="#DejaVuSans-46"/>
      <use x="541.357422" xlink:href="#DejaVuSans-57"/>
      <use x="604.980469" xlink:href="#DejaVuSans-52"/>
      <use x="668.603516" xlink:href="#DejaVuSans-32"/>
      <use x="700.390625" xlink:href="#DejaVuSans-37"/>
     </g>
    </g>
   </g>
   <g id="matplotlib.axis_2">
    <g id="ytick_1">
     <g id="line2d_10">
      <defs>
       <path d="M 0 0 
L -3.5 0 
" id="m3e171f32b0" style="stroke:#000000;stroke-width:0.8;"/>
      </defs>
      <g>
       <use style="stroke:#000000;stroke-width:0.8;" x="56.028488" xlink:href="#m3e171f32b0" y="277.111219"/>
      </g>
     </g>
     <g id="text_11">
      <!-- −20 -->
      <g transform="translate(27.9238 280.910437)scale(0.1 -0.1)">
       <use xlink:href="#DejaVuSans-8722"/>
       <use x="83.789062" xlink:href="#DejaVuSans-50"/>
       <use x="147.412109" xlink:href="#DejaVuSans-48"/>
      </g>
     </g>
    </g>
    <g id="ytick_2">
     <g id="line2d_11">
      <g>
       <use style="stroke:#000000;stroke-width:0.8;" x="56.028488" xlink:href="#m3e171f32b0" y="243.847219"/>
      </g>
     </g>
     <g id="text_12">
      <!-- −15 -->
      <g transform="translate(27.9238 247.646437)scale(0.1 -0.1)">
       <use xlink:href="#DejaVuSans-8722"/>
       <use x="83.789062" xlink:href="#DejaVuSans-49"/>
       <use x="147.412109" xlink:href="#DejaVuSans-53"/>
      </g>
     </g>
    </g>
    <g id="ytick_3">
     <g id="line2d_12">
      <g>
       <use style="stroke:#000000;stroke-width:0.8;" x="56.028488" xlink:href="#m3e171f32b0" y="210.583219"/>
      </g>
     </g>
     <g id="text_13">
      <!-- −10 -->
      <g transform="translate(27.9238 214.382437)scale(0.1 -0.1)">
       <use xlink:href="#DejaVuSans-8722"/>
       <use x="83.789062" xlink:href="#DejaVuSans-49"/>
       <use x="147.412109" xlink:href="#DejaVuSans-48"/>
      </g>
     </g>
    </g>
    <g id="ytick_4">
     <g id="line2d_13">
      <g>
       <use style="stroke:#000000;stroke-width:0.8;" x="56.028488" xlink:href="#m3e171f32b0" y="177.319219"/>
      </g>
     </g>
     <g id="text_14">
      <!-- −5 -->
      <g transform="translate(34.2863 181.118437)scale(0.1 -0.1)">
       <use xlink:href="#DejaVuSans-8722"/>
       <use x="83.789062" xlink:href="#DejaVuSans-53"/>
      </g>
     </g>
    </g>
    <g id="ytick_5">
     <g id="line2d_14">
      <g>
       <use style="stroke:#000000;stroke-width:0.8;" x="56.028488" xlink:href="#m3e171f32b0" y="144.055219"/>
      </g>
     </g>
     <g id="text_15">
      <!-- 0 -->
      <g transform="translate(42.665987 147.854437)scale(0.1 -0.1)">
       <use xlink:href="#DejaVuSans-48"/>
      </g>
     </g>
    </g>
    <g id="ytick_6">
     <g id="line2d_15">
      <g>
       <use style="stroke:#000000;stroke-width:0.8;" x="56.028488" xlink:href="#m3e171f32b0" y="110.791219"/>
      </g>
     </g>
     <g id="text_16">
      <!-- 5 -->
      <g transform="translate(42.665987 114.590437)scale(0.1 -0.1)">
       <use xlink:href="#DejaVuSans-53"/>
      </g>
     </g>
    </g>
    <g id="ytick_7">
     <g id="line2d_16">
      <g>
       <use style="stroke:#000000;stroke-width:0.8;" x="56.028488" xlink:href="#m3e171f32b0" y="77.527219"/>
      </g>
     </g>
     <g id="text_17">
      <!-- 10 -->
      <g transform="translate(36.303488 81.326437)scale(0.1 -0.1)">
       <use xlink:href="#DejaVuSans-49"/>
       <use x="63.623047" xlink:href="#DejaVuSans-48"/>
      </g>
     </g>
    </g>
    <g id="ytick_8">
     <g id="line2d_17">
      <g>
       <use style="stroke:#000000;stroke-width:0.8;" x="56.028488" xlink:href="#m3e171f32b0" y="44.263219"/>
      </g>
     </g>
     <g id="text_18">
      <!-- 15 -->
      <g transform="translate(36.303488 48.062437)scale(0.1 -0.1)">
       <use xlink:href="#DejaVuSans-49"/>
       <use x="63.623047" xlink:href="#DejaVuSans-53"/>
      </g>
     </g>
    </g>
    <g id="ytick_9">
     <g id="line2d_18">
      <g>
       <use style="stroke:#000000;stroke-width:0.8;" x="56.028488" xlink:href="#m3e171f32b0" y="10.999219"/>
      </g>
     </g>
     <g id="text_19">
      <!-- 20 -->
      <g transform="translate(36.303488 14.798437)scale(0.1 -0.1)">
       <use xlink:href="#DejaVuSans-50"/>
       <use x="63.623047" xlink:href="#DejaVuSans-48"/>
      </g>
     </g>
    </g>
    <g id="text_20">
     <!-- 2nd PC: 12.45 % -->
     <g transform="translate(20.3301 215.848219)rotate(-90)scale(0.1728 -0.1728)">
      <defs>
       <path d="M 54.890625 33.015625 
L 54.890625 0 
L 45.90625 0 
L 45.90625 32.71875 
Q 45.90625 40.484375 42.875 44.328125 
Q 39.84375 48.1875 33.796875 48.1875 
Q 26.515625 48.1875 22.3125 43.546875 
Q 18.109375 38.921875 18.109375 30.90625 
L 18.109375 0 
L 9.078125 0 
L 9.078125 54.6875 
L 18.109375 54.6875 
L 18.109375 46.1875 
Q 21.34375 51.125 25.703125 53.5625 
Q 30.078125 56 35.796875 56 
Q 45.21875 56 50.046875 50.171875 
Q 54.890625 44.34375 54.890625 33.015625 
z
" id="DejaVuSans-110"/>
       <path d="M 45.40625 46.390625 
L 45.40625 75.984375 
L 54.390625 75.984375 
L 54.390625 0 
L 45.40625 0 
L 45.40625 8.203125 
Q 42.578125 3.328125 38.25 0.953125 
Q 33.9375 -1.421875 27.875 -1.421875 
Q 17.96875 -1.421875 11.734375 6.484375 
Q 5.515625 14.40625 5.515625 27.296875 
Q 5.515625 40.1875 11.734375 48.09375 
Q 17.96875 56 27.875 56 
Q 33.9375 56 38.25 53.625 
Q 42.578125 51.265625 45.40625 46.390625 
z
M 14.796875 27.296875 
Q 14.796875 17.390625 18.875 11.75 
Q 22.953125 6.109375 30.078125 6.109375 
Q 37.203125 6.109375 41.296875 11.75 
Q 45.40625 17.390625 45.40625 27.296875 
Q 45.40625 37.203125 41.296875 42.84375 
Q 37.203125 48.484375 30.078125 48.484375 
Q 22.953125 48.484375 18.875 42.84375 
Q 14.796875 37.203125 14.796875 27.296875 
z
" id="DejaVuSans-100"/>
      </defs>
      <use xlink:href="#DejaVuSans-50"/>
      <use x="63.623047" xlink:href="#DejaVuSans-110"/>
      <use x="127.001953" xlink:href="#DejaVuSans-100"/>
      <use x="190.478516" xlink:href="#DejaVuSans-32"/>
      <use x="222.265625" xlink:href="#DejaVuSans-80"/>
      <use x="282.568359" xlink:href="#DejaVuSans-67"/>
      <use x="352.392578" xlink:href="#DejaVuSans-58"/>
      <use x="386.083984" xlink:href="#DejaVuSans-32"/>
      <use x="417.871094" xlink:href="#DejaVuSans-49"/>
      <use x="481.494141" xlink:href="#DejaVuSans-50"/>
      <use x="545.117188" xlink:href="#DejaVuSans-46"/>
      <use x="576.904297" xlink:href="#DejaVuSans-52"/>
      <use x="640.527344" xlink:href="#DejaVuSans-53"/>
      <use x="704.150391" xlink:href="#DejaVuSans-32"/>
      <use x="735.9375" xlink:href="#DejaVuSans-37"/>
     </g>
    </g>
   </g>
   <g id="LineCollection_1"/>
   <g id="LineCollection_2"/>
   <g id="LineCollection_3"/>
   <g id="LineCollection_4">
    <path clip-path="url(#p79efaa4b3b)" d="M 102.270998 151.172521 
L 102.244017 152.119804 
L 102.117992 152.925619 
L 100.143311 157.400779 
L 98.155809 161.796019 
L 98.042605 161.927675 
L 95.941899 163.520072 
L 93.841193 163.964287 
L 92.55598 161.796019 
L 92.546811 152.925619 
L 93.044154 144.055219 
L 93.540128 135.184819 
L 93.841193 134.075121 
L 95.941899 129.039877 
L 97.485678 128.079486 
" style="fill:none;stroke:#453781;stroke-width:1.5;"/>
   </g>
   <g id="LineCollection_5">
    <path clip-path="url(#p79efaa4b3b)" d="M 84.632678 166.967544 
L 85.09739 161.796019 
L 85.43837 159.823377 
L 86.756484 152.925619 
L 87.539076 149.193692 
L 88.457953 144.055219 
L 89.639782 137.267483 
L 89.926162 135.184819 
L 91.740488 128.706519 
L 92.373772 126.314419 
L 93.841193 125.898511 
L 95.941899 125.582552 
L 98.042605 125.504303 
L 100.143311 125.799118 
L 101.412399 126.314419 
L 102.244017 129.228938 
L 103.145088 135.184819 
L 104.075289 144.055219 
L 104.344723 152.832145 
L 104.345591 152.925619 
L 104.344723 152.944806 
L 102.824598 161.796019 
L 102.244017 162.909324 
L 100.143311 166.49276 
L 98.44918 170.666419 
L 98.042605 171.110293 
L 95.941899 173.172411 
L 94.320542 175.317468 
" style="fill:none;stroke:#404688;stroke-width:1.5;"/>
   </g>
   <g id="LineCollection_6">
    <path clip-path="url(#p79efaa4b3b)" d="M 101.568496 125.797003 
L 102.244017 126.155001 
L 102.430708 126.314419 
L 104.134131 135.184819 
L 104.344723 136.992746 
L 104.592894 144.055219 
L 104.83041 152.925619 
L 104.438047 161.796019 
L 104.344723 162.261766 
L 102.244017 166.436196 
L 100.571809 170.666419 
L 100.143311 171.200594 
L 98.042605 173.780545 
L 95.941899 177.446004 
L 94.883005 179.536819 
L 93.841193 180.415442 
L 91.740488 182.118037 
L 89.639782 184.020959 
L 87.539076 186.364037 
L 85.675787 188.407219 
L 85.43837 188.494365 
L 85.248724 188.407219 
L 83.337664 184.759594 
L 82.490511 179.536819 
L 82.024127 170.666419 
L 82.233055 161.796019 
L 82.792471 152.925619 
L 83.29457 144.055219 
L 83.337664 143.624971 
L 85.022166 138.195819 
" style="fill:none;stroke:#39558c;stroke-width:1.5;"/>
   </g>
   <g id="LineCollection_7">
    <path clip-path="url(#p79efaa4b3b)" d="M 99.577397 124.130456 
L 100.143311 124.28431 
L 102.244017 125.867334 
L 102.76759 126.314419 
L 104.344723 133.908144 
L 104.419789 135.184819 
L 104.89126 144.055219 
L 105.315229 152.925619 
L 104.975927 161.796019 
L 104.344723 164.946149 
L 102.244017 169.963067 
L 101.965982 170.666419 
L 100.143311 172.938601 
L 98.042605 176.450797 
L 96.585751 179.536819 
L 95.941899 180.187485 
L 93.841193 182.240784 
L 91.740488 184.758907 
L 89.639782 187.796963 
L 89.212393 188.407219 
L 87.539076 189.411657 
L 85.43837 190.356692 
L 83.337664 189.14999 
L 83.026029 188.407219 
L 81.236958 179.539561 
L 81.236669 179.536819 
L 80.95831 170.666419 
L 81.001193 161.796019 
L 81.231836 152.925619 
L 81.236958 152.834015 
L 82.464446 144.055219 
L 83.077385 137.935685 
" style="fill:none;stroke:#33638d;stroke-width:1.5;"/>
   </g>
   <g id="LineCollection_8">
    <path clip-path="url(#p79efaa4b3b)" d="M 98.120368 122.843895 
L 100.143311 123.526906 
L 102.244017 125.579667 
L 103.104472 126.314419 
L 104.344723 132.286093 
L 104.515162 135.184819 
L 105.189625 144.055219 
L 105.800048 152.925619 
L 105.513808 161.796019 
L 104.344723 167.630532 
L 103.114715 170.666419 
L 102.244017 171.624997 
L 100.143311 174.676609 
L 98.042605 179.121049 
L 97.846328 179.536819 
L 95.941899 181.461404 
L 93.841193 184.066126 
L 91.740488 187.399777 
L 91.083547 188.407219 
L 89.639782 189.405602 
L 87.539076 190.999065 
L 85.43837 192.219019 
L 83.337664 190.555536 
L 82.436324 188.407219 
L 81.236958 182.462478 
L 80.929043 179.536819 
L 80.43709 170.666419 
L 80.477628 161.796019 
L 80.899851 152.925619 
L 81.236958 146.8971 
L 81.634322 144.055219 
L 82.554489 138.301422 
" style="fill:none;stroke:#2d718e;stroke-width:1.5;"/>
   </g>
   <g id="LineCollection_9">
    <path clip-path="url(#p79efaa4b3b)" d="M 96.96305 121.976659 
L 98.042605 121.922086 
L 100.143311 122.769502 
L 102.244017 125.292 
L 103.441354 126.314419 
L 104.344723 130.664043 
L 104.610536 135.184819 
L 105.487991 144.055219 
L 106.284867 152.925619 
L 106.051689 161.796019 
L 104.344723 170.314914 
L 104.202309 170.666419 
L 102.244017 172.822361 
L 100.143311 176.414616 
L 98.714246 179.536819 
L 98.042605 180.294601 
L 95.941899 182.735324 
L 93.841193 185.891468 
L 92.391207 188.407219 
L 91.740488 188.956797 
L 89.639782 190.596441 
L 87.539076 192.586473 
L 85.43837 194.081347 
L 83.337664 191.961082 
L 81.846618 188.407219 
L 81.236958 185.385395 
L 80.621417 179.536819 
L 79.915869 170.666419 
L 79.954062 161.796019 
L 80.567866 152.925619 
L 81.150144 144.055219 
L 81.236958 143.255351 
L 82.168093 138.330428 
" style="fill:none;stroke:#287d8e;stroke-width:1.5;"/>
   </g>
   <g id="LineCollection_10">
    <path clip-path="url(#p79efaa4b3b)" d="M 96.540463 121.107464 
L 98.042605 121.026531 
L 100.143311 122.012097 
L 102.244017 125.004333 
L 103.778236 126.314419 
L 104.344723 129.041993 
L 104.705909 135.184819 
L 105.786357 144.055219 
L 106.445429 150.864047 
L 106.470768 152.925619 
L 106.464566 161.796019 
L 106.445429 162.446206 
L 104.773568 170.666419 
L 104.344723 171.49029 
L 102.244017 174.019725 
L 100.143311 178.152623 
L 99.50975 179.536819 
L 98.042605 181.192132 
L 95.941899 184.009243 
L 93.841193 187.71681 
L 93.443267 188.407219 
L 91.740488 189.845337 
L 89.639782 191.78728 
L 87.539076 194.173881 
L 85.43837 195.943674 
L 83.337664 193.366628 
L 81.256913 188.407219 
L 81.236958 188.308313 
L 80.313791 179.536819 
L 79.394649 170.666419 
L 79.430496 161.796019 
L 80.235882 152.925619 
L 80.983618 144.055219 
L 81.236958 141.721039 
L 81.964319 137.873909 
" style="fill:none;stroke:#238a8d;stroke-width:1.5;"/>
   </g>
   <g id="LineCollection_11">
    <path clip-path="url(#p79efaa4b3b)" d="M 92.780874 189.783452 
L 91.740488 190.733876 
L 89.639782 192.97812 
L 87.539076 195.761289 
L 85.919437 197.277619 
L 85.43837 197.422381 
L 85.149919 197.277619 
L 83.337664 194.772174 
L 81.236958 189.258312 
L 81.090238 188.407219 
L 80.006164 179.536819 
L 79.136252 172.00879 
L 79.097829 170.666419 
L 79.09284 161.796019 
L 79.136252 160.383357 
L 79.903897 152.925619 
L 80.817091 144.055219 
L 81.236958 140.186727 
L 82.182649 135.184819 
L 83.337664 129.820407 
L 84.446109 126.314419 
L 85.43837 125.706853 
L 87.539076 123.909155 
L 89.639782 121.449505 
L 91.740488 120.608075 
L 93.841193 120.504058 
L 95.941899 120.251145 
L 98.042605 120.130977 
L 100.143311 121.254693 
L 102.244017 124.716666 
L 104.115118 126.314419 
L 104.344723 127.419942 
L 104.801283 135.184819 
L 106.084722 144.055219 
L 106.445429 147.781653 
L 106.508655 152.925619 
L 106.535981 161.796019 
L 106.445429 164.872457 
L 105.704002 168.517908 
" style="fill:none;stroke:#1f968b;stroke-width:1.5;"/>
   </g>
   <g id="LineCollection_12">
    <path clip-path="url(#p79efaa4b3b)" d="M 92.855058 190.480608 
L 91.740488 191.622415 
L 89.639782 194.168959 
L 87.574501 197.277619 
L 87.539076 197.302369 
L 85.43837 197.932608 
L 84.13325 197.277619 
L 83.337664 196.17772 
L 81.236958 190.139214 
L 80.93838 188.407219 
L 79.698538 179.536819 
L 79.136252 174.67092 
L 79.02163 170.666419 
L 78.993725 161.796019 
L 79.136252 157.158097 
L 79.571913 152.925619 
L 80.650564 144.055219 
L 81.236958 138.652415 
L 81.892562 135.184819 
L 83.337664 128.473116 
L 84.020153 126.314419 
L 85.43837 125.446038 
L 87.539076 123.318206 
L 89.639782 120.471014 
L 91.740488 119.624284 
L 93.841193 119.604983 
L 95.941899 119.362577 
L 98.042605 119.235423 
L 100.143311 120.497289 
L 102.244017 124.428999 
L 104.344723 126.3015 
L 104.348537 126.314419 
L 104.896656 135.184819 
L 106.383088 144.055219 
L 106.445429 144.699258 
L 106.546542 152.925619 
L 106.607395 161.796019 
L 106.445429 167.298709 
L 106.039465 169.294751 
" style="fill:none;stroke:#20a386;stroke-width:1.5;"/>
   </g>
   <g id="LineCollection_13">
    <path clip-path="url(#p79efaa4b3b)" d="M 90.663566 193.971408 
L 89.639782 195.359799 
L 88.365651 197.277619 
L 87.539076 197.855126 
L 85.43837 198.442835 
L 83.337664 197.368363 
L 83.275266 197.277619 
L 81.236958 191.020116 
L 80.786521 188.407219 
L 79.390912 179.536819 
L 79.136252 177.33305 
L 78.945432 170.666419 
L 78.89461 161.796019 
L 79.136252 153.932837 
L 79.239928 152.925619 
L 80.484038 144.055219 
L 81.236958 137.118103 
L 81.602476 135.184819 
L 83.337664 127.125825 
L 83.594196 126.314419 
L 85.43837 125.185222 
L 87.539076 122.727256 
L 89.639782 119.492523 
L 91.740488 118.640493 
L 93.841193 118.705907 
L 95.941899 118.47401 
L 98.042605 118.339868 
L 100.143311 119.739885 
L 102.244017 124.141332 
L 104.344723 126.260931 
L 104.360513 126.314419 
L 104.99203 135.184819 
L 106.445429 143.617479 
L 106.455413 144.055219 
L 106.584428 152.925619 
L 106.67881 161.796019 
L 106.445429 169.72496 
L 106.253951 170.666419 
L 104.859299 173.34574 
" style="fill:none;stroke:#29af7f;stroke-width:1.5;"/>
   </g>
   <g id="LineCollection_14">
    <path clip-path="url(#p79efaa4b3b)" d="M 90.724302 194.923813 
L 89.639782 196.550638 
L 89.156802 197.277619 
L 87.539076 198.407883 
L 85.43837 198.953062 
L 83.337664 197.785661 
L 82.988322 197.277619 
L 81.236958 191.901017 
L 80.634663 188.407219 
L 79.136252 179.68895 
L 79.128188 179.536819 
L 78.869233 170.666419 
L 78.795495 161.796019 
L 79.09167 152.925619 
L 79.136252 152.141647 
L 80.317511 144.055219 
L 81.236958 135.583791 
L 81.31239 135.184819 
L 83.303466 126.314419 
L 83.337664 126.259835 
L 85.43837 124.924407 
L 87.539076 122.136306 
L 89.639782 118.514032 
L 91.740488 117.656701 
L 93.841193 117.806832 
L 95.941899 117.585442 
L 98.042605 117.444314 
L 100.143311 118.982481 
L 102.244017 123.853665 
L 104.344723 126.220361 
L 104.372489 126.314419 
L 105.087403 135.184819 
L 106.445429 143.064119 
L 106.468035 144.055219 
L 106.622315 152.925619 
L 106.750225 161.796019 
L 106.497783 170.666419 
L 106.445429 171.179983 
L 104.874654 174.247451 
" style="fill:none;stroke:#3dbc74;stroke-width:1.5;"/>
   </g>
   <g id="LineCollection_15">
    <path clip-path="url(#p79efaa4b3b)" d="M 85.995085 123.837217 
L 87.539076 121.545356 
L 89.639782 117.535541 
L 89.863739 117.444019 
L 91.740488 117.415841 
L 93.841193 117.421874 
L 95.941899 117.414241 
L 98.042605 117.423709 
L 99.076636 117.444019 
L 100.143311 118.225077 
L 102.244017 123.565998 
L 104.344723 126.179792 
L 104.384466 126.314419 
L 105.182777 135.184819 
L 106.445429 142.510759 
L 106.480657 144.055219 
L 106.660202 152.925619 
L 106.821639 161.796019 
L 106.583333 170.666419 
L 106.445429 172.019182 
L 104.344723 176.230328 
L 102.456409 179.536819 
L 102.244017 179.708865 
L 100.143311 182.202215 
L 98.042605 185.679788 
L 96.650768 188.407219 
L 95.941899 189.129715 
L 93.841193 191.437043 
L 91.740488 194.288034 
L 89.857748 197.277619 
L 89.639782 197.453252 
L 87.539076 198.96064 
L 85.43837 199.463289 
L 83.337664 198.202958 
L 82.701379 197.277619 
L 81.236958 192.781919 
L 80.482804 188.407219 
L 79.136252 180.572514 
L 79.081351 179.536819 
L 78.793034 170.666419 
L 78.696379 161.796019 
L 79.026844 152.925619 
L 79.136252 151.001671 
L 79.661125 147.408599 
" style="fill:none;stroke:#56c667;stroke-width:1.5;"/>
   </g>
   <g id="LineCollection_16">
    <path clip-path="url(#p79efaa4b3b)" d="M 86.034002 123.425029 
L 87.539076 120.954406 
L 89.36166 117.444019 
L 89.639782 117.41383 
L 91.740488 117.379892 
L 93.841193 117.384746 
L 95.941899 117.378827 
L 98.042605 117.403393 
L 100.111008 117.444019 
L 100.143311 117.467672 
L 102.244017 123.278331 
L 104.344723 126.139223 
L 104.396442 126.314419 
L 105.27815 135.184819 
L 106.445429 141.9574 
L 106.493279 144.055219 
L 106.698089 152.925619 
L 106.893054 161.796019 
L 106.668882 170.666419 
L 106.445429 172.858381 
L 104.344723 177.178336 
L 102.99781 179.536819 
L 102.244017 180.147423 
L 100.143311 182.836294 
L 98.042605 186.57732 
L 97.108788 188.407219 
L 95.941899 189.596541 
L 93.841193 192.092599 
L 91.740488 195.176573 
L 90.41732 197.277619 
L 89.639782 197.904147 
L 87.539076 199.513398 
L 85.43837 199.973517 
L 83.337664 198.620255 
L 82.414436 197.277619 
L 81.236958 193.662821 
L 80.330946 188.407219 
L 79.136252 181.456079 
L 79.034514 179.536819 
L 78.716835 170.666419 
L 78.597264 161.796019 
L 78.962017 152.925619 
L 79.136252 149.861696 
L 79.551114 147.02172 
" style="fill:none;stroke:#75d054;stroke-width:1.5;"/>
   </g>
   <g id="LineCollection_17">
    <path clip-path="url(#p79efaa4b3b)" d="M 86.065035 123.014789 
L 87.539076 120.363457 
L 89.05484 117.444019 
L 89.639782 117.380526 
L 91.740488 117.343943 
L 93.841193 117.347618 
L 95.941899 117.343413 
L 98.042605 117.383077 
L 100.143311 117.432759 
L 100.243809 117.444019 
L 102.244017 122.990664 
L 104.344723 126.098653 
L 104.408418 126.314419 
L 105.373524 135.184819 
L 106.445429 141.40404 
L 106.5059 144.055219 
L 106.735975 152.925619 
L 106.964468 161.796019 
L 106.754432 170.666419 
L 106.445429 173.69758 
L 104.344723 178.126344 
L 103.53921 179.536819 
L 102.244017 180.585981 
L 100.143311 183.470373 
L 98.042605 187.474851 
L 97.566808 188.407219 
L 95.941899 190.063366 
L 93.841193 192.748155 
L 91.740488 196.065113 
L 90.976892 197.277619 
L 89.639782 198.355041 
L 87.539076 200.066155 
L 85.43837 200.483744 
L 83.337664 199.037552 
L 82.127493 197.277619 
L 81.236958 194.543722 
L 80.179088 188.407219 
L 79.136252 182.339644 
L 78.987677 179.536819 
L 78.640637 170.666419 
L 78.498149 161.796019 
L 78.89719 152.925619 
L 79.136252 148.72172 
L 79.441276 146.633646 
" style="fill:none;stroke:#95d840;stroke-width:1.5;"/>
   </g>
   <g id="LineCollection_18">
    <path clip-path="url(#p79efaa4b3b)" d="M 86.08983 122.606996 
L 87.539076 119.772507 
L 88.748021 117.444019 
L 89.639782 117.347222 
L 91.740488 117.307994 
L 93.841193 117.31049 
L 95.941899 117.307999 
L 98.042605 117.362761 
L 100.143311 117.421137 
L 100.347546 117.444019 
L 102.244017 122.702997 
L 104.344723 126.058084 
L 104.420395 126.314419 
L 105.468897 135.184819 
L 106.445429 140.850681 
L 106.518522 144.055219 
L 106.773862 152.925619 
L 107.035883 161.796019 
L 106.839982 170.666419 
L 106.445429 174.536779 
L 104.344723 179.074351 
L 104.080611 179.536819 
L 102.244017 181.024539 
L 100.143311 184.104451 
L 98.042605 188.372382 
L 98.024828 188.407219 
L 95.941899 190.530191 
L 93.841193 193.40371 
L 91.740488 196.953652 
L 91.536464 197.277619 
L 89.639782 198.805936 
L 87.539076 200.618912 
L 85.43837 200.993971 
L 83.337664 199.45485 
L 81.840549 197.277619 
L 81.236958 195.424624 
L 80.027229 188.407219 
L 79.136252 183.223208 
L 78.94084 179.536819 
L 78.564438 170.666419 
L 78.399034 161.796019 
L 78.832364 152.925619 
L 79.136252 147.581744 
L 79.331613 146.244384 
" style="fill:none;stroke:#bade28;stroke-width:1.5;"/>
   </g>
   <g id="LineCollection_19">
    <path clip-path="url(#p79efaa4b3b)" d="M 86.109672 122.201876 
L 87.539076 119.181557 
L 88.441201 117.444019 
L 89.639782 117.313918 
L 91.740488 117.272044 
L 93.841193 117.273363 
L 95.941899 117.272585 
L 98.042605 117.342444 
L 100.143311 117.409515 
L 100.451283 117.444019 
L 102.244017 122.41533 
L 104.344723 126.017515 
L 104.432371 126.314419 
L 105.564271 135.184819 
L 106.445429 140.297321 
L 106.531144 144.055219 
L 106.811749 152.925619 
L 107.107297 161.796019 
L 106.925532 170.666419 
L 106.445429 175.375978 
L 104.541407 179.536819 
L 104.344723 179.696024 
L 102.244017 181.463097 
L 100.143311 184.73853 
L 98.341873 188.407219 
L 98.042605 188.71645 
L 95.941899 190.997016 
L 93.841193 194.059266 
L 91.981216 197.277619 
L 91.740488 197.488692 
L 89.639782 199.25683 
L 87.539076 201.171669 
L 85.43837 201.504198 
L 83.337664 199.872147 
L 81.553606 197.277619 
L 81.236958 196.305526 
L 79.875371 188.407219 
L 79.136252 184.106773 
L 78.894003 179.536819 
L 78.488239 170.666419 
L 78.299919 161.796019 
L 78.767537 152.925619 
L 79.136252 146.441769 
L 79.222122 145.85394 
" style="fill:none;stroke:#dde318;stroke-width:1.5;"/>
   </g>
   <g id="LineCollection_20">
    <path clip-path="url(#p79efaa4b3b)" d="M 86.125565 121.799482 
L 87.539076 118.590607 
L 88.134382 117.444019 
L 89.639782 117.280614 
L 91.740488 117.236095 
L 93.841193 117.236235 
L 95.941899 117.237172 
L 98.042605 117.322128 
L 100.143311 117.397893 
L 100.55502 117.444019 
L 102.244017 122.127663 
L 104.344723 125.976945 
L 104.444348 126.314419 
L 105.659644 135.184819 
L 106.445429 139.743961 
L 106.543766 144.055219 
L 106.849636 152.925619 
L 107.178712 161.796019 
L 107.011082 170.666419 
L 106.445429 176.215177 
L 104.925429 179.536819 
L 104.344723 180.006869 
L 102.244017 181.901655 
L 100.143311 185.372609 
L 98.653225 188.407219 
L 98.042605 189.038169 
L 95.941899 191.463842 
L 93.841193 194.714822 
L 92.36008 197.277619 
L 91.740488 197.820884 
L 89.639782 199.707725 
L 87.539076 201.724426 
L 85.43837 202.014425 
L 83.337664 200.289444 
L 81.266663 197.277619 
L 81.236958 197.186427 
L 79.723512 188.407219 
L 79.136252 184.990338 
L 78.847166 179.536819 
L 78.41204 170.666419 
L 78.200804 161.796019 
L 78.70271 152.925619 
L 79.127042 145.463761 
" style="fill:none;stroke:#fde725;stroke-width:1.5;"/>
   </g>
   <g id="LineCollection_21">
    <path clip-path="url(#p79efaa4b3b)" d="M 96.075352 117.208114 
L 98.042605 117.301812 
L 100.143311 117.386271 
L 100.658758 117.444019 
L 102.244017 121.839996 
L 104.344723 125.936376 
L 104.456324 126.314419 
L 105.755018 135.184819 
L 106.445429 139.190602 
L 106.556388 144.055219 
L 106.887522 152.925619 
L 107.250127 161.796019 
L 107.096632 170.666419 
L 106.445429 177.054376 
L 105.30945 179.536819 
L 104.344723 180.317714 
L 102.244017 182.340213 
L 100.143311 186.006688 
L 98.964577 188.407219 
L 98.042605 189.359887 
L 95.941899 191.930667 
L 93.841193 195.370378 
L 92.738944 197.277619 
L 91.740488 198.153077 
L 89.639782 200.158619 
L 87.539076 202.277183 
L 85.43837 202.524652 
L 83.337664 200.706741 
L 81.236958 197.551946 
L 81.175048 197.277619 
L 79.571654 188.407219 
L 79.136252 185.873902 
L 78.800329 179.536819 
L 78.335841 170.666419 
L 78.101689 161.796019 
L 78.637883 152.925619 
L 79.136252 144.161818 
L 79.151824 144.055219 
L 80.619363 136.254601 
" style="fill:none;stroke:#440154;stroke-width:1.5;"/>
   </g>
   <g id="LineCollection_22">
    <path clip-path="url(#p79efaa4b3b)" d="M 79.905529 211.2474 
L 79.136252 208.083084 
L 78.903204 206.148019 
L 77.654986 197.277619 
L 77.035546 193.597523 
L 76.769329 188.407219 
L 76.250734 179.536819 
L 75.762969 170.666419 
L 75.468575 161.796019 
L 75.746517 152.925619 
L 76.523872 144.055219 
L 77.035546 137.156411 
L 77.400961 135.184819 
L 78.984635 126.314419 
L 79.136252 125.40424 
L 81.129732 117.444019 
L 81.236958 117.289571 
L 83.337664 115.978642 
L 85.43837 114.684895 
L 87.539076 112.79436 
L 89.639782 111.252612 
L 91.740488 110.729283 
L 93.841193 110.51612 
L 95.941899 110.827249 
L 98.042605 113.64489 
L 100.143311 115.294272 
L 102.244017 116.438984 
L 104.027209 117.444019 
L 104.344723 118.633902 
L 106.445429 126.262386 
L 106.451832 126.314419 
L 106.941192 135.184819 
L 108.546135 143.714268 
L 108.557789 144.055219 
L 108.775917 152.925619 
L 109.259161 161.796019 
L 109.903324 170.666419 
L 110.060638 179.536819 
L 109.379866 188.407219 
L 108.546135 194.542421 
L 106.629081 197.277619 
L 106.445429 197.334466 
L 104.344723 198.584063 
L 102.244017 201.461788 
L 100.160315 206.148019 
L 100.143311 206.165482 
L 98.650917 207.67474 
" style="fill:none;stroke:#440154;stroke-width:1.5;"/>
   </g>
   <g id="LineCollection_23">
    <path clip-path="url(#p79efaa4b3b)" d="M 88.248281 105.470023 
L 89.639782 105.248943 
L 91.740488 105.017332 
L 93.841193 104.75381 
L 95.941899 104.454822 
L 98.042605 106.001377 
L 100.143311 107.281216 
L 102.244017 108.291927 
L 102.619298 108.573619 
L 104.344723 113.631482 
L 105.941919 117.444019 
L 106.445429 119.531369 
L 107.280227 126.314419 
L 108.546135 132.427461 
L 108.701463 135.184819 
L 109.496095 144.055219 
L 110.64684 150.811273 
L 110.692851 152.925619 
L 110.941274 161.796019 
L 111.498302 170.666419 
L 112.291643 179.536819 
L 112.523672 188.407219 
L 111.752034 197.277619 
L 110.679438 206.148019 
L 110.64684 206.311346 
L 108.546135 207.673846 
L 106.445429 209.388534 
L 104.344723 214.282375 
L 104.05588 215.018419 
L 102.244017 217.170204 
L 100.143311 221.492798 
L 99.152227 223.888819 
L 98.042605 225.141813 
L 95.941899 228.294595 
L 94.038266 232.759219 
L 93.841193 232.975706 
L 91.740488 235.478093 
L 89.639782 236.927143 
L 87.539076 236.580783 
L 85.43837 235.787768 
L 83.337664 234.629794 
L 81.236958 232.785744 
L 81.226901 232.759219 
L 79.136252 224.62061 
L 79.015172 223.888819 
L 77.393883 215.018419 
L 77.035546 213.228421 
L 76.42854 206.148019 
L 74.93484 197.735531 
L 74.911196 197.277619 
L 74.5433 188.407219 
L 74.026473 179.536819 
L 73.528912 170.666419 
L 73.266437 161.796019 
L 73.337203 152.925619 
L 73.935385 144.055219 
L 74.679128 135.190911 
" style="fill:none;stroke:#440154;stroke-width:1.5;"/>
   </g>
   <g id="LineCollection_24">
    <path clip-path="url(#p79efaa4b3b)" d="M 76.991876 106.979562 
L 77.035546 106.840833 
L 79.136252 100.652401 
L 79.59633 99.703219 
L 81.236958 99.129879 
L 83.337664 98.36936 
L 85.43837 97.594462 
L 87.539076 97.108971 
L 89.639782 96.923424 
L 91.740488 96.673777 
L 93.841193 96.686744 
L 95.941899 96.291114 
L 98.042605 97.737118 
L 100.143311 98.803517 
L 102.244017 99.604313 
L 102.362584 99.703219 
L 104.344723 106.100863 
L 105.474465 108.573619 
L 106.445429 112.43592 
L 107.459222 117.444019 
L 108.546135 122.329994 
L 108.906855 126.314419 
L 110.64684 134.89766 
L 110.658265 135.184819 
L 110.950116 144.055219 
L 111.891637 152.925619 
L 112.747546 158.169009 
L 112.807897 161.796019 
L 113.054397 170.666419 
L 113.590981 179.536819 
L 114.289813 188.407219 
L 114.413387 197.277619 
L 113.485487 206.148019 
L 112.747546 212.118706 
L 112.093096 215.018419 
L 110.64684 218.364215 
L 108.546135 219.222305 
L 106.578421 223.888819 
L 106.445429 224.021714 
L 104.344723 226.952488 
L 102.332262 232.759219 
L 102.244017 232.890665 
L 100.143311 235.878405 
L 98.042605 241.224009 
L 97.880099 241.629619 
L 95.941899 243.792728 
L 93.841193 248.104396 
L 92.666031 250.500019 
L 91.740488 251.022803 
L 89.639782 250.967113 
L 87.539076 250.713675 
L 85.861196 250.500019 
L 85.43837 250.212307 
L 83.337664 247.507708 
L 81.236958 243.912256 
L 80.228234 241.629619 
L 79.136252 237.530257 
L 78.264673 232.759219 
L 77.035546 227.198609 
L 76.676334 223.888819 
L 74.93484 215.38257 
L 74.907389 215.018419 
L 74.25909 206.148019 
L 72.834135 198.059081 
L 72.803034 197.277619 
L 72.490138 188.407219 
L 71.989972 179.536819 
L 71.41678 170.666419 
L 71.005298 161.796019 
L 71.020506 152.925619 
L 71.296106 146.057753 
" style="fill:none;stroke:#440154;stroke-width:1.5;"/>
   </g>
   <g id="LineCollection_25">
    <path clip-path="url(#p79efaa4b3b)" d="M 81.738271 90.096459 
L 83.337664 89.568901 
L 85.43837 88.860361 
L 87.539076 88.361902 
L 89.639782 88.208299 
L 91.740488 88.286755 
L 93.841193 88.345921 
L 95.941899 88.061223 
L 98.042605 89.401745 
L 100.143311 90.292712 
L 101.628479 90.832819 
L 102.244017 92.254364 
L 104.344723 98.00073 
L 105.235078 99.703219 
L 106.445429 104.426018 
L 107.502322 108.573619 
L 108.546135 113.05221 
L 109.100739 117.444019 
L 110.64684 124.616566 
L 110.73696 126.314419 
L 111.493864 135.184819 
L 112.747546 141.90514 
L 112.792245 144.055219 
L 113.083111 152.925619 
L 114.029871 161.796019 
L 114.848252 166.888182 
L 114.894928 170.666419 
L 115.088705 179.536819 
L 115.5044 188.407219 
L 115.98083 197.277619 
L 115.877616 206.148019 
L 114.974644 215.018419 
L 114.848252 216.063283 
L 113.159648 223.888819 
L 112.747546 226.460452 
L 110.64684 230.02924 
L 109.067814 232.759219 
L 108.546135 233.066318 
L 106.445429 236.075568 
L 104.606785 241.629619 
L 104.344723 242.014118 
L 102.244017 245.591621 
L 100.521646 250.500019 
L 100.143311 250.963423 
L 98.042605 253.894762 
L 96.029119 259.370419 
L 95.941899 259.47735 
L 93.841193 261.684713 
L 91.740488 261.867873 
L 89.639782 261.223933 
L 87.539076 260.701069 
L 85.43837 260.29929 
L 83.337664 259.677797 
L 82.811876 259.370419 
L 81.236958 255.822021 
L 79.136252 250.813749 
L 79.0763 250.500019 
L 77.085505 241.629619 
L 77.035546 241.409224 
L 76.010673 232.759219 
L 74.93484 227.666069 
L 74.620054 223.888819 
L 72.834135 215.061544 
L 72.831371 215.018419 
L 72.350066 206.148019 
L 70.954966 197.277619 
L 70.733429 195.871791 
L 70.547897 188.407219 
L 70.163052 179.536819 
L 69.584623 170.666419 
L 69.035489 161.796019 
L 68.876887 152.925619 
L 69.103019 144.055219 
L 69.540047 135.184819 
L 69.917801 129.947249 
" style="fill:none;stroke:#440154;stroke-width:1.5;"/>
   </g>
   <g id="LineCollection_26">
    <path clip-path="url(#p79efaa4b3b)" d="M 78.795249 82.344062 
L 78.962936 81.962419 
L 79.136252 81.885613 
L 81.236958 81.350105 
L 83.337664 80.748951 
L 85.43837 80.117199 
L 87.539076 79.727654 
L 89.639782 79.685465 
L 91.740488 79.875233 
L 93.841193 79.904325 
L 95.941899 79.776751 
L 98.042605 80.920028 
L 100.143311 81.70322 
L 100.834054 81.962419 
L 102.244017 85.230519 
L 104.344723 89.674454 
L 105.03332 90.832819 
L 106.445429 96.216749 
L 107.471215 99.703219 
L 108.546135 104.207788 
L 109.211284 108.573619 
L 110.64684 114.989598 
L 110.810724 117.444019 
L 112.260929 126.314419 
L 112.747546 128.736775 
L 112.913766 135.184819 
L 113.723447 144.055219 
L 114.848252 150.286663 
L 114.885017 152.925619 
L 115.105468 161.796019 
L 115.83425 170.666419 
L 116.948958 177.56779 
L 116.969512 179.536819 
L 117.093824 188.407219 
L 117.346964 197.277619 
L 117.568069 206.148019 
L 117.177259 215.018419 
L 116.948958 217.526237 
L 115.613523 223.888819 
L 114.848252 230.001961 
L 114.243482 232.759219 
L 112.747546 239.739471 
L 111.697676 241.629619 
L 110.64684 242.109872 
L 108.546135 244.513389 
L 106.538156 250.500019 
L 106.445429 250.614659 
L 104.344723 253.601267 
L 102.434408 259.370419 
L 102.244017 259.596162 
L 100.143311 262.31734 
L 98.103974 268.240819 
L 98.042605 268.312108 
L 95.941899 270.791741 
L 93.841193 272.642896 
L 91.740488 271.979927 
L 89.639782 271.022126 
L 87.539076 270.406338 
L 85.43837 269.940767 
L 83.337664 269.258692 
L 81.236958 268.268848 
L 81.219367 268.240819 
L 79.136252 260.88334 
L 78.858556 259.370419 
L 77.035546 251.455452 
L 76.907172 250.500019 
L 75.063932 241.629619 
L 74.93484 241.033087 
L 74.179758 232.759219 
L 72.834135 226.305806 
L 72.660085 223.888819 
L 71.400335 215.018419 
L 70.733429 211.545266 
L 70.488979 206.148019 
L 69.670507 197.277619 
L 68.632723 190.733754 
L 68.579346 188.407219 
L 68.347325 179.536819 
L 67.923232 170.666419 
L 67.361545 161.796019 
L 67.036788 152.925619 
L 67.115519 144.055219 
L 67.408245 135.184819 
L 67.787365 127.268335 
" style="fill:none;stroke:#450457;stroke-width:1.5;"/>
   </g>
   <g id="LineCollection_27">
    <path clip-path="url(#p79efaa4b3b)" d="M 80.924948 277.111219 
L 79.136252 270.930923 
L 78.657856 268.240819 
L 77.035546 261.188091 
L 76.781467 259.370419 
L 74.93484 251.097218 
L 74.869108 250.500019 
L 73.5734 241.629619 
L 72.834135 238.157028 
L 72.411014 232.759219 
L 70.733429 224.691051 
L 70.678363 223.888819 
L 69.936572 215.018419 
L 68.632723 208.134172 
L 68.549191 206.148019 
L 68.094643 197.277619 
L 67.022984 188.407219 
L 66.532017 185.025833 
L 66.43139 179.536819 
L 66.193387 170.666419 
L 65.816253 161.796019 
L 65.445761 152.925619 
L 65.346842 144.055219 
L 65.547726 135.184819 
L 65.817777 126.314419 
L 65.925367 123.212268 
" style="fill:none;stroke:#482475;stroke-width:1.5;"/>
    <path clip-path="url(#p79efaa4b3b)" d="M 77.659048 75.076242 
L 78.706105 73.092019 
L 79.136252 72.948912 
L 81.236958 72.401999 
L 83.337664 71.868767 
L 85.43837 71.39341 
L 87.539076 71.170574 
L 89.639782 71.233486 
L 91.740488 71.420263 
L 93.841193 71.383494 
L 95.941899 71.440038 
L 98.042605 72.393352 
L 100.143311 73.045441 
L 100.266573 73.092019 
L 102.244017 77.87991 
L 104.344723 81.259673 
L 104.817828 81.962419 
L 106.445429 88.061987 
L 107.367305 90.832819 
L 108.546135 95.700461 
L 109.22866 99.703219 
L 110.64684 105.919715 
L 110.866124 108.573619 
L 112.747546 117.300527 
L 112.752779 117.444019 
L 113.06788 126.314419 
L 114.848252 135.167053 
L 114.848586 135.184819 
L 114.991318 144.055219 
L 115.603729 152.925619 
L 116.948958 160.462087 
L 116.963873 161.796019 
L 117.101662 170.666419 
L 117.576557 179.536819 
L 118.932861 188.407219 
L 119.049664 189.246363 
" style="fill:none;stroke:#482475;stroke-width:1.5;"/>
    <path clip-path="url(#p79efaa4b3b)" d="M 119.049664 218.08673 
L 117.89137 223.888819 
L 117.381941 228.724496 
" style="fill:none;stroke:#482475;stroke-width:1.5;"/>
    <path clip-path="url(#p79efaa4b3b)" d="M 99.910516 274.936495 
L 99.190273 277.111219 
" style="fill:none;stroke:#482475;stroke-width:1.5;"/>
   </g>
   <g id="LineCollection_28">
    <path clip-path="url(#p79efaa4b3b)" d="M 78.489921 277.111219 
L 77.035546 270.781577 
L 76.674967 268.240819 
L 74.93484 260.508082 
L 74.80389 259.370419 
L 72.919264 250.500019 
L 72.834135 250.108718 
L 72.087138 241.629619 
L 70.733429 235.245107 
L 70.538945 232.759219 
L 69.012581 223.888819 
L 68.632723 222.001972 
L 68.236992 215.018419 
L 66.693205 206.148019 
L 66.532017 205.213614 
L 66.301841 197.277619 
L 65.736008 188.407219 
L 64.466344 179.536819 
L 64.431311 179.269434 
L 64.311668 170.666419 
L 64.118327 161.796019 
L 63.879994 152.925619 
L 63.736601 144.055219 
L 63.792797 135.184819 
L 63.953404 126.314419 
L 64.117827 117.444019 
L 64.309965 108.573619 
L 64.314622 108.452717 
" style="fill:none;stroke:#fde725;stroke-width:1.5;"/>
    <path clip-path="url(#p79efaa4b3b)" d="M 84.986942 62.771422 
L 85.43837 62.711407 
L 87.539076 62.598854 
L 89.639782 62.759734 
L 91.740488 62.930395 
L 93.841193 62.844695 
L 95.941899 63.089086 
L 98.042605 63.864857 
L 99.204947 64.221619 
L 100.143311 66.287455 
L 102.244017 70.457234 
L 104.344723 72.78624 
L 104.581708 73.092019 
L 106.445429 79.984526 
L 107.191757 81.962419 
L 108.546135 87.488716 
L 109.17562 90.832819 
L 110.64684 97.212968 
L 110.885298 99.703219 
L 112.747546 108.159706 
L 112.765484 108.573619 
L 113.214136 117.444019 
L 114.848252 125.290982 
L 114.871472 126.314419 
L 115.157995 135.184819 
L 116.618531 144.055219 
L 116.948958 145.828295 
L 117.035125 152.925619 
L 117.414068 161.796019 
L 118.834317 170.666419 
L 119.049664 171.916936 
" style="fill:none;stroke:#fde725;stroke-width:1.5;"/>
    <path clip-path="url(#p79efaa4b3b)" d="M 119.049664 233.445756 
L 117.34959 241.629619 
L 116.948958 244.667364 
L 115.674742 250.500019 
L 114.848252 254.645313 
L 113.422161 259.370419 
L 112.747546 260.181107 
L 110.64684 262.839208 
L 108.827987 268.240819 
L 108.546135 268.551909 
L 106.445429 271.448483 
L 104.566907 277.111219 
" style="fill:none;stroke:#fde725;stroke-width:1.5;"/>
   </g>
   <g id="line2d_19">
    <path clip-path="url(#p79efaa4b3b)" d="M 256.155341 106.945852 
L 231.791884 125.349891 
L 211.307878 142.580377 
L 194.068345 157.93987 
L 179.606848 171.923478 
L 167.468489 184.091998 
L 157.324736 194.903766 
L 148.823286 204.49151 
L 141.706117 212.80442 
L 135.728056 219.673609 
L 130.67448 225.418173 
L 126.448717 230.048878 
L 122.877295 233.5553 
L 119.863521 236.21676 
L 117.312531 238.099667 
L 115.146377 239.401098 
L 113.310018 240.167202 
L 111.731303 240.430725 
L 110.335789 240.058081 
L 109.139335 239.351914 
L 108.079181 238.14972 
L 107.140067 236.971139 
L 106.311061 235.142193 
L 105.562681 233.218959 
L 104.897977 231.180191 
L 104.283571 228.924094 
L 103.718985 226.403059 
L 103.205923 223.935966 
L 102.73726 221.252096 
L 102.291095 218.493291 
L 101.89819 215.798166 
L 101.524937 213.018367 
L 101.165762 210.084469 
L 100.83465 206.972073 
L 100.54418 204.146522 
L 100.236213 201.149725 
L 99.992387 198.197352 
L 99.718697 195.23503 
L 99.503167 192.162545 
L 99.270878 189.247186 
L 99.058152 186.279897 
L 98.864436 183.34284 
L 98.676115 180.583169 
L 98.47233 177.647279 
L 98.275523 174.616706 
L 98.117667 171.752586 
L 97.96364 168.835975 
L 97.749498 165.820265 
L 97.562717 162.233569 
L 97.37256 158.553539 
L 97.382503 157.656133 
L 97.406122 156.852394 
L 97.429855 156.152318 
L 97.455297 155.474 
L 97.48083 154.827816 
L 97.507229 154.188197 
L 97.531352 153.577532 
L 97.555607 153.008238 
L 97.576854 152.4554 
L 97.59485 151.882784 
L 97.61801 151.328325 
L 97.634183 150.803806 
L 97.651315 150.259093 
L 97.666931 149.763495 
L 97.684663 149.243125 
L 97.695695 148.743748 
L 97.709124 148.272442 
L 97.724658 147.768695 
L 97.732105 147.332791 
L 97.741924 146.865063 
L 97.756554 146.404022 
L 97.763831 145.946669 
L 97.764496 145.500481 
L 97.772655 145.015693 
L 97.772733 144.531724 
L 97.779484 144.444562 
L 97.787843 144.356559 
L 97.796779 144.291485 
L 97.806154 144.229195 
L 97.816485 144.186556 
L 97.826049 144.145943 
L 97.836096 144.113063 
L 97.846855 144.085908 
L 97.858325 144.055899 
L 97.868908 144.035071 
L 97.880125 144.022687 
L 97.891521 144.006677 
L 97.902627 144.001919 
L 97.913416 143.996982 
L 97.924692 143.995851 
L 97.93628 143.987663 
L 97.947635 143.991794 
L 97.958611 143.99417 
L 97.970598 144.00164 
L 97.982956 144.002431 
L 97.994884 144.011476 
L 98.006521 144.023117 
L 98.018133 144.032489 
L 98.030344 144.048703 
" style="fill:none;stroke:#1f77b4;stroke-linecap:square;stroke-width:1.5;"/>
    <defs>
     <path d="M 0 1.5 
C 0.397805 1.5 0.77937 1.341951 1.06066 1.06066 
C 1.341951 0.77937 1.5 0.397805 1.5 0 
C 1.5 -0.397805 1.341951 -0.77937 1.06066 -1.06066 
C 0.77937 -1.341951 0.397805 -1.5 0 -1.5 
C -0.397805 -1.5 -0.77937 -1.341951 -1.06066 -1.06066 
C -1.341951 -0.77937 -1.5 -0.397805 -1.5 0 
C -1.5 0.397805 -1.341951 0.77937 -1.06066 1.06066 
C -0.77937 1.341951 -0.397805 1.5 0 1.5 
z
" id="m087ddb0f38" style="stroke:#1f77b4;"/>
    </defs>
    <g clip-path="url(#p79efaa4b3b)">
     <use style="fill:#1f77b4;stroke:#1f77b4;" x="256.155341" xlink:href="#m087ddb0f38" y="106.945852"/>
     <use style="fill:#1f77b4;stroke:#1f77b4;" x="231.791884" xlink:href="#m087ddb0f38" y="125.349891"/>
     <use style="fill:#1f77b4;stroke:#1f77b4;" x="211.307878" xlink:href="#m087ddb0f38" y="142.580377"/>
     <use style="fill:#1f77b4;stroke:#1f77b4;" x="194.068345" xlink:href="#m087ddb0f38" y="157.93987"/>
     <use style="fill:#1f77b4;stroke:#1f77b4;" x="179.606848" xlink:href="#m087ddb0f38" y="171.923478"/>
     <use style="fill:#1f77b4;stroke:#1f77b4;" x="167.468489" xlink:href="#m087ddb0f38" y="184.091998"/>
     <use style="fill:#1f77b4;stroke:#1f77b4;" x="157.324736" xlink:href="#m087ddb0f38" y="194.903766"/>
     <use style="fill:#1f77b4;stroke:#1f77b4;" x="148.823286" xlink:href="#m087ddb0f38" y="204.49151"/>
     <use style="fill:#1f77b4;stroke:#1f77b4;" x="141.706117" xlink:href="#m087ddb0f38" y="212.80442"/>
     <use style="fill:#1f77b4;stroke:#1f77b4;" x="135.728056" xlink:href="#m087ddb0f38" y="219.673609"/>
     <use style="fill:#1f77b4;stroke:#1f77b4;" x="130.67448" xlink:href="#m087ddb0f38" y="225.418173"/>
     <use style="fill:#1f77b4;stroke:#1f77b4;" x="126.448717" xlink:href="#m087ddb0f38" y="230.048878"/>
     <use style="fill:#1f77b4;stroke:#1f77b4;" x="122.877295" xlink:href="#m087ddb0f38" y="233.5553"/>
     <use style="fill:#1f77b4;stroke:#1f77b4;" x="119.863521" xlink:href="#m087ddb0f38" y="236.21676"/>
     <use style="fill:#1f77b4;stroke:#1f77b4;" x="117.312531" xlink:href="#m087ddb0f38" y="238.099667"/>
     <use style="fill:#1f77b4;stroke:#1f77b4;" x="115.146377" xlink:href="#m087ddb0f38" y="239.401098"/>
     <use style="fill:#1f77b4;stroke:#1f77b4;" x="113.310018" xlink:href="#m087ddb0f38" y="240.167202"/>
     <use style="fill:#1f77b4;stroke:#1f77b4;" x="111.731303" xlink:href="#m087ddb0f38" y="240.430725"/>
     <use style="fill:#1f77b4;stroke:#1f77b4;" x="110.335789" xlink:href="#m087ddb0f38" y="240.058081"/>
     <use style="fill:#1f77b4;stroke:#1f77b4;" x="109.139335" xlink:href="#m087ddb0f38" y="239.351914"/>
     <use style="fill:#1f77b4;stroke:#1f77b4;" x="108.079181" xlink:href="#m087ddb0f38" y="238.14972"/>
     <use style="fill:#1f77b4;stroke:#1f77b4;" x="107.140067" xlink:href="#m087ddb0f38" y="236.971139"/>
     <use style="fill:#1f77b4;stroke:#1f77b4;" x="106.311061" xlink:href="#m087ddb0f38" y="235.142193"/>
     <use style="fill:#1f77b4;stroke:#1f77b4;" x="105.562681" xlink:href="#m087ddb0f38" y="233.218959"/>
     <use style="fill:#1f77b4;stroke:#1f77b4;" x="104.897977" xlink:href="#m087ddb0f38" y="231.180191"/>
     <use style="fill:#1f77b4;stroke:#1f77b4;" x="104.283571" xlink:href="#m087ddb0f38" y="228.924094"/>
     <use style="fill:#1f77b4;stroke:#1f77b4;" x="103.718985" xlink:href="#m087ddb0f38" y="226.403059"/>
     <use style="fill:#1f77b4;stroke:#1f77b4;" x="103.205923" xlink:href="#m087ddb0f38" y="223.935966"/>
     <use style="fill:#1f77b4;stroke:#1f77b4;" x="102.73726" xlink:href="#m087ddb0f38" y="221.252096"/>
     <use style="fill:#1f77b4;stroke:#1f77b4;" x="102.291095" xlink:href="#m087ddb0f38" y="218.493291"/>
     <use style="fill:#1f77b4;stroke:#1f77b4;" x="101.89819" xlink:href="#m087ddb0f38" y="215.798166"/>
     <use style="fill:#1f77b4;stroke:#1f77b4;" x="101.524937" xlink:href="#m087ddb0f38" y="213.018367"/>
     <use style="fill:#1f77b4;stroke:#1f77b4;" x="101.165762" xlink:href="#m087ddb0f38" y="210.084469"/>
     <use style="fill:#1f77b4;stroke:#1f77b4;" x="100.83465" xlink:href="#m087ddb0f38" y="206.972073"/>
     <use style="fill:#1f77b4;stroke:#1f77b4;" x="100.54418" xlink:href="#m087ddb0f38" y="204.146522"/>
     <use style="fill:#1f77b4;stroke:#1f77b4;" x="100.236213" xlink:href="#m087ddb0f38" y="201.149725"/>
     <use style="fill:#1f77b4;stroke:#1f77b4;" x="99.992387" xlink:href="#m087ddb0f38" y="198.197352"/>
     <use style="fill:#1f77b4;stroke:#1f77b4;" x="99.718697" xlink:href="#m087ddb0f38" y="195.23503"/>
     <use style="fill:#1f77b4;stroke:#1f77b4;" x="99.503167" xlink:href="#m087ddb0f38" y="192.162545"/>
     <use style="fill:#1f77b4;stroke:#1f77b4;" x="99.270878" xlink:href="#m087ddb0f38" y="189.247186"/>
     <use style="fill:#1f77b4;stroke:#1f77b4;" x="99.058152" xlink:href="#m087ddb0f38" y="186.279897"/>
     <use style="fill:#1f77b4;stroke:#1f77b4;" x="98.864436" xlink:href="#m087ddb0f38" y="183.34284"/>
     <use style="fill:#1f77b4;stroke:#1f77b4;" x="98.676115" xlink:href="#m087ddb0f38" y="180.583169"/>
     <use style="fill:#1f77b4;stroke:#1f77b4;" x="98.47233" xlink:href="#m087ddb0f38" y="177.647279"/>
     <use style="fill:#1f77b4;stroke:#1f77b4;" x="98.275523" xlink:href="#m087ddb0f38" y="174.616706"/>
     <use style="fill:#1f77b4;stroke:#1f77b4;" x="98.117667" xlink:href="#m087ddb0f38" y="171.752586"/>
     <use style="fill:#1f77b4;stroke:#1f77b4;" x="97.96364" xlink:href="#m087ddb0f38" y="168.835975"/>
     <use style="fill:#1f77b4;stroke:#1f77b4;" x="97.749498" xlink:href="#m087ddb0f38" y="165.820265"/>
     <use style="fill:#1f77b4;stroke:#1f77b4;" x="97.562717" xlink:href="#m087ddb0f38" y="162.233569"/>
     <use style="fill:#1f77b4;stroke:#1f77b4;" x="97.37256" xlink:href="#m087ddb0f38" y="158.553539"/>
     <use style="fill:#1f77b4;stroke:#1f77b4;" x="97.382503" xlink:href="#m087ddb0f38" y="157.656133"/>
     <use style="fill:#1f77b4;stroke:#1f77b4;" x="97.406122" xlink:href="#m087ddb0f38" y="156.852394"/>
     <use style="fill:#1f77b4;stroke:#1f77b4;" x="97.429855" xlink:href="#m087ddb0f38" y="156.152318"/>
     <use style="fill:#1f77b4;stroke:#1f77b4;" x="97.455297" xlink:href="#m087ddb0f38" y="155.474"/>
     <use style="fill:#1f77b4;stroke:#1f77b4;" x="97.48083" xlink:href="#m087ddb0f38" y="154.827816"/>
     <use style="fill:#1f77b4;stroke:#1f77b4;" x="97.507229" xlink:href="#m087ddb0f38" y="154.188197"/>
     <use style="fill:#1f77b4;stroke:#1f77b4;" x="97.531352" xlink:href="#m087ddb0f38" y="153.577532"/>
     <use style="fill:#1f77b4;stroke:#1f77b4;" x="97.555607" xlink:href="#m087ddb0f38" y="153.008238"/>
     <use style="fill:#1f77b4;stroke:#1f77b4;" x="97.576854" xlink:href="#m087ddb0f38" y="152.4554"/>
     <use style="fill:#1f77b4;stroke:#1f77b4;" x="97.59485" xlink:href="#m087ddb0f38" y="151.882784"/>
     <use style="fill:#1f77b4;stroke:#1f77b4;" x="97.61801" xlink:href="#m087ddb0f38" y="151.328325"/>
     <use style="fill:#1f77b4;stroke:#1f77b4;" x="97.634183" xlink:href="#m087ddb0f38" y="150.803806"/>
     <use style="fill:#1f77b4;stroke:#1f77b4;" x="97.651315" xlink:href="#m087ddb0f38" y="150.259093"/>
     <use style="fill:#1f77b4;stroke:#1f77b4;" x="97.666931" xlink:href="#m087ddb0f38" y="149.763495"/>
     <use style="fill:#1f77b4;stroke:#1f77b4;" x="97.684663" xlink:href="#m087ddb0f38" y="149.243125"/>
     <use style="fill:#1f77b4;stroke:#1f77b4;" x="97.695695" xlink:href="#m087ddb0f38" y="148.743748"/>
     <use style="fill:#1f77b4;stroke:#1f77b4;" x="97.709124" xlink:href="#m087ddb0f38" y="148.272442"/>
     <use style="fill:#1f77b4;stroke:#1f77b4;" x="97.724658" xlink:href="#m087ddb0f38" y="147.768695"/>
     <use style="fill:#1f77b4;stroke:#1f77b4;" x="97.732105" xlink:href="#m087ddb0f38" y="147.332791"/>
     <use style="fill:#1f77b4;stroke:#1f77b4;" x="97.741924" xlink:href="#m087ddb0f38" y="146.865063"/>
     <use style="fill:#1f77b4;stroke:#1f77b4;" x="97.756554" xlink:href="#m087ddb0f38" y="146.404022"/>
     <use style="fill:#1f77b4;stroke:#1f77b4;" x="97.763831" xlink:href="#m087ddb0f38" y="145.946669"/>
     <use style="fill:#1f77b4;stroke:#1f77b4;" x="97.764496" xlink:href="#m087ddb0f38" y="145.500481"/>
     <use style="fill:#1f77b4;stroke:#1f77b4;" x="97.772655" xlink:href="#m087ddb0f38" y="145.015693"/>
     <use style="fill:#1f77b4;stroke:#1f77b4;" x="97.772733" xlink:href="#m087ddb0f38" y="144.531724"/>
     <use style="fill:#1f77b4;stroke:#1f77b4;" x="97.779484" xlink:href="#m087ddb0f38" y="144.444562"/>
     <use style="fill:#1f77b4;stroke:#1f77b4;" x="97.787843" xlink:href="#m087ddb0f38" y="144.356559"/>
     <use style="fill:#1f77b4;stroke:#1f77b4;" x="97.796779" xlink:href="#m087ddb0f38" y="144.291485"/>
     <use style="fill:#1f77b4;stroke:#1f77b4;" x="97.806154" xlink:href="#m087ddb0f38" y="144.229195"/>
     <use style="fill:#1f77b4;stroke:#1f77b4;" x="97.816485" xlink:href="#m087ddb0f38" y="144.186556"/>
     <use style="fill:#1f77b4;stroke:#1f77b4;" x="97.826049" xlink:href="#m087ddb0f38" y="144.145943"/>
     <use style="fill:#1f77b4;stroke:#1f77b4;" x="97.836096" xlink:href="#m087ddb0f38" y="144.113063"/>
     <use style="fill:#1f77b4;stroke:#1f77b4;" x="97.846855" xlink:href="#m087ddb0f38" y="144.085908"/>
     <use style="fill:#1f77b4;stroke:#1f77b4;" x="97.858325" xlink:href="#m087ddb0f38" y="144.055899"/>
     <use style="fill:#1f77b4;stroke:#1f77b4;" x="97.868908" xlink:href="#m087ddb0f38" y="144.035071"/>
     <use style="fill:#1f77b4;stroke:#1f77b4;" x="97.880125" xlink:href="#m087ddb0f38" y="144.022687"/>
     <use style="fill:#1f77b4;stroke:#1f77b4;" x="97.891521" xlink:href="#m087ddb0f38" y="144.006677"/>
     <use style="fill:#1f77b4;stroke:#1f77b4;" x="97.902627" xlink:href="#m087ddb0f38" y="144.001919"/>
     <use style="fill:#1f77b4;stroke:#1f77b4;" x="97.913416" xlink:href="#m087ddb0f38" y="143.996982"/>
     <use style="fill:#1f77b4;stroke:#1f77b4;" x="97.924692" xlink:href="#m087ddb0f38" y="143.995851"/>
     <use style="fill:#1f77b4;stroke:#1f77b4;" x="97.93628" xlink:href="#m087ddb0f38" y="143.987663"/>
     <use style="fill:#1f77b4;stroke:#1f77b4;" x="97.947635" xlink:href="#m087ddb0f38" y="143.991794"/>
     <use style="fill:#1f77b4;stroke:#1f77b4;" x="97.958611" xlink:href="#m087ddb0f38" y="143.99417"/>
     <use style="fill:#1f77b4;stroke:#1f77b4;" x="97.970598" xlink:href="#m087ddb0f38" y="144.00164"/>
     <use style="fill:#1f77b4;stroke:#1f77b4;" x="97.982956" xlink:href="#m087ddb0f38" y="144.002431"/>
     <use style="fill:#1f77b4;stroke:#1f77b4;" x="97.994884" xlink:href="#m087ddb0f38" y="144.011476"/>
     <use style="fill:#1f77b4;stroke:#1f77b4;" x="98.006521" xlink:href="#m087ddb0f38" y="144.023117"/>
     <use style="fill:#1f77b4;stroke:#1f77b4;" x="98.018133" xlink:href="#m087ddb0f38" y="144.032489"/>
     <use style="fill:#1f77b4;stroke:#1f77b4;" x="98.030344" xlink:href="#m087ddb0f38" y="144.048703"/>
    </g>
   </g>
   <g id="patch_3">
    <path d="M 56.028488 277.111219 
L 56.028488 10.999219 
" style="fill:none;stroke:#000000;stroke-linecap:square;stroke-linejoin:miter;stroke-width:0.8;"/>
   </g>
   <g id="patch_4">
    <path d="M 413.148488 277.111219 
L 413.148488 10.999219 
" style="fill:none;stroke:#000000;stroke-linecap:square;stroke-linejoin:miter;stroke-width:0.8;"/>
   </g>
   <g id="patch_5">
    <path d="M 56.028488 277.111219 
L 413.148488 277.111219 
" style="fill:none;stroke:#000000;stroke-linecap:square;stroke-linejoin:miter;stroke-width:0.8;"/>
   </g>
   <g id="patch_6">
    <path d="M 56.028488 10.999219 
L 413.148488 10.999219 
" style="fill:none;stroke:#000000;stroke-linecap:square;stroke-linejoin:miter;stroke-width:0.8;"/>
   </g>
   <g id="text_21">
    <g clip-path="url(#p79efaa4b3b)">
     <!-- 1.500 -->
     <g style="fill:#453781;" transform="translate(99.446409 130.293141)rotate(-277.742717)scale(0.06 -0.06)">
      <use xlink:href="#DejaVuSans-49"/>
      <use x="63.623047" xlink:href="#DejaVuSans-46"/>
      <use x="95.410156" xlink:href="#DejaVuSans-53"/>
      <use x="159.033203" xlink:href="#DejaVuSans-48"/>
      <use x="222.65625" xlink:href="#DejaVuSans-48"/>
     </g>
    </g>
   </g>
   <g id="text_22">
    <g clip-path="url(#p79efaa4b3b)">
     <!-- 2.000 -->
     <g style="fill:#404688;" transform="translate(77.505813 174.756264)rotate(-315.957131)scale(0.06 -0.06)">
      <use xlink:href="#DejaVuSans-50"/>
      <use x="63.623047" xlink:href="#DejaVuSans-46"/>
      <use x="95.410156" xlink:href="#DejaVuSans-48"/>
      <use x="159.033203" xlink:href="#DejaVuSans-48"/>
      <use x="222.65625" xlink:href="#DejaVuSans-48"/>
     </g>
    </g>
   </g>
   <g id="text_23">
    <g clip-path="url(#p79efaa4b3b)">
     <!-- 2.500 -->
     <g style="fill:#39558c;" transform="translate(84.130532 133.372662)rotate(-40.047754)scale(0.06 -0.06)">
      <use xlink:href="#DejaVuSans-50"/>
      <use x="63.623047" xlink:href="#DejaVuSans-46"/>
      <use x="95.410156" xlink:href="#DejaVuSans-53"/>
      <use x="159.033203" xlink:href="#DejaVuSans-48"/>
      <use x="222.65625" xlink:href="#DejaVuSans-48"/>
     </g>
    </g>
   </g>
   <g id="text_24">
    <g clip-path="url(#p79efaa4b3b)">
     <!-- 3.000 -->
     <g style="fill:#33638d;" transform="translate(82.085951 133.219644)rotate(-41.225549)scale(0.06 -0.06)">
      <defs>
       <path d="M 40.578125 39.3125 
Q 47.65625 37.796875 51.625 33 
Q 55.609375 28.21875 55.609375 21.1875 
Q 55.609375 10.40625 48.1875 4.484375 
Q 40.765625 -1.421875 27.09375 -1.421875 
Q 22.515625 -1.421875 17.65625 -0.515625 
Q 12.796875 0.390625 7.625 2.203125 
L 7.625 11.71875 
Q 11.71875 9.328125 16.59375 8.109375 
Q 21.484375 6.890625 26.8125 6.890625 
Q 36.078125 6.890625 40.9375 10.546875 
Q 45.796875 14.203125 45.796875 21.1875 
Q 45.796875 27.640625 41.28125 31.265625 
Q 36.765625 34.90625 28.71875 34.90625 
L 20.21875 34.90625 
L 20.21875 43.015625 
L 29.109375 43.015625 
Q 36.375 43.015625 40.234375 45.921875 
Q 44.09375 48.828125 44.09375 54.296875 
Q 44.09375 59.90625 40.109375 62.90625 
Q 36.140625 65.921875 28.71875 65.921875 
Q 24.65625 65.921875 20.015625 65.03125 
Q 15.375 64.15625 9.8125 62.3125 
L 9.8125 71.09375 
Q 15.4375 72.65625 20.34375 73.4375 
Q 25.25 74.21875 29.59375 74.21875 
Q 40.828125 74.21875 47.359375 69.109375 
Q 53.90625 64.015625 53.90625 55.328125 
Q 53.90625 49.265625 50.4375 45.09375 
Q 46.96875 40.921875 40.578125 39.3125 
z
" id="DejaVuSans-51"/>
      </defs>
      <use xlink:href="#DejaVuSans-51"/>
      <use x="63.623047" xlink:href="#DejaVuSans-46"/>
      <use x="95.410156" xlink:href="#DejaVuSans-48"/>
      <use x="159.033203" xlink:href="#DejaVuSans-48"/>
      <use x="222.65625" xlink:href="#DejaVuSans-48"/>
     </g>
    </g>
   </g>
   <g id="text_25">
    <g clip-path="url(#p79efaa4b3b)">
     <!-- 3.500 -->
     <g style="fill:#2d718e;" transform="translate(81.424464 133.610996)rotate(-45.623674)scale(0.06 -0.06)">
      <use xlink:href="#DejaVuSans-51"/>
      <use x="63.623047" xlink:href="#DejaVuSans-46"/>
      <use x="95.410156" xlink:href="#DejaVuSans-53"/>
      <use x="159.033203" xlink:href="#DejaVuSans-48"/>
      <use x="222.65625" xlink:href="#DejaVuSans-48"/>
     </g>
    </g>
   </g>
   <g id="text_26">
    <g clip-path="url(#p79efaa4b3b)">
     <!-- 4.000 -->
     <g style="fill:#287d8e;" transform="translate(81.148016 133.850505)rotate(-49.714034)scale(0.06 -0.06)">
      <use xlink:href="#DejaVuSans-52"/>
      <use x="63.623047" xlink:href="#DejaVuSans-46"/>
      <use x="95.410156" xlink:href="#DejaVuSans-48"/>
      <use x="159.033203" xlink:href="#DejaVuSans-48"/>
      <use x="222.65625" xlink:href="#DejaVuSans-48"/>
     </g>
    </g>
   </g>
   <g id="text_27">
    <g clip-path="url(#p79efaa4b3b)">
     <!-- 4.500 -->
     <g style="fill:#238a8d;" transform="translate(81.358737 133.704525)rotate(-51.286112)scale(0.06 -0.06)">
      <use xlink:href="#DejaVuSans-52"/>
      <use x="63.623047" xlink:href="#DejaVuSans-46"/>
      <use x="95.410156" xlink:href="#DejaVuSans-53"/>
      <use x="159.033203" xlink:href="#DejaVuSans-48"/>
      <use x="222.65625" xlink:href="#DejaVuSans-48"/>
     </g>
    </g>
   </g>
   <g id="text_28">
    <g clip-path="url(#p79efaa4b3b)">
     <!-- 5.000 -->
     <g style="fill:#1f968b;" transform="translate(96.931214 187.801303)rotate(-57.543158)scale(0.06 -0.06)">
      <use xlink:href="#DejaVuSans-53"/>
      <use x="63.623047" xlink:href="#DejaVuSans-46"/>
      <use x="95.410156" xlink:href="#DejaVuSans-48"/>
      <use x="159.033203" xlink:href="#DejaVuSans-48"/>
      <use x="222.65625" xlink:href="#DejaVuSans-48"/>
     </g>
    </g>
   </g>
   <g id="text_29">
    <g clip-path="url(#p79efaa4b3b)">
     <!-- 5.500 -->
     <g style="fill:#20a386;" transform="translate(97.003954 188.463727)rotate(-58.054553)scale(0.06 -0.06)">
      <use xlink:href="#DejaVuSans-53"/>
      <use x="63.623047" xlink:href="#DejaVuSans-46"/>
      <use x="95.410156" xlink:href="#DejaVuSans-53"/>
      <use x="159.033203" xlink:href="#DejaVuSans-48"/>
      <use x="222.65625" xlink:href="#DejaVuSans-48"/>
     </g>
    </g>
   </g>
   <g id="text_30">
    <g clip-path="url(#p79efaa4b3b)">
     <!-- 6.000 -->
     <g style="fill:#29af7f;" transform="translate(94.561203 191.908577)rotate(-55.633587)scale(0.06 -0.06)">
      <use xlink:href="#DejaVuSans-54"/>
      <use x="63.623047" xlink:href="#DejaVuSans-46"/>
      <use x="95.410156" xlink:href="#DejaVuSans-48"/>
      <use x="159.033203" xlink:href="#DejaVuSans-48"/>
      <use x="222.65625" xlink:href="#DejaVuSans-48"/>
     </g>
    </g>
   </g>
   <g id="text_31">
    <g clip-path="url(#p79efaa4b3b)">
     <!-- 6.500 -->
     <g style="fill:#3dbc74;" transform="translate(94.473965 192.767691)rotate(-55.009158)scale(0.06 -0.06)">
      <use xlink:href="#DejaVuSans-54"/>
      <use x="63.623047" xlink:href="#DejaVuSans-46"/>
      <use x="95.410156" xlink:href="#DejaVuSans-53"/>
      <use x="159.033203" xlink:href="#DejaVuSans-48"/>
      <use x="222.65625" xlink:href="#DejaVuSans-48"/>
     </g>
    </g>
   </g>
   <g id="text_32">
    <g clip-path="url(#p79efaa4b3b)">
     <!-- 7.000 -->
     <g style="fill:#56c667;" transform="translate(81.366697 143.654337)rotate(-79.938632)scale(0.06 -0.06)">
      <use xlink:href="#DejaVuSans-55"/>
      <use x="63.623047" xlink:href="#DejaVuSans-46"/>
      <use x="95.410156" xlink:href="#DejaVuSans-48"/>
      <use x="159.033203" xlink:href="#DejaVuSans-48"/>
      <use x="222.65625" xlink:href="#DejaVuSans-48"/>
     </g>
    </g>
   </g>
   <g id="text_33">
    <g clip-path="url(#p79efaa4b3b)">
     <!-- 7.500 -->
     <g style="fill:#75d054;" transform="translate(81.223851 143.28219)rotate(-79.002866)scale(0.06 -0.06)">
      <use xlink:href="#DejaVuSans-55"/>
      <use x="63.623047" xlink:href="#DejaVuSans-46"/>
      <use x="95.410156" xlink:href="#DejaVuSans-53"/>
      <use x="159.033203" xlink:href="#DejaVuSans-48"/>
      <use x="222.65625" xlink:href="#DejaVuSans-48"/>
     </g>
    </g>
   </g>
   <g id="text_34">
    <g clip-path="url(#p79efaa4b3b)">
     <!-- 8.000 -->
     <g style="fill:#95d840;" transform="translate(81.082962 142.907744)rotate(-78.079896)scale(0.06 -0.06)">
      <use xlink:href="#DejaVuSans-56"/>
      <use x="63.623047" xlink:href="#DejaVuSans-46"/>
      <use x="95.410156" xlink:href="#DejaVuSans-48"/>
      <use x="159.033203" xlink:href="#DejaVuSans-48"/>
      <use x="222.65625" xlink:href="#DejaVuSans-48"/>
     </g>
    </g>
   </g>
   <g id="text_35">
    <g clip-path="url(#p79efaa4b3b)">
     <!-- 8.500 -->
     <g style="fill:#bade28;" transform="translate(80.951633 142.531345)rotate(-77.219327)scale(0.06 -0.06)">
      <use xlink:href="#DejaVuSans-56"/>
      <use x="63.623047" xlink:href="#DejaVuSans-46"/>
      <use x="95.410156" xlink:href="#DejaVuSans-53"/>
      <use x="159.033203" xlink:href="#DejaVuSans-48"/>
      <use x="222.65625" xlink:href="#DejaVuSans-48"/>
     </g>
    </g>
   </g>
   <g id="text_36">
    <g clip-path="url(#p79efaa4b3b)">
     <!-- 9.000 -->
     <g style="fill:#dde318;" transform="translate(80.829852 142.153421)rotate(-76.420951)scale(0.06 -0.06)">
      <use xlink:href="#DejaVuSans-57"/>
      <use x="63.623047" xlink:href="#DejaVuSans-46"/>
      <use x="95.410156" xlink:href="#DejaVuSans-48"/>
      <use x="159.033203" xlink:href="#DejaVuSans-48"/>
      <use x="222.65625" xlink:href="#DejaVuSans-48"/>
     </g>
    </g>
   </g>
   <g id="text_37">
    <g clip-path="url(#p79efaa4b3b)">
     <!-- 9.500 -->
     <g style="fill:#fde725;" transform="translate(80.717497 141.774361)rotate(-75.683908)scale(0.06 -0.06)">
      <use xlink:href="#DejaVuSans-57"/>
      <use x="63.623047" xlink:href="#DejaVuSans-46"/>
      <use x="95.410156" xlink:href="#DejaVuSans-53"/>
      <use x="159.033203" xlink:href="#DejaVuSans-48"/>
      <use x="222.65625" xlink:href="#DejaVuSans-48"/>
     </g>
    </g>
   </g>
   <g id="text_38">
    <g clip-path="url(#p79efaa4b3b)">
     <!-- 10.000 -->
     <g style="fill:#440154;" transform="translate(80.616527 132.568751)rotate(-54.053375)scale(0.06 -0.06)">
      <use xlink:href="#DejaVuSans-49"/>
      <use x="63.623047" xlink:href="#DejaVuSans-48"/>
      <use x="127.246094" xlink:href="#DejaVuSans-46"/>
      <use x="159.033203" xlink:href="#DejaVuSans-48"/>
      <use x="222.65625" xlink:href="#DejaVuSans-48"/>
      <use x="286.279297" xlink:href="#DejaVuSans-48"/>
     </g>
    </g>
   </g>
   <g id="text_39">
    <g clip-path="url(#p79efaa4b3b)">
     <!-- 100.000 -->
     <g style="fill:#440154;" transform="translate(78.055367 225.750263)rotate(-14.643484)scale(0.06 -0.06)">
      <use xlink:href="#DejaVuSans-49"/>
      <use x="63.623047" xlink:href="#DejaVuSans-48"/>
      <use x="127.246094" xlink:href="#DejaVuSans-48"/>
      <use x="190.869141" xlink:href="#DejaVuSans-46"/>
      <use x="222.65625" xlink:href="#DejaVuSans-48"/>
      <use x="286.279297" xlink:href="#DejaVuSans-48"/>
      <use x="349.902344" xlink:href="#DejaVuSans-48"/>
     </g>
    </g>
   </g>
   <g id="text_40">
    <g clip-path="url(#p79efaa4b3b)">
     <!-- 1000.000 -->
     <g style="fill:#440154;" transform="translate(73.981852 131.390099)rotate(-68.822749)scale(0.06 -0.06)">
      <use xlink:href="#DejaVuSans-49"/>
      <use x="63.623047" xlink:href="#DejaVuSans-48"/>
      <use x="127.246094" xlink:href="#DejaVuSans-48"/>
      <use x="190.869141" xlink:href="#DejaVuSans-48"/>
      <use x="254.492188" xlink:href="#DejaVuSans-46"/>
      <use x="286.279297" xlink:href="#DejaVuSans-48"/>
      <use x="349.902344" xlink:href="#DejaVuSans-48"/>
      <use x="413.525391" xlink:href="#DejaVuSans-48"/>
     </g>
    </g>
   </g>
   <g id="text_41">
    <g clip-path="url(#p79efaa4b3b)">
     <!-- 10000.000 -->
     <g style="fill:#440154;" transform="translate(72.11962 142.609011)rotate(-81.875854)scale(0.06 -0.06)">
      <use xlink:href="#DejaVuSans-49"/>
      <use x="63.623047" xlink:href="#DejaVuSans-48"/>
      <use x="127.246094" xlink:href="#DejaVuSans-48"/>
      <use x="190.869141" xlink:href="#DejaVuSans-48"/>
      <use x="254.492188" xlink:href="#DejaVuSans-48"/>
      <use x="318.115234" xlink:href="#DejaVuSans-46"/>
      <use x="349.902344" xlink:href="#DejaVuSans-48"/>
      <use x="413.525391" xlink:href="#DejaVuSans-48"/>
      <use x="477.148438" xlink:href="#DejaVuSans-48"/>
     </g>
    </g>
   </g>
   <g id="text_42">
    <g clip-path="url(#p79efaa4b3b)">
     <!-- 100000.000 -->
     <g style="fill:#440154;" transform="translate(70.016972 126.562223)rotate(-75.887135)scale(0.06 -0.06)">
      <use xlink:href="#DejaVuSans-49"/>
      <use x="63.623047" xlink:href="#DejaVuSans-48"/>
      <use x="127.246094" xlink:href="#DejaVuSans-48"/>
      <use x="190.869141" xlink:href="#DejaVuSans-48"/>
      <use x="254.492188" xlink:href="#DejaVuSans-48"/>
      <use x="318.115234" xlink:href="#DejaVuSans-48"/>
      <use x="381.738281" xlink:href="#DejaVuSans-46"/>
      <use x="413.525391" xlink:href="#DejaVuSans-48"/>
      <use x="477.148438" xlink:href="#DejaVuSans-48"/>
      <use x="540.771484" xlink:href="#DejaVuSans-48"/>
     </g>
    </g>
   </g>
   <g id="text_43">
    <g clip-path="url(#p79efaa4b3b)">
     <!-- 1000000.000 -->
     <g style="fill:#450457;" transform="translate(67.554157 123.965245)rotate(-76.18075)scale(0.06 -0.06)">
      <use xlink:href="#DejaVuSans-49"/>
      <use x="63.623047" xlink:href="#DejaVuSans-48"/>
      <use x="127.246094" xlink:href="#DejaVuSans-48"/>
      <use x="190.869141" xlink:href="#DejaVuSans-48"/>
      <use x="254.492188" xlink:href="#DejaVuSans-48"/>
      <use x="318.115234" xlink:href="#DejaVuSans-48"/>
      <use x="381.738281" xlink:href="#DejaVuSans-48"/>
      <use x="445.361328" xlink:href="#DejaVuSans-46"/>
      <use x="477.148438" xlink:href="#DejaVuSans-48"/>
      <use x="540.771484" xlink:href="#DejaVuSans-48"/>
      <use x="604.394531" xlink:href="#DejaVuSans-48"/>
     </g>
    </g>
   </g>
   <g id="text_44">
    <g clip-path="url(#p79efaa4b3b)">
     <!-- 10000000.000 -->
     <g style="fill:#482475;" transform="translate(65.158202 119.978638)rotate(-76.604538)scale(0.06 -0.06)">
      <use xlink:href="#DejaVuSans-49"/>
      <use x="63.623047" xlink:href="#DejaVuSans-48"/>
      <use x="127.246094" xlink:href="#DejaVuSans-48"/>
      <use x="190.869141" xlink:href="#DejaVuSans-48"/>
      <use x="254.492188" xlink:href="#DejaVuSans-48"/>
      <use x="318.115234" xlink:href="#DejaVuSans-48"/>
      <use x="381.738281" xlink:href="#DejaVuSans-48"/>
      <use x="445.361328" xlink:href="#DejaVuSans-48"/>
      <use x="508.984375" xlink:href="#DejaVuSans-46"/>
      <use x="540.771484" xlink:href="#DejaVuSans-48"/>
      <use x="604.394531" xlink:href="#DejaVuSans-48"/>
      <use x="668.017578" xlink:href="#DejaVuSans-48"/>
     </g>
    </g>
   </g>
   <g id="text_45">
    <g clip-path="url(#p79efaa4b3b)">
     <!-- 10000000.000 -->
     <g style="fill:#482475;" transform="translate(104.065814 273.354141)rotate(-68.290465)scale(0.06 -0.06)">
      <use xlink:href="#DejaVuSans-49"/>
      <use x="63.623047" xlink:href="#DejaVuSans-48"/>
      <use x="127.246094" xlink:href="#DejaVuSans-48"/>
      <use x="190.869141" xlink:href="#DejaVuSans-48"/>
      <use x="254.492188" xlink:href="#DejaVuSans-48"/>
      <use x="318.115234" xlink:href="#DejaVuSans-48"/>
      <use x="381.738281" xlink:href="#DejaVuSans-48"/>
      <use x="445.361328" xlink:href="#DejaVuSans-48"/>
      <use x="508.984375" xlink:href="#DejaVuSans-46"/>
      <use x="540.771484" xlink:href="#DejaVuSans-48"/>
      <use x="604.394531" xlink:href="#DejaVuSans-48"/>
      <use x="668.017578" xlink:href="#DejaVuSans-48"/>
     </g>
    </g>
   </g>
   <g id="text_46">
    <g clip-path="url(#p79efaa4b3b)">
     <!-- 100000000.000 -->
     <g style="fill:#fde725;" transform="translate(61.744884 104.681104)rotate(-67.82527)scale(0.06 -0.06)">
      <use xlink:href="#DejaVuSans-49"/>
      <use x="63.623047" xlink:href="#DejaVuSans-48"/>
      <use x="127.246094" xlink:href="#DejaVuSans-48"/>
      <use x="190.869141" xlink:href="#DejaVuSans-48"/>
      <use x="254.492188" xlink:href="#DejaVuSans-48"/>
      <use x="318.115234" xlink:href="#DejaVuSans-48"/>
      <use x="381.738281" xlink:href="#DejaVuSans-48"/>
      <use x="445.361328" xlink:href="#DejaVuSans-48"/>
      <use x="508.984375" xlink:href="#DejaVuSans-48"/>
      <use x="572.607422" xlink:href="#DejaVuSans-46"/>
      <use x="604.394531" xlink:href="#DejaVuSans-48"/>
      <use x="668.017578" xlink:href="#DejaVuSans-48"/>
      <use x="731.640625" xlink:href="#DejaVuSans-48"/>
     </g>
    </g>
   </g>
  </g>
 </g>
 <defs>
  <clipPath id="p79efaa4b3b">
   <rect height="266.112" width="357.12" x="56.028488" y="10.999219"/>
  </clipPath>
 </defs>
</svg>
