<?xml version="1.0" encoding="utf-8" standalone="no"?>
<!DOCTYPE svg PUBLIC "-//W3C//DTD SVG 1.1//EN"
  "http://www.w3.org/Graphics/SVG/1.1/DTD/svg11.dtd">
<!-- Created with matplotlib (https://matplotlib.org/) -->
<svg height="321.713144pt" version="1.1" viewBox="0 0 420.348487 321.713144" width="420.348487pt" xmlns="http://www.w3.org/2000/svg" xmlns:xlink="http://www.w3.org/1999/xlink">
 <metadata>
  <rdf:RDF xmlns:cc="http://creativecommons.org/ns#" xmlns:dc="http://purl.org/dc/elements/1.1/" xmlns:rdf="http://www.w3.org/1999/02/22-rdf-syntax-ns#">
   <cc:Work>
    <dc:type rdf:resource="http://purl.org/dc/dcmitype/StillImage"/>
    <dc:date>2021-09-21T23:35:41.918838</dc:date>
    <dc:format>image/svg+xml</dc:format>
    <dc:creator>
     <cc:Agent>
      <dc:title>Matplotlib v3.3.1, https://matplotlib.org/</dc:title>
     </cc:Agent>
    </dc:creator>
   </cc:Work>
  </rdf:RDF>
 </metadata>
 <defs>
  <style type="text/css">*{stroke-linecap:butt;stroke-linejoin:round;}</style>
 </defs>
 <g id="figure_1">
  <g id="patch_1">
   <path d="M 0 321.713144 
L 420.348487 321.713144 
L 420.348487 0 
L 0 0 
z
" style="fill:#ffffff;"/>
  </g>
  <g id="axes_1">
   <g id="patch_2">
    <path d="M 56.028488 277.111219 
L 413.148488 277.111219 
L 413.148488 10.999219 
L 56.028488 10.999219 
z
" style="fill:#ffffff;"/>
   </g>
   <g id="matplotlib.axis_1">
    <g id="xtick_1">
     <g id="line2d_1">
      <defs>
       <path d="M 0 0 
L 0 3.5 
" id="mbf714d315c" style="stroke:#000000;stroke-width:0.8;"/>
      </defs>
      <g>
       <use style="stroke:#000000;stroke-width:0.8;" x="56.028488" xlink:href="#mbf714d315c" y="277.111219"/>
      </g>
     </g>
     <g id="text_1">
      <!-- −20 -->
      <g transform="translate(45.476144 291.709656)scale(0.1 -0.1)">
       <defs>
        <path d="M 10.59375 35.5 
L 73.1875 35.5 
L 73.1875 27.203125 
L 10.59375 27.203125 
z
" id="DejaVuSans-8722"/>
        <path d="M 19.1875 8.296875 
L 53.609375 8.296875 
L 53.609375 0 
L 7.328125 0 
L 7.328125 8.296875 
Q 12.9375 14.109375 22.625 23.890625 
Q 32.328125 33.6875 34.8125 36.53125 
Q 39.546875 41.84375 41.421875 45.53125 
Q 43.3125 49.21875 43.3125 52.78125 
Q 43.3125 58.59375 39.234375 62.25 
Q 35.15625 65.921875 28.609375 65.921875 
Q 23.96875 65.921875 18.8125 64.3125 
Q 13.671875 62.703125 7.8125 59.421875 
L 7.8125 69.390625 
Q 13.765625 71.78125 18.9375 73 
Q 24.125 74.21875 28.421875 74.21875 
Q 39.75 74.21875 46.484375 68.546875 
Q 53.21875 62.890625 53.21875 53.421875 
Q 53.21875 48.921875 51.53125 44.890625 
Q 49.859375 40.875 45.40625 35.40625 
Q 44.1875 33.984375 37.640625 27.21875 
Q 31.109375 20.453125 19.1875 8.296875 
z
" id="DejaVuSans-50"/>
        <path d="M 31.78125 66.40625 
Q 24.171875 66.40625 20.328125 58.90625 
Q 16.5 51.421875 16.5 36.375 
Q 16.5 21.390625 20.328125 13.890625 
Q 24.171875 6.390625 31.78125 6.390625 
Q 39.453125 6.390625 43.28125 13.890625 
Q 47.125 21.390625 47.125 36.375 
Q 47.125 51.421875 43.28125 58.90625 
Q 39.453125 66.40625 31.78125 66.40625 
z
M 31.78125 74.21875 
Q 44.046875 74.21875 50.515625 64.515625 
Q 56.984375 54.828125 56.984375 36.375 
Q 56.984375 17.96875 50.515625 8.265625 
Q 44.046875 -1.421875 31.78125 -1.421875 
Q 19.53125 -1.421875 13.0625 8.265625 
Q 6.59375 17.96875 6.59375 36.375 
Q 6.59375 54.828125 13.0625 64.515625 
Q 19.53125 74.21875 31.78125 74.21875 
z
" id="DejaVuSans-48"/>
       </defs>
       <use xlink:href="#DejaVuSans-8722"/>
       <use x="83.789062" xlink:href="#DejaVuSans-50"/>
       <use x="147.412109" xlink:href="#DejaVuSans-48"/>
      </g>
     </g>
    </g>
    <g id="xtick_2">
     <g id="line2d_2">
      <g>
       <use style="stroke:#000000;stroke-width:0.8;" x="98.042605" xlink:href="#mbf714d315c" y="277.111219"/>
      </g>
     </g>
     <g id="text_2">
      <!-- 0 -->
      <g transform="translate(94.861355 291.709656)scale(0.1 -0.1)">
       <use xlink:href="#DejaVuSans-48"/>
      </g>
     </g>
    </g>
    <g id="xtick_3">
     <g id="line2d_3">
      <g>
       <use style="stroke:#000000;stroke-width:0.8;" x="140.056723" xlink:href="#mbf714d315c" y="277.111219"/>
      </g>
     </g>
     <g id="text_3">
      <!-- 20 -->
      <g transform="translate(133.694223 291.709656)scale(0.1 -0.1)">
       <use xlink:href="#DejaVuSans-50"/>
       <use x="63.623047" xlink:href="#DejaVuSans-48"/>
      </g>
     </g>
    </g>
    <g id="xtick_4">
     <g id="line2d_4">
      <g>
       <use style="stroke:#000000;stroke-width:0.8;" x="182.07084" xlink:href="#mbf714d315c" y="277.111219"/>
      </g>
     </g>
     <g id="text_4">
      <!-- 40 -->
      <g transform="translate(175.70834 291.709656)scale(0.1 -0.1)">
       <defs>
        <path d="M 37.796875 64.3125 
L 12.890625 25.390625 
L 37.796875 25.390625 
z
M 35.203125 72.90625 
L 47.609375 72.90625 
L 47.609375 25.390625 
L 58.015625 25.390625 
L 58.015625 17.1875 
L 47.609375 17.1875 
L 47.609375 0 
L 37.796875 0 
L 37.796875 17.1875 
L 4.890625 17.1875 
L 4.890625 26.703125 
z
" id="DejaVuSans-52"/>
       </defs>
       <use xlink:href="#DejaVuSans-52"/>
       <use x="63.623047" xlink:href="#DejaVuSans-48"/>
      </g>
     </g>
    </g>
    <g id="xtick_5">
     <g id="line2d_5">
      <g>
       <use style="stroke:#000000;stroke-width:0.8;" x="224.084958" xlink:href="#mbf714d315c" y="277.111219"/>
      </g>
     </g>
     <g id="text_5">
      <!-- 60 -->
      <g transform="translate(217.722458 291.709656)scale(0.1 -0.1)">
       <defs>
        <path d="M 33.015625 40.375 
Q 26.375 40.375 22.484375 35.828125 
Q 18.609375 31.296875 18.609375 23.390625 
Q 18.609375 15.53125 22.484375 10.953125 
Q 26.375 6.390625 33.015625 6.390625 
Q 39.65625 6.390625 43.53125 10.953125 
Q 47.40625 15.53125 47.40625 23.390625 
Q 47.40625 31.296875 43.53125 35.828125 
Q 39.65625 40.375 33.015625 40.375 
z
M 52.59375 71.296875 
L 52.59375 62.3125 
Q 48.875 64.0625 45.09375 64.984375 
Q 41.3125 65.921875 37.59375 65.921875 
Q 27.828125 65.921875 22.671875 59.328125 
Q 17.53125 52.734375 16.796875 39.40625 
Q 19.671875 43.65625 24.015625 45.921875 
Q 28.375 48.1875 33.59375 48.1875 
Q 44.578125 48.1875 50.953125 41.515625 
Q 57.328125 34.859375 57.328125 23.390625 
Q 57.328125 12.15625 50.6875 5.359375 
Q 44.046875 -1.421875 33.015625 -1.421875 
Q 20.359375 -1.421875 13.671875 8.265625 
Q 6.984375 17.96875 6.984375 36.375 
Q 6.984375 53.65625 15.1875 63.9375 
Q 23.390625 74.21875 37.203125 74.21875 
Q 40.921875 74.21875 44.703125 73.484375 
Q 48.484375 72.75 52.59375 71.296875 
z
" id="DejaVuSans-54"/>
       </defs>
       <use xlink:href="#DejaVuSans-54"/>
       <use x="63.623047" xlink:href="#DejaVuSans-48"/>
      </g>
     </g>
    </g>
    <g id="xtick_6">
     <g id="line2d_6">
      <g>
       <use style="stroke:#000000;stroke-width:0.8;" x="266.099076" xlink:href="#mbf714d315c" y="277.111219"/>
      </g>
     </g>
     <g id="text_6">
      <!-- 80 -->
      <g transform="translate(259.736576 291.709656)scale(0.1 -0.1)">
       <defs>
        <path d="M 31.78125 34.625 
Q 24.75 34.625 20.71875 30.859375 
Q 16.703125 27.09375 16.703125 20.515625 
Q 16.703125 13.921875 20.71875 10.15625 
Q 24.75 6.390625 31.78125 6.390625 
Q 38.8125 6.390625 42.859375 10.171875 
Q 46.921875 13.96875 46.921875 20.515625 
Q 46.921875 27.09375 42.890625 30.859375 
Q 38.875 34.625 31.78125 34.625 
z
M 21.921875 38.8125 
Q 15.578125 40.375 12.03125 44.71875 
Q 8.5 49.078125 8.5 55.328125 
Q 8.5 64.0625 14.71875 69.140625 
Q 20.953125 74.21875 31.78125 74.21875 
Q 42.671875 74.21875 48.875 69.140625 
Q 55.078125 64.0625 55.078125 55.328125 
Q 55.078125 49.078125 51.53125 44.71875 
Q 48 40.375 41.703125 38.8125 
Q 48.828125 37.15625 52.796875 32.3125 
Q 56.78125 27.484375 56.78125 20.515625 
Q 56.78125 9.90625 50.3125 4.234375 
Q 43.84375 -1.421875 31.78125 -1.421875 
Q 19.734375 -1.421875 13.25 4.234375 
Q 6.78125 9.90625 6.78125 20.515625 
Q 6.78125 27.484375 10.78125 32.3125 
Q 14.796875 37.15625 21.921875 38.8125 
z
M 18.3125 54.390625 
Q 18.3125 48.734375 21.84375 45.5625 
Q 25.390625 42.390625 31.78125 42.390625 
Q 38.140625 42.390625 41.71875 45.5625 
Q 45.3125 48.734375 45.3125 54.390625 
Q 45.3125 60.0625 41.71875 63.234375 
Q 38.140625 66.40625 31.78125 66.40625 
Q 25.390625 66.40625 21.84375 63.234375 
Q 18.3125 60.0625 18.3125 54.390625 
z
" id="DejaVuSans-56"/>
       </defs>
       <use xlink:href="#DejaVuSans-56"/>
       <use x="63.623047" xlink:href="#DejaVuSans-48"/>
      </g>
     </g>
    </g>
    <g id="xtick_7">
     <g id="line2d_7">
      <g>
       <use style="stroke:#000000;stroke-width:0.8;" x="308.113193" xlink:href="#mbf714d315c" y="277.111219"/>
      </g>
     </g>
     <g id="text_7">
      <!-- 100 -->
      <g transform="translate(298.569443 291.709656)scale(0.1 -0.1)">
       <defs>
        <path d="M 12.40625 8.296875 
L 28.515625 8.296875 
L 28.515625 63.921875 
L 10.984375 60.40625 
L 10.984375 69.390625 
L 28.421875 72.90625 
L 38.28125 72.90625 
L 38.28125 8.296875 
L 54.390625 8.296875 
L 54.390625 0 
L 12.40625 0 
z
" id="DejaVuSans-49"/>
       </defs>
       <use xlink:href="#DejaVuSans-49"/>
       <use x="63.623047" xlink:href="#DejaVuSans-48"/>
       <use x="127.246094" xlink:href="#DejaVuSans-48"/>
      </g>
     </g>
    </g>
    <g id="xtick_8">
     <g id="line2d_8">
      <g>
       <use style="stroke:#000000;stroke-width:0.8;" x="350.127311" xlink:href="#mbf714d315c" y="277.111219"/>
      </g>
     </g>
     <g id="text_8">
      <!-- 120 -->
      <g transform="translate(340.583561 291.709656)scale(0.1 -0.1)">
       <use xlink:href="#DejaVuSans-49"/>
       <use x="63.623047" xlink:href="#DejaVuSans-50"/>
       <use x="127.246094" xlink:href="#DejaVuSans-48"/>
      </g>
     </g>
    </g>
    <g id="xtick_9">
     <g id="line2d_9">
      <g>
       <use style="stroke:#000000;stroke-width:0.8;" x="392.141429" xlink:href="#mbf714d315c" y="277.111219"/>
      </g>
     </g>
     <g id="text_9">
      <!-- 140 -->
      <g transform="translate(382.597679 291.709656)scale(0.1 -0.1)">
       <use xlink:href="#DejaVuSans-49"/>
       <use x="63.623047" xlink:href="#DejaVuSans-52"/>
       <use x="127.246094" xlink:href="#DejaVuSans-48"/>
      </g>
     </g>
    </g>
    <g id="text_10">
     <!-- 1st PC: 75.70 % -->
     <g transform="translate(165.868088 310.919444)scale(0.1728 -0.1728)">
      <defs>
       <path d="M 44.28125 53.078125 
L 44.28125 44.578125 
Q 40.484375 46.53125 36.375 47.5 
Q 32.28125 48.484375 27.875 48.484375 
Q 21.1875 48.484375 17.84375 46.4375 
Q 14.5 44.390625 14.5 40.28125 
Q 14.5 37.15625 16.890625 35.375 
Q 19.28125 33.59375 26.515625 31.984375 
L 29.59375 31.296875 
Q 39.15625 29.25 43.1875 25.515625 
Q 47.21875 21.78125 47.21875 15.09375 
Q 47.21875 7.46875 41.1875 3.015625 
Q 35.15625 -1.421875 24.609375 -1.421875 
Q 20.21875 -1.421875 15.453125 -0.5625 
Q 10.6875 0.296875 5.421875 2 
L 5.421875 11.28125 
Q 10.40625 8.6875 15.234375 7.390625 
Q 20.0625 6.109375 24.8125 6.109375 
Q 31.15625 6.109375 34.5625 8.28125 
Q 37.984375 10.453125 37.984375 14.40625 
Q 37.984375 18.0625 35.515625 20.015625 
Q 33.0625 21.96875 24.703125 23.78125 
L 21.578125 24.515625 
Q 13.234375 26.265625 9.515625 29.90625 
Q 5.8125 33.546875 5.8125 39.890625 
Q 5.8125 47.609375 11.28125 51.796875 
Q 16.75 56 26.8125 56 
Q 31.78125 56 36.171875 55.265625 
Q 40.578125 54.546875 44.28125 53.078125 
z
" id="DejaVuSans-115"/>
       <path d="M 18.3125 70.21875 
L 18.3125 54.6875 
L 36.8125 54.6875 
L 36.8125 47.703125 
L 18.3125 47.703125 
L 18.3125 18.015625 
Q 18.3125 11.328125 20.140625 9.421875 
Q 21.96875 7.515625 27.59375 7.515625 
L 36.8125 7.515625 
L 36.8125 0 
L 27.59375 0 
Q 17.1875 0 13.234375 3.875 
Q 9.28125 7.765625 9.28125 18.015625 
L 9.28125 47.703125 
L 2.6875 47.703125 
L 2.6875 54.6875 
L 9.28125 54.6875 
L 9.28125 70.21875 
z
" id="DejaVuSans-116"/>
       <path id="DejaVuSans-32"/>
       <path d="M 19.671875 64.796875 
L 19.671875 37.40625 
L 32.078125 37.40625 
Q 38.96875 37.40625 42.71875 40.96875 
Q 46.484375 44.53125 46.484375 51.125 
Q 46.484375 57.671875 42.71875 61.234375 
Q 38.96875 64.796875 32.078125 64.796875 
z
M 9.8125 72.90625 
L 32.078125 72.90625 
Q 44.34375 72.90625 50.609375 67.359375 
Q 56.890625 61.8125 56.890625 51.125 
Q 56.890625 40.328125 50.609375 34.8125 
Q 44.34375 29.296875 32.078125 29.296875 
L 19.671875 29.296875 
L 19.671875 0 
L 9.8125 0 
z
" id="DejaVuSans-80"/>
       <path d="M 64.40625 67.28125 
L 64.40625 56.890625 
Q 59.421875 61.53125 53.78125 63.8125 
Q 48.140625 66.109375 41.796875 66.109375 
Q 29.296875 66.109375 22.65625 58.46875 
Q 16.015625 50.828125 16.015625 36.375 
Q 16.015625 21.96875 22.65625 14.328125 
Q 29.296875 6.6875 41.796875 6.6875 
Q 48.140625 6.6875 53.78125 8.984375 
Q 59.421875 11.28125 64.40625 15.921875 
L 64.40625 5.609375 
Q 59.234375 2.09375 53.4375 0.328125 
Q 47.65625 -1.421875 41.21875 -1.421875 
Q 24.65625 -1.421875 15.125 8.703125 
Q 5.609375 18.84375 5.609375 36.375 
Q 5.609375 53.953125 15.125 64.078125 
Q 24.65625 74.21875 41.21875 74.21875 
Q 47.75 74.21875 53.53125 72.484375 
Q 59.328125 70.75 64.40625 67.28125 
z
" id="DejaVuSans-67"/>
       <path d="M 11.71875 12.40625 
L 22.015625 12.40625 
L 22.015625 0 
L 11.71875 0 
z
M 11.71875 51.703125 
L 22.015625 51.703125 
L 22.015625 39.3125 
L 11.71875 39.3125 
z
" id="DejaVuSans-58"/>
       <path d="M 8.203125 72.90625 
L 55.078125 72.90625 
L 55.078125 68.703125 
L 28.609375 0 
L 18.3125 0 
L 43.21875 64.59375 
L 8.203125 64.59375 
z
" id="DejaVuSans-55"/>
       <path d="M 10.796875 72.90625 
L 49.515625 72.90625 
L 49.515625 64.59375 
L 19.828125 64.59375 
L 19.828125 46.734375 
Q 21.96875 47.46875 24.109375 47.828125 
Q 26.265625 48.1875 28.421875 48.1875 
Q 40.625 48.1875 47.75 41.5 
Q 54.890625 34.8125 54.890625 23.390625 
Q 54.890625 11.625 47.5625 5.09375 
Q 40.234375 -1.421875 26.90625 -1.421875 
Q 22.3125 -1.421875 17.546875 -0.640625 
Q 12.796875 0.140625 7.71875 1.703125 
L 7.71875 11.625 
Q 12.109375 9.234375 16.796875 8.0625 
Q 21.484375 6.890625 26.703125 6.890625 
Q 35.15625 6.890625 40.078125 11.328125 
Q 45.015625 15.765625 45.015625 23.390625 
Q 45.015625 31 40.078125 35.4375 
Q 35.15625 39.890625 26.703125 39.890625 
Q 22.75 39.890625 18.8125 39.015625 
Q 14.890625 38.140625 10.796875 36.28125 
z
" id="DejaVuSans-53"/>
       <path d="M 10.6875 12.40625 
L 21 12.40625 
L 21 0 
L 10.6875 0 
z
" id="DejaVuSans-46"/>
       <path d="M 72.703125 32.078125 
Q 68.453125 32.078125 66.03125 28.46875 
Q 63.625 24.859375 63.625 18.40625 
Q 63.625 12.0625 66.03125 8.421875 
Q 68.453125 4.78125 72.703125 4.78125 
Q 76.859375 4.78125 79.265625 8.421875 
Q 81.6875 12.0625 81.6875 18.40625 
Q 81.6875 24.8125 79.265625 28.4375 
Q 76.859375 32.078125 72.703125 32.078125 
z
M 72.703125 38.28125 
Q 80.421875 38.28125 84.953125 32.90625 
Q 89.5 27.546875 89.5 18.40625 
Q 89.5 9.28125 84.9375 3.921875 
Q 80.375 -1.421875 72.703125 -1.421875 
Q 64.890625 -1.421875 60.34375 3.921875 
Q 55.8125 9.28125 55.8125 18.40625 
Q 55.8125 27.59375 60.375 32.9375 
Q 64.9375 38.28125 72.703125 38.28125 
z
M 22.3125 68.015625 
Q 18.109375 68.015625 15.6875 64.375 
Q 13.28125 60.75 13.28125 54.390625 
Q 13.28125 47.953125 15.671875 44.328125 
Q 18.0625 40.71875 22.3125 40.71875 
Q 26.5625 40.71875 28.96875 44.328125 
Q 31.390625 47.953125 31.390625 54.390625 
Q 31.390625 60.6875 28.953125 64.34375 
Q 26.515625 68.015625 22.3125 68.015625 
z
M 66.40625 74.21875 
L 74.21875 74.21875 
L 28.609375 -1.421875 
L 20.796875 -1.421875 
z
M 22.3125 74.21875 
Q 30.03125 74.21875 34.609375 68.875 
Q 39.203125 63.53125 39.203125 54.390625 
Q 39.203125 45.171875 34.640625 39.84375 
Q 30.078125 34.515625 22.3125 34.515625 
Q 14.546875 34.515625 10.03125 39.859375 
Q 5.515625 45.21875 5.515625 54.390625 
Q 5.515625 63.484375 10.046875 68.84375 
Q 14.59375 74.21875 22.3125 74.21875 
z
" id="DejaVuSans-37"/>
      </defs>
      <use xlink:href="#DejaVuSans-49"/>
      <use x="63.623047" xlink:href="#DejaVuSans-115"/>
      <use x="115.722656" xlink:href="#DejaVuSans-116"/>
      <use x="154.931641" xlink:href="#DejaVuSans-32"/>
      <use x="186.71875" xlink:href="#DejaVuSans-80"/>
      <use x="247.021484" xlink:href="#DejaVuSans-67"/>
      <use x="316.845703" xlink:href="#DejaVuSans-58"/>
      <use x="350.537109" xlink:href="#DejaVuSans-32"/>
      <use x="382.324219" xlink:href="#DejaVuSans-55"/>
      <use x="445.947266" xlink:href="#DejaVuSans-53"/>
      <use x="509.570312" xlink:href="#DejaVuSans-46"/>
      <use x="541.357422" xlink:href="#DejaVuSans-55"/>
      <use x="604.980469" xlink:href="#DejaVuSans-48"/>
      <use x="668.603516" xlink:href="#DejaVuSans-32"/>
      <use x="700.390625" xlink:href="#DejaVuSans-37"/>
     </g>
    </g>
   </g>
   <g id="matplotlib.axis_2">
    <g id="ytick_1">
     <g id="line2d_10">
      <defs>
       <path d="M 0 0 
L -3.5 0 
" id="m9845cce6ff" style="stroke:#000000;stroke-width:0.8;"/>
      </defs>
      <g>
       <use style="stroke:#000000;stroke-width:0.8;" x="56.028488" xlink:href="#m9845cce6ff" y="277.111219"/>
      </g>
     </g>
     <g id="text_11">
      <!-- −20 -->
      <g transform="translate(27.9238 280.910437)scale(0.1 -0.1)">
       <use xlink:href="#DejaVuSans-8722"/>
       <use x="83.789062" xlink:href="#DejaVuSans-50"/>
       <use x="147.412109" xlink:href="#DejaVuSans-48"/>
      </g>
     </g>
    </g>
    <g id="ytick_2">
     <g id="line2d_11">
      <g>
       <use style="stroke:#000000;stroke-width:0.8;" x="56.028488" xlink:href="#m9845cce6ff" y="243.847219"/>
      </g>
     </g>
     <g id="text_12">
      <!-- −15 -->
      <g transform="translate(27.9238 247.646437)scale(0.1 -0.1)">
       <use xlink:href="#DejaVuSans-8722"/>
       <use x="83.789062" xlink:href="#DejaVuSans-49"/>
       <use x="147.412109" xlink:href="#DejaVuSans-53"/>
      </g>
     </g>
    </g>
    <g id="ytick_3">
     <g id="line2d_12">
      <g>
       <use style="stroke:#000000;stroke-width:0.8;" x="56.028488" xlink:href="#m9845cce6ff" y="210.583219"/>
      </g>
     </g>
     <g id="text_13">
      <!-- −10 -->
      <g transform="translate(27.9238 214.382437)scale(0.1 -0.1)">
       <use xlink:href="#DejaVuSans-8722"/>
       <use x="83.789062" xlink:href="#DejaVuSans-49"/>
       <use x="147.412109" xlink:href="#DejaVuSans-48"/>
      </g>
     </g>
    </g>
    <g id="ytick_4">
     <g id="line2d_13">
      <g>
       <use style="stroke:#000000;stroke-width:0.8;" x="56.028488" xlink:href="#m9845cce6ff" y="177.319219"/>
      </g>
     </g>
     <g id="text_14">
      <!-- −5 -->
      <g transform="translate(34.2863 181.118437)scale(0.1 -0.1)">
       <use xlink:href="#DejaVuSans-8722"/>
       <use x="83.789062" xlink:href="#DejaVuSans-53"/>
      </g>
     </g>
    </g>
    <g id="ytick_5">
     <g id="line2d_14">
      <g>
       <use style="stroke:#000000;stroke-width:0.8;" x="56.028488" xlink:href="#m9845cce6ff" y="144.055219"/>
      </g>
     </g>
     <g id="text_15">
      <!-- 0 -->
      <g transform="translate(42.665987 147.854437)scale(0.1 -0.1)">
       <use xlink:href="#DejaVuSans-48"/>
      </g>
     </g>
    </g>
    <g id="ytick_6">
     <g id="line2d_15">
      <g>
       <use style="stroke:#000000;stroke-width:0.8;" x="56.028488" xlink:href="#m9845cce6ff" y="110.791219"/>
      </g>
     </g>
     <g id="text_16">
      <!-- 5 -->
      <g transform="translate(42.665987 114.590437)scale(0.1 -0.1)">
       <use xlink:href="#DejaVuSans-53"/>
      </g>
     </g>
    </g>
    <g id="ytick_7">
     <g id="line2d_16">
      <g>
       <use style="stroke:#000000;stroke-width:0.8;" x="56.028488" xlink:href="#m9845cce6ff" y="77.527219"/>
      </g>
     </g>
     <g id="text_17">
      <!-- 10 -->
      <g transform="translate(36.303488 81.326437)scale(0.1 -0.1)">
       <use xlink:href="#DejaVuSans-49"/>
       <use x="63.623047" xlink:href="#DejaVuSans-48"/>
      </g>
     </g>
    </g>
    <g id="ytick_8">
     <g id="line2d_17">
      <g>
       <use style="stroke:#000000;stroke-width:0.8;" x="56.028488" xlink:href="#m9845cce6ff" y="44.263219"/>
      </g>
     </g>
     <g id="text_18">
      <!-- 15 -->
      <g transform="translate(36.303488 48.062437)scale(0.1 -0.1)">
       <use xlink:href="#DejaVuSans-49"/>
       <use x="63.623047" xlink:href="#DejaVuSans-53"/>
      </g>
     </g>
    </g>
    <g id="ytick_9">
     <g id="line2d_18">
      <g>
       <use style="stroke:#000000;stroke-width:0.8;" x="56.028488" xlink:href="#m9845cce6ff" y="10.999219"/>
      </g>
     </g>
     <g id="text_19">
      <!-- 20 -->
      <g transform="translate(36.303488 14.798437)scale(0.1 -0.1)">
       <use xlink:href="#DejaVuSans-50"/>
       <use x="63.623047" xlink:href="#DejaVuSans-48"/>
      </g>
     </g>
    </g>
    <g id="text_20">
     <!-- 2nd PC: 12.20 % -->
     <g transform="translate(20.3301 215.848219)rotate(-90)scale(0.1728 -0.1728)">
      <defs>
       <path d="M 54.890625 33.015625 
L 54.890625 0 
L 45.90625 0 
L 45.90625 32.71875 
Q 45.90625 40.484375 42.875 44.328125 
Q 39.84375 48.1875 33.796875 48.1875 
Q 26.515625 48.1875 22.3125 43.546875 
Q 18.109375 38.921875 18.109375 30.90625 
L 18.109375 0 
L 9.078125 0 
L 9.078125 54.6875 
L 18.109375 54.6875 
L 18.109375 46.1875 
Q 21.34375 51.125 25.703125 53.5625 
Q 30.078125 56 35.796875 56 
Q 45.21875 56 50.046875 50.171875 
Q 54.890625 44.34375 54.890625 33.015625 
z
" id="DejaVuSans-110"/>
       <path d="M 45.40625 46.390625 
L 45.40625 75.984375 
L 54.390625 75.984375 
L 54.390625 0 
L 45.40625 0 
L 45.40625 8.203125 
Q 42.578125 3.328125 38.25 0.953125 
Q 33.9375 -1.421875 27.875 -1.421875 
Q 17.96875 -1.421875 11.734375 6.484375 
Q 5.515625 14.40625 5.515625 27.296875 
Q 5.515625 40.1875 11.734375 48.09375 
Q 17.96875 56 27.875 56 
Q 33.9375 56 38.25 53.625 
Q 42.578125 51.265625 45.40625 46.390625 
z
M 14.796875 27.296875 
Q 14.796875 17.390625 18.875 11.75 
Q 22.953125 6.109375 30.078125 6.109375 
Q 37.203125 6.109375 41.296875 11.75 
Q 45.40625 17.390625 45.40625 27.296875 
Q 45.40625 37.203125 41.296875 42.84375 
Q 37.203125 48.484375 30.078125 48.484375 
Q 22.953125 48.484375 18.875 42.84375 
Q 14.796875 37.203125 14.796875 27.296875 
z
" id="DejaVuSans-100"/>
      </defs>
      <use xlink:href="#DejaVuSans-50"/>
      <use x="63.623047" xlink:href="#DejaVuSans-110"/>
      <use x="127.001953" xlink:href="#DejaVuSans-100"/>
      <use x="190.478516" xlink:href="#DejaVuSans-32"/>
      <use x="222.265625" xlink:href="#DejaVuSans-80"/>
      <use x="282.568359" xlink:href="#DejaVuSans-67"/>
      <use x="352.392578" xlink:href="#DejaVuSans-58"/>
      <use x="386.083984" xlink:href="#DejaVuSans-32"/>
      <use x="417.871094" xlink:href="#DejaVuSans-49"/>
      <use x="481.494141" xlink:href="#DejaVuSans-50"/>
      <use x="545.117188" xlink:href="#DejaVuSans-46"/>
      <use x="576.904297" xlink:href="#DejaVuSans-50"/>
      <use x="640.527344" xlink:href="#DejaVuSans-48"/>
      <use x="704.150391" xlink:href="#DejaVuSans-32"/>
      <use x="735.9375" xlink:href="#DejaVuSans-37"/>
     </g>
    </g>
   </g>
   <g id="LineCollection_1"/>
   <g id="LineCollection_2"/>
   <g id="LineCollection_3"/>
   <g id="LineCollection_4">
    <path clip-path="url(#p56c0c90377)" d="M 100.713917 147.770389 
L 100.772673 152.925619 
L 100.143311 155.221083 
L 98.362876 161.796019 
L 98.042605 162.719763 
L 95.941899 166.293365 
L 94.853926 161.796019 
L 94.844242 152.925619 
L 94.904676 144.055219 
L 95.065081 140.503466 
" style="fill:none;stroke:#453781;stroke-width:1.5;"/>
   </g>
   <g id="LineCollection_5">
    <path clip-path="url(#p56c0c90377)" d="M 101.161381 140.252404 
L 101.844871 144.055219 
L 102.244017 147.455827 
L 102.264599 152.925619 
L 102.244017 155.812227 
L 100.735436 161.796019 
L 100.143311 163.546723 
L 98.194862 170.666419 
L 98.042605 171.06673 
L 95.941899 175.061026 
L 93.932037 179.536819 
L 93.841193 179.643828 
L 93.267196 179.536819 
L 91.740488 176.631428 
L 91.369873 170.666419 
L 91.670415 161.796019 
L 91.740488 160.230663 
L 92.113918 152.925619 
L 92.394019 144.055219 
L 92.859889 138.880006 
" style="fill:none;stroke:#404688;stroke-width:1.5;"/>
   </g>
   <g id="LineCollection_6">
    <path clip-path="url(#p56c0c90377)" d="M 93.240375 131.988603 
L 93.841193 130.831655 
L 95.537105 126.314419 
L 95.941899 126.222901 
L 98.042605 126.172739 
L 98.246317 126.314419 
L 100.143311 132.575635 
L 100.331474 135.184819 
L 102.244017 143.814362 
L 102.25019 144.055219 
L 102.302213 152.925619 
L 102.244017 161.087562 
L 102.065407 161.796019 
L 100.143311 167.478978 
L 99.271003 170.666419 
L 98.042605 173.896112 
L 96.100638 179.536819 
L 95.941899 179.833186 
L 93.841193 182.472286 
L 91.740488 184.500919 
L 90.154384 179.536819 
L 89.639782 171.630137 
L 89.570228 170.666419 
L 89.625396 161.796019 
L 89.639782 161.373806 
L 89.793753 156.644764 
" style="fill:none;stroke:#39558c;stroke-width:1.5;"/>
   </g>
   <g id="LineCollection_7">
    <path clip-path="url(#p56c0c90377)" d="M 87.516097 176.067427 
L 87.539076 171.665081 
L 87.614602 170.666419 
L 87.539076 167.842916 
L 87.005142 161.796019 
L 85.43837 157.465817 
L 85.421971 152.925619 
L 85.43837 145.792398 
L 86.72758 144.055219 
L 87.539076 143.512311 
L 89.639782 136.002844 
L 89.758843 135.184819 
L 91.740488 132.729812 
L 93.841193 127.683214 
L 94.355082 126.314419 
L 95.941899 125.955664 
L 98.042605 125.936347 
L 98.58621 126.314419 
L 100.143311 131.453785 
L 100.412377 135.184819 
L 102.244017 143.449321 
L 102.259547 144.055219 
L 102.339827 152.925619 
L 102.362536 161.796019 
L 102.244017 163.937163 
L 100.280038 170.666419 
L 100.143311 171.0386 
L 98.042605 176.725493 
L 97.07473 179.536819 
L 96.644306 180.340425 
" style="fill:none;stroke:#33638d;stroke-width:1.5;"/>
   </g>
   <g id="LineCollection_8">
    <path clip-path="url(#p56c0c90377)" d="M 87.212119 175.946629 
L 86.990191 170.666419 
L 85.43837 163.728935 
L 85.405379 161.796019 
L 85.357527 152.925619 
L 85.381195 144.055219 
L 85.43837 141.643518 
L 87.249496 135.184819 
L 87.539076 134.921414 
L 89.639782 134.068298 
L 91.740488 130.582808 
L 93.376144 126.314419 
L 93.841193 126.164677 
L 95.941899 125.688427 
L 98.042605 125.699955 
L 98.926103 126.314419 
L 100.143311 130.331936 
L 100.49328 135.184819 
L 102.244017 143.084281 
L 102.268903 144.055219 
L 102.377441 152.925619 
L 102.499442 161.796019 
L 102.244017 166.410462 
L 101.001887 170.666419 
L 100.143311 173.003537 
L 98.046629 179.536819 
L 98.042605 179.545473 
L 95.941899 183.470468 
L 93.841193 188.129202 
L 93.692705 188.407219 
L 93.054553 189.348547 
" style="fill:none;stroke:#2d718e;stroke-width:1.5;"/>
   </g>
   <g id="LineCollection_9">
    <path clip-path="url(#p56c0c90377)" d="M 95.34937 125.556177 
L 95.941899 125.42119 
L 98.042605 125.463563 
L 99.265996 126.314419 
L 100.143311 129.210086 
L 100.574183 135.184819 
L 102.244017 142.71924 
L 102.278259 144.055219 
L 102.415055 152.925619 
L 102.636347 161.796019 
L 102.244017 168.88376 
L 101.723736 170.666419 
L 100.143311 174.968474 
L 98.677223 179.536819 
L 98.042605 180.901597 
L 95.941899 185.289108 
L 94.565219 188.407219 
L 93.841193 189.444731 
L 91.740488 193.515298 
L 90.147857 197.277619 
L 89.639782 197.587753 
L 89.58013 197.277619 
L 87.591541 188.407219 
L 87.539076 188.206454 
L 87.228043 179.536819 
L 86.419257 170.666419 
L 85.43837 166.281321 
L 85.361815 161.796019 
L 85.293083 152.925619 
L 85.313469 146.267391 
" style="fill:none;stroke:#287d8e;stroke-width:1.5;"/>
   </g>
   <g id="LineCollection_10">
    <path clip-path="url(#p56c0c90377)" d="M 95.572833 125.23844 
L 95.941899 125.153953 
L 98.042605 125.227171 
L 99.605888 126.314419 
L 100.143311 128.088236 
L 100.655086 135.184819 
L 102.244017 142.3542 
L 102.287616 144.055219 
L 102.45267 152.925619 
L 102.773253 161.796019 
L 102.33655 170.666419 
L 102.244017 171.101478 
L 100.143311 176.933411 
L 99.307817 179.536819 
L 98.042605 182.257721 
L 95.941899 187.107749 
L 95.368169 188.407219 
L 93.841193 190.59534 
L 91.740488 195.743686 
L 91.091158 197.277619 
L 89.639782 198.163552 
L 89.469381 197.277619 
L 87.539076 188.864171 
L 87.49426 188.407219 
L 87.09307 179.536819 
L 85.848323 170.666419 
L 85.43837 168.833707 
L 85.318251 161.796019 
L 85.228638 152.925619 
L 85.254673 145.39124 
" style="fill:none;stroke:#238a8d;stroke-width:1.5;"/>
   </g>
   <g id="LineCollection_11">
    <path clip-path="url(#p56c0c90377)" d="M 95.924377 124.890747 
L 95.941899 124.886716 
L 98.042605 124.990779 
L 99.945781 126.314419 
L 100.143311 126.966387 
L 100.735989 135.184819 
L 102.244017 141.989159 
L 102.296972 144.055219 
L 102.490284 152.925619 
L 102.910158 161.796019 
L 102.667925 170.666419 
L 102.244017 172.6595 
L 100.143311 178.898348 
L 99.938411 179.536819 
L 98.042605 183.613845 
L 96.098883 188.407219 
L 95.941899 188.64337 
L 93.841193 191.745949 
L 91.868371 197.277619 
L 91.740488 197.597107 
L 89.639782 198.739351 
L 89.358632 197.277619 
L 87.539076 189.346884 
L 87.446918 188.407219 
L 86.958097 179.536819 
L 85.43837 170.883125 
L 85.431215 170.666419 
L 85.274687 161.796019 
L 85.164194 152.925619 
L 85.195916 144.684025 
" style="fill:none;stroke:#1f968b;stroke-width:1.5;"/>
   </g>
   <g id="LineCollection_12">
    <path clip-path="url(#p56c0c90377)" d="M 96.245066 124.638949 
L 98.042605 124.754387 
L 100.143311 126.298568 
L 100.146929 126.314419 
L 100.816892 135.184819 
L 102.244017 141.624119 
L 102.306328 144.055219 
L 102.527898 152.925619 
L 103.047064 161.796019 
L 102.999301 170.666419 
L 102.244017 174.217521 
L 100.490107 179.536819 
L 100.143311 180.231846 
L 98.042605 184.969969 
L 96.648794 188.407219 
L 95.941899 189.470602 
L 93.841193 192.896558 
L 92.278725 197.277619 
L 91.740488 198.622289 
L 89.639782 199.315149 
L 89.247883 197.277619 
L 87.539076 189.829596 
L 87.399576 188.407219 
L 86.823124 179.536819 
L 85.43837 171.651693 
L 85.405842 170.666419 
L 85.231123 161.796019 
L 85.09975 152.925619 
L 85.137054 144.132963 
" style="fill:none;stroke:#20a386;stroke-width:1.5;"/>
   </g>
   <g id="LineCollection_13">
    <path clip-path="url(#p56c0c90377)" d="M 96.538722 124.399333 
L 98.042605 124.517995 
L 100.143311 126.260723 
L 100.155568 126.314419 
L 100.897795 135.184819 
L 102.244017 141.259078 
L 102.315685 144.055219 
L 102.565512 152.925619 
L 103.183969 161.796019 
L 103.330676 170.666419 
L 102.244017 175.775542 
L 101.003827 179.536819 
L 100.143311 181.261411 
L 98.042605 186.326093 
L 97.198705 188.407219 
L 95.941899 190.297834 
L 93.841193 194.047166 
L 92.68908 197.277619 
L 91.740488 199.647472 
L 89.639782 199.890948 
L 89.137134 197.277619 
L 87.539076 190.312308 
L 87.352234 188.407219 
L 86.688151 179.536819 
L 85.43837 172.420261 
L 85.380468 170.666419 
L 85.187559 161.796019 
L 85.035306 152.925619 
L 85.076431 144.055219 
L 85.090548 143.559828 
" style="fill:none;stroke:#29af7f;stroke-width:1.5;"/>
   </g>
   <g id="LineCollection_14">
    <path clip-path="url(#p56c0c90377)" d="M 96.812619 124.166493 
L 98.042605 124.281603 
L 100.143311 126.222878 
L 100.164207 126.314419 
L 100.978698 135.184819 
L 102.244017 140.894038 
L 102.325041 144.055219 
L 102.603126 152.925619 
L 103.320874 161.796019 
L 103.662052 170.666419 
L 102.244017 177.333563 
L 101.517547 179.536819 
L 100.143311 182.290977 
L 98.042605 187.682217 
L 97.748615 188.407219 
L 95.941899 191.125066 
L 93.841193 195.197775 
L 93.099435 197.277619 
L 91.740488 200.672655 
L 89.639782 200.466747 
L 89.026385 197.277619 
L 87.539076 190.79502 
L 87.304892 188.407219 
L 86.553178 179.536819 
L 85.43837 173.188829 
L 85.355095 170.666419 
L 85.143995 161.796019 
L 84.970862 152.925619 
L 85.015479 144.055219 
L 85.048489 142.970143 
" style="fill:none;stroke:#3dbc74;stroke-width:1.5;"/>
   </g>
   <g id="LineCollection_15">
    <path clip-path="url(#p56c0c90377)" d="M 97.108444 123.94407 
L 98.042605 124.045211 
L 100.143311 126.185034 
L 100.172846 126.314419 
L 101.059601 135.184819 
L 102.244017 140.528997 
L 102.334397 144.055219 
L 102.64074 152.925619 
L 103.45778 161.796019 
L 103.993428 170.666419 
L 102.244017 178.891584 
L 102.031266 179.536819 
L 100.143311 183.320542 
L 98.223449 188.407219 
L 98.042605 188.699874 
L 95.941899 191.952298 
L 93.841193 196.348384 
L 93.50979 197.277619 
L 91.740488 201.697837 
L 89.639782 201.042546 
L 88.915636 197.277619 
L 87.539076 191.277732 
L 87.257549 188.407219 
L 86.418206 179.536819 
L 85.43837 173.957397 
L 85.329721 170.666419 
L 85.100431 161.796019 
L 84.906418 152.925619 
L 84.954526 144.055219 
L 85.009105 142.36793 
" style="fill:none;stroke:#56c667;stroke-width:1.5;"/>
   </g>
   <g id="LineCollection_16">
    <path clip-path="url(#p56c0c90377)" d="M 97.429797 123.733473 
L 98.042605 123.80882 
L 100.143311 126.147189 
L 100.181484 126.314419 
L 101.140504 135.184819 
L 102.244017 140.163956 
L 102.343754 144.055219 
L 102.678354 152.925619 
L 103.594685 161.796019 
L 104.324803 170.666419 
L 102.440396 179.536819 
L 102.244017 179.972521 
L 100.143311 184.350108 
L 98.612037 188.407219 
L 98.042605 189.328717 
L 95.941899 192.77953 
L 93.912983 197.277619 
L 93.841193 197.375112 
L 91.740488 202.72302 
L 89.639782 201.618345 
L 88.804887 197.277619 
L 87.539076 191.760445 
L 87.210207 188.407219 
L 86.283233 179.536819 
L 85.43837 174.725965 
L 85.304348 170.666419 
L 85.056867 161.796019 
L 84.841974 152.925619 
L 84.893573 144.055219 
L 84.97237 141.75611 
" style="fill:none;stroke:#75d054;stroke-width:1.5;"/>
   </g>
   <g id="LineCollection_17">
    <path clip-path="url(#p56c0c90377)" d="M 97.746397 123.531659 
L 98.042605 123.572428 
L 100.143311 126.109344 
L 100.190123 126.314419 
L 101.221407 135.184819 
L 102.244017 139.798916 
L 102.35311 144.055219 
L 102.715968 152.925619 
L 103.731591 161.796019 
L 104.344723 169.127738 
L 104.360343 170.666419 
L 104.344723 172.149608 
L 102.775592 179.536819 
L 102.244017 180.716214 
L 100.143311 185.379674 
L 99.000626 188.407219 
L 98.042605 189.957559 
L 95.941899 193.606762 
L 94.286116 197.277619 
L 93.841193 197.881841 
L 91.740488 203.748203 
L 89.639782 202.194144 
L 88.694137 197.277619 
L 87.539076 192.243157 
L 87.162865 188.407219 
L 86.14826 179.536819 
L 85.43837 175.494533 
L 85.278974 170.666419 
L 85.013303 161.796019 
L 84.77753 152.925619 
L 84.832621 144.055219 
L 84.93826 141.136818 
" style="fill:none;stroke:#95d840;stroke-width:1.5;"/>
   </g>
   <g id="LineCollection_18">
    <path clip-path="url(#p56c0c90377)" d="M 98.052242 123.348584 
L 100.143311 126.0715 
L 100.198762 126.314419 
L 101.30231 135.184819 
L 102.244017 139.433875 
L 102.362466 144.055219 
L 102.753582 152.925619 
L 103.868496 161.796019 
L 104.344723 167.490648 
L 104.376962 170.666419 
L 104.344723 173.727657 
L 103.110788 179.536819 
L 102.244017 181.459908 
L 100.143311 186.409239 
L 99.389214 188.407219 
L 98.042605 190.586402 
L 95.941899 194.433994 
L 94.659249 197.277619 
L 93.841193 198.38857 
L 91.740488 204.773385 
L 89.639782 202.769943 
L 88.583388 197.277619 
L 87.539076 192.725869 
L 87.115523 188.407219 
L 86.013287 179.536819 
L 85.43837 176.263101 
L 85.2536 170.666419 
L 84.96974 161.796019 
L 84.713086 152.925619 
L 84.771668 144.055219 
L 84.90676 140.511635 
" style="fill:none;stroke:#bade28;stroke-width:1.5;"/>
   </g>
   <g id="LineCollection_19">
    <path clip-path="url(#p56c0c90377)" d="M 98.233095 123.365696 
L 100.143311 126.033655 
L 100.207401 126.314419 
L 101.383213 135.184819 
L 102.244017 139.068835 
L 102.371823 144.055219 
L 102.791197 152.925619 
L 104.005402 161.796019 
L 104.344723 165.853559 
L 104.393582 170.666419 
L 104.344723 175.305706 
L 103.445984 179.536819 
L 102.244017 182.203601 
L 100.143311 187.438805 
L 99.777803 188.407219 
L 98.042605 191.215245 
L 95.941899 195.261226 
L 95.032381 197.277619 
L 93.841193 198.895299 
L 91.740488 205.798568 
L 89.639782 203.345741 
L 88.472639 197.277619 
L 87.539076 193.208581 
L 87.068181 188.407219 
L 85.878314 179.536819 
L 85.43837 177.031669 
L 85.228227 170.666419 
L 84.926176 161.796019 
L 84.648642 152.925619 
L 84.710715 144.055219 
L 84.877855 139.881745 
" style="fill:none;stroke:#dde318;stroke-width:1.5;"/>
   </g>
   <g id="LineCollection_20">
    <path clip-path="url(#p56c0c90377)" d="M 90.725598 124.767229 
L 91.740488 124.016257 
L 93.841193 122.985702 
L 95.941899 122.481583 
L 98.042605 122.863252 
L 100.143311 125.995811 
L 100.216039 126.314419 
L 101.464116 135.184819 
L 102.244017 138.703794 
L 102.381179 144.055219 
L 102.828811 152.925619 
L 104.142307 161.796019 
L 104.344723 164.216469 
L 104.410201 170.666419 
L 104.344723 176.883755 
L 103.781181 179.536819 
L 102.244017 182.947294 
L 100.16017 188.407219 
L 100.143311 188.433809 
L 98.042605 191.844088 
L 95.941899 196.088457 
L 95.405514 197.277619 
L 93.841193 199.402028 
L 91.839589 206.148019 
L 91.740488 206.43645 
L 91.434549 206.148019 
L 89.639782 203.92154 
L 88.36189 197.277619 
L 87.539076 193.691293 
L 87.020839 188.407219 
L 85.743342 179.536819 
L 85.43837 177.800236 
L 85.202853 170.666419 
L 84.882612 161.796019 
L 84.584198 152.925619 
L 84.622254 147.776907 
" style="fill:none;stroke:#fde725;stroke-width:1.5;"/>
   </g>
   <g id="LineCollection_21">
    <path clip-path="url(#p56c0c90377)" d="M 99.50438 124.944807 
L 100.143311 125.957966 
L 100.224678 126.314419 
L 101.545019 135.184819 
L 102.244017 138.338754 
L 102.390535 144.055219 
L 102.866425 152.925619 
L 104.279212 161.796019 
L 104.344723 162.57938 
L 104.42682 170.666419 
L 104.344723 178.461803 
L 104.116377 179.536819 
L 102.244017 183.690988 
L 100.444009 188.407219 
L 100.143311 188.881494 
L 98.042605 192.47293 
L 95.941899 196.915689 
L 95.778647 197.277619 
L 93.841193 199.908757 
L 91.989941 206.148019 
L 91.740488 206.874042 
L 90.970397 206.148019 
L 89.639782 204.497339 
L 88.251141 197.277619 
L 87.539076 194.174005 
L 86.973497 188.407219 
L 85.608369 179.536819 
L 85.43837 178.568804 
L 85.17748 170.666419 
L 84.839048 161.796019 
L 84.519754 152.925619 
L 84.58881 144.055219 
L 84.74885 140.40953 
" style="fill:none;stroke:#440154;stroke-width:1.5;"/>
   </g>
   <g id="LineCollection_22">
    <path clip-path="url(#p56c0c90377)" d="M 87.394496 209.709797 
L 86.721509 206.148019 
L 85.43837 199.751775 
L 85.180853 197.277619 
L 84.168076 188.407219 
L 83.337664 182.311655 
L 83.224272 179.536819 
L 82.882565 170.666419 
L 82.471333 161.796019 
L 82.353007 152.925619 
L 82.724361 144.055219 
L 83.023507 135.184819 
L 83.337664 131.335896 
L 84.492607 126.314419 
L 85.43837 124.524633 
L 87.539076 118.012714 
L 87.73389 117.444019 
L 89.639782 116.700622 
L 91.740488 115.874152 
L 93.841193 115.712701 
L 95.941899 116.024668 
L 98.042605 116.521542 
L 99.678043 117.444019 
L 100.143311 119.145931 
L 101.779656 126.314419 
L 102.244017 128.432518 
L 102.629893 135.184819 
L 104.074677 144.055219 
L 104.344723 145.565125 
L 104.674385 152.925619 
L 105.600057 161.796019 
L 106.445429 167.772536 
L 106.53207 170.666419 
L 106.743226 179.536819 
L 106.822765 188.407219 
L 106.572715 197.277619 
L 106.445429 198.523285 
L 104.344723 204.603407 
L 103.757015 206.148019 
L 102.244017 208.331596 
L 100.341762 212.618741 
" style="fill:none;stroke:#440154;stroke-width:1.5;"/>
   </g>
   <g id="LineCollection_23">
    <path clip-path="url(#p56c0c90377)" d="M 84.271669 117.573845 
L 84.308172 117.444019 
L 85.43837 115.634942 
L 87.539076 111.612302 
L 88.923309 108.573619 
L 89.639782 108.280509 
L 91.740488 107.805544 
L 93.841193 107.828298 
L 95.941899 108.056746 
L 98.042605 108.400745 
L 98.275444 108.573619 
L 100.143311 114.48948 
L 101.432407 117.444019 
L 102.244017 120.881662 
L 103.155631 126.314419 
L 104.344723 132.407065 
L 104.472874 135.184819 
L 105.433855 144.055219 
L 106.445429 149.481462 
L 106.595883 152.925619 
L 107.35832 161.796019 
L 108.546135 169.181614 
L 108.588066 170.666419 
L 108.788752 179.536819 
L 108.944461 188.407219 
L 108.910063 197.277619 
L 108.700694 206.148019 
L 108.546135 209.017861 
L 107.024899 215.018419 
L 106.445429 216.166857 
L 104.344723 221.356169 
L 103.473923 223.888819 
L 102.244017 225.853243 
L 100.143311 232.157468 
L 99.910341 232.759219 
L 98.042605 235.342254 
L 95.941899 239.564519 
L 95.273797 241.629619 
L 93.841193 243.446811 
L 92.804465 241.629619 
L 91.740488 238.423473 
L 89.639782 232.930482 
L 89.53025 232.759219 
L 87.539076 225.85061 
L 86.877554 223.888819 
L 85.43837 217.904422 
L 85.016226 215.018419 
L 83.337664 206.657283 
L 83.290731 206.148019 
L 82.529138 197.277619 
L 81.236958 189.143178 
L 81.203228 188.407219 
L 80.883715 179.536819 
L 80.375194 170.666419 
L 79.764436 161.796019 
L 79.954433 153.152571 
" style="fill:none;stroke:#440154;stroke-width:1.5;"/>
   </g>
   <g id="LineCollection_24">
    <path clip-path="url(#p56c0c90377)" d="M 84.292445 107.271144 
L 85.43837 105.82524 
L 87.539076 101.855925 
L 88.76654 99.703219 
L 89.639782 99.444014 
L 91.740488 99.229269 
L 93.841193 99.347907 
L 95.941899 99.566575 
L 96.777224 99.703219 
L 98.042605 101.297118 
L 100.143311 106.874376 
L 100.970964 108.573619 
L 102.244017 113.61862 
L 103.581796 117.444019 
L 104.344723 120.814537 
L 104.674843 126.314419 
L 106.445429 134.977767 
L 106.454268 135.184819 
L 106.906632 144.055219 
L 108.546135 152.292899 
L 108.572703 152.925619 
L 108.989651 161.796019 
L 110.306455 170.666419 
L 110.64684 173.159682 
L 110.740943 179.536819 
L 110.887451 188.407219 
L 110.901841 197.277619 
L 110.785702 206.148019 
L 110.64684 214.787607 
L 110.616271 215.018419 
L 108.893998 223.888819 
L 108.546135 225.292188 
L 106.445429 230.268127 
L 105.670532 232.759219 
L 104.344723 235.04737 
L 102.341233 241.629619 
L 102.244017 241.816606 
L 100.143311 247.735343 
L 99.180687 250.500019 
L 98.042605 252.282235 
L 95.941899 258.687129 
L 93.841193 257.276631 
L 91.740488 251.59383 
L 91.516627 250.500019 
L 89.639782 242.997635 
L 88.72847 241.629619 
L 87.539076 237.570751 
L 85.440998 232.759219 
L 85.43837 232.748898 
L 83.652439 223.888819 
L 83.337664 222.430856 
L 82.347467 215.018419 
L 81.236958 209.2276 
L 80.967635 206.148019 
L 79.914431 197.277619 
L 79.136252 191.943715 
L 79.001502 188.407219 
L 78.629689 179.536819 
L 78.04284 170.666419 
L 77.348213 161.796019 
L 77.607608 152.925619 
L 78.094459 146.051692 
" style="fill:none;stroke:#440154;stroke-width:1.5;"/>
   </g>
   <g id="LineCollection_25">
    <path clip-path="url(#p56c0c90377)" d="M 90.228722 254.983189 
L 89.639782 252.461187 
L 88.482027 250.500019 
L 87.539076 247.116121 
L 85.43837 242.062198 
L 85.325448 241.629619 
L 83.337664 233.340389 
L 83.226525 232.759219 
L 81.236958 223.936876 
L 81.228593 223.888819 
L 79.847328 215.018419 
L 79.136252 211.393278 
L 78.581231 206.148019 
L 77.263302 197.277619 
L 77.035546 195.610523 
L 76.771259 188.407219 
L 76.333093 179.536819 
L 75.777248 170.666419 
L 75.593098 161.796019 
L 75.745324 152.925619 
L 76.054203 144.055219 
L 76.577155 135.184819 
L 76.995925 126.314419 
L 77.035546 125.671276 
L 78.510394 117.444019 
L 79.136252 113.267271 
L 80.218365 108.573619 
L 81.236958 105.092644 
L 82.770136 99.703219 
L 83.337664 98.873368 
L 85.43837 95.990915 
L 87.539076 91.995215 
L 88.256689 90.832819 
L 89.639782 90.516677 
L 91.740488 90.402651 
L 93.841193 90.53948 
L 95.941899 90.78114 
L 96.14247 90.832819 
L 98.042605 93.852872 
L 100.143311 98.735877 
L 100.639274 99.703219 
L 102.244017 105.993931 
L 103.167575 108.573619 
L 104.344723 113.374963 
L 104.878761 117.444019 
L 106.445429 124.889183 
L 106.500193 126.314419 
L 107.243789 135.184819 
L 108.546135 141.474011 
L 108.674328 144.055219 
L 109.643646 152.925619 
L 110.64684 158.091639 
L 110.76246 161.796019 
L 111.285605 170.666419 
L 112.598289 179.536819 
L 112.747546 180.832783 
L 112.802048 188.407219 
L 112.838387 197.277619 
L 112.79433 206.148019 
L 112.747546 209.574592 
L 112.095462 215.018419 
L 111.150254 223.888819 
L 110.64684 232.151431 
L 110.501065 232.759219 
L 108.546135 238.651929 
L 107.557767 241.629619 
L 106.445429 243.239152 
L 104.893741 247.785702 
" style="fill:none;stroke:#440154;stroke-width:1.5;"/>
   </g>
   <g id="LineCollection_26">
    <path clip-path="url(#p56c0c90377)" d="M 91.724592 277.111219 
L 91.096667 268.240819 
L 89.639782 261.695039 
L 87.639679 259.370419 
L 87.539076 259.028217 
L 85.43837 252.01496 
L 85.083169 250.500019 
L 83.337664 243.233911 
L 83.016069 241.629619 
L 81.236958 233.898348 
L 81.013989 232.759219 
L 79.136252 224.474647 
L 79.030276 223.888819 
L 77.145326 215.018419 
L 77.035546 214.47929 
L 75.926274 206.148019 
L 74.93484 199.522411 
L 74.823918 197.277619 
L 74.409041 188.407219 
L 73.837702 179.536819 
L 73.584533 170.666419 
L 73.735454 161.796019 
L 73.979426 152.925619 
L 74.208974 144.055219 
L 74.316068 140.734545 
" style="fill:none;stroke:#450457;stroke-width:1.5;"/>
    <path clip-path="url(#p56c0c90377)" d="M 80.716971 94.582185 
L 81.236958 92.911574 
L 81.895101 90.832819 
L 83.337664 89.392368 
L 85.43837 86.256978 
L 87.539076 82.382414 
L 87.898274 81.962419 
L 89.639782 81.708797 
L 91.740488 81.655713 
L 93.841193 81.727557 
L 95.941899 81.888375 
L 96.147058 81.962419 
L 98.042605 86.128499 
L 100.143311 90.373404 
L 100.377098 90.832819 
L 102.244017 98.140556 
L 102.824767 99.703219 
L 104.344723 105.899185 
L 104.803468 108.573619 
L 106.445429 115.80186 
L 106.558295 117.444019 
L 107.530519 126.314419 
L 108.546135 131.116651 
L 108.791872 135.184819 
L 110.567873 144.055219 
L 110.64684 144.445426 
L 110.97518 152.925619 
L 112.483739 161.796019 
L 112.747546 163.259534 
L 112.885764 170.666419 
L 113.24904 179.536819 
L 113.962458 188.407219 
L 114.610295 197.277619 
L 114.447734 206.148019 
L 113.621902 215.018419 
L 113.011686 223.888819 
L 112.747546 232.525651 
L 112.705843 232.759219 
L 110.913302 241.629619 
L 110.64684 243.583224 
L 108.860302 250.500019 
L 108.546135 251.36596 
L 106.445429 256.108862 
L 105.461561 259.370419 
L 104.344723 261.341745 
L 102.471245 268.240819 
L 102.244017 268.79712 
L 100.143311 276.182886 
L 99.842868 277.111219 
" style="fill:none;stroke:#450457;stroke-width:1.5;"/>
   </g>
   <g id="LineCollection_27">
    <path clip-path="url(#p56c0c90377)" d="M 90.858981 277.111219 
L 89.639782 271.423753 
L 87.539076 268.674518 
L 87.194973 268.240819 
L 85.43837 262.447877 
L 84.722838 259.370419 
L 83.337664 253.512937 
L 82.784223 250.500019 
L 81.236958 243.827949 
L 80.790845 241.629619 
L 79.136252 234.470059 
L 78.772792 232.759219 
L 77.035546 225.134901 
L 76.800005 223.888819 
L 74.93484 215.572193 
L 74.838985 215.018419 
L 72.834135 206.170644 
L 72.830077 206.148019 
L 72.38483 197.277619 
L 71.730958 188.407219 
L 71.212846 179.536819 
L 71.340023 170.666419 
L 71.647052 161.796019 
L 71.995529 152.925619 
L 72.303047 144.055219 
L 72.522009 135.184819 
L 72.556719 133.645918 
" style="fill:none;stroke:#482475;stroke-width:1.5;"/>
    <path clip-path="url(#p56c0c90377)" d="M 80.606093 84.093757 
L 81.179079 81.962419 
L 81.236958 81.866919 
L 83.337664 80.046094 
L 85.43837 76.624867 
L 87.44701 73.092019 
L 87.539076 73.065083 
L 89.639782 72.887812 
L 91.740488 72.911225 
L 93.841193 73.009956 
L 94.981884 73.092019 
L 95.941899 73.752806 
L 98.042605 78.880765 
L 100.143311 81.863644 
L 100.195915 81.962419 
L 102.244017 90.001011 
L 102.538689 90.832819 
L 104.344723 98.194487 
L 104.656412 99.703219 
L 106.445429 107.41915 
L 106.578764 108.573619 
L 108.120802 117.444019 
L 108.546135 119.5014 
L 108.925301 126.314419 
L 110.64684 134.450011 
L 110.681634 135.184819 
L 111.273978 144.055219 
L 112.747546 151.336252 
L 112.803916 152.925619 
L 113.247283 161.796019 
L 114.667697 170.666419 
L 114.848252 171.811386 
L 114.938062 179.536819 
L 115.125429 188.407219 
L 115.358159 197.277619 
L 115.51572 206.148019 
L 115.327609 215.018419 
L 114.965508 223.888819 
L 114.848252 227.152517 
L 113.895294 232.759219 
L 112.940674 241.629619 
L 112.747546 244.28642 
L 111.393531 250.500019 
L 110.64684 255.497258 
L 109.645653 259.370419 
L 108.546135 262.248212 
L 106.7517 268.240819 
L 106.445429 268.695515 
L 104.344723 273.15112 
L 103.30106 277.111219 
" style="fill:none;stroke:#482475;stroke-width:1.5;"/>
   </g>
   <g id="LineCollection_28">
    <path clip-path="url(#p56c0c90377)" d="M 86.673046 277.111219 
L 85.43837 273.233686 
L 84.25969 268.240819 
L 83.337664 264.337409 
L 82.427872 259.370419 
L 81.236958 254.176801 
L 80.519346 250.500019 
L 79.136252 244.542451 
L 78.522671 241.629619 
L 77.035546 235.261058 
L 76.481127 232.759219 
L 74.93484 226.018471 
L 74.559318 223.888819 
L 72.834135 216.2875 
L 72.611686 215.018419 
L 70.733429 206.785459 
L 70.642245 206.148019 
L 69.776054 197.277619 
L 69.045185 188.407219 
L 68.841085 179.536819 
L 69.057526 170.666419 
L 69.39525 161.796019 
L 69.871252 152.925619 
L 70.252564 144.055219 
L 70.509273 135.184819 
L 70.659536 126.314419 
L 70.733429 122.386134 
L 71.361479 117.444019 
L 71.363526 117.425738 
" style="fill:none;stroke:#fde725;stroke-width:1.5;"/>
    <path clip-path="url(#p56c0c90377)" d="M 85.937171 66.345012 
L 87.211649 64.221619 
L 87.539076 64.135859 
L 89.639782 64.044402 
L 91.740488 64.14488 
L 93.285384 64.221619 
L 93.841193 64.506734 
L 95.941899 66.72271 
L 98.042605 71.574635 
L 99.46634 73.092019 
L 100.143311 75.569792 
L 102.244017 81.642975 
L 102.365109 81.962419 
L 104.344723 90.053495 
L 104.514552 90.832819 
L 106.445429 99.060308 
L 106.539672 99.703219 
L 108.533693 108.573619 
L 108.546135 108.631272 
L 109.108239 117.444019 
L 110.64684 124.703828 
L 110.723254 126.314419 
L 111.622858 135.184819 
L 112.747546 140.590116 
L 112.900743 144.055219 
L 113.907533 152.925619 
L 114.848252 157.845183 
L 114.952744 161.796019 
L 115.337166 170.666419 
L 116.251701 179.536819 
L 116.948958 184.637247 
L 116.982783 188.407219 
L 117.048291 197.277619 
L 117.114238 206.148019 
L 117.118906 215.018419 
L 116.979281 223.888819 
L 116.948958 224.634725 
L 115.507539 232.759219 
L 114.91949 241.629619 
L 114.848252 242.896703 
L 113.318225 250.500019 
L 112.747546 256.690055 
L 112.153514 259.370419 
L 110.655444 268.240819 
L 110.64684 268.284051 
L 108.546135 273.301292 
L 107.410018 277.111219 
" style="fill:none;stroke:#fde725;stroke-width:1.5;"/>
   </g>
   <g id="line2d_19">
    <path clip-path="url(#p56c0c90377)" d="M 260.296651 107.501091 
L 235.309435 126.339768 
L 214.282471 143.64441 
L 196.574874 159.2856 
L 181.725817 173.821384 
L 169.207711 186.595805 
L 158.70177 197.926735 
L 149.893124 207.82211 
L 142.512037 215.99516 
L 136.319192 222.581469 
L 131.117772 228.202382 
L 126.768264 232.656402 
L 123.078223 236.056641 
L 119.961324 238.663969 
L 117.352134 240.280929 
L 115.125375 241.487711 
L 113.238355 242.129074 
L 111.653727 242.288794 
L 110.238186 241.866021 
L 109.03461 241.124622 
L 107.96164 239.866734 
L 106.996669 238.575436 
L 106.177215 236.749973 
L 105.428168 234.817597 
L 104.729857 232.811648 
L 104.13168 230.515155 
L 103.577664 227.992471 
L 103.057254 225.620084 
L 102.603629 223.004927 
L 102.135019 220.216447 
L 101.73127 217.49281 
L 101.33044 214.716767 
L 100.985849 211.810716 
L 100.662058 208.874528 
L 100.356087 206.072389 
L 100.052338 203.253595 
L 99.817512 200.230747 
L 99.560897 197.341369 
L 99.332966 194.373674 
L 99.116637 191.515243 
L 98.89548 188.544442 
L 98.701651 185.686122 
L 98.502121 183.006446 
L 98.332809 180.266814 
L 98.116133 177.412624 
L 97.943719 174.507972 
L 97.773248 171.432203 
L 97.560329 168.273673 
L 97.348508 164.605797 
L 97.149107 160.635908 
L 97.189486 159.676111 
L 97.230953 158.770994 
L 97.268599 157.958357 
L 97.307196 157.171495 
L 97.343139 156.441928 
L 97.377495 155.676247 
L 97.412193 154.997564 
L 97.446313 154.324503 
L 97.474856 153.663155 
L 97.501212 153.03011 
L 97.529851 152.420776 
L 97.551103 151.803156 
L 97.575919 151.189132 
L 97.593517 150.640191 
L 97.617825 150.06302 
L 97.633324 149.521969 
L 97.644668 148.979834 
L 97.663317 148.447595 
L 97.674122 147.928347 
L 97.687605 147.426426 
L 97.698419 146.924216 
L 97.70704 146.442156 
L 97.715938 145.94226 
L 97.722273 145.419416 
L 97.723617 144.895815 
L 97.733195 144.794206 
L 97.744775 144.694628 
L 97.755996 144.608071 
L 97.768006 144.534319 
L 97.780052 144.470321 
L 97.793169 144.416378 
L 97.805513 144.368296 
L 97.818095 144.327086 
L 97.830628 144.282626 
L 97.843768 144.242695 
L 97.856505 144.209617 
L 97.869967 144.18346 
L 97.883024 144.161778 
L 97.895221 144.14587 
L 97.908497 144.124378 
L 97.92157 144.102451 
L 97.934722 144.091519 
L 97.947303 144.078434 
L 97.961084 144.071165 
L 97.974764 144.060202 
L 97.988117 144.056794 
L 98.001398 144.058213 
L 98.015278 144.057109 
L 98.028955 144.058631 
" style="fill:none;stroke:#1f77b4;stroke-linecap:square;stroke-width:1.5;"/>
    <defs>
     <path d="M 0 1.5 
C 0.397805 1.5 0.77937 1.341951 1.06066 1.06066 
C 1.341951 0.77937 1.5 0.397805 1.5 0 
C 1.5 -0.397805 1.341951 -0.77937 1.06066 -1.06066 
C 0.77937 -1.341951 0.397805 -1.5 0 -1.5 
C -0.397805 -1.5 -0.77937 -1.341951 -1.06066 -1.06066 
C -1.341951 -0.77937 -1.5 -0.397805 -1.5 0 
C -1.5 0.397805 -1.341951 0.77937 -1.06066 1.06066 
C -0.77937 1.341951 -0.397805 1.5 0 1.5 
z
" id="m620dcc3e2f" style="stroke:#1f77b4;"/>
    </defs>
    <g clip-path="url(#p56c0c90377)">
     <use style="fill:#1f77b4;stroke:#1f77b4;" x="260.296651" xlink:href="#m620dcc3e2f" y="107.501091"/>
     <use style="fill:#1f77b4;stroke:#1f77b4;" x="235.309435" xlink:href="#m620dcc3e2f" y="126.339768"/>
     <use style="fill:#1f77b4;stroke:#1f77b4;" x="214.282471" xlink:href="#m620dcc3e2f" y="143.64441"/>
     <use style="fill:#1f77b4;stroke:#1f77b4;" x="196.574874" xlink:href="#m620dcc3e2f" y="159.2856"/>
     <use style="fill:#1f77b4;stroke:#1f77b4;" x="181.725817" xlink:href="#m620dcc3e2f" y="173.821384"/>
     <use style="fill:#1f77b4;stroke:#1f77b4;" x="169.207711" xlink:href="#m620dcc3e2f" y="186.595805"/>
     <use style="fill:#1f77b4;stroke:#1f77b4;" x="158.70177" xlink:href="#m620dcc3e2f" y="197.926735"/>
     <use style="fill:#1f77b4;stroke:#1f77b4;" x="149.893124" xlink:href="#m620dcc3e2f" y="207.82211"/>
     <use style="fill:#1f77b4;stroke:#1f77b4;" x="142.512037" xlink:href="#m620dcc3e2f" y="215.99516"/>
     <use style="fill:#1f77b4;stroke:#1f77b4;" x="136.319192" xlink:href="#m620dcc3e2f" y="222.581469"/>
     <use style="fill:#1f77b4;stroke:#1f77b4;" x="131.117772" xlink:href="#m620dcc3e2f" y="228.202382"/>
     <use style="fill:#1f77b4;stroke:#1f77b4;" x="126.768264" xlink:href="#m620dcc3e2f" y="232.656402"/>
     <use style="fill:#1f77b4;stroke:#1f77b4;" x="123.078223" xlink:href="#m620dcc3e2f" y="236.056641"/>
     <use style="fill:#1f77b4;stroke:#1f77b4;" x="119.961324" xlink:href="#m620dcc3e2f" y="238.663969"/>
     <use style="fill:#1f77b4;stroke:#1f77b4;" x="117.352134" xlink:href="#m620dcc3e2f" y="240.280929"/>
     <use style="fill:#1f77b4;stroke:#1f77b4;" x="115.125375" xlink:href="#m620dcc3e2f" y="241.487711"/>
     <use style="fill:#1f77b4;stroke:#1f77b4;" x="113.238355" xlink:href="#m620dcc3e2f" y="242.129074"/>
     <use style="fill:#1f77b4;stroke:#1f77b4;" x="111.653727" xlink:href="#m620dcc3e2f" y="242.288794"/>
     <use style="fill:#1f77b4;stroke:#1f77b4;" x="110.238186" xlink:href="#m620dcc3e2f" y="241.866021"/>
     <use style="fill:#1f77b4;stroke:#1f77b4;" x="109.03461" xlink:href="#m620dcc3e2f" y="241.124622"/>
     <use style="fill:#1f77b4;stroke:#1f77b4;" x="107.96164" xlink:href="#m620dcc3e2f" y="239.866734"/>
     <use style="fill:#1f77b4;stroke:#1f77b4;" x="106.996669" xlink:href="#m620dcc3e2f" y="238.575436"/>
     <use style="fill:#1f77b4;stroke:#1f77b4;" x="106.177215" xlink:href="#m620dcc3e2f" y="236.749973"/>
     <use style="fill:#1f77b4;stroke:#1f77b4;" x="105.428168" xlink:href="#m620dcc3e2f" y="234.817597"/>
     <use style="fill:#1f77b4;stroke:#1f77b4;" x="104.729857" xlink:href="#m620dcc3e2f" y="232.811648"/>
     <use style="fill:#1f77b4;stroke:#1f77b4;" x="104.13168" xlink:href="#m620dcc3e2f" y="230.515155"/>
     <use style="fill:#1f77b4;stroke:#1f77b4;" x="103.577664" xlink:href="#m620dcc3e2f" y="227.992471"/>
     <use style="fill:#1f77b4;stroke:#1f77b4;" x="103.057254" xlink:href="#m620dcc3e2f" y="225.620084"/>
     <use style="fill:#1f77b4;stroke:#1f77b4;" x="102.603629" xlink:href="#m620dcc3e2f" y="223.004927"/>
     <use style="fill:#1f77b4;stroke:#1f77b4;" x="102.135019" xlink:href="#m620dcc3e2f" y="220.216447"/>
     <use style="fill:#1f77b4;stroke:#1f77b4;" x="101.73127" xlink:href="#m620dcc3e2f" y="217.49281"/>
     <use style="fill:#1f77b4;stroke:#1f77b4;" x="101.33044" xlink:href="#m620dcc3e2f" y="214.716767"/>
     <use style="fill:#1f77b4;stroke:#1f77b4;" x="100.985849" xlink:href="#m620dcc3e2f" y="211.810716"/>
     <use style="fill:#1f77b4;stroke:#1f77b4;" x="100.662058" xlink:href="#m620dcc3e2f" y="208.874528"/>
     <use style="fill:#1f77b4;stroke:#1f77b4;" x="100.356087" xlink:href="#m620dcc3e2f" y="206.072389"/>
     <use style="fill:#1f77b4;stroke:#1f77b4;" x="100.052338" xlink:href="#m620dcc3e2f" y="203.253595"/>
     <use style="fill:#1f77b4;stroke:#1f77b4;" x="99.817512" xlink:href="#m620dcc3e2f" y="200.230747"/>
     <use style="fill:#1f77b4;stroke:#1f77b4;" x="99.560897" xlink:href="#m620dcc3e2f" y="197.341369"/>
     <use style="fill:#1f77b4;stroke:#1f77b4;" x="99.332966" xlink:href="#m620dcc3e2f" y="194.373674"/>
     <use style="fill:#1f77b4;stroke:#1f77b4;" x="99.116637" xlink:href="#m620dcc3e2f" y="191.515243"/>
     <use style="fill:#1f77b4;stroke:#1f77b4;" x="98.89548" xlink:href="#m620dcc3e2f" y="188.544442"/>
     <use style="fill:#1f77b4;stroke:#1f77b4;" x="98.701651" xlink:href="#m620dcc3e2f" y="185.686122"/>
     <use style="fill:#1f77b4;stroke:#1f77b4;" x="98.502121" xlink:href="#m620dcc3e2f" y="183.006446"/>
     <use style="fill:#1f77b4;stroke:#1f77b4;" x="98.332809" xlink:href="#m620dcc3e2f" y="180.266814"/>
     <use style="fill:#1f77b4;stroke:#1f77b4;" x="98.116133" xlink:href="#m620dcc3e2f" y="177.412624"/>
     <use style="fill:#1f77b4;stroke:#1f77b4;" x="97.943719" xlink:href="#m620dcc3e2f" y="174.507972"/>
     <use style="fill:#1f77b4;stroke:#1f77b4;" x="97.773248" xlink:href="#m620dcc3e2f" y="171.432203"/>
     <use style="fill:#1f77b4;stroke:#1f77b4;" x="97.560329" xlink:href="#m620dcc3e2f" y="168.273673"/>
     <use style="fill:#1f77b4;stroke:#1f77b4;" x="97.348508" xlink:href="#m620dcc3e2f" y="164.605797"/>
     <use style="fill:#1f77b4;stroke:#1f77b4;" x="97.149107" xlink:href="#m620dcc3e2f" y="160.635908"/>
     <use style="fill:#1f77b4;stroke:#1f77b4;" x="97.189486" xlink:href="#m620dcc3e2f" y="159.676111"/>
     <use style="fill:#1f77b4;stroke:#1f77b4;" x="97.230953" xlink:href="#m620dcc3e2f" y="158.770994"/>
     <use style="fill:#1f77b4;stroke:#1f77b4;" x="97.268599" xlink:href="#m620dcc3e2f" y="157.958357"/>
     <use style="fill:#1f77b4;stroke:#1f77b4;" x="97.307196" xlink:href="#m620dcc3e2f" y="157.171495"/>
     <use style="fill:#1f77b4;stroke:#1f77b4;" x="97.343139" xlink:href="#m620dcc3e2f" y="156.441928"/>
     <use style="fill:#1f77b4;stroke:#1f77b4;" x="97.377495" xlink:href="#m620dcc3e2f" y="155.676247"/>
     <use style="fill:#1f77b4;stroke:#1f77b4;" x="97.412193" xlink:href="#m620dcc3e2f" y="154.997564"/>
     <use style="fill:#1f77b4;stroke:#1f77b4;" x="97.446313" xlink:href="#m620dcc3e2f" y="154.324503"/>
     <use style="fill:#1f77b4;stroke:#1f77b4;" x="97.474856" xlink:href="#m620dcc3e2f" y="153.663155"/>
     <use style="fill:#1f77b4;stroke:#1f77b4;" x="97.501212" xlink:href="#m620dcc3e2f" y="153.03011"/>
     <use style="fill:#1f77b4;stroke:#1f77b4;" x="97.529851" xlink:href="#m620dcc3e2f" y="152.420776"/>
     <use style="fill:#1f77b4;stroke:#1f77b4;" x="97.551103" xlink:href="#m620dcc3e2f" y="151.803156"/>
     <use style="fill:#1f77b4;stroke:#1f77b4;" x="97.575919" xlink:href="#m620dcc3e2f" y="151.189132"/>
     <use style="fill:#1f77b4;stroke:#1f77b4;" x="97.593517" xlink:href="#m620dcc3e2f" y="150.640191"/>
     <use style="fill:#1f77b4;stroke:#1f77b4;" x="97.617825" xlink:href="#m620dcc3e2f" y="150.06302"/>
     <use style="fill:#1f77b4;stroke:#1f77b4;" x="97.633324" xlink:href="#m620dcc3e2f" y="149.521969"/>
     <use style="fill:#1f77b4;stroke:#1f77b4;" x="97.644668" xlink:href="#m620dcc3e2f" y="148.979834"/>
     <use style="fill:#1f77b4;stroke:#1f77b4;" x="97.663317" xlink:href="#m620dcc3e2f" y="148.447595"/>
     <use style="fill:#1f77b4;stroke:#1f77b4;" x="97.674122" xlink:href="#m620dcc3e2f" y="147.928347"/>
     <use style="fill:#1f77b4;stroke:#1f77b4;" x="97.687605" xlink:href="#m620dcc3e2f" y="147.426426"/>
     <use style="fill:#1f77b4;stroke:#1f77b4;" x="97.698419" xlink:href="#m620dcc3e2f" y="146.924216"/>
     <use style="fill:#1f77b4;stroke:#1f77b4;" x="97.70704" xlink:href="#m620dcc3e2f" y="146.442156"/>
     <use style="fill:#1f77b4;stroke:#1f77b4;" x="97.715938" xlink:href="#m620dcc3e2f" y="145.94226"/>
     <use style="fill:#1f77b4;stroke:#1f77b4;" x="97.722273" xlink:href="#m620dcc3e2f" y="145.419416"/>
     <use style="fill:#1f77b4;stroke:#1f77b4;" x="97.723617" xlink:href="#m620dcc3e2f" y="144.895815"/>
     <use style="fill:#1f77b4;stroke:#1f77b4;" x="97.733195" xlink:href="#m620dcc3e2f" y="144.794206"/>
     <use style="fill:#1f77b4;stroke:#1f77b4;" x="97.744775" xlink:href="#m620dcc3e2f" y="144.694628"/>
     <use style="fill:#1f77b4;stroke:#1f77b4;" x="97.755996" xlink:href="#m620dcc3e2f" y="144.608071"/>
     <use style="fill:#1f77b4;stroke:#1f77b4;" x="97.768006" xlink:href="#m620dcc3e2f" y="144.534319"/>
     <use style="fill:#1f77b4;stroke:#1f77b4;" x="97.780052" xlink:href="#m620dcc3e2f" y="144.470321"/>
     <use style="fill:#1f77b4;stroke:#1f77b4;" x="97.793169" xlink:href="#m620dcc3e2f" y="144.416378"/>
     <use style="fill:#1f77b4;stroke:#1f77b4;" x="97.805513" xlink:href="#m620dcc3e2f" y="144.368296"/>
     <use style="fill:#1f77b4;stroke:#1f77b4;" x="97.818095" xlink:href="#m620dcc3e2f" y="144.327086"/>
     <use style="fill:#1f77b4;stroke:#1f77b4;" x="97.830628" xlink:href="#m620dcc3e2f" y="144.282626"/>
     <use style="fill:#1f77b4;stroke:#1f77b4;" x="97.843768" xlink:href="#m620dcc3e2f" y="144.242695"/>
     <use style="fill:#1f77b4;stroke:#1f77b4;" x="97.856505" xlink:href="#m620dcc3e2f" y="144.209617"/>
     <use style="fill:#1f77b4;stroke:#1f77b4;" x="97.869967" xlink:href="#m620dcc3e2f" y="144.18346"/>
     <use style="fill:#1f77b4;stroke:#1f77b4;" x="97.883024" xlink:href="#m620dcc3e2f" y="144.161778"/>
     <use style="fill:#1f77b4;stroke:#1f77b4;" x="97.895221" xlink:href="#m620dcc3e2f" y="144.14587"/>
     <use style="fill:#1f77b4;stroke:#1f77b4;" x="97.908497" xlink:href="#m620dcc3e2f" y="144.124378"/>
     <use style="fill:#1f77b4;stroke:#1f77b4;" x="97.92157" xlink:href="#m620dcc3e2f" y="144.102451"/>
     <use style="fill:#1f77b4;stroke:#1f77b4;" x="97.934722" xlink:href="#m620dcc3e2f" y="144.091519"/>
     <use style="fill:#1f77b4;stroke:#1f77b4;" x="97.947303" xlink:href="#m620dcc3e2f" y="144.078434"/>
     <use style="fill:#1f77b4;stroke:#1f77b4;" x="97.961084" xlink:href="#m620dcc3e2f" y="144.071165"/>
     <use style="fill:#1f77b4;stroke:#1f77b4;" x="97.974764" xlink:href="#m620dcc3e2f" y="144.060202"/>
     <use style="fill:#1f77b4;stroke:#1f77b4;" x="97.988117" xlink:href="#m620dcc3e2f" y="144.056794"/>
     <use style="fill:#1f77b4;stroke:#1f77b4;" x="98.001398" xlink:href="#m620dcc3e2f" y="144.058213"/>
     <use style="fill:#1f77b4;stroke:#1f77b4;" x="98.015278" xlink:href="#m620dcc3e2f" y="144.057109"/>
     <use style="fill:#1f77b4;stroke:#1f77b4;" x="98.028955" xlink:href="#m620dcc3e2f" y="144.058631"/>
    </g>
   </g>
   <g id="patch_3">
    <path d="M 56.028488 277.111219 
L 56.028488 10.999219 
" style="fill:none;stroke:#000000;stroke-linecap:square;stroke-linejoin:miter;stroke-width:0.8;"/>
   </g>
   <g id="patch_4">
    <path d="M 413.148488 277.111219 
L 413.148488 10.999219 
" style="fill:none;stroke:#000000;stroke-linecap:square;stroke-linejoin:miter;stroke-width:0.8;"/>
   </g>
   <g id="patch_5">
    <path d="M 56.028488 277.111219 
L 413.148488 277.111219 
" style="fill:none;stroke:#000000;stroke-linecap:square;stroke-linejoin:miter;stroke-width:0.8;"/>
   </g>
   <g id="patch_6">
    <path d="M 56.028488 10.999219 
L 413.148488 10.999219 
" style="fill:none;stroke:#000000;stroke-linecap:square;stroke-linejoin:miter;stroke-width:0.8;"/>
   </g>
   <g id="text_21">
    <g clip-path="url(#p56c0c90377)">
     <!-- 1.500 -->
     <g style="fill:#453781;" transform="translate(93.69326 129.306172)rotate(-306.858646)scale(0.06 -0.06)">
      <use xlink:href="#DejaVuSans-49"/>
      <use x="63.623047" xlink:href="#DejaVuSans-46"/>
      <use x="95.410156" xlink:href="#DejaVuSans-53"/>
      <use x="159.033203" xlink:href="#DejaVuSans-48"/>
      <use x="222.65625" xlink:href="#DejaVuSans-48"/>
     </g>
    </g>
   </g>
   <g id="text_22">
    <g clip-path="url(#p56c0c90377)">
     <!-- 2.000 -->
     <g style="fill:#404688;" transform="translate(89.296043 128.120701)rotate(-349.093616)scale(0.06 -0.06)">
      <use xlink:href="#DejaVuSans-50"/>
      <use x="63.623047" xlink:href="#DejaVuSans-46"/>
      <use x="95.410156" xlink:href="#DejaVuSans-48"/>
      <use x="159.033203" xlink:href="#DejaVuSans-48"/>
      <use x="222.65625" xlink:href="#DejaVuSans-48"/>
     </g>
    </g>
   </g>
   <g id="text_23">
    <g clip-path="url(#p56c0c90377)">
     <!-- 2.500 -->
     <g style="fill:#39558c;" transform="translate(91.181308 152.75756)rotate(-84.852608)scale(0.06 -0.06)">
      <use xlink:href="#DejaVuSans-50"/>
      <use x="63.623047" xlink:href="#DejaVuSans-46"/>
      <use x="95.410156" xlink:href="#DejaVuSans-53"/>
      <use x="159.033203" xlink:href="#DejaVuSans-48"/>
      <use x="222.65625" xlink:href="#DejaVuSans-48"/>
     </g>
    </g>
   </g>
   <g id="text_24">
    <g clip-path="url(#p56c0c90377)">
     <!-- 3.000 -->
     <g style="fill:#33638d;" transform="translate(81.167548 185.936375)rotate(-332.679669)scale(0.06 -0.06)">
      <defs>
       <path d="M 40.578125 39.3125 
Q 47.65625 37.796875 51.625 33 
Q 55.609375 28.21875 55.609375 21.1875 
Q 55.609375 10.40625 48.1875 4.484375 
Q 40.765625 -1.421875 27.09375 -1.421875 
Q 22.515625 -1.421875 17.65625 -0.515625 
Q 12.796875 0.390625 7.625 2.203125 
L 7.625 11.71875 
Q 11.71875 9.328125 16.59375 8.109375 
Q 21.484375 6.890625 26.8125 6.890625 
Q 36.078125 6.890625 40.9375 10.546875 
Q 45.796875 14.203125 45.796875 21.1875 
Q 45.796875 27.640625 41.28125 31.265625 
Q 36.765625 34.90625 28.71875 34.90625 
L 20.21875 34.90625 
L 20.21875 43.015625 
L 29.109375 43.015625 
Q 36.375 43.015625 40.234375 45.921875 
Q 44.09375 48.828125 44.09375 54.296875 
Q 44.09375 59.90625 40.109375 62.90625 
Q 36.140625 65.921875 28.71875 65.921875 
Q 24.65625 65.921875 20.015625 65.03125 
Q 15.375 64.15625 9.8125 62.3125 
L 9.8125 71.09375 
Q 15.4375 72.65625 20.34375 73.4375 
Q 25.25 74.21875 29.59375 74.21875 
Q 40.828125 74.21875 47.359375 69.109375 
Q 53.90625 64.015625 53.90625 55.328125 
Q 53.90625 49.265625 50.4375 45.09375 
Q 46.96875 40.921875 40.578125 39.3125 
z
" id="DejaVuSans-51"/>
      </defs>
      <use xlink:href="#DejaVuSans-51"/>
      <use x="63.623047" xlink:href="#DejaVuSans-46"/>
      <use x="95.410156" xlink:href="#DejaVuSans-48"/>
      <use x="159.033203" xlink:href="#DejaVuSans-48"/>
      <use x="222.65625" xlink:href="#DejaVuSans-48"/>
     </g>
    </g>
   </g>
   <g id="text_25">
    <g clip-path="url(#p56c0c90377)">
     <!-- 3.500 -->
     <g style="fill:#2d718e;" transform="translate(84.596403 180.61777)rotate(-286.143437)scale(0.06 -0.06)">
      <use xlink:href="#DejaVuSans-51"/>
      <use x="63.623047" xlink:href="#DejaVuSans-46"/>
      <use x="95.410156" xlink:href="#DejaVuSans-53"/>
      <use x="159.033203" xlink:href="#DejaVuSans-48"/>
      <use x="222.65625" xlink:href="#DejaVuSans-48"/>
     </g>
    </g>
   </g>
   <g id="text_26">
    <g clip-path="url(#p56c0c90377)">
     <!-- 4.000 -->
     <g style="fill:#287d8e;" transform="translate(85.57654 142.789164)rotate(-66.122426)scale(0.06 -0.06)">
      <use xlink:href="#DejaVuSans-52"/>
      <use x="63.623047" xlink:href="#DejaVuSans-46"/>
      <use x="95.410156" xlink:href="#DejaVuSans-48"/>
      <use x="159.033203" xlink:href="#DejaVuSans-48"/>
      <use x="222.65625" xlink:href="#DejaVuSans-48"/>
     </g>
    </g>
   </g>
   <g id="text_27">
    <g clip-path="url(#p56c0c90377)">
     <!-- 4.500 -->
     <g style="fill:#238a8d;" transform="translate(85.627954 142.145045)rotate(-66.467798)scale(0.06 -0.06)">
      <use xlink:href="#DejaVuSans-52"/>
      <use x="63.623047" xlink:href="#DejaVuSans-46"/>
      <use x="95.410156" xlink:href="#DejaVuSans-53"/>
      <use x="159.033203" xlink:href="#DejaVuSans-48"/>
      <use x="222.65625" xlink:href="#DejaVuSans-48"/>
     </g>
    </g>
   </g>
   <g id="text_28">
    <g clip-path="url(#p56c0c90377)">
     <!-- 5.000 -->
     <g style="fill:#1f968b;" transform="translate(85.375481 141.428771)rotate(-64.767074)scale(0.06 -0.06)">
      <use xlink:href="#DejaVuSans-53"/>
      <use x="63.623047" xlink:href="#DejaVuSans-46"/>
      <use x="95.410156" xlink:href="#DejaVuSans-48"/>
      <use x="159.033203" xlink:href="#DejaVuSans-48"/>
      <use x="222.65625" xlink:href="#DejaVuSans-48"/>
     </g>
    </g>
   </g>
   <g id="text_29">
    <g clip-path="url(#p56c0c90377)">
     <!-- 5.500 -->
     <g style="fill:#20a386;" transform="translate(85.173384 140.718799)rotate(-63.396431)scale(0.06 -0.06)">
      <use xlink:href="#DejaVuSans-53"/>
      <use x="63.623047" xlink:href="#DejaVuSans-46"/>
      <use x="95.410156" xlink:href="#DejaVuSans-53"/>
      <use x="159.033203" xlink:href="#DejaVuSans-48"/>
      <use x="222.65625" xlink:href="#DejaVuSans-48"/>
     </g>
    </g>
   </g>
   <g id="text_30">
    <g clip-path="url(#p56c0c90377)">
     <!-- 6.000 -->
     <g style="fill:#29af7f;" transform="translate(84.980603 140.006447)rotate(-62.080332)scale(0.06 -0.06)">
      <use xlink:href="#DejaVuSans-54"/>
      <use x="63.623047" xlink:href="#DejaVuSans-46"/>
      <use x="95.410156" xlink:href="#DejaVuSans-48"/>
      <use x="159.033203" xlink:href="#DejaVuSans-48"/>
      <use x="222.65625" xlink:href="#DejaVuSans-48"/>
     </g>
    </g>
   </g>
   <g id="text_31">
    <g clip-path="url(#p56c0c90377)">
     <!-- 6.500 -->
     <g style="fill:#3dbc74;" transform="translate(84.794614 139.291484)rotate(-60.801786)scale(0.06 -0.06)">
      <use xlink:href="#DejaVuSans-54"/>
      <use x="63.623047" xlink:href="#DejaVuSans-46"/>
      <use x="95.410156" xlink:href="#DejaVuSans-53"/>
      <use x="159.033203" xlink:href="#DejaVuSans-48"/>
      <use x="222.65625" xlink:href="#DejaVuSans-48"/>
     </g>
    </g>
   </g>
   <g id="text_32">
    <g clip-path="url(#p56c0c90377)">
     <!-- 7.000 -->
     <g style="fill:#56c667;" transform="translate(84.602881 138.569854)rotate(-59.473796)scale(0.06 -0.06)">
      <use xlink:href="#DejaVuSans-55"/>
      <use x="63.623047" xlink:href="#DejaVuSans-46"/>
      <use x="95.410156" xlink:href="#DejaVuSans-48"/>
      <use x="159.033203" xlink:href="#DejaVuSans-48"/>
      <use x="222.65625" xlink:href="#DejaVuSans-48"/>
     </g>
    </g>
   </g>
   <g id="text_33">
    <g clip-path="url(#p56c0c90377)">
     <!-- 7.500 -->
     <g style="fill:#75d054;" transform="translate(84.402601 137.839917)rotate(-58.074784)scale(0.06 -0.06)">
      <use xlink:href="#DejaVuSans-55"/>
      <use x="63.623047" xlink:href="#DejaVuSans-46"/>
      <use x="95.410156" xlink:href="#DejaVuSans-53"/>
      <use x="159.033203" xlink:href="#DejaVuSans-48"/>
      <use x="222.65625" xlink:href="#DejaVuSans-48"/>
     </g>
    </g>
   </g>
   <g id="text_34">
    <g clip-path="url(#p56c0c90377)">
     <!-- 8.000 -->
     <g style="fill:#95d840;" transform="translate(84.188307 137.098542)rotate(-56.563168)scale(0.06 -0.06)">
      <use xlink:href="#DejaVuSans-56"/>
      <use x="63.623047" xlink:href="#DejaVuSans-46"/>
      <use x="95.410156" xlink:href="#DejaVuSans-48"/>
      <use x="159.033203" xlink:href="#DejaVuSans-48"/>
      <use x="222.65625" xlink:href="#DejaVuSans-48"/>
     </g>
    </g>
   </g>
   <g id="text_35">
    <g clip-path="url(#p56c0c90377)">
     <!-- 8.500 -->
     <g style="fill:#bade28;" transform="translate(83.975855 136.351326)rotate(-55.04804)scale(0.06 -0.06)">
      <use xlink:href="#DejaVuSans-56"/>
      <use x="63.623047" xlink:href="#DejaVuSans-46"/>
      <use x="95.410156" xlink:href="#DejaVuSans-53"/>
      <use x="159.033203" xlink:href="#DejaVuSans-48"/>
      <use x="222.65625" xlink:href="#DejaVuSans-48"/>
     </g>
    </g>
   </g>
   <g id="text_36">
    <g clip-path="url(#p56c0c90377)">
     <!-- 9.000 -->
     <g style="fill:#dde318;" transform="translate(83.765665 135.598414)rotate(-53.531244)scale(0.06 -0.06)">
      <defs>
       <path d="M 10.984375 1.515625 
L 10.984375 10.5 
Q 14.703125 8.734375 18.5 7.8125 
Q 22.3125 6.890625 25.984375 6.890625 
Q 35.75 6.890625 40.890625 13.453125 
Q 46.046875 20.015625 46.78125 33.40625 
Q 43.953125 29.203125 39.59375 26.953125 
Q 35.25 24.703125 29.984375 24.703125 
Q 19.046875 24.703125 12.671875 31.3125 
Q 6.296875 37.9375 6.296875 49.421875 
Q 6.296875 60.640625 12.9375 67.421875 
Q 19.578125 74.21875 30.609375 74.21875 
Q 43.265625 74.21875 49.921875 64.515625 
Q 56.59375 54.828125 56.59375 36.375 
Q 56.59375 19.140625 48.40625 8.859375 
Q 40.234375 -1.421875 26.421875 -1.421875 
Q 22.703125 -1.421875 18.890625 -0.6875 
Q 15.09375 0.046875 10.984375 1.515625 
z
M 30.609375 32.421875 
Q 37.25 32.421875 41.125 36.953125 
Q 45.015625 41.5 45.015625 49.421875 
Q 45.015625 57.28125 41.125 61.84375 
Q 37.25 66.40625 30.609375 66.40625 
Q 23.96875 66.40625 20.09375 61.84375 
Q 16.21875 57.28125 16.21875 49.421875 
Q 16.21875 41.5 20.09375 36.953125 
Q 23.96875 32.421875 30.609375 32.421875 
z
" id="DejaVuSans-57"/>
      </defs>
      <use xlink:href="#DejaVuSans-57"/>
      <use x="63.623047" xlink:href="#DejaVuSans-46"/>
      <use x="95.410156" xlink:href="#DejaVuSans-48"/>
      <use x="159.033203" xlink:href="#DejaVuSans-48"/>
      <use x="222.65625" xlink:href="#DejaVuSans-48"/>
     </g>
    </g>
   </g>
   <g id="text_37">
    <g clip-path="url(#p56c0c90377)">
     <!-- 9.500 -->
     <g style="fill:#fde725;" transform="translate(85.161752 143.930266)rotate(-80.003692)scale(0.06 -0.06)">
      <use xlink:href="#DejaVuSans-57"/>
      <use x="63.623047" xlink:href="#DejaVuSans-46"/>
      <use x="95.410156" xlink:href="#DejaVuSans-53"/>
      <use x="159.033203" xlink:href="#DejaVuSans-48"/>
      <use x="222.65625" xlink:href="#DejaVuSans-48"/>
     </g>
    </g>
   </g>
   <g id="text_38">
    <g clip-path="url(#p56c0c90377)">
     <!-- 10.000 -->
     <g style="fill:#440154;" transform="translate(81.967972 135.445666)rotate(-49.419798)scale(0.06 -0.06)">
      <use xlink:href="#DejaVuSans-49"/>
      <use x="63.623047" xlink:href="#DejaVuSans-48"/>
      <use x="127.246094" xlink:href="#DejaVuSans-46"/>
      <use x="159.033203" xlink:href="#DejaVuSans-48"/>
      <use x="222.65625" xlink:href="#DejaVuSans-48"/>
      <use x="286.279297" xlink:href="#DejaVuSans-48"/>
     </g>
    </g>
   </g>
   <g id="text_39">
    <g clip-path="url(#p56c0c90377)">
     <!-- 100.000 -->
     <g style="fill:#440154;" transform="translate(79.297071 223.950663)rotate(-346.228178)scale(0.06 -0.06)">
      <use xlink:href="#DejaVuSans-49"/>
      <use x="63.623047" xlink:href="#DejaVuSans-48"/>
      <use x="127.246094" xlink:href="#DejaVuSans-48"/>
      <use x="190.869141" xlink:href="#DejaVuSans-46"/>
      <use x="222.65625" xlink:href="#DejaVuSans-48"/>
      <use x="286.279297" xlink:href="#DejaVuSans-48"/>
      <use x="349.902344" xlink:href="#DejaVuSans-48"/>
     </g>
    </g>
   </g>
   <g id="text_40">
    <g clip-path="url(#p56c0c90377)">
     <!-- 1000.000 -->
     <g style="fill:#440154;" transform="translate(81.109504 149.5946)rotate(-83.791549)scale(0.06 -0.06)">
      <use xlink:href="#DejaVuSans-49"/>
      <use x="63.623047" xlink:href="#DejaVuSans-48"/>
      <use x="127.246094" xlink:href="#DejaVuSans-48"/>
      <use x="190.869141" xlink:href="#DejaVuSans-48"/>
      <use x="254.492188" xlink:href="#DejaVuSans-46"/>
      <use x="286.279297" xlink:href="#DejaVuSans-48"/>
      <use x="349.902344" xlink:href="#DejaVuSans-48"/>
      <use x="413.525391" xlink:href="#DejaVuSans-48"/>
     </g>
    </g>
   </g>
   <g id="text_41">
    <g clip-path="url(#p56c0c90377)">
     <!-- 10000.000 -->
     <g style="fill:#440154;" transform="translate(78.943497 142.611391)rotate(-82.094923)scale(0.06 -0.06)">
      <use xlink:href="#DejaVuSans-49"/>
      <use x="63.623047" xlink:href="#DejaVuSans-48"/>
      <use x="127.246094" xlink:href="#DejaVuSans-48"/>
      <use x="190.869141" xlink:href="#DejaVuSans-48"/>
      <use x="254.492188" xlink:href="#DejaVuSans-48"/>
      <use x="318.115234" xlink:href="#DejaVuSans-46"/>
      <use x="349.902344" xlink:href="#DejaVuSans-48"/>
      <use x="413.525391" xlink:href="#DejaVuSans-48"/>
      <use x="477.148438" xlink:href="#DejaVuSans-48"/>
     </g>
    </g>
   </g>
   <g id="text_42">
    <g clip-path="url(#p56c0c90377)">
     <!-- 100000.000 -->
     <g style="fill:#440154;" transform="translate(83.229436 278.749389)rotate(-30.033374)scale(0.06 -0.06)">
      <use xlink:href="#DejaVuSans-49"/>
      <use x="63.623047" xlink:href="#DejaVuSans-48"/>
      <use x="127.246094" xlink:href="#DejaVuSans-48"/>
      <use x="190.869141" xlink:href="#DejaVuSans-48"/>
      <use x="254.492188" xlink:href="#DejaVuSans-48"/>
      <use x="318.115234" xlink:href="#DejaVuSans-48"/>
      <use x="381.738281" xlink:href="#DejaVuSans-46"/>
      <use x="413.525391" xlink:href="#DejaVuSans-48"/>
      <use x="477.148438" xlink:href="#DejaVuSans-48"/>
      <use x="540.771484" xlink:href="#DejaVuSans-48"/>
     </g>
    </g>
   </g>
   <g id="text_43">
    <g clip-path="url(#p56c0c90377)">
     <!-- 1000000.000 -->
     <g style="fill:#450457;" transform="translate(75.069384 137.527984)rotate(-82.406242)scale(0.06 -0.06)">
      <use xlink:href="#DejaVuSans-49"/>
      <use x="63.623047" xlink:href="#DejaVuSans-48"/>
      <use x="127.246094" xlink:href="#DejaVuSans-48"/>
      <use x="190.869141" xlink:href="#DejaVuSans-48"/>
      <use x="254.492188" xlink:href="#DejaVuSans-48"/>
      <use x="318.115234" xlink:href="#DejaVuSans-48"/>
      <use x="381.738281" xlink:href="#DejaVuSans-48"/>
      <use x="445.361328" xlink:href="#DejaVuSans-46"/>
      <use x="477.148438" xlink:href="#DejaVuSans-48"/>
      <use x="540.771484" xlink:href="#DejaVuSans-48"/>
      <use x="604.394531" xlink:href="#DejaVuSans-48"/>
     </g>
    </g>
   </g>
   <g id="text_44">
    <g clip-path="url(#p56c0c90377)">
     <!-- 10000000.000 -->
     <g style="fill:#482475;" transform="translate(72.740107 130.498903)rotate(-80.59787)scale(0.06 -0.06)">
      <use xlink:href="#DejaVuSans-49"/>
      <use x="63.623047" xlink:href="#DejaVuSans-48"/>
      <use x="127.246094" xlink:href="#DejaVuSans-48"/>
      <use x="190.869141" xlink:href="#DejaVuSans-48"/>
      <use x="254.492188" xlink:href="#DejaVuSans-48"/>
      <use x="318.115234" xlink:href="#DejaVuSans-48"/>
      <use x="381.738281" xlink:href="#DejaVuSans-48"/>
      <use x="445.361328" xlink:href="#DejaVuSans-48"/>
      <use x="508.984375" xlink:href="#DejaVuSans-46"/>
      <use x="540.771484" xlink:href="#DejaVuSans-48"/>
      <use x="604.394531" xlink:href="#DejaVuSans-48"/>
      <use x="668.017578" xlink:href="#DejaVuSans-48"/>
     </g>
    </g>
   </g>
   <g id="text_45">
    <g clip-path="url(#p56c0c90377)">
     <!-- 100000000.000 -->
     <g style="fill:#fde725;" transform="translate(70.850827 114.261989)rotate(-74.452242)scale(0.06 -0.06)">
      <use xlink:href="#DejaVuSans-49"/>
      <use x="63.623047" xlink:href="#DejaVuSans-48"/>
      <use x="127.246094" xlink:href="#DejaVuSans-48"/>
      <use x="190.869141" xlink:href="#DejaVuSans-48"/>
      <use x="254.492188" xlink:href="#DejaVuSans-48"/>
      <use x="318.115234" xlink:href="#DejaVuSans-48"/>
      <use x="381.738281" xlink:href="#DejaVuSans-48"/>
      <use x="445.361328" xlink:href="#DejaVuSans-48"/>
      <use x="508.984375" xlink:href="#DejaVuSans-48"/>
      <use x="572.607422" xlink:href="#DejaVuSans-46"/>
      <use x="604.394531" xlink:href="#DejaVuSans-48"/>
      <use x="668.017578" xlink:href="#DejaVuSans-48"/>
      <use x="731.640625" xlink:href="#DejaVuSans-48"/>
     </g>
    </g>
   </g>
  </g>
 </g>
 <defs>
  <clipPath id="p56c0c90377">
   <rect height="266.112" width="357.12" x="56.028488" y="10.999219"/>
  </clipPath>
 </defs>
</svg>
