<?xml version="1.0" encoding="utf-8" standalone="no"?>
<!DOCTYPE svg PUBLIC "-//W3C//DTD SVG 1.1//EN"
  "http://www.w3.org/Graphics/SVG/1.1/DTD/svg11.dtd">
<!-- Created with matplotlib (https://matplotlib.org/) -->
<svg height="321.713144pt" version="1.1" viewBox="0 0 420.348487 321.713144" width="420.348487pt" xmlns="http://www.w3.org/2000/svg" xmlns:xlink="http://www.w3.org/1999/xlink">
 <metadata>
  <rdf:RDF xmlns:cc="http://creativecommons.org/ns#" xmlns:dc="http://purl.org/dc/elements/1.1/" xmlns:rdf="http://www.w3.org/1999/02/22-rdf-syntax-ns#">
   <cc:Work>
    <dc:type rdf:resource="http://purl.org/dc/dcmitype/StillImage"/>
    <dc:date>2021-09-21T23:35:35.632319</dc:date>
    <dc:format>image/svg+xml</dc:format>
    <dc:creator>
     <cc:Agent>
      <dc:title>Matplotlib v3.3.1, https://matplotlib.org/</dc:title>
     </cc:Agent>
    </dc:creator>
   </cc:Work>
  </rdf:RDF>
 </metadata>
 <defs>
  <style type="text/css">*{stroke-linecap:butt;stroke-linejoin:round;}</style>
 </defs>
 <g id="figure_1">
  <g id="patch_1">
   <path d="M 0 321.713144 
L 420.348487 321.713144 
L 420.348487 0 
L 0 0 
z
" style="fill:#ffffff;"/>
  </g>
  <g id="axes_1">
   <g id="patch_2">
    <path d="M 56.028488 277.111219 
L 413.148488 277.111219 
L 413.148488 10.999219 
L 56.028488 10.999219 
z
" style="fill:#ffffff;"/>
   </g>
   <g id="matplotlib.axis_1">
    <g id="xtick_1">
     <g id="line2d_1">
      <defs>
       <path d="M 0 0 
L 0 3.5 
" id="m858e7e4463" style="stroke:#000000;stroke-width:0.8;"/>
      </defs>
      <g>
       <use style="stroke:#000000;stroke-width:0.8;" x="56.028488" xlink:href="#m858e7e4463" y="277.111219"/>
      </g>
     </g>
     <g id="text_1">
      <!-- −20 -->
      <g transform="translate(45.476144 291.709656)scale(0.1 -0.1)">
       <defs>
        <path d="M 10.59375 35.5 
L 73.1875 35.5 
L 73.1875 27.203125 
L 10.59375 27.203125 
z
" id="DejaVuSans-8722"/>
        <path d="M 19.1875 8.296875 
L 53.609375 8.296875 
L 53.609375 0 
L 7.328125 0 
L 7.328125 8.296875 
Q 12.9375 14.109375 22.625 23.890625 
Q 32.328125 33.6875 34.8125 36.53125 
Q 39.546875 41.84375 41.421875 45.53125 
Q 43.3125 49.21875 43.3125 52.78125 
Q 43.3125 58.59375 39.234375 62.25 
Q 35.15625 65.921875 28.609375 65.921875 
Q 23.96875 65.921875 18.8125 64.3125 
Q 13.671875 62.703125 7.8125 59.421875 
L 7.8125 69.390625 
Q 13.765625 71.78125 18.9375 73 
Q 24.125 74.21875 28.421875 74.21875 
Q 39.75 74.21875 46.484375 68.546875 
Q 53.21875 62.890625 53.21875 53.421875 
Q 53.21875 48.921875 51.53125 44.890625 
Q 49.859375 40.875 45.40625 35.40625 
Q 44.1875 33.984375 37.640625 27.21875 
Q 31.109375 20.453125 19.1875 8.296875 
z
" id="DejaVuSans-50"/>
        <path d="M 31.78125 66.40625 
Q 24.171875 66.40625 20.328125 58.90625 
Q 16.5 51.421875 16.5 36.375 
Q 16.5 21.390625 20.328125 13.890625 
Q 24.171875 6.390625 31.78125 6.390625 
Q 39.453125 6.390625 43.28125 13.890625 
Q 47.125 21.390625 47.125 36.375 
Q 47.125 51.421875 43.28125 58.90625 
Q 39.453125 66.40625 31.78125 66.40625 
z
M 31.78125 74.21875 
Q 44.046875 74.21875 50.515625 64.515625 
Q 56.984375 54.828125 56.984375 36.375 
Q 56.984375 17.96875 50.515625 8.265625 
Q 44.046875 -1.421875 31.78125 -1.421875 
Q 19.53125 -1.421875 13.0625 8.265625 
Q 6.59375 17.96875 6.59375 36.375 
Q 6.59375 54.828125 13.0625 64.515625 
Q 19.53125 74.21875 31.78125 74.21875 
z
" id="DejaVuSans-48"/>
       </defs>
       <use xlink:href="#DejaVuSans-8722"/>
       <use x="83.789062" xlink:href="#DejaVuSans-50"/>
       <use x="147.412109" xlink:href="#DejaVuSans-48"/>
      </g>
     </g>
    </g>
    <g id="xtick_2">
     <g id="line2d_2">
      <g>
       <use style="stroke:#000000;stroke-width:0.8;" x="98.042605" xlink:href="#m858e7e4463" y="277.111219"/>
      </g>
     </g>
     <g id="text_2">
      <!-- 0 -->
      <g transform="translate(94.861355 291.709656)scale(0.1 -0.1)">
       <use xlink:href="#DejaVuSans-48"/>
      </g>
     </g>
    </g>
    <g id="xtick_3">
     <g id="line2d_3">
      <g>
       <use style="stroke:#000000;stroke-width:0.8;" x="140.056723" xlink:href="#m858e7e4463" y="277.111219"/>
      </g>
     </g>
     <g id="text_3">
      <!-- 20 -->
      <g transform="translate(133.694223 291.709656)scale(0.1 -0.1)">
       <use xlink:href="#DejaVuSans-50"/>
       <use x="63.623047" xlink:href="#DejaVuSans-48"/>
      </g>
     </g>
    </g>
    <g id="xtick_4">
     <g id="line2d_4">
      <g>
       <use style="stroke:#000000;stroke-width:0.8;" x="182.07084" xlink:href="#m858e7e4463" y="277.111219"/>
      </g>
     </g>
     <g id="text_4">
      <!-- 40 -->
      <g transform="translate(175.70834 291.709656)scale(0.1 -0.1)">
       <defs>
        <path d="M 37.796875 64.3125 
L 12.890625 25.390625 
L 37.796875 25.390625 
z
M 35.203125 72.90625 
L 47.609375 72.90625 
L 47.609375 25.390625 
L 58.015625 25.390625 
L 58.015625 17.1875 
L 47.609375 17.1875 
L 47.609375 0 
L 37.796875 0 
L 37.796875 17.1875 
L 4.890625 17.1875 
L 4.890625 26.703125 
z
" id="DejaVuSans-52"/>
       </defs>
       <use xlink:href="#DejaVuSans-52"/>
       <use x="63.623047" xlink:href="#DejaVuSans-48"/>
      </g>
     </g>
    </g>
    <g id="xtick_5">
     <g id="line2d_5">
      <g>
       <use style="stroke:#000000;stroke-width:0.8;" x="224.084958" xlink:href="#m858e7e4463" y="277.111219"/>
      </g>
     </g>
     <g id="text_5">
      <!-- 60 -->
      <g transform="translate(217.722458 291.709656)scale(0.1 -0.1)">
       <defs>
        <path d="M 33.015625 40.375 
Q 26.375 40.375 22.484375 35.828125 
Q 18.609375 31.296875 18.609375 23.390625 
Q 18.609375 15.53125 22.484375 10.953125 
Q 26.375 6.390625 33.015625 6.390625 
Q 39.65625 6.390625 43.53125 10.953125 
Q 47.40625 15.53125 47.40625 23.390625 
Q 47.40625 31.296875 43.53125 35.828125 
Q 39.65625 40.375 33.015625 40.375 
z
M 52.59375 71.296875 
L 52.59375 62.3125 
Q 48.875 64.0625 45.09375 64.984375 
Q 41.3125 65.921875 37.59375 65.921875 
Q 27.828125 65.921875 22.671875 59.328125 
Q 17.53125 52.734375 16.796875 39.40625 
Q 19.671875 43.65625 24.015625 45.921875 
Q 28.375 48.1875 33.59375 48.1875 
Q 44.578125 48.1875 50.953125 41.515625 
Q 57.328125 34.859375 57.328125 23.390625 
Q 57.328125 12.15625 50.6875 5.359375 
Q 44.046875 -1.421875 33.015625 -1.421875 
Q 20.359375 -1.421875 13.671875 8.265625 
Q 6.984375 17.96875 6.984375 36.375 
Q 6.984375 53.65625 15.1875 63.9375 
Q 23.390625 74.21875 37.203125 74.21875 
Q 40.921875 74.21875 44.703125 73.484375 
Q 48.484375 72.75 52.59375 71.296875 
z
" id="DejaVuSans-54"/>
       </defs>
       <use xlink:href="#DejaVuSans-54"/>
       <use x="63.623047" xlink:href="#DejaVuSans-48"/>
      </g>
     </g>
    </g>
    <g id="xtick_6">
     <g id="line2d_6">
      <g>
       <use style="stroke:#000000;stroke-width:0.8;" x="266.099076" xlink:href="#m858e7e4463" y="277.111219"/>
      </g>
     </g>
     <g id="text_6">
      <!-- 80 -->
      <g transform="translate(259.736576 291.709656)scale(0.1 -0.1)">
       <defs>
        <path d="M 31.78125 34.625 
Q 24.75 34.625 20.71875 30.859375 
Q 16.703125 27.09375 16.703125 20.515625 
Q 16.703125 13.921875 20.71875 10.15625 
Q 24.75 6.390625 31.78125 6.390625 
Q 38.8125 6.390625 42.859375 10.171875 
Q 46.921875 13.96875 46.921875 20.515625 
Q 46.921875 27.09375 42.890625 30.859375 
Q 38.875 34.625 31.78125 34.625 
z
M 21.921875 38.8125 
Q 15.578125 40.375 12.03125 44.71875 
Q 8.5 49.078125 8.5 55.328125 
Q 8.5 64.0625 14.71875 69.140625 
Q 20.953125 74.21875 31.78125 74.21875 
Q 42.671875 74.21875 48.875 69.140625 
Q 55.078125 64.0625 55.078125 55.328125 
Q 55.078125 49.078125 51.53125 44.71875 
Q 48 40.375 41.703125 38.8125 
Q 48.828125 37.15625 52.796875 32.3125 
Q 56.78125 27.484375 56.78125 20.515625 
Q 56.78125 9.90625 50.3125 4.234375 
Q 43.84375 -1.421875 31.78125 -1.421875 
Q 19.734375 -1.421875 13.25 4.234375 
Q 6.78125 9.90625 6.78125 20.515625 
Q 6.78125 27.484375 10.78125 32.3125 
Q 14.796875 37.15625 21.921875 38.8125 
z
M 18.3125 54.390625 
Q 18.3125 48.734375 21.84375 45.5625 
Q 25.390625 42.390625 31.78125 42.390625 
Q 38.140625 42.390625 41.71875 45.5625 
Q 45.3125 48.734375 45.3125 54.390625 
Q 45.3125 60.0625 41.71875 63.234375 
Q 38.140625 66.40625 31.78125 66.40625 
Q 25.390625 66.40625 21.84375 63.234375 
Q 18.3125 60.0625 18.3125 54.390625 
z
" id="DejaVuSans-56"/>
       </defs>
       <use xlink:href="#DejaVuSans-56"/>
       <use x="63.623047" xlink:href="#DejaVuSans-48"/>
      </g>
     </g>
    </g>
    <g id="xtick_7">
     <g id="line2d_7">
      <g>
       <use style="stroke:#000000;stroke-width:0.8;" x="308.113193" xlink:href="#m858e7e4463" y="277.111219"/>
      </g>
     </g>
     <g id="text_7">
      <!-- 100 -->
      <g transform="translate(298.569443 291.709656)scale(0.1 -0.1)">
       <defs>
        <path d="M 12.40625 8.296875 
L 28.515625 8.296875 
L 28.515625 63.921875 
L 10.984375 60.40625 
L 10.984375 69.390625 
L 28.421875 72.90625 
L 38.28125 72.90625 
L 38.28125 8.296875 
L 54.390625 8.296875 
L 54.390625 0 
L 12.40625 0 
z
" id="DejaVuSans-49"/>
       </defs>
       <use xlink:href="#DejaVuSans-49"/>
       <use x="63.623047" xlink:href="#DejaVuSans-48"/>
       <use x="127.246094" xlink:href="#DejaVuSans-48"/>
      </g>
     </g>
    </g>
    <g id="xtick_8">
     <g id="line2d_8">
      <g>
       <use style="stroke:#000000;stroke-width:0.8;" x="350.127311" xlink:href="#m858e7e4463" y="277.111219"/>
      </g>
     </g>
     <g id="text_8">
      <!-- 120 -->
      <g transform="translate(340.583561 291.709656)scale(0.1 -0.1)">
       <use xlink:href="#DejaVuSans-49"/>
       <use x="63.623047" xlink:href="#DejaVuSans-50"/>
       <use x="127.246094" xlink:href="#DejaVuSans-48"/>
      </g>
     </g>
    </g>
    <g id="xtick_9">
     <g id="line2d_9">
      <g>
       <use style="stroke:#000000;stroke-width:0.8;" x="392.141429" xlink:href="#m858e7e4463" y="277.111219"/>
      </g>
     </g>
     <g id="text_9">
      <!-- 140 -->
      <g transform="translate(382.597679 291.709656)scale(0.1 -0.1)">
       <use xlink:href="#DejaVuSans-49"/>
       <use x="63.623047" xlink:href="#DejaVuSans-52"/>
       <use x="127.246094" xlink:href="#DejaVuSans-48"/>
      </g>
     </g>
    </g>
    <g id="text_10">
     <!-- 1st PC: 84.40 % -->
     <g transform="translate(165.868088 310.919444)scale(0.1728 -0.1728)">
      <defs>
       <path d="M 44.28125 53.078125 
L 44.28125 44.578125 
Q 40.484375 46.53125 36.375 47.5 
Q 32.28125 48.484375 27.875 48.484375 
Q 21.1875 48.484375 17.84375 46.4375 
Q 14.5 44.390625 14.5 40.28125 
Q 14.5 37.15625 16.890625 35.375 
Q 19.28125 33.59375 26.515625 31.984375 
L 29.59375 31.296875 
Q 39.15625 29.25 43.1875 25.515625 
Q 47.21875 21.78125 47.21875 15.09375 
Q 47.21875 7.46875 41.1875 3.015625 
Q 35.15625 -1.421875 24.609375 -1.421875 
Q 20.21875 -1.421875 15.453125 -0.5625 
Q 10.6875 0.296875 5.421875 2 
L 5.421875 11.28125 
Q 10.40625 8.6875 15.234375 7.390625 
Q 20.0625 6.109375 24.8125 6.109375 
Q 31.15625 6.109375 34.5625 8.28125 
Q 37.984375 10.453125 37.984375 14.40625 
Q 37.984375 18.0625 35.515625 20.015625 
Q 33.0625 21.96875 24.703125 23.78125 
L 21.578125 24.515625 
Q 13.234375 26.265625 9.515625 29.90625 
Q 5.8125 33.546875 5.8125 39.890625 
Q 5.8125 47.609375 11.28125 51.796875 
Q 16.75 56 26.8125 56 
Q 31.78125 56 36.171875 55.265625 
Q 40.578125 54.546875 44.28125 53.078125 
z
" id="DejaVuSans-115"/>
       <path d="M 18.3125 70.21875 
L 18.3125 54.6875 
L 36.8125 54.6875 
L 36.8125 47.703125 
L 18.3125 47.703125 
L 18.3125 18.015625 
Q 18.3125 11.328125 20.140625 9.421875 
Q 21.96875 7.515625 27.59375 7.515625 
L 36.8125 7.515625 
L 36.8125 0 
L 27.59375 0 
Q 17.1875 0 13.234375 3.875 
Q 9.28125 7.765625 9.28125 18.015625 
L 9.28125 47.703125 
L 2.6875 47.703125 
L 2.6875 54.6875 
L 9.28125 54.6875 
L 9.28125 70.21875 
z
" id="DejaVuSans-116"/>
       <path id="DejaVuSans-32"/>
       <path d="M 19.671875 64.796875 
L 19.671875 37.40625 
L 32.078125 37.40625 
Q 38.96875 37.40625 42.71875 40.96875 
Q 46.484375 44.53125 46.484375 51.125 
Q 46.484375 57.671875 42.71875 61.234375 
Q 38.96875 64.796875 32.078125 64.796875 
z
M 9.8125 72.90625 
L 32.078125 72.90625 
Q 44.34375 72.90625 50.609375 67.359375 
Q 56.890625 61.8125 56.890625 51.125 
Q 56.890625 40.328125 50.609375 34.8125 
Q 44.34375 29.296875 32.078125 29.296875 
L 19.671875 29.296875 
L 19.671875 0 
L 9.8125 0 
z
" id="DejaVuSans-80"/>
       <path d="M 64.40625 67.28125 
L 64.40625 56.890625 
Q 59.421875 61.53125 53.78125 63.8125 
Q 48.140625 66.109375 41.796875 66.109375 
Q 29.296875 66.109375 22.65625 58.46875 
Q 16.015625 50.828125 16.015625 36.375 
Q 16.015625 21.96875 22.65625 14.328125 
Q 29.296875 6.6875 41.796875 6.6875 
Q 48.140625 6.6875 53.78125 8.984375 
Q 59.421875 11.28125 64.40625 15.921875 
L 64.40625 5.609375 
Q 59.234375 2.09375 53.4375 0.328125 
Q 47.65625 -1.421875 41.21875 -1.421875 
Q 24.65625 -1.421875 15.125 8.703125 
Q 5.609375 18.84375 5.609375 36.375 
Q 5.609375 53.953125 15.125 64.078125 
Q 24.65625 74.21875 41.21875 74.21875 
Q 47.75 74.21875 53.53125 72.484375 
Q 59.328125 70.75 64.40625 67.28125 
z
" id="DejaVuSans-67"/>
       <path d="M 11.71875 12.40625 
L 22.015625 12.40625 
L 22.015625 0 
L 11.71875 0 
z
M 11.71875 51.703125 
L 22.015625 51.703125 
L 22.015625 39.3125 
L 11.71875 39.3125 
z
" id="DejaVuSans-58"/>
       <path d="M 10.6875 12.40625 
L 21 12.40625 
L 21 0 
L 10.6875 0 
z
" id="DejaVuSans-46"/>
       <path d="M 72.703125 32.078125 
Q 68.453125 32.078125 66.03125 28.46875 
Q 63.625 24.859375 63.625 18.40625 
Q 63.625 12.0625 66.03125 8.421875 
Q 68.453125 4.78125 72.703125 4.78125 
Q 76.859375 4.78125 79.265625 8.421875 
Q 81.6875 12.0625 81.6875 18.40625 
Q 81.6875 24.8125 79.265625 28.4375 
Q 76.859375 32.078125 72.703125 32.078125 
z
M 72.703125 38.28125 
Q 80.421875 38.28125 84.953125 32.90625 
Q 89.5 27.546875 89.5 18.40625 
Q 89.5 9.28125 84.9375 3.921875 
Q 80.375 -1.421875 72.703125 -1.421875 
Q 64.890625 -1.421875 60.34375 3.921875 
Q 55.8125 9.28125 55.8125 18.40625 
Q 55.8125 27.59375 60.375 32.9375 
Q 64.9375 38.28125 72.703125 38.28125 
z
M 22.3125 68.015625 
Q 18.109375 68.015625 15.6875 64.375 
Q 13.28125 60.75 13.28125 54.390625 
Q 13.28125 47.953125 15.671875 44.328125 
Q 18.0625 40.71875 22.3125 40.71875 
Q 26.5625 40.71875 28.96875 44.328125 
Q 31.390625 47.953125 31.390625 54.390625 
Q 31.390625 60.6875 28.953125 64.34375 
Q 26.515625 68.015625 22.3125 68.015625 
z
M 66.40625 74.21875 
L 74.21875 74.21875 
L 28.609375 -1.421875 
L 20.796875 -1.421875 
z
M 22.3125 74.21875 
Q 30.03125 74.21875 34.609375 68.875 
Q 39.203125 63.53125 39.203125 54.390625 
Q 39.203125 45.171875 34.640625 39.84375 
Q 30.078125 34.515625 22.3125 34.515625 
Q 14.546875 34.515625 10.03125 39.859375 
Q 5.515625 45.21875 5.515625 54.390625 
Q 5.515625 63.484375 10.046875 68.84375 
Q 14.59375 74.21875 22.3125 74.21875 
z
" id="DejaVuSans-37"/>
      </defs>
      <use xlink:href="#DejaVuSans-49"/>
      <use x="63.623047" xlink:href="#DejaVuSans-115"/>
      <use x="115.722656" xlink:href="#DejaVuSans-116"/>
      <use x="154.931641" xlink:href="#DejaVuSans-32"/>
      <use x="186.71875" xlink:href="#DejaVuSans-80"/>
      <use x="247.021484" xlink:href="#DejaVuSans-67"/>
      <use x="316.845703" xlink:href="#DejaVuSans-58"/>
      <use x="350.537109" xlink:href="#DejaVuSans-32"/>
      <use x="382.324219" xlink:href="#DejaVuSans-56"/>
      <use x="445.947266" xlink:href="#DejaVuSans-52"/>
      <use x="509.570312" xlink:href="#DejaVuSans-46"/>
      <use x="541.357422" xlink:href="#DejaVuSans-52"/>
      <use x="604.980469" xlink:href="#DejaVuSans-48"/>
      <use x="668.603516" xlink:href="#DejaVuSans-32"/>
      <use x="700.390625" xlink:href="#DejaVuSans-37"/>
     </g>
    </g>
   </g>
   <g id="matplotlib.axis_2">
    <g id="ytick_1">
     <g id="line2d_10">
      <defs>
       <path d="M 0 0 
L -3.5 0 
" id="mdd3aa9912d" style="stroke:#000000;stroke-width:0.8;"/>
      </defs>
      <g>
       <use style="stroke:#000000;stroke-width:0.8;" x="56.028488" xlink:href="#mdd3aa9912d" y="277.111219"/>
      </g>
     </g>
     <g id="text_11">
      <!-- −20 -->
      <g transform="translate(27.9238 280.910437)scale(0.1 -0.1)">
       <use xlink:href="#DejaVuSans-8722"/>
       <use x="83.789062" xlink:href="#DejaVuSans-50"/>
       <use x="147.412109" xlink:href="#DejaVuSans-48"/>
      </g>
     </g>
    </g>
    <g id="ytick_2">
     <g id="line2d_11">
      <g>
       <use style="stroke:#000000;stroke-width:0.8;" x="56.028488" xlink:href="#mdd3aa9912d" y="243.847219"/>
      </g>
     </g>
     <g id="text_12">
      <!-- −15 -->
      <g transform="translate(27.9238 247.646437)scale(0.1 -0.1)">
       <defs>
        <path d="M 10.796875 72.90625 
L 49.515625 72.90625 
L 49.515625 64.59375 
L 19.828125 64.59375 
L 19.828125 46.734375 
Q 21.96875 47.46875 24.109375 47.828125 
Q 26.265625 48.1875 28.421875 48.1875 
Q 40.625 48.1875 47.75 41.5 
Q 54.890625 34.8125 54.890625 23.390625 
Q 54.890625 11.625 47.5625 5.09375 
Q 40.234375 -1.421875 26.90625 -1.421875 
Q 22.3125 -1.421875 17.546875 -0.640625 
Q 12.796875 0.140625 7.71875 1.703125 
L 7.71875 11.625 
Q 12.109375 9.234375 16.796875 8.0625 
Q 21.484375 6.890625 26.703125 6.890625 
Q 35.15625 6.890625 40.078125 11.328125 
Q 45.015625 15.765625 45.015625 23.390625 
Q 45.015625 31 40.078125 35.4375 
Q 35.15625 39.890625 26.703125 39.890625 
Q 22.75 39.890625 18.8125 39.015625 
Q 14.890625 38.140625 10.796875 36.28125 
z
" id="DejaVuSans-53"/>
       </defs>
       <use xlink:href="#DejaVuSans-8722"/>
       <use x="83.789062" xlink:href="#DejaVuSans-49"/>
       <use x="147.412109" xlink:href="#DejaVuSans-53"/>
      </g>
     </g>
    </g>
    <g id="ytick_3">
     <g id="line2d_12">
      <g>
       <use style="stroke:#000000;stroke-width:0.8;" x="56.028488" xlink:href="#mdd3aa9912d" y="210.583219"/>
      </g>
     </g>
     <g id="text_13">
      <!-- −10 -->
      <g transform="translate(27.9238 214.382437)scale(0.1 -0.1)">
       <use xlink:href="#DejaVuSans-8722"/>
       <use x="83.789062" xlink:href="#DejaVuSans-49"/>
       <use x="147.412109" xlink:href="#DejaVuSans-48"/>
      </g>
     </g>
    </g>
    <g id="ytick_4">
     <g id="line2d_13">
      <g>
       <use style="stroke:#000000;stroke-width:0.8;" x="56.028488" xlink:href="#mdd3aa9912d" y="177.319219"/>
      </g>
     </g>
     <g id="text_14">
      <!-- −5 -->
      <g transform="translate(34.2863 181.118437)scale(0.1 -0.1)">
       <use xlink:href="#DejaVuSans-8722"/>
       <use x="83.789062" xlink:href="#DejaVuSans-53"/>
      </g>
     </g>
    </g>
    <g id="ytick_5">
     <g id="line2d_14">
      <g>
       <use style="stroke:#000000;stroke-width:0.8;" x="56.028488" xlink:href="#mdd3aa9912d" y="144.055219"/>
      </g>
     </g>
     <g id="text_15">
      <!-- 0 -->
      <g transform="translate(42.665987 147.854437)scale(0.1 -0.1)">
       <use xlink:href="#DejaVuSans-48"/>
      </g>
     </g>
    </g>
    <g id="ytick_6">
     <g id="line2d_15">
      <g>
       <use style="stroke:#000000;stroke-width:0.8;" x="56.028488" xlink:href="#mdd3aa9912d" y="110.791219"/>
      </g>
     </g>
     <g id="text_16">
      <!-- 5 -->
      <g transform="translate(42.665987 114.590437)scale(0.1 -0.1)">
       <use xlink:href="#DejaVuSans-53"/>
      </g>
     </g>
    </g>
    <g id="ytick_7">
     <g id="line2d_16">
      <g>
       <use style="stroke:#000000;stroke-width:0.8;" x="56.028488" xlink:href="#mdd3aa9912d" y="77.527219"/>
      </g>
     </g>
     <g id="text_17">
      <!-- 10 -->
      <g transform="translate(36.303488 81.326437)scale(0.1 -0.1)">
       <use xlink:href="#DejaVuSans-49"/>
       <use x="63.623047" xlink:href="#DejaVuSans-48"/>
      </g>
     </g>
    </g>
    <g id="ytick_8">
     <g id="line2d_17">
      <g>
       <use style="stroke:#000000;stroke-width:0.8;" x="56.028488" xlink:href="#mdd3aa9912d" y="44.263219"/>
      </g>
     </g>
     <g id="text_18">
      <!-- 15 -->
      <g transform="translate(36.303488 48.062437)scale(0.1 -0.1)">
       <use xlink:href="#DejaVuSans-49"/>
       <use x="63.623047" xlink:href="#DejaVuSans-53"/>
      </g>
     </g>
    </g>
    <g id="ytick_9">
     <g id="line2d_18">
      <g>
       <use style="stroke:#000000;stroke-width:0.8;" x="56.028488" xlink:href="#mdd3aa9912d" y="10.999219"/>
      </g>
     </g>
     <g id="text_19">
      <!-- 20 -->
      <g transform="translate(36.303488 14.798437)scale(0.1 -0.1)">
       <use xlink:href="#DejaVuSans-50"/>
       <use x="63.623047" xlink:href="#DejaVuSans-48"/>
      </g>
     </g>
    </g>
    <g id="text_20">
     <!-- 2nd PC: 13.46 % -->
     <g transform="translate(20.3301 215.848219)rotate(-90)scale(0.1728 -0.1728)">
      <defs>
       <path d="M 54.890625 33.015625 
L 54.890625 0 
L 45.90625 0 
L 45.90625 32.71875 
Q 45.90625 40.484375 42.875 44.328125 
Q 39.84375 48.1875 33.796875 48.1875 
Q 26.515625 48.1875 22.3125 43.546875 
Q 18.109375 38.921875 18.109375 30.90625 
L 18.109375 0 
L 9.078125 0 
L 9.078125 54.6875 
L 18.109375 54.6875 
L 18.109375 46.1875 
Q 21.34375 51.125 25.703125 53.5625 
Q 30.078125 56 35.796875 56 
Q 45.21875 56 50.046875 50.171875 
Q 54.890625 44.34375 54.890625 33.015625 
z
" id="DejaVuSans-110"/>
       <path d="M 45.40625 46.390625 
L 45.40625 75.984375 
L 54.390625 75.984375 
L 54.390625 0 
L 45.40625 0 
L 45.40625 8.203125 
Q 42.578125 3.328125 38.25 0.953125 
Q 33.9375 -1.421875 27.875 -1.421875 
Q 17.96875 -1.421875 11.734375 6.484375 
Q 5.515625 14.40625 5.515625 27.296875 
Q 5.515625 40.1875 11.734375 48.09375 
Q 17.96875 56 27.875 56 
Q 33.9375 56 38.25 53.625 
Q 42.578125 51.265625 45.40625 46.390625 
z
M 14.796875 27.296875 
Q 14.796875 17.390625 18.875 11.75 
Q 22.953125 6.109375 30.078125 6.109375 
Q 37.203125 6.109375 41.296875 11.75 
Q 45.40625 17.390625 45.40625 27.296875 
Q 45.40625 37.203125 41.296875 42.84375 
Q 37.203125 48.484375 30.078125 48.484375 
Q 22.953125 48.484375 18.875 42.84375 
Q 14.796875 37.203125 14.796875 27.296875 
z
" id="DejaVuSans-100"/>
       <path d="M 40.578125 39.3125 
Q 47.65625 37.796875 51.625 33 
Q 55.609375 28.21875 55.609375 21.1875 
Q 55.609375 10.40625 48.1875 4.484375 
Q 40.765625 -1.421875 27.09375 -1.421875 
Q 22.515625 -1.421875 17.65625 -0.515625 
Q 12.796875 0.390625 7.625 2.203125 
L 7.625 11.71875 
Q 11.71875 9.328125 16.59375 8.109375 
Q 21.484375 6.890625 26.8125 6.890625 
Q 36.078125 6.890625 40.9375 10.546875 
Q 45.796875 14.203125 45.796875 21.1875 
Q 45.796875 27.640625 41.28125 31.265625 
Q 36.765625 34.90625 28.71875 34.90625 
L 20.21875 34.90625 
L 20.21875 43.015625 
L 29.109375 43.015625 
Q 36.375 43.015625 40.234375 45.921875 
Q 44.09375 48.828125 44.09375 54.296875 
Q 44.09375 59.90625 40.109375 62.90625 
Q 36.140625 65.921875 28.71875 65.921875 
Q 24.65625 65.921875 20.015625 65.03125 
Q 15.375 64.15625 9.8125 62.3125 
L 9.8125 71.09375 
Q 15.4375 72.65625 20.34375 73.4375 
Q 25.25 74.21875 29.59375 74.21875 
Q 40.828125 74.21875 47.359375 69.109375 
Q 53.90625 64.015625 53.90625 55.328125 
Q 53.90625 49.265625 50.4375 45.09375 
Q 46.96875 40.921875 40.578125 39.3125 
z
" id="DejaVuSans-51"/>
      </defs>
      <use xlink:href="#DejaVuSans-50"/>
      <use x="63.623047" xlink:href="#DejaVuSans-110"/>
      <use x="127.001953" xlink:href="#DejaVuSans-100"/>
      <use x="190.478516" xlink:href="#DejaVuSans-32"/>
      <use x="222.265625" xlink:href="#DejaVuSans-80"/>
      <use x="282.568359" xlink:href="#DejaVuSans-67"/>
      <use x="352.392578" xlink:href="#DejaVuSans-58"/>
      <use x="386.083984" xlink:href="#DejaVuSans-32"/>
      <use x="417.871094" xlink:href="#DejaVuSans-49"/>
      <use x="481.494141" xlink:href="#DejaVuSans-51"/>
      <use x="545.117188" xlink:href="#DejaVuSans-46"/>
      <use x="576.904297" xlink:href="#DejaVuSans-52"/>
      <use x="640.527344" xlink:href="#DejaVuSans-54"/>
      <use x="704.150391" xlink:href="#DejaVuSans-32"/>
      <use x="735.9375" xlink:href="#DejaVuSans-37"/>
     </g>
    </g>
   </g>
   <g id="LineCollection_1"/>
   <g id="LineCollection_2"/>
   <g id="LineCollection_3"/>
   <g id="LineCollection_4"/>
   <g id="LineCollection_5"/>
   <g id="LineCollection_6">
    <path clip-path="url(#p16d4f15266)" d="M 119.749899 206.152627 
L 119.715328 206.148019 
L 119.749899 205.702573 
L 119.771242 206.148019 
L 119.749899 206.152627 
" style="fill:none;stroke:#39558c;stroke-width:1.5;"/>
    <path clip-path="url(#p16d4f15266)" d="M 105.387529 123.953701 
L 108.715687 117.444019 
L 109.559133 108.573619 
L 109.783051 99.703219 
L 109.878506 90.832819 
L 109.93985 81.962419 
L 109.946605 75.303399 
L 111.362888 73.092019 
L 114.848252 68.299488 
L 119.749899 66.917067 
L 124.651546 70.780768 
L 129.553193 69.223142 
L 132.17539 73.092019 
L 134.45484 76.963461 
L 135.517815 81.962419 
L 137.223393 90.832819 
L 138.689322 99.703219 
L 139.356488 103.671533 
L 139.793721 108.573619 
L 141.074393 117.444019 
L 142.863056 126.314419 
L 144.258135 132.91706 
L 144.616196 135.184819 
L 145.555228 144.055219 
L 145.441286 152.925619 
L 144.258135 157.663572 
L 142.280473 161.796019 
L 139.356488 164.795976 
L 134.45484 168.262166 
L 129.553193 168.730737 
L 124.651546 166.651873 
L 119.749899 164.019963 
L 114.848252 162.578184 
L 109.946605 165.382386 
L 108.480955 170.666419 
L 107.00969 179.536819 
L 106.95971 188.407219 
L 105.044958 189.50813 
L 104.866993 188.407219 
L 104.273587 179.536819 
L 100.143311 173.475152 
L 99.530689 170.666419 
L 95.555602 161.796019 
L 95.241664 161.117052 
L 94.893863 152.925619 
L 94.890967 146.386322 
" style="fill:none;stroke:#39558c;stroke-width:1.5;"/>
   </g>
   <g id="LineCollection_7">
    <path clip-path="url(#p16d4f15266)" d="M 142.607158 74.103973 
L 144.13592 81.962419 
L 144.258135 82.945487 
L 144.814699 90.832819 
L 145.694917 99.703219 
L 147.216056 108.573619 
L 149.159782 115.192181 
L 149.941622 117.444019 
L 153.304283 126.314419 
L 154.061429 128.449598 
L 157.340223 135.184819 
L 158.963076 139.949827 
L 160.50228 144.055219 
L 162.094915 152.925619 
L 161.819963 161.796019 
L 158.963076 170.003656 
L 158.682997 170.666419 
L 154.061429 175.759759 
L 150.368425 179.536819 
L 149.159782 180.32437 
L 144.258135 183.736007 
L 139.356488 187.10388 
L 137.944426 188.407219 
L 134.45484 191.033783 
L 130.132567 197.277619 
L 129.553193 198.908032 
L 127.975262 206.148019 
L 124.651546 214.525306 
L 119.749899 209.322498 
L 114.848252 207.917344 
L 110.938123 206.148019 
L 109.946605 204.521235 
L 105.044958 197.907684 
L 104.791572 197.277619 
L 103.107342 188.407219 
L 100.143311 180.897244 
L 99.929908 179.536819 
L 97.627974 170.666419 
L 95.241664 165.626292 
L 94.665187 161.796019 
L 94.279097 152.925619 
L 94.180697 144.055219 
L 95.241664 139.382644 
L 97.915514 135.184819 
L 100.143311 133.102328 
L 103.777148 126.314419 
L 105.044958 118.439458 
L 105.553889 117.444019 
L 108.555896 108.573619 
L 109.340948 99.703219 
L 109.683419 90.832819 
L 109.915577 81.962419 
L 109.94306 73.092019 
L 109.946605 72.807255 
L 114.707922 64.221619 
L 114.848252 63.112395 
L 119.749899 56.189094 
L 120.882178 55.351219 
L 124.651546 50.295398 
L 126.440254 46.480819 
L 128.984467 37.610419 
L 129.553193 37.425735 
L 130.093101 37.610419 
L 132.29746 46.480819 
L 134.45484 50.314088 
L 134.468845 50.346212 
" style="fill:none;stroke:#33638d;stroke-width:1.5;"/>
   </g>
   <g id="LineCollection_8">
    <path clip-path="url(#p16d4f15266)" d="M 96.76454 173.296405 
L 95.72526 170.666419 
L 95.241664 169.645016 
L 94.060346 161.796019 
L 93.664331 152.925619 
L 93.47146 144.055219 
L 95.241664 136.259112 
L 95.925947 135.184819 
L 100.143311 131.242527 
L 102.781523 126.314419 
L 104.88105 117.444019 
L 105.044958 115.214794 
L 107.552659 108.573619 
L 108.898845 99.703219 
L 109.488331 90.832819 
L 109.891303 81.962419 
L 109.939153 73.092019 
L 109.946605 72.493496 
L 114.533921 64.221619 
L 114.848252 61.737034 
L 118.953864 55.351219 
L 119.749899 51.908335 
L 122.957651 46.480819 
L 124.145527 37.610419 
L 124.651546 32.704379 
L 129.553193 31.26534 
L 134.45484 37.022503 
L 134.905459 37.610419 
L 139.356488 45.877146 
L 140.713936 46.480819 
L 144.258135 54.759816 
L 144.39942 55.351219 
L 147.371037 64.221619 
L 148.177075 73.092019 
L 148.609458 81.962419 
L 148.454906 90.832819 
L 149.159782 97.041706 
L 149.442775 99.703219 
L 151.544717 108.573619 
L 154.061429 114.637472 
L 155.978713 117.444019 
L 158.963076 122.403934 
L 163.386229 126.314419 
L 163.864723 127.002495 
L 168.76637 133.652404 
L 169.549291 135.184819 
L 172.131602 144.055219 
L 173.556843 152.925619 
L 173.668017 158.416716 
L 173.718571 161.796019 
L 173.668017 162.166479 
L 171.972737 170.666419 
L 168.76637 176.476973 
L 166.550645 179.536819 
L 163.864723 181.491476 
L 158.963076 185.125631 
L 154.061429 188.23997 
L 153.831791 188.407219 
L 149.159782 190.613846 
L 144.258135 193.281746 
L 139.356488 196.518141 
L 138.601358 197.277619 
L 134.45484 201.416137 
L 132.302845 206.148019 
L 131.102508 215.018419 
L 129.553193 216.91604 
L 124.651546 216.070315 
L 121.972301 215.018419 
L 119.749899 212.492369 
L 114.848252 210.142018 
L 109.946605 207.420939 
L 108.841832 206.148019 
L 105.044958 200.108817 
L 103.938952 197.358643 
" style="fill:none;stroke:#2d718e;stroke-width:1.5;"/>
   </g>
   <g id="LineCollection_9">
    <path clip-path="url(#p16d4f15266)" d="M 180.024323 152.783182 
L 180.038863 152.925619 
L 180.456437 161.796019 
L 179.937635 170.666419 
L 178.569664 176.487223 
L 177.466589 179.536819 
L 173.668017 185.260799 
L 170.080472 188.407219 
L 168.76637 189.150105 
L 163.864723 191.268948 
L 158.963076 193.522578 
L 154.061429 195.349698 
L 150.060719 197.277619 
L 149.159782 197.597319 
L 144.258135 199.962584 
L 139.356488 203.005169 
L 136.812918 206.148019 
L 134.45484 210.910346 
L 133.494543 215.018419 
L 134.45484 221.141626 
L 134.734157 223.888819 
L 134.45484 224.076064 
L 133.888931 223.888819 
L 129.553193 219.845836 
L 124.651546 217.165235 
L 119.749899 215.177966 
L 119.036274 215.018419 
L 114.848252 212.366692 
L 109.946605 209.015426 
L 107.45797 206.148019 
L 105.044958 202.309949 
L 103.021162 197.277619 
L 100.143311 189.192031 
L 100.03089 188.407219 
L 98.531165 179.536819 
L 95.241664 171.880489 
L 94.722356 170.666419 
L 93.455506 161.796019 
L 93.049565 152.925619 
L 92.762222 144.055219 
L 94.839215 135.184819 
L 95.241664 134.820475 
L 100.143311 129.382727 
L 101.785898 126.314419 
L 104.685697 117.444019 
L 105.044958 112.55791 
L 106.549423 108.573619 
L 108.456742 99.703219 
L 109.293243 90.832819 
L 109.867029 81.962419 
L 109.935247 73.092019 
L 109.946605 72.179738 
L 114.359921 64.221619 
L 114.848252 60.361674 
L 118.069608 55.351219 
L 119.749899 48.083891 
L 120.697341 46.480819 
L 123.489722 37.610419 
L 124.632993 28.740019 
L 124.651546 28.455875 
L 129.553193 28.451101 
L 129.834932 28.740019 
L 134.45484 36.246692 
L 135.500093 37.610419 
L 139.356488 44.772755 
L 143.197327 46.480819 
L 144.258135 48.958791 
L 145.785281 55.351219 
L 149.159782 61.855245 
L 149.250813 64.221619 
L 149.403297 73.092019 
L 149.992959 81.962419 
L 152.681381 90.832819 
L 152.852151 99.703219 
L 154.061429 104.113959 
L 155.881386 108.573619 
L 158.963076 113.277264 
L 163.864723 116.762565 
L 165.656432 117.444019 
L 168.76637 119.3778 
L 173.668017 125.114388 
L 174.255652 126.314419 
L 174.91806 128.225349 
" style="fill:none;stroke:#287d8e;stroke-width:1.5;"/>
   </g>
   <g id="LineCollection_10">
    <path clip-path="url(#p16d4f15266)" d="M 120.754858 216.434373 
L 119.749899 215.963502 
L 115.522719 215.018419 
L 114.848252 214.591367 
L 109.946605 210.609913 
L 106.074108 206.148019 
L 105.044958 204.511082 
L 102.135958 197.277619 
L 100.143311 191.679095 
L 99.674629 188.407219 
L 97.831793 179.536819 
L 95.241664 173.50828 
L 94.026082 170.666419 
L 92.850666 161.796019 
L 92.434799 152.925619 
L 92.052985 144.055219 
L 94.225786 135.184819 
L 95.241664 134.265128 
L 100.143311 127.522927 
L 100.790273 126.314419 
L 104.490345 117.444019 
L 105.044958 109.901025 
L 105.546186 108.573619 
L 108.014639 99.703219 
L 109.098156 90.832819 
L 109.842755 81.962419 
L 109.93134 73.092019 
L 109.946605 71.86598 
L 114.185921 64.221619 
L 114.848252 58.986313 
L 117.185352 55.351219 
L 119.711412 46.480819 
L 119.749899 45.505657 
L 122.833916 37.610419 
L 124.583716 28.740019 
L 124.651546 27.701185 
L 129.553193 27.961469 
L 130.312398 28.740019 
L 134.45484 35.47088 
L 136.094727 37.610419 
L 139.356488 43.668363 
L 144.258135 46.303167 
L 144.367009 46.480819 
L 147.171141 55.351219 
L 149.159782 59.184132 
L 149.353567 64.221619 
L 149.696415 73.092019 
L 150.944143 81.962419 
L 154.061429 89.301148 
L 154.923945 90.832819 
L 156.587859 99.703219 
L 158.963076 105.087811 
L 162.230435 108.573619 
L 163.864723 109.918179 
L 168.76637 111.741112 
L 173.668017 115.376153 
L 174.955355 117.444019 
L 178.569664 124.616105 
L 179.077119 126.314419 
L 181.174142 135.184819 
L 182.977079 144.055219 
L 183.471311 147.385242 
L 184.034374 152.925619 
L 184.656042 161.796019 
L 184.740317 170.666419 
L 183.575106 179.536819 
L 183.471311 179.849637 
L 179.504276 188.407219 
L 178.569664 189.717712 
L 173.668017 194.727382 
L 168.76637 197.20261 
L 168.563434 197.277619 
L 163.864723 198.521756 
L 158.963076 199.963875 
L 154.061429 201.094601 
L 149.159782 202.788843 
L 144.258135 205.508277 
L 143.336248 206.148019 
L 139.356488 208.598597 
L 135.996408 215.018419 
L 136.073907 217.401058 
" style="fill:none;stroke:#238a8d;stroke-width:1.5;"/>
   </g>
   <g id="LineCollection_11">
    <path clip-path="url(#p16d4f15266)" d="M 133.881687 33.763778 
L 134.45484 34.695069 
L 136.689361 37.610419 
L 139.356488 42.563971 
L 144.258135 45.993043 
L 144.557071 46.480819 
L 148.557001 55.351219 
L 149.159782 56.51302 
L 149.456322 64.221619 
L 149.989533 73.092019 
L 151.895327 81.962419 
L 154.061429 87.061866 
L 156.18493 90.832819 
L 158.963076 98.359524 
L 160.658921 99.703219 
L 163.864723 103.966307 
L 168.76637 106.194426 
L 173.577016 108.573619 
L 173.668017 108.642475 
L 178.569664 116.780633 
L 178.815762 117.444019 
L 181.562671 126.314419 
L 183.471311 132.742248 
L 183.98733 135.184819 
L 185.398189 144.055219 
L 186.666349 152.925619 
L 187.756239 161.796019 
L 188.372958 170.032019 
L 188.409921 170.666419 
L 188.372958 171.941661 
L 187.971716 179.536819 
L 185.274356 188.407219 
L 183.471311 191.538351 
L 179.346488 197.277619 
L 178.569664 198.110215 
L 173.668017 201.880296 
L 168.76637 203.542567 
L 163.864723 204.290302 
L 158.963076 205.490938 
L 155.251261 206.148019 
L 154.061429 206.307923 
L 149.159782 207.651662 
L 144.258135 209.89809 
L 139.356488 213.519446 
L 138.571938 215.018419 
L 137.835704 223.888819 
L 134.45484 226.155247 
L 129.553193 224.267545 
L 128.914797 223.888819 
L 124.651546 219.355076 
L 119.749899 216.749039 
L 114.848252 215.618242 
L 113.308842 215.018419 
L 109.946605 212.2044 
L 105.044958 206.399868 
L 104.901876 206.148019 
L 101.250753 197.277619 
L 100.143311 194.166159 
L 99.318367 188.407219 
L 97.132422 179.536819 
L 95.241664 175.13607 
L 93.329809 170.666419 
L 92.245825 161.796019 
L 91.820032 152.925619 
L 91.343748 144.055219 
L 93.612357 135.184819 
L 95.241664 133.70978 
L 100.017713 126.314419 
L 100.143311 126.170622 
L 104.294992 117.444019 
L 105.016278 108.573619 
L 105.044958 107.859728 
L 107.572536 99.703219 
L 108.903068 90.832819 
L 109.818482 81.962419 
L 109.927434 73.092019 
L 109.946605 71.552221 
L 114.01192 64.221619 
L 114.848252 57.610953 
L 116.301096 55.351219 
L 119.645149 46.480819 
L 119.749899 43.826762 
L 121.587 39.123692 
" style="fill:none;stroke:#1f968b;stroke-width:1.5;"/>
   </g>
   <g id="LineCollection_12">
    <path clip-path="url(#p16d4f15266)" d="M 188.214951 147.540999 
L 188.372958 148.450533 
L 188.97106 152.925619 
L 189.990812 161.796019 
L 190.822167 170.666419 
L 191.088562 179.536819 
L 189.856628 188.407219 
L 188.372958 192.063488 
L 185.363236 197.277619 
L 183.471311 199.69814 
L 178.569664 204.920287 
L 176.91163 206.148019 
L 173.668017 208.204709 
L 168.76637 209.302197 
L 163.864723 209.504368 
L 158.963076 210.107036 
L 154.061429 210.503925 
L 149.159782 211.911879 
L 144.258135 214.137175 
L 143.130032 215.018419 
L 139.401008 223.888819 
L 139.356488 225.098401 
L 134.45484 227.194838 
L 129.553193 224.878348 
L 127.885202 223.888819 
L 124.651546 220.449996 
L 119.749899 217.534575 
L 114.848252 216.360562 
L 111.403722 215.018419 
L 109.946605 213.798887 
L 105.044958 207.382421 
L 104.34366 206.148019 
L 100.365548 197.277619 
L 100.143311 196.653224 
L 98.962106 188.407219 
L 96.43305 179.536819 
L 95.241664 176.763861 
L 92.633535 170.666419 
L 91.640985 161.796019 
L 91.205266 152.925619 
L 90.634511 144.055219 
L 92.998928 135.184819 
L 95.241664 133.154433 
L 99.65906 126.314419 
L 100.143311 125.760002 
L 104.09964 117.444019 
L 104.958961 108.573619 
L 105.044958 106.433059 
L 107.130433 99.703219 
L 108.707981 90.832819 
L 109.794208 81.962419 
L 109.923527 73.092019 
L 109.946605 71.238463 
L 113.83792 64.221619 
L 114.848252 56.235592 
L 115.41684 55.351219 
L 119.578887 46.480819 
L 119.749899 42.147866 
L 121.522305 37.610419 
L 124.485161 28.740019 
L 124.651546 26.191806 
L 129.553193 26.982205 
L 131.267329 28.740019 
L 134.45484 33.919257 
L 137.283995 37.610419 
L 139.356488 41.45958 
L 144.258135 45.682918 
L 144.747133 46.480819 
L 149.159782 55.140462 
L 149.180407 55.351219 
L 149.559076 64.221619 
L 150.282651 73.092019 
L 152.84651 81.962419 
L 154.061429 84.822585 
L 157.445916 90.832819 
L 158.963076 94.943191 
L 163.864723 99.190803 
L 165.583771 99.703219 
L 168.76637 101.793143 
L 173.668017 104.515433 
L 176.530803 108.573619 
L 178.569664 111.966886 
L 180.601533 117.444019 
L 182.65516 122.990613 
" style="fill:none;stroke:#20a386;stroke-width:1.5;"/>
   </g>
   <g id="LineCollection_13">
    <path clip-path="url(#p16d4f15266)" d="M 183.134352 119.461706 
L 183.471311 120.371791 
L 185.151633 126.314419 
L 187.524138 135.184819 
L 188.372958 138.937196 
L 189.28273 144.055219 
L 190.672214 152.925619 
L 192.010425 161.796019 
L 193.234412 170.666419 
L 193.274605 171.184768 
L 193.78123 179.536819 
L 193.504989 188.407219 
L 193.274605 189.62557 
L 190.416073 197.277619 
L 188.372958 200.326211 
L 183.822772 206.148019 
L 183.471311 206.526336 
L 178.569664 211.293288 
L 173.668017 214.036231 
L 168.76637 214.666479 
L 163.864723 214.455047 
L 158.963076 214.600222 
L 154.061429 214.699926 
L 152.98832 215.018419 
L 149.159782 216.239978 
L 144.258135 218.712767 
L 141.70317 223.888819 
L 144.258135 229.219817 
L 146.386925 232.759219 
L 144.258135 233.320533 
L 139.356488 233.154255 
L 138.534058 232.759219 
L 134.45484 228.234429 
L 129.553193 225.489152 
L 126.855606 223.888819 
L 124.651546 221.544917 
L 119.749899 218.320111 
L 114.848252 217.102881 
L 109.946605 215.193411 
L 109.782098 215.018419 
L 105.044958 208.364974 
L 103.785445 206.148019 
L 100.143311 198.190987 
L 99.961313 197.277619 
L 98.605845 188.407219 
L 95.733679 179.536819 
L 95.241664 178.391652 
L 91.937262 170.666419 
L 91.036145 161.796019 
L 90.5905 152.925619 
L 90.340017 149.283079 
L 90.021494 144.055219 
L 90.340017 142.731714 
L 92.385498 135.184819 
L 95.241664 132.599085 
L 99.300407 126.314419 
L 100.143311 125.349381 
L 103.904287 117.444019 
L 104.901645 108.573619 
L 105.044958 105.00639 
L 106.68833 99.703219 
L 108.512893 90.832819 
L 109.769934 81.962419 
L 109.919621 73.092019 
L 109.946605 70.924704 
L 113.66392 64.221619 
L 114.846469 55.351219 
L 114.848252 55.30646 
L 119.512624 46.480819 
L 119.749899 40.468971 
L 120.866499 37.610419 
L 124.435883 28.740019 
L 124.651546 25.437116 
L 129.553193 26.492573 
L 131.744794 28.740019 
L 134.45484 33.143446 
L 137.87863 37.610419 
L 139.356488 40.355188 
L 144.258135 45.372794 
L 144.937194 46.480819 
L 149.159782 54.767473 
L 149.216909 55.351219 
L 149.661831 64.221619 
L 150.575768 73.092019 
L 153.797694 81.962419 
L 154.061429 82.583304 
L 158.706902 90.832819 
L 158.963076 91.526858 
L 163.864723 97.192942 
L 168.76637 98.719918 
L 170.137392 99.085913 
" style="fill:none;stroke:#29af7f;stroke-width:1.5;"/>
   </g>
   <g id="LineCollection_14">
    <path clip-path="url(#p16d4f15266)" d="M 144.629752 225.012041 
L 149.159782 232.274211 
L 149.428995 232.759219 
L 149.159782 232.821922 
L 144.258135 234.082324 
L 139.356488 233.604428 
L 137.596839 232.759219 
L 134.45484 229.27402 
L 129.553193 226.099955 
L 125.826011 223.888819 
L 124.651546 222.639837 
L 119.749899 219.105647 
L 114.848252 217.845201 
L 109.946605 215.937564 
L 109.082537 215.018419 
L 105.044958 209.347527 
L 103.22723 206.148019 
L 100.143311 199.410529 
L 99.718307 197.277619 
L 98.249583 188.407219 
L 95.241664 179.837749 
L 95.06965 179.536819 
L 91.240988 170.666419 
L 90.431305 161.796019 
L 90.340017 159.995311 
L 90.109306 152.925619 
L 89.4768 144.055219 
L 90.340017 140.46844 
L 91.772069 135.184819 
L 95.241664 132.043738 
L 98.941755 126.314419 
L 100.143311 124.938761 
L 103.708935 117.444019 
L 104.844329 108.573619 
L 105.044958 103.57972 
L 106.246227 99.703219 
L 108.317805 90.832819 
L 109.74566 81.962419 
L 109.915714 73.092019 
L 109.946605 70.610946 
L 113.489919 64.221619 
L 114.841475 55.351219 
L 114.848252 55.181083 
L 119.446362 46.480819 
L 119.749899 38.790076 
L 120.210694 37.610419 
L 124.386605 28.740019 
L 124.651546 24.682426 
L 129.553193 26.002941 
L 132.22226 28.740019 
L 134.45484 32.367634 
L 138.473264 37.610419 
L 139.356488 39.250797 
L 144.258135 45.062669 
L 145.127256 46.480819 
L 149.159782 54.394485 
L 149.25341 55.351219 
L 149.764585 64.221619 
L 150.868886 73.092019 
L 154.061429 81.41044 
L 154.287527 81.962419 
L 158.963076 90.383817 
L 160.27363 90.832819 
L 163.864723 95.195081 
L 168.76637 96.847519 
L 173.668017 98.15104 
L 175.230655 99.703219 
L 178.569664 104.820308 
L 180.167376 108.573619 
L 183.471311 116.308975 
L 183.865679 117.444019 
L 186.515414 126.314419 
L 188.372958 132.733956 
L 188.943669 135.184819 
L 190.672371 144.055219 
L 192.373367 152.925619 
L 193.274605 158.125016 
L 193.763076 161.796019 
L 194.811421 170.666419 
L 195.668301 179.536819 
L 195.84531 188.407219 
L 194.407138 197.277619 
L 193.274605 200.098618 
L 189.157991 206.148019 
L 188.372958 207.00701 
L 183.471311 212.330202 
L 180.86086 215.018419 
L 178.569664 217.492776 
L 173.668017 220.118303 
L 168.76637 220.558284 
L 166.56068 220.303679 
" style="fill:none;stroke:#3dbc74;stroke-width:1.5;"/>
   </g>
   <g id="LineCollection_15">
    <path clip-path="url(#p16d4f15266)" d="M 119.500106 43.582081 
L 119.747332 37.610419 
L 119.749899 37.582175 
L 124.337328 28.740019 
L 124.651546 23.927736 
L 129.553193 25.513309 
L 132.699726 28.740019 
L 134.45484 31.591823 
L 139.067898 37.610419 
L 139.356488 38.146405 
L 144.258135 44.752545 
L 145.317318 46.480819 
L 149.159782 54.021497 
L 149.289912 55.351219 
L 149.867339 64.221619 
L 151.162004 73.092019 
L 154.061429 80.646698 
L 154.600366 81.962419 
L 158.963076 89.820345 
L 161.918305 90.832819 
L 163.864723 93.19722 
L 168.76637 94.975119 
L 173.668017 96.272619 
L 177.121734 99.703219 
L 178.569664 101.922196 
L 181.401047 108.573619 
L 183.471311 113.420636 
L 184.869224 117.444019 
L 187.879194 126.314419 
L 188.372958 128.020831 
L 190.041174 135.184819 
L 192.062013 144.055219 
L 193.274605 149.819429 
L 193.777712 152.925619 
L 195.068979 161.796019 
L 196.374277 170.666419 
L 197.555373 179.536819 
L 198.176252 188.300487 
L 198.181992 188.407219 
L 198.176252 188.536753 
L 197.374025 197.277619 
L 193.929544 206.148019 
L 193.274605 207.146685 
L 188.372958 212.509785 
L 186.121956 215.018419 
L 183.471311 218.217019 
L 178.569664 223.57929 
L 177.997998 223.888819 
L 173.668017 227.429739 
L 168.76637 231.135698 
L 167.135331 232.759219 
L 163.864723 233.215958 
L 158.963076 232.994125 
L 154.061429 233.493647 
L 149.159782 234.380338 
L 144.258135 234.844115 
L 139.356488 234.054601 
L 136.65962 232.759219 
L 134.45484 230.313611 
L 129.553193 226.710758 
L 124.796416 223.888819 
L 124.651546 223.734757 
L 119.749899 219.891183 
L 114.848252 218.587521 
L 109.946605 216.681717 
L 108.382976 215.018419 
L 105.044958 210.33008 
L 102.669014 206.148019 
L 100.143311 200.630072 
L 99.4753 197.277619 
L 97.893322 188.407219 
L 95.241664 180.852727 
L 94.489483 179.536819 
L 90.544714 170.666419 
L 90.340017 168.384993 
L 90.083751 161.796019 
L 89.719957 152.925619 
L 88.932106 144.055219 
L 90.340017 138.205166 
L 91.15864 135.184819 
L 95.241664 131.48839 
L 98.583102 126.314419 
L 100.143311 124.528141 
L 103.513582 117.444019 
L 104.787013 108.573619 
L 105.044958 102.153051 
L 105.804124 99.703219 
L 108.122718 90.832819 
L 109.721386 81.962419 
L 109.911808 73.092019 
L 109.946605 70.297187 
L 111.71331 67.111455 
" style="fill:none;stroke:#56c667;stroke-width:1.5;"/>
    <path clip-path="url(#p16d4f15266)" d="M 154.061429 226.031409 
L 158.963076 228.022232 
L 159.876913 223.888819 
L 158.963076 223.574391 
L 154.061429 223.45901 
L 152.867768 223.888819 
L 154.061429 226.031409 
" style="fill:none;stroke:#56c667;stroke-width:1.5;"/>
   </g>
   <g id="LineCollection_16">
    <path clip-path="url(#p16d4f15266)" d="M 161.268147 235.738873 
L 158.963076 235.91906 
L 154.061429 235.880829 
L 149.159782 235.938753 
L 144.258135 235.605907 
L 139.356488 234.504774 
L 135.722401 232.759219 
L 134.45484 231.353203 
L 129.553193 227.321561 
L 124.651546 224.342602 
L 123.800362 223.888819 
L 119.749899 220.67672 
L 114.848252 219.329841 
L 109.946605 217.425869 
L 107.683415 215.018419 
L 105.044958 211.312633 
L 102.110799 206.148019 
L 100.143311 201.849615 
L 99.232294 197.277619 
L 97.537061 188.407219 
L 95.241664 181.867704 
L 93.909317 179.536819 
L 90.340017 171.579572 
L 90.160568 170.666419 
L 89.781932 161.796019 
L 89.330608 152.925619 
L 88.387413 144.055219 
L 90.340017 135.941892 
L 90.545211 135.184819 
L 95.241664 130.933043 
L 98.224449 126.314419 
L 100.143311 124.117521 
L 103.31823 117.444019 
L 104.729697 108.573619 
L 105.044958 100.726382 
L 105.362021 99.703219 
L 107.92763 90.832819 
L 109.697113 81.962419 
L 109.907901 73.092019 
L 109.946605 69.983429 
L 113.141919 64.221619 
L 114.831487 55.351219 
L 114.848252 54.930327 
L 119.313837 46.480819 
L 119.738696 37.610419 
L 119.749899 37.487194 
L 124.28805 28.740019 
L 124.651546 23.173046 
L 129.553193 25.023677 
L 133.177191 28.740019 
L 134.45484 30.816011 
L 139.356488 37.53304 
L 139.468389 37.610419 
L 144.258135 44.44242 
L 145.507379 46.480819 
L 149.159782 53.648509 
L 149.326414 55.351219 
L 149.970094 64.221619 
L 151.455122 73.092019 
L 154.061429 79.882956 
L 154.913206 81.962419 
L 158.963076 89.256872 
L 163.56298 90.832819 
L 163.864723 91.19936 
L 168.76637 93.10272 
L 173.668017 94.394198 
L 178.569664 99.304222 
L 178.768655 99.703219 
L 182.634718 108.573619 
L 183.471311 110.532297 
L 185.87277 117.444019 
L 188.372958 124.506083 
L 188.906713 126.314419 
L 191.138678 135.184819 
L 193.274605 143.510197 
L 193.384554 144.055219 
L 194.847653 152.925619 
L 196.374882 161.796019 
L 197.937133 170.666419 
L 198.176252 172.31352 
L 198.976119 179.536819 
L 199.614322 188.407219 
L 199.435753 197.277619 
L 198.176252 204.421174 
L 197.539551 206.148019 
L 193.274605 212.65131 
L 191.110827 215.018419 
L 188.372958 218.02215 
L 183.683552 223.888819 
L 183.471311 224.19171 
L 182.630804 225.250963 
" style="fill:none;stroke:#75d054;stroke-width:1.5;"/>
   </g>
   <g id="LineCollection_17">
    <path clip-path="url(#p16d4f15266)" d="M 184.661554 111.239323 
L 186.876316 117.444019 
L 188.372958 121.671455 
L 189.743392 126.314419 
L 192.236183 135.184819 
L 193.274605 139.232364 
L 194.247533 144.055219 
L 195.917595 152.925619 
L 197.680784 161.796019 
L 198.176252 164.540208 
L 199.022685 170.666419 
L 200.168202 179.536819 
L 201.046653 188.407219 
L 201.162027 197.277619 
L 199.825426 206.148019 
L 198.176252 211.013868 
L 195.51358 215.018419 
L 193.274605 217.860851 
L 188.372958 223.542551 
L 188.096176 223.888819 
L 183.471311 230.489015 
L 181.722467 232.759219 
L 178.569664 234.596742 
L 173.668017 235.555655 
L 168.76637 236.642976 
L 163.864723 237.855839 
L 158.963076 238.843994 
L 154.061429 238.26801 
L 149.159782 237.497168 
L 144.258135 236.367698 
L 139.356488 234.954947 
L 134.785182 232.759219 
L 134.45484 232.392794 
L 129.553193 227.932365 
L 124.651546 224.870691 
L 122.809799 223.888819 
L 119.749899 221.462256 
L 114.848252 220.07216 
L 109.946605 218.170022 
L 106.983854 215.018419 
L 105.044958 212.295186 
L 101.552583 206.148019 
L 100.143311 203.069157 
L 98.989287 197.277619 
L 97.180799 188.407219 
L 95.241664 182.882682 
L 93.32915 179.536819 
L 90.340017 172.872971 
L 89.906394 170.666419 
L 89.480113 161.796019 
L 88.94126 152.925619 
L 87.842719 144.055219 
L 89.616 135.184819 
L 90.340017 134.885256 
L 95.241664 130.377695 
L 97.865796 126.314419 
L 100.143311 123.706901 
L 103.122877 117.444019 
L 104.67238 108.573619 
L 105.038235 99.703219 
L 105.044958 99.524771 
L 107.732542 90.832819 
L 109.672839 81.962419 
L 109.903994 73.092019 
L 109.946605 69.669671 
L 112.967919 64.221619 
L 114.826493 55.351219 
L 114.848252 54.804949 
L 119.247575 46.480819 
L 119.730061 37.610419 
L 119.749899 37.392213 
L 124.238773 28.740019 
L 124.651546 22.418356 
L 129.553193 24.534046 
L 133.654657 28.740019 
L 134.45484 30.0402 
L 139.356488 37.382696 
L 139.685809 37.610419 
L 144.258135 44.132296 
L 145.697441 46.480819 
L 149.159782 53.27552 
L 149.362916 55.351219 
L 150.072848 64.221619 
L 151.74824 73.092019 
L 154.061429 79.119215 
L 155.226045 81.962419 
L 158.963076 88.693399 
L 163.864723 90.471305 
L 167.754931 90.832819 
L 168.76637 91.230321 
L 170.58421 91.707049 
" style="fill:none;stroke:#95d840;stroke-width:1.5;"/>
   </g>
   <g id="LineCollection_18">
    <path clip-path="url(#p16d4f15266)" d="M 109.946476 69.366273 
L 109.946605 69.355912 
L 112.793918 64.221619 
L 114.821499 55.351219 
L 114.848252 54.679572 
L 119.181312 46.480819 
L 119.721426 37.610419 
L 119.749899 37.297231 
L 124.189495 28.740019 
L 124.651546 21.663666 
L 129.553193 24.044414 
L 134.132122 28.740019 
L 134.45484 29.264388 
L 139.356488 37.232351 
L 139.90323 37.610419 
L 144.258135 43.822171 
L 145.887503 46.480819 
L 149.159782 52.902532 
L 149.399417 55.351219 
L 150.175602 64.221619 
L 152.041357 73.092019 
L 154.061429 78.355473 
L 155.538884 81.962419 
L 158.963076 88.129926 
L 163.864723 90.028563 
L 168.76637 90.40951 
L 173.668017 90.753717 
L 173.833648 90.832819 
L 178.569664 95.898894 
L 180.466988 99.703219 
L 183.471311 106.160885 
L 184.451714 108.573619 
L 187.879861 117.444019 
L 188.372958 118.836827 
L 190.58007 126.314419 
L 193.274605 135.038982 
L 193.311591 135.184819 
L 195.110512 144.055219 
L 196.987536 152.925619 
L 198.176252 158.616935 
L 198.688339 161.796019 
L 200.022018 170.666419 
L 201.360284 179.536819 
L 202.478984 188.407219 
L 202.8883 197.277619 
L 201.827753 206.148019 
L 198.893101 215.018419 
L 198.176252 216.619694 
L 193.274605 222.847766 
L 192.381739 223.888819 
L 188.372958 228.814 
L 185.725951 232.759219 
L 183.471311 235.74343 
L 178.569664 237.424074 
L 173.668017 237.524635 
L 168.76637 238.685104 
L 163.864723 240.17578 
L 159.309297 241.629619 
L 158.963076 241.651123 
L 158.450907 241.629619 
L 154.061429 240.655191 
L 149.159782 239.055583 
L 144.258135 237.129489 
L 139.356488 235.40512 
L 134.45484 233.017201 
L 134.034448 232.759219 
L 129.553193 228.543168 
L 124.651546 225.398779 
L 121.819237 223.888819 
L 119.749899 222.247792 
L 114.848252 220.81448 
L 109.946605 218.914174 
L 106.284293 215.018419 
L 105.044958 213.277739 
L 100.994368 206.148019 
L 100.143311 204.2887 
L 98.746281 197.277619 
L 96.824538 188.407219 
L 95.241664 183.897659 
L 92.748983 179.536819 
L 90.340017 174.166371 
L 89.65222 170.666419 
L 89.178293 161.796019 
L 88.551911 152.925619 
L 87.298025 144.055219 
L 88.528066 135.184819 
L 90.340017 134.435122 
L 95.241664 129.822348 
L 97.507144 126.314419 
L 100.143311 123.296281 
L 102.927525 117.444019 
L 104.615064 108.573619 
L 105.014463 99.703219 
L 105.044958 98.893835 
L 106.508902 94.159275 
" style="fill:none;stroke:#bade28;stroke-width:1.5;"/>
   </g>
   <g id="LineCollection_19">
    <path clip-path="url(#p16d4f15266)" d="M 203.077899 208.800289 
L 201.118227 215.018419 
L 198.176252 221.590119 
L 196.368117 223.888819 
L 193.274605 227.849648 
L 189.366111 232.759219 
L 188.372958 234.214073 
L 183.471311 240.409935 
L 178.569664 240.251406 
L 173.668017 239.493616 
L 168.76637 240.727232 
L 166.109443 241.629619 
L 163.864723 241.815974 
L 158.963076 242.102636 
L 154.061429 241.867692 
L 151.728647 241.629619 
L 149.159782 240.613998 
L 144.258135 237.89128 
L 139.356488 235.855293 
L 134.45484 233.415611 
L 133.385223 232.759219 
L 129.553193 229.153971 
L 124.651546 225.926868 
L 120.828674 223.888819 
L 119.749899 223.033328 
L 114.848252 221.5568 
L 109.946605 219.658327 
L 105.584732 215.018419 
L 105.044958 214.260292 
L 100.436153 206.148019 
L 100.143311 205.508243 
L 98.503275 197.277619 
L 96.468277 188.407219 
L 95.241664 184.912637 
L 92.168816 179.536819 
L 90.340017 175.45977 
L 90.114263 174.310991 
" style="fill:none;stroke:#dde318;stroke-width:1.5;"/>
    <path clip-path="url(#p16d4f15266)" d="M 87.581883 149.27054 
L 86.753331 144.055219 
L 87.440132 135.184819 
L 90.340017 133.984987 
L 95.241664 129.267001 
L 97.148491 126.314419 
L 100.143311 122.88566 
L 102.732172 117.444019 
L 104.557748 108.573619 
L 104.990691 99.703219 
L 105.044958 98.2629 
L 107.342367 90.832819 
L 109.624291 81.962419 
L 109.896181 73.092019 
L 109.946605 69.042154 
L 112.619918 64.221619 
L 114.816505 55.351219 
L 114.848252 54.554194 
L 119.11505 46.480819 
L 119.712791 37.610419 
L 119.749899 37.20225 
L 124.140218 28.740019 
L 124.651546 20.908977 
L 129.553193 23.554782 
L 134.45484 28.701113 
L 134.483305 28.740019 
L 139.356488 37.082007 
L 140.120651 37.610419 
L 144.258135 43.512047 
L 146.077565 46.480819 
L 149.159782 52.529544 
L 149.435919 55.351219 
L 150.278357 64.221619 
L 152.334475 73.092019 
L 154.061429 77.591732 
L 155.851723 81.962419 
L 158.963076 87.566454 
L 163.864723 89.585821 
L 168.76637 89.872115 
L 173.668017 89.993541 
L 175.425382 90.832819 
L 178.569664 94.19623 
L 181.316154 99.703219 
L 183.471311 104.335638 
L 185.193395 108.573619 
L 188.372958 116.503183 
L 188.699959 117.444019 
L 191.416749 126.314419 
L 193.274605 132.329922 
L 193.998632 135.184819 
L 195.973491 144.055219 
L 198.057478 152.925619 
L 198.176252 153.494286 
L 199.513495 161.796019 
L 201.021351 170.666419 
L 202.552367 179.536819 
L 203.077899 183.36051 
" style="fill:none;stroke:#dde318;stroke-width:1.5;"/>
   </g>
   <g id="LineCollection_20">
    <path clip-path="url(#p16d4f15266)" d="M 203.077899 215.582454 
L 199.324595 223.888819 
L 198.176252 226.238112 
L 193.336975 232.759219 
L 193.274605 232.843209 
L 188.372958 240.051825 
L 187.059862 241.629619 
L 183.471311 242.325999 
L 178.569664 241.977097 
L 174.364055 241.629619 
L 173.668017 241.462597 
L 173.021318 241.629619 
L 168.76637 241.916744 
L 163.864723 242.315144 
L 158.963076 242.554148 
L 154.061429 242.269972 
L 149.159782 241.753172 
L 148.758607 241.629619 
L 144.258135 238.653071 
L 139.356488 236.305466 
L 134.45484 233.81402 
L 132.735998 232.759219 
L 129.553193 229.764775 
L 124.651546 226.454956 
L 119.838112 223.888819 
L 119.749899 223.818864 
L 114.848252 222.29912 
L 109.946605 220.40248 
L 105.044958 215.160789 
L 104.951048 215.018419 
L 100.143311 206.494554 
L 100.045503 206.148019 
L 98.260268 197.277619 
L 96.112015 188.407219 
L 95.241664 185.927614 
L 93.249101 182.441709 
" style="fill:none;stroke:#fde725;stroke-width:1.5;"/>
    <path clip-path="url(#p16d4f15266)" d="M 88.240694 158.09972 
L 87.773213 152.925619 
L 86.208637 144.055219 
L 86.352198 135.184819 
L 90.340017 133.534853 
L 95.241664 128.711653 
L 96.789838 126.314419 
L 100.143311 122.47504 
L 102.536819 117.444019 
L 104.500432 108.573619 
L 104.966919 99.703219 
L 105.044958 97.631964 
L 107.14728 90.832819 
L 109.600018 81.962419 
L 109.892275 73.092019 
L 109.946605 68.728395 
L 112.445918 64.221619 
L 114.811511 55.351219 
L 114.848252 54.428816 
L 119.048787 46.480819 
L 119.704156 37.610419 
L 119.749899 37.107269 
L 124.09094 28.740019 
L 124.651546 20.154287 
L 129.553193 23.06515 
L 134.45484 28.58107 
L 134.571133 28.740019 
L 139.356488 36.931663 
L 140.338071 37.610419 
L 144.258135 43.201922 
L 146.267626 46.480819 
L 149.159782 52.156555 
L 149.472421 55.351219 
L 150.381111 64.221619 
L 152.627593 73.092019 
L 154.061429 76.82799 
L 156.164563 81.962419 
L 158.963076 87.002981 
L 163.864723 89.14308 
L 168.76637 89.334721 
L 173.668017 89.233365 
L 177.017115 90.832819 
L 178.569664 92.493567 
L 182.16532 99.703219 
L 183.471311 102.51039 
L 185.935075 108.573619 
L 188.372958 114.653494 
L 189.342844 117.444019 
L 192.253428 126.314419 
L 193.274605 129.620862 
L 194.685673 135.184819 
L 196.83647 144.055219 
L 198.176252 149.695759 
L 198.780131 152.925619 
L 200.338651 161.796019 
L 202.020684 170.666419 
L 203.077899 176.469625 
" style="fill:none;stroke:#fde725;stroke-width:1.5;"/>
   </g>
   <g id="LineCollection_21">
    <path clip-path="url(#p16d4f15266)" d="M 203.077899 220.31038 
L 201.46095 223.888819 
L 198.176252 230.608691 
L 196.580357 232.759219 
L 193.274605 237.210945 
L 190.426985 241.629619 
L 188.372958 242.787426 
L 183.471311 243.2688 
L 178.569664 242.655051 
L 173.668017 242.13179 
L 168.76637 242.4312 
L 163.864723 242.814315 
L 158.963076 243.00566 
L 154.061429 242.672253 
L 149.159782 242.107905 
L 147.606796 241.629619 
L 144.258135 239.414863 
L 139.356488 236.755639 
L 134.45484 234.21243 
L 132.086773 232.759219 
L 129.553193 230.375578 
L 124.651546 226.983045 
L 119.749899 224.325467 
L 117.574409 223.888819 
L 114.848252 223.04144 
L 109.946605 221.146632 
L 105.044958 215.784095 
L 104.539902 215.018419 
L 100.143311 207.223494 
L 99.839764 206.148019 
L 98.017262 197.277619 
L 95.755754 188.407219 
L 95.241664 186.942592 
L 91.008483 179.536819 
L 90.340017 178.046569 
L 88.889699 170.666419 
L 88.272836 161.796019 
L 87.383864 152.925619 
L 85.663943 144.055219 
L 85.43837 137.657226 
L 85.083742 135.184819 
L 85.43837 135.010758 
L 90.340017 133.084719 
L 95.241664 128.156306 
L 96.431186 126.314419 
L 100.143311 122.06442 
L 102.341467 117.444019 
L 104.443115 108.573619 
L 104.943148 99.703219 
L 105.044958 97.001029 
L 106.952192 90.832819 
L 109.575744 81.962419 
L 109.888368 73.092019 
L 109.946605 68.414637 
L 112.271917 64.221619 
L 114.806517 55.351219 
L 114.848252 54.303438 
L 118.982525 46.480819 
L 119.695521 37.610419 
L 119.749899 37.012288 
L 124.041663 28.740019 
L 124.649188 19.869619 
L 124.651546 19.83 
L 125.147994 19.869619 
L 129.553193 22.575518 
L 134.45484 28.461026 
L 134.65896 28.740019 
L 139.356488 36.781318 
L 140.555492 37.610419 
L 143.88248 42.355972 
" style="fill:none;stroke:#440154;stroke-width:1.5;"/>
    <path clip-path="url(#p16d4f15266)" d="M 151.934519 69.502166 
L 152.920711 73.092019 
L 154.061429 76.064249 
L 156.477402 81.962419 
L 158.963076 86.439508 
L 163.864723 88.700338 
L 168.76637 88.797326 
L 173.668017 88.473189 
L 178.569664 90.811967 
L 178.584655 90.832819 
L 183.014487 99.703219 
L 183.471311 100.685143 
L 186.676756 108.573619 
L 188.372958 112.803805 
L 189.985729 117.444019 
L 193.090106 126.314419 
L 193.274605 126.911802 
L 195.372714 135.184819 
L 197.69945 144.055219 
L 198.176252 146.062579 
L 199.459419 152.925619 
L 201.163807 161.796019 
L 203.020016 170.666419 
L 203.077899 170.984146 
" style="fill:none;stroke:#440154;stroke-width:1.5;"/>
   </g>
   <g id="LineCollection_22">
    <path clip-path="url(#p16d4f15266)" d="M 149.758608 277.111219 
L 149.159782 276.934764 
L 144.258135 275.274142 
L 139.356488 273.310097 
L 134.45484 271.114788 
L 129.553193 269.249501 
L 125.450483 268.240819 
L 124.651546 267.97896 
L 119.749899 266.482704 
L 114.848252 264.725391 
L 109.946605 262.775599 
L 105.044958 260.34757 
L 103.646324 259.370419 
L 100.143311 256.121422 
L 99.142229 255.012063 
" style="fill:none;stroke:#440154;stroke-width:1.5;"/>
    <path clip-path="url(#p16d4f15266)" d="M 84.466716 226.543967 
L 83.881929 223.888819 
L 81.472046 215.018419 
L 80.536723 212.426951 
L 78.498657 206.148019 
L 75.635076 199.520563 
L 75.102605 197.277619 
L 74.673757 188.407219 
L 73.91064 179.536819 
L 72.017278 170.666419 
L 70.733429 167.234648 
L 69.471642 161.796019 
L 69.627546 152.925619 
L 70.458646 144.055219 
L 70.733429 140.86811 
L 72.332256 135.184819 
L 74.812783 126.314419 
L 75.635076 122.71976 
L 78.168733 117.444019 
L 80.536723 116.394532 
L 85.43837 110.331908 
L 90.340017 110.873491 
L 95.241664 111.353638 
L 96.837491 108.573619 
L 100.143311 101.235038 
L 100.664227 99.703219 
L 103.003805 90.832819 
L 105.044958 82.296092 
L 105.206464 81.962419 
L 109.185196 73.092019 
L 109.866347 64.221619 
L 109.946605 62.681561 
L 113.907599 55.351219 
L 114.789985 46.480819 
L 114.848252 44.389983 
L 118.141201 37.610419 
L 119.64536 28.740019 
L 119.749899 28.057091 
L 123.967592 19.869619 
L 124.632734 10.999219 
" style="fill:none;stroke:#440154;stroke-width:1.5;"/>
    <path clip-path="url(#p16d4f15266)" d="M 130.860613 10.999219 
L 134.45484 16.961464 
L 136.648869 19.869619 
L 139.356488 24.429163 
L 144.258135 28.329159 
L 144.613133 28.740019 
L 149.159782 36.403146 
L 149.488847 37.610419 
L 151.518923 46.480819 
L 154.061429 53.255227 
L 154.271938 53.714183 
" style="fill:none;stroke:#440154;stroke-width:1.5;"/>
    <path clip-path="url(#p16d4f15266)" d="M 177.797077 57.655346 
L 178.569664 57.069775 
L 182.480404 55.351219 
L 183.471311 55.091935 
L 185.65413 55.351219 
L 188.372958 56.188303 
L 193.274605 62.124604 
L 194.810054 64.221619 
L 198.176252 69.778129 
L 200.016276 73.092019 
L 203.077899 78.805271 
" style="fill:none;stroke:#440154;stroke-width:1.5;"/>
   </g>
   <g id="LineCollection_23">
    <path clip-path="url(#p16d4f15266)" d="M 85.310892 277.111219 
L 82.035438 268.240819 
L 80.536723 264.802429 
L 79.355541 259.370419 
L 76.711617 250.500019 
L 75.635076 247.368578 
L 74.485274 241.629619 
L 71.817463 232.759219 
L 70.733429 229.677344 
L 69.869298 223.888819 
L 67.716371 215.018419 
L 65.831782 209.71607 
L 65.075679 206.148019 
L 62.040543 197.277619 
L 60.930135 194.25434 
L 60.345613 188.407219 
L 59.889415 179.536819 
L 59.954825 176.338548 
" style="fill:none;stroke:#440154;stroke-width:1.5;"/>
    <path clip-path="url(#p16d4f15266)" d="M 65.355764 140.964364 
L 65.831782 136.770028 
L 66.451245 135.184819 
L 70.216522 126.314419 
L 70.733429 124.388414 
L 74.342297 117.444019 
L 75.635076 116.382418 
L 80.263507 108.573619 
L 80.536723 108.503764 
L 85.43837 106.627746 
L 89.719138 99.703219 
L 90.340017 99.223088 
L 95.241664 93.068473 
L 96.381429 90.832819 
L 100.143311 84.565459 
L 101.445109 81.962419 
L 104.907462 73.092019 
L 105.044958 72.35848 
L 108.999401 64.221619 
L 109.868374 55.351219 
L 109.946605 54.356965 
L 113.898193 46.480819 
L 114.73649 37.610419 
L 114.848252 34.368725 
L 117.619972 28.740019 
L 119.651823 19.869619 
L 119.749899 19.23395 
L 123.81047 10.999219 
" style="fill:none;stroke:#440154;stroke-width:1.5;"/>
    <path clip-path="url(#p16d4f15266)" d="M 140.212063 10.999219 
L 144.258135 16.814022 
L 147.579552 19.869619 
L 149.159782 22.375517 
L 151.76552 28.740019 
L 154.061429 33.803183 
L 155.087944 35.265247 
" style="fill:none;stroke:#440154;stroke-width:1.5;"/>
    <path clip-path="url(#p16d4f15266)" d="M 182.63609 28.6424 
L 183.471311 28.121451 
L 188.372958 25.416165 
L 193.274605 23.604719 
L 198.176252 24.888854 
L 203.077899 28.025474 
" style="fill:none;stroke:#440154;stroke-width:1.5;"/>
   </g>
   <g id="LineCollection_24">
    <path clip-path="url(#p16d4f15266)" d="M 73.850419 277.111219 
L 70.800806 268.240819 
L 70.733429 268.048832 
L 69.700948 260.848254 
" style="fill:none;stroke:#440154;stroke-width:1.5;"/>
    <path clip-path="url(#p16d4f15266)" d="M 60.551727 222.434808 
L 59.42443 215.018419 
L 56.451136 206.148019 
L 56.028488 204.949805 
" style="fill:none;stroke:#440154;stroke-width:1.5;"/>
    <path clip-path="url(#p16d4f15266)" d="M 56.028488 154.670008 
L 56.662895 152.925619 
L 60.1091 144.055219 
L 60.930135 139.855132 
L 63.066047 135.184819 
L 65.690013 126.314419 
L 65.831782 125.935599 
L 70.357516 117.444019 
L 70.733429 116.878374 
L 75.492307 108.573619 
L 75.635076 108.478914 
L 79.644425 107.058491 
" style="fill:none;stroke:#440154;stroke-width:1.5;"/>
    <path clip-path="url(#p16d4f15266)" d="M 101.066297 74.042227 
L 101.563733 73.092019 
L 104.707241 64.221619 
L 105.044958 62.609572 
L 108.469792 55.351219 
L 109.753909 46.480819 
L 109.946605 44.797562 
L 113.318448 37.610419 
L 114.618234 28.740019 
L 114.848252 24.314807 
L 117.079006 19.869619 
L 119.564544 10.999219 
" style="fill:none;stroke:#440154;stroke-width:1.5;"/>
    <path clip-path="url(#p16d4f15266)" d="M 151.666295 10.999219 
L 154.061429 15.225971 
L 158.963076 19.021385 
L 163.864723 18.987199 
L 168.76637 16.396931 
L 173.668017 11.334312 
L 174.020973 10.999219 
" style="fill:none;stroke:#440154;stroke-width:1.5;"/>
   </g>
   <g id="LineCollection_25">
    <path clip-path="url(#p16d4f15266)" d="M 65.326069 277.111219 
L 63.631703 268.240819 
L 60.930135 260.114713 
L 60.839772 259.370419 
L 59.863831 250.500019 
L 58.231374 241.629619 
L 56.028488 234.42261 
" style="fill:none;stroke:#440154;stroke-width:1.5;"/>
    <path clip-path="url(#p16d4f15266)" d="M 56.028488 141.547882 
L 59.18699 135.184819 
L 60.930135 128.71859 
L 62.147093 126.314419 
L 65.800634 117.444019 
L 65.831782 117.383633 
L 70.733429 109.286127 
L 71.141718 108.573619 
L 75.635076 105.592979 
L 79.422547 99.703219 
L 79.47141 99.651763 
" style="fill:none;stroke:#440154;stroke-width:1.5;"/>
    <path clip-path="url(#p16d4f15266)" d="M 100.695556 62.11802 
L 103.836406 55.351219 
L 105.044958 49.349302 
L 106.293718 46.480819 
L 109.229092 37.610419 
L 109.946605 33.148366 
L 111.953368 28.740019 
L 114.285222 19.869619 
L 114.848252 13.125457 
L 115.902643 10.999219 
" style="fill:none;stroke:#440154;stroke-width:1.5;"/>
   </g>
   <g id="LineCollection_26">
    <path clip-path="url(#p16d4f15266)" d="M 57.539203 277.111219 
L 56.028488 272.289106 
" style="fill:none;stroke:#450457;stroke-width:1.5;"/>
    <path clip-path="url(#p16d4f15266)" d="M 56.028488 131.784199 
L 58.87653 126.314419 
L 60.930135 120.882082 
L 62.777637 117.444019 
L 65.831782 111.522877 
L 67.482976 108.573619 
L 70.733429 103.714939 
L 73.217688 99.703219 
L 75.635076 96.407286 
L 77.23141 93.77436 
" style="fill:none;stroke:#450457;stroke-width:1.5;"/>
    <path clip-path="url(#p16d4f15266)" d="M 98.643487 52.272097 
L 100.143311 47.499222 
L 100.603077 46.480819 
L 104.349548 37.610419 
L 105.044958 34.746395 
L 107.777634 28.740019 
L 109.768006 19.869619 
L 109.946605 18.679028 
L 113.196451 10.999219 
" style="fill:none;stroke:#450457;stroke-width:1.5;"/>
   </g>
   <g id="LineCollection_27">
    <path clip-path="url(#p16d4f15266)" d="M 56.028488 121.700084 
L 58.281788 117.444019 
L 60.930135 111.0243 
L 62.27317 108.573619 
L 65.831782 101.312798 
L 66.74601 99.703219 
L 70.733429 92.10068 
L 71.470363 90.832819 
L 73.755394 86.532733 
" style="fill:none;stroke:#482475;stroke-width:1.5;"/>
    <path clip-path="url(#p16d4f15266)" d="M 96.735864 41.742454 
L 98.736415 37.610419 
L 100.143311 32.938227 
L 102.119136 28.740019 
L 104.847098 19.869619 
L 105.044958 19.015745 
L 108.55177 10.999219 
" style="fill:none;stroke:#482475;stroke-width:1.5;"/>
   </g>
   <g id="LineCollection_28">
    <path clip-path="url(#p16d4f15266)" d="M 56.028488 109.75242 
L 56.653916 108.573619 
L 60.78643 99.703219 
L 60.930135 99.303418 
L 65.395412 90.832819 
L 65.831782 89.704359 
L 68.139416 85.365636 
" style="fill:none;stroke:#fde725;stroke-width:1.5;"/>
    <path clip-path="url(#p16d4f15266)" d="M 92.299773 37.204628 
L 95.112959 28.740019 
L 95.241664 28.285949 
L 99.317369 19.869619 
L 100.143311 17.085546 
L 102.942149 10.999219 
" style="fill:none;stroke:#fde725;stroke-width:1.5;"/>
   </g>
   <g id="line2d_19">
    <path clip-path="url(#p16d4f15266)" d="M 170.552218 140.400794 
L 168.947391 138.313709 
L 164.987648 133.912991 
L 148.26438 121.238061 
L 130.373247 109.923052 
L 118.40902 102.916743 
L 110.519633 98.809741 
L 105.345188 96.501463 
L 101.961776 95.338043 
L 99.762429 94.90202 
L 98.338086 95.014142 
L 97.425615 95.456078 
L 96.846887 96.124812 
L 96.4893 96.92592 
L 96.275516 97.825835 
L 96.154108 98.831782 
L 96.094098 99.891807 
L 96.069799 101.050823 
L 96.068781 102.282809 
L 96.083445 103.561206 
L 96.105959 104.91313 
L 96.134325 106.307347 
L 96.170291 107.71019 
L 96.209969 109.113899 
L 96.254561 110.501695 
L 96.304479 111.855707 
L 96.353535 113.218366 
L 96.406641 114.536483 
L 96.464589 115.797109 
L 96.525484 117.016741 
L 96.590209 118.196873 
L 96.653267 119.398257 
L 96.713655 120.651645 
L 96.773999 121.933816 
L 96.835886 123.19681 
L 96.898754 124.420904 
L 96.962346 125.661203 
L 97.027813 126.888143 
L 97.093846 128.101303 
L 97.161442 129.27928 
L 97.229338 130.486529 
L 97.298049 131.663266 
L 97.365778 132.865993 
L 97.431685 134.132184 
L 97.498959 135.389633 
L 97.565076 136.614512 
L 97.632659 137.773515 
L 97.70089 138.931687 
L 97.770676 140.074332 
L 97.838433 141.220147 
L 97.845363 141.330993 
L 97.85234 141.440416 
L 97.859469 141.546648 
L 97.866694 141.649961 
L 97.874097 141.754089 
L 97.881514 141.856982 
L 97.888748 141.96323 
L 97.896048 142.06884 
L 97.903581 142.17448 
L 97.911023 142.281789 
L 97.918246 142.389969 
L 97.925894 142.494042 
L 97.933168 142.60166 
L 97.940655 142.703948 
L 97.94802 142.80588 
L 97.955433 142.909405 
L 97.962708 143.015316 
L 97.969896 143.122053 
L 97.977245 143.226292 
L 97.984892 143.325396 
L 97.992532 143.423373 
L 98.000176 143.523562 
L 98.007942 143.619636 
L 98.015781 143.715818 
L 98.023855 143.808735 
L 98.02465 143.818039 
L 98.025403 143.828022 
L 98.026138 143.838061 
L 98.026852 143.848505 
L 98.027557 143.859067 
L 98.028284 143.869275 
L 98.029014 143.879212 
L 98.029746 143.889088 
L 98.030465 143.89926 
L 98.031168 143.909466 
L 98.031865 143.919918 
L 98.032576 143.929869 
L 98.033332 143.939237 
L 98.034106 143.94889 
L 98.034868 143.958362 
L 98.035632 143.967977 
L 98.036415 143.977097 
L 98.0372 143.986732 
L 98.037989 143.99653 
L 98.038764 144.006193 
L 98.039512 144.016004 
L 98.040286 144.02581 
L 98.041058 144.035628 
L 98.041819 144.04555 
" style="fill:none;stroke:#1f77b4;stroke-linecap:square;stroke-width:1.5;"/>
    <defs>
     <path d="M 0 1.5 
C 0.397805 1.5 0.77937 1.341951 1.06066 1.06066 
C 1.341951 0.77937 1.5 0.397805 1.5 0 
C 1.5 -0.397805 1.341951 -0.77937 1.06066 -1.06066 
C 0.77937 -1.341951 0.397805 -1.5 0 -1.5 
C -0.397805 -1.5 -0.77937 -1.341951 -1.06066 -1.06066 
C -1.341951 -0.77937 -1.5 -0.397805 -1.5 0 
C -1.5 0.397805 -1.341951 0.77937 -1.06066 1.06066 
C -0.77937 1.341951 -0.397805 1.5 0 1.5 
z
" id="mf3605ebcf3" style="stroke:#1f77b4;"/>
    </defs>
    <g clip-path="url(#p16d4f15266)">
     <use style="fill:#1f77b4;stroke:#1f77b4;" x="170.552218" xlink:href="#mf3605ebcf3" y="140.400794"/>
     <use style="fill:#1f77b4;stroke:#1f77b4;" x="168.947391" xlink:href="#mf3605ebcf3" y="138.313709"/>
     <use style="fill:#1f77b4;stroke:#1f77b4;" x="164.987648" xlink:href="#mf3605ebcf3" y="133.912991"/>
     <use style="fill:#1f77b4;stroke:#1f77b4;" x="148.26438" xlink:href="#mf3605ebcf3" y="121.238061"/>
     <use style="fill:#1f77b4;stroke:#1f77b4;" x="130.373247" xlink:href="#mf3605ebcf3" y="109.923052"/>
     <use style="fill:#1f77b4;stroke:#1f77b4;" x="118.40902" xlink:href="#mf3605ebcf3" y="102.916743"/>
     <use style="fill:#1f77b4;stroke:#1f77b4;" x="110.519633" xlink:href="#mf3605ebcf3" y="98.809741"/>
     <use style="fill:#1f77b4;stroke:#1f77b4;" x="105.345188" xlink:href="#mf3605ebcf3" y="96.501463"/>
     <use style="fill:#1f77b4;stroke:#1f77b4;" x="101.961776" xlink:href="#mf3605ebcf3" y="95.338043"/>
     <use style="fill:#1f77b4;stroke:#1f77b4;" x="99.762429" xlink:href="#mf3605ebcf3" y="94.90202"/>
     <use style="fill:#1f77b4;stroke:#1f77b4;" x="98.338086" xlink:href="#mf3605ebcf3" y="95.014142"/>
     <use style="fill:#1f77b4;stroke:#1f77b4;" x="97.425615" xlink:href="#mf3605ebcf3" y="95.456078"/>
     <use style="fill:#1f77b4;stroke:#1f77b4;" x="96.846887" xlink:href="#mf3605ebcf3" y="96.124812"/>
     <use style="fill:#1f77b4;stroke:#1f77b4;" x="96.4893" xlink:href="#mf3605ebcf3" y="96.92592"/>
     <use style="fill:#1f77b4;stroke:#1f77b4;" x="96.275516" xlink:href="#mf3605ebcf3" y="97.825835"/>
     <use style="fill:#1f77b4;stroke:#1f77b4;" x="96.154108" xlink:href="#mf3605ebcf3" y="98.831782"/>
     <use style="fill:#1f77b4;stroke:#1f77b4;" x="96.094098" xlink:href="#mf3605ebcf3" y="99.891807"/>
     <use style="fill:#1f77b4;stroke:#1f77b4;" x="96.069799" xlink:href="#mf3605ebcf3" y="101.050823"/>
     <use style="fill:#1f77b4;stroke:#1f77b4;" x="96.068781" xlink:href="#mf3605ebcf3" y="102.282809"/>
     <use style="fill:#1f77b4;stroke:#1f77b4;" x="96.083445" xlink:href="#mf3605ebcf3" y="103.561206"/>
     <use style="fill:#1f77b4;stroke:#1f77b4;" x="96.105959" xlink:href="#mf3605ebcf3" y="104.91313"/>
     <use style="fill:#1f77b4;stroke:#1f77b4;" x="96.134325" xlink:href="#mf3605ebcf3" y="106.307347"/>
     <use style="fill:#1f77b4;stroke:#1f77b4;" x="96.170291" xlink:href="#mf3605ebcf3" y="107.71019"/>
     <use style="fill:#1f77b4;stroke:#1f77b4;" x="96.209969" xlink:href="#mf3605ebcf3" y="109.113899"/>
     <use style="fill:#1f77b4;stroke:#1f77b4;" x="96.254561" xlink:href="#mf3605ebcf3" y="110.501695"/>
     <use style="fill:#1f77b4;stroke:#1f77b4;" x="96.304479" xlink:href="#mf3605ebcf3" y="111.855707"/>
     <use style="fill:#1f77b4;stroke:#1f77b4;" x="96.353535" xlink:href="#mf3605ebcf3" y="113.218366"/>
     <use style="fill:#1f77b4;stroke:#1f77b4;" x="96.406641" xlink:href="#mf3605ebcf3" y="114.536483"/>
     <use style="fill:#1f77b4;stroke:#1f77b4;" x="96.464589" xlink:href="#mf3605ebcf3" y="115.797109"/>
     <use style="fill:#1f77b4;stroke:#1f77b4;" x="96.525484" xlink:href="#mf3605ebcf3" y="117.016741"/>
     <use style="fill:#1f77b4;stroke:#1f77b4;" x="96.590209" xlink:href="#mf3605ebcf3" y="118.196873"/>
     <use style="fill:#1f77b4;stroke:#1f77b4;" x="96.653267" xlink:href="#mf3605ebcf3" y="119.398257"/>
     <use style="fill:#1f77b4;stroke:#1f77b4;" x="96.713655" xlink:href="#mf3605ebcf3" y="120.651645"/>
     <use style="fill:#1f77b4;stroke:#1f77b4;" x="96.773999" xlink:href="#mf3605ebcf3" y="121.933816"/>
     <use style="fill:#1f77b4;stroke:#1f77b4;" x="96.835886" xlink:href="#mf3605ebcf3" y="123.19681"/>
     <use style="fill:#1f77b4;stroke:#1f77b4;" x="96.898754" xlink:href="#mf3605ebcf3" y="124.420904"/>
     <use style="fill:#1f77b4;stroke:#1f77b4;" x="96.962346" xlink:href="#mf3605ebcf3" y="125.661203"/>
     <use style="fill:#1f77b4;stroke:#1f77b4;" x="97.027813" xlink:href="#mf3605ebcf3" y="126.888143"/>
     <use style="fill:#1f77b4;stroke:#1f77b4;" x="97.093846" xlink:href="#mf3605ebcf3" y="128.101303"/>
     <use style="fill:#1f77b4;stroke:#1f77b4;" x="97.161442" xlink:href="#mf3605ebcf3" y="129.27928"/>
     <use style="fill:#1f77b4;stroke:#1f77b4;" x="97.229338" xlink:href="#mf3605ebcf3" y="130.486529"/>
     <use style="fill:#1f77b4;stroke:#1f77b4;" x="97.298049" xlink:href="#mf3605ebcf3" y="131.663266"/>
     <use style="fill:#1f77b4;stroke:#1f77b4;" x="97.365778" xlink:href="#mf3605ebcf3" y="132.865993"/>
     <use style="fill:#1f77b4;stroke:#1f77b4;" x="97.431685" xlink:href="#mf3605ebcf3" y="134.132184"/>
     <use style="fill:#1f77b4;stroke:#1f77b4;" x="97.498959" xlink:href="#mf3605ebcf3" y="135.389633"/>
     <use style="fill:#1f77b4;stroke:#1f77b4;" x="97.565076" xlink:href="#mf3605ebcf3" y="136.614512"/>
     <use style="fill:#1f77b4;stroke:#1f77b4;" x="97.632659" xlink:href="#mf3605ebcf3" y="137.773515"/>
     <use style="fill:#1f77b4;stroke:#1f77b4;" x="97.70089" xlink:href="#mf3605ebcf3" y="138.931687"/>
     <use style="fill:#1f77b4;stroke:#1f77b4;" x="97.770676" xlink:href="#mf3605ebcf3" y="140.074332"/>
     <use style="fill:#1f77b4;stroke:#1f77b4;" x="97.838433" xlink:href="#mf3605ebcf3" y="141.220147"/>
     <use style="fill:#1f77b4;stroke:#1f77b4;" x="97.845363" xlink:href="#mf3605ebcf3" y="141.330993"/>
     <use style="fill:#1f77b4;stroke:#1f77b4;" x="97.85234" xlink:href="#mf3605ebcf3" y="141.440416"/>
     <use style="fill:#1f77b4;stroke:#1f77b4;" x="97.859469" xlink:href="#mf3605ebcf3" y="141.546648"/>
     <use style="fill:#1f77b4;stroke:#1f77b4;" x="97.866694" xlink:href="#mf3605ebcf3" y="141.649961"/>
     <use style="fill:#1f77b4;stroke:#1f77b4;" x="97.874097" xlink:href="#mf3605ebcf3" y="141.754089"/>
     <use style="fill:#1f77b4;stroke:#1f77b4;" x="97.881514" xlink:href="#mf3605ebcf3" y="141.856982"/>
     <use style="fill:#1f77b4;stroke:#1f77b4;" x="97.888748" xlink:href="#mf3605ebcf3" y="141.96323"/>
     <use style="fill:#1f77b4;stroke:#1f77b4;" x="97.896048" xlink:href="#mf3605ebcf3" y="142.06884"/>
     <use style="fill:#1f77b4;stroke:#1f77b4;" x="97.903581" xlink:href="#mf3605ebcf3" y="142.17448"/>
     <use style="fill:#1f77b4;stroke:#1f77b4;" x="97.911023" xlink:href="#mf3605ebcf3" y="142.281789"/>
     <use style="fill:#1f77b4;stroke:#1f77b4;" x="97.918246" xlink:href="#mf3605ebcf3" y="142.389969"/>
     <use style="fill:#1f77b4;stroke:#1f77b4;" x="97.925894" xlink:href="#mf3605ebcf3" y="142.494042"/>
     <use style="fill:#1f77b4;stroke:#1f77b4;" x="97.933168" xlink:href="#mf3605ebcf3" y="142.60166"/>
     <use style="fill:#1f77b4;stroke:#1f77b4;" x="97.940655" xlink:href="#mf3605ebcf3" y="142.703948"/>
     <use style="fill:#1f77b4;stroke:#1f77b4;" x="97.94802" xlink:href="#mf3605ebcf3" y="142.80588"/>
     <use style="fill:#1f77b4;stroke:#1f77b4;" x="97.955433" xlink:href="#mf3605ebcf3" y="142.909405"/>
     <use style="fill:#1f77b4;stroke:#1f77b4;" x="97.962708" xlink:href="#mf3605ebcf3" y="143.015316"/>
     <use style="fill:#1f77b4;stroke:#1f77b4;" x="97.969896" xlink:href="#mf3605ebcf3" y="143.122053"/>
     <use style="fill:#1f77b4;stroke:#1f77b4;" x="97.977245" xlink:href="#mf3605ebcf3" y="143.226292"/>
     <use style="fill:#1f77b4;stroke:#1f77b4;" x="97.984892" xlink:href="#mf3605ebcf3" y="143.325396"/>
     <use style="fill:#1f77b4;stroke:#1f77b4;" x="97.992532" xlink:href="#mf3605ebcf3" y="143.423373"/>
     <use style="fill:#1f77b4;stroke:#1f77b4;" x="98.000176" xlink:href="#mf3605ebcf3" y="143.523562"/>
     <use style="fill:#1f77b4;stroke:#1f77b4;" x="98.007942" xlink:href="#mf3605ebcf3" y="143.619636"/>
     <use style="fill:#1f77b4;stroke:#1f77b4;" x="98.015781" xlink:href="#mf3605ebcf3" y="143.715818"/>
     <use style="fill:#1f77b4;stroke:#1f77b4;" x="98.023855" xlink:href="#mf3605ebcf3" y="143.808735"/>
     <use style="fill:#1f77b4;stroke:#1f77b4;" x="98.02465" xlink:href="#mf3605ebcf3" y="143.818039"/>
     <use style="fill:#1f77b4;stroke:#1f77b4;" x="98.025403" xlink:href="#mf3605ebcf3" y="143.828022"/>
     <use style="fill:#1f77b4;stroke:#1f77b4;" x="98.026138" xlink:href="#mf3605ebcf3" y="143.838061"/>
     <use style="fill:#1f77b4;stroke:#1f77b4;" x="98.026852" xlink:href="#mf3605ebcf3" y="143.848505"/>
     <use style="fill:#1f77b4;stroke:#1f77b4;" x="98.027557" xlink:href="#mf3605ebcf3" y="143.859067"/>
     <use style="fill:#1f77b4;stroke:#1f77b4;" x="98.028284" xlink:href="#mf3605ebcf3" y="143.869275"/>
     <use style="fill:#1f77b4;stroke:#1f77b4;" x="98.029014" xlink:href="#mf3605ebcf3" y="143.879212"/>
     <use style="fill:#1f77b4;stroke:#1f77b4;" x="98.029746" xlink:href="#mf3605ebcf3" y="143.889088"/>
     <use style="fill:#1f77b4;stroke:#1f77b4;" x="98.030465" xlink:href="#mf3605ebcf3" y="143.89926"/>
     <use style="fill:#1f77b4;stroke:#1f77b4;" x="98.031168" xlink:href="#mf3605ebcf3" y="143.909466"/>
     <use style="fill:#1f77b4;stroke:#1f77b4;" x="98.031865" xlink:href="#mf3605ebcf3" y="143.919918"/>
     <use style="fill:#1f77b4;stroke:#1f77b4;" x="98.032576" xlink:href="#mf3605ebcf3" y="143.929869"/>
     <use style="fill:#1f77b4;stroke:#1f77b4;" x="98.033332" xlink:href="#mf3605ebcf3" y="143.939237"/>
     <use style="fill:#1f77b4;stroke:#1f77b4;" x="98.034106" xlink:href="#mf3605ebcf3" y="143.94889"/>
     <use style="fill:#1f77b4;stroke:#1f77b4;" x="98.034868" xlink:href="#mf3605ebcf3" y="143.958362"/>
     <use style="fill:#1f77b4;stroke:#1f77b4;" x="98.035632" xlink:href="#mf3605ebcf3" y="143.967977"/>
     <use style="fill:#1f77b4;stroke:#1f77b4;" x="98.036415" xlink:href="#mf3605ebcf3" y="143.977097"/>
     <use style="fill:#1f77b4;stroke:#1f77b4;" x="98.0372" xlink:href="#mf3605ebcf3" y="143.986732"/>
     <use style="fill:#1f77b4;stroke:#1f77b4;" x="98.037989" xlink:href="#mf3605ebcf3" y="143.99653"/>
     <use style="fill:#1f77b4;stroke:#1f77b4;" x="98.038764" xlink:href="#mf3605ebcf3" y="144.006193"/>
     <use style="fill:#1f77b4;stroke:#1f77b4;" x="98.039512" xlink:href="#mf3605ebcf3" y="144.016004"/>
     <use style="fill:#1f77b4;stroke:#1f77b4;" x="98.040286" xlink:href="#mf3605ebcf3" y="144.02581"/>
     <use style="fill:#1f77b4;stroke:#1f77b4;" x="98.041058" xlink:href="#mf3605ebcf3" y="144.035628"/>
     <use style="fill:#1f77b4;stroke:#1f77b4;" x="98.041819" xlink:href="#mf3605ebcf3" y="144.04555"/>
    </g>
   </g>
   <g id="patch_3">
    <path d="M 56.028488 277.111219 
L 56.028488 10.999219 
" style="fill:none;stroke:#000000;stroke-linecap:square;stroke-linejoin:miter;stroke-width:0.8;"/>
   </g>
   <g id="patch_4">
    <path d="M 413.148488 277.111219 
L 413.148488 10.999219 
" style="fill:none;stroke:#000000;stroke-linecap:square;stroke-linejoin:miter;stroke-width:0.8;"/>
   </g>
   <g id="patch_5">
    <path d="M 56.028488 277.111219 
L 413.148488 277.111219 
" style="fill:none;stroke:#000000;stroke-linecap:square;stroke-linejoin:miter;stroke-width:0.8;"/>
   </g>
   <g id="patch_6">
    <path d="M 56.028488 10.999219 
L 413.148488 10.999219 
" style="fill:none;stroke:#000000;stroke-linecap:square;stroke-linejoin:miter;stroke-width:0.8;"/>
   </g>
   <g id="text_21">
    <g clip-path="url(#p16d4f15266)">
     <!-- 2.500 -->
     <g style="fill:#39558c;" transform="translate(96.998618 143.434353)rotate(-59.680422)scale(0.06 -0.06)">
      <use xlink:href="#DejaVuSans-50"/>
      <use x="63.623047" xlink:href="#DejaVuSans-46"/>
      <use x="95.410156" xlink:href="#DejaVuSans-53"/>
      <use x="159.033203" xlink:href="#DejaVuSans-48"/>
      <use x="222.65625" xlink:href="#DejaVuSans-48"/>
     </g>
    </g>
   </g>
   <g id="text_22">
    <g clip-path="url(#p16d4f15266)">
     <!-- 3.000 -->
     <g style="fill:#33638d;" transform="translate(134.966217 54.39385)rotate(-289.217315)scale(0.06 -0.06)">
      <use xlink:href="#DejaVuSans-51"/>
      <use x="63.623047" xlink:href="#DejaVuSans-46"/>
      <use x="95.410156" xlink:href="#DejaVuSans-48"/>
      <use x="159.033203" xlink:href="#DejaVuSans-48"/>
      <use x="222.65625" xlink:href="#DejaVuSans-48"/>
     </g>
    </g>
   </g>
   <g id="text_23">
    <g clip-path="url(#p16d4f15266)">
     <!-- 3.500 -->
     <g style="fill:#2d718e;" transform="translate(96.227848 177.534456)rotate(-285.682206)scale(0.06 -0.06)">
      <use xlink:href="#DejaVuSans-51"/>
      <use x="63.623047" xlink:href="#DejaVuSans-46"/>
      <use x="95.410156" xlink:href="#DejaVuSans-53"/>
      <use x="159.033203" xlink:href="#DejaVuSans-48"/>
      <use x="222.65625" xlink:href="#DejaVuSans-48"/>
     </g>
    </g>
   </g>
   <g id="text_24">
    <g clip-path="url(#p16d4f15266)">
     <!-- 4.000 -->
     <g style="fill:#287d8e;" transform="translate(175.241236 132.181781)rotate(-281.455942)scale(0.06 -0.06)">
      <use xlink:href="#DejaVuSans-52"/>
      <use x="63.623047" xlink:href="#DejaVuSans-46"/>
      <use x="95.410156" xlink:href="#DejaVuSans-48"/>
      <use x="159.033203" xlink:href="#DejaVuSans-48"/>
      <use x="222.65625" xlink:href="#DejaVuSans-48"/>
     </g>
    </g>
   </g>
   <g id="text_25">
    <g clip-path="url(#p16d4f15266)">
     <!-- 4.500 -->
     <g style="fill:#238a8d;" transform="translate(122.013185 223.41652)rotate(-345.993351)scale(0.06 -0.06)">
      <use xlink:href="#DejaVuSans-52"/>
      <use x="63.623047" xlink:href="#DejaVuSans-46"/>
      <use x="95.410156" xlink:href="#DejaVuSans-53"/>
      <use x="159.033203" xlink:href="#DejaVuSans-48"/>
      <use x="222.65625" xlink:href="#DejaVuSans-48"/>
     </g>
    </g>
   </g>
   <g id="text_26">
    <g clip-path="url(#p16d4f15266)">
     <!-- 5.000 -->
     <g style="fill:#1f968b;" transform="translate(117.870249 32.470656)rotate(-28.255575)scale(0.06 -0.06)">
      <use xlink:href="#DejaVuSans-53"/>
      <use x="63.623047" xlink:href="#DejaVuSans-46"/>
      <use x="95.410156" xlink:href="#DejaVuSans-48"/>
      <use x="159.033203" xlink:href="#DejaVuSans-48"/>
      <use x="222.65625" xlink:href="#DejaVuSans-48"/>
     </g>
    </g>
   </g>
   <g id="text_27">
    <g clip-path="url(#p16d4f15266)">
     <!-- 5.500 -->
     <g style="fill:#20a386;" transform="translate(182.328752 127.137574)rotate(-282.155833)scale(0.06 -0.06)">
      <use xlink:href="#DejaVuSans-53"/>
      <use x="63.623047" xlink:href="#DejaVuSans-46"/>
      <use x="95.410156" xlink:href="#DejaVuSans-53"/>
      <use x="159.033203" xlink:href="#DejaVuSans-48"/>
      <use x="222.65625" xlink:href="#DejaVuSans-48"/>
     </g>
    </g>
   </g>
   <g id="text_28">
    <g clip-path="url(#p16d4f15266)">
     <!-- 6.000 -->
     <g style="fill:#29af7f;" transform="translate(173.082945 100.906793)rotate(-297.939932)scale(0.06 -0.06)">
      <use xlink:href="#DejaVuSans-54"/>
      <use x="63.623047" xlink:href="#DejaVuSans-46"/>
      <use x="95.410156" xlink:href="#DejaVuSans-48"/>
      <use x="159.033203" xlink:href="#DejaVuSans-48"/>
      <use x="222.65625" xlink:href="#DejaVuSans-48"/>
     </g>
    </g>
   </g>
   <g id="text_29">
    <g clip-path="url(#p16d4f15266)">
     <!-- 6.500 -->
     <g style="fill:#3dbc74;" transform="translate(145.837454 222.050245)rotate(-8.994763)scale(0.06 -0.06)">
      <use xlink:href="#DejaVuSans-54"/>
      <use x="63.623047" xlink:href="#DejaVuSans-46"/>
      <use x="95.410156" xlink:href="#DejaVuSans-53"/>
      <use x="159.033203" xlink:href="#DejaVuSans-48"/>
      <use x="222.65625" xlink:href="#DejaVuSans-48"/>
     </g>
    </g>
   </g>
   <g id="text_30">
    <g clip-path="url(#p16d4f15266)">
     <!-- 7.000 -->
     <g style="fill:#56c667;" transform="translate(113.667294 63.722174)rotate(-71.328967)scale(0.06 -0.06)">
      <defs>
       <path d="M 8.203125 72.90625 
L 55.078125 72.90625 
L 55.078125 68.703125 
L 28.609375 0 
L 18.3125 0 
L 43.21875 64.59375 
L 8.203125 64.59375 
z
" id="DejaVuSans-55"/>
      </defs>
      <use xlink:href="#DejaVuSans-55"/>
      <use x="63.623047" xlink:href="#DejaVuSans-46"/>
      <use x="95.410156" xlink:href="#DejaVuSans-48"/>
      <use x="159.033203" xlink:href="#DejaVuSans-48"/>
      <use x="222.65625" xlink:href="#DejaVuSans-48"/>
     </g>
    </g>
   </g>
   <g id="text_31">
    <g clip-path="url(#p16d4f15266)">
     <!-- 7.500 -->
     <g style="fill:#75d054;" transform="translate(166.591267 238.726904)rotate(-25.081682)scale(0.06 -0.06)">
      <use xlink:href="#DejaVuSans-55"/>
      <use x="63.623047" xlink:href="#DejaVuSans-46"/>
      <use x="95.410156" xlink:href="#DejaVuSans-53"/>
      <use x="159.033203" xlink:href="#DejaVuSans-48"/>
      <use x="222.65625" xlink:href="#DejaVuSans-48"/>
     </g>
    </g>
   </g>
   <g id="text_32">
    <g clip-path="url(#p16d4f15266)">
     <!-- 8.000 -->
     <g style="fill:#95d840;" transform="translate(173.645677 93.312926)rotate(-302.151489)scale(0.06 -0.06)">
      <use xlink:href="#DejaVuSans-56"/>
      <use x="63.623047" xlink:href="#DejaVuSans-46"/>
      <use x="95.410156" xlink:href="#DejaVuSans-48"/>
      <use x="159.033203" xlink:href="#DejaVuSans-48"/>
      <use x="222.65625" xlink:href="#DejaVuSans-48"/>
     </g>
    </g>
   </g>
   <g id="text_33">
    <g clip-path="url(#p16d4f15266)">
     <!-- 8.500 -->
     <g style="fill:#bade28;" transform="translate(110.169123 90.693477)rotate(-82.500741)scale(0.06 -0.06)">
      <use xlink:href="#DejaVuSans-56"/>
      <use x="63.623047" xlink:href="#DejaVuSans-46"/>
      <use x="95.410156" xlink:href="#DejaVuSans-53"/>
      <use x="159.033203" xlink:href="#DejaVuSans-48"/>
      <use x="222.65625" xlink:href="#DejaVuSans-48"/>
     </g>
    </g>
   </g>
   <g id="text_34">
    <g clip-path="url(#p16d4f15266)">
     <!-- 9.000 -->
     <g style="fill:#dde318;" transform="translate(86.617358 153.346241)rotate(-274.057121)scale(0.06 -0.06)">
      <defs>
       <path d="M 10.984375 1.515625 
L 10.984375 10.5 
Q 14.703125 8.734375 18.5 7.8125 
Q 22.3125 6.890625 25.984375 6.890625 
Q 35.75 6.890625 40.890625 13.453125 
Q 46.046875 20.015625 46.78125 33.40625 
Q 43.953125 29.203125 39.59375 26.953125 
Q 35.25 24.703125 29.984375 24.703125 
Q 19.046875 24.703125 12.671875 31.3125 
Q 6.296875 37.9375 6.296875 49.421875 
Q 6.296875 60.640625 12.9375 67.421875 
Q 19.578125 74.21875 30.609375 74.21875 
Q 43.265625 74.21875 49.921875 64.515625 
Q 56.59375 54.828125 56.59375 36.375 
Q 56.59375 19.140625 48.40625 8.859375 
Q 40.234375 -1.421875 26.421875 -1.421875 
Q 22.703125 -1.421875 18.890625 -0.6875 
Q 15.09375 0.046875 10.984375 1.515625 
z
M 30.609375 32.421875 
Q 37.25 32.421875 41.125 36.953125 
Q 45.015625 41.5 45.015625 49.421875 
Q 45.015625 57.28125 41.125 61.84375 
Q 37.25 66.40625 30.609375 66.40625 
Q 23.96875 66.40625 20.09375 61.84375 
Q 16.21875 57.28125 16.21875 49.421875 
Q 16.21875 41.5 20.09375 36.953125 
Q 23.96875 32.421875 30.609375 32.421875 
z
" id="DejaVuSans-57"/>
      </defs>
      <use xlink:href="#DejaVuSans-57"/>
      <use x="63.623047" xlink:href="#DejaVuSans-46"/>
      <use x="95.410156" xlink:href="#DejaVuSans-48"/>
      <use x="159.033203" xlink:href="#DejaVuSans-48"/>
      <use x="222.65625" xlink:href="#DejaVuSans-48"/>
     </g>
    </g>
   </g>
   <g id="text_35">
    <g clip-path="url(#p16d4f15266)">
     <!-- 9.500 -->
     <g style="fill:#fde725;" transform="translate(86.106366 162.46423)rotate(-279.409769)scale(0.06 -0.06)">
      <use xlink:href="#DejaVuSans-57"/>
      <use x="63.623047" xlink:href="#DejaVuSans-46"/>
      <use x="95.410156" xlink:href="#DejaVuSans-53"/>
      <use x="159.033203" xlink:href="#DejaVuSans-48"/>
      <use x="222.65625" xlink:href="#DejaVuSans-48"/>
     </g>
    </g>
   </g>
   <g id="text_36">
    <g clip-path="url(#p16d4f15266)">
     <!-- 10.000 -->
     <g style="fill:#440154;" transform="translate(145.344885 45.57406)rotate(-284.105983)scale(0.06 -0.06)">
      <use xlink:href="#DejaVuSans-49"/>
      <use x="63.623047" xlink:href="#DejaVuSans-48"/>
      <use x="127.246094" xlink:href="#DejaVuSans-46"/>
      <use x="159.033203" xlink:href="#DejaVuSans-48"/>
      <use x="222.65625" xlink:href="#DejaVuSans-48"/>
      <use x="286.279297" xlink:href="#DejaVuSans-48"/>
     </g>
    </g>
   </g>
   <g id="text_37">
    <g clip-path="url(#p16d4f15266)">
     <!-- 100.000 -->
     <g style="fill:#440154;" transform="translate(83.027579 231.362295)rotate(-297.279628)scale(0.06 -0.06)">
      <use xlink:href="#DejaVuSans-49"/>
      <use x="63.623047" xlink:href="#DejaVuSans-48"/>
      <use x="127.246094" xlink:href="#DejaVuSans-48"/>
      <use x="190.869141" xlink:href="#DejaVuSans-46"/>
      <use x="222.65625" xlink:href="#DejaVuSans-48"/>
      <use x="286.279297" xlink:href="#DejaVuSans-48"/>
      <use x="349.902344" xlink:href="#DejaVuSans-48"/>
     </g>
    </g>
   </g>
   <g id="text_38">
    <g clip-path="url(#p16d4f15266)">
     <!-- 100.000 -->
     <g style="fill:#440154;" transform="translate(151.35042 65.496696)rotate(-351.475983)scale(0.06 -0.06)">
      <use xlink:href="#DejaVuSans-49"/>
      <use x="63.623047" xlink:href="#DejaVuSans-48"/>
      <use x="127.246094" xlink:href="#DejaVuSans-48"/>
      <use x="190.869141" xlink:href="#DejaVuSans-46"/>
      <use x="222.65625" xlink:href="#DejaVuSans-48"/>
      <use x="286.279297" xlink:href="#DejaVuSans-48"/>
      <use x="349.902344" xlink:href="#DejaVuSans-48"/>
     </g>
    </g>
   </g>
   <g id="text_39">
    <g clip-path="url(#p16d4f15266)">
     <!-- 1000.000 -->
     <g style="fill:#440154;" transform="translate(60.13544 172.759325)rotate(-80.241156)scale(0.06 -0.06)">
      <use xlink:href="#DejaVuSans-49"/>
      <use x="63.623047" xlink:href="#DejaVuSans-48"/>
      <use x="127.246094" xlink:href="#DejaVuSans-48"/>
      <use x="190.869141" xlink:href="#DejaVuSans-48"/>
      <use x="254.492188" xlink:href="#DejaVuSans-46"/>
      <use x="286.279297" xlink:href="#DejaVuSans-48"/>
      <use x="349.902344" xlink:href="#DejaVuSans-48"/>
      <use x="413.525391" xlink:href="#DejaVuSans-48"/>
     </g>
    </g>
   </g>
   <g id="text_40">
    <g clip-path="url(#p16d4f15266)">
     <!-- 1000.000 -->
     <g style="fill:#440154;" transform="translate(155.589449 45.839985)rotate(-17.278793)scale(0.06 -0.06)">
      <use xlink:href="#DejaVuSans-49"/>
      <use x="63.623047" xlink:href="#DejaVuSans-48"/>
      <use x="127.246094" xlink:href="#DejaVuSans-48"/>
      <use x="190.869141" xlink:href="#DejaVuSans-48"/>
      <use x="254.492188" xlink:href="#DejaVuSans-46"/>
      <use x="286.279297" xlink:href="#DejaVuSans-48"/>
      <use x="349.902344" xlink:href="#DejaVuSans-48"/>
      <use x="413.525391" xlink:href="#DejaVuSans-48"/>
     </g>
    </g>
   </g>
   <g id="text_41">
    <g clip-path="url(#p16d4f15266)">
     <!-- 10000.000 -->
     <g style="fill:#440154;" transform="translate(59.661235 226.279356)rotate(-283.903834)scale(0.06 -0.06)">
      <use xlink:href="#DejaVuSans-49"/>
      <use x="63.623047" xlink:href="#DejaVuSans-48"/>
      <use x="127.246094" xlink:href="#DejaVuSans-48"/>
      <use x="190.869141" xlink:href="#DejaVuSans-48"/>
      <use x="254.492188" xlink:href="#DejaVuSans-48"/>
      <use x="318.115234" xlink:href="#DejaVuSans-46"/>
      <use x="349.902344" xlink:href="#DejaVuSans-48"/>
      <use x="413.525391" xlink:href="#DejaVuSans-48"/>
      <use x="477.148438" xlink:href="#DejaVuSans-48"/>
     </g>
    </g>
   </g>
   <g id="text_42">
    <g clip-path="url(#p16d4f15266)">
     <!-- 10000.000 -->
     <g style="fill:#440154;" transform="translate(83.044339 105.253398)rotate(-57.597579)scale(0.06 -0.06)">
      <use xlink:href="#DejaVuSans-49"/>
      <use x="63.623047" xlink:href="#DejaVuSans-48"/>
      <use x="127.246094" xlink:href="#DejaVuSans-48"/>
      <use x="190.869141" xlink:href="#DejaVuSans-48"/>
      <use x="254.492188" xlink:href="#DejaVuSans-48"/>
      <use x="318.115234" xlink:href="#DejaVuSans-46"/>
      <use x="349.902344" xlink:href="#DejaVuSans-48"/>
      <use x="413.525391" xlink:href="#DejaVuSans-48"/>
      <use x="477.148438" xlink:href="#DejaVuSans-48"/>
     </g>
    </g>
   </g>
   <g id="text_43">
    <g clip-path="url(#p16d4f15266)">
     <!-- 100000.000 -->
     <g style="fill:#440154;" transform="translate(82.909983 97.669265)rotate(-60.699038)scale(0.06 -0.06)">
      <use xlink:href="#DejaVuSans-49"/>
      <use x="63.623047" xlink:href="#DejaVuSans-48"/>
      <use x="127.246094" xlink:href="#DejaVuSans-48"/>
      <use x="190.869141" xlink:href="#DejaVuSans-48"/>
      <use x="254.492188" xlink:href="#DejaVuSans-48"/>
      <use x="318.115234" xlink:href="#DejaVuSans-48"/>
      <use x="381.738281" xlink:href="#DejaVuSans-46"/>
      <use x="413.525391" xlink:href="#DejaVuSans-48"/>
      <use x="477.148438" xlink:href="#DejaVuSans-48"/>
      <use x="540.771484" xlink:href="#DejaVuSans-48"/>
     </g>
    </g>
   </g>
   <g id="text_44">
    <g clip-path="url(#p16d4f15266)">
     <!-- 1000000.000 -->
     <g style="fill:#450457;" transform="translate(80.263675 91.598494)rotate(-62.247159)scale(0.06 -0.06)">
      <use xlink:href="#DejaVuSans-49"/>
      <use x="63.623047" xlink:href="#DejaVuSans-48"/>
      <use x="127.246094" xlink:href="#DejaVuSans-48"/>
      <use x="190.869141" xlink:href="#DejaVuSans-48"/>
      <use x="254.492188" xlink:href="#DejaVuSans-48"/>
      <use x="318.115234" xlink:href="#DejaVuSans-48"/>
      <use x="381.738281" xlink:href="#DejaVuSans-48"/>
      <use x="445.361328" xlink:href="#DejaVuSans-46"/>
      <use x="477.148438" xlink:href="#DejaVuSans-48"/>
      <use x="540.771484" xlink:href="#DejaVuSans-48"/>
      <use x="604.394531" xlink:href="#DejaVuSans-48"/>
     </g>
    </g>
   </g>
   <g id="text_45">
    <g clip-path="url(#p16d4f15266)">
     <!-- 10000000.000 -->
     <g style="fill:#482475;" transform="translate(76.831096 84.49579)rotate(-62.766406)scale(0.06 -0.06)">
      <use xlink:href="#DejaVuSans-49"/>
      <use x="63.623047" xlink:href="#DejaVuSans-48"/>
      <use x="127.246094" xlink:href="#DejaVuSans-48"/>
      <use x="190.869141" xlink:href="#DejaVuSans-48"/>
      <use x="254.492188" xlink:href="#DejaVuSans-48"/>
      <use x="318.115234" xlink:href="#DejaVuSans-48"/>
      <use x="381.738281" xlink:href="#DejaVuSans-48"/>
      <use x="445.361328" xlink:href="#DejaVuSans-48"/>
      <use x="508.984375" xlink:href="#DejaVuSans-46"/>
      <use x="540.771484" xlink:href="#DejaVuSans-48"/>
      <use x="604.394531" xlink:href="#DejaVuSans-48"/>
      <use x="668.017578" xlink:href="#DejaVuSans-48"/>
     </g>
    </g>
   </g>
   <g id="text_46">
    <g clip-path="url(#p16d4f15266)">
     <!-- 100000000.000 -->
     <g style="fill:#fde725;" transform="translate(71.320606 83.519996)rotate(-63.364517)scale(0.06 -0.06)">
      <use xlink:href="#DejaVuSans-49"/>
      <use x="63.623047" xlink:href="#DejaVuSans-48"/>
      <use x="127.246094" xlink:href="#DejaVuSans-48"/>
      <use x="190.869141" xlink:href="#DejaVuSans-48"/>
      <use x="254.492188" xlink:href="#DejaVuSans-48"/>
      <use x="318.115234" xlink:href="#DejaVuSans-48"/>
      <use x="381.738281" xlink:href="#DejaVuSans-48"/>
      <use x="445.361328" xlink:href="#DejaVuSans-48"/>
      <use x="508.984375" xlink:href="#DejaVuSans-48"/>
      <use x="572.607422" xlink:href="#DejaVuSans-46"/>
      <use x="604.394531" xlink:href="#DejaVuSans-48"/>
      <use x="668.017578" xlink:href="#DejaVuSans-48"/>
      <use x="731.640625" xlink:href="#DejaVuSans-48"/>
     </g>
    </g>
   </g>
  </g>
 </g>
 <defs>
  <clipPath id="p16d4f15266">
   <rect height="266.112" width="357.12" x="56.028488" y="10.999219"/>
  </clipPath>
 </defs>
</svg>
