<?xml version="1.0" encoding="utf-8" standalone="no"?>
<!DOCTYPE svg PUBLIC "-//W3C//DTD SVG 1.1//EN"
  "http://www.w3.org/Graphics/SVG/1.1/DTD/svg11.dtd">
<!-- Created with matplotlib (https://matplotlib.org/) -->
<svg height="321.713144pt" version="1.1" viewBox="0 0 420.348487 321.713144" width="420.348487pt" xmlns="http://www.w3.org/2000/svg" xmlns:xlink="http://www.w3.org/1999/xlink">
 <metadata>
  <rdf:RDF xmlns:cc="http://creativecommons.org/ns#" xmlns:dc="http://purl.org/dc/elements/1.1/" xmlns:rdf="http://www.w3.org/1999/02/22-rdf-syntax-ns#">
   <cc:Work>
    <dc:type rdf:resource="http://purl.org/dc/dcmitype/StillImage"/>
    <dc:date>2021-09-21T23:35:32.082348</dc:date>
    <dc:format>image/svg+xml</dc:format>
    <dc:creator>
     <cc:Agent>
      <dc:title>Matplotlib v3.3.1, https://matplotlib.org/</dc:title>
     </cc:Agent>
    </dc:creator>
   </cc:Work>
  </rdf:RDF>
 </metadata>
 <defs>
  <style type="text/css">*{stroke-linecap:butt;stroke-linejoin:round;}</style>
 </defs>
 <g id="figure_1">
  <g id="patch_1">
   <path d="M 0 321.713144 
L 420.348487 321.713144 
L 420.348487 0 
L 0 0 
z
" style="fill:#ffffff;"/>
  </g>
  <g id="axes_1">
   <g id="patch_2">
    <path d="M 56.028488 277.111219 
L 413.148488 277.111219 
L 413.148488 10.999219 
L 56.028488 10.999219 
z
" style="fill:#ffffff;"/>
   </g>
   <g id="matplotlib.axis_1">
    <g id="xtick_1">
     <g id="line2d_1">
      <defs>
       <path d="M 0 0 
L 0 3.5 
" id="ma5fb89f2ec" style="stroke:#000000;stroke-width:0.8;"/>
      </defs>
      <g>
       <use style="stroke:#000000;stroke-width:0.8;" x="56.028488" xlink:href="#ma5fb89f2ec" y="277.111219"/>
      </g>
     </g>
     <g id="text_1">
      <!-- −20 -->
      <g transform="translate(45.476144 291.709656)scale(0.1 -0.1)">
       <defs>
        <path d="M 10.59375 35.5 
L 73.1875 35.5 
L 73.1875 27.203125 
L 10.59375 27.203125 
z
" id="DejaVuSans-8722"/>
        <path d="M 19.1875 8.296875 
L 53.609375 8.296875 
L 53.609375 0 
L 7.328125 0 
L 7.328125 8.296875 
Q 12.9375 14.109375 22.625 23.890625 
Q 32.328125 33.6875 34.8125 36.53125 
Q 39.546875 41.84375 41.421875 45.53125 
Q 43.3125 49.21875 43.3125 52.78125 
Q 43.3125 58.59375 39.234375 62.25 
Q 35.15625 65.921875 28.609375 65.921875 
Q 23.96875 65.921875 18.8125 64.3125 
Q 13.671875 62.703125 7.8125 59.421875 
L 7.8125 69.390625 
Q 13.765625 71.78125 18.9375 73 
Q 24.125 74.21875 28.421875 74.21875 
Q 39.75 74.21875 46.484375 68.546875 
Q 53.21875 62.890625 53.21875 53.421875 
Q 53.21875 48.921875 51.53125 44.890625 
Q 49.859375 40.875 45.40625 35.40625 
Q 44.1875 33.984375 37.640625 27.21875 
Q 31.109375 20.453125 19.1875 8.296875 
z
" id="DejaVuSans-50"/>
        <path d="M 31.78125 66.40625 
Q 24.171875 66.40625 20.328125 58.90625 
Q 16.5 51.421875 16.5 36.375 
Q 16.5 21.390625 20.328125 13.890625 
Q 24.171875 6.390625 31.78125 6.390625 
Q 39.453125 6.390625 43.28125 13.890625 
Q 47.125 21.390625 47.125 36.375 
Q 47.125 51.421875 43.28125 58.90625 
Q 39.453125 66.40625 31.78125 66.40625 
z
M 31.78125 74.21875 
Q 44.046875 74.21875 50.515625 64.515625 
Q 56.984375 54.828125 56.984375 36.375 
Q 56.984375 17.96875 50.515625 8.265625 
Q 44.046875 -1.421875 31.78125 -1.421875 
Q 19.53125 -1.421875 13.0625 8.265625 
Q 6.59375 17.96875 6.59375 36.375 
Q 6.59375 54.828125 13.0625 64.515625 
Q 19.53125 74.21875 31.78125 74.21875 
z
" id="DejaVuSans-48"/>
       </defs>
       <use xlink:href="#DejaVuSans-8722"/>
       <use x="83.789062" xlink:href="#DejaVuSans-50"/>
       <use x="147.412109" xlink:href="#DejaVuSans-48"/>
      </g>
     </g>
    </g>
    <g id="xtick_2">
     <g id="line2d_2">
      <g>
       <use style="stroke:#000000;stroke-width:0.8;" x="98.042605" xlink:href="#ma5fb89f2ec" y="277.111219"/>
      </g>
     </g>
     <g id="text_2">
      <!-- 0 -->
      <g transform="translate(94.861355 291.709656)scale(0.1 -0.1)">
       <use xlink:href="#DejaVuSans-48"/>
      </g>
     </g>
    </g>
    <g id="xtick_3">
     <g id="line2d_3">
      <g>
       <use style="stroke:#000000;stroke-width:0.8;" x="140.056723" xlink:href="#ma5fb89f2ec" y="277.111219"/>
      </g>
     </g>
     <g id="text_3">
      <!-- 20 -->
      <g transform="translate(133.694223 291.709656)scale(0.1 -0.1)">
       <use xlink:href="#DejaVuSans-50"/>
       <use x="63.623047" xlink:href="#DejaVuSans-48"/>
      </g>
     </g>
    </g>
    <g id="xtick_4">
     <g id="line2d_4">
      <g>
       <use style="stroke:#000000;stroke-width:0.8;" x="182.07084" xlink:href="#ma5fb89f2ec" y="277.111219"/>
      </g>
     </g>
     <g id="text_4">
      <!-- 40 -->
      <g transform="translate(175.70834 291.709656)scale(0.1 -0.1)">
       <defs>
        <path d="M 37.796875 64.3125 
L 12.890625 25.390625 
L 37.796875 25.390625 
z
M 35.203125 72.90625 
L 47.609375 72.90625 
L 47.609375 25.390625 
L 58.015625 25.390625 
L 58.015625 17.1875 
L 47.609375 17.1875 
L 47.609375 0 
L 37.796875 0 
L 37.796875 17.1875 
L 4.890625 17.1875 
L 4.890625 26.703125 
z
" id="DejaVuSans-52"/>
       </defs>
       <use xlink:href="#DejaVuSans-52"/>
       <use x="63.623047" xlink:href="#DejaVuSans-48"/>
      </g>
     </g>
    </g>
    <g id="xtick_5">
     <g id="line2d_5">
      <g>
       <use style="stroke:#000000;stroke-width:0.8;" x="224.084958" xlink:href="#ma5fb89f2ec" y="277.111219"/>
      </g>
     </g>
     <g id="text_5">
      <!-- 60 -->
      <g transform="translate(217.722458 291.709656)scale(0.1 -0.1)">
       <defs>
        <path d="M 33.015625 40.375 
Q 26.375 40.375 22.484375 35.828125 
Q 18.609375 31.296875 18.609375 23.390625 
Q 18.609375 15.53125 22.484375 10.953125 
Q 26.375 6.390625 33.015625 6.390625 
Q 39.65625 6.390625 43.53125 10.953125 
Q 47.40625 15.53125 47.40625 23.390625 
Q 47.40625 31.296875 43.53125 35.828125 
Q 39.65625 40.375 33.015625 40.375 
z
M 52.59375 71.296875 
L 52.59375 62.3125 
Q 48.875 64.0625 45.09375 64.984375 
Q 41.3125 65.921875 37.59375 65.921875 
Q 27.828125 65.921875 22.671875 59.328125 
Q 17.53125 52.734375 16.796875 39.40625 
Q 19.671875 43.65625 24.015625 45.921875 
Q 28.375 48.1875 33.59375 48.1875 
Q 44.578125 48.1875 50.953125 41.515625 
Q 57.328125 34.859375 57.328125 23.390625 
Q 57.328125 12.15625 50.6875 5.359375 
Q 44.046875 -1.421875 33.015625 -1.421875 
Q 20.359375 -1.421875 13.671875 8.265625 
Q 6.984375 17.96875 6.984375 36.375 
Q 6.984375 53.65625 15.1875 63.9375 
Q 23.390625 74.21875 37.203125 74.21875 
Q 40.921875 74.21875 44.703125 73.484375 
Q 48.484375 72.75 52.59375 71.296875 
z
" id="DejaVuSans-54"/>
       </defs>
       <use xlink:href="#DejaVuSans-54"/>
       <use x="63.623047" xlink:href="#DejaVuSans-48"/>
      </g>
     </g>
    </g>
    <g id="xtick_6">
     <g id="line2d_6">
      <g>
       <use style="stroke:#000000;stroke-width:0.8;" x="266.099076" xlink:href="#ma5fb89f2ec" y="277.111219"/>
      </g>
     </g>
     <g id="text_6">
      <!-- 80 -->
      <g transform="translate(259.736576 291.709656)scale(0.1 -0.1)">
       <defs>
        <path d="M 31.78125 34.625 
Q 24.75 34.625 20.71875 30.859375 
Q 16.703125 27.09375 16.703125 20.515625 
Q 16.703125 13.921875 20.71875 10.15625 
Q 24.75 6.390625 31.78125 6.390625 
Q 38.8125 6.390625 42.859375 10.171875 
Q 46.921875 13.96875 46.921875 20.515625 
Q 46.921875 27.09375 42.890625 30.859375 
Q 38.875 34.625 31.78125 34.625 
z
M 21.921875 38.8125 
Q 15.578125 40.375 12.03125 44.71875 
Q 8.5 49.078125 8.5 55.328125 
Q 8.5 64.0625 14.71875 69.140625 
Q 20.953125 74.21875 31.78125 74.21875 
Q 42.671875 74.21875 48.875 69.140625 
Q 55.078125 64.0625 55.078125 55.328125 
Q 55.078125 49.078125 51.53125 44.71875 
Q 48 40.375 41.703125 38.8125 
Q 48.828125 37.15625 52.796875 32.3125 
Q 56.78125 27.484375 56.78125 20.515625 
Q 56.78125 9.90625 50.3125 4.234375 
Q 43.84375 -1.421875 31.78125 -1.421875 
Q 19.734375 -1.421875 13.25 4.234375 
Q 6.78125 9.90625 6.78125 20.515625 
Q 6.78125 27.484375 10.78125 32.3125 
Q 14.796875 37.15625 21.921875 38.8125 
z
M 18.3125 54.390625 
Q 18.3125 48.734375 21.84375 45.5625 
Q 25.390625 42.390625 31.78125 42.390625 
Q 38.140625 42.390625 41.71875 45.5625 
Q 45.3125 48.734375 45.3125 54.390625 
Q 45.3125 60.0625 41.71875 63.234375 
Q 38.140625 66.40625 31.78125 66.40625 
Q 25.390625 66.40625 21.84375 63.234375 
Q 18.3125 60.0625 18.3125 54.390625 
z
" id="DejaVuSans-56"/>
       </defs>
       <use xlink:href="#DejaVuSans-56"/>
       <use x="63.623047" xlink:href="#DejaVuSans-48"/>
      </g>
     </g>
    </g>
    <g id="xtick_7">
     <g id="line2d_7">
      <g>
       <use style="stroke:#000000;stroke-width:0.8;" x="308.113193" xlink:href="#ma5fb89f2ec" y="277.111219"/>
      </g>
     </g>
     <g id="text_7">
      <!-- 100 -->
      <g transform="translate(298.569443 291.709656)scale(0.1 -0.1)">
       <defs>
        <path d="M 12.40625 8.296875 
L 28.515625 8.296875 
L 28.515625 63.921875 
L 10.984375 60.40625 
L 10.984375 69.390625 
L 28.421875 72.90625 
L 38.28125 72.90625 
L 38.28125 8.296875 
L 54.390625 8.296875 
L 54.390625 0 
L 12.40625 0 
z
" id="DejaVuSans-49"/>
       </defs>
       <use xlink:href="#DejaVuSans-49"/>
       <use x="63.623047" xlink:href="#DejaVuSans-48"/>
       <use x="127.246094" xlink:href="#DejaVuSans-48"/>
      </g>
     </g>
    </g>
    <g id="xtick_8">
     <g id="line2d_8">
      <g>
       <use style="stroke:#000000;stroke-width:0.8;" x="350.127311" xlink:href="#ma5fb89f2ec" y="277.111219"/>
      </g>
     </g>
     <g id="text_8">
      <!-- 120 -->
      <g transform="translate(340.583561 291.709656)scale(0.1 -0.1)">
       <use xlink:href="#DejaVuSans-49"/>
       <use x="63.623047" xlink:href="#DejaVuSans-50"/>
       <use x="127.246094" xlink:href="#DejaVuSans-48"/>
      </g>
     </g>
    </g>
    <g id="xtick_9">
     <g id="line2d_9">
      <g>
       <use style="stroke:#000000;stroke-width:0.8;" x="392.141429" xlink:href="#ma5fb89f2ec" y="277.111219"/>
      </g>
     </g>
     <g id="text_9">
      <!-- 140 -->
      <g transform="translate(382.597679 291.709656)scale(0.1 -0.1)">
       <use xlink:href="#DejaVuSans-49"/>
       <use x="63.623047" xlink:href="#DejaVuSans-52"/>
       <use x="127.246094" xlink:href="#DejaVuSans-48"/>
      </g>
     </g>
    </g>
    <g id="text_10">
     <!-- 1st PC: 84.40 % -->
     <g transform="translate(165.868088 310.919444)scale(0.1728 -0.1728)">
      <defs>
       <path d="M 44.28125 53.078125 
L 44.28125 44.578125 
Q 40.484375 46.53125 36.375 47.5 
Q 32.28125 48.484375 27.875 48.484375 
Q 21.1875 48.484375 17.84375 46.4375 
Q 14.5 44.390625 14.5 40.28125 
Q 14.5 37.15625 16.890625 35.375 
Q 19.28125 33.59375 26.515625 31.984375 
L 29.59375 31.296875 
Q 39.15625 29.25 43.1875 25.515625 
Q 47.21875 21.78125 47.21875 15.09375 
Q 47.21875 7.46875 41.1875 3.015625 
Q 35.15625 -1.421875 24.609375 -1.421875 
Q 20.21875 -1.421875 15.453125 -0.5625 
Q 10.6875 0.296875 5.421875 2 
L 5.421875 11.28125 
Q 10.40625 8.6875 15.234375 7.390625 
Q 20.0625 6.109375 24.8125 6.109375 
Q 31.15625 6.109375 34.5625 8.28125 
Q 37.984375 10.453125 37.984375 14.40625 
Q 37.984375 18.0625 35.515625 20.015625 
Q 33.0625 21.96875 24.703125 23.78125 
L 21.578125 24.515625 
Q 13.234375 26.265625 9.515625 29.90625 
Q 5.8125 33.546875 5.8125 39.890625 
Q 5.8125 47.609375 11.28125 51.796875 
Q 16.75 56 26.8125 56 
Q 31.78125 56 36.171875 55.265625 
Q 40.578125 54.546875 44.28125 53.078125 
z
" id="DejaVuSans-115"/>
       <path d="M 18.3125 70.21875 
L 18.3125 54.6875 
L 36.8125 54.6875 
L 36.8125 47.703125 
L 18.3125 47.703125 
L 18.3125 18.015625 
Q 18.3125 11.328125 20.140625 9.421875 
Q 21.96875 7.515625 27.59375 7.515625 
L 36.8125 7.515625 
L 36.8125 0 
L 27.59375 0 
Q 17.1875 0 13.234375 3.875 
Q 9.28125 7.765625 9.28125 18.015625 
L 9.28125 47.703125 
L 2.6875 47.703125 
L 2.6875 54.6875 
L 9.28125 54.6875 
L 9.28125 70.21875 
z
" id="DejaVuSans-116"/>
       <path id="DejaVuSans-32"/>
       <path d="M 19.671875 64.796875 
L 19.671875 37.40625 
L 32.078125 37.40625 
Q 38.96875 37.40625 42.71875 40.96875 
Q 46.484375 44.53125 46.484375 51.125 
Q 46.484375 57.671875 42.71875 61.234375 
Q 38.96875 64.796875 32.078125 64.796875 
z
M 9.8125 72.90625 
L 32.078125 72.90625 
Q 44.34375 72.90625 50.609375 67.359375 
Q 56.890625 61.8125 56.890625 51.125 
Q 56.890625 40.328125 50.609375 34.8125 
Q 44.34375 29.296875 32.078125 29.296875 
L 19.671875 29.296875 
L 19.671875 0 
L 9.8125 0 
z
" id="DejaVuSans-80"/>
       <path d="M 64.40625 67.28125 
L 64.40625 56.890625 
Q 59.421875 61.53125 53.78125 63.8125 
Q 48.140625 66.109375 41.796875 66.109375 
Q 29.296875 66.109375 22.65625 58.46875 
Q 16.015625 50.828125 16.015625 36.375 
Q 16.015625 21.96875 22.65625 14.328125 
Q 29.296875 6.6875 41.796875 6.6875 
Q 48.140625 6.6875 53.78125 8.984375 
Q 59.421875 11.28125 64.40625 15.921875 
L 64.40625 5.609375 
Q 59.234375 2.09375 53.4375 0.328125 
Q 47.65625 -1.421875 41.21875 -1.421875 
Q 24.65625 -1.421875 15.125 8.703125 
Q 5.609375 18.84375 5.609375 36.375 
Q 5.609375 53.953125 15.125 64.078125 
Q 24.65625 74.21875 41.21875 74.21875 
Q 47.75 74.21875 53.53125 72.484375 
Q 59.328125 70.75 64.40625 67.28125 
z
" id="DejaVuSans-67"/>
       <path d="M 11.71875 12.40625 
L 22.015625 12.40625 
L 22.015625 0 
L 11.71875 0 
z
M 11.71875 51.703125 
L 22.015625 51.703125 
L 22.015625 39.3125 
L 11.71875 39.3125 
z
" id="DejaVuSans-58"/>
       <path d="M 10.6875 12.40625 
L 21 12.40625 
L 21 0 
L 10.6875 0 
z
" id="DejaVuSans-46"/>
       <path d="M 72.703125 32.078125 
Q 68.453125 32.078125 66.03125 28.46875 
Q 63.625 24.859375 63.625 18.40625 
Q 63.625 12.0625 66.03125 8.421875 
Q 68.453125 4.78125 72.703125 4.78125 
Q 76.859375 4.78125 79.265625 8.421875 
Q 81.6875 12.0625 81.6875 18.40625 
Q 81.6875 24.8125 79.265625 28.4375 
Q 76.859375 32.078125 72.703125 32.078125 
z
M 72.703125 38.28125 
Q 80.421875 38.28125 84.953125 32.90625 
Q 89.5 27.546875 89.5 18.40625 
Q 89.5 9.28125 84.9375 3.921875 
Q 80.375 -1.421875 72.703125 -1.421875 
Q 64.890625 -1.421875 60.34375 3.921875 
Q 55.8125 9.28125 55.8125 18.40625 
Q 55.8125 27.59375 60.375 32.9375 
Q 64.9375 38.28125 72.703125 38.28125 
z
M 22.3125 68.015625 
Q 18.109375 68.015625 15.6875 64.375 
Q 13.28125 60.75 13.28125 54.390625 
Q 13.28125 47.953125 15.671875 44.328125 
Q 18.0625 40.71875 22.3125 40.71875 
Q 26.5625 40.71875 28.96875 44.328125 
Q 31.390625 47.953125 31.390625 54.390625 
Q 31.390625 60.6875 28.953125 64.34375 
Q 26.515625 68.015625 22.3125 68.015625 
z
M 66.40625 74.21875 
L 74.21875 74.21875 
L 28.609375 -1.421875 
L 20.796875 -1.421875 
z
M 22.3125 74.21875 
Q 30.03125 74.21875 34.609375 68.875 
Q 39.203125 63.53125 39.203125 54.390625 
Q 39.203125 45.171875 34.640625 39.84375 
Q 30.078125 34.515625 22.3125 34.515625 
Q 14.546875 34.515625 10.03125 39.859375 
Q 5.515625 45.21875 5.515625 54.390625 
Q 5.515625 63.484375 10.046875 68.84375 
Q 14.59375 74.21875 22.3125 74.21875 
z
" id="DejaVuSans-37"/>
      </defs>
      <use xlink:href="#DejaVuSans-49"/>
      <use x="63.623047" xlink:href="#DejaVuSans-115"/>
      <use x="115.722656" xlink:href="#DejaVuSans-116"/>
      <use x="154.931641" xlink:href="#DejaVuSans-32"/>
      <use x="186.71875" xlink:href="#DejaVuSans-80"/>
      <use x="247.021484" xlink:href="#DejaVuSans-67"/>
      <use x="316.845703" xlink:href="#DejaVuSans-58"/>
      <use x="350.537109" xlink:href="#DejaVuSans-32"/>
      <use x="382.324219" xlink:href="#DejaVuSans-56"/>
      <use x="445.947266" xlink:href="#DejaVuSans-52"/>
      <use x="509.570312" xlink:href="#DejaVuSans-46"/>
      <use x="541.357422" xlink:href="#DejaVuSans-52"/>
      <use x="604.980469" xlink:href="#DejaVuSans-48"/>
      <use x="668.603516" xlink:href="#DejaVuSans-32"/>
      <use x="700.390625" xlink:href="#DejaVuSans-37"/>
     </g>
    </g>
   </g>
   <g id="matplotlib.axis_2">
    <g id="ytick_1">
     <g id="line2d_10">
      <defs>
       <path d="M 0 0 
L -3.5 0 
" id="md78d037c55" style="stroke:#000000;stroke-width:0.8;"/>
      </defs>
      <g>
       <use style="stroke:#000000;stroke-width:0.8;" x="56.028488" xlink:href="#md78d037c55" y="277.111219"/>
      </g>
     </g>
     <g id="text_11">
      <!-- −20 -->
      <g transform="translate(27.9238 280.910437)scale(0.1 -0.1)">
       <use xlink:href="#DejaVuSans-8722"/>
       <use x="83.789062" xlink:href="#DejaVuSans-50"/>
       <use x="147.412109" xlink:href="#DejaVuSans-48"/>
      </g>
     </g>
    </g>
    <g id="ytick_2">
     <g id="line2d_11">
      <g>
       <use style="stroke:#000000;stroke-width:0.8;" x="56.028488" xlink:href="#md78d037c55" y="243.847219"/>
      </g>
     </g>
     <g id="text_12">
      <!-- −15 -->
      <g transform="translate(27.9238 247.646437)scale(0.1 -0.1)">
       <defs>
        <path d="M 10.796875 72.90625 
L 49.515625 72.90625 
L 49.515625 64.59375 
L 19.828125 64.59375 
L 19.828125 46.734375 
Q 21.96875 47.46875 24.109375 47.828125 
Q 26.265625 48.1875 28.421875 48.1875 
Q 40.625 48.1875 47.75 41.5 
Q 54.890625 34.8125 54.890625 23.390625 
Q 54.890625 11.625 47.5625 5.09375 
Q 40.234375 -1.421875 26.90625 -1.421875 
Q 22.3125 -1.421875 17.546875 -0.640625 
Q 12.796875 0.140625 7.71875 1.703125 
L 7.71875 11.625 
Q 12.109375 9.234375 16.796875 8.0625 
Q 21.484375 6.890625 26.703125 6.890625 
Q 35.15625 6.890625 40.078125 11.328125 
Q 45.015625 15.765625 45.015625 23.390625 
Q 45.015625 31 40.078125 35.4375 
Q 35.15625 39.890625 26.703125 39.890625 
Q 22.75 39.890625 18.8125 39.015625 
Q 14.890625 38.140625 10.796875 36.28125 
z
" id="DejaVuSans-53"/>
       </defs>
       <use xlink:href="#DejaVuSans-8722"/>
       <use x="83.789062" xlink:href="#DejaVuSans-49"/>
       <use x="147.412109" xlink:href="#DejaVuSans-53"/>
      </g>
     </g>
    </g>
    <g id="ytick_3">
     <g id="line2d_12">
      <g>
       <use style="stroke:#000000;stroke-width:0.8;" x="56.028488" xlink:href="#md78d037c55" y="210.583219"/>
      </g>
     </g>
     <g id="text_13">
      <!-- −10 -->
      <g transform="translate(27.9238 214.382437)scale(0.1 -0.1)">
       <use xlink:href="#DejaVuSans-8722"/>
       <use x="83.789062" xlink:href="#DejaVuSans-49"/>
       <use x="147.412109" xlink:href="#DejaVuSans-48"/>
      </g>
     </g>
    </g>
    <g id="ytick_4">
     <g id="line2d_13">
      <g>
       <use style="stroke:#000000;stroke-width:0.8;" x="56.028488" xlink:href="#md78d037c55" y="177.319219"/>
      </g>
     </g>
     <g id="text_14">
      <!-- −5 -->
      <g transform="translate(34.2863 181.118437)scale(0.1 -0.1)">
       <use xlink:href="#DejaVuSans-8722"/>
       <use x="83.789062" xlink:href="#DejaVuSans-53"/>
      </g>
     </g>
    </g>
    <g id="ytick_5">
     <g id="line2d_14">
      <g>
       <use style="stroke:#000000;stroke-width:0.8;" x="56.028488" xlink:href="#md78d037c55" y="144.055219"/>
      </g>
     </g>
     <g id="text_15">
      <!-- 0 -->
      <g transform="translate(42.665987 147.854437)scale(0.1 -0.1)">
       <use xlink:href="#DejaVuSans-48"/>
      </g>
     </g>
    </g>
    <g id="ytick_6">
     <g id="line2d_15">
      <g>
       <use style="stroke:#000000;stroke-width:0.8;" x="56.028488" xlink:href="#md78d037c55" y="110.791219"/>
      </g>
     </g>
     <g id="text_16">
      <!-- 5 -->
      <g transform="translate(42.665987 114.590437)scale(0.1 -0.1)">
       <use xlink:href="#DejaVuSans-53"/>
      </g>
     </g>
    </g>
    <g id="ytick_7">
     <g id="line2d_16">
      <g>
       <use style="stroke:#000000;stroke-width:0.8;" x="56.028488" xlink:href="#md78d037c55" y="77.527219"/>
      </g>
     </g>
     <g id="text_17">
      <!-- 10 -->
      <g transform="translate(36.303488 81.326437)scale(0.1 -0.1)">
       <use xlink:href="#DejaVuSans-49"/>
       <use x="63.623047" xlink:href="#DejaVuSans-48"/>
      </g>
     </g>
    </g>
    <g id="ytick_8">
     <g id="line2d_17">
      <g>
       <use style="stroke:#000000;stroke-width:0.8;" x="56.028488" xlink:href="#md78d037c55" y="44.263219"/>
      </g>
     </g>
     <g id="text_18">
      <!-- 15 -->
      <g transform="translate(36.303488 48.062437)scale(0.1 -0.1)">
       <use xlink:href="#DejaVuSans-49"/>
       <use x="63.623047" xlink:href="#DejaVuSans-53"/>
      </g>
     </g>
    </g>
    <g id="ytick_9">
     <g id="line2d_18">
      <g>
       <use style="stroke:#000000;stroke-width:0.8;" x="56.028488" xlink:href="#md78d037c55" y="10.999219"/>
      </g>
     </g>
     <g id="text_19">
      <!-- 20 -->
      <g transform="translate(36.303488 14.798437)scale(0.1 -0.1)">
       <use xlink:href="#DejaVuSans-50"/>
       <use x="63.623047" xlink:href="#DejaVuSans-48"/>
      </g>
     </g>
    </g>
    <g id="text_20">
     <!-- 2nd PC: 13.46 % -->
     <g transform="translate(20.3301 215.848219)rotate(-90)scale(0.1728 -0.1728)">
      <defs>
       <path d="M 54.890625 33.015625 
L 54.890625 0 
L 45.90625 0 
L 45.90625 32.71875 
Q 45.90625 40.484375 42.875 44.328125 
Q 39.84375 48.1875 33.796875 48.1875 
Q 26.515625 48.1875 22.3125 43.546875 
Q 18.109375 38.921875 18.109375 30.90625 
L 18.109375 0 
L 9.078125 0 
L 9.078125 54.6875 
L 18.109375 54.6875 
L 18.109375 46.1875 
Q 21.34375 51.125 25.703125 53.5625 
Q 30.078125 56 35.796875 56 
Q 45.21875 56 50.046875 50.171875 
Q 54.890625 44.34375 54.890625 33.015625 
z
" id="DejaVuSans-110"/>
       <path d="M 45.40625 46.390625 
L 45.40625 75.984375 
L 54.390625 75.984375 
L 54.390625 0 
L 45.40625 0 
L 45.40625 8.203125 
Q 42.578125 3.328125 38.25 0.953125 
Q 33.9375 -1.421875 27.875 -1.421875 
Q 17.96875 -1.421875 11.734375 6.484375 
Q 5.515625 14.40625 5.515625 27.296875 
Q 5.515625 40.1875 11.734375 48.09375 
Q 17.96875 56 27.875 56 
Q 33.9375 56 38.25 53.625 
Q 42.578125 51.265625 45.40625 46.390625 
z
M 14.796875 27.296875 
Q 14.796875 17.390625 18.875 11.75 
Q 22.953125 6.109375 30.078125 6.109375 
Q 37.203125 6.109375 41.296875 11.75 
Q 45.40625 17.390625 45.40625 27.296875 
Q 45.40625 37.203125 41.296875 42.84375 
Q 37.203125 48.484375 30.078125 48.484375 
Q 22.953125 48.484375 18.875 42.84375 
Q 14.796875 37.203125 14.796875 27.296875 
z
" id="DejaVuSans-100"/>
       <path d="M 40.578125 39.3125 
Q 47.65625 37.796875 51.625 33 
Q 55.609375 28.21875 55.609375 21.1875 
Q 55.609375 10.40625 48.1875 4.484375 
Q 40.765625 -1.421875 27.09375 -1.421875 
Q 22.515625 -1.421875 17.65625 -0.515625 
Q 12.796875 0.390625 7.625 2.203125 
L 7.625 11.71875 
Q 11.71875 9.328125 16.59375 8.109375 
Q 21.484375 6.890625 26.8125 6.890625 
Q 36.078125 6.890625 40.9375 10.546875 
Q 45.796875 14.203125 45.796875 21.1875 
Q 45.796875 27.640625 41.28125 31.265625 
Q 36.765625 34.90625 28.71875 34.90625 
L 20.21875 34.90625 
L 20.21875 43.015625 
L 29.109375 43.015625 
Q 36.375 43.015625 40.234375 45.921875 
Q 44.09375 48.828125 44.09375 54.296875 
Q 44.09375 59.90625 40.109375 62.90625 
Q 36.140625 65.921875 28.71875 65.921875 
Q 24.65625 65.921875 20.015625 65.03125 
Q 15.375 64.15625 9.8125 62.3125 
L 9.8125 71.09375 
Q 15.4375 72.65625 20.34375 73.4375 
Q 25.25 74.21875 29.59375 74.21875 
Q 40.828125 74.21875 47.359375 69.109375 
Q 53.90625 64.015625 53.90625 55.328125 
Q 53.90625 49.265625 50.4375 45.09375 
Q 46.96875 40.921875 40.578125 39.3125 
z
" id="DejaVuSans-51"/>
      </defs>
      <use xlink:href="#DejaVuSans-50"/>
      <use x="63.623047" xlink:href="#DejaVuSans-110"/>
      <use x="127.001953" xlink:href="#DejaVuSans-100"/>
      <use x="190.478516" xlink:href="#DejaVuSans-32"/>
      <use x="222.265625" xlink:href="#DejaVuSans-80"/>
      <use x="282.568359" xlink:href="#DejaVuSans-67"/>
      <use x="352.392578" xlink:href="#DejaVuSans-58"/>
      <use x="386.083984" xlink:href="#DejaVuSans-32"/>
      <use x="417.871094" xlink:href="#DejaVuSans-49"/>
      <use x="481.494141" xlink:href="#DejaVuSans-51"/>
      <use x="545.117188" xlink:href="#DejaVuSans-46"/>
      <use x="576.904297" xlink:href="#DejaVuSans-52"/>
      <use x="640.527344" xlink:href="#DejaVuSans-54"/>
      <use x="704.150391" xlink:href="#DejaVuSans-32"/>
      <use x="735.9375" xlink:href="#DejaVuSans-37"/>
     </g>
    </g>
   </g>
   <g id="LineCollection_1"/>
   <g id="LineCollection_2"/>
   <g id="LineCollection_3"/>
   <g id="LineCollection_4"/>
   <g id="LineCollection_5">
    <path clip-path="url(#pe0573136b7)" d="M 100.143311 162.25931 
L 99.964192 161.796019 
L 95.241664 153.857613 
L 95.211378 152.925619 
L 95.241664 149.235526 
L 98.867181 144.055219 
L 100.143311 143.688786 
L 100.450295 144.055219 
L 100.588306 152.925619 
L 100.284182 161.796019 
L 100.143311 162.25931 
" style="fill:none;stroke:#404688;stroke-width:1.5;"/>
   </g>
   <g id="LineCollection_6">
    <path clip-path="url(#pe0573136b7)" d="M 119.749899 206.150516 
L 119.731315 206.148019 
L 119.749899 205.873502 
L 119.761742 206.148019 
L 119.749899 206.150516 
" style="fill:none;stroke:#39558c;stroke-width:1.5;"/>
    <path clip-path="url(#pe0573136b7)" d="M 104.954649 124.178945 
L 105.044958 123.627185 
L 108.439646 117.444019 
L 109.505637 108.573619 
L 109.767165 99.703219 
L 109.873732 90.832819 
L 109.93984 81.962419 
L 109.946605 76.080224 
L 111.873341 73.092019 
L 114.848252 68.356935 
L 119.749899 69.046723 
L 124.651546 72.229046 
L 129.553193 69.572219 
L 132.051454 73.092019 
L 134.45484 77.003363 
L 135.507191 81.962419 
L 137.217223 90.832819 
L 138.690666 99.703219 
L 139.356488 103.657564 
L 139.794979 108.573619 
L 141.076862 117.444019 
L 142.865599 126.314419 
L 144.258135 132.902611 
L 144.618707 135.184819 
L 145.558618 144.055219 
L 145.443822 152.925619 
L 144.258135 157.670339 
L 142.278215 161.796019 
L 139.356488 164.787788 
L 134.45484 168.253431 
L 129.553193 168.747831 
L 124.651546 166.722292 
L 119.749899 164.224727 
L 114.848252 163.101454 
L 109.946605 166.707786 
L 109.061265 170.666419 
L 107.798035 179.536819 
L 108.02523 188.407219 
L 105.044958 190.827513 
L 104.632116 188.407219 
L 102.866025 179.536819 
L 100.143311 177.031871 
L 98.502459 170.666419 
L 95.241664 164.366112 
L 94.893826 161.796019 
L 94.609109 152.925619 
L 94.600017 146.497248 
" style="fill:none;stroke:#39558c;stroke-width:1.5;"/>
   </g>
   <g id="LineCollection_7">
    <path clip-path="url(#pe0573136b7)" d="M 142.605975 74.122091 
L 144.130588 81.962419 
L 144.258135 82.985927 
L 144.813733 90.832819 
L 145.695623 99.703219 
L 147.218932 108.573619 
L 149.159782 115.18175 
L 149.945112 117.444019 
L 153.31048 126.314419 
L 154.061429 128.431241 
L 157.351941 135.184819 
L 158.963076 139.912991 
L 160.518047 144.055219 
L 162.113141 152.925619 
L 161.837504 161.796019 
L 158.963076 170.039734 
L 158.697985 170.666419 
L 154.061429 175.769318 
L 150.372564 179.536819 
L 149.159782 180.326441 
L 144.258135 183.738281 
L 139.356488 187.10915 
L 137.953363 188.407219 
L 134.45484 191.047432 
L 130.15884 197.277619 
L 129.553193 198.995225 
L 128.004167 206.148019 
L 124.651546 214.674896 
L 119.749899 209.316747 
L 114.848252 207.90114 
L 110.771026 206.148019 
L 109.946605 204.83686 
L 105.044958 198.270214 
L 104.633355 197.277619 
L 102.659336 188.407219 
L 100.143311 182.744631 
L 99.591744 179.536819 
L 96.175674 170.666419 
L 95.241664 168.861782 
L 94.28538 161.796019 
L 94.00684 152.925619 
L 93.902464 144.055219 
L 95.241664 137.800459 
L 97.015 135.184819 
L 100.143311 132.291445 
L 103.472769 126.314419 
L 105.022791 117.444019 
L 105.044958 117.136963 
L 108.380188 108.573619 
L 109.292726 99.703219 
L 109.672207 90.832819 
L 109.915851 81.962419 
L 109.943316 73.092019 
L 109.946605 72.889688 
L 114.742822 64.221619 
L 114.848252 63.145385 
L 119.749899 56.483418 
L 120.998431 55.351219 
L 124.651546 49.008105 
L 125.930735 46.480819 
L 129.096115 37.610419 
L 129.553193 37.511801 
L 129.863891 37.610419 
L 132.30324 46.480819 
L 134.45484 50.337347 
L 134.466889 50.364918 
" style="fill:none;stroke:#33638d;stroke-width:1.5;"/>
   </g>
   <g id="LineCollection_8">
    <path clip-path="url(#pe0573136b7)" d="M 96.820726 175.13282 
L 95.241664 171.668874 
L 94.79197 170.666419 
L 93.676934 161.796019 
L 93.404572 152.925619 
L 93.208365 144.055219 
L 95.121307 135.184819 
L 95.241664 135.069835 
L 100.143311 130.258646 
L 102.340413 126.314419 
L 104.814177 117.444019 
L 105.044958 114.247325 
L 107.254738 108.573619 
L 108.818288 99.703219 
L 109.470682 90.832819 
L 109.891862 81.962419 
L 109.939477 73.092019 
L 109.946605 72.653521 
L 114.612146 64.221619 
L 114.848252 61.811444 
L 119.006634 55.351219 
L 119.749899 52.171206 
L 122.923599 46.480819 
L 124.146595 37.610419 
L 124.651546 33.932207 
L 129.553193 32.835375 
L 134.45484 37.100541 
L 134.864226 37.610419 
L 139.356488 45.901476 
L 140.670366 46.480819 
L 144.258135 54.806196 
L 144.388258 55.351219 
L 147.273714 64.221619 
L 148.158987 73.092019 
L 148.604673 81.962419 
L 148.455442 90.832819 
L 149.159782 97.028361 
L 149.44448 99.703219 
L 151.547974 108.573619 
L 154.061429 114.629425 
L 155.985951 117.444019 
L 158.963076 122.389114 
L 163.409719 126.314419 
L 163.864723 126.967666 
L 168.76637 133.590551 
L 169.584589 135.184819 
L 172.172651 144.055219 
L 173.594948 152.925619 
L 173.668017 156.699517 
L 173.740798 161.796019 
L 173.668017 162.327294 
L 171.997457 170.666419 
L 168.76637 176.51339 
L 166.574556 179.536819 
L 163.864723 181.505009 
L 158.963076 185.133965 
L 154.061429 188.243598 
L 153.836814 188.407219 
L 149.159782 190.617186 
L 144.258135 193.285141 
L 139.356488 196.526897 
L 138.611489 197.277619 
L 134.45484 201.43902 
L 132.320252 206.148019 
L 131.124959 215.018419 
L 129.553193 216.956275 
L 124.651546 216.084875 
L 121.962968 215.018419 
L 119.749899 212.482978 
L 114.848252 210.112602 
L 109.946605 207.485971 
L 108.717971 206.148019 
L 105.044958 200.514405 
L 104.427831 199.026181 
" style="fill:none;stroke:#2d718e;stroke-width:1.5;"/>
   </g>
   <g id="LineCollection_9">
    <path clip-path="url(#pe0573136b7)" d="M 180.027242 152.627489 
L 180.057592 152.925619 
L 180.472562 161.796019 
L 179.951748 170.666419 
L 178.569664 176.550383 
L 177.488519 179.536819 
L 173.668017 185.29093 
L 170.111203 188.407219 
L 168.76637 189.166093 
L 163.864723 191.275237 
L 158.963076 193.526865 
L 154.061429 195.352506 
L 150.068283 197.277619 
L 149.159782 197.60011 
L 144.258135 199.966579 
L 139.356488 203.013062 
L 136.825525 206.148019 
L 134.45484 210.957652 
L 133.510428 215.018419 
L 134.45484 220.958417 
L 134.756986 223.888819 
L 134.45484 224.092219 
L 133.83817 223.888819 
L 129.553193 219.897359 
L 124.651546 217.181111 
L 119.749899 215.174893 
L 119.061032 215.018419 
L 114.848252 212.324064 
L 109.946605 209.07933 
L 107.254799 206.148019 
L 105.044958 202.758596 
L 102.772143 197.277619 
L 100.143311 190.218114 
L 99.876905 188.407219 
L 98.064888 179.536819 
L 95.241664 173.343585 
L 94.040708 170.666419 
L 93.068488 161.796019 
L 92.802303 152.925619 
L 92.514265 144.055219 
L 94.498194 135.184819 
L 95.241664 134.474539 
L 100.143311 128.225847 
L 101.208058 126.314419 
L 104.605563 117.444019 
L 105.044958 111.357686 
L 106.129289 108.573619 
L 108.343849 99.703219 
L 109.269157 90.832819 
L 109.867873 81.962419 
L 109.935637 73.092019 
L 109.946605 72.417355 
L 114.481471 64.221619 
L 114.848252 60.477503 
L 118.14799 55.351219 
L 119.749899 48.497547 
L 120.874689 46.480819 
L 123.511388 37.610419 
L 124.651546 29.305184 
L 127.081375 28.740019 
L 129.553193 28.687953 
L 129.611689 28.740019 
L 134.45484 36.359865 
L 135.458921 37.610419 
L 139.356488 44.803888 
L 143.159558 46.480819 
L 144.258135 49.030054 
L 145.767309 55.351219 
L 149.159782 61.889579 
L 149.249822 64.221619 
L 149.402051 73.092019 
L 149.991448 81.962419 
L 152.67642 90.832819 
L 152.853955 99.703219 
L 154.061429 104.105473 
L 155.886469 108.573619 
L 158.963076 113.26631 
L 163.864723 116.748226 
L 165.702098 117.444019 
L 168.76637 119.341405 
L 173.668017 125.054679 
L 174.286386 126.314419 
L 174.89886 128.07612 
" style="fill:none;stroke:#287d8e;stroke-width:1.5;"/>
   </g>
   <g id="LineCollection_10">
    <path clip-path="url(#pe0573136b7)" d="M 120.706631 216.412566 
L 119.749899 215.960314 
L 115.603283 215.018419 
L 114.848252 214.535526 
L 109.946605 210.672688 
L 105.791628 206.148019 
L 105.044958 205.002787 
L 101.841537 197.277619 
L 100.143311 192.717177 
L 99.509261 188.407219 
L 97.30146 179.536819 
L 95.241664 175.018297 
L 93.289445 170.666419 
L 92.460041 161.796019 
L 92.200034 152.925619 
L 91.820166 144.055219 
L 93.87508 135.184819 
L 95.241664 133.879242 
L 100.120388 126.314419 
L 100.143311 126.28852 
L 104.396949 117.444019 
L 105.042813 108.573619 
L 105.044958 108.519514 
L 107.869411 99.703219 
L 109.067632 90.832819 
L 109.843884 81.962419 
L 109.931798 73.092019 
L 109.946605 72.181188 
L 114.350795 64.221619 
L 114.848252 59.143561 
L 117.289345 55.351219 
L 119.720174 46.480819 
L 119.749899 45.736164 
L 122.876182 37.610419 
L 124.606342 28.740019 
L 124.651546 28.20857 
L 129.553193 28.268933 
L 130.08246 28.740019 
L 134.45484 35.61919 
L 136.053616 37.610419 
L 139.356488 43.7063 
L 144.258135 46.307634 
L 144.36403 46.480819 
L 147.14636 55.351219 
L 149.159782 59.231714 
L 149.352442 64.221619 
L 149.694954 73.092019 
L 150.94211 81.962419 
L 154.061429 89.305765 
L 154.921843 90.832819 
L 156.590623 99.703219 
L 158.963076 105.07783 
L 162.246358 108.573619 
L 163.864723 109.903128 
L 168.76637 111.717282 
L 173.668017 115.339365 
L 174.982334 117.444019 
L 178.569664 124.549641 
L 179.09661 126.314419 
L 181.196367 135.184819 
L 182.998101 144.055219 
L 183.471311 147.258113 
L 184.045183 152.925619 
L 184.665715 161.796019 
L 184.749124 170.666419 
L 183.586114 179.536819 
L 183.471311 179.883326 
L 179.524004 188.407219 
L 178.569664 189.744861 
L 173.668017 194.748055 
L 168.76637 197.21436 
L 168.594474 197.277619 
L 163.864723 198.525042 
L 158.963076 199.966459 
L 154.061429 201.095847 
L 149.159782 202.791479 
L 144.258135 205.513532 
L 143.344642 206.148019 
L 139.356488 208.607288 
L 136.008429 215.018419 
L 136.090961 217.495484 
" style="fill:none;stroke:#238a8d;stroke-width:1.5;"/>
   </g>
   <g id="LineCollection_11">
    <path clip-path="url(#pe0573136b7)" d="M 133.961265 34.101961 
L 134.45484 34.878514 
L 136.648311 37.610419 
L 139.356488 42.608712 
L 144.258135 45.997635 
L 144.553582 46.480819 
L 148.525411 55.351219 
L 149.159782 56.57385 
L 149.455063 64.221619 
L 149.987857 73.092019 
L 151.892773 81.962419 
L 154.061429 87.067763 
L 156.18284 90.832819 
L 158.963076 98.357873 
L 160.663578 99.703219 
L 163.864723 103.95576 
L 168.76637 106.178796 
L 173.622026 108.573619 
L 173.668017 108.608308 
L 178.569664 116.737912 
L 178.831437 117.444019 
L 181.582657 126.314419 
L 183.471311 132.680653 
L 184.000082 135.184819 
L 185.411581 144.055219 
L 186.679343 152.925619 
L 187.767915 161.796019 
L 188.372958 169.911345 
L 188.416753 170.666419 
L 188.372958 172.17016 
L 187.982154 179.536819 
L 185.291305 188.407219 
L 183.471311 191.569304 
L 179.366715 197.277619 
L 178.569664 198.130946 
L 173.668017 201.89204 
L 168.76637 203.549881 
L 163.864723 204.293044 
L 158.963076 205.492664 
L 155.253456 206.148019 
L 154.061429 206.307864 
L 149.159782 207.653648 
L 144.258135 209.903341 
L 139.356488 213.531885 
L 138.580181 215.018419 
L 137.850968 223.888819 
L 134.45484 226.17504 
L 129.553193 224.281859 
L 128.89144 223.888819 
L 124.651546 219.373584 
L 119.749899 216.745735 
L 114.848252 215.596311 
L 113.321245 215.018419 
L 109.946605 212.266046 
L 105.044958 206.628218 
L 104.760211 206.148019 
L 100.910931 197.277619 
L 100.143311 195.21624 
L 99.141617 188.407219 
L 96.538033 179.536819 
L 95.241664 176.693009 
L 92.538182 170.666419 
L 91.851595 161.796019 
L 91.597765 152.925619 
L 91.126067 144.055219 
L 93.251966 135.184819 
L 95.241664 133.283945 
L 99.736468 126.314419 
L 100.143311 125.854754 
L 104.188335 117.444019 
L 104.984101 108.573619 
L 105.044958 107.038593 
L 107.394972 99.703219 
L 108.866107 90.832819 
L 109.819895 81.962419 
L 109.927958 73.092019 
L 109.946605 71.945021 
L 114.220119 64.221619 
L 114.848252 57.80962 
L 116.4307 55.351219 
L 119.65427 46.480819 
L 119.749899 44.085154 
L 121.418029 39.749398 
" style="fill:none;stroke:#1f968b;stroke-width:1.5;"/>
   </g>
   <g id="LineCollection_12">
    <path clip-path="url(#pe0573136b7)" d="M 188.228939 147.540934 
L 188.372958 148.371163 
L 188.980739 152.925619 
L 189.999557 161.796019 
L 190.830104 170.666419 
L 191.096175 179.536819 
L 189.867857 188.407219 
L 188.372958 192.097072 
L 185.384041 197.277619 
L 183.471311 199.724216 
L 178.569664 204.938492 
L 176.93122 206.148019 
L 173.668017 208.210812 
L 168.76637 209.3067 
L 163.864723 209.505606 
L 158.963076 210.106925 
L 154.061429 210.502494 
L 149.159782 211.913598 
L 144.258135 214.143696 
L 143.140147 215.018419 
L 139.418056 223.888819 
L 139.356488 225.76327 
L 134.45484 227.216451 
L 129.553193 224.893251 
L 127.862053 223.888819 
L 124.651546 220.46982 
L 119.749899 217.531156 
L 114.848252 216.335643 
L 111.367654 215.018419 
L 109.946605 213.859404 
L 105.044958 207.608835 
L 104.178729 206.148019 
L 100.143311 197.495968 
L 100.100859 197.277619 
L 98.773973 188.407219 
L 95.774605 179.536819 
L 95.241664 178.367721 
L 91.786919 170.666419 
L 91.243149 161.796019 
L 90.995496 152.925619 
L 90.431967 144.055219 
L 92.628852 135.184819 
L 95.241664 132.688649 
L 99.352548 126.314419 
L 100.143311 125.420987 
L 103.979722 117.444019 
L 104.925389 108.573619 
L 105.044958 105.557673 
L 106.920534 99.703219 
L 108.664582 90.832819 
L 109.795906 81.962419 
L 109.924119 73.092019 
L 109.946605 71.708855 
L 114.089443 64.221619 
L 114.848252 56.475679 
L 115.572056 55.351219 
L 119.588365 46.480819 
L 119.749899 42.434143 
L 121.605769 37.610419 
L 124.503354 28.740019 
L 124.651546 26.997781 
L 129.553193 27.430893 
L 131.024002 28.740019 
L 134.45484 34.137839 
L 137.243007 37.610419 
L 139.356488 41.511124 
L 144.258135 45.687635 
L 144.743135 46.480819 
L 149.159782 55.150301 
L 149.179469 55.351219 
L 149.557683 64.221619 
L 150.28076 73.092019 
L 152.843435 81.962419 
L 154.061429 84.82976 
L 157.443837 90.832819 
L 158.963076 94.944828 
L 163.864723 99.187927 
L 165.598677 99.703219 
L 168.76637 101.777472 
L 173.668017 104.493226 
L 176.554252 108.573619 
L 178.569664 111.920326 
L 180.617447 117.444019 
L 182.670082 122.990003 
" style="fill:none;stroke:#20a386;stroke-width:1.5;"/>
   </g>
   <g id="LineCollection_13">
    <path clip-path="url(#pe0573136b7)" d="M 183.138582 119.430242 
L 183.471311 120.329237 
L 185.164042 126.314419 
L 187.539027 135.184819 
L 188.372958 138.874819 
L 189.293251 144.055219 
L 190.682934 152.925619 
L 192.020269 161.796019 
L 193.243455 170.666419 
L 193.274605 171.069461 
L 193.7865 179.536819 
L 193.510725 188.407219 
L 193.274605 189.658413 
L 190.434854 197.277619 
L 188.372958 200.355745 
L 183.844992 206.148019 
L 183.471311 206.550166 
L 178.569664 211.306018 
L 173.668017 214.040141 
L 168.76637 214.669222 
L 163.864723 214.454859 
L 158.963076 214.598487 
L 154.061429 214.697125 
L 152.981797 215.018419 
L 149.159782 216.241558 
L 144.258135 218.721765 
L 141.714738 223.888819 
L 144.258135 229.187585 
L 146.402617 232.759219 
L 144.258135 233.328199 
L 139.356488 233.164512 
L 138.5118 232.759219 
L 134.45484 228.257861 
L 129.553193 225.504644 
L 126.832666 223.888819 
L 124.651546 221.566056 
L 119.749899 218.316576 
L 114.848252 217.074975 
L 109.946605 215.219741 
L 109.750933 215.018419 
L 105.044958 208.589452 
L 103.597246 206.148019 
L 100.143311 198.742683 
L 99.858466 197.277619 
L 98.406329 188.407219 
L 95.241664 179.837392 
L 95.050436 179.536819 
L 91.035656 170.666419 
L 90.634703 161.796019 
L 90.393227 152.925619 
L 90.340017 152.105747 
L 89.872344 144.055219 
L 90.340017 141.881864 
L 92.005738 135.184819 
L 95.241664 132.093352 
L 98.968628 126.314419 
L 100.143311 124.987221 
L 103.771108 117.444019 
L 104.866677 108.573619 
L 105.044958 104.076752 
L 106.446095 99.703219 
L 108.463057 90.832819 
L 109.771917 81.962419 
L 109.92028 73.092019 
L 109.946605 71.472688 
L 113.958768 64.221619 
L 114.847518 55.351219 
L 114.848252 55.331621 
L 119.52246 46.480819 
L 119.749899 40.783133 
L 120.970563 37.610419 
L 124.45186 28.740019 
L 124.651546 26.392387 
L 129.553193 27.011872 
L 131.494774 28.740019 
L 134.45484 33.397163 
L 137.837702 37.610419 
L 139.356488 40.413537 
L 144.258135 45.377636 
L 144.932687 46.480819 
L 149.159782 54.778227 
L 149.215928 55.351219 
L 149.660303 64.221619 
L 150.573663 73.092019 
L 153.794097 81.962419 
L 154.061429 82.591758 
L 158.704834 90.832819 
L 158.963076 91.531783 
L 163.864723 97.190458 
L 168.76637 98.713672 
L 170.126483 99.075426 
" style="fill:none;stroke:#29af7f;stroke-width:1.5;"/>
   </g>
   <g id="LineCollection_14">
    <path clip-path="url(#pe0573136b7)" d="M 144.640125 225.016182 
L 149.159782 232.273532 
L 149.426452 232.759219 
L 149.159782 232.822041 
L 144.258135 234.090438 
L 139.356488 233.614864 
L 137.573203 232.759219 
L 134.45484 229.299272 
L 129.553193 226.116036 
L 125.803279 223.888819 
L 124.651546 222.662292 
L 119.749899 219.101997 
L 114.848252 217.814307 
L 109.946605 215.958275 
L 109.033126 215.018419 
L 105.044958 209.570069 
L 103.015763 206.148019 
L 100.143311 199.989399 
L 99.616073 197.277619 
L 98.038685 188.407219 
L 95.241664 180.832962 
L 94.417045 179.536819 
L 90.340017 170.76729 
L 90.322188 170.666419 
L 90.188723 161.796019 
L 89.989119 152.925619 
L 89.333256 144.055219 
L 90.340017 139.37663 
L 91.382624 135.184819 
L 95.241664 131.498056 
L 98.584708 126.314419 
L 100.143311 124.553455 
L 103.562494 117.444019 
L 104.807965 108.573619 
L 105.044958 102.595832 
L 105.971657 99.703219 
L 108.261533 90.832819 
L 109.747928 81.962419 
L 109.91644 73.092019 
L 109.946605 71.236522 
L 113.828092 64.221619 
L 114.842843 55.351219 
L 114.848252 55.206828 
L 119.456556 46.480819 
L 119.749899 39.132123 
L 120.335357 37.610419 
L 124.400366 28.740019 
L 124.651546 25.786993 
L 129.553193 26.592852 
L 131.965545 28.740019 
L 134.45484 32.656488 
L 138.432397 37.610419 
L 139.356488 39.315949 
L 144.258135 45.067637 
L 145.122239 46.480819 
L 149.159782 54.406152 
L 149.252387 55.351219 
L 149.762924 64.221619 
L 150.866566 73.092019 
L 154.061429 81.414011 
L 154.286202 81.962419 
L 158.963076 90.384992 
L 160.271926 90.832819 
L 163.864723 95.192989 
L 168.76637 96.842086 
L 173.668017 98.140647 
L 175.244699 99.703219 
L 178.569664 104.789948 
L 180.179446 108.573619 
L 183.471311 116.282708 
L 183.875241 117.444019 
L 186.528819 126.314419 
L 188.372958 132.690131 
L 188.954118 135.184819 
L 190.684175 144.055219 
L 192.385129 152.925619 
L 193.274605 158.06552 
L 193.770212 161.796019 
L 194.818009 170.666419 
L 195.674246 179.536819 
L 195.851162 188.407219 
L 194.418245 197.277619 
L 193.274605 200.130484 
L 189.181147 206.148019 
L 188.372958 207.032219 
L 183.471311 212.355379 
L 180.877459 215.018419 
L 178.569664 217.507549 
L 173.668017 220.127217 
L 168.76637 220.558283 
L 166.559945 220.302512 
" style="fill:none;stroke:#3dbc74;stroke-width:1.5;"/>
   </g>
   <g id="LineCollection_15">
    <path clip-path="url(#pe0573136b7)" d="M 119.506688 43.610152 
L 119.749207 37.610419 
L 119.749899 37.602647 
L 124.348872 28.740019 
L 124.651546 25.181598 
L 129.553193 26.173832 
L 132.436316 28.740019 
L 134.45484 31.915812 
L 139.027092 37.610419 
L 139.356488 38.218361 
L 144.258135 44.757637 
L 145.311791 46.480819 
L 149.159782 54.034078 
L 149.288846 55.351219 
L 149.865544 64.221619 
L 151.159469 73.092019 
L 154.061429 80.651056 
L 154.598911 81.962419 
L 158.963076 89.821834 
L 161.917848 90.832819 
L 163.864723 93.19552 
L 168.76637 94.970499 
L 173.668017 96.262875 
L 177.139426 99.703219 
L 178.569664 101.891282 
L 181.412699 108.573619 
L 183.471311 113.394602 
L 184.87979 117.444019 
L 187.893595 126.314419 
L 188.372958 127.971711 
L 190.053318 135.184819 
L 192.075098 144.055219 
L 193.274605 149.764632 
L 193.785981 152.925619 
L 195.076985 161.796019 
L 196.381594 170.666419 
L 197.561993 179.536819 
L 198.176252 188.231996 
L 198.185649 188.407219 
L 198.176252 188.619665 
L 197.383772 197.277619 
L 193.948239 206.148019 
L 193.274605 207.175799 
L 188.372958 212.537801 
L 186.146264 215.018419 
L 183.471311 218.251052 
L 178.569664 223.606233 
L 178.045865 223.888819 
L 173.668017 227.438157 
L 168.76637 231.060217 
L 167.025748 232.759219 
L 163.864723 233.194735 
L 158.963076 232.961945 
L 154.061429 233.473606 
L 149.159782 234.381786 
L 144.258135 234.852678 
L 139.356488 234.065216 
L 136.634606 232.759219 
L 134.45484 230.340683 
L 129.553193 226.727428 
L 124.773891 223.888819 
L 124.651546 223.758529 
L 119.749899 219.887418 
L 114.848252 218.553639 
L 109.946605 216.696809 
L 108.315319 215.018419 
L 105.044958 210.550686 
L 102.43428 206.148019 
L 100.143311 201.236115 
L 99.373681 197.277619 
L 97.671041 188.407219 
L 95.241664 181.828532 
L 93.783653 179.536819 
L 90.340017 172.129691 
L 90.081382 170.666419 
L 89.895334 161.796019 
L 89.604214 152.925619 
L 88.794167 144.055219 
L 90.340017 136.871395 
L 90.75951 135.184819 
L 95.241664 130.902759 
L 98.200788 126.314419 
L 100.143311 124.119688 
L 103.35388 117.444019 
L 104.749253 108.573619 
L 105.044958 101.114911 
L 105.497218 99.703219 
L 108.060008 90.832819 
L 109.723939 81.962419 
L 109.912601 73.092019 
L 109.946605 71.000355 
L 112.057523 67.185352 
" style="fill:none;stroke:#56c667;stroke-width:1.5;"/>
    <path clip-path="url(#pe0573136b7)" d="M 154.061429 226.107777 
L 158.963076 228.407984 
L 159.902338 223.888819 
L 158.963076 223.564622 
L 154.061429 223.450172 
L 152.849579 223.888819 
L 154.061429 226.107777 
" style="fill:none;stroke:#56c667;stroke-width:1.5;"/>
   </g>
   <g id="LineCollection_16">
    <path clip-path="url(#pe0573136b7)" d="M 161.262123 235.701008 
L 158.963076 235.873211 
L 154.061429 235.855376 
L 149.159782 235.941531 
L 144.258135 235.614917 
L 139.356488 234.515568 
L 135.696009 232.759219 
L 134.45484 231.382093 
L 129.553193 227.338821 
L 124.651546 224.354456 
L 123.78352 223.888819 
L 119.749899 220.672838 
L 114.848252 219.292971 
L 109.946605 217.435343 
L 107.597511 215.018419 
L 105.044958 211.531304 
L 101.852797 206.148019 
L 100.143311 202.482831 
L 99.131288 197.277619 
L 97.303397 188.407219 
L 95.241664 182.824101 
L 93.150261 179.536819 
L 90.340017 173.492092 
L 89.840576 170.666419 
L 89.601945 161.796019 
L 89.21931 152.925619 
L 88.255079 144.055219 
L 90.002015 135.184819 
L 90.340017 135.027203 
L 95.241664 130.307463 
L 97.816868 126.314419 
L 100.143311 123.685922 
L 103.145266 117.444019 
L 104.690541 108.573619 
L 105.043857 99.703219 
L 105.044958 99.673617 
L 107.858483 90.832819 
L 109.69995 81.962419 
L 109.908762 73.092019 
L 109.946605 70.764188 
L 113.56674 64.221619 
L 114.833494 55.351219 
L 114.848252 54.957242 
L 119.324746 46.480819 
L 119.740367 37.610419 
L 119.749899 37.503413 
L 124.297378 28.740019 
L 124.651546 24.576204 
L 129.553193 25.754812 
L 132.907087 28.740019 
L 134.45484 31.175137 
L 139.356488 37.543666 
L 139.453666 37.610419 
L 144.258135 44.447638 
L 145.501344 46.480819 
L 149.159782 53.662004 
L 149.325305 55.351219 
L 149.968164 64.221619 
L 151.452372 73.092019 
L 154.061429 79.888101 
L 154.91162 81.962419 
L 158.963076 89.258677 
L 163.56377 90.832819 
L 163.864723 91.19805 
L 168.76637 93.098913 
L 173.668017 94.385104 
L 178.569664 99.286007 
L 178.77775 99.703219 
L 182.645951 108.573619 
L 183.471311 110.506497 
L 185.884338 117.444019 
L 188.372958 124.473548 
L 188.916665 126.314419 
L 191.152517 135.184819 
L 193.274605 143.46498 
L 193.393558 144.055219 
L 194.857031 152.925619 
L 196.383758 161.796019 
L 197.94518 170.666419 
L 198.176252 172.260431 
L 198.980985 179.536819 
L 199.618671 188.407219 
L 199.441463 197.277619 
L 198.176252 204.470166 
L 197.559031 206.148019 
L 193.274605 212.684875 
L 191.140782 215.018419 
L 188.372958 218.059078 
L 183.718818 223.888819 
L 183.471311 224.243227 
L 182.650264 225.276895 
" style="fill:none;stroke:#75d054;stroke-width:1.5;"/>
   </g>
   <g id="LineCollection_17">
    <path clip-path="url(#pe0573136b7)" d="M 184.670207 111.239517 
L 186.888886 117.444019 
L 188.372958 121.636031 
L 189.754736 126.314419 
L 192.251717 135.184819 
L 193.274605 139.17602 
L 194.257926 144.055219 
L 195.92808 152.925619 
L 197.690531 161.796019 
L 198.176252 164.489911 
L 199.028448 170.666419 
L 200.173877 179.536819 
L 201.051694 188.407219 
L 201.168079 197.277619 
L 199.835881 206.148019 
L 198.176252 211.056254 
L 195.542768 215.018419 
L 193.274605 217.898571 
L 188.372958 223.593225 
L 188.136972 223.888819 
L 183.471311 230.569646 
L 181.780576 232.759219 
L 178.569664 234.621797 
L 173.668017 235.552875 
L 168.76637 236.622511 
L 163.864723 237.8174 
L 158.963076 238.784477 
L 154.061429 238.237147 
L 149.159782 237.501276 
L 144.258135 236.377157 
L 139.356488 234.96592 
L 134.757412 232.759219 
L 134.45484 232.423504 
L 129.553193 227.950213 
L 124.651546 224.8829 
L 122.798412 223.888819 
L 119.749899 221.458259 
L 114.848252 220.032302 
L 109.946605 218.173877 
L 106.879704 215.018419 
L 105.044958 212.511921 
L 101.271315 206.148019 
L 100.143311 203.729547 
L 98.888896 197.277619 
L 96.935753 188.407219 
L 95.241664 183.819671 
L 92.51687 179.536819 
L 90.340017 174.854492 
L 89.59977 170.666419 
L 89.308555 161.796019 
L 88.834406 152.925619 
L 87.71599 144.055219 
L 88.967672 135.184819 
L 90.340017 134.544872 
L 95.241664 129.712166 
L 97.432947 126.314419 
L 100.143311 123.252156 
L 102.936653 117.444019 
L 104.631829 108.573619 
L 105.020297 99.703219 
L 105.044958 99.040375 
L 107.656958 90.832819 
L 109.675961 81.962419 
L 109.904922 73.092019 
L 109.946605 70.528022 
L 113.436065 64.221619 
L 114.828819 55.351219 
L 114.848252 54.832449 
L 119.258842 46.480819 
L 119.731528 37.610419 
L 119.749899 37.40418 
L 124.245884 28.740019 
L 124.651546 23.970809 
L 129.553193 25.335791 
L 133.377858 28.740019 
L 134.45484 30.434461 
L 139.356488 37.394033 
L 139.6715 37.610419 
L 144.258135 44.137639 
L 145.690896 46.480819 
L 149.159782 53.28993 
L 149.361764 55.351219 
L 150.070785 64.221619 
L 151.745275 73.092019 
L 154.061429 79.125146 
L 155.22433 81.962419 
L 158.963076 88.69552 
L 163.864723 90.471057 
L 167.761247 90.832819 
L 168.76637 91.227326 
L 170.595981 91.705107 
" style="fill:none;stroke:#95d840;stroke-width:1.5;"/>
   </g>
   <g id="LineCollection_18">
    <path clip-path="url(#pe0573136b7)" d="M 110.394717 69.481995 
L 113.305389 64.221619 
L 114.824145 55.351219 
L 114.848252 54.707656 
L 119.192937 46.480819 
L 119.722688 37.610419 
L 119.749899 37.304947 
L 124.19439 28.740019 
L 124.651546 23.365415 
L 129.553193 24.916771 
L 133.848629 28.740019 
L 134.45484 29.693786 
L 139.356488 37.2444 
L 139.889335 37.610419 
L 144.258135 43.827639 
L 145.880448 46.480819 
L 149.159782 52.917856 
L 149.398223 55.351219 
L 150.173405 64.221619 
L 152.038178 73.092019 
L 154.061429 78.362191 
L 155.537039 81.962419 
L 158.963076 88.132363 
L 163.864723 90.028348 
L 168.76637 90.408774 
L 173.668017 90.750587 
L 173.840549 90.832819 
L 178.569664 95.882252 
L 180.475382 99.703219 
L 183.471311 106.144905 
L 184.459448 108.573619 
L 187.893435 117.444019 
L 188.372958 118.798514 
L 190.592806 126.314419 
L 193.274605 134.996459 
L 193.322388 135.184819 
L 195.122294 144.055219 
L 196.999129 152.925619 
L 198.176252 158.569492 
L 198.695051 161.796019 
L 200.028425 170.666419 
L 201.366769 179.536819 
L 202.484716 188.407219 
L 202.894695 197.277619 
L 201.837695 206.148019 
L 198.911697 215.018419 
L 198.176252 216.665793 
L 193.274605 222.895207 
L 192.423648 223.888819 
L 188.372958 228.888115 
L 185.782404 232.759219 
L 183.471311 235.829424 
L 178.569664 237.455539 
L 173.668017 237.521042 
L 168.76637 238.659852 
L 163.864723 240.128732 
L 159.128729 241.629619 
L 158.963076 241.639869 
L 158.714048 241.629619 
L 154.061429 240.618917 
L 149.159782 239.06102 
L 144.258135 237.139397 
L 139.356488 235.416272 
L 134.45484 233.029359 
L 134.014512 232.759219 
L 129.553193 228.561605 
L 124.651546 225.411344 
L 121.813303 223.888819 
L 119.749899 222.24368 
L 114.848252 220.771634 
L 109.946605 218.912411 
L 106.161896 215.018419 
L 105.044958 213.492538 
L 100.689832 206.148019 
L 100.143311 204.976262 
L 98.646503 197.277619 
L 96.568109 188.407219 
L 95.241664 184.815241 
L 91.883478 179.536819 
L 90.340017 176.216893 
L 89.358964 170.666419 
L 89.015166 161.796019 
L 88.449501 152.925619 
L 87.176902 144.055219 
L 87.933329 135.184819 
L 90.340017 134.06254 
L 95.241664 129.116869 
L 97.049027 126.314419 
L 100.143311 122.818389 
L 102.728039 117.444019 
L 104.573117 108.573619 
L 104.996736 99.703219 
L 105.044958 98.407133 
L 106.405653 94.13149 
" style="fill:none;stroke:#bade28;stroke-width:1.5;"/>
   </g>
   <g id="LineCollection_19">
    <path clip-path="url(#pe0573136b7)" d="M 203.077899 208.839134 
L 201.135327 215.018419 
L 198.176252 221.646653 
L 196.41288 223.888819 
L 193.274605 227.913311 
L 189.435631 232.759219 
L 188.372958 234.331144 
L 183.471311 240.524644 
L 178.569664 240.28928 
L 173.668017 239.489208 
L 168.76637 240.697193 
L 165.991033 241.629619 
L 163.864723 241.804506 
L 158.963076 242.091183 
L 154.061429 241.861161 
L 151.75326 241.629619 
L 149.159782 240.620765 
L 144.258135 237.901636 
L 139.356488 235.866624 
L 134.45484 233.428011 
L 133.364711 232.759219 
L 129.553193 229.172998 
L 124.651546 225.939788 
L 120.828195 223.888819 
L 119.749899 223.0291 
L 114.848252 221.510966 
L 109.946605 219.650945 
L 105.444089 215.018419 
L 105.044958 214.473155 
L 100.143311 206.192045 
L 100.13127 206.148019 
L 98.404111 197.277619 
L 96.200465 188.407219 
L 95.241664 185.810811 
L 91.250087 179.536819 
L 90.340017 177.579294 
L 89.765766 174.330374 
" style="fill:none;stroke:#dde318;stroke-width:1.5;"/>
    <path clip-path="url(#pe0573136b7)" d="M 87.476173 149.267351 
L 86.637814 144.055219 
L 86.898986 135.184819 
L 90.340017 133.580208 
L 95.241664 128.521573 
L 96.665107 126.314419 
L 100.143311 122.384623 
L 102.519425 117.444019 
L 104.514405 108.573619 
L 104.973176 99.703219 
L 105.044958 97.773892 
L 107.253908 90.832819 
L 109.627983 81.962419 
L 109.897244 73.092019 
L 109.946605 70.055689 
L 113.174713 64.221619 
L 114.81947 55.351219 
L 114.848252 54.582863 
L 119.127033 46.480819 
L 119.713848 37.610419 
L 119.749899 37.205713 
L 124.142896 28.740019 
L 124.651546 22.760021 
L 129.553193 24.497751 
L 134.3194 28.740019 
L 134.45484 28.95311 
L 139.356488 37.094767 
L 140.107169 37.610419 
L 144.258135 43.51764 
L 146.07 46.480819 
L 149.159782 52.545782 
L 149.434682 55.351219 
L 150.276025 64.221619 
L 152.331081 73.092019 
L 154.061429 77.599236 
L 155.849748 81.962419 
L 158.963076 87.569205 
L 163.864723 89.585638 
L 168.76637 89.871473 
L 173.668017 89.990901 
L 175.434465 90.832819 
L 178.569664 94.180375 
L 181.324198 99.703219 
L 183.471311 104.319826 
L 185.201992 108.573619 
L 188.372958 116.476766 
L 188.709559 117.444019 
L 191.430876 126.314419 
L 193.274605 132.283296 
L 194.010662 135.184819 
L 195.986662 144.055219 
L 198.070179 152.925619 
L 198.176252 153.434202 
L 199.520762 161.796019 
L 201.028402 170.666419 
L 202.559661 179.536819 
L 203.077899 183.31305 
" style="fill:none;stroke:#dde318;stroke-width:1.5;"/>
   </g>
   <g id="LineCollection_20">
    <path clip-path="url(#pe0573136b7)" d="M 203.077899 215.617586 
L 199.350768 223.888819 
L 198.176252 226.295934 
L 193.389192 232.759219 
L 193.274605 232.91447 
L 188.372958 240.217863 
L 187.202686 241.629619 
L 183.471311 242.351551 
L 178.569664 241.986931 
L 174.366069 241.629619 
L 173.668017 241.457374 
L 172.986948 241.629619 
L 168.76637 241.908349 
L 163.864723 242.303272 
L 158.963076 242.542497 
L 154.061429 242.263387 
L 149.159782 241.754914 
L 148.75186 241.629619 
L 144.258135 238.663876 
L 139.356488 236.316976 
L 134.45484 233.826663 
L 132.714909 232.759219 
L 129.553193 229.78439 
L 124.651546 226.468232 
L 119.843087 223.888819 
L 119.749899 223.814521 
L 114.848252 222.250298 
L 109.946605 220.389479 
L 105.044958 215.293078 
L 104.855693 215.018419 
L 100.143311 206.924292 
L 99.931002 206.148019 
L 98.161718 197.277619 
L 95.832822 188.407219 
L 95.241664 186.80638 
L 92.516993 182.523722 
" style="fill:none;stroke:#fde725;stroke-width:1.5;"/>
    <path clip-path="url(#pe0573136b7)" d="M 88.115665 158.090947 
L 87.679692 152.925619 
L 86.098725 144.055219 
L 85.864643 135.184819 
L 90.340017 133.097877 
L 95.241664 127.926276 
L 96.281187 126.314419 
L 100.143311 121.950857 
L 102.310811 117.444019 
L 104.455693 108.573619 
L 104.949616 99.703219 
L 105.044958 97.14065 
L 107.052383 90.832819 
L 109.603994 81.962419 
L 109.893404 73.092019 
L 109.946605 69.819522 
L 113.044038 64.221619 
L 114.814795 55.351219 
L 114.848252 54.45807 
L 119.061128 46.480819 
L 119.705009 37.610419 
L 119.749899 37.10648 
L 124.091402 28.740019 
L 124.651546 22.154626 
L 129.553193 24.078731 
L 134.45484 28.658178 
L 134.517696 28.740019 
L 139.356488 36.945134 
L 140.325004 37.610419 
L 144.258135 43.207641 
L 146.259553 46.480819 
L 149.159782 52.173708 
L 149.471141 55.351219 
L 150.378646 64.221619 
L 152.623984 73.092019 
L 154.061429 76.836281 
L 156.162457 81.962419 
L 158.963076 87.006048 
L 163.864723 89.142929 
L 168.76637 89.334172 
L 173.668017 89.231216 
L 177.028381 90.832819 
L 178.569664 92.478498 
L 182.173013 99.703219 
L 183.471311 102.494748 
L 185.944537 108.573619 
L 188.372958 114.626088 
L 189.35359 117.444019 
L 192.268946 126.314419 
L 193.274605 129.570132 
L 194.698935 135.184819 
L 196.85103 144.055219 
L 198.176252 149.642353 
L 198.788795 152.925619 
L 200.346474 161.796019 
L 202.028378 170.666419 
L 203.077899 176.430674 
" style="fill:none;stroke:#fde725;stroke-width:1.5;"/>
   </g>
   <g id="LineCollection_21">
    <path clip-path="url(#pe0573136b7)" d="M 203.077899 220.357987 
L 201.486858 223.888819 
L 198.176252 230.67375 
L 196.631641 232.759219 
L 193.274605 237.307591 
L 190.509506 241.629619 
L 188.372958 242.83787 
L 183.471311 243.295673 
L 178.569664 242.664932 
L 173.668017 242.12985 
L 168.76637 242.422297 
L 163.864723 242.802039 
L 158.963076 242.99381 
L 154.061429 242.665613 
L 149.159782 242.109663 
L 147.596906 241.629619 
L 144.258135 239.426116 
L 139.356488 236.767328 
L 134.45484 234.225315 
L 132.065107 232.759219 
L 129.553193 230.395782 
L 124.651546 226.996676 
L 119.749899 224.322932 
L 117.658117 223.888819 
L 114.848252 222.98963 
L 109.946605 221.128014 
L 105.044958 215.911736 
L 104.429381 215.018419 
L 100.143311 207.656538 
L 99.730734 206.148019 
L 97.919326 197.277619 
L 95.465178 188.407219 
L 95.241664 187.80195 
L 90.340017 179.885144 
L 90.18997 179.536819 
L 88.636546 170.666419 
L 88.134998 161.796019 
L 87.294788 152.925619 
L 85.559637 144.055219 
L 85.43837 141.600355 
L 84.305267 135.184819 
L 85.43837 134.492345 
L 90.340017 132.615545 
L 95.241664 127.33098 
L 95.897267 126.314419 
L 100.143311 121.51709 
L 102.102197 117.444019 
L 104.396981 108.573619 
L 104.926056 99.703219 
L 105.044958 96.507408 
L 106.850858 90.832819 
L 109.580005 81.962419 
L 109.889565 73.092019 
L 109.946605 69.583355 
L 112.913362 64.221619 
L 114.810121 55.351219 
L 114.848252 54.333277 
L 118.995223 46.480819 
L 119.696169 37.610419 
L 119.749899 37.007246 
L 124.039908 28.740019 
L 124.651546 21.549232 
L 129.553193 23.65971 
L 134.45484 28.543282 
L 134.605939 28.740019 
L 139.356488 36.795501 
L 140.542838 37.610419 
L 144.258135 42.897641 
L 146.449105 46.480819 
L 149.159782 51.801634 
L 149.5076 55.351219 
L 149.913751 59.051381 
" style="fill:none;stroke:#440154;stroke-width:1.5;"/>
    <path clip-path="url(#pe0573136b7)" d="M 158.825748 86.195577 
L 158.963076 86.442891 
L 163.864723 88.700219 
L 168.76637 88.796871 
L 173.668017 88.47153 
L 178.569664 90.804878 
L 178.589767 90.832819 
L 183.021829 99.703219 
L 183.471311 100.66967 
L 186.687081 108.573619 
L 188.372958 112.77541 
L 189.997621 117.444019 
L 193.107017 126.314419 
L 193.274605 126.856969 
L 195.387208 135.184819 
L 197.715398 144.055219 
L 198.176252 145.99818 
L 199.46867 152.925619 
L 201.172186 161.796019 
L 203.028355 170.666419 
L 203.077899 170.938531 
" style="fill:none;stroke:#440154;stroke-width:1.5;"/>
   </g>
   <g id="LineCollection_22">
    <path clip-path="url(#pe0573136b7)" d="M 149.766192 277.111219 
L 149.159782 276.933047 
L 144.258135 275.279294 
L 139.356488 273.321708 
L 134.45484 271.129611 
L 129.553193 269.266358 
L 125.366207 268.240819 
L 124.651546 268.007217 
L 119.749899 266.509178 
L 114.848252 264.757511 
L 109.946605 262.809004 
L 105.044958 260.44068 
L 103.487963 259.370419 
L 100.143311 256.302348 
L 99.072286 255.0972 
" style="fill:none;stroke:#440154;stroke-width:1.5;"/>
    <path clip-path="url(#pe0573136b7)" d="M 84.55643 226.535328 
L 84.001286 223.888819 
L 81.741967 215.018419 
L 80.536723 211.676125 
L 78.652904 206.148019 
L 75.635076 199.368927 
L 75.111591 197.277619 
L 74.681477 188.407219 
L 73.899051 179.536819 
L 71.988514 170.666419 
L 70.733429 167.313001 
L 69.454302 161.796019 
L 69.632083 152.925619 
L 70.463352 144.055219 
L 70.733429 140.934711 
L 72.353004 135.184819 
L 74.818291 126.314419 
L 75.635076 122.73684 
L 78.163038 117.444019 
L 80.536723 116.38973 
L 85.43837 110.347016 
L 90.340017 110.754202 
L 95.241664 111.122074 
L 96.72023 108.573619 
L 100.143311 101.266047 
L 100.685222 99.703219 
L 103.067234 90.832819 
L 105.044958 82.40806 
L 105.261995 81.962419 
L 109.198483 73.092019 
L 109.872225 64.221619 
L 109.946605 62.85059 
L 113.968679 55.351219 
L 114.791005 46.480819 
L 114.848252 44.341773 
L 118.105026 37.610419 
L 119.642255 28.740019 
L 119.749899 27.983126 
L 123.935794 19.869619 
L 124.637973 10.999219 
" style="fill:none;stroke:#440154;stroke-width:1.5;"/>
    <path clip-path="url(#pe0573136b7)" d="M 130.584036 10.999219 
L 134.45484 17.179556 
L 136.585717 19.869619 
L 139.356488 24.469444 
L 144.258135 28.331085 
L 144.610544 28.740019 
L 149.159782 36.414573 
L 149.485908 37.610419 
L 151.513648 46.480819 
L 154.061429 53.266593 
L 154.268796 53.717776 
" style="fill:none;stroke:#440154;stroke-width:1.5;"/>
    <path clip-path="url(#pe0573136b7)" d="M 177.802719 57.664215 
L 178.569664 57.084646 
L 182.509906 55.351219 
L 183.471311 55.099442 
L 185.602513 55.351219 
L 188.372958 56.199721 
L 193.274605 62.127237 
L 194.811153 64.221619 
L 198.176252 69.76967 
L 200.021291 73.092019 
L 203.077899 78.792023 
" style="fill:none;stroke:#440154;stroke-width:1.5;"/>
   </g>
   <g id="LineCollection_23">
    <path clip-path="url(#pe0573136b7)" d="M 85.253525 277.111219 
L 81.909552 268.240819 
L 80.536723 265.092324 
L 79.321734 259.370419 
L 76.727998 250.500019 
L 75.635076 247.266723 
L 74.466054 241.629619 
L 71.717174 232.759219 
L 70.733429 229.998836 
L 69.82708 223.888819 
L 67.643218 215.018419 
L 65.831782 209.950693 
L 65.018914 206.148019 
L 61.885043 197.277619 
L 60.930135 194.686456 
L 60.302791 188.407219 
L 59.852209 179.536819 
L 59.924919 176.312805 
" style="fill:none;stroke:#440154;stroke-width:1.5;"/>
    <path clip-path="url(#pe0573136b7)" d="M 65.358716 140.941338 
L 65.831782 136.780393 
L 66.455137 135.184819 
L 70.216174 126.314419 
L 70.733429 124.383283 
L 74.338117 117.444019 
L 75.635076 116.373802 
L 80.262028 108.573619 
L 80.536723 108.503884 
L 85.43837 106.621346 
L 89.718965 99.703219 
L 90.340017 99.22334 
L 95.241664 93.0916 
L 96.398166 90.832819 
L 100.143311 84.763223 
L 101.540343 81.962419 
L 104.913368 73.092019 
L 105.044958 72.394023 
L 109.021071 64.221619 
L 109.874216 55.351219 
L 109.946605 54.429942 
L 113.91085 46.480819 
L 114.735375 37.610419 
L 114.848252 34.385533 
L 117.638318 28.740019 
L 119.638389 19.869619 
L 119.749899 19.136481 
L 123.781645 10.999219 
" style="fill:none;stroke:#440154;stroke-width:1.5;"/>
    <path clip-path="url(#pe0573136b7)" d="M 140.191448 10.999219 
L 144.258135 16.820546 
L 147.566536 19.869619 
L 149.159782 22.398302 
L 151.758983 28.740019 
L 154.061429 33.817986 
L 155.083843 35.27094 
" style="fill:none;stroke:#440154;stroke-width:1.5;"/>
    <path clip-path="url(#pe0573136b7)" d="M 182.641055 28.649519 
L 183.471311 28.132778 
L 188.372958 25.434858 
L 193.274605 23.631078 
L 198.176252 24.913585 
L 203.077899 28.046895 
" style="fill:none;stroke:#440154;stroke-width:1.5;"/>
   </g>
   <g id="LineCollection_24">
    <path clip-path="url(#pe0573136b7)" d="M 73.739399 277.111219 
L 70.733429 268.494003 
L 70.698601 268.240819 
L 69.614707 260.851369 
" style="fill:none;stroke:#440154;stroke-width:1.5;"/>
    <path clip-path="url(#pe0573136b7)" d="M 60.516127 222.427091 
L 59.367072 215.018419 
L 56.328632 206.148019 
L 56.028488 205.298557 
" style="fill:none;stroke:#440154;stroke-width:1.5;"/>
    <path clip-path="url(#pe0573136b7)" d="M 56.028488 154.613947 
L 56.644081 152.925619 
L 60.104303 144.055219 
L 60.930135 139.837518 
L 63.0576 135.184819 
L 65.688161 126.314419 
L 65.831782 125.931109 
L 70.353723 117.444019 
L 70.733429 116.87377 
L 75.488633 108.573619 
L 75.635076 108.476923 
L 79.64515 107.055023 
" style="fill:none;stroke:#440154;stroke-width:1.5;"/>
    <path clip-path="url(#pe0573136b7)" d="M 101.105846 74.06596 
L 101.61522 73.092019 
L 104.715244 64.221619 
L 105.044958 62.654055 
L 108.487465 55.351219 
L 109.757856 46.480819 
L 109.946605 44.813357 
L 113.316099 37.610419 
L 114.61794 28.740019 
L 114.848252 24.203157 
L 117.009616 19.869619 
L 119.554754 10.999219 
" style="fill:none;stroke:#440154;stroke-width:1.5;"/>
    <path clip-path="url(#pe0573136b7)" d="M 151.66031 10.999219 
L 154.061429 15.234594 
L 158.963076 19.023199 
L 163.864723 18.987019 
L 168.76637 16.39893 
L 173.668017 11.342345 
L 174.029636 10.999219 
" style="fill:none;stroke:#440154;stroke-width:1.5;"/>
   </g>
   <g id="LineCollection_25">
    <path clip-path="url(#pe0573136b7)" d="M 65.257853 277.111219 
L 63.506556 268.240819 
L 60.930135 260.490724 
L 60.794435 259.370419 
L 59.797941 250.500019 
L 58.133636 241.629619 
L 56.028488 234.719679 
" style="fill:none;stroke:#440154;stroke-width:1.5;"/>
    <path clip-path="url(#pe0573136b7)" d="M 56.028488 141.513204 
L 59.168266 135.184819 
L 60.930135 128.64628 
L 62.109801 126.314419 
L 65.797896 117.444019 
L 65.831782 117.378594 
L 70.733429 109.231914 
L 71.11057 108.573619 
L 75.635076 105.586089 
L 79.418624 99.703219 
L 79.462387 99.657264 
" style="fill:none;stroke:#440154;stroke-width:1.5;"/>
    <path clip-path="url(#pe0573136b7)" d="M 100.69501 62.12903 
L 103.838864 55.351219 
L 105.044958 49.418754 
L 106.323533 46.480819 
L 109.231616 37.610419 
L 109.946605 33.126047 
L 111.942286 28.740019 
L 114.285322 19.869619 
L 114.848252 13.051609 
L 115.867067 10.999219 
" style="fill:none;stroke:#440154;stroke-width:1.5;"/>
   </g>
   <g id="LineCollection_26">
    <path clip-path="url(#pe0573136b7)" d="M 57.366804 277.111219 
L 56.028488 272.841488 
" style="fill:none;stroke:#450457;stroke-width:1.5;"/>
    <path clip-path="url(#pe0573136b7)" d="M 56.028488 131.730283 
L 58.847992 126.314419 
L 60.930135 120.837678 
L 62.754064 117.444019 
L 65.831782 111.501653 
L 67.471217 108.573619 
L 70.733429 103.706919 
L 73.213269 99.703219 
L 75.635076 96.404343 
L 77.233107 93.769934 
" style="fill:none;stroke:#450457;stroke-width:1.5;"/>
    <path clip-path="url(#pe0573136b7)" d="M 98.64037 52.265408 
L 100.143311 47.469458 
L 100.590025 46.480819 
L 104.350029 37.610419 
L 105.044958 34.776896 
L 107.791275 28.740019 
L 109.771082 19.869619 
L 109.946605 18.712797 
L 113.217999 10.999219 
" style="fill:none;stroke:#450457;stroke-width:1.5;"/>
   </g>
   <g id="LineCollection_27">
    <path clip-path="url(#pe0573136b7)" d="M 56.028488 121.654883 
L 58.259562 117.444019 
L 60.930135 110.999542 
L 62.26028 108.573619 
L 65.831782 101.300354 
L 66.739184 99.703219 
L 70.733429 92.092508 
L 71.465747 90.832819 
L 73.75486 86.531901 
" style="fill:none;stroke:#482475;stroke-width:1.5;"/>
    <path clip-path="url(#pe0573136b7)" d="M 96.732432 41.740312 
L 98.731512 37.610419 
L 100.143311 32.924048 
L 102.11519 28.740019 
L 104.850497 19.869619 
L 105.044958 19.03745 
L 108.563902 10.999219 
" style="fill:none;stroke:#482475;stroke-width:1.5;"/>
   </g>
   <g id="LineCollection_28">
    <path clip-path="url(#pe0573136b7)" d="M 56.028488 109.714484 
L 56.634196 108.573619 
L 60.784371 99.703219 
L 60.930135 99.298143 
L 65.393378 90.832819 
L 65.831782 89.699803 
L 68.138179 85.364084 
" style="fill:none;stroke:#fde725;stroke-width:1.5;"/>
    <path clip-path="url(#pe0573136b7)" d="M 92.291746 37.199913 
L 95.110466 28.740019 
L 95.241664 28.27617 
L 99.310187 19.869619 
L 100.143311 17.050893 
L 102.926735 10.999219 
" style="fill:none;stroke:#fde725;stroke-width:1.5;"/>
   </g>
   <g id="line2d_19">
    <path clip-path="url(#pe0573136b7)" d="M 170.552218 140.400794 
L 168.947391 138.313709 
L 164.987648 133.912991 
L 148.26438 121.238061 
L 130.373247 109.923052 
L 118.40902 102.916743 
L 110.519633 98.809741 
L 105.345188 96.501463 
L 101.961776 95.338043 
L 99.762429 94.90202 
L 98.338086 95.014142 
L 97.425615 95.456078 
L 96.846887 96.124812 
L 96.4893 96.92592 
L 96.275516 97.825835 
L 96.154108 98.831782 
L 96.094098 99.891807 
L 96.069799 101.050823 
L 96.068781 102.282809 
L 96.083445 103.561206 
L 96.105959 104.91313 
L 96.134325 106.307347 
L 96.170291 107.71019 
L 96.209969 109.113899 
L 96.254561 110.501695 
L 96.304479 111.855707 
L 96.353535 113.218366 
L 96.406641 114.536483 
L 96.464589 115.797109 
L 96.525484 117.016741 
L 96.590209 118.196873 
L 96.653267 119.398257 
L 96.713655 120.651645 
L 96.773999 121.933816 
L 96.835886 123.19681 
L 96.898754 124.420904 
L 96.962346 125.661203 
L 97.027813 126.888143 
L 97.093846 128.101303 
L 97.161442 129.27928 
L 97.229338 130.486529 
L 97.298049 131.663266 
L 97.365778 132.865993 
L 97.431685 134.132184 
L 97.498959 135.389633 
L 97.565076 136.614512 
L 97.632659 137.773515 
L 97.70089 138.931687 
L 97.770676 140.074332 
L 97.838433 141.220147 
L 97.845363 141.330993 
L 97.85234 141.440416 
L 97.859469 141.546648 
L 97.866694 141.649961 
L 97.874097 141.754089 
L 97.881514 141.856982 
L 97.888748 141.96323 
L 97.896048 142.06884 
L 97.903581 142.17448 
L 97.911023 142.281789 
L 97.918246 142.389969 
L 97.925894 142.494042 
L 97.933168 142.60166 
L 97.940655 142.703948 
L 97.94802 142.80588 
L 97.955433 142.909405 
L 97.962708 143.015316 
L 97.969896 143.122053 
L 97.977245 143.226292 
L 97.984892 143.325396 
L 97.992532 143.423373 
L 98.000176 143.523562 
L 98.007942 143.619636 
L 98.015781 143.715818 
L 98.023855 143.808735 
L 98.02465 143.818039 
L 98.025403 143.828022 
L 98.026138 143.838061 
L 98.026852 143.848505 
L 98.027557 143.859067 
L 98.028284 143.869275 
L 98.029014 143.879212 
L 98.029746 143.889088 
L 98.030465 143.89926 
L 98.031168 143.909466 
L 98.031865 143.919918 
L 98.032576 143.929869 
L 98.033332 143.939237 
L 98.034106 143.94889 
L 98.034868 143.958362 
L 98.035632 143.967977 
L 98.036415 143.977097 
L 98.0372 143.986732 
L 98.037989 143.99653 
L 98.038764 144.006193 
L 98.039512 144.016004 
L 98.040286 144.02581 
L 98.041058 144.035628 
L 98.041819 144.04555 
" style="fill:none;stroke:#1f77b4;stroke-linecap:square;stroke-width:1.5;"/>
    <defs>
     <path d="M 0 1.5 
C 0.397805 1.5 0.77937 1.341951 1.06066 1.06066 
C 1.341951 0.77937 1.5 0.397805 1.5 0 
C 1.5 -0.397805 1.341951 -0.77937 1.06066 -1.06066 
C 0.77937 -1.341951 0.397805 -1.5 0 -1.5 
C -0.397805 -1.5 -0.77937 -1.341951 -1.06066 -1.06066 
C -1.341951 -0.77937 -1.5 -0.397805 -1.5 0 
C -1.5 0.397805 -1.341951 0.77937 -1.06066 1.06066 
C -0.77937 1.341951 -0.397805 1.5 0 1.5 
z
" id="m4554193600" style="stroke:#1f77b4;"/>
    </defs>
    <g clip-path="url(#pe0573136b7)">
     <use style="fill:#1f77b4;stroke:#1f77b4;" x="170.552218" xlink:href="#m4554193600" y="140.400794"/>
     <use style="fill:#1f77b4;stroke:#1f77b4;" x="168.947391" xlink:href="#m4554193600" y="138.313709"/>
     <use style="fill:#1f77b4;stroke:#1f77b4;" x="164.987648" xlink:href="#m4554193600" y="133.912991"/>
     <use style="fill:#1f77b4;stroke:#1f77b4;" x="148.26438" xlink:href="#m4554193600" y="121.238061"/>
     <use style="fill:#1f77b4;stroke:#1f77b4;" x="130.373247" xlink:href="#m4554193600" y="109.923052"/>
     <use style="fill:#1f77b4;stroke:#1f77b4;" x="118.40902" xlink:href="#m4554193600" y="102.916743"/>
     <use style="fill:#1f77b4;stroke:#1f77b4;" x="110.519633" xlink:href="#m4554193600" y="98.809741"/>
     <use style="fill:#1f77b4;stroke:#1f77b4;" x="105.345188" xlink:href="#m4554193600" y="96.501463"/>
     <use style="fill:#1f77b4;stroke:#1f77b4;" x="101.961776" xlink:href="#m4554193600" y="95.338043"/>
     <use style="fill:#1f77b4;stroke:#1f77b4;" x="99.762429" xlink:href="#m4554193600" y="94.90202"/>
     <use style="fill:#1f77b4;stroke:#1f77b4;" x="98.338086" xlink:href="#m4554193600" y="95.014142"/>
     <use style="fill:#1f77b4;stroke:#1f77b4;" x="97.425615" xlink:href="#m4554193600" y="95.456078"/>
     <use style="fill:#1f77b4;stroke:#1f77b4;" x="96.846887" xlink:href="#m4554193600" y="96.124812"/>
     <use style="fill:#1f77b4;stroke:#1f77b4;" x="96.4893" xlink:href="#m4554193600" y="96.92592"/>
     <use style="fill:#1f77b4;stroke:#1f77b4;" x="96.275516" xlink:href="#m4554193600" y="97.825835"/>
     <use style="fill:#1f77b4;stroke:#1f77b4;" x="96.154108" xlink:href="#m4554193600" y="98.831782"/>
     <use style="fill:#1f77b4;stroke:#1f77b4;" x="96.094098" xlink:href="#m4554193600" y="99.891807"/>
     <use style="fill:#1f77b4;stroke:#1f77b4;" x="96.069799" xlink:href="#m4554193600" y="101.050823"/>
     <use style="fill:#1f77b4;stroke:#1f77b4;" x="96.068781" xlink:href="#m4554193600" y="102.282809"/>
     <use style="fill:#1f77b4;stroke:#1f77b4;" x="96.083445" xlink:href="#m4554193600" y="103.561206"/>
     <use style="fill:#1f77b4;stroke:#1f77b4;" x="96.105959" xlink:href="#m4554193600" y="104.91313"/>
     <use style="fill:#1f77b4;stroke:#1f77b4;" x="96.134325" xlink:href="#m4554193600" y="106.307347"/>
     <use style="fill:#1f77b4;stroke:#1f77b4;" x="96.170291" xlink:href="#m4554193600" y="107.71019"/>
     <use style="fill:#1f77b4;stroke:#1f77b4;" x="96.209969" xlink:href="#m4554193600" y="109.113899"/>
     <use style="fill:#1f77b4;stroke:#1f77b4;" x="96.254561" xlink:href="#m4554193600" y="110.501695"/>
     <use style="fill:#1f77b4;stroke:#1f77b4;" x="96.304479" xlink:href="#m4554193600" y="111.855707"/>
     <use style="fill:#1f77b4;stroke:#1f77b4;" x="96.353535" xlink:href="#m4554193600" y="113.218366"/>
     <use style="fill:#1f77b4;stroke:#1f77b4;" x="96.406641" xlink:href="#m4554193600" y="114.536483"/>
     <use style="fill:#1f77b4;stroke:#1f77b4;" x="96.464589" xlink:href="#m4554193600" y="115.797109"/>
     <use style="fill:#1f77b4;stroke:#1f77b4;" x="96.525484" xlink:href="#m4554193600" y="117.016741"/>
     <use style="fill:#1f77b4;stroke:#1f77b4;" x="96.590209" xlink:href="#m4554193600" y="118.196873"/>
     <use style="fill:#1f77b4;stroke:#1f77b4;" x="96.653267" xlink:href="#m4554193600" y="119.398257"/>
     <use style="fill:#1f77b4;stroke:#1f77b4;" x="96.713655" xlink:href="#m4554193600" y="120.651645"/>
     <use style="fill:#1f77b4;stroke:#1f77b4;" x="96.773999" xlink:href="#m4554193600" y="121.933816"/>
     <use style="fill:#1f77b4;stroke:#1f77b4;" x="96.835886" xlink:href="#m4554193600" y="123.19681"/>
     <use style="fill:#1f77b4;stroke:#1f77b4;" x="96.898754" xlink:href="#m4554193600" y="124.420904"/>
     <use style="fill:#1f77b4;stroke:#1f77b4;" x="96.962346" xlink:href="#m4554193600" y="125.661203"/>
     <use style="fill:#1f77b4;stroke:#1f77b4;" x="97.027813" xlink:href="#m4554193600" y="126.888143"/>
     <use style="fill:#1f77b4;stroke:#1f77b4;" x="97.093846" xlink:href="#m4554193600" y="128.101303"/>
     <use style="fill:#1f77b4;stroke:#1f77b4;" x="97.161442" xlink:href="#m4554193600" y="129.27928"/>
     <use style="fill:#1f77b4;stroke:#1f77b4;" x="97.229338" xlink:href="#m4554193600" y="130.486529"/>
     <use style="fill:#1f77b4;stroke:#1f77b4;" x="97.298049" xlink:href="#m4554193600" y="131.663266"/>
     <use style="fill:#1f77b4;stroke:#1f77b4;" x="97.365778" xlink:href="#m4554193600" y="132.865993"/>
     <use style="fill:#1f77b4;stroke:#1f77b4;" x="97.431685" xlink:href="#m4554193600" y="134.132184"/>
     <use style="fill:#1f77b4;stroke:#1f77b4;" x="97.498959" xlink:href="#m4554193600" y="135.389633"/>
     <use style="fill:#1f77b4;stroke:#1f77b4;" x="97.565076" xlink:href="#m4554193600" y="136.614512"/>
     <use style="fill:#1f77b4;stroke:#1f77b4;" x="97.632659" xlink:href="#m4554193600" y="137.773515"/>
     <use style="fill:#1f77b4;stroke:#1f77b4;" x="97.70089" xlink:href="#m4554193600" y="138.931687"/>
     <use style="fill:#1f77b4;stroke:#1f77b4;" x="97.770676" xlink:href="#m4554193600" y="140.074332"/>
     <use style="fill:#1f77b4;stroke:#1f77b4;" x="97.838433" xlink:href="#m4554193600" y="141.220147"/>
     <use style="fill:#1f77b4;stroke:#1f77b4;" x="97.845363" xlink:href="#m4554193600" y="141.330993"/>
     <use style="fill:#1f77b4;stroke:#1f77b4;" x="97.85234" xlink:href="#m4554193600" y="141.440416"/>
     <use style="fill:#1f77b4;stroke:#1f77b4;" x="97.859469" xlink:href="#m4554193600" y="141.546648"/>
     <use style="fill:#1f77b4;stroke:#1f77b4;" x="97.866694" xlink:href="#m4554193600" y="141.649961"/>
     <use style="fill:#1f77b4;stroke:#1f77b4;" x="97.874097" xlink:href="#m4554193600" y="141.754089"/>
     <use style="fill:#1f77b4;stroke:#1f77b4;" x="97.881514" xlink:href="#m4554193600" y="141.856982"/>
     <use style="fill:#1f77b4;stroke:#1f77b4;" x="97.888748" xlink:href="#m4554193600" y="141.96323"/>
     <use style="fill:#1f77b4;stroke:#1f77b4;" x="97.896048" xlink:href="#m4554193600" y="142.06884"/>
     <use style="fill:#1f77b4;stroke:#1f77b4;" x="97.903581" xlink:href="#m4554193600" y="142.17448"/>
     <use style="fill:#1f77b4;stroke:#1f77b4;" x="97.911023" xlink:href="#m4554193600" y="142.281789"/>
     <use style="fill:#1f77b4;stroke:#1f77b4;" x="97.918246" xlink:href="#m4554193600" y="142.389969"/>
     <use style="fill:#1f77b4;stroke:#1f77b4;" x="97.925894" xlink:href="#m4554193600" y="142.494042"/>
     <use style="fill:#1f77b4;stroke:#1f77b4;" x="97.933168" xlink:href="#m4554193600" y="142.60166"/>
     <use style="fill:#1f77b4;stroke:#1f77b4;" x="97.940655" xlink:href="#m4554193600" y="142.703948"/>
     <use style="fill:#1f77b4;stroke:#1f77b4;" x="97.94802" xlink:href="#m4554193600" y="142.80588"/>
     <use style="fill:#1f77b4;stroke:#1f77b4;" x="97.955433" xlink:href="#m4554193600" y="142.909405"/>
     <use style="fill:#1f77b4;stroke:#1f77b4;" x="97.962708" xlink:href="#m4554193600" y="143.015316"/>
     <use style="fill:#1f77b4;stroke:#1f77b4;" x="97.969896" xlink:href="#m4554193600" y="143.122053"/>
     <use style="fill:#1f77b4;stroke:#1f77b4;" x="97.977245" xlink:href="#m4554193600" y="143.226292"/>
     <use style="fill:#1f77b4;stroke:#1f77b4;" x="97.984892" xlink:href="#m4554193600" y="143.325396"/>
     <use style="fill:#1f77b4;stroke:#1f77b4;" x="97.992532" xlink:href="#m4554193600" y="143.423373"/>
     <use style="fill:#1f77b4;stroke:#1f77b4;" x="98.000176" xlink:href="#m4554193600" y="143.523562"/>
     <use style="fill:#1f77b4;stroke:#1f77b4;" x="98.007942" xlink:href="#m4554193600" y="143.619636"/>
     <use style="fill:#1f77b4;stroke:#1f77b4;" x="98.015781" xlink:href="#m4554193600" y="143.715818"/>
     <use style="fill:#1f77b4;stroke:#1f77b4;" x="98.023855" xlink:href="#m4554193600" y="143.808735"/>
     <use style="fill:#1f77b4;stroke:#1f77b4;" x="98.02465" xlink:href="#m4554193600" y="143.818039"/>
     <use style="fill:#1f77b4;stroke:#1f77b4;" x="98.025403" xlink:href="#m4554193600" y="143.828022"/>
     <use style="fill:#1f77b4;stroke:#1f77b4;" x="98.026138" xlink:href="#m4554193600" y="143.838061"/>
     <use style="fill:#1f77b4;stroke:#1f77b4;" x="98.026852" xlink:href="#m4554193600" y="143.848505"/>
     <use style="fill:#1f77b4;stroke:#1f77b4;" x="98.027557" xlink:href="#m4554193600" y="143.859067"/>
     <use style="fill:#1f77b4;stroke:#1f77b4;" x="98.028284" xlink:href="#m4554193600" y="143.869275"/>
     <use style="fill:#1f77b4;stroke:#1f77b4;" x="98.029014" xlink:href="#m4554193600" y="143.879212"/>
     <use style="fill:#1f77b4;stroke:#1f77b4;" x="98.029746" xlink:href="#m4554193600" y="143.889088"/>
     <use style="fill:#1f77b4;stroke:#1f77b4;" x="98.030465" xlink:href="#m4554193600" y="143.89926"/>
     <use style="fill:#1f77b4;stroke:#1f77b4;" x="98.031168" xlink:href="#m4554193600" y="143.909466"/>
     <use style="fill:#1f77b4;stroke:#1f77b4;" x="98.031865" xlink:href="#m4554193600" y="143.919918"/>
     <use style="fill:#1f77b4;stroke:#1f77b4;" x="98.032576" xlink:href="#m4554193600" y="143.929869"/>
     <use style="fill:#1f77b4;stroke:#1f77b4;" x="98.033332" xlink:href="#m4554193600" y="143.939237"/>
     <use style="fill:#1f77b4;stroke:#1f77b4;" x="98.034106" xlink:href="#m4554193600" y="143.94889"/>
     <use style="fill:#1f77b4;stroke:#1f77b4;" x="98.034868" xlink:href="#m4554193600" y="143.958362"/>
     <use style="fill:#1f77b4;stroke:#1f77b4;" x="98.035632" xlink:href="#m4554193600" y="143.967977"/>
     <use style="fill:#1f77b4;stroke:#1f77b4;" x="98.036415" xlink:href="#m4554193600" y="143.977097"/>
     <use style="fill:#1f77b4;stroke:#1f77b4;" x="98.0372" xlink:href="#m4554193600" y="143.986732"/>
     <use style="fill:#1f77b4;stroke:#1f77b4;" x="98.037989" xlink:href="#m4554193600" y="143.99653"/>
     <use style="fill:#1f77b4;stroke:#1f77b4;" x="98.038764" xlink:href="#m4554193600" y="144.006193"/>
     <use style="fill:#1f77b4;stroke:#1f77b4;" x="98.039512" xlink:href="#m4554193600" y="144.016004"/>
     <use style="fill:#1f77b4;stroke:#1f77b4;" x="98.040286" xlink:href="#m4554193600" y="144.02581"/>
     <use style="fill:#1f77b4;stroke:#1f77b4;" x="98.041058" xlink:href="#m4554193600" y="144.035628"/>
     <use style="fill:#1f77b4;stroke:#1f77b4;" x="98.041819" xlink:href="#m4554193600" y="144.04555"/>
    </g>
   </g>
   <g id="patch_3">
    <path d="M 56.028488 277.111219 
L 56.028488 10.999219 
" style="fill:none;stroke:#000000;stroke-linecap:square;stroke-linejoin:miter;stroke-width:0.8;"/>
   </g>
   <g id="patch_4">
    <path d="M 413.148488 277.111219 
L 413.148488 10.999219 
" style="fill:none;stroke:#000000;stroke-linecap:square;stroke-linejoin:miter;stroke-width:0.8;"/>
   </g>
   <g id="patch_5">
    <path d="M 56.028488 277.111219 
L 413.148488 277.111219 
" style="fill:none;stroke:#000000;stroke-linecap:square;stroke-linejoin:miter;stroke-width:0.8;"/>
   </g>
   <g id="patch_6">
    <path d="M 56.028488 10.999219 
L 413.148488 10.999219 
" style="fill:none;stroke:#000000;stroke-linecap:square;stroke-linejoin:miter;stroke-width:0.8;"/>
   </g>
   <g id="text_21">
    <g clip-path="url(#pe0573136b7)">
     <!-- 2.500 -->
     <g style="fill:#39558c;" transform="translate(96.271227 143.421878)rotate(-59.43598)scale(0.06 -0.06)">
      <use xlink:href="#DejaVuSans-50"/>
      <use x="63.623047" xlink:href="#DejaVuSans-46"/>
      <use x="95.410156" xlink:href="#DejaVuSans-53"/>
      <use x="159.033203" xlink:href="#DejaVuSans-48"/>
      <use x="222.65625" xlink:href="#DejaVuSans-48"/>
     </g>
    </g>
   </g>
   <g id="text_22">
    <g clip-path="url(#pe0573136b7)">
     <!-- 3.000 -->
     <g style="fill:#33638d;" transform="translate(134.967004 54.411183)rotate(-289.21136)scale(0.06 -0.06)">
      <use xlink:href="#DejaVuSans-51"/>
      <use x="63.623047" xlink:href="#DejaVuSans-46"/>
      <use x="95.410156" xlink:href="#DejaVuSans-48"/>
      <use x="159.033203" xlink:href="#DejaVuSans-48"/>
      <use x="222.65625" xlink:href="#DejaVuSans-48"/>
     </g>
    </g>
   </g>
   <g id="text_23">
    <g clip-path="url(#pe0573136b7)">
     <!-- 3.500 -->
     <g style="fill:#2d718e;" transform="translate(96.229768 179.362404)rotate(-285.668141)scale(0.06 -0.06)">
      <use xlink:href="#DejaVuSans-51"/>
      <use x="63.623047" xlink:href="#DejaVuSans-46"/>
      <use x="95.410156" xlink:href="#DejaVuSans-53"/>
      <use x="159.033203" xlink:href="#DejaVuSans-48"/>
      <use x="222.65625" xlink:href="#DejaVuSans-48"/>
     </g>
    </g>
   </g>
   <g id="text_24">
    <g clip-path="url(#pe0573136b7)">
     <!-- 4.000 -->
     <g style="fill:#287d8e;" transform="translate(175.231902 132.030312)rotate(-281.522073)scale(0.06 -0.06)">
      <use xlink:href="#DejaVuSans-52"/>
      <use x="63.623047" xlink:href="#DejaVuSans-46"/>
      <use x="95.410156" xlink:href="#DejaVuSans-48"/>
      <use x="159.033203" xlink:href="#DejaVuSans-48"/>
      <use x="222.65625" xlink:href="#DejaVuSans-48"/>
     </g>
    </g>
   </g>
   <g id="text_25">
    <g clip-path="url(#pe0573136b7)">
     <!-- 4.500 -->
     <g style="fill:#238a8d;" transform="translate(121.950346 223.358397)rotate(-345.611976)scale(0.06 -0.06)">
      <use xlink:href="#DejaVuSans-52"/>
      <use x="63.623047" xlink:href="#DejaVuSans-46"/>
      <use x="95.410156" xlink:href="#DejaVuSans-53"/>
      <use x="159.033203" xlink:href="#DejaVuSans-48"/>
      <use x="222.65625" xlink:href="#DejaVuSans-48"/>
     </g>
    </g>
   </g>
   <g id="text_26">
    <g clip-path="url(#pe0573136b7)">
     <!-- 5.000 -->
     <g style="fill:#1f968b;" transform="translate(117.959689 33.235351)rotate(-29.174239)scale(0.06 -0.06)">
      <use xlink:href="#DejaVuSans-53"/>
      <use x="63.623047" xlink:href="#DejaVuSans-46"/>
      <use x="95.410156" xlink:href="#DejaVuSans-48"/>
      <use x="159.033203" xlink:href="#DejaVuSans-48"/>
      <use x="222.65625" xlink:href="#DejaVuSans-48"/>
     </g>
    </g>
   </g>
   <g id="text_27">
    <g clip-path="url(#pe0573136b7)">
     <!-- 5.500 -->
     <g style="fill:#20a386;" transform="translate(182.341069 127.138215)rotate(-282.166544)scale(0.06 -0.06)">
      <use xlink:href="#DejaVuSans-53"/>
      <use x="63.623047" xlink:href="#DejaVuSans-46"/>
      <use x="95.410156" xlink:href="#DejaVuSans-53"/>
      <use x="159.033203" xlink:href="#DejaVuSans-48"/>
      <use x="222.65625" xlink:href="#DejaVuSans-48"/>
     </g>
    </g>
   </g>
   <g id="text_28">
    <g clip-path="url(#pe0573136b7)">
     <!-- 6.000 -->
     <g style="fill:#29af7f;" transform="translate(173.079322 100.879906)rotate(-297.97041)scale(0.06 -0.06)">
      <use xlink:href="#DejaVuSans-54"/>
      <use x="63.623047" xlink:href="#DejaVuSans-46"/>
      <use x="95.410156" xlink:href="#DejaVuSans-48"/>
      <use x="159.033203" xlink:href="#DejaVuSans-48"/>
      <use x="222.65625" xlink:href="#DejaVuSans-48"/>
     </g>
    </g>
   </g>
   <g id="text_29">
    <g clip-path="url(#pe0573136b7)">
     <!-- 6.500 -->
     <g style="fill:#3dbc74;" transform="translate(145.839024 222.048755)rotate(-9.024951)scale(0.06 -0.06)">
      <use xlink:href="#DejaVuSans-54"/>
      <use x="63.623047" xlink:href="#DejaVuSans-46"/>
      <use x="95.410156" xlink:href="#DejaVuSans-53"/>
      <use x="159.033203" xlink:href="#DejaVuSans-48"/>
      <use x="222.65625" xlink:href="#DejaVuSans-48"/>
     </g>
    </g>
   </g>
   <g id="text_30">
    <g clip-path="url(#pe0573136b7)">
     <!-- 7.000 -->
     <g style="fill:#56c667;" transform="translate(113.843634 63.770711)rotate(-72.493258)scale(0.06 -0.06)">
      <defs>
       <path d="M 8.203125 72.90625 
L 55.078125 72.90625 
L 55.078125 68.703125 
L 28.609375 0 
L 18.3125 0 
L 43.21875 64.59375 
L 8.203125 64.59375 
z
" id="DejaVuSans-55"/>
      </defs>
      <use xlink:href="#DejaVuSans-55"/>
      <use x="63.623047" xlink:href="#DejaVuSans-46"/>
      <use x="95.410156" xlink:href="#DejaVuSans-48"/>
      <use x="159.033203" xlink:href="#DejaVuSans-48"/>
      <use x="222.65625" xlink:href="#DejaVuSans-48"/>
     </g>
    </g>
   </g>
   <g id="text_31">
    <g clip-path="url(#pe0573136b7)">
     <!-- 7.500 -->
     <g style="fill:#75d054;" transform="translate(166.574598 238.701912)rotate(-24.895464)scale(0.06 -0.06)">
      <use xlink:href="#DejaVuSans-55"/>
      <use x="63.623047" xlink:href="#DejaVuSans-46"/>
      <use x="95.410156" xlink:href="#DejaVuSans-53"/>
      <use x="159.033203" xlink:href="#DejaVuSans-48"/>
      <use x="222.65625" xlink:href="#DejaVuSans-48"/>
     </g>
    </g>
   </g>
   <g id="text_32">
    <g clip-path="url(#pe0573136b7)">
     <!-- 8.000 -->
     <g style="fill:#95d840;" transform="translate(173.654858 93.312518)rotate(-302.147574)scale(0.06 -0.06)">
      <use xlink:href="#DejaVuSans-56"/>
      <use x="63.623047" xlink:href="#DejaVuSans-46"/>
      <use x="95.410156" xlink:href="#DejaVuSans-48"/>
      <use x="159.033203" xlink:href="#DejaVuSans-48"/>
      <use x="222.65625" xlink:href="#DejaVuSans-48"/>
     </g>
    </g>
   </g>
   <g id="text_33">
    <g clip-path="url(#pe0573136b7)">
     <!-- 8.500 -->
     <g style="fill:#bade28;" transform="translate(110.13376 90.695702)rotate(-82.246354)scale(0.06 -0.06)">
      <use xlink:href="#DejaVuSans-56"/>
      <use x="63.623047" xlink:href="#DejaVuSans-46"/>
      <use x="95.410156" xlink:href="#DejaVuSans-53"/>
      <use x="159.033203" xlink:href="#DejaVuSans-48"/>
      <use x="222.65625" xlink:href="#DejaVuSans-48"/>
     </g>
    </g>
   </g>
   <g id="text_34">
    <g clip-path="url(#pe0573136b7)">
     <!-- 9.000 -->
     <g style="fill:#dde318;" transform="translate(86.548408 153.32378)rotate(-273.476465)scale(0.06 -0.06)">
      <defs>
       <path d="M 10.984375 1.515625 
L 10.984375 10.5 
Q 14.703125 8.734375 18.5 7.8125 
Q 22.3125 6.890625 25.984375 6.890625 
Q 35.75 6.890625 40.890625 13.453125 
Q 46.046875 20.015625 46.78125 33.40625 
Q 43.953125 29.203125 39.59375 26.953125 
Q 35.25 24.703125 29.984375 24.703125 
Q 19.046875 24.703125 12.671875 31.3125 
Q 6.296875 37.9375 6.296875 49.421875 
Q 6.296875 60.640625 12.9375 67.421875 
Q 19.578125 74.21875 30.609375 74.21875 
Q 43.265625 74.21875 49.921875 64.515625 
Q 56.59375 54.828125 56.59375 36.375 
Q 56.59375 19.140625 48.40625 8.859375 
Q 40.234375 -1.421875 26.421875 -1.421875 
Q 22.703125 -1.421875 18.890625 -0.6875 
Q 15.09375 0.046875 10.984375 1.515625 
z
M 30.609375 32.421875 
Q 37.25 32.421875 41.125 36.953125 
Q 45.015625 41.5 45.015625 49.421875 
Q 45.015625 57.28125 41.125 61.84375 
Q 37.25 66.40625 30.609375 66.40625 
Q 23.96875 66.40625 20.09375 61.84375 
Q 16.21875 57.28125 16.21875 49.421875 
Q 16.21875 41.5 20.09375 36.953125 
Q 23.96875 32.421875 30.609375 32.421875 
z
" id="DejaVuSans-57"/>
      </defs>
      <use xlink:href="#DejaVuSans-57"/>
      <use x="63.623047" xlink:href="#DejaVuSans-46"/>
      <use x="95.410156" xlink:href="#DejaVuSans-48"/>
      <use x="159.033203" xlink:href="#DejaVuSans-48"/>
      <use x="222.65625" xlink:href="#DejaVuSans-48"/>
     </g>
    </g>
   </g>
   <g id="text_35">
    <g clip-path="url(#pe0573136b7)">
     <!-- 9.500 -->
     <g style="fill:#fde725;" transform="translate(86.193423 162.341824)rotate(-276.958544)scale(0.06 -0.06)">
      <use xlink:href="#DejaVuSans-57"/>
      <use x="63.623047" xlink:href="#DejaVuSans-46"/>
      <use x="95.410156" xlink:href="#DejaVuSans-53"/>
      <use x="159.033203" xlink:href="#DejaVuSans-48"/>
      <use x="222.65625" xlink:href="#DejaVuSans-48"/>
     </g>
    </g>
   </g>
   <g id="text_36">
    <g clip-path="url(#pe0573136b7)">
     <!-- 10.000 -->
     <g style="fill:#440154;" transform="translate(148.041109 63.649623)rotate(-288.347607)scale(0.06 -0.06)">
      <use xlink:href="#DejaVuSans-49"/>
      <use x="63.623047" xlink:href="#DejaVuSans-48"/>
      <use x="127.246094" xlink:href="#DejaVuSans-46"/>
      <use x="159.033203" xlink:href="#DejaVuSans-48"/>
      <use x="222.65625" xlink:href="#DejaVuSans-48"/>
      <use x="286.279297" xlink:href="#DejaVuSans-48"/>
     </g>
    </g>
   </g>
   <g id="text_37">
    <g clip-path="url(#pe0573136b7)">
     <!-- 100.000 -->
     <g style="fill:#440154;" transform="translate(83.136966 231.327147)rotate(-296.997273)scale(0.06 -0.06)">
      <use xlink:href="#DejaVuSans-49"/>
      <use x="63.623047" xlink:href="#DejaVuSans-48"/>
      <use x="127.246094" xlink:href="#DejaVuSans-48"/>
      <use x="190.869141" xlink:href="#DejaVuSans-46"/>
      <use x="222.65625" xlink:href="#DejaVuSans-48"/>
      <use x="286.279297" xlink:href="#DejaVuSans-48"/>
      <use x="349.902344" xlink:href="#DejaVuSans-48"/>
     </g>
    </g>
   </g>
   <g id="text_38">
    <g clip-path="url(#pe0573136b7)">
     <!-- 100.000 -->
     <g style="fill:#440154;" transform="translate(151.350434 65.497147)rotate(-351.472074)scale(0.06 -0.06)">
      <use xlink:href="#DejaVuSans-49"/>
      <use x="63.623047" xlink:href="#DejaVuSans-48"/>
      <use x="127.246094" xlink:href="#DejaVuSans-48"/>
      <use x="190.869141" xlink:href="#DejaVuSans-46"/>
      <use x="222.65625" xlink:href="#DejaVuSans-48"/>
      <use x="286.279297" xlink:href="#DejaVuSans-48"/>
      <use x="349.902344" xlink:href="#DejaVuSans-48"/>
     </g>
    </g>
   </g>
   <g id="text_39">
    <g clip-path="url(#pe0573136b7)">
     <!-- 1000.000 -->
     <g style="fill:#440154;" transform="translate(60.121335 172.73426)rotate(-80.184989)scale(0.06 -0.06)">
      <use xlink:href="#DejaVuSans-49"/>
      <use x="63.623047" xlink:href="#DejaVuSans-48"/>
      <use x="127.246094" xlink:href="#DejaVuSans-48"/>
      <use x="190.869141" xlink:href="#DejaVuSans-48"/>
      <use x="254.492188" xlink:href="#DejaVuSans-46"/>
      <use x="286.279297" xlink:href="#DejaVuSans-48"/>
      <use x="349.902344" xlink:href="#DejaVuSans-48"/>
      <use x="413.525391" xlink:href="#DejaVuSans-48"/>
     </g>
    </g>
   </g>
   <g id="text_40">
    <g clip-path="url(#pe0573136b7)">
     <!-- 1000.000 -->
     <g style="fill:#440154;" transform="translate(155.588098 45.83844)rotate(-17.265517)scale(0.06 -0.06)">
      <use xlink:href="#DejaVuSans-49"/>
      <use x="63.623047" xlink:href="#DejaVuSans-48"/>
      <use x="127.246094" xlink:href="#DejaVuSans-48"/>
      <use x="190.869141" xlink:href="#DejaVuSans-48"/>
      <use x="254.492188" xlink:href="#DejaVuSans-46"/>
      <use x="286.279297" xlink:href="#DejaVuSans-48"/>
      <use x="349.902344" xlink:href="#DejaVuSans-48"/>
      <use x="413.525391" xlink:href="#DejaVuSans-48"/>
     </g>
    </g>
   </g>
   <g id="text_41">
    <g clip-path="url(#pe0573136b7)">
     <!-- 10000.000 -->
     <g style="fill:#440154;" transform="translate(59.608717 226.276615)rotate(-283.875283)scale(0.06 -0.06)">
      <use xlink:href="#DejaVuSans-49"/>
      <use x="63.623047" xlink:href="#DejaVuSans-48"/>
      <use x="127.246094" xlink:href="#DejaVuSans-48"/>
      <use x="190.869141" xlink:href="#DejaVuSans-48"/>
      <use x="254.492188" xlink:href="#DejaVuSans-48"/>
      <use x="318.115234" xlink:href="#DejaVuSans-46"/>
      <use x="349.902344" xlink:href="#DejaVuSans-48"/>
      <use x="413.525391" xlink:href="#DejaVuSans-48"/>
      <use x="477.148438" xlink:href="#DejaVuSans-48"/>
     </g>
    </g>
   </g>
   <g id="text_42">
    <g clip-path="url(#pe0573136b7)">
     <!-- 10000.000 -->
     <g style="fill:#440154;" transform="translate(83.020034 105.237511)rotate(-57.502057)scale(0.06 -0.06)">
      <use xlink:href="#DejaVuSans-49"/>
      <use x="63.623047" xlink:href="#DejaVuSans-48"/>
      <use x="127.246094" xlink:href="#DejaVuSans-48"/>
      <use x="190.869141" xlink:href="#DejaVuSans-48"/>
      <use x="254.492188" xlink:href="#DejaVuSans-48"/>
      <use x="318.115234" xlink:href="#DejaVuSans-46"/>
      <use x="349.902344" xlink:href="#DejaVuSans-48"/>
      <use x="413.525391" xlink:href="#DejaVuSans-48"/>
      <use x="477.148438" xlink:href="#DejaVuSans-48"/>
     </g>
    </g>
   </g>
   <g id="text_43">
    <g clip-path="url(#pe0573136b7)">
     <!-- 100000.000 -->
     <g style="fill:#440154;" transform="translate(82.907917 97.679763)rotate(-60.691917)scale(0.06 -0.06)">
      <use xlink:href="#DejaVuSans-49"/>
      <use x="63.623047" xlink:href="#DejaVuSans-48"/>
      <use x="127.246094" xlink:href="#DejaVuSans-48"/>
      <use x="190.869141" xlink:href="#DejaVuSans-48"/>
      <use x="254.492188" xlink:href="#DejaVuSans-48"/>
      <use x="318.115234" xlink:href="#DejaVuSans-48"/>
      <use x="381.738281" xlink:href="#DejaVuSans-46"/>
      <use x="413.525391" xlink:href="#DejaVuSans-48"/>
      <use x="477.148438" xlink:href="#DejaVuSans-48"/>
      <use x="540.771484" xlink:href="#DejaVuSans-48"/>
     </g>
    </g>
   </g>
   <g id="text_44">
    <g clip-path="url(#pe0573136b7)">
     <!-- 1000000.000 -->
     <g style="fill:#450457;" transform="translate(80.275295 91.598965)rotate(-62.250592)scale(0.06 -0.06)">
      <use xlink:href="#DejaVuSans-49"/>
      <use x="63.623047" xlink:href="#DejaVuSans-48"/>
      <use x="127.246094" xlink:href="#DejaVuSans-48"/>
      <use x="190.869141" xlink:href="#DejaVuSans-48"/>
      <use x="254.492188" xlink:href="#DejaVuSans-48"/>
      <use x="318.115234" xlink:href="#DejaVuSans-48"/>
      <use x="381.738281" xlink:href="#DejaVuSans-48"/>
      <use x="445.361328" xlink:href="#DejaVuSans-46"/>
      <use x="477.148438" xlink:href="#DejaVuSans-48"/>
      <use x="540.771484" xlink:href="#DejaVuSans-48"/>
      <use x="604.394531" xlink:href="#DejaVuSans-48"/>
     </g>
    </g>
   </g>
   <g id="text_45">
    <g clip-path="url(#pe0573136b7)">
     <!-- 10000000.000 -->
     <g style="fill:#482475;" transform="translate(76.834152 84.496635)rotate(-62.772055)scale(0.06 -0.06)">
      <use xlink:href="#DejaVuSans-49"/>
      <use x="63.623047" xlink:href="#DejaVuSans-48"/>
      <use x="127.246094" xlink:href="#DejaVuSans-48"/>
      <use x="190.869141" xlink:href="#DejaVuSans-48"/>
      <use x="254.492188" xlink:href="#DejaVuSans-48"/>
      <use x="318.115234" xlink:href="#DejaVuSans-48"/>
      <use x="381.738281" xlink:href="#DejaVuSans-48"/>
      <use x="445.361328" xlink:href="#DejaVuSans-48"/>
      <use x="508.984375" xlink:href="#DejaVuSans-46"/>
      <use x="540.771484" xlink:href="#DejaVuSans-48"/>
      <use x="604.394531" xlink:href="#DejaVuSans-48"/>
      <use x="668.017578" xlink:href="#DejaVuSans-48"/>
     </g>
    </g>
   </g>
   <g id="text_46">
    <g clip-path="url(#pe0573136b7)">
     <!-- 100000000.000 -->
     <g style="fill:#fde725;" transform="translate(71.323987 83.520346)rotate(-63.373294)scale(0.06 -0.06)">
      <use xlink:href="#DejaVuSans-49"/>
      <use x="63.623047" xlink:href="#DejaVuSans-48"/>
      <use x="127.246094" xlink:href="#DejaVuSans-48"/>
      <use x="190.869141" xlink:href="#DejaVuSans-48"/>
      <use x="254.492188" xlink:href="#DejaVuSans-48"/>
      <use x="318.115234" xlink:href="#DejaVuSans-48"/>
      <use x="381.738281" xlink:href="#DejaVuSans-48"/>
      <use x="445.361328" xlink:href="#DejaVuSans-48"/>
      <use x="508.984375" xlink:href="#DejaVuSans-48"/>
      <use x="572.607422" xlink:href="#DejaVuSans-46"/>
      <use x="604.394531" xlink:href="#DejaVuSans-48"/>
      <use x="668.017578" xlink:href="#DejaVuSans-48"/>
      <use x="731.640625" xlink:href="#DejaVuSans-48"/>
     </g>
    </g>
   </g>
  </g>
 </g>
 <defs>
  <clipPath id="pe0573136b7">
   <rect height="266.112" width="357.12" x="56.028488" y="10.999219"/>
  </clipPath>
 </defs>
</svg>
