<?xml version="1.0" encoding="utf-8" standalone="no"?>
<!DOCTYPE svg PUBLIC "-//W3C//DTD SVG 1.1//EN"
  "http://www.w3.org/Graphics/SVG/1.1/DTD/svg11.dtd">
<!-- Created with matplotlib (https://matplotlib.org/) -->
<svg height="321.713144pt" version="1.1" viewBox="0 0 420.348487 321.713144" width="420.348487pt" xmlns="http://www.w3.org/2000/svg" xmlns:xlink="http://www.w3.org/1999/xlink">
 <metadata>
  <rdf:RDF xmlns:cc="http://creativecommons.org/ns#" xmlns:dc="http://purl.org/dc/elements/1.1/" xmlns:rdf="http://www.w3.org/1999/02/22-rdf-syntax-ns#">
   <cc:Work>
    <dc:type rdf:resource="http://purl.org/dc/dcmitype/StillImage"/>
    <dc:date>2021-09-21T23:35:58.179900</dc:date>
    <dc:format>image/svg+xml</dc:format>
    <dc:creator>
     <cc:Agent>
      <dc:title>Matplotlib v3.3.1, https://matplotlib.org/</dc:title>
     </cc:Agent>
    </dc:creator>
   </cc:Work>
  </rdf:RDF>
 </metadata>
 <defs>
  <style type="text/css">*{stroke-linecap:butt;stroke-linejoin:round;}</style>
 </defs>
 <g id="figure_1">
  <g id="patch_1">
   <path d="M 0 321.713144 
L 420.348487 321.713144 
L 420.348487 0 
L 0 0 
z
" style="fill:#ffffff;"/>
  </g>
  <g id="axes_1">
   <g id="patch_2">
    <path d="M 56.028488 277.111219 
L 413.148488 277.111219 
L 413.148488 10.999219 
L 56.028488 10.999219 
z
" style="fill:#ffffff;"/>
   </g>
   <g id="matplotlib.axis_1">
    <g id="xtick_1">
     <g id="line2d_1">
      <defs>
       <path d="M 0 0 
L 0 3.5 
" id="m4600545c94" style="stroke:#000000;stroke-width:0.8;"/>
      </defs>
      <g>
       <use style="stroke:#000000;stroke-width:0.8;" x="56.028488" xlink:href="#m4600545c94" y="277.111219"/>
      </g>
     </g>
     <g id="text_1">
      <!-- −20 -->
      <g transform="translate(45.476144 291.709656)scale(0.1 -0.1)">
       <defs>
        <path d="M 10.59375 35.5 
L 73.1875 35.5 
L 73.1875 27.203125 
L 10.59375 27.203125 
z
" id="DejaVuSans-8722"/>
        <path d="M 19.1875 8.296875 
L 53.609375 8.296875 
L 53.609375 0 
L 7.328125 0 
L 7.328125 8.296875 
Q 12.9375 14.109375 22.625 23.890625 
Q 32.328125 33.6875 34.8125 36.53125 
Q 39.546875 41.84375 41.421875 45.53125 
Q 43.3125 49.21875 43.3125 52.78125 
Q 43.3125 58.59375 39.234375 62.25 
Q 35.15625 65.921875 28.609375 65.921875 
Q 23.96875 65.921875 18.8125 64.3125 
Q 13.671875 62.703125 7.8125 59.421875 
L 7.8125 69.390625 
Q 13.765625 71.78125 18.9375 73 
Q 24.125 74.21875 28.421875 74.21875 
Q 39.75 74.21875 46.484375 68.546875 
Q 53.21875 62.890625 53.21875 53.421875 
Q 53.21875 48.921875 51.53125 44.890625 
Q 49.859375 40.875 45.40625 35.40625 
Q 44.1875 33.984375 37.640625 27.21875 
Q 31.109375 20.453125 19.1875 8.296875 
z
" id="DejaVuSans-50"/>
        <path d="M 31.78125 66.40625 
Q 24.171875 66.40625 20.328125 58.90625 
Q 16.5 51.421875 16.5 36.375 
Q 16.5 21.390625 20.328125 13.890625 
Q 24.171875 6.390625 31.78125 6.390625 
Q 39.453125 6.390625 43.28125 13.890625 
Q 47.125 21.390625 47.125 36.375 
Q 47.125 51.421875 43.28125 58.90625 
Q 39.453125 66.40625 31.78125 66.40625 
z
M 31.78125 74.21875 
Q 44.046875 74.21875 50.515625 64.515625 
Q 56.984375 54.828125 56.984375 36.375 
Q 56.984375 17.96875 50.515625 8.265625 
Q 44.046875 -1.421875 31.78125 -1.421875 
Q 19.53125 -1.421875 13.0625 8.265625 
Q 6.59375 17.96875 6.59375 36.375 
Q 6.59375 54.828125 13.0625 64.515625 
Q 19.53125 74.21875 31.78125 74.21875 
z
" id="DejaVuSans-48"/>
       </defs>
       <use xlink:href="#DejaVuSans-8722"/>
       <use x="83.789062" xlink:href="#DejaVuSans-50"/>
       <use x="147.412109" xlink:href="#DejaVuSans-48"/>
      </g>
     </g>
    </g>
    <g id="xtick_2">
     <g id="line2d_2">
      <g>
       <use style="stroke:#000000;stroke-width:0.8;" x="98.042605" xlink:href="#m4600545c94" y="277.111219"/>
      </g>
     </g>
     <g id="text_2">
      <!-- 0 -->
      <g transform="translate(94.861355 291.709656)scale(0.1 -0.1)">
       <use xlink:href="#DejaVuSans-48"/>
      </g>
     </g>
    </g>
    <g id="xtick_3">
     <g id="line2d_3">
      <g>
       <use style="stroke:#000000;stroke-width:0.8;" x="140.056723" xlink:href="#m4600545c94" y="277.111219"/>
      </g>
     </g>
     <g id="text_3">
      <!-- 20 -->
      <g transform="translate(133.694223 291.709656)scale(0.1 -0.1)">
       <use xlink:href="#DejaVuSans-50"/>
       <use x="63.623047" xlink:href="#DejaVuSans-48"/>
      </g>
     </g>
    </g>
    <g id="xtick_4">
     <g id="line2d_4">
      <g>
       <use style="stroke:#000000;stroke-width:0.8;" x="182.07084" xlink:href="#m4600545c94" y="277.111219"/>
      </g>
     </g>
     <g id="text_4">
      <!-- 40 -->
      <g transform="translate(175.70834 291.709656)scale(0.1 -0.1)">
       <defs>
        <path d="M 37.796875 64.3125 
L 12.890625 25.390625 
L 37.796875 25.390625 
z
M 35.203125 72.90625 
L 47.609375 72.90625 
L 47.609375 25.390625 
L 58.015625 25.390625 
L 58.015625 17.1875 
L 47.609375 17.1875 
L 47.609375 0 
L 37.796875 0 
L 37.796875 17.1875 
L 4.890625 17.1875 
L 4.890625 26.703125 
z
" id="DejaVuSans-52"/>
       </defs>
       <use xlink:href="#DejaVuSans-52"/>
       <use x="63.623047" xlink:href="#DejaVuSans-48"/>
      </g>
     </g>
    </g>
    <g id="xtick_5">
     <g id="line2d_5">
      <g>
       <use style="stroke:#000000;stroke-width:0.8;" x="224.084958" xlink:href="#m4600545c94" y="277.111219"/>
      </g>
     </g>
     <g id="text_5">
      <!-- 60 -->
      <g transform="translate(217.722458 291.709656)scale(0.1 -0.1)">
       <defs>
        <path d="M 33.015625 40.375 
Q 26.375 40.375 22.484375 35.828125 
Q 18.609375 31.296875 18.609375 23.390625 
Q 18.609375 15.53125 22.484375 10.953125 
Q 26.375 6.390625 33.015625 6.390625 
Q 39.65625 6.390625 43.53125 10.953125 
Q 47.40625 15.53125 47.40625 23.390625 
Q 47.40625 31.296875 43.53125 35.828125 
Q 39.65625 40.375 33.015625 40.375 
z
M 52.59375 71.296875 
L 52.59375 62.3125 
Q 48.875 64.0625 45.09375 64.984375 
Q 41.3125 65.921875 37.59375 65.921875 
Q 27.828125 65.921875 22.671875 59.328125 
Q 17.53125 52.734375 16.796875 39.40625 
Q 19.671875 43.65625 24.015625 45.921875 
Q 28.375 48.1875 33.59375 48.1875 
Q 44.578125 48.1875 50.953125 41.515625 
Q 57.328125 34.859375 57.328125 23.390625 
Q 57.328125 12.15625 50.6875 5.359375 
Q 44.046875 -1.421875 33.015625 -1.421875 
Q 20.359375 -1.421875 13.671875 8.265625 
Q 6.984375 17.96875 6.984375 36.375 
Q 6.984375 53.65625 15.1875 63.9375 
Q 23.390625 74.21875 37.203125 74.21875 
Q 40.921875 74.21875 44.703125 73.484375 
Q 48.484375 72.75 52.59375 71.296875 
z
" id="DejaVuSans-54"/>
       </defs>
       <use xlink:href="#DejaVuSans-54"/>
       <use x="63.623047" xlink:href="#DejaVuSans-48"/>
      </g>
     </g>
    </g>
    <g id="xtick_6">
     <g id="line2d_6">
      <g>
       <use style="stroke:#000000;stroke-width:0.8;" x="266.099076" xlink:href="#m4600545c94" y="277.111219"/>
      </g>
     </g>
     <g id="text_6">
      <!-- 80 -->
      <g transform="translate(259.736576 291.709656)scale(0.1 -0.1)">
       <defs>
        <path d="M 31.78125 34.625 
Q 24.75 34.625 20.71875 30.859375 
Q 16.703125 27.09375 16.703125 20.515625 
Q 16.703125 13.921875 20.71875 10.15625 
Q 24.75 6.390625 31.78125 6.390625 
Q 38.8125 6.390625 42.859375 10.171875 
Q 46.921875 13.96875 46.921875 20.515625 
Q 46.921875 27.09375 42.890625 30.859375 
Q 38.875 34.625 31.78125 34.625 
z
M 21.921875 38.8125 
Q 15.578125 40.375 12.03125 44.71875 
Q 8.5 49.078125 8.5 55.328125 
Q 8.5 64.0625 14.71875 69.140625 
Q 20.953125 74.21875 31.78125 74.21875 
Q 42.671875 74.21875 48.875 69.140625 
Q 55.078125 64.0625 55.078125 55.328125 
Q 55.078125 49.078125 51.53125 44.71875 
Q 48 40.375 41.703125 38.8125 
Q 48.828125 37.15625 52.796875 32.3125 
Q 56.78125 27.484375 56.78125 20.515625 
Q 56.78125 9.90625 50.3125 4.234375 
Q 43.84375 -1.421875 31.78125 -1.421875 
Q 19.734375 -1.421875 13.25 4.234375 
Q 6.78125 9.90625 6.78125 20.515625 
Q 6.78125 27.484375 10.78125 32.3125 
Q 14.796875 37.15625 21.921875 38.8125 
z
M 18.3125 54.390625 
Q 18.3125 48.734375 21.84375 45.5625 
Q 25.390625 42.390625 31.78125 42.390625 
Q 38.140625 42.390625 41.71875 45.5625 
Q 45.3125 48.734375 45.3125 54.390625 
Q 45.3125 60.0625 41.71875 63.234375 
Q 38.140625 66.40625 31.78125 66.40625 
Q 25.390625 66.40625 21.84375 63.234375 
Q 18.3125 60.0625 18.3125 54.390625 
z
" id="DejaVuSans-56"/>
       </defs>
       <use xlink:href="#DejaVuSans-56"/>
       <use x="63.623047" xlink:href="#DejaVuSans-48"/>
      </g>
     </g>
    </g>
    <g id="xtick_7">
     <g id="line2d_7">
      <g>
       <use style="stroke:#000000;stroke-width:0.8;" x="308.113193" xlink:href="#m4600545c94" y="277.111219"/>
      </g>
     </g>
     <g id="text_7">
      <!-- 100 -->
      <g transform="translate(298.569443 291.709656)scale(0.1 -0.1)">
       <defs>
        <path d="M 12.40625 8.296875 
L 28.515625 8.296875 
L 28.515625 63.921875 
L 10.984375 60.40625 
L 10.984375 69.390625 
L 28.421875 72.90625 
L 38.28125 72.90625 
L 38.28125 8.296875 
L 54.390625 8.296875 
L 54.390625 0 
L 12.40625 0 
z
" id="DejaVuSans-49"/>
       </defs>
       <use xlink:href="#DejaVuSans-49"/>
       <use x="63.623047" xlink:href="#DejaVuSans-48"/>
       <use x="127.246094" xlink:href="#DejaVuSans-48"/>
      </g>
     </g>
    </g>
    <g id="xtick_8">
     <g id="line2d_8">
      <g>
       <use style="stroke:#000000;stroke-width:0.8;" x="350.127311" xlink:href="#m4600545c94" y="277.111219"/>
      </g>
     </g>
     <g id="text_8">
      <!-- 120 -->
      <g transform="translate(340.583561 291.709656)scale(0.1 -0.1)">
       <use xlink:href="#DejaVuSans-49"/>
       <use x="63.623047" xlink:href="#DejaVuSans-50"/>
       <use x="127.246094" xlink:href="#DejaVuSans-48"/>
      </g>
     </g>
    </g>
    <g id="xtick_9">
     <g id="line2d_9">
      <g>
       <use style="stroke:#000000;stroke-width:0.8;" x="392.141429" xlink:href="#m4600545c94" y="277.111219"/>
      </g>
     </g>
     <g id="text_9">
      <!-- 140 -->
      <g transform="translate(382.597679 291.709656)scale(0.1 -0.1)">
       <use xlink:href="#DejaVuSans-49"/>
       <use x="63.623047" xlink:href="#DejaVuSans-52"/>
       <use x="127.246094" xlink:href="#DejaVuSans-48"/>
      </g>
     </g>
    </g>
    <g id="text_10">
     <!-- 1st PC: 85.65 % -->
     <g transform="translate(165.868088 310.919444)scale(0.1728 -0.1728)">
      <defs>
       <path d="M 44.28125 53.078125 
L 44.28125 44.578125 
Q 40.484375 46.53125 36.375 47.5 
Q 32.28125 48.484375 27.875 48.484375 
Q 21.1875 48.484375 17.84375 46.4375 
Q 14.5 44.390625 14.5 40.28125 
Q 14.5 37.15625 16.890625 35.375 
Q 19.28125 33.59375 26.515625 31.984375 
L 29.59375 31.296875 
Q 39.15625 29.25 43.1875 25.515625 
Q 47.21875 21.78125 47.21875 15.09375 
Q 47.21875 7.46875 41.1875 3.015625 
Q 35.15625 -1.421875 24.609375 -1.421875 
Q 20.21875 -1.421875 15.453125 -0.5625 
Q 10.6875 0.296875 5.421875 2 
L 5.421875 11.28125 
Q 10.40625 8.6875 15.234375 7.390625 
Q 20.0625 6.109375 24.8125 6.109375 
Q 31.15625 6.109375 34.5625 8.28125 
Q 37.984375 10.453125 37.984375 14.40625 
Q 37.984375 18.0625 35.515625 20.015625 
Q 33.0625 21.96875 24.703125 23.78125 
L 21.578125 24.515625 
Q 13.234375 26.265625 9.515625 29.90625 
Q 5.8125 33.546875 5.8125 39.890625 
Q 5.8125 47.609375 11.28125 51.796875 
Q 16.75 56 26.8125 56 
Q 31.78125 56 36.171875 55.265625 
Q 40.578125 54.546875 44.28125 53.078125 
z
" id="DejaVuSans-115"/>
       <path d="M 18.3125 70.21875 
L 18.3125 54.6875 
L 36.8125 54.6875 
L 36.8125 47.703125 
L 18.3125 47.703125 
L 18.3125 18.015625 
Q 18.3125 11.328125 20.140625 9.421875 
Q 21.96875 7.515625 27.59375 7.515625 
L 36.8125 7.515625 
L 36.8125 0 
L 27.59375 0 
Q 17.1875 0 13.234375 3.875 
Q 9.28125 7.765625 9.28125 18.015625 
L 9.28125 47.703125 
L 2.6875 47.703125 
L 2.6875 54.6875 
L 9.28125 54.6875 
L 9.28125 70.21875 
z
" id="DejaVuSans-116"/>
       <path id="DejaVuSans-32"/>
       <path d="M 19.671875 64.796875 
L 19.671875 37.40625 
L 32.078125 37.40625 
Q 38.96875 37.40625 42.71875 40.96875 
Q 46.484375 44.53125 46.484375 51.125 
Q 46.484375 57.671875 42.71875 61.234375 
Q 38.96875 64.796875 32.078125 64.796875 
z
M 9.8125 72.90625 
L 32.078125 72.90625 
Q 44.34375 72.90625 50.609375 67.359375 
Q 56.890625 61.8125 56.890625 51.125 
Q 56.890625 40.328125 50.609375 34.8125 
Q 44.34375 29.296875 32.078125 29.296875 
L 19.671875 29.296875 
L 19.671875 0 
L 9.8125 0 
z
" id="DejaVuSans-80"/>
       <path d="M 64.40625 67.28125 
L 64.40625 56.890625 
Q 59.421875 61.53125 53.78125 63.8125 
Q 48.140625 66.109375 41.796875 66.109375 
Q 29.296875 66.109375 22.65625 58.46875 
Q 16.015625 50.828125 16.015625 36.375 
Q 16.015625 21.96875 22.65625 14.328125 
Q 29.296875 6.6875 41.796875 6.6875 
Q 48.140625 6.6875 53.78125 8.984375 
Q 59.421875 11.28125 64.40625 15.921875 
L 64.40625 5.609375 
Q 59.234375 2.09375 53.4375 0.328125 
Q 47.65625 -1.421875 41.21875 -1.421875 
Q 24.65625 -1.421875 15.125 8.703125 
Q 5.609375 18.84375 5.609375 36.375 
Q 5.609375 53.953125 15.125 64.078125 
Q 24.65625 74.21875 41.21875 74.21875 
Q 47.75 74.21875 53.53125 72.484375 
Q 59.328125 70.75 64.40625 67.28125 
z
" id="DejaVuSans-67"/>
       <path d="M 11.71875 12.40625 
L 22.015625 12.40625 
L 22.015625 0 
L 11.71875 0 
z
M 11.71875 51.703125 
L 22.015625 51.703125 
L 22.015625 39.3125 
L 11.71875 39.3125 
z
" id="DejaVuSans-58"/>
       <path d="M 10.796875 72.90625 
L 49.515625 72.90625 
L 49.515625 64.59375 
L 19.828125 64.59375 
L 19.828125 46.734375 
Q 21.96875 47.46875 24.109375 47.828125 
Q 26.265625 48.1875 28.421875 48.1875 
Q 40.625 48.1875 47.75 41.5 
Q 54.890625 34.8125 54.890625 23.390625 
Q 54.890625 11.625 47.5625 5.09375 
Q 40.234375 -1.421875 26.90625 -1.421875 
Q 22.3125 -1.421875 17.546875 -0.640625 
Q 12.796875 0.140625 7.71875 1.703125 
L 7.71875 11.625 
Q 12.109375 9.234375 16.796875 8.0625 
Q 21.484375 6.890625 26.703125 6.890625 
Q 35.15625 6.890625 40.078125 11.328125 
Q 45.015625 15.765625 45.015625 23.390625 
Q 45.015625 31 40.078125 35.4375 
Q 35.15625 39.890625 26.703125 39.890625 
Q 22.75 39.890625 18.8125 39.015625 
Q 14.890625 38.140625 10.796875 36.28125 
z
" id="DejaVuSans-53"/>
       <path d="M 10.6875 12.40625 
L 21 12.40625 
L 21 0 
L 10.6875 0 
z
" id="DejaVuSans-46"/>
       <path d="M 72.703125 32.078125 
Q 68.453125 32.078125 66.03125 28.46875 
Q 63.625 24.859375 63.625 18.40625 
Q 63.625 12.0625 66.03125 8.421875 
Q 68.453125 4.78125 72.703125 4.78125 
Q 76.859375 4.78125 79.265625 8.421875 
Q 81.6875 12.0625 81.6875 18.40625 
Q 81.6875 24.8125 79.265625 28.4375 
Q 76.859375 32.078125 72.703125 32.078125 
z
M 72.703125 38.28125 
Q 80.421875 38.28125 84.953125 32.90625 
Q 89.5 27.546875 89.5 18.40625 
Q 89.5 9.28125 84.9375 3.921875 
Q 80.375 -1.421875 72.703125 -1.421875 
Q 64.890625 -1.421875 60.34375 3.921875 
Q 55.8125 9.28125 55.8125 18.40625 
Q 55.8125 27.59375 60.375 32.9375 
Q 64.9375 38.28125 72.703125 38.28125 
z
M 22.3125 68.015625 
Q 18.109375 68.015625 15.6875 64.375 
Q 13.28125 60.75 13.28125 54.390625 
Q 13.28125 47.953125 15.671875 44.328125 
Q 18.0625 40.71875 22.3125 40.71875 
Q 26.5625 40.71875 28.96875 44.328125 
Q 31.390625 47.953125 31.390625 54.390625 
Q 31.390625 60.6875 28.953125 64.34375 
Q 26.515625 68.015625 22.3125 68.015625 
z
M 66.40625 74.21875 
L 74.21875 74.21875 
L 28.609375 -1.421875 
L 20.796875 -1.421875 
z
M 22.3125 74.21875 
Q 30.03125 74.21875 34.609375 68.875 
Q 39.203125 63.53125 39.203125 54.390625 
Q 39.203125 45.171875 34.640625 39.84375 
Q 30.078125 34.515625 22.3125 34.515625 
Q 14.546875 34.515625 10.03125 39.859375 
Q 5.515625 45.21875 5.515625 54.390625 
Q 5.515625 63.484375 10.046875 68.84375 
Q 14.59375 74.21875 22.3125 74.21875 
z
" id="DejaVuSans-37"/>
      </defs>
      <use xlink:href="#DejaVuSans-49"/>
      <use x="63.623047" xlink:href="#DejaVuSans-115"/>
      <use x="115.722656" xlink:href="#DejaVuSans-116"/>
      <use x="154.931641" xlink:href="#DejaVuSans-32"/>
      <use x="186.71875" xlink:href="#DejaVuSans-80"/>
      <use x="247.021484" xlink:href="#DejaVuSans-67"/>
      <use x="316.845703" xlink:href="#DejaVuSans-58"/>
      <use x="350.537109" xlink:href="#DejaVuSans-32"/>
      <use x="382.324219" xlink:href="#DejaVuSans-56"/>
      <use x="445.947266" xlink:href="#DejaVuSans-53"/>
      <use x="509.570312" xlink:href="#DejaVuSans-46"/>
      <use x="541.357422" xlink:href="#DejaVuSans-54"/>
      <use x="604.980469" xlink:href="#DejaVuSans-53"/>
      <use x="668.603516" xlink:href="#DejaVuSans-32"/>
      <use x="700.390625" xlink:href="#DejaVuSans-37"/>
     </g>
    </g>
   </g>
   <g id="matplotlib.axis_2">
    <g id="ytick_1">
     <g id="line2d_10">
      <defs>
       <path d="M 0 0 
L -3.5 0 
" id="m3a2bec49a0" style="stroke:#000000;stroke-width:0.8;"/>
      </defs>
      <g>
       <use style="stroke:#000000;stroke-width:0.8;" x="56.028488" xlink:href="#m3a2bec49a0" y="277.111219"/>
      </g>
     </g>
     <g id="text_11">
      <!-- −20 -->
      <g transform="translate(27.9238 280.910437)scale(0.1 -0.1)">
       <use xlink:href="#DejaVuSans-8722"/>
       <use x="83.789062" xlink:href="#DejaVuSans-50"/>
       <use x="147.412109" xlink:href="#DejaVuSans-48"/>
      </g>
     </g>
    </g>
    <g id="ytick_2">
     <g id="line2d_11">
      <g>
       <use style="stroke:#000000;stroke-width:0.8;" x="56.028488" xlink:href="#m3a2bec49a0" y="243.847219"/>
      </g>
     </g>
     <g id="text_12">
      <!-- −15 -->
      <g transform="translate(27.9238 247.646437)scale(0.1 -0.1)">
       <use xlink:href="#DejaVuSans-8722"/>
       <use x="83.789062" xlink:href="#DejaVuSans-49"/>
       <use x="147.412109" xlink:href="#DejaVuSans-53"/>
      </g>
     </g>
    </g>
    <g id="ytick_3">
     <g id="line2d_12">
      <g>
       <use style="stroke:#000000;stroke-width:0.8;" x="56.028488" xlink:href="#m3a2bec49a0" y="210.583219"/>
      </g>
     </g>
     <g id="text_13">
      <!-- −10 -->
      <g transform="translate(27.9238 214.382437)scale(0.1 -0.1)">
       <use xlink:href="#DejaVuSans-8722"/>
       <use x="83.789062" xlink:href="#DejaVuSans-49"/>
       <use x="147.412109" xlink:href="#DejaVuSans-48"/>
      </g>
     </g>
    </g>
    <g id="ytick_4">
     <g id="line2d_13">
      <g>
       <use style="stroke:#000000;stroke-width:0.8;" x="56.028488" xlink:href="#m3a2bec49a0" y="177.319219"/>
      </g>
     </g>
     <g id="text_14">
      <!-- −5 -->
      <g transform="translate(34.2863 181.118437)scale(0.1 -0.1)">
       <use xlink:href="#DejaVuSans-8722"/>
       <use x="83.789062" xlink:href="#DejaVuSans-53"/>
      </g>
     </g>
    </g>
    <g id="ytick_5">
     <g id="line2d_14">
      <g>
       <use style="stroke:#000000;stroke-width:0.8;" x="56.028488" xlink:href="#m3a2bec49a0" y="144.055219"/>
      </g>
     </g>
     <g id="text_15">
      <!-- 0 -->
      <g transform="translate(42.665987 147.854437)scale(0.1 -0.1)">
       <use xlink:href="#DejaVuSans-48"/>
      </g>
     </g>
    </g>
    <g id="ytick_6">
     <g id="line2d_15">
      <g>
       <use style="stroke:#000000;stroke-width:0.8;" x="56.028488" xlink:href="#m3a2bec49a0" y="110.791219"/>
      </g>
     </g>
     <g id="text_16">
      <!-- 5 -->
      <g transform="translate(42.665987 114.590437)scale(0.1 -0.1)">
       <use xlink:href="#DejaVuSans-53"/>
      </g>
     </g>
    </g>
    <g id="ytick_7">
     <g id="line2d_16">
      <g>
       <use style="stroke:#000000;stroke-width:0.8;" x="56.028488" xlink:href="#m3a2bec49a0" y="77.527219"/>
      </g>
     </g>
     <g id="text_17">
      <!-- 10 -->
      <g transform="translate(36.303488 81.326437)scale(0.1 -0.1)">
       <use xlink:href="#DejaVuSans-49"/>
       <use x="63.623047" xlink:href="#DejaVuSans-48"/>
      </g>
     </g>
    </g>
    <g id="ytick_8">
     <g id="line2d_17">
      <g>
       <use style="stroke:#000000;stroke-width:0.8;" x="56.028488" xlink:href="#m3a2bec49a0" y="44.263219"/>
      </g>
     </g>
     <g id="text_18">
      <!-- 15 -->
      <g transform="translate(36.303488 48.062437)scale(0.1 -0.1)">
       <use xlink:href="#DejaVuSans-49"/>
       <use x="63.623047" xlink:href="#DejaVuSans-53"/>
      </g>
     </g>
    </g>
    <g id="ytick_9">
     <g id="line2d_18">
      <g>
       <use style="stroke:#000000;stroke-width:0.8;" x="56.028488" xlink:href="#m3a2bec49a0" y="10.999219"/>
      </g>
     </g>
     <g id="text_19">
      <!-- 20 -->
      <g transform="translate(36.303488 14.798437)scale(0.1 -0.1)">
       <use xlink:href="#DejaVuSans-50"/>
       <use x="63.623047" xlink:href="#DejaVuSans-48"/>
      </g>
     </g>
    </g>
    <g id="text_20">
     <!-- 2nd PC: 6.76 % -->
     <g transform="translate(20.3301 210.351019)rotate(-90)scale(0.1728 -0.1728)">
      <defs>
       <path d="M 54.890625 33.015625 
L 54.890625 0 
L 45.90625 0 
L 45.90625 32.71875 
Q 45.90625 40.484375 42.875 44.328125 
Q 39.84375 48.1875 33.796875 48.1875 
Q 26.515625 48.1875 22.3125 43.546875 
Q 18.109375 38.921875 18.109375 30.90625 
L 18.109375 0 
L 9.078125 0 
L 9.078125 54.6875 
L 18.109375 54.6875 
L 18.109375 46.1875 
Q 21.34375 51.125 25.703125 53.5625 
Q 30.078125 56 35.796875 56 
Q 45.21875 56 50.046875 50.171875 
Q 54.890625 44.34375 54.890625 33.015625 
z
" id="DejaVuSans-110"/>
       <path d="M 45.40625 46.390625 
L 45.40625 75.984375 
L 54.390625 75.984375 
L 54.390625 0 
L 45.40625 0 
L 45.40625 8.203125 
Q 42.578125 3.328125 38.25 0.953125 
Q 33.9375 -1.421875 27.875 -1.421875 
Q 17.96875 -1.421875 11.734375 6.484375 
Q 5.515625 14.40625 5.515625 27.296875 
Q 5.515625 40.1875 11.734375 48.09375 
Q 17.96875 56 27.875 56 
Q 33.9375 56 38.25 53.625 
Q 42.578125 51.265625 45.40625 46.390625 
z
M 14.796875 27.296875 
Q 14.796875 17.390625 18.875 11.75 
Q 22.953125 6.109375 30.078125 6.109375 
Q 37.203125 6.109375 41.296875 11.75 
Q 45.40625 17.390625 45.40625 27.296875 
Q 45.40625 37.203125 41.296875 42.84375 
Q 37.203125 48.484375 30.078125 48.484375 
Q 22.953125 48.484375 18.875 42.84375 
Q 14.796875 37.203125 14.796875 27.296875 
z
" id="DejaVuSans-100"/>
       <path d="M 8.203125 72.90625 
L 55.078125 72.90625 
L 55.078125 68.703125 
L 28.609375 0 
L 18.3125 0 
L 43.21875 64.59375 
L 8.203125 64.59375 
z
" id="DejaVuSans-55"/>
      </defs>
      <use xlink:href="#DejaVuSans-50"/>
      <use x="63.623047" xlink:href="#DejaVuSans-110"/>
      <use x="127.001953" xlink:href="#DejaVuSans-100"/>
      <use x="190.478516" xlink:href="#DejaVuSans-32"/>
      <use x="222.265625" xlink:href="#DejaVuSans-80"/>
      <use x="282.568359" xlink:href="#DejaVuSans-67"/>
      <use x="352.392578" xlink:href="#DejaVuSans-58"/>
      <use x="386.083984" xlink:href="#DejaVuSans-32"/>
      <use x="417.871094" xlink:href="#DejaVuSans-54"/>
      <use x="481.494141" xlink:href="#DejaVuSans-46"/>
      <use x="513.28125" xlink:href="#DejaVuSans-55"/>
      <use x="576.904297" xlink:href="#DejaVuSans-54"/>
      <use x="640.527344" xlink:href="#DejaVuSans-32"/>
      <use x="672.314453" xlink:href="#DejaVuSans-37"/>
     </g>
    </g>
   </g>
   <g id="LineCollection_1">
    <path clip-path="url(#p42694b9984)" d="M 119.049664 241.629619 
L 116.948958 241.629619 
L 114.848252 241.629619 
L 112.747546 241.629619 
L 110.64684 241.629619 
L 108.546135 241.629619 
L 106.445429 241.629619 
L 106.441193 241.629619 
" style="fill:none;stroke:#440154;stroke-width:1.5;"/>
    <path clip-path="url(#p42694b9984)" d="M 81.241193 241.629842 
L 81.236958 241.629842 
L 79.136252 241.630178 
L 77.035546 241.630688 
L 74.93484 241.631237 
L 74.933221 241.629619 
L 72.834135 232.766055 
L 70.733429 232.763633 
L 68.632723 232.762002 
L 66.532017 232.761238 
L 64.431311 232.759758 
L 62.330605 232.759312 
L 60.229899 232.75923 
L 58.129193 232.75922 
L 56.028488 232.759219 
" style="fill:none;stroke:#440154;stroke-width:1.5;"/>
   </g>
   <g id="LineCollection_2">
    <path clip-path="url(#p42694b9984)" d="M 119.049664 241.629619 
L 116.948958 241.629619 
L 114.848252 241.629619 
L 112.747546 241.629619 
L 110.64684 241.629619 
L 108.546135 241.629619 
L 106.445429 241.629619 
L 106.441193 241.629619 
" style="fill:none;stroke:#481467;stroke-width:1.5;"/>
    <path clip-path="url(#p42694b9984)" d="M 81.241193 241.629953 
L 81.236958 241.629954 
L 79.136252 241.630457 
L 77.035546 241.631223 
L 74.93484 241.632046 
L 74.932412 241.629619 
L 72.834135 232.769473 
L 70.733429 232.76584 
L 68.632723 232.763394 
L 66.532017 232.762248 
L 64.431311 232.760028 
L 62.330605 232.759358 
L 60.229899 232.759236 
L 58.129193 232.75922 
L 56.028488 232.759219 
" style="fill:none;stroke:#481467;stroke-width:1.5;"/>
   </g>
   <g id="LineCollection_3">
    <path clip-path="url(#p42694b9984)" d="M 119.049664 241.629619 
L 116.948958 241.629619 
L 114.848252 241.629619 
L 112.747546 241.629619 
L 110.64684 241.629619 
L 108.546135 241.629619 
L 106.445429 241.629619 
L 106.441193 241.629619 
" style="fill:none;stroke:#482576;stroke-width:1.5;"/>
    <path clip-path="url(#p42694b9984)" d="M 81.241193 241.630065 
L 81.236958 241.630066 
L 79.136252 241.630737 
L 77.035546 241.631757 
L 74.93484 241.632856 
L 74.931602 241.629619 
L 72.834135 232.772892 
L 70.733429 232.768047 
L 68.632723 232.764786 
L 66.532017 232.763257 
L 64.431311 232.760298 
L 62.330605 232.759405 
L 60.229899 232.759242 
L 58.129193 232.75922 
L 56.028488 232.759219 
" style="fill:none;stroke:#482576;stroke-width:1.5;"/>
   </g>
   <g id="LineCollection_4">
    <path clip-path="url(#p42694b9984)" d="M 119.049664 241.629619 
L 116.948958 241.629619 
L 114.848252 241.629619 
L 112.747546 241.629619 
L 110.64684 241.629619 
L 108.546135 241.629619 
L 106.445429 241.629619 
L 106.441193 241.629619 
" style="fill:none;stroke:#453781;stroke-width:1.5;"/>
    <path clip-path="url(#p42694b9984)" d="M 81.241193 241.630177 
L 81.236958 241.630177 
L 79.136252 241.631016 
L 77.035546 241.632292 
L 74.93484 241.633665 
L 74.930793 241.629619 
L 72.834135 232.77631 
L 70.733429 232.770255 
L 68.632723 232.766177 
L 66.532017 232.764267 
L 64.431311 232.760568 
L 62.330605 232.759451 
L 60.229899 232.759247 
L 58.129193 232.759221 
L 56.028488 232.759219 
" style="fill:none;stroke:#453781;stroke-width:1.5;"/>
   </g>
   <g id="LineCollection_5">
    <path clip-path="url(#p42694b9984)" d="M 119.049664 241.629619 
L 116.948958 241.629619 
L 114.848252 241.629619 
L 112.747546 241.629619 
L 110.64684 241.629619 
L 108.546135 241.629619 
L 106.445429 241.629619 
L 106.441193 241.629619 
" style="fill:none;stroke:#404688;stroke-width:1.5;"/>
    <path clip-path="url(#p42694b9984)" d="M 81.241193 241.630288 
L 81.236958 241.630289 
L 79.136252 241.631296 
L 77.035546 241.632827 
L 74.93484 241.634474 
L 74.929983 241.629619 
L 72.834135 232.779728 
L 70.733429 232.772462 
L 68.632723 232.767569 
L 66.532017 232.765277 
L 64.431311 232.760838 
L 62.330605 232.759498 
L 60.229899 232.759253 
L 58.129193 232.759221 
L 56.028488 232.759219 
" style="fill:none;stroke:#404688;stroke-width:1.5;"/>
   </g>
   <g id="LineCollection_6">
    <path clip-path="url(#p42694b9984)" d="M 119.049664 241.629619 
L 116.948958 241.629619 
L 114.848252 241.629619 
L 112.747546 241.629619 
L 110.64684 241.629619 
L 108.546135 241.629619 
L 106.445429 241.629619 
L 106.441193 241.629619 
" style="fill:none;stroke:#39558c;stroke-width:1.5;"/>
    <path clip-path="url(#p42694b9984)" d="M 81.241193 241.6304 
L 81.236958 241.630401 
L 79.136252 241.631575 
L 77.035546 241.633362 
L 74.93484 241.635283 
L 74.929174 241.629619 
L 72.834135 232.783146 
L 70.733429 232.774669 
L 68.632723 232.768961 
L 66.532017 232.766286 
L 64.431311 232.761108 
L 62.330605 232.759544 
L 60.229899 232.759259 
L 58.129193 232.759222 
L 56.028488 232.759219 
" style="fill:none;stroke:#39558c;stroke-width:1.5;"/>
   </g>
   <g id="LineCollection_7">
    <path clip-path="url(#p42694b9984)" d="M 119.049664 241.629619 
L 116.948958 241.629619 
L 114.848252 241.629619 
L 112.747546 241.629619 
L 110.64684 241.629619 
L 108.546135 241.629619 
L 106.445429 241.629619 
L 106.441193 241.629619 
" style="fill:none;stroke:#33638d;stroke-width:1.5;"/>
    <path clip-path="url(#p42694b9984)" d="M 81.241193 241.630511 
L 81.236958 241.630513 
L 79.136252 241.631855 
L 77.035546 241.633896 
L 74.93484 241.636092 
L 74.928364 241.629619 
L 72.834135 232.786565 
L 70.733429 232.776876 
L 68.632723 232.770353 
L 66.532017 232.767296 
L 64.431311 232.761377 
L 62.330605 232.75959 
L 60.229899 232.759264 
L 58.129193 232.759222 
L 56.028488 232.759219 
" style="fill:none;stroke:#33638d;stroke-width:1.5;"/>
   </g>
   <g id="LineCollection_8">
    <path clip-path="url(#p42694b9984)" d="M 119.049664 241.629619 
L 116.948958 241.629619 
L 114.848252 241.629619 
L 112.747546 241.629619 
L 110.64684 241.629619 
L 108.546135 241.629619 
L 106.445429 241.629619 
L 106.441193 241.629619 
" style="fill:none;stroke:#2d718e;stroke-width:1.5;"/>
    <path clip-path="url(#p42694b9984)" d="M 81.241194 241.630623 
L 81.236958 241.630624 
L 79.136252 241.632134 
L 77.035546 241.634431 
L 74.93484 241.636902 
L 74.927555 241.629619 
L 72.834135 232.789983 
L 70.733429 232.779083 
L 68.632723 232.771744 
L 66.532017 232.768306 
L 64.431311 232.761647 
L 62.330605 232.759637 
L 60.229899 232.75927 
L 58.129193 232.759222 
L 56.028488 232.759219 
" style="fill:none;stroke:#2d718e;stroke-width:1.5;"/>
   </g>
   <g id="LineCollection_9">
    <path clip-path="url(#p42694b9984)" d="M 119.049664 241.629619 
L 116.948958 241.629619 
L 114.848252 241.629619 
L 112.747546 241.629619 
L 110.64684 241.629619 
L 108.546135 241.629619 
L 106.445429 241.629619 
L 106.441193 241.629619 
" style="fill:none;stroke:#287d8e;stroke-width:1.5;"/>
    <path clip-path="url(#p42694b9984)" d="M 81.241194 241.630735 
L 81.236958 241.630736 
L 79.136252 241.632414 
L 77.035546 241.634966 
L 74.93484 241.637711 
L 74.926745 241.629619 
L 72.834135 232.793401 
L 70.733429 232.781291 
L 68.632723 232.773136 
L 66.532017 232.769315 
L 64.431311 232.761917 
L 62.330605 232.759683 
L 60.229899 232.759276 
L 58.129193 232.759223 
L 56.028488 232.759219 
" style="fill:none;stroke:#287d8e;stroke-width:1.5;"/>
   </g>
   <g id="LineCollection_10">
    <path clip-path="url(#p42694b9984)" d="M 119.049664 241.629619 
L 116.948958 241.629619 
L 114.848252 241.629619 
L 112.747546 241.629619 
L 110.64684 241.629619 
L 108.546135 241.629619 
L 106.445429 241.629619 
L 106.441193 241.629619 
" style="fill:none;stroke:#238a8d;stroke-width:1.5;"/>
    <path clip-path="url(#p42694b9984)" d="M 81.241194 241.630846 
L 81.236958 241.630848 
L 79.136252 241.632693 
L 77.035546 241.6355 
L 74.93484 241.63852 
L 74.925936 241.629619 
L 72.834135 232.796819 
L 70.733429 232.783498 
L 68.632723 232.774528 
L 66.532017 232.770325 
L 64.431311 232.762187 
L 62.330605 232.75973 
L 60.229899 232.759282 
L 58.129193 232.759223 
L 56.028488 232.759219 
" style="fill:none;stroke:#238a8d;stroke-width:1.5;"/>
   </g>
   <g id="LineCollection_11">
    <path clip-path="url(#p42694b9984)" d="M 119.049664 241.629619 
L 116.948958 241.629619 
L 114.848252 241.629619 
L 112.747546 241.629619 
L 110.64684 241.629619 
L 108.546135 241.629619 
L 106.445429 241.629619 
L 106.441193 241.629619 
" style="fill:none;stroke:#1f968b;stroke-width:1.5;"/>
    <path clip-path="url(#p42694b9984)" d="M 81.241194 241.630958 
L 81.236958 241.63096 
L 79.136252 241.632973 
L 77.035546 241.636035 
L 74.93484 241.639329 
L 74.925126 241.629619 
L 72.834135 232.800238 
L 70.733429 232.785705 
L 68.632723 232.77592 
L 66.532017 232.771335 
L 64.431311 232.762457 
L 62.330605 232.759776 
L 60.229899 232.759287 
L 58.129193 232.759223 
L 56.028488 232.759219 
" style="fill:none;stroke:#1f968b;stroke-width:1.5;"/>
   </g>
   <g id="LineCollection_12">
    <path clip-path="url(#p42694b9984)" d="M 119.049664 241.629619 
L 116.948958 241.629619 
L 114.848252 241.629619 
L 112.747546 241.629619 
L 110.64684 241.629619 
L 108.546135 241.629619 
L 106.445429 241.629619 
L 106.441193 241.629619 
" style="fill:none;stroke:#20a386;stroke-width:1.5;"/>
    <path clip-path="url(#p42694b9984)" d="M 81.241194 241.631069 
L 81.236958 241.631071 
L 79.136252 241.633252 
L 77.035546 241.63657 
L 74.93484 241.640138 
L 74.924317 241.629619 
L 72.834135 232.803656 
L 70.733429 232.787912 
L 68.632723 232.777311 
L 66.532017 232.772344 
L 64.431311 232.762727 
L 62.330605 232.759823 
L 60.229899 232.759293 
L 58.129193 232.759224 
L 56.028488 232.759219 
" style="fill:none;stroke:#20a386;stroke-width:1.5;"/>
   </g>
   <g id="LineCollection_13">
    <path clip-path="url(#p42694b9984)" d="M 119.049664 241.629619 
L 116.948958 241.629619 
L 114.848252 241.629619 
L 112.747546 241.629619 
L 110.64684 241.629619 
L 108.546135 241.629619 
L 106.445429 241.629619 
L 106.441193 241.629619 
" style="fill:none;stroke:#29af7f;stroke-width:1.5;"/>
    <path clip-path="url(#p42694b9984)" d="M 81.241194 241.631181 
L 81.236958 241.631183 
L 79.136252 241.633532 
L 77.035546 241.637104 
L 74.93484 241.640948 
L 74.923507 241.629619 
L 72.834135 232.807074 
L 70.733429 232.790119 
L 68.632723 232.778703 
L 66.532017 232.773354 
L 64.431311 232.762997 
L 62.330605 232.759869 
L 60.229899 232.759299 
L 58.129193 232.759224 
L 56.028488 232.759219 
" style="fill:none;stroke:#29af7f;stroke-width:1.5;"/>
   </g>
   <g id="LineCollection_14">
    <path clip-path="url(#p42694b9984)" d="M 119.049664 241.629619 
L 116.948958 241.629619 
L 114.848252 241.629619 
L 112.747546 241.629619 
L 110.64684 241.629619 
L 108.546135 241.629619 
L 106.445429 241.629619 
L 106.441193 241.629619 
" style="fill:none;stroke:#3dbc74;stroke-width:1.5;"/>
    <path clip-path="url(#p42694b9984)" d="M 81.241194 241.631292 
L 81.236958 241.631295 
L 79.136252 241.633811 
L 77.035546 241.637639 
L 74.93484 241.641757 
L 74.922698 241.629619 
L 72.834135 232.810492 
L 70.733429 232.792326 
L 68.632723 232.780095 
L 66.532017 232.774364 
L 64.431311 232.763266 
L 62.330605 232.759916 
L 60.229899 232.759305 
L 58.129193 232.759225 
L 56.028488 232.759219 
" style="fill:none;stroke:#3dbc74;stroke-width:1.5;"/>
   </g>
   <g id="LineCollection_15">
    <path clip-path="url(#p42694b9984)" d="M 119.049664 241.629619 
L 116.948958 241.629619 
L 114.848252 241.629619 
L 112.747546 241.629619 
L 110.64684 241.629619 
L 108.546135 241.629619 
L 106.445429 241.629619 
L 106.441193 241.629619 
" style="fill:none;stroke:#56c667;stroke-width:1.5;"/>
    <path clip-path="url(#p42694b9984)" d="M 81.241194 241.631404 
L 81.236958 241.631406 
L 79.136252 241.634091 
L 77.035546 241.638174 
L 74.93484 241.642566 
L 74.921888 241.629619 
L 72.834135 232.81391 
L 70.733429 232.794534 
L 68.632723 232.781486 
L 66.532017 232.775373 
L 64.431311 232.763536 
L 62.330605 232.759962 
L 60.229899 232.75931 
L 58.129193 232.759225 
L 56.028488 232.759219 
" style="fill:none;stroke:#56c667;stroke-width:1.5;"/>
   </g>
   <g id="LineCollection_16">
    <path clip-path="url(#p42694b9984)" d="M 119.049664 241.629619 
L 116.948958 241.629619 
L 114.848252 241.629619 
L 112.747546 241.629619 
L 110.64684 241.629619 
L 108.546135 241.629619 
L 106.445429 241.629619 
L 106.441193 241.629619 
" style="fill:none;stroke:#75d054;stroke-width:1.5;"/>
    <path clip-path="url(#p42694b9984)" d="M 81.241194 241.631516 
L 81.236958 241.631518 
L 79.136252 241.63437 
L 77.035546 241.638708 
L 74.93484 241.643375 
L 74.921079 241.629619 
L 72.834135 232.817329 
L 70.733429 232.796741 
L 68.632723 232.782878 
L 66.532017 232.776383 
L 64.431311 232.763806 
L 62.330605 232.760009 
L 60.229899 232.759316 
L 58.129193 232.759225 
L 56.028488 232.759219 
" style="fill:none;stroke:#75d054;stroke-width:1.5;"/>
   </g>
   <g id="LineCollection_17">
    <path clip-path="url(#p42694b9984)" d="M 119.049664 241.629619 
L 116.948958 241.629619 
L 114.848252 241.629619 
L 112.747546 241.629619 
L 110.64684 241.629619 
L 108.546135 241.629619 
L 106.445429 241.629619 
L 106.441193 241.629619 
" style="fill:none;stroke:#95d840;stroke-width:1.5;"/>
    <path clip-path="url(#p42694b9984)" d="M 81.241194 241.631627 
L 81.236958 241.63163 
L 79.136252 241.63465 
L 77.035546 241.639243 
L 74.93484 241.644184 
L 74.920269 241.629619 
L 72.834135 232.820747 
L 70.733429 232.798948 
L 68.632723 232.78427 
L 66.532017 232.777393 
L 64.431311 232.764076 
L 62.330605 232.760055 
L 60.229899 232.759322 
L 58.129193 232.759226 
L 56.028488 232.759219 
" style="fill:none;stroke:#95d840;stroke-width:1.5;"/>
   </g>
   <g id="LineCollection_18">
    <path clip-path="url(#p42694b9984)" d="M 119.049664 241.629619 
L 116.948958 241.629619 
L 114.848252 241.629619 
L 112.747546 241.629619 
L 110.64684 241.629619 
L 108.546135 241.629619 
L 106.445429 241.629619 
L 106.441193 241.629619 
" style="fill:none;stroke:#bade28;stroke-width:1.5;"/>
    <path clip-path="url(#p42694b9984)" d="M 81.241194 241.631739 
L 81.236958 241.631742 
L 79.136252 241.634929 
L 77.035546 241.639778 
L 74.93484 241.644994 
L 74.91946 241.629619 
L 72.834135 232.824165 
L 70.733429 232.801155 
L 68.632723 232.785662 
L 66.532017 232.778402 
L 64.431311 232.764346 
L 62.330605 232.760102 
L 60.229899 232.759327 
L 58.129193 232.759226 
L 56.028488 232.759219 
" style="fill:none;stroke:#bade28;stroke-width:1.5;"/>
   </g>
   <g id="LineCollection_19">
    <path clip-path="url(#p42694b9984)" d="M 119.049664 241.629619 
L 116.948958 241.629619 
L 114.848252 241.629619 
L 112.747546 241.629619 
L 110.64684 241.629619 
L 108.546135 241.629619 
L 106.445429 241.629619 
L 106.441193 241.629619 
" style="fill:none;stroke:#dde318;stroke-width:1.5;"/>
    <path clip-path="url(#p42694b9984)" d="M 81.241194 241.63185 
L 81.236958 241.631853 
L 79.136252 241.635209 
L 77.035546 241.640312 
L 74.93484 241.645803 
L 74.91865 241.629619 
L 72.834135 232.827583 
L 70.733429 232.803362 
L 68.632723 232.787053 
L 66.532017 232.779412 
L 64.431311 232.764616 
L 62.330605 232.760148 
L 60.229899 232.759333 
L 58.129193 232.759227 
L 56.028488 232.759219 
" style="fill:none;stroke:#dde318;stroke-width:1.5;"/>
   </g>
   <g id="LineCollection_20">
    <path clip-path="url(#p42694b9984)" d="M 119.049664 241.629619 
L 116.948958 241.629619 
L 114.848252 241.629619 
L 112.747546 241.629619 
L 110.64684 241.629619 
L 108.546135 241.629619 
L 106.445429 241.629619 
L 106.441193 241.629619 
" style="fill:none;stroke:#fde725;stroke-width:1.5;"/>
    <path clip-path="url(#p42694b9984)" d="M 81.241194 241.631962 
L 81.236958 241.631965 
L 79.136252 241.635488 
L 77.035546 241.640847 
L 74.93484 241.646612 
L 74.917841 241.629619 
L 72.834135 232.831002 
L 70.733429 232.80557 
L 68.632723 232.788445 
L 66.532017 232.780422 
L 64.431311 232.764885 
L 62.330605 232.760195 
L 60.229899 232.759339 
L 58.129193 232.759227 
L 56.028488 232.759219 
" style="fill:none;stroke:#fde725;stroke-width:1.5;"/>
   </g>
   <g id="LineCollection_21">
    <path clip-path="url(#p42694b9984)" d="M 119.049664 241.629619 
L 116.948958 241.629619 
L 114.848252 241.629619 
L 112.747546 241.629619 
L 110.64684 241.629619 
L 108.546135 241.629619 
L 106.445429 241.629619 
L 104.344723 241.629619 
L 104.039782 241.629619 
" style="fill:none;stroke:#440154;stroke-width:1.5;"/>
    <path clip-path="url(#p42694b9984)" d="M 75.239801 241.646544 
L 74.93484 241.647421 
L 74.917031 241.629619 
L 72.834135 232.83442 
L 70.733429 232.807777 
L 68.632723 232.789837 
L 66.532017 232.781431 
L 64.431311 232.765155 
L 62.330605 232.760241 
L 60.229899 232.759345 
L 58.129193 232.759227 
L 56.028488 232.759219 
" style="fill:none;stroke:#440154;stroke-width:1.5;"/>
   </g>
   <g id="LineCollection_22">
    <path clip-path="url(#p42694b9984)" d="M 119.049664 241.629619 
L 116.948958 241.629619 
L 114.848252 241.629619 
L 112.747546 241.629619 
L 110.64684 241.629619 
L 108.546135 241.629619 
L 106.445429 241.629619 
L 104.344723 241.629619 
L 102.244017 241.629619 
L 101.638369 241.629619 
" style="fill:none;stroke:#440154;stroke-width:1.5;"/>
    <path clip-path="url(#p42694b9984)" d="M 73.512253 236.313113 
L 72.834135 233.449702 
L 70.733429 233.205069 
L 68.632723 233.040349 
L 66.532017 232.963171 
L 64.431311 232.813727 
L 62.330605 232.768605 
L 60.229899 232.760374 
L 58.129193 232.759298 
L 56.028488 232.759222 
" style="fill:none;stroke:#440154;stroke-width:1.5;"/>
   </g>
   <g id="LineCollection_23">
    <path clip-path="url(#p42694b9984)" d="M 119.049664 241.629619 
L 116.948958 241.629619 
L 114.848252 241.629619 
L 112.747546 241.629619 
L 110.64684 241.629619 
L 108.546135 241.629619 
L 106.445429 241.629619 
L 104.344723 241.629619 
L 103.43833 241.629619 
" style="fill:none;stroke:#440154;stroke-width:1.5;"/>
    <path clip-path="url(#p42694b9984)" d="M 70.897884 237.367802 
L 70.733429 237.177997 
L 68.632723 235.545467 
L 66.532017 234.78057 
L 64.431311 233.299441 
L 62.330605 232.852244 
L 60.229899 232.770667 
L 58.129193 232.760008 
L 56.028488 232.759248 
" style="fill:none;stroke:#440154;stroke-width:1.5;"/>
   </g>
   <g id="LineCollection_24">
    <path clip-path="url(#p42694b9984)" d="M 119.049664 241.629619 
L 116.948958 241.629619 
L 114.848252 241.629619 
L 112.747546 241.629619 
L 110.64684 241.629619 
L 108.546135 241.629619 
L 106.445429 241.629619 
L 104.344723 241.629619 
L 103.065509 241.629619 
" style="fill:none;stroke:#440154;stroke-width:1.5;"/>
    <path clip-path="url(#p42694b9984)" d="M 70.025336 251.149473 
L 69.363898 250.500019 
L 68.632723 248.869066 
L 66.532017 245.778644 
L 65.553794 241.629619 
L 64.431311 238.156587 
L 62.330605 233.688633 
L 60.229899 232.873601 
L 58.129193 232.767102 
L 56.028488 232.759514 
" style="fill:none;stroke:#440154;stroke-width:1.5;"/>
   </g>
   <g id="LineCollection_25">
    <path clip-path="url(#p42694b9984)" d="M 119.049664 241.629619 
L 116.948958 241.629619 
L 114.848252 241.629619 
L 112.747546 241.629619 
L 110.64684 241.629619 
L 108.546135 241.629619 
L 106.445429 241.629619 
L 104.344723 241.629619 
L 102.244017 241.629619 
L 100.143311 241.629622 
L 98.042605 241.629647 
L 95.941899 241.629821 
L 95.820499 241.629889 
" style="fill:none;stroke:#440154;stroke-width:1.5;"/>
    <path clip-path="url(#p42694b9984)" d="M 70.235714 266.911402 
L 68.632723 263.57889 
L 66.532017 261.005334 
L 64.431311 259.985971 
L 64.352242 259.370419 
L 63.645419 250.500019 
L 62.330605 241.973215 
L 62.31655 241.629619 
L 60.229899 233.902934 
L 58.129193 232.838043 
L 56.028488 232.762173 
" style="fill:none;stroke:#440154;stroke-width:1.5;"/>
   </g>
   <g id="LineCollection_26">
    <path clip-path="url(#p42694b9984)" d="M 66.666884 277.111219 
L 66.532017 276.837234 
L 64.431311 273.107828 
L 63.120672 268.240819 
L 62.330605 264.146858 
L 62.040059 259.370419 
L 61.226629 250.500019 
L 60.229899 243.75861 
L 60.184906 241.629619 
L 58.129193 233.547457 
L 56.028488 232.788759 
" style="fill:none;stroke:#450457;stroke-width:1.5;"/>
    <path clip-path="url(#p42694b9984)" d="M 119.049664 241.629619 
L 116.948958 241.629619 
L 114.848252 241.629619 
L 112.747546 241.629619 
L 110.64684 241.629619 
L 108.546135 241.629619 
L 106.445429 241.629619 
L 104.344723 241.629619 
L 102.244017 241.629623 
L 100.143311 241.629654 
L 98.042605 241.629899 
L 95.941899 241.631644 
L 93.841193 241.643323 
L 91.740488 241.714669 
L 89.639782 242.132405 
L 87.539076 244.552153 
L 85.80472 250.500019 
L 85.43837 251.343126 
L 83.365302 259.370419 
L 83.337664 259.443002 
L 81.236958 264.486777 
L 80.174647 268.240819 
L 79.136252 270.311962 
L 77.066038 277.111219 
" style="fill:none;stroke:#450457;stroke-width:1.5;"/>
   </g>
   <g id="LineCollection_27">
    <path clip-path="url(#p42694b9984)" d="M 61.815992 277.111219 
L 60.262896 268.240819 
L 60.229899 268.043585 
L 59.976739 259.370419 
L 59.443981 250.500019 
L 58.380499 241.629619 
L 58.129193 240.641596 
L 56.028488 233.054625 
" style="fill:none;stroke:#482475;stroke-width:1.5;"/>
    <path clip-path="url(#p42694b9984)" d="M 119.049664 241.629619 
L 116.948958 241.629619 
L 114.848252 241.629619 
L 112.747546 241.629619 
L 110.64684 241.629619 
L 108.546135 241.629619 
L 106.445429 241.62962 
L 104.344723 241.629625 
L 102.244017 241.629663 
L 100.143311 241.629974 
L 98.042605 241.632418 
L 95.941899 241.649871 
L 93.841193 241.766666 
L 91.740488 242.480117 
L 89.639782 246.657472 
L 88.540698 250.500019 
L 87.539076 252.741052 
L 85.842447 259.370419 
L 85.43837 260.415996 
L 83.465821 268.240819 
L 83.337664 268.610257 
L 81.236958 275.694048 
L 80.854454 277.111219 
" style="fill:none;stroke:#482475;stroke-width:1.5;"/>
   </g>
   <g id="LineCollection_28">
    <path clip-path="url(#p42694b9984)" d="M 59.770847 277.111219 
L 58.694963 268.240819 
L 58.129193 264.527522 
L 58.056877 259.370419 
L 57.867265 250.500019 
L 57.484161 241.629619 
L 56.028488 235.71328 
" style="fill:none;stroke:#fde725;stroke-width:1.5;"/>
    <path clip-path="url(#p42694b9984)" d="M 119.049664 241.629619 
L 116.948958 241.629619 
L 114.848252 241.629619 
L 112.747546 241.629619 
L 110.64684 241.629619 
L 108.546135 241.62962 
L 106.445429 241.629628 
L 104.344723 241.629677 
L 102.244017 241.630057 
L 100.143311 241.633168 
L 98.042605 241.657611 
L 95.941899 241.832144 
L 93.841193 243.000091 
L 91.740488 250.134599 
L 91.636329 250.500019 
L 89.639782 254.676681 
L 88.439243 259.370419 
L 87.539076 261.540267 
L 85.856645 268.240819 
L 85.43837 269.400567 
L 83.52706 277.111219 
" style="fill:none;stroke:#fde725;stroke-width:1.5;"/>
   </g>
   <g id="line2d_19">
    <path clip-path="url(#p42694b9984)" d="M 405.231959 179.728969 
L 354.072802 154.704725 
L 311.137077 132.193656 
L 275.147231 112.044694 
L 245.002762 94.188061 
L 219.76888 78.673676 
L 198.657613 65.285571 
L 180.991751 53.841015 
L 166.243569 44.132044 
L 153.922661 36.453252 
L 143.658632 30.038222 
L 135.211846 25.066197 
L 128.322359 21.487205 
L 122.875468 18.955048 
L 118.672614 17.739612 
L 115.451956 17.53675 
L 113.040752 18.248665 
L 111.250925 19.442948 
L 109.867509 21.08247 
L 108.791608 23.229687 
L 107.869925 25.514773 
L 107.108576 27.743645 
L 106.575245 30.772965 
L 106.020643 33.803123 
L 105.52322 36.676582 
L 105.085471 39.815264 
L 104.69701 43.097341 
L 104.462569 46.429229 
L 104.225668 49.815084 
L 103.891499 53.363386 
L 103.625495 56.889686 
L 103.29252 60.014848 
L 103.198368 63.988842 
L 102.93412 67.783581 
L 102.748337 71.255926 
L 102.519259 74.686105 
L 102.356442 78.30449 
L 102.171646 81.865894 
L 102.011727 85.460201 
L 101.832653 89.078072 
L 101.62721 92.340198 
L 101.416417 95.492125 
L 101.344571 99.444474 
L 101.189246 102.929651 
L 100.981288 106.515247 
L 100.838186 110.513293 
L 100.641894 114.305774 
L 100.392031 118.547747 
L 100.243887 123.351773 
L 99.958742 128.644179 
L 99.965085 129.547687 
L 99.848569 130.243105 
L 99.713151 130.850911 
L 99.593975 131.4863 
L 99.464242 132.06249 
L 99.353426 132.650978 
L 99.231519 133.194122 
L 99.120774 133.737345 
L 99.008899 134.260308 
L 98.920437 134.854408 
L 98.836208 135.429514 
L 98.754573 136.03387 
L 98.680739 136.658684 
L 98.595668 137.205142 
L 98.535519 137.77698 
L 98.47925 138.356911 
L 98.420844 138.907552 
L 98.378135 139.511417 
L 98.331003 140.029524 
L 98.296507 140.58935 
L 98.256772 141.148387 
L 98.228735 141.709429 
L 98.207632 142.319045 
L 98.183741 142.895868 
L 98.166973 143.56236 
L 98.167782 143.656958 
L 98.164219 143.754 
L 98.160018 143.835168 
L 98.154612 143.897956 
L 98.147971 143.954338 
L 98.142907 144.006452 
L 98.136714 144.045729 
L 98.12992 144.066769 
L 98.120452 144.075508 
L 98.112482 144.090109 
L 98.108278 144.126373 
L 98.101765 144.138306 
L 98.097383 144.15276 
L 98.09158 144.163577 
L 98.085043 144.167432 
L 98.080707 144.177256 
L 98.075277 144.174222 
L 98.069313 144.166839 
L 98.065476 144.153754 
L 98.062217 144.14501 
L 98.057477 144.140398 
L 98.054613 144.120858 
L 98.050004 144.106021 
L 98.045121 144.077418 
" style="fill:none;stroke:#1f77b4;stroke-linecap:square;stroke-width:1.5;"/>
    <defs>
     <path d="M 0 1.5 
C 0.397805 1.5 0.77937 1.341951 1.06066 1.06066 
C 1.341951 0.77937 1.5 0.397805 1.5 0 
C 1.5 -0.397805 1.341951 -0.77937 1.06066 -1.06066 
C 0.77937 -1.341951 0.397805 -1.5 0 -1.5 
C -0.397805 -1.5 -0.77937 -1.341951 -1.06066 -1.06066 
C -1.341951 -0.77937 -1.5 -0.397805 -1.5 0 
C -1.5 0.397805 -1.341951 0.77937 -1.06066 1.06066 
C -0.77937 1.341951 -0.397805 1.5 0 1.5 
z
" id="m7efba7d32a" style="stroke:#1f77b4;"/>
    </defs>
    <g clip-path="url(#p42694b9984)">
     <use style="fill:#1f77b4;stroke:#1f77b4;" x="405.231959" xlink:href="#m7efba7d32a" y="179.728969"/>
     <use style="fill:#1f77b4;stroke:#1f77b4;" x="354.072802" xlink:href="#m7efba7d32a" y="154.704725"/>
     <use style="fill:#1f77b4;stroke:#1f77b4;" x="311.137077" xlink:href="#m7efba7d32a" y="132.193656"/>
     <use style="fill:#1f77b4;stroke:#1f77b4;" x="275.147231" xlink:href="#m7efba7d32a" y="112.044694"/>
     <use style="fill:#1f77b4;stroke:#1f77b4;" x="245.002762" xlink:href="#m7efba7d32a" y="94.188061"/>
     <use style="fill:#1f77b4;stroke:#1f77b4;" x="219.76888" xlink:href="#m7efba7d32a" y="78.673676"/>
     <use style="fill:#1f77b4;stroke:#1f77b4;" x="198.657613" xlink:href="#m7efba7d32a" y="65.285571"/>
     <use style="fill:#1f77b4;stroke:#1f77b4;" x="180.991751" xlink:href="#m7efba7d32a" y="53.841015"/>
     <use style="fill:#1f77b4;stroke:#1f77b4;" x="166.243569" xlink:href="#m7efba7d32a" y="44.132044"/>
     <use style="fill:#1f77b4;stroke:#1f77b4;" x="153.922661" xlink:href="#m7efba7d32a" y="36.453252"/>
     <use style="fill:#1f77b4;stroke:#1f77b4;" x="143.658632" xlink:href="#m7efba7d32a" y="30.038222"/>
     <use style="fill:#1f77b4;stroke:#1f77b4;" x="135.211846" xlink:href="#m7efba7d32a" y="25.066197"/>
     <use style="fill:#1f77b4;stroke:#1f77b4;" x="128.322359" xlink:href="#m7efba7d32a" y="21.487205"/>
     <use style="fill:#1f77b4;stroke:#1f77b4;" x="122.875468" xlink:href="#m7efba7d32a" y="18.955048"/>
     <use style="fill:#1f77b4;stroke:#1f77b4;" x="118.672614" xlink:href="#m7efba7d32a" y="17.739612"/>
     <use style="fill:#1f77b4;stroke:#1f77b4;" x="115.451956" xlink:href="#m7efba7d32a" y="17.53675"/>
     <use style="fill:#1f77b4;stroke:#1f77b4;" x="113.040752" xlink:href="#m7efba7d32a" y="18.248665"/>
     <use style="fill:#1f77b4;stroke:#1f77b4;" x="111.250925" xlink:href="#m7efba7d32a" y="19.442948"/>
     <use style="fill:#1f77b4;stroke:#1f77b4;" x="109.867509" xlink:href="#m7efba7d32a" y="21.08247"/>
     <use style="fill:#1f77b4;stroke:#1f77b4;" x="108.791608" xlink:href="#m7efba7d32a" y="23.229687"/>
     <use style="fill:#1f77b4;stroke:#1f77b4;" x="107.869925" xlink:href="#m7efba7d32a" y="25.514773"/>
     <use style="fill:#1f77b4;stroke:#1f77b4;" x="107.108576" xlink:href="#m7efba7d32a" y="27.743645"/>
     <use style="fill:#1f77b4;stroke:#1f77b4;" x="106.575245" xlink:href="#m7efba7d32a" y="30.772965"/>
     <use style="fill:#1f77b4;stroke:#1f77b4;" x="106.020643" xlink:href="#m7efba7d32a" y="33.803123"/>
     <use style="fill:#1f77b4;stroke:#1f77b4;" x="105.52322" xlink:href="#m7efba7d32a" y="36.676582"/>
     <use style="fill:#1f77b4;stroke:#1f77b4;" x="105.085471" xlink:href="#m7efba7d32a" y="39.815264"/>
     <use style="fill:#1f77b4;stroke:#1f77b4;" x="104.69701" xlink:href="#m7efba7d32a" y="43.097341"/>
     <use style="fill:#1f77b4;stroke:#1f77b4;" x="104.462569" xlink:href="#m7efba7d32a" y="46.429229"/>
     <use style="fill:#1f77b4;stroke:#1f77b4;" x="104.225668" xlink:href="#m7efba7d32a" y="49.815084"/>
     <use style="fill:#1f77b4;stroke:#1f77b4;" x="103.891499" xlink:href="#m7efba7d32a" y="53.363386"/>
     <use style="fill:#1f77b4;stroke:#1f77b4;" x="103.625495" xlink:href="#m7efba7d32a" y="56.889686"/>
     <use style="fill:#1f77b4;stroke:#1f77b4;" x="103.29252" xlink:href="#m7efba7d32a" y="60.014848"/>
     <use style="fill:#1f77b4;stroke:#1f77b4;" x="103.198368" xlink:href="#m7efba7d32a" y="63.988842"/>
     <use style="fill:#1f77b4;stroke:#1f77b4;" x="102.93412" xlink:href="#m7efba7d32a" y="67.783581"/>
     <use style="fill:#1f77b4;stroke:#1f77b4;" x="102.748337" xlink:href="#m7efba7d32a" y="71.255926"/>
     <use style="fill:#1f77b4;stroke:#1f77b4;" x="102.519259" xlink:href="#m7efba7d32a" y="74.686105"/>
     <use style="fill:#1f77b4;stroke:#1f77b4;" x="102.356442" xlink:href="#m7efba7d32a" y="78.30449"/>
     <use style="fill:#1f77b4;stroke:#1f77b4;" x="102.171646" xlink:href="#m7efba7d32a" y="81.865894"/>
     <use style="fill:#1f77b4;stroke:#1f77b4;" x="102.011727" xlink:href="#m7efba7d32a" y="85.460201"/>
     <use style="fill:#1f77b4;stroke:#1f77b4;" x="101.832653" xlink:href="#m7efba7d32a" y="89.078072"/>
     <use style="fill:#1f77b4;stroke:#1f77b4;" x="101.62721" xlink:href="#m7efba7d32a" y="92.340198"/>
     <use style="fill:#1f77b4;stroke:#1f77b4;" x="101.416417" xlink:href="#m7efba7d32a" y="95.492125"/>
     <use style="fill:#1f77b4;stroke:#1f77b4;" x="101.344571" xlink:href="#m7efba7d32a" y="99.444474"/>
     <use style="fill:#1f77b4;stroke:#1f77b4;" x="101.189246" xlink:href="#m7efba7d32a" y="102.929651"/>
     <use style="fill:#1f77b4;stroke:#1f77b4;" x="100.981288" xlink:href="#m7efba7d32a" y="106.515247"/>
     <use style="fill:#1f77b4;stroke:#1f77b4;" x="100.838186" xlink:href="#m7efba7d32a" y="110.513293"/>
     <use style="fill:#1f77b4;stroke:#1f77b4;" x="100.641894" xlink:href="#m7efba7d32a" y="114.305774"/>
     <use style="fill:#1f77b4;stroke:#1f77b4;" x="100.392031" xlink:href="#m7efba7d32a" y="118.547747"/>
     <use style="fill:#1f77b4;stroke:#1f77b4;" x="100.243887" xlink:href="#m7efba7d32a" y="123.351773"/>
     <use style="fill:#1f77b4;stroke:#1f77b4;" x="99.958742" xlink:href="#m7efba7d32a" y="128.644179"/>
     <use style="fill:#1f77b4;stroke:#1f77b4;" x="99.965085" xlink:href="#m7efba7d32a" y="129.547687"/>
     <use style="fill:#1f77b4;stroke:#1f77b4;" x="99.848569" xlink:href="#m7efba7d32a" y="130.243105"/>
     <use style="fill:#1f77b4;stroke:#1f77b4;" x="99.713151" xlink:href="#m7efba7d32a" y="130.850911"/>
     <use style="fill:#1f77b4;stroke:#1f77b4;" x="99.593975" xlink:href="#m7efba7d32a" y="131.4863"/>
     <use style="fill:#1f77b4;stroke:#1f77b4;" x="99.464242" xlink:href="#m7efba7d32a" y="132.06249"/>
     <use style="fill:#1f77b4;stroke:#1f77b4;" x="99.353426" xlink:href="#m7efba7d32a" y="132.650978"/>
     <use style="fill:#1f77b4;stroke:#1f77b4;" x="99.231519" xlink:href="#m7efba7d32a" y="133.194122"/>
     <use style="fill:#1f77b4;stroke:#1f77b4;" x="99.120774" xlink:href="#m7efba7d32a" y="133.737345"/>
     <use style="fill:#1f77b4;stroke:#1f77b4;" x="99.008899" xlink:href="#m7efba7d32a" y="134.260308"/>
     <use style="fill:#1f77b4;stroke:#1f77b4;" x="98.920437" xlink:href="#m7efba7d32a" y="134.854408"/>
     <use style="fill:#1f77b4;stroke:#1f77b4;" x="98.836208" xlink:href="#m7efba7d32a" y="135.429514"/>
     <use style="fill:#1f77b4;stroke:#1f77b4;" x="98.754573" xlink:href="#m7efba7d32a" y="136.03387"/>
     <use style="fill:#1f77b4;stroke:#1f77b4;" x="98.680739" xlink:href="#m7efba7d32a" y="136.658684"/>
     <use style="fill:#1f77b4;stroke:#1f77b4;" x="98.595668" xlink:href="#m7efba7d32a" y="137.205142"/>
     <use style="fill:#1f77b4;stroke:#1f77b4;" x="98.535519" xlink:href="#m7efba7d32a" y="137.77698"/>
     <use style="fill:#1f77b4;stroke:#1f77b4;" x="98.47925" xlink:href="#m7efba7d32a" y="138.356911"/>
     <use style="fill:#1f77b4;stroke:#1f77b4;" x="98.420844" xlink:href="#m7efba7d32a" y="138.907552"/>
     <use style="fill:#1f77b4;stroke:#1f77b4;" x="98.378135" xlink:href="#m7efba7d32a" y="139.511417"/>
     <use style="fill:#1f77b4;stroke:#1f77b4;" x="98.331003" xlink:href="#m7efba7d32a" y="140.029524"/>
     <use style="fill:#1f77b4;stroke:#1f77b4;" x="98.296507" xlink:href="#m7efba7d32a" y="140.58935"/>
     <use style="fill:#1f77b4;stroke:#1f77b4;" x="98.256772" xlink:href="#m7efba7d32a" y="141.148387"/>
     <use style="fill:#1f77b4;stroke:#1f77b4;" x="98.228735" xlink:href="#m7efba7d32a" y="141.709429"/>
     <use style="fill:#1f77b4;stroke:#1f77b4;" x="98.207632" xlink:href="#m7efba7d32a" y="142.319045"/>
     <use style="fill:#1f77b4;stroke:#1f77b4;" x="98.183741" xlink:href="#m7efba7d32a" y="142.895868"/>
     <use style="fill:#1f77b4;stroke:#1f77b4;" x="98.166973" xlink:href="#m7efba7d32a" y="143.56236"/>
     <use style="fill:#1f77b4;stroke:#1f77b4;" x="98.167782" xlink:href="#m7efba7d32a" y="143.656958"/>
     <use style="fill:#1f77b4;stroke:#1f77b4;" x="98.164219" xlink:href="#m7efba7d32a" y="143.754"/>
     <use style="fill:#1f77b4;stroke:#1f77b4;" x="98.160018" xlink:href="#m7efba7d32a" y="143.835168"/>
     <use style="fill:#1f77b4;stroke:#1f77b4;" x="98.154612" xlink:href="#m7efba7d32a" y="143.897956"/>
     <use style="fill:#1f77b4;stroke:#1f77b4;" x="98.147971" xlink:href="#m7efba7d32a" y="143.954338"/>
     <use style="fill:#1f77b4;stroke:#1f77b4;" x="98.142907" xlink:href="#m7efba7d32a" y="144.006452"/>
     <use style="fill:#1f77b4;stroke:#1f77b4;" x="98.136714" xlink:href="#m7efba7d32a" y="144.045729"/>
     <use style="fill:#1f77b4;stroke:#1f77b4;" x="98.12992" xlink:href="#m7efba7d32a" y="144.066769"/>
     <use style="fill:#1f77b4;stroke:#1f77b4;" x="98.120452" xlink:href="#m7efba7d32a" y="144.075508"/>
     <use style="fill:#1f77b4;stroke:#1f77b4;" x="98.112482" xlink:href="#m7efba7d32a" y="144.090109"/>
     <use style="fill:#1f77b4;stroke:#1f77b4;" x="98.108278" xlink:href="#m7efba7d32a" y="144.126373"/>
     <use style="fill:#1f77b4;stroke:#1f77b4;" x="98.101765" xlink:href="#m7efba7d32a" y="144.138306"/>
     <use style="fill:#1f77b4;stroke:#1f77b4;" x="98.097383" xlink:href="#m7efba7d32a" y="144.15276"/>
     <use style="fill:#1f77b4;stroke:#1f77b4;" x="98.09158" xlink:href="#m7efba7d32a" y="144.163577"/>
     <use style="fill:#1f77b4;stroke:#1f77b4;" x="98.085043" xlink:href="#m7efba7d32a" y="144.167432"/>
     <use style="fill:#1f77b4;stroke:#1f77b4;" x="98.080707" xlink:href="#m7efba7d32a" y="144.177256"/>
     <use style="fill:#1f77b4;stroke:#1f77b4;" x="98.075277" xlink:href="#m7efba7d32a" y="144.174222"/>
     <use style="fill:#1f77b4;stroke:#1f77b4;" x="98.069313" xlink:href="#m7efba7d32a" y="144.166839"/>
     <use style="fill:#1f77b4;stroke:#1f77b4;" x="98.065476" xlink:href="#m7efba7d32a" y="144.153754"/>
     <use style="fill:#1f77b4;stroke:#1f77b4;" x="98.062217" xlink:href="#m7efba7d32a" y="144.14501"/>
     <use style="fill:#1f77b4;stroke:#1f77b4;" x="98.057477" xlink:href="#m7efba7d32a" y="144.140398"/>
     <use style="fill:#1f77b4;stroke:#1f77b4;" x="98.054613" xlink:href="#m7efba7d32a" y="144.120858"/>
     <use style="fill:#1f77b4;stroke:#1f77b4;" x="98.050004" xlink:href="#m7efba7d32a" y="144.106021"/>
     <use style="fill:#1f77b4;stroke:#1f77b4;" x="98.045121" xlink:href="#m7efba7d32a" y="144.077418"/>
    </g>
   </g>
   <g id="patch_3">
    <path d="M 56.028488 277.111219 
L 56.028488 10.999219 
" style="fill:none;stroke:#000000;stroke-linecap:square;stroke-linejoin:miter;stroke-width:0.8;"/>
   </g>
   <g id="patch_4">
    <path d="M 413.148488 277.111219 
L 413.148488 10.999219 
" style="fill:none;stroke:#000000;stroke-linecap:square;stroke-linejoin:miter;stroke-width:0.8;"/>
   </g>
   <g id="patch_5">
    <path d="M 56.028488 277.111219 
L 413.148488 277.111219 
" style="fill:none;stroke:#000000;stroke-linecap:square;stroke-linejoin:miter;stroke-width:0.8;"/>
   </g>
   <g id="patch_6">
    <path d="M 56.028488 10.999219 
L 413.148488 10.999219 
" style="fill:none;stroke:#000000;stroke-linecap:square;stroke-linejoin:miter;stroke-width:0.8;"/>
   </g>
   <g id="text_21">
    <g clip-path="url(#p42694b9984)">
     <!-- 0.000 -->
     <g style="fill:#440154;" transform="translate(85.252759 243.285259)rotate(-0.000098)scale(0.06 -0.06)">
      <use xlink:href="#DejaVuSans-48"/>
      <use x="63.623047" xlink:href="#DejaVuSans-46"/>
      <use x="95.410156" xlink:href="#DejaVuSans-48"/>
      <use x="159.033203" xlink:href="#DejaVuSans-48"/>
      <use x="222.65625" xlink:href="#DejaVuSans-48"/>
     </g>
    </g>
   </g>
   <g id="text_22">
    <g clip-path="url(#p42694b9984)">
     <!-- 0.500 -->
     <g style="fill:#481467;" transform="translate(85.25276 243.285266)rotate(-0.000148)scale(0.06 -0.06)">
      <use xlink:href="#DejaVuSans-48"/>
      <use x="63.623047" xlink:href="#DejaVuSans-46"/>
      <use x="95.410156" xlink:href="#DejaVuSans-53"/>
      <use x="159.033203" xlink:href="#DejaVuSans-48"/>
      <use x="222.65625" xlink:href="#DejaVuSans-48"/>
     </g>
    </g>
   </g>
   <g id="text_23">
    <g clip-path="url(#p42694b9984)">
     <!-- 1.000 -->
     <g style="fill:#482576;" transform="translate(85.252762 243.285273)rotate(-0.000197)scale(0.06 -0.06)">
      <use xlink:href="#DejaVuSans-49"/>
      <use x="63.623047" xlink:href="#DejaVuSans-46"/>
      <use x="95.410156" xlink:href="#DejaVuSans-48"/>
      <use x="159.033203" xlink:href="#DejaVuSans-48"/>
      <use x="222.65625" xlink:href="#DejaVuSans-48"/>
     </g>
    </g>
   </g>
   <g id="text_24">
    <g clip-path="url(#p42694b9984)">
     <!-- 1.500 -->
     <g style="fill:#453781;" transform="translate(85.252763 243.285281)rotate(-0.000246)scale(0.06 -0.06)">
      <use xlink:href="#DejaVuSans-49"/>
      <use x="63.623047" xlink:href="#DejaVuSans-46"/>
      <use x="95.410156" xlink:href="#DejaVuSans-53"/>
      <use x="159.033203" xlink:href="#DejaVuSans-48"/>
      <use x="222.65625" xlink:href="#DejaVuSans-48"/>
     </g>
    </g>
   </g>
   <g id="text_25">
    <g clip-path="url(#p42694b9984)">
     <!-- 2.000 -->
     <g style="fill:#404688;" transform="translate(85.252764 243.285288)rotate(-0.000295)scale(0.06 -0.06)">
      <use xlink:href="#DejaVuSans-50"/>
      <use x="63.623047" xlink:href="#DejaVuSans-46"/>
      <use x="95.410156" xlink:href="#DejaVuSans-48"/>
      <use x="159.033203" xlink:href="#DejaVuSans-48"/>
      <use x="222.65625" xlink:href="#DejaVuSans-48"/>
     </g>
    </g>
   </g>
   <g id="text_26">
    <g clip-path="url(#p42694b9984)">
     <!-- 2.500 -->
     <g style="fill:#39558c;" transform="translate(85.252766 243.285295)rotate(-0.000344)scale(0.06 -0.06)">
      <use xlink:href="#DejaVuSans-50"/>
      <use x="63.623047" xlink:href="#DejaVuSans-46"/>
      <use x="95.410156" xlink:href="#DejaVuSans-53"/>
      <use x="159.033203" xlink:href="#DejaVuSans-48"/>
      <use x="222.65625" xlink:href="#DejaVuSans-48"/>
     </g>
    </g>
   </g>
   <g id="text_27">
    <g clip-path="url(#p42694b9984)">
     <!-- 3.000 -->
     <g style="fill:#33638d;" transform="translate(85.252767 243.285303)rotate(-0.000393)scale(0.06 -0.06)">
      <defs>
       <path d="M 40.578125 39.3125 
Q 47.65625 37.796875 51.625 33 
Q 55.609375 28.21875 55.609375 21.1875 
Q 55.609375 10.40625 48.1875 4.484375 
Q 40.765625 -1.421875 27.09375 -1.421875 
Q 22.515625 -1.421875 17.65625 -0.515625 
Q 12.796875 0.390625 7.625 2.203125 
L 7.625 11.71875 
Q 11.71875 9.328125 16.59375 8.109375 
Q 21.484375 6.890625 26.8125 6.890625 
Q 36.078125 6.890625 40.9375 10.546875 
Q 45.796875 14.203125 45.796875 21.1875 
Q 45.796875 27.640625 41.28125 31.265625 
Q 36.765625 34.90625 28.71875 34.90625 
L 20.21875 34.90625 
L 20.21875 43.015625 
L 29.109375 43.015625 
Q 36.375 43.015625 40.234375 45.921875 
Q 44.09375 48.828125 44.09375 54.296875 
Q 44.09375 59.90625 40.109375 62.90625 
Q 36.140625 65.921875 28.71875 65.921875 
Q 24.65625 65.921875 20.015625 65.03125 
Q 15.375 64.15625 9.8125 62.3125 
L 9.8125 71.09375 
Q 15.4375 72.65625 20.34375 73.4375 
Q 25.25 74.21875 29.59375 74.21875 
Q 40.828125 74.21875 47.359375 69.109375 
Q 53.90625 64.015625 53.90625 55.328125 
Q 53.90625 49.265625 50.4375 45.09375 
Q 46.96875 40.921875 40.578125 39.3125 
z
" id="DejaVuSans-51"/>
      </defs>
      <use xlink:href="#DejaVuSans-51"/>
      <use x="63.623047" xlink:href="#DejaVuSans-46"/>
      <use x="95.410156" xlink:href="#DejaVuSans-48"/>
      <use x="159.033203" xlink:href="#DejaVuSans-48"/>
      <use x="222.65625" xlink:href="#DejaVuSans-48"/>
     </g>
    </g>
   </g>
   <g id="text_28">
    <g clip-path="url(#p42694b9984)">
     <!-- 3.500 -->
     <g style="fill:#2d718e;" transform="translate(85.252769 243.28531)rotate(-0.000443)scale(0.06 -0.06)">
      <use xlink:href="#DejaVuSans-51"/>
      <use x="63.623047" xlink:href="#DejaVuSans-46"/>
      <use x="95.410156" xlink:href="#DejaVuSans-53"/>
      <use x="159.033203" xlink:href="#DejaVuSans-48"/>
      <use x="222.65625" xlink:href="#DejaVuSans-48"/>
     </g>
    </g>
   </g>
   <g id="text_29">
    <g clip-path="url(#p42694b9984)">
     <!-- 4.000 -->
     <g style="fill:#287d8e;" transform="translate(85.25277 243.285318)rotate(-0.000492)scale(0.06 -0.06)">
      <use xlink:href="#DejaVuSans-52"/>
      <use x="63.623047" xlink:href="#DejaVuSans-46"/>
      <use x="95.410156" xlink:href="#DejaVuSans-48"/>
      <use x="159.033203" xlink:href="#DejaVuSans-48"/>
      <use x="222.65625" xlink:href="#DejaVuSans-48"/>
     </g>
    </g>
   </g>
   <g id="text_30">
    <g clip-path="url(#p42694b9984)">
     <!-- 4.500 -->
     <g style="fill:#238a8d;" transform="translate(85.252772 243.285325)rotate(-0.000541)scale(0.06 -0.06)">
      <use xlink:href="#DejaVuSans-52"/>
      <use x="63.623047" xlink:href="#DejaVuSans-46"/>
      <use x="95.410156" xlink:href="#DejaVuSans-53"/>
      <use x="159.033203" xlink:href="#DejaVuSans-48"/>
      <use x="222.65625" xlink:href="#DejaVuSans-48"/>
     </g>
    </g>
   </g>
   <g id="text_31">
    <g clip-path="url(#p42694b9984)">
     <!-- 5.000 -->
     <g style="fill:#1f968b;" transform="translate(85.252773 243.285332)rotate(-0.00059)scale(0.06 -0.06)">
      <use xlink:href="#DejaVuSans-53"/>
      <use x="63.623047" xlink:href="#DejaVuSans-46"/>
      <use x="95.410156" xlink:href="#DejaVuSans-48"/>
      <use x="159.033203" xlink:href="#DejaVuSans-48"/>
      <use x="222.65625" xlink:href="#DejaVuSans-48"/>
     </g>
    </g>
   </g>
   <g id="text_32">
    <g clip-path="url(#p42694b9984)">
     <!-- 5.500 -->
     <g style="fill:#20a386;" transform="translate(85.252774 243.28534)rotate(-0.000639)scale(0.06 -0.06)">
      <use xlink:href="#DejaVuSans-53"/>
      <use x="63.623047" xlink:href="#DejaVuSans-46"/>
      <use x="95.410156" xlink:href="#DejaVuSans-53"/>
      <use x="159.033203" xlink:href="#DejaVuSans-48"/>
      <use x="222.65625" xlink:href="#DejaVuSans-48"/>
     </g>
    </g>
   </g>
   <g id="text_33">
    <g clip-path="url(#p42694b9984)">
     <!-- 6.000 -->
     <g style="fill:#29af7f;" transform="translate(85.252776 243.285347)rotate(-0.000688)scale(0.06 -0.06)">
      <use xlink:href="#DejaVuSans-54"/>
      <use x="63.623047" xlink:href="#DejaVuSans-46"/>
      <use x="95.410156" xlink:href="#DejaVuSans-48"/>
      <use x="159.033203" xlink:href="#DejaVuSans-48"/>
      <use x="222.65625" xlink:href="#DejaVuSans-48"/>
     </g>
    </g>
   </g>
   <g id="text_34">
    <g clip-path="url(#p42694b9984)">
     <!-- 6.500 -->
     <g style="fill:#3dbc74;" transform="translate(85.252777 243.285354)rotate(-0.000738)scale(0.06 -0.06)">
      <use xlink:href="#DejaVuSans-54"/>
      <use x="63.623047" xlink:href="#DejaVuSans-46"/>
      <use x="95.410156" xlink:href="#DejaVuSans-53"/>
      <use x="159.033203" xlink:href="#DejaVuSans-48"/>
      <use x="222.65625" xlink:href="#DejaVuSans-48"/>
     </g>
    </g>
   </g>
   <g id="text_35">
    <g clip-path="url(#p42694b9984)">
     <!-- 7.000 -->
     <g style="fill:#56c667;" transform="translate(85.252779 243.285362)rotate(-0.000787)scale(0.06 -0.06)">
      <use xlink:href="#DejaVuSans-55"/>
      <use x="63.623047" xlink:href="#DejaVuSans-46"/>
      <use x="95.410156" xlink:href="#DejaVuSans-48"/>
      <use x="159.033203" xlink:href="#DejaVuSans-48"/>
      <use x="222.65625" xlink:href="#DejaVuSans-48"/>
     </g>
    </g>
   </g>
   <g id="text_36">
    <g clip-path="url(#p42694b9984)">
     <!-- 7.500 -->
     <g style="fill:#75d054;" transform="translate(85.25278 243.285369)rotate(-0.000836)scale(0.06 -0.06)">
      <use xlink:href="#DejaVuSans-55"/>
      <use x="63.623047" xlink:href="#DejaVuSans-46"/>
      <use x="95.410156" xlink:href="#DejaVuSans-53"/>
      <use x="159.033203" xlink:href="#DejaVuSans-48"/>
      <use x="222.65625" xlink:href="#DejaVuSans-48"/>
     </g>
    </g>
   </g>
   <g id="text_37">
    <g clip-path="url(#p42694b9984)">
     <!-- 8.000 -->
     <g style="fill:#95d840;" transform="translate(85.252781 243.285377)rotate(-0.000885)scale(0.06 -0.06)">
      <use xlink:href="#DejaVuSans-56"/>
      <use x="63.623047" xlink:href="#DejaVuSans-46"/>
      <use x="95.410156" xlink:href="#DejaVuSans-48"/>
      <use x="159.033203" xlink:href="#DejaVuSans-48"/>
      <use x="222.65625" xlink:href="#DejaVuSans-48"/>
     </g>
    </g>
   </g>
   <g id="text_38">
    <g clip-path="url(#p42694b9984)">
     <!-- 8.500 -->
     <g style="fill:#bade28;" transform="translate(85.252783 243.285384)rotate(-0.000934)scale(0.06 -0.06)">
      <use xlink:href="#DejaVuSans-56"/>
      <use x="63.623047" xlink:href="#DejaVuSans-46"/>
      <use x="95.410156" xlink:href="#DejaVuSans-53"/>
      <use x="159.033203" xlink:href="#DejaVuSans-48"/>
      <use x="222.65625" xlink:href="#DejaVuSans-48"/>
     </g>
    </g>
   </g>
   <g id="text_39">
    <g clip-path="url(#p42694b9984)">
     <!-- 9.000 -->
     <g style="fill:#dde318;" transform="translate(85.252784 243.285391)rotate(-0.000984)scale(0.06 -0.06)">
      <defs>
       <path d="M 10.984375 1.515625 
L 10.984375 10.5 
Q 14.703125 8.734375 18.5 7.8125 
Q 22.3125 6.890625 25.984375 6.890625 
Q 35.75 6.890625 40.890625 13.453125 
Q 46.046875 20.015625 46.78125 33.40625 
Q 43.953125 29.203125 39.59375 26.953125 
Q 35.25 24.703125 29.984375 24.703125 
Q 19.046875 24.703125 12.671875 31.3125 
Q 6.296875 37.9375 6.296875 49.421875 
Q 6.296875 60.640625 12.9375 67.421875 
Q 19.578125 74.21875 30.609375 74.21875 
Q 43.265625 74.21875 49.921875 64.515625 
Q 56.59375 54.828125 56.59375 36.375 
Q 56.59375 19.140625 48.40625 8.859375 
Q 40.234375 -1.421875 26.421875 -1.421875 
Q 22.703125 -1.421875 18.890625 -0.6875 
Q 15.09375 0.046875 10.984375 1.515625 
z
M 30.609375 32.421875 
Q 37.25 32.421875 41.125 36.953125 
Q 45.015625 41.5 45.015625 49.421875 
Q 45.015625 57.28125 41.125 61.84375 
Q 37.25 66.40625 30.609375 66.40625 
Q 23.96875 66.40625 20.09375 61.84375 
Q 16.21875 57.28125 16.21875 49.421875 
Q 16.21875 41.5 20.09375 36.953125 
Q 23.96875 32.421875 30.609375 32.421875 
z
" id="DejaVuSans-57"/>
      </defs>
      <use xlink:href="#DejaVuSans-57"/>
      <use x="63.623047" xlink:href="#DejaVuSans-46"/>
      <use x="95.410156" xlink:href="#DejaVuSans-48"/>
      <use x="159.033203" xlink:href="#DejaVuSans-48"/>
      <use x="222.65625" xlink:href="#DejaVuSans-48"/>
     </g>
    </g>
   </g>
   <g id="text_40">
    <g clip-path="url(#p42694b9984)">
     <!-- 9.500 -->
     <g style="fill:#fde725;" transform="translate(85.252786 243.285399)rotate(-0.001033)scale(0.06 -0.06)">
      <use xlink:href="#DejaVuSans-57"/>
      <use x="63.623047" xlink:href="#DejaVuSans-46"/>
      <use x="95.410156" xlink:href="#DejaVuSans-53"/>
      <use x="159.033203" xlink:href="#DejaVuSans-48"/>
      <use x="222.65625" xlink:href="#DejaVuSans-48"/>
     </g>
    </g>
   </g>
   <g id="text_41">
    <g clip-path="url(#p42694b9984)">
     <!-- 10.000 -->
     <g style="fill:#440154;" transform="translate(79.143127 243.288623)rotate(-0.018413)scale(0.06 -0.06)">
      <use xlink:href="#DejaVuSans-49"/>
      <use x="63.623047" xlink:href="#DejaVuSans-48"/>
      <use x="127.246094" xlink:href="#DejaVuSans-46"/>
      <use x="159.033203" xlink:href="#DejaVuSans-48"/>
      <use x="222.65625" xlink:href="#DejaVuSans-48"/>
      <use x="286.279297" xlink:href="#DejaVuSans-48"/>
     </g>
    </g>
   </g>
   <g id="text_42">
    <g clip-path="url(#p42694b9984)">
     <!-- 100.000 -->
     <g style="fill:#440154;" transform="translate(72.942271 242.335379)rotate(-355.623908)scale(0.06 -0.06)">
      <use xlink:href="#DejaVuSans-49"/>
      <use x="63.623047" xlink:href="#DejaVuSans-48"/>
      <use x="127.246094" xlink:href="#DejaVuSans-48"/>
      <use x="190.869141" xlink:href="#DejaVuSans-46"/>
      <use x="222.65625" xlink:href="#DejaVuSans-48"/>
      <use x="286.279297" xlink:href="#DejaVuSans-48"/>
      <use x="349.902344" xlink:href="#DejaVuSans-48"/>
     </g>
    </g>
   </g>
   <g id="text_43">
    <g clip-path="url(#p42694b9984)">
     <!-- 1000.000 -->
     <g style="fill:#440154;" transform="translate(71.05686 242.552684)rotate(-357.013177)scale(0.06 -0.06)">
      <use xlink:href="#DejaVuSans-49"/>
      <use x="63.623047" xlink:href="#DejaVuSans-48"/>
      <use x="127.246094" xlink:href="#DejaVuSans-48"/>
      <use x="190.869141" xlink:href="#DejaVuSans-48"/>
      <use x="254.492188" xlink:href="#DejaVuSans-46"/>
      <use x="286.279297" xlink:href="#DejaVuSans-48"/>
      <use x="349.902344" xlink:href="#DejaVuSans-48"/>
      <use x="413.525391" xlink:href="#DejaVuSans-48"/>
     </g>
    </g>
   </g>
   <g id="text_44">
    <g clip-path="url(#p42694b9984)">
     <!-- 10000.000 -->
     <g style="fill:#440154;" transform="translate(69.200224 250.453479)rotate(-24.070595)scale(0.06 -0.06)">
      <use xlink:href="#DejaVuSans-49"/>
      <use x="63.623047" xlink:href="#DejaVuSans-48"/>
      <use x="127.246094" xlink:href="#DejaVuSans-48"/>
      <use x="190.869141" xlink:href="#DejaVuSans-48"/>
      <use x="254.492188" xlink:href="#DejaVuSans-48"/>
      <use x="318.115234" xlink:href="#DejaVuSans-46"/>
      <use x="349.902344" xlink:href="#DejaVuSans-48"/>
      <use x="413.525391" xlink:href="#DejaVuSans-48"/>
      <use x="477.148438" xlink:href="#DejaVuSans-48"/>
     </g>
    </g>
   </g>
   <g id="text_45">
    <g clip-path="url(#p42694b9984)">
     <!-- 100000.000 -->
     <g style="fill:#440154;" transform="translate(72.065704 268.89854)rotate(-54.537493)scale(0.06 -0.06)">
      <use xlink:href="#DejaVuSans-49"/>
      <use x="63.623047" xlink:href="#DejaVuSans-48"/>
      <use x="127.246094" xlink:href="#DejaVuSans-48"/>
      <use x="190.869141" xlink:href="#DejaVuSans-48"/>
      <use x="254.492188" xlink:href="#DejaVuSans-48"/>
      <use x="318.115234" xlink:href="#DejaVuSans-48"/>
      <use x="381.738281" xlink:href="#DejaVuSans-46"/>
      <use x="413.525391" xlink:href="#DejaVuSans-48"/>
      <use x="477.148438" xlink:href="#DejaVuSans-48"/>
      <use x="540.771484" xlink:href="#DejaVuSans-48"/>
     </g>
    </g>
   </g>
  </g>
 </g>
 <defs>
  <clipPath id="p42694b9984">
   <rect height="266.112" width="357.12" x="56.028488" y="10.999219"/>
  </clipPath>
 </defs>
</svg>
