<?xml version="1.0" encoding="utf-8" standalone="no"?>
<!DOCTYPE svg PUBLIC "-//W3C//DTD SVG 1.1//EN"
  "http://www.w3.org/Graphics/SVG/1.1/DTD/svg11.dtd">
<!-- Created with matplotlib (https://matplotlib.org/) -->
<svg height="321.713144pt" version="1.1" viewBox="0 0 420.348487 321.713144" width="420.348487pt" xmlns="http://www.w3.org/2000/svg" xmlns:xlink="http://www.w3.org/1999/xlink">
 <metadata>
  <rdf:RDF xmlns:cc="http://creativecommons.org/ns#" xmlns:dc="http://purl.org/dc/elements/1.1/" xmlns:rdf="http://www.w3.org/1999/02/22-rdf-syntax-ns#">
   <cc:Work>
    <dc:type rdf:resource="http://purl.org/dc/dcmitype/StillImage"/>
    <dc:date>2021-09-21T23:35:49.228788</dc:date>
    <dc:format>image/svg+xml</dc:format>
    <dc:creator>
     <cc:Agent>
      <dc:title>Matplotlib v3.3.1, https://matplotlib.org/</dc:title>
     </cc:Agent>
    </dc:creator>
   </cc:Work>
  </rdf:RDF>
 </metadata>
 <defs>
  <style type="text/css">*{stroke-linecap:butt;stroke-linejoin:round;}</style>
 </defs>
 <g id="figure_1">
  <g id="patch_1">
   <path d="M 0 321.713144 
L 420.348487 321.713144 
L 420.348487 0 
L 0 0 
z
" style="fill:#ffffff;"/>
  </g>
  <g id="axes_1">
   <g id="patch_2">
    <path d="M 56.028488 277.111219 
L 413.148488 277.111219 
L 413.148488 10.999219 
L 56.028488 10.999219 
z
" style="fill:#ffffff;"/>
   </g>
   <g id="matplotlib.axis_1">
    <g id="xtick_1">
     <g id="line2d_1">
      <defs>
       <path d="M 0 0 
L 0 3.5 
" id="mf7095cb1d0" style="stroke:#000000;stroke-width:0.8;"/>
      </defs>
      <g>
       <use style="stroke:#000000;stroke-width:0.8;" x="56.028488" xlink:href="#mf7095cb1d0" y="277.111219"/>
      </g>
     </g>
     <g id="text_1">
      <!-- −20 -->
      <g transform="translate(45.476144 291.709656)scale(0.1 -0.1)">
       <defs>
        <path d="M 10.59375 35.5 
L 73.1875 35.5 
L 73.1875 27.203125 
L 10.59375 27.203125 
z
" id="DejaVuSans-8722"/>
        <path d="M 19.1875 8.296875 
L 53.609375 8.296875 
L 53.609375 0 
L 7.328125 0 
L 7.328125 8.296875 
Q 12.9375 14.109375 22.625 23.890625 
Q 32.328125 33.6875 34.8125 36.53125 
Q 39.546875 41.84375 41.421875 45.53125 
Q 43.3125 49.21875 43.3125 52.78125 
Q 43.3125 58.59375 39.234375 62.25 
Q 35.15625 65.921875 28.609375 65.921875 
Q 23.96875 65.921875 18.8125 64.3125 
Q 13.671875 62.703125 7.8125 59.421875 
L 7.8125 69.390625 
Q 13.765625 71.78125 18.9375 73 
Q 24.125 74.21875 28.421875 74.21875 
Q 39.75 74.21875 46.484375 68.546875 
Q 53.21875 62.890625 53.21875 53.421875 
Q 53.21875 48.921875 51.53125 44.890625 
Q 49.859375 40.875 45.40625 35.40625 
Q 44.1875 33.984375 37.640625 27.21875 
Q 31.109375 20.453125 19.1875 8.296875 
z
" id="DejaVuSans-50"/>
        <path d="M 31.78125 66.40625 
Q 24.171875 66.40625 20.328125 58.90625 
Q 16.5 51.421875 16.5 36.375 
Q 16.5 21.390625 20.328125 13.890625 
Q 24.171875 6.390625 31.78125 6.390625 
Q 39.453125 6.390625 43.28125 13.890625 
Q 47.125 21.390625 47.125 36.375 
Q 47.125 51.421875 43.28125 58.90625 
Q 39.453125 66.40625 31.78125 66.40625 
z
M 31.78125 74.21875 
Q 44.046875 74.21875 50.515625 64.515625 
Q 56.984375 54.828125 56.984375 36.375 
Q 56.984375 17.96875 50.515625 8.265625 
Q 44.046875 -1.421875 31.78125 -1.421875 
Q 19.53125 -1.421875 13.0625 8.265625 
Q 6.59375 17.96875 6.59375 36.375 
Q 6.59375 54.828125 13.0625 64.515625 
Q 19.53125 74.21875 31.78125 74.21875 
z
" id="DejaVuSans-48"/>
       </defs>
       <use xlink:href="#DejaVuSans-8722"/>
       <use x="83.789062" xlink:href="#DejaVuSans-50"/>
       <use x="147.412109" xlink:href="#DejaVuSans-48"/>
      </g>
     </g>
    </g>
    <g id="xtick_2">
     <g id="line2d_2">
      <g>
       <use style="stroke:#000000;stroke-width:0.8;" x="98.042605" xlink:href="#mf7095cb1d0" y="277.111219"/>
      </g>
     </g>
     <g id="text_2">
      <!-- 0 -->
      <g transform="translate(94.861355 291.709656)scale(0.1 -0.1)">
       <use xlink:href="#DejaVuSans-48"/>
      </g>
     </g>
    </g>
    <g id="xtick_3">
     <g id="line2d_3">
      <g>
       <use style="stroke:#000000;stroke-width:0.8;" x="140.056723" xlink:href="#mf7095cb1d0" y="277.111219"/>
      </g>
     </g>
     <g id="text_3">
      <!-- 20 -->
      <g transform="translate(133.694223 291.709656)scale(0.1 -0.1)">
       <use xlink:href="#DejaVuSans-50"/>
       <use x="63.623047" xlink:href="#DejaVuSans-48"/>
      </g>
     </g>
    </g>
    <g id="xtick_4">
     <g id="line2d_4">
      <g>
       <use style="stroke:#000000;stroke-width:0.8;" x="182.07084" xlink:href="#mf7095cb1d0" y="277.111219"/>
      </g>
     </g>
     <g id="text_4">
      <!-- 40 -->
      <g transform="translate(175.70834 291.709656)scale(0.1 -0.1)">
       <defs>
        <path d="M 37.796875 64.3125 
L 12.890625 25.390625 
L 37.796875 25.390625 
z
M 35.203125 72.90625 
L 47.609375 72.90625 
L 47.609375 25.390625 
L 58.015625 25.390625 
L 58.015625 17.1875 
L 47.609375 17.1875 
L 47.609375 0 
L 37.796875 0 
L 37.796875 17.1875 
L 4.890625 17.1875 
L 4.890625 26.703125 
z
" id="DejaVuSans-52"/>
       </defs>
       <use xlink:href="#DejaVuSans-52"/>
       <use x="63.623047" xlink:href="#DejaVuSans-48"/>
      </g>
     </g>
    </g>
    <g id="xtick_5">
     <g id="line2d_5">
      <g>
       <use style="stroke:#000000;stroke-width:0.8;" x="224.084958" xlink:href="#mf7095cb1d0" y="277.111219"/>
      </g>
     </g>
     <g id="text_5">
      <!-- 60 -->
      <g transform="translate(217.722458 291.709656)scale(0.1 -0.1)">
       <defs>
        <path d="M 33.015625 40.375 
Q 26.375 40.375 22.484375 35.828125 
Q 18.609375 31.296875 18.609375 23.390625 
Q 18.609375 15.53125 22.484375 10.953125 
Q 26.375 6.390625 33.015625 6.390625 
Q 39.65625 6.390625 43.53125 10.953125 
Q 47.40625 15.53125 47.40625 23.390625 
Q 47.40625 31.296875 43.53125 35.828125 
Q 39.65625 40.375 33.015625 40.375 
z
M 52.59375 71.296875 
L 52.59375 62.3125 
Q 48.875 64.0625 45.09375 64.984375 
Q 41.3125 65.921875 37.59375 65.921875 
Q 27.828125 65.921875 22.671875 59.328125 
Q 17.53125 52.734375 16.796875 39.40625 
Q 19.671875 43.65625 24.015625 45.921875 
Q 28.375 48.1875 33.59375 48.1875 
Q 44.578125 48.1875 50.953125 41.515625 
Q 57.328125 34.859375 57.328125 23.390625 
Q 57.328125 12.15625 50.6875 5.359375 
Q 44.046875 -1.421875 33.015625 -1.421875 
Q 20.359375 -1.421875 13.671875 8.265625 
Q 6.984375 17.96875 6.984375 36.375 
Q 6.984375 53.65625 15.1875 63.9375 
Q 23.390625 74.21875 37.203125 74.21875 
Q 40.921875 74.21875 44.703125 73.484375 
Q 48.484375 72.75 52.59375 71.296875 
z
" id="DejaVuSans-54"/>
       </defs>
       <use xlink:href="#DejaVuSans-54"/>
       <use x="63.623047" xlink:href="#DejaVuSans-48"/>
      </g>
     </g>
    </g>
    <g id="xtick_6">
     <g id="line2d_6">
      <g>
       <use style="stroke:#000000;stroke-width:0.8;" x="266.099076" xlink:href="#mf7095cb1d0" y="277.111219"/>
      </g>
     </g>
     <g id="text_6">
      <!-- 80 -->
      <g transform="translate(259.736576 291.709656)scale(0.1 -0.1)">
       <defs>
        <path d="M 31.78125 34.625 
Q 24.75 34.625 20.71875 30.859375 
Q 16.703125 27.09375 16.703125 20.515625 
Q 16.703125 13.921875 20.71875 10.15625 
Q 24.75 6.390625 31.78125 6.390625 
Q 38.8125 6.390625 42.859375 10.171875 
Q 46.921875 13.96875 46.921875 20.515625 
Q 46.921875 27.09375 42.890625 30.859375 
Q 38.875 34.625 31.78125 34.625 
z
M 21.921875 38.8125 
Q 15.578125 40.375 12.03125 44.71875 
Q 8.5 49.078125 8.5 55.328125 
Q 8.5 64.0625 14.71875 69.140625 
Q 20.953125 74.21875 31.78125 74.21875 
Q 42.671875 74.21875 48.875 69.140625 
Q 55.078125 64.0625 55.078125 55.328125 
Q 55.078125 49.078125 51.53125 44.71875 
Q 48 40.375 41.703125 38.8125 
Q 48.828125 37.15625 52.796875 32.3125 
Q 56.78125 27.484375 56.78125 20.515625 
Q 56.78125 9.90625 50.3125 4.234375 
Q 43.84375 -1.421875 31.78125 -1.421875 
Q 19.734375 -1.421875 13.25 4.234375 
Q 6.78125 9.90625 6.78125 20.515625 
Q 6.78125 27.484375 10.78125 32.3125 
Q 14.796875 37.15625 21.921875 38.8125 
z
M 18.3125 54.390625 
Q 18.3125 48.734375 21.84375 45.5625 
Q 25.390625 42.390625 31.78125 42.390625 
Q 38.140625 42.390625 41.71875 45.5625 
Q 45.3125 48.734375 45.3125 54.390625 
Q 45.3125 60.0625 41.71875 63.234375 
Q 38.140625 66.40625 31.78125 66.40625 
Q 25.390625 66.40625 21.84375 63.234375 
Q 18.3125 60.0625 18.3125 54.390625 
z
" id="DejaVuSans-56"/>
       </defs>
       <use xlink:href="#DejaVuSans-56"/>
       <use x="63.623047" xlink:href="#DejaVuSans-48"/>
      </g>
     </g>
    </g>
    <g id="xtick_7">
     <g id="line2d_7">
      <g>
       <use style="stroke:#000000;stroke-width:0.8;" x="308.113193" xlink:href="#mf7095cb1d0" y="277.111219"/>
      </g>
     </g>
     <g id="text_7">
      <!-- 100 -->
      <g transform="translate(298.569443 291.709656)scale(0.1 -0.1)">
       <defs>
        <path d="M 12.40625 8.296875 
L 28.515625 8.296875 
L 28.515625 63.921875 
L 10.984375 60.40625 
L 10.984375 69.390625 
L 28.421875 72.90625 
L 38.28125 72.90625 
L 38.28125 8.296875 
L 54.390625 8.296875 
L 54.390625 0 
L 12.40625 0 
z
" id="DejaVuSans-49"/>
       </defs>
       <use xlink:href="#DejaVuSans-49"/>
       <use x="63.623047" xlink:href="#DejaVuSans-48"/>
       <use x="127.246094" xlink:href="#DejaVuSans-48"/>
      </g>
     </g>
    </g>
    <g id="xtick_8">
     <g id="line2d_8">
      <g>
       <use style="stroke:#000000;stroke-width:0.8;" x="350.127311" xlink:href="#mf7095cb1d0" y="277.111219"/>
      </g>
     </g>
     <g id="text_8">
      <!-- 120 -->
      <g transform="translate(340.583561 291.709656)scale(0.1 -0.1)">
       <use xlink:href="#DejaVuSans-49"/>
       <use x="63.623047" xlink:href="#DejaVuSans-50"/>
       <use x="127.246094" xlink:href="#DejaVuSans-48"/>
      </g>
     </g>
    </g>
    <g id="xtick_9">
     <g id="line2d_9">
      <g>
       <use style="stroke:#000000;stroke-width:0.8;" x="392.141429" xlink:href="#mf7095cb1d0" y="277.111219"/>
      </g>
     </g>
     <g id="text_9">
      <!-- 140 -->
      <g transform="translate(382.597679 291.709656)scale(0.1 -0.1)">
       <use xlink:href="#DejaVuSans-49"/>
       <use x="63.623047" xlink:href="#DejaVuSans-52"/>
       <use x="127.246094" xlink:href="#DejaVuSans-48"/>
      </g>
     </g>
    </g>
    <g id="text_10">
     <!-- 1st PC: 75.94 % -->
     <g transform="translate(165.868088 310.919444)scale(0.1728 -0.1728)">
      <defs>
       <path d="M 44.28125 53.078125 
L 44.28125 44.578125 
Q 40.484375 46.53125 36.375 47.5 
Q 32.28125 48.484375 27.875 48.484375 
Q 21.1875 48.484375 17.84375 46.4375 
Q 14.5 44.390625 14.5 40.28125 
Q 14.5 37.15625 16.890625 35.375 
Q 19.28125 33.59375 26.515625 31.984375 
L 29.59375 31.296875 
Q 39.15625 29.25 43.1875 25.515625 
Q 47.21875 21.78125 47.21875 15.09375 
Q 47.21875 7.46875 41.1875 3.015625 
Q 35.15625 -1.421875 24.609375 -1.421875 
Q 20.21875 -1.421875 15.453125 -0.5625 
Q 10.6875 0.296875 5.421875 2 
L 5.421875 11.28125 
Q 10.40625 8.6875 15.234375 7.390625 
Q 20.0625 6.109375 24.8125 6.109375 
Q 31.15625 6.109375 34.5625 8.28125 
Q 37.984375 10.453125 37.984375 14.40625 
Q 37.984375 18.0625 35.515625 20.015625 
Q 33.0625 21.96875 24.703125 23.78125 
L 21.578125 24.515625 
Q 13.234375 26.265625 9.515625 29.90625 
Q 5.8125 33.546875 5.8125 39.890625 
Q 5.8125 47.609375 11.28125 51.796875 
Q 16.75 56 26.8125 56 
Q 31.78125 56 36.171875 55.265625 
Q 40.578125 54.546875 44.28125 53.078125 
z
" id="DejaVuSans-115"/>
       <path d="M 18.3125 70.21875 
L 18.3125 54.6875 
L 36.8125 54.6875 
L 36.8125 47.703125 
L 18.3125 47.703125 
L 18.3125 18.015625 
Q 18.3125 11.328125 20.140625 9.421875 
Q 21.96875 7.515625 27.59375 7.515625 
L 36.8125 7.515625 
L 36.8125 0 
L 27.59375 0 
Q 17.1875 0 13.234375 3.875 
Q 9.28125 7.765625 9.28125 18.015625 
L 9.28125 47.703125 
L 2.6875 47.703125 
L 2.6875 54.6875 
L 9.28125 54.6875 
L 9.28125 70.21875 
z
" id="DejaVuSans-116"/>
       <path id="DejaVuSans-32"/>
       <path d="M 19.671875 64.796875 
L 19.671875 37.40625 
L 32.078125 37.40625 
Q 38.96875 37.40625 42.71875 40.96875 
Q 46.484375 44.53125 46.484375 51.125 
Q 46.484375 57.671875 42.71875 61.234375 
Q 38.96875 64.796875 32.078125 64.796875 
z
M 9.8125 72.90625 
L 32.078125 72.90625 
Q 44.34375 72.90625 50.609375 67.359375 
Q 56.890625 61.8125 56.890625 51.125 
Q 56.890625 40.328125 50.609375 34.8125 
Q 44.34375 29.296875 32.078125 29.296875 
L 19.671875 29.296875 
L 19.671875 0 
L 9.8125 0 
z
" id="DejaVuSans-80"/>
       <path d="M 64.40625 67.28125 
L 64.40625 56.890625 
Q 59.421875 61.53125 53.78125 63.8125 
Q 48.140625 66.109375 41.796875 66.109375 
Q 29.296875 66.109375 22.65625 58.46875 
Q 16.015625 50.828125 16.015625 36.375 
Q 16.015625 21.96875 22.65625 14.328125 
Q 29.296875 6.6875 41.796875 6.6875 
Q 48.140625 6.6875 53.78125 8.984375 
Q 59.421875 11.28125 64.40625 15.921875 
L 64.40625 5.609375 
Q 59.234375 2.09375 53.4375 0.328125 
Q 47.65625 -1.421875 41.21875 -1.421875 
Q 24.65625 -1.421875 15.125 8.703125 
Q 5.609375 18.84375 5.609375 36.375 
Q 5.609375 53.953125 15.125 64.078125 
Q 24.65625 74.21875 41.21875 74.21875 
Q 47.75 74.21875 53.53125 72.484375 
Q 59.328125 70.75 64.40625 67.28125 
z
" id="DejaVuSans-67"/>
       <path d="M 11.71875 12.40625 
L 22.015625 12.40625 
L 22.015625 0 
L 11.71875 0 
z
M 11.71875 51.703125 
L 22.015625 51.703125 
L 22.015625 39.3125 
L 11.71875 39.3125 
z
" id="DejaVuSans-58"/>
       <path d="M 8.203125 72.90625 
L 55.078125 72.90625 
L 55.078125 68.703125 
L 28.609375 0 
L 18.3125 0 
L 43.21875 64.59375 
L 8.203125 64.59375 
z
" id="DejaVuSans-55"/>
       <path d="M 10.796875 72.90625 
L 49.515625 72.90625 
L 49.515625 64.59375 
L 19.828125 64.59375 
L 19.828125 46.734375 
Q 21.96875 47.46875 24.109375 47.828125 
Q 26.265625 48.1875 28.421875 48.1875 
Q 40.625 48.1875 47.75 41.5 
Q 54.890625 34.8125 54.890625 23.390625 
Q 54.890625 11.625 47.5625 5.09375 
Q 40.234375 -1.421875 26.90625 -1.421875 
Q 22.3125 -1.421875 17.546875 -0.640625 
Q 12.796875 0.140625 7.71875 1.703125 
L 7.71875 11.625 
Q 12.109375 9.234375 16.796875 8.0625 
Q 21.484375 6.890625 26.703125 6.890625 
Q 35.15625 6.890625 40.078125 11.328125 
Q 45.015625 15.765625 45.015625 23.390625 
Q 45.015625 31 40.078125 35.4375 
Q 35.15625 39.890625 26.703125 39.890625 
Q 22.75 39.890625 18.8125 39.015625 
Q 14.890625 38.140625 10.796875 36.28125 
z
" id="DejaVuSans-53"/>
       <path d="M 10.6875 12.40625 
L 21 12.40625 
L 21 0 
L 10.6875 0 
z
" id="DejaVuSans-46"/>
       <path d="M 10.984375 1.515625 
L 10.984375 10.5 
Q 14.703125 8.734375 18.5 7.8125 
Q 22.3125 6.890625 25.984375 6.890625 
Q 35.75 6.890625 40.890625 13.453125 
Q 46.046875 20.015625 46.78125 33.40625 
Q 43.953125 29.203125 39.59375 26.953125 
Q 35.25 24.703125 29.984375 24.703125 
Q 19.046875 24.703125 12.671875 31.3125 
Q 6.296875 37.9375 6.296875 49.421875 
Q 6.296875 60.640625 12.9375 67.421875 
Q 19.578125 74.21875 30.609375 74.21875 
Q 43.265625 74.21875 49.921875 64.515625 
Q 56.59375 54.828125 56.59375 36.375 
Q 56.59375 19.140625 48.40625 8.859375 
Q 40.234375 -1.421875 26.421875 -1.421875 
Q 22.703125 -1.421875 18.890625 -0.6875 
Q 15.09375 0.046875 10.984375 1.515625 
z
M 30.609375 32.421875 
Q 37.25 32.421875 41.125 36.953125 
Q 45.015625 41.5 45.015625 49.421875 
Q 45.015625 57.28125 41.125 61.84375 
Q 37.25 66.40625 30.609375 66.40625 
Q 23.96875 66.40625 20.09375 61.84375 
Q 16.21875 57.28125 16.21875 49.421875 
Q 16.21875 41.5 20.09375 36.953125 
Q 23.96875 32.421875 30.609375 32.421875 
z
" id="DejaVuSans-57"/>
       <path d="M 72.703125 32.078125 
Q 68.453125 32.078125 66.03125 28.46875 
Q 63.625 24.859375 63.625 18.40625 
Q 63.625 12.0625 66.03125 8.421875 
Q 68.453125 4.78125 72.703125 4.78125 
Q 76.859375 4.78125 79.265625 8.421875 
Q 81.6875 12.0625 81.6875 18.40625 
Q 81.6875 24.8125 79.265625 28.4375 
Q 76.859375 32.078125 72.703125 32.078125 
z
M 72.703125 38.28125 
Q 80.421875 38.28125 84.953125 32.90625 
Q 89.5 27.546875 89.5 18.40625 
Q 89.5 9.28125 84.9375 3.921875 
Q 80.375 -1.421875 72.703125 -1.421875 
Q 64.890625 -1.421875 60.34375 3.921875 
Q 55.8125 9.28125 55.8125 18.40625 
Q 55.8125 27.59375 60.375 32.9375 
Q 64.9375 38.28125 72.703125 38.28125 
z
M 22.3125 68.015625 
Q 18.109375 68.015625 15.6875 64.375 
Q 13.28125 60.75 13.28125 54.390625 
Q 13.28125 47.953125 15.671875 44.328125 
Q 18.0625 40.71875 22.3125 40.71875 
Q 26.5625 40.71875 28.96875 44.328125 
Q 31.390625 47.953125 31.390625 54.390625 
Q 31.390625 60.6875 28.953125 64.34375 
Q 26.515625 68.015625 22.3125 68.015625 
z
M 66.40625 74.21875 
L 74.21875 74.21875 
L 28.609375 -1.421875 
L 20.796875 -1.421875 
z
M 22.3125 74.21875 
Q 30.03125 74.21875 34.609375 68.875 
Q 39.203125 63.53125 39.203125 54.390625 
Q 39.203125 45.171875 34.640625 39.84375 
Q 30.078125 34.515625 22.3125 34.515625 
Q 14.546875 34.515625 10.03125 39.859375 
Q 5.515625 45.21875 5.515625 54.390625 
Q 5.515625 63.484375 10.046875 68.84375 
Q 14.59375 74.21875 22.3125 74.21875 
z
" id="DejaVuSans-37"/>
      </defs>
      <use xlink:href="#DejaVuSans-49"/>
      <use x="63.623047" xlink:href="#DejaVuSans-115"/>
      <use x="115.722656" xlink:href="#DejaVuSans-116"/>
      <use x="154.931641" xlink:href="#DejaVuSans-32"/>
      <use x="186.71875" xlink:href="#DejaVuSans-80"/>
      <use x="247.021484" xlink:href="#DejaVuSans-67"/>
      <use x="316.845703" xlink:href="#DejaVuSans-58"/>
      <use x="350.537109" xlink:href="#DejaVuSans-32"/>
      <use x="382.324219" xlink:href="#DejaVuSans-55"/>
      <use x="445.947266" xlink:href="#DejaVuSans-53"/>
      <use x="509.570312" xlink:href="#DejaVuSans-46"/>
      <use x="541.357422" xlink:href="#DejaVuSans-57"/>
      <use x="604.980469" xlink:href="#DejaVuSans-52"/>
      <use x="668.603516" xlink:href="#DejaVuSans-32"/>
      <use x="700.390625" xlink:href="#DejaVuSans-37"/>
     </g>
    </g>
   </g>
   <g id="matplotlib.axis_2">
    <g id="ytick_1">
     <g id="line2d_10">
      <defs>
       <path d="M 0 0 
L -3.5 0 
" id="m07c9ae37d3" style="stroke:#000000;stroke-width:0.8;"/>
      </defs>
      <g>
       <use style="stroke:#000000;stroke-width:0.8;" x="56.028488" xlink:href="#m07c9ae37d3" y="277.111219"/>
      </g>
     </g>
     <g id="text_11">
      <!-- −20 -->
      <g transform="translate(27.9238 280.910437)scale(0.1 -0.1)">
       <use xlink:href="#DejaVuSans-8722"/>
       <use x="83.789062" xlink:href="#DejaVuSans-50"/>
       <use x="147.412109" xlink:href="#DejaVuSans-48"/>
      </g>
     </g>
    </g>
    <g id="ytick_2">
     <g id="line2d_11">
      <g>
       <use style="stroke:#000000;stroke-width:0.8;" x="56.028488" xlink:href="#m07c9ae37d3" y="243.847219"/>
      </g>
     </g>
     <g id="text_12">
      <!-- −15 -->
      <g transform="translate(27.9238 247.646437)scale(0.1 -0.1)">
       <use xlink:href="#DejaVuSans-8722"/>
       <use x="83.789062" xlink:href="#DejaVuSans-49"/>
       <use x="147.412109" xlink:href="#DejaVuSans-53"/>
      </g>
     </g>
    </g>
    <g id="ytick_3">
     <g id="line2d_12">
      <g>
       <use style="stroke:#000000;stroke-width:0.8;" x="56.028488" xlink:href="#m07c9ae37d3" y="210.583219"/>
      </g>
     </g>
     <g id="text_13">
      <!-- −10 -->
      <g transform="translate(27.9238 214.382437)scale(0.1 -0.1)">
       <use xlink:href="#DejaVuSans-8722"/>
       <use x="83.789062" xlink:href="#DejaVuSans-49"/>
       <use x="147.412109" xlink:href="#DejaVuSans-48"/>
      </g>
     </g>
    </g>
    <g id="ytick_4">
     <g id="line2d_13">
      <g>
       <use style="stroke:#000000;stroke-width:0.8;" x="56.028488" xlink:href="#m07c9ae37d3" y="177.319219"/>
      </g>
     </g>
     <g id="text_14">
      <!-- −5 -->
      <g transform="translate(34.2863 181.118437)scale(0.1 -0.1)">
       <use xlink:href="#DejaVuSans-8722"/>
       <use x="83.789062" xlink:href="#DejaVuSans-53"/>
      </g>
     </g>
    </g>
    <g id="ytick_5">
     <g id="line2d_14">
      <g>
       <use style="stroke:#000000;stroke-width:0.8;" x="56.028488" xlink:href="#m07c9ae37d3" y="144.055219"/>
      </g>
     </g>
     <g id="text_15">
      <!-- 0 -->
      <g transform="translate(42.665987 147.854437)scale(0.1 -0.1)">
       <use xlink:href="#DejaVuSans-48"/>
      </g>
     </g>
    </g>
    <g id="ytick_6">
     <g id="line2d_15">
      <g>
       <use style="stroke:#000000;stroke-width:0.8;" x="56.028488" xlink:href="#m07c9ae37d3" y="110.791219"/>
      </g>
     </g>
     <g id="text_16">
      <!-- 5 -->
      <g transform="translate(42.665987 114.590437)scale(0.1 -0.1)">
       <use xlink:href="#DejaVuSans-53"/>
      </g>
     </g>
    </g>
    <g id="ytick_7">
     <g id="line2d_16">
      <g>
       <use style="stroke:#000000;stroke-width:0.8;" x="56.028488" xlink:href="#m07c9ae37d3" y="77.527219"/>
      </g>
     </g>
     <g id="text_17">
      <!-- 10 -->
      <g transform="translate(36.303488 81.326437)scale(0.1 -0.1)">
       <use xlink:href="#DejaVuSans-49"/>
       <use x="63.623047" xlink:href="#DejaVuSans-48"/>
      </g>
     </g>
    </g>
    <g id="ytick_8">
     <g id="line2d_17">
      <g>
       <use style="stroke:#000000;stroke-width:0.8;" x="56.028488" xlink:href="#m07c9ae37d3" y="44.263219"/>
      </g>
     </g>
     <g id="text_18">
      <!-- 15 -->
      <g transform="translate(36.303488 48.062437)scale(0.1 -0.1)">
       <use xlink:href="#DejaVuSans-49"/>
       <use x="63.623047" xlink:href="#DejaVuSans-53"/>
      </g>
     </g>
    </g>
    <g id="ytick_9">
     <g id="line2d_18">
      <g>
       <use style="stroke:#000000;stroke-width:0.8;" x="56.028488" xlink:href="#m07c9ae37d3" y="10.999219"/>
      </g>
     </g>
     <g id="text_19">
      <!-- 20 -->
      <g transform="translate(36.303488 14.798437)scale(0.1 -0.1)">
       <use xlink:href="#DejaVuSans-50"/>
       <use x="63.623047" xlink:href="#DejaVuSans-48"/>
      </g>
     </g>
    </g>
    <g id="text_20">
     <!-- 2nd PC: 12.45 % -->
     <g transform="translate(20.3301 215.848219)rotate(-90)scale(0.1728 -0.1728)">
      <defs>
       <path d="M 54.890625 33.015625 
L 54.890625 0 
L 45.90625 0 
L 45.90625 32.71875 
Q 45.90625 40.484375 42.875 44.328125 
Q 39.84375 48.1875 33.796875 48.1875 
Q 26.515625 48.1875 22.3125 43.546875 
Q 18.109375 38.921875 18.109375 30.90625 
L 18.109375 0 
L 9.078125 0 
L 9.078125 54.6875 
L 18.109375 54.6875 
L 18.109375 46.1875 
Q 21.34375 51.125 25.703125 53.5625 
Q 30.078125 56 35.796875 56 
Q 45.21875 56 50.046875 50.171875 
Q 54.890625 44.34375 54.890625 33.015625 
z
" id="DejaVuSans-110"/>
       <path d="M 45.40625 46.390625 
L 45.40625 75.984375 
L 54.390625 75.984375 
L 54.390625 0 
L 45.40625 0 
L 45.40625 8.203125 
Q 42.578125 3.328125 38.25 0.953125 
Q 33.9375 -1.421875 27.875 -1.421875 
Q 17.96875 -1.421875 11.734375 6.484375 
Q 5.515625 14.40625 5.515625 27.296875 
Q 5.515625 40.1875 11.734375 48.09375 
Q 17.96875 56 27.875 56 
Q 33.9375 56 38.25 53.625 
Q 42.578125 51.265625 45.40625 46.390625 
z
M 14.796875 27.296875 
Q 14.796875 17.390625 18.875 11.75 
Q 22.953125 6.109375 30.078125 6.109375 
Q 37.203125 6.109375 41.296875 11.75 
Q 45.40625 17.390625 45.40625 27.296875 
Q 45.40625 37.203125 41.296875 42.84375 
Q 37.203125 48.484375 30.078125 48.484375 
Q 22.953125 48.484375 18.875 42.84375 
Q 14.796875 37.203125 14.796875 27.296875 
z
" id="DejaVuSans-100"/>
      </defs>
      <use xlink:href="#DejaVuSans-50"/>
      <use x="63.623047" xlink:href="#DejaVuSans-110"/>
      <use x="127.001953" xlink:href="#DejaVuSans-100"/>
      <use x="190.478516" xlink:href="#DejaVuSans-32"/>
      <use x="222.265625" xlink:href="#DejaVuSans-80"/>
      <use x="282.568359" xlink:href="#DejaVuSans-67"/>
      <use x="352.392578" xlink:href="#DejaVuSans-58"/>
      <use x="386.083984" xlink:href="#DejaVuSans-32"/>
      <use x="417.871094" xlink:href="#DejaVuSans-49"/>
      <use x="481.494141" xlink:href="#DejaVuSans-50"/>
      <use x="545.117188" xlink:href="#DejaVuSans-46"/>
      <use x="576.904297" xlink:href="#DejaVuSans-52"/>
      <use x="640.527344" xlink:href="#DejaVuSans-53"/>
      <use x="704.150391" xlink:href="#DejaVuSans-32"/>
      <use x="735.9375" xlink:href="#DejaVuSans-37"/>
     </g>
    </g>
   </g>
   <g id="LineCollection_1"/>
   <g id="LineCollection_2"/>
   <g id="LineCollection_3">
    <path clip-path="url(#p40b37368f1)" d="M 102.333765 147.426083 
L 102.244017 149.911711 
L 101.611911 152.925619 
L 100.143311 156.38473 
L 98.042605 158.86273 
L 95.941899 157.533345 
L 95.085353 152.925619 
L 94.557223 144.055219 
L 94.322919 135.184819 
L 95.699693 126.314419 
L 95.941899 126.260908 
L 96.519297 126.205462 
" style="fill:none;stroke:#482576;stroke-width:1.5;"/>
   </g>
   <g id="LineCollection_4">
    <path clip-path="url(#p40b37368f1)" d="M 96.092749 125.380147 
L 98.042605 125.192642 
L 100.143311 125.505032 
L 101.991607 126.314419 
L 102.244017 127.457391 
L 103.164166 135.184819 
L 103.836537 144.055219 
L 103.87519 152.925619 
L 102.570953 161.796019 
L 102.244017 162.524998 
L 100.143311 166.015335 
L 98.204925 170.666419 
L 98.042605 170.838858 
L 95.941899 172.516166 
L 93.841193 174.4751 
L 91.740488 176.223328 
L 89.639782 176.538934 
L 87.539076 172.092373 
L 87.30371 170.666419 
L 87.539076 167.726582 
L 88.007239 161.796019 
L 89.24391 152.925619 
L 89.639782 150.045149 
L 89.913957 147.726063 
" style="fill:none;stroke:#453781;stroke-width:1.5;"/>
   </g>
   <g id="LineCollection_5">
    <path clip-path="url(#p40b37368f1)" d="M 83.598656 166.951217 
L 83.989191 161.796019 
L 85.289258 152.925619 
L 85.43837 152.104685 
L 86.869731 144.055219 
L 87.539076 140.715256 
L 88.357147 135.184819 
L 89.639782 131.077523 
L 90.594898 126.314419 
L 91.740488 125.731816 
L 93.841193 124.984395 
L 95.941899 124.528398 
L 98.042605 124.326101 
L 100.143311 124.791822 
L 102.244017 126.089533 
L 102.500783 126.314419 
L 104.042349 135.184819 
L 104.344723 138.313037 
L 104.520778 144.055219 
L 104.66989 152.925619 
L 104.344723 160.208444 
L 104.099821 161.796019 
L 102.244017 165.933952 
L 100.423165 170.666419 
L 100.143311 171.027587 
L 98.042605 173.456627 
L 95.941899 176.771971 
L 94.474356 179.536819 
L 93.841193 180.040075 
L 92.506172 180.896066 
" style="fill:none;stroke:#404688;stroke-width:1.5;"/>
   </g>
   <g id="LineCollection_6">
    <path clip-path="url(#p40b37368f1)" d="M 100.596462 124.454987 
L 102.244017 125.823403 
L 102.804641 126.314419 
L 104.344723 134.168737 
L 104.404352 135.184819 
L 104.799332 144.055219 
L 105.112396 152.925619 
L 104.754794 161.796019 
L 104.344723 163.979906 
L 102.244017 169.342907 
L 101.734786 170.666419 
L 100.143311 172.72031 
L 98.042605 176.074395 
L 96.381799 179.536819 
L 95.941899 179.975062 
L 93.841193 181.835533 
L 91.740488 183.993819 
L 89.639782 186.409575 
L 88.029516 188.407219 
L 87.539076 188.660933 
L 85.43837 189.209341 
L 84.10723 188.407219 
L 83.337664 186.488101 
L 82.288529 179.536819 
L 81.822245 170.666419 
L 82.023136 161.796019 
L 82.593312 152.925619 
L 83.192043 144.055219 
L 83.337664 142.610743 
L 84.474793 138.096648 
" style="fill:none;stroke:#39558c;stroke-width:1.5;"/>
   </g>
   <g id="LineCollection_7">
    <path clip-path="url(#p40b37368f1)" d="M 98.942892 122.924034 
L 100.143311 123.365402 
L 102.244017 125.557273 
L 103.108499 126.314419 
L 104.344723 132.619081 
L 104.495295 135.184819 
L 105.077886 144.055219 
L 105.554901 152.925619 
L 105.243082 161.796019 
L 104.344723 166.580344 
L 102.832694 170.666419 
L 102.244017 171.384513 
L 100.143311 174.413032 
L 98.042605 178.692163 
L 97.637453 179.536819 
L 95.941899 181.225987 
L 93.841193 183.630991 
L 91.740488 186.600628 
L 90.484669 188.407219 
L 89.639782 188.954379 
L 87.539076 190.221642 
L 85.43837 191.033608 
L 83.337664 189.43905 
L 82.919001 188.407219 
L 81.236958 179.759397 
L 81.213612 179.536819 
L 80.924824 170.666419 
L 80.971614 161.796019 
L 81.215112 152.925619 
L 81.236958 152.536122 
L 82.393643 144.055219 
L 83.020863 138.047613 
" style="fill:none;stroke:#33638d;stroke-width:1.5;"/>
   </g>
   <g id="LineCollection_8">
    <path clip-path="url(#p40b37368f1)" d="M 97.580063 121.771209 
L 98.042605 121.726477 
L 100.143311 122.652191 
L 102.244017 125.291143 
L 103.412357 126.314419 
L 104.344723 131.069426 
L 104.586238 135.184819 
L 105.356439 144.055219 
L 105.997407 152.925619 
L 105.73137 161.796019 
L 104.344723 169.180783 
L 103.794972 170.666419 
L 102.244017 172.558341 
L 100.143311 176.105755 
L 98.568765 179.536819 
L 98.042605 180.135464 
L 95.941899 182.476912 
L 93.841193 185.42645 
L 92.068302 188.407219 
L 91.740488 188.676531 
L 89.639782 190.127904 
L 87.539076 191.78235 
L 85.43837 192.857876 
L 83.337664 190.822572 
L 82.35764 188.407219 
L 81.236958 182.6455 
L 80.91089 179.536819 
L 80.414352 170.666419 
L 80.457557 161.796019 
L 80.886771 152.925619 
L 81.236958 146.682193 
L 81.595243 144.055219 
L 82.518798 138.355003 
" style="fill:none;stroke:#2d718e;stroke-width:1.5;"/>
   </g>
   <g id="LineCollection_9">
    <path clip-path="url(#p40b37368f1)" d="M 96.591805 121.000438 
L 98.042605 120.859936 
L 100.143311 121.938981 
L 102.244017 125.025013 
L 103.716214 126.314419 
L 104.344723 129.519771 
L 104.677181 135.184819 
L 105.634993 144.055219 
L 106.439912 152.925619 
L 106.219658 161.796019 
L 104.540813 170.666419 
L 104.344723 171.070266 
L 102.244017 173.732169 
L 100.143311 177.798478 
L 99.345571 179.536819 
L 98.042605 181.019285 
L 95.941899 183.727838 
L 93.841193 187.221908 
L 93.136198 188.407219 
L 91.740488 189.553846 
L 89.639782 191.301428 
L 87.539076 193.343059 
L 85.43837 194.682143 
L 83.337664 192.206093 
L 81.796279 188.407219 
L 81.236958 185.531603 
L 80.608168 179.536819 
L 79.90388 170.666419 
L 79.943501 161.796019 
L 80.55843 152.925619 
L 81.145718 144.055219 
L 81.236958 143.212208 
L 82.161359 138.291957 
" style="fill:none;stroke:#287d8e;stroke-width:1.5;"/>
   </g>
   <g id="LineCollection_10">
    <path clip-path="url(#p40b37368f1)" d="M 98.669472 120.361145 
L 100.143311 121.225771 
L 102.244017 124.758883 
L 104.020072 126.314419 
L 104.344723 127.970115 
L 104.768124 135.184819 
L 105.913547 144.055219 
L 106.445429 149.901833 
L 106.482129 152.925619 
L 106.483038 161.796019 
L 106.445429 163.084389 
L 104.998222 170.666419 
L 104.344723 172.012299 
L 102.244017 174.905997 
L 100.143311 179.4912 
L 100.122376 179.536819 
L 98.042605 181.903106 
L 95.941899 184.978763 
L 94.07293 188.407219 
L 93.841193 188.627583 
L 91.740488 190.431162 
L 89.639782 192.474952 
L 87.539076 194.903768 
L 85.43837 196.50641 
L 83.337664 193.589615 
L 81.236958 188.410399 
L 81.236412 188.407219 
L 80.305447 179.536819 
L 79.393408 170.666419 
L 79.429444 161.796019 
L 80.230089 152.925619 
L 80.980203 144.055219 
L 81.236958 141.682927 
L 82.439289 135.283354 
" style="fill:none;stroke:#238a8d;stroke-width:1.5;"/>
   </g>
   <g id="LineCollection_11">
    <path clip-path="url(#p40b37368f1)" d="M 92.797036 190.286265 
L 91.740488 191.308477 
L 89.639782 193.648477 
L 87.539076 196.464476 
L 86.542511 197.277619 
L 85.43837 197.569112 
L 84.897719 197.277619 
L 83.337664 194.973136 
L 81.236958 189.285562 
L 81.086013 188.407219 
L 80.002725 179.536819 
L 79.136252 171.97707 
L 79.098817 170.666419 
L 79.094075 161.796019 
L 79.136252 160.415686 
L 79.901748 152.925619 
L 80.814688 144.055219 
L 81.236958 140.153645 
L 82.170485 135.184819 
L 83.337664 129.758316 
L 84.419483 126.314419 
L 85.43837 125.692719 
L 87.539076 123.840223 
L 89.639782 121.188757 
L 91.740488 120.066425 
L 93.841193 119.754973 
L 95.941899 119.330869 
L 98.042605 119.126853 
L 100.143311 120.512561 
L 102.244017 124.492753 
L 104.32393 126.314419 
L 104.344723 126.42046 
L 104.859067 135.184819 
L 106.192101 144.055219 
L 106.445429 146.839877 
L 106.519293 152.925619 
L 106.552993 161.796019 
L 106.445429 165.480788 
L 105.771909 169.00941 
" style="fill:none;stroke:#1f968b;stroke-width:1.5;"/>
   </g>
   <g id="LineCollection_12">
    <path clip-path="url(#p40b37368f1)" d="M 92.878046 190.961273 
L 91.740488 192.185793 
L 89.639782 194.822001 
L 87.930372 197.277619 
L 87.539076 197.539359 
L 85.43837 198.074081 
L 83.961123 197.277619 
L 83.337664 196.356658 
L 81.236958 190.160725 
L 80.935614 188.407219 
L 79.700003 179.536819 
L 79.136252 174.618239 
L 79.02338 170.666419 
L 78.99591 161.796019 
L 79.136252 157.203001 
L 79.573407 152.925619 
L 80.649172 144.055219 
L 81.236958 138.624363 
L 81.883169 135.184819 
L 83.337664 128.42251 
L 83.999871 126.314419 
L 85.43837 125.436682 
L 87.539076 123.269608 
L 89.639782 120.254368 
L 91.740488 119.122193 
L 93.841193 118.883402 
L 95.941899 118.464614 
L 98.042605 118.260312 
L 100.143311 119.799351 
L 102.244017 124.226622 
L 104.344723 126.278099 
L 104.355437 126.314419 
L 104.95001 135.184819 
L 106.445429 144.006633 
L 106.446551 144.055219 
L 106.556457 152.925619 
L 106.622947 161.796019 
L 106.445429 167.877188 
L 106.083676 169.772439 
" style="fill:none;stroke:#20a386;stroke-width:1.5;"/>
   </g>
   <g id="LineCollection_13">
    <path clip-path="url(#p40b37368f1)" d="M 94.611493 189.82282 
L 93.841193 190.572955 
L 91.740488 193.063109 
L 89.639782 195.995525 
L 88.747288 197.277619 
L 87.539076 198.085799 
L 85.43837 198.57905 
L 83.337664 197.416219 
L 83.243597 197.277619 
L 81.236958 191.035887 
L 80.785215 188.407219 
L 79.397281 179.536819 
L 79.136252 177.259408 
L 78.947943 170.666419 
L 78.897745 161.796019 
L 79.136252 153.990316 
L 79.245066 152.925619 
L 80.483657 144.055219 
L 81.236958 137.095081 
L 81.595852 135.184819 
L 83.337664 127.086704 
L 83.580259 126.314419 
L 85.43837 125.180645 
L 87.539076 122.698992 
L 89.639782 119.31998 
L 91.740488 118.177961 
L 93.841193 118.011832 
L 95.941899 117.598359 
L 97.526788 117.444019 
L 98.042605 117.442882 
L 98.094212 117.444019 
L 100.143311 119.086141 
L 102.244017 123.960492 
L 104.344723 126.239112 
L 104.366939 126.314419 
L 105.040953 135.184819 
L 106.445429 143.47014 
L 106.45895 144.055219 
L 106.593621 152.925619 
L 106.692901 161.796019 
L 106.509157 168.090459 
" style="fill:none;stroke:#29af7f;stroke-width:1.5;"/>
   </g>
   <g id="LineCollection_14">
    <path clip-path="url(#p40b37368f1)" d="M 86.010785 124.162671 
L 87.539076 122.128376 
L 89.639782 118.385591 
L 91.360246 117.444019 
L 91.740488 117.436368 
L 93.841193 117.431672 
L 95.941899 117.416001 
L 98.042605 117.423275 
L 98.984181 117.444019 
L 100.143311 118.372931 
L 102.244017 123.694362 
L 104.344723 126.200125 
L 104.37844 126.314419 
L 105.131896 135.184819 
L 106.445429 142.933647 
L 106.471348 144.055219 
L 106.630786 152.925619 
L 106.762856 161.796019 
L 106.515661 170.666419 
L 106.445429 171.368486 
L 104.344723 175.780429 
L 102.272567 179.536819 
L 102.244017 179.560834 
L 100.143311 182.031068 
L 98.042605 185.438391 
L 96.51469 188.407219 
L 95.941899 188.990168 
L 93.841193 191.221413 
L 91.740488 193.940424 
L 89.639782 197.169049 
L 89.564204 197.277619 
L 87.539076 198.632239 
L 85.43837 199.084018 
L 83.337664 197.830773 
L 82.962243 197.277619 
L 81.236958 191.91105 
L 80.634817 188.407219 
L 79.136252 179.657758 
L 79.129863 179.536819 
L 78.872507 170.666419 
L 78.799579 161.796019 
L 79.0933 152.925619 
L 79.136252 152.166173 
L 79.788471 147.690188 
" style="fill:none;stroke:#3dbc74;stroke-width:1.5;"/>
   </g>
   <g id="LineCollection_15">
    <path clip-path="url(#p40b37368f1)" d="M 85.99878 123.838694 
L 87.539076 121.557761 
L 89.639782 117.451202 
L 89.652907 117.444019 
L 91.740488 117.402014 
L 93.841193 117.396245 
L 95.941899 117.38191 
L 98.042605 117.403668 
L 99.87415 117.444019 
L 100.143311 117.659721 
L 102.244017 123.428232 
L 104.344723 126.161138 
L 104.389942 126.314419 
L 105.222839 135.184819 
L 106.445429 142.397154 
L 106.483746 144.055219 
L 106.66795 152.925619 
L 106.83281 161.796019 
L 106.599664 170.666419 
L 106.445429 172.208204 
L 104.344723 176.722462 
L 102.792225 179.536819 
L 102.244017 179.997956 
L 100.143311 182.65886 
L 98.042605 186.322212 
L 96.969551 188.407219 
L 95.941899 189.453097 
L 93.841193 191.86987 
L 91.740488 194.81774 
L 90.153437 197.277619 
L 89.639782 197.683527 
L 87.539076 199.178679 
L 85.43837 199.588987 
L 83.337664 198.245328 
L 82.680889 197.277619 
L 81.236958 192.786213 
L 80.484418 188.407219 
L 79.136252 180.53587 
L 79.08347 179.536819 
L 78.79707 170.666419 
L 78.701414 161.796019 
L 79.029059 152.925619 
L 79.136252 151.03029 
L 79.664394 147.405811 
" style="fill:none;stroke:#56c667;stroke-width:1.5;"/>
   </g>
   <g id="LineCollection_16">
    <path clip-path="url(#p40b37368f1)" d="M 86.040719 123.43035 
L 87.539076 120.987145 
L 89.350325 117.444019 
L 89.639782 117.41246 
L 91.740488 117.367661 
L 93.841193 117.360818 
L 95.941899 117.347819 
L 98.042605 117.384061 
L 100.143311 117.436176 
L 100.209368 117.444019 
L 102.244017 123.162102 
L 104.344723 126.122151 
L 104.401443 126.314419 
L 105.313782 135.184819 
L 106.445429 141.860661 
L 106.496144 144.055219 
L 106.705114 152.925619 
L 106.902765 161.796019 
L 106.683666 170.666419 
L 106.445429 173.047922 
L 104.344723 177.664495 
L 103.311883 179.536819 
L 102.244017 180.435077 
L 100.143311 183.286653 
L 98.042605 187.206033 
L 97.424412 188.407219 
L 95.941899 189.916025 
L 93.841193 192.518328 
L 91.740488 195.695056 
L 90.719459 197.277619 
L 89.639782 198.130816 
L 87.539076 199.725119 
L 85.43837 200.093956 
L 83.337664 198.659882 
L 82.399535 197.277619 
L 81.236958 193.661376 
L 80.334019 188.407219 
L 79.136252 181.413983 
L 79.037078 179.536819 
L 78.721633 170.666419 
L 78.603249 161.796019 
L 78.964817 152.925619 
L 79.136252 149.894408 
L 79.555069 147.020197 
" style="fill:none;stroke:#75d054;stroke-width:1.5;"/>
   </g>
   <g id="LineCollection_17">
    <path clip-path="url(#p40b37368f1)" d="M 86.07475 123.023525 
L 87.539076 120.41653 
L 89.058626 117.444019 
L 89.639782 117.380657 
L 91.740488 117.333307 
L 93.841193 117.32539 
L 95.941899 117.313727 
L 98.042605 117.364454 
L 100.143311 117.424933 
L 100.304064 117.444019 
L 102.244017 122.895972 
L 104.344723 126.083164 
L 104.412944 126.314419 
L 105.404725 135.184819 
L 106.445429 141.324168 
L 106.508542 144.055219 
L 106.742278 152.925619 
L 106.972719 161.796019 
L 106.767669 170.666419 
L 106.445429 173.88764 
L 104.344723 178.606527 
L 103.831541 179.536819 
L 102.244017 180.872199 
L 100.143311 183.914445 
L 98.042605 188.089854 
L 97.879273 188.407219 
L 95.941899 190.378954 
L 93.841193 193.166785 
L 91.740488 196.572371 
L 91.28548 197.277619 
L 89.639782 198.578106 
L 87.539076 200.271559 
L 85.43837 200.598925 
L 83.337664 199.074436 
L 82.118181 197.277619 
L 81.236958 194.536539 
L 80.18362 188.407219 
L 79.136252 182.292095 
L 78.990685 179.536819 
L 78.646196 170.666419 
L 78.505083 161.796019 
L 78.900575 152.925619 
L 79.136252 148.758526 
L 79.445915 146.633404 
" style="fill:none;stroke:#95d840;stroke-width:1.5;"/>
   </g>
   <g id="LineCollection_18">
    <path clip-path="url(#p40b37368f1)" d="M 86.102434 122.618759 
L 87.539076 119.845914 
L 88.766927 117.444019 
L 89.639782 117.348854 
L 91.740488 117.298954 
L 93.841193 117.289963 
L 95.941899 117.279636 
L 98.042605 117.344847 
L 100.143311 117.413691 
L 100.39876 117.444019 
L 102.244017 122.629842 
L 104.344723 126.044176 
L 104.424446 126.314419 
L 105.495667 135.184819 
L 106.445429 140.787676 
L 106.52094 144.055219 
L 106.779442 152.925619 
L 107.042674 161.796019 
L 106.851671 170.666419 
L 106.445429 174.727359 
L 104.349284 179.536819 
L 104.344723 179.540702 
L 102.244017 181.30932 
L 100.143311 184.542237 
L 98.240678 188.407219 
L 98.042605 188.612454 
L 95.941899 190.841882 
L 93.841193 193.815242 
L 91.814918 197.277619 
L 91.740488 197.342352 
L 89.639782 199.025395 
L 87.539076 200.817999 
L 85.43837 201.103893 
L 83.337664 199.488991 
L 81.836827 197.277619 
L 81.236958 195.411702 
L 80.033221 188.407219 
L 79.136252 183.170208 
L 78.944293 179.536819 
L 78.570759 170.666419 
L 78.406918 161.796019 
L 78.836333 152.925619 
L 79.136252 147.622644 
L 79.336932 146.245439 
" style="fill:none;stroke:#bade28;stroke-width:1.5;"/>
   </g>
   <g id="LineCollection_19">
    <path clip-path="url(#p40b37368f1)" d="M 86.12501 122.216324 
L 87.539076 119.275298 
L 88.475227 117.444019 
L 89.639782 117.317051 
L 91.740488 117.2646 
L 93.841193 117.254536 
L 95.941899 117.245545 
L 98.042605 117.32524 
L 100.143311 117.402448 
L 100.493457 117.444019 
L 102.244017 122.363712 
L 104.344723 126.005189 
L 104.435947 126.314419 
L 105.58661 135.184819 
L 106.445429 140.251183 
L 106.533338 144.055219 
L 106.816606 152.925619 
L 107.112628 161.796019 
L 106.935674 170.666419 
L 106.445429 175.567077 
L 104.715265 179.536819 
L 104.344723 179.85226 
L 102.244017 181.746442 
L 100.143311 185.170029 
L 98.549724 188.407219 
L 98.042605 188.932675 
L 95.941899 191.304811 
L 93.841193 194.4637 
L 92.194413 197.277619 
L 91.740488 197.672403 
L 89.639782 199.472685 
L 87.539076 201.364439 
L 85.43837 201.608862 
L 83.337664 199.903545 
L 81.555473 197.277619 
L 81.236958 196.286865 
L 79.882823 188.407219 
L 79.136252 184.04832 
L 78.8979 179.536819 
L 78.495322 170.666419 
L 78.308752 161.796019 
L 78.772091 152.925619 
L 79.136252 146.486761 
L 79.228119 145.856306 
" style="fill:none;stroke:#dde318;stroke-width:1.5;"/>
   </g>
   <g id="LineCollection_20">
    <path clip-path="url(#p40b37368f1)" d="M 86.143462 121.816323 
L 87.539076 118.704683 
L 88.183528 117.444019 
L 89.639782 117.285248 
L 91.740488 117.230247 
L 93.841193 117.219109 
L 95.941899 117.211454 
L 98.042605 117.305633 
L 100.143311 117.391205 
L 100.588153 117.444019 
L 102.244017 122.097581 
L 104.344723 125.966202 
L 104.447449 126.314419 
L 105.677553 135.184819 
L 106.445429 139.71469 
L 106.545737 144.055219 
L 106.85377 152.925619 
L 107.182583 161.796019 
L 107.019676 170.666419 
L 106.445429 176.406795 
L 105.081246 179.536819 
L 104.344723 180.163818 
L 102.244017 182.183563 
L 100.143311 185.797821 
L 98.858771 188.407219 
L 98.042605 189.252896 
L 95.941899 191.767739 
L 93.841193 195.112157 
L 92.573907 197.277619 
L 91.740488 198.002455 
L 89.639782 199.919974 
L 87.539076 201.91088 
L 85.43837 202.113831 
L 83.337664 200.318099 
L 81.274119 197.277619 
L 81.236958 197.162028 
L 79.732424 188.407219 
L 79.136252 184.926433 
L 78.851508 179.536819 
L 78.419885 170.666419 
L 78.210587 161.796019 
L 78.707849 152.925619 
L 79.129682 145.467043 
" style="fill:none;stroke:#fde725;stroke-width:1.5;"/>
   </g>
   <g id="LineCollection_21">
    <path clip-path="url(#p40b37368f1)" d="M 96.083674 117.184696 
L 98.042605 117.286026 
L 100.143311 117.379962 
L 100.682849 117.444019 
L 102.244017 121.831451 
L 104.344723 125.927215 
L 104.45895 126.314419 
L 105.768496 135.184819 
L 106.445429 139.178197 
L 106.558135 144.055219 
L 106.890934 152.925619 
L 107.252537 161.796019 
L 107.103679 170.666419 
L 106.445429 177.246514 
L 105.447227 179.536819 
L 104.344723 180.475377 
L 102.244017 182.620685 
L 100.143311 186.425613 
L 99.167817 188.407219 
L 98.042605 189.573116 
L 95.941899 192.230668 
L 93.841193 195.760615 
L 92.953402 197.277619 
L 91.740488 198.332506 
L 89.639782 200.367264 
L 87.539076 202.45732 
L 85.43837 202.618799 
L 83.337664 200.732654 
L 81.236958 197.54212 
L 81.177508 197.277619 
L 79.582025 188.407219 
L 79.136252 185.804546 
L 78.805115 179.536819 
L 78.344448 170.666419 
L 78.112422 161.796019 
L 78.643607 152.925619 
L 79.136252 144.214997 
L 79.159534 144.055219 
L 80.616873 136.279507 
" style="fill:none;stroke:#440154;stroke-width:1.5;"/>
   </g>
   <g id="LineCollection_22">
    <path clip-path="url(#p40b37368f1)" d="M 79.902549 211.197962 
L 79.136252 208.041673 
L 78.90827 206.148019 
L 77.670233 197.277619 
L 77.035546 193.504497 
L 76.773963 188.407219 
L 76.259521 179.536819 
L 75.776419 170.666419 
L 75.485964 161.796019 
L 75.763552 152.925619 
L 76.532571 144.055219 
L 77.035546 137.245986 
L 77.4171 135.184819 
L 78.988044 126.314419 
L 79.136252 125.422049 
L 81.134999 117.444019 
L 81.236958 117.298179 
L 83.337664 116.014098 
L 85.43837 114.804574 
L 87.539076 113.040281 
L 89.639782 111.528888 
L 91.740488 111.01226 
L 93.841193 110.806799 
L 95.941899 111.040924 
L 98.042605 113.756759 
L 100.143311 115.356257 
L 102.244017 116.472861 
L 103.952067 117.444019 
L 104.344723 118.909525 
L 106.445429 126.287943 
L 106.448715 126.314419 
L 106.931378 135.184819 
L 108.546135 143.761255 
L 108.556252 144.055219 
L 108.771792 152.925619 
L 109.248696 161.796019 
L 109.885799 170.666419 
L 110.044431 179.536819 
L 109.373101 188.407219 
L 108.546135 194.539956 
L 106.672923 197.277619 
L 106.445429 197.349964 
L 104.344723 198.612048 
L 102.244017 201.504014 
L 100.172839 206.148019 
L 100.143311 206.178201 
L 98.686599 207.649782 
" style="fill:none;stroke:#440154;stroke-width:1.5;"/>
   </g>
   <g id="LineCollection_23">
    <path clip-path="url(#p40b37368f1)" d="M 88.327263 105.618677 
L 89.639782 105.412082 
L 91.740488 105.194218 
L 93.841193 104.914614 
L 95.941899 104.588831 
L 98.042605 106.090503 
L 100.143311 107.344718 
L 102.244017 108.322783 
L 102.579476 108.573619 
L 104.344723 113.753139 
L 105.890133 117.444019 
L 106.445429 119.745687 
L 107.260828 126.314419 
L 108.546135 132.515021 
L 108.697684 135.184819 
L 109.482914 144.055219 
L 110.64684 150.887571 
L 110.691285 152.925619 
L 110.936844 161.796019 
L 111.487392 170.666419 
L 112.272521 179.536819 
L 112.504785 188.407219 
L 111.74529 197.277619 
L 110.681262 206.148019 
L 110.64684 206.320579 
L 108.546135 207.684976 
L 106.445429 209.409652 
L 104.344723 214.326594 
L 104.07307 215.018419 
L 102.244017 217.185607 
L 100.143311 221.50576 
L 99.154227 223.888819 
L 98.042605 225.134292 
L 95.941899 228.257429 
L 94.015313 232.759219 
L 93.841193 232.948975 
L 91.740488 235.419122 
L 89.639782 236.866386 
L 87.539076 236.534753 
L 85.43837 235.755025 
L 83.337664 234.607593 
L 81.236958 232.771661 
L 81.232255 232.759219 
L 79.136252 224.59178 
L 79.019855 223.888819 
L 77.411132 215.018419 
L 77.035546 213.142079 
L 76.435434 206.148019 
L 74.93484 197.697103 
L 74.913194 197.277619 
L 74.548349 188.407219 
L 74.035511 179.536819 
L 73.541911 170.666419 
L 73.282332 161.796019 
L 73.353753 152.925619 
L 73.948574 144.055219 
L 74.68623 135.189671 
" style="fill:none;stroke:#440154;stroke-width:1.5;"/>
   </g>
   <g id="LineCollection_24">
    <path clip-path="url(#p40b37368f1)" d="M 77.000056 106.979856 
L 77.035546 106.866964 
L 79.136252 100.741639 
L 79.645132 99.703219 
L 81.236958 99.158403 
L 83.337664 98.445491 
L 85.43837 97.725293 
L 87.539076 97.241646 
L 89.639782 97.062474 
L 91.740488 96.830402 
L 93.841193 96.821977 
L 95.941899 96.418742 
L 98.042605 97.818164 
L 100.143311 98.853613 
L 102.244017 99.629894 
L 102.332155 99.703219 
L 104.344723 106.188647 
L 105.438957 108.573619 
L 106.445429 112.576445 
L 107.436289 117.444019 
L 108.546135 122.430486 
L 108.899162 126.314419 
L 110.64684 134.929388 
L 110.657042 135.184819 
L 110.945842 144.055219 
L 111.877525 152.925619 
L 112.747546 158.255855 
L 112.806481 161.796019 
L 113.050348 170.666419 
L 113.581388 179.536819 
L 114.27322 188.407219 
L 114.397015 197.277619 
L 113.484041 206.148019 
L 112.747546 212.168441 
L 112.104544 215.018419 
L 110.64684 218.369823 
L 108.546135 219.230983 
L 106.584041 223.888819 
L 106.445429 224.027193 
L 104.344723 226.958385 
L 102.332245 232.759219 
L 102.244017 232.889764 
L 100.143311 235.854811 
L 98.042605 241.152771 
L 97.85086 241.629619 
L 95.941899 243.739859 
L 93.841193 247.986055 
L 92.608957 250.500019 
L 91.740488 250.99212 
L 89.639782 250.9473 
L 87.539076 250.700308 
L 85.960408 250.500019 
L 85.43837 250.145894 
L 83.337664 247.458538 
L 81.236958 243.880917 
L 80.24473 241.629619 
L 79.136252 237.464397 
L 78.275744 232.759219 
L 77.035546 227.149356 
L 76.681291 223.888819 
L 74.93484 215.360023 
L 74.909092 215.018419 
L 74.265902 206.148019 
L 72.834135 198.020164 
L 72.804613 197.277619 
L 72.494525 188.407219 
L 71.998393 179.536819 
L 71.429664 170.666419 
L 71.021602 161.796019 
L 71.037324 152.925619 
L 71.311837 146.058532 
" style="fill:none;stroke:#440154;stroke-width:1.5;"/>
   </g>
   <g id="LineCollection_25">
    <path clip-path="url(#p40b37368f1)" d="M 81.716058 90.148075 
L 83.337664 89.649297 
L 85.43837 88.97045 
L 87.539076 88.481869 
L 89.639782 88.335122 
L 91.740488 88.402042 
L 93.841193 88.441923 
L 95.941899 88.153833 
L 98.042605 89.461247 
L 100.143311 90.329829 
L 101.524543 90.832819 
L 102.244017 92.491923 
L 104.344723 98.063695 
L 105.205156 99.703219 
L 106.445429 104.538722 
L 107.477641 108.573619 
L 108.546135 113.155668 
L 109.089199 117.444019 
L 110.64684 124.667452 
L 110.73449 126.314419 
L 111.482739 135.184819 
L 112.747546 141.962015 
L 112.791147 144.055219 
L 113.079097 152.925619 
L 114.01635 161.796019 
L 114.848252 166.972417 
L 114.893905 170.666419 
L 115.085728 179.536819 
L 115.497098 188.407219 
L 115.968342 197.277619 
L 115.867184 206.148019 
L 114.975317 215.018419 
L 114.848252 216.075532 
L 113.162576 223.888819 
L 112.747546 226.458073 
L 110.64684 229.997856 
L 109.050882 232.759219 
L 108.546135 233.054543 
L 106.445429 236.04503 
L 104.595633 241.629619 
L 104.344723 241.995331 
L 102.244017 245.529796 
L 100.497357 250.500019 
L 100.143311 250.92962 
L 98.042605 253.811165 
L 95.998532 259.370419 
L 95.941899 259.439994 
L 93.841193 261.626543 
L 91.740488 261.823705 
L 89.639782 261.195274 
L 87.539076 260.680116 
L 85.43837 260.282272 
L 83.337664 259.664592 
L 82.835087 259.370419 
L 81.236958 255.76506 
L 79.136252 250.792259 
L 79.080325 250.500019 
L 77.107509 241.629619 
L 77.035546 241.312211 
L 76.020966 232.759219 
L 74.93484 227.61821 
L 74.624029 223.888819 
L 72.834135 215.042227 
L 72.83261 215.018419 
L 72.35563 206.148019 
L 70.97246 197.277619 
L 70.733429 195.760836 
L 70.550637 188.407219 
L 70.169041 179.536819 
L 69.595432 170.666419 
L 69.051257 161.796019 
L 68.89469 152.925619 
L 69.119801 144.055219 
L 69.554608 135.184819 
L 69.924595 130.023428 
" style="fill:none;stroke:#440154;stroke-width:1.5;"/>
   </g>
   <g id="LineCollection_26">
    <path clip-path="url(#p40b37368f1)" d="M 78.793361 82.415885 
L 78.993906 81.962419 
L 79.136252 81.900199 
L 81.236958 81.389376 
L 83.337664 80.818651 
L 85.43837 80.200325 
L 87.539076 79.818306 
L 89.639782 79.779601 
L 91.740488 79.954612 
L 93.841193 79.968425 
L 95.941899 79.839653 
L 98.042605 80.962156 
L 100.143311 81.729406 
L 100.761815 81.962419 
L 102.244017 85.398334 
L 104.344723 89.720207 
L 105.007383 90.832819 
L 106.445429 96.312123 
L 107.446151 99.703219 
L 108.546135 104.310902 
L 109.197531 108.573619 
L 110.64684 115.049766 
L 110.806995 117.444019 
L 112.237153 126.314419 
L 112.747546 128.853793 
L 112.911243 135.184819 
L 113.712707 144.055219 
L 114.848252 150.345076 
L 114.884224 152.925619 
L 115.102515 161.796019 
L 115.824296 170.666419 
L 116.948958 177.628939 
L 116.968888 179.536819 
L 117.091833 188.407219 
L 117.341926 197.277619 
L 117.559603 206.148019 
L 117.173199 215.018419 
L 116.948958 217.519079 
L 115.613452 223.888819 
L 114.848252 229.983485 
L 114.238346 232.759219 
L 112.747546 239.600539 
L 111.627062 241.629619 
L 110.64684 242.079277 
L 108.546135 244.43839 
L 106.512055 250.500019 
L 106.445429 250.58189 
L 104.344723 253.505676 
L 102.400311 259.370419 
L 102.244017 259.555071 
L 100.143311 262.217322 
L 98.076088 268.240819 
L 98.042605 268.279971 
L 95.941899 270.726622 
L 93.841193 272.56531 
L 91.740488 271.925377 
L 89.639782 270.978703 
L 87.539076 270.374431 
L 85.43837 269.914361 
L 83.337664 269.238076 
L 81.236958 268.256091 
L 81.227397 268.240819 
L 79.136252 260.849076 
L 78.864436 259.370419 
L 77.035546 251.43141 
L 76.910236 250.500019 
L 75.082736 241.629619 
L 74.93484 240.946303 
L 74.187513 232.759219 
L 72.834135 226.268931 
L 72.662795 223.888819 
L 71.414456 215.018419 
L 70.733429 211.471582 
L 70.492488 206.148019 
L 69.681252 197.277619 
L 68.632723 190.667645 
L 68.580835 188.407219 
L 68.350812 179.536819 
L 67.930277 170.666419 
L 67.373534 161.796019 
L 67.052689 152.925619 
L 67.131925 144.055219 
L 67.422582 135.184819 
L 67.795886 127.338305 
" style="fill:none;stroke:#450457;stroke-width:1.5;"/>
   </g>
   <g id="LineCollection_27">
    <path clip-path="url(#p40b37368f1)" d="M 80.937148 277.111219 
L 79.136252 270.88427 
L 78.665529 268.240819 
L 77.035546 261.155873 
L 76.785673 259.370419 
L 74.93484 251.079439 
L 74.871048 250.500019 
L 73.586829 241.629619 
L 72.834135 238.094161 
L 72.415949 232.759219 
L 70.733429 224.667291 
L 70.680064 223.888819 
L 69.945883 215.018419 
L 68.632723 208.085668 
L 68.551198 206.148019 
L 68.100686 197.277619 
L 67.038118 188.407219 
L 66.532017 184.922192 
L 66.433253 179.536819 
L 66.197284 170.666419 
L 65.823291 161.796019 
L 65.456716 152.925619 
L 65.360073 144.055219 
L 65.559843 135.184819 
L 65.827719 126.314419 
L 65.932931 123.256778 
" style="fill:none;stroke:#482475;stroke-width:1.5;"/>
    <path clip-path="url(#p40b37368f1)" d="M 77.669157 75.125048 
L 78.752541 73.092019 
L 79.136252 72.966414 
L 81.236958 72.443766 
L 83.337664 71.9262 
L 85.43837 71.455115 
L 87.539076 71.237213 
L 89.639782 71.301554 
L 91.740488 71.475694 
L 93.841193 71.428497 
L 95.941899 71.482121 
L 98.042605 72.421498 
L 100.143311 73.062373 
L 100.22146 73.092019 
L 102.244017 77.993371 
L 104.344723 81.290731 
L 104.797013 81.962419 
L 106.445429 88.137064 
L 107.3437 90.832819 
L 108.546135 95.796274 
L 109.213978 99.703219 
L 110.64684 105.982604 
L 110.861359 108.573619 
L 112.747546 117.321566 
L 112.752018 117.444019 
L 113.062959 126.314419 
L 114.844322 135.184819 
L 114.848252 135.205339 
L 114.989393 144.055219 
L 115.595778 152.925619 
L 116.948958 160.505638 
L 116.963397 161.796019 
L 117.099926 170.666419 
L 117.570553 179.536819 
L 118.912885 188.407219 
L 119.049664 189.390465 
" style="fill:none;stroke:#482475;stroke-width:1.5;"/>
    <path clip-path="url(#p40b37368f1)" d="M 119.049664 218.016836 
L 117.880322 223.888819 
L 117.383952 228.651486 
" style="fill:none;stroke:#482475;stroke-width:1.5;"/>
    <path clip-path="url(#p40b37368f1)" d="M 99.883285 274.84124 
L 99.133866 277.111219 
" style="fill:none;stroke:#482475;stroke-width:1.5;"/>
   </g>
   <g id="LineCollection_28">
    <path clip-path="url(#p40b37368f1)" d="M 78.499236 277.111219 
L 77.035546 270.741875 
L 76.680184 268.240819 
L 74.93484 260.485714 
L 74.806427 259.370419 
L 72.938882 250.500019 
L 72.834135 250.018555 
L 72.09511 241.629619 
L 70.733429 235.207658 
L 70.542039 232.759219 
L 69.03132 223.888819 
L 68.632723 221.908725 
L 68.242491 215.018419 
L 66.713587 206.148019 
L 66.532017 205.095793 
L 66.305176 197.277619 
L 65.744183 188.407219 
L 64.485041 179.536819 
L 64.431311 179.126731 
L 64.313609 170.666419 
L 64.121894 161.796019 
L 63.885774 152.925619 
L 63.744596 144.055219 
L 63.801181 135.184819 
L 63.960379 126.314419 
L 64.123345 117.444019 
L 64.313974 108.573619 
L 64.3187 108.451203 
" style="fill:none;stroke:#fde725;stroke-width:1.5;"/>
    <path clip-path="url(#p40b37368f1)" d="M 85.031765 62.812813 
L 85.43837 62.759065 
L 87.539076 62.6512 
L 89.639782 62.812881 
L 91.740488 62.971453 
L 93.841193 62.878891 
L 95.941899 63.117609 
L 98.042605 63.88324 
L 99.13847 64.221619 
L 100.143311 66.440245 
L 102.244017 70.526305 
L 104.344723 72.805199 
L 104.566936 73.092019 
L 106.445429 80.037695 
L 107.172036 81.962419 
L 108.546135 87.568073 
L 109.161164 90.832819 
L 110.64684 97.274379 
L 110.879918 99.703219 
L 112.747546 108.182929 
L 112.76451 108.573619 
L 113.206927 117.444019 
L 114.848252 125.324544 
L 114.870743 126.314419 
L 115.15402 135.184819 
L 116.599157 144.055219 
L 116.948958 145.931844 
L 117.033956 152.925619 
L 117.409414 161.796019 
L 118.81719 170.666419 
L 119.049664 172.016365 
" style="fill:none;stroke:#fde725;stroke-width:1.5;"/>
    <path clip-path="url(#p40b37368f1)" d="M 119.049664 233.414846 
L 117.341494 241.629619 
L 116.948958 244.575581 
L 115.650614 250.500019 
L 114.848252 254.449619 
L 113.35767 259.370419 
L 112.747546 260.09639 
L 110.64684 262.668609 
L 108.77279 268.240819 
L 108.546135 268.491236 
L 106.445429 271.290298 
L 104.516608 277.111219 
" style="fill:none;stroke:#fde725;stroke-width:1.5;"/>
   </g>
   <g id="line2d_19">
    <path clip-path="url(#p40b37368f1)" d="M 256.155341 106.945852 
L 231.791884 125.349891 
L 211.307878 142.580377 
L 194.068345 157.93987 
L 179.606848 171.923478 
L 167.468489 184.091998 
L 157.324736 194.903766 
L 148.823286 204.49151 
L 141.706117 212.80442 
L 135.728056 219.673609 
L 130.67448 225.418173 
L 126.448717 230.048878 
L 122.877295 233.5553 
L 119.863521 236.21676 
L 117.312531 238.099667 
L 115.146377 239.401098 
L 113.310018 240.167202 
L 111.731303 240.430725 
L 110.335789 240.058081 
L 109.139335 239.351914 
L 108.079181 238.14972 
L 107.140067 236.971139 
L 106.311061 235.142193 
L 105.562681 233.218959 
L 104.897977 231.180191 
L 104.283571 228.924094 
L 103.718985 226.403059 
L 103.205923 223.935966 
L 102.73726 221.252096 
L 102.291095 218.493291 
L 101.89819 215.798166 
L 101.524937 213.018367 
L 101.165762 210.084469 
L 100.83465 206.972073 
L 100.54418 204.146522 
L 100.236213 201.149725 
L 99.992387 198.197352 
L 99.718697 195.23503 
L 99.503167 192.162545 
L 99.270878 189.247186 
L 99.058152 186.279897 
L 98.864436 183.34284 
L 98.676115 180.583169 
L 98.47233 177.647279 
L 98.275523 174.616706 
L 98.117667 171.752586 
L 97.96364 168.835975 
L 97.749498 165.820265 
L 97.562717 162.233569 
L 97.37256 158.553539 
L 97.382503 157.656133 
L 97.406122 156.852394 
L 97.429855 156.152318 
L 97.455297 155.474 
L 97.48083 154.827816 
L 97.507229 154.188197 
L 97.531352 153.577532 
L 97.555607 153.008238 
L 97.576854 152.4554 
L 97.59485 151.882784 
L 97.61801 151.328325 
L 97.634183 150.803806 
L 97.651315 150.259093 
L 97.666931 149.763495 
L 97.684663 149.243125 
L 97.695695 148.743748 
L 97.709124 148.272442 
L 97.724658 147.768695 
L 97.732105 147.332791 
L 97.741924 146.865063 
L 97.756554 146.404022 
L 97.763831 145.946669 
L 97.764496 145.500481 
L 97.772655 145.015693 
L 97.772733 144.531724 
L 97.779484 144.444562 
L 97.787843 144.356559 
L 97.796779 144.291485 
L 97.806154 144.229195 
L 97.816485 144.186556 
L 97.826049 144.145943 
L 97.836096 144.113063 
L 97.846855 144.085908 
L 97.858325 144.055899 
L 97.868908 144.035071 
L 97.880125 144.022687 
L 97.891521 144.006677 
L 97.902627 144.001919 
L 97.913416 143.996982 
L 97.924692 143.995851 
L 97.93628 143.987663 
L 97.947635 143.991794 
L 97.958611 143.99417 
L 97.970598 144.00164 
L 97.982956 144.002431 
L 97.994884 144.011476 
L 98.006521 144.023117 
L 98.018133 144.032489 
L 98.030344 144.048703 
" style="fill:none;stroke:#1f77b4;stroke-linecap:square;stroke-width:1.5;"/>
    <defs>
     <path d="M 0 1.5 
C 0.397805 1.5 0.77937 1.341951 1.06066 1.06066 
C 1.341951 0.77937 1.5 0.397805 1.5 0 
C 1.5 -0.397805 1.341951 -0.77937 1.06066 -1.06066 
C 0.77937 -1.341951 0.397805 -1.5 0 -1.5 
C -0.397805 -1.5 -0.77937 -1.341951 -1.06066 -1.06066 
C -1.341951 -0.77937 -1.5 -0.397805 -1.5 0 
C -1.5 0.397805 -1.341951 0.77937 -1.06066 1.06066 
C -0.77937 1.341951 -0.397805 1.5 0 1.5 
z
" id="m3841b4ca7f" style="stroke:#1f77b4;"/>
    </defs>
    <g clip-path="url(#p40b37368f1)">
     <use style="fill:#1f77b4;stroke:#1f77b4;" x="256.155341" xlink:href="#m3841b4ca7f" y="106.945852"/>
     <use style="fill:#1f77b4;stroke:#1f77b4;" x="231.791884" xlink:href="#m3841b4ca7f" y="125.349891"/>
     <use style="fill:#1f77b4;stroke:#1f77b4;" x="211.307878" xlink:href="#m3841b4ca7f" y="142.580377"/>
     <use style="fill:#1f77b4;stroke:#1f77b4;" x="194.068345" xlink:href="#m3841b4ca7f" y="157.93987"/>
     <use style="fill:#1f77b4;stroke:#1f77b4;" x="179.606848" xlink:href="#m3841b4ca7f" y="171.923478"/>
     <use style="fill:#1f77b4;stroke:#1f77b4;" x="167.468489" xlink:href="#m3841b4ca7f" y="184.091998"/>
     <use style="fill:#1f77b4;stroke:#1f77b4;" x="157.324736" xlink:href="#m3841b4ca7f" y="194.903766"/>
     <use style="fill:#1f77b4;stroke:#1f77b4;" x="148.823286" xlink:href="#m3841b4ca7f" y="204.49151"/>
     <use style="fill:#1f77b4;stroke:#1f77b4;" x="141.706117" xlink:href="#m3841b4ca7f" y="212.80442"/>
     <use style="fill:#1f77b4;stroke:#1f77b4;" x="135.728056" xlink:href="#m3841b4ca7f" y="219.673609"/>
     <use style="fill:#1f77b4;stroke:#1f77b4;" x="130.67448" xlink:href="#m3841b4ca7f" y="225.418173"/>
     <use style="fill:#1f77b4;stroke:#1f77b4;" x="126.448717" xlink:href="#m3841b4ca7f" y="230.048878"/>
     <use style="fill:#1f77b4;stroke:#1f77b4;" x="122.877295" xlink:href="#m3841b4ca7f" y="233.5553"/>
     <use style="fill:#1f77b4;stroke:#1f77b4;" x="119.863521" xlink:href="#m3841b4ca7f" y="236.21676"/>
     <use style="fill:#1f77b4;stroke:#1f77b4;" x="117.312531" xlink:href="#m3841b4ca7f" y="238.099667"/>
     <use style="fill:#1f77b4;stroke:#1f77b4;" x="115.146377" xlink:href="#m3841b4ca7f" y="239.401098"/>
     <use style="fill:#1f77b4;stroke:#1f77b4;" x="113.310018" xlink:href="#m3841b4ca7f" y="240.167202"/>
     <use style="fill:#1f77b4;stroke:#1f77b4;" x="111.731303" xlink:href="#m3841b4ca7f" y="240.430725"/>
     <use style="fill:#1f77b4;stroke:#1f77b4;" x="110.335789" xlink:href="#m3841b4ca7f" y="240.058081"/>
     <use style="fill:#1f77b4;stroke:#1f77b4;" x="109.139335" xlink:href="#m3841b4ca7f" y="239.351914"/>
     <use style="fill:#1f77b4;stroke:#1f77b4;" x="108.079181" xlink:href="#m3841b4ca7f" y="238.14972"/>
     <use style="fill:#1f77b4;stroke:#1f77b4;" x="107.140067" xlink:href="#m3841b4ca7f" y="236.971139"/>
     <use style="fill:#1f77b4;stroke:#1f77b4;" x="106.311061" xlink:href="#m3841b4ca7f" y="235.142193"/>
     <use style="fill:#1f77b4;stroke:#1f77b4;" x="105.562681" xlink:href="#m3841b4ca7f" y="233.218959"/>
     <use style="fill:#1f77b4;stroke:#1f77b4;" x="104.897977" xlink:href="#m3841b4ca7f" y="231.180191"/>
     <use style="fill:#1f77b4;stroke:#1f77b4;" x="104.283571" xlink:href="#m3841b4ca7f" y="228.924094"/>
     <use style="fill:#1f77b4;stroke:#1f77b4;" x="103.718985" xlink:href="#m3841b4ca7f" y="226.403059"/>
     <use style="fill:#1f77b4;stroke:#1f77b4;" x="103.205923" xlink:href="#m3841b4ca7f" y="223.935966"/>
     <use style="fill:#1f77b4;stroke:#1f77b4;" x="102.73726" xlink:href="#m3841b4ca7f" y="221.252096"/>
     <use style="fill:#1f77b4;stroke:#1f77b4;" x="102.291095" xlink:href="#m3841b4ca7f" y="218.493291"/>
     <use style="fill:#1f77b4;stroke:#1f77b4;" x="101.89819" xlink:href="#m3841b4ca7f" y="215.798166"/>
     <use style="fill:#1f77b4;stroke:#1f77b4;" x="101.524937" xlink:href="#m3841b4ca7f" y="213.018367"/>
     <use style="fill:#1f77b4;stroke:#1f77b4;" x="101.165762" xlink:href="#m3841b4ca7f" y="210.084469"/>
     <use style="fill:#1f77b4;stroke:#1f77b4;" x="100.83465" xlink:href="#m3841b4ca7f" y="206.972073"/>
     <use style="fill:#1f77b4;stroke:#1f77b4;" x="100.54418" xlink:href="#m3841b4ca7f" y="204.146522"/>
     <use style="fill:#1f77b4;stroke:#1f77b4;" x="100.236213" xlink:href="#m3841b4ca7f" y="201.149725"/>
     <use style="fill:#1f77b4;stroke:#1f77b4;" x="99.992387" xlink:href="#m3841b4ca7f" y="198.197352"/>
     <use style="fill:#1f77b4;stroke:#1f77b4;" x="99.718697" xlink:href="#m3841b4ca7f" y="195.23503"/>
     <use style="fill:#1f77b4;stroke:#1f77b4;" x="99.503167" xlink:href="#m3841b4ca7f" y="192.162545"/>
     <use style="fill:#1f77b4;stroke:#1f77b4;" x="99.270878" xlink:href="#m3841b4ca7f" y="189.247186"/>
     <use style="fill:#1f77b4;stroke:#1f77b4;" x="99.058152" xlink:href="#m3841b4ca7f" y="186.279897"/>
     <use style="fill:#1f77b4;stroke:#1f77b4;" x="98.864436" xlink:href="#m3841b4ca7f" y="183.34284"/>
     <use style="fill:#1f77b4;stroke:#1f77b4;" x="98.676115" xlink:href="#m3841b4ca7f" y="180.583169"/>
     <use style="fill:#1f77b4;stroke:#1f77b4;" x="98.47233" xlink:href="#m3841b4ca7f" y="177.647279"/>
     <use style="fill:#1f77b4;stroke:#1f77b4;" x="98.275523" xlink:href="#m3841b4ca7f" y="174.616706"/>
     <use style="fill:#1f77b4;stroke:#1f77b4;" x="98.117667" xlink:href="#m3841b4ca7f" y="171.752586"/>
     <use style="fill:#1f77b4;stroke:#1f77b4;" x="97.96364" xlink:href="#m3841b4ca7f" y="168.835975"/>
     <use style="fill:#1f77b4;stroke:#1f77b4;" x="97.749498" xlink:href="#m3841b4ca7f" y="165.820265"/>
     <use style="fill:#1f77b4;stroke:#1f77b4;" x="97.562717" xlink:href="#m3841b4ca7f" y="162.233569"/>
     <use style="fill:#1f77b4;stroke:#1f77b4;" x="97.37256" xlink:href="#m3841b4ca7f" y="158.553539"/>
     <use style="fill:#1f77b4;stroke:#1f77b4;" x="97.382503" xlink:href="#m3841b4ca7f" y="157.656133"/>
     <use style="fill:#1f77b4;stroke:#1f77b4;" x="97.406122" xlink:href="#m3841b4ca7f" y="156.852394"/>
     <use style="fill:#1f77b4;stroke:#1f77b4;" x="97.429855" xlink:href="#m3841b4ca7f" y="156.152318"/>
     <use style="fill:#1f77b4;stroke:#1f77b4;" x="97.455297" xlink:href="#m3841b4ca7f" y="155.474"/>
     <use style="fill:#1f77b4;stroke:#1f77b4;" x="97.48083" xlink:href="#m3841b4ca7f" y="154.827816"/>
     <use style="fill:#1f77b4;stroke:#1f77b4;" x="97.507229" xlink:href="#m3841b4ca7f" y="154.188197"/>
     <use style="fill:#1f77b4;stroke:#1f77b4;" x="97.531352" xlink:href="#m3841b4ca7f" y="153.577532"/>
     <use style="fill:#1f77b4;stroke:#1f77b4;" x="97.555607" xlink:href="#m3841b4ca7f" y="153.008238"/>
     <use style="fill:#1f77b4;stroke:#1f77b4;" x="97.576854" xlink:href="#m3841b4ca7f" y="152.4554"/>
     <use style="fill:#1f77b4;stroke:#1f77b4;" x="97.59485" xlink:href="#m3841b4ca7f" y="151.882784"/>
     <use style="fill:#1f77b4;stroke:#1f77b4;" x="97.61801" xlink:href="#m3841b4ca7f" y="151.328325"/>
     <use style="fill:#1f77b4;stroke:#1f77b4;" x="97.634183" xlink:href="#m3841b4ca7f" y="150.803806"/>
     <use style="fill:#1f77b4;stroke:#1f77b4;" x="97.651315" xlink:href="#m3841b4ca7f" y="150.259093"/>
     <use style="fill:#1f77b4;stroke:#1f77b4;" x="97.666931" xlink:href="#m3841b4ca7f" y="149.763495"/>
     <use style="fill:#1f77b4;stroke:#1f77b4;" x="97.684663" xlink:href="#m3841b4ca7f" y="149.243125"/>
     <use style="fill:#1f77b4;stroke:#1f77b4;" x="97.695695" xlink:href="#m3841b4ca7f" y="148.743748"/>
     <use style="fill:#1f77b4;stroke:#1f77b4;" x="97.709124" xlink:href="#m3841b4ca7f" y="148.272442"/>
     <use style="fill:#1f77b4;stroke:#1f77b4;" x="97.724658" xlink:href="#m3841b4ca7f" y="147.768695"/>
     <use style="fill:#1f77b4;stroke:#1f77b4;" x="97.732105" xlink:href="#m3841b4ca7f" y="147.332791"/>
     <use style="fill:#1f77b4;stroke:#1f77b4;" x="97.741924" xlink:href="#m3841b4ca7f" y="146.865063"/>
     <use style="fill:#1f77b4;stroke:#1f77b4;" x="97.756554" xlink:href="#m3841b4ca7f" y="146.404022"/>
     <use style="fill:#1f77b4;stroke:#1f77b4;" x="97.763831" xlink:href="#m3841b4ca7f" y="145.946669"/>
     <use style="fill:#1f77b4;stroke:#1f77b4;" x="97.764496" xlink:href="#m3841b4ca7f" y="145.500481"/>
     <use style="fill:#1f77b4;stroke:#1f77b4;" x="97.772655" xlink:href="#m3841b4ca7f" y="145.015693"/>
     <use style="fill:#1f77b4;stroke:#1f77b4;" x="97.772733" xlink:href="#m3841b4ca7f" y="144.531724"/>
     <use style="fill:#1f77b4;stroke:#1f77b4;" x="97.779484" xlink:href="#m3841b4ca7f" y="144.444562"/>
     <use style="fill:#1f77b4;stroke:#1f77b4;" x="97.787843" xlink:href="#m3841b4ca7f" y="144.356559"/>
     <use style="fill:#1f77b4;stroke:#1f77b4;" x="97.796779" xlink:href="#m3841b4ca7f" y="144.291485"/>
     <use style="fill:#1f77b4;stroke:#1f77b4;" x="97.806154" xlink:href="#m3841b4ca7f" y="144.229195"/>
     <use style="fill:#1f77b4;stroke:#1f77b4;" x="97.816485" xlink:href="#m3841b4ca7f" y="144.186556"/>
     <use style="fill:#1f77b4;stroke:#1f77b4;" x="97.826049" xlink:href="#m3841b4ca7f" y="144.145943"/>
     <use style="fill:#1f77b4;stroke:#1f77b4;" x="97.836096" xlink:href="#m3841b4ca7f" y="144.113063"/>
     <use style="fill:#1f77b4;stroke:#1f77b4;" x="97.846855" xlink:href="#m3841b4ca7f" y="144.085908"/>
     <use style="fill:#1f77b4;stroke:#1f77b4;" x="97.858325" xlink:href="#m3841b4ca7f" y="144.055899"/>
     <use style="fill:#1f77b4;stroke:#1f77b4;" x="97.868908" xlink:href="#m3841b4ca7f" y="144.035071"/>
     <use style="fill:#1f77b4;stroke:#1f77b4;" x="97.880125" xlink:href="#m3841b4ca7f" y="144.022687"/>
     <use style="fill:#1f77b4;stroke:#1f77b4;" x="97.891521" xlink:href="#m3841b4ca7f" y="144.006677"/>
     <use style="fill:#1f77b4;stroke:#1f77b4;" x="97.902627" xlink:href="#m3841b4ca7f" y="144.001919"/>
     <use style="fill:#1f77b4;stroke:#1f77b4;" x="97.913416" xlink:href="#m3841b4ca7f" y="143.996982"/>
     <use style="fill:#1f77b4;stroke:#1f77b4;" x="97.924692" xlink:href="#m3841b4ca7f" y="143.995851"/>
     <use style="fill:#1f77b4;stroke:#1f77b4;" x="97.93628" xlink:href="#m3841b4ca7f" y="143.987663"/>
     <use style="fill:#1f77b4;stroke:#1f77b4;" x="97.947635" xlink:href="#m3841b4ca7f" y="143.991794"/>
     <use style="fill:#1f77b4;stroke:#1f77b4;" x="97.958611" xlink:href="#m3841b4ca7f" y="143.99417"/>
     <use style="fill:#1f77b4;stroke:#1f77b4;" x="97.970598" xlink:href="#m3841b4ca7f" y="144.00164"/>
     <use style="fill:#1f77b4;stroke:#1f77b4;" x="97.982956" xlink:href="#m3841b4ca7f" y="144.002431"/>
     <use style="fill:#1f77b4;stroke:#1f77b4;" x="97.994884" xlink:href="#m3841b4ca7f" y="144.011476"/>
     <use style="fill:#1f77b4;stroke:#1f77b4;" x="98.006521" xlink:href="#m3841b4ca7f" y="144.023117"/>
     <use style="fill:#1f77b4;stroke:#1f77b4;" x="98.018133" xlink:href="#m3841b4ca7f" y="144.032489"/>
     <use style="fill:#1f77b4;stroke:#1f77b4;" x="98.030344" xlink:href="#m3841b4ca7f" y="144.048703"/>
    </g>
   </g>
   <g id="patch_3">
    <path d="M 56.028488 277.111219 
L 56.028488 10.999219 
" style="fill:none;stroke:#000000;stroke-linecap:square;stroke-linejoin:miter;stroke-width:0.8;"/>
   </g>
   <g id="patch_4">
    <path d="M 413.148488 277.111219 
L 413.148488 10.999219 
" style="fill:none;stroke:#000000;stroke-linecap:square;stroke-linejoin:miter;stroke-width:0.8;"/>
   </g>
   <g id="patch_5">
    <path d="M 56.028488 277.111219 
L 413.148488 277.111219 
" style="fill:none;stroke:#000000;stroke-linecap:square;stroke-linejoin:miter;stroke-width:0.8;"/>
   </g>
   <g id="patch_6">
    <path d="M 56.028488 10.999219 
L 413.148488 10.999219 
" style="fill:none;stroke:#000000;stroke-linecap:square;stroke-linejoin:miter;stroke-width:0.8;"/>
   </g>
   <g id="text_21">
    <g clip-path="url(#p40b37368f1)">
     <!-- 1.000 -->
     <g style="fill:#482576;" transform="translate(99.469512 126.537542)rotate(-277.58306)scale(0.06 -0.06)">
      <use xlink:href="#DejaVuSans-49"/>
      <use x="63.623047" xlink:href="#DejaVuSans-46"/>
      <use x="95.410156" xlink:href="#DejaVuSans-48"/>
      <use x="159.033203" xlink:href="#DejaVuSans-48"/>
      <use x="222.65625" xlink:href="#DejaVuSans-48"/>
     </g>
    </g>
   </g>
   <g id="text_22">
    <g clip-path="url(#p40b37368f1)">
     <!-- 1.500 -->
     <g style="fill:#453781;" transform="translate(91.664344 143.914176)rotate(-82.68302)scale(0.06 -0.06)">
      <use xlink:href="#DejaVuSans-49"/>
      <use x="63.623047" xlink:href="#DejaVuSans-46"/>
      <use x="95.410156" xlink:href="#DejaVuSans-53"/>
      <use x="159.033203" xlink:href="#DejaVuSans-48"/>
      <use x="222.65625" xlink:href="#DejaVuSans-48"/>
     </g>
    </g>
   </g>
   <g id="text_23">
    <g clip-path="url(#p40b37368f1)">
     <!-- 2.000 -->
     <g style="fill:#404688;" transform="translate(78.288752 172.590804)rotate(-296.514415)scale(0.06 -0.06)">
      <use xlink:href="#DejaVuSans-50"/>
      <use x="63.623047" xlink:href="#DejaVuSans-46"/>
      <use x="95.410156" xlink:href="#DejaVuSans-48"/>
      <use x="159.033203" xlink:href="#DejaVuSans-48"/>
      <use x="222.65625" xlink:href="#DejaVuSans-48"/>
     </g>
    </g>
   </g>
   <g id="text_24">
    <g clip-path="url(#p40b37368f1)">
     <!-- 2.500 -->
     <g style="fill:#39558c;" transform="translate(83.66487 133.429118)rotate(-43.52095)scale(0.06 -0.06)">
      <use xlink:href="#DejaVuSans-50"/>
      <use x="63.623047" xlink:href="#DejaVuSans-46"/>
      <use x="95.410156" xlink:href="#DejaVuSans-53"/>
      <use x="159.033203" xlink:href="#DejaVuSans-48"/>
      <use x="222.65625" xlink:href="#DejaVuSans-48"/>
     </g>
    </g>
   </g>
   <g id="text_25">
    <g clip-path="url(#p40b37368f1)">
     <!-- 3.000 -->
     <g style="fill:#33638d;" transform="translate(82.230237 133.533144)rotate(-44.709821)scale(0.06 -0.06)">
      <defs>
       <path d="M 40.578125 39.3125 
Q 47.65625 37.796875 51.625 33 
Q 55.609375 28.21875 55.609375 21.1875 
Q 55.609375 10.40625 48.1875 4.484375 
Q 40.765625 -1.421875 27.09375 -1.421875 
Q 22.515625 -1.421875 17.65625 -0.515625 
Q 12.796875 0.390625 7.625 2.203125 
L 7.625 11.71875 
Q 11.71875 9.328125 16.59375 8.109375 
Q 21.484375 6.890625 26.8125 6.890625 
Q 36.078125 6.890625 40.9375 10.546875 
Q 45.796875 14.203125 45.796875 21.1875 
Q 45.796875 27.640625 41.28125 31.265625 
Q 36.765625 34.90625 28.71875 34.90625 
L 20.21875 34.90625 
L 20.21875 43.015625 
L 29.109375 43.015625 
Q 36.375 43.015625 40.234375 45.921875 
Q 44.09375 48.828125 44.09375 54.296875 
Q 44.09375 59.90625 40.109375 62.90625 
Q 36.140625 65.921875 28.71875 65.921875 
Q 24.65625 65.921875 20.015625 65.03125 
Q 15.375 64.15625 9.8125 62.3125 
L 9.8125 71.09375 
Q 15.4375 72.65625 20.34375 73.4375 
Q 25.25 74.21875 29.59375 74.21875 
Q 40.828125 74.21875 47.359375 69.109375 
Q 53.90625 64.015625 53.90625 55.328125 
Q 53.90625 49.265625 50.4375 45.09375 
Q 46.96875 40.921875 40.578125 39.3125 
z
" id="DejaVuSans-51"/>
      </defs>
      <use xlink:href="#DejaVuSans-51"/>
      <use x="63.623047" xlink:href="#DejaVuSans-46"/>
      <use x="95.410156" xlink:href="#DejaVuSans-48"/>
      <use x="159.033203" xlink:href="#DejaVuSans-48"/>
      <use x="222.65625" xlink:href="#DejaVuSans-48"/>
     </g>
    </g>
   </g>
   <g id="text_26">
    <g clip-path="url(#p40b37368f1)">
     <!-- 3.500 -->
     <g style="fill:#2d718e;" transform="translate(81.658571 133.868172)rotate(-48.81484)scale(0.06 -0.06)">
      <use xlink:href="#DejaVuSans-51"/>
      <use x="63.623047" xlink:href="#DejaVuSans-46"/>
      <use x="95.410156" xlink:href="#DejaVuSans-53"/>
      <use x="159.033203" xlink:href="#DejaVuSans-48"/>
      <use x="222.65625" xlink:href="#DejaVuSans-48"/>
     </g>
    </g>
   </g>
   <g id="text_27">
    <g clip-path="url(#p40b37368f1)">
     <!-- 4.000 -->
     <g style="fill:#287d8e;" transform="translate(81.457241 133.992794)rotate(-52.013174)scale(0.06 -0.06)">
      <use xlink:href="#DejaVuSans-52"/>
      <use x="63.623047" xlink:href="#DejaVuSans-46"/>
      <use x="95.410156" xlink:href="#DejaVuSans-48"/>
      <use x="159.033203" xlink:href="#DejaVuSans-48"/>
      <use x="222.65625" xlink:href="#DejaVuSans-48"/>
     </g>
    </g>
   </g>
   <g id="text_28">
    <g clip-path="url(#p40b37368f1)">
     <!-- 4.500 -->
     <g style="fill:#238a8d;" transform="translate(82.456683 131.52924)rotate(-43.562667)scale(0.06 -0.06)">
      <use xlink:href="#DejaVuSans-52"/>
      <use x="63.623047" xlink:href="#DejaVuSans-46"/>
      <use x="95.410156" xlink:href="#DejaVuSans-53"/>
      <use x="159.033203" xlink:href="#DejaVuSans-48"/>
      <use x="222.65625" xlink:href="#DejaVuSans-48"/>
     </g>
    </g>
   </g>
   <g id="text_29">
    <g clip-path="url(#p40b37368f1)">
     <!-- 5.000 -->
     <g style="fill:#1f968b;" transform="translate(97.028285 188.320756)rotate(-58.225222)scale(0.06 -0.06)">
      <use xlink:href="#DejaVuSans-53"/>
      <use x="63.623047" xlink:href="#DejaVuSans-46"/>
      <use x="95.410156" xlink:href="#DejaVuSans-48"/>
      <use x="159.033203" xlink:href="#DejaVuSans-48"/>
      <use x="222.65625" xlink:href="#DejaVuSans-48"/>
     </g>
    </g>
   </g>
   <g id="text_30">
    <g clip-path="url(#p40b37368f1)">
     <!-- 5.500 -->
     <g style="fill:#20a386;" transform="translate(97.099565 188.97536)rotate(-58.724091)scale(0.06 -0.06)">
      <use xlink:href="#DejaVuSans-53"/>
      <use x="63.623047" xlink:href="#DejaVuSans-46"/>
      <use x="95.410156" xlink:href="#DejaVuSans-53"/>
      <use x="159.033203" xlink:href="#DejaVuSans-48"/>
      <use x="222.65625" xlink:href="#DejaVuSans-48"/>
     </g>
    </g>
   </g>
   <g id="text_31">
    <g clip-path="url(#p40b37368f1)">
     <!-- 6.000 -->
     <g style="fill:#29af7f;" transform="translate(98.781453 187.768781)rotate(-59.336934)scale(0.06 -0.06)">
      <use xlink:href="#DejaVuSans-54"/>
      <use x="63.623047" xlink:href="#DejaVuSans-46"/>
      <use x="95.410156" xlink:href="#DejaVuSans-48"/>
      <use x="159.033203" xlink:href="#DejaVuSans-48"/>
      <use x="222.65625" xlink:href="#DejaVuSans-48"/>
     </g>
    </g>
   </g>
   <g id="text_32">
    <g clip-path="url(#p40b37368f1)">
     <!-- 6.500 -->
     <g style="fill:#3dbc74;" transform="translate(81.520164 143.92882)rotate(-80.475168)scale(0.06 -0.06)">
      <use xlink:href="#DejaVuSans-54"/>
      <use x="63.623047" xlink:href="#DejaVuSans-46"/>
      <use x="95.410156" xlink:href="#DejaVuSans-53"/>
      <use x="159.033203" xlink:href="#DejaVuSans-48"/>
      <use x="222.65625" xlink:href="#DejaVuSans-48"/>
     </g>
    </g>
   </g>
   <g id="text_33">
    <g clip-path="url(#p40b37368f1)">
     <!-- 7.000 -->
     <g style="fill:#56c667;" transform="translate(81.367357 143.651121)rotate(-79.942957)scale(0.06 -0.06)">
      <use xlink:href="#DejaVuSans-55"/>
      <use x="63.623047" xlink:href="#DejaVuSans-46"/>
      <use x="95.410156" xlink:href="#DejaVuSans-48"/>
      <use x="159.033203" xlink:href="#DejaVuSans-48"/>
      <use x="222.65625" xlink:href="#DejaVuSans-48"/>
     </g>
    </g>
   </g>
   <g id="text_34">
    <g clip-path="url(#p40b37368f1)">
     <!-- 7.500 -->
     <g style="fill:#75d054;" transform="translate(81.224501 143.280134)rotate(-79.007127)scale(0.06 -0.06)">
      <use xlink:href="#DejaVuSans-55"/>
      <use x="63.623047" xlink:href="#DejaVuSans-46"/>
      <use x="95.410156" xlink:href="#DejaVuSans-53"/>
      <use x="159.033203" xlink:href="#DejaVuSans-48"/>
      <use x="222.65625" xlink:href="#DejaVuSans-48"/>
     </g>
    </g>
   </g>
   <g id="text_35">
    <g clip-path="url(#p40b37368f1)">
     <!-- 8.000 -->
     <g style="fill:#95d840;" transform="translate(81.083575 142.906848)rotate(-78.083914)scale(0.06 -0.06)">
      <use xlink:href="#DejaVuSans-56"/>
      <use x="63.623047" xlink:href="#DejaVuSans-46"/>
      <use x="95.410156" xlink:href="#DejaVuSans-48"/>
      <use x="159.033203" xlink:href="#DejaVuSans-48"/>
      <use x="222.65625" xlink:href="#DejaVuSans-48"/>
     </g>
    </g>
   </g>
   <g id="text_36">
    <g clip-path="url(#p40b37368f1)">
     <!-- 8.500 -->
     <g style="fill:#bade28;" transform="translate(80.952004 142.5316)rotate(-77.221758)scale(0.06 -0.06)">
      <use xlink:href="#DejaVuSans-56"/>
      <use x="63.623047" xlink:href="#DejaVuSans-46"/>
      <use x="95.410156" xlink:href="#DejaVuSans-53"/>
      <use x="159.033203" xlink:href="#DejaVuSans-48"/>
      <use x="222.65625" xlink:href="#DejaVuSans-48"/>
     </g>
    </g>
   </g>
   <g id="text_37">
    <g clip-path="url(#p40b37368f1)">
     <!-- 9.000 -->
     <g style="fill:#dde318;" transform="translate(80.829795 142.154811)rotate(-76.420574)scale(0.06 -0.06)">
      <use xlink:href="#DejaVuSans-57"/>
      <use x="63.623047" xlink:href="#DejaVuSans-46"/>
      <use x="95.410156" xlink:href="#DejaVuSans-48"/>
      <use x="159.033203" xlink:href="#DejaVuSans-48"/>
      <use x="222.65625" xlink:href="#DejaVuSans-48"/>
     </g>
    </g>
   </g>
   <g id="text_38">
    <g clip-path="url(#p40b37368f1)">
     <!-- 9.500 -->
     <g style="fill:#fde725;" transform="translate(80.716847 141.776865)rotate(-75.679646)scale(0.06 -0.06)">
      <use xlink:href="#DejaVuSans-57"/>
      <use x="63.623047" xlink:href="#DejaVuSans-46"/>
      <use x="95.410156" xlink:href="#DejaVuSans-53"/>
      <use x="159.033203" xlink:href="#DejaVuSans-48"/>
      <use x="222.65625" xlink:href="#DejaVuSans-48"/>
     </g>
    </g>
   </g>
   <g id="text_39">
    <g clip-path="url(#p40b37368f1)">
     <!-- 10.000 -->
     <g style="fill:#440154;" transform="translate(80.621335 132.604848)rotate(-54.082463)scale(0.06 -0.06)">
      <use xlink:href="#DejaVuSans-49"/>
      <use x="63.623047" xlink:href="#DejaVuSans-48"/>
      <use x="127.246094" xlink:href="#DejaVuSans-46"/>
      <use x="159.033203" xlink:href="#DejaVuSans-48"/>
      <use x="222.65625" xlink:href="#DejaVuSans-48"/>
      <use x="286.279297" xlink:href="#DejaVuSans-48"/>
     </g>
    </g>
   </g>
   <g id="text_40">
    <g clip-path="url(#p40b37368f1)">
     <!-- 100.000 -->
     <g style="fill:#440154;" transform="translate(78.049188 225.684376)rotate(-14.56864)scale(0.06 -0.06)">
      <use xlink:href="#DejaVuSans-49"/>
      <use x="63.623047" xlink:href="#DejaVuSans-48"/>
      <use x="127.246094" xlink:href="#DejaVuSans-48"/>
      <use x="190.869141" xlink:href="#DejaVuSans-46"/>
      <use x="222.65625" xlink:href="#DejaVuSans-48"/>
      <use x="286.279297" xlink:href="#DejaVuSans-48"/>
      <use x="349.902344" xlink:href="#DejaVuSans-48"/>
     </g>
    </g>
   </g>
   <g id="text_41">
    <g clip-path="url(#p40b37368f1)">
     <!-- 1000.000 -->
     <g style="fill:#440154;" transform="translate(73.959528 131.380345)rotate(-68.669481)scale(0.06 -0.06)">
      <use xlink:href="#DejaVuSans-49"/>
      <use x="63.623047" xlink:href="#DejaVuSans-48"/>
      <use x="127.246094" xlink:href="#DejaVuSans-48"/>
      <use x="190.869141" xlink:href="#DejaVuSans-48"/>
      <use x="254.492188" xlink:href="#DejaVuSans-46"/>
      <use x="286.279297" xlink:href="#DejaVuSans-48"/>
      <use x="349.902344" xlink:href="#DejaVuSans-48"/>
      <use x="413.525391" xlink:href="#DejaVuSans-48"/>
     </g>
    </g>
   </g>
   <g id="text_42">
    <g clip-path="url(#p40b37368f1)">
     <!-- 10000.000 -->
     <g style="fill:#440154;" transform="translate(72.128312 142.609127)rotate(-81.886039)scale(0.06 -0.06)">
      <use xlink:href="#DejaVuSans-49"/>
      <use x="63.623047" xlink:href="#DejaVuSans-48"/>
      <use x="127.246094" xlink:href="#DejaVuSans-48"/>
      <use x="190.869141" xlink:href="#DejaVuSans-48"/>
      <use x="254.492188" xlink:href="#DejaVuSans-48"/>
      <use x="318.115234" xlink:href="#DejaVuSans-46"/>
      <use x="349.902344" xlink:href="#DejaVuSans-48"/>
      <use x="413.525391" xlink:href="#DejaVuSans-48"/>
      <use x="477.148438" xlink:href="#DejaVuSans-48"/>
     </g>
    </g>
   </g>
   <g id="text_43">
    <g clip-path="url(#p40b37368f1)">
     <!-- 100000.000 -->
     <g style="fill:#440154;" transform="translate(70.018383 126.637627)rotate(-75.88655)scale(0.06 -0.06)">
      <use xlink:href="#DejaVuSans-49"/>
      <use x="63.623047" xlink:href="#DejaVuSans-48"/>
      <use x="127.246094" xlink:href="#DejaVuSans-48"/>
      <use x="190.869141" xlink:href="#DejaVuSans-48"/>
      <use x="254.492188" xlink:href="#DejaVuSans-48"/>
      <use x="318.115234" xlink:href="#DejaVuSans-48"/>
      <use x="381.738281" xlink:href="#DejaVuSans-46"/>
      <use x="413.525391" xlink:href="#DejaVuSans-48"/>
      <use x="477.148438" xlink:href="#DejaVuSans-48"/>
      <use x="540.771484" xlink:href="#DejaVuSans-48"/>
     </g>
    </g>
   </g>
   <g id="text_44">
    <g clip-path="url(#p40b37368f1)">
     <!-- 1000000.000 -->
     <g style="fill:#450457;" transform="translate(67.562224 124.035703)rotate(-76.204027)scale(0.06 -0.06)">
      <use xlink:href="#DejaVuSans-49"/>
      <use x="63.623047" xlink:href="#DejaVuSans-48"/>
      <use x="127.246094" xlink:href="#DejaVuSans-48"/>
      <use x="190.869141" xlink:href="#DejaVuSans-48"/>
      <use x="254.492188" xlink:href="#DejaVuSans-48"/>
      <use x="318.115234" xlink:href="#DejaVuSans-48"/>
      <use x="381.738281" xlink:href="#DejaVuSans-48"/>
      <use x="445.361328" xlink:href="#DejaVuSans-46"/>
      <use x="477.148438" xlink:href="#DejaVuSans-48"/>
      <use x="540.771484" xlink:href="#DejaVuSans-48"/>
      <use x="604.394531" xlink:href="#DejaVuSans-48"/>
     </g>
    </g>
   </g>
   <g id="text_45">
    <g clip-path="url(#p40b37368f1)">
     <!-- 10000000.000 -->
     <g style="fill:#482475;" transform="translate(65.163174 120.023427)rotate(-76.617642)scale(0.06 -0.06)">
      <use xlink:href="#DejaVuSans-49"/>
      <use x="63.623047" xlink:href="#DejaVuSans-48"/>
      <use x="127.246094" xlink:href="#DejaVuSans-48"/>
      <use x="190.869141" xlink:href="#DejaVuSans-48"/>
      <use x="254.492188" xlink:href="#DejaVuSans-48"/>
      <use x="318.115234" xlink:href="#DejaVuSans-48"/>
      <use x="381.738281" xlink:href="#DejaVuSans-48"/>
      <use x="445.361328" xlink:href="#DejaVuSans-48"/>
      <use x="508.984375" xlink:href="#DejaVuSans-46"/>
      <use x="540.771484" xlink:href="#DejaVuSans-48"/>
      <use x="604.394531" xlink:href="#DejaVuSans-48"/>
      <use x="668.017578" xlink:href="#DejaVuSans-48"/>
     </g>
    </g>
   </g>
   <g id="text_46">
    <g clip-path="url(#p40b37368f1)">
     <!-- 10000000.000 -->
     <g style="fill:#482475;" transform="translate(104.052594 273.261845)rotate(-68.254402)scale(0.06 -0.06)">
      <use xlink:href="#DejaVuSans-49"/>
      <use x="63.623047" xlink:href="#DejaVuSans-48"/>
      <use x="127.246094" xlink:href="#DejaVuSans-48"/>
      <use x="190.869141" xlink:href="#DejaVuSans-48"/>
      <use x="254.492188" xlink:href="#DejaVuSans-48"/>
      <use x="318.115234" xlink:href="#DejaVuSans-48"/>
      <use x="381.738281" xlink:href="#DejaVuSans-48"/>
      <use x="445.361328" xlink:href="#DejaVuSans-48"/>
      <use x="508.984375" xlink:href="#DejaVuSans-46"/>
      <use x="540.771484" xlink:href="#DejaVuSans-48"/>
      <use x="604.394531" xlink:href="#DejaVuSans-48"/>
      <use x="668.017578" xlink:href="#DejaVuSans-48"/>
     </g>
    </g>
   </g>
   <g id="text_47">
    <g clip-path="url(#p40b37368f1)">
     <!-- 100000000.000 -->
     <g style="fill:#fde725;" transform="translate(61.749791 104.675873)rotate(-67.785198)scale(0.06 -0.06)">
      <use xlink:href="#DejaVuSans-49"/>
      <use x="63.623047" xlink:href="#DejaVuSans-48"/>
      <use x="127.246094" xlink:href="#DejaVuSans-48"/>
      <use x="190.869141" xlink:href="#DejaVuSans-48"/>
      <use x="254.492188" xlink:href="#DejaVuSans-48"/>
      <use x="318.115234" xlink:href="#DejaVuSans-48"/>
      <use x="381.738281" xlink:href="#DejaVuSans-48"/>
      <use x="445.361328" xlink:href="#DejaVuSans-48"/>
      <use x="508.984375" xlink:href="#DejaVuSans-48"/>
      <use x="572.607422" xlink:href="#DejaVuSans-46"/>
      <use x="604.394531" xlink:href="#DejaVuSans-48"/>
      <use x="668.017578" xlink:href="#DejaVuSans-48"/>
      <use x="731.640625" xlink:href="#DejaVuSans-48"/>
     </g>
    </g>
   </g>
  </g>
 </g>
 <defs>
  <clipPath id="p40b37368f1">
   <rect height="266.112" width="357.12" x="56.028488" y="10.999219"/>
  </clipPath>
 </defs>
</svg>
