<?xml version="1.0" encoding="utf-8" standalone="no"?>
<!DOCTYPE svg PUBLIC "-//W3C//DTD SVG 1.1//EN"
  "http://www.w3.org/Graphics/SVG/1.1/DTD/svg11.dtd">
<!-- Created with matplotlib (https://matplotlib.org/) -->
<svg height="321.713144pt" version="1.1" viewBox="0 0 420.348487 321.713144" width="420.348487pt" xmlns="http://www.w3.org/2000/svg" xmlns:xlink="http://www.w3.org/1999/xlink">
 <metadata>
  <rdf:RDF xmlns:cc="http://creativecommons.org/ns#" xmlns:dc="http://purl.org/dc/elements/1.1/" xmlns:rdf="http://www.w3.org/1999/02/22-rdf-syntax-ns#">
   <cc:Work>
    <dc:type rdf:resource="http://purl.org/dc/dcmitype/StillImage"/>
    <dc:date>2021-09-21T23:35:53.130517</dc:date>
    <dc:format>image/svg+xml</dc:format>
    <dc:creator>
     <cc:Agent>
      <dc:title>Matplotlib v3.3.1, https://matplotlib.org/</dc:title>
     </cc:Agent>
    </dc:creator>
   </cc:Work>
  </rdf:RDF>
 </metadata>
 <defs>
  <style type="text/css">*{stroke-linecap:butt;stroke-linejoin:round;}</style>
 </defs>
 <g id="figure_1">
  <g id="patch_1">
   <path d="M 0 321.713144 
L 420.348487 321.713144 
L 420.348487 0 
L 0 0 
z
" style="fill:#ffffff;"/>
  </g>
  <g id="axes_1">
   <g id="patch_2">
    <path d="M 56.028488 277.111219 
L 413.148488 277.111219 
L 413.148488 10.999219 
L 56.028488 10.999219 
z
" style="fill:#ffffff;"/>
   </g>
   <g id="matplotlib.axis_1">
    <g id="xtick_1">
     <g id="line2d_1">
      <defs>
       <path d="M 0 0 
L 0 3.5 
" id="mef4b87c826" style="stroke:#000000;stroke-width:0.8;"/>
      </defs>
      <g>
       <use style="stroke:#000000;stroke-width:0.8;" x="56.028488" xlink:href="#mef4b87c826" y="277.111219"/>
      </g>
     </g>
     <g id="text_1">
      <!-- −20 -->
      <g transform="translate(45.476144 291.709656)scale(0.1 -0.1)">
       <defs>
        <path d="M 10.59375 35.5 
L 73.1875 35.5 
L 73.1875 27.203125 
L 10.59375 27.203125 
z
" id="DejaVuSans-8722"/>
        <path d="M 19.1875 8.296875 
L 53.609375 8.296875 
L 53.609375 0 
L 7.328125 0 
L 7.328125 8.296875 
Q 12.9375 14.109375 22.625 23.890625 
Q 32.328125 33.6875 34.8125 36.53125 
Q 39.546875 41.84375 41.421875 45.53125 
Q 43.3125 49.21875 43.3125 52.78125 
Q 43.3125 58.59375 39.234375 62.25 
Q 35.15625 65.921875 28.609375 65.921875 
Q 23.96875 65.921875 18.8125 64.3125 
Q 13.671875 62.703125 7.8125 59.421875 
L 7.8125 69.390625 
Q 13.765625 71.78125 18.9375 73 
Q 24.125 74.21875 28.421875 74.21875 
Q 39.75 74.21875 46.484375 68.546875 
Q 53.21875 62.890625 53.21875 53.421875 
Q 53.21875 48.921875 51.53125 44.890625 
Q 49.859375 40.875 45.40625 35.40625 
Q 44.1875 33.984375 37.640625 27.21875 
Q 31.109375 20.453125 19.1875 8.296875 
z
" id="DejaVuSans-50"/>
        <path d="M 31.78125 66.40625 
Q 24.171875 66.40625 20.328125 58.90625 
Q 16.5 51.421875 16.5 36.375 
Q 16.5 21.390625 20.328125 13.890625 
Q 24.171875 6.390625 31.78125 6.390625 
Q 39.453125 6.390625 43.28125 13.890625 
Q 47.125 21.390625 47.125 36.375 
Q 47.125 51.421875 43.28125 58.90625 
Q 39.453125 66.40625 31.78125 66.40625 
z
M 31.78125 74.21875 
Q 44.046875 74.21875 50.515625 64.515625 
Q 56.984375 54.828125 56.984375 36.375 
Q 56.984375 17.96875 50.515625 8.265625 
Q 44.046875 -1.421875 31.78125 -1.421875 
Q 19.53125 -1.421875 13.0625 8.265625 
Q 6.59375 17.96875 6.59375 36.375 
Q 6.59375 54.828125 13.0625 64.515625 
Q 19.53125 74.21875 31.78125 74.21875 
z
" id="DejaVuSans-48"/>
       </defs>
       <use xlink:href="#DejaVuSans-8722"/>
       <use x="83.789062" xlink:href="#DejaVuSans-50"/>
       <use x="147.412109" xlink:href="#DejaVuSans-48"/>
      </g>
     </g>
    </g>
    <g id="xtick_2">
     <g id="line2d_2">
      <g>
       <use style="stroke:#000000;stroke-width:0.8;" x="98.042605" xlink:href="#mef4b87c826" y="277.111219"/>
      </g>
     </g>
     <g id="text_2">
      <!-- 0 -->
      <g transform="translate(94.861355 291.709656)scale(0.1 -0.1)">
       <use xlink:href="#DejaVuSans-48"/>
      </g>
     </g>
    </g>
    <g id="xtick_3">
     <g id="line2d_3">
      <g>
       <use style="stroke:#000000;stroke-width:0.8;" x="140.056723" xlink:href="#mef4b87c826" y="277.111219"/>
      </g>
     </g>
     <g id="text_3">
      <!-- 20 -->
      <g transform="translate(133.694223 291.709656)scale(0.1 -0.1)">
       <use xlink:href="#DejaVuSans-50"/>
       <use x="63.623047" xlink:href="#DejaVuSans-48"/>
      </g>
     </g>
    </g>
    <g id="xtick_4">
     <g id="line2d_4">
      <g>
       <use style="stroke:#000000;stroke-width:0.8;" x="182.07084" xlink:href="#mef4b87c826" y="277.111219"/>
      </g>
     </g>
     <g id="text_4">
      <!-- 40 -->
      <g transform="translate(175.70834 291.709656)scale(0.1 -0.1)">
       <defs>
        <path d="M 37.796875 64.3125 
L 12.890625 25.390625 
L 37.796875 25.390625 
z
M 35.203125 72.90625 
L 47.609375 72.90625 
L 47.609375 25.390625 
L 58.015625 25.390625 
L 58.015625 17.1875 
L 47.609375 17.1875 
L 47.609375 0 
L 37.796875 0 
L 37.796875 17.1875 
L 4.890625 17.1875 
L 4.890625 26.703125 
z
" id="DejaVuSans-52"/>
       </defs>
       <use xlink:href="#DejaVuSans-52"/>
       <use x="63.623047" xlink:href="#DejaVuSans-48"/>
      </g>
     </g>
    </g>
    <g id="xtick_5">
     <g id="line2d_5">
      <g>
       <use style="stroke:#000000;stroke-width:0.8;" x="224.084958" xlink:href="#mef4b87c826" y="277.111219"/>
      </g>
     </g>
     <g id="text_5">
      <!-- 60 -->
      <g transform="translate(217.722458 291.709656)scale(0.1 -0.1)">
       <defs>
        <path d="M 33.015625 40.375 
Q 26.375 40.375 22.484375 35.828125 
Q 18.609375 31.296875 18.609375 23.390625 
Q 18.609375 15.53125 22.484375 10.953125 
Q 26.375 6.390625 33.015625 6.390625 
Q 39.65625 6.390625 43.53125 10.953125 
Q 47.40625 15.53125 47.40625 23.390625 
Q 47.40625 31.296875 43.53125 35.828125 
Q 39.65625 40.375 33.015625 40.375 
z
M 52.59375 71.296875 
L 52.59375 62.3125 
Q 48.875 64.0625 45.09375 64.984375 
Q 41.3125 65.921875 37.59375 65.921875 
Q 27.828125 65.921875 22.671875 59.328125 
Q 17.53125 52.734375 16.796875 39.40625 
Q 19.671875 43.65625 24.015625 45.921875 
Q 28.375 48.1875 33.59375 48.1875 
Q 44.578125 48.1875 50.953125 41.515625 
Q 57.328125 34.859375 57.328125 23.390625 
Q 57.328125 12.15625 50.6875 5.359375 
Q 44.046875 -1.421875 33.015625 -1.421875 
Q 20.359375 -1.421875 13.671875 8.265625 
Q 6.984375 17.96875 6.984375 36.375 
Q 6.984375 53.65625 15.1875 63.9375 
Q 23.390625 74.21875 37.203125 74.21875 
Q 40.921875 74.21875 44.703125 73.484375 
Q 48.484375 72.75 52.59375 71.296875 
z
" id="DejaVuSans-54"/>
       </defs>
       <use xlink:href="#DejaVuSans-54"/>
       <use x="63.623047" xlink:href="#DejaVuSans-48"/>
      </g>
     </g>
    </g>
    <g id="xtick_6">
     <g id="line2d_6">
      <g>
       <use style="stroke:#000000;stroke-width:0.8;" x="266.099076" xlink:href="#mef4b87c826" y="277.111219"/>
      </g>
     </g>
     <g id="text_6">
      <!-- 80 -->
      <g transform="translate(259.736576 291.709656)scale(0.1 -0.1)">
       <defs>
        <path d="M 31.78125 34.625 
Q 24.75 34.625 20.71875 30.859375 
Q 16.703125 27.09375 16.703125 20.515625 
Q 16.703125 13.921875 20.71875 10.15625 
Q 24.75 6.390625 31.78125 6.390625 
Q 38.8125 6.390625 42.859375 10.171875 
Q 46.921875 13.96875 46.921875 20.515625 
Q 46.921875 27.09375 42.890625 30.859375 
Q 38.875 34.625 31.78125 34.625 
z
M 21.921875 38.8125 
Q 15.578125 40.375 12.03125 44.71875 
Q 8.5 49.078125 8.5 55.328125 
Q 8.5 64.0625 14.71875 69.140625 
Q 20.953125 74.21875 31.78125 74.21875 
Q 42.671875 74.21875 48.875 69.140625 
Q 55.078125 64.0625 55.078125 55.328125 
Q 55.078125 49.078125 51.53125 44.71875 
Q 48 40.375 41.703125 38.8125 
Q 48.828125 37.15625 52.796875 32.3125 
Q 56.78125 27.484375 56.78125 20.515625 
Q 56.78125 9.90625 50.3125 4.234375 
Q 43.84375 -1.421875 31.78125 -1.421875 
Q 19.734375 -1.421875 13.25 4.234375 
Q 6.78125 9.90625 6.78125 20.515625 
Q 6.78125 27.484375 10.78125 32.3125 
Q 14.796875 37.15625 21.921875 38.8125 
z
M 18.3125 54.390625 
Q 18.3125 48.734375 21.84375 45.5625 
Q 25.390625 42.390625 31.78125 42.390625 
Q 38.140625 42.390625 41.71875 45.5625 
Q 45.3125 48.734375 45.3125 54.390625 
Q 45.3125 60.0625 41.71875 63.234375 
Q 38.140625 66.40625 31.78125 66.40625 
Q 25.390625 66.40625 21.84375 63.234375 
Q 18.3125 60.0625 18.3125 54.390625 
z
" id="DejaVuSans-56"/>
       </defs>
       <use xlink:href="#DejaVuSans-56"/>
       <use x="63.623047" xlink:href="#DejaVuSans-48"/>
      </g>
     </g>
    </g>
    <g id="xtick_7">
     <g id="line2d_7">
      <g>
       <use style="stroke:#000000;stroke-width:0.8;" x="308.113193" xlink:href="#mef4b87c826" y="277.111219"/>
      </g>
     </g>
     <g id="text_7">
      <!-- 100 -->
      <g transform="translate(298.569443 291.709656)scale(0.1 -0.1)">
       <defs>
        <path d="M 12.40625 8.296875 
L 28.515625 8.296875 
L 28.515625 63.921875 
L 10.984375 60.40625 
L 10.984375 69.390625 
L 28.421875 72.90625 
L 38.28125 72.90625 
L 38.28125 8.296875 
L 54.390625 8.296875 
L 54.390625 0 
L 12.40625 0 
z
" id="DejaVuSans-49"/>
       </defs>
       <use xlink:href="#DejaVuSans-49"/>
       <use x="63.623047" xlink:href="#DejaVuSans-48"/>
       <use x="127.246094" xlink:href="#DejaVuSans-48"/>
      </g>
     </g>
    </g>
    <g id="xtick_8">
     <g id="line2d_8">
      <g>
       <use style="stroke:#000000;stroke-width:0.8;" x="350.127311" xlink:href="#mef4b87c826" y="277.111219"/>
      </g>
     </g>
     <g id="text_8">
      <!-- 120 -->
      <g transform="translate(340.583561 291.709656)scale(0.1 -0.1)">
       <use xlink:href="#DejaVuSans-49"/>
       <use x="63.623047" xlink:href="#DejaVuSans-50"/>
       <use x="127.246094" xlink:href="#DejaVuSans-48"/>
      </g>
     </g>
    </g>
    <g id="xtick_9">
     <g id="line2d_9">
      <g>
       <use style="stroke:#000000;stroke-width:0.8;" x="392.141429" xlink:href="#mef4b87c826" y="277.111219"/>
      </g>
     </g>
     <g id="text_9">
      <!-- 140 -->
      <g transform="translate(382.597679 291.709656)scale(0.1 -0.1)">
       <use xlink:href="#DejaVuSans-49"/>
       <use x="63.623047" xlink:href="#DejaVuSans-52"/>
       <use x="127.246094" xlink:href="#DejaVuSans-48"/>
      </g>
     </g>
    </g>
    <g id="text_10">
     <!-- 1st PC: 98.29 % -->
     <g transform="translate(165.868088 310.919444)scale(0.1728 -0.1728)">
      <defs>
       <path d="M 44.28125 53.078125 
L 44.28125 44.578125 
Q 40.484375 46.53125 36.375 47.5 
Q 32.28125 48.484375 27.875 48.484375 
Q 21.1875 48.484375 17.84375 46.4375 
Q 14.5 44.390625 14.5 40.28125 
Q 14.5 37.15625 16.890625 35.375 
Q 19.28125 33.59375 26.515625 31.984375 
L 29.59375 31.296875 
Q 39.15625 29.25 43.1875 25.515625 
Q 47.21875 21.78125 47.21875 15.09375 
Q 47.21875 7.46875 41.1875 3.015625 
Q 35.15625 -1.421875 24.609375 -1.421875 
Q 20.21875 -1.421875 15.453125 -0.5625 
Q 10.6875 0.296875 5.421875 2 
L 5.421875 11.28125 
Q 10.40625 8.6875 15.234375 7.390625 
Q 20.0625 6.109375 24.8125 6.109375 
Q 31.15625 6.109375 34.5625 8.28125 
Q 37.984375 10.453125 37.984375 14.40625 
Q 37.984375 18.0625 35.515625 20.015625 
Q 33.0625 21.96875 24.703125 23.78125 
L 21.578125 24.515625 
Q 13.234375 26.265625 9.515625 29.90625 
Q 5.8125 33.546875 5.8125 39.890625 
Q 5.8125 47.609375 11.28125 51.796875 
Q 16.75 56 26.8125 56 
Q 31.78125 56 36.171875 55.265625 
Q 40.578125 54.546875 44.28125 53.078125 
z
" id="DejaVuSans-115"/>
       <path d="M 18.3125 70.21875 
L 18.3125 54.6875 
L 36.8125 54.6875 
L 36.8125 47.703125 
L 18.3125 47.703125 
L 18.3125 18.015625 
Q 18.3125 11.328125 20.140625 9.421875 
Q 21.96875 7.515625 27.59375 7.515625 
L 36.8125 7.515625 
L 36.8125 0 
L 27.59375 0 
Q 17.1875 0 13.234375 3.875 
Q 9.28125 7.765625 9.28125 18.015625 
L 9.28125 47.703125 
L 2.6875 47.703125 
L 2.6875 54.6875 
L 9.28125 54.6875 
L 9.28125 70.21875 
z
" id="DejaVuSans-116"/>
       <path id="DejaVuSans-32"/>
       <path d="M 19.671875 64.796875 
L 19.671875 37.40625 
L 32.078125 37.40625 
Q 38.96875 37.40625 42.71875 40.96875 
Q 46.484375 44.53125 46.484375 51.125 
Q 46.484375 57.671875 42.71875 61.234375 
Q 38.96875 64.796875 32.078125 64.796875 
z
M 9.8125 72.90625 
L 32.078125 72.90625 
Q 44.34375 72.90625 50.609375 67.359375 
Q 56.890625 61.8125 56.890625 51.125 
Q 56.890625 40.328125 50.609375 34.8125 
Q 44.34375 29.296875 32.078125 29.296875 
L 19.671875 29.296875 
L 19.671875 0 
L 9.8125 0 
z
" id="DejaVuSans-80"/>
       <path d="M 64.40625 67.28125 
L 64.40625 56.890625 
Q 59.421875 61.53125 53.78125 63.8125 
Q 48.140625 66.109375 41.796875 66.109375 
Q 29.296875 66.109375 22.65625 58.46875 
Q 16.015625 50.828125 16.015625 36.375 
Q 16.015625 21.96875 22.65625 14.328125 
Q 29.296875 6.6875 41.796875 6.6875 
Q 48.140625 6.6875 53.78125 8.984375 
Q 59.421875 11.28125 64.40625 15.921875 
L 64.40625 5.609375 
Q 59.234375 2.09375 53.4375 0.328125 
Q 47.65625 -1.421875 41.21875 -1.421875 
Q 24.65625 -1.421875 15.125 8.703125 
Q 5.609375 18.84375 5.609375 36.375 
Q 5.609375 53.953125 15.125 64.078125 
Q 24.65625 74.21875 41.21875 74.21875 
Q 47.75 74.21875 53.53125 72.484375 
Q 59.328125 70.75 64.40625 67.28125 
z
" id="DejaVuSans-67"/>
       <path d="M 11.71875 12.40625 
L 22.015625 12.40625 
L 22.015625 0 
L 11.71875 0 
z
M 11.71875 51.703125 
L 22.015625 51.703125 
L 22.015625 39.3125 
L 11.71875 39.3125 
z
" id="DejaVuSans-58"/>
       <path d="M 10.984375 1.515625 
L 10.984375 10.5 
Q 14.703125 8.734375 18.5 7.8125 
Q 22.3125 6.890625 25.984375 6.890625 
Q 35.75 6.890625 40.890625 13.453125 
Q 46.046875 20.015625 46.78125 33.40625 
Q 43.953125 29.203125 39.59375 26.953125 
Q 35.25 24.703125 29.984375 24.703125 
Q 19.046875 24.703125 12.671875 31.3125 
Q 6.296875 37.9375 6.296875 49.421875 
Q 6.296875 60.640625 12.9375 67.421875 
Q 19.578125 74.21875 30.609375 74.21875 
Q 43.265625 74.21875 49.921875 64.515625 
Q 56.59375 54.828125 56.59375 36.375 
Q 56.59375 19.140625 48.40625 8.859375 
Q 40.234375 -1.421875 26.421875 -1.421875 
Q 22.703125 -1.421875 18.890625 -0.6875 
Q 15.09375 0.046875 10.984375 1.515625 
z
M 30.609375 32.421875 
Q 37.25 32.421875 41.125 36.953125 
Q 45.015625 41.5 45.015625 49.421875 
Q 45.015625 57.28125 41.125 61.84375 
Q 37.25 66.40625 30.609375 66.40625 
Q 23.96875 66.40625 20.09375 61.84375 
Q 16.21875 57.28125 16.21875 49.421875 
Q 16.21875 41.5 20.09375 36.953125 
Q 23.96875 32.421875 30.609375 32.421875 
z
" id="DejaVuSans-57"/>
       <path d="M 10.6875 12.40625 
L 21 12.40625 
L 21 0 
L 10.6875 0 
z
" id="DejaVuSans-46"/>
       <path d="M 72.703125 32.078125 
Q 68.453125 32.078125 66.03125 28.46875 
Q 63.625 24.859375 63.625 18.40625 
Q 63.625 12.0625 66.03125 8.421875 
Q 68.453125 4.78125 72.703125 4.78125 
Q 76.859375 4.78125 79.265625 8.421875 
Q 81.6875 12.0625 81.6875 18.40625 
Q 81.6875 24.8125 79.265625 28.4375 
Q 76.859375 32.078125 72.703125 32.078125 
z
M 72.703125 38.28125 
Q 80.421875 38.28125 84.953125 32.90625 
Q 89.5 27.546875 89.5 18.40625 
Q 89.5 9.28125 84.9375 3.921875 
Q 80.375 -1.421875 72.703125 -1.421875 
Q 64.890625 -1.421875 60.34375 3.921875 
Q 55.8125 9.28125 55.8125 18.40625 
Q 55.8125 27.59375 60.375 32.9375 
Q 64.9375 38.28125 72.703125 38.28125 
z
M 22.3125 68.015625 
Q 18.109375 68.015625 15.6875 64.375 
Q 13.28125 60.75 13.28125 54.390625 
Q 13.28125 47.953125 15.671875 44.328125 
Q 18.0625 40.71875 22.3125 40.71875 
Q 26.5625 40.71875 28.96875 44.328125 
Q 31.390625 47.953125 31.390625 54.390625 
Q 31.390625 60.6875 28.953125 64.34375 
Q 26.515625 68.015625 22.3125 68.015625 
z
M 66.40625 74.21875 
L 74.21875 74.21875 
L 28.609375 -1.421875 
L 20.796875 -1.421875 
z
M 22.3125 74.21875 
Q 30.03125 74.21875 34.609375 68.875 
Q 39.203125 63.53125 39.203125 54.390625 
Q 39.203125 45.171875 34.640625 39.84375 
Q 30.078125 34.515625 22.3125 34.515625 
Q 14.546875 34.515625 10.03125 39.859375 
Q 5.515625 45.21875 5.515625 54.390625 
Q 5.515625 63.484375 10.046875 68.84375 
Q 14.59375 74.21875 22.3125 74.21875 
z
" id="DejaVuSans-37"/>
      </defs>
      <use xlink:href="#DejaVuSans-49"/>
      <use x="63.623047" xlink:href="#DejaVuSans-115"/>
      <use x="115.722656" xlink:href="#DejaVuSans-116"/>
      <use x="154.931641" xlink:href="#DejaVuSans-32"/>
      <use x="186.71875" xlink:href="#DejaVuSans-80"/>
      <use x="247.021484" xlink:href="#DejaVuSans-67"/>
      <use x="316.845703" xlink:href="#DejaVuSans-58"/>
      <use x="350.537109" xlink:href="#DejaVuSans-32"/>
      <use x="382.324219" xlink:href="#DejaVuSans-57"/>
      <use x="445.947266" xlink:href="#DejaVuSans-56"/>
      <use x="509.570312" xlink:href="#DejaVuSans-46"/>
      <use x="541.357422" xlink:href="#DejaVuSans-50"/>
      <use x="604.980469" xlink:href="#DejaVuSans-57"/>
      <use x="668.603516" xlink:href="#DejaVuSans-32"/>
      <use x="700.390625" xlink:href="#DejaVuSans-37"/>
     </g>
    </g>
   </g>
   <g id="matplotlib.axis_2">
    <g id="ytick_1">
     <g id="line2d_10">
      <defs>
       <path d="M 0 0 
L -3.5 0 
" id="m5f91367c8a" style="stroke:#000000;stroke-width:0.8;"/>
      </defs>
      <g>
       <use style="stroke:#000000;stroke-width:0.8;" x="56.028488" xlink:href="#m5f91367c8a" y="277.111219"/>
      </g>
     </g>
     <g id="text_11">
      <!-- −20 -->
      <g transform="translate(27.9238 280.910437)scale(0.1 -0.1)">
       <use xlink:href="#DejaVuSans-8722"/>
       <use x="83.789062" xlink:href="#DejaVuSans-50"/>
       <use x="147.412109" xlink:href="#DejaVuSans-48"/>
      </g>
     </g>
    </g>
    <g id="ytick_2">
     <g id="line2d_11">
      <g>
       <use style="stroke:#000000;stroke-width:0.8;" x="56.028488" xlink:href="#m5f91367c8a" y="243.847219"/>
      </g>
     </g>
     <g id="text_12">
      <!-- −15 -->
      <g transform="translate(27.9238 247.646437)scale(0.1 -0.1)">
       <defs>
        <path d="M 10.796875 72.90625 
L 49.515625 72.90625 
L 49.515625 64.59375 
L 19.828125 64.59375 
L 19.828125 46.734375 
Q 21.96875 47.46875 24.109375 47.828125 
Q 26.265625 48.1875 28.421875 48.1875 
Q 40.625 48.1875 47.75 41.5 
Q 54.890625 34.8125 54.890625 23.390625 
Q 54.890625 11.625 47.5625 5.09375 
Q 40.234375 -1.421875 26.90625 -1.421875 
Q 22.3125 -1.421875 17.546875 -0.640625 
Q 12.796875 0.140625 7.71875 1.703125 
L 7.71875 11.625 
Q 12.109375 9.234375 16.796875 8.0625 
Q 21.484375 6.890625 26.703125 6.890625 
Q 35.15625 6.890625 40.078125 11.328125 
Q 45.015625 15.765625 45.015625 23.390625 
Q 45.015625 31 40.078125 35.4375 
Q 35.15625 39.890625 26.703125 39.890625 
Q 22.75 39.890625 18.8125 39.015625 
Q 14.890625 38.140625 10.796875 36.28125 
z
" id="DejaVuSans-53"/>
       </defs>
       <use xlink:href="#DejaVuSans-8722"/>
       <use x="83.789062" xlink:href="#DejaVuSans-49"/>
       <use x="147.412109" xlink:href="#DejaVuSans-53"/>
      </g>
     </g>
    </g>
    <g id="ytick_3">
     <g id="line2d_12">
      <g>
       <use style="stroke:#000000;stroke-width:0.8;" x="56.028488" xlink:href="#m5f91367c8a" y="210.583219"/>
      </g>
     </g>
     <g id="text_13">
      <!-- −10 -->
      <g transform="translate(27.9238 214.382437)scale(0.1 -0.1)">
       <use xlink:href="#DejaVuSans-8722"/>
       <use x="83.789062" xlink:href="#DejaVuSans-49"/>
       <use x="147.412109" xlink:href="#DejaVuSans-48"/>
      </g>
     </g>
    </g>
    <g id="ytick_4">
     <g id="line2d_13">
      <g>
       <use style="stroke:#000000;stroke-width:0.8;" x="56.028488" xlink:href="#m5f91367c8a" y="177.319219"/>
      </g>
     </g>
     <g id="text_14">
      <!-- −5 -->
      <g transform="translate(34.2863 181.118437)scale(0.1 -0.1)">
       <use xlink:href="#DejaVuSans-8722"/>
       <use x="83.789062" xlink:href="#DejaVuSans-53"/>
      </g>
     </g>
    </g>
    <g id="ytick_5">
     <g id="line2d_14">
      <g>
       <use style="stroke:#000000;stroke-width:0.8;" x="56.028488" xlink:href="#m5f91367c8a" y="144.055219"/>
      </g>
     </g>
     <g id="text_15">
      <!-- 0 -->
      <g transform="translate(42.665987 147.854437)scale(0.1 -0.1)">
       <use xlink:href="#DejaVuSans-48"/>
      </g>
     </g>
    </g>
    <g id="ytick_6">
     <g id="line2d_15">
      <g>
       <use style="stroke:#000000;stroke-width:0.8;" x="56.028488" xlink:href="#m5f91367c8a" y="110.791219"/>
      </g>
     </g>
     <g id="text_16">
      <!-- 5 -->
      <g transform="translate(42.665987 114.590437)scale(0.1 -0.1)">
       <use xlink:href="#DejaVuSans-53"/>
      </g>
     </g>
    </g>
    <g id="ytick_7">
     <g id="line2d_16">
      <g>
       <use style="stroke:#000000;stroke-width:0.8;" x="56.028488" xlink:href="#m5f91367c8a" y="77.527219"/>
      </g>
     </g>
     <g id="text_17">
      <!-- 10 -->
      <g transform="translate(36.303488 81.326437)scale(0.1 -0.1)">
       <use xlink:href="#DejaVuSans-49"/>
       <use x="63.623047" xlink:href="#DejaVuSans-48"/>
      </g>
     </g>
    </g>
    <g id="ytick_8">
     <g id="line2d_17">
      <g>
       <use style="stroke:#000000;stroke-width:0.8;" x="56.028488" xlink:href="#m5f91367c8a" y="44.263219"/>
      </g>
     </g>
     <g id="text_18">
      <!-- 15 -->
      <g transform="translate(36.303488 48.062437)scale(0.1 -0.1)">
       <use xlink:href="#DejaVuSans-49"/>
       <use x="63.623047" xlink:href="#DejaVuSans-53"/>
      </g>
     </g>
    </g>
    <g id="ytick_9">
     <g id="line2d_18">
      <g>
       <use style="stroke:#000000;stroke-width:0.8;" x="56.028488" xlink:href="#m5f91367c8a" y="10.999219"/>
      </g>
     </g>
     <g id="text_19">
      <!-- 20 -->
      <g transform="translate(36.303488 14.798437)scale(0.1 -0.1)">
       <use xlink:href="#DejaVuSans-50"/>
       <use x="63.623047" xlink:href="#DejaVuSans-48"/>
      </g>
     </g>
    </g>
    <g id="text_20">
     <!-- 2nd PC: 0.80 % -->
     <g transform="translate(20.3301 210.351019)rotate(-90)scale(0.1728 -0.1728)">
      <defs>
       <path d="M 54.890625 33.015625 
L 54.890625 0 
L 45.90625 0 
L 45.90625 32.71875 
Q 45.90625 40.484375 42.875 44.328125 
Q 39.84375 48.1875 33.796875 48.1875 
Q 26.515625 48.1875 22.3125 43.546875 
Q 18.109375 38.921875 18.109375 30.90625 
L 18.109375 0 
L 9.078125 0 
L 9.078125 54.6875 
L 18.109375 54.6875 
L 18.109375 46.1875 
Q 21.34375 51.125 25.703125 53.5625 
Q 30.078125 56 35.796875 56 
Q 45.21875 56 50.046875 50.171875 
Q 54.890625 44.34375 54.890625 33.015625 
z
" id="DejaVuSans-110"/>
       <path d="M 45.40625 46.390625 
L 45.40625 75.984375 
L 54.390625 75.984375 
L 54.390625 0 
L 45.40625 0 
L 45.40625 8.203125 
Q 42.578125 3.328125 38.25 0.953125 
Q 33.9375 -1.421875 27.875 -1.421875 
Q 17.96875 -1.421875 11.734375 6.484375 
Q 5.515625 14.40625 5.515625 27.296875 
Q 5.515625 40.1875 11.734375 48.09375 
Q 17.96875 56 27.875 56 
Q 33.9375 56 38.25 53.625 
Q 42.578125 51.265625 45.40625 46.390625 
z
M 14.796875 27.296875 
Q 14.796875 17.390625 18.875 11.75 
Q 22.953125 6.109375 30.078125 6.109375 
Q 37.203125 6.109375 41.296875 11.75 
Q 45.40625 17.390625 45.40625 27.296875 
Q 45.40625 37.203125 41.296875 42.84375 
Q 37.203125 48.484375 30.078125 48.484375 
Q 22.953125 48.484375 18.875 42.84375 
Q 14.796875 37.203125 14.796875 27.296875 
z
" id="DejaVuSans-100"/>
      </defs>
      <use xlink:href="#DejaVuSans-50"/>
      <use x="63.623047" xlink:href="#DejaVuSans-110"/>
      <use x="127.001953" xlink:href="#DejaVuSans-100"/>
      <use x="190.478516" xlink:href="#DejaVuSans-32"/>
      <use x="222.265625" xlink:href="#DejaVuSans-80"/>
      <use x="282.568359" xlink:href="#DejaVuSans-67"/>
      <use x="352.392578" xlink:href="#DejaVuSans-58"/>
      <use x="386.083984" xlink:href="#DejaVuSans-32"/>
      <use x="417.871094" xlink:href="#DejaVuSans-48"/>
      <use x="481.494141" xlink:href="#DejaVuSans-46"/>
      <use x="513.28125" xlink:href="#DejaVuSans-56"/>
      <use x="576.904297" xlink:href="#DejaVuSans-48"/>
      <use x="640.527344" xlink:href="#DejaVuSans-32"/>
      <use x="672.314453" xlink:href="#DejaVuSans-37"/>
     </g>
    </g>
   </g>
   <g id="LineCollection_1"/>
   <g id="LineCollection_2"/>
   <g id="LineCollection_3">
    <path clip-path="url(#p6bcb2c9d15)" d="M 93.620049 131.455386 
L 93.667366 126.314419 
L 93.841193 121.685602 
L 95.29297 117.444019 
L 95.941899 117.365574 
L 95.978085 117.444019 
L 98.042605 123.999492 
L 99.06688 126.314419 
L 100.143311 130.266491 
L 101.310169 135.184819 
L 102.244017 139.97809 
L 102.670361 144.055219 
L 103.170376 152.925619 
L 102.977088 161.796019 
L 102.26832 170.666419 
L 102.244017 170.881796 
L 100.457312 179.536819 
L 100.143311 181.332825 
L 98.088914 188.407219 
L 98.042605 188.598411 
L 95.941899 190.454506 
L 95.386516 188.407219 
L 94.38628 179.536819 
L 93.971696 170.666419 
L 93.841193 165.940378 
L 93.77162 161.796019 
L 93.710028 156.654701 
" style="fill:none;stroke:#482576;stroke-width:1.5;"/>
   </g>
   <g id="LineCollection_4">
    <path clip-path="url(#p6bcb2c9d15)" d="M 97.354213 209.604993 
L 96.080311 215.018419 
L 95.941899 215.716585 
L 93.841193 222.920217 
L 93.217312 223.888819 
L 91.740488 226.335187 
L 89.885658 223.888819 
L 89.639782 222.334264 
L 89.29103 215.018419 
L 89.288553 206.148019 
L 89.394445 197.277619 
L 89.523444 188.407219 
L 89.639782 180.087375 
L 89.647607 179.536819 
L 89.753446 170.666419 
L 89.834516 161.796019 
L 89.892003 152.925619 
L 89.926612 144.055219 
L 89.95151 135.184819 
L 89.983811 126.314419 
L 90.048419 117.444019 
L 90.24407 108.573619 
L 91.740488 101.374713 
L 93.841193 106.431841 
L 94.529646 108.573619 
L 95.941899 113.084552 
L 97.952868 117.444019 
L 98.042605 117.728961 
L 100.143311 124.879627 
L 100.605062 126.314419 
L 102.244017 133.231166 
L 102.559804 135.184819 
L 103.967491 144.055219 
L 104.344723 147.430007 
L 104.5458 152.925619 
L 104.627877 161.796019 
L 104.344723 169.693849 
L 104.236536 170.666419 
L 102.936703 179.536819 
L 102.244017 184.714397 
L 102.20996 184.883647 
" style="fill:none;stroke:#453781;stroke-width:1.5;"/>
   </g>
   <g id="LineCollection_5">
    <path clip-path="url(#p6bcb2c9d15)" d="M 82.806738 235.680411 
L 82.995592 232.759219 
L 83.337664 228.972509 
L 83.689551 223.888819 
L 84.237304 215.018419 
L 84.687672 206.148019 
L 85.056042 197.277619 
L 85.353953 188.407219 
L 85.43837 185.116 
L 85.547743 179.536819 
L 85.671441 170.666419 
L 85.751521 161.796019 
L 85.785559 152.925619 
L 85.774529 144.055219 
L 85.721604 135.184819 
L 85.629884 126.314419 
L 85.505335 117.444019 
L 85.43837 113.265037 
L 85.333882 108.573619 
L 85.156672 99.703219 
L 85.100581 90.832819 
L 85.43837 85.043575 
L 87.539076 82.656459 
L 89.639782 88.781728 
L 90.214433 90.832819 
L 91.740488 95.463917 
L 92.998715 99.703219 
L 93.841193 102.262244 
L 95.86992 108.573619 
L 95.941899 108.803529 
L 98.042605 116.058769 
L 98.684017 117.444019 
L 100.143311 122.535296 
L 101.359524 126.314419 
L 102.244017 130.047171 
L 103.074463 135.184819 
L 104.344723 142.075352 
L 104.559293 144.055219 
L 104.970391 152.925619 
L 105.262231 161.796019 
L 105.021814 170.666419 
L 104.344723 179.316557 
L 104.311637 179.536819 
L 102.846915 188.407219 
L 102.244017 192.431269 
L 101.294916 197.277619 
L 100.143311 204.116951 
L 99.707057 206.148019 
L 98.088443 215.018419 
L 98.042605 215.283177 
L 96.199925 223.888819 
L 95.941899 225.281365 
L 94.167989 232.759219 
L 93.841193 234.308603 
L 91.836513 241.629619 
L 91.740488 242.011888 
L 91.070217 243.708321 
" style="fill:none;stroke:#404688;stroke-width:1.5;"/>
   </g>
   <g id="LineCollection_6">
    <path clip-path="url(#p6bcb2c9d15)" d="M 79.548148 277.111219 
L 79.136252 272.104422 
L 77.035546 270.050305 
L 74.93484 270.717721 
L 72.834135 271.989227 
L 70.733429 273.834724 
L 68.632723 276.656029 
L 68.341161 277.111219 
" style="fill:none;stroke:#39558c;stroke-width:1.5;"/>
    <path clip-path="url(#p6bcb2c9d15)" d="M 56.028488 268.03994 
L 58.129193 262.87142 
L 59.540865 259.370419 
L 60.229899 257.636342 
L 62.330605 252.264609 
L 63.012724 250.500019 
L 64.431311 246.473188 
L 66.132017 241.629619 
L 66.532017 240.329603 
L 67.808999 236.082151 
" style="fill:none;stroke:#39558c;stroke-width:1.5;"/>
    <path clip-path="url(#p6bcb2c9d15)" d="M 73.081085 211.4704 
L 73.739037 206.148019 
L 74.548123 197.277619 
L 74.93484 191.185902 
L 75.079007 188.407219 
L 75.371864 179.536819 
L 75.525159 170.666419 
L 75.565988 161.796019 
L 75.512334 152.925619 
L 75.366647 144.055219 
L 75.108702 135.184819 
L 74.93484 131.28942 
L 74.678284 126.314419 
L 74.060706 117.444019 
L 73.293027 108.573619 
L 72.834135 104.140161 
L 72.329841 99.703219 
L 71.177049 90.832819 
L 70.733429 87.697332 
L 69.869638 81.962419 
L 68.632723 74.119131 
L 68.46545 73.092019 
L 66.963934 64.221619 
L 66.532017 61.68621 
L 65.443542 55.351219 
L 64.431311 49.30131 
L 63.959896 46.480819 
L 62.537357 37.610419 
L 62.330605 36.089932 
L 61.276971 28.740019 
L 60.23547 19.869619 
L 60.229899 19.779877 
L 59.594742 10.999219 
" style="fill:none;stroke:#39558c;stroke-width:1.5;"/>
    <path clip-path="url(#p6bcb2c9d15)" d="M 64.564809 10.999219 
L 66.532017 16.204516 
L 68.632723 19.226819 
L 69.145091 19.869619 
L 70.733429 24.642319 
L 72.834135 28.387894 
L 73.062497 28.740019 
L 74.93484 35.330049 
L 76.212183 37.610419 
L 77.035546 40.439844 
L 77.568325 41.882211 
" style="fill:none;stroke:#39558c;stroke-width:1.5;"/>
    <path clip-path="url(#p6bcb2c9d15)" d="M 84.791204 66.002697 
L 85.43837 68.286816 
L 86.860873 73.092019 
L 87.539076 75.325306 
L 89.206109 81.962419 
L 89.639782 83.341964 
L 91.738483 90.832819 
L 91.740488 90.838902 
L 93.841193 99.322672 
L 93.948581 99.703219 
L 95.941899 107.539379 
L 96.331359 108.573619 
L 98.042605 114.607576 
L 99.355964 117.444019 
L 100.143311 120.190966 
L 102.113986 126.314419 
L 102.244017 126.863176 
L 103.589121 135.184819 
L 104.344723 139.283583 
L 104.861854 144.055219 
L 105.394982 152.925619 
L 105.896585 161.796019 
L 105.738288 170.666419 
L 104.932462 179.536819 
L 104.344723 185.059247 
L 103.787949 188.407219 
L 102.394368 197.277619 
L 102.244017 198.246879 
L 100.730281 206.148019 
L 100.143311 209.667069 
L 99.067938 215.018419 
L 98.042605 220.940662 
L 97.411332 223.888819 
L 95.941899 231.819249 
L 95.718918 232.759219 
L 93.84517 241.629619 
L 93.841193 241.646494 
L 91.740488 250.027432 
L 91.595155 250.500019 
L 89.639782 256.709956 
L 88.806189 259.370419 
L 87.539076 262.501035 
L 85.832353 268.240819 
L 85.43837 269.065882 
L 83.337664 273.268204 
L 82.130232 277.111219 
" style="fill:none;stroke:#39558c;stroke-width:1.5;"/>
   </g>
   <g id="LineCollection_7">
    <path clip-path="url(#p6bcb2c9d15)" d="M 68.095429 10.999219 
L 68.632723 12.731769 
L 70.733429 18.929068 
L 71.348535 19.869619 
L 72.834135 25.202557 
L 74.93484 28.671153 
L 74.972989 28.740019 
L 77.035546 36.402814 
L 77.64352 37.610419 
L 79.136252 43.248693 
L 80.482599 46.480819 
L 81.236958 49.353882 
L 83.337664 55.340118 
L 83.341537 55.351219 
L 85.43837 63.536678 
L 85.604717 64.221619 
L 87.539076 72.014518 
L 87.724859 73.092019 
L 89.639782 81.099506 
L 89.816433 81.962419 
L 91.740488 89.86235 
L 91.983978 90.832819 
L 93.841193 98.337476 
L 94.226595 99.703219 
L 95.941899 106.446444 
L 96.742921 108.573619 
L 98.042605 113.156382 
L 100.027911 117.444019 
L 100.143311 117.846635 
L 102.244017 125.594459 
L 102.44405 126.314419 
L 104.10378 135.184819 
L 104.344723 136.491815 
L 105.164415 144.055219 
L 105.819572 152.925619 
L 106.216152 158.075469 
" style="fill:none;stroke:#33638d;stroke-width:1.5;"/>
    <path clip-path="url(#p6bcb2c9d15)" d="M 105.11725 183.195614 
L 104.52264 188.407219 
L 104.344723 189.934773 
L 103.052637 197.277619 
L 102.244017 202.490497 
L 101.543292 206.148019 
L 100.143311 214.5413 
L 100.047432 215.018419 
L 98.362228 223.888819 
L 98.042605 225.777285 
L 96.626652 232.759219 
L 95.941899 236.272113 
L 94.754486 241.629619 
L 93.841193 245.505465 
L 92.624861 250.500019 
L 91.740488 253.475203 
L 90.189048 259.370419 
L 89.639782 260.900969 
L 87.573577 268.240819 
L 87.539076 268.325722 
L 85.43837 272.83951 
L 84.161823 277.111219 
" style="fill:none;stroke:#33638d;stroke-width:1.5;"/>
   </g>
   <g id="LineCollection_8">
    <path clip-path="url(#p6bcb2c9d15)" d="M 76.204562 31.801947 
L 77.035546 34.889214 
L 78.40555 37.610419 
L 79.136252 40.370393 
L 81.236958 46.203372 
L 81.35263 46.480819 
L 83.337664 54.137004 
L 83.761354 55.351219 
L 85.43837 61.897831 
L 86.002733 64.221619 
L 87.539076 70.411041 
L 88.001332 73.092019 
L 89.639782 79.943401 
L 90.053105 81.962419 
L 91.740488 88.890604 
L 92.227789 90.832819 
L 93.841193 97.35228 
L 94.50461 99.703219 
L 95.941899 105.353509 
L 97.154484 108.573619 
L 98.042605 111.705189 
L 100.143311 116.938267 
L 100.332478 117.444019 
L 102.244017 124.724577 
L 102.685738 126.314419 
L 104.344723 134.546957 
L 104.427526 135.184819 
L 105.466976 144.055219 
L 106.244163 152.925619 
L 106.445429 155.539193 
L 106.597987 161.796019 
L 106.6323 170.666419 
L 106.445429 176.557713 
L 106.136926 179.536819 
L 104.95835 188.407219 
L 104.344723 193.675672 
L 103.710905 197.277619 
L 102.302888 206.148019 
L 102.244017 206.546279 
L 100.6368 215.018419 
L 100.143311 218.131204 
L 99.029648 223.888819 
L 98.042605 229.720689 
L 97.426384 232.759219 
L 95.941899 240.374871 
L 95.663803 241.629619 
L 93.841193 249.364436 
L 93.564643 250.500019 
L 91.740488 256.63679 
L 91.021081 259.370419 
L 89.639782 263.219456 
L 88.226243 268.240819 
L 87.539076 269.931853 
L 85.43837 276.613138 
L 85.289525 277.111219 
" style="fill:none;stroke:#2d718e;stroke-width:1.5;"/>
   </g>
   <g id="LineCollection_9">
    <path clip-path="url(#p6bcb2c9d15)" d="M 69.285513 10.999219 
L 70.733429 16.215422 
L 72.834135 19.744469 
L 72.900623 19.869619 
L 74.93484 27.200237 
L 75.787806 28.740019 
L 77.035546 33.375614 
L 79.136252 37.593034 
L 79.144457 37.610419 
L 80.653957 43.269513 
" style="fill:none;stroke:#287d8e;stroke-width:1.5;"/>
    <path clip-path="url(#p6bcb2c9d15)" d="M 87.233321 67.575776 
L 87.539076 68.807563 
L 88.277805 73.092019 
L 89.639782 78.787296 
L 90.289777 81.962419 
L 91.740488 87.918857 
L 92.471601 90.832819 
L 93.841193 96.367084 
L 94.782625 99.703219 
L 95.941899 104.260575 
L 97.566046 108.573619 
L 98.042605 110.253995 
L 100.143311 116.327647 
L 100.560869 117.444019 
L 102.244017 123.854694 
L 102.927425 126.314419 
L 104.344723 133.347608 
L 104.583217 135.184819 
L 105.769537 144.055219 
L 106.445429 151.235102 
L 106.496262 152.925619 
L 106.732423 161.796019 
L 106.816769 170.666419 
L 106.534754 179.536819 
L 106.445429 181.028302 
L 105.394061 188.407219 
L 104.354804 197.277619 
L 104.344723 197.363706 
L 102.729144 206.148019 
L 102.244017 209.429881 
L 101.183837 215.018419 
L 100.143311 221.58175 
L 99.697068 223.888819 
L 98.120785 232.759219 
L 98.042605 233.150235 
L 96.199075 241.629619 
L 95.941899 242.72899 
L 94.105339 250.500019 
L 93.841193 251.441953 
L 91.78729 259.370419 
L 91.740488 259.512247 
L 89.639782 265.537943 
L 88.878909 268.240819 
L 87.539076 271.537985 
L 85.858711 277.111219 
" style="fill:none;stroke:#287d8e;stroke-width:1.5;"/>
   </g>
   <g id="LineCollection_10">
    <path clip-path="url(#p6bcb2c9d15)" d="M 69.66214 10.999219 
L 70.733429 14.8586 
L 72.834135 19.360322 
L 73.10471 19.869619 
L 74.93484 26.464779 
L 76.195214 28.740019 
L 77.035546 31.862013 
L 79.136252 37.170137 
L 79.344029 37.610419 
L 80.870957 43.334852 
" style="fill:none;stroke:#238a8d;stroke-width:1.5;"/>
    <path clip-path="url(#p6bcb2c9d15)" d="M 87.605044 67.586687 
L 88.554277 73.092019 
L 89.639782 77.631191 
L 90.526449 81.962419 
L 91.740488 86.947111 
L 92.715412 90.832819 
L 93.841193 95.381889 
L 95.060639 99.703219 
L 95.941899 103.16764 
L 97.977608 108.573619 
L 98.042605 108.802801 
L 100.143311 115.717026 
L 100.78926 117.444019 
L 102.244017 122.984812 
L 103.169113 126.314419 
L 104.344723 132.148258 
L 104.738909 135.184819 
L 106.072098 144.055219 
L 106.445429 148.021046 
L 106.592907 152.925619 
L 106.866859 161.796019 
L 107.001237 170.666419 
L 106.717897 179.536819 
L 106.445429 184.086288 
L 105.829771 188.407219 
L 104.626217 197.277619 
L 104.344723 199.681367 
L 103.1554 206.148019 
L 102.244017 212.313482 
L 101.730874 215.018419 
L 100.240268 223.888819 
L 100.143311 224.446855 
L 98.461489 232.759219 
L 98.042605 234.854268 
L 96.569554 241.629619 
L 95.941899 244.312711 
L 94.479626 250.500019 
L 93.841193 252.77665 
L 92.133049 259.370419 
L 91.740488 260.560017 
L 89.639782 267.85643 
L 89.531574 268.240819 
L 87.539076 273.144116 
L 86.34297 277.111219 
" style="fill:none;stroke:#238a8d;stroke-width:1.5;"/>
   </g>
   <g id="LineCollection_11">
    <path clip-path="url(#p6bcb2c9d15)" d="M 70.038767 10.999219 
L 70.733429 13.501777 
L 72.834135 18.976174 
L 73.308796 19.869619 
L 74.93484 25.729321 
L 76.602623 28.740019 
L 77.035546 30.348413 
L 79.136252 36.74724 
L 79.543601 37.610419 
L 81.087958 43.400191 
" style="fill:none;stroke:#1f968b;stroke-width:1.5;"/>
    <path clip-path="url(#p6bcb2c9d15)" d="M 87.886661 67.616524 
L 88.83075 73.092019 
L 89.639782 76.475086 
L 90.763121 81.962419 
L 91.740488 85.975364 
L 92.959224 90.832819 
L 93.841193 94.396693 
L 95.338654 99.703219 
L 95.941899 102.074705 
L 98.042605 108.286957 
L 98.195884 108.573619 
L 100.143311 115.106406 
L 101.017651 117.444019 
L 102.244017 122.11493 
L 103.410801 126.314419 
L 104.344723 130.948909 
L 104.8946 135.184819 
L 106.374659 144.055219 
L 106.445429 144.80699 
L 106.689552 152.925619 
L 107.001296 161.796019 
L 107.185705 170.666419 
L 106.901041 179.536819 
L 106.445429 187.144274 
L 106.265481 188.407219 
L 104.897629 197.277619 
L 104.344723 201.999028 
L 103.581655 206.148019 
L 102.258609 215.018419 
L 102.244017 215.111404 
L 100.532844 223.888819 
L 100.143311 226.130778 
L 98.802194 232.759219 
L 98.042605 236.5583 
L 96.940033 241.629619 
L 95.941899 245.896432 
L 94.853914 250.500019 
L 93.841193 254.111347 
L 92.478808 259.370419 
L 91.740488 261.607787 
L 89.884369 268.240819 
L 89.639782 268.892738 
L 87.539076 274.750248 
L 86.827228 277.111219 
" style="fill:none;stroke:#1f968b;stroke-width:1.5;"/>
   </g>
   <g id="LineCollection_12">
    <path clip-path="url(#p6bcb2c9d15)" d="M 70.415395 10.999219 
L 70.733429 12.144954 
L 72.834135 18.592027 
L 73.512883 19.869619 
L 74.93484 24.993863 
L 77.010031 28.740019 
L 77.035546 28.834813 
L 79.136252 36.324343 
L 79.743174 37.610419 
L 81.236958 43.210595 
L 81.337501 43.451755 
" style="fill:none;stroke:#20a386;stroke-width:1.5;"/>
    <path clip-path="url(#p6bcb2c9d15)" d="M 88.1506 67.6492 
L 89.107223 73.092019 
L 89.639782 75.318981 
L 90.999793 81.962419 
L 91.740488 85.003618 
L 93.203035 90.832819 
L 93.841193 93.411497 
L 95.616669 99.703219 
L 95.941899 100.98177 
L 98.042605 107.946533 
L 98.377911 108.573619 
L 100.143311 114.495786 
L 101.246042 117.444019 
L 102.244017 121.245047 
L 103.652488 126.314419 
L 104.344723 129.749559 
L 105.050292 135.184819 
L 106.445429 143.356586 
L 106.50947 144.055219 
L 106.786197 152.925619 
L 107.135732 161.796019 
L 107.370174 170.666419 
L 107.084184 179.536819 
L 106.523788 188.407219 
L 106.445429 189.391562 
L 105.169042 197.277619 
L 104.344723 204.316689 
L 104.007911 206.148019 
L 102.494118 215.018419 
L 102.244017 216.612164 
L 100.82542 223.888819 
L 100.143311 227.814701 
L 99.142898 232.759219 
L 98.042605 238.262333 
L 97.310513 241.629619 
L 95.941899 247.480153 
L 95.228201 250.500019 
L 93.841193 255.446044 
L 92.824567 259.370419 
L 91.740488 262.655557 
L 90.177566 268.240819 
L 89.639782 269.674221 
L 87.539076 276.356379 
L 87.311487 277.111219 
" style="fill:none;stroke:#20a386;stroke-width:1.5;"/>
   </g>
   <g id="LineCollection_13">
    <path clip-path="url(#p6bcb2c9d15)" d="M 70.750701 10.999219 
L 72.834135 18.207879 
L 73.71697 19.869619 
L 74.93484 24.258405 
L 77.035546 28.519378 
L 77.145729 28.740019 
L 79.136252 35.901446 
L 79.942746 37.610419 
L 81.236958 42.462401 
L 81.62356 43.389692 
" style="fill:none;stroke:#29af7f;stroke-width:1.5;"/>
    <path clip-path="url(#p6bcb2c9d15)" d="M 88.295874 67.642059 
L 89.383695 73.092019 
L 89.639782 74.162876 
L 91.236465 81.962419 
L 91.740488 84.031871 
L 93.446846 90.832819 
L 93.841193 92.426301 
L 95.894683 99.703219 
L 95.941899 99.888835 
L 98.042605 107.606109 
L 98.559937 108.573619 
L 100.143311 113.885166 
L 101.474433 117.444019 
L 102.244017 120.375165 
L 103.894176 126.314419 
L 104.344723 128.55021 
L 105.205983 135.184819 
L 106.445429 142.444651 
L 106.593064 144.055219 
L 106.882842 152.925619 
L 107.270168 161.796019 
L 107.554642 170.666419 
L 107.267327 179.536819 
L 106.657278 188.407219 
L 106.445429 191.068463 
L 105.440454 197.277619 
L 104.377926 206.148019 
L 104.344723 206.411376 
L 102.729627 215.018419 
L 102.244017 218.112923 
L 101.117995 223.888819 
L 100.143311 229.498624 
L 99.483602 232.759219 
L 98.042605 239.966366 
L 97.680992 241.629619 
L 95.941899 249.063874 
L 95.602489 250.500019 
L 93.841193 256.780741 
L 93.170326 259.370419 
L 91.740488 263.703328 
L 90.470763 268.240819 
L 89.639782 270.455704 
L 87.662154 277.111219 
" style="fill:none;stroke:#29af7f;stroke-width:1.5;"/>
   </g>
   <g id="LineCollection_14">
    <path clip-path="url(#p6bcb2c9d15)" d="M 70.861727 10.999219 
L 72.834135 17.823732 
L 73.921056 19.869619 
L 74.93484 23.522947 
L 77.035546 28.283996 
L 77.263274 28.740019 
L 79.136252 35.478549 
L 80.142319 37.610419 
L 81.236958 41.714207 
L 81.912137 43.33367 
" style="fill:none;stroke:#3dbc74;stroke-width:1.5;"/>
    <path clip-path="url(#p6bcb2c9d15)" d="M 88.434274 67.632513 
L 89.639782 73.070406 
L 89.643745 73.092019 
L 91.473137 81.962419 
L 91.740488 83.060125 
L 93.690658 90.832819 
L 93.841193 91.441106 
L 95.941899 99.48688 
L 96.017575 99.703219 
L 98.042605 107.265685 
L 98.741963 108.573619 
L 100.143311 113.274546 
L 101.702824 117.444019 
L 102.244017 119.505282 
L 104.135864 126.314419 
L 104.344723 127.35086 
L 105.361675 135.184819 
L 106.445429 141.532716 
L 106.676659 144.055219 
L 106.979487 152.925619 
L 107.404604 161.796019 
L 107.739111 170.666419 
L 107.450471 179.536819 
L 106.790769 188.407219 
L 106.445429 192.745364 
L 105.711867 197.277619 
L 104.536159 206.148019 
L 104.344723 207.666433 
L 102.965136 215.018419 
L 102.244017 219.613683 
L 101.410571 223.888819 
L 100.143311 231.182547 
L 99.824307 232.759219 
L 98.046426 241.629619 
L 98.042605 241.646305 
L 95.957202 250.500019 
L 95.941899 250.557057 
L 93.841193 258.115438 
L 93.516085 259.370419 
L 91.740488 264.751098 
L 90.76396 268.240819 
L 89.639782 271.237187 
L 87.894365 277.111219 
" style="fill:none;stroke:#3dbc74;stroke-width:1.5;"/>
   </g>
   <g id="LineCollection_15">
    <path clip-path="url(#p6bcb2c9d15)" d="M 70.972753 10.999219 
L 72.834135 17.439584 
L 74.125143 19.869619 
L 74.93484 22.787489 
L 77.035546 28.048614 
L 77.380818 28.740019 
L 79.136252 35.055652 
L 80.341891 37.610419 
L 81.236958 40.966013 
L 82.145798 43.287327 
" style="fill:none;stroke:#56c667;stroke-width:1.5;"/>
    <path clip-path="url(#p6bcb2c9d15)" d="M 88.500504 67.638166 
L 89.639782 72.777306 
L 89.697489 73.092019 
L 91.70981 81.962419 
L 91.740488 82.088379 
L 93.841193 90.744801 
L 93.865853 90.832819 
L 95.941899 99.226282 
L 96.108731 99.703219 
L 98.042605 106.925261 
L 98.923989 108.573619 
L 100.143311 112.663925 
L 101.931215 117.444019 
L 102.244017 118.6354 
L 104.344723 126.266534 
L 104.355675 126.314419 
L 105.517366 135.184819 
L 106.445429 140.62078 
L 106.760253 144.055219 
L 107.076132 152.925619 
L 107.53904 161.796019 
L 107.923579 170.666419 
L 107.633614 179.536819 
L 106.924259 188.407219 
L 106.445429 194.422265 
L 105.983279 197.277619 
L 104.694392 206.148019 
L 104.344723 208.921491 
L 103.200645 215.018419 
L 102.244017 221.114442 
L 101.703147 223.888819 
L 100.152542 232.759219 
L 100.143311 232.80554 
L 98.206092 241.629619 
L 98.042605 242.343544 
L 96.12143 250.500019 
L 95.941899 251.169171 
L 93.850516 259.370419 
L 93.841193 259.400211 
L 91.740488 265.798868 
L 91.057157 268.240819 
L 89.639782 272.018671 
L 88.126575 277.111219 
" style="fill:none;stroke:#56c667;stroke-width:1.5;"/>
   </g>
   <g id="LineCollection_16">
    <path clip-path="url(#p6bcb2c9d15)" d="M 71.083778 10.999219 
L 72.834135 17.055437 
L 74.32923 19.869619 
L 74.93484 22.052031 
L 77.035546 27.813232 
L 77.498363 28.740019 
L 79.136252 34.632755 
L 80.541463 37.610419 
L 81.236958 40.217819 
L 82.322735 43.256519 
" style="fill:none;stroke:#75d054;stroke-width:1.5;"/>
    <path clip-path="url(#p6bcb2c9d15)" d="M 88.566733 67.64382 
L 89.639782 72.484206 
L 89.751234 73.092019 
L 91.740488 81.75862 
L 91.788548 81.962419 
L 93.841193 90.514734 
L 93.930309 90.832819 
L 95.941899 98.965685 
L 96.199888 99.703219 
L 98.042605 106.584837 
L 99.106015 108.573619 
L 100.143311 112.053305 
L 102.159606 117.444019 
L 102.244017 117.765517 
L 104.344723 125.913999 
L 104.436305 126.314419 
L 105.673058 135.184819 
L 106.445429 139.708845 
L 106.843847 144.055219 
L 107.172777 152.925619 
L 107.673477 161.796019 
L 108.108048 170.666419 
L 107.816757 179.536819 
L 107.05775 188.407219 
L 106.445429 196.099166 
L 106.254692 197.277619 
L 104.852625 206.148019 
L 104.344723 210.176548 
L 103.436155 215.018419 
L 102.244017 222.615202 
L 101.995723 223.888819 
L 100.297482 232.759219 
L 100.143311 233.53282 
L 98.365757 241.629619 
L 98.042605 243.040782 
L 96.285657 250.500019 
L 95.941899 251.781284 
L 94.00661 259.370419 
L 93.841193 259.899025 
L 91.740488 266.846638 
L 91.350354 268.240819 
L 89.639782 272.800154 
L 88.358786 277.111219 
" style="fill:none;stroke:#75d054;stroke-width:1.5;"/>
   </g>
   <g id="LineCollection_17">
    <path clip-path="url(#p6bcb2c9d15)" d="M 71.194804 10.999219 
L 72.834135 16.671289 
L 74.533316 19.869619 
L 74.93484 21.316573 
L 77.035546 27.57785 
L 77.615907 28.740019 
L 79.136252 34.209858 
L 80.741036 37.610419 
L 81.236958 39.469624 
L 82.474973 43.237067 
" style="fill:none;stroke:#95d840;stroke-width:1.5;"/>
    <path clip-path="url(#p6bcb2c9d15)" d="M 88.632963 67.649473 
L 89.639782 72.191106 
L 89.804979 73.092019 
L 91.740488 81.52447 
L 91.843767 81.962419 
L 93.841193 90.284667 
L 93.994765 90.832819 
L 95.941899 98.705088 
L 96.291045 99.703219 
L 98.042605 106.244413 
L 99.288041 108.573619 
L 100.143311 111.442685 
L 102.244017 117.273713 
L 102.299998 117.444019 
L 104.344723 125.561465 
L 104.516936 126.314419 
L 105.828749 135.184819 
L 106.445429 138.79691 
L 106.927441 144.055219 
L 107.269422 152.925619 
L 107.807913 161.796019 
L 108.292516 170.666419 
L 107.999901 179.536819 
L 107.19124 188.407219 
L 106.4718 197.277619 
L 106.445429 197.559211 
L 105.010858 206.148019 
L 104.344723 211.431605 
L 103.671664 215.018419 
L 102.262729 223.888819 
L 102.244017 223.995529 
L 100.442422 232.759219 
L 100.143311 234.260099 
L 98.525422 241.629619 
L 98.042605 243.738021 
L 96.449885 250.500019 
L 95.941899 252.393397 
L 94.162704 259.370419 
L 93.841193 260.397839 
L 91.740488 267.894408 
L 91.643552 268.240819 
L 89.639782 273.581637 
L 88.590997 277.111219 
" style="fill:none;stroke:#95d840;stroke-width:1.5;"/>
   </g>
   <g id="LineCollection_18">
    <path clip-path="url(#p6bcb2c9d15)" d="M 71.305829 10.999219 
L 72.834135 16.287142 
L 74.737403 19.869619 
L 74.93484 20.581115 
L 77.035546 27.342468 
L 77.733451 28.740019 
L 79.136252 33.786961 
L 80.940608 37.610419 
L 81.236958 38.72143 
L 82.607096 43.225924 
" style="fill:none;stroke:#bade28;stroke-width:1.5;"/>
    <path clip-path="url(#p6bcb2c9d15)" d="M 88.699193 67.655127 
L 89.639782 71.898006 
L 89.858723 73.092019 
L 91.740488 81.29032 
L 91.898985 81.962419 
L 93.841193 90.0546 
L 94.059222 90.832819 
L 95.941899 98.444491 
L 96.382201 99.703219 
L 98.042605 105.903989 
L 99.470067 108.573619 
L 100.143311 110.832065 
L 102.244017 117.003564 
L 102.388799 117.444019 
L 104.344723 125.208931 
L 104.597566 126.314419 
L 105.984441 135.184819 
L 106.445429 137.884975 
L 107.011035 144.055219 
L 107.366067 152.925619 
L 107.942349 161.796019 
L 108.476985 170.666419 
L 108.183044 179.536819 
L 107.324731 188.407219 
L 106.560518 197.277619 
L 106.445429 198.506555 
L 105.169091 206.148019 
L 104.344723 212.686662 
L 103.907173 215.018419 
L 102.386359 223.888819 
L 102.244017 224.700575 
L 100.587362 232.759219 
L 100.143311 234.987379 
L 98.685088 241.629619 
L 98.042605 244.435259 
L 96.614112 250.500019 
L 95.941899 253.00551 
L 94.318797 259.370419 
L 93.841193 260.896653 
L 91.831841 268.240819 
L 91.740488 268.499978 
L 89.639782 274.363121 
L 88.823208 277.111219 
" style="fill:none;stroke:#bade28;stroke-width:1.5;"/>
   </g>
   <g id="LineCollection_19">
    <path clip-path="url(#p6bcb2c9d15)" d="M 71.416855 10.999219 
L 72.834135 15.902994 
L 74.93484 19.86527 
L 74.937064 19.869619 
L 77.035546 27.107086 
L 77.850996 28.740019 
L 79.136252 33.364064 
L 81.140181 37.610419 
L 81.236958 37.973236 
L 82.72268 43.220968 
" style="fill:none;stroke:#dde318;stroke-width:1.5;"/>
    <path clip-path="url(#p6bcb2c9d15)" d="M 88.765422 67.66078 
L 89.639782 71.604906 
L 89.912468 73.092019 
L 91.740488 81.05617 
L 91.954204 81.962419 
L 93.841193 89.824533 
L 94.123678 90.832819 
L 95.941899 98.183894 
L 96.473358 99.703219 
L 98.042605 105.563565 
L 99.652093 108.573619 
L 100.143311 110.221445 
L 102.244017 116.733415 
L 102.4776 117.444019 
L 104.344723 124.856396 
L 104.678197 126.314419 
L 106.140132 135.184819 
L 106.445429 136.973039 
L 107.09463 144.055219 
L 107.462712 152.925619 
L 108.076785 161.796019 
L 108.546135 169.319305 
L 108.573753 170.666419 
L 108.546135 174.115618 
L 108.366187 179.536819 
L 107.458221 188.407219 
L 106.649236 197.277619 
L 106.445429 199.453899 
L 105.327324 206.148019 
L 104.344723 213.941719 
L 104.142682 215.018419 
L 102.509989 223.888819 
L 102.244017 225.405622 
L 100.732302 232.759219 
L 100.143311 235.714659 
L 98.844753 241.629619 
L 98.042605 245.132498 
L 96.77834 250.500019 
L 95.941899 253.617624 
L 94.474891 259.370419 
L 93.841193 261.395468 
L 91.968316 268.240819 
L 91.740488 268.887138 
L 89.639782 275.144604 
L 89.055419 277.111219 
" style="fill:none;stroke:#dde318;stroke-width:1.5;"/>
   </g>
   <g id="LineCollection_20">
    <path clip-path="url(#p6bcb2c9d15)" d="M 71.52788 10.999219 
L 72.834135 15.518847 
L 74.93484 19.731796 
L 75.005312 19.869619 
L 77.035546 26.871704 
L 77.96854 28.740019 
L 79.136252 32.941167 
L 81.236958 37.540864 
L 81.270057 37.610419 
L 82.808052 43.225131 
" style="fill:none;stroke:#fde725;stroke-width:1.5;"/>
    <path clip-path="url(#p6bcb2c9d15)" d="M 88.831652 67.666434 
L 89.639782 71.311806 
L 89.966213 73.092019 
L 91.740488 80.822019 
L 92.009423 81.962419 
L 93.841193 89.594466 
L 94.188134 90.832819 
L 95.941899 97.923297 
L 96.564514 99.703219 
L 98.042605 105.223141 
L 99.83412 108.573619 
L 100.143311 109.610825 
L 102.244017 116.463266 
L 102.5664 117.444019 
L 104.344723 124.503862 
L 104.758827 126.314419 
L 106.295824 135.184819 
L 106.445429 136.061104 
L 107.178224 144.055219 
L 107.559357 152.925619 
L 108.211221 161.796019 
L 108.546135 167.164403 
L 108.617934 170.666419 
L 108.54702 179.536819 
L 108.546135 179.558418 
L 107.591712 188.407219 
L 106.737954 197.277619 
L 106.445429 200.401243 
L 105.485557 206.148019 
L 104.358335 215.018419 
L 104.344723 215.108572 
L 102.633619 223.888819 
L 102.244017 226.110668 
L 100.877242 232.759219 
L 100.143311 236.441938 
L 99.004419 241.629619 
L 98.042605 245.829737 
L 96.942568 250.500019 
L 95.941899 254.229737 
L 94.630985 259.370419 
L 93.841193 261.894282 
L 92.104791 268.240819 
L 91.740488 269.274299 
L 89.639782 275.926087 
L 89.28763 277.111219 
" style="fill:none;stroke:#fde725;stroke-width:1.5;"/>
   </g>
   <g id="LineCollection_21">
    <path clip-path="url(#p6bcb2c9d15)" d="M 71.638906 10.999219 
L 72.834135 15.134699 
L 74.93484 19.598322 
L 75.073561 19.869619 
L 77.035546 26.636322 
L 78.086085 28.740019 
L 79.136252 32.51827 
L 81.236958 37.405827 
L 81.334317 37.610419 
L 83.337664 44.923975 
L 83.966684 46.480819 
L 84.939093 50.19038 
" style="fill:none;stroke:#440154;stroke-width:1.5;"/>
    <path clip-path="url(#p6bcb2c9d15)" d="M 91.212354 78.286944 
L 91.740488 80.587869 
L 92.064641 81.962419 
L 93.841193 89.364399 
L 94.252591 90.832819 
L 95.941899 97.6627 
L 96.655671 99.703219 
L 98.042605 104.882717 
L 100.016146 108.573619 
L 100.143311 109.000204 
L 102.244017 116.193116 
L 102.655201 117.444019 
L 104.344723 124.151327 
L 104.839458 126.314419 
L 106.445429 135.167443 
L 106.447643 135.184819 
L 107.261818 144.055219 
L 107.656002 152.925619 
L 108.345658 161.796019 
L 108.546135 165.0095 
L 108.662114 170.666419 
L 108.597772 179.536819 
L 108.546135 180.796056 
L 107.725202 188.407219 
L 106.826672 197.277619 
L 106.445429 201.348587 
L 105.643789 206.148019 
L 104.454121 215.018419 
L 104.344723 215.742961 
L 102.75725 223.888819 
L 102.244017 226.815715 
L 101.022182 232.759219 
L 100.143311 237.169218 
L 99.164084 241.629619 
L 98.042605 246.526975 
L 97.106795 250.500019 
L 95.941899 254.84185 
L 94.787079 259.370419 
L 93.841193 262.393096 
L 92.241266 268.240819 
L 91.740488 269.661459 
L 89.639782 276.70757 
L 89.519841 277.111219 
" style="fill:none;stroke:#440154;stroke-width:1.5;"/>
   </g>
   <g id="LineCollection_22">
    <path clip-path="url(#p6bcb2c9d15)" d="M 76.379127 10.999219 
L 77.035546 13.285724 
L 79.136252 19.032692 
L 79.519608 19.869619 
L 81.236958 25.8508 
L 82.571175 28.740019 
L 83.337664 31.480682 
L 85.43837 37.111108 
L 85.620595 37.610419 
L 87.539076 45.037127 
L 87.891361 46.480819 
L 89.639782 54.277301 
L 89.84872 55.351219 
L 91.740488 63.960408 
L 91.796348 64.221619 
L 93.841193 73.01915 
L 93.860277 73.092019 
L 95.941899 81.535185 
L 96.074051 81.962419 
L 98.042605 89.515501 
L 98.551481 90.832819 
L 100.143311 96.307324 
L 102.244017 99.583487 
L 102.337431 99.703219 
L 104.344723 105.916461 
L 105.39419 108.573619 
L 106.445429 112.604312 
L 107.758732 117.444019 
L 108.546135 121.007046 
L 109.567636 126.314419 
L 110.64684 132.234767 
L 111.066738 135.184819 
L 111.412494 144.055219 
L 111.578923 152.925619 
L 111.99904 161.796019 
L 112.505005 170.666419 
L 112.747546 176.453662 
L 112.800473 179.536819 
L 112.751886 188.407219 
L 112.747546 188.52987 
L 112.04495 197.277619 
L 111.210375 206.148019 
L 110.64684 212.64471 
L 110.323624 215.018419 
L 109.125335 223.888819 
L 108.546135 227.304516 
L 107.45782 232.759219 
L 106.445429 237.819914 
L 105.626706 241.629619 
L 105.165416 243.615462 
" style="fill:none;stroke:#440154;stroke-width:1.5;"/>
    <path clip-path="url(#p6bcb2c9d15)" d="M 97.146544 275.001866 
L 96.577488 277.111219 
" style="fill:none;stroke:#440154;stroke-width:1.5;"/>
   </g>
   <g id="LineCollection_23">
    <path clip-path="url(#p6bcb2c9d15)" d="M 90.476141 41.122958 
L 91.693043 46.480819 
L 91.740488 46.693537 
L 93.58127 55.351219 
L 93.841193 56.483853 
L 95.745348 64.221619 
L 95.941899 65.025695 
L 98.042605 72.710732 
L 98.170853 73.092019 
L 100.143311 80.356804 
L 100.803293 81.962419 
L 102.244017 86.71466 
L 104.344723 90.293988 
L 104.834208 90.832819 
L 106.445429 95.092886 
L 108.546135 99.438176 
L 108.656886 99.703219 
L 110.64684 107.142535 
L 111.010636 108.573619 
L 112.747546 116.094913 
L 113.082274 117.444019 
L 114.848252 125.329125 
L 115.049665 126.314419 
L 116.5427 135.184819 
L 116.323795 144.055219 
L 116.420081 152.925619 
L 116.824884 161.796019 
L 116.948958 164.550431 
L 117.054578 170.666419 
L 117.220132 179.536819 
L 117.353983 188.407219 
L 117.375339 197.277619 
L 117.182444 206.148019 
L 116.948958 211.373531 
L 116.596153 215.018419 
L 115.650455 223.888819 
L 114.848252 231.171472 
L 114.594872 232.759219 
L 112.747546 241.545252 
L 112.72869 241.629619 
L 110.64684 250.229708 
L 110.582487 250.500019 
L 108.546135 258.546368 
L 108.345575 259.370419 
L 106.445429 266.687087 
L 106.061523 268.240819 
L 104.344723 274.670814 
L 103.721122 277.111219 
" style="fill:none;stroke:#440154;stroke-width:1.5;"/>
   </g>
   <g id="LineCollection_24">
    <path clip-path="url(#p6bcb2c9d15)" d="M 119.049664 248.048314 
L 118.483398 250.500019 
L 116.948958 256.798706 
L 116.317876 259.370419 
L 114.848252 265.047685 
L 114.048289 268.240819 
L 112.747546 273.06216 
L 111.716568 277.111219 
" style="fill:none;stroke:#440154;stroke-width:1.5;"/>
    <path clip-path="url(#p6bcb2c9d15)" d="M 86.851086 10.999219 
L 87.539076 13.426437 
L 89.639782 19.861347 
L 89.642124 19.869619 
L 91.740488 28.394514 
L 91.824035 28.740019 
L 93.841193 37.360233 
L 93.8992 37.610419 
L 95.941899 46.303461 
L 95.98645 46.480819 
L 97.085811 50.968855 
" style="fill:none;stroke:#440154;stroke-width:1.5;"/>
    <path clip-path="url(#p6bcb2c9d15)" d="M 110.528177 87.874884 
L 110.64684 88.162823 
L 111.9174 90.832819 
L 112.747546 93.779571 
L 114.479215 99.703219 
L 114.848252 101.320042 
L 116.458747 108.573619 
L 116.948958 110.485965 
L 119.022482 117.444019 
L 119.049664 117.573771 
" style="fill:none;stroke:#440154;stroke-width:1.5;"/>
   </g>
   <g id="LineCollection_25">
    <path clip-path="url(#p6bcb2c9d15)" d="M 92.093496 10.999219 
L 93.841193 18.148145 
L 94.262933 19.869619 
L 95.941899 26.969658 
L 96.37314 28.740019 
L 98.042605 35.695179 
L 98.507866 37.462239 
" style="fill:none;stroke:#440154;stroke-width:1.5;"/>
    <path clip-path="url(#p6bcb2c9d15)" d="M 113.60389 77.515519 
L 114.848252 80.38619 
L 115.538281 81.962419 
L 116.948958 87.044997 
L 117.978328 90.832819 
L 119.049664 95.496793 
" style="fill:none;stroke:#440154;stroke-width:1.5;"/>
   </g>
   <g id="LineCollection_26">
    <path clip-path="url(#p6bcb2c9d15)" d="M 97.050083 10.999219 
L 98.042605 15.128284 
L 99.273877 19.869619 
L 100.143311 23.415206 
L 100.313339 24.033525 
" style="fill:none;stroke:#450457;stroke-width:1.5;"/>
    <path clip-path="url(#p6bcb2c9d15)" d="M 117.08054 67.23112 
L 119.049664 72.385256 
" style="fill:none;stroke:#450457;stroke-width:1.5;"/>
   </g>
   <g id="LineCollection_27">
    <path clip-path="url(#p6bcb2c9d15)" d="M 102.47927 10.999219 
L 104.344723 18.221601 
L 104.870196 19.869619 
L 106.445429 25.743984 
L 107.51968 28.740019 
L 108.546135 32.326044 
L 110.64684 37.385523 
L 110.75881 37.610419 
L 112.747546 43.560066 
L 114.633633 46.480819 
L 114.848252 47.014023 
L 116.948958 51.604426 
L 119.049664 54.434128 
" style="fill:none;stroke:#482475;stroke-width:1.5;"/>
   </g>
   <g id="LineCollection_28">
    <path clip-path="url(#p6bcb2c9d15)" d="M 108.316559 10.999219 
L 108.546135 11.834383 
L 110.64684 18.748043 
L 111.132041 19.869619 
L 112.747546 25.060678 
L 114.667232 28.740019 
L 114.848252 29.283417 
L 116.948958 35.328928 
L 118.309603 37.610419 
L 119.049664 39.640705 
" style="fill:none;stroke:#fde725;stroke-width:1.5;"/>
   </g>
   <g id="line2d_19">
    <path clip-path="url(#p6bcb2c9d15)" d="M 334.248608 113.520392 
L 328.089997 116.365699 
L 321.408582 119.283105 
L 314.816358 122.33342 
L 308.32871 125.618575 
L 301.944966 129.07097 
L 295.665912 132.559212 
L 289.485424 136.379482 
L 283.406083 140.071568 
L 277.42587 143.745258 
L 271.535857 147.722155 
L 265.737568 151.557999 
L 260.039673 155.258235 
L 254.438004 158.817917 
L 248.916086 162.488907 
L 243.491068 166.017681 
L 238.159312 169.292672 
L 232.915401 172.425781 
L 227.757275 175.455913 
L 222.69834 178.193943 
L 217.716272 180.856361 
L 212.822208 183.184057 
L 208.014819 185.351053 
L 203.288207 187.287665 
L 198.638749 189.019491 
L 194.06885 190.593242 
L 189.591179 191.688289 
L 185.176438 192.584991 
L 180.830005 193.298943 
L 176.577427 193.831962 
L 172.383973 194.016641 
L 168.278972 193.842558 
L 164.24401 193.676713 
L 160.278954 193.214042 
L 156.395608 192.185753 
L 152.567837 190.913073 
L 148.822861 189.491488 
L 145.136909 187.701155 
L 141.520183 185.75293 
L 137.969904 183.46276 
L 134.47014 180.825431 
L 131.051715 178.121849 
L 127.690793 175.246005 
L 124.385074 172.178773 
L 121.142509 169.049301 
L 117.95034 165.443406 
L 114.81946 161.779815 
L 111.744621 158.059774 
L 108.690245 153.521971 
L 105.737013 149.912178 
L 105.454539 149.824154 
L 105.168549 149.68954 
L 104.880253 149.505495 
L 104.594418 149.307705 
L 104.30878 149.094088 
L 104.023067 148.868117 
L 103.738176 148.636942 
L 103.45337 148.418123 
L 103.170563 148.181129 
L 102.888305 147.949863 
L 102.606486 147.71998 
L 102.32604 147.471979 
L 102.044619 147.240663 
L 101.763455 147.009412 
L 101.483894 146.769771 
L 101.20449 146.531884 
L 100.926247 146.318072 
L 100.648497 146.072347 
L 100.372253 145.841183 
L 100.095602 145.589784 
L 99.820812 145.356148 
L 99.545072 145.090488 
L 99.269832 144.874576 
L 98.995807 144.598694 
L 98.72255 144.371261 
L 98.695668 144.357492 
L 98.668404 144.342967 
L 98.640967 144.327851 
L 98.61358 144.31233 
L 98.586333 144.299424 
L 98.558732 144.285302 
L 98.531526 144.27188 
L 98.504326 144.259398 
L 98.476996 144.249307 
L 98.449591 144.23828 
L 98.422359 144.224133 
L 98.395214 144.208635 
L 98.368014 144.194933 
L 98.34064 144.181011 
L 98.313475 144.17045 
L 98.286333 144.156072 
L 98.259356 144.142423 
L 98.232149 144.132236 
L 98.204991 144.122923 
L 98.177722 144.112418 
L 98.150608 144.097406 
L 98.123555 144.084806 
L 98.096653 144.073903 
L 98.069603 144.065578 
" style="fill:none;stroke:#1f77b4;stroke-linecap:square;stroke-width:1.5;"/>
    <defs>
     <path d="M 0 1.5 
C 0.397805 1.5 0.77937 1.341951 1.06066 1.06066 
C 1.341951 0.77937 1.5 0.397805 1.5 0 
C 1.5 -0.397805 1.341951 -0.77937 1.06066 -1.06066 
C 0.77937 -1.341951 0.397805 -1.5 0 -1.5 
C -0.397805 -1.5 -0.77937 -1.341951 -1.06066 -1.06066 
C -1.341951 -0.77937 -1.5 -0.397805 -1.5 0 
C -1.5 0.397805 -1.341951 0.77937 -1.06066 1.06066 
C -0.77937 1.341951 -0.397805 1.5 0 1.5 
z
" id="mc8a1979ef4" style="stroke:#1f77b4;"/>
    </defs>
    <g clip-path="url(#p6bcb2c9d15)">
     <use style="fill:#1f77b4;stroke:#1f77b4;" x="334.248608" xlink:href="#mc8a1979ef4" y="113.520392"/>
     <use style="fill:#1f77b4;stroke:#1f77b4;" x="328.089997" xlink:href="#mc8a1979ef4" y="116.365699"/>
     <use style="fill:#1f77b4;stroke:#1f77b4;" x="321.408582" xlink:href="#mc8a1979ef4" y="119.283105"/>
     <use style="fill:#1f77b4;stroke:#1f77b4;" x="314.816358" xlink:href="#mc8a1979ef4" y="122.33342"/>
     <use style="fill:#1f77b4;stroke:#1f77b4;" x="308.32871" xlink:href="#mc8a1979ef4" y="125.618575"/>
     <use style="fill:#1f77b4;stroke:#1f77b4;" x="301.944966" xlink:href="#mc8a1979ef4" y="129.07097"/>
     <use style="fill:#1f77b4;stroke:#1f77b4;" x="295.665912" xlink:href="#mc8a1979ef4" y="132.559212"/>
     <use style="fill:#1f77b4;stroke:#1f77b4;" x="289.485424" xlink:href="#mc8a1979ef4" y="136.379482"/>
     <use style="fill:#1f77b4;stroke:#1f77b4;" x="283.406083" xlink:href="#mc8a1979ef4" y="140.071568"/>
     <use style="fill:#1f77b4;stroke:#1f77b4;" x="277.42587" xlink:href="#mc8a1979ef4" y="143.745258"/>
     <use style="fill:#1f77b4;stroke:#1f77b4;" x="271.535857" xlink:href="#mc8a1979ef4" y="147.722155"/>
     <use style="fill:#1f77b4;stroke:#1f77b4;" x="265.737568" xlink:href="#mc8a1979ef4" y="151.557999"/>
     <use style="fill:#1f77b4;stroke:#1f77b4;" x="260.039673" xlink:href="#mc8a1979ef4" y="155.258235"/>
     <use style="fill:#1f77b4;stroke:#1f77b4;" x="254.438004" xlink:href="#mc8a1979ef4" y="158.817917"/>
     <use style="fill:#1f77b4;stroke:#1f77b4;" x="248.916086" xlink:href="#mc8a1979ef4" y="162.488907"/>
     <use style="fill:#1f77b4;stroke:#1f77b4;" x="243.491068" xlink:href="#mc8a1979ef4" y="166.017681"/>
     <use style="fill:#1f77b4;stroke:#1f77b4;" x="238.159312" xlink:href="#mc8a1979ef4" y="169.292672"/>
     <use style="fill:#1f77b4;stroke:#1f77b4;" x="232.915401" xlink:href="#mc8a1979ef4" y="172.425781"/>
     <use style="fill:#1f77b4;stroke:#1f77b4;" x="227.757275" xlink:href="#mc8a1979ef4" y="175.455913"/>
     <use style="fill:#1f77b4;stroke:#1f77b4;" x="222.69834" xlink:href="#mc8a1979ef4" y="178.193943"/>
     <use style="fill:#1f77b4;stroke:#1f77b4;" x="217.716272" xlink:href="#mc8a1979ef4" y="180.856361"/>
     <use style="fill:#1f77b4;stroke:#1f77b4;" x="212.822208" xlink:href="#mc8a1979ef4" y="183.184057"/>
     <use style="fill:#1f77b4;stroke:#1f77b4;" x="208.014819" xlink:href="#mc8a1979ef4" y="185.351053"/>
     <use style="fill:#1f77b4;stroke:#1f77b4;" x="203.288207" xlink:href="#mc8a1979ef4" y="187.287665"/>
     <use style="fill:#1f77b4;stroke:#1f77b4;" x="198.638749" xlink:href="#mc8a1979ef4" y="189.019491"/>
     <use style="fill:#1f77b4;stroke:#1f77b4;" x="194.06885" xlink:href="#mc8a1979ef4" y="190.593242"/>
     <use style="fill:#1f77b4;stroke:#1f77b4;" x="189.591179" xlink:href="#mc8a1979ef4" y="191.688289"/>
     <use style="fill:#1f77b4;stroke:#1f77b4;" x="185.176438" xlink:href="#mc8a1979ef4" y="192.584991"/>
     <use style="fill:#1f77b4;stroke:#1f77b4;" x="180.830005" xlink:href="#mc8a1979ef4" y="193.298943"/>
     <use style="fill:#1f77b4;stroke:#1f77b4;" x="176.577427" xlink:href="#mc8a1979ef4" y="193.831962"/>
     <use style="fill:#1f77b4;stroke:#1f77b4;" x="172.383973" xlink:href="#mc8a1979ef4" y="194.016641"/>
     <use style="fill:#1f77b4;stroke:#1f77b4;" x="168.278972" xlink:href="#mc8a1979ef4" y="193.842558"/>
     <use style="fill:#1f77b4;stroke:#1f77b4;" x="164.24401" xlink:href="#mc8a1979ef4" y="193.676713"/>
     <use style="fill:#1f77b4;stroke:#1f77b4;" x="160.278954" xlink:href="#mc8a1979ef4" y="193.214042"/>
     <use style="fill:#1f77b4;stroke:#1f77b4;" x="156.395608" xlink:href="#mc8a1979ef4" y="192.185753"/>
     <use style="fill:#1f77b4;stroke:#1f77b4;" x="152.567837" xlink:href="#mc8a1979ef4" y="190.913073"/>
     <use style="fill:#1f77b4;stroke:#1f77b4;" x="148.822861" xlink:href="#mc8a1979ef4" y="189.491488"/>
     <use style="fill:#1f77b4;stroke:#1f77b4;" x="145.136909" xlink:href="#mc8a1979ef4" y="187.701155"/>
     <use style="fill:#1f77b4;stroke:#1f77b4;" x="141.520183" xlink:href="#mc8a1979ef4" y="185.75293"/>
     <use style="fill:#1f77b4;stroke:#1f77b4;" x="137.969904" xlink:href="#mc8a1979ef4" y="183.46276"/>
     <use style="fill:#1f77b4;stroke:#1f77b4;" x="134.47014" xlink:href="#mc8a1979ef4" y="180.825431"/>
     <use style="fill:#1f77b4;stroke:#1f77b4;" x="131.051715" xlink:href="#mc8a1979ef4" y="178.121849"/>
     <use style="fill:#1f77b4;stroke:#1f77b4;" x="127.690793" xlink:href="#mc8a1979ef4" y="175.246005"/>
     <use style="fill:#1f77b4;stroke:#1f77b4;" x="124.385074" xlink:href="#mc8a1979ef4" y="172.178773"/>
     <use style="fill:#1f77b4;stroke:#1f77b4;" x="121.142509" xlink:href="#mc8a1979ef4" y="169.049301"/>
     <use style="fill:#1f77b4;stroke:#1f77b4;" x="117.95034" xlink:href="#mc8a1979ef4" y="165.443406"/>
     <use style="fill:#1f77b4;stroke:#1f77b4;" x="114.81946" xlink:href="#mc8a1979ef4" y="161.779815"/>
     <use style="fill:#1f77b4;stroke:#1f77b4;" x="111.744621" xlink:href="#mc8a1979ef4" y="158.059774"/>
     <use style="fill:#1f77b4;stroke:#1f77b4;" x="108.690245" xlink:href="#mc8a1979ef4" y="153.521971"/>
     <use style="fill:#1f77b4;stroke:#1f77b4;" x="105.737013" xlink:href="#mc8a1979ef4" y="149.912178"/>
     <use style="fill:#1f77b4;stroke:#1f77b4;" x="105.454539" xlink:href="#mc8a1979ef4" y="149.824154"/>
     <use style="fill:#1f77b4;stroke:#1f77b4;" x="105.168549" xlink:href="#mc8a1979ef4" y="149.68954"/>
     <use style="fill:#1f77b4;stroke:#1f77b4;" x="104.880253" xlink:href="#mc8a1979ef4" y="149.505495"/>
     <use style="fill:#1f77b4;stroke:#1f77b4;" x="104.594418" xlink:href="#mc8a1979ef4" y="149.307705"/>
     <use style="fill:#1f77b4;stroke:#1f77b4;" x="104.30878" xlink:href="#mc8a1979ef4" y="149.094088"/>
     <use style="fill:#1f77b4;stroke:#1f77b4;" x="104.023067" xlink:href="#mc8a1979ef4" y="148.868117"/>
     <use style="fill:#1f77b4;stroke:#1f77b4;" x="103.738176" xlink:href="#mc8a1979ef4" y="148.636942"/>
     <use style="fill:#1f77b4;stroke:#1f77b4;" x="103.45337" xlink:href="#mc8a1979ef4" y="148.418123"/>
     <use style="fill:#1f77b4;stroke:#1f77b4;" x="103.170563" xlink:href="#mc8a1979ef4" y="148.181129"/>
     <use style="fill:#1f77b4;stroke:#1f77b4;" x="102.888305" xlink:href="#mc8a1979ef4" y="147.949863"/>
     <use style="fill:#1f77b4;stroke:#1f77b4;" x="102.606486" xlink:href="#mc8a1979ef4" y="147.71998"/>
     <use style="fill:#1f77b4;stroke:#1f77b4;" x="102.32604" xlink:href="#mc8a1979ef4" y="147.471979"/>
     <use style="fill:#1f77b4;stroke:#1f77b4;" x="102.044619" xlink:href="#mc8a1979ef4" y="147.240663"/>
     <use style="fill:#1f77b4;stroke:#1f77b4;" x="101.763455" xlink:href="#mc8a1979ef4" y="147.009412"/>
     <use style="fill:#1f77b4;stroke:#1f77b4;" x="101.483894" xlink:href="#mc8a1979ef4" y="146.769771"/>
     <use style="fill:#1f77b4;stroke:#1f77b4;" x="101.20449" xlink:href="#mc8a1979ef4" y="146.531884"/>
     <use style="fill:#1f77b4;stroke:#1f77b4;" x="100.926247" xlink:href="#mc8a1979ef4" y="146.318072"/>
     <use style="fill:#1f77b4;stroke:#1f77b4;" x="100.648497" xlink:href="#mc8a1979ef4" y="146.072347"/>
     <use style="fill:#1f77b4;stroke:#1f77b4;" x="100.372253" xlink:href="#mc8a1979ef4" y="145.841183"/>
     <use style="fill:#1f77b4;stroke:#1f77b4;" x="100.095602" xlink:href="#mc8a1979ef4" y="145.589784"/>
     <use style="fill:#1f77b4;stroke:#1f77b4;" x="99.820812" xlink:href="#mc8a1979ef4" y="145.356148"/>
     <use style="fill:#1f77b4;stroke:#1f77b4;" x="99.545072" xlink:href="#mc8a1979ef4" y="145.090488"/>
     <use style="fill:#1f77b4;stroke:#1f77b4;" x="99.269832" xlink:href="#mc8a1979ef4" y="144.874576"/>
     <use style="fill:#1f77b4;stroke:#1f77b4;" x="98.995807" xlink:href="#mc8a1979ef4" y="144.598694"/>
     <use style="fill:#1f77b4;stroke:#1f77b4;" x="98.72255" xlink:href="#mc8a1979ef4" y="144.371261"/>
     <use style="fill:#1f77b4;stroke:#1f77b4;" x="98.695668" xlink:href="#mc8a1979ef4" y="144.357492"/>
     <use style="fill:#1f77b4;stroke:#1f77b4;" x="98.668404" xlink:href="#mc8a1979ef4" y="144.342967"/>
     <use style="fill:#1f77b4;stroke:#1f77b4;" x="98.640967" xlink:href="#mc8a1979ef4" y="144.327851"/>
     <use style="fill:#1f77b4;stroke:#1f77b4;" x="98.61358" xlink:href="#mc8a1979ef4" y="144.31233"/>
     <use style="fill:#1f77b4;stroke:#1f77b4;" x="98.586333" xlink:href="#mc8a1979ef4" y="144.299424"/>
     <use style="fill:#1f77b4;stroke:#1f77b4;" x="98.558732" xlink:href="#mc8a1979ef4" y="144.285302"/>
     <use style="fill:#1f77b4;stroke:#1f77b4;" x="98.531526" xlink:href="#mc8a1979ef4" y="144.27188"/>
     <use style="fill:#1f77b4;stroke:#1f77b4;" x="98.504326" xlink:href="#mc8a1979ef4" y="144.259398"/>
     <use style="fill:#1f77b4;stroke:#1f77b4;" x="98.476996" xlink:href="#mc8a1979ef4" y="144.249307"/>
     <use style="fill:#1f77b4;stroke:#1f77b4;" x="98.449591" xlink:href="#mc8a1979ef4" y="144.23828"/>
     <use style="fill:#1f77b4;stroke:#1f77b4;" x="98.422359" xlink:href="#mc8a1979ef4" y="144.224133"/>
     <use style="fill:#1f77b4;stroke:#1f77b4;" x="98.395214" xlink:href="#mc8a1979ef4" y="144.208635"/>
     <use style="fill:#1f77b4;stroke:#1f77b4;" x="98.368014" xlink:href="#mc8a1979ef4" y="144.194933"/>
     <use style="fill:#1f77b4;stroke:#1f77b4;" x="98.34064" xlink:href="#mc8a1979ef4" y="144.181011"/>
     <use style="fill:#1f77b4;stroke:#1f77b4;" x="98.313475" xlink:href="#mc8a1979ef4" y="144.17045"/>
     <use style="fill:#1f77b4;stroke:#1f77b4;" x="98.286333" xlink:href="#mc8a1979ef4" y="144.156072"/>
     <use style="fill:#1f77b4;stroke:#1f77b4;" x="98.259356" xlink:href="#mc8a1979ef4" y="144.142423"/>
     <use style="fill:#1f77b4;stroke:#1f77b4;" x="98.232149" xlink:href="#mc8a1979ef4" y="144.132236"/>
     <use style="fill:#1f77b4;stroke:#1f77b4;" x="98.204991" xlink:href="#mc8a1979ef4" y="144.122923"/>
     <use style="fill:#1f77b4;stroke:#1f77b4;" x="98.177722" xlink:href="#mc8a1979ef4" y="144.112418"/>
     <use style="fill:#1f77b4;stroke:#1f77b4;" x="98.150608" xlink:href="#mc8a1979ef4" y="144.097406"/>
     <use style="fill:#1f77b4;stroke:#1f77b4;" x="98.123555" xlink:href="#mc8a1979ef4" y="144.084806"/>
     <use style="fill:#1f77b4;stroke:#1f77b4;" x="98.096653" xlink:href="#mc8a1979ef4" y="144.073903"/>
     <use style="fill:#1f77b4;stroke:#1f77b4;" x="98.069603" xlink:href="#mc8a1979ef4" y="144.065578"/>
    </g>
   </g>
   <g id="patch_3">
    <path d="M 56.028488 277.111219 
L 56.028488 10.999219 
" style="fill:none;stroke:#000000;stroke-linecap:square;stroke-linejoin:miter;stroke-width:0.8;"/>
   </g>
   <g id="patch_4">
    <path d="M 413.148488 277.111219 
L 413.148488 10.999219 
" style="fill:none;stroke:#000000;stroke-linecap:square;stroke-linejoin:miter;stroke-width:0.8;"/>
   </g>
   <g id="patch_5">
    <path d="M 56.028488 277.111219 
L 413.148488 277.111219 
" style="fill:none;stroke:#000000;stroke-linecap:square;stroke-linejoin:miter;stroke-width:0.8;"/>
   </g>
   <g id="patch_6">
    <path d="M 56.028488 10.999219 
L 413.148488 10.999219 
" style="fill:none;stroke:#000000;stroke-linecap:square;stroke-linejoin:miter;stroke-width:0.8;"/>
   </g>
   <g id="text_21">
    <g clip-path="url(#p6bcb2c9d15)">
     <!-- 1.000 -->
     <g style="fill:#482576;" transform="translate(91.904899 135.474223)rotate(-270.254609)scale(0.06 -0.06)">
      <use xlink:href="#DejaVuSans-49"/>
      <use x="63.623047" xlink:href="#DejaVuSans-46"/>
      <use x="95.410156" xlink:href="#DejaVuSans-48"/>
      <use x="159.033203" xlink:href="#DejaVuSans-48"/>
      <use x="222.65625" xlink:href="#DejaVuSans-48"/>
     </g>
    </g>
   </g>
   <g id="text_22">
    <g clip-path="url(#p6bcb2c9d15)">
     <!-- 1.500 -->
     <g style="fill:#453781;" transform="translate(99.982659 206.024138)rotate(-79.268437)scale(0.06 -0.06)">
      <use xlink:href="#DejaVuSans-49"/>
      <use x="63.623047" xlink:href="#DejaVuSans-46"/>
      <use x="95.410156" xlink:href="#DejaVuSans-53"/>
      <use x="159.033203" xlink:href="#DejaVuSans-48"/>
      <use x="222.65625" xlink:href="#DejaVuSans-48"/>
     </g>
    </g>
   </g>
   <g id="text_23">
    <g clip-path="url(#p6bcb2c9d15)">
     <!-- 2.000 -->
     <g style="fill:#404688;" transform="translate(76.300044 243.010879)rotate(-312.661864)scale(0.06 -0.06)">
      <use xlink:href="#DejaVuSans-50"/>
      <use x="63.623047" xlink:href="#DejaVuSans-46"/>
      <use x="95.410156" xlink:href="#DejaVuSans-48"/>
      <use x="159.033203" xlink:href="#DejaVuSans-48"/>
      <use x="222.65625" xlink:href="#DejaVuSans-48"/>
     </g>
    </g>
   </g>
   <g id="text_24">
    <g clip-path="url(#p6bcb2c9d15)">
     <!-- 2.500 -->
     <g style="fill:#39558c;" transform="translate(70.787703 232.633459)rotate(-77.887413)scale(0.06 -0.06)">
      <use xlink:href="#DejaVuSans-50"/>
      <use x="63.623047" xlink:href="#DejaVuSans-46"/>
      <use x="95.410156" xlink:href="#DejaVuSans-53"/>
      <use x="159.033203" xlink:href="#DejaVuSans-48"/>
      <use x="222.65625" xlink:href="#DejaVuSans-48"/>
     </g>
    </g>
   </g>
   <g id="text_25">
    <g clip-path="url(#p6bcb2c9d15)">
     <!-- 2.500 -->
     <g style="fill:#39558c;" transform="translate(77.292803 46.113466)rotate(-285.892592)scale(0.06 -0.06)">
      <use xlink:href="#DejaVuSans-50"/>
      <use x="63.623047" xlink:href="#DejaVuSans-46"/>
      <use x="95.410156" xlink:href="#DejaVuSans-53"/>
      <use x="159.033203" xlink:href="#DejaVuSans-48"/>
      <use x="222.65625" xlink:href="#DejaVuSans-48"/>
     </g>
    </g>
   </g>
   <g id="text_26">
    <g clip-path="url(#p6bcb2c9d15)">
     <!-- 3.000 -->
     <g style="fill:#33638d;" transform="translate(107.65449 179.329347)rotate(-87.018426)scale(0.06 -0.06)">
      <defs>
       <path d="M 40.578125 39.3125 
Q 47.65625 37.796875 51.625 33 
Q 55.609375 28.21875 55.609375 21.1875 
Q 55.609375 10.40625 48.1875 4.484375 
Q 40.765625 -1.421875 27.09375 -1.421875 
Q 22.515625 -1.421875 17.65625 -0.515625 
Q 12.796875 0.390625 7.625 2.203125 
L 7.625 11.71875 
Q 11.71875 9.328125 16.59375 8.109375 
Q 21.484375 6.890625 26.8125 6.890625 
Q 36.078125 6.890625 40.9375 10.546875 
Q 45.796875 14.203125 45.796875 21.1875 
Q 45.796875 27.640625 41.28125 31.265625 
Q 36.765625 34.90625 28.71875 34.90625 
L 20.21875 34.90625 
L 20.21875 43.015625 
L 29.109375 43.015625 
Q 36.375 43.015625 40.234375 45.921875 
Q 44.09375 48.828125 44.09375 54.296875 
Q 44.09375 59.90625 40.109375 62.90625 
Q 36.140625 65.921875 28.71875 65.921875 
Q 24.65625 65.921875 20.015625 65.03125 
Q 15.375 64.15625 9.8125 62.3125 
L 9.8125 71.09375 
Q 15.4375 72.65625 20.34375 73.4375 
Q 25.25 74.21875 29.59375 74.21875 
Q 40.828125 74.21875 47.359375 69.109375 
Q 53.90625 64.015625 53.90625 55.328125 
Q 53.90625 49.265625 50.4375 45.09375 
Q 46.96875 40.921875 40.578125 39.3125 
z
" id="DejaVuSans-51"/>
      </defs>
      <use xlink:href="#DejaVuSans-51"/>
      <use x="63.623047" xlink:href="#DejaVuSans-46"/>
      <use x="95.410156" xlink:href="#DejaVuSans-48"/>
      <use x="159.033203" xlink:href="#DejaVuSans-48"/>
      <use x="222.65625" xlink:href="#DejaVuSans-48"/>
     </g>
    </g>
   </g>
   <g id="text_27">
    <g clip-path="url(#p6bcb2c9d15)">
     <!-- 3.500 -->
     <g style="fill:#2d718e;" transform="translate(67.746523 12.363084)rotate(-289.97065)scale(0.06 -0.06)">
      <use xlink:href="#DejaVuSans-51"/>
      <use x="63.623047" xlink:href="#DejaVuSans-46"/>
      <use x="95.410156" xlink:href="#DejaVuSans-53"/>
      <use x="159.033203" xlink:href="#DejaVuSans-48"/>
      <use x="222.65625" xlink:href="#DejaVuSans-48"/>
     </g>
    </g>
   </g>
   <g id="text_28">
    <g clip-path="url(#p6bcb2c9d15)">
     <!-- 4.000 -->
     <g style="fill:#287d8e;" transform="translate(80.36419 47.481465)rotate(-284.962991)scale(0.06 -0.06)">
      <use xlink:href="#DejaVuSans-52"/>
      <use x="63.623047" xlink:href="#DejaVuSans-46"/>
      <use x="95.410156" xlink:href="#DejaVuSans-48"/>
      <use x="159.033203" xlink:href="#DejaVuSans-48"/>
      <use x="222.65625" xlink:href="#DejaVuSans-48"/>
     </g>
    </g>
   </g>
   <g id="text_29">
    <g clip-path="url(#p6bcb2c9d15)">
     <!-- 4.500 -->
     <g style="fill:#238a8d;" transform="translate(80.747613 47.499221)rotate(-285.228252)scale(0.06 -0.06)">
      <use xlink:href="#DejaVuSans-52"/>
      <use x="63.623047" xlink:href="#DejaVuSans-46"/>
      <use x="95.410156" xlink:href="#DejaVuSans-53"/>
      <use x="159.033203" xlink:href="#DejaVuSans-48"/>
      <use x="222.65625" xlink:href="#DejaVuSans-48"/>
     </g>
    </g>
   </g>
   <g id="text_30">
    <g clip-path="url(#p6bcb2c9d15)">
     <!-- 5.000 -->
     <g style="fill:#1f968b;" transform="translate(81.131104 47.517152)rotate(-285.493616)scale(0.06 -0.06)">
      <use xlink:href="#DejaVuSans-53"/>
      <use x="63.623047" xlink:href="#DejaVuSans-46"/>
      <use x="95.410156" xlink:href="#DejaVuSans-48"/>
      <use x="159.033203" xlink:href="#DejaVuSans-48"/>
      <use x="222.65625" xlink:href="#DejaVuSans-48"/>
     </g>
    </g>
   </g>
   <g id="text_31">
    <g clip-path="url(#p6bcb2c9d15)">
     <!-- 5.500 -->
     <g style="fill:#20a386;" transform="translate(81.53013 47.524449)rotate(-285.629309)scale(0.06 -0.06)">
      <use xlink:href="#DejaVuSans-53"/>
      <use x="63.623047" xlink:href="#DejaVuSans-46"/>
      <use x="95.410156" xlink:href="#DejaVuSans-53"/>
      <use x="159.033203" xlink:href="#DejaVuSans-48"/>
      <use x="222.65625" xlink:href="#DejaVuSans-48"/>
     </g>
    </g>
   </g>
   <g id="text_32">
    <g clip-path="url(#p6bcb2c9d15)">
     <!-- 6.000 -->
     <g style="fill:#29af7f;" transform="translate(81.727731 47.475909)rotate(-284.879462)scale(0.06 -0.06)">
      <use xlink:href="#DejaVuSans-54"/>
      <use x="63.623047" xlink:href="#DejaVuSans-46"/>
      <use x="95.410156" xlink:href="#DejaVuSans-48"/>
      <use x="159.033203" xlink:href="#DejaVuSans-48"/>
      <use x="222.65625" xlink:href="#DejaVuSans-48"/>
     </g>
    </g>
   </g>
   <g id="text_33">
    <g clip-path="url(#p6bcb2c9d15)">
     <!-- 6.500 -->
     <g style="fill:#3dbc74;" transform="translate(81.927286 47.425937)rotate(-284.116555)scale(0.06 -0.06)">
      <use xlink:href="#DejaVuSans-54"/>
      <use x="63.623047" xlink:href="#DejaVuSans-46"/>
      <use x="95.410156" xlink:href="#DejaVuSans-53"/>
      <use x="159.033203" xlink:href="#DejaVuSans-48"/>
      <use x="222.65625" xlink:href="#DejaVuSans-48"/>
     </g>
    </g>
   </g>
   <g id="text_34">
    <g clip-path="url(#p6bcb2c9d15)">
     <!-- 7.000 -->
     <g style="fill:#56c667;" transform="translate(82.068515 47.404222)rotate(-283.77817)scale(0.06 -0.06)">
      <defs>
       <path d="M 8.203125 72.90625 
L 55.078125 72.90625 
L 55.078125 68.703125 
L 28.609375 0 
L 18.3125 0 
L 43.21875 64.59375 
L 8.203125 64.59375 
z
" id="DejaVuSans-55"/>
      </defs>
      <use xlink:href="#DejaVuSans-55"/>
      <use x="63.623047" xlink:href="#DejaVuSans-46"/>
      <use x="95.410156" xlink:href="#DejaVuSans-48"/>
      <use x="159.033203" xlink:href="#DejaVuSans-48"/>
      <use x="222.65625" xlink:href="#DejaVuSans-48"/>
     </g>
    </g>
   </g>
   <g id="text_35">
    <g clip-path="url(#p6bcb2c9d15)">
     <!-- 7.500 -->
     <g style="fill:#75d054;" transform="translate(82.175862 47.398264)rotate(-283.68456)scale(0.06 -0.06)">
      <use xlink:href="#DejaVuSans-55"/>
      <use x="63.623047" xlink:href="#DejaVuSans-46"/>
      <use x="95.410156" xlink:href="#DejaVuSans-53"/>
      <use x="159.033203" xlink:href="#DejaVuSans-48"/>
      <use x="222.65625" xlink:href="#DejaVuSans-48"/>
     </g>
    </g>
   </g>
   <g id="text_36">
    <g clip-path="url(#p6bcb2c9d15)">
     <!-- 8.000 -->
     <g style="fill:#95d840;" transform="translate(82.283221 47.392326)rotate(-283.590938)scale(0.06 -0.06)">
      <use xlink:href="#DejaVuSans-56"/>
      <use x="63.623047" xlink:href="#DejaVuSans-46"/>
      <use x="95.410156" xlink:href="#DejaVuSans-48"/>
      <use x="159.033203" xlink:href="#DejaVuSans-48"/>
      <use x="222.65625" xlink:href="#DejaVuSans-48"/>
     </g>
    </g>
   </g>
   <g id="text_37">
    <g clip-path="url(#p6bcb2c9d15)">
     <!-- 8.500 -->
     <g style="fill:#bade28;" transform="translate(82.390591 47.386408)rotate(-283.497304)scale(0.06 -0.06)">
      <use xlink:href="#DejaVuSans-56"/>
      <use x="63.623047" xlink:href="#DejaVuSans-46"/>
      <use x="95.410156" xlink:href="#DejaVuSans-53"/>
      <use x="159.033203" xlink:href="#DejaVuSans-48"/>
      <use x="222.65625" xlink:href="#DejaVuSans-48"/>
     </g>
    </g>
   </g>
   <g id="text_38">
    <g clip-path="url(#p6bcb2c9d15)">
     <!-- 9.000 -->
     <g style="fill:#dde318;" transform="translate(82.497972 47.380511)rotate(-283.403659)scale(0.06 -0.06)">
      <use xlink:href="#DejaVuSans-57"/>
      <use x="63.623047" xlink:href="#DejaVuSans-46"/>
      <use x="95.410156" xlink:href="#DejaVuSans-48"/>
      <use x="159.033203" xlink:href="#DejaVuSans-48"/>
      <use x="222.65625" xlink:href="#DejaVuSans-48"/>
     </g>
    </g>
   </g>
   <g id="text_39">
    <g clip-path="url(#p6bcb2c9d15)">
     <!-- 9.500 -->
     <g style="fill:#fde725;" transform="translate(82.605365 47.374635)rotate(-283.310003)scale(0.06 -0.06)">
      <use xlink:href="#DejaVuSans-57"/>
      <use x="63.623047" xlink:href="#DejaVuSans-46"/>
      <use x="95.410156" xlink:href="#DejaVuSans-53"/>
      <use x="159.033203" xlink:href="#DejaVuSans-48"/>
      <use x="222.65625" xlink:href="#DejaVuSans-48"/>
     </g>
    </g>
   </g>
   <g id="text_40">
    <g clip-path="url(#p6bcb2c9d15)">
     <!-- 10.000 -->
     <g style="fill:#440154;" transform="translate(84.299227 54.310285)rotate(-282.183707)scale(0.06 -0.06)">
      <use xlink:href="#DejaVuSans-49"/>
      <use x="63.623047" xlink:href="#DejaVuSans-48"/>
      <use x="127.246094" xlink:href="#DejaVuSans-46"/>
      <use x="159.033203" xlink:href="#DejaVuSans-48"/>
      <use x="222.65625" xlink:href="#DejaVuSans-48"/>
      <use x="286.279297" xlink:href="#DejaVuSans-48"/>
     </g>
    </g>
   </g>
   <g id="text_41">
    <g clip-path="url(#p6bcb2c9d15)">
     <!-- 100.000 -->
     <g style="fill:#440154;" transform="translate(99.915416 271.798532)rotate(-75.607507)scale(0.06 -0.06)">
      <use xlink:href="#DejaVuSans-49"/>
      <use x="63.623047" xlink:href="#DejaVuSans-48"/>
      <use x="127.246094" xlink:href="#DejaVuSans-48"/>
      <use x="190.869141" xlink:href="#DejaVuSans-46"/>
      <use x="222.65625" xlink:href="#DejaVuSans-48"/>
      <use x="286.279297" xlink:href="#DejaVuSans-48"/>
      <use x="349.902344" xlink:href="#DejaVuSans-48"/>
     </g>
    </g>
   </g>
   <g id="text_42">
    <g clip-path="url(#p6bcb2c9d15)">
     <!-- 1000.000 -->
     <g style="fill:#440154;" transform="translate(79.592449 10.695293)rotate(-287.336393)scale(0.06 -0.06)">
      <use xlink:href="#DejaVuSans-49"/>
      <use x="63.623047" xlink:href="#DejaVuSans-48"/>
      <use x="127.246094" xlink:href="#DejaVuSans-48"/>
      <use x="190.869141" xlink:href="#DejaVuSans-48"/>
      <use x="254.492188" xlink:href="#DejaVuSans-46"/>
      <use x="286.279297" xlink:href="#DejaVuSans-48"/>
      <use x="349.902344" xlink:href="#DejaVuSans-48"/>
      <use x="413.525391" xlink:href="#DejaVuSans-48"/>
     </g>
    </g>
   </g>
   <g id="text_43">
    <g clip-path="url(#p6bcb2c9d15)">
     <!-- 10000.000 -->
     <g style="fill:#440154;" transform="translate(95.025602 55.457044)rotate(-290.445405)scale(0.06 -0.06)">
      <use xlink:href="#DejaVuSans-49"/>
      <use x="63.623047" xlink:href="#DejaVuSans-48"/>
      <use x="127.246094" xlink:href="#DejaVuSans-48"/>
      <use x="190.869141" xlink:href="#DejaVuSans-48"/>
      <use x="254.492188" xlink:href="#DejaVuSans-48"/>
      <use x="318.115234" xlink:href="#DejaVuSans-46"/>
      <use x="349.902344" xlink:href="#DejaVuSans-48"/>
      <use x="413.525391" xlink:href="#DejaVuSans-48"/>
      <use x="477.148438" xlink:href="#DejaVuSans-48"/>
     </g>
    </g>
   </g>
   <g id="text_44">
    <g clip-path="url(#p6bcb2c9d15)">
     <!-- 100000.000 -->
     <g style="fill:#440154;" transform="translate(96.284034 41.921786)rotate(-291.059768)scale(0.06 -0.06)">
      <use xlink:href="#DejaVuSans-49"/>
      <use x="63.623047" xlink:href="#DejaVuSans-48"/>
      <use x="127.246094" xlink:href="#DejaVuSans-48"/>
      <use x="190.869141" xlink:href="#DejaVuSans-48"/>
      <use x="254.492188" xlink:href="#DejaVuSans-48"/>
      <use x="318.115234" xlink:href="#DejaVuSans-48"/>
      <use x="381.738281" xlink:href="#DejaVuSans-46"/>
      <use x="413.525391" xlink:href="#DejaVuSans-48"/>
      <use x="477.148438" xlink:href="#DejaVuSans-48"/>
      <use x="540.771484" xlink:href="#DejaVuSans-48"/>
     </g>
    </g>
   </g>
   <g id="text_45">
    <g clip-path="url(#p6bcb2c9d15)">
     <!-- 1000000.000 -->
     <g style="fill:#450457;" transform="translate(97.998978 28.443901)rotate(-291.517621)scale(0.06 -0.06)">
      <use xlink:href="#DejaVuSans-49"/>
      <use x="63.623047" xlink:href="#DejaVuSans-48"/>
      <use x="127.246094" xlink:href="#DejaVuSans-48"/>
      <use x="190.869141" xlink:href="#DejaVuSans-48"/>
      <use x="254.492188" xlink:href="#DejaVuSans-48"/>
      <use x="318.115234" xlink:href="#DejaVuSans-48"/>
      <use x="381.738281" xlink:href="#DejaVuSans-48"/>
      <use x="445.361328" xlink:href="#DejaVuSans-46"/>
      <use x="477.148438" xlink:href="#DejaVuSans-48"/>
      <use x="540.771484" xlink:href="#DejaVuSans-48"/>
      <use x="604.394531" xlink:href="#DejaVuSans-48"/>
     </g>
    </g>
   </g>
  </g>
 </g>
 <defs>
  <clipPath id="p6bcb2c9d15">
   <rect height="266.112" width="357.12" x="56.028488" y="10.999219"/>
  </clipPath>
 </defs>
</svg>
