<?xml version="1.0" encoding="utf-8" standalone="no"?>
<!DOCTYPE svg PUBLIC "-//W3C//DTD SVG 1.1//EN"
  "http://www.w3.org/Graphics/SVG/1.1/DTD/svg11.dtd">
<!-- Created with matplotlib (https://matplotlib.org/) -->
<svg height="321.713144pt" version="1.1" viewBox="0 0 420.348487 321.713144" width="420.348487pt" xmlns="http://www.w3.org/2000/svg" xmlns:xlink="http://www.w3.org/1999/xlink">
 <metadata>
  <rdf:RDF xmlns:cc="http://creativecommons.org/ns#" xmlns:dc="http://purl.org/dc/elements/1.1/" xmlns:rdf="http://www.w3.org/1999/02/22-rdf-syntax-ns#">
   <cc:Work>
    <dc:type rdf:resource="http://purl.org/dc/dcmitype/StillImage"/>
    <dc:date>2021-09-21T23:35:35.903428</dc:date>
    <dc:format>image/svg+xml</dc:format>
    <dc:creator>
     <cc:Agent>
      <dc:title>Matplotlib v3.3.1, https://matplotlib.org/</dc:title>
     </cc:Agent>
    </dc:creator>
   </cc:Work>
  </rdf:RDF>
 </metadata>
 <defs>
  <style type="text/css">*{stroke-linecap:butt;stroke-linejoin:round;}</style>
 </defs>
 <g id="figure_1">
  <g id="patch_1">
   <path d="M 0 321.713144 
L 420.348487 321.713144 
L 420.348487 0 
L 0 0 
z
" style="fill:#ffffff;"/>
  </g>
  <g id="axes_1">
   <g id="patch_2">
    <path d="M 56.028488 277.111219 
L 413.148488 277.111219 
L 413.148488 10.999219 
L 56.028488 10.999219 
z
" style="fill:#ffffff;"/>
   </g>
   <g id="matplotlib.axis_1">
    <g id="xtick_1">
     <g id="line2d_1">
      <defs>
       <path d="M 0 0 
L 0 3.5 
" id="md32fc161db" style="stroke:#000000;stroke-width:0.8;"/>
      </defs>
      <g>
       <use style="stroke:#000000;stroke-width:0.8;" x="56.028488" xlink:href="#md32fc161db" y="277.111219"/>
      </g>
     </g>
     <g id="text_1">
      <!-- −20 -->
      <g transform="translate(45.476144 291.709656)scale(0.1 -0.1)">
       <defs>
        <path d="M 10.59375 35.5 
L 73.1875 35.5 
L 73.1875 27.203125 
L 10.59375 27.203125 
z
" id="DejaVuSans-8722"/>
        <path d="M 19.1875 8.296875 
L 53.609375 8.296875 
L 53.609375 0 
L 7.328125 0 
L 7.328125 8.296875 
Q 12.9375 14.109375 22.625 23.890625 
Q 32.328125 33.6875 34.8125 36.53125 
Q 39.546875 41.84375 41.421875 45.53125 
Q 43.3125 49.21875 43.3125 52.78125 
Q 43.3125 58.59375 39.234375 62.25 
Q 35.15625 65.921875 28.609375 65.921875 
Q 23.96875 65.921875 18.8125 64.3125 
Q 13.671875 62.703125 7.8125 59.421875 
L 7.8125 69.390625 
Q 13.765625 71.78125 18.9375 73 
Q 24.125 74.21875 28.421875 74.21875 
Q 39.75 74.21875 46.484375 68.546875 
Q 53.21875 62.890625 53.21875 53.421875 
Q 53.21875 48.921875 51.53125 44.890625 
Q 49.859375 40.875 45.40625 35.40625 
Q 44.1875 33.984375 37.640625 27.21875 
Q 31.109375 20.453125 19.1875 8.296875 
z
" id="DejaVuSans-50"/>
        <path d="M 31.78125 66.40625 
Q 24.171875 66.40625 20.328125 58.90625 
Q 16.5 51.421875 16.5 36.375 
Q 16.5 21.390625 20.328125 13.890625 
Q 24.171875 6.390625 31.78125 6.390625 
Q 39.453125 6.390625 43.28125 13.890625 
Q 47.125 21.390625 47.125 36.375 
Q 47.125 51.421875 43.28125 58.90625 
Q 39.453125 66.40625 31.78125 66.40625 
z
M 31.78125 74.21875 
Q 44.046875 74.21875 50.515625 64.515625 
Q 56.984375 54.828125 56.984375 36.375 
Q 56.984375 17.96875 50.515625 8.265625 
Q 44.046875 -1.421875 31.78125 -1.421875 
Q 19.53125 -1.421875 13.0625 8.265625 
Q 6.59375 17.96875 6.59375 36.375 
Q 6.59375 54.828125 13.0625 64.515625 
Q 19.53125 74.21875 31.78125 74.21875 
z
" id="DejaVuSans-48"/>
       </defs>
       <use xlink:href="#DejaVuSans-8722"/>
       <use x="83.789062" xlink:href="#DejaVuSans-50"/>
       <use x="147.412109" xlink:href="#DejaVuSans-48"/>
      </g>
     </g>
    </g>
    <g id="xtick_2">
     <g id="line2d_2">
      <g>
       <use style="stroke:#000000;stroke-width:0.8;" x="98.042605" xlink:href="#md32fc161db" y="277.111219"/>
      </g>
     </g>
     <g id="text_2">
      <!-- 0 -->
      <g transform="translate(94.861355 291.709656)scale(0.1 -0.1)">
       <use xlink:href="#DejaVuSans-48"/>
      </g>
     </g>
    </g>
    <g id="xtick_3">
     <g id="line2d_3">
      <g>
       <use style="stroke:#000000;stroke-width:0.8;" x="140.056723" xlink:href="#md32fc161db" y="277.111219"/>
      </g>
     </g>
     <g id="text_3">
      <!-- 20 -->
      <g transform="translate(133.694223 291.709656)scale(0.1 -0.1)">
       <use xlink:href="#DejaVuSans-50"/>
       <use x="63.623047" xlink:href="#DejaVuSans-48"/>
      </g>
     </g>
    </g>
    <g id="xtick_4">
     <g id="line2d_4">
      <g>
       <use style="stroke:#000000;stroke-width:0.8;" x="182.07084" xlink:href="#md32fc161db" y="277.111219"/>
      </g>
     </g>
     <g id="text_4">
      <!-- 40 -->
      <g transform="translate(175.70834 291.709656)scale(0.1 -0.1)">
       <defs>
        <path d="M 37.796875 64.3125 
L 12.890625 25.390625 
L 37.796875 25.390625 
z
M 35.203125 72.90625 
L 47.609375 72.90625 
L 47.609375 25.390625 
L 58.015625 25.390625 
L 58.015625 17.1875 
L 47.609375 17.1875 
L 47.609375 0 
L 37.796875 0 
L 37.796875 17.1875 
L 4.890625 17.1875 
L 4.890625 26.703125 
z
" id="DejaVuSans-52"/>
       </defs>
       <use xlink:href="#DejaVuSans-52"/>
       <use x="63.623047" xlink:href="#DejaVuSans-48"/>
      </g>
     </g>
    </g>
    <g id="xtick_5">
     <g id="line2d_5">
      <g>
       <use style="stroke:#000000;stroke-width:0.8;" x="224.084958" xlink:href="#md32fc161db" y="277.111219"/>
      </g>
     </g>
     <g id="text_5">
      <!-- 60 -->
      <g transform="translate(217.722458 291.709656)scale(0.1 -0.1)">
       <defs>
        <path d="M 33.015625 40.375 
Q 26.375 40.375 22.484375 35.828125 
Q 18.609375 31.296875 18.609375 23.390625 
Q 18.609375 15.53125 22.484375 10.953125 
Q 26.375 6.390625 33.015625 6.390625 
Q 39.65625 6.390625 43.53125 10.953125 
Q 47.40625 15.53125 47.40625 23.390625 
Q 47.40625 31.296875 43.53125 35.828125 
Q 39.65625 40.375 33.015625 40.375 
z
M 52.59375 71.296875 
L 52.59375 62.3125 
Q 48.875 64.0625 45.09375 64.984375 
Q 41.3125 65.921875 37.59375 65.921875 
Q 27.828125 65.921875 22.671875 59.328125 
Q 17.53125 52.734375 16.796875 39.40625 
Q 19.671875 43.65625 24.015625 45.921875 
Q 28.375 48.1875 33.59375 48.1875 
Q 44.578125 48.1875 50.953125 41.515625 
Q 57.328125 34.859375 57.328125 23.390625 
Q 57.328125 12.15625 50.6875 5.359375 
Q 44.046875 -1.421875 33.015625 -1.421875 
Q 20.359375 -1.421875 13.671875 8.265625 
Q 6.984375 17.96875 6.984375 36.375 
Q 6.984375 53.65625 15.1875 63.9375 
Q 23.390625 74.21875 37.203125 74.21875 
Q 40.921875 74.21875 44.703125 73.484375 
Q 48.484375 72.75 52.59375 71.296875 
z
" id="DejaVuSans-54"/>
       </defs>
       <use xlink:href="#DejaVuSans-54"/>
       <use x="63.623047" xlink:href="#DejaVuSans-48"/>
      </g>
     </g>
    </g>
    <g id="xtick_6">
     <g id="line2d_6">
      <g>
       <use style="stroke:#000000;stroke-width:0.8;" x="266.099076" xlink:href="#md32fc161db" y="277.111219"/>
      </g>
     </g>
     <g id="text_6">
      <!-- 80 -->
      <g transform="translate(259.736576 291.709656)scale(0.1 -0.1)">
       <defs>
        <path d="M 31.78125 34.625 
Q 24.75 34.625 20.71875 30.859375 
Q 16.703125 27.09375 16.703125 20.515625 
Q 16.703125 13.921875 20.71875 10.15625 
Q 24.75 6.390625 31.78125 6.390625 
Q 38.8125 6.390625 42.859375 10.171875 
Q 46.921875 13.96875 46.921875 20.515625 
Q 46.921875 27.09375 42.890625 30.859375 
Q 38.875 34.625 31.78125 34.625 
z
M 21.921875 38.8125 
Q 15.578125 40.375 12.03125 44.71875 
Q 8.5 49.078125 8.5 55.328125 
Q 8.5 64.0625 14.71875 69.140625 
Q 20.953125 74.21875 31.78125 74.21875 
Q 42.671875 74.21875 48.875 69.140625 
Q 55.078125 64.0625 55.078125 55.328125 
Q 55.078125 49.078125 51.53125 44.71875 
Q 48 40.375 41.703125 38.8125 
Q 48.828125 37.15625 52.796875 32.3125 
Q 56.78125 27.484375 56.78125 20.515625 
Q 56.78125 9.90625 50.3125 4.234375 
Q 43.84375 -1.421875 31.78125 -1.421875 
Q 19.734375 -1.421875 13.25 4.234375 
Q 6.78125 9.90625 6.78125 20.515625 
Q 6.78125 27.484375 10.78125 32.3125 
Q 14.796875 37.15625 21.921875 38.8125 
z
M 18.3125 54.390625 
Q 18.3125 48.734375 21.84375 45.5625 
Q 25.390625 42.390625 31.78125 42.390625 
Q 38.140625 42.390625 41.71875 45.5625 
Q 45.3125 48.734375 45.3125 54.390625 
Q 45.3125 60.0625 41.71875 63.234375 
Q 38.140625 66.40625 31.78125 66.40625 
Q 25.390625 66.40625 21.84375 63.234375 
Q 18.3125 60.0625 18.3125 54.390625 
z
" id="DejaVuSans-56"/>
       </defs>
       <use xlink:href="#DejaVuSans-56"/>
       <use x="63.623047" xlink:href="#DejaVuSans-48"/>
      </g>
     </g>
    </g>
    <g id="xtick_7">
     <g id="line2d_7">
      <g>
       <use style="stroke:#000000;stroke-width:0.8;" x="308.113193" xlink:href="#md32fc161db" y="277.111219"/>
      </g>
     </g>
     <g id="text_7">
      <!-- 100 -->
      <g transform="translate(298.569443 291.709656)scale(0.1 -0.1)">
       <defs>
        <path d="M 12.40625 8.296875 
L 28.515625 8.296875 
L 28.515625 63.921875 
L 10.984375 60.40625 
L 10.984375 69.390625 
L 28.421875 72.90625 
L 38.28125 72.90625 
L 38.28125 8.296875 
L 54.390625 8.296875 
L 54.390625 0 
L 12.40625 0 
z
" id="DejaVuSans-49"/>
       </defs>
       <use xlink:href="#DejaVuSans-49"/>
       <use x="63.623047" xlink:href="#DejaVuSans-48"/>
       <use x="127.246094" xlink:href="#DejaVuSans-48"/>
      </g>
     </g>
    </g>
    <g id="xtick_8">
     <g id="line2d_8">
      <g>
       <use style="stroke:#000000;stroke-width:0.8;" x="350.127311" xlink:href="#md32fc161db" y="277.111219"/>
      </g>
     </g>
     <g id="text_8">
      <!-- 120 -->
      <g transform="translate(340.583561 291.709656)scale(0.1 -0.1)">
       <use xlink:href="#DejaVuSans-49"/>
       <use x="63.623047" xlink:href="#DejaVuSans-50"/>
       <use x="127.246094" xlink:href="#DejaVuSans-48"/>
      </g>
     </g>
    </g>
    <g id="xtick_9">
     <g id="line2d_9">
      <g>
       <use style="stroke:#000000;stroke-width:0.8;" x="392.141429" xlink:href="#md32fc161db" y="277.111219"/>
      </g>
     </g>
     <g id="text_9">
      <!-- 140 -->
      <g transform="translate(382.597679 291.709656)scale(0.1 -0.1)">
       <use xlink:href="#DejaVuSans-49"/>
       <use x="63.623047" xlink:href="#DejaVuSans-52"/>
       <use x="127.246094" xlink:href="#DejaVuSans-48"/>
      </g>
     </g>
    </g>
    <g id="text_10">
     <!-- 1st PC: 75.70 % -->
     <g transform="translate(165.868088 310.919444)scale(0.1728 -0.1728)">
      <defs>
       <path d="M 44.28125 53.078125 
L 44.28125 44.578125 
Q 40.484375 46.53125 36.375 47.5 
Q 32.28125 48.484375 27.875 48.484375 
Q 21.1875 48.484375 17.84375 46.4375 
Q 14.5 44.390625 14.5 40.28125 
Q 14.5 37.15625 16.890625 35.375 
Q 19.28125 33.59375 26.515625 31.984375 
L 29.59375 31.296875 
Q 39.15625 29.25 43.1875 25.515625 
Q 47.21875 21.78125 47.21875 15.09375 
Q 47.21875 7.46875 41.1875 3.015625 
Q 35.15625 -1.421875 24.609375 -1.421875 
Q 20.21875 -1.421875 15.453125 -0.5625 
Q 10.6875 0.296875 5.421875 2 
L 5.421875 11.28125 
Q 10.40625 8.6875 15.234375 7.390625 
Q 20.0625 6.109375 24.8125 6.109375 
Q 31.15625 6.109375 34.5625 8.28125 
Q 37.984375 10.453125 37.984375 14.40625 
Q 37.984375 18.0625 35.515625 20.015625 
Q 33.0625 21.96875 24.703125 23.78125 
L 21.578125 24.515625 
Q 13.234375 26.265625 9.515625 29.90625 
Q 5.8125 33.546875 5.8125 39.890625 
Q 5.8125 47.609375 11.28125 51.796875 
Q 16.75 56 26.8125 56 
Q 31.78125 56 36.171875 55.265625 
Q 40.578125 54.546875 44.28125 53.078125 
z
" id="DejaVuSans-115"/>
       <path d="M 18.3125 70.21875 
L 18.3125 54.6875 
L 36.8125 54.6875 
L 36.8125 47.703125 
L 18.3125 47.703125 
L 18.3125 18.015625 
Q 18.3125 11.328125 20.140625 9.421875 
Q 21.96875 7.515625 27.59375 7.515625 
L 36.8125 7.515625 
L 36.8125 0 
L 27.59375 0 
Q 17.1875 0 13.234375 3.875 
Q 9.28125 7.765625 9.28125 18.015625 
L 9.28125 47.703125 
L 2.6875 47.703125 
L 2.6875 54.6875 
L 9.28125 54.6875 
L 9.28125 70.21875 
z
" id="DejaVuSans-116"/>
       <path id="DejaVuSans-32"/>
       <path d="M 19.671875 64.796875 
L 19.671875 37.40625 
L 32.078125 37.40625 
Q 38.96875 37.40625 42.71875 40.96875 
Q 46.484375 44.53125 46.484375 51.125 
Q 46.484375 57.671875 42.71875 61.234375 
Q 38.96875 64.796875 32.078125 64.796875 
z
M 9.8125 72.90625 
L 32.078125 72.90625 
Q 44.34375 72.90625 50.609375 67.359375 
Q 56.890625 61.8125 56.890625 51.125 
Q 56.890625 40.328125 50.609375 34.8125 
Q 44.34375 29.296875 32.078125 29.296875 
L 19.671875 29.296875 
L 19.671875 0 
L 9.8125 0 
z
" id="DejaVuSans-80"/>
       <path d="M 64.40625 67.28125 
L 64.40625 56.890625 
Q 59.421875 61.53125 53.78125 63.8125 
Q 48.140625 66.109375 41.796875 66.109375 
Q 29.296875 66.109375 22.65625 58.46875 
Q 16.015625 50.828125 16.015625 36.375 
Q 16.015625 21.96875 22.65625 14.328125 
Q 29.296875 6.6875 41.796875 6.6875 
Q 48.140625 6.6875 53.78125 8.984375 
Q 59.421875 11.28125 64.40625 15.921875 
L 64.40625 5.609375 
Q 59.234375 2.09375 53.4375 0.328125 
Q 47.65625 -1.421875 41.21875 -1.421875 
Q 24.65625 -1.421875 15.125 8.703125 
Q 5.609375 18.84375 5.609375 36.375 
Q 5.609375 53.953125 15.125 64.078125 
Q 24.65625 74.21875 41.21875 74.21875 
Q 47.75 74.21875 53.53125 72.484375 
Q 59.328125 70.75 64.40625 67.28125 
z
" id="DejaVuSans-67"/>
       <path d="M 11.71875 12.40625 
L 22.015625 12.40625 
L 22.015625 0 
L 11.71875 0 
z
M 11.71875 51.703125 
L 22.015625 51.703125 
L 22.015625 39.3125 
L 11.71875 39.3125 
z
" id="DejaVuSans-58"/>
       <path d="M 8.203125 72.90625 
L 55.078125 72.90625 
L 55.078125 68.703125 
L 28.609375 0 
L 18.3125 0 
L 43.21875 64.59375 
L 8.203125 64.59375 
z
" id="DejaVuSans-55"/>
       <path d="M 10.796875 72.90625 
L 49.515625 72.90625 
L 49.515625 64.59375 
L 19.828125 64.59375 
L 19.828125 46.734375 
Q 21.96875 47.46875 24.109375 47.828125 
Q 26.265625 48.1875 28.421875 48.1875 
Q 40.625 48.1875 47.75 41.5 
Q 54.890625 34.8125 54.890625 23.390625 
Q 54.890625 11.625 47.5625 5.09375 
Q 40.234375 -1.421875 26.90625 -1.421875 
Q 22.3125 -1.421875 17.546875 -0.640625 
Q 12.796875 0.140625 7.71875 1.703125 
L 7.71875 11.625 
Q 12.109375 9.234375 16.796875 8.0625 
Q 21.484375 6.890625 26.703125 6.890625 
Q 35.15625 6.890625 40.078125 11.328125 
Q 45.015625 15.765625 45.015625 23.390625 
Q 45.015625 31 40.078125 35.4375 
Q 35.15625 39.890625 26.703125 39.890625 
Q 22.75 39.890625 18.8125 39.015625 
Q 14.890625 38.140625 10.796875 36.28125 
z
" id="DejaVuSans-53"/>
       <path d="M 10.6875 12.40625 
L 21 12.40625 
L 21 0 
L 10.6875 0 
z
" id="DejaVuSans-46"/>
       <path d="M 72.703125 32.078125 
Q 68.453125 32.078125 66.03125 28.46875 
Q 63.625 24.859375 63.625 18.40625 
Q 63.625 12.0625 66.03125 8.421875 
Q 68.453125 4.78125 72.703125 4.78125 
Q 76.859375 4.78125 79.265625 8.421875 
Q 81.6875 12.0625 81.6875 18.40625 
Q 81.6875 24.8125 79.265625 28.4375 
Q 76.859375 32.078125 72.703125 32.078125 
z
M 72.703125 38.28125 
Q 80.421875 38.28125 84.953125 32.90625 
Q 89.5 27.546875 89.5 18.40625 
Q 89.5 9.28125 84.9375 3.921875 
Q 80.375 -1.421875 72.703125 -1.421875 
Q 64.890625 -1.421875 60.34375 3.921875 
Q 55.8125 9.28125 55.8125 18.40625 
Q 55.8125 27.59375 60.375 32.9375 
Q 64.9375 38.28125 72.703125 38.28125 
z
M 22.3125 68.015625 
Q 18.109375 68.015625 15.6875 64.375 
Q 13.28125 60.75 13.28125 54.390625 
Q 13.28125 47.953125 15.671875 44.328125 
Q 18.0625 40.71875 22.3125 40.71875 
Q 26.5625 40.71875 28.96875 44.328125 
Q 31.390625 47.953125 31.390625 54.390625 
Q 31.390625 60.6875 28.953125 64.34375 
Q 26.515625 68.015625 22.3125 68.015625 
z
M 66.40625 74.21875 
L 74.21875 74.21875 
L 28.609375 -1.421875 
L 20.796875 -1.421875 
z
M 22.3125 74.21875 
Q 30.03125 74.21875 34.609375 68.875 
Q 39.203125 63.53125 39.203125 54.390625 
Q 39.203125 45.171875 34.640625 39.84375 
Q 30.078125 34.515625 22.3125 34.515625 
Q 14.546875 34.515625 10.03125 39.859375 
Q 5.515625 45.21875 5.515625 54.390625 
Q 5.515625 63.484375 10.046875 68.84375 
Q 14.59375 74.21875 22.3125 74.21875 
z
" id="DejaVuSans-37"/>
      </defs>
      <use xlink:href="#DejaVuSans-49"/>
      <use x="63.623047" xlink:href="#DejaVuSans-115"/>
      <use x="115.722656" xlink:href="#DejaVuSans-116"/>
      <use x="154.931641" xlink:href="#DejaVuSans-32"/>
      <use x="186.71875" xlink:href="#DejaVuSans-80"/>
      <use x="247.021484" xlink:href="#DejaVuSans-67"/>
      <use x="316.845703" xlink:href="#DejaVuSans-58"/>
      <use x="350.537109" xlink:href="#DejaVuSans-32"/>
      <use x="382.324219" xlink:href="#DejaVuSans-55"/>
      <use x="445.947266" xlink:href="#DejaVuSans-53"/>
      <use x="509.570312" xlink:href="#DejaVuSans-46"/>
      <use x="541.357422" xlink:href="#DejaVuSans-55"/>
      <use x="604.980469" xlink:href="#DejaVuSans-48"/>
      <use x="668.603516" xlink:href="#DejaVuSans-32"/>
      <use x="700.390625" xlink:href="#DejaVuSans-37"/>
     </g>
    </g>
   </g>
   <g id="matplotlib.axis_2">
    <g id="ytick_1">
     <g id="line2d_10">
      <defs>
       <path d="M 0 0 
L -3.5 0 
" id="m3b8b0e330d" style="stroke:#000000;stroke-width:0.8;"/>
      </defs>
      <g>
       <use style="stroke:#000000;stroke-width:0.8;" x="56.028488" xlink:href="#m3b8b0e330d" y="277.111219"/>
      </g>
     </g>
     <g id="text_11">
      <!-- −20 -->
      <g transform="translate(27.9238 280.910437)scale(0.1 -0.1)">
       <use xlink:href="#DejaVuSans-8722"/>
       <use x="83.789062" xlink:href="#DejaVuSans-50"/>
       <use x="147.412109" xlink:href="#DejaVuSans-48"/>
      </g>
     </g>
    </g>
    <g id="ytick_2">
     <g id="line2d_11">
      <g>
       <use style="stroke:#000000;stroke-width:0.8;" x="56.028488" xlink:href="#m3b8b0e330d" y="243.847219"/>
      </g>
     </g>
     <g id="text_12">
      <!-- −15 -->
      <g transform="translate(27.9238 247.646437)scale(0.1 -0.1)">
       <use xlink:href="#DejaVuSans-8722"/>
       <use x="83.789062" xlink:href="#DejaVuSans-49"/>
       <use x="147.412109" xlink:href="#DejaVuSans-53"/>
      </g>
     </g>
    </g>
    <g id="ytick_3">
     <g id="line2d_12">
      <g>
       <use style="stroke:#000000;stroke-width:0.8;" x="56.028488" xlink:href="#m3b8b0e330d" y="210.583219"/>
      </g>
     </g>
     <g id="text_13">
      <!-- −10 -->
      <g transform="translate(27.9238 214.382437)scale(0.1 -0.1)">
       <use xlink:href="#DejaVuSans-8722"/>
       <use x="83.789062" xlink:href="#DejaVuSans-49"/>
       <use x="147.412109" xlink:href="#DejaVuSans-48"/>
      </g>
     </g>
    </g>
    <g id="ytick_4">
     <g id="line2d_13">
      <g>
       <use style="stroke:#000000;stroke-width:0.8;" x="56.028488" xlink:href="#m3b8b0e330d" y="177.319219"/>
      </g>
     </g>
     <g id="text_14">
      <!-- −5 -->
      <g transform="translate(34.2863 181.118437)scale(0.1 -0.1)">
       <use xlink:href="#DejaVuSans-8722"/>
       <use x="83.789062" xlink:href="#DejaVuSans-53"/>
      </g>
     </g>
    </g>
    <g id="ytick_5">
     <g id="line2d_14">
      <g>
       <use style="stroke:#000000;stroke-width:0.8;" x="56.028488" xlink:href="#m3b8b0e330d" y="144.055219"/>
      </g>
     </g>
     <g id="text_15">
      <!-- 0 -->
      <g transform="translate(42.665987 147.854437)scale(0.1 -0.1)">
       <use xlink:href="#DejaVuSans-48"/>
      </g>
     </g>
    </g>
    <g id="ytick_6">
     <g id="line2d_15">
      <g>
       <use style="stroke:#000000;stroke-width:0.8;" x="56.028488" xlink:href="#m3b8b0e330d" y="110.791219"/>
      </g>
     </g>
     <g id="text_16">
      <!-- 5 -->
      <g transform="translate(42.665987 114.590437)scale(0.1 -0.1)">
       <use xlink:href="#DejaVuSans-53"/>
      </g>
     </g>
    </g>
    <g id="ytick_7">
     <g id="line2d_16">
      <g>
       <use style="stroke:#000000;stroke-width:0.8;" x="56.028488" xlink:href="#m3b8b0e330d" y="77.527219"/>
      </g>
     </g>
     <g id="text_17">
      <!-- 10 -->
      <g transform="translate(36.303488 81.326437)scale(0.1 -0.1)">
       <use xlink:href="#DejaVuSans-49"/>
       <use x="63.623047" xlink:href="#DejaVuSans-48"/>
      </g>
     </g>
    </g>
    <g id="ytick_8">
     <g id="line2d_17">
      <g>
       <use style="stroke:#000000;stroke-width:0.8;" x="56.028488" xlink:href="#m3b8b0e330d" y="44.263219"/>
      </g>
     </g>
     <g id="text_18">
      <!-- 15 -->
      <g transform="translate(36.303488 48.062437)scale(0.1 -0.1)">
       <use xlink:href="#DejaVuSans-49"/>
       <use x="63.623047" xlink:href="#DejaVuSans-53"/>
      </g>
     </g>
    </g>
    <g id="ytick_9">
     <g id="line2d_18">
      <g>
       <use style="stroke:#000000;stroke-width:0.8;" x="56.028488" xlink:href="#m3b8b0e330d" y="10.999219"/>
      </g>
     </g>
     <g id="text_19">
      <!-- 20 -->
      <g transform="translate(36.303488 14.798437)scale(0.1 -0.1)">
       <use xlink:href="#DejaVuSans-50"/>
       <use x="63.623047" xlink:href="#DejaVuSans-48"/>
      </g>
     </g>
    </g>
    <g id="text_20">
     <!-- 2nd PC: 12.20 % -->
     <g transform="translate(20.3301 215.848219)rotate(-90)scale(0.1728 -0.1728)">
      <defs>
       <path d="M 54.890625 33.015625 
L 54.890625 0 
L 45.90625 0 
L 45.90625 32.71875 
Q 45.90625 40.484375 42.875 44.328125 
Q 39.84375 48.1875 33.796875 48.1875 
Q 26.515625 48.1875 22.3125 43.546875 
Q 18.109375 38.921875 18.109375 30.90625 
L 18.109375 0 
L 9.078125 0 
L 9.078125 54.6875 
L 18.109375 54.6875 
L 18.109375 46.1875 
Q 21.34375 51.125 25.703125 53.5625 
Q 30.078125 56 35.796875 56 
Q 45.21875 56 50.046875 50.171875 
Q 54.890625 44.34375 54.890625 33.015625 
z
" id="DejaVuSans-110"/>
       <path d="M 45.40625 46.390625 
L 45.40625 75.984375 
L 54.390625 75.984375 
L 54.390625 0 
L 45.40625 0 
L 45.40625 8.203125 
Q 42.578125 3.328125 38.25 0.953125 
Q 33.9375 -1.421875 27.875 -1.421875 
Q 17.96875 -1.421875 11.734375 6.484375 
Q 5.515625 14.40625 5.515625 27.296875 
Q 5.515625 40.1875 11.734375 48.09375 
Q 17.96875 56 27.875 56 
Q 33.9375 56 38.25 53.625 
Q 42.578125 51.265625 45.40625 46.390625 
z
M 14.796875 27.296875 
Q 14.796875 17.390625 18.875 11.75 
Q 22.953125 6.109375 30.078125 6.109375 
Q 37.203125 6.109375 41.296875 11.75 
Q 45.40625 17.390625 45.40625 27.296875 
Q 45.40625 37.203125 41.296875 42.84375 
Q 37.203125 48.484375 30.078125 48.484375 
Q 22.953125 48.484375 18.875 42.84375 
Q 14.796875 37.203125 14.796875 27.296875 
z
" id="DejaVuSans-100"/>
      </defs>
      <use xlink:href="#DejaVuSans-50"/>
      <use x="63.623047" xlink:href="#DejaVuSans-110"/>
      <use x="127.001953" xlink:href="#DejaVuSans-100"/>
      <use x="190.478516" xlink:href="#DejaVuSans-32"/>
      <use x="222.265625" xlink:href="#DejaVuSans-80"/>
      <use x="282.568359" xlink:href="#DejaVuSans-67"/>
      <use x="352.392578" xlink:href="#DejaVuSans-58"/>
      <use x="386.083984" xlink:href="#DejaVuSans-32"/>
      <use x="417.871094" xlink:href="#DejaVuSans-49"/>
      <use x="481.494141" xlink:href="#DejaVuSans-50"/>
      <use x="545.117188" xlink:href="#DejaVuSans-46"/>
      <use x="576.904297" xlink:href="#DejaVuSans-50"/>
      <use x="640.527344" xlink:href="#DejaVuSans-48"/>
      <use x="704.150391" xlink:href="#DejaVuSans-32"/>
      <use x="735.9375" xlink:href="#DejaVuSans-37"/>
     </g>
    </g>
   </g>
   <g id="LineCollection_1"/>
   <g id="LineCollection_2"/>
   <g id="LineCollection_3">
    <path clip-path="url(#pfe63e4d9b2)" d="M 100.899548 147.762367 
L 101.039443 152.925619 
L 100.143311 156.112879 
L 98.042605 161.68782 
L 95.941899 153.71735 
L 95.911193 152.925619 
L 95.66007 144.055219 
L 95.662386 140.207099 
" style="fill:none;stroke:#482576;stroke-width:1.5;"/>
   </g>
   <g id="LineCollection_4">
    <path clip-path="url(#pfe63e4d9b2)" d="M 102.028696 156.605964 
L 100.707865 161.796019 
L 100.143311 163.460548 
L 98.042605 170.560108 
L 97.997705 170.666419 
L 95.941899 173.4844 
L 93.841193 175.108388 
L 92.713727 170.666419 
L 92.9144 161.796019 
L 93.169968 152.925619 
L 93.270994 144.055219 
L 93.675706 135.184819 
L 93.841193 134.839499 
L 95.941899 129.821002 
L 98.042605 127.473522 
L 99.513783 131.707919 
" style="fill:none;stroke:#453781;stroke-width:1.5;"/>
   </g>
   <g id="LineCollection_5">
    <path clip-path="url(#pfe63e4d9b2)" d="M 100.508393 135.945521 
L 102.244017 143.832899 
L 102.249896 144.055219 
L 102.302522 152.925619 
L 102.244017 160.48054 
L 101.909237 161.796019 
L 100.143311 167.002669 
L 99.068849 170.666419 
L 98.042605 173.264949 
L 95.941899 178.579118 
L 95.450306 179.536819 
L 93.841193 181.19348 
L 91.740488 181.352985 
L 91.223632 179.536819 
L 90.716727 170.666419 
L 90.912409 161.796019 
L 91.232776 152.925619 
L 91.446156 144.055219 
L 91.740488 141.131951 
L 91.982439 138.240472 
" style="fill:none;stroke:#404688;stroke-width:1.5;"/>
   </g>
   <g id="LineCollection_6">
    <path clip-path="url(#pfe63e4d9b2)" d="M 92.531207 131.980357 
L 93.841193 128.839963 
L 94.683195 126.314419 
L 95.941899 125.985788 
L 98.042605 125.912819 
L 98.606583 126.314419 
L 100.143311 131.396177 
L 100.417982 135.184819 
L 102.244017 143.483064 
L 102.259148 144.055219 
L 102.339079 152.925619 
L 102.336534 161.796019 
L 102.244017 163.404598 
L 100.143311 170.544791 
L 100.107641 170.666419 
L 98.042605 175.895255 
L 96.718511 179.536819 
L 95.941899 180.944779 
L 93.841193 183.885899 
L 91.740488 186.50723 
L 89.756804 179.536819 
L 89.639782 177.665753 
L 89.145251 170.666419 
L 89.114156 161.796019 
L 89.222411 156.64445 
" style="fill:none;stroke:#39558c;stroke-width:1.5;"/>
   </g>
   <g id="LineCollection_7">
    <path clip-path="url(#pfe63e4d9b2)" d="M 87.503114 176.048007 
L 87.522152 170.666419 
L 86.461525 161.796019 
L 85.43837 158.924253 
L 85.413863 152.925619 
L 85.434684 144.055219 
L 85.43837 143.906514 
L 87.539076 141.459388 
L 89.07042 135.184819 
L 89.639782 134.968836 
L 91.740488 131.874057 
L 93.728056 126.314419 
L 93.841193 126.273155 
L 95.941899 125.724675 
L 98.042605 125.684169 
L 98.927683 126.314419 
L 100.143311 130.334341 
L 100.494963 135.184819 
L 102.244017 143.133228 
L 102.268399 144.055219 
L 102.375636 152.925619 
L 102.464793 161.796019 
L 102.244017 165.6346 
L 100.772896 170.666419 
L 100.143311 172.433388 
L 98.042605 178.525561 
L 97.674906 179.536819 
L 96.493801 181.678105 
" style="fill:none;stroke:#33638d;stroke-width:1.5;"/>
   </g>
   <g id="LineCollection_8">
    <path clip-path="url(#pfe63e4d9b2)" d="M 87.201081 175.93707 
L 86.970886 170.666419 
L 85.43837 163.805568 
L 85.403518 161.796019 
L 85.350695 152.925619 
L 85.374741 144.055219 
L 85.43837 141.487989 
L 87.202229 135.184819 
L 87.539076 134.864684 
L 89.639782 133.81233 
L 91.740488 129.872187 
L 93.012388 126.314419 
L 93.841193 126.012137 
L 95.941899 125.463561 
L 98.042605 125.455519 
L 99.248783 126.314419 
L 100.143311 129.272505 
L 100.571945 135.184819 
L 102.244017 142.783393 
L 102.27765 144.055219 
L 102.412193 152.925619 
L 102.593051 161.796019 
L 102.244017 167.864602 
L 101.424867 170.666419 
L 100.143311 174.263188 
L 98.412303 179.536819 
L 98.042605 180.339289 
L 95.941899 184.412573 
L 94.097899 188.407219 
L 93.841193 188.767929 
L 93.040041 189.964819 
" style="fill:none;stroke:#2d718e;stroke-width:1.5;"/>
   </g>
   <g id="LineCollection_9">
    <path clip-path="url(#pfe63e4d9b2)" d="M 95.251317 125.382817 
L 95.941899 125.202447 
L 98.042605 125.226869 
L 99.569883 126.314419 
L 100.143311 128.210669 
L 100.648927 135.184819 
L 102.244017 142.433558 
L 102.286902 144.055219 
L 102.448749 152.925619 
L 102.72131 161.796019 
L 102.244017 170.094603 
L 102.076839 170.666419 
L 100.143311 176.092988 
L 99.012913 179.536819 
L 98.042605 181.642983 
L 95.941899 186.14647 
L 94.898297 188.407219 
L 93.841193 189.892611 
L 91.740488 194.051165 
L 90.212582 197.277619 
L 89.639782 197.599459 
L 89.577911 197.277619 
L 87.590311 188.407219 
L 87.539076 188.205794 
L 87.225826 179.536819 
L 86.41962 170.666419 
L 85.43837 166.273507 
L 85.360717 161.796019 
L 85.287528 152.925619 
L 85.308094 146.235648 
" style="fill:none;stroke:#287d8e;stroke-width:1.5;"/>
   </g>
   <g id="LineCollection_10">
    <path clip-path="url(#pfe63e4d9b2)" d="M 95.521316 125.051203 
L 95.941899 124.941334 
L 98.042605 124.998219 
L 99.890983 126.314419 
L 100.143311 127.148833 
L 100.725908 135.184819 
L 102.244017 142.083722 
L 102.296153 144.055219 
L 102.485306 152.925619 
L 102.849568 161.796019 
L 102.470929 170.666419 
L 102.244017 171.772836 
L 100.143311 177.922788 
L 99.613524 179.536819 
L 98.042605 182.946676 
L 95.941899 187.880368 
L 95.698695 188.407219 
L 93.841193 191.017293 
L 91.740488 196.196031 
L 91.228296 197.277619 
L 89.639782 198.170161 
L 89.4682 197.277619 
L 87.539076 188.859654 
L 87.494818 188.407219 
L 87.093354 179.536819 
L 85.868353 170.666419 
L 85.43837 168.741447 
L 85.317915 161.796019 
L 85.22436 152.925619 
L 85.250252 145.39413 
" style="fill:none;stroke:#238a8d;stroke-width:1.5;"/>
   </g>
   <g id="LineCollection_11">
    <path clip-path="url(#pfe63e4d9b2)" d="M 95.855702 124.702741 
L 95.941899 124.68022 
L 98.042605 124.769569 
L 100.143311 126.306518 
L 100.145129 126.314419 
L 100.80289 135.184819 
L 102.244017 141.733887 
L 102.305404 144.055219 
L 102.521863 152.925619 
L 102.977827 161.796019 
L 102.776091 170.666419 
L 102.244017 173.260795 
L 100.200443 179.536819 
L 100.143311 179.655165 
L 98.042605 184.25037 
L 96.318354 188.407219 
L 95.941899 188.973744 
L 93.841193 192.141974 
L 91.946212 197.277619 
L 91.740488 197.776778 
L 89.639782 198.740863 
L 89.358489 197.277619 
L 87.539076 189.338392 
L 87.447987 188.407219 
L 86.960881 179.536819 
L 85.43837 170.833033 
L 85.43286 170.666419 
L 85.275114 161.796019 
L 85.161193 152.925619 
L 85.192544 144.67784 
" style="fill:none;stroke:#1f968b;stroke-width:1.5;"/>
   </g>
   <g id="LineCollection_12">
    <path clip-path="url(#pfe63e4d9b2)" d="M 96.165969 124.432099 
L 98.042605 124.540919 
L 100.143311 126.269629 
L 100.153618 126.314419 
L 100.879871 135.184819 
L 102.244017 141.384051 
L 102.314656 144.055219 
L 102.55842 152.925619 
L 103.106085 161.796019 
L 103.081253 170.666419 
L 102.244017 174.748754 
L 100.684947 179.536819 
L 100.143311 180.658786 
L 98.042605 185.554064 
L 96.859123 188.407219 
L 95.941899 189.787546 
L 93.841193 193.266656 
L 92.361204 197.277619 
L 91.740488 198.783691 
L 89.639782 199.311565 
L 89.248777 197.277619 
L 87.539076 189.817131 
L 87.401156 188.407219 
L 86.828408 179.536819 
L 85.43837 171.590344 
L 85.407819 170.666419 
L 85.232312 161.796019 
L 85.098026 152.925619 
L 85.134633 144.135674 
" style="fill:none;stroke:#20a386;stroke-width:1.5;"/>
   </g>
   <g id="LineCollection_13">
    <path clip-path="url(#pfe63e4d9b2)" d="M 96.455797 124.195733 
L 98.042605 124.312269 
L 100.143311 126.23274 
L 100.162106 126.314419 
L 100.956853 135.184819 
L 102.244017 141.034216 
L 102.323907 144.055219 
L 102.594977 152.925619 
L 103.234344 161.796019 
L 103.386415 170.666419 
L 102.244017 176.236713 
L 101.16945 179.536819 
L 100.143311 181.662406 
L 98.042605 186.857757 
L 97.399892 188.407219 
L 95.941899 190.601348 
L 93.841193 194.391337 
L 92.776196 197.277619 
L 91.740488 199.790605 
L 89.639782 199.882266 
L 89.139066 197.277619 
L 87.539076 190.295869 
L 87.354324 188.407219 
L 86.695935 179.536819 
L 85.43837 172.347655 
L 85.382777 170.666419 
L 85.189511 161.796019 
L 85.034858 152.925619 
L 85.075025 144.055219 
L 85.089125 143.572493 
" style="fill:none;stroke:#29af7f;stroke-width:1.5;"/>
   </g>
   <g id="LineCollection_14">
    <path clip-path="url(#pfe63e4d9b2)" d="M 96.728497 123.966803 
L 98.042605 124.083618 
L 100.143311 126.195851 
L 100.170595 126.314419 
L 101.033834 135.184819 
L 102.244017 140.684381 
L 102.333159 144.055219 
L 102.631533 152.925619 
L 103.362603 161.796019 
L 103.691577 170.666419 
L 102.244017 177.724672 
L 101.653953 179.536819 
L 100.143311 182.666027 
L 98.042605 188.161451 
L 97.940661 188.407219 
L 95.941899 191.415151 
L 93.841193 195.516019 
L 93.191188 197.277619 
L 91.740488 200.797518 
L 89.639782 200.452968 
L 89.029355 197.277619 
L 87.539076 190.774607 
L 87.307493 188.407219 
L 86.563463 179.536819 
L 85.43837 173.104966 
L 85.357735 170.666419 
L 85.146709 161.796019 
L 84.971691 152.925619 
L 85.015081 144.055219 
L 85.048058 142.993488 
" style="fill:none;stroke:#3dbc74;stroke-width:1.5;"/>
   </g>
   <g id="LineCollection_15">
    <path clip-path="url(#pfe63e4d9b2)" d="M 97.019102 123.748169 
L 98.042605 123.854968 
L 100.143311 126.158961 
L 100.179083 126.314419 
L 101.110816 135.184819 
L 102.244017 140.334545 
L 102.34241 144.055219 
L 102.66809 152.925619 
L 103.490861 161.796019 
L 103.996739 170.666419 
L 102.244017 179.212631 
L 102.138456 179.536819 
L 100.143311 183.669648 
L 98.350758 188.407219 
L 98.042605 188.910732 
L 95.941899 192.228953 
L 93.841193 196.640701 
L 93.606179 197.277619 
L 91.740488 201.804431 
L 89.639782 201.02367 
L 88.919644 197.277619 
L 87.539076 191.253346 
L 87.260662 188.407219 
L 86.43099 179.536819 
L 85.43837 173.862277 
L 85.332693 170.666419 
L 85.103908 161.796019 
L 84.908523 152.925619 
L 84.955138 144.055219 
L 85.009528 142.402453 
" style="fill:none;stroke:#56c667;stroke-width:1.5;"/>
   </g>
   <g id="LineCollection_16">
    <path clip-path="url(#pfe63e4d9b2)" d="M 97.332363 123.541231 
L 98.042605 123.626318 
L 100.143311 126.122072 
L 100.187572 126.314419 
L 101.187797 135.184819 
L 102.244017 139.98471 
L 102.351661 144.055219 
L 102.704647 152.925619 
L 103.61912 161.796019 
L 104.301901 170.666419 
L 102.493284 179.536819 
L 102.244017 180.108919 
L 100.143311 184.673268 
L 98.730497 188.407219 
L 98.042605 189.531217 
L 95.941899 193.042755 
L 94.0028 197.277619 
L 93.841193 197.495691 
L 91.740488 202.811344 
L 89.639782 201.594371 
L 88.809932 197.277619 
L 87.539076 191.732084 
L 87.213831 188.407219 
L 86.298517 179.536819 
L 85.43837 174.619588 
L 85.307652 170.666419 
L 85.061106 161.796019 
L 84.845356 152.925619 
L 84.895195 144.055219 
L 84.973505 141.80216 
" style="fill:none;stroke:#75d054;stroke-width:1.5;"/>
   </g>
   <g id="LineCollection_17">
    <path clip-path="url(#pfe63e4d9b2)" d="M 97.640998 123.343349 
L 98.042605 123.397668 
L 100.143311 126.085183 
L 100.196061 126.314419 
L 101.264779 135.184819 
L 102.244017 139.634875 
L 102.360913 144.055219 
L 102.741204 152.925619 
L 103.747378 161.796019 
L 104.344723 169.284212 
L 104.358935 170.666419 
L 104.344723 172.011589 
L 102.81199 179.536819 
L 102.244017 180.840388 
L 100.143311 185.676889 
L 99.110237 188.407219 
L 98.042605 190.151703 
L 95.941899 193.856557 
L 94.375431 197.277619 
L 93.841193 197.998519 
L 91.740488 203.818258 
L 89.639782 202.165073 
L 88.700221 197.277619 
L 87.539076 192.210822 
L 87.167 188.407219 
L 86.166044 179.536819 
L 85.43837 175.376899 
L 85.28261 170.666419 
L 85.018305 161.796019 
L 84.782189 152.925619 
L 84.835251 144.055219 
L 84.939967 141.19464 
" style="fill:none;stroke:#95d840;stroke-width:1.5;"/>
   </g>
   <g id="LineCollection_18">
    <path clip-path="url(#pfe63e4d9b2)" d="M 97.944994 123.154307 
L 98.042605 123.169018 
L 100.143311 126.048294 
L 100.204549 126.314419 
L 101.34176 135.184819 
L 102.244017 139.285039 
L 102.370164 144.055219 
L 102.777761 152.925619 
L 103.875637 161.796019 
L 104.344723 167.676389 
L 104.375468 170.666419 
L 104.344723 173.57633 
L 103.130695 179.536819 
L 102.244017 181.571857 
L 100.143311 186.68051 
L 99.489977 188.407219 
L 98.042605 190.772188 
L 95.941899 194.670359 
L 94.748063 197.277619 
L 93.841193 198.501348 
L 91.740488 204.825171 
L 89.639782 202.735775 
L 88.59051 197.277619 
L 87.539076 192.689561 
L 87.120169 188.407219 
L 86.033572 179.536819 
L 85.43837 176.13421 
L 85.257568 170.666419 
L 84.975503 161.796019 
L 84.719021 152.925619 
L 84.775308 144.055219 
L 84.908894 140.581403 
" style="fill:none;stroke:#bade28;stroke-width:1.5;"/>
   </g>
   <g id="LineCollection_19">
    <path clip-path="url(#pfe63e4d9b2)" d="M 98.158064 123.109157 
L 100.143311 126.011405 
L 100.213038 126.314419 
L 101.418742 135.184819 
L 102.244017 138.935204 
L 102.379415 144.055219 
L 102.814317 152.925619 
L 104.003895 161.796019 
L 104.344723 166.068566 
L 104.392 170.666419 
L 104.344723 175.141071 
L 103.4494 179.536819 
L 102.244017 182.303326 
L 100.143311 187.68413 
L 99.869716 188.407219 
L 98.042605 191.392673 
L 95.941899 195.484162 
L 95.120694 197.277619 
L 93.841193 199.004177 
L 91.740488 205.832084 
L 89.639782 203.306477 
L 88.480798 197.277619 
L 87.539076 193.168299 
L 87.073338 188.407219 
L 85.901099 179.536819 
L 85.43837 176.891521 
L 85.232526 170.666419 
L 84.932702 161.796019 
L 84.655854 152.925619 
L 84.715365 144.055219 
L 84.880274 139.963588 
" style="fill:none;stroke:#dde318;stroke-width:1.5;"/>
   </g>
   <g id="LineCollection_20">
    <path clip-path="url(#pfe63e4d9b2)" d="M 90.739651 124.738184 
L 91.740488 123.972327 
L 93.841193 122.879924 
L 95.941899 122.330197 
L 98.042605 122.711718 
L 100.143311 125.974516 
L 100.221526 126.314419 
L 101.495723 135.184819 
L 102.244017 138.585369 
L 102.388667 144.055219 
L 102.850874 152.925619 
L 104.132154 161.796019 
L 104.344723 164.460743 
L 104.408533 170.666419 
L 104.344723 176.705812 
L 103.768105 179.536819 
L 102.244017 183.034795 
L 100.220327 188.407219 
L 100.143311 188.530901 
L 98.042605 192.013159 
L 95.941899 196.297964 
L 95.493326 197.277619 
L 93.841193 199.507005 
L 91.844246 206.148019 
L 91.740488 206.444756 
L 91.431485 206.148019 
L 89.639782 203.877178 
L 88.371087 197.277619 
L 87.539076 193.647037 
L 87.026507 188.407219 
L 85.768626 179.536819 
L 85.43837 177.648832 
L 85.207485 170.666419 
L 84.8899 161.796019 
L 84.592687 152.925619 
L 84.629101 147.776848 
" style="fill:none;stroke:#fde725;stroke-width:1.5;"/>
   </g>
   <g id="LineCollection_21">
    <path clip-path="url(#pfe63e4d9b2)" d="M 99.394315 124.705921 
L 100.143311 125.937627 
L 100.230015 126.314419 
L 101.572705 135.184819 
L 102.244017 138.235533 
L 102.397918 144.055219 
L 102.887431 152.925619 
L 104.260412 161.796019 
L 104.344723 162.85292 
L 104.425065 170.666419 
L 104.344723 178.270553 
L 104.086811 179.536819 
L 102.244017 183.766264 
L 100.495858 188.407219 
L 100.143311 188.973383 
L 98.042605 192.633644 
L 95.941899 197.111766 
L 95.865957 197.277619 
L 93.841193 200.009834 
L 91.995446 206.148019 
L 91.740488 206.877169 
L 90.981199 206.148019 
L 89.639782 204.44788 
L 88.261376 197.277619 
L 87.539076 194.125775 
L 86.979676 188.407219 
L 85.636154 179.536819 
L 85.43837 178.406143 
L 85.182443 170.666419 
L 84.847098 161.796019 
L 84.529519 152.925619 
L 84.595478 144.055219 
L 84.751221 140.515765 
" style="fill:none;stroke:#440154;stroke-width:1.5;"/>
   </g>
   <g id="LineCollection_22">
    <path clip-path="url(#pfe63e4d9b2)" d="M 87.398129 209.689308 
L 86.730432 206.148019 
L 85.43837 199.701121 
L 85.186829 197.277619 
L 84.184143 188.407219 
L 83.337664 182.185209 
L 83.229786 179.536819 
L 82.893229 170.666419 
L 82.488448 161.796019 
L 82.368915 152.925619 
L 82.733602 144.055219 
L 83.027178 135.184819 
L 83.337664 131.447019 
L 84.52261 126.314419 
L 85.43837 124.568653 
L 87.539076 118.176934 
L 87.788926 117.444019 
L 89.639782 116.711438 
L 91.740488 115.886166 
L 93.841193 115.736417 
L 95.941899 116.049203 
L 98.042605 116.53756 
L 99.636349 117.444019 
L 100.143311 119.297582 
L 101.75796 126.314419 
L 102.244017 128.536876 
L 102.627489 135.184819 
L 104.063165 144.055219 
L 104.344723 145.637926 
L 104.671633 152.925619 
L 105.59244 161.796019 
L 106.445429 167.824629 
L 106.530627 170.666419 
L 106.740935 179.536819 
L 106.820157 188.407219 
L 106.569918 197.277619 
L 106.445429 198.493971 
L 104.344723 204.47944 
L 103.710574 206.148019 
L 102.244017 208.262647 
L 100.313671 212.560712 
" style="fill:none;stroke:#440154;stroke-width:1.5;"/>
   </g>
   <g id="LineCollection_23">
    <path clip-path="url(#pfe63e4d9b2)" d="M 84.300552 117.580597 
L 84.338906 117.444019 
L 85.43837 115.670976 
L 87.539076 111.680522 
L 88.951993 108.573619 
L 89.639782 108.290655 
L 91.740488 107.813734 
L 93.841193 107.840855 
L 95.941899 108.07165 
L 98.042605 108.412419 
L 98.25959 108.573619 
L 100.143311 114.53095 
L 101.416597 117.444019 
L 102.244017 120.946373 
L 103.148722 126.314419 
L 104.344723 132.438811 
L 104.471681 135.184819 
L 105.428543 144.055219 
L 106.445429 149.50998 
L 106.594627 152.925619 
L 107.353571 161.796019 
L 108.546135 169.209802 
L 108.587287 170.666419 
L 108.787223 179.536819 
L 108.942584 188.407219 
L 108.90833 197.277619 
L 108.699648 206.148019 
L 108.546135 209.009747 
L 107.020665 215.018419 
L 106.445429 216.151999 
L 104.344723 221.257438 
L 103.437399 223.888819 
L 102.244017 225.779682 
L 100.143311 231.950189 
L 99.83218 232.759219 
L 98.042605 235.268402 
L 95.941899 239.467576 
L 95.244897 241.629619 
L 93.841193 243.423734 
L 92.813019 241.629619 
L 91.740488 238.403564 
L 89.639782 232.921622 
L 89.535717 232.759219 
L 87.539076 225.83046 
L 86.884679 223.888819 
L 85.43837 217.871011 
L 85.021839 215.018419 
L 83.337664 206.624333 
L 83.293878 206.148019 
L 82.539794 197.277619 
L 81.236958 189.068008 
L 81.206745 188.407219 
L 80.89153 179.536819 
L 80.391306 170.666419 
L 79.791343 161.796019 
L 79.974571 153.15353 
" style="fill:none;stroke:#440154;stroke-width:1.5;"/>
   </g>
   <g id="LineCollection_24">
    <path clip-path="url(#pfe63e4d9b2)" d="M 84.309913 107.276281 
L 85.43837 105.85905 
L 87.539076 101.919891 
L 88.798155 99.703219 
L 89.639782 99.451443 
L 91.740488 99.235026 
L 93.841193 99.356434 
L 95.941899 99.576549 
L 96.716209 99.703219 
L 98.042605 101.372839 
L 100.143311 106.897383 
L 100.959932 108.573619 
L 102.244017 113.660997 
L 103.570516 117.444019 
L 104.344723 120.862537 
L 104.672917 126.314419 
L 106.445429 134.986288 
L 106.453913 135.184819 
L 106.904508 144.055219 
L 108.546135 152.304194 
L 108.572242 152.925619 
L 108.987662 161.796019 
L 110.298885 170.666419 
L 110.64684 173.214682 
L 110.740203 179.536819 
L 110.886047 188.407219 
L 110.900178 197.277619 
L 110.784226 206.148019 
L 110.64684 214.677023 
L 110.601571 215.018419 
L 108.888596 223.888819 
L 108.546135 225.27898 
L 106.445429 230.219568 
L 105.652646 232.759219 
L 104.344723 235.000473 
L 102.3194 241.629619 
L 102.244017 241.77325 
L 100.143311 247.49797 
L 99.110871 250.500019 
L 98.042605 252.219262 
L 95.941899 258.590989 
L 93.841193 257.23354 
L 91.740488 251.583853 
L 91.519828 250.500019 
L 89.639782 242.978027 
L 88.740159 241.629619 
L 87.539076 237.532382 
L 85.454062 232.759219 
L 85.43837 232.69759 
L 83.664948 223.888819 
L 83.337664 222.372418 
L 82.357751 215.018419 
L 81.236958 209.171356 
L 80.973107 206.148019 
L 79.930693 197.277619 
L 79.136252 191.828305 
L 79.006176 188.407219 
L 78.639228 179.536819 
L 78.061443 170.666419 
L 77.376257 161.796019 
L 77.630365 152.925619 
L 78.110445 146.051781 
" style="fill:none;stroke:#440154;stroke-width:1.5;"/>
   </g>
   <g id="LineCollection_25">
    <path clip-path="url(#pfe63e4d9b2)" d="M 90.215025 254.908959 
L 89.639782 252.444318 
L 88.491362 250.500019 
L 87.539076 247.085045 
L 85.43837 242.052436 
L 85.328076 241.629619 
L 83.337664 233.329579 
L 83.228913 232.759219 
L 81.236958 223.923327 
L 81.230965 223.888819 
L 79.863675 215.018419 
L 79.136252 211.309306 
L 78.590739 206.148019 
L 77.286698 197.277619 
L 77.035546 195.437996 
L 76.778396 188.407219 
L 76.346468 179.536819 
L 75.798636 170.666419 
L 75.61383 161.796019 
L 75.762746 152.925619 
L 76.067934 144.055219 
L 76.58563 135.184819 
L 76.998252 126.314419 
L 77.035546 125.698771 
L 78.509284 117.444019 
L 79.136252 113.242265 
L 80.214985 108.573619 
L 81.236958 105.142554 
L 82.783833 99.703219 
L 83.337664 98.891124 
L 85.43837 96.02586 
L 87.539076 92.050351 
L 88.287453 90.832819 
L 89.639782 90.521503 
L 91.740488 90.407185 
L 93.841193 90.547126 
L 95.941899 90.790215 
L 96.107514 90.832819 
L 98.042605 93.904739 
L 100.143311 98.750745 
L 100.631341 99.703219 
L 102.244017 106.025167 
L 103.157298 108.573619 
L 104.344723 113.415865 
L 104.875577 117.444019 
L 106.445429 124.902853 
L 106.499777 126.314419 
L 107.240781 135.184819 
L 108.546135 141.488728 
L 108.67364 144.055219 
L 109.639866 152.925619 
L 110.64684 158.111257 
L 110.761828 161.796019 
L 111.283236 170.666419 
L 112.591304 179.536819 
L 112.747546 180.894015 
L 112.80164 188.407219 
L 112.837645 197.277619 
L 112.793281 206.148019 
L 112.747546 209.475246 
L 112.081485 215.018419 
L 111.141394 223.888819 
L 110.64684 232.000789 
L 110.465262 232.759219 
L 108.546135 238.602083 
L 107.540495 241.629619 
L 106.445429 243.21172 
L 104.868306 247.783911 
" style="fill:none;stroke:#440154;stroke-width:1.5;"/>
   </g>
   <g id="LineCollection_26">
    <path clip-path="url(#pfe63e4d9b2)" d="M 91.725208 277.111219 
L 91.098508 268.240819 
L 89.639782 261.68553 
L 87.647395 259.370419 
L 87.539076 259.002188 
L 85.43837 252.004938 
L 85.086474 250.500019 
L 83.337664 243.219304 
L 83.019945 241.629619 
L 81.236958 233.878785 
L 81.018337 232.759219 
L 79.136252 224.453126 
L 79.034445 223.888819 
L 77.171374 215.018419 
L 77.035546 214.351318 
L 75.946966 206.148019 
L 74.93484 199.387019 
L 74.830837 197.277619 
L 74.422889 188.407219 
L 73.861205 179.536819 
L 73.606316 170.666419 
L 73.751611 161.796019 
L 73.991668 152.925619 
L 74.218912 144.055219 
L 74.325047 140.73489 
" style="fill:none;stroke:#450457;stroke-width:1.5;"/>
    <path clip-path="url(#pfe63e4d9b2)" d="M 80.727043 94.585313 
L 81.236958 92.959314 
L 81.910278 90.832819 
L 83.337664 89.410617 
L 85.43837 86.296534 
L 87.539076 82.434223 
L 87.939957 81.962419 
L 89.639782 81.713045 
L 91.740488 81.660366 
L 93.841193 81.734498 
L 95.941899 81.895635 
L 96.12722 81.962419 
L 98.042605 86.169542 
L 100.143311 90.383466 
L 100.371892 90.832819 
L 102.244017 98.161491 
L 102.817351 99.703219 
L 104.344723 105.928819 
L 104.800143 108.573619 
L 106.445429 115.814825 
L 106.557623 117.444019 
L 107.527074 126.314419 
L 108.546135 131.133064 
L 108.790873 135.184819 
L 110.56151 144.055219 
L 110.64684 144.476865 
L 110.973854 152.925619 
L 112.477538 161.796019 
L 112.747546 163.29391 
L 112.885126 170.666419 
L 113.247526 179.536819 
L 113.959353 188.407219 
L 114.604006 197.277619 
L 114.437787 206.148019 
L 113.612801 215.018419 
L 113.006142 223.888819 
L 112.747546 232.286676 
L 112.663026 232.759219 
L 110.902925 241.629619 
L 110.64684 243.516075 
L 108.848335 250.500019 
L 108.546135 251.340865 
L 106.445429 256.042536 
L 105.440783 259.370419 
L 104.344723 261.289064 
L 102.451858 268.240819 
L 102.244017 268.741812 
L 100.143311 276.050643 
L 99.802095 277.111219 
" style="fill:none;stroke:#450457;stroke-width:1.5;"/>
   </g>
   <g id="LineCollection_27">
    <path clip-path="url(#pfe63e4d9b2)" d="M 90.859877 277.111219 
L 89.639782 271.41977 
L 87.539076 268.674348 
L 87.19679 268.240819 
L 85.43837 262.435684 
L 84.728167 259.370419 
L 83.337664 253.488121 
L 82.789616 250.500019 
L 81.236958 243.802289 
L 80.797419 241.629619 
L 79.136252 234.439647 
L 78.780472 232.759219 
L 77.035546 225.098836 
L 76.807809 223.888819 
L 74.93484 215.53468 
L 74.846026 215.018419 
L 72.85414 206.148019 
L 72.834135 206.006742 
L 72.403807 197.277619 
L 71.764382 188.407219 
L 71.24988 179.536819 
L 71.368846 170.666419 
L 71.666173 161.796019 
L 72.007028 152.925619 
L 72.311263 144.055219 
L 72.527496 135.184819 
L 72.561864 133.646626 
" style="fill:none;stroke:#482475;stroke-width:1.5;"/>
    <path clip-path="url(#pfe63e4d9b2)" d="M 80.607509 84.094175 
L 81.181989 81.962419 
L 81.236958 81.872575 
L 83.337664 80.06632 
L 85.43837 76.668843 
L 87.467144 73.092019 
L 87.539076 73.070917 
L 89.639782 72.893336 
L 91.740488 72.916734 
L 93.841193 73.017103 
L 94.878815 73.092019 
L 95.941899 73.827525 
L 98.042605 78.910647 
L 100.143311 81.870045 
L 100.192522 81.962419 
L 102.244017 90.014425 
L 102.534169 90.832819 
L 104.344723 98.212298 
L 104.653482 99.703219 
L 106.445429 107.429976 
L 106.57779 108.573619 
L 108.114903 117.444019 
L 108.546135 119.529695 
L 108.923893 126.314419 
L 110.64684 134.456606 
L 110.681313 135.184819 
L 111.271742 144.055219 
L 112.747546 151.347524 
L 112.803475 152.925619 
L 113.245222 161.796019 
L 114.661309 170.666419 
L 114.848252 171.851515 
L 114.937668 179.536819 
L 115.124727 188.407219 
L 115.356959 197.277619 
L 115.513468 206.148019 
L 115.323822 215.018419 
L 114.961907 223.888819 
L 114.848252 227.020372 
L 113.870351 232.759219 
L 112.93266 241.629619 
L 112.747546 244.177858 
L 111.370338 250.500019 
L 110.64684 255.36287 
L 109.613471 259.370419 
L 108.546135 262.192566 
L 106.734406 268.240819 
L 106.445429 268.667163 
L 104.344723 273.003285 
L 103.258949 277.111219 
" style="fill:none;stroke:#482475;stroke-width:1.5;"/>
   </g>
   <g id="LineCollection_28">
    <path clip-path="url(#pfe63e4d9b2)" d="M 86.677662 277.111219 
L 85.43837 273.209401 
L 84.268809 268.240819 
L 83.337664 264.296889 
L 82.436255 259.370419 
L 81.236958 254.139382 
L 80.528069 250.500019 
L 79.136252 244.50256 
L 78.533258 241.629619 
L 77.035546 235.212954 
L 76.494671 232.759219 
L 74.93484 225.955729 
L 74.572581 223.888819 
L 72.834135 216.223493 
L 72.625033 215.018419 
L 70.733429 206.718976 
L 70.652448 206.148019 
L 69.821205 197.277619 
L 69.106311 188.407219 
L 68.895422 179.536819 
L 69.097749 170.666419 
L 69.423101 161.796019 
L 69.885062 152.925619 
L 70.261085 144.055219 
L 70.514336 135.184819 
L 70.662384 126.314419 
L 70.733429 122.530626 
L 71.379406 117.444019 
L 71.38106 117.429088 
" style="fill:none;stroke:#fde725;stroke-width:1.5;"/>
    <path clip-path="url(#pfe63e4d9b2)" d="M 85.95542 66.359572 
L 87.238552 64.221619 
L 87.539076 64.142932 
L 89.639782 64.051197 
L 91.740488 64.151276 
L 93.12455 64.221619 
L 93.841193 64.59759 
L 95.941899 66.781506 
L 98.042605 71.589489 
L 99.448775 73.092019 
L 100.143311 75.634785 
L 102.244017 81.651227 
L 102.362182 81.962419 
L 104.344723 90.064635 
L 104.51243 90.832819 
L 106.445429 99.06811 
L 106.538652 99.703219 
L 108.524899 108.573619 
L 108.546135 108.672012 
L 109.106156 117.444019 
L 110.64684 124.713369 
L 110.722798 126.314419 
L 111.619466 135.184819 
L 112.747546 140.606425 
L 112.899944 144.055219 
L 113.902772 152.925619 
L 114.848252 157.869895 
L 114.952076 161.796019 
L 115.335254 170.666419 
L 116.247704 179.536819 
L 116.948958 184.663779 
L 116.982582 188.407219 
L 117.048022 197.277619 
L 117.113801 206.148019 
L 117.117974 215.018419 
L 116.977193 223.888819 
L 116.948958 224.572058 
L 115.491817 232.759219 
L 114.914398 241.629619 
L 114.848252 242.805208 
L 113.29989 250.500019 
L 112.747546 256.485806 
L 112.108496 259.370419 
L 110.649178 268.240819 
L 110.64684 268.252646 
L 108.546135 273.200009 
L 107.378065 277.111219 
" style="fill:none;stroke:#fde725;stroke-width:1.5;"/>
   </g>
   <g id="line2d_19">
    <path clip-path="url(#pfe63e4d9b2)" d="M 260.296651 107.501091 
L 235.309435 126.339768 
L 214.282471 143.64441 
L 196.574874 159.2856 
L 181.725817 173.821384 
L 169.207711 186.595805 
L 158.70177 197.926735 
L 149.893124 207.82211 
L 142.512037 215.99516 
L 136.319192 222.581469 
L 131.117772 228.202382 
L 126.768264 232.656402 
L 123.078223 236.056641 
L 119.961324 238.663969 
L 117.352134 240.280929 
L 115.125375 241.487711 
L 113.238355 242.129074 
L 111.653727 242.288794 
L 110.238186 241.866021 
L 109.03461 241.124622 
L 107.96164 239.866734 
L 106.996669 238.575436 
L 106.177215 236.749973 
L 105.428168 234.817597 
L 104.729857 232.811648 
L 104.13168 230.515155 
L 103.577664 227.992471 
L 103.057254 225.620084 
L 102.603629 223.004927 
L 102.135019 220.216447 
L 101.73127 217.49281 
L 101.33044 214.716767 
L 100.985849 211.810716 
L 100.662058 208.874528 
L 100.356087 206.072389 
L 100.052338 203.253595 
L 99.817512 200.230747 
L 99.560897 197.341369 
L 99.332966 194.373674 
L 99.116637 191.515243 
L 98.89548 188.544442 
L 98.701651 185.686122 
L 98.502121 183.006446 
L 98.332809 180.266814 
L 98.116133 177.412624 
L 97.943719 174.507972 
L 97.773248 171.432203 
L 97.560329 168.273673 
L 97.348508 164.605797 
L 97.149107 160.635908 
L 97.189486 159.676111 
L 97.230953 158.770994 
L 97.268599 157.958357 
L 97.307196 157.171495 
L 97.343139 156.441928 
L 97.377495 155.676247 
L 97.412193 154.997564 
L 97.446313 154.324503 
L 97.474856 153.663155 
L 97.501212 153.03011 
L 97.529851 152.420776 
L 97.551103 151.803156 
L 97.575919 151.189132 
L 97.593517 150.640191 
L 97.617825 150.06302 
L 97.633324 149.521969 
L 97.644668 148.979834 
L 97.663317 148.447595 
L 97.674122 147.928347 
L 97.687605 147.426426 
L 97.698419 146.924216 
L 97.70704 146.442156 
L 97.715938 145.94226 
L 97.722273 145.419416 
L 97.723617 144.895815 
L 97.733195 144.794206 
L 97.744775 144.694628 
L 97.755996 144.608071 
L 97.768006 144.534319 
L 97.780052 144.470321 
L 97.793169 144.416378 
L 97.805513 144.368296 
L 97.818095 144.327086 
L 97.830628 144.282626 
L 97.843768 144.242695 
L 97.856505 144.209617 
L 97.869967 144.18346 
L 97.883024 144.161778 
L 97.895221 144.14587 
L 97.908497 144.124378 
L 97.92157 144.102451 
L 97.934722 144.091519 
L 97.947303 144.078434 
L 97.961084 144.071165 
L 97.974764 144.060202 
L 97.988117 144.056794 
L 98.001398 144.058213 
L 98.015278 144.057109 
L 98.028955 144.058631 
" style="fill:none;stroke:#1f77b4;stroke-linecap:square;stroke-width:1.5;"/>
    <defs>
     <path d="M 0 1.5 
C 0.397805 1.5 0.77937 1.341951 1.06066 1.06066 
C 1.341951 0.77937 1.5 0.397805 1.5 0 
C 1.5 -0.397805 1.341951 -0.77937 1.06066 -1.06066 
C 0.77937 -1.341951 0.397805 -1.5 0 -1.5 
C -0.397805 -1.5 -0.77937 -1.341951 -1.06066 -1.06066 
C -1.341951 -0.77937 -1.5 -0.397805 -1.5 0 
C -1.5 0.397805 -1.341951 0.77937 -1.06066 1.06066 
C -0.77937 1.341951 -0.397805 1.5 0 1.5 
z
" id="m10d3a9cccc" style="stroke:#1f77b4;"/>
    </defs>
    <g clip-path="url(#pfe63e4d9b2)">
     <use style="fill:#1f77b4;stroke:#1f77b4;" x="260.296651" xlink:href="#m10d3a9cccc" y="107.501091"/>
     <use style="fill:#1f77b4;stroke:#1f77b4;" x="235.309435" xlink:href="#m10d3a9cccc" y="126.339768"/>
     <use style="fill:#1f77b4;stroke:#1f77b4;" x="214.282471" xlink:href="#m10d3a9cccc" y="143.64441"/>
     <use style="fill:#1f77b4;stroke:#1f77b4;" x="196.574874" xlink:href="#m10d3a9cccc" y="159.2856"/>
     <use style="fill:#1f77b4;stroke:#1f77b4;" x="181.725817" xlink:href="#m10d3a9cccc" y="173.821384"/>
     <use style="fill:#1f77b4;stroke:#1f77b4;" x="169.207711" xlink:href="#m10d3a9cccc" y="186.595805"/>
     <use style="fill:#1f77b4;stroke:#1f77b4;" x="158.70177" xlink:href="#m10d3a9cccc" y="197.926735"/>
     <use style="fill:#1f77b4;stroke:#1f77b4;" x="149.893124" xlink:href="#m10d3a9cccc" y="207.82211"/>
     <use style="fill:#1f77b4;stroke:#1f77b4;" x="142.512037" xlink:href="#m10d3a9cccc" y="215.99516"/>
     <use style="fill:#1f77b4;stroke:#1f77b4;" x="136.319192" xlink:href="#m10d3a9cccc" y="222.581469"/>
     <use style="fill:#1f77b4;stroke:#1f77b4;" x="131.117772" xlink:href="#m10d3a9cccc" y="228.202382"/>
     <use style="fill:#1f77b4;stroke:#1f77b4;" x="126.768264" xlink:href="#m10d3a9cccc" y="232.656402"/>
     <use style="fill:#1f77b4;stroke:#1f77b4;" x="123.078223" xlink:href="#m10d3a9cccc" y="236.056641"/>
     <use style="fill:#1f77b4;stroke:#1f77b4;" x="119.961324" xlink:href="#m10d3a9cccc" y="238.663969"/>
     <use style="fill:#1f77b4;stroke:#1f77b4;" x="117.352134" xlink:href="#m10d3a9cccc" y="240.280929"/>
     <use style="fill:#1f77b4;stroke:#1f77b4;" x="115.125375" xlink:href="#m10d3a9cccc" y="241.487711"/>
     <use style="fill:#1f77b4;stroke:#1f77b4;" x="113.238355" xlink:href="#m10d3a9cccc" y="242.129074"/>
     <use style="fill:#1f77b4;stroke:#1f77b4;" x="111.653727" xlink:href="#m10d3a9cccc" y="242.288794"/>
     <use style="fill:#1f77b4;stroke:#1f77b4;" x="110.238186" xlink:href="#m10d3a9cccc" y="241.866021"/>
     <use style="fill:#1f77b4;stroke:#1f77b4;" x="109.03461" xlink:href="#m10d3a9cccc" y="241.124622"/>
     <use style="fill:#1f77b4;stroke:#1f77b4;" x="107.96164" xlink:href="#m10d3a9cccc" y="239.866734"/>
     <use style="fill:#1f77b4;stroke:#1f77b4;" x="106.996669" xlink:href="#m10d3a9cccc" y="238.575436"/>
     <use style="fill:#1f77b4;stroke:#1f77b4;" x="106.177215" xlink:href="#m10d3a9cccc" y="236.749973"/>
     <use style="fill:#1f77b4;stroke:#1f77b4;" x="105.428168" xlink:href="#m10d3a9cccc" y="234.817597"/>
     <use style="fill:#1f77b4;stroke:#1f77b4;" x="104.729857" xlink:href="#m10d3a9cccc" y="232.811648"/>
     <use style="fill:#1f77b4;stroke:#1f77b4;" x="104.13168" xlink:href="#m10d3a9cccc" y="230.515155"/>
     <use style="fill:#1f77b4;stroke:#1f77b4;" x="103.577664" xlink:href="#m10d3a9cccc" y="227.992471"/>
     <use style="fill:#1f77b4;stroke:#1f77b4;" x="103.057254" xlink:href="#m10d3a9cccc" y="225.620084"/>
     <use style="fill:#1f77b4;stroke:#1f77b4;" x="102.603629" xlink:href="#m10d3a9cccc" y="223.004927"/>
     <use style="fill:#1f77b4;stroke:#1f77b4;" x="102.135019" xlink:href="#m10d3a9cccc" y="220.216447"/>
     <use style="fill:#1f77b4;stroke:#1f77b4;" x="101.73127" xlink:href="#m10d3a9cccc" y="217.49281"/>
     <use style="fill:#1f77b4;stroke:#1f77b4;" x="101.33044" xlink:href="#m10d3a9cccc" y="214.716767"/>
     <use style="fill:#1f77b4;stroke:#1f77b4;" x="100.985849" xlink:href="#m10d3a9cccc" y="211.810716"/>
     <use style="fill:#1f77b4;stroke:#1f77b4;" x="100.662058" xlink:href="#m10d3a9cccc" y="208.874528"/>
     <use style="fill:#1f77b4;stroke:#1f77b4;" x="100.356087" xlink:href="#m10d3a9cccc" y="206.072389"/>
     <use style="fill:#1f77b4;stroke:#1f77b4;" x="100.052338" xlink:href="#m10d3a9cccc" y="203.253595"/>
     <use style="fill:#1f77b4;stroke:#1f77b4;" x="99.817512" xlink:href="#m10d3a9cccc" y="200.230747"/>
     <use style="fill:#1f77b4;stroke:#1f77b4;" x="99.560897" xlink:href="#m10d3a9cccc" y="197.341369"/>
     <use style="fill:#1f77b4;stroke:#1f77b4;" x="99.332966" xlink:href="#m10d3a9cccc" y="194.373674"/>
     <use style="fill:#1f77b4;stroke:#1f77b4;" x="99.116637" xlink:href="#m10d3a9cccc" y="191.515243"/>
     <use style="fill:#1f77b4;stroke:#1f77b4;" x="98.89548" xlink:href="#m10d3a9cccc" y="188.544442"/>
     <use style="fill:#1f77b4;stroke:#1f77b4;" x="98.701651" xlink:href="#m10d3a9cccc" y="185.686122"/>
     <use style="fill:#1f77b4;stroke:#1f77b4;" x="98.502121" xlink:href="#m10d3a9cccc" y="183.006446"/>
     <use style="fill:#1f77b4;stroke:#1f77b4;" x="98.332809" xlink:href="#m10d3a9cccc" y="180.266814"/>
     <use style="fill:#1f77b4;stroke:#1f77b4;" x="98.116133" xlink:href="#m10d3a9cccc" y="177.412624"/>
     <use style="fill:#1f77b4;stroke:#1f77b4;" x="97.943719" xlink:href="#m10d3a9cccc" y="174.507972"/>
     <use style="fill:#1f77b4;stroke:#1f77b4;" x="97.773248" xlink:href="#m10d3a9cccc" y="171.432203"/>
     <use style="fill:#1f77b4;stroke:#1f77b4;" x="97.560329" xlink:href="#m10d3a9cccc" y="168.273673"/>
     <use style="fill:#1f77b4;stroke:#1f77b4;" x="97.348508" xlink:href="#m10d3a9cccc" y="164.605797"/>
     <use style="fill:#1f77b4;stroke:#1f77b4;" x="97.149107" xlink:href="#m10d3a9cccc" y="160.635908"/>
     <use style="fill:#1f77b4;stroke:#1f77b4;" x="97.189486" xlink:href="#m10d3a9cccc" y="159.676111"/>
     <use style="fill:#1f77b4;stroke:#1f77b4;" x="97.230953" xlink:href="#m10d3a9cccc" y="158.770994"/>
     <use style="fill:#1f77b4;stroke:#1f77b4;" x="97.268599" xlink:href="#m10d3a9cccc" y="157.958357"/>
     <use style="fill:#1f77b4;stroke:#1f77b4;" x="97.307196" xlink:href="#m10d3a9cccc" y="157.171495"/>
     <use style="fill:#1f77b4;stroke:#1f77b4;" x="97.343139" xlink:href="#m10d3a9cccc" y="156.441928"/>
     <use style="fill:#1f77b4;stroke:#1f77b4;" x="97.377495" xlink:href="#m10d3a9cccc" y="155.676247"/>
     <use style="fill:#1f77b4;stroke:#1f77b4;" x="97.412193" xlink:href="#m10d3a9cccc" y="154.997564"/>
     <use style="fill:#1f77b4;stroke:#1f77b4;" x="97.446313" xlink:href="#m10d3a9cccc" y="154.324503"/>
     <use style="fill:#1f77b4;stroke:#1f77b4;" x="97.474856" xlink:href="#m10d3a9cccc" y="153.663155"/>
     <use style="fill:#1f77b4;stroke:#1f77b4;" x="97.501212" xlink:href="#m10d3a9cccc" y="153.03011"/>
     <use style="fill:#1f77b4;stroke:#1f77b4;" x="97.529851" xlink:href="#m10d3a9cccc" y="152.420776"/>
     <use style="fill:#1f77b4;stroke:#1f77b4;" x="97.551103" xlink:href="#m10d3a9cccc" y="151.803156"/>
     <use style="fill:#1f77b4;stroke:#1f77b4;" x="97.575919" xlink:href="#m10d3a9cccc" y="151.189132"/>
     <use style="fill:#1f77b4;stroke:#1f77b4;" x="97.593517" xlink:href="#m10d3a9cccc" y="150.640191"/>
     <use style="fill:#1f77b4;stroke:#1f77b4;" x="97.617825" xlink:href="#m10d3a9cccc" y="150.06302"/>
     <use style="fill:#1f77b4;stroke:#1f77b4;" x="97.633324" xlink:href="#m10d3a9cccc" y="149.521969"/>
     <use style="fill:#1f77b4;stroke:#1f77b4;" x="97.644668" xlink:href="#m10d3a9cccc" y="148.979834"/>
     <use style="fill:#1f77b4;stroke:#1f77b4;" x="97.663317" xlink:href="#m10d3a9cccc" y="148.447595"/>
     <use style="fill:#1f77b4;stroke:#1f77b4;" x="97.674122" xlink:href="#m10d3a9cccc" y="147.928347"/>
     <use style="fill:#1f77b4;stroke:#1f77b4;" x="97.687605" xlink:href="#m10d3a9cccc" y="147.426426"/>
     <use style="fill:#1f77b4;stroke:#1f77b4;" x="97.698419" xlink:href="#m10d3a9cccc" y="146.924216"/>
     <use style="fill:#1f77b4;stroke:#1f77b4;" x="97.70704" xlink:href="#m10d3a9cccc" y="146.442156"/>
     <use style="fill:#1f77b4;stroke:#1f77b4;" x="97.715938" xlink:href="#m10d3a9cccc" y="145.94226"/>
     <use style="fill:#1f77b4;stroke:#1f77b4;" x="97.722273" xlink:href="#m10d3a9cccc" y="145.419416"/>
     <use style="fill:#1f77b4;stroke:#1f77b4;" x="97.723617" xlink:href="#m10d3a9cccc" y="144.895815"/>
     <use style="fill:#1f77b4;stroke:#1f77b4;" x="97.733195" xlink:href="#m10d3a9cccc" y="144.794206"/>
     <use style="fill:#1f77b4;stroke:#1f77b4;" x="97.744775" xlink:href="#m10d3a9cccc" y="144.694628"/>
     <use style="fill:#1f77b4;stroke:#1f77b4;" x="97.755996" xlink:href="#m10d3a9cccc" y="144.608071"/>
     <use style="fill:#1f77b4;stroke:#1f77b4;" x="97.768006" xlink:href="#m10d3a9cccc" y="144.534319"/>
     <use style="fill:#1f77b4;stroke:#1f77b4;" x="97.780052" xlink:href="#m10d3a9cccc" y="144.470321"/>
     <use style="fill:#1f77b4;stroke:#1f77b4;" x="97.793169" xlink:href="#m10d3a9cccc" y="144.416378"/>
     <use style="fill:#1f77b4;stroke:#1f77b4;" x="97.805513" xlink:href="#m10d3a9cccc" y="144.368296"/>
     <use style="fill:#1f77b4;stroke:#1f77b4;" x="97.818095" xlink:href="#m10d3a9cccc" y="144.327086"/>
     <use style="fill:#1f77b4;stroke:#1f77b4;" x="97.830628" xlink:href="#m10d3a9cccc" y="144.282626"/>
     <use style="fill:#1f77b4;stroke:#1f77b4;" x="97.843768" xlink:href="#m10d3a9cccc" y="144.242695"/>
     <use style="fill:#1f77b4;stroke:#1f77b4;" x="97.856505" xlink:href="#m10d3a9cccc" y="144.209617"/>
     <use style="fill:#1f77b4;stroke:#1f77b4;" x="97.869967" xlink:href="#m10d3a9cccc" y="144.18346"/>
     <use style="fill:#1f77b4;stroke:#1f77b4;" x="97.883024" xlink:href="#m10d3a9cccc" y="144.161778"/>
     <use style="fill:#1f77b4;stroke:#1f77b4;" x="97.895221" xlink:href="#m10d3a9cccc" y="144.14587"/>
     <use style="fill:#1f77b4;stroke:#1f77b4;" x="97.908497" xlink:href="#m10d3a9cccc" y="144.124378"/>
     <use style="fill:#1f77b4;stroke:#1f77b4;" x="97.92157" xlink:href="#m10d3a9cccc" y="144.102451"/>
     <use style="fill:#1f77b4;stroke:#1f77b4;" x="97.934722" xlink:href="#m10d3a9cccc" y="144.091519"/>
     <use style="fill:#1f77b4;stroke:#1f77b4;" x="97.947303" xlink:href="#m10d3a9cccc" y="144.078434"/>
     <use style="fill:#1f77b4;stroke:#1f77b4;" x="97.961084" xlink:href="#m10d3a9cccc" y="144.071165"/>
     <use style="fill:#1f77b4;stroke:#1f77b4;" x="97.974764" xlink:href="#m10d3a9cccc" y="144.060202"/>
     <use style="fill:#1f77b4;stroke:#1f77b4;" x="97.988117" xlink:href="#m10d3a9cccc" y="144.056794"/>
     <use style="fill:#1f77b4;stroke:#1f77b4;" x="98.001398" xlink:href="#m10d3a9cccc" y="144.058213"/>
     <use style="fill:#1f77b4;stroke:#1f77b4;" x="98.015278" xlink:href="#m10d3a9cccc" y="144.057109"/>
     <use style="fill:#1f77b4;stroke:#1f77b4;" x="98.028955" xlink:href="#m10d3a9cccc" y="144.058631"/>
    </g>
   </g>
   <g id="patch_3">
    <path d="M 56.028488 277.111219 
L 56.028488 10.999219 
" style="fill:none;stroke:#000000;stroke-linecap:square;stroke-linejoin:miter;stroke-width:0.8;"/>
   </g>
   <g id="patch_4">
    <path d="M 413.148488 277.111219 
L 413.148488 10.999219 
" style="fill:none;stroke:#000000;stroke-linecap:square;stroke-linejoin:miter;stroke-width:0.8;"/>
   </g>
   <g id="patch_5">
    <path d="M 56.028488 277.111219 
L 413.148488 277.111219 
" style="fill:none;stroke:#000000;stroke-linecap:square;stroke-linejoin:miter;stroke-width:0.8;"/>
   </g>
   <g id="patch_6">
    <path d="M 56.028488 10.999219 
L 413.148488 10.999219 
" style="fill:none;stroke:#000000;stroke-linecap:square;stroke-linejoin:miter;stroke-width:0.8;"/>
   </g>
   <g id="text_21">
    <g clip-path="url(#pfe63e4d9b2)">
     <!-- 1.000 -->
     <g style="fill:#482576;" transform="translate(93.989145 129.013232)rotate(-304.210577)scale(0.06 -0.06)">
      <use xlink:href="#DejaVuSans-49"/>
      <use x="63.623047" xlink:href="#DejaVuSans-46"/>
      <use x="95.410156" xlink:href="#DejaVuSans-48"/>
      <use x="159.033203" xlink:href="#DejaVuSans-48"/>
      <use x="222.65625" xlink:href="#DejaVuSans-48"/>
     </g>
    </g>
   </g>
   <g id="text_22">
    <g clip-path="url(#pfe63e4d9b2)">
     <!-- 1.500 -->
     <g style="fill:#453781;" transform="translate(99.256175 135.704609)rotate(-276.394572)scale(0.06 -0.06)">
      <use xlink:href="#DejaVuSans-49"/>
      <use x="63.623047" xlink:href="#DejaVuSans-46"/>
      <use x="95.410156" xlink:href="#DejaVuSans-53"/>
      <use x="159.033203" xlink:href="#DejaVuSans-48"/>
      <use x="222.65625" xlink:href="#DejaVuSans-48"/>
     </g>
    </g>
   </g>
   <g id="text_23">
    <g clip-path="url(#pfe63e4d9b2)">
     <!-- 2.000 -->
     <g style="fill:#404688;" transform="translate(87.949459 130.399765)rotate(-16.933661)scale(0.06 -0.06)">
      <use xlink:href="#DejaVuSans-50"/>
      <use x="63.623047" xlink:href="#DejaVuSans-46"/>
      <use x="95.410156" xlink:href="#DejaVuSans-48"/>
      <use x="159.033203" xlink:href="#DejaVuSans-48"/>
      <use x="222.65625" xlink:href="#DejaVuSans-48"/>
     </g>
    </g>
   </g>
   <g id="text_24">
    <g clip-path="url(#pfe63e4d9b2)">
     <!-- 2.500 -->
     <g style="fill:#39558c;" transform="translate(90.628797 152.75406)rotate(-85.076594)scale(0.06 -0.06)">
      <use xlink:href="#DejaVuSans-50"/>
      <use x="63.623047" xlink:href="#DejaVuSans-46"/>
      <use x="95.410156" xlink:href="#DejaVuSans-53"/>
      <use x="159.033203" xlink:href="#DejaVuSans-48"/>
      <use x="222.65625" xlink:href="#DejaVuSans-48"/>
     </g>
    </g>
   </g>
   <g id="text_25">
    <g clip-path="url(#pfe63e4d9b2)">
     <!-- 3.000 -->
     <g style="fill:#33638d;" transform="translate(81.501989 184.76765)rotate(-324.499221)scale(0.06 -0.06)">
      <defs>
       <path d="M 40.578125 39.3125 
Q 47.65625 37.796875 51.625 33 
Q 55.609375 28.21875 55.609375 21.1875 
Q 55.609375 10.40625 48.1875 4.484375 
Q 40.765625 -1.421875 27.09375 -1.421875 
Q 22.515625 -1.421875 17.65625 -0.515625 
Q 12.796875 0.390625 7.625 2.203125 
L 7.625 11.71875 
Q 11.71875 9.328125 16.59375 8.109375 
Q 21.484375 6.890625 26.8125 6.890625 
Q 36.078125 6.890625 40.9375 10.546875 
Q 45.796875 14.203125 45.796875 21.1875 
Q 45.796875 27.640625 41.28125 31.265625 
Q 36.765625 34.90625 28.71875 34.90625 
L 20.21875 34.90625 
L 20.21875 43.015625 
L 29.109375 43.015625 
Q 36.375 43.015625 40.234375 45.921875 
Q 44.09375 48.828125 44.09375 54.296875 
Q 44.09375 59.90625 40.109375 62.90625 
Q 36.140625 65.921875 28.71875 65.921875 
Q 24.65625 65.921875 20.015625 65.03125 
Q 15.375 64.15625 9.8125 62.3125 
L 9.8125 71.09375 
Q 15.4375 72.65625 20.34375 73.4375 
Q 25.25 74.21875 29.59375 74.21875 
Q 40.828125 74.21875 47.359375 69.109375 
Q 53.90625 64.015625 53.90625 55.328125 
Q 53.90625 49.265625 50.4375 45.09375 
Q 46.96875 40.921875 40.578125 39.3125 
z
" id="DejaVuSans-51"/>
      </defs>
      <use xlink:href="#DejaVuSans-51"/>
      <use x="63.623047" xlink:href="#DejaVuSans-46"/>
      <use x="95.410156" xlink:href="#DejaVuSans-48"/>
      <use x="159.033203" xlink:href="#DejaVuSans-48"/>
      <use x="222.65625" xlink:href="#DejaVuSans-48"/>
     </g>
    </g>
   </g>
   <g id="text_26">
    <g clip-path="url(#pfe63e4d9b2)">
     <!-- 3.500 -->
     <g style="fill:#2d718e;" transform="translate(84.665069 180.557375)rotate(-285.260261)scale(0.06 -0.06)">
      <use xlink:href="#DejaVuSans-51"/>
      <use x="63.623047" xlink:href="#DejaVuSans-46"/>
      <use x="95.410156" xlink:href="#DejaVuSans-53"/>
      <use x="159.033203" xlink:href="#DejaVuSans-48"/>
      <use x="222.65625" xlink:href="#DejaVuSans-48"/>
     </g>
    </g>
   </g>
   <g id="text_27">
    <g clip-path="url(#pfe63e4d9b2)">
     <!-- 4.000 -->
     <g style="fill:#287d8e;" transform="translate(85.684467 142.769145)rotate(-66.846883)scale(0.06 -0.06)">
      <use xlink:href="#DejaVuSans-52"/>
      <use x="63.623047" xlink:href="#DejaVuSans-46"/>
      <use x="95.410156" xlink:href="#DejaVuSans-48"/>
      <use x="159.033203" xlink:href="#DejaVuSans-48"/>
      <use x="222.65625" xlink:href="#DejaVuSans-48"/>
     </g>
    </g>
   </g>
   <g id="text_28">
    <g clip-path="url(#pfe63e4d9b2)">
     <!-- 4.500 -->
     <g style="fill:#238a8d;" transform="translate(85.645625 142.11741)rotate(-66.586392)scale(0.06 -0.06)">
      <use xlink:href="#DejaVuSans-52"/>
      <use x="63.623047" xlink:href="#DejaVuSans-46"/>
      <use x="95.410156" xlink:href="#DejaVuSans-53"/>
      <use x="159.033203" xlink:href="#DejaVuSans-48"/>
      <use x="222.65625" xlink:href="#DejaVuSans-48"/>
     </g>
    </g>
   </g>
   <g id="text_29">
    <g clip-path="url(#pfe63e4d9b2)">
     <!-- 5.000 -->
     <g style="fill:#1f968b;" transform="translate(85.402899 141.41673)rotate(-64.952368)scale(0.06 -0.06)">
      <use xlink:href="#DejaVuSans-53"/>
      <use x="63.623047" xlink:href="#DejaVuSans-46"/>
      <use x="95.410156" xlink:href="#DejaVuSans-48"/>
      <use x="159.033203" xlink:href="#DejaVuSans-48"/>
      <use x="222.65625" xlink:href="#DejaVuSans-48"/>
     </g>
    </g>
   </g>
   <g id="text_30">
    <g clip-path="url(#pfe63e4d9b2)">
     <!-- 5.500 -->
     <g style="fill:#20a386;" transform="translate(85.210464 140.722713)rotate(-63.648573)scale(0.06 -0.06)">
      <use xlink:href="#DejaVuSans-53"/>
      <use x="63.623047" xlink:href="#DejaVuSans-46"/>
      <use x="95.410156" xlink:href="#DejaVuSans-53"/>
      <use x="159.033203" xlink:href="#DejaVuSans-48"/>
      <use x="222.65625" xlink:href="#DejaVuSans-48"/>
     </g>
    </g>
   </g>
   <g id="text_31">
    <g clip-path="url(#pfe63e4d9b2)">
     <!-- 6.000 -->
     <g style="fill:#29af7f;" transform="translate(85.025526 140.026221)rotate(-62.387815)scale(0.06 -0.06)">
      <use xlink:href="#DejaVuSans-54"/>
      <use x="63.623047" xlink:href="#DejaVuSans-46"/>
      <use x="95.410156" xlink:href="#DejaVuSans-48"/>
      <use x="159.033203" xlink:href="#DejaVuSans-48"/>
      <use x="222.65625" xlink:href="#DejaVuSans-48"/>
     </g>
    </g>
   </g>
   <g id="text_32">
    <g clip-path="url(#pfe63e4d9b2)">
     <!-- 6.500 -->
     <g style="fill:#3dbc74;" transform="translate(84.846238 139.327108)rotate(-61.157581)scale(0.06 -0.06)">
      <use xlink:href="#DejaVuSans-54"/>
      <use x="63.623047" xlink:href="#DejaVuSans-46"/>
      <use x="95.410156" xlink:href="#DejaVuSans-53"/>
      <use x="159.033203" xlink:href="#DejaVuSans-48"/>
      <use x="222.65625" xlink:href="#DejaVuSans-48"/>
     </g>
    </g>
   </g>
   <g id="text_33">
    <g clip-path="url(#pfe63e4d9b2)">
     <!-- 7.000 -->
     <g style="fill:#56c667;" transform="translate(84.662487 138.622175)rotate(-59.887784)scale(0.06 -0.06)">
      <use xlink:href="#DejaVuSans-55"/>
      <use x="63.623047" xlink:href="#DejaVuSans-46"/>
      <use x="95.410156" xlink:href="#DejaVuSans-48"/>
      <use x="159.033203" xlink:href="#DejaVuSans-48"/>
      <use x="222.65625" xlink:href="#DejaVuSans-48"/>
     </g>
    </g>
   </g>
   <g id="text_34">
    <g clip-path="url(#pfe63e4d9b2)">
     <!-- 7.500 -->
     <g style="fill:#75d054;" transform="translate(84.474479 137.911066)rotate(-58.578334)scale(0.06 -0.06)">
      <use xlink:href="#DejaVuSans-55"/>
      <use x="63.623047" xlink:href="#DejaVuSans-46"/>
      <use x="95.410156" xlink:href="#DejaVuSans-53"/>
      <use x="159.033203" xlink:href="#DejaVuSans-48"/>
      <use x="222.65625" xlink:href="#DejaVuSans-48"/>
     </g>
    </g>
   </g>
   <g id="text_35">
    <g clip-path="url(#pfe63e4d9b2)">
     <!-- 8.000 -->
     <g style="fill:#95d840;" transform="translate(84.270277 137.188531)rotate(-57.143267)scale(0.06 -0.06)">
      <use xlink:href="#DejaVuSans-56"/>
      <use x="63.623047" xlink:href="#DejaVuSans-46"/>
      <use x="95.410156" xlink:href="#DejaVuSans-48"/>
      <use x="159.033203" xlink:href="#DejaVuSans-48"/>
      <use x="222.65625" xlink:href="#DejaVuSans-48"/>
     </g>
    </g>
   </g>
   <g id="text_36">
    <g clip-path="url(#pfe63e4d9b2)">
     <!-- 8.500 -->
     <g style="fill:#bade28;" transform="translate(84.065594 136.459812)rotate(-55.690131)scale(0.06 -0.06)">
      <use xlink:href="#DejaVuSans-56"/>
      <use x="63.623047" xlink:href="#DejaVuSans-46"/>
      <use x="95.410156" xlink:href="#DejaVuSans-53"/>
      <use x="159.033203" xlink:href="#DejaVuSans-48"/>
      <use x="222.65625" xlink:href="#DejaVuSans-48"/>
     </g>
    </g>
   </g>
   <g id="text_37">
    <g clip-path="url(#pfe63e4d9b2)">
     <!-- 9.000 -->
     <g style="fill:#dde318;" transform="translate(83.862673 135.725712)rotate(-54.233592)scale(0.06 -0.06)">
      <defs>
       <path d="M 10.984375 1.515625 
L 10.984375 10.5 
Q 14.703125 8.734375 18.5 7.8125 
Q 22.3125 6.890625 25.984375 6.890625 
Q 35.75 6.890625 40.890625 13.453125 
Q 46.046875 20.015625 46.78125 33.40625 
Q 43.953125 29.203125 39.59375 26.953125 
Q 35.25 24.703125 29.984375 24.703125 
Q 19.046875 24.703125 12.671875 31.3125 
Q 6.296875 37.9375 6.296875 49.421875 
Q 6.296875 60.640625 12.9375 67.421875 
Q 19.578125 74.21875 30.609375 74.21875 
Q 43.265625 74.21875 49.921875 64.515625 
Q 56.59375 54.828125 56.59375 36.375 
Q 56.59375 19.140625 48.40625 8.859375 
Q 40.234375 -1.421875 26.421875 -1.421875 
Q 22.703125 -1.421875 18.890625 -0.6875 
Q 15.09375 0.046875 10.984375 1.515625 
z
M 30.609375 32.421875 
Q 37.25 32.421875 41.125 36.953125 
Q 45.015625 41.5 45.015625 49.421875 
Q 45.015625 57.28125 41.125 61.84375 
Q 37.25 66.40625 30.609375 66.40625 
Q 23.96875 66.40625 20.09375 61.84375 
Q 16.21875 57.28125 16.21875 49.421875 
Q 16.21875 41.5 20.09375 36.953125 
Q 23.96875 32.421875 30.609375 32.421875 
z
" id="DejaVuSans-57"/>
      </defs>
      <use xlink:href="#DejaVuSans-57"/>
      <use x="63.623047" xlink:href="#DejaVuSans-46"/>
      <use x="95.410156" xlink:href="#DejaVuSans-48"/>
      <use x="159.033203" xlink:href="#DejaVuSans-48"/>
      <use x="222.65625" xlink:href="#DejaVuSans-48"/>
     </g>
    </g>
   </g>
   <g id="text_38">
    <g clip-path="url(#pfe63e4d9b2)">
     <!-- 9.500 -->
     <g style="fill:#fde725;" transform="translate(85.151564 143.930527)rotate(-79.889433)scale(0.06 -0.06)">
      <use xlink:href="#DejaVuSans-57"/>
      <use x="63.623047" xlink:href="#DejaVuSans-46"/>
      <use x="95.410156" xlink:href="#DejaVuSans-53"/>
      <use x="159.033203" xlink:href="#DejaVuSans-48"/>
      <use x="222.65625" xlink:href="#DejaVuSans-48"/>
     </g>
    </g>
   </g>
   <g id="text_39">
    <g clip-path="url(#pfe63e4d9b2)">
     <!-- 10.000 -->
     <g style="fill:#440154;" transform="translate(82.104643 135.635187)rotate(-50.281152)scale(0.06 -0.06)">
      <use xlink:href="#DejaVuSans-49"/>
      <use x="63.623047" xlink:href="#DejaVuSans-48"/>
      <use x="127.246094" xlink:href="#DejaVuSans-46"/>
      <use x="159.033203" xlink:href="#DejaVuSans-48"/>
      <use x="222.65625" xlink:href="#DejaVuSans-48"/>
      <use x="286.279297" xlink:href="#DejaVuSans-48"/>
     </g>
    </g>
   </g>
   <g id="text_40">
    <g clip-path="url(#pfe63e4d9b2)">
     <!-- 100.000 -->
     <g style="fill:#440154;" transform="translate(79.294277 223.957505)rotate(-346.348331)scale(0.06 -0.06)">
      <use xlink:href="#DejaVuSans-49"/>
      <use x="63.623047" xlink:href="#DejaVuSans-48"/>
      <use x="127.246094" xlink:href="#DejaVuSans-48"/>
      <use x="190.869141" xlink:href="#DejaVuSans-46"/>
      <use x="222.65625" xlink:href="#DejaVuSans-48"/>
      <use x="286.279297" xlink:href="#DejaVuSans-48"/>
      <use x="349.902344" xlink:href="#DejaVuSans-48"/>
     </g>
    </g>
   </g>
   <g id="text_41">
    <g clip-path="url(#pfe63e4d9b2)">
     <!-- 1000.000 -->
     <g style="fill:#440154;" transform="translate(81.106903 149.594645)rotate(-83.764241)scale(0.06 -0.06)">
      <use xlink:href="#DejaVuSans-49"/>
      <use x="63.623047" xlink:href="#DejaVuSans-48"/>
      <use x="127.246094" xlink:href="#DejaVuSans-48"/>
      <use x="190.869141" xlink:href="#DejaVuSans-48"/>
      <use x="254.492188" xlink:href="#DejaVuSans-46"/>
      <use x="286.279297" xlink:href="#DejaVuSans-48"/>
      <use x="349.902344" xlink:href="#DejaVuSans-48"/>
      <use x="413.525391" xlink:href="#DejaVuSans-48"/>
     </g>
    </g>
   </g>
   <g id="text_42">
    <g clip-path="url(#pfe63e4d9b2)">
     <!-- 10000.000 -->
     <g style="fill:#440154;" transform="translate(78.9563 142.611438)rotate(-82.099399)scale(0.06 -0.06)">
      <use xlink:href="#DejaVuSans-49"/>
      <use x="63.623047" xlink:href="#DejaVuSans-48"/>
      <use x="127.246094" xlink:href="#DejaVuSans-48"/>
      <use x="190.869141" xlink:href="#DejaVuSans-48"/>
      <use x="254.492188" xlink:href="#DejaVuSans-48"/>
      <use x="318.115234" xlink:href="#DejaVuSans-46"/>
      <use x="349.902344" xlink:href="#DejaVuSans-48"/>
      <use x="413.525391" xlink:href="#DejaVuSans-48"/>
      <use x="477.148438" xlink:href="#DejaVuSans-48"/>
     </g>
    </g>
   </g>
   <g id="text_43">
    <g clip-path="url(#pfe63e4d9b2)">
     <!-- 100000.000 -->
     <g style="fill:#440154;" transform="translate(83.174442 278.694866)rotate(-29.823551)scale(0.06 -0.06)">
      <use xlink:href="#DejaVuSans-49"/>
      <use x="63.623047" xlink:href="#DejaVuSans-48"/>
      <use x="127.246094" xlink:href="#DejaVuSans-48"/>
      <use x="190.869141" xlink:href="#DejaVuSans-48"/>
      <use x="254.492188" xlink:href="#DejaVuSans-48"/>
      <use x="318.115234" xlink:href="#DejaVuSans-48"/>
      <use x="381.738281" xlink:href="#DejaVuSans-46"/>
      <use x="413.525391" xlink:href="#DejaVuSans-48"/>
      <use x="477.148438" xlink:href="#DejaVuSans-48"/>
      <use x="540.771484" xlink:href="#DejaVuSans-48"/>
     </g>
    </g>
   </g>
   <g id="text_44">
    <g clip-path="url(#pfe63e4d9b2)">
     <!-- 1000000.000 -->
     <g style="fill:#450457;" transform="translate(75.07623 137.528115)rotate(-82.413662)scale(0.06 -0.06)">
      <use xlink:href="#DejaVuSans-49"/>
      <use x="63.623047" xlink:href="#DejaVuSans-48"/>
      <use x="127.246094" xlink:href="#DejaVuSans-48"/>
      <use x="190.869141" xlink:href="#DejaVuSans-48"/>
      <use x="254.492188" xlink:href="#DejaVuSans-48"/>
      <use x="318.115234" xlink:href="#DejaVuSans-48"/>
      <use x="381.738281" xlink:href="#DejaVuSans-48"/>
      <use x="445.361328" xlink:href="#DejaVuSans-46"/>
      <use x="477.148438" xlink:href="#DejaVuSans-48"/>
      <use x="540.771484" xlink:href="#DejaVuSans-48"/>
      <use x="604.394531" xlink:href="#DejaVuSans-48"/>
     </g>
    </g>
   </g>
   <g id="text_45">
    <g clip-path="url(#pfe63e4d9b2)">
     <!-- 10000000.000 -->
     <g style="fill:#482475;" transform="translate(72.744543 130.499136)rotate(-80.604705)scale(0.06 -0.06)">
      <use xlink:href="#DejaVuSans-49"/>
      <use x="63.623047" xlink:href="#DejaVuSans-48"/>
      <use x="127.246094" xlink:href="#DejaVuSans-48"/>
      <use x="190.869141" xlink:href="#DejaVuSans-48"/>
      <use x="254.492188" xlink:href="#DejaVuSans-48"/>
      <use x="318.115234" xlink:href="#DejaVuSans-48"/>
      <use x="381.738281" xlink:href="#DejaVuSans-48"/>
      <use x="445.361328" xlink:href="#DejaVuSans-48"/>
      <use x="508.984375" xlink:href="#DejaVuSans-46"/>
      <use x="540.771484" xlink:href="#DejaVuSans-48"/>
      <use x="604.394531" xlink:href="#DejaVuSans-48"/>
      <use x="668.017578" xlink:href="#DejaVuSans-48"/>
     </g>
    </g>
   </g>
   <g id="text_46">
    <g clip-path="url(#pfe63e4d9b2)">
     <!-- 100000000.000 -->
     <g style="fill:#fde725;" transform="translate(70.848582 114.261936)rotate(-74.451603)scale(0.06 -0.06)">
      <use xlink:href="#DejaVuSans-49"/>
      <use x="63.623047" xlink:href="#DejaVuSans-48"/>
      <use x="127.246094" xlink:href="#DejaVuSans-48"/>
      <use x="190.869141" xlink:href="#DejaVuSans-48"/>
      <use x="254.492188" xlink:href="#DejaVuSans-48"/>
      <use x="318.115234" xlink:href="#DejaVuSans-48"/>
      <use x="381.738281" xlink:href="#DejaVuSans-48"/>
      <use x="445.361328" xlink:href="#DejaVuSans-48"/>
      <use x="508.984375" xlink:href="#DejaVuSans-48"/>
      <use x="572.607422" xlink:href="#DejaVuSans-46"/>
      <use x="604.394531" xlink:href="#DejaVuSans-48"/>
      <use x="668.017578" xlink:href="#DejaVuSans-48"/>
      <use x="731.640625" xlink:href="#DejaVuSans-48"/>
     </g>
    </g>
   </g>
  </g>
 </g>
 <defs>
  <clipPath id="pfe63e4d9b2">
   <rect height="266.112" width="357.12" x="56.028488" y="10.999219"/>
  </clipPath>
 </defs>
</svg>
