<?xml version="1.0" encoding="utf-8" standalone="no"?>
<!DOCTYPE svg PUBLIC "-//W3C//DTD SVG 1.1//EN"
  "http://www.w3.org/Graphics/SVG/1.1/DTD/svg11.dtd">
<!-- Created with matplotlib (https://matplotlib.org/) -->
<svg height="317.913925pt" version="1.1" viewBox="0 0 426.710987 317.913925" width="426.710987pt" xmlns="http://www.w3.org/2000/svg" xmlns:xlink="http://www.w3.org/1999/xlink">
 <metadata>
  <rdf:RDF xmlns:cc="http://creativecommons.org/ns#" xmlns:dc="http://purl.org/dc/elements/1.1/" xmlns:rdf="http://www.w3.org/1999/02/22-rdf-syntax-ns#">
   <cc:Work>
    <dc:type rdf:resource="http://purl.org/dc/dcmitype/StillImage"/>
    <dc:date>2021-09-17T13:41:24.213407</dc:date>
    <dc:format>image/svg+xml</dc:format>
    <dc:creator>
     <cc:Agent>
      <dc:title>Matplotlib v3.3.1, https://matplotlib.org/</dc:title>
     </cc:Agent>
    </dc:creator>
   </cc:Work>
  </rdf:RDF>
 </metadata>
 <defs>
  <style type="text/css">*{stroke-linecap:butt;stroke-linejoin:round;}</style>
 </defs>
 <g id="figure_1">
  <g id="patch_1">
   <path d="M 0 317.913925 
L 426.710987 317.913925 
L 426.710987 0 
L 0 0 
z
" style="fill:#ffffff;"/>
  </g>
  <g id="axes_1">
   <g id="patch_2">
    <path d="M 56.028488 273.312 
L 413.148488 273.312 
L 413.148488 7.2 
L 56.028488 7.2 
z
" style="fill:#ffffff;"/>
   </g>
   <g id="matplotlib.axis_1">
    <g id="xtick_1">
     <g id="line2d_1">
      <defs>
       <path d="M 0 0 
L 0 3.5 
" id="m324ee2caa3" style="stroke:#000000;stroke-width:0.8;"/>
      </defs>
      <g>
       <use style="stroke:#000000;stroke-width:0.8;" x="56.028488" xlink:href="#m324ee2caa3" y="273.312"/>
      </g>
     </g>
     <g id="text_1">
      <!-- −20 -->
      <g transform="translate(45.476144 287.910437)scale(0.1 -0.1)">
       <defs>
        <path d="M 10.59375 35.5 
L 73.1875 35.5 
L 73.1875 27.203125 
L 10.59375 27.203125 
z
" id="DejaVuSans-8722"/>
        <path d="M 19.1875 8.296875 
L 53.609375 8.296875 
L 53.609375 0 
L 7.328125 0 
L 7.328125 8.296875 
Q 12.9375 14.109375 22.625 23.890625 
Q 32.328125 33.6875 34.8125 36.53125 
Q 39.546875 41.84375 41.421875 45.53125 
Q 43.3125 49.21875 43.3125 52.78125 
Q 43.3125 58.59375 39.234375 62.25 
Q 35.15625 65.921875 28.609375 65.921875 
Q 23.96875 65.921875 18.8125 64.3125 
Q 13.671875 62.703125 7.8125 59.421875 
L 7.8125 69.390625 
Q 13.765625 71.78125 18.9375 73 
Q 24.125 74.21875 28.421875 74.21875 
Q 39.75 74.21875 46.484375 68.546875 
Q 53.21875 62.890625 53.21875 53.421875 
Q 53.21875 48.921875 51.53125 44.890625 
Q 49.859375 40.875 45.40625 35.40625 
Q 44.1875 33.984375 37.640625 27.21875 
Q 31.109375 20.453125 19.1875 8.296875 
z
" id="DejaVuSans-50"/>
        <path d="M 31.78125 66.40625 
Q 24.171875 66.40625 20.328125 58.90625 
Q 16.5 51.421875 16.5 36.375 
Q 16.5 21.390625 20.328125 13.890625 
Q 24.171875 6.390625 31.78125 6.390625 
Q 39.453125 6.390625 43.28125 13.890625 
Q 47.125 21.390625 47.125 36.375 
Q 47.125 51.421875 43.28125 58.90625 
Q 39.453125 66.40625 31.78125 66.40625 
z
M 31.78125 74.21875 
Q 44.046875 74.21875 50.515625 64.515625 
Q 56.984375 54.828125 56.984375 36.375 
Q 56.984375 17.96875 50.515625 8.265625 
Q 44.046875 -1.421875 31.78125 -1.421875 
Q 19.53125 -1.421875 13.0625 8.265625 
Q 6.59375 17.96875 6.59375 36.375 
Q 6.59375 54.828125 13.0625 64.515625 
Q 19.53125 74.21875 31.78125 74.21875 
z
" id="DejaVuSans-48"/>
       </defs>
       <use xlink:href="#DejaVuSans-8722"/>
       <use x="83.789062" xlink:href="#DejaVuSans-50"/>
       <use x="147.412109" xlink:href="#DejaVuSans-48"/>
      </g>
     </g>
    </g>
    <g id="xtick_2">
     <g id="line2d_2">
      <g>
       <use style="stroke:#000000;stroke-width:0.8;" x="95.708488" xlink:href="#m324ee2caa3" y="273.312"/>
      </g>
     </g>
     <g id="text_2">
      <!-- −10 -->
      <g transform="translate(85.156144 287.910437)scale(0.1 -0.1)">
       <defs>
        <path d="M 12.40625 8.296875 
L 28.515625 8.296875 
L 28.515625 63.921875 
L 10.984375 60.40625 
L 10.984375 69.390625 
L 28.421875 72.90625 
L 38.28125 72.90625 
L 38.28125 8.296875 
L 54.390625 8.296875 
L 54.390625 0 
L 12.40625 0 
z
" id="DejaVuSans-49"/>
       </defs>
       <use xlink:href="#DejaVuSans-8722"/>
       <use x="83.789062" xlink:href="#DejaVuSans-49"/>
       <use x="147.412109" xlink:href="#DejaVuSans-48"/>
      </g>
     </g>
    </g>
    <g id="xtick_3">
     <g id="line2d_3">
      <g>
       <use style="stroke:#000000;stroke-width:0.8;" x="135.388488" xlink:href="#m324ee2caa3" y="273.312"/>
      </g>
     </g>
     <g id="text_3">
      <!-- 0 -->
      <g transform="translate(132.207238 287.910437)scale(0.1 -0.1)">
       <use xlink:href="#DejaVuSans-48"/>
      </g>
     </g>
    </g>
    <g id="xtick_4">
     <g id="line2d_4">
      <g>
       <use style="stroke:#000000;stroke-width:0.8;" x="175.068488" xlink:href="#m324ee2caa3" y="273.312"/>
      </g>
     </g>
     <g id="text_4">
      <!-- 10 -->
      <g transform="translate(168.705988 287.910437)scale(0.1 -0.1)">
       <use xlink:href="#DejaVuSans-49"/>
       <use x="63.623047" xlink:href="#DejaVuSans-48"/>
      </g>
     </g>
    </g>
    <g id="xtick_5">
     <g id="line2d_5">
      <g>
       <use style="stroke:#000000;stroke-width:0.8;" x="214.748488" xlink:href="#m324ee2caa3" y="273.312"/>
      </g>
     </g>
     <g id="text_5">
      <!-- 20 -->
      <g transform="translate(208.385988 287.910437)scale(0.1 -0.1)">
       <use xlink:href="#DejaVuSans-50"/>
       <use x="63.623047" xlink:href="#DejaVuSans-48"/>
      </g>
     </g>
    </g>
    <g id="xtick_6">
     <g id="line2d_6">
      <g>
       <use style="stroke:#000000;stroke-width:0.8;" x="254.428488" xlink:href="#m324ee2caa3" y="273.312"/>
      </g>
     </g>
     <g id="text_6">
      <!-- 30 -->
      <g transform="translate(248.065988 287.910437)scale(0.1 -0.1)">
       <defs>
        <path d="M 40.578125 39.3125 
Q 47.65625 37.796875 51.625 33 
Q 55.609375 28.21875 55.609375 21.1875 
Q 55.609375 10.40625 48.1875 4.484375 
Q 40.765625 -1.421875 27.09375 -1.421875 
Q 22.515625 -1.421875 17.65625 -0.515625 
Q 12.796875 0.390625 7.625 2.203125 
L 7.625 11.71875 
Q 11.71875 9.328125 16.59375 8.109375 
Q 21.484375 6.890625 26.8125 6.890625 
Q 36.078125 6.890625 40.9375 10.546875 
Q 45.796875 14.203125 45.796875 21.1875 
Q 45.796875 27.640625 41.28125 31.265625 
Q 36.765625 34.90625 28.71875 34.90625 
L 20.21875 34.90625 
L 20.21875 43.015625 
L 29.109375 43.015625 
Q 36.375 43.015625 40.234375 45.921875 
Q 44.09375 48.828125 44.09375 54.296875 
Q 44.09375 59.90625 40.109375 62.90625 
Q 36.140625 65.921875 28.71875 65.921875 
Q 24.65625 65.921875 20.015625 65.03125 
Q 15.375 64.15625 9.8125 62.3125 
L 9.8125 71.09375 
Q 15.4375 72.65625 20.34375 73.4375 
Q 25.25 74.21875 29.59375 74.21875 
Q 40.828125 74.21875 47.359375 69.109375 
Q 53.90625 64.015625 53.90625 55.328125 
Q 53.90625 49.265625 50.4375 45.09375 
Q 46.96875 40.921875 40.578125 39.3125 
z
" id="DejaVuSans-51"/>
       </defs>
       <use xlink:href="#DejaVuSans-51"/>
       <use x="63.623047" xlink:href="#DejaVuSans-48"/>
      </g>
     </g>
    </g>
    <g id="xtick_7">
     <g id="line2d_7">
      <g>
       <use style="stroke:#000000;stroke-width:0.8;" x="294.108488" xlink:href="#m324ee2caa3" y="273.312"/>
      </g>
     </g>
     <g id="text_7">
      <!-- 40 -->
      <g transform="translate(287.745988 287.910437)scale(0.1 -0.1)">
       <defs>
        <path d="M 37.796875 64.3125 
L 12.890625 25.390625 
L 37.796875 25.390625 
z
M 35.203125 72.90625 
L 47.609375 72.90625 
L 47.609375 25.390625 
L 58.015625 25.390625 
L 58.015625 17.1875 
L 47.609375 17.1875 
L 47.609375 0 
L 37.796875 0 
L 37.796875 17.1875 
L 4.890625 17.1875 
L 4.890625 26.703125 
z
" id="DejaVuSans-52"/>
       </defs>
       <use xlink:href="#DejaVuSans-52"/>
       <use x="63.623047" xlink:href="#DejaVuSans-48"/>
      </g>
     </g>
    </g>
    <g id="xtick_8">
     <g id="line2d_8">
      <g>
       <use style="stroke:#000000;stroke-width:0.8;" x="333.788488" xlink:href="#m324ee2caa3" y="273.312"/>
      </g>
     </g>
     <g id="text_8">
      <!-- 50 -->
      <g transform="translate(327.425988 287.910437)scale(0.1 -0.1)">
       <defs>
        <path d="M 10.796875 72.90625 
L 49.515625 72.90625 
L 49.515625 64.59375 
L 19.828125 64.59375 
L 19.828125 46.734375 
Q 21.96875 47.46875 24.109375 47.828125 
Q 26.265625 48.1875 28.421875 48.1875 
Q 40.625 48.1875 47.75 41.5 
Q 54.890625 34.8125 54.890625 23.390625 
Q 54.890625 11.625 47.5625 5.09375 
Q 40.234375 -1.421875 26.90625 -1.421875 
Q 22.3125 -1.421875 17.546875 -0.640625 
Q 12.796875 0.140625 7.71875 1.703125 
L 7.71875 11.625 
Q 12.109375 9.234375 16.796875 8.0625 
Q 21.484375 6.890625 26.703125 6.890625 
Q 35.15625 6.890625 40.078125 11.328125 
Q 45.015625 15.765625 45.015625 23.390625 
Q 45.015625 31 40.078125 35.4375 
Q 35.15625 39.890625 26.703125 39.890625 
Q 22.75 39.890625 18.8125 39.015625 
Q 14.890625 38.140625 10.796875 36.28125 
z
" id="DejaVuSans-53"/>
       </defs>
       <use xlink:href="#DejaVuSans-53"/>
       <use x="63.623047" xlink:href="#DejaVuSans-48"/>
      </g>
     </g>
    </g>
    <g id="xtick_9">
     <g id="line2d_9">
      <g>
       <use style="stroke:#000000;stroke-width:0.8;" x="373.468488" xlink:href="#m324ee2caa3" y="273.312"/>
      </g>
     </g>
     <g id="text_9">
      <!-- 60 -->
      <g transform="translate(367.105988 287.910437)scale(0.1 -0.1)">
       <defs>
        <path d="M 33.015625 40.375 
Q 26.375 40.375 22.484375 35.828125 
Q 18.609375 31.296875 18.609375 23.390625 
Q 18.609375 15.53125 22.484375 10.953125 
Q 26.375 6.390625 33.015625 6.390625 
Q 39.65625 6.390625 43.53125 10.953125 
Q 47.40625 15.53125 47.40625 23.390625 
Q 47.40625 31.296875 43.53125 35.828125 
Q 39.65625 40.375 33.015625 40.375 
z
M 52.59375 71.296875 
L 52.59375 62.3125 
Q 48.875 64.0625 45.09375 64.984375 
Q 41.3125 65.921875 37.59375 65.921875 
Q 27.828125 65.921875 22.671875 59.328125 
Q 17.53125 52.734375 16.796875 39.40625 
Q 19.671875 43.65625 24.015625 45.921875 
Q 28.375 48.1875 33.59375 48.1875 
Q 44.578125 48.1875 50.953125 41.515625 
Q 57.328125 34.859375 57.328125 23.390625 
Q 57.328125 12.15625 50.6875 5.359375 
Q 44.046875 -1.421875 33.015625 -1.421875 
Q 20.359375 -1.421875 13.671875 8.265625 
Q 6.984375 17.96875 6.984375 36.375 
Q 6.984375 53.65625 15.1875 63.9375 
Q 23.390625 74.21875 37.203125 74.21875 
Q 40.921875 74.21875 44.703125 73.484375 
Q 48.484375 72.75 52.59375 71.296875 
z
" id="DejaVuSans-54"/>
       </defs>
       <use xlink:href="#DejaVuSans-54"/>
       <use x="63.623047" xlink:href="#DejaVuSans-48"/>
      </g>
     </g>
    </g>
    <g id="xtick_10">
     <g id="line2d_10">
      <g>
       <use style="stroke:#000000;stroke-width:0.8;" x="413.148488" xlink:href="#m324ee2caa3" y="273.312"/>
      </g>
     </g>
     <g id="text_10">
      <!-- 70 -->
      <g transform="translate(406.785988 287.910437)scale(0.1 -0.1)">
       <defs>
        <path d="M 8.203125 72.90625 
L 55.078125 72.90625 
L 55.078125 68.703125 
L 28.609375 0 
L 18.3125 0 
L 43.21875 64.59375 
L 8.203125 64.59375 
z
" id="DejaVuSans-55"/>
       </defs>
       <use xlink:href="#DejaVuSans-55"/>
       <use x="63.623047" xlink:href="#DejaVuSans-48"/>
      </g>
     </g>
    </g>
    <g id="text_11">
     <!-- 1st PC: 98.74 % -->
     <g transform="translate(165.868088 307.120225)scale(0.1728 -0.1728)">
      <defs>
       <path d="M 44.28125 53.078125 
L 44.28125 44.578125 
Q 40.484375 46.53125 36.375 47.5 
Q 32.28125 48.484375 27.875 48.484375 
Q 21.1875 48.484375 17.84375 46.4375 
Q 14.5 44.390625 14.5 40.28125 
Q 14.5 37.15625 16.890625 35.375 
Q 19.28125 33.59375 26.515625 31.984375 
L 29.59375 31.296875 
Q 39.15625 29.25 43.1875 25.515625 
Q 47.21875 21.78125 47.21875 15.09375 
Q 47.21875 7.46875 41.1875 3.015625 
Q 35.15625 -1.421875 24.609375 -1.421875 
Q 20.21875 -1.421875 15.453125 -0.5625 
Q 10.6875 0.296875 5.421875 2 
L 5.421875 11.28125 
Q 10.40625 8.6875 15.234375 7.390625 
Q 20.0625 6.109375 24.8125 6.109375 
Q 31.15625 6.109375 34.5625 8.28125 
Q 37.984375 10.453125 37.984375 14.40625 
Q 37.984375 18.0625 35.515625 20.015625 
Q 33.0625 21.96875 24.703125 23.78125 
L 21.578125 24.515625 
Q 13.234375 26.265625 9.515625 29.90625 
Q 5.8125 33.546875 5.8125 39.890625 
Q 5.8125 47.609375 11.28125 51.796875 
Q 16.75 56 26.8125 56 
Q 31.78125 56 36.171875 55.265625 
Q 40.578125 54.546875 44.28125 53.078125 
z
" id="DejaVuSans-115"/>
       <path d="M 18.3125 70.21875 
L 18.3125 54.6875 
L 36.8125 54.6875 
L 36.8125 47.703125 
L 18.3125 47.703125 
L 18.3125 18.015625 
Q 18.3125 11.328125 20.140625 9.421875 
Q 21.96875 7.515625 27.59375 7.515625 
L 36.8125 7.515625 
L 36.8125 0 
L 27.59375 0 
Q 17.1875 0 13.234375 3.875 
Q 9.28125 7.765625 9.28125 18.015625 
L 9.28125 47.703125 
L 2.6875 47.703125 
L 2.6875 54.6875 
L 9.28125 54.6875 
L 9.28125 70.21875 
z
" id="DejaVuSans-116"/>
       <path id="DejaVuSans-32"/>
       <path d="M 19.671875 64.796875 
L 19.671875 37.40625 
L 32.078125 37.40625 
Q 38.96875 37.40625 42.71875 40.96875 
Q 46.484375 44.53125 46.484375 51.125 
Q 46.484375 57.671875 42.71875 61.234375 
Q 38.96875 64.796875 32.078125 64.796875 
z
M 9.8125 72.90625 
L 32.078125 72.90625 
Q 44.34375 72.90625 50.609375 67.359375 
Q 56.890625 61.8125 56.890625 51.125 
Q 56.890625 40.328125 50.609375 34.8125 
Q 44.34375 29.296875 32.078125 29.296875 
L 19.671875 29.296875 
L 19.671875 0 
L 9.8125 0 
z
" id="DejaVuSans-80"/>
       <path d="M 64.40625 67.28125 
L 64.40625 56.890625 
Q 59.421875 61.53125 53.78125 63.8125 
Q 48.140625 66.109375 41.796875 66.109375 
Q 29.296875 66.109375 22.65625 58.46875 
Q 16.015625 50.828125 16.015625 36.375 
Q 16.015625 21.96875 22.65625 14.328125 
Q 29.296875 6.6875 41.796875 6.6875 
Q 48.140625 6.6875 53.78125 8.984375 
Q 59.421875 11.28125 64.40625 15.921875 
L 64.40625 5.609375 
Q 59.234375 2.09375 53.4375 0.328125 
Q 47.65625 -1.421875 41.21875 -1.421875 
Q 24.65625 -1.421875 15.125 8.703125 
Q 5.609375 18.84375 5.609375 36.375 
Q 5.609375 53.953125 15.125 64.078125 
Q 24.65625 74.21875 41.21875 74.21875 
Q 47.75 74.21875 53.53125 72.484375 
Q 59.328125 70.75 64.40625 67.28125 
z
" id="DejaVuSans-67"/>
       <path d="M 11.71875 12.40625 
L 22.015625 12.40625 
L 22.015625 0 
L 11.71875 0 
z
M 11.71875 51.703125 
L 22.015625 51.703125 
L 22.015625 39.3125 
L 11.71875 39.3125 
z
" id="DejaVuSans-58"/>
       <path d="M 10.984375 1.515625 
L 10.984375 10.5 
Q 14.703125 8.734375 18.5 7.8125 
Q 22.3125 6.890625 25.984375 6.890625 
Q 35.75 6.890625 40.890625 13.453125 
Q 46.046875 20.015625 46.78125 33.40625 
Q 43.953125 29.203125 39.59375 26.953125 
Q 35.25 24.703125 29.984375 24.703125 
Q 19.046875 24.703125 12.671875 31.3125 
Q 6.296875 37.9375 6.296875 49.421875 
Q 6.296875 60.640625 12.9375 67.421875 
Q 19.578125 74.21875 30.609375 74.21875 
Q 43.265625 74.21875 49.921875 64.515625 
Q 56.59375 54.828125 56.59375 36.375 
Q 56.59375 19.140625 48.40625 8.859375 
Q 40.234375 -1.421875 26.421875 -1.421875 
Q 22.703125 -1.421875 18.890625 -0.6875 
Q 15.09375 0.046875 10.984375 1.515625 
z
M 30.609375 32.421875 
Q 37.25 32.421875 41.125 36.953125 
Q 45.015625 41.5 45.015625 49.421875 
Q 45.015625 57.28125 41.125 61.84375 
Q 37.25 66.40625 30.609375 66.40625 
Q 23.96875 66.40625 20.09375 61.84375 
Q 16.21875 57.28125 16.21875 49.421875 
Q 16.21875 41.5 20.09375 36.953125 
Q 23.96875 32.421875 30.609375 32.421875 
z
" id="DejaVuSans-57"/>
       <path d="M 31.78125 34.625 
Q 24.75 34.625 20.71875 30.859375 
Q 16.703125 27.09375 16.703125 20.515625 
Q 16.703125 13.921875 20.71875 10.15625 
Q 24.75 6.390625 31.78125 6.390625 
Q 38.8125 6.390625 42.859375 10.171875 
Q 46.921875 13.96875 46.921875 20.515625 
Q 46.921875 27.09375 42.890625 30.859375 
Q 38.875 34.625 31.78125 34.625 
z
M 21.921875 38.8125 
Q 15.578125 40.375 12.03125 44.71875 
Q 8.5 49.078125 8.5 55.328125 
Q 8.5 64.0625 14.71875 69.140625 
Q 20.953125 74.21875 31.78125 74.21875 
Q 42.671875 74.21875 48.875 69.140625 
Q 55.078125 64.0625 55.078125 55.328125 
Q 55.078125 49.078125 51.53125 44.71875 
Q 48 40.375 41.703125 38.8125 
Q 48.828125 37.15625 52.796875 32.3125 
Q 56.78125 27.484375 56.78125 20.515625 
Q 56.78125 9.90625 50.3125 4.234375 
Q 43.84375 -1.421875 31.78125 -1.421875 
Q 19.734375 -1.421875 13.25 4.234375 
Q 6.78125 9.90625 6.78125 20.515625 
Q 6.78125 27.484375 10.78125 32.3125 
Q 14.796875 37.15625 21.921875 38.8125 
z
M 18.3125 54.390625 
Q 18.3125 48.734375 21.84375 45.5625 
Q 25.390625 42.390625 31.78125 42.390625 
Q 38.140625 42.390625 41.71875 45.5625 
Q 45.3125 48.734375 45.3125 54.390625 
Q 45.3125 60.0625 41.71875 63.234375 
Q 38.140625 66.40625 31.78125 66.40625 
Q 25.390625 66.40625 21.84375 63.234375 
Q 18.3125 60.0625 18.3125 54.390625 
z
" id="DejaVuSans-56"/>
       <path d="M 10.6875 12.40625 
L 21 12.40625 
L 21 0 
L 10.6875 0 
z
" id="DejaVuSans-46"/>
       <path d="M 72.703125 32.078125 
Q 68.453125 32.078125 66.03125 28.46875 
Q 63.625 24.859375 63.625 18.40625 
Q 63.625 12.0625 66.03125 8.421875 
Q 68.453125 4.78125 72.703125 4.78125 
Q 76.859375 4.78125 79.265625 8.421875 
Q 81.6875 12.0625 81.6875 18.40625 
Q 81.6875 24.8125 79.265625 28.4375 
Q 76.859375 32.078125 72.703125 32.078125 
z
M 72.703125 38.28125 
Q 80.421875 38.28125 84.953125 32.90625 
Q 89.5 27.546875 89.5 18.40625 
Q 89.5 9.28125 84.9375 3.921875 
Q 80.375 -1.421875 72.703125 -1.421875 
Q 64.890625 -1.421875 60.34375 3.921875 
Q 55.8125 9.28125 55.8125 18.40625 
Q 55.8125 27.59375 60.375 32.9375 
Q 64.9375 38.28125 72.703125 38.28125 
z
M 22.3125 68.015625 
Q 18.109375 68.015625 15.6875 64.375 
Q 13.28125 60.75 13.28125 54.390625 
Q 13.28125 47.953125 15.671875 44.328125 
Q 18.0625 40.71875 22.3125 40.71875 
Q 26.5625 40.71875 28.96875 44.328125 
Q 31.390625 47.953125 31.390625 54.390625 
Q 31.390625 60.6875 28.953125 64.34375 
Q 26.515625 68.015625 22.3125 68.015625 
z
M 66.40625 74.21875 
L 74.21875 74.21875 
L 28.609375 -1.421875 
L 20.796875 -1.421875 
z
M 22.3125 74.21875 
Q 30.03125 74.21875 34.609375 68.875 
Q 39.203125 63.53125 39.203125 54.390625 
Q 39.203125 45.171875 34.640625 39.84375 
Q 30.078125 34.515625 22.3125 34.515625 
Q 14.546875 34.515625 10.03125 39.859375 
Q 5.515625 45.21875 5.515625 54.390625 
Q 5.515625 63.484375 10.046875 68.84375 
Q 14.59375 74.21875 22.3125 74.21875 
z
" id="DejaVuSans-37"/>
      </defs>
      <use xlink:href="#DejaVuSans-49"/>
      <use x="63.623047" xlink:href="#DejaVuSans-115"/>
      <use x="115.722656" xlink:href="#DejaVuSans-116"/>
      <use x="154.931641" xlink:href="#DejaVuSans-32"/>
      <use x="186.71875" xlink:href="#DejaVuSans-80"/>
      <use x="247.021484" xlink:href="#DejaVuSans-67"/>
      <use x="316.845703" xlink:href="#DejaVuSans-58"/>
      <use x="350.537109" xlink:href="#DejaVuSans-32"/>
      <use x="382.324219" xlink:href="#DejaVuSans-57"/>
      <use x="445.947266" xlink:href="#DejaVuSans-56"/>
      <use x="509.570312" xlink:href="#DejaVuSans-46"/>
      <use x="541.357422" xlink:href="#DejaVuSans-55"/>
      <use x="604.980469" xlink:href="#DejaVuSans-52"/>
      <use x="668.603516" xlink:href="#DejaVuSans-32"/>
      <use x="700.390625" xlink:href="#DejaVuSans-37"/>
     </g>
    </g>
   </g>
   <g id="matplotlib.axis_2">
    <g id="ytick_1">
     <g id="line2d_11">
      <defs>
       <path d="M 0 0 
L -3.5 0 
" id="ma1d0e38e49" style="stroke:#000000;stroke-width:0.8;"/>
      </defs>
      <g>
       <use style="stroke:#000000;stroke-width:0.8;" x="56.028488" xlink:href="#ma1d0e38e49" y="273.312"/>
      </g>
     </g>
     <g id="text_12">
      <!-- −10 -->
      <g transform="translate(27.9238 277.111219)scale(0.1 -0.1)">
       <use xlink:href="#DejaVuSans-8722"/>
       <use x="83.789062" xlink:href="#DejaVuSans-49"/>
       <use x="147.412109" xlink:href="#DejaVuSans-48"/>
      </g>
     </g>
    </g>
    <g id="ytick_2">
     <g id="line2d_12">
      <g>
       <use style="stroke:#000000;stroke-width:0.8;" x="56.028488" xlink:href="#ma1d0e38e49" y="237.8304"/>
      </g>
     </g>
     <g id="text_13">
      <!-- −8 -->
      <g transform="translate(34.2863 241.629619)scale(0.1 -0.1)">
       <use xlink:href="#DejaVuSans-8722"/>
       <use x="83.789062" xlink:href="#DejaVuSans-56"/>
      </g>
     </g>
    </g>
    <g id="ytick_3">
     <g id="line2d_13">
      <g>
       <use style="stroke:#000000;stroke-width:0.8;" x="56.028488" xlink:href="#ma1d0e38e49" y="202.3488"/>
      </g>
     </g>
     <g id="text_14">
      <!-- −6 -->
      <g transform="translate(34.2863 206.148019)scale(0.1 -0.1)">
       <use xlink:href="#DejaVuSans-8722"/>
       <use x="83.789062" xlink:href="#DejaVuSans-54"/>
      </g>
     </g>
    </g>
    <g id="ytick_4">
     <g id="line2d_14">
      <g>
       <use style="stroke:#000000;stroke-width:0.8;" x="56.028488" xlink:href="#ma1d0e38e49" y="166.8672"/>
      </g>
     </g>
     <g id="text_15">
      <!-- −4 -->
      <g transform="translate(34.2863 170.666419)scale(0.1 -0.1)">
       <use xlink:href="#DejaVuSans-8722"/>
       <use x="83.789062" xlink:href="#DejaVuSans-52"/>
      </g>
     </g>
    </g>
    <g id="ytick_5">
     <g id="line2d_15">
      <g>
       <use style="stroke:#000000;stroke-width:0.8;" x="56.028488" xlink:href="#ma1d0e38e49" y="131.3856"/>
      </g>
     </g>
     <g id="text_16">
      <!-- −2 -->
      <g transform="translate(34.2863 135.184819)scale(0.1 -0.1)">
       <use xlink:href="#DejaVuSans-8722"/>
       <use x="83.789062" xlink:href="#DejaVuSans-50"/>
      </g>
     </g>
    </g>
    <g id="ytick_6">
     <g id="line2d_16">
      <g>
       <use style="stroke:#000000;stroke-width:0.8;" x="56.028488" xlink:href="#ma1d0e38e49" y="95.904"/>
      </g>
     </g>
     <g id="text_17">
      <!-- 0 -->
      <g transform="translate(42.665987 99.703219)scale(0.1 -0.1)">
       <use xlink:href="#DejaVuSans-48"/>
      </g>
     </g>
    </g>
    <g id="ytick_7">
     <g id="line2d_17">
      <g>
       <use style="stroke:#000000;stroke-width:0.8;" x="56.028488" xlink:href="#ma1d0e38e49" y="60.4224"/>
      </g>
     </g>
     <g id="text_18">
      <!-- 2 -->
      <g transform="translate(42.665987 64.221619)scale(0.1 -0.1)">
       <use xlink:href="#DejaVuSans-50"/>
      </g>
     </g>
    </g>
    <g id="ytick_8">
     <g id="line2d_18">
      <g>
       <use style="stroke:#000000;stroke-width:0.8;" x="56.028488" xlink:href="#ma1d0e38e49" y="24.9408"/>
      </g>
     </g>
     <g id="text_19">
      <!-- 4 -->
      <g transform="translate(42.665987 28.740019)scale(0.1 -0.1)">
       <use xlink:href="#DejaVuSans-52"/>
      </g>
     </g>
    </g>
    <g id="text_20">
     <!-- 2nd PC: 0.66 % -->
     <g transform="translate(20.3301 206.5518)rotate(-90)scale(0.1728 -0.1728)">
      <defs>
       <path d="M 54.890625 33.015625 
L 54.890625 0 
L 45.90625 0 
L 45.90625 32.71875 
Q 45.90625 40.484375 42.875 44.328125 
Q 39.84375 48.1875 33.796875 48.1875 
Q 26.515625 48.1875 22.3125 43.546875 
Q 18.109375 38.921875 18.109375 30.90625 
L 18.109375 0 
L 9.078125 0 
L 9.078125 54.6875 
L 18.109375 54.6875 
L 18.109375 46.1875 
Q 21.34375 51.125 25.703125 53.5625 
Q 30.078125 56 35.796875 56 
Q 45.21875 56 50.046875 50.171875 
Q 54.890625 44.34375 54.890625 33.015625 
z
" id="DejaVuSans-110"/>
       <path d="M 45.40625 46.390625 
L 45.40625 75.984375 
L 54.390625 75.984375 
L 54.390625 0 
L 45.40625 0 
L 45.40625 8.203125 
Q 42.578125 3.328125 38.25 0.953125 
Q 33.9375 -1.421875 27.875 -1.421875 
Q 17.96875 -1.421875 11.734375 6.484375 
Q 5.515625 14.40625 5.515625 27.296875 
Q 5.515625 40.1875 11.734375 48.09375 
Q 17.96875 56 27.875 56 
Q 33.9375 56 38.25 53.625 
Q 42.578125 51.265625 45.40625 46.390625 
z
M 14.796875 27.296875 
Q 14.796875 17.390625 18.875 11.75 
Q 22.953125 6.109375 30.078125 6.109375 
Q 37.203125 6.109375 41.296875 11.75 
Q 45.40625 17.390625 45.40625 27.296875 
Q 45.40625 37.203125 41.296875 42.84375 
Q 37.203125 48.484375 30.078125 48.484375 
Q 22.953125 48.484375 18.875 42.84375 
Q 14.796875 37.203125 14.796875 27.296875 
z
" id="DejaVuSans-100"/>
      </defs>
      <use xlink:href="#DejaVuSans-50"/>
      <use x="63.623047" xlink:href="#DejaVuSans-110"/>
      <use x="127.001953" xlink:href="#DejaVuSans-100"/>
      <use x="190.478516" xlink:href="#DejaVuSans-32"/>
      <use x="222.265625" xlink:href="#DejaVuSans-80"/>
      <use x="282.568359" xlink:href="#DejaVuSans-67"/>
      <use x="352.392578" xlink:href="#DejaVuSans-58"/>
      <use x="386.083984" xlink:href="#DejaVuSans-32"/>
      <use x="417.871094" xlink:href="#DejaVuSans-48"/>
      <use x="481.494141" xlink:href="#DejaVuSans-46"/>
      <use x="513.28125" xlink:href="#DejaVuSans-54"/>
      <use x="576.904297" xlink:href="#DejaVuSans-54"/>
      <use x="640.527344" xlink:href="#DejaVuSans-32"/>
      <use x="672.314453" xlink:href="#DejaVuSans-37"/>
     </g>
    </g>
   </g>
   <g id="LineCollection_1"/>
   <g id="LineCollection_2"/>
   <g id="LineCollection_3"/>
   <g id="LineCollection_4"/>
   <g id="LineCollection_5">
    <path clip-path="url(#pae4d8146c1)" d="M 130.0335 81.616414 
L 131.702379 87.0336 
L 134.546252 95.904 
L 135.924082 104.7744 
L 135.204768 113.6448 
L 132.389609 122.5152 
L 127.452488 131.006616 
L 121.580422 122.5152 
L 121.596343 113.6448 
L 122.410722 104.7744 
L 123.459697 95.904 
L 124.600754 87.0336 
L 125.553703 80.214462 
" style="fill:none;stroke:#404688;stroke-width:1.5;"/>
   </g>
   <g id="LineCollection_6">
    <path clip-path="url(#pae4d8146c1)" d="M 56.028488 77.502738 
L 57.463861 78.1632 
L 67.932488 85.068798 
L 79.836488 86.478083 
L 87.976984 78.1632 
L 91.740488 73.392834 
L 92.95943 69.2928 
L 95.592498 60.4224 
L 98.571099 51.552 
L 102.466894 42.6816 
L 103.644488 40.881618 
L 105.481239 38.583058 
" style="fill:none;stroke:#39558c;stroke-width:1.5;"/>
    <path clip-path="url(#pae4d8146c1)" d="M 127.484962 34.492596 
L 127.97211 42.6816 
L 129.123152 51.552 
L 131.597308 60.4224 
L 136.878912 69.2928 
L 139.356488 72.722427 
L 139.391692 78.1632 
L 139.441198 87.0336 
L 139.490101 95.904 
L 139.538319 104.7744 
L 139.580724 113.6448 
L 139.603661 122.5152 
L 139.560735 131.3856 
L 139.356488 139.674613 
L 138.714422 140.256 
L 127.452488 146.255943 
L 121.956146 149.1264 
L 115.548488 151.810736 
L 103.644488 150.369231 
L 96.440975 149.1264 
L 91.740488 146.115704 
L 79.836488 144.773574 
L 67.932488 145.757623 
L 56.028488 145.973882 
" style="fill:none;stroke:#39558c;stroke-width:1.5;"/>
   </g>
   <g id="LineCollection_7">
    <path clip-path="url(#pae4d8146c1)" d="M 56.028488 20.455258 
L 57.91277 20.007424 
" style="fill:none;stroke:#33638d;stroke-width:1.5;"/>
    <path clip-path="url(#pae4d8146c1)" d="M 79.036553 7.689321 
L 79.585852 7.2 
" style="fill:none;stroke:#33638d;stroke-width:1.5;"/>
    <path clip-path="url(#pae4d8146c1)" d="M 101.307582 7.2 
L 103.644488 8.078707 
L 115.548488 15.911137 
L 115.706363 16.0704 
L 127.162884 24.9408 
L 127.452488 25.103774 
L 127.923366 33.8112 
L 129.002176 42.6816 
L 131.298054 51.552 
L 136.138728 60.4224 
L 139.356488 64.776241 
L 139.363874 65.563695 
" style="fill:none;stroke:#33638d;stroke-width:1.5;"/>
    <path clip-path="url(#pae4d8146c1)" d="M 139.594629 90.762636 
L 139.64575 95.904 
L 139.740786 104.7744 
L 139.841211 113.6448 
L 139.945122 122.5152 
L 140.020666 131.3856 
L 139.978836 140.256 
L 139.585491 149.1264 
L 139.356488 151.253277 
L 127.452488 154.212615 
L 119.732058 157.9968 
L 115.548488 159.486974 
L 103.644488 159.646825 
L 91.740488 159.183328 
L 79.836488 159.972969 
L 67.932488 160.986132 
L 56.028488 161.909883 
" style="fill:none;stroke:#33638d;stroke-width:1.5;"/>
   </g>
   <g id="LineCollection_8">
    <path clip-path="url(#pae4d8146c1)" d="M 111.469972 7.2 
L 115.548488 10.060991 
L 121.505515 16.0704 
L 127.452488 20.602971 
L 127.664588 24.9408 
L 128.397959 33.8112 
L 130.032243 42.6816 
L 133.472956 51.552 
L 139.356488 59.559638 
L 139.36744 60.4224 
L 139.456498 69.2928 
L 139.516021 74.434592 
" style="fill:none;stroke:#2d718e;stroke-width:1.5;"/>
    <path clip-path="url(#pae4d8146c1)" d="M 139.86102 99.632207 
L 139.943254 104.7744 
L 140.101698 113.6448 
L 140.286583 122.5152 
L 140.480597 131.3856 
L 140.621193 140.256 
L 140.524605 149.1264 
L 139.696626 157.9968 
L 139.356488 159.520736 
L 127.452488 160.173642 
L 115.548488 164.491122 
L 103.644488 164.91517 
L 91.740488 164.809322 
L 79.836488 166.425438 
L 76.812831 166.8672 
L 67.932488 167.70213 
L 56.028488 168.863085 
" style="fill:none;stroke:#2d718e;stroke-width:1.5;"/>
   </g>
   <g id="LineCollection_9">
    <path clip-path="url(#pae4d8146c1)" d="M 116.857594 7.2 
L 127.304668 16.0704 
L 127.452488 16.183063 
L 127.880703 24.9408 
L 128.872551 33.8112 
L 131.062309 42.6816 
L 135.647858 51.552 
L 139.356488 56.59954 
L 139.405016 60.4224 
L 139.51414 69.2928 
L 139.64293 78.1632 
L 139.728348 83.306082 
" style="fill:none;stroke:#287d8e;stroke-width:1.5;"/>
    <path clip-path="url(#pae4d8146c1)" d="M 140.236658 108.500884 
L 140.362185 113.6448 
L 140.628044 122.5152 
L 140.940528 131.3856 
L 141.26355 140.256 
L 141.46372 149.1264 
L 141.196082 157.9968 
L 139.356488 166.238807 
L 127.452488 165.006155 
L 122.416342 166.8672 
L 115.548488 168.688616 
L 103.644488 168.9729 
L 91.740488 168.988393 
L 79.836488 170.286029 
L 67.932488 171.854443 
L 56.028488 173.636855 
" style="fill:none;stroke:#287d8e;stroke-width:1.5;"/>
   </g>
   <g id="LineCollection_10">
    <path clip-path="url(#pae4d8146c1)" d="M 119.419676 7.2 
L 127.452488 13.967051 
L 127.549476 16.0704 
L 128.096817 24.9408 
L 129.347144 33.8112 
L 132.092375 42.6816 
L 137.82276 51.552 
L 139.356488 53.639442 
L 139.442592 60.4224 
L 139.571782 69.2928 
L 139.726677 78.1632 
L 139.831021 83.30716 
" style="fill:none;stroke:#238a8d;stroke-width:1.5;"/>
    <path clip-path="url(#pae4d8146c1)" d="M 140.463444 108.499092 
L 140.622672 113.6448 
L 140.969505 122.5152 
L 141.400459 131.3856 
L 141.905907 140.256 
L 142.402834 149.1264 
L 142.695538 157.9968 
L 142.085967 166.8672 
L 139.356488 171.825883 
L 127.452488 169.152727 
L 115.548488 172.156802 
L 103.644488 172.318046 
L 91.740488 172.332965 
L 79.836488 173.956128 
L 69.334872 175.7376 
L 67.932488 175.916175 
L 56.028488 177.460232 
" style="fill:none;stroke:#238a8d;stroke-width:1.5;"/>
   </g>
   <g id="LineCollection_11">
    <path clip-path="url(#pae4d8146c1)" d="M 121.981759 7.2 
L 127.452488 11.808685 
L 127.649002 16.0704 
L 128.312931 24.9408 
L 129.821737 33.8112 
L 133.122441 42.6816 
L 139.356488 51.139979 
L 139.363332 51.552 
L 139.480168 60.4224 
L 139.629424 69.2928 
L 139.810423 78.1632 
L 139.933707 83.308462 
" style="fill:none;stroke:#1f968b;stroke-width:1.5;"/>
    <path clip-path="url(#pae4d8146c1)" d="M 140.690192 108.496894 
L 140.883159 113.6448 
L 141.310966 122.5152 
L 141.86039 131.3856 
L 142.548263 140.256 
L 143.341948 149.1264 
L 144.194994 157.9968 
L 145.0971 166.8672 
L 142.469172 175.7376 
L 139.356488 177.024513 
L 136.146109 175.7376 
L 127.452488 172.869692 
L 115.548488 175.624989 
L 103.644488 175.663192 
L 91.740488 175.677537 
L 91.339075 175.7376 
L 79.836488 177.041265 
L 67.932488 178.671095 
L 56.028488 180.536689 
" style="fill:none;stroke:#1f968b;stroke-width:1.5;"/>
   </g>
   <g id="LineCollection_12">
    <path clip-path="url(#pae4d8146c1)" d="M 124.543842 7.2 
L 127.452488 9.650319 
L 127.748528 16.0704 
L 128.529045 24.9408 
L 130.296329 33.8112 
L 134.152507 42.6816 
L 139.356488 49.742381 
L 139.38655 51.552 
L 139.517744 60.4224 
L 139.687066 69.2928 
L 139.894169 78.1632 
L 140.036409 83.309989 
" style="fill:none;stroke:#20a386;stroke-width:1.5;"/>
    <path clip-path="url(#pae4d8146c1)" d="M 140.916893 108.494293 
L 141.143646 113.6448 
L 141.652427 122.5152 
L 142.320321 131.3856 
L 143.19062 140.256 
L 144.281062 149.1264 
L 145.69445 157.9968 
L 148.108234 166.8672 
L 151.260488 174.343138 
L 151.277313 175.7376 
L 151.260488 178.390018 
L 139.356488 181.54117 
L 127.452488 176.430214 
L 115.548488 178.339444 
L 103.644488 178.190601 
L 91.740488 178.109223 
L 79.836488 179.574629 
L 67.932488 181.426014 
L 56.028488 183.613147 
" style="fill:none;stroke:#20a386;stroke-width:1.5;"/>
   </g>
   <g id="LineCollection_13">
    <path clip-path="url(#pae4d8146c1)" d="M 127.105925 7.2 
L 127.452488 7.491954 
L 127.848054 16.0704 
L 128.745159 24.9408 
L 130.770922 33.8112 
L 135.182574 42.6816 
L 139.356488 48.344783 
L 139.409768 51.552 
L 139.55532 60.4224 
L 139.744708 69.2928 
L 139.977915 78.1632 
L 140.139129 83.311738 
" style="fill:none;stroke:#29af7f;stroke-width:1.5;"/>
    <path clip-path="url(#pae4d8146c1)" d="M 141.143539 108.491288 
L 141.404133 113.6448 
L 141.993888 122.5152 
L 142.780252 131.3856 
L 143.832977 140.256 
L 145.220176 149.1264 
L 147.193906 157.9968 
L 151.119367 166.8672 
L 151.260488 167.201883 
L 151.363481 175.7376 
L 151.331899 184.608 
L 151.260488 186.626687 
L 139.356488 185.793423 
L 137.46303 184.608 
L 127.452488 179.462308 
L 115.548488 181.028605 
L 103.644488 180.699407 
L 91.740488 180.524216 
L 79.836488 182.107992 
L 67.932488 184.180934 
L 65.713564 184.608 
L 56.028488 186.197126 
" style="fill:none;stroke:#29af7f;stroke-width:1.5;"/>
   </g>
   <g id="LineCollection_14">
    <path clip-path="url(#pae4d8146c1)" d="M 127.492851 7.2 
L 127.947579 16.0704 
L 128.961273 24.9408 
L 131.245514 33.8112 
L 136.21264 42.6816 
L 139.356488 46.947185 
L 139.432985 51.552 
L 139.592896 60.4224 
L 139.802351 69.2928 
L 140.061661 78.1632 
L 140.372023 87.0336 
L 140.583092 92.187584 
" style="fill:none;stroke:#3dbc74;stroke-width:1.5;"/>
    <path clip-path="url(#pae4d8146c1)" d="M 141.944739 117.349372 
L 142.335349 122.5152 
L 143.240183 131.3856 
L 144.475334 140.256 
L 146.159291 149.1264 
L 148.693362 157.9968 
L 151.260488 163.694917 
L 151.313711 166.8672 
L 151.449648 175.7376 
L 151.463597 184.608 
L 151.260488 190.349566 
L 139.356488 189.486382 
L 131.564327 184.608 
L 127.452488 182.494402 
L 115.548488 183.717766 
L 103.644488 183.208213 
L 91.740488 182.939208 
L 80.059064 184.608 
L 79.836488 184.633765 
L 67.932488 186.388563 
L 56.028488 188.545737 
" style="fill:none;stroke:#3dbc74;stroke-width:1.5;"/>
   </g>
   <g id="LineCollection_15">
    <path clip-path="url(#pae4d8146c1)" d="M 127.539528 7.2 
L 128.047105 16.0704 
L 129.177388 24.9408 
L 131.720107 33.8112 
L 137.242706 42.6816 
L 139.356488 45.549587 
L 139.456203 51.552 
L 139.630472 60.4224 
L 139.859993 69.2928 
L 140.145407 78.1632 
L 140.488376 87.0336 
L 140.722416 92.190643 
" style="fill:none;stroke:#56c667;stroke-width:1.5;"/>
    <path clip-path="url(#pae4d8146c1)" d="M 142.23852 117.343195 
L 142.67681 122.5152 
L 143.700114 131.3856 
L 145.11769 140.256 
L 147.098405 149.1264 
L 150.192818 157.9968 
L 151.260488 160.366651 
L 151.369552 166.8672 
L 151.535816 175.7376 
L 151.595296 184.608 
L 151.289474 193.4784 
L 151.260488 193.845572 
L 143.364009 193.4784 
L 139.356488 193.17934 
L 127.452488 185.380829 
L 115.548488 186.075606 
L 103.644488 185.507416 
L 91.740488 185.203592 
L 79.836488 186.590618 
L 67.932488 188.495786 
L 56.028488 190.894348 
" style="fill:none;stroke:#56c667;stroke-width:1.5;"/>
   </g>
   <g id="LineCollection_16">
    <path clip-path="url(#pae4d8146c1)" d="M 127.586205 7.2 
L 128.146631 16.0704 
L 129.393502 24.9408 
L 132.194699 33.8112 
L 138.272772 42.6816 
L 139.356488 44.151989 
L 139.479421 51.552 
L 139.668048 60.4224 
L 139.917635 69.2928 
L 140.229154 78.1632 
L 140.604729 87.0336 
L 140.861783 92.194019 
" style="fill:none;stroke:#75d054;stroke-width:1.5;"/>
    <path clip-path="url(#pae4d8146c1)" d="M 142.532125 117.336348 
L 143.018271 122.5152 
L 144.160045 131.3856 
L 145.760047 140.256 
L 148.037519 149.1264 
L 151.260488 157.310128 
L 151.271115 157.9968 
L 151.425393 166.8672 
L 151.621983 175.7376 
L 151.726994 184.608 
L 151.471135 193.4784 
L 151.260488 196.146633 
L 139.356488 196.193219 
L 135.819485 193.4784 
L 127.452488 187.932052 
L 115.548488 188.269486 
L 103.644488 187.542061 
L 91.740488 187.13116 
L 79.836488 188.547471 
L 67.932488 190.60301 
L 56.028488 193.242959 
" style="fill:none;stroke:#75d054;stroke-width:1.5;"/>
   </g>
   <g id="LineCollection_17">
    <path clip-path="url(#pae4d8146c1)" d="M 127.632882 7.2 
L 128.246157 16.0704 
L 129.609616 24.9408 
L 132.669292 33.8112 
L 139.302838 42.6816 
L 139.356488 42.754391 
L 139.502638 51.552 
L 139.705624 60.4224 
L 139.975277 69.2928 
L 140.3129 78.1632 
L 140.721082 87.0336 
L 141.001197 92.197711 
" style="fill:none;stroke:#95d840;stroke-width:1.5;"/>
    <path clip-path="url(#pae4d8146c1)" d="M 142.825537 117.328836 
L 143.359732 122.5152 
L 144.619976 131.3856 
L 146.402404 140.256 
L 148.976633 149.1264 
L 151.260488 154.925539 
L 151.308019 157.9968 
L 151.481234 166.8672 
L 151.708151 175.7376 
L 151.858692 184.608 
L 151.652795 193.4784 
L 151.260488 198.447694 
L 139.356488 199.147259 
L 131.970812 193.4784 
L 127.452488 190.483275 
L 115.548488 190.463366 
L 103.644488 189.576706 
L 91.740488 189.058728 
L 79.836488 190.504324 
L 67.932488 192.710233 
L 64.500148 193.4784 
L 56.028488 195.139785 
" style="fill:none;stroke:#95d840;stroke-width:1.5;"/>
   </g>
   <g id="LineCollection_18">
    <path clip-path="url(#pae4d8146c1)" d="M 127.679559 7.2 
L 128.345682 16.0704 
L 129.82573 24.9408 
L 133.143885 33.8112 
L 139.356488 42.082639 
L 139.369418 42.6816 
L 139.525856 51.552 
L 139.7432 60.4224 
L 140.032919 69.2928 
L 140.396646 78.1632 
L 140.837435 87.0336 
L 141.140662 92.201719 
" style="fill:none;stroke:#bade28;stroke-width:1.5;"/>
    <path clip-path="url(#pae4d8146c1)" d="M 143.118738 117.320664 
L 143.701192 122.5152 
L 145.079907 131.3856 
L 147.044761 140.256 
L 149.915747 149.1264 
L 151.260488 152.54095 
L 151.344923 157.9968 
L 151.537075 166.8672 
L 151.794318 175.7376 
L 151.99039 184.608 
L 151.834455 193.4784 
L 151.260488 200.748755 
L 139.356488 202.101298 
L 128.12214 193.4784 
L 127.452488 193.034498 
L 115.548488 192.657246 
L 103.644488 191.611351 
L 91.740488 190.986295 
L 79.836488 192.461177 
L 74.480233 193.4784 
L 67.932488 194.548432 
L 56.028488 196.986275 
" style="fill:none;stroke:#bade28;stroke-width:1.5;"/>
   </g>
   <g id="LineCollection_19">
    <path clip-path="url(#pae4d8146c1)" d="M 129.10075 19.712383 
L 130.041844 24.9408 
L 133.618477 33.8112 
L 139.356488 41.450768 
L 139.383059 42.6816 
L 139.549074 51.552 
L 139.780777 60.4224 
L 140.090562 69.2928 
L 140.480392 78.1632 
L 140.953788 87.0336 
L 141.513532 95.904 
L 142.170394 104.7744 
L 142.967056 113.6448 
L 144.042653 122.5152 
L 145.539838 131.3856 
L 147.687117 140.256 
L 150.854862 149.1264 
L 151.260488 150.156361 
L 151.381828 157.9968 
L 151.592916 166.8672 
L 151.880486 175.7376 
L 152.122088 184.608 
L 152.016115 193.4784 
L 151.323792 202.3488 
L 151.260488 202.849346 
L 139.356488 204.464237 
L 136.780578 202.3488 
L 127.452488 195.246548 
L 115.548488 194.610839 
L 103.644488 193.61632 
L 101.031412 193.4784 
L 91.740488 192.913863 
L 87.230571 193.4784 
L 79.836488 194.241019 
L 67.932488 196.232302 
L 56.028488 198.832764 
" style="fill:none;stroke:#dde318;stroke-width:1.5;"/>
   </g>
   <g id="LineCollection_20">
    <path clip-path="url(#pae4d8146c1)" d="M 127.772913 7.2 
L 128.544734 16.0704 
L 130.257958 24.9408 
L 134.09307 33.8112 
L 139.356488 40.818897 
L 139.396699 42.6816 
L 139.572292 51.552 
L 139.818353 60.4224 
L 140.148204 69.2928 
L 140.564138 78.1632 
L 141.070141 87.0336 
L 141.419762 92.21068 
" style="fill:none;stroke:#fde725;stroke-width:1.5;"/>
    <path clip-path="url(#pae4d8146c1)" d="M 143.704436 117.302361 
L 144.384114 122.5152 
L 145.999769 131.3856 
L 148.329474 140.256 
L 151.260488 148.144315 
L 151.274347 149.1264 
L 151.418732 157.9968 
L 151.648757 166.8672 
L 151.966653 175.7376 
L 152.253787 184.608 
L 152.197775 193.4784 
L 151.531586 202.3488 
L 151.260488 204.492368 
L 139.356488 206.773122 
L 133.969111 202.3488 
L 127.452488 197.387151 
L 115.548488 196.420695 
L 103.644488 195.290691 
L 91.740488 194.600133 
L 79.836488 195.829233 
L 67.932488 197.916172 
L 56.028488 200.679254 
" style="fill:none;stroke:#fde725;stroke-width:1.5;"/>
   </g>
   <g id="LineCollection_21">
    <path clip-path="url(#pae4d8146c1)" d="M 127.81959 7.2 
L 128.64426 16.0704 
L 130.474072 24.9408 
L 134.567662 33.8112 
L 139.356488 40.187026 
L 139.41034 42.6816 
L 139.595509 51.552 
L 139.855929 60.4224 
L 140.205846 69.2928 
L 140.647884 78.1632 
L 141.186494 87.0336 
L 141.824829 95.904 
L 142.575328 104.7744 
L 142.930854 108.229701 
" style="fill:none;stroke:#440154;stroke-width:1.5;"/>
    <path clip-path="url(#pae4d8146c1)" d="M 147.92069 136.544393 
L 148.971831 140.256 
L 151.260488 146.415523 
L 151.298744 149.1264 
L 151.455636 157.9968 
L 151.704598 166.8672 
L 152.052821 175.7376 
L 152.385485 184.608 
L 152.379436 193.4784 
L 151.73938 202.3488 
L 151.260488 206.135391 
L 139.356488 209.082007 
L 131.157645 202.3488 
L 127.452488 199.527755 
L 115.548488 198.230551 
L 103.644488 196.965061 
L 91.740488 196.186462 
L 79.836488 197.417447 
L 67.932488 199.600042 
L 56.688542 202.3488 
L 56.028488 202.490514 
" style="fill:none;stroke:#440154;stroke-width:1.5;"/>
   </g>
   <g id="LineCollection_22">
    <path clip-path="url(#pae4d8146c1)" d="M 136.221465 7.2 
L 139.356488 11.469809 
L 139.520249 16.0704 
L 139.942209 24.9408 
L 140.666261 33.8112 
L 141.865676 42.6816 
L 143.774697 51.552 
L 146.619624 60.4224 
L 150.581437 69.2928 
L 151.260488 70.899042 
L 151.29208 78.1632 
L 151.348073 87.0336 
L 151.441034 95.904 
L 151.598553 104.7744 
L 151.863278 113.6448 
L 152.300017 122.5152 
L 152.429022 124.145048 
" style="fill:none;stroke:#440154;stroke-width:1.5;"/>
    <path clip-path="url(#pae4d8146c1)" d="M 157.573049 156.061691 
L 158.098415 157.9968 
L 161.755964 166.8672 
L 163.164488 169.800817 
L 163.214852 175.7376 
L 163.320074 184.608 
L 163.470384 193.4784 
L 163.67235 202.3488 
L 163.872064 211.2192 
L 163.893523 220.0896 
L 163.497117 228.96 
L 163.164488 232.490211 
L 159.997345 237.8304 
L 155.730011 246.7008 
L 153.074096 255.5712 
L 151.500677 264.4416 
L 151.260488 265.927117 
L 144.546958 273.312 
" style="fill:none;stroke:#440154;stroke-width:1.5;"/>
   </g>
   <g id="LineCollection_23">
    <path clip-path="url(#pae4d8146c1)" d="M 141.437997 7.2 
L 143.593513 16.0704 
L 147.53258 24.9408 
L 151.260488 30.928234 
L 151.289402 33.8112 
L 151.376792 42.6816 
L 151.497156 51.552 
L 151.672915 60.4224 
L 151.939395 69.2928 
L 152.35946 78.1632 
L 153.035674 87.0336 
L 154.163331 95.904 
L 156.03694 104.7744 
L 159.088965 113.6448 
L 163.164488 121.586119 
L 163.168293 122.256712 
" style="fill:none;stroke:#440154;stroke-width:1.5;"/>
    <path clip-path="url(#pae4d8146c1)" d="M 163.796243 158.24928 
L 164.250521 166.8672 
L 164.990817 175.7376 
L 166.173316 184.608 
L 168.034836 193.4784 
L 170.984559 202.3488 
L 175.068488 211.198149 
L 175.068581 211.2192 
L 175.100237 220.0896 
L 175.12697 228.96 
L 175.103669 237.8304 
L 175.068488 240.192139 
L 171.302924 246.7008 
L 167.010862 255.5712 
L 164.539589 264.4416 
L 163.245379 273.312 
" style="fill:none;stroke:#440154;stroke-width:1.5;"/>
   </g>
   <g id="LineCollection_24">
    <path clip-path="url(#pae4d8146c1)" d="M 151.412756 7.2 
L 151.645711 16.0704 
L 151.998354 24.9408 
L 152.512067 33.8112 
L 153.260665 42.6816 
L 154.380269 51.552 
L 156.101026 60.4224 
L 158.773193 69.2928 
L 163.033257 78.1632 
L 163.164488 78.427837 
L 163.211144 87.0336 
L 163.288362 95.904 
L 163.414498 104.7744 
L 163.621652 113.6448 
L 163.891409 120.540692 
" style="fill:none;stroke:#440154;stroke-width:1.5;"/>
    <path clip-path="url(#pae4d8146c1)" d="M 171.121617 159.208935 
L 175.068488 166.642013 
L 175.069635 166.8672 
L 175.112461 175.7376 
L 175.178756 184.608 
L 175.285485 193.4784 
L 175.462754 202.3488 
L 175.770275 211.2192 
L 176.257513 220.0896 
L 176.865409 228.96 
L 177.459161 237.8304 
L 177.722966 246.7008 
L 177.218565 255.5712 
L 176.21091 264.4416 
L 175.286141 273.312 
" style="fill:none;stroke:#440154;stroke-width:1.5;"/>
   </g>
   <g id="LineCollection_25">
    <path clip-path="url(#pae4d8146c1)" d="M 154.203015 7.2 
L 156.391163 16.0704 
L 159.758129 24.9408 
L 163.164488 31.799505 
L 163.176083 33.8112 
L 163.229084 42.6816 
L 163.307929 51.552 
L 163.429547 60.4224 
L 163.618639 69.2928 
L 163.912869 78.1632 
L 164.378115 87.0336 
L 165.139026 95.904 
L 166.392904 104.7744 
L 168.466564 113.6448 
L 170.837397 119.668972 
" style="fill:none;stroke:#440154;stroke-width:1.5;"/>
    <path clip-path="url(#pae4d8146c1)" d="M 175.55822 161.851769 
L 175.712347 166.8672 
L 176.129066 175.7376 
L 176.780937 184.608 
L 177.850766 193.4784 
L 179.638643 202.3488 
L 182.787214 211.2192 
L 186.972488 219.109125 
L 186.977852 220.0896 
L 187.021729 228.96 
L 187.077294 237.8304 
L 187.130003 246.7008 
L 187.155297 255.5712 
L 187.115601 264.4416 
L 186.972488 272.885991 
L 186.731318 273.312 
" style="fill:none;stroke:#440154;stroke-width:1.5;"/>
   </g>
   <g id="LineCollection_26">
    <path clip-path="url(#pae4d8146c1)" d="M 163.329091 7.2 
L 163.492934 16.0704 
L 163.729882 24.9408 
L 164.07668 33.8112 
L 164.591066 42.6816 
L 165.370877 51.552 
L 166.583198 60.4224 
L 168.472025 69.2928 
L 171.405897 78.1632 
L 175.068488 85.733816 
L 175.075312 87.0336 
L 175.127111 95.904 
L 175.21044 104.7744 
L 175.347195 113.6448 
L 175.430192 116.890328 
" style="fill:none;stroke:#450457;stroke-width:1.5;"/>
    <path clip-path="url(#pae4d8146c1)" d="M 181.013078 163.185375 
L 182.139464 166.8672 
L 186.295113 175.7376 
L 186.972488 177.110441 
L 187.014262 184.608 
L 187.086956 193.4784 
L 187.202188 202.3488 
L 187.388222 211.2192 
L 187.701614 220.0896 
L 188.19804 228.96 
L 188.835435 237.8304 
L 189.495475 246.7008 
L 190.116148 255.5712 
L 190.541954 264.4416 
L 190.414482 273.312 
" style="fill:none;stroke:#450457;stroke-width:1.5;"/>
   </g>
   <g id="LineCollection_27">
    <path clip-path="url(#pae4d8146c1)" d="M 165.753898 7.2 
L 167.324256 16.0704 
L 169.643419 24.9408 
L 173.082647 33.8112 
L 175.068488 38.14595 
L 175.090759 42.6816 
L 175.145692 51.552 
L 175.230999 60.4224 
L 175.364488 69.2928 
L 175.569614 78.1632 
L 175.888571 87.0336 
L 176.392004 95.904 
L 177.213391 104.7744 
L 178.573968 113.6448 
L 179.333573 116.625708 
" style="fill:none;stroke:#482475;stroke-width:1.5;"/>
    <path clip-path="url(#pae4d8146c1)" d="M 187.363808 165.453006 
L 187.395293 166.8672 
L 187.703876 175.7376 
L 188.162244 184.608 
L 188.863268 193.4784 
L 189.988546 202.3488 
L 191.809265 211.2192 
L 194.93923 220.0896 
L 198.876488 227.674372 
L 198.882761 228.96 
L 198.919847 237.8304 
L 198.96393 246.7008 
L 199.016226 255.5712 
L 199.066532 264.4416 
L 199.103875 273.312 
" style="fill:none;stroke:#482475;stroke-width:1.5;"/>
   </g>
   <g id="LineCollection_28">
    <path clip-path="url(#pae4d8146c1)" d="M 175.18156 7.2 
L 175.292463 16.0704 
L 175.455365 24.9408 
L 175.695022 33.8112 
L 176.056072 42.6816 
L 176.602619 51.552 
L 177.454332 60.4224 
L 178.790075 69.2928 
L 180.838415 78.1632 
L 184.021154 87.0336 
L 186.972488 93.148544 
L 186.986789 95.904 
L 187.04339 104.7744 
L 187.1342 113.272893 
" style="fill:none;stroke:#fde725;stroke-width:1.5;"/>
    <path clip-path="url(#pae4d8146c1)" d="M 191.984765 166.917648 
L 195.066821 175.7376 
L 198.876488 183.595233 
L 198.882486 184.608 
L 198.935817 193.4784 
L 199.014193 202.3488 
L 199.130495 211.2192 
L 199.304846 220.0896 
L 199.563121 228.96 
L 199.930838 237.8304 
L 200.413054 246.7008 
L 201.000794 255.5712 
L 201.57785 264.4416 
L 202.116937 273.312 
" style="fill:none;stroke:#fde725;stroke-width:1.5;"/>
   </g>
   <g id="line2d_19">
    <path clip-path="url(#pae4d8146c1)" d="M 383.239588 32.33127 
L 393.825225 51.47696 
L 386.649224 58.643775 
L 379.177846 65.288989 
L 371.848601 71.053261 
L 364.657086 76.161676 
L 357.574615 81.089096 
L 350.617476 86.090908 
L 343.767067 91.484393 
L 337.026322 96.992525 
L 330.395138 102.739564 
L 323.875254 108.258609 
L 317.464717 113.737575 
L 311.156066 119.249072 
L 304.968765 124.409676 
L 298.850231 129.867323 
L 292.852594 134.831004 
L 286.91791 140.315601 
L 281.098145 144.863591 
L 275.367065 149.573369 
L 269.739657 153.603254 
L 264.206096 157.022362 
L 258.791904 159.646452 
L 253.472725 161.817902 
L 248.248574 163.420176 
L 243.094355 164.746194 
L 238.045222 165.527871 
L 233.094493 166.185421 
L 228.228735 166.327105 
L 223.444987 165.928503 
L 218.753921 165.314202 
L 214.137221 164.221394 
L 209.617329 163.261756 
L 205.16593 161.907064 
L 200.797133 159.972163 
L 196.489964 158.112187 
L 192.271981 155.563987 
L 188.12172 152.60955 
L 184.067558 149.914903 
L 180.070371 146.738329 
L 176.15415 143.135101 
L 172.329778 139.885962 
L 168.531188 136.342961 
L 164.855893 132.46 
L 161.225061 128.839546 
L 157.650306 124.611961 
L 154.158115 120.672477 
L 150.719271 116.305401 
L 147.346362 111.301443 
L 144.064735 107.106871 
L 143.734034 106.866018 
L 143.402145 106.501518 
L 143.075546 106.051848 
L 142.750613 105.541568 
L 142.426583 105.112 
L 142.103731 104.634835 
L 141.783253 104.199915 
L 141.463615 103.745191 
L 141.14589 103.333412 
L 140.829557 102.890077 
L 140.510384 102.394167 
L 140.196683 101.937419 
L 139.883625 101.526618 
L 139.565569 101.122665 
L 139.253259 100.675485 
L 138.941597 100.333116 
L 138.626209 99.910476 
L 138.313827 99.557482 
L 138.002859 99.065425 
L 137.693096 98.68258 
L 137.387522 98.324838 
L 137.077176 97.936106 
L 136.772646 97.576777 
L 136.462676 97.167716 
L 136.155245 96.751194 
L 136.124214 96.720933 
L 136.093504 96.690304 
L 136.063047 96.650293 
L 136.032088 96.623221 
L 136.001865 96.585395 
L 135.971176 96.548819 
L 135.940383 96.516661 
L 135.909594 96.474846 
L 135.878941 96.441714 
L 135.848149 96.418186 
L 135.817491 96.377081 
L 135.786983 96.342284 
L 135.755975 96.304757 
L 135.724919 96.281429 
L 135.693745 96.245292 
L 135.664263 96.212959 
L 135.633942 96.175197 
L 135.602985 96.135727 
L 135.572409 96.10922 
L 135.541823 96.073343 
L 135.511621 96.040658 
L 135.480997 96.00538 
L 135.450291 95.971807 
L 135.419248 95.935524 
" style="fill:none;stroke:#1f77b4;stroke-linecap:square;stroke-width:1.5;"/>
    <defs>
     <path d="M 0 1.5 
C 0.397805 1.5 0.77937 1.341951 1.06066 1.06066 
C 1.341951 0.77937 1.5 0.397805 1.5 0 
C 1.5 -0.397805 1.341951 -0.77937 1.06066 -1.06066 
C 0.77937 -1.341951 0.397805 -1.5 0 -1.5 
C -0.397805 -1.5 -0.77937 -1.341951 -1.06066 -1.06066 
C -1.341951 -0.77937 -1.5 -0.397805 -1.5 0 
C -1.5 0.397805 -1.341951 0.77937 -1.06066 1.06066 
C -0.77937 1.341951 -0.397805 1.5 0 1.5 
z
" id="m102d03fcb3" style="stroke:#1f77b4;"/>
    </defs>
    <g clip-path="url(#pae4d8146c1)">
     <use style="fill:#1f77b4;stroke:#1f77b4;" x="383.239588" xlink:href="#m102d03fcb3" y="32.33127"/>
     <use style="fill:#1f77b4;stroke:#1f77b4;" x="393.825225" xlink:href="#m102d03fcb3" y="51.47696"/>
     <use style="fill:#1f77b4;stroke:#1f77b4;" x="386.649224" xlink:href="#m102d03fcb3" y="58.643775"/>
     <use style="fill:#1f77b4;stroke:#1f77b4;" x="379.177846" xlink:href="#m102d03fcb3" y="65.288989"/>
     <use style="fill:#1f77b4;stroke:#1f77b4;" x="371.848601" xlink:href="#m102d03fcb3" y="71.053261"/>
     <use style="fill:#1f77b4;stroke:#1f77b4;" x="364.657086" xlink:href="#m102d03fcb3" y="76.161676"/>
     <use style="fill:#1f77b4;stroke:#1f77b4;" x="357.574615" xlink:href="#m102d03fcb3" y="81.089096"/>
     <use style="fill:#1f77b4;stroke:#1f77b4;" x="350.617476" xlink:href="#m102d03fcb3" y="86.090908"/>
     <use style="fill:#1f77b4;stroke:#1f77b4;" x="343.767067" xlink:href="#m102d03fcb3" y="91.484393"/>
     <use style="fill:#1f77b4;stroke:#1f77b4;" x="337.026322" xlink:href="#m102d03fcb3" y="96.992525"/>
     <use style="fill:#1f77b4;stroke:#1f77b4;" x="330.395138" xlink:href="#m102d03fcb3" y="102.739564"/>
     <use style="fill:#1f77b4;stroke:#1f77b4;" x="323.875254" xlink:href="#m102d03fcb3" y="108.258609"/>
     <use style="fill:#1f77b4;stroke:#1f77b4;" x="317.464717" xlink:href="#m102d03fcb3" y="113.737575"/>
     <use style="fill:#1f77b4;stroke:#1f77b4;" x="311.156066" xlink:href="#m102d03fcb3" y="119.249072"/>
     <use style="fill:#1f77b4;stroke:#1f77b4;" x="304.968765" xlink:href="#m102d03fcb3" y="124.409676"/>
     <use style="fill:#1f77b4;stroke:#1f77b4;" x="298.850231" xlink:href="#m102d03fcb3" y="129.867323"/>
     <use style="fill:#1f77b4;stroke:#1f77b4;" x="292.852594" xlink:href="#m102d03fcb3" y="134.831004"/>
     <use style="fill:#1f77b4;stroke:#1f77b4;" x="286.91791" xlink:href="#m102d03fcb3" y="140.315601"/>
     <use style="fill:#1f77b4;stroke:#1f77b4;" x="281.098145" xlink:href="#m102d03fcb3" y="144.863591"/>
     <use style="fill:#1f77b4;stroke:#1f77b4;" x="275.367065" xlink:href="#m102d03fcb3" y="149.573369"/>
     <use style="fill:#1f77b4;stroke:#1f77b4;" x="269.739657" xlink:href="#m102d03fcb3" y="153.603254"/>
     <use style="fill:#1f77b4;stroke:#1f77b4;" x="264.206096" xlink:href="#m102d03fcb3" y="157.022362"/>
     <use style="fill:#1f77b4;stroke:#1f77b4;" x="258.791904" xlink:href="#m102d03fcb3" y="159.646452"/>
     <use style="fill:#1f77b4;stroke:#1f77b4;" x="253.472725" xlink:href="#m102d03fcb3" y="161.817902"/>
     <use style="fill:#1f77b4;stroke:#1f77b4;" x="248.248574" xlink:href="#m102d03fcb3" y="163.420176"/>
     <use style="fill:#1f77b4;stroke:#1f77b4;" x="243.094355" xlink:href="#m102d03fcb3" y="164.746194"/>
     <use style="fill:#1f77b4;stroke:#1f77b4;" x="238.045222" xlink:href="#m102d03fcb3" y="165.527871"/>
     <use style="fill:#1f77b4;stroke:#1f77b4;" x="233.094493" xlink:href="#m102d03fcb3" y="166.185421"/>
     <use style="fill:#1f77b4;stroke:#1f77b4;" x="228.228735" xlink:href="#m102d03fcb3" y="166.327105"/>
     <use style="fill:#1f77b4;stroke:#1f77b4;" x="223.444987" xlink:href="#m102d03fcb3" y="165.928503"/>
     <use style="fill:#1f77b4;stroke:#1f77b4;" x="218.753921" xlink:href="#m102d03fcb3" y="165.314202"/>
     <use style="fill:#1f77b4;stroke:#1f77b4;" x="214.137221" xlink:href="#m102d03fcb3" y="164.221394"/>
     <use style="fill:#1f77b4;stroke:#1f77b4;" x="209.617329" xlink:href="#m102d03fcb3" y="163.261756"/>
     <use style="fill:#1f77b4;stroke:#1f77b4;" x="205.16593" xlink:href="#m102d03fcb3" y="161.907064"/>
     <use style="fill:#1f77b4;stroke:#1f77b4;" x="200.797133" xlink:href="#m102d03fcb3" y="159.972163"/>
     <use style="fill:#1f77b4;stroke:#1f77b4;" x="196.489964" xlink:href="#m102d03fcb3" y="158.112187"/>
     <use style="fill:#1f77b4;stroke:#1f77b4;" x="192.271981" xlink:href="#m102d03fcb3" y="155.563987"/>
     <use style="fill:#1f77b4;stroke:#1f77b4;" x="188.12172" xlink:href="#m102d03fcb3" y="152.60955"/>
     <use style="fill:#1f77b4;stroke:#1f77b4;" x="184.067558" xlink:href="#m102d03fcb3" y="149.914903"/>
     <use style="fill:#1f77b4;stroke:#1f77b4;" x="180.070371" xlink:href="#m102d03fcb3" y="146.738329"/>
     <use style="fill:#1f77b4;stroke:#1f77b4;" x="176.15415" xlink:href="#m102d03fcb3" y="143.135101"/>
     <use style="fill:#1f77b4;stroke:#1f77b4;" x="172.329778" xlink:href="#m102d03fcb3" y="139.885962"/>
     <use style="fill:#1f77b4;stroke:#1f77b4;" x="168.531188" xlink:href="#m102d03fcb3" y="136.342961"/>
     <use style="fill:#1f77b4;stroke:#1f77b4;" x="164.855893" xlink:href="#m102d03fcb3" y="132.46"/>
     <use style="fill:#1f77b4;stroke:#1f77b4;" x="161.225061" xlink:href="#m102d03fcb3" y="128.839546"/>
     <use style="fill:#1f77b4;stroke:#1f77b4;" x="157.650306" xlink:href="#m102d03fcb3" y="124.611961"/>
     <use style="fill:#1f77b4;stroke:#1f77b4;" x="154.158115" xlink:href="#m102d03fcb3" y="120.672477"/>
     <use style="fill:#1f77b4;stroke:#1f77b4;" x="150.719271" xlink:href="#m102d03fcb3" y="116.305401"/>
     <use style="fill:#1f77b4;stroke:#1f77b4;" x="147.346362" xlink:href="#m102d03fcb3" y="111.301443"/>
     <use style="fill:#1f77b4;stroke:#1f77b4;" x="144.064735" xlink:href="#m102d03fcb3" y="107.106871"/>
     <use style="fill:#1f77b4;stroke:#1f77b4;" x="143.734034" xlink:href="#m102d03fcb3" y="106.866018"/>
     <use style="fill:#1f77b4;stroke:#1f77b4;" x="143.402145" xlink:href="#m102d03fcb3" y="106.501518"/>
     <use style="fill:#1f77b4;stroke:#1f77b4;" x="143.075546" xlink:href="#m102d03fcb3" y="106.051848"/>
     <use style="fill:#1f77b4;stroke:#1f77b4;" x="142.750613" xlink:href="#m102d03fcb3" y="105.541568"/>
     <use style="fill:#1f77b4;stroke:#1f77b4;" x="142.426583" xlink:href="#m102d03fcb3" y="105.112"/>
     <use style="fill:#1f77b4;stroke:#1f77b4;" x="142.103731" xlink:href="#m102d03fcb3" y="104.634835"/>
     <use style="fill:#1f77b4;stroke:#1f77b4;" x="141.783253" xlink:href="#m102d03fcb3" y="104.199915"/>
     <use style="fill:#1f77b4;stroke:#1f77b4;" x="141.463615" xlink:href="#m102d03fcb3" y="103.745191"/>
     <use style="fill:#1f77b4;stroke:#1f77b4;" x="141.14589" xlink:href="#m102d03fcb3" y="103.333412"/>
     <use style="fill:#1f77b4;stroke:#1f77b4;" x="140.829557" xlink:href="#m102d03fcb3" y="102.890077"/>
     <use style="fill:#1f77b4;stroke:#1f77b4;" x="140.510384" xlink:href="#m102d03fcb3" y="102.394167"/>
     <use style="fill:#1f77b4;stroke:#1f77b4;" x="140.196683" xlink:href="#m102d03fcb3" y="101.937419"/>
     <use style="fill:#1f77b4;stroke:#1f77b4;" x="139.883625" xlink:href="#m102d03fcb3" y="101.526618"/>
     <use style="fill:#1f77b4;stroke:#1f77b4;" x="139.565569" xlink:href="#m102d03fcb3" y="101.122665"/>
     <use style="fill:#1f77b4;stroke:#1f77b4;" x="139.253259" xlink:href="#m102d03fcb3" y="100.675485"/>
     <use style="fill:#1f77b4;stroke:#1f77b4;" x="138.941597" xlink:href="#m102d03fcb3" y="100.333116"/>
     <use style="fill:#1f77b4;stroke:#1f77b4;" x="138.626209" xlink:href="#m102d03fcb3" y="99.910476"/>
     <use style="fill:#1f77b4;stroke:#1f77b4;" x="138.313827" xlink:href="#m102d03fcb3" y="99.557482"/>
     <use style="fill:#1f77b4;stroke:#1f77b4;" x="138.002859" xlink:href="#m102d03fcb3" y="99.065425"/>
     <use style="fill:#1f77b4;stroke:#1f77b4;" x="137.693096" xlink:href="#m102d03fcb3" y="98.68258"/>
     <use style="fill:#1f77b4;stroke:#1f77b4;" x="137.387522" xlink:href="#m102d03fcb3" y="98.324838"/>
     <use style="fill:#1f77b4;stroke:#1f77b4;" x="137.077176" xlink:href="#m102d03fcb3" y="97.936106"/>
     <use style="fill:#1f77b4;stroke:#1f77b4;" x="136.772646" xlink:href="#m102d03fcb3" y="97.576777"/>
     <use style="fill:#1f77b4;stroke:#1f77b4;" x="136.462676" xlink:href="#m102d03fcb3" y="97.167716"/>
     <use style="fill:#1f77b4;stroke:#1f77b4;" x="136.155245" xlink:href="#m102d03fcb3" y="96.751194"/>
     <use style="fill:#1f77b4;stroke:#1f77b4;" x="136.124214" xlink:href="#m102d03fcb3" y="96.720933"/>
     <use style="fill:#1f77b4;stroke:#1f77b4;" x="136.093504" xlink:href="#m102d03fcb3" y="96.690304"/>
     <use style="fill:#1f77b4;stroke:#1f77b4;" x="136.063047" xlink:href="#m102d03fcb3" y="96.650293"/>
     <use style="fill:#1f77b4;stroke:#1f77b4;" x="136.032088" xlink:href="#m102d03fcb3" y="96.623221"/>
     <use style="fill:#1f77b4;stroke:#1f77b4;" x="136.001865" xlink:href="#m102d03fcb3" y="96.585395"/>
     <use style="fill:#1f77b4;stroke:#1f77b4;" x="135.971176" xlink:href="#m102d03fcb3" y="96.548819"/>
     <use style="fill:#1f77b4;stroke:#1f77b4;" x="135.940383" xlink:href="#m102d03fcb3" y="96.516661"/>
     <use style="fill:#1f77b4;stroke:#1f77b4;" x="135.909594" xlink:href="#m102d03fcb3" y="96.474846"/>
     <use style="fill:#1f77b4;stroke:#1f77b4;" x="135.878941" xlink:href="#m102d03fcb3" y="96.441714"/>
     <use style="fill:#1f77b4;stroke:#1f77b4;" x="135.848149" xlink:href="#m102d03fcb3" y="96.418186"/>
     <use style="fill:#1f77b4;stroke:#1f77b4;" x="135.817491" xlink:href="#m102d03fcb3" y="96.377081"/>
     <use style="fill:#1f77b4;stroke:#1f77b4;" x="135.786983" xlink:href="#m102d03fcb3" y="96.342284"/>
     <use style="fill:#1f77b4;stroke:#1f77b4;" x="135.755975" xlink:href="#m102d03fcb3" y="96.304757"/>
     <use style="fill:#1f77b4;stroke:#1f77b4;" x="135.724919" xlink:href="#m102d03fcb3" y="96.281429"/>
     <use style="fill:#1f77b4;stroke:#1f77b4;" x="135.693745" xlink:href="#m102d03fcb3" y="96.245292"/>
     <use style="fill:#1f77b4;stroke:#1f77b4;" x="135.664263" xlink:href="#m102d03fcb3" y="96.212959"/>
     <use style="fill:#1f77b4;stroke:#1f77b4;" x="135.633942" xlink:href="#m102d03fcb3" y="96.175197"/>
     <use style="fill:#1f77b4;stroke:#1f77b4;" x="135.602985" xlink:href="#m102d03fcb3" y="96.135727"/>
     <use style="fill:#1f77b4;stroke:#1f77b4;" x="135.572409" xlink:href="#m102d03fcb3" y="96.10922"/>
     <use style="fill:#1f77b4;stroke:#1f77b4;" x="135.541823" xlink:href="#m102d03fcb3" y="96.073343"/>
     <use style="fill:#1f77b4;stroke:#1f77b4;" x="135.511621" xlink:href="#m102d03fcb3" y="96.040658"/>
     <use style="fill:#1f77b4;stroke:#1f77b4;" x="135.480997" xlink:href="#m102d03fcb3" y="96.00538"/>
     <use style="fill:#1f77b4;stroke:#1f77b4;" x="135.450291" xlink:href="#m102d03fcb3" y="95.971807"/>
     <use style="fill:#1f77b4;stroke:#1f77b4;" x="135.419248" xlink:href="#m102d03fcb3" y="95.935524"/>
    </g>
   </g>
   <g id="patch_3">
    <path d="M 56.028488 273.312 
L 56.028488 7.2 
" style="fill:none;stroke:#000000;stroke-linecap:square;stroke-linejoin:miter;stroke-width:0.8;"/>
   </g>
   <g id="patch_4">
    <path d="M 413.148488 273.312 
L 413.148488 7.2 
" style="fill:none;stroke:#000000;stroke-linecap:square;stroke-linejoin:miter;stroke-width:0.8;"/>
   </g>
   <g id="patch_5">
    <path d="M 56.028488 273.312 
L 413.148488 273.312 
" style="fill:none;stroke:#000000;stroke-linecap:square;stroke-linejoin:miter;stroke-width:0.8;"/>
   </g>
   <g id="patch_6">
    <path d="M 56.028488 7.2 
L 413.148488 7.2 
" style="fill:none;stroke:#000000;stroke-linecap:square;stroke-linejoin:miter;stroke-width:0.8;"/>
   </g>
   <g id="text_21">
    <g clip-path="url(#pae4d8146c1)">
     <!-- 2.000 -->
     <g style="fill:#404688;" transform="translate(119.159468 66.752436)rotate(-332.204343)scale(0.06 -0.06)">
      <use xlink:href="#DejaVuSans-50"/>
      <use x="63.623047" xlink:href="#DejaVuSans-46"/>
      <use x="95.410156" xlink:href="#DejaVuSans-48"/>
      <use x="159.033203" xlink:href="#DejaVuSans-48"/>
      <use x="222.65625" xlink:href="#DejaVuSans-48"/>
     </g>
    </g>
   </g>
   <g id="text_22">
    <g clip-path="url(#pae4d8146c1)">
     <!-- 2.500 -->
     <g style="fill:#39558c;" transform="translate(107.256117 34.852704)rotate(-7.634127)scale(0.06 -0.06)">
      <use xlink:href="#DejaVuSans-50"/>
      <use x="63.623047" xlink:href="#DejaVuSans-46"/>
      <use x="95.410156" xlink:href="#DejaVuSans-53"/>
      <use x="159.033203" xlink:href="#DejaVuSans-48"/>
      <use x="222.65625" xlink:href="#DejaVuSans-48"/>
     </g>
    </g>
   </g>
   <g id="text_23">
    <g clip-path="url(#pae4d8146c1)">
     <!-- 3.000 -->
     <g style="fill:#33638d;" transform="translate(63.153157 21.950574)rotate(-31.33232)scale(0.06 -0.06)">
      <use xlink:href="#DejaVuSans-51"/>
      <use x="63.623047" xlink:href="#DejaVuSans-46"/>
      <use x="95.410156" xlink:href="#DejaVuSans-48"/>
      <use x="159.033203" xlink:href="#DejaVuSans-48"/>
      <use x="222.65625" xlink:href="#DejaVuSans-48"/>
     </g>
    </g>
   </g>
   <g id="text_24">
    <g clip-path="url(#pae4d8146c1)">
     <!-- 3.000 -->
     <g style="fill:#33638d;" transform="translate(137.742969 69.589933)rotate(-270.513101)scale(0.06 -0.06)">
      <use xlink:href="#DejaVuSans-51"/>
      <use x="63.623047" xlink:href="#DejaVuSans-46"/>
      <use x="95.410156" xlink:href="#DejaVuSans-48"/>
      <use x="159.033203" xlink:href="#DejaVuSans-48"/>
      <use x="222.65625" xlink:href="#DejaVuSans-48"/>
     </g>
    </g>
   </g>
   <g id="text_25">
    <g clip-path="url(#pae4d8146c1)">
     <!-- 3.500 -->
     <g style="fill:#2d718e;" transform="translate(137.901171 78.468568)rotate(-270.782313)scale(0.06 -0.06)">
      <use xlink:href="#DejaVuSans-51"/>
      <use x="63.623047" xlink:href="#DejaVuSans-46"/>
      <use x="95.410156" xlink:href="#DejaVuSans-53"/>
      <use x="159.033203" xlink:href="#DejaVuSans-48"/>
      <use x="222.65625" xlink:href="#DejaVuSans-48"/>
     </g>
    </g>
   </g>
   <g id="text_26">
    <g clip-path="url(#pae4d8146c1)">
     <!-- 4.000 -->
     <g style="fill:#287d8e;" transform="translate(138.12965 87.350464)rotate(-271.148229)scale(0.06 -0.06)">
      <use xlink:href="#DejaVuSans-52"/>
      <use x="63.623047" xlink:href="#DejaVuSans-46"/>
      <use x="95.410156" xlink:href="#DejaVuSans-48"/>
      <use x="159.033203" xlink:href="#DejaVuSans-48"/>
      <use x="222.65625" xlink:href="#DejaVuSans-48"/>
     </g>
    </g>
   </g>
   <g id="text_27">
    <g clip-path="url(#pae4d8146c1)">
     <!-- 4.500 -->
     <g style="fill:#238a8d;" transform="translate(138.243793 87.359437)rotate(-271.426398)scale(0.06 -0.06)">
      <use xlink:href="#DejaVuSans-52"/>
      <use x="63.623047" xlink:href="#DejaVuSans-46"/>
      <use x="95.410156" xlink:href="#DejaVuSans-53"/>
      <use x="159.033203" xlink:href="#DejaVuSans-48"/>
      <use x="222.65625" xlink:href="#DejaVuSans-48"/>
     </g>
    </g>
   </g>
   <g id="text_28">
    <g clip-path="url(#pae4d8146c1)">
     <!-- 5.000 -->
     <g style="fill:#1f968b;" transform="translate(138.357992 87.368608)rotate(-271.704491)scale(0.06 -0.06)">
      <use xlink:href="#DejaVuSans-53"/>
      <use x="63.623047" xlink:href="#DejaVuSans-46"/>
      <use x="95.410156" xlink:href="#DejaVuSans-48"/>
      <use x="159.033203" xlink:href="#DejaVuSans-48"/>
      <use x="222.65625" xlink:href="#DejaVuSans-48"/>
     </g>
    </g>
   </g>
   <g id="text_29">
    <g clip-path="url(#pae4d8146c1)">
     <!-- 5.500 -->
     <g style="fill:#20a386;" transform="translate(138.472249 87.377978)rotate(-271.982493)scale(0.06 -0.06)">
      <use xlink:href="#DejaVuSans-53"/>
      <use x="63.623047" xlink:href="#DejaVuSans-46"/>
      <use x="95.410156" xlink:href="#DejaVuSans-53"/>
      <use x="159.033203" xlink:href="#DejaVuSans-48"/>
      <use x="222.65625" xlink:href="#DejaVuSans-48"/>
     </g>
    </g>
   </g>
   <g id="text_30">
    <g clip-path="url(#pae4d8146c1)">
     <!-- 6.000 -->
     <g style="fill:#29af7f;" transform="translate(138.586568 87.387545)rotate(-272.260388)scale(0.06 -0.06)">
      <use xlink:href="#DejaVuSans-54"/>
      <use x="63.623047" xlink:href="#DejaVuSans-46"/>
      <use x="95.410156" xlink:href="#DejaVuSans-48"/>
      <use x="159.033203" xlink:href="#DejaVuSans-48"/>
      <use x="222.65625" xlink:href="#DejaVuSans-48"/>
     </g>
    </g>
   </g>
   <g id="text_31">
    <g clip-path="url(#pae4d8146c1)">
     <!-- 6.500 -->
     <g style="fill:#3dbc74;" transform="translate(139.054807 96.284483)rotate(-273.002771)scale(0.06 -0.06)">
      <use xlink:href="#DejaVuSans-54"/>
      <use x="63.623047" xlink:href="#DejaVuSans-46"/>
      <use x="95.410156" xlink:href="#DejaVuSans-53"/>
      <use x="159.033203" xlink:href="#DejaVuSans-48"/>
      <use x="222.65625" xlink:href="#DejaVuSans-48"/>
     </g>
    </g>
   </g>
   <g id="text_32">
    <g clip-path="url(#pae4d8146c1)">
     <!-- 7.000 -->
     <g style="fill:#56c667;" transform="translate(139.207233 96.297037)rotate(-273.340732)scale(0.06 -0.06)">
      <use xlink:href="#DejaVuSans-55"/>
      <use x="63.623047" xlink:href="#DejaVuSans-46"/>
      <use x="95.410156" xlink:href="#DejaVuSans-48"/>
      <use x="159.033203" xlink:href="#DejaVuSans-48"/>
      <use x="222.65625" xlink:href="#DejaVuSans-48"/>
     </g>
    </g>
   </g>
   <g id="text_33">
    <g clip-path="url(#pae4d8146c1)">
     <!-- 7.500 -->
     <g style="fill:#75d054;" transform="translate(139.359779 96.309874)rotate(-273.678386)scale(0.06 -0.06)">
      <use xlink:href="#DejaVuSans-55"/>
      <use x="63.623047" xlink:href="#DejaVuSans-46"/>
      <use x="95.410156" xlink:href="#DejaVuSans-53"/>
      <use x="159.033203" xlink:href="#DejaVuSans-48"/>
      <use x="222.65625" xlink:href="#DejaVuSans-48"/>
     </g>
    </g>
   </g>
   <g id="text_34">
    <g clip-path="url(#pae4d8146c1)">
     <!-- 8.000 -->
     <g style="fill:#95d840;" transform="translate(139.512452 96.322991)rotate(-274.015703)scale(0.06 -0.06)">
      <use xlink:href="#DejaVuSans-56"/>
      <use x="63.623047" xlink:href="#DejaVuSans-46"/>
      <use x="95.410156" xlink:href="#DejaVuSans-48"/>
      <use x="159.033203" xlink:href="#DejaVuSans-48"/>
      <use x="222.65625" xlink:href="#DejaVuSans-48"/>
     </g>
    </g>
   </g>
   <g id="text_35">
    <g clip-path="url(#pae4d8146c1)">
     <!-- 8.500 -->
     <g style="fill:#bade28;" transform="translate(139.665257 96.336387)rotate(-274.35265)scale(0.06 -0.06)">
      <use xlink:href="#DejaVuSans-56"/>
      <use x="63.623047" xlink:href="#DejaVuSans-46"/>
      <use x="95.410156" xlink:href="#DejaVuSans-53"/>
      <use x="159.033203" xlink:href="#DejaVuSans-48"/>
      <use x="222.65625" xlink:href="#DejaVuSans-48"/>
     </g>
    </g>
   </g>
   <g id="text_36">
    <g clip-path="url(#pae4d8146c1)">
     <!-- 9.000 -->
     <g style="fill:#dde318;" transform="translate(125.373047 -1.224064)rotate(-274.69597)scale(0.06 -0.06)">
      <use xlink:href="#DejaVuSans-57"/>
      <use x="63.623047" xlink:href="#DejaVuSans-46"/>
      <use x="95.410156" xlink:href="#DejaVuSans-48"/>
      <use x="159.033203" xlink:href="#DejaVuSans-48"/>
      <use x="222.65625" xlink:href="#DejaVuSans-48"/>
     </g>
    </g>
   </g>
   <g id="text_37">
    <g clip-path="url(#pae4d8146c1)">
     <!-- 9.500 -->
     <g style="fill:#fde725;" transform="translate(139.971288 96.364002)rotate(-275.025315)scale(0.06 -0.06)">
      <use xlink:href="#DejaVuSans-57"/>
      <use x="63.623047" xlink:href="#DejaVuSans-46"/>
      <use x="95.410156" xlink:href="#DejaVuSans-53"/>
      <use x="159.033203" xlink:href="#DejaVuSans-48"/>
      <use x="222.65625" xlink:href="#DejaVuSans-48"/>
     </g>
    </g>
   </g>
   <g id="text_38">
    <g clip-path="url(#pae4d8146c1)">
     <!-- 10.000 -->
     <g style="fill:#440154;" transform="translate(141.322797 112.44777)rotate(-279.712286)scale(0.06 -0.06)">
      <use xlink:href="#DejaVuSans-49"/>
      <use x="63.623047" xlink:href="#DejaVuSans-48"/>
      <use x="127.246094" xlink:href="#DejaVuSans-46"/>
      <use x="159.033203" xlink:href="#DejaVuSans-48"/>
      <use x="222.65625" xlink:href="#DejaVuSans-48"/>
      <use x="286.279297" xlink:href="#DejaVuSans-48"/>
     </g>
    </g>
   </g>
   <g id="text_39">
    <g clip-path="url(#pae4d8146c1)">
     <!-- 100.000 -->
     <g style="fill:#440154;" transform="translate(150.522836 128.259037)rotate(-278.955725)scale(0.06 -0.06)">
      <use xlink:href="#DejaVuSans-49"/>
      <use x="63.623047" xlink:href="#DejaVuSans-48"/>
      <use x="127.246094" xlink:href="#DejaVuSans-48"/>
      <use x="190.869141" xlink:href="#DejaVuSans-46"/>
      <use x="222.65625" xlink:href="#DejaVuSans-48"/>
      <use x="286.279297" xlink:href="#DejaVuSans-48"/>
      <use x="349.902344" xlink:href="#DejaVuSans-48"/>
     </g>
    </g>
   </g>
   <g id="text_40">
    <g clip-path="url(#pae4d8146c1)">
     <!-- 1000.000 -->
     <g style="fill:#440154;" transform="translate(161.427151 125.971095)rotate(-270.961046)scale(0.06 -0.06)">
      <use xlink:href="#DejaVuSans-49"/>
      <use x="63.623047" xlink:href="#DejaVuSans-48"/>
      <use x="127.246094" xlink:href="#DejaVuSans-48"/>
      <use x="190.869141" xlink:href="#DejaVuSans-48"/>
      <use x="254.492188" xlink:href="#DejaVuSans-46"/>
      <use x="286.279297" xlink:href="#DejaVuSans-48"/>
      <use x="349.902344" xlink:href="#DejaVuSans-48"/>
      <use x="413.525391" xlink:href="#DejaVuSans-48"/>
     </g>
    </g>
   </g>
   <g id="text_41">
    <g clip-path="url(#pae4d8146c1)">
     <!-- 10000.000 -->
     <g style="fill:#440154;" transform="translate(161.142887 124.577625)rotate(-280.142321)scale(0.06 -0.06)">
      <use xlink:href="#DejaVuSans-49"/>
      <use x="63.623047" xlink:href="#DejaVuSans-48"/>
      <use x="127.246094" xlink:href="#DejaVuSans-48"/>
      <use x="190.869141" xlink:href="#DejaVuSans-48"/>
      <use x="254.492188" xlink:href="#DejaVuSans-48"/>
      <use x="318.115234" xlink:href="#DejaVuSans-46"/>
      <use x="349.902344" xlink:href="#DejaVuSans-48"/>
      <use x="413.525391" xlink:href="#DejaVuSans-48"/>
      <use x="477.148438" xlink:href="#DejaVuSans-48"/>
     </g>
    </g>
   </g>
   <g id="text_42">
    <g clip-path="url(#pae4d8146c1)">
     <!-- 100000.000 -->
     <g style="fill:#440154;" transform="translate(171.852666 122.350312)rotate(-275.231647)scale(0.06 -0.06)">
      <use xlink:href="#DejaVuSans-49"/>
      <use x="63.623047" xlink:href="#DejaVuSans-48"/>
      <use x="127.246094" xlink:href="#DejaVuSans-48"/>
      <use x="190.869141" xlink:href="#DejaVuSans-48"/>
      <use x="254.492188" xlink:href="#DejaVuSans-48"/>
      <use x="318.115234" xlink:href="#DejaVuSans-48"/>
      <use x="381.738281" xlink:href="#DejaVuSans-46"/>
      <use x="413.525391" xlink:href="#DejaVuSans-48"/>
      <use x="477.148438" xlink:href="#DejaVuSans-48"/>
      <use x="540.771484" xlink:href="#DejaVuSans-48"/>
     </g>
    </g>
   </g>
   <g id="text_43">
    <g clip-path="url(#pae4d8146c1)">
     <!-- 1000000.000 -->
     <g style="fill:#450457;" transform="translate(172.718046 120.527901)rotate(-276.449976)scale(0.06 -0.06)">
      <use xlink:href="#DejaVuSans-49"/>
      <use x="63.623047" xlink:href="#DejaVuSans-48"/>
      <use x="127.246094" xlink:href="#DejaVuSans-48"/>
      <use x="190.869141" xlink:href="#DejaVuSans-48"/>
      <use x="254.492188" xlink:href="#DejaVuSans-48"/>
      <use x="318.115234" xlink:href="#DejaVuSans-48"/>
      <use x="381.738281" xlink:href="#DejaVuSans-48"/>
      <use x="445.361328" xlink:href="#DejaVuSans-46"/>
      <use x="477.148438" xlink:href="#DejaVuSans-48"/>
      <use x="540.771484" xlink:href="#DejaVuSans-48"/>
      <use x="604.394531" xlink:href="#DejaVuSans-48"/>
     </g>
    </g>
   </g>
   <g id="text_44">
    <g clip-path="url(#pae4d8146c1)">
     <!-- 10000000.000 -->
     <g style="fill:#482475;" transform="translate(181.708215 118.889976)rotate(-279.601885)scale(0.06 -0.06)">
      <use xlink:href="#DejaVuSans-49"/>
      <use x="63.623047" xlink:href="#DejaVuSans-48"/>
      <use x="127.246094" xlink:href="#DejaVuSans-48"/>
      <use x="190.869141" xlink:href="#DejaVuSans-48"/>
      <use x="254.492188" xlink:href="#DejaVuSans-48"/>
      <use x="318.115234" xlink:href="#DejaVuSans-48"/>
      <use x="381.738281" xlink:href="#DejaVuSans-48"/>
      <use x="445.361328" xlink:href="#DejaVuSans-48"/>
      <use x="508.984375" xlink:href="#DejaVuSans-46"/>
      <use x="540.771484" xlink:href="#DejaVuSans-48"/>
      <use x="604.394531" xlink:href="#DejaVuSans-48"/>
      <use x="668.017578" xlink:href="#DejaVuSans-48"/>
     </g>
    </g>
   </g>
   <g id="text_45">
    <g clip-path="url(#pae4d8146c1)">
     <!-- 100000000.000 -->
     <g style="fill:#fde725;" transform="translate(184.323591 116.62661)rotate(-274.906739)scale(0.06 -0.06)">
      <use xlink:href="#DejaVuSans-49"/>
      <use x="63.623047" xlink:href="#DejaVuSans-48"/>
      <use x="127.246094" xlink:href="#DejaVuSans-48"/>
      <use x="190.869141" xlink:href="#DejaVuSans-48"/>
      <use x="254.492188" xlink:href="#DejaVuSans-48"/>
      <use x="318.115234" xlink:href="#DejaVuSans-48"/>
      <use x="381.738281" xlink:href="#DejaVuSans-48"/>
      <use x="445.361328" xlink:href="#DejaVuSans-48"/>
      <use x="508.984375" xlink:href="#DejaVuSans-48"/>
      <use x="572.607422" xlink:href="#DejaVuSans-46"/>
      <use x="604.394531" xlink:href="#DejaVuSans-48"/>
      <use x="668.017578" xlink:href="#DejaVuSans-48"/>
      <use x="731.640625" xlink:href="#DejaVuSans-48"/>
     </g>
    </g>
   </g>
  </g>
 </g>
 <defs>
  <clipPath id="pae4d8146c1">
   <rect height="266.112" width="357.12" x="56.028488" y="7.2"/>
  </clipPath>
 </defs>
</svg>
