<?xml version="1.0" encoding="utf-8" standalone="no"?>
<!DOCTYPE svg PUBLIC "-//W3C//DTD SVG 1.1//EN"
  "http://www.w3.org/Graphics/SVG/1.1/DTD/svg11.dtd">
<!-- Created with matplotlib (https://matplotlib.org/) -->
<svg height="321.713144pt" version="1.1" viewBox="0 0 420.348487 321.713144" width="420.348487pt" xmlns="http://www.w3.org/2000/svg" xmlns:xlink="http://www.w3.org/1999/xlink">
 <metadata>
  <rdf:RDF xmlns:cc="http://creativecommons.org/ns#" xmlns:dc="http://purl.org/dc/elements/1.1/" xmlns:rdf="http://www.w3.org/1999/02/22-rdf-syntax-ns#">
   <cc:Work>
    <dc:type rdf:resource="http://purl.org/dc/dcmitype/StillImage"/>
    <dc:date>2021-09-17T13:42:07.366996</dc:date>
    <dc:format>image/svg+xml</dc:format>
    <dc:creator>
     <cc:Agent>
      <dc:title>Matplotlib v3.3.1, https://matplotlib.org/</dc:title>
     </cc:Agent>
    </dc:creator>
   </cc:Work>
  </rdf:RDF>
 </metadata>
 <defs>
  <style type="text/css">*{stroke-linecap:butt;stroke-linejoin:round;}</style>
 </defs>
 <g id="figure_1">
  <g id="patch_1">
   <path d="M 0 321.713144 
L 420.348487 321.713144 
L 420.348487 0 
L 0 0 
z
" style="fill:#ffffff;"/>
  </g>
  <g id="axes_1">
   <g id="patch_2">
    <path d="M 56.028488 277.111219 
L 413.148488 277.111219 
L 413.148488 10.999219 
L 56.028488 10.999219 
z
" style="fill:#ffffff;"/>
   </g>
   <g id="matplotlib.axis_1">
    <g id="xtick_1">
     <g id="line2d_1">
      <defs>
       <path d="M 0 0 
L 0 3.5 
" id="m5ca9ba75ce" style="stroke:#000000;stroke-width:0.8;"/>
      </defs>
      <g>
       <use style="stroke:#000000;stroke-width:0.8;" x="65.426382" xlink:href="#m5ca9ba75ce" y="277.111219"/>
      </g>
     </g>
     <g id="text_1">
      <!-- −25 -->
      <g transform="translate(54.874038 291.709656)scale(0.1 -0.1)">
       <defs>
        <path d="M 10.59375 35.5 
L 73.1875 35.5 
L 73.1875 27.203125 
L 10.59375 27.203125 
z
" id="DejaVuSans-8722"/>
        <path d="M 19.1875 8.296875 
L 53.609375 8.296875 
L 53.609375 0 
L 7.328125 0 
L 7.328125 8.296875 
Q 12.9375 14.109375 22.625 23.890625 
Q 32.328125 33.6875 34.8125 36.53125 
Q 39.546875 41.84375 41.421875 45.53125 
Q 43.3125 49.21875 43.3125 52.78125 
Q 43.3125 58.59375 39.234375 62.25 
Q 35.15625 65.921875 28.609375 65.921875 
Q 23.96875 65.921875 18.8125 64.3125 
Q 13.671875 62.703125 7.8125 59.421875 
L 7.8125 69.390625 
Q 13.765625 71.78125 18.9375 73 
Q 24.125 74.21875 28.421875 74.21875 
Q 39.75 74.21875 46.484375 68.546875 
Q 53.21875 62.890625 53.21875 53.421875 
Q 53.21875 48.921875 51.53125 44.890625 
Q 49.859375 40.875 45.40625 35.40625 
Q 44.1875 33.984375 37.640625 27.21875 
Q 31.109375 20.453125 19.1875 8.296875 
z
" id="DejaVuSans-50"/>
        <path d="M 10.796875 72.90625 
L 49.515625 72.90625 
L 49.515625 64.59375 
L 19.828125 64.59375 
L 19.828125 46.734375 
Q 21.96875 47.46875 24.109375 47.828125 
Q 26.265625 48.1875 28.421875 48.1875 
Q 40.625 48.1875 47.75 41.5 
Q 54.890625 34.8125 54.890625 23.390625 
Q 54.890625 11.625 47.5625 5.09375 
Q 40.234375 -1.421875 26.90625 -1.421875 
Q 22.3125 -1.421875 17.546875 -0.640625 
Q 12.796875 0.140625 7.71875 1.703125 
L 7.71875 11.625 
Q 12.109375 9.234375 16.796875 8.0625 
Q 21.484375 6.890625 26.703125 6.890625 
Q 35.15625 6.890625 40.078125 11.328125 
Q 45.015625 15.765625 45.015625 23.390625 
Q 45.015625 31 40.078125 35.4375 
Q 35.15625 39.890625 26.703125 39.890625 
Q 22.75 39.890625 18.8125 39.015625 
Q 14.890625 38.140625 10.796875 36.28125 
z
" id="DejaVuSans-53"/>
       </defs>
       <use xlink:href="#DejaVuSans-8722"/>
       <use x="83.789062" xlink:href="#DejaVuSans-50"/>
       <use x="147.412109" xlink:href="#DejaVuSans-53"/>
      </g>
     </g>
    </g>
    <g id="xtick_2">
     <g id="line2d_2">
      <g>
       <use style="stroke:#000000;stroke-width:0.8;" x="112.415856" xlink:href="#m5ca9ba75ce" y="277.111219"/>
      </g>
     </g>
     <g id="text_2">
      <!-- 0 -->
      <g transform="translate(109.234606 291.709656)scale(0.1 -0.1)">
       <defs>
        <path d="M 31.78125 66.40625 
Q 24.171875 66.40625 20.328125 58.90625 
Q 16.5 51.421875 16.5 36.375 
Q 16.5 21.390625 20.328125 13.890625 
Q 24.171875 6.390625 31.78125 6.390625 
Q 39.453125 6.390625 43.28125 13.890625 
Q 47.125 21.390625 47.125 36.375 
Q 47.125 51.421875 43.28125 58.90625 
Q 39.453125 66.40625 31.78125 66.40625 
z
M 31.78125 74.21875 
Q 44.046875 74.21875 50.515625 64.515625 
Q 56.984375 54.828125 56.984375 36.375 
Q 56.984375 17.96875 50.515625 8.265625 
Q 44.046875 -1.421875 31.78125 -1.421875 
Q 19.53125 -1.421875 13.0625 8.265625 
Q 6.59375 17.96875 6.59375 36.375 
Q 6.59375 54.828125 13.0625 64.515625 
Q 19.53125 74.21875 31.78125 74.21875 
z
" id="DejaVuSans-48"/>
       </defs>
       <use xlink:href="#DejaVuSans-48"/>
      </g>
     </g>
    </g>
    <g id="xtick_3">
     <g id="line2d_3">
      <g>
       <use style="stroke:#000000;stroke-width:0.8;" x="159.40533" xlink:href="#m5ca9ba75ce" y="277.111219"/>
      </g>
     </g>
     <g id="text_3">
      <!-- 25 -->
      <g transform="translate(153.04283 291.709656)scale(0.1 -0.1)">
       <use xlink:href="#DejaVuSans-50"/>
       <use x="63.623047" xlink:href="#DejaVuSans-53"/>
      </g>
     </g>
    </g>
    <g id="xtick_4">
     <g id="line2d_4">
      <g>
       <use style="stroke:#000000;stroke-width:0.8;" x="206.394803" xlink:href="#m5ca9ba75ce" y="277.111219"/>
      </g>
     </g>
     <g id="text_4">
      <!-- 50 -->
      <g transform="translate(200.032303 291.709656)scale(0.1 -0.1)">
       <use xlink:href="#DejaVuSans-53"/>
       <use x="63.623047" xlink:href="#DejaVuSans-48"/>
      </g>
     </g>
    </g>
    <g id="xtick_5">
     <g id="line2d_5">
      <g>
       <use style="stroke:#000000;stroke-width:0.8;" x="253.384277" xlink:href="#m5ca9ba75ce" y="277.111219"/>
      </g>
     </g>
     <g id="text_5">
      <!-- 75 -->
      <g transform="translate(247.021777 291.709656)scale(0.1 -0.1)">
       <defs>
        <path d="M 8.203125 72.90625 
L 55.078125 72.90625 
L 55.078125 68.703125 
L 28.609375 0 
L 18.3125 0 
L 43.21875 64.59375 
L 8.203125 64.59375 
z
" id="DejaVuSans-55"/>
       </defs>
       <use xlink:href="#DejaVuSans-55"/>
       <use x="63.623047" xlink:href="#DejaVuSans-53"/>
      </g>
     </g>
    </g>
    <g id="xtick_6">
     <g id="line2d_6">
      <g>
       <use style="stroke:#000000;stroke-width:0.8;" x="300.373751" xlink:href="#m5ca9ba75ce" y="277.111219"/>
      </g>
     </g>
     <g id="text_6">
      <!-- 100 -->
      <g transform="translate(290.830001 291.709656)scale(0.1 -0.1)">
       <defs>
        <path d="M 12.40625 8.296875 
L 28.515625 8.296875 
L 28.515625 63.921875 
L 10.984375 60.40625 
L 10.984375 69.390625 
L 28.421875 72.90625 
L 38.28125 72.90625 
L 38.28125 8.296875 
L 54.390625 8.296875 
L 54.390625 0 
L 12.40625 0 
z
" id="DejaVuSans-49"/>
       </defs>
       <use xlink:href="#DejaVuSans-49"/>
       <use x="63.623047" xlink:href="#DejaVuSans-48"/>
       <use x="127.246094" xlink:href="#DejaVuSans-48"/>
      </g>
     </g>
    </g>
    <g id="xtick_7">
     <g id="line2d_7">
      <g>
       <use style="stroke:#000000;stroke-width:0.8;" x="347.363224" xlink:href="#m5ca9ba75ce" y="277.111219"/>
      </g>
     </g>
     <g id="text_7">
      <!-- 125 -->
      <g transform="translate(337.819474 291.709656)scale(0.1 -0.1)">
       <use xlink:href="#DejaVuSans-49"/>
       <use x="63.623047" xlink:href="#DejaVuSans-50"/>
       <use x="127.246094" xlink:href="#DejaVuSans-53"/>
      </g>
     </g>
    </g>
    <g id="xtick_8">
     <g id="line2d_8">
      <g>
       <use style="stroke:#000000;stroke-width:0.8;" x="394.352698" xlink:href="#m5ca9ba75ce" y="277.111219"/>
      </g>
     </g>
     <g id="text_8">
      <!-- 150 -->
      <g transform="translate(384.808948 291.709656)scale(0.1 -0.1)">
       <use xlink:href="#DejaVuSans-49"/>
       <use x="63.623047" xlink:href="#DejaVuSans-53"/>
       <use x="127.246094" xlink:href="#DejaVuSans-48"/>
      </g>
     </g>
    </g>
    <g id="text_9">
     <!-- 1st PC: 85.65 % -->
     <g transform="translate(165.868088 310.919444)scale(0.1728 -0.1728)">
      <defs>
       <path d="M 44.28125 53.078125 
L 44.28125 44.578125 
Q 40.484375 46.53125 36.375 47.5 
Q 32.28125 48.484375 27.875 48.484375 
Q 21.1875 48.484375 17.84375 46.4375 
Q 14.5 44.390625 14.5 40.28125 
Q 14.5 37.15625 16.890625 35.375 
Q 19.28125 33.59375 26.515625 31.984375 
L 29.59375 31.296875 
Q 39.15625 29.25 43.1875 25.515625 
Q 47.21875 21.78125 47.21875 15.09375 
Q 47.21875 7.46875 41.1875 3.015625 
Q 35.15625 -1.421875 24.609375 -1.421875 
Q 20.21875 -1.421875 15.453125 -0.5625 
Q 10.6875 0.296875 5.421875 2 
L 5.421875 11.28125 
Q 10.40625 8.6875 15.234375 7.390625 
Q 20.0625 6.109375 24.8125 6.109375 
Q 31.15625 6.109375 34.5625 8.28125 
Q 37.984375 10.453125 37.984375 14.40625 
Q 37.984375 18.0625 35.515625 20.015625 
Q 33.0625 21.96875 24.703125 23.78125 
L 21.578125 24.515625 
Q 13.234375 26.265625 9.515625 29.90625 
Q 5.8125 33.546875 5.8125 39.890625 
Q 5.8125 47.609375 11.28125 51.796875 
Q 16.75 56 26.8125 56 
Q 31.78125 56 36.171875 55.265625 
Q 40.578125 54.546875 44.28125 53.078125 
z
" id="DejaVuSans-115"/>
       <path d="M 18.3125 70.21875 
L 18.3125 54.6875 
L 36.8125 54.6875 
L 36.8125 47.703125 
L 18.3125 47.703125 
L 18.3125 18.015625 
Q 18.3125 11.328125 20.140625 9.421875 
Q 21.96875 7.515625 27.59375 7.515625 
L 36.8125 7.515625 
L 36.8125 0 
L 27.59375 0 
Q 17.1875 0 13.234375 3.875 
Q 9.28125 7.765625 9.28125 18.015625 
L 9.28125 47.703125 
L 2.6875 47.703125 
L 2.6875 54.6875 
L 9.28125 54.6875 
L 9.28125 70.21875 
z
" id="DejaVuSans-116"/>
       <path id="DejaVuSans-32"/>
       <path d="M 19.671875 64.796875 
L 19.671875 37.40625 
L 32.078125 37.40625 
Q 38.96875 37.40625 42.71875 40.96875 
Q 46.484375 44.53125 46.484375 51.125 
Q 46.484375 57.671875 42.71875 61.234375 
Q 38.96875 64.796875 32.078125 64.796875 
z
M 9.8125 72.90625 
L 32.078125 72.90625 
Q 44.34375 72.90625 50.609375 67.359375 
Q 56.890625 61.8125 56.890625 51.125 
Q 56.890625 40.328125 50.609375 34.8125 
Q 44.34375 29.296875 32.078125 29.296875 
L 19.671875 29.296875 
L 19.671875 0 
L 9.8125 0 
z
" id="DejaVuSans-80"/>
       <path d="M 64.40625 67.28125 
L 64.40625 56.890625 
Q 59.421875 61.53125 53.78125 63.8125 
Q 48.140625 66.109375 41.796875 66.109375 
Q 29.296875 66.109375 22.65625 58.46875 
Q 16.015625 50.828125 16.015625 36.375 
Q 16.015625 21.96875 22.65625 14.328125 
Q 29.296875 6.6875 41.796875 6.6875 
Q 48.140625 6.6875 53.78125 8.984375 
Q 59.421875 11.28125 64.40625 15.921875 
L 64.40625 5.609375 
Q 59.234375 2.09375 53.4375 0.328125 
Q 47.65625 -1.421875 41.21875 -1.421875 
Q 24.65625 -1.421875 15.125 8.703125 
Q 5.609375 18.84375 5.609375 36.375 
Q 5.609375 53.953125 15.125 64.078125 
Q 24.65625 74.21875 41.21875 74.21875 
Q 47.75 74.21875 53.53125 72.484375 
Q 59.328125 70.75 64.40625 67.28125 
z
" id="DejaVuSans-67"/>
       <path d="M 11.71875 12.40625 
L 22.015625 12.40625 
L 22.015625 0 
L 11.71875 0 
z
M 11.71875 51.703125 
L 22.015625 51.703125 
L 22.015625 39.3125 
L 11.71875 39.3125 
z
" id="DejaVuSans-58"/>
       <path d="M 31.78125 34.625 
Q 24.75 34.625 20.71875 30.859375 
Q 16.703125 27.09375 16.703125 20.515625 
Q 16.703125 13.921875 20.71875 10.15625 
Q 24.75 6.390625 31.78125 6.390625 
Q 38.8125 6.390625 42.859375 10.171875 
Q 46.921875 13.96875 46.921875 20.515625 
Q 46.921875 27.09375 42.890625 30.859375 
Q 38.875 34.625 31.78125 34.625 
z
M 21.921875 38.8125 
Q 15.578125 40.375 12.03125 44.71875 
Q 8.5 49.078125 8.5 55.328125 
Q 8.5 64.0625 14.71875 69.140625 
Q 20.953125 74.21875 31.78125 74.21875 
Q 42.671875 74.21875 48.875 69.140625 
Q 55.078125 64.0625 55.078125 55.328125 
Q 55.078125 49.078125 51.53125 44.71875 
Q 48 40.375 41.703125 38.8125 
Q 48.828125 37.15625 52.796875 32.3125 
Q 56.78125 27.484375 56.78125 20.515625 
Q 56.78125 9.90625 50.3125 4.234375 
Q 43.84375 -1.421875 31.78125 -1.421875 
Q 19.734375 -1.421875 13.25 4.234375 
Q 6.78125 9.90625 6.78125 20.515625 
Q 6.78125 27.484375 10.78125 32.3125 
Q 14.796875 37.15625 21.921875 38.8125 
z
M 18.3125 54.390625 
Q 18.3125 48.734375 21.84375 45.5625 
Q 25.390625 42.390625 31.78125 42.390625 
Q 38.140625 42.390625 41.71875 45.5625 
Q 45.3125 48.734375 45.3125 54.390625 
Q 45.3125 60.0625 41.71875 63.234375 
Q 38.140625 66.40625 31.78125 66.40625 
Q 25.390625 66.40625 21.84375 63.234375 
Q 18.3125 60.0625 18.3125 54.390625 
z
" id="DejaVuSans-56"/>
       <path d="M 10.6875 12.40625 
L 21 12.40625 
L 21 0 
L 10.6875 0 
z
" id="DejaVuSans-46"/>
       <path d="M 33.015625 40.375 
Q 26.375 40.375 22.484375 35.828125 
Q 18.609375 31.296875 18.609375 23.390625 
Q 18.609375 15.53125 22.484375 10.953125 
Q 26.375 6.390625 33.015625 6.390625 
Q 39.65625 6.390625 43.53125 10.953125 
Q 47.40625 15.53125 47.40625 23.390625 
Q 47.40625 31.296875 43.53125 35.828125 
Q 39.65625 40.375 33.015625 40.375 
z
M 52.59375 71.296875 
L 52.59375 62.3125 
Q 48.875 64.0625 45.09375 64.984375 
Q 41.3125 65.921875 37.59375 65.921875 
Q 27.828125 65.921875 22.671875 59.328125 
Q 17.53125 52.734375 16.796875 39.40625 
Q 19.671875 43.65625 24.015625 45.921875 
Q 28.375 48.1875 33.59375 48.1875 
Q 44.578125 48.1875 50.953125 41.515625 
Q 57.328125 34.859375 57.328125 23.390625 
Q 57.328125 12.15625 50.6875 5.359375 
Q 44.046875 -1.421875 33.015625 -1.421875 
Q 20.359375 -1.421875 13.671875 8.265625 
Q 6.984375 17.96875 6.984375 36.375 
Q 6.984375 53.65625 15.1875 63.9375 
Q 23.390625 74.21875 37.203125 74.21875 
Q 40.921875 74.21875 44.703125 73.484375 
Q 48.484375 72.75 52.59375 71.296875 
z
" id="DejaVuSans-54"/>
       <path d="M 72.703125 32.078125 
Q 68.453125 32.078125 66.03125 28.46875 
Q 63.625 24.859375 63.625 18.40625 
Q 63.625 12.0625 66.03125 8.421875 
Q 68.453125 4.78125 72.703125 4.78125 
Q 76.859375 4.78125 79.265625 8.421875 
Q 81.6875 12.0625 81.6875 18.40625 
Q 81.6875 24.8125 79.265625 28.4375 
Q 76.859375 32.078125 72.703125 32.078125 
z
M 72.703125 38.28125 
Q 80.421875 38.28125 84.953125 32.90625 
Q 89.5 27.546875 89.5 18.40625 
Q 89.5 9.28125 84.9375 3.921875 
Q 80.375 -1.421875 72.703125 -1.421875 
Q 64.890625 -1.421875 60.34375 3.921875 
Q 55.8125 9.28125 55.8125 18.40625 
Q 55.8125 27.59375 60.375 32.9375 
Q 64.9375 38.28125 72.703125 38.28125 
z
M 22.3125 68.015625 
Q 18.109375 68.015625 15.6875 64.375 
Q 13.28125 60.75 13.28125 54.390625 
Q 13.28125 47.953125 15.671875 44.328125 
Q 18.0625 40.71875 22.3125 40.71875 
Q 26.5625 40.71875 28.96875 44.328125 
Q 31.390625 47.953125 31.390625 54.390625 
Q 31.390625 60.6875 28.953125 64.34375 
Q 26.515625 68.015625 22.3125 68.015625 
z
M 66.40625 74.21875 
L 74.21875 74.21875 
L 28.609375 -1.421875 
L 20.796875 -1.421875 
z
M 22.3125 74.21875 
Q 30.03125 74.21875 34.609375 68.875 
Q 39.203125 63.53125 39.203125 54.390625 
Q 39.203125 45.171875 34.640625 39.84375 
Q 30.078125 34.515625 22.3125 34.515625 
Q 14.546875 34.515625 10.03125 39.859375 
Q 5.515625 45.21875 5.515625 54.390625 
Q 5.515625 63.484375 10.046875 68.84375 
Q 14.59375 74.21875 22.3125 74.21875 
z
" id="DejaVuSans-37"/>
      </defs>
      <use xlink:href="#DejaVuSans-49"/>
      <use x="63.623047" xlink:href="#DejaVuSans-115"/>
      <use x="115.722656" xlink:href="#DejaVuSans-116"/>
      <use x="154.931641" xlink:href="#DejaVuSans-32"/>
      <use x="186.71875" xlink:href="#DejaVuSans-80"/>
      <use x="247.021484" xlink:href="#DejaVuSans-67"/>
      <use x="316.845703" xlink:href="#DejaVuSans-58"/>
      <use x="350.537109" xlink:href="#DejaVuSans-32"/>
      <use x="382.324219" xlink:href="#DejaVuSans-56"/>
      <use x="445.947266" xlink:href="#DejaVuSans-53"/>
      <use x="509.570312" xlink:href="#DejaVuSans-46"/>
      <use x="541.357422" xlink:href="#DejaVuSans-54"/>
      <use x="604.980469" xlink:href="#DejaVuSans-53"/>
      <use x="668.603516" xlink:href="#DejaVuSans-32"/>
      <use x="700.390625" xlink:href="#DejaVuSans-37"/>
     </g>
    </g>
   </g>
   <g id="matplotlib.axis_2">
    <g id="ytick_1">
     <g id="line2d_9">
      <defs>
       <path d="M 0 0 
L -3.5 0 
" id="m74cb0dc15b" style="stroke:#000000;stroke-width:0.8;"/>
      </defs>
      <g>
       <use style="stroke:#000000;stroke-width:0.8;" x="56.028488" xlink:href="#m74cb0dc15b" y="277.111219"/>
      </g>
     </g>
     <g id="text_10">
      <!-- −10 -->
      <g transform="translate(27.9238 280.910437)scale(0.1 -0.1)">
       <use xlink:href="#DejaVuSans-8722"/>
       <use x="83.789062" xlink:href="#DejaVuSans-49"/>
       <use x="147.412109" xlink:href="#DejaVuSans-48"/>
      </g>
     </g>
    </g>
    <g id="ytick_2">
     <g id="line2d_10">
      <g>
       <use style="stroke:#000000;stroke-width:0.8;" x="56.028488" xlink:href="#m74cb0dc15b" y="239.095219"/>
      </g>
     </g>
     <g id="text_11">
      <!-- −5 -->
      <g transform="translate(34.2863 242.894437)scale(0.1 -0.1)">
       <use xlink:href="#DejaVuSans-8722"/>
       <use x="83.789062" xlink:href="#DejaVuSans-53"/>
      </g>
     </g>
    </g>
    <g id="ytick_3">
     <g id="line2d_11">
      <g>
       <use style="stroke:#000000;stroke-width:0.8;" x="56.028488" xlink:href="#m74cb0dc15b" y="201.079219"/>
      </g>
     </g>
     <g id="text_12">
      <!-- 0 -->
      <g transform="translate(42.665987 204.878437)scale(0.1 -0.1)">
       <use xlink:href="#DejaVuSans-48"/>
      </g>
     </g>
    </g>
    <g id="ytick_4">
     <g id="line2d_12">
      <g>
       <use style="stroke:#000000;stroke-width:0.8;" x="56.028488" xlink:href="#m74cb0dc15b" y="163.063219"/>
      </g>
     </g>
     <g id="text_13">
      <!-- 5 -->
      <g transform="translate(42.665987 166.862437)scale(0.1 -0.1)">
       <use xlink:href="#DejaVuSans-53"/>
      </g>
     </g>
    </g>
    <g id="ytick_5">
     <g id="line2d_13">
      <g>
       <use style="stroke:#000000;stroke-width:0.8;" x="56.028488" xlink:href="#m74cb0dc15b" y="125.047219"/>
      </g>
     </g>
     <g id="text_14">
      <!-- 10 -->
      <g transform="translate(36.303488 128.846437)scale(0.1 -0.1)">
       <use xlink:href="#DejaVuSans-49"/>
       <use x="63.623047" xlink:href="#DejaVuSans-48"/>
      </g>
     </g>
    </g>
    <g id="ytick_6">
     <g id="line2d_14">
      <g>
       <use style="stroke:#000000;stroke-width:0.8;" x="56.028488" xlink:href="#m74cb0dc15b" y="87.031219"/>
      </g>
     </g>
     <g id="text_15">
      <!-- 15 -->
      <g transform="translate(36.303488 90.830437)scale(0.1 -0.1)">
       <use xlink:href="#DejaVuSans-49"/>
       <use x="63.623047" xlink:href="#DejaVuSans-53"/>
      </g>
     </g>
    </g>
    <g id="ytick_7">
     <g id="line2d_15">
      <g>
       <use style="stroke:#000000;stroke-width:0.8;" x="56.028488" xlink:href="#m74cb0dc15b" y="49.015219"/>
      </g>
     </g>
     <g id="text_16">
      <!-- 20 -->
      <g transform="translate(36.303488 52.814437)scale(0.1 -0.1)">
       <use xlink:href="#DejaVuSans-50"/>
       <use x="63.623047" xlink:href="#DejaVuSans-48"/>
      </g>
     </g>
    </g>
    <g id="ytick_8">
     <g id="line2d_16">
      <g>
       <use style="stroke:#000000;stroke-width:0.8;" x="56.028488" xlink:href="#m74cb0dc15b" y="10.999219"/>
      </g>
     </g>
     <g id="text_17">
      <!-- 25 -->
      <g transform="translate(36.303488 14.798437)scale(0.1 -0.1)">
       <use xlink:href="#DejaVuSans-50"/>
       <use x="63.623047" xlink:href="#DejaVuSans-53"/>
      </g>
     </g>
    </g>
    <g id="text_18">
     <!-- 2nd PC: 6.76 % -->
     <g transform="translate(20.3301 210.351019)rotate(-90)scale(0.1728 -0.1728)">
      <defs>
       <path d="M 54.890625 33.015625 
L 54.890625 0 
L 45.90625 0 
L 45.90625 32.71875 
Q 45.90625 40.484375 42.875 44.328125 
Q 39.84375 48.1875 33.796875 48.1875 
Q 26.515625 48.1875 22.3125 43.546875 
Q 18.109375 38.921875 18.109375 30.90625 
L 18.109375 0 
L 9.078125 0 
L 9.078125 54.6875 
L 18.109375 54.6875 
L 18.109375 46.1875 
Q 21.34375 51.125 25.703125 53.5625 
Q 30.078125 56 35.796875 56 
Q 45.21875 56 50.046875 50.171875 
Q 54.890625 44.34375 54.890625 33.015625 
z
" id="DejaVuSans-110"/>
       <path d="M 45.40625 46.390625 
L 45.40625 75.984375 
L 54.390625 75.984375 
L 54.390625 0 
L 45.40625 0 
L 45.40625 8.203125 
Q 42.578125 3.328125 38.25 0.953125 
Q 33.9375 -1.421875 27.875 -1.421875 
Q 17.96875 -1.421875 11.734375 6.484375 
Q 5.515625 14.40625 5.515625 27.296875 
Q 5.515625 40.1875 11.734375 48.09375 
Q 17.96875 56 27.875 56 
Q 33.9375 56 38.25 53.625 
Q 42.578125 51.265625 45.40625 46.390625 
z
M 14.796875 27.296875 
Q 14.796875 17.390625 18.875 11.75 
Q 22.953125 6.109375 30.078125 6.109375 
Q 37.203125 6.109375 41.296875 11.75 
Q 45.40625 17.390625 45.40625 27.296875 
Q 45.40625 37.203125 41.296875 42.84375 
Q 37.203125 48.484375 30.078125 48.484375 
Q 22.953125 48.484375 18.875 42.84375 
Q 14.796875 37.203125 14.796875 27.296875 
z
" id="DejaVuSans-100"/>
      </defs>
      <use xlink:href="#DejaVuSans-50"/>
      <use x="63.623047" xlink:href="#DejaVuSans-110"/>
      <use x="127.001953" xlink:href="#DejaVuSans-100"/>
      <use x="190.478516" xlink:href="#DejaVuSans-32"/>
      <use x="222.265625" xlink:href="#DejaVuSans-80"/>
      <use x="282.568359" xlink:href="#DejaVuSans-67"/>
      <use x="352.392578" xlink:href="#DejaVuSans-58"/>
      <use x="386.083984" xlink:href="#DejaVuSans-32"/>
      <use x="417.871094" xlink:href="#DejaVuSans-54"/>
      <use x="481.494141" xlink:href="#DejaVuSans-46"/>
      <use x="513.28125" xlink:href="#DejaVuSans-55"/>
      <use x="576.904297" xlink:href="#DejaVuSans-54"/>
      <use x="640.527344" xlink:href="#DejaVuSans-32"/>
      <use x="672.314453" xlink:href="#DejaVuSans-37"/>
     </g>
    </g>
   </g>
   <g id="LineCollection_1"/>
   <g id="LineCollection_2"/>
   <g id="LineCollection_3"/>
   <g id="LineCollection_4"/>
   <g id="LineCollection_5"/>
   <g id="LineCollection_6">
    <path clip-path="url(#pebd27ae966)" d="M 91.72551 166.93682 
L 91.724177 161.796019 
L 91.723805 152.925619 
L 91.726054 144.055219 
L 91.729583 135.184819 
L 91.735245 126.314419 
L 91.740488 119.877286 
L 93.502976 126.314419 
L 94.238056 135.184819 
L 94.474465 144.055219 
L 94.510271 152.925619 
L 94.415169 161.796019 
L 94.497416 170.666419 
L 94.50567 179.536819 
L 94.463438 188.407219 
L 94.443722 197.277619 
L 94.56546 206.148019 
L 94.57755 215.018419 
L 93.9696 223.888819 
L 92.58487 232.759219 
L 91.740488 235.666609 
L 91.740208 232.759219 
L 91.739487 223.888819 
L 91.738602 215.018419 
L 91.737365 206.148019 
L 91.735419 197.277619 
L 91.733889 192.136818 
" style="fill:none;stroke:#39558c;stroke-width:1.5;"/>
    <path clip-path="url(#pebd27ae966)" d="M 103.650215 59.080818 
L 103.650901 64.221619 
L 103.651128 73.092019 
L 103.650484 81.962419 
L 103.648853 90.832819 
L 103.645995 99.703219 
L 103.644487 103.078636 
L 101.420871 99.703219 
L 99.110553 90.832819 
L 98.310733 81.962419 
L 98.110095 73.092019 
L 98.284692 64.221619 
L 98.878112 55.351219 
L 100.269838 46.480819 
L 101.645245 43.363822 
" style="fill:none;stroke:#39558c;stroke-width:1.5;"/>
   </g>
   <g id="LineCollection_7">
    <path clip-path="url(#pebd27ae966)" d="M 91.471015 140.325641 
L 91.462554 135.184819 
L 91.469327 126.314419 
L 91.500204 117.444019 
L 91.558025 108.573619 
L 91.626482 99.703219 
L 91.678947 90.832819 
L 91.710576 81.962419 
L 91.727665 73.092019 
L 91.736123 64.221619 
L 91.739346 55.351219 
L 91.740319 46.480819 
L 91.740488 41.780392 
L 93.272823 37.610419 
L 103.644487 29.674415 
L 103.650233 37.610419 
L 103.656374 46.480819 
L 103.662308 55.351219 
L 103.668363 64.221619 
L 103.675532 73.092019 
L 103.685442 81.962419 
L 103.7006 90.832819 
L 103.725875 99.703219 
L 103.770045 108.573619 
L 103.853081 117.444019 
L 104.036873 126.314419 
L 104.556029 135.184819 
L 106.263985 144.055219 
L 109.000746 152.925619 
L 109.834193 161.796019 
L 109.436447 170.666419 
L 108.363769 179.536819 
L 106.426917 188.407219 
L 104.507102 197.277619 
L 103.843386 206.148019 
L 103.688211 215.018419 
L 103.651716 223.888819 
L 103.645379 232.759219 
L 103.644532 241.629619 
L 103.644487 244.526561 
L 99.768529 250.500019 
L 91.740488 259.007959 
L 91.739033 250.500019 
L 91.736866 241.629619 
L 91.733515 232.759219 
L 91.728297 223.888819 
L 91.719733 215.018419 
L 91.706465 206.148019 
L 91.685468 197.277619 
L 91.656719 188.407219 
L 91.622459 179.536819 
L 91.577043 170.666419 
L 91.55061 165.525494 
" style="fill:none;stroke:#33638d;stroke-width:1.5;"/>
   </g>
   <g id="LineCollection_8">
    <path clip-path="url(#pebd27ae966)" d="M 103.845201 103.432449 
L 103.899583 108.573619 
L 104.078347 117.444019 
L 104.479466 126.314419 
L 105.633248 135.184819 
L 109.516021 144.055219 
L 115.548488 152.597982 
L 115.548488 152.925619 
L 115.548488 161.796019 
L 115.548488 170.666419 
L 115.548488 178.822487 
L 115.3807 179.536819 
L 110.653812 188.407219 
L 105.824853 197.277619 
L 104.137959 206.148019 
L 103.752447 215.018419 
L 103.663531 223.888819 
L 103.647346 232.759219 
L 103.644841 241.629619 
L 103.644521 250.500019 
L 103.644487 254.744185 
L 98.415927 259.370419 
L 91.740488 262.493594 
L 91.739159 259.370419 
L 91.736697 250.500019 
L 91.732904 241.629619 
L 91.726822 232.759219 
L 91.717107 223.888819 
L 91.700864 215.018419 
L 91.675564 206.148019 
L 91.635517 197.277619 
L 91.580659 188.407219 
L 91.51507 179.536819 
L 91.42761 170.666419 
L 91.33869 161.796019 
L 91.265662 152.925619 
L 91.228254 144.055219 
L 91.195525 135.184819 
L 91.203409 126.314419 
L 91.258115 117.444019 
L 91.367828 108.573619 
L 91.502273 99.703219 
L 91.607625 90.832819 
L 91.672651 81.962419 
L 91.708995 73.092019 
L 91.728211 64.221619 
L 91.736328 55.351219 
L 91.739251 46.480819 
L 91.740182 37.610419 
L 91.74045 28.740019 
L 91.740488 25.290458 
L 103.644487 25.287729 
L 103.647742 28.740019 
L 103.656302 37.610419 
L 103.665289 46.480819 
L 103.6749 55.351219 
L 103.685826 64.221619 
L 103.699935 73.092019 
L 103.711796 78.232886 
" style="fill:none;stroke:#2d718e;stroke-width:1.5;"/>
   </g>
   <g id="LineCollection_9">
    <path clip-path="url(#pebd27ae966)" d="M 91.735368 253.101836 
L 91.734361 250.500019 
L 91.728943 241.629619 
L 91.720129 232.759219 
L 91.705917 223.888819 
L 91.681994 215.018419 
L 91.644664 206.148019 
L 91.585566 197.277619 
L 91.5046 188.407219 
L 91.407681 179.536819 
L 91.278177 170.666419 
L 91.145946 161.796019 
L 91.036591 152.925619 
L 90.979355 144.055219 
L 90.928496 135.184819 
L 90.93749 126.314419 
L 91.016027 117.444019 
L 91.17763 108.573619 
L 91.378064 99.703219 
L 91.536303 90.832819 
L 91.634726 81.962419 
L 91.690326 73.092019 
L 91.720298 64.221619 
L 91.733309 55.351219 
L 91.738182 46.480819 
L 91.739828 37.610419 
L 91.740351 28.740019 
L 91.740479 19.869619 
L 91.740488 18.343987 
L 97.745293 19.869619 
L 103.644487 21.402342 
L 103.651406 28.740019 
L 103.662372 37.610419 
L 103.674204 46.480819 
L 103.687491 55.351219 
L 103.703289 64.221619 
L 103.724339 73.092019 
L 103.755358 81.962419 
L 103.804094 90.832819 
L 103.885635 99.703219 
L 104.02912 108.573619 
L 104.303614 117.444019 
L 104.92206 126.314419 
L 106.710467 135.184819 
L 112.768056 144.055219 
L 115.548488 147.992674 
L 115.548489 152.925619 
L 115.548489 161.796019 
L 115.548488 170.666419 
L 115.548488 179.536819 
L 115.548488 187.171513 
L 114.880707 188.407219 
L 107.142605 197.277619 
L 104.432532 206.148019 
L 103.816682 215.018419 
L 103.675347 223.888819 
L 103.649313 232.759219 
L 103.645149 241.629619 
L 103.644569 250.500019 
L 103.644489 259.370419 
L 103.644487 259.532215 
L 102.927279 259.903931 
" style="fill:none;stroke:#287d8e;stroke-width:1.5;"/>
   </g>
   <g id="LineCollection_10">
    <path clip-path="url(#pebd27ae966)" d="M 90.891986 158.068658 
L 90.807519 152.925619 
L 90.730455 144.055219 
L 90.661467 135.184819 
L 90.671572 126.314419 
L 90.773939 117.444019 
L 90.987433 108.573619 
L 91.253854 99.703219 
L 91.464981 90.832819 
L 91.596801 81.962419 
L 91.671656 73.092019 
L 91.712386 64.221619 
L 91.730291 55.351219 
L 91.737114 46.480819 
L 91.739473 37.610419 
L 91.740251 28.740019 
L 91.740457 19.869619 
L 91.740488 14.544597 
L 103.644487 18.66922 
L 103.645673 19.869619 
L 103.655069 28.740019 
L 103.668441 37.610419 
L 103.68312 46.480819 
L 103.700083 55.351219 
L 103.720752 64.221619 
L 103.748742 73.092019 
L 103.790316 81.962419 
L 103.85584 90.832819 
L 103.965515 99.703219 
L 104.158657 108.573619 
L 104.52888 117.444019 
L 105.364653 126.314419 
L 107.787686 135.184819 
L 115.548488 143.88019 
L 115.548488 144.055219 
L 115.54849 152.925619 
L 115.54849 161.796019 
L 115.548489 170.666419 
L 115.548488 179.536819 
L 115.548488 188.407219 
L 115.548488 189.607837 
L 108.460356 197.277619 
L 104.727105 206.148019 
L 103.880918 215.018419 
L 103.687162 223.888819 
L 103.65128 232.759219 
L 103.645457 241.629619 
L 103.644617 250.500019 
L 103.644497 259.370419 
L 103.644487 260.213423 
L 91.947551 268.240819 
L 91.740488 268.376793 
L 91.740322 268.240819 
L 91.736428 259.370419 
L 91.732024 250.500019 
L 91.724982 241.629619 
L 91.713436 232.759219 
L 91.694727 223.888819 
L 91.663125 215.018419 
L 91.613764 206.148019 
L 91.535615 197.277619 
L 91.42854 188.407219 
L 91.354185 183.264371 
" style="fill:none;stroke:#238a8d;stroke-width:1.5;"/>
   </g>
   <g id="LineCollection_11">
    <path clip-path="url(#pebd27ae966)" d="M 92.01157 10.999219 
L 103.644487 16.68678 
L 103.64763 19.869619 
L 103.658732 28.740019 
L 103.67451 37.610419 
L 103.692035 46.480819 
L 103.712675 55.351219 
L 103.738214 64.221619 
L 103.773146 73.092019 
L 103.825274 81.962419 
L 103.907587 90.832819 
L 103.987512 95.977391 
" style="fill:none;stroke:#1f968b;stroke-width:1.5;"/>
    <path clip-path="url(#pebd27ae966)" d="M 105.192398 121.135466 
L 105.807246 126.314419 
L 108.864905 135.184819 
L 115.548488 142.673251 
L 115.548489 144.055219 
L 115.548491 152.925619 
L 115.548491 161.796019 
L 115.54849 170.666419 
L 115.548489 179.536819 
L 115.548488 188.407219 
L 115.548488 191.033723 
L 109.778107 197.277619 
L 105.021678 206.148019 
L 103.945153 215.018419 
L 103.698978 223.888819 
L 103.653247 232.759219 
L 103.645765 241.629619 
L 103.644665 250.500019 
L 103.644504 259.370419 
L 103.644487 260.894631 
L 92.940157 268.240819 
L 91.740488 269.028619 
L 91.739531 268.240819 
L 91.735063 259.370419 
L 91.729688 250.500019 
L 91.721021 241.629619 
L 91.706743 232.759219 
L 91.683537 223.888819 
L 91.644256 215.018419 
L 91.582864 206.148019 
L 91.485664 197.277619 
L 91.35248 188.407219 
L 91.192903 179.536819 
L 90.97931 170.666419 
L 90.760459 161.796019 
L 90.578448 152.925619 
L 90.481555 144.055219 
L 90.394438 135.184819 
L 90.405654 126.314419 
L 90.531851 117.444019 
L 90.797235 108.573619 
L 91.129645 99.703219 
L 91.393659 90.832819 
L 91.558876 81.962419 
L 91.652986 73.092019 
L 91.704474 64.221619 
L 91.727272 55.351219 
L 91.736046 46.480819 
L 91.739119 37.610419 
L 91.740152 28.740019 
L 91.740435 19.869619 
L 91.740487 10.999219 
" style="fill:none;stroke:#1f968b;stroke-width:1.5;"/>
   </g>
   <g id="LineCollection_12">
    <path clip-path="url(#pebd27ae966)" d="M 96.066307 10.999219 
L 103.644487 14.704339 
L 103.649587 19.869619 
L 103.662396 28.740019 
L 103.680579 37.610419 
L 103.70095 46.480819 
L 103.725266 55.351219 
L 103.755677 64.221619 
L 103.79755 73.092019 
L 103.860232 81.962419 
L 103.959334 90.832819 
L 104.055607 95.97909 
" style="fill:none;stroke:#20a386;stroke-width:1.5;"/>
    <path clip-path="url(#pebd27ae966)" d="M 105.505656 121.11836 
L 106.24984 126.314419 
L 109.942124 135.184819 
L 115.548488 141.466311 
L 115.54849 144.055219 
L 115.548492 152.925619 
L 115.548492 161.796019 
L 115.54849 170.666419 
L 115.548489 179.536819 
L 115.548488 188.407219 
L 115.548488 192.459608 
L 111.095858 197.277619 
L 105.316251 206.148019 
L 104.009389 215.018419 
L 103.710793 223.888819 
L 103.655214 232.759219 
L 103.646073 241.629619 
L 103.644713 250.500019 
L 103.644512 259.370419 
L 103.644487 261.575839 
L 93.932764 268.240819 
L 91.740488 269.680444 
L 91.73874 268.240819 
L 91.733698 259.370419 
L 91.727352 250.500019 
L 91.71706 241.629619 
L 91.70005 232.759219 
L 91.672347 223.888819 
L 91.625387 215.018419 
L 91.551964 206.148019 
L 91.435713 197.277619 
L 91.276421 188.407219 
L 91.085514 179.536819 
L 90.829877 170.666419 
L 90.567716 161.796019 
L 90.349377 152.925619 
L 90.232656 144.055219 
L 90.127409 135.184819 
L 90.139736 126.314419 
L 90.289763 117.444019 
L 90.607038 108.573619 
L 91.005436 99.703219 
L 91.322337 90.832819 
L 91.520951 81.962419 
L 91.634317 73.092019 
L 91.696561 64.221619 
L 91.724253 55.351219 
L 91.734977 46.480819 
L 91.738764 37.610419 
L 91.740053 28.740019 
L 91.740414 19.869619 
L 91.740483 10.999219 
" style="fill:none;stroke:#20a386;stroke-width:1.5;"/>
   </g>
   <g id="LineCollection_13">
    <path clip-path="url(#pebd27ae966)" d="M 100.121044 10.999219 
L 103.644487 12.721899 
L 103.651544 19.869619 
L 103.666059 28.740019 
L 103.686648 37.610419 
L 103.709865 46.480819 
L 103.737858 55.351219 
L 103.77314 64.221619 
L 103.821953 73.092019 
L 103.89519 81.962419 
L 104.01108 90.832819 
L 104.12372 95.981104 
" style="fill:none;stroke:#29af7f;stroke-width:1.5;"/>
    <path clip-path="url(#pebd27ae966)" d="M 105.817571 121.09825 
L 106.692433 126.314419 
L 111.019343 135.184819 
L 115.548488 140.259371 
L 115.548492 144.055219 
L 115.548494 152.925619 
L 115.548493 161.796019 
L 115.548491 170.666419 
L 115.54849 179.536819 
L 115.548488 188.407219 
L 115.548488 193.885494 
L 112.41361 197.277619 
L 105.610824 206.148019 
L 104.073625 215.018419 
L 103.722608 223.888819 
L 103.657181 232.759219 
L 103.646381 241.629619 
L 103.644761 250.500019 
L 103.644519 259.370419 
L 103.644487 262.257047 
L 94.925371 268.240819 
L 91.740488 270.332269 
L 91.737948 268.240819 
L 91.732333 259.370419 
L 91.725016 250.500019 
L 91.713098 241.629619 
L 91.693357 232.759219 
L 91.661157 223.888819 
L 91.606517 215.018419 
L 91.521063 206.148019 
L 91.385762 197.277619 
L 91.200361 188.407219 
L 90.978125 179.536819 
L 90.680443 170.666419 
L 90.374972 161.796019 
L 90.120305 152.925619 
L 89.983756 144.055219 
L 89.86038 135.184819 
L 89.873818 126.314419 
L 90.047675 117.444019 
L 90.416841 108.573619 
L 90.881227 99.703219 
L 91.251015 90.832819 
L 91.483026 81.962419 
L 91.615647 73.092019 
L 91.688649 64.221619 
L 91.721235 55.351219 
L 91.733909 46.480819 
L 91.738409 37.610419 
L 91.739954 28.740019 
L 91.740392 19.869619 
L 91.740479 10.999219 
" style="fill:none;stroke:#29af7f;stroke-width:1.5;"/>
   </g>
   <g id="LineCollection_14">
    <path clip-path="url(#pebd27ae966)" d="M 103.644616 10.999219 
L 103.653501 19.869619 
L 103.669722 28.740019 
L 103.692717 37.610419 
L 103.71878 46.480819 
L 103.750449 55.351219 
L 103.790603 64.221619 
L 103.846357 73.092019 
L 103.930148 81.962419 
L 104.062827 90.832819 
L 104.285036 99.703219 
L 104.676807 108.573619 
L 105.429946 117.444019 
L 107.135026 126.314419 
L 112.096562 135.184819 
L 115.548488 139.052432 
L 115.548493 144.055219 
L 115.548495 152.925619 
L 115.548494 161.796019 
L 115.548492 170.666419 
L 115.54849 179.536819 
L 115.548489 188.407219 
L 115.548488 195.311379 
L 113.731361 197.277619 
L 105.905397 206.148019 
L 104.13786 215.018419 
L 103.734424 223.888819 
L 103.659148 232.759219 
L 103.646689 241.629619 
L 103.644808 250.500019 
L 103.644527 259.370419 
L 103.644487 262.938255 
L 95.917977 268.240819 
L 91.740488 270.984095 
L 91.737157 268.240819 
L 91.730967 259.370419 
L 91.726164 254.229607 
" style="fill:none;stroke:#3dbc74;stroke-width:1.5;"/>
    <path clip-path="url(#pebd27ae966)" d="M 91.671235 229.029679 
L 91.649967 223.888819 
L 91.587648 215.018419 
L 91.490163 206.148019 
L 91.335811 197.277619 
L 91.124302 188.407219 
L 90.870736 179.536819 
L 90.53101 170.666419 
L 90.182229 161.796019 
L 89.891234 152.925619 
L 89.734856 144.055219 
L 89.593351 135.184819 
L 89.6079 126.314419 
L 89.805587 117.444019 
L 90.226643 108.573619 
L 90.757017 99.703219 
L 91.179693 90.832819 
L 91.445101 81.962419 
L 91.596978 73.092019 
L 91.680737 64.221619 
L 91.718216 55.351219 
L 91.732841 46.480819 
L 91.738055 37.610419 
L 91.739855 28.740019 
L 91.74037 19.869619 
L 91.740474 10.999219 
" style="fill:none;stroke:#3dbc74;stroke-width:1.5;"/>
   </g>
   <g id="LineCollection_15">
    <path clip-path="url(#pebd27ae966)" d="M 103.645593 10.999219 
L 103.655458 19.869619 
L 103.673386 28.740019 
L 103.698786 37.610419 
L 103.727696 46.480819 
L 103.763041 55.351219 
L 103.808065 64.221619 
L 103.87076 73.092019 
L 103.965106 81.962419 
L 104.114574 90.832819 
L 104.364916 99.703219 
L 104.806344 108.573619 
L 105.655212 117.444019 
L 107.57762 126.314419 
L 113.173781 135.184819 
L 115.548488 137.845492 
L 115.548495 144.055219 
L 115.548496 152.925619 
L 115.548494 161.796019 
L 115.548492 170.666419 
L 115.548491 179.536819 
L 115.548489 188.407219 
L 115.548488 196.737265 
L 115.049112 197.277619 
L 106.199969 206.148019 
L 104.202096 215.018419 
L 103.746239 223.888819 
L 103.661115 232.759219 
L 103.646997 241.629619 
L 103.644856 250.500019 
L 103.644534 259.370419 
L 103.644487 263.619463 
L 96.910584 268.240819 
L 91.740488 271.63592 
L 91.736366 268.240819 
L 91.729602 259.370419 
L 91.720343 250.500019 
L 91.705176 241.629619 
L 91.679971 232.759219 
L 91.638777 223.888819 
L 91.568779 215.018419 
L 91.459263 206.148019 
L 91.28586 197.277619 
L 91.048242 188.407219 
L 90.763347 179.536819 
L 90.381577 170.666419 
L 89.989485 161.796019 
L 89.662162 152.925619 
L 89.485956 144.055219 
L 89.326322 135.184819 
L 89.341981 126.314419 
L 89.563499 117.444019 
L 90.036446 108.573619 
L 90.632808 99.703219 
L 91.108371 90.832819 
L 91.407176 81.962419 
L 91.578308 73.092019 
L 91.672824 64.221619 
L 91.715198 55.351219 
L 91.731772 46.480819 
L 91.7377 37.610419 
L 91.738891 32.469619 
" style="fill:none;stroke:#56c667;stroke-width:1.5;"/>
   </g>
   <g id="LineCollection_16">
    <path clip-path="url(#pebd27ae966)" d="M 103.64657 10.999219 
L 103.657415 19.869619 
L 103.677049 28.740019 
L 103.704855 37.610419 
L 103.736611 46.480819 
L 103.775632 55.351219 
L 103.825528 64.221619 
L 103.895164 73.092019 
L 104.000064 81.962419 
L 104.166321 90.832819 
L 104.444796 99.703219 
L 104.73249 104.899797 
" style="fill:none;stroke:#75d054;stroke-width:1.5;"/>
    <path clip-path="url(#pebd27ae966)" d="M 110.017719 129.158149 
L 114.251 135.184819 
L 115.548488 136.638552 
L 115.548496 144.055219 
L 115.548497 152.925619 
L 115.548495 161.796019 
L 115.548493 170.666419 
L 115.548491 179.536819 
L 115.548489 188.407219 
L 115.548488 197.277619 
L 115.548488 197.453302 
L 106.494542 206.148019 
L 104.266332 215.018419 
L 103.758055 223.888819 
L 103.663083 232.759219 
L 103.647305 241.629619 
L 103.644904 250.500019 
L 103.644541 259.370419 
L 103.644487 264.300671 
L 97.90319 268.240819 
L 91.740488 272.287746 
L 91.735574 268.240819 
L 91.728237 259.370419 
L 91.718007 250.500019 
L 91.701215 241.629619 
L 91.673278 232.759219 
L 91.627587 223.888819 
L 91.54991 215.018419 
L 91.428363 206.148019 
L 91.23591 197.277619 
L 90.972182 188.407219 
L 90.655958 179.536819 
L 90.232144 170.666419 
L 89.796742 161.796019 
L 89.433091 152.925619 
L 89.237057 144.055219 
L 89.059292 135.184819 
L 89.076063 126.314419 
L 89.321411 117.444019 
L 89.846248 108.573619 
L 90.508599 99.703219 
L 91.037049 90.832819 
L 91.369251 81.962419 
L 91.559638 73.092019 
L 91.664912 64.221619 
L 91.712179 55.351219 
L 91.730704 46.480819 
L 91.737345 37.610419 
L 91.739656 28.740019 
L 91.740327 19.869619 
L 91.740466 10.999219 
" style="fill:none;stroke:#75d054;stroke-width:1.5;"/>
   </g>
   <g id="LineCollection_17">
    <path clip-path="url(#pebd27ae966)" d="M 103.647547 10.999219 
L 103.659372 19.869619 
L 103.680712 28.740019 
L 103.710925 37.610419 
L 103.745526 46.480819 
L 103.788224 55.351219 
L 103.842991 64.221619 
L 103.919567 73.092019 
L 104.035022 81.962419 
L 104.218067 90.832819 
L 104.524676 99.703219 
L 104.842182 104.911614 
" style="fill:none;stroke:#95d840;stroke-width:1.5;"/>
    <path clip-path="url(#pebd27ae966)" d="M 110.557148 129.020395 
L 115.328219 135.184819 
L 115.548488 135.431612 
L 115.548497 144.055219 
L 115.548498 152.925619 
L 115.548496 161.796019 
L 115.548494 170.666419 
L 115.548491 179.536819 
L 115.548489 188.407219 
L 115.548488 197.277619 
L 115.548488 197.736187 
L 106.789115 206.148019 
L 104.330567 215.018419 
L 103.76987 223.888819 
L 103.66505 232.759219 
L 103.647614 241.629619 
L 103.644952 250.500019 
L 103.644549 259.370419 
L 103.644487 264.981878 
L 98.895797 268.240819 
L 91.740488 272.939571 
L 91.734783 268.240819 
L 91.726872 259.370419 
L 91.71567 250.500019 
L 91.697253 241.629619 
L 91.666585 232.759219 
L 91.616398 223.888819 
L 91.53104 215.018419 
L 91.397463 206.148019 
L 91.185959 197.277619 
L 90.896123 188.407219 
L 90.548569 179.536819 
L 90.08271 170.666419 
L 89.603998 161.796019 
L 89.204019 152.925619 
L 88.988157 144.055219 
L 88.792263 135.184819 
L 88.810145 126.314419 
L 89.079323 117.444019 
L 89.656051 108.573619 
L 90.38439 99.703219 
L 90.965727 90.832819 
L 91.331326 81.962419 
L 91.540969 73.092019 
L 91.656999 64.221619 
L 91.709161 55.351219 
L 91.729635 46.480819 
L 91.736991 37.610419 
L 91.739557 28.740019 
L 91.740305 19.869619 
L 91.740461 10.999219 
" style="fill:none;stroke:#95d840;stroke-width:1.5;"/>
   </g>
   <g id="LineCollection_18">
    <path clip-path="url(#pebd27ae966)" d="M 103.648524 10.999219 
L 103.661329 19.869619 
L 103.684376 28.740019 
L 103.716994 37.610419 
L 103.754441 46.480819 
L 103.800815 55.351219 
L 103.860454 64.221619 
L 103.943971 73.092019 
L 104.06998 81.962419 
L 104.269814 90.832819 
L 104.604556 99.703219 
L 104.95208 104.924545 
" style="fill:none;stroke:#bade28;stroke-width:1.5;"/>
    <path clip-path="url(#pebd27ae966)" d="M 110.988197 128.955558 
L 115.548488 134.73834 
L 115.548489 135.184819 
L 115.548499 144.055219 
L 115.5485 152.925619 
L 115.548497 161.796019 
L 115.548494 170.666419 
L 115.548492 179.536819 
L 115.54849 188.407219 
L 115.548488 197.277619 
L 115.548488 198.019072 
L 107.083688 206.148019 
L 104.394803 215.018419 
L 103.781686 223.888819 
L 103.667017 232.759219 
L 103.647922 241.629619 
L 103.645 250.500019 
L 103.644556 259.370419 
L 103.644487 265.663086 
L 99.888403 268.240819 
L 91.740488 273.591396 
L 91.733991 268.240819 
L 91.725507 259.370419 
L 91.713334 250.500019 
L 91.693292 241.629619 
L 91.659892 232.759219 
L 91.605208 223.888819 
L 91.512171 215.018419 
L 91.366562 206.148019 
L 91.136008 197.277619 
L 90.820063 188.407219 
L 90.441179 179.536819 
L 89.933277 170.666419 
L 89.411255 161.796019 
L 88.974948 152.925619 
L 88.739257 144.055219 
L 88.525234 135.184819 
L 88.544227 126.314419 
L 88.837234 117.444019 
L 89.465854 108.573619 
L 90.26018 99.703219 
L 90.894405 90.832819 
L 91.293401 81.962419 
L 91.522299 73.092019 
L 91.649087 64.221619 
L 91.706142 55.351219 
L 91.728567 46.480819 
L 91.736636 37.610419 
L 91.739458 28.740019 
L 91.740283 19.869619 
L 91.740457 10.999219 
" style="fill:none;stroke:#bade28;stroke-width:1.5;"/>
   </g>
   <g id="LineCollection_19">
    <path clip-path="url(#pebd27ae966)" d="M 103.649501 10.999219 
L 103.663286 19.869619 
L 103.688039 28.740019 
L 103.723063 37.610419 
L 103.763357 46.480819 
L 103.813407 55.351219 
L 103.877917 64.221619 
L 103.968374 73.092019 
L 104.104938 81.962419 
L 104.321561 90.832819 
L 104.684436 99.703219 
L 105.062202 104.938587 
" style="fill:none;stroke:#dde318;stroke-width:1.5;"/>
    <path clip-path="url(#pebd27ae966)" d="M 111.391832 128.906156 
L 115.548488 134.177099 
L 115.54849 135.184819 
L 115.5485 144.055219 
L 115.548501 152.925619 
L 115.548498 161.796019 
L 115.548495 170.666419 
L 115.548492 179.536819 
L 115.54849 188.407219 
L 115.548488 197.277619 
L 115.548488 198.301958 
L 107.378261 206.148019 
L 104.459038 215.018419 
L 103.793501 223.888819 
L 103.668984 232.759219 
L 103.64823 241.629619 
L 103.645048 250.500019 
L 103.644564 259.370419 
L 103.644487 266.344294 
L 100.88101 268.240819 
L 91.740488 274.243222 
L 91.7332 268.240819 
L 91.724141 259.370419 
L 91.710998 250.500019 
L 91.689331 241.629619 
L 91.653199 232.759219 
L 91.594018 223.888819 
L 91.493302 215.018419 
L 91.335662 206.148019 
L 91.086057 197.277619 
L 90.744003 188.407219 
L 90.33379 179.536819 
L 89.783844 170.666419 
L 89.218511 161.796019 
L 88.745876 152.925619 
L 88.490358 144.055219 
L 88.258205 135.184819 
L 88.278309 126.314419 
L 88.595146 117.444019 
L 89.275656 108.573619 
L 90.135971 99.703219 
L 90.823083 90.832819 
L 91.255475 81.962419 
L 91.503629 73.092019 
L 91.641175 64.221619 
L 91.703123 55.351219 
L 91.727499 46.480819 
L 91.736281 37.610419 
L 91.739359 28.740019 
L 91.740261 19.869619 
L 91.740453 10.999219 
" style="fill:none;stroke:#dde318;stroke-width:1.5;"/>
   </g>
   <g id="LineCollection_20">
    <path clip-path="url(#pebd27ae966)" d="M 103.650478 10.999219 
L 103.665243 19.869619 
L 103.691702 28.740019 
L 103.729132 37.610419 
L 103.772272 46.480819 
L 103.825999 55.351219 
L 103.895379 64.221619 
L 103.992778 73.092019 
L 104.139896 81.962419 
L 104.373308 90.832819 
L 104.764316 99.703219 
L 105.172568 104.95373 
" style="fill:none;stroke:#fde725;stroke-width:1.5;"/>
    <path clip-path="url(#pebd27ae966)" d="M 111.792605 128.853124 
L 115.548488 133.615858 
L 115.548491 135.184819 
L 115.548501 144.055219 
L 115.548502 152.925619 
L 115.548499 161.796019 
L 115.548496 170.666419 
L 115.548493 179.536819 
L 115.54849 188.407219 
L 115.548488 197.277619 
L 115.548488 198.584843 
L 107.672834 206.148019 
L 104.523274 215.018419 
L 103.805317 223.888819 
L 103.670951 232.759219 
L 103.648538 241.629619 
L 103.645096 250.500019 
L 103.644571 259.370419 
L 103.644487 267.025502 
L 101.873616 268.240819 
L 91.740488 274.895047 
L 91.732409 268.240819 
L 91.722776 259.370419 
L 91.708661 250.500019 
L 91.68537 241.629619 
L 91.646506 232.759219 
L 91.582828 223.888819 
L 91.474432 215.018419 
L 91.304762 206.148019 
L 91.036106 197.277619 
L 90.667944 188.407219 
L 90.226401 179.536819 
L 89.634411 170.666419 
L 89.025768 161.796019 
L 88.516805 152.925619 
L 88.241458 144.055219 
L 87.991176 135.184819 
L 88.012391 126.314419 
L 88.353058 117.444019 
L 89.085459 108.573619 
L 90.011762 99.703219 
L 90.751761 90.832819 
L 91.21755 81.962419 
L 91.48496 73.092019 
L 91.633262 64.221619 
L 91.700105 55.351219 
L 91.72643 46.480819 
L 91.735927 37.610419 
L 91.73926 28.740019 
L 91.740239 19.869619 
L 91.740449 10.999219 
" style="fill:none;stroke:#fde725;stroke-width:1.5;"/>
   </g>
   <g id="LineCollection_21">
    <path clip-path="url(#pebd27ae966)" d="M 103.651455 10.999219 
L 103.6672 19.869619 
L 103.695366 28.740019 
L 103.735201 37.610419 
L 103.781187 46.480819 
L 103.83859 55.351219 
L 103.912842 64.221619 
L 104.017182 73.092019 
L 104.174854 81.962419 
L 104.425054 90.832819 
L 104.844196 99.703219 
L 105.583568 108.573619 
L 107.006811 117.444019 
L 108.245139 120.848608 
" style="fill:none;stroke:#440154;stroke-width:1.5;"/>
    <path clip-path="url(#pebd27ae966)" d="M 115.548503 147.454618 
L 115.548503 152.925619 
L 115.5485 161.796019 
L 115.548496 170.666419 
L 115.548493 179.536819 
L 115.54849 188.407219 
L 115.548488 197.277619 
L 115.548488 198.867728 
L 107.967407 206.148019 
L 104.58751 215.018419 
L 103.817132 223.888819 
L 103.672918 232.759219 
L 103.648846 241.629619 
L 103.645144 250.500019 
L 103.644579 259.370419 
L 103.644487 267.70671 
L 102.866223 268.240819 
L 91.740488 275.546872 
L 91.731617 268.240819 
L 91.721411 259.370419 
L 91.706325 250.500019 
L 91.681409 241.629619 
L 91.639813 232.759219 
L 91.571638 223.888819 
L 91.455563 215.018419 
L 91.273862 206.148019 
L 90.986155 197.277619 
L 90.591884 188.407219 
L 90.119012 179.536819 
L 89.484977 170.666419 
L 88.833024 161.796019 
L 88.287734 152.925619 
L 87.992558 144.055219 
L 87.724147 135.184819 
L 87.746473 126.314419 
L 88.11097 117.444019 
L 88.895261 108.573619 
L 89.887552 99.703219 
L 90.680439 90.832819 
L 91.179625 81.962419 
L 91.46629 73.092019 
L 91.62535 64.221619 
L 91.697086 55.351219 
L 91.725362 46.480819 
L 91.735572 37.610419 
L 91.73916 28.740019 
L 91.740218 19.869619 
L 91.740444 10.999219 
" style="fill:none;stroke:#440154;stroke-width:1.5;"/>
   </g>
   <g id="LineCollection_22">
    <path clip-path="url(#pebd27ae966)" d="M 91.661246 277.111219 
L 91.58917 268.240819 
L 91.475676 259.370419 
L 91.285789 250.500019 
L 90.96839 241.629619 
L 90.435076 232.759219 
L 89.557454 223.888819 
L 88.059097 215.018419 
L 85.711828 206.148019 
L 81.994992 197.277619 
L 79.836488 192.591942 
L 79.836487 188.407219 
L 79.836487 179.536819 
L 79.836487 170.666419 
L 79.836487 161.796019 
L 79.836487 160.255219 
" style="fill:none;stroke:#440154;stroke-width:1.5;"/>
    <path clip-path="url(#pebd27ae966)" d="M 79.836487 127.855219 
L 79.836487 126.314419 
L 79.836487 117.444019 
L 79.836487 108.573619 
L 79.836487 99.703219 
L 79.836487 90.832819 
L 79.836488 89.146355 
L 84.353115 81.962419 
L 88.105755 73.092019 
L 90.201126 64.221619 
L 91.153745 55.351219 
L 91.533056 46.480819 
L 91.671737 37.610419 
L 91.721308 28.740019 
L 91.736302 19.869619 
L 91.739672 10.999219 
" style="fill:none;stroke:#440154;stroke-width:1.5;"/>
    <path clip-path="url(#pebd27ae966)" d="M 103.82732 10.999219 
L 104.01947 19.869619 
L 104.354764 28.740019 
L 104.827645 37.610419 
L 105.385927 46.480819 
L 106.105069 55.351219 
L 107.056139 64.221619 
L 108.409821 73.092019 
L 110.467291 81.962419 
L 113.739468 90.832819 
L 115.548488 94.663375 
L 115.548499 99.703219 
L 115.548532 108.573619 
L 115.548588 117.444019 
L 115.548658 126.314419 
L 115.54867 127.855219 
" style="fill:none;stroke:#440154;stroke-width:1.5;"/>
    <path clip-path="url(#pebd27ae966)" d="M 115.54868 160.255219 
L 115.548671 161.796019 
L 115.548617 170.666419 
L 115.54857 179.536819 
L 115.548536 188.407219 
L 115.548511 197.277619 
L 115.548496 206.148019 
L 115.548488 215.018419 
L 115.548488 215.119427 
L 105.943919 223.888819 
L 104.026998 232.759219 
L 103.704306 241.629619 
L 103.653766 250.500019 
L 103.645922 259.370419 
L 103.644695 268.240819 
L 103.644488 277.111219 
" style="fill:none;stroke:#440154;stroke-width:1.5;"/>
   </g>
   <g id="LineCollection_23">
    <path clip-path="url(#pebd27ae966)" d="M 90.85812 277.111219 
L 90.164698 268.240819 
L 89.018325 259.370419 
L 87.080423 250.500019 
L 83.838202 241.629619 
L 79.836488 234.3245 
L 79.836487 232.759219 
L 79.836487 223.888819 
L 79.836487 215.018419 
L 79.836487 206.148019 
L 79.836487 197.277619 
L 79.836487 188.407219 
L 79.836487 179.536819 
L 79.836487 170.666419 
L 79.836487 162.055219 
" style="fill:none;stroke:#440154;stroke-width:1.5;"/>
    <path clip-path="url(#pebd27ae966)" d="M 79.836487 126.055219 
L 79.836487 117.444019 
L 79.836487 108.573619 
L 79.836487 99.703219 
L 79.836487 90.832819 
L 79.836487 81.962419 
L 79.836487 73.092019 
L 79.836487 64.221619 
L 79.836488 62.439496 
L 85.720331 55.351219 
L 89.61 46.480819 
L 91.033387 37.610419 
L 91.542779 28.740019 
L 91.697149 19.869619 
L 91.731945 10.999219 
" style="fill:none;stroke:#440154;stroke-width:1.5;"/>
    <path clip-path="url(#pebd27ae966)" d="M 105.585978 10.999219 
L 107.542166 19.869619 
L 110.948743 28.740019 
L 115.548488 37.379593 
L 115.548488 37.610419 
L 115.548489 46.480819 
L 115.548493 55.351219 
L 115.548503 64.221619 
L 115.548528 73.092019 
L 115.548587 81.962419 
L 115.548709 90.832819 
L 115.548937 99.703219 
L 115.549313 108.573619 
L 115.549856 117.444019 
L 115.550468 126.055219 
" style="fill:none;stroke:#440154;stroke-width:1.5;"/>
    <path clip-path="url(#pebd27ae966)" d="M 115.550368 162.055219 
L 115.549823 170.666419 
L 115.549345 179.536819 
L 115.548989 188.407219 
L 115.548741 197.277619 
L 115.548596 206.148019 
L 115.548521 215.018419 
L 115.548493 223.888819 
L 115.548488 225.624709 
L 107.567797 232.759219 
L 104.258909 241.629619 
L 103.739986 250.500019 
L 103.659349 259.370419 
L 103.646774 268.240819 
L 103.644793 277.111219 
" style="fill:none;stroke:#440154;stroke-width:1.5;"/>
   </g>
   <g id="LineCollection_24">
    <path clip-path="url(#pebd27ae966)" d="M 82.826859 277.111219 
L 79.836488 272.008658 
L 79.836487 268.240819 
L 79.836487 259.370419 
L 79.836487 250.500019 
L 79.836487 241.629619 
L 79.836487 232.759219 
L 79.836487 223.888819 
L 79.836487 215.018419 
L 79.836487 206.148019 
L 79.836487 197.277619 
L 79.836486 188.407219 
L 79.836485 179.536819 
L 79.836484 170.666419 
L 79.836482 163.855219 
" style="fill:none;stroke:#440154;stroke-width:1.5;"/>
    <path clip-path="url(#pebd27ae966)" d="M 79.83648 124.255219 
L 79.83648 117.444019 
L 79.836482 108.573619 
L 79.836484 99.703219 
L 79.836486 90.832819 
L 79.836487 81.962419 
L 79.836487 73.092019 
L 79.836487 64.221619 
L 79.836487 55.351219 
L 79.836487 46.480819 
L 79.836488 42.979311 
L 84.64989 37.610419 
L 89.757496 28.740019 
L 91.305614 19.869619 
L 91.654681 10.999219 
" style="fill:none;stroke:#440154;stroke-width:1.5;"/>
    <path clip-path="url(#pebd27ae966)" d="M 115.548488 10.999219 
L 115.548489 19.869619 
L 115.548491 28.740019 
L 115.548499 37.610419 
L 115.548524 46.480819 
L 115.548581 55.351219 
L 115.548712 64.221619 
L 115.549016 73.092019 
L 115.549667 81.962419 
L 115.550967 90.832819 
L 115.553322 99.703219 
L 115.557119 108.573619 
L 115.562543 117.444019 
L 115.568768 126.314419 
L 115.573307 133.12562 
" style="fill:none;stroke:#440154;stroke-width:1.5;"/>
    <path clip-path="url(#pebd27ae966)" d="M 115.56077 172.725615 
L 115.557086 179.536819 
L 115.553518 188.407219 
L 115.551039 197.277619 
L 115.549593 206.148019 
L 115.548849 215.018419 
L 115.548586 223.888819 
L 115.548506 232.759219 
L 115.548488 236.55493 
L 109.80494 241.629619 
L 104.602191 250.500019 
L 103.793624 259.370419 
L 103.667571 268.240819 
L 103.647839 277.111219 
" style="fill:none;stroke:#440154;stroke-width:1.5;"/>
   </g>
   <g id="LineCollection_25">
    <path clip-path="url(#pebd27ae966)" d="M 79.836487 277.111219 
L 79.836487 268.240819 
L 79.836487 259.370419 
L 79.836487 250.500019 
L 79.836487 241.629619 
L 79.836487 232.759219 
L 79.836486 223.888819 
L 79.836485 215.018419 
L 79.836484 206.148019 
L 79.836481 197.277619 
L 79.836475 188.407219 
L 79.836467 179.536819 
L 79.836453 170.666419 
L 79.836429 161.796019 
L 79.836418 156.784819 
" style="fill:none;stroke:#440154;stroke-width:1.5;"/>
    <path clip-path="url(#pebd27ae966)" d="M 79.836422 113.584819 
L 79.836435 108.573619 
L 79.836454 99.703219 
L 79.836469 90.832819 
L 79.836478 81.962419 
L 79.836483 73.092019 
L 79.836486 64.221619 
L 79.836487 55.351219 
L 79.836487 46.480819 
L 79.836487 37.610419 
L 79.836487 28.740019 
L 79.836488 27.079638 
L 87.39027 19.869619 
L 90.882036 10.999219 
" style="fill:none;stroke:#440154;stroke-width:1.5;"/>
    <path clip-path="url(#pebd27ae966)" d="M 115.548494 10.999219 
L 115.548504 19.869619 
L 115.548532 28.740019 
L 115.548619 37.610419 
L 115.548874 46.480819 
L 115.549463 55.351219 
L 115.550803 64.221619 
L 115.553891 73.092019 
L 115.560467 81.962419 
L 115.573547 90.832819 
L 115.597169 99.703219 
L 115.635181 108.573619 
L 115.689405 117.444019 
L 115.751583 126.314419 
L 115.78492 131.325765 
" style="fill:none;stroke:#440154;stroke-width:1.5;"/>
    <path clip-path="url(#pebd27ae966)" d="M 115.661613 174.525234 
L 115.634501 179.536819 
L 115.598811 188.407219 
L 115.574016 197.277619 
L 115.559561 206.148019 
L 115.552133 215.018419 
L 115.54952 223.888819 
L 115.548738 232.759219 
L 115.548533 241.629619 
L 115.548488 248.449262 
L 113.224235 250.500019 
L 105.136373 259.370419 
L 103.875539 268.240819 
L 103.678301 277.111219 
" style="fill:none;stroke:#440154;stroke-width:1.5;"/>
   </g>
   <g id="LineCollection_26">
    <path clip-path="url(#pebd27ae966)" d="M 79.836487 277.111219 
L 79.836487 268.240819 
L 79.836486 259.370419 
L 79.836485 250.500019 
L 79.836483 241.629619 
L 79.83648 232.759219 
L 79.836475 223.888819 
L 79.836465 215.018419 
L 79.836448 206.148019 
L 79.836419 197.277619 
L 79.836366 188.407219 
L 79.836282 179.536819 
L 79.836142 170.666419 
L 79.835904 161.796019 
L 79.835831 158.584819 
" style="fill:none;stroke:#450457;stroke-width:1.5;"/>
    <path clip-path="url(#pebd27ae966)" d="M 79.835882 111.784819 
L 79.835963 108.573619 
L 79.836156 99.703219 
L 79.836303 90.832819 
L 79.836394 81.962419 
L 79.836443 73.092019 
L 79.836468 64.221619 
L 79.836481 55.351219 
L 79.836485 46.480819 
L 79.836487 37.610419 
L 79.836487 28.740019 
L 79.836487 19.869619 
L 79.836488 14.080546 
L 83.155593 10.999219 
" style="fill:none;stroke:#450457;stroke-width:1.5;"/>
    <path clip-path="url(#pebd27ae966)" d="M 115.548555 10.999219 
L 115.548655 19.869619 
L 115.548938 28.740019 
L 115.54981 37.610419 
L 115.552378 46.480819 
L 115.558286 55.351219 
L 115.571715 64.221619 
L 115.602644 73.092019 
L 115.668467 81.962419 
L 115.799348 90.832819 
L 116.035645 99.703219 
L 116.415799 108.573619 
L 116.958035 117.444019 
L 117.579736 126.314419 
L 117.794553 129.544203 
" style="fill:none;stroke:#450457;stroke-width:1.5;"/>
    <path clip-path="url(#pebd27ae966)" d="M 116.584594 176.284624 
L 116.408647 179.536819 
L 116.051737 188.407219 
L 115.803786 197.277619 
L 115.659249 206.148019 
L 115.584974 215.018419 
L 115.55886 223.888819 
L 115.551062 232.759219 
L 115.549044 241.629619 
L 115.548586 250.500019 
L 115.548492 259.370419 
L 115.548488 259.782208 
L 105.955216 268.240819 
L 103.982925 277.111219 
" style="fill:none;stroke:#450457;stroke-width:1.5;"/>
   </g>
   <g id="LineCollection_27">
    <path clip-path="url(#pebd27ae966)" d="M 79.836484 277.111219 
L 79.836482 268.240819 
L 79.836476 259.370419 
L 79.836466 250.500019 
L 79.836447 241.629619 
L 79.836414 232.759219 
L 79.836358 223.888819 
L 79.836264 215.018419 
L 79.836094 206.148019 
L 79.835798 197.277619 
L 79.835277 188.407219 
L 79.834434 179.536819 
L 79.833035 170.666419 
L 79.832655 169.255218 
" style="fill:none;stroke:#482475;stroke-width:1.5;"/>
    <path clip-path="url(#pebd27ae966)" d="M 79.828912 118.855219 
L 79.829009 117.444019 
L 79.831245 108.573619 
L 79.833168 99.703219 
L 79.834639 90.832819 
L 79.835548 81.962419 
L 79.836047 73.092019 
L 79.83629 64.221619 
L 79.836418 55.351219 
L 79.836465 46.480819 
L 79.836481 37.610419 
L 79.836485 28.740019 
L 79.836487 19.869619 
L 79.836487 10.999219 
" style="fill:none;stroke:#482475;stroke-width:1.5;"/>
    <path clip-path="url(#pebd27ae966)" d="M 115.549171 10.999219 
L 115.550169 19.869619 
L 115.553002 28.740019 
L 115.561721 37.610419 
L 115.587414 46.480819 
L 115.646512 55.351219 
L 115.780834 64.221619 
L 116.090174 73.092019 
L 116.748471 81.962419 
L 118.057362 90.832819 
L 120.420399 99.703219 
L 124.221984 108.573619 
L 127.452488 114.831456 
L 127.452488 117.444019 
L 127.452488 126.314419 
L 127.452488 127.725619 
" style="fill:none;stroke:#482475;stroke-width:1.5;"/>
    <path clip-path="url(#pebd27ae966)" d="M 125.087283 177.586771 
L 124.150111 179.536819 
L 120.581004 188.407219 
L 118.101489 197.277619 
L 116.656125 206.148019 
L 115.913385 215.018419 
L 115.652265 223.888819 
L 115.574306 232.759219 
L 115.554149 241.629619 
L 115.549597 250.500019 
L 115.548673 259.370419 
L 115.548505 268.240819 
L 115.548488 269.673518 
L 107.029161 277.111219 
" style="fill:none;stroke:#482475;stroke-width:1.5;"/>
   </g>
   <g id="LineCollection_28">
    <path clip-path="url(#pebd27ae966)" d="M 79.836457 277.111219 
L 79.836428 268.240819 
L 79.836372 259.370419 
L 79.83627 250.500019 
L 79.836084 241.629619 
L 79.835752 232.759219 
L 79.835196 223.888819 
L 79.834253 215.018419 
L 79.832557 206.148019 
L 79.82959 197.277619 
L 79.824382 188.407219 
L 79.81595 179.536819 
L 79.802576 171.055163 
" style="fill:none;stroke:#fde725;stroke-width:1.5;"/>
    <path clip-path="url(#pebd27ae966)" d="M 79.762683 117.055222 
L 79.784065 108.573619 
L 79.803297 99.703219 
L 79.817999 90.832819 
L 79.82709 81.962419 
L 79.832084 73.092019 
L 79.834514 64.221619 
L 79.835793 55.351219 
L 79.836265 46.480819 
L 79.836418 37.610419 
L 79.836467 28.740019 
L 79.836482 19.869619 
L 79.836486 10.999219 
" style="fill:none;stroke:#fde725;stroke-width:1.5;"/>
    <path clip-path="url(#pebd27ae966)" d="M 115.555323 10.999219 
L 115.565311 19.869619 
L 115.593641 28.740019 
L 115.680831 37.610419 
L 115.937779 46.480819 
L 116.528771 55.351219 
L 117.87202 64.221619 
L 120.965477 73.092019 
L 127.452488 81.903543 
L 127.452488 81.962419 
L 127.452488 90.832819 
L 127.452488 99.703219 
L 127.452488 108.573619 
L 127.452488 117.055219 
" style="fill:none;stroke:#fde725;stroke-width:1.5;"/>
    <path clip-path="url(#pebd27ae966)" d="M 127.452488 171.055219 
L 127.452488 179.536819 
L 127.452488 188.407219 
L 127.452488 197.277619 
L 127.452488 205.058723 
L 126.624886 206.148019 
L 119.197496 215.018419 
L 116.586306 223.888819 
L 115.806748 232.759219 
L 115.605205 241.629619 
L 115.55971 250.500019 
L 115.550484 259.370419 
L 115.548826 268.240819 
L 115.548529 277.111219 
" style="fill:none;stroke:#fde725;stroke-width:1.5;"/>
   </g>
   <g id="line2d_17">
    <path clip-path="url(#pebd27ae966)" d="M 387.269488 241.849219 
L 341.495506 213.250084 
L 303.079331 187.523147 
L 270.87789 164.495762 
L 243.906523 144.088182 
L 221.328839 126.357456 
L 202.439811 111.056764 
L 186.633513 97.977271 
L 173.437771 86.881305 
L 162.4138 78.105542 
L 153.230196 70.77408 
L 145.672546 65.091765 
L 139.508267 61.001489 
L 134.634733 58.107595 
L 130.874285 56.718526 
L 127.992643 56.486683 
L 125.835251 57.300301 
L 124.233827 58.665195 
L 122.996033 60.538935 
L 122.033385 62.992897 
L 121.208721 65.604423 
L 120.527514 68.151706 
L 120.050323 71.613786 
L 119.5541 75.076824 
L 119.109037 78.360777 
L 118.717368 81.947842 
L 118.369797 85.698787 
L 118.160034 89.506659 
L 117.94807 93.376208 
L 117.649076 97.43141 
L 117.411073 101.461467 
L 117.113148 105.03308 
L 117.028907 109.574788 
L 116.792475 113.911633 
L 116.626248 117.880027 
L 116.421283 121.800231 
L 116.275605 125.935529 
L 116.110261 130.005705 
L 115.967176 134.113485 
L 115.806951 138.248194 
L 115.623134 141.976338 
L 115.43453 145.57854 
L 115.370247 150.095511 
L 115.231272 154.07857 
L 115.045203 158.176394 
L 114.917165 162.74559 
L 114.741535 167.079854 
L 114.517974 171.927822 
L 114.385424 177.418138 
L 114.130294 183.466602 
L 114.135969 184.499183 
L 114.031718 185.293946 
L 113.910554 185.988581 
L 113.803924 186.714741 
L 113.687847 187.373243 
L 113.588696 188.0458 
L 113.479621 188.666537 
L 113.380533 189.287363 
L 113.280434 189.885035 
L 113.201285 190.564007 
L 113.125922 191.22127 
L 113.05288 191.911963 
L 112.986818 192.626036 
L 112.910702 193.25056 
L 112.856884 193.904088 
L 112.806538 194.566867 
L 112.75428 195.196171 
L 112.716067 195.886302 
L 112.673896 196.478424 
L 112.643031 197.118226 
L 112.607479 197.757126 
L 112.582393 198.398317 
L 112.563512 199.095021 
L 112.542136 199.754247 
L 112.527132 200.515951 
L 112.527856 200.624064 
L 112.524668 200.734969 
L 112.520909 200.827732 
L 112.516073 200.89949 
L 112.510131 200.963926 
L 112.5056 201.023485 
L 112.500059 201.068373 
L 112.49398 201.092419 
L 112.485508 201.102406 
L 112.478377 201.119093 
L 112.474616 201.160538 
L 112.468788 201.174175 
L 112.464868 201.190695 
L 112.459676 201.203056 
L 112.453827 201.207463 
L 112.449947 201.21869 
L 112.445089 201.215222 
L 112.439753 201.206784 
L 112.436319 201.19183 
L 112.433403 201.181837 
L 112.429162 201.176566 
L 112.426599 201.154235 
L 112.422476 201.137279 
L 112.418107 201.104589 
" style="fill:none;stroke:#1f77b4;stroke-linecap:square;stroke-width:1.5;"/>
    <defs>
     <path d="M 0 1.5 
C 0.397805 1.5 0.77937 1.341951 1.06066 1.06066 
C 1.341951 0.77937 1.5 0.397805 1.5 0 
C 1.5 -0.397805 1.341951 -0.77937 1.06066 -1.06066 
C 0.77937 -1.341951 0.397805 -1.5 0 -1.5 
C -0.397805 -1.5 -0.77937 -1.341951 -1.06066 -1.06066 
C -1.341951 -0.77937 -1.5 -0.397805 -1.5 0 
C -1.5 0.397805 -1.341951 0.77937 -1.06066 1.06066 
C -0.77937 1.341951 -0.397805 1.5 0 1.5 
z
" id="mac42e5bdd6" style="stroke:#1f77b4;"/>
    </defs>
    <g clip-path="url(#pebd27ae966)">
     <use style="fill:#1f77b4;stroke:#1f77b4;" x="387.269488" xlink:href="#mac42e5bdd6" y="241.849219"/>
     <use style="fill:#1f77b4;stroke:#1f77b4;" x="341.495506" xlink:href="#mac42e5bdd6" y="213.250084"/>
     <use style="fill:#1f77b4;stroke:#1f77b4;" x="303.079331" xlink:href="#mac42e5bdd6" y="187.523147"/>
     <use style="fill:#1f77b4;stroke:#1f77b4;" x="270.87789" xlink:href="#mac42e5bdd6" y="164.495762"/>
     <use style="fill:#1f77b4;stroke:#1f77b4;" x="243.906523" xlink:href="#mac42e5bdd6" y="144.088182"/>
     <use style="fill:#1f77b4;stroke:#1f77b4;" x="221.328839" xlink:href="#mac42e5bdd6" y="126.357456"/>
     <use style="fill:#1f77b4;stroke:#1f77b4;" x="202.439811" xlink:href="#mac42e5bdd6" y="111.056764"/>
     <use style="fill:#1f77b4;stroke:#1f77b4;" x="186.633513" xlink:href="#mac42e5bdd6" y="97.977271"/>
     <use style="fill:#1f77b4;stroke:#1f77b4;" x="173.437771" xlink:href="#mac42e5bdd6" y="86.881305"/>
     <use style="fill:#1f77b4;stroke:#1f77b4;" x="162.4138" xlink:href="#mac42e5bdd6" y="78.105542"/>
     <use style="fill:#1f77b4;stroke:#1f77b4;" x="153.230196" xlink:href="#mac42e5bdd6" y="70.77408"/>
     <use style="fill:#1f77b4;stroke:#1f77b4;" x="145.672546" xlink:href="#mac42e5bdd6" y="65.091765"/>
     <use style="fill:#1f77b4;stroke:#1f77b4;" x="139.508267" xlink:href="#mac42e5bdd6" y="61.001489"/>
     <use style="fill:#1f77b4;stroke:#1f77b4;" x="134.634733" xlink:href="#mac42e5bdd6" y="58.107595"/>
     <use style="fill:#1f77b4;stroke:#1f77b4;" x="130.874285" xlink:href="#mac42e5bdd6" y="56.718526"/>
     <use style="fill:#1f77b4;stroke:#1f77b4;" x="127.992643" xlink:href="#mac42e5bdd6" y="56.486683"/>
     <use style="fill:#1f77b4;stroke:#1f77b4;" x="125.835251" xlink:href="#mac42e5bdd6" y="57.300301"/>
     <use style="fill:#1f77b4;stroke:#1f77b4;" x="124.233827" xlink:href="#mac42e5bdd6" y="58.665195"/>
     <use style="fill:#1f77b4;stroke:#1f77b4;" x="122.996033" xlink:href="#mac42e5bdd6" y="60.538935"/>
     <use style="fill:#1f77b4;stroke:#1f77b4;" x="122.033385" xlink:href="#mac42e5bdd6" y="62.992897"/>
     <use style="fill:#1f77b4;stroke:#1f77b4;" x="121.208721" xlink:href="#mac42e5bdd6" y="65.604423"/>
     <use style="fill:#1f77b4;stroke:#1f77b4;" x="120.527514" xlink:href="#mac42e5bdd6" y="68.151706"/>
     <use style="fill:#1f77b4;stroke:#1f77b4;" x="120.050323" xlink:href="#mac42e5bdd6" y="71.613786"/>
     <use style="fill:#1f77b4;stroke:#1f77b4;" x="119.5541" xlink:href="#mac42e5bdd6" y="75.076824"/>
     <use style="fill:#1f77b4;stroke:#1f77b4;" x="119.109037" xlink:href="#mac42e5bdd6" y="78.360777"/>
     <use style="fill:#1f77b4;stroke:#1f77b4;" x="118.717368" xlink:href="#mac42e5bdd6" y="81.947842"/>
     <use style="fill:#1f77b4;stroke:#1f77b4;" x="118.369797" xlink:href="#mac42e5bdd6" y="85.698787"/>
     <use style="fill:#1f77b4;stroke:#1f77b4;" x="118.160034" xlink:href="#mac42e5bdd6" y="89.506659"/>
     <use style="fill:#1f77b4;stroke:#1f77b4;" x="117.94807" xlink:href="#mac42e5bdd6" y="93.376208"/>
     <use style="fill:#1f77b4;stroke:#1f77b4;" x="117.649076" xlink:href="#mac42e5bdd6" y="97.43141"/>
     <use style="fill:#1f77b4;stroke:#1f77b4;" x="117.411073" xlink:href="#mac42e5bdd6" y="101.461467"/>
     <use style="fill:#1f77b4;stroke:#1f77b4;" x="117.113148" xlink:href="#mac42e5bdd6" y="105.03308"/>
     <use style="fill:#1f77b4;stroke:#1f77b4;" x="117.028907" xlink:href="#mac42e5bdd6" y="109.574788"/>
     <use style="fill:#1f77b4;stroke:#1f77b4;" x="116.792475" xlink:href="#mac42e5bdd6" y="113.911633"/>
     <use style="fill:#1f77b4;stroke:#1f77b4;" x="116.626248" xlink:href="#mac42e5bdd6" y="117.880027"/>
     <use style="fill:#1f77b4;stroke:#1f77b4;" x="116.421283" xlink:href="#mac42e5bdd6" y="121.800231"/>
     <use style="fill:#1f77b4;stroke:#1f77b4;" x="116.275605" xlink:href="#mac42e5bdd6" y="125.935529"/>
     <use style="fill:#1f77b4;stroke:#1f77b4;" x="116.110261" xlink:href="#mac42e5bdd6" y="130.005705"/>
     <use style="fill:#1f77b4;stroke:#1f77b4;" x="115.967176" xlink:href="#mac42e5bdd6" y="134.113485"/>
     <use style="fill:#1f77b4;stroke:#1f77b4;" x="115.806951" xlink:href="#mac42e5bdd6" y="138.248194"/>
     <use style="fill:#1f77b4;stroke:#1f77b4;" x="115.623134" xlink:href="#mac42e5bdd6" y="141.976338"/>
     <use style="fill:#1f77b4;stroke:#1f77b4;" x="115.43453" xlink:href="#mac42e5bdd6" y="145.57854"/>
     <use style="fill:#1f77b4;stroke:#1f77b4;" x="115.370247" xlink:href="#mac42e5bdd6" y="150.095511"/>
     <use style="fill:#1f77b4;stroke:#1f77b4;" x="115.231272" xlink:href="#mac42e5bdd6" y="154.07857"/>
     <use style="fill:#1f77b4;stroke:#1f77b4;" x="115.045203" xlink:href="#mac42e5bdd6" y="158.176394"/>
     <use style="fill:#1f77b4;stroke:#1f77b4;" x="114.917165" xlink:href="#mac42e5bdd6" y="162.74559"/>
     <use style="fill:#1f77b4;stroke:#1f77b4;" x="114.741535" xlink:href="#mac42e5bdd6" y="167.079854"/>
     <use style="fill:#1f77b4;stroke:#1f77b4;" x="114.517974" xlink:href="#mac42e5bdd6" y="171.927822"/>
     <use style="fill:#1f77b4;stroke:#1f77b4;" x="114.385424" xlink:href="#mac42e5bdd6" y="177.418138"/>
     <use style="fill:#1f77b4;stroke:#1f77b4;" x="114.130294" xlink:href="#mac42e5bdd6" y="183.466602"/>
     <use style="fill:#1f77b4;stroke:#1f77b4;" x="114.135969" xlink:href="#mac42e5bdd6" y="184.499183"/>
     <use style="fill:#1f77b4;stroke:#1f77b4;" x="114.031718" xlink:href="#mac42e5bdd6" y="185.293946"/>
     <use style="fill:#1f77b4;stroke:#1f77b4;" x="113.910554" xlink:href="#mac42e5bdd6" y="185.988581"/>
     <use style="fill:#1f77b4;stroke:#1f77b4;" x="113.803924" xlink:href="#mac42e5bdd6" y="186.714741"/>
     <use style="fill:#1f77b4;stroke:#1f77b4;" x="113.687847" xlink:href="#mac42e5bdd6" y="187.373243"/>
     <use style="fill:#1f77b4;stroke:#1f77b4;" x="113.588696" xlink:href="#mac42e5bdd6" y="188.0458"/>
     <use style="fill:#1f77b4;stroke:#1f77b4;" x="113.479621" xlink:href="#mac42e5bdd6" y="188.666537"/>
     <use style="fill:#1f77b4;stroke:#1f77b4;" x="113.380533" xlink:href="#mac42e5bdd6" y="189.287363"/>
     <use style="fill:#1f77b4;stroke:#1f77b4;" x="113.280434" xlink:href="#mac42e5bdd6" y="189.885035"/>
     <use style="fill:#1f77b4;stroke:#1f77b4;" x="113.201285" xlink:href="#mac42e5bdd6" y="190.564007"/>
     <use style="fill:#1f77b4;stroke:#1f77b4;" x="113.125922" xlink:href="#mac42e5bdd6" y="191.22127"/>
     <use style="fill:#1f77b4;stroke:#1f77b4;" x="113.05288" xlink:href="#mac42e5bdd6" y="191.911963"/>
     <use style="fill:#1f77b4;stroke:#1f77b4;" x="112.986818" xlink:href="#mac42e5bdd6" y="192.626036"/>
     <use style="fill:#1f77b4;stroke:#1f77b4;" x="112.910702" xlink:href="#mac42e5bdd6" y="193.25056"/>
     <use style="fill:#1f77b4;stroke:#1f77b4;" x="112.856884" xlink:href="#mac42e5bdd6" y="193.904088"/>
     <use style="fill:#1f77b4;stroke:#1f77b4;" x="112.806538" xlink:href="#mac42e5bdd6" y="194.566867"/>
     <use style="fill:#1f77b4;stroke:#1f77b4;" x="112.75428" xlink:href="#mac42e5bdd6" y="195.196171"/>
     <use style="fill:#1f77b4;stroke:#1f77b4;" x="112.716067" xlink:href="#mac42e5bdd6" y="195.886302"/>
     <use style="fill:#1f77b4;stroke:#1f77b4;" x="112.673896" xlink:href="#mac42e5bdd6" y="196.478424"/>
     <use style="fill:#1f77b4;stroke:#1f77b4;" x="112.643031" xlink:href="#mac42e5bdd6" y="197.118226"/>
     <use style="fill:#1f77b4;stroke:#1f77b4;" x="112.607479" xlink:href="#mac42e5bdd6" y="197.757126"/>
     <use style="fill:#1f77b4;stroke:#1f77b4;" x="112.582393" xlink:href="#mac42e5bdd6" y="198.398317"/>
     <use style="fill:#1f77b4;stroke:#1f77b4;" x="112.563512" xlink:href="#mac42e5bdd6" y="199.095021"/>
     <use style="fill:#1f77b4;stroke:#1f77b4;" x="112.542136" xlink:href="#mac42e5bdd6" y="199.754247"/>
     <use style="fill:#1f77b4;stroke:#1f77b4;" x="112.527132" xlink:href="#mac42e5bdd6" y="200.515951"/>
     <use style="fill:#1f77b4;stroke:#1f77b4;" x="112.527856" xlink:href="#mac42e5bdd6" y="200.624064"/>
     <use style="fill:#1f77b4;stroke:#1f77b4;" x="112.524668" xlink:href="#mac42e5bdd6" y="200.734969"/>
     <use style="fill:#1f77b4;stroke:#1f77b4;" x="112.520909" xlink:href="#mac42e5bdd6" y="200.827732"/>
     <use style="fill:#1f77b4;stroke:#1f77b4;" x="112.516073" xlink:href="#mac42e5bdd6" y="200.89949"/>
     <use style="fill:#1f77b4;stroke:#1f77b4;" x="112.510131" xlink:href="#mac42e5bdd6" y="200.963926"/>
     <use style="fill:#1f77b4;stroke:#1f77b4;" x="112.5056" xlink:href="#mac42e5bdd6" y="201.023485"/>
     <use style="fill:#1f77b4;stroke:#1f77b4;" x="112.500059" xlink:href="#mac42e5bdd6" y="201.068373"/>
     <use style="fill:#1f77b4;stroke:#1f77b4;" x="112.49398" xlink:href="#mac42e5bdd6" y="201.092419"/>
     <use style="fill:#1f77b4;stroke:#1f77b4;" x="112.485508" xlink:href="#mac42e5bdd6" y="201.102406"/>
     <use style="fill:#1f77b4;stroke:#1f77b4;" x="112.478377" xlink:href="#mac42e5bdd6" y="201.119093"/>
     <use style="fill:#1f77b4;stroke:#1f77b4;" x="112.474616" xlink:href="#mac42e5bdd6" y="201.160538"/>
     <use style="fill:#1f77b4;stroke:#1f77b4;" x="112.468788" xlink:href="#mac42e5bdd6" y="201.174175"/>
     <use style="fill:#1f77b4;stroke:#1f77b4;" x="112.464868" xlink:href="#mac42e5bdd6" y="201.190695"/>
     <use style="fill:#1f77b4;stroke:#1f77b4;" x="112.459676" xlink:href="#mac42e5bdd6" y="201.203056"/>
     <use style="fill:#1f77b4;stroke:#1f77b4;" x="112.453827" xlink:href="#mac42e5bdd6" y="201.207463"/>
     <use style="fill:#1f77b4;stroke:#1f77b4;" x="112.449947" xlink:href="#mac42e5bdd6" y="201.21869"/>
     <use style="fill:#1f77b4;stroke:#1f77b4;" x="112.445089" xlink:href="#mac42e5bdd6" y="201.215222"/>
     <use style="fill:#1f77b4;stroke:#1f77b4;" x="112.439753" xlink:href="#mac42e5bdd6" y="201.206784"/>
     <use style="fill:#1f77b4;stroke:#1f77b4;" x="112.436319" xlink:href="#mac42e5bdd6" y="201.19183"/>
     <use style="fill:#1f77b4;stroke:#1f77b4;" x="112.433403" xlink:href="#mac42e5bdd6" y="201.181837"/>
     <use style="fill:#1f77b4;stroke:#1f77b4;" x="112.429162" xlink:href="#mac42e5bdd6" y="201.176566"/>
     <use style="fill:#1f77b4;stroke:#1f77b4;" x="112.426599" xlink:href="#mac42e5bdd6" y="201.154235"/>
     <use style="fill:#1f77b4;stroke:#1f77b4;" x="112.422476" xlink:href="#mac42e5bdd6" y="201.137279"/>
     <use style="fill:#1f77b4;stroke:#1f77b4;" x="112.418107" xlink:href="#mac42e5bdd6" y="201.104589"/>
    </g>
   </g>
   <g id="patch_3">
    <path d="M 56.028488 277.111219 
L 56.028488 10.999219 
" style="fill:none;stroke:#000000;stroke-linecap:square;stroke-linejoin:miter;stroke-width:0.8;"/>
   </g>
   <g id="patch_4">
    <path d="M 413.148488 277.111219 
L 413.148488 10.999219 
" style="fill:none;stroke:#000000;stroke-linecap:square;stroke-linejoin:miter;stroke-width:0.8;"/>
   </g>
   <g id="patch_5">
    <path d="M 56.028488 277.111219 
L 413.148488 277.111219 
" style="fill:none;stroke:#000000;stroke-linecap:square;stroke-linejoin:miter;stroke-width:0.8;"/>
   </g>
   <g id="patch_6">
    <path d="M 56.028488 10.999219 
L 413.148488 10.999219 
" style="fill:none;stroke:#000000;stroke-linecap:square;stroke-linejoin:miter;stroke-width:0.8;"/>
   </g>
   <g id="text_19">
    <g clip-path="url(#pebd27ae966)">
     <!-- 2.500 -->
     <g style="fill:#39558c;" transform="translate(90.071181 170.948968)rotate(-270.020291)scale(0.06 -0.06)">
      <use xlink:href="#DejaVuSans-50"/>
      <use x="63.623047" xlink:href="#DejaVuSans-46"/>
      <use x="95.410156" xlink:href="#DejaVuSans-53"/>
      <use x="159.033203" xlink:href="#DejaVuSans-48"/>
      <use x="222.65625" xlink:href="#DejaVuSans-48"/>
     </g>
    </g>
   </g>
   <g id="text_20">
    <g clip-path="url(#pebd27ae966)">
     <!-- 2.500 -->
     <g style="fill:#39558c;" transform="translate(101.685926 37.957044)rotate(-272.048288)scale(0.06 -0.06)">
      <use xlink:href="#DejaVuSans-50"/>
      <use x="63.623047" xlink:href="#DejaVuSans-46"/>
      <use x="95.410156" xlink:href="#DejaVuSans-53"/>
      <use x="159.033203" xlink:href="#DejaVuSans-48"/>
      <use x="222.65625" xlink:href="#DejaVuSans-48"/>
     </g>
    </g>
   </g>
   <g id="text_21">
    <g clip-path="url(#pebd27ae966)">
     <!-- 3.000 -->
     <g style="fill:#33638d;" transform="translate(89.812798 144.342295)rotate(-270.175576)scale(0.06 -0.06)">
      <defs>
       <path d="M 40.578125 39.3125 
Q 47.65625 37.796875 51.625 33 
Q 55.609375 28.21875 55.609375 21.1875 
Q 55.609375 10.40625 48.1875 4.484375 
Q 40.765625 -1.421875 27.09375 -1.421875 
Q 22.515625 -1.421875 17.65625 -0.515625 
Q 12.796875 0.390625 7.625 2.203125 
L 7.625 11.71875 
Q 11.71875 9.328125 16.59375 8.109375 
Q 21.484375 6.890625 26.8125 6.890625 
Q 36.078125 6.890625 40.9375 10.546875 
Q 45.796875 14.203125 45.796875 21.1875 
Q 45.796875 27.640625 41.28125 31.265625 
Q 36.765625 34.90625 28.71875 34.90625 
L 20.21875 34.90625 
L 20.21875 43.015625 
L 29.109375 43.015625 
Q 36.375 43.015625 40.234375 45.921875 
Q 44.09375 48.828125 44.09375 54.296875 
Q 44.09375 59.90625 40.109375 62.90625 
Q 36.140625 65.921875 28.71875 65.921875 
Q 24.65625 65.921875 20.015625 65.03125 
Q 15.375 64.15625 9.8125 62.3125 
L 9.8125 71.09375 
Q 15.4375 72.65625 20.34375 73.4375 
Q 25.25 74.21875 29.59375 74.21875 
Q 40.828125 74.21875 47.359375 69.109375 
Q 53.90625 64.015625 53.90625 55.328125 
Q 53.90625 49.265625 50.4375 45.09375 
Q 46.96875 40.921875 40.578125 39.3125 
z
" id="DejaVuSans-51"/>
      </defs>
      <use xlink:href="#DejaVuSans-51"/>
      <use x="63.623047" xlink:href="#DejaVuSans-46"/>
      <use x="95.410156" xlink:href="#DejaVuSans-48"/>
      <use x="159.033203" xlink:href="#DejaVuSans-48"/>
      <use x="222.65625" xlink:href="#DejaVuSans-48"/>
     </g>
    </g>
   </g>
   <g id="text_22">
    <g clip-path="url(#pebd27ae966)">
     <!-- 3.500 -->
     <g style="fill:#2d718e;" transform="translate(102.055219 82.252486)rotate(-270.277004)scale(0.06 -0.06)">
      <use xlink:href="#DejaVuSans-51"/>
      <use x="63.623047" xlink:href="#DejaVuSans-46"/>
      <use x="95.410156" xlink:href="#DejaVuSans-53"/>
      <use x="159.033203" xlink:href="#DejaVuSans-48"/>
      <use x="222.65625" xlink:href="#DejaVuSans-48"/>
     </g>
    </g>
   </g>
   <g id="text_23">
    <g clip-path="url(#pebd27ae966)">
     <!-- 4.000 -->
     <g style="fill:#287d8e;" transform="translate(83.541345 262.656114)rotate(-328.710292)scale(0.06 -0.06)">
      <defs>
       <path d="M 37.796875 64.3125 
L 12.890625 25.390625 
L 37.796875 25.390625 
z
M 35.203125 72.90625 
L 47.609375 72.90625 
L 47.609375 25.390625 
L 58.015625 25.390625 
L 58.015625 17.1875 
L 47.609375 17.1875 
L 47.609375 0 
L 37.796875 0 
L 37.796875 17.1875 
L 4.890625 17.1875 
L 4.890625 26.703125 
z
" id="DejaVuSans-52"/>
      </defs>
      <use xlink:href="#DejaVuSans-52"/>
      <use x="63.623047" xlink:href="#DejaVuSans-46"/>
      <use x="95.410156" xlink:href="#DejaVuSans-48"/>
      <use x="159.033203" xlink:href="#DejaVuSans-48"/>
      <use x="222.65625" xlink:href="#DejaVuSans-48"/>
     </g>
    </g>
   </g>
   <g id="text_24">
    <g clip-path="url(#pebd27ae966)">
     <!-- 4.500 -->
     <g style="fill:#238a8d;" transform="translate(89.30594 162.111903)rotate(-271.11746)scale(0.06 -0.06)">
      <use xlink:href="#DejaVuSans-52"/>
      <use x="63.623047" xlink:href="#DejaVuSans-46"/>
      <use x="95.410156" xlink:href="#DejaVuSans-53"/>
      <use x="159.033203" xlink:href="#DejaVuSans-48"/>
      <use x="222.65625" xlink:href="#DejaVuSans-48"/>
     </g>
    </g>
   </g>
   <g id="text_25">
    <g clip-path="url(#pebd27ae966)">
     <!-- 5.000 -->
     <g style="fill:#1f968b;" transform="translate(102.288169 100.058793)rotate(-272.307168)scale(0.06 -0.06)">
      <use xlink:href="#DejaVuSans-53"/>
      <use x="63.623047" xlink:href="#DejaVuSans-46"/>
      <use x="95.410156" xlink:href="#DejaVuSans-48"/>
      <use x="159.033203" xlink:href="#DejaVuSans-48"/>
      <use x="222.65625" xlink:href="#DejaVuSans-48"/>
     </g>
    </g>
   </g>
   <g id="text_26">
    <g clip-path="url(#pebd27ae966)">
     <!-- 5.500 -->
     <g style="fill:#20a386;" transform="translate(102.347775 100.075523)rotate(-272.778189)scale(0.06 -0.06)">
      <use xlink:href="#DejaVuSans-53"/>
      <use x="63.623047" xlink:href="#DejaVuSans-46"/>
      <use x="95.410156" xlink:href="#DejaVuSans-53"/>
      <use x="159.033203" xlink:href="#DejaVuSans-48"/>
      <use x="222.65625" xlink:href="#DejaVuSans-48"/>
     </g>
    </g>
   </g>
   <g id="text_27">
    <g clip-path="url(#pebd27ae966)">
     <!-- 6.000 -->
     <g style="fill:#29af7f;" transform="translate(102.407709 100.09278)rotate(-273.247945)scale(0.06 -0.06)">
      <use xlink:href="#DejaVuSans-54"/>
      <use x="63.623047" xlink:href="#DejaVuSans-46"/>
      <use x="95.410156" xlink:href="#DejaVuSans-48"/>
      <use x="159.033203" xlink:href="#DejaVuSans-48"/>
      <use x="222.65625" xlink:href="#DejaVuSans-48"/>
     </g>
    </g>
   </g>
   <g id="text_28">
    <g clip-path="url(#pebd27ae966)">
     <!-- 6.500 -->
     <g style="fill:#3dbc74;" transform="translate(90.036018 233.044572)rotate(-270.116731)scale(0.06 -0.06)">
      <use xlink:href="#DejaVuSans-54"/>
      <use x="63.623047" xlink:href="#DejaVuSans-46"/>
      <use x="95.410156" xlink:href="#DejaVuSans-53"/>
      <use x="159.033203" xlink:href="#DejaVuSans-48"/>
      <use x="222.65625" xlink:href="#DejaVuSans-48"/>
     </g>
    </g>
   </g>
   <g id="text_29">
    <g clip-path="url(#pebd27ae966)">
     <!-- 7.000 -->
     <g style="fill:#56c667;" transform="translate(93.395615 28.458125)rotate(-89.997613)scale(0.06 -0.06)">
      <use xlink:href="#DejaVuSans-55"/>
      <use x="63.623047" xlink:href="#DejaVuSans-46"/>
      <use x="95.410156" xlink:href="#DejaVuSans-48"/>
      <use x="159.033203" xlink:href="#DejaVuSans-48"/>
      <use x="222.65625" xlink:href="#DejaVuSans-48"/>
     </g>
    </g>
   </g>
   <g id="text_30">
    <g clip-path="url(#pebd27ae966)">
     <!-- 7.500 -->
     <g style="fill:#75d054;" transform="translate(102.786128 109.263105)rotate(-279.807361)scale(0.06 -0.06)">
      <use xlink:href="#DejaVuSans-55"/>
      <use x="63.623047" xlink:href="#DejaVuSans-46"/>
      <use x="95.410156" xlink:href="#DejaVuSans-53"/>
      <use x="159.033203" xlink:href="#DejaVuSans-48"/>
      <use x="222.65625" xlink:href="#DejaVuSans-48"/>
     </g>
    </g>
   </g>
   <g id="text_31">
    <g clip-path="url(#pebd27ae966)">
     <!-- 8.000 -->
     <g style="fill:#95d840;" transform="translate(102.873991 109.316404)rotate(-280.7728)scale(0.06 -0.06)">
      <use xlink:href="#DejaVuSans-56"/>
      <use x="63.623047" xlink:href="#DejaVuSans-46"/>
      <use x="95.410156" xlink:href="#DejaVuSans-48"/>
      <use x="159.033203" xlink:href="#DejaVuSans-48"/>
      <use x="222.65625" xlink:href="#DejaVuSans-48"/>
     </g>
    </g>
   </g>
   <g id="text_32">
    <g clip-path="url(#pebd27ae966)">
     <!-- 8.500 -->
     <g style="fill:#bade28;" transform="translate(102.963926 109.371529)rotate(-281.730051)scale(0.06 -0.06)">
      <use xlink:href="#DejaVuSans-56"/>
      <use x="63.623047" xlink:href="#DejaVuSans-46"/>
      <use x="95.410156" xlink:href="#DejaVuSans-53"/>
      <use x="159.033203" xlink:href="#DejaVuSans-48"/>
      <use x="222.65625" xlink:href="#DejaVuSans-48"/>
     </g>
    </g>
   </g>
   <g id="text_33">
    <g clip-path="url(#pebd27ae966)">
     <!-- 9.000 -->
     <g style="fill:#dde318;" transform="translate(103.056021 109.428375)rotate(-282.678575)scale(0.06 -0.06)">
      <defs>
       <path d="M 10.984375 1.515625 
L 10.984375 10.5 
Q 14.703125 8.734375 18.5 7.8125 
Q 22.3125 6.890625 25.984375 6.890625 
Q 35.75 6.890625 40.890625 13.453125 
Q 46.046875 20.015625 46.78125 33.40625 
Q 43.953125 29.203125 39.59375 26.953125 
Q 35.25 24.703125 29.984375 24.703125 
Q 19.046875 24.703125 12.671875 31.3125 
Q 6.296875 37.9375 6.296875 49.421875 
Q 6.296875 60.640625 12.9375 67.421875 
Q 19.578125 74.21875 30.609375 74.21875 
Q 43.265625 74.21875 49.921875 64.515625 
Q 56.59375 54.828125 56.59375 36.375 
Q 56.59375 19.140625 48.40625 8.859375 
Q 40.234375 -1.421875 26.421875 -1.421875 
Q 22.703125 -1.421875 18.890625 -0.6875 
Q 15.09375 0.046875 10.984375 1.515625 
z
M 30.609375 32.421875 
Q 37.25 32.421875 41.125 36.953125 
Q 45.015625 41.5 45.015625 49.421875 
Q 45.015625 57.28125 41.125 61.84375 
Q 37.25 66.40625 30.609375 66.40625 
Q 23.96875 66.40625 20.09375 61.84375 
Q 16.21875 57.28125 16.21875 49.421875 
Q 16.21875 41.5 20.09375 36.953125 
Q 23.96875 32.421875 30.609375 32.421875 
z
" id="DejaVuSans-57"/>
      </defs>
      <use xlink:href="#DejaVuSans-57"/>
      <use x="63.623047" xlink:href="#DejaVuSans-46"/>
      <use x="95.410156" xlink:href="#DejaVuSans-48"/>
      <use x="159.033203" xlink:href="#DejaVuSans-48"/>
      <use x="222.65625" xlink:href="#DejaVuSans-48"/>
     </g>
    </g>
   </g>
   <g id="text_34">
    <g clip-path="url(#pebd27ae966)">
     <!-- 9.500 -->
     <g style="fill:#fde725;" transform="translate(103.150355 109.486833)rotate(-283.617882)scale(0.06 -0.06)">
      <use xlink:href="#DejaVuSans-57"/>
      <use x="63.623047" xlink:href="#DejaVuSans-46"/>
      <use x="95.410156" xlink:href="#DejaVuSans-53"/>
      <use x="159.033203" xlink:href="#DejaVuSans-48"/>
      <use x="222.65625" xlink:href="#DejaVuSans-48"/>
     </g>
    </g>
   </g>
   <g id="text_35">
    <g clip-path="url(#pebd27ae966)">
     <!-- 10.000 -->
     <g style="fill:#440154;" transform="translate(110.863448 123.516146)rotate(-287.19612)scale(0.06 -0.06)">
      <use xlink:href="#DejaVuSans-49"/>
      <use x="63.623047" xlink:href="#DejaVuSans-48"/>
      <use x="127.246094" xlink:href="#DejaVuSans-46"/>
      <use x="159.033203" xlink:href="#DejaVuSans-48"/>
      <use x="222.65625" xlink:href="#DejaVuSans-48"/>
      <use x="286.279297" xlink:href="#DejaVuSans-48"/>
     </g>
    </g>
   </g>
   <g id="text_36">
    <g clip-path="url(#pebd27ae966)">
     <!-- 100.000 -->
     <g style="fill:#440154;" transform="translate(78.180862 131.649281)rotate(-270)scale(0.06 -0.06)">
      <use xlink:href="#DejaVuSans-49"/>
      <use x="63.623047" xlink:href="#DejaVuSans-48"/>
      <use x="127.246094" xlink:href="#DejaVuSans-48"/>
      <use x="190.869141" xlink:href="#DejaVuSans-46"/>
      <use x="222.65625" xlink:href="#DejaVuSans-48"/>
      <use x="286.279297" xlink:href="#DejaVuSans-48"/>
      <use x="349.902344" xlink:href="#DejaVuSans-48"/>
     </g>
    </g>
   </g>
   <g id="text_37">
    <g clip-path="url(#pebd27ae966)">
     <!-- 100.000 -->
     <g style="fill:#440154;" transform="translate(113.893123 131.649281)rotate(-270.000003)scale(0.06 -0.06)">
      <use xlink:href="#DejaVuSans-49"/>
      <use x="63.623047" xlink:href="#DejaVuSans-48"/>
      <use x="127.246094" xlink:href="#DejaVuSans-48"/>
      <use x="190.869141" xlink:href="#DejaVuSans-46"/>
      <use x="222.65625" xlink:href="#DejaVuSans-48"/>
      <use x="286.279297" xlink:href="#DejaVuSans-48"/>
      <use x="349.902344" xlink:href="#DejaVuSans-48"/>
     </g>
    </g>
   </g>
   <g id="text_38">
    <g clip-path="url(#pebd27ae966)">
     <!-- 1000.000 -->
     <g style="fill:#440154;" transform="translate(78.180862 129.740531)rotate(-270)scale(0.06 -0.06)">
      <use xlink:href="#DejaVuSans-49"/>
      <use x="63.623047" xlink:href="#DejaVuSans-48"/>
      <use x="127.246094" xlink:href="#DejaVuSans-48"/>
      <use x="190.869141" xlink:href="#DejaVuSans-48"/>
      <use x="254.492188" xlink:href="#DejaVuSans-46"/>
      <use x="286.279297" xlink:href="#DejaVuSans-48"/>
      <use x="349.902344" xlink:href="#DejaVuSans-48"/>
      <use x="413.525391" xlink:href="#DejaVuSans-48"/>
     </g>
    </g>
   </g>
   <g id="text_39">
    <g clip-path="url(#pebd27ae966)">
     <!-- 1000.000 -->
     <g style="fill:#440154;" transform="translate(117.206762 158.369914)rotate(-89.99973)scale(0.06 -0.06)">
      <use xlink:href="#DejaVuSans-49"/>
      <use x="63.623047" xlink:href="#DejaVuSans-48"/>
      <use x="127.246094" xlink:href="#DejaVuSans-48"/>
      <use x="190.869141" xlink:href="#DejaVuSans-48"/>
      <use x="254.492188" xlink:href="#DejaVuSans-46"/>
      <use x="286.279297" xlink:href="#DejaVuSans-48"/>
      <use x="349.902344" xlink:href="#DejaVuSans-48"/>
      <use x="413.525391" xlink:href="#DejaVuSans-48"/>
     </g>
    </g>
   </g>
   <g id="text_40">
    <g clip-path="url(#pebd27ae966)">
     <!-- 10000.000 -->
     <g style="fill:#440154;" transform="translate(78.180854 127.831781)rotate(-270.000003)scale(0.06 -0.06)">
      <use xlink:href="#DejaVuSans-49"/>
      <use x="63.623047" xlink:href="#DejaVuSans-48"/>
      <use x="127.246094" xlink:href="#DejaVuSans-48"/>
      <use x="190.869141" xlink:href="#DejaVuSans-48"/>
      <use x="254.492188" xlink:href="#DejaVuSans-48"/>
      <use x="318.115234" xlink:href="#DejaVuSans-46"/>
      <use x="349.902344" xlink:href="#DejaVuSans-48"/>
      <use x="413.525391" xlink:href="#DejaVuSans-48"/>
      <use x="477.148438" xlink:href="#DejaVuSans-48"/>
     </g>
    </g>
   </g>
   <g id="text_41">
    <g clip-path="url(#pebd27ae966)">
     <!-- 10000.000 -->
     <g style="fill:#440154;" transform="translate(117.222271 169.149669)rotate(-89.978766)scale(0.06 -0.06)">
      <use xlink:href="#DejaVuSans-49"/>
      <use x="63.623047" xlink:href="#DejaVuSans-48"/>
      <use x="127.246094" xlink:href="#DejaVuSans-48"/>
      <use x="190.869141" xlink:href="#DejaVuSans-48"/>
      <use x="254.492188" xlink:href="#DejaVuSans-48"/>
      <use x="318.115234" xlink:href="#DejaVuSans-46"/>
      <use x="349.902344" xlink:href="#DejaVuSans-48"/>
      <use x="413.525391" xlink:href="#DejaVuSans-48"/>
      <use x="477.148438" xlink:href="#DejaVuSans-48"/>
     </g>
    </g>
   </g>
   <g id="text_42">
    <g clip-path="url(#pebd27ae966)">
     <!-- 100000.000 -->
     <g style="fill:#440154;" transform="translate(81.492031 153.317006)rotate(-89.999994)scale(0.06 -0.06)">
      <use xlink:href="#DejaVuSans-49"/>
      <use x="63.623047" xlink:href="#DejaVuSans-48"/>
      <use x="127.246094" xlink:href="#DejaVuSans-48"/>
      <use x="190.869141" xlink:href="#DejaVuSans-48"/>
      <use x="254.492188" xlink:href="#DejaVuSans-48"/>
      <use x="318.115234" xlink:href="#DejaVuSans-48"/>
      <use x="381.738281" xlink:href="#DejaVuSans-46"/>
      <use x="413.525391" xlink:href="#DejaVuSans-48"/>
      <use x="477.148438" xlink:href="#DejaVuSans-48"/>
      <use x="540.771484" xlink:href="#DejaVuSans-48"/>
     </g>
    </g>
   </g>
   <g id="text_43">
    <g clip-path="url(#pebd27ae966)">
     <!-- 100000.000 -->
     <g style="fill:#440154;" transform="translate(117.381532 171.063569)rotate(-89.796632)scale(0.06 -0.06)">
      <use xlink:href="#DejaVuSans-49"/>
      <use x="63.623047" xlink:href="#DejaVuSans-48"/>
      <use x="127.246094" xlink:href="#DejaVuSans-48"/>
      <use x="190.869141" xlink:href="#DejaVuSans-48"/>
      <use x="254.492188" xlink:href="#DejaVuSans-48"/>
      <use x="318.115234" xlink:href="#DejaVuSans-48"/>
      <use x="381.738281" xlink:href="#DejaVuSans-46"/>
      <use x="413.525391" xlink:href="#DejaVuSans-48"/>
      <use x="477.148438" xlink:href="#DejaVuSans-48"/>
      <use x="540.771484" xlink:href="#DejaVuSans-48"/>
     </g>
    </g>
   </g>
   <g id="text_44">
    <g clip-path="url(#pebd27ae966)">
     <!-- 1000000.000 -->
     <g style="fill:#450457;" transform="translate(81.491299 155.225758)rotate(-89.999939)scale(0.06 -0.06)">
      <use xlink:href="#DejaVuSans-49"/>
      <use x="63.623047" xlink:href="#DejaVuSans-48"/>
      <use x="127.246094" xlink:href="#DejaVuSans-48"/>
      <use x="190.869141" xlink:href="#DejaVuSans-48"/>
      <use x="254.492188" xlink:href="#DejaVuSans-48"/>
      <use x="318.115234" xlink:href="#DejaVuSans-48"/>
      <use x="381.738281" xlink:href="#DejaVuSans-48"/>
      <use x="445.361328" xlink:href="#DejaVuSans-46"/>
      <use x="477.148438" xlink:href="#DejaVuSans-48"/>
      <use x="540.771484" xlink:href="#DejaVuSans-48"/>
      <use x="604.394531" xlink:href="#DejaVuSans-48"/>
     </g>
    </g>
   </g>
   <g id="text_45">
    <g clip-path="url(#pebd27ae966)">
     <!-- 1000000.000 -->
     <g style="fill:#450457;" transform="translate(118.985991 173.008965)rotate(-88.183547)scale(0.06 -0.06)">
      <use xlink:href="#DejaVuSans-49"/>
      <use x="63.623047" xlink:href="#DejaVuSans-48"/>
      <use x="127.246094" xlink:href="#DejaVuSans-48"/>
      <use x="190.869141" xlink:href="#DejaVuSans-48"/>
      <use x="254.492188" xlink:href="#DejaVuSans-48"/>
      <use x="318.115234" xlink:href="#DejaVuSans-48"/>
      <use x="381.738281" xlink:href="#DejaVuSans-48"/>
      <use x="445.361328" xlink:href="#DejaVuSans-46"/>
      <use x="477.148438" xlink:href="#DejaVuSans-48"/>
      <use x="540.771484" xlink:href="#DejaVuSans-48"/>
      <use x="604.394531" xlink:href="#DejaVuSans-48"/>
     </g>
    </g>
   </g>
   <g id="text_46">
    <g clip-path="url(#pebd27ae966)">
     <!-- 10000000.000 -->
     <g style="fill:#482475;" transform="translate(78.171427 122.105647)rotate(-270.004008)scale(0.06 -0.06)">
      <use xlink:href="#DejaVuSans-49"/>
      <use x="63.623047" xlink:href="#DejaVuSans-48"/>
      <use x="127.246094" xlink:href="#DejaVuSans-48"/>
      <use x="190.869141" xlink:href="#DejaVuSans-48"/>
      <use x="254.492188" xlink:href="#DejaVuSans-48"/>
      <use x="318.115234" xlink:href="#DejaVuSans-48"/>
      <use x="381.738281" xlink:href="#DejaVuSans-48"/>
      <use x="445.361328" xlink:href="#DejaVuSans-48"/>
      <use x="508.984375" xlink:href="#DejaVuSans-46"/>
      <use x="540.771484" xlink:href="#DejaVuSans-48"/>
      <use x="604.394531" xlink:href="#DejaVuSans-48"/>
      <use x="668.017578" xlink:href="#DejaVuSans-48"/>
     </g>
    </g>
   </g>
   <g id="text_47">
    <g clip-path="url(#pebd27ae966)">
     <!-- 10000000.000 -->
     <g style="fill:#482475;" transform="translate(128.696716 174.902465)rotate(-88.926816)scale(0.06 -0.06)">
      <use xlink:href="#DejaVuSans-49"/>
      <use x="63.623047" xlink:href="#DejaVuSans-48"/>
      <use x="127.246094" xlink:href="#DejaVuSans-48"/>
      <use x="190.869141" xlink:href="#DejaVuSans-48"/>
      <use x="254.492188" xlink:href="#DejaVuSans-48"/>
      <use x="318.115234" xlink:href="#DejaVuSans-48"/>
      <use x="381.738281" xlink:href="#DejaVuSans-48"/>
      <use x="445.361328" xlink:href="#DejaVuSans-48"/>
      <use x="508.984375" xlink:href="#DejaVuSans-46"/>
      <use x="540.771484" xlink:href="#DejaVuSans-48"/>
      <use x="604.394531" xlink:href="#DejaVuSans-48"/>
      <use x="668.017578" xlink:href="#DejaVuSans-48"/>
     </g>
    </g>
   </g>
   <g id="text_48">
    <g clip-path="url(#pebd27ae966)">
     <!-- 100000000.000 -->
     <g style="fill:#fde725;" transform="translate(78.084617 120.197984)rotate(-270.04141)scale(0.06 -0.06)">
      <use xlink:href="#DejaVuSans-49"/>
      <use x="63.623047" xlink:href="#DejaVuSans-48"/>
      <use x="127.246094" xlink:href="#DejaVuSans-48"/>
      <use x="190.869141" xlink:href="#DejaVuSans-48"/>
      <use x="254.492188" xlink:href="#DejaVuSans-48"/>
      <use x="318.115234" xlink:href="#DejaVuSans-48"/>
      <use x="381.738281" xlink:href="#DejaVuSans-48"/>
      <use x="445.361328" xlink:href="#DejaVuSans-48"/>
      <use x="508.984375" xlink:href="#DejaVuSans-48"/>
      <use x="572.607422" xlink:href="#DejaVuSans-46"/>
      <use x="604.394531" xlink:href="#DejaVuSans-48"/>
      <use x="668.017578" xlink:href="#DejaVuSans-48"/>
      <use x="731.640625" xlink:href="#DejaVuSans-48"/>
     </g>
    </g>
   </g>
   <g id="text_49">
    <g clip-path="url(#pebd27ae966)">
     <!-- 100000000.000 -->
     <g style="fill:#fde725;" transform="translate(125.796862 120.196781)rotate(-270)scale(0.06 -0.06)">
      <use xlink:href="#DejaVuSans-49"/>
      <use x="63.623047" xlink:href="#DejaVuSans-48"/>
      <use x="127.246094" xlink:href="#DejaVuSans-48"/>
      <use x="190.869141" xlink:href="#DejaVuSans-48"/>
      <use x="254.492188" xlink:href="#DejaVuSans-48"/>
      <use x="318.115234" xlink:href="#DejaVuSans-48"/>
      <use x="381.738281" xlink:href="#DejaVuSans-48"/>
      <use x="445.361328" xlink:href="#DejaVuSans-48"/>
      <use x="508.984375" xlink:href="#DejaVuSans-48"/>
      <use x="572.607422" xlink:href="#DejaVuSans-46"/>
      <use x="604.394531" xlink:href="#DejaVuSans-48"/>
      <use x="668.017578" xlink:href="#DejaVuSans-48"/>
      <use x="731.640625" xlink:href="#DejaVuSans-48"/>
     </g>
    </g>
   </g>
  </g>
 </g>
 <defs>
  <clipPath id="pebd27ae966">
   <rect height="266.112" width="357.12" x="56.028488" y="10.999219"/>
  </clipPath>
 </defs>
</svg>
