<?xml version="1.0" encoding="utf-8" standalone="no"?>
<!DOCTYPE svg PUBLIC "-//W3C//DTD SVG 1.1//EN"
  "http://www.w3.org/Graphics/SVG/1.1/DTD/svg11.dtd">
<!-- Created with matplotlib (https://matplotlib.org/) -->
<svg height="321.713144pt" version="1.1" viewBox="0 0 413.985987 321.713144" width="413.985987pt" xmlns="http://www.w3.org/2000/svg" xmlns:xlink="http://www.w3.org/1999/xlink">
 <metadata>
  <rdf:RDF xmlns:cc="http://creativecommons.org/ns#" xmlns:dc="http://purl.org/dc/elements/1.1/" xmlns:rdf="http://www.w3.org/1999/02/22-rdf-syntax-ns#">
   <cc:Work>
    <dc:type rdf:resource="http://purl.org/dc/dcmitype/StillImage"/>
    <dc:date>2021-09-17T13:40:29.289728</dc:date>
    <dc:format>image/svg+xml</dc:format>
    <dc:creator>
     <cc:Agent>
      <dc:title>Matplotlib v3.3.1, https://matplotlib.org/</dc:title>
     </cc:Agent>
    </dc:creator>
   </cc:Work>
  </rdf:RDF>
 </metadata>
 <defs>
  <style type="text/css">*{stroke-linecap:butt;stroke-linejoin:round;}</style>
 </defs>
 <g id="figure_1">
  <g id="patch_1">
   <path d="M 0 321.713144 
L 413.985987 321.713144 
L 413.985987 0 
L 0 0 
z
" style="fill:#ffffff;"/>
  </g>
  <g id="axes_1">
   <g id="patch_2">
    <path d="M 49.665988 277.111219 
L 406.785988 277.111219 
L 406.785988 10.999219 
L 49.665988 10.999219 
z
" style="fill:#ffffff;"/>
   </g>
   <g id="matplotlib.axis_1">
    <g id="xtick_1">
     <g id="line2d_1">
      <defs>
       <path d="M 0 0 
L 0 3.5 
" id="m9e8d18e6f9" style="stroke:#000000;stroke-width:0.8;"/>
      </defs>
      <g>
       <use style="stroke:#000000;stroke-width:0.8;" x="49.665988" xlink:href="#m9e8d18e6f9" y="277.111219"/>
      </g>
     </g>
     <g id="text_1">
      <!-- −10 -->
      <g transform="translate(39.113644 291.709656)scale(0.1 -0.1)">
       <defs>
        <path d="M 10.59375 35.5 
L 73.1875 35.5 
L 73.1875 27.203125 
L 10.59375 27.203125 
z
" id="DejaVuSans-8722"/>
        <path d="M 12.40625 8.296875 
L 28.515625 8.296875 
L 28.515625 63.921875 
L 10.984375 60.40625 
L 10.984375 69.390625 
L 28.421875 72.90625 
L 38.28125 72.90625 
L 38.28125 8.296875 
L 54.390625 8.296875 
L 54.390625 0 
L 12.40625 0 
z
" id="DejaVuSans-49"/>
        <path d="M 31.78125 66.40625 
Q 24.171875 66.40625 20.328125 58.90625 
Q 16.5 51.421875 16.5 36.375 
Q 16.5 21.390625 20.328125 13.890625 
Q 24.171875 6.390625 31.78125 6.390625 
Q 39.453125 6.390625 43.28125 13.890625 
Q 47.125 21.390625 47.125 36.375 
Q 47.125 51.421875 43.28125 58.90625 
Q 39.453125 66.40625 31.78125 66.40625 
z
M 31.78125 74.21875 
Q 44.046875 74.21875 50.515625 64.515625 
Q 56.984375 54.828125 56.984375 36.375 
Q 56.984375 17.96875 50.515625 8.265625 
Q 44.046875 -1.421875 31.78125 -1.421875 
Q 19.53125 -1.421875 13.0625 8.265625 
Q 6.59375 17.96875 6.59375 36.375 
Q 6.59375 54.828125 13.0625 64.515625 
Q 19.53125 74.21875 31.78125 74.21875 
z
" id="DejaVuSans-48"/>
       </defs>
       <use xlink:href="#DejaVuSans-8722"/>
       <use x="83.789062" xlink:href="#DejaVuSans-49"/>
       <use x="147.412109" xlink:href="#DejaVuSans-48"/>
      </g>
     </g>
    </g>
    <g id="xtick_2">
     <g id="line2d_2">
      <g>
       <use style="stroke:#000000;stroke-width:0.8;" x="114.596897" xlink:href="#m9e8d18e6f9" y="277.111219"/>
      </g>
     </g>
     <g id="text_2">
      <!-- 0 -->
      <g transform="translate(111.415647 291.709656)scale(0.1 -0.1)">
       <use xlink:href="#DejaVuSans-48"/>
      </g>
     </g>
    </g>
    <g id="xtick_3">
     <g id="line2d_3">
      <g>
       <use style="stroke:#000000;stroke-width:0.8;" x="179.527806" xlink:href="#m9e8d18e6f9" y="277.111219"/>
      </g>
     </g>
     <g id="text_3">
      <!-- 10 -->
      <g transform="translate(173.165306 291.709656)scale(0.1 -0.1)">
       <use xlink:href="#DejaVuSans-49"/>
       <use x="63.623047" xlink:href="#DejaVuSans-48"/>
      </g>
     </g>
    </g>
    <g id="xtick_4">
     <g id="line2d_4">
      <g>
       <use style="stroke:#000000;stroke-width:0.8;" x="244.458715" xlink:href="#m9e8d18e6f9" y="277.111219"/>
      </g>
     </g>
     <g id="text_4">
      <!-- 20 -->
      <g transform="translate(238.096215 291.709656)scale(0.1 -0.1)">
       <defs>
        <path d="M 19.1875 8.296875 
L 53.609375 8.296875 
L 53.609375 0 
L 7.328125 0 
L 7.328125 8.296875 
Q 12.9375 14.109375 22.625 23.890625 
Q 32.328125 33.6875 34.8125 36.53125 
Q 39.546875 41.84375 41.421875 45.53125 
Q 43.3125 49.21875 43.3125 52.78125 
Q 43.3125 58.59375 39.234375 62.25 
Q 35.15625 65.921875 28.609375 65.921875 
Q 23.96875 65.921875 18.8125 64.3125 
Q 13.671875 62.703125 7.8125 59.421875 
L 7.8125 69.390625 
Q 13.765625 71.78125 18.9375 73 
Q 24.125 74.21875 28.421875 74.21875 
Q 39.75 74.21875 46.484375 68.546875 
Q 53.21875 62.890625 53.21875 53.421875 
Q 53.21875 48.921875 51.53125 44.890625 
Q 49.859375 40.875 45.40625 35.40625 
Q 44.1875 33.984375 37.640625 27.21875 
Q 31.109375 20.453125 19.1875 8.296875 
z
" id="DejaVuSans-50"/>
       </defs>
       <use xlink:href="#DejaVuSans-50"/>
       <use x="63.623047" xlink:href="#DejaVuSans-48"/>
      </g>
     </g>
    </g>
    <g id="xtick_5">
     <g id="line2d_5">
      <g>
       <use style="stroke:#000000;stroke-width:0.8;" x="309.389624" xlink:href="#m9e8d18e6f9" y="277.111219"/>
      </g>
     </g>
     <g id="text_5">
      <!-- 30 -->
      <g transform="translate(303.027124 291.709656)scale(0.1 -0.1)">
       <defs>
        <path d="M 40.578125 39.3125 
Q 47.65625 37.796875 51.625 33 
Q 55.609375 28.21875 55.609375 21.1875 
Q 55.609375 10.40625 48.1875 4.484375 
Q 40.765625 -1.421875 27.09375 -1.421875 
Q 22.515625 -1.421875 17.65625 -0.515625 
Q 12.796875 0.390625 7.625 2.203125 
L 7.625 11.71875 
Q 11.71875 9.328125 16.59375 8.109375 
Q 21.484375 6.890625 26.8125 6.890625 
Q 36.078125 6.890625 40.9375 10.546875 
Q 45.796875 14.203125 45.796875 21.1875 
Q 45.796875 27.640625 41.28125 31.265625 
Q 36.765625 34.90625 28.71875 34.90625 
L 20.21875 34.90625 
L 20.21875 43.015625 
L 29.109375 43.015625 
Q 36.375 43.015625 40.234375 45.921875 
Q 44.09375 48.828125 44.09375 54.296875 
Q 44.09375 59.90625 40.109375 62.90625 
Q 36.140625 65.921875 28.71875 65.921875 
Q 24.65625 65.921875 20.015625 65.03125 
Q 15.375 64.15625 9.8125 62.3125 
L 9.8125 71.09375 
Q 15.4375 72.65625 20.34375 73.4375 
Q 25.25 74.21875 29.59375 74.21875 
Q 40.828125 74.21875 47.359375 69.109375 
Q 53.90625 64.015625 53.90625 55.328125 
Q 53.90625 49.265625 50.4375 45.09375 
Q 46.96875 40.921875 40.578125 39.3125 
z
" id="DejaVuSans-51"/>
       </defs>
       <use xlink:href="#DejaVuSans-51"/>
       <use x="63.623047" xlink:href="#DejaVuSans-48"/>
      </g>
     </g>
    </g>
    <g id="xtick_6">
     <g id="line2d_6">
      <g>
       <use style="stroke:#000000;stroke-width:0.8;" x="374.320533" xlink:href="#m9e8d18e6f9" y="277.111219"/>
      </g>
     </g>
     <g id="text_6">
      <!-- 40 -->
      <g transform="translate(367.958033 291.709656)scale(0.1 -0.1)">
       <defs>
        <path d="M 37.796875 64.3125 
L 12.890625 25.390625 
L 37.796875 25.390625 
z
M 35.203125 72.90625 
L 47.609375 72.90625 
L 47.609375 25.390625 
L 58.015625 25.390625 
L 58.015625 17.1875 
L 47.609375 17.1875 
L 47.609375 0 
L 37.796875 0 
L 37.796875 17.1875 
L 4.890625 17.1875 
L 4.890625 26.703125 
z
" id="DejaVuSans-52"/>
       </defs>
       <use xlink:href="#DejaVuSans-52"/>
       <use x="63.623047" xlink:href="#DejaVuSans-48"/>
      </g>
     </g>
    </g>
    <g id="text_7">
     <!-- 1st PC: 84.40 % -->
     <g transform="translate(159.505587 310.919444)scale(0.1728 -0.1728)">
      <defs>
       <path d="M 44.28125 53.078125 
L 44.28125 44.578125 
Q 40.484375 46.53125 36.375 47.5 
Q 32.28125 48.484375 27.875 48.484375 
Q 21.1875 48.484375 17.84375 46.4375 
Q 14.5 44.390625 14.5 40.28125 
Q 14.5 37.15625 16.890625 35.375 
Q 19.28125 33.59375 26.515625 31.984375 
L 29.59375 31.296875 
Q 39.15625 29.25 43.1875 25.515625 
Q 47.21875 21.78125 47.21875 15.09375 
Q 47.21875 7.46875 41.1875 3.015625 
Q 35.15625 -1.421875 24.609375 -1.421875 
Q 20.21875 -1.421875 15.453125 -0.5625 
Q 10.6875 0.296875 5.421875 2 
L 5.421875 11.28125 
Q 10.40625 8.6875 15.234375 7.390625 
Q 20.0625 6.109375 24.8125 6.109375 
Q 31.15625 6.109375 34.5625 8.28125 
Q 37.984375 10.453125 37.984375 14.40625 
Q 37.984375 18.0625 35.515625 20.015625 
Q 33.0625 21.96875 24.703125 23.78125 
L 21.578125 24.515625 
Q 13.234375 26.265625 9.515625 29.90625 
Q 5.8125 33.546875 5.8125 39.890625 
Q 5.8125 47.609375 11.28125 51.796875 
Q 16.75 56 26.8125 56 
Q 31.78125 56 36.171875 55.265625 
Q 40.578125 54.546875 44.28125 53.078125 
z
" id="DejaVuSans-115"/>
       <path d="M 18.3125 70.21875 
L 18.3125 54.6875 
L 36.8125 54.6875 
L 36.8125 47.703125 
L 18.3125 47.703125 
L 18.3125 18.015625 
Q 18.3125 11.328125 20.140625 9.421875 
Q 21.96875 7.515625 27.59375 7.515625 
L 36.8125 7.515625 
L 36.8125 0 
L 27.59375 0 
Q 17.1875 0 13.234375 3.875 
Q 9.28125 7.765625 9.28125 18.015625 
L 9.28125 47.703125 
L 2.6875 47.703125 
L 2.6875 54.6875 
L 9.28125 54.6875 
L 9.28125 70.21875 
z
" id="DejaVuSans-116"/>
       <path id="DejaVuSans-32"/>
       <path d="M 19.671875 64.796875 
L 19.671875 37.40625 
L 32.078125 37.40625 
Q 38.96875 37.40625 42.71875 40.96875 
Q 46.484375 44.53125 46.484375 51.125 
Q 46.484375 57.671875 42.71875 61.234375 
Q 38.96875 64.796875 32.078125 64.796875 
z
M 9.8125 72.90625 
L 32.078125 72.90625 
Q 44.34375 72.90625 50.609375 67.359375 
Q 56.890625 61.8125 56.890625 51.125 
Q 56.890625 40.328125 50.609375 34.8125 
Q 44.34375 29.296875 32.078125 29.296875 
L 19.671875 29.296875 
L 19.671875 0 
L 9.8125 0 
z
" id="DejaVuSans-80"/>
       <path d="M 64.40625 67.28125 
L 64.40625 56.890625 
Q 59.421875 61.53125 53.78125 63.8125 
Q 48.140625 66.109375 41.796875 66.109375 
Q 29.296875 66.109375 22.65625 58.46875 
Q 16.015625 50.828125 16.015625 36.375 
Q 16.015625 21.96875 22.65625 14.328125 
Q 29.296875 6.6875 41.796875 6.6875 
Q 48.140625 6.6875 53.78125 8.984375 
Q 59.421875 11.28125 64.40625 15.921875 
L 64.40625 5.609375 
Q 59.234375 2.09375 53.4375 0.328125 
Q 47.65625 -1.421875 41.21875 -1.421875 
Q 24.65625 -1.421875 15.125 8.703125 
Q 5.609375 18.84375 5.609375 36.375 
Q 5.609375 53.953125 15.125 64.078125 
Q 24.65625 74.21875 41.21875 74.21875 
Q 47.75 74.21875 53.53125 72.484375 
Q 59.328125 70.75 64.40625 67.28125 
z
" id="DejaVuSans-67"/>
       <path d="M 11.71875 12.40625 
L 22.015625 12.40625 
L 22.015625 0 
L 11.71875 0 
z
M 11.71875 51.703125 
L 22.015625 51.703125 
L 22.015625 39.3125 
L 11.71875 39.3125 
z
" id="DejaVuSans-58"/>
       <path d="M 31.78125 34.625 
Q 24.75 34.625 20.71875 30.859375 
Q 16.703125 27.09375 16.703125 20.515625 
Q 16.703125 13.921875 20.71875 10.15625 
Q 24.75 6.390625 31.78125 6.390625 
Q 38.8125 6.390625 42.859375 10.171875 
Q 46.921875 13.96875 46.921875 20.515625 
Q 46.921875 27.09375 42.890625 30.859375 
Q 38.875 34.625 31.78125 34.625 
z
M 21.921875 38.8125 
Q 15.578125 40.375 12.03125 44.71875 
Q 8.5 49.078125 8.5 55.328125 
Q 8.5 64.0625 14.71875 69.140625 
Q 20.953125 74.21875 31.78125 74.21875 
Q 42.671875 74.21875 48.875 69.140625 
Q 55.078125 64.0625 55.078125 55.328125 
Q 55.078125 49.078125 51.53125 44.71875 
Q 48 40.375 41.703125 38.8125 
Q 48.828125 37.15625 52.796875 32.3125 
Q 56.78125 27.484375 56.78125 20.515625 
Q 56.78125 9.90625 50.3125 4.234375 
Q 43.84375 -1.421875 31.78125 -1.421875 
Q 19.734375 -1.421875 13.25 4.234375 
Q 6.78125 9.90625 6.78125 20.515625 
Q 6.78125 27.484375 10.78125 32.3125 
Q 14.796875 37.15625 21.921875 38.8125 
z
M 18.3125 54.390625 
Q 18.3125 48.734375 21.84375 45.5625 
Q 25.390625 42.390625 31.78125 42.390625 
Q 38.140625 42.390625 41.71875 45.5625 
Q 45.3125 48.734375 45.3125 54.390625 
Q 45.3125 60.0625 41.71875 63.234375 
Q 38.140625 66.40625 31.78125 66.40625 
Q 25.390625 66.40625 21.84375 63.234375 
Q 18.3125 60.0625 18.3125 54.390625 
z
" id="DejaVuSans-56"/>
       <path d="M 10.6875 12.40625 
L 21 12.40625 
L 21 0 
L 10.6875 0 
z
" id="DejaVuSans-46"/>
       <path d="M 72.703125 32.078125 
Q 68.453125 32.078125 66.03125 28.46875 
Q 63.625 24.859375 63.625 18.40625 
Q 63.625 12.0625 66.03125 8.421875 
Q 68.453125 4.78125 72.703125 4.78125 
Q 76.859375 4.78125 79.265625 8.421875 
Q 81.6875 12.0625 81.6875 18.40625 
Q 81.6875 24.8125 79.265625 28.4375 
Q 76.859375 32.078125 72.703125 32.078125 
z
M 72.703125 38.28125 
Q 80.421875 38.28125 84.953125 32.90625 
Q 89.5 27.546875 89.5 18.40625 
Q 89.5 9.28125 84.9375 3.921875 
Q 80.375 -1.421875 72.703125 -1.421875 
Q 64.890625 -1.421875 60.34375 3.921875 
Q 55.8125 9.28125 55.8125 18.40625 
Q 55.8125 27.59375 60.375 32.9375 
Q 64.9375 38.28125 72.703125 38.28125 
z
M 22.3125 68.015625 
Q 18.109375 68.015625 15.6875 64.375 
Q 13.28125 60.75 13.28125 54.390625 
Q 13.28125 47.953125 15.671875 44.328125 
Q 18.0625 40.71875 22.3125 40.71875 
Q 26.5625 40.71875 28.96875 44.328125 
Q 31.390625 47.953125 31.390625 54.390625 
Q 31.390625 60.6875 28.953125 64.34375 
Q 26.515625 68.015625 22.3125 68.015625 
z
M 66.40625 74.21875 
L 74.21875 74.21875 
L 28.609375 -1.421875 
L 20.796875 -1.421875 
z
M 22.3125 74.21875 
Q 30.03125 74.21875 34.609375 68.875 
Q 39.203125 63.53125 39.203125 54.390625 
Q 39.203125 45.171875 34.640625 39.84375 
Q 30.078125 34.515625 22.3125 34.515625 
Q 14.546875 34.515625 10.03125 39.859375 
Q 5.515625 45.21875 5.515625 54.390625 
Q 5.515625 63.484375 10.046875 68.84375 
Q 14.59375 74.21875 22.3125 74.21875 
z
" id="DejaVuSans-37"/>
      </defs>
      <use xlink:href="#DejaVuSans-49"/>
      <use x="63.623047" xlink:href="#DejaVuSans-115"/>
      <use x="115.722656" xlink:href="#DejaVuSans-116"/>
      <use x="154.931641" xlink:href="#DejaVuSans-32"/>
      <use x="186.71875" xlink:href="#DejaVuSans-80"/>
      <use x="247.021484" xlink:href="#DejaVuSans-67"/>
      <use x="316.845703" xlink:href="#DejaVuSans-58"/>
      <use x="350.537109" xlink:href="#DejaVuSans-32"/>
      <use x="382.324219" xlink:href="#DejaVuSans-56"/>
      <use x="445.947266" xlink:href="#DejaVuSans-52"/>
      <use x="509.570312" xlink:href="#DejaVuSans-46"/>
      <use x="541.357422" xlink:href="#DejaVuSans-52"/>
      <use x="604.980469" xlink:href="#DejaVuSans-48"/>
      <use x="668.603516" xlink:href="#DejaVuSans-32"/>
      <use x="700.390625" xlink:href="#DejaVuSans-37"/>
     </g>
    </g>
   </g>
   <g id="matplotlib.axis_2">
    <g id="ytick_1">
     <g id="line2d_7">
      <defs>
       <path d="M 0 0 
L -3.5 0 
" id="m00f363cb0b" style="stroke:#000000;stroke-width:0.8;"/>
      </defs>
      <g>
       <use style="stroke:#000000;stroke-width:0.8;" x="49.665988" xlink:href="#m00f363cb0b" y="277.111219"/>
      </g>
     </g>
     <g id="text_8">
      <!-- −2 -->
      <g transform="translate(27.9238 280.910437)scale(0.1 -0.1)">
       <use xlink:href="#DejaVuSans-8722"/>
       <use x="83.789062" xlink:href="#DejaVuSans-50"/>
      </g>
     </g>
    </g>
    <g id="ytick_2">
     <g id="line2d_8">
      <g>
       <use style="stroke:#000000;stroke-width:0.8;" x="49.665988" xlink:href="#m00f363cb0b" y="232.759219"/>
      </g>
     </g>
     <g id="text_9">
      <!-- 0 -->
      <g transform="translate(36.303488 236.558437)scale(0.1 -0.1)">
       <use xlink:href="#DejaVuSans-48"/>
      </g>
     </g>
    </g>
    <g id="ytick_3">
     <g id="line2d_9">
      <g>
       <use style="stroke:#000000;stroke-width:0.8;" x="49.665988" xlink:href="#m00f363cb0b" y="188.407219"/>
      </g>
     </g>
     <g id="text_10">
      <!-- 2 -->
      <g transform="translate(36.303488 192.206437)scale(0.1 -0.1)">
       <use xlink:href="#DejaVuSans-50"/>
      </g>
     </g>
    </g>
    <g id="ytick_4">
     <g id="line2d_10">
      <g>
       <use style="stroke:#000000;stroke-width:0.8;" x="49.665988" xlink:href="#m00f363cb0b" y="144.055219"/>
      </g>
     </g>
     <g id="text_11">
      <!-- 4 -->
      <g transform="translate(36.303488 147.854437)scale(0.1 -0.1)">
       <use xlink:href="#DejaVuSans-52"/>
      </g>
     </g>
    </g>
    <g id="ytick_5">
     <g id="line2d_11">
      <g>
       <use style="stroke:#000000;stroke-width:0.8;" x="49.665988" xlink:href="#m00f363cb0b" y="99.703219"/>
      </g>
     </g>
     <g id="text_12">
      <!-- 6 -->
      <g transform="translate(36.303488 103.502437)scale(0.1 -0.1)">
       <defs>
        <path d="M 33.015625 40.375 
Q 26.375 40.375 22.484375 35.828125 
Q 18.609375 31.296875 18.609375 23.390625 
Q 18.609375 15.53125 22.484375 10.953125 
Q 26.375 6.390625 33.015625 6.390625 
Q 39.65625 6.390625 43.53125 10.953125 
Q 47.40625 15.53125 47.40625 23.390625 
Q 47.40625 31.296875 43.53125 35.828125 
Q 39.65625 40.375 33.015625 40.375 
z
M 52.59375 71.296875 
L 52.59375 62.3125 
Q 48.875 64.0625 45.09375 64.984375 
Q 41.3125 65.921875 37.59375 65.921875 
Q 27.828125 65.921875 22.671875 59.328125 
Q 17.53125 52.734375 16.796875 39.40625 
Q 19.671875 43.65625 24.015625 45.921875 
Q 28.375 48.1875 33.59375 48.1875 
Q 44.578125 48.1875 50.953125 41.515625 
Q 57.328125 34.859375 57.328125 23.390625 
Q 57.328125 12.15625 50.6875 5.359375 
Q 44.046875 -1.421875 33.015625 -1.421875 
Q 20.359375 -1.421875 13.671875 8.265625 
Q 6.984375 17.96875 6.984375 36.375 
Q 6.984375 53.65625 15.1875 63.9375 
Q 23.390625 74.21875 37.203125 74.21875 
Q 40.921875 74.21875 44.703125 73.484375 
Q 48.484375 72.75 52.59375 71.296875 
z
" id="DejaVuSans-54"/>
       </defs>
       <use xlink:href="#DejaVuSans-54"/>
      </g>
     </g>
    </g>
    <g id="ytick_6">
     <g id="line2d_12">
      <g>
       <use style="stroke:#000000;stroke-width:0.8;" x="49.665988" xlink:href="#m00f363cb0b" y="55.351219"/>
      </g>
     </g>
     <g id="text_13">
      <!-- 8 -->
      <g transform="translate(36.303488 59.150437)scale(0.1 -0.1)">
       <use xlink:href="#DejaVuSans-56"/>
      </g>
     </g>
    </g>
    <g id="ytick_7">
     <g id="line2d_13">
      <g>
       <use style="stroke:#000000;stroke-width:0.8;" x="49.665988" xlink:href="#m00f363cb0b" y="10.999219"/>
      </g>
     </g>
     <g id="text_14">
      <!-- 10 -->
      <g transform="translate(29.940988 14.798437)scale(0.1 -0.1)">
       <use xlink:href="#DejaVuSans-49"/>
       <use x="63.623047" xlink:href="#DejaVuSans-48"/>
      </g>
     </g>
    </g>
    <g id="text_15">
     <!-- 2nd PC: 13.46 % -->
     <g transform="translate(20.3301 215.848219)rotate(-90)scale(0.1728 -0.1728)">
      <defs>
       <path d="M 54.890625 33.015625 
L 54.890625 0 
L 45.90625 0 
L 45.90625 32.71875 
Q 45.90625 40.484375 42.875 44.328125 
Q 39.84375 48.1875 33.796875 48.1875 
Q 26.515625 48.1875 22.3125 43.546875 
Q 18.109375 38.921875 18.109375 30.90625 
L 18.109375 0 
L 9.078125 0 
L 9.078125 54.6875 
L 18.109375 54.6875 
L 18.109375 46.1875 
Q 21.34375 51.125 25.703125 53.5625 
Q 30.078125 56 35.796875 56 
Q 45.21875 56 50.046875 50.171875 
Q 54.890625 44.34375 54.890625 33.015625 
z
" id="DejaVuSans-110"/>
       <path d="M 45.40625 46.390625 
L 45.40625 75.984375 
L 54.390625 75.984375 
L 54.390625 0 
L 45.40625 0 
L 45.40625 8.203125 
Q 42.578125 3.328125 38.25 0.953125 
Q 33.9375 -1.421875 27.875 -1.421875 
Q 17.96875 -1.421875 11.734375 6.484375 
Q 5.515625 14.40625 5.515625 27.296875 
Q 5.515625 40.1875 11.734375 48.09375 
Q 17.96875 56 27.875 56 
Q 33.9375 56 38.25 53.625 
Q 42.578125 51.265625 45.40625 46.390625 
z
M 14.796875 27.296875 
Q 14.796875 17.390625 18.875 11.75 
Q 22.953125 6.109375 30.078125 6.109375 
Q 37.203125 6.109375 41.296875 11.75 
Q 45.40625 17.390625 45.40625 27.296875 
Q 45.40625 37.203125 41.296875 42.84375 
Q 37.203125 48.484375 30.078125 48.484375 
Q 22.953125 48.484375 18.875 42.84375 
Q 14.796875 37.203125 14.796875 27.296875 
z
" id="DejaVuSans-100"/>
      </defs>
      <use xlink:href="#DejaVuSans-50"/>
      <use x="63.623047" xlink:href="#DejaVuSans-110"/>
      <use x="127.001953" xlink:href="#DejaVuSans-100"/>
      <use x="190.478516" xlink:href="#DejaVuSans-32"/>
      <use x="222.265625" xlink:href="#DejaVuSans-80"/>
      <use x="282.568359" xlink:href="#DejaVuSans-67"/>
      <use x="352.392578" xlink:href="#DejaVuSans-58"/>
      <use x="386.083984" xlink:href="#DejaVuSans-32"/>
      <use x="417.871094" xlink:href="#DejaVuSans-49"/>
      <use x="481.494141" xlink:href="#DejaVuSans-51"/>
      <use x="545.117188" xlink:href="#DejaVuSans-46"/>
      <use x="576.904297" xlink:href="#DejaVuSans-52"/>
      <use x="640.527344" xlink:href="#DejaVuSans-54"/>
      <use x="704.150391" xlink:href="#DejaVuSans-32"/>
      <use x="735.9375" xlink:href="#DejaVuSans-37"/>
     </g>
    </g>
   </g>
   <g id="LineCollection_1"/>
   <g id="LineCollection_2"/>
   <g id="LineCollection_3"/>
   <g id="LineCollection_4"/>
   <g id="LineCollection_5"/>
   <g id="LineCollection_6">
    <path clip-path="url(#pf48cebaa89)" d="M 106.504032 277.111219 
L 106.475075 268.240819 
L 106.558898 259.370419 
L 106.570868 250.500019 
L 106.550725 241.629619 
L 106.789019 232.759219 
L 107.614087 223.888819 
L 109.185761 215.018419 
L 109.185987 215.017645 
L 118.32805 206.148019 
L 121.089988 201.846417 
L 123.693636 199.067823 
" style="fill:none;stroke:#39558c;stroke-width:1.5;"/>
    <path clip-path="url(#pf48cebaa89)" d="M 133.835537 176.43009 
L 138.389725 170.666419 
L 141.541193 161.796019 
L 142.957357 152.925619 
L 143.686392 144.055219 
L 144.09495 135.184819 
L 144.340284 126.314419 
L 144.497031 117.444019 
L 144.601238 108.573619 
L 144.673259 99.703219 
L 144.725665 90.832819 
L 144.764245 81.962419 
L 144.792803 73.092019 
L 144.814792 64.221619 
L 144.836697 55.351219 
L 144.878218 46.480819 
L 144.897987 43.670337 
L 151.248135 37.610419 
L 155.31834 28.740019 
L 156.330455 19.869619 
L 156.642881 10.999219 
" style="fill:none;stroke:#39558c;stroke-width:1.5;"/>
    <path clip-path="url(#pf48cebaa89)" d="M 227.841267 10.999219 
L 228.225988 11.964128 
L 229.727932 19.869619 
L 231.515421 28.740019 
L 233.263234 37.610419 
L 234.9872 46.480819 
L 236.689238 55.351219 
L 238.26124 64.221619 
L 239.688838 73.092019 
L 240.129987 76.119027 
L 240.533913 81.962419 
L 240.917233 87.144813 
" style="fill:none;stroke:#39558c;stroke-width:1.5;"/>
    <path clip-path="url(#pf48cebaa89)" d="M 243.249556 112.234299 
L 243.869105 117.444019 
L 245.133692 126.314419 
L 246.580318 135.184819 
L 248.157523 144.055219 
L 249.836359 152.925619 
L 251.621186 161.796019 
L 252.033987 163.818939 
L 252.994807 170.666419 
L 254.34482 179.536819 
L 255.783951 188.407219 
L 257.239721 197.277619 
L 258.668403 206.148019 
L 260.022958 215.018419 
L 261.164726 223.888819 
L 261.983004 232.759219 
L 262.406504 241.629619 
L 262.421411 250.500019 
L 261.842823 259.370419 
L 260.484915 268.240819 
L 258.211856 277.111219 
" style="fill:none;stroke:#39558c;stroke-width:1.5;"/>
   </g>
   <g id="LineCollection_7">
    <path clip-path="url(#pf48cebaa89)" d="M 101.616157 277.111219 
L 102.004191 271.943445 
" style="fill:none;stroke:#33638d;stroke-width:1.5;"/>
    <path clip-path="url(#pf48cebaa89)" d="M 103.07944 246.773402 
L 103.1203 241.629619 
L 103.453212 232.759219 
L 104.465812 223.888819 
L 106.331848 215.018419 
L 108.968735 206.148019 
L 109.185987 205.646445 
L 117.231114 197.277619 
L 121.089988 190.904747 
L 123.088765 188.407219 
L 128.700686 179.536819 
L 131.563572 170.666419 
L 132.993988 162.869034 
L 133.690012 161.796019 
L 138.380614 152.925619 
L 140.796952 144.055219 
L 142.155342 135.184819 
L 142.971506 126.314419 
L 143.493714 117.444019 
L 143.84154 108.573619 
L 144.085592 99.703219 
L 144.2654 90.832819 
L 144.398999 81.962419 
L 144.498407 73.092019 
L 144.574126 64.221619 
L 144.638281 55.351219 
L 144.766281 46.480819 
L 144.859545 37.610419 
L 144.897987 34.647883 
L 150.655539 28.740019 
L 154.728266 19.869619 
L 156.028316 10.999219 
" style="fill:none;stroke:#33638d;stroke-width:1.5;"/>
    <path clip-path="url(#pf48cebaa89)" d="M 254.863475 10.999219 
L 255.853149 19.869619 
L 256.748548 28.740019 
L 257.521797 37.610419 
L 258.217652 46.480819 
L 258.917477 55.351219 
L 259.820531 64.221619 
L 260.95385 73.092019 
L 262.273182 81.962419 
L 263.909196 90.832819 
L 263.937987 90.972638 
L 264.594999 96.096889 
" style="fill:none;stroke:#33638d;stroke-width:1.5;"/>
    <path clip-path="url(#pf48cebaa89)" d="M 268.698288 120.949758 
L 269.913347 126.314419 
L 272.300229 135.184819 
L 275.05763 144.055219 
L 275.841987 146.445472 
L 277.978924 152.925619 
L 281.036507 161.796019 
L 284.304389 170.666419 
L 287.717003 179.536819 
L 287.745987 179.616252 
L 291.493918 188.407219 
L 295.352796 197.277619 
L 299.004859 206.148019 
L 299.649988 207.934155 
L 302.389617 215.018419 
L 305.272393 223.888819 
L 307.711208 232.759219 
L 309.775325 241.629619 
L 311.40358 250.500019 
L 311.553987 251.641543 
L 312.499438 259.370419 
L 313.136789 268.240819 
L 313.252967 277.111219 
" style="fill:none;stroke:#33638d;stroke-width:1.5;"/>
   </g>
   <g id="LineCollection_8">
    <path clip-path="url(#pf48cebaa89)" d="M 97.158759 277.111219 
L 97.281987 273.82564 
L 98.089347 268.240819 
L 99.089752 259.370419 
L 99.528806 250.500019 
L 99.689876 241.629619 
L 100.117405 232.759219 
L 101.317536 223.888819 
L 103.477935 215.018419 
L 106.511173 206.148019 
L 109.185987 199.972649 
L 110.932176 198.156201 
" style="fill:none;stroke:#2d718e;stroke-width:1.5;"/>
    <path clip-path="url(#pf48cebaa89)" d="M 125.693613 177.823845 
L 129.343183 170.666419 
L 131.786315 161.796019 
L 132.993988 154.367929 
L 133.80387 152.925619 
L 137.907512 144.055219 
L 140.215735 135.184819 
L 141.602727 126.314419 
L 142.490396 117.444019 
L 143.081842 108.573619 
L 143.497924 99.703219 
L 143.805136 90.832819 
L 144.033754 81.962419 
L 144.204011 73.092019 
L 144.333461 64.221619 
L 144.439865 55.351219 
L 144.654343 46.480819 
L 144.797461 37.610419 
L 144.897987 29.86335 
L 145.992738 28.740019 
L 153.126076 19.869619 
L 155.41375 10.999219 
" style="fill:none;stroke:#2d718e;stroke-width:1.5;"/>
    <path clip-path="url(#pf48cebaa89)" d="M 271.82845 10.999219 
L 272.144194 19.869619 
L 272.003663 28.740019 
L 271.486906 37.610419 
L 270.986465 46.480819 
L 270.848361 55.351219 
L 271.197569 64.221619 
L 271.88027 73.092019 
L 272.885145 81.962419 
L 274.193028 90.832819 
L 275.841987 99.420256 
L 275.899269 99.703219 
L 278.191406 108.573619 
L 281.001341 117.444019 
L 284.398564 126.314419 
L 287.745987 133.881432 
L 288.494819 135.184819 
L 293.556984 144.055219 
L 298.905113 152.925619 
L 299.649988 154.181781 
L 305.922217 161.796019 
L 311.553987 169.012744 
L 313.485659 170.666419 
L 322.045897 179.536819 
L 323.457987 181.394833 
L 328.347927 188.407219 
L 333.254291 197.277619 
L 335.361987 201.963316 
L 336.870062 206.148019 
L 339.581922 215.018419 
L 341.863037 223.888819 
L 343.776972 232.759219 
L 345.39728 241.629619 
L 346.758299 250.500019 
L 347.265987 254.659365 
L 347.717051 259.370419 
L 348.067037 264.525233 
" style="fill:none;stroke:#2d718e;stroke-width:1.5;"/>
   </g>
   <g id="LineCollection_9">
    <path clip-path="url(#pf48cebaa89)" d="M 96.070947 277.111219 
L 96.323087 268.240819 
L 96.602436 259.370419 
L 96.751014 250.500019 
L 96.797964 241.629619 
L 97.018266 232.759219 
L 97.281987 229.677918 
L 98.16926 223.888819 
L 100.624022 215.018419 
L 104.053612 206.148019 
L 107.815802 197.998382 
" style="fill:none;stroke:#287d8e;stroke-width:1.5;"/>
    <path clip-path="url(#pf48cebaa89)" d="M 122.344285 177.593774 
L 127.122793 170.666419 
L 130.461165 161.796019 
L 132.318473 152.925619 
L 132.993988 148.133715 
L 135.018072 144.055219 
L 138.276127 135.184819 
L 140.233949 126.314419 
L 141.487078 117.444019 
L 142.322144 108.573619 
L 142.910256 99.703219 
L 143.344871 90.832819 
L 143.668508 81.962419 
L 143.909614 73.092019 
L 144.092795 64.221619 
L 144.241448 55.351219 
L 144.542406 46.480819 
L 144.735377 37.610419 
L 144.870617 28.740019 
L 144.897987 27.35497 
L 151.523887 19.869619 
L 154.799185 10.999219 
" style="fill:none;stroke:#287d8e;stroke-width:1.5;"/>
    <path clip-path="url(#pf48cebaa89)" d="M 276.796268 10.999219 
L 277.199481 19.869619 
L 277.979345 28.740019 
L 279.416521 37.610419 
L 281.731202 46.480819 
L 283.319154 55.351219 
L 283.219972 64.221619 
L 283.103052 73.092019 
L 283.602826 81.962419 
L 284.767163 90.832819 
L 286.058337 96.672641 
" style="fill:none;stroke:#287d8e;stroke-width:1.5;"/>
    <path clip-path="url(#pf48cebaa89)" d="M 296.154042 119.615894 
L 299.649988 125.292848 
L 300.610969 126.314419 
L 309.030958 135.184819 
L 311.553987 137.884762 
L 323.457987 143.744315 
L 324.072751 144.055219 
L 335.361987 151.319464 
L 336.806797 152.925619 
L 343.805351 161.796019 
L 347.265987 166.827188 
L 348.968115 170.666419 
L 352.531845 179.536819 
L 355.844132 188.407219 
L 358.907663 197.277619 
L 359.169987 198.139607 
L 360.715696 206.148019 
L 362.29067 215.018419 
L 363.741811 223.888819 
L 365.063847 232.759219 
L 366.260122 241.629619 
L 367.326102 250.500019 
L 368.236256 259.370419 
L 368.969383 268.240819 
L 369.521732 277.111219 
" style="fill:none;stroke:#287d8e;stroke-width:1.5;"/>
   </g>
   <g id="LineCollection_10">
    <path clip-path="url(#pf48cebaa89)" d="M 94.983134 277.111219 
L 95.135513 268.240819 
L 95.285319 259.370419 
L 95.283775 250.500019 
L 95.174154 241.629619 
L 95.260185 232.759219 
L 95.958828 223.888819 
L 97.281987 216.724609 
L 97.770109 215.018419 
L 101.59605 206.148019 
L 105.517409 198.547274 
" style="fill:none;stroke:#238a8d;stroke-width:1.5;"/>
    <path clip-path="url(#pf48cebaa89)" d="M 120.086314 178.097298 
L 121.089988 176.19324 
L 124.902404 170.666419 
L 129.136015 161.796019 
L 131.497723 152.925619 
L 132.835901 144.055219 
L 132.993988 142.741892 
L 136.33652 135.184819 
L 138.86517 126.314419 
L 140.48376 117.444019 
L 141.562446 108.573619 
L 142.322588 99.703219 
L 142.884606 90.832819 
L 143.303262 81.962419 
L 143.615218 73.092019 
L 143.852129 64.221619 
L 144.043032 55.351219 
L 144.430469 46.480819 
L 144.673292 37.610419 
L 144.834849 28.740019 
L 144.897987 25.544959 
L 149.921698 19.869619 
L 154.184619 10.999219 
" style="fill:none;stroke:#238a8d;stroke-width:1.5;"/>
    <path clip-path="url(#pf48cebaa89)" d="M 277.973137 10.999219 
L 278.907743 19.869619 
L 280.807763 28.740019 
L 284.690872 37.610419 
L 287.745987 42.855285 
L 288.723394 46.480819 
L 290.607792 55.351219 
L 292.420343 64.221619 
L 293.732309 73.092019 
L 295.021935 81.962419 
L 296.801368 90.832819 
L 299.647486 99.703219 
L 299.649988 99.708267 
L 306.310212 108.573619 
L 311.553987 114.254838 
L 316.980382 117.444019 
L 323.457987 121.018749 
L 335.361987 124.535481 
L 337.715019 126.314419 
L 347.265987 134.502974 
L 347.679105 135.184819 
L 352.804623 144.055219 
L 357.960884 152.925619 
L 359.169987 155.15747 
L 361.155942 161.796019 
L 363.843021 170.666419 
L 366.580876 179.536819 
L 369.263785 188.407219 
L 371.073988 194.82914 
L 371.495739 197.277619 
L 372.895249 206.148019 
L 374.242449 215.018419 
L 375.530458 223.888819 
L 376.763674 232.759219 
L 377.944342 241.629619 
L 379.066954 250.500019 
L 379.684041 255.71794 
" style="fill:none;stroke:#238a8d;stroke-width:1.5;"/>
   </g>
   <g id="LineCollection_11">
    <path clip-path="url(#pf48cebaa89)" d="M 93.895322 277.111219 
L 93.947939 268.240819 
L 93.968201 259.370419 
L 93.816537 250.500019 
L 93.550344 241.629619 
L 93.502104 232.759219 
L 94.116429 223.888819 
L 95.732511 215.018419 
L 97.281987 210.377358 
L 99.138489 206.148019 
L 103.174251 199.070174 
" style="fill:none;stroke:#1f968b;stroke-width:1.5;"/>
    <path clip-path="url(#pf48cebaa89)" d="M 118.003854 178.829033 
L 121.089988 172.974364 
L 122.682015 170.666419 
L 127.810865 161.796019 
L 130.676972 152.925619 
L 132.308048 144.055219 
L 132.993988 138.356667 
L 134.396912 135.184819 
L 137.496392 126.314419 
L 139.480443 117.444019 
L 140.802748 108.573619 
L 141.73492 99.703219 
L 142.424341 90.832819 
L 142.938016 81.962419 
L 143.320822 73.092019 
L 143.611464 64.221619 
L 143.844615 55.351219 
L 144.318531 46.480819 
L 144.611208 37.610419 
L 144.799081 28.740019 
L 144.897987 23.734949 
L 148.319509 19.869619 
L 153.570054 10.999219 
" style="fill:none;stroke:#1f968b;stroke-width:1.5;"/>
    <path clip-path="url(#pf48cebaa89)" d="M 279.150005 10.999219 
L 280.616006 19.869619 
L 283.636181 28.740019 
L 287.745987 35.61858 
L 288.403721 37.610419 
L 291.164458 46.480819 
L 294.791708 55.351219 
L 299.418076 64.221619 
L 299.649988 64.917004 
L 302.974123 73.092019 
L 306.000929 80.621317 
" style="fill:none;stroke:#1f968b;stroke-width:1.5;"/>
    <path clip-path="url(#pf48cebaa89)" d="M 320.899866 100.354851 
L 323.457987 102.107342 
L 335.361987 105.926731 
L 339.652074 108.573619 
L 347.265987 113.664323 
L 349.72555 117.444019 
L 355.586384 126.314419 
L 359.169987 131.612968 
L 360.440525 135.184819 
L 363.599379 144.055219 
L 366.913955 152.925619 
L 370.415152 161.796019 
L 371.073988 163.526117 
L 372.761298 170.666419 
L 374.825113 179.536819 
L 376.852558 188.407219 
L 378.862361 197.277619 
L 380.83181 206.148019 
L 382.732684 215.018419 
L 382.977987 216.280368 
L 384.006031 223.888819 
L 385.157878 232.759219 
L 386.27582 241.629619 
L 387.366224 250.500019 
L 388.421673 259.370419 
L 389.429315 268.240819 
L 390.390765 277.111219 
" style="fill:none;stroke:#1f968b;stroke-width:1.5;"/>
   </g>
   <g id="LineCollection_12">
    <path clip-path="url(#pf48cebaa89)" d="M 92.80751 277.111219 
L 92.760365 268.240819 
L 92.651084 259.370419 
L 92.349298 250.500019 
L 91.926534 241.629619 
L 91.744023 232.759219 
L 92.27403 223.888819 
L 93.863339 215.018419 
L 96.825011 206.148019 
L 97.281987 205.357275 
L 102.148632 197.394834 
" style="fill:none;stroke:#20a386;stroke-width:1.5;"/>
    <path clip-path="url(#pf48cebaa89)" d="M 117.173602 177.281114 
L 120.808591 170.666419 
L 121.089988 170.089974 
L 126.485715 161.796019 
L 129.856221 152.925619 
L 131.780196 144.055219 
L 132.89685 135.184819 
L 132.993988 134.228328 
L 136.127613 126.314419 
L 138.477125 117.444019 
L 140.04305 108.573619 
L 141.147253 99.703219 
L 141.964077 90.832819 
L 142.572771 81.962419 
L 143.026425 73.092019 
L 143.370798 64.221619 
L 143.646199 55.351219 
L 144.206594 46.480819 
L 144.549123 37.610419 
L 144.763313 28.740019 
L 144.897987 21.924938 
L 146.71732 19.869619 
L 152.955488 10.999219 
" style="fill:none;stroke:#20a386;stroke-width:1.5;"/>
    <path clip-path="url(#pf48cebaa89)" d="M 280.326874 10.999219 
L 282.324268 19.869619 
L 286.464599 28.740019 
L 287.745987 30.884673 
L 289.966925 37.610419 
L 293.605521 46.480819 
L 298.975625 55.351219 
L 299.649988 56.618666 
L 305.238843 64.221619 
L 311.506122 73.092019 
L 311.553987 73.179792 
L 314.943443 77.046094 
" style="fill:none;stroke:#20a386;stroke-width:1.5;"/>
    <path clip-path="url(#pf48cebaa89)" d="M 335.124775 91.0879 
L 335.361987 91.181979 
L 347.265987 98.060184 
L 348.378755 99.703219 
L 354.418246 108.573619 
L 359.169987 115.053937 
L 360.090316 117.444019 
L 363.478004 126.314419 
L 367.176078 135.184819 
L 371.073988 143.974046 
L 371.096894 144.055219 
L 373.460093 152.925619 
L 375.946764 161.796019 
L 378.507044 170.666419 
L 381.088324 179.536819 
L 382.977987 186.213188 
L 383.417258 188.407219 
L 385.085392 197.277619 
L 386.726745 206.148019 
L 388.337338 215.018419 
L 389.907675 223.888819 
L 391.439981 232.759219 
L 392.929859 241.629619 
L 394.38131 250.500019 
L 394.881987 253.740068 
L 395.534618 259.370419 
L 396.525571 268.240819 
L 397.50197 277.111219 
" style="fill:none;stroke:#20a386;stroke-width:1.5;"/>
   </g>
   <g id="LineCollection_13">
    <path clip-path="url(#pf48cebaa89)" d="M 91.719698 277.111219 
L 91.572791 268.240819 
L 91.333966 259.370419 
L 90.88206 250.500019 
L 90.302724 241.629619 
L 89.985942 232.759219 
L 90.431631 223.888819 
L 91.994167 215.018419 
L 94.956568 206.148019 
L 97.281987 202.124149 
L 100.244187 197.277619 
L 101.702894 195.218865 
" style="fill:none;stroke:#29af7f;stroke-width:1.5;"/>
    <path clip-path="url(#pf48cebaa89)" d="M 116.949066 175.223603 
L 119.814246 170.666419 
L 121.089988 168.053041 
L 125.160565 161.796019 
L 129.03547 152.925619 
L 131.252343 144.055219 
L 132.545787 135.184819 
L 132.993988 130.771505 
L 134.758835 126.314419 
L 137.473807 117.444019 
L 139.283352 108.573619 
L 140.559585 99.703219 
L 141.503812 90.832819 
L 142.207525 81.962419 
L 142.732029 73.092019 
L 143.130132 64.221619 
L 143.447782 55.351219 
L 144.094657 46.480819 
L 144.487039 37.610419 
L 144.727546 28.740019 
L 144.897987 20.114928 
L 145.115131 19.869619 
L 152.340923 10.999219 
" style="fill:none;stroke:#29af7f;stroke-width:1.5;"/>
    <path clip-path="url(#pf48cebaa89)" d="M 281.503743 10.999219 
L 284.03253 19.869619 
L 287.745987 26.9568 
L 288.316595 28.740019 
L 291.530129 37.610419 
L 296.046585 46.480819 
L 299.649988 52.13708 
L 302.838487 55.351219 
L 311.019267 64.221619 
L 311.553987 64.976576 
L 321.866831 73.092019 
L 323.457987 74.69901 
L 335.361987 80.285924 
L 339.345655 81.962419 
L 347.265987 85.995454 
L 350.727318 90.832819 
L 357.204569 99.703219 
L 359.169987 102.334234 
L 361.643691 108.573619 
L 365.378164 117.444019 
L 369.459862 126.314419 
L 371.073988 129.777675 
L 372.70029 135.184819 
L 375.382752 144.055219 
L 378.217652 152.925619 
L 381.192822 161.796019 
L 382.977987 167.165492 
L 383.809378 170.666419 
L 385.829511 179.536819 
L 387.847654 188.407219 
L 389.860683 197.277619 
L 391.86496 206.148019 
L 393.856139 215.018419 
L 394.881987 219.825378 
L 395.52576 223.888819 
L 396.863157 232.759219 
L 397.650032 238.036028 
" style="fill:none;stroke:#29af7f;stroke-width:1.5;"/>
    <path clip-path="url(#pf48cebaa89)" d="M 401.319895 262.967361 
L 402.086931 268.240819 
L 403.356653 277.111219 
" style="fill:none;stroke:#29af7f;stroke-width:1.5;"/>
   </g>
   <g id="LineCollection_14">
    <path clip-path="url(#pf48cebaa89)" d="M 90.631886 277.111219 
L 90.385217 268.240819 
L 90.016849 259.370419 
L 89.414821 250.500019 
L 88.678914 241.629619 
L 88.227862 232.759219 
L 88.589231 223.888819 
L 90.124995 215.018419 
L 93.088124 206.148019 
L 97.281987 198.891023 
L 98.2681 197.277619 
L 101.421404 193.145298 
" style="fill:none;stroke:#3dbc74;stroke-width:1.5;"/>
    <path clip-path="url(#pf48cebaa89)" d="M 116.940845 173.32082 
L 118.8199 170.666419 
L 121.089988 166.016109 
L 123.835415 161.796019 
L 128.214719 152.925619 
L 130.72449 144.055219 
L 132.194725 135.184819 
L 132.993988 127.314683 
L 133.390056 126.314419 
L 136.470489 117.444019 
L 138.523654 108.573619 
L 139.971917 99.703219 
L 141.043547 90.832819 
L 141.842279 81.962419 
L 142.437633 73.092019 
L 142.889467 64.221619 
L 143.249366 55.351219 
L 143.982719 46.480819 
L 144.424954 37.610419 
L 144.691778 28.740019 
L 144.879608 19.869619 
L 144.897987 19.229287 
L 151.726357 10.999219 
" style="fill:none;stroke:#3dbc74;stroke-width:1.5;"/>
    <path clip-path="url(#pf48cebaa89)" d="M 282.680612 10.999219 
L 285.740793 19.869619 
L 287.745987 23.696559 
L 289.359832 28.740019 
L 293.093333 37.610419 
L 298.487649 46.480819 
L 299.649988 48.305342 
L 306.63966 55.351219 
L 311.553987 60.563166 
L 319.340203 64.221619 
L 323.457987 67.430944 
L 327.305038 68.857777 
" style="fill:none;stroke:#3dbc74;stroke-width:1.5;"/>
    <path clip-path="url(#pf48cebaa89)" d="M 349.646595 79.558811 
L 351.617459 81.962419 
L 358.49867 90.832819 
L 359.169987 91.720005 
L 362.391645 99.703219 
L 366.327822 108.573619 
L 370.666012 117.444019 
L 371.073988 118.291742 
L 373.615154 126.314419 
L 376.560552 135.184819 
L 379.66861 144.055219 
L 382.975211 152.925619 
L 382.977987 152.933458 
L 385.238923 161.796019 
L 387.556591 170.666419 
L 389.913082 179.536819 
L 392.278049 188.407219 
L 394.635975 197.277619 
L 394.881987 198.261768 
L 396.34928 206.148019 
L 397.992502 215.018419 
L 399.622803 223.888819 
L 401.245372 232.759219 
L 402.861537 241.629619 
L 404.465347 250.500019 
L 406.058806 259.370419 
L 406.785988 263.550618 
" style="fill:none;stroke:#3dbc74;stroke-width:1.5;"/>
   </g>
   <g id="LineCollection_15">
    <path clip-path="url(#pf48cebaa89)" d="M 89.544074 277.111219 
L 89.197643 268.240819 
L 88.699731 259.370419 
L 87.947583 250.500019 
L 87.055104 241.629619 
L 86.469781 232.759219 
L 86.746832 223.888819 
L 88.255823 215.018419 
L 91.21968 206.148019 
L 96.308277 197.277619 
L 97.281987 196.331669 
L 101.33 191.20956 
" style="fill:none;stroke:#56c667;stroke-width:1.5;"/>
    <path clip-path="url(#pf48cebaa89)" d="M 117.113315 171.571326 
L 117.825555 170.666419 
L 121.089988 163.979176 
L 122.510265 161.796019 
L 127.393968 152.925619 
L 130.196637 144.055219 
L 131.843663 135.184819 
L 132.822603 126.314419 
L 132.993988 124.329416 
L 135.467171 117.444019 
L 137.763956 108.573619 
L 139.384249 99.703219 
L 140.583283 90.832819 
L 141.477034 81.962419 
L 142.143236 73.092019 
L 142.648801 64.221619 
L 143.050949 55.351219 
L 143.870782 46.480819 
L 144.36287 37.610419 
L 144.65601 28.740019 
L 144.858346 19.869619 
L 144.897987 18.488566 
L 151.111792 10.999219 
" style="fill:none;stroke:#56c667;stroke-width:1.5;"/>
    <path clip-path="url(#pf48cebaa89)" d="M 288.474467 22.712905 
L 290.403068 28.740019 
L 294.656537 37.610419 
L 299.649988 45.231114 
L 301.039774 46.480819 
L 310.440832 55.351219 
L 311.553987 56.531789 
L 323.457987 62.115059 
L 331.880194 64.221619 
L 335.361987 65.570786 
L 347.265987 69.499101 
L 350.958753 73.092019 
L 358.539261 81.962419 
L 359.169987 82.766894 
L 362.527862 90.832819 
L 366.536267 99.703219 
L 371.011953 108.573619 
L 371.073988 108.699115 
L 373.9707 117.444019 
L 377.095427 126.314419 
L 380.420814 135.184819 
L 382.977987 141.785113 
L 383.629479 144.055219 
L 386.104296 152.925619 
L 388.666072 161.796019 
L 391.303804 170.666419 
L 393.996653 179.536819 
L 394.881987 182.593981 
L 396.131939 188.407219 
L 398.00416 197.277619 
L 399.903545 206.148019 
L 401.813221 215.018419 
L 403.719846 223.888819 
L 405.627586 232.759219 
L 406.785988 238.276428 
" style="fill:none;stroke:#56c667;stroke-width:1.5;"/>
   </g>
   <g id="LineCollection_16">
    <path clip-path="url(#pf48cebaa89)" d="M 88.456262 277.111219 
L 88.010069 268.240819 
L 87.382614 259.370419 
L 86.480344 250.500019 
L 85.431294 241.629619 
L 85.377988 240.922505 
L 84.750728 232.759219 
L 84.874234 223.888819 
L 85.377988 221.026914 
L 86.38665 215.018419 
L 89.351237 206.148019 
L 94.364652 197.277619 
L 97.281987 194.443459 
L 102.05244 188.407219 
L 109.160308 179.536819 
L 109.185987 179.510415 
L 116.831209 170.666419 
L 121.089988 161.942243 
L 121.185115 161.796019 
L 126.573217 152.925619 
L 129.668784 144.055219 
L 131.4926 135.184819 
L 132.581434 126.314419 
L 132.993988 121.536158 
L 134.463854 117.444019 
L 137.004258 108.573619 
L 138.796582 99.703219 
L 140.123018 90.832819 
L 141.111788 81.962419 
L 141.84884 73.092019 
L 142.408135 64.221619 
L 142.852533 55.351219 
L 143.758844 46.480819 
L 144.300785 37.610419 
L 144.620242 28.740019 
L 144.795336 21.577457 
" style="fill:none;stroke:#75d054;stroke-width:1.5;"/>
    <path clip-path="url(#pf48cebaa89)" d="M 285.03435 10.999219 
L 287.745987 17.528451 
L 288.333866 19.869619 
L 291.446305 28.740019 
L 296.219741 37.610419 
L 299.649988 42.845449 
L 303.692853 46.480819 
L 311.553987 53.642107 
L 317.667219 55.351219 
L 323.457987 58.064499 
L 335.361987 60.817244 
L 336.11546 60.989356 
" style="fill:none;stroke:#75d054;stroke-width:1.5;"/>
    <path clip-path="url(#pf48cebaa89)" d="M 357.248746 72.994696 
L 357.349074 73.092019 
L 359.169988 75.209251 
L 362.1504 81.962419 
L 366.203229 90.832819 
L 370.680889 99.703219 
L 371.073988 100.481062 
L 373.873332 108.573619 
L 377.109588 117.444019 
L 380.575699 126.314419 
L 382.977987 132.271541 
L 383.861801 135.184819 
L 386.48893 144.055219 
L 389.23243 152.925619 
L 392.093221 161.796019 
L 394.881987 170.200523 
L 394.997756 170.666419 
L 397.065954 179.536819 
L 399.16392 188.407219 
L 401.295917 197.277619 
L 403.45781 206.148019 
L 405.633941 215.018419 
L 406.785988 219.853764 
" style="fill:none;stroke:#75d054;stroke-width:1.5;"/>
   </g>
   <g id="LineCollection_17">
    <path clip-path="url(#pf48cebaa89)" d="M 87.368449 277.111219 
L 86.822495 268.240819 
L 86.065496 259.370419 
L 85.377988 253.362408 
L 85.053874 250.500019 
L 83.973271 241.629619 
L 83.095628 232.759219 
L 82.914344 223.888819 
L 84.211961 215.018419 
L 85.377988 212.445016 
L 87.482793 206.148019 
L 89.588715 202.365215 
" style="fill:none;stroke:#95d840;stroke-width:1.5;"/>
    <path clip-path="url(#pf48cebaa89)" d="M 105.275009 182.817057 
L 108.041611 179.536819 
L 109.185987 178.360155 
L 115.836864 170.666419 
L 120.520053 161.796019 
L 121.089988 160.550191 
L 125.752466 152.925619 
L 129.140931 144.055219 
L 131.141538 135.184819 
L 132.340265 126.314419 
L 132.993988 118.7429 
L 133.460536 117.444019 
L 136.24456 108.573619 
L 138.208914 99.703219 
L 139.662753 90.832819 
L 140.746542 81.962419 
L 141.554444 73.092019 
L 142.16747 64.221619 
L 142.654117 55.351219 
L 143.646907 46.480819 
L 144.238701 37.610419 
L 144.584474 28.740019 
L 144.815824 19.869619 
L 144.897987 17.007125 
L 149.882661 10.999219 
" style="fill:none;stroke:#95d840;stroke-width:1.5;"/>
    <path clip-path="url(#pf48cebaa89)" d="M 286.211219 10.999219 
L 287.745987 14.694721 
L 289.04543 19.869619 
L 291.667842 26.62371 
" style="fill:none;stroke:#95d840;stroke-width:1.5;"/>
    <path clip-path="url(#pf48cebaa89)" d="M 306.485288 46.607769 
L 311.553987 51.225221 
L 323.457987 54.546823 
L 330.113072 55.351219 
L 335.361987 56.480468 
L 347.265987 59.004426 
L 354.414064 64.221619 
L 359.169987 68.809214 
L 361.279074 73.092019 
L 365.42962 81.962419 
L 369.878596 90.832819 
L 371.073988 93.177625 
L 373.396335 99.703219 
L 376.710247 108.573619 
L 380.248475 117.444019 
L 382.977987 123.984662 
L 383.721543 126.314419 
L 386.480006 135.184819 
L 389.348381 144.055219 
L 392.360563 152.925619 
L 394.881988 160.13092 
L 395.322499 161.796019 
L 397.564227 170.666419 
L 399.854486 179.536819 
L 402.1959 188.407219 
L 404.587674 197.277619 
L 406.785988 205.37659 
" style="fill:none;stroke:#95d840;stroke-width:1.5;"/>
   </g>
   <g id="LineCollection_18">
    <path clip-path="url(#pf48cebaa89)" d="M 86.280637 277.111219 
L 85.634921 268.240819 
L 85.377988 265.476991 
L 84.81284 259.370419 
L 83.75057 250.500019 
L 82.520875 241.629619 
L 81.440528 232.759219 
L 80.954453 223.888819 
L 81.679152 215.018419 
L 85.377988 206.855147 
L 85.614349 206.148019 
L 88.980867 200.00736 
" style="fill:none;stroke:#bade28;stroke-width:1.5;"/>
    <path clip-path="url(#pf48cebaa89)" d="M 105.511643 181.130524 
L 106.922913 179.536819 
L 109.185987 177.209896 
L 114.842518 170.666419 
L 119.906041 161.796019 
L 121.089988 159.208013 
L 124.931715 152.925619 
L 128.613079 144.055219 
L 130.790476 135.184819 
L 132.099095 126.314419 
L 132.902364 117.444019 
L 132.993988 116.19968 
L 135.484862 108.573619 
L 137.621246 99.703219 
L 139.202488 90.832819 
L 140.381297 81.962419 
L 141.260047 73.092019 
L 141.926804 64.221619 
L 142.4557 55.351219 
L 143.53497 46.480819 
L 144.176616 37.610419 
L 144.548706 28.740019 
L 144.794562 19.869619 
L 144.897987 16.266404 
L 149.268096 10.999219 
" style="fill:none;stroke:#bade28;stroke-width:1.5;"/>
    <path clip-path="url(#pf48cebaa89)" d="M 287.388087 10.999219 
L 287.745987 11.86099 
L 289.756993 19.869619 
L 293.532778 28.740019 
L 299.346148 37.610419 
L 299.649988 38.074119 
L 308.999011 46.480819 
L 311.553987 48.808336 
L 323.457987 52.110342 
L 335.361987 53.117894 
L 347.265987 54.682743 
L 348.507885 55.351219 
L 348.990237 55.703048 
" style="fill:none;stroke:#bade28;stroke-width:1.5;"/>
    <path clip-path="url(#pf48cebaa89)" d="M 364.87042 74.362699 
L 368.708841 81.962419 
L 371.073988 86.545342 
L 372.637073 90.832819 
L 375.962028 99.703219 
L 379.547163 108.573619 
L 382.977987 116.580525 
L 383.265065 117.444019 
L 386.122113 126.314419 
L 389.09821 135.184819 
L 392.207832 144.055219 
L 394.881987 151.401964 
L 395.305899 152.925619 
L 397.687378 161.796019 
L 400.130698 170.666419 
L 402.643018 179.536819 
L 405.22788 188.407219 
L 406.785988 193.794992 
" style="fill:none;stroke:#bade28;stroke-width:1.5;"/>
   </g>
   <g id="LineCollection_19">
    <path clip-path="url(#pf48cebaa89)" d="M 84.157402 264.555964 
L 83.630574 259.370419 
L 82.447265 250.500019 
L 81.068479 241.629619 
L 79.785429 232.759219 
L 78.994563 223.888819 
L 79.146344 215.018419 
L 81.916561 206.148019 
L 85.377988 203.045185 
L 88.53378 197.277619 
L 97.281987 188.778828 
L 97.575671 188.407219 
L 105.804216 179.536819 
L 109.185987 176.059637 
L 113.848173 170.666419 
L 119.292029 161.796019 
L 121.089988 157.865835 
L 124.110964 152.925619 
L 128.085226 144.055219 
L 130.439413 135.184819 
L 131.857926 126.314419 
L 132.731102 117.444019 
L 132.993988 113.873789 
L 134.725164 108.573619 
L 137.033578 99.703219 
L 138.742224 90.832819 
L 140.016051 81.962419 
L 140.965651 73.092019 
L 141.686138 64.221619 
L 142.257284 55.351219 
L 143.423032 46.480819 
L 144.114532 37.610419 
L 144.512938 28.740019 
L 144.773301 19.869619 
L 144.897987 15.525683 
L 148.65353 10.999219 
" style="fill:none;stroke:#dde318;stroke-width:1.5;"/>
    <path clip-path="url(#pf48cebaa89)" d="M 288.089429 10.999219 
L 290.468557 19.869619 
L 294.576015 28.740019 
L 299.649988 36.349902 
L 301.180687 37.610419 
L 311.357085 46.253904 
" style="fill:none;stroke:#dde318;stroke-width:1.5;"/>
    <path clip-path="url(#pf48cebaa89)" d="M 336.047304 50.163759 
L 347.265987 51.23532 
L 354.91253 55.351219 
L 359.169987 58.456621 
L 362.493771 64.221619 
L 367.178192 73.092019 
L 371.073988 80.416612 
L 371.656656 81.962419 
L 374.953594 90.832819 
L 378.52772 99.703219 
L 382.384078 108.573619 
L 382.977987 109.959693 
L 385.466233 117.444019 
L 388.522682 126.314419 
L 391.716415 135.184819 
L 394.881987 143.603983 
L 395.013074 144.055219 
L 397.491544 152.925619 
L 400.052256 161.796019 
L 402.697169 170.666419 
L 405.43155 179.536819 
L 406.785988 183.97023 
" style="fill:none;stroke:#dde318;stroke-width:1.5;"/>
   </g>
   <g id="LineCollection_20">
    <path clip-path="url(#pf48cebaa89)" d="M 84.212818 277.111219 
L 83.451918 268.240819 
L 82.448308 259.370419 
L 81.143961 250.500019 
L 79.616084 241.629619 
L 78.130329 232.759219 
L 77.034672 223.888819 
L 76.613536 215.018419 
L 77.953842 206.148019 
L 85.377988 199.492992 
L 86.590155 197.277619 
L 88.009352 195.850163 
" style="fill:none;stroke:#fde725;stroke-width:1.5;"/>
    <path clip-path="url(#pf48cebaa89)" d="M 105.916443 178.271166 
L 109.185987 174.909377 
L 112.853827 170.666419 
L 118.678017 161.796019 
L 121.089988 156.523658 
L 123.290213 152.925619 
L 127.557373 144.055219 
L 130.088351 135.184819 
L 131.616757 126.314419 
L 132.559841 117.444019 
L 132.993988 111.547897 
L 133.965466 108.573619 
L 136.44591 99.703219 
L 138.281959 90.832819 
L 139.650805 81.962419 
L 140.671255 73.092019 
L 141.445473 64.221619 
L 142.058867 55.351219 
L 143.311095 46.480819 
L 144.052448 37.610419 
L 144.47717 28.740019 
L 144.75204 19.869619 
L 144.897987 14.784962 
L 148.038965 10.999219 
" style="fill:none;stroke:#fde725;stroke-width:1.5;"/>
    <path clip-path="url(#pf48cebaa89)" d="M 288.582958 10.999219 
L 291.18012 19.869619 
L 295.619252 28.740019 
L 299.649988 34.785268 
L 303.080689 37.610419 
L 311.553987 44.807349 
L 320.714843 46.480819 
L 323.457987 47.237381 
L 335.361987 47.078707 
L 347.265987 47.787896 
L 358.43433 53.72254 
" style="fill:none;stroke:#fde725;stroke-width:1.5;"/>
    <path clip-path="url(#pf48cebaa89)" d="M 371.226169 75.274797 
L 373.746965 81.962419 
L 377.270115 90.832819 
L 381.093412 99.703219 
L 382.977987 103.975221 
L 384.572432 108.573619 
L 387.667401 117.444019 
L 390.923252 126.314419 
L 394.33462 135.184819 
L 394.881987 136.6406 
L 397.035967 144.055219 
L 399.677189 152.925619 
L 402.417135 161.796019 
L 405.26364 170.666419 
L 406.785988 175.417541 
" style="fill:none;stroke:#fde725;stroke-width:1.5;"/>
   </g>
   <g id="LineCollection_21">
    <path clip-path="url(#pf48cebaa89)" d="M 83.217129 277.111219 
L 82.37207 268.240819 
L 81.266042 259.370419 
L 79.840657 250.500019 
L 78.163688 241.629619 
L 76.475229 232.759219 
L 75.074781 223.888819 
L 74.080727 215.018419 
L 73.991124 206.148019 
L 80.871334 197.277619 
L 85.377988 196.370134 
L 93.077601 188.407219 
L 97.281987 186.251896 
L 99.234221 184.166017 
" style="fill:none;stroke:#440154;stroke-width:1.5;"/>
    <path clip-path="url(#pf48cebaa89)" d="M 117.769941 162.216433 
L 118.064005 161.796019 
L 121.089988 155.18148 
L 122.469462 152.925619 
L 127.02952 144.055219 
L 129.737289 135.184819 
L 131.375588 126.314419 
L 132.388579 117.444019 
L 132.993988 109.222006 
L 133.205768 108.573619 
L 135.858243 99.703219 
L 137.821694 90.832819 
L 139.285559 81.962419 
L 140.376858 73.092019 
L 141.204807 64.221619 
L 141.860451 55.351219 
L 143.199158 46.480819 
L 143.990363 37.610419 
L 144.441402 28.740019 
L 144.730778 19.869619 
L 144.897987 14.044241 
L 147.424399 10.999219 
" style="fill:none;stroke:#440154;stroke-width:1.5;"/>
    <path clip-path="url(#pf48cebaa89)" d="M 289.076487 10.999219 
L 291.891684 19.869619 
L 296.662488 28.740019 
L 299.649988 33.220634 
L 304.980691 37.610419 
L 311.553987 43.193552 
L 323.457987 45.333588 
L 335.361987 44.810326 
L 347.265987 44.819443 
L 351.643835 46.480819 
L 359.169987 50.421443 
L 362.54021 55.351219 
L 365.588738 60.414915 
" style="fill:none;stroke:#440154;stroke-width:1.5;"/>
    <path clip-path="url(#pf48cebaa89)" d="M 377.733607 86.448845 
L 379.586636 90.832819 
L 382.977987 98.341615 
L 383.468366 99.703219 
L 386.589057 108.573619 
L 389.868569 117.444019 
L 393.323821 126.314419 
L 394.881987 130.312709 
L 396.360339 135.184819 
L 399.05886 144.055219 
L 401.862833 152.925619 
L 404.782014 161.796019 
L 406.785988 167.789124 
" style="fill:none;stroke:#440154;stroke-width:1.5;"/>
   </g>
   <g id="LineCollection_22">
    <path clip-path="url(#pf48cebaa89)" d="M 49.665988 143.442156 
L 57.152972 135.184819 
L 61.434718 126.314419 
L 61.569988 126.087832 
L 73.389699 117.444019 
L 73.473988 117.317202 
L 79.5865 117.444019 
L 85.377988 117.899886 
L 97.281987 122.584302 
L 109.185987 118.680835 
L 109.928473 117.444019 
L 111.523846 114.462099 
" style="fill:none;stroke:#440154;stroke-width:1.5;"/>
    <path clip-path="url(#pf48cebaa89)" d="M 122.677717 84.15602 
L 123.373653 81.962419 
L 125.585755 73.092019 
L 127.291502 64.221619 
L 128.685569 55.351219 
L 130.590323 46.480819 
L 132.951114 37.610419 
L 132.993988 37.431656 
L 138.003173 28.740019 
L 140.903741 19.869619 
L 142.657813 10.999219 
" style="fill:none;stroke:#440154;stroke-width:1.5;"/>
   </g>
   <g id="LineCollection_23">
    <path clip-path="url(#pf48cebaa89)" d="M 49.665988 124.31406 
L 57.52717 117.444019 
L 61.569988 112.224855 
L 66.019136 108.573619 
L 72.779904 99.703219 
L 73.473988 98.164337 
L 82.543388 90.832819 
L 85.219417 84.114469 
" style="fill:none;stroke:#440154;stroke-width:1.5;"/>
    <path clip-path="url(#pf48cebaa89)" d="M 107.876214 56.763577 
L 108.583985 55.351219 
L 109.185987 53.42725 
L 114.013454 46.480819 
L 118.361364 37.610419 
L 121.089988 29.241142 
L 121.505684 28.740019 
L 128.530248 19.869619 
L 131.474222 10.999219 
" style="fill:none;stroke:#440154;stroke-width:1.5;"/>
   </g>
   <g id="LineCollection_24">
    <path clip-path="url(#pf48cebaa89)" d="M 49.665988 108.460736 
L 60.126215 99.703219 
L 61.569988 97.646947 
L 68.808645 90.832819 
L 73.296084 81.962419 
L 73.473988 81.571732 
L 75.30892 79.64048 
" style="fill:none;stroke:#440154;stroke-width:1.5;"/>
    <path clip-path="url(#pf48cebaa89)" d="M 96.236491 46.763652 
L 96.364951 46.480819 
L 97.281987 43.51119 
L 101.885243 37.610419 
L 106.662243 28.740019 
L 109.185987 23.277904 
L 112.12133 19.869619 
L 117.946139 10.999219 
" style="fill:none;stroke:#440154;stroke-width:1.5;"/>
   </g>
   <g id="LineCollection_25">
    <path clip-path="url(#pf48cebaa89)" d="M 49.665988 90.676343 
L 58.301289 81.962419 
L 61.569988 75.609911 
L 63.214916 73.842356 
" style="fill:none;stroke:#440154;stroke-width:1.5;"/>
    <path clip-path="url(#pf48cebaa89)" d="M 83.956434 36.384558 
L 85.377988 30.545163 
L 86.539044 28.740019 
L 91.731368 19.869619 
L 96.585758 10.999219 
" style="fill:none;stroke:#440154;stroke-width:1.5;"/>
   </g>
   <g id="LineCollection_26">
    <path clip-path="url(#pf48cebaa89)" d="M 49.665988 61.213672 
L 52.008498 58.338827 
" style="fill:none;stroke:#450457;stroke-width:1.5;"/>
    <path clip-path="url(#pf48cebaa89)" d="M 71.815497 16.400418 
L 72.988441 10.999219 
" style="fill:none;stroke:#450457;stroke-width:1.5;"/>
   </g>
   <g id="LineCollection_27">
    <path clip-path="url(#pf48cebaa89)" d="M 49.665988 18.196049 
L 53.966017 10.999219 
" style="fill:none;stroke:#482475;stroke-width:1.5;"/>
   </g>
   <g id="LineCollection_28"/>
   <g id="line2d_14">
    <path clip-path="url(#pf48cebaa89)" d="M 338.717517 220.577802 
L 333.757143 213.620854 
L 321.517938 198.951793 
L 269.827838 156.702025 
L 214.527971 118.985328 
L 177.547634 95.630966 
L 153.162256 81.940959 
L 137.168517 74.246699 
L 126.710697 70.368633 
L 119.912716 68.915222 
L 115.5102 69.288961 
L 112.689836 70.762083 
L 110.901042 72.991197 
L 109.795773 75.661556 
L 109.134986 78.661275 
L 108.759723 82.01443 
L 108.574237 85.547846 
L 108.499131 89.411234 
L 108.495985 93.517853 
L 108.541309 97.779175 
L 108.6109 102.285589 
L 108.698576 106.93298 
L 108.809745 111.609123 
L 108.932385 116.288152 
L 109.070214 120.914141 
L 109.224507 125.427513 
L 109.376134 129.96971 
L 109.540281 134.363434 
L 109.719391 138.565518 
L 109.907614 142.630961 
L 110.107673 146.564732 
L 110.302578 150.569346 
L 110.489233 154.747305 
L 110.675751 159.02121 
L 110.867039 163.231188 
L 111.061358 167.311504 
L 111.257914 171.445833 
L 111.460266 175.535634 
L 111.664367 179.5795 
L 111.873302 183.506091 
L 112.083162 187.530252 
L 112.295542 191.452708 
L 112.504885 195.4618 
L 112.708597 199.682435 
L 112.916535 203.873932 
L 113.120897 207.956862 
L 113.329789 211.820205 
L 113.540685 215.680781 
L 113.756387 219.489597 
L 113.96582 223.308978 
L 113.98724 223.678465 
L 114.008805 224.043211 
L 114.03084 224.397316 
L 114.05317 224.741694 
L 114.076054 225.088786 
L 114.09898 225.431764 
L 114.121337 225.785923 
L 114.143903 226.137955 
L 114.167185 226.49009 
L 114.190188 226.847788 
L 114.212514 227.208386 
L 114.236154 227.555297 
L 114.258635 227.914021 
L 114.281778 228.254983 
L 114.304544 228.594756 
L 114.327456 228.939839 
L 114.349942 229.292877 
L 114.372159 229.648665 
L 114.394874 229.99613 
L 114.418511 230.326475 
L 114.442124 230.653066 
L 114.465753 230.987028 
L 114.489755 231.307275 
L 114.513986 231.627882 
L 114.538942 231.937605 
L 114.541399 231.96862 
L 114.543725 232.001895 
L 114.545997 232.035361 
L 114.548205 232.070172 
L 114.550385 232.105379 
L 114.55263 232.139406 
L 114.554889 232.172529 
L 114.557149 232.205449 
L 114.559374 232.239356 
L 114.561546 232.273378 
L 114.563701 232.308215 
L 114.565898 232.341387 
L 114.568235 232.372612 
L 114.570628 232.40479 
L 114.572981 232.436364 
L 114.575343 232.468413 
L 114.577765 232.498813 
L 114.580189 232.530929 
L 114.582628 232.563589 
L 114.585024 232.5958 
L 114.587335 232.628502 
L 114.589728 232.661189 
L 114.592114 232.693918 
L 114.594465 232.726989 
" style="fill:none;stroke:#1f77b4;stroke-linecap:square;stroke-width:1.5;"/>
    <defs>
     <path d="M 0 1.5 
C 0.397805 1.5 0.77937 1.341951 1.06066 1.06066 
C 1.341951 0.77937 1.5 0.397805 1.5 0 
C 1.5 -0.397805 1.341951 -0.77937 1.06066 -1.06066 
C 0.77937 -1.341951 0.397805 -1.5 0 -1.5 
C -0.397805 -1.5 -0.77937 -1.341951 -1.06066 -1.06066 
C -1.341951 -0.77937 -1.5 -0.397805 -1.5 0 
C -1.5 0.397805 -1.341951 0.77937 -1.06066 1.06066 
C -0.77937 1.341951 -0.397805 1.5 0 1.5 
z
" id="mf0ffa39e09" style="stroke:#1f77b4;"/>
    </defs>
    <g clip-path="url(#pf48cebaa89)">
     <use style="fill:#1f77b4;stroke:#1f77b4;" x="338.717517" xlink:href="#mf0ffa39e09" y="220.577802"/>
     <use style="fill:#1f77b4;stroke:#1f77b4;" x="333.757143" xlink:href="#mf0ffa39e09" y="213.620854"/>
     <use style="fill:#1f77b4;stroke:#1f77b4;" x="321.517938" xlink:href="#mf0ffa39e09" y="198.951793"/>
     <use style="fill:#1f77b4;stroke:#1f77b4;" x="269.827838" xlink:href="#mf0ffa39e09" y="156.702025"/>
     <use style="fill:#1f77b4;stroke:#1f77b4;" x="214.527971" xlink:href="#mf0ffa39e09" y="118.985328"/>
     <use style="fill:#1f77b4;stroke:#1f77b4;" x="177.547634" xlink:href="#mf0ffa39e09" y="95.630966"/>
     <use style="fill:#1f77b4;stroke:#1f77b4;" x="153.162256" xlink:href="#mf0ffa39e09" y="81.940959"/>
     <use style="fill:#1f77b4;stroke:#1f77b4;" x="137.168517" xlink:href="#mf0ffa39e09" y="74.246699"/>
     <use style="fill:#1f77b4;stroke:#1f77b4;" x="126.710697" xlink:href="#mf0ffa39e09" y="70.368633"/>
     <use style="fill:#1f77b4;stroke:#1f77b4;" x="119.912716" xlink:href="#mf0ffa39e09" y="68.915222"/>
     <use style="fill:#1f77b4;stroke:#1f77b4;" x="115.5102" xlink:href="#mf0ffa39e09" y="69.288961"/>
     <use style="fill:#1f77b4;stroke:#1f77b4;" x="112.689836" xlink:href="#mf0ffa39e09" y="70.762083"/>
     <use style="fill:#1f77b4;stroke:#1f77b4;" x="110.901042" xlink:href="#mf0ffa39e09" y="72.991197"/>
     <use style="fill:#1f77b4;stroke:#1f77b4;" x="109.795773" xlink:href="#mf0ffa39e09" y="75.661556"/>
     <use style="fill:#1f77b4;stroke:#1f77b4;" x="109.134986" xlink:href="#mf0ffa39e09" y="78.661275"/>
     <use style="fill:#1f77b4;stroke:#1f77b4;" x="108.759723" xlink:href="#mf0ffa39e09" y="82.01443"/>
     <use style="fill:#1f77b4;stroke:#1f77b4;" x="108.574237" xlink:href="#mf0ffa39e09" y="85.547846"/>
     <use style="fill:#1f77b4;stroke:#1f77b4;" x="108.499131" xlink:href="#mf0ffa39e09" y="89.411234"/>
     <use style="fill:#1f77b4;stroke:#1f77b4;" x="108.495985" xlink:href="#mf0ffa39e09" y="93.517853"/>
     <use style="fill:#1f77b4;stroke:#1f77b4;" x="108.541309" xlink:href="#mf0ffa39e09" y="97.779175"/>
     <use style="fill:#1f77b4;stroke:#1f77b4;" x="108.6109" xlink:href="#mf0ffa39e09" y="102.285589"/>
     <use style="fill:#1f77b4;stroke:#1f77b4;" x="108.698576" xlink:href="#mf0ffa39e09" y="106.93298"/>
     <use style="fill:#1f77b4;stroke:#1f77b4;" x="108.809745" xlink:href="#mf0ffa39e09" y="111.609123"/>
     <use style="fill:#1f77b4;stroke:#1f77b4;" x="108.932385" xlink:href="#mf0ffa39e09" y="116.288152"/>
     <use style="fill:#1f77b4;stroke:#1f77b4;" x="109.070214" xlink:href="#mf0ffa39e09" y="120.914141"/>
     <use style="fill:#1f77b4;stroke:#1f77b4;" x="109.224507" xlink:href="#mf0ffa39e09" y="125.427513"/>
     <use style="fill:#1f77b4;stroke:#1f77b4;" x="109.376134" xlink:href="#mf0ffa39e09" y="129.96971"/>
     <use style="fill:#1f77b4;stroke:#1f77b4;" x="109.540281" xlink:href="#mf0ffa39e09" y="134.363434"/>
     <use style="fill:#1f77b4;stroke:#1f77b4;" x="109.719391" xlink:href="#mf0ffa39e09" y="138.565518"/>
     <use style="fill:#1f77b4;stroke:#1f77b4;" x="109.907614" xlink:href="#mf0ffa39e09" y="142.630961"/>
     <use style="fill:#1f77b4;stroke:#1f77b4;" x="110.107673" xlink:href="#mf0ffa39e09" y="146.564732"/>
     <use style="fill:#1f77b4;stroke:#1f77b4;" x="110.302578" xlink:href="#mf0ffa39e09" y="150.569346"/>
     <use style="fill:#1f77b4;stroke:#1f77b4;" x="110.489233" xlink:href="#mf0ffa39e09" y="154.747305"/>
     <use style="fill:#1f77b4;stroke:#1f77b4;" x="110.675751" xlink:href="#mf0ffa39e09" y="159.02121"/>
     <use style="fill:#1f77b4;stroke:#1f77b4;" x="110.867039" xlink:href="#mf0ffa39e09" y="163.231188"/>
     <use style="fill:#1f77b4;stroke:#1f77b4;" x="111.061358" xlink:href="#mf0ffa39e09" y="167.311504"/>
     <use style="fill:#1f77b4;stroke:#1f77b4;" x="111.257914" xlink:href="#mf0ffa39e09" y="171.445833"/>
     <use style="fill:#1f77b4;stroke:#1f77b4;" x="111.460266" xlink:href="#mf0ffa39e09" y="175.535634"/>
     <use style="fill:#1f77b4;stroke:#1f77b4;" x="111.664367" xlink:href="#mf0ffa39e09" y="179.5795"/>
     <use style="fill:#1f77b4;stroke:#1f77b4;" x="111.873302" xlink:href="#mf0ffa39e09" y="183.506091"/>
     <use style="fill:#1f77b4;stroke:#1f77b4;" x="112.083162" xlink:href="#mf0ffa39e09" y="187.530252"/>
     <use style="fill:#1f77b4;stroke:#1f77b4;" x="112.295542" xlink:href="#mf0ffa39e09" y="191.452708"/>
     <use style="fill:#1f77b4;stroke:#1f77b4;" x="112.504885" xlink:href="#mf0ffa39e09" y="195.4618"/>
     <use style="fill:#1f77b4;stroke:#1f77b4;" x="112.708597" xlink:href="#mf0ffa39e09" y="199.682435"/>
     <use style="fill:#1f77b4;stroke:#1f77b4;" x="112.916535" xlink:href="#mf0ffa39e09" y="203.873932"/>
     <use style="fill:#1f77b4;stroke:#1f77b4;" x="113.120897" xlink:href="#mf0ffa39e09" y="207.956862"/>
     <use style="fill:#1f77b4;stroke:#1f77b4;" x="113.329789" xlink:href="#mf0ffa39e09" y="211.820205"/>
     <use style="fill:#1f77b4;stroke:#1f77b4;" x="113.540685" xlink:href="#mf0ffa39e09" y="215.680781"/>
     <use style="fill:#1f77b4;stroke:#1f77b4;" x="113.756387" xlink:href="#mf0ffa39e09" y="219.489597"/>
     <use style="fill:#1f77b4;stroke:#1f77b4;" x="113.96582" xlink:href="#mf0ffa39e09" y="223.308978"/>
     <use style="fill:#1f77b4;stroke:#1f77b4;" x="113.98724" xlink:href="#mf0ffa39e09" y="223.678465"/>
     <use style="fill:#1f77b4;stroke:#1f77b4;" x="114.008805" xlink:href="#mf0ffa39e09" y="224.043211"/>
     <use style="fill:#1f77b4;stroke:#1f77b4;" x="114.03084" xlink:href="#mf0ffa39e09" y="224.397316"/>
     <use style="fill:#1f77b4;stroke:#1f77b4;" x="114.05317" xlink:href="#mf0ffa39e09" y="224.741694"/>
     <use style="fill:#1f77b4;stroke:#1f77b4;" x="114.076054" xlink:href="#mf0ffa39e09" y="225.088786"/>
     <use style="fill:#1f77b4;stroke:#1f77b4;" x="114.09898" xlink:href="#mf0ffa39e09" y="225.431764"/>
     <use style="fill:#1f77b4;stroke:#1f77b4;" x="114.121337" xlink:href="#mf0ffa39e09" y="225.785923"/>
     <use style="fill:#1f77b4;stroke:#1f77b4;" x="114.143903" xlink:href="#mf0ffa39e09" y="226.137955"/>
     <use style="fill:#1f77b4;stroke:#1f77b4;" x="114.167185" xlink:href="#mf0ffa39e09" y="226.49009"/>
     <use style="fill:#1f77b4;stroke:#1f77b4;" x="114.190188" xlink:href="#mf0ffa39e09" y="226.847788"/>
     <use style="fill:#1f77b4;stroke:#1f77b4;" x="114.212514" xlink:href="#mf0ffa39e09" y="227.208386"/>
     <use style="fill:#1f77b4;stroke:#1f77b4;" x="114.236154" xlink:href="#mf0ffa39e09" y="227.555297"/>
     <use style="fill:#1f77b4;stroke:#1f77b4;" x="114.258635" xlink:href="#mf0ffa39e09" y="227.914021"/>
     <use style="fill:#1f77b4;stroke:#1f77b4;" x="114.281778" xlink:href="#mf0ffa39e09" y="228.254983"/>
     <use style="fill:#1f77b4;stroke:#1f77b4;" x="114.304544" xlink:href="#mf0ffa39e09" y="228.594756"/>
     <use style="fill:#1f77b4;stroke:#1f77b4;" x="114.327456" xlink:href="#mf0ffa39e09" y="228.939839"/>
     <use style="fill:#1f77b4;stroke:#1f77b4;" x="114.349942" xlink:href="#mf0ffa39e09" y="229.292877"/>
     <use style="fill:#1f77b4;stroke:#1f77b4;" x="114.372159" xlink:href="#mf0ffa39e09" y="229.648665"/>
     <use style="fill:#1f77b4;stroke:#1f77b4;" x="114.394874" xlink:href="#mf0ffa39e09" y="229.99613"/>
     <use style="fill:#1f77b4;stroke:#1f77b4;" x="114.418511" xlink:href="#mf0ffa39e09" y="230.326475"/>
     <use style="fill:#1f77b4;stroke:#1f77b4;" x="114.442124" xlink:href="#mf0ffa39e09" y="230.653066"/>
     <use style="fill:#1f77b4;stroke:#1f77b4;" x="114.465753" xlink:href="#mf0ffa39e09" y="230.987028"/>
     <use style="fill:#1f77b4;stroke:#1f77b4;" x="114.489755" xlink:href="#mf0ffa39e09" y="231.307275"/>
     <use style="fill:#1f77b4;stroke:#1f77b4;" x="114.513986" xlink:href="#mf0ffa39e09" y="231.627882"/>
     <use style="fill:#1f77b4;stroke:#1f77b4;" x="114.538942" xlink:href="#mf0ffa39e09" y="231.937605"/>
     <use style="fill:#1f77b4;stroke:#1f77b4;" x="114.541399" xlink:href="#mf0ffa39e09" y="231.96862"/>
     <use style="fill:#1f77b4;stroke:#1f77b4;" x="114.543725" xlink:href="#mf0ffa39e09" y="232.001895"/>
     <use style="fill:#1f77b4;stroke:#1f77b4;" x="114.545997" xlink:href="#mf0ffa39e09" y="232.035361"/>
     <use style="fill:#1f77b4;stroke:#1f77b4;" x="114.548205" xlink:href="#mf0ffa39e09" y="232.070172"/>
     <use style="fill:#1f77b4;stroke:#1f77b4;" x="114.550385" xlink:href="#mf0ffa39e09" y="232.105379"/>
     <use style="fill:#1f77b4;stroke:#1f77b4;" x="114.55263" xlink:href="#mf0ffa39e09" y="232.139406"/>
     <use style="fill:#1f77b4;stroke:#1f77b4;" x="114.554889" xlink:href="#mf0ffa39e09" y="232.172529"/>
     <use style="fill:#1f77b4;stroke:#1f77b4;" x="114.557149" xlink:href="#mf0ffa39e09" y="232.205449"/>
     <use style="fill:#1f77b4;stroke:#1f77b4;" x="114.559374" xlink:href="#mf0ffa39e09" y="232.239356"/>
     <use style="fill:#1f77b4;stroke:#1f77b4;" x="114.561546" xlink:href="#mf0ffa39e09" y="232.273378"/>
     <use style="fill:#1f77b4;stroke:#1f77b4;" x="114.563701" xlink:href="#mf0ffa39e09" y="232.308215"/>
     <use style="fill:#1f77b4;stroke:#1f77b4;" x="114.565898" xlink:href="#mf0ffa39e09" y="232.341387"/>
     <use style="fill:#1f77b4;stroke:#1f77b4;" x="114.568235" xlink:href="#mf0ffa39e09" y="232.372612"/>
     <use style="fill:#1f77b4;stroke:#1f77b4;" x="114.570628" xlink:href="#mf0ffa39e09" y="232.40479"/>
     <use style="fill:#1f77b4;stroke:#1f77b4;" x="114.572981" xlink:href="#mf0ffa39e09" y="232.436364"/>
     <use style="fill:#1f77b4;stroke:#1f77b4;" x="114.575343" xlink:href="#mf0ffa39e09" y="232.468413"/>
     <use style="fill:#1f77b4;stroke:#1f77b4;" x="114.577765" xlink:href="#mf0ffa39e09" y="232.498813"/>
     <use style="fill:#1f77b4;stroke:#1f77b4;" x="114.580189" xlink:href="#mf0ffa39e09" y="232.530929"/>
     <use style="fill:#1f77b4;stroke:#1f77b4;" x="114.582628" xlink:href="#mf0ffa39e09" y="232.563589"/>
     <use style="fill:#1f77b4;stroke:#1f77b4;" x="114.585024" xlink:href="#mf0ffa39e09" y="232.5958"/>
     <use style="fill:#1f77b4;stroke:#1f77b4;" x="114.587335" xlink:href="#mf0ffa39e09" y="232.628502"/>
     <use style="fill:#1f77b4;stroke:#1f77b4;" x="114.589728" xlink:href="#mf0ffa39e09" y="232.661189"/>
     <use style="fill:#1f77b4;stroke:#1f77b4;" x="114.592114" xlink:href="#mf0ffa39e09" y="232.693918"/>
     <use style="fill:#1f77b4;stroke:#1f77b4;" x="114.594465" xlink:href="#mf0ffa39e09" y="232.726989"/>
    </g>
   </g>
   <g id="patch_3">
    <path d="M 49.665988 277.111219 
L 49.665988 10.999219 
" style="fill:none;stroke:#000000;stroke-linecap:square;stroke-linejoin:miter;stroke-width:0.8;"/>
   </g>
   <g id="patch_4">
    <path d="M 406.785988 277.111219 
L 406.785988 10.999219 
" style="fill:none;stroke:#000000;stroke-linecap:square;stroke-linejoin:miter;stroke-width:0.8;"/>
   </g>
   <g id="patch_5">
    <path d="M 49.665988 277.111219 
L 406.785988 277.111219 
" style="fill:none;stroke:#000000;stroke-linecap:square;stroke-linejoin:miter;stroke-width:0.8;"/>
   </g>
   <g id="patch_6">
    <path d="M 49.665988 10.999219 
L 406.785988 10.999219 
" style="fill:none;stroke:#000000;stroke-linecap:square;stroke-linejoin:miter;stroke-width:0.8;"/>
   </g>
   <g id="text_16">
    <g clip-path="url(#pf48cebaa89)">
     <!-- 2.500 -->
     <g style="fill:#39558c;" transform="translate(128.654157 196.997979)rotate(-68.258119)scale(0.06 -0.06)">
      <defs>
       <path d="M 10.796875 72.90625 
L 49.515625 72.90625 
L 49.515625 64.59375 
L 19.828125 64.59375 
L 19.828125 46.734375 
Q 21.96875 47.46875 24.109375 47.828125 
Q 26.265625 48.1875 28.421875 48.1875 
Q 40.625 48.1875 47.75 41.5 
Q 54.890625 34.8125 54.890625 23.390625 
Q 54.890625 11.625 47.5625 5.09375 
Q 40.234375 -1.421875 26.90625 -1.421875 
Q 22.3125 -1.421875 17.546875 -0.640625 
Q 12.796875 0.140625 7.71875 1.703125 
L 7.71875 11.625 
Q 12.109375 9.234375 16.796875 8.0625 
Q 21.484375 6.890625 26.703125 6.890625 
Q 35.15625 6.890625 40.078125 11.328125 
Q 45.015625 15.765625 45.015625 23.390625 
Q 45.015625 31 40.078125 35.4375 
Q 35.15625 39.890625 26.703125 39.890625 
Q 22.75 39.890625 18.8125 39.015625 
Q 14.890625 38.140625 10.796875 36.28125 
z
" id="DejaVuSans-53"/>
      </defs>
      <use xlink:href="#DejaVuSans-50"/>
      <use x="63.623047" xlink:href="#DejaVuSans-46"/>
      <use x="95.410156" xlink:href="#DejaVuSans-53"/>
      <use x="159.033203" xlink:href="#DejaVuSans-48"/>
      <use x="222.65625" xlink:href="#DejaVuSans-48"/>
     </g>
    </g>
   </g>
   <g id="text_17">
    <g clip-path="url(#pf48cebaa89)">
     <!-- 2.500 -->
     <g style="fill:#39558c;" transform="translate(239.506436 91.301579)rotate(-275.232948)scale(0.06 -0.06)">
      <use xlink:href="#DejaVuSans-50"/>
      <use x="63.623047" xlink:href="#DejaVuSans-46"/>
      <use x="95.410156" xlink:href="#DejaVuSans-53"/>
      <use x="159.033203" xlink:href="#DejaVuSans-48"/>
      <use x="222.65625" xlink:href="#DejaVuSans-48"/>
     </g>
    </g>
   </g>
   <g id="text_18">
    <g clip-path="url(#pf48cebaa89)">
     <!-- 3.000 -->
     <g style="fill:#33638d;" transform="translate(104.107564 268.022335)rotate(-87.525247)scale(0.06 -0.06)">
      <use xlink:href="#DejaVuSans-51"/>
      <use x="63.623047" xlink:href="#DejaVuSans-46"/>
      <use x="95.410156" xlink:href="#DejaVuSans-48"/>
      <use x="159.033203" xlink:href="#DejaVuSans-48"/>
      <use x="222.65625" xlink:href="#DejaVuSans-48"/>
     </g>
    </g>
   </g>
   <g id="text_19">
    <g clip-path="url(#pf48cebaa89)">
     <!-- 3.000 -->
     <g style="fill:#33638d;" transform="translate(263.355493 100.355791)rotate(-279.1127)scale(0.06 -0.06)">
      <use xlink:href="#DejaVuSans-51"/>
      <use x="63.623047" xlink:href="#DejaVuSans-46"/>
      <use x="95.410156" xlink:href="#DejaVuSans-48"/>
      <use x="159.033203" xlink:href="#DejaVuSans-48"/>
      <use x="222.65625" xlink:href="#DejaVuSans-48"/>
     </g>
    </g>
   </g>
   <g id="text_20">
    <g clip-path="url(#pf48cebaa89)">
     <!-- 3.500 -->
     <g style="fill:#2d718e;" transform="translate(115.200137 196.329118)rotate(-54.008588)scale(0.06 -0.06)">
      <use xlink:href="#DejaVuSans-51"/>
      <use x="63.623047" xlink:href="#DejaVuSans-46"/>
      <use x="95.410156" xlink:href="#DejaVuSans-53"/>
      <use x="159.033203" xlink:href="#DejaVuSans-48"/>
      <use x="222.65625" xlink:href="#DejaVuSans-48"/>
     </g>
    </g>
   </g>
   <g id="text_21">
    <g clip-path="url(#pf48cebaa89)">
     <!-- 3.500 -->
     <g style="fill:#2d718e;" transform="translate(346.670935 268.587014)rotate(-272.035733)scale(0.06 -0.06)">
      <use xlink:href="#DejaVuSans-51"/>
      <use x="63.623047" xlink:href="#DejaVuSans-46"/>
      <use x="95.410156" xlink:href="#DejaVuSans-53"/>
      <use x="159.033203" xlink:href="#DejaVuSans-48"/>
      <use x="222.65625" xlink:href="#DejaVuSans-48"/>
     </g>
    </g>
   </g>
   <g id="text_22">
    <g clip-path="url(#pf48cebaa89)">
     <!-- 4.000 -->
     <g style="fill:#287d8e;" transform="translate(112.101816 196.291755)rotate(-53.437257)scale(0.06 -0.06)">
      <use xlink:href="#DejaVuSans-52"/>
      <use x="63.623047" xlink:href="#DejaVuSans-46"/>
      <use x="95.410156" xlink:href="#DejaVuSans-48"/>
      <use x="159.033203" xlink:href="#DejaVuSans-48"/>
      <use x="222.65625" xlink:href="#DejaVuSans-48"/>
     </g>
    </g>
   </g>
   <g id="text_23">
    <g clip-path="url(#pf48cebaa89)">
     <!-- 4.000 -->
     <g style="fill:#287d8e;" transform="translate(285.025925 101.444825)rotate(-294.497462)scale(0.06 -0.06)">
      <use xlink:href="#DejaVuSans-52"/>
      <use x="63.623047" xlink:href="#DejaVuSans-46"/>
      <use x="95.410156" xlink:href="#DejaVuSans-48"/>
      <use x="159.033203" xlink:href="#DejaVuSans-48"/>
      <use x="222.65625" xlink:href="#DejaVuSans-48"/>
     </g>
    </g>
   </g>
   <g id="text_24">
    <g clip-path="url(#pf48cebaa89)">
     <!-- 4.500 -->
     <g style="fill:#238a8d;" transform="translate(108.99074 196.247126)rotate(-52.770003)scale(0.06 -0.06)">
      <use xlink:href="#DejaVuSans-52"/>
      <use x="63.623047" xlink:href="#DejaVuSans-46"/>
      <use x="95.410156" xlink:href="#DejaVuSans-53"/>
      <use x="159.033203" xlink:href="#DejaVuSans-48"/>
      <use x="222.65625" xlink:href="#DejaVuSans-48"/>
     </g>
    </g>
   </g>
   <g id="text_25">
    <g clip-path="url(#pf48cebaa89)">
     <!-- 4.500 -->
     <g style="fill:#238a8d;" transform="translate(378.554895 259.865114)rotate(-275.8331)scale(0.06 -0.06)">
      <use xlink:href="#DejaVuSans-52"/>
      <use x="63.623047" xlink:href="#DejaVuSans-46"/>
      <use x="95.410156" xlink:href="#DejaVuSans-53"/>
      <use x="159.033203" xlink:href="#DejaVuSans-48"/>
      <use x="222.65625" xlink:href="#DejaVuSans-48"/>
     </g>
    </g>
   </g>
   <g id="text_26">
    <g clip-path="url(#pf48cebaa89)">
     <!-- 5.000 -->
     <g style="fill:#1f968b;" transform="translate(106.005636 196.264052)rotate(-53.021195)scale(0.06 -0.06)">
      <use xlink:href="#DejaVuSans-53"/>
      <use x="63.623047" xlink:href="#DejaVuSans-46"/>
      <use x="95.410156" xlink:href="#DejaVuSans-48"/>
      <use x="159.033203" xlink:href="#DejaVuSans-48"/>
      <use x="222.65625" xlink:href="#DejaVuSans-48"/>
     </g>
    </g>
   </g>
   <g id="text_27">
    <g clip-path="url(#pf48cebaa89)">
     <!-- 5.000 -->
     <g style="fill:#1f968b;" transform="translate(305.060732 86.060947)rotate(-307.023109)scale(0.06 -0.06)">
      <use xlink:href="#DejaVuSans-53"/>
      <use x="63.623047" xlink:href="#DejaVuSans-46"/>
      <use x="95.410156" xlink:href="#DejaVuSans-48"/>
      <use x="159.033203" xlink:href="#DejaVuSans-48"/>
      <use x="222.65625" xlink:href="#DejaVuSans-48"/>
     </g>
    </g>
   </g>
   <g id="text_28">
    <g clip-path="url(#pf48cebaa89)">
     <!-- 5.500 -->
     <g style="fill:#20a386;" transform="translate(105.160633 194.717409)rotate(-51.687336)scale(0.06 -0.06)">
      <use xlink:href="#DejaVuSans-53"/>
      <use x="63.623047" xlink:href="#DejaVuSans-46"/>
      <use x="95.410156" xlink:href="#DejaVuSans-53"/>
      <use x="159.033203" xlink:href="#DejaVuSans-48"/>
      <use x="222.65625" xlink:href="#DejaVuSans-48"/>
     </g>
    </g>
   </g>
   <g id="text_29">
    <g clip-path="url(#pf48cebaa89)">
     <!-- 5.500 -->
     <g style="fill:#20a386;" transform="translate(315.447682 82.816744)rotate(-325.411637)scale(0.06 -0.06)">
      <use xlink:href="#DejaVuSans-53"/>
      <use x="63.623047" xlink:href="#DejaVuSans-46"/>
      <use x="95.410156" xlink:href="#DejaVuSans-53"/>
      <use x="159.033203" xlink:href="#DejaVuSans-48"/>
      <use x="222.65625" xlink:href="#DejaVuSans-48"/>
     </g>
    </g>
   </g>
   <g id="text_30">
    <g clip-path="url(#pf48cebaa89)">
     <!-- 6.000 -->
     <g style="fill:#29af7f;" transform="translate(105.099993 192.821134)rotate(-51.238994)scale(0.06 -0.06)">
      <use xlink:href="#DejaVuSans-54"/>
      <use x="63.623047" xlink:href="#DejaVuSans-46"/>
      <use x="95.410156" xlink:href="#DejaVuSans-48"/>
      <use x="159.033203" xlink:href="#DejaVuSans-48"/>
      <use x="222.65625" xlink:href="#DejaVuSans-48"/>
     </g>
    </g>
   </g>
   <g id="text_31">
    <g clip-path="url(#pf48cebaa89)">
     <!-- 6.000 -->
     <g style="fill:#29af7f;" transform="translate(396.607919 242.244151)rotate(-278.3718)scale(0.06 -0.06)">
      <use xlink:href="#DejaVuSans-54"/>
      <use x="63.623047" xlink:href="#DejaVuSans-46"/>
      <use x="95.410156" xlink:href="#DejaVuSans-48"/>
      <use x="159.033203" xlink:href="#DejaVuSans-48"/>
      <use x="222.65625" xlink:href="#DejaVuSans-48"/>
     </g>
    </g>
   </g>
   <g id="text_32">
    <g clip-path="url(#pf48cebaa89)">
     <!-- 6.500 -->
     <g style="fill:#3dbc74;" transform="translate(105.101522 190.957402)rotate(-51.250316)scale(0.06 -0.06)">
      <use xlink:href="#DejaVuSans-54"/>
      <use x="63.623047" xlink:href="#DejaVuSans-46"/>
      <use x="95.410156" xlink:href="#DejaVuSans-53"/>
      <use x="159.033203" xlink:href="#DejaVuSans-48"/>
      <use x="222.65625" xlink:href="#DejaVuSans-48"/>
     </g>
    </g>
   </g>
   <g id="text_33">
    <g clip-path="url(#pf48cebaa89)">
     <!-- 6.500 -->
     <g style="fill:#3dbc74;" transform="translate(330.580331 71.443159)rotate(-338.22258)scale(0.06 -0.06)">
      <use xlink:href="#DejaVuSans-54"/>
      <use x="63.623047" xlink:href="#DejaVuSans-46"/>
      <use x="95.410156" xlink:href="#DejaVuSans-53"/>
      <use x="159.033203" xlink:href="#DejaVuSans-48"/>
      <use x="222.65625" xlink:href="#DejaVuSans-48"/>
     </g>
    </g>
   </g>
   <g id="text_34">
    <g clip-path="url(#pf48cebaa89)">
     <!-- 7.000 -->
     <g style="fill:#56c667;" transform="translate(105.067905 189.075017)rotate(-51.000994)scale(0.06 -0.06)">
      <defs>
       <path d="M 8.203125 72.90625 
L 55.078125 72.90625 
L 55.078125 68.703125 
L 28.609375 0 
L 18.3125 0 
L 43.21875 64.59375 
L 8.203125 64.59375 
z
" id="DejaVuSans-55"/>
      </defs>
      <use xlink:href="#DejaVuSans-55"/>
      <use x="63.623047" xlink:href="#DejaVuSans-46"/>
      <use x="95.410156" xlink:href="#DejaVuSans-48"/>
      <use x="159.033203" xlink:href="#DejaVuSans-48"/>
      <use x="222.65625" xlink:href="#DejaVuSans-48"/>
     </g>
    </g>
   </g>
   <g id="text_35">
    <g clip-path="url(#pf48cebaa89)">
     <!-- 7.000 -->
     <g style="fill:#56c667;" transform="translate(279.09965 3.659914)rotate(-292.042745)scale(0.06 -0.06)">
      <use xlink:href="#DejaVuSans-55"/>
      <use x="63.623047" xlink:href="#DejaVuSans-46"/>
      <use x="95.410156" xlink:href="#DejaVuSans-48"/>
      <use x="159.033203" xlink:href="#DejaVuSans-48"/>
      <use x="222.65625" xlink:href="#DejaVuSans-48"/>
     </g>
    </g>
   </g>
   <g id="text_36">
    <g clip-path="url(#pf48cebaa89)">
     <!-- 7.500 -->
     <g style="fill:#75d054;" transform="translate(146.409886 18.732006)rotate(-51.229017)scale(0.06 -0.06)">
      <use xlink:href="#DejaVuSans-55"/>
      <use x="63.623047" xlink:href="#DejaVuSans-46"/>
      <use x="95.410156" xlink:href="#DejaVuSans-53"/>
      <use x="159.033203" xlink:href="#DejaVuSans-48"/>
      <use x="222.65625" xlink:href="#DejaVuSans-48"/>
     </g>
    </g>
   </g>
   <g id="text_37">
    <g clip-path="url(#pf48cebaa89)">
     <!-- 7.500 -->
     <g style="fill:#75d054;" transform="translate(339.941157 61.355489)rotate(-329.960317)scale(0.06 -0.06)">
      <use xlink:href="#DejaVuSans-55"/>
      <use x="63.623047" xlink:href="#DejaVuSans-46"/>
      <use x="95.410156" xlink:href="#DejaVuSans-53"/>
      <use x="159.033203" xlink:href="#DejaVuSans-48"/>
      <use x="222.65625" xlink:href="#DejaVuSans-48"/>
     </g>
    </g>
   </g>
   <g id="text_38">
    <g clip-path="url(#pf48cebaa89)">
     <!-- 8.000 -->
     <g style="fill:#95d840;" transform="translate(92.977623 200.169367)rotate(-49.60866)scale(0.06 -0.06)">
      <use xlink:href="#DejaVuSans-56"/>
      <use x="63.623047" xlink:href="#DejaVuSans-46"/>
      <use x="95.410156" xlink:href="#DejaVuSans-48"/>
      <use x="159.033203" xlink:href="#DejaVuSans-48"/>
      <use x="222.65625" xlink:href="#DejaVuSans-48"/>
     </g>
    </g>
   </g>
   <g id="text_39">
    <g clip-path="url(#pf48cebaa89)">
     <!-- 8.000 -->
     <g style="fill:#95d840;" transform="translate(291.33185 31.704004)rotate(-306.612508)scale(0.06 -0.06)">
      <use xlink:href="#DejaVuSans-56"/>
      <use x="63.623047" xlink:href="#DejaVuSans-46"/>
      <use x="95.410156" xlink:href="#DejaVuSans-48"/>
      <use x="159.033203" xlink:href="#DejaVuSans-48"/>
      <use x="222.65625" xlink:href="#DejaVuSans-48"/>
     </g>
    </g>
   </g>
   <g id="text_40">
    <g clip-path="url(#pf48cebaa89)">
     <!-- 8.500 -->
     <g style="fill:#bade28;" transform="translate(92.614267 198.06398)rotate(-46.83541)scale(0.06 -0.06)">
      <use xlink:href="#DejaVuSans-56"/>
      <use x="63.623047" xlink:href="#DejaVuSans-46"/>
      <use x="95.410156" xlink:href="#DejaVuSans-53"/>
      <use x="159.033203" xlink:href="#DejaVuSans-48"/>
      <use x="222.65625" xlink:href="#DejaVuSans-48"/>
     </g>
    </g>
   </g>
   <g id="text_41">
    <g clip-path="url(#pf48cebaa89)">
     <!-- 8.500 -->
     <g style="fill:#bade28;" transform="translate(352.337744 57.66716)rotate(-310.453309)scale(0.06 -0.06)">
      <use xlink:href="#DejaVuSans-56"/>
      <use x="63.623047" xlink:href="#DejaVuSans-46"/>
      <use x="95.410156" xlink:href="#DejaVuSans-53"/>
      <use x="159.033203" xlink:href="#DejaVuSans-48"/>
      <use x="222.65625" xlink:href="#DejaVuSans-48"/>
     </g>
    </g>
   </g>
   <g id="text_42">
    <g clip-path="url(#pf48cebaa89)">
     <!-- 9.000 -->
     <g style="fill:#dde318;" transform="translate(82.901905 268.674279)rotate(-274.379344)scale(0.06 -0.06)">
      <defs>
       <path d="M 10.984375 1.515625 
L 10.984375 10.5 
Q 14.703125 8.734375 18.5 7.8125 
Q 22.3125 6.890625 25.984375 6.890625 
Q 35.75 6.890625 40.890625 13.453125 
Q 46.046875 20.015625 46.78125 33.40625 
Q 43.953125 29.203125 39.59375 26.953125 
Q 35.25 24.703125 29.984375 24.703125 
Q 19.046875 24.703125 12.671875 31.3125 
Q 6.296875 37.9375 6.296875 49.421875 
Q 6.296875 60.640625 12.9375 67.421875 
Q 19.578125 74.21875 30.609375 74.21875 
Q 43.265625 74.21875 49.921875 64.515625 
Q 56.59375 54.828125 56.59375 36.375 
Q 56.59375 19.140625 48.40625 8.859375 
Q 40.234375 -1.421875 26.421875 -1.421875 
Q 22.703125 -1.421875 18.890625 -0.6875 
Q 15.09375 0.046875 10.984375 1.515625 
z
M 30.609375 32.421875 
Q 37.25 32.421875 41.125 36.953125 
Q 45.015625 41.5 45.015625 49.421875 
Q 45.015625 57.28125 41.125 61.84375 
Q 37.25 66.40625 30.609375 66.40625 
Q 23.96875 66.40625 20.09375 61.84375 
Q 16.21875 57.28125 16.21875 49.421875 
Q 16.21875 41.5 20.09375 36.953125 
Q 23.96875 32.421875 30.609375 32.421875 
z
" id="DejaVuSans-57"/>
      </defs>
      <use xlink:href="#DejaVuSans-57"/>
      <use x="63.623047" xlink:href="#DejaVuSans-46"/>
      <use x="95.410156" xlink:href="#DejaVuSans-48"/>
      <use x="159.033203" xlink:href="#DejaVuSans-48"/>
      <use x="222.65625" xlink:href="#DejaVuSans-48"/>
     </g>
    </g>
   </g>
   <g id="text_43">
    <g clip-path="url(#pf48cebaa89)">
     <!-- 9.000 -->
     <g style="fill:#dde318;" transform="translate(314.71776 50.006695)rotate(-351.269531)scale(0.06 -0.06)">
      <use xlink:href="#DejaVuSans-57"/>
      <use x="63.623047" xlink:href="#DejaVuSans-46"/>
      <use x="95.410156" xlink:href="#DejaVuSans-48"/>
      <use x="159.033203" xlink:href="#DejaVuSans-48"/>
      <use x="222.65625" xlink:href="#DejaVuSans-48"/>
     </g>
    </g>
   </g>
   <g id="text_44">
    <g clip-path="url(#pf48cebaa89)">
     <!-- 9.500 -->
     <g style="fill:#fde725;" transform="translate(92.247943 194.59985)rotate(-43.950882)scale(0.06 -0.06)">
      <use xlink:href="#DejaVuSans-57"/>
      <use x="63.623047" xlink:href="#DejaVuSans-46"/>
      <use x="95.410156" xlink:href="#DejaVuSans-53"/>
      <use x="159.033203" xlink:href="#DejaVuSans-48"/>
      <use x="222.65625" xlink:href="#DejaVuSans-48"/>
     </g>
    </g>
   </g>
   <g id="text_45">
    <g clip-path="url(#pf48cebaa89)">
     <!-- 9.500 -->
     <g style="fill:#fde725;" transform="translate(359.496309 57.579573)rotate(-299.678334)scale(0.06 -0.06)">
      <use xlink:href="#DejaVuSans-57"/>
      <use x="63.623047" xlink:href="#DejaVuSans-46"/>
      <use x="95.410156" xlink:href="#DejaVuSans-53"/>
      <use x="159.033203" xlink:href="#DejaVuSans-48"/>
      <use x="222.65625" xlink:href="#DejaVuSans-48"/>
     </g>
    </g>
   </g>
   <g id="text_46">
    <g clip-path="url(#pf48cebaa89)">
     <!-- 10.000 -->
     <g style="fill:#440154;" transform="translate(103.617975 182.810597)rotate(-49.439365)scale(0.06 -0.06)">
      <use xlink:href="#DejaVuSans-49"/>
      <use x="63.623047" xlink:href="#DejaVuSans-48"/>
      <use x="127.246094" xlink:href="#DejaVuSans-46"/>
      <use x="159.033203" xlink:href="#DejaVuSans-48"/>
      <use x="222.65625" xlink:href="#DejaVuSans-48"/>
      <use x="286.279297" xlink:href="#DejaVuSans-48"/>
     </g>
    </g>
   </g>
   <g id="text_47">
    <g clip-path="url(#pf48cebaa89)">
     <!-- 10.000 -->
     <g style="fill:#440154;" transform="translate(366.518734 64.21146)rotate(-294.352056)scale(0.06 -0.06)">
      <use xlink:href="#DejaVuSans-49"/>
      <use x="63.623047" xlink:href="#DejaVuSans-48"/>
      <use x="127.246094" xlink:href="#DejaVuSans-46"/>
      <use x="159.033203" xlink:href="#DejaVuSans-48"/>
      <use x="222.65625" xlink:href="#DejaVuSans-48"/>
      <use x="286.279297" xlink:href="#DejaVuSans-48"/>
     </g>
    </g>
   </g>
   <g id="text_48">
    <g clip-path="url(#pf48cebaa89)">
     <!-- 100.000 -->
     <g style="fill:#440154;" transform="translate(115.566697 111.95272)rotate(-70.55544)scale(0.06 -0.06)">
      <use xlink:href="#DejaVuSans-49"/>
      <use x="63.623047" xlink:href="#DejaVuSans-48"/>
      <use x="127.246094" xlink:href="#DejaVuSans-48"/>
      <use x="190.869141" xlink:href="#DejaVuSans-46"/>
      <use x="222.65625" xlink:href="#DejaVuSans-48"/>
      <use x="286.279297" xlink:href="#DejaVuSans-48"/>
      <use x="349.902344" xlink:href="#DejaVuSans-48"/>
     </g>
    </g>
   </g>
   <g id="text_49">
    <g clip-path="url(#pf48cebaa89)">
     <!-- 1000.000 -->
     <g style="fill:#440154;" transform="translate(89.305154 83.023927)rotate(-49.791082)scale(0.06 -0.06)">
      <use xlink:href="#DejaVuSans-49"/>
      <use x="63.623047" xlink:href="#DejaVuSans-48"/>
      <use x="127.246094" xlink:href="#DejaVuSans-48"/>
      <use x="190.869141" xlink:href="#DejaVuSans-48"/>
      <use x="254.492188" xlink:href="#DejaVuSans-46"/>
      <use x="286.279297" xlink:href="#DejaVuSans-48"/>
      <use x="349.902344" xlink:href="#DejaVuSans-48"/>
      <use x="413.525391" xlink:href="#DejaVuSans-48"/>
     </g>
    </g>
   </g>
   <g id="text_50">
    <g clip-path="url(#pf48cebaa89)">
     <!-- 10000.000 -->
     <g style="fill:#440154;" transform="translate(78.148177 77.655291)rotate(-57.856051)scale(0.06 -0.06)">
      <use xlink:href="#DejaVuSans-49"/>
      <use x="63.623047" xlink:href="#DejaVuSans-48"/>
      <use x="127.246094" xlink:href="#DejaVuSans-48"/>
      <use x="190.869141" xlink:href="#DejaVuSans-48"/>
      <use x="254.492188" xlink:href="#DejaVuSans-48"/>
      <use x="318.115234" xlink:href="#DejaVuSans-46"/>
      <use x="349.902344" xlink:href="#DejaVuSans-48"/>
      <use x="413.525391" xlink:href="#DejaVuSans-48"/>
      <use x="477.148438" xlink:href="#DejaVuSans-48"/>
     </g>
    </g>
   </g>
   <g id="text_51">
    <g clip-path="url(#pf48cebaa89)">
     <!-- 100000.000 -->
     <g style="fill:#440154;" transform="translate(66.625191 71.995249)rotate(-60.864576)scale(0.06 -0.06)">
      <use xlink:href="#DejaVuSans-49"/>
      <use x="63.623047" xlink:href="#DejaVuSans-48"/>
      <use x="127.246094" xlink:href="#DejaVuSans-48"/>
      <use x="190.869141" xlink:href="#DejaVuSans-48"/>
      <use x="254.492188" xlink:href="#DejaVuSans-48"/>
      <use x="318.115234" xlink:href="#DejaVuSans-48"/>
      <use x="381.738281" xlink:href="#DejaVuSans-46"/>
      <use x="413.525391" xlink:href="#DejaVuSans-48"/>
      <use x="477.148438" xlink:href="#DejaVuSans-48"/>
      <use x="540.771484" xlink:href="#DejaVuSans-48"/>
     </g>
    </g>
   </g>
   <g id="text_52">
    <g clip-path="url(#pf48cebaa89)">
     <!-- 1000000.000 -->
     <g style="fill:#450457;" transform="translate(55.343677 56.449665)rotate(-64.805968)scale(0.06 -0.06)">
      <use xlink:href="#DejaVuSans-49"/>
      <use x="63.623047" xlink:href="#DejaVuSans-48"/>
      <use x="127.246094" xlink:href="#DejaVuSans-48"/>
      <use x="190.869141" xlink:href="#DejaVuSans-48"/>
      <use x="254.492188" xlink:href="#DejaVuSans-48"/>
      <use x="318.115234" xlink:href="#DejaVuSans-48"/>
      <use x="381.738281" xlink:href="#DejaVuSans-48"/>
      <use x="445.361328" xlink:href="#DejaVuSans-46"/>
      <use x="477.148438" xlink:href="#DejaVuSans-48"/>
      <use x="540.771484" xlink:href="#DejaVuSans-48"/>
      <use x="604.394531" xlink:href="#DejaVuSans-48"/>
     </g>
    </g>
   </g>
  </g>
 </g>
 <defs>
  <clipPath id="pf48cebaa89">
   <rect height="266.112" width="357.12" x="49.665988" y="10.999219"/>
  </clipPath>
 </defs>
</svg>
