<?xml version="1.0" encoding="utf-8" standalone="no"?>
<!DOCTYPE svg PUBLIC "-//W3C//DTD SVG 1.1//EN"
  "http://www.w3.org/Graphics/SVG/1.1/DTD/svg11.dtd">
<!-- Created with matplotlib (https://matplotlib.org/) -->
<svg height="317.913925pt" version="1.1" viewBox="0 0 426.710987 317.913925" width="426.710987pt" xmlns="http://www.w3.org/2000/svg" xmlns:xlink="http://www.w3.org/1999/xlink">
 <metadata>
  <rdf:RDF xmlns:cc="http://creativecommons.org/ns#" xmlns:dc="http://purl.org/dc/elements/1.1/" xmlns:rdf="http://www.w3.org/1999/02/22-rdf-syntax-ns#">
   <cc:Work>
    <dc:type rdf:resource="http://purl.org/dc/dcmitype/StillImage"/>
    <dc:date>2021-09-17T13:42:33.028540</dc:date>
    <dc:format>image/svg+xml</dc:format>
    <dc:creator>
     <cc:Agent>
      <dc:title>Matplotlib v3.3.1, https://matplotlib.org/</dc:title>
     </cc:Agent>
    </dc:creator>
   </cc:Work>
  </rdf:RDF>
 </metadata>
 <defs>
  <style type="text/css">*{stroke-linecap:butt;stroke-linejoin:round;}</style>
 </defs>
 <g id="figure_1">
  <g id="patch_1">
   <path d="M 0 317.913925 
L 426.710987 317.913925 
L 426.710987 0 
L 0 0 
z
" style="fill:#ffffff;"/>
  </g>
  <g id="axes_1">
   <g id="patch_2">
    <path d="M 56.028488 273.312 
L 413.148488 273.312 
L 413.148488 7.2 
L 56.028488 7.2 
z
" style="fill:#ffffff;"/>
   </g>
   <g id="matplotlib.axis_1">
    <g id="xtick_1">
     <g id="line2d_1">
      <defs>
       <path d="M 0 0 
L 0 3.5 
" id="m099e5ceb98" style="stroke:#000000;stroke-width:0.8;"/>
      </defs>
      <g>
       <use style="stroke:#000000;stroke-width:0.8;" x="56.028488" xlink:href="#m099e5ceb98" y="273.312"/>
      </g>
     </g>
     <g id="text_1">
      <!-- −20 -->
      <g transform="translate(45.476144 287.910437)scale(0.1 -0.1)">
       <defs>
        <path d="M 10.59375 35.5 
L 73.1875 35.5 
L 73.1875 27.203125 
L 10.59375 27.203125 
z
" id="DejaVuSans-8722"/>
        <path d="M 19.1875 8.296875 
L 53.609375 8.296875 
L 53.609375 0 
L 7.328125 0 
L 7.328125 8.296875 
Q 12.9375 14.109375 22.625 23.890625 
Q 32.328125 33.6875 34.8125 36.53125 
Q 39.546875 41.84375 41.421875 45.53125 
Q 43.3125 49.21875 43.3125 52.78125 
Q 43.3125 58.59375 39.234375 62.25 
Q 35.15625 65.921875 28.609375 65.921875 
Q 23.96875 65.921875 18.8125 64.3125 
Q 13.671875 62.703125 7.8125 59.421875 
L 7.8125 69.390625 
Q 13.765625 71.78125 18.9375 73 
Q 24.125 74.21875 28.421875 74.21875 
Q 39.75 74.21875 46.484375 68.546875 
Q 53.21875 62.890625 53.21875 53.421875 
Q 53.21875 48.921875 51.53125 44.890625 
Q 49.859375 40.875 45.40625 35.40625 
Q 44.1875 33.984375 37.640625 27.21875 
Q 31.109375 20.453125 19.1875 8.296875 
z
" id="DejaVuSans-50"/>
        <path d="M 31.78125 66.40625 
Q 24.171875 66.40625 20.328125 58.90625 
Q 16.5 51.421875 16.5 36.375 
Q 16.5 21.390625 20.328125 13.890625 
Q 24.171875 6.390625 31.78125 6.390625 
Q 39.453125 6.390625 43.28125 13.890625 
Q 47.125 21.390625 47.125 36.375 
Q 47.125 51.421875 43.28125 58.90625 
Q 39.453125 66.40625 31.78125 66.40625 
z
M 31.78125 74.21875 
Q 44.046875 74.21875 50.515625 64.515625 
Q 56.984375 54.828125 56.984375 36.375 
Q 56.984375 17.96875 50.515625 8.265625 
Q 44.046875 -1.421875 31.78125 -1.421875 
Q 19.53125 -1.421875 13.0625 8.265625 
Q 6.59375 17.96875 6.59375 36.375 
Q 6.59375 54.828125 13.0625 64.515625 
Q 19.53125 74.21875 31.78125 74.21875 
z
" id="DejaVuSans-48"/>
       </defs>
       <use xlink:href="#DejaVuSans-8722"/>
       <use x="83.789062" xlink:href="#DejaVuSans-50"/>
       <use x="147.412109" xlink:href="#DejaVuSans-48"/>
      </g>
     </g>
    </g>
    <g id="xtick_2">
     <g id="line2d_2">
      <g>
       <use style="stroke:#000000;stroke-width:0.8;" x="95.708488" xlink:href="#m099e5ceb98" y="273.312"/>
      </g>
     </g>
     <g id="text_2">
      <!-- −10 -->
      <g transform="translate(85.156144 287.910437)scale(0.1 -0.1)">
       <defs>
        <path d="M 12.40625 8.296875 
L 28.515625 8.296875 
L 28.515625 63.921875 
L 10.984375 60.40625 
L 10.984375 69.390625 
L 28.421875 72.90625 
L 38.28125 72.90625 
L 38.28125 8.296875 
L 54.390625 8.296875 
L 54.390625 0 
L 12.40625 0 
z
" id="DejaVuSans-49"/>
       </defs>
       <use xlink:href="#DejaVuSans-8722"/>
       <use x="83.789062" xlink:href="#DejaVuSans-49"/>
       <use x="147.412109" xlink:href="#DejaVuSans-48"/>
      </g>
     </g>
    </g>
    <g id="xtick_3">
     <g id="line2d_3">
      <g>
       <use style="stroke:#000000;stroke-width:0.8;" x="135.388488" xlink:href="#m099e5ceb98" y="273.312"/>
      </g>
     </g>
     <g id="text_3">
      <!-- 0 -->
      <g transform="translate(132.207238 287.910437)scale(0.1 -0.1)">
       <use xlink:href="#DejaVuSans-48"/>
      </g>
     </g>
    </g>
    <g id="xtick_4">
     <g id="line2d_4">
      <g>
       <use style="stroke:#000000;stroke-width:0.8;" x="175.068488" xlink:href="#m099e5ceb98" y="273.312"/>
      </g>
     </g>
     <g id="text_4">
      <!-- 10 -->
      <g transform="translate(168.705988 287.910437)scale(0.1 -0.1)">
       <use xlink:href="#DejaVuSans-49"/>
       <use x="63.623047" xlink:href="#DejaVuSans-48"/>
      </g>
     </g>
    </g>
    <g id="xtick_5">
     <g id="line2d_5">
      <g>
       <use style="stroke:#000000;stroke-width:0.8;" x="214.748488" xlink:href="#m099e5ceb98" y="273.312"/>
      </g>
     </g>
     <g id="text_5">
      <!-- 20 -->
      <g transform="translate(208.385988 287.910437)scale(0.1 -0.1)">
       <use xlink:href="#DejaVuSans-50"/>
       <use x="63.623047" xlink:href="#DejaVuSans-48"/>
      </g>
     </g>
    </g>
    <g id="xtick_6">
     <g id="line2d_6">
      <g>
       <use style="stroke:#000000;stroke-width:0.8;" x="254.428488" xlink:href="#m099e5ceb98" y="273.312"/>
      </g>
     </g>
     <g id="text_6">
      <!-- 30 -->
      <g transform="translate(248.065988 287.910437)scale(0.1 -0.1)">
       <defs>
        <path d="M 40.578125 39.3125 
Q 47.65625 37.796875 51.625 33 
Q 55.609375 28.21875 55.609375 21.1875 
Q 55.609375 10.40625 48.1875 4.484375 
Q 40.765625 -1.421875 27.09375 -1.421875 
Q 22.515625 -1.421875 17.65625 -0.515625 
Q 12.796875 0.390625 7.625 2.203125 
L 7.625 11.71875 
Q 11.71875 9.328125 16.59375 8.109375 
Q 21.484375 6.890625 26.8125 6.890625 
Q 36.078125 6.890625 40.9375 10.546875 
Q 45.796875 14.203125 45.796875 21.1875 
Q 45.796875 27.640625 41.28125 31.265625 
Q 36.765625 34.90625 28.71875 34.90625 
L 20.21875 34.90625 
L 20.21875 43.015625 
L 29.109375 43.015625 
Q 36.375 43.015625 40.234375 45.921875 
Q 44.09375 48.828125 44.09375 54.296875 
Q 44.09375 59.90625 40.109375 62.90625 
Q 36.140625 65.921875 28.71875 65.921875 
Q 24.65625 65.921875 20.015625 65.03125 
Q 15.375 64.15625 9.8125 62.3125 
L 9.8125 71.09375 
Q 15.4375 72.65625 20.34375 73.4375 
Q 25.25 74.21875 29.59375 74.21875 
Q 40.828125 74.21875 47.359375 69.109375 
Q 53.90625 64.015625 53.90625 55.328125 
Q 53.90625 49.265625 50.4375 45.09375 
Q 46.96875 40.921875 40.578125 39.3125 
z
" id="DejaVuSans-51"/>
       </defs>
       <use xlink:href="#DejaVuSans-51"/>
       <use x="63.623047" xlink:href="#DejaVuSans-48"/>
      </g>
     </g>
    </g>
    <g id="xtick_7">
     <g id="line2d_7">
      <g>
       <use style="stroke:#000000;stroke-width:0.8;" x="294.108488" xlink:href="#m099e5ceb98" y="273.312"/>
      </g>
     </g>
     <g id="text_7">
      <!-- 40 -->
      <g transform="translate(287.745988 287.910437)scale(0.1 -0.1)">
       <defs>
        <path d="M 37.796875 64.3125 
L 12.890625 25.390625 
L 37.796875 25.390625 
z
M 35.203125 72.90625 
L 47.609375 72.90625 
L 47.609375 25.390625 
L 58.015625 25.390625 
L 58.015625 17.1875 
L 47.609375 17.1875 
L 47.609375 0 
L 37.796875 0 
L 37.796875 17.1875 
L 4.890625 17.1875 
L 4.890625 26.703125 
z
" id="DejaVuSans-52"/>
       </defs>
       <use xlink:href="#DejaVuSans-52"/>
       <use x="63.623047" xlink:href="#DejaVuSans-48"/>
      </g>
     </g>
    </g>
    <g id="xtick_8">
     <g id="line2d_8">
      <g>
       <use style="stroke:#000000;stroke-width:0.8;" x="333.788488" xlink:href="#m099e5ceb98" y="273.312"/>
      </g>
     </g>
     <g id="text_8">
      <!-- 50 -->
      <g transform="translate(327.425988 287.910437)scale(0.1 -0.1)">
       <defs>
        <path d="M 10.796875 72.90625 
L 49.515625 72.90625 
L 49.515625 64.59375 
L 19.828125 64.59375 
L 19.828125 46.734375 
Q 21.96875 47.46875 24.109375 47.828125 
Q 26.265625 48.1875 28.421875 48.1875 
Q 40.625 48.1875 47.75 41.5 
Q 54.890625 34.8125 54.890625 23.390625 
Q 54.890625 11.625 47.5625 5.09375 
Q 40.234375 -1.421875 26.90625 -1.421875 
Q 22.3125 -1.421875 17.546875 -0.640625 
Q 12.796875 0.140625 7.71875 1.703125 
L 7.71875 11.625 
Q 12.109375 9.234375 16.796875 8.0625 
Q 21.484375 6.890625 26.703125 6.890625 
Q 35.15625 6.890625 40.078125 11.328125 
Q 45.015625 15.765625 45.015625 23.390625 
Q 45.015625 31 40.078125 35.4375 
Q 35.15625 39.890625 26.703125 39.890625 
Q 22.75 39.890625 18.8125 39.015625 
Q 14.890625 38.140625 10.796875 36.28125 
z
" id="DejaVuSans-53"/>
       </defs>
       <use xlink:href="#DejaVuSans-53"/>
       <use x="63.623047" xlink:href="#DejaVuSans-48"/>
      </g>
     </g>
    </g>
    <g id="xtick_9">
     <g id="line2d_9">
      <g>
       <use style="stroke:#000000;stroke-width:0.8;" x="373.468488" xlink:href="#m099e5ceb98" y="273.312"/>
      </g>
     </g>
     <g id="text_9">
      <!-- 60 -->
      <g transform="translate(367.105988 287.910437)scale(0.1 -0.1)">
       <defs>
        <path d="M 33.015625 40.375 
Q 26.375 40.375 22.484375 35.828125 
Q 18.609375 31.296875 18.609375 23.390625 
Q 18.609375 15.53125 22.484375 10.953125 
Q 26.375 6.390625 33.015625 6.390625 
Q 39.65625 6.390625 43.53125 10.953125 
Q 47.40625 15.53125 47.40625 23.390625 
Q 47.40625 31.296875 43.53125 35.828125 
Q 39.65625 40.375 33.015625 40.375 
z
M 52.59375 71.296875 
L 52.59375 62.3125 
Q 48.875 64.0625 45.09375 64.984375 
Q 41.3125 65.921875 37.59375 65.921875 
Q 27.828125 65.921875 22.671875 59.328125 
Q 17.53125 52.734375 16.796875 39.40625 
Q 19.671875 43.65625 24.015625 45.921875 
Q 28.375 48.1875 33.59375 48.1875 
Q 44.578125 48.1875 50.953125 41.515625 
Q 57.328125 34.859375 57.328125 23.390625 
Q 57.328125 12.15625 50.6875 5.359375 
Q 44.046875 -1.421875 33.015625 -1.421875 
Q 20.359375 -1.421875 13.671875 8.265625 
Q 6.984375 17.96875 6.984375 36.375 
Q 6.984375 53.65625 15.1875 63.9375 
Q 23.390625 74.21875 37.203125 74.21875 
Q 40.921875 74.21875 44.703125 73.484375 
Q 48.484375 72.75 52.59375 71.296875 
z
" id="DejaVuSans-54"/>
       </defs>
       <use xlink:href="#DejaVuSans-54"/>
       <use x="63.623047" xlink:href="#DejaVuSans-48"/>
      </g>
     </g>
    </g>
    <g id="xtick_10">
     <g id="line2d_10">
      <g>
       <use style="stroke:#000000;stroke-width:0.8;" x="413.148488" xlink:href="#m099e5ceb98" y="273.312"/>
      </g>
     </g>
     <g id="text_10">
      <!-- 70 -->
      <g transform="translate(406.785988 287.910437)scale(0.1 -0.1)">
       <defs>
        <path d="M 8.203125 72.90625 
L 55.078125 72.90625 
L 55.078125 68.703125 
L 28.609375 0 
L 18.3125 0 
L 43.21875 64.59375 
L 8.203125 64.59375 
z
" id="DejaVuSans-55"/>
       </defs>
       <use xlink:href="#DejaVuSans-55"/>
       <use x="63.623047" xlink:href="#DejaVuSans-48"/>
      </g>
     </g>
    </g>
    <g id="text_11">
     <!-- 1st PC: 98.74 % -->
     <g transform="translate(165.868088 307.120225)scale(0.1728 -0.1728)">
      <defs>
       <path d="M 44.28125 53.078125 
L 44.28125 44.578125 
Q 40.484375 46.53125 36.375 47.5 
Q 32.28125 48.484375 27.875 48.484375 
Q 21.1875 48.484375 17.84375 46.4375 
Q 14.5 44.390625 14.5 40.28125 
Q 14.5 37.15625 16.890625 35.375 
Q 19.28125 33.59375 26.515625 31.984375 
L 29.59375 31.296875 
Q 39.15625 29.25 43.1875 25.515625 
Q 47.21875 21.78125 47.21875 15.09375 
Q 47.21875 7.46875 41.1875 3.015625 
Q 35.15625 -1.421875 24.609375 -1.421875 
Q 20.21875 -1.421875 15.453125 -0.5625 
Q 10.6875 0.296875 5.421875 2 
L 5.421875 11.28125 
Q 10.40625 8.6875 15.234375 7.390625 
Q 20.0625 6.109375 24.8125 6.109375 
Q 31.15625 6.109375 34.5625 8.28125 
Q 37.984375 10.453125 37.984375 14.40625 
Q 37.984375 18.0625 35.515625 20.015625 
Q 33.0625 21.96875 24.703125 23.78125 
L 21.578125 24.515625 
Q 13.234375 26.265625 9.515625 29.90625 
Q 5.8125 33.546875 5.8125 39.890625 
Q 5.8125 47.609375 11.28125 51.796875 
Q 16.75 56 26.8125 56 
Q 31.78125 56 36.171875 55.265625 
Q 40.578125 54.546875 44.28125 53.078125 
z
" id="DejaVuSans-115"/>
       <path d="M 18.3125 70.21875 
L 18.3125 54.6875 
L 36.8125 54.6875 
L 36.8125 47.703125 
L 18.3125 47.703125 
L 18.3125 18.015625 
Q 18.3125 11.328125 20.140625 9.421875 
Q 21.96875 7.515625 27.59375 7.515625 
L 36.8125 7.515625 
L 36.8125 0 
L 27.59375 0 
Q 17.1875 0 13.234375 3.875 
Q 9.28125 7.765625 9.28125 18.015625 
L 9.28125 47.703125 
L 2.6875 47.703125 
L 2.6875 54.6875 
L 9.28125 54.6875 
L 9.28125 70.21875 
z
" id="DejaVuSans-116"/>
       <path id="DejaVuSans-32"/>
       <path d="M 19.671875 64.796875 
L 19.671875 37.40625 
L 32.078125 37.40625 
Q 38.96875 37.40625 42.71875 40.96875 
Q 46.484375 44.53125 46.484375 51.125 
Q 46.484375 57.671875 42.71875 61.234375 
Q 38.96875 64.796875 32.078125 64.796875 
z
M 9.8125 72.90625 
L 32.078125 72.90625 
Q 44.34375 72.90625 50.609375 67.359375 
Q 56.890625 61.8125 56.890625 51.125 
Q 56.890625 40.328125 50.609375 34.8125 
Q 44.34375 29.296875 32.078125 29.296875 
L 19.671875 29.296875 
L 19.671875 0 
L 9.8125 0 
z
" id="DejaVuSans-80"/>
       <path d="M 64.40625 67.28125 
L 64.40625 56.890625 
Q 59.421875 61.53125 53.78125 63.8125 
Q 48.140625 66.109375 41.796875 66.109375 
Q 29.296875 66.109375 22.65625 58.46875 
Q 16.015625 50.828125 16.015625 36.375 
Q 16.015625 21.96875 22.65625 14.328125 
Q 29.296875 6.6875 41.796875 6.6875 
Q 48.140625 6.6875 53.78125 8.984375 
Q 59.421875 11.28125 64.40625 15.921875 
L 64.40625 5.609375 
Q 59.234375 2.09375 53.4375 0.328125 
Q 47.65625 -1.421875 41.21875 -1.421875 
Q 24.65625 -1.421875 15.125 8.703125 
Q 5.609375 18.84375 5.609375 36.375 
Q 5.609375 53.953125 15.125 64.078125 
Q 24.65625 74.21875 41.21875 74.21875 
Q 47.75 74.21875 53.53125 72.484375 
Q 59.328125 70.75 64.40625 67.28125 
z
" id="DejaVuSans-67"/>
       <path d="M 11.71875 12.40625 
L 22.015625 12.40625 
L 22.015625 0 
L 11.71875 0 
z
M 11.71875 51.703125 
L 22.015625 51.703125 
L 22.015625 39.3125 
L 11.71875 39.3125 
z
" id="DejaVuSans-58"/>
       <path d="M 10.984375 1.515625 
L 10.984375 10.5 
Q 14.703125 8.734375 18.5 7.8125 
Q 22.3125 6.890625 25.984375 6.890625 
Q 35.75 6.890625 40.890625 13.453125 
Q 46.046875 20.015625 46.78125 33.40625 
Q 43.953125 29.203125 39.59375 26.953125 
Q 35.25 24.703125 29.984375 24.703125 
Q 19.046875 24.703125 12.671875 31.3125 
Q 6.296875 37.9375 6.296875 49.421875 
Q 6.296875 60.640625 12.9375 67.421875 
Q 19.578125 74.21875 30.609375 74.21875 
Q 43.265625 74.21875 49.921875 64.515625 
Q 56.59375 54.828125 56.59375 36.375 
Q 56.59375 19.140625 48.40625 8.859375 
Q 40.234375 -1.421875 26.421875 -1.421875 
Q 22.703125 -1.421875 18.890625 -0.6875 
Q 15.09375 0.046875 10.984375 1.515625 
z
M 30.609375 32.421875 
Q 37.25 32.421875 41.125 36.953125 
Q 45.015625 41.5 45.015625 49.421875 
Q 45.015625 57.28125 41.125 61.84375 
Q 37.25 66.40625 30.609375 66.40625 
Q 23.96875 66.40625 20.09375 61.84375 
Q 16.21875 57.28125 16.21875 49.421875 
Q 16.21875 41.5 20.09375 36.953125 
Q 23.96875 32.421875 30.609375 32.421875 
z
" id="DejaVuSans-57"/>
       <path d="M 31.78125 34.625 
Q 24.75 34.625 20.71875 30.859375 
Q 16.703125 27.09375 16.703125 20.515625 
Q 16.703125 13.921875 20.71875 10.15625 
Q 24.75 6.390625 31.78125 6.390625 
Q 38.8125 6.390625 42.859375 10.171875 
Q 46.921875 13.96875 46.921875 20.515625 
Q 46.921875 27.09375 42.890625 30.859375 
Q 38.875 34.625 31.78125 34.625 
z
M 21.921875 38.8125 
Q 15.578125 40.375 12.03125 44.71875 
Q 8.5 49.078125 8.5 55.328125 
Q 8.5 64.0625 14.71875 69.140625 
Q 20.953125 74.21875 31.78125 74.21875 
Q 42.671875 74.21875 48.875 69.140625 
Q 55.078125 64.0625 55.078125 55.328125 
Q 55.078125 49.078125 51.53125 44.71875 
Q 48 40.375 41.703125 38.8125 
Q 48.828125 37.15625 52.796875 32.3125 
Q 56.78125 27.484375 56.78125 20.515625 
Q 56.78125 9.90625 50.3125 4.234375 
Q 43.84375 -1.421875 31.78125 -1.421875 
Q 19.734375 -1.421875 13.25 4.234375 
Q 6.78125 9.90625 6.78125 20.515625 
Q 6.78125 27.484375 10.78125 32.3125 
Q 14.796875 37.15625 21.921875 38.8125 
z
M 18.3125 54.390625 
Q 18.3125 48.734375 21.84375 45.5625 
Q 25.390625 42.390625 31.78125 42.390625 
Q 38.140625 42.390625 41.71875 45.5625 
Q 45.3125 48.734375 45.3125 54.390625 
Q 45.3125 60.0625 41.71875 63.234375 
Q 38.140625 66.40625 31.78125 66.40625 
Q 25.390625 66.40625 21.84375 63.234375 
Q 18.3125 60.0625 18.3125 54.390625 
z
" id="DejaVuSans-56"/>
       <path d="M 10.6875 12.40625 
L 21 12.40625 
L 21 0 
L 10.6875 0 
z
" id="DejaVuSans-46"/>
       <path d="M 72.703125 32.078125 
Q 68.453125 32.078125 66.03125 28.46875 
Q 63.625 24.859375 63.625 18.40625 
Q 63.625 12.0625 66.03125 8.421875 
Q 68.453125 4.78125 72.703125 4.78125 
Q 76.859375 4.78125 79.265625 8.421875 
Q 81.6875 12.0625 81.6875 18.40625 
Q 81.6875 24.8125 79.265625 28.4375 
Q 76.859375 32.078125 72.703125 32.078125 
z
M 72.703125 38.28125 
Q 80.421875 38.28125 84.953125 32.90625 
Q 89.5 27.546875 89.5 18.40625 
Q 89.5 9.28125 84.9375 3.921875 
Q 80.375 -1.421875 72.703125 -1.421875 
Q 64.890625 -1.421875 60.34375 3.921875 
Q 55.8125 9.28125 55.8125 18.40625 
Q 55.8125 27.59375 60.375 32.9375 
Q 64.9375 38.28125 72.703125 38.28125 
z
M 22.3125 68.015625 
Q 18.109375 68.015625 15.6875 64.375 
Q 13.28125 60.75 13.28125 54.390625 
Q 13.28125 47.953125 15.671875 44.328125 
Q 18.0625 40.71875 22.3125 40.71875 
Q 26.5625 40.71875 28.96875 44.328125 
Q 31.390625 47.953125 31.390625 54.390625 
Q 31.390625 60.6875 28.953125 64.34375 
Q 26.515625 68.015625 22.3125 68.015625 
z
M 66.40625 74.21875 
L 74.21875 74.21875 
L 28.609375 -1.421875 
L 20.796875 -1.421875 
z
M 22.3125 74.21875 
Q 30.03125 74.21875 34.609375 68.875 
Q 39.203125 63.53125 39.203125 54.390625 
Q 39.203125 45.171875 34.640625 39.84375 
Q 30.078125 34.515625 22.3125 34.515625 
Q 14.546875 34.515625 10.03125 39.859375 
Q 5.515625 45.21875 5.515625 54.390625 
Q 5.515625 63.484375 10.046875 68.84375 
Q 14.59375 74.21875 22.3125 74.21875 
z
" id="DejaVuSans-37"/>
      </defs>
      <use xlink:href="#DejaVuSans-49"/>
      <use x="63.623047" xlink:href="#DejaVuSans-115"/>
      <use x="115.722656" xlink:href="#DejaVuSans-116"/>
      <use x="154.931641" xlink:href="#DejaVuSans-32"/>
      <use x="186.71875" xlink:href="#DejaVuSans-80"/>
      <use x="247.021484" xlink:href="#DejaVuSans-67"/>
      <use x="316.845703" xlink:href="#DejaVuSans-58"/>
      <use x="350.537109" xlink:href="#DejaVuSans-32"/>
      <use x="382.324219" xlink:href="#DejaVuSans-57"/>
      <use x="445.947266" xlink:href="#DejaVuSans-56"/>
      <use x="509.570312" xlink:href="#DejaVuSans-46"/>
      <use x="541.357422" xlink:href="#DejaVuSans-55"/>
      <use x="604.980469" xlink:href="#DejaVuSans-52"/>
      <use x="668.603516" xlink:href="#DejaVuSans-32"/>
      <use x="700.390625" xlink:href="#DejaVuSans-37"/>
     </g>
    </g>
   </g>
   <g id="matplotlib.axis_2">
    <g id="ytick_1">
     <g id="line2d_11">
      <defs>
       <path d="M 0 0 
L -3.5 0 
" id="m060a08c655" style="stroke:#000000;stroke-width:0.8;"/>
      </defs>
      <g>
       <use style="stroke:#000000;stroke-width:0.8;" x="56.028488" xlink:href="#m060a08c655" y="273.312"/>
      </g>
     </g>
     <g id="text_12">
      <!-- −10 -->
      <g transform="translate(27.9238 277.111219)scale(0.1 -0.1)">
       <use xlink:href="#DejaVuSans-8722"/>
       <use x="83.789062" xlink:href="#DejaVuSans-49"/>
       <use x="147.412109" xlink:href="#DejaVuSans-48"/>
      </g>
     </g>
    </g>
    <g id="ytick_2">
     <g id="line2d_12">
      <g>
       <use style="stroke:#000000;stroke-width:0.8;" x="56.028488" xlink:href="#m060a08c655" y="237.8304"/>
      </g>
     </g>
     <g id="text_13">
      <!-- −8 -->
      <g transform="translate(34.2863 241.629619)scale(0.1 -0.1)">
       <use xlink:href="#DejaVuSans-8722"/>
       <use x="83.789062" xlink:href="#DejaVuSans-56"/>
      </g>
     </g>
    </g>
    <g id="ytick_3">
     <g id="line2d_13">
      <g>
       <use style="stroke:#000000;stroke-width:0.8;" x="56.028488" xlink:href="#m060a08c655" y="202.3488"/>
      </g>
     </g>
     <g id="text_14">
      <!-- −6 -->
      <g transform="translate(34.2863 206.148019)scale(0.1 -0.1)">
       <use xlink:href="#DejaVuSans-8722"/>
       <use x="83.789062" xlink:href="#DejaVuSans-54"/>
      </g>
     </g>
    </g>
    <g id="ytick_4">
     <g id="line2d_14">
      <g>
       <use style="stroke:#000000;stroke-width:0.8;" x="56.028488" xlink:href="#m060a08c655" y="166.8672"/>
      </g>
     </g>
     <g id="text_15">
      <!-- −4 -->
      <g transform="translate(34.2863 170.666419)scale(0.1 -0.1)">
       <use xlink:href="#DejaVuSans-8722"/>
       <use x="83.789062" xlink:href="#DejaVuSans-52"/>
      </g>
     </g>
    </g>
    <g id="ytick_5">
     <g id="line2d_15">
      <g>
       <use style="stroke:#000000;stroke-width:0.8;" x="56.028488" xlink:href="#m060a08c655" y="131.3856"/>
      </g>
     </g>
     <g id="text_16">
      <!-- −2 -->
      <g transform="translate(34.2863 135.184819)scale(0.1 -0.1)">
       <use xlink:href="#DejaVuSans-8722"/>
       <use x="83.789062" xlink:href="#DejaVuSans-50"/>
      </g>
     </g>
    </g>
    <g id="ytick_6">
     <g id="line2d_16">
      <g>
       <use style="stroke:#000000;stroke-width:0.8;" x="56.028488" xlink:href="#m060a08c655" y="95.904"/>
      </g>
     </g>
     <g id="text_17">
      <!-- 0 -->
      <g transform="translate(42.665987 99.703219)scale(0.1 -0.1)">
       <use xlink:href="#DejaVuSans-48"/>
      </g>
     </g>
    </g>
    <g id="ytick_7">
     <g id="line2d_17">
      <g>
       <use style="stroke:#000000;stroke-width:0.8;" x="56.028488" xlink:href="#m060a08c655" y="60.4224"/>
      </g>
     </g>
     <g id="text_18">
      <!-- 2 -->
      <g transform="translate(42.665987 64.221619)scale(0.1 -0.1)">
       <use xlink:href="#DejaVuSans-50"/>
      </g>
     </g>
    </g>
    <g id="ytick_8">
     <g id="line2d_18">
      <g>
       <use style="stroke:#000000;stroke-width:0.8;" x="56.028488" xlink:href="#m060a08c655" y="24.9408"/>
      </g>
     </g>
     <g id="text_19">
      <!-- 4 -->
      <g transform="translate(42.665987 28.740019)scale(0.1 -0.1)">
       <use xlink:href="#DejaVuSans-52"/>
      </g>
     </g>
    </g>
    <g id="text_20">
     <!-- 2nd PC: 0.66 % -->
     <g transform="translate(20.3301 206.5518)rotate(-90)scale(0.1728 -0.1728)">
      <defs>
       <path d="M 54.890625 33.015625 
L 54.890625 0 
L 45.90625 0 
L 45.90625 32.71875 
Q 45.90625 40.484375 42.875 44.328125 
Q 39.84375 48.1875 33.796875 48.1875 
Q 26.515625 48.1875 22.3125 43.546875 
Q 18.109375 38.921875 18.109375 30.90625 
L 18.109375 0 
L 9.078125 0 
L 9.078125 54.6875 
L 18.109375 54.6875 
L 18.109375 46.1875 
Q 21.34375 51.125 25.703125 53.5625 
Q 30.078125 56 35.796875 56 
Q 45.21875 56 50.046875 50.171875 
Q 54.890625 44.34375 54.890625 33.015625 
z
" id="DejaVuSans-110"/>
       <path d="M 45.40625 46.390625 
L 45.40625 75.984375 
L 54.390625 75.984375 
L 54.390625 0 
L 45.40625 0 
L 45.40625 8.203125 
Q 42.578125 3.328125 38.25 0.953125 
Q 33.9375 -1.421875 27.875 -1.421875 
Q 17.96875 -1.421875 11.734375 6.484375 
Q 5.515625 14.40625 5.515625 27.296875 
Q 5.515625 40.1875 11.734375 48.09375 
Q 17.96875 56 27.875 56 
Q 33.9375 56 38.25 53.625 
Q 42.578125 51.265625 45.40625 46.390625 
z
M 14.796875 27.296875 
Q 14.796875 17.390625 18.875 11.75 
Q 22.953125 6.109375 30.078125 6.109375 
Q 37.203125 6.109375 41.296875 11.75 
Q 45.40625 17.390625 45.40625 27.296875 
Q 45.40625 37.203125 41.296875 42.84375 
Q 37.203125 48.484375 30.078125 48.484375 
Q 22.953125 48.484375 18.875 42.84375 
Q 14.796875 37.203125 14.796875 27.296875 
z
" id="DejaVuSans-100"/>
      </defs>
      <use xlink:href="#DejaVuSans-50"/>
      <use x="63.623047" xlink:href="#DejaVuSans-110"/>
      <use x="127.001953" xlink:href="#DejaVuSans-100"/>
      <use x="190.478516" xlink:href="#DejaVuSans-32"/>
      <use x="222.265625" xlink:href="#DejaVuSans-80"/>
      <use x="282.568359" xlink:href="#DejaVuSans-67"/>
      <use x="352.392578" xlink:href="#DejaVuSans-58"/>
      <use x="386.083984" xlink:href="#DejaVuSans-32"/>
      <use x="417.871094" xlink:href="#DejaVuSans-48"/>
      <use x="481.494141" xlink:href="#DejaVuSans-46"/>
      <use x="513.28125" xlink:href="#DejaVuSans-54"/>
      <use x="576.904297" xlink:href="#DejaVuSans-54"/>
      <use x="640.527344" xlink:href="#DejaVuSans-32"/>
      <use x="672.314453" xlink:href="#DejaVuSans-37"/>
     </g>
    </g>
   </g>
   <g id="LineCollection_1"/>
   <g id="LineCollection_2"/>
   <g id="LineCollection_3"/>
   <g id="LineCollection_4"/>
   <g id="LineCollection_5">
    <path clip-path="url(#p2923a675bc)" d="M 119.784222 92.282497 
L 120.439912 87.0336 
L 121.50365 78.1632 
L 122.588269 69.2928 
L 123.811444 60.4224 
L 125.707627 51.552 
L 127.452488 47.850312 
L 127.706919 51.552 
L 128.87682 60.4224 
L 133.429043 69.2928 
L 139.356488 73.722913 
L 139.385473 78.1632 
L 139.43167 87.0336 
L 139.475588 95.904 
L 139.516598 104.7744 
L 139.549395 113.6448 
L 139.558258 122.5152 
L 139.491111 131.3856 
L 139.356488 136.462727 
L 131.12173 140.256 
L 127.452488 141.31996 
L 115.646961 140.256 
L 115.548488 140.160755 
L 114.100975 131.3856 
L 115.30086 122.5152 
L 115.548488 121.407016 
L 116.238358 117.229956 
" style="fill:none;stroke:#404688;stroke-width:1.5;"/>
   </g>
   <g id="LineCollection_6">
    <path clip-path="url(#p2923a675bc)" d="M 56.028488 76.127999 
L 60.883107 78.1632 
L 67.932488 82.378697 
L 79.836488 81.866788 
L 82.803871 78.1632 
L 89.269357 69.2928 
L 91.740488 64.640691 
L 92.838825 60.4224 
L 95.442829 51.552 
L 98.839258 42.6816 
L 103.644488 34.281358 
L 103.902055 33.8112 
L 115.548488 29.067179 
L 127.452488 30.564732 
L 127.627915 33.8112 
L 128.38046 42.6816 
L 130.156053 51.552 
L 134.818568 60.4224 
L 139.356488 65.152114 
L 139.396285 69.2928 
L 139.472742 78.1632 
L 139.554007 87.0336 
L 139.640621 95.904 
L 139.732997 104.7744 
L 139.829872 113.6448 
L 139.928232 122.5152 
L 139.992265 131.3856 
L 139.919187 140.256 
L 139.434494 149.1264 
L 139.356488 149.778981 
L 127.452488 151.603209 
L 115.548488 154.731065 
L 103.644488 151.975188 
L 91.904741 149.1264 
L 91.740488 148.977376 
L 79.836488 146.682232 
L 68.623357 147.0616 
" style="fill:none;stroke:#39558c;stroke-width:1.5;"/>
   </g>
   <g id="LineCollection_7">
    <path clip-path="url(#p2923a675bc)" d="M 56.028488 20.122315 
L 57.122231 19.840974 
" style="fill:none;stroke:#33638d;stroke-width:1.5;"/>
    <path clip-path="url(#p2923a675bc)" d="M 78.302478 7.599026 
L 78.741814 7.2 
" style="fill:none;stroke:#33638d;stroke-width:1.5;"/>
    <path clip-path="url(#p2923a675bc)" d="M 103.067193 7.2 
L 103.644488 7.411425 
L 115.548488 15.293439 
L 116.456004 16.0704 
L 127.452488 23.275179 
L 127.533697 24.9408 
L 128.11262 33.8112 
L 129.46588 42.6816 
L 132.605188 51.552 
L 139.356488 59.722147 
L 139.365576 60.4224 
L 139.417876 65.564005 
" style="fill:none;stroke:#33638d;stroke-width:1.5;"/>
    <path clip-path="url(#p2923a675bc)" d="M 139.730697 90.762041 
L 139.805655 95.904 
L 139.949397 104.7744 
L 140.110349 113.6448 
L 140.298206 122.5152 
L 140.493419 131.3856 
L 140.623177 140.256 
L 140.470237 149.1264 
L 139.442623 157.9968 
L 139.356488 158.340062 
L 127.452488 158.552864 
L 115.548488 161.285537 
L 103.644488 160.464279 
L 91.740488 159.58346 
L 79.836488 160.231917 
L 67.932488 161.168638 
L 56.028488 162.044903 
" style="fill:none;stroke:#33638d;stroke-width:1.5;"/>
   </g>
   <g id="LineCollection_8">
    <path clip-path="url(#p2923a675bc)" d="M 112.1901 7.2 
L 115.548488 9.458791 
L 123.27107 16.0704 
L 127.452488 18.81002 
L 127.751401 24.9408 
L 128.597324 33.8112 
L 129.980778 40.091618 
" style="fill:none;stroke:#2d718e;stroke-width:1.5;"/>
    <path clip-path="url(#p2923a675bc)" d="M 139.431411 62.603994 
L 139.515327 69.2928 
L 139.647279 78.1632 
L 139.798682 87.0336 
L 139.970689 95.904 
L 140.165797 104.7744 
L 140.390827 113.6448 
L 140.66818 122.5152 
L 140.994573 131.3856 
L 141.327167 140.256 
L 141.505979 149.1264 
L 141.112569 157.9968 
L 139.356488 164.995027 
L 127.452488 163.501006 
L 115.548488 166.397161 
L 103.644488 165.764007 
L 91.740488 165.207406 
L 79.836488 166.676079 
L 78.446501 166.8672 
L 67.932488 167.797359 
L 56.028488 168.930173 
" style="fill:none;stroke:#2d718e;stroke-width:1.5;"/>
   </g>
   <g id="LineCollection_9">
    <path clip-path="url(#p2923a675bc)" d="M 117.239503 7.2 
L 127.452488 15.231843 
L 127.491016 16.0704 
L 127.969105 24.9408 
L 129.082029 33.8112 
L 131.636721 42.6816 
L 137.503458 51.552 
L 139.356488 53.794461 
L 139.442507 60.4224 
L 139.574848 69.2928 
L 139.734548 78.1632 
L 139.842688 83.307421 
" style="fill:none;stroke:#287d8e;stroke-width:1.5;"/>
    <path clip-path="url(#p2923a675bc)" d="M 140.503577 108.498599 
L 140.671304 113.6448 
L 141.038154 122.5152 
L 141.495727 131.3856 
L 142.031157 140.256 
L 142.541722 149.1264 
L 142.782515 157.9968 
L 141.823862 166.8672 
L 139.356488 170.771176 
L 127.452488 168.069673 
L 115.548488 170.056758 
L 103.644488 169.5279 
L 91.740488 169.225566 
L 79.836488 170.423285 
L 67.932488 171.943619 
L 56.028488 173.695412 
" style="fill:none;stroke:#287d8e;stroke-width:1.5;"/>
   </g>
   <g id="LineCollection_10">
    <path clip-path="url(#p2923a675bc)" d="M 119.998696 7.2 
L 127.452488 13.061919 
L 127.590716 16.0704 
L 128.186809 24.9408 
L 129.566734 33.8112 
L 132.722141 42.6816 
L 139.356488 51.212301 
L 139.362229 51.552 
L 139.480973 60.4224 
L 139.634369 69.2928 
L 139.821816 78.1632 
L 139.950331 83.308895 
" style="fill:none;stroke:#238a8d;stroke-width:1.5;"/>
    <path clip-path="url(#p2923a675bc)" d="M 140.746778 108.496052 
L 140.951782 113.6448 
L 141.408128 122.5152 
L 141.996881 131.3856 
L 142.735146 140.256 
L 143.577464 149.1264 
L 144.452461 157.9968 
L 145.257063 166.8672 
L 140.589216 175.7376 
L 139.356488 176.125817 
L 138.448846 175.7376 
L 127.452488 171.830863 
L 115.548488 173.569314 
L 103.644488 172.888051 
L 91.740488 172.571383 
L 79.836488 174.08806 
L 69.822708 175.7376 
L 67.932488 175.971429 
L 56.028488 177.493858 
" style="fill:none;stroke:#238a8d;stroke-width:1.5;"/>
   </g>
   <g id="LineCollection_11">
    <path clip-path="url(#p2923a675bc)" d="M 122.757889 7.2 
L 127.452488 10.891994 
L 127.520552 12.373397 
" style="fill:none;stroke:#1f968b;stroke-width:1.5;"/>
    <path clip-path="url(#p2923a675bc)" d="M 131.446601 37.105992 
L 133.807562 42.6816 
L 139.356488 49.816625 
L 139.385816 51.552 
L 139.519438 60.4224 
L 139.69389 69.2928 
L 139.909085 78.1632 
L 140.165694 87.0336 
L 140.465789 95.904 
L 140.814995 104.7744 
L 141.232259 113.6448 
L 141.778102 122.5152 
L 142.498034 131.3856 
L 143.439136 140.256 
L 144.613207 149.1264 
L 146.122406 157.9968 
L 148.690264 166.8672 
L 151.260488 173.465242 
L 151.283516 175.7376 
L 151.260488 179.012166 
L 139.356488 180.653952 
L 127.862161 175.7376 
L 127.452488 175.592053 
L 126.359348 175.7376 
L 115.548488 176.774828 
L 103.644488 176.120226 
L 91.740488 175.867448 
L 79.836488 177.130439 
L 67.932488 178.723559 
L 56.028488 180.567245 
" style="fill:none;stroke:#1f968b;stroke-width:1.5;"/>
   </g>
   <g id="LineCollection_12">
    <path clip-path="url(#p2923a675bc)" d="M 125.517083 7.2 
L 127.452488 8.722069 
L 127.790115 16.0704 
L 128.622217 24.9408 
L 130.536143 33.8112 
L 134.892982 42.6816 
L 139.356488 48.420949 
L 139.409403 51.552 
L 139.557904 60.4224 
L 139.753411 69.2928 
L 139.996354 78.1632 
L 140.165678 83.312632 
" style="fill:none;stroke:#20a386;stroke-width:1.5;"/>
    <path clip-path="url(#p2923a675bc)" d="M 141.23299 108.489494 
L 141.512736 113.6448 
L 142.148076 122.5152 
L 142.999188 131.3856 
L 144.143126 140.256 
L 145.648949 149.1264 
L 147.792352 157.9968 
L 151.260488 165.909496 
L 151.275153 166.8672 
L 151.372832 175.7376 
L 151.336164 184.608 
L 151.260488 186.828106 
L 139.356488 185.083331 
L 138.627431 184.608 
L 127.452488 178.673316 
L 115.548488 179.48509 
L 103.644488 178.6382 
L 91.740488 178.286424 
L 79.836488 179.663366 
L 67.932488 181.475689 
L 56.028488 183.640632 
" style="fill:none;stroke:#20a386;stroke-width:1.5;"/>
   </g>
   <g id="LineCollection_13">
    <path clip-path="url(#p2923a675bc)" d="M 127.466419 7.2 
L 127.889815 16.0704 
L 128.839921 24.9408 
L 131.020848 33.8112 
L 135.978403 42.6816 
L 139.356488 47.025273 
L 139.432991 51.552 
L 139.59637 60.4224 
L 139.812932 69.2928 
L 140.083622 78.1632 
L 140.410369 87.0336 
L 140.634429 92.189411 
" style="fill:none;stroke:#29af7f;stroke-width:1.5;"/>
    <path clip-path="url(#p2923a675bc)" d="M 142.095598 117.345314 
L 142.51805 122.5152 
L 143.500342 131.3856 
L 144.847116 140.256 
L 146.684692 149.1264 
L 149.462298 157.9968 
L 151.260488 162.099445 
L 151.333499 166.8672 
L 151.462148 175.7376 
L 151.471446 184.608 
L 151.260488 190.796831 
L 139.356488 188.832515 
L 132.876984 184.608 
L 127.452488 181.72721 
L 115.548488 182.195351 
L 103.644488 181.156174 
L 91.740488 180.705399 
L 79.836488 182.196292 
L 67.932488 184.227819 
L 65.935332 184.608 
L 56.028488 186.216631 
" style="fill:none;stroke:#29af7f;stroke-width:1.5;"/>
   </g>
   <g id="LineCollection_14">
    <path clip-path="url(#p2923a675bc)" d="M 127.513082 7.2 
L 127.989514 16.0704 
L 129.057625 24.9408 
L 131.505553 33.8112 
L 137.063823 42.6816 
L 139.356488 45.629597 
L 139.456578 51.552 
L 139.634836 60.4224 
L 139.872453 69.2928 
L 140.170891 78.1632 
L 140.532706 87.0336 
L 140.781755 92.192988 
" style="fill:none;stroke:#3dbc74;stroke-width:1.5;"/>
    <path clip-path="url(#p2923a675bc)" d="M 142.412736 117.337955 
L 142.888024 122.5152 
L 144.001496 131.3856 
L 145.551106 140.256 
L 147.720434 149.1264 
L 151.132244 157.9968 
L 151.260488 158.289393 
L 151.391844 166.8672 
L 151.551464 175.7376 
L 151.606728 184.608 
L 151.321058 193.4784 
L 151.260488 194.29358 
L 144.409054 193.4784 
L 139.356488 192.581699 
L 127.452488 184.753755 
L 115.548488 184.850464 
L 112.829085 184.608 
L 103.644488 183.674147 
L 91.740488 183.124374 
L 80.698111 184.608 
L 79.836488 184.701642 
L 67.932488 186.423486 
L 56.028488 188.564162 
" style="fill:none;stroke:#3dbc74;stroke-width:1.5;"/>
   </g>
   <g id="LineCollection_15">
    <path clip-path="url(#p2923a675bc)" d="M 127.559745 7.2 
L 128.089214 16.0704 
L 129.275329 24.9408 
L 131.990258 33.8112 
L 138.149243 42.6816 
L 139.356488 44.233921 
L 139.480165 51.552 
L 139.673301 60.4224 
L 139.931974 69.2928 
L 140.25816 78.1632 
L 140.655044 87.0336 
L 140.929136 92.196944 
" style="fill:none;stroke:#56c667;stroke-width:1.5;"/>
    <path clip-path="url(#p2923a675bc)" d="M 142.729642 117.329783 
L 143.257998 122.5152 
L 144.50265 131.3856 
L 146.255096 140.256 
L 148.756177 149.1264 
L 151.260488 155.545747 
L 151.296217 157.9968 
L 151.45019 166.8672 
L 151.640779 175.7376 
L 151.74201 184.608 
L 151.507818 193.4784 
L 151.260488 196.807047 
L 139.356488 195.785893 
L 136.484709 193.4784 
L 127.452488 187.325174 
L 115.548488 187.058507 
L 103.644488 185.892574 
L 91.740488 185.355276 
L 79.836488 186.658331 
L 67.932488 188.529961 
L 56.028488 190.911693 
" style="fill:none;stroke:#56c667;stroke-width:1.5;"/>
   </g>
   <g id="LineCollection_16">
    <path clip-path="url(#p2923a675bc)" d="M 127.606409 7.2 
L 128.188914 16.0704 
L 129.493033 24.9408 
L 132.474962 33.8112 
L 139.234664 42.6816 
L 139.356488 42.838246 
L 139.503753 51.552 
L 139.711767 60.4224 
L 139.991495 69.2928 
L 140.345428 78.1632 
L 140.777381 87.0336 
L 141.076578 92.201279 
" style="fill:none;stroke:#75d054;stroke-width:1.5;"/>
    <path clip-path="url(#p2923a675bc)" d="M 143.046293 117.320805 
L 143.627972 122.5152 
L 145.003804 131.3856 
L 146.959086 140.256 
L 149.791919 149.1264 
L 151.260488 152.890809 
L 151.334918 157.9968 
L 151.508535 166.8672 
L 151.730095 175.7376 
L 151.877292 184.608 
L 151.694578 193.4784 
L 151.260488 199.320513 
L 139.356488 198.818764 
L 132.710163 193.4784 
L 127.452488 189.896594 
L 115.548488 189.266549 
L 103.644488 187.934415 
L 91.740488 187.287862 
L 79.836488 188.61502 
L 67.932488 190.636437 
L 56.028488 193.259224 
" style="fill:none;stroke:#75d054;stroke-width:1.5;"/>
   </g>
   <g id="LineCollection_17">
    <path clip-path="url(#p2923a675bc)" d="M 127.653072 7.2 
L 128.288614 16.0704 
L 129.710737 24.9408 
L 132.959667 33.8112 
L 139.356488 42.122512 
L 139.368723 42.6816 
L 139.52734 51.552 
L 139.750233 60.4224 
L 140.051017 69.2928 
L 140.432697 78.1632 
L 140.899718 87.0336 
L 141.224084 92.205992 
" style="fill:none;stroke:#95d840;stroke-width:1.5;"/>
    <path clip-path="url(#p2923a675bc)" d="M 143.362665 117.311027 
L 143.997946 122.5152 
L 145.504958 131.3856 
L 147.663076 140.256 
L 150.827662 149.1264 
L 151.260488 150.23587 
L 151.37362 157.9968 
L 151.566881 166.8672 
L 151.819411 175.7376 
L 152.012574 184.608 
L 151.881338 193.4784 
L 151.260488 201.83398 
L 139.356488 201.851636 
L 128.935618 193.4784 
L 127.452488 192.468013 
L 115.548488 191.474591 
L 103.644488 189.976256 
L 91.740488 189.220448 
L 79.836488 190.571708 
L 67.932488 192.742912 
L 64.622744 193.4784 
L 56.028488 195.152348 
" style="fill:none;stroke:#95d840;stroke-width:1.5;"/>
   </g>
   <g id="LineCollection_18">
    <path clip-path="url(#p2923a675bc)" d="M 127.699735 7.2 
L 128.388313 16.0704 
L 129.928441 24.9408 
L 133.444372 33.8112 
L 139.356488 41.492741 
L 139.382505 42.6816 
L 139.550927 51.552 
L 139.788698 60.4224 
L 140.110538 69.2928 
L 140.519966 78.1632 
L 141.022056 87.0336 
L 141.371662 92.211081 
" style="fill:none;stroke:#bade28;stroke-width:1.5;"/>
    <path clip-path="url(#p2923a675bc)" d="M 143.678736 117.300458 
L 144.36792 122.5152 
L 146.006112 131.3856 
L 148.367065 140.256 
L 151.260488 148.025932 
L 151.275384 149.1264 
L 151.412321 157.9968 
L 151.625226 166.8672 
L 151.908727 175.7376 
L 152.147856 184.608 
L 152.068098 193.4784 
L 151.433905 202.3488 
L 151.260488 203.794439 
L 139.356488 204.361438 
L 137.054456 202.3488 
L 127.452488 194.793598 
L 115.548488 193.646922 
L 114.185254 193.4784 
L 103.644488 192.018098 
L 91.740488 191.153033 
L 79.836488 192.528397 
L 74.750444 193.4784 
L 67.932488 194.574283 
L 56.028488 196.998677 
" style="fill:none;stroke:#bade28;stroke-width:1.5;"/>
   </g>
   <g id="LineCollection_19">
    <path clip-path="url(#p2923a675bc)" d="M 127.746398 7.2 
L 128.488013 16.0704 
L 130.146145 24.9408 
L 133.929077 33.8112 
L 139.356488 40.86297 
L 139.396287 42.6816 
L 139.574515 51.552 
L 139.827164 60.4224 
L 140.170059 69.2928 
L 140.607234 78.1632 
L 141.144393 87.0336 
L 141.519315 92.216545 
" style="fill:none;stroke:#dde318;stroke-width:1.5;"/>
    <path clip-path="url(#p2923a675bc)" d="M 143.994482 117.289106 
L 144.737894 122.5152 
L 146.507265 131.3856 
L 149.071055 140.256 
L 151.260488 146.135453 
L 151.300973 149.1264 
L 151.451023 157.9968 
L 151.683572 166.8672 
L 151.998043 175.7376 
L 152.283138 184.608 
L 152.254858 193.4784 
L 151.651993 202.3488 
L 151.260488 205.612453 
L 139.356488 206.768685 
L 134.301075 202.3488 
L 127.452488 196.960065 
L 115.548488 195.468872 
L 103.644488 193.956979 
L 96.697713 193.4784 
L 91.740488 193.085619 
L 88.369583 193.4784 
L 79.836488 194.295637 
L 67.932488 196.258069 
L 56.028488 198.845006 
" style="fill:none;stroke:#dde318;stroke-width:1.5;"/>
   </g>
   <g id="LineCollection_20">
    <path clip-path="url(#p2923a675bc)" d="M 127.793061 7.2 
L 128.587713 16.0704 
L 130.363849 24.9408 
L 134.413781 33.8112 
L 139.356488 40.233199 
L 139.41007 42.6816 
L 139.598102 51.552 
L 139.86563 60.4224 
L 140.22958 69.2928 
L 140.694503 78.1632 
L 141.26673 87.0336 
L 141.66705 92.222383 
" style="fill:none;stroke:#fde725;stroke-width:1.5;"/>
    <path clip-path="url(#p2923a675bc)" d="M 144.30988 117.27698 
L 145.107868 122.5152 
L 147.008419 131.3856 
L 149.775045 140.256 
L 151.260488 144.244974 
L 151.326563 149.1264 
L 151.489724 157.9968 
L 151.741917 166.8672 
L 152.087359 175.7376 
L 152.41842 184.608 
L 152.441618 193.4784 
L 151.87008 202.3488 
L 151.260488 207.430466 
L 139.356488 209.175932 
L 131.547695 202.3488 
L 127.452488 199.126531 
L 115.548488 197.290823 
L 103.644488 195.637318 
L 91.740488 194.745384 
L 79.836488 195.884095 
L 67.932488 197.941854 
L 56.028488 200.691335 
" style="fill:none;stroke:#fde725;stroke-width:1.5;"/>
   </g>
   <g id="LineCollection_21">
    <path clip-path="url(#p2923a675bc)" d="M 127.839724 7.2 
L 128.687412 16.0704 
L 130.581553 24.9408 
L 134.898486 33.8112 
L 139.356488 39.603428 
L 139.423852 42.6816 
L 139.621689 51.552 
L 139.904096 60.4224 
L 140.289101 69.2928 
L 140.781772 78.1632 
L 141.389068 87.0336 
L 142.116124 95.904 
L 142.978991 104.7744 
L 143.395886 108.269555 
" style="fill:none;stroke:#440154;stroke-width:1.5;"/>
    <path clip-path="url(#p2923a675bc)" d="M 149.192002 136.411365 
L 150.479035 140.256 
L 151.260488 142.354495 
L 151.352153 149.1264 
L 151.528426 157.9968 
L 151.800263 166.8672 
L 152.176675 175.7376 
L 152.553702 184.608 
L 152.628378 193.4784 
L 152.088167 202.3488 
L 151.260488 209.248479 
L 140.813662 211.2192 
L 139.356488 211.504546 
L 139.034599 211.2192 
L 128.794315 202.3488 
L 127.452488 201.292998 
L 115.548488 199.112774 
L 103.644488 197.317657 
L 91.740488 196.335558 
L 79.836488 197.472553 
L 67.932488 199.62564 
L 56.736615 202.3488 
L 56.028488 202.50006 
" style="fill:none;stroke:#440154;stroke-width:1.5;"/>
   </g>
   <g id="LineCollection_22">
    <path clip-path="url(#p2923a675bc)" d="M 136.23908 7.2 
L 139.356488 11.439092 
L 139.522629 16.0704 
L 139.949099 24.9408 
L 140.682737 33.8112 
L 141.904659 42.6816 
L 143.867411 51.552 
L 146.827923 60.4224 
L 151.002898 69.2928 
L 151.260488 69.890253 
L 151.296904 78.1632 
L 151.356095 87.0336 
L 151.454385 95.904 
L 151.621026 104.7744 
L 151.901369 113.6448 
L 152.364382 122.5152 
L 152.502083 124.156095 
" style="fill:none;stroke:#440154;stroke-width:1.5;"/>
    <path clip-path="url(#p2923a675bc)" d="M 157.929191 156.01907 
L 158.494695 157.9968 
L 162.302447 166.8672 
L 163.164488 168.69372 
L 163.222131 175.7376 
L 163.328971 184.608 
L 163.482675 193.4784 
L 163.692743 202.3488 
L 163.91231 211.2192 
L 163.979056 220.0896 
L 163.650278 228.96 
L 163.164488 234.539297 
L 161.199353 237.8304 
L 156.42009 246.7008 
L 153.463541 255.5712 
L 151.726336 264.4416 
L 151.260488 267.332531 
L 145.757135 273.312 
" style="fill:none;stroke:#440154;stroke-width:1.5;"/>
   </g>
   <g id="LineCollection_23">
    <path clip-path="url(#p2923a675bc)" d="M 141.451671 7.2 
L 143.619938 16.0704 
L 147.585116 24.9408 
L 151.260488 30.833799 
L 151.290692 33.8112 
L 151.379928 42.6816 
L 151.503312 51.552 
L 151.683874 60.4224 
L 151.957969 69.2928 
L 152.390767 78.1632 
L 153.08899 87.0336 
L 154.255673 95.904 
L 156.19992 104.7744 
L 159.380255 113.6448 
L 163.164488 120.971728 
L 163.171762 122.256764 
" style="fill:none;stroke:#440154;stroke-width:1.5;"/>
    <path clip-path="url(#p2923a675bc)" d="M 163.820352 158.248849 
L 164.287337 166.8672 
L 165.043154 175.7376 
L 166.244038 184.608 
L 168.117038 193.4784 
L 171.051685 202.3488 
L 175.068488 211.173115 
L 175.06869 211.2192 
L 175.100667 220.0896 
L 175.128966 228.96 
L 175.111635 237.8304 
L 175.068488 240.978391 
L 171.849298 246.7008 
L 167.345548 255.5712 
L 164.71679 264.4416 
L 163.338001 273.312 
" style="fill:none;stroke:#440154;stroke-width:1.5;"/>
   </g>
   <g id="LineCollection_24">
    <path clip-path="url(#p2923a675bc)" d="M 151.415461 7.2 
L 151.651242 16.0704 
L 152.009228 24.9408 
L 152.532744 33.8112 
L 153.297509 42.6816 
L 154.443535 51.552 
L 156.20733 60.4224 
L 158.949589 69.2928 
L 163.164488 77.946791 
L 163.165643 78.1632 
L 163.214501 87.0336 
L 163.293811 95.904 
L 163.423404 104.7744 
L 163.636242 113.6448 
L 163.913711 120.54556 
" style="fill:none;stroke:#440154;stroke-width:1.5;"/>
    <path clip-path="url(#p2923a675bc)" d="M 171.314966 159.174235 
L 175.068488 166.248127 
L 175.071634 166.8672 
L 175.115387 175.7376 
L 175.183079 184.608 
L 175.291836 193.4784 
L 175.471688 202.3488 
L 175.780594 211.2192 
L 176.263854 220.0896 
L 176.861142 228.96 
L 177.44272 237.8304 
L 177.708948 246.7008 
L 177.23645 255.5712 
L 176.258336 264.4416 
L 175.335909 273.312 
" style="fill:none;stroke:#440154;stroke-width:1.5;"/>
   </g>
   <g id="LineCollection_25">
    <path clip-path="url(#p2923a675bc)" d="M 154.237192 7.2 
L 156.454483 16.0704 
L 159.875238 24.9408 
L 163.164488 31.538798 
L 163.177704 33.8112 
L 163.231932 42.6816 
L 163.312636 51.552 
L 163.437102 60.4224 
L 163.630661 69.2928 
L 163.932196 78.1632 
L 164.409358 87.0336 
L 165.190122 95.904 
L 166.477024 104.7744 
L 168.605212 113.6448 
L 171.021524 119.624301 
" style="fill:none;stroke:#440154;stroke-width:1.5;"/>
    <path clip-path="url(#p2923a675bc)" d="M 175.57272 161.851544 
L 175.731047 166.8672 
L 176.158832 175.7376 
L 176.826481 184.608 
L 177.919465 193.4784 
L 179.736482 202.3488 
L 182.899633 211.2192 
L 186.972488 219.008893 
L 186.978317 220.0896 
L 187.021821 228.96 
L 187.076443 237.8304 
L 187.128012 246.7008 
L 187.152857 255.5712 
L 187.115148 264.4416 
L 186.972488 273.224618 
L 186.923832 273.312 
" style="fill:none;stroke:#440154;stroke-width:1.5;"/>
   </g>
   <g id="LineCollection_26">
    <path clip-path="url(#p2923a675bc)" d="M 163.332804 7.2 
L 163.49959 16.0704 
L 163.74125 24.9408 
L 164.095428 33.8112 
L 164.621264 42.6816 
L 165.418834 51.552 
L 166.658745 60.4224 
L 168.591462 69.2928 
L 171.597728 78.1632 
L 175.068488 85.326317 
L 175.077463 87.0336 
L 175.130465 95.904 
L 175.215709 104.7744 
L 175.355513 113.6448 
L 175.440414 116.891945 
" style="fill:none;stroke:#450457;stroke-width:1.5;"/>
    <path clip-path="url(#p2923a675bc)" d="M 181.160071 163.161282 
L 182.32517 166.8672 
L 186.593285 175.7376 
L 186.972488 176.507029 
L 187.017398 184.608 
L 187.091462 193.4784 
L 187.20864 202.3488 
L 187.39716 211.2192 
L 187.712753 220.0896 
L 188.206972 228.96 
L 188.834858 237.8304 
L 189.480975 246.7008 
L 190.085078 255.5712 
L 190.495456 264.4416 
L 190.372496 273.312 
" style="fill:none;stroke:#450457;stroke-width:1.5;"/>
   </g>
   <g id="LineCollection_27">
    <path clip-path="url(#p2923a675bc)" d="M 165.794934 7.2 
L 167.394764 16.0704 
L 169.760574 24.9408 
L 173.272666 33.8112 
L 175.068488 37.72306 
L 175.092938 42.6816 
L 175.149125 51.552 
L 175.236354 60.4224 
L 175.372881 69.2928 
L 175.582742 78.1632 
L 175.909145 87.0336 
L 176.424158 95.904 
L 177.264305 104.7744 
L 178.654935 113.6448 
L 179.428556 116.614303 
" style="fill:none;stroke:#482475;stroke-width:1.5;"/>
    <path clip-path="url(#p2923a675bc)" d="M 187.374525 165.452867 
L 187.406745 166.8672 
L 187.722562 175.7376 
L 188.191153 184.608 
L 188.906578 193.4784 
L 190.052714 202.3488 
L 191.901583 211.2192 
L 195.057113 220.0896 
L 198.876488 227.532581 
L 198.883374 228.96 
L 198.920356 237.8304 
L 198.96424 246.7008 
L 199.015969 255.5712 
L 199.065398 264.4416 
L 199.101726 273.312 
" style="fill:none;stroke:#482475;stroke-width:1.5;"/>
   </g>
   <g id="LineCollection_28">
    <path clip-path="url(#p2923a675bc)" d="M 175.185008 7.2 
L 175.298234 16.0704 
L 175.464676 24.9408 
L 175.709638 33.8112 
L 176.078687 42.6816 
L 176.637332 51.552 
L 177.508008 60.4224 
L 178.873927 69.2928 
L 180.969175 78.1632 
L 184.22597 87.0336 
L 186.972488 92.723043 
L 186.988992 95.904 
L 187.046814 104.7744 
L 187.1395 113.273585 
" style="fill:none;stroke:#fde725;stroke-width:1.5;"/>
    <path clip-path="url(#p2923a675bc)" d="M 192.091471 166.903271 
L 195.250668 175.7376 
L 198.876488 183.21606 
L 198.884709 184.608 
L 198.938965 193.4784 
L 199.018581 202.3488 
L 199.136619 211.2192 
L 199.313217 220.0896 
L 199.573836 228.96 
L 199.94308 237.8304 
L 200.425087 246.7008 
L 201.008055 255.5712 
L 201.57729 264.4416 
L 202.104958 273.312 
" style="fill:none;stroke:#fde725;stroke-width:1.5;"/>
   </g>
   <g id="line2d_19">
    <path clip-path="url(#p2923a675bc)" d="M 383.239588 32.33127 
L 393.825225 51.47696 
L 386.649224 58.643775 
L 379.177846 65.288989 
L 371.848601 71.053261 
L 364.657086 76.161676 
L 357.574615 81.089096 
L 350.617476 86.090908 
L 343.767067 91.484393 
L 337.026322 96.992525 
L 330.395138 102.739564 
L 323.875254 108.258609 
L 317.464717 113.737575 
L 311.156066 119.249072 
L 304.968765 124.409676 
L 298.850231 129.867323 
L 292.852594 134.831004 
L 286.91791 140.315601 
L 281.098145 144.863591 
L 275.367065 149.573369 
L 269.739657 153.603254 
L 264.206096 157.022362 
L 258.791904 159.646452 
L 253.472725 161.817902 
L 248.248574 163.420176 
L 243.094355 164.746194 
L 238.045222 165.527871 
L 233.094493 166.185421 
L 228.228735 166.327105 
L 223.444987 165.928503 
L 218.753921 165.314202 
L 214.137221 164.221394 
L 209.617329 163.261756 
L 205.16593 161.907064 
L 200.797133 159.972163 
L 196.489964 158.112187 
L 192.271981 155.563987 
L 188.12172 152.60955 
L 184.067558 149.914903 
L 180.070371 146.738329 
L 176.15415 143.135101 
L 172.329778 139.885962 
L 168.531188 136.342961 
L 164.855893 132.46 
L 161.225061 128.839546 
L 157.650306 124.611961 
L 154.158115 120.672477 
L 150.719271 116.305401 
L 147.346362 111.301443 
L 144.064735 107.106871 
L 143.734034 106.866018 
L 143.402145 106.501518 
L 143.075546 106.051848 
L 142.750613 105.541568 
L 142.426583 105.112 
L 142.103731 104.634835 
L 141.783253 104.199915 
L 141.463615 103.745191 
L 141.14589 103.333412 
L 140.829557 102.890077 
L 140.510384 102.394167 
L 140.196683 101.937419 
L 139.883625 101.526618 
L 139.565569 101.122665 
L 139.253259 100.675485 
L 138.941597 100.333116 
L 138.626209 99.910476 
L 138.313827 99.557482 
L 138.002859 99.065425 
L 137.693096 98.68258 
L 137.387522 98.324838 
L 137.077176 97.936106 
L 136.772646 97.576777 
L 136.462676 97.167716 
L 136.155245 96.751194 
L 136.124214 96.720933 
L 136.093504 96.690304 
L 136.063047 96.650293 
L 136.032088 96.623221 
L 136.001865 96.585395 
L 135.971176 96.548819 
L 135.940383 96.516661 
L 135.909594 96.474846 
L 135.878941 96.441714 
L 135.848149 96.418186 
L 135.817491 96.377081 
L 135.786983 96.342284 
L 135.755975 96.304757 
L 135.724919 96.281429 
L 135.693745 96.245292 
L 135.664263 96.212959 
L 135.633942 96.175197 
L 135.602985 96.135727 
L 135.572409 96.10922 
L 135.541823 96.073343 
L 135.511621 96.040658 
L 135.480997 96.00538 
L 135.450291 95.971807 
L 135.419248 95.935524 
" style="fill:none;stroke:#1f77b4;stroke-linecap:square;stroke-width:1.5;"/>
    <defs>
     <path d="M 0 1.5 
C 0.397805 1.5 0.77937 1.341951 1.06066 1.06066 
C 1.341951 0.77937 1.5 0.397805 1.5 0 
C 1.5 -0.397805 1.341951 -0.77937 1.06066 -1.06066 
C 0.77937 -1.341951 0.397805 -1.5 0 -1.5 
C -0.397805 -1.5 -0.77937 -1.341951 -1.06066 -1.06066 
C -1.341951 -0.77937 -1.5 -0.397805 -1.5 0 
C -1.5 0.397805 -1.341951 0.77937 -1.06066 1.06066 
C -0.77937 1.341951 -0.397805 1.5 0 1.5 
z
" id="mb069215344" style="stroke:#1f77b4;"/>
    </defs>
    <g clip-path="url(#p2923a675bc)">
     <use style="fill:#1f77b4;stroke:#1f77b4;" x="383.239588" xlink:href="#mb069215344" y="32.33127"/>
     <use style="fill:#1f77b4;stroke:#1f77b4;" x="393.825225" xlink:href="#mb069215344" y="51.47696"/>
     <use style="fill:#1f77b4;stroke:#1f77b4;" x="386.649224" xlink:href="#mb069215344" y="58.643775"/>
     <use style="fill:#1f77b4;stroke:#1f77b4;" x="379.177846" xlink:href="#mb069215344" y="65.288989"/>
     <use style="fill:#1f77b4;stroke:#1f77b4;" x="371.848601" xlink:href="#mb069215344" y="71.053261"/>
     <use style="fill:#1f77b4;stroke:#1f77b4;" x="364.657086" xlink:href="#mb069215344" y="76.161676"/>
     <use style="fill:#1f77b4;stroke:#1f77b4;" x="357.574615" xlink:href="#mb069215344" y="81.089096"/>
     <use style="fill:#1f77b4;stroke:#1f77b4;" x="350.617476" xlink:href="#mb069215344" y="86.090908"/>
     <use style="fill:#1f77b4;stroke:#1f77b4;" x="343.767067" xlink:href="#mb069215344" y="91.484393"/>
     <use style="fill:#1f77b4;stroke:#1f77b4;" x="337.026322" xlink:href="#mb069215344" y="96.992525"/>
     <use style="fill:#1f77b4;stroke:#1f77b4;" x="330.395138" xlink:href="#mb069215344" y="102.739564"/>
     <use style="fill:#1f77b4;stroke:#1f77b4;" x="323.875254" xlink:href="#mb069215344" y="108.258609"/>
     <use style="fill:#1f77b4;stroke:#1f77b4;" x="317.464717" xlink:href="#mb069215344" y="113.737575"/>
     <use style="fill:#1f77b4;stroke:#1f77b4;" x="311.156066" xlink:href="#mb069215344" y="119.249072"/>
     <use style="fill:#1f77b4;stroke:#1f77b4;" x="304.968765" xlink:href="#mb069215344" y="124.409676"/>
     <use style="fill:#1f77b4;stroke:#1f77b4;" x="298.850231" xlink:href="#mb069215344" y="129.867323"/>
     <use style="fill:#1f77b4;stroke:#1f77b4;" x="292.852594" xlink:href="#mb069215344" y="134.831004"/>
     <use style="fill:#1f77b4;stroke:#1f77b4;" x="286.91791" xlink:href="#mb069215344" y="140.315601"/>
     <use style="fill:#1f77b4;stroke:#1f77b4;" x="281.098145" xlink:href="#mb069215344" y="144.863591"/>
     <use style="fill:#1f77b4;stroke:#1f77b4;" x="275.367065" xlink:href="#mb069215344" y="149.573369"/>
     <use style="fill:#1f77b4;stroke:#1f77b4;" x="269.739657" xlink:href="#mb069215344" y="153.603254"/>
     <use style="fill:#1f77b4;stroke:#1f77b4;" x="264.206096" xlink:href="#mb069215344" y="157.022362"/>
     <use style="fill:#1f77b4;stroke:#1f77b4;" x="258.791904" xlink:href="#mb069215344" y="159.646452"/>
     <use style="fill:#1f77b4;stroke:#1f77b4;" x="253.472725" xlink:href="#mb069215344" y="161.817902"/>
     <use style="fill:#1f77b4;stroke:#1f77b4;" x="248.248574" xlink:href="#mb069215344" y="163.420176"/>
     <use style="fill:#1f77b4;stroke:#1f77b4;" x="243.094355" xlink:href="#mb069215344" y="164.746194"/>
     <use style="fill:#1f77b4;stroke:#1f77b4;" x="238.045222" xlink:href="#mb069215344" y="165.527871"/>
     <use style="fill:#1f77b4;stroke:#1f77b4;" x="233.094493" xlink:href="#mb069215344" y="166.185421"/>
     <use style="fill:#1f77b4;stroke:#1f77b4;" x="228.228735" xlink:href="#mb069215344" y="166.327105"/>
     <use style="fill:#1f77b4;stroke:#1f77b4;" x="223.444987" xlink:href="#mb069215344" y="165.928503"/>
     <use style="fill:#1f77b4;stroke:#1f77b4;" x="218.753921" xlink:href="#mb069215344" y="165.314202"/>
     <use style="fill:#1f77b4;stroke:#1f77b4;" x="214.137221" xlink:href="#mb069215344" y="164.221394"/>
     <use style="fill:#1f77b4;stroke:#1f77b4;" x="209.617329" xlink:href="#mb069215344" y="163.261756"/>
     <use style="fill:#1f77b4;stroke:#1f77b4;" x="205.16593" xlink:href="#mb069215344" y="161.907064"/>
     <use style="fill:#1f77b4;stroke:#1f77b4;" x="200.797133" xlink:href="#mb069215344" y="159.972163"/>
     <use style="fill:#1f77b4;stroke:#1f77b4;" x="196.489964" xlink:href="#mb069215344" y="158.112187"/>
     <use style="fill:#1f77b4;stroke:#1f77b4;" x="192.271981" xlink:href="#mb069215344" y="155.563987"/>
     <use style="fill:#1f77b4;stroke:#1f77b4;" x="188.12172" xlink:href="#mb069215344" y="152.60955"/>
     <use style="fill:#1f77b4;stroke:#1f77b4;" x="184.067558" xlink:href="#mb069215344" y="149.914903"/>
     <use style="fill:#1f77b4;stroke:#1f77b4;" x="180.070371" xlink:href="#mb069215344" y="146.738329"/>
     <use style="fill:#1f77b4;stroke:#1f77b4;" x="176.15415" xlink:href="#mb069215344" y="143.135101"/>
     <use style="fill:#1f77b4;stroke:#1f77b4;" x="172.329778" xlink:href="#mb069215344" y="139.885962"/>
     <use style="fill:#1f77b4;stroke:#1f77b4;" x="168.531188" xlink:href="#mb069215344" y="136.342961"/>
     <use style="fill:#1f77b4;stroke:#1f77b4;" x="164.855893" xlink:href="#mb069215344" y="132.46"/>
     <use style="fill:#1f77b4;stroke:#1f77b4;" x="161.225061" xlink:href="#mb069215344" y="128.839546"/>
     <use style="fill:#1f77b4;stroke:#1f77b4;" x="157.650306" xlink:href="#mb069215344" y="124.611961"/>
     <use style="fill:#1f77b4;stroke:#1f77b4;" x="154.158115" xlink:href="#mb069215344" y="120.672477"/>
     <use style="fill:#1f77b4;stroke:#1f77b4;" x="150.719271" xlink:href="#mb069215344" y="116.305401"/>
     <use style="fill:#1f77b4;stroke:#1f77b4;" x="147.346362" xlink:href="#mb069215344" y="111.301443"/>
     <use style="fill:#1f77b4;stroke:#1f77b4;" x="144.064735" xlink:href="#mb069215344" y="107.106871"/>
     <use style="fill:#1f77b4;stroke:#1f77b4;" x="143.734034" xlink:href="#mb069215344" y="106.866018"/>
     <use style="fill:#1f77b4;stroke:#1f77b4;" x="143.402145" xlink:href="#mb069215344" y="106.501518"/>
     <use style="fill:#1f77b4;stroke:#1f77b4;" x="143.075546" xlink:href="#mb069215344" y="106.051848"/>
     <use style="fill:#1f77b4;stroke:#1f77b4;" x="142.750613" xlink:href="#mb069215344" y="105.541568"/>
     <use style="fill:#1f77b4;stroke:#1f77b4;" x="142.426583" xlink:href="#mb069215344" y="105.112"/>
     <use style="fill:#1f77b4;stroke:#1f77b4;" x="142.103731" xlink:href="#mb069215344" y="104.634835"/>
     <use style="fill:#1f77b4;stroke:#1f77b4;" x="141.783253" xlink:href="#mb069215344" y="104.199915"/>
     <use style="fill:#1f77b4;stroke:#1f77b4;" x="141.463615" xlink:href="#mb069215344" y="103.745191"/>
     <use style="fill:#1f77b4;stroke:#1f77b4;" x="141.14589" xlink:href="#mb069215344" y="103.333412"/>
     <use style="fill:#1f77b4;stroke:#1f77b4;" x="140.829557" xlink:href="#mb069215344" y="102.890077"/>
     <use style="fill:#1f77b4;stroke:#1f77b4;" x="140.510384" xlink:href="#mb069215344" y="102.394167"/>
     <use style="fill:#1f77b4;stroke:#1f77b4;" x="140.196683" xlink:href="#mb069215344" y="101.937419"/>
     <use style="fill:#1f77b4;stroke:#1f77b4;" x="139.883625" xlink:href="#mb069215344" y="101.526618"/>
     <use style="fill:#1f77b4;stroke:#1f77b4;" x="139.565569" xlink:href="#mb069215344" y="101.122665"/>
     <use style="fill:#1f77b4;stroke:#1f77b4;" x="139.253259" xlink:href="#mb069215344" y="100.675485"/>
     <use style="fill:#1f77b4;stroke:#1f77b4;" x="138.941597" xlink:href="#mb069215344" y="100.333116"/>
     <use style="fill:#1f77b4;stroke:#1f77b4;" x="138.626209" xlink:href="#mb069215344" y="99.910476"/>
     <use style="fill:#1f77b4;stroke:#1f77b4;" x="138.313827" xlink:href="#mb069215344" y="99.557482"/>
     <use style="fill:#1f77b4;stroke:#1f77b4;" x="138.002859" xlink:href="#mb069215344" y="99.065425"/>
     <use style="fill:#1f77b4;stroke:#1f77b4;" x="137.693096" xlink:href="#mb069215344" y="98.68258"/>
     <use style="fill:#1f77b4;stroke:#1f77b4;" x="137.387522" xlink:href="#mb069215344" y="98.324838"/>
     <use style="fill:#1f77b4;stroke:#1f77b4;" x="137.077176" xlink:href="#mb069215344" y="97.936106"/>
     <use style="fill:#1f77b4;stroke:#1f77b4;" x="136.772646" xlink:href="#mb069215344" y="97.576777"/>
     <use style="fill:#1f77b4;stroke:#1f77b4;" x="136.462676" xlink:href="#mb069215344" y="97.167716"/>
     <use style="fill:#1f77b4;stroke:#1f77b4;" x="136.155245" xlink:href="#mb069215344" y="96.751194"/>
     <use style="fill:#1f77b4;stroke:#1f77b4;" x="136.124214" xlink:href="#mb069215344" y="96.720933"/>
     <use style="fill:#1f77b4;stroke:#1f77b4;" x="136.093504" xlink:href="#mb069215344" y="96.690304"/>
     <use style="fill:#1f77b4;stroke:#1f77b4;" x="136.063047" xlink:href="#mb069215344" y="96.650293"/>
     <use style="fill:#1f77b4;stroke:#1f77b4;" x="136.032088" xlink:href="#mb069215344" y="96.623221"/>
     <use style="fill:#1f77b4;stroke:#1f77b4;" x="136.001865" xlink:href="#mb069215344" y="96.585395"/>
     <use style="fill:#1f77b4;stroke:#1f77b4;" x="135.971176" xlink:href="#mb069215344" y="96.548819"/>
     <use style="fill:#1f77b4;stroke:#1f77b4;" x="135.940383" xlink:href="#mb069215344" y="96.516661"/>
     <use style="fill:#1f77b4;stroke:#1f77b4;" x="135.909594" xlink:href="#mb069215344" y="96.474846"/>
     <use style="fill:#1f77b4;stroke:#1f77b4;" x="135.878941" xlink:href="#mb069215344" y="96.441714"/>
     <use style="fill:#1f77b4;stroke:#1f77b4;" x="135.848149" xlink:href="#mb069215344" y="96.418186"/>
     <use style="fill:#1f77b4;stroke:#1f77b4;" x="135.817491" xlink:href="#mb069215344" y="96.377081"/>
     <use style="fill:#1f77b4;stroke:#1f77b4;" x="135.786983" xlink:href="#mb069215344" y="96.342284"/>
     <use style="fill:#1f77b4;stroke:#1f77b4;" x="135.755975" xlink:href="#mb069215344" y="96.304757"/>
     <use style="fill:#1f77b4;stroke:#1f77b4;" x="135.724919" xlink:href="#mb069215344" y="96.281429"/>
     <use style="fill:#1f77b4;stroke:#1f77b4;" x="135.693745" xlink:href="#mb069215344" y="96.245292"/>
     <use style="fill:#1f77b4;stroke:#1f77b4;" x="135.664263" xlink:href="#mb069215344" y="96.212959"/>
     <use style="fill:#1f77b4;stroke:#1f77b4;" x="135.633942" xlink:href="#mb069215344" y="96.175197"/>
     <use style="fill:#1f77b4;stroke:#1f77b4;" x="135.602985" xlink:href="#mb069215344" y="96.135727"/>
     <use style="fill:#1f77b4;stroke:#1f77b4;" x="135.572409" xlink:href="#mb069215344" y="96.10922"/>
     <use style="fill:#1f77b4;stroke:#1f77b4;" x="135.541823" xlink:href="#mb069215344" y="96.073343"/>
     <use style="fill:#1f77b4;stroke:#1f77b4;" x="135.511621" xlink:href="#mb069215344" y="96.040658"/>
     <use style="fill:#1f77b4;stroke:#1f77b4;" x="135.480997" xlink:href="#mb069215344" y="96.00538"/>
     <use style="fill:#1f77b4;stroke:#1f77b4;" x="135.450291" xlink:href="#mb069215344" y="95.971807"/>
     <use style="fill:#1f77b4;stroke:#1f77b4;" x="135.419248" xlink:href="#mb069215344" y="95.935524"/>
    </g>
   </g>
   <g id="patch_3">
    <path d="M 56.028488 273.312 
L 56.028488 7.2 
" style="fill:none;stroke:#000000;stroke-linecap:square;stroke-linejoin:miter;stroke-width:0.8;"/>
   </g>
   <g id="patch_4">
    <path d="M 413.148488 273.312 
L 413.148488 7.2 
" style="fill:none;stroke:#000000;stroke-linecap:square;stroke-linejoin:miter;stroke-width:0.8;"/>
   </g>
   <g id="patch_5">
    <path d="M 56.028488 273.312 
L 413.148488 273.312 
" style="fill:none;stroke:#000000;stroke-linecap:square;stroke-linejoin:miter;stroke-width:0.8;"/>
   </g>
   <g id="patch_6">
    <path d="M 56.028488 7.2 
L 413.148488 7.2 
" style="fill:none;stroke:#000000;stroke-linecap:square;stroke-linejoin:miter;stroke-width:0.8;"/>
   </g>
   <g id="text_21">
    <g clip-path="url(#p2923a675bc)">
     <!-- 2.000 -->
     <g style="fill:#404688;" transform="translate(118.578532 113.509871)rotate(-81.974479)scale(0.06 -0.06)">
      <use xlink:href="#DejaVuSans-50"/>
      <use x="63.623047" xlink:href="#DejaVuSans-46"/>
      <use x="95.410156" xlink:href="#DejaVuSans-48"/>
      <use x="159.033203" xlink:href="#DejaVuSans-48"/>
      <use x="222.65625" xlink:href="#DejaVuSans-48"/>
     </g>
    </g>
   </g>
   <g id="text_22">
    <g clip-path="url(#p2923a675bc)">
     <!-- 2.500 -->
     <g style="fill:#39558c;" transform="translate(47.396781 148.16198)rotate(-358.384211)scale(0.06 -0.06)">
      <use xlink:href="#DejaVuSans-50"/>
      <use x="63.623047" xlink:href="#DejaVuSans-46"/>
      <use x="95.410156" xlink:href="#DejaVuSans-53"/>
      <use x="159.033203" xlink:href="#DejaVuSans-48"/>
      <use x="222.65625" xlink:href="#DejaVuSans-48"/>
     </g>
    </g>
   </g>
   <g id="text_23">
    <g clip-path="url(#p2923a675bc)">
     <!-- 3.000 -->
     <g style="fill:#33638d;" transform="translate(62.436163 21.879164)rotate(-30.703548)scale(0.06 -0.06)">
      <use xlink:href="#DejaVuSans-51"/>
      <use x="63.623047" xlink:href="#DejaVuSans-46"/>
      <use x="95.410156" xlink:href="#DejaVuSans-48"/>
      <use x="159.033203" xlink:href="#DejaVuSans-48"/>
      <use x="222.65625" xlink:href="#DejaVuSans-48"/>
     </g>
    </g>
   </g>
   <g id="text_24">
    <g clip-path="url(#p2923a675bc)">
     <!-- 3.000 -->
     <g style="fill:#33638d;" transform="translate(137.797764 69.596004)rotate(-270.71217)scale(0.06 -0.06)">
      <use xlink:href="#DejaVuSans-51"/>
      <use x="63.623047" xlink:href="#DejaVuSans-46"/>
      <use x="95.410156" xlink:href="#DejaVuSans-48"/>
      <use x="159.033203" xlink:href="#DejaVuSans-48"/>
      <use x="222.65625" xlink:href="#DejaVuSans-48"/>
     </g>
    </g>
   </g>
   <g id="text_25">
    <g clip-path="url(#p2923a675bc)">
     <!-- 3.500 -->
     <g style="fill:#2d718e;" transform="translate(129.500714 44.794798)rotate(-298.504823)scale(0.06 -0.06)">
      <use xlink:href="#DejaVuSans-51"/>
      <use x="63.623047" xlink:href="#DejaVuSans-46"/>
      <use x="95.410156" xlink:href="#DejaVuSans-53"/>
      <use x="159.033203" xlink:href="#DejaVuSans-48"/>
      <use x="222.65625" xlink:href="#DejaVuSans-48"/>
     </g>
    </g>
   </g>
   <g id="text_26">
    <g clip-path="url(#p2923a675bc)">
     <!-- 4.000 -->
     <g style="fill:#287d8e;" transform="translate(138.257378 87.361508)rotate(-271.489722)scale(0.06 -0.06)">
      <use xlink:href="#DejaVuSans-52"/>
      <use x="63.623047" xlink:href="#DejaVuSans-46"/>
      <use x="95.410156" xlink:href="#DejaVuSans-48"/>
      <use x="159.033203" xlink:href="#DejaVuSans-48"/>
      <use x="222.65625" xlink:href="#DejaVuSans-48"/>
     </g>
    </g>
   </g>
   <g id="text_27">
    <g clip-path="url(#p2923a675bc)">
     <!-- 4.500 -->
     <g style="fill:#238a8d;" transform="translate(138.377152 87.371585)rotate(-271.793462)scale(0.06 -0.06)">
      <use xlink:href="#DejaVuSans-52"/>
      <use x="63.623047" xlink:href="#DejaVuSans-46"/>
      <use x="95.410156" xlink:href="#DejaVuSans-53"/>
      <use x="159.033203" xlink:href="#DejaVuSans-48"/>
      <use x="222.65625" xlink:href="#DejaVuSans-48"/>
     </g>
    </g>
   </g>
   <g id="text_28">
    <g clip-path="url(#p2923a675bc)">
     <!-- 5.000 -->
     <g style="fill:#1f968b;" transform="translate(125.634899 16.64432)rotate(-277.549285)scale(0.06 -0.06)">
      <use xlink:href="#DejaVuSans-53"/>
      <use x="63.623047" xlink:href="#DejaVuSans-46"/>
      <use x="95.410156" xlink:href="#DejaVuSans-48"/>
      <use x="159.033203" xlink:href="#DejaVuSans-48"/>
      <use x="222.65625" xlink:href="#DejaVuSans-48"/>
     </g>
    </g>
   </g>
   <g id="text_29">
    <g clip-path="url(#p2923a675bc)">
     <!-- 5.500 -->
     <g style="fill:#20a386;" transform="translate(138.616918 87.392447)rotate(-272.400575)scale(0.06 -0.06)">
      <use xlink:href="#DejaVuSans-53"/>
      <use x="63.623047" xlink:href="#DejaVuSans-46"/>
      <use x="95.410156" xlink:href="#DejaVuSans-53"/>
      <use x="159.033203" xlink:href="#DejaVuSans-48"/>
      <use x="222.65625" xlink:href="#DejaVuSans-48"/>
     </g>
    </g>
   </g>
   <g id="text_30">
    <g clip-path="url(#p2923a675bc)">
     <!-- 6.000 -->
     <g style="fill:#29af7f;" transform="translate(139.112073 96.292593)rotate(-273.222014)scale(0.06 -0.06)">
      <use xlink:href="#DejaVuSans-54"/>
      <use x="63.623047" xlink:href="#DejaVuSans-46"/>
      <use x="95.410156" xlink:href="#DejaVuSans-48"/>
      <use x="159.033203" xlink:href="#DejaVuSans-48"/>
      <use x="222.65625" xlink:href="#DejaVuSans-48"/>
     </g>
    </g>
   </g>
   <g id="text_31">
    <g clip-path="url(#p2923a675bc)">
     <!-- 6.500 -->
     <g style="fill:#3dbc74;" transform="translate(139.273463 96.306635)rotate(-273.593916)scale(0.06 -0.06)">
      <use xlink:href="#DejaVuSans-54"/>
      <use x="63.623047" xlink:href="#DejaVuSans-46"/>
      <use x="95.410156" xlink:href="#DejaVuSans-53"/>
      <use x="159.033203" xlink:href="#DejaVuSans-48"/>
      <use x="222.65625" xlink:href="#DejaVuSans-48"/>
     </g>
    </g>
   </g>
   <g id="text_32">
    <g clip-path="url(#p2923a675bc)">
     <!-- 7.000 -->
     <g style="fill:#56c667;" transform="translate(139.435005 96.321017)rotate(-273.965417)scale(0.06 -0.06)">
      <use xlink:href="#DejaVuSans-55"/>
      <use x="63.623047" xlink:href="#DejaVuSans-46"/>
      <use x="95.410156" xlink:href="#DejaVuSans-48"/>
      <use x="159.033203" xlink:href="#DejaVuSans-48"/>
      <use x="222.65625" xlink:href="#DejaVuSans-48"/>
     </g>
    </g>
   </g>
   <g id="text_33">
    <g clip-path="url(#p2923a675bc)">
     <!-- 7.500 -->
     <g style="fill:#75d054;" transform="translate(139.596706 96.335737)rotate(-274.336474)scale(0.06 -0.06)">
      <use xlink:href="#DejaVuSans-55"/>
      <use x="63.623047" xlink:href="#DejaVuSans-46"/>
      <use x="95.410156" xlink:href="#DejaVuSans-53"/>
      <use x="159.033203" xlink:href="#DejaVuSans-48"/>
      <use x="222.65625" xlink:href="#DejaVuSans-48"/>
     </g>
    </g>
   </g>
   <g id="text_34">
    <g clip-path="url(#p2923a675bc)">
     <!-- 8.000 -->
     <g style="fill:#95d840;" transform="translate(139.758575 96.350791)rotate(-274.707049)scale(0.06 -0.06)">
      <use xlink:href="#DejaVuSans-56"/>
      <use x="63.623047" xlink:href="#DejaVuSans-46"/>
      <use x="95.410156" xlink:href="#DejaVuSans-48"/>
      <use x="159.033203" xlink:href="#DejaVuSans-48"/>
      <use x="222.65625" xlink:href="#DejaVuSans-48"/>
     </g>
    </g>
   </g>
   <g id="text_35">
    <g clip-path="url(#p2923a675bc)">
     <!-- 8.500 -->
     <g style="fill:#bade28;" transform="translate(139.92062 96.366176)rotate(-275.077099)scale(0.06 -0.06)">
      <use xlink:href="#DejaVuSans-56"/>
      <use x="63.623047" xlink:href="#DejaVuSans-46"/>
      <use x="95.410156" xlink:href="#DejaVuSans-53"/>
      <use x="159.033203" xlink:href="#DejaVuSans-48"/>
      <use x="222.65625" xlink:href="#DejaVuSans-48"/>
     </g>
    </g>
   </g>
   <g id="text_36">
    <g clip-path="url(#p2923a675bc)">
     <!-- 9.000 -->
     <g style="fill:#dde318;" transform="translate(140.082847 96.381886)rotate(-275.446585)scale(0.06 -0.06)">
      <use xlink:href="#DejaVuSans-57"/>
      <use x="63.623047" xlink:href="#DejaVuSans-46"/>
      <use x="95.410156" xlink:href="#DejaVuSans-48"/>
      <use x="159.033203" xlink:href="#DejaVuSans-48"/>
      <use x="222.65625" xlink:href="#DejaVuSans-48"/>
     </g>
    </g>
   </g>
   <g id="text_37">
    <g clip-path="url(#p2923a675bc)">
     <!-- 9.500 -->
     <g style="fill:#fde725;" transform="translate(140.245265 96.39792)rotate(-275.815468)scale(0.06 -0.06)">
      <use xlink:href="#DejaVuSans-57"/>
      <use x="63.623047" xlink:href="#DejaVuSans-46"/>
      <use x="95.410156" xlink:href="#DejaVuSans-53"/>
      <use x="159.033203" xlink:href="#DejaVuSans-48"/>
      <use x="222.65625" xlink:href="#DejaVuSans-48"/>
     </g>
    </g>
   </g>
   <g id="text_38">
    <g clip-path="url(#p2923a675bc)">
     <!-- 10.000 -->
     <g style="fill:#440154;" transform="translate(141.797394 112.54593)rotate(-281.3002)scale(0.06 -0.06)">
      <use xlink:href="#DejaVuSans-49"/>
      <use x="63.623047" xlink:href="#DejaVuSans-48"/>
      <use x="127.246094" xlink:href="#DejaVuSans-46"/>
      <use x="159.033203" xlink:href="#DejaVuSans-48"/>
      <use x="222.65625" xlink:href="#DejaVuSans-48"/>
      <use x="286.279297" xlink:href="#DejaVuSans-48"/>
     </g>
    </g>
   </g>
   <g id="text_39">
    <g clip-path="url(#p2923a675bc)">
     <!-- 100.000 -->
     <g style="fill:#440154;" transform="translate(150.58933 128.291134)rotate(-279.463758)scale(0.06 -0.06)">
      <use xlink:href="#DejaVuSans-49"/>
      <use x="63.623047" xlink:href="#DejaVuSans-48"/>
      <use x="127.246094" xlink:href="#DejaVuSans-48"/>
      <use x="190.869141" xlink:href="#DejaVuSans-46"/>
      <use x="222.65625" xlink:href="#DejaVuSans-48"/>
      <use x="286.279297" xlink:href="#DejaVuSans-48"/>
      <use x="349.902344" xlink:href="#DejaVuSans-48"/>
     </g>
    </g>
   </g>
   <g id="text_40">
    <g clip-path="url(#p2923a675bc)">
     <!-- 1000.000 -->
     <g style="fill:#440154;" transform="translate(161.428112 125.972158)rotate(-270.993088)scale(0.06 -0.06)">
      <use xlink:href="#DejaVuSans-49"/>
      <use x="63.623047" xlink:href="#DejaVuSans-48"/>
      <use x="127.246094" xlink:href="#DejaVuSans-48"/>
      <use x="190.869141" xlink:href="#DejaVuSans-48"/>
      <use x="254.492188" xlink:href="#DejaVuSans-46"/>
      <use x="286.279297" xlink:href="#DejaVuSans-48"/>
      <use x="349.902344" xlink:href="#DejaVuSans-48"/>
      <use x="413.525391" xlink:href="#DejaVuSans-48"/>
     </g>
    </g>
   </g>
   <g id="text_41">
    <g clip-path="url(#p2923a675bc)">
     <!-- 10000.000 -->
     <g style="fill:#440154;" transform="translate(161.138175 124.599615)rotate(-280.420771)scale(0.06 -0.06)">
      <use xlink:href="#DejaVuSans-49"/>
      <use x="63.623047" xlink:href="#DejaVuSans-48"/>
      <use x="127.246094" xlink:href="#DejaVuSans-48"/>
      <use x="190.869141" xlink:href="#DejaVuSans-48"/>
      <use x="254.492188" xlink:href="#DejaVuSans-48"/>
      <use x="318.115234" xlink:href="#DejaVuSans-46"/>
      <use x="349.902344" xlink:href="#DejaVuSans-48"/>
      <use x="413.525391" xlink:href="#DejaVuSans-48"/>
      <use x="477.148438" xlink:href="#DejaVuSans-48"/>
     </g>
    </g>
   </g>
   <g id="text_42">
    <g clip-path="url(#p2923a675bc)">
     <!-- 100000.000 -->
     <g style="fill:#440154;" transform="translate(171.955835 122.332316)rotate(-274.914624)scale(0.06 -0.06)">
      <use xlink:href="#DejaVuSans-49"/>
      <use x="63.623047" xlink:href="#DejaVuSans-48"/>
      <use x="127.246094" xlink:href="#DejaVuSans-48"/>
      <use x="190.869141" xlink:href="#DejaVuSans-48"/>
      <use x="254.492188" xlink:href="#DejaVuSans-48"/>
      <use x="318.115234" xlink:href="#DejaVuSans-48"/>
      <use x="381.738281" xlink:href="#DejaVuSans-46"/>
      <use x="413.525391" xlink:href="#DejaVuSans-48"/>
      <use x="477.148438" xlink:href="#DejaVuSans-48"/>
      <use x="540.771484" xlink:href="#DejaVuSans-48"/>
     </g>
    </g>
   </g>
   <g id="text_43">
    <g clip-path="url(#p2923a675bc)">
     <!-- 1000000.000 -->
     <g style="fill:#450457;" transform="translate(172.701011 120.538774)rotate(-276.608748)scale(0.06 -0.06)">
      <use xlink:href="#DejaVuSans-49"/>
      <use x="63.623047" xlink:href="#DejaVuSans-48"/>
      <use x="127.246094" xlink:href="#DejaVuSans-48"/>
      <use x="190.869141" xlink:href="#DejaVuSans-48"/>
      <use x="254.492188" xlink:href="#DejaVuSans-48"/>
      <use x="318.115234" xlink:href="#DejaVuSans-48"/>
      <use x="381.738281" xlink:href="#DejaVuSans-48"/>
      <use x="445.361328" xlink:href="#DejaVuSans-46"/>
      <use x="477.148438" xlink:href="#DejaVuSans-48"/>
      <use x="540.771484" xlink:href="#DejaVuSans-48"/>
      <use x="604.394531" xlink:href="#DejaVuSans-48"/>
     </g>
    </g>
   </g>
   <g id="text_44">
    <g clip-path="url(#p2923a675bc)">
     <!-- 10000000.000 -->
     <g style="fill:#482475;" transform="translate(181.764225 118.87679)rotate(-279.458447)scale(0.06 -0.06)">
      <use xlink:href="#DejaVuSans-49"/>
      <use x="63.623047" xlink:href="#DejaVuSans-48"/>
      <use x="127.246094" xlink:href="#DejaVuSans-48"/>
      <use x="190.869141" xlink:href="#DejaVuSans-48"/>
      <use x="254.492188" xlink:href="#DejaVuSans-48"/>
      <use x="318.115234" xlink:href="#DejaVuSans-48"/>
      <use x="381.738281" xlink:href="#DejaVuSans-48"/>
      <use x="445.361328" xlink:href="#DejaVuSans-48"/>
      <use x="508.984375" xlink:href="#DejaVuSans-46"/>
      <use x="540.771484" xlink:href="#DejaVuSans-48"/>
      <use x="604.394531" xlink:href="#DejaVuSans-48"/>
      <use x="668.017578" xlink:href="#DejaVuSans-48"/>
     </g>
    </g>
   </g>
   <g id="text_45">
    <g clip-path="url(#p2923a675bc)">
     <!-- 100000000.000 -->
     <g style="fill:#fde725;" transform="translate(184.30353 116.63339)rotate(-275.011383)scale(0.06 -0.06)">
      <use xlink:href="#DejaVuSans-49"/>
      <use x="63.623047" xlink:href="#DejaVuSans-48"/>
      <use x="127.246094" xlink:href="#DejaVuSans-48"/>
      <use x="190.869141" xlink:href="#DejaVuSans-48"/>
      <use x="254.492188" xlink:href="#DejaVuSans-48"/>
      <use x="318.115234" xlink:href="#DejaVuSans-48"/>
      <use x="381.738281" xlink:href="#DejaVuSans-48"/>
      <use x="445.361328" xlink:href="#DejaVuSans-48"/>
      <use x="508.984375" xlink:href="#DejaVuSans-48"/>
      <use x="572.607422" xlink:href="#DejaVuSans-46"/>
      <use x="604.394531" xlink:href="#DejaVuSans-48"/>
      <use x="668.017578" xlink:href="#DejaVuSans-48"/>
      <use x="731.640625" xlink:href="#DejaVuSans-48"/>
     </g>
    </g>
   </g>
  </g>
 </g>
 <defs>
  <clipPath id="p2923a675bc">
   <rect height="266.112" width="357.12" x="56.028488" y="7.2"/>
  </clipPath>
 </defs>
</svg>
