<?xml version="1.0" encoding="utf-8" standalone="no"?>
<!DOCTYPE svg PUBLIC "-//W3C//DTD SVG 1.1//EN"
  "http://www.w3.org/Graphics/SVG/1.1/DTD/svg11.dtd">
<!-- Created with matplotlib (https://matplotlib.org/) -->
<svg height="321.713144pt" version="1.1" viewBox="0 0 420.348487 321.713144" width="420.348487pt" xmlns="http://www.w3.org/2000/svg" xmlns:xlink="http://www.w3.org/1999/xlink">
 <metadata>
  <rdf:RDF xmlns:cc="http://creativecommons.org/ns#" xmlns:dc="http://purl.org/dc/elements/1.1/" xmlns:rdf="http://www.w3.org/1999/02/22-rdf-syntax-ns#">
   <cc:Work>
    <dc:type rdf:resource="http://purl.org/dc/dcmitype/StillImage"/>
    <dc:date>2021-09-17T13:43:09.332051</dc:date>
    <dc:format>image/svg+xml</dc:format>
    <dc:creator>
     <cc:Agent>
      <dc:title>Matplotlib v3.3.1, https://matplotlib.org/</dc:title>
     </cc:Agent>
    </dc:creator>
   </cc:Work>
  </rdf:RDF>
 </metadata>
 <defs>
  <style type="text/css">*{stroke-linecap:butt;stroke-linejoin:round;}</style>
 </defs>
 <g id="figure_1">
  <g id="patch_1">
   <path d="M 0 321.713144 
L 420.348487 321.713144 
L 420.348487 0 
L 0 0 
z
" style="fill:#ffffff;"/>
  </g>
  <g id="axes_1">
   <g id="patch_2">
    <path d="M 56.028488 277.111219 
L 413.148488 277.111219 
L 413.148488 10.999219 
L 56.028488 10.999219 
z
" style="fill:#ffffff;"/>
   </g>
   <g id="matplotlib.axis_1">
    <g id="xtick_1">
     <g id="line2d_1">
      <defs>
       <path d="M 0 0 
L 0 3.5 
" id="m178e9a498c" style="stroke:#000000;stroke-width:0.8;"/>
      </defs>
      <g>
       <use style="stroke:#000000;stroke-width:0.8;" x="56.028487" xlink:href="#m178e9a498c" y="277.111219"/>
      </g>
     </g>
     <g id="text_1">
      <!-- −20 -->
      <g transform="translate(45.476144 291.709656)scale(0.1 -0.1)">
       <defs>
        <path d="M 10.59375 35.5 
L 73.1875 35.5 
L 73.1875 27.203125 
L 10.59375 27.203125 
z
" id="DejaVuSans-8722"/>
        <path d="M 19.1875 8.296875 
L 53.609375 8.296875 
L 53.609375 0 
L 7.328125 0 
L 7.328125 8.296875 
Q 12.9375 14.109375 22.625 23.890625 
Q 32.328125 33.6875 34.8125 36.53125 
Q 39.546875 41.84375 41.421875 45.53125 
Q 43.3125 49.21875 43.3125 52.78125 
Q 43.3125 58.59375 39.234375 62.25 
Q 35.15625 65.921875 28.609375 65.921875 
Q 23.96875 65.921875 18.8125 64.3125 
Q 13.671875 62.703125 7.8125 59.421875 
L 7.8125 69.390625 
Q 13.765625 71.78125 18.9375 73 
Q 24.125 74.21875 28.421875 74.21875 
Q 39.75 74.21875 46.484375 68.546875 
Q 53.21875 62.890625 53.21875 53.421875 
Q 53.21875 48.921875 51.53125 44.890625 
Q 49.859375 40.875 45.40625 35.40625 
Q 44.1875 33.984375 37.640625 27.21875 
Q 31.109375 20.453125 19.1875 8.296875 
z
" id="DejaVuSans-50"/>
        <path d="M 31.78125 66.40625 
Q 24.171875 66.40625 20.328125 58.90625 
Q 16.5 51.421875 16.5 36.375 
Q 16.5 21.390625 20.328125 13.890625 
Q 24.171875 6.390625 31.78125 6.390625 
Q 39.453125 6.390625 43.28125 13.890625 
Q 47.125 21.390625 47.125 36.375 
Q 47.125 51.421875 43.28125 58.90625 
Q 39.453125 66.40625 31.78125 66.40625 
z
M 31.78125 74.21875 
Q 44.046875 74.21875 50.515625 64.515625 
Q 56.984375 54.828125 56.984375 36.375 
Q 56.984375 17.96875 50.515625 8.265625 
Q 44.046875 -1.421875 31.78125 -1.421875 
Q 19.53125 -1.421875 13.0625 8.265625 
Q 6.59375 17.96875 6.59375 36.375 
Q 6.59375 54.828125 13.0625 64.515625 
Q 19.53125 74.21875 31.78125 74.21875 
z
" id="DejaVuSans-48"/>
       </defs>
       <use xlink:href="#DejaVuSans-8722"/>
       <use x="83.789062" xlink:href="#DejaVuSans-50"/>
       <use x="147.412109" xlink:href="#DejaVuSans-48"/>
      </g>
     </g>
    </g>
    <g id="xtick_2">
     <g id="line2d_2">
      <g>
       <use style="stroke:#000000;stroke-width:0.8;" x="103.644488" xlink:href="#m178e9a498c" y="277.111219"/>
      </g>
     </g>
     <g id="text_2">
      <!-- 0 -->
      <g transform="translate(100.463238 291.709656)scale(0.1 -0.1)">
       <use xlink:href="#DejaVuSans-48"/>
      </g>
     </g>
    </g>
    <g id="xtick_3">
     <g id="line2d_3">
      <g>
       <use style="stroke:#000000;stroke-width:0.8;" x="151.260488" xlink:href="#m178e9a498c" y="277.111219"/>
      </g>
     </g>
     <g id="text_3">
      <!-- 20 -->
      <g transform="translate(144.897987 291.709656)scale(0.1 -0.1)">
       <use xlink:href="#DejaVuSans-50"/>
       <use x="63.623047" xlink:href="#DejaVuSans-48"/>
      </g>
     </g>
    </g>
    <g id="xtick_4">
     <g id="line2d_4">
      <g>
       <use style="stroke:#000000;stroke-width:0.8;" x="198.876488" xlink:href="#m178e9a498c" y="277.111219"/>
      </g>
     </g>
     <g id="text_4">
      <!-- 40 -->
      <g transform="translate(192.513988 291.709656)scale(0.1 -0.1)">
       <defs>
        <path d="M 37.796875 64.3125 
L 12.890625 25.390625 
L 37.796875 25.390625 
z
M 35.203125 72.90625 
L 47.609375 72.90625 
L 47.609375 25.390625 
L 58.015625 25.390625 
L 58.015625 17.1875 
L 47.609375 17.1875 
L 47.609375 0 
L 37.796875 0 
L 37.796875 17.1875 
L 4.890625 17.1875 
L 4.890625 26.703125 
z
" id="DejaVuSans-52"/>
       </defs>
       <use xlink:href="#DejaVuSans-52"/>
       <use x="63.623047" xlink:href="#DejaVuSans-48"/>
      </g>
     </g>
    </g>
    <g id="xtick_5">
     <g id="line2d_5">
      <g>
       <use style="stroke:#000000;stroke-width:0.8;" x="246.492488" xlink:href="#m178e9a498c" y="277.111219"/>
      </g>
     </g>
     <g id="text_5">
      <!-- 60 -->
      <g transform="translate(240.129988 291.709656)scale(0.1 -0.1)">
       <defs>
        <path d="M 33.015625 40.375 
Q 26.375 40.375 22.484375 35.828125 
Q 18.609375 31.296875 18.609375 23.390625 
Q 18.609375 15.53125 22.484375 10.953125 
Q 26.375 6.390625 33.015625 6.390625 
Q 39.65625 6.390625 43.53125 10.953125 
Q 47.40625 15.53125 47.40625 23.390625 
Q 47.40625 31.296875 43.53125 35.828125 
Q 39.65625 40.375 33.015625 40.375 
z
M 52.59375 71.296875 
L 52.59375 62.3125 
Q 48.875 64.0625 45.09375 64.984375 
Q 41.3125 65.921875 37.59375 65.921875 
Q 27.828125 65.921875 22.671875 59.328125 
Q 17.53125 52.734375 16.796875 39.40625 
Q 19.671875 43.65625 24.015625 45.921875 
Q 28.375 48.1875 33.59375 48.1875 
Q 44.578125 48.1875 50.953125 41.515625 
Q 57.328125 34.859375 57.328125 23.390625 
Q 57.328125 12.15625 50.6875 5.359375 
Q 44.046875 -1.421875 33.015625 -1.421875 
Q 20.359375 -1.421875 13.671875 8.265625 
Q 6.984375 17.96875 6.984375 36.375 
Q 6.984375 53.65625 15.1875 63.9375 
Q 23.390625 74.21875 37.203125 74.21875 
Q 40.921875 74.21875 44.703125 73.484375 
Q 48.484375 72.75 52.59375 71.296875 
z
" id="DejaVuSans-54"/>
       </defs>
       <use xlink:href="#DejaVuSans-54"/>
       <use x="63.623047" xlink:href="#DejaVuSans-48"/>
      </g>
     </g>
    </g>
    <g id="xtick_6">
     <g id="line2d_6">
      <g>
       <use style="stroke:#000000;stroke-width:0.8;" x="294.108488" xlink:href="#m178e9a498c" y="277.111219"/>
      </g>
     </g>
     <g id="text_6">
      <!-- 80 -->
      <g transform="translate(287.745988 291.709656)scale(0.1 -0.1)">
       <defs>
        <path d="M 31.78125 34.625 
Q 24.75 34.625 20.71875 30.859375 
Q 16.703125 27.09375 16.703125 20.515625 
Q 16.703125 13.921875 20.71875 10.15625 
Q 24.75 6.390625 31.78125 6.390625 
Q 38.8125 6.390625 42.859375 10.171875 
Q 46.921875 13.96875 46.921875 20.515625 
Q 46.921875 27.09375 42.890625 30.859375 
Q 38.875 34.625 31.78125 34.625 
z
M 21.921875 38.8125 
Q 15.578125 40.375 12.03125 44.71875 
Q 8.5 49.078125 8.5 55.328125 
Q 8.5 64.0625 14.71875 69.140625 
Q 20.953125 74.21875 31.78125 74.21875 
Q 42.671875 74.21875 48.875 69.140625 
Q 55.078125 64.0625 55.078125 55.328125 
Q 55.078125 49.078125 51.53125 44.71875 
Q 48 40.375 41.703125 38.8125 
Q 48.828125 37.15625 52.796875 32.3125 
Q 56.78125 27.484375 56.78125 20.515625 
Q 56.78125 9.90625 50.3125 4.234375 
Q 43.84375 -1.421875 31.78125 -1.421875 
Q 19.734375 -1.421875 13.25 4.234375 
Q 6.78125 9.90625 6.78125 20.515625 
Q 6.78125 27.484375 10.78125 32.3125 
Q 14.796875 37.15625 21.921875 38.8125 
z
M 18.3125 54.390625 
Q 18.3125 48.734375 21.84375 45.5625 
Q 25.390625 42.390625 31.78125 42.390625 
Q 38.140625 42.390625 41.71875 45.5625 
Q 45.3125 48.734375 45.3125 54.390625 
Q 45.3125 60.0625 41.71875 63.234375 
Q 38.140625 66.40625 31.78125 66.40625 
Q 25.390625 66.40625 21.84375 63.234375 
Q 18.3125 60.0625 18.3125 54.390625 
z
" id="DejaVuSans-56"/>
       </defs>
       <use xlink:href="#DejaVuSans-56"/>
       <use x="63.623047" xlink:href="#DejaVuSans-48"/>
      </g>
     </g>
    </g>
    <g id="xtick_7">
     <g id="line2d_7">
      <g>
       <use style="stroke:#000000;stroke-width:0.8;" x="341.724488" xlink:href="#m178e9a498c" y="277.111219"/>
      </g>
     </g>
     <g id="text_7">
      <!-- 100 -->
      <g transform="translate(332.180738 291.709656)scale(0.1 -0.1)">
       <defs>
        <path d="M 12.40625 8.296875 
L 28.515625 8.296875 
L 28.515625 63.921875 
L 10.984375 60.40625 
L 10.984375 69.390625 
L 28.421875 72.90625 
L 38.28125 72.90625 
L 38.28125 8.296875 
L 54.390625 8.296875 
L 54.390625 0 
L 12.40625 0 
z
" id="DejaVuSans-49"/>
       </defs>
       <use xlink:href="#DejaVuSans-49"/>
       <use x="63.623047" xlink:href="#DejaVuSans-48"/>
       <use x="127.246094" xlink:href="#DejaVuSans-48"/>
      </g>
     </g>
    </g>
    <g id="xtick_8">
     <g id="line2d_8">
      <g>
       <use style="stroke:#000000;stroke-width:0.8;" x="389.340488" xlink:href="#m178e9a498c" y="277.111219"/>
      </g>
     </g>
     <g id="text_8">
      <!-- 120 -->
      <g transform="translate(379.796738 291.709656)scale(0.1 -0.1)">
       <use xlink:href="#DejaVuSans-49"/>
       <use x="63.623047" xlink:href="#DejaVuSans-50"/>
       <use x="127.246094" xlink:href="#DejaVuSans-48"/>
      </g>
     </g>
    </g>
    <g id="text_9">
     <!-- 1st PC: 98.29 % -->
     <g transform="translate(165.868088 310.919444)scale(0.1728 -0.1728)">
      <defs>
       <path d="M 44.28125 53.078125 
L 44.28125 44.578125 
Q 40.484375 46.53125 36.375 47.5 
Q 32.28125 48.484375 27.875 48.484375 
Q 21.1875 48.484375 17.84375 46.4375 
Q 14.5 44.390625 14.5 40.28125 
Q 14.5 37.15625 16.890625 35.375 
Q 19.28125 33.59375 26.515625 31.984375 
L 29.59375 31.296875 
Q 39.15625 29.25 43.1875 25.515625 
Q 47.21875 21.78125 47.21875 15.09375 
Q 47.21875 7.46875 41.1875 3.015625 
Q 35.15625 -1.421875 24.609375 -1.421875 
Q 20.21875 -1.421875 15.453125 -0.5625 
Q 10.6875 0.296875 5.421875 2 
L 5.421875 11.28125 
Q 10.40625 8.6875 15.234375 7.390625 
Q 20.0625 6.109375 24.8125 6.109375 
Q 31.15625 6.109375 34.5625 8.28125 
Q 37.984375 10.453125 37.984375 14.40625 
Q 37.984375 18.0625 35.515625 20.015625 
Q 33.0625 21.96875 24.703125 23.78125 
L 21.578125 24.515625 
Q 13.234375 26.265625 9.515625 29.90625 
Q 5.8125 33.546875 5.8125 39.890625 
Q 5.8125 47.609375 11.28125 51.796875 
Q 16.75 56 26.8125 56 
Q 31.78125 56 36.171875 55.265625 
Q 40.578125 54.546875 44.28125 53.078125 
z
" id="DejaVuSans-115"/>
       <path d="M 18.3125 70.21875 
L 18.3125 54.6875 
L 36.8125 54.6875 
L 36.8125 47.703125 
L 18.3125 47.703125 
L 18.3125 18.015625 
Q 18.3125 11.328125 20.140625 9.421875 
Q 21.96875 7.515625 27.59375 7.515625 
L 36.8125 7.515625 
L 36.8125 0 
L 27.59375 0 
Q 17.1875 0 13.234375 3.875 
Q 9.28125 7.765625 9.28125 18.015625 
L 9.28125 47.703125 
L 2.6875 47.703125 
L 2.6875 54.6875 
L 9.28125 54.6875 
L 9.28125 70.21875 
z
" id="DejaVuSans-116"/>
       <path id="DejaVuSans-32"/>
       <path d="M 19.671875 64.796875 
L 19.671875 37.40625 
L 32.078125 37.40625 
Q 38.96875 37.40625 42.71875 40.96875 
Q 46.484375 44.53125 46.484375 51.125 
Q 46.484375 57.671875 42.71875 61.234375 
Q 38.96875 64.796875 32.078125 64.796875 
z
M 9.8125 72.90625 
L 32.078125 72.90625 
Q 44.34375 72.90625 50.609375 67.359375 
Q 56.890625 61.8125 56.890625 51.125 
Q 56.890625 40.328125 50.609375 34.8125 
Q 44.34375 29.296875 32.078125 29.296875 
L 19.671875 29.296875 
L 19.671875 0 
L 9.8125 0 
z
" id="DejaVuSans-80"/>
       <path d="M 64.40625 67.28125 
L 64.40625 56.890625 
Q 59.421875 61.53125 53.78125 63.8125 
Q 48.140625 66.109375 41.796875 66.109375 
Q 29.296875 66.109375 22.65625 58.46875 
Q 16.015625 50.828125 16.015625 36.375 
Q 16.015625 21.96875 22.65625 14.328125 
Q 29.296875 6.6875 41.796875 6.6875 
Q 48.140625 6.6875 53.78125 8.984375 
Q 59.421875 11.28125 64.40625 15.921875 
L 64.40625 5.609375 
Q 59.234375 2.09375 53.4375 0.328125 
Q 47.65625 -1.421875 41.21875 -1.421875 
Q 24.65625 -1.421875 15.125 8.703125 
Q 5.609375 18.84375 5.609375 36.375 
Q 5.609375 53.953125 15.125 64.078125 
Q 24.65625 74.21875 41.21875 74.21875 
Q 47.75 74.21875 53.53125 72.484375 
Q 59.328125 70.75 64.40625 67.28125 
z
" id="DejaVuSans-67"/>
       <path d="M 11.71875 12.40625 
L 22.015625 12.40625 
L 22.015625 0 
L 11.71875 0 
z
M 11.71875 51.703125 
L 22.015625 51.703125 
L 22.015625 39.3125 
L 11.71875 39.3125 
z
" id="DejaVuSans-58"/>
       <path d="M 10.984375 1.515625 
L 10.984375 10.5 
Q 14.703125 8.734375 18.5 7.8125 
Q 22.3125 6.890625 25.984375 6.890625 
Q 35.75 6.890625 40.890625 13.453125 
Q 46.046875 20.015625 46.78125 33.40625 
Q 43.953125 29.203125 39.59375 26.953125 
Q 35.25 24.703125 29.984375 24.703125 
Q 19.046875 24.703125 12.671875 31.3125 
Q 6.296875 37.9375 6.296875 49.421875 
Q 6.296875 60.640625 12.9375 67.421875 
Q 19.578125 74.21875 30.609375 74.21875 
Q 43.265625 74.21875 49.921875 64.515625 
Q 56.59375 54.828125 56.59375 36.375 
Q 56.59375 19.140625 48.40625 8.859375 
Q 40.234375 -1.421875 26.421875 -1.421875 
Q 22.703125 -1.421875 18.890625 -0.6875 
Q 15.09375 0.046875 10.984375 1.515625 
z
M 30.609375 32.421875 
Q 37.25 32.421875 41.125 36.953125 
Q 45.015625 41.5 45.015625 49.421875 
Q 45.015625 57.28125 41.125 61.84375 
Q 37.25 66.40625 30.609375 66.40625 
Q 23.96875 66.40625 20.09375 61.84375 
Q 16.21875 57.28125 16.21875 49.421875 
Q 16.21875 41.5 20.09375 36.953125 
Q 23.96875 32.421875 30.609375 32.421875 
z
" id="DejaVuSans-57"/>
       <path d="M 10.6875 12.40625 
L 21 12.40625 
L 21 0 
L 10.6875 0 
z
" id="DejaVuSans-46"/>
       <path d="M 72.703125 32.078125 
Q 68.453125 32.078125 66.03125 28.46875 
Q 63.625 24.859375 63.625 18.40625 
Q 63.625 12.0625 66.03125 8.421875 
Q 68.453125 4.78125 72.703125 4.78125 
Q 76.859375 4.78125 79.265625 8.421875 
Q 81.6875 12.0625 81.6875 18.40625 
Q 81.6875 24.8125 79.265625 28.4375 
Q 76.859375 32.078125 72.703125 32.078125 
z
M 72.703125 38.28125 
Q 80.421875 38.28125 84.953125 32.90625 
Q 89.5 27.546875 89.5 18.40625 
Q 89.5 9.28125 84.9375 3.921875 
Q 80.375 -1.421875 72.703125 -1.421875 
Q 64.890625 -1.421875 60.34375 3.921875 
Q 55.8125 9.28125 55.8125 18.40625 
Q 55.8125 27.59375 60.375 32.9375 
Q 64.9375 38.28125 72.703125 38.28125 
z
M 22.3125 68.015625 
Q 18.109375 68.015625 15.6875 64.375 
Q 13.28125 60.75 13.28125 54.390625 
Q 13.28125 47.953125 15.671875 44.328125 
Q 18.0625 40.71875 22.3125 40.71875 
Q 26.5625 40.71875 28.96875 44.328125 
Q 31.390625 47.953125 31.390625 54.390625 
Q 31.390625 60.6875 28.953125 64.34375 
Q 26.515625 68.015625 22.3125 68.015625 
z
M 66.40625 74.21875 
L 74.21875 74.21875 
L 28.609375 -1.421875 
L 20.796875 -1.421875 
z
M 22.3125 74.21875 
Q 30.03125 74.21875 34.609375 68.875 
Q 39.203125 63.53125 39.203125 54.390625 
Q 39.203125 45.171875 34.640625 39.84375 
Q 30.078125 34.515625 22.3125 34.515625 
Q 14.546875 34.515625 10.03125 39.859375 
Q 5.515625 45.21875 5.515625 54.390625 
Q 5.515625 63.484375 10.046875 68.84375 
Q 14.59375 74.21875 22.3125 74.21875 
z
" id="DejaVuSans-37"/>
      </defs>
      <use xlink:href="#DejaVuSans-49"/>
      <use x="63.623047" xlink:href="#DejaVuSans-115"/>
      <use x="115.722656" xlink:href="#DejaVuSans-116"/>
      <use x="154.931641" xlink:href="#DejaVuSans-32"/>
      <use x="186.71875" xlink:href="#DejaVuSans-80"/>
      <use x="247.021484" xlink:href="#DejaVuSans-67"/>
      <use x="316.845703" xlink:href="#DejaVuSans-58"/>
      <use x="350.537109" xlink:href="#DejaVuSans-32"/>
      <use x="382.324219" xlink:href="#DejaVuSans-57"/>
      <use x="445.947266" xlink:href="#DejaVuSans-56"/>
      <use x="509.570312" xlink:href="#DejaVuSans-46"/>
      <use x="541.357422" xlink:href="#DejaVuSans-50"/>
      <use x="604.980469" xlink:href="#DejaVuSans-57"/>
      <use x="668.603516" xlink:href="#DejaVuSans-32"/>
      <use x="700.390625" xlink:href="#DejaVuSans-37"/>
     </g>
    </g>
   </g>
   <g id="matplotlib.axis_2">
    <g id="ytick_1">
     <g id="line2d_9">
      <defs>
       <path d="M 0 0 
L -3.5 0 
" id="m199c9d1b35" style="stroke:#000000;stroke-width:0.8;"/>
      </defs>
      <g>
       <use style="stroke:#000000;stroke-width:0.8;" x="56.028488" xlink:href="#m199c9d1b35" y="277.111219"/>
      </g>
     </g>
     <g id="text_10">
      <!-- −10 -->
      <g transform="translate(27.9238 280.910437)scale(0.1 -0.1)">
       <use xlink:href="#DejaVuSans-8722"/>
       <use x="83.789062" xlink:href="#DejaVuSans-49"/>
       <use x="147.412109" xlink:href="#DejaVuSans-48"/>
      </g>
     </g>
    </g>
    <g id="ytick_2">
     <g id="line2d_10">
      <g>
       <use style="stroke:#000000;stroke-width:0.8;" x="56.028488" xlink:href="#m199c9d1b35" y="247.543219"/>
      </g>
     </g>
     <g id="text_11">
      <!-- −8 -->
      <g transform="translate(34.2863 251.342437)scale(0.1 -0.1)">
       <use xlink:href="#DejaVuSans-8722"/>
       <use x="83.789062" xlink:href="#DejaVuSans-56"/>
      </g>
     </g>
    </g>
    <g id="ytick_3">
     <g id="line2d_11">
      <g>
       <use style="stroke:#000000;stroke-width:0.8;" x="56.028488" xlink:href="#m199c9d1b35" y="217.975219"/>
      </g>
     </g>
     <g id="text_12">
      <!-- −6 -->
      <g transform="translate(34.2863 221.774437)scale(0.1 -0.1)">
       <use xlink:href="#DejaVuSans-8722"/>
       <use x="83.789062" xlink:href="#DejaVuSans-54"/>
      </g>
     </g>
    </g>
    <g id="ytick_4">
     <g id="line2d_12">
      <g>
       <use style="stroke:#000000;stroke-width:0.8;" x="56.028488" xlink:href="#m199c9d1b35" y="188.407219"/>
      </g>
     </g>
     <g id="text_13">
      <!-- −4 -->
      <g transform="translate(34.2863 192.206437)scale(0.1 -0.1)">
       <use xlink:href="#DejaVuSans-8722"/>
       <use x="83.789062" xlink:href="#DejaVuSans-52"/>
      </g>
     </g>
    </g>
    <g id="ytick_5">
     <g id="line2d_13">
      <g>
       <use style="stroke:#000000;stroke-width:0.8;" x="56.028488" xlink:href="#m199c9d1b35" y="158.839219"/>
      </g>
     </g>
     <g id="text_14">
      <!-- −2 -->
      <g transform="translate(34.2863 162.638437)scale(0.1 -0.1)">
       <use xlink:href="#DejaVuSans-8722"/>
       <use x="83.789062" xlink:href="#DejaVuSans-50"/>
      </g>
     </g>
    </g>
    <g id="ytick_6">
     <g id="line2d_14">
      <g>
       <use style="stroke:#000000;stroke-width:0.8;" x="56.028488" xlink:href="#m199c9d1b35" y="129.271219"/>
      </g>
     </g>
     <g id="text_15">
      <!-- 0 -->
      <g transform="translate(42.665987 133.070437)scale(0.1 -0.1)">
       <use xlink:href="#DejaVuSans-48"/>
      </g>
     </g>
    </g>
    <g id="ytick_7">
     <g id="line2d_15">
      <g>
       <use style="stroke:#000000;stroke-width:0.8;" x="56.028488" xlink:href="#m199c9d1b35" y="99.703219"/>
      </g>
     </g>
     <g id="text_16">
      <!-- 2 -->
      <g transform="translate(42.665987 103.502437)scale(0.1 -0.1)">
       <use xlink:href="#DejaVuSans-50"/>
      </g>
     </g>
    </g>
    <g id="ytick_8">
     <g id="line2d_16">
      <g>
       <use style="stroke:#000000;stroke-width:0.8;" x="56.028488" xlink:href="#m199c9d1b35" y="70.135219"/>
      </g>
     </g>
     <g id="text_17">
      <!-- 4 -->
      <g transform="translate(42.665987 73.934437)scale(0.1 -0.1)">
       <use xlink:href="#DejaVuSans-52"/>
      </g>
     </g>
    </g>
    <g id="ytick_9">
     <g id="line2d_17">
      <g>
       <use style="stroke:#000000;stroke-width:0.8;" x="56.028488" xlink:href="#m199c9d1b35" y="40.567219"/>
      </g>
     </g>
     <g id="text_18">
      <!-- 6 -->
      <g transform="translate(42.665987 44.366437)scale(0.1 -0.1)">
       <use xlink:href="#DejaVuSans-54"/>
      </g>
     </g>
    </g>
    <g id="ytick_10">
     <g id="line2d_18">
      <g>
       <use style="stroke:#000000;stroke-width:0.8;" x="56.028488" xlink:href="#m199c9d1b35" y="10.999219"/>
      </g>
     </g>
     <g id="text_19">
      <!-- 8 -->
      <g transform="translate(42.665987 14.798437)scale(0.1 -0.1)">
       <use xlink:href="#DejaVuSans-56"/>
      </g>
     </g>
    </g>
    <g id="text_20">
     <!-- 2nd PC: 0.80 % -->
     <g transform="translate(20.3301 210.351019)rotate(-90)scale(0.1728 -0.1728)">
      <defs>
       <path d="M 54.890625 33.015625 
L 54.890625 0 
L 45.90625 0 
L 45.90625 32.71875 
Q 45.90625 40.484375 42.875 44.328125 
Q 39.84375 48.1875 33.796875 48.1875 
Q 26.515625 48.1875 22.3125 43.546875 
Q 18.109375 38.921875 18.109375 30.90625 
L 18.109375 0 
L 9.078125 0 
L 9.078125 54.6875 
L 18.109375 54.6875 
L 18.109375 46.1875 
Q 21.34375 51.125 25.703125 53.5625 
Q 30.078125 56 35.796875 56 
Q 45.21875 56 50.046875 50.171875 
Q 54.890625 44.34375 54.890625 33.015625 
z
" id="DejaVuSans-110"/>
       <path d="M 45.40625 46.390625 
L 45.40625 75.984375 
L 54.390625 75.984375 
L 54.390625 0 
L 45.40625 0 
L 45.40625 8.203125 
Q 42.578125 3.328125 38.25 0.953125 
Q 33.9375 -1.421875 27.875 -1.421875 
Q 17.96875 -1.421875 11.734375 6.484375 
Q 5.515625 14.40625 5.515625 27.296875 
Q 5.515625 40.1875 11.734375 48.09375 
Q 17.96875 56 27.875 56 
Q 33.9375 56 38.25 53.625 
Q 42.578125 51.265625 45.40625 46.390625 
z
M 14.796875 27.296875 
Q 14.796875 17.390625 18.875 11.75 
Q 22.953125 6.109375 30.078125 6.109375 
Q 37.203125 6.109375 41.296875 11.75 
Q 45.40625 17.390625 45.40625 27.296875 
Q 45.40625 37.203125 41.296875 42.84375 
Q 37.203125 48.484375 30.078125 48.484375 
Q 22.953125 48.484375 18.875 42.84375 
Q 14.796875 37.203125 14.796875 27.296875 
z
" id="DejaVuSans-100"/>
      </defs>
      <use xlink:href="#DejaVuSans-50"/>
      <use x="63.623047" xlink:href="#DejaVuSans-110"/>
      <use x="127.001953" xlink:href="#DejaVuSans-100"/>
      <use x="190.478516" xlink:href="#DejaVuSans-32"/>
      <use x="222.265625" xlink:href="#DejaVuSans-80"/>
      <use x="282.568359" xlink:href="#DejaVuSans-67"/>
      <use x="352.392578" xlink:href="#DejaVuSans-58"/>
      <use x="386.083984" xlink:href="#DejaVuSans-32"/>
      <use x="417.871094" xlink:href="#DejaVuSans-48"/>
      <use x="481.494141" xlink:href="#DejaVuSans-46"/>
      <use x="513.28125" xlink:href="#DejaVuSans-56"/>
      <use x="576.904297" xlink:href="#DejaVuSans-48"/>
      <use x="640.527344" xlink:href="#DejaVuSans-32"/>
      <use x="672.314453" xlink:href="#DejaVuSans-37"/>
     </g>
    </g>
   </g>
   <g id="LineCollection_1"/>
   <g id="LineCollection_2"/>
   <g id="LineCollection_3">
    <path clip-path="url(#pefce66e525)" d="M 100.409968 113.714729 
L 100.47015 108.573619 
L 100.716757 99.703219 
L 101.327957 90.832819 
L 103.221144 81.962419 
L 103.644488 81.234821 
L 103.649351 81.962419 
L 103.688772 90.832819 
L 103.724289 99.703219 
L 103.767052 108.573619 
L 103.824169 117.444019 
L 103.861796 126.314419 
L 103.870796 135.184819 
L 103.887361 144.055219 
L 103.911803 152.925619 
L 103.937407 161.796019 
L 103.960964 170.666419 
L 103.970778 179.536819 
L 103.953419 188.407219 
L 103.903802 197.277619 
L 103.831159 206.148019 
L 103.751783 215.018419 
L 103.677874 223.888819 
L 103.644488 228.153583 
L 103.173336 223.888819 
L 102.451249 215.018419 
L 101.92157 206.148019 
L 101.519377 197.277619 
L 101.206396 188.407219 
L 100.960061 179.536819 
L 100.765063 170.666419 
L 100.611376 161.796019 
L 100.492933 152.925619 
L 100.406836 144.055219 
L 100.3755 138.914332 
" style="fill:none;stroke:#482576;stroke-width:1.5;"/>
   </g>
   <g id="LineCollection_4">
    <path clip-path="url(#pefce66e525)" d="M 104.687982 192.136687 
L 104.660972 197.277619 
L 104.538502 206.148019 
L 104.376801 215.018419 
L 104.210749 223.888819 
L 104.059225 232.759219 
L 103.92851 241.629619 
L 103.818417 250.500019 
L 103.726286 259.370419 
L 103.648949 268.240819 
L 103.644488 268.736584 
L 103.005443 268.240819 
L 98.379525 259.370419 
L 96.932057 250.500019 
L 96.258095 241.629619 
L 95.883444 232.759219 
L 95.65332 223.888819 
L 95.500379 215.018419 
L 95.393021 206.148019 
L 95.314301 197.277619 
L 95.254579 188.407219 
L 95.208609 179.536819 
L 95.172557 170.666419 
L 95.143616 161.796019 
L 95.120309 152.925619 
L 95.102218 144.055219 
L 95.089902 135.184819 
L 95.086065 126.314419 
L 95.096421 117.444019 
L 95.130951 108.573619 
L 95.217222 99.703219 
L 95.440832 90.832819 
L 96.153425 81.962419 
L 99.513212 73.092019 
L 103.644488 71.023258 
L 103.662101 73.092019 
L 103.730552 81.962419 
L 103.801314 90.832819 
L 103.87419 99.703219 
L 103.973205 108.573619 
L 104.113019 117.444019 
L 104.206467 126.314419 
L 104.232622 135.184819 
L 104.285289 144.055219 
L 104.36751 152.925619 
L 104.465451 161.796019 
L 104.529316 166.937607 
" style="fill:none;stroke:#453781;stroke-width:1.5;"/>
   </g>
   <g id="LineCollection_5">
    <path clip-path="url(#pefce66e525)" d="M 86.566655 277.111219 
L 86.764711 268.240819 
L 86.956382 259.370419 
L 87.139876 250.500019 
L 87.313437 241.629619 
L 87.407697 236.486917 
" style="fill:none;stroke:#404688;stroke-width:1.5;"/>
    <path clip-path="url(#pefce66e525)" d="M 87.814976 211.290232 
L 87.886255 206.148019 
L 87.995164 197.277619 
L 88.090186 188.407219 
L 88.171807 179.536819 
L 88.239868 170.666419 
L 88.293417 161.796019 
L 88.331796 152.925619 
L 88.354587 144.055219 
L 88.361719 135.184819 
L 88.35424 126.314419 
L 88.332934 117.444019 
L 88.298907 108.573619 
L 88.2531 99.703219 
L 88.196624 90.832819 
L 88.130973 81.962419 
L 88.058958 73.092019 
L 87.983937 64.221619 
L 87.910692 55.351219 
L 87.848307 46.480819 
L 87.809497 37.610419 
L 87.816244 28.740019 
L 87.911107 19.869619 
L 88.197502 10.999219 
" style="fill:none;stroke:#404688;stroke-width:1.5;"/>
    <path clip-path="url(#pefce66e525)" d="M 91.765895 10.999219 
L 91.796623 19.869619 
L 91.859137 28.740019 
L 91.992354 37.610419 
L 92.172506 42.799071 
" style="fill:none;stroke:#404688;stroke-width:1.5;"/>
    <path clip-path="url(#pefce66e525)" d="M 101.942472 64.328582 
L 103.644488 64.747779 
L 103.715529 73.092019 
L 103.811752 81.962419 
L 103.913857 90.832819 
L 104.024092 99.703219 
L 104.179357 108.573619 
L 104.40187 117.444019 
L 104.551138 126.314419 
L 104.594448 135.184819 
L 104.683216 144.055219 
L 104.823217 152.925619 
L 104.993494 161.796019 
L 105.190303 170.666419 
L 105.368948 179.536819 
L 105.461734 188.407219 
L 105.418141 197.277619 
L 105.245846 206.148019 
L 105.00182 215.018419 
L 104.743623 223.888819 
L 104.504061 232.759219 
L 104.295509 241.629619 
L 104.118992 250.500019 
L 103.971434 259.370419 
L 103.848711 268.240819 
L 103.745983 277.111219 
" style="fill:none;stroke:#404688;stroke-width:1.5;"/>
   </g>
   <g id="LineCollection_6">
    <path clip-path="url(#pefce66e525)" d="M 74.361002 277.111219 
L 74.950131 268.240819 
L 75.46996 259.370419 
L 75.922369 250.500019 
L 76.311204 241.629619 
L 76.639681 232.759219 
L 76.911507 223.888819 
L 77.129617 215.018419 
L 77.298157 206.148019 
L 77.422545 197.277619 
L 77.507449 188.407219 
L 77.536509 183.266338 
" style="fill:none;stroke:#39558c;stroke-width:1.5;"/>
    <path clip-path="url(#pefce66e525)" d="M 77.552759 158.066453 
L 77.532181 152.925619 
L 77.471741 144.055219 
L 77.385634 135.184819 
L 77.271904 126.314419 
L 77.125248 117.444019 
L 76.940911 108.573619 
L 76.716997 99.703219 
L 76.453046 90.832819 
L 76.150241 81.962419 
L 75.808579 73.092019 
L 75.432338 64.221619 
L 75.025067 55.351219 
L 74.585974 46.480819 
L 74.114606 37.610419 
L 73.614461 28.740019 
L 73.085943 19.869619 
L 72.53007 10.999219 
" style="fill:none;stroke:#39558c;stroke-width:1.5;"/>
    <path clip-path="url(#pefce66e525)" d="M 91.851653 10.999219 
L 91.960099 19.869619 
L 92.18161 28.740019 
L 92.654749 37.610419 
L 93.365463 43.346864 
" style="fill:none;stroke:#39558c;stroke-width:1.5;"/>
    <path clip-path="url(#pefce66e525)" d="M 103.684107 64.933457 
L 103.768958 73.092019 
L 103.892953 81.962419 
L 104.026399 90.832819 
L 104.173993 99.703219 
L 104.385509 108.573619 
L 104.69072 117.444019 
L 104.895809 126.314419 
L 104.956273 135.184819 
L 105.081144 144.055219 
L 105.278924 152.925619 
L 105.521538 161.796019 
L 105.804973 170.666419 
L 106.068033 179.536819 
L 106.215892 188.407219 
L 106.17531 197.277619 
L 105.953189 206.148019 
L 105.626838 215.018419 
L 105.276498 223.888819 
L 104.948896 232.759219 
L 104.662508 241.629619 
L 104.419567 250.500019 
L 104.216582 259.370419 
L 104.048473 268.240819 
L 103.908965 277.111219 
" style="fill:none;stroke:#39558c;stroke-width:1.5;"/>
   </g>
   <g id="LineCollection_7">
    <path clip-path="url(#pefce66e525)" d="M 91.937411 10.999219 
L 92.123576 19.869619 
L 92.504082 28.740019 
L 93.317143 37.610419 
L 94.764176 44.40181 
" style="fill:none;stroke:#33638d;stroke-width:1.5;"/>
    <path clip-path="url(#pefce66e525)" d="M 103.742133 66.650683 
L 103.822386 73.092019 
L 103.974153 81.962419 
L 104.138941 90.832819 
L 104.323894 99.703219 
L 104.591662 108.573619 
L 104.979571 117.444019 
L 105.24048 126.314419 
L 105.318099 135.184819 
L 105.479071 144.055219 
L 105.734631 152.925619 
L 106.049581 161.796019 
L 106.419643 170.666419 
L 106.767118 179.536819 
L 106.97005 188.407219 
L 106.93248 197.277619 
L 106.660533 206.148019 
L 106.251857 215.018419 
L 105.809373 223.888819 
L 105.393732 232.759219 
L 105.029506 241.629619 
L 104.720142 250.500019 
L 104.46173 259.370419 
L 104.248236 268.240819 
L 104.071946 277.111219 
" style="fill:none;stroke:#33638d;stroke-width:1.5;"/>
   </g>
   <g id="LineCollection_8">
    <path clip-path="url(#pefce66e525)" d="M 92.023169 10.999219 
L 92.287052 19.869619 
L 92.826554 28.740019 
L 93.979538 37.610419 
L 96.185303 44.90841 
" style="fill:none;stroke:#2d718e;stroke-width:1.5;"/>
    <path clip-path="url(#pefce66e525)" d="M 103.794965 67.523123 
L 103.875814 73.092019 
L 104.055354 81.962419 
L 104.251484 90.832819 
L 104.473796 99.703219 
L 104.797814 108.573619 
L 105.268421 117.444019 
L 105.585151 126.314419 
L 105.679925 135.184819 
L 105.876999 144.055219 
L 106.190338 152.925619 
L 106.577625 161.796019 
L 107.034313 170.666419 
L 107.466204 179.536819 
L 107.724207 188.407219 
L 107.689649 197.277619 
L 107.367876 206.148019 
L 106.876875 215.018419 
L 106.342248 223.888819 
L 105.838567 232.759219 
L 105.396505 241.629619 
L 105.020718 250.500019 
L 104.706878 259.370419 
L 104.447998 268.240819 
L 104.234928 277.111219 
" style="fill:none;stroke:#2d718e;stroke-width:1.5;"/>
   </g>
   <g id="LineCollection_9">
    <path clip-path="url(#pefce66e525)" d="M 92.108927 10.999219 
L 92.450529 19.869619 
L 93.149027 28.740019 
L 94.641933 37.610419 
L 96.684077 42.827732 
" style="fill:none;stroke:#287d8e;stroke-width:1.5;"/>
    <path clip-path="url(#pefce66e525)" d="M 103.807798 65.765875 
L 103.929243 73.092019 
L 104.136554 81.962419 
L 104.364026 90.832819 
L 104.623697 99.703219 
L 105.003966 108.573619 
L 105.557272 117.444019 
L 105.929822 126.314419 
L 106.041751 135.184819 
L 106.274927 144.055219 
L 106.646045 152.925619 
L 107.105668 161.796019 
L 107.648983 170.666419 
L 108.165289 179.536819 
L 108.478365 188.407219 
L 108.446819 197.277619 
L 108.07522 206.148019 
L 107.501893 215.018419 
L 106.875123 223.888819 
L 106.283403 232.759219 
L 105.763504 241.629619 
L 105.321293 250.500019 
L 104.952026 259.370419 
L 104.64776 268.240819 
L 104.397909 277.111219 
" style="fill:none;stroke:#287d8e;stroke-width:1.5;"/>
   </g>
   <g id="LineCollection_10">
    <path clip-path="url(#pefce66e525)" d="M 92.194685 10.999219 
L 92.614006 19.869619 
L 93.471499 28.740019 
L 95.304328 37.610419 
L 96.880335 40.889731 
" style="fill:none;stroke:#238a8d;stroke-width:1.5;"/>
    <path clip-path="url(#pefce66e525)" d="M 103.814462 64.008707 
L 103.817363 64.221619 
L 103.982671 73.092019 
L 104.217755 81.962419 
L 104.476568 90.832819 
L 104.773598 99.703219 
L 105.210119 108.573619 
L 105.846122 117.444019 
L 106.274493 126.314419 
L 106.403577 135.184819 
L 106.672854 144.055219 
L 107.101752 152.925619 
L 107.633712 161.796019 
L 108.263652 170.666419 
L 108.864374 179.536819 
L 109.232523 188.407219 
L 109.203988 197.277619 
L 108.782563 206.148019 
L 108.126912 215.018419 
L 107.407997 223.888819 
L 106.728238 232.759219 
L 106.130503 241.629619 
L 105.621868 250.500019 
L 105.197174 259.370419 
L 104.847523 268.240819 
L 104.560891 277.111219 
" style="fill:none;stroke:#238a8d;stroke-width:1.5;"/>
   </g>
   <g id="LineCollection_11">
    <path clip-path="url(#pefce66e525)" d="M 92.280443 10.999219 
L 92.777482 19.869619 
L 93.793971 28.740019 
L 95.966722 37.610419 
L 96.820992 39.109756 
" style="fill:none;stroke:#1f968b;stroke-width:1.5;"/>
    <path clip-path="url(#pefce66e525)" d="M 103.823016 62.251493 
L 103.852528 64.221619 
L 104.0361 73.092019 
L 104.298956 81.962419 
L 104.58911 90.832819 
L 104.9235 99.703219 
L 105.416271 108.573619 
L 106.134972 117.444019 
L 106.619164 126.314419 
L 106.765403 135.184819 
L 107.070782 144.055219 
L 107.557459 152.925619 
L 108.161755 161.796019 
L 108.878322 170.666419 
L 109.563459 179.536819 
L 109.98668 188.407219 
L 109.961157 197.277619 
L 109.489907 206.148019 
L 108.75193 215.018419 
L 107.940872 223.888819 
L 107.173074 232.759219 
L 106.497501 241.629619 
L 105.922443 250.500019 
L 105.442322 259.370419 
L 105.047285 268.240819 
L 104.723872 277.111219 
" style="fill:none;stroke:#1f968b;stroke-width:1.5;"/>
   </g>
   <g id="LineCollection_12">
    <path clip-path="url(#pefce66e525)" d="M 92.366201 10.999219 
L 92.940959 19.869619 
L 94.116444 28.740019 
L 96.590736 37.474924 
" style="fill:none;stroke:#20a386;stroke-width:1.5;"/>
    <path clip-path="url(#pefce66e525)" d="M 103.826821 60.494336 
L 103.887693 64.221619 
L 104.089528 73.092019 
L 104.380156 81.962419 
L 104.701653 90.832819 
L 105.073401 99.703219 
L 105.622423 108.573619 
L 106.423823 117.444019 
L 106.963835 126.314419 
L 107.127229 135.184819 
L 107.468709 144.055219 
L 108.013166 152.925619 
L 108.689799 161.796019 
L 109.492992 170.666419 
L 110.262544 179.536819 
L 110.740838 188.407219 
L 110.718327 197.277619 
L 110.19725 206.148019 
L 109.376949 215.018419 
L 108.473747 223.888819 
L 107.617909 232.759219 
L 106.8645 241.629619 
L 106.223018 250.500019 
L 105.68747 259.370419 
L 105.247047 268.240819 
L 104.886854 277.111219 
" style="fill:none;stroke:#20a386;stroke-width:1.5;"/>
   </g>
   <g id="LineCollection_13">
    <path clip-path="url(#pefce66e525)" d="M 92.451959 10.999219 
L 93.104435 19.869619 
L 94.438916 28.740019 
L 97.291512 37.610419 
L 103.644488 46.304261 
L 103.647393 46.480819 
L 103.766002 55.351219 
L 103.922858 64.221619 
L 104.142957 73.092019 
L 104.461357 81.962419 
L 104.814195 90.832819 
L 105.052424 95.998184 
" style="fill:none;stroke:#29af7f;stroke-width:1.5;"/>
    <path clip-path="url(#pefce66e525)" d="M 106.959685 121.121383 
L 107.308506 126.314419 
L 107.489055 135.184819 
L 107.866637 144.055219 
L 108.468873 152.925619 
L 109.217842 161.796019 
L 110.107662 170.666419 
L 110.96163 179.536819 
L 111.494995 188.407219 
L 111.475496 197.277619 
L 110.904594 206.148019 
L 110.001967 215.018419 
L 109.006622 223.888819 
L 108.062745 232.759219 
L 107.231499 241.629619 
L 106.523594 250.500019 
L 105.932618 259.370419 
L 105.44681 268.240819 
L 105.049835 277.111219 
" style="fill:none;stroke:#29af7f;stroke-width:1.5;"/>
   </g>
   <g id="LineCollection_14">
    <path clip-path="url(#pefce66e525)" d="M 92.537717 10.999219 
L 93.267912 19.869619 
L 94.761388 28.740019 
L 97.953907 37.610419 
L 103.644488 45.397795 
L 103.662309 46.480819 
L 103.789177 55.351219 
L 103.958023 64.221619 
L 104.196385 73.092019 
L 104.542557 81.962419 
L 104.926737 90.832819 
L 105.18696 96.002936 
" style="fill:none;stroke:#3dbc74;stroke-width:1.5;"/>
    <path clip-path="url(#pefce66e525)" d="M 107.270929 121.111206 
L 107.653177 126.314419 
L 107.850881 135.184819 
L 108.264564 144.055219 
L 108.92458 152.925619 
L 109.745886 161.796019 
L 110.722332 170.666419 
L 111.660715 179.536819 
L 112.249153 188.407219 
L 112.232665 197.277619 
L 111.611937 206.148019 
L 110.626986 215.018419 
L 109.539497 223.888819 
L 108.50758 232.759219 
L 107.598497 241.629619 
L 106.824169 250.500019 
L 106.177766 259.370419 
L 105.646572 268.240819 
L 105.212817 277.111219 
" style="fill:none;stroke:#3dbc74;stroke-width:1.5;"/>
   </g>
   <g id="LineCollection_15">
    <path clip-path="url(#pefce66e525)" d="M 92.623475 10.999219 
L 93.431388 19.869619 
L 95.083861 28.740019 
L 98.616301 37.610419 
L 103.644488 44.491329 
L 103.677225 46.480819 
L 103.812353 55.351219 
L 103.993188 64.221619 
L 104.249814 73.092019 
L 104.623758 81.962419 
L 105.03928 90.832819 
L 105.321559 96.008104 
" style="fill:none;stroke:#56c667;stroke-width:1.5;"/>
    <path clip-path="url(#pefce66e525)" d="M 107.581974 121.100139 
L 107.997848 126.314419 
L 108.212707 135.184819 
L 108.662492 144.055219 
L 109.380287 152.925619 
L 110.273929 161.796019 
L 111.337002 170.666419 
L 112.3598 179.536819 
L 113.003311 188.407219 
L 112.989835 197.277619 
L 112.31928 206.148019 
L 111.252004 215.018419 
L 110.072371 223.888819 
L 108.952416 232.759219 
L 107.965496 241.629619 
L 107.124744 250.500019 
L 106.422914 259.370419 
L 105.846334 268.240819 
L 105.375799 277.111219 
" style="fill:none;stroke:#56c667;stroke-width:1.5;"/>
   </g>
   <g id="LineCollection_16">
    <path clip-path="url(#pefce66e525)" d="M 92.709233 10.999219 
L 93.594865 19.869619 
L 95.406333 28.740019 
L 99.278696 37.610419 
L 103.644488 43.584863 
L 103.692141 46.480819 
L 103.835529 55.351219 
L 104.028352 64.221619 
L 104.303242 73.092019 
L 104.704958 81.962419 
L 105.151822 90.832819 
L 105.456226 96.013688 
" style="fill:none;stroke:#75d054;stroke-width:1.5;"/>
    <path clip-path="url(#pefce66e525)" d="M 107.892804 121.088189 
L 108.342519 126.314419 
L 108.574533 135.184819 
L 109.06042 144.055219 
L 109.835994 152.925619 
L 110.801973 161.796019 
L 111.951671 170.666419 
L 113.058885 179.536819 
L 113.757468 188.407219 
L 113.747004 197.277619 
L 113.026624 206.148019 
L 111.877023 215.018419 
L 110.605246 223.888819 
L 109.397251 232.759219 
L 108.332495 241.629619 
L 107.425319 250.500019 
L 106.668062 259.370419 
L 106.046097 268.240819 
L 105.53878 277.111219 
" style="fill:none;stroke:#75d054;stroke-width:1.5;"/>
   </g>
   <g id="LineCollection_17">
    <path clip-path="url(#pefce66e525)" d="M 92.794991 10.999219 
L 93.758342 19.869619 
L 95.728805 28.740019 
L 99.941091 37.610419 
L 103.644488 42.678397 
L 103.707057 46.480819 
L 103.858705 55.351219 
L 104.063517 64.221619 
L 104.35667 73.092019 
L 104.786159 81.962419 
L 105.264364 90.832819 
L 105.590966 96.019686 
" style="fill:none;stroke:#95d840;stroke-width:1.5;"/>
    <path clip-path="url(#pefce66e525)" d="M 108.203402 121.07536 
L 108.68719 126.314419 
L 108.936359 135.184819 
L 109.458347 144.055219 
L 110.291701 152.925619 
L 111.330016 161.796019 
L 112.566341 170.666419 
L 113.75797 179.536819 
L 114.511626 188.407219 
L 114.504174 197.277619 
L 113.733967 206.148019 
L 112.502041 215.018419 
L 111.138121 223.888819 
L 109.842087 232.759219 
L 108.699494 241.629619 
L 107.725894 250.500019 
L 106.91321 259.370419 
L 106.245859 268.240819 
L 105.701762 277.111219 
" style="fill:none;stroke:#95d840;stroke-width:1.5;"/>
   </g>
   <g id="LineCollection_18">
    <path clip-path="url(#pefce66e525)" d="M 92.880749 10.999219 
L 93.921818 19.869619 
L 96.051278 28.740019 
L 100.603486 37.610419 
L 103.644488 41.771932 
L 103.721973 46.480819 
L 103.881881 55.351219 
L 104.098682 64.221619 
L 104.410099 73.092019 
L 104.867359 81.962419 
L 105.376907 90.832819 
L 105.725785 96.026098 
" style="fill:none;stroke:#bade28;stroke-width:1.5;"/>
    <path clip-path="url(#pefce66e525)" d="M 108.513753 121.061658 
L 109.031861 126.314419 
L 109.298184 135.184819 
L 109.856275 144.055219 
L 110.747408 152.925619 
L 111.858059 161.796019 
L 113.181011 170.666419 
L 114.457055 179.536819 
L 115.265783 188.407219 
L 115.261343 197.277619 
L 114.441311 206.148019 
L 113.127059 215.018419 
L 111.670996 223.888819 
L 110.286922 232.759219 
L 109.066492 241.629619 
L 108.02647 250.500019 
L 107.158358 259.370419 
L 106.445621 268.240819 
L 105.864743 277.111219 
" style="fill:none;stroke:#bade28;stroke-width:1.5;"/>
   </g>
   <g id="LineCollection_19">
    <path clip-path="url(#pefce66e525)" d="M 92.966507 10.999219 
L 94.085295 19.869619 
L 96.37375 28.740019 
L 101.26588 37.610419 
L 103.644488 40.865466 
L 103.736889 46.480819 
L 103.905057 55.351219 
L 104.133847 64.221619 
L 104.463527 73.092019 
L 104.94856 81.962419 
L 105.489449 90.832819 
L 105.860686 96.03292 
" style="fill:none;stroke:#dde318;stroke-width:1.5;"/>
    <path clip-path="url(#pefce66e525)" d="M 108.82384 121.04709 
L 109.376532 126.314419 
L 109.66001 135.184819 
L 110.254202 144.055219 
L 111.203115 152.925619 
L 112.386103 161.796019 
L 113.795681 170.666419 
L 115.156141 179.536819 
L 115.548488 183.733092 
L 115.549906 188.407219 
L 115.549968 197.277619 
L 115.548488 201.920384 
L 115.148654 206.148019 
L 113.752078 215.018419 
L 112.203871 223.888819 
L 110.731758 232.759219 
L 109.433491 241.629619 
L 108.327045 250.500019 
L 107.403506 259.370419 
L 106.645384 268.240819 
L 106.027725 277.111219 
" style="fill:none;stroke:#dde318;stroke-width:1.5;"/>
   </g>
   <g id="LineCollection_20">
    <path clip-path="url(#pefce66e525)" d="M 93.052265 10.999219 
L 94.248771 19.869619 
L 96.696222 28.740019 
L 101.928275 37.610419 
L 103.644488 39.959 
L 103.751805 46.480819 
L 103.928233 55.351219 
L 104.169012 64.221619 
L 104.516956 73.092019 
L 105.02976 81.962419 
L 105.601991 90.832819 
L 105.995676 96.040153 
" style="fill:none;stroke:#fde725;stroke-width:1.5;"/>
    <path clip-path="url(#pefce66e525)" d="M 109.133648 121.031662 
L 109.721203 126.314419 
L 110.021836 135.184819 
L 110.65213 144.055219 
L 111.658822 152.925619 
L 112.914146 161.796019 
L 114.410351 170.666419 
L 115.548488 177.837516 
L 115.549439 179.536819 
L 115.552176 188.407219 
L 115.552353 197.277619 
L 115.549579 206.148019 
L 115.548488 207.818207 
L 114.377096 215.018419 
L 112.736745 223.888819 
L 111.176593 232.759219 
L 109.80049 241.629619 
L 108.62762 250.500019 
L 107.648654 259.370419 
L 106.845146 268.240819 
L 106.190706 277.111219 
" style="fill:none;stroke:#fde725;stroke-width:1.5;"/>
   </g>
   <g id="LineCollection_21">
    <path clip-path="url(#pefce66e525)" d="M 93.138023 10.999219 
L 94.412248 19.869619 
L 97.018695 28.740019 
L 102.59067 37.610419 
L 103.644488 39.052534 
L 103.766721 46.480819 
L 103.951409 55.351219 
L 104.204177 64.221619 
L 104.570384 73.092019 
L 105.110961 81.962419 
L 105.714534 90.832819 
L 106.422513 99.703219 
L 107.477794 108.573619 
L 108.084716 112.056636 
" style="fill:none;stroke:#440154;stroke-width:1.5;"/>
    <path clip-path="url(#pefce66e525)" d="M 110.797484 140.693206 
L 111.050058 144.055219 
L 112.114529 152.925619 
L 113.44219 161.796019 
L 115.025021 170.666419 
L 115.548488 173.964645 
L 115.551608 179.536819 
L 115.554445 188.407219 
L 115.554739 197.277619 
L 115.552089 206.148019 
L 115.548488 211.660019 
L 115.002115 215.018419 
L 113.26962 223.888819 
L 111.621429 232.759219 
L 110.167488 241.629619 
L 108.928195 250.500019 
L 107.893802 259.370419 
L 107.044908 268.240819 
L 106.353688 277.111219 
" style="fill:none;stroke:#440154;stroke-width:1.5;"/>
   </g>
   <g id="LineCollection_22">
    <path clip-path="url(#pefce66e525)" d="M 103.763743 10.999219 
L 104.077847 19.869619 
L 104.567267 28.740019 
L 105.316229 37.610419 
L 106.451599 46.480819 
L 108.123072 55.351219 
L 110.533847 64.221619 
L 114.187505 73.092019 
L 115.548488 76.029068 
L 115.597131 81.962419 
L 115.662225 90.832819 
L 115.742727 99.703219 
L 115.841579 108.573619 
L 115.856403 117.444019 
L 115.849879 126.314419 
L 115.848979 127.855225 
" style="fill:none;stroke:#440154;stroke-width:1.5;"/>
    <path clip-path="url(#pefce66e525)" d="M 115.890905 160.255175 
L 115.895217 161.796019 
L 115.920298 170.666419 
L 115.942031 179.536819 
L 115.962934 188.407219 
L 115.98409 197.277619 
L 116.003928 206.148019 
L 116.020798 215.018419 
L 116.033543 223.888819 
L 116.040188 232.759219 
L 116.036782 241.629619 
L 116.01948 250.500019 
L 115.986589 259.370419 
L 115.939881 268.240819 
L 115.882405 277.111219 
" style="fill:none;stroke:#440154;stroke-width:1.5;"/>
   </g>
   <g id="LineCollection_23">
    <path clip-path="url(#pefce66e525)" d="M 107.497794 10.999219 
L 110.39271 19.869619 
L 114.984141 28.740019 
L 115.548488 29.813871 
L 115.639292 37.610419 
L 115.774088 46.480819 
L 115.980878 55.351219 
L 116.295959 64.221619 
L 116.771664 73.092019 
L 117.298633 81.962419 
L 117.872625 90.832819 
L 118.677841 99.703219 
L 119.587133 108.573619 
L 119.377437 117.444019 
L 119.162404 126.055942 
" style="fill:none;stroke:#440154;stroke-width:1.5;"/>
    <path clip-path="url(#pefce66e525)" d="M 119.447293 162.051857 
L 119.656076 170.666419 
L 119.846261 179.536819 
L 120.047827 188.407219 
L 120.277601 197.277619 
L 120.522323 206.148019 
L 120.76695 215.018419 
L 121.00214 223.888819 
L 121.210789 232.759219 
L 121.352752 241.629619 
L 121.386074 250.500019 
L 121.287085 259.370419 
L 121.066127 268.240819 
L 120.745922 277.111219 
" style="fill:none;stroke:#440154;stroke-width:1.5;"/>
   </g>
   <g id="LineCollection_24">
    <path clip-path="url(#pefce66e525)" d="M 116.157576 10.999219 
L 116.567626 19.869619 
L 117.127868 28.740019 
L 117.947863 37.610419 
L 119.186182 46.480819 
L 121.241077 55.351219 
L 124.413804 64.221619 
L 127.452488 70.688107 
L 127.459594 73.092019 
L 127.480726 81.962419 
L 127.506902 90.832819 
L 127.544406 99.703219 
L 127.550989 108.573619 
L 127.542622 117.444019 
L 127.538501 124.25522 
" style="fill:none;stroke:#440154;stroke-width:1.5;"/>
    <path clip-path="url(#pefce66e525)" d="M 127.555526 163.855212 
L 127.561728 170.666419 
L 127.567952 179.536819 
L 127.574029 188.407219 
L 127.580902 197.277619 
L 127.589095 206.148019 
L 127.598644 215.018419 
L 127.609182 223.888819 
L 127.619707 232.759219 
L 127.62982 241.629619 
L 127.639175 250.500019 
L 127.647397 259.370419 
L 127.654131 268.240819 
L 127.659311 277.111219 
" style="fill:none;stroke:#440154;stroke-width:1.5;"/>
   </g>
   <g id="LineCollection_25">
    <path clip-path="url(#pefce66e525)" d="M 123.922623 10.999219 
L 127.452488 19.510958 
L 127.453347 19.869619 
L 127.475984 28.740019 
L 127.51237 37.610419 
L 127.569476 46.480819 
L 127.661649 55.351219 
L 127.806675 64.221619 
L 127.970269 73.092019 
L 128.181012 81.962419 
L 128.467268 90.832819 
L 128.855566 99.703219 
L 128.797836 108.573619 
L 128.712191 117.444019 
L 128.687745 122.455368 
" style="fill:none;stroke:#440154;stroke-width:1.5;"/>
    <path clip-path="url(#pefce66e525)" d="M 128.896093 165.654392 
L 128.942242 170.666419 
L 129.001968 179.536819 
L 129.058538 188.407219 
L 129.122691 197.277619 
L 129.202651 206.148019 
L 129.299844 215.018419 
L 129.409906 223.888819 
L 129.521479 232.759219 
L 129.632996 241.629619 
L 129.743981 250.500019 
L 129.853045 259.370419 
L 129.957522 268.240819 
L 130.058365 277.111219 
" style="fill:none;stroke:#440154;stroke-width:1.5;"/>
   </g>
   <g id="LineCollection_26">
    <path clip-path="url(#pefce66e525)" d="M 127.737646 10.999219 
L 127.901943 19.869619 
L 128.14763 28.740019 
L 128.53027 37.610419 
L 129.113398 46.480819 
L 130.033317 55.351219 
L 131.486291 64.221619 
L 133.077026 73.092019 
L 135.18387 81.962419 
L 138.070924 90.832819 
L 139.356488 94.398889 
L 139.363851 99.703219 
L 139.361945 108.573619 
L 139.359649 117.444019 
L 139.359216 120.655219 
" style="fill:none;stroke:#450457;stroke-width:1.5;"/>
    <path clip-path="url(#pefce66e525)" d="M 139.36802 167.455217 
L 139.369245 170.666419 
L 139.372112 179.536819 
L 139.374987 188.407219 
L 139.378327 197.277619 
L 139.38248 206.148019 
L 139.38762 215.018419 
L 139.393779 223.888819 
L 139.400738 232.759219 
L 139.408491 241.629619 
L 139.417073 250.500019 
L 139.42615 259.370419 
L 139.435546 268.240819 
L 139.445247 277.111219 
" style="fill:none;stroke:#450457;stroke-width:1.5;"/>
   </g>
   <g id="LineCollection_27">
    <path clip-path="url(#pefce66e525)" d="M 130.725031 10.999219 
L 132.38791 19.869619 
L 134.864096 28.740019 
L 138.709279 37.610419 
L 139.356488 39.019945 
L 139.373669 46.480819 
L 139.403569 55.351219 
L 139.446833 64.221619 
L 139.499455 73.092019 
L 139.569998 81.962419 
L 139.668431 90.832819 
L 139.733653 99.703219 
L 139.718234 108.573619 
L 139.711293 117.444019 
L 139.711403 118.855293 
" style="fill:none;stroke:#482475;stroke-width:1.5;"/>
    <path clip-path="url(#pefce66e525)" d="M 139.881191 169.254935 
L 139.888628 170.666419 
L 139.934268 179.536819 
L 139.978948 188.407219 
L 140.027845 197.277619 
L 140.083616 206.148019 
L 140.149087 215.018419 
L 140.226868 223.888819 
L 140.317189 232.759219 
L 140.419067 241.629619 
L 140.532199 250.500019 
L 140.650165 259.370419 
L 140.771109 268.240819 
L 140.89456 277.111219 
" style="fill:none;stroke:#482475;stroke-width:1.5;"/>
   </g>
   <g id="LineCollection_28">
    <path clip-path="url(#pefce66e525)" d="M 139.420457 10.999219 
L 139.47071 19.869619 
L 139.550999 28.740019 
L 139.684169 37.610419 
L 139.884176 46.480819 
L 140.179354 55.351219 
L 140.596095 64.221619 
L 141.129575 73.092019 
L 141.840377 81.962419 
L 142.830185 90.832819 
L 143.43168 99.703219 
L 143.281126 108.573619 
L 143.227741 117.444019 
L 143.246487 125.942273 
" style="fill:none;stroke:#fde725;stroke-width:1.5;"/>
    <path clip-path="url(#pefce66e525)" d="M 145.574185 179.888744 
L 146.018552 188.407219 
L 146.523032 197.277619 
L 147.094977 206.148019 
L 147.763757 215.018419 
L 148.557758 223.888819 
L 149.481693 232.759219 
L 150.524828 241.629619 
L 151.260488 247.461399 
L 151.263046 250.500019 
L 151.270615 259.370419 
L 151.278822 268.240819 
L 151.287702 277.111219 
" style="fill:none;stroke:#fde725;stroke-width:1.5;"/>
   </g>
   <g id="line2d_19">
    <path clip-path="url(#pefce66e525)" d="M 371.344624 61.416047 
L 364.364865 67.738953 
L 356.792595 74.222078 
L 349.321407 81.000555 
L 341.96874 88.3009 
L 334.73383 95.972887 
L 327.617568 103.724537 
L 320.613015 112.214026 
L 313.723096 120.418662 
L 306.945521 128.582416 
L 300.270173 137.419967 
L 293.698779 145.944064 
L 287.241164 154.166811 
L 280.892606 162.077216 
L 274.634433 170.234971 
L 268.486079 178.076691 
L 262.443422 185.354449 
L 256.500323 192.316912 
L 250.654446 199.05054 
L 244.920987 205.13505 
L 239.274643 211.051535 
L 233.728038 216.224193 
L 228.279664 221.03974 
L 222.922836 225.343321 
L 217.653451 229.191824 
L 212.474232 232.689047 
L 207.399538 235.122485 
L 202.396165 237.115156 
L 197.470208 238.701716 
L 192.650619 239.886205 
L 187.898037 240.296602 
L 183.245703 239.90975 
L 178.672746 239.541206 
L 174.179016 238.513049 
L 169.777891 236.227962 
L 165.43975 233.399784 
L 161.195444 230.240707 
L 157.018032 226.262189 
L 152.919075 221.9328 
L 148.895427 216.843532 
L 144.929027 210.982802 
L 141.054811 204.974842 
L 137.245767 198.584077 
L 133.499286 191.768005 
L 129.824378 184.813624 
L 126.206587 176.800523 
L 122.658257 168.659211 
L 119.173438 160.392452 
L 115.711813 150.308447 
L 112.364816 142.286683 
L 112.04468 142.091075 
L 111.720557 141.791934 
L 111.393822 141.382944 
L 111.069875 140.943411 
L 110.746153 140.468706 
L 110.422344 139.966549 
L 110.099468 139.452826 
L 109.776688 138.966562 
L 109.456173 138.439909 
L 109.136281 137.925983 
L 108.816885 137.415134 
L 108.499047 136.864018 
L 108.180103 136.349984 
L 107.861451 135.836093 
L 107.544615 135.303558 
L 107.227957 134.77492 
L 106.912615 134.299782 
L 106.597832 133.753725 
L 106.284755 133.240028 
L 105.971217 132.681363 
L 105.659789 132.162173 
L 105.347283 131.571818 
L 105.035345 131.092013 
L 104.724783 130.478942 
L 104.415091 129.973535 
L 104.384626 129.942938 
L 104.353727 129.910658 
L 104.32263 129.877068 
L 104.291593 129.842578 
L 104.260712 129.813897 
L 104.229431 129.782514 
L 104.198597 129.752688 
L 104.167771 129.724951 
L 104.136797 129.702527 
L 104.105738 129.678021 
L 104.074875 129.646583 
L 104.044111 129.612144 
L 104.013285 129.581695 
L 103.982261 129.550756 
L 103.951474 129.527288 
L 103.920712 129.495336 
L 103.890138 129.465007 
L 103.859304 129.442367 
L 103.828525 129.421674 
L 103.79762 129.398328 
L 103.76689 129.364969 
L 103.736231 129.336968 
L 103.705741 129.312739 
L 103.675085 129.294239 
" style="fill:none;stroke:#1f77b4;stroke-linecap:square;stroke-width:1.5;"/>
    <defs>
     <path d="M 0 1.5 
C 0.397805 1.5 0.77937 1.341951 1.06066 1.06066 
C 1.341951 0.77937 1.5 0.397805 1.5 0 
C 1.5 -0.397805 1.341951 -0.77937 1.06066 -1.06066 
C 0.77937 -1.341951 0.397805 -1.5 0 -1.5 
C -0.397805 -1.5 -0.77937 -1.341951 -1.06066 -1.06066 
C -1.341951 -0.77937 -1.5 -0.397805 -1.5 0 
C -1.5 0.397805 -1.341951 0.77937 -1.06066 1.06066 
C -0.77937 1.341951 -0.397805 1.5 0 1.5 
z
" id="m965ab904cb" style="stroke:#1f77b4;"/>
    </defs>
    <g clip-path="url(#pefce66e525)">
     <use style="fill:#1f77b4;stroke:#1f77b4;" x="371.344624" xlink:href="#m965ab904cb" y="61.416047"/>
     <use style="fill:#1f77b4;stroke:#1f77b4;" x="364.364865" xlink:href="#m965ab904cb" y="67.738953"/>
     <use style="fill:#1f77b4;stroke:#1f77b4;" x="356.792595" xlink:href="#m965ab904cb" y="74.222078"/>
     <use style="fill:#1f77b4;stroke:#1f77b4;" x="349.321407" xlink:href="#m965ab904cb" y="81.000555"/>
     <use style="fill:#1f77b4;stroke:#1f77b4;" x="341.96874" xlink:href="#m965ab904cb" y="88.3009"/>
     <use style="fill:#1f77b4;stroke:#1f77b4;" x="334.73383" xlink:href="#m965ab904cb" y="95.972887"/>
     <use style="fill:#1f77b4;stroke:#1f77b4;" x="327.617568" xlink:href="#m965ab904cb" y="103.724537"/>
     <use style="fill:#1f77b4;stroke:#1f77b4;" x="320.613015" xlink:href="#m965ab904cb" y="112.214026"/>
     <use style="fill:#1f77b4;stroke:#1f77b4;" x="313.723096" xlink:href="#m965ab904cb" y="120.418662"/>
     <use style="fill:#1f77b4;stroke:#1f77b4;" x="306.945521" xlink:href="#m965ab904cb" y="128.582416"/>
     <use style="fill:#1f77b4;stroke:#1f77b4;" x="300.270173" xlink:href="#m965ab904cb" y="137.419967"/>
     <use style="fill:#1f77b4;stroke:#1f77b4;" x="293.698779" xlink:href="#m965ab904cb" y="145.944064"/>
     <use style="fill:#1f77b4;stroke:#1f77b4;" x="287.241164" xlink:href="#m965ab904cb" y="154.166811"/>
     <use style="fill:#1f77b4;stroke:#1f77b4;" x="280.892606" xlink:href="#m965ab904cb" y="162.077216"/>
     <use style="fill:#1f77b4;stroke:#1f77b4;" x="274.634433" xlink:href="#m965ab904cb" y="170.234971"/>
     <use style="fill:#1f77b4;stroke:#1f77b4;" x="268.486079" xlink:href="#m965ab904cb" y="178.076691"/>
     <use style="fill:#1f77b4;stroke:#1f77b4;" x="262.443422" xlink:href="#m965ab904cb" y="185.354449"/>
     <use style="fill:#1f77b4;stroke:#1f77b4;" x="256.500323" xlink:href="#m965ab904cb" y="192.316912"/>
     <use style="fill:#1f77b4;stroke:#1f77b4;" x="250.654446" xlink:href="#m965ab904cb" y="199.05054"/>
     <use style="fill:#1f77b4;stroke:#1f77b4;" x="244.920987" xlink:href="#m965ab904cb" y="205.13505"/>
     <use style="fill:#1f77b4;stroke:#1f77b4;" x="239.274643" xlink:href="#m965ab904cb" y="211.051535"/>
     <use style="fill:#1f77b4;stroke:#1f77b4;" x="233.728038" xlink:href="#m965ab904cb" y="216.224193"/>
     <use style="fill:#1f77b4;stroke:#1f77b4;" x="228.279664" xlink:href="#m965ab904cb" y="221.03974"/>
     <use style="fill:#1f77b4;stroke:#1f77b4;" x="222.922836" xlink:href="#m965ab904cb" y="225.343321"/>
     <use style="fill:#1f77b4;stroke:#1f77b4;" x="217.653451" xlink:href="#m965ab904cb" y="229.191824"/>
     <use style="fill:#1f77b4;stroke:#1f77b4;" x="212.474232" xlink:href="#m965ab904cb" y="232.689047"/>
     <use style="fill:#1f77b4;stroke:#1f77b4;" x="207.399538" xlink:href="#m965ab904cb" y="235.122485"/>
     <use style="fill:#1f77b4;stroke:#1f77b4;" x="202.396165" xlink:href="#m965ab904cb" y="237.115156"/>
     <use style="fill:#1f77b4;stroke:#1f77b4;" x="197.470208" xlink:href="#m965ab904cb" y="238.701716"/>
     <use style="fill:#1f77b4;stroke:#1f77b4;" x="192.650619" xlink:href="#m965ab904cb" y="239.886205"/>
     <use style="fill:#1f77b4;stroke:#1f77b4;" x="187.898037" xlink:href="#m965ab904cb" y="240.296602"/>
     <use style="fill:#1f77b4;stroke:#1f77b4;" x="183.245703" xlink:href="#m965ab904cb" y="239.90975"/>
     <use style="fill:#1f77b4;stroke:#1f77b4;" x="178.672746" xlink:href="#m965ab904cb" y="239.541206"/>
     <use style="fill:#1f77b4;stroke:#1f77b4;" x="174.179016" xlink:href="#m965ab904cb" y="238.513049"/>
     <use style="fill:#1f77b4;stroke:#1f77b4;" x="169.777891" xlink:href="#m965ab904cb" y="236.227962"/>
     <use style="fill:#1f77b4;stroke:#1f77b4;" x="165.43975" xlink:href="#m965ab904cb" y="233.399784"/>
     <use style="fill:#1f77b4;stroke:#1f77b4;" x="161.195444" xlink:href="#m965ab904cb" y="230.240707"/>
     <use style="fill:#1f77b4;stroke:#1f77b4;" x="157.018032" xlink:href="#m965ab904cb" y="226.262189"/>
     <use style="fill:#1f77b4;stroke:#1f77b4;" x="152.919075" xlink:href="#m965ab904cb" y="221.9328"/>
     <use style="fill:#1f77b4;stroke:#1f77b4;" x="148.895427" xlink:href="#m965ab904cb" y="216.843532"/>
     <use style="fill:#1f77b4;stroke:#1f77b4;" x="144.929027" xlink:href="#m965ab904cb" y="210.982802"/>
     <use style="fill:#1f77b4;stroke:#1f77b4;" x="141.054811" xlink:href="#m965ab904cb" y="204.974842"/>
     <use style="fill:#1f77b4;stroke:#1f77b4;" x="137.245767" xlink:href="#m965ab904cb" y="198.584077"/>
     <use style="fill:#1f77b4;stroke:#1f77b4;" x="133.499286" xlink:href="#m965ab904cb" y="191.768005"/>
     <use style="fill:#1f77b4;stroke:#1f77b4;" x="129.824378" xlink:href="#m965ab904cb" y="184.813624"/>
     <use style="fill:#1f77b4;stroke:#1f77b4;" x="126.206587" xlink:href="#m965ab904cb" y="176.800523"/>
     <use style="fill:#1f77b4;stroke:#1f77b4;" x="122.658257" xlink:href="#m965ab904cb" y="168.659211"/>
     <use style="fill:#1f77b4;stroke:#1f77b4;" x="119.173438" xlink:href="#m965ab904cb" y="160.392452"/>
     <use style="fill:#1f77b4;stroke:#1f77b4;" x="115.711813" xlink:href="#m965ab904cb" y="150.308447"/>
     <use style="fill:#1f77b4;stroke:#1f77b4;" x="112.364816" xlink:href="#m965ab904cb" y="142.286683"/>
     <use style="fill:#1f77b4;stroke:#1f77b4;" x="112.04468" xlink:href="#m965ab904cb" y="142.091075"/>
     <use style="fill:#1f77b4;stroke:#1f77b4;" x="111.720557" xlink:href="#m965ab904cb" y="141.791934"/>
     <use style="fill:#1f77b4;stroke:#1f77b4;" x="111.393822" xlink:href="#m965ab904cb" y="141.382944"/>
     <use style="fill:#1f77b4;stroke:#1f77b4;" x="111.069875" xlink:href="#m965ab904cb" y="140.943411"/>
     <use style="fill:#1f77b4;stroke:#1f77b4;" x="110.746153" xlink:href="#m965ab904cb" y="140.468706"/>
     <use style="fill:#1f77b4;stroke:#1f77b4;" x="110.422344" xlink:href="#m965ab904cb" y="139.966549"/>
     <use style="fill:#1f77b4;stroke:#1f77b4;" x="110.099468" xlink:href="#m965ab904cb" y="139.452826"/>
     <use style="fill:#1f77b4;stroke:#1f77b4;" x="109.776688" xlink:href="#m965ab904cb" y="138.966562"/>
     <use style="fill:#1f77b4;stroke:#1f77b4;" x="109.456173" xlink:href="#m965ab904cb" y="138.439909"/>
     <use style="fill:#1f77b4;stroke:#1f77b4;" x="109.136281" xlink:href="#m965ab904cb" y="137.925983"/>
     <use style="fill:#1f77b4;stroke:#1f77b4;" x="108.816885" xlink:href="#m965ab904cb" y="137.415134"/>
     <use style="fill:#1f77b4;stroke:#1f77b4;" x="108.499047" xlink:href="#m965ab904cb" y="136.864018"/>
     <use style="fill:#1f77b4;stroke:#1f77b4;" x="108.180103" xlink:href="#m965ab904cb" y="136.349984"/>
     <use style="fill:#1f77b4;stroke:#1f77b4;" x="107.861451" xlink:href="#m965ab904cb" y="135.836093"/>
     <use style="fill:#1f77b4;stroke:#1f77b4;" x="107.544615" xlink:href="#m965ab904cb" y="135.303558"/>
     <use style="fill:#1f77b4;stroke:#1f77b4;" x="107.227957" xlink:href="#m965ab904cb" y="134.77492"/>
     <use style="fill:#1f77b4;stroke:#1f77b4;" x="106.912615" xlink:href="#m965ab904cb" y="134.299782"/>
     <use style="fill:#1f77b4;stroke:#1f77b4;" x="106.597832" xlink:href="#m965ab904cb" y="133.753725"/>
     <use style="fill:#1f77b4;stroke:#1f77b4;" x="106.284755" xlink:href="#m965ab904cb" y="133.240028"/>
     <use style="fill:#1f77b4;stroke:#1f77b4;" x="105.971217" xlink:href="#m965ab904cb" y="132.681363"/>
     <use style="fill:#1f77b4;stroke:#1f77b4;" x="105.659789" xlink:href="#m965ab904cb" y="132.162173"/>
     <use style="fill:#1f77b4;stroke:#1f77b4;" x="105.347283" xlink:href="#m965ab904cb" y="131.571818"/>
     <use style="fill:#1f77b4;stroke:#1f77b4;" x="105.035345" xlink:href="#m965ab904cb" y="131.092013"/>
     <use style="fill:#1f77b4;stroke:#1f77b4;" x="104.724783" xlink:href="#m965ab904cb" y="130.478942"/>
     <use style="fill:#1f77b4;stroke:#1f77b4;" x="104.415091" xlink:href="#m965ab904cb" y="129.973535"/>
     <use style="fill:#1f77b4;stroke:#1f77b4;" x="104.384626" xlink:href="#m965ab904cb" y="129.942938"/>
     <use style="fill:#1f77b4;stroke:#1f77b4;" x="104.353727" xlink:href="#m965ab904cb" y="129.910658"/>
     <use style="fill:#1f77b4;stroke:#1f77b4;" x="104.32263" xlink:href="#m965ab904cb" y="129.877068"/>
     <use style="fill:#1f77b4;stroke:#1f77b4;" x="104.291593" xlink:href="#m965ab904cb" y="129.842578"/>
     <use style="fill:#1f77b4;stroke:#1f77b4;" x="104.260712" xlink:href="#m965ab904cb" y="129.813897"/>
     <use style="fill:#1f77b4;stroke:#1f77b4;" x="104.229431" xlink:href="#m965ab904cb" y="129.782514"/>
     <use style="fill:#1f77b4;stroke:#1f77b4;" x="104.198597" xlink:href="#m965ab904cb" y="129.752688"/>
     <use style="fill:#1f77b4;stroke:#1f77b4;" x="104.167771" xlink:href="#m965ab904cb" y="129.724951"/>
     <use style="fill:#1f77b4;stroke:#1f77b4;" x="104.136797" xlink:href="#m965ab904cb" y="129.702527"/>
     <use style="fill:#1f77b4;stroke:#1f77b4;" x="104.105738" xlink:href="#m965ab904cb" y="129.678021"/>
     <use style="fill:#1f77b4;stroke:#1f77b4;" x="104.074875" xlink:href="#m965ab904cb" y="129.646583"/>
     <use style="fill:#1f77b4;stroke:#1f77b4;" x="104.044111" xlink:href="#m965ab904cb" y="129.612144"/>
     <use style="fill:#1f77b4;stroke:#1f77b4;" x="104.013285" xlink:href="#m965ab904cb" y="129.581695"/>
     <use style="fill:#1f77b4;stroke:#1f77b4;" x="103.982261" xlink:href="#m965ab904cb" y="129.550756"/>
     <use style="fill:#1f77b4;stroke:#1f77b4;" x="103.951474" xlink:href="#m965ab904cb" y="129.527288"/>
     <use style="fill:#1f77b4;stroke:#1f77b4;" x="103.920712" xlink:href="#m965ab904cb" y="129.495336"/>
     <use style="fill:#1f77b4;stroke:#1f77b4;" x="103.890138" xlink:href="#m965ab904cb" y="129.465007"/>
     <use style="fill:#1f77b4;stroke:#1f77b4;" x="103.859304" xlink:href="#m965ab904cb" y="129.442367"/>
     <use style="fill:#1f77b4;stroke:#1f77b4;" x="103.828525" xlink:href="#m965ab904cb" y="129.421674"/>
     <use style="fill:#1f77b4;stroke:#1f77b4;" x="103.79762" xlink:href="#m965ab904cb" y="129.398328"/>
     <use style="fill:#1f77b4;stroke:#1f77b4;" x="103.76689" xlink:href="#m965ab904cb" y="129.364969"/>
     <use style="fill:#1f77b4;stroke:#1f77b4;" x="103.736231" xlink:href="#m965ab904cb" y="129.336968"/>
     <use style="fill:#1f77b4;stroke:#1f77b4;" x="103.705741" xlink:href="#m965ab904cb" y="129.312739"/>
     <use style="fill:#1f77b4;stroke:#1f77b4;" x="103.675085" xlink:href="#m965ab904cb" y="129.294239"/>
    </g>
   </g>
   <g id="patch_3">
    <path d="M 56.028488 277.111219 
L 56.028488 10.999219 
" style="fill:none;stroke:#000000;stroke-linecap:square;stroke-linejoin:miter;stroke-width:0.8;"/>
   </g>
   <g id="patch_4">
    <path d="M 413.148488 277.111219 
L 413.148488 10.999219 
" style="fill:none;stroke:#000000;stroke-linecap:square;stroke-linejoin:miter;stroke-width:0.8;"/>
   </g>
   <g id="patch_5">
    <path d="M 56.028487 277.111219 
L 413.148488 277.111219 
" style="fill:none;stroke:#000000;stroke-linecap:square;stroke-linejoin:miter;stroke-width:0.8;"/>
   </g>
   <g id="patch_6">
    <path d="M 56.028487 10.999219 
L 413.148488 10.999219 
" style="fill:none;stroke:#000000;stroke-linecap:square;stroke-linejoin:miter;stroke-width:0.8;"/>
   </g>
   <g id="text_21">
    <g clip-path="url(#pefce66e525)">
     <!-- 1.000 -->
     <g style="fill:#482576;" transform="translate(101.983893 134.904166)rotate(-89.954567)scale(0.06 -0.06)">
      <use xlink:href="#DejaVuSans-49"/>
      <use x="63.623047" xlink:href="#DejaVuSans-46"/>
      <use x="95.410156" xlink:href="#DejaVuSans-48"/>
      <use x="159.033203" xlink:href="#DejaVuSans-48"/>
      <use x="222.65625" xlink:href="#DejaVuSans-48"/>
     </g>
    </g>
   </g>
   <g id="text_22">
    <g clip-path="url(#pefce66e525)">
     <!-- 1.500 -->
     <g style="fill:#453781;" transform="translate(102.950887 170.960836)rotate(-270.422933)scale(0.06 -0.06)">
      <defs>
       <path d="M 10.796875 72.90625 
L 49.515625 72.90625 
L 49.515625 64.59375 
L 19.828125 64.59375 
L 19.828125 46.734375 
Q 21.96875 47.46875 24.109375 47.828125 
Q 26.265625 48.1875 28.421875 48.1875 
Q 40.625 48.1875 47.75 41.5 
Q 54.890625 34.8125 54.890625 23.390625 
Q 54.890625 11.625 47.5625 5.09375 
Q 40.234375 -1.421875 26.90625 -1.421875 
Q 22.3125 -1.421875 17.546875 -0.640625 
Q 12.796875 0.140625 7.71875 1.703125 
L 7.71875 11.625 
Q 12.109375 9.234375 16.796875 8.0625 
Q 21.484375 6.890625 26.703125 6.890625 
Q 35.15625 6.890625 40.078125 11.328125 
Q 45.015625 15.765625 45.015625 23.390625 
Q 45.015625 31 40.078125 35.4375 
Q 35.15625 39.890625 26.703125 39.890625 
Q 22.75 39.890625 18.8125 39.015625 
Q 14.890625 38.140625 10.796875 36.28125 
z
" id="DejaVuSans-53"/>
      </defs>
      <use xlink:href="#DejaVuSans-49"/>
      <use x="63.623047" xlink:href="#DejaVuSans-46"/>
      <use x="95.410156" xlink:href="#DejaVuSans-53"/>
      <use x="159.033203" xlink:href="#DejaVuSans-48"/>
      <use x="222.65625" xlink:href="#DejaVuSans-48"/>
     </g>
    </g>
   </g>
   <g id="text_23">
    <g clip-path="url(#pefce66e525)">
     <!-- 2.000 -->
     <g style="fill:#404688;" transform="translate(89.142837 232.502934)rotate(-89.072375)scale(0.06 -0.06)">
      <use xlink:href="#DejaVuSans-50"/>
      <use x="63.623047" xlink:href="#DejaVuSans-46"/>
      <use x="95.410156" xlink:href="#DejaVuSans-48"/>
      <use x="159.033203" xlink:href="#DejaVuSans-48"/>
      <use x="222.65625" xlink:href="#DejaVuSans-48"/>
     </g>
    </g>
   </g>
   <g id="text_24">
    <g clip-path="url(#pefce66e525)">
     <!-- 2.000 -->
     <g style="fill:#404688;" transform="translate(88.140272 48.217585)rotate(-294.442703)scale(0.06 -0.06)">
      <use xlink:href="#DejaVuSans-50"/>
      <use x="63.623047" xlink:href="#DejaVuSans-46"/>
      <use x="95.410156" xlink:href="#DejaVuSans-48"/>
      <use x="159.033203" xlink:href="#DejaVuSans-48"/>
      <use x="222.65625" xlink:href="#DejaVuSans-48"/>
     </g>
    </g>
   </g>
   <g id="text_25">
    <g clip-path="url(#pefce66e525)">
     <!-- 2.500 -->
     <g style="fill:#39558c;" transform="translate(79.227521 179.255803)rotate(-89.967178)scale(0.06 -0.06)">
      <use xlink:href="#DejaVuSans-50"/>
      <use x="63.623047" xlink:href="#DejaVuSans-46"/>
      <use x="95.410156" xlink:href="#DejaVuSans-53"/>
      <use x="159.033203" xlink:href="#DejaVuSans-48"/>
      <use x="222.65625" xlink:href="#DejaVuSans-48"/>
     </g>
    </g>
   </g>
   <g id="text_26">
    <g clip-path="url(#pefce66e525)">
     <!-- 2.500 -->
     <g style="fill:#39558c;" transform="translate(90.813374 49.15767)rotate(-304.007189)scale(0.06 -0.06)">
      <use xlink:href="#DejaVuSans-50"/>
      <use x="63.623047" xlink:href="#DejaVuSans-46"/>
      <use x="95.410156" xlink:href="#DejaVuSans-53"/>
      <use x="159.033203" xlink:href="#DejaVuSans-48"/>
      <use x="222.65625" xlink:href="#DejaVuSans-48"/>
     </g>
    </g>
   </g>
   <g id="text_27">
    <g clip-path="url(#pefce66e525)">
     <!-- 3.000 -->
     <g style="fill:#33638d;" transform="translate(95.438499 48.423107)rotate(-296.706963)scale(0.06 -0.06)">
      <defs>
       <path d="M 40.578125 39.3125 
Q 47.65625 37.796875 51.625 33 
Q 55.609375 28.21875 55.609375 21.1875 
Q 55.609375 10.40625 48.1875 4.484375 
Q 40.765625 -1.421875 27.09375 -1.421875 
Q 22.515625 -1.421875 17.65625 -0.515625 
Q 12.796875 0.390625 7.625 2.203125 
L 7.625 11.71875 
Q 11.71875 9.328125 16.59375 8.109375 
Q 21.484375 6.890625 26.8125 6.890625 
Q 36.078125 6.890625 40.9375 10.546875 
Q 45.796875 14.203125 45.796875 21.1875 
Q 45.796875 27.640625 41.28125 31.265625 
Q 36.765625 34.90625 28.71875 34.90625 
L 20.21875 34.90625 
L 20.21875 43.015625 
L 29.109375 43.015625 
Q 36.375 43.015625 40.234375 45.921875 
Q 44.09375 48.828125 44.09375 54.296875 
Q 44.09375 59.90625 40.109375 62.90625 
Q 36.140625 65.921875 28.71875 65.921875 
Q 24.65625 65.921875 20.015625 65.03125 
Q 15.375 64.15625 9.8125 62.3125 
L 9.8125 71.09375 
Q 15.4375 72.65625 20.34375 73.4375 
Q 25.25 74.21875 29.59375 74.21875 
Q 40.828125 74.21875 47.359375 69.109375 
Q 53.90625 64.015625 53.90625 55.328125 
Q 53.90625 49.265625 50.4375 45.09375 
Q 46.96875 40.921875 40.578125 39.3125 
z
" id="DejaVuSans-51"/>
      </defs>
      <use xlink:href="#DejaVuSans-51"/>
      <use x="63.623047" xlink:href="#DejaVuSans-46"/>
      <use x="95.410156" xlink:href="#DejaVuSans-48"/>
      <use x="159.033203" xlink:href="#DejaVuSans-48"/>
      <use x="222.65625" xlink:href="#DejaVuSans-48"/>
     </g>
    </g>
   </g>
   <g id="text_28">
    <g clip-path="url(#pefce66e525)">
     <!-- 3.500 -->
     <g style="fill:#2d718e;" transform="translate(99.136337 47.428777)rotate(-290.114236)scale(0.06 -0.06)">
      <use xlink:href="#DejaVuSans-51"/>
      <use x="63.623047" xlink:href="#DejaVuSans-46"/>
      <use x="95.410156" xlink:href="#DejaVuSans-53"/>
      <use x="159.033203" xlink:href="#DejaVuSans-48"/>
      <use x="222.65625" xlink:href="#DejaVuSans-48"/>
     </g>
    </g>
   </g>
   <g id="text_29">
    <g clip-path="url(#pefce66e525)">
     <!-- 4.000 -->
     <g style="fill:#287d8e;" transform="translate(99.175285 45.648397)rotate(-289.816972)scale(0.06 -0.06)">
      <use xlink:href="#DejaVuSans-52"/>
      <use x="63.623047" xlink:href="#DejaVuSans-46"/>
      <use x="95.410156" xlink:href="#DejaVuSans-48"/>
      <use x="159.033203" xlink:href="#DejaVuSans-48"/>
      <use x="222.65625" xlink:href="#DejaVuSans-48"/>
     </g>
    </g>
   </g>
   <g id="text_30">
    <g clip-path="url(#pefce66e525)">
     <!-- 4.500 -->
     <g style="fill:#238a8d;" transform="translate(99.399879 43.762263)rotate(-288.120123)scale(0.06 -0.06)">
      <use xlink:href="#DejaVuSans-52"/>
      <use x="63.623047" xlink:href="#DejaVuSans-46"/>
      <use x="95.410156" xlink:href="#DejaVuSans-53"/>
      <use x="159.033203" xlink:href="#DejaVuSans-48"/>
      <use x="222.65625" xlink:href="#DejaVuSans-48"/>
     </g>
    </g>
   </g>
   <g id="text_31">
    <g clip-path="url(#pefce66e525)">
     <!-- 5.000 -->
     <g style="fill:#1f968b;" transform="translate(99.486931 41.957499)rotate(-287.469958)scale(0.06 -0.06)">
      <use xlink:href="#DejaVuSans-53"/>
      <use x="63.623047" xlink:href="#DejaVuSans-46"/>
      <use x="95.410156" xlink:href="#DejaVuSans-48"/>
      <use x="159.033203" xlink:href="#DejaVuSans-48"/>
      <use x="222.65625" xlink:href="#DejaVuSans-48"/>
     </g>
    </g>
   </g>
   <g id="text_32">
    <g clip-path="url(#pefce66e525)">
     <!-- 5.500 -->
     <g style="fill:#20a386;" transform="translate(99.4548 40.217854)rotate(-287.709465)scale(0.06 -0.06)">
      <use xlink:href="#DejaVuSans-53"/>
      <use x="63.623047" xlink:href="#DejaVuSans-46"/>
      <use x="95.410156" xlink:href="#DejaVuSans-53"/>
      <use x="159.033203" xlink:href="#DejaVuSans-48"/>
      <use x="222.65625" xlink:href="#DejaVuSans-48"/>
     </g>
    </g>
   </g>
   <g id="text_33">
    <g clip-path="url(#pefce66e525)">
     <!-- 6.000 -->
     <g style="fill:#29af7f;" transform="translate(103.462856 100.153065)rotate(-274.781214)scale(0.06 -0.06)">
      <use xlink:href="#DejaVuSans-54"/>
      <use x="63.623047" xlink:href="#DejaVuSans-46"/>
      <use x="95.410156" xlink:href="#DejaVuSans-48"/>
      <use x="159.033203" xlink:href="#DejaVuSans-48"/>
      <use x="222.65625" xlink:href="#DejaVuSans-48"/>
     </g>
    </g>
   </g>
   <g id="text_34">
    <g clip-path="url(#pefce66e525)">
     <!-- 6.500 -->
     <g style="fill:#3dbc74;" transform="translate(103.603727 100.171679)rotate(-275.225897)scale(0.06 -0.06)">
      <use xlink:href="#DejaVuSans-54"/>
      <use x="63.623047" xlink:href="#DejaVuSans-46"/>
      <use x="95.410156" xlink:href="#DejaVuSans-53"/>
      <use x="159.033203" xlink:href="#DejaVuSans-48"/>
      <use x="222.65625" xlink:href="#DejaVuSans-48"/>
     </g>
    </g>
   </g>
   <g id="text_35">
    <g clip-path="url(#pefce66e525)">
     <!-- 7.000 -->
     <g style="fill:#56c667;" transform="translate(103.744796 100.190784)rotate(-275.670222)scale(0.06 -0.06)">
      <defs>
       <path d="M 8.203125 72.90625 
L 55.078125 72.90625 
L 55.078125 68.703125 
L 28.609375 0 
L 18.3125 0 
L 43.21875 64.59375 
L 8.203125 64.59375 
z
" id="DejaVuSans-55"/>
      </defs>
      <use xlink:href="#DejaVuSans-55"/>
      <use x="63.623047" xlink:href="#DejaVuSans-46"/>
      <use x="95.410156" xlink:href="#DejaVuSans-48"/>
      <use x="159.033203" xlink:href="#DejaVuSans-48"/>
      <use x="222.65625" xlink:href="#DejaVuSans-48"/>
     </g>
    </g>
   </g>
   <g id="text_36">
    <g clip-path="url(#pefce66e525)">
     <!-- 7.500 -->
     <g style="fill:#75d054;" transform="translate(103.886073 100.210375)rotate(-276.114158)scale(0.06 -0.06)">
      <use xlink:href="#DejaVuSans-55"/>
      <use x="63.623047" xlink:href="#DejaVuSans-46"/>
      <use x="95.410156" xlink:href="#DejaVuSans-53"/>
      <use x="159.033203" xlink:href="#DejaVuSans-48"/>
      <use x="222.65625" xlink:href="#DejaVuSans-48"/>
     </g>
    </g>
   </g>
   <g id="text_37">
    <g clip-path="url(#pefce66e525)">
     <!-- 8.000 -->
     <g style="fill:#95d840;" transform="translate(104.027564 100.23045)rotate(-276.557676)scale(0.06 -0.06)">
      <use xlink:href="#DejaVuSans-56"/>
      <use x="63.623047" xlink:href="#DejaVuSans-46"/>
      <use x="95.410156" xlink:href="#DejaVuSans-48"/>
      <use x="159.033203" xlink:href="#DejaVuSans-48"/>
      <use x="222.65625" xlink:href="#DejaVuSans-48"/>
     </g>
    </g>
   </g>
   <g id="text_38">
    <g clip-path="url(#pefce66e525)">
     <!-- 8.500 -->
     <g style="fill:#bade28;" transform="translate(104.169278 100.251003)rotate(-277.000745)scale(0.06 -0.06)">
      <use xlink:href="#DejaVuSans-56"/>
      <use x="63.623047" xlink:href="#DejaVuSans-46"/>
      <use x="95.410156" xlink:href="#DejaVuSans-53"/>
      <use x="159.033203" xlink:href="#DejaVuSans-48"/>
      <use x="222.65625" xlink:href="#DejaVuSans-48"/>
     </g>
    </g>
   </g>
   <g id="text_39">
    <g clip-path="url(#pefce66e525)">
     <!-- 9.000 -->
     <g style="fill:#dde318;" transform="translate(104.311221 100.272031)rotate(-277.443337)scale(0.06 -0.06)">
      <use xlink:href="#DejaVuSans-57"/>
      <use x="63.623047" xlink:href="#DejaVuSans-46"/>
      <use x="95.410156" xlink:href="#DejaVuSans-48"/>
      <use x="159.033203" xlink:href="#DejaVuSans-48"/>
      <use x="222.65625" xlink:href="#DejaVuSans-48"/>
     </g>
    </g>
   </g>
   <g id="text_40">
    <g clip-path="url(#pefce66e525)">
     <!-- 9.500 -->
     <g style="fill:#fde725;" transform="translate(104.453403 100.293529)rotate(-277.885422)scale(0.06 -0.06)">
      <use xlink:href="#DejaVuSans-57"/>
      <use x="63.623047" xlink:href="#DejaVuSans-46"/>
      <use x="95.410156" xlink:href="#DejaVuSans-53"/>
      <use x="159.033203" xlink:href="#DejaVuSans-48"/>
      <use x="222.65625" xlink:href="#DejaVuSans-48"/>
     </g>
    </g>
   </g>
   <g id="text_41">
    <g clip-path="url(#pefce66e525)">
     <!-- 10.000 -->
     <g style="fill:#440154;" transform="translate(107.528301 115.994886)rotate(-274.852034)scale(0.06 -0.06)">
      <use xlink:href="#DejaVuSans-49"/>
      <use x="63.623047" xlink:href="#DejaVuSans-48"/>
      <use x="127.246094" xlink:href="#DejaVuSans-46"/>
      <use x="159.033203" xlink:href="#DejaVuSans-48"/>
      <use x="222.65625" xlink:href="#DejaVuSans-48"/>
      <use x="286.279297" xlink:href="#DejaVuSans-48"/>
     </g>
    </g>
   </g>
   <g id="text_42">
    <g clip-path="url(#pefce66e525)">
     <!-- 100.000 -->
     <g style="fill:#440154;" transform="translate(114.181555 131.651523)rotate(-270.0772)scale(0.06 -0.06)">
      <use xlink:href="#DejaVuSans-49"/>
      <use x="63.623047" xlink:href="#DejaVuSans-48"/>
      <use x="127.246094" xlink:href="#DejaVuSans-48"/>
      <use x="190.869141" xlink:href="#DejaVuSans-46"/>
      <use x="222.65625" xlink:href="#DejaVuSans-48"/>
      <use x="286.279297" xlink:href="#DejaVuSans-48"/>
      <use x="349.902344" xlink:href="#DejaVuSans-48"/>
     </g>
    </g>
   </g>
   <g id="text_43">
    <g clip-path="url(#pefce66e525)">
     <!-- 1000.000 -->
     <g style="fill:#440154;" transform="translate(117.337246 129.75489)rotate(-270.47956)scale(0.06 -0.06)">
      <use xlink:href="#DejaVuSans-49"/>
      <use x="63.623047" xlink:href="#DejaVuSans-48"/>
      <use x="127.246094" xlink:href="#DejaVuSans-48"/>
      <use x="190.869141" xlink:href="#DejaVuSans-48"/>
      <use x="254.492188" xlink:href="#DejaVuSans-46"/>
      <use x="286.279297" xlink:href="#DejaVuSans-48"/>
      <use x="349.902344" xlink:href="#DejaVuSans-48"/>
      <use x="413.525391" xlink:href="#DejaVuSans-48"/>
     </g>
    </g>
   </g>
   <g id="text_44">
    <g clip-path="url(#pefce66e525)">
     <!-- 10000.000 -->
     <g style="fill:#440154;" transform="translate(125.87615 127.832561)rotate(-270.026939)scale(0.06 -0.06)">
      <use xlink:href="#DejaVuSans-49"/>
      <use x="63.623047" xlink:href="#DejaVuSans-48"/>
      <use x="127.246094" xlink:href="#DejaVuSans-48"/>
      <use x="190.869141" xlink:href="#DejaVuSans-48"/>
      <use x="254.492188" xlink:href="#DejaVuSans-48"/>
      <use x="318.115234" xlink:href="#DejaVuSans-46"/>
      <use x="349.902344" xlink:href="#DejaVuSans-48"/>
      <use x="413.525391" xlink:href="#DejaVuSans-48"/>
      <use x="477.148438" xlink:href="#DejaVuSans-48"/>
     </g>
    </g>
   </g>
   <g id="text_45">
    <g clip-path="url(#pefce66e525)">
     <!-- 100000.000 -->
     <g style="fill:#440154;" transform="translate(126.954811 125.932156)rotate(-270.306794)scale(0.06 -0.06)">
      <use xlink:href="#DejaVuSans-49"/>
      <use x="63.623047" xlink:href="#DejaVuSans-48"/>
      <use x="127.246094" xlink:href="#DejaVuSans-48"/>
      <use x="190.869141" xlink:href="#DejaVuSans-48"/>
      <use x="254.492188" xlink:href="#DejaVuSans-48"/>
      <use x="318.115234" xlink:href="#DejaVuSans-48"/>
      <use x="381.738281" xlink:href="#DejaVuSans-46"/>
      <use x="413.525391" xlink:href="#DejaVuSans-48"/>
      <use x="477.148438" xlink:href="#DejaVuSans-48"/>
      <use x="540.771484" xlink:href="#DejaVuSans-48"/>
     </g>
    </g>
   </g>
   <g id="text_46">
    <g clip-path="url(#pefce66e525)">
     <!-- 1000000.000 -->
     <g style="fill:#450457;" transform="translate(137.700409 124.014613)rotate(-270.011453)scale(0.06 -0.06)">
      <use xlink:href="#DejaVuSans-49"/>
      <use x="63.623047" xlink:href="#DejaVuSans-48"/>
      <use x="127.246094" xlink:href="#DejaVuSans-48"/>
      <use x="190.869141" xlink:href="#DejaVuSans-48"/>
      <use x="254.492188" xlink:href="#DejaVuSans-48"/>
      <use x="318.115234" xlink:href="#DejaVuSans-48"/>
      <use x="381.738281" xlink:href="#DejaVuSans-48"/>
      <use x="445.361328" xlink:href="#DejaVuSans-46"/>
      <use x="477.148438" xlink:href="#DejaVuSans-48"/>
      <use x="540.771484" xlink:href="#DejaVuSans-48"/>
      <use x="604.394531" xlink:href="#DejaVuSans-48"/>
     </g>
    </g>
   </g>
   <g id="text_47">
    <g clip-path="url(#pefce66e525)">
     <!-- 10000000.000 -->
     <g style="fill:#482475;" transform="translate(138.02997 122.111434)rotate(-270.199657)scale(0.06 -0.06)">
      <use xlink:href="#DejaVuSans-49"/>
      <use x="63.623047" xlink:href="#DejaVuSans-48"/>
      <use x="127.246094" xlink:href="#DejaVuSans-48"/>
      <use x="190.869141" xlink:href="#DejaVuSans-48"/>
      <use x="254.492188" xlink:href="#DejaVuSans-48"/>
      <use x="318.115234" xlink:href="#DejaVuSans-48"/>
      <use x="381.738281" xlink:href="#DejaVuSans-48"/>
      <use x="445.361328" xlink:href="#DejaVuSans-48"/>
      <use x="508.984375" xlink:href="#DejaVuSans-46"/>
      <use x="540.771484" xlink:href="#DejaVuSans-48"/>
      <use x="604.394531" xlink:href="#DejaVuSans-48"/>
      <use x="668.017578" xlink:href="#DejaVuSans-48"/>
     </g>
    </g>
   </g>
   <g id="text_48">
    <g clip-path="url(#pefce66e525)">
     <!-- 100000000.000 -->
     <g style="fill:#fde725;" transform="translate(141.461236 129.163097)rotate(-272.521031)scale(0.06 -0.06)">
      <use xlink:href="#DejaVuSans-49"/>
      <use x="63.623047" xlink:href="#DejaVuSans-48"/>
      <use x="127.246094" xlink:href="#DejaVuSans-48"/>
      <use x="190.869141" xlink:href="#DejaVuSans-48"/>
      <use x="254.492188" xlink:href="#DejaVuSans-48"/>
      <use x="318.115234" xlink:href="#DejaVuSans-48"/>
      <use x="381.738281" xlink:href="#DejaVuSans-48"/>
      <use x="445.361328" xlink:href="#DejaVuSans-48"/>
      <use x="508.984375" xlink:href="#DejaVuSans-48"/>
      <use x="572.607422" xlink:href="#DejaVuSans-46"/>
      <use x="604.394531" xlink:href="#DejaVuSans-48"/>
      <use x="668.017578" xlink:href="#DejaVuSans-48"/>
      <use x="731.640625" xlink:href="#DejaVuSans-48"/>
     </g>
    </g>
   </g>
  </g>
 </g>
 <defs>
  <clipPath id="pefce66e525">
   <rect height="266.112" width="357.12" x="56.028488" y="10.999219"/>
  </clipPath>
 </defs>
</svg>
