<?xml version="1.0" encoding="utf-8" standalone="no"?>
<!DOCTYPE svg PUBLIC "-//W3C//DTD SVG 1.1//EN"
  "http://www.w3.org/Graphics/SVG/1.1/DTD/svg11.dtd">
<!-- Created with matplotlib (https://matplotlib.org/) -->
<svg height="321.713144pt" version="1.1" viewBox="0 0 420.348487 321.713144" width="420.348487pt" xmlns="http://www.w3.org/2000/svg" xmlns:xlink="http://www.w3.org/1999/xlink">
 <metadata>
  <rdf:RDF xmlns:cc="http://creativecommons.org/ns#" xmlns:dc="http://purl.org/dc/elements/1.1/" xmlns:rdf="http://www.w3.org/1999/02/22-rdf-syntax-ns#">
   <cc:Work>
    <dc:type rdf:resource="http://purl.org/dc/dcmitype/StillImage"/>
    <dc:date>2021-09-17T13:43:13.821808</dc:date>
    <dc:format>image/svg+xml</dc:format>
    <dc:creator>
     <cc:Agent>
      <dc:title>Matplotlib v3.3.1, https://matplotlib.org/</dc:title>
     </cc:Agent>
    </dc:creator>
   </cc:Work>
  </rdf:RDF>
 </metadata>
 <defs>
  <style type="text/css">*{stroke-linecap:butt;stroke-linejoin:round;}</style>
 </defs>
 <g id="figure_1">
  <g id="patch_1">
   <path d="M 0 321.713144 
L 420.348487 321.713144 
L 420.348487 0 
L 0 0 
z
" style="fill:#ffffff;"/>
  </g>
  <g id="axes_1">
   <g id="patch_2">
    <path d="M 56.028488 277.111219 
L 413.148488 277.111219 
L 413.148488 10.999219 
L 56.028488 10.999219 
z
" style="fill:#ffffff;"/>
   </g>
   <g id="matplotlib.axis_1">
    <g id="xtick_1">
     <g id="line2d_1">
      <defs>
       <path d="M 0 0 
L 0 3.5 
" id="me54d4037b3" style="stroke:#000000;stroke-width:0.8;"/>
      </defs>
      <g>
       <use style="stroke:#000000;stroke-width:0.8;" x="65.426382" xlink:href="#me54d4037b3" y="277.111219"/>
      </g>
     </g>
     <g id="text_1">
      <!-- −25 -->
      <g transform="translate(54.874038 291.709656)scale(0.1 -0.1)">
       <defs>
        <path d="M 10.59375 35.5 
L 73.1875 35.5 
L 73.1875 27.203125 
L 10.59375 27.203125 
z
" id="DejaVuSans-8722"/>
        <path d="M 19.1875 8.296875 
L 53.609375 8.296875 
L 53.609375 0 
L 7.328125 0 
L 7.328125 8.296875 
Q 12.9375 14.109375 22.625 23.890625 
Q 32.328125 33.6875 34.8125 36.53125 
Q 39.546875 41.84375 41.421875 45.53125 
Q 43.3125 49.21875 43.3125 52.78125 
Q 43.3125 58.59375 39.234375 62.25 
Q 35.15625 65.921875 28.609375 65.921875 
Q 23.96875 65.921875 18.8125 64.3125 
Q 13.671875 62.703125 7.8125 59.421875 
L 7.8125 69.390625 
Q 13.765625 71.78125 18.9375 73 
Q 24.125 74.21875 28.421875 74.21875 
Q 39.75 74.21875 46.484375 68.546875 
Q 53.21875 62.890625 53.21875 53.421875 
Q 53.21875 48.921875 51.53125 44.890625 
Q 49.859375 40.875 45.40625 35.40625 
Q 44.1875 33.984375 37.640625 27.21875 
Q 31.109375 20.453125 19.1875 8.296875 
z
" id="DejaVuSans-50"/>
        <path d="M 10.796875 72.90625 
L 49.515625 72.90625 
L 49.515625 64.59375 
L 19.828125 64.59375 
L 19.828125 46.734375 
Q 21.96875 47.46875 24.109375 47.828125 
Q 26.265625 48.1875 28.421875 48.1875 
Q 40.625 48.1875 47.75 41.5 
Q 54.890625 34.8125 54.890625 23.390625 
Q 54.890625 11.625 47.5625 5.09375 
Q 40.234375 -1.421875 26.90625 -1.421875 
Q 22.3125 -1.421875 17.546875 -0.640625 
Q 12.796875 0.140625 7.71875 1.703125 
L 7.71875 11.625 
Q 12.109375 9.234375 16.796875 8.0625 
Q 21.484375 6.890625 26.703125 6.890625 
Q 35.15625 6.890625 40.078125 11.328125 
Q 45.015625 15.765625 45.015625 23.390625 
Q 45.015625 31 40.078125 35.4375 
Q 35.15625 39.890625 26.703125 39.890625 
Q 22.75 39.890625 18.8125 39.015625 
Q 14.890625 38.140625 10.796875 36.28125 
z
" id="DejaVuSans-53"/>
       </defs>
       <use xlink:href="#DejaVuSans-8722"/>
       <use x="83.789062" xlink:href="#DejaVuSans-50"/>
       <use x="147.412109" xlink:href="#DejaVuSans-53"/>
      </g>
     </g>
    </g>
    <g id="xtick_2">
     <g id="line2d_2">
      <g>
       <use style="stroke:#000000;stroke-width:0.8;" x="112.415856" xlink:href="#me54d4037b3" y="277.111219"/>
      </g>
     </g>
     <g id="text_2">
      <!-- 0 -->
      <g transform="translate(109.234606 291.709656)scale(0.1 -0.1)">
       <defs>
        <path d="M 31.78125 66.40625 
Q 24.171875 66.40625 20.328125 58.90625 
Q 16.5 51.421875 16.5 36.375 
Q 16.5 21.390625 20.328125 13.890625 
Q 24.171875 6.390625 31.78125 6.390625 
Q 39.453125 6.390625 43.28125 13.890625 
Q 47.125 21.390625 47.125 36.375 
Q 47.125 51.421875 43.28125 58.90625 
Q 39.453125 66.40625 31.78125 66.40625 
z
M 31.78125 74.21875 
Q 44.046875 74.21875 50.515625 64.515625 
Q 56.984375 54.828125 56.984375 36.375 
Q 56.984375 17.96875 50.515625 8.265625 
Q 44.046875 -1.421875 31.78125 -1.421875 
Q 19.53125 -1.421875 13.0625 8.265625 
Q 6.59375 17.96875 6.59375 36.375 
Q 6.59375 54.828125 13.0625 64.515625 
Q 19.53125 74.21875 31.78125 74.21875 
z
" id="DejaVuSans-48"/>
       </defs>
       <use xlink:href="#DejaVuSans-48"/>
      </g>
     </g>
    </g>
    <g id="xtick_3">
     <g id="line2d_3">
      <g>
       <use style="stroke:#000000;stroke-width:0.8;" x="159.40533" xlink:href="#me54d4037b3" y="277.111219"/>
      </g>
     </g>
     <g id="text_3">
      <!-- 25 -->
      <g transform="translate(153.04283 291.709656)scale(0.1 -0.1)">
       <use xlink:href="#DejaVuSans-50"/>
       <use x="63.623047" xlink:href="#DejaVuSans-53"/>
      </g>
     </g>
    </g>
    <g id="xtick_4">
     <g id="line2d_4">
      <g>
       <use style="stroke:#000000;stroke-width:0.8;" x="206.394803" xlink:href="#me54d4037b3" y="277.111219"/>
      </g>
     </g>
     <g id="text_4">
      <!-- 50 -->
      <g transform="translate(200.032303 291.709656)scale(0.1 -0.1)">
       <use xlink:href="#DejaVuSans-53"/>
       <use x="63.623047" xlink:href="#DejaVuSans-48"/>
      </g>
     </g>
    </g>
    <g id="xtick_5">
     <g id="line2d_5">
      <g>
       <use style="stroke:#000000;stroke-width:0.8;" x="253.384277" xlink:href="#me54d4037b3" y="277.111219"/>
      </g>
     </g>
     <g id="text_5">
      <!-- 75 -->
      <g transform="translate(247.021777 291.709656)scale(0.1 -0.1)">
       <defs>
        <path d="M 8.203125 72.90625 
L 55.078125 72.90625 
L 55.078125 68.703125 
L 28.609375 0 
L 18.3125 0 
L 43.21875 64.59375 
L 8.203125 64.59375 
z
" id="DejaVuSans-55"/>
       </defs>
       <use xlink:href="#DejaVuSans-55"/>
       <use x="63.623047" xlink:href="#DejaVuSans-53"/>
      </g>
     </g>
    </g>
    <g id="xtick_6">
     <g id="line2d_6">
      <g>
       <use style="stroke:#000000;stroke-width:0.8;" x="300.373751" xlink:href="#me54d4037b3" y="277.111219"/>
      </g>
     </g>
     <g id="text_6">
      <!-- 100 -->
      <g transform="translate(290.830001 291.709656)scale(0.1 -0.1)">
       <defs>
        <path d="M 12.40625 8.296875 
L 28.515625 8.296875 
L 28.515625 63.921875 
L 10.984375 60.40625 
L 10.984375 69.390625 
L 28.421875 72.90625 
L 38.28125 72.90625 
L 38.28125 8.296875 
L 54.390625 8.296875 
L 54.390625 0 
L 12.40625 0 
z
" id="DejaVuSans-49"/>
       </defs>
       <use xlink:href="#DejaVuSans-49"/>
       <use x="63.623047" xlink:href="#DejaVuSans-48"/>
       <use x="127.246094" xlink:href="#DejaVuSans-48"/>
      </g>
     </g>
    </g>
    <g id="xtick_7">
     <g id="line2d_7">
      <g>
       <use style="stroke:#000000;stroke-width:0.8;" x="347.363224" xlink:href="#me54d4037b3" y="277.111219"/>
      </g>
     </g>
     <g id="text_7">
      <!-- 125 -->
      <g transform="translate(337.819474 291.709656)scale(0.1 -0.1)">
       <use xlink:href="#DejaVuSans-49"/>
       <use x="63.623047" xlink:href="#DejaVuSans-50"/>
       <use x="127.246094" xlink:href="#DejaVuSans-53"/>
      </g>
     </g>
    </g>
    <g id="xtick_8">
     <g id="line2d_8">
      <g>
       <use style="stroke:#000000;stroke-width:0.8;" x="394.352698" xlink:href="#me54d4037b3" y="277.111219"/>
      </g>
     </g>
     <g id="text_8">
      <!-- 150 -->
      <g transform="translate(384.808948 291.709656)scale(0.1 -0.1)">
       <use xlink:href="#DejaVuSans-49"/>
       <use x="63.623047" xlink:href="#DejaVuSans-53"/>
       <use x="127.246094" xlink:href="#DejaVuSans-48"/>
      </g>
     </g>
    </g>
    <g id="text_9">
     <!-- 1st PC: 85.65 % -->
     <g transform="translate(165.868088 310.919444)scale(0.1728 -0.1728)">
      <defs>
       <path d="M 44.28125 53.078125 
L 44.28125 44.578125 
Q 40.484375 46.53125 36.375 47.5 
Q 32.28125 48.484375 27.875 48.484375 
Q 21.1875 48.484375 17.84375 46.4375 
Q 14.5 44.390625 14.5 40.28125 
Q 14.5 37.15625 16.890625 35.375 
Q 19.28125 33.59375 26.515625 31.984375 
L 29.59375 31.296875 
Q 39.15625 29.25 43.1875 25.515625 
Q 47.21875 21.78125 47.21875 15.09375 
Q 47.21875 7.46875 41.1875 3.015625 
Q 35.15625 -1.421875 24.609375 -1.421875 
Q 20.21875 -1.421875 15.453125 -0.5625 
Q 10.6875 0.296875 5.421875 2 
L 5.421875 11.28125 
Q 10.40625 8.6875 15.234375 7.390625 
Q 20.0625 6.109375 24.8125 6.109375 
Q 31.15625 6.109375 34.5625 8.28125 
Q 37.984375 10.453125 37.984375 14.40625 
Q 37.984375 18.0625 35.515625 20.015625 
Q 33.0625 21.96875 24.703125 23.78125 
L 21.578125 24.515625 
Q 13.234375 26.265625 9.515625 29.90625 
Q 5.8125 33.546875 5.8125 39.890625 
Q 5.8125 47.609375 11.28125 51.796875 
Q 16.75 56 26.8125 56 
Q 31.78125 56 36.171875 55.265625 
Q 40.578125 54.546875 44.28125 53.078125 
z
" id="DejaVuSans-115"/>
       <path d="M 18.3125 70.21875 
L 18.3125 54.6875 
L 36.8125 54.6875 
L 36.8125 47.703125 
L 18.3125 47.703125 
L 18.3125 18.015625 
Q 18.3125 11.328125 20.140625 9.421875 
Q 21.96875 7.515625 27.59375 7.515625 
L 36.8125 7.515625 
L 36.8125 0 
L 27.59375 0 
Q 17.1875 0 13.234375 3.875 
Q 9.28125 7.765625 9.28125 18.015625 
L 9.28125 47.703125 
L 2.6875 47.703125 
L 2.6875 54.6875 
L 9.28125 54.6875 
L 9.28125 70.21875 
z
" id="DejaVuSans-116"/>
       <path id="DejaVuSans-32"/>
       <path d="M 19.671875 64.796875 
L 19.671875 37.40625 
L 32.078125 37.40625 
Q 38.96875 37.40625 42.71875 40.96875 
Q 46.484375 44.53125 46.484375 51.125 
Q 46.484375 57.671875 42.71875 61.234375 
Q 38.96875 64.796875 32.078125 64.796875 
z
M 9.8125 72.90625 
L 32.078125 72.90625 
Q 44.34375 72.90625 50.609375 67.359375 
Q 56.890625 61.8125 56.890625 51.125 
Q 56.890625 40.328125 50.609375 34.8125 
Q 44.34375 29.296875 32.078125 29.296875 
L 19.671875 29.296875 
L 19.671875 0 
L 9.8125 0 
z
" id="DejaVuSans-80"/>
       <path d="M 64.40625 67.28125 
L 64.40625 56.890625 
Q 59.421875 61.53125 53.78125 63.8125 
Q 48.140625 66.109375 41.796875 66.109375 
Q 29.296875 66.109375 22.65625 58.46875 
Q 16.015625 50.828125 16.015625 36.375 
Q 16.015625 21.96875 22.65625 14.328125 
Q 29.296875 6.6875 41.796875 6.6875 
Q 48.140625 6.6875 53.78125 8.984375 
Q 59.421875 11.28125 64.40625 15.921875 
L 64.40625 5.609375 
Q 59.234375 2.09375 53.4375 0.328125 
Q 47.65625 -1.421875 41.21875 -1.421875 
Q 24.65625 -1.421875 15.125 8.703125 
Q 5.609375 18.84375 5.609375 36.375 
Q 5.609375 53.953125 15.125 64.078125 
Q 24.65625 74.21875 41.21875 74.21875 
Q 47.75 74.21875 53.53125 72.484375 
Q 59.328125 70.75 64.40625 67.28125 
z
" id="DejaVuSans-67"/>
       <path d="M 11.71875 12.40625 
L 22.015625 12.40625 
L 22.015625 0 
L 11.71875 0 
z
M 11.71875 51.703125 
L 22.015625 51.703125 
L 22.015625 39.3125 
L 11.71875 39.3125 
z
" id="DejaVuSans-58"/>
       <path d="M 31.78125 34.625 
Q 24.75 34.625 20.71875 30.859375 
Q 16.703125 27.09375 16.703125 20.515625 
Q 16.703125 13.921875 20.71875 10.15625 
Q 24.75 6.390625 31.78125 6.390625 
Q 38.8125 6.390625 42.859375 10.171875 
Q 46.921875 13.96875 46.921875 20.515625 
Q 46.921875 27.09375 42.890625 30.859375 
Q 38.875 34.625 31.78125 34.625 
z
M 21.921875 38.8125 
Q 15.578125 40.375 12.03125 44.71875 
Q 8.5 49.078125 8.5 55.328125 
Q 8.5 64.0625 14.71875 69.140625 
Q 20.953125 74.21875 31.78125 74.21875 
Q 42.671875 74.21875 48.875 69.140625 
Q 55.078125 64.0625 55.078125 55.328125 
Q 55.078125 49.078125 51.53125 44.71875 
Q 48 40.375 41.703125 38.8125 
Q 48.828125 37.15625 52.796875 32.3125 
Q 56.78125 27.484375 56.78125 20.515625 
Q 56.78125 9.90625 50.3125 4.234375 
Q 43.84375 -1.421875 31.78125 -1.421875 
Q 19.734375 -1.421875 13.25 4.234375 
Q 6.78125 9.90625 6.78125 20.515625 
Q 6.78125 27.484375 10.78125 32.3125 
Q 14.796875 37.15625 21.921875 38.8125 
z
M 18.3125 54.390625 
Q 18.3125 48.734375 21.84375 45.5625 
Q 25.390625 42.390625 31.78125 42.390625 
Q 38.140625 42.390625 41.71875 45.5625 
Q 45.3125 48.734375 45.3125 54.390625 
Q 45.3125 60.0625 41.71875 63.234375 
Q 38.140625 66.40625 31.78125 66.40625 
Q 25.390625 66.40625 21.84375 63.234375 
Q 18.3125 60.0625 18.3125 54.390625 
z
" id="DejaVuSans-56"/>
       <path d="M 10.6875 12.40625 
L 21 12.40625 
L 21 0 
L 10.6875 0 
z
" id="DejaVuSans-46"/>
       <path d="M 33.015625 40.375 
Q 26.375 40.375 22.484375 35.828125 
Q 18.609375 31.296875 18.609375 23.390625 
Q 18.609375 15.53125 22.484375 10.953125 
Q 26.375 6.390625 33.015625 6.390625 
Q 39.65625 6.390625 43.53125 10.953125 
Q 47.40625 15.53125 47.40625 23.390625 
Q 47.40625 31.296875 43.53125 35.828125 
Q 39.65625 40.375 33.015625 40.375 
z
M 52.59375 71.296875 
L 52.59375 62.3125 
Q 48.875 64.0625 45.09375 64.984375 
Q 41.3125 65.921875 37.59375 65.921875 
Q 27.828125 65.921875 22.671875 59.328125 
Q 17.53125 52.734375 16.796875 39.40625 
Q 19.671875 43.65625 24.015625 45.921875 
Q 28.375 48.1875 33.59375 48.1875 
Q 44.578125 48.1875 50.953125 41.515625 
Q 57.328125 34.859375 57.328125 23.390625 
Q 57.328125 12.15625 50.6875 5.359375 
Q 44.046875 -1.421875 33.015625 -1.421875 
Q 20.359375 -1.421875 13.671875 8.265625 
Q 6.984375 17.96875 6.984375 36.375 
Q 6.984375 53.65625 15.1875 63.9375 
Q 23.390625 74.21875 37.203125 74.21875 
Q 40.921875 74.21875 44.703125 73.484375 
Q 48.484375 72.75 52.59375 71.296875 
z
" id="DejaVuSans-54"/>
       <path d="M 72.703125 32.078125 
Q 68.453125 32.078125 66.03125 28.46875 
Q 63.625 24.859375 63.625 18.40625 
Q 63.625 12.0625 66.03125 8.421875 
Q 68.453125 4.78125 72.703125 4.78125 
Q 76.859375 4.78125 79.265625 8.421875 
Q 81.6875 12.0625 81.6875 18.40625 
Q 81.6875 24.8125 79.265625 28.4375 
Q 76.859375 32.078125 72.703125 32.078125 
z
M 72.703125 38.28125 
Q 80.421875 38.28125 84.953125 32.90625 
Q 89.5 27.546875 89.5 18.40625 
Q 89.5 9.28125 84.9375 3.921875 
Q 80.375 -1.421875 72.703125 -1.421875 
Q 64.890625 -1.421875 60.34375 3.921875 
Q 55.8125 9.28125 55.8125 18.40625 
Q 55.8125 27.59375 60.375 32.9375 
Q 64.9375 38.28125 72.703125 38.28125 
z
M 22.3125 68.015625 
Q 18.109375 68.015625 15.6875 64.375 
Q 13.28125 60.75 13.28125 54.390625 
Q 13.28125 47.953125 15.671875 44.328125 
Q 18.0625 40.71875 22.3125 40.71875 
Q 26.5625 40.71875 28.96875 44.328125 
Q 31.390625 47.953125 31.390625 54.390625 
Q 31.390625 60.6875 28.953125 64.34375 
Q 26.515625 68.015625 22.3125 68.015625 
z
M 66.40625 74.21875 
L 74.21875 74.21875 
L 28.609375 -1.421875 
L 20.796875 -1.421875 
z
M 22.3125 74.21875 
Q 30.03125 74.21875 34.609375 68.875 
Q 39.203125 63.53125 39.203125 54.390625 
Q 39.203125 45.171875 34.640625 39.84375 
Q 30.078125 34.515625 22.3125 34.515625 
Q 14.546875 34.515625 10.03125 39.859375 
Q 5.515625 45.21875 5.515625 54.390625 
Q 5.515625 63.484375 10.046875 68.84375 
Q 14.59375 74.21875 22.3125 74.21875 
z
" id="DejaVuSans-37"/>
      </defs>
      <use xlink:href="#DejaVuSans-49"/>
      <use x="63.623047" xlink:href="#DejaVuSans-115"/>
      <use x="115.722656" xlink:href="#DejaVuSans-116"/>
      <use x="154.931641" xlink:href="#DejaVuSans-32"/>
      <use x="186.71875" xlink:href="#DejaVuSans-80"/>
      <use x="247.021484" xlink:href="#DejaVuSans-67"/>
      <use x="316.845703" xlink:href="#DejaVuSans-58"/>
      <use x="350.537109" xlink:href="#DejaVuSans-32"/>
      <use x="382.324219" xlink:href="#DejaVuSans-56"/>
      <use x="445.947266" xlink:href="#DejaVuSans-53"/>
      <use x="509.570312" xlink:href="#DejaVuSans-46"/>
      <use x="541.357422" xlink:href="#DejaVuSans-54"/>
      <use x="604.980469" xlink:href="#DejaVuSans-53"/>
      <use x="668.603516" xlink:href="#DejaVuSans-32"/>
      <use x="700.390625" xlink:href="#DejaVuSans-37"/>
     </g>
    </g>
   </g>
   <g id="matplotlib.axis_2">
    <g id="ytick_1">
     <g id="line2d_9">
      <defs>
       <path d="M 0 0 
L -3.5 0 
" id="m9212b3e85c" style="stroke:#000000;stroke-width:0.8;"/>
      </defs>
      <g>
       <use style="stroke:#000000;stroke-width:0.8;" x="56.028488" xlink:href="#m9212b3e85c" y="277.111219"/>
      </g>
     </g>
     <g id="text_10">
      <!-- −10 -->
      <g transform="translate(27.9238 280.910437)scale(0.1 -0.1)">
       <use xlink:href="#DejaVuSans-8722"/>
       <use x="83.789062" xlink:href="#DejaVuSans-49"/>
       <use x="147.412109" xlink:href="#DejaVuSans-48"/>
      </g>
     </g>
    </g>
    <g id="ytick_2">
     <g id="line2d_10">
      <g>
       <use style="stroke:#000000;stroke-width:0.8;" x="56.028488" xlink:href="#m9212b3e85c" y="239.095219"/>
      </g>
     </g>
     <g id="text_11">
      <!-- −5 -->
      <g transform="translate(34.2863 242.894437)scale(0.1 -0.1)">
       <use xlink:href="#DejaVuSans-8722"/>
       <use x="83.789062" xlink:href="#DejaVuSans-53"/>
      </g>
     </g>
    </g>
    <g id="ytick_3">
     <g id="line2d_11">
      <g>
       <use style="stroke:#000000;stroke-width:0.8;" x="56.028488" xlink:href="#m9212b3e85c" y="201.079219"/>
      </g>
     </g>
     <g id="text_12">
      <!-- 0 -->
      <g transform="translate(42.665987 204.878437)scale(0.1 -0.1)">
       <use xlink:href="#DejaVuSans-48"/>
      </g>
     </g>
    </g>
    <g id="ytick_4">
     <g id="line2d_12">
      <g>
       <use style="stroke:#000000;stroke-width:0.8;" x="56.028488" xlink:href="#m9212b3e85c" y="163.063219"/>
      </g>
     </g>
     <g id="text_13">
      <!-- 5 -->
      <g transform="translate(42.665987 166.862437)scale(0.1 -0.1)">
       <use xlink:href="#DejaVuSans-53"/>
      </g>
     </g>
    </g>
    <g id="ytick_5">
     <g id="line2d_13">
      <g>
       <use style="stroke:#000000;stroke-width:0.8;" x="56.028488" xlink:href="#m9212b3e85c" y="125.047219"/>
      </g>
     </g>
     <g id="text_14">
      <!-- 10 -->
      <g transform="translate(36.303488 128.846437)scale(0.1 -0.1)">
       <use xlink:href="#DejaVuSans-49"/>
       <use x="63.623047" xlink:href="#DejaVuSans-48"/>
      </g>
     </g>
    </g>
    <g id="ytick_6">
     <g id="line2d_14">
      <g>
       <use style="stroke:#000000;stroke-width:0.8;" x="56.028488" xlink:href="#m9212b3e85c" y="87.031219"/>
      </g>
     </g>
     <g id="text_15">
      <!-- 15 -->
      <g transform="translate(36.303488 90.830437)scale(0.1 -0.1)">
       <use xlink:href="#DejaVuSans-49"/>
       <use x="63.623047" xlink:href="#DejaVuSans-53"/>
      </g>
     </g>
    </g>
    <g id="ytick_7">
     <g id="line2d_15">
      <g>
       <use style="stroke:#000000;stroke-width:0.8;" x="56.028488" xlink:href="#m9212b3e85c" y="49.015219"/>
      </g>
     </g>
     <g id="text_16">
      <!-- 20 -->
      <g transform="translate(36.303488 52.814437)scale(0.1 -0.1)">
       <use xlink:href="#DejaVuSans-50"/>
       <use x="63.623047" xlink:href="#DejaVuSans-48"/>
      </g>
     </g>
    </g>
    <g id="ytick_8">
     <g id="line2d_16">
      <g>
       <use style="stroke:#000000;stroke-width:0.8;" x="56.028488" xlink:href="#m9212b3e85c" y="10.999219"/>
      </g>
     </g>
     <g id="text_17">
      <!-- 25 -->
      <g transform="translate(36.303488 14.798437)scale(0.1 -0.1)">
       <use xlink:href="#DejaVuSans-50"/>
       <use x="63.623047" xlink:href="#DejaVuSans-53"/>
      </g>
     </g>
    </g>
    <g id="text_18">
     <!-- 2nd PC: 6.76 % -->
     <g transform="translate(20.3301 210.351019)rotate(-90)scale(0.1728 -0.1728)">
      <defs>
       <path d="M 54.890625 33.015625 
L 54.890625 0 
L 45.90625 0 
L 45.90625 32.71875 
Q 45.90625 40.484375 42.875 44.328125 
Q 39.84375 48.1875 33.796875 48.1875 
Q 26.515625 48.1875 22.3125 43.546875 
Q 18.109375 38.921875 18.109375 30.90625 
L 18.109375 0 
L 9.078125 0 
L 9.078125 54.6875 
L 18.109375 54.6875 
L 18.109375 46.1875 
Q 21.34375 51.125 25.703125 53.5625 
Q 30.078125 56 35.796875 56 
Q 45.21875 56 50.046875 50.171875 
Q 54.890625 44.34375 54.890625 33.015625 
z
" id="DejaVuSans-110"/>
       <path d="M 45.40625 46.390625 
L 45.40625 75.984375 
L 54.390625 75.984375 
L 54.390625 0 
L 45.40625 0 
L 45.40625 8.203125 
Q 42.578125 3.328125 38.25 0.953125 
Q 33.9375 -1.421875 27.875 -1.421875 
Q 17.96875 -1.421875 11.734375 6.484375 
Q 5.515625 14.40625 5.515625 27.296875 
Q 5.515625 40.1875 11.734375 48.09375 
Q 17.96875 56 27.875 56 
Q 33.9375 56 38.25 53.625 
Q 42.578125 51.265625 45.40625 46.390625 
z
M 14.796875 27.296875 
Q 14.796875 17.390625 18.875 11.75 
Q 22.953125 6.109375 30.078125 6.109375 
Q 37.203125 6.109375 41.296875 11.75 
Q 45.40625 17.390625 45.40625 27.296875 
Q 45.40625 37.203125 41.296875 42.84375 
Q 37.203125 48.484375 30.078125 48.484375 
Q 22.953125 48.484375 18.875 42.84375 
Q 14.796875 37.203125 14.796875 27.296875 
z
" id="DejaVuSans-100"/>
      </defs>
      <use xlink:href="#DejaVuSans-50"/>
      <use x="63.623047" xlink:href="#DejaVuSans-110"/>
      <use x="127.001953" xlink:href="#DejaVuSans-100"/>
      <use x="190.478516" xlink:href="#DejaVuSans-32"/>
      <use x="222.265625" xlink:href="#DejaVuSans-80"/>
      <use x="282.568359" xlink:href="#DejaVuSans-67"/>
      <use x="352.392578" xlink:href="#DejaVuSans-58"/>
      <use x="386.083984" xlink:href="#DejaVuSans-32"/>
      <use x="417.871094" xlink:href="#DejaVuSans-54"/>
      <use x="481.494141" xlink:href="#DejaVuSans-46"/>
      <use x="513.28125" xlink:href="#DejaVuSans-55"/>
      <use x="576.904297" xlink:href="#DejaVuSans-54"/>
      <use x="640.527344" xlink:href="#DejaVuSans-32"/>
      <use x="672.314453" xlink:href="#DejaVuSans-37"/>
     </g>
    </g>
   </g>
   <g id="LineCollection_1"/>
   <g id="LineCollection_2"/>
   <g id="LineCollection_3"/>
   <g id="LineCollection_4"/>
   <g id="LineCollection_5"/>
   <g id="LineCollection_6">
    <path clip-path="url(#p56fc88b90c)" d="M 91.725314 166.93682 
L 91.723961 161.796019 
L 91.723589 152.925619 
L 91.725847 144.055219 
L 91.729427 135.184819 
L 91.735197 126.314419 
L 91.740488 119.954748 
L 93.497311 126.314419 
L 94.241988 135.184819 
L 94.481579 144.055219 
L 94.514467 152.925619 
L 94.420301 161.796019 
L 94.508078 170.666419 
L 94.520864 179.536819 
L 94.484792 188.407219 
L 94.468907 197.277619 
L 94.594518 206.148019 
L 94.60151 215.018419 
L 93.982121 223.888819 
L 92.590219 232.759219 
L 91.740488 235.698222 
L 91.740204 232.759219 
L 91.739476 223.888819 
L 91.738583 215.018419 
L 91.737329 206.148019 
L 91.735352 197.277619 
L 91.733804 192.136818 
" style="fill:none;stroke:#39558c;stroke-width:1.5;"/>
    <path clip-path="url(#p56fc88b90c)" d="M 103.650453 59.080818 
L 103.651167 64.221619 
L 103.651404 73.092019 
L 103.650724 81.962419 
L 103.649023 90.832819 
L 103.646057 99.703219 
L 103.644487 103.090404 
L 101.436077 99.703219 
L 99.135397 90.832819 
L 98.327608 81.962419 
L 98.114015 73.092019 
L 98.281109 64.221619 
L 98.864877 55.351219 
L 100.232185 46.480819 
L 101.801438 42.831765 
" style="fill:none;stroke:#39558c;stroke-width:1.5;"/>
   </g>
   <g id="LineCollection_7">
    <path clip-path="url(#p56fc88b90c)" d="M 91.46668 140.325643 
L 91.457871 135.184819 
L 91.464545 126.314419 
L 91.496389 117.444019 
L 91.55566 108.573619 
L 91.625129 99.703219 
L 91.678251 90.832819 
L 91.71027 81.962419 
L 91.727549 73.092019 
L 91.736091 64.221619 
L 91.739342 55.351219 
L 91.740321 46.480819 
L 91.740488 41.911882 
L 93.305184 37.610419 
L 103.644487 29.447419 
L 103.650456 37.610419 
L 103.656776 46.480819 
L 103.662942 55.351219 
L 103.66926 64.221619 
L 103.676742 73.092019 
L 103.687085 81.962419 
L 103.702921 90.832819 
L 103.729394 99.703219 
L 103.775749 108.573619 
L 103.863188 117.444019 
L 104.058188 126.314419 
L 104.612551 135.184819 
L 106.419371 144.055219 
L 109.692796 152.925619 
L 111.601966 161.796019 
L 111.85848 170.666419 
L 110.127685 179.536819 
L 106.703132 188.407219 
L 104.442499 197.277619 
L 103.830179 206.148019 
L 103.686108 215.018419 
L 103.651464 223.888819 
L 103.645358 232.759219 
L 103.644532 241.629619 
L 103.644487 244.468749 
L 99.698564 250.500019 
L 91.740488 259.258022 
L 91.738998 250.500019 
L 91.736804 241.629619 
L 91.73341 232.759219 
L 91.728121 223.888819 
L 91.71944 215.018419 
L 91.705989 206.148019 
L 91.684714 197.277619 
L 91.655645 188.407219 
L 91.620915 179.536819 
L 91.574851 170.666419 
L 91.548019 165.52549 
" style="fill:none;stroke:#33638d;stroke-width:1.5;"/>
   </g>
   <g id="LineCollection_8">
    <path clip-path="url(#p56fc88b90c)" d="M 103.854103 103.432413 
L 103.91114 108.573619 
L 104.099274 117.444019 
L 104.524538 126.314419 
L 105.75561 135.184819 
L 109.860506 144.055219 
L 115.548488 151.704984 
L 115.548488 152.925619 
L 115.548488 161.796019 
L 115.548488 170.666419 
L 115.548488 179.536819 
L 115.548488 182.400339 
L 111.32505 188.407219 
L 105.653568 197.277619 
L 104.103102 206.148019 
L 103.746822 215.018419 
L 103.662788 223.888819 
L 103.647267 232.759219 
L 103.644833 241.629619 
L 103.64452 250.500019 
L 103.644487 254.626297 
L 98.359799 259.370419 
L 91.740488 262.645723 
L 91.739111 259.370419 
L 91.736625 250.500019 
L 91.732782 241.629619 
L 91.726616 232.759219 
L 91.716767 223.888819 
L 91.700297 215.018419 
L 91.674649 206.148019 
L 91.634075 197.277619 
L 91.578608 188.407219 
L 91.512118 179.536819 
L 91.423405 170.666419 
L 91.333148 161.796019 
L 91.259214 152.925619 
L 91.220294 144.055219 
L 91.186316 135.184819 
L 91.193894 126.314419 
L 91.250392 117.444019 
L 91.362918 108.573619 
L 91.49937 99.703219 
L 91.606051 90.832819 
L 91.671899 81.962419 
L 91.708674 73.092019 
L 91.728094 64.221619 
L 91.736294 55.351219 
L 91.739243 46.480819 
L 91.740181 37.610419 
L 91.74045 28.740019 
L 91.740488 25.418776 
L 103.644487 25.12518 
L 103.647918 28.740019 
L 103.656673 37.610419 
L 103.665947 46.480819 
L 103.675949 55.351219 
L 103.687352 64.221619 
L 103.70208 73.092019 
L 103.714463 78.232892 
" style="fill:none;stroke:#2d718e;stroke-width:1.5;"/>
   </g>
   <g id="LineCollection_9">
    <path clip-path="url(#p56fc88b90c)" d="M 91.735366 253.347624 
L 91.734252 250.500019 
L 91.728759 241.629619 
L 91.719822 232.759219 
L 91.705412 223.888819 
L 91.681154 215.018419 
L 91.643309 206.148019 
L 91.583437 197.277619 
L 91.501572 188.407219 
L 91.403321 179.536819 
L 91.27196 170.666419 
L 91.137742 161.796019 
L 91.027027 152.925619 
L 90.967518 144.055219 
L 90.91476 135.184819 
L 90.923242 126.314419 
L 91.004395 117.444019 
L 91.170176 108.573619 
L 91.373611 99.703219 
L 91.533852 90.832819 
L 91.633528 81.962419 
L 91.689798 73.092019 
L 91.720097 64.221619 
L 91.733245 55.351219 
L 91.738165 46.480819 
L 91.739823 37.610419 
L 91.74035 28.740019 
L 91.740479 19.869619 
L 91.740488 18.429405 
L 98.092852 19.869619 
L 103.644487 21.18235 
L 103.65166 28.740019 
L 103.662891 37.610419 
L 103.675119 46.480819 
L 103.688956 55.351219 
L 103.705445 64.221619 
L 103.727418 73.092019 
L 103.759809 81.962419 
L 103.810716 90.832819 
L 103.896069 99.703219 
L 104.046531 108.573619 
L 104.335359 117.444019 
L 104.990889 126.314419 
L 106.898668 135.184819 
L 113.301641 144.055219 
L 115.548488 147.077002 
L 115.548489 152.925619 
L 115.548489 161.796019 
L 115.548489 170.666419 
L 115.548488 179.536819 
L 115.548488 188.407219 
L 115.548488 188.512607 
L 106.864637 197.277619 
L 104.376024 206.148019 
L 103.807537 215.018419 
L 103.674112 223.888819 
L 103.649176 232.759219 
L 103.645135 241.629619 
L 103.644567 250.500019 
L 103.644489 259.370419 
L 103.644487 259.510467 
L 102.823792 259.954263 
" style="fill:none;stroke:#287d8e;stroke-width:1.5;"/>
   </g>
   <g id="LineCollection_10">
    <path clip-path="url(#p56fc88b90c)" d="M 90.880359 158.068723 
L 90.794839 152.925619 
L 90.714741 144.055219 
L 90.643204 135.184819 
L 90.65259 126.314419 
L 90.758398 117.444019 
L 90.977434 108.573619 
L 91.247852 99.703219 
L 91.461652 90.832819 
L 91.595158 81.962419 
L 91.670922 73.092019 
L 91.7121 64.221619 
L 91.730197 55.351219 
L 91.737087 46.480819 
L 91.739465 37.610419 
L 91.74025 28.740019 
L 91.740457 19.869619 
L 91.740488 14.648944 
L 103.644487 18.526392 
L 103.645819 19.869619 
L 103.655402 28.740019 
L 103.669109 37.610419 
L 103.68429 46.480819 
L 103.701964 55.351219 
L 103.723538 64.221619 
L 103.752756 73.092019 
L 103.79617 81.962419 
L 103.864614 90.832819 
L 103.979406 99.703219 
L 104.181921 108.573619 
L 104.571444 117.444019 
L 105.45724 126.314419 
L 108.041727 135.184819 
L 115.548488 143.609971 
L 115.548488 144.055219 
L 115.54849 152.925619 
L 115.54849 161.796019 
L 115.548489 170.666419 
L 115.548489 179.536819 
L 115.548488 188.407219 
L 115.548488 189.734995 
L 108.075706 197.277619 
L 104.648946 206.148019 
L 103.868251 215.018419 
L 103.685437 223.888819 
L 103.651085 232.759219 
L 103.645436 241.629619 
L 103.644615 250.500019 
L 103.644496 259.370419 
L 103.644487 260.183594 
L 92.036738 268.240819 
L 91.740488 268.444429 
L 91.740242 268.240819 
L 91.736336 259.370419 
L 91.731879 250.500019 
L 91.724737 241.629619 
L 91.713028 232.759219 
L 91.694057 223.888819 
L 91.662011 215.018419 
L 91.61197 206.148019 
L 91.532799 197.277619 
L 91.424536 188.407219 
L 91.349157 183.264312 
" style="fill:none;stroke:#238a8d;stroke-width:1.5;"/>
   </g>
   <g id="LineCollection_11">
    <path clip-path="url(#p56fc88b90c)" d="M 91.88896 10.999219 
L 103.644487 16.512737 
L 103.647816 19.869619 
L 103.659144 28.740019 
L 103.675326 37.610419 
L 103.693462 46.480819 
L 103.714971 55.351219 
L 103.741631 64.221619 
L 103.778095 73.092019 
L 103.832532 81.962419 
L 103.918512 90.832819 
L 104.002168 95.977763 
" style="fill:none;stroke:#1f968b;stroke-width:1.5;"/>
    <path clip-path="url(#p56fc88b90c)" d="M 105.271422 121.131015 
L 105.923591 126.314419 
L 109.184786 135.184819 
L 115.548488 142.327068 
L 115.548489 144.055219 
L 115.548492 152.925619 
L 115.548491 161.796019 
L 115.54849 170.666419 
L 115.548489 179.536819 
L 115.548488 188.407219 
L 115.548488 190.957383 
L 109.286775 197.277619 
L 104.921868 206.148019 
L 103.928966 215.018419 
L 103.696761 223.888819 
L 103.652994 232.759219 
L 103.645737 241.629619 
L 103.644662 250.500019 
L 103.644504 259.370419 
L 103.644487 260.856721 
L 93.006488 268.240819 
L 91.740488 269.11093 
L 91.739437 268.240819 
L 91.734949 259.370419 
L 91.729505 250.500019 
L 91.720715 241.629619 
L 91.706234 232.759219 
L 91.682702 223.888819 
L 91.642868 215.018419 
L 91.58063 206.148019 
L 91.48216 197.277619 
L 91.3475 188.407219 
L 91.185727 179.536819 
L 90.96907 170.666419 
L 90.74693 161.796019 
L 90.562652 152.925619 
L 90.461965 144.055219 
L 90.371648 135.184819 
L 90.381938 126.314419 
L 90.512401 117.444019 
L 90.784692 108.573619 
L 91.122094 99.703219 
L 91.389452 90.832819 
L 91.556787 81.962419 
L 91.652046 73.092019 
L 91.704103 64.221619 
L 91.727149 55.351219 
L 91.736009 46.480819 
L 91.739107 37.610419 
L 91.74015 28.740019 
L 91.740435 19.869619 
L 91.740487 10.999219 
" style="fill:none;stroke:#1f968b;stroke-width:1.5;"/>
   </g>
   <g id="LineCollection_12">
    <path clip-path="url(#p56fc88b90c)" d="M 96.182332 10.999219 
L 103.644487 14.499081 
L 103.649812 19.869619 
L 103.662886 28.740019 
L 103.681544 37.610419 
L 103.702633 46.480819 
L 103.727978 55.351219 
L 103.759724 64.221619 
L 103.803433 73.092019 
L 103.868894 81.962419 
L 103.97241 90.832819 
L 104.073177 95.97963 
" style="fill:none;stroke:#20a386;stroke-width:1.5;"/>
    <path clip-path="url(#p56fc88b90c)" d="M 105.600325 121.111951 
L 106.389942 126.314419 
L 110.327845 135.184819 
L 115.548488 141.044165 
L 115.548491 144.055219 
L 115.548493 152.925619 
L 115.548492 161.796019 
L 115.548491 170.666419 
L 115.548489 179.536819 
L 115.548488 188.407219 
L 115.548488 192.179771 
L 110.497844 197.277619 
L 105.194791 206.148019 
L 103.98968 215.018419 
L 103.708085 223.888819 
L 103.654902 232.759219 
L 103.646039 241.629619 
L 103.644709 250.500019 
L 103.644511 259.370419 
L 103.644487 261.529848 
L 93.976237 268.240819 
L 91.740488 269.777431 
L 91.738632 268.240819 
L 91.733561 259.370419 
L 91.727132 250.500019 
L 91.716692 241.629619 
L 91.69944 232.759219 
L 91.671347 223.888819 
L 91.623725 215.018419 
L 91.54929 206.148019 
L 91.431522 197.277619 
L 91.270463 188.407219 
L 91.07693 179.536819 
L 90.817625 170.666419 
L 90.551523 161.796019 
L 90.330464 152.925619 
L 90.209189 144.055219 
L 90.100093 135.184819 
L 90.111286 126.314419 
L 90.266404 117.444019 
L 90.591949 108.573619 
L 90.996335 99.703219 
L 91.317252 90.832819 
L 91.518416 81.962419 
L 91.633171 73.092019 
L 91.696106 64.221619 
L 91.7241 55.351219 
L 91.734931 46.480819 
L 91.738749 37.610419 
L 91.740049 28.740019 
L 91.740413 19.869619 
L 91.740483 10.999219 
" style="fill:none;stroke:#20a386;stroke-width:1.5;"/>
   </g>
   <g id="LineCollection_13">
    <path clip-path="url(#p56fc88b90c)" d="M 100.475704 10.999219 
L 103.644487 12.485425 
L 103.651809 19.869619 
L 103.666627 28.740019 
L 103.687761 37.610419 
L 103.711805 46.480819 
L 103.740985 55.351219 
L 103.777816 64.221619 
L 103.828771 73.092019 
L 103.905255 81.962419 
L 104.026308 90.832819 
L 104.144207 95.981843 
" style="fill:none;stroke:#29af7f;stroke-width:1.5;"/>
    <path clip-path="url(#p56fc88b90c)" d="M 105.927646 121.089564 
L 106.856293 126.314419 
L 111.470904 135.184819 
L 115.548488 139.761262 
L 115.548492 144.055219 
L 115.548494 152.925619 
L 115.548493 161.796019 
L 115.548491 170.666419 
L 115.54849 179.536819 
L 115.548489 188.407219 
L 115.548488 193.402158 
L 111.708912 197.277619 
L 105.467713 206.148019 
L 104.050395 215.018419 
L 103.719409 223.888819 
L 103.656811 232.759219 
L 103.64634 241.629619 
L 103.644756 250.500019 
L 103.644519 259.370419 
L 103.644487 262.202975 
L 94.945986 268.240819 
L 91.740488 270.443932 
L 91.737827 268.240819 
L 91.732174 259.370419 
L 91.724759 250.500019 
L 91.71267 241.629619 
L 91.692646 232.759219 
L 91.659993 223.888819 
L 91.604582 215.018419 
L 91.51795 206.148019 
L 91.380884 197.277619 
L 91.193427 188.407219 
L 90.968133 179.536819 
L 90.66618 170.666419 
L 90.356117 161.796019 
L 90.098276 152.925619 
L 89.956413 144.055219 
L 89.828537 135.184819 
L 89.840635 126.314419 
L 90.020407 117.444019 
L 90.399207 108.573619 
L 90.870576 99.703219 
L 91.245052 90.832819 
L 91.480046 81.962419 
L 91.614295 73.092019 
L 91.688109 64.221619 
L 91.721052 55.351219 
L 91.733853 46.480819 
L 91.738391 37.610419 
L 91.739949 28.740019 
L 91.740391 19.869619 
L 91.740479 10.999219 
" style="fill:none;stroke:#29af7f;stroke-width:1.5;"/>
   </g>
   <g id="LineCollection_14">
    <path clip-path="url(#p56fc88b90c)" d="M 103.644748 10.999219 
L 103.653805 19.869619 
L 103.670369 28.740019 
L 103.693979 37.610419 
L 103.720977 46.480819 
L 103.753993 55.351219 
L 103.795909 64.221619 
L 103.854109 73.092019 
L 103.941617 81.962419 
L 104.080205 90.832819 
L 104.312754 99.703219 
L 104.723483 108.573619 
L 105.515785 117.444019 
L 107.322644 126.314419 
L 112.613963 135.184819 
L 115.548488 138.478359 
L 115.548494 144.055219 
L 115.548495 152.925619 
L 115.548494 161.796019 
L 115.548492 170.666419 
L 115.54849 179.536819 
L 115.548489 188.407219 
L 115.548488 194.624546 
L 112.919981 197.277619 
L 105.740635 206.148019 
L 104.111109 215.018419 
L 103.730734 223.888819 
L 103.65872 232.759219 
L 103.646642 241.629619 
L 103.644803 250.500019 
L 103.644526 259.370419 
L 103.644487 262.876102 
L 95.915736 268.240819 
L 91.740488 271.110432 
L 91.737023 268.240819 
L 91.730786 259.370419 
L 91.725918 254.229606 
" style="fill:none;stroke:#3dbc74;stroke-width:1.5;"/>
    <path clip-path="url(#p56fc88b90c)" d="M 91.670205 229.029681 
L 91.648638 223.888819 
L 91.58544 215.018419 
L 91.486611 206.148019 
L 91.330245 197.277619 
L 91.116391 188.407219 
L 90.859336 179.536819 
L 90.514735 170.666419 
L 90.160711 161.796019 
L 89.866089 152.925619 
L 89.703636 144.055219 
L 89.556981 135.184819 
L 89.569983 126.314419 
L 89.77441 117.444019 
L 90.206465 108.573619 
L 90.744817 99.703219 
L 91.172852 90.832819 
L 91.441675 81.962419 
L 91.595419 73.092019 
L 91.680112 64.221619 
L 91.718004 55.351219 
L 91.732775 46.480819 
L 91.738033 37.610419 
L 91.739849 28.740019 
L 91.740369 19.869619 
L 91.740474 10.999219 
" style="fill:none;stroke:#3dbc74;stroke-width:1.5;"/>
   </g>
   <g id="LineCollection_15">
    <path clip-path="url(#p56fc88b90c)" d="M 103.645745 10.999219 
L 103.655802 19.869619 
L 103.674111 28.740019 
L 103.700196 37.610419 
L 103.730148 46.480819 
L 103.767 55.351219 
L 103.814002 64.221619 
L 103.879447 73.092019 
L 103.977979 81.962419 
L 104.134103 90.832819 
L 104.396091 99.703219 
L 104.858874 108.573619 
L 105.751871 117.444019 
L 107.788995 126.314419 
L 113.757022 135.184819 
L 115.548488 137.195456 
L 115.548495 144.055219 
L 115.548496 152.925619 
L 115.548495 161.796019 
L 115.548493 170.666419 
L 115.548491 179.536819 
L 115.548489 188.407219 
L 115.548488 195.846934 
L 114.13105 197.277619 
L 106.013557 206.148019 
L 104.171823 215.018419 
L 103.742058 223.888819 
L 103.660629 232.759219 
L 103.646943 241.629619 
L 103.644851 250.500019 
L 103.644533 259.370419 
L 103.644487 263.549229 
L 96.885485 268.240819 
L 91.740488 271.776933 
L 91.736218 268.240819 
L 91.729399 259.370419 
L 91.720013 250.500019 
L 91.704625 241.629619 
L 91.679058 232.759219 
L 91.637283 223.888819 
L 91.566297 215.018419 
L 91.455271 206.148019 
L 91.279607 197.277619 
L 91.039355 188.407219 
L 90.750539 179.536819 
L 90.36329 170.666419 
L 89.965305 161.796019 
L 89.633901 152.925619 
L 89.45086 144.055219 
L 89.285426 135.184819 
L 89.299331 126.314419 
L 89.528413 117.444019 
L 90.013723 108.573619 
L 90.619058 99.703219 
L 91.100652 90.832819 
L 91.403304 81.962419 
L 91.576544 73.092019 
L 91.672115 64.221619 
L 91.714955 55.351219 
L 91.731697 46.480819 
L 91.737674 37.610419 
L 91.738877 32.469619 
" style="fill:none;stroke:#56c667;stroke-width:1.5;"/>
   </g>
   <g id="LineCollection_16">
    <path clip-path="url(#p56fc88b90c)" d="M 103.646741 10.999219 
L 103.657798 19.869619 
L 103.677853 28.740019 
L 103.706414 37.610419 
L 103.73932 46.480819 
L 103.780007 55.351219 
L 103.832095 64.221619 
L 103.904785 73.092019 
L 104.01434 81.962419 
L 104.188001 90.832819 
L 104.479428 99.703219 
L 104.781378 104.905676 
" style="fill:none;stroke:#75d054;stroke-width:1.5;"/>
    <path clip-path="url(#p56fc88b90c)" d="M 110.32038 129.07114 
L 114.90008 135.184819 
L 115.548488 135.912553 
L 115.548496 144.055219 
L 115.548498 152.925619 
L 115.548496 161.796019 
L 115.548493 170.666419 
L 115.548491 179.536819 
L 115.548489 188.407219 
L 115.548488 197.069322 
L 115.342119 197.277619 
L 106.28648 206.148019 
L 104.232538 215.018419 
L 103.753382 223.888819 
L 103.662538 232.759219 
L 103.647245 241.629619 
L 103.644898 250.500019 
L 103.644541 259.370419 
L 103.644487 264.222355 
L 97.855234 268.240819 
L 91.740488 272.443434 
L 91.735413 268.240819 
L 91.728011 259.370419 
L 91.71764 250.500019 
L 91.700602 241.629619 
L 91.672264 232.759219 
L 91.625928 223.888819 
L 91.547154 215.018419 
L 91.423931 206.148019 
L 91.228969 197.277619 
L 90.962318 188.407219 
L 90.641742 179.536819 
L 90.211845 170.666419 
L 89.769898 161.796019 
L 89.401714 152.925619 
L 89.198084 144.055219 
L 89.01387 135.184819 
L 89.028679 126.314419 
L 89.282416 117.444019 
L 89.820981 108.573619 
L 90.493299 99.703219 
L 91.028453 90.832819 
L 91.364934 81.962419 
L 91.557668 73.092019 
L 91.664118 64.221619 
L 91.711907 55.351219 
L 91.730619 46.480819 
L 91.737316 37.610419 
L 91.739648 28.740019 
L 91.740325 19.869619 
L 91.740466 10.999219 
" style="fill:none;stroke:#75d054;stroke-width:1.5;"/>
   </g>
   <g id="LineCollection_17">
    <path clip-path="url(#p56fc88b90c)" d="M 103.647737 10.999219 
L 103.659795 19.869619 
L 103.681595 28.740019 
L 103.712631 37.610419 
L 103.748491 46.480819 
L 103.793014 55.351219 
L 103.850188 64.221619 
L 103.930124 73.092019 
L 104.050702 81.962419 
L 104.241899 90.832819 
L 104.562765 99.703219 
L 104.896078 104.91873 
" style="fill:none;stroke:#95d840;stroke-width:1.5;"/>
    <path clip-path="url(#p56fc88b90c)" d="M 110.823713 128.967253 
L 115.548488 134.930125 
L 115.548488 135.184819 
L 115.548498 144.055219 
L 115.548499 152.925619 
L 115.548497 161.796019 
L 115.548494 170.666419 
L 115.548492 179.536819 
L 115.54849 188.407219 
L 115.548488 197.277619 
L 115.548488 197.495556 
L 106.559402 206.148019 
L 104.293252 215.018419 
L 103.764706 223.888819 
L 103.664447 232.759219 
L 103.647546 241.629619 
L 103.644945 250.500019 
L 103.644548 259.370419 
L 103.644487 264.895482 
L 98.824984 268.240819 
L 91.740488 273.109934 
L 91.734608 268.240819 
L 91.726623 259.370419 
L 91.715267 250.500019 
L 91.69658 241.629619 
L 91.66547 232.759219 
L 91.614573 223.888819 
L 91.528011 215.018419 
L 91.392591 206.148019 
L 91.178331 197.277619 
L 90.885282 188.407219 
L 90.532945 179.536819 
L 90.0604 170.666419 
L 89.574492 161.796019 
L 89.169526 152.925619 
L 88.945307 144.055219 
L 88.742314 135.184819 
L 88.758028 126.314419 
L 89.036419 117.444019 
L 89.628238 108.573619 
L 90.36754 99.703219 
L 90.956253 90.832819 
L 91.326563 81.962419 
L 91.538792 73.092019 
L 91.656121 64.221619 
L 91.708859 55.351219 
L 91.729541 46.480819 
L 91.736958 37.610419 
L 91.739548 28.740019 
L 91.740303 19.869619 
L 91.740461 10.999219 
" style="fill:none;stroke:#95d840;stroke-width:1.5;"/>
   </g>
   <g id="LineCollection_18">
    <path clip-path="url(#p56fc88b90c)" d="M 103.648733 10.999219 
L 103.661792 19.869619 
L 103.685337 28.740019 
L 103.718849 37.610419 
L 103.757663 46.480819 
L 103.806022 55.351219 
L 103.86828 64.221619 
L 103.955462 73.092019 
L 104.087064 81.962419 
L 104.295797 90.832819 
L 104.646102 99.703219 
L 105.011018 104.933013 
" style="fill:none;stroke:#bade28;stroke-width:1.5;"/>
    <path clip-path="url(#p56fc88b90c)" d="M 111.249661 128.916263 
L 115.548488 134.34157 
L 115.548489 135.184819 
L 115.548499 144.055219 
L 115.5485 152.925619 
L 115.548498 161.796019 
L 115.548495 170.666419 
L 115.548492 179.536819 
L 115.54849 188.407219 
L 115.548488 197.277619 
L 115.548488 197.758258 
L 106.832324 206.148019 
L 104.353967 215.018419 
L 103.776031 223.888819 
L 103.666355 232.759219 
L 103.647848 241.629619 
L 103.644992 250.500019 
L 103.644556 259.370419 
L 103.644487 265.568609 
L 99.794733 268.240819 
L 91.740488 273.776435 
L 91.733804 268.240819 
L 91.725236 259.370419 
L 91.712893 250.500019 
L 91.692557 241.629619 
L 91.658676 232.759219 
L 91.603219 223.888819 
L 91.508868 215.018419 
L 91.361252 206.148019 
L 91.127692 197.277619 
L 90.808246 188.407219 
L 90.424149 179.536819 
L 89.908955 170.666419 
L 89.379086 161.796019 
L 88.937338 152.925619 
L 88.692531 144.055219 
L 88.470758 135.184819 
L 88.487376 126.314419 
L 88.790422 117.444019 
L 89.435496 108.573619 
L 90.241781 99.703219 
L 90.884053 90.832819 
L 91.288192 81.962419 
L 91.519916 73.092019 
L 91.648124 64.221619 
L 91.70581 55.351219 
L 91.728463 46.480819 
L 91.7366 37.610419 
L 91.739448 28.740019 
L 91.740281 19.869619 
L 91.740457 10.999219 
" style="fill:none;stroke:#bade28;stroke-width:1.5;"/>
   </g>
   <g id="LineCollection_19">
    <path clip-path="url(#p56fc88b90c)" d="M 103.64973 10.999219 
L 103.663788 19.869619 
L 103.689078 28.740019 
L 103.725066 37.610419 
L 103.766834 46.480819 
L 103.819029 55.351219 
L 103.886373 64.221619 
L 103.9808 73.092019 
L 104.123425 81.962419 
L 104.349694 90.832819 
L 104.729439 99.703219 
L 105.126217 104.948518 
" style="fill:none;stroke:#dde318;stroke-width:1.5;"/>
    <path clip-path="url(#p56fc88b90c)" d="M 111.672367 128.861182 
L 115.548488 133.753015 
L 115.548491 135.184819 
L 115.5485 144.055219 
L 115.548501 152.925619 
L 115.548499 161.796019 
L 115.548495 170.666419 
L 115.548492 179.536819 
L 115.54849 188.407219 
L 115.548488 197.277619 
L 115.548488 198.02096 
L 107.105246 206.148019 
L 104.414681 215.018419 
L 103.787355 223.888819 
L 103.668264 232.759219 
L 103.648149 241.629619 
L 103.64504 250.500019 
L 103.644563 259.370419 
L 103.644487 266.241736 
L 100.764482 268.240819 
L 91.740488 274.442936 
L 91.732999 268.240819 
L 91.723848 259.370419 
L 91.71052 250.500019 
L 91.688535 241.629619 
L 91.651882 232.759219 
L 91.591864 223.888819 
L 91.489725 215.018419 
L 91.329912 206.148019 
L 91.077054 197.277619 
L 90.73121 188.407219 
L 90.315352 179.536819 
L 89.75751 170.666419 
L 89.18368 161.796019 
L 88.705151 152.925619 
L 88.439755 144.055219 
L 88.199203 135.184819 
L 88.216724 126.314419 
L 88.544425 117.444019 
L 89.242754 108.573619 
L 90.116023 99.703219 
L 90.811853 90.832819 
L 91.249822 81.962419 
L 91.501041 73.092019 
L 91.640127 64.221619 
L 91.702762 55.351219 
L 91.727385 46.480819 
L 91.736242 37.610419 
L 91.739348 28.740019 
L 91.740259 19.869619 
L 91.740453 10.999219 
" style="fill:none;stroke:#dde318;stroke-width:1.5;"/>
   </g>
   <g id="LineCollection_20">
    <path clip-path="url(#p56fc88b90c)" d="M 103.650726 10.999219 
L 103.665785 19.869619 
L 103.69282 28.740019 
L 103.731284 37.610419 
L 103.776006 46.480819 
L 103.832036 55.351219 
L 103.904466 64.221619 
L 104.006138 73.092019 
L 104.159787 81.962419 
L 104.403592 90.832819 
L 104.812776 99.703219 
L 105.241698 104.965237 
" style="fill:none;stroke:#fde725;stroke-width:1.5;"/>
    <path clip-path="url(#p56fc88b90c)" d="M 112.091905 128.802102 
L 115.548488 133.164459 
L 115.548492 135.184819 
L 115.548502 144.055219 
L 115.548503 152.925619 
L 115.5485 161.796019 
L 115.548496 170.666419 
L 115.548493 179.536819 
L 115.54849 188.407219 
L 115.548488 197.277619 
L 115.548488 198.283661 
L 107.378169 206.148019 
L 104.475396 215.018419 
L 103.798679 223.888819 
L 103.670173 232.759219 
L 103.648451 241.629619 
L 103.645087 250.500019 
L 103.64457 259.370419 
L 103.644487 266.914863 
L 101.734232 268.240819 
L 91.740488 275.109436 
L 91.732194 268.240819 
L 91.722461 259.370419 
L 91.708147 250.500019 
L 91.684513 241.629619 
L 91.645088 232.759219 
L 91.580509 223.888819 
L 91.470582 215.018419 
L 91.298572 206.148019 
L 91.026416 197.277619 
L 90.654173 188.407219 
L 90.206555 179.536819 
L 89.606065 170.666419 
L 88.988273 161.796019 
L 88.472963 152.925619 
L 88.186978 144.055219 
L 87.927647 135.184819 
L 87.946072 126.314419 
L 88.298428 117.444019 
L 89.050012 108.573619 
L 89.990264 99.703219 
L 90.739653 90.832819 
L 91.211451 81.962419 
L 91.482165 73.092019 
L 91.63213 64.221619 
L 91.699714 55.351219 
L 91.726307 46.480819 
L 91.735884 37.610419 
L 91.739247 28.740019 
L 91.740237 19.869619 
L 91.740448 10.999219 
" style="fill:none;stroke:#fde725;stroke-width:1.5;"/>
   </g>
   <g id="LineCollection_21">
    <path clip-path="url(#p56fc88b90c)" d="M 103.651722 10.999219 
L 103.667781 19.869619 
L 103.696562 28.740019 
L 103.737501 37.610419 
L 103.785177 46.480819 
L 103.845043 55.351219 
L 103.922559 64.221619 
L 104.031476 73.092019 
L 104.196149 81.962419 
L 104.45749 90.832819 
L 104.896114 99.703219 
L 105.671217 108.573619 
L 107.168382 117.444019 
L 108.281501 120.332179 
" style="fill:none;stroke:#440154;stroke-width:1.5;"/>
    <path clip-path="url(#p56fc88b90c)" d="M 115.548503 146.975904 
L 115.548504 152.925619 
L 115.548501 161.796019 
L 115.548497 170.666419 
L 115.548493 179.536819 
L 115.548491 188.407219 
L 115.548488 197.277619 
L 115.548488 198.546363 
L 107.651091 206.148019 
L 104.53611 215.018419 
L 103.810003 223.888819 
L 103.672082 232.759219 
L 103.648752 241.629619 
L 103.645134 250.500019 
L 103.644578 259.370419 
L 103.644487 267.58799 
L 102.703981 268.240819 
L 91.740488 275.775937 
L 91.73139 268.240819 
L 91.721073 259.370419 
L 91.705774 250.500019 
L 91.68049 241.629619 
L 91.638294 232.759219 
L 91.569154 223.888819 
L 91.451439 215.018419 
L 91.267232 206.148019 
L 90.975777 197.277619 
L 90.577137 188.407219 
L 90.097758 179.536819 
L 89.45462 170.666419 
L 88.792867 161.796019 
L 88.240776 152.925619 
L 87.934202 144.055219 
L 87.656091 135.184819 
L 87.67542 126.314419 
L 88.052431 117.444019 
L 88.85727 108.573619 
L 89.864505 99.703219 
L 90.667453 90.832819 
L 91.17308 81.962419 
L 91.463289 73.092019 
L 91.624133 64.221619 
L 91.696665 55.351219 
L 91.725229 46.480819 
L 91.735526 37.610419 
L 91.739147 28.740019 
L 91.740215 19.869619 
L 91.740444 10.999219 
" style="fill:none;stroke:#440154;stroke-width:1.5;"/>
   </g>
   <g id="LineCollection_22">
    <path clip-path="url(#p56fc88b90c)" d="M 91.659672 277.111219 
L 91.586537 268.240819 
L 91.471319 259.370419 
L 91.278606 250.500019 
L 90.956449 241.629619 
L 90.415376 232.759219 
L 89.525291 223.888819 
L 88.005717 215.018419 
L 85.626079 206.148019 
L 81.860883 197.277619 
L 79.836488 192.875406 
L 79.836487 188.407219 
L 79.836487 179.536819 
L 79.836487 170.666419 
L 79.836487 161.796019 
L 79.836487 160.255219 
" style="fill:none;stroke:#440154;stroke-width:1.5;"/>
    <path clip-path="url(#p56fc88b90c)" d="M 79.836487 127.855219 
L 79.836487 126.314419 
L 79.836487 117.444019 
L 79.836487 108.573619 
L 79.836487 99.703219 
L 79.836487 90.832819 
L 79.836488 89.003896 
L 84.266359 81.962419 
L 88.065661 73.092019 
L 90.184669 64.221619 
L 91.147967 55.351219 
L 91.53119 46.480819 
L 91.671062 37.610419 
L 91.721102 28.740019 
L 91.73626 19.869619 
L 91.739665 10.999219 
" style="fill:none;stroke:#440154;stroke-width:1.5;"/>
    <path clip-path="url(#p56fc88b90c)" d="M 103.831046 10.999219 
L 104.027157 19.869619 
L 104.370096 28.740019 
L 104.856658 37.610419 
L 105.436053 46.480819 
L 106.186348 55.351219 
L 107.17926 64.221619 
L 108.592349 73.092019 
L 110.741249 81.962419 
L 114.159098 90.832819 
L 115.548488 93.76607 
L 115.5485 99.703219 
L 115.548535 108.573619 
L 115.548591 117.444019 
L 115.548663 126.314419 
L 115.548675 127.855219 
" style="fill:none;stroke:#440154;stroke-width:1.5;"/>
    <path clip-path="url(#p56fc88b90c)" d="M 115.548682 160.255219 
L 115.548674 161.796019 
L 115.548618 170.666419 
L 115.548571 179.536819 
L 115.548536 188.407219 
L 115.548511 197.277619 
L 115.548496 206.148019 
L 115.548488 214.938126 
L 115.464709 215.018419 
L 105.848367 223.888819 
L 104.015669 232.759219 
L 103.703014 241.629619 
L 103.653637 250.500019 
L 103.645908 259.370419 
L 103.644693 268.240819 
L 103.644489 277.111219 
" style="fill:none;stroke:#440154;stroke-width:1.5;"/>
   </g>
   <g id="LineCollection_23">
    <path clip-path="url(#p56fc88b90c)" d="M 90.842426 277.111219 
L 90.13801 268.240819 
L 88.973781 259.370419 
L 87.006928 250.500019 
L 83.716043 241.629619 
L 79.836488 234.543794 
L 79.836487 232.759219 
L 79.836487 223.888819 
L 79.836487 215.018419 
L 79.836487 206.148019 
L 79.836487 197.277619 
L 79.836487 188.407219 
L 79.836487 179.536819 
L 79.836487 170.666419 
L 79.836487 162.055219 
" style="fill:none;stroke:#440154;stroke-width:1.5;"/>
    <path clip-path="url(#p56fc88b90c)" d="M 79.836487 126.055219 
L 79.836487 117.444019 
L 79.836487 108.573619 
L 79.836487 99.703219 
L 79.836487 90.832819 
L 79.836487 81.962419 
L 79.836487 73.092019 
L 79.836487 64.221619 
L 79.836488 62.364393 
L 85.660978 55.351219 
L 89.590796 46.480819 
L 91.02642 37.610419 
L 91.540654 28.740019 
L 91.696708 19.869619 
L 91.731873 10.999219 
" style="fill:none;stroke:#440154;stroke-width:1.5;"/>
    <path clip-path="url(#p56fc88b90c)" d="M 105.624286 10.999219 
L 107.620915 19.869619 
L 111.105436 28.740019 
L 115.548488 37.048044 
L 115.548488 37.610419 
L 115.548489 46.480819 
L 115.548493 55.351219 
L 115.548503 64.221619 
L 115.54853 73.092019 
L 115.54859 81.962419 
L 115.548715 90.832819 
L 115.548948 99.703219 
L 115.549332 108.573619 
L 115.549886 117.444019 
L 115.550507 126.055219 
" style="fill:none;stroke:#440154;stroke-width:1.5;"/>
    <path clip-path="url(#p56fc88b90c)" d="M 115.550386 162.055219 
L 115.549832 170.666419 
L 115.549348 179.536819 
L 115.548989 188.407219 
L 115.548741 197.277619 
L 115.548595 206.148019 
L 115.54852 215.018419 
L 115.548492 223.888819 
L 115.548488 225.502717 
L 107.451545 232.759219 
L 104.245629 241.629619 
L 103.738663 250.500019 
L 103.659215 259.370419 
L 103.64676 268.240819 
L 103.644792 277.111219 
" style="fill:none;stroke:#440154;stroke-width:1.5;"/>
   </g>
   <g id="LineCollection_24">
    <path clip-path="url(#p56fc88b90c)" d="M 82.66996 277.111219 
L 79.836488 272.272082 
L 79.836487 268.240819 
L 79.836487 259.370419 
L 79.836487 250.500019 
L 79.836487 241.629619 
L 79.836487 232.759219 
L 79.836487 223.888819 
L 79.836487 215.018419 
L 79.836487 206.148019 
L 79.836487 197.277619 
L 79.836486 188.407219 
L 79.836485 179.536819 
L 79.836484 170.666419 
L 79.836482 163.855219 
" style="fill:none;stroke:#440154;stroke-width:1.5;"/>
    <path clip-path="url(#p56fc88b90c)" d="M 79.836479 124.255219 
L 79.83648 117.444019 
L 79.836482 108.573619 
L 79.836484 99.703219 
L 79.836486 90.832819 
L 79.836487 81.962419 
L 79.836487 73.092019 
L 79.836487 64.221619 
L 79.836487 55.351219 
L 79.836487 46.480819 
L 79.836488 42.903555 
L 84.580009 37.610419 
L 89.736173 28.740019 
L 91.301182 19.869619 
L 91.653959 10.999219 
" style="fill:none;stroke:#440154;stroke-width:1.5;"/>
    <path clip-path="url(#p56fc88b90c)" d="M 115.548488 10.999219 
L 115.548489 19.869619 
L 115.548491 28.740019 
L 115.5485 37.610419 
L 115.548525 46.480819 
L 115.548583 55.351219 
L 115.548717 64.221619 
L 115.549027 73.092019 
L 115.549693 81.962419 
L 115.551022 90.832819 
L 115.553428 99.703219 
L 115.557304 108.573619 
L 115.562832 117.444019 
L 115.569156 126.314419 
L 115.573754 133.12562 
" style="fill:none;stroke:#440154;stroke-width:1.5;"/>
    <path clip-path="url(#p56fc88b90c)" d="M 115.560841 172.725615 
L 115.557115 179.536819 
L 115.553523 188.407219 
L 115.551037 197.277619 
L 115.549591 206.148019 
L 115.548848 215.018419 
L 115.548586 223.888819 
L 115.548505 232.759219 
L 115.548488 236.429299 
L 109.671783 241.629619 
L 104.588926 250.500019 
L 103.792279 259.370419 
L 103.667434 268.240819 
L 103.647823 277.111219 
" style="fill:none;stroke:#440154;stroke-width:1.5;"/>
   </g>
   <g id="LineCollection_25">
    <path clip-path="url(#p56fc88b90c)" d="M 79.836487 277.111219 
L 79.836487 268.240819 
L 79.836487 259.370419 
L 79.836487 250.500019 
L 79.836487 241.629619 
L 79.836487 232.759219 
L 79.836486 223.888819 
L 79.836485 215.018419 
L 79.836484 206.148019 
L 79.836481 197.277619 
L 79.836475 188.407219 
L 79.836467 179.536819 
L 79.836453 170.666419 
L 79.836428 161.796019 
L 79.836417 156.784819 
" style="fill:none;stroke:#440154;stroke-width:1.5;"/>
    <path clip-path="url(#p56fc88b90c)" d="M 79.836422 113.584819 
L 79.836434 108.573619 
L 79.836454 99.703219 
L 79.836469 90.832819 
L 79.836478 81.962419 
L 79.836483 73.092019 
L 79.836486 64.221619 
L 79.836487 55.351219 
L 79.836487 46.480819 
L 79.836487 37.610419 
L 79.836487 28.740019 
L 79.836488 27.036196 
L 87.345927 19.869619 
L 90.874817 10.999219 
" style="fill:none;stroke:#440154;stroke-width:1.5;"/>
    <path clip-path="url(#p56fc88b90c)" d="M 115.548494 10.999219 
L 115.548504 19.869619 
L 115.548533 28.740019 
L 115.548621 37.610419 
L 115.548881 46.480819 
L 115.549481 55.351219 
L 115.550848 64.221619 
L 115.554005 73.092019 
L 115.560726 81.962419 
L 115.574092 90.832819 
L 115.598221 99.703219 
L 115.637025 108.573619 
L 115.692291 117.444019 
L 115.755454 126.314419 
L 115.789232 131.325772 
" style="fill:none;stroke:#440154;stroke-width:1.5;"/>
    <path clip-path="url(#p56fc88b90c)" d="M 115.662214 174.525217 
L 115.634791 179.536819 
L 115.598865 188.407219 
L 115.574002 197.277619 
L 115.55955 206.148019 
L 115.552129 215.018419 
L 115.549519 223.888819 
L 115.548737 232.759219 
L 115.548533 241.629619 
L 115.548488 248.329025 
L 113.091558 250.500019 
L 105.122926 259.370419 
L 103.874168 268.240819 
L 103.678136 277.111219 
" style="fill:none;stroke:#440154;stroke-width:1.5;"/>
   </g>
   <g id="LineCollection_26">
    <path clip-path="url(#p56fc88b90c)" d="M 79.836487 277.111219 
L 79.836487 268.240819 
L 79.836486 259.370419 
L 79.836485 250.500019 
L 79.836483 241.629619 
L 79.83648 232.759219 
L 79.836474 223.888819 
L 79.836465 215.018419 
L 79.836448 206.148019 
L 79.836418 197.277619 
L 79.836365 188.407219 
L 79.83628 179.536819 
L 79.836138 170.666419 
L 79.835897 161.796019 
L 79.835824 158.584819 
" style="fill:none;stroke:#450457;stroke-width:1.5;"/>
    <path clip-path="url(#p56fc88b90c)" d="M 79.835875 111.784819 
L 79.835957 108.573619 
L 79.836151 99.703219 
L 79.8363 90.832819 
L 79.836392 81.962419 
L 79.836443 73.092019 
L 79.836467 64.221619 
L 79.83648 55.351219 
L 79.836485 46.480819 
L 79.836487 37.610419 
L 79.836487 28.740019 
L 79.836487 19.869619 
L 79.836488 14.012211 
L 83.083393 10.999219 
" style="fill:none;stroke:#450457;stroke-width:1.5;"/>
    <path clip-path="url(#p56fc88b90c)" d="M 115.548556 10.999219 
L 115.548658 19.869619 
L 115.548946 28.740019 
L 115.549833 37.610419 
L 115.552444 46.480819 
L 115.558463 55.351219 
L 115.572168 64.221619 
L 115.603781 73.092019 
L 115.671058 81.962419 
L 115.804792 90.832819 
L 116.046149 99.703219 
L 116.434233 108.573619 
L 116.986882 117.444019 
L 117.618434 126.314419 
L 117.836148 129.544985 
" style="fill:none;stroke:#450457;stroke-width:1.5;"/>
    <path clip-path="url(#p56fc88b90c)" d="M 116.589604 176.282883 
L 116.411547 179.536819 
L 116.052283 188.407219 
L 115.803654 197.277619 
L 115.659138 206.148019 
L 115.584931 215.018419 
L 115.558847 223.888819 
L 115.55106 232.759219 
L 115.549043 241.629619 
L 115.548586 250.500019 
L 115.548491 259.370419 
L 115.548488 259.765292 
L 105.941508 268.240819 
L 103.981266 277.111219 
" style="fill:none;stroke:#450457;stroke-width:1.5;"/>
   </g>
   <g id="LineCollection_27">
    <path clip-path="url(#p56fc88b90c)" d="M 79.836484 277.111219 
L 79.836481 268.240819 
L 79.836476 259.370419 
L 79.836465 250.500019 
L 79.836447 241.629619 
L 79.836413 232.759219 
L 79.836357 223.888819 
L 79.836261 215.018419 
L 79.836089 206.148019 
L 79.835789 197.277619 
L 79.835262 188.407219 
L 79.834409 179.536819 
L 79.832995 170.666419 
L 79.832611 169.255218 
" style="fill:none;stroke:#482475;stroke-width:1.5;"/>
    <path clip-path="url(#p56fc88b90c)" d="M 79.828827 118.855219 
L 79.828921 117.444019 
L 79.83118 108.573619 
L 79.833127 99.703219 
L 79.834615 90.832819 
L 79.835535 81.962419 
L 79.836041 73.092019 
L 79.836287 64.221619 
L 79.836417 55.351219 
L 79.836465 46.480819 
L 79.83648 37.610419 
L 79.836485 28.740019 
L 79.836487 19.869619 
L 79.836487 10.999219 
" style="fill:none;stroke:#482475;stroke-width:1.5;"/>
    <path clip-path="url(#p56fc88b90c)" d="M 115.54918 10.999219 
L 115.550196 19.869619 
L 115.553079 28.740019 
L 115.561952 37.610419 
L 115.588072 46.480819 
L 115.64828 55.351219 
L 115.785362 64.221619 
L 116.101542 73.092019 
L 116.774374 81.962419 
L 118.111793 90.832819 
L 120.525433 99.703219 
L 124.406316 108.573619 
L 127.452488 114.481681 
L 127.452488 117.444019 
L 127.452488 126.314419 
L 127.452488 127.725619 
" style="fill:none;stroke:#482475;stroke-width:1.5;"/>
    <path clip-path="url(#p56fc88b90c)" d="M 125.118831 177.591489 
L 124.179104 179.536819 
L 120.586462 188.407219 
L 118.100166 197.277619 
L 116.655017 206.148019 
L 115.91296 215.018419 
L 115.65213 223.888819 
L 115.57428 232.759219 
L 115.554146 241.629619 
L 115.549598 250.500019 
L 115.548673 259.370419 
L 115.548505 268.240819 
L 115.548488 269.657702 
L 107.01256 277.111219 
" style="fill:none;stroke:#482475;stroke-width:1.5;"/>
   </g>
   <g id="LineCollection_28">
    <path clip-path="url(#p56fc88b90c)" d="M 79.836457 277.111219 
L 79.836427 268.240819 
L 79.836371 259.370419 
L 79.836267 250.500019 
L 79.836079 241.629619 
L 79.835743 232.759219 
L 79.83518 223.888819 
L 79.834225 215.018419 
L 79.832507 206.148019 
L 79.829505 197.277619 
L 79.824235 188.407219 
L 79.815705 179.536819 
L 79.802178 171.055162 
" style="fill:none;stroke:#fde725;stroke-width:1.5;"/>
    <path clip-path="url(#p56fc88b90c)" d="M 79.761812 117.055222 
L 79.783417 108.573619 
L 79.802883 99.703219 
L 79.817759 90.832819 
L 79.826963 81.962419 
L 79.832021 73.092019 
L 79.834484 64.221619 
L 79.835782 55.351219 
L 79.836261 46.480819 
L 79.836416 37.610419 
L 79.836467 28.740019 
L 79.836482 19.869619 
L 79.836486 10.999219 
" style="fill:none;stroke:#fde725;stroke-width:1.5;"/>
    <path clip-path="url(#p56fc88b90c)" d="M 115.55542 10.999219 
L 115.565575 19.869619 
L 115.594408 28.740019 
L 115.683141 37.610419 
L 115.944358 46.480819 
L 116.546454 55.351219 
L 117.917306 64.221619 
L 121.07915 73.092019 
L 127.452488 81.744949 
L 127.452488 81.962419 
L 127.452488 90.832819 
L 127.452488 99.703219 
L 127.452488 108.573619 
L 127.452488 117.055219 
" style="fill:none;stroke:#fde725;stroke-width:1.5;"/>
    <path clip-path="url(#p56fc88b90c)" d="M 127.452488 171.055219 
L 127.452488 179.536819 
L 127.452488 188.407219 
L 127.452488 197.277619 
L 127.452488 205.044552 
L 126.613809 206.148019 
L 119.193246 215.018419 
L 116.584963 223.888819 
L 115.806488 232.759219 
L 115.605175 241.629619 
L 115.559719 250.500019 
L 115.550487 259.370419 
L 115.548826 268.240819 
L 115.548529 277.111219 
" style="fill:none;stroke:#fde725;stroke-width:1.5;"/>
   </g>
   <g id="line2d_17">
    <path clip-path="url(#p56fc88b90c)" d="M 387.269488 241.849219 
L 341.495506 213.250084 
L 303.079331 187.523147 
L 270.87789 164.495762 
L 243.906523 144.088182 
L 221.328839 126.357456 
L 202.439811 111.056764 
L 186.633513 97.977271 
L 173.437771 86.881305 
L 162.4138 78.105542 
L 153.230196 70.77408 
L 145.672546 65.091765 
L 139.508267 61.001489 
L 134.634733 58.107595 
L 130.874285 56.718526 
L 127.992643 56.486683 
L 125.835251 57.300301 
L 124.233827 58.665195 
L 122.996033 60.538935 
L 122.033385 62.992897 
L 121.208721 65.604423 
L 120.527514 68.151706 
L 120.050323 71.613786 
L 119.5541 75.076824 
L 119.109037 78.360777 
L 118.717368 81.947842 
L 118.369797 85.698787 
L 118.160034 89.506659 
L 117.94807 93.376208 
L 117.649076 97.43141 
L 117.411073 101.461467 
L 117.113148 105.03308 
L 117.028907 109.574788 
L 116.792475 113.911633 
L 116.626248 117.880027 
L 116.421283 121.800231 
L 116.275605 125.935529 
L 116.110261 130.005705 
L 115.967176 134.113485 
L 115.806951 138.248194 
L 115.623134 141.976338 
L 115.43453 145.57854 
L 115.370247 150.095511 
L 115.231272 154.07857 
L 115.045203 158.176394 
L 114.917165 162.74559 
L 114.741535 167.079854 
L 114.517974 171.927822 
L 114.385424 177.418138 
L 114.130294 183.466602 
L 114.135969 184.499183 
L 114.031718 185.293946 
L 113.910554 185.988581 
L 113.803924 186.714741 
L 113.687847 187.373243 
L 113.588696 188.0458 
L 113.479621 188.666537 
L 113.380533 189.287363 
L 113.280434 189.885035 
L 113.201285 190.564007 
L 113.125922 191.22127 
L 113.05288 191.911963 
L 112.986818 192.626036 
L 112.910702 193.25056 
L 112.856884 193.904088 
L 112.806538 194.566867 
L 112.75428 195.196171 
L 112.716067 195.886302 
L 112.673896 196.478424 
L 112.643031 197.118226 
L 112.607479 197.757126 
L 112.582393 198.398317 
L 112.563512 199.095021 
L 112.542136 199.754247 
L 112.527132 200.515951 
L 112.527856 200.624064 
L 112.524668 200.734969 
L 112.520909 200.827732 
L 112.516073 200.89949 
L 112.510131 200.963926 
L 112.5056 201.023485 
L 112.500059 201.068373 
L 112.49398 201.092419 
L 112.485508 201.102406 
L 112.478377 201.119093 
L 112.474616 201.160538 
L 112.468788 201.174175 
L 112.464868 201.190695 
L 112.459676 201.203056 
L 112.453827 201.207463 
L 112.449947 201.21869 
L 112.445089 201.215222 
L 112.439753 201.206784 
L 112.436319 201.19183 
L 112.433403 201.181837 
L 112.429162 201.176566 
L 112.426599 201.154235 
L 112.422476 201.137279 
L 112.418107 201.104589 
" style="fill:none;stroke:#1f77b4;stroke-linecap:square;stroke-width:1.5;"/>
    <defs>
     <path d="M 0 1.5 
C 0.397805 1.5 0.77937 1.341951 1.06066 1.06066 
C 1.341951 0.77937 1.5 0.397805 1.5 0 
C 1.5 -0.397805 1.341951 -0.77937 1.06066 -1.06066 
C 0.77937 -1.341951 0.397805 -1.5 0 -1.5 
C -0.397805 -1.5 -0.77937 -1.341951 -1.06066 -1.06066 
C -1.341951 -0.77937 -1.5 -0.397805 -1.5 0 
C -1.5 0.397805 -1.341951 0.77937 -1.06066 1.06066 
C -0.77937 1.341951 -0.397805 1.5 0 1.5 
z
" id="mb7a1ab0582" style="stroke:#1f77b4;"/>
    </defs>
    <g clip-path="url(#p56fc88b90c)">
     <use style="fill:#1f77b4;stroke:#1f77b4;" x="387.269488" xlink:href="#mb7a1ab0582" y="241.849219"/>
     <use style="fill:#1f77b4;stroke:#1f77b4;" x="341.495506" xlink:href="#mb7a1ab0582" y="213.250084"/>
     <use style="fill:#1f77b4;stroke:#1f77b4;" x="303.079331" xlink:href="#mb7a1ab0582" y="187.523147"/>
     <use style="fill:#1f77b4;stroke:#1f77b4;" x="270.87789" xlink:href="#mb7a1ab0582" y="164.495762"/>
     <use style="fill:#1f77b4;stroke:#1f77b4;" x="243.906523" xlink:href="#mb7a1ab0582" y="144.088182"/>
     <use style="fill:#1f77b4;stroke:#1f77b4;" x="221.328839" xlink:href="#mb7a1ab0582" y="126.357456"/>
     <use style="fill:#1f77b4;stroke:#1f77b4;" x="202.439811" xlink:href="#mb7a1ab0582" y="111.056764"/>
     <use style="fill:#1f77b4;stroke:#1f77b4;" x="186.633513" xlink:href="#mb7a1ab0582" y="97.977271"/>
     <use style="fill:#1f77b4;stroke:#1f77b4;" x="173.437771" xlink:href="#mb7a1ab0582" y="86.881305"/>
     <use style="fill:#1f77b4;stroke:#1f77b4;" x="162.4138" xlink:href="#mb7a1ab0582" y="78.105542"/>
     <use style="fill:#1f77b4;stroke:#1f77b4;" x="153.230196" xlink:href="#mb7a1ab0582" y="70.77408"/>
     <use style="fill:#1f77b4;stroke:#1f77b4;" x="145.672546" xlink:href="#mb7a1ab0582" y="65.091765"/>
     <use style="fill:#1f77b4;stroke:#1f77b4;" x="139.508267" xlink:href="#mb7a1ab0582" y="61.001489"/>
     <use style="fill:#1f77b4;stroke:#1f77b4;" x="134.634733" xlink:href="#mb7a1ab0582" y="58.107595"/>
     <use style="fill:#1f77b4;stroke:#1f77b4;" x="130.874285" xlink:href="#mb7a1ab0582" y="56.718526"/>
     <use style="fill:#1f77b4;stroke:#1f77b4;" x="127.992643" xlink:href="#mb7a1ab0582" y="56.486683"/>
     <use style="fill:#1f77b4;stroke:#1f77b4;" x="125.835251" xlink:href="#mb7a1ab0582" y="57.300301"/>
     <use style="fill:#1f77b4;stroke:#1f77b4;" x="124.233827" xlink:href="#mb7a1ab0582" y="58.665195"/>
     <use style="fill:#1f77b4;stroke:#1f77b4;" x="122.996033" xlink:href="#mb7a1ab0582" y="60.538935"/>
     <use style="fill:#1f77b4;stroke:#1f77b4;" x="122.033385" xlink:href="#mb7a1ab0582" y="62.992897"/>
     <use style="fill:#1f77b4;stroke:#1f77b4;" x="121.208721" xlink:href="#mb7a1ab0582" y="65.604423"/>
     <use style="fill:#1f77b4;stroke:#1f77b4;" x="120.527514" xlink:href="#mb7a1ab0582" y="68.151706"/>
     <use style="fill:#1f77b4;stroke:#1f77b4;" x="120.050323" xlink:href="#mb7a1ab0582" y="71.613786"/>
     <use style="fill:#1f77b4;stroke:#1f77b4;" x="119.5541" xlink:href="#mb7a1ab0582" y="75.076824"/>
     <use style="fill:#1f77b4;stroke:#1f77b4;" x="119.109037" xlink:href="#mb7a1ab0582" y="78.360777"/>
     <use style="fill:#1f77b4;stroke:#1f77b4;" x="118.717368" xlink:href="#mb7a1ab0582" y="81.947842"/>
     <use style="fill:#1f77b4;stroke:#1f77b4;" x="118.369797" xlink:href="#mb7a1ab0582" y="85.698787"/>
     <use style="fill:#1f77b4;stroke:#1f77b4;" x="118.160034" xlink:href="#mb7a1ab0582" y="89.506659"/>
     <use style="fill:#1f77b4;stroke:#1f77b4;" x="117.94807" xlink:href="#mb7a1ab0582" y="93.376208"/>
     <use style="fill:#1f77b4;stroke:#1f77b4;" x="117.649076" xlink:href="#mb7a1ab0582" y="97.43141"/>
     <use style="fill:#1f77b4;stroke:#1f77b4;" x="117.411073" xlink:href="#mb7a1ab0582" y="101.461467"/>
     <use style="fill:#1f77b4;stroke:#1f77b4;" x="117.113148" xlink:href="#mb7a1ab0582" y="105.03308"/>
     <use style="fill:#1f77b4;stroke:#1f77b4;" x="117.028907" xlink:href="#mb7a1ab0582" y="109.574788"/>
     <use style="fill:#1f77b4;stroke:#1f77b4;" x="116.792475" xlink:href="#mb7a1ab0582" y="113.911633"/>
     <use style="fill:#1f77b4;stroke:#1f77b4;" x="116.626248" xlink:href="#mb7a1ab0582" y="117.880027"/>
     <use style="fill:#1f77b4;stroke:#1f77b4;" x="116.421283" xlink:href="#mb7a1ab0582" y="121.800231"/>
     <use style="fill:#1f77b4;stroke:#1f77b4;" x="116.275605" xlink:href="#mb7a1ab0582" y="125.935529"/>
     <use style="fill:#1f77b4;stroke:#1f77b4;" x="116.110261" xlink:href="#mb7a1ab0582" y="130.005705"/>
     <use style="fill:#1f77b4;stroke:#1f77b4;" x="115.967176" xlink:href="#mb7a1ab0582" y="134.113485"/>
     <use style="fill:#1f77b4;stroke:#1f77b4;" x="115.806951" xlink:href="#mb7a1ab0582" y="138.248194"/>
     <use style="fill:#1f77b4;stroke:#1f77b4;" x="115.623134" xlink:href="#mb7a1ab0582" y="141.976338"/>
     <use style="fill:#1f77b4;stroke:#1f77b4;" x="115.43453" xlink:href="#mb7a1ab0582" y="145.57854"/>
     <use style="fill:#1f77b4;stroke:#1f77b4;" x="115.370247" xlink:href="#mb7a1ab0582" y="150.095511"/>
     <use style="fill:#1f77b4;stroke:#1f77b4;" x="115.231272" xlink:href="#mb7a1ab0582" y="154.07857"/>
     <use style="fill:#1f77b4;stroke:#1f77b4;" x="115.045203" xlink:href="#mb7a1ab0582" y="158.176394"/>
     <use style="fill:#1f77b4;stroke:#1f77b4;" x="114.917165" xlink:href="#mb7a1ab0582" y="162.74559"/>
     <use style="fill:#1f77b4;stroke:#1f77b4;" x="114.741535" xlink:href="#mb7a1ab0582" y="167.079854"/>
     <use style="fill:#1f77b4;stroke:#1f77b4;" x="114.517974" xlink:href="#mb7a1ab0582" y="171.927822"/>
     <use style="fill:#1f77b4;stroke:#1f77b4;" x="114.385424" xlink:href="#mb7a1ab0582" y="177.418138"/>
     <use style="fill:#1f77b4;stroke:#1f77b4;" x="114.130294" xlink:href="#mb7a1ab0582" y="183.466602"/>
     <use style="fill:#1f77b4;stroke:#1f77b4;" x="114.135969" xlink:href="#mb7a1ab0582" y="184.499183"/>
     <use style="fill:#1f77b4;stroke:#1f77b4;" x="114.031718" xlink:href="#mb7a1ab0582" y="185.293946"/>
     <use style="fill:#1f77b4;stroke:#1f77b4;" x="113.910554" xlink:href="#mb7a1ab0582" y="185.988581"/>
     <use style="fill:#1f77b4;stroke:#1f77b4;" x="113.803924" xlink:href="#mb7a1ab0582" y="186.714741"/>
     <use style="fill:#1f77b4;stroke:#1f77b4;" x="113.687847" xlink:href="#mb7a1ab0582" y="187.373243"/>
     <use style="fill:#1f77b4;stroke:#1f77b4;" x="113.588696" xlink:href="#mb7a1ab0582" y="188.0458"/>
     <use style="fill:#1f77b4;stroke:#1f77b4;" x="113.479621" xlink:href="#mb7a1ab0582" y="188.666537"/>
     <use style="fill:#1f77b4;stroke:#1f77b4;" x="113.380533" xlink:href="#mb7a1ab0582" y="189.287363"/>
     <use style="fill:#1f77b4;stroke:#1f77b4;" x="113.280434" xlink:href="#mb7a1ab0582" y="189.885035"/>
     <use style="fill:#1f77b4;stroke:#1f77b4;" x="113.201285" xlink:href="#mb7a1ab0582" y="190.564007"/>
     <use style="fill:#1f77b4;stroke:#1f77b4;" x="113.125922" xlink:href="#mb7a1ab0582" y="191.22127"/>
     <use style="fill:#1f77b4;stroke:#1f77b4;" x="113.05288" xlink:href="#mb7a1ab0582" y="191.911963"/>
     <use style="fill:#1f77b4;stroke:#1f77b4;" x="112.986818" xlink:href="#mb7a1ab0582" y="192.626036"/>
     <use style="fill:#1f77b4;stroke:#1f77b4;" x="112.910702" xlink:href="#mb7a1ab0582" y="193.25056"/>
     <use style="fill:#1f77b4;stroke:#1f77b4;" x="112.856884" xlink:href="#mb7a1ab0582" y="193.904088"/>
     <use style="fill:#1f77b4;stroke:#1f77b4;" x="112.806538" xlink:href="#mb7a1ab0582" y="194.566867"/>
     <use style="fill:#1f77b4;stroke:#1f77b4;" x="112.75428" xlink:href="#mb7a1ab0582" y="195.196171"/>
     <use style="fill:#1f77b4;stroke:#1f77b4;" x="112.716067" xlink:href="#mb7a1ab0582" y="195.886302"/>
     <use style="fill:#1f77b4;stroke:#1f77b4;" x="112.673896" xlink:href="#mb7a1ab0582" y="196.478424"/>
     <use style="fill:#1f77b4;stroke:#1f77b4;" x="112.643031" xlink:href="#mb7a1ab0582" y="197.118226"/>
     <use style="fill:#1f77b4;stroke:#1f77b4;" x="112.607479" xlink:href="#mb7a1ab0582" y="197.757126"/>
     <use style="fill:#1f77b4;stroke:#1f77b4;" x="112.582393" xlink:href="#mb7a1ab0582" y="198.398317"/>
     <use style="fill:#1f77b4;stroke:#1f77b4;" x="112.563512" xlink:href="#mb7a1ab0582" y="199.095021"/>
     <use style="fill:#1f77b4;stroke:#1f77b4;" x="112.542136" xlink:href="#mb7a1ab0582" y="199.754247"/>
     <use style="fill:#1f77b4;stroke:#1f77b4;" x="112.527132" xlink:href="#mb7a1ab0582" y="200.515951"/>
     <use style="fill:#1f77b4;stroke:#1f77b4;" x="112.527856" xlink:href="#mb7a1ab0582" y="200.624064"/>
     <use style="fill:#1f77b4;stroke:#1f77b4;" x="112.524668" xlink:href="#mb7a1ab0582" y="200.734969"/>
     <use style="fill:#1f77b4;stroke:#1f77b4;" x="112.520909" xlink:href="#mb7a1ab0582" y="200.827732"/>
     <use style="fill:#1f77b4;stroke:#1f77b4;" x="112.516073" xlink:href="#mb7a1ab0582" y="200.89949"/>
     <use style="fill:#1f77b4;stroke:#1f77b4;" x="112.510131" xlink:href="#mb7a1ab0582" y="200.963926"/>
     <use style="fill:#1f77b4;stroke:#1f77b4;" x="112.5056" xlink:href="#mb7a1ab0582" y="201.023485"/>
     <use style="fill:#1f77b4;stroke:#1f77b4;" x="112.500059" xlink:href="#mb7a1ab0582" y="201.068373"/>
     <use style="fill:#1f77b4;stroke:#1f77b4;" x="112.49398" xlink:href="#mb7a1ab0582" y="201.092419"/>
     <use style="fill:#1f77b4;stroke:#1f77b4;" x="112.485508" xlink:href="#mb7a1ab0582" y="201.102406"/>
     <use style="fill:#1f77b4;stroke:#1f77b4;" x="112.478377" xlink:href="#mb7a1ab0582" y="201.119093"/>
     <use style="fill:#1f77b4;stroke:#1f77b4;" x="112.474616" xlink:href="#mb7a1ab0582" y="201.160538"/>
     <use style="fill:#1f77b4;stroke:#1f77b4;" x="112.468788" xlink:href="#mb7a1ab0582" y="201.174175"/>
     <use style="fill:#1f77b4;stroke:#1f77b4;" x="112.464868" xlink:href="#mb7a1ab0582" y="201.190695"/>
     <use style="fill:#1f77b4;stroke:#1f77b4;" x="112.459676" xlink:href="#mb7a1ab0582" y="201.203056"/>
     <use style="fill:#1f77b4;stroke:#1f77b4;" x="112.453827" xlink:href="#mb7a1ab0582" y="201.207463"/>
     <use style="fill:#1f77b4;stroke:#1f77b4;" x="112.449947" xlink:href="#mb7a1ab0582" y="201.21869"/>
     <use style="fill:#1f77b4;stroke:#1f77b4;" x="112.445089" xlink:href="#mb7a1ab0582" y="201.215222"/>
     <use style="fill:#1f77b4;stroke:#1f77b4;" x="112.439753" xlink:href="#mb7a1ab0582" y="201.206784"/>
     <use style="fill:#1f77b4;stroke:#1f77b4;" x="112.436319" xlink:href="#mb7a1ab0582" y="201.19183"/>
     <use style="fill:#1f77b4;stroke:#1f77b4;" x="112.433403" xlink:href="#mb7a1ab0582" y="201.181837"/>
     <use style="fill:#1f77b4;stroke:#1f77b4;" x="112.429162" xlink:href="#mb7a1ab0582" y="201.176566"/>
     <use style="fill:#1f77b4;stroke:#1f77b4;" x="112.426599" xlink:href="#mb7a1ab0582" y="201.154235"/>
     <use style="fill:#1f77b4;stroke:#1f77b4;" x="112.422476" xlink:href="#mb7a1ab0582" y="201.137279"/>
     <use style="fill:#1f77b4;stroke:#1f77b4;" x="112.418107" xlink:href="#mb7a1ab0582" y="201.104589"/>
    </g>
   </g>
   <g id="patch_3">
    <path d="M 56.028488 277.111219 
L 56.028488 10.999219 
" style="fill:none;stroke:#000000;stroke-linecap:square;stroke-linejoin:miter;stroke-width:0.8;"/>
   </g>
   <g id="patch_4">
    <path d="M 413.148488 277.111219 
L 413.148488 10.999219 
" style="fill:none;stroke:#000000;stroke-linecap:square;stroke-linejoin:miter;stroke-width:0.8;"/>
   </g>
   <g id="patch_5">
    <path d="M 56.028488 277.111219 
L 413.148488 277.111219 
" style="fill:none;stroke:#000000;stroke-linecap:square;stroke-linejoin:miter;stroke-width:0.8;"/>
   </g>
   <g id="patch_6">
    <path d="M 56.028488 10.999219 
L 413.148488 10.999219 
" style="fill:none;stroke:#000000;stroke-linecap:square;stroke-linejoin:miter;stroke-width:0.8;"/>
   </g>
   <g id="text_19">
    <g clip-path="url(#p56fc88b90c)">
     <!-- 2.500 -->
     <g style="fill:#39558c;" transform="translate(90.071006 170.948976)rotate(-270.020558)scale(0.06 -0.06)">
      <use xlink:href="#DejaVuSans-50"/>
      <use x="63.623047" xlink:href="#DejaVuSans-46"/>
      <use x="95.410156" xlink:href="#DejaVuSans-53"/>
      <use x="159.033203" xlink:href="#DejaVuSans-48"/>
      <use x="222.65625" xlink:href="#DejaVuSans-48"/>
     </g>
    </g>
   </g>
   <g id="text_20">
    <g clip-path="url(#p56fc88b90c)">
     <!-- 2.500 -->
     <g style="fill:#39558c;" transform="translate(101.7632 37.939661)rotate(-271.530373)scale(0.06 -0.06)">
      <use xlink:href="#DejaVuSans-50"/>
      <use x="63.623047" xlink:href="#DejaVuSans-46"/>
      <use x="95.410156" xlink:href="#DejaVuSans-53"/>
      <use x="159.033203" xlink:href="#DejaVuSans-48"/>
      <use x="222.65625" xlink:href="#DejaVuSans-48"/>
     </g>
    </g>
   </g>
   <g id="text_21">
    <g clip-path="url(#p56fc88b90c)">
     <!-- 3.000 -->
     <g style="fill:#33638d;" transform="translate(89.808883 144.342409)rotate(-270.179471)scale(0.06 -0.06)">
      <defs>
       <path d="M 40.578125 39.3125 
Q 47.65625 37.796875 51.625 33 
Q 55.609375 28.21875 55.609375 21.1875 
Q 55.609375 10.40625 48.1875 4.484375 
Q 40.765625 -1.421875 27.09375 -1.421875 
Q 22.515625 -1.421875 17.65625 -0.515625 
Q 12.796875 0.390625 7.625 2.203125 
L 7.625 11.71875 
Q 11.71875 9.328125 16.59375 8.109375 
Q 21.484375 6.890625 26.8125 6.890625 
Q 36.078125 6.890625 40.9375 10.546875 
Q 45.796875 14.203125 45.796875 21.1875 
Q 45.796875 27.640625 41.28125 31.265625 
Q 36.765625 34.90625 28.71875 34.90625 
L 20.21875 34.90625 
L 20.21875 43.015625 
L 29.109375 43.015625 
Q 36.375 43.015625 40.234375 45.921875 
Q 44.09375 48.828125 44.09375 54.296875 
Q 44.09375 59.90625 40.109375 62.90625 
Q 36.140625 65.921875 28.71875 65.921875 
Q 24.65625 65.921875 20.015625 65.03125 
Q 15.375 64.15625 9.8125 62.3125 
L 9.8125 71.09375 
Q 15.4375 72.65625 20.34375 73.4375 
Q 25.25 74.21875 29.59375 74.21875 
Q 40.828125 74.21875 47.359375 69.109375 
Q 53.90625 64.015625 53.90625 55.328125 
Q 53.90625 49.265625 50.4375 45.09375 
Q 46.96875 40.921875 40.578125 39.3125 
z
" id="DejaVuSans-51"/>
      </defs>
      <use xlink:href="#DejaVuSans-51"/>
      <use x="63.623047" xlink:href="#DejaVuSans-46"/>
      <use x="95.410156" xlink:href="#DejaVuSans-48"/>
      <use x="159.033203" xlink:href="#DejaVuSans-48"/>
      <use x="222.65625" xlink:href="#DejaVuSans-48"/>
     </g>
    </g>
   </g>
   <g id="text_22">
    <g clip-path="url(#p56fc88b90c)">
     <!-- 3.500 -->
     <g style="fill:#2d718e;" transform="translate(102.05778 82.252864)rotate(-270.289766)scale(0.06 -0.06)">
      <use xlink:href="#DejaVuSans-51"/>
      <use x="63.623047" xlink:href="#DejaVuSans-46"/>
      <use x="95.410156" xlink:href="#DejaVuSans-53"/>
      <use x="159.033203" xlink:href="#DejaVuSans-48"/>
      <use x="222.65625" xlink:href="#DejaVuSans-48"/>
     </g>
    </g>
   </g>
   <g id="text_23">
    <g clip-path="url(#p56fc88b90c)">
     <!-- 4.000 -->
     <g style="fill:#287d8e;" transform="translate(83.514933 262.97397)rotate(-329.213096)scale(0.06 -0.06)">
      <defs>
       <path d="M 37.796875 64.3125 
L 12.890625 25.390625 
L 37.796875 25.390625 
z
M 35.203125 72.90625 
L 47.609375 72.90625 
L 47.609375 25.390625 
L 58.015625 25.390625 
L 58.015625 17.1875 
L 47.609375 17.1875 
L 47.609375 0 
L 37.796875 0 
L 37.796875 17.1875 
L 4.890625 17.1875 
L 4.890625 26.703125 
z
" id="DejaVuSans-52"/>
      </defs>
      <use xlink:href="#DejaVuSans-52"/>
      <use x="63.623047" xlink:href="#DejaVuSans-46"/>
      <use x="95.410156" xlink:href="#DejaVuSans-48"/>
      <use x="159.033203" xlink:href="#DejaVuSans-48"/>
      <use x="222.65625" xlink:href="#DejaVuSans-48"/>
     </g>
    </g>
   </g>
   <g id="text_24">
    <g clip-path="url(#p56fc88b90c)">
     <!-- 4.500 -->
     <g style="fill:#238a8d;" transform="translate(89.295265 162.112425)rotate(-271.133855)scale(0.06 -0.06)">
      <use xlink:href="#DejaVuSans-52"/>
      <use x="63.623047" xlink:href="#DejaVuSans-46"/>
      <use x="95.410156" xlink:href="#DejaVuSans-53"/>
      <use x="159.033203" xlink:href="#DejaVuSans-48"/>
      <use x="222.65625" xlink:href="#DejaVuSans-48"/>
     </g>
    </g>
   </g>
   <g id="text_25">
    <g clip-path="url(#p56fc88b90c)">
     <!-- 5.000 -->
     <g style="fill:#1f968b;" transform="translate(102.299874 100.062902)rotate(-272.42436)scale(0.06 -0.06)">
      <use xlink:href="#DejaVuSans-53"/>
      <use x="63.623047" xlink:href="#DejaVuSans-46"/>
      <use x="95.410156" xlink:href="#DejaVuSans-48"/>
      <use x="159.033203" xlink:href="#DejaVuSans-48"/>
      <use x="222.65625" xlink:href="#DejaVuSans-48"/>
     </g>
    </g>
   </g>
   <g id="text_26">
    <g clip-path="url(#p56fc88b90c)">
     <!-- 5.500 -->
     <g style="fill:#20a386;" transform="translate(102.361877 100.080633)rotate(-272.918929)scale(0.06 -0.06)">
      <use xlink:href="#DejaVuSans-53"/>
      <use x="63.623047" xlink:href="#DejaVuSans-46"/>
      <use x="95.410156" xlink:href="#DejaVuSans-53"/>
      <use x="159.033203" xlink:href="#DejaVuSans-48"/>
      <use x="222.65625" xlink:href="#DejaVuSans-48"/>
     </g>
    </g>
   </g>
   <g id="text_27">
    <g clip-path="url(#p56fc88b90c)">
     <!-- 6.000 -->
     <g style="fill:#29af7f;" transform="translate(102.424255 100.098941)rotate(-273.412017)scale(0.06 -0.06)">
      <use xlink:href="#DejaVuSans-54"/>
      <use x="63.623047" xlink:href="#DejaVuSans-46"/>
      <use x="95.410156" xlink:href="#DejaVuSans-48"/>
      <use x="159.033203" xlink:href="#DejaVuSans-48"/>
      <use x="222.65625" xlink:href="#DejaVuSans-48"/>
     </g>
    </g>
   </g>
   <g id="text_28">
    <g clip-path="url(#p56fc88b90c)">
     <!-- 6.500 -->
     <g style="fill:#3dbc74;" transform="translate(90.035276 233.044621)rotate(-270.118414)scale(0.06 -0.06)">
      <use xlink:href="#DejaVuSans-54"/>
      <use x="63.623047" xlink:href="#DejaVuSans-46"/>
      <use x="95.410156" xlink:href="#DejaVuSans-53"/>
      <use x="159.033203" xlink:href="#DejaVuSans-48"/>
      <use x="222.65625" xlink:href="#DejaVuSans-48"/>
     </g>
    </g>
   </g>
   <g id="text_29">
    <g clip-path="url(#p56fc88b90c)">
     <!-- 7.000 -->
     <g style="fill:#56c667;" transform="translate(93.395611 28.458126)rotate(-89.99759)scale(0.06 -0.06)">
      <use xlink:href="#DejaVuSans-55"/>
      <use x="63.623047" xlink:href="#DejaVuSans-46"/>
      <use x="95.410156" xlink:href="#DejaVuSans-48"/>
      <use x="159.033203" xlink:href="#DejaVuSans-48"/>
      <use x="222.65625" xlink:href="#DejaVuSans-48"/>
     </g>
    </g>
   </g>
   <g id="text_30">
    <g clip-path="url(#p56fc88b90c)">
     <!-- 7.500 -->
     <g style="fill:#75d054;" transform="translate(102.815901 109.292919)rotate(-280.352561)scale(0.06 -0.06)">
      <use xlink:href="#DejaVuSans-55"/>
      <use x="63.623047" xlink:href="#DejaVuSans-46"/>
      <use x="95.410156" xlink:href="#DejaVuSans-53"/>
      <use x="159.033203" xlink:href="#DejaVuSans-48"/>
      <use x="222.65625" xlink:href="#DejaVuSans-48"/>
     </g>
    </g>
   </g>
   <g id="text_31">
    <g clip-path="url(#p56fc88b90c)">
     <!-- 8.000 -->
     <g style="fill:#95d840;" transform="translate(102.90805 109.350407)rotate(-281.367869)scale(0.06 -0.06)">
      <use xlink:href="#DejaVuSans-56"/>
      <use x="63.623047" xlink:href="#DejaVuSans-46"/>
      <use x="95.410156" xlink:href="#DejaVuSans-48"/>
      <use x="159.033203" xlink:href="#DejaVuSans-48"/>
      <use x="222.65625" xlink:href="#DejaVuSans-48"/>
     </g>
    </g>
   </g>
   <g id="text_32">
    <g clip-path="url(#p56fc88b90c)">
     <!-- 8.500 -->
     <g style="fill:#bade28;" transform="translate(103.002584 109.409857)rotate(-282.373596)scale(0.06 -0.06)">
      <use xlink:href="#DejaVuSans-56"/>
      <use x="63.623047" xlink:href="#DejaVuSans-46"/>
      <use x="95.410156" xlink:href="#DejaVuSans-53"/>
      <use x="159.033203" xlink:href="#DejaVuSans-48"/>
      <use x="222.65625" xlink:href="#DejaVuSans-48"/>
     </g>
    </g>
   </g>
   <g id="text_33">
    <g clip-path="url(#p56fc88b90c)">
     <!-- 9.000 -->
     <g style="fill:#dde318;" transform="translate(103.099601 109.471143)rotate(-283.369141)scale(0.06 -0.06)">
      <defs>
       <path d="M 10.984375 1.515625 
L 10.984375 10.5 
Q 14.703125 8.734375 18.5 7.8125 
Q 22.3125 6.890625 25.984375 6.890625 
Q 35.75 6.890625 40.890625 13.453125 
Q 46.046875 20.015625 46.78125 33.40625 
Q 43.953125 29.203125 39.59375 26.953125 
Q 35.25 24.703125 29.984375 24.703125 
Q 19.046875 24.703125 12.671875 31.3125 
Q 6.296875 37.9375 6.296875 49.421875 
Q 6.296875 60.640625 12.9375 67.421875 
Q 19.578125 74.21875 30.609375 74.21875 
Q 43.265625 74.21875 49.921875 64.515625 
Q 56.59375 54.828125 56.59375 36.375 
Q 56.59375 19.140625 48.40625 8.859375 
Q 40.234375 -1.421875 26.421875 -1.421875 
Q 22.703125 -1.421875 18.890625 -0.6875 
Q 15.09375 0.046875 10.984375 1.515625 
z
M 30.609375 32.421875 
Q 37.25 32.421875 41.125 36.953125 
Q 45.015625 41.5 45.015625 49.421875 
Q 45.015625 57.28125 41.125 61.84375 
Q 37.25 66.40625 30.609375 66.40625 
Q 23.96875 66.40625 20.09375 61.84375 
Q 16.21875 57.28125 16.21875 49.421875 
Q 16.21875 41.5 20.09375 36.953125 
Q 23.96875 32.421875 30.609375 32.421875 
z
" id="DejaVuSans-57"/>
      </defs>
      <use xlink:href="#DejaVuSans-57"/>
      <use x="63.623047" xlink:href="#DejaVuSans-46"/>
      <use x="95.410156" xlink:href="#DejaVuSans-48"/>
      <use x="159.033203" xlink:href="#DejaVuSans-48"/>
      <use x="222.65625" xlink:href="#DejaVuSans-48"/>
     </g>
    </g>
   </g>
   <g id="text_34">
    <g clip-path="url(#p56fc88b90c)">
     <!-- 9.500 -->
     <g style="fill:#fde725;" transform="translate(103.199183 109.534138)rotate(-284.353962)scale(0.06 -0.06)">
      <use xlink:href="#DejaVuSans-57"/>
      <use x="63.623047" xlink:href="#DejaVuSans-46"/>
      <use x="95.410156" xlink:href="#DejaVuSans-53"/>
      <use x="159.033203" xlink:href="#DejaVuSans-48"/>
      <use x="222.65625" xlink:href="#DejaVuSans-48"/>
     </g>
    </g>
   </g>
   <g id="text_35">
    <g clip-path="url(#p56fc88b90c)">
     <!-- 10.000 -->
     <g style="fill:#440154;" transform="translate(110.916487 123.011563)rotate(-286.877956)scale(0.06 -0.06)">
      <use xlink:href="#DejaVuSans-49"/>
      <use x="63.623047" xlink:href="#DejaVuSans-48"/>
      <use x="127.246094" xlink:href="#DejaVuSans-46"/>
      <use x="159.033203" xlink:href="#DejaVuSans-48"/>
      <use x="222.65625" xlink:href="#DejaVuSans-48"/>
      <use x="286.279297" xlink:href="#DejaVuSans-48"/>
     </g>
    </g>
   </g>
   <g id="text_36">
    <g clip-path="url(#p56fc88b90c)">
     <!-- 100.000 -->
     <g style="fill:#440154;" transform="translate(78.180862 131.649281)rotate(-270)scale(0.06 -0.06)">
      <use xlink:href="#DejaVuSans-49"/>
      <use x="63.623047" xlink:href="#DejaVuSans-48"/>
      <use x="127.246094" xlink:href="#DejaVuSans-48"/>
      <use x="190.869141" xlink:href="#DejaVuSans-46"/>
      <use x="222.65625" xlink:href="#DejaVuSans-48"/>
      <use x="286.279297" xlink:href="#DejaVuSans-48"/>
      <use x="349.902344" xlink:href="#DejaVuSans-48"/>
     </g>
    </g>
   </g>
   <g id="text_37">
    <g clip-path="url(#p56fc88b90c)">
     <!-- 100.000 -->
     <g style="fill:#440154;" transform="translate(117.204378 156.461156)rotate(-89.999998)scale(0.06 -0.06)">
      <use xlink:href="#DejaVuSans-49"/>
      <use x="63.623047" xlink:href="#DejaVuSans-48"/>
      <use x="127.246094" xlink:href="#DejaVuSans-48"/>
      <use x="190.869141" xlink:href="#DejaVuSans-46"/>
      <use x="222.65625" xlink:href="#DejaVuSans-48"/>
      <use x="286.279297" xlink:href="#DejaVuSans-48"/>
      <use x="349.902344" xlink:href="#DejaVuSans-48"/>
     </g>
    </g>
   </g>
   <g id="text_38">
    <g clip-path="url(#p56fc88b90c)">
     <!-- 1000.000 -->
     <g style="fill:#440154;" transform="translate(78.180862 129.740531)rotate(-270)scale(0.06 -0.06)">
      <use xlink:href="#DejaVuSans-49"/>
      <use x="63.623047" xlink:href="#DejaVuSans-48"/>
      <use x="127.246094" xlink:href="#DejaVuSans-48"/>
      <use x="190.869141" xlink:href="#DejaVuSans-48"/>
      <use x="254.492188" xlink:href="#DejaVuSans-46"/>
      <use x="286.279297" xlink:href="#DejaVuSans-48"/>
      <use x="349.902344" xlink:href="#DejaVuSans-48"/>
      <use x="413.525391" xlink:href="#DejaVuSans-48"/>
     </g>
    </g>
   </g>
   <g id="text_39">
    <g clip-path="url(#p56fc88b90c)">
     <!-- 1000.000 -->
     <g style="fill:#440154;" transform="translate(117.2068 158.369915)rotate(-89.999695)scale(0.06 -0.06)">
      <use xlink:href="#DejaVuSans-49"/>
      <use x="63.623047" xlink:href="#DejaVuSans-48"/>
      <use x="127.246094" xlink:href="#DejaVuSans-48"/>
      <use x="190.869141" xlink:href="#DejaVuSans-48"/>
      <use x="254.492188" xlink:href="#DejaVuSans-46"/>
      <use x="286.279297" xlink:href="#DejaVuSans-48"/>
      <use x="349.902344" xlink:href="#DejaVuSans-48"/>
      <use x="413.525391" xlink:href="#DejaVuSans-48"/>
     </g>
    </g>
   </g>
   <g id="text_40">
    <g clip-path="url(#p56fc88b90c)">
     <!-- 10000.000 -->
     <g style="fill:#440154;" transform="translate(78.180854 127.831781)rotate(-270.000003)scale(0.06 -0.06)">
      <use xlink:href="#DejaVuSans-49"/>
      <use x="63.623047" xlink:href="#DejaVuSans-48"/>
      <use x="127.246094" xlink:href="#DejaVuSans-48"/>
      <use x="190.869141" xlink:href="#DejaVuSans-48"/>
      <use x="254.492188" xlink:href="#DejaVuSans-48"/>
      <use x="318.115234" xlink:href="#DejaVuSans-46"/>
      <use x="349.902344" xlink:href="#DejaVuSans-48"/>
      <use x="413.525391" xlink:href="#DejaVuSans-48"/>
      <use x="477.148438" xlink:href="#DejaVuSans-48"/>
     </g>
    </g>
   </g>
   <g id="text_41">
    <g clip-path="url(#p56fc88b90c)">
     <!-- 10000.000 -->
     <g style="fill:#440154;" transform="translate(117.222429 169.149687)rotate(-89.978122)scale(0.06 -0.06)">
      <use xlink:href="#DejaVuSans-49"/>
      <use x="63.623047" xlink:href="#DejaVuSans-48"/>
      <use x="127.246094" xlink:href="#DejaVuSans-48"/>
      <use x="190.869141" xlink:href="#DejaVuSans-48"/>
      <use x="254.492188" xlink:href="#DejaVuSans-48"/>
      <use x="318.115234" xlink:href="#DejaVuSans-46"/>
      <use x="349.902344" xlink:href="#DejaVuSans-48"/>
      <use x="413.525391" xlink:href="#DejaVuSans-48"/>
      <use x="477.148438" xlink:href="#DejaVuSans-48"/>
     </g>
    </g>
   </g>
   <g id="text_42">
    <g clip-path="url(#p56fc88b90c)">
     <!-- 100000.000 -->
     <g style="fill:#440154;" transform="translate(81.492031 153.317006)rotate(-89.999994)scale(0.06 -0.06)">
      <use xlink:href="#DejaVuSans-49"/>
      <use x="63.623047" xlink:href="#DejaVuSans-48"/>
      <use x="127.246094" xlink:href="#DejaVuSans-48"/>
      <use x="190.869141" xlink:href="#DejaVuSans-48"/>
      <use x="254.492188" xlink:href="#DejaVuSans-48"/>
      <use x="318.115234" xlink:href="#DejaVuSans-48"/>
      <use x="381.738281" xlink:href="#DejaVuSans-46"/>
      <use x="413.525391" xlink:href="#DejaVuSans-48"/>
      <use x="477.148438" xlink:href="#DejaVuSans-48"/>
      <use x="540.771484" xlink:href="#DejaVuSans-48"/>
     </g>
    </g>
   </g>
   <g id="text_43">
    <g clip-path="url(#p56fc88b90c)">
     <!-- 100000.000 -->
     <g style="fill:#440154;" transform="translate(117.38301 171.063737)rotate(-89.790577)scale(0.06 -0.06)">
      <use xlink:href="#DejaVuSans-49"/>
      <use x="63.623047" xlink:href="#DejaVuSans-48"/>
      <use x="127.246094" xlink:href="#DejaVuSans-48"/>
      <use x="190.869141" xlink:href="#DejaVuSans-48"/>
      <use x="254.492188" xlink:href="#DejaVuSans-48"/>
      <use x="318.115234" xlink:href="#DejaVuSans-48"/>
      <use x="381.738281" xlink:href="#DejaVuSans-46"/>
      <use x="413.525391" xlink:href="#DejaVuSans-48"/>
      <use x="477.148438" xlink:href="#DejaVuSans-48"/>
      <use x="540.771484" xlink:href="#DejaVuSans-48"/>
     </g>
    </g>
   </g>
   <g id="text_44">
    <g clip-path="url(#p56fc88b90c)">
     <!-- 1000000.000 -->
     <g style="fill:#450457;" transform="translate(81.491292 155.225758)rotate(-89.999939)scale(0.06 -0.06)">
      <use xlink:href="#DejaVuSans-49"/>
      <use x="63.623047" xlink:href="#DejaVuSans-48"/>
      <use x="127.246094" xlink:href="#DejaVuSans-48"/>
      <use x="190.869141" xlink:href="#DejaVuSans-48"/>
      <use x="254.492188" xlink:href="#DejaVuSans-48"/>
      <use x="318.115234" xlink:href="#DejaVuSans-48"/>
      <use x="381.738281" xlink:href="#DejaVuSans-48"/>
      <use x="445.361328" xlink:href="#DejaVuSans-46"/>
      <use x="477.148438" xlink:href="#DejaVuSans-48"/>
      <use x="540.771484" xlink:href="#DejaVuSans-48"/>
      <use x="604.394531" xlink:href="#DejaVuSans-48"/>
     </g>
    </g>
   </g>
   <g id="text_45">
    <g clip-path="url(#p56fc88b90c)">
     <!-- 1000000.000 -->
     <g style="fill:#450457;" transform="translate(119.000879 173.009924)rotate(-88.129162)scale(0.06 -0.06)">
      <use xlink:href="#DejaVuSans-49"/>
      <use x="63.623047" xlink:href="#DejaVuSans-48"/>
      <use x="127.246094" xlink:href="#DejaVuSans-48"/>
      <use x="190.869141" xlink:href="#DejaVuSans-48"/>
      <use x="254.492188" xlink:href="#DejaVuSans-48"/>
      <use x="318.115234" xlink:href="#DejaVuSans-48"/>
      <use x="381.738281" xlink:href="#DejaVuSans-48"/>
      <use x="445.361328" xlink:href="#DejaVuSans-46"/>
      <use x="477.148438" xlink:href="#DejaVuSans-48"/>
      <use x="540.771484" xlink:href="#DejaVuSans-48"/>
      <use x="604.394531" xlink:href="#DejaVuSans-48"/>
     </g>
    </g>
   </g>
   <g id="text_46">
    <g clip-path="url(#p56fc88b90c)">
     <!-- 10000000.000 -->
     <g style="fill:#482475;" transform="translate(78.17133 122.105648)rotate(-270.004038)scale(0.06 -0.06)">
      <use xlink:href="#DejaVuSans-49"/>
      <use x="63.623047" xlink:href="#DejaVuSans-48"/>
      <use x="127.246094" xlink:href="#DejaVuSans-48"/>
      <use x="190.869141" xlink:href="#DejaVuSans-48"/>
      <use x="254.492188" xlink:href="#DejaVuSans-48"/>
      <use x="318.115234" xlink:href="#DejaVuSans-48"/>
      <use x="381.738281" xlink:href="#DejaVuSans-48"/>
      <use x="445.361328" xlink:href="#DejaVuSans-48"/>
      <use x="508.984375" xlink:href="#DejaVuSans-46"/>
      <use x="540.771484" xlink:href="#DejaVuSans-48"/>
      <use x="604.394531" xlink:href="#DejaVuSans-48"/>
      <use x="668.017578" xlink:href="#DejaVuSans-48"/>
     </g>
    </g>
   </g>
   <g id="text_47">
    <g clip-path="url(#p56fc88b90c)">
     <!-- 10000000.000 -->
     <g style="fill:#482475;" transform="translate(128.716231 174.901351)rotate(-88.977697)scale(0.06 -0.06)">
      <use xlink:href="#DejaVuSans-49"/>
      <use x="63.623047" xlink:href="#DejaVuSans-48"/>
      <use x="127.246094" xlink:href="#DejaVuSans-48"/>
      <use x="190.869141" xlink:href="#DejaVuSans-48"/>
      <use x="254.492188" xlink:href="#DejaVuSans-48"/>
      <use x="318.115234" xlink:href="#DejaVuSans-48"/>
      <use x="381.738281" xlink:href="#DejaVuSans-48"/>
      <use x="445.361328" xlink:href="#DejaVuSans-48"/>
      <use x="508.984375" xlink:href="#DejaVuSans-46"/>
      <use x="540.771484" xlink:href="#DejaVuSans-48"/>
      <use x="604.394531" xlink:href="#DejaVuSans-48"/>
      <use x="668.017578" xlink:href="#DejaVuSans-48"/>
     </g>
    </g>
   </g>
   <g id="text_48">
    <g clip-path="url(#p56fc88b90c)">
     <!-- 100000000.000 -->
     <g style="fill:#fde725;" transform="translate(78.083603 120.197995)rotate(-270.041801)scale(0.06 -0.06)">
      <use xlink:href="#DejaVuSans-49"/>
      <use x="63.623047" xlink:href="#DejaVuSans-48"/>
      <use x="127.246094" xlink:href="#DejaVuSans-48"/>
      <use x="190.869141" xlink:href="#DejaVuSans-48"/>
      <use x="254.492188" xlink:href="#DejaVuSans-48"/>
      <use x="318.115234" xlink:href="#DejaVuSans-48"/>
      <use x="381.738281" xlink:href="#DejaVuSans-48"/>
      <use x="445.361328" xlink:href="#DejaVuSans-48"/>
      <use x="508.984375" xlink:href="#DejaVuSans-48"/>
      <use x="572.607422" xlink:href="#DejaVuSans-46"/>
      <use x="604.394531" xlink:href="#DejaVuSans-48"/>
      <use x="668.017578" xlink:href="#DejaVuSans-48"/>
      <use x="731.640625" xlink:href="#DejaVuSans-48"/>
     </g>
    </g>
   </g>
   <g id="text_49">
    <g clip-path="url(#p56fc88b90c)">
     <!-- 100000000.000 -->
     <g style="fill:#fde725;" transform="translate(125.796862 120.196781)rotate(-270)scale(0.06 -0.06)">
      <use xlink:href="#DejaVuSans-49"/>
      <use x="63.623047" xlink:href="#DejaVuSans-48"/>
      <use x="127.246094" xlink:href="#DejaVuSans-48"/>
      <use x="190.869141" xlink:href="#DejaVuSans-48"/>
      <use x="254.492188" xlink:href="#DejaVuSans-48"/>
      <use x="318.115234" xlink:href="#DejaVuSans-48"/>
      <use x="381.738281" xlink:href="#DejaVuSans-48"/>
      <use x="445.361328" xlink:href="#DejaVuSans-48"/>
      <use x="508.984375" xlink:href="#DejaVuSans-48"/>
      <use x="572.607422" xlink:href="#DejaVuSans-46"/>
      <use x="604.394531" xlink:href="#DejaVuSans-48"/>
      <use x="668.017578" xlink:href="#DejaVuSans-48"/>
      <use x="731.640625" xlink:href="#DejaVuSans-48"/>
     </g>
    </g>
   </g>
  </g>
 </g>
 <defs>
  <clipPath id="p56fc88b90c">
   <rect height="266.112" width="357.12" x="56.028488" y="10.999219"/>
  </clipPath>
 </defs>
</svg>
