<?xml version="1.0" encoding="utf-8" standalone="no"?>
<!DOCTYPE svg PUBLIC "-//W3C//DTD SVG 1.1//EN"
  "http://www.w3.org/Graphics/SVG/1.1/DTD/svg11.dtd">
<!-- Created with matplotlib (https://matplotlib.org/) -->
<svg height="321.713144pt" version="1.1" viewBox="0 0 420.348488 321.713144" width="420.348488pt" xmlns="http://www.w3.org/2000/svg" xmlns:xlink="http://www.w3.org/1999/xlink">
 <metadata>
  <rdf:RDF xmlns:cc="http://creativecommons.org/ns#" xmlns:dc="http://purl.org/dc/elements/1.1/" xmlns:rdf="http://www.w3.org/1999/02/22-rdf-syntax-ns#">
   <cc:Work>
    <dc:type rdf:resource="http://purl.org/dc/dcmitype/StillImage"/>
    <dc:date>2021-09-17T13:42:56.056985</dc:date>
    <dc:format>image/svg+xml</dc:format>
    <dc:creator>
     <cc:Agent>
      <dc:title>Matplotlib v3.3.1, https://matplotlib.org/</dc:title>
     </cc:Agent>
    </dc:creator>
   </cc:Work>
  </rdf:RDF>
 </metadata>
 <defs>
  <style type="text/css">*{stroke-linecap:butt;stroke-linejoin:round;}</style>
 </defs>
 <g id="figure_1">
  <g id="patch_1">
   <path d="M 0 321.713144 
L 420.348488 321.713144 
L 420.348488 0 
L 0 0 
z
" style="fill:#ffffff;"/>
  </g>
  <g id="axes_1">
   <g id="patch_2">
    <path d="M 49.665988 277.111219 
L 406.785988 277.111219 
L 406.785988 10.999219 
L 49.665988 10.999219 
z
" style="fill:#ffffff;"/>
   </g>
   <g id="matplotlib.axis_1">
    <g id="xtick_1">
     <g id="line2d_1">
      <defs>
       <path d="M 0 0 
L 0 3.5 
" id="m2864132db7" style="stroke:#000000;stroke-width:0.8;"/>
      </defs>
      <g>
       <use style="stroke:#000000;stroke-width:0.8;" x="49.665988" xlink:href="#m2864132db7" y="277.111219"/>
      </g>
     </g>
     <g id="text_1">
      <!-- −10 -->
      <g transform="translate(39.113644 291.709656)scale(0.1 -0.1)">
       <defs>
        <path d="M 10.59375 35.5 
L 73.1875 35.5 
L 73.1875 27.203125 
L 10.59375 27.203125 
z
" id="DejaVuSans-8722"/>
        <path d="M 12.40625 8.296875 
L 28.515625 8.296875 
L 28.515625 63.921875 
L 10.984375 60.40625 
L 10.984375 69.390625 
L 28.421875 72.90625 
L 38.28125 72.90625 
L 38.28125 8.296875 
L 54.390625 8.296875 
L 54.390625 0 
L 12.40625 0 
z
" id="DejaVuSans-49"/>
        <path d="M 31.78125 66.40625 
Q 24.171875 66.40625 20.328125 58.90625 
Q 16.5 51.421875 16.5 36.375 
Q 16.5 21.390625 20.328125 13.890625 
Q 24.171875 6.390625 31.78125 6.390625 
Q 39.453125 6.390625 43.28125 13.890625 
Q 47.125 21.390625 47.125 36.375 
Q 47.125 51.421875 43.28125 58.90625 
Q 39.453125 66.40625 31.78125 66.40625 
z
M 31.78125 74.21875 
Q 44.046875 74.21875 50.515625 64.515625 
Q 56.984375 54.828125 56.984375 36.375 
Q 56.984375 17.96875 50.515625 8.265625 
Q 44.046875 -1.421875 31.78125 -1.421875 
Q 19.53125 -1.421875 13.0625 8.265625 
Q 6.59375 17.96875 6.59375 36.375 
Q 6.59375 54.828125 13.0625 64.515625 
Q 19.53125 74.21875 31.78125 74.21875 
z
" id="DejaVuSans-48"/>
       </defs>
       <use xlink:href="#DejaVuSans-8722"/>
       <use x="83.789062" xlink:href="#DejaVuSans-49"/>
       <use x="147.412109" xlink:href="#DejaVuSans-48"/>
      </g>
     </g>
    </g>
    <g id="xtick_2">
     <g id="line2d_2">
      <g>
       <use style="stroke:#000000;stroke-width:0.8;" x="109.185988" xlink:href="#m2864132db7" y="277.111219"/>
      </g>
     </g>
     <g id="text_2">
      <!-- 0 -->
      <g transform="translate(106.004738 291.709656)scale(0.1 -0.1)">
       <use xlink:href="#DejaVuSans-48"/>
      </g>
     </g>
    </g>
    <g id="xtick_3">
     <g id="line2d_3">
      <g>
       <use style="stroke:#000000;stroke-width:0.8;" x="168.705987" xlink:href="#m2864132db7" y="277.111219"/>
      </g>
     </g>
     <g id="text_3">
      <!-- 10 -->
      <g transform="translate(162.343487 291.709656)scale(0.1 -0.1)">
       <use xlink:href="#DejaVuSans-49"/>
       <use x="63.623047" xlink:href="#DejaVuSans-48"/>
      </g>
     </g>
    </g>
    <g id="xtick_4">
     <g id="line2d_4">
      <g>
       <use style="stroke:#000000;stroke-width:0.8;" x="228.225988" xlink:href="#m2864132db7" y="277.111219"/>
      </g>
     </g>
     <g id="text_4">
      <!-- 20 -->
      <g transform="translate(221.863487 291.709656)scale(0.1 -0.1)">
       <defs>
        <path d="M 19.1875 8.296875 
L 53.609375 8.296875 
L 53.609375 0 
L 7.328125 0 
L 7.328125 8.296875 
Q 12.9375 14.109375 22.625 23.890625 
Q 32.328125 33.6875 34.8125 36.53125 
Q 39.546875 41.84375 41.421875 45.53125 
Q 43.3125 49.21875 43.3125 52.78125 
Q 43.3125 58.59375 39.234375 62.25 
Q 35.15625 65.921875 28.609375 65.921875 
Q 23.96875 65.921875 18.8125 64.3125 
Q 13.671875 62.703125 7.8125 59.421875 
L 7.8125 69.390625 
Q 13.765625 71.78125 18.9375 73 
Q 24.125 74.21875 28.421875 74.21875 
Q 39.75 74.21875 46.484375 68.546875 
Q 53.21875 62.890625 53.21875 53.421875 
Q 53.21875 48.921875 51.53125 44.890625 
Q 49.859375 40.875 45.40625 35.40625 
Q 44.1875 33.984375 37.640625 27.21875 
Q 31.109375 20.453125 19.1875 8.296875 
z
" id="DejaVuSans-50"/>
       </defs>
       <use xlink:href="#DejaVuSans-50"/>
       <use x="63.623047" xlink:href="#DejaVuSans-48"/>
      </g>
     </g>
    </g>
    <g id="xtick_5">
     <g id="line2d_5">
      <g>
       <use style="stroke:#000000;stroke-width:0.8;" x="287.745988" xlink:href="#m2864132db7" y="277.111219"/>
      </g>
     </g>
     <g id="text_5">
      <!-- 30 -->
      <g transform="translate(281.383488 291.709656)scale(0.1 -0.1)">
       <defs>
        <path d="M 40.578125 39.3125 
Q 47.65625 37.796875 51.625 33 
Q 55.609375 28.21875 55.609375 21.1875 
Q 55.609375 10.40625 48.1875 4.484375 
Q 40.765625 -1.421875 27.09375 -1.421875 
Q 22.515625 -1.421875 17.65625 -0.515625 
Q 12.796875 0.390625 7.625 2.203125 
L 7.625 11.71875 
Q 11.71875 9.328125 16.59375 8.109375 
Q 21.484375 6.890625 26.8125 6.890625 
Q 36.078125 6.890625 40.9375 10.546875 
Q 45.796875 14.203125 45.796875 21.1875 
Q 45.796875 27.640625 41.28125 31.265625 
Q 36.765625 34.90625 28.71875 34.90625 
L 20.21875 34.90625 
L 20.21875 43.015625 
L 29.109375 43.015625 
Q 36.375 43.015625 40.234375 45.921875 
Q 44.09375 48.828125 44.09375 54.296875 
Q 44.09375 59.90625 40.109375 62.90625 
Q 36.140625 65.921875 28.71875 65.921875 
Q 24.65625 65.921875 20.015625 65.03125 
Q 15.375 64.15625 9.8125 62.3125 
L 9.8125 71.09375 
Q 15.4375 72.65625 20.34375 73.4375 
Q 25.25 74.21875 29.59375 74.21875 
Q 40.828125 74.21875 47.359375 69.109375 
Q 53.90625 64.015625 53.90625 55.328125 
Q 53.90625 49.265625 50.4375 45.09375 
Q 46.96875 40.921875 40.578125 39.3125 
z
" id="DejaVuSans-51"/>
       </defs>
       <use xlink:href="#DejaVuSans-51"/>
       <use x="63.623047" xlink:href="#DejaVuSans-48"/>
      </g>
     </g>
    </g>
    <g id="xtick_6">
     <g id="line2d_6">
      <g>
       <use style="stroke:#000000;stroke-width:0.8;" x="347.265987" xlink:href="#m2864132db7" y="277.111219"/>
      </g>
     </g>
     <g id="text_6">
      <!-- 40 -->
      <g transform="translate(340.903487 291.709656)scale(0.1 -0.1)">
       <defs>
        <path d="M 37.796875 64.3125 
L 12.890625 25.390625 
L 37.796875 25.390625 
z
M 35.203125 72.90625 
L 47.609375 72.90625 
L 47.609375 25.390625 
L 58.015625 25.390625 
L 58.015625 17.1875 
L 47.609375 17.1875 
L 47.609375 0 
L 37.796875 0 
L 37.796875 17.1875 
L 4.890625 17.1875 
L 4.890625 26.703125 
z
" id="DejaVuSans-52"/>
       </defs>
       <use xlink:href="#DejaVuSans-52"/>
       <use x="63.623047" xlink:href="#DejaVuSans-48"/>
      </g>
     </g>
    </g>
    <g id="xtick_7">
     <g id="line2d_7">
      <g>
       <use style="stroke:#000000;stroke-width:0.8;" x="406.785988" xlink:href="#m2864132db7" y="277.111219"/>
      </g>
     </g>
     <g id="text_7">
      <!-- 50 -->
      <g transform="translate(400.423488 291.709656)scale(0.1 -0.1)">
       <defs>
        <path d="M 10.796875 72.90625 
L 49.515625 72.90625 
L 49.515625 64.59375 
L 19.828125 64.59375 
L 19.828125 46.734375 
Q 21.96875 47.46875 24.109375 47.828125 
Q 26.265625 48.1875 28.421875 48.1875 
Q 40.625 48.1875 47.75 41.5 
Q 54.890625 34.8125 54.890625 23.390625 
Q 54.890625 11.625 47.5625 5.09375 
Q 40.234375 -1.421875 26.90625 -1.421875 
Q 22.3125 -1.421875 17.546875 -0.640625 
Q 12.796875 0.140625 7.71875 1.703125 
L 7.71875 11.625 
Q 12.109375 9.234375 16.796875 8.0625 
Q 21.484375 6.890625 26.703125 6.890625 
Q 35.15625 6.890625 40.078125 11.328125 
Q 45.015625 15.765625 45.015625 23.390625 
Q 45.015625 31 40.078125 35.4375 
Q 35.15625 39.890625 26.703125 39.890625 
Q 22.75 39.890625 18.8125 39.015625 
Q 14.890625 38.140625 10.796875 36.28125 
z
" id="DejaVuSans-53"/>
       </defs>
       <use xlink:href="#DejaVuSans-53"/>
       <use x="63.623047" xlink:href="#DejaVuSans-48"/>
      </g>
     </g>
    </g>
    <g id="text_8">
     <!-- 1st PC: 88.90 % -->
     <g transform="translate(159.505587 310.919444)scale(0.1728 -0.1728)">
      <defs>
       <path d="M 44.28125 53.078125 
L 44.28125 44.578125 
Q 40.484375 46.53125 36.375 47.5 
Q 32.28125 48.484375 27.875 48.484375 
Q 21.1875 48.484375 17.84375 46.4375 
Q 14.5 44.390625 14.5 40.28125 
Q 14.5 37.15625 16.890625 35.375 
Q 19.28125 33.59375 26.515625 31.984375 
L 29.59375 31.296875 
Q 39.15625 29.25 43.1875 25.515625 
Q 47.21875 21.78125 47.21875 15.09375 
Q 47.21875 7.46875 41.1875 3.015625 
Q 35.15625 -1.421875 24.609375 -1.421875 
Q 20.21875 -1.421875 15.453125 -0.5625 
Q 10.6875 0.296875 5.421875 2 
L 5.421875 11.28125 
Q 10.40625 8.6875 15.234375 7.390625 
Q 20.0625 6.109375 24.8125 6.109375 
Q 31.15625 6.109375 34.5625 8.28125 
Q 37.984375 10.453125 37.984375 14.40625 
Q 37.984375 18.0625 35.515625 20.015625 
Q 33.0625 21.96875 24.703125 23.78125 
L 21.578125 24.515625 
Q 13.234375 26.265625 9.515625 29.90625 
Q 5.8125 33.546875 5.8125 39.890625 
Q 5.8125 47.609375 11.28125 51.796875 
Q 16.75 56 26.8125 56 
Q 31.78125 56 36.171875 55.265625 
Q 40.578125 54.546875 44.28125 53.078125 
z
" id="DejaVuSans-115"/>
       <path d="M 18.3125 70.21875 
L 18.3125 54.6875 
L 36.8125 54.6875 
L 36.8125 47.703125 
L 18.3125 47.703125 
L 18.3125 18.015625 
Q 18.3125 11.328125 20.140625 9.421875 
Q 21.96875 7.515625 27.59375 7.515625 
L 36.8125 7.515625 
L 36.8125 0 
L 27.59375 0 
Q 17.1875 0 13.234375 3.875 
Q 9.28125 7.765625 9.28125 18.015625 
L 9.28125 47.703125 
L 2.6875 47.703125 
L 2.6875 54.6875 
L 9.28125 54.6875 
L 9.28125 70.21875 
z
" id="DejaVuSans-116"/>
       <path id="DejaVuSans-32"/>
       <path d="M 19.671875 64.796875 
L 19.671875 37.40625 
L 32.078125 37.40625 
Q 38.96875 37.40625 42.71875 40.96875 
Q 46.484375 44.53125 46.484375 51.125 
Q 46.484375 57.671875 42.71875 61.234375 
Q 38.96875 64.796875 32.078125 64.796875 
z
M 9.8125 72.90625 
L 32.078125 72.90625 
Q 44.34375 72.90625 50.609375 67.359375 
Q 56.890625 61.8125 56.890625 51.125 
Q 56.890625 40.328125 50.609375 34.8125 
Q 44.34375 29.296875 32.078125 29.296875 
L 19.671875 29.296875 
L 19.671875 0 
L 9.8125 0 
z
" id="DejaVuSans-80"/>
       <path d="M 64.40625 67.28125 
L 64.40625 56.890625 
Q 59.421875 61.53125 53.78125 63.8125 
Q 48.140625 66.109375 41.796875 66.109375 
Q 29.296875 66.109375 22.65625 58.46875 
Q 16.015625 50.828125 16.015625 36.375 
Q 16.015625 21.96875 22.65625 14.328125 
Q 29.296875 6.6875 41.796875 6.6875 
Q 48.140625 6.6875 53.78125 8.984375 
Q 59.421875 11.28125 64.40625 15.921875 
L 64.40625 5.609375 
Q 59.234375 2.09375 53.4375 0.328125 
Q 47.65625 -1.421875 41.21875 -1.421875 
Q 24.65625 -1.421875 15.125 8.703125 
Q 5.609375 18.84375 5.609375 36.375 
Q 5.609375 53.953125 15.125 64.078125 
Q 24.65625 74.21875 41.21875 74.21875 
Q 47.75 74.21875 53.53125 72.484375 
Q 59.328125 70.75 64.40625 67.28125 
z
" id="DejaVuSans-67"/>
       <path d="M 11.71875 12.40625 
L 22.015625 12.40625 
L 22.015625 0 
L 11.71875 0 
z
M 11.71875 51.703125 
L 22.015625 51.703125 
L 22.015625 39.3125 
L 11.71875 39.3125 
z
" id="DejaVuSans-58"/>
       <path d="M 31.78125 34.625 
Q 24.75 34.625 20.71875 30.859375 
Q 16.703125 27.09375 16.703125 20.515625 
Q 16.703125 13.921875 20.71875 10.15625 
Q 24.75 6.390625 31.78125 6.390625 
Q 38.8125 6.390625 42.859375 10.171875 
Q 46.921875 13.96875 46.921875 20.515625 
Q 46.921875 27.09375 42.890625 30.859375 
Q 38.875 34.625 31.78125 34.625 
z
M 21.921875 38.8125 
Q 15.578125 40.375 12.03125 44.71875 
Q 8.5 49.078125 8.5 55.328125 
Q 8.5 64.0625 14.71875 69.140625 
Q 20.953125 74.21875 31.78125 74.21875 
Q 42.671875 74.21875 48.875 69.140625 
Q 55.078125 64.0625 55.078125 55.328125 
Q 55.078125 49.078125 51.53125 44.71875 
Q 48 40.375 41.703125 38.8125 
Q 48.828125 37.15625 52.796875 32.3125 
Q 56.78125 27.484375 56.78125 20.515625 
Q 56.78125 9.90625 50.3125 4.234375 
Q 43.84375 -1.421875 31.78125 -1.421875 
Q 19.734375 -1.421875 13.25 4.234375 
Q 6.78125 9.90625 6.78125 20.515625 
Q 6.78125 27.484375 10.78125 32.3125 
Q 14.796875 37.15625 21.921875 38.8125 
z
M 18.3125 54.390625 
Q 18.3125 48.734375 21.84375 45.5625 
Q 25.390625 42.390625 31.78125 42.390625 
Q 38.140625 42.390625 41.71875 45.5625 
Q 45.3125 48.734375 45.3125 54.390625 
Q 45.3125 60.0625 41.71875 63.234375 
Q 38.140625 66.40625 31.78125 66.40625 
Q 25.390625 66.40625 21.84375 63.234375 
Q 18.3125 60.0625 18.3125 54.390625 
z
" id="DejaVuSans-56"/>
       <path d="M 10.6875 12.40625 
L 21 12.40625 
L 21 0 
L 10.6875 0 
z
" id="DejaVuSans-46"/>
       <path d="M 10.984375 1.515625 
L 10.984375 10.5 
Q 14.703125 8.734375 18.5 7.8125 
Q 22.3125 6.890625 25.984375 6.890625 
Q 35.75 6.890625 40.890625 13.453125 
Q 46.046875 20.015625 46.78125 33.40625 
Q 43.953125 29.203125 39.59375 26.953125 
Q 35.25 24.703125 29.984375 24.703125 
Q 19.046875 24.703125 12.671875 31.3125 
Q 6.296875 37.9375 6.296875 49.421875 
Q 6.296875 60.640625 12.9375 67.421875 
Q 19.578125 74.21875 30.609375 74.21875 
Q 43.265625 74.21875 49.921875 64.515625 
Q 56.59375 54.828125 56.59375 36.375 
Q 56.59375 19.140625 48.40625 8.859375 
Q 40.234375 -1.421875 26.421875 -1.421875 
Q 22.703125 -1.421875 18.890625 -0.6875 
Q 15.09375 0.046875 10.984375 1.515625 
z
M 30.609375 32.421875 
Q 37.25 32.421875 41.125 36.953125 
Q 45.015625 41.5 45.015625 49.421875 
Q 45.015625 57.28125 41.125 61.84375 
Q 37.25 66.40625 30.609375 66.40625 
Q 23.96875 66.40625 20.09375 61.84375 
Q 16.21875 57.28125 16.21875 49.421875 
Q 16.21875 41.5 20.09375 36.953125 
Q 23.96875 32.421875 30.609375 32.421875 
z
" id="DejaVuSans-57"/>
       <path d="M 72.703125 32.078125 
Q 68.453125 32.078125 66.03125 28.46875 
Q 63.625 24.859375 63.625 18.40625 
Q 63.625 12.0625 66.03125 8.421875 
Q 68.453125 4.78125 72.703125 4.78125 
Q 76.859375 4.78125 79.265625 8.421875 
Q 81.6875 12.0625 81.6875 18.40625 
Q 81.6875 24.8125 79.265625 28.4375 
Q 76.859375 32.078125 72.703125 32.078125 
z
M 72.703125 38.28125 
Q 80.421875 38.28125 84.953125 32.90625 
Q 89.5 27.546875 89.5 18.40625 
Q 89.5 9.28125 84.9375 3.921875 
Q 80.375 -1.421875 72.703125 -1.421875 
Q 64.890625 -1.421875 60.34375 3.921875 
Q 55.8125 9.28125 55.8125 18.40625 
Q 55.8125 27.59375 60.375 32.9375 
Q 64.9375 38.28125 72.703125 38.28125 
z
M 22.3125 68.015625 
Q 18.109375 68.015625 15.6875 64.375 
Q 13.28125 60.75 13.28125 54.390625 
Q 13.28125 47.953125 15.671875 44.328125 
Q 18.0625 40.71875 22.3125 40.71875 
Q 26.5625 40.71875 28.96875 44.328125 
Q 31.390625 47.953125 31.390625 54.390625 
Q 31.390625 60.6875 28.953125 64.34375 
Q 26.515625 68.015625 22.3125 68.015625 
z
M 66.40625 74.21875 
L 74.21875 74.21875 
L 28.609375 -1.421875 
L 20.796875 -1.421875 
z
M 22.3125 74.21875 
Q 30.03125 74.21875 34.609375 68.875 
Q 39.203125 63.53125 39.203125 54.390625 
Q 39.203125 45.171875 34.640625 39.84375 
Q 30.078125 34.515625 22.3125 34.515625 
Q 14.546875 34.515625 10.03125 39.859375 
Q 5.515625 45.21875 5.515625 54.390625 
Q 5.515625 63.484375 10.046875 68.84375 
Q 14.59375 74.21875 22.3125 74.21875 
z
" id="DejaVuSans-37"/>
      </defs>
      <use xlink:href="#DejaVuSans-49"/>
      <use x="63.623047" xlink:href="#DejaVuSans-115"/>
      <use x="115.722656" xlink:href="#DejaVuSans-116"/>
      <use x="154.931641" xlink:href="#DejaVuSans-32"/>
      <use x="186.71875" xlink:href="#DejaVuSans-80"/>
      <use x="247.021484" xlink:href="#DejaVuSans-67"/>
      <use x="316.845703" xlink:href="#DejaVuSans-58"/>
      <use x="350.537109" xlink:href="#DejaVuSans-32"/>
      <use x="382.324219" xlink:href="#DejaVuSans-56"/>
      <use x="445.947266" xlink:href="#DejaVuSans-56"/>
      <use x="509.570312" xlink:href="#DejaVuSans-46"/>
      <use x="541.357422" xlink:href="#DejaVuSans-57"/>
      <use x="604.980469" xlink:href="#DejaVuSans-48"/>
      <use x="668.603516" xlink:href="#DejaVuSans-32"/>
      <use x="700.390625" xlink:href="#DejaVuSans-37"/>
     </g>
    </g>
   </g>
   <g id="matplotlib.axis_2">
    <g id="ytick_1">
     <g id="line2d_8">
      <defs>
       <path d="M 0 0 
L -3.5 0 
" id="mda92d6cdde" style="stroke:#000000;stroke-width:0.8;"/>
      </defs>
      <g>
       <use style="stroke:#000000;stroke-width:0.8;" x="49.665988" xlink:href="#mda92d6cdde" y="259.370419"/>
      </g>
     </g>
     <g id="text_9">
      <!-- −4 -->
      <g transform="translate(27.9238 263.169637)scale(0.1 -0.1)">
       <use xlink:href="#DejaVuSans-8722"/>
       <use x="83.789062" xlink:href="#DejaVuSans-52"/>
      </g>
     </g>
    </g>
    <g id="ytick_2">
     <g id="line2d_9">
      <g>
       <use style="stroke:#000000;stroke-width:0.8;" x="49.665988" xlink:href="#mda92d6cdde" y="223.888819"/>
      </g>
     </g>
     <g id="text_10">
      <!-- −2 -->
      <g transform="translate(27.9238 227.688037)scale(0.1 -0.1)">
       <use xlink:href="#DejaVuSans-8722"/>
       <use x="83.789062" xlink:href="#DejaVuSans-50"/>
      </g>
     </g>
    </g>
    <g id="ytick_3">
     <g id="line2d_10">
      <g>
       <use style="stroke:#000000;stroke-width:0.8;" x="49.665988" xlink:href="#mda92d6cdde" y="188.407219"/>
      </g>
     </g>
     <g id="text_11">
      <!-- 0 -->
      <g transform="translate(36.303488 192.206437)scale(0.1 -0.1)">
       <use xlink:href="#DejaVuSans-48"/>
      </g>
     </g>
    </g>
    <g id="ytick_4">
     <g id="line2d_11">
      <g>
       <use style="stroke:#000000;stroke-width:0.8;" x="49.665988" xlink:href="#mda92d6cdde" y="152.925619"/>
      </g>
     </g>
     <g id="text_12">
      <!-- 2 -->
      <g transform="translate(36.303488 156.724837)scale(0.1 -0.1)">
       <use xlink:href="#DejaVuSans-50"/>
      </g>
     </g>
    </g>
    <g id="ytick_5">
     <g id="line2d_12">
      <g>
       <use style="stroke:#000000;stroke-width:0.8;" x="49.665988" xlink:href="#mda92d6cdde" y="117.444019"/>
      </g>
     </g>
     <g id="text_13">
      <!-- 4 -->
      <g transform="translate(36.303488 121.243237)scale(0.1 -0.1)">
       <use xlink:href="#DejaVuSans-52"/>
      </g>
     </g>
    </g>
    <g id="ytick_6">
     <g id="line2d_13">
      <g>
       <use style="stroke:#000000;stroke-width:0.8;" x="49.665988" xlink:href="#mda92d6cdde" y="81.962419"/>
      </g>
     </g>
     <g id="text_14">
      <!-- 6 -->
      <g transform="translate(36.303488 85.761637)scale(0.1 -0.1)">
       <defs>
        <path d="M 33.015625 40.375 
Q 26.375 40.375 22.484375 35.828125 
Q 18.609375 31.296875 18.609375 23.390625 
Q 18.609375 15.53125 22.484375 10.953125 
Q 26.375 6.390625 33.015625 6.390625 
Q 39.65625 6.390625 43.53125 10.953125 
Q 47.40625 15.53125 47.40625 23.390625 
Q 47.40625 31.296875 43.53125 35.828125 
Q 39.65625 40.375 33.015625 40.375 
z
M 52.59375 71.296875 
L 52.59375 62.3125 
Q 48.875 64.0625 45.09375 64.984375 
Q 41.3125 65.921875 37.59375 65.921875 
Q 27.828125 65.921875 22.671875 59.328125 
Q 17.53125 52.734375 16.796875 39.40625 
Q 19.671875 43.65625 24.015625 45.921875 
Q 28.375 48.1875 33.59375 48.1875 
Q 44.578125 48.1875 50.953125 41.515625 
Q 57.328125 34.859375 57.328125 23.390625 
Q 57.328125 12.15625 50.6875 5.359375 
Q 44.046875 -1.421875 33.015625 -1.421875 
Q 20.359375 -1.421875 13.671875 8.265625 
Q 6.984375 17.96875 6.984375 36.375 
Q 6.984375 53.65625 15.1875 63.9375 
Q 23.390625 74.21875 37.203125 74.21875 
Q 40.921875 74.21875 44.703125 73.484375 
Q 48.484375 72.75 52.59375 71.296875 
z
" id="DejaVuSans-54"/>
       </defs>
       <use xlink:href="#DejaVuSans-54"/>
      </g>
     </g>
    </g>
    <g id="ytick_7">
     <g id="line2d_14">
      <g>
       <use style="stroke:#000000;stroke-width:0.8;" x="49.665988" xlink:href="#mda92d6cdde" y="46.480819"/>
      </g>
     </g>
     <g id="text_15">
      <!-- 8 -->
      <g transform="translate(36.303488 50.280037)scale(0.1 -0.1)">
       <use xlink:href="#DejaVuSans-56"/>
      </g>
     </g>
    </g>
    <g id="ytick_8">
     <g id="line2d_15">
      <g>
       <use style="stroke:#000000;stroke-width:0.8;" x="49.665988" xlink:href="#mda92d6cdde" y="10.999219"/>
      </g>
     </g>
     <g id="text_16">
      <!-- 10 -->
      <g transform="translate(29.940988 14.798437)scale(0.1 -0.1)">
       <use xlink:href="#DejaVuSans-49"/>
       <use x="63.623047" xlink:href="#DejaVuSans-48"/>
      </g>
     </g>
    </g>
    <g id="text_17">
     <!-- 2nd PC: 7.69 % -->
     <g transform="translate(20.3301 210.351019)rotate(-90)scale(0.1728 -0.1728)">
      <defs>
       <path d="M 54.890625 33.015625 
L 54.890625 0 
L 45.90625 0 
L 45.90625 32.71875 
Q 45.90625 40.484375 42.875 44.328125 
Q 39.84375 48.1875 33.796875 48.1875 
Q 26.515625 48.1875 22.3125 43.546875 
Q 18.109375 38.921875 18.109375 30.90625 
L 18.109375 0 
L 9.078125 0 
L 9.078125 54.6875 
L 18.109375 54.6875 
L 18.109375 46.1875 
Q 21.34375 51.125 25.703125 53.5625 
Q 30.078125 56 35.796875 56 
Q 45.21875 56 50.046875 50.171875 
Q 54.890625 44.34375 54.890625 33.015625 
z
" id="DejaVuSans-110"/>
       <path d="M 45.40625 46.390625 
L 45.40625 75.984375 
L 54.390625 75.984375 
L 54.390625 0 
L 45.40625 0 
L 45.40625 8.203125 
Q 42.578125 3.328125 38.25 0.953125 
Q 33.9375 -1.421875 27.875 -1.421875 
Q 17.96875 -1.421875 11.734375 6.484375 
Q 5.515625 14.40625 5.515625 27.296875 
Q 5.515625 40.1875 11.734375 48.09375 
Q 17.96875 56 27.875 56 
Q 33.9375 56 38.25 53.625 
Q 42.578125 51.265625 45.40625 46.390625 
z
M 14.796875 27.296875 
Q 14.796875 17.390625 18.875 11.75 
Q 22.953125 6.109375 30.078125 6.109375 
Q 37.203125 6.109375 41.296875 11.75 
Q 45.40625 17.390625 45.40625 27.296875 
Q 45.40625 37.203125 41.296875 42.84375 
Q 37.203125 48.484375 30.078125 48.484375 
Q 22.953125 48.484375 18.875 42.84375 
Q 14.796875 37.203125 14.796875 27.296875 
z
" id="DejaVuSans-100"/>
       <path d="M 8.203125 72.90625 
L 55.078125 72.90625 
L 55.078125 68.703125 
L 28.609375 0 
L 18.3125 0 
L 43.21875 64.59375 
L 8.203125 64.59375 
z
" id="DejaVuSans-55"/>
      </defs>
      <use xlink:href="#DejaVuSans-50"/>
      <use x="63.623047" xlink:href="#DejaVuSans-110"/>
      <use x="127.001953" xlink:href="#DejaVuSans-100"/>
      <use x="190.478516" xlink:href="#DejaVuSans-32"/>
      <use x="222.265625" xlink:href="#DejaVuSans-80"/>
      <use x="282.568359" xlink:href="#DejaVuSans-67"/>
      <use x="352.392578" xlink:href="#DejaVuSans-58"/>
      <use x="386.083984" xlink:href="#DejaVuSans-32"/>
      <use x="417.871094" xlink:href="#DejaVuSans-55"/>
      <use x="481.494141" xlink:href="#DejaVuSans-46"/>
      <use x="513.28125" xlink:href="#DejaVuSans-54"/>
      <use x="576.904297" xlink:href="#DejaVuSans-57"/>
      <use x="640.527344" xlink:href="#DejaVuSans-32"/>
      <use x="672.314453" xlink:href="#DejaVuSans-37"/>
     </g>
    </g>
   </g>
   <g id="LineCollection_1"/>
   <g id="LineCollection_2"/>
   <g id="LineCollection_3"/>
   <g id="LineCollection_4"/>
   <g id="LineCollection_5"/>
   <g id="LineCollection_6">
    <path clip-path="url(#p07a4598482)" d="M 183.627465 277.111219 
L 180.609988 275.141098 
L 169.461379 268.240819 
L 168.705987 267.720572 
L 156.801987 259.876608 
L 155.969947 259.370419 
L 144.897987 251.951822 
L 142.348606 250.500019 
L 132.993988 244.542391 
L 125.886739 241.629619 
L 121.089988 239.196572 
L 116.116036 237.310576 
" style="fill:none;stroke:#39558c;stroke-width:1.5;"/>
    <path clip-path="url(#p07a4598482)" d="M 94.2879 225.456788 
L 92.876425 223.888819 
L 87.113969 215.018419 
L 85.377988 209.95855 
L 85.068069 206.148019 
L 85.120797 197.277619 
L 85.377988 194.187927 
L 87.221562 188.407219 
L 92.122911 179.536819 
L 96.593508 170.666419 
L 97.281988 169.269583 
L 104.795655 161.796019 
L 109.076129 152.925619 
L 109.185988 152.683371 
L 117.58321 144.055219 
L 120.495312 135.184819 
L 121.089988 133.011909 
L 127.918641 126.314419 
L 131.358418 117.444019 
L 132.428648 108.573619 
L 132.860825 99.703219 
L 132.993988 96.239408 
L 137.98632 90.832819 
L 142.605294 81.962419 
L 144.110975 73.092019 
L 144.635275 64.221619 
L 144.833889 55.351219 
L 144.897987 50.934805 
L 149.375887 46.480819 
L 154.706729 37.610419 
L 156.2101 28.740019 
L 156.637761 19.869619 
L 156.752684 10.999219 
" style="fill:none;stroke:#39558c;stroke-width:1.5;"/>
    <path clip-path="url(#p07a4598482)" d="M 373.897897 10.999219 
L 377.416699 19.869619 
L 380.975733 28.740019 
L 382.977987 33.886484 
L 384.141453 37.610419 
L 386.875511 46.480819 
L 389.625243 55.351219 
L 391.200371 60.474395 
" style="fill:none;stroke:#39558c;stroke-width:1.5;"/>
    <path clip-path="url(#p07a4598482)" d="M 397.878179 84.763055 
L 399.343466 90.832819 
L 401.42255 99.703219 
L 403.432817 108.573619 
L 405.350127 117.444019 
L 406.785988 124.481252 
" style="fill:none;stroke:#39558c;stroke-width:1.5;"/>
   </g>
   <g id="LineCollection_7">
    <path clip-path="url(#p07a4598482)" d="M 167.111371 277.111219 
L 156.801987 270.408946 
L 153.104811 268.240819 
L 144.897987 262.933291 
L 138.474987 259.370419 
L 132.993988 255.986494 
L 121.089988 251.105655 
L 118.949392 250.500019 
L 109.185988 246.936928 
L 97.281988 243.113891 
L 94.999355 241.629619 
L 85.377988 233.774989 
L 84.985232 232.759219 
L 82.333006 223.888819 
L 80.539635 215.018419 
L 80.140324 206.148019 
L 81.092304 197.277619 
L 82.868186 188.407219 
L 84.818715 179.536819 
L 85.377988 177.657091 
L 91.539039 170.666419 
L 96.700248 161.796019 
L 97.281988 160.462146 
L 104.418843 152.925619 
L 108.8382 144.055219 
L 109.185988 143.342748 
L 116.499417 135.184819 
L 120.223505 126.314419 
L 121.089988 123.449188 
L 126.54768 117.444019 
L 130.599503 108.573619 
L 132.092079 99.703219 
L 132.743145 90.832819 
L 132.993988 85.927416 
L 136.559489 81.962419 
L 142.036655 73.092019 
L 143.134654 67.848091 
" style="fill:none;stroke:#33638d;stroke-width:1.5;"/>
    <path clip-path="url(#p07a4598482)" d="M 144.884339 42.755685 
L 144.897987 42.054242 
L 149.172711 37.610419 
L 154.625175 28.740019 
L 156.190153 19.869619 
L 156.615353 10.999219 
" style="fill:none;stroke:#33638d;stroke-width:1.5;"/>
   </g>
   <g id="LineCollection_8">
    <path clip-path="url(#p07a4598482)" d="M 155.669411 277.111219 
L 144.897987 270.392209 
L 140.899256 268.240819 
L 132.993988 263.511069 
L 122.317305 259.370419 
L 121.089988 258.805288 
L 109.185988 254.964214 
L 97.281988 251.860491 
L 94.70647 250.500019 
L 85.377988 244.335157 
L 84.091616 241.629619 
L 81.669418 235.698004 
" style="fill:none;stroke:#2d718e;stroke-width:1.5;"/>
    <path clip-path="url(#p07a4598482)" d="M 75.241519 211.516343 
L 75.212579 206.148019 
L 77.063811 197.277619 
L 80.017928 188.407219 
L 83.112365 179.536819 
L 85.377988 171.922009 
L 86.48457 170.666419 
L 94.555329 161.796019 
L 97.281988 155.544048 
L 99.761558 152.925619 
L 106.662396 144.055219 
L 109.185988 138.885437 
L 112.503522 135.184819 
L 118.622737 126.314419 
L 121.089988 118.15587 
L 121.736941 117.444019 
L 128.770357 108.573619 
L 131.323334 99.703219 
L 132.399348 90.832819 
L 132.928028 81.962419 
L 132.993988 80.997036 
L 139.962335 73.092019 
L 143.152689 64.221619 
L 144.273119 55.351219 
L 144.699918 46.480819 
L 144.887295 37.610419 
L 144.897987 37.234174 
L 153.04025 28.740019 
L 155.742546 19.869619 
L 156.478021 10.999219 
" style="fill:none;stroke:#2d718e;stroke-width:1.5;"/>
   </g>
   <g id="LineCollection_9">
    <path clip-path="url(#p07a4598482)" d="M 146.320657 277.111219 
L 144.897987 276.223784 
L 132.993988 269.503724 
L 129.650177 268.240819 
L 121.089988 264.445633 
L 109.185988 261.221882 
L 100.520949 259.370419 
L 97.281988 258.464261 
L 85.377988 252.00715 
L 84.516169 250.500019 
L 80.163431 241.629619 
L 78.522555 238.172283 
" style="fill:none;stroke:#287d8e;stroke-width:1.5;"/>
    <path clip-path="url(#p07a4598482)" d="M 72.783105 214.055996 
L 72.810407 206.148019 
L 73.376928 197.277619 
L 73.473988 196.59004 
L 77.16767 188.407219 
L 81.406014 179.536819 
L 84.691994 170.666419 
L 85.377988 168.959797 
L 92.410409 161.796019 
L 96.855132 152.925619 
L 97.281988 151.827994 
L 104.486592 144.055219 
L 109.024854 135.184819 
L 109.185988 134.887502 
L 117.021968 126.314419 
L 120.513481 117.444019 
L 121.089988 115.555058 
L 126.941212 108.573619 
L 130.554589 99.703219 
L 132.05555 90.832819 
L 132.767249 81.962419 
L 132.993988 78.64389 
L 137.888015 73.092019 
L 142.411395 64.221619 
L 143.992734 55.351219 
L 144.58798 46.480819 
L 144.840306 37.610419 
L 144.897987 35.580752 
L 151.455325 28.740019 
L 155.294939 19.869619 
L 156.34069 10.999219 
" style="fill:none;stroke:#287d8e;stroke-width:1.5;"/>
   </g>
   <g id="LineCollection_10">
    <path clip-path="url(#p07a4598482)" d="M 138.070668 277.111219 
L 132.993988 274.169678 
L 121.089988 269.470426 
L 115.858287 268.240819 
L 109.185988 266.265455 
L 97.281988 263.527062 
L 87.969203 259.370419 
L 85.377988 257.944969 
L 81.120764 250.500019 
L 76.235246 241.629619 
L 73.473988 236.225814 
L 73.075477 232.759219 
L 72.245636 223.888819 
L 71.730525 215.018419 
L 71.785071 206.148019 
L 72.485588 197.277619 
L 73.473988 190.275703 
L 74.317411 188.407219 
L 79.699664 179.536819 
L 83.813717 170.666419 
L 85.377988 166.774813 
L 90.26549 161.796019 
L 95.942253 152.925619 
L 97.281988 149.480602 
L 102.310789 144.055219 
L 108.075696 135.184819 
L 109.185988 133.136156 
L 115.4212 126.314419 
L 119.847398 117.444019 
L 121.089988 113.372598 
L 125.112067 108.573619 
L 129.785844 99.703219 
L 131.711753 90.832819 
L 132.60647 81.962419 
L 132.993988 76.290745 
L 135.813695 73.092019 
L 139.743064 67.140405 
" style="fill:none;stroke:#238a8d;stroke-width:1.5;"/>
    <path clip-path="url(#p07a4598482)" d="M 144.608183 42.786395 
L 144.793317 37.610419 
L 144.897987 33.92733 
L 149.870401 28.740019 
L 154.847332 19.869619 
L 156.203358 10.999219 
" style="fill:none;stroke:#238a8d;stroke-width:1.5;"/>
   </g>
   <g id="LineCollection_11">
    <path clip-path="url(#p07a4598482)" d="M 129.551248 277.111219 
L 121.089988 273.474395 
L 109.185988 270.51026 
L 97.281988 268.318221 
L 97.08279 268.240819 
L 85.377988 262.694413 
L 83.161945 259.370419 
L 77.725359 250.500019 
L 73.473988 243.330595 
L 73.244086 241.629619 
L 72.191745 232.759219 
L 71.25984 223.888819 
L 70.681267 215.018419 
L 70.759735 206.148019 
L 71.594249 197.277619 
L 72.988321 188.407219 
L 73.473988 186.544334 
L 77.993313 179.536819 
L 82.935441 170.666419 
L 85.377988 164.589829 
L 88.12057 161.796019 
L 95.029374 152.925619 
L 97.281988 147.133209 
L 100.134985 144.055219 
L 107.126537 135.184819 
L 109.185988 131.384809 
L 113.820432 126.314419 
L 119.181316 117.444019 
L 121.089988 111.190137 
L 123.282922 108.573619 
L 129.017099 99.703219 
L 131.367955 90.832819 
L 132.445692 81.962419 
L 132.993988 73.937599 
L 133.739374 73.092019 
L 140.928809 64.221619 
L 142.432323 58.893633 
" style="fill:none;stroke:#1f968b;stroke-width:1.5;"/>
    <path clip-path="url(#p07a4598482)" d="M 144.852044 33.890552 
L 144.897987 32.273908 
L 148.285476 28.740019 
L 154.399725 19.869619 
L 156.066027 10.999219 
" style="fill:none;stroke:#1f968b;stroke-width:1.5;"/>
   </g>
   <g id="LineCollection_12">
    <path clip-path="url(#p07a4598482)" d="M 119.822421 277.111219 
L 109.185988 274.240804 
L 97.281988 271.904996 
L 87.852083 268.240819 
L 85.377988 267.06845 
L 80.245859 259.370419 
L 74.329954 250.500019 
L 73.473988 249.056535 
L 72.470175 241.629619 
L 71.308012 232.759219 
L 70.274044 223.888819 
L 69.632009 215.018419 
L 69.734399 206.148019 
L 70.702909 197.277619 
L 72.29854 188.407219 
L 73.473988 183.898524 
L 76.286963 179.536819 
L 82.057165 170.666419 
L 85.377988 162.404845 
L 85.97565 161.796019 
L 94.116495 152.925619 
L 97.281988 144.785817 
L 97.959181 144.055219 
L 106.177378 135.184819 
L 109.185988 129.633463 
L 112.219664 126.314419 
L 118.515234 117.444019 
L 121.089988 109.007677 
L 121.453776 108.573619 
L 128.248354 99.703219 
L 131.024158 90.832819 
L 132.284913 81.962419 
L 132.944342 73.092019 
L 132.993988 72.542663 
L 140.187515 64.221619 
L 143.151579 55.351219 
L 143.794327 50.17086 
" style="fill:none;stroke:#20a386;stroke-width:1.5;"/>
    <path clip-path="url(#p07a4598482)" d="M 148.600816 26.415541 
L 153.952118 19.869619 
L 155.928695 10.999219 
" style="fill:none;stroke:#20a386;stroke-width:1.5;"/>
   </g>
   <g id="LineCollection_13">
    <path clip-path="url(#p07a4598482)" d="M 105.162005 277.111219 
L 97.281988 275.491771 
L 85.377988 270.63385 
L 83.571681 268.240819 
L 77.329772 259.370419 
L 73.473988 253.704719 
L 72.967548 250.500019 
L 71.696264 241.629619 
L 70.424279 232.759219 
L 69.288248 223.888819 
L 68.582752 215.018419 
L 68.656932 209.808995 
" style="fill:none;stroke:#29af7f;stroke-width:1.5;"/>
    <path clip-path="url(#p07a4598482)" d="M 72.504175 184.97265 
L 73.473988 181.252714 
L 74.580613 179.536819 
L 81.178889 170.666419 
L 85.083918 161.796019 
L 85.377988 161.107525 
L 93.203616 152.925619 
L 97.005519 144.055219 
L 97.281988 143.380918 
L 105.22822 135.184819 
L 109.185988 127.882116 
L 110.618896 126.314419 
L 117.849151 117.444019 
L 120.852042 108.573619 
L 121.089988 107.793819 
L 127.479609 99.703219 
L 130.68036 90.832819 
L 132.124134 81.962419 
L 132.866851 73.092019 
L 132.993988 71.685179 
L 139.446222 64.221619 
L 142.871194 55.351219 
L 144.140227 46.480819 
L 144.65235 37.610419 
L 144.897987 28.967063 
L 145.115626 28.740019 
L 153.504511 19.869619 
L 155.791364 10.999219 
" style="fill:none;stroke:#29af7f;stroke-width:1.5;"/>
   </g>
   <g id="LineCollection_14">
    <path clip-path="url(#p07a4598482)" d="M 93.013833 277.111219 
L 85.377988 273.903147 
L 81.103951 268.240819 
L 74.413686 259.370419 
L 73.473988 257.989624 
L 72.290404 250.500019 
L 70.922353 241.629619 
L 69.540546 232.759219 
L 68.302452 223.888819 
L 67.533494 215.018419 
L 67.683727 206.148019 
L 68.92023 197.277619 
L 70.918979 188.407219 
L 73.307916 179.536819 
L 73.473988 179.153071 
L 80.300613 170.666419 
L 84.676257 161.796019 
L 85.377988 160.153086 
L 92.290738 152.925619 
L 96.60412 144.055219 
L 97.281988 142.401913 
L 104.279061 135.184819 
L 109.145508 126.314419 
L 109.185988 126.237616 
L 117.183069 117.444019 
L 120.555025 108.573619 
L 121.089988 106.820427 
L 126.710864 99.703219 
L 130.336563 90.832819 
L 131.963355 81.962419 
L 132.789359 73.092019 
L 132.993988 70.827695 
L 138.704929 64.221619 
L 142.590809 55.351219 
L 144.028288 46.480819 
L 144.389564 40.927511 
" style="fill:none;stroke:#3dbc74;stroke-width:1.5;"/>
    <path clip-path="url(#p07a4598482)" d="M 153.292891 19.063612 
L 155.654032 10.999219 
" style="fill:none;stroke:#3dbc74;stroke-width:1.5;"/>
   </g>
   <g id="LineCollection_15">
    <path clip-path="url(#p07a4598482)" d="M 85.339264 277.111219 
L 78.636221 268.240819 
L 73.473988 261.541071 
L 73.066066 259.370419 
L 71.61326 250.500019 
L 70.148442 241.629619 
L 68.656814 232.759219 
L 67.316656 223.888819 
L 66.484236 215.018419 
L 66.658391 206.148019 
L 68.02889 197.277619 
L 70.229199 188.407219 
L 72.835405 179.536819 
L 73.473988 178.061225 
L 79.422336 170.666419 
L 84.268597 161.796019 
L 85.377988 159.198646 
L 91.377859 152.925619 
L 96.202721 144.055219 
L 97.281988 141.422909 
L 103.329903 135.184819 
L 108.759484 126.314419 
L 109.185988 125.505191 
L 116.516987 117.444019 
L 120.258008 108.573619 
L 121.089988 105.847034 
L 125.942119 99.703219 
L 129.992765 90.832819 
L 131.802577 81.962419 
L 132.711868 73.092019 
L 132.993988 69.970212 
L 137.963635 64.221619 
L 142.310424 55.351219 
L 143.91635 46.480819 
L 144.558372 37.610419 
L 144.838633 29.358338 
" style="fill:none;stroke:#56c667;stroke-width:1.5;"/>
   </g>
   <g id="LineCollection_16">
    <path clip-path="url(#p07a4598482)" d="M 83.271503 277.111219 
L 76.168491 268.240819 
L 73.473988 264.743787 
L 72.464193 259.370419 
L 70.936116 250.500019 
L 69.374531 241.629619 
L 67.773081 232.759219 
L 66.33086 223.888819 
L 65.434979 215.018419 
L 65.633055 206.148019 
L 67.137551 197.277619 
L 69.539418 188.407219 
L 72.362895 179.536819 
L 73.473988 176.969379 
L 78.54406 170.666419 
L 83.860936 161.796019 
L 85.377988 158.244207 
L 90.46498 152.925619 
L 95.801321 144.055219 
L 97.281988 140.443904 
L 102.380744 135.184819 
L 108.373459 126.314419 
L 109.185988 124.772766 
L 115.850904 117.444019 
L 119.960991 108.573619 
L 121.089988 104.873642 
L 125.173373 99.703219 
L 129.648968 90.832819 
L 131.641798 81.962419 
L 132.634376 73.092019 
L 132.993988 69.112728 
L 137.222342 64.221619 
L 142.030039 55.351219 
L 143.804411 46.480819 
L 144.511383 37.610419 
L 144.809557 29.53822 
" style="fill:none;stroke:#75d054;stroke-width:1.5;"/>
   </g>
   <g id="LineCollection_17">
    <path clip-path="url(#p07a4598482)" d="M 81.203742 277.111219 
L 73.700762 268.240819 
L 73.473988 267.946502 
L 71.86232 259.370419 
L 70.258972 250.500019 
L 68.60062 241.629619 
L 66.889348 232.759219 
L 65.345064 223.888819 
L 64.385721 215.018419 
L 64.607718 206.148019 
L 66.246211 197.277619 
L 68.849637 188.407219 
L 71.890384 179.536819 
L 73.473988 175.877533 
L 77.665784 170.666419 
L 83.453276 161.796019 
L 85.377988 157.289768 
L 89.552101 152.925619 
L 95.399922 144.055219 
L 97.281988 139.4649 
L 101.431586 135.184819 
L 107.987435 126.314419 
L 109.185988 124.040342 
L 115.184822 117.444019 
L 119.663974 108.573619 
L 121.089988 103.900249 
L 124.404628 99.703219 
L 129.30517 90.832819 
L 131.481019 81.962419 
L 132.556885 73.092019 
L 132.993988 68.255244 
L 136.481049 64.221619 
L 141.749654 55.351219 
L 143.692473 46.480819 
L 144.464395 37.610419 
L 144.779412 29.718055 
" style="fill:none;stroke:#95d840;stroke-width:1.5;"/>
   </g>
   <g id="LineCollection_18">
    <path clip-path="url(#p07a4598482)" d="M 79.135982 277.111219 
L 73.473988 270.449957 
L 72.981195 268.240819 
L 71.260447 259.370419 
L 69.581828 250.500019 
L 67.826709 241.629619 
L 66.005616 232.759219 
L 64.359268 223.888819 
L 63.336463 215.018419 
L 63.582382 206.148019 
L 65.354871 197.277619 
L 68.159857 188.407219 
L 71.417874 179.536819 
L 73.473988 174.785686 
L 76.787508 170.666419 
L 83.045615 161.796019 
L 85.377988 156.335328 
L 88.639223 152.925619 
L 94.998523 144.055219 
L 97.281988 138.485895 
L 100.482427 135.184819 
L 107.601411 126.314419 
L 109.185988 123.307917 
L 114.51874 117.444019 
L 119.366957 108.573619 
L 121.089988 102.926857 
L 123.635883 99.703219 
L 128.961373 90.832819 
L 131.32024 81.962419 
L 132.479394 73.092019 
L 132.993988 67.39776 
L 135.739756 64.221619 
L 141.469269 55.351219 
L 143.580535 46.480819 
L 144.417406 37.610419 
L 144.748199 29.89784 
" style="fill:none;stroke:#bade28;stroke-width:1.5;"/>
   </g>
   <g id="LineCollection_19">
    <path clip-path="url(#p07a4598482)" d="M 77.068221 277.111219 
L 73.473988 272.88265 
L 72.438534 268.240819 
L 70.658575 259.370419 
L 68.904684 250.500019 
L 67.052798 241.629619 
L 65.121883 232.759219 
L 63.373472 223.888819 
L 62.287206 215.018419 
L 62.557046 206.148019 
L 64.463532 197.277619 
L 67.470076 188.407219 
L 70.945363 179.536819 
L 73.473988 173.69384 
L 75.909232 170.666419 
L 82.637955 161.796019 
L 85.377988 155.380889 
L 87.726344 152.925619 
L 94.597123 144.055219 
L 97.281988 137.506891 
L 99.533268 135.184819 
L 107.215386 126.314419 
L 109.185988 122.575492 
L 113.852657 117.444019 
L 119.069939 108.573619 
L 121.089988 101.953464 
L 122.867138 99.703219 
L 128.617575 90.832819 
L 131.159462 81.962419 
L 132.401902 73.092019 
L 132.993988 66.540276 
L 134.998462 64.221619 
L 141.188884 55.351219 
L 143.468596 46.480819 
L 144.370417 37.610419 
L 144.715919 30.077568 
" style="fill:none;stroke:#dde318;stroke-width:1.5;"/>
   </g>
   <g id="LineCollection_20">
    <path clip-path="url(#p07a4598482)" d="M 75.000461 277.111219 
L 73.473988 275.315343 
L 71.895873 268.240819 
L 70.056702 259.370419 
L 68.22754 250.500019 
L 66.278887 241.629619 
L 64.23815 232.759219 
L 62.387676 223.888819 
L 61.569988 217.468021 
L 61.488073 215.018419 
L 61.560341 206.148019 
L 61.569988 206.003009 
L 63.572192 197.277619 
L 66.780296 188.407219 
L 70.472853 179.536819 
L 73.473988 172.601994 
L 75.030956 170.666419 
L 82.230294 161.796019 
L 85.377988 154.426449 
L 86.813465 152.925619 
L 94.195724 144.055219 
L 97.281988 136.527886 
L 98.58411 135.184819 
L 106.829362 126.314419 
L 109.185988 121.843068 
L 113.186575 117.444019 
L 118.772922 108.573619 
L 121.089988 100.980072 
L 122.098393 99.703219 
L 128.273778 90.832819 
L 130.998683 81.962419 
L 132.324411 73.092019 
L 132.993988 65.682792 
L 134.257169 64.221619 
L 140.908498 55.351219 
L 143.356658 46.480819 
L 143.920483 41.307551 
" style="fill:none;stroke:#fde725;stroke-width:1.5;"/>
    <path clip-path="url(#p07a4598482)" d="M 151.053475 18.512408 
L 154.830043 10.999219 
" style="fill:none;stroke:#fde725;stroke-width:1.5;"/>
   </g>
   <g id="LineCollection_21">
    <path clip-path="url(#p07a4598482)" d="M 73.346363 277.111219 
L 71.353213 268.240819 
L 70.569731 264.579919 
" style="fill:none;stroke:#440154;stroke-width:1.5;"/>
    <path clip-path="url(#p07a4598482)" d="M 64.256956 236.481917 
L 63.354418 232.759219 
L 61.569988 224.57962 
L 61.527961 223.888819 
L 61.229222 215.018419 
L 61.301929 206.148019 
L 61.569988 202.118648 
L 62.680852 197.277619 
L 66.090515 188.407219 
L 70.000342 179.536819 
L 73.473988 171.510148 
L 74.152679 170.666419 
L 81.822633 161.796019 
L 85.377988 153.47201 
L 85.900586 152.925619 
L 93.794325 144.055219 
L 97.281988 135.548881 
L 97.634951 135.184819 
L 106.443337 126.314419 
L 109.185988 121.110643 
L 112.520493 117.444019 
L 118.475905 108.573619 
L 121.089988 100.006679 
L 121.329648 99.703219 
L 127.92998 90.832819 
L 130.837904 81.962419 
L 132.246919 73.092019 
L 132.993988 64.825308 
L 133.515876 64.221619 
L 140.628113 55.351219 
L 143.244719 46.480819 
L 144.276439 37.610419 
L 144.736084 28.740019 
L 144.897987 25.08663 
L 149.923654 19.869619 
L 154.692711 10.999219 
" style="fill:none;stroke:#440154;stroke-width:1.5;"/>
   </g>
   <g id="LineCollection_22">
    <path clip-path="url(#p07a4598482)" d="M 49.665988 170.012764 
L 57.505896 161.796019 
L 61.569988 157.236451 
L 66.100606 152.925619 
L 72.997413 144.055219 
L 73.473988 143.397753 
L 81.242409 135.184819 
L 85.377988 126.994703 
L 86.040972 126.314419 
L 94.404994 117.444019 
L 97.281988 110.98901 
L 99.632319 108.573619 
L 101.065864 106.755385 
" style="fill:none;stroke:#440154;stroke-width:1.5;"/>
    <path clip-path="url(#p07a4598482)" d="M 118.347747 79.729122 
L 120.593418 73.092019 
L 121.089988 71.198561 
L 126.15391 64.221619 
L 130.079384 55.351219 
L 132.140837 46.480819 
L 132.993988 41.200091 
L 135.818431 37.610419 
L 141.029638 28.740019 
L 143.313153 19.869619 
L 144.414626 10.999219 
" style="fill:none;stroke:#440154;stroke-width:1.5;"/>
   </g>
   <g id="LineCollection_23">
    <path clip-path="url(#p07a4598482)" d="M 49.665988 142.12954 
L 58.144783 135.184819 
L 61.569988 132.181971 
L 68.056909 126.314419 
L 73.473988 119.640371 
L 75.688312 117.444019 
L 83.155052 108.573619 
L 85.377988 103.915417 
L 89.337558 99.703219 
L 91.134952 97.039223 
" style="fill:none;stroke:#440154;stroke-width:1.5;"/>
    <path clip-path="url(#p07a4598482)" d="M 108.931963 66.170515 
L 109.185988 65.406187 
L 110.167828 64.221619 
L 116.912386 55.351219 
L 120.091224 46.480819 
L 121.089988 42.156307 
L 124.463756 37.610419 
L 129.499448 28.740019 
L 132.117792 19.869619 
L 132.993988 15.635837 
L 136.408879 10.999219 
" style="fill:none;stroke:#440154;stroke-width:1.5;"/>
   </g>
   <g id="LineCollection_24">
    <path clip-path="url(#p07a4598482)" d="M 49.665988 118.556113 
L 51.091541 117.444019 
L 61.306657 108.573619 
L 61.569988 108.311464 
L 70.788194 99.703219 
L 73.473988 95.57877 
L 77.976388 90.832819 
L 83.819803 81.962419 
L 84.415811 80.564272 
" style="fill:none;stroke:#440154;stroke-width:1.5;"/>
    <path clip-path="url(#p07a4598482)" d="M 105.438324 47.424714 
L 106.08745 46.480819 
L 108.997208 37.610419 
L 109.185988 36.971208 
L 115.659149 28.740019 
L 119.358626 19.869619 
L 121.089988 12.390032 
L 122.162483 10.999219 
" style="fill:none;stroke:#440154;stroke-width:1.5;"/>
   </g>
   <g id="LineCollection_25">
    <path clip-path="url(#p07a4598482)" d="M 49.665988 96.22743 
L 55.971264 90.832819 
L 61.569988 84.367354 
L 64.033582 81.962419 
L 71.638421 73.092019 
L 71.692049 73.000249 
" style="fill:none;stroke:#440154;stroke-width:1.5;"/>
    <path clip-path="url(#p07a4598482)" d="M 95.107921 37.073057 
L 97.281988 29.532261 
L 97.934165 28.740019 
L 104.851057 19.869619 
L 108.250982 10.999219 
" style="fill:none;stroke:#440154;stroke-width:1.5;"/>
   </g>
   <g id="LineCollection_26">
    <path clip-path="url(#p07a4598482)" d="M 49.665988 71.295346 
L 57.440057 64.221619 
L 59.107613 62.106733 
" style="fill:none;stroke:#450457;stroke-width:1.5;"/>
    <path clip-path="url(#p07a4598482)" d="M 85.293482 23.861642 
L 85.377988 23.599447 
L 88.473253 19.869619 
L 94.169361 10.999219 
" style="fill:none;stroke:#450457;stroke-width:1.5;"/>
   </g>
   <g id="LineCollection_27">
    <path clip-path="url(#p07a4598482)" d="M 49.665988 45.107404 
L 57.682376 37.610419 
L 61.569988 32.298441 
L 64.98529 28.740019 
L 71.630331 19.869619 
L 73.473988 16.31418 
L 77.948425 10.999219 
" style="fill:none;stroke:#482475;stroke-width:1.5;"/>
   </g>
   <g id="LineCollection_28">
    <path clip-path="url(#p07a4598482)" d="M 49.665988 17.712829 
L 56.481891 10.999219 
" style="fill:none;stroke:#fde725;stroke-width:1.5;"/>
   </g>
   <g id="line2d_16">
    <path clip-path="url(#p07a4598482)" d="M 386.085836 216.646066 
L 377.534581 186.271152 
L 367.533199 155.323446 
L 356.222891 128.945856 
L 317.557392 95.238064 
L 243.683786 67.232472 
L 193.979521 50.653183 
L 161.208016 41.267821 
L 138.722771 39.135983 
L 123.725328 39.984248 
L 113.968611 41.816908 
L 107.639302 44.385052 
L 103.59419 47.260207 
L 101.030048 50.537102 
L 99.450972 53.935044 
L 98.523596 57.530142 
L 97.999084 61.458484 
L 97.718126 65.809826 
L 97.661372 69.758048 
L 97.753708 73.464193 
L 97.94939 76.980542 
L 98.211911 80.403736 
L 98.516102 83.767433 
L 98.842566 87.177937 
L 99.184604 90.554688 
L 99.538801 94.007447 
L 99.903495 97.410456 
L 100.269284 100.910123 
L 100.639471 104.40183 
L 101.00965 107.910362 
L 101.378535 111.353528 
L 101.741757 114.86399 
L 102.105049 118.433578 
L 102.467054 122.073787 
L 102.824475 125.732187 
L 103.180523 129.444233 
L 103.531412 133.217539 
L 103.87763 137.113325 
L 104.235274 140.922811 
L 104.595003 144.654691 
L 104.950934 148.360024 
L 105.306028 151.98638 
L 105.661703 155.605305 
L 106.012537 159.315033 
L 106.365205 162.901278 
L 106.722301 166.434661 
L 107.084026 169.880246 
L 107.443454 173.303026 
L 107.803552 176.660065 
L 108.16097 180.028741 
L 108.19725 180.358642 
L 108.234044 180.681532 
L 108.271026 180.998216 
L 108.30784 181.312255 
L 108.344852 181.622414 
L 108.382163 181.926601 
L 108.419503 182.228792 
L 108.456657 182.534114 
L 108.493788 182.844855 
L 108.530874 183.153736 
L 108.568385 183.460281 
L 108.606104 183.757508 
L 108.643461 184.0597 
L 108.680432 184.357245 
L 108.717341 184.660014 
L 108.754239 184.967893 
L 108.791283 185.282335 
L 108.828491 185.593903 
L 108.865865 185.897124 
L 108.903749 186.199429 
L 108.941219 186.501291 
L 108.979012 186.797955 
L 109.017023 187.085558 
L 109.05488 187.370071 
L 109.092501 187.659529 
L 109.096248 187.689389 
L 109.099932 187.720567 
L 109.103604 187.752259 
L 109.107287 187.78411 
L 109.111004 187.815032 
L 109.114717 187.845536 
L 109.118443 187.875572 
L 109.122171 187.905875 
L 109.125901 187.935736 
L 109.12963 187.965292 
L 109.133378 187.994658 
L 109.137133 188.02453 
L 109.140926 188.053989 
L 109.144682 188.084102 
L 109.148401 188.114711 
L 109.152094 188.146131 
L 109.155838 188.176299 
L 109.159603 188.20612 
L 109.163382 188.234672 
L 109.16717 188.262424 
L 109.170936 188.290835 
L 109.174681 188.320162 
L 109.178452 188.349068 
L 109.182218 188.377917 
" style="fill:none;stroke:#1f77b4;stroke-linecap:square;stroke-width:1.5;"/>
    <defs>
     <path d="M 0 1.5 
C 0.397805 1.5 0.77937 1.341951 1.06066 1.06066 
C 1.341951 0.77937 1.5 0.397805 1.5 0 
C 1.5 -0.397805 1.341951 -0.77937 1.06066 -1.06066 
C 0.77937 -1.341951 0.397805 -1.5 0 -1.5 
C -0.397805 -1.5 -0.77937 -1.341951 -1.06066 -1.06066 
C -1.341951 -0.77937 -1.5 -0.397805 -1.5 0 
C -1.5 0.397805 -1.341951 0.77937 -1.06066 1.06066 
C -0.77937 1.341951 -0.397805 1.5 0 1.5 
z
" id="m51f69f4862" style="stroke:#1f77b4;"/>
    </defs>
    <g clip-path="url(#p07a4598482)">
     <use style="fill:#1f77b4;stroke:#1f77b4;" x="386.085836" xlink:href="#m51f69f4862" y="216.646066"/>
     <use style="fill:#1f77b4;stroke:#1f77b4;" x="377.534581" xlink:href="#m51f69f4862" y="186.271152"/>
     <use style="fill:#1f77b4;stroke:#1f77b4;" x="367.533199" xlink:href="#m51f69f4862" y="155.323446"/>
     <use style="fill:#1f77b4;stroke:#1f77b4;" x="356.222891" xlink:href="#m51f69f4862" y="128.945856"/>
     <use style="fill:#1f77b4;stroke:#1f77b4;" x="317.557392" xlink:href="#m51f69f4862" y="95.238064"/>
     <use style="fill:#1f77b4;stroke:#1f77b4;" x="243.683786" xlink:href="#m51f69f4862" y="67.232472"/>
     <use style="fill:#1f77b4;stroke:#1f77b4;" x="193.979521" xlink:href="#m51f69f4862" y="50.653183"/>
     <use style="fill:#1f77b4;stroke:#1f77b4;" x="161.208016" xlink:href="#m51f69f4862" y="41.267821"/>
     <use style="fill:#1f77b4;stroke:#1f77b4;" x="138.722771" xlink:href="#m51f69f4862" y="39.135983"/>
     <use style="fill:#1f77b4;stroke:#1f77b4;" x="123.725328" xlink:href="#m51f69f4862" y="39.984248"/>
     <use style="fill:#1f77b4;stroke:#1f77b4;" x="113.968611" xlink:href="#m51f69f4862" y="41.816908"/>
     <use style="fill:#1f77b4;stroke:#1f77b4;" x="107.639302" xlink:href="#m51f69f4862" y="44.385052"/>
     <use style="fill:#1f77b4;stroke:#1f77b4;" x="103.59419" xlink:href="#m51f69f4862" y="47.260207"/>
     <use style="fill:#1f77b4;stroke:#1f77b4;" x="101.030048" xlink:href="#m51f69f4862" y="50.537102"/>
     <use style="fill:#1f77b4;stroke:#1f77b4;" x="99.450972" xlink:href="#m51f69f4862" y="53.935044"/>
     <use style="fill:#1f77b4;stroke:#1f77b4;" x="98.523596" xlink:href="#m51f69f4862" y="57.530142"/>
     <use style="fill:#1f77b4;stroke:#1f77b4;" x="97.999084" xlink:href="#m51f69f4862" y="61.458484"/>
     <use style="fill:#1f77b4;stroke:#1f77b4;" x="97.718126" xlink:href="#m51f69f4862" y="65.809826"/>
     <use style="fill:#1f77b4;stroke:#1f77b4;" x="97.661372" xlink:href="#m51f69f4862" y="69.758048"/>
     <use style="fill:#1f77b4;stroke:#1f77b4;" x="97.753708" xlink:href="#m51f69f4862" y="73.464193"/>
     <use style="fill:#1f77b4;stroke:#1f77b4;" x="97.94939" xlink:href="#m51f69f4862" y="76.980542"/>
     <use style="fill:#1f77b4;stroke:#1f77b4;" x="98.211911" xlink:href="#m51f69f4862" y="80.403736"/>
     <use style="fill:#1f77b4;stroke:#1f77b4;" x="98.516102" xlink:href="#m51f69f4862" y="83.767433"/>
     <use style="fill:#1f77b4;stroke:#1f77b4;" x="98.842566" xlink:href="#m51f69f4862" y="87.177937"/>
     <use style="fill:#1f77b4;stroke:#1f77b4;" x="99.184604" xlink:href="#m51f69f4862" y="90.554688"/>
     <use style="fill:#1f77b4;stroke:#1f77b4;" x="99.538801" xlink:href="#m51f69f4862" y="94.007447"/>
     <use style="fill:#1f77b4;stroke:#1f77b4;" x="99.903495" xlink:href="#m51f69f4862" y="97.410456"/>
     <use style="fill:#1f77b4;stroke:#1f77b4;" x="100.269284" xlink:href="#m51f69f4862" y="100.910123"/>
     <use style="fill:#1f77b4;stroke:#1f77b4;" x="100.639471" xlink:href="#m51f69f4862" y="104.40183"/>
     <use style="fill:#1f77b4;stroke:#1f77b4;" x="101.00965" xlink:href="#m51f69f4862" y="107.910362"/>
     <use style="fill:#1f77b4;stroke:#1f77b4;" x="101.378535" xlink:href="#m51f69f4862" y="111.353528"/>
     <use style="fill:#1f77b4;stroke:#1f77b4;" x="101.741757" xlink:href="#m51f69f4862" y="114.86399"/>
     <use style="fill:#1f77b4;stroke:#1f77b4;" x="102.105049" xlink:href="#m51f69f4862" y="118.433578"/>
     <use style="fill:#1f77b4;stroke:#1f77b4;" x="102.467054" xlink:href="#m51f69f4862" y="122.073787"/>
     <use style="fill:#1f77b4;stroke:#1f77b4;" x="102.824475" xlink:href="#m51f69f4862" y="125.732187"/>
     <use style="fill:#1f77b4;stroke:#1f77b4;" x="103.180523" xlink:href="#m51f69f4862" y="129.444233"/>
     <use style="fill:#1f77b4;stroke:#1f77b4;" x="103.531412" xlink:href="#m51f69f4862" y="133.217539"/>
     <use style="fill:#1f77b4;stroke:#1f77b4;" x="103.87763" xlink:href="#m51f69f4862" y="137.113325"/>
     <use style="fill:#1f77b4;stroke:#1f77b4;" x="104.235274" xlink:href="#m51f69f4862" y="140.922811"/>
     <use style="fill:#1f77b4;stroke:#1f77b4;" x="104.595003" xlink:href="#m51f69f4862" y="144.654691"/>
     <use style="fill:#1f77b4;stroke:#1f77b4;" x="104.950934" xlink:href="#m51f69f4862" y="148.360024"/>
     <use style="fill:#1f77b4;stroke:#1f77b4;" x="105.306028" xlink:href="#m51f69f4862" y="151.98638"/>
     <use style="fill:#1f77b4;stroke:#1f77b4;" x="105.661703" xlink:href="#m51f69f4862" y="155.605305"/>
     <use style="fill:#1f77b4;stroke:#1f77b4;" x="106.012537" xlink:href="#m51f69f4862" y="159.315033"/>
     <use style="fill:#1f77b4;stroke:#1f77b4;" x="106.365205" xlink:href="#m51f69f4862" y="162.901278"/>
     <use style="fill:#1f77b4;stroke:#1f77b4;" x="106.722301" xlink:href="#m51f69f4862" y="166.434661"/>
     <use style="fill:#1f77b4;stroke:#1f77b4;" x="107.084026" xlink:href="#m51f69f4862" y="169.880246"/>
     <use style="fill:#1f77b4;stroke:#1f77b4;" x="107.443454" xlink:href="#m51f69f4862" y="173.303026"/>
     <use style="fill:#1f77b4;stroke:#1f77b4;" x="107.803552" xlink:href="#m51f69f4862" y="176.660065"/>
     <use style="fill:#1f77b4;stroke:#1f77b4;" x="108.16097" xlink:href="#m51f69f4862" y="180.028741"/>
     <use style="fill:#1f77b4;stroke:#1f77b4;" x="108.19725" xlink:href="#m51f69f4862" y="180.358642"/>
     <use style="fill:#1f77b4;stroke:#1f77b4;" x="108.234044" xlink:href="#m51f69f4862" y="180.681532"/>
     <use style="fill:#1f77b4;stroke:#1f77b4;" x="108.271026" xlink:href="#m51f69f4862" y="180.998216"/>
     <use style="fill:#1f77b4;stroke:#1f77b4;" x="108.30784" xlink:href="#m51f69f4862" y="181.312255"/>
     <use style="fill:#1f77b4;stroke:#1f77b4;" x="108.344852" xlink:href="#m51f69f4862" y="181.622414"/>
     <use style="fill:#1f77b4;stroke:#1f77b4;" x="108.382163" xlink:href="#m51f69f4862" y="181.926601"/>
     <use style="fill:#1f77b4;stroke:#1f77b4;" x="108.419503" xlink:href="#m51f69f4862" y="182.228792"/>
     <use style="fill:#1f77b4;stroke:#1f77b4;" x="108.456657" xlink:href="#m51f69f4862" y="182.534114"/>
     <use style="fill:#1f77b4;stroke:#1f77b4;" x="108.493788" xlink:href="#m51f69f4862" y="182.844855"/>
     <use style="fill:#1f77b4;stroke:#1f77b4;" x="108.530874" xlink:href="#m51f69f4862" y="183.153736"/>
     <use style="fill:#1f77b4;stroke:#1f77b4;" x="108.568385" xlink:href="#m51f69f4862" y="183.460281"/>
     <use style="fill:#1f77b4;stroke:#1f77b4;" x="108.606104" xlink:href="#m51f69f4862" y="183.757508"/>
     <use style="fill:#1f77b4;stroke:#1f77b4;" x="108.643461" xlink:href="#m51f69f4862" y="184.0597"/>
     <use style="fill:#1f77b4;stroke:#1f77b4;" x="108.680432" xlink:href="#m51f69f4862" y="184.357245"/>
     <use style="fill:#1f77b4;stroke:#1f77b4;" x="108.717341" xlink:href="#m51f69f4862" y="184.660014"/>
     <use style="fill:#1f77b4;stroke:#1f77b4;" x="108.754239" xlink:href="#m51f69f4862" y="184.967893"/>
     <use style="fill:#1f77b4;stroke:#1f77b4;" x="108.791283" xlink:href="#m51f69f4862" y="185.282335"/>
     <use style="fill:#1f77b4;stroke:#1f77b4;" x="108.828491" xlink:href="#m51f69f4862" y="185.593903"/>
     <use style="fill:#1f77b4;stroke:#1f77b4;" x="108.865865" xlink:href="#m51f69f4862" y="185.897124"/>
     <use style="fill:#1f77b4;stroke:#1f77b4;" x="108.903749" xlink:href="#m51f69f4862" y="186.199429"/>
     <use style="fill:#1f77b4;stroke:#1f77b4;" x="108.941219" xlink:href="#m51f69f4862" y="186.501291"/>
     <use style="fill:#1f77b4;stroke:#1f77b4;" x="108.979012" xlink:href="#m51f69f4862" y="186.797955"/>
     <use style="fill:#1f77b4;stroke:#1f77b4;" x="109.017023" xlink:href="#m51f69f4862" y="187.085558"/>
     <use style="fill:#1f77b4;stroke:#1f77b4;" x="109.05488" xlink:href="#m51f69f4862" y="187.370071"/>
     <use style="fill:#1f77b4;stroke:#1f77b4;" x="109.092501" xlink:href="#m51f69f4862" y="187.659529"/>
     <use style="fill:#1f77b4;stroke:#1f77b4;" x="109.096248" xlink:href="#m51f69f4862" y="187.689389"/>
     <use style="fill:#1f77b4;stroke:#1f77b4;" x="109.099932" xlink:href="#m51f69f4862" y="187.720567"/>
     <use style="fill:#1f77b4;stroke:#1f77b4;" x="109.103604" xlink:href="#m51f69f4862" y="187.752259"/>
     <use style="fill:#1f77b4;stroke:#1f77b4;" x="109.107287" xlink:href="#m51f69f4862" y="187.78411"/>
     <use style="fill:#1f77b4;stroke:#1f77b4;" x="109.111004" xlink:href="#m51f69f4862" y="187.815032"/>
     <use style="fill:#1f77b4;stroke:#1f77b4;" x="109.114717" xlink:href="#m51f69f4862" y="187.845536"/>
     <use style="fill:#1f77b4;stroke:#1f77b4;" x="109.118443" xlink:href="#m51f69f4862" y="187.875572"/>
     <use style="fill:#1f77b4;stroke:#1f77b4;" x="109.122171" xlink:href="#m51f69f4862" y="187.905875"/>
     <use style="fill:#1f77b4;stroke:#1f77b4;" x="109.125901" xlink:href="#m51f69f4862" y="187.935736"/>
     <use style="fill:#1f77b4;stroke:#1f77b4;" x="109.12963" xlink:href="#m51f69f4862" y="187.965292"/>
     <use style="fill:#1f77b4;stroke:#1f77b4;" x="109.133378" xlink:href="#m51f69f4862" y="187.994658"/>
     <use style="fill:#1f77b4;stroke:#1f77b4;" x="109.137133" xlink:href="#m51f69f4862" y="188.02453"/>
     <use style="fill:#1f77b4;stroke:#1f77b4;" x="109.140926" xlink:href="#m51f69f4862" y="188.053989"/>
     <use style="fill:#1f77b4;stroke:#1f77b4;" x="109.144682" xlink:href="#m51f69f4862" y="188.084102"/>
     <use style="fill:#1f77b4;stroke:#1f77b4;" x="109.148401" xlink:href="#m51f69f4862" y="188.114711"/>
     <use style="fill:#1f77b4;stroke:#1f77b4;" x="109.152094" xlink:href="#m51f69f4862" y="188.146131"/>
     <use style="fill:#1f77b4;stroke:#1f77b4;" x="109.155838" xlink:href="#m51f69f4862" y="188.176299"/>
     <use style="fill:#1f77b4;stroke:#1f77b4;" x="109.159603" xlink:href="#m51f69f4862" y="188.20612"/>
     <use style="fill:#1f77b4;stroke:#1f77b4;" x="109.163382" xlink:href="#m51f69f4862" y="188.234672"/>
     <use style="fill:#1f77b4;stroke:#1f77b4;" x="109.16717" xlink:href="#m51f69f4862" y="188.262424"/>
     <use style="fill:#1f77b4;stroke:#1f77b4;" x="109.170936" xlink:href="#m51f69f4862" y="188.290835"/>
     <use style="fill:#1f77b4;stroke:#1f77b4;" x="109.174681" xlink:href="#m51f69f4862" y="188.320162"/>
     <use style="fill:#1f77b4;stroke:#1f77b4;" x="109.178452" xlink:href="#m51f69f4862" y="188.349068"/>
     <use style="fill:#1f77b4;stroke:#1f77b4;" x="109.182218" xlink:href="#m51f69f4862" y="188.377917"/>
    </g>
   </g>
   <g id="patch_3">
    <path d="M 49.665988 277.111219 
L 49.665988 10.999219 
" style="fill:none;stroke:#000000;stroke-linecap:square;stroke-linejoin:miter;stroke-width:0.8;"/>
   </g>
   <g id="patch_4">
    <path d="M 406.785988 277.111219 
L 406.785988 10.999219 
" style="fill:none;stroke:#000000;stroke-linecap:square;stroke-linejoin:miter;stroke-width:0.8;"/>
   </g>
   <g id="patch_5">
    <path d="M 49.665988 277.111219 
L 406.785988 277.111219 
" style="fill:none;stroke:#000000;stroke-linecap:square;stroke-linejoin:miter;stroke-width:0.8;"/>
   </g>
   <g id="patch_6">
    <path d="M 49.665988 10.999219 
L 406.785988 10.999219 
" style="fill:none;stroke:#000000;stroke-linecap:square;stroke-linejoin:miter;stroke-width:0.8;"/>
   </g>
   <g id="text_18">
    <g clip-path="url(#p07a4598482)">
     <!-- 2.500 -->
     <g style="fill:#39558c;" transform="translate(95.93055 230.451813)rotate(-333.792641)scale(0.06 -0.06)">
      <use xlink:href="#DejaVuSans-50"/>
      <use x="63.623047" xlink:href="#DejaVuSans-46"/>
      <use x="95.410156" xlink:href="#DejaVuSans-53"/>
      <use x="159.033203" xlink:href="#DejaVuSans-48"/>
      <use x="222.65625" xlink:href="#DejaVuSans-48"/>
     </g>
    </g>
   </g>
   <g id="text_19">
    <g clip-path="url(#p07a4598482)">
     <!-- 2.500 -->
     <g style="fill:#39558c;" transform="translate(391.007667 64.682836)rotate(-285.381205)scale(0.06 -0.06)">
      <use xlink:href="#DejaVuSans-50"/>
      <use x="63.623047" xlink:href="#DejaVuSans-46"/>
      <use x="95.410156" xlink:href="#DejaVuSans-53"/>
      <use x="159.033203" xlink:href="#DejaVuSans-48"/>
      <use x="222.65625" xlink:href="#DejaVuSans-48"/>
     </g>
    </g>
   </g>
   <g id="text_20">
    <g clip-path="url(#p07a4598482)">
     <!-- 3.000 -->
     <g style="fill:#33638d;" transform="translate(145.757316 64.014543)rotate(-86.999606)scale(0.06 -0.06)">
      <use xlink:href="#DejaVuSans-51"/>
      <use x="63.623047" xlink:href="#DejaVuSans-46"/>
      <use x="95.410156" xlink:href="#DejaVuSans-48"/>
      <use x="159.033203" xlink:href="#DejaVuSans-48"/>
      <use x="222.65625" xlink:href="#DejaVuSans-48"/>
     </g>
    </g>
   </g>
   <g id="text_21">
    <g clip-path="url(#p07a4598482)">
     <!-- 3.500 -->
     <g style="fill:#2d718e;" transform="translate(73.282316 216.110386)rotate(-286.301664)scale(0.06 -0.06)">
      <use xlink:href="#DejaVuSans-51"/>
      <use x="63.623047" xlink:href="#DejaVuSans-46"/>
      <use x="95.410156" xlink:href="#DejaVuSans-53"/>
      <use x="159.033203" xlink:href="#DejaVuSans-48"/>
      <use x="222.65625" xlink:href="#DejaVuSans-48"/>
     </g>
    </g>
   </g>
   <g id="text_22">
    <g clip-path="url(#p07a4598482)">
     <!-- 4.000 -->
     <g style="fill:#287d8e;" transform="translate(69.894334 218.653301)rotate(-283.247337)scale(0.06 -0.06)">
      <use xlink:href="#DejaVuSans-52"/>
      <use x="63.623047" xlink:href="#DejaVuSans-46"/>
      <use x="95.410156" xlink:href="#DejaVuSans-48"/>
      <use x="159.033203" xlink:href="#DejaVuSans-48"/>
      <use x="222.65625" xlink:href="#DejaVuSans-48"/>
     </g>
    </g>
   </g>
   <g id="text_23">
    <g clip-path="url(#p07a4598482)">
     <!-- 4.500 -->
     <g style="fill:#238a8d;" transform="translate(144.015104 64.09254)rotate(-81.072366)scale(0.06 -0.06)">
      <use xlink:href="#DejaVuSans-52"/>
      <use x="63.623047" xlink:href="#DejaVuSans-46"/>
      <use x="95.410156" xlink:href="#DejaVuSans-53"/>
      <use x="159.033203" xlink:href="#DejaVuSans-48"/>
      <use x="222.65625" xlink:href="#DejaVuSans-48"/>
     </g>
    </g>
   </g>
   <g id="text_24">
    <g clip-path="url(#p07a4598482)">
     <!-- 5.000 -->
     <g style="fill:#1f968b;" transform="translate(145.375529 55.168705)rotate(-85.729088)scale(0.06 -0.06)">
      <use xlink:href="#DejaVuSans-53"/>
      <use x="63.623047" xlink:href="#DejaVuSans-46"/>
      <use x="95.410156" xlink:href="#DejaVuSans-48"/>
      <use x="159.033203" xlink:href="#DejaVuSans-48"/>
      <use x="222.65625" xlink:href="#DejaVuSans-48"/>
     </g>
    </g>
   </g>
   <g id="text_25">
    <g clip-path="url(#p07a4598482)">
     <!-- 5.500 -->
     <g style="fill:#20a386;" transform="translate(145.340543 46.333446)rotate(-83.292806)scale(0.06 -0.06)">
      <use xlink:href="#DejaVuSans-53"/>
      <use x="63.623047" xlink:href="#DejaVuSans-46"/>
      <use x="95.410156" xlink:href="#DejaVuSans-53"/>
      <use x="159.033203" xlink:href="#DejaVuSans-48"/>
      <use x="222.65625" xlink:href="#DejaVuSans-48"/>
     </g>
    </g>
   </g>
   <g id="text_26">
    <g clip-path="url(#p07a4598482)">
     <!-- 6.000 -->
     <g style="fill:#29af7f;" transform="translate(70.065457 206.020496)rotate(-80.75209)scale(0.06 -0.06)">
      <use xlink:href="#DejaVuSans-54"/>
      <use x="63.623047" xlink:href="#DejaVuSans-46"/>
      <use x="95.410156" xlink:href="#DejaVuSans-48"/>
      <use x="159.033203" xlink:href="#DejaVuSans-48"/>
      <use x="222.65625" xlink:href="#DejaVuSans-48"/>
     </g>
    </g>
   </g>
   <g id="text_27">
    <g clip-path="url(#p07a4598482)">
     <!-- 6.500 -->
     <g style="fill:#3dbc74;" transform="translate(143.085737 36.895932)rotate(-67.13066)scale(0.06 -0.06)">
      <use xlink:href="#DejaVuSans-54"/>
      <use x="63.623047" xlink:href="#DejaVuSans-46"/>
      <use x="95.410156" xlink:href="#DejaVuSans-53"/>
      <use x="159.033203" xlink:href="#DejaVuSans-48"/>
      <use x="222.65625" xlink:href="#DejaVuSans-48"/>
     </g>
    </g>
   </g>
   <g id="text_28">
    <g clip-path="url(#p07a4598482)">
     <!-- 7.000 -->
     <g style="fill:#56c667;" transform="translate(149.599547 28.082034)rotate(-58.961456)scale(0.06 -0.06)">
      <use xlink:href="#DejaVuSans-55"/>
      <use x="63.623047" xlink:href="#DejaVuSans-46"/>
      <use x="95.410156" xlink:href="#DejaVuSans-48"/>
      <use x="159.033203" xlink:href="#DejaVuSans-48"/>
      <use x="222.65625" xlink:href="#DejaVuSans-48"/>
     </g>
    </g>
   </g>
   <g id="text_29">
    <g clip-path="url(#p07a4598482)">
     <!-- 7.500 -->
     <g style="fill:#75d054;" transform="translate(149.023986 28.034003)rotate(-58.06616)scale(0.06 -0.06)">
      <use xlink:href="#DejaVuSans-55"/>
      <use x="63.623047" xlink:href="#DejaVuSans-46"/>
      <use x="95.410156" xlink:href="#DejaVuSans-53"/>
      <use x="159.033203" xlink:href="#DejaVuSans-48"/>
      <use x="222.65625" xlink:href="#DejaVuSans-48"/>
     </g>
    </g>
   </g>
   <g id="text_30">
    <g clip-path="url(#p07a4598482)">
     <!-- 8.000 -->
     <g style="fill:#95d840;" transform="translate(148.452002 27.985109)rotate(-57.190707)scale(0.06 -0.06)">
      <use xlink:href="#DejaVuSans-56"/>
      <use x="63.623047" xlink:href="#DejaVuSans-46"/>
      <use x="95.410156" xlink:href="#DejaVuSans-48"/>
      <use x="159.033203" xlink:href="#DejaVuSans-48"/>
      <use x="222.65625" xlink:href="#DejaVuSans-48"/>
     </g>
    </g>
   </g>
   <g id="text_31">
    <g clip-path="url(#p07a4598482)">
     <!-- 8.500 -->
     <g style="fill:#bade28;" transform="translate(147.883703 27.935547)rotate(-56.336023)scale(0.06 -0.06)">
      <use xlink:href="#DejaVuSans-56"/>
      <use x="63.623047" xlink:href="#DejaVuSans-46"/>
      <use x="95.410156" xlink:href="#DejaVuSans-53"/>
      <use x="159.033203" xlink:href="#DejaVuSans-48"/>
      <use x="222.65625" xlink:href="#DejaVuSans-48"/>
     </g>
    </g>
   </g>
   <g id="text_32">
    <g clip-path="url(#p07a4598482)">
     <!-- 9.000 -->
     <g style="fill:#dde318;" transform="translate(147.465994 27.948021)rotate(-56.548234)scale(0.06 -0.06)">
      <use xlink:href="#DejaVuSans-57"/>
      <use x="63.623047" xlink:href="#DejaVuSans-46"/>
      <use x="95.410156" xlink:href="#DejaVuSans-48"/>
      <use x="159.033203" xlink:href="#DejaVuSans-48"/>
      <use x="222.65625" xlink:href="#DejaVuSans-48"/>
     </g>
    </g>
   </g>
   <g id="text_33">
    <g clip-path="url(#p07a4598482)">
     <!-- 9.500 -->
     <g style="fill:#fde725;" transform="translate(144.017469 37.455289)rotate(-74.240653)scale(0.06 -0.06)">
      <use xlink:href="#DejaVuSans-57"/>
      <use x="63.623047" xlink:href="#DejaVuSans-46"/>
      <use x="95.410156" xlink:href="#DejaVuSans-53"/>
      <use x="159.033203" xlink:href="#DejaVuSans-48"/>
      <use x="222.65625" xlink:href="#DejaVuSans-48"/>
     </g>
    </g>
   </g>
   <g id="text_34">
    <g clip-path="url(#p07a4598482)">
     <!-- 10.000 -->
     <g style="fill:#440154;" transform="translate(63.645004 240.616702)rotate(-282.598544)scale(0.06 -0.06)">
      <use xlink:href="#DejaVuSans-49"/>
      <use x="63.623047" xlink:href="#DejaVuSans-48"/>
      <use x="127.246094" xlink:href="#DejaVuSans-46"/>
      <use x="159.033203" xlink:href="#DejaVuSans-48"/>
      <use x="222.65625" xlink:href="#DejaVuSans-48"/>
      <use x="286.279297" xlink:href="#DejaVuSans-48"/>
     </g>
    </g>
   </g>
   <g id="text_35">
    <g clip-path="url(#p07a4598482)">
     <!-- 100.000 -->
     <g style="fill:#440154;" transform="translate(103.840542 104.269764)rotate(-57.115428)scale(0.06 -0.06)">
      <use xlink:href="#DejaVuSans-49"/>
      <use x="63.623047" xlink:href="#DejaVuSans-48"/>
      <use x="127.246094" xlink:href="#DejaVuSans-48"/>
      <use x="190.869141" xlink:href="#DejaVuSans-46"/>
      <use x="222.65625" xlink:href="#DejaVuSans-48"/>
      <use x="286.279297" xlink:href="#DejaVuSans-48"/>
      <use x="349.902344" xlink:href="#DejaVuSans-48"/>
     </g>
    </g>
   </g>
   <g id="text_36">
    <g clip-path="url(#p07a4598482)">
     <!-- 1000.000 -->
     <g style="fill:#440154;" transform="translate(94.704409 95.094826)rotate(-59.092707)scale(0.06 -0.06)">
      <use xlink:href="#DejaVuSans-49"/>
      <use x="63.623047" xlink:href="#DejaVuSans-48"/>
      <use x="127.246094" xlink:href="#DejaVuSans-48"/>
      <use x="190.869141" xlink:href="#DejaVuSans-48"/>
      <use x="254.492188" xlink:href="#DejaVuSans-46"/>
      <use x="286.279297" xlink:href="#DejaVuSans-48"/>
      <use x="349.902344" xlink:href="#DejaVuSans-48"/>
      <use x="413.525391" xlink:href="#DejaVuSans-48"/>
     </g>
    </g>
   </g>
   <g id="text_37">
    <g clip-path="url(#p07a4598482)">
     <!-- 10000.000 -->
     <g style="fill:#440154;" transform="translate(88.046541 78.790965)rotate(-57.477088)scale(0.06 -0.06)">
      <use xlink:href="#DejaVuSans-49"/>
      <use x="63.623047" xlink:href="#DejaVuSans-48"/>
      <use x="127.246094" xlink:href="#DejaVuSans-48"/>
      <use x="190.869141" xlink:href="#DejaVuSans-48"/>
      <use x="254.492188" xlink:href="#DejaVuSans-48"/>
      <use x="318.115234" xlink:href="#DejaVuSans-46"/>
      <use x="349.902344" xlink:href="#DejaVuSans-48"/>
      <use x="413.525391" xlink:href="#DejaVuSans-48"/>
      <use x="477.148438" xlink:href="#DejaVuSans-48"/>
     </g>
    </g>
   </g>
   <g id="text_38">
    <g clip-path="url(#p07a4598482)">
     <!-- 100000.000 -->
     <g style="fill:#440154;" transform="translate(75.229812 71.336544)rotate(-56.17858)scale(0.06 -0.06)">
      <use xlink:href="#DejaVuSans-49"/>
      <use x="63.623047" xlink:href="#DejaVuSans-48"/>
      <use x="127.246094" xlink:href="#DejaVuSans-48"/>
      <use x="190.869141" xlink:href="#DejaVuSans-48"/>
      <use x="254.492188" xlink:href="#DejaVuSans-48"/>
      <use x="318.115234" xlink:href="#DejaVuSans-48"/>
      <use x="381.738281" xlink:href="#DejaVuSans-46"/>
      <use x="413.525391" xlink:href="#DejaVuSans-48"/>
      <use x="477.148438" xlink:href="#DejaVuSans-48"/>
      <use x="540.771484" xlink:href="#DejaVuSans-48"/>
     </g>
    </g>
   </g>
   <g id="text_39">
    <g clip-path="url(#p07a4598482)">
     <!-- 1000000.000 -->
     <g style="fill:#450457;" transform="translate(63.172202 61.003032)rotate(-54.460781)scale(0.06 -0.06)">
      <use xlink:href="#DejaVuSans-49"/>
      <use x="63.623047" xlink:href="#DejaVuSans-48"/>
      <use x="127.246094" xlink:href="#DejaVuSans-48"/>
      <use x="190.869141" xlink:href="#DejaVuSans-48"/>
      <use x="254.492188" xlink:href="#DejaVuSans-48"/>
      <use x="318.115234" xlink:href="#DejaVuSans-48"/>
      <use x="381.738281" xlink:href="#DejaVuSans-48"/>
      <use x="445.361328" xlink:href="#DejaVuSans-46"/>
      <use x="477.148438" xlink:href="#DejaVuSans-48"/>
      <use x="540.771484" xlink:href="#DejaVuSans-48"/>
      <use x="604.394531" xlink:href="#DejaVuSans-48"/>
     </g>
    </g>
   </g>
  </g>
 </g>
 <defs>
  <clipPath id="p07a4598482">
   <rect height="266.112" width="357.12" x="49.665988" y="10.999219"/>
  </clipPath>
 </defs>
</svg>
