<?xml version="1.0" encoding="utf-8" standalone="no"?>
<!DOCTYPE svg PUBLIC "-//W3C//DTD SVG 1.1//EN"
  "http://www.w3.org/Graphics/SVG/1.1/DTD/svg11.dtd">
<!-- Created with matplotlib (https://matplotlib.org/) -->
<svg height="321.713144pt" version="1.1" viewBox="0 0 420.348487 321.713144" width="420.348487pt" xmlns="http://www.w3.org/2000/svg" xmlns:xlink="http://www.w3.org/1999/xlink">
 <metadata>
  <rdf:RDF xmlns:cc="http://creativecommons.org/ns#" xmlns:dc="http://purl.org/dc/elements/1.1/" xmlns:rdf="http://www.w3.org/1999/02/22-rdf-syntax-ns#">
   <cc:Work>
    <dc:type rdf:resource="http://purl.org/dc/dcmitype/StillImage"/>
    <dc:date>2021-09-18T18:16:11.008356</dc:date>
    <dc:format>image/svg+xml</dc:format>
    <dc:creator>
     <cc:Agent>
      <dc:title>Matplotlib v3.3.1, https://matplotlib.org/</dc:title>
     </cc:Agent>
    </dc:creator>
   </cc:Work>
  </rdf:RDF>
 </metadata>
 <defs>
  <style type="text/css">*{stroke-linecap:butt;stroke-linejoin:round;}</style>
 </defs>
 <g id="figure_1">
  <g id="patch_1">
   <path d="M 0 321.713144 
L 420.348487 321.713144 
L 420.348487 0 
L 0 0 
z
" style="fill:#ffffff;"/>
  </g>
  <g id="axes_1">
   <g id="patch_2">
    <path d="M 56.028488 277.111219 
L 413.148488 277.111219 
L 413.148488 10.999219 
L 56.028488 10.999219 
z
" style="fill:#ffffff;"/>
   </g>
   <g id="matplotlib.axis_1">
    <g id="xtick_1">
     <g id="line2d_1">
      <defs>
       <path d="M 0 0 
L 0 3.5 
" id="mc0e1cc4702" style="stroke:#000000;stroke-width:0.8;"/>
      </defs>
      <g>
       <use style="stroke:#000000;stroke-width:0.8;" x="56.028487" xlink:href="#mc0e1cc4702" y="277.111219"/>
      </g>
     </g>
     <g id="text_1">
      <!-- −10 -->
      <g transform="translate(45.476144 291.709656)scale(0.1 -0.1)">
       <defs>
        <path d="M 10.59375 35.5 
L 73.1875 35.5 
L 73.1875 27.203125 
L 10.59375 27.203125 
z
" id="DejaVuSans-8722"/>
        <path d="M 12.40625 8.296875 
L 28.515625 8.296875 
L 28.515625 63.921875 
L 10.984375 60.40625 
L 10.984375 69.390625 
L 28.421875 72.90625 
L 38.28125 72.90625 
L 38.28125 8.296875 
L 54.390625 8.296875 
L 54.390625 0 
L 12.40625 0 
z
" id="DejaVuSans-49"/>
        <path d="M 31.78125 66.40625 
Q 24.171875 66.40625 20.328125 58.90625 
Q 16.5 51.421875 16.5 36.375 
Q 16.5 21.390625 20.328125 13.890625 
Q 24.171875 6.390625 31.78125 6.390625 
Q 39.453125 6.390625 43.28125 13.890625 
Q 47.125 21.390625 47.125 36.375 
Q 47.125 51.421875 43.28125 58.90625 
Q 39.453125 66.40625 31.78125 66.40625 
z
M 31.78125 74.21875 
Q 44.046875 74.21875 50.515625 64.515625 
Q 56.984375 54.828125 56.984375 36.375 
Q 56.984375 17.96875 50.515625 8.265625 
Q 44.046875 -1.421875 31.78125 -1.421875 
Q 19.53125 -1.421875 13.0625 8.265625 
Q 6.59375 17.96875 6.59375 36.375 
Q 6.59375 54.828125 13.0625 64.515625 
Q 19.53125 74.21875 31.78125 74.21875 
z
" id="DejaVuSans-48"/>
       </defs>
       <use xlink:href="#DejaVuSans-8722"/>
       <use x="83.789062" xlink:href="#DejaVuSans-49"/>
       <use x="147.412109" xlink:href="#DejaVuSans-48"/>
      </g>
     </g>
    </g>
    <g id="xtick_2">
     <g id="line2d_2">
      <g>
       <use style="stroke:#000000;stroke-width:0.8;" x="132.429847" xlink:href="#mc0e1cc4702" y="277.111219"/>
      </g>
     </g>
     <g id="text_2">
      <!-- 0 -->
      <g transform="translate(129.248597 291.709656)scale(0.1 -0.1)">
       <use xlink:href="#DejaVuSans-48"/>
      </g>
     </g>
    </g>
    <g id="xtick_3">
     <g id="line2d_3">
      <g>
       <use style="stroke:#000000;stroke-width:0.8;" x="208.831206" xlink:href="#mc0e1cc4702" y="277.111219"/>
      </g>
     </g>
     <g id="text_3">
      <!-- 10 -->
      <g transform="translate(202.468706 291.709656)scale(0.1 -0.1)">
       <use xlink:href="#DejaVuSans-49"/>
       <use x="63.623047" xlink:href="#DejaVuSans-48"/>
      </g>
     </g>
    </g>
    <g id="xtick_4">
     <g id="line2d_4">
      <g>
       <use style="stroke:#000000;stroke-width:0.8;" x="285.232565" xlink:href="#mc0e1cc4702" y="277.111219"/>
      </g>
     </g>
     <g id="text_4">
      <!-- 20 -->
      <g transform="translate(278.870065 291.709656)scale(0.1 -0.1)">
       <defs>
        <path d="M 19.1875 8.296875 
L 53.609375 8.296875 
L 53.609375 0 
L 7.328125 0 
L 7.328125 8.296875 
Q 12.9375 14.109375 22.625 23.890625 
Q 32.328125 33.6875 34.8125 36.53125 
Q 39.546875 41.84375 41.421875 45.53125 
Q 43.3125 49.21875 43.3125 52.78125 
Q 43.3125 58.59375 39.234375 62.25 
Q 35.15625 65.921875 28.609375 65.921875 
Q 23.96875 65.921875 18.8125 64.3125 
Q 13.671875 62.703125 7.8125 59.421875 
L 7.8125 69.390625 
Q 13.765625 71.78125 18.9375 73 
Q 24.125 74.21875 28.421875 74.21875 
Q 39.75 74.21875 46.484375 68.546875 
Q 53.21875 62.890625 53.21875 53.421875 
Q 53.21875 48.921875 51.53125 44.890625 
Q 49.859375 40.875 45.40625 35.40625 
Q 44.1875 33.984375 37.640625 27.21875 
Q 31.109375 20.453125 19.1875 8.296875 
z
" id="DejaVuSans-50"/>
       </defs>
       <use xlink:href="#DejaVuSans-50"/>
       <use x="63.623047" xlink:href="#DejaVuSans-48"/>
      </g>
     </g>
    </g>
    <g id="xtick_5">
     <g id="line2d_5">
      <g>
       <use style="stroke:#000000;stroke-width:0.8;" x="361.633924" xlink:href="#mc0e1cc4702" y="277.111219"/>
      </g>
     </g>
     <g id="text_5">
      <!-- 30 -->
      <g transform="translate(355.271424 291.709656)scale(0.1 -0.1)">
       <defs>
        <path d="M 40.578125 39.3125 
Q 47.65625 37.796875 51.625 33 
Q 55.609375 28.21875 55.609375 21.1875 
Q 55.609375 10.40625 48.1875 4.484375 
Q 40.765625 -1.421875 27.09375 -1.421875 
Q 22.515625 -1.421875 17.65625 -0.515625 
Q 12.796875 0.390625 7.625 2.203125 
L 7.625 11.71875 
Q 11.71875 9.328125 16.59375 8.109375 
Q 21.484375 6.890625 26.8125 6.890625 
Q 36.078125 6.890625 40.9375 10.546875 
Q 45.796875 14.203125 45.796875 21.1875 
Q 45.796875 27.640625 41.28125 31.265625 
Q 36.765625 34.90625 28.71875 34.90625 
L 20.21875 34.90625 
L 20.21875 43.015625 
L 29.109375 43.015625 
Q 36.375 43.015625 40.234375 45.921875 
Q 44.09375 48.828125 44.09375 54.296875 
Q 44.09375 59.90625 40.109375 62.90625 
Q 36.140625 65.921875 28.71875 65.921875 
Q 24.65625 65.921875 20.015625 65.03125 
Q 15.375 64.15625 9.8125 62.3125 
L 9.8125 71.09375 
Q 15.4375 72.65625 20.34375 73.4375 
Q 25.25 74.21875 29.59375 74.21875 
Q 40.828125 74.21875 47.359375 69.109375 
Q 53.90625 64.015625 53.90625 55.328125 
Q 53.90625 49.265625 50.4375 45.09375 
Q 46.96875 40.921875 40.578125 39.3125 
z
" id="DejaVuSans-51"/>
       </defs>
       <use xlink:href="#DejaVuSans-51"/>
       <use x="63.623047" xlink:href="#DejaVuSans-48"/>
      </g>
     </g>
    </g>
    <g id="text_6">
     <!-- 1st PC: 84.40 % -->
     <g transform="translate(165.868088 310.919444)scale(0.1728 -0.1728)">
      <defs>
       <path d="M 44.28125 53.078125 
L 44.28125 44.578125 
Q 40.484375 46.53125 36.375 47.5 
Q 32.28125 48.484375 27.875 48.484375 
Q 21.1875 48.484375 17.84375 46.4375 
Q 14.5 44.390625 14.5 40.28125 
Q 14.5 37.15625 16.890625 35.375 
Q 19.28125 33.59375 26.515625 31.984375 
L 29.59375 31.296875 
Q 39.15625 29.25 43.1875 25.515625 
Q 47.21875 21.78125 47.21875 15.09375 
Q 47.21875 7.46875 41.1875 3.015625 
Q 35.15625 -1.421875 24.609375 -1.421875 
Q 20.21875 -1.421875 15.453125 -0.5625 
Q 10.6875 0.296875 5.421875 2 
L 5.421875 11.28125 
Q 10.40625 8.6875 15.234375 7.390625 
Q 20.0625 6.109375 24.8125 6.109375 
Q 31.15625 6.109375 34.5625 8.28125 
Q 37.984375 10.453125 37.984375 14.40625 
Q 37.984375 18.0625 35.515625 20.015625 
Q 33.0625 21.96875 24.703125 23.78125 
L 21.578125 24.515625 
Q 13.234375 26.265625 9.515625 29.90625 
Q 5.8125 33.546875 5.8125 39.890625 
Q 5.8125 47.609375 11.28125 51.796875 
Q 16.75 56 26.8125 56 
Q 31.78125 56 36.171875 55.265625 
Q 40.578125 54.546875 44.28125 53.078125 
z
" id="DejaVuSans-115"/>
       <path d="M 18.3125 70.21875 
L 18.3125 54.6875 
L 36.8125 54.6875 
L 36.8125 47.703125 
L 18.3125 47.703125 
L 18.3125 18.015625 
Q 18.3125 11.328125 20.140625 9.421875 
Q 21.96875 7.515625 27.59375 7.515625 
L 36.8125 7.515625 
L 36.8125 0 
L 27.59375 0 
Q 17.1875 0 13.234375 3.875 
Q 9.28125 7.765625 9.28125 18.015625 
L 9.28125 47.703125 
L 2.6875 47.703125 
L 2.6875 54.6875 
L 9.28125 54.6875 
L 9.28125 70.21875 
z
" id="DejaVuSans-116"/>
       <path id="DejaVuSans-32"/>
       <path d="M 19.671875 64.796875 
L 19.671875 37.40625 
L 32.078125 37.40625 
Q 38.96875 37.40625 42.71875 40.96875 
Q 46.484375 44.53125 46.484375 51.125 
Q 46.484375 57.671875 42.71875 61.234375 
Q 38.96875 64.796875 32.078125 64.796875 
z
M 9.8125 72.90625 
L 32.078125 72.90625 
Q 44.34375 72.90625 50.609375 67.359375 
Q 56.890625 61.8125 56.890625 51.125 
Q 56.890625 40.328125 50.609375 34.8125 
Q 44.34375 29.296875 32.078125 29.296875 
L 19.671875 29.296875 
L 19.671875 0 
L 9.8125 0 
z
" id="DejaVuSans-80"/>
       <path d="M 64.40625 67.28125 
L 64.40625 56.890625 
Q 59.421875 61.53125 53.78125 63.8125 
Q 48.140625 66.109375 41.796875 66.109375 
Q 29.296875 66.109375 22.65625 58.46875 
Q 16.015625 50.828125 16.015625 36.375 
Q 16.015625 21.96875 22.65625 14.328125 
Q 29.296875 6.6875 41.796875 6.6875 
Q 48.140625 6.6875 53.78125 8.984375 
Q 59.421875 11.28125 64.40625 15.921875 
L 64.40625 5.609375 
Q 59.234375 2.09375 53.4375 0.328125 
Q 47.65625 -1.421875 41.21875 -1.421875 
Q 24.65625 -1.421875 15.125 8.703125 
Q 5.609375 18.84375 5.609375 36.375 
Q 5.609375 53.953125 15.125 64.078125 
Q 24.65625 74.21875 41.21875 74.21875 
Q 47.75 74.21875 53.53125 72.484375 
Q 59.328125 70.75 64.40625 67.28125 
z
" id="DejaVuSans-67"/>
       <path d="M 11.71875 12.40625 
L 22.015625 12.40625 
L 22.015625 0 
L 11.71875 0 
z
M 11.71875 51.703125 
L 22.015625 51.703125 
L 22.015625 39.3125 
L 11.71875 39.3125 
z
" id="DejaVuSans-58"/>
       <path d="M 31.78125 34.625 
Q 24.75 34.625 20.71875 30.859375 
Q 16.703125 27.09375 16.703125 20.515625 
Q 16.703125 13.921875 20.71875 10.15625 
Q 24.75 6.390625 31.78125 6.390625 
Q 38.8125 6.390625 42.859375 10.171875 
Q 46.921875 13.96875 46.921875 20.515625 
Q 46.921875 27.09375 42.890625 30.859375 
Q 38.875 34.625 31.78125 34.625 
z
M 21.921875 38.8125 
Q 15.578125 40.375 12.03125 44.71875 
Q 8.5 49.078125 8.5 55.328125 
Q 8.5 64.0625 14.71875 69.140625 
Q 20.953125 74.21875 31.78125 74.21875 
Q 42.671875 74.21875 48.875 69.140625 
Q 55.078125 64.0625 55.078125 55.328125 
Q 55.078125 49.078125 51.53125 44.71875 
Q 48 40.375 41.703125 38.8125 
Q 48.828125 37.15625 52.796875 32.3125 
Q 56.78125 27.484375 56.78125 20.515625 
Q 56.78125 9.90625 50.3125 4.234375 
Q 43.84375 -1.421875 31.78125 -1.421875 
Q 19.734375 -1.421875 13.25 4.234375 
Q 6.78125 9.90625 6.78125 20.515625 
Q 6.78125 27.484375 10.78125 32.3125 
Q 14.796875 37.15625 21.921875 38.8125 
z
M 18.3125 54.390625 
Q 18.3125 48.734375 21.84375 45.5625 
Q 25.390625 42.390625 31.78125 42.390625 
Q 38.140625 42.390625 41.71875 45.5625 
Q 45.3125 48.734375 45.3125 54.390625 
Q 45.3125 60.0625 41.71875 63.234375 
Q 38.140625 66.40625 31.78125 66.40625 
Q 25.390625 66.40625 21.84375 63.234375 
Q 18.3125 60.0625 18.3125 54.390625 
z
" id="DejaVuSans-56"/>
       <path d="M 37.796875 64.3125 
L 12.890625 25.390625 
L 37.796875 25.390625 
z
M 35.203125 72.90625 
L 47.609375 72.90625 
L 47.609375 25.390625 
L 58.015625 25.390625 
L 58.015625 17.1875 
L 47.609375 17.1875 
L 47.609375 0 
L 37.796875 0 
L 37.796875 17.1875 
L 4.890625 17.1875 
L 4.890625 26.703125 
z
" id="DejaVuSans-52"/>
       <path d="M 10.6875 12.40625 
L 21 12.40625 
L 21 0 
L 10.6875 0 
z
" id="DejaVuSans-46"/>
       <path d="M 72.703125 32.078125 
Q 68.453125 32.078125 66.03125 28.46875 
Q 63.625 24.859375 63.625 18.40625 
Q 63.625 12.0625 66.03125 8.421875 
Q 68.453125 4.78125 72.703125 4.78125 
Q 76.859375 4.78125 79.265625 8.421875 
Q 81.6875 12.0625 81.6875 18.40625 
Q 81.6875 24.8125 79.265625 28.4375 
Q 76.859375 32.078125 72.703125 32.078125 
z
M 72.703125 38.28125 
Q 80.421875 38.28125 84.953125 32.90625 
Q 89.5 27.546875 89.5 18.40625 
Q 89.5 9.28125 84.9375 3.921875 
Q 80.375 -1.421875 72.703125 -1.421875 
Q 64.890625 -1.421875 60.34375 3.921875 
Q 55.8125 9.28125 55.8125 18.40625 
Q 55.8125 27.59375 60.375 32.9375 
Q 64.9375 38.28125 72.703125 38.28125 
z
M 22.3125 68.015625 
Q 18.109375 68.015625 15.6875 64.375 
Q 13.28125 60.75 13.28125 54.390625 
Q 13.28125 47.953125 15.671875 44.328125 
Q 18.0625 40.71875 22.3125 40.71875 
Q 26.5625 40.71875 28.96875 44.328125 
Q 31.390625 47.953125 31.390625 54.390625 
Q 31.390625 60.6875 28.953125 64.34375 
Q 26.515625 68.015625 22.3125 68.015625 
z
M 66.40625 74.21875 
L 74.21875 74.21875 
L 28.609375 -1.421875 
L 20.796875 -1.421875 
z
M 22.3125 74.21875 
Q 30.03125 74.21875 34.609375 68.875 
Q 39.203125 63.53125 39.203125 54.390625 
Q 39.203125 45.171875 34.640625 39.84375 
Q 30.078125 34.515625 22.3125 34.515625 
Q 14.546875 34.515625 10.03125 39.859375 
Q 5.515625 45.21875 5.515625 54.390625 
Q 5.515625 63.484375 10.046875 68.84375 
Q 14.59375 74.21875 22.3125 74.21875 
z
" id="DejaVuSans-37"/>
      </defs>
      <use xlink:href="#DejaVuSans-49"/>
      <use x="63.623047" xlink:href="#DejaVuSans-115"/>
      <use x="115.722656" xlink:href="#DejaVuSans-116"/>
      <use x="154.931641" xlink:href="#DejaVuSans-32"/>
      <use x="186.71875" xlink:href="#DejaVuSans-80"/>
      <use x="247.021484" xlink:href="#DejaVuSans-67"/>
      <use x="316.845703" xlink:href="#DejaVuSans-58"/>
      <use x="350.537109" xlink:href="#DejaVuSans-32"/>
      <use x="382.324219" xlink:href="#DejaVuSans-56"/>
      <use x="445.947266" xlink:href="#DejaVuSans-52"/>
      <use x="509.570312" xlink:href="#DejaVuSans-46"/>
      <use x="541.357422" xlink:href="#DejaVuSans-52"/>
      <use x="604.980469" xlink:href="#DejaVuSans-48"/>
      <use x="668.603516" xlink:href="#DejaVuSans-32"/>
      <use x="700.390625" xlink:href="#DejaVuSans-37"/>
     </g>
    </g>
   </g>
   <g id="matplotlib.axis_2">
    <g id="ytick_1">
     <g id="line2d_6">
      <defs>
       <path d="M 0 0 
L -3.5 0 
" id="m74931ba8ba" style="stroke:#000000;stroke-width:0.8;"/>
      </defs>
      <g>
       <use style="stroke:#000000;stroke-width:0.8;" x="56.028488" xlink:href="#m74931ba8ba" y="277.111219"/>
      </g>
     </g>
     <g id="text_7">
      <!-- −15 -->
      <g transform="translate(27.9238 280.910438)scale(0.1 -0.1)">
       <defs>
        <path d="M 10.796875 72.90625 
L 49.515625 72.90625 
L 49.515625 64.59375 
L 19.828125 64.59375 
L 19.828125 46.734375 
Q 21.96875 47.46875 24.109375 47.828125 
Q 26.265625 48.1875 28.421875 48.1875 
Q 40.625 48.1875 47.75 41.5 
Q 54.890625 34.8125 54.890625 23.390625 
Q 54.890625 11.625 47.5625 5.09375 
Q 40.234375 -1.421875 26.90625 -1.421875 
Q 22.3125 -1.421875 17.546875 -0.640625 
Q 12.796875 0.140625 7.71875 1.703125 
L 7.71875 11.625 
Q 12.109375 9.234375 16.796875 8.0625 
Q 21.484375 6.890625 26.703125 6.890625 
Q 35.15625 6.890625 40.078125 11.328125 
Q 45.015625 15.765625 45.015625 23.390625 
Q 45.015625 31 40.078125 35.4375 
Q 35.15625 39.890625 26.703125 39.890625 
Q 22.75 39.890625 18.8125 39.015625 
Q 14.890625 38.140625 10.796875 36.28125 
z
" id="DejaVuSans-53"/>
       </defs>
       <use xlink:href="#DejaVuSans-8722"/>
       <use x="83.789062" xlink:href="#DejaVuSans-49"/>
       <use x="147.412109" xlink:href="#DejaVuSans-53"/>
      </g>
     </g>
    </g>
    <g id="ytick_2">
     <g id="line2d_7">
      <g>
       <use style="stroke:#000000;stroke-width:0.8;" x="56.028488" xlink:href="#m74931ba8ba" y="223.888819"/>
      </g>
     </g>
     <g id="text_8">
      <!-- −10 -->
      <g transform="translate(27.9238 227.688037)scale(0.1 -0.1)">
       <use xlink:href="#DejaVuSans-8722"/>
       <use x="83.789062" xlink:href="#DejaVuSans-49"/>
       <use x="147.412109" xlink:href="#DejaVuSans-48"/>
      </g>
     </g>
    </g>
    <g id="ytick_3">
     <g id="line2d_8">
      <g>
       <use style="stroke:#000000;stroke-width:0.8;" x="56.028488" xlink:href="#m74931ba8ba" y="170.666419"/>
      </g>
     </g>
     <g id="text_9">
      <!-- −5 -->
      <g transform="translate(34.2863 174.465637)scale(0.1 -0.1)">
       <use xlink:href="#DejaVuSans-8722"/>
       <use x="83.789062" xlink:href="#DejaVuSans-53"/>
      </g>
     </g>
    </g>
    <g id="ytick_4">
     <g id="line2d_9">
      <g>
       <use style="stroke:#000000;stroke-width:0.8;" x="56.028488" xlink:href="#m74931ba8ba" y="117.444019"/>
      </g>
     </g>
     <g id="text_10">
      <!-- 0 -->
      <g transform="translate(42.665987 121.243237)scale(0.1 -0.1)">
       <use xlink:href="#DejaVuSans-48"/>
      </g>
     </g>
    </g>
    <g id="ytick_5">
     <g id="line2d_10">
      <g>
       <use style="stroke:#000000;stroke-width:0.8;" x="56.028488" xlink:href="#m74931ba8ba" y="64.221619"/>
      </g>
     </g>
     <g id="text_11">
      <!-- 5 -->
      <g transform="translate(42.665987 68.020837)scale(0.1 -0.1)">
       <use xlink:href="#DejaVuSans-53"/>
      </g>
     </g>
    </g>
    <g id="ytick_6">
     <g id="line2d_11">
      <g>
       <use style="stroke:#000000;stroke-width:0.8;" x="56.028488" xlink:href="#m74931ba8ba" y="10.999219"/>
      </g>
     </g>
     <g id="text_12">
      <!-- 10 -->
      <g transform="translate(36.303488 14.798437)scale(0.1 -0.1)">
       <use xlink:href="#DejaVuSans-49"/>
       <use x="63.623047" xlink:href="#DejaVuSans-48"/>
      </g>
     </g>
    </g>
    <g id="text_13">
     <!-- 2nd PC: 13.46 % -->
     <g transform="translate(20.3301 215.848219)rotate(-90)scale(0.1728 -0.1728)">
      <defs>
       <path d="M 54.890625 33.015625 
L 54.890625 0 
L 45.90625 0 
L 45.90625 32.71875 
Q 45.90625 40.484375 42.875 44.328125 
Q 39.84375 48.1875 33.796875 48.1875 
Q 26.515625 48.1875 22.3125 43.546875 
Q 18.109375 38.921875 18.109375 30.90625 
L 18.109375 0 
L 9.078125 0 
L 9.078125 54.6875 
L 18.109375 54.6875 
L 18.109375 46.1875 
Q 21.34375 51.125 25.703125 53.5625 
Q 30.078125 56 35.796875 56 
Q 45.21875 56 50.046875 50.171875 
Q 54.890625 44.34375 54.890625 33.015625 
z
" id="DejaVuSans-110"/>
       <path d="M 45.40625 46.390625 
L 45.40625 75.984375 
L 54.390625 75.984375 
L 54.390625 0 
L 45.40625 0 
L 45.40625 8.203125 
Q 42.578125 3.328125 38.25 0.953125 
Q 33.9375 -1.421875 27.875 -1.421875 
Q 17.96875 -1.421875 11.734375 6.484375 
Q 5.515625 14.40625 5.515625 27.296875 
Q 5.515625 40.1875 11.734375 48.09375 
Q 17.96875 56 27.875 56 
Q 33.9375 56 38.25 53.625 
Q 42.578125 51.265625 45.40625 46.390625 
z
M 14.796875 27.296875 
Q 14.796875 17.390625 18.875 11.75 
Q 22.953125 6.109375 30.078125 6.109375 
Q 37.203125 6.109375 41.296875 11.75 
Q 45.40625 17.390625 45.40625 27.296875 
Q 45.40625 37.203125 41.296875 42.84375 
Q 37.203125 48.484375 30.078125 48.484375 
Q 22.953125 48.484375 18.875 42.84375 
Q 14.796875 37.203125 14.796875 27.296875 
z
" id="DejaVuSans-100"/>
       <path d="M 33.015625 40.375 
Q 26.375 40.375 22.484375 35.828125 
Q 18.609375 31.296875 18.609375 23.390625 
Q 18.609375 15.53125 22.484375 10.953125 
Q 26.375 6.390625 33.015625 6.390625 
Q 39.65625 6.390625 43.53125 10.953125 
Q 47.40625 15.53125 47.40625 23.390625 
Q 47.40625 31.296875 43.53125 35.828125 
Q 39.65625 40.375 33.015625 40.375 
z
M 52.59375 71.296875 
L 52.59375 62.3125 
Q 48.875 64.0625 45.09375 64.984375 
Q 41.3125 65.921875 37.59375 65.921875 
Q 27.828125 65.921875 22.671875 59.328125 
Q 17.53125 52.734375 16.796875 39.40625 
Q 19.671875 43.65625 24.015625 45.921875 
Q 28.375 48.1875 33.59375 48.1875 
Q 44.578125 48.1875 50.953125 41.515625 
Q 57.328125 34.859375 57.328125 23.390625 
Q 57.328125 12.15625 50.6875 5.359375 
Q 44.046875 -1.421875 33.015625 -1.421875 
Q 20.359375 -1.421875 13.671875 8.265625 
Q 6.984375 17.96875 6.984375 36.375 
Q 6.984375 53.65625 15.1875 63.9375 
Q 23.390625 74.21875 37.203125 74.21875 
Q 40.921875 74.21875 44.703125 73.484375 
Q 48.484375 72.75 52.59375 71.296875 
z
" id="DejaVuSans-54"/>
      </defs>
      <use xlink:href="#DejaVuSans-50"/>
      <use x="63.623047" xlink:href="#DejaVuSans-110"/>
      <use x="127.001953" xlink:href="#DejaVuSans-100"/>
      <use x="190.478516" xlink:href="#DejaVuSans-32"/>
      <use x="222.265625" xlink:href="#DejaVuSans-80"/>
      <use x="282.568359" xlink:href="#DejaVuSans-67"/>
      <use x="352.392578" xlink:href="#DejaVuSans-58"/>
      <use x="386.083984" xlink:href="#DejaVuSans-32"/>
      <use x="417.871094" xlink:href="#DejaVuSans-49"/>
      <use x="481.494141" xlink:href="#DejaVuSans-51"/>
      <use x="545.117188" xlink:href="#DejaVuSans-46"/>
      <use x="576.904297" xlink:href="#DejaVuSans-52"/>
      <use x="640.527344" xlink:href="#DejaVuSans-54"/>
      <use x="704.150391" xlink:href="#DejaVuSans-32"/>
      <use x="735.9375" xlink:href="#DejaVuSans-37"/>
     </g>
    </g>
   </g>
   <g id="LineCollection_1"/>
   <g id="LineCollection_2"/>
   <g id="LineCollection_3"/>
   <g id="LineCollection_4"/>
   <g id="LineCollection_5"/>
   <g id="LineCollection_6">
    <path clip-path="url(#pa601041cc3)" d="M 285.232565 150.399477 
L 279.389308 152.925619 
L 277.592429 153.477868 
L 269.952293 155.420642 
L 262.312157 156.862652 
L 254.672021 157.478704 
L 247.031886 157.105888 
L 239.39175 155.914889 
L 231.751614 154.272765 
L 226.067743 152.925619 
L 224.111478 152.434109 
L 216.825938 150.624256 
" style="fill:none;stroke:#39558c;stroke-width:1.5;"/>
    <path clip-path="url(#pa601041cc3)" d="M 200.792812 147.370937 
L 193.550934 147.07176 
L 185.910798 148.040613 
L 178.270662 150.310102 
L 174.424921 152.925619 
L 170.630526 155.388161 
L 166.448772 161.796019 
L 162.99039 170.068105 
L 162.846303 170.666419 
L 162.392434 179.536819 
L 162.99039 185.958265 
L 163.386117 188.407219 
L 162.99039 188.967466 
L 155.350254 190.850033 
L 153.626391 188.407219 
L 147.710119 180.191389 
L 147.525132 179.536819 
L 144.382617 170.666419 
L 140.069983 165.230458 
L 138.021435 161.796019 
L 132.429847 155.359594 
L 129.966535 152.925619 
L 124.789711 147.116228 
L 121.738354 144.055219 
L 117.149575 135.923386 
L 117.080401 135.184819 
L 117.149575 133.401745 
L 118.439137 126.314419 
L 121.173794 117.444019 
L 124.789711 110.658871 
L 127.612893 108.573619 
L 132.429847 106.829468 
L 140.069983 103.471032 
L 144.984801 99.703219 
L 147.710119 98.191435 
L 154.463355 90.832819 
L 155.350254 89.621472 
L 160.726907 81.962419 
L 162.514392 73.092019 
L 162.99039 66.300968 
L 164.09282 64.221619 
L 167.167125 55.351219 
L 168.682263 46.480819 
L 169.511871 37.610419 
L 170.340786 28.740019 
L 170.588225 19.869619 
L 170.630526 19.04989 
L 177.550753 10.999219 
" style="fill:none;stroke:#39558c;stroke-width:1.5;"/>
    <path clip-path="url(#pa601041cc3)" d="M 265.481963 10.999219 
L 269.952293 17.873729 
L 271.012076 19.869619 
L 272.84985 23.616191 
" style="fill:none;stroke:#39558c;stroke-width:1.5;"/>
    <path clip-path="url(#pa601041cc3)" d="M 280.540031 45.535605 
L 280.755447 46.480819 
L 283.094155 55.351219 
L 285.232565 61.447717 
" style="fill:none;stroke:#39558c;stroke-width:1.5;"/>
    <path clip-path="url(#pa601041cc3)" d="M 216.619301 214.784298 
L 216.684587 215.018419 
L 216.471342 215.118841 
L 208.831206 215.415694 
L 203.110698 215.018419 
L 201.19107 209.598351 
L 199.839099 206.148019 
L 201.19107 205.526893 
L 202.932689 205.323394 
" style="fill:none;stroke:#39558c;stroke-width:1.5;"/>
   </g>
   <g id="LineCollection_7">
    <path clip-path="url(#pa601041cc3)" d="M 285.232565 185.700712 
L 277.794712 188.407219 
L 277.592429 188.468898 
L 269.952293 191.028666 
L 262.312157 194.250238 
L 256.017664 197.277619 
L 254.672021 197.926256 
L 247.031886 205.195669 
L 246.367716 206.148019 
L 242.448938 215.018419 
L 241.253049 223.888819 
L 239.496704 231.678739 
" style="fill:none;stroke:#33638d;stroke-width:1.5;"/>
    <path clip-path="url(#pa601041cc3)" d="M 223.820129 227.485014 
L 216.471342 225.907162 
L 208.831206 224.785911 
L 201.19107 224.010175 
L 199.997329 223.888819 
L 193.550934 221.752989 
L 185.910798 219.098673 
L 178.270662 216.301813 
L 175.205266 215.018419 
L 170.630526 211.527599 
L 162.99039 207.266561 
L 160.981894 206.148019 
L 155.350254 201.670924 
L 150.625846 197.277619 
L 147.710119 193.578612 
L 145.716457 188.407219 
L 141.795762 179.536819 
L 140.069983 176.667398 
L 137.52762 170.666419 
L 132.429847 163.771236 
L 130.558564 161.796019 
L 124.789711 155.643765 
L 121.518956 152.925619 
L 117.149575 148.277749 
L 115.692682 144.055219 
L 115.185175 135.184819 
L 115.470042 126.314419 
L 116.556357 117.444019 
L 117.149575 115.975243 
L 121.846852 108.573619 
L 124.789711 106.24222 
L 132.429847 101.88547 
L 135.737016 99.703219 
L 140.069983 98.053677 
L 147.710119 91.726279 
L 148.530075 90.832819 
L 155.243384 81.962419 
L 155.350254 81.754632 
L 160.335517 73.092019 
L 162.003016 64.221619 
L 162.668241 55.351219 
L 162.99039 47.635287 
L 163.414383 46.480819 
L 166.36667 37.610419 
L 169.449479 28.740019 
L 170.392406 19.869619 
L 170.630526 15.255282 
L 174.28897 10.999219 
" style="fill:none;stroke:#33638d;stroke-width:1.5;"/>
   </g>
   <g id="LineCollection_8">
    <path clip-path="url(#pa601041cc3)" d="M 285.232565 200.466253 
L 277.592429 203.358571 
L 270.909634 206.148019 
L 269.952293 206.521513 
L 262.312157 210.931003 
L 258.618874 215.018419 
L 254.672021 221.622683 
L 253.617242 223.888819 
L 253.113931 232.759219 
L 247.031886 237.618314 
L 239.39175 235.87609 
L 231.751614 234.29447 
L 224.317677 232.759219 
L 224.111478 232.654961 
L 216.471342 229.26372 
L 208.831206 227.404849 
L 201.19107 226.343188 
L 193.550934 225.495939 
L 185.910798 224.312546 
L 184.371055 223.888819 
L 178.270662 220.582173 
L 170.630526 216.707698 
L 167.354911 215.018419 
L 162.99039 211.731371 
L 155.350254 207.020185 
L 154.196603 206.148019 
L 147.710119 199.545294 
L 146.338702 197.277619 
L 142.364325 188.407219 
L 140.069983 184.018003 
L 138.468849 179.536819 
L 133.491805 170.666419 
L 132.429847 169.230028 
L 125.387011 161.796019 
L 124.789711 161.159022 
L 117.442337 154.442996 
" style="fill:none;stroke:#2d718e;stroke-width:1.5;"/>
    <path clip-path="url(#pa601041cc3)" d="M 113.38051 131.458038 
L 113.505501 126.314419 
L 114.195302 117.444019 
L 117.149575 110.129402 
L 118.136918 108.573619 
L 124.789711 103.303127 
L 130.036819 99.703219 
L 132.429847 98.842362 
L 140.069983 95.201292 
L 144.959003 90.832819 
L 147.710119 88.783546 
L 153.296082 81.962419 
L 155.350254 77.968521 
L 158.156641 73.092019 
L 160.944862 64.221619 
L 162.069376 55.351219 
L 162.65706 46.480819 
L 162.99039 38.266736 
L 163.22147 37.610419 
L 168.558171 28.740019 
L 170.196587 19.869619 
L 170.630526 11.460674 
L 171.027186 10.999219 
" style="fill:none;stroke:#2d718e;stroke-width:1.5;"/>
   </g>
   <g id="LineCollection_9">
    <path clip-path="url(#pa601041cc3)" d="M 285.232565 210.960945 
L 277.592429 214.217337 
L 275.925555 215.018419 
L 269.952293 218.349536 
L 264.73769 223.888819 
L 262.312157 229.058567 
L 261.117219 232.759219 
L 262.312157 235.481753 
L 264.345843 241.629619 
L 262.312157 243.665293 
L 254.672021 243.716961 
L 252.387776 243.284662 
" style="fill:none;stroke:#287d8e;stroke-width:1.5;"/>
    <path clip-path="url(#pa601041cc3)" d="M 236.625476 238.068224 
L 231.751614 236.38058 
L 224.111478 234.340263 
L 216.781096 232.759219 
L 216.471342 232.620278 
L 208.831206 230.023787 
L 201.19107 228.676201 
L 193.550934 227.730842 
L 185.910798 226.48569 
L 178.270662 224.339796 
L 177.168079 223.888819 
L 170.630526 219.765025 
L 162.99039 215.611541 
L 161.978919 215.018419 
L 155.350254 209.951304 
L 150.319486 206.148019 
L 147.710119 203.491891 
L 143.951929 197.277619 
L 140.069983 189.84858 
L 139.583003 188.407219 
L 136.177533 179.536819 
L 132.429847 173.42148 
L 130.346752 170.666419 
L 124.789711 164.54874 
L 121.355124 161.796019 
L 117.149575 157.833794 
L 112.376582 152.925619 
L 110.821216 144.055219 
L 111.394723 135.184819 
L 111.54096 126.314419 
L 111.834247 117.444019 
L 115.339522 108.573619 
L 117.149575 107.023306 
L 124.789711 100.364034 
L 125.752893 99.703219 
L 132.429847 97.301282 
L 140.069983 92.348907 
L 141.766728 90.832819 
L 147.710119 86.405659 
L 151.348781 81.962419 
L 155.350254 74.18241 
L 155.977766 73.092019 
L 159.886707 64.221619 
L 161.470512 55.351219 
L 162.294553 46.480819 
L 162.774243 37.610419 
L 162.99039 36.279087 
L 167.666863 28.740019 
L 170.000769 19.869619 
L 170.586321 10.999219 
" style="fill:none;stroke:#287d8e;stroke-width:1.5;"/>
   </g>
   <g id="LineCollection_10">
    <path clip-path="url(#pa601041cc3)" d="M 285.232565 219.759967 
L 277.592429 223.316488 
L 276.786503 223.888819 
L 269.952293 231.666777 
L 269.324527 232.759219 
L 269.952293 238.284208 
L 270.229954 241.629619 
L 277.366463 250.500019 
L 269.952293 251.308765 
L 263.967563 250.500019 
L 262.312157 249.547196 
L 254.672021 245.931794 
L 247.031886 243.724082 
L 239.39175 241.834626 
L 238.607327 241.629619 
L 231.751614 238.46669 
L 224.111478 235.954254 
L 216.471342 234.087558 
L 209.170004 232.759219 
L 208.831206 232.642725 
L 201.19107 231.009214 
L 193.550934 229.965745 
L 185.910798 228.658834 
L 178.270662 226.322254 
L 172.321222 223.888819 
L 170.630526 222.822353 
L 162.99039 217.860022 
L 158.144507 215.018419 
L 155.350254 212.882423 
L 147.710119 206.867242 
L 147.078698 206.148019 
L 141.565155 197.277619 
L 140.069983 194.416246 
L 138.039766 188.407219 
L 133.886217 179.536819 
L 132.429847 177.160366 
L 131.136516 175.449832 
" style="fill:none;stroke:#238a8d;stroke-width:1.5;"/>
    <path clip-path="url(#pa601041cc3)" d="M 117.598502 161.897364 
L 117.472053 161.796019 
L 117.149575 161.492199 
L 109.509439 153.600851 
L 109.305333 152.925619 
L 108.983228 144.055219 
L 109.502136 135.184819 
L 109.509439 134.001993 
L 109.576418 126.314419 
L 109.509439 120.198069 
L 109.477825 117.444019 
L 109.509439 117.345275 
L 112.873056 108.573619 
L 117.149575 104.910774 
L 122.96196 99.703219 
L 124.789711 98.967477 
L 132.429847 95.760203 
L 139.093596 90.832819 
L 140.069983 90.341507 
L 147.710119 84.027772 
L 149.401479 81.962419 
L 154.80728 73.092019 
L 155.350254 71.512742 
L 158.828553 64.221619 
L 160.871648 55.351219 
L 161.932046 46.480819 
L 162.540956 37.610419 
L 162.99039 34.842185 
L 166.775555 28.740019 
L 169.80495 19.869619 
L 170.535995 10.999219 
" style="fill:none;stroke:#238a8d;stroke-width:1.5;"/>
   </g>
   <g id="LineCollection_11">
    <path clip-path="url(#pa601041cc3)" d="M 285.232565 227.511726 
L 277.931342 232.759219 
L 277.592429 233.932931 
L 276.27938 241.629619 
L 277.592429 243.235142 
L 282.005112 250.500019 
L 277.592429 253.02148 
L 269.952293 252.689715 
L 262.312157 251.429944 
L 258.94343 250.500019 
L 254.672021 248.146627 
L 247.031886 245.177117 
L 239.39175 243.01636 
L 234.08564 241.629619 
L 231.751614 240.5528 
L 224.111478 237.568245 
L 216.471342 235.473257 
L 208.831206 233.988696 
L 201.19107 233.06838 
L 197.371276 232.759219 
L 193.550934 232.200648 
L 185.910798 230.831978 
L 178.270662 228.304712 
L 170.630526 225.009867 
L 168.497544 223.888819 
L 162.99039 220.108503 
L 155.350254 215.497955 
L 154.654087 215.018419 
L 147.710119 209.066817 
L 145.147646 206.148019 
L 140.069983 198.38104 
L 139.628062 197.277619 
L 136.496529 188.407219 
L 132.429847 180.614422 
L 131.810214 179.536819 
L 124.789711 170.739444 
L 124.70676 170.666419 
L 117.149575 163.809708 
L 114.066887 161.796019 
L 109.509439 157.079831 
L 108.253723 152.925619 
L 107.842873 144.055219 
L 108.109948 135.184819 
L 107.856258 126.314419 
L 107.418549 117.444019 
L 109.509439 110.913213 
L 110.40659 108.573619 
L 117.149575 102.798243 
L 120.604069 99.703219 
L 124.789711 98.018333 
L 132.429847 94.219123 
L 137.009453 90.832819 
L 140.069983 89.292779 
L 147.569107 81.962419 
L 147.710119 81.824249 
L 154.044677 73.092019 
L 155.350254 69.294665 
L 157.770398 64.221619 
L 160.272783 55.351219 
L 161.569538 46.480819 
L 162.161245 39.370055 
" style="fill:none;stroke:#1f968b;stroke-width:1.5;"/>
    <path clip-path="url(#pa601041cc3)" d="M 169.80443 17.893231 
L 170.48567 10.999219 
" style="fill:none;stroke:#1f968b;stroke-width:1.5;"/>
   </g>
   <g id="LineCollection_12">
    <path clip-path="url(#pa601041cc3)" d="M 285.232565 259.732224 
L 283.543203 259.370419 
L 277.592429 255.588766 
L 269.952293 254.070665 
L 262.312157 252.53963 
L 254.923505 250.500019 
L 254.672021 250.36146 
L 247.031886 246.630153 
L 239.39175 244.198095 
L 231.751614 242.145869 
L 229.903564 241.629619 
L 224.403483 239.30562 
" style="fill:none;stroke:#20a386;stroke-width:1.5;"/>
    <path clip-path="url(#pa601041cc3)" d="M 208.453061 235.227405 
L 201.19107 234.305544 
L 193.550934 233.687398 
L 185.910798 232.902514 
L 185.275173 232.759219 
L 178.270662 230.28717 
L 170.630526 226.731438 
L 165.221964 223.888819 
L 162.99039 222.356983 
L 155.350254 217.2657 
L 152.087755 215.018419 
L 147.710119 211.266392 
L 143.216595 206.148019 
L 140.069983 201.334847 
L 138.44506 197.277619 
L 134.953293 188.407219 
L 132.429847 183.571656 
L 130.109777 179.536819 
L 124.789711 172.870258 
L 122.286346 170.666419 
L 117.149575 166.005774 
L 110.705004 161.796019 
L 109.509439 160.558811 
L 107.202113 152.925619 
L 106.702518 144.055219 
L 106.717761 135.184819 
L 106.144724 126.314419 
L 105.359273 117.444019 
L 108.151765 108.573619 
L 109.509439 107.47907 
L 117.149575 100.685711 
L 118.246178 99.703219 
L 124.789711 97.069189 
L 132.429847 92.678043 
L 134.925311 90.832819 
L 140.069983 88.244051 
L 146.496235 81.962419 
L 147.710119 80.772996 
L 153.282074 73.092019 
L 155.350254 67.076587 
L 156.712243 64.221619 
L 159.673919 55.351219 
L 161.207031 46.480819 
L 162.074382 37.610419 
L 162.99039 31.968382 
L 164.992939 28.740019 
L 169.413313 19.869619 
L 170.435344 10.999219 
" style="fill:none;stroke:#20a386;stroke-width:1.5;"/>
    <path clip-path="url(#pa601041cc3)" d="M 285.232565 236.008614 
L 282.268298 241.629619 
L 285.232565 247.288764 
" style="fill:none;stroke:#20a386;stroke-width:1.5;"/>
   </g>
   <g id="LineCollection_13">
    <path clip-path="url(#pa601041cc3)" d="M 271.71901 256.076993 
L 269.952293 255.451614 
L 262.312157 253.649315 
L 254.672021 251.408482 
L 251.918122 250.500019 
L 247.031886 248.083188 
L 239.39175 245.379829 
L 231.751614 243.21291 
L 226.08382 241.629619 
L 224.111478 240.796227 
L 216.471342 238.244655 
L 208.831206 236.56212 
L 201.19107 235.542709 
L 193.550934 234.924855 
L 185.910798 234.168869 
L 179.65791 232.759219 
L 178.270662 232.269628 
L 170.630526 228.45301 
L 162.99039 224.360195 
L 162.196001 223.888819 
L 155.350254 219.033445 
L 149.521424 215.018419 
L 147.710119 213.465968 
L 141.285543 206.148019 
L 140.069983 204.288654 
L 137.262059 197.277619 
L 133.410056 188.407219 
L 132.429847 186.528889 
L 128.409339 179.536819 
L 124.789711 175.001072 
L 119.865932 170.666419 
L 117.149575 168.20184 
L 109.509439 162.957354 
L 108.695218 161.796019 
L 106.150504 152.925619 
L 105.562163 144.055219 
L 105.325574 135.184819 
L 104.43319 126.314419 
L 103.299996 117.444019 
L 106.017931 108.573619 
L 109.509439 105.758787 
L 116.14172 99.703219 
L 117.149575 99.320333 
L 124.789711 96.120044 
L 132.429847 91.136963 
L 132.841169 90.832819 
L 140.069983 87.195323 
L 145.423362 81.962419 
L 147.710119 79.721743 
L 152.519471 73.092019 
L 155.350254 64.858509 
L 155.654089 64.221619 
L 159.075054 55.351219 
L 160.844524 46.480819 
L 161.841095 37.610419 
L 162.99039 30.53148 
L 164.101631 28.740019 
L 169.217494 19.869619 
L 170.385018 10.999219 
" style="fill:none;stroke:#29af7f;stroke-width:1.5;"/>
   </g>
   <g id="LineCollection_14">
    <path clip-path="url(#pa601041cc3)" d="M 285.232565 261.462631 
L 277.592429 259.773088 
L 275.889823 259.370419 
L 269.952293 256.832564 
L 262.312157 254.759001 
L 254.672021 252.377571 
L 248.980443 250.500019 
L 247.031886 249.536223 
L 239.39175 246.561563 
L 231.751614 244.27995 
L 224.386876 242.18858 
" style="fill:none;stroke:#3dbc74;stroke-width:1.5;"/>
    <path clip-path="url(#pa601041cc3)" d="M 208.471039 237.79844 
L 201.19107 236.779873 
L 193.550934 236.162313 
L 185.910798 235.435225 
L 178.270662 233.702681 
L 175.718581 232.759219 
L 170.630526 230.174582 
L 162.99039 225.839143 
L 159.7036 223.888819 
L 155.350254 220.801191 
L 147.710119 215.456758 
L 147.226354 215.018419 
L 140.069983 206.843945 
L 139.69008 206.148019 
L 136.079058 197.277619 
L 132.429847 189.345383 
L 132.006733 188.407219 
L 126.708902 179.536819 
L 124.789711 177.131886 
L 117.445518 170.666419 
L 117.149575 170.397906 
L 109.509439 164.759618 
L 107.431638 161.796019 
L 105.098894 152.925619 
L 104.421808 144.055219 
L 103.933386 135.184819 
L 102.721656 126.314419 
L 101.869303 120.814877 
L 101.263482 117.444019 
L 101.869303 115.276967 
L 103.884098 108.573619 
L 109.509439 104.038504 
L 114.257603 99.703219 
L 117.149575 98.604554 
L 124.789711 95.1709 
L 131.288565 90.832819 
L 132.429847 90.381163 
L 140.069983 86.146595 
L 144.35049 81.962419 
L 147.710119 78.67049 
L 151.756868 73.092019 
L 155.100536 64.221619 
L 155.350254 63.155754 
L 158.47619 55.351219 
L 160.482016 46.480819 
L 161.607808 37.610419 
L 162.99039 29.094579 
L 163.210323 28.740019 
L 169.021676 19.869619 
L 170.334693 10.999219 
" style="fill:none;stroke:#3dbc74;stroke-width:1.5;"/>
   </g>
   <g id="LineCollection_15">
    <path clip-path="url(#pa601041cc3)" d="M 285.232565 262.327834 
L 277.592429 260.537191 
L 272.658972 259.370419 
L 269.952293 258.213514 
L 262.312157 255.868687 
L 254.672021 253.34666 
L 247.031886 250.79171 
L 246.068234 250.500019 
L 239.39175 247.743297 
L 231.751614 245.346991 
L 224.433262 243.198853 
" style="fill:none;stroke:#56c667;stroke-width:1.5;"/>
    <path clip-path="url(#pa601041cc3)" d="M 208.480792 239.084244 
L 201.19107 238.017037 
L 193.550934 237.399771 
L 185.910798 236.70158 
L 178.270662 234.955554 
L 172.329536 232.759219 
L 170.630526 231.896154 
L 162.99039 227.31809 
L 157.211199 223.888819 
L 155.350254 222.568936 
L 147.710119 216.946674 
L 145.582037 215.018419 
L 140.069983 208.722191 
L 138.664754 206.148019 
L 134.896056 197.277619 
L 132.429847 191.916855 
L 130.846993 188.407219 
L 125.008464 179.536819 
L 124.789711 179.2627 
L 117.149575 172.034233 
L 115.024178 170.666419 
L 109.509439 166.561881 
L 106.168059 161.796019 
L 104.047284 152.925619 
L 103.281453 144.055219 
L 102.541199 135.184819 
L 101.869303 130.836898 
L 101.042111 126.314419 
L 99.278774 117.444019 
L 101.730139 108.573619 
L 101.869303 108.479563 
L 109.509439 102.318221 
L 112.373485 99.703219 
L 117.149575 97.888775 
L 124.789711 94.221756 
L 129.866658 90.832819 
L 132.429847 89.818452 
L 140.069983 85.097867 
L 143.277618 81.962419 
L 147.710119 77.619237 
L 150.994266 73.092019 
L 154.750233 64.221619 
L 155.350254 61.660566 
L 157.877325 55.351219 
L 160.119509 46.480819 
L 161.374521 37.610419 
L 162.905414 28.740019 
L 162.99039 28.521334 
L 168.825857 19.869619 
L 170.284367 10.999219 
" style="fill:none;stroke:#56c667;stroke-width:1.5;"/>
   </g>
   <g id="LineCollection_16">
    <path clip-path="url(#pa601041cc3)" d="M 285.232565 263.193038 
L 277.592429 261.301293 
L 269.952293 259.484211 
L 269.417515 259.370419 
L 262.312157 256.978372 
L 254.672021 254.315749 
L 247.031886 251.658031 
L 243.2062 250.500019 
L 239.39175 248.925031 
L 231.751614 246.414031 
L 224.111478 244.098426 
L 221.623524 243.462813 
" style="fill:none;stroke:#75d054;stroke-width:1.5;"/>
    <path clip-path="url(#pa601041cc3)" d="M 205.61559 239.93064 
L 201.19107 239.254202 
L 193.550934 238.637229 
L 185.910798 237.967935 
L 178.270662 236.208427 
L 170.630526 233.348022 
L 169.431573 232.759219 
L 162.99039 228.797037 
L 155.350254 224.213364 
L 154.855555 223.888819 
L 147.710119 218.436589 
L 143.937719 215.018419 
L 140.069983 210.600437 
L 137.639429 206.148019 
L 133.713055 197.277619 
L 132.429847 194.488328 
L 129.687253 188.407219 
L 124.789711 181.05405 
L 123.368973 179.536819 
L 117.149575 173.592587 
L 112.602709 170.666419 
L 109.509439 168.364144 
L 104.904479 161.796019 
L 102.995674 152.925619 
L 102.141098 144.055219 
L 101.869303 141.257646 
L 101.169345 135.184819 
L 99.394301 126.314419 
L 97.294066 117.444019 
L 99.235538 108.573619 
L 101.869303 106.793559 
L 109.509439 100.597938 
L 110.489368 99.703219 
L 117.149575 97.172996 
L 124.789711 93.272612 
L 128.444751 90.832819 
L 132.429847 89.255741 
L 140.069983 84.049139 
L 142.204745 81.962419 
L 147.710119 76.567984 
L 150.231663 73.092019 
L 154.399931 64.221619 
L 155.350254 60.165379 
L 157.278461 55.351219 
L 159.757002 46.480819 
L 161.141233 37.610419 
L 162.7926 28.740019 
L 162.99039 28.231012 
L 168.630038 19.869619 
L 170.234041 10.999219 
" style="fill:none;stroke:#75d054;stroke-width:1.5;"/>
   </g>
   <g id="LineCollection_17">
    <path clip-path="url(#pa601041cc3)" d="M 285.232565 264.058241 
L 277.592429 262.065396 
L 269.952293 260.185593 
L 266.121294 259.370419 
L 262.312157 258.088058 
L 254.672021 255.284838 
L 247.031886 252.524351 
L 240.344167 250.500019 
L 239.39175 250.106765 
L 231.751614 247.481072 
L 224.111478 245.092451 
L 216.860602 243.177091 
" style="fill:none;stroke:#95d840;stroke-width:1.5;"/>
    <path clip-path="url(#pa601041cc3)" d="M 200.783381 240.458459 
L 193.550934 239.874686 
L 185.910798 239.23429 
L 178.270662 237.4613 
L 170.630526 234.528756 
L 167.027299 232.759219 
L 162.99039 230.275984 
L 155.350254 225.494365 
L 152.902942 223.888819 
L 147.710119 219.926504 
L 142.293402 215.018419 
L 140.069983 212.478684 
L 136.614104 206.148019 
L 132.530054 197.277619 
L 132.429847 197.0598 
L 128.527514 188.407219 
L 124.789711 182.795283 
L 121.738481 179.536819 
L 117.149575 175.150941 
L 110.18124 170.666419 
L 109.509439 170.166407 
L 103.6409 161.796019 
L 101.944065 152.925619 
L 101.869303 152.168347 
L 100.993628 144.055219 
L 99.81646 135.184819 
L 97.746491 126.314419 
L 95.309358 117.444019 
L 96.740936 108.573619 
L 101.869303 105.107555 
L 108.514543 99.703219 
L 109.509439 99.401543 
L 117.149575 96.457217 
L 124.789711 92.323468 
L 127.022844 90.832819 
L 132.429847 88.69303 
L 140.069983 83.000412 
L 141.131873 81.962419 
L 147.710119 75.516731 
L 149.46906 73.092019 
L 154.049628 64.221619 
L 155.350254 58.670192 
L 156.679596 55.351219 
L 159.394495 46.480819 
L 160.907946 37.610419 
L 162.679786 28.740019 
L 162.99039 27.940689 
L 168.43422 19.869619 
L 170.183716 10.999219 
" style="fill:none;stroke:#95d840;stroke-width:1.5;"/>
   </g>
   <g id="LineCollection_18">
    <path clip-path="url(#pa601041cc3)" d="M 285.232565 264.923445 
L 277.592429 262.829498 
L 269.952293 260.886975 
L 262.825073 259.370419 
L 262.312157 259.197744 
L 254.672021 256.253928 
L 247.031886 253.390671 
L 239.39175 251.048288 
L 237.349815 250.500019 
L 231.751614 248.548112 
L 224.111478 246.086477 
L 216.857509 244.107338 
" style="fill:none;stroke:#bade28;stroke-width:1.5;"/>
    <path clip-path="url(#pa601041cc3)" d="M 200.765279 241.675802 
L 199.964809 241.629619 
L 193.550934 241.112144 
L 185.910798 240.500646 
L 178.270662 238.714173 
L 170.630526 235.709489 
L 164.623025 232.759219 
L 162.99039 231.754932 
L 155.350254 226.775366 
L 150.950328 223.888819 
L 147.710119 221.41642 
L 140.649085 215.018419 
L 140.069983 214.35693 
L 135.588778 206.148019 
L 132.429847 199.309305 
L 131.621771 197.277619 
L 127.367774 188.407219 
L 124.789711 184.536515 
L 120.107988 179.536819 
L 117.149575 176.709295 
L 109.509439 171.585553 
L 108.207297 170.666419 
L 102.37732 161.796019 
L 101.869303 159.116506 
L 100.915059 152.925619 
L 99.843931 144.055219 
L 98.463574 135.184819 
L 96.098682 126.314419 
L 94.229167 119.986089 
L 93.329411 117.444019 
L 94.229167 108.705576 
L 94.246335 108.573619 
L 101.869303 103.421552 
L 106.441412 99.703219 
L 109.509439 98.77292 
L 117.149575 95.741439 
L 124.789711 91.374324 
L 125.600937 90.832819 
L 132.429847 88.130319 
L 140.062854 81.962419 
L 140.069983 81.957721 
L 147.710119 74.465478 
L 148.706457 73.092019 
L 153.699325 64.221619 
L 155.350254 57.175005 
L 156.080732 55.351219 
L 159.031987 46.480819 
L 160.674659 37.610419 
L 162.566972 28.740019 
L 162.99039 27.650367 
L 168.238401 19.869619 
L 170.13339 10.999219 
" style="fill:none;stroke:#bade28;stroke-width:1.5;"/>
   </g>
   <g id="LineCollection_19">
    <path clip-path="url(#pa601041cc3)" d="M 285.232565 265.788648 
L 277.592429 263.593601 
L 269.952293 261.588357 
L 262.312157 259.935472 
L 260.204097 259.370419 
L 254.672021 257.223017 
L 247.031886 254.256991 
L 239.39175 251.870006 
L 234.289469 250.500019 
L 231.751614 249.615153 
L 224.111478 247.080502 
L 216.471342 244.92969 
L 208.831206 243.466452 
L 201.19107 242.585277 
L 193.550934 242.143428 
L 185.910798 241.725245 
L 185.333401 241.629619 
L 178.270662 239.967047 
L 170.630526 236.890222 
L 162.99039 233.109583 
L 162.376174 232.759219 
L 155.350254 228.056367 
L 148.997715 223.888819 
L 147.710119 222.906335 
L 140.069983 215.88671 
L 139.447741 215.018419 
L 134.563453 206.148019 
L 132.429847 201.529014 
L 130.738913 197.277619 
L 126.208035 188.407219 
L 124.789711 186.277748 
L 118.477496 179.536819 
L 117.149575 178.267649 
L 109.509439 172.857597 
L 106.405186 170.666419 
L 102.562472 164.594158 
" style="fill:none;stroke:#dde318;stroke-width:1.5;"/>
    <path clip-path="url(#pa601041cc3)" d="M 98.085944 140.647814 
L 97.110689 135.184819 
L 94.450872 126.314419 
L 94.229167 125.563946 
L 91.355151 117.444019 
L 91.039485 108.573619 
L 94.229167 105.985068 
L 101.869303 101.735548 
L 104.36828 99.703219 
L 109.509439 98.144298 
L 117.149575 95.02566 
L 124.267812 90.832819 
L 124.789711 90.676483 
L 132.429847 87.567608 
L 139.366479 81.962419 
L 140.069983 81.498739 
L 147.710119 73.414225 
L 147.943855 73.092019 
L 153.349022 64.221619 
L 155.350254 55.679817 
L 155.481867 55.351219 
L 158.66948 46.480819 
L 160.441372 37.610419 
L 162.454159 28.740019 
L 162.99039 27.360044 
L 168.042582 19.869619 
L 170.083065 10.999219 
" style="fill:none;stroke:#dde318;stroke-width:1.5;"/>
   </g>
   <g id="LineCollection_20">
    <path clip-path="url(#pa601041cc3)" d="M 285.232565 266.653852 
L 277.592429 264.357703 
L 269.952293 262.289739 
L 262.312157 260.604654 
L 257.707558 259.370419 
L 254.672021 258.192106 
L 247.031886 255.123311 
L 239.39175 252.691723 
L 231.751614 250.635906 
L 231.251999 250.500019 
L 224.111478 248.074528 
L 216.851096 245.967604 
" style="fill:none;stroke:#fde725;stroke-width:1.5;"/>
    <path clip-path="url(#pa601041cc3)" d="M 200.765854 243.445494 
L 193.550934 243.026528 
L 185.910798 242.606709 
L 180.011096 241.629619 
L 178.270662 241.21992 
L 170.630526 238.070956 
L 162.99039 234.20125 
L 160.462396 232.759219 
L 155.350254 229.337368 
L 147.710119 224.272156 
L 147.220162 223.888819 
L 140.069983 217.227047 
L 138.487218 215.018419 
L 133.538127 206.148019 
L 132.429847 203.748722 
L 129.856054 197.277619 
L 125.048295 188.407219 
L 124.789711 188.018981 
L 117.149575 179.775901 
L 116.829991 179.536819 
L 109.509439 174.129641 
L 104.603075 170.666419 
L 101.869303 166.34651 
L 100.328497 161.796019 
L 98.860508 152.925619 
L 97.544537 144.055219 
L 95.757803 135.184819 
L 94.229167 130.161806 
L 92.909946 126.314419 
L 89.380891 117.444019 
L 87.827699 108.573619 
L 94.229167 103.378578 
L 101.869303 100.049544 
L 102.295149 99.703219 
L 109.509439 97.515676 
L 117.149575 94.309881 
L 123.052625 90.832819 
L 124.789711 90.31247 
L 132.429847 87.004897 
L 138.670103 81.962419 
L 140.069983 81.039758 
L 147.415916 73.092019 
L 147.710119 72.702446 
L 152.998719 64.221619 
L 155.206791 55.351219 
L 155.350254 54.576763 
L 158.306973 46.480819 
L 160.208085 37.610419 
L 162.341345 28.740019 
L 162.99039 27.069722 
L 167.846764 19.869619 
L 170.032739 10.999219 
" style="fill:none;stroke:#fde725;stroke-width:1.5;"/>
   </g>
   <g id="LineCollection_21">
    <path clip-path="url(#pa601041cc3)" d="M 285.232565 267.519055 
L 277.592429 265.121806 
L 269.952293 262.991121 
L 262.312157 261.273837 
L 255.211018 259.370419 
L 254.672021 259.161195 
L 247.031886 255.989631 
L 239.39175 253.513441 
L 231.751614 251.431827 
L 228.325639 250.500019 
L 224.111478 249.068553 
L 216.471342 246.785114 
L 208.831206 245.248342 
L 202.78321 244.54124 
" style="fill:none;stroke:#440154;stroke-width:1.5;"/>
    <path clip-path="url(#pa601041cc3)" d="M 184.322384 243.227847 
L 178.270662 242.236028 
L 176.357049 241.629619 
L 170.630526 239.251689 
L 162.99039 235.292916 
L 158.548619 232.759219 
L 155.350254 230.61837 
L 147.710119 225.397706 
L 145.781559 223.888819 
L 140.069983 218.567384 
L 137.526695 215.018419 
L 132.512802 206.148019 
L 132.429847 205.968431 
L 128.973195 197.277619 
L 124.789711 189.656872 
L 123.873063 188.407219 
L 117.149575 181.064267 
L 115.107824 179.536819 
L 109.509439 175.401685 
L 102.800964 170.666419 
L 101.869303 169.194207 
L 99.364261 161.796019 
L 97.833233 152.925619 
L 96.39484 144.055219 
L 94.404917 135.184819 
L 94.229167 134.607313 
L 91.385636 126.314419 
L 87.40663 117.444019 
L 86.589031 113.872203 
L 84.702744 108.573619 
L 86.589031 104.517522 
L 94.229167 100.772089 
L 96.82994 99.703219 
L 101.869303 99.109306 
L 109.509439 96.887053 
L 117.149575 93.594102 
L 121.837439 90.832819 
L 124.789711 89.948458 
L 132.429847 86.442187 
L 137.973727 81.962419 
L 140.069983 80.580777 
L 146.991689 73.092019 
L 147.710119 72.140698 
L 152.648416 64.221619 
L 155.022919 55.351219 
L 155.350254 53.584163 
L 157.944466 46.480819 
L 159.974798 37.610419 
L 162.228531 28.740019 
L 162.99039 26.779399 
L 167.650945 19.869619 
L 169.982413 10.999219 
" style="fill:none;stroke:#440154;stroke-width:1.5;"/>
   </g>
   <g id="LineCollection_22">
    <path clip-path="url(#pa601041cc3)" d="M 107.962202 277.111219 
L 101.869303 271.638952 
L 98.298814 268.240819 
L 94.229167 264.212623 
L 89.182874 259.370419 
L 86.645591 256.792209 
" style="fill:none;stroke:#440154;stroke-width:1.5;"/>
    <path clip-path="url(#pa601041cc3)" d="M 72.652627 233.028273 
L 72.516725 232.759219 
L 71.308759 230.798769 
L 66.453754 223.888819 
L 63.668623 220.886055 
L 58.098276 215.018419 
L 56.028487 212.914682 
" style="fill:none;stroke:#440154;stroke-width:1.5;"/>
    <path clip-path="url(#pa601041cc3)" d="M 56.028487 75.640408 
L 58.375379 73.092019 
L 63.668623 71.814974 
L 71.308759 67.568846 
L 76.357802 64.221619 
L 78.948895 63.959014 
L 86.589031 63.274272 
L 94.229167 63.027787 
L 101.869303 63.26062 
L 109.509439 64.042703 
L 110.237733 64.109714 
" style="fill:none;stroke:#440154;stroke-width:1.5;"/>
    <path clip-path="url(#pa601041cc3)" d="M 130.443316 59.750879 
L 132.429847 58.457634 
L 135.244359 55.351219 
L 140.069983 48.719018 
L 141.415563 46.480819 
L 145.638179 37.610419 
L 147.710119 32.099651 
L 149.331358 28.740019 
L 155.350254 23.001957 
L 157.594763 19.869619 
L 162.492332 10.999219 
" style="fill:none;stroke:#440154;stroke-width:1.5;"/>
   </g>
   <g id="LineCollection_23">
    <path clip-path="url(#pa601041cc3)" d="M 56.028487 65.631755 
L 57.690072 64.221619 
L 63.668623 63.578454 
L 71.308759 61.524915 
L 78.319493 55.351219 
L 78.948895 55.231082 
L 86.589031 53.744775 
L 94.229167 48.481738 
L 97.140959 46.480819 
L 98.244725 46.257913 
" style="fill:none;stroke:#440154;stroke-width:1.5;"/>
    <path clip-path="url(#pa601041cc3)" d="M 120.235918 35.866574 
L 124.789711 33.686355 
L 129.503742 28.740019 
L 132.429847 27.194967 
L 139.925201 19.869619 
L 140.069983 19.789886 
L 147.710119 13.838001 
L 150.233267 10.999219 
" style="fill:none;stroke:#440154;stroke-width:1.5;"/>
   </g>
   <g id="LineCollection_24">
    <path clip-path="url(#pa601041cc3)" d="M 56.028487 60.335022 
L 62.846004 55.351219 
L 63.668623 55.18271 
L 71.308759 53.385041 
L 78.948895 49.092394 
L 81.968463 46.480819 
L 84.281318 45.538076 
" style="fill:none;stroke:#440154;stroke-width:1.5;"/>
    <path clip-path="url(#pa601041cc3)" d="M 107.552274 29.985812 
L 109.055834 28.740019 
L 109.509439 28.442975 
L 117.149575 23.40574 
L 121.21249 19.869619 
L 124.789711 18.421659 
L 132.429847 13.041109 
L 134.623214 10.999219 
" style="fill:none;stroke:#440154;stroke-width:1.5;"/>
   </g>
   <g id="LineCollection_25">
    <path clip-path="url(#pa601041cc3)" d="M 56.028487 50.786062 
L 62.084067 46.480819 
L 63.668623 45.845173 
L 71.308759 42.344107 
L 73.990629 40.215954 
" style="fill:none;stroke:#440154;stroke-width:1.5;"/>
    <path clip-path="url(#pa601041cc3)" d="M 98.584351 20.415264 
L 99.158491 19.869619 
L 101.869303 17.913363 
L 109.509439 12.091261 
L 110.930781 10.999219 
" style="fill:none;stroke:#440154;stroke-width:1.5;"/>
   </g>
   <g id="LineCollection_26">
    <path clip-path="url(#pa601041cc3)" d="M 56.028487 35.7373 
L 63.668623 29.828713 
L 64.948927 28.740019 
L 71.308759 23.981664 
L 75.514634 19.869619 
L 78.948895 16.362393 
L 83.614482 10.999219 
" style="fill:none;stroke:#450457;stroke-width:1.5;"/>
   </g>
   <g id="LineCollection_27">
    <path clip-path="url(#pa601041cc3)" d="M 56.028487 15.097739 
L 59.992949 10.999219 
" style="fill:none;stroke:#482475;stroke-width:1.5;"/>
   </g>
   <g id="LineCollection_28"/>
   <g id="line2d_12">
    <path clip-path="url(#pa601041cc3)" d="M 396.142773 111.596938 
L 390.306118 108.257604 
L 375.90478 101.216454 
L 315.083302 80.936566 
L 250.014368 62.832551 
L 206.501224 51.622457 
L 177.808018 45.051254 
L 158.988885 41.358009 
L 146.683626 39.496538 
L 138.684739 38.7989 
L 133.50449 38.978295 
L 130.185892 39.685394 
L 128.081096 40.755368 
L 126.780574 42.037141 
L 126.003055 43.477006 
L 125.5615 45.08652 
L 125.343247 46.78256 
L 125.254873 48.636986 
L 125.251171 50.608163 
L 125.304502 52.653598 
L 125.386386 54.816677 
L 125.48955 57.047424 
L 125.620359 59.291973 
L 125.764664 61.537907 
L 125.926841 63.758381 
L 126.108391 65.9248 
L 126.286804 68.105055 
L 126.479948 70.214042 
L 126.690699 72.231042 
L 126.912173 74.182455 
L 127.147573 76.070665 
L 127.37691 77.99288 
L 127.596539 79.9983 
L 127.816006 82.049775 
L 128.041086 84.070564 
L 128.269733 86.029116 
L 128.501012 88.013594 
L 128.73911 89.976698 
L 128.979267 91.917754 
L 129.225113 93.802517 
L 129.472046 95.734115 
L 129.721943 97.616894 
L 129.968268 99.541258 
L 130.207968 101.567162 
L 130.452639 103.579081 
L 130.693102 105.538887 
L 130.938897 107.393292 
L 131.187049 109.246368 
L 131.440856 111.074601 
L 131.687286 112.907903 
L 131.71249 113.085257 
L 131.737865 113.260335 
L 131.763793 113.430306 
L 131.790068 113.595607 
L 131.816994 113.762211 
L 131.84397 113.926841 
L 131.870276 114.096837 
L 131.896829 114.265812 
L 131.924224 114.434837 
L 131.95129 114.606532 
L 131.97756 114.779619 
L 132.005377 114.946136 
L 132.031829 115.118324 
L 132.05906 115.281985 
L 132.085848 115.445077 
L 132.112808 115.610716 
L 132.139266 115.780175 
L 132.165408 115.950953 
L 132.192135 116.117736 
L 132.219948 116.276302 
L 132.247732 116.433066 
L 132.275536 116.593367 
L 132.303778 116.747086 
L 132.33229 116.900977 
L 132.361654 117.049644 
L 132.364546 117.064531 
L 132.367282 117.080503 
L 132.369956 117.096567 
L 132.372554 117.113276 
L 132.375118 117.130176 
L 132.377761 117.146509 
L 132.380418 117.162408 
L 132.383077 117.178209 
L 132.385696 117.194484 
L 132.388252 117.210815 
L 132.390787 117.227537 
L 132.393372 117.243459 
L 132.396122 117.258447 
L 132.398937 117.273893 
L 132.401707 117.289048 
L 132.404486 117.304432 
L 132.407335 117.319024 
L 132.410187 117.33444 
L 132.413057 117.350116 
L 132.415876 117.365578 
L 132.418596 117.381275 
L 132.421411 117.396964 
L 132.42422 117.412674 
L 132.426986 117.428548 
" style="fill:none;stroke:#1f77b4;stroke-linecap:square;stroke-width:1.5;"/>
    <defs>
     <path d="M 0 1.5 
C 0.397805 1.5 0.77937 1.341951 1.06066 1.06066 
C 1.341951 0.77937 1.5 0.397805 1.5 0 
C 1.5 -0.397805 1.341951 -0.77937 1.06066 -1.06066 
C 0.77937 -1.341951 0.397805 -1.5 0 -1.5 
C -0.397805 -1.5 -0.77937 -1.341951 -1.06066 -1.06066 
C -1.341951 -0.77937 -1.5 -0.397805 -1.5 0 
C -1.5 0.397805 -1.341951 0.77937 -1.06066 1.06066 
C -0.77937 1.341951 -0.397805 1.5 0 1.5 
z
" id="m17a3f80076" style="stroke:#1f77b4;"/>
    </defs>
    <g clip-path="url(#pa601041cc3)">
     <use style="fill:#1f77b4;stroke:#1f77b4;" x="396.142773" xlink:href="#m17a3f80076" y="111.596938"/>
     <use style="fill:#1f77b4;stroke:#1f77b4;" x="390.306118" xlink:href="#m17a3f80076" y="108.257604"/>
     <use style="fill:#1f77b4;stroke:#1f77b4;" x="375.90478" xlink:href="#m17a3f80076" y="101.216454"/>
     <use style="fill:#1f77b4;stroke:#1f77b4;" x="315.083302" xlink:href="#m17a3f80076" y="80.936566"/>
     <use style="fill:#1f77b4;stroke:#1f77b4;" x="250.014368" xlink:href="#m17a3f80076" y="62.832551"/>
     <use style="fill:#1f77b4;stroke:#1f77b4;" x="206.501224" xlink:href="#m17a3f80076" y="51.622457"/>
     <use style="fill:#1f77b4;stroke:#1f77b4;" x="177.808018" xlink:href="#m17a3f80076" y="45.051254"/>
     <use style="fill:#1f77b4;stroke:#1f77b4;" x="158.988885" xlink:href="#m17a3f80076" y="41.358009"/>
     <use style="fill:#1f77b4;stroke:#1f77b4;" x="146.683626" xlink:href="#m17a3f80076" y="39.496538"/>
     <use style="fill:#1f77b4;stroke:#1f77b4;" x="138.684739" xlink:href="#m17a3f80076" y="38.7989"/>
     <use style="fill:#1f77b4;stroke:#1f77b4;" x="133.50449" xlink:href="#m17a3f80076" y="38.978295"/>
     <use style="fill:#1f77b4;stroke:#1f77b4;" x="130.185892" xlink:href="#m17a3f80076" y="39.685394"/>
     <use style="fill:#1f77b4;stroke:#1f77b4;" x="128.081096" xlink:href="#m17a3f80076" y="40.755368"/>
     <use style="fill:#1f77b4;stroke:#1f77b4;" x="126.780574" xlink:href="#m17a3f80076" y="42.037141"/>
     <use style="fill:#1f77b4;stroke:#1f77b4;" x="126.003055" xlink:href="#m17a3f80076" y="43.477006"/>
     <use style="fill:#1f77b4;stroke:#1f77b4;" x="125.5615" xlink:href="#m17a3f80076" y="45.08652"/>
     <use style="fill:#1f77b4;stroke:#1f77b4;" x="125.343247" xlink:href="#m17a3f80076" y="46.78256"/>
     <use style="fill:#1f77b4;stroke:#1f77b4;" x="125.254873" xlink:href="#m17a3f80076" y="48.636986"/>
     <use style="fill:#1f77b4;stroke:#1f77b4;" x="125.251171" xlink:href="#m17a3f80076" y="50.608163"/>
     <use style="fill:#1f77b4;stroke:#1f77b4;" x="125.304502" xlink:href="#m17a3f80076" y="52.653598"/>
     <use style="fill:#1f77b4;stroke:#1f77b4;" x="125.386386" xlink:href="#m17a3f80076" y="54.816677"/>
     <use style="fill:#1f77b4;stroke:#1f77b4;" x="125.48955" xlink:href="#m17a3f80076" y="57.047424"/>
     <use style="fill:#1f77b4;stroke:#1f77b4;" x="125.620359" xlink:href="#m17a3f80076" y="59.291973"/>
     <use style="fill:#1f77b4;stroke:#1f77b4;" x="125.764664" xlink:href="#m17a3f80076" y="61.537907"/>
     <use style="fill:#1f77b4;stroke:#1f77b4;" x="125.926841" xlink:href="#m17a3f80076" y="63.758381"/>
     <use style="fill:#1f77b4;stroke:#1f77b4;" x="126.108391" xlink:href="#m17a3f80076" y="65.9248"/>
     <use style="fill:#1f77b4;stroke:#1f77b4;" x="126.286804" xlink:href="#m17a3f80076" y="68.105055"/>
     <use style="fill:#1f77b4;stroke:#1f77b4;" x="126.479948" xlink:href="#m17a3f80076" y="70.214042"/>
     <use style="fill:#1f77b4;stroke:#1f77b4;" x="126.690699" xlink:href="#m17a3f80076" y="72.231042"/>
     <use style="fill:#1f77b4;stroke:#1f77b4;" x="126.912173" xlink:href="#m17a3f80076" y="74.182455"/>
     <use style="fill:#1f77b4;stroke:#1f77b4;" x="127.147573" xlink:href="#m17a3f80076" y="76.070665"/>
     <use style="fill:#1f77b4;stroke:#1f77b4;" x="127.37691" xlink:href="#m17a3f80076" y="77.99288"/>
     <use style="fill:#1f77b4;stroke:#1f77b4;" x="127.596539" xlink:href="#m17a3f80076" y="79.9983"/>
     <use style="fill:#1f77b4;stroke:#1f77b4;" x="127.816006" xlink:href="#m17a3f80076" y="82.049775"/>
     <use style="fill:#1f77b4;stroke:#1f77b4;" x="128.041086" xlink:href="#m17a3f80076" y="84.070564"/>
     <use style="fill:#1f77b4;stroke:#1f77b4;" x="128.269733" xlink:href="#m17a3f80076" y="86.029116"/>
     <use style="fill:#1f77b4;stroke:#1f77b4;" x="128.501012" xlink:href="#m17a3f80076" y="88.013594"/>
     <use style="fill:#1f77b4;stroke:#1f77b4;" x="128.73911" xlink:href="#m17a3f80076" y="89.976698"/>
     <use style="fill:#1f77b4;stroke:#1f77b4;" x="128.979267" xlink:href="#m17a3f80076" y="91.917754"/>
     <use style="fill:#1f77b4;stroke:#1f77b4;" x="129.225113" xlink:href="#m17a3f80076" y="93.802517"/>
     <use style="fill:#1f77b4;stroke:#1f77b4;" x="129.472046" xlink:href="#m17a3f80076" y="95.734115"/>
     <use style="fill:#1f77b4;stroke:#1f77b4;" x="129.721943" xlink:href="#m17a3f80076" y="97.616894"/>
     <use style="fill:#1f77b4;stroke:#1f77b4;" x="129.968268" xlink:href="#m17a3f80076" y="99.541258"/>
     <use style="fill:#1f77b4;stroke:#1f77b4;" x="130.207968" xlink:href="#m17a3f80076" y="101.567162"/>
     <use style="fill:#1f77b4;stroke:#1f77b4;" x="130.452639" xlink:href="#m17a3f80076" y="103.579081"/>
     <use style="fill:#1f77b4;stroke:#1f77b4;" x="130.693102" xlink:href="#m17a3f80076" y="105.538887"/>
     <use style="fill:#1f77b4;stroke:#1f77b4;" x="130.938897" xlink:href="#m17a3f80076" y="107.393292"/>
     <use style="fill:#1f77b4;stroke:#1f77b4;" x="131.187049" xlink:href="#m17a3f80076" y="109.246368"/>
     <use style="fill:#1f77b4;stroke:#1f77b4;" x="131.440856" xlink:href="#m17a3f80076" y="111.074601"/>
     <use style="fill:#1f77b4;stroke:#1f77b4;" x="131.687286" xlink:href="#m17a3f80076" y="112.907903"/>
     <use style="fill:#1f77b4;stroke:#1f77b4;" x="131.71249" xlink:href="#m17a3f80076" y="113.085257"/>
     <use style="fill:#1f77b4;stroke:#1f77b4;" x="131.737865" xlink:href="#m17a3f80076" y="113.260335"/>
     <use style="fill:#1f77b4;stroke:#1f77b4;" x="131.763793" xlink:href="#m17a3f80076" y="113.430306"/>
     <use style="fill:#1f77b4;stroke:#1f77b4;" x="131.790068" xlink:href="#m17a3f80076" y="113.595607"/>
     <use style="fill:#1f77b4;stroke:#1f77b4;" x="131.816994" xlink:href="#m17a3f80076" y="113.762211"/>
     <use style="fill:#1f77b4;stroke:#1f77b4;" x="131.84397" xlink:href="#m17a3f80076" y="113.926841"/>
     <use style="fill:#1f77b4;stroke:#1f77b4;" x="131.870276" xlink:href="#m17a3f80076" y="114.096837"/>
     <use style="fill:#1f77b4;stroke:#1f77b4;" x="131.896829" xlink:href="#m17a3f80076" y="114.265812"/>
     <use style="fill:#1f77b4;stroke:#1f77b4;" x="131.924224" xlink:href="#m17a3f80076" y="114.434837"/>
     <use style="fill:#1f77b4;stroke:#1f77b4;" x="131.95129" xlink:href="#m17a3f80076" y="114.606532"/>
     <use style="fill:#1f77b4;stroke:#1f77b4;" x="131.97756" xlink:href="#m17a3f80076" y="114.779619"/>
     <use style="fill:#1f77b4;stroke:#1f77b4;" x="132.005377" xlink:href="#m17a3f80076" y="114.946136"/>
     <use style="fill:#1f77b4;stroke:#1f77b4;" x="132.031829" xlink:href="#m17a3f80076" y="115.118324"/>
     <use style="fill:#1f77b4;stroke:#1f77b4;" x="132.05906" xlink:href="#m17a3f80076" y="115.281985"/>
     <use style="fill:#1f77b4;stroke:#1f77b4;" x="132.085848" xlink:href="#m17a3f80076" y="115.445077"/>
     <use style="fill:#1f77b4;stroke:#1f77b4;" x="132.112808" xlink:href="#m17a3f80076" y="115.610716"/>
     <use style="fill:#1f77b4;stroke:#1f77b4;" x="132.139266" xlink:href="#m17a3f80076" y="115.780175"/>
     <use style="fill:#1f77b4;stroke:#1f77b4;" x="132.165408" xlink:href="#m17a3f80076" y="115.950953"/>
     <use style="fill:#1f77b4;stroke:#1f77b4;" x="132.192135" xlink:href="#m17a3f80076" y="116.117736"/>
     <use style="fill:#1f77b4;stroke:#1f77b4;" x="132.219948" xlink:href="#m17a3f80076" y="116.276302"/>
     <use style="fill:#1f77b4;stroke:#1f77b4;" x="132.247732" xlink:href="#m17a3f80076" y="116.433066"/>
     <use style="fill:#1f77b4;stroke:#1f77b4;" x="132.275536" xlink:href="#m17a3f80076" y="116.593367"/>
     <use style="fill:#1f77b4;stroke:#1f77b4;" x="132.303778" xlink:href="#m17a3f80076" y="116.747086"/>
     <use style="fill:#1f77b4;stroke:#1f77b4;" x="132.33229" xlink:href="#m17a3f80076" y="116.900977"/>
     <use style="fill:#1f77b4;stroke:#1f77b4;" x="132.361654" xlink:href="#m17a3f80076" y="117.049644"/>
     <use style="fill:#1f77b4;stroke:#1f77b4;" x="132.364546" xlink:href="#m17a3f80076" y="117.064531"/>
     <use style="fill:#1f77b4;stroke:#1f77b4;" x="132.367282" xlink:href="#m17a3f80076" y="117.080503"/>
     <use style="fill:#1f77b4;stroke:#1f77b4;" x="132.369956" xlink:href="#m17a3f80076" y="117.096567"/>
     <use style="fill:#1f77b4;stroke:#1f77b4;" x="132.372554" xlink:href="#m17a3f80076" y="117.113276"/>
     <use style="fill:#1f77b4;stroke:#1f77b4;" x="132.375118" xlink:href="#m17a3f80076" y="117.130176"/>
     <use style="fill:#1f77b4;stroke:#1f77b4;" x="132.377761" xlink:href="#m17a3f80076" y="117.146509"/>
     <use style="fill:#1f77b4;stroke:#1f77b4;" x="132.380418" xlink:href="#m17a3f80076" y="117.162408"/>
     <use style="fill:#1f77b4;stroke:#1f77b4;" x="132.383077" xlink:href="#m17a3f80076" y="117.178209"/>
     <use style="fill:#1f77b4;stroke:#1f77b4;" x="132.385696" xlink:href="#m17a3f80076" y="117.194484"/>
     <use style="fill:#1f77b4;stroke:#1f77b4;" x="132.388252" xlink:href="#m17a3f80076" y="117.210815"/>
     <use style="fill:#1f77b4;stroke:#1f77b4;" x="132.390787" xlink:href="#m17a3f80076" y="117.227537"/>
     <use style="fill:#1f77b4;stroke:#1f77b4;" x="132.393372" xlink:href="#m17a3f80076" y="117.243459"/>
     <use style="fill:#1f77b4;stroke:#1f77b4;" x="132.396122" xlink:href="#m17a3f80076" y="117.258447"/>
     <use style="fill:#1f77b4;stroke:#1f77b4;" x="132.398937" xlink:href="#m17a3f80076" y="117.273893"/>
     <use style="fill:#1f77b4;stroke:#1f77b4;" x="132.401707" xlink:href="#m17a3f80076" y="117.289048"/>
     <use style="fill:#1f77b4;stroke:#1f77b4;" x="132.404486" xlink:href="#m17a3f80076" y="117.304432"/>
     <use style="fill:#1f77b4;stroke:#1f77b4;" x="132.407335" xlink:href="#m17a3f80076" y="117.319024"/>
     <use style="fill:#1f77b4;stroke:#1f77b4;" x="132.410187" xlink:href="#m17a3f80076" y="117.33444"/>
     <use style="fill:#1f77b4;stroke:#1f77b4;" x="132.413057" xlink:href="#m17a3f80076" y="117.350116"/>
     <use style="fill:#1f77b4;stroke:#1f77b4;" x="132.415876" xlink:href="#m17a3f80076" y="117.365578"/>
     <use style="fill:#1f77b4;stroke:#1f77b4;" x="132.418596" xlink:href="#m17a3f80076" y="117.381275"/>
     <use style="fill:#1f77b4;stroke:#1f77b4;" x="132.421411" xlink:href="#m17a3f80076" y="117.396964"/>
     <use style="fill:#1f77b4;stroke:#1f77b4;" x="132.42422" xlink:href="#m17a3f80076" y="117.412674"/>
     <use style="fill:#1f77b4;stroke:#1f77b4;" x="132.426986" xlink:href="#m17a3f80076" y="117.428548"/>
    </g>
   </g>
   <g id="patch_3">
    <path d="M 56.028488 277.111219 
L 56.028488 10.999219 
" style="fill:none;stroke:#000000;stroke-linecap:square;stroke-linejoin:miter;stroke-width:0.8;"/>
   </g>
   <g id="patch_4">
    <path d="M 413.148488 277.111219 
L 413.148488 10.999219 
" style="fill:none;stroke:#000000;stroke-linecap:square;stroke-linejoin:miter;stroke-width:0.8;"/>
   </g>
   <g id="patch_5">
    <path d="M 56.028487 277.111219 
L 413.148488 277.111219 
" style="fill:none;stroke:#000000;stroke-linecap:square;stroke-linejoin:miter;stroke-width:0.8;"/>
   </g>
   <g id="patch_6">
    <path d="M 56.028487 10.999219 
L 413.148488 10.999219 
" style="fill:none;stroke:#000000;stroke-linecap:square;stroke-linejoin:miter;stroke-width:0.8;"/>
   </g>
   <g id="text_14">
    <g clip-path="url(#pa601041cc3)">
     <!-- 2.500 -->
     <g style="fill:#39558c;" transform="translate(200.099859 149.243779)rotate(-352.468769)scale(0.06 -0.06)">
      <use xlink:href="#DejaVuSans-50"/>
      <use x="63.623047" xlink:href="#DejaVuSans-46"/>
      <use x="95.410156" xlink:href="#DejaVuSans-53"/>
      <use x="159.033203" xlink:href="#DejaVuSans-48"/>
      <use x="222.65625" xlink:href="#DejaVuSans-48"/>
     </g>
    </g>
   </g>
   <g id="text_15">
    <g clip-path="url(#pa601041cc3)">
     <!-- 2.500 -->
     <g style="fill:#39558c;" transform="translate(272.01119 27.082184)rotate(-298.739506)scale(0.06 -0.06)">
      <use xlink:href="#DejaVuSans-50"/>
      <use x="63.623047" xlink:href="#DejaVuSans-46"/>
      <use x="95.410156" xlink:href="#DejaVuSans-53"/>
      <use x="159.033203" xlink:href="#DejaVuSans-48"/>
      <use x="222.65625" xlink:href="#DejaVuSans-48"/>
     </g>
    </g>
   </g>
   <g id="text_16">
    <g clip-path="url(#pa601041cc3)">
     <!-- 2.500 -->
     <g style="fill:#39558c;" transform="translate(202.294664 204.000553)rotate(-334.876092)scale(0.06 -0.06)">
      <use xlink:href="#DejaVuSans-50"/>
      <use x="63.623047" xlink:href="#DejaVuSans-46"/>
      <use x="95.410156" xlink:href="#DejaVuSans-53"/>
      <use x="159.033203" xlink:href="#DejaVuSans-48"/>
      <use x="222.65625" xlink:href="#DejaVuSans-48"/>
     </g>
    </g>
   </g>
   <g id="text_17">
    <g clip-path="url(#pa601041cc3)">
     <!-- 3.000 -->
     <g style="fill:#33638d;" transform="translate(223.005052 229.936213)rotate(-349.072834)scale(0.06 -0.06)">
      <use xlink:href="#DejaVuSans-51"/>
      <use x="63.623047" xlink:href="#DejaVuSans-46"/>
      <use x="95.410156" xlink:href="#DejaVuSans-48"/>
      <use x="159.033203" xlink:href="#DejaVuSans-48"/>
      <use x="222.65625" xlink:href="#DejaVuSans-48"/>
     </g>
    </g>
   </g>
   <g id="text_18">
    <g clip-path="url(#pa601041cc3)">
     <!-- 3.500 -->
     <g style="fill:#2d718e;" transform="translate(109.793777 136.023482)rotate(-282.41375)scale(0.06 -0.06)">
      <use xlink:href="#DejaVuSans-51"/>
      <use x="63.623047" xlink:href="#DejaVuSans-46"/>
      <use x="95.410156" xlink:href="#DejaVuSans-53"/>
      <use x="159.033203" xlink:href="#DejaVuSans-48"/>
      <use x="222.65625" xlink:href="#DejaVuSans-48"/>
     </g>
    </g>
   </g>
   <g id="text_19">
    <g clip-path="url(#pa601041cc3)">
     <!-- 4.000 -->
     <g style="fill:#287d8e;" transform="translate(235.630678 241.32611)rotate(-347.100141)scale(0.06 -0.06)">
      <use xlink:href="#DejaVuSans-52"/>
      <use x="63.623047" xlink:href="#DejaVuSans-46"/>
      <use x="95.410156" xlink:href="#DejaVuSans-48"/>
      <use x="159.033203" xlink:href="#DejaVuSans-48"/>
      <use x="222.65625" xlink:href="#DejaVuSans-48"/>
     </g>
    </g>
   </g>
   <g id="text_20">
    <g clip-path="url(#pa601041cc3)">
     <!-- 4.500 -->
     <g style="fill:#238a8d;" transform="translate(116.645567 164.471039)rotate(-327.699617)scale(0.06 -0.06)">
      <use xlink:href="#DejaVuSans-52"/>
      <use x="63.623047" xlink:href="#DejaVuSans-46"/>
      <use x="95.410156" xlink:href="#DejaVuSans-53"/>
      <use x="159.033203" xlink:href="#DejaVuSans-48"/>
      <use x="222.65625" xlink:href="#DejaVuSans-48"/>
     </g>
    </g>
   </g>
   <g id="text_21">
    <g clip-path="url(#pa601041cc3)">
     <!-- 5.000 -->
     <g style="fill:#1f968b;" transform="translate(162.385525 36.756333)rotate(-55.509852)scale(0.06 -0.06)">
      <use xlink:href="#DejaVuSans-53"/>
      <use x="63.623047" xlink:href="#DejaVuSans-46"/>
      <use x="95.410156" xlink:href="#DejaVuSans-48"/>
      <use x="159.033203" xlink:href="#DejaVuSans-48"/>
      <use x="222.65625" xlink:href="#DejaVuSans-48"/>
     </g>
    </g>
   </g>
   <g id="text_22">
    <g clip-path="url(#pa601041cc3)">
     <!-- 5.500 -->
     <g style="fill:#20a386;" transform="translate(207.728193 237.103304)rotate(-350.689573)scale(0.06 -0.06)">
      <use xlink:href="#DejaVuSans-53"/>
      <use x="63.623047" xlink:href="#DejaVuSans-46"/>
      <use x="95.410156" xlink:href="#DejaVuSans-53"/>
      <use x="159.033203" xlink:href="#DejaVuSans-48"/>
      <use x="222.65625" xlink:href="#DejaVuSans-48"/>
     </g>
    </g>
   </g>
   <g id="text_23">
    <g clip-path="url(#pa601041cc3)">
     <!-- 6.000 -->
     <g style="fill:#29af7f;" transform="translate(270.758313 259.206892)rotate(-348.017457)scale(0.06 -0.06)">
      <use xlink:href="#DejaVuSans-54"/>
      <use x="63.623047" xlink:href="#DejaVuSans-46"/>
      <use x="95.410156" xlink:href="#DejaVuSans-48"/>
      <use x="159.033203" xlink:href="#DejaVuSans-48"/>
      <use x="222.65625" xlink:href="#DejaVuSans-48"/>
     </g>
    </g>
   </g>
   <g id="text_24">
    <g clip-path="url(#pa601041cc3)">
     <!-- 6.500 -->
     <g style="fill:#3dbc74;" transform="translate(207.72493 239.681616)rotate(-349.424525)scale(0.06 -0.06)">
      <use xlink:href="#DejaVuSans-54"/>
      <use x="63.623047" xlink:href="#DejaVuSans-46"/>
      <use x="95.410156" xlink:href="#DejaVuSans-53"/>
      <use x="159.033203" xlink:href="#DejaVuSans-48"/>
      <use x="222.65625" xlink:href="#DejaVuSans-48"/>
     </g>
    </g>
   </g>
   <g id="text_25">
    <g clip-path="url(#pa601041cc3)">
     <!-- 7.000 -->
     <g style="fill:#56c667;" transform="translate(207.72706 241.215766)rotate(-350.397092)scale(0.06 -0.06)">
      <defs>
       <path d="M 8.203125 72.90625 
L 55.078125 72.90625 
L 55.078125 68.703125 
L 28.609375 0 
L 18.3125 0 
L 43.21875 64.59375 
L 8.203125 64.59375 
z
" id="DejaVuSans-55"/>
      </defs>
      <use xlink:href="#DejaVuSans-55"/>
      <use x="63.623047" xlink:href="#DejaVuSans-46"/>
      <use x="95.410156" xlink:href="#DejaVuSans-48"/>
      <use x="159.033203" xlink:href="#DejaVuSans-48"/>
      <use x="222.65625" xlink:href="#DejaVuSans-48"/>
     </g>
    </g>
   </g>
   <g id="text_26">
    <g clip-path="url(#pa601041cc3)">
     <!-- 7.500 -->
     <g style="fill:#75d054;" transform="translate(204.887266 242.027897)rotate(-351.698614)scale(0.06 -0.06)">
      <use xlink:href="#DejaVuSans-55"/>
      <use x="63.623047" xlink:href="#DejaVuSans-46"/>
      <use x="95.410156" xlink:href="#DejaVuSans-53"/>
      <use x="159.033203" xlink:href="#DejaVuSans-48"/>
      <use x="222.65625" xlink:href="#DejaVuSans-48"/>
     </g>
    </g>
   </g>
   <g id="text_27">
    <g clip-path="url(#pa601041cc3)">
     <!-- 8.000 -->
     <g style="fill:#95d840;" transform="translate(200.114516 242.406826)rotate(-353.825426)scale(0.06 -0.06)">
      <use xlink:href="#DejaVuSans-56"/>
      <use x="63.623047" xlink:href="#DejaVuSans-46"/>
      <use x="95.410156" xlink:href="#DejaVuSans-48"/>
      <use x="159.033203" xlink:href="#DejaVuSans-48"/>
      <use x="222.65625" xlink:href="#DejaVuSans-48"/>
     </g>
    </g>
   </g>
   <g id="text_28">
    <g clip-path="url(#pa601041cc3)">
     <!-- 8.500 -->
     <g style="fill:#bade28;" transform="translate(200.123351 243.397468)rotate(-354.481071)scale(0.06 -0.06)">
      <use xlink:href="#DejaVuSans-56"/>
      <use x="63.623047" xlink:href="#DejaVuSans-46"/>
      <use x="95.410156" xlink:href="#DejaVuSans-53"/>
      <use x="159.033203" xlink:href="#DejaVuSans-48"/>
      <use x="222.65625" xlink:href="#DejaVuSans-48"/>
     </g>
    </g>
   </g>
   <g id="text_29">
    <g clip-path="url(#pa601041cc3)">
     <!-- 9.000 -->
     <g style="fill:#dde318;" transform="translate(96.363358 144.920572)rotate(-282.851438)scale(0.06 -0.06)">
      <defs>
       <path d="M 10.984375 1.515625 
L 10.984375 10.5 
Q 14.703125 8.734375 18.5 7.8125 
Q 22.3125 6.890625 25.984375 6.890625 
Q 35.75 6.890625 40.890625 13.453125 
Q 46.046875 20.015625 46.78125 33.40625 
Q 43.953125 29.203125 39.59375 26.953125 
Q 35.25 24.703125 29.984375 24.703125 
Q 19.046875 24.703125 12.671875 31.3125 
Q 6.296875 37.9375 6.296875 49.421875 
Q 6.296875 60.640625 12.9375 67.421875 
Q 19.578125 74.21875 30.609375 74.21875 
Q 43.265625 74.21875 49.921875 64.515625 
Q 56.59375 54.828125 56.59375 36.375 
Q 56.59375 19.140625 48.40625 8.859375 
Q 40.234375 -1.421875 26.421875 -1.421875 
Q 22.703125 -1.421875 18.890625 -0.6875 
Q 15.09375 0.046875 10.984375 1.515625 
z
M 30.609375 32.421875 
Q 37.25 32.421875 41.125 36.953125 
Q 45.015625 41.5 45.015625 49.421875 
Q 45.015625 57.28125 41.125 61.84375 
Q 37.25 66.40625 30.609375 66.40625 
Q 23.96875 66.40625 20.09375 61.84375 
Q 16.21875 57.28125 16.21875 49.421875 
Q 16.21875 41.5 20.09375 36.953125 
Q 23.96875 32.421875 30.609375 32.421875 
z
" id="DejaVuSans-57"/>
      </defs>
      <use xlink:href="#DejaVuSans-57"/>
      <use x="63.623047" xlink:href="#DejaVuSans-46"/>
      <use x="95.410156" xlink:href="#DejaVuSans-48"/>
      <use x="159.033203" xlink:href="#DejaVuSans-48"/>
      <use x="222.65625" xlink:href="#DejaVuSans-48"/>
     </g>
    </g>
   </g>
   <g id="text_30">
    <g clip-path="url(#pa601041cc3)">
     <!-- 9.500 -->
     <g style="fill:#fde725;" transform="translate(200.120491 245.148467)rotate(-354.277848)scale(0.06 -0.06)">
      <use xlink:href="#DejaVuSans-57"/>
      <use x="63.623047" xlink:href="#DejaVuSans-46"/>
      <use x="95.410156" xlink:href="#DejaVuSans-53"/>
      <use x="159.033203" xlink:href="#DejaVuSans-48"/>
      <use x="222.65625" xlink:href="#DejaVuSans-48"/>
     </g>
    </g>
   </g>
   <g id="text_31">
    <g clip-path="url(#pa601041cc3)">
     <!-- 10.000 -->
     <g style="fill:#440154;" transform="translate(183.000452 245.182174)rotate(-357.914606)scale(0.06 -0.06)">
      <use xlink:href="#DejaVuSans-49"/>
      <use x="63.623047" xlink:href="#DejaVuSans-48"/>
      <use x="127.246094" xlink:href="#DejaVuSans-46"/>
      <use x="159.033203" xlink:href="#DejaVuSans-48"/>
      <use x="222.65625" xlink:href="#DejaVuSans-48"/>
      <use x="286.279297" xlink:href="#DejaVuSans-48"/>
     </g>
    </g>
   </g>
   <g id="text_32">
    <g clip-path="url(#pa601041cc3)">
     <!-- 100.000 -->
     <g style="fill:#440154;" transform="translate(69.394176 237.830401)rotate(-312.163847)scale(0.06 -0.06)">
      <use xlink:href="#DejaVuSans-49"/>
      <use x="63.623047" xlink:href="#DejaVuSans-48"/>
      <use x="127.246094" xlink:href="#DejaVuSans-48"/>
      <use x="190.869141" xlink:href="#DejaVuSans-46"/>
      <use x="222.65625" xlink:href="#DejaVuSans-48"/>
      <use x="286.279297" xlink:href="#DejaVuSans-48"/>
      <use x="349.902344" xlink:href="#DejaVuSans-48"/>
     </g>
    </g>
   </g>
   <g id="text_33">
    <g clip-path="url(#pa601041cc3)">
     <!-- 100.000 -->
     <g style="fill:#440154;" transform="translate(108.46941 67.494504)rotate(-7.557497)scale(0.06 -0.06)">
      <use xlink:href="#DejaVuSans-49"/>
      <use x="63.623047" xlink:href="#DejaVuSans-48"/>
      <use x="127.246094" xlink:href="#DejaVuSans-48"/>
      <use x="190.869141" xlink:href="#DejaVuSans-46"/>
      <use x="222.65625" xlink:href="#DejaVuSans-48"/>
      <use x="286.279297" xlink:href="#DejaVuSans-48"/>
      <use x="349.902344" xlink:href="#DejaVuSans-48"/>
     </g>
    </g>
   </g>
   <g id="text_34">
    <g clip-path="url(#pa601041cc3)">
     <!-- 1000.000 -->
     <g style="fill:#440154;" transform="translate(96.410203 48.413922)rotate(-18.030785)scale(0.06 -0.06)">
      <use xlink:href="#DejaVuSans-49"/>
      <use x="63.623047" xlink:href="#DejaVuSans-48"/>
      <use x="127.246094" xlink:href="#DejaVuSans-48"/>
      <use x="190.869141" xlink:href="#DejaVuSans-48"/>
      <use x="254.492188" xlink:href="#DejaVuSans-46"/>
      <use x="286.279297" xlink:href="#DejaVuSans-48"/>
      <use x="349.902344" xlink:href="#DejaVuSans-48"/>
      <use x="413.525391" xlink:href="#DejaVuSans-48"/>
     </g>
    </g>
   </g>
   <g id="text_35">
    <g clip-path="url(#pa601041cc3)">
     <!-- 10000.000 -->
     <g style="fill:#440154;" transform="translate(81.684609 45.630786)rotate(-23.63299)scale(0.06 -0.06)">
      <use xlink:href="#DejaVuSans-49"/>
      <use x="63.623047" xlink:href="#DejaVuSans-48"/>
      <use x="127.246094" xlink:href="#DejaVuSans-48"/>
      <use x="190.869141" xlink:href="#DejaVuSans-48"/>
      <use x="254.492188" xlink:href="#DejaVuSans-48"/>
      <use x="318.115234" xlink:href="#DejaVuSans-46"/>
      <use x="349.902344" xlink:href="#DejaVuSans-48"/>
      <use x="413.525391" xlink:href="#DejaVuSans-48"/>
      <use x="477.148438" xlink:href="#DejaVuSans-48"/>
     </g>
    </g>
   </g>
   <g id="text_36">
    <g clip-path="url(#pa601041cc3)">
     <!-- 100000.000 -->
     <g style="fill:#440154;" transform="translate(71.177113 40.930515)rotate(-26.954764)scale(0.06 -0.06)">
      <use xlink:href="#DejaVuSans-49"/>
      <use x="63.623047" xlink:href="#DejaVuSans-48"/>
      <use x="127.246094" xlink:href="#DejaVuSans-48"/>
      <use x="190.869141" xlink:href="#DejaVuSans-48"/>
      <use x="254.492188" xlink:href="#DejaVuSans-48"/>
      <use x="318.115234" xlink:href="#DejaVuSans-48"/>
      <use x="381.738281" xlink:href="#DejaVuSans-46"/>
      <use x="413.525391" xlink:href="#DejaVuSans-48"/>
      <use x="477.148438" xlink:href="#DejaVuSans-48"/>
      <use x="540.771484" xlink:href="#DejaVuSans-48"/>
     </g>
    </g>
   </g>
  </g>
 </g>
 <defs>
  <clipPath id="pa601041cc3">
   <rect height="266.112" width="357.12" x="56.028488" y="10.999219"/>
  </clipPath>
 </defs>
</svg>
