<?xml version="1.0" encoding="utf-8" standalone="no"?>
<!DOCTYPE svg PUBLIC "-//W3C//DTD SVG 1.1//EN"
  "http://www.w3.org/Graphics/SVG/1.1/DTD/svg11.dtd">
<!-- Created with matplotlib (https://matplotlib.org/) -->
<svg height="321.713144pt" version="1.1" viewBox="0 0 420.348487 321.713144" width="420.348487pt" xmlns="http://www.w3.org/2000/svg" xmlns:xlink="http://www.w3.org/1999/xlink">
 <metadata>
  <rdf:RDF xmlns:cc="http://creativecommons.org/ns#" xmlns:dc="http://purl.org/dc/elements/1.1/" xmlns:rdf="http://www.w3.org/1999/02/22-rdf-syntax-ns#">
   <cc:Work>
    <dc:type rdf:resource="http://purl.org/dc/dcmitype/StillImage"/>
    <dc:date>2021-09-18T18:12:47.082506</dc:date>
    <dc:format>image/svg+xml</dc:format>
    <dc:creator>
     <cc:Agent>
      <dc:title>Matplotlib v3.3.1, https://matplotlib.org/</dc:title>
     </cc:Agent>
    </dc:creator>
   </cc:Work>
  </rdf:RDF>
 </metadata>
 <defs>
  <style type="text/css">*{stroke-linecap:butt;stroke-linejoin:round;}</style>
 </defs>
 <g id="figure_1">
  <g id="patch_1">
   <path d="M 0 321.713144 
L 420.348487 321.713144 
L 420.348487 0 
L 0 0 
z
" style="fill:#ffffff;"/>
  </g>
  <g id="axes_1">
   <g id="patch_2">
    <path d="M 56.028488 277.111219 
L 413.148488 277.111219 
L 413.148488 10.999219 
L 56.028488 10.999219 
z
" style="fill:#ffffff;"/>
   </g>
   <g id="matplotlib.axis_1">
    <g id="xtick_1">
     <g id="line2d_1">
      <defs>
       <path d="M 0 0 
L 0 3.5 
" id="m8d86a183de" style="stroke:#000000;stroke-width:0.8;"/>
      </defs>
      <g>
       <use style="stroke:#000000;stroke-width:0.8;" x="56.028488" xlink:href="#m8d86a183de" y="277.111219"/>
      </g>
     </g>
     <g id="text_1">
      <!-- −20 -->
      <g transform="translate(45.476144 291.709656)scale(0.1 -0.1)">
       <defs>
        <path d="M 10.59375 35.5 
L 73.1875 35.5 
L 73.1875 27.203125 
L 10.59375 27.203125 
z
" id="DejaVuSans-8722"/>
        <path d="M 19.1875 8.296875 
L 53.609375 8.296875 
L 53.609375 0 
L 7.328125 0 
L 7.328125 8.296875 
Q 12.9375 14.109375 22.625 23.890625 
Q 32.328125 33.6875 34.8125 36.53125 
Q 39.546875 41.84375 41.421875 45.53125 
Q 43.3125 49.21875 43.3125 52.78125 
Q 43.3125 58.59375 39.234375 62.25 
Q 35.15625 65.921875 28.609375 65.921875 
Q 23.96875 65.921875 18.8125 64.3125 
Q 13.671875 62.703125 7.8125 59.421875 
L 7.8125 69.390625 
Q 13.765625 71.78125 18.9375 73 
Q 24.125 74.21875 28.421875 74.21875 
Q 39.75 74.21875 46.484375 68.546875 
Q 53.21875 62.890625 53.21875 53.421875 
Q 53.21875 48.921875 51.53125 44.890625 
Q 49.859375 40.875 45.40625 35.40625 
Q 44.1875 33.984375 37.640625 27.21875 
Q 31.109375 20.453125 19.1875 8.296875 
z
" id="DejaVuSans-50"/>
        <path d="M 31.78125 66.40625 
Q 24.171875 66.40625 20.328125 58.90625 
Q 16.5 51.421875 16.5 36.375 
Q 16.5 21.390625 20.328125 13.890625 
Q 24.171875 6.390625 31.78125 6.390625 
Q 39.453125 6.390625 43.28125 13.890625 
Q 47.125 21.390625 47.125 36.375 
Q 47.125 51.421875 43.28125 58.90625 
Q 39.453125 66.40625 31.78125 66.40625 
z
M 31.78125 74.21875 
Q 44.046875 74.21875 50.515625 64.515625 
Q 56.984375 54.828125 56.984375 36.375 
Q 56.984375 17.96875 50.515625 8.265625 
Q 44.046875 -1.421875 31.78125 -1.421875 
Q 19.53125 -1.421875 13.0625 8.265625 
Q 6.59375 17.96875 6.59375 36.375 
Q 6.59375 54.828125 13.0625 64.515625 
Q 19.53125 74.21875 31.78125 74.21875 
z
" id="DejaVuSans-48"/>
       </defs>
       <use xlink:href="#DejaVuSans-8722"/>
       <use x="83.789062" xlink:href="#DejaVuSans-50"/>
       <use x="147.412109" xlink:href="#DejaVuSans-48"/>
      </g>
     </g>
    </g>
    <g id="xtick_2">
     <g id="line2d_2">
      <g>
       <use style="stroke:#000000;stroke-width:0.8;" x="125.983596" xlink:href="#m8d86a183de" y="277.111219"/>
      </g>
     </g>
     <g id="text_2">
      <!-- 0 -->
      <g transform="translate(122.802346 291.709656)scale(0.1 -0.1)">
       <use xlink:href="#DejaVuSans-48"/>
      </g>
     </g>
    </g>
    <g id="xtick_3">
     <g id="line2d_3">
      <g>
       <use style="stroke:#000000;stroke-width:0.8;" x="195.938705" xlink:href="#m8d86a183de" y="277.111219"/>
      </g>
     </g>
     <g id="text_3">
      <!-- 20 -->
      <g transform="translate(189.576205 291.709656)scale(0.1 -0.1)">
       <use xlink:href="#DejaVuSans-50"/>
       <use x="63.623047" xlink:href="#DejaVuSans-48"/>
      </g>
     </g>
    </g>
    <g id="xtick_4">
     <g id="line2d_4">
      <g>
       <use style="stroke:#000000;stroke-width:0.8;" x="265.893814" xlink:href="#m8d86a183de" y="277.111219"/>
      </g>
     </g>
     <g id="text_4">
      <!-- 40 -->
      <g transform="translate(259.531314 291.709656)scale(0.1 -0.1)">
       <defs>
        <path d="M 37.796875 64.3125 
L 12.890625 25.390625 
L 37.796875 25.390625 
z
M 35.203125 72.90625 
L 47.609375 72.90625 
L 47.609375 25.390625 
L 58.015625 25.390625 
L 58.015625 17.1875 
L 47.609375 17.1875 
L 47.609375 0 
L 37.796875 0 
L 37.796875 17.1875 
L 4.890625 17.1875 
L 4.890625 26.703125 
z
" id="DejaVuSans-52"/>
       </defs>
       <use xlink:href="#DejaVuSans-52"/>
       <use x="63.623047" xlink:href="#DejaVuSans-48"/>
      </g>
     </g>
    </g>
    <g id="xtick_5">
     <g id="line2d_5">
      <g>
       <use style="stroke:#000000;stroke-width:0.8;" x="335.848922" xlink:href="#m8d86a183de" y="277.111219"/>
      </g>
     </g>
     <g id="text_5">
      <!-- 60 -->
      <g transform="translate(329.486422 291.709656)scale(0.1 -0.1)">
       <defs>
        <path d="M 33.015625 40.375 
Q 26.375 40.375 22.484375 35.828125 
Q 18.609375 31.296875 18.609375 23.390625 
Q 18.609375 15.53125 22.484375 10.953125 
Q 26.375 6.390625 33.015625 6.390625 
Q 39.65625 6.390625 43.53125 10.953125 
Q 47.40625 15.53125 47.40625 23.390625 
Q 47.40625 31.296875 43.53125 35.828125 
Q 39.65625 40.375 33.015625 40.375 
z
M 52.59375 71.296875 
L 52.59375 62.3125 
Q 48.875 64.0625 45.09375 64.984375 
Q 41.3125 65.921875 37.59375 65.921875 
Q 27.828125 65.921875 22.671875 59.328125 
Q 17.53125 52.734375 16.796875 39.40625 
Q 19.671875 43.65625 24.015625 45.921875 
Q 28.375 48.1875 33.59375 48.1875 
Q 44.578125 48.1875 50.953125 41.515625 
Q 57.328125 34.859375 57.328125 23.390625 
Q 57.328125 12.15625 50.6875 5.359375 
Q 44.046875 -1.421875 33.015625 -1.421875 
Q 20.359375 -1.421875 13.671875 8.265625 
Q 6.984375 17.96875 6.984375 36.375 
Q 6.984375 53.65625 15.1875 63.9375 
Q 23.390625 74.21875 37.203125 74.21875 
Q 40.921875 74.21875 44.703125 73.484375 
Q 48.484375 72.75 52.59375 71.296875 
z
" id="DejaVuSans-54"/>
       </defs>
       <use xlink:href="#DejaVuSans-54"/>
       <use x="63.623047" xlink:href="#DejaVuSans-48"/>
      </g>
     </g>
    </g>
    <g id="xtick_6">
     <g id="line2d_6">
      <g>
       <use style="stroke:#000000;stroke-width:0.8;" x="405.804031" xlink:href="#m8d86a183de" y="277.111219"/>
      </g>
     </g>
     <g id="text_6">
      <!-- 80 -->
      <g transform="translate(399.441531 291.709656)scale(0.1 -0.1)">
       <defs>
        <path d="M 31.78125 34.625 
Q 24.75 34.625 20.71875 30.859375 
Q 16.703125 27.09375 16.703125 20.515625 
Q 16.703125 13.921875 20.71875 10.15625 
Q 24.75 6.390625 31.78125 6.390625 
Q 38.8125 6.390625 42.859375 10.171875 
Q 46.921875 13.96875 46.921875 20.515625 
Q 46.921875 27.09375 42.890625 30.859375 
Q 38.875 34.625 31.78125 34.625 
z
M 21.921875 38.8125 
Q 15.578125 40.375 12.03125 44.71875 
Q 8.5 49.078125 8.5 55.328125 
Q 8.5 64.0625 14.71875 69.140625 
Q 20.953125 74.21875 31.78125 74.21875 
Q 42.671875 74.21875 48.875 69.140625 
Q 55.078125 64.0625 55.078125 55.328125 
Q 55.078125 49.078125 51.53125 44.71875 
Q 48 40.375 41.703125 38.8125 
Q 48.828125 37.15625 52.796875 32.3125 
Q 56.78125 27.484375 56.78125 20.515625 
Q 56.78125 9.90625 50.3125 4.234375 
Q 43.84375 -1.421875 31.78125 -1.421875 
Q 19.734375 -1.421875 13.25 4.234375 
Q 6.78125 9.90625 6.78125 20.515625 
Q 6.78125 27.484375 10.78125 32.3125 
Q 14.796875 37.15625 21.921875 38.8125 
z
M 18.3125 54.390625 
Q 18.3125 48.734375 21.84375 45.5625 
Q 25.390625 42.390625 31.78125 42.390625 
Q 38.140625 42.390625 41.71875 45.5625 
Q 45.3125 48.734375 45.3125 54.390625 
Q 45.3125 60.0625 41.71875 63.234375 
Q 38.140625 66.40625 31.78125 66.40625 
Q 25.390625 66.40625 21.84375 63.234375 
Q 18.3125 60.0625 18.3125 54.390625 
z
" id="DejaVuSans-56"/>
       </defs>
       <use xlink:href="#DejaVuSans-56"/>
       <use x="63.623047" xlink:href="#DejaVuSans-48"/>
      </g>
     </g>
    </g>
    <g id="text_7">
     <!-- 1st PC: 75.70 % -->
     <g transform="translate(165.868088 310.919444)scale(0.1728 -0.1728)">
      <defs>
       <path d="M 12.40625 8.296875 
L 28.515625 8.296875 
L 28.515625 63.921875 
L 10.984375 60.40625 
L 10.984375 69.390625 
L 28.421875 72.90625 
L 38.28125 72.90625 
L 38.28125 8.296875 
L 54.390625 8.296875 
L 54.390625 0 
L 12.40625 0 
z
" id="DejaVuSans-49"/>
       <path d="M 44.28125 53.078125 
L 44.28125 44.578125 
Q 40.484375 46.53125 36.375 47.5 
Q 32.28125 48.484375 27.875 48.484375 
Q 21.1875 48.484375 17.84375 46.4375 
Q 14.5 44.390625 14.5 40.28125 
Q 14.5 37.15625 16.890625 35.375 
Q 19.28125 33.59375 26.515625 31.984375 
L 29.59375 31.296875 
Q 39.15625 29.25 43.1875 25.515625 
Q 47.21875 21.78125 47.21875 15.09375 
Q 47.21875 7.46875 41.1875 3.015625 
Q 35.15625 -1.421875 24.609375 -1.421875 
Q 20.21875 -1.421875 15.453125 -0.5625 
Q 10.6875 0.296875 5.421875 2 
L 5.421875 11.28125 
Q 10.40625 8.6875 15.234375 7.390625 
Q 20.0625 6.109375 24.8125 6.109375 
Q 31.15625 6.109375 34.5625 8.28125 
Q 37.984375 10.453125 37.984375 14.40625 
Q 37.984375 18.0625 35.515625 20.015625 
Q 33.0625 21.96875 24.703125 23.78125 
L 21.578125 24.515625 
Q 13.234375 26.265625 9.515625 29.90625 
Q 5.8125 33.546875 5.8125 39.890625 
Q 5.8125 47.609375 11.28125 51.796875 
Q 16.75 56 26.8125 56 
Q 31.78125 56 36.171875 55.265625 
Q 40.578125 54.546875 44.28125 53.078125 
z
" id="DejaVuSans-115"/>
       <path d="M 18.3125 70.21875 
L 18.3125 54.6875 
L 36.8125 54.6875 
L 36.8125 47.703125 
L 18.3125 47.703125 
L 18.3125 18.015625 
Q 18.3125 11.328125 20.140625 9.421875 
Q 21.96875 7.515625 27.59375 7.515625 
L 36.8125 7.515625 
L 36.8125 0 
L 27.59375 0 
Q 17.1875 0 13.234375 3.875 
Q 9.28125 7.765625 9.28125 18.015625 
L 9.28125 47.703125 
L 2.6875 47.703125 
L 2.6875 54.6875 
L 9.28125 54.6875 
L 9.28125 70.21875 
z
" id="DejaVuSans-116"/>
       <path id="DejaVuSans-32"/>
       <path d="M 19.671875 64.796875 
L 19.671875 37.40625 
L 32.078125 37.40625 
Q 38.96875 37.40625 42.71875 40.96875 
Q 46.484375 44.53125 46.484375 51.125 
Q 46.484375 57.671875 42.71875 61.234375 
Q 38.96875 64.796875 32.078125 64.796875 
z
M 9.8125 72.90625 
L 32.078125 72.90625 
Q 44.34375 72.90625 50.609375 67.359375 
Q 56.890625 61.8125 56.890625 51.125 
Q 56.890625 40.328125 50.609375 34.8125 
Q 44.34375 29.296875 32.078125 29.296875 
L 19.671875 29.296875 
L 19.671875 0 
L 9.8125 0 
z
" id="DejaVuSans-80"/>
       <path d="M 64.40625 67.28125 
L 64.40625 56.890625 
Q 59.421875 61.53125 53.78125 63.8125 
Q 48.140625 66.109375 41.796875 66.109375 
Q 29.296875 66.109375 22.65625 58.46875 
Q 16.015625 50.828125 16.015625 36.375 
Q 16.015625 21.96875 22.65625 14.328125 
Q 29.296875 6.6875 41.796875 6.6875 
Q 48.140625 6.6875 53.78125 8.984375 
Q 59.421875 11.28125 64.40625 15.921875 
L 64.40625 5.609375 
Q 59.234375 2.09375 53.4375 0.328125 
Q 47.65625 -1.421875 41.21875 -1.421875 
Q 24.65625 -1.421875 15.125 8.703125 
Q 5.609375 18.84375 5.609375 36.375 
Q 5.609375 53.953125 15.125 64.078125 
Q 24.65625 74.21875 41.21875 74.21875 
Q 47.75 74.21875 53.53125 72.484375 
Q 59.328125 70.75 64.40625 67.28125 
z
" id="DejaVuSans-67"/>
       <path d="M 11.71875 12.40625 
L 22.015625 12.40625 
L 22.015625 0 
L 11.71875 0 
z
M 11.71875 51.703125 
L 22.015625 51.703125 
L 22.015625 39.3125 
L 11.71875 39.3125 
z
" id="DejaVuSans-58"/>
       <path d="M 8.203125 72.90625 
L 55.078125 72.90625 
L 55.078125 68.703125 
L 28.609375 0 
L 18.3125 0 
L 43.21875 64.59375 
L 8.203125 64.59375 
z
" id="DejaVuSans-55"/>
       <path d="M 10.796875 72.90625 
L 49.515625 72.90625 
L 49.515625 64.59375 
L 19.828125 64.59375 
L 19.828125 46.734375 
Q 21.96875 47.46875 24.109375 47.828125 
Q 26.265625 48.1875 28.421875 48.1875 
Q 40.625 48.1875 47.75 41.5 
Q 54.890625 34.8125 54.890625 23.390625 
Q 54.890625 11.625 47.5625 5.09375 
Q 40.234375 -1.421875 26.90625 -1.421875 
Q 22.3125 -1.421875 17.546875 -0.640625 
Q 12.796875 0.140625 7.71875 1.703125 
L 7.71875 11.625 
Q 12.109375 9.234375 16.796875 8.0625 
Q 21.484375 6.890625 26.703125 6.890625 
Q 35.15625 6.890625 40.078125 11.328125 
Q 45.015625 15.765625 45.015625 23.390625 
Q 45.015625 31 40.078125 35.4375 
Q 35.15625 39.890625 26.703125 39.890625 
Q 22.75 39.890625 18.8125 39.015625 
Q 14.890625 38.140625 10.796875 36.28125 
z
" id="DejaVuSans-53"/>
       <path d="M 10.6875 12.40625 
L 21 12.40625 
L 21 0 
L 10.6875 0 
z
" id="DejaVuSans-46"/>
       <path d="M 72.703125 32.078125 
Q 68.453125 32.078125 66.03125 28.46875 
Q 63.625 24.859375 63.625 18.40625 
Q 63.625 12.0625 66.03125 8.421875 
Q 68.453125 4.78125 72.703125 4.78125 
Q 76.859375 4.78125 79.265625 8.421875 
Q 81.6875 12.0625 81.6875 18.40625 
Q 81.6875 24.8125 79.265625 28.4375 
Q 76.859375 32.078125 72.703125 32.078125 
z
M 72.703125 38.28125 
Q 80.421875 38.28125 84.953125 32.90625 
Q 89.5 27.546875 89.5 18.40625 
Q 89.5 9.28125 84.9375 3.921875 
Q 80.375 -1.421875 72.703125 -1.421875 
Q 64.890625 -1.421875 60.34375 3.921875 
Q 55.8125 9.28125 55.8125 18.40625 
Q 55.8125 27.59375 60.375 32.9375 
Q 64.9375 38.28125 72.703125 38.28125 
z
M 22.3125 68.015625 
Q 18.109375 68.015625 15.6875 64.375 
Q 13.28125 60.75 13.28125 54.390625 
Q 13.28125 47.953125 15.671875 44.328125 
Q 18.0625 40.71875 22.3125 40.71875 
Q 26.5625 40.71875 28.96875 44.328125 
Q 31.390625 47.953125 31.390625 54.390625 
Q 31.390625 60.6875 28.953125 64.34375 
Q 26.515625 68.015625 22.3125 68.015625 
z
M 66.40625 74.21875 
L 74.21875 74.21875 
L 28.609375 -1.421875 
L 20.796875 -1.421875 
z
M 22.3125 74.21875 
Q 30.03125 74.21875 34.609375 68.875 
Q 39.203125 63.53125 39.203125 54.390625 
Q 39.203125 45.171875 34.640625 39.84375 
Q 30.078125 34.515625 22.3125 34.515625 
Q 14.546875 34.515625 10.03125 39.859375 
Q 5.515625 45.21875 5.515625 54.390625 
Q 5.515625 63.484375 10.046875 68.84375 
Q 14.59375 74.21875 22.3125 74.21875 
z
" id="DejaVuSans-37"/>
      </defs>
      <use xlink:href="#DejaVuSans-49"/>
      <use x="63.623047" xlink:href="#DejaVuSans-115"/>
      <use x="115.722656" xlink:href="#DejaVuSans-116"/>
      <use x="154.931641" xlink:href="#DejaVuSans-32"/>
      <use x="186.71875" xlink:href="#DejaVuSans-80"/>
      <use x="247.021484" xlink:href="#DejaVuSans-67"/>
      <use x="316.845703" xlink:href="#DejaVuSans-58"/>
      <use x="350.537109" xlink:href="#DejaVuSans-32"/>
      <use x="382.324219" xlink:href="#DejaVuSans-55"/>
      <use x="445.947266" xlink:href="#DejaVuSans-53"/>
      <use x="509.570312" xlink:href="#DejaVuSans-46"/>
      <use x="541.357422" xlink:href="#DejaVuSans-55"/>
      <use x="604.980469" xlink:href="#DejaVuSans-48"/>
      <use x="668.603516" xlink:href="#DejaVuSans-32"/>
      <use x="700.390625" xlink:href="#DejaVuSans-37"/>
     </g>
    </g>
   </g>
   <g id="matplotlib.axis_2">
    <g id="ytick_1">
     <g id="line2d_7">
      <defs>
       <path d="M 0 0 
L -3.5 0 
" id="m4f6cc1e0ab" style="stroke:#000000;stroke-width:0.8;"/>
      </defs>
      <g>
       <use style="stroke:#000000;stroke-width:0.8;" x="56.028488" xlink:href="#m4f6cc1e0ab" y="266.836424"/>
      </g>
     </g>
     <g id="text_8">
      <!-- −15 -->
      <g transform="translate(27.9238 270.635643)scale(0.1 -0.1)">
       <use xlink:href="#DejaVuSans-8722"/>
       <use x="83.789062" xlink:href="#DejaVuSans-49"/>
       <use x="147.412109" xlink:href="#DejaVuSans-53"/>
      </g>
     </g>
    </g>
    <g id="ytick_2">
     <g id="line2d_8">
      <g>
       <use style="stroke:#000000;stroke-width:0.8;" x="56.028488" xlink:href="#m4f6cc1e0ab" y="215.668983"/>
      </g>
     </g>
     <g id="text_9">
      <!-- −10 -->
      <g transform="translate(27.9238 219.468202)scale(0.1 -0.1)">
       <use xlink:href="#DejaVuSans-8722"/>
       <use x="83.789062" xlink:href="#DejaVuSans-49"/>
       <use x="147.412109" xlink:href="#DejaVuSans-48"/>
      </g>
     </g>
    </g>
    <g id="ytick_3">
     <g id="line2d_9">
      <g>
       <use style="stroke:#000000;stroke-width:0.8;" x="56.028488" xlink:href="#m4f6cc1e0ab" y="164.501542"/>
      </g>
     </g>
     <g id="text_10">
      <!-- −5 -->
      <g transform="translate(34.2863 168.300761)scale(0.1 -0.1)">
       <use xlink:href="#DejaVuSans-8722"/>
       <use x="83.789062" xlink:href="#DejaVuSans-53"/>
      </g>
     </g>
    </g>
    <g id="ytick_4">
     <g id="line2d_10">
      <g>
       <use style="stroke:#000000;stroke-width:0.8;" x="56.028488" xlink:href="#m4f6cc1e0ab" y="113.334101"/>
      </g>
     </g>
     <g id="text_11">
      <!-- 0 -->
      <g transform="translate(42.665987 117.13332)scale(0.1 -0.1)">
       <use xlink:href="#DejaVuSans-48"/>
      </g>
     </g>
    </g>
    <g id="ytick_5">
     <g id="line2d_11">
      <g>
       <use style="stroke:#000000;stroke-width:0.8;" x="56.028488" xlink:href="#m4f6cc1e0ab" y="62.16666"/>
      </g>
     </g>
     <g id="text_12">
      <!-- 5 -->
      <g transform="translate(42.665987 65.965879)scale(0.1 -0.1)">
       <use xlink:href="#DejaVuSans-53"/>
      </g>
     </g>
    </g>
    <g id="ytick_6">
     <g id="line2d_12">
      <g>
       <use style="stroke:#000000;stroke-width:0.8;" x="56.028488" xlink:href="#m4f6cc1e0ab" y="10.999219"/>
      </g>
     </g>
     <g id="text_13">
      <!-- 10 -->
      <g transform="translate(36.303488 14.798437)scale(0.1 -0.1)">
       <use xlink:href="#DejaVuSans-49"/>
       <use x="63.623047" xlink:href="#DejaVuSans-48"/>
      </g>
     </g>
    </g>
    <g id="text_14">
     <!-- 2nd PC: 12.20 % -->
     <g transform="translate(20.3301 215.848219)rotate(-90)scale(0.1728 -0.1728)">
      <defs>
       <path d="M 54.890625 33.015625 
L 54.890625 0 
L 45.90625 0 
L 45.90625 32.71875 
Q 45.90625 40.484375 42.875 44.328125 
Q 39.84375 48.1875 33.796875 48.1875 
Q 26.515625 48.1875 22.3125 43.546875 
Q 18.109375 38.921875 18.109375 30.90625 
L 18.109375 0 
L 9.078125 0 
L 9.078125 54.6875 
L 18.109375 54.6875 
L 18.109375 46.1875 
Q 21.34375 51.125 25.703125 53.5625 
Q 30.078125 56 35.796875 56 
Q 45.21875 56 50.046875 50.171875 
Q 54.890625 44.34375 54.890625 33.015625 
z
" id="DejaVuSans-110"/>
       <path d="M 45.40625 46.390625 
L 45.40625 75.984375 
L 54.390625 75.984375 
L 54.390625 0 
L 45.40625 0 
L 45.40625 8.203125 
Q 42.578125 3.328125 38.25 0.953125 
Q 33.9375 -1.421875 27.875 -1.421875 
Q 17.96875 -1.421875 11.734375 6.484375 
Q 5.515625 14.40625 5.515625 27.296875 
Q 5.515625 40.1875 11.734375 48.09375 
Q 17.96875 56 27.875 56 
Q 33.9375 56 38.25 53.625 
Q 42.578125 51.265625 45.40625 46.390625 
z
M 14.796875 27.296875 
Q 14.796875 17.390625 18.875 11.75 
Q 22.953125 6.109375 30.078125 6.109375 
Q 37.203125 6.109375 41.296875 11.75 
Q 45.40625 17.390625 45.40625 27.296875 
Q 45.40625 37.203125 41.296875 42.84375 
Q 37.203125 48.484375 30.078125 48.484375 
Q 22.953125 48.484375 18.875 42.84375 
Q 14.796875 37.203125 14.796875 27.296875 
z
" id="DejaVuSans-100"/>
      </defs>
      <use xlink:href="#DejaVuSans-50"/>
      <use x="63.623047" xlink:href="#DejaVuSans-110"/>
      <use x="127.001953" xlink:href="#DejaVuSans-100"/>
      <use x="190.478516" xlink:href="#DejaVuSans-32"/>
      <use x="222.265625" xlink:href="#DejaVuSans-80"/>
      <use x="282.568359" xlink:href="#DejaVuSans-67"/>
      <use x="352.392578" xlink:href="#DejaVuSans-58"/>
      <use x="386.083984" xlink:href="#DejaVuSans-32"/>
      <use x="417.871094" xlink:href="#DejaVuSans-49"/>
      <use x="481.494141" xlink:href="#DejaVuSans-50"/>
      <use x="545.117188" xlink:href="#DejaVuSans-46"/>
      <use x="576.904297" xlink:href="#DejaVuSans-50"/>
      <use x="640.527344" xlink:href="#DejaVuSans-48"/>
      <use x="704.150391" xlink:href="#DejaVuSans-32"/>
      <use x="735.9375" xlink:href="#DejaVuSans-37"/>
     </g>
    </g>
   </g>
   <g id="LineCollection_1"/>
   <g id="LineCollection_2"/>
   <g id="LineCollection_3"/>
   <g id="LineCollection_4">
    <path clip-path="url(#pcbc25cbb8c)" d="M 129.136702 96.759296 
L 129.481352 97.389784 
L 129.525237 99.68945 
L 129.725724 106.511775 
L 130.36093 113.334101 
L 131.193237 120.156426 
L 130.529263 126.978752 
L 129.481352 131.821839 
L 128.737748 133.801077 
L 126.51686 140.623403 
L 125.983596 142.705545 
L 123.257203 147.445728 
L 122.485841 149.254686 
L 121.456649 147.445728 
L 120.674324 140.623403 
L 120.614153 133.801077 
L 120.6582 126.978752 
L 120.697789 120.156426 
L 120.758825 113.334101 
L 120.931718 106.511775 
L 121.425849 99.68945 
L 122.485016 94.23709 
" style="fill:none;stroke:#453781;stroke-width:1.5;"/>
   </g>
   <g id="LineCollection_5">
    <path clip-path="url(#pcbc25cbb8c)" d="M 118.458612 97.690658 
L 118.988085 95.768492 
L 119.802555 92.867124 
L 122.485841 88.86553 
L 125.983596 87.685085 
L 129.481352 92.513952 
L 129.496389 92.867124 
L 129.659944 99.68945 
L 130.245564 106.511775 
L 132.314514 113.334101 
L 132.979107 115.735535 
L 132.998827 120.156426 
L 133.013377 126.978752 
L 132.979107 133.378271 
L 132.846974 133.801077 
L 130.467262 140.623403 
L 129.481352 144.177276 
L 128.269955 147.445728 
L 126.237109 154.268054 
L 125.983596 155.069324 
L 123.230776 161.090379 
L 122.485841 162.835484 
L 119.139343 167.912705 
L 118.988085 168.137283 
L 118.032358 167.912705 
L 115.49033 165.260787 
L 115.042501 161.090379 
L 114.873242 154.268054 
L 115.025056 147.445728 
L 115.373657 140.623403 
L 115.49033 138.435062 
L 115.786151 133.801077 
L 116.112106 126.978752 
L 116.347214 120.156426 
L 116.484585 116.104088 
" style="fill:none;stroke:#404688;stroke-width:1.5;"/>
   </g>
   <g id="LineCollection_6">
    <path clip-path="url(#pcbc25cbb8c)" d="M 122.997777 167.36239 
L 122.750147 167.912705 
L 122.485841 168.481647 
L 118.988085 174.0733 
L 118.062433 174.73503 
L 115.49033 176.812001 
L 114.283087 174.73503 
L 112.849406 167.912705 
L 112.21258 161.090379 
L 111.992574 156.409488 
L 111.876765 154.268054 
L 111.772243 147.445728 
L 111.968622 140.623403 
L 111.992574 140.002173 
L 112.215517 133.801077 
L 112.450563 126.978752 
L 112.717944 120.156426 
L 113.096689 113.334101 
L 113.731851 106.511775 
L 115.076375 99.68945 
L 115.49033 98.862623 
L 117.561075 92.867124 
L 118.988085 90.59411 
L 121.811843 86.044799 
L 122.485841 85.765452 
L 125.983596 85.648954 
L 126.322785 86.044799 
L 129.481352 91.53097 
L 129.538244 92.867124 
L 129.79465 99.68945 
L 130.765404 106.511775 
L 132.979107 112.418849 
L 132.989386 113.334101 
L 133.030315 120.156426 
L 133.076006 126.978752 
L 133.097542 133.801077 
L 132.979107 139.789075 
L 132.681715 140.623403 
L 130.370654 147.445728 
L 129.481352 150.321165 
L 128.224858 153.735619 
" style="fill:none;stroke:#39558c;stroke-width:1.5;"/>
   </g>
   <g id="LineCollection_7">
    <path clip-path="url(#pcbc25cbb8c)" d="M 104.984519 135.061145 
L 104.976532 133.801077 
L 104.969758 126.978752 
L 104.986101 120.156426 
L 104.997064 115.88501 
L 107.143648 113.334101 
L 108.494819 112.169231 
L 109.533815 106.511775 
L 111.992574 100.595961 
L 112.190817 99.68945 
L 115.49033 93.099051 
L 115.570434 92.867124 
L 118.988085 87.423313 
L 119.843729 86.044799 
L 122.485841 84.949742 
L 125.983596 84.98849 
L 126.888719 86.044799 
L 129.481352 90.547989 
L 129.580099 92.867124 
L 129.929357 99.68945 
L 131.285244 106.511775 
L 132.979107 111.031702 
L 133.004965 113.334101 
L 133.061804 120.156426 
L 133.138635 126.978752 
L 133.220418 133.801077 
L 133.176447 140.623403 
L 132.979107 144.319703 
L 131.876567 147.445728 
L 129.709007 154.268054 
L 129.481352 154.92865 
L 127.195629 161.090379 
L 125.983596 164.401204 
L 124.372047 167.912705 
L 122.485841 171.972923 
L 120.838353 174.73503 
L 118.988085 177.786039 
L 116.225502 181.557355 
L 115.49033 182.818554 
L 111.992574 182.952234 
L 111.856167 181.557355 
L 108.494819 174.749098 
L 108.494273 174.73503 
L 108.426407 167.912705 
L 108.454622 161.090379 
L 108.494819 156.264229 
L 108.620573 154.268054 
L 108.497959 149.965835 
" style="fill:none;stroke:#33638d;stroke-width:1.5;"/>
   </g>
   <g id="LineCollection_8">
    <path clip-path="url(#pcbc25cbb8c)" d="M 130.725691 154.80552 
L 129.481352 158.416277 
L 128.489381 161.090379 
L 125.990296 167.912705 
L 125.983596 167.928741 
L 122.736258 174.73503 
L 122.485841 175.222436 
L 118.988085 181.219839 
L 118.740846 181.557355 
L 115.49033 187.133661 
L 114.443183 188.379681 
L 111.992574 192.433946 
L 111.681098 188.379681 
L 110.219171 181.557355 
L 108.494819 178.064759 
L 108.365575 174.73503 
L 108.201672 167.912705 
L 108.024114 161.090379 
L 107.580905 154.268054 
L 106.055564 147.445728 
L 104.997064 144.927428 
L 104.942133 140.623403 
L 104.882947 133.801077 
L 104.862456 126.978752 
L 104.880459 120.156426 
L 104.901865 113.334101 
L 104.960083 106.511775 
L 104.997064 105.583632 
L 108.012658 99.68945 
L 108.494819 98.947227 
L 111.992574 93.796763 
L 112.456936 92.867124 
L 115.49033 90.645898 
L 118.213761 86.044799 
L 118.988085 85.616944 
L 122.485841 84.134033 
L 125.983596 84.328026 
L 127.454654 86.044799 
L 129.481352 89.565007 
L 129.621953 92.867124 
L 130.064063 99.68945 
L 131.805084 106.511775 
L 132.979107 109.644555 
L 133.020543 113.334101 
L 133.093292 120.156426 
L 133.201264 126.978752 
L 133.343295 133.801077 
L 133.379182 137.807872 
" style="fill:none;stroke:#2d718e;stroke-width:1.5;"/>
   </g>
   <g id="LineCollection_9">
    <path clip-path="url(#pcbc25cbb8c)" d="M 104.947473 146.122735 
L 104.869597 140.623403 
L 104.789362 133.801077 
L 104.755155 126.978752 
L 104.774817 120.156426 
L 104.800376 113.334101 
L 104.866596 106.511775 
L 104.997064 103.237316 
L 106.812231 99.68945 
L 108.494819 97.09933 
L 111.043318 92.867124 
L 111.992574 91.946338 
L 115.49033 88.331541 
L 116.843873 86.044799 
L 118.988085 84.860008 
L 122.485841 83.318323 
L 125.983596 83.667561 
L 128.020588 86.044799 
L 129.481352 88.582026 
L 129.663808 92.867124 
L 130.19877 99.68945 
L 132.324924 106.511775 
L 132.979107 108.257407 
L 133.036122 113.334101 
L 133.12478 120.156426 
L 133.263893 126.978752 
L 133.466172 133.801077 
L 133.632352 140.623403 
L 133.463499 147.445728 
L 132.979107 151.79535 
L 132.112819 154.268054 
L 129.722213 161.090379 
L 129.481352 161.71245 
L 127.040259 167.912705 
L 125.983596 170.4418 
L 123.93526 174.73503 
L 122.485841 177.556145 
L 120.193616 181.557355 
L 118.988085 183.556486 
L 116.352115 188.379681 
L 115.49033 190.401819 
L 112.83854 195.202006 
L 111.992574 196.070552 
L 111.893253 195.202006 
L 111.220178 188.379681 
L 108.582176 181.557355 
L 108.494819 181.380419 
L 108.236877 174.73503 
L 107.976937 167.912705 
L 107.727989 163.482055 
" style="fill:none;stroke:#287d8e;stroke-width:1.5;"/>
   </g>
   <g id="LineCollection_10">
    <path clip-path="url(#pcbc25cbb8c)" d="M 104.873855 145.229542 
L 104.797061 140.623403 
L 104.695777 133.801077 
L 104.647853 126.978752 
L 104.669175 120.156426 
L 104.698888 113.334101 
L 104.773109 106.511775 
L 104.997064 100.891001 
L 105.611804 99.68945 
L 108.494819 95.251433 
L 109.930574 92.867124 
L 111.992574 90.866967 
L 115.481013 86.044799 
L 115.49033 86.037571 
L 118.988085 84.103072 
L 122.485841 82.502614 
L 125.983596 83.007097 
L 128.586522 86.044799 
L 129.481352 87.599044 
L 129.705662 92.867124 
L 130.333477 99.68945 
L 132.844763 106.511775 
L 132.979107 106.87026 
L 133.051701 113.334101 
L 133.156268 120.156426 
L 133.326522 126.978752 
L 133.589048 133.801077 
L 133.860305 140.623403 
L 133.845554 147.445728 
L 133.133178 154.268054 
L 132.979107 155.050948 
L 130.7548 161.090379 
L 129.481352 164.379305 
L 128.090222 167.912705 
L 125.983596 172.954859 
L 125.134262 174.73503 
L 122.485841 179.889855 
L 121.530558 181.557355 
L 118.988085 185.773537 
L 117.563776 188.379681 
L 115.49033 193.244926 
L 114.409171 195.202006 
L 111.992574 197.683105 
L 111.708851 195.202006 
L 110.759257 188.379681 
L 108.494819 182.659541 
L 108.420199 181.557355 
L 108.108179 174.73503 
L 107.752202 167.912705 
L 107.318145 162.885943 
" style="fill:none;stroke:#238a8d;stroke-width:1.5;"/>
   </g>
   <g id="LineCollection_11">
    <path clip-path="url(#pcbc25cbb8c)" d="M 104.809168 145.035799 
L 104.724526 140.623403 
L 104.602192 133.801077 
L 104.540551 126.978752 
L 104.563533 120.156426 
L 104.597399 113.334101 
L 104.679623 106.511775 
L 104.96142 99.68945 
L 104.997064 99.249464 
L 108.494819 93.403537 
L 108.817829 92.867124 
L 111.992574 89.787596 
L 114.700178 86.044799 
L 115.49033 85.431821 
L 118.988085 83.346137 
L 122.485841 81.686904 
L 125.983596 82.346633 
L 129.152456 86.044799 
L 129.481352 86.616063 
L 129.747517 92.867124 
L 130.468183 99.68945 
L 132.979107 106.250743 
L 132.984778 106.511775 
L 133.067279 113.334101 
L 133.187756 120.156426 
L 133.389151 126.978752 
L 133.711925 133.801077 
L 134.088258 140.623403 
L 134.227609 147.445728 
L 133.684931 154.268054 
L 132.979107 157.854625 
L 131.787387 161.090379 
L 129.481352 167.046159 
L 129.140185 167.912705 
L 126.231064 174.73503 
L 125.983596 175.25502 
L 122.747225 181.557355 
L 122.485841 182.011444 
L 118.988085 187.990587 
L 118.775438 188.379681 
L 115.70326 195.202006 
L 115.49033 195.809438 
L 111.992574 199.295658 
L 111.52445 195.202006 
L 110.298337 188.379681 
L 108.494819 183.82386 
L 108.341373 181.557355 
L 107.979481 174.73503 
L 107.527467 167.912705 
L 106.940066 162.871104 
" style="fill:none;stroke:#1f968b;stroke-width:1.5;"/>
   </g>
   <g id="LineCollection_12">
    <path clip-path="url(#pcbc25cbb8c)" d="M 104.78211 146.621441 
L 104.65199 140.623403 
L 104.508607 133.801077 
L 104.433249 126.978752 
L 104.457891 120.156426 
L 104.49591 113.334101 
L 104.586136 106.511775 
L 104.888366 99.68945 
L 104.997064 98.347665 
L 108.129062 92.867124 
L 108.494819 92.374771 
L 111.992574 88.708225 
L 113.919342 86.044799 
L 115.49033 84.826071 
L 118.988085 82.589201 
L 122.485841 80.871195 
L 125.983596 81.686168 
L 129.481352 85.929269 
L 129.487376 86.044799 
L 129.789371 92.867124 
L 130.60289 99.68945 
L 132.979107 105.898741 
L 132.992424 106.511775 
L 133.082858 113.334101 
L 133.219245 120.156426 
L 133.451779 126.978752 
L 133.834802 133.801077 
L 134.31621 140.623403 
L 134.609664 147.445728 
L 134.236684 154.268054 
L 132.979107 160.658301 
L 132.819974 161.090379 
L 130.05878 167.912705 
L 129.481352 169.226538 
L 127.079626 174.73503 
L 125.983596 177.038054 
L 123.662848 181.557355 
L 122.485841 183.602102 
L 119.74145 188.379681 
L 118.988085 189.594033 
L 116.386516 195.202006 
L 115.49033 197.758583 
L 111.992574 200.908211 
L 111.340048 195.202006 
L 109.837417 188.379681 
L 108.494819 184.988178 
L 108.262546 181.557355 
L 107.850783 174.73503 
L 107.302732 167.912705 
L 106.822924 164.641418 
" style="fill:none;stroke:#20a386;stroke-width:1.5;"/>
   </g>
   <g id="LineCollection_13">
    <path clip-path="url(#pcbc25cbb8c)" d="M 106.650607 165.495805 
L 105.871577 161.090379 
L 104.997064 157.877409 
L 104.900655 154.268054 
L 104.744587 147.445728 
L 104.579454 140.623403 
L 104.415022 133.801077 
L 104.325947 126.978752 
L 104.35225 120.156426 
L 104.394422 113.334101 
L 104.492649 106.511775 
L 104.815311 99.68945 
L 104.997064 97.445866 
L 107.613705 92.867124 
L 108.494819 91.681041 
L 111.992574 87.628853 
L 113.138507 86.044799 
L 115.49033 84.220321 
L 118.988085 81.832265 
L 122.485841 80.055485 
L 125.983596 81.025704 
L 129.481352 85.653439 
L 129.50176 86.044799 
L 129.831226 92.867124 
L 130.737596 99.68945 
L 132.979107 105.54674 
L 133.000071 106.511775 
L 133.098437 113.334101 
L 133.250733 120.156426 
L 133.514408 126.978752 
L 133.957679 133.801077 
L 134.544163 140.623403 
L 134.991719 147.445728 
L 134.788437 154.268054 
L 133.507892 161.090379 
L 132.979107 162.860589 
L 130.914143 167.912705 
L 129.481352 171.172761 
L 127.928187 174.73503 
L 125.983596 178.821088 
L 124.57847 181.557355 
L 122.485841 185.192761 
L 120.655174 188.379681 
L 118.988085 191.066869 
L 117.069773 195.202006 
L 115.49033 199.707729 
L 112.71218 202.024332 
L 111.992574 202.212283 
L 111.964519 202.024332 
L 111.155647 195.202006 
L 109.376497 188.379681 
L 108.494819 186.152497 
L 108.367863 184.277273 
" style="fill:none;stroke:#29af7f;stroke-width:1.5;"/>
   </g>
   <g id="LineCollection_14">
    <path clip-path="url(#pcbc25cbb8c)" d="M 106.380295 165.627794 
L 105.441069 161.090379 
L 104.997064 159.459098 
L 104.858407 154.268054 
L 104.689182 147.445728 
L 104.506919 140.623403 
L 104.321437 133.801077 
L 104.218646 126.978752 
L 104.246608 120.156426 
L 104.292933 113.334101 
L 104.399163 106.511775 
L 104.742257 99.68945 
L 104.997064 96.544068 
L 107.098349 92.867124 
L 108.494819 90.98731 
L 111.992574 86.549482 
L 112.357671 86.044799 
L 115.49033 83.614571 
L 118.988085 81.07533 
L 122.485841 79.239776 
L 125.983596 80.36524 
L 129.481352 85.377609 
L 129.516144 86.044799 
L 129.87308 92.867124 
L 130.872303 99.68945 
L 132.979107 105.194738 
L 133.007718 106.511775 
L 133.114015 113.334101 
L 133.282221 120.156426 
L 133.577037 126.978752 
L 134.080555 133.801077 
L 134.772116 140.623403 
L 135.373775 147.445728 
L 135.34019 154.268054 
L 134.133015 161.090379 
L 132.979107 164.95331 
L 131.769506 167.912705 
L 129.481352 173.118985 
L 128.776749 174.73503 
L 125.983596 180.604121 
L 125.494092 181.557355 
L 122.485841 186.78342 
L 121.568898 188.379681 
L 118.988085 192.539704 
L 117.753029 195.202006 
L 115.49033 201.656874 
L 115.049661 202.024332 
L 111.992574 202.822803 
L 111.873387 202.024332 
L 110.971245 195.202006 
L 108.915577 188.379681 
L 108.494819 187.316815 
L 108.28744 184.253685 
" style="fill:none;stroke:#3dbc74;stroke-width:1.5;"/>
   </g>
   <g id="LineCollection_15">
    <path clip-path="url(#pcbc25cbb8c)" d="M 133.867054 129.73045 
L 134.203432 133.801077 
L 135.000069 140.623403 
L 135.75583 147.445728 
L 135.891943 154.268054 
L 134.758138 161.090379 
L 132.979107 167.046031 
L 132.624869 167.912705 
L 129.593112 174.73503 
L 129.481352 174.961518 
L 126.284708 181.557355 
L 125.983596 182.122968 
L 122.485841 188.374078 
L 122.482622 188.379681 
L 118.988085 194.01254 
L 118.436286 195.202006 
L 115.820878 202.024332 
L 115.49033 203.098826 
L 111.992574 203.433323 
L 111.782256 202.024332 
L 110.786844 195.202006 
L 108.494819 188.427175 
L 108.490442 188.379681 
L 108.026067 181.557355 
L 107.46469 174.73503 
L 106.628528 167.912705 
L 105.010561 161.090379 
L 104.997064 161.040788 
L 104.816159 154.268054 
L 104.633776 147.445728 
L 104.434383 140.623403 
L 104.227852 133.801077 
L 104.111344 126.978752 
L 104.140966 120.156426 
L 104.191445 113.334101 
L 104.305676 106.511775 
L 104.669203 99.68945 
L 104.997064 95.642269 
L 106.582992 92.867124 
L 108.494819 90.293579 
L 111.712822 86.044799 
L 111.992574 85.793347 
L 115.49033 83.008821 
L 118.988085 80.318394 
L 121.075009 79.222473 
L 122.485841 78.953533 
L 124.489054 79.222473 
L 125.983596 79.704776 
L 129.481352 85.101779 
L 129.530528 86.044799 
L 129.914935 92.867124 
L 131.007009 99.68945 
L 132.979107 104.842737 
L 133.015364 106.511775 
L 133.081896 110.485358 
" style="fill:none;stroke:#56c667;stroke-width:1.5;"/>
   </g>
   <g id="LineCollection_16">
    <path clip-path="url(#pcbc25cbb8c)" d="M 104.080076 130.962099 
L 104.004042 126.978752 
L 104.035324 120.156426 
L 104.089956 113.334101 
L 104.212189 106.511775 
L 104.596148 99.68945 
L 104.997064 94.74047 
L 106.067636 92.867124 
L 108.494819 89.599848 
L 111.187394 86.044799 
L 111.992574 85.321074 
L 115.49033 82.403071 
L 118.988085 79.561459 
L 119.633603 79.222473 
L 122.485841 78.678764 
L 125.983596 79.1548 
L 126.029433 79.222473 
L 129.481352 84.82595 
L 129.544912 86.044799 
L 129.95679 92.867124 
L 131.141716 99.68945 
L 132.979107 104.490735 
L 133.023011 106.511775 
L 133.145173 113.334101 
L 133.345197 120.156426 
L 133.702295 126.978752 
L 134.326309 133.801077 
L 135.228021 140.623403 
L 136.137885 147.445728 
L 136.443696 154.268054 
L 135.383261 161.090379 
L 133.306086 167.912705 
L 132.979107 168.758485 
L 130.251881 174.73503 
L 129.481352 176.296544 
L 126.931723 181.557355 
L 125.983596 183.33833 
L 123.163347 188.379681 
L 122.485841 189.436302 
L 119.107618 195.202006 
L 118.988085 195.390389 
L 116.228219 202.024332 
L 115.49033 204.422946 
L 111.992574 204.043843 
L 111.691124 202.024332 
L 110.602442 195.202006 
L 108.494819 188.972234 
L 108.440203 188.379681 
L 107.947241 181.557355 
L 107.335992 174.73503 
L 106.403793 167.912705 
L 104.997064 162.004641 
L 104.965132 161.090379 
L 104.773911 154.268054 
L 104.659685 150.282732 
" style="fill:none;stroke:#75d054;stroke-width:1.5;"/>
   </g>
   <g id="LineCollection_17">
    <path clip-path="url(#pcbc25cbb8c)" d="M 108.320456 187.470451 
L 107.868414 181.557355 
L 107.207294 174.73503 
L 106.179058 167.912705 
L 104.997064 162.948496 
L 104.932167 161.090379 
L 104.731663 154.268054 
L 104.522966 147.445728 
L 104.289312 140.623403 
L 104.040682 133.801077 
L 103.89674 126.978752 
L 103.929682 120.156426 
L 103.988468 113.334101 
L 104.118703 106.511775 
L 104.523094 99.68945 
L 104.997064 93.838672 
L 105.55228 92.867124 
L 108.494819 88.906117 
L 110.661966 86.044799 
L 111.992574 84.848801 
L 115.49033 81.797321 
L 118.585964 79.222473 
L 118.988085 79.068535 
L 122.485841 78.403996 
L 125.983596 78.903929 
L 126.199352 79.222473 
L 129.481352 84.55012 
L 129.559296 86.044799 
L 129.998644 92.867124 
L 131.276422 99.68945 
L 132.979107 104.138734 
L 133.030658 106.511775 
L 133.160751 113.334101 
L 133.376686 120.156426 
L 133.764924 126.978752 
L 134.449186 133.801077 
L 135.455974 140.623403 
L 136.476863 147.278187 
L 136.47896 147.445728 
L 136.502871 154.268054 
L 136.476863 158.063828 
L 136.008384 161.090379 
L 133.8642 167.912705 
L 132.979107 170.202135 
L 130.910649 174.73503 
L 129.481352 177.631571 
L 127.578737 181.557355 
L 125.983596 184.553691 
L 123.843249 188.379681 
L 122.485841 190.496658 
L 119.728898 195.202006 
L 118.988085 196.369522 
L 116.63556 202.024332 
L 115.49033 205.747067 
L 111.992574 204.654362 
L 111.905832 204.07325 
" style="fill:none;stroke:#95d840;stroke-width:1.5;"/>
   </g>
   <g id="LineCollection_18">
    <path clip-path="url(#pcbc25cbb8c)" d="M 103.88177 130.974188 
L 103.789438 126.978752 
L 103.82404 120.156426 
L 103.886979 113.334101 
L 104.025216 106.511775 
L 104.450039 99.68945 
L 104.997064 92.936873 
L 105.036923 92.867124 
L 108.494819 88.212386 
L 110.136538 86.044799 
L 111.992574 84.376528 
L 115.49033 81.191571 
L 117.857695 79.222473 
L 118.988085 78.789742 
L 122.485841 78.129227 
L 125.983596 78.653058 
L 126.369272 79.222473 
L 129.481352 84.27429 
L 129.57368 86.044799 
L 130.040499 92.867124 
L 131.411129 99.68945 
L 132.979107 103.786732 
L 133.038304 106.511775 
L 133.17633 113.334101 
L 133.408174 120.156426 
L 133.827553 126.978752 
L 134.572062 133.801077 
L 135.683927 140.623403 
L 136.476863 145.792249 
L 136.497567 147.445728 
L 136.530542 154.268054 
L 136.486267 161.090379 
L 136.476863 161.52518 
L 134.422314 167.912705 
L 132.979107 171.645784 
L 131.569418 174.73503 
L 129.481352 178.966597 
L 128.225752 181.557355 
L 125.983596 185.769052 
L 124.52315 188.379681 
L 122.485841 191.557014 
L 120.350178 195.202006 
L 118.988085 197.348655 
L 117.0429 202.024332 
L 115.49033 207.071188 
L 111.992574 205.264882 
L 111.508861 202.024332 
L 110.233639 195.202006 
L 108.494819 190.062352 
L 108.339726 188.379681 
L 107.789588 181.557355 
L 107.078596 174.73503 
L 105.954323 167.912705 
L 104.997064 163.892351 
L 104.899202 161.090379 
L 104.689415 154.268054 
L 104.559483 150.272476 
" style="fill:none;stroke:#bade28;stroke-width:1.5;"/>
   </g>
   <g id="LineCollection_19">
    <path clip-path="url(#pcbc25cbb8c)" d="M 103.782672 130.981 
L 103.682137 126.978752 
L 103.718398 120.156426 
L 103.785491 113.334101 
L 103.931729 106.511775 
L 104.376985 99.68945 
L 104.967537 92.867124 
L 104.997064 92.661187 
L 108.494819 87.518656 
L 109.61111 86.044799 
L 111.992574 83.904255 
L 115.49033 80.585821 
L 117.129427 79.222473 
L 118.988085 78.510948 
L 122.485841 77.854458 
L 125.983596 78.402187 
L 126.539192 79.222473 
L 129.481352 83.99846 
L 129.588063 86.044799 
L 130.082353 92.867124 
L 131.545835 99.68945 
L 132.979107 103.434731 
L 133.045951 106.511775 
L 133.191909 113.334101 
L 133.439662 120.156426 
L 133.890182 126.978752 
L 134.694939 133.801077 
L 135.91188 140.623403 
L 136.476863 144.306311 
L 136.516173 147.445728 
L 136.558214 154.268054 
L 136.523799 161.090379 
L 136.476863 163.26034 
L 134.980429 167.912705 
L 132.979107 173.089434 
L 132.228186 174.73503 
L 129.481352 180.301623 
L 128.872767 181.557355 
L 125.983596 186.984414 
L 125.203051 188.379681 
L 122.485841 192.617369 
L 120.971459 195.202006 
L 118.988085 198.327788 
L 117.450241 202.024332 
L 115.49033 208.395308 
L 111.992574 205.875402 
L 111.417729 202.024332 
L 110.049238 195.202006 
L 108.494819 190.607412 
L 108.289488 188.379681 
L 107.710761 181.557355 
L 106.949898 174.73503 
L 105.729588 167.912705 
L 104.997064 164.836206 
L 104.866237 161.090379 
L 104.647167 154.268054 
L 104.509334 150.266813 
" style="fill:none;stroke:#dde318;stroke-width:1.5;"/>
   </g>
   <g id="LineCollection_20">
    <path clip-path="url(#pcbc25cbb8c)" d="M 111.983877 206.427656 
L 111.326598 202.024332 
L 109.864836 195.202006 
L 108.494819 191.152471 
L 108.239249 188.379681 
L 107.631935 181.557355 
L 106.8212 174.73503 
L 105.504853 167.912705 
L 104.997064 165.780061 
L 104.833272 161.090379 
L 104.604919 154.268054 
L 104.35675 147.445728 
L 104.071705 140.623403 
L 103.759927 133.801077 
L 103.574835 126.978752 
L 103.612756 120.156426 
L 103.684002 113.334101 
L 103.838243 106.511775 
L 104.30393 99.68945 
L 104.935535 92.867124 
L 104.997064 92.437987 
L 108.494819 86.824925 
L 109.085682 86.044799 
L 111.992574 83.431982 
L 115.49033 79.980071 
L 116.401158 79.222473 
L 118.988085 78.232155 
L 122.485841 77.579689 
L 125.983596 78.151315 
L 126.709112 79.222473 
L 129.481352 83.722631 
L 129.602447 86.044799 
L 130.124208 92.867124 
L 131.680542 99.68945 
L 132.979107 103.082729 
L 133.053597 106.511775 
L 133.207487 113.334101 
L 133.47115 120.156426 
L 133.952811 126.978752 
L 134.817816 133.801077 
L 136.139832 140.623403 
L 136.476863 142.820374 
L 136.534779 147.445728 
L 136.585886 154.268054 
L 136.561332 161.090379 
L 136.476863 164.9955 
L 135.538543 167.912705 
L 132.979107 174.533084 
L 132.886955 174.73503 
L 129.509422 181.557355 
L 129.481352 181.609653 
L 125.983596 188.199775 
L 125.882953 188.379681 
L 122.485841 193.677725 
L 121.592739 195.202006 
L 118.988085 199.30692 
L 117.865711 202.004792 
" style="fill:none;stroke:#fde725;stroke-width:1.5;"/>
   </g>
   <g id="LineCollection_21">
    <path clip-path="url(#pcbc25cbb8c)" d="M 104.61236 155.694585 
L 104.562671 154.268054 
L 104.301344 147.445728 
L 103.999169 140.623403 
L 103.666342 133.801077 
L 103.467533 126.978752 
L 103.507114 120.156426 
L 103.582514 113.334101 
L 103.744756 106.511775 
L 104.230876 99.68945 
L 104.903534 92.867124 
L 104.997064 92.214787 
L 108.494819 86.131194 
L 108.560254 86.044799 
L 111.992574 82.959709 
L 115.49033 79.374321 
L 115.67289 79.222473 
L 118.988085 77.953362 
L 122.485841 77.304921 
L 125.983596 77.900444 
L 126.879032 79.222473 
L 129.481352 83.446801 
L 129.616831 86.044799 
L 130.166062 92.867124 
L 131.815248 99.68945 
L 132.979107 102.730728 
L 133.061244 106.511775 
L 133.223066 113.334101 
L 133.502639 120.156426 
L 134.01544 126.978752 
L 134.940692 133.801077 
L 136.367785 140.623403 
L 136.476863 141.334436 
L 136.553386 147.445728 
L 136.613558 154.268054 
L 136.598864 161.090379 
L 136.476863 166.73066 
L 136.096658 167.912705 
L 133.345493 174.73503 
L 132.979107 175.549829 
L 129.982026 181.557355 
L 129.481352 182.490145 
L 126.378774 188.379681 
L 125.983596 189.064101 
L 122.485841 194.738081 
L 122.214019 195.202006 
L 118.988085 200.286053 
L 118.264923 202.024332 
L 115.905679 208.846657 
L 115.49033 210.329091 
L 114.2081 208.846657 
L 111.992574 207.096441 
L 111.235466 202.024332 
L 109.680435 195.202006 
L 108.494819 191.69753 
L 108.189011 188.379681 
L 107.553109 181.557355 
L 106.921867 176.553288 
" style="fill:none;stroke:#440154;stroke-width:1.5;"/>
   </g>
   <g id="LineCollection_22">
    <path clip-path="url(#pcbc25cbb8c)" d="M 108.257214 215.668983 
L 107.133539 208.846657 
L 105.427572 202.024332 
L 104.997064 200.361406 
L 104.568289 195.202006 
L 103.833849 188.379681 
L 102.881975 181.557355 
L 101.710006 174.73503 
L 101.499308 173.399101 
L 101.310507 167.912705 
L 101.048726 161.090379 
L 100.74155 154.268054 
L 100.414192 147.445728 
L 100.056835 140.623403 
L 99.763499 133.801077 
L 99.859817 126.978752 
L 99.920471 125.707665 
" style="fill:none;stroke:#440154;stroke-width:1.5;"/>
    <path clip-path="url(#pcbc25cbb8c)" d="M 100.931136 100.931048 
L 100.976225 99.68945 
L 101.313012 92.867124 
L 101.499308 90.93287 
L 103.422332 86.044799 
L 104.997064 80.164168 
L 105.484691 79.222473 
L 108.494819 72.916111 
L 108.819193 72.400148 
L 111.992574 69.599396 
L 114.806073 65.577822 
L 115.49033 65.19523 
L 118.988085 64.833571 
L 122.485841 65.191202 
L 123.944108 65.577822 
L 125.983596 67.702972 
L 128.706663 72.400148 
L 129.481352 73.86353 
L 130.210766 79.222473 
L 132.205928 86.044799 
L 132.979107 88.24676 
L 133.184712 92.867124 
L 133.621606 99.68945 
L 134.437642 106.511775 
L 136.027225 113.334101 
L 136.476863 115.055221 
L 136.653731 120.156426 
L 137.025762 126.978752 
L 137.637521 133.801077 
L 138.567043 140.623403 
L 139.902528 147.445728 
L 139.974618 147.869251 
L 140.118879 154.268054 
L 140.297679 161.090379 
L 140.470462 167.912705 
L 140.585076 174.73503 
L 140.602897 181.557355 
L 140.480479 188.379681 
L 140.186554 195.202006 
L 139.974618 198.005824 
L 138.401633 202.024332 
L 136.476863 206.983599 
L 135.498307 208.846657 
L 132.979107 213.547992 
L 131.843578 215.668983 
" style="fill:none;stroke:#440154;stroke-width:1.5;"/>
   </g>
   <g id="LineCollection_23">
    <path clip-path="url(#pcbc25cbb8c)" d="M 103.055201 215.668983 
L 101.499308 209.959765 
L 101.421163 208.846657 
L 100.92579 202.024332 
L 100.153081 195.202006 
L 99.021951 188.379681 
L 98.001553 183.126498 
L 97.945391 181.557355 
L 97.715946 174.73503 
L 97.413389 167.912705 
L 97.017292 161.090379 
L 96.566683 154.268054 
L 96.078208 147.445728 
L 95.549748 140.623403 
L 95.451099 133.801077 
L 95.874406 126.978752 
L 96.416875 120.156426 
L 96.908846 113.334101 
L 97.311482 106.511775 
L 97.626432 99.68945 
L 97.877424 92.867124 
L 98.001553 89.90617 
L 98.995549 86.044799 
L 100.795997 79.222473 
L 101.499308 76.077486 
L 103.11524 72.400148 
L 104.997064 67.344229 
L 105.935454 65.577822 
L 108.494819 61.822052 
L 110.79962 58.755497 
L 111.992574 57.862891 
L 115.49033 56.186876 
L 118.988085 56.196137 
L 122.485841 56.971575 
L 125.983596 58.152461 
L 126.371281 58.755497 
L 129.481352 64.418265 
L 129.728116 65.577822 
L 131.627746 72.400148 
L 132.979107 75.706559 
L 133.430063 79.222473 
L 134.49698 86.044799 
L 136.465939 92.867124 
L 136.476863 92.906265 
L 136.69024 99.68945 
L 137.203498 106.511775 
L 138.290309 113.334101 
L 139.974618 119.437361 
L 139.995898 120.156426 
L 140.22513 126.978752 
L 140.683371 133.801077 
L 141.494617 140.623403 
L 142.773731 147.445728 
L 143.472373 150.891764 
L 143.542191 154.268054 
L 143.698199 161.090379 
L 143.871613 167.731639 
" style="fill:none;stroke:#440154;stroke-width:1.5;"/>
    <path clip-path="url(#pcbc25cbb8c)" d="M 144.074163 195.398486 
L 143.933714 202.024332 
L 143.729721 208.846657 
L 143.472373 215.543099 
L 143.435407 215.668983 
" style="fill:none;stroke:#440154;stroke-width:1.5;"/>
   </g>
   <g id="LineCollection_24">
    <path clip-path="url(#pcbc25cbb8c)" d="M 97.990603 215.668983 
L 97.55312 208.846657 
L 96.861004 202.024332 
L 95.799495 195.202006 
L 94.503797 188.861233 
L 94.48505 188.379681 
L 94.279433 181.557355 
L 94.009893 174.73503 
L 93.66035 167.912705 
L 93.203318 161.090379 
L 92.683225 154.268054 
L 92.012172 147.445728 
L 91.526644 140.623403 
L 91.613097 133.801077 
L 91.958547 126.978752 
L 92.456855 120.156426 
L 93.004611 113.334101 
L 93.541591 106.511775 
L 94.000204 99.68945 
L 94.332505 93.062406 
" style="fill:none;stroke:#440154;stroke-width:1.5;"/>
    <path clip-path="url(#pcbc25cbb8c)" d="M 99.306497 66.141009 
L 99.528833 65.577822 
L 101.417518 58.755497 
L 101.499308 58.477609 
L 104.756735 51.933172 
L 104.997064 51.496738 
L 108.494819 47.348995 
L 110.538594 45.110846 
L 111.992574 44.266845 
L 115.49033 43.657082 
L 118.988085 43.994161 
L 122.485841 44.673488 
L 123.876688 45.110846 
L 125.983596 46.683469 
L 129.121692 51.933172 
L 129.481352 52.590764 
L 130.859426 58.755497 
L 132.979107 63.690702 
L 133.283238 65.577822 
L 135.206561 72.400148 
L 136.476863 75.737465 
L 136.616391 79.222473 
L 137.026526 86.044799 
L 138.010335 92.867124 
L 139.974618 99.14089 
L 139.989337 99.68945 
L 140.206744 106.511775 
L 140.742539 113.334101 
L 141.972247 120.156426 
L 143.472373 125.298196 
L 143.516611 126.978752 
L 143.742603 133.801077 
L 144.210845 140.623403 
L 145.070108 147.445728 
L 146.403373 154.268054 
L 146.970129 157.195968 
L 147.020198 161.090379 
L 147.126813 167.912705 
L 147.259259 174.73503 
L 147.370754 181.557355 
L 147.418226 188.379681 
L 147.394714 195.202006 
L 147.314506 202.024332 
L 147.201339 208.846657 
L 147.078498 215.668983 
" style="fill:none;stroke:#440154;stroke-width:1.5;"/>
   </g>
   <g id="LineCollection_25">
    <path clip-path="url(#pcbc25cbb8c)" d="M 92.266876 199.931309 
L 91.385264 195.202006 
L 91.006042 193.154369 
L 90.830985 188.379681 
L 90.565993 181.557355 
L 90.238336 174.73503 
L 89.83643 167.912705 
L 89.404773 161.090379 
L 88.910927 154.268054 
L 88.579522 147.445728 
L 88.604311 140.623403 
L 88.721643 133.801077 
L 88.857773 126.978752 
L 89.062552 120.156426 
L 89.372067 113.334101 
L 89.795142 106.511775 
L 90.242803 99.68945 
L 90.634426 92.867124 
L 90.940071 86.044799 
L 91.006042 84.612609 
L 92.233056 79.222473 
L 93.461719 72.400148 
L 94.299461 65.577822 
L 94.503797 63.908652 
L 96.305557 58.755497 
L 97.80474 51.933172 
L 98.001553 50.917789 
L 100.554353 45.110846 
L 101.499308 42.720612 
L 103.983222 38.288521 
L 104.997064 36.827367 
L 108.494819 32.658273 
L 109.689672 31.466195 
L 111.992574 30.429071 
L 115.49033 29.99294 
L 118.988085 30.478304 
L 122.485841 31.305522 
L 122.819799 31.466195 
L 125.983596 34.471105 
L 127.799015 38.288521 
L 129.481352 41.519452 
L 130.307149 45.110846 
L 132.979107 51.229839 
L 133.094746 51.933172 
L 134.516867 58.755497 
L 136.476863 63.459385 
L 136.629645 65.577822 
L 137.366057 72.400148 
L 139.112546 79.222473 
L 139.974618 81.909434 
L 140.065803 86.044799 
L 140.384408 92.867124 
L 141.303918 99.68945 
L 143.472373 106.310314 
L 143.478718 106.511775 
L 143.685821 113.334101 
L 144.180036 120.156426 
L 145.299772 126.978752 
L 146.970129 132.662928 
L 146.99543 133.801077 
L 147.162639 140.623403 
L 147.478942 147.445728 
L 148.033696 154.268054 
L 148.920544 161.090379 
L 150.219366 167.912705 
L 150.467884 169.35984 
L 150.507593 174.73503 
L 150.558632 181.557355 
L 150.599859 188.379681 
L 150.619138 195.202006 
L 150.60201 202.024332 
L 150.545781 208.846657 
L 150.469029 215.668983 
" style="fill:none;stroke:#440154;stroke-width:1.5;"/>
   </g>
   <g id="LineCollection_26">
    <path clip-path="url(#pcbc25cbb8c)" d="M 90.371757 215.668983 
L 89.159062 208.846657 
L 87.834141 202.024332 
L 87.508286 200.12455 
L 87.323597 195.202006 
L 87.021029 188.379681 
L 86.632811 181.557355 
L 86.178929 174.73503 
L 85.681508 167.912705 
L 85.324419 161.090379 
L 85.259973 154.268054 
L 85.384082 147.445728 
L 85.511262 140.623403 
L 85.69747 133.801077 
L 85.917485 126.978752 
L 86.12243 120.156426 
L 86.299692 113.334101 
L 86.5174 106.511775 
L 86.776016 99.68945 
L 87.054624 92.867124 
L 87.326027 86.044799 
L 87.508286 81.185771 
L 87.948736 79.222473 
L 89.409453 72.400148 
L 90.119483 67.280802 
" style="fill:none;stroke:#450457;stroke-width:1.5;"/>
    <path clip-path="url(#pcbc25cbb8c)" d="M 97.219932 37.467707 
L 98.001553 33.697318 
L 99.097385 31.466195 
L 101.499308 27.152976 
L 103.012369 24.64387 
L 104.997064 22.230472 
L 108.494819 18.249457 
L 109.092898 17.821544 
L 111.992574 17.002121 
L 115.49033 16.804868 
L 118.988085 17.028827 
L 122.485841 17.562014 
L 122.827438 17.821544 
L 125.983596 21.936534 
L 126.979815 24.64387 
L 129.481352 29.767761 
L 129.870615 31.466195 
L 132.558735 38.288521 
L 132.979107 39.246712 
L 133.946078 45.110846 
L 136.476863 51.111773 
L 136.543981 51.933172 
L 137.240692 58.755497 
L 139.667293 65.577822 
L 139.974618 66.415974 
L 140.162545 72.400148 
L 140.622724 79.222473 
L 141.781335 86.044799 
L 143.472373 91.1062 
L 143.536273 92.867124 
L 143.881536 99.68945 
L 144.742713 106.511775 
L 146.838645 113.334101 
L 146.970129 113.754136 
L 147.133297 120.156426 
L 147.516826 126.978752 
L 148.344356 133.801077 
L 150.028636 140.623403 
L 150.467884 142.272761 
L 150.546556 147.445728 
L 150.698022 154.268054 
L 150.936776 161.090379 
L 151.30289 167.912705 
L 151.837916 174.73503 
L 152.490759 181.557355 
L 153.108376 188.379681 
L 153.569432 195.202006 
L 153.664072 202.024332 
L 153.298762 208.846657 
L 152.637786 215.668983 
" style="fill:none;stroke:#450457;stroke-width:1.5;"/>
   </g>
   <g id="LineCollection_27">
    <path clip-path="url(#pcbc25cbb8c)" d="M 86.247182 215.668983 
L 84.010531 208.914112 
L 84.003775 208.846657 
L 83.659007 202.024332 
L 83.262422 195.202006 
L 82.77063 188.379681 
L 82.173701 181.557355 
L 81.501432 174.73503 
L 81.311024 167.912705 
L 81.373497 161.090379 
L 81.522779 154.268054 
L 81.738076 147.445728 
L 82.033993 140.623403 
L 82.351837 133.801077 
L 82.614221 126.978752 
L 82.884328 120.156426 
L 83.126251 113.334101 
L 83.159061 112.205813 
" style="fill:none;stroke:#482475;stroke-width:1.5;"/>
    <path clip-path="url(#pcbc25cbb8c)" d="M 84.943513 74.122483 
L 85.291047 72.400148 
L 86.346586 65.577822 
L 87.104751 58.755497 
L 87.508286 54.283577 
L 88.225003 51.933172 
L 90.148821 45.110846 
L 91.006042 40.404894 
L 91.789055 38.288521 
L 93.880223 31.466195 
L 94.503797 28.047809 
L 95.866362 24.64387 
L 97.905181 17.821544 
L 98.001553 17.532781 
L 101.499308 11.954918 
L 102.107479 10.999219 
" style="fill:none;stroke:#482475;stroke-width:1.5;"/>
    <path clip-path="url(#pcbc25cbb8c)" d="M 126.470029 10.999219 
L 129.481352 17.425179 
L 129.568939 17.821544 
L 131.350557 24.64387 
L 132.979107 28.346043 
L 133.469747 31.466195 
L 136.073685 38.288521 
L 136.476863 39.239342 
L 136.995837 45.110846 
L 138.926635 51.933172 
L 139.974618 54.607879 
L 140.196627 58.755497 
L 140.930821 65.577822 
L 142.764179 72.400148 
L 143.472373 74.590896 
L 143.623213 79.222473 
L 143.868145 82.700217 
" style="fill:none;stroke:#482475;stroke-width:1.5;"/>
    <path clip-path="url(#pcbc25cbb8c)" d="M 149.145708 117.912458 
L 149.700221 120.156426 
L 150.467884 122.675829 
L 150.561741 126.978752 
L 150.809025 133.801077 
L 151.299965 140.623403 
L 152.183223 147.445728 
L 153.665008 154.268054 
L 153.96564 155.62894 
L 154.021138 161.090379 
L 154.115177 167.912705 
L 154.251131 174.73503 
L 154.42715 181.557355 
L 154.618332 188.379681 
L 154.814654 195.202006 
L 154.982218 202.024332 
L 155.076999 208.846657 
L 155.006898 215.668983 
" style="fill:none;stroke:#482475;stroke-width:1.5;"/>
   </g>
   <g id="LineCollection_28">
    <path clip-path="url(#pcbc25cbb8c)" d="M 82.377828 215.668983 
L 80.512776 210.491475 
L 80.360952 208.846657 
L 79.91621 202.024332 
L 78.918711 195.202006 
L 78.108113 188.379681 
L 77.701786 181.557355 
L 77.425429 174.73503 
L 77.361952 167.912705 
L 77.496001 161.090379 
L 77.722333 154.268054 
L 77.986172 147.445728 
L 78.284657 140.623403 
L 78.667414 133.801077 
L 79.077218 126.978752 
L 79.414368 120.365697 
" style="fill:none;stroke:#fde725;stroke-width:1.5;"/>
    <path clip-path="url(#pcbc25cbb8c)" d="M 80.503103 78.945508 
L 80.512776 78.476992 
L 81.558504 72.400148 
L 82.500886 65.577822 
L 83.21234 58.755497 
L 83.756195 51.933172 
L 84.010531 48.552243 
L 85.024278 45.110846 
L 86.775009 38.288521 
L 87.508286 34.602862 
L 88.700448 31.466195 
L 90.630529 24.64387 
L 91.006042 22.86542 
L 92.927185 17.821544 
L 94.410368 10.999219 
" style="fill:none;stroke:#fde725;stroke-width:1.5;"/>
    <path clip-path="url(#pcbc25cbb8c)" d="M 130.554634 10.999219 
L 132.979107 16.541529 
L 133.18073 17.821544 
L 134.795474 24.64387 
L 136.476863 28.621177 
L 136.759634 31.466195 
L 138.177031 38.288521 
L 139.974618 42.772863 
L 140.131536 45.110846 
L 140.939507 51.933172 
L 143.451658 58.755497 
L 143.472373 58.813912 
L 143.723511 65.577822 
L 144.408299 72.400148 
L 146.244247 79.222473 
L 146.970129 81.400046 
L 147.097361 86.044799 
L 147.159224 87.083543 
" style="fill:none;stroke:#fde725;stroke-width:1.5;"/>
    <path clip-path="url(#pcbc25cbb8c)" d="M 152.146609 125.489138 
L 152.399307 126.978752 
L 153.96564 132.399698 
L 153.99407 133.801077 
L 154.139623 140.623403 
L 154.385194 147.445728 
L 154.7797 154.268054 
L 155.385964 161.090379 
L 156.302435 167.912705 
L 157.463395 174.096683 
L 157.468976 174.73503 
L 157.519715 181.557355 
L 157.57232 188.379681 
L 157.628788 195.202006 
L 157.68676 202.024332 
L 157.738593 208.846657 
L 157.766132 215.668983 
" style="fill:none;stroke:#fde725;stroke-width:1.5;"/>
   </g>
   <g id="line2d_13">
    <path clip-path="url(#pcbc25cbb8c)" d="M 396.142773 57.10571 
L 354.538105 86.083792 
L 319.527407 112.702185 
L 290.043582 136.76182 
L 265.319336 159.121093 
L 244.476213 178.770997 
L 226.983419 196.200492 
L 212.316687 211.421783 
L 200.026896 223.993754 
L 189.715573 234.124963 
L 181.055011 242.77118 
L 173.812914 249.622456 
L 167.668856 254.85278 
L 162.4791 258.863431 
L 158.134699 261.350676 
L 154.42706 263.206976 
L 151.285099 264.193535 
L 148.646633 264.439219 
L 146.289704 263.7889 
L 144.285704 262.648464 
L 142.499167 260.713552 
L 140.892455 258.727248 
L 139.528033 255.919279 
L 138.28084 252.946854 
L 137.118126 249.861259 
L 136.122139 246.328741 
L 135.199681 242.44829 
L 134.333178 238.79903 
L 133.577875 234.776336 
L 132.797621 230.487034 
L 132.125363 226.297474 
L 131.457967 222.0273 
L 130.88421 217.557147 
L 130.345085 213.040636 
L 129.835632 208.730322 
L 129.329878 204.39439 
L 128.938884 199.744575 
L 128.511611 195.300069 
L 128.132096 190.735093 
L 127.7719 186.338189 
L 127.403665 181.768435 
L 127.080933 177.371702 
L 126.748708 173.249764 
L 126.466796 169.0356 
L 126.106022 164.64522 
L 125.818947 160.177218 
L 125.535106 155.446 
L 125.180588 150.587478 
L 124.827898 144.945468 
L 124.495888 138.838894 
L 124.56312 137.362512 
L 124.632164 135.970241 
L 124.694846 134.720224 
L 124.759113 133.509855 
L 124.818958 132.387619 
L 124.876162 131.209831 
L 124.933936 130.165865 
L 124.990747 129.130547 
L 125.038272 128.113246 
L 125.082155 127.139482 
L 125.129841 126.202192 
L 125.165227 125.252154 
L 125.206546 124.307648 
L 125.235848 123.463255 
L 125.27632 122.575438 
L 125.302128 121.74318 
L 125.321016 120.909256 
L 125.352067 120.090553 
L 125.370058 119.291835 
L 125.392507 118.519768 
L 125.410513 117.747258 
L 125.424868 117.005741 
L 125.439683 116.23679 
L 125.450231 115.432541 
L 125.452469 114.627124 
L 125.468416 114.470828 
L 125.487697 114.317655 
L 125.506382 114.184511 
L 125.526378 114.071064 
L 125.546435 113.97262 
L 125.568275 113.889643 
L 125.588829 113.815684 
L 125.609779 113.752294 
L 125.630646 113.683904 
L 125.652525 113.622481 
L 125.673732 113.571599 
L 125.696147 113.531365 
L 125.717888 113.498013 
L 125.738195 113.473542 
L 125.760301 113.440482 
L 125.782067 113.406755 
L 125.803966 113.389939 
L 125.824915 113.36981 
L 125.84786 113.358629 
L 125.870638 113.341767 
L 125.892871 113.336524 
L 125.914984 113.338707 
L 125.938095 113.337008 
L 125.960868 113.33935 
" style="fill:none;stroke:#1f77b4;stroke-linecap:square;stroke-width:1.5;"/>
    <defs>
     <path d="M 0 1.5 
C 0.397805 1.5 0.77937 1.341951 1.06066 1.06066 
C 1.341951 0.77937 1.5 0.397805 1.5 0 
C 1.5 -0.397805 1.341951 -0.77937 1.06066 -1.06066 
C 0.77937 -1.341951 0.397805 -1.5 0 -1.5 
C -0.397805 -1.5 -0.77937 -1.341951 -1.06066 -1.06066 
C -1.341951 -0.77937 -1.5 -0.397805 -1.5 0 
C -1.5 0.397805 -1.341951 0.77937 -1.06066 1.06066 
C -0.77937 1.341951 -0.397805 1.5 0 1.5 
z
" id="m0002e2c431" style="stroke:#1f77b4;"/>
    </defs>
    <g clip-path="url(#pcbc25cbb8c)">
     <use style="fill:#1f77b4;stroke:#1f77b4;" x="396.142773" xlink:href="#m0002e2c431" y="57.10571"/>
     <use style="fill:#1f77b4;stroke:#1f77b4;" x="354.538105" xlink:href="#m0002e2c431" y="86.083792"/>
     <use style="fill:#1f77b4;stroke:#1f77b4;" x="319.527407" xlink:href="#m0002e2c431" y="112.702185"/>
     <use style="fill:#1f77b4;stroke:#1f77b4;" x="290.043582" xlink:href="#m0002e2c431" y="136.76182"/>
     <use style="fill:#1f77b4;stroke:#1f77b4;" x="265.319336" xlink:href="#m0002e2c431" y="159.121093"/>
     <use style="fill:#1f77b4;stroke:#1f77b4;" x="244.476213" xlink:href="#m0002e2c431" y="178.770997"/>
     <use style="fill:#1f77b4;stroke:#1f77b4;" x="226.983419" xlink:href="#m0002e2c431" y="196.200492"/>
     <use style="fill:#1f77b4;stroke:#1f77b4;" x="212.316687" xlink:href="#m0002e2c431" y="211.421783"/>
     <use style="fill:#1f77b4;stroke:#1f77b4;" x="200.026896" xlink:href="#m0002e2c431" y="223.993754"/>
     <use style="fill:#1f77b4;stroke:#1f77b4;" x="189.715573" xlink:href="#m0002e2c431" y="234.124963"/>
     <use style="fill:#1f77b4;stroke:#1f77b4;" x="181.055011" xlink:href="#m0002e2c431" y="242.77118"/>
     <use style="fill:#1f77b4;stroke:#1f77b4;" x="173.812914" xlink:href="#m0002e2c431" y="249.622456"/>
     <use style="fill:#1f77b4;stroke:#1f77b4;" x="167.668856" xlink:href="#m0002e2c431" y="254.85278"/>
     <use style="fill:#1f77b4;stroke:#1f77b4;" x="162.4791" xlink:href="#m0002e2c431" y="258.863431"/>
     <use style="fill:#1f77b4;stroke:#1f77b4;" x="158.134699" xlink:href="#m0002e2c431" y="261.350676"/>
     <use style="fill:#1f77b4;stroke:#1f77b4;" x="154.42706" xlink:href="#m0002e2c431" y="263.206976"/>
     <use style="fill:#1f77b4;stroke:#1f77b4;" x="151.285099" xlink:href="#m0002e2c431" y="264.193535"/>
     <use style="fill:#1f77b4;stroke:#1f77b4;" x="148.646633" xlink:href="#m0002e2c431" y="264.439219"/>
     <use style="fill:#1f77b4;stroke:#1f77b4;" x="146.289704" xlink:href="#m0002e2c431" y="263.7889"/>
     <use style="fill:#1f77b4;stroke:#1f77b4;" x="144.285704" xlink:href="#m0002e2c431" y="262.648464"/>
     <use style="fill:#1f77b4;stroke:#1f77b4;" x="142.499167" xlink:href="#m0002e2c431" y="260.713552"/>
     <use style="fill:#1f77b4;stroke:#1f77b4;" x="140.892455" xlink:href="#m0002e2c431" y="258.727248"/>
     <use style="fill:#1f77b4;stroke:#1f77b4;" x="139.528033" xlink:href="#m0002e2c431" y="255.919279"/>
     <use style="fill:#1f77b4;stroke:#1f77b4;" x="138.28084" xlink:href="#m0002e2c431" y="252.946854"/>
     <use style="fill:#1f77b4;stroke:#1f77b4;" x="137.118126" xlink:href="#m0002e2c431" y="249.861259"/>
     <use style="fill:#1f77b4;stroke:#1f77b4;" x="136.122139" xlink:href="#m0002e2c431" y="246.328741"/>
     <use style="fill:#1f77b4;stroke:#1f77b4;" x="135.199681" xlink:href="#m0002e2c431" y="242.44829"/>
     <use style="fill:#1f77b4;stroke:#1f77b4;" x="134.333178" xlink:href="#m0002e2c431" y="238.79903"/>
     <use style="fill:#1f77b4;stroke:#1f77b4;" x="133.577875" xlink:href="#m0002e2c431" y="234.776336"/>
     <use style="fill:#1f77b4;stroke:#1f77b4;" x="132.797621" xlink:href="#m0002e2c431" y="230.487034"/>
     <use style="fill:#1f77b4;stroke:#1f77b4;" x="132.125363" xlink:href="#m0002e2c431" y="226.297474"/>
     <use style="fill:#1f77b4;stroke:#1f77b4;" x="131.457967" xlink:href="#m0002e2c431" y="222.0273"/>
     <use style="fill:#1f77b4;stroke:#1f77b4;" x="130.88421" xlink:href="#m0002e2c431" y="217.557147"/>
     <use style="fill:#1f77b4;stroke:#1f77b4;" x="130.345085" xlink:href="#m0002e2c431" y="213.040636"/>
     <use style="fill:#1f77b4;stroke:#1f77b4;" x="129.835632" xlink:href="#m0002e2c431" y="208.730322"/>
     <use style="fill:#1f77b4;stroke:#1f77b4;" x="129.329878" xlink:href="#m0002e2c431" y="204.39439"/>
     <use style="fill:#1f77b4;stroke:#1f77b4;" x="128.938884" xlink:href="#m0002e2c431" y="199.744575"/>
     <use style="fill:#1f77b4;stroke:#1f77b4;" x="128.511611" xlink:href="#m0002e2c431" y="195.300069"/>
     <use style="fill:#1f77b4;stroke:#1f77b4;" x="128.132096" xlink:href="#m0002e2c431" y="190.735093"/>
     <use style="fill:#1f77b4;stroke:#1f77b4;" x="127.7719" xlink:href="#m0002e2c431" y="186.338189"/>
     <use style="fill:#1f77b4;stroke:#1f77b4;" x="127.403665" xlink:href="#m0002e2c431" y="181.768435"/>
     <use style="fill:#1f77b4;stroke:#1f77b4;" x="127.080933" xlink:href="#m0002e2c431" y="177.371702"/>
     <use style="fill:#1f77b4;stroke:#1f77b4;" x="126.748708" xlink:href="#m0002e2c431" y="173.249764"/>
     <use style="fill:#1f77b4;stroke:#1f77b4;" x="126.466796" xlink:href="#m0002e2c431" y="169.0356"/>
     <use style="fill:#1f77b4;stroke:#1f77b4;" x="126.106022" xlink:href="#m0002e2c431" y="164.64522"/>
     <use style="fill:#1f77b4;stroke:#1f77b4;" x="125.818947" xlink:href="#m0002e2c431" y="160.177218"/>
     <use style="fill:#1f77b4;stroke:#1f77b4;" x="125.535106" xlink:href="#m0002e2c431" y="155.446"/>
     <use style="fill:#1f77b4;stroke:#1f77b4;" x="125.180588" xlink:href="#m0002e2c431" y="150.587478"/>
     <use style="fill:#1f77b4;stroke:#1f77b4;" x="124.827898" xlink:href="#m0002e2c431" y="144.945468"/>
     <use style="fill:#1f77b4;stroke:#1f77b4;" x="124.495888" xlink:href="#m0002e2c431" y="138.838894"/>
     <use style="fill:#1f77b4;stroke:#1f77b4;" x="124.56312" xlink:href="#m0002e2c431" y="137.362512"/>
     <use style="fill:#1f77b4;stroke:#1f77b4;" x="124.632164" xlink:href="#m0002e2c431" y="135.970241"/>
     <use style="fill:#1f77b4;stroke:#1f77b4;" x="124.694846" xlink:href="#m0002e2c431" y="134.720224"/>
     <use style="fill:#1f77b4;stroke:#1f77b4;" x="124.759113" xlink:href="#m0002e2c431" y="133.509855"/>
     <use style="fill:#1f77b4;stroke:#1f77b4;" x="124.818958" xlink:href="#m0002e2c431" y="132.387619"/>
     <use style="fill:#1f77b4;stroke:#1f77b4;" x="124.876162" xlink:href="#m0002e2c431" y="131.209831"/>
     <use style="fill:#1f77b4;stroke:#1f77b4;" x="124.933936" xlink:href="#m0002e2c431" y="130.165865"/>
     <use style="fill:#1f77b4;stroke:#1f77b4;" x="124.990747" xlink:href="#m0002e2c431" y="129.130547"/>
     <use style="fill:#1f77b4;stroke:#1f77b4;" x="125.038272" xlink:href="#m0002e2c431" y="128.113246"/>
     <use style="fill:#1f77b4;stroke:#1f77b4;" x="125.082155" xlink:href="#m0002e2c431" y="127.139482"/>
     <use style="fill:#1f77b4;stroke:#1f77b4;" x="125.129841" xlink:href="#m0002e2c431" y="126.202192"/>
     <use style="fill:#1f77b4;stroke:#1f77b4;" x="125.165227" xlink:href="#m0002e2c431" y="125.252154"/>
     <use style="fill:#1f77b4;stroke:#1f77b4;" x="125.206546" xlink:href="#m0002e2c431" y="124.307648"/>
     <use style="fill:#1f77b4;stroke:#1f77b4;" x="125.235848" xlink:href="#m0002e2c431" y="123.463255"/>
     <use style="fill:#1f77b4;stroke:#1f77b4;" x="125.27632" xlink:href="#m0002e2c431" y="122.575438"/>
     <use style="fill:#1f77b4;stroke:#1f77b4;" x="125.302128" xlink:href="#m0002e2c431" y="121.74318"/>
     <use style="fill:#1f77b4;stroke:#1f77b4;" x="125.321016" xlink:href="#m0002e2c431" y="120.909256"/>
     <use style="fill:#1f77b4;stroke:#1f77b4;" x="125.352067" xlink:href="#m0002e2c431" y="120.090553"/>
     <use style="fill:#1f77b4;stroke:#1f77b4;" x="125.370058" xlink:href="#m0002e2c431" y="119.291835"/>
     <use style="fill:#1f77b4;stroke:#1f77b4;" x="125.392507" xlink:href="#m0002e2c431" y="118.519768"/>
     <use style="fill:#1f77b4;stroke:#1f77b4;" x="125.410513" xlink:href="#m0002e2c431" y="117.747258"/>
     <use style="fill:#1f77b4;stroke:#1f77b4;" x="125.424868" xlink:href="#m0002e2c431" y="117.005741"/>
     <use style="fill:#1f77b4;stroke:#1f77b4;" x="125.439683" xlink:href="#m0002e2c431" y="116.23679"/>
     <use style="fill:#1f77b4;stroke:#1f77b4;" x="125.450231" xlink:href="#m0002e2c431" y="115.432541"/>
     <use style="fill:#1f77b4;stroke:#1f77b4;" x="125.452469" xlink:href="#m0002e2c431" y="114.627124"/>
     <use style="fill:#1f77b4;stroke:#1f77b4;" x="125.468416" xlink:href="#m0002e2c431" y="114.470828"/>
     <use style="fill:#1f77b4;stroke:#1f77b4;" x="125.487697" xlink:href="#m0002e2c431" y="114.317655"/>
     <use style="fill:#1f77b4;stroke:#1f77b4;" x="125.506382" xlink:href="#m0002e2c431" y="114.184511"/>
     <use style="fill:#1f77b4;stroke:#1f77b4;" x="125.526378" xlink:href="#m0002e2c431" y="114.071064"/>
     <use style="fill:#1f77b4;stroke:#1f77b4;" x="125.546435" xlink:href="#m0002e2c431" y="113.97262"/>
     <use style="fill:#1f77b4;stroke:#1f77b4;" x="125.568275" xlink:href="#m0002e2c431" y="113.889643"/>
     <use style="fill:#1f77b4;stroke:#1f77b4;" x="125.588829" xlink:href="#m0002e2c431" y="113.815684"/>
     <use style="fill:#1f77b4;stroke:#1f77b4;" x="125.609779" xlink:href="#m0002e2c431" y="113.752294"/>
     <use style="fill:#1f77b4;stroke:#1f77b4;" x="125.630646" xlink:href="#m0002e2c431" y="113.683904"/>
     <use style="fill:#1f77b4;stroke:#1f77b4;" x="125.652525" xlink:href="#m0002e2c431" y="113.622481"/>
     <use style="fill:#1f77b4;stroke:#1f77b4;" x="125.673732" xlink:href="#m0002e2c431" y="113.571599"/>
     <use style="fill:#1f77b4;stroke:#1f77b4;" x="125.696147" xlink:href="#m0002e2c431" y="113.531365"/>
     <use style="fill:#1f77b4;stroke:#1f77b4;" x="125.717888" xlink:href="#m0002e2c431" y="113.498013"/>
     <use style="fill:#1f77b4;stroke:#1f77b4;" x="125.738195" xlink:href="#m0002e2c431" y="113.473542"/>
     <use style="fill:#1f77b4;stroke:#1f77b4;" x="125.760301" xlink:href="#m0002e2c431" y="113.440482"/>
     <use style="fill:#1f77b4;stroke:#1f77b4;" x="125.782067" xlink:href="#m0002e2c431" y="113.406755"/>
     <use style="fill:#1f77b4;stroke:#1f77b4;" x="125.803966" xlink:href="#m0002e2c431" y="113.389939"/>
     <use style="fill:#1f77b4;stroke:#1f77b4;" x="125.824915" xlink:href="#m0002e2c431" y="113.36981"/>
     <use style="fill:#1f77b4;stroke:#1f77b4;" x="125.84786" xlink:href="#m0002e2c431" y="113.358629"/>
     <use style="fill:#1f77b4;stroke:#1f77b4;" x="125.870638" xlink:href="#m0002e2c431" y="113.341767"/>
     <use style="fill:#1f77b4;stroke:#1f77b4;" x="125.892871" xlink:href="#m0002e2c431" y="113.336524"/>
     <use style="fill:#1f77b4;stroke:#1f77b4;" x="125.914984" xlink:href="#m0002e2c431" y="113.338707"/>
     <use style="fill:#1f77b4;stroke:#1f77b4;" x="125.938095" xlink:href="#m0002e2c431" y="113.337008"/>
     <use style="fill:#1f77b4;stroke:#1f77b4;" x="125.960868" xlink:href="#m0002e2c431" y="113.33935"/>
    </g>
   </g>
   <g id="patch_3">
    <path d="M 56.028488 277.111219 
L 56.028488 10.999219 
" style="fill:none;stroke:#000000;stroke-linecap:square;stroke-linejoin:miter;stroke-width:0.8;"/>
   </g>
   <g id="patch_4">
    <path d="M 413.148488 277.111219 
L 413.148488 10.999219 
" style="fill:none;stroke:#000000;stroke-linecap:square;stroke-linejoin:miter;stroke-width:0.8;"/>
   </g>
   <g id="patch_5">
    <path d="M 56.028488 277.111219 
L 413.148488 277.111219 
" style="fill:none;stroke:#000000;stroke-linecap:square;stroke-linejoin:miter;stroke-width:0.8;"/>
   </g>
   <g id="patch_6">
    <path d="M 56.028488 10.999219 
L 413.148488 10.999219 
" style="fill:none;stroke:#000000;stroke-linecap:square;stroke-linejoin:miter;stroke-width:0.8;"/>
   </g>
   <g id="text_15">
    <g clip-path="url(#pcbc25cbb8c)">
     <!-- 1.500 -->
     <g style="fill:#453781;" transform="translate(117.237275 91.843974)rotate(-349.513859)scale(0.06 -0.06)">
      <use xlink:href="#DejaVuSans-49"/>
      <use x="63.623047" xlink:href="#DejaVuSans-46"/>
      <use x="95.410156" xlink:href="#DejaVuSans-53"/>
      <use x="159.033203" xlink:href="#DejaVuSans-48"/>
      <use x="222.65625" xlink:href="#DejaVuSans-48"/>
     </g>
    </g>
   </g>
   <g id="text_16">
    <g clip-path="url(#pcbc25cbb8c)">
     <!-- 2.000 -->
     <g style="fill:#404688;" transform="translate(116.497076 115.244009)rotate(-75.808706)scale(0.06 -0.06)">
      <use xlink:href="#DejaVuSans-50"/>
      <use x="63.623047" xlink:href="#DejaVuSans-46"/>
      <use x="95.410156" xlink:href="#DejaVuSans-48"/>
      <use x="159.033203" xlink:href="#DejaVuSans-48"/>
      <use x="222.65625" xlink:href="#DejaVuSans-48"/>
     </g>
    </g>
   </g>
   <g id="text_17">
    <g clip-path="url(#pcbc25cbb8c)">
     <!-- 2.500 -->
     <g style="fill:#39558c;" transform="translate(120.908599 168.327785)rotate(-44.927137)scale(0.06 -0.06)">
      <use xlink:href="#DejaVuSans-50"/>
      <use x="63.623047" xlink:href="#DejaVuSans-46"/>
      <use x="95.410156" xlink:href="#DejaVuSans-53"/>
      <use x="159.033203" xlink:href="#DejaVuSans-48"/>
      <use x="222.65625" xlink:href="#DejaVuSans-48"/>
     </g>
    </g>
   </g>
   <g id="text_18">
    <g clip-path="url(#pcbc25cbb8c)">
     <!-- 3.000 -->
     <g style="fill:#33638d;" transform="translate(100.809871 135.11725)rotate(-310.073872)scale(0.06 -0.06)">
      <defs>
       <path d="M 40.578125 39.3125 
Q 47.65625 37.796875 51.625 33 
Q 55.609375 28.21875 55.609375 21.1875 
Q 55.609375 10.40625 48.1875 4.484375 
Q 40.765625 -1.421875 27.09375 -1.421875 
Q 22.515625 -1.421875 17.65625 -0.515625 
Q 12.796875 0.390625 7.625 2.203125 
L 7.625 11.71875 
Q 11.71875 9.328125 16.59375 8.109375 
Q 21.484375 6.890625 26.8125 6.890625 
Q 36.078125 6.890625 40.9375 10.546875 
Q 45.796875 14.203125 45.796875 21.1875 
Q 45.796875 27.640625 41.28125 31.265625 
Q 36.765625 34.90625 28.71875 34.90625 
L 20.21875 34.90625 
L 20.21875 43.015625 
L 29.109375 43.015625 
Q 36.375 43.015625 40.234375 45.921875 
Q 44.09375 48.828125 44.09375 54.296875 
Q 44.09375 59.90625 40.109375 62.90625 
Q 36.140625 65.921875 28.71875 65.921875 
Q 24.65625 65.921875 20.015625 65.03125 
Q 15.375 64.15625 9.8125 62.3125 
L 9.8125 71.09375 
Q 15.4375 72.65625 20.34375 73.4375 
Q 25.25 74.21875 29.59375 74.21875 
Q 40.828125 74.21875 47.359375 69.109375 
Q 53.90625 64.015625 53.90625 55.328125 
Q 53.90625 49.265625 50.4375 45.09375 
Q 46.96875 40.921875 40.578125 39.3125 
z
" id="DejaVuSans-51"/>
      </defs>
      <use xlink:href="#DejaVuSans-51"/>
      <use x="63.623047" xlink:href="#DejaVuSans-46"/>
      <use x="95.410156" xlink:href="#DejaVuSans-48"/>
      <use x="159.033203" xlink:href="#DejaVuSans-48"/>
      <use x="222.65625" xlink:href="#DejaVuSans-48"/>
     </g>
    </g>
   </g>
   <g id="text_19">
    <g clip-path="url(#pcbc25cbb8c)">
     <!-- 3.500 -->
     <g style="fill:#2d718e;" transform="translate(131.26675 156.001968)rotate(-67.114298)scale(0.06 -0.06)">
      <use xlink:href="#DejaVuSans-51"/>
      <use x="63.623047" xlink:href="#DejaVuSans-46"/>
      <use x="95.410156" xlink:href="#DejaVuSans-53"/>
      <use x="159.033203" xlink:href="#DejaVuSans-48"/>
      <use x="222.65625" xlink:href="#DejaVuSans-48"/>
     </g>
    </g>
   </g>
   <g id="text_20">
    <g clip-path="url(#pcbc25cbb8c)">
     <!-- 4.000 -->
     <g style="fill:#287d8e;" transform="translate(100.973373 147.597088)rotate(-299.386301)scale(0.06 -0.06)">
      <use xlink:href="#DejaVuSans-52"/>
      <use x="63.623047" xlink:href="#DejaVuSans-46"/>
      <use x="95.410156" xlink:href="#DejaVuSans-48"/>
      <use x="159.033203" xlink:href="#DejaVuSans-48"/>
      <use x="222.65625" xlink:href="#DejaVuSans-48"/>
     </g>
    </g>
   </g>
   <g id="text_21">
    <g clip-path="url(#pcbc25cbb8c)">
     <!-- 4.500 -->
     <g style="fill:#238a8d;" transform="translate(100.703862 147.074732)rotate(-293.761242)scale(0.06 -0.06)">
      <use xlink:href="#DejaVuSans-52"/>
      <use x="63.623047" xlink:href="#DejaVuSans-46"/>
      <use x="95.410156" xlink:href="#DejaVuSans-53"/>
      <use x="159.033203" xlink:href="#DejaVuSans-48"/>
      <use x="222.65625" xlink:href="#DejaVuSans-48"/>
     </g>
    </g>
   </g>
   <g id="text_22">
    <g clip-path="url(#pcbc25cbb8c)">
     <!-- 5.000 -->
     <g style="fill:#1f968b;" transform="translate(100.60959 147.147495)rotate(-289.196133)scale(0.06 -0.06)">
      <use xlink:href="#DejaVuSans-53"/>
      <use x="63.623047" xlink:href="#DejaVuSans-46"/>
      <use x="95.410156" xlink:href="#DejaVuSans-48"/>
      <use x="159.033203" xlink:href="#DejaVuSans-48"/>
      <use x="222.65625" xlink:href="#DejaVuSans-48"/>
     </g>
    </g>
   </g>
   <g id="text_23">
    <g clip-path="url(#pcbc25cbb8c)">
     <!-- 5.500 -->
     <g style="fill:#20a386;" transform="translate(100.725239 148.663296)rotate(-288.324222)scale(0.06 -0.06)">
      <use xlink:href="#DejaVuSans-53"/>
      <use x="63.623047" xlink:href="#DejaVuSans-46"/>
      <use x="95.410156" xlink:href="#DejaVuSans-53"/>
      <use x="159.033203" xlink:href="#DejaVuSans-48"/>
      <use x="222.65625" xlink:href="#DejaVuSans-48"/>
     </g>
    </g>
   </g>
   <g id="text_24">
    <g clip-path="url(#pcbc25cbb8c)">
     <!-- 6.000 -->
     <g style="fill:#29af7f;" transform="translate(104.322304 166.676256)rotate(-281.962307)scale(0.06 -0.06)">
      <use xlink:href="#DejaVuSans-54"/>
      <use x="63.623047" xlink:href="#DejaVuSans-46"/>
      <use x="95.410156" xlink:href="#DejaVuSans-48"/>
      <use x="159.033203" xlink:href="#DejaVuSans-48"/>
      <use x="222.65625" xlink:href="#DejaVuSans-48"/>
     </g>
    </g>
   </g>
   <g id="text_25">
    <g clip-path="url(#pcbc25cbb8c)">
     <!-- 6.500 -->
     <g style="fill:#3dbc74;" transform="translate(103.98164 166.769)rotate(-283.477966)scale(0.06 -0.06)">
      <use xlink:href="#DejaVuSans-54"/>
      <use x="63.623047" xlink:href="#DejaVuSans-46"/>
      <use x="95.410156" xlink:href="#DejaVuSans-53"/>
      <use x="159.033203" xlink:href="#DejaVuSans-48"/>
      <use x="222.65625" xlink:href="#DejaVuSans-48"/>
     </g>
    </g>
   </g>
   <g id="text_26">
    <g clip-path="url(#pcbc25cbb8c)">
     <!-- 7.000 -->
     <g style="fill:#56c667;" transform="translate(130.82901 111.77021)rotate(-275.592428)scale(0.06 -0.06)">
      <use xlink:href="#DejaVuSans-55"/>
      <use x="63.623047" xlink:href="#DejaVuSans-46"/>
      <use x="95.410156" xlink:href="#DejaVuSans-48"/>
      <use x="159.033203" xlink:href="#DejaVuSans-48"/>
      <use x="222.65625" xlink:href="#DejaVuSans-48"/>
     </g>
    </g>
   </g>
   <g id="text_27">
    <g clip-path="url(#pcbc25cbb8c)">
     <!-- 7.500 -->
     <g style="fill:#75d054;" transform="translate(101.985185 132.205931)rotate(-274.855682)scale(0.06 -0.06)">
      <use xlink:href="#DejaVuSans-55"/>
      <use x="63.623047" xlink:href="#DejaVuSans-46"/>
      <use x="95.410156" xlink:href="#DejaVuSans-53"/>
      <use x="159.033203" xlink:href="#DejaVuSans-48"/>
      <use x="222.65625" xlink:href="#DejaVuSans-48"/>
     </g>
    </g>
   </g>
   <g id="text_28">
    <g clip-path="url(#pcbc25cbb8c)">
     <!-- 8.000 -->
     <g style="fill:#95d840;" transform="translate(104.356321 188.896619)rotate(-302.95998)scale(0.06 -0.06)">
      <use xlink:href="#DejaVuSans-56"/>
      <use x="63.623047" xlink:href="#DejaVuSans-46"/>
      <use x="95.410156" xlink:href="#DejaVuSans-48"/>
      <use x="159.033203" xlink:href="#DejaVuSans-48"/>
      <use x="222.65625" xlink:href="#DejaVuSans-48"/>
     </g>
    </g>
   </g>
   <g id="text_29">
    <g clip-path="url(#pcbc25cbb8c)">
     <!-- 8.500 -->
     <g style="fill:#bade28;" transform="translate(101.718183 132.241315)rotate(-275.687372)scale(0.06 -0.06)">
      <use xlink:href="#DejaVuSans-56"/>
      <use x="63.623047" xlink:href="#DejaVuSans-46"/>
      <use x="95.410156" xlink:href="#DejaVuSans-53"/>
      <use x="159.033203" xlink:href="#DejaVuSans-48"/>
      <use x="222.65625" xlink:href="#DejaVuSans-48"/>
     </g>
    </g>
   </g>
   <g id="text_30">
    <g clip-path="url(#pcbc25cbb8c)">
     <!-- 9.000 -->
     <g style="fill:#dde318;" transform="translate(101.58495 132.259649)rotate(-276.102726)scale(0.06 -0.06)">
      <defs>
       <path d="M 10.984375 1.515625 
L 10.984375 10.5 
Q 14.703125 8.734375 18.5 7.8125 
Q 22.3125 6.890625 25.984375 6.890625 
Q 35.75 6.890625 40.890625 13.453125 
Q 46.046875 20.015625 46.78125 33.40625 
Q 43.953125 29.203125 39.59375 26.953125 
Q 35.25 24.703125 29.984375 24.703125 
Q 19.046875 24.703125 12.671875 31.3125 
Q 6.296875 37.9375 6.296875 49.421875 
Q 6.296875 60.640625 12.9375 67.421875 
Q 19.578125 74.21875 30.609375 74.21875 
Q 43.265625 74.21875 49.921875 64.515625 
Q 56.59375 54.828125 56.59375 36.375 
Q 56.59375 19.140625 48.40625 8.859375 
Q 40.234375 -1.421875 26.421875 -1.421875 
Q 22.703125 -1.421875 18.890625 -0.6875 
Q 15.09375 0.046875 10.984375 1.515625 
z
M 30.609375 32.421875 
Q 37.25 32.421875 41.125 36.953125 
Q 45.015625 41.5 45.015625 49.421875 
Q 45.015625 57.28125 41.125 61.84375 
Q 37.25 66.40625 30.609375 66.40625 
Q 23.96875 66.40625 20.09375 61.84375 
Q 16.21875 57.28125 16.21875 49.421875 
Q 16.21875 41.5 20.09375 36.953125 
Q 23.96875 32.421875 30.609375 32.421875 
z
" id="DejaVuSans-57"/>
      </defs>
      <use xlink:href="#DejaVuSans-57"/>
      <use x="63.623047" xlink:href="#DejaVuSans-46"/>
      <use x="95.410156" xlink:href="#DejaVuSans-48"/>
      <use x="159.033203" xlink:href="#DejaVuSans-48"/>
      <use x="222.65625" xlink:href="#DejaVuSans-48"/>
     </g>
    </g>
   </g>
   <g id="text_31">
    <g clip-path="url(#pcbc25cbb8c)">
     <!-- 9.500 -->
     <g style="fill:#fde725;" transform="translate(107.690459 213.393415)rotate(-15.992948)scale(0.06 -0.06)">
      <use xlink:href="#DejaVuSans-57"/>
      <use x="63.623047" xlink:href="#DejaVuSans-46"/>
      <use x="95.410156" xlink:href="#DejaVuSans-53"/>
      <use x="159.033203" xlink:href="#DejaVuSans-48"/>
      <use x="222.65625" xlink:href="#DejaVuSans-48"/>
     </g>
    </g>
   </g>
   <g id="text_32">
    <g clip-path="url(#pcbc25cbb8c)">
     <!-- 10.000 -->
     <g style="fill:#440154;" transform="translate(100.323411 157.179859)rotate(-287.127739)scale(0.06 -0.06)">
      <use xlink:href="#DejaVuSans-49"/>
      <use x="63.623047" xlink:href="#DejaVuSans-48"/>
      <use x="127.246094" xlink:href="#DejaVuSans-46"/>
      <use x="159.033203" xlink:href="#DejaVuSans-48"/>
      <use x="222.65625" xlink:href="#DejaVuSans-48"/>
      <use x="286.279297" xlink:href="#DejaVuSans-48"/>
     </g>
    </g>
   </g>
   <g id="text_33">
    <g clip-path="url(#pcbc25cbb8c)">
     <!-- 100.000 -->
     <g style="fill:#440154;" transform="translate(100.818529 125.845396)rotate(-83.957007)scale(0.06 -0.06)">
      <use xlink:href="#DejaVuSans-49"/>
      <use x="63.623047" xlink:href="#DejaVuSans-48"/>
      <use x="127.246094" xlink:href="#DejaVuSans-48"/>
      <use x="190.869141" xlink:href="#DejaVuSans-46"/>
      <use x="222.65625" xlink:href="#DejaVuSans-48"/>
      <use x="286.279297" xlink:href="#DejaVuSans-48"/>
      <use x="349.902344" xlink:href="#DejaVuSans-48"/>
     </g>
    </g>
   </g>
   <g id="text_34">
    <g clip-path="url(#pcbc25cbb8c)">
     <!-- 1000.000 -->
     <g style="fill:#440154;" transform="translate(142.196876 167.278255)rotate(-271.134511)scale(0.06 -0.06)">
      <use xlink:href="#DejaVuSans-49"/>
      <use x="63.623047" xlink:href="#DejaVuSans-48"/>
      <use x="127.246094" xlink:href="#DejaVuSans-48"/>
      <use x="190.869141" xlink:href="#DejaVuSans-48"/>
      <use x="254.492188" xlink:href="#DejaVuSans-46"/>
      <use x="286.279297" xlink:href="#DejaVuSans-48"/>
      <use x="349.902344" xlink:href="#DejaVuSans-48"/>
      <use x="413.525391" xlink:href="#DejaVuSans-48"/>
     </g>
    </g>
   </g>
   <g id="text_35">
    <g clip-path="url(#pcbc25cbb8c)">
     <!-- 10000.000 -->
     <g style="fill:#440154;" transform="translate(91.021007 94.55877)rotate(-64.297451)scale(0.06 -0.06)">
      <use xlink:href="#DejaVuSans-49"/>
      <use x="63.623047" xlink:href="#DejaVuSans-48"/>
      <use x="127.246094" xlink:href="#DejaVuSans-48"/>
      <use x="190.869141" xlink:href="#DejaVuSans-48"/>
      <use x="254.492188" xlink:href="#DejaVuSans-48"/>
      <use x="318.115234" xlink:href="#DejaVuSans-46"/>
      <use x="349.902344" xlink:href="#DejaVuSans-48"/>
      <use x="413.525391" xlink:href="#DejaVuSans-48"/>
      <use x="477.148438" xlink:href="#DejaVuSans-48"/>
     </g>
    </g>
   </g>
   <g id="text_36">
    <g clip-path="url(#pcbc25cbb8c)">
     <!-- 100000.000 -->
     <g style="fill:#440154;" transform="translate(87.383435 198.807284)rotate(-286.951182)scale(0.06 -0.06)">
      <use xlink:href="#DejaVuSans-49"/>
      <use x="63.623047" xlink:href="#DejaVuSans-48"/>
      <use x="127.246094" xlink:href="#DejaVuSans-48"/>
      <use x="190.869141" xlink:href="#DejaVuSans-48"/>
      <use x="254.492188" xlink:href="#DejaVuSans-48"/>
      <use x="318.115234" xlink:href="#DejaVuSans-48"/>
      <use x="381.738281" xlink:href="#DejaVuSans-46"/>
      <use x="413.525391" xlink:href="#DejaVuSans-48"/>
      <use x="477.148438" xlink:href="#DejaVuSans-48"/>
      <use x="540.771484" xlink:href="#DejaVuSans-48"/>
     </g>
    </g>
   </g>
   <g id="text_37">
    <g clip-path="url(#pcbc25cbb8c)">
     <!-- 1000000.000 -->
     <g style="fill:#450457;" transform="translate(83.917051 69.71378)rotate(-57.430913)scale(0.06 -0.06)">
      <use xlink:href="#DejaVuSans-49"/>
      <use x="63.623047" xlink:href="#DejaVuSans-48"/>
      <use x="127.246094" xlink:href="#DejaVuSans-48"/>
      <use x="190.869141" xlink:href="#DejaVuSans-48"/>
      <use x="254.492188" xlink:href="#DejaVuSans-48"/>
      <use x="318.115234" xlink:href="#DejaVuSans-48"/>
      <use x="381.738281" xlink:href="#DejaVuSans-48"/>
      <use x="445.361328" xlink:href="#DejaVuSans-46"/>
      <use x="477.148438" xlink:href="#DejaVuSans-48"/>
      <use x="540.771484" xlink:href="#DejaVuSans-48"/>
      <use x="604.394531" xlink:href="#DejaVuSans-48"/>
     </g>
    </g>
   </g>
   <g id="text_38">
    <g clip-path="url(#pcbc25cbb8c)">
     <!-- 10000000.000 -->
     <g style="fill:#482475;" transform="translate(83.19203 114.874414)rotate(-84.496222)scale(0.06 -0.06)">
      <use xlink:href="#DejaVuSans-49"/>
      <use x="63.623047" xlink:href="#DejaVuSans-48"/>
      <use x="127.246094" xlink:href="#DejaVuSans-48"/>
      <use x="190.869141" xlink:href="#DejaVuSans-48"/>
      <use x="254.492188" xlink:href="#DejaVuSans-48"/>
      <use x="318.115234" xlink:href="#DejaVuSans-48"/>
      <use x="381.738281" xlink:href="#DejaVuSans-48"/>
      <use x="445.361328" xlink:href="#DejaVuSans-48"/>
      <use x="508.984375" xlink:href="#DejaVuSans-46"/>
      <use x="540.771484" xlink:href="#DejaVuSans-48"/>
      <use x="604.394531" xlink:href="#DejaVuSans-48"/>
      <use x="668.017578" xlink:href="#DejaVuSans-48"/>
     </g>
    </g>
   </g>
   <g id="text_39">
    <g clip-path="url(#pcbc25cbb8c)">
     <!-- 10000000.000 -->
     <g style="fill:#482475;" transform="translate(137.484981 79.853636)rotate(-291.378824)scale(0.06 -0.06)">
      <use xlink:href="#DejaVuSans-49"/>
      <use x="63.623047" xlink:href="#DejaVuSans-48"/>
      <use x="127.246094" xlink:href="#DejaVuSans-48"/>
      <use x="190.869141" xlink:href="#DejaVuSans-48"/>
      <use x="254.492188" xlink:href="#DejaVuSans-48"/>
      <use x="318.115234" xlink:href="#DejaVuSans-48"/>
      <use x="381.738281" xlink:href="#DejaVuSans-48"/>
      <use x="445.361328" xlink:href="#DejaVuSans-48"/>
      <use x="508.984375" xlink:href="#DejaVuSans-46"/>
      <use x="540.771484" xlink:href="#DejaVuSans-48"/>
      <use x="604.394531" xlink:href="#DejaVuSans-48"/>
      <use x="668.017578" xlink:href="#DejaVuSans-48"/>
     </g>
    </g>
   </g>
   <g id="text_40">
    <g clip-path="url(#pcbc25cbb8c)">
     <!-- 100000000.000 -->
     <g style="fill:#fde725;" transform="translate(80.184179 123.605222)rotate(-86.137324)scale(0.06 -0.06)">
      <use xlink:href="#DejaVuSans-49"/>
      <use x="63.623047" xlink:href="#DejaVuSans-48"/>
      <use x="127.246094" xlink:href="#DejaVuSans-48"/>
      <use x="190.869141" xlink:href="#DejaVuSans-48"/>
      <use x="254.492188" xlink:href="#DejaVuSans-48"/>
      <use x="318.115234" xlink:href="#DejaVuSans-48"/>
      <use x="381.738281" xlink:href="#DejaVuSans-48"/>
      <use x="445.361328" xlink:href="#DejaVuSans-48"/>
      <use x="508.984375" xlink:href="#DejaVuSans-48"/>
      <use x="572.607422" xlink:href="#DejaVuSans-46"/>
      <use x="604.394531" xlink:href="#DejaVuSans-48"/>
      <use x="668.017578" xlink:href="#DejaVuSans-48"/>
      <use x="731.640625" xlink:href="#DejaVuSans-48"/>
     </g>
    </g>
   </g>
   <g id="text_41">
    <g clip-path="url(#pcbc25cbb8c)">
     <!-- 100000000.000 -->
     <g style="fill:#fde725;" transform="translate(141.0793 83.391322)rotate(-289.144783)scale(0.06 -0.06)">
      <use xlink:href="#DejaVuSans-49"/>
      <use x="63.623047" xlink:href="#DejaVuSans-48"/>
      <use x="127.246094" xlink:href="#DejaVuSans-48"/>
      <use x="190.869141" xlink:href="#DejaVuSans-48"/>
      <use x="254.492188" xlink:href="#DejaVuSans-48"/>
      <use x="318.115234" xlink:href="#DejaVuSans-48"/>
      <use x="381.738281" xlink:href="#DejaVuSans-48"/>
      <use x="445.361328" xlink:href="#DejaVuSans-48"/>
      <use x="508.984375" xlink:href="#DejaVuSans-48"/>
      <use x="572.607422" xlink:href="#DejaVuSans-46"/>
      <use x="604.394531" xlink:href="#DejaVuSans-48"/>
      <use x="668.017578" xlink:href="#DejaVuSans-48"/>
      <use x="731.640625" xlink:href="#DejaVuSans-48"/>
     </g>
    </g>
   </g>
  </g>
 </g>
 <defs>
  <clipPath id="pcbc25cbb8c">
   <rect height="266.112" width="357.12" x="56.028488" y="10.999219"/>
  </clipPath>
 </defs>
</svg>
