<?xml version="1.0" encoding="utf-8" standalone="no"?>
<!DOCTYPE svg PUBLIC "-//W3C//DTD SVG 1.1//EN"
  "http://www.w3.org/Graphics/SVG/1.1/DTD/svg11.dtd">
<!-- Created with matplotlib (https://matplotlib.org/) -->
<svg height="321.713144pt" version="1.1" viewBox="0 0 413.985987 321.713144" width="413.985987pt" xmlns="http://www.w3.org/2000/svg" xmlns:xlink="http://www.w3.org/1999/xlink">
 <metadata>
  <rdf:RDF xmlns:cc="http://creativecommons.org/ns#" xmlns:dc="http://purl.org/dc/elements/1.1/" xmlns:rdf="http://www.w3.org/1999/02/22-rdf-syntax-ns#">
   <cc:Work>
    <dc:type rdf:resource="http://purl.org/dc/dcmitype/StillImage"/>
    <dc:date>2021-09-18T18:04:01.034399</dc:date>
    <dc:format>image/svg+xml</dc:format>
    <dc:creator>
     <cc:Agent>
      <dc:title>Matplotlib v3.3.1, https://matplotlib.org/</dc:title>
     </cc:Agent>
    </dc:creator>
   </cc:Work>
  </rdf:RDF>
 </metadata>
 <defs>
  <style type="text/css">*{stroke-linecap:butt;stroke-linejoin:round;}</style>
 </defs>
 <g id="figure_1">
  <g id="patch_1">
   <path d="M 0 321.713144 
L 413.985987 321.713144 
L 413.985987 0 
L 0 0 
z
" style="fill:#ffffff;"/>
  </g>
  <g id="axes_1">
   <g id="patch_2">
    <path d="M 49.665988 277.111219 
L 406.785988 277.111219 
L 406.785988 10.999219 
L 49.665988 10.999219 
z
" style="fill:#ffffff;"/>
   </g>
   <g id="matplotlib.axis_1">
    <g id="xtick_1">
     <g id="line2d_1">
      <defs>
       <path d="M 0 0 
L 0 3.5 
" id="m39f1fb57ad" style="stroke:#000000;stroke-width:0.8;"/>
      </defs>
      <g>
       <use style="stroke:#000000;stroke-width:0.8;" x="49.665988" xlink:href="#m39f1fb57ad" y="277.111219"/>
      </g>
     </g>
     <g id="text_1">
      <!-- −5 -->
      <g transform="translate(42.294894 291.709656)scale(0.1 -0.1)">
       <defs>
        <path d="M 10.59375 35.5 
L 73.1875 35.5 
L 73.1875 27.203125 
L 10.59375 27.203125 
z
" id="DejaVuSans-8722"/>
        <path d="M 10.796875 72.90625 
L 49.515625 72.90625 
L 49.515625 64.59375 
L 19.828125 64.59375 
L 19.828125 46.734375 
Q 21.96875 47.46875 24.109375 47.828125 
Q 26.265625 48.1875 28.421875 48.1875 
Q 40.625 48.1875 47.75 41.5 
Q 54.890625 34.8125 54.890625 23.390625 
Q 54.890625 11.625 47.5625 5.09375 
Q 40.234375 -1.421875 26.90625 -1.421875 
Q 22.3125 -1.421875 17.546875 -0.640625 
Q 12.796875 0.140625 7.71875 1.703125 
L 7.71875 11.625 
Q 12.109375 9.234375 16.796875 8.0625 
Q 21.484375 6.890625 26.703125 6.890625 
Q 35.15625 6.890625 40.078125 11.328125 
Q 45.015625 15.765625 45.015625 23.390625 
Q 45.015625 31 40.078125 35.4375 
Q 35.15625 39.890625 26.703125 39.890625 
Q 22.75 39.890625 18.8125 39.015625 
Q 14.890625 38.140625 10.796875 36.28125 
z
" id="DejaVuSans-53"/>
       </defs>
       <use xlink:href="#DejaVuSans-8722"/>
       <use x="83.789062" xlink:href="#DejaVuSans-53"/>
      </g>
     </g>
    </g>
    <g id="xtick_2">
     <g id="line2d_2">
      <g>
       <use style="stroke:#000000;stroke-width:0.8;" x="113.577487" xlink:href="#m39f1fb57ad" y="277.111219"/>
      </g>
     </g>
     <g id="text_2">
      <!-- 0 -->
      <g transform="translate(110.396237 291.709656)scale(0.1 -0.1)">
       <defs>
        <path d="M 31.78125 66.40625 
Q 24.171875 66.40625 20.328125 58.90625 
Q 16.5 51.421875 16.5 36.375 
Q 16.5 21.390625 20.328125 13.890625 
Q 24.171875 6.390625 31.78125 6.390625 
Q 39.453125 6.390625 43.28125 13.890625 
Q 47.125 21.390625 47.125 36.375 
Q 47.125 51.421875 43.28125 58.90625 
Q 39.453125 66.40625 31.78125 66.40625 
z
M 31.78125 74.21875 
Q 44.046875 74.21875 50.515625 64.515625 
Q 56.984375 54.828125 56.984375 36.375 
Q 56.984375 17.96875 50.515625 8.265625 
Q 44.046875 -1.421875 31.78125 -1.421875 
Q 19.53125 -1.421875 13.0625 8.265625 
Q 6.59375 17.96875 6.59375 36.375 
Q 6.59375 54.828125 13.0625 64.515625 
Q 19.53125 74.21875 31.78125 74.21875 
z
" id="DejaVuSans-48"/>
       </defs>
       <use xlink:href="#DejaVuSans-48"/>
      </g>
     </g>
    </g>
    <g id="xtick_3">
     <g id="line2d_3">
      <g>
       <use style="stroke:#000000;stroke-width:0.8;" x="177.488987" xlink:href="#m39f1fb57ad" y="277.111219"/>
      </g>
     </g>
     <g id="text_3">
      <!-- 5 -->
      <g transform="translate(174.307737 291.709656)scale(0.1 -0.1)">
       <use xlink:href="#DejaVuSans-53"/>
      </g>
     </g>
    </g>
    <g id="xtick_4">
     <g id="line2d_4">
      <g>
       <use style="stroke:#000000;stroke-width:0.8;" x="241.400486" xlink:href="#m39f1fb57ad" y="277.111219"/>
      </g>
     </g>
     <g id="text_4">
      <!-- 10 -->
      <g transform="translate(235.037986 291.709656)scale(0.1 -0.1)">
       <defs>
        <path d="M 12.40625 8.296875 
L 28.515625 8.296875 
L 28.515625 63.921875 
L 10.984375 60.40625 
L 10.984375 69.390625 
L 28.421875 72.90625 
L 38.28125 72.90625 
L 38.28125 8.296875 
L 54.390625 8.296875 
L 54.390625 0 
L 12.40625 0 
z
" id="DejaVuSans-49"/>
       </defs>
       <use xlink:href="#DejaVuSans-49"/>
       <use x="63.623047" xlink:href="#DejaVuSans-48"/>
      </g>
     </g>
    </g>
    <g id="xtick_5">
     <g id="line2d_5">
      <g>
       <use style="stroke:#000000;stroke-width:0.8;" x="305.311986" xlink:href="#m39f1fb57ad" y="277.111219"/>
      </g>
     </g>
     <g id="text_5">
      <!-- 15 -->
      <g transform="translate(298.949486 291.709656)scale(0.1 -0.1)">
       <use xlink:href="#DejaVuSans-49"/>
       <use x="63.623047" xlink:href="#DejaVuSans-53"/>
      </g>
     </g>
    </g>
    <g id="xtick_6">
     <g id="line2d_6">
      <g>
       <use style="stroke:#000000;stroke-width:0.8;" x="369.223485" xlink:href="#m39f1fb57ad" y="277.111219"/>
      </g>
     </g>
     <g id="text_6">
      <!-- 20 -->
      <g transform="translate(362.860985 291.709656)scale(0.1 -0.1)">
       <defs>
        <path d="M 19.1875 8.296875 
L 53.609375 8.296875 
L 53.609375 0 
L 7.328125 0 
L 7.328125 8.296875 
Q 12.9375 14.109375 22.625 23.890625 
Q 32.328125 33.6875 34.8125 36.53125 
Q 39.546875 41.84375 41.421875 45.53125 
Q 43.3125 49.21875 43.3125 52.78125 
Q 43.3125 58.59375 39.234375 62.25 
Q 35.15625 65.921875 28.609375 65.921875 
Q 23.96875 65.921875 18.8125 64.3125 
Q 13.671875 62.703125 7.8125 59.421875 
L 7.8125 69.390625 
Q 13.765625 71.78125 18.9375 73 
Q 24.125 74.21875 28.421875 74.21875 
Q 39.75 74.21875 46.484375 68.546875 
Q 53.21875 62.890625 53.21875 53.421875 
Q 53.21875 48.921875 51.53125 44.890625 
Q 49.859375 40.875 45.40625 35.40625 
Q 44.1875 33.984375 37.640625 27.21875 
Q 31.109375 20.453125 19.1875 8.296875 
z
" id="DejaVuSans-50"/>
       </defs>
       <use xlink:href="#DejaVuSans-50"/>
       <use x="63.623047" xlink:href="#DejaVuSans-48"/>
      </g>
     </g>
    </g>
    <g id="text_7">
     <!-- 1st PC: 85.66 % -->
     <g transform="translate(159.505587 310.919444)scale(0.1728 -0.1728)">
      <defs>
       <path d="M 44.28125 53.078125 
L 44.28125 44.578125 
Q 40.484375 46.53125 36.375 47.5 
Q 32.28125 48.484375 27.875 48.484375 
Q 21.1875 48.484375 17.84375 46.4375 
Q 14.5 44.390625 14.5 40.28125 
Q 14.5 37.15625 16.890625 35.375 
Q 19.28125 33.59375 26.515625 31.984375 
L 29.59375 31.296875 
Q 39.15625 29.25 43.1875 25.515625 
Q 47.21875 21.78125 47.21875 15.09375 
Q 47.21875 7.46875 41.1875 3.015625 
Q 35.15625 -1.421875 24.609375 -1.421875 
Q 20.21875 -1.421875 15.453125 -0.5625 
Q 10.6875 0.296875 5.421875 2 
L 5.421875 11.28125 
Q 10.40625 8.6875 15.234375 7.390625 
Q 20.0625 6.109375 24.8125 6.109375 
Q 31.15625 6.109375 34.5625 8.28125 
Q 37.984375 10.453125 37.984375 14.40625 
Q 37.984375 18.0625 35.515625 20.015625 
Q 33.0625 21.96875 24.703125 23.78125 
L 21.578125 24.515625 
Q 13.234375 26.265625 9.515625 29.90625 
Q 5.8125 33.546875 5.8125 39.890625 
Q 5.8125 47.609375 11.28125 51.796875 
Q 16.75 56 26.8125 56 
Q 31.78125 56 36.171875 55.265625 
Q 40.578125 54.546875 44.28125 53.078125 
z
" id="DejaVuSans-115"/>
       <path d="M 18.3125 70.21875 
L 18.3125 54.6875 
L 36.8125 54.6875 
L 36.8125 47.703125 
L 18.3125 47.703125 
L 18.3125 18.015625 
Q 18.3125 11.328125 20.140625 9.421875 
Q 21.96875 7.515625 27.59375 7.515625 
L 36.8125 7.515625 
L 36.8125 0 
L 27.59375 0 
Q 17.1875 0 13.234375 3.875 
Q 9.28125 7.765625 9.28125 18.015625 
L 9.28125 47.703125 
L 2.6875 47.703125 
L 2.6875 54.6875 
L 9.28125 54.6875 
L 9.28125 70.21875 
z
" id="DejaVuSans-116"/>
       <path id="DejaVuSans-32"/>
       <path d="M 19.671875 64.796875 
L 19.671875 37.40625 
L 32.078125 37.40625 
Q 38.96875 37.40625 42.71875 40.96875 
Q 46.484375 44.53125 46.484375 51.125 
Q 46.484375 57.671875 42.71875 61.234375 
Q 38.96875 64.796875 32.078125 64.796875 
z
M 9.8125 72.90625 
L 32.078125 72.90625 
Q 44.34375 72.90625 50.609375 67.359375 
Q 56.890625 61.8125 56.890625 51.125 
Q 56.890625 40.328125 50.609375 34.8125 
Q 44.34375 29.296875 32.078125 29.296875 
L 19.671875 29.296875 
L 19.671875 0 
L 9.8125 0 
z
" id="DejaVuSans-80"/>
       <path d="M 64.40625 67.28125 
L 64.40625 56.890625 
Q 59.421875 61.53125 53.78125 63.8125 
Q 48.140625 66.109375 41.796875 66.109375 
Q 29.296875 66.109375 22.65625 58.46875 
Q 16.015625 50.828125 16.015625 36.375 
Q 16.015625 21.96875 22.65625 14.328125 
Q 29.296875 6.6875 41.796875 6.6875 
Q 48.140625 6.6875 53.78125 8.984375 
Q 59.421875 11.28125 64.40625 15.921875 
L 64.40625 5.609375 
Q 59.234375 2.09375 53.4375 0.328125 
Q 47.65625 -1.421875 41.21875 -1.421875 
Q 24.65625 -1.421875 15.125 8.703125 
Q 5.609375 18.84375 5.609375 36.375 
Q 5.609375 53.953125 15.125 64.078125 
Q 24.65625 74.21875 41.21875 74.21875 
Q 47.75 74.21875 53.53125 72.484375 
Q 59.328125 70.75 64.40625 67.28125 
z
" id="DejaVuSans-67"/>
       <path d="M 11.71875 12.40625 
L 22.015625 12.40625 
L 22.015625 0 
L 11.71875 0 
z
M 11.71875 51.703125 
L 22.015625 51.703125 
L 22.015625 39.3125 
L 11.71875 39.3125 
z
" id="DejaVuSans-58"/>
       <path d="M 31.78125 34.625 
Q 24.75 34.625 20.71875 30.859375 
Q 16.703125 27.09375 16.703125 20.515625 
Q 16.703125 13.921875 20.71875 10.15625 
Q 24.75 6.390625 31.78125 6.390625 
Q 38.8125 6.390625 42.859375 10.171875 
Q 46.921875 13.96875 46.921875 20.515625 
Q 46.921875 27.09375 42.890625 30.859375 
Q 38.875 34.625 31.78125 34.625 
z
M 21.921875 38.8125 
Q 15.578125 40.375 12.03125 44.71875 
Q 8.5 49.078125 8.5 55.328125 
Q 8.5 64.0625 14.71875 69.140625 
Q 20.953125 74.21875 31.78125 74.21875 
Q 42.671875 74.21875 48.875 69.140625 
Q 55.078125 64.0625 55.078125 55.328125 
Q 55.078125 49.078125 51.53125 44.71875 
Q 48 40.375 41.703125 38.8125 
Q 48.828125 37.15625 52.796875 32.3125 
Q 56.78125 27.484375 56.78125 20.515625 
Q 56.78125 9.90625 50.3125 4.234375 
Q 43.84375 -1.421875 31.78125 -1.421875 
Q 19.734375 -1.421875 13.25 4.234375 
Q 6.78125 9.90625 6.78125 20.515625 
Q 6.78125 27.484375 10.78125 32.3125 
Q 14.796875 37.15625 21.921875 38.8125 
z
M 18.3125 54.390625 
Q 18.3125 48.734375 21.84375 45.5625 
Q 25.390625 42.390625 31.78125 42.390625 
Q 38.140625 42.390625 41.71875 45.5625 
Q 45.3125 48.734375 45.3125 54.390625 
Q 45.3125 60.0625 41.71875 63.234375 
Q 38.140625 66.40625 31.78125 66.40625 
Q 25.390625 66.40625 21.84375 63.234375 
Q 18.3125 60.0625 18.3125 54.390625 
z
" id="DejaVuSans-56"/>
       <path d="M 10.6875 12.40625 
L 21 12.40625 
L 21 0 
L 10.6875 0 
z
" id="DejaVuSans-46"/>
       <path d="M 33.015625 40.375 
Q 26.375 40.375 22.484375 35.828125 
Q 18.609375 31.296875 18.609375 23.390625 
Q 18.609375 15.53125 22.484375 10.953125 
Q 26.375 6.390625 33.015625 6.390625 
Q 39.65625 6.390625 43.53125 10.953125 
Q 47.40625 15.53125 47.40625 23.390625 
Q 47.40625 31.296875 43.53125 35.828125 
Q 39.65625 40.375 33.015625 40.375 
z
M 52.59375 71.296875 
L 52.59375 62.3125 
Q 48.875 64.0625 45.09375 64.984375 
Q 41.3125 65.921875 37.59375 65.921875 
Q 27.828125 65.921875 22.671875 59.328125 
Q 17.53125 52.734375 16.796875 39.40625 
Q 19.671875 43.65625 24.015625 45.921875 
Q 28.375 48.1875 33.59375 48.1875 
Q 44.578125 48.1875 50.953125 41.515625 
Q 57.328125 34.859375 57.328125 23.390625 
Q 57.328125 12.15625 50.6875 5.359375 
Q 44.046875 -1.421875 33.015625 -1.421875 
Q 20.359375 -1.421875 13.671875 8.265625 
Q 6.984375 17.96875 6.984375 36.375 
Q 6.984375 53.65625 15.1875 63.9375 
Q 23.390625 74.21875 37.203125 74.21875 
Q 40.921875 74.21875 44.703125 73.484375 
Q 48.484375 72.75 52.59375 71.296875 
z
" id="DejaVuSans-54"/>
       <path d="M 72.703125 32.078125 
Q 68.453125 32.078125 66.03125 28.46875 
Q 63.625 24.859375 63.625 18.40625 
Q 63.625 12.0625 66.03125 8.421875 
Q 68.453125 4.78125 72.703125 4.78125 
Q 76.859375 4.78125 79.265625 8.421875 
Q 81.6875 12.0625 81.6875 18.40625 
Q 81.6875 24.8125 79.265625 28.4375 
Q 76.859375 32.078125 72.703125 32.078125 
z
M 72.703125 38.28125 
Q 80.421875 38.28125 84.953125 32.90625 
Q 89.5 27.546875 89.5 18.40625 
Q 89.5 9.28125 84.9375 3.921875 
Q 80.375 -1.421875 72.703125 -1.421875 
Q 64.890625 -1.421875 60.34375 3.921875 
Q 55.8125 9.28125 55.8125 18.40625 
Q 55.8125 27.59375 60.375 32.9375 
Q 64.9375 38.28125 72.703125 38.28125 
z
M 22.3125 68.015625 
Q 18.109375 68.015625 15.6875 64.375 
Q 13.28125 60.75 13.28125 54.390625 
Q 13.28125 47.953125 15.671875 44.328125 
Q 18.0625 40.71875 22.3125 40.71875 
Q 26.5625 40.71875 28.96875 44.328125 
Q 31.390625 47.953125 31.390625 54.390625 
Q 31.390625 60.6875 28.953125 64.34375 
Q 26.515625 68.015625 22.3125 68.015625 
z
M 66.40625 74.21875 
L 74.21875 74.21875 
L 28.609375 -1.421875 
L 20.796875 -1.421875 
z
M 22.3125 74.21875 
Q 30.03125 74.21875 34.609375 68.875 
Q 39.203125 63.53125 39.203125 54.390625 
Q 39.203125 45.171875 34.640625 39.84375 
Q 30.078125 34.515625 22.3125 34.515625 
Q 14.546875 34.515625 10.03125 39.859375 
Q 5.515625 45.21875 5.515625 54.390625 
Q 5.515625 63.484375 10.046875 68.84375 
Q 14.59375 74.21875 22.3125 74.21875 
z
" id="DejaVuSans-37"/>
      </defs>
      <use xlink:href="#DejaVuSans-49"/>
      <use x="63.623047" xlink:href="#DejaVuSans-115"/>
      <use x="115.722656" xlink:href="#DejaVuSans-116"/>
      <use x="154.931641" xlink:href="#DejaVuSans-32"/>
      <use x="186.71875" xlink:href="#DejaVuSans-80"/>
      <use x="247.021484" xlink:href="#DejaVuSans-67"/>
      <use x="316.845703" xlink:href="#DejaVuSans-58"/>
      <use x="350.537109" xlink:href="#DejaVuSans-32"/>
      <use x="382.324219" xlink:href="#DejaVuSans-56"/>
      <use x="445.947266" xlink:href="#DejaVuSans-53"/>
      <use x="509.570312" xlink:href="#DejaVuSans-46"/>
      <use x="541.357422" xlink:href="#DejaVuSans-54"/>
      <use x="604.980469" xlink:href="#DejaVuSans-54"/>
      <use x="668.603516" xlink:href="#DejaVuSans-32"/>
      <use x="700.390625" xlink:href="#DejaVuSans-37"/>
     </g>
    </g>
   </g>
   <g id="matplotlib.axis_2">
    <g id="ytick_1">
     <g id="line2d_7">
      <defs>
       <path d="M 0 0 
L -3.5 0 
" id="m2c2e836194" style="stroke:#000000;stroke-width:0.8;"/>
      </defs>
      <g>
       <use style="stroke:#000000;stroke-width:0.8;" x="49.665988" xlink:href="#m2c2e836194" y="277.111219"/>
      </g>
     </g>
     <g id="text_8">
      <!-- −5 -->
      <g transform="translate(27.9238 280.910437)scale(0.1 -0.1)">
       <use xlink:href="#DejaVuSans-8722"/>
       <use x="83.789062" xlink:href="#DejaVuSans-53"/>
      </g>
     </g>
    </g>
    <g id="ytick_2">
     <g id="line2d_8">
      <g>
       <use style="stroke:#000000;stroke-width:0.8;" x="49.665988" xlink:href="#m2c2e836194" y="223.888819"/>
      </g>
     </g>
     <g id="text_9">
      <!-- 0 -->
      <g transform="translate(36.303488 227.688037)scale(0.1 -0.1)">
       <use xlink:href="#DejaVuSans-48"/>
      </g>
     </g>
    </g>
    <g id="ytick_3">
     <g id="line2d_9">
      <g>
       <use style="stroke:#000000;stroke-width:0.8;" x="49.665988" xlink:href="#m2c2e836194" y="170.666419"/>
      </g>
     </g>
     <g id="text_10">
      <!-- 5 -->
      <g transform="translate(36.303488 174.465637)scale(0.1 -0.1)">
       <use xlink:href="#DejaVuSans-53"/>
      </g>
     </g>
    </g>
    <g id="ytick_4">
     <g id="line2d_10">
      <g>
       <use style="stroke:#000000;stroke-width:0.8;" x="49.665988" xlink:href="#m2c2e836194" y="117.444019"/>
      </g>
     </g>
     <g id="text_11">
      <!-- 10 -->
      <g transform="translate(29.940988 121.243237)scale(0.1 -0.1)">
       <use xlink:href="#DejaVuSans-49"/>
       <use x="63.623047" xlink:href="#DejaVuSans-48"/>
      </g>
     </g>
    </g>
    <g id="ytick_5">
     <g id="line2d_11">
      <g>
       <use style="stroke:#000000;stroke-width:0.8;" x="49.665988" xlink:href="#m2c2e836194" y="64.221619"/>
      </g>
     </g>
     <g id="text_12">
      <!-- 15 -->
      <g transform="translate(29.940988 68.020837)scale(0.1 -0.1)">
       <use xlink:href="#DejaVuSans-49"/>
       <use x="63.623047" xlink:href="#DejaVuSans-53"/>
      </g>
     </g>
    </g>
    <g id="ytick_6">
     <g id="line2d_12">
      <g>
       <use style="stroke:#000000;stroke-width:0.8;" x="49.665988" xlink:href="#m2c2e836194" y="10.999219"/>
      </g>
     </g>
     <g id="text_13">
      <!-- 20 -->
      <g transform="translate(29.940988 14.798437)scale(0.1 -0.1)">
       <use xlink:href="#DejaVuSans-50"/>
       <use x="63.623047" xlink:href="#DejaVuSans-48"/>
      </g>
     </g>
    </g>
    <g id="text_14">
     <!-- 2nd PC: 9.18 % -->
     <g transform="translate(20.3301 210.351019)rotate(-90)scale(0.1728 -0.1728)">
      <defs>
       <path d="M 54.890625 33.015625 
L 54.890625 0 
L 45.90625 0 
L 45.90625 32.71875 
Q 45.90625 40.484375 42.875 44.328125 
Q 39.84375 48.1875 33.796875 48.1875 
Q 26.515625 48.1875 22.3125 43.546875 
Q 18.109375 38.921875 18.109375 30.90625 
L 18.109375 0 
L 9.078125 0 
L 9.078125 54.6875 
L 18.109375 54.6875 
L 18.109375 46.1875 
Q 21.34375 51.125 25.703125 53.5625 
Q 30.078125 56 35.796875 56 
Q 45.21875 56 50.046875 50.171875 
Q 54.890625 44.34375 54.890625 33.015625 
z
" id="DejaVuSans-110"/>
       <path d="M 45.40625 46.390625 
L 45.40625 75.984375 
L 54.390625 75.984375 
L 54.390625 0 
L 45.40625 0 
L 45.40625 8.203125 
Q 42.578125 3.328125 38.25 0.953125 
Q 33.9375 -1.421875 27.875 -1.421875 
Q 17.96875 -1.421875 11.734375 6.484375 
Q 5.515625 14.40625 5.515625 27.296875 
Q 5.515625 40.1875 11.734375 48.09375 
Q 17.96875 56 27.875 56 
Q 33.9375 56 38.25 53.625 
Q 42.578125 51.265625 45.40625 46.390625 
z
M 14.796875 27.296875 
Q 14.796875 17.390625 18.875 11.75 
Q 22.953125 6.109375 30.078125 6.109375 
Q 37.203125 6.109375 41.296875 11.75 
Q 45.40625 17.390625 45.40625 27.296875 
Q 45.40625 37.203125 41.296875 42.84375 
Q 37.203125 48.484375 30.078125 48.484375 
Q 22.953125 48.484375 18.875 42.84375 
Q 14.796875 37.203125 14.796875 27.296875 
z
" id="DejaVuSans-100"/>
       <path d="M 10.984375 1.515625 
L 10.984375 10.5 
Q 14.703125 8.734375 18.5 7.8125 
Q 22.3125 6.890625 25.984375 6.890625 
Q 35.75 6.890625 40.890625 13.453125 
Q 46.046875 20.015625 46.78125 33.40625 
Q 43.953125 29.203125 39.59375 26.953125 
Q 35.25 24.703125 29.984375 24.703125 
Q 19.046875 24.703125 12.671875 31.3125 
Q 6.296875 37.9375 6.296875 49.421875 
Q 6.296875 60.640625 12.9375 67.421875 
Q 19.578125 74.21875 30.609375 74.21875 
Q 43.265625 74.21875 49.921875 64.515625 
Q 56.59375 54.828125 56.59375 36.375 
Q 56.59375 19.140625 48.40625 8.859375 
Q 40.234375 -1.421875 26.421875 -1.421875 
Q 22.703125 -1.421875 18.890625 -0.6875 
Q 15.09375 0.046875 10.984375 1.515625 
z
M 30.609375 32.421875 
Q 37.25 32.421875 41.125 36.953125 
Q 45.015625 41.5 45.015625 49.421875 
Q 45.015625 57.28125 41.125 61.84375 
Q 37.25 66.40625 30.609375 66.40625 
Q 23.96875 66.40625 20.09375 61.84375 
Q 16.21875 57.28125 16.21875 49.421875 
Q 16.21875 41.5 20.09375 36.953125 
Q 23.96875 32.421875 30.609375 32.421875 
z
" id="DejaVuSans-57"/>
      </defs>
      <use xlink:href="#DejaVuSans-50"/>
      <use x="63.623047" xlink:href="#DejaVuSans-110"/>
      <use x="127.001953" xlink:href="#DejaVuSans-100"/>
      <use x="190.478516" xlink:href="#DejaVuSans-32"/>
      <use x="222.265625" xlink:href="#DejaVuSans-80"/>
      <use x="282.568359" xlink:href="#DejaVuSans-67"/>
      <use x="352.392578" xlink:href="#DejaVuSans-58"/>
      <use x="386.083984" xlink:href="#DejaVuSans-32"/>
      <use x="417.871094" xlink:href="#DejaVuSans-57"/>
      <use x="481.494141" xlink:href="#DejaVuSans-46"/>
      <use x="513.28125" xlink:href="#DejaVuSans-49"/>
      <use x="576.904297" xlink:href="#DejaVuSans-56"/>
      <use x="640.527344" xlink:href="#DejaVuSans-32"/>
      <use x="672.314453" xlink:href="#DejaVuSans-37"/>
     </g>
    </g>
   </g>
   <g id="LineCollection_1"/>
   <g id="LineCollection_2"/>
   <g id="LineCollection_3"/>
   <g id="LineCollection_4"/>
   <g id="LineCollection_5"/>
   <g id="LineCollection_6">
    <path clip-path="url(#p2365d7eb02)" d="M 49.665988 118.215135 
L 51.778917 117.444019 
L 58.187521 115.001744 
L 66.709054 112.312193 
L 75.230587 110.095269 
L 82.043902 108.573619 
L 83.752121 108.191784 
L 92.273654 106.417026 
L 100.795187 104.876591 
L 109.31672 103.494457 
L 117.838254 102.224886 
L 125.904041 101.08668 
" style="fill:none;stroke:#39558c;stroke-width:1.5;"/>
    <path clip-path="url(#p2365d7eb02)" d="M 143.860805 98.676116 
L 151.924387 97.639701 
L 160.44592 96.576798 
L 168.967453 95.534731 
L 177.488987 94.525685 
L 186.01052 93.562505 
L 194.532053 92.660003 
L 203.053586 91.833692 
L 211.57512 91.108044 
L 215.503121 90.832819 
L 220.096653 90.559425 
L 228.618186 90.199567 
L 237.139719 90.029853 
L 245.661253 90.074643 
L 254.182786 90.35272 
L 262.133658 90.832819 
L 262.704319 90.873156 
L 271.225852 91.77971 
L 279.747386 92.948894 
L 288.268919 94.320751 
L 296.790452 95.865342 
L 305.311986 97.777768 
" style="fill:none;stroke:#39558c;stroke-width:1.5;"/>
    <path clip-path="url(#p2365d7eb02)" d="M 305.311986 121.911506 
L 301.914895 126.314419 
L 296.790452 130.406489 
L 291.676145 135.184819 
L 288.268919 136.736356 
L 279.747386 141.750631 
L 276.663171 144.055219 
L 271.225852 145.962017 
L 262.704319 150.770516 
L 259.747848 152.925619 
L 254.182786 155.246017 
L 253.045826 156.051652 
" style="fill:none;stroke:#39558c;stroke-width:1.5;"/>
    <path clip-path="url(#p2365d7eb02)" d="M 236.633639 166.409489 
L 231.444782 170.666419 
L 228.618186 172.355756 
L 220.096653 179.305701 
L 219.820147 179.536819 
L 211.57512 184.337665 
L 206.432972 188.407219 
L 203.053586 190.254298 
L 194.532053 196.253207 
L 193.107899 197.277619 
L 186.01052 200.766002 
L 178.556737 206.148019 
L 177.488987 206.693717 
L 168.967453 210.890111 
L 162.740673 215.018419 
L 160.44592 216.073267 
L 151.924387 219.902692 
L 145.052662 223.888819 
L 143.402853 224.513112 
L 134.88132 226.883497 
L 126.359787 229.209467 
L 117.838254 228.97658 
L 109.31672 225.891974 
L 100.795187 226.212347 
L 92.273654 227.248244 
L 83.752121 228.798419 
L 75.230587 230.748559 
L 67.89444 232.759219 
L 66.709054 233.077008 
L 58.187521 235.507086 
L 49.665988 238.125722 
" style="fill:none;stroke:#39558c;stroke-width:1.5;"/>
   </g>
   <g id="LineCollection_7">
    <path clip-path="url(#p2365d7eb02)" d="M 305.311986 130.480093 
L 300.343966 135.184819 
L 296.790452 137.242639 
L 288.268919 143.297543 
L 287.229054 144.055219 
L 279.747386 146.883977 
L 271.225852 152.356295 
L 270.397712 152.925619 
L 262.704319 156.092426 
L 254.625043 161.796019 
L 254.182786 162.011464 
L 245.661253 166.496621 
L 240.307344 170.666419 
L 237.139719 172.478174 
L 228.618186 179.243405 
L 228.264437 179.536819 
L 220.096653 184.496305 
L 215.240638 188.407219 
L 211.57512 190.523909 
L 203.053586 197.034648 
L 202.735252 197.277619 
L 194.532053 201.717164 
L 188.639705 206.148019 
L 186.01052 207.581316 
L 177.488987 213.163848 
L 174.948034 215.018419 
L 168.967453 218.154231 
L 161.152944 223.888819 
L 160.44592 224.263663 
L 151.924387 228.601598 
L 145.90992 232.759219 
L 143.402853 233.876582 
L 134.88132 238.216882 
L 129.703002 241.629619 
L 126.359787 242.808472 
L 117.838254 246.548593 
L 117.679371 246.649385 
" style="fill:none;stroke:#33638d;stroke-width:1.5;"/>
    <path clip-path="url(#p2365d7eb02)" d="M 100.578834 254.348877 
L 92.283124 259.370419 
L 92.273654 259.373285 
L 83.752121 261.612842 
L 75.230587 265.316829 
L 69.973653 268.240819 
L 66.709054 269.144146 
L 58.187521 271.700015 
L 49.665988 275.615575 
" style="fill:none;stroke:#33638d;stroke-width:1.5;"/>
    <path clip-path="url(#p2365d7eb02)" d="M 67.058587 10.999219 
L 75.230587 13.699351 
L 83.752121 16.377022 
L 92.273654 18.901737 
L 95.613211 19.869619 
L 100.795187 21.706631 
L 109.31672 24.60162 
L 117.838254 27.290544 
L 122.653109 28.740019 
L 126.359787 30.069731 
L 134.88132 32.99716 
L 141.189861 34.984054 
" style="fill:none;stroke:#33638d;stroke-width:1.5;"/>
    <path clip-path="url(#p2365d7eb02)" d="M 158.796766 40.463165 
L 160.44592 40.993527 
L 168.967453 43.471619 
L 177.488987 45.706174 
L 180.629187 46.480819 
L 186.01052 47.93251 
L 194.532053 50.052188 
L 203.053586 51.962273 
L 211.57512 53.695376 
L 220.096653 55.289714 
L 220.42842 55.351219 
L 228.618186 56.920555 
L 237.139719 58.467008 
L 245.661253 59.964884 
L 254.182786 61.467224 
L 262.704319 63.017511 
L 268.875527 64.221619 
L 271.225852 64.696559 
L 279.747386 66.628168 
L 288.268919 68.708434 
L 296.790452 70.933723 
L 304.483398 73.092019 
L 305.311986 73.333388 
" style="fill:none;stroke:#33638d;stroke-width:1.5;"/>
   </g>
   <g id="LineCollection_8">
    <path clip-path="url(#p2365d7eb02)" d="M 305.311986 135.338317 
L 296.790452 140.432805 
L 292.000316 144.055219 
L 288.268919 145.687494 
L 279.747386 150.288636 
L 275.831532 152.925619 
L 271.225852 154.850423 
L 262.704319 159.921025 
L 260.048345 161.796019 
L 254.182786 164.653422 
L 246.17176 170.666419 
L 245.661253 170.946983 
L 245.427374 171.08731 
" style="fill:none;stroke:#2d718e;stroke-width:1.5;"/>
    <path clip-path="url(#p2365d7eb02)" d="M 229.120162 181.778117 
L 228.618186 182.079804 
L 220.830147 188.407219 
L 220.096653 188.849299 
L 211.57512 194.139184 
L 207.537734 197.277619 
L 203.053586 199.822056 
L 194.801874 206.148019 
L 194.532053 206.301035 
L 186.01052 211.066714 
L 180.779975 215.018419 
L 177.488987 216.845712 
L 168.967453 222.802305 
L 167.486863 223.888819 
L 160.44592 227.621731 
L 153.386095 232.759219 
L 151.924387 233.449648 
L 143.402853 237.799882 
L 137.885027 241.629619 
L 134.88132 242.752861 
L 126.359787 246.704891 
L 120.596862 250.500019 
L 117.838254 251.490552 
L 109.31672 255.011695 
L 102.365212 259.370419 
L 100.795187 259.888777 
L 92.273654 262.860236 
L 83.752121 267.905854 
L 83.190258 268.240819 
L 75.230587 270.735838 
L 66.709054 275.058638 
L 63.262708 277.111219 
" style="fill:none;stroke:#2d718e;stroke-width:1.5;"/>
    <path clip-path="url(#p2365d7eb02)" d="M 149.98679 10.999219 
L 151.924387 11.63332 
L 160.44592 14.34574 
L 168.967453 16.84433 
L 177.488987 19.147105 
L 180.268662 19.869619 
L 186.01052 21.683643 
L 194.532053 24.209877 
L 203.053586 26.528999 
L 211.57512 28.659061 
L 211.907002 28.740019 
L 219.759358 30.997884 
" style="fill:none;stroke:#2d718e;stroke-width:1.5;"/>
    <path clip-path="url(#p2365d7eb02)" d="M 237.498292 35.575825 
L 245.661253 37.502784 
L 246.110555 37.610419 
L 254.182786 39.810297 
L 262.704319 42.092872 
L 271.225852 44.381706 
L 278.798211 46.480819 
L 279.747386 46.762459 
L 288.268919 49.533962 
L 296.790452 52.483963 
L 304.418428 55.351219 
L 305.311986 55.69014 
" style="fill:none;stroke:#2d718e;stroke-width:1.5;"/>
   </g>
   <g id="LineCollection_9">
    <path clip-path="url(#p2365d7eb02)" d="M 305.311986 136.901737 
L 296.790452 143.622971 
L 296.218865 144.055219 
L 288.268919 147.532871 
L 280.35779 152.925619 
L 279.747386 153.192318 
L 271.225852 156.963356 
L 264.258682 161.796019 
L 262.704319 162.544267 
L 254.182786 167.29538 
L 249.691601 170.666419 
L 245.661253 172.881414 
L 245.068449 173.348336 
" style="fill:none;stroke:#287d8e;stroke-width:1.5;"/>
    <path clip-path="url(#p2365d7eb02)" d="M 228.93471 184.544389 
L 228.618186 184.73594 
L 224.099428 188.407219 
L 220.096653 190.81971 
L 211.904789 197.277619 
L 211.57512 197.473613 
L 203.053586 202.46106 
L 198.244244 206.148019 
L 194.532053 208.253216 
L 186.01052 214.552113 
L 185.393309 215.018419 
L 177.488987 219.407227 
L 171.562849 223.888819 
L 168.967453 225.365128 
L 160.44592 230.979798 
L 158.000679 232.759219 
L 151.924387 235.62932 
L 143.476041 241.629619 
L 143.402853 241.658178 
L 134.88132 244.866674 
L 126.442106 250.500019 
L 126.359787 250.532371 
L 117.838254 253.615072 
L 109.31672 258.782516 
L 108.379104 259.370419 
L 100.795187 261.874317 
L 92.273654 266.347187 
L 89.167454 268.240819 
L 83.752121 270.04807 
L 75.230587 274.044622 
L 70.231229 277.111219 
" style="fill:none;stroke:#287d8e;stroke-width:1.5;"/>
    <path clip-path="url(#p2365d7eb02)" d="M 203.222908 10.999219 
L 211.57512 13.421142 
L 220.096653 15.699277 
L 228.618186 17.80486 
L 237.139719 19.763357 
L 237.61035 19.869619 
L 245.661253 22.077698 
L 253.827925 24.206023 
" style="fill:none;stroke:#287d8e;stroke-width:1.5;"/>
    <path clip-path="url(#p2365d7eb02)" d="M 271.583205 28.661708 
L 271.878475 28.740019 
L 279.747386 31.212788 
L 288.268919 34.000349 
L 296.790452 36.944721 
L 298.497507 37.610419 
L 305.311986 40.563979 
" style="fill:none;stroke:#287d8e;stroke-width:1.5;"/>
   </g>
   <g id="LineCollection_10">
    <path clip-path="url(#p2365d7eb02)" d="M 305.311986 138.465158 
L 298.449654 144.055219 
L 296.790452 144.928987 
L 288.268919 149.378248 
L 283.064947 152.925619 
L 279.747386 154.375137 
L 271.225852 159.076288 
L 267.304862 161.796019 
L 262.704319 164.010654 
L 254.182786 169.937338 
L 253.211442 170.666419 
L 247.651664 173.721957 
" style="fill:none;stroke:#238a8d;stroke-width:1.5;"/>
    <path clip-path="url(#p2365d7eb02)" d="M 231.604739 185.158697 
L 228.618186 187.392077 
L 227.368708 188.407219 
L 220.096653 192.79012 
L 214.404257 197.277619 
L 211.57512 198.959592 
L 203.053586 205.100064 
L 201.686614 206.148019 
L 194.532053 210.205396 
L 188.22606 215.018419 
L 186.01052 216.302436 
L 177.488987 221.968743 
L 174.950014 223.888819 
L 168.967453 227.291812 
L 161.65699 232.759219 
L 160.44592 233.353399 
L 151.924387 237.808993 
L 146.544993 241.629619 
L 143.402853 242.855729 
L 134.88132 246.980487 
L 129.608772 250.500019 
L 126.359787 251.776911 
L 117.838254 255.739592 
L 112.13406 259.370419 
L 109.31672 260.355564 
L 100.795187 263.859856 
L 93.735639 268.240819 
L 92.273654 268.754731 
L 83.752121 271.956926 
L 75.455487 277.111219 
" style="fill:none;stroke:#238a8d;stroke-width:1.5;"/>
    <path clip-path="url(#p2365d7eb02)" d="M 246.209883 10.999219 
L 254.182786 13.090187 
L 262.704319 15.243077 
L 270.866731 17.264169 
" style="fill:none;stroke:#238a8d;stroke-width:1.5;"/>
    <path clip-path="url(#p2365d7eb02)" d="M 288.543485 22.250139 
L 296.790452 25.118959 
L 305.311986 28.286764 
" style="fill:none;stroke:#238a8d;stroke-width:1.5;"/>
   </g>
   <g id="LineCollection_11">
    <path clip-path="url(#p2365d7eb02)" d="M 305.311986 140.028579 
L 300.368901 144.055219 
L 296.790452 145.9397 
L 288.268919 151.223625 
L 285.772104 152.925619 
L 279.747386 155.557956 
L 271.225852 161.18922 
L 270.351041 161.796019 
L 262.704319 165.477041 
L 255.630128 170.666419 
L 254.182786 171.447153 
L 250.190498 173.931636 
" style="fill:none;stroke:#1f968b;stroke-width:1.5;"/>
    <path clip-path="url(#p2365d7eb02)" d="M 234.005421 184.974927 
L 229.7275 188.407219 
L 228.618186 189.086046 
L 220.096653 194.760531 
L 216.903724 197.277619 
L 211.57512 200.44557 
L 204.210602 206.148019 
L 203.053586 206.833298 
L 194.532053 212.157577 
L 190.783795 215.018419 
L 186.01052 217.784772 
L 177.977489 223.888819 
L 177.488987 224.180296 
L 168.967453 229.218495 
L 164.233156 232.759219 
L 160.44592 234.617328 
L 151.924387 239.988665 
L 149.613944 241.629619 
L 143.402853 244.05328 
L 134.88132 249.0943 
L 132.775437 250.500019 
L 126.359787 253.021452 
L 117.838254 257.864113 
L 115.471778 259.370419 
L 109.31672 261.52267 
L 100.795187 265.845396 
L 96.935168 268.240819 
L 92.273654 269.879419 
L 83.752121 273.865782 
L 78.528087 277.111219 
" style="fill:none;stroke:#1f968b;stroke-width:1.5;"/>
    <path clip-path="url(#p2365d7eb02)" d="M 280.940618 10.999219 
L 288.007851 13.184712 
" style="fill:none;stroke:#1f968b;stroke-width:1.5;"/>
   </g>
   <g id="LineCollection_12">
    <path clip-path="url(#p2365d7eb02)" d="M 305.311986 141.591999 
L 302.288149 144.055219 
L 296.790452 146.950413 
L 288.379463 152.925619 
L 288.268919 152.977972 
L 279.747386 156.740774 
L 272.443948 161.796019 
L 271.225852 162.387571 
L 262.704319 166.943428 
L 257.629116 170.666419 
L 254.182786 172.52546 
L 252.569165 173.691763 
" style="fill:none;stroke:#20a386;stroke-width:1.5;"/>
    <path clip-path="url(#p2365d7eb02)" d="M 236.315238 184.562317 
L 231.523051 188.407219 
L 228.618186 190.184804 
L 220.096653 196.730941 
L 219.403192 197.277619 
L 211.57512 201.931549 
L 206.129692 206.148019 
L 203.053586 207.96994 
L 194.532053 214.109757 
L 193.34153 215.018419 
L 186.01052 219.267108 
L 179.928269 223.888819 
L 177.488987 225.34428 
L 168.967453 231.145178 
L 166.809321 232.759219 
L 160.44592 235.881256 
L 152.363609 241.629619 
L 151.924387 241.805433 
L 143.402853 245.250832 
L 135.486328 250.500019 
L 134.88132 250.749684 
L 126.359787 254.265992 
L 118.402787 259.370419 
L 117.838254 259.577954 
L 109.31672 262.689777 
L 100.795187 267.830936 
L 100.134697 268.240819 
L 92.273654 271.004107 
L 83.752121 275.774638 
L 81.600687 277.111219 
" style="fill:none;stroke:#20a386;stroke-width:1.5;"/>
    <path clip-path="url(#p2365d7eb02)" d="M 303.359627 10.999219 
L 305.311986 11.765212 
" style="fill:none;stroke:#20a386;stroke-width:1.5;"/>
   </g>
   <g id="LineCollection_13">
    <path clip-path="url(#p2365d7eb02)" d="M 305.311986 143.15542 
L 304.207396 144.055219 
L 296.790452 147.961127 
L 289.802192 152.925619 
L 288.268919 153.65177 
L 279.747386 157.923593 
L 274.152796 161.796019 
L 271.225852 163.217451 
L 262.704319 168.409815 
L 259.628104 170.666419 
L 254.182786 173.603766 
L 253.607978 174.044668 
" style="fill:none;stroke:#29af7f;stroke-width:1.5;"/>
    <path clip-path="url(#p2365d7eb02)" d="M 237.434188 185.156557 
L 237.139719 185.341433 
L 233.318602 188.407219 
L 228.618186 191.283562 
L 221.093324 197.277619 
L 220.096653 197.891954 
L 211.57512 203.417527 
L 208.048783 206.148019 
L 203.053586 209.106582 
L 195.326222 215.018419 
L 194.532053 215.497919 
L 186.01052 220.749444 
L 181.879049 223.888819 
L 177.488987 226.508263 
L 169.217388 232.759219 
L 168.967453 232.885019 
L 160.44592 237.145185 
L 154.140717 241.629619 
L 151.924387 242.516781 
L 143.402853 246.448383 
L 137.292407 250.500019 
L 134.88132 251.494989 
L 126.359787 255.510532 
L 120.342829 259.370419 
L 117.838254 260.291158 
L 109.31672 263.856884 
L 102.281492 268.240819 
L 100.795187 268.783683 
L 92.273654 272.128795 
L 84.292256 277.111219 
" style="fill:none;stroke:#29af7f;stroke-width:1.5;"/>
   </g>
   <g id="LineCollection_14">
    <path clip-path="url(#p2365d7eb02)" d="M 305.311986 144.293245 
L 296.790452 148.97184 
L 291.224921 152.925619 
L 288.268919 154.325567 
L 279.747386 159.106411 
L 275.861643 161.796019 
L 271.225852 164.047331 
L 262.704319 169.876202 
L 261.627092 170.666419 
L 254.182786 174.682073 
L 247.853602 179.536819 
L 245.661253 180.803822 
L 245.200128 181.127321 
" style="fill:none;stroke:#3dbc74;stroke-width:1.5;"/>
    <path clip-path="url(#p2365d7eb02)" d="M 228.991918 192.153621 
L 228.618186 192.382321 
L 222.472691 197.277619 
L 220.096653 198.742179 
L 211.57512 204.903506 
L 209.967873 206.148019 
L 203.053586 210.243225 
L 196.811928 215.018419 
L 194.532053 216.394951 
L 186.01052 222.23178 
L 183.829828 223.888819 
L 177.488987 227.672246 
L 170.757633 232.759219 
L 168.967453 233.660275 
L 160.44592 238.409113 
L 155.917826 241.629619 
L 151.924387 243.22813 
L 143.402853 247.645934 
L 139.098486 250.500019 
L 134.88132 252.240295 
L 126.359787 256.755072 
L 122.282872 259.370419 
L 117.838254 261.004361 
L 109.31672 265.02399 
L 104.154435 268.240819 
L 100.795187 269.467764 
L 92.273654 273.253483 
L 86.093906 277.111219 
" style="fill:none;stroke:#3dbc74;stroke-width:1.5;"/>
   </g>
   <g id="LineCollection_15">
    <path clip-path="url(#p2365d7eb02)" d="M 305.311986 144.85401 
L 296.790452 149.982553 
L 292.64765 152.925619 
L 288.268919 154.999365 
L 279.747386 160.28923 
L 277.570491 161.796019 
L 271.225852 164.87721 
L 263.232671 170.666419 
L 262.704319 170.951215 
L 254.182786 175.76038 
L 249.259402 179.536819 
L 245.661253 181.616262 
L 245.026362 182.108468 
" style="fill:none;stroke:#56c667;stroke-width:1.5;"/>
    <path clip-path="url(#p2365d7eb02)" d="M 228.890829 193.31424 
L 228.618186 193.481079 
L 223.852059 197.277619 
L 220.096653 199.592403 
L 211.751002 206.148019 
L 211.57512 206.258075 
L 203.053586 211.379867 
L 198.297634 215.018419 
L 194.532053 217.291984 
L 186.01052 223.714116 
L 185.780608 223.888819 
L 177.488987 228.83623 
L 172.297878 232.759219 
L 168.967453 234.43553 
L 160.44592 239.673042 
L 157.694935 241.629619 
L 151.924387 243.939479 
L 143.402853 248.843486 
L 140.904565 250.500019 
L 134.88132 252.9856 
L 126.359787 257.999612 
L 124.222914 259.370419 
L 117.838254 261.717565 
L 109.31672 266.191097 
L 106.027378 268.240819 
L 100.795187 270.151845 
L 92.273654 274.378171 
L 87.895556 277.111219 
" style="fill:none;stroke:#56c667;stroke-width:1.5;"/>
   </g>
   <g id="LineCollection_16">
    <path clip-path="url(#p2365d7eb02)" d="M 305.311986 145.414776 
L 296.790452 150.993267 
L 294.07038 152.925619 
L 288.268919 155.673163 
L 279.747386 161.472049 
L 279.279338 161.796019 
L 271.225852 165.70709 
L 264.378489 170.666419 
L 262.704319 171.568842 
L 254.182786 176.838686 
L 250.665202 179.536819 
L 245.921091 182.278537 
" style="fill:none;stroke:#75d054;stroke-width:1.5;"/>
    <path clip-path="url(#p2365d7eb02)" d="M 229.874411 193.750708 
L 228.618186 194.579838 
L 225.231426 197.277619 
L 220.096653 200.442628 
L 212.833384 206.148019 
L 211.57512 206.935359 
L 203.053586 212.516509 
L 199.783339 215.018419 
L 194.532053 218.189017 
L 187.049354 223.888819 
L 186.01052 224.535596 
L 177.488987 230.000213 
L 173.838123 232.759219 
L 168.967453 235.210785 
L 160.44592 240.936971 
L 159.472043 241.629619 
L 151.924387 244.650827 
L 143.402853 250.041037 
L 142.710643 250.500019 
L 134.88132 253.730905 
L 126.359787 259.244152 
L 126.162957 259.370419 
L 117.838254 262.430769 
L 109.31672 267.358203 
L 107.900322 268.240819 
L 100.795187 270.835926 
L 92.273654 275.50286 
L 89.697206 277.111219 
" style="fill:none;stroke:#75d054;stroke-width:1.5;"/>
   </g>
   <g id="LineCollection_17">
    <path clip-path="url(#p2365d7eb02)" d="M 305.311986 145.975541 
L 296.790452 152.00398 
L 295.493109 152.925619 
L 288.268919 156.346961 
L 280.449461 161.796019 
L 279.747386 162.144971 
L 271.225852 166.53697 
L 265.524307 170.666419 
L 262.704319 172.18647 
L 254.182786 177.916993 
L 252.071002 179.536819 
L 247.018407 182.456816 
" style="fill:none;stroke:#95d840;stroke-width:1.5;"/>
    <path clip-path="url(#p2365d7eb02)" d="M 230.992072 193.980876 
L 228.618186 195.678596 
L 226.610794 197.277619 
L 220.096653 201.292852 
L 213.915765 206.148019 
L 211.57512 207.612644 
L 203.053586 213.653152 
L 201.269045 215.018419 
L 194.532053 219.08605 
L 188.226978 223.888819 
L 186.01052 225.268784 
L 177.488987 231.164197 
L 175.378368 232.759219 
L 168.967453 235.986041 
L 160.944086 241.629619 
L 160.44592 241.829018 
L 151.924387 245.362176 
L 144.07325 250.500019 
L 143.402853 250.779586 
L 134.88132 254.47621 
L 127.385467 259.370419 
L 126.359787 259.772625 
L 117.838254 263.143972 
L 109.597795 268.240819 
L 109.31672 268.344937 
L 100.795187 271.520007 
L 92.273654 276.627548 
L 91.498856 277.111219 
" style="fill:none;stroke:#95d840;stroke-width:1.5;"/>
   </g>
   <g id="LineCollection_18">
    <path clip-path="url(#p2365d7eb02)" d="M 305.311986 146.536306 
L 296.855859 152.925619 
L 296.790452 152.960005 
L 288.268919 157.020759 
L 281.416368 161.796019 
L 279.747386 162.625553 
L 271.225852 167.36685 
L 266.670126 170.666419 
L 262.704319 172.804097 
L 254.182786 178.995299 
L 253.476801 179.536819 
L 248.115722 182.635095 
" style="fill:none;stroke:#bade28;stroke-width:1.5;"/>
    <path clip-path="url(#p2365d7eb02)" d="M 232.080453 194.110326 
L 228.618186 196.777355 
L 227.990161 197.277619 
L 220.096653 202.143077 
L 214.998147 206.148019 
L 211.57512 208.289928 
L 203.053586 214.789794 
L 202.754751 215.018419 
L 194.532053 219.983082 
L 189.404603 223.888819 
L 186.01052 226.001972 
L 177.488987 232.32818 
L 176.918613 232.759219 
L 168.967453 236.761296 
L 162.046252 241.629619 
L 160.44592 242.270179 
L 151.924387 246.073525 
L 145.160262 250.500019 
L 143.402853 251.232889 
L 134.88132 255.221516 
L 128.526959 259.370419 
L 126.359787 260.220245 
L 117.838254 263.857176 
L 110.750886 268.240819 
L 109.31672 268.772073 
L 100.795187 272.204088 
L 92.90089 277.111219 
" style="fill:none;stroke:#bade28;stroke-width:1.5;"/>
   </g>
   <g id="LineCollection_19">
    <path clip-path="url(#p2365d7eb02)" d="M 305.311986 147.097071 
L 297.59802 152.925619 
L 296.790452 153.350185 
L 288.268919 157.694557 
L 282.383275 161.796019 
L 279.747386 163.106134 
L 271.225852 168.19673 
L 267.815944 170.666419 
L 262.704319 173.421724 
L 254.590726 179.536819 
L 254.182786 179.771891 
L 249.195018 182.753555 
" style="fill:none;stroke:#dde318;stroke-width:1.5;"/>
    <path clip-path="url(#p2365d7eb02)" d="M 233.100157 194.055078 
L 229.048795 197.277619 
L 228.618186 197.548567 
L 220.096653 202.993302 
L 216.080528 206.148019 
L 211.57512 208.967213 
L 203.752985 215.018419 
L 203.053586 215.465074 
L 194.532053 220.880115 
L 190.582227 223.888819 
L 186.01052 226.73516 
L 178.09558 232.759219 
L 177.488987 233.067335 
L 168.967453 237.536552 
L 163.148418 241.629619 
L 160.44592 242.711339 
L 151.924387 246.784874 
L 146.247274 250.500019 
L 143.402853 251.686192 
L 134.88132 255.966821 
L 129.66845 259.370419 
L 126.359787 260.667865 
L 117.838254 264.57038 
L 111.903976 268.240819 
L 109.31672 269.19921 
L 100.795187 272.88817 
L 94.001399 277.111219 
" style="fill:none;stroke:#dde318;stroke-width:1.5;"/>
   </g>
   <g id="LineCollection_20">
    <path clip-path="url(#p2365d7eb02)" d="M 305.311986 147.657836 
L 298.340182 152.925619 
L 296.790452 153.740364 
L 288.268919 158.368355 
L 283.350183 161.796019 
L 279.747386 163.586716 
L 271.225852 169.026609 
L 268.961762 170.666419 
L 262.704319 174.039351 
L 255.410202 179.536819 
L 254.182786 180.244109 
L 250.238132 182.759695 
" style="fill:none;stroke:#fde725;stroke-width:1.5;"/>
    <path clip-path="url(#p2365d7eb02)" d="M 234.081229 193.903527 
L 229.839338 197.277619 
L 228.618186 198.045994 
L 220.096653 203.843526 
L 217.16291 206.148019 
L 211.57512 209.644497 
L 204.628482 215.018419 
L 203.053586 216.02419 
L 194.532053 221.777148 
L 191.759852 223.888819 
L 186.01052 227.468348 
L 179.058907 232.759219 
L 177.488987 233.556653 
L 168.967453 238.311807 
L 164.250584 241.629619 
L 160.44592 243.1525 
L 151.924387 247.496222 
L 147.334286 250.500019 
L 143.402853 252.139494 
L 134.88132 256.712126 
L 130.809942 259.370419 
L 126.359787 261.115486 
L 117.838254 265.283583 
L 113.057067 268.240819 
L 109.31672 269.626347 
L 100.795187 273.572251 
L 95.101907 277.111219 
" style="fill:none;stroke:#fde725;stroke-width:1.5;"/>
   </g>
   <g id="LineCollection_21">
    <path clip-path="url(#p2365d7eb02)" d="M 305.311986 148.218601 
L 299.082343 152.925619 
L 296.790452 154.130544 
L 288.268919 159.042152 
L 284.31709 161.796019 
L 279.747386 164.067298 
L 271.225852 169.856489 
L 270.10758 170.666419 
L 262.704319 174.656979 
L 256.229679 179.536819 
L 254.182786 180.716326 
L 245.661253 186.490904 
L 243.219166 188.407219 
L 239.723221 190.530471 
" style="fill:none;stroke:#440154;stroke-width:1.5;"/>
    <path clip-path="url(#p2365d7eb02)" d="M 221.420182 203.738507 
L 220.096653 204.693751 
L 218.245291 206.148019 
L 211.57512 210.321782 
L 205.503978 215.018419 
L 203.053586 216.583307 
L 194.532053 222.674181 
L 192.937476 223.888819 
L 186.01052 228.201536 
L 180.022234 232.759219 
L 177.488987 234.045971 
L 168.967453 239.087063 
L 165.35275 241.629619 
L 160.44592 243.59366 
L 151.924387 248.207571 
L 148.421298 250.500019 
L 143.402853 252.592797 
L 134.88132 257.457431 
L 131.951434 259.370419 
L 126.359787 261.563106 
L 117.838254 265.996787 
L 114.210157 268.240819 
L 109.31672 270.053484 
L 100.795187 274.256332 
L 96.202416 277.111219 
" style="fill:none;stroke:#440154;stroke-width:1.5;"/>
   </g>
   <g id="LineCollection_22">
    <path clip-path="url(#p2365d7eb02)" d="M 305.311986 172.157988 
L 296.790452 177.680404 
L 294.369776 179.536819 
L 288.268919 182.45048 
L 280.386247 188.407219 
L 279.747386 188.734304 
L 271.225852 193.323445 
L 266.100111 197.277619 
L 262.704319 199.161842 
L 254.182786 205.575632 
L 253.473184 206.148019 
L 245.661253 210.977341 
L 240.757355 215.018419 
L 238.740812 216.284656 
" style="fill:none;stroke:#440154;stroke-width:1.5;"/>
    <path clip-path="url(#p2365d7eb02)" d="M 218.117794 230.995324 
L 215.934769 232.759219 
L 211.57512 235.381822 
L 204.073626 241.629619 
L 203.053586 242.290368 
L 194.532053 248.562045 
L 191.970401 250.500019 
L 186.01052 253.83586 
L 177.488987 259.10528 
L 177.067147 259.370419 
L 168.967453 262.691225 
L 160.44592 268.217531 
L 160.410266 268.240819 
L 151.924387 271.868848 
L 143.464409 277.111219 
" style="fill:none;stroke:#440154;stroke-width:1.5;"/>
   </g>
   <g id="LineCollection_23">
    <path clip-path="url(#p2365d7eb02)" d="M 305.311986 192.78373 
L 299.234511 197.277619 
L 296.790452 198.613223 
L 288.268919 204.308046 
L 285.85514 206.148019 
L 279.747386 209.722267 
L 273.019494 215.018419 
L 271.225852 216.095746 
L 262.704319 222.098416 
L 260.473432 223.888819 
L 257.18073 225.78717 
" style="fill:none;stroke:#440154;stroke-width:1.5;"/>
    <path clip-path="url(#p2365d7eb02)" d="M 234.117058 241.752438 
L 228.618186 244.947432 
L 221.700189 250.500019 
L 220.096653 251.515963 
L 211.57512 258.069928 
L 210.073549 259.370419 
L 203.053586 264.561353 
L 198.979718 268.240819 
L 194.532053 271.627063 
L 186.914147 277.111219 
" style="fill:none;stroke:#440154;stroke-width:1.5;"/>
   </g>
   <g id="LineCollection_24">
    <path clip-path="url(#p2365d7eb02)" d="M 305.311986 216.336904 
L 296.790452 222.394403 
L 294.889889 223.888819 
L 288.268919 227.711054 
L 281.744355 232.759219 
L 279.747386 233.859368 
L 271.225852 239.336559 
L 268.192823 241.629619 
L 267.601986 241.946389 
" style="fill:none;stroke:#440154;stroke-width:1.5;"/>
    <path clip-path="url(#p2365d7eb02)" d="M 242.026904 258.87961 
L 241.405186 259.370419 
L 237.139719 262.010115 
L 229.572462 268.240819 
L 228.618186 268.875091 
L 220.096653 275.234961 
L 217.93074 277.111219 
" style="fill:none;stroke:#440154;stroke-width:1.5;"/>
   </g>
   <g id="LineCollection_25">
    <path clip-path="url(#p2365d7eb02)" d="M 305.311986 240.438518 
L 303.759498 241.629619 
L 296.790452 245.490539 
L 290.463393 250.255446 
" style="fill:none;stroke:#440154;stroke-width:1.5;"/>
    <path clip-path="url(#p2365d7eb02)" d="M 262.577437 268.807357 
L 254.182786 274.266197 
L 250.645889 277.111219 
" style="fill:none;stroke:#440154;stroke-width:1.5;"/>
   </g>
   <g id="LineCollection_26">
    <path clip-path="url(#p2365d7eb02)" d="M 305.311986 263.800585 
L 299.529794 268.240819 
L 296.790452 269.868371 
L 288.268919 275.960566 
L 286.776767 277.111219 
" style="fill:none;stroke:#450457;stroke-width:1.5;"/>
   </g>
   <g id="LineCollection_27"/>
   <g id="LineCollection_28"/>
   <g id="line2d_13">
    <path clip-path="url(#p2365d7eb02)" d="M 389.780273 71.998683 
L 383.970179 121.735875 
L 377.909723 162.706843 
L 372.383684 190.599321 
L 367.203089 209.526326 
L 362.237407 222.468904 
L 357.401403 231.503827 
L 352.679353 237.811995 
L 347.982781 242.304943 
L 343.320901 245.516984 
L 338.666189 247.852431 
L 333.959548 249.631001 
L 329.184641 251.066744 
L 324.339568 252.249858 
L 319.450172 253.177927 
L 314.558422 253.915251 
L 309.566787 254.552642 
L 304.551088 255.087345 
L 299.515374 255.510081 
L 294.485839 255.801215 
L 289.419454 255.991556 
L 284.330163 256.070878 
L 279.133185 256.085154 
L 273.845707 256.016571 
L 268.474422 255.813034 
L 263.071491 255.534125 
L 257.687662 255.177987 
L 252.243211 254.787713 
L 246.816412 254.318212 
L 241.300819 253.748144 
L 235.76732 253.084963 
L 230.190862 252.326448 
L 224.612661 251.480628 
L 218.996731 250.584871 
L 213.355446 249.602564 
L 207.588975 248.506075 
L 201.74178 247.343345 
L 195.85938 246.0621 
L 189.945499 244.639608 
L 184.074057 243.215509 
L 178.234798 241.778413 
L 172.375182 240.248209 
L 166.460977 238.605897 
L 160.561822 236.949912 
L 154.730584 235.295166 
L 148.73473 233.429095 
L 142.559766 231.330912 
L 136.547291 229.376857 
L 130.769675 227.625858 
L 125.36594 226.065263 
L 124.866172 225.930111 
L 124.393602 225.821195 
L 123.938088 225.73051 
L 123.489237 225.650578 
L 123.045517 225.575305 
L 122.607944 225.500573 
L 122.168228 225.428389 
L 121.72512 225.351635 
L 121.288427 225.271254 
L 120.851185 225.189647 
L 120.416322 225.109876 
L 119.985264 225.032138 
L 119.554178 224.952747 
L 119.123004 224.871805 
L 118.693828 224.79285 
L 118.273004 224.713913 
L 117.855741 224.641057 
L 117.437305 224.570001 
L 117.020952 224.497231 
L 116.605038 224.416201 
L 116.188255 224.332008 
L 115.775432 224.249656 
L 115.37126 224.171878 
L 114.970752 224.103949 
L 114.569894 224.038597 
L 114.529601 224.032129 
L 114.489592 224.025947 
L 114.449206 224.019683 
L 114.408597 224.013772 
L 114.368486 224.008276 
L 114.329244 224.002992 
L 114.290361 223.997295 
L 114.251252 223.99155 
L 114.211807 223.985911 
L 114.172216 223.980398 
L 114.132515 223.975056 
L 114.09331 223.969828 
L 114.054362 223.96416 
L 114.015313 223.958306 
L 113.976185 223.952665 
L 113.936386 223.946799 
L 113.896563 223.940613 
L 113.856656 223.934343 
L 113.816696 223.928272 
L 113.777577 223.921953 
L 113.738048 223.91534 
L 113.698036 223.908504 
L 113.658007 223.901575 
L 113.61748 223.895072 
" style="fill:none;stroke:#1f77b4;stroke-linecap:square;stroke-width:1.5;"/>
    <defs>
     <path d="M 0 1.5 
C 0.397805 1.5 0.77937 1.341951 1.06066 1.06066 
C 1.341951 0.77937 1.5 0.397805 1.5 0 
C 1.5 -0.397805 1.341951 -0.77937 1.06066 -1.06066 
C 0.77937 -1.341951 0.397805 -1.5 0 -1.5 
C -0.397805 -1.5 -0.77937 -1.341951 -1.06066 -1.06066 
C -1.341951 -0.77937 -1.5 -0.397805 -1.5 0 
C -1.5 0.397805 -1.341951 0.77937 -1.06066 1.06066 
C -0.77937 1.341951 -0.397805 1.5 0 1.5 
z
" id="m422621cd4c" style="stroke:#1f77b4;"/>
    </defs>
    <g clip-path="url(#p2365d7eb02)">
     <use style="fill:#1f77b4;stroke:#1f77b4;" x="389.780273" xlink:href="#m422621cd4c" y="71.998683"/>
     <use style="fill:#1f77b4;stroke:#1f77b4;" x="383.970179" xlink:href="#m422621cd4c" y="121.735875"/>
     <use style="fill:#1f77b4;stroke:#1f77b4;" x="377.909723" xlink:href="#m422621cd4c" y="162.706843"/>
     <use style="fill:#1f77b4;stroke:#1f77b4;" x="372.383684" xlink:href="#m422621cd4c" y="190.599321"/>
     <use style="fill:#1f77b4;stroke:#1f77b4;" x="367.203089" xlink:href="#m422621cd4c" y="209.526326"/>
     <use style="fill:#1f77b4;stroke:#1f77b4;" x="362.237407" xlink:href="#m422621cd4c" y="222.468904"/>
     <use style="fill:#1f77b4;stroke:#1f77b4;" x="357.401403" xlink:href="#m422621cd4c" y="231.503827"/>
     <use style="fill:#1f77b4;stroke:#1f77b4;" x="352.679353" xlink:href="#m422621cd4c" y="237.811995"/>
     <use style="fill:#1f77b4;stroke:#1f77b4;" x="347.982781" xlink:href="#m422621cd4c" y="242.304943"/>
     <use style="fill:#1f77b4;stroke:#1f77b4;" x="343.320901" xlink:href="#m422621cd4c" y="245.516984"/>
     <use style="fill:#1f77b4;stroke:#1f77b4;" x="338.666189" xlink:href="#m422621cd4c" y="247.852431"/>
     <use style="fill:#1f77b4;stroke:#1f77b4;" x="333.959548" xlink:href="#m422621cd4c" y="249.631001"/>
     <use style="fill:#1f77b4;stroke:#1f77b4;" x="329.184641" xlink:href="#m422621cd4c" y="251.066744"/>
     <use style="fill:#1f77b4;stroke:#1f77b4;" x="324.339568" xlink:href="#m422621cd4c" y="252.249858"/>
     <use style="fill:#1f77b4;stroke:#1f77b4;" x="319.450172" xlink:href="#m422621cd4c" y="253.177927"/>
     <use style="fill:#1f77b4;stroke:#1f77b4;" x="314.558422" xlink:href="#m422621cd4c" y="253.915251"/>
     <use style="fill:#1f77b4;stroke:#1f77b4;" x="309.566787" xlink:href="#m422621cd4c" y="254.552642"/>
     <use style="fill:#1f77b4;stroke:#1f77b4;" x="304.551088" xlink:href="#m422621cd4c" y="255.087345"/>
     <use style="fill:#1f77b4;stroke:#1f77b4;" x="299.515374" xlink:href="#m422621cd4c" y="255.510081"/>
     <use style="fill:#1f77b4;stroke:#1f77b4;" x="294.485839" xlink:href="#m422621cd4c" y="255.801215"/>
     <use style="fill:#1f77b4;stroke:#1f77b4;" x="289.419454" xlink:href="#m422621cd4c" y="255.991556"/>
     <use style="fill:#1f77b4;stroke:#1f77b4;" x="284.330163" xlink:href="#m422621cd4c" y="256.070878"/>
     <use style="fill:#1f77b4;stroke:#1f77b4;" x="279.133185" xlink:href="#m422621cd4c" y="256.085154"/>
     <use style="fill:#1f77b4;stroke:#1f77b4;" x="273.845707" xlink:href="#m422621cd4c" y="256.016571"/>
     <use style="fill:#1f77b4;stroke:#1f77b4;" x="268.474422" xlink:href="#m422621cd4c" y="255.813034"/>
     <use style="fill:#1f77b4;stroke:#1f77b4;" x="263.071491" xlink:href="#m422621cd4c" y="255.534125"/>
     <use style="fill:#1f77b4;stroke:#1f77b4;" x="257.687662" xlink:href="#m422621cd4c" y="255.177987"/>
     <use style="fill:#1f77b4;stroke:#1f77b4;" x="252.243211" xlink:href="#m422621cd4c" y="254.787713"/>
     <use style="fill:#1f77b4;stroke:#1f77b4;" x="246.816412" xlink:href="#m422621cd4c" y="254.318212"/>
     <use style="fill:#1f77b4;stroke:#1f77b4;" x="241.300819" xlink:href="#m422621cd4c" y="253.748144"/>
     <use style="fill:#1f77b4;stroke:#1f77b4;" x="235.76732" xlink:href="#m422621cd4c" y="253.084963"/>
     <use style="fill:#1f77b4;stroke:#1f77b4;" x="230.190862" xlink:href="#m422621cd4c" y="252.326448"/>
     <use style="fill:#1f77b4;stroke:#1f77b4;" x="224.612661" xlink:href="#m422621cd4c" y="251.480628"/>
     <use style="fill:#1f77b4;stroke:#1f77b4;" x="218.996731" xlink:href="#m422621cd4c" y="250.584871"/>
     <use style="fill:#1f77b4;stroke:#1f77b4;" x="213.355446" xlink:href="#m422621cd4c" y="249.602564"/>
     <use style="fill:#1f77b4;stroke:#1f77b4;" x="207.588975" xlink:href="#m422621cd4c" y="248.506075"/>
     <use style="fill:#1f77b4;stroke:#1f77b4;" x="201.74178" xlink:href="#m422621cd4c" y="247.343345"/>
     <use style="fill:#1f77b4;stroke:#1f77b4;" x="195.85938" xlink:href="#m422621cd4c" y="246.0621"/>
     <use style="fill:#1f77b4;stroke:#1f77b4;" x="189.945499" xlink:href="#m422621cd4c" y="244.639608"/>
     <use style="fill:#1f77b4;stroke:#1f77b4;" x="184.074057" xlink:href="#m422621cd4c" y="243.215509"/>
     <use style="fill:#1f77b4;stroke:#1f77b4;" x="178.234798" xlink:href="#m422621cd4c" y="241.778413"/>
     <use style="fill:#1f77b4;stroke:#1f77b4;" x="172.375182" xlink:href="#m422621cd4c" y="240.248209"/>
     <use style="fill:#1f77b4;stroke:#1f77b4;" x="166.460977" xlink:href="#m422621cd4c" y="238.605897"/>
     <use style="fill:#1f77b4;stroke:#1f77b4;" x="160.561822" xlink:href="#m422621cd4c" y="236.949912"/>
     <use style="fill:#1f77b4;stroke:#1f77b4;" x="154.730584" xlink:href="#m422621cd4c" y="235.295166"/>
     <use style="fill:#1f77b4;stroke:#1f77b4;" x="148.73473" xlink:href="#m422621cd4c" y="233.429095"/>
     <use style="fill:#1f77b4;stroke:#1f77b4;" x="142.559766" xlink:href="#m422621cd4c" y="231.330912"/>
     <use style="fill:#1f77b4;stroke:#1f77b4;" x="136.547291" xlink:href="#m422621cd4c" y="229.376857"/>
     <use style="fill:#1f77b4;stroke:#1f77b4;" x="130.769675" xlink:href="#m422621cd4c" y="227.625858"/>
     <use style="fill:#1f77b4;stroke:#1f77b4;" x="125.36594" xlink:href="#m422621cd4c" y="226.065263"/>
     <use style="fill:#1f77b4;stroke:#1f77b4;" x="124.866172" xlink:href="#m422621cd4c" y="225.930111"/>
     <use style="fill:#1f77b4;stroke:#1f77b4;" x="124.393602" xlink:href="#m422621cd4c" y="225.821195"/>
     <use style="fill:#1f77b4;stroke:#1f77b4;" x="123.938088" xlink:href="#m422621cd4c" y="225.73051"/>
     <use style="fill:#1f77b4;stroke:#1f77b4;" x="123.489237" xlink:href="#m422621cd4c" y="225.650578"/>
     <use style="fill:#1f77b4;stroke:#1f77b4;" x="123.045517" xlink:href="#m422621cd4c" y="225.575305"/>
     <use style="fill:#1f77b4;stroke:#1f77b4;" x="122.607944" xlink:href="#m422621cd4c" y="225.500573"/>
     <use style="fill:#1f77b4;stroke:#1f77b4;" x="122.168228" xlink:href="#m422621cd4c" y="225.428389"/>
     <use style="fill:#1f77b4;stroke:#1f77b4;" x="121.72512" xlink:href="#m422621cd4c" y="225.351635"/>
     <use style="fill:#1f77b4;stroke:#1f77b4;" x="121.288427" xlink:href="#m422621cd4c" y="225.271254"/>
     <use style="fill:#1f77b4;stroke:#1f77b4;" x="120.851185" xlink:href="#m422621cd4c" y="225.189647"/>
     <use style="fill:#1f77b4;stroke:#1f77b4;" x="120.416322" xlink:href="#m422621cd4c" y="225.109876"/>
     <use style="fill:#1f77b4;stroke:#1f77b4;" x="119.985264" xlink:href="#m422621cd4c" y="225.032138"/>
     <use style="fill:#1f77b4;stroke:#1f77b4;" x="119.554178" xlink:href="#m422621cd4c" y="224.952747"/>
     <use style="fill:#1f77b4;stroke:#1f77b4;" x="119.123004" xlink:href="#m422621cd4c" y="224.871805"/>
     <use style="fill:#1f77b4;stroke:#1f77b4;" x="118.693828" xlink:href="#m422621cd4c" y="224.79285"/>
     <use style="fill:#1f77b4;stroke:#1f77b4;" x="118.273004" xlink:href="#m422621cd4c" y="224.713913"/>
     <use style="fill:#1f77b4;stroke:#1f77b4;" x="117.855741" xlink:href="#m422621cd4c" y="224.641057"/>
     <use style="fill:#1f77b4;stroke:#1f77b4;" x="117.437305" xlink:href="#m422621cd4c" y="224.570001"/>
     <use style="fill:#1f77b4;stroke:#1f77b4;" x="117.020952" xlink:href="#m422621cd4c" y="224.497231"/>
     <use style="fill:#1f77b4;stroke:#1f77b4;" x="116.605038" xlink:href="#m422621cd4c" y="224.416201"/>
     <use style="fill:#1f77b4;stroke:#1f77b4;" x="116.188255" xlink:href="#m422621cd4c" y="224.332008"/>
     <use style="fill:#1f77b4;stroke:#1f77b4;" x="115.775432" xlink:href="#m422621cd4c" y="224.249656"/>
     <use style="fill:#1f77b4;stroke:#1f77b4;" x="115.37126" xlink:href="#m422621cd4c" y="224.171878"/>
     <use style="fill:#1f77b4;stroke:#1f77b4;" x="114.970752" xlink:href="#m422621cd4c" y="224.103949"/>
     <use style="fill:#1f77b4;stroke:#1f77b4;" x="114.569894" xlink:href="#m422621cd4c" y="224.038597"/>
     <use style="fill:#1f77b4;stroke:#1f77b4;" x="114.529601" xlink:href="#m422621cd4c" y="224.032129"/>
     <use style="fill:#1f77b4;stroke:#1f77b4;" x="114.489592" xlink:href="#m422621cd4c" y="224.025947"/>
     <use style="fill:#1f77b4;stroke:#1f77b4;" x="114.449206" xlink:href="#m422621cd4c" y="224.019683"/>
     <use style="fill:#1f77b4;stroke:#1f77b4;" x="114.408597" xlink:href="#m422621cd4c" y="224.013772"/>
     <use style="fill:#1f77b4;stroke:#1f77b4;" x="114.368486" xlink:href="#m422621cd4c" y="224.008276"/>
     <use style="fill:#1f77b4;stroke:#1f77b4;" x="114.329244" xlink:href="#m422621cd4c" y="224.002992"/>
     <use style="fill:#1f77b4;stroke:#1f77b4;" x="114.290361" xlink:href="#m422621cd4c" y="223.997295"/>
     <use style="fill:#1f77b4;stroke:#1f77b4;" x="114.251252" xlink:href="#m422621cd4c" y="223.99155"/>
     <use style="fill:#1f77b4;stroke:#1f77b4;" x="114.211807" xlink:href="#m422621cd4c" y="223.985911"/>
     <use style="fill:#1f77b4;stroke:#1f77b4;" x="114.172216" xlink:href="#m422621cd4c" y="223.980398"/>
     <use style="fill:#1f77b4;stroke:#1f77b4;" x="114.132515" xlink:href="#m422621cd4c" y="223.975056"/>
     <use style="fill:#1f77b4;stroke:#1f77b4;" x="114.09331" xlink:href="#m422621cd4c" y="223.969828"/>
     <use style="fill:#1f77b4;stroke:#1f77b4;" x="114.054362" xlink:href="#m422621cd4c" y="223.96416"/>
     <use style="fill:#1f77b4;stroke:#1f77b4;" x="114.015313" xlink:href="#m422621cd4c" y="223.958306"/>
     <use style="fill:#1f77b4;stroke:#1f77b4;" x="113.976185" xlink:href="#m422621cd4c" y="223.952665"/>
     <use style="fill:#1f77b4;stroke:#1f77b4;" x="113.936386" xlink:href="#m422621cd4c" y="223.946799"/>
     <use style="fill:#1f77b4;stroke:#1f77b4;" x="113.896563" xlink:href="#m422621cd4c" y="223.940613"/>
     <use style="fill:#1f77b4;stroke:#1f77b4;" x="113.856656" xlink:href="#m422621cd4c" y="223.934343"/>
     <use style="fill:#1f77b4;stroke:#1f77b4;" x="113.816696" xlink:href="#m422621cd4c" y="223.928272"/>
     <use style="fill:#1f77b4;stroke:#1f77b4;" x="113.777577" xlink:href="#m422621cd4c" y="223.921953"/>
     <use style="fill:#1f77b4;stroke:#1f77b4;" x="113.738048" xlink:href="#m422621cd4c" y="223.91534"/>
     <use style="fill:#1f77b4;stroke:#1f77b4;" x="113.698036" xlink:href="#m422621cd4c" y="223.908504"/>
     <use style="fill:#1f77b4;stroke:#1f77b4;" x="113.658007" xlink:href="#m422621cd4c" y="223.901575"/>
     <use style="fill:#1f77b4;stroke:#1f77b4;" x="113.61748" xlink:href="#m422621cd4c" y="223.895072"/>
    </g>
   </g>
   <g id="patch_3">
    <path d="M 49.665988 277.111219 
L 49.665988 10.999219 
" style="fill:none;stroke:#000000;stroke-linecap:square;stroke-linejoin:miter;stroke-width:0.8;"/>
   </g>
   <g id="patch_4">
    <path d="M 406.785988 277.111219 
L 406.785988 10.999219 
" style="fill:none;stroke:#000000;stroke-linecap:square;stroke-linejoin:miter;stroke-width:0.8;"/>
   </g>
   <g id="patch_5">
    <path d="M 49.665988 277.111219 
L 406.785988 277.111219 
" style="fill:none;stroke:#000000;stroke-linecap:square;stroke-linejoin:miter;stroke-width:0.8;"/>
   </g>
   <g id="patch_6">
    <path d="M 49.665988 10.999219 
L 406.785988 10.999219 
" style="fill:none;stroke:#000000;stroke-linecap:square;stroke-linejoin:miter;stroke-width:0.8;"/>
   </g>
   <g id="text_15">
    <g clip-path="url(#p2365d7eb02)">
     <!-- 2.500 -->
     <g style="fill:#39558c;" transform="translate(126.491 102.335971)rotate(-5.497528)scale(0.06 -0.06)">
      <use xlink:href="#DejaVuSans-50"/>
      <use x="63.623047" xlink:href="#DejaVuSans-46"/>
      <use x="95.410156" xlink:href="#DejaVuSans-53"/>
      <use x="159.033203" xlink:href="#DejaVuSans-48"/>
      <use x="222.65625" xlink:href="#DejaVuSans-48"/>
     </g>
    </g>
   </g>
   <g id="text_16">
    <g clip-path="url(#p2365d7eb02)">
     <!-- 2.500 -->
     <g style="fill:#39558c;" transform="translate(237.850522 166.807715)rotate(-24.047748)scale(0.06 -0.06)">
      <use xlink:href="#DejaVuSans-50"/>
      <use x="63.623047" xlink:href="#DejaVuSans-46"/>
      <use x="95.410156" xlink:href="#DejaVuSans-53"/>
      <use x="159.033203" xlink:href="#DejaVuSans-48"/>
      <use x="222.65625" xlink:href="#DejaVuSans-48"/>
     </g>
    </g>
   </g>
   <g id="text_17">
    <g clip-path="url(#p2365d7eb02)">
     <!-- 3.000 -->
     <g style="fill:#33638d;" transform="translate(101.598053 255.354817)rotate(-17.145718)scale(0.06 -0.06)">
      <defs>
       <path d="M 40.578125 39.3125 
Q 47.65625 37.796875 51.625 33 
Q 55.609375 28.21875 55.609375 21.1875 
Q 55.609375 10.40625 48.1875 4.484375 
Q 40.765625 -1.421875 27.09375 -1.421875 
Q 22.515625 -1.421875 17.65625 -0.515625 
Q 12.796875 0.390625 7.625 2.203125 
L 7.625 11.71875 
Q 11.71875 9.328125 16.59375 8.109375 
Q 21.484375 6.890625 26.8125 6.890625 
Q 36.078125 6.890625 40.9375 10.546875 
Q 45.796875 14.203125 45.796875 21.1875 
Q 45.796875 27.640625 41.28125 31.265625 
Q 36.765625 34.90625 28.71875 34.90625 
L 20.21875 34.90625 
L 20.21875 43.015625 
L 29.109375 43.015625 
Q 36.375 43.015625 40.234375 45.921875 
Q 44.09375 48.828125 44.09375 54.296875 
Q 44.09375 59.90625 40.109375 62.90625 
Q 36.140625 65.921875 28.71875 65.921875 
Q 24.65625 65.921875 20.015625 65.03125 
Q 15.375 64.15625 9.8125 62.3125 
L 9.8125 71.09375 
Q 15.4375 72.65625 20.34375 73.4375 
Q 25.25 74.21875 29.59375 74.21875 
Q 40.828125 74.21875 47.359375 69.109375 
Q 53.90625 64.015625 53.90625 55.328125 
Q 53.90625 49.265625 50.4375 45.09375 
Q 46.96875 40.921875 40.578125 39.3125 
z
" id="DejaVuSans-51"/>
      </defs>
      <use xlink:href="#DejaVuSans-51"/>
      <use x="63.623047" xlink:href="#DejaVuSans-46"/>
      <use x="95.410156" xlink:href="#DejaVuSans-48"/>
      <use x="159.033203" xlink:href="#DejaVuSans-48"/>
      <use x="222.65625" xlink:href="#DejaVuSans-48"/>
     </g>
    </g>
   </g>
   <g id="text_18">
    <g clip-path="url(#p2365d7eb02)">
     <!-- 3.000 -->
     <g style="fill:#33638d;" transform="translate(141.267966 37.372564)rotate(-347.530431)scale(0.06 -0.06)">
      <use xlink:href="#DejaVuSans-51"/>
      <use x="63.623047" xlink:href="#DejaVuSans-46"/>
      <use x="95.410156" xlink:href="#DejaVuSans-48"/>
      <use x="159.033203" xlink:href="#DejaVuSans-48"/>
      <use x="222.65625" xlink:href="#DejaVuSans-48"/>
     </g>
    </g>
   </g>
   <g id="text_19">
    <g clip-path="url(#p2365d7eb02)">
     <!-- 3.500 -->
     <g style="fill:#2d718e;" transform="translate(230.136546 181.299906)rotate(-25.893906)scale(0.06 -0.06)">
      <use xlink:href="#DejaVuSans-51"/>
      <use x="63.623047" xlink:href="#DejaVuSans-46"/>
      <use x="95.410156" xlink:href="#DejaVuSans-53"/>
      <use x="159.033203" xlink:href="#DejaVuSans-48"/>
      <use x="222.65625" xlink:href="#DejaVuSans-48"/>
     </g>
    </g>
   </g>
   <g id="text_20">
    <g clip-path="url(#p2365d7eb02)">
     <!-- 3.500 -->
     <g style="fill:#2d718e;" transform="translate(219.871893 33.435835)rotate(-349.538178)scale(0.06 -0.06)">
      <use xlink:href="#DejaVuSans-51"/>
      <use x="63.623047" xlink:href="#DejaVuSans-46"/>
      <use x="95.410156" xlink:href="#DejaVuSans-53"/>
      <use x="159.033203" xlink:href="#DejaVuSans-48"/>
      <use x="222.65625" xlink:href="#DejaVuSans-48"/>
     </g>
    </g>
   </g>
   <g id="text_21">
    <g clip-path="url(#p2365d7eb02)">
     <!-- 4.000 -->
     <g style="fill:#287d8e;" transform="translate(230.256386 184.840404)rotate(-26.415662)scale(0.06 -0.06)">
      <defs>
       <path d="M 37.796875 64.3125 
L 12.890625 25.390625 
L 37.796875 25.390625 
z
M 35.203125 72.90625 
L 47.609375 72.90625 
L 47.609375 25.390625 
L 58.015625 25.390625 
L 58.015625 17.1875 
L 47.609375 17.1875 
L 47.609375 0 
L 37.796875 0 
L 37.796875 17.1875 
L 4.890625 17.1875 
L 4.890625 26.703125 
z
" id="DejaVuSans-52"/>
      </defs>
      <use xlink:href="#DejaVuSans-52"/>
      <use x="63.623047" xlink:href="#DejaVuSans-46"/>
      <use x="95.410156" xlink:href="#DejaVuSans-48"/>
      <use x="159.033203" xlink:href="#DejaVuSans-48"/>
      <use x="222.65625" xlink:href="#DejaVuSans-48"/>
     </g>
    </g>
   </g>
   <g id="text_22">
    <g clip-path="url(#p2365d7eb02)">
     <!-- 4.000 -->
     <g style="fill:#287d8e;" transform="translate(253.9585 26.55764)rotate(-349.835696)scale(0.06 -0.06)">
      <use xlink:href="#DejaVuSans-52"/>
      <use x="63.623047" xlink:href="#DejaVuSans-46"/>
      <use x="95.410156" xlink:href="#DejaVuSans-48"/>
      <use x="159.033203" xlink:href="#DejaVuSans-48"/>
      <use x="222.65625" xlink:href="#DejaVuSans-48"/>
     </g>
    </g>
   </g>
   <g id="text_23">
    <g clip-path="url(#p2365d7eb02)">
     <!-- 4.500 -->
     <g style="fill:#238a8d;" transform="translate(232.827669 184.988331)rotate(-27.6444)scale(0.06 -0.06)">
      <use xlink:href="#DejaVuSans-52"/>
      <use x="63.623047" xlink:href="#DejaVuSans-46"/>
      <use x="95.410156" xlink:href="#DejaVuSans-53"/>
      <use x="159.033203" xlink:href="#DejaVuSans-48"/>
      <use x="222.65625" xlink:href="#DejaVuSans-48"/>
     </g>
    </g>
   </g>
   <g id="text_24">
    <g clip-path="url(#p2365d7eb02)">
     <!-- 4.500 -->
     <g style="fill:#238a8d;" transform="translate(271.00105 19.405642)rotate(-348.676507)scale(0.06 -0.06)">
      <use xlink:href="#DejaVuSans-52"/>
      <use x="63.623047" xlink:href="#DejaVuSans-46"/>
      <use x="95.410156" xlink:href="#DejaVuSans-53"/>
      <use x="159.033203" xlink:href="#DejaVuSans-48"/>
      <use x="222.65625" xlink:href="#DejaVuSans-48"/>
     </g>
    </g>
   </g>
   <g id="text_25">
    <g clip-path="url(#p2365d7eb02)">
     <!-- 5.000 -->
     <g style="fill:#1f968b;" transform="translate(235.099762 184.749306)rotate(-25.668891)scale(0.06 -0.06)">
      <use xlink:href="#DejaVuSans-53"/>
      <use x="63.623047" xlink:href="#DejaVuSans-46"/>
      <use x="95.410156" xlink:href="#DejaVuSans-48"/>
      <use x="159.033203" xlink:href="#DejaVuSans-48"/>
      <use x="222.65625" xlink:href="#DejaVuSans-48"/>
     </g>
    </g>
   </g>
   <g id="text_26">
    <g clip-path="url(#p2365d7eb02)">
     <!-- 5.000 -->
     <g style="fill:#1f968b;" transform="translate(288.053434 15.64649)rotate(-346.411851)scale(0.06 -0.06)">
      <use xlink:href="#DejaVuSans-53"/>
      <use x="63.623047" xlink:href="#DejaVuSans-46"/>
      <use x="95.410156" xlink:href="#DejaVuSans-48"/>
      <use x="159.033203" xlink:href="#DejaVuSans-48"/>
      <use x="222.65625" xlink:href="#DejaVuSans-48"/>
     </g>
    </g>
   </g>
   <g id="text_27">
    <g clip-path="url(#p2365d7eb02)">
     <!-- 5.500 -->
     <g style="fill:#20a386;" transform="translate(237.519235 184.699786)rotate(-25.265984)scale(0.06 -0.06)">
      <use xlink:href="#DejaVuSans-53"/>
      <use x="63.623047" xlink:href="#DejaVuSans-46"/>
      <use x="95.410156" xlink:href="#DejaVuSans-53"/>
      <use x="159.033203" xlink:href="#DejaVuSans-48"/>
      <use x="222.65625" xlink:href="#DejaVuSans-48"/>
     </g>
    </g>
   </g>
   <g id="text_28">
    <g clip-path="url(#p2365d7eb02)">
     <!-- 6.000 -->
     <g style="fill:#29af7f;" transform="translate(238.674194 185.25288)rotate(-26.069746)scale(0.06 -0.06)">
      <use xlink:href="#DejaVuSans-54"/>
      <use x="63.623047" xlink:href="#DejaVuSans-46"/>
      <use x="95.410156" xlink:href="#DejaVuSans-48"/>
      <use x="159.033203" xlink:href="#DejaVuSans-48"/>
      <use x="222.65625" xlink:href="#DejaVuSans-48"/>
     </g>
    </g>
   </g>
   <g id="text_29">
    <g clip-path="url(#p2365d7eb02)">
     <!-- 6.500 -->
     <g style="fill:#3dbc74;" transform="translate(230.17271 192.07007)rotate(-26.287529)scale(0.06 -0.06)">
      <use xlink:href="#DejaVuSans-54"/>
      <use x="63.623047" xlink:href="#DejaVuSans-46"/>
      <use x="95.410156" xlink:href="#DejaVuSans-53"/>
      <use x="159.033203" xlink:href="#DejaVuSans-48"/>
      <use x="222.65625" xlink:href="#DejaVuSans-48"/>
     </g>
    </g>
   </g>
   <g id="text_30">
    <g clip-path="url(#p2365d7eb02)">
     <!-- 7.000 -->
     <g style="fill:#56c667;" transform="translate(230.189644 193.532927)rotate(-26.470625)scale(0.06 -0.06)">
      <defs>
       <path d="M 8.203125 72.90625 
L 55.078125 72.90625 
L 55.078125 68.703125 
L 28.609375 0 
L 18.3125 0 
L 43.21875 64.59375 
L 8.203125 64.59375 
z
" id="DejaVuSans-55"/>
      </defs>
      <use xlink:href="#DejaVuSans-55"/>
      <use x="63.623047" xlink:href="#DejaVuSans-46"/>
      <use x="95.410156" xlink:href="#DejaVuSans-48"/>
      <use x="159.033203" xlink:href="#DejaVuSans-48"/>
      <use x="222.65625" xlink:href="#DejaVuSans-48"/>
     </g>
    </g>
   </g>
   <g id="text_31">
    <g clip-path="url(#p2365d7eb02)">
     <!-- 7.500 -->
     <g style="fill:#75d054;" transform="translate(231.157717 193.801939)rotate(-27.170231)scale(0.06 -0.06)">
      <use xlink:href="#DejaVuSans-55"/>
      <use x="63.623047" xlink:href="#DejaVuSans-46"/>
      <use x="95.410156" xlink:href="#DejaVuSans-53"/>
      <use x="159.033203" xlink:href="#DejaVuSans-48"/>
      <use x="222.65625" xlink:href="#DejaVuSans-48"/>
     </g>
    </g>
   </g>
   <g id="text_32">
    <g clip-path="url(#p2365d7eb02)">
     <!-- 8.000 -->
     <g style="fill:#95d840;" transform="translate(232.236136 193.856462)rotate(-27.625397)scale(0.06 -0.06)">
      <use xlink:href="#DejaVuSans-56"/>
      <use x="63.623047" xlink:href="#DejaVuSans-46"/>
      <use x="95.410156" xlink:href="#DejaVuSans-48"/>
      <use x="159.033203" xlink:href="#DejaVuSans-48"/>
      <use x="222.65625" xlink:href="#DejaVuSans-48"/>
     </g>
    </g>
   </g>
   <g id="text_33">
    <g clip-path="url(#p2365d7eb02)">
     <!-- 8.500 -->
     <g style="fill:#bade28;" transform="translate(233.279081 193.865988)rotate(-27.705218)scale(0.06 -0.06)">
      <use xlink:href="#DejaVuSans-56"/>
      <use x="63.623047" xlink:href="#DejaVuSans-46"/>
      <use x="95.410156" xlink:href="#DejaVuSans-53"/>
      <use x="159.033203" xlink:href="#DejaVuSans-48"/>
      <use x="222.65625" xlink:href="#DejaVuSans-48"/>
     </g>
    </g>
   </g>
   <g id="text_34">
    <g clip-path="url(#p2365d7eb02)">
     <!-- 9.000 -->
     <g style="fill:#dde318;" transform="translate(234.228717 193.756921)rotate(-26.796536)scale(0.06 -0.06)">
      <use xlink:href="#DejaVuSans-57"/>
      <use x="63.623047" xlink:href="#DejaVuSans-46"/>
      <use x="95.410156" xlink:href="#DejaVuSans-48"/>
      <use x="159.033203" xlink:href="#DejaVuSans-48"/>
      <use x="222.65625" xlink:href="#DejaVuSans-48"/>
     </g>
    </g>
   </g>
   <g id="text_35">
    <g clip-path="url(#p2365d7eb02)">
     <!-- 9.500 -->
     <g style="fill:#fde725;" transform="translate(235.18574 193.65405)rotate(-25.949564)scale(0.06 -0.06)">
      <use xlink:href="#DejaVuSans-57"/>
      <use x="63.623047" xlink:href="#DejaVuSans-46"/>
      <use x="95.410156" xlink:href="#DejaVuSans-53"/>
      <use x="159.033203" xlink:href="#DejaVuSans-48"/>
      <use x="222.65625" xlink:href="#DejaVuSans-48"/>
     </g>
    </g>
   </g>
   <g id="text_36">
    <g clip-path="url(#p2365d7eb02)">
     <!-- 10.000 -->
     <g style="fill:#440154;" transform="translate(222.133825 203.66112)rotate(-27.956422)scale(0.06 -0.06)">
      <use xlink:href="#DejaVuSans-49"/>
      <use x="63.623047" xlink:href="#DejaVuSans-48"/>
      <use x="127.246094" xlink:href="#DejaVuSans-46"/>
      <use x="159.033203" xlink:href="#DejaVuSans-48"/>
      <use x="222.65625" xlink:href="#DejaVuSans-48"/>
      <use x="286.279297" xlink:href="#DejaVuSans-48"/>
     </g>
    </g>
   </g>
   <g id="text_37">
    <g clip-path="url(#p2365d7eb02)">
     <!-- 100.000 -->
     <g style="fill:#440154;" transform="translate(218.297444 231.235968)rotate(-26.849696)scale(0.06 -0.06)">
      <use xlink:href="#DejaVuSans-49"/>
      <use x="63.623047" xlink:href="#DejaVuSans-48"/>
      <use x="127.246094" xlink:href="#DejaVuSans-48"/>
      <use x="190.869141" xlink:href="#DejaVuSans-46"/>
      <use x="222.65625" xlink:href="#DejaVuSans-48"/>
      <use x="286.279297" xlink:href="#DejaVuSans-48"/>
      <use x="349.902344" xlink:href="#DejaVuSans-48"/>
     </g>
    </g>
   </g>
   <g id="text_38">
    <g clip-path="url(#p2365d7eb02)">
     <!-- 1000.000 -->
     <g style="fill:#440154;" transform="translate(233.595419 241.655351)rotate(-26.544647)scale(0.06 -0.06)">
      <use xlink:href="#DejaVuSans-49"/>
      <use x="63.623047" xlink:href="#DejaVuSans-48"/>
      <use x="127.246094" xlink:href="#DejaVuSans-48"/>
      <use x="190.869141" xlink:href="#DejaVuSans-48"/>
      <use x="254.492188" xlink:href="#DejaVuSans-46"/>
      <use x="286.279297" xlink:href="#DejaVuSans-48"/>
      <use x="349.902344" xlink:href="#DejaVuSans-48"/>
      <use x="413.525391" xlink:href="#DejaVuSans-48"/>
     </g>
    </g>
   </g>
   <g id="text_39">
    <g clip-path="url(#p2365d7eb02)">
     <!-- 10000.000 -->
     <g style="fill:#440154;" transform="translate(240.902371 258.951275)rotate(-25.38714)scale(0.06 -0.06)">
      <use xlink:href="#DejaVuSans-49"/>
      <use x="63.623047" xlink:href="#DejaVuSans-48"/>
      <use x="127.246094" xlink:href="#DejaVuSans-48"/>
      <use x="190.869141" xlink:href="#DejaVuSans-48"/>
      <use x="254.492188" xlink:href="#DejaVuSans-48"/>
      <use x="318.115234" xlink:href="#DejaVuSans-46"/>
      <use x="349.902344" xlink:href="#DejaVuSans-48"/>
      <use x="413.525391" xlink:href="#DejaVuSans-48"/>
      <use x="477.148438" xlink:href="#DejaVuSans-48"/>
     </g>
    </g>
   </g>
   <g id="text_40">
    <g clip-path="url(#p2365d7eb02)">
     <!-- 100000.000 -->
     <g style="fill:#440154;" transform="translate(260.826291 268.707185)rotate(-25.633021)scale(0.06 -0.06)">
      <use xlink:href="#DejaVuSans-49"/>
      <use x="63.623047" xlink:href="#DejaVuSans-48"/>
      <use x="127.246094" xlink:href="#DejaVuSans-48"/>
      <use x="190.869141" xlink:href="#DejaVuSans-48"/>
      <use x="254.492188" xlink:href="#DejaVuSans-48"/>
      <use x="318.115234" xlink:href="#DejaVuSans-48"/>
      <use x="381.738281" xlink:href="#DejaVuSans-46"/>
      <use x="413.525391" xlink:href="#DejaVuSans-48"/>
      <use x="477.148438" xlink:href="#DejaVuSans-48"/>
      <use x="540.771484" xlink:href="#DejaVuSans-48"/>
     </g>
    </g>
   </g>
  </g>
 </g>
 <defs>
  <clipPath id="p2365d7eb02">
   <rect height="266.112" width="357.12" x="49.665988" y="10.999219"/>
  </clipPath>
 </defs>
</svg>
