<?xml version="1.0" encoding="utf-8" standalone="no"?>
<!DOCTYPE svg PUBLIC "-//W3C//DTD SVG 1.1//EN"
  "http://www.w3.org/Graphics/SVG/1.1/DTD/svg11.dtd">
<!-- Created with matplotlib (https://matplotlib.org/) -->
<svg height="317.913925pt" version="1.1" viewBox="0 0 413.985987 317.913925" width="413.985987pt" xmlns="http://www.w3.org/2000/svg" xmlns:xlink="http://www.w3.org/1999/xlink">
 <metadata>
  <rdf:RDF xmlns:cc="http://creativecommons.org/ns#" xmlns:dc="http://purl.org/dc/elements/1.1/" xmlns:rdf="http://www.w3.org/1999/02/22-rdf-syntax-ns#">
   <cc:Work>
    <dc:type rdf:resource="http://purl.org/dc/dcmitype/StillImage"/>
    <dc:date>2021-09-18T18:03:25.016573</dc:date>
    <dc:format>image/svg+xml</dc:format>
    <dc:creator>
     <cc:Agent>
      <dc:title>Matplotlib v3.3.1, https://matplotlib.org/</dc:title>
     </cc:Agent>
    </dc:creator>
   </cc:Work>
  </rdf:RDF>
 </metadata>
 <defs>
  <style type="text/css">*{stroke-linecap:butt;stroke-linejoin:round;}</style>
 </defs>
 <g id="figure_1">
  <g id="patch_1">
   <path d="M 0 317.913925 
L 413.985987 317.913925 
L 413.985987 0 
L 0 0 
z
" style="fill:#ffffff;"/>
  </g>
  <g id="axes_1">
   <g id="patch_2">
    <path d="M 49.665988 273.312 
L 406.785988 273.312 
L 406.785988 7.2 
L 49.665988 7.2 
z
" style="fill:#ffffff;"/>
   </g>
   <g id="matplotlib.axis_1">
    <g id="xtick_1">
     <g id="line2d_1">
      <defs>
       <path d="M 0 0 
L 0 3.5 
" id="m0e9165dcc3" style="stroke:#000000;stroke-width:0.8;"/>
      </defs>
      <g>
       <use style="stroke:#000000;stroke-width:0.8;" x="70.888584" xlink:href="#m0e9165dcc3" y="273.312"/>
      </g>
     </g>
     <g id="text_1">
      <!-- −10 -->
      <g transform="translate(60.33624 287.910437)scale(0.1 -0.1)">
       <defs>
        <path d="M 10.59375 35.5 
L 73.1875 35.5 
L 73.1875 27.203125 
L 10.59375 27.203125 
z
" id="DejaVuSans-8722"/>
        <path d="M 12.40625 8.296875 
L 28.515625 8.296875 
L 28.515625 63.921875 
L 10.984375 60.40625 
L 10.984375 69.390625 
L 28.421875 72.90625 
L 38.28125 72.90625 
L 38.28125 8.296875 
L 54.390625 8.296875 
L 54.390625 0 
L 12.40625 0 
z
" id="DejaVuSans-49"/>
        <path d="M 31.78125 66.40625 
Q 24.171875 66.40625 20.328125 58.90625 
Q 16.5 51.421875 16.5 36.375 
Q 16.5 21.390625 20.328125 13.890625 
Q 24.171875 6.390625 31.78125 6.390625 
Q 39.453125 6.390625 43.28125 13.890625 
Q 47.125 21.390625 47.125 36.375 
Q 47.125 51.421875 43.28125 58.90625 
Q 39.453125 66.40625 31.78125 66.40625 
z
M 31.78125 74.21875 
Q 44.046875 74.21875 50.515625 64.515625 
Q 56.984375 54.828125 56.984375 36.375 
Q 56.984375 17.96875 50.515625 8.265625 
Q 44.046875 -1.421875 31.78125 -1.421875 
Q 19.53125 -1.421875 13.0625 8.265625 
Q 6.59375 17.96875 6.59375 36.375 
Q 6.59375 54.828125 13.0625 64.515625 
Q 19.53125 74.21875 31.78125 74.21875 
z
" id="DejaVuSans-48"/>
       </defs>
       <use xlink:href="#DejaVuSans-8722"/>
       <use x="83.789062" xlink:href="#DejaVuSans-49"/>
       <use x="147.412109" xlink:href="#DejaVuSans-48"/>
      </g>
     </g>
    </g>
    <g id="xtick_2">
     <g id="line2d_2">
      <g>
       <use style="stroke:#000000;stroke-width:0.8;" x="113.333776" xlink:href="#m0e9165dcc3" y="273.312"/>
      </g>
     </g>
     <g id="text_2">
      <!-- 0 -->
      <g transform="translate(110.152526 287.910437)scale(0.1 -0.1)">
       <use xlink:href="#DejaVuSans-48"/>
      </g>
     </g>
    </g>
    <g id="xtick_3">
     <g id="line2d_3">
      <g>
       <use style="stroke:#000000;stroke-width:0.8;" x="155.778968" xlink:href="#m0e9165dcc3" y="273.312"/>
      </g>
     </g>
     <g id="text_3">
      <!-- 10 -->
      <g transform="translate(149.416468 287.910437)scale(0.1 -0.1)">
       <use xlink:href="#DejaVuSans-49"/>
       <use x="63.623047" xlink:href="#DejaVuSans-48"/>
      </g>
     </g>
    </g>
    <g id="xtick_4">
     <g id="line2d_4">
      <g>
       <use style="stroke:#000000;stroke-width:0.8;" x="198.224161" xlink:href="#m0e9165dcc3" y="273.312"/>
      </g>
     </g>
     <g id="text_4">
      <!-- 20 -->
      <g transform="translate(191.861661 287.910437)scale(0.1 -0.1)">
       <defs>
        <path d="M 19.1875 8.296875 
L 53.609375 8.296875 
L 53.609375 0 
L 7.328125 0 
L 7.328125 8.296875 
Q 12.9375 14.109375 22.625 23.890625 
Q 32.328125 33.6875 34.8125 36.53125 
Q 39.546875 41.84375 41.421875 45.53125 
Q 43.3125 49.21875 43.3125 52.78125 
Q 43.3125 58.59375 39.234375 62.25 
Q 35.15625 65.921875 28.609375 65.921875 
Q 23.96875 65.921875 18.8125 64.3125 
Q 13.671875 62.703125 7.8125 59.421875 
L 7.8125 69.390625 
Q 13.765625 71.78125 18.9375 73 
Q 24.125 74.21875 28.421875 74.21875 
Q 39.75 74.21875 46.484375 68.546875 
Q 53.21875 62.890625 53.21875 53.421875 
Q 53.21875 48.921875 51.53125 44.890625 
Q 49.859375 40.875 45.40625 35.40625 
Q 44.1875 33.984375 37.640625 27.21875 
Q 31.109375 20.453125 19.1875 8.296875 
z
" id="DejaVuSans-50"/>
       </defs>
       <use xlink:href="#DejaVuSans-50"/>
       <use x="63.623047" xlink:href="#DejaVuSans-48"/>
      </g>
     </g>
    </g>
    <g id="xtick_5">
     <g id="line2d_5">
      <g>
       <use style="stroke:#000000;stroke-width:0.8;" x="240.669353" xlink:href="#m0e9165dcc3" y="273.312"/>
      </g>
     </g>
     <g id="text_5">
      <!-- 30 -->
      <g transform="translate(234.306853 287.910437)scale(0.1 -0.1)">
       <defs>
        <path d="M 40.578125 39.3125 
Q 47.65625 37.796875 51.625 33 
Q 55.609375 28.21875 55.609375 21.1875 
Q 55.609375 10.40625 48.1875 4.484375 
Q 40.765625 -1.421875 27.09375 -1.421875 
Q 22.515625 -1.421875 17.65625 -0.515625 
Q 12.796875 0.390625 7.625 2.203125 
L 7.625 11.71875 
Q 11.71875 9.328125 16.59375 8.109375 
Q 21.484375 6.890625 26.8125 6.890625 
Q 36.078125 6.890625 40.9375 10.546875 
Q 45.796875 14.203125 45.796875 21.1875 
Q 45.796875 27.640625 41.28125 31.265625 
Q 36.765625 34.90625 28.71875 34.90625 
L 20.21875 34.90625 
L 20.21875 43.015625 
L 29.109375 43.015625 
Q 36.375 43.015625 40.234375 45.921875 
Q 44.09375 48.828125 44.09375 54.296875 
Q 44.09375 59.90625 40.109375 62.90625 
Q 36.140625 65.921875 28.71875 65.921875 
Q 24.65625 65.921875 20.015625 65.03125 
Q 15.375 64.15625 9.8125 62.3125 
L 9.8125 71.09375 
Q 15.4375 72.65625 20.34375 73.4375 
Q 25.25 74.21875 29.59375 74.21875 
Q 40.828125 74.21875 47.359375 69.109375 
Q 53.90625 64.015625 53.90625 55.328125 
Q 53.90625 49.265625 50.4375 45.09375 
Q 46.96875 40.921875 40.578125 39.3125 
z
" id="DejaVuSans-51"/>
       </defs>
       <use xlink:href="#DejaVuSans-51"/>
       <use x="63.623047" xlink:href="#DejaVuSans-48"/>
      </g>
     </g>
    </g>
    <g id="xtick_6">
     <g id="line2d_6">
      <g>
       <use style="stroke:#000000;stroke-width:0.8;" x="283.114545" xlink:href="#m0e9165dcc3" y="273.312"/>
      </g>
     </g>
     <g id="text_6">
      <!-- 40 -->
      <g transform="translate(276.752045 287.910437)scale(0.1 -0.1)">
       <defs>
        <path d="M 37.796875 64.3125 
L 12.890625 25.390625 
L 37.796875 25.390625 
z
M 35.203125 72.90625 
L 47.609375 72.90625 
L 47.609375 25.390625 
L 58.015625 25.390625 
L 58.015625 17.1875 
L 47.609375 17.1875 
L 47.609375 0 
L 37.796875 0 
L 37.796875 17.1875 
L 4.890625 17.1875 
L 4.890625 26.703125 
z
" id="DejaVuSans-52"/>
       </defs>
       <use xlink:href="#DejaVuSans-52"/>
       <use x="63.623047" xlink:href="#DejaVuSans-48"/>
      </g>
     </g>
    </g>
    <g id="xtick_7">
     <g id="line2d_7">
      <g>
       <use style="stroke:#000000;stroke-width:0.8;" x="325.559737" xlink:href="#m0e9165dcc3" y="273.312"/>
      </g>
     </g>
     <g id="text_7">
      <!-- 50 -->
      <g transform="translate(319.197237 287.910437)scale(0.1 -0.1)">
       <defs>
        <path d="M 10.796875 72.90625 
L 49.515625 72.90625 
L 49.515625 64.59375 
L 19.828125 64.59375 
L 19.828125 46.734375 
Q 21.96875 47.46875 24.109375 47.828125 
Q 26.265625 48.1875 28.421875 48.1875 
Q 40.625 48.1875 47.75 41.5 
Q 54.890625 34.8125 54.890625 23.390625 
Q 54.890625 11.625 47.5625 5.09375 
Q 40.234375 -1.421875 26.90625 -1.421875 
Q 22.3125 -1.421875 17.546875 -0.640625 
Q 12.796875 0.140625 7.71875 1.703125 
L 7.71875 11.625 
Q 12.109375 9.234375 16.796875 8.0625 
Q 21.484375 6.890625 26.703125 6.890625 
Q 35.15625 6.890625 40.078125 11.328125 
Q 45.015625 15.765625 45.015625 23.390625 
Q 45.015625 31 40.078125 35.4375 
Q 35.15625 39.890625 26.703125 39.890625 
Q 22.75 39.890625 18.8125 39.015625 
Q 14.890625 38.140625 10.796875 36.28125 
z
" id="DejaVuSans-53"/>
       </defs>
       <use xlink:href="#DejaVuSans-53"/>
       <use x="63.623047" xlink:href="#DejaVuSans-48"/>
      </g>
     </g>
    </g>
    <g id="xtick_8">
     <g id="line2d_8">
      <g>
       <use style="stroke:#000000;stroke-width:0.8;" x="368.00493" xlink:href="#m0e9165dcc3" y="273.312"/>
      </g>
     </g>
     <g id="text_8">
      <!-- 60 -->
      <g transform="translate(361.64243 287.910437)scale(0.1 -0.1)">
       <defs>
        <path d="M 33.015625 40.375 
Q 26.375 40.375 22.484375 35.828125 
Q 18.609375 31.296875 18.609375 23.390625 
Q 18.609375 15.53125 22.484375 10.953125 
Q 26.375 6.390625 33.015625 6.390625 
Q 39.65625 6.390625 43.53125 10.953125 
Q 47.40625 15.53125 47.40625 23.390625 
Q 47.40625 31.296875 43.53125 35.828125 
Q 39.65625 40.375 33.015625 40.375 
z
M 52.59375 71.296875 
L 52.59375 62.3125 
Q 48.875 64.0625 45.09375 64.984375 
Q 41.3125 65.921875 37.59375 65.921875 
Q 27.828125 65.921875 22.671875 59.328125 
Q 17.53125 52.734375 16.796875 39.40625 
Q 19.671875 43.65625 24.015625 45.921875 
Q 28.375 48.1875 33.59375 48.1875 
Q 44.578125 48.1875 50.953125 41.515625 
Q 57.328125 34.859375 57.328125 23.390625 
Q 57.328125 12.15625 50.6875 5.359375 
Q 44.046875 -1.421875 33.015625 -1.421875 
Q 20.359375 -1.421875 13.671875 8.265625 
Q 6.984375 17.96875 6.984375 36.375 
Q 6.984375 53.65625 15.1875 63.9375 
Q 23.390625 74.21875 37.203125 74.21875 
Q 40.921875 74.21875 44.703125 73.484375 
Q 48.484375 72.75 52.59375 71.296875 
z
" id="DejaVuSans-54"/>
       </defs>
       <use xlink:href="#DejaVuSans-54"/>
       <use x="63.623047" xlink:href="#DejaVuSans-48"/>
      </g>
     </g>
    </g>
    <g id="text_9">
     <!-- 1st PC: 98.74 % -->
     <g transform="translate(159.505587 307.120225)scale(0.1728 -0.1728)">
      <defs>
       <path d="M 44.28125 53.078125 
L 44.28125 44.578125 
Q 40.484375 46.53125 36.375 47.5 
Q 32.28125 48.484375 27.875 48.484375 
Q 21.1875 48.484375 17.84375 46.4375 
Q 14.5 44.390625 14.5 40.28125 
Q 14.5 37.15625 16.890625 35.375 
Q 19.28125 33.59375 26.515625 31.984375 
L 29.59375 31.296875 
Q 39.15625 29.25 43.1875 25.515625 
Q 47.21875 21.78125 47.21875 15.09375 
Q 47.21875 7.46875 41.1875 3.015625 
Q 35.15625 -1.421875 24.609375 -1.421875 
Q 20.21875 -1.421875 15.453125 -0.5625 
Q 10.6875 0.296875 5.421875 2 
L 5.421875 11.28125 
Q 10.40625 8.6875 15.234375 7.390625 
Q 20.0625 6.109375 24.8125 6.109375 
Q 31.15625 6.109375 34.5625 8.28125 
Q 37.984375 10.453125 37.984375 14.40625 
Q 37.984375 18.0625 35.515625 20.015625 
Q 33.0625 21.96875 24.703125 23.78125 
L 21.578125 24.515625 
Q 13.234375 26.265625 9.515625 29.90625 
Q 5.8125 33.546875 5.8125 39.890625 
Q 5.8125 47.609375 11.28125 51.796875 
Q 16.75 56 26.8125 56 
Q 31.78125 56 36.171875 55.265625 
Q 40.578125 54.546875 44.28125 53.078125 
z
" id="DejaVuSans-115"/>
       <path d="M 18.3125 70.21875 
L 18.3125 54.6875 
L 36.8125 54.6875 
L 36.8125 47.703125 
L 18.3125 47.703125 
L 18.3125 18.015625 
Q 18.3125 11.328125 20.140625 9.421875 
Q 21.96875 7.515625 27.59375 7.515625 
L 36.8125 7.515625 
L 36.8125 0 
L 27.59375 0 
Q 17.1875 0 13.234375 3.875 
Q 9.28125 7.765625 9.28125 18.015625 
L 9.28125 47.703125 
L 2.6875 47.703125 
L 2.6875 54.6875 
L 9.28125 54.6875 
L 9.28125 70.21875 
z
" id="DejaVuSans-116"/>
       <path id="DejaVuSans-32"/>
       <path d="M 19.671875 64.796875 
L 19.671875 37.40625 
L 32.078125 37.40625 
Q 38.96875 37.40625 42.71875 40.96875 
Q 46.484375 44.53125 46.484375 51.125 
Q 46.484375 57.671875 42.71875 61.234375 
Q 38.96875 64.796875 32.078125 64.796875 
z
M 9.8125 72.90625 
L 32.078125 72.90625 
Q 44.34375 72.90625 50.609375 67.359375 
Q 56.890625 61.8125 56.890625 51.125 
Q 56.890625 40.328125 50.609375 34.8125 
Q 44.34375 29.296875 32.078125 29.296875 
L 19.671875 29.296875 
L 19.671875 0 
L 9.8125 0 
z
" id="DejaVuSans-80"/>
       <path d="M 64.40625 67.28125 
L 64.40625 56.890625 
Q 59.421875 61.53125 53.78125 63.8125 
Q 48.140625 66.109375 41.796875 66.109375 
Q 29.296875 66.109375 22.65625 58.46875 
Q 16.015625 50.828125 16.015625 36.375 
Q 16.015625 21.96875 22.65625 14.328125 
Q 29.296875 6.6875 41.796875 6.6875 
Q 48.140625 6.6875 53.78125 8.984375 
Q 59.421875 11.28125 64.40625 15.921875 
L 64.40625 5.609375 
Q 59.234375 2.09375 53.4375 0.328125 
Q 47.65625 -1.421875 41.21875 -1.421875 
Q 24.65625 -1.421875 15.125 8.703125 
Q 5.609375 18.84375 5.609375 36.375 
Q 5.609375 53.953125 15.125 64.078125 
Q 24.65625 74.21875 41.21875 74.21875 
Q 47.75 74.21875 53.53125 72.484375 
Q 59.328125 70.75 64.40625 67.28125 
z
" id="DejaVuSans-67"/>
       <path d="M 11.71875 12.40625 
L 22.015625 12.40625 
L 22.015625 0 
L 11.71875 0 
z
M 11.71875 51.703125 
L 22.015625 51.703125 
L 22.015625 39.3125 
L 11.71875 39.3125 
z
" id="DejaVuSans-58"/>
       <path d="M 10.984375 1.515625 
L 10.984375 10.5 
Q 14.703125 8.734375 18.5 7.8125 
Q 22.3125 6.890625 25.984375 6.890625 
Q 35.75 6.890625 40.890625 13.453125 
Q 46.046875 20.015625 46.78125 33.40625 
Q 43.953125 29.203125 39.59375 26.953125 
Q 35.25 24.703125 29.984375 24.703125 
Q 19.046875 24.703125 12.671875 31.3125 
Q 6.296875 37.9375 6.296875 49.421875 
Q 6.296875 60.640625 12.9375 67.421875 
Q 19.578125 74.21875 30.609375 74.21875 
Q 43.265625 74.21875 49.921875 64.515625 
Q 56.59375 54.828125 56.59375 36.375 
Q 56.59375 19.140625 48.40625 8.859375 
Q 40.234375 -1.421875 26.421875 -1.421875 
Q 22.703125 -1.421875 18.890625 -0.6875 
Q 15.09375 0.046875 10.984375 1.515625 
z
M 30.609375 32.421875 
Q 37.25 32.421875 41.125 36.953125 
Q 45.015625 41.5 45.015625 49.421875 
Q 45.015625 57.28125 41.125 61.84375 
Q 37.25 66.40625 30.609375 66.40625 
Q 23.96875 66.40625 20.09375 61.84375 
Q 16.21875 57.28125 16.21875 49.421875 
Q 16.21875 41.5 20.09375 36.953125 
Q 23.96875 32.421875 30.609375 32.421875 
z
" id="DejaVuSans-57"/>
       <path d="M 31.78125 34.625 
Q 24.75 34.625 20.71875 30.859375 
Q 16.703125 27.09375 16.703125 20.515625 
Q 16.703125 13.921875 20.71875 10.15625 
Q 24.75 6.390625 31.78125 6.390625 
Q 38.8125 6.390625 42.859375 10.171875 
Q 46.921875 13.96875 46.921875 20.515625 
Q 46.921875 27.09375 42.890625 30.859375 
Q 38.875 34.625 31.78125 34.625 
z
M 21.921875 38.8125 
Q 15.578125 40.375 12.03125 44.71875 
Q 8.5 49.078125 8.5 55.328125 
Q 8.5 64.0625 14.71875 69.140625 
Q 20.953125 74.21875 31.78125 74.21875 
Q 42.671875 74.21875 48.875 69.140625 
Q 55.078125 64.0625 55.078125 55.328125 
Q 55.078125 49.078125 51.53125 44.71875 
Q 48 40.375 41.703125 38.8125 
Q 48.828125 37.15625 52.796875 32.3125 
Q 56.78125 27.484375 56.78125 20.515625 
Q 56.78125 9.90625 50.3125 4.234375 
Q 43.84375 -1.421875 31.78125 -1.421875 
Q 19.734375 -1.421875 13.25 4.234375 
Q 6.78125 9.90625 6.78125 20.515625 
Q 6.78125 27.484375 10.78125 32.3125 
Q 14.796875 37.15625 21.921875 38.8125 
z
M 18.3125 54.390625 
Q 18.3125 48.734375 21.84375 45.5625 
Q 25.390625 42.390625 31.78125 42.390625 
Q 38.140625 42.390625 41.71875 45.5625 
Q 45.3125 48.734375 45.3125 54.390625 
Q 45.3125 60.0625 41.71875 63.234375 
Q 38.140625 66.40625 31.78125 66.40625 
Q 25.390625 66.40625 21.84375 63.234375 
Q 18.3125 60.0625 18.3125 54.390625 
z
" id="DejaVuSans-56"/>
       <path d="M 10.6875 12.40625 
L 21 12.40625 
L 21 0 
L 10.6875 0 
z
" id="DejaVuSans-46"/>
       <path d="M 8.203125 72.90625 
L 55.078125 72.90625 
L 55.078125 68.703125 
L 28.609375 0 
L 18.3125 0 
L 43.21875 64.59375 
L 8.203125 64.59375 
z
" id="DejaVuSans-55"/>
       <path d="M 72.703125 32.078125 
Q 68.453125 32.078125 66.03125 28.46875 
Q 63.625 24.859375 63.625 18.40625 
Q 63.625 12.0625 66.03125 8.421875 
Q 68.453125 4.78125 72.703125 4.78125 
Q 76.859375 4.78125 79.265625 8.421875 
Q 81.6875 12.0625 81.6875 18.40625 
Q 81.6875 24.8125 79.265625 28.4375 
Q 76.859375 32.078125 72.703125 32.078125 
z
M 72.703125 38.28125 
Q 80.421875 38.28125 84.953125 32.90625 
Q 89.5 27.546875 89.5 18.40625 
Q 89.5 9.28125 84.9375 3.921875 
Q 80.375 -1.421875 72.703125 -1.421875 
Q 64.890625 -1.421875 60.34375 3.921875 
Q 55.8125 9.28125 55.8125 18.40625 
Q 55.8125 27.59375 60.375 32.9375 
Q 64.9375 38.28125 72.703125 38.28125 
z
M 22.3125 68.015625 
Q 18.109375 68.015625 15.6875 64.375 
Q 13.28125 60.75 13.28125 54.390625 
Q 13.28125 47.953125 15.671875 44.328125 
Q 18.0625 40.71875 22.3125 40.71875 
Q 26.5625 40.71875 28.96875 44.328125 
Q 31.390625 47.953125 31.390625 54.390625 
Q 31.390625 60.6875 28.953125 64.34375 
Q 26.515625 68.015625 22.3125 68.015625 
z
M 66.40625 74.21875 
L 74.21875 74.21875 
L 28.609375 -1.421875 
L 20.796875 -1.421875 
z
M 22.3125 74.21875 
Q 30.03125 74.21875 34.609375 68.875 
Q 39.203125 63.53125 39.203125 54.390625 
Q 39.203125 45.171875 34.640625 39.84375 
Q 30.078125 34.515625 22.3125 34.515625 
Q 14.546875 34.515625 10.03125 39.859375 
Q 5.515625 45.21875 5.515625 54.390625 
Q 5.515625 63.484375 10.046875 68.84375 
Q 14.59375 74.21875 22.3125 74.21875 
z
" id="DejaVuSans-37"/>
      </defs>
      <use xlink:href="#DejaVuSans-49"/>
      <use x="63.623047" xlink:href="#DejaVuSans-115"/>
      <use x="115.722656" xlink:href="#DejaVuSans-116"/>
      <use x="154.931641" xlink:href="#DejaVuSans-32"/>
      <use x="186.71875" xlink:href="#DejaVuSans-80"/>
      <use x="247.021484" xlink:href="#DejaVuSans-67"/>
      <use x="316.845703" xlink:href="#DejaVuSans-58"/>
      <use x="350.537109" xlink:href="#DejaVuSans-32"/>
      <use x="382.324219" xlink:href="#DejaVuSans-57"/>
      <use x="445.947266" xlink:href="#DejaVuSans-56"/>
      <use x="509.570312" xlink:href="#DejaVuSans-46"/>
      <use x="541.357422" xlink:href="#DejaVuSans-55"/>
      <use x="604.980469" xlink:href="#DejaVuSans-52"/>
      <use x="668.603516" xlink:href="#DejaVuSans-32"/>
      <use x="700.390625" xlink:href="#DejaVuSans-37"/>
     </g>
    </g>
   </g>
   <g id="matplotlib.axis_2">
    <g id="ytick_1">
     <g id="line2d_9">
      <defs>
       <path d="M 0 0 
L -3.5 0 
" id="m7144946a0a" style="stroke:#000000;stroke-width:0.8;"/>
      </defs>
      <g>
       <use style="stroke:#000000;stroke-width:0.8;" x="49.665988" xlink:href="#m7144946a0a" y="246.7008"/>
      </g>
     </g>
     <g id="text_10">
      <!-- −4 -->
      <g transform="translate(27.9238 250.500019)scale(0.1 -0.1)">
       <use xlink:href="#DejaVuSans-8722"/>
       <use x="83.789062" xlink:href="#DejaVuSans-52"/>
      </g>
     </g>
    </g>
    <g id="ytick_2">
     <g id="line2d_10">
      <g>
       <use style="stroke:#000000;stroke-width:0.8;" x="49.665988" xlink:href="#m7144946a0a" y="193.4784"/>
      </g>
     </g>
     <g id="text_11">
      <!-- −2 -->
      <g transform="translate(27.9238 197.277619)scale(0.1 -0.1)">
       <use xlink:href="#DejaVuSans-8722"/>
       <use x="83.789062" xlink:href="#DejaVuSans-50"/>
      </g>
     </g>
    </g>
    <g id="ytick_3">
     <g id="line2d_11">
      <g>
       <use style="stroke:#000000;stroke-width:0.8;" x="49.665988" xlink:href="#m7144946a0a" y="140.256"/>
      </g>
     </g>
     <g id="text_12">
      <!-- 0 -->
      <g transform="translate(36.303488 144.055219)scale(0.1 -0.1)">
       <use xlink:href="#DejaVuSans-48"/>
      </g>
     </g>
    </g>
    <g id="ytick_4">
     <g id="line2d_12">
      <g>
       <use style="stroke:#000000;stroke-width:0.8;" x="49.665988" xlink:href="#m7144946a0a" y="87.0336"/>
      </g>
     </g>
     <g id="text_13">
      <!-- 2 -->
      <g transform="translate(36.303488 90.832819)scale(0.1 -0.1)">
       <use xlink:href="#DejaVuSans-50"/>
      </g>
     </g>
    </g>
    <g id="ytick_5">
     <g id="line2d_13">
      <g>
       <use style="stroke:#000000;stroke-width:0.8;" x="49.665988" xlink:href="#m7144946a0a" y="33.8112"/>
      </g>
     </g>
     <g id="text_14">
      <!-- 4 -->
      <g transform="translate(36.303488 37.610419)scale(0.1 -0.1)">
       <use xlink:href="#DejaVuSans-52"/>
      </g>
     </g>
    </g>
    <g id="text_15">
     <!-- 2nd PC: 0.66 % -->
     <g transform="translate(20.3301 206.5518)rotate(-90)scale(0.1728 -0.1728)">
      <defs>
       <path d="M 54.890625 33.015625 
L 54.890625 0 
L 45.90625 0 
L 45.90625 32.71875 
Q 45.90625 40.484375 42.875 44.328125 
Q 39.84375 48.1875 33.796875 48.1875 
Q 26.515625 48.1875 22.3125 43.546875 
Q 18.109375 38.921875 18.109375 30.90625 
L 18.109375 0 
L 9.078125 0 
L 9.078125 54.6875 
L 18.109375 54.6875 
L 18.109375 46.1875 
Q 21.34375 51.125 25.703125 53.5625 
Q 30.078125 56 35.796875 56 
Q 45.21875 56 50.046875 50.171875 
Q 54.890625 44.34375 54.890625 33.015625 
z
" id="DejaVuSans-110"/>
       <path d="M 45.40625 46.390625 
L 45.40625 75.984375 
L 54.390625 75.984375 
L 54.390625 0 
L 45.40625 0 
L 45.40625 8.203125 
Q 42.578125 3.328125 38.25 0.953125 
Q 33.9375 -1.421875 27.875 -1.421875 
Q 17.96875 -1.421875 11.734375 6.484375 
Q 5.515625 14.40625 5.515625 27.296875 
Q 5.515625 40.1875 11.734375 48.09375 
Q 17.96875 56 27.875 56 
Q 33.9375 56 38.25 53.625 
Q 42.578125 51.265625 45.40625 46.390625 
z
M 14.796875 27.296875 
Q 14.796875 17.390625 18.875 11.75 
Q 22.953125 6.109375 30.078125 6.109375 
Q 37.203125 6.109375 41.296875 11.75 
Q 45.40625 17.390625 45.40625 27.296875 
Q 45.40625 37.203125 41.296875 42.84375 
Q 37.203125 48.484375 30.078125 48.484375 
Q 22.953125 48.484375 18.875 42.84375 
Q 14.796875 37.203125 14.796875 27.296875 
z
" id="DejaVuSans-100"/>
      </defs>
      <use xlink:href="#DejaVuSans-50"/>
      <use x="63.623047" xlink:href="#DejaVuSans-110"/>
      <use x="127.001953" xlink:href="#DejaVuSans-100"/>
      <use x="190.478516" xlink:href="#DejaVuSans-32"/>
      <use x="222.265625" xlink:href="#DejaVuSans-80"/>
      <use x="282.568359" xlink:href="#DejaVuSans-67"/>
      <use x="352.392578" xlink:href="#DejaVuSans-58"/>
      <use x="386.083984" xlink:href="#DejaVuSans-32"/>
      <use x="417.871094" xlink:href="#DejaVuSans-48"/>
      <use x="481.494141" xlink:href="#DejaVuSans-46"/>
      <use x="513.28125" xlink:href="#DejaVuSans-54"/>
      <use x="576.904297" xlink:href="#DejaVuSans-54"/>
      <use x="640.527344" xlink:href="#DejaVuSans-32"/>
      <use x="672.314453" xlink:href="#DejaVuSans-37"/>
     </g>
    </g>
   </g>
   <g id="LineCollection_1"/>
   <g id="LineCollection_2"/>
   <g id="LineCollection_3"/>
   <g id="LineCollection_4">
    <path clip-path="url(#p9876b1fa81)" d="M 114.274956 135.110155 
L 114.279704 140.256 
L 114.126973 149.1264 
L 114.041196 151.286628 
L 113.62619 149.1264 
L 112.935791 140.256 
L 112.903311 131.3856 
L 113.161227 126.875325 
" style="fill:none;stroke:#453781;stroke-width:1.5;"/>
   </g>
   <g id="LineCollection_5">
    <path clip-path="url(#p9876b1fa81)" d="M 100.208046 106.938755 
L 100.383726 104.7744 
L 101.093001 95.904 
L 101.844712 87.0336 
L 102.795251 78.1632 
L 104.137318 70.364123 
L 104.464212 69.2928 
L 109.089257 64.914727 
L 109.6894 69.2928 
L 111.73652 78.1632 
L 114.041196 83.473082 
L 114.352989 87.0336 
L 115.180188 95.904 
L 116.176171 104.7744 
L 117.287018 113.6448 
L 118.424078 122.5152 
L 118.993135 127.566358 
L 119.055078 131.3856 
L 119.170558 140.256 
L 119.274452 149.1264 
L 119.370001 157.9968 
L 119.450041 166.8672 
L 119.496095 175.7376 
L 119.457467 184.608 
L 119.245402 193.4784 
L 118.993135 198.020029 
L 115.745832 202.3488 
L 114.041196 203.605305 
L 109.089257 205.995128 
L 104.137318 208.898288 
L 99.185379 211.116383 
L 94.233439 209.388146 
L 91.147326 202.3488 
L 90.763315 193.4784 
L 91.383542 184.608 
L 92.356929 175.7376 
L 93.503088 166.8672 
L 94.233439 161.640421 
L 94.672309 157.9968 
L 95.726413 149.1264 
L 96.768366 140.256 
L 97.792444 131.443397 
" style="fill:none;stroke:#404688;stroke-width:1.5;"/>
   </g>
   <g id="LineCollection_6">
    <path clip-path="url(#p9876b1fa81)" d="M 49.665988 120.937956 
L 54.617927 118.517479 
L 58.768595 113.6448 
L 59.569866 112.709914 
L 63.161626 104.7744 
L 64.521805 101.206411 
L 65.899272 95.904 
L 67.999084 87.0336 
L 69.473744 80.795622 
L 70.000172 78.1632 
L 71.682046 70.978871 
" style="fill:none;stroke:#39558c;stroke-width:1.5;"/>
    <path clip-path="url(#p9876b1fa81)" d="M 77.930471 50.843439 
L 79.377622 48.055593 
L 82.614188 42.6816 
L 84.329561 41.296576 
L 89.2815 39.434562 
L 94.233439 39.407063 
L 99.185379 40.004753 
L 104.137318 41.069633 
L 104.828649 42.6816 
L 109.089257 49.700176 
L 109.306186 51.552 
L 110.549996 60.4224 
L 112.861799 69.2928 
L 114.041196 72.607018 
L 114.550812 78.1632 
L 115.587211 87.0336 
L 116.972997 95.904 
L 118.677917 104.7744 
L 118.993135 106.587164 
L 119.20478 113.6448 
L 119.444265 122.5152 
L 119.670794 131.3856 
L 119.889384 140.256 
L 120.111189 149.1264 
L 120.345961 157.9968 
L 120.599079 166.8672 
L 120.866585 175.7376 
L 121.113892 184.608 
L 121.283752 193.4784 
L 121.267319 202.3488 
L 120.839503 211.2192 
L 119.371352 220.0896 
L 118.993135 221.198757 
L 114.041196 220.719151 
L 109.089257 221.998245 
L 104.137318 224.495938 
L 99.185379 227.214787 
L 94.855846 228.96 
L 94.233439 229.148291 
L 89.2815 229.39167 
L 86.989928 228.96 
L 84.329561 228.037688 
L 79.377622 225.198166 
L 74.425683 222.505707 
L 69.473744 220.677341 
L 66.570499 220.0896 
L 64.521805 219.079602 
L 59.569866 217.801488 
L 54.617927 217.147187 
L 49.665988 217.03439 
" style="fill:none;stroke:#39558c;stroke-width:1.5;"/>
   </g>
   <g id="LineCollection_7">
    <path clip-path="url(#p9876b1fa81)" d="M 49.665988 11.455271 
L 52.762469 7.2 
" style="fill:none;stroke:#33638d;stroke-width:1.5;"/>
    <path clip-path="url(#p9876b1fa81)" d="M 79.019459 7.2 
L 79.377622 7.479864 
L 84.329561 12.205324 
L 89.16247 16.0704 
L 89.2815 16.183541 
L 94.233439 21.422961 
L 98.642981 24.9408 
L 99.185379 25.422398 
L 104.137318 30.150784 
L 105.411536 33.8112 
L 108.496607 40.078711 
" style="fill:none;stroke:#33638d;stroke-width:1.5;"/>
    <path clip-path="url(#p9876b1fa81)" d="M 113.003857 62.441456 
L 114.041196 65.707522 
L 114.368378 69.2928 
L 115.368478 78.1632 
L 116.821433 87.0336 
L 118.765807 95.904 
L 118.993135 97.027866 
L 119.297787 104.7744 
L 119.636224 113.6448 
L 119.964632 122.5152 
L 120.28651 131.3856 
L 120.608209 140.256 
L 120.947925 149.1264 
L 121.321921 157.9968 
L 121.748116 166.8672 
L 122.237074 175.7376 
L 122.770317 184.608 
L 123.322103 193.4784 
L 123.845642 202.3488 
L 123.945074 204.905265 
L 124.003697 211.2192 
L 124.023443 220.0896 
L 123.945074 226.349503 
L 123.549864 228.96 
L 118.993135 234.753288 
L 114.041196 232.230688 
L 109.089257 232.514486 
L 104.137318 234.437716 
L 99.185379 236.856625 
L 96.674726 237.8304 
L 94.233439 238.563021 
L 89.2815 239.127353 
L 84.329561 238.770458 
L 79.377622 237.949357 
L 78.595824 237.8304 
L 74.425683 236.832715 
L 69.473744 236.262106 
L 64.521805 236.320022 
L 59.569866 236.826976 
L 54.617927 237.558561 
L 52.837346 237.8304 
L 49.665988 238.147821 
" style="fill:none;stroke:#33638d;stroke-width:1.5;"/>
   </g>
   <g id="LineCollection_8">
    <path clip-path="url(#p9876b1fa81)" d="M 89.55976 7.2 
L 94.233439 12.53136 
L 97.920749 16.0704 
L 99.185379 17.441673 
L 104.137318 23.052241 
L 104.725705 24.9408 
L 108.274279 33.8112 
L 109.089257 35.466878 
L 109.902062 42.6816 
L 111.471326 51.552 
L 114.041196 60.154553 
L 114.064737 60.4224 
L 114.889175 69.2928 
L 116.186144 78.1632 
L 118.055655 87.0336 
L 118.993135 91.160143 
L 119.230063 95.904 
L 119.646358 104.7744 
L 120.067667 113.6448 
L 120.484998 122.5152 
L 120.902226 131.3856 
L 121.327035 140.256 
L 121.784661 149.1264 
L 122.297881 157.9968 
L 122.897154 166.8672 
L 123.607564 175.7376 
L 123.945074 179.805153 
L 124.038812 184.608 
L 124.21927 193.4784 
L 124.416466 202.3488 
L 124.619178 211.2192 
L 124.810098 220.0896 
L 124.939971 228.96 
L 124.892967 237.8304 
L 124.28692 246.7008 
L 123.996627 248.256752 
" style="fill:none;stroke:#2d718e;stroke-width:1.5;"/>
    <path clip-path="url(#p9876b1fa81)" d="M 114.006495 241.587927 
L 109.089257 240.912682 
L 104.137318 242.148184 
L 99.185379 244.04662 
L 94.233439 245.628188 
L 89.2815 246.302775 
L 84.329561 246.005902 
L 79.377622 245.192967 
L 74.425683 244.4874 
L 69.473744 244.304056 
L 64.521805 244.658799 
L 59.569866 245.396021 
L 54.617927 246.304532 
L 52.561787 246.7008 
L 49.665988 247.10355 
" style="fill:none;stroke:#2d718e;stroke-width:1.5;"/>
   </g>
   <g id="LineCollection_9">
    <path clip-path="url(#p9876b1fa81)" d="M 95.199907 7.2 
L 99.185379 11.931247 
L 102.647289 16.0704 
L 104.137318 17.898858 
L 106.331259 24.9408 
L 109.089257 31.203361 
L 109.370122 33.8112 
L 110.55727 42.6816 
L 112.553896 51.552 
L 114.041196 56.530686 
L 114.383236 60.4224 
L 115.082405 66.462809 
" style="fill:none;stroke:#287d8e;stroke-width:1.5;"/>
    <path clip-path="url(#p9876b1fa81)" d="M 119.165599 89.426104 
L 119.501396 95.904 
L 119.994929 104.7744 
L 120.499111 113.6448 
L 121.005365 122.5152 
L 121.517942 131.3856 
L 122.04586 140.256 
L 122.621397 149.1264 
L 123.273842 157.9968 
L 123.945074 165.86096 
L 123.964692 166.8672 
L 124.145927 175.7376 
L 124.361172 184.608 
L 124.614153 193.4784 
L 124.906767 202.3488 
L 125.23466 211.2192 
L 125.596753 220.0896 
L 125.977992 228.96 
L 126.349637 237.8304 
L 126.578548 246.7008 
L 125.768885 255.5712 
L 123.945074 259.602444 
L 120.062668 255.5712 
L 118.993135 254.523974 
L 114.041196 249.646224 
L 109.089257 248.121453 
L 104.137318 248.743832 
L 99.185379 250.177739 
L 94.233439 251.418545 
L 89.2815 251.913782 
L 84.329561 251.627501 
L 79.377622 250.937211 
L 74.425683 250.3807 
L 69.473744 250.30687 
L 64.521805 250.723404 
L 59.569866 251.465966 
L 54.617927 252.356191 
L 49.665988 253.340525 
" style="fill:none;stroke:#287d8e;stroke-width:1.5;"/>
   </g>
   <g id="LineCollection_10">
    <path clip-path="url(#p9876b1fa81)" d="M 99.315345 7.2 
L 104.137318 14.01679 
L 104.740902 16.0704 
L 107.936813 24.9408 
L 109.089257 27.557643 
L 109.762767 33.8112 
L 111.212478 42.6816 
L 113.636466 51.552 
L 114.041196 52.906818 
L 114.701735 60.4224 
L 115.93077 69.2928 
L 117.821475 78.1632 
L 118.993135 82.91777 
L 119.243062 87.0336 
L 119.772729 95.904 
L 120.343501 104.7744 
L 120.930555 113.6448 
L 121.525731 122.5152 
L 122.133658 131.3856 
L 122.764686 140.256 
L 123.458133 149.1264 
L 123.945074 154.899418 
L 124.00391 157.9968 
L 124.187625 166.8672 
L 124.412406 175.7376 
L 124.683532 184.608 
L 125.009035 193.4784 
L 125.397067 202.3488 
L 125.850141 211.2192 
L 126.383408 220.0896 
L 127.016012 228.96 
L 127.806307 237.8304 
L 128.870175 246.7008 
L 128.897013 247.072695 
L 129.061355 255.5712 
L 128.897013 263.458282 
L 128.793507 263.779089 
" style="fill:none;stroke:#238a8d;stroke-width:1.5;"/>
    <path clip-path="url(#p9876b1fa81)" d="M 119.218522 262.764548 
L 118.993135 262.502009 
L 114.041196 256.8307 
L 111.432986 255.5712 
L 109.089257 254.457804 
L 104.137318 254.568499 
L 100.128292 255.5712 
L 99.185379 255.763154 
L 94.233439 256.741885 
L 89.2815 257.100295 
L 84.329561 256.795849 
L 79.377622 256.147187 
L 74.425683 255.644439 
L 69.473744 255.607721 
L 64.521805 256.039779 
L 59.569866 256.759884 
L 54.617927 257.607751 
L 49.665988 258.528226 
" style="fill:none;stroke:#238a8d;stroke-width:1.5;"/>
   </g>
   <g id="LineCollection_11">
    <path clip-path="url(#p9876b1fa81)" d="M 121.988138 273.312 
L 118.993135 269.685659 
L 115.003476 264.4416 
L 114.041196 263.271689 
L 109.089257 260.100709 
L 104.137318 259.707821 
L 99.185379 260.504087 
L 94.520933 261.311792 
" style="fill:none;stroke:#1f968b;stroke-width:1.5;"/>
    <path clip-path="url(#p9876b1fa81)" d="M 84.043531 261.181676 
L 79.377622 260.450478 
L 74.425683 259.853938 
L 69.473744 259.782167 
L 64.521805 260.253002 
L 59.569866 261.071568 
L 54.617927 262.058453 
L 49.665988 263.131699 
" style="fill:none;stroke:#1f968b;stroke-width:1.5;"/>
    <path clip-path="url(#p9876b1fa81)" d="M 105.441123 15.269862 
L 105.676412 16.0704 
L 109.089257 24.303867 
L 109.154323 24.9408 
L 110.155412 33.8112 
L 111.867686 42.6816 
L 114.041196 50.14355 
L 114.159947 51.552 
L 115.020234 60.4224 
L 116.451568 69.2928 
L 118.639141 78.1632 
L 118.993135 79.5997 
L 119.444546 87.0336 
L 120.044062 95.904 
L 120.692072 104.7744 
L 121.361998 113.6448 
L 122.046098 122.5152 
L 122.749374 131.3856 
L 123.483511 140.256 
L 123.945074 145.628566 
L 124.011799 149.1264 
L 124.192346 157.9968 
L 124.410557 166.8672 
L 124.678885 175.7376 
L 125.005893 184.608 
L 125.403917 193.4784 
L 125.887367 202.3488 
L 126.465623 211.2192 
L 127.170062 220.0896 
L 128.054033 228.96 
L 128.897013 235.7346 
L 128.977423 237.8304 
L 129.327674 246.7008 
L 129.675433 255.5712 
L 129.743371 264.4416 
L 128.991686 273.312 
" style="fill:none;stroke:#1f968b;stroke-width:1.5;"/>
   </g>
   <g id="LineCollection_12">
    <path clip-path="url(#p9876b1fa81)" d="M 117.053144 273.312 
L 114.041196 269.087752 
L 109.089257 265.460452 
L 104.137318 264.672854 
L 99.185379 265.140702 
L 94.233439 265.763727 
L 89.2815 265.912447 
L 84.608634 265.496663 
" style="fill:none;stroke:#20a386;stroke-width:1.5;"/>
    <path clip-path="url(#p9876b1fa81)" d="M 74.143389 264.057347 
L 69.473744 263.956613 
L 64.758991 264.4416 
L 64.521805 264.461901 
L 59.569866 265.20858 
L 54.617927 266.114793 
L 49.665988 267.100029 
" style="fill:none;stroke:#20a386;stroke-width:1.5;"/>
    <path clip-path="url(#p9876b1fa81)" d="M 107.023441 17.063186 
L 109.089257 22.046954 
L 109.38488 24.9408 
L 110.548057 33.8112 
L 112.522894 42.6816 
L 114.041196 47.894133 
L 114.349603 51.552 
L 115.338733 60.4224 
L 116.972366 69.2928 
L 118.993135 77.032128 
L 119.073689 78.1632 
L 119.64603 87.0336 
L 120.315395 95.904 
L 121.040643 104.7744 
L 121.793442 113.6448 
L 122.566465 122.5152 
L 123.36509 131.3856 
L 123.945074 137.813695 
L 123.993137 140.256 
L 124.171409 149.1264 
L 124.380782 157.9968 
L 124.633489 166.8672 
L 124.945363 175.7376 
L 125.328253 184.608 
L 125.7988 193.4784 
L 126.377668 202.3488 
L 127.081104 211.2192 
L 127.956717 220.0896 
L 128.897013 227.755031 
L 128.942309 228.96 
L 129.297483 237.8304 
L 129.763437 246.7008 
L 130.289511 255.5712 
L 130.618943 264.4416 
L 130.178544 273.312 
" style="fill:none;stroke:#20a386;stroke-width:1.5;"/>
   </g>
   <g id="LineCollection_13">
    <path clip-path="url(#p9876b1fa81)" d="M 112.591993 273.312 
L 109.089257 270.311189 
L 104.137318 269.066019 
L 99.185379 269.266065 
L 94.233439 269.730704 
L 89.2815 269.778015 
L 84.604921 269.257641 
" style="fill:none;stroke:#29af7f;stroke-width:1.5;"/>
    <path clip-path="url(#p9876b1fa81)" d="M 74.144051 267.655879 
L 69.473744 267.52951 
L 64.521805 267.935235 
L 59.569866 268.72047 
L 54.617927 269.716576 
L 49.665988 270.815753 
" style="fill:none;stroke:#29af7f;stroke-width:1.5;"/>
    <path clip-path="url(#p9876b1fa81)" d="M 109.90301 26.865613 
L 110.940702 33.8112 
L 113.178102 42.6816 
L 114.041196 45.644717 
L 114.539259 51.552 
L 115.657233 60.4224 
L 117.493163 69.2928 
L 118.993135 75.037529 
L 119.215742 78.1632 
L 119.847514 87.0336 
L 120.586728 95.904 
L 121.389215 104.7744 
L 122.224885 113.6448 
L 123.086831 122.5152 
L 123.945074 131.084087 
L 123.951555 131.3856 
L 124.127433 140.256 
L 124.331019 149.1264 
L 124.569218 157.9968 
L 124.856421 166.8672 
L 125.211842 175.7376 
L 125.650613 184.608 
L 126.193682 193.4784 
L 126.867968 202.3488 
L 127.696586 211.2192 
L 128.743372 220.0896 
L 128.897013 221.342103 
L 129.183378 228.96 
L 129.617543 237.8304 
L 130.199201 246.7008 
L 130.903589 255.5712 
L 131.494515 264.4416 
L 131.365402 273.312 
" style="fill:none;stroke:#29af7f;stroke-width:1.5;"/>
   </g>
   <g id="LineCollection_14">
    <path clip-path="url(#p9876b1fa81)" d="M 86.834836 273.312 
L 84.329561 272.98217 
L 79.377622 271.965604 
L 74.714055 271.247796 
" style="fill:none;stroke:#3dbc74;stroke-width:1.5;"/>
    <path clip-path="url(#p9876b1fa81)" d="M 64.235553 271.456189 
L 59.569866 272.232359 
L 54.646201 273.312 
" style="fill:none;stroke:#3dbc74;stroke-width:1.5;"/>
    <path clip-path="url(#p9876b1fa81)" d="M 110.298131 27.637291 
L 111.333348 33.8112 
L 113.83331 42.6816 
L 114.041196 43.3953 
L 114.728914 51.552 
L 115.975732 60.4224 
L 118.013961 69.2928 
L 118.993135 73.04293 
L 119.357794 78.1632 
L 120.048998 87.0336 
L 120.858061 95.904 
L 121.737786 104.7744 
L 122.656329 113.6448 
L 123.607198 122.5152 
L 123.945074 125.888631 
L 124.063238 131.3856 
L 124.261728 140.256 
L 124.490629 149.1264 
L 124.757654 157.9968 
L 125.079353 166.8672 
L 125.478321 175.7376 
L 125.972973 184.608 
L 126.588564 193.4784 
L 127.358269 202.3488 
L 128.312067 211.2192 
L 128.897013 216.022585 
L 129.046156 220.0896 
L 129.424447 228.96 
L 129.937604 237.8304 
L 130.634965 246.7008 
L 131.517667 255.5712 
L 132.370086 264.4416 
L 132.55226 273.312 
" style="fill:none;stroke:#3dbc74;stroke-width:1.5;"/>
   </g>
   <g id="LineCollection_15">
    <path clip-path="url(#p9876b1fa81)" d="M 110.580283 27.649777 
L 111.725993 33.8112 
L 114.041196 41.761119 
L 114.117866 42.6816 
L 114.91857 51.552 
L 116.294231 60.4224 
L 118.534759 69.2928 
L 118.993135 71.048332 
L 119.499847 78.1632 
L 120.250483 87.0336 
L 121.129394 95.904 
L 122.086357 104.7744 
L 123.087772 113.6448 
L 123.945074 121.184513 
L 123.977197 122.5152 
L 124.17492 131.3856 
L 124.396023 140.256 
L 124.650239 149.1264 
L 124.94609 157.9968 
L 125.302285 166.8672 
L 125.744799 175.7376 
L 126.295333 184.608 
L 126.983447 193.4784 
L 127.848569 202.3488 
L 128.897013 211.018064 
L 128.904173 211.2192 
L 129.231497 220.0896 
L 129.665516 228.96 
L 130.257664 237.8304 
L 131.070729 246.7008 
L 132.131745 255.5712 
L 133.245658 264.4416 
L 133.739119 273.312 
" style="fill:none;stroke:#56c667;stroke-width:1.5;"/>
   </g>
   <g id="LineCollection_16">
    <path clip-path="url(#p9876b1fa81)" d="M 109.366221 16.897074 
L 110.307108 24.9408 
L 112.118638 33.8112 
L 114.041196 40.412858 
L 114.230168 42.6816 
L 115.108226 51.552 
L 116.61273 60.4224 
L 118.993135 69.152791 
L 119.004546 69.2928 
L 119.6419 78.1632 
L 120.451967 87.0336 
L 121.400727 95.904 
L 122.434929 104.7744 
L 123.519216 113.6448 
L 123.945074 117.390096 
L 124.068796 122.5152 
L 124.286603 131.3856 
L 124.530319 140.256 
L 124.809849 149.1264 
L 125.134526 157.9968 
L 125.525217 166.8672 
L 126.011278 175.7376 
L 126.617693 184.608 
L 127.378329 193.4784 
L 128.33887 202.3488 
L 128.897013 206.963919 
L 129.048493 211.2192 
L 129.416838 220.0896 
L 129.906585 228.96 
L 130.577724 237.8304 
L 131.506492 246.7008 
L 132.745823 255.5712 
L 133.848952 263.13265 
L 133.906535 264.4416 
L 134.069181 273.312 
" style="fill:none;stroke:#75d054;stroke-width:1.5;"/>
   </g>
   <g id="LineCollection_17">
    <path clip-path="url(#p9876b1fa81)" d="M 109.567547 17.357642 
L 110.537665 24.9408 
L 112.511283 33.8112 
L 114.041196 39.064598 
L 114.342469 42.6816 
L 115.297882 51.552 
L 116.931229 60.4224 
L 118.993135 67.984661 
L 119.099754 69.2928 
L 119.783953 78.1632 
L 120.653451 87.0336 
L 121.67206 95.904 
L 122.7835 104.7744 
L 123.945074 113.610474 
L 123.946028 113.6448 
L 124.160395 122.5152 
L 124.398285 131.3856 
L 124.664614 140.256 
L 124.969459 149.1264 
L 125.322962 157.9968 
L 125.74815 166.8672 
L 126.277757 175.7376 
L 126.940053 184.608 
L 127.773211 193.4784 
L 128.82917 202.3488 
L 128.897013 202.909774 
L 129.192812 211.2192 
L 129.60218 220.0896 
L 130.147654 228.96 
L 130.897784 237.8304 
L 131.942256 246.7008 
L 133.359901 255.5712 
L 133.848952 258.923425 
L 134.091707 264.4416 
L 134.311868 273.312 
" style="fill:none;stroke:#95d840;stroke-width:1.5;"/>
   </g>
   <g id="LineCollection_18">
    <path clip-path="url(#p9876b1fa81)" d="M 109.777924 17.810705 
L 110.768222 24.9408 
L 112.903928 33.8112 
L 114.041196 37.716337 
L 114.45477 42.6816 
L 115.487538 51.552 
L 117.249729 60.4224 
L 118.993135 66.816531 
L 119.194962 69.2928 
L 119.926006 78.1632 
L 120.854935 87.0336 
L 121.943393 95.904 
L 123.132071 104.7744 
L 123.945074 110.958898 
L 124.019695 113.6448 
L 124.251994 122.5152 
L 124.509968 131.3856 
L 124.798909 140.256 
L 125.129069 149.1264 
L 125.511398 157.9968 
L 125.971082 166.8672 
L 126.544235 175.7376 
L 127.262413 184.608 
L 128.168094 193.4784 
L 128.897013 199.525948 
L 128.994702 202.3488 
L 129.337132 211.2192 
L 129.787521 220.0896 
L 130.388722 228.96 
L 131.217844 237.8304 
L 132.37802 246.7008 
L 133.848952 255.066603 
L 133.876984 255.5712 
L 134.276878 264.4416 
L 134.554556 273.312 
" style="fill:none;stroke:#bade28;stroke-width:1.5;"/>
   </g>
   <g id="LineCollection_19">
    <path clip-path="url(#p9876b1fa81)" d="M 109.997022 18.255688 
L 110.998779 24.9408 
L 113.296573 33.8112 
L 114.041196 36.368077 
L 114.567072 42.6816 
L 115.677194 51.552 
L 117.568228 60.4224 
L 118.993135 65.648401 
L 119.29017 69.2928 
L 120.068059 78.1632 
L 121.056419 87.0336 
L 122.214726 95.904 
L 123.480643 104.7744 
L 123.945074 108.307321 
L 124.093362 113.6448 
L 124.343593 122.5152 
L 124.62165 131.3856 
L 124.933205 140.256 
L 125.28868 149.1264 
L 125.699834 157.9968 
L 126.194014 166.8672 
L 126.810714 175.7376 
L 127.584773 184.608 
L 128.562976 193.4784 
L 128.897013 196.249771 
L 129.108079 202.3488 
L 129.481452 211.2192 
L 129.972862 220.0896 
L 130.629791 228.96 
L 131.537905 237.8304 
L 132.813784 246.7008 
L 133.848952 252.588233 
L 134.014663 255.5712 
L 134.462049 264.4416 
L 134.797243 273.312 
" style="fill:none;stroke:#dde318;stroke-width:1.5;"/>
   </g>
   <g id="LineCollection_20">
    <path clip-path="url(#p9876b1fa81)" d="M 110.224491 18.692084 
L 111.229336 24.9408 
L 113.689218 33.8112 
L 114.041196 35.019816 
L 114.679373 42.6816 
L 115.866849 51.552 
L 117.886727 60.4224 
L 118.993135 64.480271 
L 119.385377 69.2928 
L 120.210112 78.1632 
L 121.257904 87.0336 
L 122.486059 95.904 
L 123.829214 104.7744 
L 123.945074 105.655745 
L 124.167029 113.6448 
L 124.435192 122.5152 
L 124.733333 131.3856 
L 125.0675 140.256 
L 125.44829 149.1264 
L 125.88827 157.9968 
L 126.416946 166.8672 
L 127.077193 175.7376 
L 127.907133 184.608 
L 128.897013 193.054565 
L 128.910952 193.4784 
L 129.221456 202.3488 
L 129.625771 211.2192 
L 130.158204 220.0896 
L 130.87086 228.96 
L 131.857965 237.8304 
L 133.249547 246.7008 
L 133.848952 250.109864 
L 134.152343 255.5712 
L 134.647221 264.4416 
L 135.039931 273.312 
" style="fill:none;stroke:#fde725;stroke-width:1.5;"/>
   </g>
   <g id="LineCollection_21">
    <path clip-path="url(#p9876b1fa81)" d="M 108.897728 7.2 
L 109.089257 7.671272 
L 109.936248 16.0704 
L 111.459893 24.9408 
L 112.777204 29.426118 
" style="fill:none;stroke:#440154;stroke-width:1.5;"/>
    <path clip-path="url(#p9876b1fa81)" d="M 117.107965 55.89266 
L 118.205226 60.4224 
L 118.993135 63.312141 
L 119.480585 69.2928 
L 120.352165 78.1632 
L 121.459388 87.0336 
L 122.757392 95.904 
L 123.945074 103.600523 
L 123.983552 104.7744 
L 124.240697 113.6448 
L 124.526791 122.5152 
L 124.845015 131.3856 
L 125.201795 140.256 
L 125.6079 149.1264 
L 126.076706 157.9968 
L 126.639878 166.8672 
L 127.343672 175.7376 
L 128.229493 184.608 
L 128.897013 190.303893 
L 129.001415 193.4784 
L 129.334833 202.3488 
L 129.770091 211.2192 
L 130.343545 220.0896 
L 131.111929 228.96 
L 132.178025 237.8304 
L 133.685311 246.7008 
L 133.848952 247.631494 
L 134.290022 255.5712 
L 134.832392 264.4416 
L 135.282618 273.312 
" style="fill:none;stroke:#440154;stroke-width:1.5;"/>
   </g>
   <g id="LineCollection_22">
    <path clip-path="url(#p9876b1fa81)" d="M 115.820779 7.2 
L 117.755829 16.0704 
L 118.993135 20.641018 
L 119.460867 24.9408 
L 120.662267 33.8112 
L 122.527782 42.6816 
L 123.945074 47.999508 
L 124.242624 51.552 
L 125.054221 60.4224 
L 126.138706 69.2928 
L 127.559449 78.1632 
L 128.897013 85.241484 
L 128.963779 87.0336 
L 129.278148 95.904 
L 129.665023 104.7744 
L 130.155643 113.6448 
L 130.287299 115.497529 
" style="fill:none;stroke:#440154;stroke-width:1.5;"/>
    <path clip-path="url(#p9876b1fa81)" d="M 133.555285 146.878138 
L 133.848952 148.960812 
L 133.854068 149.1264 
L 134.130595 157.9968 
L 134.509168 166.8672 
L 135.022829 175.7376 
L 135.708596 184.608 
L 136.619104 193.4784 
L 137.797017 202.3488 
L 138.800891 208.683954 
L 138.917199 211.2192 
L 139.395655 220.0896 
L 140.062783 228.96 
L 140.961922 237.8304 
L 142.161314 246.7008 
L 143.75283 255.52278 
L 143.755181 255.5712 
L 144.192335 264.4416 
L 144.745444 273.312 
" style="fill:none;stroke:#440154;stroke-width:1.5;"/>
   </g>
   <g id="LineCollection_23">
    <path clip-path="url(#p9876b1fa81)" d="M 124.322481 7.2 
L 125.416819 16.0704 
L 127.051689 24.9408 
L 128.897013 32.262777 
L 129.009298 33.8112 
L 129.655228 42.6816 
L 130.507863 51.552 
L 131.617273 60.4224 
L 133.055048 69.2928 
L 133.848952 73.772007 
L 133.994961 78.1632 
L 134.320333 87.0336 
L 134.744221 95.904 
L 135.314517 104.7744 
L 136.091677 113.6448 
L 137.15878 122.5152 
L 137.240602 123.00804 
" style="fill:none;stroke:#440154;stroke-width:1.5;"/>
    <path clip-path="url(#p9876b1fa81)" d="M 140.102539 158.08129 
L 140.935705 166.8672 
L 142.125959 175.7376 
L 143.75283 184.48363 
L 143.757523 184.608 
L 144.101586 193.4784 
L 144.605653 202.3488 
L 145.332363 211.2192 
L 146.372404 220.0896 
L 147.843756 228.96 
L 148.70477 233.482225 
L 148.868114 237.8304 
L 149.255849 246.7008 
L 149.785904 255.5712 
L 150.493579 264.4416 
L 151.435174 273.312 
" style="fill:none;stroke:#440154;stroke-width:1.5;"/>
   </g>
   <g id="LineCollection_24">
    <path clip-path="url(#p9876b1fa81)" d="M 131.659768 7.2 
L 133.722145 16.0704 
L 133.848952 16.61727 
L 134.319132 24.9408 
L 134.977411 33.8112 
L 135.834028 42.6816 
L 136.933432 51.552 
L 138.349529 60.4224 
L 138.800891 63.115199 
L 139.001711 69.2928 
L 139.349398 78.1632 
L 139.811193 87.0336 
L 140.428542 95.904 
L 141.266846 104.7744 
L 142.417459 113.6448 
L 143.61356 120.625415 
" style="fill:none;stroke:#440154;stroke-width:1.5;"/>
    <path clip-path="url(#p9876b1fa81)" d="M 146.329344 159.570879 
L 147.380889 166.8672 
L 148.70477 173.86242 
L 148.773012 175.7376 
L 149.127241 184.608 
L 149.637216 193.4784 
L 150.378425 202.3488 
L 151.447967 211.2192 
L 152.995286 220.0896 
L 153.656709 223.477525 
L 153.859455 228.96 
L 154.252561 237.8304 
L 154.772528 246.7008 
L 155.457006 255.5712 
L 156.395419 264.4416 
L 157.704648 273.312 
" style="fill:none;stroke:#440154;stroke-width:1.5;"/>
   </g>
   <g id="LineCollection_25">
    <path clip-path="url(#p9876b1fa81)" d="M 138.987246 7.2 
L 139.522557 16.0704 
L 140.230423 24.9408 
L 141.148286 33.8112 
L 142.323094 42.6816 
L 143.75283 51.190277 
L 143.764926 51.552 
L 144.05386 60.4224 
L 144.432677 69.2928 
L 144.936857 78.1632 
L 145.610454 87.0336 
L 146.512638 95.904 
L 147.735638 104.7744 
L 148.70477 110.554296 
L 148.805701 113.6448 
L 149.135024 122.5152 
L 149.411306 127.935102 
" style="fill:none;stroke:#440154;stroke-width:1.5;"/>
    <path clip-path="url(#p9876b1fa81)" d="M 153.818726 169.564458 
L 154.055273 175.7376 
L 154.541073 184.608 
L 155.240655 193.4784 
L 156.254156 202.3488 
L 157.705386 211.2192 
L 158.608648 215.89462 
L 158.766688 220.0896 
L 159.148118 228.96 
L 159.663021 237.8304 
L 160.351703 246.7008 
L 161.261136 255.5712 
L 162.471605 264.4416 
L 163.560587 270.778839 
L 163.643204 273.312 
" style="fill:none;stroke:#440154;stroke-width:1.5;"/>
   </g>
   <g id="LineCollection_26">
    <path clip-path="url(#p9876b1fa81)" d="M 144.726798 7.2 
L 145.505152 16.0704 
L 146.510718 24.9408 
L 147.809184 33.8112 
L 148.70477 39.164045 
L 148.82117 42.6816 
L 149.140526 51.552 
L 149.554783 60.4224 
L 150.101598 69.2928 
L 150.829628 78.1632 
L 151.807074 87.0336 
L 153.123821 95.904 
L 153.656709 99.151506 
L 153.836483 104.7744 
L 154.18266 113.6448 
L 154.650028 122.5152 
L 154.938791 126.528626 
" style="fill:none;stroke:#450457;stroke-width:1.5;"/>
    <path clip-path="url(#p9876b1fa81)" d="M 159.284803 171.849749 
L 159.492845 175.7376 
L 160.165945 184.608 
L 161.138113 193.4784 
L 162.535433 202.3488 
L 163.560587 207.707028 
L 163.69532 211.2192 
L 164.079531 220.0896 
L 164.605374 228.96 
L 165.322526 237.8304 
L 166.279209 246.7008 
L 167.549069 255.5712 
L 168.512526 261.299364 
L 168.616234 264.4416 
L 168.947152 273.312 
" style="fill:none;stroke:#450457;stroke-width:1.5;"/>
   </g>
   <g id="LineCollection_27">
    <path clip-path="url(#p9876b1fa81)" d="M 150.781493 7.2 
L 151.894759 16.0704 
L 153.33107 24.9408 
L 153.656709 26.897505 
L 153.883436 33.8112 
L 154.23788 42.6816 
L 154.696046 51.552 
L 155.296899 60.4224 
L 156.08741 69.2928 
L 157.145169 78.1632 
L 158.577125 87.0336 
L 158.608648 87.225811 
L 158.885324 95.904 
L 159.259288 104.7744 
L 159.757507 113.6448 
L 160.384528 121.951696 
" style="fill:none;stroke:#482475;stroke-width:1.5;"/>
    <path clip-path="url(#p9876b1fa81)" d="M 164.809658 170.922775 
L 165.178615 175.7376 
L 166.136034 184.608 
L 167.516457 193.4784 
L 168.512526 198.755902 
L 168.649736 202.3488 
L 169.04443 211.2192 
L 169.587443 220.0896 
L 170.344062 228.96 
L 171.387941 237.8304 
L 172.788053 246.7008 
L 173.464465 250.599034 
L 173.638415 255.5712 
L 174.002271 264.4416 
L 174.479361 273.312 
" style="fill:none;stroke:#482475;stroke-width:1.5;"/>
   </g>
   <g id="LineCollection_28">
    <path clip-path="url(#p9876b1fa81)" d="M 157.290296 7.2 
L 158.608648 14.858154 
L 158.650482 16.0704 
L 158.955876 24.9408 
L 159.348924 33.8112 
L 159.856 42.6816 
L 160.519746 51.552 
L 161.391471 60.4224 
L 162.537884 69.2928 
L 163.560587 75.719728 
L 163.635472 78.1632 
L 163.938143 87.0336 
L 164.346464 95.904 
L 164.889147 104.7744 
L 165.611495 113.6448 
L 165.691645 114.377432 
" style="fill:none;stroke:#fde725;stroke-width:1.5;"/>
    <path clip-path="url(#p9876b1fa81)" d="M 170.244842 166.972161 
L 171.218387 175.7376 
L 172.593561 184.608 
L 173.464465 189.284384 
L 173.623037 193.4784 
L 174.028919 202.3488 
L 174.595468 211.2192 
L 175.382647 220.0896 
L 176.483807 228.96 
L 178.025921 237.8304 
L 178.416404 239.977888 
L 178.667455 246.7008 
L 179.084811 255.5712 
L 179.64319 264.4416 
L 180.356919 273.312 
" style="fill:none;stroke:#fde725;stroke-width:1.5;"/>
   </g>
   <g id="line2d_14">
    <path clip-path="url(#p9876b1fa81)" d="M 378.456951 44.896905 
L 389.780273 73.61544 
L 382.104197 84.365662 
L 374.112158 94.333483 
L 366.272158 102.979891 
L 358.579485 110.642514 
L 351.003456 118.033644 
L 343.561493 125.536362 
L 336.233697 133.62659 
L 329.023208 141.888788 
L 321.929914 150.509346 
L 314.955677 158.787914 
L 308.098407 167.006363 
L 301.350123 175.273607 
L 294.731646 183.014513 
L 288.186728 191.200985 
L 281.771132 198.646505 
L 275.422876 206.873402 
L 269.197547 213.695387 
L 263.067084 220.760053 
L 257.047516 226.804882 
L 251.128337 231.933543 
L 245.336844 235.869678 
L 239.646986 239.126852 
L 234.058778 241.530265 
L 228.545375 243.519292 
L 223.144382 244.691806 
L 217.84865 245.678132 
L 212.64381 245.890657 
L 207.526695 245.292755 
L 202.508721 244.371302 
L 197.570297 242.732091 
L 192.735425 241.292634 
L 187.973821 239.260597 
L 183.300573 236.358245 
L 178.69325 233.568281 
L 174.181327 229.74598 
L 169.741846 225.314325 
L 165.40516 221.272355 
L 161.129419 216.507493 
L 156.940287 211.102652 
L 152.849406 206.228942 
L 148.786102 200.914441 
L 144.854685 195.089999 
L 140.970831 189.659319 
L 137.14696 183.317941 
L 133.411408 177.408716 
L 129.732921 170.858102 
L 126.124962 163.352164 
L 122.614647 157.060307 
L 122.260901 156.699028 
L 121.905883 156.152276 
L 121.556525 155.477772 
L 121.208949 154.712353 
L 120.862337 154.067999 
L 120.516987 153.352252 
L 120.174176 152.699872 
L 119.832262 152.017787 
L 119.492396 151.400119 
L 119.154018 150.735116 
L 118.812603 149.99125 
L 118.477042 149.306129 
L 118.142167 148.689926 
L 117.801947 148.083997 
L 117.467873 147.413228 
L 117.134492 146.899674 
L 116.797126 146.265713 
L 116.462975 145.736223 
L 116.130335 144.998138 
L 115.798987 144.423871 
L 115.472117 143.887257 
L 115.140144 143.304159 
L 114.814393 142.765166 
L 114.482822 142.151574 
L 114.153967 141.52679 
L 114.120773 141.4814 
L 114.087923 141.435455 
L 114.055343 141.375439 
L 114.022228 141.334832 
L 113.989898 141.278092 
L 113.957071 141.223229 
L 113.924131 141.174991 
L 113.891197 141.112269 
L 113.858407 141.062571 
L 113.82547 141.02728 
L 113.792675 140.965622 
L 113.760042 140.913426 
L 113.726873 140.857136 
L 113.693653 140.822144 
L 113.660306 140.767938 
L 113.628769 140.719439 
L 113.596336 140.662795 
L 113.563221 140.60359 
L 113.530514 140.56383 
L 113.497797 140.510015 
L 113.465491 140.460987 
L 113.432732 140.40807 
L 113.399887 140.35771 
L 113.36668 140.303285 
" style="fill:none;stroke:#1f77b4;stroke-linecap:square;stroke-width:1.5;"/>
    <defs>
     <path d="M 0 1.5 
C 0.397805 1.5 0.77937 1.341951 1.06066 1.06066 
C 1.341951 0.77937 1.5 0.397805 1.5 0 
C 1.5 -0.397805 1.341951 -0.77937 1.06066 -1.06066 
C 0.77937 -1.341951 0.397805 -1.5 0 -1.5 
C -0.397805 -1.5 -0.77937 -1.341951 -1.06066 -1.06066 
C -1.341951 -0.77937 -1.5 -0.397805 -1.5 0 
C -1.5 0.397805 -1.341951 0.77937 -1.06066 1.06066 
C -0.77937 1.341951 -0.397805 1.5 0 1.5 
z
" id="m97da3754c6" style="stroke:#1f77b4;"/>
    </defs>
    <g clip-path="url(#p9876b1fa81)">
     <use style="fill:#1f77b4;stroke:#1f77b4;" x="378.456951" xlink:href="#m97da3754c6" y="44.896905"/>
     <use style="fill:#1f77b4;stroke:#1f77b4;" x="389.780273" xlink:href="#m97da3754c6" y="73.61544"/>
     <use style="fill:#1f77b4;stroke:#1f77b4;" x="382.104197" xlink:href="#m97da3754c6" y="84.365662"/>
     <use style="fill:#1f77b4;stroke:#1f77b4;" x="374.112158" xlink:href="#m97da3754c6" y="94.333483"/>
     <use style="fill:#1f77b4;stroke:#1f77b4;" x="366.272158" xlink:href="#m97da3754c6" y="102.979891"/>
     <use style="fill:#1f77b4;stroke:#1f77b4;" x="358.579485" xlink:href="#m97da3754c6" y="110.642514"/>
     <use style="fill:#1f77b4;stroke:#1f77b4;" x="351.003456" xlink:href="#m97da3754c6" y="118.033644"/>
     <use style="fill:#1f77b4;stroke:#1f77b4;" x="343.561493" xlink:href="#m97da3754c6" y="125.536362"/>
     <use style="fill:#1f77b4;stroke:#1f77b4;" x="336.233697" xlink:href="#m97da3754c6" y="133.62659"/>
     <use style="fill:#1f77b4;stroke:#1f77b4;" x="329.023208" xlink:href="#m97da3754c6" y="141.888788"/>
     <use style="fill:#1f77b4;stroke:#1f77b4;" x="321.929914" xlink:href="#m97da3754c6" y="150.509346"/>
     <use style="fill:#1f77b4;stroke:#1f77b4;" x="314.955677" xlink:href="#m97da3754c6" y="158.787914"/>
     <use style="fill:#1f77b4;stroke:#1f77b4;" x="308.098407" xlink:href="#m97da3754c6" y="167.006363"/>
     <use style="fill:#1f77b4;stroke:#1f77b4;" x="301.350123" xlink:href="#m97da3754c6" y="175.273607"/>
     <use style="fill:#1f77b4;stroke:#1f77b4;" x="294.731646" xlink:href="#m97da3754c6" y="183.014513"/>
     <use style="fill:#1f77b4;stroke:#1f77b4;" x="288.186728" xlink:href="#m97da3754c6" y="191.200985"/>
     <use style="fill:#1f77b4;stroke:#1f77b4;" x="281.771132" xlink:href="#m97da3754c6" y="198.646505"/>
     <use style="fill:#1f77b4;stroke:#1f77b4;" x="275.422876" xlink:href="#m97da3754c6" y="206.873402"/>
     <use style="fill:#1f77b4;stroke:#1f77b4;" x="269.197547" xlink:href="#m97da3754c6" y="213.695387"/>
     <use style="fill:#1f77b4;stroke:#1f77b4;" x="263.067084" xlink:href="#m97da3754c6" y="220.760053"/>
     <use style="fill:#1f77b4;stroke:#1f77b4;" x="257.047516" xlink:href="#m97da3754c6" y="226.804882"/>
     <use style="fill:#1f77b4;stroke:#1f77b4;" x="251.128337" xlink:href="#m97da3754c6" y="231.933543"/>
     <use style="fill:#1f77b4;stroke:#1f77b4;" x="245.336844" xlink:href="#m97da3754c6" y="235.869678"/>
     <use style="fill:#1f77b4;stroke:#1f77b4;" x="239.646986" xlink:href="#m97da3754c6" y="239.126852"/>
     <use style="fill:#1f77b4;stroke:#1f77b4;" x="234.058778" xlink:href="#m97da3754c6" y="241.530265"/>
     <use style="fill:#1f77b4;stroke:#1f77b4;" x="228.545375" xlink:href="#m97da3754c6" y="243.519292"/>
     <use style="fill:#1f77b4;stroke:#1f77b4;" x="223.144382" xlink:href="#m97da3754c6" y="244.691806"/>
     <use style="fill:#1f77b4;stroke:#1f77b4;" x="217.84865" xlink:href="#m97da3754c6" y="245.678132"/>
     <use style="fill:#1f77b4;stroke:#1f77b4;" x="212.64381" xlink:href="#m97da3754c6" y="245.890657"/>
     <use style="fill:#1f77b4;stroke:#1f77b4;" x="207.526695" xlink:href="#m97da3754c6" y="245.292755"/>
     <use style="fill:#1f77b4;stroke:#1f77b4;" x="202.508721" xlink:href="#m97da3754c6" y="244.371302"/>
     <use style="fill:#1f77b4;stroke:#1f77b4;" x="197.570297" xlink:href="#m97da3754c6" y="242.732091"/>
     <use style="fill:#1f77b4;stroke:#1f77b4;" x="192.735425" xlink:href="#m97da3754c6" y="241.292634"/>
     <use style="fill:#1f77b4;stroke:#1f77b4;" x="187.973821" xlink:href="#m97da3754c6" y="239.260597"/>
     <use style="fill:#1f77b4;stroke:#1f77b4;" x="183.300573" xlink:href="#m97da3754c6" y="236.358245"/>
     <use style="fill:#1f77b4;stroke:#1f77b4;" x="178.69325" xlink:href="#m97da3754c6" y="233.568281"/>
     <use style="fill:#1f77b4;stroke:#1f77b4;" x="174.181327" xlink:href="#m97da3754c6" y="229.74598"/>
     <use style="fill:#1f77b4;stroke:#1f77b4;" x="169.741846" xlink:href="#m97da3754c6" y="225.314325"/>
     <use style="fill:#1f77b4;stroke:#1f77b4;" x="165.40516" xlink:href="#m97da3754c6" y="221.272355"/>
     <use style="fill:#1f77b4;stroke:#1f77b4;" x="161.129419" xlink:href="#m97da3754c6" y="216.507493"/>
     <use style="fill:#1f77b4;stroke:#1f77b4;" x="156.940287" xlink:href="#m97da3754c6" y="211.102652"/>
     <use style="fill:#1f77b4;stroke:#1f77b4;" x="152.849406" xlink:href="#m97da3754c6" y="206.228942"/>
     <use style="fill:#1f77b4;stroke:#1f77b4;" x="148.786102" xlink:href="#m97da3754c6" y="200.914441"/>
     <use style="fill:#1f77b4;stroke:#1f77b4;" x="144.854685" xlink:href="#m97da3754c6" y="195.089999"/>
     <use style="fill:#1f77b4;stroke:#1f77b4;" x="140.970831" xlink:href="#m97da3754c6" y="189.659319"/>
     <use style="fill:#1f77b4;stroke:#1f77b4;" x="137.14696" xlink:href="#m97da3754c6" y="183.317941"/>
     <use style="fill:#1f77b4;stroke:#1f77b4;" x="133.411408" xlink:href="#m97da3754c6" y="177.408716"/>
     <use style="fill:#1f77b4;stroke:#1f77b4;" x="129.732921" xlink:href="#m97da3754c6" y="170.858102"/>
     <use style="fill:#1f77b4;stroke:#1f77b4;" x="126.124962" xlink:href="#m97da3754c6" y="163.352164"/>
     <use style="fill:#1f77b4;stroke:#1f77b4;" x="122.614647" xlink:href="#m97da3754c6" y="157.060307"/>
     <use style="fill:#1f77b4;stroke:#1f77b4;" x="122.260901" xlink:href="#m97da3754c6" y="156.699028"/>
     <use style="fill:#1f77b4;stroke:#1f77b4;" x="121.905883" xlink:href="#m97da3754c6" y="156.152276"/>
     <use style="fill:#1f77b4;stroke:#1f77b4;" x="121.556525" xlink:href="#m97da3754c6" y="155.477772"/>
     <use style="fill:#1f77b4;stroke:#1f77b4;" x="121.208949" xlink:href="#m97da3754c6" y="154.712353"/>
     <use style="fill:#1f77b4;stroke:#1f77b4;" x="120.862337" xlink:href="#m97da3754c6" y="154.067999"/>
     <use style="fill:#1f77b4;stroke:#1f77b4;" x="120.516987" xlink:href="#m97da3754c6" y="153.352252"/>
     <use style="fill:#1f77b4;stroke:#1f77b4;" x="120.174176" xlink:href="#m97da3754c6" y="152.699872"/>
     <use style="fill:#1f77b4;stroke:#1f77b4;" x="119.832262" xlink:href="#m97da3754c6" y="152.017787"/>
     <use style="fill:#1f77b4;stroke:#1f77b4;" x="119.492396" xlink:href="#m97da3754c6" y="151.400119"/>
     <use style="fill:#1f77b4;stroke:#1f77b4;" x="119.154018" xlink:href="#m97da3754c6" y="150.735116"/>
     <use style="fill:#1f77b4;stroke:#1f77b4;" x="118.812603" xlink:href="#m97da3754c6" y="149.99125"/>
     <use style="fill:#1f77b4;stroke:#1f77b4;" x="118.477042" xlink:href="#m97da3754c6" y="149.306129"/>
     <use style="fill:#1f77b4;stroke:#1f77b4;" x="118.142167" xlink:href="#m97da3754c6" y="148.689926"/>
     <use style="fill:#1f77b4;stroke:#1f77b4;" x="117.801947" xlink:href="#m97da3754c6" y="148.083997"/>
     <use style="fill:#1f77b4;stroke:#1f77b4;" x="117.467873" xlink:href="#m97da3754c6" y="147.413228"/>
     <use style="fill:#1f77b4;stroke:#1f77b4;" x="117.134492" xlink:href="#m97da3754c6" y="146.899674"/>
     <use style="fill:#1f77b4;stroke:#1f77b4;" x="116.797126" xlink:href="#m97da3754c6" y="146.265713"/>
     <use style="fill:#1f77b4;stroke:#1f77b4;" x="116.462975" xlink:href="#m97da3754c6" y="145.736223"/>
     <use style="fill:#1f77b4;stroke:#1f77b4;" x="116.130335" xlink:href="#m97da3754c6" y="144.998138"/>
     <use style="fill:#1f77b4;stroke:#1f77b4;" x="115.798987" xlink:href="#m97da3754c6" y="144.423871"/>
     <use style="fill:#1f77b4;stroke:#1f77b4;" x="115.472117" xlink:href="#m97da3754c6" y="143.887257"/>
     <use style="fill:#1f77b4;stroke:#1f77b4;" x="115.140144" xlink:href="#m97da3754c6" y="143.304159"/>
     <use style="fill:#1f77b4;stroke:#1f77b4;" x="114.814393" xlink:href="#m97da3754c6" y="142.765166"/>
     <use style="fill:#1f77b4;stroke:#1f77b4;" x="114.482822" xlink:href="#m97da3754c6" y="142.151574"/>
     <use style="fill:#1f77b4;stroke:#1f77b4;" x="114.153967" xlink:href="#m97da3754c6" y="141.52679"/>
     <use style="fill:#1f77b4;stroke:#1f77b4;" x="114.120773" xlink:href="#m97da3754c6" y="141.4814"/>
     <use style="fill:#1f77b4;stroke:#1f77b4;" x="114.087923" xlink:href="#m97da3754c6" y="141.435455"/>
     <use style="fill:#1f77b4;stroke:#1f77b4;" x="114.055343" xlink:href="#m97da3754c6" y="141.375439"/>
     <use style="fill:#1f77b4;stroke:#1f77b4;" x="114.022228" xlink:href="#m97da3754c6" y="141.334832"/>
     <use style="fill:#1f77b4;stroke:#1f77b4;" x="113.989898" xlink:href="#m97da3754c6" y="141.278092"/>
     <use style="fill:#1f77b4;stroke:#1f77b4;" x="113.957071" xlink:href="#m97da3754c6" y="141.223229"/>
     <use style="fill:#1f77b4;stroke:#1f77b4;" x="113.924131" xlink:href="#m97da3754c6" y="141.174991"/>
     <use style="fill:#1f77b4;stroke:#1f77b4;" x="113.891197" xlink:href="#m97da3754c6" y="141.112269"/>
     <use style="fill:#1f77b4;stroke:#1f77b4;" x="113.858407" xlink:href="#m97da3754c6" y="141.062571"/>
     <use style="fill:#1f77b4;stroke:#1f77b4;" x="113.82547" xlink:href="#m97da3754c6" y="141.02728"/>
     <use style="fill:#1f77b4;stroke:#1f77b4;" x="113.792675" xlink:href="#m97da3754c6" y="140.965622"/>
     <use style="fill:#1f77b4;stroke:#1f77b4;" x="113.760042" xlink:href="#m97da3754c6" y="140.913426"/>
     <use style="fill:#1f77b4;stroke:#1f77b4;" x="113.726873" xlink:href="#m97da3754c6" y="140.857136"/>
     <use style="fill:#1f77b4;stroke:#1f77b4;" x="113.693653" xlink:href="#m97da3754c6" y="140.822144"/>
     <use style="fill:#1f77b4;stroke:#1f77b4;" x="113.660306" xlink:href="#m97da3754c6" y="140.767938"/>
     <use style="fill:#1f77b4;stroke:#1f77b4;" x="113.628769" xlink:href="#m97da3754c6" y="140.719439"/>
     <use style="fill:#1f77b4;stroke:#1f77b4;" x="113.596336" xlink:href="#m97da3754c6" y="140.662795"/>
     <use style="fill:#1f77b4;stroke:#1f77b4;" x="113.563221" xlink:href="#m97da3754c6" y="140.60359"/>
     <use style="fill:#1f77b4;stroke:#1f77b4;" x="113.530514" xlink:href="#m97da3754c6" y="140.56383"/>
     <use style="fill:#1f77b4;stroke:#1f77b4;" x="113.497797" xlink:href="#m97da3754c6" y="140.510015"/>
     <use style="fill:#1f77b4;stroke:#1f77b4;" x="113.465491" xlink:href="#m97da3754c6" y="140.460987"/>
     <use style="fill:#1f77b4;stroke:#1f77b4;" x="113.432732" xlink:href="#m97da3754c6" y="140.40807"/>
     <use style="fill:#1f77b4;stroke:#1f77b4;" x="113.399887" xlink:href="#m97da3754c6" y="140.35771"/>
     <use style="fill:#1f77b4;stroke:#1f77b4;" x="113.36668" xlink:href="#m97da3754c6" y="140.303285"/>
    </g>
   </g>
   <g id="patch_3">
    <path d="M 49.665988 273.312 
L 49.665988 7.2 
" style="fill:none;stroke:#000000;stroke-linecap:square;stroke-linejoin:miter;stroke-width:0.8;"/>
   </g>
   <g id="patch_4">
    <path d="M 406.785988 273.312 
L 406.785988 7.2 
" style="fill:none;stroke:#000000;stroke-linecap:square;stroke-linejoin:miter;stroke-width:0.8;"/>
   </g>
   <g id="patch_5">
    <path d="M 49.665988 273.312 
L 406.785988 273.312 
" style="fill:none;stroke:#000000;stroke-linecap:square;stroke-linejoin:miter;stroke-width:0.8;"/>
   </g>
   <g id="patch_6">
    <path d="M 49.665988 7.2 
L 406.785988 7.2 
" style="fill:none;stroke:#000000;stroke-linecap:square;stroke-linejoin:miter;stroke-width:0.8;"/>
   </g>
   <g id="text_16">
    <g clip-path="url(#p9876b1fa81)">
     <!-- 1.500 -->
     <g style="fill:#453781;" transform="translate(110.341665 114.639891)rotate(-284.879472)scale(0.06 -0.06)">
      <use xlink:href="#DejaVuSans-49"/>
      <use x="63.623047" xlink:href="#DejaVuSans-46"/>
      <use x="95.410156" xlink:href="#DejaVuSans-53"/>
      <use x="159.033203" xlink:href="#DejaVuSans-48"/>
      <use x="222.65625" xlink:href="#DejaVuSans-48"/>
     </g>
    </g>
   </g>
   <g id="text_17">
    <g clip-path="url(#p9876b1fa81)">
     <!-- 2.000 -->
     <g style="fill:#404688;" transform="translate(98.811384 128.035059)rotate(-76.638069)scale(0.06 -0.06)">
      <use xlink:href="#DejaVuSans-50"/>
      <use x="63.623047" xlink:href="#DejaVuSans-46"/>
      <use x="95.410156" xlink:href="#DejaVuSans-48"/>
      <use x="159.033203" xlink:href="#DejaVuSans-48"/>
      <use x="222.65625" xlink:href="#DejaVuSans-48"/>
     </g>
    </g>
   </g>
   <g id="text_18">
    <g clip-path="url(#p9876b1fa81)">
     <!-- 2.500 -->
     <g style="fill:#39558c;" transform="translate(70.7602 68.310202)rotate(-53.486713)scale(0.06 -0.06)">
      <use xlink:href="#DejaVuSans-50"/>
      <use x="63.623047" xlink:href="#DejaVuSans-46"/>
      <use x="95.410156" xlink:href="#DejaVuSans-53"/>
      <use x="159.033203" xlink:href="#DejaVuSans-48"/>
      <use x="222.65625" xlink:href="#DejaVuSans-48"/>
     </g>
    </g>
   </g>
   <g id="text_19">
    <g clip-path="url(#p9876b1fa81)">
     <!-- 3.000 -->
     <g style="fill:#33638d;" transform="translate(105.550986 44.265139)rotate(-292.669033)scale(0.06 -0.06)">
      <use xlink:href="#DejaVuSans-51"/>
      <use x="63.623047" xlink:href="#DejaVuSans-46"/>
      <use x="95.410156" xlink:href="#DejaVuSans-48"/>
      <use x="159.033203" xlink:href="#DejaVuSans-48"/>
      <use x="222.65625" xlink:href="#DejaVuSans-48"/>
     </g>
    </g>
   </g>
   <g id="text_20">
    <g clip-path="url(#p9876b1fa81)">
     <!-- 3.500 -->
     <g style="fill:#2d718e;" transform="translate(110.281484 244.679319)rotate(-343.96779)scale(0.06 -0.06)">
      <use xlink:href="#DejaVuSans-51"/>
      <use x="63.623047" xlink:href="#DejaVuSans-46"/>
      <use x="95.410156" xlink:href="#DejaVuSans-53"/>
      <use x="159.033203" xlink:href="#DejaVuSans-48"/>
      <use x="222.65625" xlink:href="#DejaVuSans-48"/>
     </g>
    </g>
   </g>
   <g id="text_21">
    <g clip-path="url(#p9876b1fa81)">
     <!-- 4.000 -->
     <g style="fill:#287d8e;" transform="translate(111.62937 71.262638)rotate(-297.001641)scale(0.06 -0.06)">
      <use xlink:href="#DejaVuSans-52"/>
      <use x="63.623047" xlink:href="#DejaVuSans-46"/>
      <use x="95.410156" xlink:href="#DejaVuSans-48"/>
      <use x="159.033203" xlink:href="#DejaVuSans-48"/>
      <use x="222.65625" xlink:href="#DejaVuSans-48"/>
     </g>
    </g>
   </g>
   <g id="text_22">
    <g clip-path="url(#p9876b1fa81)">
     <!-- 4.500 -->
     <g style="fill:#238a8d;" transform="translate(115.273352 269.352339)rotate(-356.589347)scale(0.06 -0.06)">
      <use xlink:href="#DejaVuSans-52"/>
      <use x="63.623047" xlink:href="#DejaVuSans-46"/>
      <use x="95.410156" xlink:href="#DejaVuSans-53"/>
      <use x="159.033203" xlink:href="#DejaVuSans-48"/>
      <use x="222.65625" xlink:href="#DejaVuSans-48"/>
     </g>
    </g>
   </g>
   <g id="text_23">
    <g clip-path="url(#p9876b1fa81)">
     <!-- 5.000 -->
     <g style="fill:#1f968b;" transform="translate(80.683815 263.240275)rotate(-359.675198)scale(0.06 -0.06)">
      <use xlink:href="#DejaVuSans-53"/>
      <use x="63.623047" xlink:href="#DejaVuSans-46"/>
      <use x="95.410156" xlink:href="#DejaVuSans-48"/>
      <use x="159.033203" xlink:href="#DejaVuSans-48"/>
      <use x="222.65625" xlink:href="#DejaVuSans-48"/>
     </g>
    </g>
   </g>
   <g id="text_24">
    <g clip-path="url(#p9876b1fa81)">
     <!-- 5.000 -->
     <g style="fill:#1f968b;" transform="translate(93.602883 3.583711)rotate(-324.666818)scale(0.06 -0.06)">
      <use xlink:href="#DejaVuSans-53"/>
      <use x="63.623047" xlink:href="#DejaVuSans-46"/>
      <use x="95.410156" xlink:href="#DejaVuSans-48"/>
      <use x="159.033203" xlink:href="#DejaVuSans-48"/>
      <use x="222.65625" xlink:href="#DejaVuSans-48"/>
     </g>
    </g>
   </g>
   <g id="text_25">
    <g clip-path="url(#p9876b1fa81)">
     <!-- 5.500 -->
     <g style="fill:#20a386;" transform="translate(70.70706 265.855478)rotate(-356.647344)scale(0.06 -0.06)">
      <use xlink:href="#DejaVuSans-53"/>
      <use x="63.623047" xlink:href="#DejaVuSans-46"/>
      <use x="95.410156" xlink:href="#DejaVuSans-53"/>
      <use x="159.033203" xlink:href="#DejaVuSans-48"/>
      <use x="222.65625" xlink:href="#DejaVuSans-48"/>
     </g>
    </g>
   </g>
   <g id="text_26">
    <g clip-path="url(#p9876b1fa81)">
     <!-- 5.500 -->
     <g style="fill:#20a386;" transform="translate(97.26722 1.40475)rotate(-307.592201)scale(0.06 -0.06)">
      <use xlink:href="#DejaVuSans-53"/>
      <use x="63.623047" xlink:href="#DejaVuSans-46"/>
      <use x="95.410156" xlink:href="#DejaVuSans-53"/>
      <use x="159.033203" xlink:href="#DejaVuSans-48"/>
      <use x="222.65625" xlink:href="#DejaVuSans-48"/>
     </g>
    </g>
   </g>
   <g id="text_27">
    <g clip-path="url(#p9876b1fa81)">
     <!-- 6.000 -->
     <g style="fill:#29af7f;" transform="translate(70.699157 269.424591)rotate(-356.243027)scale(0.06 -0.06)">
      <use xlink:href="#DejaVuSans-54"/>
      <use x="63.623047" xlink:href="#DejaVuSans-46"/>
      <use x="95.410156" xlink:href="#DejaVuSans-48"/>
      <use x="159.033203" xlink:href="#DejaVuSans-48"/>
      <use x="222.65625" xlink:href="#DejaVuSans-48"/>
     </g>
    </g>
   </g>
   <g id="text_28">
    <g clip-path="url(#p9876b1fa81)">
     <!-- 6.000 -->
     <g style="fill:#29af7f;" transform="translate(101.225054 10.026404)rotate(-305.378307)scale(0.06 -0.06)">
      <use xlink:href="#DejaVuSans-54"/>
      <use x="63.623047" xlink:href="#DejaVuSans-46"/>
      <use x="95.410156" xlink:href="#DejaVuSans-48"/>
      <use x="159.033203" xlink:href="#DejaVuSans-48"/>
      <use x="222.65625" xlink:href="#DejaVuSans-48"/>
     </g>
    </g>
   </g>
   <g id="text_29">
    <g clip-path="url(#p9876b1fa81)">
     <!-- 6.500 -->
     <g style="fill:#3dbc74;" transform="translate(60.899883 272.752859)rotate(-0.493442)scale(0.06 -0.06)">
      <use xlink:href="#DejaVuSans-54"/>
      <use x="63.623047" xlink:href="#DejaVuSans-46"/>
      <use x="95.410156" xlink:href="#DejaVuSans-53"/>
      <use x="159.033203" xlink:href="#DejaVuSans-48"/>
      <use x="222.65625" xlink:href="#DejaVuSans-48"/>
     </g>
    </g>
   </g>
   <g id="text_30">
    <g clip-path="url(#p9876b1fa81)">
     <!-- 6.500 -->
     <g style="fill:#3dbc74;" transform="translate(102.568291 9.626857)rotate(-301.638143)scale(0.06 -0.06)">
      <use xlink:href="#DejaVuSans-54"/>
      <use x="63.623047" xlink:href="#DejaVuSans-46"/>
      <use x="95.410156" xlink:href="#DejaVuSans-53"/>
      <use x="159.033203" xlink:href="#DejaVuSans-48"/>
      <use x="222.65625" xlink:href="#DejaVuSans-48"/>
     </g>
    </g>
   </g>
   <g id="text_31">
    <g clip-path="url(#p9876b1fa81)">
     <!-- 7.000 -->
     <g style="fill:#56c667;" transform="translate(103.442759 8.925318)rotate(-299.296973)scale(0.06 -0.06)">
      <use xlink:href="#DejaVuSans-55"/>
      <use x="63.623047" xlink:href="#DejaVuSans-46"/>
      <use x="95.410156" xlink:href="#DejaVuSans-48"/>
      <use x="159.033203" xlink:href="#DejaVuSans-48"/>
      <use x="222.65625" xlink:href="#DejaVuSans-48"/>
     </g>
    </g>
   </g>
   <g id="text_32">
    <g clip-path="url(#p9876b1fa81)">
     <!-- 7.500 -->
     <g style="fill:#75d054;" transform="translate(99.024725 2.213696)rotate(-314.332416)scale(0.06 -0.06)">
      <use xlink:href="#DejaVuSans-55"/>
      <use x="63.623047" xlink:href="#DejaVuSans-46"/>
      <use x="95.410156" xlink:href="#DejaVuSans-53"/>
      <use x="159.033203" xlink:href="#DejaVuSans-48"/>
      <use x="222.65625" xlink:href="#DejaVuSans-48"/>
     </g>
    </g>
   </g>
   <g id="text_33">
    <g clip-path="url(#p9876b1fa81)">
     <!-- 8.000 -->
     <g style="fill:#95d840;" transform="translate(99.844214 1.829902)rotate(-311.211848)scale(0.06 -0.06)">
      <use xlink:href="#DejaVuSans-56"/>
      <use x="63.623047" xlink:href="#DejaVuSans-46"/>
      <use x="95.410156" xlink:href="#DejaVuSans-48"/>
      <use x="159.033203" xlink:href="#DejaVuSans-48"/>
      <use x="222.65625" xlink:href="#DejaVuSans-48"/>
     </g>
    </g>
   </g>
   <g id="text_34">
    <g clip-path="url(#p9876b1fa81)">
     <!-- 8.500 -->
     <g style="fill:#bade28;" transform="translate(101.011996 1.105339)rotate(-304.917382)scale(0.06 -0.06)">
      <use xlink:href="#DejaVuSans-56"/>
      <use x="63.623047" xlink:href="#DejaVuSans-46"/>
      <use x="95.410156" xlink:href="#DejaVuSans-53"/>
      <use x="159.033203" xlink:href="#DejaVuSans-48"/>
      <use x="222.65625" xlink:href="#DejaVuSans-48"/>
     </g>
    </g>
   </g>
   <g id="text_35">
    <g clip-path="url(#p9876b1fa81)">
     <!-- 9.000 -->
     <g style="fill:#dde318;" transform="translate(102.272695 0.440036)rotate(-298.476325)scale(0.06 -0.06)">
      <use xlink:href="#DejaVuSans-57"/>
      <use x="63.623047" xlink:href="#DejaVuSans-46"/>
      <use x="95.410156" xlink:href="#DejaVuSans-48"/>
      <use x="159.033203" xlink:href="#DejaVuSans-48"/>
      <use x="222.65625" xlink:href="#DejaVuSans-48"/>
     </g>
    </g>
   </g>
   <g id="text_36">
    <g clip-path="url(#p9876b1fa81)">
     <!-- 9.500 -->
     <g style="fill:#fde725;" transform="translate(103.601843 -0.138876)rotate(-292.047909)scale(0.06 -0.06)">
      <use xlink:href="#DejaVuSans-57"/>
      <use x="63.623047" xlink:href="#DejaVuSans-46"/>
      <use x="95.410156" xlink:href="#DejaVuSans-53"/>
      <use x="159.033203" xlink:href="#DejaVuSans-48"/>
      <use x="222.65625" xlink:href="#DejaVuSans-48"/>
     </g>
    </g>
   </g>
   <g id="text_37">
    <g clip-path="url(#p9876b1fa81)">
     <!-- 10.000 -->
     <g style="fill:#440154;" transform="translate(110.019672 33.186337)rotate(-287.719673)scale(0.06 -0.06)">
      <use xlink:href="#DejaVuSans-49"/>
      <use x="63.623047" xlink:href="#DejaVuSans-48"/>
      <use x="127.246094" xlink:href="#DejaVuSans-46"/>
      <use x="159.033203" xlink:href="#DejaVuSans-48"/>
      <use x="222.65625" xlink:href="#DejaVuSans-48"/>
      <use x="286.279297" xlink:href="#DejaVuSans-48"/>
     </g>
    </g>
   </g>
   <g id="text_38">
    <g clip-path="url(#p9876b1fa81)">
     <!-- 100.000 -->
     <g style="fill:#440154;" transform="translate(126.984297 119.749565)rotate(-284.010705)scale(0.06 -0.06)">
      <use xlink:href="#DejaVuSans-49"/>
      <use x="63.623047" xlink:href="#DejaVuSans-48"/>
      <use x="127.246094" xlink:href="#DejaVuSans-48"/>
      <use x="190.869141" xlink:href="#DejaVuSans-46"/>
      <use x="222.65625" xlink:href="#DejaVuSans-48"/>
      <use x="286.279297" xlink:href="#DejaVuSans-48"/>
      <use x="349.902344" xlink:href="#DejaVuSans-48"/>
     </g>
    </g>
   </g>
   <g id="text_39">
    <g clip-path="url(#p9876b1fa81)">
     <!-- 1000.000 -->
     <g style="fill:#440154;" transform="translate(134.96138 126.446094)rotate(-279.997391)scale(0.06 -0.06)">
      <use xlink:href="#DejaVuSans-49"/>
      <use x="63.623047" xlink:href="#DejaVuSans-48"/>
      <use x="127.246094" xlink:href="#DejaVuSans-48"/>
      <use x="190.869141" xlink:href="#DejaVuSans-48"/>
      <use x="254.492188" xlink:href="#DejaVuSans-46"/>
      <use x="286.279297" xlink:href="#DejaVuSans-48"/>
      <use x="349.902344" xlink:href="#DejaVuSans-48"/>
      <use x="413.525391" xlink:href="#DejaVuSans-48"/>
     </g>
    </g>
   </g>
   <g id="text_40">
    <g clip-path="url(#p9876b1fa81)">
     <!-- 10000.000 -->
     <g style="fill:#440154;" transform="translate(140.438744 124.478071)rotate(-278.817315)scale(0.06 -0.06)">
      <use xlink:href="#DejaVuSans-49"/>
      <use x="63.623047" xlink:href="#DejaVuSans-48"/>
      <use x="127.246094" xlink:href="#DejaVuSans-48"/>
      <use x="190.869141" xlink:href="#DejaVuSans-48"/>
      <use x="254.492188" xlink:href="#DejaVuSans-48"/>
      <use x="318.115234" xlink:href="#DejaVuSans-46"/>
      <use x="349.902344" xlink:href="#DejaVuSans-48"/>
      <use x="413.525391" xlink:href="#DejaVuSans-48"/>
      <use x="477.148438" xlink:href="#DejaVuSans-48"/>
     </g>
    </g>
   </g>
   <g id="text_41">
    <g clip-path="url(#p9876b1fa81)">
     <!-- 100000.000 -->
     <g style="fill:#440154;" transform="translate(144.544691 132.142901)rotate(-285.912231)scale(0.06 -0.06)">
      <use xlink:href="#DejaVuSans-49"/>
      <use x="63.623047" xlink:href="#DejaVuSans-48"/>
      <use x="127.246094" xlink:href="#DejaVuSans-48"/>
      <use x="190.869141" xlink:href="#DejaVuSans-48"/>
      <use x="254.492188" xlink:href="#DejaVuSans-48"/>
      <use x="318.115234" xlink:href="#DejaVuSans-48"/>
      <use x="381.738281" xlink:href="#DejaVuSans-46"/>
      <use x="413.525391" xlink:href="#DejaVuSans-48"/>
      <use x="477.148438" xlink:href="#DejaVuSans-48"/>
      <use x="540.771484" xlink:href="#DejaVuSans-48"/>
     </g>
    </g>
   </g>
   <g id="text_42">
    <g clip-path="url(#p9876b1fa81)">
     <!-- 1000000.000 -->
     <g style="fill:#450457;" transform="translate(151.01781 130.057454)rotate(-283.787201)scale(0.06 -0.06)">
      <use xlink:href="#DejaVuSans-49"/>
      <use x="63.623047" xlink:href="#DejaVuSans-48"/>
      <use x="127.246094" xlink:href="#DejaVuSans-48"/>
      <use x="190.869141" xlink:href="#DejaVuSans-48"/>
      <use x="254.492188" xlink:href="#DejaVuSans-48"/>
      <use x="318.115234" xlink:href="#DejaVuSans-48"/>
      <use x="381.738281" xlink:href="#DejaVuSans-48"/>
      <use x="445.361328" xlink:href="#DejaVuSans-46"/>
      <use x="477.148438" xlink:href="#DejaVuSans-48"/>
      <use x="540.771484" xlink:href="#DejaVuSans-48"/>
      <use x="604.394531" xlink:href="#DejaVuSans-48"/>
     </g>
    </g>
   </g>
   <g id="text_43">
    <g clip-path="url(#p9876b1fa81)">
     <!-- 10000000.000 -->
     <g style="fill:#482475;" transform="translate(157.259245 124.825613)rotate(-282.321107)scale(0.06 -0.06)">
      <use xlink:href="#DejaVuSans-49"/>
      <use x="63.623047" xlink:href="#DejaVuSans-48"/>
      <use x="127.246094" xlink:href="#DejaVuSans-48"/>
      <use x="190.869141" xlink:href="#DejaVuSans-48"/>
      <use x="254.492188" xlink:href="#DejaVuSans-48"/>
      <use x="318.115234" xlink:href="#DejaVuSans-48"/>
      <use x="381.738281" xlink:href="#DejaVuSans-48"/>
      <use x="445.361328" xlink:href="#DejaVuSans-48"/>
      <use x="508.984375" xlink:href="#DejaVuSans-46"/>
      <use x="540.771484" xlink:href="#DejaVuSans-48"/>
      <use x="604.394531" xlink:href="#DejaVuSans-48"/>
      <use x="668.017578" xlink:href="#DejaVuSans-48"/>
     </g>
    </g>
   </g>
   <g id="text_44">
    <g clip-path="url(#p9876b1fa81)">
     <!-- 100000000.000 -->
     <g style="fill:#fde725;" transform="translate(162.262802 117.2169)rotate(-281.592188)scale(0.06 -0.06)">
      <use xlink:href="#DejaVuSans-49"/>
      <use x="63.623047" xlink:href="#DejaVuSans-48"/>
      <use x="127.246094" xlink:href="#DejaVuSans-48"/>
      <use x="190.869141" xlink:href="#DejaVuSans-48"/>
      <use x="254.492188" xlink:href="#DejaVuSans-48"/>
      <use x="318.115234" xlink:href="#DejaVuSans-48"/>
      <use x="381.738281" xlink:href="#DejaVuSans-48"/>
      <use x="445.361328" xlink:href="#DejaVuSans-48"/>
      <use x="508.984375" xlink:href="#DejaVuSans-48"/>
      <use x="572.607422" xlink:href="#DejaVuSans-46"/>
      <use x="604.394531" xlink:href="#DejaVuSans-48"/>
      <use x="668.017578" xlink:href="#DejaVuSans-48"/>
      <use x="731.640625" xlink:href="#DejaVuSans-48"/>
     </g>
    </g>
   </g>
  </g>
 </g>
 <defs>
  <clipPath id="p9876b1fa81">
   <rect height="266.112" width="357.12" x="49.665988" y="7.2"/>
  </clipPath>
 </defs>
</svg>
