<?xml version="1.0" encoding="utf-8" standalone="no"?>
<!DOCTYPE svg PUBLIC "-//W3C//DTD SVG 1.1//EN"
  "http://www.w3.org/Graphics/SVG/1.1/DTD/svg11.dtd">
<!-- Created with matplotlib (https://matplotlib.org/) -->
<svg height="321.713144pt" version="1.1" viewBox="0 0 420.348487 321.713144" width="420.348487pt" xmlns="http://www.w3.org/2000/svg" xmlns:xlink="http://www.w3.org/1999/xlink">
 <metadata>
  <rdf:RDF xmlns:cc="http://creativecommons.org/ns#" xmlns:dc="http://purl.org/dc/elements/1.1/" xmlns:rdf="http://www.w3.org/1999/02/22-rdf-syntax-ns#">
   <cc:Work>
    <dc:type rdf:resource="http://purl.org/dc/dcmitype/StillImage"/>
    <dc:date>2021-09-18T17:51:51.095992</dc:date>
    <dc:format>image/svg+xml</dc:format>
    <dc:creator>
     <cc:Agent>
      <dc:title>Matplotlib v3.3.1, https://matplotlib.org/</dc:title>
     </cc:Agent>
    </dc:creator>
   </cc:Work>
  </rdf:RDF>
 </metadata>
 <defs>
  <style type="text/css">*{stroke-linecap:butt;stroke-linejoin:round;}</style>
 </defs>
 <g id="figure_1">
  <g id="patch_1">
   <path d="M 0 321.713144 
L 420.348487 321.713144 
L 420.348487 0 
L 0 0 
z
" style="fill:#ffffff;"/>
  </g>
  <g id="axes_1">
   <g id="patch_2">
    <path d="M 56.028488 277.111219 
L 413.148488 277.111219 
L 413.148488 10.999219 
L 56.028488 10.999219 
z
" style="fill:#ffffff;"/>
   </g>
   <g id="matplotlib.axis_1">
    <g id="xtick_1">
     <g id="line2d_1">
      <defs>
       <path d="M 0 0 
L 0 3.5 
" id="mb1e8f7182b" style="stroke:#000000;stroke-width:0.8;"/>
      </defs>
      <g>
       <use style="stroke:#000000;stroke-width:0.8;" x="56.028487" xlink:href="#mb1e8f7182b" y="277.111219"/>
      </g>
     </g>
     <g id="text_1">
      <!-- −10 -->
      <g transform="translate(45.476144 291.709656)scale(0.1 -0.1)">
       <defs>
        <path d="M 10.59375 35.5 
L 73.1875 35.5 
L 73.1875 27.203125 
L 10.59375 27.203125 
z
" id="DejaVuSans-8722"/>
        <path d="M 12.40625 8.296875 
L 28.515625 8.296875 
L 28.515625 63.921875 
L 10.984375 60.40625 
L 10.984375 69.390625 
L 28.421875 72.90625 
L 38.28125 72.90625 
L 38.28125 8.296875 
L 54.390625 8.296875 
L 54.390625 0 
L 12.40625 0 
z
" id="DejaVuSans-49"/>
        <path d="M 31.78125 66.40625 
Q 24.171875 66.40625 20.328125 58.90625 
Q 16.5 51.421875 16.5 36.375 
Q 16.5 21.390625 20.328125 13.890625 
Q 24.171875 6.390625 31.78125 6.390625 
Q 39.453125 6.390625 43.28125 13.890625 
Q 47.125 21.390625 47.125 36.375 
Q 47.125 51.421875 43.28125 58.90625 
Q 39.453125 66.40625 31.78125 66.40625 
z
M 31.78125 74.21875 
Q 44.046875 74.21875 50.515625 64.515625 
Q 56.984375 54.828125 56.984375 36.375 
Q 56.984375 17.96875 50.515625 8.265625 
Q 44.046875 -1.421875 31.78125 -1.421875 
Q 19.53125 -1.421875 13.0625 8.265625 
Q 6.59375 17.96875 6.59375 36.375 
Q 6.59375 54.828125 13.0625 64.515625 
Q 19.53125 74.21875 31.78125 74.21875 
z
" id="DejaVuSans-48"/>
       </defs>
       <use xlink:href="#DejaVuSans-8722"/>
       <use x="83.789062" xlink:href="#DejaVuSans-49"/>
       <use x="147.412109" xlink:href="#DejaVuSans-48"/>
      </g>
     </g>
    </g>
    <g id="xtick_2">
     <g id="line2d_2">
      <g>
       <use style="stroke:#000000;stroke-width:0.8;" x="132.429847" xlink:href="#mb1e8f7182b" y="277.111219"/>
      </g>
     </g>
     <g id="text_2">
      <!-- 0 -->
      <g transform="translate(129.248597 291.709656)scale(0.1 -0.1)">
       <use xlink:href="#DejaVuSans-48"/>
      </g>
     </g>
    </g>
    <g id="xtick_3">
     <g id="line2d_3">
      <g>
       <use style="stroke:#000000;stroke-width:0.8;" x="208.831206" xlink:href="#mb1e8f7182b" y="277.111219"/>
      </g>
     </g>
     <g id="text_3">
      <!-- 10 -->
      <g transform="translate(202.468706 291.709656)scale(0.1 -0.1)">
       <use xlink:href="#DejaVuSans-49"/>
       <use x="63.623047" xlink:href="#DejaVuSans-48"/>
      </g>
     </g>
    </g>
    <g id="xtick_4">
     <g id="line2d_4">
      <g>
       <use style="stroke:#000000;stroke-width:0.8;" x="285.232565" xlink:href="#mb1e8f7182b" y="277.111219"/>
      </g>
     </g>
     <g id="text_4">
      <!-- 20 -->
      <g transform="translate(278.870065 291.709656)scale(0.1 -0.1)">
       <defs>
        <path d="M 19.1875 8.296875 
L 53.609375 8.296875 
L 53.609375 0 
L 7.328125 0 
L 7.328125 8.296875 
Q 12.9375 14.109375 22.625 23.890625 
Q 32.328125 33.6875 34.8125 36.53125 
Q 39.546875 41.84375 41.421875 45.53125 
Q 43.3125 49.21875 43.3125 52.78125 
Q 43.3125 58.59375 39.234375 62.25 
Q 35.15625 65.921875 28.609375 65.921875 
Q 23.96875 65.921875 18.8125 64.3125 
Q 13.671875 62.703125 7.8125 59.421875 
L 7.8125 69.390625 
Q 13.765625 71.78125 18.9375 73 
Q 24.125 74.21875 28.421875 74.21875 
Q 39.75 74.21875 46.484375 68.546875 
Q 53.21875 62.890625 53.21875 53.421875 
Q 53.21875 48.921875 51.53125 44.890625 
Q 49.859375 40.875 45.40625 35.40625 
Q 44.1875 33.984375 37.640625 27.21875 
Q 31.109375 20.453125 19.1875 8.296875 
z
" id="DejaVuSans-50"/>
       </defs>
       <use xlink:href="#DejaVuSans-50"/>
       <use x="63.623047" xlink:href="#DejaVuSans-48"/>
      </g>
     </g>
    </g>
    <g id="xtick_5">
     <g id="line2d_5">
      <g>
       <use style="stroke:#000000;stroke-width:0.8;" x="361.633924" xlink:href="#mb1e8f7182b" y="277.111219"/>
      </g>
     </g>
     <g id="text_5">
      <!-- 30 -->
      <g transform="translate(355.271424 291.709656)scale(0.1 -0.1)">
       <defs>
        <path d="M 40.578125 39.3125 
Q 47.65625 37.796875 51.625 33 
Q 55.609375 28.21875 55.609375 21.1875 
Q 55.609375 10.40625 48.1875 4.484375 
Q 40.765625 -1.421875 27.09375 -1.421875 
Q 22.515625 -1.421875 17.65625 -0.515625 
Q 12.796875 0.390625 7.625 2.203125 
L 7.625 11.71875 
Q 11.71875 9.328125 16.59375 8.109375 
Q 21.484375 6.890625 26.8125 6.890625 
Q 36.078125 6.890625 40.9375 10.546875 
Q 45.796875 14.203125 45.796875 21.1875 
Q 45.796875 27.640625 41.28125 31.265625 
Q 36.765625 34.90625 28.71875 34.90625 
L 20.21875 34.90625 
L 20.21875 43.015625 
L 29.109375 43.015625 
Q 36.375 43.015625 40.234375 45.921875 
Q 44.09375 48.828125 44.09375 54.296875 
Q 44.09375 59.90625 40.109375 62.90625 
Q 36.140625 65.921875 28.71875 65.921875 
Q 24.65625 65.921875 20.015625 65.03125 
Q 15.375 64.15625 9.8125 62.3125 
L 9.8125 71.09375 
Q 15.4375 72.65625 20.34375 73.4375 
Q 25.25 74.21875 29.59375 74.21875 
Q 40.828125 74.21875 47.359375 69.109375 
Q 53.90625 64.015625 53.90625 55.328125 
Q 53.90625 49.265625 50.4375 45.09375 
Q 46.96875 40.921875 40.578125 39.3125 
z
" id="DejaVuSans-51"/>
       </defs>
       <use xlink:href="#DejaVuSans-51"/>
       <use x="63.623047" xlink:href="#DejaVuSans-48"/>
      </g>
     </g>
    </g>
    <g id="text_6">
     <!-- 1st PC: 84.40 % -->
     <g transform="translate(165.868088 310.919444)scale(0.1728 -0.1728)">
      <defs>
       <path d="M 44.28125 53.078125 
L 44.28125 44.578125 
Q 40.484375 46.53125 36.375 47.5 
Q 32.28125 48.484375 27.875 48.484375 
Q 21.1875 48.484375 17.84375 46.4375 
Q 14.5 44.390625 14.5 40.28125 
Q 14.5 37.15625 16.890625 35.375 
Q 19.28125 33.59375 26.515625 31.984375 
L 29.59375 31.296875 
Q 39.15625 29.25 43.1875 25.515625 
Q 47.21875 21.78125 47.21875 15.09375 
Q 47.21875 7.46875 41.1875 3.015625 
Q 35.15625 -1.421875 24.609375 -1.421875 
Q 20.21875 -1.421875 15.453125 -0.5625 
Q 10.6875 0.296875 5.421875 2 
L 5.421875 11.28125 
Q 10.40625 8.6875 15.234375 7.390625 
Q 20.0625 6.109375 24.8125 6.109375 
Q 31.15625 6.109375 34.5625 8.28125 
Q 37.984375 10.453125 37.984375 14.40625 
Q 37.984375 18.0625 35.515625 20.015625 
Q 33.0625 21.96875 24.703125 23.78125 
L 21.578125 24.515625 
Q 13.234375 26.265625 9.515625 29.90625 
Q 5.8125 33.546875 5.8125 39.890625 
Q 5.8125 47.609375 11.28125 51.796875 
Q 16.75 56 26.8125 56 
Q 31.78125 56 36.171875 55.265625 
Q 40.578125 54.546875 44.28125 53.078125 
z
" id="DejaVuSans-115"/>
       <path d="M 18.3125 70.21875 
L 18.3125 54.6875 
L 36.8125 54.6875 
L 36.8125 47.703125 
L 18.3125 47.703125 
L 18.3125 18.015625 
Q 18.3125 11.328125 20.140625 9.421875 
Q 21.96875 7.515625 27.59375 7.515625 
L 36.8125 7.515625 
L 36.8125 0 
L 27.59375 0 
Q 17.1875 0 13.234375 3.875 
Q 9.28125 7.765625 9.28125 18.015625 
L 9.28125 47.703125 
L 2.6875 47.703125 
L 2.6875 54.6875 
L 9.28125 54.6875 
L 9.28125 70.21875 
z
" id="DejaVuSans-116"/>
       <path id="DejaVuSans-32"/>
       <path d="M 19.671875 64.796875 
L 19.671875 37.40625 
L 32.078125 37.40625 
Q 38.96875 37.40625 42.71875 40.96875 
Q 46.484375 44.53125 46.484375 51.125 
Q 46.484375 57.671875 42.71875 61.234375 
Q 38.96875 64.796875 32.078125 64.796875 
z
M 9.8125 72.90625 
L 32.078125 72.90625 
Q 44.34375 72.90625 50.609375 67.359375 
Q 56.890625 61.8125 56.890625 51.125 
Q 56.890625 40.328125 50.609375 34.8125 
Q 44.34375 29.296875 32.078125 29.296875 
L 19.671875 29.296875 
L 19.671875 0 
L 9.8125 0 
z
" id="DejaVuSans-80"/>
       <path d="M 64.40625 67.28125 
L 64.40625 56.890625 
Q 59.421875 61.53125 53.78125 63.8125 
Q 48.140625 66.109375 41.796875 66.109375 
Q 29.296875 66.109375 22.65625 58.46875 
Q 16.015625 50.828125 16.015625 36.375 
Q 16.015625 21.96875 22.65625 14.328125 
Q 29.296875 6.6875 41.796875 6.6875 
Q 48.140625 6.6875 53.78125 8.984375 
Q 59.421875 11.28125 64.40625 15.921875 
L 64.40625 5.609375 
Q 59.234375 2.09375 53.4375 0.328125 
Q 47.65625 -1.421875 41.21875 -1.421875 
Q 24.65625 -1.421875 15.125 8.703125 
Q 5.609375 18.84375 5.609375 36.375 
Q 5.609375 53.953125 15.125 64.078125 
Q 24.65625 74.21875 41.21875 74.21875 
Q 47.75 74.21875 53.53125 72.484375 
Q 59.328125 70.75 64.40625 67.28125 
z
" id="DejaVuSans-67"/>
       <path d="M 11.71875 12.40625 
L 22.015625 12.40625 
L 22.015625 0 
L 11.71875 0 
z
M 11.71875 51.703125 
L 22.015625 51.703125 
L 22.015625 39.3125 
L 11.71875 39.3125 
z
" id="DejaVuSans-58"/>
       <path d="M 31.78125 34.625 
Q 24.75 34.625 20.71875 30.859375 
Q 16.703125 27.09375 16.703125 20.515625 
Q 16.703125 13.921875 20.71875 10.15625 
Q 24.75 6.390625 31.78125 6.390625 
Q 38.8125 6.390625 42.859375 10.171875 
Q 46.921875 13.96875 46.921875 20.515625 
Q 46.921875 27.09375 42.890625 30.859375 
Q 38.875 34.625 31.78125 34.625 
z
M 21.921875 38.8125 
Q 15.578125 40.375 12.03125 44.71875 
Q 8.5 49.078125 8.5 55.328125 
Q 8.5 64.0625 14.71875 69.140625 
Q 20.953125 74.21875 31.78125 74.21875 
Q 42.671875 74.21875 48.875 69.140625 
Q 55.078125 64.0625 55.078125 55.328125 
Q 55.078125 49.078125 51.53125 44.71875 
Q 48 40.375 41.703125 38.8125 
Q 48.828125 37.15625 52.796875 32.3125 
Q 56.78125 27.484375 56.78125 20.515625 
Q 56.78125 9.90625 50.3125 4.234375 
Q 43.84375 -1.421875 31.78125 -1.421875 
Q 19.734375 -1.421875 13.25 4.234375 
Q 6.78125 9.90625 6.78125 20.515625 
Q 6.78125 27.484375 10.78125 32.3125 
Q 14.796875 37.15625 21.921875 38.8125 
z
M 18.3125 54.390625 
Q 18.3125 48.734375 21.84375 45.5625 
Q 25.390625 42.390625 31.78125 42.390625 
Q 38.140625 42.390625 41.71875 45.5625 
Q 45.3125 48.734375 45.3125 54.390625 
Q 45.3125 60.0625 41.71875 63.234375 
Q 38.140625 66.40625 31.78125 66.40625 
Q 25.390625 66.40625 21.84375 63.234375 
Q 18.3125 60.0625 18.3125 54.390625 
z
" id="DejaVuSans-56"/>
       <path d="M 37.796875 64.3125 
L 12.890625 25.390625 
L 37.796875 25.390625 
z
M 35.203125 72.90625 
L 47.609375 72.90625 
L 47.609375 25.390625 
L 58.015625 25.390625 
L 58.015625 17.1875 
L 47.609375 17.1875 
L 47.609375 0 
L 37.796875 0 
L 37.796875 17.1875 
L 4.890625 17.1875 
L 4.890625 26.703125 
z
" id="DejaVuSans-52"/>
       <path d="M 10.6875 12.40625 
L 21 12.40625 
L 21 0 
L 10.6875 0 
z
" id="DejaVuSans-46"/>
       <path d="M 72.703125 32.078125 
Q 68.453125 32.078125 66.03125 28.46875 
Q 63.625 24.859375 63.625 18.40625 
Q 63.625 12.0625 66.03125 8.421875 
Q 68.453125 4.78125 72.703125 4.78125 
Q 76.859375 4.78125 79.265625 8.421875 
Q 81.6875 12.0625 81.6875 18.40625 
Q 81.6875 24.8125 79.265625 28.4375 
Q 76.859375 32.078125 72.703125 32.078125 
z
M 72.703125 38.28125 
Q 80.421875 38.28125 84.953125 32.90625 
Q 89.5 27.546875 89.5 18.40625 
Q 89.5 9.28125 84.9375 3.921875 
Q 80.375 -1.421875 72.703125 -1.421875 
Q 64.890625 -1.421875 60.34375 3.921875 
Q 55.8125 9.28125 55.8125 18.40625 
Q 55.8125 27.59375 60.375 32.9375 
Q 64.9375 38.28125 72.703125 38.28125 
z
M 22.3125 68.015625 
Q 18.109375 68.015625 15.6875 64.375 
Q 13.28125 60.75 13.28125 54.390625 
Q 13.28125 47.953125 15.671875 44.328125 
Q 18.0625 40.71875 22.3125 40.71875 
Q 26.5625 40.71875 28.96875 44.328125 
Q 31.390625 47.953125 31.390625 54.390625 
Q 31.390625 60.6875 28.953125 64.34375 
Q 26.515625 68.015625 22.3125 68.015625 
z
M 66.40625 74.21875 
L 74.21875 74.21875 
L 28.609375 -1.421875 
L 20.796875 -1.421875 
z
M 22.3125 74.21875 
Q 30.03125 74.21875 34.609375 68.875 
Q 39.203125 63.53125 39.203125 54.390625 
Q 39.203125 45.171875 34.640625 39.84375 
Q 30.078125 34.515625 22.3125 34.515625 
Q 14.546875 34.515625 10.03125 39.859375 
Q 5.515625 45.21875 5.515625 54.390625 
Q 5.515625 63.484375 10.046875 68.84375 
Q 14.59375 74.21875 22.3125 74.21875 
z
" id="DejaVuSans-37"/>
      </defs>
      <use xlink:href="#DejaVuSans-49"/>
      <use x="63.623047" xlink:href="#DejaVuSans-115"/>
      <use x="115.722656" xlink:href="#DejaVuSans-116"/>
      <use x="154.931641" xlink:href="#DejaVuSans-32"/>
      <use x="186.71875" xlink:href="#DejaVuSans-80"/>
      <use x="247.021484" xlink:href="#DejaVuSans-67"/>
      <use x="316.845703" xlink:href="#DejaVuSans-58"/>
      <use x="350.537109" xlink:href="#DejaVuSans-32"/>
      <use x="382.324219" xlink:href="#DejaVuSans-56"/>
      <use x="445.947266" xlink:href="#DejaVuSans-52"/>
      <use x="509.570312" xlink:href="#DejaVuSans-46"/>
      <use x="541.357422" xlink:href="#DejaVuSans-52"/>
      <use x="604.980469" xlink:href="#DejaVuSans-48"/>
      <use x="668.603516" xlink:href="#DejaVuSans-32"/>
      <use x="700.390625" xlink:href="#DejaVuSans-37"/>
     </g>
    </g>
   </g>
   <g id="matplotlib.axis_2">
    <g id="ytick_1">
     <g id="line2d_6">
      <defs>
       <path d="M 0 0 
L -3.5 0 
" id="m54afa6f267" style="stroke:#000000;stroke-width:0.8;"/>
      </defs>
      <g>
       <use style="stroke:#000000;stroke-width:0.8;" x="56.028488" xlink:href="#m54afa6f267" y="277.111219"/>
      </g>
     </g>
     <g id="text_7">
      <!-- −15 -->
      <g transform="translate(27.9238 280.910438)scale(0.1 -0.1)">
       <defs>
        <path d="M 10.796875 72.90625 
L 49.515625 72.90625 
L 49.515625 64.59375 
L 19.828125 64.59375 
L 19.828125 46.734375 
Q 21.96875 47.46875 24.109375 47.828125 
Q 26.265625 48.1875 28.421875 48.1875 
Q 40.625 48.1875 47.75 41.5 
Q 54.890625 34.8125 54.890625 23.390625 
Q 54.890625 11.625 47.5625 5.09375 
Q 40.234375 -1.421875 26.90625 -1.421875 
Q 22.3125 -1.421875 17.546875 -0.640625 
Q 12.796875 0.140625 7.71875 1.703125 
L 7.71875 11.625 
Q 12.109375 9.234375 16.796875 8.0625 
Q 21.484375 6.890625 26.703125 6.890625 
Q 35.15625 6.890625 40.078125 11.328125 
Q 45.015625 15.765625 45.015625 23.390625 
Q 45.015625 31 40.078125 35.4375 
Q 35.15625 39.890625 26.703125 39.890625 
Q 22.75 39.890625 18.8125 39.015625 
Q 14.890625 38.140625 10.796875 36.28125 
z
" id="DejaVuSans-53"/>
       </defs>
       <use xlink:href="#DejaVuSans-8722"/>
       <use x="83.789062" xlink:href="#DejaVuSans-49"/>
       <use x="147.412109" xlink:href="#DejaVuSans-53"/>
      </g>
     </g>
    </g>
    <g id="ytick_2">
     <g id="line2d_7">
      <g>
       <use style="stroke:#000000;stroke-width:0.8;" x="56.028488" xlink:href="#m54afa6f267" y="223.888819"/>
      </g>
     </g>
     <g id="text_8">
      <!-- −10 -->
      <g transform="translate(27.9238 227.688037)scale(0.1 -0.1)">
       <use xlink:href="#DejaVuSans-8722"/>
       <use x="83.789062" xlink:href="#DejaVuSans-49"/>
       <use x="147.412109" xlink:href="#DejaVuSans-48"/>
      </g>
     </g>
    </g>
    <g id="ytick_3">
     <g id="line2d_8">
      <g>
       <use style="stroke:#000000;stroke-width:0.8;" x="56.028488" xlink:href="#m54afa6f267" y="170.666419"/>
      </g>
     </g>
     <g id="text_9">
      <!-- −5 -->
      <g transform="translate(34.2863 174.465637)scale(0.1 -0.1)">
       <use xlink:href="#DejaVuSans-8722"/>
       <use x="83.789062" xlink:href="#DejaVuSans-53"/>
      </g>
     </g>
    </g>
    <g id="ytick_4">
     <g id="line2d_9">
      <g>
       <use style="stroke:#000000;stroke-width:0.8;" x="56.028488" xlink:href="#m54afa6f267" y="117.444019"/>
      </g>
     </g>
     <g id="text_10">
      <!-- 0 -->
      <g transform="translate(42.665987 121.243237)scale(0.1 -0.1)">
       <use xlink:href="#DejaVuSans-48"/>
      </g>
     </g>
    </g>
    <g id="ytick_5">
     <g id="line2d_10">
      <g>
       <use style="stroke:#000000;stroke-width:0.8;" x="56.028488" xlink:href="#m54afa6f267" y="64.221619"/>
      </g>
     </g>
     <g id="text_11">
      <!-- 5 -->
      <g transform="translate(42.665987 68.020837)scale(0.1 -0.1)">
       <use xlink:href="#DejaVuSans-53"/>
      </g>
     </g>
    </g>
    <g id="ytick_6">
     <g id="line2d_11">
      <g>
       <use style="stroke:#000000;stroke-width:0.8;" x="56.028488" xlink:href="#m54afa6f267" y="10.999219"/>
      </g>
     </g>
     <g id="text_12">
      <!-- 10 -->
      <g transform="translate(36.303488 14.798437)scale(0.1 -0.1)">
       <use xlink:href="#DejaVuSans-49"/>
       <use x="63.623047" xlink:href="#DejaVuSans-48"/>
      </g>
     </g>
    </g>
    <g id="text_13">
     <!-- 2nd PC: 13.46 % -->
     <g transform="translate(20.3301 215.848219)rotate(-90)scale(0.1728 -0.1728)">
      <defs>
       <path d="M 54.890625 33.015625 
L 54.890625 0 
L 45.90625 0 
L 45.90625 32.71875 
Q 45.90625 40.484375 42.875 44.328125 
Q 39.84375 48.1875 33.796875 48.1875 
Q 26.515625 48.1875 22.3125 43.546875 
Q 18.109375 38.921875 18.109375 30.90625 
L 18.109375 0 
L 9.078125 0 
L 9.078125 54.6875 
L 18.109375 54.6875 
L 18.109375 46.1875 
Q 21.34375 51.125 25.703125 53.5625 
Q 30.078125 56 35.796875 56 
Q 45.21875 56 50.046875 50.171875 
Q 54.890625 44.34375 54.890625 33.015625 
z
" id="DejaVuSans-110"/>
       <path d="M 45.40625 46.390625 
L 45.40625 75.984375 
L 54.390625 75.984375 
L 54.390625 0 
L 45.40625 0 
L 45.40625 8.203125 
Q 42.578125 3.328125 38.25 0.953125 
Q 33.9375 -1.421875 27.875 -1.421875 
Q 17.96875 -1.421875 11.734375 6.484375 
Q 5.515625 14.40625 5.515625 27.296875 
Q 5.515625 40.1875 11.734375 48.09375 
Q 17.96875 56 27.875 56 
Q 33.9375 56 38.25 53.625 
Q 42.578125 51.265625 45.40625 46.390625 
z
M 14.796875 27.296875 
Q 14.796875 17.390625 18.875 11.75 
Q 22.953125 6.109375 30.078125 6.109375 
Q 37.203125 6.109375 41.296875 11.75 
Q 45.40625 17.390625 45.40625 27.296875 
Q 45.40625 37.203125 41.296875 42.84375 
Q 37.203125 48.484375 30.078125 48.484375 
Q 22.953125 48.484375 18.875 42.84375 
Q 14.796875 37.203125 14.796875 27.296875 
z
" id="DejaVuSans-100"/>
       <path d="M 33.015625 40.375 
Q 26.375 40.375 22.484375 35.828125 
Q 18.609375 31.296875 18.609375 23.390625 
Q 18.609375 15.53125 22.484375 10.953125 
Q 26.375 6.390625 33.015625 6.390625 
Q 39.65625 6.390625 43.53125 10.953125 
Q 47.40625 15.53125 47.40625 23.390625 
Q 47.40625 31.296875 43.53125 35.828125 
Q 39.65625 40.375 33.015625 40.375 
z
M 52.59375 71.296875 
L 52.59375 62.3125 
Q 48.875 64.0625 45.09375 64.984375 
Q 41.3125 65.921875 37.59375 65.921875 
Q 27.828125 65.921875 22.671875 59.328125 
Q 17.53125 52.734375 16.796875 39.40625 
Q 19.671875 43.65625 24.015625 45.921875 
Q 28.375 48.1875 33.59375 48.1875 
Q 44.578125 48.1875 50.953125 41.515625 
Q 57.328125 34.859375 57.328125 23.390625 
Q 57.328125 12.15625 50.6875 5.359375 
Q 44.046875 -1.421875 33.015625 -1.421875 
Q 20.359375 -1.421875 13.671875 8.265625 
Q 6.984375 17.96875 6.984375 36.375 
Q 6.984375 53.65625 15.1875 63.9375 
Q 23.390625 74.21875 37.203125 74.21875 
Q 40.921875 74.21875 44.703125 73.484375 
Q 48.484375 72.75 52.59375 71.296875 
z
" id="DejaVuSans-54"/>
      </defs>
      <use xlink:href="#DejaVuSans-50"/>
      <use x="63.623047" xlink:href="#DejaVuSans-110"/>
      <use x="127.001953" xlink:href="#DejaVuSans-100"/>
      <use x="190.478516" xlink:href="#DejaVuSans-32"/>
      <use x="222.265625" xlink:href="#DejaVuSans-80"/>
      <use x="282.568359" xlink:href="#DejaVuSans-67"/>
      <use x="352.392578" xlink:href="#DejaVuSans-58"/>
      <use x="386.083984" xlink:href="#DejaVuSans-32"/>
      <use x="417.871094" xlink:href="#DejaVuSans-49"/>
      <use x="481.494141" xlink:href="#DejaVuSans-51"/>
      <use x="545.117188" xlink:href="#DejaVuSans-46"/>
      <use x="576.904297" xlink:href="#DejaVuSans-52"/>
      <use x="640.527344" xlink:href="#DejaVuSans-54"/>
      <use x="704.150391" xlink:href="#DejaVuSans-32"/>
      <use x="735.9375" xlink:href="#DejaVuSans-37"/>
     </g>
    </g>
   </g>
   <g id="LineCollection_1"/>
   <g id="LineCollection_2"/>
   <g id="LineCollection_3"/>
   <g id="LineCollection_4"/>
   <g id="LineCollection_5">
    <path clip-path="url(#pcd384b8ffd)" d="M 141.479749 127.911277 
L 141.784143 135.184819 
L 141.033195 144.055219 
L 140.069983 146.393698 
L 132.429847 145.593235 
L 130.639342 144.055219 
L 124.789711 137.818157 
L 123.458375 135.184819 
L 123.382342 126.314419 
L 124.335553 117.444019 
L 124.789711 116.565281 
L 132.065561 114.667681 
" style="fill:none;stroke:#404688;stroke-width:1.5;"/>
   </g>
   <g id="LineCollection_6">
    <path clip-path="url(#pcd384b8ffd)" d="M 285.232565 150.390897 
L 279.362948 152.925619 
L 277.592429 153.468901 
L 269.952293 155.408576 
L 262.312157 156.854154 
L 254.672021 157.482661 
L 247.031886 157.13142 
L 239.39175 155.961699 
L 231.751614 154.362525 
L 225.487035 152.925619 
L 224.111478 152.590757 
L 216.838048 150.862414 
" style="fill:none;stroke:#39558c;stroke-width:1.5;"/>
    <path clip-path="url(#pcd384b8ffd)" d="M 200.781293 147.921497 
L 193.550934 147.8942 
L 185.910798 149.28053 
L 178.270662 152.148061 
L 177.367891 152.925619 
L 170.630526 158.353929 
L 168.761053 161.796019 
L 165.520155 170.666419 
L 165.016264 179.536819 
L 166.798754 188.407219 
L 162.99039 196.565765 
L 155.350254 194.0045 
L 150.950048 188.407219 
L 147.710119 184.678872 
L 146.001702 179.536819 
L 140.069983 171.064156 
L 139.879491 170.666419 
L 133.085516 161.796019 
L 132.429847 161.148159 
L 124.789711 153.896264 
L 123.526136 152.925619 
L 117.149575 146.406273 
L 116.404211 144.055219 
L 115.942692 135.184819 
L 116.450522 126.314419 
L 117.149575 121.63149 
L 118.930909 117.444019 
L 123.911176 108.573619 
L 124.789711 107.837534 
L 132.429847 104.742276 
L 140.069983 100.418649 
L 141.149408 99.703219 
L 147.710119 96.54525 
L 153.269412 90.832819 
L 155.350254 88.095506 
L 159.948032 81.962419 
L 162.298288 73.092019 
L 162.976546 64.221619 
L 162.99039 63.946745 
L 166.698527 55.351219 
L 168.481191 46.480819 
L 169.407079 37.610419 
L 170.336509 28.740019 
L 170.597107 19.869619 
L 170.630526 19.448982 
L 177.840552 10.999219 
" style="fill:none;stroke:#39558c;stroke-width:1.5;"/>
    <path clip-path="url(#pcd384b8ffd)" d="M 265.433683 10.999219 
L 269.952293 17.939204 
L 270.976435 19.869619 
L 272.840147 23.65951 
" style="fill:none;stroke:#39558c;stroke-width:1.5;"/>
    <path clip-path="url(#pcd384b8ffd)" d="M 280.548692 45.562903 
L 280.75882 46.480819 
L 283.101228 55.351219 
L 285.232565 61.429545 
" style="fill:none;stroke:#39558c;stroke-width:1.5;"/>
    <path clip-path="url(#pcd384b8ffd)" d="M 216.764237 214.893887 
L 216.798928 215.018419 
L 216.471342 215.169921 
L 208.831206 215.40122 
L 203.451578 215.018419 
L 201.19107 209.239573 
L 199.761689 206.148019 
L 201.19107 205.503496 
L 203.216183 205.224696 
" style="fill:none;stroke:#39558c;stroke-width:1.5;"/>
   </g>
   <g id="LineCollection_7">
    <path clip-path="url(#pcd384b8ffd)" d="M 285.232565 185.70749 
L 277.819323 188.407219 
L 277.592429 188.476444 
L 269.952293 191.045974 
L 262.312157 194.279607 
L 256.104511 197.277619 
L 254.672021 197.971747 
L 247.031886 205.323875 
L 246.461756 206.148019 
L 242.542303 215.018419 
L 241.758473 220.876703 
" style="fill:none;stroke:#33638d;stroke-width:1.5;"/>
    <path clip-path="url(#pcd384b8ffd)" d="M 231.506796 229.992799 
L 224.111478 227.592128 
L 216.471342 225.919012 
L 208.831206 224.772202 
L 201.19107 223.993513 
L 200.168831 223.888819 
L 193.550934 221.688902 
L 185.910798 219.131482 
L 178.270662 216.430496 
L 174.723398 215.018419 
L 170.630526 212.00561 
L 162.99039 207.785039 
L 159.730086 206.148019 
L 155.350254 202.942691 
L 148.887789 197.277619 
L 147.710119 195.857157 
L 144.72826 188.407219 
L 140.069983 180.304141 
L 139.771347 179.536819 
L 135.264217 170.666419 
L 132.429847 167.164613 
L 126.681355 161.796019 
L 124.789711 159.927428 
L 117.149575 153.669312 
L 116.370748 152.925619 
L 113.859344 144.055219 
L 114.07631 135.184819 
L 114.553963 126.314419 
L 115.609376 117.444019 
L 117.149575 113.439682 
L 120.185113 108.573619 
L 124.789711 104.715634 
L 132.177671 99.703219 
L 132.429847 99.611685 
L 140.069983 96.808386 
L 147.010787 90.832819 
L 147.710119 90.335235 
L 154.658225 81.962419 
L 155.350254 80.618964 
L 159.825275 73.092019 
L 161.806462 64.221619 
L 162.581425 55.351219 
L 162.979966 46.480819 
L 162.99039 46.23174 
L 166.089302 37.610419 
L 169.455682 28.740019 
L 170.409445 19.869619 
L 170.630526 17.086982 
L 175.825102 10.999219 
" style="fill:none;stroke:#33638d;stroke-width:1.5;"/>
   </g>
   <g id="LineCollection_8">
    <path clip-path="url(#pcd384b8ffd)" d="M 285.232565 200.476431 
L 277.592429 203.373251 
L 270.961881 206.148019 
L 269.952293 206.543016 
L 262.312157 210.981211 
L 258.679735 215.018419 
L 254.672021 221.75368 
L 253.682128 223.888819 
L 253.211234 232.759219 
L 247.031886 237.737403 
L 239.39175 235.929333 
L 232.235097 234.42652 
" style="fill:none;stroke:#2d718e;stroke-width:1.5;"/>
    <path clip-path="url(#pcd384b8ffd)" d="M 216.448726 229.271732 
L 208.831206 227.387547 
L 201.19107 226.318568 
L 193.550934 225.46414 
L 185.910798 224.309013 
L 184.315693 223.888819 
L 178.270662 220.721195 
L 170.630526 216.924515 
L 166.71379 215.018419 
L 162.99039 212.335306 
L 155.350254 207.691681 
L 153.187986 206.148019 
L 147.710119 200.755762 
L 145.608418 197.277619 
L 141.07577 188.407219 
L 140.069983 186.65765 
L 137.298611 179.536819 
L 132.429847 172.119945 
L 131.223168 170.666419 
L 124.789711 164.024306 
L 121.763969 161.796019 
L 117.149575 157.62863 
L 112.224387 152.925619 
L 111.314478 144.055219 
L 112.209927 135.184819 
L 112.657405 126.314419 
L 113.311967 117.444019 
L 116.693773 108.573619 
L 117.149575 108.154874 
L 124.789711 101.593735 
L 127.576203 99.703219 
L 132.429847 97.941466 
L 140.069983 93.68415 
L 143.381891 90.832819 
L 147.710119 87.753229 
L 152.51557 81.962419 
L 155.350254 76.459378 
L 157.352262 73.092019 
L 160.636378 64.221619 
L 161.932265 55.351219 
L 162.593673 46.480819 
L 162.974344 37.610419 
L 162.99039 37.519073 
L 168.574855 28.740019 
L 170.221783 19.869619 
L 170.630526 14.724982 
L 173.809651 10.999219 
" style="fill:none;stroke:#2d718e;stroke-width:1.5;"/>
   </g>
   <g id="LineCollection_9">
    <path clip-path="url(#pcd384b8ffd)" d="M 285.232565 210.971341 
L 277.592429 214.23449 
L 275.965682 215.018419 
L 269.952293 218.387038 
L 264.789235 223.888819 
L 262.312157 229.210182 
L 261.177676 232.759219 
L 262.312157 235.31916 
L 264.421621 241.629619 
L 262.312157 243.75576 
L 254.672021 243.758759 
L 247.031886 242.300435 
L 244.255926 241.629619 
L 239.39175 239.082405 
L 231.751614 236.413076 
L 224.111478 234.357656 
L 216.745343 232.759219 
L 216.471342 232.63564 
L 208.831206 230.002892 
L 201.19107 228.643622 
L 193.550934 227.687643 
L 185.910798 226.46603 
L 178.270662 224.405206 
L 176.961957 223.888819 
L 170.630526 219.997484 
L 162.99039 215.944692 
L 161.307388 215.018419 
L 155.350254 210.67922 
L 149.003224 206.148019 
L 147.710119 204.875123 
L 143.119256 197.277619 
L 140.069983 191.704095 
L 138.902398 188.407219 
L 134.825875 179.536819 
L 132.429847 175.886808 
L 128.096019 170.666419 
L 124.789711 167.252878 
L 124.691243 167.180362 
" style="fill:none;stroke:#287d8e;stroke-width:1.5;"/>
    <path clip-path="url(#pcd384b8ffd)" d="M 110.49931 155.176107 
L 109.509439 154.221725 
L 109.163075 152.925619 
L 109.194723 144.055219 
L 109.509439 140.559202 
L 110.343544 135.184819 
L 110.760846 126.314419 
L 111.014557 117.444019 
L 114.23427 108.573619 
L 117.149575 105.895329 
L 123.828413 99.703219 
L 124.789711 99.300708 
L 132.429847 96.271247 
L 139.870377 90.832819 
L 140.069983 90.734387 
L 147.710119 85.171223 
L 150.372916 81.962419 
L 155.194836 73.092019 
L 155.350254 72.636422 
L 159.466295 64.221619 
L 161.283106 55.351219 
L 162.207381 46.480819 
L 162.731095 37.610419 
L 162.99039 36.134369 
L 167.694028 28.740019 
L 170.034121 19.869619 
L 170.630526 12.362982 
L 171.7942 10.999219 
" style="fill:none;stroke:#287d8e;stroke-width:1.5;"/>
   </g>
   <g id="LineCollection_10">
    <path clip-path="url(#pcd384b8ffd)" d="M 285.232565 219.7722 
L 277.592429 223.342091 
L 276.825052 223.888819 
L 269.952293 231.741654 
L 269.36994 232.759219 
L 269.952293 237.678003 
L 270.293702 241.629619 
L 277.553976 250.500019 
L 269.952293 251.331532 
L 263.766812 250.500019 
L 262.312157 249.664678 
L 254.672021 245.978691 
L 247.031886 243.755452 
L 239.39175 241.856892 
L 238.523289 241.629619 
L 231.751614 238.501157 
L 224.111478 235.97345 
L 216.471342 234.094168 
L 209.236126 232.759219 
L 208.831206 232.618237 
L 201.19107 230.968677 
L 193.550934 229.911146 
L 185.910798 228.623047 
L 178.270662 226.37806 
L 171.962057 223.888819 
L 170.630526 223.070452 
L 162.99039 218.202026 
L 157.205902 215.018419 
L 155.350254 213.666758 
L 147.710119 207.707078 
L 146.344037 206.148019 
L 140.630094 197.277619 
L 140.069983 196.253836 
L 137.291113 188.407219 
L 132.429847 179.627097 
L 132.374077 179.536819 
L 124.96887 170.666419 
L 124.789711 170.481449 
L 117.149575 163.939569 
L 113.465572 161.796019 
L 109.509439 157.976144 
L 108.159765 152.925619 
L 108.112158 144.055219 
L 108.772208 135.184819 
L 108.944271 126.314419 
L 108.81143 117.444019 
L 109.509439 115.027526 
L 111.774766 108.573619 
L 117.149575 103.635783 
L 121.391257 99.703219 
L 124.789711 98.280233 
L 132.429847 94.601028 
L 137.585284 90.832819 
L 140.069983 89.607535 
L 147.710119 82.589217 
L 148.230261 81.962419 
L 154.378815 73.092019 
L 155.350254 70.244311 
L 158.296211 64.221619 
L 160.633947 55.351219 
L 161.728985 47.169014 
" style="fill:none;stroke:#238a8d;stroke-width:1.5;"/>
    <path clip-path="url(#pcd384b8ffd)" d="M 168.062232 25.087375 
L 169.846459 19.869619 
L 170.610027 10.999219 
" style="fill:none;stroke:#238a8d;stroke-width:1.5;"/>
   </g>
   <g id="LineCollection_11">
    <path clip-path="url(#pcd384b8ffd)" d="M 285.232565 227.527994 
L 277.971284 232.759219 
L 277.592429 234.088251 
L 276.324358 241.629619 
L 277.592429 243.174632 
L 282.064921 250.500019 
L 277.592429 253.066386 
L 269.952293 252.71478 
L 262.312157 251.454175 
L 258.850985 250.500019 
L 254.672021 248.198623 
L 247.342942 245.332128 
" style="fill:none;stroke:#1f968b;stroke-width:1.5;"/>
    <path clip-path="url(#pcd384b8ffd)" d="M 231.485612 240.48479 
L 224.111478 237.589243 
L 216.471342 235.480118 
L 208.831206 233.975805 
L 201.19107 233.042912 
L 197.752437 232.759219 
L 193.550934 232.134649 
L 185.910798 230.780064 
L 178.270662 228.350915 
L 170.630526 225.149049 
L 168.142453 223.888819 
L 162.99039 220.45936 
L 155.350254 215.989037 
L 153.84975 215.018419 
L 147.710119 209.963326 
L 144.367065 206.148019 
L 140.069983 199.609065 
L 139.13739 197.277619 
L 135.679827 188.407219 
L 132.429847 182.537302 
L 130.576278 179.536819 
L 124.789711 172.675885 
L 122.319721 170.666419 
L 117.149575 166.202016 
L 109.577229 161.796019 
L 109.509439 161.730563 
L 107.156456 152.925619 
L 107.029593 144.055219 
L 107.439277 135.184819 
L 107.282839 126.314419 
L 106.787413 117.444019 
L 109.340554 108.573619 
L 109.509439 108.426952 
L 117.149575 101.376238 
L 118.954102 99.703219 
L 124.789711 97.259757 
L 132.429847 92.93081 
L 135.300191 90.832819 
L 140.069983 88.480683 
L 146.825728 81.962419 
L 147.710119 81.115316 
L 153.562793 73.092019 
L 155.350254 67.852201 
L 157.126128 64.221619 
L 159.984787 55.351219 
L 161.434795 46.480819 
L 162.244596 37.610419 
L 162.99039 33.364962 
L 165.932374 28.740019 
L 169.658797 19.869619 
L 170.561521 10.999219 
" style="fill:none;stroke:#1f968b;stroke-width:1.5;"/>
   </g>
   <g id="LineCollection_12">
    <path clip-path="url(#pcd384b8ffd)" d="M 285.232565 259.749753 
L 283.458439 259.370419 
L 277.592429 255.640582 
L 269.952293 254.098029 
L 262.312157 252.56543 
L 254.819946 250.500019 
L 254.672021 250.418555 
L 247.031886 246.665488 
L 239.39175 244.222485 
L 231.751614 242.165448 
L 229.83709 241.629619 
L 224.111478 239.205037 
L 216.471342 236.866068 
L 208.831206 235.261708 
L 201.19107 234.276938 
L 193.550934 233.645462 
L 185.910798 232.862979 
L 185.432426 232.759219 
L 178.270662 230.323769 
L 170.630526 226.866713 
L 164.751269 223.888819 
L 162.99039 222.716694 
L 155.350254 217.76164 
L 151.109439 215.018419 
L 147.710119 212.219573 
L 142.390093 206.148019 
L 140.069983 202.617462 
L 137.934014 197.277619 
L 134.068542 188.407219 
L 132.429847 185.447507 
L 128.778479 179.536819 
L 124.789711 174.807474 
L 119.699621 170.666419 
L 117.149575 168.464463 
L 109.509439 163.588097 
L 108.280501 161.796019 
L 106.989711 156.413833 
" style="fill:none;stroke:#20a386;stroke-width:1.5;"/>
    <path clip-path="url(#pcd384b8ffd)" d="M 105.903376 131.472136 
L 105.621407 126.314419 
L 104.763395 117.444019 
L 107.201401 108.573619 
L 109.509439 106.569227 
L 116.648196 99.703219 
L 117.149575 99.503974 
L 124.789711 96.239281 
L 132.429847 91.260591 
L 133.015098 90.832819 
L 140.069983 87.353831 
L 145.657822 81.962419 
L 147.710119 79.996651 
L 152.746771 73.092019 
L 155.350254 65.46009 
L 155.956044 64.221619 
L 159.335628 55.351219 
L 161.048502 46.480819 
L 162.001347 37.610419 
L 162.99039 31.980258 
L 165.051546 28.740019 
L 169.471135 19.869619 
L 170.513015 10.999219 
" style="fill:none;stroke:#20a386;stroke-width:1.5;"/>
    <path clip-path="url(#pcd384b8ffd)" d="M 285.232565 236.047131 
L 282.299925 241.629619 
L 285.232565 247.182681 
" style="fill:none;stroke:#20a386;stroke-width:1.5;"/>
   </g>
   <g id="LineCollection_13">
    <path clip-path="url(#pcd384b8ffd)" d="M 271.623951 256.079365 
L 269.952293 255.481277 
L 262.312157 253.676684 
L 254.672021 251.434789 
L 251.839912 250.500019 
L 247.031886 248.120505 
L 239.39175 245.405282 
L 231.751614 243.233364 
L 226.021418 241.629619 
L 224.111478 240.820831 
L 216.471342 238.252017 
L 208.831206 236.547612 
L 201.19107 235.510963 
L 193.550934 234.877886 
L 185.910798 234.121331 
L 179.630985 232.759219 
L 178.270662 232.296623 
L 170.630526 228.584376 
L 162.99039 224.596784 
L 161.739949 223.888819 
L 155.350254 219.534242 
L 148.369128 215.018419 
L 147.710119 214.475821 
L 140.413121 206.148019 
L 140.069983 205.625858 
L 136.730637 197.277619 
L 132.457257 188.407219 
L 132.429847 188.357712 
L 126.98068 179.536819 
L 124.789711 176.939063 
L 117.149575 170.707803 
L 117.079321 170.666419 
L 109.509439 165.411974 
L 107.029758 161.796019 
L 105.149836 152.925619 
L 104.864464 144.055219 
L 104.773415 135.184819 
L 103.959975 126.314419 
L 102.739377 117.444019 
L 105.062248 108.573619 
L 109.509439 104.711501 
L 114.716673 99.703219 
L 117.149575 98.736397 
L 124.789711 95.218805 
L 131.302612 90.832819 
L 132.429847 90.388028 
L 140.069983 86.226979 
L 144.489915 81.962419 
L 147.710119 78.877985 
L 151.930749 73.092019 
L 155.173027 64.221619 
L 155.350254 63.460634 
L 158.686468 55.351219 
L 160.662209 46.480819 
L 161.758098 37.610419 
L 162.99039 30.595554 
L 164.170719 28.740019 
L 169.283473 19.869619 
L 170.46451 10.999219 
" style="fill:none;stroke:#29af7f;stroke-width:1.5;"/>
   </g>
   <g id="LineCollection_14">
    <path clip-path="url(#pcd384b8ffd)" d="M 285.232565 261.481012 
L 277.592429 259.791773 
L 275.81045 259.370419 
L 269.952293 256.864525 
L 262.312157 254.787938 
L 254.672021 252.40517 
L 248.899914 250.500019 
L 247.031886 249.575523 
L 239.39175 246.588078 
L 231.751614 244.301279 
L 224.111478 242.126429 
L 222.140967 241.629619 
L 216.471342 239.637967 
L 208.831206 237.833516 
L 201.19107 236.744989 
L 193.550934 236.11031 
L 185.910798 235.379683 
L 178.270662 233.711001 
L 175.607398 232.759219 
L 170.630526 230.30204 
L 162.99039 226.069417 
L 159.138919 223.888819 
L 155.350254 221.306844 
L 147.710119 216.154155 
L 146.434834 215.018419 
L 140.069983 207.735763 
L 139.224687 206.148019 
L 135.527261 197.277619 
L 132.429847 190.858635 
L 131.259602 188.407219 
L 125.18288 179.536819 
L 124.789711 179.070651 
L 117.149575 172.255649 
L 114.451731 170.666419 
L 109.509439 167.23585 
L 105.779014 161.796019 
L 104.146527 152.925619 
L 103.781899 144.055219 
L 103.440484 135.184819 
L 102.298543 126.314419 
L 101.869303 123.548254 
L 100.746846 117.444019 
L 101.869303 112.685366 
L 102.923094 108.573619 
L 109.509439 102.853775 
L 112.78515 99.703219 
L 117.149575 97.96882 
L 124.789711 94.198329 
L 129.787273 90.832819 
L 132.429847 89.790096 
L 140.069983 85.100127 
L 143.322008 81.962419 
L 147.710119 77.759319 
L 151.114728 73.092019 
L 154.805539 64.221619 
L 155.350254 61.882707 
L 158.037309 55.351219 
L 160.275916 46.480819 
L 161.514849 37.610419 
L 162.99039 29.21085 
L 163.289892 28.740019 
L 167.49455 22.316057 
" style="fill:none;stroke:#3dbc74;stroke-width:1.5;"/>
   </g>
   <g id="LineCollection_15">
    <path clip-path="url(#pcd384b8ffd)" d="M 285.232565 262.346641 
L 277.592429 260.556389 
L 272.576758 259.370419 
L 269.952293 258.247774 
L 262.312157 255.899192 
L 254.672021 253.37555 
L 247.031886 250.816167 
L 245.989321 250.500019 
L 239.39175 247.770875 
L 231.751614 245.369195 
L 224.432278 243.21554 
" style="fill:none;stroke:#56c667;stroke-width:1.5;"/>
    <path clip-path="url(#pcd384b8ffd)" d="M 208.483259 239.067483 
L 201.19107 237.979015 
L 193.550934 237.342735 
L 185.910798 236.638035 
L 178.270662 234.954316 
L 172.128371 232.759219 
L 170.630526 232.019704 
L 162.99039 227.542049 
L 156.537888 223.888819 
L 155.350254 223.079446 
L 147.710119 217.649502 
L 144.755753 215.018419 
L 140.069983 209.656966 
L 138.201862 206.148019 
L 134.323884 197.277619 
L 132.429847 193.352475 
L 130.069105 188.407219 
L 124.789711 180.865537 
L 123.458879 179.536819 
L 117.149575 173.803495 
L 111.82414 170.666419 
L 109.509439 169.059727 
L 104.528271 161.796019 
L 103.143217 152.925619 
L 102.699334 144.055219 
L 102.107553 135.184819 
L 101.869303 133.462164 
L 100.661993 126.314419 
L 98.778057 117.444019 
L 100.614141 108.573619 
L 101.869303 107.641543 
L 109.509439 100.996049 
L 110.853626 99.703219 
L 117.149575 97.201243 
L 124.789711 93.177854 
L 128.271933 90.832819 
L 132.429847 89.192164 
L 140.069983 83.973276 
L 142.154101 81.962419 
L 147.710119 76.640654 
L 150.298706 73.092019 
L 154.438051 64.221619 
L 155.350254 60.30478 
L 157.38815 55.351219 
L 159.889624 46.480819 
L 161.2716 37.610419 
L 162.914993 28.740019 
L 162.99039 28.558176 
L 168.908149 19.869619 
L 170.367498 10.999219 
" style="fill:none;stroke:#56c667;stroke-width:1.5;"/>
   </g>
   <g id="LineCollection_16">
    <path clip-path="url(#pcd384b8ffd)" d="M 285.232565 263.212271 
L 277.592429 261.321004 
L 269.952293 259.502639 
L 269.329744 259.370419 
L 262.312157 257.010446 
L 254.672021 254.34593 
L 247.031886 251.68324 
L 243.129968 250.500019 
L 239.39175 248.953671 
L 231.751614 246.43711 
L 224.111478 244.115865 
L 221.629781 243.478021 
" style="fill:none;stroke:#75d054;stroke-width:1.5;"/>
    <path clip-path="url(#pcd384b8ffd)" d="M 205.625477 239.905053 
L 201.19107 239.213041 
L 193.550934 238.575159 
L 185.910798 237.896387 
L 178.270662 236.197631 
L 170.630526 233.426688 
L 169.232555 232.759219 
L 162.99039 229.014682 
L 155.350254 224.580967 
L 154.232986 223.888819 
L 147.710119 219.144849 
L 143.076672 215.018419 
L 140.069983 211.578169 
L 137.179037 206.148019 
L 133.120508 197.277619 
L 132.429847 195.846315 
L 128.878608 188.407219 
L 124.789711 182.566178 
L 121.755534 179.536819 
L 117.149575 175.351341 
L 109.509439 170.815734 
L 109.274314 170.666419 
L 103.277527 161.796019 
L 102.139907 152.925619 
L 101.869303 148.169116 
L 101.609551 144.055219 
L 100.779571 135.184819 
L 99.034112 126.314419 
L 96.809268 117.444019 
L 98.140325 108.573619 
L 101.869303 105.804504 
L 108.868614 99.703219 
L 109.509439 99.498091 
L 117.149575 96.433666 
L 124.789711 92.157378 
L 126.756594 90.832819 
L 132.429847 88.594232 
L 140.069983 82.846424 
L 140.986195 81.962419 
L 147.710119 75.521988 
L 149.482684 73.092019 
L 154.070564 64.221619 
L 155.350254 58.726852 
L 156.73899 55.351219 
L 159.503331 46.480819 
L 161.028351 37.610419 
L 162.800752 28.740019 
L 162.99039 28.282648 
L 168.720487 19.869619 
L 170.318992 10.999219 
" style="fill:none;stroke:#75d054;stroke-width:1.5;"/>
   </g>
   <g id="LineCollection_17">
    <path clip-path="url(#pcd384b8ffd)" d="M 285.232565 264.0779 
L 277.592429 262.08562 
L 269.952293 260.204444 
L 266.025332 259.370419 
L 262.312157 258.1217 
L 254.672021 255.31631 
L 247.031886 252.550313 
L 240.270615 250.500019 
L 239.39175 250.136468 
L 231.751614 247.505026 
L 224.111478 245.110583 
L 216.859175 243.183521 
" style="fill:none;stroke:#95d840;stroke-width:1.5;"/>
    <path clip-path="url(#pcd384b8ffd)" d="M 200.78546 240.413117 
L 193.550934 239.807583 
L 185.910798 239.154739 
L 178.270662 237.440946 
L 170.630526 234.598789 
L 166.777668 232.759219 
L 162.99039 230.487314 
L 155.350254 225.854707 
L 152.176912 223.888819 
L 147.710119 220.640197 
L 141.39759 215.018419 
L 140.069983 213.499372 
L 136.156212 206.148019 
L 132.429847 198.206374 
L 132.051815 197.277619 
L 127.688111 188.407219 
L 124.789711 184.266818 
L 120.052188 179.536819 
L 117.149575 176.899186 
L 109.509439 172.069654 
L 107.29978 170.666419 
L 102.026784 161.796019 
L 101.869303 160.491568 
L 101.159038 152.925619 
L 100.496043 144.055219 
L 99.452665 135.184819 
L 97.406231 126.314419 
L 94.840478 117.444019 
L 95.66651 108.573619 
L 101.869303 103.967464 
L 106.761187 99.703219 
L 109.509439 98.823503 
L 117.149575 95.666089 
L 124.789711 91.136902 
L 125.241254 90.832819 
L 132.429847 87.9963 
L 139.910231 81.962419 
L 140.069983 81.859072 
L 147.710119 74.403323 
L 148.666662 73.092019 
L 153.703076 64.221619 
L 155.350254 57.148925 
L 156.089831 55.351219 
L 159.117038 46.480819 
L 160.785102 37.610419 
L 162.68651 28.740019 
L 162.99039 28.007119 
L 168.532825 19.869619 
L 170.270487 10.999219 
" style="fill:none;stroke:#95d840;stroke-width:1.5;"/>
   </g>
   <g id="LineCollection_18">
    <path clip-path="url(#pcd384b8ffd)" d="M 285.232565 264.94353 
L 277.592429 262.850235 
L 269.952293 260.90625 
L 262.720921 259.370419 
L 262.312157 259.232954 
L 254.672021 256.28669 
L 247.031886 253.417387 
L 239.39175 251.069566 
L 237.272611 250.500019 
L 231.751614 248.572941 
L 224.111478 246.105301 
L 216.856012 244.114291 
" style="fill:none;stroke:#bade28;stroke-width:1.5;"/>
    <path clip-path="url(#pcd384b8ffd)" d="M 200.76634 241.640925 
L 200.578367 241.629619 
L 193.550934 241.040008 
L 185.910798 240.413091 
L 178.270662 238.684262 
L 170.630526 235.770889 
L 164.322782 232.759219 
L 162.99039 231.959947 
L 155.350254 227.128446 
L 150.120838 223.888819 
L 147.710119 222.135544 
L 140.069983 215.303091 
L 139.871584 215.018419 
L 135.133387 206.148019 
L 132.429847 200.386222 
L 131.164551 197.277619 
L 126.497613 188.407219 
L 124.789711 185.967458 
L 118.348843 179.536819 
L 117.149575 178.447032 
L 109.509439 173.323574 
L 105.325246 170.666419 
L 101.869303 164.750479 
L 101.089856 161.796019 
L 100.186457 152.925619 
L 99.382535 144.055219 
L 98.12576 135.184819 
L 95.77835 126.314419 
L 94.229167 121.170743 
L 92.883418 117.444019 
L 92.944103 108.573619 
L 94.229167 107.381959 
L 101.869303 102.130424 
L 104.653761 99.703219 
L 109.509439 98.148916 
L 117.149575 94.898512 
L 123.895614 90.832819 
L 124.789711 90.563146 
L 132.429847 87.398369 
L 139.168957 81.962419 
L 140.069983 81.379527 
L 147.710119 73.284657 
L 147.85064 73.092019 
L 153.335588 64.221619 
L 155.350254 55.570998 
L 155.440672 55.351219 
L 158.730745 46.480819 
L 160.541853 37.610419 
L 162.572268 28.740019 
L 162.99039 27.731591 
L 168.345163 19.869619 
L 170.221981 10.999219 
" style="fill:none;stroke:#bade28;stroke-width:1.5;"/>
   </g>
   <g id="LineCollection_19">
    <path clip-path="url(#pcd384b8ffd)" d="M 285.232565 265.809159 
L 277.592429 263.614851 
L 269.952293 261.608056 
L 262.312157 259.957237 
L 260.12005 259.370419 
L 254.672021 257.25707 
L 247.031886 254.28446 
L 239.39175 251.891856 
L 234.213077 250.500019 
L 231.751614 249.640857 
L 224.111478 247.100019 
L 216.852771 245.044983 
" style="fill:none;stroke:#dde318;stroke-width:1.5;"/>
    <path clip-path="url(#pcd384b8ffd)" d="M 200.766708 242.524343 
L 193.550934 242.088624 
L 185.910798 241.658796 
L 185.729696 241.629619 
L 178.270662 239.927577 
L 170.630526 236.942989 
L 162.99039 233.255301 
L 162.089532 232.759219 
L 155.350254 228.402186 
L 148.064764 223.888819 
L 147.710119 223.630891 
L 140.069983 216.663045 
L 138.92378 215.018419 
L 134.110563 206.148019 
L 132.429847 202.566071 
L 130.277286 197.277619 
L 125.307116 188.407219 
L 124.789711 187.668098 
L 117.149575 179.90783 
L 116.617706 179.536819 
L 109.509439 174.577494 
L 103.350712 170.666419 
L 101.869303 168.130519 
L 100.198132 161.796019 
L 99.213875 152.925619 
L 98.269027 144.055219 
L 96.798855 135.184819 
L 94.229167 126.530461 
L 94.155705 126.314419 
L 90.931639 117.444019 
L 89.876957 108.573619 
L 94.229167 104.537748 
L 101.869303 100.293385 
L 102.546334 99.703219 
L 109.509439 97.474328 
L 117.149575 94.130936 
L 122.622005 90.832819 
L 124.789711 90.179007 
L 132.429847 86.800437 
L 138.427683 81.962419 
L 140.069983 80.899982 
L 147.340478 73.092019 
L 147.710119 72.606882 
L 152.9681 64.221619 
L 155.187065 55.351219 
L 155.350254 54.464658 
L 158.344452 46.480819 
L 160.298603 37.610419 
L 162.458026 28.740019 
L 162.99039 27.456062 
L 168.157501 19.869619 
L 170.173475 10.999219 
" style="fill:none;stroke:#dde318;stroke-width:1.5;"/>
   </g>
   <g id="LineCollection_20">
    <path clip-path="url(#pcd384b8ffd)" d="M 285.232565 266.674789 
L 277.592429 264.379466 
L 269.952293 262.309862 
L 262.312157 260.626893 
L 257.618495 259.370419 
L 254.672021 258.22745 
L 247.031886 255.151533 
L 239.39175 252.714147 
L 231.751614 250.655696 
L 231.180175 250.500019 
L 224.111478 248.094737 
L 216.849455 245.975597 
" style="fill:none;stroke:#fde725;stroke-width:1.5;"/>
    <path clip-path="url(#pcd384b8ffd)" d="M 200.767081 243.40767 
L 193.550934 242.968644 
L 185.910798 242.53663 
L 180.280988 241.629619 
L 178.270662 241.170892 
L 170.630526 238.115089 
L 162.99039 234.340229 
L 160.119365 232.759219 
L 155.350254 229.675925 
L 147.710119 224.812565 
L 146.480279 223.888819 
L 140.069983 218.022999 
L 137.975976 215.018419 
L 133.087738 206.148019 
L 132.429847 204.745919 
L 129.390021 197.277619 
L 124.789711 189.279397 
L 124.108899 188.407219 
L 117.149575 181.161531 
L 114.820445 179.536819 
L 109.509439 175.831414 
L 101.869303 171.003736 
L 101.641784 170.666419 
L 99.306408 161.796019 
L 98.241294 152.925619 
L 97.155518 144.055219 
L 95.471949 135.184819 
L 94.229167 130.999297 
L 92.63613 126.314419 
L 88.97986 117.444019 
L 86.809812 108.573619 
L 94.229167 101.693536 
L 98.107533 99.703219 
L 101.869303 99.159634 
L 109.509439 96.79974 
L 117.149575 93.363359 
L 121.348396 90.832819 
L 124.789711 89.794868 
L 132.429847 86.202505 
L 137.686409 81.962419 
L 140.069983 80.420437 
L 146.893943 73.092019 
L 147.710119 72.020824 
L 152.600613 64.221619 
L 154.997467 55.351219 
L 155.350254 53.434633 
L 157.958159 46.480819 
L 160.055354 37.610419 
L 162.343784 28.740019 
L 162.99039 27.180533 
L 167.969839 19.869619 
L 170.12497 10.999219 
" style="fill:none;stroke:#fde725;stroke-width:1.5;"/>
   </g>
   <g id="LineCollection_21">
    <path clip-path="url(#pcd384b8ffd)" d="M 285.232565 267.540418 
L 277.592429 265.144082 
L 269.952293 263.011668 
L 262.312157 261.296549 
L 255.116939 259.370419 
L 254.672021 259.19783 
L 247.031886 256.018606 
L 239.39175 253.536437 
L 231.751614 251.45209 
L 228.256876 250.500019 
L 224.111478 249.089454 
L 216.471342 246.793524 
L 208.831206 245.236529 
L 202.782383 244.508493 
" style="fill:none;stroke:#440154;stroke-width:1.5;"/>
    <path clip-path="url(#pcd384b8ffd)" d="M 184.322241 243.160723 
L 178.270662 242.194098 
L 176.437154 241.629619 
L 170.630526 239.287189 
L 162.99039 235.425156 
L 158.149198 232.759219 
L 155.350254 230.949664 
L 147.710119 225.928857 
L 144.994091 223.888819 
L 140.069983 219.382953 
L 137.028172 215.018419 
L 132.429847 206.755673 
L 132.171889 206.148019 
L 128.502757 197.277619 
L 124.789711 190.822019 
L 122.904748 188.407219 
L 117.149575 182.415231 
L 113.023185 179.536819 
L 109.509439 177.085334 
L 101.869303 172.354399 
L 100.730769 170.666419 
L 98.414684 161.796019 
L 97.268713 152.925619 
L 96.04201 144.055219 
L 94.229167 135.517295 
L 94.149168 135.184819 
L 91.116555 126.314419 
L 87.028081 117.444019 
L 86.589031 115.713367 
L 83.851019 108.573619 
L 86.589031 101.230043 
L 89.578152 99.703219 
L 94.229167 99.365267 
L 101.869303 98.35876 
L 109.509439 96.125153 
L 117.149575 92.595782 
L 120.074787 90.832819 
L 124.789711 89.410729 
L 132.429847 85.604573 
L 136.945135 81.962419 
L 140.069983 79.940892 
L 146.447408 73.092019 
L 147.710119 71.434766 
L 152.233125 64.221619 
L 154.80787 55.351219 
L 155.350254 52.404607 
L 157.571866 46.480819 
L 159.812105 37.610419 
L 162.229542 28.740019 
L 162.99039 26.905005 
L 167.782177 19.869619 
L 170.076464 10.999219 
" style="fill:none;stroke:#440154;stroke-width:1.5;"/>
   </g>
   <g id="LineCollection_22">
    <path clip-path="url(#pcd384b8ffd)" d="M 108.172564 277.111219 
L 101.869303 271.3456 
L 98.6292 268.240819 
L 94.229167 263.86065 
L 89.522891 259.370419 
L 86.589031 256.413304 
L 86.573577 256.392415 
" style="fill:none;stroke:#440154;stroke-width:1.5;"/>
    <path clip-path="url(#pcd384b8ffd)" d="M 72.941866 232.184063 
L 71.308759 229.466965 
L 67.360025 223.888819 
L 63.668623 220.012988 
L 58.68034 215.018419 
L 56.028487 212.426142 
" style="fill:none;stroke:#440154;stroke-width:1.5;"/>
    <path clip-path="url(#pcd384b8ffd)" d="M 56.028487 75.653381 
L 58.375167 73.092019 
L 63.668623 71.812314 
L 71.308759 67.60099 
L 76.409736 64.221619 
L 78.948895 63.961039 
L 86.589031 63.275225 
L 94.229167 62.99181 
L 101.869303 63.170843 
L 108.671832 63.814592 
" style="fill:none;stroke:#440154;stroke-width:1.5;"/>
    <path clip-path="url(#pcd384b8ffd)" d="M 129.027773 60.419164 
L 132.429847 58.241208 
L 135.093394 55.351219 
L 140.069983 48.752231 
L 141.446912 46.480819 
L 145.725701 37.610419 
L 147.710119 32.401404 
L 149.508615 28.740019 
L 155.350254 23.069909 
L 157.676195 19.869619 
L 162.583252 10.999219 
" style="fill:none;stroke:#440154;stroke-width:1.5;"/>
   </g>
   <g id="LineCollection_23">
    <path clip-path="url(#pcd384b8ffd)" d="M 56.028487 65.604542 
L 57.660854 64.221619 
L 63.668623 63.574956 
L 71.308759 61.516453 
L 78.324191 55.351219 
L 78.948895 55.232483 
L 86.589031 53.741322 
L 94.229167 48.444209 
L 97.096765 46.480819 
L 98.244788 46.249419 
" style="fill:none;stroke:#440154;stroke-width:1.5;"/>
    <path clip-path="url(#pcd384b8ffd)" d="M 120.242858 35.886986 
L 124.789711 33.733079 
L 129.59355 28.740019 
L 132.429847 27.277012 
L 140.03931 19.869619 
L 140.069983 19.852855 
L 147.710119 14.068074 
L 150.427001 10.999219 
" style="fill:none;stroke:#440154;stroke-width:1.5;"/>
   </g>
   <g id="LineCollection_24">
    <path clip-path="url(#pcd384b8ffd)" d="M 56.028487 60.308193 
L 62.810771 55.351219 
L 63.668623 55.176408 
L 71.308759 53.378669 
L 78.948895 49.079946 
L 81.951083 46.480819 
L 84.260668 45.541394 
" style="fill:none;stroke:#440154;stroke-width:1.5;"/>
    <path clip-path="url(#pcd384b8ffd)" d="M 107.532261 29.994876 
L 109.047097 28.740019 
L 109.509439 28.439065 
L 117.149575 23.445806 
L 121.282836 19.869619 
L 124.789711 18.454795 
L 132.429847 13.136676 
L 134.734736 10.999219 
" style="fill:none;stroke:#440154;stroke-width:1.5;"/>
   </g>
   <g id="LineCollection_25">
    <path clip-path="url(#pcd384b8ffd)" d="M 56.028487 50.773117 
L 62.068959 46.480819 
L 63.668623 45.840298 
L 71.308759 42.343269 
L 73.985689 40.220189 
" style="fill:none;stroke:#440154;stroke-width:1.5;"/>
    <path clip-path="url(#pcd384b8ffd)" d="M 98.588388 20.447655 
L 99.197464 19.869619 
L 101.869303 17.943652 
L 109.509439 12.140298 
L 110.994385 10.999219 
" style="fill:none;stroke:#440154;stroke-width:1.5;"/>
   </g>
   <g id="LineCollection_26">
    <path clip-path="url(#pcd384b8ffd)" d="M 56.028487 35.735172 
L 63.668623 29.834786 
L 64.957504 28.740019 
L 71.308759 23.998571 
L 75.536817 19.869619 
L 78.948895 16.393764 
L 83.648637 10.999219 
" style="fill:none;stroke:#450457;stroke-width:1.5;"/>
   </g>
   <g id="LineCollection_27">
    <path clip-path="url(#pcd384b8ffd)" d="M 56.028487 15.105966 
L 60.003205 10.999219 
" style="fill:none;stroke:#482475;stroke-width:1.5;"/>
   </g>
   <g id="LineCollection_28"/>
   <g id="line2d_12">
    <path clip-path="url(#pcd384b8ffd)" d="M 396.142773 111.596938 
L 390.306118 108.257604 
L 375.90478 101.216454 
L 315.083302 80.936566 
L 250.014368 62.832551 
L 206.501224 51.622457 
L 177.808018 45.051254 
L 158.988885 41.358009 
L 146.683626 39.496538 
L 138.684739 38.7989 
L 133.50449 38.978295 
L 130.185892 39.685394 
L 128.081096 40.755368 
L 126.780574 42.037141 
L 126.003055 43.477006 
L 125.5615 45.08652 
L 125.343247 46.78256 
L 125.254873 48.636986 
L 125.251171 50.608163 
L 125.304502 52.653598 
L 125.386386 54.816677 
L 125.48955 57.047424 
L 125.620359 59.291973 
L 125.764664 61.537907 
L 125.926841 63.758381 
L 126.108391 65.9248 
L 126.286804 68.105055 
L 126.479948 70.214042 
L 126.690699 72.231042 
L 126.912173 74.182455 
L 127.147573 76.070665 
L 127.37691 77.99288 
L 127.596539 79.9983 
L 127.816006 82.049775 
L 128.041086 84.070564 
L 128.269733 86.029116 
L 128.501012 88.013594 
L 128.73911 89.976698 
L 128.979267 91.917754 
L 129.225113 93.802517 
L 129.472046 95.734115 
L 129.721943 97.616894 
L 129.968268 99.541258 
L 130.207968 101.567162 
L 130.452639 103.579081 
L 130.693102 105.538887 
L 130.938897 107.393292 
L 131.187049 109.246368 
L 131.440856 111.074601 
L 131.687286 112.907903 
L 131.71249 113.085257 
L 131.737865 113.260335 
L 131.763793 113.430306 
L 131.790068 113.595607 
L 131.816994 113.762211 
L 131.84397 113.926841 
L 131.870276 114.096837 
L 131.896829 114.265812 
L 131.924224 114.434837 
L 131.95129 114.606532 
L 131.97756 114.779619 
L 132.005377 114.946136 
L 132.031829 115.118324 
L 132.05906 115.281985 
L 132.085848 115.445077 
L 132.112808 115.610716 
L 132.139266 115.780175 
L 132.165408 115.950953 
L 132.192135 116.117736 
L 132.219948 116.276302 
L 132.247732 116.433066 
L 132.275536 116.593367 
L 132.303778 116.747086 
L 132.33229 116.900977 
L 132.361654 117.049644 
L 132.364546 117.064531 
L 132.367282 117.080503 
L 132.369956 117.096567 
L 132.372554 117.113276 
L 132.375118 117.130176 
L 132.377761 117.146509 
L 132.380418 117.162408 
L 132.383077 117.178209 
L 132.385696 117.194484 
L 132.388252 117.210815 
L 132.390787 117.227537 
L 132.393372 117.243459 
L 132.396122 117.258447 
L 132.398937 117.273893 
L 132.401707 117.289048 
L 132.404486 117.304432 
L 132.407335 117.319024 
L 132.410187 117.33444 
L 132.413057 117.350116 
L 132.415876 117.365578 
L 132.418596 117.381275 
L 132.421411 117.396964 
L 132.42422 117.412674 
L 132.426986 117.428548 
" style="fill:none;stroke:#1f77b4;stroke-linecap:square;stroke-width:1.5;"/>
    <defs>
     <path d="M 0 1.5 
C 0.397805 1.5 0.77937 1.341951 1.06066 1.06066 
C 1.341951 0.77937 1.5 0.397805 1.5 0 
C 1.5 -0.397805 1.341951 -0.77937 1.06066 -1.06066 
C 0.77937 -1.341951 0.397805 -1.5 0 -1.5 
C -0.397805 -1.5 -0.77937 -1.341951 -1.06066 -1.06066 
C -1.341951 -0.77937 -1.5 -0.397805 -1.5 0 
C -1.5 0.397805 -1.341951 0.77937 -1.06066 1.06066 
C -0.77937 1.341951 -0.397805 1.5 0 1.5 
z
" id="m125182ad37" style="stroke:#1f77b4;"/>
    </defs>
    <g clip-path="url(#pcd384b8ffd)">
     <use style="fill:#1f77b4;stroke:#1f77b4;" x="396.142773" xlink:href="#m125182ad37" y="111.596938"/>
     <use style="fill:#1f77b4;stroke:#1f77b4;" x="390.306118" xlink:href="#m125182ad37" y="108.257604"/>
     <use style="fill:#1f77b4;stroke:#1f77b4;" x="375.90478" xlink:href="#m125182ad37" y="101.216454"/>
     <use style="fill:#1f77b4;stroke:#1f77b4;" x="315.083302" xlink:href="#m125182ad37" y="80.936566"/>
     <use style="fill:#1f77b4;stroke:#1f77b4;" x="250.014368" xlink:href="#m125182ad37" y="62.832551"/>
     <use style="fill:#1f77b4;stroke:#1f77b4;" x="206.501224" xlink:href="#m125182ad37" y="51.622457"/>
     <use style="fill:#1f77b4;stroke:#1f77b4;" x="177.808018" xlink:href="#m125182ad37" y="45.051254"/>
     <use style="fill:#1f77b4;stroke:#1f77b4;" x="158.988885" xlink:href="#m125182ad37" y="41.358009"/>
     <use style="fill:#1f77b4;stroke:#1f77b4;" x="146.683626" xlink:href="#m125182ad37" y="39.496538"/>
     <use style="fill:#1f77b4;stroke:#1f77b4;" x="138.684739" xlink:href="#m125182ad37" y="38.7989"/>
     <use style="fill:#1f77b4;stroke:#1f77b4;" x="133.50449" xlink:href="#m125182ad37" y="38.978295"/>
     <use style="fill:#1f77b4;stroke:#1f77b4;" x="130.185892" xlink:href="#m125182ad37" y="39.685394"/>
     <use style="fill:#1f77b4;stroke:#1f77b4;" x="128.081096" xlink:href="#m125182ad37" y="40.755368"/>
     <use style="fill:#1f77b4;stroke:#1f77b4;" x="126.780574" xlink:href="#m125182ad37" y="42.037141"/>
     <use style="fill:#1f77b4;stroke:#1f77b4;" x="126.003055" xlink:href="#m125182ad37" y="43.477006"/>
     <use style="fill:#1f77b4;stroke:#1f77b4;" x="125.5615" xlink:href="#m125182ad37" y="45.08652"/>
     <use style="fill:#1f77b4;stroke:#1f77b4;" x="125.343247" xlink:href="#m125182ad37" y="46.78256"/>
     <use style="fill:#1f77b4;stroke:#1f77b4;" x="125.254873" xlink:href="#m125182ad37" y="48.636986"/>
     <use style="fill:#1f77b4;stroke:#1f77b4;" x="125.251171" xlink:href="#m125182ad37" y="50.608163"/>
     <use style="fill:#1f77b4;stroke:#1f77b4;" x="125.304502" xlink:href="#m125182ad37" y="52.653598"/>
     <use style="fill:#1f77b4;stroke:#1f77b4;" x="125.386386" xlink:href="#m125182ad37" y="54.816677"/>
     <use style="fill:#1f77b4;stroke:#1f77b4;" x="125.48955" xlink:href="#m125182ad37" y="57.047424"/>
     <use style="fill:#1f77b4;stroke:#1f77b4;" x="125.620359" xlink:href="#m125182ad37" y="59.291973"/>
     <use style="fill:#1f77b4;stroke:#1f77b4;" x="125.764664" xlink:href="#m125182ad37" y="61.537907"/>
     <use style="fill:#1f77b4;stroke:#1f77b4;" x="125.926841" xlink:href="#m125182ad37" y="63.758381"/>
     <use style="fill:#1f77b4;stroke:#1f77b4;" x="126.108391" xlink:href="#m125182ad37" y="65.9248"/>
     <use style="fill:#1f77b4;stroke:#1f77b4;" x="126.286804" xlink:href="#m125182ad37" y="68.105055"/>
     <use style="fill:#1f77b4;stroke:#1f77b4;" x="126.479948" xlink:href="#m125182ad37" y="70.214042"/>
     <use style="fill:#1f77b4;stroke:#1f77b4;" x="126.690699" xlink:href="#m125182ad37" y="72.231042"/>
     <use style="fill:#1f77b4;stroke:#1f77b4;" x="126.912173" xlink:href="#m125182ad37" y="74.182455"/>
     <use style="fill:#1f77b4;stroke:#1f77b4;" x="127.147573" xlink:href="#m125182ad37" y="76.070665"/>
     <use style="fill:#1f77b4;stroke:#1f77b4;" x="127.37691" xlink:href="#m125182ad37" y="77.99288"/>
     <use style="fill:#1f77b4;stroke:#1f77b4;" x="127.596539" xlink:href="#m125182ad37" y="79.9983"/>
     <use style="fill:#1f77b4;stroke:#1f77b4;" x="127.816006" xlink:href="#m125182ad37" y="82.049775"/>
     <use style="fill:#1f77b4;stroke:#1f77b4;" x="128.041086" xlink:href="#m125182ad37" y="84.070564"/>
     <use style="fill:#1f77b4;stroke:#1f77b4;" x="128.269733" xlink:href="#m125182ad37" y="86.029116"/>
     <use style="fill:#1f77b4;stroke:#1f77b4;" x="128.501012" xlink:href="#m125182ad37" y="88.013594"/>
     <use style="fill:#1f77b4;stroke:#1f77b4;" x="128.73911" xlink:href="#m125182ad37" y="89.976698"/>
     <use style="fill:#1f77b4;stroke:#1f77b4;" x="128.979267" xlink:href="#m125182ad37" y="91.917754"/>
     <use style="fill:#1f77b4;stroke:#1f77b4;" x="129.225113" xlink:href="#m125182ad37" y="93.802517"/>
     <use style="fill:#1f77b4;stroke:#1f77b4;" x="129.472046" xlink:href="#m125182ad37" y="95.734115"/>
     <use style="fill:#1f77b4;stroke:#1f77b4;" x="129.721943" xlink:href="#m125182ad37" y="97.616894"/>
     <use style="fill:#1f77b4;stroke:#1f77b4;" x="129.968268" xlink:href="#m125182ad37" y="99.541258"/>
     <use style="fill:#1f77b4;stroke:#1f77b4;" x="130.207968" xlink:href="#m125182ad37" y="101.567162"/>
     <use style="fill:#1f77b4;stroke:#1f77b4;" x="130.452639" xlink:href="#m125182ad37" y="103.579081"/>
     <use style="fill:#1f77b4;stroke:#1f77b4;" x="130.693102" xlink:href="#m125182ad37" y="105.538887"/>
     <use style="fill:#1f77b4;stroke:#1f77b4;" x="130.938897" xlink:href="#m125182ad37" y="107.393292"/>
     <use style="fill:#1f77b4;stroke:#1f77b4;" x="131.187049" xlink:href="#m125182ad37" y="109.246368"/>
     <use style="fill:#1f77b4;stroke:#1f77b4;" x="131.440856" xlink:href="#m125182ad37" y="111.074601"/>
     <use style="fill:#1f77b4;stroke:#1f77b4;" x="131.687286" xlink:href="#m125182ad37" y="112.907903"/>
     <use style="fill:#1f77b4;stroke:#1f77b4;" x="131.71249" xlink:href="#m125182ad37" y="113.085257"/>
     <use style="fill:#1f77b4;stroke:#1f77b4;" x="131.737865" xlink:href="#m125182ad37" y="113.260335"/>
     <use style="fill:#1f77b4;stroke:#1f77b4;" x="131.763793" xlink:href="#m125182ad37" y="113.430306"/>
     <use style="fill:#1f77b4;stroke:#1f77b4;" x="131.790068" xlink:href="#m125182ad37" y="113.595607"/>
     <use style="fill:#1f77b4;stroke:#1f77b4;" x="131.816994" xlink:href="#m125182ad37" y="113.762211"/>
     <use style="fill:#1f77b4;stroke:#1f77b4;" x="131.84397" xlink:href="#m125182ad37" y="113.926841"/>
     <use style="fill:#1f77b4;stroke:#1f77b4;" x="131.870276" xlink:href="#m125182ad37" y="114.096837"/>
     <use style="fill:#1f77b4;stroke:#1f77b4;" x="131.896829" xlink:href="#m125182ad37" y="114.265812"/>
     <use style="fill:#1f77b4;stroke:#1f77b4;" x="131.924224" xlink:href="#m125182ad37" y="114.434837"/>
     <use style="fill:#1f77b4;stroke:#1f77b4;" x="131.95129" xlink:href="#m125182ad37" y="114.606532"/>
     <use style="fill:#1f77b4;stroke:#1f77b4;" x="131.97756" xlink:href="#m125182ad37" y="114.779619"/>
     <use style="fill:#1f77b4;stroke:#1f77b4;" x="132.005377" xlink:href="#m125182ad37" y="114.946136"/>
     <use style="fill:#1f77b4;stroke:#1f77b4;" x="132.031829" xlink:href="#m125182ad37" y="115.118324"/>
     <use style="fill:#1f77b4;stroke:#1f77b4;" x="132.05906" xlink:href="#m125182ad37" y="115.281985"/>
     <use style="fill:#1f77b4;stroke:#1f77b4;" x="132.085848" xlink:href="#m125182ad37" y="115.445077"/>
     <use style="fill:#1f77b4;stroke:#1f77b4;" x="132.112808" xlink:href="#m125182ad37" y="115.610716"/>
     <use style="fill:#1f77b4;stroke:#1f77b4;" x="132.139266" xlink:href="#m125182ad37" y="115.780175"/>
     <use style="fill:#1f77b4;stroke:#1f77b4;" x="132.165408" xlink:href="#m125182ad37" y="115.950953"/>
     <use style="fill:#1f77b4;stroke:#1f77b4;" x="132.192135" xlink:href="#m125182ad37" y="116.117736"/>
     <use style="fill:#1f77b4;stroke:#1f77b4;" x="132.219948" xlink:href="#m125182ad37" y="116.276302"/>
     <use style="fill:#1f77b4;stroke:#1f77b4;" x="132.247732" xlink:href="#m125182ad37" y="116.433066"/>
     <use style="fill:#1f77b4;stroke:#1f77b4;" x="132.275536" xlink:href="#m125182ad37" y="116.593367"/>
     <use style="fill:#1f77b4;stroke:#1f77b4;" x="132.303778" xlink:href="#m125182ad37" y="116.747086"/>
     <use style="fill:#1f77b4;stroke:#1f77b4;" x="132.33229" xlink:href="#m125182ad37" y="116.900977"/>
     <use style="fill:#1f77b4;stroke:#1f77b4;" x="132.361654" xlink:href="#m125182ad37" y="117.049644"/>
     <use style="fill:#1f77b4;stroke:#1f77b4;" x="132.364546" xlink:href="#m125182ad37" y="117.064531"/>
     <use style="fill:#1f77b4;stroke:#1f77b4;" x="132.367282" xlink:href="#m125182ad37" y="117.080503"/>
     <use style="fill:#1f77b4;stroke:#1f77b4;" x="132.369956" xlink:href="#m125182ad37" y="117.096567"/>
     <use style="fill:#1f77b4;stroke:#1f77b4;" x="132.372554" xlink:href="#m125182ad37" y="117.113276"/>
     <use style="fill:#1f77b4;stroke:#1f77b4;" x="132.375118" xlink:href="#m125182ad37" y="117.130176"/>
     <use style="fill:#1f77b4;stroke:#1f77b4;" x="132.377761" xlink:href="#m125182ad37" y="117.146509"/>
     <use style="fill:#1f77b4;stroke:#1f77b4;" x="132.380418" xlink:href="#m125182ad37" y="117.162408"/>
     <use style="fill:#1f77b4;stroke:#1f77b4;" x="132.383077" xlink:href="#m125182ad37" y="117.178209"/>
     <use style="fill:#1f77b4;stroke:#1f77b4;" x="132.385696" xlink:href="#m125182ad37" y="117.194484"/>
     <use style="fill:#1f77b4;stroke:#1f77b4;" x="132.388252" xlink:href="#m125182ad37" y="117.210815"/>
     <use style="fill:#1f77b4;stroke:#1f77b4;" x="132.390787" xlink:href="#m125182ad37" y="117.227537"/>
     <use style="fill:#1f77b4;stroke:#1f77b4;" x="132.393372" xlink:href="#m125182ad37" y="117.243459"/>
     <use style="fill:#1f77b4;stroke:#1f77b4;" x="132.396122" xlink:href="#m125182ad37" y="117.258447"/>
     <use style="fill:#1f77b4;stroke:#1f77b4;" x="132.398937" xlink:href="#m125182ad37" y="117.273893"/>
     <use style="fill:#1f77b4;stroke:#1f77b4;" x="132.401707" xlink:href="#m125182ad37" y="117.289048"/>
     <use style="fill:#1f77b4;stroke:#1f77b4;" x="132.404486" xlink:href="#m125182ad37" y="117.304432"/>
     <use style="fill:#1f77b4;stroke:#1f77b4;" x="132.407335" xlink:href="#m125182ad37" y="117.319024"/>
     <use style="fill:#1f77b4;stroke:#1f77b4;" x="132.410187" xlink:href="#m125182ad37" y="117.33444"/>
     <use style="fill:#1f77b4;stroke:#1f77b4;" x="132.413057" xlink:href="#m125182ad37" y="117.350116"/>
     <use style="fill:#1f77b4;stroke:#1f77b4;" x="132.415876" xlink:href="#m125182ad37" y="117.365578"/>
     <use style="fill:#1f77b4;stroke:#1f77b4;" x="132.418596" xlink:href="#m125182ad37" y="117.381275"/>
     <use style="fill:#1f77b4;stroke:#1f77b4;" x="132.421411" xlink:href="#m125182ad37" y="117.396964"/>
     <use style="fill:#1f77b4;stroke:#1f77b4;" x="132.42422" xlink:href="#m125182ad37" y="117.412674"/>
     <use style="fill:#1f77b4;stroke:#1f77b4;" x="132.426986" xlink:href="#m125182ad37" y="117.428548"/>
    </g>
   </g>
   <g id="patch_3">
    <path d="M 56.028488 277.111219 
L 56.028488 10.999219 
" style="fill:none;stroke:#000000;stroke-linecap:square;stroke-linejoin:miter;stroke-width:0.8;"/>
   </g>
   <g id="patch_4">
    <path d="M 413.148488 277.111219 
L 413.148488 10.999219 
" style="fill:none;stroke:#000000;stroke-linecap:square;stroke-linejoin:miter;stroke-width:0.8;"/>
   </g>
   <g id="patch_5">
    <path d="M 56.028487 277.111219 
L 413.148488 277.111219 
" style="fill:none;stroke:#000000;stroke-linecap:square;stroke-linejoin:miter;stroke-width:0.8;"/>
   </g>
   <g id="patch_6">
    <path d="M 56.028487 10.999219 
L 413.148488 10.999219 
" style="fill:none;stroke:#000000;stroke-linecap:square;stroke-linejoin:miter;stroke-width:0.8;"/>
   </g>
   <g id="text_14">
    <g clip-path="url(#pcd384b8ffd)">
     <!-- 2.000 -->
     <g style="fill:#404688;" transform="translate(132.459801 111.95951)rotate(-319.556298)scale(0.06 -0.06)">
      <use xlink:href="#DejaVuSans-50"/>
      <use x="63.623047" xlink:href="#DejaVuSans-46"/>
      <use x="95.410156" xlink:href="#DejaVuSans-48"/>
      <use x="159.033203" xlink:href="#DejaVuSans-48"/>
      <use x="222.65625" xlink:href="#DejaVuSans-48"/>
     </g>
    </g>
   </g>
   <g id="text_15">
    <g clip-path="url(#pcd384b8ffd)">
     <!-- 2.500 -->
     <g style="fill:#39558c;" transform="translate(200.10684 149.717512)rotate(-353.171488)scale(0.06 -0.06)">
      <use xlink:href="#DejaVuSans-50"/>
      <use x="63.623047" xlink:href="#DejaVuSans-46"/>
      <use x="95.410156" xlink:href="#DejaVuSans-53"/>
      <use x="159.033203" xlink:href="#DejaVuSans-48"/>
      <use x="222.65625" xlink:href="#DejaVuSans-48"/>
     </g>
    </g>
   </g>
   <g id="text_16">
    <g clip-path="url(#pcd384b8ffd)">
     <!-- 2.500 -->
     <g style="fill:#39558c;" transform="translate(272.002349 27.122059)rotate(-298.814767)scale(0.06 -0.06)">
      <use xlink:href="#DejaVuSans-50"/>
      <use x="63.623047" xlink:href="#DejaVuSans-46"/>
      <use x="95.410156" xlink:href="#DejaVuSans-53"/>
      <use x="159.033203" xlink:href="#DejaVuSans-48"/>
      <use x="222.65625" xlink:href="#DejaVuSans-48"/>
     </g>
    </g>
   </g>
   <g id="text_17">
    <g clip-path="url(#pcd384b8ffd)">
     <!-- 2.500 -->
     <g style="fill:#39558c;" transform="translate(202.562884 203.939155)rotate(-334.460815)scale(0.06 -0.06)">
      <use xlink:href="#DejaVuSans-50"/>
      <use x="63.623047" xlink:href="#DejaVuSans-46"/>
      <use x="95.410156" xlink:href="#DejaVuSans-53"/>
      <use x="159.033203" xlink:href="#DejaVuSans-48"/>
      <use x="222.65625" xlink:href="#DejaVuSans-48"/>
     </g>
    </g>
   </g>
   <g id="text_18">
    <g clip-path="url(#pcd384b8ffd)">
     <!-- 3.000 -->
     <g style="fill:#33638d;" transform="translate(232.659007 238.359496)rotate(-28.756498)scale(0.06 -0.06)">
      <use xlink:href="#DejaVuSans-51"/>
      <use x="63.623047" xlink:href="#DejaVuSans-46"/>
      <use x="95.410156" xlink:href="#DejaVuSans-48"/>
      <use x="159.033203" xlink:href="#DejaVuSans-48"/>
      <use x="222.65625" xlink:href="#DejaVuSans-48"/>
     </g>
    </g>
   </g>
   <g id="text_19">
    <g clip-path="url(#pcd384b8ffd)">
     <!-- 3.500 -->
     <g style="fill:#2d718e;" transform="translate(215.473984 232.61596)rotate(-348.150246)scale(0.06 -0.06)">
      <use xlink:href="#DejaVuSans-51"/>
      <use x="63.623047" xlink:href="#DejaVuSans-46"/>
      <use x="95.410156" xlink:href="#DejaVuSans-53"/>
      <use x="159.033203" xlink:href="#DejaVuSans-48"/>
      <use x="222.65625" xlink:href="#DejaVuSans-48"/>
     </g>
    </g>
   </g>
   <g id="text_20">
    <g clip-path="url(#pcd384b8ffd)">
     <!-- 4.000 -->
     <g style="fill:#287d8e;" transform="translate(109.041641 159.15505)rotate(-331.514344)scale(0.06 -0.06)">
      <use xlink:href="#DejaVuSans-52"/>
      <use x="63.623047" xlink:href="#DejaVuSans-46"/>
      <use x="95.410156" xlink:href="#DejaVuSans-48"/>
      <use x="159.033203" xlink:href="#DejaVuSans-48"/>
      <use x="222.65625" xlink:href="#DejaVuSans-48"/>
     </g>
    </g>
   </g>
   <g id="text_21">
    <g clip-path="url(#pcd384b8ffd)">
     <!-- 4.500 -->
     <g style="fill:#238a8d;" transform="translate(160.619377 43.16873)rotate(-63.360214)scale(0.06 -0.06)">
      <use xlink:href="#DejaVuSans-52"/>
      <use x="63.623047" xlink:href="#DejaVuSans-46"/>
      <use x="95.410156" xlink:href="#DejaVuSans-53"/>
      <use x="159.033203" xlink:href="#DejaVuSans-48"/>
      <use x="222.65625" xlink:href="#DejaVuSans-48"/>
     </g>
    </g>
   </g>
   <g id="text_22">
    <g clip-path="url(#pcd384b8ffd)">
     <!-- 5.000 -->
     <g style="fill:#1f968b;" transform="translate(230.646015 243.159996)rotate(-349.876845)scale(0.06 -0.06)">
      <use xlink:href="#DejaVuSans-53"/>
      <use x="63.623047" xlink:href="#DejaVuSans-46"/>
      <use x="95.410156" xlink:href="#DejaVuSans-48"/>
      <use x="159.033203" xlink:href="#DejaVuSans-48"/>
      <use x="222.65625" xlink:href="#DejaVuSans-48"/>
     </g>
    </g>
   </g>
   <g id="text_23">
    <g clip-path="url(#pcd384b8ffd)">
     <!-- 5.500 -->
     <g style="fill:#20a386;" transform="translate(104.230814 135.478683)rotate(-270.40449)scale(0.06 -0.06)">
      <use xlink:href="#DejaVuSans-53"/>
      <use x="63.623047" xlink:href="#DejaVuSans-46"/>
      <use x="95.410156" xlink:href="#DejaVuSans-53"/>
      <use x="159.033203" xlink:href="#DejaVuSans-48"/>
      <use x="222.65625" xlink:href="#DejaVuSans-48"/>
     </g>
    </g>
   </g>
   <g id="text_24">
    <g clip-path="url(#pcd384b8ffd)">
     <!-- 6.000 -->
     <g style="fill:#29af7f;" transform="translate(270.664785 259.213331)rotate(-348.059639)scale(0.06 -0.06)">
      <use xlink:href="#DejaVuSans-54"/>
      <use x="63.623047" xlink:href="#DejaVuSans-46"/>
      <use x="95.410156" xlink:href="#DejaVuSans-48"/>
      <use x="159.033203" xlink:href="#DejaVuSans-48"/>
      <use x="222.65625" xlink:href="#DejaVuSans-48"/>
     </g>
    </g>
   </g>
   <g id="text_25">
    <g clip-path="url(#pcd384b8ffd)">
     <!-- 6.500 -->
     <g style="fill:#3dbc74;" transform="translate(170.088722 19.739656)rotate(-76.944313)scale(0.06 -0.06)">
      <use xlink:href="#DejaVuSans-54"/>
      <use x="63.623047" xlink:href="#DejaVuSans-46"/>
      <use x="95.410156" xlink:href="#DejaVuSans-53"/>
      <use x="159.033203" xlink:href="#DejaVuSans-48"/>
      <use x="222.65625" xlink:href="#DejaVuSans-48"/>
     </g>
    </g>
   </g>
   <g id="text_26">
    <g clip-path="url(#pcd384b8ffd)">
     <!-- 7.000 -->
     <g style="fill:#56c667;" transform="translate(207.726806 241.212166)rotate(-350.321977)scale(0.06 -0.06)">
      <defs>
       <path d="M 8.203125 72.90625 
L 55.078125 72.90625 
L 55.078125 68.703125 
L 28.609375 0 
L 18.3125 0 
L 43.21875 64.59375 
L 8.203125 64.59375 
z
" id="DejaVuSans-55"/>
      </defs>
      <use xlink:href="#DejaVuSans-55"/>
      <use x="63.623047" xlink:href="#DejaVuSans-46"/>
      <use x="95.410156" xlink:href="#DejaVuSans-48"/>
      <use x="159.033203" xlink:href="#DejaVuSans-48"/>
      <use x="222.65625" xlink:href="#DejaVuSans-48"/>
     </g>
    </g>
   </g>
   <g id="text_27">
    <g clip-path="url(#pcd384b8ffd)">
     <!-- 7.500 -->
     <g style="fill:#75d054;" transform="translate(204.894249 242.013104)rotate(-351.601611)scale(0.06 -0.06)">
      <use xlink:href="#DejaVuSans-55"/>
      <use x="63.623047" xlink:href="#DejaVuSans-46"/>
      <use x="95.410156" xlink:href="#DejaVuSans-53"/>
      <use x="159.033203" xlink:href="#DejaVuSans-48"/>
      <use x="222.65625" xlink:href="#DejaVuSans-48"/>
     </g>
    </g>
   </g>
   <g id="text_28">
    <g clip-path="url(#pcd384b8ffd)">
     <!-- 8.000 -->
     <g style="fill:#95d840;" transform="translate(200.112973 242.375708)rotate(-353.701434)scale(0.06 -0.06)">
      <use xlink:href="#DejaVuSans-56"/>
      <use x="63.623047" xlink:href="#DejaVuSans-46"/>
      <use x="95.410156" xlink:href="#DejaVuSans-48"/>
      <use x="159.033203" xlink:href="#DejaVuSans-48"/>
      <use x="222.65625" xlink:href="#DejaVuSans-48"/>
     </g>
    </g>
   </g>
   <g id="text_29">
    <g clip-path="url(#pcd384b8ffd)">
     <!-- 8.500 -->
     <g style="fill:#bade28;" transform="translate(200.121974 243.370599)rotate(-354.384184)scale(0.06 -0.06)">
      <use xlink:href="#DejaVuSans-56"/>
      <use x="63.623047" xlink:href="#DejaVuSans-46"/>
      <use x="95.410156" xlink:href="#DejaVuSans-53"/>
      <use x="159.033203" xlink:href="#DejaVuSans-48"/>
      <use x="222.65625" xlink:href="#DejaVuSans-48"/>
     </g>
    </g>
   </g>
   <g id="text_30">
    <g clip-path="url(#pcd384b8ffd)">
     <!-- 9.000 -->
     <g style="fill:#dde318;" transform="translate(200.120491 244.245495)rotate(-354.277887)scale(0.06 -0.06)">
      <defs>
       <path d="M 10.984375 1.515625 
L 10.984375 10.5 
Q 14.703125 8.734375 18.5 7.8125 
Q 22.3125 6.890625 25.984375 6.890625 
Q 35.75 6.890625 40.890625 13.453125 
Q 46.046875 20.015625 46.78125 33.40625 
Q 43.953125 29.203125 39.59375 26.953125 
Q 35.25 24.703125 29.984375 24.703125 
Q 19.046875 24.703125 12.671875 31.3125 
Q 6.296875 37.9375 6.296875 49.421875 
Q 6.296875 60.640625 12.9375 67.421875 
Q 19.578125 74.21875 30.609375 74.21875 
Q 43.265625 74.21875 49.921875 64.515625 
Q 56.59375 54.828125 56.59375 36.375 
Q 56.59375 19.140625 48.40625 8.859375 
Q 40.234375 -1.421875 26.421875 -1.421875 
Q 22.703125 -1.421875 18.890625 -0.6875 
Q 15.09375 0.046875 10.984375 1.515625 
z
M 30.609375 32.421875 
Q 37.25 32.421875 41.125 36.953125 
Q 45.015625 41.5 45.015625 49.421875 
Q 45.015625 57.28125 41.125 61.84375 
Q 37.25 66.40625 30.609375 66.40625 
Q 23.96875 66.40625 20.09375 61.84375 
Q 16.21875 57.28125 16.21875 49.421875 
Q 16.21875 41.5 20.09375 36.953125 
Q 23.96875 32.421875 30.609375 32.421875 
z
" id="DejaVuSans-57"/>
      </defs>
      <use xlink:href="#DejaVuSans-57"/>
      <use x="63.623047" xlink:href="#DejaVuSans-46"/>
      <use x="95.410156" xlink:href="#DejaVuSans-48"/>
      <use x="159.033203" xlink:href="#DejaVuSans-48"/>
      <use x="222.65625" xlink:href="#DejaVuSans-48"/>
     </g>
    </g>
   </g>
   <g id="text_31">
    <g clip-path="url(#pcd384b8ffd)">
     <!-- 9.500 -->
     <g style="fill:#fde725;" transform="translate(200.119039 245.120399)rotate(-354.171659)scale(0.06 -0.06)">
      <use xlink:href="#DejaVuSans-57"/>
      <use x="63.623047" xlink:href="#DejaVuSans-46"/>
      <use x="95.410156" xlink:href="#DejaVuSans-53"/>
      <use x="159.033203" xlink:href="#DejaVuSans-48"/>
      <use x="222.65625" xlink:href="#DejaVuSans-48"/>
     </g>
    </g>
   </g>
   <g id="text_32">
    <g clip-path="url(#pcd384b8ffd)">
     <!-- 10.000 -->
     <g style="fill:#440154;" transform="translate(182.998565 245.105466)rotate(-357.829114)scale(0.06 -0.06)">
      <use xlink:href="#DejaVuSans-49"/>
      <use x="63.623047" xlink:href="#DejaVuSans-48"/>
      <use x="127.246094" xlink:href="#DejaVuSans-46"/>
      <use x="159.033203" xlink:href="#DejaVuSans-48"/>
      <use x="222.65625" xlink:href="#DejaVuSans-48"/>
      <use x="286.279297" xlink:href="#DejaVuSans-48"/>
     </g>
    </g>
   </g>
   <g id="text_33">
    <g clip-path="url(#pcd384b8ffd)">
     <!-- 100.000 -->
     <g style="fill:#440154;" transform="translate(69.600988 237.071403)rotate(-310.719475)scale(0.06 -0.06)">
      <use xlink:href="#DejaVuSans-49"/>
      <use x="63.623047" xlink:href="#DejaVuSans-48"/>
      <use x="127.246094" xlink:href="#DejaVuSans-48"/>
      <use x="190.869141" xlink:href="#DejaVuSans-46"/>
      <use x="222.65625" xlink:href="#DejaVuSans-48"/>
      <use x="286.279297" xlink:href="#DejaVuSans-48"/>
      <use x="349.902344" xlink:href="#DejaVuSans-48"/>
     </g>
    </g>
   </g>
   <g id="text_34">
    <g clip-path="url(#pcd384b8ffd)">
     <!-- 100.000 -->
     <g style="fill:#440154;" transform="translate(106.808104 66.979576)rotate(-5.128486)scale(0.06 -0.06)">
      <use xlink:href="#DejaVuSans-49"/>
      <use x="63.623047" xlink:href="#DejaVuSans-48"/>
      <use x="127.246094" xlink:href="#DejaVuSans-48"/>
      <use x="190.869141" xlink:href="#DejaVuSans-46"/>
      <use x="222.65625" xlink:href="#DejaVuSans-48"/>
      <use x="286.279297" xlink:href="#DejaVuSans-48"/>
      <use x="349.902344" xlink:href="#DejaVuSans-48"/>
     </g>
    </g>
   </g>
   <g id="text_35">
    <g clip-path="url(#pcd384b8ffd)">
     <!-- 1000.000 -->
     <g style="fill:#440154;" transform="translate(96.406171 48.39694)rotate(-17.992288)scale(0.06 -0.06)">
      <use xlink:href="#DejaVuSans-49"/>
      <use x="63.623047" xlink:href="#DejaVuSans-48"/>
      <use x="127.246094" xlink:href="#DejaVuSans-48"/>
      <use x="190.869141" xlink:href="#DejaVuSans-48"/>
      <use x="254.492188" xlink:href="#DejaVuSans-46"/>
      <use x="286.279297" xlink:href="#DejaVuSans-48"/>
      <use x="349.902344" xlink:href="#DejaVuSans-48"/>
      <use x="413.525391" xlink:href="#DejaVuSans-48"/>
     </g>
    </g>
   </g>
   <g id="text_36">
    <g clip-path="url(#pcd384b8ffd)">
     <!-- 10000.000 -->
     <g style="fill:#440154;" transform="translate(81.661382 45.62925)rotate(-23.62679)scale(0.06 -0.06)">
      <use xlink:href="#DejaVuSans-49"/>
      <use x="63.623047" xlink:href="#DejaVuSans-48"/>
      <use x="127.246094" xlink:href="#DejaVuSans-48"/>
      <use x="190.869141" xlink:href="#DejaVuSans-48"/>
      <use x="254.492188" xlink:href="#DejaVuSans-48"/>
      <use x="318.115234" xlink:href="#DejaVuSans-46"/>
      <use x="349.902344" xlink:href="#DejaVuSans-48"/>
      <use x="413.525391" xlink:href="#DejaVuSans-48"/>
      <use x="477.148438" xlink:href="#DejaVuSans-48"/>
     </g>
    </g>
   </g>
   <g id="text_37">
    <g clip-path="url(#pcd384b8ffd)">
     <!-- 100000.000 -->
     <g style="fill:#440154;" transform="translate(71.169453 40.939745)rotate(-26.909468)scale(0.06 -0.06)">
      <use xlink:href="#DejaVuSans-49"/>
      <use x="63.623047" xlink:href="#DejaVuSans-48"/>
      <use x="127.246094" xlink:href="#DejaVuSans-48"/>
      <use x="190.869141" xlink:href="#DejaVuSans-48"/>
      <use x="254.492188" xlink:href="#DejaVuSans-48"/>
      <use x="318.115234" xlink:href="#DejaVuSans-48"/>
      <use x="381.738281" xlink:href="#DejaVuSans-46"/>
      <use x="413.525391" xlink:href="#DejaVuSans-48"/>
      <use x="477.148438" xlink:href="#DejaVuSans-48"/>
      <use x="540.771484" xlink:href="#DejaVuSans-48"/>
     </g>
    </g>
   </g>
  </g>
 </g>
 <defs>
  <clipPath id="pcd384b8ffd">
   <rect height="266.112" width="357.12" x="56.028488" y="10.999219"/>
  </clipPath>
 </defs>
</svg>
