<?xml version="1.0" encoding="utf-8" standalone="no"?>
<!DOCTYPE svg PUBLIC "-//W3C//DTD SVG 1.1//EN"
  "http://www.w3.org/Graphics/SVG/1.1/DTD/svg11.dtd">
<!-- Created with matplotlib (https://matplotlib.org/) -->
<svg height="321.713144pt" version="1.1" viewBox="0 0 420.348487 321.713144" width="420.348487pt" xmlns="http://www.w3.org/2000/svg" xmlns:xlink="http://www.w3.org/1999/xlink">
 <metadata>
  <rdf:RDF xmlns:cc="http://creativecommons.org/ns#" xmlns:dc="http://purl.org/dc/elements/1.1/" xmlns:rdf="http://www.w3.org/1999/02/22-rdf-syntax-ns#">
   <cc:Work>
    <dc:type rdf:resource="http://purl.org/dc/dcmitype/StillImage"/>
    <dc:date>2021-09-19T00:01:18.204210</dc:date>
    <dc:format>image/svg+xml</dc:format>
    <dc:creator>
     <cc:Agent>
      <dc:title>Matplotlib v3.3.1, https://matplotlib.org/</dc:title>
     </cc:Agent>
    </dc:creator>
   </cc:Work>
  </rdf:RDF>
 </metadata>
 <defs>
  <style type="text/css">*{stroke-linecap:butt;stroke-linejoin:round;}</style>
 </defs>
 <g id="figure_1">
  <g id="patch_1">
   <path d="M 0 321.713144 
L 420.348487 321.713144 
L 420.348487 0 
L 0 0 
z
" style="fill:#ffffff;"/>
  </g>
  <g id="axes_1">
   <g id="patch_2">
    <path d="M 56.028488 277.111219 
L 413.148488 277.111219 
L 413.148488 10.999219 
L 56.028488 10.999219 
z
" style="fill:#ffffff;"/>
   </g>
   <g id="matplotlib.axis_1">
    <g id="xtick_1">
     <g id="line2d_1">
      <defs>
       <path d="M 0 0 
L 0 3.5 
" id="m5c1cbce7a1" style="stroke:#000000;stroke-width:0.8;"/>
      </defs>
      <g>
       <use style="stroke:#000000;stroke-width:0.8;" x="56.028488" xlink:href="#m5c1cbce7a1" y="277.111219"/>
      </g>
     </g>
     <g id="text_1">
      <!-- −20 -->
      <g transform="translate(45.476144 291.709656)scale(0.1 -0.1)">
       <defs>
        <path d="M 10.59375 35.5 
L 73.1875 35.5 
L 73.1875 27.203125 
L 10.59375 27.203125 
z
" id="DejaVuSans-8722"/>
        <path d="M 19.1875 8.296875 
L 53.609375 8.296875 
L 53.609375 0 
L 7.328125 0 
L 7.328125 8.296875 
Q 12.9375 14.109375 22.625 23.890625 
Q 32.328125 33.6875 34.8125 36.53125 
Q 39.546875 41.84375 41.421875 45.53125 
Q 43.3125 49.21875 43.3125 52.78125 
Q 43.3125 58.59375 39.234375 62.25 
Q 35.15625 65.921875 28.609375 65.921875 
Q 23.96875 65.921875 18.8125 64.3125 
Q 13.671875 62.703125 7.8125 59.421875 
L 7.8125 69.390625 
Q 13.765625 71.78125 18.9375 73 
Q 24.125 74.21875 28.421875 74.21875 
Q 39.75 74.21875 46.484375 68.546875 
Q 53.21875 62.890625 53.21875 53.421875 
Q 53.21875 48.921875 51.53125 44.890625 
Q 49.859375 40.875 45.40625 35.40625 
Q 44.1875 33.984375 37.640625 27.21875 
Q 31.109375 20.453125 19.1875 8.296875 
z
" id="DejaVuSans-50"/>
        <path d="M 31.78125 66.40625 
Q 24.171875 66.40625 20.328125 58.90625 
Q 16.5 51.421875 16.5 36.375 
Q 16.5 21.390625 20.328125 13.890625 
Q 24.171875 6.390625 31.78125 6.390625 
Q 39.453125 6.390625 43.28125 13.890625 
Q 47.125 21.390625 47.125 36.375 
Q 47.125 51.421875 43.28125 58.90625 
Q 39.453125 66.40625 31.78125 66.40625 
z
M 31.78125 74.21875 
Q 44.046875 74.21875 50.515625 64.515625 
Q 56.984375 54.828125 56.984375 36.375 
Q 56.984375 17.96875 50.515625 8.265625 
Q 44.046875 -1.421875 31.78125 -1.421875 
Q 19.53125 -1.421875 13.0625 8.265625 
Q 6.59375 17.96875 6.59375 36.375 
Q 6.59375 54.828125 13.0625 64.515625 
Q 19.53125 74.21875 31.78125 74.21875 
z
" id="DejaVuSans-48"/>
       </defs>
       <use xlink:href="#DejaVuSans-8722"/>
       <use x="83.789062" xlink:href="#DejaVuSans-50"/>
       <use x="147.412109" xlink:href="#DejaVuSans-48"/>
      </g>
     </g>
    </g>
    <g id="xtick_2">
     <g id="line2d_2">
      <g>
       <use style="stroke:#000000;stroke-width:0.8;" x="107.389265" xlink:href="#m5c1cbce7a1" y="277.111219"/>
      </g>
     </g>
     <g id="text_2">
      <!-- 0 -->
      <g transform="translate(104.208015 291.709656)scale(0.1 -0.1)">
       <use xlink:href="#DejaVuSans-48"/>
      </g>
     </g>
    </g>
    <g id="xtick_3">
     <g id="line2d_3">
      <g>
       <use style="stroke:#000000;stroke-width:0.8;" x="158.750042" xlink:href="#m5c1cbce7a1" y="277.111219"/>
      </g>
     </g>
     <g id="text_3">
      <!-- 20 -->
      <g transform="translate(152.387542 291.709656)scale(0.1 -0.1)">
       <use xlink:href="#DejaVuSans-50"/>
       <use x="63.623047" xlink:href="#DejaVuSans-48"/>
      </g>
     </g>
    </g>
    <g id="xtick_4">
     <g id="line2d_4">
      <g>
       <use style="stroke:#000000;stroke-width:0.8;" x="210.110819" xlink:href="#m5c1cbce7a1" y="277.111219"/>
      </g>
     </g>
     <g id="text_4">
      <!-- 40 -->
      <g transform="translate(203.748319 291.709656)scale(0.1 -0.1)">
       <defs>
        <path d="M 37.796875 64.3125 
L 12.890625 25.390625 
L 37.796875 25.390625 
z
M 35.203125 72.90625 
L 47.609375 72.90625 
L 47.609375 25.390625 
L 58.015625 25.390625 
L 58.015625 17.1875 
L 47.609375 17.1875 
L 47.609375 0 
L 37.796875 0 
L 37.796875 17.1875 
L 4.890625 17.1875 
L 4.890625 26.703125 
z
" id="DejaVuSans-52"/>
       </defs>
       <use xlink:href="#DejaVuSans-52"/>
       <use x="63.623047" xlink:href="#DejaVuSans-48"/>
      </g>
     </g>
    </g>
    <g id="xtick_5">
     <g id="line2d_5">
      <g>
       <use style="stroke:#000000;stroke-width:0.8;" x="261.471596" xlink:href="#m5c1cbce7a1" y="277.111219"/>
      </g>
     </g>
     <g id="text_5">
      <!-- 60 -->
      <g transform="translate(255.109096 291.709656)scale(0.1 -0.1)">
       <defs>
        <path d="M 33.015625 40.375 
Q 26.375 40.375 22.484375 35.828125 
Q 18.609375 31.296875 18.609375 23.390625 
Q 18.609375 15.53125 22.484375 10.953125 
Q 26.375 6.390625 33.015625 6.390625 
Q 39.65625 6.390625 43.53125 10.953125 
Q 47.40625 15.53125 47.40625 23.390625 
Q 47.40625 31.296875 43.53125 35.828125 
Q 39.65625 40.375 33.015625 40.375 
z
M 52.59375 71.296875 
L 52.59375 62.3125 
Q 48.875 64.0625 45.09375 64.984375 
Q 41.3125 65.921875 37.59375 65.921875 
Q 27.828125 65.921875 22.671875 59.328125 
Q 17.53125 52.734375 16.796875 39.40625 
Q 19.671875 43.65625 24.015625 45.921875 
Q 28.375 48.1875 33.59375 48.1875 
Q 44.578125 48.1875 50.953125 41.515625 
Q 57.328125 34.859375 57.328125 23.390625 
Q 57.328125 12.15625 50.6875 5.359375 
Q 44.046875 -1.421875 33.015625 -1.421875 
Q 20.359375 -1.421875 13.671875 8.265625 
Q 6.984375 17.96875 6.984375 36.375 
Q 6.984375 53.65625 15.1875 63.9375 
Q 23.390625 74.21875 37.203125 74.21875 
Q 40.921875 74.21875 44.703125 73.484375 
Q 48.484375 72.75 52.59375 71.296875 
z
" id="DejaVuSans-54"/>
       </defs>
       <use xlink:href="#DejaVuSans-54"/>
       <use x="63.623047" xlink:href="#DejaVuSans-48"/>
      </g>
     </g>
    </g>
    <g id="xtick_6">
     <g id="line2d_6">
      <g>
       <use style="stroke:#000000;stroke-width:0.8;" x="312.832373" xlink:href="#m5c1cbce7a1" y="277.111219"/>
      </g>
     </g>
     <g id="text_6">
      <!-- 80 -->
      <g transform="translate(306.469873 291.709656)scale(0.1 -0.1)">
       <defs>
        <path d="M 31.78125 34.625 
Q 24.75 34.625 20.71875 30.859375 
Q 16.703125 27.09375 16.703125 20.515625 
Q 16.703125 13.921875 20.71875 10.15625 
Q 24.75 6.390625 31.78125 6.390625 
Q 38.8125 6.390625 42.859375 10.171875 
Q 46.921875 13.96875 46.921875 20.515625 
Q 46.921875 27.09375 42.890625 30.859375 
Q 38.875 34.625 31.78125 34.625 
z
M 21.921875 38.8125 
Q 15.578125 40.375 12.03125 44.71875 
Q 8.5 49.078125 8.5 55.328125 
Q 8.5 64.0625 14.71875 69.140625 
Q 20.953125 74.21875 31.78125 74.21875 
Q 42.671875 74.21875 48.875 69.140625 
Q 55.078125 64.0625 55.078125 55.328125 
Q 55.078125 49.078125 51.53125 44.71875 
Q 48 40.375 41.703125 38.8125 
Q 48.828125 37.15625 52.796875 32.3125 
Q 56.78125 27.484375 56.78125 20.515625 
Q 56.78125 9.90625 50.3125 4.234375 
Q 43.84375 -1.421875 31.78125 -1.421875 
Q 19.734375 -1.421875 13.25 4.234375 
Q 6.78125 9.90625 6.78125 20.515625 
Q 6.78125 27.484375 10.78125 32.3125 
Q 14.796875 37.15625 21.921875 38.8125 
z
M 18.3125 54.390625 
Q 18.3125 48.734375 21.84375 45.5625 
Q 25.390625 42.390625 31.78125 42.390625 
Q 38.140625 42.390625 41.71875 45.5625 
Q 45.3125 48.734375 45.3125 54.390625 
Q 45.3125 60.0625 41.71875 63.234375 
Q 38.140625 66.40625 31.78125 66.40625 
Q 25.390625 66.40625 21.84375 63.234375 
Q 18.3125 60.0625 18.3125 54.390625 
z
" id="DejaVuSans-56"/>
       </defs>
       <use xlink:href="#DejaVuSans-56"/>
       <use x="63.623047" xlink:href="#DejaVuSans-48"/>
      </g>
     </g>
    </g>
    <g id="xtick_7">
     <g id="line2d_7">
      <g>
       <use style="stroke:#000000;stroke-width:0.8;" x="364.19315" xlink:href="#m5c1cbce7a1" y="277.111219"/>
      </g>
     </g>
     <g id="text_7">
      <!-- 100 -->
      <g transform="translate(354.6494 291.709656)scale(0.1 -0.1)">
       <defs>
        <path d="M 12.40625 8.296875 
L 28.515625 8.296875 
L 28.515625 63.921875 
L 10.984375 60.40625 
L 10.984375 69.390625 
L 28.421875 72.90625 
L 38.28125 72.90625 
L 38.28125 8.296875 
L 54.390625 8.296875 
L 54.390625 0 
L 12.40625 0 
z
" id="DejaVuSans-49"/>
       </defs>
       <use xlink:href="#DejaVuSans-49"/>
       <use x="63.623047" xlink:href="#DejaVuSans-48"/>
       <use x="127.246094" xlink:href="#DejaVuSans-48"/>
      </g>
     </g>
    </g>
    <g id="text_8">
     <!-- 1st PC: 98.29 % -->
     <g transform="translate(165.868088 310.919444)scale(0.1728 -0.1728)">
      <defs>
       <path d="M 44.28125 53.078125 
L 44.28125 44.578125 
Q 40.484375 46.53125 36.375 47.5 
Q 32.28125 48.484375 27.875 48.484375 
Q 21.1875 48.484375 17.84375 46.4375 
Q 14.5 44.390625 14.5 40.28125 
Q 14.5 37.15625 16.890625 35.375 
Q 19.28125 33.59375 26.515625 31.984375 
L 29.59375 31.296875 
Q 39.15625 29.25 43.1875 25.515625 
Q 47.21875 21.78125 47.21875 15.09375 
Q 47.21875 7.46875 41.1875 3.015625 
Q 35.15625 -1.421875 24.609375 -1.421875 
Q 20.21875 -1.421875 15.453125 -0.5625 
Q 10.6875 0.296875 5.421875 2 
L 5.421875 11.28125 
Q 10.40625 8.6875 15.234375 7.390625 
Q 20.0625 6.109375 24.8125 6.109375 
Q 31.15625 6.109375 34.5625 8.28125 
Q 37.984375 10.453125 37.984375 14.40625 
Q 37.984375 18.0625 35.515625 20.015625 
Q 33.0625 21.96875 24.703125 23.78125 
L 21.578125 24.515625 
Q 13.234375 26.265625 9.515625 29.90625 
Q 5.8125 33.546875 5.8125 39.890625 
Q 5.8125 47.609375 11.28125 51.796875 
Q 16.75 56 26.8125 56 
Q 31.78125 56 36.171875 55.265625 
Q 40.578125 54.546875 44.28125 53.078125 
z
" id="DejaVuSans-115"/>
       <path d="M 18.3125 70.21875 
L 18.3125 54.6875 
L 36.8125 54.6875 
L 36.8125 47.703125 
L 18.3125 47.703125 
L 18.3125 18.015625 
Q 18.3125 11.328125 20.140625 9.421875 
Q 21.96875 7.515625 27.59375 7.515625 
L 36.8125 7.515625 
L 36.8125 0 
L 27.59375 0 
Q 17.1875 0 13.234375 3.875 
Q 9.28125 7.765625 9.28125 18.015625 
L 9.28125 47.703125 
L 2.6875 47.703125 
L 2.6875 54.6875 
L 9.28125 54.6875 
L 9.28125 70.21875 
z
" id="DejaVuSans-116"/>
       <path id="DejaVuSans-32"/>
       <path d="M 19.671875 64.796875 
L 19.671875 37.40625 
L 32.078125 37.40625 
Q 38.96875 37.40625 42.71875 40.96875 
Q 46.484375 44.53125 46.484375 51.125 
Q 46.484375 57.671875 42.71875 61.234375 
Q 38.96875 64.796875 32.078125 64.796875 
z
M 9.8125 72.90625 
L 32.078125 72.90625 
Q 44.34375 72.90625 50.609375 67.359375 
Q 56.890625 61.8125 56.890625 51.125 
Q 56.890625 40.328125 50.609375 34.8125 
Q 44.34375 29.296875 32.078125 29.296875 
L 19.671875 29.296875 
L 19.671875 0 
L 9.8125 0 
z
" id="DejaVuSans-80"/>
       <path d="M 64.40625 67.28125 
L 64.40625 56.890625 
Q 59.421875 61.53125 53.78125 63.8125 
Q 48.140625 66.109375 41.796875 66.109375 
Q 29.296875 66.109375 22.65625 58.46875 
Q 16.015625 50.828125 16.015625 36.375 
Q 16.015625 21.96875 22.65625 14.328125 
Q 29.296875 6.6875 41.796875 6.6875 
Q 48.140625 6.6875 53.78125 8.984375 
Q 59.421875 11.28125 64.40625 15.921875 
L 64.40625 5.609375 
Q 59.234375 2.09375 53.4375 0.328125 
Q 47.65625 -1.421875 41.21875 -1.421875 
Q 24.65625 -1.421875 15.125 8.703125 
Q 5.609375 18.84375 5.609375 36.375 
Q 5.609375 53.953125 15.125 64.078125 
Q 24.65625 74.21875 41.21875 74.21875 
Q 47.75 74.21875 53.53125 72.484375 
Q 59.328125 70.75 64.40625 67.28125 
z
" id="DejaVuSans-67"/>
       <path d="M 11.71875 12.40625 
L 22.015625 12.40625 
L 22.015625 0 
L 11.71875 0 
z
M 11.71875 51.703125 
L 22.015625 51.703125 
L 22.015625 39.3125 
L 11.71875 39.3125 
z
" id="DejaVuSans-58"/>
       <path d="M 10.984375 1.515625 
L 10.984375 10.5 
Q 14.703125 8.734375 18.5 7.8125 
Q 22.3125 6.890625 25.984375 6.890625 
Q 35.75 6.890625 40.890625 13.453125 
Q 46.046875 20.015625 46.78125 33.40625 
Q 43.953125 29.203125 39.59375 26.953125 
Q 35.25 24.703125 29.984375 24.703125 
Q 19.046875 24.703125 12.671875 31.3125 
Q 6.296875 37.9375 6.296875 49.421875 
Q 6.296875 60.640625 12.9375 67.421875 
Q 19.578125 74.21875 30.609375 74.21875 
Q 43.265625 74.21875 49.921875 64.515625 
Q 56.59375 54.828125 56.59375 36.375 
Q 56.59375 19.140625 48.40625 8.859375 
Q 40.234375 -1.421875 26.421875 -1.421875 
Q 22.703125 -1.421875 18.890625 -0.6875 
Q 15.09375 0.046875 10.984375 1.515625 
z
M 30.609375 32.421875 
Q 37.25 32.421875 41.125 36.953125 
Q 45.015625 41.5 45.015625 49.421875 
Q 45.015625 57.28125 41.125 61.84375 
Q 37.25 66.40625 30.609375 66.40625 
Q 23.96875 66.40625 20.09375 61.84375 
Q 16.21875 57.28125 16.21875 49.421875 
Q 16.21875 41.5 20.09375 36.953125 
Q 23.96875 32.421875 30.609375 32.421875 
z
" id="DejaVuSans-57"/>
       <path d="M 10.6875 12.40625 
L 21 12.40625 
L 21 0 
L 10.6875 0 
z
" id="DejaVuSans-46"/>
       <path d="M 72.703125 32.078125 
Q 68.453125 32.078125 66.03125 28.46875 
Q 63.625 24.859375 63.625 18.40625 
Q 63.625 12.0625 66.03125 8.421875 
Q 68.453125 4.78125 72.703125 4.78125 
Q 76.859375 4.78125 79.265625 8.421875 
Q 81.6875 12.0625 81.6875 18.40625 
Q 81.6875 24.8125 79.265625 28.4375 
Q 76.859375 32.078125 72.703125 32.078125 
z
M 72.703125 38.28125 
Q 80.421875 38.28125 84.953125 32.90625 
Q 89.5 27.546875 89.5 18.40625 
Q 89.5 9.28125 84.9375 3.921875 
Q 80.375 -1.421875 72.703125 -1.421875 
Q 64.890625 -1.421875 60.34375 3.921875 
Q 55.8125 9.28125 55.8125 18.40625 
Q 55.8125 27.59375 60.375 32.9375 
Q 64.9375 38.28125 72.703125 38.28125 
z
M 22.3125 68.015625 
Q 18.109375 68.015625 15.6875 64.375 
Q 13.28125 60.75 13.28125 54.390625 
Q 13.28125 47.953125 15.671875 44.328125 
Q 18.0625 40.71875 22.3125 40.71875 
Q 26.5625 40.71875 28.96875 44.328125 
Q 31.390625 47.953125 31.390625 54.390625 
Q 31.390625 60.6875 28.953125 64.34375 
Q 26.515625 68.015625 22.3125 68.015625 
z
M 66.40625 74.21875 
L 74.21875 74.21875 
L 28.609375 -1.421875 
L 20.796875 -1.421875 
z
M 22.3125 74.21875 
Q 30.03125 74.21875 34.609375 68.875 
Q 39.203125 63.53125 39.203125 54.390625 
Q 39.203125 45.171875 34.640625 39.84375 
Q 30.078125 34.515625 22.3125 34.515625 
Q 14.546875 34.515625 10.03125 39.859375 
Q 5.515625 45.21875 5.515625 54.390625 
Q 5.515625 63.484375 10.046875 68.84375 
Q 14.59375 74.21875 22.3125 74.21875 
z
" id="DejaVuSans-37"/>
      </defs>
      <use xlink:href="#DejaVuSans-49"/>
      <use x="63.623047" xlink:href="#DejaVuSans-115"/>
      <use x="115.722656" xlink:href="#DejaVuSans-116"/>
      <use x="154.931641" xlink:href="#DejaVuSans-32"/>
      <use x="186.71875" xlink:href="#DejaVuSans-80"/>
      <use x="247.021484" xlink:href="#DejaVuSans-67"/>
      <use x="316.845703" xlink:href="#DejaVuSans-58"/>
      <use x="350.537109" xlink:href="#DejaVuSans-32"/>
      <use x="382.324219" xlink:href="#DejaVuSans-57"/>
      <use x="445.947266" xlink:href="#DejaVuSans-56"/>
      <use x="509.570312" xlink:href="#DejaVuSans-46"/>
      <use x="541.357422" xlink:href="#DejaVuSans-50"/>
      <use x="604.980469" xlink:href="#DejaVuSans-57"/>
      <use x="668.603516" xlink:href="#DejaVuSans-32"/>
      <use x="700.390625" xlink:href="#DejaVuSans-37"/>
     </g>
    </g>
   </g>
   <g id="matplotlib.axis_2">
    <g id="ytick_1">
     <g id="line2d_8">
      <defs>
       <path d="M 0 0 
L -3.5 0 
" id="m223f38852d" style="stroke:#000000;stroke-width:0.8;"/>
      </defs>
      <g>
       <use style="stroke:#000000;stroke-width:0.8;" x="56.028488" xlink:href="#m223f38852d" y="277.111219"/>
      </g>
     </g>
     <g id="text_9">
      <!-- −10 -->
      <g transform="translate(27.9238 280.910438)scale(0.1 -0.1)">
       <use xlink:href="#DejaVuSans-8722"/>
       <use x="83.789062" xlink:href="#DejaVuSans-49"/>
       <use x="147.412109" xlink:href="#DejaVuSans-48"/>
      </g>
     </g>
    </g>
    <g id="ytick_2">
     <g id="line2d_9">
      <g>
       <use style="stroke:#000000;stroke-width:0.8;" x="56.028488" xlink:href="#m223f38852d" y="243.847219"/>
      </g>
     </g>
     <g id="text_10">
      <!-- −8 -->
      <g transform="translate(34.2863 247.646437)scale(0.1 -0.1)">
       <use xlink:href="#DejaVuSans-8722"/>
       <use x="83.789062" xlink:href="#DejaVuSans-56"/>
      </g>
     </g>
    </g>
    <g id="ytick_3">
     <g id="line2d_10">
      <g>
       <use style="stroke:#000000;stroke-width:0.8;" x="56.028488" xlink:href="#m223f38852d" y="210.583219"/>
      </g>
     </g>
     <g id="text_11">
      <!-- −6 -->
      <g transform="translate(34.2863 214.382437)scale(0.1 -0.1)">
       <use xlink:href="#DejaVuSans-8722"/>
       <use x="83.789062" xlink:href="#DejaVuSans-54"/>
      </g>
     </g>
    </g>
    <g id="ytick_4">
     <g id="line2d_11">
      <g>
       <use style="stroke:#000000;stroke-width:0.8;" x="56.028488" xlink:href="#m223f38852d" y="177.319219"/>
      </g>
     </g>
     <g id="text_12">
      <!-- −4 -->
      <g transform="translate(34.2863 181.118437)scale(0.1 -0.1)">
       <use xlink:href="#DejaVuSans-8722"/>
       <use x="83.789062" xlink:href="#DejaVuSans-52"/>
      </g>
     </g>
    </g>
    <g id="ytick_5">
     <g id="line2d_12">
      <g>
       <use style="stroke:#000000;stroke-width:0.8;" x="56.028488" xlink:href="#m223f38852d" y="144.055219"/>
      </g>
     </g>
     <g id="text_13">
      <!-- −2 -->
      <g transform="translate(34.2863 147.854437)scale(0.1 -0.1)">
       <use xlink:href="#DejaVuSans-8722"/>
       <use x="83.789062" xlink:href="#DejaVuSans-50"/>
      </g>
     </g>
    </g>
    <g id="ytick_6">
     <g id="line2d_13">
      <g>
       <use style="stroke:#000000;stroke-width:0.8;" x="56.028488" xlink:href="#m223f38852d" y="110.791219"/>
      </g>
     </g>
     <g id="text_14">
      <!-- 0 -->
      <g transform="translate(42.665987 114.590437)scale(0.1 -0.1)">
       <use xlink:href="#DejaVuSans-48"/>
      </g>
     </g>
    </g>
    <g id="ytick_7">
     <g id="line2d_14">
      <g>
       <use style="stroke:#000000;stroke-width:0.8;" x="56.028488" xlink:href="#m223f38852d" y="77.527219"/>
      </g>
     </g>
     <g id="text_15">
      <!-- 2 -->
      <g transform="translate(42.665987 81.326437)scale(0.1 -0.1)">
       <use xlink:href="#DejaVuSans-50"/>
      </g>
     </g>
    </g>
    <g id="ytick_8">
     <g id="line2d_15">
      <g>
       <use style="stroke:#000000;stroke-width:0.8;" x="56.028488" xlink:href="#m223f38852d" y="44.263219"/>
      </g>
     </g>
     <g id="text_16">
      <!-- 4 -->
      <g transform="translate(42.665987 48.062437)scale(0.1 -0.1)">
       <use xlink:href="#DejaVuSans-52"/>
      </g>
     </g>
    </g>
    <g id="ytick_9">
     <g id="line2d_16">
      <g>
       <use style="stroke:#000000;stroke-width:0.8;" x="56.028488" xlink:href="#m223f38852d" y="10.999219"/>
      </g>
     </g>
     <g id="text_17">
      <!-- 6 -->
      <g transform="translate(42.665987 14.798437)scale(0.1 -0.1)">
       <use xlink:href="#DejaVuSans-54"/>
      </g>
     </g>
    </g>
    <g id="text_18">
     <!-- 2nd PC: 0.80 % -->
     <g transform="translate(20.3301 210.351019)rotate(-90)scale(0.1728 -0.1728)">
      <defs>
       <path d="M 54.890625 33.015625 
L 54.890625 0 
L 45.90625 0 
L 45.90625 32.71875 
Q 45.90625 40.484375 42.875 44.328125 
Q 39.84375 48.1875 33.796875 48.1875 
Q 26.515625 48.1875 22.3125 43.546875 
Q 18.109375 38.921875 18.109375 30.90625 
L 18.109375 0 
L 9.078125 0 
L 9.078125 54.6875 
L 18.109375 54.6875 
L 18.109375 46.1875 
Q 21.34375 51.125 25.703125 53.5625 
Q 30.078125 56 35.796875 56 
Q 45.21875 56 50.046875 50.171875 
Q 54.890625 44.34375 54.890625 33.015625 
z
" id="DejaVuSans-110"/>
       <path d="M 45.40625 46.390625 
L 45.40625 75.984375 
L 54.390625 75.984375 
L 54.390625 0 
L 45.40625 0 
L 45.40625 8.203125 
Q 42.578125 3.328125 38.25 0.953125 
Q 33.9375 -1.421875 27.875 -1.421875 
Q 17.96875 -1.421875 11.734375 6.484375 
Q 5.515625 14.40625 5.515625 27.296875 
Q 5.515625 40.1875 11.734375 48.09375 
Q 17.96875 56 27.875 56 
Q 33.9375 56 38.25 53.625 
Q 42.578125 51.265625 45.40625 46.390625 
z
M 14.796875 27.296875 
Q 14.796875 17.390625 18.875 11.75 
Q 22.953125 6.109375 30.078125 6.109375 
Q 37.203125 6.109375 41.296875 11.75 
Q 45.40625 17.390625 45.40625 27.296875 
Q 45.40625 37.203125 41.296875 42.84375 
Q 37.203125 48.484375 30.078125 48.484375 
Q 22.953125 48.484375 18.875 42.84375 
Q 14.796875 37.203125 14.796875 27.296875 
z
" id="DejaVuSans-100"/>
      </defs>
      <use xlink:href="#DejaVuSans-50"/>
      <use x="63.623047" xlink:href="#DejaVuSans-110"/>
      <use x="127.001953" xlink:href="#DejaVuSans-100"/>
      <use x="190.478516" xlink:href="#DejaVuSans-32"/>
      <use x="222.265625" xlink:href="#DejaVuSans-80"/>
      <use x="282.568359" xlink:href="#DejaVuSans-67"/>
      <use x="352.392578" xlink:href="#DejaVuSans-58"/>
      <use x="386.083984" xlink:href="#DejaVuSans-32"/>
      <use x="417.871094" xlink:href="#DejaVuSans-48"/>
      <use x="481.494141" xlink:href="#DejaVuSans-46"/>
      <use x="513.28125" xlink:href="#DejaVuSans-56"/>
      <use x="576.904297" xlink:href="#DejaVuSans-48"/>
      <use x="640.527344" xlink:href="#DejaVuSans-32"/>
      <use x="672.314453" xlink:href="#DejaVuSans-37"/>
     </g>
    </g>
   </g>
   <g id="LineCollection_1"/>
   <g id="LineCollection_2"/>
   <g id="LineCollection_3">
    <path clip-path="url(#pdf27d28f65)" d="M 101.994878 122.587338 
L 101.975804 117.444019 
L 101.951585 108.573619 
L 101.938248 99.703219 
L 101.938459 90.832819 
L 101.95471 81.962419 
L 101.992792 73.092019 
L 102.061503 64.221619 
L 102.17873 55.351219 
L 102.253187 52.099443 
L 102.813101 46.480819 
L 104.821226 44.45304 
L 105.096982 46.480819 
L 106.942203 55.351219 
L 107.389265 56.772314 
L 108.289268 64.221619 
L 109.957304 72.574266 
L 110.00442 73.092019 
L 110.690178 81.962419 
L 111.665782 90.832819 
L 112.525342 97.087936 
L 112.634877 99.703219 
L 112.964057 108.573619 
L 113.28076 117.444019 
L 113.53424 126.314419 
L 113.681055 135.184819 
L 113.667115 144.055219 
L 113.487339 152.925619 
L 113.189582 161.796019 
L 112.833444 170.666419 
L 112.525342 177.876484 
L 112.334327 179.536819 
L 111.32654 188.407219 
L 110.515529 197.277619 
L 109.957304 204.828107 
L 109.692611 206.148019 
L 108.201193 215.018419 
L 107.389265 222.158238 
L 106.289469 223.888819 
L 104.821226 227.439736 
L 104.365294 223.888819 
L 103.626279 215.018419 
L 103.164913 206.148019 
L 102.850836 197.277619 
L 102.62297 188.407219 
L 102.449814 179.536819 
L 102.313005 170.666419 
L 102.253187 166.042164 
L 102.2176 161.796019 
L 102.15284 152.925619 
L 102.120462 147.780444 
" style="fill:none;stroke:#482576;stroke-width:1.5;"/>
   </g>
   <g id="LineCollection_4">
    <path clip-path="url(#pdf27d28f65)" d="M 96.659895 277.111219 
L 96.679179 268.240819 
L 96.719824 259.370419 
L 96.772937 250.500019 
L 96.832453 241.629619 
L 96.89513 232.759219 
L 96.958969 223.888819 
L 97.021973 215.018419 
L 97.082776 206.148019 
L 97.117109 200.872292 
L 97.141181 197.277619 
L 97.172765 192.132405 
" style="fill:none;stroke:#453781;stroke-width:1.5;"/>
    <path clip-path="url(#pdf27d28f65)" d="M 97.305281 166.939964 
L 97.32822 161.796019 
L 97.363564 152.925619 
L 97.394192 144.055219 
L 97.419791 135.184819 
L 97.440726 126.314419 
L 97.457409 117.444019 
L 97.470906 108.573619 
L 97.482672 99.703219 
L 97.494958 90.832819 
L 97.508351 81.962419 
L 97.523872 73.092019 
L 97.542888 64.221619 
L 97.568391 55.351219 
L 97.604965 46.480819 
L 97.660026 37.610419 
L 97.747787 28.740019 
L 97.906039 19.869619 
L 98.268122 10.999219 
" style="fill:none;stroke:#453781;stroke-width:1.5;"/>
    <path clip-path="url(#pdf27d28f65)" d="M 101.021624 10.999219 
L 102.253187 13.943566 
L 102.814772 19.869619 
L 104.496767 28.740019 
L 104.821226 29.944318 
L 105.811861 37.610419 
L 107.389265 45.021882 
L 107.588357 46.480819 
L 108.878373 55.351219 
L 109.957304 60.836336 
L 110.300995 64.221619 
L 111.019286 70.49853 
" style="fill:none;stroke:#453781;stroke-width:1.5;"/>
    <path clip-path="url(#pdf27d28f65)" d="M 113.197753 93.166949 
L 113.649009 99.703219 
L 114.429955 108.573619 
L 115.093381 116.238026 
L 115.122182 117.444019 
L 115.25655 126.314419 
L 115.363336 135.184819 
L 115.435044 144.055219 
L 115.448293 152.925619 
L 115.378842 161.796019 
L 115.21681 170.666419 
L 115.093381 175.282918 
L 114.792354 179.536819 
L 114.131646 188.407219 
L 113.516776 197.277619 
L 112.960344 206.148019 
L 112.525342 213.669475 
L 112.369904 215.018419 
L 111.394377 223.888819 
L 110.62272 232.759219 
L 109.999779 241.629619 
L 109.957304 242.23643 
L 108.875131 250.500019 
L 108.009897 259.370419 
L 107.389265 267.711225 
L 107.306283 268.240819 
L 106.042844 277.111219 
" style="fill:none;stroke:#453781;stroke-width:1.5;"/>
   </g>
   <g id="LineCollection_5">
    <path clip-path="url(#pdf27d28f65)" d="M 90.801583 277.111219 
L 91.013039 268.240819 
L 91.208264 259.370419 
L 91.388137 250.500019 
L 91.55373 241.629619 
L 91.705873 232.759219 
L 91.845033 223.888819 
L 91.971227 215.018419 
L 91.981032 214.242581 
L 92.058126 206.148019 
L 92.132422 197.277619 
L 92.17004 192.130884 
" style="fill:none;stroke:#404688;stroke-width:1.5;"/>
    <path clip-path="url(#pdf27d28f65)" d="M 92.317418 166.940354 
L 92.340198 161.796019 
L 92.370639 152.925619 
L 92.391871 144.055219 
L 92.403854 135.184819 
L 92.407048 126.314419 
L 92.401605 117.444019 
L 92.387714 108.573619 
L 92.365491 99.703219 
L 92.335839 90.832819 
L 92.298665 81.962419 
L 92.253753 73.092019 
L 92.201445 64.221619 
L 92.143066 55.351219 
L 92.079568 46.480819 
L 92.011123 37.610419 
L 91.981032 33.856904 
L 91.925571 28.740019 
L 91.829485 19.869619 
L 91.737556 10.999219 
" style="fill:none;stroke:#404688;stroke-width:1.5;"/>
    <path clip-path="url(#pdf27d28f65)" d="M 102.827835 10.999219 
L 104.187751 19.869619 
L 104.821226 22.891263 
L 105.524057 28.740019 
L 107.26724 37.610419 
L 107.389265 38.183754 
L 108.521513 46.480819 
L 109.957304 53.829268 
L 110.116751 55.351219 
L 111.118333 64.221619 
L 112.525342 72.707274 
L 112.553678 73.092019 
L 113.070328 81.962419 
L 113.725949 90.832819 
L 114.663141 99.703219 
L 115.093381 103.576151 
L 115.288228 108.573619 
L 115.526611 117.444019 
L 115.71584 126.314419 
L 115.905367 135.184819 
L 116.079038 144.055219 
L 116.198686 152.925619 
L 116.217924 161.796019 
L 116.097098 170.666419 
L 115.849876 179.536819 
L 115.524959 188.407219 
L 115.166771 197.277619 
L 115.093381 198.932144 
L 114.457997 206.148019 
L 113.744672 215.018419 
L 113.110281 223.888819 
L 112.539999 232.759219 
L 112.525342 232.978973 
L 111.577914 241.629619 
L 110.786841 250.500019 
L 110.311972 256.855465 
" style="fill:none;stroke:#404688;stroke-width:1.5;"/>
   </g>
   <g id="LineCollection_6">
    <path clip-path="url(#pdf27d28f65)" d="M 77.057035 277.111219 
L 77.561662 268.240819 
L 78.010318 259.370419 
L 78.405148 250.500019 
L 78.749684 241.629619 
L 79.047101 232.759219 
L 79.140837 229.471145 
L 79.270723 223.888819 
L 79.444264 215.018419 
L 79.587047 206.148019 
L 79.70092 197.277619 
L 79.751448 192.128242 
" style="fill:none;stroke:#39558c;stroke-width:1.5;"/>
    <path clip-path="url(#pdf27d28f65)" d="M 79.898842 166.938967 
L 79.9102 161.796019 
L 79.910842 152.925619 
L 79.893259 144.055219 
L 79.858242 135.184819 
L 79.805604 126.314419 
L 79.734776 117.444019 
L 79.644037 108.573619 
L 79.53068 99.703219 
L 79.392157 90.832819 
L 79.227072 81.962419 
L 79.140837 77.984945 
L 79.016273 73.092019 
L 78.760418 64.221619 
L 78.473784 55.351219 
L 78.15627 46.480819 
L 77.809349 37.610419 
L 77.433857 28.740019 
L 77.030335 19.869619 
L 76.599827 10.999219 
" style="fill:none;stroke:#39558c;stroke-width:1.5;"/>
    <path clip-path="url(#pdf27d28f65)" d="M 103.549052 10.999219 
L 104.821226 17.794646 
L 105.054715 19.869619 
L 106.31104 28.740019 
L 107.389265 34.055802 
L 107.904421 37.610419 
L 109.45467 46.480819 
L 109.957304 49.053325 
L 110.617105 55.351219 
L 111.935672 64.221619 
L 112.525342 67.777914 
L 112.690592 70.021673 
" style="fill:none;stroke:#39558c;stroke-width:1.5;"/>
    <path clip-path="url(#pdf27d28f65)" d="M 114.719655 93.344329 
L 115.093381 96.428196 
L 115.254673 99.703219 
L 115.64416 108.573619 
L 115.93104 117.444019 
L 116.175131 126.314419 
L 116.447398 135.184819 
L 116.723032 144.055219 
L 116.949078 152.925619 
L 117.057007 161.796019 
L 116.977386 170.666419 
L 116.718614 179.536819 
L 116.345654 188.407219 
L 115.921214 197.277619 
L 115.484051 206.148019 
L 115.093381 214.329397 
L 115.031009 215.018419 
L 114.219295 223.888819 
L 113.501059 232.759219 
L 112.858767 241.629619 
L 112.525342 246.504246 
L 112.096349 250.500019 
L 111.234159 259.370419 
L 110.500655 268.240819 
L 109.957304 275.577158 
L 109.782625 277.111219 
" style="fill:none;stroke:#39558c;stroke-width:1.5;"/>
   </g>
   <g id="LineCollection_7">
    <path clip-path="url(#pdf27d28f65)" d="M 104.270268 10.999219 
L 104.821226 13.942206 
L 105.488215 19.869619 
L 107.098023 28.740019 
L 107.389265 30.175878 
L 108.466723 37.610419 
L 109.957304 45.165851 
L 110.10147 46.480819 
L 111.117458 55.351219 
L 112.525342 63.422598 
L 112.601771 64.221619 
L 113.06042 70.222321 
" style="fill:none;stroke:#33638d;stroke-width:1.5;"/>
    <path clip-path="url(#pdf27d28f65)" d="M 115.216044 93.248654 
L 115.534813 99.703219 
L 116.000092 108.573619 
L 116.335469 117.444019 
L 116.634421 126.314419 
L 116.98943 135.184819 
L 117.367026 144.055219 
L 117.66142 152.039934 
L 117.669448 152.925619 
L 117.712758 161.796019 
L 117.708124 170.666419 
L 117.66142 177.082923 
L 117.587351 179.536819 
L 117.166349 188.407219 
L 116.675657 197.277619 
L 116.162595 206.148019 
L 115.660916 215.018419 
L 115.20169 223.888819 
L 115.093381 226.051954 
L 114.462119 232.759219 
L 113.693052 241.629619 
L 113.008497 250.500019 
L 112.525342 257.638606 
L 112.344259 259.370419 
L 111.459974 268.240819 
L 110.689988 277.111219 
" style="fill:none;stroke:#33638d;stroke-width:1.5;"/>
   </g>
   <g id="LineCollection_8">
    <path clip-path="url(#pdf27d28f65)" d="M 104.877268 10.999219 
L 105.921715 19.869619 
L 107.389265 27.348409 
L 107.600543 28.740019 
L 109.029025 37.610419 
L 109.957304 42.315662 
L 110.413949 46.480819 
L 111.617811 55.351219 
L 112.525342 60.55408 
L 112.876151 64.221619 
L 113.642798 73.092019 
L 113.875445 75.407104 
" style="fill:none;stroke:#2d718e;stroke-width:1.5;"/>
    <path clip-path="url(#pdf27d28f65)" d="M 115.766739 98.869146 
L 115.814952 99.703219 
L 116.356025 108.573619 
L 116.739898 117.444019 
L 117.093712 126.314419 
L 117.531461 135.184819 
L 117.66142 137.902329 
L 117.736075 144.055219 
L 117.827768 152.925619 
L 117.89632 161.796019 
L 117.917615 170.666419 
L 117.871392 179.536819 
L 117.755327 188.407219 
L 117.66142 193.410903 
L 117.4301 197.277619 
L 116.841139 206.148019 
L 116.257371 215.018419 
L 115.712981 223.888819 
L 115.24005 232.759219 
L 115.093381 235.738719 
L 114.527337 241.629619 
L 113.727049 250.500019 
L 113.031695 259.370419 
L 112.525342 267.205821 
L 112.419294 268.240819 
L 111.521107 277.111219 
" style="fill:none;stroke:#2d718e;stroke-width:1.5;"/>
   </g>
   <g id="LineCollection_9">
    <path clip-path="url(#pdf27d28f65)" d="M 105.114662 10.999219 
L 106.355215 19.869619 
L 107.389265 25.139246 
L 107.935945 28.740019 
L 109.591327 37.610419 
L 109.957304 39.465473 
L 110.726428 46.480819 
L 112.118165 55.351219 
L 112.525342 57.685561 
L 113.150532 64.221619 
L 113.84101 71.38259 
" style="fill:none;stroke:#287d8e;stroke-width:1.5;"/>
    <path clip-path="url(#pdf27d28f65)" d="M 115.767762 94.76031 
L 116.095092 99.703219 
L 116.711957 108.573619 
L 117.144327 117.444019 
L 117.553002 126.314419 
L 117.66142 128.416111 
L 117.753824 135.184819 
L 117.873595 144.055219 
L 117.986088 152.925619 
L 118.079882 161.796019 
L 118.127106 170.666419 
L 118.100935 179.536819 
L 117.992009 188.407219 
L 117.819579 197.277619 
L 117.66142 204.094447 
L 117.519683 206.148019 
L 116.853827 215.018419 
L 116.224271 223.888819 
L 115.667457 232.759219 
L 115.205831 241.629619 
L 115.093381 243.961557 
L 114.445601 250.500019 
L 113.636745 259.370419 
L 112.964606 268.240819 
L 112.525342 275.428087 
L 112.352225 277.111219 
" style="fill:none;stroke:#287d8e;stroke-width:1.5;"/>
   </g>
   <g id="LineCollection_10">
    <path clip-path="url(#pdf27d28f65)" d="M 105.352056 10.999219 
L 106.788715 19.869619 
L 107.389265 22.930083 
L 108.271346 28.740019 
L 109.957304 37.034308 
L 110.027474 37.610419 
L 111.038908 46.480819 
L 112.525342 55.017048 
L 112.560243 55.351219 
L 113.424913 64.221619 
L 114.100525 70.570318 
" style="fill:none;stroke:#238a8d;stroke-width:1.5;"/>
    <path clip-path="url(#pdf27d28f65)" d="M 115.956103 94.087873 
L 116.375232 99.703219 
L 117.067889 108.573619 
L 117.548757 117.444019 
L 117.66142 119.814299 
L 117.745018 126.314419 
L 117.875369 135.184819 
L 118.011115 144.055219 
L 118.144408 152.925619 
L 118.263444 161.796019 
L 118.336596 170.666419 
L 118.330478 179.536819 
L 118.22869 188.407219 
L 118.047673 197.277619 
L 117.825864 206.148019 
L 117.66142 212.2763 
L 117.450282 215.018419 
L 116.735561 223.888819 
L 116.094864 232.759219 
L 115.555572 241.629619 
L 115.121187 250.500019 
L 115.093381 251.080156 
L 114.241795 259.370419 
L 113.458464 268.240819 
L 112.835935 277.111219 
" style="fill:none;stroke:#238a8d;stroke-width:1.5;"/>
   </g>
   <g id="LineCollection_11">
    <path clip-path="url(#pdf27d28f65)" d="M 105.58945 10.999219 
L 107.222215 19.869619 
L 107.389265 20.72092 
L 108.606748 28.740019 
L 109.957304 35.384255 
L 110.228452 37.610419 
L 111.351387 46.480819 
L 112.525342 53.222556 
L 112.747659 55.351219 
L 113.699293 64.221619 
L 114.408396 70.312922 
" style="fill:none;stroke:#1f968b;stroke-width:1.5;"/>
    <path clip-path="url(#pdf27d28f65)" d="M 116.180684 93.988075 
L 116.655371 99.703219 
L 117.423821 108.573619 
L 117.66142 112.836751 
L 117.735539 117.444019 
L 117.854447 126.314419 
L 117.996915 135.184819 
L 118.148635 144.055219 
L 118.302728 152.925619 
L 118.447006 161.796019 
L 118.546087 170.666419 
L 118.560021 179.536819 
L 118.465372 188.407219 
L 118.275768 197.277619 
L 118.033727 206.148019 
L 117.779319 215.018419 
L 117.66142 218.951857 
L 117.246852 223.888819 
L 116.522271 232.759219 
L 115.905313 241.629619 
L 115.403506 250.500019 
L 115.093381 256.970367 
L 114.846845 259.370419 
L 113.952322 268.240819 
L 113.228244 277.111219 
" style="fill:none;stroke:#1f968b;stroke-width:1.5;"/>
   </g>
   <g id="LineCollection_12">
    <path clip-path="url(#pdf27d28f65)" d="M 105.826845 10.999219 
L 107.389265 19.111969 
L 107.507933 19.869619 
L 108.94215 28.740019 
L 109.957304 33.734202 
L 110.429429 37.610419 
L 111.663866 46.480819 
L 112.525342 51.428063 
L 112.935075 55.351219 
L 113.973674 64.221619 
L 115.093381 73.082592 
L 115.093894 73.092019 
L 115.529836 81.962419 
L 116.124086 90.832819 
L 116.935511 99.703219 
L 117.66142 107.564946 
L 117.695515 108.573619 
L 117.838278 117.444019 
L 117.963876 126.314419 
L 118.118461 135.184819 
L 118.286156 144.055219 
L 118.461047 152.925619 
L 118.630568 161.796019 
L 118.755577 170.666419 
L 118.789564 179.536819 
L 118.702053 188.407219 
L 118.503863 197.277619 
L 118.24159 206.148019 
L 117.961822 215.018419 
L 117.691107 223.888819 
L 117.66142 224.793699 
L 116.949678 232.759219 
L 116.255055 241.629619 
L 115.685824 250.500019 
L 115.227965 259.370419 
L 115.093381 262.132332 
L 114.725699 265.602626 
" style="fill:none;stroke:#20a386;stroke-width:1.5;"/>
   </g>
   <g id="LineCollection_13">
    <path clip-path="url(#pdf27d28f65)" d="M 106.064239 10.999219 
L 107.389265 17.879318 
L 107.701001 19.869619 
L 109.277551 28.740019 
L 109.957304 32.084149 
L 110.630406 37.610419 
L 111.976346 46.480819 
L 112.525342 49.633571 
L 113.122491 55.351219 
L 114.248055 64.221619 
L 114.960784 69.861911 
" style="fill:none;stroke:#29af7f;stroke-width:1.5;"/>
    <path clip-path="url(#pdf27d28f65)" d="M 116.622945 93.769837 
L 117.21565 99.703219 
L 117.66142 104.530984 
L 117.798069 108.573619 
L 117.941017 117.444019 
L 118.073304 126.314419 
L 118.240007 135.184819 
L 118.423676 144.055219 
L 118.619367 152.925619 
L 118.81413 161.796019 
L 118.965068 170.666419 
L 119.019107 179.536819 
L 118.938735 188.407219 
L 118.731958 197.277619 
L 118.449454 206.148019 
L 118.144324 215.018419 
L 117.848039 223.888819 
L 117.66142 229.57706 
L 117.377085 232.759219 
L 116.604796 241.629619 
L 115.968143 250.500019 
L 115.455098 259.370419 
L 115.093381 266.793509 
L 114.940037 268.240819 
L 114.012861 277.111219 
" style="fill:none;stroke:#29af7f;stroke-width:1.5;"/>
   </g>
   <g id="LineCollection_14">
    <path clip-path="url(#pdf27d28f65)" d="M 106.301633 10.999219 
L 107.389265 16.646666 
L 107.894068 19.869619 
L 109.612953 28.740019 
L 109.957304 30.434096 
L 110.831384 37.610419 
L 112.288825 46.480819 
L 112.525342 47.839078 
L 113.309907 55.351219 
L 114.522436 64.221619 
L 115.093381 68.739884 
L 115.149495 69.770674 
" style="fill:none;stroke:#3dbc74;stroke-width:1.5;"/>
    <path clip-path="url(#pdf27d28f65)" d="M 116.840496 93.653111 
L 117.49579 99.703219 
L 117.66142 101.497021 
L 117.900623 108.573619 
L 118.043756 117.444019 
L 118.182733 126.314419 
L 118.361552 135.184819 
L 118.561196 144.055219 
L 118.777687 152.925619 
L 118.997692 161.796019 
L 119.174558 170.666419 
L 119.24865 179.536819 
L 119.175416 188.407219 
L 118.960052 197.277619 
L 118.657317 206.148019 
L 118.326827 215.018419 
L 118.00497 223.888819 
L 117.706111 232.759219 
L 117.66142 234.01959 
L 116.954537 241.629619 
L 116.250461 250.500019 
L 115.682231 259.370419 
L 115.219925 268.240819 
L 115.093381 270.743567 
L 114.405169 277.111219 
" style="fill:none;stroke:#3dbc74;stroke-width:1.5;"/>
   </g>
   <g id="LineCollection_15">
    <path clip-path="url(#pdf27d28f65)" d="M 106.539027 10.999219 
L 107.389265 15.414015 
L 108.087135 19.869619 
L 109.948355 28.740019 
L 109.957304 28.784043 
L 111.032361 37.610419 
L 112.525342 46.19974 
L 112.5548 46.480819 
L 113.497323 55.351219 
L 114.796816 64.221619 
L 115.093381 66.568531 
L 115.269936 69.811797 
" style="fill:none;stroke:#56c667;stroke-width:1.5;"/>
    <path clip-path="url(#pdf27d28f65)" d="M 117.04836 93.550343 
L 117.66142 98.961853 
L 117.701384 99.703219 
L 118.003177 108.573619 
L 118.146494 117.444019 
L 118.292162 126.314419 
L 118.483098 135.184819 
L 118.698716 144.055219 
L 118.936007 152.925619 
L 119.181254 161.796019 
L 119.384049 170.666419 
L 119.478193 179.536819 
L 119.412097 188.407219 
L 119.188147 197.277619 
L 118.86518 206.148019 
L 118.50933 215.018419 
L 118.161901 223.888819 
L 117.839619 232.759219 
L 117.66142 237.784769 
L 117.304278 241.629619 
L 116.53278 250.500019 
L 115.909364 259.370419 
L 115.403456 268.240819 
L 115.093381 274.373384 
L 114.797478 277.111219 
" style="fill:none;stroke:#56c667;stroke-width:1.5;"/>
   </g>
   <g id="LineCollection_16">
    <path clip-path="url(#pdf27d28f65)" d="M 108.476683 20.80412 
L 109.957304 27.846251 
L 110.084347 28.740019 
L 111.233338 37.610419 
L 112.525342 45.04349 
L 112.675979 46.480819 
L 113.684739 55.351219 
L 115.071197 64.221619 
L 115.093381 64.397177 
L 115.566706 73.092019 
L 116.141538 81.962419 
L 116.945968 90.832819 
L 117.66142 97.148155 
L 117.799152 99.703219 
L 118.105731 108.573619 
L 118.249233 117.444019 
L 118.401591 126.314419 
L 118.604644 135.184819 
L 118.836237 144.055219 
L 119.094327 152.925619 
L 119.364816 161.796019 
L 119.59354 170.666419 
L 119.707736 179.536819 
L 119.648779 188.407219 
L 119.416242 197.277619 
L 119.073043 206.148019 
L 118.691833 215.018419 
L 118.318832 223.888819 
L 117.973127 232.759219 
L 117.66142 241.549949 
L 117.65402 241.629619 
L 116.815099 250.500019 
L 116.136497 259.370419 
L 115.586987 268.240819 
L 115.130151 277.111219 
" style="fill:none;stroke:#75d054;stroke-width:1.5;"/>
   </g>
   <g id="LineCollection_17">
    <path clip-path="url(#pdf27d28f65)" d="M 107.013815 10.999219 
L 107.389265 12.948711 
L 108.47327 19.869619 
L 109.957304 26.927984 
L 110.214873 28.740019 
L 111.434316 37.610419 
L 112.525342 43.88724 
L 112.797157 46.480819 
L 113.872156 55.351219 
L 115.093381 63.12506 
L 115.178603 64.221619 
L 115.503344 69.911028 
" style="fill:none;stroke:#95d840;stroke-width:1.5;"/>
    <path clip-path="url(#pdf27d28f65)" d="M 117.440372 93.383254 
L 117.66142 95.334458 
L 117.896921 99.703219 
L 118.208285 108.573619 
L 118.351972 117.444019 
L 118.51102 126.314419 
L 118.72619 135.184819 
L 118.973757 144.055219 
L 119.252647 152.925619 
L 119.548378 161.796019 
L 119.80303 170.666419 
L 119.937279 179.536819 
L 119.88546 188.407219 
L 119.644337 197.277619 
L 119.280906 206.148019 
L 118.874335 215.018419 
L 118.475764 223.888819 
L 118.106635 232.759219 
L 117.772132 241.629619 
L 117.66142 244.546612 
L 117.097417 250.500019 
L 116.363629 259.370419 
L 115.770518 268.240819 
L 115.279783 277.111219 
" style="fill:none;stroke:#95d840;stroke-width:1.5;"/>
   </g>
   <g id="LineCollection_18">
    <path clip-path="url(#pdf27d28f65)" d="M 107.25121 10.999219 
L 107.389265 11.71606 
L 108.666337 19.869619 
L 109.957304 26.009717 
L 110.3454 28.740019 
L 111.635293 37.610419 
L 112.525342 42.730991 
L 112.918335 46.480819 
L 114.059572 55.351219 
L 115.093381 61.932043 
L 115.271322 64.221619 
L 115.615943 69.969991 
" style="fill:none;stroke:#bade28;stroke-width:1.5;"/>
    <path clip-path="url(#pdf27d28f65)" d="M 117.635605 93.292889 
L 117.66142 93.52076 
L 117.99469 99.703219 
L 118.310839 108.573619 
L 118.454711 117.444019 
L 118.620449 126.314419 
L 118.847735 135.184819 
L 119.111277 144.055219 
L 119.410967 152.925619 
L 119.73194 161.796019 
L 120.012521 170.666419 
L 120.166822 179.536819 
L 120.122142 188.407219 
L 119.872431 197.277619 
L 119.488769 206.148019 
L 119.056838 215.018419 
L 118.632695 223.888819 
L 118.240143 232.759219 
L 117.885237 241.629619 
L 117.66142 247.526663 
L 117.379736 250.500019 
L 116.590762 259.370419 
L 115.954049 268.240819 
L 115.429415 277.111219 
" style="fill:none;stroke:#bade28;stroke-width:1.5;"/>
   </g>
   <g id="LineCollection_19">
    <path clip-path="url(#pdf27d28f65)" d="M 107.433706 10.999219 
L 108.859404 19.869619 
L 109.957304 25.09145 
L 110.475926 28.740019 
L 111.83627 37.610419 
L 112.525342 41.574741 
L 113.039514 46.480819 
L 114.246988 55.351219 
L 115.093381 60.739026 
L 115.36404 64.221619 
L 115.921315 73.092019 
L 116.407581 79.444566 
" style="fill:none;stroke:#dde318;stroke-width:1.5;"/>
    <path clip-path="url(#pdf27d28f65)" d="M 118.212726 103.027325 
L 118.413392 108.573619 
L 118.55745 117.444019 
L 118.729878 126.314419 
L 118.969281 135.184819 
L 119.248797 144.055219 
L 119.569287 152.925619 
L 119.915502 161.796019 
L 120.222011 170.666419 
L 120.229459 171.079893 
L 120.269612 179.536819 
L 120.261974 188.407219 
L 120.229459 192.767884 
L 120.100526 197.277619 
L 119.696633 206.148019 
L 119.239341 215.018419 
L 118.789626 223.888819 
L 118.373651 232.759219 
L 117.998342 241.629619 
L 117.661635 250.500019 
L 117.66142 250.505381 
L 116.817895 259.370419 
L 116.137579 268.240819 
L 115.579047 277.111219 
" style="fill:none;stroke:#dde318;stroke-width:1.5;"/>
   </g>
   <g id="LineCollection_20">
    <path clip-path="url(#pdf27d28f65)" d="M 107.539911 10.999219 
L 109.052472 19.869619 
L 109.957304 24.173183 
L 110.606452 28.740019 
L 112.037248 37.610419 
L 112.525342 40.418492 
L 113.160692 46.480819 
L 114.434404 55.351219 
L 115.093381 59.546009 
L 115.456758 64.221619 
L 116.039518 73.092019 
L 116.495478 78.758858 
" style="fill:none;stroke:#fde725;stroke-width:1.5;"/>
    <path clip-path="url(#pdf27d28f65)" d="M 118.288305 102.374212 
L 118.515946 108.573619 
L 118.660189 117.444019 
L 118.839307 126.314419 
L 119.090827 135.184819 
L 119.386318 144.055219 
L 119.727607 152.925619 
L 120.099064 161.796019 
L 120.229459 165.558348 
L 120.277958 170.666419 
L 120.324834 179.536819 
L 120.321462 188.407219 
L 120.256358 197.277619 
L 120.229459 199.207618 
L 119.904496 206.148019 
L 119.421843 215.018419 
L 118.946558 223.888819 
L 118.507158 232.759219 
L 118.111447 241.629619 
L 117.757189 250.500019 
L 117.66142 252.892435 
L 117.045028 259.370419 
L 116.32111 268.240819 
L 115.728679 277.111219 
" style="fill:none;stroke:#fde725;stroke-width:1.5;"/>
   </g>
   <g id="LineCollection_21">
    <path clip-path="url(#pdf27d28f65)" d="M 107.646115 10.999219 
L 109.245539 19.869619 
L 109.957304 23.254916 
L 110.736978 28.740019 
L 112.238225 37.610419 
L 112.525342 39.262242 
L 113.28187 46.480819 
L 114.62182 55.351219 
L 115.093381 58.352992 
L 115.549477 64.221619 
L 116.157721 73.092019 
L 116.906165 81.962419 
L 117.358182 86.023184 
" style="fill:none;stroke:#440154;stroke-width:1.5;"/>
    <path clip-path="url(#pdf27d28f65)" d="M 118.706146 113.956579 
L 118.762928 117.444019 
L 118.948735 126.314419 
L 119.212373 135.184819 
L 119.523838 144.055219 
L 119.885927 152.925619 
L 120.229459 160.751413 
L 120.242652 161.796019 
L 120.328245 170.666419 
L 120.380056 179.536819 
L 120.380951 188.407219 
L 120.318233 197.277619 
L 120.229459 203.647057 
L 120.112359 206.148019 
L 119.604346 215.018419 
L 119.103489 223.888819 
L 118.640666 232.759219 
L 118.224551 241.629619 
L 117.852742 250.500019 
L 117.66142 255.27949 
L 117.27216 259.370419 
L 116.504641 268.240819 
L 115.878311 277.111219 
" style="fill:none;stroke:#440154;stroke-width:1.5;"/>
   </g>
   <g id="LineCollection_22">
    <path clip-path="url(#pdf27d28f65)" d="M 114.899862 10.999219 
L 115.093381 11.996293 
L 116.058979 19.869619 
L 117.524931 28.740019 
L 117.66142 29.560729 
L 118.454286 37.610419 
L 119.588577 46.480819 
L 120.229459 50.831975 
L 120.605431 55.351219 
L 121.30672 64.221619 
L 122.053024 73.092019 
L 122.797498 80.024444 
L 122.908681 81.962419 
L 123.463631 90.832819 
L 123.780766 99.703219 
L 123.740749 108.573619 
L 123.740476 110.124276 
" style="fill:none;stroke:#440154;stroke-width:1.5;"/>
    <path clip-path="url(#pdf27d28f65)" d="M 124.126591 142.455084 
L 124.159514 144.055219 
L 124.390514 152.925619 
L 124.632882 161.796019 
L 124.883511 170.666419 
L 125.129434 179.536819 
L 125.355902 188.407219 
L 125.365537 188.946594 
L 125.420626 197.277619 
L 125.444605 206.148019 
L 125.422795 215.018419 
L 125.365537 221.714533 
L 125.315333 223.888819 
L 124.994782 232.759219 
L 124.608824 241.629619 
L 124.195209 250.500019 
L 123.783397 259.370419 
L 123.390585 268.240819 
L 123.025411 277.111219 
" style="fill:none;stroke:#440154;stroke-width:1.5;"/>
   </g>
   <g id="LineCollection_23">
    <path clip-path="url(#pdf27d28f65)" d="M 121.856343 10.999219 
L 122.797498 16.864446 
L 123.062799 19.869619 
L 123.849999 28.740019 
L 124.994788 37.610419 
L 125.365537 40.035587 
L 126.007257 46.480819 
L 127.130026 55.351219 
L 127.933576 62.250666 
L 128.058562 64.221619 
L 128.600919 73.092019 
L 129.358076 81.962419 
L 130.050759 90.832819 
L 129.908671 99.703219 
L 129.76323 108.573619 
L 129.709168 117.206545 
" style="fill:none;stroke:#440154;stroke-width:1.5;"/>
    <path clip-path="url(#pdf27d28f65)" d="M 130.300558 153.082322 
L 130.501614 161.736939 
L 130.502116 161.796019 
L 130.574194 170.666419 
L 130.650417 179.536819 
L 130.73226 188.407219 
L 130.813562 197.277619 
L 130.888776 206.148019 
L 130.955395 215.018419 
L 131.008031 223.888819 
L 131.036209 232.759219 
L 131.030784 241.629619 
L 130.98169 250.500019 
L 130.886827 259.370419 
L 130.748794 268.240819 
L 130.573871 277.111219 
" style="fill:none;stroke:#440154;stroke-width:1.5;"/>
   </g>
   <g id="LineCollection_24">
    <path clip-path="url(#pdf27d28f65)" d="M 128.579337 10.999219 
L 129.572487 19.869619 
L 130.501614 25.775294 
L 130.810485 28.740019 
L 131.917177 37.610419 
L 133.069653 44.72298 
" style="fill:none;stroke:#440154;stroke-width:1.5;"/>
   </g>
   <g id="LineCollection_25"/>
   <g id="LineCollection_26"/>
   <g id="LineCollection_27"/>
   <g id="LineCollection_28"/>
   <g id="line2d_17">
    <path clip-path="url(#pdf27d28f65)" d="M 396.142773 34.454151 
L 388.614089 41.56742 
L 380.446294 48.860936 
L 372.387532 56.486722 
L 364.456612 64.69961 
L 356.65271 73.330596 
L 348.976787 82.051201 
L 341.421359 91.601877 
L 333.989579 100.832092 
L 326.67898 110.016316 
L 319.478647 119.958561 
L 312.390443 129.54817 
L 305.424967 138.79876 
L 298.577124 147.697965 
L 291.826775 156.87544 
L 285.194882 165.697374 
L 278.676998 173.884853 
L 272.266501 181.717624 
L 265.960874 189.292955 
L 259.776505 196.138029 
L 253.686102 202.794075 
L 247.703282 208.613314 
L 241.826418 214.030805 
L 236.048301 218.872333 
L 230.364503 223.2019 
L 224.777963 227.136276 
L 219.304168 229.873894 
L 213.907303 232.115649 
L 208.593942 233.900529 
L 203.395315 235.233078 
L 198.268965 235.694775 
L 193.250746 235.259567 
L 188.318147 234.844955 
L 183.471006 233.688278 
L 178.723753 231.117555 
L 174.044437 227.935855 
L 169.466337 224.381893 
L 164.960391 219.90606 
L 160.53907 215.035497 
L 156.19898 209.310071 
L 151.920641 202.71675 
L 147.741737 195.957795 
L 143.633128 188.768184 
L 139.592004 181.100103 
L 135.628082 173.276425 
L 131.725769 164.261686 
L 127.898379 155.10271 
L 124.139495 145.802606 
L 120.405629 134.4581 
L 116.795407 125.433616 
L 116.450093 125.213558 
L 116.10048 124.877023 
L 115.748048 124.41691 
L 115.398624 123.922435 
L 115.049443 123.388392 
L 114.700168 122.823465 
L 114.351899 122.245527 
L 114.003734 121.69848 
L 113.658012 121.105995 
L 113.312962 120.527828 
L 112.968448 119.953123 
L 112.625612 119.333118 
L 112.281586 118.75483 
L 111.937873 118.176702 
L 111.596119 117.577601 
L 111.254557 116.982883 
L 110.914416 116.448352 
L 110.574876 115.834038 
L 110.237177 115.25613 
L 109.898981 114.627632 
L 109.56306 114.043542 
L 109.225978 113.379393 
L 108.889507 112.839613 
L 108.55452 112.149907 
L 108.220473 111.581324 
L 108.187611 111.546903 
L 108.154282 111.510588 
L 108.12074 111.472799 
L 108.087262 111.433998 
L 108.053953 111.401732 
L 108.020212 111.366426 
L 107.986953 111.332872 
L 107.953702 111.301667 
L 107.920292 111.27644 
L 107.88679 111.248872 
L 107.8535 111.213504 
L 107.820316 111.174759 
L 107.787066 111.140505 
L 107.753602 111.105699 
L 107.720394 111.079296 
L 107.687213 111.043351 
L 107.654235 111.009231 
L 107.620976 110.983761 
L 107.587776 110.960481 
L 107.55444 110.934216 
L 107.521294 110.896688 
L 107.488224 110.865186 
L 107.455336 110.837929 
L 107.422268 110.817116 
" style="fill:none;stroke:#1f77b4;stroke-linecap:square;stroke-width:1.5;"/>
    <defs>
     <path d="M 0 1.5 
C 0.397805 1.5 0.77937 1.341951 1.06066 1.06066 
C 1.341951 0.77937 1.5 0.397805 1.5 0 
C 1.5 -0.397805 1.341951 -0.77937 1.06066 -1.06066 
C 0.77937 -1.341951 0.397805 -1.5 0 -1.5 
C -0.397805 -1.5 -0.77937 -1.341951 -1.06066 -1.06066 
C -1.341951 -0.77937 -1.5 -0.397805 -1.5 0 
C -1.5 0.397805 -1.341951 0.77937 -1.06066 1.06066 
C -0.77937 1.341951 -0.397805 1.5 0 1.5 
z
" id="mf155ad2948" style="stroke:#1f77b4;"/>
    </defs>
    <g clip-path="url(#pdf27d28f65)">
     <use style="fill:#1f77b4;stroke:#1f77b4;" x="396.142773" xlink:href="#mf155ad2948" y="34.454151"/>
     <use style="fill:#1f77b4;stroke:#1f77b4;" x="388.614089" xlink:href="#mf155ad2948" y="41.56742"/>
     <use style="fill:#1f77b4;stroke:#1f77b4;" x="380.446294" xlink:href="#mf155ad2948" y="48.860936"/>
     <use style="fill:#1f77b4;stroke:#1f77b4;" x="372.387532" xlink:href="#mf155ad2948" y="56.486722"/>
     <use style="fill:#1f77b4;stroke:#1f77b4;" x="364.456612" xlink:href="#mf155ad2948" y="64.69961"/>
     <use style="fill:#1f77b4;stroke:#1f77b4;" x="356.65271" xlink:href="#mf155ad2948" y="73.330596"/>
     <use style="fill:#1f77b4;stroke:#1f77b4;" x="348.976787" xlink:href="#mf155ad2948" y="82.051201"/>
     <use style="fill:#1f77b4;stroke:#1f77b4;" x="341.421359" xlink:href="#mf155ad2948" y="91.601877"/>
     <use style="fill:#1f77b4;stroke:#1f77b4;" x="333.989579" xlink:href="#mf155ad2948" y="100.832092"/>
     <use style="fill:#1f77b4;stroke:#1f77b4;" x="326.67898" xlink:href="#mf155ad2948" y="110.016316"/>
     <use style="fill:#1f77b4;stroke:#1f77b4;" x="319.478647" xlink:href="#mf155ad2948" y="119.958561"/>
     <use style="fill:#1f77b4;stroke:#1f77b4;" x="312.390443" xlink:href="#mf155ad2948" y="129.54817"/>
     <use style="fill:#1f77b4;stroke:#1f77b4;" x="305.424967" xlink:href="#mf155ad2948" y="138.79876"/>
     <use style="fill:#1f77b4;stroke:#1f77b4;" x="298.577124" xlink:href="#mf155ad2948" y="147.697965"/>
     <use style="fill:#1f77b4;stroke:#1f77b4;" x="291.826775" xlink:href="#mf155ad2948" y="156.87544"/>
     <use style="fill:#1f77b4;stroke:#1f77b4;" x="285.194882" xlink:href="#mf155ad2948" y="165.697374"/>
     <use style="fill:#1f77b4;stroke:#1f77b4;" x="278.676998" xlink:href="#mf155ad2948" y="173.884853"/>
     <use style="fill:#1f77b4;stroke:#1f77b4;" x="272.266501" xlink:href="#mf155ad2948" y="181.717624"/>
     <use style="fill:#1f77b4;stroke:#1f77b4;" x="265.960874" xlink:href="#mf155ad2948" y="189.292955"/>
     <use style="fill:#1f77b4;stroke:#1f77b4;" x="259.776505" xlink:href="#mf155ad2948" y="196.138029"/>
     <use style="fill:#1f77b4;stroke:#1f77b4;" x="253.686102" xlink:href="#mf155ad2948" y="202.794075"/>
     <use style="fill:#1f77b4;stroke:#1f77b4;" x="247.703282" xlink:href="#mf155ad2948" y="208.613314"/>
     <use style="fill:#1f77b4;stroke:#1f77b4;" x="241.826418" xlink:href="#mf155ad2948" y="214.030805"/>
     <use style="fill:#1f77b4;stroke:#1f77b4;" x="236.048301" xlink:href="#mf155ad2948" y="218.872333"/>
     <use style="fill:#1f77b4;stroke:#1f77b4;" x="230.364503" xlink:href="#mf155ad2948" y="223.2019"/>
     <use style="fill:#1f77b4;stroke:#1f77b4;" x="224.777963" xlink:href="#mf155ad2948" y="227.136276"/>
     <use style="fill:#1f77b4;stroke:#1f77b4;" x="219.304168" xlink:href="#mf155ad2948" y="229.873894"/>
     <use style="fill:#1f77b4;stroke:#1f77b4;" x="213.907303" xlink:href="#mf155ad2948" y="232.115649"/>
     <use style="fill:#1f77b4;stroke:#1f77b4;" x="208.593942" xlink:href="#mf155ad2948" y="233.900529"/>
     <use style="fill:#1f77b4;stroke:#1f77b4;" x="203.395315" xlink:href="#mf155ad2948" y="235.233078"/>
     <use style="fill:#1f77b4;stroke:#1f77b4;" x="198.268965" xlink:href="#mf155ad2948" y="235.694775"/>
     <use style="fill:#1f77b4;stroke:#1f77b4;" x="193.250746" xlink:href="#mf155ad2948" y="235.259567"/>
     <use style="fill:#1f77b4;stroke:#1f77b4;" x="188.318147" xlink:href="#mf155ad2948" y="234.844955"/>
     <use style="fill:#1f77b4;stroke:#1f77b4;" x="183.471006" xlink:href="#mf155ad2948" y="233.688278"/>
     <use style="fill:#1f77b4;stroke:#1f77b4;" x="178.723753" xlink:href="#mf155ad2948" y="231.117555"/>
     <use style="fill:#1f77b4;stroke:#1f77b4;" x="174.044437" xlink:href="#mf155ad2948" y="227.935855"/>
     <use style="fill:#1f77b4;stroke:#1f77b4;" x="169.466337" xlink:href="#mf155ad2948" y="224.381893"/>
     <use style="fill:#1f77b4;stroke:#1f77b4;" x="164.960391" xlink:href="#mf155ad2948" y="219.90606"/>
     <use style="fill:#1f77b4;stroke:#1f77b4;" x="160.53907" xlink:href="#mf155ad2948" y="215.035497"/>
     <use style="fill:#1f77b4;stroke:#1f77b4;" x="156.19898" xlink:href="#mf155ad2948" y="209.310071"/>
     <use style="fill:#1f77b4;stroke:#1f77b4;" x="151.920641" xlink:href="#mf155ad2948" y="202.71675"/>
     <use style="fill:#1f77b4;stroke:#1f77b4;" x="147.741737" xlink:href="#mf155ad2948" y="195.957795"/>
     <use style="fill:#1f77b4;stroke:#1f77b4;" x="143.633128" xlink:href="#mf155ad2948" y="188.768184"/>
     <use style="fill:#1f77b4;stroke:#1f77b4;" x="139.592004" xlink:href="#mf155ad2948" y="181.100103"/>
     <use style="fill:#1f77b4;stroke:#1f77b4;" x="135.628082" xlink:href="#mf155ad2948" y="173.276425"/>
     <use style="fill:#1f77b4;stroke:#1f77b4;" x="131.725769" xlink:href="#mf155ad2948" y="164.261686"/>
     <use style="fill:#1f77b4;stroke:#1f77b4;" x="127.898379" xlink:href="#mf155ad2948" y="155.10271"/>
     <use style="fill:#1f77b4;stroke:#1f77b4;" x="124.139495" xlink:href="#mf155ad2948" y="145.802606"/>
     <use style="fill:#1f77b4;stroke:#1f77b4;" x="120.405629" xlink:href="#mf155ad2948" y="134.4581"/>
     <use style="fill:#1f77b4;stroke:#1f77b4;" x="116.795407" xlink:href="#mf155ad2948" y="125.433616"/>
     <use style="fill:#1f77b4;stroke:#1f77b4;" x="116.450093" xlink:href="#mf155ad2948" y="125.213558"/>
     <use style="fill:#1f77b4;stroke:#1f77b4;" x="116.10048" xlink:href="#mf155ad2948" y="124.877023"/>
     <use style="fill:#1f77b4;stroke:#1f77b4;" x="115.748048" xlink:href="#mf155ad2948" y="124.41691"/>
     <use style="fill:#1f77b4;stroke:#1f77b4;" x="115.398624" xlink:href="#mf155ad2948" y="123.922435"/>
     <use style="fill:#1f77b4;stroke:#1f77b4;" x="115.049443" xlink:href="#mf155ad2948" y="123.388392"/>
     <use style="fill:#1f77b4;stroke:#1f77b4;" x="114.700168" xlink:href="#mf155ad2948" y="122.823465"/>
     <use style="fill:#1f77b4;stroke:#1f77b4;" x="114.351899" xlink:href="#mf155ad2948" y="122.245527"/>
     <use style="fill:#1f77b4;stroke:#1f77b4;" x="114.003734" xlink:href="#mf155ad2948" y="121.69848"/>
     <use style="fill:#1f77b4;stroke:#1f77b4;" x="113.658012" xlink:href="#mf155ad2948" y="121.105995"/>
     <use style="fill:#1f77b4;stroke:#1f77b4;" x="113.312962" xlink:href="#mf155ad2948" y="120.527828"/>
     <use style="fill:#1f77b4;stroke:#1f77b4;" x="112.968448" xlink:href="#mf155ad2948" y="119.953123"/>
     <use style="fill:#1f77b4;stroke:#1f77b4;" x="112.625612" xlink:href="#mf155ad2948" y="119.333118"/>
     <use style="fill:#1f77b4;stroke:#1f77b4;" x="112.281586" xlink:href="#mf155ad2948" y="118.75483"/>
     <use style="fill:#1f77b4;stroke:#1f77b4;" x="111.937873" xlink:href="#mf155ad2948" y="118.176702"/>
     <use style="fill:#1f77b4;stroke:#1f77b4;" x="111.596119" xlink:href="#mf155ad2948" y="117.577601"/>
     <use style="fill:#1f77b4;stroke:#1f77b4;" x="111.254557" xlink:href="#mf155ad2948" y="116.982883"/>
     <use style="fill:#1f77b4;stroke:#1f77b4;" x="110.914416" xlink:href="#mf155ad2948" y="116.448352"/>
     <use style="fill:#1f77b4;stroke:#1f77b4;" x="110.574876" xlink:href="#mf155ad2948" y="115.834038"/>
     <use style="fill:#1f77b4;stroke:#1f77b4;" x="110.237177" xlink:href="#mf155ad2948" y="115.25613"/>
     <use style="fill:#1f77b4;stroke:#1f77b4;" x="109.898981" xlink:href="#mf155ad2948" y="114.627632"/>
     <use style="fill:#1f77b4;stroke:#1f77b4;" x="109.56306" xlink:href="#mf155ad2948" y="114.043542"/>
     <use style="fill:#1f77b4;stroke:#1f77b4;" x="109.225978" xlink:href="#mf155ad2948" y="113.379393"/>
     <use style="fill:#1f77b4;stroke:#1f77b4;" x="108.889507" xlink:href="#mf155ad2948" y="112.839613"/>
     <use style="fill:#1f77b4;stroke:#1f77b4;" x="108.55452" xlink:href="#mf155ad2948" y="112.149907"/>
     <use style="fill:#1f77b4;stroke:#1f77b4;" x="108.220473" xlink:href="#mf155ad2948" y="111.581324"/>
     <use style="fill:#1f77b4;stroke:#1f77b4;" x="108.187611" xlink:href="#mf155ad2948" y="111.546903"/>
     <use style="fill:#1f77b4;stroke:#1f77b4;" x="108.154282" xlink:href="#mf155ad2948" y="111.510588"/>
     <use style="fill:#1f77b4;stroke:#1f77b4;" x="108.12074" xlink:href="#mf155ad2948" y="111.472799"/>
     <use style="fill:#1f77b4;stroke:#1f77b4;" x="108.087262" xlink:href="#mf155ad2948" y="111.433998"/>
     <use style="fill:#1f77b4;stroke:#1f77b4;" x="108.053953" xlink:href="#mf155ad2948" y="111.401732"/>
     <use style="fill:#1f77b4;stroke:#1f77b4;" x="108.020212" xlink:href="#mf155ad2948" y="111.366426"/>
     <use style="fill:#1f77b4;stroke:#1f77b4;" x="107.986953" xlink:href="#mf155ad2948" y="111.332872"/>
     <use style="fill:#1f77b4;stroke:#1f77b4;" x="107.953702" xlink:href="#mf155ad2948" y="111.301667"/>
     <use style="fill:#1f77b4;stroke:#1f77b4;" x="107.920292" xlink:href="#mf155ad2948" y="111.27644"/>
     <use style="fill:#1f77b4;stroke:#1f77b4;" x="107.88679" xlink:href="#mf155ad2948" y="111.248872"/>
     <use style="fill:#1f77b4;stroke:#1f77b4;" x="107.8535" xlink:href="#mf155ad2948" y="111.213504"/>
     <use style="fill:#1f77b4;stroke:#1f77b4;" x="107.820316" xlink:href="#mf155ad2948" y="111.174759"/>
     <use style="fill:#1f77b4;stroke:#1f77b4;" x="107.787066" xlink:href="#mf155ad2948" y="111.140505"/>
     <use style="fill:#1f77b4;stroke:#1f77b4;" x="107.753602" xlink:href="#mf155ad2948" y="111.105699"/>
     <use style="fill:#1f77b4;stroke:#1f77b4;" x="107.720394" xlink:href="#mf155ad2948" y="111.079296"/>
     <use style="fill:#1f77b4;stroke:#1f77b4;" x="107.687213" xlink:href="#mf155ad2948" y="111.043351"/>
     <use style="fill:#1f77b4;stroke:#1f77b4;" x="107.654235" xlink:href="#mf155ad2948" y="111.009231"/>
     <use style="fill:#1f77b4;stroke:#1f77b4;" x="107.620976" xlink:href="#mf155ad2948" y="110.983761"/>
     <use style="fill:#1f77b4;stroke:#1f77b4;" x="107.587776" xlink:href="#mf155ad2948" y="110.960481"/>
     <use style="fill:#1f77b4;stroke:#1f77b4;" x="107.55444" xlink:href="#mf155ad2948" y="110.934216"/>
     <use style="fill:#1f77b4;stroke:#1f77b4;" x="107.521294" xlink:href="#mf155ad2948" y="110.896688"/>
     <use style="fill:#1f77b4;stroke:#1f77b4;" x="107.488224" xlink:href="#mf155ad2948" y="110.865186"/>
     <use style="fill:#1f77b4;stroke:#1f77b4;" x="107.455336" xlink:href="#mf155ad2948" y="110.837929"/>
     <use style="fill:#1f77b4;stroke:#1f77b4;" x="107.422268" xlink:href="#mf155ad2948" y="110.817116"/>
    </g>
   </g>
   <g id="patch_3">
    <path d="M 56.028488 277.111219 
L 56.028488 10.999219 
" style="fill:none;stroke:#000000;stroke-linecap:square;stroke-linejoin:miter;stroke-width:0.8;"/>
   </g>
   <g id="patch_4">
    <path d="M 413.148488 277.111219 
L 413.148488 10.999219 
" style="fill:none;stroke:#000000;stroke-linecap:square;stroke-linejoin:miter;stroke-width:0.8;"/>
   </g>
   <g id="patch_5">
    <path d="M 56.028488 277.111219 
L 413.148488 277.111219 
" style="fill:none;stroke:#000000;stroke-linecap:square;stroke-linejoin:miter;stroke-width:0.8;"/>
   </g>
   <g id="patch_6">
    <path d="M 56.028488 10.999219 
L 413.148488 10.999219 
" style="fill:none;stroke:#000000;stroke-linecap:square;stroke-linejoin:miter;stroke-width:0.8;"/>
   </g>
   <g id="text_19">
    <g clip-path="url(#pdf27d28f65)">
     <!-- 1.000 -->
     <g style="fill:#482576;" transform="translate(100.19568 126.636866)rotate(-271.322035)scale(0.06 -0.06)">
      <use xlink:href="#DejaVuSans-49"/>
      <use x="63.623047" xlink:href="#DejaVuSans-46"/>
      <use x="95.410156" xlink:href="#DejaVuSans-48"/>
      <use x="159.033203" xlink:href="#DejaVuSans-48"/>
      <use x="222.65625" xlink:href="#DejaVuSans-48"/>
     </g>
    </g>
   </g>
   <g id="text_20">
    <g clip-path="url(#pdf27d28f65)">
     <!-- 1.500 -->
     <g style="fill:#453781;" transform="translate(98.69102 188.162958)rotate(-88.607333)scale(0.06 -0.06)">
      <defs>
       <path d="M 10.796875 72.90625 
L 49.515625 72.90625 
L 49.515625 64.59375 
L 19.828125 64.59375 
L 19.828125 46.734375 
Q 21.96875 47.46875 24.109375 47.828125 
Q 26.265625 48.1875 28.421875 48.1875 
Q 40.625 48.1875 47.75 41.5 
Q 54.890625 34.8125 54.890625 23.390625 
Q 54.890625 11.625 47.5625 5.09375 
Q 40.234375 -1.421875 26.90625 -1.421875 
Q 22.3125 -1.421875 17.546875 -0.640625 
Q 12.796875 0.140625 7.71875 1.703125 
L 7.71875 11.625 
Q 12.109375 9.234375 16.796875 8.0625 
Q 21.484375 6.890625 26.703125 6.890625 
Q 35.15625 6.890625 40.078125 11.328125 
Q 45.015625 15.765625 45.015625 23.390625 
Q 45.015625 31 40.078125 35.4375 
Q 35.15625 39.890625 26.703125 39.890625 
Q 22.75 39.890625 18.8125 39.015625 
Q 14.890625 38.140625 10.796875 36.28125 
z
" id="DejaVuSans-53"/>
      </defs>
      <use xlink:href="#DejaVuSans-49"/>
      <use x="63.623047" xlink:href="#DejaVuSans-46"/>
      <use x="95.410156" xlink:href="#DejaVuSans-53"/>
      <use x="159.033203" xlink:href="#DejaVuSans-48"/>
      <use x="222.65625" xlink:href="#DejaVuSans-48"/>
     </g>
    </g>
   </g>
   <g id="text_21">
    <g clip-path="url(#pdf27d28f65)">
     <!-- 1.500 -->
     <g style="fill:#453781;" transform="translate(107.458695 73.834844)rotate(-294.488151)scale(0.06 -0.06)">
      <use xlink:href="#DejaVuSans-49"/>
      <use x="63.623047" xlink:href="#DejaVuSans-46"/>
      <use x="95.410156" xlink:href="#DejaVuSans-53"/>
      <use x="159.033203" xlink:href="#DejaVuSans-48"/>
      <use x="222.65625" xlink:href="#DejaVuSans-48"/>
     </g>
    </g>
   </g>
   <g id="text_22">
    <g clip-path="url(#pdf27d28f65)">
     <!-- 2.000 -->
     <g style="fill:#404688;" transform="translate(93.675733 188.166937)rotate(-88.448406)scale(0.06 -0.06)">
      <use xlink:href="#DejaVuSans-50"/>
      <use x="63.623047" xlink:href="#DejaVuSans-46"/>
      <use x="95.410156" xlink:href="#DejaVuSans-48"/>
      <use x="159.033203" xlink:href="#DejaVuSans-48"/>
      <use x="222.65625" xlink:href="#DejaVuSans-48"/>
     </g>
    </g>
   </g>
   <g id="text_23">
    <g clip-path="url(#pdf27d28f65)">
     <!-- 2.000 -->
     <g style="fill:#404688;" transform="translate(106.9266 276.694478)rotate(-64.2191)scale(0.06 -0.06)">
      <use xlink:href="#DejaVuSans-50"/>
      <use x="63.623047" xlink:href="#DejaVuSans-46"/>
      <use x="95.410156" xlink:href="#DejaVuSans-48"/>
      <use x="159.033203" xlink:href="#DejaVuSans-48"/>
      <use x="222.65625" xlink:href="#DejaVuSans-48"/>
     </g>
    </g>
   </g>
   <g id="text_24">
    <g clip-path="url(#pdf27d28f65)">
     <!-- 2.500 -->
     <g style="fill:#39558c;" transform="translate(81.275114 188.166575)rotate(-88.462955)scale(0.06 -0.06)">
      <use xlink:href="#DejaVuSans-50"/>
      <use x="63.623047" xlink:href="#DejaVuSans-46"/>
      <use x="95.410156" xlink:href="#DejaVuSans-53"/>
      <use x="159.033203" xlink:href="#DejaVuSans-48"/>
      <use x="222.65625" xlink:href="#DejaVuSans-48"/>
     </g>
    </g>
   </g>
   <g id="text_25">
    <g clip-path="url(#pdf27d28f65)">
     <!-- 2.500 -->
     <g style="fill:#39558c;" transform="translate(108.892136 74.564487)rotate(-291.329877)scale(0.06 -0.06)">
      <use xlink:href="#DejaVuSans-50"/>
      <use x="63.623047" xlink:href="#DejaVuSans-46"/>
      <use x="95.410156" xlink:href="#DejaVuSans-53"/>
      <use x="159.033203" xlink:href="#DejaVuSans-48"/>
      <use x="222.65625" xlink:href="#DejaVuSans-48"/>
     </g>
    </g>
   </g>
   <g id="text_26">
    <g clip-path="url(#pdf27d28f65)">
     <!-- 3.000 -->
     <g style="fill:#33638d;" transform="translate(108.872969 74.909789)rotate(-295.349672)scale(0.06 -0.06)">
      <defs>
       <path d="M 40.578125 39.3125 
Q 47.65625 37.796875 51.625 33 
Q 55.609375 28.21875 55.609375 21.1875 
Q 55.609375 10.40625 48.1875 4.484375 
Q 40.765625 -1.421875 27.09375 -1.421875 
Q 22.515625 -1.421875 17.65625 -0.515625 
Q 12.796875 0.390625 7.625 2.203125 
L 7.625 11.71875 
Q 11.71875 9.328125 16.59375 8.109375 
Q 21.484375 6.890625 26.8125 6.890625 
Q 36.078125 6.890625 40.9375 10.546875 
Q 45.796875 14.203125 45.796875 21.1875 
Q 45.796875 27.640625 41.28125 31.265625 
Q 36.765625 34.90625 28.71875 34.90625 
L 20.21875 34.90625 
L 20.21875 43.015625 
L 29.109375 43.015625 
Q 36.375 43.015625 40.234375 45.921875 
Q 44.09375 48.828125 44.09375 54.296875 
Q 44.09375 59.90625 40.109375 62.90625 
Q 36.140625 65.921875 28.71875 65.921875 
Q 24.65625 65.921875 20.015625 65.03125 
Q 15.375 64.15625 9.8125 62.3125 
L 9.8125 71.09375 
Q 15.4375 72.65625 20.34375 73.4375 
Q 25.25 74.21875 29.59375 74.21875 
Q 40.828125 74.21875 47.359375 69.109375 
Q 53.90625 64.015625 53.90625 55.328125 
Q 53.90625 49.265625 50.4375 45.09375 
Q 46.96875 40.921875 40.578125 39.3125 
z
" id="DejaVuSans-51"/>
      </defs>
      <use xlink:href="#DejaVuSans-51"/>
      <use x="63.623047" xlink:href="#DejaVuSans-46"/>
      <use x="95.410156" xlink:href="#DejaVuSans-48"/>
      <use x="159.033203" xlink:href="#DejaVuSans-48"/>
      <use x="222.65625" xlink:href="#DejaVuSans-48"/>
     </g>
    </g>
   </g>
   <g id="text_27">
    <g clip-path="url(#pdf27d28f65)">
     <!-- 3.500 -->
     <g style="fill:#2d718e;" transform="translate(110.510157 79.21394)rotate(-290.68987)scale(0.06 -0.06)">
      <use xlink:href="#DejaVuSans-51"/>
      <use x="63.623047" xlink:href="#DejaVuSans-46"/>
      <use x="95.410156" xlink:href="#DejaVuSans-53"/>
      <use x="159.033203" xlink:href="#DejaVuSans-48"/>
      <use x="222.65625" xlink:href="#DejaVuSans-48"/>
     </g>
    </g>
   </g>
   <g id="text_28">
    <g clip-path="url(#pdf27d28f65)">
     <!-- 4.000 -->
     <g style="fill:#287d8e;" transform="translate(110.512846 75.109953)rotate(-290.669191)scale(0.06 -0.06)">
      <use xlink:href="#DejaVuSans-52"/>
      <use x="63.623047" xlink:href="#DejaVuSans-46"/>
      <use x="95.410156" xlink:href="#DejaVuSans-48"/>
      <use x="159.033203" xlink:href="#DejaVuSans-48"/>
      <use x="222.65625" xlink:href="#DejaVuSans-48"/>
     </g>
    </g>
   </g>
   <g id="text_29">
    <g clip-path="url(#pdf27d28f65)">
     <!-- 4.500 -->
     <g style="fill:#238a8d;" transform="translate(110.862479 74.380888)rotate(-288.999701)scale(0.06 -0.06)">
      <use xlink:href="#DejaVuSans-52"/>
      <use x="63.623047" xlink:href="#DejaVuSans-46"/>
      <use x="95.410156" xlink:href="#DejaVuSans-53"/>
      <use x="159.033203" xlink:href="#DejaVuSans-48"/>
      <use x="222.65625" xlink:href="#DejaVuSans-48"/>
     </g>
    </g>
   </g>
   <g id="text_30">
    <g clip-path="url(#pdf27d28f65)">
     <!-- 5.000 -->
     <g style="fill:#1f968b;" transform="translate(111.286578 74.231214)rotate(-286.97061)scale(0.06 -0.06)">
      <use xlink:href="#DejaVuSans-53"/>
      <use x="63.623047" xlink:href="#DejaVuSans-46"/>
      <use x="95.410156" xlink:href="#DejaVuSans-48"/>
      <use x="159.033203" xlink:href="#DejaVuSans-48"/>
      <use x="222.65625" xlink:href="#DejaVuSans-48"/>
     </g>
    </g>
   </g>
   <g id="text_31">
    <g clip-path="url(#pdf27d28f65)">
     <!-- 5.500 -->
     <g style="fill:#20a386;" transform="translate(111.738392 285.652871)rotate(-66.662138)scale(0.06 -0.06)">
      <use xlink:href="#DejaVuSans-53"/>
      <use x="63.623047" xlink:href="#DejaVuSans-46"/>
      <use x="95.410156" xlink:href="#DejaVuSans-53"/>
      <use x="159.033203" xlink:href="#DejaVuSans-48"/>
      <use x="222.65625" xlink:href="#DejaVuSans-48"/>
     </g>
    </g>
   </g>
   <g id="text_32">
    <g clip-path="url(#pdf27d28f65)">
     <!-- 6.000 -->
     <g style="fill:#29af7f;" transform="translate(111.690447 74.180146)rotate(-286.2466)scale(0.06 -0.06)">
      <use xlink:href="#DejaVuSans-54"/>
      <use x="63.623047" xlink:href="#DejaVuSans-46"/>
      <use x="95.410156" xlink:href="#DejaVuSans-48"/>
      <use x="159.033203" xlink:href="#DejaVuSans-48"/>
      <use x="222.65625" xlink:href="#DejaVuSans-48"/>
     </g>
    </g>
   </g>
   <g id="text_33">
    <g clip-path="url(#pdf27d28f65)">
     <!-- 6.500 -->
     <g style="fill:#3dbc74;" transform="translate(111.682871 74.264596)rotate(-287.434672)scale(0.06 -0.06)">
      <use xlink:href="#DejaVuSans-54"/>
      <use x="63.623047" xlink:href="#DejaVuSans-46"/>
      <use x="95.410156" xlink:href="#DejaVuSans-53"/>
      <use x="159.033203" xlink:href="#DejaVuSans-48"/>
      <use x="222.65625" xlink:href="#DejaVuSans-48"/>
     </g>
    </g>
   </g>
   <g id="text_34">
    <g clip-path="url(#pdf27d28f65)">
     <!-- 7.000 -->
     <g style="fill:#56c667;" transform="translate(111.67929 74.351106)rotate(-288.60611)scale(0.06 -0.06)">
      <defs>
       <path d="M 8.203125 72.90625 
L 55.078125 72.90625 
L 55.078125 68.703125 
L 28.609375 0 
L 18.3125 0 
L 43.21875 64.59375 
L 8.203125 64.59375 
z
" id="DejaVuSans-55"/>
      </defs>
      <use xlink:href="#DejaVuSans-55"/>
      <use x="63.623047" xlink:href="#DejaVuSans-46"/>
      <use x="95.410156" xlink:href="#DejaVuSans-48"/>
      <use x="159.033203" xlink:href="#DejaVuSans-48"/>
      <use x="222.65625" xlink:href="#DejaVuSans-48"/>
     </g>
    </g>
   </g>
   <g id="text_35">
    <g clip-path="url(#pdf27d28f65)">
     <!-- 7.500 -->
     <g style="fill:#75d054;" transform="translate(100.112661 5.333827)rotate(-308.718223)scale(0.06 -0.06)">
      <use xlink:href="#DejaVuSans-55"/>
      <use x="63.623047" xlink:href="#DejaVuSans-46"/>
      <use x="95.410156" xlink:href="#DejaVuSans-53"/>
      <use x="159.033203" xlink:href="#DejaVuSans-48"/>
      <use x="222.65625" xlink:href="#DejaVuSans-48"/>
     </g>
    </g>
   </g>
   <g id="text_36">
    <g clip-path="url(#pdf27d28f65)">
     <!-- 8.000 -->
     <g style="fill:#95d840;" transform="translate(111.684401 74.529406)rotate(-290.896517)scale(0.06 -0.06)">
      <use xlink:href="#DejaVuSans-56"/>
      <use x="63.623047" xlink:href="#DejaVuSans-46"/>
      <use x="95.410156" xlink:href="#DejaVuSans-48"/>
      <use x="159.033203" xlink:href="#DejaVuSans-48"/>
      <use x="222.65625" xlink:href="#DejaVuSans-48"/>
     </g>
    </g>
   </g>
   <g id="text_37">
    <g clip-path="url(#pdf27d28f65)">
     <!-- 8.500 -->
     <g style="fill:#bade28;" transform="translate(111.693188 74.620762)rotate(-292.014414)scale(0.06 -0.06)">
      <use xlink:href="#DejaVuSans-56"/>
      <use x="63.623047" xlink:href="#DejaVuSans-46"/>
      <use x="95.410156" xlink:href="#DejaVuSans-53"/>
      <use x="159.033203" xlink:href="#DejaVuSans-48"/>
      <use x="222.65625" xlink:href="#DejaVuSans-48"/>
     </g>
    </g>
   </g>
   <g id="text_38">
    <g clip-path="url(#pdf27d28f65)">
     <!-- 9.000 -->
     <g style="fill:#dde318;" transform="translate(112.924217 83.417307)rotate(-291.11337)scale(0.06 -0.06)">
      <use xlink:href="#DejaVuSans-57"/>
      <use x="63.623047" xlink:href="#DejaVuSans-46"/>
      <use x="95.410156" xlink:href="#DejaVuSans-48"/>
      <use x="159.033203" xlink:href="#DejaVuSans-48"/>
      <use x="222.65625" xlink:href="#DejaVuSans-48"/>
     </g>
    </g>
   </g>
   <g id="text_39">
    <g clip-path="url(#pdf27d28f65)">
     <!-- 9.500 -->
     <g style="fill:#fde725;" transform="translate(113.061254 82.682064)rotate(-290.820266)scale(0.06 -0.06)">
      <use xlink:href="#DejaVuSans-57"/>
      <use x="63.623047" xlink:href="#DejaVuSans-46"/>
      <use x="95.410156" xlink:href="#DejaVuSans-53"/>
      <use x="159.033203" xlink:href="#DejaVuSans-48"/>
      <use x="222.65625" xlink:href="#DejaVuSans-48"/>
     </g>
    </g>
   </g>
   <g id="text_40">
    <g clip-path="url(#pdf27d28f65)">
     <!-- 10.000 -->
     <g style="fill:#440154;" transform="translate(114.505587 89.772185)rotate(-281.88731)scale(0.06 -0.06)">
      <use xlink:href="#DejaVuSans-49"/>
      <use x="63.623047" xlink:href="#DejaVuSans-48"/>
      <use x="127.246094" xlink:href="#DejaVuSans-46"/>
      <use x="159.033203" xlink:href="#DejaVuSans-48"/>
      <use x="222.65625" xlink:href="#DejaVuSans-48"/>
      <use x="286.279297" xlink:href="#DejaVuSans-48"/>
     </g>
    </g>
   </g>
   <g id="text_41">
    <g clip-path="url(#pdf27d28f65)">
     <!-- 100.000 -->
     <g style="fill:#440154;" transform="translate(121.461925 114.024449)rotate(-273.302225)scale(0.06 -0.06)">
      <use xlink:href="#DejaVuSans-49"/>
      <use x="63.623047" xlink:href="#DejaVuSans-48"/>
      <use x="127.246094" xlink:href="#DejaVuSans-48"/>
      <use x="190.869141" xlink:href="#DejaVuSans-46"/>
      <use x="222.65625" xlink:href="#DejaVuSans-48"/>
      <use x="286.279297" xlink:href="#DejaVuSans-48"/>
      <use x="349.902344" xlink:href="#DejaVuSans-48"/>
     </g>
    </g>
   </g>
   <g id="text_42">
    <g clip-path="url(#pdf27d28f65)">
     <!-- 1000.000 -->
     <g style="fill:#440154;" transform="translate(127.13257 121.040689)rotate(-274.42811)scale(0.06 -0.06)">
      <use xlink:href="#DejaVuSans-49"/>
      <use x="63.623047" xlink:href="#DejaVuSans-48"/>
      <use x="127.246094" xlink:href="#DejaVuSans-48"/>
      <use x="190.869141" xlink:href="#DejaVuSans-48"/>
      <use x="254.492188" xlink:href="#DejaVuSans-46"/>
      <use x="286.279297" xlink:href="#DejaVuSans-48"/>
      <use x="349.902344" xlink:href="#DejaVuSans-48"/>
      <use x="413.525391" xlink:href="#DejaVuSans-48"/>
     </g>
    </g>
   </g>
  </g>
 </g>
 <defs>
  <clipPath id="pdf27d28f65">
   <rect height="266.112" width="357.12" x="56.028488" y="10.999219"/>
  </clipPath>
 </defs>
</svg>
