<?xml version="1.0" encoding="utf-8" standalone="no"?>
<!DOCTYPE svg PUBLIC "-//W3C//DTD SVG 1.1//EN"
  "http://www.w3.org/Graphics/SVG/1.1/DTD/svg11.dtd">
<!-- Created with matplotlib (https://matplotlib.org/) -->
<svg height="321.713144pt" version="1.1" viewBox="0 0 426.710987 321.713144" width="426.710987pt" xmlns="http://www.w3.org/2000/svg" xmlns:xlink="http://www.w3.org/1999/xlink">
 <metadata>
  <rdf:RDF xmlns:cc="http://creativecommons.org/ns#" xmlns:dc="http://purl.org/dc/elements/1.1/" xmlns:rdf="http://www.w3.org/1999/02/22-rdf-syntax-ns#">
   <cc:Work>
    <dc:type rdf:resource="http://purl.org/dc/dcmitype/StillImage"/>
    <dc:date>2021-09-22T09:29:26.470714</dc:date>
    <dc:format>image/svg+xml</dc:format>
    <dc:creator>
     <cc:Agent>
      <dc:title>Matplotlib v3.3.1, https://matplotlib.org/</dc:title>
     </cc:Agent>
    </dc:creator>
   </cc:Work>
  </rdf:RDF>
 </metadata>
 <defs>
  <style type="text/css">*{stroke-linecap:butt;stroke-linejoin:round;}</style>
 </defs>
 <g id="figure_1">
  <g id="patch_1">
   <path d="M 0 321.713144 
L 426.710987 321.713144 
L 426.710987 0 
L 0 0 
z
" style="fill:#ffffff;"/>
  </g>
  <g id="axes_1">
   <g id="patch_2">
    <path d="M 56.028488 277.111219 
L 413.148488 277.111219 
L 413.148488 10.999219 
L 56.028488 10.999219 
z
" style="fill:#ffffff;"/>
   </g>
   <g id="matplotlib.axis_1">
    <g id="xtick_1">
     <g id="line2d_1">
      <defs>
       <path d="M 0 0 
L 0 3.5 
" id="m23bfaec961" style="stroke:#000000;stroke-width:0.8;"/>
      </defs>
      <g>
       <use style="stroke:#000000;stroke-width:0.8;" x="56.028488" xlink:href="#m23bfaec961" y="277.111219"/>
      </g>
     </g>
     <g id="text_1">
      <!-- −20 -->
      <g transform="translate(45.476144 291.709656)scale(0.1 -0.1)">
       <defs>
        <path d="M 10.59375 35.5 
L 73.1875 35.5 
L 73.1875 27.203125 
L 10.59375 27.203125 
z
" id="DejaVuSans-8722"/>
        <path d="M 19.1875 8.296875 
L 53.609375 8.296875 
L 53.609375 0 
L 7.328125 0 
L 7.328125 8.296875 
Q 12.9375 14.109375 22.625 23.890625 
Q 32.328125 33.6875 34.8125 36.53125 
Q 39.546875 41.84375 41.421875 45.53125 
Q 43.3125 49.21875 43.3125 52.78125 
Q 43.3125 58.59375 39.234375 62.25 
Q 35.15625 65.921875 28.609375 65.921875 
Q 23.96875 65.921875 18.8125 64.3125 
Q 13.671875 62.703125 7.8125 59.421875 
L 7.8125 69.390625 
Q 13.765625 71.78125 18.9375 73 
Q 24.125 74.21875 28.421875 74.21875 
Q 39.75 74.21875 46.484375 68.546875 
Q 53.21875 62.890625 53.21875 53.421875 
Q 53.21875 48.921875 51.53125 44.890625 
Q 49.859375 40.875 45.40625 35.40625 
Q 44.1875 33.984375 37.640625 27.21875 
Q 31.109375 20.453125 19.1875 8.296875 
z
" id="DejaVuSans-50"/>
        <path d="M 31.78125 66.40625 
Q 24.171875 66.40625 20.328125 58.90625 
Q 16.5 51.421875 16.5 36.375 
Q 16.5 21.390625 20.328125 13.890625 
Q 24.171875 6.390625 31.78125 6.390625 
Q 39.453125 6.390625 43.28125 13.890625 
Q 47.125 21.390625 47.125 36.375 
Q 47.125 51.421875 43.28125 58.90625 
Q 39.453125 66.40625 31.78125 66.40625 
z
M 31.78125 74.21875 
Q 44.046875 74.21875 50.515625 64.515625 
Q 56.984375 54.828125 56.984375 36.375 
Q 56.984375 17.96875 50.515625 8.265625 
Q 44.046875 -1.421875 31.78125 -1.421875 
Q 19.53125 -1.421875 13.0625 8.265625 
Q 6.59375 17.96875 6.59375 36.375 
Q 6.59375 54.828125 13.0625 64.515625 
Q 19.53125 74.21875 31.78125 74.21875 
z
" id="DejaVuSans-48"/>
       </defs>
       <use xlink:href="#DejaVuSans-8722"/>
       <use x="83.789062" xlink:href="#DejaVuSans-50"/>
       <use x="147.412109" xlink:href="#DejaVuSans-48"/>
      </g>
     </g>
    </g>
    <g id="xtick_2">
     <g id="line2d_2">
      <g>
       <use style="stroke:#000000;stroke-width:0.8;" x="95.708488" xlink:href="#m23bfaec961" y="277.111219"/>
      </g>
     </g>
     <g id="text_2">
      <!-- −15 -->
      <g transform="translate(85.156144 291.709656)scale(0.1 -0.1)">
       <defs>
        <path d="M 12.40625 8.296875 
L 28.515625 8.296875 
L 28.515625 63.921875 
L 10.984375 60.40625 
L 10.984375 69.390625 
L 28.421875 72.90625 
L 38.28125 72.90625 
L 38.28125 8.296875 
L 54.390625 8.296875 
L 54.390625 0 
L 12.40625 0 
z
" id="DejaVuSans-49"/>
        <path d="M 10.796875 72.90625 
L 49.515625 72.90625 
L 49.515625 64.59375 
L 19.828125 64.59375 
L 19.828125 46.734375 
Q 21.96875 47.46875 24.109375 47.828125 
Q 26.265625 48.1875 28.421875 48.1875 
Q 40.625 48.1875 47.75 41.5 
Q 54.890625 34.8125 54.890625 23.390625 
Q 54.890625 11.625 47.5625 5.09375 
Q 40.234375 -1.421875 26.90625 -1.421875 
Q 22.3125 -1.421875 17.546875 -0.640625 
Q 12.796875 0.140625 7.71875 1.703125 
L 7.71875 11.625 
Q 12.109375 9.234375 16.796875 8.0625 
Q 21.484375 6.890625 26.703125 6.890625 
Q 35.15625 6.890625 40.078125 11.328125 
Q 45.015625 15.765625 45.015625 23.390625 
Q 45.015625 31 40.078125 35.4375 
Q 35.15625 39.890625 26.703125 39.890625 
Q 22.75 39.890625 18.8125 39.015625 
Q 14.890625 38.140625 10.796875 36.28125 
z
" id="DejaVuSans-53"/>
       </defs>
       <use xlink:href="#DejaVuSans-8722"/>
       <use x="83.789062" xlink:href="#DejaVuSans-49"/>
       <use x="147.412109" xlink:href="#DejaVuSans-53"/>
      </g>
     </g>
    </g>
    <g id="xtick_3">
     <g id="line2d_3">
      <g>
       <use style="stroke:#000000;stroke-width:0.8;" x="135.388488" xlink:href="#m23bfaec961" y="277.111219"/>
      </g>
     </g>
     <g id="text_3">
      <!-- −10 -->
      <g transform="translate(124.836144 291.709656)scale(0.1 -0.1)">
       <use xlink:href="#DejaVuSans-8722"/>
       <use x="83.789062" xlink:href="#DejaVuSans-49"/>
       <use x="147.412109" xlink:href="#DejaVuSans-48"/>
      </g>
     </g>
    </g>
    <g id="xtick_4">
     <g id="line2d_4">
      <g>
       <use style="stroke:#000000;stroke-width:0.8;" x="175.068488" xlink:href="#m23bfaec961" y="277.111219"/>
      </g>
     </g>
     <g id="text_4">
      <!-- −5 -->
      <g transform="translate(167.697394 291.709656)scale(0.1 -0.1)">
       <use xlink:href="#DejaVuSans-8722"/>
       <use x="83.789062" xlink:href="#DejaVuSans-53"/>
      </g>
     </g>
    </g>
    <g id="xtick_5">
     <g id="line2d_5">
      <g>
       <use style="stroke:#000000;stroke-width:0.8;" x="214.748488" xlink:href="#m23bfaec961" y="277.111219"/>
      </g>
     </g>
     <g id="text_5">
      <!-- 0 -->
      <g transform="translate(211.567238 291.709656)scale(0.1 -0.1)">
       <use xlink:href="#DejaVuSans-48"/>
      </g>
     </g>
    </g>
    <g id="xtick_6">
     <g id="line2d_6">
      <g>
       <use style="stroke:#000000;stroke-width:0.8;" x="254.428488" xlink:href="#m23bfaec961" y="277.111219"/>
      </g>
     </g>
     <g id="text_6">
      <!-- 5 -->
      <g transform="translate(251.247238 291.709656)scale(0.1 -0.1)">
       <use xlink:href="#DejaVuSans-53"/>
      </g>
     </g>
    </g>
    <g id="xtick_7">
     <g id="line2d_7">
      <g>
       <use style="stroke:#000000;stroke-width:0.8;" x="294.108488" xlink:href="#m23bfaec961" y="277.111219"/>
      </g>
     </g>
     <g id="text_7">
      <!-- 10 -->
      <g transform="translate(287.745988 291.709656)scale(0.1 -0.1)">
       <use xlink:href="#DejaVuSans-49"/>
       <use x="63.623047" xlink:href="#DejaVuSans-48"/>
      </g>
     </g>
    </g>
    <g id="xtick_8">
     <g id="line2d_8">
      <g>
       <use style="stroke:#000000;stroke-width:0.8;" x="333.788488" xlink:href="#m23bfaec961" y="277.111219"/>
      </g>
     </g>
     <g id="text_8">
      <!-- 15 -->
      <g transform="translate(327.425988 291.709656)scale(0.1 -0.1)">
       <use xlink:href="#DejaVuSans-49"/>
       <use x="63.623047" xlink:href="#DejaVuSans-53"/>
      </g>
     </g>
    </g>
    <g id="xtick_9">
     <g id="line2d_9">
      <g>
       <use style="stroke:#000000;stroke-width:0.8;" x="373.468488" xlink:href="#m23bfaec961" y="277.111219"/>
      </g>
     </g>
     <g id="text_9">
      <!-- 20 -->
      <g transform="translate(367.105988 291.709656)scale(0.1 -0.1)">
       <use xlink:href="#DejaVuSans-50"/>
       <use x="63.623047" xlink:href="#DejaVuSans-48"/>
      </g>
     </g>
    </g>
    <g id="xtick_10">
     <g id="line2d_10">
      <g>
       <use style="stroke:#000000;stroke-width:0.8;" x="413.148488" xlink:href="#m23bfaec961" y="277.111219"/>
      </g>
     </g>
     <g id="text_10">
      <!-- 25 -->
      <g transform="translate(406.785988 291.709656)scale(0.1 -0.1)">
       <use xlink:href="#DejaVuSans-50"/>
       <use x="63.623047" xlink:href="#DejaVuSans-53"/>
      </g>
     </g>
    </g>
    <g id="text_11">
     <!-- 1st PC: 98.29 % -->
     <g transform="translate(165.868088 310.919444)scale(0.1728 -0.1728)">
      <defs>
       <path d="M 44.28125 53.078125 
L 44.28125 44.578125 
Q 40.484375 46.53125 36.375 47.5 
Q 32.28125 48.484375 27.875 48.484375 
Q 21.1875 48.484375 17.84375 46.4375 
Q 14.5 44.390625 14.5 40.28125 
Q 14.5 37.15625 16.890625 35.375 
Q 19.28125 33.59375 26.515625 31.984375 
L 29.59375 31.296875 
Q 39.15625 29.25 43.1875 25.515625 
Q 47.21875 21.78125 47.21875 15.09375 
Q 47.21875 7.46875 41.1875 3.015625 
Q 35.15625 -1.421875 24.609375 -1.421875 
Q 20.21875 -1.421875 15.453125 -0.5625 
Q 10.6875 0.296875 5.421875 2 
L 5.421875 11.28125 
Q 10.40625 8.6875 15.234375 7.390625 
Q 20.0625 6.109375 24.8125 6.109375 
Q 31.15625 6.109375 34.5625 8.28125 
Q 37.984375 10.453125 37.984375 14.40625 
Q 37.984375 18.0625 35.515625 20.015625 
Q 33.0625 21.96875 24.703125 23.78125 
L 21.578125 24.515625 
Q 13.234375 26.265625 9.515625 29.90625 
Q 5.8125 33.546875 5.8125 39.890625 
Q 5.8125 47.609375 11.28125 51.796875 
Q 16.75 56 26.8125 56 
Q 31.78125 56 36.171875 55.265625 
Q 40.578125 54.546875 44.28125 53.078125 
z
" id="DejaVuSans-115"/>
       <path d="M 18.3125 70.21875 
L 18.3125 54.6875 
L 36.8125 54.6875 
L 36.8125 47.703125 
L 18.3125 47.703125 
L 18.3125 18.015625 
Q 18.3125 11.328125 20.140625 9.421875 
Q 21.96875 7.515625 27.59375 7.515625 
L 36.8125 7.515625 
L 36.8125 0 
L 27.59375 0 
Q 17.1875 0 13.234375 3.875 
Q 9.28125 7.765625 9.28125 18.015625 
L 9.28125 47.703125 
L 2.6875 47.703125 
L 2.6875 54.6875 
L 9.28125 54.6875 
L 9.28125 70.21875 
z
" id="DejaVuSans-116"/>
       <path id="DejaVuSans-32"/>
       <path d="M 19.671875 64.796875 
L 19.671875 37.40625 
L 32.078125 37.40625 
Q 38.96875 37.40625 42.71875 40.96875 
Q 46.484375 44.53125 46.484375 51.125 
Q 46.484375 57.671875 42.71875 61.234375 
Q 38.96875 64.796875 32.078125 64.796875 
z
M 9.8125 72.90625 
L 32.078125 72.90625 
Q 44.34375 72.90625 50.609375 67.359375 
Q 56.890625 61.8125 56.890625 51.125 
Q 56.890625 40.328125 50.609375 34.8125 
Q 44.34375 29.296875 32.078125 29.296875 
L 19.671875 29.296875 
L 19.671875 0 
L 9.8125 0 
z
" id="DejaVuSans-80"/>
       <path d="M 64.40625 67.28125 
L 64.40625 56.890625 
Q 59.421875 61.53125 53.78125 63.8125 
Q 48.140625 66.109375 41.796875 66.109375 
Q 29.296875 66.109375 22.65625 58.46875 
Q 16.015625 50.828125 16.015625 36.375 
Q 16.015625 21.96875 22.65625 14.328125 
Q 29.296875 6.6875 41.796875 6.6875 
Q 48.140625 6.6875 53.78125 8.984375 
Q 59.421875 11.28125 64.40625 15.921875 
L 64.40625 5.609375 
Q 59.234375 2.09375 53.4375 0.328125 
Q 47.65625 -1.421875 41.21875 -1.421875 
Q 24.65625 -1.421875 15.125 8.703125 
Q 5.609375 18.84375 5.609375 36.375 
Q 5.609375 53.953125 15.125 64.078125 
Q 24.65625 74.21875 41.21875 74.21875 
Q 47.75 74.21875 53.53125 72.484375 
Q 59.328125 70.75 64.40625 67.28125 
z
" id="DejaVuSans-67"/>
       <path d="M 11.71875 12.40625 
L 22.015625 12.40625 
L 22.015625 0 
L 11.71875 0 
z
M 11.71875 51.703125 
L 22.015625 51.703125 
L 22.015625 39.3125 
L 11.71875 39.3125 
z
" id="DejaVuSans-58"/>
       <path d="M 10.984375 1.515625 
L 10.984375 10.5 
Q 14.703125 8.734375 18.5 7.8125 
Q 22.3125 6.890625 25.984375 6.890625 
Q 35.75 6.890625 40.890625 13.453125 
Q 46.046875 20.015625 46.78125 33.40625 
Q 43.953125 29.203125 39.59375 26.953125 
Q 35.25 24.703125 29.984375 24.703125 
Q 19.046875 24.703125 12.671875 31.3125 
Q 6.296875 37.9375 6.296875 49.421875 
Q 6.296875 60.640625 12.9375 67.421875 
Q 19.578125 74.21875 30.609375 74.21875 
Q 43.265625 74.21875 49.921875 64.515625 
Q 56.59375 54.828125 56.59375 36.375 
Q 56.59375 19.140625 48.40625 8.859375 
Q 40.234375 -1.421875 26.421875 -1.421875 
Q 22.703125 -1.421875 18.890625 -0.6875 
Q 15.09375 0.046875 10.984375 1.515625 
z
M 30.609375 32.421875 
Q 37.25 32.421875 41.125 36.953125 
Q 45.015625 41.5 45.015625 49.421875 
Q 45.015625 57.28125 41.125 61.84375 
Q 37.25 66.40625 30.609375 66.40625 
Q 23.96875 66.40625 20.09375 61.84375 
Q 16.21875 57.28125 16.21875 49.421875 
Q 16.21875 41.5 20.09375 36.953125 
Q 23.96875 32.421875 30.609375 32.421875 
z
" id="DejaVuSans-57"/>
       <path d="M 31.78125 34.625 
Q 24.75 34.625 20.71875 30.859375 
Q 16.703125 27.09375 16.703125 20.515625 
Q 16.703125 13.921875 20.71875 10.15625 
Q 24.75 6.390625 31.78125 6.390625 
Q 38.8125 6.390625 42.859375 10.171875 
Q 46.921875 13.96875 46.921875 20.515625 
Q 46.921875 27.09375 42.890625 30.859375 
Q 38.875 34.625 31.78125 34.625 
z
M 21.921875 38.8125 
Q 15.578125 40.375 12.03125 44.71875 
Q 8.5 49.078125 8.5 55.328125 
Q 8.5 64.0625 14.71875 69.140625 
Q 20.953125 74.21875 31.78125 74.21875 
Q 42.671875 74.21875 48.875 69.140625 
Q 55.078125 64.0625 55.078125 55.328125 
Q 55.078125 49.078125 51.53125 44.71875 
Q 48 40.375 41.703125 38.8125 
Q 48.828125 37.15625 52.796875 32.3125 
Q 56.78125 27.484375 56.78125 20.515625 
Q 56.78125 9.90625 50.3125 4.234375 
Q 43.84375 -1.421875 31.78125 -1.421875 
Q 19.734375 -1.421875 13.25 4.234375 
Q 6.78125 9.90625 6.78125 20.515625 
Q 6.78125 27.484375 10.78125 32.3125 
Q 14.796875 37.15625 21.921875 38.8125 
z
M 18.3125 54.390625 
Q 18.3125 48.734375 21.84375 45.5625 
Q 25.390625 42.390625 31.78125 42.390625 
Q 38.140625 42.390625 41.71875 45.5625 
Q 45.3125 48.734375 45.3125 54.390625 
Q 45.3125 60.0625 41.71875 63.234375 
Q 38.140625 66.40625 31.78125 66.40625 
Q 25.390625 66.40625 21.84375 63.234375 
Q 18.3125 60.0625 18.3125 54.390625 
z
" id="DejaVuSans-56"/>
       <path d="M 10.6875 12.40625 
L 21 12.40625 
L 21 0 
L 10.6875 0 
z
" id="DejaVuSans-46"/>
       <path d="M 72.703125 32.078125 
Q 68.453125 32.078125 66.03125 28.46875 
Q 63.625 24.859375 63.625 18.40625 
Q 63.625 12.0625 66.03125 8.421875 
Q 68.453125 4.78125 72.703125 4.78125 
Q 76.859375 4.78125 79.265625 8.421875 
Q 81.6875 12.0625 81.6875 18.40625 
Q 81.6875 24.8125 79.265625 28.4375 
Q 76.859375 32.078125 72.703125 32.078125 
z
M 72.703125 38.28125 
Q 80.421875 38.28125 84.953125 32.90625 
Q 89.5 27.546875 89.5 18.40625 
Q 89.5 9.28125 84.9375 3.921875 
Q 80.375 -1.421875 72.703125 -1.421875 
Q 64.890625 -1.421875 60.34375 3.921875 
Q 55.8125 9.28125 55.8125 18.40625 
Q 55.8125 27.59375 60.375 32.9375 
Q 64.9375 38.28125 72.703125 38.28125 
z
M 22.3125 68.015625 
Q 18.109375 68.015625 15.6875 64.375 
Q 13.28125 60.75 13.28125 54.390625 
Q 13.28125 47.953125 15.671875 44.328125 
Q 18.0625 40.71875 22.3125 40.71875 
Q 26.5625 40.71875 28.96875 44.328125 
Q 31.390625 47.953125 31.390625 54.390625 
Q 31.390625 60.6875 28.953125 64.34375 
Q 26.515625 68.015625 22.3125 68.015625 
z
M 66.40625 74.21875 
L 74.21875 74.21875 
L 28.609375 -1.421875 
L 20.796875 -1.421875 
z
M 22.3125 74.21875 
Q 30.03125 74.21875 34.609375 68.875 
Q 39.203125 63.53125 39.203125 54.390625 
Q 39.203125 45.171875 34.640625 39.84375 
Q 30.078125 34.515625 22.3125 34.515625 
Q 14.546875 34.515625 10.03125 39.859375 
Q 5.515625 45.21875 5.515625 54.390625 
Q 5.515625 63.484375 10.046875 68.84375 
Q 14.59375 74.21875 22.3125 74.21875 
z
" id="DejaVuSans-37"/>
      </defs>
      <use xlink:href="#DejaVuSans-49"/>
      <use x="63.623047" xlink:href="#DejaVuSans-115"/>
      <use x="115.722656" xlink:href="#DejaVuSans-116"/>
      <use x="154.931641" xlink:href="#DejaVuSans-32"/>
      <use x="186.71875" xlink:href="#DejaVuSans-80"/>
      <use x="247.021484" xlink:href="#DejaVuSans-67"/>
      <use x="316.845703" xlink:href="#DejaVuSans-58"/>
      <use x="350.537109" xlink:href="#DejaVuSans-32"/>
      <use x="382.324219" xlink:href="#DejaVuSans-57"/>
      <use x="445.947266" xlink:href="#DejaVuSans-56"/>
      <use x="509.570312" xlink:href="#DejaVuSans-46"/>
      <use x="541.357422" xlink:href="#DejaVuSans-50"/>
      <use x="604.980469" xlink:href="#DejaVuSans-57"/>
      <use x="668.603516" xlink:href="#DejaVuSans-32"/>
      <use x="700.390625" xlink:href="#DejaVuSans-37"/>
     </g>
    </g>
   </g>
   <g id="matplotlib.axis_2">
    <g id="ytick_1">
     <g id="line2d_11">
      <defs>
       <path d="M 0 0 
L -3.5 0 
" id="m33ea45d8cd" style="stroke:#000000;stroke-width:0.8;"/>
      </defs>
      <g>
       <use style="stroke:#000000;stroke-width:0.8;" x="56.028488" xlink:href="#m33ea45d8cd" y="277.111219"/>
      </g>
     </g>
     <g id="text_12">
      <!-- −20 -->
      <g transform="translate(27.9238 280.910437)scale(0.1 -0.1)">
       <use xlink:href="#DejaVuSans-8722"/>
       <use x="83.789062" xlink:href="#DejaVuSans-50"/>
       <use x="147.412109" xlink:href="#DejaVuSans-48"/>
      </g>
     </g>
    </g>
    <g id="ytick_2">
     <g id="line2d_12">
      <g>
       <use style="stroke:#000000;stroke-width:0.8;" x="56.028488" xlink:href="#m33ea45d8cd" y="243.847219"/>
      </g>
     </g>
     <g id="text_13">
      <!-- −15 -->
      <g transform="translate(27.9238 247.646437)scale(0.1 -0.1)">
       <use xlink:href="#DejaVuSans-8722"/>
       <use x="83.789062" xlink:href="#DejaVuSans-49"/>
       <use x="147.412109" xlink:href="#DejaVuSans-53"/>
      </g>
     </g>
    </g>
    <g id="ytick_3">
     <g id="line2d_13">
      <g>
       <use style="stroke:#000000;stroke-width:0.8;" x="56.028488" xlink:href="#m33ea45d8cd" y="210.583219"/>
      </g>
     </g>
     <g id="text_14">
      <!-- −10 -->
      <g transform="translate(27.9238 214.382437)scale(0.1 -0.1)">
       <use xlink:href="#DejaVuSans-8722"/>
       <use x="83.789062" xlink:href="#DejaVuSans-49"/>
       <use x="147.412109" xlink:href="#DejaVuSans-48"/>
      </g>
     </g>
    </g>
    <g id="ytick_4">
     <g id="line2d_14">
      <g>
       <use style="stroke:#000000;stroke-width:0.8;" x="56.028488" xlink:href="#m33ea45d8cd" y="177.319219"/>
      </g>
     </g>
     <g id="text_15">
      <!-- −5 -->
      <g transform="translate(34.2863 181.118437)scale(0.1 -0.1)">
       <use xlink:href="#DejaVuSans-8722"/>
       <use x="83.789062" xlink:href="#DejaVuSans-53"/>
      </g>
     </g>
    </g>
    <g id="ytick_5">
     <g id="line2d_15">
      <g>
       <use style="stroke:#000000;stroke-width:0.8;" x="56.028488" xlink:href="#m33ea45d8cd" y="144.055219"/>
      </g>
     </g>
     <g id="text_16">
      <!-- 0 -->
      <g transform="translate(42.665987 147.854437)scale(0.1 -0.1)">
       <use xlink:href="#DejaVuSans-48"/>
      </g>
     </g>
    </g>
    <g id="ytick_6">
     <g id="line2d_16">
      <g>
       <use style="stroke:#000000;stroke-width:0.8;" x="56.028488" xlink:href="#m33ea45d8cd" y="110.791219"/>
      </g>
     </g>
     <g id="text_17">
      <!-- 5 -->
      <g transform="translate(42.665987 114.590437)scale(0.1 -0.1)">
       <use xlink:href="#DejaVuSans-53"/>
      </g>
     </g>
    </g>
    <g id="ytick_7">
     <g id="line2d_17">
      <g>
       <use style="stroke:#000000;stroke-width:0.8;" x="56.028488" xlink:href="#m33ea45d8cd" y="77.527219"/>
      </g>
     </g>
     <g id="text_18">
      <!-- 10 -->
      <g transform="translate(36.303488 81.326437)scale(0.1 -0.1)">
       <use xlink:href="#DejaVuSans-49"/>
       <use x="63.623047" xlink:href="#DejaVuSans-48"/>
      </g>
     </g>
    </g>
    <g id="ytick_8">
     <g id="line2d_18">
      <g>
       <use style="stroke:#000000;stroke-width:0.8;" x="56.028488" xlink:href="#m33ea45d8cd" y="44.263219"/>
      </g>
     </g>
     <g id="text_19">
      <!-- 15 -->
      <g transform="translate(36.303488 48.062437)scale(0.1 -0.1)">
       <use xlink:href="#DejaVuSans-49"/>
       <use x="63.623047" xlink:href="#DejaVuSans-53"/>
      </g>
     </g>
    </g>
    <g id="ytick_9">
     <g id="line2d_19">
      <g>
       <use style="stroke:#000000;stroke-width:0.8;" x="56.028488" xlink:href="#m33ea45d8cd" y="10.999219"/>
      </g>
     </g>
     <g id="text_20">
      <!-- 20 -->
      <g transform="translate(36.303488 14.798437)scale(0.1 -0.1)">
       <use xlink:href="#DejaVuSans-50"/>
       <use x="63.623047" xlink:href="#DejaVuSans-48"/>
      </g>
     </g>
    </g>
    <g id="text_21">
     <!-- 2nd PC: 0.80 % -->
     <g transform="translate(20.3301 210.351019)rotate(-90)scale(0.1728 -0.1728)">
      <defs>
       <path d="M 54.890625 33.015625 
L 54.890625 0 
L 45.90625 0 
L 45.90625 32.71875 
Q 45.90625 40.484375 42.875 44.328125 
Q 39.84375 48.1875 33.796875 48.1875 
Q 26.515625 48.1875 22.3125 43.546875 
Q 18.109375 38.921875 18.109375 30.90625 
L 18.109375 0 
L 9.078125 0 
L 9.078125 54.6875 
L 18.109375 54.6875 
L 18.109375 46.1875 
Q 21.34375 51.125 25.703125 53.5625 
Q 30.078125 56 35.796875 56 
Q 45.21875 56 50.046875 50.171875 
Q 54.890625 44.34375 54.890625 33.015625 
z
" id="DejaVuSans-110"/>
       <path d="M 45.40625 46.390625 
L 45.40625 75.984375 
L 54.390625 75.984375 
L 54.390625 0 
L 45.40625 0 
L 45.40625 8.203125 
Q 42.578125 3.328125 38.25 0.953125 
Q 33.9375 -1.421875 27.875 -1.421875 
Q 17.96875 -1.421875 11.734375 6.484375 
Q 5.515625 14.40625 5.515625 27.296875 
Q 5.515625 40.1875 11.734375 48.09375 
Q 17.96875 56 27.875 56 
Q 33.9375 56 38.25 53.625 
Q 42.578125 51.265625 45.40625 46.390625 
z
M 14.796875 27.296875 
Q 14.796875 17.390625 18.875 11.75 
Q 22.953125 6.109375 30.078125 6.109375 
Q 37.203125 6.109375 41.296875 11.75 
Q 45.40625 17.390625 45.40625 27.296875 
Q 45.40625 37.203125 41.296875 42.84375 
Q 37.203125 48.484375 30.078125 48.484375 
Q 22.953125 48.484375 18.875 42.84375 
Q 14.796875 37.203125 14.796875 27.296875 
z
" id="DejaVuSans-100"/>
      </defs>
      <use xlink:href="#DejaVuSans-50"/>
      <use x="63.623047" xlink:href="#DejaVuSans-110"/>
      <use x="127.001953" xlink:href="#DejaVuSans-100"/>
      <use x="190.478516" xlink:href="#DejaVuSans-32"/>
      <use x="222.265625" xlink:href="#DejaVuSans-80"/>
      <use x="282.568359" xlink:href="#DejaVuSans-67"/>
      <use x="352.392578" xlink:href="#DejaVuSans-58"/>
      <use x="386.083984" xlink:href="#DejaVuSans-32"/>
      <use x="417.871094" xlink:href="#DejaVuSans-48"/>
      <use x="481.494141" xlink:href="#DejaVuSans-46"/>
      <use x="513.28125" xlink:href="#DejaVuSans-56"/>
      <use x="576.904297" xlink:href="#DejaVuSans-48"/>
      <use x="640.527344" xlink:href="#DejaVuSans-32"/>
      <use x="672.314453" xlink:href="#DejaVuSans-37"/>
     </g>
    </g>
   </g>
   <g id="LineCollection_1"/>
   <g id="LineCollection_2"/>
   <g id="LineCollection_3"/>
   <g id="LineCollection_4">
    <path clip-path="url(#pceefea4efe)" d="M 212.680742 147.505515 
L 213.354443 152.925619 
L 213.631724 161.796019 
L 212.866083 170.666419 
L 211.158901 179.536819 
L 210.780488 180.908502 
L 205.291284 188.407219 
L 200.516739 197.277619 
L 198.876488 200.578421 
L 195.676813 197.277619 
L 193.113797 188.407219 
L 192.476091 179.536819 
L 192.373377 170.666419 
L 192.502062 161.796019 
L 192.782907 152.925619 
L 193.23502 144.055219 
L 194.050596 135.184819 
L 195.742473 126.314419 
L 198.876488 120.279675 
L 202.235276 125.598702 
" style="fill:none;stroke:#453781;stroke-width:1.5;"/>
   </g>
   <g id="LineCollection_5">
    <path clip-path="url(#pceefea4efe)" d="M 172.183614 140.326356 
L 172.159181 135.184819 
L 172.005023 126.314419 
L 171.787283 117.444019 
L 171.668926 108.573619 
L 172.138249 99.703219 
L 175.068488 92.045201 
L 186.972488 96.730231 
L 188.654431 99.703219 
L 198.876488 107.012069 
L 199.955559 108.573619 
L 208.932934 117.444019 
L 210.780488 119.098169 
L 216.41981 126.314419 
L 222.684488 134.915524 
L 222.831053 135.184819 
L 225.813147 144.055219 
L 228.024638 152.925619 
L 228.589391 161.796019 
L 227.72219 170.666419 
L 225.662342 179.536819 
L 223.126143 188.407219 
L 222.684488 189.651776 
L 218.411034 197.277619 
L 213.67825 206.148019 
L 210.780488 213.154324 
L 209.313874 215.018419 
L 202.342544 223.888819 
L 198.876488 230.389554 
L 195.791242 232.759219 
L 187.192733 241.629619 
L 186.972488 241.920397 
L 175.068488 245.862983 
L 163.164488 244.104233 
L 160.688156 241.629619 
L 161.508329 232.759219 
L 163.164488 227.279164 
L 163.990606 223.888819 
L 165.991602 215.018419 
L 167.554672 206.148019 
L 168.815845 197.277619 
L 169.848826 188.407219 
L 170.680744 179.536819 
L 171.326111 170.666419 
L 171.600252 165.515548 
" style="fill:none;stroke:#404688;stroke-width:1.5;"/>
   </g>
   <g id="LineCollection_6">
    <path clip-path="url(#pceefea4efe)" d="M 56.028488 268.686096 
L 56.634818 268.240819 
L 67.932488 261.017963 
L 70.360626 259.370419 
L 79.836488 253.106659 
L 83.651823 250.500019 
L 91.740488 244.604666 
L 95.663375 241.629619 
L 103.644487 234.89999 
L 106.021688 232.759219 
L 113.258101 225.233534 
" style="fill:none;stroke:#39558c;stroke-width:1.5;"/>
    <path clip-path="url(#pceefea4efe)" d="M 126.115656 203.71005 
L 127.452488 200.200112 
L 128.286034 197.277619 
L 130.063071 188.407219 
L 131.214251 179.536819 
L 131.829817 170.666419 
L 132.007087 161.796019 
L 131.815349 152.925619 
L 131.265008 144.055219 
L 130.299327 135.184819 
L 128.813033 126.314419 
L 127.452488 120.415669 
L 126.613528 117.444019 
L 123.448212 108.573619 
L 119.718924 99.703219 
L 115.548488 90.99139 
L 115.463353 90.832819 
L 110.25298 81.962419 
L 104.830683 73.092019 
L 103.644488 71.229165 
L 98.989377 64.221619 
L 93.079089 55.351219 
L 91.740488 53.282004 
L 87.388589 46.480819 
L 81.94764 37.610419 
L 79.836488 33.62173 
L 77.193061 28.740019 
L 73.491117 19.869619 
L 72.457124 10.999219 
" style="fill:none;stroke:#39558c;stroke-width:1.5;"/>
    <path clip-path="url(#pceefea4efe)" d="M 146.752822 277.111219 
L 139.356488 268.580686 
L 127.951717 270.166192 
" style="fill:none;stroke:#39558c;stroke-width:1.5;"/>
    <path clip-path="url(#pceefea4efe)" d="M 103.5262 276.152757 
L 101.030703 277.111219 
" style="fill:none;stroke:#39558c;stroke-width:1.5;"/>
    <path clip-path="url(#pceefea4efe)" d="M 83.271882 10.999219 
L 91.740488 14.608595 
L 103.644488 19.399676 
L 104.431003 19.869619 
L 115.548488 27.335259 
L 117.570608 28.740019 
L 127.452488 35.649871 
L 129.728604 37.610419 
L 139.356488 44.696275 
L 141.060707 46.480819 
L 151.260488 54.394125 
L 152.061328 55.351219 
L 152.844022 56.022044 
" style="fill:none;stroke:#39558c;stroke-width:1.5;"/>
    <path clip-path="url(#pceefea4efe)" d="M 170.096235 74.031988 
L 175.068488 77.604622 
L 176.883095 81.962419 
L 186.972488 89.930704 
L 187.440825 90.832819 
L 194.259668 99.703219 
L 198.876488 103.004281 
L 202.725043 108.573619 
L 210.780488 115.481964 
L 213.092347 117.444019 
L 222.684488 125.925459 
L 223.030082 126.314419 
L 228.385312 135.184819 
L 234.588488 142.53502 
L 235.003127 144.055219 
L 235.955712 152.925619 
L 236.909838 161.796019 
L 236.593387 170.666419 
L 234.861844 179.536819 
L 234.588488 180.504084 
L 230.376 188.407219 
L 225.776298 197.277619 
L 222.684488 204.527357 
L 221.577744 206.148019 
L 215.343388 215.018419 
L 211.008745 223.888819 
L 210.780488 224.350667 
L 203.579917 232.759219 
L 198.876488 240.642886 
L 197.739756 241.629619 
L 188.671247 250.500019 
L 186.972488 252.49547 
L 178.082504 259.370419 
L 175.068488 262.176672 
L 166.146534 268.240819 
L 163.164488 270.419319 
L 152.986839 277.111219 
" style="fill:none;stroke:#39558c;stroke-width:1.5;"/>
   </g>
   <g id="LineCollection_7">
    <path clip-path="url(#pceefea4efe)" d="M 100.730104 10.999219 
L 103.644488 12.917499 
L 115.279856 19.869619 
L 115.548488 20.050011 
L 127.452488 28.697706 
L 127.511244 28.740019 
L 138.241854 37.610419 
L 139.356488 38.430759 
L 147.044206 46.480819 
L 151.260488 49.751941 
L 155.945635 55.351219 
L 163.164488 61.190739 
L 165.060143 64.221619 
L 175.068488 72.545866 
L 175.262132 73.092019 
L 179.70508 81.962419 
L 186.972488 87.701989 
L 188.597875 90.832819 
L 198.876488 99.530567 
L 199.001253 99.703219 
L 205.494528 108.573619 
L 210.780488 113.106855 
L 215.890901 117.444019 
L 222.684488 123.450957 
L 225.228701 126.314419 
L 233.939572 135.184819 
L 234.588488 135.953725 
L 236.798198 144.055219 
L 238.725884 152.925619 
L 241.371423 161.796019 
L 241.604132 170.666419 
L 238.705761 179.536819 
L 235.614202 188.407219 
L 234.588488 191.490694 
L 230.70957 197.277619 
L 226.590739 204.106478 
" style="fill:none;stroke:#33638d;stroke-width:1.5;"/>
    <path clip-path="url(#pceefea4efe)" d="M 213.383347 225.462529 
L 210.780488 230.729067 
L 209.04199 232.759219 
L 201.291915 241.629619 
L 198.876488 245.229968 
L 193.096763 250.500019 
L 186.972488 257.69391 
L 184.804597 259.370419 
L 175.128918 268.240819 
L 175.068488 268.290671 
L 163.175758 277.111219 
" style="fill:none;stroke:#33638d;stroke-width:1.5;"/>
   </g>
   <g id="LineCollection_8">
    <path clip-path="url(#pceefea4efe)" d="M 104.303032 10.999219 
L 115.548488 19.204077 
L 116.514878 19.869619 
L 127.452488 27.964339 
L 128.529604 28.740019 
L 139.356488 36.940115 
L 140.194577 37.610419 
L 151.260488 46.258237 
L 151.502916 46.480819 
L 159.829943 55.351219 
L 163.164488 58.04862 
L 165.891409 62.408575 
" style="fill:none;stroke:#2d718e;stroke-width:1.5;"/>
    <path clip-path="url(#pceefea4efe)" d="M 182.032749 81.306542 
L 182.527066 81.962419 
L 186.972488 85.473273 
L 189.754924 90.832819 
L 198.876488 98.551473 
L 199.708791 99.703219 
L 208.264013 108.573619 
L 210.780488 110.731746 
L 218.689456 117.444019 
L 222.684488 120.976455 
L 227.427321 126.314419 
L 234.588488 133.292667 
L 235.302619 135.184819 
L 238.593268 144.055219 
L 241.496057 152.925619 
L 245.833008 161.796019 
L 246.492488 169.408482 
L 246.503589 170.666419 
L 246.492488 170.872736 
L 242.549678 179.536819 
L 238.062467 188.407219 
L 234.884872 197.277619 
L 234.588488 198.147018 
L 228.470099 206.148019 
L 223.641319 215.018419 
L 222.684488 217.177594 
L 217.313487 223.888819 
L 211.858812 232.759219 
L 210.780488 234.656848 
L 203.999117 241.629619 
L 198.876488 249.265228 
L 197.522279 250.500019 
L 188.030777 259.370419 
L 186.972488 260.411876 
L 177.072733 268.240819 
L 175.068488 269.894227 
L 165.337829 277.111219 
" style="fill:none;stroke:#2d718e;stroke-width:1.5;"/>
   </g>
   <g id="LineCollection_9">
    <path clip-path="url(#pceefea4efe)" d="M 105.238374 10.999219 
L 115.548488 18.521637 
L 117.505804 19.869619 
L 127.452488 27.230973 
L 129.547964 28.740019 
L 139.356488 36.168826 
L 141.158928 37.610419 
L 151.260488 45.504614 
L 152.323739 46.480819 
L 163.164488 55.257167 
L 163.231527 55.351219 
L 166.434187 60.284107 
" style="fill:none;stroke:#287d8e;stroke-width:1.5;"/>
    <path clip-path="url(#pceefea4efe)" d="M 182.487912 79.119686 
L 185.349051 81.962419 
L 186.972488 83.244558 
L 190.911974 90.832819 
L 198.876488 97.57238 
L 200.416329 99.703219 
L 210.780488 108.51864 
L 210.854992 108.573619 
L 221.48801 117.444019 
L 222.684488 118.501953 
L 229.62594 126.314419 
L 234.588488 131.150207 
L 236.11122 135.184819 
L 240.388339 144.055219 
L 244.266229 152.925619 
L 246.492488 157.230821 
L 246.778261 161.796019 
L 246.95808 170.666419 
L 246.492488 179.319508 
L 246.393595 179.536819 
L 240.510732 188.407219 
L 236.271638 197.277619 
L 234.588488 202.214893 
L 231.580815 206.148019 
L 225.386866 215.018419 
L 222.684488 221.116575 
L 220.465858 223.888819 
L 213.440595 232.759219 
L 210.780488 237.44046 
L 206.70632 241.629619 
L 199.648504 250.500019 
L 198.876488 251.427523 
L 189.592833 259.370419 
L 186.972488 261.949088 
L 179.016548 268.240819 
L 175.068488 271.497782 
L 167.4999 277.111219 
" style="fill:none;stroke:#287d8e;stroke-width:1.5;"/>
   </g>
   <g id="LineCollection_10">
    <path clip-path="url(#pceefea4efe)" d="M 106.173716 10.999219 
L 115.548488 17.839197 
L 118.496731 19.869619 
L 127.452488 26.497606 
L 130.566324 28.740019 
L 139.356488 35.397538 
L 142.123278 37.610419 
L 151.260488 44.75099 
L 153.144561 46.480819 
L 163.164488 54.592654 
L 163.705191 55.351219 
L 166.367029 58.607698 
" style="fill:none;stroke:#238a8d;stroke-width:1.5;"/>
    <path clip-path="url(#pceefea4efe)" d="M 182.149183 77.561498 
L 186.972488 81.748736 
L 187.08503 81.962419 
L 192.069023 90.832819 
L 198.876488 96.593286 
L 201.123867 99.703219 
L 210.780488 107.916831 
L 211.670531 108.573619 
L 222.684488 117.083304 
L 223.07548 117.444019 
L 231.824559 126.314419 
L 234.588488 129.007748 
L 236.919822 135.184819 
L 242.18341 144.055219 
L 246.492488 152.254933 
L 246.541702 152.925619 
L 247.113603 161.796019 
L 247.412572 170.666419 
L 246.962157 179.536819 
L 246.492488 183.111611 
L 242.958997 188.407219 
L 237.658405 197.277619 
L 234.613872 206.148019 
L 234.588488 206.216279 
L 227.132412 215.018419 
L 222.943736 223.888819 
L 222.684488 224.399976 
L 215.022377 232.759219 
L 210.780488 240.224072 
L 209.413523 241.629619 
L 200.76092 250.500019 
L 198.876488 252.763985 
L 191.15489 259.370419 
L 186.972488 263.486299 
L 180.960363 268.240819 
L 175.068488 273.101337 
L 169.661971 277.111219 
" style="fill:none;stroke:#238a8d;stroke-width:1.5;"/>
   </g>
   <g id="LineCollection_11">
    <path clip-path="url(#pceefea4efe)" d="M 107.109058 10.999219 
L 115.548488 17.156757 
L 119.487658 19.869619 
L 127.452488 25.76424 
L 131.584684 28.740019 
L 139.356488 34.62625 
L 143.087629 37.610419 
L 151.260488 43.997366 
L 153.965384 46.480819 
L 163.164488 53.92814 
L 164.178855 55.351219 
L 166.037206 57.23682 
" style="fill:none;stroke:#1f968b;stroke-width:1.5;"/>
    <path clip-path="url(#pceefea4efe)" d="M 181.419125 76.424598 
L 186.972488 81.245618 
L 187.35001 81.962419 
L 193.226073 90.832819 
L 198.876488 95.614192 
L 201.831404 99.703219 
L 210.780488 107.315022 
L 212.486069 108.573619 
L 222.684488 116.453196 
L 223.758477 117.444019 
L 234.023179 126.314419 
L 234.588488 126.865288 
L 237.728424 135.184819 
L 243.978481 144.055219 
L 246.492488 148.839105 
L 246.792353 152.925619 
L 247.448944 161.796019 
L 247.867064 170.666419 
L 247.444229 179.536819 
L 246.492488 186.780802 
L 245.407262 188.407219 
L 239.045172 197.277619 
L 235.380193 206.148019 
L 234.588488 208.276954 
L 228.877959 215.018419 
L 223.818974 223.888819 
L 222.684488 226.125676 
L 216.60416 232.759219 
L 211.137886 241.629619 
L 210.780488 242.146128 
L 201.873336 250.500019 
L 198.876488 254.100447 
L 192.716946 259.370419 
L 186.972488 265.023511 
L 182.904178 268.240819 
L 175.068488 274.704893 
L 171.824042 277.111219 
" style="fill:none;stroke:#1f968b;stroke-width:1.5;"/>
   </g>
   <g id="LineCollection_12">
    <path clip-path="url(#pceefea4efe)" d="M 108.0444 10.999219 
L 115.548488 16.474317 
L 120.478585 19.869619 
L 127.452488 25.030874 
L 132.603044 28.740019 
L 139.356488 33.854961 
L 144.05198 37.610419 
L 151.260488 43.243743 
L 154.786206 46.480819 
L 163.164488 53.263626 
L 164.652519 55.351219 
L 165.544203 56.12411 
" style="fill:none;stroke:#20a386;stroke-width:1.5;"/>
    <path clip-path="url(#pceefea4efe)" d="M 180.689067 75.287699 
L 186.972488 80.742501 
L 187.614991 81.962419 
L 194.383122 90.832819 
L 198.876488 94.635098 
L 202.538942 99.703219 
L 210.780488 106.713213 
L 213.301607 108.573619 
L 222.684488 115.823089 
L 224.441474 117.444019 
L 234.588488 125.891992 
L 234.881002 126.314419 
L 238.537025 135.184819 
L 245.773551 144.055219 
L 246.492488 145.423277 
L 247.043003 152.925619 
L 247.784286 161.796019 
L 248.321556 170.666419 
L 247.9263 179.536819 
L 246.699259 188.407219 
L 246.492488 189.409546 
L 240.431939 197.277619 
L 236.146513 206.148019 
L 234.588488 210.337628 
L 230.623505 215.018419 
L 224.694213 223.888819 
L 222.684488 227.851376 
L 218.185943 232.759219 
L 211.85981 241.629619 
L 210.780488 243.189447 
L 202.985752 250.500019 
L 198.876488 255.436909 
L 194.279003 259.370419 
L 186.972488 266.560722 
L 184.847993 268.240819 
L 175.068488 276.308448 
L 173.986113 277.111219 
" style="fill:none;stroke:#20a386;stroke-width:1.5;"/>
   </g>
   <g id="LineCollection_13">
    <path clip-path="url(#pceefea4efe)" d="M 108.979742 10.999219 
L 115.548488 15.791877 
L 121.469511 19.869619 
L 127.452488 24.297507 
L 133.621404 28.740019 
L 139.356488 33.083673 
L 145.016331 37.610419 
L 151.260488 42.490119 
L 155.607029 46.480819 
L 163.164488 52.599113 
L 165.126183 55.351219 
L 165.79036 55.919238 
" style="fill:none;stroke:#29af7f;stroke-width:1.5;"/>
    <path clip-path="url(#pceefea4efe)" d="M 181.043241 75.092049 
L 186.972488 80.239384 
L 187.879971 81.962419 
L 195.540172 90.832819 
L 198.876488 93.656005 
L 203.24648 99.703219 
L 210.780488 106.111404 
L 214.117146 108.573619 
L 222.684488 115.192982 
L 225.124471 117.444019 
L 234.588488 125.323357 
L 235.274759 126.314419 
L 239.345627 135.184819 
L 246.492488 143.49178 
L 246.624775 144.055219 
L 247.293654 152.925619 
L 248.119628 161.796019 
L 248.776047 170.666419 
L 248.408372 179.536819 
L 247.070659 188.407219 
L 246.492488 191.209908 
L 241.818706 197.277619 
L 236.912834 206.148019 
L 234.588488 212.398303 
L 232.369052 215.018419 
L 225.569451 223.888819 
L 222.684488 229.577077 
L 219.767725 232.759219 
L 212.581733 241.629619 
L 210.780488 244.232766 
L 204.098167 250.500019 
L 198.876488 256.773371 
L 195.841059 259.370419 
L 186.972488 268.097934 
L 186.791808 268.240819 
L 175.422714 277.111219 
" style="fill:none;stroke:#29af7f;stroke-width:1.5;"/>
   </g>
   <g id="LineCollection_14">
    <path clip-path="url(#pceefea4efe)" d="M 109.915084 10.999219 
L 115.548488 15.109437 
L 122.460438 19.869619 
L 127.452488 23.564141 
L 134.639763 28.740019 
L 139.356488 32.312385 
L 145.980682 37.610419 
L 151.260488 41.736496 
L 156.427852 46.480819 
L 163.164488 51.934599 
L 165.599846 55.351219 
L 166.118363 55.794665 
" style="fill:none;stroke:#3dbc74;stroke-width:1.5;"/>
    <path clip-path="url(#pceefea4efe)" d="M 181.496159 74.982122 
L 186.972488 79.736267 
L 188.144952 81.962419 
L 196.697221 90.832819 
L 198.876488 92.676911 
L 203.954018 99.703219 
L 210.780488 105.509595 
L 214.932684 108.573619 
L 222.684488 114.562874 
L 225.807468 117.444019 
L 234.588488 124.754723 
L 235.668516 126.314419 
L 240.154229 135.184819 
L 246.492488 142.551924 
L 246.845441 144.055219 
L 247.544305 152.925619 
L 248.454969 161.796019 
L 249.230539 170.666419 
L 248.890444 179.536819 
L 247.442059 188.407219 
L 246.492488 193.01027 
L 243.205473 197.277619 
L 237.679155 206.148019 
L 234.588488 214.458977 
L 234.114598 215.018419 
L 226.44469 223.888819 
L 222.684488 231.302777 
L 221.349508 232.759219 
L 213.303657 241.629619 
L 210.780488 245.276085 
L 205.210583 250.500019 
L 198.876488 258.109833 
L 197.403116 259.370419 
L 187.521506 268.240819 
L 186.972488 268.737796 
L 176.132046 277.111219 
" style="fill:none;stroke:#3dbc74;stroke-width:1.5;"/>
   </g>
   <g id="LineCollection_15">
    <path clip-path="url(#pceefea4efe)" d="M 110.850426 10.999219 
L 115.548488 14.426997 
L 123.451365 19.869619 
L 127.452488 22.830775 
L 135.658123 28.740019 
L 139.356488 31.541096 
L 146.945033 37.610419 
L 151.260488 40.982872 
L 157.248674 46.480819 
L 163.164488 51.270086 
L 166.07351 55.351219 
L 166.446365 55.670092 
" style="fill:none;stroke:#56c667;stroke-width:1.5;"/>
    <path clip-path="url(#pceefea4efe)" d="M 181.937068 74.86177 
L 186.972488 79.23315 
L 188.409932 81.962419 
L 197.854271 90.832819 
L 198.876488 91.697817 
L 204.661555 99.703219 
L 210.780488 104.907786 
L 215.748223 108.573619 
L 222.684488 113.932767 
L 226.490466 117.444019 
L 234.588488 124.186088 
L 236.062273 126.314419 
L 240.962831 135.184819 
L 246.492488 141.612067 
L 247.066106 144.055219 
L 247.794956 152.925619 
L 248.790311 161.796019 
L 249.685031 170.666419 
L 249.372515 179.536819 
L 247.813459 188.407219 
L 246.492488 194.810632 
L 244.592239 197.277619 
L 238.445475 206.148019 
L 234.911834 215.018419 
L 234.588488 215.733806 
L 227.319928 223.888819 
L 222.752585 232.759219 
L 222.684488 232.873129 
L 214.025581 241.629619 
L 210.780488 246.319404 
L 206.322999 250.500019 
L 198.903266 259.370419 
L 198.876488 259.398685 
L 188.126785 268.240819 
L 186.972488 269.285701 
L 176.841378 277.111219 
" style="fill:none;stroke:#56c667;stroke-width:1.5;"/>
   </g>
   <g id="LineCollection_16">
    <path clip-path="url(#pceefea4efe)" d="M 111.785767 10.999219 
L 115.548488 13.744558 
L 124.442292 19.869619 
L 127.452488 22.097408 
L 136.676483 28.740019 
L 139.356488 30.769808 
L 147.909384 37.610419 
L 151.260488 40.229248 
L 158.069497 46.480819 
L 163.164488 50.605572 
L 166.547174 55.351219 
L 166.774367 55.545519 
" style="fill:none;stroke:#75d054;stroke-width:1.5;"/>
    <path clip-path="url(#pceefea4efe)" d="M 182.366624 74.731561 
L 186.972488 78.730033 
L 188.674913 81.962419 
L 198.876488 90.80605 
L 198.896457 90.832819 
L 205.369093 99.703219 
L 210.780488 104.305977 
L 216.563761 108.573619 
L 222.684488 113.30266 
L 227.173463 117.444019 
L 234.588488 123.617454 
L 236.45603 126.314419 
L 241.771432 135.184819 
L 246.492488 140.672211 
L 247.286772 144.055219 
L 248.045607 152.925619 
L 249.125652 161.796019 
L 250.139523 170.666419 
L 249.854587 179.536819 
L 248.184859 188.407219 
L 246.492488 196.610995 
L 245.979006 197.277619 
L 239.211796 206.148019 
L 235.355677 215.018419 
L 234.588488 216.715787 
L 228.195167 223.888819 
L 223.189025 232.759219 
L 222.684488 233.603188 
L 214.747505 241.629619 
L 210.780488 247.362723 
L 207.435415 250.500019 
L 199.374941 259.370419 
L 198.876488 259.896556 
L 188.732065 268.240819 
L 186.972488 269.833607 
L 177.55071 277.111219 
" style="fill:none;stroke:#75d054;stroke-width:1.5;"/>
   </g>
   <g id="LineCollection_17">
    <path clip-path="url(#pceefea4efe)" d="M 112.721109 10.999219 
L 115.548488 13.062118 
L 125.433219 19.869619 
L 127.452488 21.364042 
L 137.694843 28.740019 
L 139.356488 29.99852 
L 148.873735 37.610419 
L 151.260488 39.475625 
L 158.890319 46.480819 
L 163.164488 49.941058 
L 167.020838 55.351219 
L 167.10237 55.420947 
" style="fill:none;stroke:#95d840;stroke-width:1.5;"/>
    <path clip-path="url(#pceefea4efe)" d="M 182.785481 74.592065 
L 186.972488 78.226916 
L 188.939894 81.962419 
L 198.876488 90.576342 
L 199.067827 90.832819 
L 206.076631 99.703219 
L 210.780488 103.704168 
L 217.3793 108.573619 
L 222.684488 112.672552 
L 227.85646 117.444019 
L 234.588488 123.048819 
L 236.849787 126.314419 
L 242.580034 135.184819 
L 246.492488 139.732354 
L 247.507438 144.055219 
L 248.296257 152.925619 
L 249.460994 161.796019 
L 250.594014 170.666419 
L 250.336659 179.536819 
L 248.556259 188.407219 
L 246.653699 197.277619 
L 246.492488 197.889403 
L 239.978116 206.148019 
L 235.79952 215.018419 
L 234.588488 217.697767 
L 229.070406 223.888819 
L 223.625465 232.759219 
L 222.684488 234.333248 
L 215.469429 241.629619 
L 210.780488 248.406042 
L 208.547831 250.500019 
L 199.846615 259.370419 
L 198.876488 260.394426 
L 189.337344 268.240819 
L 186.972488 270.381512 
L 178.260042 277.111219 
" style="fill:none;stroke:#95d840;stroke-width:1.5;"/>
   </g>
   <g id="LineCollection_18">
    <path clip-path="url(#pceefea4efe)" d="M 113.656451 10.999219 
L 115.548488 12.379678 
L 126.424145 19.869619 
L 127.452488 20.630676 
L 138.713203 28.740019 
L 139.356488 29.227231 
L 149.838086 37.610419 
L 151.260488 38.722001 
L 159.711142 46.480819 
L 163.164488 49.276545 
L 167.445523 55.282505 
" style="fill:none;stroke:#bade28;stroke-width:1.5;"/>
    <path clip-path="url(#pceefea4efe)" d="M 183.194289 74.443845 
L 186.972488 77.723798 
L 189.204874 81.962419 
L 198.876488 90.346633 
L 199.239197 90.832819 
L 206.784169 99.703219 
L 210.780488 103.102359 
L 218.194838 108.573619 
L 222.684488 112.042445 
L 228.539457 117.444019 
L 234.588488 122.480185 
L 237.243545 126.314419 
L 243.388636 135.184819 
L 246.492488 138.792498 
L 247.728103 144.055219 
L 248.546908 152.925619 
L 249.796336 161.796019 
L 251.048506 170.666419 
L 250.81873 179.536819 
L 248.927659 188.407219 
L 246.909701 197.277619 
L 246.492488 198.860908 
L 240.744437 206.148019 
L 236.243363 215.018419 
L 234.588488 218.679747 
L 229.945644 223.888819 
L 224.061905 232.759219 
L 222.684488 235.063308 
L 216.191352 241.629619 
L 210.780488 249.449361 
L 209.660247 250.500019 
L 200.31829 259.370419 
L 198.876488 260.892297 
L 189.942624 268.240819 
L 186.972488 270.929418 
L 178.969375 277.111219 
" style="fill:none;stroke:#bade28;stroke-width:1.5;"/>
   </g>
   <g id="LineCollection_19">
    <path clip-path="url(#pceefea4efe)" d="M 114.591793 10.999219 
L 115.548488 11.697238 
L 127.415072 19.869619 
L 127.452488 19.897309 
L 139.356488 28.690453 
L 139.422516 28.740019 
L 150.802437 37.610419 
L 151.260488 37.968377 
L 160.531964 46.480819 
L 163.164488 48.612031 
L 167.807937 55.12643 
" style="fill:none;stroke:#dde318;stroke-width:1.5;"/>
    <path clip-path="url(#pceefea4efe)" d="M 183.593679 74.287449 
L 186.972488 77.220681 
L 189.469855 81.962419 
L 198.876488 90.116924 
L 199.410567 90.832819 
L 207.491706 99.703219 
L 210.780488 102.50055 
L 219.010376 108.573619 
L 222.684488 111.412338 
L 229.222454 117.444019 
L 234.588488 121.911551 
L 237.637302 126.314419 
L 244.197238 135.184819 
L 246.492488 137.852641 
L 247.948769 144.055219 
L 248.797559 152.925619 
L 250.131677 161.796019 
L 251.502998 170.666419 
L 251.300802 179.536819 
L 249.299059 188.407219 
L 247.165704 197.277619 
L 246.492488 199.832414 
L 241.510758 206.148019 
L 236.687206 215.018419 
L 234.588488 219.661727 
L 230.820883 223.888819 
L 224.498345 232.759219 
L 222.684488 235.793368 
L 216.913276 241.629619 
L 210.780488 250.49268 
L 210.772663 250.500019 
L 200.789964 259.370419 
L 198.876488 261.390168 
L 190.547903 268.240819 
L 186.972488 271.477323 
L 179.678707 277.111219 
" style="fill:none;stroke:#dde318;stroke-width:1.5;"/>
   </g>
   <g id="LineCollection_20">
    <path clip-path="url(#pceefea4efe)" d="M 115.527135 10.999219 
L 115.548488 11.014798 
L 127.452488 19.741971 
L 127.627344 19.869619 
L 139.356488 28.555878 
L 139.601787 28.740019 
L 151.260488 37.539382 
L 151.347844 37.610419 
L 161.352787 46.480819 
L 163.164488 47.947518 
L 168.170351 54.970356 
" style="fill:none;stroke:#fde725;stroke-width:1.5;"/>
    <path clip-path="url(#pceefea4efe)" d="M 183.984264 74.123409 
L 186.972488 76.717564 
L 189.734835 81.962419 
L 198.876488 89.887216 
L 199.581936 90.832819 
L 208.199244 99.703219 
L 210.780488 101.898742 
L 219.825915 108.573619 
L 222.684488 110.78223 
L 229.905451 117.444019 
L 234.588488 121.342916 
L 238.031059 126.314419 
L 245.005839 135.184819 
L 246.492488 136.912784 
L 248.169434 144.055219 
L 249.04821 152.925619 
L 250.467019 161.796019 
L 251.95749 170.666419 
L 251.782874 179.536819 
L 249.670459 188.407219 
L 247.421706 197.277619 
L 246.492488 200.803919 
L 242.277078 206.148019 
L 237.131049 215.018419 
L 234.588488 220.643708 
L 231.696121 223.888819 
L 224.934786 232.759219 
L 222.684488 236.523427 
L 217.6352 241.629619 
L 211.111237 250.500019 
L 210.780488 250.916002 
L 201.261639 259.370419 
L 198.876488 261.888039 
L 191.153183 268.240819 
L 186.972488 272.025229 
L 180.388039 277.111219 
" style="fill:none;stroke:#fde725;stroke-width:1.5;"/>
   </g>
   <g id="LineCollection_21">
    <path clip-path="url(#pceefea4efe)" d="M 115.725049 10.999219 
L 127.452488 19.609313 
L 127.809062 19.869619 
L 139.356488 28.421303 
L 139.781058 28.740019 
L 151.260488 37.404077 
L 151.514233 37.610419 
L 162.17361 46.480819 
L 163.164488 47.283004 
L 168.915493 55.351219 
L 175.068488 60.613389 
L 176.394994 64.221619 
L 181.433525 70.624053 
" style="fill:none;stroke:#440154;stroke-width:1.5;"/>
    <path clip-path="url(#pceefea4efe)" d="M 200.604931 91.658107 
L 208.906782 99.703219 
L 210.780488 101.296933 
L 220.641453 108.573619 
L 222.684488 110.152123 
L 230.588448 117.444019 
L 234.588488 120.774282 
L 238.424816 126.314419 
L 245.814441 135.184819 
L 246.492488 135.972928 
L 248.3901 144.055219 
L 249.298861 152.925619 
L 250.80236 161.796019 
L 252.411981 170.666419 
L 252.264945 179.536819 
L 250.041859 188.407219 
L 247.677708 197.277619 
L 246.492488 201.775425 
L 243.043399 206.148019 
L 237.574892 215.018419 
L 234.588488 221.625688 
L 232.57136 223.888819 
L 225.371226 232.759219 
L 222.684488 237.253487 
L 218.357124 241.629619 
L 211.44433 250.500019 
L 210.780488 251.334932 
L 201.733313 259.370419 
L 198.876488 262.385909 
L 191.758462 268.240819 
L 186.972488 272.573134 
L 181.097371 277.111219 
" style="fill:none;stroke:#440154;stroke-width:1.5;"/>
   </g>
   <g id="LineCollection_22">
    <path clip-path="url(#pceefea4efe)" d="M 131.391269 10.999219 
L 139.356488 16.911493 
L 143.232083 19.869619 
L 151.260488 25.860246 
L 154.931495 28.740019 
L 163.164488 34.974136 
L 165.972777 37.610419 
L 175.068488 44.978815 
L 175.988376 46.480819 
L 182.101461 55.351219 
L 186.972488 59.918639 
L 189.157955 64.221619 
L 198.876488 73.042638 
L 198.912323 73.092019 
L 205.561885 81.962419 
L 210.30012 85.966696 
" style="fill:none;stroke:#440154;stroke-width:1.5;"/>
    <path clip-path="url(#pceefea4efe)" d="M 236.574414 104.567906 
L 241.713438 108.573619 
L 246.492488 112.618899 
L 250.216526 117.444019 
L 258.396488 125.63679 
L 258.78553 126.314419 
L 262.683029 135.184819 
L 264.133644 144.055219 
L 264.888728 152.925619 
L 266.834555 161.796019 
L 269.236015 170.666419 
L 270.300488 175.869595 
L 270.482017 179.536819 
L 270.365656 188.407219 
L 270.300488 189.069329 
L 267.323944 197.277619 
L 263.563772 206.148019 
L 260.397542 215.018419 
L 258.396488 221.490375 
L 256.733893 223.888819 
L 249.692071 232.759219 
L 246.492488 237.885922 
L 242.920891 241.629619 
L 235.59834 250.500019 
L 234.588488 251.826824 
L 226.522409 259.370419 
L 222.684488 264.052998 
L 217.917074 268.240819 
L 210.780488 275.874612 
L 209.29787 277.111219 
" style="fill:none;stroke:#440154;stroke-width:1.5;"/>
   </g>
   <g id="LineCollection_23">
    <path clip-path="url(#pceefea4efe)" d="M 151.626687 10.999219 
L 163.164488 19.700771 
L 163.361471 19.869619 
L 173.88176 28.740019 
L 175.068488 29.676987 
L 180.983608 37.610419 
L 186.972488 43.025051 
L 188.988379 46.480819 
L 197.66208 55.351219 
L 198.876488 56.477716 
L 204.208083 64.221619 
L 210.780488 69.922431 
L 213.718481 73.092019 
L 222.684488 80.386039 
L 224.701507 81.962419 
L 234.588488 88.973162 
L 239.577885 90.832819 
L 243.66734 93.369654 
" style="fill:none;stroke:#440154;stroke-width:1.5;"/>
    <path clip-path="url(#pceefea4efe)" d="M 270.75053 116.702931 
L 271.302106 117.444019 
L 277.869488 126.314419 
L 282.204488 131.335471 
L 283.7359 135.184819 
L 283.345995 144.055219 
L 283.499433 152.925619 
L 284.148901 161.796019 
L 284.810962 170.666419 
L 285.553364 179.536819 
L 286.180704 188.407219 
L 286.332297 197.277619 
L 285.554822 206.148019 
L 283.974172 215.018419 
L 282.204488 223.206747 
L 281.840544 223.888819 
L 276.174656 232.759219 
L 270.300488 241.560957 
L 270.234139 241.629619 
L 261.118323 250.500019 
L 258.396488 253.829496 
L 252.553513 259.370419 
L 246.492488 266.661345 
L 244.800554 268.240819 
L 235.947744 277.111219 
" style="fill:none;stroke:#440154;stroke-width:1.5;"/>
   </g>
   <g id="LineCollection_24">
    <path clip-path="url(#pceefea4efe)" d="M 171.913804 10.999219 
L 175.068488 13.451135 
L 180.946258 19.869619 
L 186.972488 25.023907 
L 189.54038 28.740019 
L 198.876488 37.346566 
L 199.048548 37.610419 
L 205.123971 46.480819 
L 210.780488 51.605788 
L 213.761976 55.351219 
L 222.684488 62.899225 
L 224.042823 64.221619 
L 234.588488 72.470658 
L 235.536441 73.092019 
L 246.492488 80.34024 
L 251.721 81.962419 
L 258.396488 85.827583 
L 266.581037 90.832819 
L 270.300488 93.790815 
L 275.345516 99.703219 
L 279.699875 103.927593 
" style="fill:none;stroke:#440154;stroke-width:1.5;"/>
    <path clip-path="url(#pceefea4efe)" d="M 301.704779 135.622681 
L 300.224841 144.055219 
L 300.296342 152.925619 
L 301.207105 161.796019 
L 301.909037 170.666419 
L 302.859666 179.536819 
L 303.963338 188.407219 
L 304.983307 197.277619 
L 305.658363 206.148019 
L 305.684333 215.018419 
L 304.704998 223.888819 
L 302.684105 232.759219 
L 298.020633 241.629619 
L 294.108488 248.046831 
L 291.668012 250.500019 
L 283.561149 259.370419 
L 282.204488 261.026758 
L 274.494967 268.240819 
L 270.300488 273.045046 
L 265.874565 277.111219 
" style="fill:none;stroke:#440154;stroke-width:1.5;"/>
   </g>
   <g id="LineCollection_25">
    <path clip-path="url(#pceefea4efe)" d="M 190.860968 10.999219 
L 198.876488 18.128656 
L 200.085663 19.869619 
L 207.990764 28.740019 
L 210.780488 31.307418 
L 215.419858 37.610419 
L 222.684488 44.023621 
L 224.865881 46.480819 
L 234.588488 54.563084 
L 235.469551 55.351219 
L 246.492488 63.730916 
L 247.370955 64.221619 
L 258.396488 70.993184 
L 265.842342 73.092019 
L 270.300488 75.576305 
L 281.154831 81.962419 
L 282.204488 82.786239 
L 289.311117 90.832819 
L 294.108488 95.435115 
L 296.369282 99.703219 
L 297.165116 100.496768 
" style="fill:none;stroke:#440154;stroke-width:1.5;"/>
    <path clip-path="url(#pceefea4efe)" d="M 318.50519 136.681732 
L 318.177914 144.055219 
L 318.246686 152.925619 
L 318.553586 161.796019 
L 318.770679 170.666419 
L 319.070929 179.536819 
L 319.499928 188.407219 
L 319.945256 197.277619 
L 320.384634 206.148019 
L 320.781814 215.018419 
L 321.098565 223.888819 
L 321.243993 232.759219 
L 320.830165 241.629619 
L 318.584405 250.500019 
L 317.916488 252.464384 
L 312.217839 259.370419 
L 306.560463 268.240819 
L 306.012488 269.042433 
L 297.544374 277.111219 
" style="fill:none;stroke:#440154;stroke-width:1.5;"/>
   </g>
   <g id="LineCollection_26">
    <path clip-path="url(#pceefea4efe)" d="M 211.330321 10.999219 
L 218.718983 19.869619 
L 222.684488 23.443848 
L 227.002873 28.740019 
L 234.588488 35.284286 
L 236.861865 37.610419 
L 246.492488 45.412459 
L 247.873096 46.480819 
L 258.396488 54.148044 
L 260.877702 55.351219 
L 270.300488 60.770118 
L 282.204488 64.080711 
L 282.553911 64.221619 
L 294.108488 72.354496 
L 294.68864 73.092019 
L 301.855579 81.962419 
L 306.012488 86.095711 
L 307.898141 90.832819 
L 314.025747 99.703219 
L 316.530438 102.223516 
" style="fill:none;stroke:#450457;stroke-width:1.5;"/>
    <path clip-path="url(#pceefea4efe)" d="M 332.045214 144.385279 
L 332.396057 152.925619 
L 333.13464 161.796019 
L 333.725201 170.666419 
L 334.454386 179.536819 
L 335.537856 188.407219 
L 336.759223 197.277619 
L 337.98867 206.148019 
L 339.181999 215.018419 
L 340.293767 223.888819 
L 341.164166 232.759219 
L 341.724488 240.972785 
L 341.735239 241.629619 
L 341.724488 241.753482 
L 338.884609 250.500019 
L 335.144023 259.370419 
L 331.485437 268.240819 
L 329.820488 271.978469 
L 325.282333 277.111219 
" style="fill:none;stroke:#450457;stroke-width:1.5;"/>
   </g>
   <g id="LineCollection_27">
    <path clip-path="url(#pceefea4efe)" d="M 230.441774 10.999219 
L 234.588488 14.613319 
L 239.43555 19.869619 
L 246.492488 25.777426 
L 249.797349 28.740019 
L 258.396488 35.401312 
L 261.705684 37.610419 
L 270.300488 43.580611 
L 276.571383 46.480819 
L 282.204488 49.656833 
L 294.108488 54.417635 
L 295.687103 55.351219 
L 306.012488 63.793327 
L 306.261227 64.221619 
L 311.085802 73.092019 
L 317.916488 80.083087 
L 318.637677 81.962419 
L 322.890801 90.832819 
L 327.088036 95.273073 
" style="fill:none;stroke:#482475;stroke-width:1.5;"/>
    <path clip-path="url(#pceefea4efe)" d="M 347.54966 139.635634 
L 347.359796 144.055219 
L 348.381263 152.925619 
L 350.005088 161.796019 
L 351.511915 170.666419 
L 353.289158 179.536819 
L 353.628488 180.875069 
L 354.087688 188.407219 
L 354.778625 197.277619 
L 355.5508 206.148019 
L 356.359295 215.018419 
L 357.120164 223.888819 
L 357.755881 232.759219 
L 358.250835 241.629619 
L 357.996571 250.500019 
L 356.274448 259.370419 
L 354.354512 268.240819 
L 353.628488 270.655306 
L 349.071949 277.111219 
" style="fill:none;stroke:#482475;stroke-width:1.5;"/>
   </g>
   <g id="LineCollection_28">
    <path clip-path="url(#pceefea4efe)" d="M 252.085818 10.999219 
L 258.396488 16.072235 
L 263.200188 19.869619 
L 270.300488 25.086635 
L 276.166794 28.740019 
L 282.204488 32.855442 
L 290.869356 37.610419 
L 294.108488 39.621759 
L 306.012488 46.13464 
L 306.500356 46.480819 
L 315.000572 55.351219 
L 317.916488 58.139499 
L 320.700009 64.221619 
L 328.021758 73.092019 
L 329.820488 74.985891 
L 332.495682 81.962419 
L 339.558671 90.832819 
L 341.724488 93.077426 
L 342.64034 95.231773 
" style="fill:none;stroke:#fde725;stroke-width:1.5;"/>
    <path clip-path="url(#pceefea4efe)" d="M 365.599024 142.032729 
L 365.589071 144.055219 
L 366.055609 152.925619 
L 366.740061 161.796019 
L 367.474465 170.666419 
L 368.354432 179.536819 
L 369.625277 188.407219 
L 371.381448 197.277619 
L 373.481933 206.148019 
L 375.722442 215.018419 
L 377.436488 222.157734 
L 377.546962 223.888819 
L 377.991617 232.759219 
L 378.337159 241.629619 
L 378.681195 250.500019 
L 377.943666 259.370419 
L 377.436488 263.302358 
L 375.492078 268.240819 
L 370.729753 277.111219 
" style="fill:none;stroke:#fde725;stroke-width:1.5;"/>
   </g>
   <g id="line2d_20">
    <path clip-path="url(#pceefea4efe)" d="M 427.710987 191.527239 
L 420.732695 190.913073 
L 406.585009 189.491488 
L 392.660303 187.701155 
L 378.997113 185.75293 
L 365.584951 183.46276 
L 352.363618 180.825431 
L 339.449567 178.121849 
L 326.752751 175.246005 
L 314.264482 172.178773 
L 302.014789 169.049301 
L 289.955487 165.443406 
L 278.127719 161.779815 
L 266.511657 158.059774 
L 254.972906 153.521971 
L 243.816249 149.912178 
L 242.749128 149.824154 
L 241.66872 149.68954 
L 240.579603 149.505495 
L 239.499779 149.307705 
L 238.420705 149.094088 
L 237.341342 148.868117 
L 236.265089 148.636942 
L 235.189156 148.418123 
L 234.120772 148.181129 
L 233.054466 147.949863 
L 231.989814 147.71998 
L 230.930351 147.471979 
L 229.867207 147.240663 
L 228.805033 147.009412 
L 227.748911 146.769771 
L 226.693386 146.531884 
L 225.642247 146.318072 
L 224.592969 146.072347 
L 223.54938 145.841183 
L 222.504253 145.589784 
L 221.466158 145.356148 
L 220.424474 145.090488 
L 219.384679 144.874576 
L 218.349473 144.598694 
L 217.317166 144.371261 
L 217.215615 144.357492 
L 217.112618 144.342967 
L 217.008964 144.327851 
L 216.905504 144.31233 
L 216.802571 144.299424 
L 216.698301 144.285302 
L 216.595521 144.27188 
L 216.492765 144.259398 
L 216.389518 144.249307 
L 216.285988 144.23828 
L 216.183113 144.224133 
L 216.080565 144.208635 
L 215.977812 144.194933 
L 215.874398 144.181011 
L 215.771774 144.17045 
L 215.669235 144.156072 
L 215.567324 144.142423 
L 215.464544 144.132236 
L 215.361945 144.122923 
L 215.258928 144.112418 
L 215.156497 144.097406 
L 215.0543 144.084806 
L 214.952667 144.073903 
L 214.850478 144.065578 
" style="fill:none;stroke:#1f77b4;stroke-linecap:square;stroke-width:1.5;"/>
    <defs>
     <path d="M 0 1.5 
C 0.397805 1.5 0.77937 1.341951 1.06066 1.06066 
C 1.341951 0.77937 1.5 0.397805 1.5 0 
C 1.5 -0.397805 1.341951 -0.77937 1.06066 -1.06066 
C 0.77937 -1.341951 0.397805 -1.5 0 -1.5 
C -0.397805 -1.5 -0.77937 -1.341951 -1.06066 -1.06066 
C -1.341951 -0.77937 -1.5 -0.397805 -1.5 0 
C -1.5 0.397805 -1.341951 0.77937 -1.06066 1.06066 
C -0.77937 1.341951 -0.397805 1.5 0 1.5 
z
" id="m0819ea7936" style="stroke:#1f77b4;"/>
    </defs>
    <g clip-path="url(#pceefea4efe)">
     <use style="fill:#1f77b4;stroke:#1f77b4;" x="1107.082277" xlink:href="#m0819ea7936" y="113.520392"/>
     <use style="fill:#1f77b4;stroke:#1f77b4;" x="1083.816413" xlink:href="#m0819ea7936" y="116.365699"/>
     <use style="fill:#1f77b4;stroke:#1f77b4;" x="1058.575511" xlink:href="#m0819ea7936" y="119.283105"/>
     <use style="fill:#1f77b4;stroke:#1f77b4;" x="1033.671552" xlink:href="#m0819ea7936" y="122.33342"/>
     <use style="fill:#1f77b4;stroke:#1f77b4;" x="1009.162661" xlink:href="#m0819ea7936" y="125.618575"/>
     <use style="fill:#1f77b4;stroke:#1f77b4;" x="985.046296" xlink:href="#m0819ea7936" y="129.07097"/>
     <use style="fill:#1f77b4;stroke:#1f77b4;" x="961.325423" xlink:href="#m0819ea7936" y="132.559212"/>
     <use style="fill:#1f77b4;stroke:#1f77b4;" x="937.976913" xlink:href="#m0819ea7936" y="136.379482"/>
     <use style="fill:#1f77b4;stroke:#1f77b4;" x="915.010515" xlink:href="#m0819ea7936" y="140.071568"/>
     <use style="fill:#1f77b4;stroke:#1f77b4;" x="892.418599" xlink:href="#m0819ea7936" y="143.745258"/>
     <use style="fill:#1f77b4;stroke:#1f77b4;" x="870.167441" xlink:href="#m0819ea7936" y="147.722155"/>
     <use style="fill:#1f77b4;stroke:#1f77b4;" x="848.262792" xlink:href="#m0819ea7936" y="151.557999"/>
     <use style="fill:#1f77b4;stroke:#1f77b4;" x="826.737409" xlink:href="#m0819ea7936" y="155.258235"/>
     <use style="fill:#1f77b4;stroke:#1f77b4;" x="805.57555" xlink:href="#m0819ea7936" y="158.817917"/>
     <use style="fill:#1f77b4;stroke:#1f77b4;" x="784.714972" xlink:href="#m0819ea7936" y="162.488907"/>
     <use style="fill:#1f77b4;stroke:#1f77b4;" x="764.22046" xlink:href="#m0819ea7936" y="166.017681"/>
     <use style="fill:#1f77b4;stroke:#1f77b4;" x="744.078271" xlink:href="#m0819ea7936" y="169.292672"/>
     <use style="fill:#1f77b4;stroke:#1f77b4;" x="724.267939" xlink:href="#m0819ea7936" y="172.425781"/>
     <use style="fill:#1f77b4;stroke:#1f77b4;" x="704.781684" xlink:href="#m0819ea7936" y="175.455913"/>
     <use style="fill:#1f77b4;stroke:#1f77b4;" x="685.670154" xlink:href="#m0819ea7936" y="178.193943"/>
     <use style="fill:#1f77b4;stroke:#1f77b4;" x="666.849006" xlink:href="#m0819ea7936" y="180.856361"/>
     <use style="fill:#1f77b4;stroke:#1f77b4;" x="648.360321" xlink:href="#m0819ea7936" y="183.184057"/>
     <use style="fill:#1f77b4;stroke:#1f77b4;" x="630.199074" xlink:href="#m0819ea7936" y="185.351053"/>
     <use style="fill:#1f77b4;stroke:#1f77b4;" x="612.342984" xlink:href="#m0819ea7936" y="187.287665"/>
     <use style="fill:#1f77b4;stroke:#1f77b4;" x="594.778365" xlink:href="#m0819ea7936" y="189.019491"/>
     <use style="fill:#1f77b4;stroke:#1f77b4;" x="577.514302" xlink:href="#m0819ea7936" y="190.593242"/>
     <use style="fill:#1f77b4;stroke:#1f77b4;" x="560.598655" xlink:href="#m0819ea7936" y="191.688289"/>
     <use style="fill:#1f77b4;stroke:#1f77b4;" x="543.920746" xlink:href="#m0819ea7936" y="192.584991"/>
     <use style="fill:#1f77b4;stroke:#1f77b4;" x="527.500888" xlink:href="#m0819ea7936" y="193.298943"/>
     <use style="fill:#1f77b4;stroke:#1f77b4;" x="511.435592" xlink:href="#m0819ea7936" y="193.831962"/>
     <use style="fill:#1f77b4;stroke:#1f77b4;" x="495.593654" xlink:href="#m0819ea7936" y="194.016641"/>
     <use style="fill:#1f77b4;stroke:#1f77b4;" x="480.085873" xlink:href="#m0819ea7936" y="193.842558"/>
     <use style="fill:#1f77b4;stroke:#1f77b4;" x="464.842683" xlink:href="#m0819ea7936" y="193.676713"/>
     <use style="fill:#1f77b4;stroke:#1f77b4;" x="449.863583" xlink:href="#m0819ea7936" y="193.214042"/>
     <use style="fill:#1f77b4;stroke:#1f77b4;" x="435.193166" xlink:href="#m0819ea7936" y="192.185753"/>
     <use style="fill:#1f77b4;stroke:#1f77b4;" x="420.732695" xlink:href="#m0819ea7936" y="190.913073"/>
     <use style="fill:#1f77b4;stroke:#1f77b4;" x="406.585009" xlink:href="#m0819ea7936" y="189.491488"/>
     <use style="fill:#1f77b4;stroke:#1f77b4;" x="392.660303" xlink:href="#m0819ea7936" y="187.701155"/>
     <use style="fill:#1f77b4;stroke:#1f77b4;" x="378.997113" xlink:href="#m0819ea7936" y="185.75293"/>
     <use style="fill:#1f77b4;stroke:#1f77b4;" x="365.584951" xlink:href="#m0819ea7936" y="183.46276"/>
     <use style="fill:#1f77b4;stroke:#1f77b4;" x="352.363618" xlink:href="#m0819ea7936" y="180.825431"/>
     <use style="fill:#1f77b4;stroke:#1f77b4;" x="339.449567" xlink:href="#m0819ea7936" y="178.121849"/>
     <use style="fill:#1f77b4;stroke:#1f77b4;" x="326.752751" xlink:href="#m0819ea7936" y="175.246005"/>
     <use style="fill:#1f77b4;stroke:#1f77b4;" x="314.264482" xlink:href="#m0819ea7936" y="172.178773"/>
     <use style="fill:#1f77b4;stroke:#1f77b4;" x="302.014789" xlink:href="#m0819ea7936" y="169.049301"/>
     <use style="fill:#1f77b4;stroke:#1f77b4;" x="289.955487" xlink:href="#m0819ea7936" y="165.443406"/>
     <use style="fill:#1f77b4;stroke:#1f77b4;" x="278.127719" xlink:href="#m0819ea7936" y="161.779815"/>
     <use style="fill:#1f77b4;stroke:#1f77b4;" x="266.511657" xlink:href="#m0819ea7936" y="158.059774"/>
     <use style="fill:#1f77b4;stroke:#1f77b4;" x="254.972906" xlink:href="#m0819ea7936" y="153.521971"/>
     <use style="fill:#1f77b4;stroke:#1f77b4;" x="243.816249" xlink:href="#m0819ea7936" y="149.912178"/>
     <use style="fill:#1f77b4;stroke:#1f77b4;" x="242.749128" xlink:href="#m0819ea7936" y="149.824154"/>
     <use style="fill:#1f77b4;stroke:#1f77b4;" x="241.66872" xlink:href="#m0819ea7936" y="149.68954"/>
     <use style="fill:#1f77b4;stroke:#1f77b4;" x="240.579603" xlink:href="#m0819ea7936" y="149.505495"/>
     <use style="fill:#1f77b4;stroke:#1f77b4;" x="239.499779" xlink:href="#m0819ea7936" y="149.307705"/>
     <use style="fill:#1f77b4;stroke:#1f77b4;" x="238.420705" xlink:href="#m0819ea7936" y="149.094088"/>
     <use style="fill:#1f77b4;stroke:#1f77b4;" x="237.341342" xlink:href="#m0819ea7936" y="148.868117"/>
     <use style="fill:#1f77b4;stroke:#1f77b4;" x="236.265089" xlink:href="#m0819ea7936" y="148.636942"/>
     <use style="fill:#1f77b4;stroke:#1f77b4;" x="235.189156" xlink:href="#m0819ea7936" y="148.418123"/>
     <use style="fill:#1f77b4;stroke:#1f77b4;" x="234.120772" xlink:href="#m0819ea7936" y="148.181129"/>
     <use style="fill:#1f77b4;stroke:#1f77b4;" x="233.054466" xlink:href="#m0819ea7936" y="147.949863"/>
     <use style="fill:#1f77b4;stroke:#1f77b4;" x="231.989814" xlink:href="#m0819ea7936" y="147.71998"/>
     <use style="fill:#1f77b4;stroke:#1f77b4;" x="230.930351" xlink:href="#m0819ea7936" y="147.471979"/>
     <use style="fill:#1f77b4;stroke:#1f77b4;" x="229.867207" xlink:href="#m0819ea7936" y="147.240663"/>
     <use style="fill:#1f77b4;stroke:#1f77b4;" x="228.805033" xlink:href="#m0819ea7936" y="147.009412"/>
     <use style="fill:#1f77b4;stroke:#1f77b4;" x="227.748911" xlink:href="#m0819ea7936" y="146.769771"/>
     <use style="fill:#1f77b4;stroke:#1f77b4;" x="226.693386" xlink:href="#m0819ea7936" y="146.531884"/>
     <use style="fill:#1f77b4;stroke:#1f77b4;" x="225.642247" xlink:href="#m0819ea7936" y="146.318072"/>
     <use style="fill:#1f77b4;stroke:#1f77b4;" x="224.592969" xlink:href="#m0819ea7936" y="146.072347"/>
     <use style="fill:#1f77b4;stroke:#1f77b4;" x="223.54938" xlink:href="#m0819ea7936" y="145.841183"/>
     <use style="fill:#1f77b4;stroke:#1f77b4;" x="222.504253" xlink:href="#m0819ea7936" y="145.589784"/>
     <use style="fill:#1f77b4;stroke:#1f77b4;" x="221.466158" xlink:href="#m0819ea7936" y="145.356148"/>
     <use style="fill:#1f77b4;stroke:#1f77b4;" x="220.424474" xlink:href="#m0819ea7936" y="145.090488"/>
     <use style="fill:#1f77b4;stroke:#1f77b4;" x="219.384679" xlink:href="#m0819ea7936" y="144.874576"/>
     <use style="fill:#1f77b4;stroke:#1f77b4;" x="218.349473" xlink:href="#m0819ea7936" y="144.598694"/>
     <use style="fill:#1f77b4;stroke:#1f77b4;" x="217.317166" xlink:href="#m0819ea7936" y="144.371261"/>
     <use style="fill:#1f77b4;stroke:#1f77b4;" x="217.215615" xlink:href="#m0819ea7936" y="144.357492"/>
     <use style="fill:#1f77b4;stroke:#1f77b4;" x="217.112618" xlink:href="#m0819ea7936" y="144.342967"/>
     <use style="fill:#1f77b4;stroke:#1f77b4;" x="217.008964" xlink:href="#m0819ea7936" y="144.327851"/>
     <use style="fill:#1f77b4;stroke:#1f77b4;" x="216.905504" xlink:href="#m0819ea7936" y="144.31233"/>
     <use style="fill:#1f77b4;stroke:#1f77b4;" x="216.802571" xlink:href="#m0819ea7936" y="144.299424"/>
     <use style="fill:#1f77b4;stroke:#1f77b4;" x="216.698301" xlink:href="#m0819ea7936" y="144.285302"/>
     <use style="fill:#1f77b4;stroke:#1f77b4;" x="216.595521" xlink:href="#m0819ea7936" y="144.27188"/>
     <use style="fill:#1f77b4;stroke:#1f77b4;" x="216.492765" xlink:href="#m0819ea7936" y="144.259398"/>
     <use style="fill:#1f77b4;stroke:#1f77b4;" x="216.389518" xlink:href="#m0819ea7936" y="144.249307"/>
     <use style="fill:#1f77b4;stroke:#1f77b4;" x="216.285988" xlink:href="#m0819ea7936" y="144.23828"/>
     <use style="fill:#1f77b4;stroke:#1f77b4;" x="216.183113" xlink:href="#m0819ea7936" y="144.224133"/>
     <use style="fill:#1f77b4;stroke:#1f77b4;" x="216.080565" xlink:href="#m0819ea7936" y="144.208635"/>
     <use style="fill:#1f77b4;stroke:#1f77b4;" x="215.977812" xlink:href="#m0819ea7936" y="144.194933"/>
     <use style="fill:#1f77b4;stroke:#1f77b4;" x="215.874398" xlink:href="#m0819ea7936" y="144.181011"/>
     <use style="fill:#1f77b4;stroke:#1f77b4;" x="215.771774" xlink:href="#m0819ea7936" y="144.17045"/>
     <use style="fill:#1f77b4;stroke:#1f77b4;" x="215.669235" xlink:href="#m0819ea7936" y="144.156072"/>
     <use style="fill:#1f77b4;stroke:#1f77b4;" x="215.567324" xlink:href="#m0819ea7936" y="144.142423"/>
     <use style="fill:#1f77b4;stroke:#1f77b4;" x="215.464544" xlink:href="#m0819ea7936" y="144.132236"/>
     <use style="fill:#1f77b4;stroke:#1f77b4;" x="215.361945" xlink:href="#m0819ea7936" y="144.122923"/>
     <use style="fill:#1f77b4;stroke:#1f77b4;" x="215.258928" xlink:href="#m0819ea7936" y="144.112418"/>
     <use style="fill:#1f77b4;stroke:#1f77b4;" x="215.156497" xlink:href="#m0819ea7936" y="144.097406"/>
     <use style="fill:#1f77b4;stroke:#1f77b4;" x="215.0543" xlink:href="#m0819ea7936" y="144.084806"/>
     <use style="fill:#1f77b4;stroke:#1f77b4;" x="214.952667" xlink:href="#m0819ea7936" y="144.073903"/>
     <use style="fill:#1f77b4;stroke:#1f77b4;" x="214.850478" xlink:href="#m0819ea7936" y="144.065578"/>
    </g>
   </g>
   <g id="patch_3">
    <path d="M 56.028488 277.111219 
L 56.028488 10.999219 
" style="fill:none;stroke:#000000;stroke-linecap:square;stroke-linejoin:miter;stroke-width:0.8;"/>
   </g>
   <g id="patch_4">
    <path d="M 413.148488 277.111219 
L 413.148488 10.999219 
" style="fill:none;stroke:#000000;stroke-linecap:square;stroke-linejoin:miter;stroke-width:0.8;"/>
   </g>
   <g id="patch_5">
    <path d="M 56.028488 277.111219 
L 413.148488 277.111219 
" style="fill:none;stroke:#000000;stroke-linecap:square;stroke-linejoin:miter;stroke-width:0.8;"/>
   </g>
   <g id="patch_6">
    <path d="M 56.028488 10.999219 
L 413.148488 10.999219 
" style="fill:none;stroke:#000000;stroke-linecap:square;stroke-linejoin:miter;stroke-width:0.8;"/>
   </g>
   <g id="text_22">
    <g clip-path="url(#pceefea4efe)">
     <!-- 1.500 -->
     <g style="fill:#453781;" transform="translate(205.088803 128.234206)rotate(-296.464822)scale(0.06 -0.06)">
      <use xlink:href="#DejaVuSans-49"/>
      <use x="63.623047" xlink:href="#DejaVuSans-46"/>
      <use x="95.410156" xlink:href="#DejaVuSans-53"/>
      <use x="159.033203" xlink:href="#DejaVuSans-48"/>
      <use x="222.65625" xlink:href="#DejaVuSans-48"/>
     </g>
    </g>
   </g>
   <g id="text_23">
    <g clip-path="url(#pceefea4efe)">
     <!-- 2.000 -->
     <g style="fill:#404688;" transform="translate(173.550251 161.549472)rotate(-88.697481)scale(0.06 -0.06)">
      <use xlink:href="#DejaVuSans-50"/>
      <use x="63.623047" xlink:href="#DejaVuSans-46"/>
      <use x="95.410156" xlink:href="#DejaVuSans-48"/>
      <use x="159.033203" xlink:href="#DejaVuSans-48"/>
      <use x="222.65625" xlink:href="#DejaVuSans-48"/>
     </g>
    </g>
   </g>
   <g id="text_24">
    <g clip-path="url(#pceefea4efe)">
     <!-- 2.500 -->
     <g style="fill:#39558c;" transform="translate(117.657996 223.259161)rotate(-59.507832)scale(0.06 -0.06)">
      <use xlink:href="#DejaVuSans-50"/>
      <use x="63.623047" xlink:href="#DejaVuSans-46"/>
      <use x="95.410156" xlink:href="#DejaVuSans-53"/>
      <use x="159.033203" xlink:href="#DejaVuSans-48"/>
      <use x="222.65625" xlink:href="#DejaVuSans-48"/>
     </g>
    </g>
   </g>
   <g id="text_25">
    <g clip-path="url(#pceefea4efe)">
     <!-- 2.500 -->
     <g style="fill:#39558c;" transform="translate(107.602837 276.038411)rotate(-13.799268)scale(0.06 -0.06)">
      <use xlink:href="#DejaVuSans-50"/>
      <use x="63.623047" xlink:href="#DejaVuSans-46"/>
      <use x="95.410156" xlink:href="#DejaVuSans-53"/>
      <use x="159.033203" xlink:href="#DejaVuSans-48"/>
      <use x="222.65625" xlink:href="#DejaVuSans-48"/>
     </g>
    </g>
   </g>
   <g id="text_26">
    <g clip-path="url(#pceefea4efe)">
     <!-- 2.500 -->
     <g style="fill:#39558c;" transform="translate(155.362349 59.042919)rotate(-312.783687)scale(0.06 -0.06)">
      <use xlink:href="#DejaVuSans-50"/>
      <use x="63.623047" xlink:href="#DejaVuSans-46"/>
      <use x="95.410156" xlink:href="#DejaVuSans-53"/>
      <use x="159.033203" xlink:href="#DejaVuSans-48"/>
      <use x="222.65625" xlink:href="#DejaVuSans-48"/>
     </g>
    </g>
   </g>
   <g id="text_27">
    <g clip-path="url(#pceefea4efe)">
     <!-- 3.000 -->
     <g style="fill:#33638d;" transform="translate(217.18471 223.152646)rotate(-57.522189)scale(0.06 -0.06)">
      <defs>
       <path d="M 40.578125 39.3125 
Q 47.65625 37.796875 51.625 33 
Q 55.609375 28.21875 55.609375 21.1875 
Q 55.609375 10.40625 48.1875 4.484375 
Q 40.765625 -1.421875 27.09375 -1.421875 
Q 22.515625 -1.421875 17.65625 -0.515625 
Q 12.796875 0.390625 7.625 2.203125 
L 7.625 11.71875 
Q 11.71875 9.328125 16.59375 8.109375 
Q 21.484375 6.890625 26.8125 6.890625 
Q 36.078125 6.890625 40.9375 10.546875 
Q 45.796875 14.203125 45.796875 21.1875 
Q 45.796875 27.640625 41.28125 31.265625 
Q 36.765625 34.90625 28.71875 34.90625 
L 20.21875 34.90625 
L 20.21875 43.015625 
L 29.109375 43.015625 
Q 36.375 43.015625 40.234375 45.921875 
Q 44.09375 48.828125 44.09375 54.296875 
Q 44.09375 59.90625 40.109375 62.90625 
Q 36.140625 65.921875 28.71875 65.921875 
Q 24.65625 65.921875 20.015625 65.03125 
Q 15.375 64.15625 9.8125 62.3125 
L 9.8125 71.09375 
Q 15.4375 72.65625 20.34375 73.4375 
Q 25.25 74.21875 29.59375 74.21875 
Q 40.828125 74.21875 47.359375 69.109375 
Q 53.90625 64.015625 53.90625 55.328125 
Q 53.90625 49.265625 50.4375 45.09375 
Q 46.96875 40.921875 40.578125 39.3125 
z
" id="DejaVuSans-51"/>
      </defs>
      <use xlink:href="#DejaVuSans-51"/>
      <use x="63.623047" xlink:href="#DejaVuSans-46"/>
      <use x="95.410156" xlink:href="#DejaVuSans-48"/>
      <use x="159.033203" xlink:href="#DejaVuSans-48"/>
      <use x="222.65625" xlink:href="#DejaVuSans-48"/>
     </g>
    </g>
   </g>
   <g id="text_28">
    <g clip-path="url(#pceefea4efe)">
     <!-- 3.500 -->
     <g style="fill:#2d718e;" transform="translate(168.143982 65.567769)rotate(-311.431803)scale(0.06 -0.06)">
      <use xlink:href="#DejaVuSans-51"/>
      <use x="63.623047" xlink:href="#DejaVuSans-46"/>
      <use x="95.410156" xlink:href="#DejaVuSans-53"/>
      <use x="159.033203" xlink:href="#DejaVuSans-48"/>
      <use x="222.65625" xlink:href="#DejaVuSans-48"/>
     </g>
    </g>
   </g>
   <g id="text_29">
    <g clip-path="url(#pceefea4efe)">
     <!-- 4.000 -->
     <g style="fill:#287d8e;" transform="translate(168.185257 63.880164)rotate(-310.991423)scale(0.06 -0.06)">
      <defs>
       <path d="M 37.796875 64.3125 
L 12.890625 25.390625 
L 37.796875 25.390625 
z
M 35.203125 72.90625 
L 47.609375 72.90625 
L 47.609375 25.390625 
L 58.015625 25.390625 
L 58.015625 17.1875 
L 47.609375 17.1875 
L 47.609375 0 
L 37.796875 0 
L 37.796875 17.1875 
L 4.890625 17.1875 
L 4.890625 26.703125 
z
" id="DejaVuSans-52"/>
      </defs>
      <use xlink:href="#DejaVuSans-52"/>
      <use x="63.623047" xlink:href="#DejaVuSans-46"/>
      <use x="95.410156" xlink:href="#DejaVuSans-48"/>
      <use x="159.033203" xlink:href="#DejaVuSans-48"/>
      <use x="222.65625" xlink:href="#DejaVuSans-48"/>
     </g>
    </g>
   </g>
   <g id="text_30">
    <g clip-path="url(#pceefea4efe)">
     <!-- 4.500 -->
     <g style="fill:#238a8d;" transform="translate(168.476655 61.893319)rotate(-307.996132)scale(0.06 -0.06)">
      <use xlink:href="#DejaVuSans-52"/>
      <use x="63.623047" xlink:href="#DejaVuSans-46"/>
      <use x="95.410156" xlink:href="#DejaVuSans-53"/>
      <use x="159.033203" xlink:href="#DejaVuSans-48"/>
      <use x="222.65625" xlink:href="#DejaVuSans-48"/>
     </g>
    </g>
   </g>
   <g id="text_31">
    <g clip-path="url(#pceefea4efe)">
     <!-- 5.000 -->
     <g style="fill:#1f968b;" transform="translate(168.743901 59.966014)rotate(-305.399245)scale(0.06 -0.06)">
      <use xlink:href="#DejaVuSans-53"/>
      <use x="63.623047" xlink:href="#DejaVuSans-46"/>
      <use x="95.410156" xlink:href="#DejaVuSans-48"/>
      <use x="159.033203" xlink:href="#DejaVuSans-48"/>
      <use x="222.65625" xlink:href="#DejaVuSans-48"/>
     </g>
    </g>
   </g>
   <g id="text_32">
    <g clip-path="url(#pceefea4efe)">
     <!-- 5.500 -->
     <g style="fill:#20a386;" transform="translate(168.859082 58.213155)rotate(-304.317564)scale(0.06 -0.06)">
      <use xlink:href="#DejaVuSans-53"/>
      <use x="63.623047" xlink:href="#DejaVuSans-46"/>
      <use x="95.410156" xlink:href="#DejaVuSans-53"/>
      <use x="159.033203" xlink:href="#DejaVuSans-48"/>
      <use x="222.65625" xlink:href="#DejaVuSans-48"/>
     </g>
    </g>
   </g>
   <g id="text_33">
    <g clip-path="url(#pceefea4efe)">
     <!-- 6.000 -->
     <g style="fill:#29af7f;" transform="translate(168.926749 58.13036)rotate(-304.948445)scale(0.06 -0.06)">
      <defs>
       <path d="M 33.015625 40.375 
Q 26.375 40.375 22.484375 35.828125 
Q 18.609375 31.296875 18.609375 23.390625 
Q 18.609375 15.53125 22.484375 10.953125 
Q 26.375 6.390625 33.015625 6.390625 
Q 39.65625 6.390625 43.53125 10.953125 
Q 47.40625 15.53125 47.40625 23.390625 
Q 47.40625 31.296875 43.53125 35.828125 
Q 39.65625 40.375 33.015625 40.375 
z
M 52.59375 71.296875 
L 52.59375 62.3125 
Q 48.875 64.0625 45.09375 64.984375 
Q 41.3125 65.921875 37.59375 65.921875 
Q 27.828125 65.921875 22.671875 59.328125 
Q 17.53125 52.734375 16.796875 39.40625 
Q 19.671875 43.65625 24.015625 45.921875 
Q 28.375 48.1875 33.59375 48.1875 
Q 44.578125 48.1875 50.953125 41.515625 
Q 57.328125 34.859375 57.328125 23.390625 
Q 57.328125 12.15625 50.6875 5.359375 
Q 44.046875 -1.421875 33.015625 -1.421875 
Q 20.359375 -1.421875 13.671875 8.265625 
Q 6.984375 17.96875 6.984375 36.375 
Q 6.984375 53.65625 15.1875 63.9375 
Q 23.390625 74.21875 37.203125 74.21875 
Q 40.921875 74.21875 44.703125 73.484375 
Q 48.484375 72.75 52.59375 71.296875 
z
" id="DejaVuSans-54"/>
      </defs>
      <use xlink:href="#DejaVuSans-54"/>
      <use x="63.623047" xlink:href="#DejaVuSans-46"/>
      <use x="95.410156" xlink:href="#DejaVuSans-48"/>
      <use x="159.033203" xlink:href="#DejaVuSans-48"/>
      <use x="222.65625" xlink:href="#DejaVuSans-48"/>
     </g>
    </g>
   </g>
   <g id="text_34">
    <g clip-path="url(#pceefea4efe)">
     <!-- 6.500 -->
     <g style="fill:#3dbc74;" transform="translate(169.025808 58.182168)rotate(-305.41948)scale(0.06 -0.06)">
      <use xlink:href="#DejaVuSans-54"/>
      <use x="63.623047" xlink:href="#DejaVuSans-46"/>
      <use x="95.410156" xlink:href="#DejaVuSans-53"/>
      <use x="159.033203" xlink:href="#DejaVuSans-48"/>
      <use x="222.65625" xlink:href="#DejaVuSans-48"/>
     </g>
    </g>
   </g>
   <g id="text_35">
    <g clip-path="url(#pceefea4efe)">
     <!-- 7.000 -->
     <g style="fill:#56c667;" transform="translate(169.129083 58.230352)rotate(-305.854279)scale(0.06 -0.06)">
      <defs>
       <path d="M 8.203125 72.90625 
L 55.078125 72.90625 
L 55.078125 68.703125 
L 28.609375 0 
L 18.3125 0 
L 43.21875 64.59375 
L 8.203125 64.59375 
z
" id="DejaVuSans-55"/>
      </defs>
      <use xlink:href="#DejaVuSans-55"/>
      <use x="63.623047" xlink:href="#DejaVuSans-46"/>
      <use x="95.410156" xlink:href="#DejaVuSans-48"/>
      <use x="159.033203" xlink:href="#DejaVuSans-48"/>
      <use x="222.65625" xlink:href="#DejaVuSans-48"/>
     </g>
    </g>
   </g>
   <g id="text_36">
    <g clip-path="url(#pceefea4efe)">
     <!-- 7.500 -->
     <g style="fill:#75d054;" transform="translate(169.236734 58.274556)rotate(-306.250442)scale(0.06 -0.06)">
      <use xlink:href="#DejaVuSans-55"/>
      <use x="63.623047" xlink:href="#DejaVuSans-46"/>
      <use x="95.410156" xlink:href="#DejaVuSans-53"/>
      <use x="159.033203" xlink:href="#DejaVuSans-48"/>
      <use x="222.65625" xlink:href="#DejaVuSans-48"/>
     </g>
    </g>
   </g>
   <g id="text_37">
    <g clip-path="url(#pceefea4efe)">
     <!-- 8.000 -->
     <g style="fill:#95d840;" transform="translate(169.348848 58.314502)rotate(-306.606268)scale(0.06 -0.06)">
      <use xlink:href="#DejaVuSans-56"/>
      <use x="63.623047" xlink:href="#DejaVuSans-46"/>
      <use x="95.410156" xlink:href="#DejaVuSans-48"/>
      <use x="159.033203" xlink:href="#DejaVuSans-48"/>
      <use x="222.65625" xlink:href="#DejaVuSans-48"/>
     </g>
    </g>
   </g>
   <g id="text_38">
    <g clip-path="url(#pceefea4efe)">
     <!-- 8.500 -->
     <g style="fill:#bade28;" transform="translate(169.465454 58.349987)rotate(-306.920674)scale(0.06 -0.06)">
      <use xlink:href="#DejaVuSans-56"/>
      <use x="63.623047" xlink:href="#DejaVuSans-46"/>
      <use x="95.410156" xlink:href="#DejaVuSans-53"/>
      <use x="159.033203" xlink:href="#DejaVuSans-48"/>
      <use x="222.65625" xlink:href="#DejaVuSans-48"/>
     </g>
    </g>
   </g>
   <g id="text_39">
    <g clip-path="url(#pceefea4efe)">
     <!-- 9.000 -->
     <g style="fill:#dde318;" transform="translate(169.586532 58.380878)rotate(-307.193113)scale(0.06 -0.06)">
      <use xlink:href="#DejaVuSans-57"/>
      <use x="63.623047" xlink:href="#DejaVuSans-46"/>
      <use x="95.410156" xlink:href="#DejaVuSans-48"/>
      <use x="159.033203" xlink:href="#DejaVuSans-48"/>
      <use x="222.65625" xlink:href="#DejaVuSans-48"/>
     </g>
    </g>
   </g>
   <g id="text_40">
    <g clip-path="url(#pceefea4efe)">
     <!-- 9.500 -->
     <g style="fill:#fde725;" transform="translate(169.712023 58.407104)rotate(-307.423497)scale(0.06 -0.06)">
      <use xlink:href="#DejaVuSans-57"/>
      <use x="63.623047" xlink:href="#DejaVuSans-46"/>
      <use x="95.410156" xlink:href="#DejaVuSans-53"/>
      <use x="159.033203" xlink:href="#DejaVuSans-48"/>
      <use x="222.65625" xlink:href="#DejaVuSans-48"/>
     </g>
    </g>
   </g>
   <g id="text_41">
    <g clip-path="url(#pceefea4efe)">
     <!-- 10.000 -->
     <g style="fill:#440154;" transform="translate(181.663787 75.371314)rotate(-312.704492)scale(0.06 -0.06)">
      <use xlink:href="#DejaVuSans-49"/>
      <use x="63.623047" xlink:href="#DejaVuSans-48"/>
      <use x="127.246094" xlink:href="#DejaVuSans-46"/>
      <use x="159.033203" xlink:href="#DejaVuSans-48"/>
      <use x="222.65625" xlink:href="#DejaVuSans-48"/>
      <use x="286.279297" xlink:href="#DejaVuSans-48"/>
     </g>
    </g>
   </g>
   <g id="text_42">
    <g clip-path="url(#pceefea4efe)">
     <!-- 100.000 -->
     <g style="fill:#440154;" transform="translate(211.464574 90.822697)rotate(-326.093971)scale(0.06 -0.06)">
      <use xlink:href="#DejaVuSans-49"/>
      <use x="63.623047" xlink:href="#DejaVuSans-48"/>
      <use x="127.246094" xlink:href="#DejaVuSans-48"/>
      <use x="190.869141" xlink:href="#DejaVuSans-46"/>
      <use x="222.65625" xlink:href="#DejaVuSans-48"/>
      <use x="286.279297" xlink:href="#DejaVuSans-48"/>
      <use x="349.902344" xlink:href="#DejaVuSans-48"/>
     </g>
    </g>
   </g>
   <g id="text_43">
    <g clip-path="url(#pceefea4efe)">
     <!-- 1000.000 -->
     <g style="fill:#440154;" transform="translate(246.544079 95.474279)rotate(-318.739005)scale(0.06 -0.06)">
      <use xlink:href="#DejaVuSans-49"/>
      <use x="63.623047" xlink:href="#DejaVuSans-48"/>
      <use x="127.246094" xlink:href="#DejaVuSans-48"/>
      <use x="190.869141" xlink:href="#DejaVuSans-48"/>
      <use x="254.492188" xlink:href="#DejaVuSans-46"/>
      <use x="286.279297" xlink:href="#DejaVuSans-48"/>
      <use x="349.902344" xlink:href="#DejaVuSans-48"/>
      <use x="413.525391" xlink:href="#DejaVuSans-48"/>
     </g>
    </g>
   </g>
   <g id="text_44">
    <g clip-path="url(#pceefea4efe)">
     <!-- 10000.000 -->
     <g style="fill:#440154;" transform="translate(283.383398 105.123321)rotate(-305.102733)scale(0.06 -0.06)">
      <use xlink:href="#DejaVuSans-49"/>
      <use x="63.623047" xlink:href="#DejaVuSans-48"/>
      <use x="127.246094" xlink:href="#DejaVuSans-48"/>
      <use x="190.869141" xlink:href="#DejaVuSans-48"/>
      <use x="254.492188" xlink:href="#DejaVuSans-48"/>
      <use x="318.115234" xlink:href="#DejaVuSans-46"/>
      <use x="349.902344" xlink:href="#DejaVuSans-48"/>
      <use x="413.525391" xlink:href="#DejaVuSans-48"/>
      <use x="477.148438" xlink:href="#DejaVuSans-48"/>
     </g>
    </g>
   </g>
   <g id="text_45">
    <g clip-path="url(#pceefea4efe)">
     <!-- 100000.000 -->
     <g style="fill:#440154;" transform="translate(299.143094 102.8994)rotate(-301.765245)scale(0.06 -0.06)">
      <use xlink:href="#DejaVuSans-49"/>
      <use x="63.623047" xlink:href="#DejaVuSans-48"/>
      <use x="127.246094" xlink:href="#DejaVuSans-48"/>
      <use x="190.869141" xlink:href="#DejaVuSans-48"/>
      <use x="254.492188" xlink:href="#DejaVuSans-48"/>
      <use x="318.115234" xlink:href="#DejaVuSans-48"/>
      <use x="381.738281" xlink:href="#DejaVuSans-46"/>
      <use x="413.525391" xlink:href="#DejaVuSans-48"/>
      <use x="477.148438" xlink:href="#DejaVuSans-48"/>
      <use x="540.771484" xlink:href="#DejaVuSans-48"/>
     </g>
    </g>
   </g>
   <g id="text_46">
    <g clip-path="url(#pceefea4efe)">
     <!-- 1000000.000 -->
     <g style="fill:#450457;" transform="translate(321.115574 103.143454)rotate(-290.927992)scale(0.06 -0.06)">
      <use xlink:href="#DejaVuSans-49"/>
      <use x="63.623047" xlink:href="#DejaVuSans-48"/>
      <use x="127.246094" xlink:href="#DejaVuSans-48"/>
      <use x="190.869141" xlink:href="#DejaVuSans-48"/>
      <use x="254.492188" xlink:href="#DejaVuSans-48"/>
      <use x="318.115234" xlink:href="#DejaVuSans-48"/>
      <use x="381.738281" xlink:href="#DejaVuSans-48"/>
      <use x="445.361328" xlink:href="#DejaVuSans-46"/>
      <use x="477.148438" xlink:href="#DejaVuSans-48"/>
      <use x="540.771484" xlink:href="#DejaVuSans-48"/>
      <use x="604.394531" xlink:href="#DejaVuSans-48"/>
     </g>
    </g>
   </g>
   <g id="text_47">
    <g clip-path="url(#pceefea4efe)">
     <!-- 10000000.000 -->
     <g style="fill:#482475;" transform="translate(330.802328 96.34853)rotate(-295.43472)scale(0.06 -0.06)">
      <use xlink:href="#DejaVuSans-49"/>
      <use x="63.623047" xlink:href="#DejaVuSans-48"/>
      <use x="127.246094" xlink:href="#DejaVuSans-48"/>
      <use x="190.869141" xlink:href="#DejaVuSans-48"/>
      <use x="254.492188" xlink:href="#DejaVuSans-48"/>
      <use x="318.115234" xlink:href="#DejaVuSans-48"/>
      <use x="381.738281" xlink:href="#DejaVuSans-48"/>
      <use x="445.361328" xlink:href="#DejaVuSans-48"/>
      <use x="508.984375" xlink:href="#DejaVuSans-46"/>
      <use x="540.771484" xlink:href="#DejaVuSans-48"/>
      <use x="604.394531" xlink:href="#DejaVuSans-48"/>
      <use x="668.017578" xlink:href="#DejaVuSans-48"/>
     </g>
    </g>
   </g>
   <g id="text_48">
    <g clip-path="url(#pceefea4efe)">
     <!-- 100000000.000 -->
     <g style="fill:#fde725;" transform="translate(344.329758 97.24459)rotate(-298.4007)scale(0.06 -0.06)">
      <use xlink:href="#DejaVuSans-49"/>
      <use x="63.623047" xlink:href="#DejaVuSans-48"/>
      <use x="127.246094" xlink:href="#DejaVuSans-48"/>
      <use x="190.869141" xlink:href="#DejaVuSans-48"/>
      <use x="254.492188" xlink:href="#DejaVuSans-48"/>
      <use x="318.115234" xlink:href="#DejaVuSans-48"/>
      <use x="381.738281" xlink:href="#DejaVuSans-48"/>
      <use x="445.361328" xlink:href="#DejaVuSans-48"/>
      <use x="508.984375" xlink:href="#DejaVuSans-48"/>
      <use x="572.607422" xlink:href="#DejaVuSans-46"/>
      <use x="604.394531" xlink:href="#DejaVuSans-48"/>
      <use x="668.017578" xlink:href="#DejaVuSans-48"/>
      <use x="731.640625" xlink:href="#DejaVuSans-48"/>
     </g>
    </g>
   </g>
  </g>
 </g>
 <defs>
  <clipPath id="pceefea4efe">
   <rect height="266.112" width="357.12" x="56.028488" y="10.999219"/>
  </clipPath>
 </defs>
</svg>
