<?xml version="1.0" encoding="utf-8" standalone="no"?>
<!DOCTYPE svg PUBLIC "-//W3C//DTD SVG 1.1//EN"
  "http://www.w3.org/Graphics/SVG/1.1/DTD/svg11.dtd">
<!-- Created with matplotlib (https://matplotlib.org/) -->
<svg height="300.989344pt" version="1.1" viewBox="0 0 405.987188 300.989344" width="405.987188pt" xmlns="http://www.w3.org/2000/svg" xmlns:xlink="http://www.w3.org/1999/xlink">
 <metadata>
  <rdf:RDF xmlns:cc="http://creativecommons.org/ns#" xmlns:dc="http://purl.org/dc/elements/1.1/" xmlns:rdf="http://www.w3.org/1999/02/22-rdf-syntax-ns#">
   <cc:Work>
    <dc:type rdf:resource="http://purl.org/dc/dcmitype/StillImage"/>
    <dc:date>2021-09-23T00:07:43.302109</dc:date>
    <dc:format>image/svg+xml</dc:format>
    <dc:creator>
     <cc:Agent>
      <dc:title>Matplotlib v3.3.1, https://matplotlib.org/</dc:title>
     </cc:Agent>
    </dc:creator>
   </cc:Work>
  </rdf:RDF>
 </metadata>
 <defs>
  <style type="text/css">*{stroke-linecap:butt;stroke-linejoin:round;}</style>
 </defs>
 <g id="figure_1">
  <g id="patch_1">
   <path d="M 0 300.989344 
L 405.987188 300.989344 
L 405.987188 0 
L 0 0 
z
" style="fill:#ffffff;"/>
  </g>
  <g id="axes_1">
   <g id="patch_2">
    <path d="M 35.304688 277.111219 
L 392.424688 277.111219 
L 392.424688 10.999219 
L 35.304688 10.999219 
z
" style="fill:#ffffff;"/>
   </g>
   <g id="matplotlib.axis_1">
    <g id="xtick_1">
     <g id="line2d_1">
      <defs>
       <path d="M 0 0 
L 0 3.5 
" id="maa58774019" style="stroke:#000000;stroke-width:0.8;"/>
      </defs>
      <g>
       <use style="stroke:#000000;stroke-width:0.8;" x="35.304687" xlink:href="#maa58774019" y="277.111219"/>
      </g>
     </g>
     <g id="text_1">
      <!-- −20 -->
      <g transform="translate(24.752344 291.709656)scale(0.1 -0.1)">
       <defs>
        <path d="M 10.59375 35.5 
L 73.1875 35.5 
L 73.1875 27.203125 
L 10.59375 27.203125 
z
" id="DejaVuSans-8722"/>
        <path d="M 19.1875 8.296875 
L 53.609375 8.296875 
L 53.609375 0 
L 7.328125 0 
L 7.328125 8.296875 
Q 12.9375 14.109375 22.625 23.890625 
Q 32.328125 33.6875 34.8125 36.53125 
Q 39.546875 41.84375 41.421875 45.53125 
Q 43.3125 49.21875 43.3125 52.78125 
Q 43.3125 58.59375 39.234375 62.25 
Q 35.15625 65.921875 28.609375 65.921875 
Q 23.96875 65.921875 18.8125 64.3125 
Q 13.671875 62.703125 7.8125 59.421875 
L 7.8125 69.390625 
Q 13.765625 71.78125 18.9375 73 
Q 24.125 74.21875 28.421875 74.21875 
Q 39.75 74.21875 46.484375 68.546875 
Q 53.21875 62.890625 53.21875 53.421875 
Q 53.21875 48.921875 51.53125 44.890625 
Q 49.859375 40.875 45.40625 35.40625 
Q 44.1875 33.984375 37.640625 27.21875 
Q 31.109375 20.453125 19.1875 8.296875 
z
" id="DejaVuSans-50"/>
        <path d="M 31.78125 66.40625 
Q 24.171875 66.40625 20.328125 58.90625 
Q 16.5 51.421875 16.5 36.375 
Q 16.5 21.390625 20.328125 13.890625 
Q 24.171875 6.390625 31.78125 6.390625 
Q 39.453125 6.390625 43.28125 13.890625 
Q 47.125 21.390625 47.125 36.375 
Q 47.125 51.421875 43.28125 58.90625 
Q 39.453125 66.40625 31.78125 66.40625 
z
M 31.78125 74.21875 
Q 44.046875 74.21875 50.515625 64.515625 
Q 56.984375 54.828125 56.984375 36.375 
Q 56.984375 17.96875 50.515625 8.265625 
Q 44.046875 -1.421875 31.78125 -1.421875 
Q 19.53125 -1.421875 13.0625 8.265625 
Q 6.59375 17.96875 6.59375 36.375 
Q 6.59375 54.828125 13.0625 64.515625 
Q 19.53125 74.21875 31.78125 74.21875 
z
" id="DejaVuSans-48"/>
       </defs>
       <use xlink:href="#DejaVuSans-8722"/>
       <use x="83.789062" xlink:href="#DejaVuSans-50"/>
       <use x="147.412109" xlink:href="#DejaVuSans-48"/>
      </g>
     </g>
    </g>
    <g id="xtick_2">
     <g id="line2d_2">
      <g>
       <use style="stroke:#000000;stroke-width:0.8;" x="74.984687" xlink:href="#maa58774019" y="277.111219"/>
      </g>
     </g>
     <g id="text_2">
      <!-- −15 -->
      <g transform="translate(64.432344 291.709656)scale(0.1 -0.1)">
       <defs>
        <path d="M 12.40625 8.296875 
L 28.515625 8.296875 
L 28.515625 63.921875 
L 10.984375 60.40625 
L 10.984375 69.390625 
L 28.421875 72.90625 
L 38.28125 72.90625 
L 38.28125 8.296875 
L 54.390625 8.296875 
L 54.390625 0 
L 12.40625 0 
z
" id="DejaVuSans-49"/>
        <path d="M 10.796875 72.90625 
L 49.515625 72.90625 
L 49.515625 64.59375 
L 19.828125 64.59375 
L 19.828125 46.734375 
Q 21.96875 47.46875 24.109375 47.828125 
Q 26.265625 48.1875 28.421875 48.1875 
Q 40.625 48.1875 47.75 41.5 
Q 54.890625 34.8125 54.890625 23.390625 
Q 54.890625 11.625 47.5625 5.09375 
Q 40.234375 -1.421875 26.90625 -1.421875 
Q 22.3125 -1.421875 17.546875 -0.640625 
Q 12.796875 0.140625 7.71875 1.703125 
L 7.71875 11.625 
Q 12.109375 9.234375 16.796875 8.0625 
Q 21.484375 6.890625 26.703125 6.890625 
Q 35.15625 6.890625 40.078125 11.328125 
Q 45.015625 15.765625 45.015625 23.390625 
Q 45.015625 31 40.078125 35.4375 
Q 35.15625 39.890625 26.703125 39.890625 
Q 22.75 39.890625 18.8125 39.015625 
Q 14.890625 38.140625 10.796875 36.28125 
z
" id="DejaVuSans-53"/>
       </defs>
       <use xlink:href="#DejaVuSans-8722"/>
       <use x="83.789062" xlink:href="#DejaVuSans-49"/>
       <use x="147.412109" xlink:href="#DejaVuSans-53"/>
      </g>
     </g>
    </g>
    <g id="xtick_3">
     <g id="line2d_3">
      <g>
       <use style="stroke:#000000;stroke-width:0.8;" x="114.664687" xlink:href="#maa58774019" y="277.111219"/>
      </g>
     </g>
     <g id="text_3">
      <!-- −10 -->
      <g transform="translate(104.112344 291.709656)scale(0.1 -0.1)">
       <use xlink:href="#DejaVuSans-8722"/>
       <use x="83.789062" xlink:href="#DejaVuSans-49"/>
       <use x="147.412109" xlink:href="#DejaVuSans-48"/>
      </g>
     </g>
    </g>
    <g id="xtick_4">
     <g id="line2d_4">
      <g>
       <use style="stroke:#000000;stroke-width:0.8;" x="154.344687" xlink:href="#maa58774019" y="277.111219"/>
      </g>
     </g>
     <g id="text_4">
      <!-- −5 -->
      <g transform="translate(146.973594 291.709656)scale(0.1 -0.1)">
       <use xlink:href="#DejaVuSans-8722"/>
       <use x="83.789062" xlink:href="#DejaVuSans-53"/>
      </g>
     </g>
    </g>
    <g id="xtick_5">
     <g id="line2d_5">
      <g>
       <use style="stroke:#000000;stroke-width:0.8;" x="194.024687" xlink:href="#maa58774019" y="277.111219"/>
      </g>
     </g>
     <g id="text_5">
      <!-- 0 -->
      <g transform="translate(190.843437 291.709656)scale(0.1 -0.1)">
       <use xlink:href="#DejaVuSans-48"/>
      </g>
     </g>
    </g>
    <g id="xtick_6">
     <g id="line2d_6">
      <g>
       <use style="stroke:#000000;stroke-width:0.8;" x="233.704688" xlink:href="#maa58774019" y="277.111219"/>
      </g>
     </g>
     <g id="text_6">
      <!-- 5 -->
      <g transform="translate(230.523438 291.709656)scale(0.1 -0.1)">
       <use xlink:href="#DejaVuSans-53"/>
      </g>
     </g>
    </g>
    <g id="xtick_7">
     <g id="line2d_7">
      <g>
       <use style="stroke:#000000;stroke-width:0.8;" x="273.384688" xlink:href="#maa58774019" y="277.111219"/>
      </g>
     </g>
     <g id="text_7">
      <!-- 10 -->
      <g transform="translate(267.022188 291.709656)scale(0.1 -0.1)">
       <use xlink:href="#DejaVuSans-49"/>
       <use x="63.623047" xlink:href="#DejaVuSans-48"/>
      </g>
     </g>
    </g>
    <g id="xtick_8">
     <g id="line2d_8">
      <g>
       <use style="stroke:#000000;stroke-width:0.8;" x="313.064687" xlink:href="#maa58774019" y="277.111219"/>
      </g>
     </g>
     <g id="text_8">
      <!-- 15 -->
      <g transform="translate(306.702187 291.709656)scale(0.1 -0.1)">
       <use xlink:href="#DejaVuSans-49"/>
       <use x="63.623047" xlink:href="#DejaVuSans-53"/>
      </g>
     </g>
    </g>
    <g id="xtick_9">
     <g id="line2d_9">
      <g>
       <use style="stroke:#000000;stroke-width:0.8;" x="352.744688" xlink:href="#maa58774019" y="277.111219"/>
      </g>
     </g>
     <g id="text_9">
      <!-- 20 -->
      <g transform="translate(346.382188 291.709656)scale(0.1 -0.1)">
       <use xlink:href="#DejaVuSans-50"/>
       <use x="63.623047" xlink:href="#DejaVuSans-48"/>
      </g>
     </g>
    </g>
    <g id="xtick_10">
     <g id="line2d_10">
      <g>
       <use style="stroke:#000000;stroke-width:0.8;" x="392.424688" xlink:href="#maa58774019" y="277.111219"/>
      </g>
     </g>
     <g id="text_10">
      <!-- 25 -->
      <g transform="translate(386.062187 291.709656)scale(0.1 -0.1)">
       <use xlink:href="#DejaVuSans-50"/>
       <use x="63.623047" xlink:href="#DejaVuSans-53"/>
      </g>
     </g>
    </g>
   </g>
   <g id="matplotlib.axis_2">
    <g id="ytick_1">
     <g id="line2d_11">
      <defs>
       <path d="M 0 0 
L -3.5 0 
" id="m7c3709205e" style="stroke:#000000;stroke-width:0.8;"/>
      </defs>
      <g>
       <use style="stroke:#000000;stroke-width:0.8;" x="35.304688" xlink:href="#m7c3709205e" y="277.111219"/>
      </g>
     </g>
     <g id="text_11">
      <!-- −20 -->
      <g transform="translate(7.2 280.910437)scale(0.1 -0.1)">
       <use xlink:href="#DejaVuSans-8722"/>
       <use x="83.789062" xlink:href="#DejaVuSans-50"/>
       <use x="147.412109" xlink:href="#DejaVuSans-48"/>
      </g>
     </g>
    </g>
    <g id="ytick_2">
     <g id="line2d_12">
      <g>
       <use style="stroke:#000000;stroke-width:0.8;" x="35.304688" xlink:href="#m7c3709205e" y="243.847219"/>
      </g>
     </g>
     <g id="text_12">
      <!-- −15 -->
      <g transform="translate(7.2 247.646437)scale(0.1 -0.1)">
       <use xlink:href="#DejaVuSans-8722"/>
       <use x="83.789062" xlink:href="#DejaVuSans-49"/>
       <use x="147.412109" xlink:href="#DejaVuSans-53"/>
      </g>
     </g>
    </g>
    <g id="ytick_3">
     <g id="line2d_13">
      <g>
       <use style="stroke:#000000;stroke-width:0.8;" x="35.304688" xlink:href="#m7c3709205e" y="210.583219"/>
      </g>
     </g>
     <g id="text_13">
      <!-- −10 -->
      <g transform="translate(7.2 214.382437)scale(0.1 -0.1)">
       <use xlink:href="#DejaVuSans-8722"/>
       <use x="83.789062" xlink:href="#DejaVuSans-49"/>
       <use x="147.412109" xlink:href="#DejaVuSans-48"/>
      </g>
     </g>
    </g>
    <g id="ytick_4">
     <g id="line2d_14">
      <g>
       <use style="stroke:#000000;stroke-width:0.8;" x="35.304688" xlink:href="#m7c3709205e" y="177.319219"/>
      </g>
     </g>
     <g id="text_14">
      <!-- −5 -->
      <g transform="translate(13.5625 181.118437)scale(0.1 -0.1)">
       <use xlink:href="#DejaVuSans-8722"/>
       <use x="83.789062" xlink:href="#DejaVuSans-53"/>
      </g>
     </g>
    </g>
    <g id="ytick_5">
     <g id="line2d_15">
      <g>
       <use style="stroke:#000000;stroke-width:0.8;" x="35.304688" xlink:href="#m7c3709205e" y="144.055219"/>
      </g>
     </g>
     <g id="text_15">
      <!-- 0 -->
      <g transform="translate(21.942187 147.854437)scale(0.1 -0.1)">
       <use xlink:href="#DejaVuSans-48"/>
      </g>
     </g>
    </g>
    <g id="ytick_6">
     <g id="line2d_16">
      <g>
       <use style="stroke:#000000;stroke-width:0.8;" x="35.304688" xlink:href="#m7c3709205e" y="110.791219"/>
      </g>
     </g>
     <g id="text_16">
      <!-- 5 -->
      <g transform="translate(21.942187 114.590437)scale(0.1 -0.1)">
       <use xlink:href="#DejaVuSans-53"/>
      </g>
     </g>
    </g>
    <g id="ytick_7">
     <g id="line2d_17">
      <g>
       <use style="stroke:#000000;stroke-width:0.8;" x="35.304688" xlink:href="#m7c3709205e" y="77.527219"/>
      </g>
     </g>
     <g id="text_17">
      <!-- 10 -->
      <g transform="translate(15.579687 81.326437)scale(0.1 -0.1)">
       <use xlink:href="#DejaVuSans-49"/>
       <use x="63.623047" xlink:href="#DejaVuSans-48"/>
      </g>
     </g>
    </g>
    <g id="ytick_8">
     <g id="line2d_18">
      <g>
       <use style="stroke:#000000;stroke-width:0.8;" x="35.304688" xlink:href="#m7c3709205e" y="44.263219"/>
      </g>
     </g>
     <g id="text_18">
      <!-- 15 -->
      <g transform="translate(15.579687 48.062437)scale(0.1 -0.1)">
       <use xlink:href="#DejaVuSans-49"/>
       <use x="63.623047" xlink:href="#DejaVuSans-53"/>
      </g>
     </g>
    </g>
    <g id="ytick_9">
     <g id="line2d_19">
      <g>
       <use style="stroke:#000000;stroke-width:0.8;" x="35.304688" xlink:href="#m7c3709205e" y="10.999219"/>
      </g>
     </g>
     <g id="text_19">
      <!-- 20 -->
      <g transform="translate(15.579687 14.798437)scale(0.1 -0.1)">
       <use xlink:href="#DejaVuSans-50"/>
       <use x="63.623047" xlink:href="#DejaVuSans-48"/>
      </g>
     </g>
    </g>
   </g>
   <g id="LineCollection_1"/>
   <g id="LineCollection_2"/>
   <g id="LineCollection_3"/>
   <g id="LineCollection_4">
    <path clip-path="url(#p72e4750bd7)" d="M 208.223683 147.199041 
L 206.779994 152.925619 
L 201.960688 157.400779 
L 192.949241 161.796019 
L 190.056688 162.751315 
L 178.152687 163.964287 
L 174.031741 161.796019 
L 173.693995 152.925619 
L 175.329996 144.055219 
L 177.074268 135.184819 
L 178.152687 134.075121 
L 190.056688 127.886628 
L 195.950927 129.003421 
" style="fill:none;stroke:#453781;stroke-width:1.5;"/>
   </g>
   <g id="LineCollection_5">
    <path clip-path="url(#p72e4750bd7)" d="M 161.095542 138.560274 
L 163.114427 135.184819 
L 166.248687 132.765749 
L 173.017197 126.314419 
L 178.152687 125.898511 
L 190.056688 125.510628 
L 201.960688 125.799118 
L 204.89828 126.314419 
L 213.864688 134.438057 
L 213.961674 135.184819 
L 214.932336 144.055219 
L 215.459236 152.925619 
L 213.864688 160.599347 
L 212.457819 161.796019 
L 201.960688 166.49276 
L 194.50641 170.666419 
L 190.056688 172.057679 
L 178.152687 175.951647 
L 168.357041 179.536819 
L 166.248687 179.89006 
L 154.344687 180.800523 
L 143.311938 179.536819 
L 142.440687 177.714531 
L 141.90259 170.666419 
L 142.440687 167.528793 
L 145.104818 161.796019 
L 146.831265 159.292312 
" style="fill:none;stroke:#404688;stroke-width:1.5;"/>
   </g>
   <g id="LineCollection_6">
    <path clip-path="url(#p72e4750bd7)" d="M 159.310737 128.920939 
L 162.729212 126.314419 
L 166.248687 125.912094 
L 178.152687 124.999436 
L 190.056688 124.6156 
L 201.960688 125.041714 
L 209.216043 126.314419 
L 213.864688 130.526129 
L 214.469743 135.184819 
L 216.435518 144.055219 
L 217.839523 152.925619 
L 216.168374 161.796019 
L 213.864688 164.422809 
L 203.462648 170.666419 
L 201.960688 171.200594 
L 190.056688 175.422539 
L 181.515207 179.536819 
L 178.152687 180.415442 
L 166.248687 183.054406 
L 154.344687 186.364037 
L 142.440687 188.327416 
L 136.539758 179.536819 
L 134.146379 170.666419 
L 135.135318 161.796019 
L 138.132449 152.925619 
L 141.093575 144.865516 
" style="fill:none;stroke:#39558c;stroke-width:1.5;"/>
   </g>
   <g id="LineCollection_7">
    <path clip-path="url(#p72e4750bd7)" d="M 129.969026 166.956325 
L 129.997758 161.796019 
L 130.52514 152.925619 
L 130.536687 152.834015 
L 137.012086 144.055219 
L 141.493789 135.184819 
L 142.440687 133.872109 
L 154.117861 126.314419 
L 154.344687 126.272955 
L 166.248687 124.881301 
L 178.152687 124.10036 
L 190.056688 123.720572 
L 201.960688 124.28431 
L 213.533806 126.314419 
L 213.864688 126.6142 
L 214.977811 135.184819 
L 217.9387 144.055219 
L 220.219811 152.925619 
L 218.740791 161.796019 
L 213.864688 167.356022 
L 208.349468 170.666419 
L 201.960688 172.938601 
L 190.056688 178.787398 
L 188.500847 179.536819 
L 178.152687 182.240784 
L 166.248687 186.218752 
L 160.032208 188.407219 
L 154.344687 189.411657 
L 142.440687 190.098365 
L 139.509483 188.407219 
L 139.496587 188.394473 
" style="fill:none;stroke:#33638d;stroke-width:1.5;"/>
   </g>
   <g id="LineCollection_8">
    <path clip-path="url(#p72e4750bd7)" d="M 166.803794 123.820233 
L 178.152687 123.201285 
L 190.056688 122.825544 
L 201.960688 123.526906 
L 213.864688 126.20971 
L 213.92575 126.314419 
L 215.48588 135.184819 
L 219.441883 144.055219 
L 222.600099 152.925619 
L 221.313209 161.796019 
L 213.864688 170.289235 
L 213.236288 170.666419 
L 201.960688 174.676609 
L 192.645804 179.536819 
L 190.056688 180.366618 
L 178.152687 184.066126 
L 167.615147 188.407219 
L 166.248687 188.723721 
L 154.344687 190.999065 
L 142.440687 191.804723 
L 136.551911 188.407219 
L 130.536687 182.462478 
L 129.896771 179.536819 
L 128.8479 170.666419 
L 128.800951 161.796019 
L 129.77671 152.925619 
L 130.536687 146.8971 
L 132.63291 144.055219 
L 139.984553 135.184819 
L 142.440687 131.779817 
L 143.259774 131.249689 
" style="fill:none;stroke:#2d718e;stroke-width:1.5;"/>
   </g>
   <g id="LineCollection_9">
    <path clip-path="url(#p72e4750bd7)" d="M 166.729479 122.798812 
L 178.152687 122.302209 
L 190.056688 121.930515 
L 201.960688 122.769502 
L 213.864688 126.096311 
L 213.99188 126.314419 
L 215.993948 135.184819 
L 220.945065 144.055219 
L 224.980387 152.925619 
L 223.885626 161.796019 
L 215.837 170.666419 
L 213.864688 171.57369 
L 201.960688 176.414616 
L 195.976799 179.536819 
L 190.056688 181.434186 
L 178.152687 185.891468 
L 172.04597 188.407219 
L 166.248687 189.749999 
L 154.344687 192.586473 
L 142.440687 193.511082 
L 133.594339 188.407219 
L 130.536687 185.385395 
L 129.257455 179.536819 
L 127.74743 170.666419 
L 127.604143 161.796019 
L 129.028281 152.925619 
L 130.343656 144.055219 
L 130.536687 143.255351 
L 138.475318 135.184819 
L 142.440687 129.687525 
L 142.78592 129.464084 
" style="fill:none;stroke:#287d8e;stroke-width:1.5;"/>
   </g>
   <g id="LineCollection_10">
    <path clip-path="url(#p72e4750bd7)" d="M 166.639644 121.77625 
L 178.152687 121.403134 
L 190.056688 121.035487 
L 201.960688 122.012097 
L 213.864688 125.982912 
L 214.05801 126.314419 
L 216.502016 135.184819 
L 222.448247 144.055219 
L 225.768687 150.864047 
L 225.798388 152.925619 
L 225.795288 161.796019 
L 225.768687 162.446206 
L 218.100359 170.666419 
L 213.864688 172.614844 
L 201.960688 178.152623 
L 199.307794 179.536819 
L 190.056688 182.501754 
L 178.152687 187.71681 
L 176.476794 188.407219 
L 166.248687 190.776277 
L 154.344687 194.173881 
L 142.440687 195.217441 
L 130.636766 188.407219 
L 130.536687 188.308313 
L 128.618139 179.536819 
L 126.64696 170.666419 
L 126.407336 161.796019 
L 128.279851 152.925619 
L 129.973383 144.055219 
L 130.536687 141.721039 
L 136.966082 135.184819 
L 142.351056 127.719491 
" style="fill:none;stroke:#238a8d;stroke-width:1.5;"/>
   </g>
   <g id="LineCollection_11">
    <path clip-path="url(#p72e4750bd7)" d="M 178.845653 120.482892 
L 190.056688 120.140459 
L 201.960688 121.254693 
L 213.864688 125.869513 
L 214.12414 126.314419 
L 217.010085 135.184819 
L 223.951429 144.055219 
L 225.768687 147.781653 
L 225.842795 152.925619 
L 225.89455 161.796019 
L 225.768687 164.872457 
L 220.363718 170.666419 
L 213.864688 173.655998 
L 202.374796 179.536819 
L 201.960688 179.6659 
L 190.056688 183.569322 
L 179.588903 188.407219 
L 178.152687 188.81482 
L 166.248687 191.802556 
L 154.344687 195.761289 
L 142.440687 196.923799 
L 130.536687 189.258312 
L 130.228005 188.407219 
L 127.978822 179.536819 
L 125.54649 170.666419 
L 125.210528 161.796019 
L 127.531422 152.925619 
L 129.60311 144.055219 
L 130.536687 140.186727 
L 135.456846 135.184819 
L 142.272328 126.314419 
L 142.440687 126.244299 
L 154.06402 123.964212 
" style="fill:none;stroke:#1f968b;stroke-width:1.5;"/>
   </g>
   <g id="LineCollection_12">
    <path clip-path="url(#p72e4750bd7)" d="M 154.711885 123.207439 
L 166.248687 119.727334 
L 178.152687 119.604983 
L 190.056688 119.245431 
L 201.960688 120.497289 
L 213.864688 125.756114 
L 214.19027 126.314419 
L 217.518153 135.184819 
L 225.454611 144.055219 
L 225.768687 144.699258 
L 225.887202 152.925619 
L 225.993813 161.796019 
L 225.768687 167.298709 
L 222.627077 170.666419 
L 213.864688 174.697152 
L 204.408993 179.536819 
L 201.960688 180.299979 
L 190.056688 184.63689 
L 181.898806 188.407219 
L 178.152687 189.470376 
L 166.248687 192.828834 
L 154.466391 197.277619 
L 154.344687 197.302369 
L 142.440687 197.643047 
L 141.380044 197.277619 
L 130.536687 190.139214 
L 129.908511 188.407219 
L 127.339506 179.536819 
L 124.44602 170.666419 
L 124.013721 161.796019 
L 126.782993 152.925619 
L 129.232836 144.055219 
L 130.536687 138.652415 
L 133.894793 135.238514 
" style="fill:none;stroke:#20a386;stroke-width:1.5;"/>
   </g>
   <g id="LineCollection_13">
    <path clip-path="url(#p72e4750bd7)" d="M 154.614522 122.635889 
L 166.248687 118.696541 
L 178.152687 118.705907 
L 190.056688 118.350403 
L 201.960688 119.739885 
L 213.864688 125.642715 
L 214.2564 126.314419 
L 218.026222 135.184819 
L 225.768687 143.617479 
L 225.77972 144.055219 
L 225.931609 152.925619 
L 226.093075 161.796019 
L 225.768687 169.72496 
L 224.890436 170.666419 
L 213.864688 175.738306 
L 206.44319 179.536819 
L 201.960688 180.934058 
L 190.056688 185.704458 
L 184.208709 188.407219 
L 178.152687 190.125932 
L 166.248687 193.855112 
L 157.184416 197.277619 
L 154.344687 197.855126 
L 142.440687 198.10407 
L 140.041939 197.277619 
L 130.536687 191.020116 
L 129.589018 188.407219 
L 126.70019 179.536819 
L 123.34555 170.666419 
L 122.816914 161.796019 
L 126.034563 152.925619 
L 128.862563 144.055219 
L 130.536687 137.118103 
L 132.438374 135.184819 
L 133.245297 134.386479 
" style="fill:none;stroke:#29af7f;stroke-width:1.5;"/>
   </g>
   <g id="LineCollection_14">
    <path clip-path="url(#p72e4750bd7)" d="M 129.574523 189.248156 
L 129.269524 188.407219 
L 126.060874 179.536819 
L 122.245081 170.666419 
L 121.620106 161.796019 
L 125.286134 152.925619 
L 128.49229 144.055219 
L 130.536687 135.583791 
L 130.929139 135.184819 
L 140.970052 126.314419 
L 142.440687 125.701914 
L 154.344687 122.136306 
L 166.248687 117.665747 
L 178.152687 117.806832 
L 190.056688 117.455375 
L 201.960688 118.982481 
L 213.864688 125.529316 
L 214.32253 126.314419 
L 218.53429 135.184819 
L 225.768687 143.064119 
L 225.793666 144.055219 
L 225.976015 152.925619 
L 226.192337 161.796019 
L 225.858308 170.666419 
L 225.768687 171.179983 
L 213.864688 176.77946 
L 208.477387 179.536819 
L 201.960688 181.568136 
L 190.056688 186.772026 
L 186.518612 188.407219 
L 178.152687 190.781487 
L 166.248687 194.88139 
L 159.902442 197.277619 
L 154.344687 198.407883 
L 151.087509 198.450899 
" style="fill:none;stroke:#3dbc74;stroke-width:1.5;"/>
   </g>
   <g id="LineCollection_15">
    <path clip-path="url(#p72e4750bd7)" d="M 154.391022 121.527587 
L 165.039209 117.444019 
L 166.248687 117.416361 
L 178.152687 117.421874 
L 190.056688 117.417565 
L 195.879188 117.444019 
L 201.960688 118.225077 
L 213.864688 125.415917 
L 214.38866 126.314419 
L 219.042358 135.184819 
L 225.768687 142.510759 
L 225.807613 144.055219 
L 226.020422 152.925619 
L 226.2916 161.796019 
L 226.004755 170.666419 
L 225.768687 172.019182 
L 213.864688 177.820614 
L 210.511584 179.536819 
L 201.960688 182.202215 
L 190.056688 187.839594 
L 188.828515 188.407219 
L 178.152687 191.437043 
L 166.248687 195.907668 
L 162.620468 197.277619 
L 154.344687 198.96064 
L 142.440687 199.026116 
L 137.365731 197.277619 
L 130.536687 192.781919 
L 128.950031 188.407219 
L 125.421557 179.536819 
L 121.144611 170.666419 
L 120.423299 161.796019 
L 124.537704 152.925619 
L 128.122016 144.055219 
L 130.438282 135.184819 
L 130.536687 134.908737 
L 132.545212 133.182422 
" style="fill:none;stroke:#56c667;stroke-width:1.5;"/>
   </g>
   <g id="LineCollection_16">
    <path clip-path="url(#p72e4750bd7)" d="M 154.263735 120.984232 
L 154.344687 120.954406 
L 163.498267 117.444019 
L 166.248687 117.381123 
L 178.152687 117.384746 
L 190.056688 117.390771 
L 201.776515 117.444019 
L 201.960688 117.467672 
L 213.864688 125.302519 
L 214.45479 126.314419 
L 219.550427 135.184819 
L 225.768687 141.9574 
L 225.821559 144.055219 
L 226.064829 152.925619 
L 226.390862 161.796019 
L 226.151201 170.666419 
L 225.768687 172.858381 
L 213.864688 178.861768 
L 212.545781 179.536819 
L 201.960688 182.836294 
L 190.659082 188.407219 
L 190.056688 188.589287 
L 178.152687 192.092599 
L 166.248687 196.933946 
L 165.338494 197.277619 
L 154.344687 199.513398 
L 142.440687 199.487139 
L 136.027626 197.277619 
L 130.536687 193.662821 
L 128.630537 188.407219 
L 124.782241 179.536819 
L 120.044141 170.666419 
L 119.226491 161.796019 
L 123.789275 152.925619 
L 127.751743 144.055219 
L 130.305295 135.184819 
L 130.536687 134.535637 
L 132.467736 132.875912 
" style="fill:none;stroke:#75d054;stroke-width:1.5;"/>
   </g>
   <g id="LineCollection_17">
    <path clip-path="url(#p72e4750bd7)" d="M 154.977283 199.931747 
L 154.344687 200.066155 
L 142.440687 199.948162 
L 134.689522 197.277619 
L 130.536687 194.543722 
L 128.311044 188.407219 
L 124.142925 179.536819 
L 118.943671 170.666419 
L 118.632687 167.478995 
L 118.607919 161.796019 
L 118.632687 161.097006 
L 123.040846 152.925619 
L 127.381469 144.055219 
L 130.172308 135.184819 
L 130.536687 134.162537 
L 139.667775 126.314419 
L 142.440687 125.15953 
L 154.344687 120.363457 
L 161.957324 117.444019 
L 166.248687 117.345885 
L 178.152687 117.347618 
L 190.056688 117.363977 
L 201.960688 117.432759 
L 202.127174 117.444019 
L 213.864688 125.18912 
L 214.52092 126.314419 
L 220.058495 135.184819 
L 225.768687 141.40404 
L 225.835505 144.055219 
L 226.109236 152.925619 
L 226.490124 161.796019 
L 226.297647 170.666419 
L 225.768687 173.69758 
L 214.437325 179.536819 
L 213.864688 179.66567 
L 201.960688 183.470373 
L 191.945423 188.407219 
L 190.056688 188.978071 
L 178.948233 192.496199 
" style="fill:none;stroke:#95d840;stroke-width:1.5;"/>
   </g>
   <g id="LineCollection_18">
    <path clip-path="url(#p72e4750bd7)" d="M 156.588852 200.111383 
L 154.344687 200.618912 
L 142.440687 200.409185 
L 133.351418 197.277619 
L 130.536687 195.424624 
L 127.99155 188.407219 
L 123.503608 179.536819 
L 118.632687 171.429785 
L 118.603213 170.666419 
L 118.558759 161.796019 
L 118.632687 159.709645 
L 122.292416 152.925619 
L 127.011196 144.055219 
L 130.039321 135.184819 
L 130.536687 133.789437 
L 139.233683 126.314419 
L 142.440687 124.978735 
L 154.344687 119.772507 
L 160.416381 117.444019 
L 166.248687 117.310647 
L 178.152687 117.31049 
L 190.056688 117.337184 
L 201.960688 117.421137 
L 202.299027 117.444019 
L 213.864688 125.075721 
L 214.58705 126.314419 
L 220.566564 135.184819 
L 225.768687 140.850681 
L 225.849452 144.055219 
L 226.153643 152.925619 
L 226.589387 161.796019 
L 226.444094 170.666419 
L 225.768687 174.536779 
L 216.065837 179.536819 
L 213.864688 180.032106 
L 201.960688 184.104451 
L 193.231764 188.407219 
L 190.056688 189.366855 
L 180.555607 192.588838 
" style="fill:none;stroke:#bade28;stroke-width:1.5;"/>
   </g>
   <g id="LineCollection_19">
    <path clip-path="url(#p72e4750bd7)" d="M 158.192593 200.248787 
L 154.344687 201.171669 
L 142.440687 200.870209 
L 132.013313 197.277619 
L 130.536687 196.305526 
L 127.672056 188.407219 
L 122.864292 179.536819 
L 118.632687 172.493847 
L 118.562129 170.666419 
L 118.5096 161.796019 
L 118.632687 158.322284 
L 121.543987 152.925619 
L 126.640923 144.055219 
L 129.906334 135.184819 
L 130.536687 133.416338 
L 138.79959 126.314419 
L 142.440687 124.79794 
L 154.344687 119.181557 
L 158.875439 117.444019 
L 166.248687 117.275409 
L 178.152687 117.273363 
L 190.056688 117.31039 
L 201.960688 117.409515 
L 202.470881 117.444019 
L 213.864688 124.962322 
L 214.65318 126.314419 
L 221.074632 135.184819 
L 225.768687 140.297321 
L 225.863398 144.055219 
L 226.19805 152.925619 
L 226.688649 161.796019 
L 226.59054 170.666419 
L 225.768687 175.375978 
L 217.694349 179.536819 
L 213.864688 180.398543 
L 201.960688 184.73853 
L 194.518105 188.407219 
L 190.056688 189.755639 
L 182.140263 192.617647 
" style="fill:none;stroke:#dde318;stroke-width:1.5;"/>
   </g>
   <g id="LineCollection_20">
    <path clip-path="url(#p72e4750bd7)" d="M 159.787756 200.34447 
L 154.344687 201.724426 
L 142.440687 201.331232 
L 130.675209 197.277619 
L 130.536687 197.186427 
L 127.352563 188.407219 
L 122.224976 179.536819 
L 118.632687 173.557908 
L 118.521045 170.666419 
L 118.46044 161.796019 
L 118.632687 156.934923 
L 120.795557 152.925619 
L 126.270649 144.055219 
L 129.773348 135.184819 
L 130.536687 133.043238 
L 138.365498 126.314419 
L 142.440687 124.617145 
L 154.344687 118.590607 
L 157.334496 117.444019 
L 166.248687 117.240171 
L 178.152687 117.236235 
L 190.056688 117.283596 
L 201.960688 117.397893 
L 202.642734 117.444019 
L 213.864688 124.848923 
L 214.71931 126.314419 
L 221.5827 135.184819 
L 225.768687 139.743961 
L 225.877344 144.055219 
L 226.242457 152.925619 
L 226.787911 161.796019 
L 226.736987 170.666419 
L 225.768687 176.215177 
L 219.32286 179.536819 
L 213.864688 180.764979 
L 201.960688 185.372609 
L 195.804445 188.407219 
L 190.056688 190.144424 
L 183.700825 192.584681 
" style="fill:none;stroke:#fde725;stroke-width:1.5;"/>
   </g>
   <g id="LineCollection_21">
    <path clip-path="url(#p72e4750bd7)" d="M 168.639064 117.203763 
L 178.152687 117.199107 
L 190.056688 117.256802 
L 201.960688 117.386271 
L 202.814587 117.444019 
L 213.864688 124.735524 
L 214.78544 126.314419 
L 222.090769 135.184819 
L 225.768687 139.190602 
L 225.891291 144.055219 
L 226.286864 152.925619 
L 226.887174 161.796019 
L 226.883433 170.666419 
L 225.768687 177.054376 
L 220.951372 179.536819 
L 213.864688 181.131416 
L 201.960688 186.006688 
L 197.090786 188.407219 
L 190.056688 190.533208 
L 178.152687 195.370378 
L 173.580371 197.277619 
L 166.248687 199.096307 
L 154.344687 202.277183 
L 142.440687 201.792255 
L 130.536687 197.551946 
L 130.415783 197.277619 
L 127.033069 188.407219 
L 121.585659 179.536819 
L 118.632687 174.621969 
L 118.479961 170.666419 
L 118.411281 161.796019 
L 118.632687 155.547562 
L 120.047128 152.925619 
L 125.900376 144.055219 
L 129.640361 135.184819 
L 130.536687 132.670138 
L 137.931406 126.314419 
L 141.64013 124.769774 
" style="fill:none;stroke:#440154;stroke-width:1.5;"/>
   </g>
   <g id="LineCollection_22">
    <path clip-path="url(#p72e4750bd7)" d="M 114.191402 181.54864 
L 113.589971 179.536819 
L 111.084834 170.666419 
L 109.562578 161.796019 
L 110.947621 152.925619 
L 114.888429 144.055219 
L 117.652647 135.184819 
L 118.632687 131.41763 
L 123.953352 126.314419 
L 130.307164 117.444019 
L 130.536687 117.289571 
L 142.440687 115.42056 
L 154.344687 112.79436 
L 166.248687 110.862109 
L 178.152687 110.51612 
L 190.056688 112.43392 
L 201.960688 115.294272 
L 213.864688 116.984697 
L 214.421419 117.444019 
L 225.768687 126.262386 
L 225.776747 126.314419 
L 226.329305 135.184819 
L 228.401636 144.055219 
L 234.280107 152.925619 
L 237.672687 157.512547 
L 237.750024 161.796019 
L 237.959294 170.666419 
L 238.141222 179.536819 
L 237.821024 188.407219 
L 237.672687 189.478492 
L 226.036572 197.277619 
L 225.768687 197.334466 
L 213.864688 199.804694 
L 202.015317 206.148019 
L 201.960688 206.165482 
L 190.056688 209.785677 
L 179.853881 215.018419 
L 178.152687 215.535727 
L 166.248687 219.437428 
L 154.344687 221.936235 
L 142.440687 220.179992 
L 130.536687 216.491592 
L 129.70078 215.018419 
L 126.440629 210.44722 
" style="fill:none;stroke:#440154;stroke-width:1.5;"/>
   </g>
   <g id="LineCollection_23">
    <path clip-path="url(#p72e4750bd7)" d="M 115.5945 209.102473 
L 114.444551 206.148019 
L 106.728687 197.735531 
L 106.693154 197.277619 
L 106.110843 188.407219 
L 105.252168 179.536819 
L 104.364027 170.666419 
L 103.820183 161.796019 
L 103.941152 152.925619 
L 104.763623 144.055219 
L 106.185249 135.184819 
L 106.728687 132.552335 
L 112.731897 126.314419 
L 117.75636 117.444019 
L 118.632687 115.589 
L 128.318186 108.573619 
L 130.536687 108.019901 
L 142.440687 106.761282 
L 154.344687 105.5827 
L 166.248687 105.141362 
L 178.152687 104.75381 
L 190.056688 105.110303 
L 201.960688 107.281216 
L 211.401882 108.573619 
L 213.864688 109.838834 
L 223.082734 117.444019 
L 225.768687 119.531369 
L 226.819307 126.314419 
L 232.170393 135.184819 
L 237.672687 140.497964 
L 237.792563 144.055219 
L 238.302545 152.925619 
L 239.701238 161.796019 
L 242.811267 170.666419 
L 247.156682 179.536819 
L 248.418147 188.407219 
L 244.568827 197.277619 
L 239.270857 206.148019 
L 237.672687 207.532482 
L 225.768687 209.388534 
L 216.007876 215.018419 
L 213.864688 215.805056 
L 201.960688 221.492798 
L 197.668715 223.888819 
L 190.056688 226.520199 
L 178.789802 232.759219 
L 178.152687 232.975706 
L 166.248687 236.592437 
L 154.344687 236.580783 
L 142.440687 235.28226 
L 137.704669 234.289018 
" style="fill:none;stroke:#440154;stroke-width:1.5;"/>
   </g>
   <g id="LineCollection_24">
    <path clip-path="url(#p72e4750bd7)" d="M 135.330997 245.977904 
L 130.536687 243.912256 
L 128.61374 241.629619 
L 118.632687 233.476437 
L 118.469163 232.759219 
L 115.874532 223.888819 
L 106.728687 215.38257 
L 106.68947 215.018419 
L 105.723631 206.148019 
L 102.94004 197.277619 
L 96.752922 188.407219 
L 94.824687 185.327341 
L 94.687756 179.536819 
L 94.426065 170.666419 
L 94.185019 161.796019 
L 94.138673 152.925619 
L 94.296868 144.055219 
L 94.706133 135.184819 
L 94.824687 133.977446 
L 101.263854 126.314419 
L 105.831447 117.444019 
L 106.728687 115.44852 
L 114.381595 108.573619 
L 118.632687 104.222412 
L 126.671503 99.703219 
L 130.536687 99.129879 
L 142.440687 97.970109 
L 154.344687 97.108971 
L 166.248687 96.792555 
L 178.152687 96.686744 
L 190.056688 97.004077 
L 201.960688 98.803517 
L 208.271567 99.703219 
L 213.864688 102.825435 
L 220.625385 108.573619 
L 225.768687 112.43592 
L 227.170358 117.444019 
L 237.244909 126.314419 
L 237.672687 126.698823 
L 238.088858 135.184819 
L 239.69327 144.055219 
L 244.880299 152.925619 
L 249.576687 158.169009 
L 249.629511 161.796019 
L 249.866078 170.666419 
L 250.459075 179.536819 
L 251.438456 188.407219 
L 252.012896 197.277619 
L 250.931758 206.148019 
L 249.576687 212.118706 
L 245.87009 215.018419 
L 237.672687 218.328672 
L 226.290063 223.888819 
L 225.768687 224.021714 
L 213.864688 229.564759 
L 208.822867 232.759219 
L 201.960688 235.878405 
L 192.358581 241.629619 
L 190.056688 242.491411 
L 178.152687 248.104396 
L 173.963559 249.676545 
" style="fill:none;stroke:#440154;stroke-width:1.5;"/>
   </g>
   <g id="LineCollection_25">
    <path clip-path="url(#p72e4750bd7)" d="M 126.411268 90.728149 
L 130.536687 90.261816 
L 142.440687 89.209818 
L 154.344687 88.361902 
L 166.248687 88.225009 
L 178.152687 88.345921 
L 190.056688 88.817746 
L 201.960688 90.292712 
L 205.530974 90.832819 
L 213.864688 95.578709 
L 219.498459 99.703219 
L 225.768687 104.426018 
L 227.28723 108.573619 
L 237.672687 117.075922 
L 237.705652 117.444019 
L 238.508205 126.314419 
L 242.683366 135.184819 
L 249.576687 141.90514 
L 249.611059 144.055219 
L 249.852704 152.925619 
L 250.699065 161.796019 
L 253.228884 170.666419 
L 259.526343 179.536819 
L 261.480687 182.340031 
L 261.528225 188.407219 
L 261.632734 197.277619 
L 261.652955 206.148019 
L 261.480687 208.928154 
L 255.364697 215.018419 
L 250.346713 223.888819 
L 249.576687 226.460452 
L 237.672687 231.256264 
L 235.033381 232.759219 
L 225.768687 236.075568 
L 217.512646 241.629619 
L 213.864688 243.455212 
L 203.0605 250.500019 
L 201.960688 250.963423 
L 190.056688 256.330621 
L 185.107784 259.370419 
L 178.152687 261.684713 
L 166.248687 261.564632 
L 154.344687 260.701069 
L 142.440687 260.022126 
L 137.955845 259.370419 
L 130.536687 255.822021 
L 125.833572 250.500019 
L 118.632687 244.761463 
L 117.90569 241.629619 
L 112.415447 232.759219 
L 106.728687 227.666069 
L 106.293328 223.888819 
L 103.66931 215.018419 
L 94.824687 206.452817 
L 94.805631 206.148019 
L 94.368011 197.277619 
L 93.280445 188.407219 
L 91.153165 179.536819 
L 88.000303 170.666419 
L 85.055018 161.796019 
L 84.206822 152.925619 
L 85.387358 144.055219 
L 87.655387 135.184819 
L 90.7935 126.314419 
L 93.887388 117.444019 
L 94.124667 116.78757 
" style="fill:none;stroke:#440154;stroke-width:1.5;"/>
   </g>
   <g id="LineCollection_26">
    <path clip-path="url(#p72e4750bd7)" d="M 105.217786 231.990705 
L 100.044253 223.888819 
L 94.824687 219.085246 
L 94.504701 215.018419 
L 92.97699 206.148019 
L 88.541353 197.277619 
L 82.920687 190.733754 
L 82.853776 188.407219 
L 82.562139 179.536819 
L 82.018608 170.666419 
L 81.203776 161.796019 
L 80.577589 152.925619 
L 80.589835 144.055219 
L 81.038717 135.184819 
L 81.640659 126.314419 
L 82.469244 117.444019 
L 82.920687 114.424552 
L 88.838087 108.573619 
L 94.390962 99.703219 
L 94.824687 99.0155 
L 104.997545 90.832819 
L 106.728687 89.726369 
L 118.632687 84.00098 
L 123.429436 81.962419 
L 130.536687 81.350105 
L 142.440687 80.436499 
L 154.344687 79.727654 
L 166.248687 79.780594 
L 178.152687 79.904325 
L 190.056688 80.421429 
L 201.960688 81.70322 
L 203.619029 81.962419 
L 213.864688 87.818913 
L 218.532158 90.832819 
L 225.768687 96.216749 
L 227.266569 99.703219 
L 237.672687 108.078789 
L 237.727781 108.573619 
L 238.908889 117.444019 
L 246.897809 126.314419 
L 249.576687 128.736775 
L 249.697172 135.184819 
L 250.327118 144.055219 
L 252.825092 152.925619 
L 261.394606 161.796019 
L 261.480687 161.889627 
L 261.553611 170.666419 
L 261.811155 179.536819 
L 262.547248 188.407219 
L 264.020705 197.277619 
L 265.347331 206.148019 
L 263.50529 215.018419 
L 261.601748 223.888819 
L 261.480687 224.50794 
L 252.371539 232.759219 
L 249.576687 239.739471 
L 245.478968 241.629619 
L 237.672687 242.966883 
L 226.051929 250.500019 
L 225.768687 250.614659 
L 213.864688 256.432745 
L 209.366172 259.370419 
L 201.960688 262.31734 
L 192.779633 268.240819 
L 190.056688 269.34871 
L 178.152687 272.642896 
L 166.248687 271.462225 
L 154.344687 270.406338 
L 142.440687 269.648936 
L 131.010031 268.323725 
" style="fill:none;stroke:#450457;stroke-width:1.5;"/>
   </g>
   <g id="LineCollection_27">
    <path clip-path="url(#p72e4750bd7)" d="M 130.089263 277.111219 
L 118.632687 268.260445 
L 118.628381 268.240819 
L 116.60869 259.370419 
L 106.728687 251.097218 
L 106.644852 250.500019 
L 104.947051 241.629619 
L 99.726609 237.081723 
" style="fill:none;stroke:#482475;stroke-width:1.5;"/>
    <path clip-path="url(#p72e4750bd7)" d="M 81.580107 192.865674 
L 80.902766 188.407219 
L 77.887993 179.536819 
L 72.223498 170.666419 
L 71.016687 168.656477 
L 70.929157 161.796019 
L 70.820064 152.925619 
L 70.772938 144.055219 
L 70.823317 135.184819 
L 70.919512 126.314419 
L 71.016687 120.273022 
L 72.488094 117.444019 
L 78.340468 108.573619 
L 82.270078 99.703219 
L 82.920687 98.242548 
L 91.575447 90.832819 
L 94.824687 86.884879 
L 101.659951 81.962419 
L 106.728687 79.915418 
L 118.632687 73.944885 
L 120.913681 73.092019 
L 130.536687 72.401999 
L 142.440687 71.610408 
L 154.344687 71.170574 
L 166.248687 71.342559 
L 178.152687 71.383494 
L 190.056688 71.964228 
L 201.960688 73.045441 
L 202.256106 73.092019 
L 213.864688 79.887695 
L 217.47796 81.962419 
L 225.768687 88.061987 
L 227.116607 90.832819 
L 237.672687 99.232226 
L 237.733762 99.703219 
L 239.228152 108.573619 
L 249.576687 117.300527 
L 249.580468 117.444019 
L 249.801756 126.314419 
L 251.114697 135.184819 
L 257.487707 144.055219 
L 261.480687 147.961014 
L 261.522719 152.925619 
L 261.731996 161.796019 
L 262.519975 170.666419 
L 265.188628 179.536819 
L 272.737475 188.407219 
L 273.384688 189.246363 
L 273.434098 197.277619 
L 273.543312 206.148019 
L 273.537749 215.018419 
L 273.384688 218.08673 
L 267.314703 223.888819 
L 262.484661 232.759219 
L 261.480687 237.316024 
L 256.597184 241.629619 
L 249.850427 250.500019 
L 249.576687 250.760541 
L 237.672687 254.082654 
L 229.635321 259.370419 
L 225.768687 260.917605 
L 214.714481 268.240819 
L 213.864688 268.578389 
L 201.960688 274.233587 
L 197.606135 277.111219 
" style="fill:none;stroke:#482475;stroke-width:1.5;"/>
   </g>
   <g id="LineCollection_28">
    <path clip-path="url(#p72e4750bd7)" d="M 118.55904 277.111219 
L 116.054193 268.240819 
L 106.728687 260.508082 
L 106.560861 259.370419 
L 104.157998 250.500019 
L 94.824687 242.552024 
L 94.715451 241.629619 
L 93.24194 232.759219 
L 84.977651 223.888819 
L 82.920687 222.001972 
L 82.403934 215.018419 
L 80.438359 206.148019 
L 74.831693 197.277619 
L 71.016687 192.750158 
L 70.906364 188.407219 
L 70.55825 179.536819 
L 69.895411 170.666419 
L 68.877052 162.044276 
" style="fill:none;stroke:#fde725;stroke-width:1.5;"/>
    <path clip-path="url(#p72e4750bd7)" d="M 69.649856 108.317334 
L 70.725451 99.703219 
L 71.016687 98.203785 
L 79.085488 90.832819 
L 82.920687 84.285504 
L 85.77247 81.962419 
L 94.824687 75.034992 
L 97.765678 73.092019 
L 106.728687 70.049123 
L 118.632687 64.293563 
L 118.828854 64.221619 
L 130.536687 63.415963 
L 142.440687 62.822292 
L 154.344687 62.598854 
L 166.248687 62.86449 
L 178.152687 62.844695 
L 190.056688 63.510535 
L 197.71139 64.221619 
L 201.960688 66.287455 
L 213.864688 71.869139 
L 216.307835 73.092019 
L 225.768687 79.984526 
L 226.860371 81.962419 
L 237.672687 90.487516 
L 237.722224 90.832819 
L 239.347466 99.703219 
L 249.576687 108.159706 
L 249.589745 108.573619 
L 249.91385 117.444019 
L 252.126678 126.314419 
L 261.480687 134.629447 
L 261.486897 135.184819 
L 261.599531 144.055219 
L 262.11571 152.925619 
L 264.247105 161.796019 
L 272.183618 170.666419 
L 273.384688 171.916936 
L 273.435175 179.536819 
L 273.631373 188.407219 
L 274.24695 197.277619 
L 275.57061 206.148019 
L 276.261853 215.018419 
L 274.504591 223.888819 
L 273.468635 232.759219 
L 273.384688 233.445756 
L 264.592454 241.629619 
L 261.662559 250.500019 
L 261.480687 251.11555 
L 250.891866 259.370419 
L 249.576687 260.181107 
L 237.672687 265.678523 
L 233.797181 268.240819 
L 225.768687 271.448483 
L 217.18597 277.111219 
" style="fill:none;stroke:#fde725;stroke-width:1.5;"/>
   </g>
   <g id="line2d_20">
    <path clip-path="url(#p72e4750bd7)" d="M 406.987188 198.185265 
L 385.862814 204.49151 
L 358.975733 212.80442 
L 336.391945 219.673609 
L 317.30066 225.418173 
L 301.336667 230.048878 
L 287.844628 233.5553 
L 276.459258 236.21676 
L 266.822186 238.099667 
L 258.638935 239.401098 
L 251.70158 240.167202 
L 245.737546 240.430725 
L 240.465605 240.058081 
L 235.945667 239.351914 
L 231.940639 238.14972 
L 228.392876 236.971139 
L 225.261078 235.142193 
L 222.433864 233.218959 
L 219.922758 231.180191 
L 217.601669 228.924094 
L 215.46879 226.403059 
L 213.530554 223.935966 
L 211.760052 221.252096 
L 210.074538 218.493291 
L 208.590232 215.798166 
L 207.180163 213.018367 
L 205.823278 210.084469 
L 204.572411 206.972073 
L 203.475082 204.146522 
L 202.31165 201.149725 
L 201.39053 198.197352 
L 200.356589 195.23503 
L 199.542366 192.162545 
L 198.664831 189.247186 
L 197.8612 186.279897 
L 197.129383 183.34284 
L 196.417945 180.583169 
L 195.648093 177.647279 
L 194.904599 174.616706 
L 194.308254 171.752586 
L 193.726375 168.835975 
L 192.917393 165.820265 
L 192.211776 162.233569 
L 191.493405 158.553539 
L 191.530967 157.656133 
L 191.620195 156.852394 
L 191.709853 156.152318 
L 191.805967 155.474 
L 191.902424 154.827816 
L 192.002157 154.188197 
L 192.093286 153.577532 
L 192.184918 153.008238 
L 192.265183 152.4554 
L 192.333168 151.882784 
L 192.420661 151.328325 
L 192.481761 150.803806 
L 192.546482 150.259093 
L 192.605475 149.763495 
L 192.672461 149.243125 
L 192.714137 148.743748 
L 192.764869 148.272442 
L 192.823553 147.768695 
L 192.851686 147.332791 
L 192.888782 146.865063 
L 192.94405 146.404022 
L 192.971542 145.946669 
L 192.974052 145.500481 
L 193.004876 145.015693 
L 193.005171 144.531724 
L 193.030674 144.444562 
L 193.062251 144.356559 
L 193.096011 144.291485 
L 193.131428 144.229195 
L 193.170458 144.186556 
L 193.206586 144.145943 
L 193.244543 144.113063 
L 193.285185 144.085908 
L 193.328517 144.055899 
L 193.368497 144.035071 
L 193.410875 144.022687 
L 193.453924 144.006677 
L 193.49588 144.001919 
L 193.536638 143.996982 
L 193.579237 143.995851 
L 193.623014 143.987663 
L 193.665912 143.991794 
L 193.707378 143.99417 
L 193.752661 144.00164 
L 193.799345 144.002431 
L 193.844409 144.011476 
L 193.888369 144.023117 
L 193.932237 144.032489 
L 193.978367 144.048703 
" style="fill:none;stroke:#1f77b4;stroke-linecap:square;stroke-width:1.5;"/>
    <defs>
     <path d="M 0 1.5 
C 0.397805 1.5 0.77937 1.341951 1.06066 1.06066 
C 1.341951 0.77937 1.5 0.397805 1.5 0 
C 1.5 -0.397805 1.341951 -0.77937 1.06066 -1.06066 
C 0.77937 -1.341951 0.397805 -1.5 0 -1.5 
C -0.397805 -1.5 -0.77937 -1.341951 -1.06066 -1.06066 
C -1.341951 -0.77937 -1.5 -0.397805 -1.5 0 
C -1.5 0.397805 -1.341951 0.77937 -1.06066 1.06066 
C -0.77937 1.341951 -0.397805 1.5 0 1.5 
z
" id="m36e526ee9b" style="stroke:#1f77b4;"/>
    </defs>
    <g clip-path="url(#p72e4750bd7)">
     <use style="fill:#1f77b4;stroke:#1f77b4;" x="791.339469" xlink:href="#m36e526ee9b" y="106.945852"/>
     <use style="fill:#1f77b4;stroke:#1f77b4;" x="699.299742" xlink:href="#m36e526ee9b" y="125.349891"/>
     <use style="fill:#1f77b4;stroke:#1f77b4;" x="621.91572" xlink:href="#m36e526ee9b" y="142.580377"/>
     <use style="fill:#1f77b4;stroke:#1f77b4;" x="556.788595" xlink:href="#m36e526ee9b" y="157.93987"/>
     <use style="fill:#1f77b4;stroke:#1f77b4;" x="502.156271" xlink:href="#m36e526ee9b" y="171.923478"/>
     <use style="fill:#1f77b4;stroke:#1f77b4;" x="456.300248" xlink:href="#m36e526ee9b" y="184.091998"/>
     <use style="fill:#1f77b4;stroke:#1f77b4;" x="417.979404" xlink:href="#m36e526ee9b" y="194.903766"/>
     <use style="fill:#1f77b4;stroke:#1f77b4;" x="385.862814" xlink:href="#m36e526ee9b" y="204.49151"/>
     <use style="fill:#1f77b4;stroke:#1f77b4;" x="358.975733" xlink:href="#m36e526ee9b" y="212.80442"/>
     <use style="fill:#1f77b4;stroke:#1f77b4;" x="336.391945" xlink:href="#m36e526ee9b" y="219.673609"/>
     <use style="fill:#1f77b4;stroke:#1f77b4;" x="317.30066" xlink:href="#m36e526ee9b" y="225.418173"/>
     <use style="fill:#1f77b4;stroke:#1f77b4;" x="301.336667" xlink:href="#m36e526ee9b" y="230.048878"/>
     <use style="fill:#1f77b4;stroke:#1f77b4;" x="287.844628" xlink:href="#m36e526ee9b" y="233.5553"/>
     <use style="fill:#1f77b4;stroke:#1f77b4;" x="276.459258" xlink:href="#m36e526ee9b" y="236.21676"/>
     <use style="fill:#1f77b4;stroke:#1f77b4;" x="266.822186" xlink:href="#m36e526ee9b" y="238.099667"/>
     <use style="fill:#1f77b4;stroke:#1f77b4;" x="258.638935" xlink:href="#m36e526ee9b" y="239.401098"/>
     <use style="fill:#1f77b4;stroke:#1f77b4;" x="251.70158" xlink:href="#m36e526ee9b" y="240.167202"/>
     <use style="fill:#1f77b4;stroke:#1f77b4;" x="245.737546" xlink:href="#m36e526ee9b" y="240.430725"/>
     <use style="fill:#1f77b4;stroke:#1f77b4;" x="240.465605" xlink:href="#m36e526ee9b" y="240.058081"/>
     <use style="fill:#1f77b4;stroke:#1f77b4;" x="235.945667" xlink:href="#m36e526ee9b" y="239.351914"/>
     <use style="fill:#1f77b4;stroke:#1f77b4;" x="231.940639" xlink:href="#m36e526ee9b" y="238.14972"/>
     <use style="fill:#1f77b4;stroke:#1f77b4;" x="228.392876" xlink:href="#m36e526ee9b" y="236.971139"/>
     <use style="fill:#1f77b4;stroke:#1f77b4;" x="225.261078" xlink:href="#m36e526ee9b" y="235.142193"/>
     <use style="fill:#1f77b4;stroke:#1f77b4;" x="222.433864" xlink:href="#m36e526ee9b" y="233.218959"/>
     <use style="fill:#1f77b4;stroke:#1f77b4;" x="219.922758" xlink:href="#m36e526ee9b" y="231.180191"/>
     <use style="fill:#1f77b4;stroke:#1f77b4;" x="217.601669" xlink:href="#m36e526ee9b" y="228.924094"/>
     <use style="fill:#1f77b4;stroke:#1f77b4;" x="215.46879" xlink:href="#m36e526ee9b" y="226.403059"/>
     <use style="fill:#1f77b4;stroke:#1f77b4;" x="213.530554" xlink:href="#m36e526ee9b" y="223.935966"/>
     <use style="fill:#1f77b4;stroke:#1f77b4;" x="211.760052" xlink:href="#m36e526ee9b" y="221.252096"/>
     <use style="fill:#1f77b4;stroke:#1f77b4;" x="210.074538" xlink:href="#m36e526ee9b" y="218.493291"/>
     <use style="fill:#1f77b4;stroke:#1f77b4;" x="208.590232" xlink:href="#m36e526ee9b" y="215.798166"/>
     <use style="fill:#1f77b4;stroke:#1f77b4;" x="207.180163" xlink:href="#m36e526ee9b" y="213.018367"/>
     <use style="fill:#1f77b4;stroke:#1f77b4;" x="205.823278" xlink:href="#m36e526ee9b" y="210.084469"/>
     <use style="fill:#1f77b4;stroke:#1f77b4;" x="204.572411" xlink:href="#m36e526ee9b" y="206.972073"/>
     <use style="fill:#1f77b4;stroke:#1f77b4;" x="203.475082" xlink:href="#m36e526ee9b" y="204.146522"/>
     <use style="fill:#1f77b4;stroke:#1f77b4;" x="202.31165" xlink:href="#m36e526ee9b" y="201.149725"/>
     <use style="fill:#1f77b4;stroke:#1f77b4;" x="201.39053" xlink:href="#m36e526ee9b" y="198.197352"/>
     <use style="fill:#1f77b4;stroke:#1f77b4;" x="200.356589" xlink:href="#m36e526ee9b" y="195.23503"/>
     <use style="fill:#1f77b4;stroke:#1f77b4;" x="199.542366" xlink:href="#m36e526ee9b" y="192.162545"/>
     <use style="fill:#1f77b4;stroke:#1f77b4;" x="198.664831" xlink:href="#m36e526ee9b" y="189.247186"/>
     <use style="fill:#1f77b4;stroke:#1f77b4;" x="197.8612" xlink:href="#m36e526ee9b" y="186.279897"/>
     <use style="fill:#1f77b4;stroke:#1f77b4;" x="197.129383" xlink:href="#m36e526ee9b" y="183.34284"/>
     <use style="fill:#1f77b4;stroke:#1f77b4;" x="196.417945" xlink:href="#m36e526ee9b" y="180.583169"/>
     <use style="fill:#1f77b4;stroke:#1f77b4;" x="195.648093" xlink:href="#m36e526ee9b" y="177.647279"/>
     <use style="fill:#1f77b4;stroke:#1f77b4;" x="194.904599" xlink:href="#m36e526ee9b" y="174.616706"/>
     <use style="fill:#1f77b4;stroke:#1f77b4;" x="194.308254" xlink:href="#m36e526ee9b" y="171.752586"/>
     <use style="fill:#1f77b4;stroke:#1f77b4;" x="193.726375" xlink:href="#m36e526ee9b" y="168.835975"/>
     <use style="fill:#1f77b4;stroke:#1f77b4;" x="192.917393" xlink:href="#m36e526ee9b" y="165.820265"/>
     <use style="fill:#1f77b4;stroke:#1f77b4;" x="192.211776" xlink:href="#m36e526ee9b" y="162.233569"/>
     <use style="fill:#1f77b4;stroke:#1f77b4;" x="191.493405" xlink:href="#m36e526ee9b" y="158.553539"/>
     <use style="fill:#1f77b4;stroke:#1f77b4;" x="191.530967" xlink:href="#m36e526ee9b" y="157.656133"/>
     <use style="fill:#1f77b4;stroke:#1f77b4;" x="191.620195" xlink:href="#m36e526ee9b" y="156.852394"/>
     <use style="fill:#1f77b4;stroke:#1f77b4;" x="191.709853" xlink:href="#m36e526ee9b" y="156.152318"/>
     <use style="fill:#1f77b4;stroke:#1f77b4;" x="191.805967" xlink:href="#m36e526ee9b" y="155.474"/>
     <use style="fill:#1f77b4;stroke:#1f77b4;" x="191.902424" xlink:href="#m36e526ee9b" y="154.827816"/>
     <use style="fill:#1f77b4;stroke:#1f77b4;" x="192.002157" xlink:href="#m36e526ee9b" y="154.188197"/>
     <use style="fill:#1f77b4;stroke:#1f77b4;" x="192.093286" xlink:href="#m36e526ee9b" y="153.577532"/>
     <use style="fill:#1f77b4;stroke:#1f77b4;" x="192.184918" xlink:href="#m36e526ee9b" y="153.008238"/>
     <use style="fill:#1f77b4;stroke:#1f77b4;" x="192.265183" xlink:href="#m36e526ee9b" y="152.4554"/>
     <use style="fill:#1f77b4;stroke:#1f77b4;" x="192.333168" xlink:href="#m36e526ee9b" y="151.882784"/>
     <use style="fill:#1f77b4;stroke:#1f77b4;" x="192.420661" xlink:href="#m36e526ee9b" y="151.328325"/>
     <use style="fill:#1f77b4;stroke:#1f77b4;" x="192.481761" xlink:href="#m36e526ee9b" y="150.803806"/>
     <use style="fill:#1f77b4;stroke:#1f77b4;" x="192.546482" xlink:href="#m36e526ee9b" y="150.259093"/>
     <use style="fill:#1f77b4;stroke:#1f77b4;" x="192.605475" xlink:href="#m36e526ee9b" y="149.763495"/>
     <use style="fill:#1f77b4;stroke:#1f77b4;" x="192.672461" xlink:href="#m36e526ee9b" y="149.243125"/>
     <use style="fill:#1f77b4;stroke:#1f77b4;" x="192.714137" xlink:href="#m36e526ee9b" y="148.743748"/>
     <use style="fill:#1f77b4;stroke:#1f77b4;" x="192.764869" xlink:href="#m36e526ee9b" y="148.272442"/>
     <use style="fill:#1f77b4;stroke:#1f77b4;" x="192.823553" xlink:href="#m36e526ee9b" y="147.768695"/>
     <use style="fill:#1f77b4;stroke:#1f77b4;" x="192.851686" xlink:href="#m36e526ee9b" y="147.332791"/>
     <use style="fill:#1f77b4;stroke:#1f77b4;" x="192.888782" xlink:href="#m36e526ee9b" y="146.865063"/>
     <use style="fill:#1f77b4;stroke:#1f77b4;" x="192.94405" xlink:href="#m36e526ee9b" y="146.404022"/>
     <use style="fill:#1f77b4;stroke:#1f77b4;" x="192.971542" xlink:href="#m36e526ee9b" y="145.946669"/>
     <use style="fill:#1f77b4;stroke:#1f77b4;" x="192.974052" xlink:href="#m36e526ee9b" y="145.500481"/>
     <use style="fill:#1f77b4;stroke:#1f77b4;" x="193.004876" xlink:href="#m36e526ee9b" y="145.015693"/>
     <use style="fill:#1f77b4;stroke:#1f77b4;" x="193.005171" xlink:href="#m36e526ee9b" y="144.531724"/>
     <use style="fill:#1f77b4;stroke:#1f77b4;" x="193.030674" xlink:href="#m36e526ee9b" y="144.444562"/>
     <use style="fill:#1f77b4;stroke:#1f77b4;" x="193.062251" xlink:href="#m36e526ee9b" y="144.356559"/>
     <use style="fill:#1f77b4;stroke:#1f77b4;" x="193.096011" xlink:href="#m36e526ee9b" y="144.291485"/>
     <use style="fill:#1f77b4;stroke:#1f77b4;" x="193.131428" xlink:href="#m36e526ee9b" y="144.229195"/>
     <use style="fill:#1f77b4;stroke:#1f77b4;" x="193.170458" xlink:href="#m36e526ee9b" y="144.186556"/>
     <use style="fill:#1f77b4;stroke:#1f77b4;" x="193.206586" xlink:href="#m36e526ee9b" y="144.145943"/>
     <use style="fill:#1f77b4;stroke:#1f77b4;" x="193.244543" xlink:href="#m36e526ee9b" y="144.113063"/>
     <use style="fill:#1f77b4;stroke:#1f77b4;" x="193.285185" xlink:href="#m36e526ee9b" y="144.085908"/>
     <use style="fill:#1f77b4;stroke:#1f77b4;" x="193.328517" xlink:href="#m36e526ee9b" y="144.055899"/>
     <use style="fill:#1f77b4;stroke:#1f77b4;" x="193.368497" xlink:href="#m36e526ee9b" y="144.035071"/>
     <use style="fill:#1f77b4;stroke:#1f77b4;" x="193.410875" xlink:href="#m36e526ee9b" y="144.022687"/>
     <use style="fill:#1f77b4;stroke:#1f77b4;" x="193.453924" xlink:href="#m36e526ee9b" y="144.006677"/>
     <use style="fill:#1f77b4;stroke:#1f77b4;" x="193.49588" xlink:href="#m36e526ee9b" y="144.001919"/>
     <use style="fill:#1f77b4;stroke:#1f77b4;" x="193.536638" xlink:href="#m36e526ee9b" y="143.996982"/>
     <use style="fill:#1f77b4;stroke:#1f77b4;" x="193.579237" xlink:href="#m36e526ee9b" y="143.995851"/>
     <use style="fill:#1f77b4;stroke:#1f77b4;" x="193.623014" xlink:href="#m36e526ee9b" y="143.987663"/>
     <use style="fill:#1f77b4;stroke:#1f77b4;" x="193.665912" xlink:href="#m36e526ee9b" y="143.991794"/>
     <use style="fill:#1f77b4;stroke:#1f77b4;" x="193.707378" xlink:href="#m36e526ee9b" y="143.99417"/>
     <use style="fill:#1f77b4;stroke:#1f77b4;" x="193.752661" xlink:href="#m36e526ee9b" y="144.00164"/>
     <use style="fill:#1f77b4;stroke:#1f77b4;" x="193.799345" xlink:href="#m36e526ee9b" y="144.002431"/>
     <use style="fill:#1f77b4;stroke:#1f77b4;" x="193.844409" xlink:href="#m36e526ee9b" y="144.011476"/>
     <use style="fill:#1f77b4;stroke:#1f77b4;" x="193.888369" xlink:href="#m36e526ee9b" y="144.023117"/>
     <use style="fill:#1f77b4;stroke:#1f77b4;" x="193.932237" xlink:href="#m36e526ee9b" y="144.032489"/>
     <use style="fill:#1f77b4;stroke:#1f77b4;" x="193.978367" xlink:href="#m36e526ee9b" y="144.048703"/>
    </g>
   </g>
   <g id="patch_3">
    <path d="M 35.304688 277.111219 
L 35.304688 10.999219 
" style="fill:none;stroke:#000000;stroke-linecap:square;stroke-linejoin:miter;stroke-width:0.8;"/>
   </g>
   <g id="patch_4">
    <path d="M 392.424688 277.111219 
L 392.424688 10.999219 
" style="fill:none;stroke:#000000;stroke-linecap:square;stroke-linejoin:miter;stroke-width:0.8;"/>
   </g>
   <g id="patch_5">
    <path d="M 35.304687 277.111219 
L 392.424688 277.111219 
" style="fill:none;stroke:#000000;stroke-linecap:square;stroke-linejoin:miter;stroke-width:0.8;"/>
   </g>
   <g id="patch_6">
    <path d="M 35.304687 10.999219 
L 392.424688 10.999219 
" style="fill:none;stroke:#000000;stroke-linecap:square;stroke-linejoin:miter;stroke-width:0.8;"/>
   </g>
   <g id="text_20">
    <g clip-path="url(#p72e4750bd7)">
     <!-- 1.500 -->
     <g style="fill:#453781;" transform="translate(199.877849 128.973117)rotate(-303.838531)scale(0.06 -0.06)">
      <defs>
       <path d="M 10.6875 12.40625 
L 21 12.40625 
L 21 0 
L 10.6875 0 
z
" id="DejaVuSans-46"/>
      </defs>
      <use xlink:href="#DejaVuSans-49"/>
      <use x="63.623047" xlink:href="#DejaVuSans-46"/>
      <use x="95.410156" xlink:href="#DejaVuSans-53"/>
      <use x="159.033203" xlink:href="#DejaVuSans-48"/>
      <use x="222.65625" xlink:href="#DejaVuSans-48"/>
     </g>
    </g>
   </g>
   <g id="text_21">
    <g clip-path="url(#p72e4750bd7)">
     <!-- 2.000 -->
     <g style="fill:#404688;" transform="translate(150.740393 157.163097)rotate(-54.753084)scale(0.06 -0.06)">
      <use xlink:href="#DejaVuSans-50"/>
      <use x="63.623047" xlink:href="#DejaVuSans-46"/>
      <use x="95.410156" xlink:href="#DejaVuSans-48"/>
      <use x="159.033203" xlink:href="#DejaVuSans-48"/>
      <use x="222.65625" xlink:href="#DejaVuSans-48"/>
     </g>
    </g>
   </g>
   <g id="text_22">
    <g clip-path="url(#p72e4750bd7)">
     <!-- 2.500 -->
     <g style="fill:#39558c;" transform="translate(142.507886 141.563538)rotate(-35.915046)scale(0.06 -0.06)">
      <use xlink:href="#DejaVuSans-50"/>
      <use x="63.623047" xlink:href="#DejaVuSans-46"/>
      <use x="95.410156" xlink:href="#DejaVuSans-53"/>
      <use x="159.033203" xlink:href="#DejaVuSans-48"/>
      <use x="222.65625" xlink:href="#DejaVuSans-48"/>
     </g>
    </g>
   </g>
   <g id="text_23">
    <g clip-path="url(#p72e4750bd7)">
     <!-- 3.000 -->
     <g style="fill:#33638d;" transform="translate(125.463743 172.411254)rotate(-294.53395)scale(0.06 -0.06)">
      <defs>
       <path d="M 40.578125 39.3125 
Q 47.65625 37.796875 51.625 33 
Q 55.609375 28.21875 55.609375 21.1875 
Q 55.609375 10.40625 48.1875 4.484375 
Q 40.765625 -1.421875 27.09375 -1.421875 
Q 22.515625 -1.421875 17.65625 -0.515625 
Q 12.796875 0.390625 7.625 2.203125 
L 7.625 11.71875 
Q 11.71875 9.328125 16.59375 8.109375 
Q 21.484375 6.890625 26.8125 6.890625 
Q 36.078125 6.890625 40.9375 10.546875 
Q 45.796875 14.203125 45.796875 21.1875 
Q 45.796875 27.640625 41.28125 31.265625 
Q 36.765625 34.90625 28.71875 34.90625 
L 20.21875 34.90625 
L 20.21875 43.015625 
L 29.109375 43.015625 
Q 36.375 43.015625 40.234375 45.921875 
Q 44.09375 48.828125 44.09375 54.296875 
Q 44.09375 59.90625 40.109375 62.90625 
Q 36.140625 65.921875 28.71875 65.921875 
Q 24.65625 65.921875 20.015625 65.03125 
Q 15.375 64.15625 9.8125 62.3125 
L 9.8125 71.09375 
Q 15.4375 72.65625 20.34375 73.4375 
Q 25.25 74.21875 29.59375 74.21875 
Q 40.828125 74.21875 47.359375 69.109375 
Q 53.90625 64.015625 53.90625 55.328125 
Q 53.90625 49.265625 50.4375 45.09375 
Q 46.96875 40.921875 40.578125 39.3125 
z
" id="DejaVuSans-51"/>
      </defs>
      <use xlink:href="#DejaVuSans-51"/>
      <use x="63.623047" xlink:href="#DejaVuSans-46"/>
      <use x="95.410156" xlink:href="#DejaVuSans-48"/>
      <use x="159.033203" xlink:href="#DejaVuSans-48"/>
      <use x="222.65625" xlink:href="#DejaVuSans-48"/>
     </g>
    </g>
   </g>
   <g id="text_24">
    <g clip-path="url(#p72e4750bd7)">
     <!-- 3.500 -->
     <g style="fill:#2d718e;" transform="translate(146.570784 129.690593)rotate(-16.366474)scale(0.06 -0.06)">
      <use xlink:href="#DejaVuSans-51"/>
      <use x="63.623047" xlink:href="#DejaVuSans-46"/>
      <use x="95.410156" xlink:href="#DejaVuSans-53"/>
      <use x="159.033203" xlink:href="#DejaVuSans-48"/>
      <use x="222.65625" xlink:href="#DejaVuSans-48"/>
     </g>
    </g>
   </g>
   <g id="text_25">
    <g clip-path="url(#p72e4750bd7)">
     <!-- 4.000 -->
     <g style="fill:#287d8e;" transform="translate(146.366703 128.676318)rotate(-13.28762)scale(0.06 -0.06)">
      <defs>
       <path d="M 37.796875 64.3125 
L 12.890625 25.390625 
L 37.796875 25.390625 
z
M 35.203125 72.90625 
L 47.609375 72.90625 
L 47.609375 25.390625 
L 58.015625 25.390625 
L 58.015625 17.1875 
L 47.609375 17.1875 
L 47.609375 0 
L 37.796875 0 
L 37.796875 17.1875 
L 4.890625 17.1875 
L 4.890625 26.703125 
z
" id="DejaVuSans-52"/>
      </defs>
      <use xlink:href="#DejaVuSans-52"/>
      <use x="63.623047" xlink:href="#DejaVuSans-46"/>
      <use x="95.410156" xlink:href="#DejaVuSans-48"/>
      <use x="159.033203" xlink:href="#DejaVuSans-48"/>
      <use x="222.65625" xlink:href="#DejaVuSans-48"/>
     </g>
    </g>
   </g>
   <g id="text_26">
    <g clip-path="url(#p72e4750bd7)">
     <!-- 4.500 -->
     <g style="fill:#238a8d;" transform="translate(146.26428 127.848145)rotate(-11.59493)scale(0.06 -0.06)">
      <use xlink:href="#DejaVuSans-52"/>
      <use x="63.623047" xlink:href="#DejaVuSans-46"/>
      <use x="95.410156" xlink:href="#DejaVuSans-53"/>
      <use x="159.033203" xlink:href="#DejaVuSans-48"/>
      <use x="222.65625" xlink:href="#DejaVuSans-48"/>
     </g>
    </g>
   </g>
   <g id="text_27">
    <g clip-path="url(#p72e4750bd7)">
     <!-- 5.000 -->
     <g style="fill:#1f968b;" transform="translate(157.975464 123.596459)rotate(-8.024515)scale(0.06 -0.06)">
      <use xlink:href="#DejaVuSans-53"/>
      <use x="63.623047" xlink:href="#DejaVuSans-46"/>
      <use x="95.410156" xlink:href="#DejaVuSans-48"/>
      <use x="159.033203" xlink:href="#DejaVuSans-48"/>
      <use x="222.65625" xlink:href="#DejaVuSans-48"/>
     </g>
    </g>
   </g>
   <g id="text_28">
    <g clip-path="url(#p72e4750bd7)">
     <!-- 5.500 -->
     <g style="fill:#20a386;" transform="translate(135.800773 131.756823)rotate(-29.699786)scale(0.06 -0.06)">
      <use xlink:href="#DejaVuSans-53"/>
      <use x="63.623047" xlink:href="#DejaVuSans-46"/>
      <use x="95.410156" xlink:href="#DejaVuSans-53"/>
      <use x="159.033203" xlink:href="#DejaVuSans-48"/>
      <use x="222.65625" xlink:href="#DejaVuSans-48"/>
     </g>
    </g>
   </g>
   <g id="text_29">
    <g clip-path="url(#p72e4750bd7)">
     <!-- 6.000 -->
     <g style="fill:#29af7f;" transform="translate(135.669377 131.419108)rotate(-28.359049)scale(0.06 -0.06)">
      <defs>
       <path d="M 33.015625 40.375 
Q 26.375 40.375 22.484375 35.828125 
Q 18.609375 31.296875 18.609375 23.390625 
Q 18.609375 15.53125 22.484375 10.953125 
Q 26.375 6.390625 33.015625 6.390625 
Q 39.65625 6.390625 43.53125 10.953125 
Q 47.40625 15.53125 47.40625 23.390625 
Q 47.40625 31.296875 43.53125 35.828125 
Q 39.65625 40.375 33.015625 40.375 
z
M 52.59375 71.296875 
L 52.59375 62.3125 
Q 48.875 64.0625 45.09375 64.984375 
Q 41.3125 65.921875 37.59375 65.921875 
Q 27.828125 65.921875 22.671875 59.328125 
Q 17.53125 52.734375 16.796875 39.40625 
Q 19.671875 43.65625 24.015625 45.921875 
Q 28.375 48.1875 33.59375 48.1875 
Q 44.578125 48.1875 50.953125 41.515625 
Q 57.328125 34.859375 57.328125 23.390625 
Q 57.328125 12.15625 50.6875 5.359375 
Q 44.046875 -1.421875 33.015625 -1.421875 
Q 20.359375 -1.421875 13.671875 8.265625 
Q 6.984375 17.96875 6.984375 36.375 
Q 6.984375 53.65625 15.1875 63.9375 
Q 23.390625 74.21875 37.203125 74.21875 
Q 40.921875 74.21875 44.703125 73.484375 
Q 48.484375 72.75 52.59375 71.296875 
z
" id="DejaVuSans-54"/>
      </defs>
      <use xlink:href="#DejaVuSans-54"/>
      <use x="63.623047" xlink:href="#DejaVuSans-46"/>
      <use x="95.410156" xlink:href="#DejaVuSans-48"/>
      <use x="159.033203" xlink:href="#DejaVuSans-48"/>
      <use x="222.65625" xlink:href="#DejaVuSans-48"/>
     </g>
    </g>
   </g>
   <g id="text_30">
    <g clip-path="url(#p72e4750bd7)">
     <!-- 6.500 -->
     <g style="fill:#3dbc74;" transform="translate(130.085399 195.786003)rotate(-339.269665)scale(0.06 -0.06)">
      <use xlink:href="#DejaVuSans-54"/>
      <use x="63.623047" xlink:href="#DejaVuSans-46"/>
      <use x="95.410156" xlink:href="#DejaVuSans-53"/>
      <use x="159.033203" xlink:href="#DejaVuSans-48"/>
      <use x="222.65625" xlink:href="#DejaVuSans-48"/>
     </g>
    </g>
   </g>
   <g id="text_31">
    <g clip-path="url(#p72e4750bd7)">
     <!-- 7.000 -->
     <g style="fill:#56c667;" transform="translate(135.584947 130.952618)rotate(-27.476947)scale(0.06 -0.06)">
      <defs>
       <path d="M 8.203125 72.90625 
L 55.078125 72.90625 
L 55.078125 68.703125 
L 28.609375 0 
L 18.3125 0 
L 43.21875 64.59375 
L 8.203125 64.59375 
z
" id="DejaVuSans-55"/>
      </defs>
      <use xlink:href="#DejaVuSans-55"/>
      <use x="63.623047" xlink:href="#DejaVuSans-46"/>
      <use x="95.410156" xlink:href="#DejaVuSans-48"/>
      <use x="159.033203" xlink:href="#DejaVuSans-48"/>
      <use x="222.65625" xlink:href="#DejaVuSans-48"/>
     </g>
    </g>
   </g>
   <g id="text_32">
    <g clip-path="url(#p72e4750bd7)">
     <!-- 7.500 -->
     <g style="fill:#75d054;" transform="translate(135.623669 130.820344)rotate(-27.883601)scale(0.06 -0.06)">
      <use xlink:href="#DejaVuSans-55"/>
      <use x="63.623047" xlink:href="#DejaVuSans-46"/>
      <use x="95.410156" xlink:href="#DejaVuSans-53"/>
      <use x="159.033203" xlink:href="#DejaVuSans-48"/>
      <use x="222.65625" xlink:href="#DejaVuSans-48"/>
     </g>
    </g>
   </g>
   <g id="text_33">
    <g clip-path="url(#p72e4750bd7)">
     <!-- 8.000 -->
     <g style="fill:#95d840;" transform="translate(159.596184 201.430453)rotate(-17.434803)scale(0.06 -0.06)">
      <defs>
       <path d="M 31.78125 34.625 
Q 24.75 34.625 20.71875 30.859375 
Q 16.703125 27.09375 16.703125 20.515625 
Q 16.703125 13.921875 20.71875 10.15625 
Q 24.75 6.390625 31.78125 6.390625 
Q 38.8125 6.390625 42.859375 10.171875 
Q 46.921875 13.96875 46.921875 20.515625 
Q 46.921875 27.09375 42.890625 30.859375 
Q 38.875 34.625 31.78125 34.625 
z
M 21.921875 38.8125 
Q 15.578125 40.375 12.03125 44.71875 
Q 8.5 49.078125 8.5 55.328125 
Q 8.5 64.0625 14.71875 69.140625 
Q 20.953125 74.21875 31.78125 74.21875 
Q 42.671875 74.21875 48.875 69.140625 
Q 55.078125 64.0625 55.078125 55.328125 
Q 55.078125 49.078125 51.53125 44.71875 
Q 48 40.375 41.703125 38.8125 
Q 48.828125 37.15625 52.796875 32.3125 
Q 56.78125 27.484375 56.78125 20.515625 
Q 56.78125 9.90625 50.3125 4.234375 
Q 43.84375 -1.421875 31.78125 -1.421875 
Q 19.734375 -1.421875 13.25 4.234375 
Q 6.78125 9.90625 6.78125 20.515625 
Q 6.78125 27.484375 10.78125 32.3125 
Q 14.796875 37.15625 21.921875 38.8125 
z
M 18.3125 54.390625 
Q 18.3125 48.734375 21.84375 45.5625 
Q 25.390625 42.390625 31.78125 42.390625 
Q 38.140625 42.390625 41.71875 45.5625 
Q 45.3125 48.734375 45.3125 54.390625 
Q 45.3125 60.0625 41.71875 63.234375 
Q 38.140625 66.40625 31.78125 66.40625 
Q 25.390625 66.40625 21.84375 63.234375 
Q 18.3125 60.0625 18.3125 54.390625 
z
" id="DejaVuSans-56"/>
      </defs>
      <use xlink:href="#DejaVuSans-56"/>
      <use x="63.623047" xlink:href="#DejaVuSans-46"/>
      <use x="95.410156" xlink:href="#DejaVuSans-48"/>
      <use x="159.033203" xlink:href="#DejaVuSans-48"/>
      <use x="222.65625" xlink:href="#DejaVuSans-48"/>
     </g>
    </g>
   </g>
   <g id="text_34">
    <g clip-path="url(#p72e4750bd7)">
     <!-- 8.500 -->
     <g style="fill:#bade28;" transform="translate(161.199612 201.488928)rotate(-17.870945)scale(0.06 -0.06)">
      <use xlink:href="#DejaVuSans-56"/>
      <use x="63.623047" xlink:href="#DejaVuSans-46"/>
      <use x="95.410156" xlink:href="#DejaVuSans-53"/>
      <use x="159.033203" xlink:href="#DejaVuSans-48"/>
      <use x="222.65625" xlink:href="#DejaVuSans-48"/>
     </g>
    </g>
   </g>
   <g id="text_35">
    <g clip-path="url(#p72e4750bd7)">
     <!-- 9.000 -->
     <g style="fill:#dde318;" transform="translate(162.786089 201.515908)rotate(-18.072784)scale(0.06 -0.06)">
      <defs>
       <path d="M 10.984375 1.515625 
L 10.984375 10.5 
Q 14.703125 8.734375 18.5 7.8125 
Q 22.3125 6.890625 25.984375 6.890625 
Q 35.75 6.890625 40.890625 13.453125 
Q 46.046875 20.015625 46.78125 33.40625 
Q 43.953125 29.203125 39.59375 26.953125 
Q 35.25 24.703125 29.984375 24.703125 
Q 19.046875 24.703125 12.671875 31.3125 
Q 6.296875 37.9375 6.296875 49.421875 
Q 6.296875 60.640625 12.9375 67.421875 
Q 19.578125 74.21875 30.609375 74.21875 
Q 43.265625 74.21875 49.921875 64.515625 
Q 56.59375 54.828125 56.59375 36.375 
Q 56.59375 19.140625 48.40625 8.859375 
Q 40.234375 -1.421875 26.421875 -1.421875 
Q 22.703125 -1.421875 18.890625 -0.6875 
Q 15.09375 0.046875 10.984375 1.515625 
z
M 30.609375 32.421875 
Q 37.25 32.421875 41.125 36.953125 
Q 45.015625 41.5 45.015625 49.421875 
Q 45.015625 57.28125 41.125 61.84375 
Q 37.25 66.40625 30.609375 66.40625 
Q 23.96875 66.40625 20.09375 61.84375 
Q 16.21875 57.28125 16.21875 49.421875 
Q 16.21875 41.5 20.09375 36.953125 
Q 23.96875 32.421875 30.609375 32.421875 
z
" id="DejaVuSans-57"/>
      </defs>
      <use xlink:href="#DejaVuSans-57"/>
      <use x="63.623047" xlink:href="#DejaVuSans-46"/>
      <use x="95.410156" xlink:href="#DejaVuSans-48"/>
      <use x="159.033203" xlink:href="#DejaVuSans-48"/>
      <use x="222.65625" xlink:href="#DejaVuSans-48"/>
     </g>
    </g>
   </g>
   <g id="text_36">
    <g clip-path="url(#p72e4750bd7)">
     <!-- 9.500 -->
     <g style="fill:#fde725;" transform="translate(164.36145 201.522703)rotate(-18.123682)scale(0.06 -0.06)">
      <use xlink:href="#DejaVuSans-57"/>
      <use x="63.623047" xlink:href="#DejaVuSans-46"/>
      <use x="95.410156" xlink:href="#DejaVuSans-53"/>
      <use x="159.033203" xlink:href="#DejaVuSans-48"/>
      <use x="222.65625" xlink:href="#DejaVuSans-48"/>
     </g>
    </g>
   </g>
   <g id="text_37">
    <g clip-path="url(#p72e4750bd7)">
     <!-- 10.000 -->
     <g style="fill:#440154;" transform="translate(144.733814 122.534319)rotate(-16.296264)scale(0.06 -0.06)">
      <use xlink:href="#DejaVuSans-49"/>
      <use x="63.623047" xlink:href="#DejaVuSans-48"/>
      <use x="127.246094" xlink:href="#DejaVuSans-46"/>
      <use x="159.033203" xlink:href="#DejaVuSans-48"/>
      <use x="222.65625" xlink:href="#DejaVuSans-48"/>
      <use x="286.279297" xlink:href="#DejaVuSans-48"/>
     </g>
    </g>
   </g>
   <g id="text_38">
    <g clip-path="url(#p72e4750bd7)">
     <!-- 100.000 -->
     <g style="fill:#440154;" transform="translate(111.797664 186.40226)rotate(-292.064974)scale(0.06 -0.06)">
      <use xlink:href="#DejaVuSans-49"/>
      <use x="63.623047" xlink:href="#DejaVuSans-48"/>
      <use x="127.246094" xlink:href="#DejaVuSans-48"/>
      <use x="190.869141" xlink:href="#DejaVuSans-46"/>
      <use x="222.65625" xlink:href="#DejaVuSans-48"/>
      <use x="286.279297" xlink:href="#DejaVuSans-48"/>
      <use x="349.902344" xlink:href="#DejaVuSans-48"/>
     </g>
    </g>
   </g>
   <g id="text_39">
    <g clip-path="url(#p72e4750bd7)">
     <!-- 1000.000 -->
     <g style="fill:#440154;" transform="translate(114.283042 213.865109)rotate(-309.327288)scale(0.06 -0.06)">
      <use xlink:href="#DejaVuSans-49"/>
      <use x="63.623047" xlink:href="#DejaVuSans-48"/>
      <use x="127.246094" xlink:href="#DejaVuSans-48"/>
      <use x="190.869141" xlink:href="#DejaVuSans-48"/>
      <use x="254.492188" xlink:href="#DejaVuSans-46"/>
      <use x="286.279297" xlink:href="#DejaVuSans-48"/>
      <use x="349.902344" xlink:href="#DejaVuSans-48"/>
      <use x="413.525391" xlink:href="#DejaVuSans-48"/>
     </g>
    </g>
   </g>
   <g id="text_40">
    <g clip-path="url(#p72e4750bd7)">
     <!-- 10000.000 -->
     <g style="fill:#440154;" transform="translate(138.036997 250.729924)rotate(-354.230149)scale(0.06 -0.06)">
      <use xlink:href="#DejaVuSans-49"/>
      <use x="63.623047" xlink:href="#DejaVuSans-48"/>
      <use x="127.246094" xlink:href="#DejaVuSans-48"/>
      <use x="190.869141" xlink:href="#DejaVuSans-48"/>
      <use x="254.492188" xlink:href="#DejaVuSans-48"/>
      <use x="318.115234" xlink:href="#DejaVuSans-46"/>
      <use x="349.902344" xlink:href="#DejaVuSans-48"/>
      <use x="413.525391" xlink:href="#DejaVuSans-48"/>
      <use x="477.148438" xlink:href="#DejaVuSans-48"/>
     </g>
    </g>
   </g>
   <g id="text_41">
    <g clip-path="url(#p72e4750bd7)">
     <!-- 100000.000 -->
     <g style="fill:#440154;" transform="translate(93.725155 112.356373)rotate(-38.8051)scale(0.06 -0.06)">
      <use xlink:href="#DejaVuSans-49"/>
      <use x="63.623047" xlink:href="#DejaVuSans-48"/>
      <use x="127.246094" xlink:href="#DejaVuSans-48"/>
      <use x="190.869141" xlink:href="#DejaVuSans-48"/>
      <use x="254.492188" xlink:href="#DejaVuSans-48"/>
      <use x="318.115234" xlink:href="#DejaVuSans-48"/>
      <use x="381.738281" xlink:href="#DejaVuSans-46"/>
      <use x="413.525391" xlink:href="#DejaVuSans-48"/>
      <use x="477.148438" xlink:href="#DejaVuSans-48"/>
      <use x="540.771484" xlink:href="#DejaVuSans-48"/>
     </g>
    </g>
   </g>
   <g id="text_42">
    <g clip-path="url(#p72e4750bd7)">
     <!-- 1000000.000 -->
     <g style="fill:#450457;" transform="translate(104.063802 235.31535)rotate(-306.242396)scale(0.06 -0.06)">
      <use xlink:href="#DejaVuSans-49"/>
      <use x="63.623047" xlink:href="#DejaVuSans-48"/>
      <use x="127.246094" xlink:href="#DejaVuSans-48"/>
      <use x="190.869141" xlink:href="#DejaVuSans-48"/>
      <use x="254.492188" xlink:href="#DejaVuSans-48"/>
      <use x="318.115234" xlink:href="#DejaVuSans-48"/>
      <use x="381.738281" xlink:href="#DejaVuSans-48"/>
      <use x="445.361328" xlink:href="#DejaVuSans-46"/>
      <use x="477.148438" xlink:href="#DejaVuSans-48"/>
      <use x="540.771484" xlink:href="#DejaVuSans-48"/>
      <use x="604.394531" xlink:href="#DejaVuSans-48"/>
     </g>
    </g>
   </g>
   <g id="text_43">
    <g clip-path="url(#p72e4750bd7)">
     <!-- 10000000.000 -->
     <g style="fill:#482475;" transform="translate(80.481056 195.161275)rotate(-291.25046)scale(0.06 -0.06)">
      <use xlink:href="#DejaVuSans-49"/>
      <use x="63.623047" xlink:href="#DejaVuSans-48"/>
      <use x="127.246094" xlink:href="#DejaVuSans-48"/>
      <use x="190.869141" xlink:href="#DejaVuSans-48"/>
      <use x="254.492188" xlink:href="#DejaVuSans-48"/>
      <use x="318.115234" xlink:href="#DejaVuSans-48"/>
      <use x="381.738281" xlink:href="#DejaVuSans-48"/>
      <use x="445.361328" xlink:href="#DejaVuSans-48"/>
      <use x="508.984375" xlink:href="#DejaVuSans-46"/>
      <use x="540.771484" xlink:href="#DejaVuSans-48"/>
      <use x="604.394531" xlink:href="#DejaVuSans-48"/>
      <use x="668.017578" xlink:href="#DejaVuSans-48"/>
     </g>
    </g>
   </g>
   <g id="text_44">
    <g clip-path="url(#p72e4750bd7)">
     <!-- 100000000.000 -->
     <g style="fill:#fde725;" transform="translate(68.166691 159.071209)rotate(-88.872797)scale(0.06 -0.06)">
      <use xlink:href="#DejaVuSans-49"/>
      <use x="63.623047" xlink:href="#DejaVuSans-48"/>
      <use x="127.246094" xlink:href="#DejaVuSans-48"/>
      <use x="190.869141" xlink:href="#DejaVuSans-48"/>
      <use x="254.492188" xlink:href="#DejaVuSans-48"/>
      <use x="318.115234" xlink:href="#DejaVuSans-48"/>
      <use x="381.738281" xlink:href="#DejaVuSans-48"/>
      <use x="445.361328" xlink:href="#DejaVuSans-48"/>
      <use x="508.984375" xlink:href="#DejaVuSans-48"/>
      <use x="572.607422" xlink:href="#DejaVuSans-46"/>
      <use x="604.394531" xlink:href="#DejaVuSans-48"/>
      <use x="668.017578" xlink:href="#DejaVuSans-48"/>
      <use x="731.640625" xlink:href="#DejaVuSans-48"/>
     </g>
    </g>
   </g>
  </g>
 </g>
 <defs>
  <clipPath id="p72e4750bd7">
   <rect height="266.112" width="357.12" x="35.304688" y="10.999219"/>
  </clipPath>
 </defs>
</svg>
