<?xml version="1.0" encoding="utf-8" standalone="no"?>
<!DOCTYPE svg PUBLIC "-//W3C//DTD SVG 1.1//EN"
  "http://www.w3.org/Graphics/SVG/1.1/DTD/svg11.dtd">
<!-- Created with matplotlib (https://matplotlib.org/) -->
<svg height="300.989344pt" version="1.1" viewBox="0 0 405.987188 300.989344" width="405.987188pt" xmlns="http://www.w3.org/2000/svg" xmlns:xlink="http://www.w3.org/1999/xlink">
 <metadata>
  <rdf:RDF xmlns:cc="http://creativecommons.org/ns#" xmlns:dc="http://purl.org/dc/elements/1.1/" xmlns:rdf="http://www.w3.org/1999/02/22-rdf-syntax-ns#">
   <cc:Work>
    <dc:type rdf:resource="http://purl.org/dc/dcmitype/StillImage"/>
    <dc:date>2021-09-23T00:07:31.033865</dc:date>
    <dc:format>image/svg+xml</dc:format>
    <dc:creator>
     <cc:Agent>
      <dc:title>Matplotlib v3.3.1, https://matplotlib.org/</dc:title>
     </cc:Agent>
    </dc:creator>
   </cc:Work>
  </rdf:RDF>
 </metadata>
 <defs>
  <style type="text/css">*{stroke-linecap:butt;stroke-linejoin:round;}</style>
 </defs>
 <g id="figure_1">
  <g id="patch_1">
   <path d="M 0 300.989344 
L 405.987188 300.989344 
L 405.987188 0 
L 0 0 
z
" style="fill:#ffffff;"/>
  </g>
  <g id="axes_1">
   <g id="patch_2">
    <path d="M 35.304688 277.111219 
L 392.424688 277.111219 
L 392.424688 10.999219 
L 35.304688 10.999219 
z
" style="fill:#ffffff;"/>
   </g>
   <g id="matplotlib.axis_1">
    <g id="xtick_1">
     <g id="line2d_1">
      <defs>
       <path d="M 0 0 
L 0 3.5 
" id="m6530f8b2ad" style="stroke:#000000;stroke-width:0.8;"/>
      </defs>
      <g>
       <use style="stroke:#000000;stroke-width:0.8;" x="35.304687" xlink:href="#m6530f8b2ad" y="277.111219"/>
      </g>
     </g>
     <g id="text_1">
      <!-- −20 -->
      <g transform="translate(24.752344 291.709656)scale(0.1 -0.1)">
       <defs>
        <path d="M 10.59375 35.5 
L 73.1875 35.5 
L 73.1875 27.203125 
L 10.59375 27.203125 
z
" id="DejaVuSans-8722"/>
        <path d="M 19.1875 8.296875 
L 53.609375 8.296875 
L 53.609375 0 
L 7.328125 0 
L 7.328125 8.296875 
Q 12.9375 14.109375 22.625 23.890625 
Q 32.328125 33.6875 34.8125 36.53125 
Q 39.546875 41.84375 41.421875 45.53125 
Q 43.3125 49.21875 43.3125 52.78125 
Q 43.3125 58.59375 39.234375 62.25 
Q 35.15625 65.921875 28.609375 65.921875 
Q 23.96875 65.921875 18.8125 64.3125 
Q 13.671875 62.703125 7.8125 59.421875 
L 7.8125 69.390625 
Q 13.765625 71.78125 18.9375 73 
Q 24.125 74.21875 28.421875 74.21875 
Q 39.75 74.21875 46.484375 68.546875 
Q 53.21875 62.890625 53.21875 53.421875 
Q 53.21875 48.921875 51.53125 44.890625 
Q 49.859375 40.875 45.40625 35.40625 
Q 44.1875 33.984375 37.640625 27.21875 
Q 31.109375 20.453125 19.1875 8.296875 
z
" id="DejaVuSans-50"/>
        <path d="M 31.78125 66.40625 
Q 24.171875 66.40625 20.328125 58.90625 
Q 16.5 51.421875 16.5 36.375 
Q 16.5 21.390625 20.328125 13.890625 
Q 24.171875 6.390625 31.78125 6.390625 
Q 39.453125 6.390625 43.28125 13.890625 
Q 47.125 21.390625 47.125 36.375 
Q 47.125 51.421875 43.28125 58.90625 
Q 39.453125 66.40625 31.78125 66.40625 
z
M 31.78125 74.21875 
Q 44.046875 74.21875 50.515625 64.515625 
Q 56.984375 54.828125 56.984375 36.375 
Q 56.984375 17.96875 50.515625 8.265625 
Q 44.046875 -1.421875 31.78125 -1.421875 
Q 19.53125 -1.421875 13.0625 8.265625 
Q 6.59375 17.96875 6.59375 36.375 
Q 6.59375 54.828125 13.0625 64.515625 
Q 19.53125 74.21875 31.78125 74.21875 
z
" id="DejaVuSans-48"/>
       </defs>
       <use xlink:href="#DejaVuSans-8722"/>
       <use x="83.789062" xlink:href="#DejaVuSans-50"/>
       <use x="147.412109" xlink:href="#DejaVuSans-48"/>
      </g>
     </g>
    </g>
    <g id="xtick_2">
     <g id="line2d_2">
      <g>
       <use style="stroke:#000000;stroke-width:0.8;" x="74.984687" xlink:href="#m6530f8b2ad" y="277.111219"/>
      </g>
     </g>
     <g id="text_2">
      <!-- −15 -->
      <g transform="translate(64.432344 291.709656)scale(0.1 -0.1)">
       <defs>
        <path d="M 12.40625 8.296875 
L 28.515625 8.296875 
L 28.515625 63.921875 
L 10.984375 60.40625 
L 10.984375 69.390625 
L 28.421875 72.90625 
L 38.28125 72.90625 
L 38.28125 8.296875 
L 54.390625 8.296875 
L 54.390625 0 
L 12.40625 0 
z
" id="DejaVuSans-49"/>
        <path d="M 10.796875 72.90625 
L 49.515625 72.90625 
L 49.515625 64.59375 
L 19.828125 64.59375 
L 19.828125 46.734375 
Q 21.96875 47.46875 24.109375 47.828125 
Q 26.265625 48.1875 28.421875 48.1875 
Q 40.625 48.1875 47.75 41.5 
Q 54.890625 34.8125 54.890625 23.390625 
Q 54.890625 11.625 47.5625 5.09375 
Q 40.234375 -1.421875 26.90625 -1.421875 
Q 22.3125 -1.421875 17.546875 -0.640625 
Q 12.796875 0.140625 7.71875 1.703125 
L 7.71875 11.625 
Q 12.109375 9.234375 16.796875 8.0625 
Q 21.484375 6.890625 26.703125 6.890625 
Q 35.15625 6.890625 40.078125 11.328125 
Q 45.015625 15.765625 45.015625 23.390625 
Q 45.015625 31 40.078125 35.4375 
Q 35.15625 39.890625 26.703125 39.890625 
Q 22.75 39.890625 18.8125 39.015625 
Q 14.890625 38.140625 10.796875 36.28125 
z
" id="DejaVuSans-53"/>
       </defs>
       <use xlink:href="#DejaVuSans-8722"/>
       <use x="83.789062" xlink:href="#DejaVuSans-49"/>
       <use x="147.412109" xlink:href="#DejaVuSans-53"/>
      </g>
     </g>
    </g>
    <g id="xtick_3">
     <g id="line2d_3">
      <g>
       <use style="stroke:#000000;stroke-width:0.8;" x="114.664687" xlink:href="#m6530f8b2ad" y="277.111219"/>
      </g>
     </g>
     <g id="text_3">
      <!-- −10 -->
      <g transform="translate(104.112344 291.709656)scale(0.1 -0.1)">
       <use xlink:href="#DejaVuSans-8722"/>
       <use x="83.789062" xlink:href="#DejaVuSans-49"/>
       <use x="147.412109" xlink:href="#DejaVuSans-48"/>
      </g>
     </g>
    </g>
    <g id="xtick_4">
     <g id="line2d_4">
      <g>
       <use style="stroke:#000000;stroke-width:0.8;" x="154.344687" xlink:href="#m6530f8b2ad" y="277.111219"/>
      </g>
     </g>
     <g id="text_4">
      <!-- −5 -->
      <g transform="translate(146.973594 291.709656)scale(0.1 -0.1)">
       <use xlink:href="#DejaVuSans-8722"/>
       <use x="83.789062" xlink:href="#DejaVuSans-53"/>
      </g>
     </g>
    </g>
    <g id="xtick_5">
     <g id="line2d_5">
      <g>
       <use style="stroke:#000000;stroke-width:0.8;" x="194.024687" xlink:href="#m6530f8b2ad" y="277.111219"/>
      </g>
     </g>
     <g id="text_5">
      <!-- 0 -->
      <g transform="translate(190.843437 291.709656)scale(0.1 -0.1)">
       <use xlink:href="#DejaVuSans-48"/>
      </g>
     </g>
    </g>
    <g id="xtick_6">
     <g id="line2d_6">
      <g>
       <use style="stroke:#000000;stroke-width:0.8;" x="233.704688" xlink:href="#m6530f8b2ad" y="277.111219"/>
      </g>
     </g>
     <g id="text_6">
      <!-- 5 -->
      <g transform="translate(230.523438 291.709656)scale(0.1 -0.1)">
       <use xlink:href="#DejaVuSans-53"/>
      </g>
     </g>
    </g>
    <g id="xtick_7">
     <g id="line2d_7">
      <g>
       <use style="stroke:#000000;stroke-width:0.8;" x="273.384688" xlink:href="#m6530f8b2ad" y="277.111219"/>
      </g>
     </g>
     <g id="text_7">
      <!-- 10 -->
      <g transform="translate(267.022188 291.709656)scale(0.1 -0.1)">
       <use xlink:href="#DejaVuSans-49"/>
       <use x="63.623047" xlink:href="#DejaVuSans-48"/>
      </g>
     </g>
    </g>
    <g id="xtick_8">
     <g id="line2d_8">
      <g>
       <use style="stroke:#000000;stroke-width:0.8;" x="313.064687" xlink:href="#m6530f8b2ad" y="277.111219"/>
      </g>
     </g>
     <g id="text_8">
      <!-- 15 -->
      <g transform="translate(306.702187 291.709656)scale(0.1 -0.1)">
       <use xlink:href="#DejaVuSans-49"/>
       <use x="63.623047" xlink:href="#DejaVuSans-53"/>
      </g>
     </g>
    </g>
    <g id="xtick_9">
     <g id="line2d_9">
      <g>
       <use style="stroke:#000000;stroke-width:0.8;" x="352.744688" xlink:href="#m6530f8b2ad" y="277.111219"/>
      </g>
     </g>
     <g id="text_9">
      <!-- 20 -->
      <g transform="translate(346.382188 291.709656)scale(0.1 -0.1)">
       <use xlink:href="#DejaVuSans-50"/>
       <use x="63.623047" xlink:href="#DejaVuSans-48"/>
      </g>
     </g>
    </g>
    <g id="xtick_10">
     <g id="line2d_10">
      <g>
       <use style="stroke:#000000;stroke-width:0.8;" x="392.424688" xlink:href="#m6530f8b2ad" y="277.111219"/>
      </g>
     </g>
     <g id="text_10">
      <!-- 25 -->
      <g transform="translate(386.062187 291.709656)scale(0.1 -0.1)">
       <use xlink:href="#DejaVuSans-50"/>
       <use x="63.623047" xlink:href="#DejaVuSans-53"/>
      </g>
     </g>
    </g>
   </g>
   <g id="matplotlib.axis_2">
    <g id="ytick_1">
     <g id="line2d_11">
      <defs>
       <path d="M 0 0 
L -3.5 0 
" id="m16b63d9103" style="stroke:#000000;stroke-width:0.8;"/>
      </defs>
      <g>
       <use style="stroke:#000000;stroke-width:0.8;" x="35.304688" xlink:href="#m16b63d9103" y="277.111219"/>
      </g>
     </g>
     <g id="text_11">
      <!-- −20 -->
      <g transform="translate(7.2 280.910437)scale(0.1 -0.1)">
       <use xlink:href="#DejaVuSans-8722"/>
       <use x="83.789062" xlink:href="#DejaVuSans-50"/>
       <use x="147.412109" xlink:href="#DejaVuSans-48"/>
      </g>
     </g>
    </g>
    <g id="ytick_2">
     <g id="line2d_12">
      <g>
       <use style="stroke:#000000;stroke-width:0.8;" x="35.304688" xlink:href="#m16b63d9103" y="243.847219"/>
      </g>
     </g>
     <g id="text_12">
      <!-- −15 -->
      <g transform="translate(7.2 247.646437)scale(0.1 -0.1)">
       <use xlink:href="#DejaVuSans-8722"/>
       <use x="83.789062" xlink:href="#DejaVuSans-49"/>
       <use x="147.412109" xlink:href="#DejaVuSans-53"/>
      </g>
     </g>
    </g>
    <g id="ytick_3">
     <g id="line2d_13">
      <g>
       <use style="stroke:#000000;stroke-width:0.8;" x="35.304688" xlink:href="#m16b63d9103" y="210.583219"/>
      </g>
     </g>
     <g id="text_13">
      <!-- −10 -->
      <g transform="translate(7.2 214.382437)scale(0.1 -0.1)">
       <use xlink:href="#DejaVuSans-8722"/>
       <use x="83.789062" xlink:href="#DejaVuSans-49"/>
       <use x="147.412109" xlink:href="#DejaVuSans-48"/>
      </g>
     </g>
    </g>
    <g id="ytick_4">
     <g id="line2d_14">
      <g>
       <use style="stroke:#000000;stroke-width:0.8;" x="35.304688" xlink:href="#m16b63d9103" y="177.319219"/>
      </g>
     </g>
     <g id="text_14">
      <!-- −5 -->
      <g transform="translate(13.5625 181.118437)scale(0.1 -0.1)">
       <use xlink:href="#DejaVuSans-8722"/>
       <use x="83.789062" xlink:href="#DejaVuSans-53"/>
      </g>
     </g>
    </g>
    <g id="ytick_5">
     <g id="line2d_15">
      <g>
       <use style="stroke:#000000;stroke-width:0.8;" x="35.304688" xlink:href="#m16b63d9103" y="144.055219"/>
      </g>
     </g>
     <g id="text_15">
      <!-- 0 -->
      <g transform="translate(21.942187 147.854437)scale(0.1 -0.1)">
       <use xlink:href="#DejaVuSans-48"/>
      </g>
     </g>
    </g>
    <g id="ytick_6">
     <g id="line2d_16">
      <g>
       <use style="stroke:#000000;stroke-width:0.8;" x="35.304688" xlink:href="#m16b63d9103" y="110.791219"/>
      </g>
     </g>
     <g id="text_16">
      <!-- 5 -->
      <g transform="translate(21.942187 114.590437)scale(0.1 -0.1)">
       <use xlink:href="#DejaVuSans-53"/>
      </g>
     </g>
    </g>
    <g id="ytick_7">
     <g id="line2d_17">
      <g>
       <use style="stroke:#000000;stroke-width:0.8;" x="35.304688" xlink:href="#m16b63d9103" y="77.527219"/>
      </g>
     </g>
     <g id="text_17">
      <!-- 10 -->
      <g transform="translate(15.579687 81.326437)scale(0.1 -0.1)">
       <use xlink:href="#DejaVuSans-49"/>
       <use x="63.623047" xlink:href="#DejaVuSans-48"/>
      </g>
     </g>
    </g>
    <g id="ytick_8">
     <g id="line2d_18">
      <g>
       <use style="stroke:#000000;stroke-width:0.8;" x="35.304688" xlink:href="#m16b63d9103" y="44.263219"/>
      </g>
     </g>
     <g id="text_18">
      <!-- 15 -->
      <g transform="translate(15.579687 48.062437)scale(0.1 -0.1)">
       <use xlink:href="#DejaVuSans-49"/>
       <use x="63.623047" xlink:href="#DejaVuSans-53"/>
      </g>
     </g>
    </g>
    <g id="ytick_9">
     <g id="line2d_19">
      <g>
       <use style="stroke:#000000;stroke-width:0.8;" x="35.304688" xlink:href="#m16b63d9103" y="10.999219"/>
      </g>
     </g>
     <g id="text_19">
      <!-- 20 -->
      <g transform="translate(15.579687 14.798437)scale(0.1 -0.1)">
       <use xlink:href="#DejaVuSans-50"/>
       <use x="63.623047" xlink:href="#DejaVuSans-48"/>
      </g>
     </g>
    </g>
   </g>
   <g id="LineCollection_1"/>
   <g id="LineCollection_2"/>
   <g id="LineCollection_3"/>
   <g id="LineCollection_4">
    <path clip-path="url(#pc12a8b7274)" d="M 191.956942 147.505515 
L 192.630643 152.925619 
L 192.907924 161.796019 
L 192.142283 170.666419 
L 190.435101 179.536819 
L 190.056688 180.908502 
L 184.567484 188.407219 
L 179.792939 197.277619 
L 178.152687 200.578421 
L 174.953013 197.277619 
L 172.389997 188.407219 
L 171.752291 179.536819 
L 171.649577 170.666419 
L 171.778262 161.796019 
L 172.059107 152.925619 
L 172.51122 144.055219 
L 173.326796 135.184819 
L 175.018673 126.314419 
L 178.152687 120.279675 
L 181.511476 125.598702 
" style="fill:none;stroke:#453781;stroke-width:1.5;"/>
   </g>
   <g id="LineCollection_5">
    <path clip-path="url(#pc12a8b7274)" d="M 151.459814 140.326356 
L 151.435381 135.184819 
L 151.281223 126.314419 
L 151.063483 117.444019 
L 150.945126 108.573619 
L 151.414449 99.703219 
L 154.344687 92.045201 
L 166.248687 96.730231 
L 167.930631 99.703219 
L 178.152687 107.012069 
L 179.231759 108.573619 
L 188.209134 117.444019 
L 190.056688 119.098169 
L 195.69601 126.314419 
L 201.960688 134.915524 
L 202.107253 135.184819 
L 205.089347 144.055219 
L 207.300838 152.925619 
L 207.865591 161.796019 
L 206.99839 170.666419 
L 204.938542 179.536819 
L 202.402343 188.407219 
L 201.960688 189.651776 
L 197.687234 197.277619 
L 192.95445 206.148019 
L 190.056688 213.154324 
L 188.590074 215.018419 
L 181.618744 223.888819 
L 178.152687 230.389554 
L 175.067442 232.759219 
L 166.468933 241.629619 
L 166.248687 241.920397 
L 154.344687 245.862983 
L 142.440687 244.104233 
L 139.964356 241.629619 
L 140.784529 232.759219 
L 142.440687 227.279164 
L 143.266806 223.888819 
L 145.267802 215.018419 
L 146.830872 206.148019 
L 148.092045 197.277619 
L 149.125026 188.407219 
L 149.956944 179.536819 
L 150.602311 170.666419 
L 150.876452 165.515548 
" style="fill:none;stroke:#404688;stroke-width:1.5;"/>
   </g>
   <g id="LineCollection_6">
    <path clip-path="url(#pc12a8b7274)" d="M 35.304687 268.686096 
L 35.911018 268.240819 
L 47.208687 261.017963 
L 49.636826 259.370419 
L 59.112687 253.106659 
L 62.928023 250.500019 
L 71.016687 244.604666 
L 74.939575 241.629619 
L 82.920687 234.89999 
L 85.297888 232.759219 
L 92.534301 225.233534 
" style="fill:none;stroke:#39558c;stroke-width:1.5;"/>
    <path clip-path="url(#pc12a8b7274)" d="M 105.391856 203.71005 
L 106.728687 200.200112 
L 107.562234 197.277619 
L 109.339271 188.407219 
L 110.490451 179.536819 
L 111.106017 170.666419 
L 111.283287 161.796019 
L 111.091549 152.925619 
L 110.541208 144.055219 
L 109.575527 135.184819 
L 108.089233 126.314419 
L 106.728687 120.415669 
L 105.889728 117.444019 
L 102.724412 108.573619 
L 98.995124 99.703219 
L 94.824687 90.99139 
L 94.739553 90.832819 
L 89.52918 81.962419 
L 84.106883 73.092019 
L 82.920687 71.229165 
L 78.265577 64.221619 
L 72.355289 55.351219 
L 71.016687 53.282004 
L 66.664789 46.480819 
L 61.22384 37.610419 
L 59.112687 33.62173 
L 56.469261 28.740019 
L 52.767317 19.869619 
L 51.733324 10.999219 
" style="fill:none;stroke:#39558c;stroke-width:1.5;"/>
    <path clip-path="url(#pc12a8b7274)" d="M 126.029022 277.111219 
L 118.632687 268.580686 
L 107.227917 270.166192 
" style="fill:none;stroke:#39558c;stroke-width:1.5;"/>
    <path clip-path="url(#pc12a8b7274)" d="M 82.8024 276.152757 
L 80.306903 277.111219 
" style="fill:none;stroke:#39558c;stroke-width:1.5;"/>
    <path clip-path="url(#pc12a8b7274)" d="M 62.548082 10.999219 
L 71.016687 14.608595 
L 82.920687 19.399676 
L 83.707203 19.869619 
L 94.824687 27.335259 
L 96.846808 28.740019 
L 106.728687 35.649871 
L 109.004804 37.610419 
L 118.632687 44.696275 
L 120.336907 46.480819 
L 130.536687 54.394125 
L 131.337528 55.351219 
L 132.120222 56.022044 
" style="fill:none;stroke:#39558c;stroke-width:1.5;"/>
    <path clip-path="url(#pc12a8b7274)" d="M 149.372435 74.031988 
L 154.344687 77.604622 
L 156.159295 81.962419 
L 166.248687 89.930704 
L 166.717025 90.832819 
L 173.535868 99.703219 
L 178.152687 103.004281 
L 182.001243 108.573619 
L 190.056688 115.481964 
L 192.368547 117.444019 
L 201.960688 125.925459 
L 202.306282 126.314419 
L 207.661512 135.184819 
L 213.864688 142.53502 
L 214.279327 144.055219 
L 215.231912 152.925619 
L 216.186038 161.796019 
L 215.869587 170.666419 
L 214.138044 179.536819 
L 213.864688 180.504084 
L 209.6522 188.407219 
L 205.052498 197.277619 
L 201.960688 204.527357 
L 200.853944 206.148019 
L 194.619588 215.018419 
L 190.284945 223.888819 
L 190.056688 224.350667 
L 182.856117 232.759219 
L 178.152687 240.642886 
L 177.015956 241.629619 
L 167.947447 250.500019 
L 166.248687 252.49547 
L 157.358704 259.370419 
L 154.344687 262.176672 
L 145.422734 268.240819 
L 142.440687 270.419319 
L 132.263039 277.111219 
" style="fill:none;stroke:#39558c;stroke-width:1.5;"/>
   </g>
   <g id="LineCollection_7">
    <path clip-path="url(#pc12a8b7274)" d="M 80.006304 10.999219 
L 82.920687 12.917499 
L 94.556056 19.869619 
L 94.824687 20.050011 
L 106.728687 28.697706 
L 106.787444 28.740019 
L 117.518054 37.610419 
L 118.632687 38.430759 
L 126.320406 46.480819 
L 130.536687 49.751941 
L 135.221835 55.351219 
L 142.440687 61.190739 
L 144.336343 64.221619 
L 154.344687 72.545866 
L 154.538332 73.092019 
L 158.98128 81.962419 
L 166.248687 87.701989 
L 167.874075 90.832819 
L 178.152687 99.530567 
L 178.277453 99.703219 
L 184.770728 108.573619 
L 190.056688 113.106855 
L 195.167101 117.444019 
L 201.960688 123.450957 
L 204.504901 126.314419 
L 213.215772 135.184819 
L 213.864688 135.953725 
L 216.074398 144.055219 
L 218.002084 152.925619 
L 220.647623 161.796019 
L 220.880332 170.666419 
L 217.981961 179.536819 
L 214.890402 188.407219 
L 213.864688 191.490694 
L 209.98577 197.277619 
L 205.866939 204.106478 
" style="fill:none;stroke:#33638d;stroke-width:1.5;"/>
    <path clip-path="url(#pc12a8b7274)" d="M 192.659547 225.462529 
L 190.056688 230.729067 
L 188.31819 232.759219 
L 180.568115 241.629619 
L 178.152687 245.229968 
L 172.372963 250.500019 
L 166.248687 257.69391 
L 164.080797 259.370419 
L 154.405118 268.240819 
L 154.344687 268.290671 
L 142.451958 277.111219 
" style="fill:none;stroke:#33638d;stroke-width:1.5;"/>
   </g>
   <g id="LineCollection_8">
    <path clip-path="url(#pc12a8b7274)" d="M 83.579232 10.999219 
L 94.824687 19.204077 
L 95.791078 19.869619 
L 106.728687 27.964339 
L 107.805804 28.740019 
L 118.632687 36.940115 
L 119.470777 37.610419 
L 130.536687 46.258237 
L 130.779116 46.480819 
L 139.106143 55.351219 
L 142.440687 58.04862 
L 145.167609 62.408575 
" style="fill:none;stroke:#2d718e;stroke-width:1.5;"/>
    <path clip-path="url(#pc12a8b7274)" d="M 161.308949 81.306542 
L 161.803266 81.962419 
L 166.248687 85.473273 
L 169.031124 90.832819 
L 178.152687 98.551473 
L 178.984991 99.703219 
L 187.540213 108.573619 
L 190.056688 110.731746 
L 197.965656 117.444019 
L 201.960688 120.976455 
L 206.703521 126.314419 
L 213.864688 133.292667 
L 214.578819 135.184819 
L 217.869468 144.055219 
L 220.772257 152.925619 
L 225.109208 161.796019 
L 225.768687 169.408482 
L 225.779789 170.666419 
L 225.768687 170.872736 
L 221.825878 179.536819 
L 217.338667 188.407219 
L 214.161072 197.277619 
L 213.864688 198.147018 
L 207.746299 206.148019 
L 202.917519 215.018419 
L 201.960688 217.177594 
L 196.589687 223.888819 
L 191.135012 232.759219 
L 190.056688 234.656848 
L 183.275317 241.629619 
L 178.152687 249.265228 
L 176.798479 250.500019 
L 167.306977 259.370419 
L 166.248687 260.411876 
L 156.348933 268.240819 
L 154.344687 269.894227 
L 144.614029 277.111219 
" style="fill:none;stroke:#2d718e;stroke-width:1.5;"/>
   </g>
   <g id="LineCollection_9">
    <path clip-path="url(#pc12a8b7274)" d="M 84.514574 10.999219 
L 94.824687 18.521637 
L 96.782004 19.869619 
L 106.728687 27.230973 
L 108.824164 28.740019 
L 118.632687 36.168826 
L 120.435128 37.610419 
L 130.536687 45.504614 
L 131.599939 46.480819 
L 142.440687 55.257167 
L 142.507727 55.351219 
L 145.710387 60.284107 
" style="fill:none;stroke:#287d8e;stroke-width:1.5;"/>
    <path clip-path="url(#pc12a8b7274)" d="M 161.764112 79.119686 
L 164.625251 81.962419 
L 166.248687 83.244558 
L 170.188174 90.832819 
L 178.152687 97.57238 
L 179.692529 99.703219 
L 190.056688 108.51864 
L 190.131192 108.573619 
L 200.76421 117.444019 
L 201.960688 118.501953 
L 208.90214 126.314419 
L 213.864688 131.150207 
L 215.38742 135.184819 
L 219.664539 144.055219 
L 223.542429 152.925619 
L 225.768687 157.230821 
L 226.054461 161.796019 
L 226.23428 170.666419 
L 225.768687 179.319508 
L 225.669795 179.536819 
L 219.786932 188.407219 
L 215.547838 197.277619 
L 213.864688 202.214893 
L 210.857015 206.148019 
L 204.663066 215.018419 
L 201.960688 221.116575 
L 199.742058 223.888819 
L 192.716795 232.759219 
L 190.056688 237.44046 
L 185.98252 241.629619 
L 178.924704 250.500019 
L 178.152687 251.427523 
L 168.869033 259.370419 
L 166.248687 261.949088 
L 158.292748 268.240819 
L 154.344687 271.497782 
L 146.7761 277.111219 
" style="fill:none;stroke:#287d8e;stroke-width:1.5;"/>
   </g>
   <g id="LineCollection_10">
    <path clip-path="url(#pc12a8b7274)" d="M 85.449916 10.999219 
L 94.824687 17.839197 
L 97.772931 19.869619 
L 106.728687 26.497606 
L 109.842524 28.740019 
L 118.632687 35.397538 
L 121.399478 37.610419 
L 130.536687 44.75099 
L 132.420761 46.480819 
L 142.440687 54.592654 
L 142.981391 55.351219 
L 145.643229 58.607698 
" style="fill:none;stroke:#238a8d;stroke-width:1.5;"/>
    <path clip-path="url(#pc12a8b7274)" d="M 161.425383 77.561498 
L 166.248687 81.748736 
L 166.36123 81.962419 
L 171.345223 90.832819 
L 178.152687 96.593286 
L 180.400067 99.703219 
L 190.056688 107.916831 
L 190.946731 108.573619 
L 201.960688 117.083304 
L 202.35168 117.444019 
L 211.100759 126.314419 
L 213.864688 129.007748 
L 216.196022 135.184819 
L 221.45961 144.055219 
L 225.768687 152.254933 
L 225.817902 152.925619 
L 226.389803 161.796019 
L 226.688772 170.666419 
L 226.238357 179.536819 
L 225.768687 183.111611 
L 222.235197 188.407219 
L 216.934605 197.277619 
L 213.890072 206.148019 
L 213.864688 206.216279 
L 206.408612 215.018419 
L 202.219936 223.888819 
L 201.960688 224.399976 
L 194.298577 232.759219 
L 190.056688 240.224072 
L 188.689723 241.629619 
L 180.03712 250.500019 
L 178.152687 252.763985 
L 170.43109 259.370419 
L 166.248687 263.486299 
L 160.236563 268.240819 
L 154.344687 273.101337 
L 148.938171 277.111219 
" style="fill:none;stroke:#238a8d;stroke-width:1.5;"/>
   </g>
   <g id="LineCollection_11">
    <path clip-path="url(#pc12a8b7274)" d="M 86.385258 10.999219 
L 94.824687 17.156757 
L 98.763858 19.869619 
L 106.728687 25.76424 
L 110.860884 28.740019 
L 118.632687 34.62625 
L 122.363829 37.610419 
L 130.536687 43.997366 
L 133.241584 46.480819 
L 142.440687 53.92814 
L 143.455055 55.351219 
L 145.313406 57.23682 
" style="fill:none;stroke:#1f968b;stroke-width:1.5;"/>
    <path clip-path="url(#pc12a8b7274)" d="M 160.695325 76.424598 
L 166.248687 81.245618 
L 166.62621 81.962419 
L 172.502273 90.832819 
L 178.152687 95.614192 
L 181.107604 99.703219 
L 190.056688 107.315022 
L 191.762269 108.573619 
L 201.960688 116.453196 
L 203.034677 117.444019 
L 213.299379 126.314419 
L 213.864688 126.865288 
L 217.004624 135.184819 
L 223.254681 144.055219 
L 225.768687 148.839105 
L 226.068553 152.925619 
L 226.725144 161.796019 
L 227.143264 170.666419 
L 226.720429 179.536819 
L 225.768687 186.780802 
L 224.683462 188.407219 
L 218.321372 197.277619 
L 214.656393 206.148019 
L 213.864688 208.276954 
L 208.154159 215.018419 
L 203.095174 223.888819 
L 201.960688 226.125676 
L 195.88036 232.759219 
L 190.414086 241.629619 
L 190.056688 242.146128 
L 181.149536 250.500019 
L 178.152687 254.100447 
L 171.993146 259.370419 
L 166.248687 265.023511 
L 162.180378 268.240819 
L 154.344687 274.704893 
L 151.100242 277.111219 
" style="fill:none;stroke:#1f968b;stroke-width:1.5;"/>
   </g>
   <g id="LineCollection_12">
    <path clip-path="url(#pc12a8b7274)" d="M 87.3206 10.999219 
L 94.824687 16.474317 
L 99.754785 19.869619 
L 106.728687 25.030874 
L 111.879244 28.740019 
L 118.632687 33.854961 
L 123.32818 37.610419 
L 130.536687 43.243743 
L 134.062406 46.480819 
L 142.440687 53.263626 
L 143.928719 55.351219 
L 144.820403 56.12411 
" style="fill:none;stroke:#20a386;stroke-width:1.5;"/>
    <path clip-path="url(#pc12a8b7274)" d="M 159.965267 75.287699 
L 166.248687 80.742501 
L 166.891191 81.962419 
L 173.659322 90.832819 
L 178.152687 94.635098 
L 181.815142 99.703219 
L 190.056688 106.713213 
L 192.577807 108.573619 
L 201.960688 115.823089 
L 203.717674 117.444019 
L 213.864688 125.891992 
L 214.157202 126.314419 
L 217.813225 135.184819 
L 225.049751 144.055219 
L 225.768687 145.423277 
L 226.319203 152.925619 
L 227.060486 161.796019 
L 227.597756 170.666419 
L 227.2025 179.536819 
L 225.975459 188.407219 
L 225.768687 189.409546 
L 219.708139 197.277619 
L 215.422713 206.148019 
L 213.864688 210.337628 
L 209.899705 215.018419 
L 203.970413 223.888819 
L 201.960688 227.851376 
L 197.462143 232.759219 
L 191.13601 241.629619 
L 190.056688 243.189447 
L 182.261952 250.500019 
L 178.152687 255.436909 
L 173.555203 259.370419 
L 166.248687 266.560722 
L 164.124193 268.240819 
L 154.344687 276.308448 
L 153.262313 277.111219 
" style="fill:none;stroke:#20a386;stroke-width:1.5;"/>
   </g>
   <g id="LineCollection_13">
    <path clip-path="url(#pc12a8b7274)" d="M 88.255942 10.999219 
L 94.824687 15.791877 
L 100.745711 19.869619 
L 106.728687 24.297507 
L 112.897604 28.740019 
L 118.632687 33.083673 
L 124.292531 37.610419 
L 130.536687 42.490119 
L 134.883229 46.480819 
L 142.440687 52.599113 
L 144.402383 55.351219 
L 145.06656 55.919238 
" style="fill:none;stroke:#29af7f;stroke-width:1.5;"/>
    <path clip-path="url(#pc12a8b7274)" d="M 160.319441 75.092049 
L 166.248687 80.239384 
L 167.156171 81.962419 
L 174.816372 90.832819 
L 178.152687 93.656005 
L 182.52268 99.703219 
L 190.056688 106.111404 
L 193.393346 108.573619 
L 201.960688 115.192982 
L 204.400671 117.444019 
L 213.864688 125.323357 
L 214.550959 126.314419 
L 218.621827 135.184819 
L 225.768687 143.49178 
L 225.900975 144.055219 
L 226.569854 152.925619 
L 227.395828 161.796019 
L 228.052247 170.666419 
L 227.684572 179.536819 
L 226.346859 188.407219 
L 225.768687 191.209908 
L 221.094906 197.277619 
L 216.189034 206.148019 
L 213.864688 212.398303 
L 211.645252 215.018419 
L 204.845651 223.888819 
L 201.960688 229.577077 
L 199.043925 232.759219 
L 191.857933 241.629619 
L 190.056688 244.232766 
L 183.374367 250.500019 
L 178.152687 256.773371 
L 175.117259 259.370419 
L 166.248687 268.097934 
L 166.068008 268.240819 
L 154.698914 277.111219 
" style="fill:none;stroke:#29af7f;stroke-width:1.5;"/>
   </g>
   <g id="LineCollection_14">
    <path clip-path="url(#pc12a8b7274)" d="M 89.191284 10.999219 
L 94.824687 15.109437 
L 101.736638 19.869619 
L 106.728687 23.564141 
L 113.915963 28.740019 
L 118.632687 32.312385 
L 125.256882 37.610419 
L 130.536687 41.736496 
L 135.704052 46.480819 
L 142.440687 51.934599 
L 144.876046 55.351219 
L 145.394563 55.794665 
" style="fill:none;stroke:#3dbc74;stroke-width:1.5;"/>
    <path clip-path="url(#pc12a8b7274)" d="M 160.772359 74.982122 
L 166.248687 79.736267 
L 167.421152 81.962419 
L 175.973421 90.832819 
L 178.152687 92.676911 
L 183.230218 99.703219 
L 190.056688 105.509595 
L 194.208884 108.573619 
L 201.960688 114.562874 
L 205.083668 117.444019 
L 213.864688 124.754723 
L 214.944716 126.314419 
L 219.430429 135.184819 
L 225.768687 142.551924 
L 226.121641 144.055219 
L 226.820505 152.925619 
L 227.731169 161.796019 
L 228.506739 170.666419 
L 228.166644 179.536819 
L 226.718259 188.407219 
L 225.768687 193.01027 
L 222.481673 197.277619 
L 216.955355 206.148019 
L 213.864688 214.458977 
L 213.390798 215.018419 
L 205.72089 223.888819 
L 201.960688 231.302777 
L 200.625708 232.759219 
L 192.579857 241.629619 
L 190.056688 245.276085 
L 184.486783 250.500019 
L 178.152687 258.109833 
L 176.679316 259.370419 
L 166.797706 268.240819 
L 166.248687 268.737796 
L 155.408246 277.111219 
" style="fill:none;stroke:#3dbc74;stroke-width:1.5;"/>
   </g>
   <g id="LineCollection_15">
    <path clip-path="url(#pc12a8b7274)" d="M 90.126626 10.999219 
L 94.824687 14.426997 
L 102.727565 19.869619 
L 106.728687 22.830775 
L 114.934323 28.740019 
L 118.632687 31.541096 
L 126.221233 37.610419 
L 130.536687 40.982872 
L 136.524874 46.480819 
L 142.440687 51.270086 
L 145.34971 55.351219 
L 145.722565 55.670092 
" style="fill:none;stroke:#56c667;stroke-width:1.5;"/>
    <path clip-path="url(#pc12a8b7274)" d="M 161.213268 74.86177 
L 166.248687 79.23315 
L 167.686132 81.962419 
L 177.130471 90.832819 
L 178.152687 91.697817 
L 183.937755 99.703219 
L 190.056688 104.907786 
L 195.024423 108.573619 
L 201.960688 113.932767 
L 205.766666 117.444019 
L 213.864688 124.186088 
L 215.338473 126.314419 
L 220.239031 135.184819 
L 225.768687 141.612067 
L 226.342306 144.055219 
L 227.071156 152.925619 
L 228.066511 161.796019 
L 228.961231 170.666419 
L 228.648715 179.536819 
L 227.089659 188.407219 
L 225.768687 194.810632 
L 223.868439 197.277619 
L 217.721675 206.148019 
L 214.188034 215.018419 
L 213.864688 215.733806 
L 206.596128 223.888819 
L 202.028785 232.759219 
L 201.960688 232.873129 
L 193.301781 241.629619 
L 190.056688 246.319404 
L 185.599199 250.500019 
L 178.179466 259.370419 
L 178.152687 259.398685 
L 167.402985 268.240819 
L 166.248687 269.285701 
L 156.117578 277.111219 
" style="fill:none;stroke:#56c667;stroke-width:1.5;"/>
   </g>
   <g id="LineCollection_16">
    <path clip-path="url(#pc12a8b7274)" d="M 91.061967 10.999219 
L 94.824687 13.744558 
L 103.718492 19.869619 
L 106.728687 22.097408 
L 115.952683 28.740019 
L 118.632687 30.769808 
L 127.185584 37.610419 
L 130.536687 40.229248 
L 137.345697 46.480819 
L 142.440687 50.605572 
L 145.823374 55.351219 
L 146.050567 55.545519 
" style="fill:none;stroke:#75d054;stroke-width:1.5;"/>
    <path clip-path="url(#pc12a8b7274)" d="M 161.642824 74.731561 
L 166.248687 78.730033 
L 167.951113 81.962419 
L 178.152687 90.80605 
L 178.172657 90.832819 
L 184.645293 99.703219 
L 190.056688 104.305977 
L 195.839961 108.573619 
L 201.960688 113.30266 
L 206.449663 117.444019 
L 213.864688 123.617454 
L 215.73223 126.314419 
L 221.047632 135.184819 
L 225.768687 140.672211 
L 226.562972 144.055219 
L 227.321807 152.925619 
L 228.401852 161.796019 
L 229.415723 170.666419 
L 229.130787 179.536819 
L 227.461059 188.407219 
L 225.768687 196.610995 
L 225.255206 197.277619 
L 218.487996 206.148019 
L 214.631877 215.018419 
L 213.864688 216.715787 
L 207.471367 223.888819 
L 202.465225 232.759219 
L 201.960688 233.603188 
L 194.023705 241.629619 
L 190.056688 247.362723 
L 186.711615 250.500019 
L 178.651141 259.370419 
L 178.152687 259.896556 
L 168.008265 268.240819 
L 166.248687 269.833607 
L 156.82691 277.111219 
" style="fill:none;stroke:#75d054;stroke-width:1.5;"/>
   </g>
   <g id="LineCollection_17">
    <path clip-path="url(#pc12a8b7274)" d="M 91.997309 10.999219 
L 94.824687 13.062118 
L 104.709419 19.869619 
L 106.728687 21.364042 
L 116.971043 28.740019 
L 118.632687 29.99852 
L 128.149935 37.610419 
L 130.536687 39.475625 
L 138.166519 46.480819 
L 142.440687 49.941058 
L 146.297038 55.351219 
L 146.37857 55.420947 
" style="fill:none;stroke:#95d840;stroke-width:1.5;"/>
    <path clip-path="url(#pc12a8b7274)" d="M 162.061681 74.592065 
L 166.248687 78.226916 
L 168.216094 81.962419 
L 178.152687 90.576342 
L 178.344027 90.832819 
L 185.352831 99.703219 
L 190.056688 103.704168 
L 196.6555 108.573619 
L 201.960688 112.672552 
L 207.13266 117.444019 
L 213.864688 123.048819 
L 216.125987 126.314419 
L 221.856234 135.184819 
L 225.768687 139.732354 
L 226.783638 144.055219 
L 227.572457 152.925619 
L 228.737194 161.796019 
L 229.870214 170.666419 
L 229.612859 179.536819 
L 227.832459 188.407219 
L 225.929899 197.277619 
L 225.768687 197.889403 
L 219.254316 206.148019 
L 215.07572 215.018419 
L 213.864688 217.697767 
L 208.346606 223.888819 
L 202.901665 232.759219 
L 201.960688 234.333248 
L 194.745629 241.629619 
L 190.056688 248.406042 
L 187.824031 250.500019 
L 179.122815 259.370419 
L 178.152687 260.394426 
L 168.613544 268.240819 
L 166.248687 270.381512 
L 157.536242 277.111219 
" style="fill:none;stroke:#95d840;stroke-width:1.5;"/>
   </g>
   <g id="LineCollection_18">
    <path clip-path="url(#pc12a8b7274)" d="M 92.932651 10.999219 
L 94.824687 12.379678 
L 105.700345 19.869619 
L 106.728687 20.630676 
L 117.989403 28.740019 
L 118.632687 29.227231 
L 129.114286 37.610419 
L 130.536687 38.722001 
L 138.987342 46.480819 
L 142.440687 49.276545 
L 146.721723 55.282505 
" style="fill:none;stroke:#bade28;stroke-width:1.5;"/>
    <path clip-path="url(#pc12a8b7274)" d="M 162.470489 74.443845 
L 166.248687 77.723798 
L 168.481074 81.962419 
L 178.152687 90.346633 
L 178.515397 90.832819 
L 186.060369 99.703219 
L 190.056688 103.102359 
L 197.471038 108.573619 
L 201.960688 112.042445 
L 207.815657 117.444019 
L 213.864688 122.480185 
L 216.519745 126.314419 
L 222.664836 135.184819 
L 225.768687 138.792498 
L 227.004303 144.055219 
L 227.823108 152.925619 
L 229.072536 161.796019 
L 230.324706 170.666419 
L 230.09493 179.536819 
L 228.203859 188.407219 
L 226.185901 197.277619 
L 225.768687 198.860908 
L 220.020637 206.148019 
L 215.519563 215.018419 
L 213.864688 218.679747 
L 209.221844 223.888819 
L 203.338105 232.759219 
L 201.960688 235.063308 
L 195.467552 241.629619 
L 190.056688 249.449361 
L 188.936447 250.500019 
L 179.59449 259.370419 
L 178.152687 260.892297 
L 169.218824 268.240819 
L 166.248687 270.929418 
L 158.245575 277.111219 
" style="fill:none;stroke:#bade28;stroke-width:1.5;"/>
   </g>
   <g id="LineCollection_19">
    <path clip-path="url(#pc12a8b7274)" d="M 93.867993 10.999219 
L 94.824687 11.697238 
L 106.691272 19.869619 
L 106.728687 19.897309 
L 118.632687 28.690453 
L 118.698716 28.740019 
L 130.078637 37.610419 
L 130.536687 37.968377 
L 139.808164 46.480819 
L 142.440687 48.612031 
L 147.084137 55.12643 
" style="fill:none;stroke:#dde318;stroke-width:1.5;"/>
    <path clip-path="url(#pc12a8b7274)" d="M 162.869879 74.287449 
L 166.248687 77.220681 
L 168.746055 81.962419 
L 178.152687 90.116924 
L 178.686767 90.832819 
L 186.767906 99.703219 
L 190.056688 102.50055 
L 198.286576 108.573619 
L 201.960688 111.412338 
L 208.498654 117.444019 
L 213.864688 121.911551 
L 216.913502 126.314419 
L 223.473438 135.184819 
L 225.768687 137.852641 
L 227.224969 144.055219 
L 228.073759 152.925619 
L 229.407877 161.796019 
L 230.779198 170.666419 
L 230.577002 179.536819 
L 228.575259 188.407219 
L 226.441904 197.277619 
L 225.768687 199.832414 
L 220.786958 206.148019 
L 215.963406 215.018419 
L 213.864688 219.661727 
L 210.097083 223.888819 
L 203.774545 232.759219 
L 201.960688 235.793368 
L 196.189476 241.629619 
L 190.056688 250.49268 
L 190.048863 250.500019 
L 180.066164 259.370419 
L 178.152687 261.390168 
L 169.824103 268.240819 
L 166.248687 271.477323 
L 158.954907 277.111219 
" style="fill:none;stroke:#dde318;stroke-width:1.5;"/>
   </g>
   <g id="LineCollection_20">
    <path clip-path="url(#pc12a8b7274)" d="M 94.803335 10.999219 
L 94.824687 11.014798 
L 106.728687 19.741971 
L 106.903544 19.869619 
L 118.632687 28.555878 
L 118.877987 28.740019 
L 130.536687 37.539382 
L 130.624044 37.610419 
L 140.628987 46.480819 
L 142.440687 47.947518 
L 147.446551 54.970356 
" style="fill:none;stroke:#fde725;stroke-width:1.5;"/>
    <path clip-path="url(#pc12a8b7274)" d="M 163.260464 74.123409 
L 166.248687 76.717564 
L 169.011035 81.962419 
L 178.152687 89.887216 
L 178.858136 90.832819 
L 187.475444 99.703219 
L 190.056688 101.898742 
L 199.102115 108.573619 
L 201.960688 110.78223 
L 209.181651 117.444019 
L 213.864688 121.342916 
L 217.307259 126.314419 
L 224.282039 135.184819 
L 225.768687 136.912784 
L 227.445634 144.055219 
L 228.32441 152.925619 
L 229.743219 161.796019 
L 231.23369 170.666419 
L 231.059074 179.536819 
L 228.946659 188.407219 
L 226.697906 197.277619 
L 225.768687 200.803919 
L 221.553278 206.148019 
L 216.407249 215.018419 
L 213.864688 220.643708 
L 210.972321 223.888819 
L 204.210986 232.759219 
L 201.960688 236.523427 
L 196.9114 241.629619 
L 190.387437 250.500019 
L 190.056688 250.916002 
L 180.537839 259.370419 
L 178.152687 261.888039 
L 170.429383 268.240819 
L 166.248687 272.025229 
L 159.664239 277.111219 
" style="fill:none;stroke:#fde725;stroke-width:1.5;"/>
   </g>
   <g id="LineCollection_21">
    <path clip-path="url(#pc12a8b7274)" d="M 95.001249 10.999219 
L 106.728687 19.609313 
L 107.085262 19.869619 
L 118.632687 28.421303 
L 119.057258 28.740019 
L 130.536687 37.404077 
L 130.790433 37.610419 
L 141.44981 46.480819 
L 142.440687 47.283004 
L 148.191693 55.351219 
L 154.344687 60.613389 
L 155.671194 64.221619 
L 160.709725 70.624053 
" style="fill:none;stroke:#440154;stroke-width:1.5;"/>
    <path clip-path="url(#pc12a8b7274)" d="M 179.881131 91.658107 
L 188.182982 99.703219 
L 190.056688 101.296933 
L 199.917653 108.573619 
L 201.960688 110.152123 
L 209.864648 117.444019 
L 213.864688 120.774282 
L 217.701016 126.314419 
L 225.090641 135.184819 
L 225.768687 135.972928 
L 227.6663 144.055219 
L 228.575061 152.925619 
L 230.07856 161.796019 
L 231.688181 170.666419 
L 231.541145 179.536819 
L 229.318059 188.407219 
L 226.953908 197.277619 
L 225.768687 201.775425 
L 222.319599 206.148019 
L 216.851092 215.018419 
L 213.864688 221.625688 
L 211.84756 223.888819 
L 204.647426 232.759219 
L 201.960688 237.253487 
L 197.633324 241.629619 
L 190.72053 250.500019 
L 190.056688 251.334932 
L 181.009513 259.370419 
L 178.152687 262.385909 
L 171.034662 268.240819 
L 166.248687 272.573134 
L 160.373571 277.111219 
" style="fill:none;stroke:#440154;stroke-width:1.5;"/>
   </g>
   <g id="LineCollection_22">
    <path clip-path="url(#pc12a8b7274)" d="M 110.667469 10.999219 
L 118.632687 16.911493 
L 122.508283 19.869619 
L 130.536687 25.860246 
L 134.207695 28.740019 
L 142.440687 34.974136 
L 145.248977 37.610419 
L 154.344687 44.978815 
L 155.264576 46.480819 
L 161.377661 55.351219 
L 166.248687 59.918639 
L 168.434155 64.221619 
L 178.152687 73.042638 
L 178.188523 73.092019 
L 184.838085 81.962419 
L 189.57632 85.966696 
" style="fill:none;stroke:#440154;stroke-width:1.5;"/>
    <path clip-path="url(#pc12a8b7274)" d="M 215.850614 104.567906 
L 220.989638 108.573619 
L 225.768687 112.618899 
L 229.492726 117.444019 
L 237.672687 125.63679 
L 238.06173 126.314419 
L 241.959229 135.184819 
L 243.409844 144.055219 
L 244.164928 152.925619 
L 246.110755 161.796019 
L 248.512215 170.666419 
L 249.576687 175.869595 
L 249.758217 179.536819 
L 249.641856 188.407219 
L 249.576687 189.069329 
L 246.600144 197.277619 
L 242.839972 206.148019 
L 239.673742 215.018419 
L 237.672687 221.490375 
L 236.010093 223.888819 
L 228.968271 232.759219 
L 225.768687 237.885922 
L 222.197091 241.629619 
L 214.87454 250.500019 
L 213.864688 251.826824 
L 205.798609 259.370419 
L 201.960688 264.052998 
L 197.193274 268.240819 
L 190.056688 275.874612 
L 188.57407 277.111219 
" style="fill:none;stroke:#440154;stroke-width:1.5;"/>
   </g>
   <g id="LineCollection_23">
    <path clip-path="url(#pc12a8b7274)" d="M 130.902887 10.999219 
L 142.440687 19.700771 
L 142.637671 19.869619 
L 153.15796 28.740019 
L 154.344687 29.676987 
L 160.259808 37.610419 
L 166.248687 43.025051 
L 168.264579 46.480819 
L 176.93828 55.351219 
L 178.152687 56.477716 
L 183.484283 64.221619 
L 190.056688 69.922431 
L 192.994681 73.092019 
L 201.960688 80.386039 
L 203.977707 81.962419 
L 213.864688 88.973162 
L 218.854085 90.832819 
L 222.94354 93.369654 
" style="fill:none;stroke:#440154;stroke-width:1.5;"/>
    <path clip-path="url(#pc12a8b7274)" d="M 250.02673 116.702931 
L 250.578306 117.444019 
L 257.145688 126.314419 
L 261.480687 131.335471 
L 263.0121 135.184819 
L 262.622195 144.055219 
L 262.775633 152.925619 
L 263.425101 161.796019 
L 264.087162 170.666419 
L 264.829564 179.536819 
L 265.456904 188.407219 
L 265.608497 197.277619 
L 264.831022 206.148019 
L 263.250372 215.018419 
L 261.480687 223.206747 
L 261.116744 223.888819 
L 255.450856 232.759219 
L 249.576687 241.560957 
L 249.510339 241.629619 
L 240.394523 250.500019 
L 237.672687 253.829496 
L 231.829713 259.370419 
L 225.768687 266.661345 
L 224.076754 268.240819 
L 215.223944 277.111219 
" style="fill:none;stroke:#440154;stroke-width:1.5;"/>
   </g>
   <g id="LineCollection_24">
    <path clip-path="url(#pc12a8b7274)" d="M 151.190004 10.999219 
L 154.344687 13.451135 
L 160.222458 19.869619 
L 166.248687 25.023907 
L 168.81658 28.740019 
L 178.152687 37.346566 
L 178.324748 37.610419 
L 184.400171 46.480819 
L 190.056688 51.605788 
L 193.038176 55.351219 
L 201.960688 62.899225 
L 203.319023 64.221619 
L 213.864688 72.470658 
L 214.812641 73.092019 
L 225.768687 80.34024 
L 230.9972 81.962419 
L 237.672687 85.827583 
L 245.857237 90.832819 
L 249.576687 93.790815 
L 254.621716 99.703219 
L 258.976075 103.927593 
" style="fill:none;stroke:#440154;stroke-width:1.5;"/>
    <path clip-path="url(#pc12a8b7274)" d="M 280.980979 135.622681 
L 279.501041 144.055219 
L 279.572542 152.925619 
L 280.483305 161.796019 
L 281.185237 170.666419 
L 282.135866 179.536819 
L 283.239538 188.407219 
L 284.259507 197.277619 
L 284.934563 206.148019 
L 284.960533 215.018419 
L 283.981198 223.888819 
L 281.960305 232.759219 
L 277.296833 241.629619 
L 273.384688 248.046831 
L 270.944212 250.500019 
L 262.837349 259.370419 
L 261.480687 261.026758 
L 253.771167 268.240819 
L 249.576687 273.045046 
L 245.150765 277.111219 
" style="fill:none;stroke:#440154;stroke-width:1.5;"/>
   </g>
   <g id="LineCollection_25">
    <path clip-path="url(#pc12a8b7274)" d="M 170.137168 10.999219 
L 178.152687 18.128656 
L 179.361863 19.869619 
L 187.266964 28.740019 
L 190.056688 31.307418 
L 194.696058 37.610419 
L 201.960688 44.023621 
L 204.142081 46.480819 
L 213.864688 54.563084 
L 214.745751 55.351219 
L 225.768687 63.730916 
L 226.647155 64.221619 
L 237.672687 70.993184 
L 245.118542 73.092019 
L 249.576687 75.576305 
L 260.431031 81.962419 
L 261.480687 82.786239 
L 268.587317 90.832819 
L 273.384688 95.435115 
L 275.645482 99.703219 
L 276.441316 100.496768 
" style="fill:none;stroke:#440154;stroke-width:1.5;"/>
    <path clip-path="url(#pc12a8b7274)" d="M 297.78139 136.681732 
L 297.454114 144.055219 
L 297.522886 152.925619 
L 297.829786 161.796019 
L 298.046879 170.666419 
L 298.347129 179.536819 
L 298.776128 188.407219 
L 299.221456 197.277619 
L 299.660834 206.148019 
L 300.058014 215.018419 
L 300.374765 223.888819 
L 300.520193 232.759219 
L 300.106365 241.629619 
L 297.860605 250.500019 
L 297.192688 252.464384 
L 291.494039 259.370419 
L 285.836663 268.240819 
L 285.288688 269.042433 
L 276.820574 277.111219 
" style="fill:none;stroke:#440154;stroke-width:1.5;"/>
   </g>
   <g id="LineCollection_26">
    <path clip-path="url(#pc12a8b7274)" d="M 190.606521 10.999219 
L 197.995183 19.869619 
L 201.960688 23.443848 
L 206.279073 28.740019 
L 213.864688 35.284286 
L 216.138065 37.610419 
L 225.768687 45.412459 
L 227.149296 46.480819 
L 237.672687 54.148044 
L 240.153902 55.351219 
L 249.576687 60.770118 
L 261.480687 64.080711 
L 261.830111 64.221619 
L 273.384688 72.354496 
L 273.96484 73.092019 
L 281.131779 81.962419 
L 285.288688 86.095711 
L 287.174341 90.832819 
L 293.301947 99.703219 
L 295.806638 102.223516 
" style="fill:none;stroke:#450457;stroke-width:1.5;"/>
    <path clip-path="url(#pc12a8b7274)" d="M 311.321414 144.385279 
L 311.672257 152.925619 
L 312.41084 161.796019 
L 313.001401 170.666419 
L 313.730586 179.536819 
L 314.814056 188.407219 
L 316.035423 197.277619 
L 317.26487 206.148019 
L 318.458199 215.018419 
L 319.569967 223.888819 
L 320.440366 232.759219 
L 321.000688 240.972785 
L 321.011439 241.629619 
L 321.000688 241.753482 
L 318.160809 250.500019 
L 314.420223 259.370419 
L 310.761637 268.240819 
L 309.096688 271.978469 
L 304.558533 277.111219 
" style="fill:none;stroke:#450457;stroke-width:1.5;"/>
   </g>
   <g id="LineCollection_27">
    <path clip-path="url(#pc12a8b7274)" d="M 209.717974 10.999219 
L 213.864688 14.613319 
L 218.71175 19.869619 
L 225.768687 25.777426 
L 229.073549 28.740019 
L 237.672687 35.401312 
L 240.981884 37.610419 
L 249.576687 43.580611 
L 255.847583 46.480819 
L 261.480687 49.656833 
L 273.384688 54.417635 
L 274.963303 55.351219 
L 285.288688 63.793327 
L 285.537427 64.221619 
L 290.362002 73.092019 
L 297.192688 80.083087 
L 297.913877 81.962419 
L 302.167001 90.832819 
L 306.364236 95.273073 
" style="fill:none;stroke:#482475;stroke-width:1.5;"/>
    <path clip-path="url(#pc12a8b7274)" d="M 326.82586 139.635634 
L 326.635996 144.055219 
L 327.657463 152.925619 
L 329.281288 161.796019 
L 330.788115 170.666419 
L 332.565358 179.536819 
L 332.904688 180.875069 
L 333.363888 188.407219 
L 334.054825 197.277619 
L 334.827 206.148019 
L 335.635495 215.018419 
L 336.396364 223.888819 
L 337.032081 232.759219 
L 337.527035 241.629619 
L 337.272771 250.500019 
L 335.550648 259.370419 
L 333.630712 268.240819 
L 332.904688 270.655306 
L 328.348149 277.111219 
" style="fill:none;stroke:#482475;stroke-width:1.5;"/>
   </g>
   <g id="LineCollection_28">
    <path clip-path="url(#pc12a8b7274)" d="M 231.362018 10.999219 
L 237.672687 16.072235 
L 242.476388 19.869619 
L 249.576687 25.086635 
L 255.442994 28.740019 
L 261.480687 32.855442 
L 270.145556 37.610419 
L 273.384688 39.621759 
L 285.288688 46.13464 
L 285.776556 46.480819 
L 294.276772 55.351219 
L 297.192688 58.139499 
L 299.976209 64.221619 
L 307.297958 73.092019 
L 309.096688 74.985891 
L 311.771882 81.962419 
L 318.834871 90.832819 
L 321.000688 93.077426 
L 321.91654 95.231773 
" style="fill:none;stroke:#fde725;stroke-width:1.5;"/>
    <path clip-path="url(#pc12a8b7274)" d="M 344.875224 142.032729 
L 344.865271 144.055219 
L 345.331809 152.925619 
L 346.016261 161.796019 
L 346.750665 170.666419 
L 347.630632 179.536819 
L 348.901477 188.407219 
L 350.657648 197.277619 
L 352.758133 206.148019 
L 354.998642 215.018419 
L 356.712688 222.157734 
L 356.823162 223.888819 
L 357.267817 232.759219 
L 357.613359 241.629619 
L 357.957395 250.500019 
L 357.219866 259.370419 
L 356.712688 263.302358 
L 354.768278 268.240819 
L 350.005953 277.111219 
" style="fill:none;stroke:#fde725;stroke-width:1.5;"/>
   </g>
   <g id="line2d_20">
    <path clip-path="url(#pc12a8b7274)" d="M 406.987188 191.527239 
L 400.008895 190.913073 
L 385.861209 189.491488 
L 371.936503 187.701155 
L 358.273313 185.75293 
L 344.861151 183.46276 
L 331.639818 180.825431 
L 318.725767 178.121849 
L 306.028951 175.246005 
L 293.540682 172.178773 
L 281.290989 169.049301 
L 269.231687 165.443406 
L 257.403919 161.779815 
L 245.787857 158.059774 
L 234.249106 153.521971 
L 223.092449 149.912178 
L 222.025328 149.824154 
L 220.94492 149.68954 
L 219.855803 149.505495 
L 218.775979 149.307705 
L 217.696905 149.094088 
L 216.617542 148.868117 
L 215.541289 148.636942 
L 214.465356 148.418123 
L 213.396972 148.181129 
L 212.330666 147.949863 
L 211.266014 147.71998 
L 210.206551 147.471979 
L 209.143407 147.240663 
L 208.081233 147.009412 
L 207.025111 146.769771 
L 205.969586 146.531884 
L 204.918447 146.318072 
L 203.869169 146.072347 
L 202.82558 145.841183 
L 201.780453 145.589784 
L 200.742358 145.356148 
L 199.700674 145.090488 
L 198.660879 144.874576 
L 197.625673 144.598694 
L 196.593366 144.371261 
L 196.491815 144.357492 
L 196.388818 144.342967 
L 196.285164 144.327851 
L 196.181704 144.31233 
L 196.078771 144.299424 
L 195.974501 144.285302 
L 195.871721 144.27188 
L 195.768965 144.259398 
L 195.665718 144.249307 
L 195.562188 144.23828 
L 195.459313 144.224133 
L 195.356765 144.208635 
L 195.254012 144.194933 
L 195.150598 144.181011 
L 195.047974 144.17045 
L 194.945435 144.156072 
L 194.843524 144.142423 
L 194.740744 144.132236 
L 194.638145 144.122923 
L 194.535128 144.112418 
L 194.432697 144.097406 
L 194.3305 144.084806 
L 194.228867 144.073903 
L 194.126678 144.065578 
" style="fill:none;stroke:#1f77b4;stroke-linecap:square;stroke-width:1.5;"/>
    <defs>
     <path d="M 0 1.5 
C 0.397805 1.5 0.77937 1.341951 1.06066 1.06066 
C 1.341951 0.77937 1.5 0.397805 1.5 0 
C 1.5 -0.397805 1.341951 -0.77937 1.06066 -1.06066 
C 0.77937 -1.341951 0.397805 -1.5 0 -1.5 
C -0.397805 -1.5 -0.77937 -1.341951 -1.06066 -1.06066 
C -1.341951 -0.77937 -1.5 -0.397805 -1.5 0 
C -1.5 0.397805 -1.341951 0.77937 -1.06066 1.06066 
C -0.77937 1.341951 -0.397805 1.5 0 1.5 
z
" id="m7661f8019b" style="stroke:#1f77b4;"/>
    </defs>
    <g clip-path="url(#pc12a8b7274)">
     <use style="fill:#1f77b4;stroke:#1f77b4;" x="1086.358477" xlink:href="#m7661f8019b" y="113.520392"/>
     <use style="fill:#1f77b4;stroke:#1f77b4;" x="1063.092613" xlink:href="#m7661f8019b" y="116.365699"/>
     <use style="fill:#1f77b4;stroke:#1f77b4;" x="1037.851711" xlink:href="#m7661f8019b" y="119.283105"/>
     <use style="fill:#1f77b4;stroke:#1f77b4;" x="1012.947752" xlink:href="#m7661f8019b" y="122.33342"/>
     <use style="fill:#1f77b4;stroke:#1f77b4;" x="988.438861" xlink:href="#m7661f8019b" y="125.618575"/>
     <use style="fill:#1f77b4;stroke:#1f77b4;" x="964.322496" xlink:href="#m7661f8019b" y="129.07097"/>
     <use style="fill:#1f77b4;stroke:#1f77b4;" x="940.601623" xlink:href="#m7661f8019b" y="132.559212"/>
     <use style="fill:#1f77b4;stroke:#1f77b4;" x="917.253113" xlink:href="#m7661f8019b" y="136.379482"/>
     <use style="fill:#1f77b4;stroke:#1f77b4;" x="894.286715" xlink:href="#m7661f8019b" y="140.071568"/>
     <use style="fill:#1f77b4;stroke:#1f77b4;" x="871.694799" xlink:href="#m7661f8019b" y="143.745258"/>
     <use style="fill:#1f77b4;stroke:#1f77b4;" x="849.443641" xlink:href="#m7661f8019b" y="147.722155"/>
     <use style="fill:#1f77b4;stroke:#1f77b4;" x="827.538992" xlink:href="#m7661f8019b" y="151.557999"/>
     <use style="fill:#1f77b4;stroke:#1f77b4;" x="806.013609" xlink:href="#m7661f8019b" y="155.258235"/>
     <use style="fill:#1f77b4;stroke:#1f77b4;" x="784.85175" xlink:href="#m7661f8019b" y="158.817917"/>
     <use style="fill:#1f77b4;stroke:#1f77b4;" x="763.991172" xlink:href="#m7661f8019b" y="162.488907"/>
     <use style="fill:#1f77b4;stroke:#1f77b4;" x="743.49666" xlink:href="#m7661f8019b" y="166.017681"/>
     <use style="fill:#1f77b4;stroke:#1f77b4;" x="723.354471" xlink:href="#m7661f8019b" y="169.292672"/>
     <use style="fill:#1f77b4;stroke:#1f77b4;" x="703.544139" xlink:href="#m7661f8019b" y="172.425781"/>
     <use style="fill:#1f77b4;stroke:#1f77b4;" x="684.057884" xlink:href="#m7661f8019b" y="175.455913"/>
     <use style="fill:#1f77b4;stroke:#1f77b4;" x="664.946354" xlink:href="#m7661f8019b" y="178.193943"/>
     <use style="fill:#1f77b4;stroke:#1f77b4;" x="646.125206" xlink:href="#m7661f8019b" y="180.856361"/>
     <use style="fill:#1f77b4;stroke:#1f77b4;" x="627.636521" xlink:href="#m7661f8019b" y="183.184057"/>
     <use style="fill:#1f77b4;stroke:#1f77b4;" x="609.475274" xlink:href="#m7661f8019b" y="185.351053"/>
     <use style="fill:#1f77b4;stroke:#1f77b4;" x="591.619184" xlink:href="#m7661f8019b" y="187.287665"/>
     <use style="fill:#1f77b4;stroke:#1f77b4;" x="574.054565" xlink:href="#m7661f8019b" y="189.019491"/>
     <use style="fill:#1f77b4;stroke:#1f77b4;" x="556.790502" xlink:href="#m7661f8019b" y="190.593242"/>
     <use style="fill:#1f77b4;stroke:#1f77b4;" x="539.874855" xlink:href="#m7661f8019b" y="191.688289"/>
     <use style="fill:#1f77b4;stroke:#1f77b4;" x="523.196946" xlink:href="#m7661f8019b" y="192.584991"/>
     <use style="fill:#1f77b4;stroke:#1f77b4;" x="506.777088" xlink:href="#m7661f8019b" y="193.298943"/>
     <use style="fill:#1f77b4;stroke:#1f77b4;" x="490.711792" xlink:href="#m7661f8019b" y="193.831962"/>
     <use style="fill:#1f77b4;stroke:#1f77b4;" x="474.869854" xlink:href="#m7661f8019b" y="194.016641"/>
     <use style="fill:#1f77b4;stroke:#1f77b4;" x="459.362073" xlink:href="#m7661f8019b" y="193.842558"/>
     <use style="fill:#1f77b4;stroke:#1f77b4;" x="444.118883" xlink:href="#m7661f8019b" y="193.676713"/>
     <use style="fill:#1f77b4;stroke:#1f77b4;" x="429.139783" xlink:href="#m7661f8019b" y="193.214042"/>
     <use style="fill:#1f77b4;stroke:#1f77b4;" x="414.469366" xlink:href="#m7661f8019b" y="192.185753"/>
     <use style="fill:#1f77b4;stroke:#1f77b4;" x="400.008895" xlink:href="#m7661f8019b" y="190.913073"/>
     <use style="fill:#1f77b4;stroke:#1f77b4;" x="385.861209" xlink:href="#m7661f8019b" y="189.491488"/>
     <use style="fill:#1f77b4;stroke:#1f77b4;" x="371.936503" xlink:href="#m7661f8019b" y="187.701155"/>
     <use style="fill:#1f77b4;stroke:#1f77b4;" x="358.273313" xlink:href="#m7661f8019b" y="185.75293"/>
     <use style="fill:#1f77b4;stroke:#1f77b4;" x="344.861151" xlink:href="#m7661f8019b" y="183.46276"/>
     <use style="fill:#1f77b4;stroke:#1f77b4;" x="331.639818" xlink:href="#m7661f8019b" y="180.825431"/>
     <use style="fill:#1f77b4;stroke:#1f77b4;" x="318.725767" xlink:href="#m7661f8019b" y="178.121849"/>
     <use style="fill:#1f77b4;stroke:#1f77b4;" x="306.028951" xlink:href="#m7661f8019b" y="175.246005"/>
     <use style="fill:#1f77b4;stroke:#1f77b4;" x="293.540682" xlink:href="#m7661f8019b" y="172.178773"/>
     <use style="fill:#1f77b4;stroke:#1f77b4;" x="281.290989" xlink:href="#m7661f8019b" y="169.049301"/>
     <use style="fill:#1f77b4;stroke:#1f77b4;" x="269.231687" xlink:href="#m7661f8019b" y="165.443406"/>
     <use style="fill:#1f77b4;stroke:#1f77b4;" x="257.403919" xlink:href="#m7661f8019b" y="161.779815"/>
     <use style="fill:#1f77b4;stroke:#1f77b4;" x="245.787857" xlink:href="#m7661f8019b" y="158.059774"/>
     <use style="fill:#1f77b4;stroke:#1f77b4;" x="234.249106" xlink:href="#m7661f8019b" y="153.521971"/>
     <use style="fill:#1f77b4;stroke:#1f77b4;" x="223.092449" xlink:href="#m7661f8019b" y="149.912178"/>
     <use style="fill:#1f77b4;stroke:#1f77b4;" x="222.025328" xlink:href="#m7661f8019b" y="149.824154"/>
     <use style="fill:#1f77b4;stroke:#1f77b4;" x="220.94492" xlink:href="#m7661f8019b" y="149.68954"/>
     <use style="fill:#1f77b4;stroke:#1f77b4;" x="219.855803" xlink:href="#m7661f8019b" y="149.505495"/>
     <use style="fill:#1f77b4;stroke:#1f77b4;" x="218.775979" xlink:href="#m7661f8019b" y="149.307705"/>
     <use style="fill:#1f77b4;stroke:#1f77b4;" x="217.696905" xlink:href="#m7661f8019b" y="149.094088"/>
     <use style="fill:#1f77b4;stroke:#1f77b4;" x="216.617542" xlink:href="#m7661f8019b" y="148.868117"/>
     <use style="fill:#1f77b4;stroke:#1f77b4;" x="215.541289" xlink:href="#m7661f8019b" y="148.636942"/>
     <use style="fill:#1f77b4;stroke:#1f77b4;" x="214.465356" xlink:href="#m7661f8019b" y="148.418123"/>
     <use style="fill:#1f77b4;stroke:#1f77b4;" x="213.396972" xlink:href="#m7661f8019b" y="148.181129"/>
     <use style="fill:#1f77b4;stroke:#1f77b4;" x="212.330666" xlink:href="#m7661f8019b" y="147.949863"/>
     <use style="fill:#1f77b4;stroke:#1f77b4;" x="211.266014" xlink:href="#m7661f8019b" y="147.71998"/>
     <use style="fill:#1f77b4;stroke:#1f77b4;" x="210.206551" xlink:href="#m7661f8019b" y="147.471979"/>
     <use style="fill:#1f77b4;stroke:#1f77b4;" x="209.143407" xlink:href="#m7661f8019b" y="147.240663"/>
     <use style="fill:#1f77b4;stroke:#1f77b4;" x="208.081233" xlink:href="#m7661f8019b" y="147.009412"/>
     <use style="fill:#1f77b4;stroke:#1f77b4;" x="207.025111" xlink:href="#m7661f8019b" y="146.769771"/>
     <use style="fill:#1f77b4;stroke:#1f77b4;" x="205.969586" xlink:href="#m7661f8019b" y="146.531884"/>
     <use style="fill:#1f77b4;stroke:#1f77b4;" x="204.918447" xlink:href="#m7661f8019b" y="146.318072"/>
     <use style="fill:#1f77b4;stroke:#1f77b4;" x="203.869169" xlink:href="#m7661f8019b" y="146.072347"/>
     <use style="fill:#1f77b4;stroke:#1f77b4;" x="202.82558" xlink:href="#m7661f8019b" y="145.841183"/>
     <use style="fill:#1f77b4;stroke:#1f77b4;" x="201.780453" xlink:href="#m7661f8019b" y="145.589784"/>
     <use style="fill:#1f77b4;stroke:#1f77b4;" x="200.742358" xlink:href="#m7661f8019b" y="145.356148"/>
     <use style="fill:#1f77b4;stroke:#1f77b4;" x="199.700674" xlink:href="#m7661f8019b" y="145.090488"/>
     <use style="fill:#1f77b4;stroke:#1f77b4;" x="198.660879" xlink:href="#m7661f8019b" y="144.874576"/>
     <use style="fill:#1f77b4;stroke:#1f77b4;" x="197.625673" xlink:href="#m7661f8019b" y="144.598694"/>
     <use style="fill:#1f77b4;stroke:#1f77b4;" x="196.593366" xlink:href="#m7661f8019b" y="144.371261"/>
     <use style="fill:#1f77b4;stroke:#1f77b4;" x="196.491815" xlink:href="#m7661f8019b" y="144.357492"/>
     <use style="fill:#1f77b4;stroke:#1f77b4;" x="196.388818" xlink:href="#m7661f8019b" y="144.342967"/>
     <use style="fill:#1f77b4;stroke:#1f77b4;" x="196.285164" xlink:href="#m7661f8019b" y="144.327851"/>
     <use style="fill:#1f77b4;stroke:#1f77b4;" x="196.181704" xlink:href="#m7661f8019b" y="144.31233"/>
     <use style="fill:#1f77b4;stroke:#1f77b4;" x="196.078771" xlink:href="#m7661f8019b" y="144.299424"/>
     <use style="fill:#1f77b4;stroke:#1f77b4;" x="195.974501" xlink:href="#m7661f8019b" y="144.285302"/>
     <use style="fill:#1f77b4;stroke:#1f77b4;" x="195.871721" xlink:href="#m7661f8019b" y="144.27188"/>
     <use style="fill:#1f77b4;stroke:#1f77b4;" x="195.768965" xlink:href="#m7661f8019b" y="144.259398"/>
     <use style="fill:#1f77b4;stroke:#1f77b4;" x="195.665718" xlink:href="#m7661f8019b" y="144.249307"/>
     <use style="fill:#1f77b4;stroke:#1f77b4;" x="195.562188" xlink:href="#m7661f8019b" y="144.23828"/>
     <use style="fill:#1f77b4;stroke:#1f77b4;" x="195.459313" xlink:href="#m7661f8019b" y="144.224133"/>
     <use style="fill:#1f77b4;stroke:#1f77b4;" x="195.356765" xlink:href="#m7661f8019b" y="144.208635"/>
     <use style="fill:#1f77b4;stroke:#1f77b4;" x="195.254012" xlink:href="#m7661f8019b" y="144.194933"/>
     <use style="fill:#1f77b4;stroke:#1f77b4;" x="195.150598" xlink:href="#m7661f8019b" y="144.181011"/>
     <use style="fill:#1f77b4;stroke:#1f77b4;" x="195.047974" xlink:href="#m7661f8019b" y="144.17045"/>
     <use style="fill:#1f77b4;stroke:#1f77b4;" x="194.945435" xlink:href="#m7661f8019b" y="144.156072"/>
     <use style="fill:#1f77b4;stroke:#1f77b4;" x="194.843524" xlink:href="#m7661f8019b" y="144.142423"/>
     <use style="fill:#1f77b4;stroke:#1f77b4;" x="194.740744" xlink:href="#m7661f8019b" y="144.132236"/>
     <use style="fill:#1f77b4;stroke:#1f77b4;" x="194.638145" xlink:href="#m7661f8019b" y="144.122923"/>
     <use style="fill:#1f77b4;stroke:#1f77b4;" x="194.535128" xlink:href="#m7661f8019b" y="144.112418"/>
     <use style="fill:#1f77b4;stroke:#1f77b4;" x="194.432697" xlink:href="#m7661f8019b" y="144.097406"/>
     <use style="fill:#1f77b4;stroke:#1f77b4;" x="194.3305" xlink:href="#m7661f8019b" y="144.084806"/>
     <use style="fill:#1f77b4;stroke:#1f77b4;" x="194.228867" xlink:href="#m7661f8019b" y="144.073903"/>
     <use style="fill:#1f77b4;stroke:#1f77b4;" x="194.126678" xlink:href="#m7661f8019b" y="144.065578"/>
    </g>
   </g>
   <g id="patch_3">
    <path d="M 35.304688 277.111219 
L 35.304688 10.999219 
" style="fill:none;stroke:#000000;stroke-linecap:square;stroke-linejoin:miter;stroke-width:0.8;"/>
   </g>
   <g id="patch_4">
    <path d="M 392.424688 277.111219 
L 392.424688 10.999219 
" style="fill:none;stroke:#000000;stroke-linecap:square;stroke-linejoin:miter;stroke-width:0.8;"/>
   </g>
   <g id="patch_5">
    <path d="M 35.304687 277.111219 
L 392.424688 277.111219 
" style="fill:none;stroke:#000000;stroke-linecap:square;stroke-linejoin:miter;stroke-width:0.8;"/>
   </g>
   <g id="patch_6">
    <path d="M 35.304687 10.999219 
L 392.424688 10.999219 
" style="fill:none;stroke:#000000;stroke-linecap:square;stroke-linejoin:miter;stroke-width:0.8;"/>
   </g>
   <g id="text_20">
    <g clip-path="url(#pc12a8b7274)">
     <!-- 1.500 -->
     <g style="fill:#453781;" transform="translate(184.365003 128.234206)rotate(-296.464822)scale(0.06 -0.06)">
      <defs>
       <path d="M 10.6875 12.40625 
L 21 12.40625 
L 21 0 
L 10.6875 0 
z
" id="DejaVuSans-46"/>
      </defs>
      <use xlink:href="#DejaVuSans-49"/>
      <use x="63.623047" xlink:href="#DejaVuSans-46"/>
      <use x="95.410156" xlink:href="#DejaVuSans-53"/>
      <use x="159.033203" xlink:href="#DejaVuSans-48"/>
      <use x="222.65625" xlink:href="#DejaVuSans-48"/>
     </g>
    </g>
   </g>
   <g id="text_21">
    <g clip-path="url(#pc12a8b7274)">
     <!-- 2.000 -->
     <g style="fill:#404688;" transform="translate(152.826451 161.549472)rotate(-88.697481)scale(0.06 -0.06)">
      <use xlink:href="#DejaVuSans-50"/>
      <use x="63.623047" xlink:href="#DejaVuSans-46"/>
      <use x="95.410156" xlink:href="#DejaVuSans-48"/>
      <use x="159.033203" xlink:href="#DejaVuSans-48"/>
      <use x="222.65625" xlink:href="#DejaVuSans-48"/>
     </g>
    </g>
   </g>
   <g id="text_22">
    <g clip-path="url(#pc12a8b7274)">
     <!-- 2.500 -->
     <g style="fill:#39558c;" transform="translate(96.934196 223.259161)rotate(-59.507832)scale(0.06 -0.06)">
      <use xlink:href="#DejaVuSans-50"/>
      <use x="63.623047" xlink:href="#DejaVuSans-46"/>
      <use x="95.410156" xlink:href="#DejaVuSans-53"/>
      <use x="159.033203" xlink:href="#DejaVuSans-48"/>
      <use x="222.65625" xlink:href="#DejaVuSans-48"/>
     </g>
    </g>
   </g>
   <g id="text_23">
    <g clip-path="url(#pc12a8b7274)">
     <!-- 2.500 -->
     <g style="fill:#39558c;" transform="translate(86.879037 276.038411)rotate(-13.799268)scale(0.06 -0.06)">
      <use xlink:href="#DejaVuSans-50"/>
      <use x="63.623047" xlink:href="#DejaVuSans-46"/>
      <use x="95.410156" xlink:href="#DejaVuSans-53"/>
      <use x="159.033203" xlink:href="#DejaVuSans-48"/>
      <use x="222.65625" xlink:href="#DejaVuSans-48"/>
     </g>
    </g>
   </g>
   <g id="text_24">
    <g clip-path="url(#pc12a8b7274)">
     <!-- 2.500 -->
     <g style="fill:#39558c;" transform="translate(134.638549 59.042919)rotate(-312.783687)scale(0.06 -0.06)">
      <use xlink:href="#DejaVuSans-50"/>
      <use x="63.623047" xlink:href="#DejaVuSans-46"/>
      <use x="95.410156" xlink:href="#DejaVuSans-53"/>
      <use x="159.033203" xlink:href="#DejaVuSans-48"/>
      <use x="222.65625" xlink:href="#DejaVuSans-48"/>
     </g>
    </g>
   </g>
   <g id="text_25">
    <g clip-path="url(#pc12a8b7274)">
     <!-- 3.000 -->
     <g style="fill:#33638d;" transform="translate(196.46091 223.152646)rotate(-57.522189)scale(0.06 -0.06)">
      <defs>
       <path d="M 40.578125 39.3125 
Q 47.65625 37.796875 51.625 33 
Q 55.609375 28.21875 55.609375 21.1875 
Q 55.609375 10.40625 48.1875 4.484375 
Q 40.765625 -1.421875 27.09375 -1.421875 
Q 22.515625 -1.421875 17.65625 -0.515625 
Q 12.796875 0.390625 7.625 2.203125 
L 7.625 11.71875 
Q 11.71875 9.328125 16.59375 8.109375 
Q 21.484375 6.890625 26.8125 6.890625 
Q 36.078125 6.890625 40.9375 10.546875 
Q 45.796875 14.203125 45.796875 21.1875 
Q 45.796875 27.640625 41.28125 31.265625 
Q 36.765625 34.90625 28.71875 34.90625 
L 20.21875 34.90625 
L 20.21875 43.015625 
L 29.109375 43.015625 
Q 36.375 43.015625 40.234375 45.921875 
Q 44.09375 48.828125 44.09375 54.296875 
Q 44.09375 59.90625 40.109375 62.90625 
Q 36.140625 65.921875 28.71875 65.921875 
Q 24.65625 65.921875 20.015625 65.03125 
Q 15.375 64.15625 9.8125 62.3125 
L 9.8125 71.09375 
Q 15.4375 72.65625 20.34375 73.4375 
Q 25.25 74.21875 29.59375 74.21875 
Q 40.828125 74.21875 47.359375 69.109375 
Q 53.90625 64.015625 53.90625 55.328125 
Q 53.90625 49.265625 50.4375 45.09375 
Q 46.96875 40.921875 40.578125 39.3125 
z
" id="DejaVuSans-51"/>
      </defs>
      <use xlink:href="#DejaVuSans-51"/>
      <use x="63.623047" xlink:href="#DejaVuSans-46"/>
      <use x="95.410156" xlink:href="#DejaVuSans-48"/>
      <use x="159.033203" xlink:href="#DejaVuSans-48"/>
      <use x="222.65625" xlink:href="#DejaVuSans-48"/>
     </g>
    </g>
   </g>
   <g id="text_26">
    <g clip-path="url(#pc12a8b7274)">
     <!-- 3.500 -->
     <g style="fill:#2d718e;" transform="translate(147.420182 65.567769)rotate(-311.431803)scale(0.06 -0.06)">
      <use xlink:href="#DejaVuSans-51"/>
      <use x="63.623047" xlink:href="#DejaVuSans-46"/>
      <use x="95.410156" xlink:href="#DejaVuSans-53"/>
      <use x="159.033203" xlink:href="#DejaVuSans-48"/>
      <use x="222.65625" xlink:href="#DejaVuSans-48"/>
     </g>
    </g>
   </g>
   <g id="text_27">
    <g clip-path="url(#pc12a8b7274)">
     <!-- 4.000 -->
     <g style="fill:#287d8e;" transform="translate(147.461457 63.880164)rotate(-310.991423)scale(0.06 -0.06)">
      <defs>
       <path d="M 37.796875 64.3125 
L 12.890625 25.390625 
L 37.796875 25.390625 
z
M 35.203125 72.90625 
L 47.609375 72.90625 
L 47.609375 25.390625 
L 58.015625 25.390625 
L 58.015625 17.1875 
L 47.609375 17.1875 
L 47.609375 0 
L 37.796875 0 
L 37.796875 17.1875 
L 4.890625 17.1875 
L 4.890625 26.703125 
z
" id="DejaVuSans-52"/>
      </defs>
      <use xlink:href="#DejaVuSans-52"/>
      <use x="63.623047" xlink:href="#DejaVuSans-46"/>
      <use x="95.410156" xlink:href="#DejaVuSans-48"/>
      <use x="159.033203" xlink:href="#DejaVuSans-48"/>
      <use x="222.65625" xlink:href="#DejaVuSans-48"/>
     </g>
    </g>
   </g>
   <g id="text_28">
    <g clip-path="url(#pc12a8b7274)">
     <!-- 4.500 -->
     <g style="fill:#238a8d;" transform="translate(147.752855 61.893319)rotate(-307.996132)scale(0.06 -0.06)">
      <use xlink:href="#DejaVuSans-52"/>
      <use x="63.623047" xlink:href="#DejaVuSans-46"/>
      <use x="95.410156" xlink:href="#DejaVuSans-53"/>
      <use x="159.033203" xlink:href="#DejaVuSans-48"/>
      <use x="222.65625" xlink:href="#DejaVuSans-48"/>
     </g>
    </g>
   </g>
   <g id="text_29">
    <g clip-path="url(#pc12a8b7274)">
     <!-- 5.000 -->
     <g style="fill:#1f968b;" transform="translate(148.020101 59.966014)rotate(-305.399245)scale(0.06 -0.06)">
      <use xlink:href="#DejaVuSans-53"/>
      <use x="63.623047" xlink:href="#DejaVuSans-46"/>
      <use x="95.410156" xlink:href="#DejaVuSans-48"/>
      <use x="159.033203" xlink:href="#DejaVuSans-48"/>
      <use x="222.65625" xlink:href="#DejaVuSans-48"/>
     </g>
    </g>
   </g>
   <g id="text_30">
    <g clip-path="url(#pc12a8b7274)">
     <!-- 5.500 -->
     <g style="fill:#20a386;" transform="translate(148.135282 58.213155)rotate(-304.317564)scale(0.06 -0.06)">
      <use xlink:href="#DejaVuSans-53"/>
      <use x="63.623047" xlink:href="#DejaVuSans-46"/>
      <use x="95.410156" xlink:href="#DejaVuSans-53"/>
      <use x="159.033203" xlink:href="#DejaVuSans-48"/>
      <use x="222.65625" xlink:href="#DejaVuSans-48"/>
     </g>
    </g>
   </g>
   <g id="text_31">
    <g clip-path="url(#pc12a8b7274)">
     <!-- 6.000 -->
     <g style="fill:#29af7f;" transform="translate(148.202949 58.13036)rotate(-304.948445)scale(0.06 -0.06)">
      <defs>
       <path d="M 33.015625 40.375 
Q 26.375 40.375 22.484375 35.828125 
Q 18.609375 31.296875 18.609375 23.390625 
Q 18.609375 15.53125 22.484375 10.953125 
Q 26.375 6.390625 33.015625 6.390625 
Q 39.65625 6.390625 43.53125 10.953125 
Q 47.40625 15.53125 47.40625 23.390625 
Q 47.40625 31.296875 43.53125 35.828125 
Q 39.65625 40.375 33.015625 40.375 
z
M 52.59375 71.296875 
L 52.59375 62.3125 
Q 48.875 64.0625 45.09375 64.984375 
Q 41.3125 65.921875 37.59375 65.921875 
Q 27.828125 65.921875 22.671875 59.328125 
Q 17.53125 52.734375 16.796875 39.40625 
Q 19.671875 43.65625 24.015625 45.921875 
Q 28.375 48.1875 33.59375 48.1875 
Q 44.578125 48.1875 50.953125 41.515625 
Q 57.328125 34.859375 57.328125 23.390625 
Q 57.328125 12.15625 50.6875 5.359375 
Q 44.046875 -1.421875 33.015625 -1.421875 
Q 20.359375 -1.421875 13.671875 8.265625 
Q 6.984375 17.96875 6.984375 36.375 
Q 6.984375 53.65625 15.1875 63.9375 
Q 23.390625 74.21875 37.203125 74.21875 
Q 40.921875 74.21875 44.703125 73.484375 
Q 48.484375 72.75 52.59375 71.296875 
z
" id="DejaVuSans-54"/>
      </defs>
      <use xlink:href="#DejaVuSans-54"/>
      <use x="63.623047" xlink:href="#DejaVuSans-46"/>
      <use x="95.410156" xlink:href="#DejaVuSans-48"/>
      <use x="159.033203" xlink:href="#DejaVuSans-48"/>
      <use x="222.65625" xlink:href="#DejaVuSans-48"/>
     </g>
    </g>
   </g>
   <g id="text_32">
    <g clip-path="url(#pc12a8b7274)">
     <!-- 6.500 -->
     <g style="fill:#3dbc74;" transform="translate(148.302008 58.182168)rotate(-305.41948)scale(0.06 -0.06)">
      <use xlink:href="#DejaVuSans-54"/>
      <use x="63.623047" xlink:href="#DejaVuSans-46"/>
      <use x="95.410156" xlink:href="#DejaVuSans-53"/>
      <use x="159.033203" xlink:href="#DejaVuSans-48"/>
      <use x="222.65625" xlink:href="#DejaVuSans-48"/>
     </g>
    </g>
   </g>
   <g id="text_33">
    <g clip-path="url(#pc12a8b7274)">
     <!-- 7.000 -->
     <g style="fill:#56c667;" transform="translate(148.405283 58.230352)rotate(-305.854279)scale(0.06 -0.06)">
      <defs>
       <path d="M 8.203125 72.90625 
L 55.078125 72.90625 
L 55.078125 68.703125 
L 28.609375 0 
L 18.3125 0 
L 43.21875 64.59375 
L 8.203125 64.59375 
z
" id="DejaVuSans-55"/>
      </defs>
      <use xlink:href="#DejaVuSans-55"/>
      <use x="63.623047" xlink:href="#DejaVuSans-46"/>
      <use x="95.410156" xlink:href="#DejaVuSans-48"/>
      <use x="159.033203" xlink:href="#DejaVuSans-48"/>
      <use x="222.65625" xlink:href="#DejaVuSans-48"/>
     </g>
    </g>
   </g>
   <g id="text_34">
    <g clip-path="url(#pc12a8b7274)">
     <!-- 7.500 -->
     <g style="fill:#75d054;" transform="translate(148.512934 58.274556)rotate(-306.250442)scale(0.06 -0.06)">
      <use xlink:href="#DejaVuSans-55"/>
      <use x="63.623047" xlink:href="#DejaVuSans-46"/>
      <use x="95.410156" xlink:href="#DejaVuSans-53"/>
      <use x="159.033203" xlink:href="#DejaVuSans-48"/>
      <use x="222.65625" xlink:href="#DejaVuSans-48"/>
     </g>
    </g>
   </g>
   <g id="text_35">
    <g clip-path="url(#pc12a8b7274)">
     <!-- 8.000 -->
     <g style="fill:#95d840;" transform="translate(148.625048 58.314502)rotate(-306.606268)scale(0.06 -0.06)">
      <defs>
       <path d="M 31.78125 34.625 
Q 24.75 34.625 20.71875 30.859375 
Q 16.703125 27.09375 16.703125 20.515625 
Q 16.703125 13.921875 20.71875 10.15625 
Q 24.75 6.390625 31.78125 6.390625 
Q 38.8125 6.390625 42.859375 10.171875 
Q 46.921875 13.96875 46.921875 20.515625 
Q 46.921875 27.09375 42.890625 30.859375 
Q 38.875 34.625 31.78125 34.625 
z
M 21.921875 38.8125 
Q 15.578125 40.375 12.03125 44.71875 
Q 8.5 49.078125 8.5 55.328125 
Q 8.5 64.0625 14.71875 69.140625 
Q 20.953125 74.21875 31.78125 74.21875 
Q 42.671875 74.21875 48.875 69.140625 
Q 55.078125 64.0625 55.078125 55.328125 
Q 55.078125 49.078125 51.53125 44.71875 
Q 48 40.375 41.703125 38.8125 
Q 48.828125 37.15625 52.796875 32.3125 
Q 56.78125 27.484375 56.78125 20.515625 
Q 56.78125 9.90625 50.3125 4.234375 
Q 43.84375 -1.421875 31.78125 -1.421875 
Q 19.734375 -1.421875 13.25 4.234375 
Q 6.78125 9.90625 6.78125 20.515625 
Q 6.78125 27.484375 10.78125 32.3125 
Q 14.796875 37.15625 21.921875 38.8125 
z
M 18.3125 54.390625 
Q 18.3125 48.734375 21.84375 45.5625 
Q 25.390625 42.390625 31.78125 42.390625 
Q 38.140625 42.390625 41.71875 45.5625 
Q 45.3125 48.734375 45.3125 54.390625 
Q 45.3125 60.0625 41.71875 63.234375 
Q 38.140625 66.40625 31.78125 66.40625 
Q 25.390625 66.40625 21.84375 63.234375 
Q 18.3125 60.0625 18.3125 54.390625 
z
" id="DejaVuSans-56"/>
      </defs>
      <use xlink:href="#DejaVuSans-56"/>
      <use x="63.623047" xlink:href="#DejaVuSans-46"/>
      <use x="95.410156" xlink:href="#DejaVuSans-48"/>
      <use x="159.033203" xlink:href="#DejaVuSans-48"/>
      <use x="222.65625" xlink:href="#DejaVuSans-48"/>
     </g>
    </g>
   </g>
   <g id="text_36">
    <g clip-path="url(#pc12a8b7274)">
     <!-- 8.500 -->
     <g style="fill:#bade28;" transform="translate(148.741654 58.349987)rotate(-306.920674)scale(0.06 -0.06)">
      <use xlink:href="#DejaVuSans-56"/>
      <use x="63.623047" xlink:href="#DejaVuSans-46"/>
      <use x="95.410156" xlink:href="#DejaVuSans-53"/>
      <use x="159.033203" xlink:href="#DejaVuSans-48"/>
      <use x="222.65625" xlink:href="#DejaVuSans-48"/>
     </g>
    </g>
   </g>
   <g id="text_37">
    <g clip-path="url(#pc12a8b7274)">
     <!-- 9.000 -->
     <g style="fill:#dde318;" transform="translate(148.862732 58.380878)rotate(-307.193113)scale(0.06 -0.06)">
      <defs>
       <path d="M 10.984375 1.515625 
L 10.984375 10.5 
Q 14.703125 8.734375 18.5 7.8125 
Q 22.3125 6.890625 25.984375 6.890625 
Q 35.75 6.890625 40.890625 13.453125 
Q 46.046875 20.015625 46.78125 33.40625 
Q 43.953125 29.203125 39.59375 26.953125 
Q 35.25 24.703125 29.984375 24.703125 
Q 19.046875 24.703125 12.671875 31.3125 
Q 6.296875 37.9375 6.296875 49.421875 
Q 6.296875 60.640625 12.9375 67.421875 
Q 19.578125 74.21875 30.609375 74.21875 
Q 43.265625 74.21875 49.921875 64.515625 
Q 56.59375 54.828125 56.59375 36.375 
Q 56.59375 19.140625 48.40625 8.859375 
Q 40.234375 -1.421875 26.421875 -1.421875 
Q 22.703125 -1.421875 18.890625 -0.6875 
Q 15.09375 0.046875 10.984375 1.515625 
z
M 30.609375 32.421875 
Q 37.25 32.421875 41.125 36.953125 
Q 45.015625 41.5 45.015625 49.421875 
Q 45.015625 57.28125 41.125 61.84375 
Q 37.25 66.40625 30.609375 66.40625 
Q 23.96875 66.40625 20.09375 61.84375 
Q 16.21875 57.28125 16.21875 49.421875 
Q 16.21875 41.5 20.09375 36.953125 
Q 23.96875 32.421875 30.609375 32.421875 
z
" id="DejaVuSans-57"/>
      </defs>
      <use xlink:href="#DejaVuSans-57"/>
      <use x="63.623047" xlink:href="#DejaVuSans-46"/>
      <use x="95.410156" xlink:href="#DejaVuSans-48"/>
      <use x="159.033203" xlink:href="#DejaVuSans-48"/>
      <use x="222.65625" xlink:href="#DejaVuSans-48"/>
     </g>
    </g>
   </g>
   <g id="text_38">
    <g clip-path="url(#pc12a8b7274)">
     <!-- 9.500 -->
     <g style="fill:#fde725;" transform="translate(148.988223 58.407104)rotate(-307.423497)scale(0.06 -0.06)">
      <use xlink:href="#DejaVuSans-57"/>
      <use x="63.623047" xlink:href="#DejaVuSans-46"/>
      <use x="95.410156" xlink:href="#DejaVuSans-53"/>
      <use x="159.033203" xlink:href="#DejaVuSans-48"/>
      <use x="222.65625" xlink:href="#DejaVuSans-48"/>
     </g>
    </g>
   </g>
   <g id="text_39">
    <g clip-path="url(#pc12a8b7274)">
     <!-- 10.000 -->
     <g style="fill:#440154;" transform="translate(160.939987 75.371314)rotate(-312.704492)scale(0.06 -0.06)">
      <use xlink:href="#DejaVuSans-49"/>
      <use x="63.623047" xlink:href="#DejaVuSans-48"/>
      <use x="127.246094" xlink:href="#DejaVuSans-46"/>
      <use x="159.033203" xlink:href="#DejaVuSans-48"/>
      <use x="222.65625" xlink:href="#DejaVuSans-48"/>
      <use x="286.279297" xlink:href="#DejaVuSans-48"/>
     </g>
    </g>
   </g>
   <g id="text_40">
    <g clip-path="url(#pc12a8b7274)">
     <!-- 100.000 -->
     <g style="fill:#440154;" transform="translate(190.740774 90.822697)rotate(-326.093971)scale(0.06 -0.06)">
      <use xlink:href="#DejaVuSans-49"/>
      <use x="63.623047" xlink:href="#DejaVuSans-48"/>
      <use x="127.246094" xlink:href="#DejaVuSans-48"/>
      <use x="190.869141" xlink:href="#DejaVuSans-46"/>
      <use x="222.65625" xlink:href="#DejaVuSans-48"/>
      <use x="286.279297" xlink:href="#DejaVuSans-48"/>
      <use x="349.902344" xlink:href="#DejaVuSans-48"/>
     </g>
    </g>
   </g>
   <g id="text_41">
    <g clip-path="url(#pc12a8b7274)">
     <!-- 1000.000 -->
     <g style="fill:#440154;" transform="translate(225.820279 95.474279)rotate(-318.739005)scale(0.06 -0.06)">
      <use xlink:href="#DejaVuSans-49"/>
      <use x="63.623047" xlink:href="#DejaVuSans-48"/>
      <use x="127.246094" xlink:href="#DejaVuSans-48"/>
      <use x="190.869141" xlink:href="#DejaVuSans-48"/>
      <use x="254.492188" xlink:href="#DejaVuSans-46"/>
      <use x="286.279297" xlink:href="#DejaVuSans-48"/>
      <use x="349.902344" xlink:href="#DejaVuSans-48"/>
      <use x="413.525391" xlink:href="#DejaVuSans-48"/>
     </g>
    </g>
   </g>
   <g id="text_42">
    <g clip-path="url(#pc12a8b7274)">
     <!-- 10000.000 -->
     <g style="fill:#440154;" transform="translate(262.659598 105.123321)rotate(-305.102733)scale(0.06 -0.06)">
      <use xlink:href="#DejaVuSans-49"/>
      <use x="63.623047" xlink:href="#DejaVuSans-48"/>
      <use x="127.246094" xlink:href="#DejaVuSans-48"/>
      <use x="190.869141" xlink:href="#DejaVuSans-48"/>
      <use x="254.492188" xlink:href="#DejaVuSans-48"/>
      <use x="318.115234" xlink:href="#DejaVuSans-46"/>
      <use x="349.902344" xlink:href="#DejaVuSans-48"/>
      <use x="413.525391" xlink:href="#DejaVuSans-48"/>
      <use x="477.148438" xlink:href="#DejaVuSans-48"/>
     </g>
    </g>
   </g>
   <g id="text_43">
    <g clip-path="url(#pc12a8b7274)">
     <!-- 100000.000 -->
     <g style="fill:#440154;" transform="translate(278.419294 102.8994)rotate(-301.765245)scale(0.06 -0.06)">
      <use xlink:href="#DejaVuSans-49"/>
      <use x="63.623047" xlink:href="#DejaVuSans-48"/>
      <use x="127.246094" xlink:href="#DejaVuSans-48"/>
      <use x="190.869141" xlink:href="#DejaVuSans-48"/>
      <use x="254.492188" xlink:href="#DejaVuSans-48"/>
      <use x="318.115234" xlink:href="#DejaVuSans-48"/>
      <use x="381.738281" xlink:href="#DejaVuSans-46"/>
      <use x="413.525391" xlink:href="#DejaVuSans-48"/>
      <use x="477.148438" xlink:href="#DejaVuSans-48"/>
      <use x="540.771484" xlink:href="#DejaVuSans-48"/>
     </g>
    </g>
   </g>
   <g id="text_44">
    <g clip-path="url(#pc12a8b7274)">
     <!-- 1000000.000 -->
     <g style="fill:#450457;" transform="translate(300.391774 103.143454)rotate(-290.927992)scale(0.06 -0.06)">
      <use xlink:href="#DejaVuSans-49"/>
      <use x="63.623047" xlink:href="#DejaVuSans-48"/>
      <use x="127.246094" xlink:href="#DejaVuSans-48"/>
      <use x="190.869141" xlink:href="#DejaVuSans-48"/>
      <use x="254.492188" xlink:href="#DejaVuSans-48"/>
      <use x="318.115234" xlink:href="#DejaVuSans-48"/>
      <use x="381.738281" xlink:href="#DejaVuSans-48"/>
      <use x="445.361328" xlink:href="#DejaVuSans-46"/>
      <use x="477.148438" xlink:href="#DejaVuSans-48"/>
      <use x="540.771484" xlink:href="#DejaVuSans-48"/>
      <use x="604.394531" xlink:href="#DejaVuSans-48"/>
     </g>
    </g>
   </g>
   <g id="text_45">
    <g clip-path="url(#pc12a8b7274)">
     <!-- 10000000.000 -->
     <g style="fill:#482475;" transform="translate(310.078528 96.34853)rotate(-295.43472)scale(0.06 -0.06)">
      <use xlink:href="#DejaVuSans-49"/>
      <use x="63.623047" xlink:href="#DejaVuSans-48"/>
      <use x="127.246094" xlink:href="#DejaVuSans-48"/>
      <use x="190.869141" xlink:href="#DejaVuSans-48"/>
      <use x="254.492188" xlink:href="#DejaVuSans-48"/>
      <use x="318.115234" xlink:href="#DejaVuSans-48"/>
      <use x="381.738281" xlink:href="#DejaVuSans-48"/>
      <use x="445.361328" xlink:href="#DejaVuSans-48"/>
      <use x="508.984375" xlink:href="#DejaVuSans-46"/>
      <use x="540.771484" xlink:href="#DejaVuSans-48"/>
      <use x="604.394531" xlink:href="#DejaVuSans-48"/>
      <use x="668.017578" xlink:href="#DejaVuSans-48"/>
     </g>
    </g>
   </g>
   <g id="text_46">
    <g clip-path="url(#pc12a8b7274)">
     <!-- 100000000.000 -->
     <g style="fill:#fde725;" transform="translate(323.605958 97.24459)rotate(-298.4007)scale(0.06 -0.06)">
      <use xlink:href="#DejaVuSans-49"/>
      <use x="63.623047" xlink:href="#DejaVuSans-48"/>
      <use x="127.246094" xlink:href="#DejaVuSans-48"/>
      <use x="190.869141" xlink:href="#DejaVuSans-48"/>
      <use x="254.492188" xlink:href="#DejaVuSans-48"/>
      <use x="318.115234" xlink:href="#DejaVuSans-48"/>
      <use x="381.738281" xlink:href="#DejaVuSans-48"/>
      <use x="445.361328" xlink:href="#DejaVuSans-48"/>
      <use x="508.984375" xlink:href="#DejaVuSans-48"/>
      <use x="572.607422" xlink:href="#DejaVuSans-46"/>
      <use x="604.394531" xlink:href="#DejaVuSans-48"/>
      <use x="668.017578" xlink:href="#DejaVuSans-48"/>
      <use x="731.640625" xlink:href="#DejaVuSans-48"/>
     </g>
    </g>
   </g>
  </g>
 </g>
 <defs>
  <clipPath id="pc12a8b7274">
   <rect height="266.112" width="357.12" x="35.304688" y="10.999219"/>
  </clipPath>
 </defs>
</svg>
