<?xml version="1.0" encoding="utf-8" standalone="no"?>
<!DOCTYPE svg PUBLIC "-//W3C//DTD SVG 1.1//EN"
  "http://www.w3.org/Graphics/SVG/1.1/DTD/svg11.dtd">
<!-- Created with matplotlib (https://matplotlib.org/) -->
<svg height="321.713144pt" version="1.1" viewBox="0 0 426.710987 321.713144" width="426.710987pt" xmlns="http://www.w3.org/2000/svg" xmlns:xlink="http://www.w3.org/1999/xlink">
 <metadata>
  <rdf:RDF xmlns:cc="http://creativecommons.org/ns#" xmlns:dc="http://purl.org/dc/elements/1.1/" xmlns:rdf="http://www.w3.org/1999/02/22-rdf-syntax-ns#">
   <cc:Work>
    <dc:type rdf:resource="http://purl.org/dc/dcmitype/StillImage"/>
    <dc:date>2021-09-22T09:25:53.795329</dc:date>
    <dc:format>image/svg+xml</dc:format>
    <dc:creator>
     <cc:Agent>
      <dc:title>Matplotlib v3.3.1, https://matplotlib.org/</dc:title>
     </cc:Agent>
    </dc:creator>
   </cc:Work>
  </rdf:RDF>
 </metadata>
 <defs>
  <style type="text/css">*{stroke-linecap:butt;stroke-linejoin:round;}</style>
 </defs>
 <g id="figure_1">
  <g id="patch_1">
   <path d="M 0 321.713144 
L 426.710987 321.713144 
L 426.710987 0 
L 0 0 
z
" style="fill:#ffffff;"/>
  </g>
  <g id="axes_1">
   <g id="patch_2">
    <path d="M 56.028488 277.111219 
L 413.148488 277.111219 
L 413.148488 10.999219 
L 56.028488 10.999219 
z
" style="fill:#ffffff;"/>
   </g>
   <g id="matplotlib.axis_1">
    <g id="xtick_1">
     <g id="line2d_1">
      <defs>
       <path d="M 0 0 
L 0 3.5 
" id="mf64a5ae182" style="stroke:#000000;stroke-width:0.8;"/>
      </defs>
      <g>
       <use style="stroke:#000000;stroke-width:0.8;" x="56.028488" xlink:href="#mf64a5ae182" y="277.111219"/>
      </g>
     </g>
     <g id="text_1">
      <!-- −20 -->
      <g transform="translate(45.476144 291.709656)scale(0.1 -0.1)">
       <defs>
        <path d="M 10.59375 35.5 
L 73.1875 35.5 
L 73.1875 27.203125 
L 10.59375 27.203125 
z
" id="DejaVuSans-8722"/>
        <path d="M 19.1875 8.296875 
L 53.609375 8.296875 
L 53.609375 0 
L 7.328125 0 
L 7.328125 8.296875 
Q 12.9375 14.109375 22.625 23.890625 
Q 32.328125 33.6875 34.8125 36.53125 
Q 39.546875 41.84375 41.421875 45.53125 
Q 43.3125 49.21875 43.3125 52.78125 
Q 43.3125 58.59375 39.234375 62.25 
Q 35.15625 65.921875 28.609375 65.921875 
Q 23.96875 65.921875 18.8125 64.3125 
Q 13.671875 62.703125 7.8125 59.421875 
L 7.8125 69.390625 
Q 13.765625 71.78125 18.9375 73 
Q 24.125 74.21875 28.421875 74.21875 
Q 39.75 74.21875 46.484375 68.546875 
Q 53.21875 62.890625 53.21875 53.421875 
Q 53.21875 48.921875 51.53125 44.890625 
Q 49.859375 40.875 45.40625 35.40625 
Q 44.1875 33.984375 37.640625 27.21875 
Q 31.109375 20.453125 19.1875 8.296875 
z
" id="DejaVuSans-50"/>
        <path d="M 31.78125 66.40625 
Q 24.171875 66.40625 20.328125 58.90625 
Q 16.5 51.421875 16.5 36.375 
Q 16.5 21.390625 20.328125 13.890625 
Q 24.171875 6.390625 31.78125 6.390625 
Q 39.453125 6.390625 43.28125 13.890625 
Q 47.125 21.390625 47.125 36.375 
Q 47.125 51.421875 43.28125 58.90625 
Q 39.453125 66.40625 31.78125 66.40625 
z
M 31.78125 74.21875 
Q 44.046875 74.21875 50.515625 64.515625 
Q 56.984375 54.828125 56.984375 36.375 
Q 56.984375 17.96875 50.515625 8.265625 
Q 44.046875 -1.421875 31.78125 -1.421875 
Q 19.53125 -1.421875 13.0625 8.265625 
Q 6.59375 17.96875 6.59375 36.375 
Q 6.59375 54.828125 13.0625 64.515625 
Q 19.53125 74.21875 31.78125 74.21875 
z
" id="DejaVuSans-48"/>
       </defs>
       <use xlink:href="#DejaVuSans-8722"/>
       <use x="83.789062" xlink:href="#DejaVuSans-50"/>
       <use x="147.412109" xlink:href="#DejaVuSans-48"/>
      </g>
     </g>
    </g>
    <g id="xtick_2">
     <g id="line2d_2">
      <g>
       <use style="stroke:#000000;stroke-width:0.8;" x="95.708488" xlink:href="#mf64a5ae182" y="277.111219"/>
      </g>
     </g>
     <g id="text_2">
      <!-- −15 -->
      <g transform="translate(85.156144 291.709656)scale(0.1 -0.1)">
       <defs>
        <path d="M 12.40625 8.296875 
L 28.515625 8.296875 
L 28.515625 63.921875 
L 10.984375 60.40625 
L 10.984375 69.390625 
L 28.421875 72.90625 
L 38.28125 72.90625 
L 38.28125 8.296875 
L 54.390625 8.296875 
L 54.390625 0 
L 12.40625 0 
z
" id="DejaVuSans-49"/>
        <path d="M 10.796875 72.90625 
L 49.515625 72.90625 
L 49.515625 64.59375 
L 19.828125 64.59375 
L 19.828125 46.734375 
Q 21.96875 47.46875 24.109375 47.828125 
Q 26.265625 48.1875 28.421875 48.1875 
Q 40.625 48.1875 47.75 41.5 
Q 54.890625 34.8125 54.890625 23.390625 
Q 54.890625 11.625 47.5625 5.09375 
Q 40.234375 -1.421875 26.90625 -1.421875 
Q 22.3125 -1.421875 17.546875 -0.640625 
Q 12.796875 0.140625 7.71875 1.703125 
L 7.71875 11.625 
Q 12.109375 9.234375 16.796875 8.0625 
Q 21.484375 6.890625 26.703125 6.890625 
Q 35.15625 6.890625 40.078125 11.328125 
Q 45.015625 15.765625 45.015625 23.390625 
Q 45.015625 31 40.078125 35.4375 
Q 35.15625 39.890625 26.703125 39.890625 
Q 22.75 39.890625 18.8125 39.015625 
Q 14.890625 38.140625 10.796875 36.28125 
z
" id="DejaVuSans-53"/>
       </defs>
       <use xlink:href="#DejaVuSans-8722"/>
       <use x="83.789062" xlink:href="#DejaVuSans-49"/>
       <use x="147.412109" xlink:href="#DejaVuSans-53"/>
      </g>
     </g>
    </g>
    <g id="xtick_3">
     <g id="line2d_3">
      <g>
       <use style="stroke:#000000;stroke-width:0.8;" x="135.388488" xlink:href="#mf64a5ae182" y="277.111219"/>
      </g>
     </g>
     <g id="text_3">
      <!-- −10 -->
      <g transform="translate(124.836144 291.709656)scale(0.1 -0.1)">
       <use xlink:href="#DejaVuSans-8722"/>
       <use x="83.789062" xlink:href="#DejaVuSans-49"/>
       <use x="147.412109" xlink:href="#DejaVuSans-48"/>
      </g>
     </g>
    </g>
    <g id="xtick_4">
     <g id="line2d_4">
      <g>
       <use style="stroke:#000000;stroke-width:0.8;" x="175.068488" xlink:href="#mf64a5ae182" y="277.111219"/>
      </g>
     </g>
     <g id="text_4">
      <!-- −5 -->
      <g transform="translate(167.697394 291.709656)scale(0.1 -0.1)">
       <use xlink:href="#DejaVuSans-8722"/>
       <use x="83.789062" xlink:href="#DejaVuSans-53"/>
      </g>
     </g>
    </g>
    <g id="xtick_5">
     <g id="line2d_5">
      <g>
       <use style="stroke:#000000;stroke-width:0.8;" x="214.748488" xlink:href="#mf64a5ae182" y="277.111219"/>
      </g>
     </g>
     <g id="text_5">
      <!-- 0 -->
      <g transform="translate(211.567238 291.709656)scale(0.1 -0.1)">
       <use xlink:href="#DejaVuSans-48"/>
      </g>
     </g>
    </g>
    <g id="xtick_6">
     <g id="line2d_6">
      <g>
       <use style="stroke:#000000;stroke-width:0.8;" x="254.428488" xlink:href="#mf64a5ae182" y="277.111219"/>
      </g>
     </g>
     <g id="text_6">
      <!-- 5 -->
      <g transform="translate(251.247238 291.709656)scale(0.1 -0.1)">
       <use xlink:href="#DejaVuSans-53"/>
      </g>
     </g>
    </g>
    <g id="xtick_7">
     <g id="line2d_7">
      <g>
       <use style="stroke:#000000;stroke-width:0.8;" x="294.108488" xlink:href="#mf64a5ae182" y="277.111219"/>
      </g>
     </g>
     <g id="text_7">
      <!-- 10 -->
      <g transform="translate(287.745988 291.709656)scale(0.1 -0.1)">
       <use xlink:href="#DejaVuSans-49"/>
       <use x="63.623047" xlink:href="#DejaVuSans-48"/>
      </g>
     </g>
    </g>
    <g id="xtick_8">
     <g id="line2d_8">
      <g>
       <use style="stroke:#000000;stroke-width:0.8;" x="333.788488" xlink:href="#mf64a5ae182" y="277.111219"/>
      </g>
     </g>
     <g id="text_8">
      <!-- 15 -->
      <g transform="translate(327.425988 291.709656)scale(0.1 -0.1)">
       <use xlink:href="#DejaVuSans-49"/>
       <use x="63.623047" xlink:href="#DejaVuSans-53"/>
      </g>
     </g>
    </g>
    <g id="xtick_9">
     <g id="line2d_9">
      <g>
       <use style="stroke:#000000;stroke-width:0.8;" x="373.468488" xlink:href="#mf64a5ae182" y="277.111219"/>
      </g>
     </g>
     <g id="text_9">
      <!-- 20 -->
      <g transform="translate(367.105988 291.709656)scale(0.1 -0.1)">
       <use xlink:href="#DejaVuSans-50"/>
       <use x="63.623047" xlink:href="#DejaVuSans-48"/>
      </g>
     </g>
    </g>
    <g id="xtick_10">
     <g id="line2d_10">
      <g>
       <use style="stroke:#000000;stroke-width:0.8;" x="413.148488" xlink:href="#mf64a5ae182" y="277.111219"/>
      </g>
     </g>
     <g id="text_10">
      <!-- 25 -->
      <g transform="translate(406.785988 291.709656)scale(0.1 -0.1)">
       <use xlink:href="#DejaVuSans-50"/>
       <use x="63.623047" xlink:href="#DejaVuSans-53"/>
      </g>
     </g>
    </g>
    <g id="text_11">
     <!-- 1st PC: 96.15 % -->
     <g transform="translate(165.868088 310.919444)scale(0.1728 -0.1728)">
      <defs>
       <path d="M 44.28125 53.078125 
L 44.28125 44.578125 
Q 40.484375 46.53125 36.375 47.5 
Q 32.28125 48.484375 27.875 48.484375 
Q 21.1875 48.484375 17.84375 46.4375 
Q 14.5 44.390625 14.5 40.28125 
Q 14.5 37.15625 16.890625 35.375 
Q 19.28125 33.59375 26.515625 31.984375 
L 29.59375 31.296875 
Q 39.15625 29.25 43.1875 25.515625 
Q 47.21875 21.78125 47.21875 15.09375 
Q 47.21875 7.46875 41.1875 3.015625 
Q 35.15625 -1.421875 24.609375 -1.421875 
Q 20.21875 -1.421875 15.453125 -0.5625 
Q 10.6875 0.296875 5.421875 2 
L 5.421875 11.28125 
Q 10.40625 8.6875 15.234375 7.390625 
Q 20.0625 6.109375 24.8125 6.109375 
Q 31.15625 6.109375 34.5625 8.28125 
Q 37.984375 10.453125 37.984375 14.40625 
Q 37.984375 18.0625 35.515625 20.015625 
Q 33.0625 21.96875 24.703125 23.78125 
L 21.578125 24.515625 
Q 13.234375 26.265625 9.515625 29.90625 
Q 5.8125 33.546875 5.8125 39.890625 
Q 5.8125 47.609375 11.28125 51.796875 
Q 16.75 56 26.8125 56 
Q 31.78125 56 36.171875 55.265625 
Q 40.578125 54.546875 44.28125 53.078125 
z
" id="DejaVuSans-115"/>
       <path d="M 18.3125 70.21875 
L 18.3125 54.6875 
L 36.8125 54.6875 
L 36.8125 47.703125 
L 18.3125 47.703125 
L 18.3125 18.015625 
Q 18.3125 11.328125 20.140625 9.421875 
Q 21.96875 7.515625 27.59375 7.515625 
L 36.8125 7.515625 
L 36.8125 0 
L 27.59375 0 
Q 17.1875 0 13.234375 3.875 
Q 9.28125 7.765625 9.28125 18.015625 
L 9.28125 47.703125 
L 2.6875 47.703125 
L 2.6875 54.6875 
L 9.28125 54.6875 
L 9.28125 70.21875 
z
" id="DejaVuSans-116"/>
       <path id="DejaVuSans-32"/>
       <path d="M 19.671875 64.796875 
L 19.671875 37.40625 
L 32.078125 37.40625 
Q 38.96875 37.40625 42.71875 40.96875 
Q 46.484375 44.53125 46.484375 51.125 
Q 46.484375 57.671875 42.71875 61.234375 
Q 38.96875 64.796875 32.078125 64.796875 
z
M 9.8125 72.90625 
L 32.078125 72.90625 
Q 44.34375 72.90625 50.609375 67.359375 
Q 56.890625 61.8125 56.890625 51.125 
Q 56.890625 40.328125 50.609375 34.8125 
Q 44.34375 29.296875 32.078125 29.296875 
L 19.671875 29.296875 
L 19.671875 0 
L 9.8125 0 
z
" id="DejaVuSans-80"/>
       <path d="M 64.40625 67.28125 
L 64.40625 56.890625 
Q 59.421875 61.53125 53.78125 63.8125 
Q 48.140625 66.109375 41.796875 66.109375 
Q 29.296875 66.109375 22.65625 58.46875 
Q 16.015625 50.828125 16.015625 36.375 
Q 16.015625 21.96875 22.65625 14.328125 
Q 29.296875 6.6875 41.796875 6.6875 
Q 48.140625 6.6875 53.78125 8.984375 
Q 59.421875 11.28125 64.40625 15.921875 
L 64.40625 5.609375 
Q 59.234375 2.09375 53.4375 0.328125 
Q 47.65625 -1.421875 41.21875 -1.421875 
Q 24.65625 -1.421875 15.125 8.703125 
Q 5.609375 18.84375 5.609375 36.375 
Q 5.609375 53.953125 15.125 64.078125 
Q 24.65625 74.21875 41.21875 74.21875 
Q 47.75 74.21875 53.53125 72.484375 
Q 59.328125 70.75 64.40625 67.28125 
z
" id="DejaVuSans-67"/>
       <path d="M 11.71875 12.40625 
L 22.015625 12.40625 
L 22.015625 0 
L 11.71875 0 
z
M 11.71875 51.703125 
L 22.015625 51.703125 
L 22.015625 39.3125 
L 11.71875 39.3125 
z
" id="DejaVuSans-58"/>
       <path d="M 10.984375 1.515625 
L 10.984375 10.5 
Q 14.703125 8.734375 18.5 7.8125 
Q 22.3125 6.890625 25.984375 6.890625 
Q 35.75 6.890625 40.890625 13.453125 
Q 46.046875 20.015625 46.78125 33.40625 
Q 43.953125 29.203125 39.59375 26.953125 
Q 35.25 24.703125 29.984375 24.703125 
Q 19.046875 24.703125 12.671875 31.3125 
Q 6.296875 37.9375 6.296875 49.421875 
Q 6.296875 60.640625 12.9375 67.421875 
Q 19.578125 74.21875 30.609375 74.21875 
Q 43.265625 74.21875 49.921875 64.515625 
Q 56.59375 54.828125 56.59375 36.375 
Q 56.59375 19.140625 48.40625 8.859375 
Q 40.234375 -1.421875 26.421875 -1.421875 
Q 22.703125 -1.421875 18.890625 -0.6875 
Q 15.09375 0.046875 10.984375 1.515625 
z
M 30.609375 32.421875 
Q 37.25 32.421875 41.125 36.953125 
Q 45.015625 41.5 45.015625 49.421875 
Q 45.015625 57.28125 41.125 61.84375 
Q 37.25 66.40625 30.609375 66.40625 
Q 23.96875 66.40625 20.09375 61.84375 
Q 16.21875 57.28125 16.21875 49.421875 
Q 16.21875 41.5 20.09375 36.953125 
Q 23.96875 32.421875 30.609375 32.421875 
z
" id="DejaVuSans-57"/>
       <path d="M 33.015625 40.375 
Q 26.375 40.375 22.484375 35.828125 
Q 18.609375 31.296875 18.609375 23.390625 
Q 18.609375 15.53125 22.484375 10.953125 
Q 26.375 6.390625 33.015625 6.390625 
Q 39.65625 6.390625 43.53125 10.953125 
Q 47.40625 15.53125 47.40625 23.390625 
Q 47.40625 31.296875 43.53125 35.828125 
Q 39.65625 40.375 33.015625 40.375 
z
M 52.59375 71.296875 
L 52.59375 62.3125 
Q 48.875 64.0625 45.09375 64.984375 
Q 41.3125 65.921875 37.59375 65.921875 
Q 27.828125 65.921875 22.671875 59.328125 
Q 17.53125 52.734375 16.796875 39.40625 
Q 19.671875 43.65625 24.015625 45.921875 
Q 28.375 48.1875 33.59375 48.1875 
Q 44.578125 48.1875 50.953125 41.515625 
Q 57.328125 34.859375 57.328125 23.390625 
Q 57.328125 12.15625 50.6875 5.359375 
Q 44.046875 -1.421875 33.015625 -1.421875 
Q 20.359375 -1.421875 13.671875 8.265625 
Q 6.984375 17.96875 6.984375 36.375 
Q 6.984375 53.65625 15.1875 63.9375 
Q 23.390625 74.21875 37.203125 74.21875 
Q 40.921875 74.21875 44.703125 73.484375 
Q 48.484375 72.75 52.59375 71.296875 
z
" id="DejaVuSans-54"/>
       <path d="M 10.6875 12.40625 
L 21 12.40625 
L 21 0 
L 10.6875 0 
z
" id="DejaVuSans-46"/>
       <path d="M 72.703125 32.078125 
Q 68.453125 32.078125 66.03125 28.46875 
Q 63.625 24.859375 63.625 18.40625 
Q 63.625 12.0625 66.03125 8.421875 
Q 68.453125 4.78125 72.703125 4.78125 
Q 76.859375 4.78125 79.265625 8.421875 
Q 81.6875 12.0625 81.6875 18.40625 
Q 81.6875 24.8125 79.265625 28.4375 
Q 76.859375 32.078125 72.703125 32.078125 
z
M 72.703125 38.28125 
Q 80.421875 38.28125 84.953125 32.90625 
Q 89.5 27.546875 89.5 18.40625 
Q 89.5 9.28125 84.9375 3.921875 
Q 80.375 -1.421875 72.703125 -1.421875 
Q 64.890625 -1.421875 60.34375 3.921875 
Q 55.8125 9.28125 55.8125 18.40625 
Q 55.8125 27.59375 60.375 32.9375 
Q 64.9375 38.28125 72.703125 38.28125 
z
M 22.3125 68.015625 
Q 18.109375 68.015625 15.6875 64.375 
Q 13.28125 60.75 13.28125 54.390625 
Q 13.28125 47.953125 15.671875 44.328125 
Q 18.0625 40.71875 22.3125 40.71875 
Q 26.5625 40.71875 28.96875 44.328125 
Q 31.390625 47.953125 31.390625 54.390625 
Q 31.390625 60.6875 28.953125 64.34375 
Q 26.515625 68.015625 22.3125 68.015625 
z
M 66.40625 74.21875 
L 74.21875 74.21875 
L 28.609375 -1.421875 
L 20.796875 -1.421875 
z
M 22.3125 74.21875 
Q 30.03125 74.21875 34.609375 68.875 
Q 39.203125 63.53125 39.203125 54.390625 
Q 39.203125 45.171875 34.640625 39.84375 
Q 30.078125 34.515625 22.3125 34.515625 
Q 14.546875 34.515625 10.03125 39.859375 
Q 5.515625 45.21875 5.515625 54.390625 
Q 5.515625 63.484375 10.046875 68.84375 
Q 14.59375 74.21875 22.3125 74.21875 
z
" id="DejaVuSans-37"/>
      </defs>
      <use xlink:href="#DejaVuSans-49"/>
      <use x="63.623047" xlink:href="#DejaVuSans-115"/>
      <use x="115.722656" xlink:href="#DejaVuSans-116"/>
      <use x="154.931641" xlink:href="#DejaVuSans-32"/>
      <use x="186.71875" xlink:href="#DejaVuSans-80"/>
      <use x="247.021484" xlink:href="#DejaVuSans-67"/>
      <use x="316.845703" xlink:href="#DejaVuSans-58"/>
      <use x="350.537109" xlink:href="#DejaVuSans-32"/>
      <use x="382.324219" xlink:href="#DejaVuSans-57"/>
      <use x="445.947266" xlink:href="#DejaVuSans-54"/>
      <use x="509.570312" xlink:href="#DejaVuSans-46"/>
      <use x="541.357422" xlink:href="#DejaVuSans-49"/>
      <use x="604.980469" xlink:href="#DejaVuSans-53"/>
      <use x="668.603516" xlink:href="#DejaVuSans-32"/>
      <use x="700.390625" xlink:href="#DejaVuSans-37"/>
     </g>
    </g>
   </g>
   <g id="matplotlib.axis_2">
    <g id="ytick_1">
     <g id="line2d_11">
      <defs>
       <path d="M 0 0 
L -3.5 0 
" id="ma22416fb52" style="stroke:#000000;stroke-width:0.8;"/>
      </defs>
      <g>
       <use style="stroke:#000000;stroke-width:0.8;" x="56.028488" xlink:href="#ma22416fb52" y="277.111219"/>
      </g>
     </g>
     <g id="text_12">
      <!-- −20 -->
      <g transform="translate(27.9238 280.910437)scale(0.1 -0.1)">
       <use xlink:href="#DejaVuSans-8722"/>
       <use x="83.789062" xlink:href="#DejaVuSans-50"/>
       <use x="147.412109" xlink:href="#DejaVuSans-48"/>
      </g>
     </g>
    </g>
    <g id="ytick_2">
     <g id="line2d_12">
      <g>
       <use style="stroke:#000000;stroke-width:0.8;" x="56.028488" xlink:href="#ma22416fb52" y="243.847219"/>
      </g>
     </g>
     <g id="text_13">
      <!-- −15 -->
      <g transform="translate(27.9238 247.646437)scale(0.1 -0.1)">
       <use xlink:href="#DejaVuSans-8722"/>
       <use x="83.789062" xlink:href="#DejaVuSans-49"/>
       <use x="147.412109" xlink:href="#DejaVuSans-53"/>
      </g>
     </g>
    </g>
    <g id="ytick_3">
     <g id="line2d_13">
      <g>
       <use style="stroke:#000000;stroke-width:0.8;" x="56.028488" xlink:href="#ma22416fb52" y="210.583219"/>
      </g>
     </g>
     <g id="text_14">
      <!-- −10 -->
      <g transform="translate(27.9238 214.382437)scale(0.1 -0.1)">
       <use xlink:href="#DejaVuSans-8722"/>
       <use x="83.789062" xlink:href="#DejaVuSans-49"/>
       <use x="147.412109" xlink:href="#DejaVuSans-48"/>
      </g>
     </g>
    </g>
    <g id="ytick_4">
     <g id="line2d_14">
      <g>
       <use style="stroke:#000000;stroke-width:0.8;" x="56.028488" xlink:href="#ma22416fb52" y="177.319219"/>
      </g>
     </g>
     <g id="text_15">
      <!-- −5 -->
      <g transform="translate(34.2863 181.118437)scale(0.1 -0.1)">
       <use xlink:href="#DejaVuSans-8722"/>
       <use x="83.789062" xlink:href="#DejaVuSans-53"/>
      </g>
     </g>
    </g>
    <g id="ytick_5">
     <g id="line2d_15">
      <g>
       <use style="stroke:#000000;stroke-width:0.8;" x="56.028488" xlink:href="#ma22416fb52" y="144.055219"/>
      </g>
     </g>
     <g id="text_16">
      <!-- 0 -->
      <g transform="translate(42.665987 147.854437)scale(0.1 -0.1)">
       <use xlink:href="#DejaVuSans-48"/>
      </g>
     </g>
    </g>
    <g id="ytick_6">
     <g id="line2d_16">
      <g>
       <use style="stroke:#000000;stroke-width:0.8;" x="56.028488" xlink:href="#ma22416fb52" y="110.791219"/>
      </g>
     </g>
     <g id="text_17">
      <!-- 5 -->
      <g transform="translate(42.665987 114.590437)scale(0.1 -0.1)">
       <use xlink:href="#DejaVuSans-53"/>
      </g>
     </g>
    </g>
    <g id="ytick_7">
     <g id="line2d_17">
      <g>
       <use style="stroke:#000000;stroke-width:0.8;" x="56.028488" xlink:href="#ma22416fb52" y="77.527219"/>
      </g>
     </g>
     <g id="text_18">
      <!-- 10 -->
      <g transform="translate(36.303488 81.326437)scale(0.1 -0.1)">
       <use xlink:href="#DejaVuSans-49"/>
       <use x="63.623047" xlink:href="#DejaVuSans-48"/>
      </g>
     </g>
    </g>
    <g id="ytick_8">
     <g id="line2d_18">
      <g>
       <use style="stroke:#000000;stroke-width:0.8;" x="56.028488" xlink:href="#ma22416fb52" y="44.263219"/>
      </g>
     </g>
     <g id="text_19">
      <!-- 15 -->
      <g transform="translate(36.303488 48.062437)scale(0.1 -0.1)">
       <use xlink:href="#DejaVuSans-49"/>
       <use x="63.623047" xlink:href="#DejaVuSans-53"/>
      </g>
     </g>
    </g>
    <g id="ytick_9">
     <g id="line2d_19">
      <g>
       <use style="stroke:#000000;stroke-width:0.8;" x="56.028488" xlink:href="#ma22416fb52" y="10.999219"/>
      </g>
     </g>
     <g id="text_20">
      <!-- 20 -->
      <g transform="translate(36.303488 14.798437)scale(0.1 -0.1)">
       <use xlink:href="#DejaVuSans-50"/>
       <use x="63.623047" xlink:href="#DejaVuSans-48"/>
      </g>
     </g>
    </g>
    <g id="text_21">
     <!-- 2nd PC: 2.10 % -->
     <g transform="translate(20.3301 210.351019)rotate(-90)scale(0.1728 -0.1728)">
      <defs>
       <path d="M 54.890625 33.015625 
L 54.890625 0 
L 45.90625 0 
L 45.90625 32.71875 
Q 45.90625 40.484375 42.875 44.328125 
Q 39.84375 48.1875 33.796875 48.1875 
Q 26.515625 48.1875 22.3125 43.546875 
Q 18.109375 38.921875 18.109375 30.90625 
L 18.109375 0 
L 9.078125 0 
L 9.078125 54.6875 
L 18.109375 54.6875 
L 18.109375 46.1875 
Q 21.34375 51.125 25.703125 53.5625 
Q 30.078125 56 35.796875 56 
Q 45.21875 56 50.046875 50.171875 
Q 54.890625 44.34375 54.890625 33.015625 
z
" id="DejaVuSans-110"/>
       <path d="M 45.40625 46.390625 
L 45.40625 75.984375 
L 54.390625 75.984375 
L 54.390625 0 
L 45.40625 0 
L 45.40625 8.203125 
Q 42.578125 3.328125 38.25 0.953125 
Q 33.9375 -1.421875 27.875 -1.421875 
Q 17.96875 -1.421875 11.734375 6.484375 
Q 5.515625 14.40625 5.515625 27.296875 
Q 5.515625 40.1875 11.734375 48.09375 
Q 17.96875 56 27.875 56 
Q 33.9375 56 38.25 53.625 
Q 42.578125 51.265625 45.40625 46.390625 
z
M 14.796875 27.296875 
Q 14.796875 17.390625 18.875 11.75 
Q 22.953125 6.109375 30.078125 6.109375 
Q 37.203125 6.109375 41.296875 11.75 
Q 45.40625 17.390625 45.40625 27.296875 
Q 45.40625 37.203125 41.296875 42.84375 
Q 37.203125 48.484375 30.078125 48.484375 
Q 22.953125 48.484375 18.875 42.84375 
Q 14.796875 37.203125 14.796875 27.296875 
z
" id="DejaVuSans-100"/>
      </defs>
      <use xlink:href="#DejaVuSans-50"/>
      <use x="63.623047" xlink:href="#DejaVuSans-110"/>
      <use x="127.001953" xlink:href="#DejaVuSans-100"/>
      <use x="190.478516" xlink:href="#DejaVuSans-32"/>
      <use x="222.265625" xlink:href="#DejaVuSans-80"/>
      <use x="282.568359" xlink:href="#DejaVuSans-67"/>
      <use x="352.392578" xlink:href="#DejaVuSans-58"/>
      <use x="386.083984" xlink:href="#DejaVuSans-32"/>
      <use x="417.871094" xlink:href="#DejaVuSans-50"/>
      <use x="481.494141" xlink:href="#DejaVuSans-46"/>
      <use x="513.28125" xlink:href="#DejaVuSans-49"/>
      <use x="576.904297" xlink:href="#DejaVuSans-48"/>
      <use x="640.527344" xlink:href="#DejaVuSans-32"/>
      <use x="672.314453" xlink:href="#DejaVuSans-37"/>
     </g>
    </g>
   </g>
   <g id="LineCollection_1"/>
   <g id="LineCollection_2"/>
   <g id="LineCollection_3"/>
   <g id="LineCollection_4"/>
   <g id="LineCollection_5">
    <path clip-path="url(#p8589e93ffa)" d="M 199.292599 125.471288 
L 202.379962 126.314419 
L 210.780488 131.927919 
L 213.242831 135.184819 
L 222.684488 143.066578 
L 224.241039 144.055219 
L 229.678772 152.925619 
L 234.588488 160.156904 
L 235.567894 161.796019 
L 234.588488 164.409369 
L 222.684488 168.856841 
L 221.083003 170.666419 
L 213.323852 179.536819 
L 210.780488 181.76289 
L 199.22383 188.407219 
L 198.876488 188.572061 
L 197.888692 188.407219 
L 192.61104 179.536819 
L 192.381625 170.666419 
L 192.393356 161.796019 
L 191.90204 152.925619 
L 190.375633 144.055219 
L 188.972037 138.698097 
" style="fill:none;stroke:#404688;stroke-width:1.5;"/>
   </g>
   <g id="LineCollection_6">
    <path clip-path="url(#p8589e93ffa)" d="M 56.028488 132.644334 
L 67.932488 127.645187 
L 71.000612 126.314419 
L 79.836488 125.794436 
L 91.740488 125.276043 
L 103.644488 124.743859 
L 115.548488 122.98706 
L 127.452488 119.685646 
L 139.356488 118.043885 
L 151.260488 118.89282 
L 163.164488 120.466021 
L 175.068488 121.247862 
L 186.972488 121.388796 
L 198.876488 123.08678 
L 210.695412 126.314419 
L 210.780488 126.371269 
L 217.443874 135.184819 
L 222.684488 139.559607 
L 229.762539 144.055219 
L 234.588488 148.83411 
L 235.293906 152.925619 
L 246.492488 161.532553 
L 246.778362 161.796019 
L 249.672705 170.666419 
L 248.216018 179.536819 
L 246.810073 188.407219 
L 246.492488 189.663871 
L 234.588488 189.597973 
L 222.684488 189.105426 
L 210.780488 194.931258 
L 206.926277 197.277619 
L 198.876488 200.51386 
L 186.972488 206.067906 
L 186.769265 206.148019 
L 175.068488 208.663603 
L 163.164488 211.224001 
L 158.990914 212.229427 
" style="fill:none;stroke:#39558c;stroke-width:1.5;"/>
    <path clip-path="url(#p8589e93ffa)" d="M 134.140306 215.939787 
L 127.452488 216.320338 
L 115.548488 216.760945 
L 103.644488 216.91713 
L 91.740488 216.469396 
L 81.392615 215.018419 
L 79.836488 214.37132 
L 67.932488 208.934761 
L 59.081736 206.148019 
L 56.028488 204.774305 
" style="fill:none;stroke:#39558c;stroke-width:1.5;"/>
   </g>
   <g id="LineCollection_7">
    <path clip-path="url(#p8589e93ffa)" d="M 56.028488 125.220297 
L 67.932488 122.902949 
L 79.836488 119.034677 
L 90.594334 117.444019 
L 91.740488 117.431747 
L 103.644488 117.287473 
L 115.548488 117.096832 
L 127.452488 117.077927 
L 139.356488 117.118249 
L 151.260488 117.173434 
L 163.164488 117.23982 
L 175.068488 117.300601 
L 186.972488 117.384671 
L 188.34232 117.444019 
L 198.876488 120.815907 
L 210.780488 125.717738 
L 211.153516 126.314419 
L 221.644918 135.184819 
L 222.684488 136.052637 
L 234.588488 144.026435 
L 234.643042 144.055219 
L 236.236587 152.925619 
L 246.492488 160.808033 
L 247.564503 161.796019 
L 253.440032 170.666419 
L 250.828812 179.536819 
L 248.244907 188.407219 
L 246.492488 195.341351 
L 238.515639 197.277619 
L 234.588488 198.208592 
L 224.73615 197.277619 
L 222.684488 197.001538 
L 222.152487 197.277619 
L 210.780488 200.592297 
L 199.603504 206.148019 
L 198.876488 206.410574 
L 186.972488 210.369008 
L 186.865818 210.40902 
" style="fill:none;stroke:#33638d;stroke-width:1.5;"/>
    <path clip-path="url(#p8589e93ffa)" d="M 162.732375 217.380757 
L 151.260488 219.501091 
L 139.356488 221.622487 
L 127.452488 223.673399 
L 125.994458 223.888819 
L 115.548488 224.723805 
L 103.644488 225.43949 
L 91.740488 225.74698 
L 79.836488 225.35742 
L 67.932488 224.161134 
L 66.27188 223.888819 
L 56.028488 219.871588 
" style="fill:none;stroke:#33638d;stroke-width:1.5;"/>
   </g>
   <g id="LineCollection_8">
    <path clip-path="url(#p8589e93ffa)" d="M 56.028488 123.785055 
L 67.932488 119.397856 
L 72.951433 117.444019 
L 79.836488 117.172119 
L 91.740488 116.942259 
L 103.644488 116.741183 
L 115.548488 116.616299 
L 127.452488 116.687607 
L 139.356488 116.787203 
L 151.260488 116.886765 
L 163.164488 116.981706 
L 174.372567 117.032771 
" style="fill:none;stroke:#2d718e;stroke-width:1.5;"/>
    <path clip-path="url(#p8589e93ffa)" d="M 199.328377 118.794434 
L 210.780488 125.114889 
L 211.5304 126.314419 
L 222.684488 134.964858 
L 222.917486 135.184819 
L 234.588488 143.797942 
L 235.07611 144.055219 
L 237.179268 152.925619 
L 246.492488 160.083513 
L 248.350643 161.796019 
L 257.20736 170.666419 
L 253.441606 179.536819 
L 249.679741 188.407219 
L 246.945712 197.277619 
L 246.492488 198.346309 
L 234.588488 203.753332 
L 222.684488 201.504413 
L 210.780488 205.0273 
L 208.525829 206.148019 
L 198.876488 209.632792 
L 186.972488 214.620097 
L 185.92405 215.018419 
L 175.068488 218.057302 
L 163.164488 221.141543 
L 152.518811 223.888819 
L 151.260488 224.133632 
L 139.356488 225.951933 
L 127.452488 227.444951 
L 115.548488 228.701943 
L 103.644488 229.650598 
L 91.740488 230.015938 
L 79.836488 229.540237 
L 67.932488 228.106512 
L 56.028488 225.923301 
" style="fill:none;stroke:#2d718e;stroke-width:1.5;"/>
   </g>
   <g id="LineCollection_9">
    <path clip-path="url(#p8589e93ffa)" d="M 56.028488 122.349812 
L 66.567859 117.444019 
L 67.932488 117.327119 
L 79.836488 116.816549 
L 91.740488 116.45277 
L 103.644488 116.194894 
L 115.548488 116.135766 
L 127.452488 116.297287 
L 139.356488 116.456157 
L 151.260488 116.600097 
L 163.164488 116.723593 
L 175.068488 116.771282 
L 186.972488 116.769938 
L 198.876488 117.276928 
L 199.377523 117.444019 
L 210.780488 124.51204 
L 211.907285 126.314419 
L 222.684488 134.672569 
L 223.2271 135.184819 
L 234.588488 143.569449 
L 235.509178 144.055219 
L 238.121949 152.925619 
L 246.492488 159.358994 
L 249.136784 161.796019 
L 258.396488 170.179336 
L 258.580138 170.666419 
L 258.396488 174.506703 
L 256.0544 179.536819 
L 251.114575 188.407219 
L 247.633503 197.277619 
L 246.492488 199.9681 
L 236.132987 206.148019 
L 234.588488 207.610656 
L 223.825025 206.148019 
L 222.684488 205.884348 
L 221.797037 206.148019 
L 210.780488 208.504543 
L 210.710928 208.529965 
" style="fill:none;stroke:#287d8e;stroke-width:1.5;"/>
    <path clip-path="url(#p8589e93ffa)" d="M 187.123515 217.378982 
L 186.972488 217.432295 
L 175.068488 221.189654 
L 166.120627 223.888819 
L 163.164488 224.573396 
L 151.260488 227.029101 
L 139.356488 229.274265 
L 127.452488 231.10841 
L 115.548488 232.680081 
L 114.707844 232.759219 
L 103.644488 233.711816 
L 91.740488 233.892718 
L 79.836488 233.363561 
L 73.141457 232.759219 
L 67.932488 232.05189 
L 56.028488 229.466187 
" style="fill:none;stroke:#287d8e;stroke-width:1.5;"/>
   </g>
   <g id="LineCollection_10">
    <path clip-path="url(#p8589e93ffa)" d="M 56.028488 120.91457 
L 63.484453 117.444019 
L 67.932488 117.062981 
L 79.836488 116.460978 
L 91.740488 115.963282 
L 103.644488 115.648604 
L 115.548488 115.655233 
L 127.452488 115.906967 
L 139.356488 116.125111 
L 151.260488 116.313428 
L 163.164488 116.46548 
L 175.068488 116.506623 
L 186.972488 116.462572 
L 198.876488 116.95258 
L 200.35011 117.444019 
L 210.780488 123.909191 
L 212.284169 126.314419 
L 222.684488 134.38028 
L 223.536714 135.184819 
L 234.588488 143.340956 
L 235.942247 144.055219 
L 239.06463 152.925619 
L 246.492488 158.634474 
L 249.922925 161.796019 
L 258.396488 169.4676 
L 258.848492 170.666419 
L 258.419738 179.536819 
L 258.396488 179.756755 
L 252.549409 188.407219 
L 248.321295 197.277619 
L 246.492488 201.589891 
L 238.851623 206.148019 
L 234.588488 210.185198 
L 222.684488 209.466928 
L 210.780488 211.657922 
L 201.68196 215.018419 
L 198.876488 215.901589 
L 198.856441 215.908652 
" style="fill:none;stroke:#238a8d;stroke-width:1.5;"/>
    <path clip-path="url(#p8589e93ffa)" d="M 175.052784 224.170195 
L 163.164488 226.97808 
L 151.260488 229.92457 
L 139.356488 232.596597 
L 138.382651 232.759219 
L 127.452488 234.399733 
L 115.548488 236.334355 
L 103.644488 237.350398 
L 91.740488 237.064332 
L 79.836488 235.986266 
L 67.932488 234.58684 
L 56.028488 232.899361 
" style="fill:none;stroke:#238a8d;stroke-width:1.5;"/>
   </g>
   <g id="LineCollection_11">
    <path clip-path="url(#p8589e93ffa)" d="M 56.028488 119.479327 
L 60.401046 117.444019 
L 67.932488 116.798844 
L 79.836488 116.105408 
L 91.740488 115.473794 
L 103.644488 115.102314 
L 115.548488 115.1747 
L 127.452488 115.516647 
L 139.356488 115.794065 
L 151.260488 116.026759 
L 163.164488 116.207366 
L 174.372807 116.239942 
" style="fill:none;stroke:#1f968b;stroke-width:1.5;"/>
    <path clip-path="url(#p8589e93ffa)" d="M 199.527828 116.845448 
L 201.322697 117.444019 
L 210.780488 123.306342 
L 212.661054 126.314419 
L 222.684488 134.087991 
L 223.846328 135.184819 
L 234.588488 143.112462 
L 236.375315 144.055219 
L 240.007311 152.925619 
L 246.492488 157.909954 
L 250.709066 161.796019 
L 258.396488 168.755864 
L 259.116846 170.666419 
L 258.64415 179.536819 
L 258.396488 181.879521 
L 253.984243 188.407219 
L 249.009086 197.277619 
L 246.492488 203.211683 
L 241.570259 206.148019 
L 234.588488 212.75974 
L 222.684488 212.998433 
L 210.780488 214.811301 
L 210.219718 215.018419 
L 198.876488 218.589298 
L 186.972488 222.759169 
L 183.741059 223.888819 
L 175.068488 226.174287 
L 163.164488 229.382763 
L 151.435943 232.759219 
L 151.260488 232.788825 
L 139.356488 234.762662 
L 127.452488 237.385824 
L 115.548488 239.982055 
L 103.644488 240.988979 
L 91.740488 240.235947 
L 79.836488 238.60897 
L 67.932488 236.813693 
L 56.028488 234.886553 
" style="fill:none;stroke:#1f968b;stroke-width:1.5;"/>
   </g>
   <g id="LineCollection_12">
    <path clip-path="url(#p8589e93ffa)" d="M 56.028488 118.044084 
L 57.31764 117.444019 
L 67.932488 116.534706 
L 79.836488 115.749838 
L 91.740488 114.984305 
L 103.644488 114.556025 
L 115.548488 114.694167 
L 127.452488 115.126327 
L 138.663988 115.443433 
" style="fill:none;stroke:#20a386;stroke-width:1.5;"/>
    <path clip-path="url(#p8589e93ffa)" d="M 163.858648 115.950889 
L 175.068488 115.977305 
L 186.972488 115.847839 
L 198.876488 116.303884 
L 202.295283 117.444019 
L 210.780488 122.703493 
L 213.037938 126.314419 
L 222.684488 133.795703 
L 224.155943 135.184819 
L 234.588488 142.883969 
L 236.808383 144.055219 
L 240.949992 152.925619 
L 246.492488 157.185435 
L 251.495206 161.796019 
L 258.396488 168.044127 
L 259.3852 170.666419 
L 258.868561 179.536819 
L 258.396488 184.002287 
L 255.419077 188.407219 
L 249.696877 197.277619 
L 246.492488 204.833474 
L 244.288894 206.148019 
L 234.667274 215.018419 
L 234.588488 215.080459 
L 222.684488 215.959778 
L 210.780488 217.778398 
L 198.876488 221.277007 
L 191.401927 223.888819 
L 186.972488 224.913582 
L 175.068488 228.182088 
L 163.164488 231.787447 
L 159.788916 232.759219 
L 151.260488 234.198295 
L 139.356488 236.869216 
L 127.452488 240.371916 
L 122.281025 241.629619 
L 115.548488 242.393399 
L 103.644488 243.099637 
L 91.740488 242.654917 
L 82.372179 241.629619 
L 79.836488 241.231675 
L 67.932488 239.040545 
L 56.028488 236.873746 
" style="fill:none;stroke:#20a386;stroke-width:1.5;"/>
   </g>
   <g id="LineCollection_13">
    <path clip-path="url(#p8589e93ffa)" d="M 56.028488 117.310468 
L 67.932488 116.270569 
L 79.836488 115.394268 
L 91.740488 114.494817 
L 103.644488 114.009735 
L 115.548488 114.213635 
L 127.452488 114.736007 
L 139.356488 115.131973 
L 151.260488 115.453422 
L 163.164488 115.69114 
L 175.068488 115.712645 
L 186.972488 115.540472 
L 198.876488 115.979535 
L 203.26787 117.444019 
L 210.780488 122.100644 
L 213.414823 126.314419 
L 222.684488 133.503414 
L 224.465557 135.184819 
L 234.588488 142.655476 
L 237.241451 144.055219 
L 241.892673 152.925619 
L 246.492488 156.460915 
L 252.281347 161.796019 
L 258.396488 167.332391 
L 259.653554 170.666419 
L 259.092973 179.536819 
L 258.396488 186.125053 
L 256.853911 188.407219 
L 250.384668 197.277619 
L 246.550446 206.148019 
L 246.492488 206.24348 
L 235.309445 215.018419 
L 234.588488 215.586139 
L 222.684488 218.159164 
L 210.780488 220.732399 
L 199.251076 223.870286 
" style="fill:none;stroke:#29af7f;stroke-width:1.5;"/>
    <path clip-path="url(#p8589e93ffa)" d="M 174.884442 230.24811 
L 166.94651 232.759219 
L 163.164488 233.333653 
L 151.260488 235.607764 
L 139.356488 238.975771 
L 131.199971 241.629619 
L 127.452488 242.193293 
L 115.548488 243.786325 
L 103.644488 244.883788 
L 91.740488 244.483912 
L 79.836488 243.010359 
L 69.847864 241.629619 
L 67.932488 241.267397 
L 56.028488 238.860939 
" style="fill:none;stroke:#29af7f;stroke-width:1.5;"/>
   </g>
   <g id="LineCollection_14">
    <path clip-path="url(#p8589e93ffa)" d="M 56.028488 117.080963 
L 67.932488 116.006431 
L 79.836488 115.038698 
L 91.740488 114.005329 
L 103.644488 113.463446 
L 115.548488 113.733102 
L 127.452488 114.345687 
L 139.356488 114.800928 
L 151.260488 115.166753 
L 163.164488 115.433026 
L 175.068488 115.447986 
L 186.972488 115.233106 
L 198.876488 115.655187 
L 204.240457 117.444019 
L 210.780488 121.497796 
L 213.791707 126.314419 
L 222.684488 133.211125 
L 224.775171 135.184819 
L 234.588488 142.426983 
L 237.67452 144.055219 
L 242.835354 152.925619 
L 246.492488 155.736395 
L 253.067488 161.796019 
L 258.396488 166.620654 
L 259.921908 170.666419 
L 259.317384 179.536819 
L 258.396488 188.247819 
L 258.288745 188.407219 
L 251.07246 197.277619 
L 246.856377 206.148019 
L 246.492488 206.747369 
L 235.951616 215.018419 
L 234.588488 216.091819 
L 222.684488 220.358549 
L 210.780488 223.6864 
L 210.036748 223.888819 
L 199.205694 225.461287 
" style="fill:none;stroke:#3dbc74;stroke-width:1.5;"/>
    <path clip-path="url(#p8589e93ffa)" d="M 174.947621 232.235925 
L 173.293424 232.759219 
L 163.164488 234.297657 
L 151.260488 237.017234 
L 139.356488 241.082326 
L 137.6744 241.629619 
L 127.452488 243.167138 
L 115.548488 245.179251 
L 103.644488 246.667939 
L 91.740488 246.312907 
L 79.836488 244.638073 
L 67.932488 242.786965 
L 59.832635 241.629619 
L 56.028488 240.848132 
" style="fill:none;stroke:#3dbc74;stroke-width:1.5;"/>
   </g>
   <g id="LineCollection_15">
    <path clip-path="url(#p8589e93ffa)" d="M 56.028488 116.851458 
L 67.932488 115.742293 
L 79.836488 114.683128 
L 91.740488 113.51584 
L 103.644488 112.917156 
L 115.548488 113.252569 
L 127.452488 113.955367 
L 139.356488 114.469882 
L 151.260488 114.880084 
L 163.164488 115.174913 
L 175.068488 115.183327 
L 186.972488 114.925739 
L 198.876488 115.330839 
L 205.213044 117.444019 
L 210.780488 120.894947 
L 214.168591 126.314419 
L 222.684488 132.918836 
L 225.084785 135.184819 
L 234.588488 142.198489 
L 238.107588 144.055219 
L 243.778034 152.925619 
L 246.492488 155.011876 
L 253.853629 161.796019 
L 258.396488 165.908918 
L 260.190262 170.666419 
L 259.541796 179.536819 
L 258.531724 188.407219 
L 258.396488 189.183148 
L 251.760251 197.277619 
L 247.162308 206.148019 
L 246.492488 207.251258 
L 236.593788 215.018419 
L 234.588488 216.5975 
L 222.684488 222.557935 
L 217.996646 223.888819 
L 210.780488 224.923551 
L 199.153804 227.034497 
" style="fill:none;stroke:#56c667;stroke-width:1.5;"/>
    <path clip-path="url(#p8589e93ffa)" d="M 174.796789 233.30651 
L 163.164488 235.261661 
L 151.260488 238.426703 
L 142.281278 241.629619 
L 139.356488 242.117997 
L 127.452488 244.140983 
L 115.548488 246.572177 
L 103.644488 248.45209 
L 91.740488 248.141903 
L 79.836488 246.265786 
L 67.932488 244.169136 
L 56.028488 242.321043 
" style="fill:none;stroke:#56c667;stroke-width:1.5;"/>
   </g>
   <g id="LineCollection_16">
    <path clip-path="url(#p8589e93ffa)" d="M 56.028488 116.621953 
L 67.932488 115.478156 
L 79.836488 114.327557 
L 91.740488 113.026352 
L 103.644488 112.370866 
L 115.548488 112.772036 
L 127.452488 113.565047 
L 139.356488 114.138836 
L 151.260488 114.593416 
L 163.164488 114.916799 
L 175.068488 114.918668 
L 186.972488 114.618373 
L 198.876488 115.006491 
L 206.185631 117.444019 
L 210.780488 120.292098 
L 214.545476 126.314419 
L 222.684488 132.626547 
L 225.394399 135.184819 
L 234.588488 141.969996 
L 238.540656 144.055219 
L 244.720715 152.925619 
L 246.492488 154.287356 
L 254.63977 161.796019 
L 258.396488 165.197182 
L 260.458617 170.666419 
L 259.766207 179.536819 
L 258.677939 188.407219 
L 258.396488 190.022074 
L 252.448042 197.277619 
L 247.468239 206.148019 
L 246.492488 207.755148 
L 237.235959 215.018419 
L 234.588488 217.10318 
L 223.02478 223.888819 
L 222.684488 224.07112 
L 210.780488 226.034402 
L 199.099032 228.611515 
" style="fill:none;stroke:#75d054;stroke-width:1.5;"/>
    <path clip-path="url(#p8589e93ffa)" d="M 174.568803 234.052448 
L 163.164488 236.225664 
L 151.260488 239.836173 
L 146.232654 241.629619 
L 139.356488 242.777794 
L 127.452488 245.114828 
L 115.548488 247.965103 
L 103.644488 250.236241 
L 91.740488 249.970898 
L 79.836488 247.8935 
L 67.932488 245.551307 
L 56.028488 243.460619 
" style="fill:none;stroke:#75d054;stroke-width:1.5;"/>
   </g>
   <g id="LineCollection_17">
    <path clip-path="url(#p8589e93ffa)" d="M 56.028488 116.392448 
L 67.932488 115.214018 
L 79.836488 113.971987 
L 91.740488 112.536864 
L 103.644488 111.824577 
L 115.548488 112.291503 
L 127.452488 113.174727 
L 139.356488 113.80779 
L 151.260488 114.306747 
L 163.164488 114.658686 
L 175.068488 114.654008 
L 186.972488 114.311007 
L 198.876488 114.682143 
L 207.158217 117.444019 
L 210.780488 119.689249 
L 214.92236 126.314419 
L 222.684488 132.334258 
L 225.704013 135.184819 
L 234.588488 141.741503 
L 238.973724 144.055219 
L 245.663396 152.925619 
L 246.492488 153.562836 
L 255.42591 161.796019 
L 258.396488 164.485445 
L 260.726971 170.666419 
L 259.990618 179.536819 
L 258.824155 188.407219 
L 258.396488 190.860999 
L 253.135833 197.277619 
L 247.77417 206.148019 
L 246.492488 208.259037 
L 237.87813 215.018419 
L 234.588488 217.60886 
L 223.886531 223.888819 
L 222.684488 224.532778 
L 210.780488 227.145254 
L 202.309965 229.344802 
" style="fill:none;stroke:#95d840;stroke-width:1.5;"/>
    <path clip-path="url(#p8589e93ffa)" d="M 177.679302 234.309874 
L 175.068488 234.653612 
L 163.164488 237.189668 
L 151.260488 241.245643 
L 150.18403 241.629619 
L 139.356488 243.43759 
L 127.452488 246.088673 
L 115.548488 249.358029 
L 109.71149 250.500019 
L 103.644488 251.021479 
L 91.740488 250.922449 
L 85.292351 250.500019 
L 79.836488 249.521214 
L 67.932488 246.933478 
L 56.028488 244.600194 
" style="fill:none;stroke:#95d840;stroke-width:1.5;"/>
   </g>
   <g id="LineCollection_18">
    <path clip-path="url(#p8589e93ffa)" d="M 56.028488 116.162943 
L 67.932488 114.949881 
L 79.836488 113.616417 
L 91.740488 112.047375 
L 103.644488 111.278287 
L 115.548488 111.81097 
L 127.452488 112.784407 
L 139.356488 113.476744 
L 151.260488 114.020078 
L 163.164488 114.400573 
L 175.068488 114.389349 
L 186.972488 114.00364 
L 198.876488 114.357794 
L 208.130804 117.444019 
L 210.780488 119.0864 
L 215.299245 126.314419 
L 222.684488 132.041969 
L 226.013627 135.184819 
L 234.588488 141.51301 
L 239.406793 144.055219 
L 246.492488 152.860769 
L 246.495269 152.925619 
L 256.212051 161.796019 
L 258.396488 163.773709 
L 260.995325 170.666419 
L 260.21503 179.536819 
L 258.97037 188.407219 
L 258.396488 191.699924 
L 253.823625 197.277619 
L 248.080101 206.148019 
L 246.492488 208.762926 
L 238.520302 215.018419 
L 234.588488 218.11454 
L 224.748283 223.888819 
L 222.684488 224.994436 
L 210.780488 228.256105 
L 207.693133 229.178379 
" style="fill:none;stroke:#bade28;stroke-width:1.5;"/>
    <path clip-path="url(#p8589e93ffa)" d="M 183.097289 234.196478 
L 175.068488 235.349997 
L 163.164488 238.153672 
L 153.259198 241.629619 
L 151.260488 241.963529 
L 139.356488 244.097387 
L 127.452488 247.062519 
L 116.126528 250.500019 
L 115.548488 250.588506 
L 103.644488 251.633409 
L 91.740488 251.516831 
L 79.836488 250.709447 
L 77.438532 250.500019 
L 67.932488 248.315649 
L 56.028488 245.73977 
" style="fill:none;stroke:#bade28;stroke-width:1.5;"/>
   </g>
   <g id="LineCollection_19">
    <path clip-path="url(#p8589e93ffa)" d="M 56.028488 115.933438 
L 67.932488 114.685743 
L 79.836488 113.260847 
L 91.740488 111.557887 
L 103.644488 110.731998 
L 115.548488 111.330437 
L 127.452488 112.394088 
L 139.356488 113.145698 
L 151.260488 113.733409 
L 163.164488 114.142459 
L 175.068488 114.12469 
L 186.972488 113.696274 
L 198.876488 114.033446 
L 209.103391 117.444019 
L 210.780488 118.483551 
L 215.676129 126.314419 
L 222.684488 131.74968 
L 226.323241 135.184819 
L 234.588488 141.284517 
L 239.839861 144.055219 
L 246.492488 152.322586 
L 246.518352 152.925619 
L 256.998192 161.796019 
L 258.396488 163.061973 
L 261.263679 170.666419 
L 260.439441 179.536819 
L 259.116586 188.407219 
L 258.396488 192.538849 
L 254.511416 197.277619 
L 248.386032 206.148019 
L 246.492488 209.266815 
L 239.162473 215.018419 
L 234.588488 218.62022 
L 225.610035 223.888819 
L 222.684488 225.456094 
L 210.924289 229.319713 
" style="fill:none;stroke:#dde318;stroke-width:1.5;"/>
    <path clip-path="url(#p8589e93ffa)" d="M 186.349916 234.290024 
L 175.068488 236.046381 
L 163.164488 239.117676 
L 156.006288 241.629619 
L 151.260488 242.422465 
L 139.356488 244.757184 
L 127.452488 248.036364 
L 119.335177 250.500019 
L 115.548488 251.079689 
L 103.644488 252.24534 
L 91.740488 252.111214 
L 79.836488 251.234774 
L 71.423535 250.500019 
L 67.932488 249.69782 
L 56.028488 246.879346 
" style="fill:none;stroke:#dde318;stroke-width:1.5;"/>
   </g>
   <g id="LineCollection_20">
    <path clip-path="url(#p8589e93ffa)" d="M 56.028488 115.703932 
L 67.932488 114.421606 
L 79.836488 112.905277 
L 91.740488 111.068399 
L 103.644488 110.185708 
L 115.548488 110.849905 
L 127.452488 112.003768 
L 139.356488 112.814652 
L 151.260488 113.446741 
L 163.164488 113.884346 
L 175.068488 113.860031 
L 186.972488 113.388907 
L 198.876488 113.709098 
L 210.075978 117.444019 
L 210.780488 117.880702 
L 216.053014 126.314419 
L 222.684488 131.457391 
L 226.632855 135.184819 
L 234.588488 141.056023 
L 240.272929 144.055219 
L 246.492488 151.784402 
L 246.541435 152.925619 
L 257.784333 161.796019 
L 258.396488 162.350236 
L 261.532033 170.666419 
L 260.663853 179.536819 
L 259.262801 188.407219 
L 258.396488 193.377774 
L 255.199207 197.277619 
L 248.691963 206.148019 
L 246.492488 209.770704 
L 239.804644 215.018419 
L 234.588488 219.1259 
L 226.471787 223.888819 
L 222.684488 225.917752 
L 211.057589 230.371659 
" style="fill:none;stroke:#fde725;stroke-width:1.5;"/>
    <path clip-path="url(#p8589e93ffa)" d="M 186.362282 234.84881 
L 175.068488 236.742766 
L 163.164488 240.08168 
L 158.753377 241.629619 
L 151.260488 242.881401 
L 139.356488 245.41698 
L 127.452488 249.010209 
L 122.543825 250.500019 
L 115.548488 251.570872 
L 103.644488 252.857271 
L 91.740488 252.705597 
L 79.836488 251.760101 
L 67.932488 250.696153 
L 66.00897 250.500019 
L 56.028488 248.018922 
" style="fill:none;stroke:#fde725;stroke-width:1.5;"/>
   </g>
   <g id="LineCollection_21">
    <path clip-path="url(#p8589e93ffa)" d="M 56.028488 115.474427 
L 67.932488 114.157468 
L 79.836488 112.549707 
L 91.740488 110.57891 
L 103.644488 109.639418 
L 115.548488 110.369372 
L 127.452488 111.613448 
L 139.356488 112.483607 
L 151.260488 113.160072 
L 163.164488 113.626233 
L 175.068488 113.595372 
L 186.972488 113.081541 
L 197.073031 113.338813 
" style="fill:none;stroke:#440154;stroke-width:1.5;"/>
    <path clip-path="url(#p8589e93ffa)" d="M 219.502968 128.697707 
L 222.684488 131.165102 
L 226.94247 135.184819 
L 234.588488 140.82753 
L 240.705997 144.055219 
L 246.492488 151.246219 
L 246.564518 152.925619 
L 258.396488 161.79219 
L 258.400201 161.796019 
L 261.800387 170.666419 
L 260.888264 179.536819 
L 259.409017 188.407219 
L 258.396488 194.2167 
L 255.886999 197.277619 
L 248.997894 206.148019 
L 246.492488 210.274593 
L 240.446815 215.018419 
L 234.588488 219.63158 
L 227.333539 223.888819 
L 222.684488 226.37941 
L 210.780488 231.58866 
L 207.147461 232.759219 
L 198.876488 233.837312 
L 186.972488 235.29986 
L 175.068488 237.43915 
L 163.164488 241.045684 
L 161.500467 241.629619 
L 151.260488 243.340337 
L 139.356488 246.076777 
L 127.452488 249.984054 
L 125.752474 250.500019 
L 115.548488 252.062055 
L 103.644488 253.469202 
L 91.740488 253.299979 
L 79.836488 252.285427 
L 67.932488 251.163575 
L 61.424903 250.500019 
L 56.028488 249.158497 
" style="fill:none;stroke:#440154;stroke-width:1.5;"/>
   </g>
   <g id="LineCollection_22">
    <path clip-path="url(#p8589e93ffa)" d="M 79.689895 277.111219 
L 67.932488 274.925424 
L 56.028488 272.829623 
" style="fill:none;stroke:#440154;stroke-width:1.5;"/>
    <path clip-path="url(#p8589e93ffa)" d="M 56.028488 99.217586 
L 67.932488 99.573688 
L 72.189431 99.703219 
L 79.836488 101.581296 
L 91.740488 103.268815 
L 103.644488 104.099166 
L 115.548488 104.490678 
L 127.452488 104.603359 
L 139.356488 104.662238 
L 151.260488 104.798285 
L 163.164488 104.804704 
L 175.068488 104.74708 
L 186.972488 104.166363 
L 198.876488 103.200991 
L 210.780488 107.56897 
L 211.171656 108.573619 
L 217.580937 117.444019 
L 222.684488 121.461789 
L 226.486682 126.314419 
L 234.588488 132.448692 
L 241.278651 135.184819 
L 246.492488 138.9169 
L 247.13284 144.055219 
L 250.719433 152.925619 
L 258.396488 158.678604 
L 261.420739 161.796019 
L 270.300488 168.724386 
L 272.549052 170.666419 
L 273.832751 179.536819 
L 272.237292 188.407219 
L 270.685752 197.277619 
L 270.300488 199.369877 
L 265.242918 206.148019 
L 260.145017 215.018419 
L 258.396488 218.147901 
L 251.718399 223.888819 
L 246.492488 228.654347 
L 240.660016 232.759219 
L 234.588488 236.14194 
L 226.004605 241.629619 
L 222.684488 243.063823 
L 211.712501 250.500019 
L 210.780488 250.945128 
L 198.876488 255.60659 
L 188.928681 259.370419 
L 186.972488 259.796453 
L 175.068488 261.302923 
L 163.164488 263.839056 
L 151.260488 267.608354 
L 149.449865 268.240819 
L 139.356488 270.051874 
L 131.176236 271.918376 
" style="fill:none;stroke:#440154;stroke-width:1.5;"/>
   </g>
   <g id="LineCollection_23">
    <path clip-path="url(#p8589e93ffa)" d="M 56.028488 90.186199 
L 67.932488 90.762417 
L 70.023429 90.832819 
L 79.836488 92.655395 
L 91.740488 93.493751 
L 103.644488 93.874029 
L 115.548488 94.121163 
L 121.357028 94.185716 
" style="fill:none;stroke:#440154;stroke-width:1.5;"/>
    <path clip-path="url(#p8589e93ffa)" d="M 157.354944 94.396085 
L 163.164488 94.321953 
L 175.068488 93.462223 
L 186.972488 91.139134 
L 198.876488 92.280838 
L 210.780488 98.608442 
L 211.793987 99.703219 
L 219.810935 108.573619 
L 222.684488 110.919971 
L 226.110927 117.444019 
L 234.588488 124.002595 
L 237.476877 126.314419 
L 246.492488 132.786787 
L 250.006245 135.184819 
L 254.049821 144.055219 
L 258.396488 147.916448 
L 259.077708 152.925619 
L 270.300488 161.353005 
L 270.757599 161.796019 
L 282.204488 170.353659 
L 282.580635 170.666419 
L 285.714904 179.536819 
L 284.971154 188.407219 
L 283.369574 197.277619 
L 282.204488 205.272937 
L 281.630386 206.148019 
L 275.094623 215.018419 
L 270.898122 223.888819 
L 270.300488 224.974345 
L 261.475213 232.759219 
L 258.396488 235.822 
L 250.615085 241.629619 
L 246.492488 244.312283 
L 237.311958 250.500019 
L 234.588488 251.933266 
L 222.777586 259.370419 
L 222.684488 259.410875 
L 210.780488 264.523059 
L 205.407437 268.240819 
L 198.876488 271.681499 
L 189.598189 277.111219 
" style="fill:none;stroke:#440154;stroke-width:1.5;"/>
   </g>
   <g id="LineCollection_24">
    <path clip-path="url(#p8589e93ffa)" d="M 56.028488 80.26206 
L 67.932488 80.923588 
L 79.836488 81.210099 
L 91.740488 81.225814 
L 103.644488 81.122922 
L 115.548488 81.011512 
L 127.452488 80.92877 
L 139.356488 81.044649 
L 151.260488 81.228806 
L 163.164488 81.02484 
L 175.068488 80.449849 
L 186.972488 81.299592 
L 192.668709 81.962419 
L 198.876488 85.005465 
L 210.780488 90.408641 
L 211.492107 90.832819 
L 222.684488 99.395217 
L 222.807962 99.703219 
L 226.600079 108.573619 
L 233.17056 113.818684 
" style="fill:none;stroke:#440154;stroke-width:1.5;"/>
    <path clip-path="url(#p8589e93ffa)" d="M 258.862435 141.040634 
L 259.046899 144.055219 
L 267.433882 152.925619 
L 270.300488 155.078204 
L 277.232079 161.796019 
L 282.204488 165.513369 
L 288.401917 170.666419 
L 294.108488 175.538849 
L 295.86213 179.536819 
L 297.493611 188.407219 
L 296.158535 197.277619 
L 294.733519 206.148019 
L 294.108488 210.12683 
L 290.800338 215.018419 
L 285.148909 223.888819 
L 282.204488 230.847393 
L 280.241156 232.759219 
L 271.463694 241.629619 
L 270.300488 242.766746 
L 260.080437 250.500019 
L 258.396488 251.679944 
L 247.561605 259.370419 
L 246.492488 259.988401 
L 234.588488 267.495014 
L 233.415022 268.240819 
L 222.684488 272.78921 
L 215.772077 277.111219 
" style="fill:none;stroke:#440154;stroke-width:1.5;"/>
   </g>
   <g id="LineCollection_25">
    <path clip-path="url(#p8589e93ffa)" d="M 56.028488 55.312118 
L 67.932488 55.294083 
L 78.191779 55.351219 
L 79.836488 55.46755 
L 91.740488 56.499431 
L 103.644488 57.532622 
L 115.548488 58.406413 
L 127.452488 59.21224 
L 139.356488 62.379443 
L 151.260488 64.067218 
L 153.491003 64.221619 
L 163.164488 68.844849 
L 175.068488 70.863627 
L 186.972488 72.785425 
L 188.860637 73.092019 
L 198.876488 79.302294 
L 209.872927 81.962419 
L 210.780488 82.575746 
L 222.684488 90.78137 
L 222.717523 90.832819 
L 226.838085 99.703219 
L 234.588488 105.961298 
L 235.873706 108.573619 
L 241.228549 112.704353 
" style="fill:none;stroke:#440154;stroke-width:1.5;"/>
    <path clip-path="url(#p8589e93ffa)" d="M 267.01863 144.885837 
L 270.300488 147.528603 
L 272.342642 152.925619 
L 282.204488 160.330182 
L 283.838746 161.796019 
L 294.108488 169.472868 
L 295.477739 170.666419 
L 306.012488 178.902547 
L 306.374282 179.536819 
L 309.00592 188.407219 
L 308.981881 197.277619 
L 307.505813 206.148019 
L 306.221042 215.018419 
L 306.012488 216.110716 
L 300.201486 223.888819 
L 295.561726 232.759219 
L 294.108488 235.892552 
L 288.09081 241.629619 
L 282.204488 248.777755 
L 280.054589 250.500019 
L 270.300488 258.197021 
L 268.701367 259.370419 
L 258.396488 265.895056 
L 255.044587 268.240819 
L 246.492488 272.755745 
L 239.967212 277.111219 
" style="fill:none;stroke:#440154;stroke-width:1.5;"/>
   </g>
   <g id="LineCollection_26">
    <path clip-path="url(#p8589e93ffa)" d="M 56.028488 46.226032 
L 67.932488 46.355094 
L 77.486382 46.480819 
L 79.836488 46.720468 
L 91.740488 48.142553 
L 103.644488 48.923522 
L 115.548488 51.208718 
L 127.452488 53.466359 
L 139.356488 54.843312 
L 148.697132 55.351219 
L 151.260488 56.714184 
L 163.164488 60.171294 
L 175.068488 62.857781 
L 184.843807 64.221619 
L 186.972488 65.442653 
L 198.876488 72.085707 
L 202.407183 73.092019 
L 210.780488 78.861816 
L 215.441796 81.962419 
L 222.684488 87.311559 
L 224.945523 90.832819 
L 234.588488 98.308196 
L 235.409844 99.703219 
L 246.492488 108.307756 
L 246.598543 108.573619 
L 246.873124 108.779801 
" style="fill:none;stroke:#450457;stroke-width:1.5;"/>
    <path clip-path="url(#p8589e93ffa)" d="M 271.739049 144.438507 
L 282.204488 152.512222 
L 282.492689 152.925619 
L 294.108488 161.62618 
L 294.304775 161.796019 
L 306.012488 170.559324 
L 306.130185 170.666419 
L 313.144083 179.536819 
L 317.916488 183.805476 
L 319.158363 188.407219 
L 321.225886 197.277619 
L 320.459556 206.148019 
L 318.953117 215.018419 
L 317.916488 221.55933 
L 316.361578 223.888819 
L 310.073498 232.759219 
L 306.296829 241.629619 
L 306.012488 242.127127 
L 296.68518 250.500019 
L 294.108488 253.14356 
L 286.128146 259.370419 
L 282.204488 262.108199 
L 273.762535 268.240819 
L 270.300488 270.324853 
L 260.665222 277.111219 
" style="fill:none;stroke:#450457;stroke-width:1.5;"/>
   </g>
   <g id="LineCollection_27">
    <path clip-path="url(#p8589e93ffa)" d="M 56.028488 37.23951 
L 67.932488 37.438315 
L 79.836488 37.609873 
L 79.85796 37.610419 
L 91.740488 40.858793 
L 103.644488 42.804791 
L 115.548488 44.685157 
L 127.452488 46.013925 
L 137.617272 46.480819 
L 139.356488 47.323654 
L 151.260488 51.542931 
L 163.164488 53.721452 
L 175.068488 55.081362 
L 178.353652 55.351219 
L 186.972488 60.738357 
L 198.876488 64.074391 
L 199.390986 64.221619 
L 210.780488 72.329446 
L 211.880825 73.092019 
L 222.684488 81.114781 
L 223.475103 81.962419 
L 234.588488 90.428926 
L 234.913202 90.832819 
L 245.579074 99.703219 
L 246.492488 100.412391 
L 249.74809 108.573619 
L 251.832926 110.139117 
" style="fill:none;stroke:#482475;stroke-width:1.5;"/>
    <path clip-path="url(#p8589e93ffa)" d="M 283.041848 145.966776 
L 287.893229 152.925619 
L 294.108488 157.581022 
L 298.979863 161.796019 
L 306.012488 167.059988 
L 309.975983 170.666419 
L 317.916488 176.783161 
L 319.619387 179.536819 
L 329.820488 187.8861 
L 330.000888 188.407219 
L 331.851528 197.277619 
L 333.143591 206.148019 
L 331.991813 215.018419 
L 330.491297 223.888819 
L 329.820488 227.001266 
L 325.44066 232.759219 
L 320.277851 241.629619 
L 317.916488 246.617796 
L 313.81773 250.500019 
L 306.055742 259.370419 
L 306.012488 259.405301 
L 294.128326 268.240819 
L 294.108488 268.253317 
L 282.204488 275.781306 
L 280.33816 277.111219 
" style="fill:none;stroke:#482475;stroke-width:1.5;"/>
   </g>
   <g id="LineCollection_28">
    <path clip-path="url(#p8589e93ffa)" d="M 56.028488 28.513943 
L 65.004577 28.740019 
L 67.932488 29.455445 
L 79.836488 32.259756 
L 91.740488 34.040279 
L 103.644488 35.557952 
L 115.548488 37.033757 
L 124.877764 37.610419 
L 127.452488 38.886571 
L 139.356488 43.27986 
L 151.260488 45.1232 
L 163.164488 46.178238 
L 168.116859 46.480819 
L 175.068488 50.426195 
L 186.972488 54.718011 
L 191.627746 55.351219 
L 198.876488 60.314879 
L 210.780488 64.192629 
L 210.82887 64.221619 
L 222.684488 73.038101 
L 222.758041 73.092019 
L 232.822238 81.962419 
L 234.588488 83.308 
L 240.63816 90.832819 
L 246.492488 95.337576 
L 247.394037 99.703219 
L 253.624451 104.442073 
" style="fill:none;stroke:#fde725;stroke-width:1.5;"/>
    <path clip-path="url(#p8589e93ffa)" d="M 285.78127 145.399031 
L 294.108488 151.706245 
L 295.283127 152.925619 
L 306.012488 160.952356 
L 306.973982 161.796019 
L 317.916488 169.99363 
L 318.623928 170.666419 
L 329.820488 179.234467 
L 330.035066 179.536819 
L 335.191749 188.407219 
L 341.724488 194.371865 
L 342.366106 197.277619 
L 344.14948 206.148019 
L 344.801761 215.018419 
L 343.583399 223.888819 
L 341.824164 232.759219 
L 341.724488 233.175075 
L 334.979625 241.629619 
L 330.589307 250.500019 
L 329.820488 251.770084 
L 321.002901 259.370419 
L 317.916488 262.172859 
L 309.917638 268.240819 
L 306.012488 270.66764 
L 297.072256 277.111219 
" style="fill:none;stroke:#fde725;stroke-width:1.5;"/>
   </g>
   <g id="line2d_20">
    <path clip-path="url(#p8589e93ffa)" d="M 427.710987 162.668183 
L 426.410175 162.993519 
L 418.476068 164.875816 
L 410.670834 166.568743 
L 402.972738 168.133362 
L 395.382521 169.617002 
L 387.927914 171.043279 
L 380.561403 172.328613 
L 373.329563 173.388184 
L 366.168154 174.327532 
L 359.212181 175.111122 
L 352.339566 175.589543 
L 345.510499 176.072866 
L 338.937802 176.320445 
L 332.424684 176.443013 
L 325.968117 176.328953 
L 319.66157 176.279887 
L 313.465709 176.037428 
L 307.421958 175.706975 
L 301.436203 175.064004 
L 295.582758 174.352479 
L 289.806829 173.563625 
L 283.901541 172.034649 
L 278.352904 171.060254 
L 272.992617 170.107803 
L 267.68817 168.913189 
L 262.424255 167.52689 
L 257.430924 166.104294 
L 252.431765 164.864931 
L 245.55926 154.019066 
L 240.300548 151.384695 
L 235.50256 149.972405 
L 230.876898 148.47812 
L 226.453739 147.349634 
L 226.018336 147.322844 
L 225.56144 147.260993 
L 225.115908 147.161908 
L 224.673885 147.036446 
L 224.230634 146.919239 
L 223.782321 146.7911 
L 223.35586 146.652614 
L 222.923669 146.505486 
L 222.488585 146.389978 
L 222.057802 146.255656 
L 221.62078 146.115469 
L 221.189131 145.980522 
L 220.763583 145.831211 
L 220.343031 145.694746 
L 219.912669 145.559082 
L 219.492495 145.427232 
L 219.078774 145.309242 
L 218.669813 145.195522 
L 218.248977 145.054751 
L 217.827992 144.936593 
L 217.419173 144.807275 
L 217.005998 144.676381 
L 216.597803 144.555396 
L 216.177728 144.436651 
L 215.775242 144.317832 
L 215.736297 144.309653 
L 215.692973 144.300065 
L 215.649413 144.289169 
L 215.606654 144.273923 
L 215.565756 144.263527 
L 215.524232 144.252582 
L 215.48401 144.242455 
L 215.443975 144.22975 
L 215.401661 144.217347 
L 215.359936 144.204861 
L 215.319462 144.194533 
L 215.278391 144.184155 
L 215.236048 144.174027 
L 215.1945 144.161953 
L 215.153908 144.155272 
L 215.116611 144.145169 
L 215.075841 144.134577 
L 215.03285 144.126605 
L 214.99254 144.11711 
L 214.95333 144.106655 
L 214.912819 144.093912 
L 214.87331 144.084909 
L 214.83123 144.075904 
L 214.789271 144.065194 
" style="fill:none;stroke:#1f77b4;stroke-linecap:square;stroke-width:1.5;"/>
    <defs>
     <path d="M 0 1.5 
C 0.397805 1.5 0.77937 1.341951 1.06066 1.06066 
C 1.341951 0.77937 1.5 0.397805 1.5 0 
C 1.5 -0.397805 1.341951 -0.77937 1.06066 -1.06066 
C 0.77937 -1.341951 0.397805 -1.5 0 -1.5 
C -0.397805 -1.5 -0.77937 -1.341951 -1.06066 -1.06066 
C -1.341951 -0.77937 -1.5 -0.397805 -1.5 0 
C -1.5 0.397805 -1.341951 0.77937 -1.06066 1.06066 
C -0.77937 1.341951 -0.397805 1.5 0 1.5 
z
" id="m5a018c9c38" style="stroke:#1f77b4;"/>
    </defs>
    <g clip-path="url(#p8589e93ffa)">
     <use style="fill:#1f77b4;stroke:#1f77b4;" x="578.348335" xlink:href="#m5a018c9c38" y="120.768607"/>
     <use style="fill:#1f77b4;stroke:#1f77b4;" x="570.447967" xlink:href="#m5a018c9c38" y="123.087919"/>
     <use style="fill:#1f77b4;stroke:#1f77b4;" x="560.530268" xlink:href="#m5a018c9c38" y="125.672106"/>
     <use style="fill:#1f77b4;stroke:#1f77b4;" x="550.707203" xlink:href="#m5a018c9c38" y="128.183283"/>
     <use style="fill:#1f77b4;stroke:#1f77b4;" x="540.971447" xlink:href="#m5a018c9c38" y="131.078396"/>
     <use style="fill:#1f77b4;stroke:#1f77b4;" x="531.404981" xlink:href="#m5a018c9c38" y="133.906319"/>
     <use style="fill:#1f77b4;stroke:#1f77b4;" x="521.945833" xlink:href="#m5a018c9c38" y="136.639545"/>
     <use style="fill:#1f77b4;stroke:#1f77b4;" x="512.606266" xlink:href="#m5a018c9c38" y="139.381532"/>
     <use style="fill:#1f77b4;stroke:#1f77b4;" x="503.397934" xlink:href="#m5a018c9c38" y="141.995211"/>
     <use style="fill:#1f77b4;stroke:#1f77b4;" x="494.307789" xlink:href="#m5a018c9c38" y="144.61366"/>
     <use style="fill:#1f77b4;stroke:#1f77b4;" x="485.378154" xlink:href="#m5a018c9c38" y="147.108173"/>
     <use style="fill:#1f77b4;stroke:#1f77b4;" x="476.58469" xlink:href="#m5a018c9c38" y="149.586786"/>
     <use style="fill:#1f77b4;stroke:#1f77b4;" x="467.910684" xlink:href="#m5a018c9c38" y="151.992571"/>
     <use style="fill:#1f77b4;stroke:#1f77b4;" x="459.402834" xlink:href="#m5a018c9c38" y="154.31472"/>
     <use style="fill:#1f77b4;stroke:#1f77b4;" x="450.932931" xlink:href="#m5a018c9c38" y="156.645349"/>
     <use style="fill:#1f77b4;stroke:#1f77b4;" x="442.613427" xlink:href="#m5a018c9c38" y="158.96364"/>
     <use style="fill:#1f77b4;stroke:#1f77b4;" x="434.469994" xlink:href="#m5a018c9c38" y="160.977738"/>
     <use style="fill:#1f77b4;stroke:#1f77b4;" x="426.410175" xlink:href="#m5a018c9c38" y="162.993519"/>
     <use style="fill:#1f77b4;stroke:#1f77b4;" x="418.476068" xlink:href="#m5a018c9c38" y="164.875816"/>
     <use style="fill:#1f77b4;stroke:#1f77b4;" x="410.670834" xlink:href="#m5a018c9c38" y="166.568743"/>
     <use style="fill:#1f77b4;stroke:#1f77b4;" x="402.972738" xlink:href="#m5a018c9c38" y="168.133362"/>
     <use style="fill:#1f77b4;stroke:#1f77b4;" x="395.382521" xlink:href="#m5a018c9c38" y="169.617002"/>
     <use style="fill:#1f77b4;stroke:#1f77b4;" x="387.927914" xlink:href="#m5a018c9c38" y="171.043279"/>
     <use style="fill:#1f77b4;stroke:#1f77b4;" x="380.561403" xlink:href="#m5a018c9c38" y="172.328613"/>
     <use style="fill:#1f77b4;stroke:#1f77b4;" x="373.329563" xlink:href="#m5a018c9c38" y="173.388184"/>
     <use style="fill:#1f77b4;stroke:#1f77b4;" x="366.168154" xlink:href="#m5a018c9c38" y="174.327532"/>
     <use style="fill:#1f77b4;stroke:#1f77b4;" x="359.212181" xlink:href="#m5a018c9c38" y="175.111122"/>
     <use style="fill:#1f77b4;stroke:#1f77b4;" x="352.339566" xlink:href="#m5a018c9c38" y="175.589543"/>
     <use style="fill:#1f77b4;stroke:#1f77b4;" x="345.510499" xlink:href="#m5a018c9c38" y="176.072866"/>
     <use style="fill:#1f77b4;stroke:#1f77b4;" x="338.937802" xlink:href="#m5a018c9c38" y="176.320445"/>
     <use style="fill:#1f77b4;stroke:#1f77b4;" x="332.424684" xlink:href="#m5a018c9c38" y="176.443013"/>
     <use style="fill:#1f77b4;stroke:#1f77b4;" x="325.968117" xlink:href="#m5a018c9c38" y="176.328953"/>
     <use style="fill:#1f77b4;stroke:#1f77b4;" x="319.66157" xlink:href="#m5a018c9c38" y="176.279887"/>
     <use style="fill:#1f77b4;stroke:#1f77b4;" x="313.465709" xlink:href="#m5a018c9c38" y="176.037428"/>
     <use style="fill:#1f77b4;stroke:#1f77b4;" x="307.421958" xlink:href="#m5a018c9c38" y="175.706975"/>
     <use style="fill:#1f77b4;stroke:#1f77b4;" x="301.436203" xlink:href="#m5a018c9c38" y="175.064004"/>
     <use style="fill:#1f77b4;stroke:#1f77b4;" x="295.582758" xlink:href="#m5a018c9c38" y="174.352479"/>
     <use style="fill:#1f77b4;stroke:#1f77b4;" x="289.806829" xlink:href="#m5a018c9c38" y="173.563625"/>
     <use style="fill:#1f77b4;stroke:#1f77b4;" x="283.901541" xlink:href="#m5a018c9c38" y="172.034649"/>
     <use style="fill:#1f77b4;stroke:#1f77b4;" x="278.352904" xlink:href="#m5a018c9c38" y="171.060254"/>
     <use style="fill:#1f77b4;stroke:#1f77b4;" x="272.992617" xlink:href="#m5a018c9c38" y="170.107803"/>
     <use style="fill:#1f77b4;stroke:#1f77b4;" x="267.68817" xlink:href="#m5a018c9c38" y="168.913189"/>
     <use style="fill:#1f77b4;stroke:#1f77b4;" x="262.424255" xlink:href="#m5a018c9c38" y="167.52689"/>
     <use style="fill:#1f77b4;stroke:#1f77b4;" x="257.430924" xlink:href="#m5a018c9c38" y="166.104294"/>
     <use style="fill:#1f77b4;stroke:#1f77b4;" x="252.431765" xlink:href="#m5a018c9c38" y="164.864931"/>
     <use style="fill:#1f77b4;stroke:#1f77b4;" x="245.55926" xlink:href="#m5a018c9c38" y="154.019066"/>
     <use style="fill:#1f77b4;stroke:#1f77b4;" x="240.300548" xlink:href="#m5a018c9c38" y="151.384695"/>
     <use style="fill:#1f77b4;stroke:#1f77b4;" x="235.50256" xlink:href="#m5a018c9c38" y="149.972405"/>
     <use style="fill:#1f77b4;stroke:#1f77b4;" x="230.876898" xlink:href="#m5a018c9c38" y="148.47812"/>
     <use style="fill:#1f77b4;stroke:#1f77b4;" x="226.453739" xlink:href="#m5a018c9c38" y="147.349634"/>
     <use style="fill:#1f77b4;stroke:#1f77b4;" x="226.018336" xlink:href="#m5a018c9c38" y="147.322844"/>
     <use style="fill:#1f77b4;stroke:#1f77b4;" x="225.56144" xlink:href="#m5a018c9c38" y="147.260993"/>
     <use style="fill:#1f77b4;stroke:#1f77b4;" x="225.115908" xlink:href="#m5a018c9c38" y="147.161908"/>
     <use style="fill:#1f77b4;stroke:#1f77b4;" x="224.673885" xlink:href="#m5a018c9c38" y="147.036446"/>
     <use style="fill:#1f77b4;stroke:#1f77b4;" x="224.230634" xlink:href="#m5a018c9c38" y="146.919239"/>
     <use style="fill:#1f77b4;stroke:#1f77b4;" x="223.782321" xlink:href="#m5a018c9c38" y="146.7911"/>
     <use style="fill:#1f77b4;stroke:#1f77b4;" x="223.35586" xlink:href="#m5a018c9c38" y="146.652614"/>
     <use style="fill:#1f77b4;stroke:#1f77b4;" x="222.923669" xlink:href="#m5a018c9c38" y="146.505486"/>
     <use style="fill:#1f77b4;stroke:#1f77b4;" x="222.488585" xlink:href="#m5a018c9c38" y="146.389978"/>
     <use style="fill:#1f77b4;stroke:#1f77b4;" x="222.057802" xlink:href="#m5a018c9c38" y="146.255656"/>
     <use style="fill:#1f77b4;stroke:#1f77b4;" x="221.62078" xlink:href="#m5a018c9c38" y="146.115469"/>
     <use style="fill:#1f77b4;stroke:#1f77b4;" x="221.189131" xlink:href="#m5a018c9c38" y="145.980522"/>
     <use style="fill:#1f77b4;stroke:#1f77b4;" x="220.763583" xlink:href="#m5a018c9c38" y="145.831211"/>
     <use style="fill:#1f77b4;stroke:#1f77b4;" x="220.343031" xlink:href="#m5a018c9c38" y="145.694746"/>
     <use style="fill:#1f77b4;stroke:#1f77b4;" x="219.912669" xlink:href="#m5a018c9c38" y="145.559082"/>
     <use style="fill:#1f77b4;stroke:#1f77b4;" x="219.492495" xlink:href="#m5a018c9c38" y="145.427232"/>
     <use style="fill:#1f77b4;stroke:#1f77b4;" x="219.078774" xlink:href="#m5a018c9c38" y="145.309242"/>
     <use style="fill:#1f77b4;stroke:#1f77b4;" x="218.669813" xlink:href="#m5a018c9c38" y="145.195522"/>
     <use style="fill:#1f77b4;stroke:#1f77b4;" x="218.248977" xlink:href="#m5a018c9c38" y="145.054751"/>
     <use style="fill:#1f77b4;stroke:#1f77b4;" x="217.827992" xlink:href="#m5a018c9c38" y="144.936593"/>
     <use style="fill:#1f77b4;stroke:#1f77b4;" x="217.419173" xlink:href="#m5a018c9c38" y="144.807275"/>
     <use style="fill:#1f77b4;stroke:#1f77b4;" x="217.005998" xlink:href="#m5a018c9c38" y="144.676381"/>
     <use style="fill:#1f77b4;stroke:#1f77b4;" x="216.597803" xlink:href="#m5a018c9c38" y="144.555396"/>
     <use style="fill:#1f77b4;stroke:#1f77b4;" x="216.177728" xlink:href="#m5a018c9c38" y="144.436651"/>
     <use style="fill:#1f77b4;stroke:#1f77b4;" x="215.775242" xlink:href="#m5a018c9c38" y="144.317832"/>
     <use style="fill:#1f77b4;stroke:#1f77b4;" x="215.736297" xlink:href="#m5a018c9c38" y="144.309653"/>
     <use style="fill:#1f77b4;stroke:#1f77b4;" x="215.692973" xlink:href="#m5a018c9c38" y="144.300065"/>
     <use style="fill:#1f77b4;stroke:#1f77b4;" x="215.649413" xlink:href="#m5a018c9c38" y="144.289169"/>
     <use style="fill:#1f77b4;stroke:#1f77b4;" x="215.606654" xlink:href="#m5a018c9c38" y="144.273923"/>
     <use style="fill:#1f77b4;stroke:#1f77b4;" x="215.565756" xlink:href="#m5a018c9c38" y="144.263527"/>
     <use style="fill:#1f77b4;stroke:#1f77b4;" x="215.524232" xlink:href="#m5a018c9c38" y="144.252582"/>
     <use style="fill:#1f77b4;stroke:#1f77b4;" x="215.48401" xlink:href="#m5a018c9c38" y="144.242455"/>
     <use style="fill:#1f77b4;stroke:#1f77b4;" x="215.443975" xlink:href="#m5a018c9c38" y="144.22975"/>
     <use style="fill:#1f77b4;stroke:#1f77b4;" x="215.401661" xlink:href="#m5a018c9c38" y="144.217347"/>
     <use style="fill:#1f77b4;stroke:#1f77b4;" x="215.359936" xlink:href="#m5a018c9c38" y="144.204861"/>
     <use style="fill:#1f77b4;stroke:#1f77b4;" x="215.319462" xlink:href="#m5a018c9c38" y="144.194533"/>
     <use style="fill:#1f77b4;stroke:#1f77b4;" x="215.278391" xlink:href="#m5a018c9c38" y="144.184155"/>
     <use style="fill:#1f77b4;stroke:#1f77b4;" x="215.236048" xlink:href="#m5a018c9c38" y="144.174027"/>
     <use style="fill:#1f77b4;stroke:#1f77b4;" x="215.1945" xlink:href="#m5a018c9c38" y="144.161953"/>
     <use style="fill:#1f77b4;stroke:#1f77b4;" x="215.153908" xlink:href="#m5a018c9c38" y="144.155272"/>
     <use style="fill:#1f77b4;stroke:#1f77b4;" x="215.116611" xlink:href="#m5a018c9c38" y="144.145169"/>
     <use style="fill:#1f77b4;stroke:#1f77b4;" x="215.075841" xlink:href="#m5a018c9c38" y="144.134577"/>
     <use style="fill:#1f77b4;stroke:#1f77b4;" x="215.03285" xlink:href="#m5a018c9c38" y="144.126605"/>
     <use style="fill:#1f77b4;stroke:#1f77b4;" x="214.99254" xlink:href="#m5a018c9c38" y="144.11711"/>
     <use style="fill:#1f77b4;stroke:#1f77b4;" x="214.95333" xlink:href="#m5a018c9c38" y="144.106655"/>
     <use style="fill:#1f77b4;stroke:#1f77b4;" x="214.912819" xlink:href="#m5a018c9c38" y="144.093912"/>
     <use style="fill:#1f77b4;stroke:#1f77b4;" x="214.87331" xlink:href="#m5a018c9c38" y="144.084909"/>
     <use style="fill:#1f77b4;stroke:#1f77b4;" x="214.83123" xlink:href="#m5a018c9c38" y="144.075904"/>
     <use style="fill:#1f77b4;stroke:#1f77b4;" x="214.789271" xlink:href="#m5a018c9c38" y="144.065194"/>
    </g>
   </g>
   <g id="patch_3">
    <path d="M 56.028488 277.111219 
L 56.028488 10.999219 
" style="fill:none;stroke:#000000;stroke-linecap:square;stroke-linejoin:miter;stroke-width:0.8;"/>
   </g>
   <g id="patch_4">
    <path d="M 413.148488 277.111219 
L 413.148488 10.999219 
" style="fill:none;stroke:#000000;stroke-linecap:square;stroke-linejoin:miter;stroke-width:0.8;"/>
   </g>
   <g id="patch_5">
    <path d="M 56.028488 277.111219 
L 413.148488 277.111219 
" style="fill:none;stroke:#000000;stroke-linecap:square;stroke-linejoin:miter;stroke-width:0.8;"/>
   </g>
   <g id="patch_6">
    <path d="M 56.028488 10.999219 
L 413.148488 10.999219 
" style="fill:none;stroke:#000000;stroke-linecap:square;stroke-linejoin:miter;stroke-width:0.8;"/>
   </g>
   <g id="text_22">
    <g clip-path="url(#p8589e93ffa)">
     <!-- 2.000 -->
     <g style="fill:#404688;" transform="translate(182.690448 134.06376)rotate(-51.461967)scale(0.06 -0.06)">
      <use xlink:href="#DejaVuSans-50"/>
      <use x="63.623047" xlink:href="#DejaVuSans-46"/>
      <use x="95.410156" xlink:href="#DejaVuSans-48"/>
      <use x="159.033203" xlink:href="#DejaVuSans-48"/>
      <use x="222.65625" xlink:href="#DejaVuSans-48"/>
     </g>
    </g>
   </g>
   <g id="text_23">
    <g clip-path="url(#p8589e93ffa)">
     <!-- 2.500 -->
     <g style="fill:#39558c;" transform="translate(138.457431 217.929389)rotate(-8.528336)scale(0.06 -0.06)">
      <use xlink:href="#DejaVuSans-50"/>
      <use x="63.623047" xlink:href="#DejaVuSans-46"/>
      <use x="95.410156" xlink:href="#DejaVuSans-53"/>
      <use x="159.033203" xlink:href="#DejaVuSans-48"/>
      <use x="222.65625" xlink:href="#DejaVuSans-48"/>
     </g>
    </g>
   </g>
   <g id="text_24">
    <g clip-path="url(#p8589e93ffa)">
     <!-- 3.000 -->
     <g style="fill:#33638d;" transform="translate(167.282363 218.819086)rotate(-16.191271)scale(0.06 -0.06)">
      <defs>
       <path d="M 40.578125 39.3125 
Q 47.65625 37.796875 51.625 33 
Q 55.609375 28.21875 55.609375 21.1875 
Q 55.609375 10.40625 48.1875 4.484375 
Q 40.765625 -1.421875 27.09375 -1.421875 
Q 22.515625 -1.421875 17.65625 -0.515625 
Q 12.796875 0.390625 7.625 2.203125 
L 7.625 11.71875 
Q 11.71875 9.328125 16.59375 8.109375 
Q 21.484375 6.890625 26.8125 6.890625 
Q 36.078125 6.890625 40.9375 10.546875 
Q 45.796875 14.203125 45.796875 21.1875 
Q 45.796875 27.640625 41.28125 31.265625 
Q 36.765625 34.90625 28.71875 34.90625 
L 20.21875 34.90625 
L 20.21875 43.015625 
L 29.109375 43.015625 
Q 36.375 43.015625 40.234375 45.921875 
Q 44.09375 48.828125 44.09375 54.296875 
Q 44.09375 59.90625 40.109375 62.90625 
Q 36.140625 65.921875 28.71875 65.921875 
Q 24.65625 65.921875 20.015625 65.03125 
Q 15.375 64.15625 9.8125 62.3125 
L 9.8125 71.09375 
Q 15.4375 72.65625 20.34375 73.4375 
Q 25.25 74.21875 29.59375 74.21875 
Q 40.828125 74.21875 47.359375 69.109375 
Q 53.90625 64.015625 53.90625 55.328125 
Q 53.90625 49.265625 50.4375 45.09375 
Q 46.96875 40.921875 40.578125 39.3125 
z
" id="DejaVuSans-51"/>
      </defs>
      <use xlink:href="#DejaVuSans-51"/>
      <use x="63.623047" xlink:href="#DejaVuSans-46"/>
      <use x="95.410156" xlink:href="#DejaVuSans-48"/>
      <use x="159.033203" xlink:href="#DejaVuSans-48"/>
      <use x="222.65625" xlink:href="#DejaVuSans-48"/>
     </g>
    </g>
   </g>
   <g id="text_25">
    <g clip-path="url(#p8589e93ffa)">
     <!-- 3.500 -->
     <g style="fill:#2d718e;" transform="translate(178.336727 118.465107)rotate(-358.218338)scale(0.06 -0.06)">
      <use xlink:href="#DejaVuSans-51"/>
      <use x="63.623047" xlink:href="#DejaVuSans-46"/>
      <use x="95.410156" xlink:href="#DejaVuSans-53"/>
      <use x="159.033203" xlink:href="#DejaVuSans-48"/>
      <use x="222.65625" xlink:href="#DejaVuSans-48"/>
     </g>
    </g>
   </g>
   <g id="text_26">
    <g clip-path="url(#p8589e93ffa)">
     <!-- 4.000 -->
     <g style="fill:#287d8e;" transform="translate(191.442629 217.463707)rotate(-20.885999)scale(0.06 -0.06)">
      <defs>
       <path d="M 37.796875 64.3125 
L 12.890625 25.390625 
L 37.796875 25.390625 
z
M 35.203125 72.90625 
L 47.609375 72.90625 
L 47.609375 25.390625 
L 58.015625 25.390625 
L 58.015625 17.1875 
L 47.609375 17.1875 
L 47.609375 0 
L 37.796875 0 
L 37.796875 17.1875 
L 4.890625 17.1875 
L 4.890625 26.703125 
z
" id="DejaVuSans-52"/>
      </defs>
      <use xlink:href="#DejaVuSans-52"/>
      <use x="63.623047" xlink:href="#DejaVuSans-46"/>
      <use x="95.410156" xlink:href="#DejaVuSans-48"/>
      <use x="159.033203" xlink:href="#DejaVuSans-48"/>
      <use x="222.65625" xlink:href="#DejaVuSans-48"/>
     </g>
    </g>
   </g>
   <g id="text_27">
    <g clip-path="url(#p8589e93ffa)">
     <!-- 4.500 -->
     <g style="fill:#238a8d;" transform="translate(179.416903 224.502034)rotate(-19.338814)scale(0.06 -0.06)">
      <use xlink:href="#DejaVuSans-52"/>
      <use x="63.623047" xlink:href="#DejaVuSans-46"/>
      <use x="95.410156" xlink:href="#DejaVuSans-53"/>
      <use x="159.033203" xlink:href="#DejaVuSans-48"/>
      <use x="222.65625" xlink:href="#DejaVuSans-48"/>
     </g>
    </g>
   </g>
   <g id="text_28">
    <g clip-path="url(#p8589e93ffa)">
     <!-- 5.000 -->
     <g style="fill:#1f968b;" transform="translate(178.358336 117.671367)rotate(-359.071011)scale(0.06 -0.06)">
      <use xlink:href="#DejaVuSans-53"/>
      <use x="63.623047" xlink:href="#DejaVuSans-46"/>
      <use x="95.410156" xlink:href="#DejaVuSans-48"/>
      <use x="159.033203" xlink:href="#DejaVuSans-48"/>
      <use x="222.65625" xlink:href="#DejaVuSans-48"/>
     </g>
    </g>
   </g>
   <g id="text_29">
    <g clip-path="url(#p8589e93ffa)">
     <!-- 5.500 -->
     <g style="fill:#20a386;" transform="translate(142.640035 117.220006)rotate(-358.830014)scale(0.06 -0.06)">
      <use xlink:href="#DejaVuSans-53"/>
      <use x="63.623047" xlink:href="#DejaVuSans-46"/>
      <use x="95.410156" xlink:href="#DejaVuSans-53"/>
      <use x="159.033203" xlink:href="#DejaVuSans-48"/>
      <use x="222.65625" xlink:href="#DejaVuSans-48"/>
     </g>
    </g>
   </g>
   <g id="text_30">
    <g clip-path="url(#p8589e93ffa)">
     <!-- 6.000 -->
     <g style="fill:#29af7f;" transform="translate(179.086048 230.475478)rotate(-14.711386)scale(0.06 -0.06)">
      <use xlink:href="#DejaVuSans-54"/>
      <use x="63.623047" xlink:href="#DejaVuSans-46"/>
      <use x="95.410156" xlink:href="#DejaVuSans-48"/>
      <use x="159.033203" xlink:href="#DejaVuSans-48"/>
      <use x="222.65625" xlink:href="#DejaVuSans-48"/>
     </g>
    </g>
   </g>
   <g id="text_31">
    <g clip-path="url(#p8589e93ffa)">
     <!-- 6.500 -->
     <g style="fill:#3dbc74;" transform="translate(179.15098 232.387496)rotate(-15.678015)scale(0.06 -0.06)">
      <use xlink:href="#DejaVuSans-54"/>
      <use x="63.623047" xlink:href="#DejaVuSans-46"/>
      <use x="95.410156" xlink:href="#DejaVuSans-53"/>
      <use x="159.033203" xlink:href="#DejaVuSans-48"/>
      <use x="222.65625" xlink:href="#DejaVuSans-48"/>
     </g>
    </g>
   </g>
   <g id="text_32">
    <g clip-path="url(#p8589e93ffa)">
     <!-- 7.000 -->
     <g style="fill:#56c667;" transform="translate(179.162663 234.190262)rotate(-15.848492)scale(0.06 -0.06)">
      <defs>
       <path d="M 8.203125 72.90625 
L 55.078125 72.90625 
L 55.078125 68.703125 
L 28.609375 0 
L 18.3125 0 
L 43.21875 64.59375 
L 8.203125 64.59375 
z
" id="DejaVuSans-55"/>
      </defs>
      <use xlink:href="#DejaVuSans-55"/>
      <use x="63.623047" xlink:href="#DejaVuSans-46"/>
      <use x="95.410156" xlink:href="#DejaVuSans-48"/>
      <use x="159.033203" xlink:href="#DejaVuSans-48"/>
      <use x="222.65625" xlink:href="#DejaVuSans-48"/>
     </g>
    </g>
   </g>
   <g id="text_33">
    <g clip-path="url(#p8589e93ffa)">
     <!-- 7.500 -->
     <g style="fill:#75d054;" transform="translate(178.968253 235.557897)rotate(-12.864639)scale(0.06 -0.06)">
      <use xlink:href="#DejaVuSans-55"/>
      <use x="63.623047" xlink:href="#DejaVuSans-46"/>
      <use x="95.410156" xlink:href="#DejaVuSans-53"/>
      <use x="159.033203" xlink:href="#DejaVuSans-48"/>
      <use x="222.65625" xlink:href="#DejaVuSans-48"/>
     </g>
    </g>
   </g>
   <g id="text_34">
    <g clip-path="url(#p8589e93ffa)">
     <!-- 8.000 -->
     <g style="fill:#95d840;" transform="translate(182.098857 236.099491)rotate(-11.539865)scale(0.06 -0.06)">
      <defs>
       <path d="M 31.78125 34.625 
Q 24.75 34.625 20.71875 30.859375 
Q 16.703125 27.09375 16.703125 20.515625 
Q 16.703125 13.921875 20.71875 10.15625 
Q 24.75 6.390625 31.78125 6.390625 
Q 38.8125 6.390625 42.859375 10.171875 
Q 46.921875 13.96875 46.921875 20.515625 
Q 46.921875 27.09375 42.890625 30.859375 
Q 38.875 34.625 31.78125 34.625 
z
M 21.921875 38.8125 
Q 15.578125 40.375 12.03125 44.71875 
Q 8.5 49.078125 8.5 55.328125 
Q 8.5 64.0625 14.71875 69.140625 
Q 20.953125 74.21875 31.78125 74.21875 
Q 42.671875 74.21875 48.875 69.140625 
Q 55.078125 64.0625 55.078125 55.328125 
Q 55.078125 49.078125 51.53125 44.71875 
Q 48 40.375 41.703125 38.8125 
Q 48.828125 37.15625 52.796875 32.3125 
Q 56.78125 27.484375 56.78125 20.515625 
Q 56.78125 9.90625 50.3125 4.234375 
Q 43.84375 -1.421875 31.78125 -1.421875 
Q 19.734375 -1.421875 13.25 4.234375 
Q 6.78125 9.90625 6.78125 20.515625 
Q 6.78125 27.484375 10.78125 32.3125 
Q 14.796875 37.15625 21.921875 38.8125 
z
M 18.3125 54.390625 
Q 18.3125 48.734375 21.84375 45.5625 
Q 25.390625 42.390625 31.78125 42.390625 
Q 38.140625 42.390625 41.71875 45.5625 
Q 45.3125 48.734375 45.3125 54.390625 
Q 45.3125 60.0625 41.71875 63.234375 
Q 38.140625 66.40625 31.78125 66.40625 
Q 25.390625 66.40625 21.84375 63.234375 
Q 18.3125 60.0625 18.3125 54.390625 
z
" id="DejaVuSans-56"/>
      </defs>
      <use xlink:href="#DejaVuSans-56"/>
      <use x="63.623047" xlink:href="#DejaVuSans-46"/>
      <use x="95.410156" xlink:href="#DejaVuSans-48"/>
      <use x="159.033203" xlink:href="#DejaVuSans-48"/>
      <use x="222.65625" xlink:href="#DejaVuSans-48"/>
     </g>
    </g>
   </g>
   <g id="text_35">
    <g clip-path="url(#p8589e93ffa)">
     <!-- 8.500 -->
     <g style="fill:#bade28;" transform="translate(187.508408 236.048899)rotate(-11.181738)scale(0.06 -0.06)">
      <use xlink:href="#DejaVuSans-56"/>
      <use x="63.623047" xlink:href="#DejaVuSans-46"/>
      <use x="95.410156" xlink:href="#DejaVuSans-53"/>
      <use x="159.033203" xlink:href="#DejaVuSans-48"/>
      <use x="222.65625" xlink:href="#DejaVuSans-48"/>
     </g>
    </g>
   </g>
   <g id="text_36">
    <g clip-path="url(#p8589e93ffa)">
     <!-- 9.000 -->
     <g style="fill:#dde318;" transform="translate(190.769217 236.220973)rotate(-11.130673)scale(0.06 -0.06)">
      <use xlink:href="#DejaVuSans-57"/>
      <use x="63.623047" xlink:href="#DejaVuSans-46"/>
      <use x="95.410156" xlink:href="#DejaVuSans-48"/>
      <use x="159.033203" xlink:href="#DejaVuSans-48"/>
      <use x="222.65625" xlink:href="#DejaVuSans-48"/>
     </g>
    </g>
   </g>
   <g id="text_37">
    <g clip-path="url(#p8589e93ffa)">
     <!-- 9.500 -->
     <g style="fill:#fde725;" transform="translate(190.671625 236.418191)rotate(-9.359271)scale(0.06 -0.06)">
      <use xlink:href="#DejaVuSans-57"/>
      <use x="63.623047" xlink:href="#DejaVuSans-46"/>
      <use x="95.410156" xlink:href="#DejaVuSans-53"/>
      <use x="159.033203" xlink:href="#DejaVuSans-48"/>
      <use x="222.65625" xlink:href="#DejaVuSans-48"/>
     </g>
    </g>
   </g>
   <g id="text_38">
    <g clip-path="url(#p8589e93ffa)">
     <!-- 10.000 -->
     <g style="fill:#440154;" transform="translate(201.493024 112.29797)rotate(-322.074065)scale(0.06 -0.06)">
      <use xlink:href="#DejaVuSans-49"/>
      <use x="63.623047" xlink:href="#DejaVuSans-48"/>
      <use x="127.246094" xlink:href="#DejaVuSans-46"/>
      <use x="159.033203" xlink:href="#DejaVuSans-48"/>
      <use x="222.65625" xlink:href="#DejaVuSans-48"/>
      <use x="286.279297" xlink:href="#DejaVuSans-48"/>
     </g>
    </g>
   </g>
   <g id="text_39">
    <g clip-path="url(#p8589e93ffa)">
     <!-- 100.000 -->
     <g style="fill:#440154;" transform="translate(104.050147 281.113239)rotate(-15.662252)scale(0.06 -0.06)">
      <use xlink:href="#DejaVuSans-49"/>
      <use x="63.623047" xlink:href="#DejaVuSans-48"/>
      <use x="127.246094" xlink:href="#DejaVuSans-48"/>
      <use x="190.869141" xlink:href="#DejaVuSans-46"/>
      <use x="222.65625" xlink:href="#DejaVuSans-48"/>
      <use x="286.279297" xlink:href="#DejaVuSans-48"/>
      <use x="349.902344" xlink:href="#DejaVuSans-48"/>
     </g>
    </g>
   </g>
   <g id="text_40">
    <g clip-path="url(#p8589e93ffa)">
     <!-- 1000.000 -->
     <g style="fill:#440154;" transform="translate(125.029769 95.864028)rotate(-359.569677)scale(0.06 -0.06)">
      <use xlink:href="#DejaVuSans-49"/>
      <use x="63.623047" xlink:href="#DejaVuSans-48"/>
      <use x="127.246094" xlink:href="#DejaVuSans-48"/>
      <use x="190.869141" xlink:href="#DejaVuSans-48"/>
      <use x="254.492188" xlink:href="#DejaVuSans-46"/>
      <use x="286.279297" xlink:href="#DejaVuSans-48"/>
      <use x="349.902344" xlink:href="#DejaVuSans-48"/>
      <use x="413.525391" xlink:href="#DejaVuSans-48"/>
     </g>
    </g>
   </g>
   <g id="text_41">
    <g clip-path="url(#p8589e93ffa)">
     <!-- 10000.000 -->
     <g style="fill:#440154;" transform="translate(235.258061 116.596968)rotate(-317.597578)scale(0.06 -0.06)">
      <use xlink:href="#DejaVuSans-49"/>
      <use x="63.623047" xlink:href="#DejaVuSans-48"/>
      <use x="127.246094" xlink:href="#DejaVuSans-48"/>
      <use x="190.869141" xlink:href="#DejaVuSans-48"/>
      <use x="254.492188" xlink:href="#DejaVuSans-48"/>
      <use x="318.115234" xlink:href="#DejaVuSans-46"/>
      <use x="349.902344" xlink:href="#DejaVuSans-48"/>
      <use x="413.525391" xlink:href="#DejaVuSans-48"/>
      <use x="477.148438" xlink:href="#DejaVuSans-48"/>
     </g>
    </g>
   </g>
   <g id="text_42">
    <g clip-path="url(#p8589e93ffa)">
     <!-- 100000.000 -->
     <g style="fill:#440154;" transform="translate(246.141755 112.325249)rotate(-307.086181)scale(0.06 -0.06)">
      <use xlink:href="#DejaVuSans-49"/>
      <use x="63.623047" xlink:href="#DejaVuSans-48"/>
      <use x="127.246094" xlink:href="#DejaVuSans-48"/>
      <use x="190.869141" xlink:href="#DejaVuSans-48"/>
      <use x="254.492188" xlink:href="#DejaVuSans-48"/>
      <use x="318.115234" xlink:href="#DejaVuSans-48"/>
      <use x="381.738281" xlink:href="#DejaVuSans-46"/>
      <use x="413.525391" xlink:href="#DejaVuSans-48"/>
      <use x="477.148438" xlink:href="#DejaVuSans-48"/>
      <use x="540.771484" xlink:href="#DejaVuSans-48"/>
     </g>
    </g>
   </g>
   <g id="text_43">
    <g clip-path="url(#p8589e93ffa)">
     <!-- 1000000.000 -->
     <g style="fill:#450457;" transform="translate(246.911077 110.866079)rotate(-305.08289)scale(0.06 -0.06)">
      <use xlink:href="#DejaVuSans-49"/>
      <use x="63.623047" xlink:href="#DejaVuSans-48"/>
      <use x="127.246094" xlink:href="#DejaVuSans-48"/>
      <use x="190.869141" xlink:href="#DejaVuSans-48"/>
      <use x="254.492188" xlink:href="#DejaVuSans-48"/>
      <use x="318.115234" xlink:href="#DejaVuSans-48"/>
      <use x="381.738281" xlink:href="#DejaVuSans-48"/>
      <use x="445.361328" xlink:href="#DejaVuSans-46"/>
      <use x="477.148438" xlink:href="#DejaVuSans-48"/>
      <use x="540.771484" xlink:href="#DejaVuSans-48"/>
      <use x="604.394531" xlink:href="#DejaVuSans-48"/>
     </g>
    </g>
   </g>
   <g id="text_44">
    <g clip-path="url(#p8589e93ffa)">
     <!-- 10000000.000 -->
     <g style="fill:#482475;" transform="translate(255.007352 110.441244)rotate(-309.694732)scale(0.06 -0.06)">
      <use xlink:href="#DejaVuSans-49"/>
      <use x="63.623047" xlink:href="#DejaVuSans-48"/>
      <use x="127.246094" xlink:href="#DejaVuSans-48"/>
      <use x="190.869141" xlink:href="#DejaVuSans-48"/>
      <use x="254.492188" xlink:href="#DejaVuSans-48"/>
      <use x="318.115234" xlink:href="#DejaVuSans-48"/>
      <use x="381.738281" xlink:href="#DejaVuSans-48"/>
      <use x="445.361328" xlink:href="#DejaVuSans-48"/>
      <use x="508.984375" xlink:href="#DejaVuSans-46"/>
      <use x="540.771484" xlink:href="#DejaVuSans-48"/>
      <use x="604.394531" xlink:href="#DejaVuSans-48"/>
      <use x="668.017578" xlink:href="#DejaVuSans-48"/>
     </g>
    </g>
   </g>
   <g id="text_45">
    <g clip-path="url(#p8589e93ffa)">
     <!-- 100000000.000 -->
     <g style="fill:#fde725;" transform="translate(254.686999 106.066527)rotate(-306.787381)scale(0.06 -0.06)">
      <use xlink:href="#DejaVuSans-49"/>
      <use x="63.623047" xlink:href="#DejaVuSans-48"/>
      <use x="127.246094" xlink:href="#DejaVuSans-48"/>
      <use x="190.869141" xlink:href="#DejaVuSans-48"/>
      <use x="254.492188" xlink:href="#DejaVuSans-48"/>
      <use x="318.115234" xlink:href="#DejaVuSans-48"/>
      <use x="381.738281" xlink:href="#DejaVuSans-48"/>
      <use x="445.361328" xlink:href="#DejaVuSans-48"/>
      <use x="508.984375" xlink:href="#DejaVuSans-48"/>
      <use x="572.607422" xlink:href="#DejaVuSans-46"/>
      <use x="604.394531" xlink:href="#DejaVuSans-48"/>
      <use x="668.017578" xlink:href="#DejaVuSans-48"/>
      <use x="731.640625" xlink:href="#DejaVuSans-48"/>
     </g>
    </g>
   </g>
  </g>
 </g>
 <defs>
  <clipPath id="p8589e93ffa">
   <rect height="266.112" width="357.12" x="56.028488" y="10.999219"/>
  </clipPath>
 </defs>
</svg>
