<?xml version="1.0" encoding="utf-8" standalone="no"?>
<!DOCTYPE svg PUBLIC "-//W3C//DTD SVG 1.1//EN"
  "http://www.w3.org/Graphics/SVG/1.1/DTD/svg11.dtd">
<!-- Created with matplotlib (https://matplotlib.org/) -->
<svg height="321.713144pt" version="1.1" viewBox="0 0 426.710987 321.713144" width="426.710987pt" xmlns="http://www.w3.org/2000/svg" xmlns:xlink="http://www.w3.org/1999/xlink">
 <metadata>
  <rdf:RDF xmlns:cc="http://creativecommons.org/ns#" xmlns:dc="http://purl.org/dc/elements/1.1/" xmlns:rdf="http://www.w3.org/1999/02/22-rdf-syntax-ns#">
   <cc:Work>
    <dc:type rdf:resource="http://purl.org/dc/dcmitype/StillImage"/>
    <dc:date>2021-09-22T09:13:27.539144</dc:date>
    <dc:format>image/svg+xml</dc:format>
    <dc:creator>
     <cc:Agent>
      <dc:title>Matplotlib v3.3.1, https://matplotlib.org/</dc:title>
     </cc:Agent>
    </dc:creator>
   </cc:Work>
  </rdf:RDF>
 </metadata>
 <defs>
  <style type="text/css">*{stroke-linecap:butt;stroke-linejoin:round;}</style>
 </defs>
 <g id="figure_1">
  <g id="patch_1">
   <path d="M 0 321.713144 
L 426.710987 321.713144 
L 426.710987 0 
L 0 0 
z
" style="fill:#ffffff;"/>
  </g>
  <g id="axes_1">
   <g id="patch_2">
    <path d="M 56.028488 277.111219 
L 413.148488 277.111219 
L 413.148488 10.999219 
L 56.028488 10.999219 
z
" style="fill:#ffffff;"/>
   </g>
   <g id="matplotlib.axis_1">
    <g id="xtick_1">
     <g id="line2d_1">
      <defs>
       <path d="M 0 0 
L 0 3.5 
" id="mce2be1f556" style="stroke:#000000;stroke-width:0.8;"/>
      </defs>
      <g>
       <use style="stroke:#000000;stroke-width:0.8;" x="56.028488" xlink:href="#mce2be1f556" y="277.111219"/>
      </g>
     </g>
     <g id="text_1">
      <!-- −20 -->
      <g transform="translate(45.476144 291.709656)scale(0.1 -0.1)">
       <defs>
        <path d="M 10.59375 35.5 
L 73.1875 35.5 
L 73.1875 27.203125 
L 10.59375 27.203125 
z
" id="DejaVuSans-8722"/>
        <path d="M 19.1875 8.296875 
L 53.609375 8.296875 
L 53.609375 0 
L 7.328125 0 
L 7.328125 8.296875 
Q 12.9375 14.109375 22.625 23.890625 
Q 32.328125 33.6875 34.8125 36.53125 
Q 39.546875 41.84375 41.421875 45.53125 
Q 43.3125 49.21875 43.3125 52.78125 
Q 43.3125 58.59375 39.234375 62.25 
Q 35.15625 65.921875 28.609375 65.921875 
Q 23.96875 65.921875 18.8125 64.3125 
Q 13.671875 62.703125 7.8125 59.421875 
L 7.8125 69.390625 
Q 13.765625 71.78125 18.9375 73 
Q 24.125 74.21875 28.421875 74.21875 
Q 39.75 74.21875 46.484375 68.546875 
Q 53.21875 62.890625 53.21875 53.421875 
Q 53.21875 48.921875 51.53125 44.890625 
Q 49.859375 40.875 45.40625 35.40625 
Q 44.1875 33.984375 37.640625 27.21875 
Q 31.109375 20.453125 19.1875 8.296875 
z
" id="DejaVuSans-50"/>
        <path d="M 31.78125 66.40625 
Q 24.171875 66.40625 20.328125 58.90625 
Q 16.5 51.421875 16.5 36.375 
Q 16.5 21.390625 20.328125 13.890625 
Q 24.171875 6.390625 31.78125 6.390625 
Q 39.453125 6.390625 43.28125 13.890625 
Q 47.125 21.390625 47.125 36.375 
Q 47.125 51.421875 43.28125 58.90625 
Q 39.453125 66.40625 31.78125 66.40625 
z
M 31.78125 74.21875 
Q 44.046875 74.21875 50.515625 64.515625 
Q 56.984375 54.828125 56.984375 36.375 
Q 56.984375 17.96875 50.515625 8.265625 
Q 44.046875 -1.421875 31.78125 -1.421875 
Q 19.53125 -1.421875 13.0625 8.265625 
Q 6.59375 17.96875 6.59375 36.375 
Q 6.59375 54.828125 13.0625 64.515625 
Q 19.53125 74.21875 31.78125 74.21875 
z
" id="DejaVuSans-48"/>
       </defs>
       <use xlink:href="#DejaVuSans-8722"/>
       <use x="83.789062" xlink:href="#DejaVuSans-50"/>
       <use x="147.412109" xlink:href="#DejaVuSans-48"/>
      </g>
     </g>
    </g>
    <g id="xtick_2">
     <g id="line2d_2">
      <g>
       <use style="stroke:#000000;stroke-width:0.8;" x="95.708488" xlink:href="#mce2be1f556" y="277.111219"/>
      </g>
     </g>
     <g id="text_2">
      <!-- −15 -->
      <g transform="translate(85.156144 291.709656)scale(0.1 -0.1)">
       <defs>
        <path d="M 12.40625 8.296875 
L 28.515625 8.296875 
L 28.515625 63.921875 
L 10.984375 60.40625 
L 10.984375 69.390625 
L 28.421875 72.90625 
L 38.28125 72.90625 
L 38.28125 8.296875 
L 54.390625 8.296875 
L 54.390625 0 
L 12.40625 0 
z
" id="DejaVuSans-49"/>
        <path d="M 10.796875 72.90625 
L 49.515625 72.90625 
L 49.515625 64.59375 
L 19.828125 64.59375 
L 19.828125 46.734375 
Q 21.96875 47.46875 24.109375 47.828125 
Q 26.265625 48.1875 28.421875 48.1875 
Q 40.625 48.1875 47.75 41.5 
Q 54.890625 34.8125 54.890625 23.390625 
Q 54.890625 11.625 47.5625 5.09375 
Q 40.234375 -1.421875 26.90625 -1.421875 
Q 22.3125 -1.421875 17.546875 -0.640625 
Q 12.796875 0.140625 7.71875 1.703125 
L 7.71875 11.625 
Q 12.109375 9.234375 16.796875 8.0625 
Q 21.484375 6.890625 26.703125 6.890625 
Q 35.15625 6.890625 40.078125 11.328125 
Q 45.015625 15.765625 45.015625 23.390625 
Q 45.015625 31 40.078125 35.4375 
Q 35.15625 39.890625 26.703125 39.890625 
Q 22.75 39.890625 18.8125 39.015625 
Q 14.890625 38.140625 10.796875 36.28125 
z
" id="DejaVuSans-53"/>
       </defs>
       <use xlink:href="#DejaVuSans-8722"/>
       <use x="83.789062" xlink:href="#DejaVuSans-49"/>
       <use x="147.412109" xlink:href="#DejaVuSans-53"/>
      </g>
     </g>
    </g>
    <g id="xtick_3">
     <g id="line2d_3">
      <g>
       <use style="stroke:#000000;stroke-width:0.8;" x="135.388488" xlink:href="#mce2be1f556" y="277.111219"/>
      </g>
     </g>
     <g id="text_3">
      <!-- −10 -->
      <g transform="translate(124.836144 291.709656)scale(0.1 -0.1)">
       <use xlink:href="#DejaVuSans-8722"/>
       <use x="83.789062" xlink:href="#DejaVuSans-49"/>
       <use x="147.412109" xlink:href="#DejaVuSans-48"/>
      </g>
     </g>
    </g>
    <g id="xtick_4">
     <g id="line2d_4">
      <g>
       <use style="stroke:#000000;stroke-width:0.8;" x="175.068488" xlink:href="#mce2be1f556" y="277.111219"/>
      </g>
     </g>
     <g id="text_4">
      <!-- −5 -->
      <g transform="translate(167.697394 291.709656)scale(0.1 -0.1)">
       <use xlink:href="#DejaVuSans-8722"/>
       <use x="83.789062" xlink:href="#DejaVuSans-53"/>
      </g>
     </g>
    </g>
    <g id="xtick_5">
     <g id="line2d_5">
      <g>
       <use style="stroke:#000000;stroke-width:0.8;" x="214.748488" xlink:href="#mce2be1f556" y="277.111219"/>
      </g>
     </g>
     <g id="text_5">
      <!-- 0 -->
      <g transform="translate(211.567238 291.709656)scale(0.1 -0.1)">
       <use xlink:href="#DejaVuSans-48"/>
      </g>
     </g>
    </g>
    <g id="xtick_6">
     <g id="line2d_6">
      <g>
       <use style="stroke:#000000;stroke-width:0.8;" x="254.428488" xlink:href="#mce2be1f556" y="277.111219"/>
      </g>
     </g>
     <g id="text_6">
      <!-- 5 -->
      <g transform="translate(251.247238 291.709656)scale(0.1 -0.1)">
       <use xlink:href="#DejaVuSans-53"/>
      </g>
     </g>
    </g>
    <g id="xtick_7">
     <g id="line2d_7">
      <g>
       <use style="stroke:#000000;stroke-width:0.8;" x="294.108488" xlink:href="#mce2be1f556" y="277.111219"/>
      </g>
     </g>
     <g id="text_7">
      <!-- 10 -->
      <g transform="translate(287.745988 291.709656)scale(0.1 -0.1)">
       <use xlink:href="#DejaVuSans-49"/>
       <use x="63.623047" xlink:href="#DejaVuSans-48"/>
      </g>
     </g>
    </g>
    <g id="xtick_8">
     <g id="line2d_8">
      <g>
       <use style="stroke:#000000;stroke-width:0.8;" x="333.788488" xlink:href="#mce2be1f556" y="277.111219"/>
      </g>
     </g>
     <g id="text_8">
      <!-- 15 -->
      <g transform="translate(327.425988 291.709656)scale(0.1 -0.1)">
       <use xlink:href="#DejaVuSans-49"/>
       <use x="63.623047" xlink:href="#DejaVuSans-53"/>
      </g>
     </g>
    </g>
    <g id="xtick_9">
     <g id="line2d_9">
      <g>
       <use style="stroke:#000000;stroke-width:0.8;" x="373.468488" xlink:href="#mce2be1f556" y="277.111219"/>
      </g>
     </g>
     <g id="text_9">
      <!-- 20 -->
      <g transform="translate(367.105988 291.709656)scale(0.1 -0.1)">
       <use xlink:href="#DejaVuSans-50"/>
       <use x="63.623047" xlink:href="#DejaVuSans-48"/>
      </g>
     </g>
    </g>
    <g id="xtick_10">
     <g id="line2d_10">
      <g>
       <use style="stroke:#000000;stroke-width:0.8;" x="413.148488" xlink:href="#mce2be1f556" y="277.111219"/>
      </g>
     </g>
     <g id="text_10">
      <!-- 25 -->
      <g transform="translate(406.785988 291.709656)scale(0.1 -0.1)">
       <use xlink:href="#DejaVuSans-50"/>
       <use x="63.623047" xlink:href="#DejaVuSans-53"/>
      </g>
     </g>
    </g>
    <g id="text_11">
     <!-- 1st PC: 98.74 % -->
     <g transform="translate(165.868088 310.919444)scale(0.1728 -0.1728)">
      <defs>
       <path d="M 44.28125 53.078125 
L 44.28125 44.578125 
Q 40.484375 46.53125 36.375 47.5 
Q 32.28125 48.484375 27.875 48.484375 
Q 21.1875 48.484375 17.84375 46.4375 
Q 14.5 44.390625 14.5 40.28125 
Q 14.5 37.15625 16.890625 35.375 
Q 19.28125 33.59375 26.515625 31.984375 
L 29.59375 31.296875 
Q 39.15625 29.25 43.1875 25.515625 
Q 47.21875 21.78125 47.21875 15.09375 
Q 47.21875 7.46875 41.1875 3.015625 
Q 35.15625 -1.421875 24.609375 -1.421875 
Q 20.21875 -1.421875 15.453125 -0.5625 
Q 10.6875 0.296875 5.421875 2 
L 5.421875 11.28125 
Q 10.40625 8.6875 15.234375 7.390625 
Q 20.0625 6.109375 24.8125 6.109375 
Q 31.15625 6.109375 34.5625 8.28125 
Q 37.984375 10.453125 37.984375 14.40625 
Q 37.984375 18.0625 35.515625 20.015625 
Q 33.0625 21.96875 24.703125 23.78125 
L 21.578125 24.515625 
Q 13.234375 26.265625 9.515625 29.90625 
Q 5.8125 33.546875 5.8125 39.890625 
Q 5.8125 47.609375 11.28125 51.796875 
Q 16.75 56 26.8125 56 
Q 31.78125 56 36.171875 55.265625 
Q 40.578125 54.546875 44.28125 53.078125 
z
" id="DejaVuSans-115"/>
       <path d="M 18.3125 70.21875 
L 18.3125 54.6875 
L 36.8125 54.6875 
L 36.8125 47.703125 
L 18.3125 47.703125 
L 18.3125 18.015625 
Q 18.3125 11.328125 20.140625 9.421875 
Q 21.96875 7.515625 27.59375 7.515625 
L 36.8125 7.515625 
L 36.8125 0 
L 27.59375 0 
Q 17.1875 0 13.234375 3.875 
Q 9.28125 7.765625 9.28125 18.015625 
L 9.28125 47.703125 
L 2.6875 47.703125 
L 2.6875 54.6875 
L 9.28125 54.6875 
L 9.28125 70.21875 
z
" id="DejaVuSans-116"/>
       <path id="DejaVuSans-32"/>
       <path d="M 19.671875 64.796875 
L 19.671875 37.40625 
L 32.078125 37.40625 
Q 38.96875 37.40625 42.71875 40.96875 
Q 46.484375 44.53125 46.484375 51.125 
Q 46.484375 57.671875 42.71875 61.234375 
Q 38.96875 64.796875 32.078125 64.796875 
z
M 9.8125 72.90625 
L 32.078125 72.90625 
Q 44.34375 72.90625 50.609375 67.359375 
Q 56.890625 61.8125 56.890625 51.125 
Q 56.890625 40.328125 50.609375 34.8125 
Q 44.34375 29.296875 32.078125 29.296875 
L 19.671875 29.296875 
L 19.671875 0 
L 9.8125 0 
z
" id="DejaVuSans-80"/>
       <path d="M 64.40625 67.28125 
L 64.40625 56.890625 
Q 59.421875 61.53125 53.78125 63.8125 
Q 48.140625 66.109375 41.796875 66.109375 
Q 29.296875 66.109375 22.65625 58.46875 
Q 16.015625 50.828125 16.015625 36.375 
Q 16.015625 21.96875 22.65625 14.328125 
Q 29.296875 6.6875 41.796875 6.6875 
Q 48.140625 6.6875 53.78125 8.984375 
Q 59.421875 11.28125 64.40625 15.921875 
L 64.40625 5.609375 
Q 59.234375 2.09375 53.4375 0.328125 
Q 47.65625 -1.421875 41.21875 -1.421875 
Q 24.65625 -1.421875 15.125 8.703125 
Q 5.609375 18.84375 5.609375 36.375 
Q 5.609375 53.953125 15.125 64.078125 
Q 24.65625 74.21875 41.21875 74.21875 
Q 47.75 74.21875 53.53125 72.484375 
Q 59.328125 70.75 64.40625 67.28125 
z
" id="DejaVuSans-67"/>
       <path d="M 11.71875 12.40625 
L 22.015625 12.40625 
L 22.015625 0 
L 11.71875 0 
z
M 11.71875 51.703125 
L 22.015625 51.703125 
L 22.015625 39.3125 
L 11.71875 39.3125 
z
" id="DejaVuSans-58"/>
       <path d="M 10.984375 1.515625 
L 10.984375 10.5 
Q 14.703125 8.734375 18.5 7.8125 
Q 22.3125 6.890625 25.984375 6.890625 
Q 35.75 6.890625 40.890625 13.453125 
Q 46.046875 20.015625 46.78125 33.40625 
Q 43.953125 29.203125 39.59375 26.953125 
Q 35.25 24.703125 29.984375 24.703125 
Q 19.046875 24.703125 12.671875 31.3125 
Q 6.296875 37.9375 6.296875 49.421875 
Q 6.296875 60.640625 12.9375 67.421875 
Q 19.578125 74.21875 30.609375 74.21875 
Q 43.265625 74.21875 49.921875 64.515625 
Q 56.59375 54.828125 56.59375 36.375 
Q 56.59375 19.140625 48.40625 8.859375 
Q 40.234375 -1.421875 26.421875 -1.421875 
Q 22.703125 -1.421875 18.890625 -0.6875 
Q 15.09375 0.046875 10.984375 1.515625 
z
M 30.609375 32.421875 
Q 37.25 32.421875 41.125 36.953125 
Q 45.015625 41.5 45.015625 49.421875 
Q 45.015625 57.28125 41.125 61.84375 
Q 37.25 66.40625 30.609375 66.40625 
Q 23.96875 66.40625 20.09375 61.84375 
Q 16.21875 57.28125 16.21875 49.421875 
Q 16.21875 41.5 20.09375 36.953125 
Q 23.96875 32.421875 30.609375 32.421875 
z
" id="DejaVuSans-57"/>
       <path d="M 31.78125 34.625 
Q 24.75 34.625 20.71875 30.859375 
Q 16.703125 27.09375 16.703125 20.515625 
Q 16.703125 13.921875 20.71875 10.15625 
Q 24.75 6.390625 31.78125 6.390625 
Q 38.8125 6.390625 42.859375 10.171875 
Q 46.921875 13.96875 46.921875 20.515625 
Q 46.921875 27.09375 42.890625 30.859375 
Q 38.875 34.625 31.78125 34.625 
z
M 21.921875 38.8125 
Q 15.578125 40.375 12.03125 44.71875 
Q 8.5 49.078125 8.5 55.328125 
Q 8.5 64.0625 14.71875 69.140625 
Q 20.953125 74.21875 31.78125 74.21875 
Q 42.671875 74.21875 48.875 69.140625 
Q 55.078125 64.0625 55.078125 55.328125 
Q 55.078125 49.078125 51.53125 44.71875 
Q 48 40.375 41.703125 38.8125 
Q 48.828125 37.15625 52.796875 32.3125 
Q 56.78125 27.484375 56.78125 20.515625 
Q 56.78125 9.90625 50.3125 4.234375 
Q 43.84375 -1.421875 31.78125 -1.421875 
Q 19.734375 -1.421875 13.25 4.234375 
Q 6.78125 9.90625 6.78125 20.515625 
Q 6.78125 27.484375 10.78125 32.3125 
Q 14.796875 37.15625 21.921875 38.8125 
z
M 18.3125 54.390625 
Q 18.3125 48.734375 21.84375 45.5625 
Q 25.390625 42.390625 31.78125 42.390625 
Q 38.140625 42.390625 41.71875 45.5625 
Q 45.3125 48.734375 45.3125 54.390625 
Q 45.3125 60.0625 41.71875 63.234375 
Q 38.140625 66.40625 31.78125 66.40625 
Q 25.390625 66.40625 21.84375 63.234375 
Q 18.3125 60.0625 18.3125 54.390625 
z
" id="DejaVuSans-56"/>
       <path d="M 10.6875 12.40625 
L 21 12.40625 
L 21 0 
L 10.6875 0 
z
" id="DejaVuSans-46"/>
       <path d="M 8.203125 72.90625 
L 55.078125 72.90625 
L 55.078125 68.703125 
L 28.609375 0 
L 18.3125 0 
L 43.21875 64.59375 
L 8.203125 64.59375 
z
" id="DejaVuSans-55"/>
       <path d="M 37.796875 64.3125 
L 12.890625 25.390625 
L 37.796875 25.390625 
z
M 35.203125 72.90625 
L 47.609375 72.90625 
L 47.609375 25.390625 
L 58.015625 25.390625 
L 58.015625 17.1875 
L 47.609375 17.1875 
L 47.609375 0 
L 37.796875 0 
L 37.796875 17.1875 
L 4.890625 17.1875 
L 4.890625 26.703125 
z
" id="DejaVuSans-52"/>
       <path d="M 72.703125 32.078125 
Q 68.453125 32.078125 66.03125 28.46875 
Q 63.625 24.859375 63.625 18.40625 
Q 63.625 12.0625 66.03125 8.421875 
Q 68.453125 4.78125 72.703125 4.78125 
Q 76.859375 4.78125 79.265625 8.421875 
Q 81.6875 12.0625 81.6875 18.40625 
Q 81.6875 24.8125 79.265625 28.4375 
Q 76.859375 32.078125 72.703125 32.078125 
z
M 72.703125 38.28125 
Q 80.421875 38.28125 84.953125 32.90625 
Q 89.5 27.546875 89.5 18.40625 
Q 89.5 9.28125 84.9375 3.921875 
Q 80.375 -1.421875 72.703125 -1.421875 
Q 64.890625 -1.421875 60.34375 3.921875 
Q 55.8125 9.28125 55.8125 18.40625 
Q 55.8125 27.59375 60.375 32.9375 
Q 64.9375 38.28125 72.703125 38.28125 
z
M 22.3125 68.015625 
Q 18.109375 68.015625 15.6875 64.375 
Q 13.28125 60.75 13.28125 54.390625 
Q 13.28125 47.953125 15.671875 44.328125 
Q 18.0625 40.71875 22.3125 40.71875 
Q 26.5625 40.71875 28.96875 44.328125 
Q 31.390625 47.953125 31.390625 54.390625 
Q 31.390625 60.6875 28.953125 64.34375 
Q 26.515625 68.015625 22.3125 68.015625 
z
M 66.40625 74.21875 
L 74.21875 74.21875 
L 28.609375 -1.421875 
L 20.796875 -1.421875 
z
M 22.3125 74.21875 
Q 30.03125 74.21875 34.609375 68.875 
Q 39.203125 63.53125 39.203125 54.390625 
Q 39.203125 45.171875 34.640625 39.84375 
Q 30.078125 34.515625 22.3125 34.515625 
Q 14.546875 34.515625 10.03125 39.859375 
Q 5.515625 45.21875 5.515625 54.390625 
Q 5.515625 63.484375 10.046875 68.84375 
Q 14.59375 74.21875 22.3125 74.21875 
z
" id="DejaVuSans-37"/>
      </defs>
      <use xlink:href="#DejaVuSans-49"/>
      <use x="63.623047" xlink:href="#DejaVuSans-115"/>
      <use x="115.722656" xlink:href="#DejaVuSans-116"/>
      <use x="154.931641" xlink:href="#DejaVuSans-32"/>
      <use x="186.71875" xlink:href="#DejaVuSans-80"/>
      <use x="247.021484" xlink:href="#DejaVuSans-67"/>
      <use x="316.845703" xlink:href="#DejaVuSans-58"/>
      <use x="350.537109" xlink:href="#DejaVuSans-32"/>
      <use x="382.324219" xlink:href="#DejaVuSans-57"/>
      <use x="445.947266" xlink:href="#DejaVuSans-56"/>
      <use x="509.570312" xlink:href="#DejaVuSans-46"/>
      <use x="541.357422" xlink:href="#DejaVuSans-55"/>
      <use x="604.980469" xlink:href="#DejaVuSans-52"/>
      <use x="668.603516" xlink:href="#DejaVuSans-32"/>
      <use x="700.390625" xlink:href="#DejaVuSans-37"/>
     </g>
    </g>
   </g>
   <g id="matplotlib.axis_2">
    <g id="ytick_1">
     <g id="line2d_11">
      <defs>
       <path d="M 0 0 
L -3.5 0 
" id="m98eefee6a0" style="stroke:#000000;stroke-width:0.8;"/>
      </defs>
      <g>
       <use style="stroke:#000000;stroke-width:0.8;" x="56.028488" xlink:href="#m98eefee6a0" y="277.111219"/>
      </g>
     </g>
     <g id="text_12">
      <!-- −20 -->
      <g transform="translate(27.9238 280.910437)scale(0.1 -0.1)">
       <use xlink:href="#DejaVuSans-8722"/>
       <use x="83.789062" xlink:href="#DejaVuSans-50"/>
       <use x="147.412109" xlink:href="#DejaVuSans-48"/>
      </g>
     </g>
    </g>
    <g id="ytick_2">
     <g id="line2d_12">
      <g>
       <use style="stroke:#000000;stroke-width:0.8;" x="56.028488" xlink:href="#m98eefee6a0" y="243.847219"/>
      </g>
     </g>
     <g id="text_13">
      <!-- −15 -->
      <g transform="translate(27.9238 247.646437)scale(0.1 -0.1)">
       <use xlink:href="#DejaVuSans-8722"/>
       <use x="83.789062" xlink:href="#DejaVuSans-49"/>
       <use x="147.412109" xlink:href="#DejaVuSans-53"/>
      </g>
     </g>
    </g>
    <g id="ytick_3">
     <g id="line2d_13">
      <g>
       <use style="stroke:#000000;stroke-width:0.8;" x="56.028488" xlink:href="#m98eefee6a0" y="210.583219"/>
      </g>
     </g>
     <g id="text_14">
      <!-- −10 -->
      <g transform="translate(27.9238 214.382437)scale(0.1 -0.1)">
       <use xlink:href="#DejaVuSans-8722"/>
       <use x="83.789062" xlink:href="#DejaVuSans-49"/>
       <use x="147.412109" xlink:href="#DejaVuSans-48"/>
      </g>
     </g>
    </g>
    <g id="ytick_4">
     <g id="line2d_14">
      <g>
       <use style="stroke:#000000;stroke-width:0.8;" x="56.028488" xlink:href="#m98eefee6a0" y="177.319219"/>
      </g>
     </g>
     <g id="text_15">
      <!-- −5 -->
      <g transform="translate(34.2863 181.118437)scale(0.1 -0.1)">
       <use xlink:href="#DejaVuSans-8722"/>
       <use x="83.789062" xlink:href="#DejaVuSans-53"/>
      </g>
     </g>
    </g>
    <g id="ytick_5">
     <g id="line2d_15">
      <g>
       <use style="stroke:#000000;stroke-width:0.8;" x="56.028488" xlink:href="#m98eefee6a0" y="144.055219"/>
      </g>
     </g>
     <g id="text_16">
      <!-- 0 -->
      <g transform="translate(42.665987 147.854437)scale(0.1 -0.1)">
       <use xlink:href="#DejaVuSans-48"/>
      </g>
     </g>
    </g>
    <g id="ytick_6">
     <g id="line2d_16">
      <g>
       <use style="stroke:#000000;stroke-width:0.8;" x="56.028488" xlink:href="#m98eefee6a0" y="110.791219"/>
      </g>
     </g>
     <g id="text_17">
      <!-- 5 -->
      <g transform="translate(42.665987 114.590437)scale(0.1 -0.1)">
       <use xlink:href="#DejaVuSans-53"/>
      </g>
     </g>
    </g>
    <g id="ytick_7">
     <g id="line2d_17">
      <g>
       <use style="stroke:#000000;stroke-width:0.8;" x="56.028488" xlink:href="#m98eefee6a0" y="77.527219"/>
      </g>
     </g>
     <g id="text_18">
      <!-- 10 -->
      <g transform="translate(36.303488 81.326437)scale(0.1 -0.1)">
       <use xlink:href="#DejaVuSans-49"/>
       <use x="63.623047" xlink:href="#DejaVuSans-48"/>
      </g>
     </g>
    </g>
    <g id="ytick_8">
     <g id="line2d_18">
      <g>
       <use style="stroke:#000000;stroke-width:0.8;" x="56.028488" xlink:href="#m98eefee6a0" y="44.263219"/>
      </g>
     </g>
     <g id="text_19">
      <!-- 15 -->
      <g transform="translate(36.303488 48.062437)scale(0.1 -0.1)">
       <use xlink:href="#DejaVuSans-49"/>
       <use x="63.623047" xlink:href="#DejaVuSans-53"/>
      </g>
     </g>
    </g>
    <g id="ytick_9">
     <g id="line2d_19">
      <g>
       <use style="stroke:#000000;stroke-width:0.8;" x="56.028488" xlink:href="#m98eefee6a0" y="10.999219"/>
      </g>
     </g>
     <g id="text_20">
      <!-- 20 -->
      <g transform="translate(36.303488 14.798437)scale(0.1 -0.1)">
       <use xlink:href="#DejaVuSans-50"/>
       <use x="63.623047" xlink:href="#DejaVuSans-48"/>
      </g>
     </g>
    </g>
    <g id="text_21">
     <!-- 2nd PC: 0.66 % -->
     <g transform="translate(20.3301 210.351019)rotate(-90)scale(0.1728 -0.1728)">
      <defs>
       <path d="M 54.890625 33.015625 
L 54.890625 0 
L 45.90625 0 
L 45.90625 32.71875 
Q 45.90625 40.484375 42.875 44.328125 
Q 39.84375 48.1875 33.796875 48.1875 
Q 26.515625 48.1875 22.3125 43.546875 
Q 18.109375 38.921875 18.109375 30.90625 
L 18.109375 0 
L 9.078125 0 
L 9.078125 54.6875 
L 18.109375 54.6875 
L 18.109375 46.1875 
Q 21.34375 51.125 25.703125 53.5625 
Q 30.078125 56 35.796875 56 
Q 45.21875 56 50.046875 50.171875 
Q 54.890625 44.34375 54.890625 33.015625 
z
" id="DejaVuSans-110"/>
       <path d="M 45.40625 46.390625 
L 45.40625 75.984375 
L 54.390625 75.984375 
L 54.390625 0 
L 45.40625 0 
L 45.40625 8.203125 
Q 42.578125 3.328125 38.25 0.953125 
Q 33.9375 -1.421875 27.875 -1.421875 
Q 17.96875 -1.421875 11.734375 6.484375 
Q 5.515625 14.40625 5.515625 27.296875 
Q 5.515625 40.1875 11.734375 48.09375 
Q 17.96875 56 27.875 56 
Q 33.9375 56 38.25 53.625 
Q 42.578125 51.265625 45.40625 46.390625 
z
M 14.796875 27.296875 
Q 14.796875 17.390625 18.875 11.75 
Q 22.953125 6.109375 30.078125 6.109375 
Q 37.203125 6.109375 41.296875 11.75 
Q 45.40625 17.390625 45.40625 27.296875 
Q 45.40625 37.203125 41.296875 42.84375 
Q 37.203125 48.484375 30.078125 48.484375 
Q 22.953125 48.484375 18.875 42.84375 
Q 14.796875 37.203125 14.796875 27.296875 
z
" id="DejaVuSans-100"/>
       <path d="M 33.015625 40.375 
Q 26.375 40.375 22.484375 35.828125 
Q 18.609375 31.296875 18.609375 23.390625 
Q 18.609375 15.53125 22.484375 10.953125 
Q 26.375 6.390625 33.015625 6.390625 
Q 39.65625 6.390625 43.53125 10.953125 
Q 47.40625 15.53125 47.40625 23.390625 
Q 47.40625 31.296875 43.53125 35.828125 
Q 39.65625 40.375 33.015625 40.375 
z
M 52.59375 71.296875 
L 52.59375 62.3125 
Q 48.875 64.0625 45.09375 64.984375 
Q 41.3125 65.921875 37.59375 65.921875 
Q 27.828125 65.921875 22.671875 59.328125 
Q 17.53125 52.734375 16.796875 39.40625 
Q 19.671875 43.65625 24.015625 45.921875 
Q 28.375 48.1875 33.59375 48.1875 
Q 44.578125 48.1875 50.953125 41.515625 
Q 57.328125 34.859375 57.328125 23.390625 
Q 57.328125 12.15625 50.6875 5.359375 
Q 44.046875 -1.421875 33.015625 -1.421875 
Q 20.359375 -1.421875 13.671875 8.265625 
Q 6.984375 17.96875 6.984375 36.375 
Q 6.984375 53.65625 15.1875 63.9375 
Q 23.390625 74.21875 37.203125 74.21875 
Q 40.921875 74.21875 44.703125 73.484375 
Q 48.484375 72.75 52.59375 71.296875 
z
" id="DejaVuSans-54"/>
      </defs>
      <use xlink:href="#DejaVuSans-50"/>
      <use x="63.623047" xlink:href="#DejaVuSans-110"/>
      <use x="127.001953" xlink:href="#DejaVuSans-100"/>
      <use x="190.478516" xlink:href="#DejaVuSans-32"/>
      <use x="222.265625" xlink:href="#DejaVuSans-80"/>
      <use x="282.568359" xlink:href="#DejaVuSans-67"/>
      <use x="352.392578" xlink:href="#DejaVuSans-58"/>
      <use x="386.083984" xlink:href="#DejaVuSans-32"/>
      <use x="417.871094" xlink:href="#DejaVuSans-48"/>
      <use x="481.494141" xlink:href="#DejaVuSans-46"/>
      <use x="513.28125" xlink:href="#DejaVuSans-54"/>
      <use x="576.904297" xlink:href="#DejaVuSans-54"/>
      <use x="640.527344" xlink:href="#DejaVuSans-32"/>
      <use x="672.314453" xlink:href="#DejaVuSans-37"/>
     </g>
    </g>
   </g>
   <g id="LineCollection_1"/>
   <g id="LineCollection_2"/>
   <g id="LineCollection_3"/>
   <g id="LineCollection_4"/>
   <g id="LineCollection_5">
    <path clip-path="url(#p48f4d1483d)" d="M 218.842507 145.730687 
L 215.946509 152.925619 
L 210.780488 154.136874 
L 198.876488 155.166253 
L 186.972488 153.93213 
L 184.726619 152.925619 
L 186.972488 150.343428 
L 191.441053 144.055219 
L 197.720773 135.184819 
L 198.876488 134.260064 
L 201.722342 133.924772 
" style="fill:none;stroke:#404688;stroke-width:1.5;"/>
   </g>
   <g id="LineCollection_6">
    <path clip-path="url(#p48f4d1483d)" d="M 56.028488 137.564582 
L 67.932488 139.185652 
L 79.836488 140.478463 
L 91.740488 141.114133 
L 103.644488 140.869297 
L 115.548488 139.316166 
L 127.452488 135.610301 
L 128.28574 135.184819 
L 139.356488 129.347532 
L 143.885149 126.314419 
L 151.260488 124.442762 
L 162.491316 122.459867 
" style="fill:none;stroke:#39558c;stroke-width:1.5;"/>
    <path clip-path="url(#p48f4d1483d)" d="M 187.665353 122.053569 
L 198.876488 122.706739 
L 210.780488 125.96807 
L 211.213495 126.314419 
L 222.684488 135.151729 
L 222.702135 135.184819 
L 223.965634 144.055219 
L 224.85879 152.925619 
L 222.684488 159.698697 
L 210.780488 161.418047 
L 209.135024 161.796019 
L 198.876488 162.570073 
L 186.972488 163.319457 
L 175.068488 163.607179 
L 163.164488 163.35657 
L 151.260488 162.834527 
L 139.356488 162.3975 
L 127.452488 162.163475 
L 115.548488 162.065858 
L 103.644488 162.039183 
L 91.740488 162.064587 
L 79.836488 162.124738 
L 67.932488 162.178391 
L 56.028488 162.19621 
" style="fill:none;stroke:#39558c;stroke-width:1.5;"/>
   </g>
   <g id="LineCollection_7">
    <path clip-path="url(#p48f4d1483d)" d="M 56.028488 116.109404 
L 67.932488 116.09859 
L 79.836488 115.329632 
L 91.740488 113.815139 
L 103.644488 111.875995 
L 115.548488 110.276352 
L 127.452488 110.052946 
L 139.356488 111.332875 
L 151.260488 113.13089 
L 163.164488 114.648205 
L 175.068488 115.796442 
L 185.893783 116.609797 
" style="fill:none;stroke:#33638d;stroke-width:1.5;"/>
    <path clip-path="url(#p48f4d1483d)" d="M 209.384821 123.69559 
L 210.780488 124.513151 
L 213.032444 126.314419 
L 222.684488 133.750401 
L 223.44951 135.184819 
L 225.458059 144.055219 
L 227.635584 152.925619 
L 228.095286 161.796019 
L 222.684488 164.152892 
L 210.780488 164.188805 
L 198.876488 164.961826 
L 186.972488 165.869345 
L 175.068488 166.459603 
L 163.164488 166.497307 
L 151.260488 166.138397 
L 139.356488 165.810986 
L 127.452488 165.757614 
L 115.548488 165.929915 
L 103.644488 166.210025 
L 91.740488 166.540693 
L 79.836488 166.872954 
L 67.932488 167.209303 
L 56.028488 167.550642 
" style="fill:none;stroke:#33638d;stroke-width:1.5;"/>
   </g>
   <g id="LineCollection_8">
    <path clip-path="url(#p48f4d1483d)" d="M 56.028488 108.690622 
L 59.516622 108.573619 
L 67.932488 108.520996 
L 79.836488 108.238917 
L 91.740488 107.402407 
L 103.644488 106.76108 
L 115.548488 106.842848 
L 127.452488 107.278994 
L 139.356488 107.857545 
L 151.260488 108.469542 
L 152.943952 108.573619 
L 163.164488 111.267804 
L 175.068488 113.58418 
L 186.972488 115.242655 
L 198.876488 116.677603 
L 201.290213 117.444019 
L 210.780488 123.058232 
L 214.851394 126.314419 
L 222.684488 132.349074 
L 224.196884 135.184819 
L 226.950485 144.055219 
L 230.412379 152.925619 
L 234.588488 161.29029 
L 234.66179 161.796019 
L 234.588488 162.909444 
L 222.684488 167.264146 
L 210.780488 166.712603 
L 198.876488 167.353579 
L 186.972488 168.419233 
L 175.068488 169.312026 
L 163.164488 169.638044 
L 151.260488 169.442267 
L 139.356488 169.224473 
L 127.452488 169.351753 
L 115.548488 169.793972 
L 104.331786 170.34698 
" style="fill:none;stroke:#2d718e;stroke-width:1.5;"/>
    <path clip-path="url(#p48f4d1483d)" d="M 79.141354 170.896242 
L 67.932488 171.030483 
L 56.028488 171.184554 
" style="fill:none;stroke:#2d718e;stroke-width:1.5;"/>
   </g>
   <g id="LineCollection_9">
    <path clip-path="url(#p48f4d1483d)" d="M 56.028488 107.5379 
L 67.932488 107.13806 
L 79.836488 106.199369 
L 91.740488 104.626899 
L 103.644488 104.126524 
L 115.548488 104.808255 
L 127.452488 105.76881 
L 139.356488 106.753473 
L 151.260488 107.676743 
L 163.164488 108.459509 
L 164.81071 108.573619 
L 174.632424 111.25296 
" style="fill:none;stroke:#287d8e;stroke-width:1.5;"/>
    <path clip-path="url(#p48f4d1483d)" d="M 199.364289 116.051575 
L 203.749611 117.444019 
L 210.780488 121.603313 
L 216.670343 126.314419 
L 222.684488 130.947746 
L 224.944259 135.184819 
L 228.44291 144.055219 
L 233.189173 152.925619 
L 234.588488 155.72842 
L 235.467947 161.796019 
L 235.577099 170.666419 
L 234.588488 171.441837 
L 225.104741 170.666419 
L 222.684488 170.375399 
L 210.780488 169.236401 
L 198.876488 169.745333 
L 189.777343 170.666419 
L 186.972488 170.795623 
L 175.068488 171.216797 
L 163.164488 171.352456 
L 151.260488 171.286765 
L 139.356488 171.221352 
L 127.452488 171.271739 
L 115.548488 171.417488 
L 103.644488 171.6016 
L 91.740488 171.797252 
L 79.836488 171.989483 
L 67.932488 172.194275 
L 56.028488 172.423833 
" style="fill:none;stroke:#287d8e;stroke-width:1.5;"/>
   </g>
   <g id="LineCollection_10">
    <path clip-path="url(#p48f4d1483d)" d="M 56.028488 106.485585 
L 67.932488 105.755123 
L 79.836488 104.159822 
L 91.740488 101.851391 
L 103.644488 101.491968 
L 115.548488 102.773662 
L 127.452488 104.258626 
L 139.356488 105.649401 
L 151.260488 106.883944 
L 163.164488 107.897386 
L 172.920241 108.573619 
L 174.801387 109.086791 
" style="fill:none;stroke:#238a8d;stroke-width:1.5;"/>
    <path clip-path="url(#p48f4d1483d)" d="M 199.236839 115.230189 
L 206.209008 117.444019 
L 210.780488 120.148394 
L 218.489292 126.314419 
L 222.684488 129.546418 
L 225.691633 135.184819 
L 229.935336 144.055219 
L 234.588488 151.708012 
L 234.762256 152.925619 
L 236.274105 161.796019 
L 238.274344 170.666419 
L 234.588488 173.557424 
L 222.684488 172.233691 
L 210.780488 171.253869 
L 198.876488 171.387588 
L 186.972488 171.884007 
L 175.068488 172.26478 
L 163.164488 172.372481 
L 151.260488 172.272257 
L 139.356488 172.182154 
L 127.452488 172.226171 
L 115.548488 172.387593 
L 103.644488 172.605513 
L 91.740488 172.845993 
L 79.836488 173.091048 
L 67.932488 173.358068 
L 56.028488 173.663112 
" style="fill:none;stroke:#238a8d;stroke-width:1.5;"/>
   </g>
   <g id="LineCollection_11">
    <path clip-path="url(#p48f4d1483d)" d="M 56.028488 105.433269 
L 67.932488 104.372187 
L 79.836488 102.120274 
L 89.833768 99.703219 
L 91.740488 99.649231 
L 103.644488 99.549997 
L 108.248043 99.703219 
L 115.548488 100.73907 
L 127.452488 102.748443 
L 139.356488 104.545328 
L 151.260488 106.091145 
L 162.511398 107.267007 
" style="fill:none;stroke:#1f968b;stroke-width:1.5;"/>
    <path clip-path="url(#p48f4d1483d)" d="M 187.320144 110.998456 
L 198.876488 114.334852 
L 208.668406 117.444019 
L 210.780488 118.693475 
L 220.308242 126.314419 
L 222.684488 128.145091 
L 226.439007 135.184819 
L 231.427761 144.055219 
L 234.588488 149.253498 
L 235.112548 152.925619 
L 237.080263 161.796019 
L 240.971589 170.666419 
L 234.588488 175.67301 
L 222.684488 173.96269 
L 210.780488 172.609355 
L 198.876488 172.56043 
L 186.972488 172.972391 
L 175.068488 173.312763 
L 163.164488 173.392506 
L 151.260488 173.257748 
L 139.356488 173.142955 
L 127.452488 173.180603 
L 115.548488 173.357698 
L 103.644488 173.609427 
L 91.740488 173.894733 
L 79.836488 174.192613 
L 67.932488 174.52186 
L 56.028488 174.902392 
" style="fill:none;stroke:#1f968b;stroke-width:1.5;"/>
   </g>
   <g id="LineCollection_12">
    <path clip-path="url(#p48f4d1483d)" d="M 56.028488 104.380954 
L 67.932488 102.989251 
L 79.836488 100.080727 
L 81.397915 99.703219 
L 91.740488 99.410376 
L 103.644488 99.072735 
L 115.548488 99.451503 
L 119.425146 99.703219 
L 127.452488 101.238259 
L 139.356488 103.441256 
L 151.260488 105.298346 
L 162.530122 106.694548 
" style="fill:none;stroke:#20a386;stroke-width:1.5;"/>
    <path clip-path="url(#p48f4d1483d)" d="M 187.493193 109.629414 
L 198.876488 113.553934 
L 210.780488 117.417456 
L 210.813947 117.444019 
L 222.127191 126.314419 
L 222.684488 126.743763 
L 227.186382 135.184819 
L 232.920187 144.055219 
L 234.588488 146.798985 
L 235.46284 152.925619 
L 237.886421 161.796019 
L 243.668833 170.666419 
L 234.588488 177.788596 
L 222.684488 175.691689 
L 210.780488 173.964841 
L 198.876488 173.733272 
L 186.972488 174.060775 
L 175.068488 174.360746 
L 163.164488 174.412531 
L 151.260488 174.24324 
L 139.356488 174.103757 
L 127.452488 174.135035 
L 115.548488 174.327803 
L 103.644488 174.61334 
L 91.740488 174.943474 
L 79.836488 175.294179 
L 67.932488 175.685653 
L 56.028488 176.141671 
" style="fill:none;stroke:#20a386;stroke-width:1.5;"/>
   </g>
   <g id="LineCollection_13">
    <path clip-path="url(#p48f4d1483d)" d="M 56.028488 103.328639 
L 67.932488 101.606314 
L 75.409059 99.703219 
L 79.836488 99.584503 
L 91.740488 99.171521 
L 103.644488 98.595472 
L 115.548488 98.938718 
L 127.322502 99.703219 
L 127.452488 99.728075 
L 139.356488 102.337184 
L 151.260488 104.505547 
L 163.164488 106.211017 
L 175.068488 107.57049 
L 186.972488 108.502888 
L 187.78689 108.573619 
L 198.876488 112.773017 
L 210.780488 117.229362 
L 211.050882 117.444019 
L 222.684488 126.190857 
L 222.829135 126.314419 
L 227.933756 135.184819 
L 234.412613 144.055219 
L 234.588488 144.344471 
L 235.813132 152.925619 
L 238.692578 161.796019 
L 246.366078 170.666419 
L 236.55874 179.536819 
L 234.588488 179.701999 
L 233.10941 179.536819 
L 222.684488 177.420688 
L 210.780488 175.320327 
L 198.876488 174.906114 
L 186.972488 175.149159 
L 175.068488 175.408729 
L 163.164488 175.432555 
L 151.260488 175.228731 
L 140.052395 175.074156 
" style="fill:none;stroke:#29af7f;stroke-width:1.5;"/>
    <path clip-path="url(#p48f4d1483d)" d="M 114.854562 175.316524 
L 103.644488 175.617253 
L 91.740488 175.992214 
L 79.836488 176.395744 
L 67.932488 176.849445 
L 56.028488 177.38095 
" style="fill:none;stroke:#29af7f;stroke-width:1.5;"/>
   </g>
   <g id="LineCollection_14">
    <path clip-path="url(#p48f4d1483d)" d="M 56.028488 102.276324 
L 67.932488 100.223378 
L 69.976004 99.703219 
L 79.836488 99.438822 
L 91.740488 98.932666 
L 103.644488 98.11821 
L 115.548488 98.425933 
L 127.452488 99.345743 
L 132.394221 99.703219 
L 139.356488 101.233112 
L 151.260488 103.712748 
L 163.164488 105.648894 
L 175.068488 107.203728 
L 186.972488 108.323786 
L 189.849104 108.573619 
L 198.876488 111.9921 
L 210.780488 117.041268 
L 211.287816 117.444019 
L 222.684488 126.012716 
L 223.037676 126.314419 
L 228.681131 135.184819 
L 234.588488 143.16462 
L 234.741781 144.055219 
L 236.163425 152.925619 
L 239.498736 161.796019 
L 246.492488 169.788334 
L 246.859189 170.666419 
L 246.634951 179.536819 
L 246.492488 179.625593 
L 234.588488 180.653243 
L 224.591657 179.536819 
L 222.684488 179.149687 
L 210.780488 176.675813 
L 198.876488 176.078956 
L 186.972488 176.237543 
L 175.068488 176.456712 
L 163.858101 176.452821 
" style="fill:none;stroke:#3dbc74;stroke-width:1.5;"/>
    <path clip-path="url(#p48f4d1483d)" d="M 138.661986 176.026441 
L 127.452488 176.0439 
L 115.548488 176.268013 
L 103.644488 176.621166 
L 91.740488 177.040955 
L 79.836488 177.49731 
L 67.932488 178.013238 
L 56.028488 178.620229 
" style="fill:none;stroke:#3dbc74;stroke-width:1.5;"/>
   </g>
   <g id="LineCollection_15">
    <path clip-path="url(#p48f4d1483d)" d="M 56.028488 101.224008 
L 64.34313 99.703219 
L 67.932488 99.631214 
L 79.836488 99.293141 
L 91.740488 98.693811 
L 103.644488 97.640948 
L 115.548488 97.913148 
L 127.452488 98.982286 
L 137.418654 99.703219 
L 139.356488 100.12904 
L 151.260488 102.919949 
L 162.605644 104.985048 
" style="fill:none;stroke:#56c667;stroke-width:1.5;"/>
    <path clip-path="url(#p48f4d1483d)" d="M 187.594531 108.198708 
L 191.911318 108.573619 
L 198.876488 111.211183 
L 210.780488 116.853175 
L 211.52475 117.444019 
L 222.684488 125.834575 
L 223.246217 126.314419 
L 229.428505 135.184819 
L 234.588488 142.155049 
L 234.915553 144.055219 
L 236.513717 152.925619 
L 240.304894 161.796019 
L 246.492488 168.867074 
L 247.243922 170.666419 
L 247.779254 179.536819 
L 246.492488 180.338653 
L 234.588488 181.604487 
L 222.684488 180.283501 
L 217.787984 179.536819 
L 210.780488 178.031299 
L 198.876488 177.251798 
L 186.972488 177.325927 
L 175.068488 177.504695 
L 163.164488 177.472605 
L 151.260488 177.199715 
L 139.356488 176.986161 
L 127.452488 176.998332 
L 115.548488 177.238118 
L 103.644488 177.62508 
L 91.740488 178.089695 
L 79.836488 178.598875 
L 67.932488 179.17703 
L 61.470845 179.536819 
L 56.028488 179.696331 
" style="fill:none;stroke:#56c667;stroke-width:1.5;"/>
   </g>
   <g id="LineCollection_16">
    <path clip-path="url(#p48f4d1483d)" d="M 56.028488 100.171693 
L 58.589786 99.703219 
L 67.932488 99.515798 
L 79.836488 99.14746 
L 91.740488 98.454956 
L 103.644488 97.163686 
L 115.548488 97.400363 
L 127.452488 98.618828 
L 139.356488 99.56298 
L 141.348136 99.703219 
L 151.260488 102.12715 
L 162.637019 104.418415 
" style="fill:none;stroke:#75d054;stroke-width:1.5;"/>
    <path clip-path="url(#p48f4d1483d)" d="M 187.572671 108.017707 
L 193.973531 108.573619 
L 198.876488 110.430265 
L 210.780488 116.665081 
L 211.761684 117.444019 
L 222.684488 125.656433 
L 223.454757 126.314419 
L 230.175879 135.184819 
L 234.588488 141.145477 
L 235.089324 144.055219 
L 236.864009 152.925619 
L 241.111051 161.796019 
L 246.492488 167.945813 
L 247.628654 170.666419 
L 248.923556 179.536819 
L 246.492488 181.051712 
L 234.588488 182.555731 
L 222.684488 181.245603 
L 211.478827 179.536819 
L 210.780488 179.386785 
L 198.876488 178.424639 
L 186.972488 178.414311 
L 175.068488 178.552678 
L 163.164488 178.49263 
L 151.260488 178.185206 
L 139.356488 177.946962 
L 127.452488 177.952764 
L 115.548488 178.208223 
L 103.644488 178.628993 
L 91.740488 179.138436 
L 83.182735 179.536819 
L 79.836488 179.619794 
L 67.932488 179.940027 
L 56.028488 180.308934 
" style="fill:none;stroke:#75d054;stroke-width:1.5;"/>
   </g>
   <g id="LineCollection_17">
    <path clip-path="url(#p48f4d1483d)" d="M 56.028488 99.646459 
L 67.932488 99.400383 
L 79.836488 99.001779 
L 91.740488 98.216101 
L 103.644488 96.686424 
L 115.548488 96.887578 
L 127.452488 98.25537 
L 139.356488 99.334697 
L 144.590183 99.703219 
L 151.260488 101.334351 
L 163.164488 103.962526 
L 174.499997 106.0012 
" style="fill:none;stroke:#95d840;stroke-width:1.5;"/>
    <path clip-path="url(#p48f4d1483d)" d="M 199.279872 109.880713 
L 210.780488 116.476987 
L 211.998618 117.444019 
L 222.684488 125.478292 
L 223.663298 126.314419 
L 230.923254 135.184819 
L 234.588488 140.135906 
L 235.263096 144.055219 
L 237.214301 152.925619 
L 241.917209 161.796019 
L 246.492488 167.024553 
L 248.013387 170.666419 
L 250.067859 179.536819 
L 246.492488 181.764772 
L 234.588488 183.506975 
L 222.684488 182.207705 
L 210.780488 180.261118 
L 198.876488 179.574037 
L 191.465096 179.536819 
L 186.972488 179.502695 
L 182.927667 179.536819 
L 175.068488 179.573849 
L 166.497436 179.536819 
L 163.164488 179.512655 
L 151.260488 179.170698 
L 139.356488 178.907764 
L 127.452488 178.907197 
L 115.548488 179.178327 
L 106.093415 179.536819 
L 103.644488 179.587464 
L 91.740488 179.872794 
L 79.836488 180.178418 
L 67.932488 180.523669 
L 56.028488 180.921537 
" style="fill:none;stroke:#95d840;stroke-width:1.5;"/>
   </g>
   <g id="LineCollection_18">
    <path clip-path="url(#p48f4d1483d)" d="M 56.028488 99.544156 
L 67.932488 99.284967 
L 79.836488 98.856099 
L 91.740488 97.977246 
L 103.644488 96.209161 
L 115.548488 96.374794 
L 127.452488 97.891912 
L 139.356488 99.106413 
L 147.832231 99.703219 
L 151.260488 100.541552 
L 163.164488 103.400403 
L 174.528874 105.630776 
" style="fill:none;stroke:#bade28;stroke-width:1.5;"/>
    <path clip-path="url(#p48f4d1483d)" d="M 199.385806 109.185919 
L 210.780488 116.288893 
L 212.235553 117.444019 
L 222.684488 125.300151 
L 223.871839 126.314419 
L 231.670628 135.184819 
L 234.588488 139.126334 
L 235.436867 144.055219 
L 237.564593 152.925619 
L 242.723367 161.796019 
L 246.492488 166.103293 
L 248.39812 170.666419 
L 251.212162 179.536819 
L 246.492488 182.477832 
L 234.588488 184.458219 
L 222.684488 183.169807 
L 210.780488 181.075566 
L 198.876488 180.293611 
L 186.972488 180.172344 
L 175.068488 180.181709 
L 163.164488 180.102701 
L 151.260488 179.888308 
L 139.356488 179.723511 
L 127.452488 179.716912 
L 115.548488 179.867262 
L 103.644488 180.116596 
L 91.740488 180.414575 
L 79.836488 180.737042 
L 67.932488 181.107311 
L 56.028488 181.53414 
" style="fill:none;stroke:#bade28;stroke-width:1.5;"/>
   </g>
   <g id="LineCollection_19">
    <path clip-path="url(#p48f4d1483d)" d="M 56.028488 99.441852 
L 67.932488 99.169552 
L 79.836488 98.710418 
L 91.740488 97.738391 
L 103.644488 95.731899 
L 115.548488 95.862009 
L 127.452488 97.528454 
L 139.356488 98.87813 
L 151.074279 99.703219 
L 151.260488 99.748753 
L 163.164488 102.83828 
L 174.560496 105.261883 
" style="fill:none;stroke:#dde318;stroke-width:1.5;"/>
    <path clip-path="url(#p48f4d1483d)" d="M 199.444396 108.821222 
L 210.780488 116.100799 
L 212.472487 117.444019 
L 222.684488 125.122009 
L 224.08038 126.314419 
L 232.418003 135.184819 
L 234.588488 138.116762 
L 235.610639 144.055219 
L 237.914885 152.925619 
L 243.529524 161.796019 
L 246.492488 165.182032 
L 248.782852 170.666419 
L 252.356464 179.536819 
L 246.492488 183.190891 
L 234.588488 185.409463 
L 222.684488 184.131909 
L 210.780488 181.890014 
L 198.876488 181.013185 
L 186.972488 180.82844 
L 175.068488 180.789568 
L 163.164488 180.682314 
L 151.260488 180.44757 
L 139.356488 180.264207 
L 127.452488 180.246104 
L 115.548488 180.391392 
L 103.644488 180.645729 
L 91.740488 180.956356 
L 79.836488 181.295666 
L 67.932488 181.690953 
L 56.028488 182.146743 
" style="fill:none;stroke:#dde318;stroke-width:1.5;"/>
   </g>
   <g id="LineCollection_20">
    <path clip-path="url(#p48f4d1483d)" d="M 56.028488 99.339549 
L 67.932488 99.054136 
L 79.836488 98.564737 
L 91.740488 97.499536 
L 103.644488 95.254637 
L 115.548488 95.349224 
L 127.452488 97.164997 
L 139.356488 98.649846 
L 151.260488 99.564953 
L 153.293242 99.703219 
L 163.164488 102.276157 
L 174.594791 104.894641 
" style="fill:none;stroke:#fde725;stroke-width:1.5;"/>
    <path clip-path="url(#p48f4d1483d)" d="M 199.475709 108.653236 
L 210.780488 115.912705 
L 212.709421 117.444019 
L 222.684488 124.943868 
L 224.288921 126.314419 
L 233.165377 135.184819 
L 234.588488 137.107191 
L 235.78441 144.055219 
L 238.265177 152.925619 
L 244.335682 161.796019 
L 246.492488 164.260772 
L 249.167585 170.666419 
L 253.500767 179.536819 
L 246.492488 183.903951 
L 234.588488 186.360707 
L 222.684488 185.094011 
L 210.780488 182.704462 
L 198.876488 181.732758 
L 186.972488 181.484536 
L 175.068488 181.397427 
L 163.164488 181.261927 
L 151.260488 181.006832 
L 139.356488 180.804903 
L 127.452488 180.775296 
L 115.548488 180.915522 
L 103.644488 181.174861 
L 91.740488 181.498137 
L 79.836488 181.85429 
L 67.932488 182.274595 
L 56.028488 182.759346 
" style="fill:none;stroke:#fde725;stroke-width:1.5;"/>
   </g>
   <g id="LineCollection_21">
    <path clip-path="url(#p48f4d1483d)" d="M 56.028488 99.237245 
L 67.932488 98.938721 
L 79.836488 98.419056 
L 91.740488 97.260682 
L 103.644488 94.777375 
L 115.548488 94.836439 
L 127.452488 96.801539 
L 139.356488 98.421563 
L 151.260488 99.418261 
L 155.449862 99.703219 
L 163.164488 101.714035 
L 175.068488 104.636394 
L 185.370288 106.742514 
" style="fill:none;stroke:#440154;stroke-width:1.5;"/>
    <path clip-path="url(#p48f4d1483d)" d="M 211.693554 116.449463 
L 212.946355 117.444019 
L 222.684488 124.765727 
L 224.497462 126.314419 
L 233.912751 135.184819 
L 234.588488 136.097619 
L 235.958182 144.055219 
L 238.615469 152.925619 
L 245.14184 161.796019 
L 246.492488 163.339511 
L 249.552317 170.666419 
L 254.64507 179.536819 
L 246.492488 184.61701 
L 234.588488 187.311951 
L 222.684488 186.056113 
L 210.780488 183.51891 
L 198.876488 182.452332 
L 186.972488 182.140632 
L 175.068488 182.005287 
L 163.164488 181.841539 
L 151.260488 181.566094 
L 139.356488 181.345599 
L 127.452488 181.304488 
L 115.548488 181.439652 
L 103.644488 181.703994 
L 91.740488 182.039918 
L 79.836488 182.412914 
L 67.932488 182.858237 
L 56.028488 183.371949 
" style="fill:none;stroke:#440154;stroke-width:1.5;"/>
   </g>
   <g id="LineCollection_22">
    <path clip-path="url(#p48f4d1483d)" d="M 56.028488 86.358492 
L 67.932488 85.396566 
L 79.836488 83.457722 
L 85.533555 81.962419 
L 91.740488 81.418422 
L 103.644488 81.236607 
L 115.548488 81.733874 
L 119.9865 81.962419 
L 127.452488 83.921938 
L 139.356488 86.536421 
L 151.260488 88.543223 
L 163.164488 90.183434 
L 169.968871 90.832819 
L 175.068488 93.119936 
L 186.972488 97.959128 
L 198.876488 99.540622 
L 199.896327 99.703219 
L 210.780488 106.416357 
L 215.239801 108.573619 
L 222.684488 114.166596 
L 227.414601 117.444019 
L 234.588488 122.90355 
L 237.426095 126.314419 
L 246.492488 134.904112 
L 246.571711 135.184819 
L 248.723757 144.055219 
L 254.772636 152.925619 
L 258.396488 156.82011 
L 260.288657 161.796019 
L 268.652818 170.666419 
L 270.300488 172.257514 
L 273.483133 179.536819 
L 276.90583 188.407219 
L 270.300488 194.364264 
L 266.006078 197.277619 
L 258.396488 200.783775 
L 249.296156 206.148019 
L 246.492488 207.026745 
L 234.588488 210.763573 
L 222.684488 213.832011 
L 210.780488 214.553152 
L 198.876488 213.753555 
L 186.972488 213.183129 
L 175.068488 213.257374 
L 163.164488 213.882538 
L 151.260488 214.888752 
L 149.657652 215.018419 
L 139.356488 215.35659 
L 127.452488 215.727455 
L 115.548488 215.97403 
L 103.644488 216.075656 
L 96.024481 216.219461 
" style="fill:none;stroke:#440154;stroke-width:1.5;"/>
    <path clip-path="url(#p48f4d1483d)" d="M 63.693882 218.166588 
L 56.028488 218.961007 
" style="fill:none;stroke:#440154;stroke-width:1.5;"/>
   </g>
   <g id="LineCollection_23">
    <path clip-path="url(#p48f4d1483d)" d="M 56.028488 64.087468 
L 61.847754 64.221619 
L 67.932488 64.97268 
L 79.836488 67.586151 
L 91.740488 69.684541 
L 103.644488 71.171368 
L 115.548488 72.229384 
L 127.452488 72.94855 
L 129.940976 73.092019 
L 139.356488 75.808948 
L 151.260488 79.279076 
L 163.164488 81.376336 
L 167.240756 81.962419 
L 175.068488 86.180725 
L 186.972488 89.676621 
L 195.866635 90.832819 
L 198.876488 92.471065 
L 206.584761 95.976834 
" style="fill:none;stroke:#440154;stroke-width:1.5;"/>
    <path clip-path="url(#p48f4d1483d)" d="M 237.655363 113.518538 
L 242.23772 117.444019 
L 246.492488 120.908436 
L 249.015736 126.314419 
L 256.948779 135.184819 
L 258.396488 136.637295 
L 260.506866 144.055219 
L 269.084008 152.925619 
L 270.300488 154.06721 
L 273.167425 161.796019 
L 282.204488 169.966357 
L 282.442244 170.666419 
L 285.693203 179.536819 
L 294.108488 187.90778 
L 294.245959 188.407219 
L 294.522272 197.277619 
L 294.108488 197.712395 
L 282.204488 203.610465 
L 278.13156 206.148019 
L 270.300488 209.204734 
L 261.179845 215.018419 
L 258.396488 215.96611 
L 246.492488 220.055734 
L 238.619599 223.888819 
L 234.588488 224.513968 
L 222.684488 225.703061 
L 210.780488 226.878655 
L 198.876488 227.716272 
L 186.972488 228.258752 
L 175.068488 228.258544 
L 163.164488 229.064498 
L 151.260488 231.017732 
L 144.39732 232.759219 
L 139.356488 233.06623 
L 127.452488 234.084519 
L 115.548488 235.78598 
L 103.644488 238.684072 
L 95.465516 241.629619 
L 91.740488 241.982214 
L 79.836488 243.251765 
L 67.932488 245.062524 
L 56.028488 247.798229 
" style="fill:none;stroke:#440154;stroke-width:1.5;"/>
   </g>
   <g id="LineCollection_24">
    <path clip-path="url(#p48f4d1483d)" d="M 56.028488 54.05141 
L 67.932488 54.881139 
L 77.50047 55.351219 
L 79.836488 55.973995 
L 91.740488 58.991042 
L 103.644488 61.110332 
L 115.548488 62.57665 
L 127.452488 63.59262 
L 136.764071 64.221619 
L 139.356488 65.043049 
L 151.260488 69.899996 
L 163.164488 72.483514 
L 166.463101 73.092019 
L 175.068488 77.554525 
L 186.972488 80.778511 
L 194.978148 81.962419 
L 198.876488 83.85234 
L 210.780488 88.751275 
L 219.580812 90.832819 
L 222.684488 92.707564 
L 234.588488 99.303925 
L 235.222074 99.703219 
L 246.492488 108.037552 
L 246.989152 108.573619 
L 255.32942 117.444019 
L 258.396488 120.245146 
L 260.33214 126.314419 
L 266.849238 135.184819 
L 270.300488 138.516339 
L 271.940508 144.055219 
L 279.5561 152.925619 
L 282.204488 155.317816 
L 284.483946 161.796019 
L 294.108488 170.61773 
L 294.124105 170.666419 
L 296.554256 179.536819 
L 305.833973 188.407219 
L 306.012488 188.634717 
L 307.519151 197.277619 
L 306.012488 203.519681 
L 302.946009 206.148019 
L 294.108488 209.84751 
L 285.748838 215.018419 
L 282.204488 216.343112 
L 270.300488 223.638574 
L 269.884107 223.888819 
L 258.396488 227.010568 
L 247.07194 232.759219 
L 246.492488 232.857123 
L 234.588488 234.486003 
L 222.684488 235.918027 
L 210.780488 237.701717 
L 198.876488 239.911086 
L 188.58271 241.629619 
L 186.972488 241.682677 
L 175.068488 241.650212 
L 163.164488 242.004885 
L 151.260488 242.713278 
L 139.356488 243.911526 
L 127.452488 245.887666 
L 115.548488 249.053858 
L 110.980714 250.500019 
L 103.644488 251.137953 
L 91.740488 252.583782 
L 85.426808 253.83862 
" style="fill:none;stroke:#440154;stroke-width:1.5;"/>
   </g>
   <g id="LineCollection_25">
    <path clip-path="url(#p48f4d1483d)" d="M 56.028488 44.715927 
L 62.49744 45.24187 
" style="fill:none;stroke:#440154;stroke-width:1.5;"/>
    <path clip-path="url(#p48f4d1483d)" d="M 105.065688 51.453787 
L 115.548488 52.991519 
L 127.452488 54.14688 
L 139.356488 55.15364 
L 141.266613 55.351219 
L 151.260488 59.627785 
L 163.164488 62.82885 
L 170.951387 64.221619 
L 175.068488 66.28188 
L 186.972488 70.818919 
L 198.876488 72.974559 
L 199.523045 73.092019 
L 210.780488 78.737295 
L 222.684488 81.745613 
L 223.343116 81.962419 
L 234.588488 89.178177 
L 237.480122 90.832819 
L 246.492488 97.338821 
L 248.980647 99.703219 
L 258.396488 107.172589 
L 259.330862 108.573619 
L 266.583793 117.444019 
L 270.300488 121.080726 
L 271.75847 126.314419 
L 277.244086 135.184819 
L 282.204488 139.986033 
L 283.36775 144.055219 
L 289.26819 152.925619 
L 294.108488 157.325918 
L 295.677785 161.796019 
L 302.868744 170.666419 
L 306.012488 173.704441 
L 307.639791 179.536819 
L 314.989622 188.407219 
L 317.916488 191.54029 
L 319.269549 197.277619 
L 319.750695 206.148019 
L 317.916488 208.493037 
L 308.653195 215.018419 
L 306.012488 216.149177 
L 294.108488 223.81087 
L 293.984754 223.888819 
L 282.204488 227.979457 
L 274.41595 232.759219 
L 270.300488 234.000074 
L 258.396488 238.443733 
L 251.864747 241.629619 
L 246.492488 242.467778 
L 234.588488 244.709864 
L 222.684488 246.897867 
L 210.780488 250.038136 
L 209.16034 250.500019 
L 198.876488 251.234313 
L 186.972488 251.616614 
L 175.068488 251.836028 
L 163.164488 252.570426 
L 151.260488 253.90548 
L 139.356488 256.116367 
L 128.160016 259.370419 
L 127.452488 259.423648 
L 115.548488 260.438177 
L 103.644488 262.098984 
L 91.740488 264.888243 
L 82.380574 268.240819 
L 79.836488 268.515595 
L 67.932488 270.103235 
L 56.028488 273.059734 
" style="fill:none;stroke:#440154;stroke-width:1.5;"/>
   </g>
   <g id="LineCollection_26">
    <path clip-path="url(#p48f4d1483d)" d="M 56.028488 35.953834 
L 67.932488 36.828453 
L 79.836488 37.407813 
L 84.935778 37.610419 
L 91.740488 39.54012 
L 103.644488 42.155544 
L 115.548488 43.823934 
L 127.452488 44.878867 
L 139.356488 46.019976 
L 145.059131 46.480819 
L 151.260488 48.98048 
L 163.164488 52.688145 
L 175.068488 54.852952 
L 178.085559 55.351219 
L 186.972488 59.695912 
L 198.876488 63.221339 
L 204.119709 64.221619 
L 210.780488 67.623107 
L 222.684488 72.08229 
L 225.946898 73.092019 
L 234.588488 78.460896 
L 241.736459 81.962419 
L 246.492488 85.325062 
L 252.860258 90.832819 
L 254.775677 92.321825 
" style="fill:none;stroke:#450457;stroke-width:1.5;"/>
    <path clip-path="url(#p48f4d1483d)" d="M 284.023212 127.768406 
L 287.864156 135.184819 
L 294.108488 141.298158 
L 294.872814 144.055219 
L 299.573555 152.925619 
L 306.012488 158.822507 
L 307.050952 161.796019 
L 312.700069 170.666419 
L 317.916488 175.734595 
L 319.016268 179.536819 
L 324.802812 188.407219 
L 329.820488 193.449606 
L 330.840363 197.277619 
L 332.445888 206.148019 
L 330.291887 215.018419 
L 329.820488 215.390137 
L 317.916488 222.045794 
L 315.09593 223.888819 
L 306.012488 227.511965 
L 297.750378 232.759219 
L 294.108488 234.014613 
L 282.204488 240.754688 
L 280.741135 241.629619 
L 270.300488 244.433844 
L 258.591084 250.500019 
L 258.396488 250.538528 
L 246.492488 252.531116 
L 234.588488 256.129326 
L 224.464839 259.370419 
L 222.684488 259.531275 
L 210.780488 260.506776 
L 198.876488 261.831959 
L 186.972488 262.411683 
L 175.068488 262.889297 
L 163.164488 264.217203 
L 151.260488 266.582045 
L 145.168576 268.240819 
L 139.356488 268.645937 
L 127.452488 269.787735 
L 115.548488 271.646111 
L 103.644488 274.724472 
L 96.750648 277.111219 
" style="fill:none;stroke:#450457;stroke-width:1.5;"/>
   </g>
   <g id="LineCollection_27">
    <path clip-path="url(#p48f4d1483d)" d="M 56.028488 27.380166 
L 67.932488 28.114478 
L 79.836488 28.614304 
L 83.240803 28.740019 
L 91.740488 31.026936 
L 103.644488 33.387195 
L 115.548488 34.922405 
L 127.452488 35.936063 
L 139.356488 37.06922 
L 147.390668 37.610419 
L 151.260488 39.069596 
L 163.164488 42.952426 
L 175.068488 45.263905 
L 184.295402 46.480819 
L 186.972488 47.800195 
L 198.876488 53.299933 
L 210.631378 55.351219 
L 210.780488 55.429796 
L 222.684488 62.289697 
L 229.864569 64.221619 
L 234.588488 67.136781 
L 246.492488 72.871384 
L 246.869017 73.092019 
L 258.396488 81.716278 
L 258.616451 81.962419 
L 266.159093 90.369374 
" style="fill:none;stroke:#482475;stroke-width:1.5;"/>
    <path clip-path="url(#p48f4d1483d)" d="M 296.271826 129.608855 
L 298.706045 135.184819 
L 306.012488 142.41066 
L 306.457074 144.055219 
L 310.315791 152.925619 
L 317.916488 159.926564 
L 318.564205 161.796019 
L 323.295859 170.666419 
L 329.820488 177.014094 
L 330.562233 179.536819 
L 335.028547 188.407219 
L 341.724488 194.934946 
L 342.355326 197.277619 
L 344.030564 206.148019 
L 344.181935 215.018419 
L 341.724488 219.460483 
L 335.880836 223.888819 
L 329.820488 226.598305 
L 320.322812 232.759219 
L 317.916488 233.665249 
L 306.012488 240.061374 
L 303.501377 241.629619 
L 294.108488 244.700848 
L 284.58163 250.500019 
L 282.204488 251.244053 
L 270.300488 255.719363 
L 263.292171 259.370419 
L 258.396488 260.43226 
L 246.492488 263.825658 
L 236.585194 268.240819 
L 234.588488 268.539674 
L 222.684488 269.984847 
L 210.780488 271.710941 
L 198.876488 273.764361 
L 186.972488 274.893876 
L 175.068488 275.994838 
L 168.836344 277.111219 
" style="fill:none;stroke:#482475;stroke-width:1.5;"/>
   </g>
   <g id="LineCollection_28">
    <path clip-path="url(#p48f4d1483d)" d="M 56.028488 18.725292 
L 67.932488 19.368891 
L 79.836488 19.816961 
L 81.320149 19.869619 
L 91.740488 22.510249 
L 103.644488 24.651274 
L 115.548488 26.068197 
L 127.452488 27.124768 
L 139.356488 28.202645 
L 148.046029 28.740019 
L 151.260488 29.886466 
L 163.164488 33.672889 
L 175.068488 36.304941 
L 185.863769 37.610419 
L 186.972488 38.174669 
L 198.876488 44.001844 
L 210.780488 46.297439 
L 211.730125 46.480819 
L 222.684488 52.797858 
L 232.517525 55.351219 
L 234.588488 56.628193 
L 246.492488 63.417106 
L 248.266984 64.221619 
L 258.396488 71.458357 
L 260.243727 73.092019 
L 270.300488 81.097746 
L 270.963299 81.962419 
L 279.564823 90.832819 
L 282.204488 93.042656 
L 283.769613 95.807785 
" style="fill:none;stroke:#fde725;stroke-width:1.5;"/>
    <path clip-path="url(#p48f4d1483d)" d="M 313.801387 139.272865 
L 317.916488 143.359617 
L 318.10235 144.055219 
L 321.31314 152.925619 
L 329.820488 160.788419 
L 330.171855 161.796019 
L 334.225754 170.666419 
L 341.724488 177.950404 
L 342.203398 179.536819 
L 345.714912 188.407219 
L 353.628488 196.231025 
L 353.882067 197.277619 
L 355.374696 206.148019 
L 356.511079 215.018419 
L 354.49994 223.888819 
L 353.628488 224.900365 
L 342.560611 232.759219 
L 341.724488 233.093593 
L 329.820488 238.562434 
L 325.039012 241.629619 
L 317.916488 244.209601 
L 307.835658 250.500019 
L 306.012488 251.153954 
L 294.108488 256.617301 
L 289.564762 259.370419 
L 282.204488 261.796722 
L 270.982148 268.240819 
L 270.300488 268.433647 
L 258.396488 271.373381 
L 246.501457 277.111219 
" style="fill:none;stroke:#fde725;stroke-width:1.5;"/>
   </g>
   <g id="line2d_20">
    <path clip-path="url(#p48f4d1483d)" d="M 427.710987 169.942137 
L 420.061957 170.16417 
L 410.160499 170.410752 
L 400.428982 170.463883 
L 390.861486 170.314407 
L 381.479354 170.084044 
L 372.245955 169.674242 
L 363.206171 169.314377 
L 354.303373 168.806368 
L 345.565778 168.08078 
L 336.951441 167.383289 
L 328.515475 166.427714 
L 320.214953 165.3198 
L 312.106629 164.309307 
L 304.112254 163.118092 
L 296.279812 161.766882 
L 288.631069 160.548454 
L 281.033889 159.219829 
L 273.683298 157.763719 
L 266.421635 156.406049 
L 259.272124 154.820704 
L 252.287743 153.343398 
L 245.410055 151.705744 
L 238.664236 149.82926 
L 232.100982 148.256295 
L 231.439581 148.165976 
L 230.775802 148.029288 
L 230.122604 147.860662 
L 229.472739 147.669307 
L 228.824679 147.508219 
L 228.178975 147.329282 
L 227.538019 147.166187 
L 226.898742 146.995666 
L 226.263292 146.841248 
L 225.630626 146.674998 
L 224.99228 146.489031 
L 224.364879 146.317751 
L 223.738762 146.1637 
L 223.10265 146.012218 
L 222.478031 145.844526 
L 221.854706 145.716137 
L 221.223931 145.557647 
L 220.599167 145.425275 
L 219.97723 145.240753 
L 219.357705 145.097186 
L 218.746556 144.963033 
L 218.125864 144.817258 
L 217.516805 144.68251 
L 216.896864 144.529112 
L 216.282003 144.372916 
L 216.21994 144.361569 
L 216.15852 144.350083 
L 216.097606 144.335079 
L 216.035689 144.324927 
L 215.975243 144.310742 
L 215.913865 144.297026 
L 215.852278 144.284967 
L 215.790701 144.269286 
L 215.729394 144.256862 
L 215.667811 144.248039 
L 215.606494 144.232624 
L 215.545479 144.219575 
L 215.483463 144.205503 
L 215.421351 144.196755 
L 215.359003 144.183203 
L 215.300038 144.171079 
L 215.239397 144.156917 
L 215.177483 144.142116 
L 215.116331 144.132176 
L 215.055159 144.118722 
L 214.994755 144.106465 
L 214.933507 144.093236 
L 214.872095 144.080646 
L 214.810008 144.06704 
" style="fill:none;stroke:#1f77b4;stroke-linecap:square;stroke-width:1.5;"/>
    <defs>
     <path d="M 0 1.5 
C 0.397805 1.5 0.77937 1.341951 1.06066 1.06066 
C 1.341951 0.77937 1.5 0.397805 1.5 0 
C 1.5 -0.397805 1.341951 -0.77937 1.06066 -1.06066 
C 0.77937 -1.341951 0.397805 -1.5 0 -1.5 
C -0.397805 -1.5 -0.77937 -1.341951 -1.06066 -1.06066 
C -1.341951 -0.77937 -1.5 -0.397805 -1.5 0 
C -1.5 0.397805 -1.341951 0.77937 -1.06066 1.06066 
C -0.77937 1.341951 -0.397805 1.5 0 1.5 
z
" id="mea5a9d3e33" style="stroke:#1f77b4;"/>
    </defs>
    <g clip-path="url(#p48f4d1483d)">
     <use style="fill:#1f77b4;stroke:#1f77b4;" x="710.450688" xlink:href="#mea5a9d3e33" y="120.215445"/>
     <use style="fill:#1f77b4;stroke:#1f77b4;" x="731.621962" xlink:href="#mea5a9d3e33" y="127.395079"/>
     <use style="fill:#1f77b4;stroke:#1f77b4;" x="717.269961" xlink:href="#mea5a9d3e33" y="130.082634"/>
     <use style="fill:#1f77b4;stroke:#1f77b4;" x="702.327204" xlink:href="#mea5a9d3e33" y="132.57459"/>
     <use style="fill:#1f77b4;stroke:#1f77b4;" x="687.668715" xlink:href="#mea5a9d3e33" y="134.736192"/>
     <use style="fill:#1f77b4;stroke:#1f77b4;" x="673.285684" xlink:href="#mea5a9d3e33" y="136.651847"/>
     <use style="fill:#1f77b4;stroke:#1f77b4;" x="659.120742" xlink:href="#mea5a9d3e33" y="138.49963"/>
     <use style="fill:#1f77b4;stroke:#1f77b4;" x="645.206465" xlink:href="#mea5a9d3e33" y="140.375309"/>
     <use style="fill:#1f77b4;stroke:#1f77b4;" x="631.505646" xlink:href="#mea5a9d3e33" y="142.397866"/>
     <use style="fill:#1f77b4;stroke:#1f77b4;" x="618.024157" xlink:href="#mea5a9d3e33" y="144.463416"/>
     <use style="fill:#1f77b4;stroke:#1f77b4;" x="604.761788" xlink:href="#mea5a9d3e33" y="146.618555"/>
     <use style="fill:#1f77b4;stroke:#1f77b4;" x="591.72202" xlink:href="#mea5a9d3e33" y="148.688197"/>
     <use style="fill:#1f77b4;stroke:#1f77b4;" x="578.900946" xlink:href="#mea5a9d3e33" y="150.742809"/>
     <use style="fill:#1f77b4;stroke:#1f77b4;" x="566.283644" xlink:href="#mea5a9d3e33" y="152.809621"/>
     <use style="fill:#1f77b4;stroke:#1f77b4;" x="553.909043" xlink:href="#mea5a9d3e33" y="154.744847"/>
     <use style="fill:#1f77b4;stroke:#1f77b4;" x="541.671975" xlink:href="#mea5a9d3e33" y="156.791465"/>
     <use style="fill:#1f77b4;stroke:#1f77b4;" x="529.6767" xlink:href="#mea5a9d3e33" y="158.652845"/>
     <use style="fill:#1f77b4;stroke:#1f77b4;" x="517.807333" xlink:href="#mea5a9d3e33" y="160.709569"/>
     <use style="fill:#1f77b4;stroke:#1f77b4;" x="506.167802" xlink:href="#mea5a9d3e33" y="162.415066"/>
     <use style="fill:#1f77b4;stroke:#1f77b4;" x="494.705643" xlink:href="#mea5a9d3e33" y="164.181232"/>
     <use style="fill:#1f77b4;stroke:#1f77b4;" x="483.450826" xlink:href="#mea5a9d3e33" y="165.692439"/>
     <use style="fill:#1f77b4;stroke:#1f77b4;" x="472.383705" xlink:href="#mea5a9d3e33" y="166.974604"/>
     <use style="fill:#1f77b4;stroke:#1f77b4;" x="461.555321" xlink:href="#mea5a9d3e33" y="167.958638"/>
     <use style="fill:#1f77b4;stroke:#1f77b4;" x="450.916962" xlink:href="#mea5a9d3e33" y="168.772932"/>
     <use style="fill:#1f77b4;stroke:#1f77b4;" x="440.46866" xlink:href="#mea5a9d3e33" y="169.373785"/>
     <use style="fill:#1f77b4;stroke:#1f77b4;" x="430.160222" xlink:href="#mea5a9d3e33" y="169.871042"/>
     <use style="fill:#1f77b4;stroke:#1f77b4;" x="420.061957" xlink:href="#mea5a9d3e33" y="170.16417"/>
     <use style="fill:#1f77b4;stroke:#1f77b4;" x="410.160499" xlink:href="#mea5a9d3e33" y="170.410752"/>
     <use style="fill:#1f77b4;stroke:#1f77b4;" x="400.428982" xlink:href="#mea5a9d3e33" y="170.463883"/>
     <use style="fill:#1f77b4;stroke:#1f77b4;" x="390.861486" xlink:href="#mea5a9d3e33" y="170.314407"/>
     <use style="fill:#1f77b4;stroke:#1f77b4;" x="381.479354" xlink:href="#mea5a9d3e33" y="170.084044"/>
     <use style="fill:#1f77b4;stroke:#1f77b4;" x="372.245955" xlink:href="#mea5a9d3e33" y="169.674242"/>
     <use style="fill:#1f77b4;stroke:#1f77b4;" x="363.206171" xlink:href="#mea5a9d3e33" y="169.314377"/>
     <use style="fill:#1f77b4;stroke:#1f77b4;" x="354.303373" xlink:href="#mea5a9d3e33" y="168.806368"/>
     <use style="fill:#1f77b4;stroke:#1f77b4;" x="345.565778" xlink:href="#mea5a9d3e33" y="168.08078"/>
     <use style="fill:#1f77b4;stroke:#1f77b4;" x="336.951441" xlink:href="#mea5a9d3e33" y="167.383289"/>
     <use style="fill:#1f77b4;stroke:#1f77b4;" x="328.515475" xlink:href="#mea5a9d3e33" y="166.427714"/>
     <use style="fill:#1f77b4;stroke:#1f77b4;" x="320.214953" xlink:href="#mea5a9d3e33" y="165.3198"/>
     <use style="fill:#1f77b4;stroke:#1f77b4;" x="312.106629" xlink:href="#mea5a9d3e33" y="164.309307"/>
     <use style="fill:#1f77b4;stroke:#1f77b4;" x="304.112254" xlink:href="#mea5a9d3e33" y="163.118092"/>
     <use style="fill:#1f77b4;stroke:#1f77b4;" x="296.279812" xlink:href="#mea5a9d3e33" y="161.766882"/>
     <use style="fill:#1f77b4;stroke:#1f77b4;" x="288.631069" xlink:href="#mea5a9d3e33" y="160.548454"/>
     <use style="fill:#1f77b4;stroke:#1f77b4;" x="281.033889" xlink:href="#mea5a9d3e33" y="159.219829"/>
     <use style="fill:#1f77b4;stroke:#1f77b4;" x="273.683298" xlink:href="#mea5a9d3e33" y="157.763719"/>
     <use style="fill:#1f77b4;stroke:#1f77b4;" x="266.421635" xlink:href="#mea5a9d3e33" y="156.406049"/>
     <use style="fill:#1f77b4;stroke:#1f77b4;" x="259.272124" xlink:href="#mea5a9d3e33" y="154.820704"/>
     <use style="fill:#1f77b4;stroke:#1f77b4;" x="252.287743" xlink:href="#mea5a9d3e33" y="153.343398"/>
     <use style="fill:#1f77b4;stroke:#1f77b4;" x="245.410055" xlink:href="#mea5a9d3e33" y="151.705744"/>
     <use style="fill:#1f77b4;stroke:#1f77b4;" x="238.664236" xlink:href="#mea5a9d3e33" y="149.82926"/>
     <use style="fill:#1f77b4;stroke:#1f77b4;" x="232.100982" xlink:href="#mea5a9d3e33" y="148.256295"/>
     <use style="fill:#1f77b4;stroke:#1f77b4;" x="231.439581" xlink:href="#mea5a9d3e33" y="148.165976"/>
     <use style="fill:#1f77b4;stroke:#1f77b4;" x="230.775802" xlink:href="#mea5a9d3e33" y="148.029288"/>
     <use style="fill:#1f77b4;stroke:#1f77b4;" x="230.122604" xlink:href="#mea5a9d3e33" y="147.860662"/>
     <use style="fill:#1f77b4;stroke:#1f77b4;" x="229.472739" xlink:href="#mea5a9d3e33" y="147.669307"/>
     <use style="fill:#1f77b4;stroke:#1f77b4;" x="228.824679" xlink:href="#mea5a9d3e33" y="147.508219"/>
     <use style="fill:#1f77b4;stroke:#1f77b4;" x="228.178975" xlink:href="#mea5a9d3e33" y="147.329282"/>
     <use style="fill:#1f77b4;stroke:#1f77b4;" x="227.538019" xlink:href="#mea5a9d3e33" y="147.166187"/>
     <use style="fill:#1f77b4;stroke:#1f77b4;" x="226.898742" xlink:href="#mea5a9d3e33" y="146.995666"/>
     <use style="fill:#1f77b4;stroke:#1f77b4;" x="226.263292" xlink:href="#mea5a9d3e33" y="146.841248"/>
     <use style="fill:#1f77b4;stroke:#1f77b4;" x="225.630626" xlink:href="#mea5a9d3e33" y="146.674998"/>
     <use style="fill:#1f77b4;stroke:#1f77b4;" x="224.99228" xlink:href="#mea5a9d3e33" y="146.489031"/>
     <use style="fill:#1f77b4;stroke:#1f77b4;" x="224.364879" xlink:href="#mea5a9d3e33" y="146.317751"/>
     <use style="fill:#1f77b4;stroke:#1f77b4;" x="223.738762" xlink:href="#mea5a9d3e33" y="146.1637"/>
     <use style="fill:#1f77b4;stroke:#1f77b4;" x="223.10265" xlink:href="#mea5a9d3e33" y="146.012218"/>
     <use style="fill:#1f77b4;stroke:#1f77b4;" x="222.478031" xlink:href="#mea5a9d3e33" y="145.844526"/>
     <use style="fill:#1f77b4;stroke:#1f77b4;" x="221.854706" xlink:href="#mea5a9d3e33" y="145.716137"/>
     <use style="fill:#1f77b4;stroke:#1f77b4;" x="221.223931" xlink:href="#mea5a9d3e33" y="145.557647"/>
     <use style="fill:#1f77b4;stroke:#1f77b4;" x="220.599167" xlink:href="#mea5a9d3e33" y="145.425275"/>
     <use style="fill:#1f77b4;stroke:#1f77b4;" x="219.97723" xlink:href="#mea5a9d3e33" y="145.240753"/>
     <use style="fill:#1f77b4;stroke:#1f77b4;" x="219.357705" xlink:href="#mea5a9d3e33" y="145.097186"/>
     <use style="fill:#1f77b4;stroke:#1f77b4;" x="218.746556" xlink:href="#mea5a9d3e33" y="144.963033"/>
     <use style="fill:#1f77b4;stroke:#1f77b4;" x="218.125864" xlink:href="#mea5a9d3e33" y="144.817258"/>
     <use style="fill:#1f77b4;stroke:#1f77b4;" x="217.516805" xlink:href="#mea5a9d3e33" y="144.68251"/>
     <use style="fill:#1f77b4;stroke:#1f77b4;" x="216.896864" xlink:href="#mea5a9d3e33" y="144.529112"/>
     <use style="fill:#1f77b4;stroke:#1f77b4;" x="216.282003" xlink:href="#mea5a9d3e33" y="144.372916"/>
     <use style="fill:#1f77b4;stroke:#1f77b4;" x="216.21994" xlink:href="#mea5a9d3e33" y="144.361569"/>
     <use style="fill:#1f77b4;stroke:#1f77b4;" x="216.15852" xlink:href="#mea5a9d3e33" y="144.350083"/>
     <use style="fill:#1f77b4;stroke:#1f77b4;" x="216.097606" xlink:href="#mea5a9d3e33" y="144.335079"/>
     <use style="fill:#1f77b4;stroke:#1f77b4;" x="216.035689" xlink:href="#mea5a9d3e33" y="144.324927"/>
     <use style="fill:#1f77b4;stroke:#1f77b4;" x="215.975243" xlink:href="#mea5a9d3e33" y="144.310742"/>
     <use style="fill:#1f77b4;stroke:#1f77b4;" x="215.913865" xlink:href="#mea5a9d3e33" y="144.297026"/>
     <use style="fill:#1f77b4;stroke:#1f77b4;" x="215.852278" xlink:href="#mea5a9d3e33" y="144.284967"/>
     <use style="fill:#1f77b4;stroke:#1f77b4;" x="215.790701" xlink:href="#mea5a9d3e33" y="144.269286"/>
     <use style="fill:#1f77b4;stroke:#1f77b4;" x="215.729394" xlink:href="#mea5a9d3e33" y="144.256862"/>
     <use style="fill:#1f77b4;stroke:#1f77b4;" x="215.667811" xlink:href="#mea5a9d3e33" y="144.248039"/>
     <use style="fill:#1f77b4;stroke:#1f77b4;" x="215.606494" xlink:href="#mea5a9d3e33" y="144.232624"/>
     <use style="fill:#1f77b4;stroke:#1f77b4;" x="215.545479" xlink:href="#mea5a9d3e33" y="144.219575"/>
     <use style="fill:#1f77b4;stroke:#1f77b4;" x="215.483463" xlink:href="#mea5a9d3e33" y="144.205503"/>
     <use style="fill:#1f77b4;stroke:#1f77b4;" x="215.421351" xlink:href="#mea5a9d3e33" y="144.196755"/>
     <use style="fill:#1f77b4;stroke:#1f77b4;" x="215.359003" xlink:href="#mea5a9d3e33" y="144.183203"/>
     <use style="fill:#1f77b4;stroke:#1f77b4;" x="215.300038" xlink:href="#mea5a9d3e33" y="144.171079"/>
     <use style="fill:#1f77b4;stroke:#1f77b4;" x="215.239397" xlink:href="#mea5a9d3e33" y="144.156917"/>
     <use style="fill:#1f77b4;stroke:#1f77b4;" x="215.177483" xlink:href="#mea5a9d3e33" y="144.142116"/>
     <use style="fill:#1f77b4;stroke:#1f77b4;" x="215.116331" xlink:href="#mea5a9d3e33" y="144.132176"/>
     <use style="fill:#1f77b4;stroke:#1f77b4;" x="215.055159" xlink:href="#mea5a9d3e33" y="144.118722"/>
     <use style="fill:#1f77b4;stroke:#1f77b4;" x="214.994755" xlink:href="#mea5a9d3e33" y="144.106465"/>
     <use style="fill:#1f77b4;stroke:#1f77b4;" x="214.933507" xlink:href="#mea5a9d3e33" y="144.093236"/>
     <use style="fill:#1f77b4;stroke:#1f77b4;" x="214.872095" xlink:href="#mea5a9d3e33" y="144.080646"/>
     <use style="fill:#1f77b4;stroke:#1f77b4;" x="214.810008" xlink:href="#mea5a9d3e33" y="144.06704"/>
    </g>
   </g>
   <g id="patch_3">
    <path d="M 56.028488 277.111219 
L 56.028488 10.999219 
" style="fill:none;stroke:#000000;stroke-linecap:square;stroke-linejoin:miter;stroke-width:0.8;"/>
   </g>
   <g id="patch_4">
    <path d="M 413.148488 277.111219 
L 413.148488 10.999219 
" style="fill:none;stroke:#000000;stroke-linecap:square;stroke-linejoin:miter;stroke-width:0.8;"/>
   </g>
   <g id="patch_5">
    <path d="M 56.028488 277.111219 
L 413.148488 277.111219 
" style="fill:none;stroke:#000000;stroke-linecap:square;stroke-linejoin:miter;stroke-width:0.8;"/>
   </g>
   <g id="patch_6">
    <path d="M 56.028488 10.999219 
L 413.148488 10.999219 
" style="fill:none;stroke:#000000;stroke-linecap:square;stroke-linejoin:miter;stroke-width:0.8;"/>
   </g>
   <g id="text_22">
    <g clip-path="url(#p48f4d1483d)">
     <!-- 2.000 -->
     <g style="fill:#404688;" transform="translate(205.352347 131.681706)rotate(-325.478469)scale(0.06 -0.06)">
      <use xlink:href="#DejaVuSans-50"/>
      <use x="63.623047" xlink:href="#DejaVuSans-46"/>
      <use x="95.410156" xlink:href="#DejaVuSans-48"/>
      <use x="159.033203" xlink:href="#DejaVuSans-48"/>
      <use x="222.65625" xlink:href="#DejaVuSans-48"/>
     </g>
    </g>
   </g>
   <g id="text_23">
    <g clip-path="url(#p48f4d1483d)">
     <!-- 2.500 -->
     <g style="fill:#39558c;" transform="translate(166.503633 123.570763)rotate(-0.788049)scale(0.06 -0.06)">
      <use xlink:href="#DejaVuSans-50"/>
      <use x="63.623047" xlink:href="#DejaVuSans-46"/>
      <use x="95.410156" xlink:href="#DejaVuSans-53"/>
      <use x="159.033203" xlink:href="#DejaVuSans-48"/>
      <use x="222.65625" xlink:href="#DejaVuSans-48"/>
     </g>
    </g>
   </g>
   <g id="text_24">
    <g clip-path="url(#p48f4d1483d)">
     <!-- 3.000 -->
     <g style="fill:#33638d;" transform="translate(189.763281 116.570269)rotate(-343.355523)scale(0.06 -0.06)">
      <defs>
       <path d="M 40.578125 39.3125 
Q 47.65625 37.796875 51.625 33 
Q 55.609375 28.21875 55.609375 21.1875 
Q 55.609375 10.40625 48.1875 4.484375 
Q 40.765625 -1.421875 27.09375 -1.421875 
Q 22.515625 -1.421875 17.65625 -0.515625 
Q 12.796875 0.390625 7.625 2.203125 
L 7.625 11.71875 
Q 11.71875 9.328125 16.59375 8.109375 
Q 21.484375 6.890625 26.8125 6.890625 
Q 36.078125 6.890625 40.9375 10.546875 
Q 45.796875 14.203125 45.796875 21.1875 
Q 45.796875 27.640625 41.28125 31.265625 
Q 36.765625 34.90625 28.71875 34.90625 
L 20.21875 34.90625 
L 20.21875 43.015625 
L 29.109375 43.015625 
Q 36.375 43.015625 40.234375 45.921875 
Q 44.09375 48.828125 44.09375 54.296875 
Q 44.09375 59.90625 40.109375 62.90625 
Q 36.140625 65.921875 28.71875 65.921875 
Q 24.65625 65.921875 20.015625 65.03125 
Q 15.375 64.15625 9.8125 62.3125 
L 9.8125 71.09375 
Q 15.4375 72.65625 20.34375 73.4375 
Q 25.25 74.21875 29.59375 74.21875 
Q 40.828125 74.21875 47.359375 69.109375 
Q 53.90625 64.015625 53.90625 55.328125 
Q 53.90625 49.265625 50.4375 45.09375 
Q 46.96875 40.921875 40.578125 39.3125 
z
" id="DejaVuSans-51"/>
      </defs>
      <use xlink:href="#DejaVuSans-51"/>
      <use x="63.623047" xlink:href="#DejaVuSans-46"/>
      <use x="95.410156" xlink:href="#DejaVuSans-48"/>
      <use x="159.033203" xlink:href="#DejaVuSans-48"/>
      <use x="222.65625" xlink:href="#DejaVuSans-48"/>
     </g>
    </g>
   </g>
   <g id="text_25">
    <g clip-path="url(#p48f4d1483d)">
     <!-- 3.500 -->
     <g style="fill:#2d718e;" transform="translate(83.183198 172.558248)rotate(-1.029956)scale(0.06 -0.06)">
      <use xlink:href="#DejaVuSans-51"/>
      <use x="63.623047" xlink:href="#DejaVuSans-46"/>
      <use x="95.410156" xlink:href="#DejaVuSans-53"/>
      <use x="159.033203" xlink:href="#DejaVuSans-48"/>
      <use x="222.65625" xlink:href="#DejaVuSans-48"/>
     </g>
    </g>
   </g>
   <g id="text_26">
    <g clip-path="url(#p48f4d1483d)">
     <!-- 4.000 -->
     <g style="fill:#287d8e;" transform="translate(178.225956 113.817705)rotate(-349.240969)scale(0.06 -0.06)">
      <use xlink:href="#DejaVuSans-52"/>
      <use x="63.623047" xlink:href="#DejaVuSans-46"/>
      <use x="95.410156" xlink:href="#DejaVuSans-48"/>
      <use x="159.033203" xlink:href="#DejaVuSans-48"/>
      <use x="222.65625" xlink:href="#DejaVuSans-48"/>
     </g>
    </g>
   </g>
   <g id="text_27">
    <g clip-path="url(#p48f4d1483d)">
     <!-- 4.500 -->
     <g style="fill:#238a8d;" transform="translate(178.238976 111.868639)rotate(-345.958336)scale(0.06 -0.06)">
      <use xlink:href="#DejaVuSans-52"/>
      <use x="63.623047" xlink:href="#DejaVuSans-46"/>
      <use x="95.410156" xlink:href="#DejaVuSans-53"/>
      <use x="159.033203" xlink:href="#DejaVuSans-48"/>
      <use x="222.65625" xlink:href="#DejaVuSans-48"/>
     </g>
    </g>
   </g>
   <g id="text_28">
    <g clip-path="url(#p48f4d1483d)">
     <!-- 5.000 -->
     <g style="fill:#1f968b;" transform="translate(166.334697 108.776509)rotate(-352.18539)scale(0.06 -0.06)">
      <use xlink:href="#DejaVuSans-53"/>
      <use x="63.623047" xlink:href="#DejaVuSans-46"/>
      <use x="95.410156" xlink:href="#DejaVuSans-48"/>
      <use x="159.033203" xlink:href="#DejaVuSans-48"/>
      <use x="222.65625" xlink:href="#DejaVuSans-48"/>
     </g>
    </g>
   </g>
   <g id="text_29">
    <g clip-path="url(#p48f4d1483d)">
     <!-- 5.500 -->
     <g style="fill:#20a386;" transform="translate(166.369179 108.845212)rotate(-355.047205)scale(0.06 -0.06)">
      <use xlink:href="#DejaVuSans-53"/>
      <use x="63.623047" xlink:href="#DejaVuSans-46"/>
      <use x="95.410156" xlink:href="#DejaVuSans-53"/>
      <use x="159.033203" xlink:href="#DejaVuSans-48"/>
      <use x="222.65625" xlink:href="#DejaVuSans-48"/>
     </g>
    </g>
   </g>
   <g id="text_30">
    <g clip-path="url(#p48f4d1483d)">
     <!-- 6.000 -->
     <g style="fill:#29af7f;" transform="translate(118.880688 176.829182)rotate(-0.561523)scale(0.06 -0.06)">
      <use xlink:href="#DejaVuSans-54"/>
      <use x="63.623047" xlink:href="#DejaVuSans-46"/>
      <use x="95.410156" xlink:href="#DejaVuSans-48"/>
      <use x="159.033203" xlink:href="#DejaVuSans-48"/>
      <use x="222.65625" xlink:href="#DejaVuSans-48"/>
     </g>
    </g>
   </g>
   <g id="text_31">
    <g clip-path="url(#p48f4d1483d)">
     <!-- 6.500 -->
     <g style="fill:#3dbc74;" transform="translate(142.643728 177.715492)rotate(-358.971975)scale(0.06 -0.06)">
      <use xlink:href="#DejaVuSans-54"/>
      <use x="63.623047" xlink:href="#DejaVuSans-46"/>
      <use x="95.410156" xlink:href="#DejaVuSans-53"/>
      <use x="159.033203" xlink:href="#DejaVuSans-48"/>
      <use x="222.65625" xlink:href="#DejaVuSans-48"/>
     </g>
    </g>
   </g>
   <g id="text_32">
    <g clip-path="url(#p48f4d1483d)">
     <!-- 7.000 -->
     <g style="fill:#56c667;" transform="translate(166.339134 107.38536)rotate(-352.683431)scale(0.06 -0.06)">
      <use xlink:href="#DejaVuSans-55"/>
      <use x="63.623047" xlink:href="#DejaVuSans-46"/>
      <use x="95.410156" xlink:href="#DejaVuSans-48"/>
      <use x="159.033203" xlink:href="#DejaVuSans-48"/>
      <use x="222.65625" xlink:href="#DejaVuSans-48"/>
     </g>
    </g>
   </g>
   <g id="text_33">
    <g clip-path="url(#p48f4d1483d)">
     <!-- 7.500 -->
     <g style="fill:#75d054;" transform="translate(166.331565 106.880728)rotate(-351.778917)scale(0.06 -0.06)">
      <use xlink:href="#DejaVuSans-55"/>
      <use x="63.623047" xlink:href="#DejaVuSans-46"/>
      <use x="95.410156" xlink:href="#DejaVuSans-53"/>
      <use x="159.033203" xlink:href="#DejaVuSans-48"/>
      <use x="222.65625" xlink:href="#DejaVuSans-48"/>
     </g>
    </g>
   </g>
   <g id="text_34">
    <g clip-path="url(#p48f4d1483d)">
     <!-- 8.000 -->
     <g style="fill:#95d840;" transform="translate(178.251771 108.458383)rotate(-353.494483)scale(0.06 -0.06)">
      <use xlink:href="#DejaVuSans-56"/>
      <use x="63.623047" xlink:href="#DejaVuSans-46"/>
      <use x="95.410156" xlink:href="#DejaVuSans-48"/>
      <use x="159.033203" xlink:href="#DejaVuSans-48"/>
      <use x="222.65625" xlink:href="#DejaVuSans-48"/>
     </g>
    </g>
   </g>
   <g id="text_35">
    <g clip-path="url(#p48f4d1483d)">
     <!-- 8.500 -->
     <g style="fill:#bade28;" transform="translate(178.24685 108.212023)rotate(-353.052717)scale(0.06 -0.06)">
      <use xlink:href="#DejaVuSans-56"/>
      <use x="63.623047" xlink:href="#DejaVuSans-46"/>
      <use x="95.410156" xlink:href="#DejaVuSans-53"/>
      <use x="159.033203" xlink:href="#DejaVuSans-48"/>
      <use x="222.65625" xlink:href="#DejaVuSans-48"/>
     </g>
    </g>
   </g>
   <g id="text_36">
    <g clip-path="url(#p48f4d1483d)">
     <!-- 9.000 -->
     <g style="fill:#dde318;" transform="translate(178.240885 107.939617)rotate(-352.440269)scale(0.06 -0.06)">
      <use xlink:href="#DejaVuSans-57"/>
      <use x="63.623047" xlink:href="#DejaVuSans-46"/>
      <use x="95.410156" xlink:href="#DejaVuSans-48"/>
      <use x="159.033203" xlink:href="#DejaVuSans-48"/>
      <use x="222.65625" xlink:href="#DejaVuSans-48"/>
     </g>
    </g>
   </g>
   <g id="text_37">
    <g clip-path="url(#p48f4d1483d)">
     <!-- 9.500 -->
     <g style="fill:#fde725;" transform="translate(178.235187 107.651588)rotate(-351.725745)scale(0.06 -0.06)">
      <use xlink:href="#DejaVuSans-57"/>
      <use x="63.623047" xlink:href="#DejaVuSans-46"/>
      <use x="95.410156" xlink:href="#DejaVuSans-53"/>
      <use x="159.033203" xlink:href="#DejaVuSans-48"/>
      <use x="222.65625" xlink:href="#DejaVuSans-48"/>
     </g>
    </g>
   </g>
   <g id="text_38">
    <g clip-path="url(#p48f4d1483d)">
     <!-- 10.000 -->
     <g style="fill:#440154;" transform="translate(189.206188 106.580907)rotate(-340.229301)scale(0.06 -0.06)">
      <use xlink:href="#DejaVuSans-49"/>
      <use x="63.623047" xlink:href="#DejaVuSans-48"/>
      <use x="127.246094" xlink:href="#DejaVuSans-46"/>
      <use x="159.033203" xlink:href="#DejaVuSans-48"/>
      <use x="222.65625" xlink:href="#DejaVuSans-48"/>
      <use x="286.279297" xlink:href="#DejaVuSans-48"/>
     </g>
    </g>
   </g>
   <g id="text_39">
    <g clip-path="url(#p48f4d1483d)">
     <!-- 100.000 -->
     <g style="fill:#440154;" transform="translate(67.551891 219.213039)rotate(-3.431517)scale(0.06 -0.06)">
      <use xlink:href="#DejaVuSans-49"/>
      <use x="63.623047" xlink:href="#DejaVuSans-48"/>
      <use x="127.246094" xlink:href="#DejaVuSans-48"/>
      <use x="190.869141" xlink:href="#DejaVuSans-46"/>
      <use x="222.65625" xlink:href="#DejaVuSans-48"/>
      <use x="286.279297" xlink:href="#DejaVuSans-48"/>
      <use x="349.902344" xlink:href="#DejaVuSans-48"/>
     </g>
    </g>
   </g>
   <g id="text_40">
    <g clip-path="url(#p48f4d1483d)">
     <!-- 1000.000 -->
     <g style="fill:#440154;" transform="translate(209.331596 98.217626)rotate(-331.318487)scale(0.06 -0.06)">
      <use xlink:href="#DejaVuSans-49"/>
      <use x="63.623047" xlink:href="#DejaVuSans-48"/>
      <use x="127.246094" xlink:href="#DejaVuSans-48"/>
      <use x="190.869141" xlink:href="#DejaVuSans-48"/>
      <use x="254.492188" xlink:href="#DejaVuSans-46"/>
      <use x="286.279297" xlink:href="#DejaVuSans-48"/>
      <use x="349.902344" xlink:href="#DejaVuSans-48"/>
      <use x="413.525391" xlink:href="#DejaVuSans-48"/>
     </g>
    </g>
   </g>
   <g id="text_41">
    <g clip-path="url(#p48f4d1483d)">
     <!-- 10000.000 -->
     <g style="fill:#440154;" transform="translate(51.042974 264.72232)rotate(-13.331556)scale(0.06 -0.06)">
      <use xlink:href="#DejaVuSans-49"/>
      <use x="63.623047" xlink:href="#DejaVuSans-48"/>
      <use x="127.246094" xlink:href="#DejaVuSans-48"/>
      <use x="190.869141" xlink:href="#DejaVuSans-48"/>
      <use x="254.492188" xlink:href="#DejaVuSans-48"/>
      <use x="318.115234" xlink:href="#DejaVuSans-46"/>
      <use x="349.902344" xlink:href="#DejaVuSans-48"/>
      <use x="413.525391" xlink:href="#DejaVuSans-48"/>
      <use x="477.148438" xlink:href="#DejaVuSans-48"/>
     </g>
    </g>
   </g>
   <g id="text_42">
    <g clip-path="url(#p48f4d1483d)">
     <!-- 100000.000 -->
     <g style="fill:#440154;" transform="translate(65.880515 45.463432)rotate(-351.579685)scale(0.06 -0.06)">
      <use xlink:href="#DejaVuSans-49"/>
      <use x="63.623047" xlink:href="#DejaVuSans-48"/>
      <use x="127.246094" xlink:href="#DejaVuSans-48"/>
      <use x="190.869141" xlink:href="#DejaVuSans-48"/>
      <use x="254.492188" xlink:href="#DejaVuSans-48"/>
      <use x="318.115234" xlink:href="#DejaVuSans-48"/>
      <use x="381.738281" xlink:href="#DejaVuSans-46"/>
      <use x="413.525391" xlink:href="#DejaVuSans-48"/>
      <use x="477.148438" xlink:href="#DejaVuSans-48"/>
      <use x="540.771484" xlink:href="#DejaVuSans-48"/>
     </g>
    </g>
   </g>
   <g id="text_43">
    <g clip-path="url(#p48f4d1483d)">
     <!-- 1000000.000 -->
     <g style="fill:#450457;" transform="translate(257.13215 94.308735)rotate(-310.09366)scale(0.06 -0.06)">
      <use xlink:href="#DejaVuSans-49"/>
      <use x="63.623047" xlink:href="#DejaVuSans-48"/>
      <use x="127.246094" xlink:href="#DejaVuSans-48"/>
      <use x="190.869141" xlink:href="#DejaVuSans-48"/>
      <use x="254.492188" xlink:href="#DejaVuSans-48"/>
      <use x="318.115234" xlink:href="#DejaVuSans-48"/>
      <use x="381.738281" xlink:href="#DejaVuSans-48"/>
      <use x="445.361328" xlink:href="#DejaVuSans-46"/>
      <use x="477.148438" xlink:href="#DejaVuSans-48"/>
      <use x="540.771484" xlink:href="#DejaVuSans-48"/>
      <use x="604.394531" xlink:href="#DejaVuSans-48"/>
     </g>
    </g>
   </g>
   <g id="text_44">
    <g clip-path="url(#p48f4d1483d)">
     <!-- 10000000.000 -->
     <g style="fill:#482475;" transform="translate(268.387269 92.218246)rotate(-307.697188)scale(0.06 -0.06)">
      <use xlink:href="#DejaVuSans-49"/>
      <use x="63.623047" xlink:href="#DejaVuSans-48"/>
      <use x="127.246094" xlink:href="#DejaVuSans-48"/>
      <use x="190.869141" xlink:href="#DejaVuSans-48"/>
      <use x="254.492188" xlink:href="#DejaVuSans-48"/>
      <use x="318.115234" xlink:href="#DejaVuSans-48"/>
      <use x="381.738281" xlink:href="#DejaVuSans-48"/>
      <use x="445.361328" xlink:href="#DejaVuSans-48"/>
      <use x="508.984375" xlink:href="#DejaVuSans-46"/>
      <use x="540.771484" xlink:href="#DejaVuSans-48"/>
      <use x="604.394531" xlink:href="#DejaVuSans-48"/>
      <use x="668.017578" xlink:href="#DejaVuSans-48"/>
     </g>
    </g>
   </g>
   <g id="text_45">
    <g clip-path="url(#p48f4d1483d)">
     <!-- 100000000.000 -->
     <g style="fill:#fde725;" transform="translate(284.278733 98.646686)rotate(-304.21906)scale(0.06 -0.06)">
      <use xlink:href="#DejaVuSans-49"/>
      <use x="63.623047" xlink:href="#DejaVuSans-48"/>
      <use x="127.246094" xlink:href="#DejaVuSans-48"/>
      <use x="190.869141" xlink:href="#DejaVuSans-48"/>
      <use x="254.492188" xlink:href="#DejaVuSans-48"/>
      <use x="318.115234" xlink:href="#DejaVuSans-48"/>
      <use x="381.738281" xlink:href="#DejaVuSans-48"/>
      <use x="445.361328" xlink:href="#DejaVuSans-48"/>
      <use x="508.984375" xlink:href="#DejaVuSans-48"/>
      <use x="572.607422" xlink:href="#DejaVuSans-46"/>
      <use x="604.394531" xlink:href="#DejaVuSans-48"/>
      <use x="668.017578" xlink:href="#DejaVuSans-48"/>
      <use x="731.640625" xlink:href="#DejaVuSans-48"/>
     </g>
    </g>
   </g>
  </g>
 </g>
 <defs>
  <clipPath id="p48f4d1483d">
   <rect height="266.112" width="357.12" x="56.028488" y="10.999219"/>
  </clipPath>
 </defs>
</svg>
