<?xml version="1.0" encoding="utf-8" standalone="no"?>
<!DOCTYPE svg PUBLIC "-//W3C//DTD SVG 1.1//EN"
  "http://www.w3.org/Graphics/SVG/1.1/DTD/svg11.dtd">
<!-- Created with matplotlib (https://matplotlib.org/) -->
<svg height="300.989344pt" version="1.1" viewBox="0 0 405.987188 300.989344" width="405.987188pt" xmlns="http://www.w3.org/2000/svg" xmlns:xlink="http://www.w3.org/1999/xlink">
 <metadata>
  <rdf:RDF xmlns:cc="http://creativecommons.org/ns#" xmlns:dc="http://purl.org/dc/elements/1.1/" xmlns:rdf="http://www.w3.org/1999/02/22-rdf-syntax-ns#">
   <cc:Work>
    <dc:type rdf:resource="http://purl.org/dc/dcmitype/StillImage"/>
    <dc:date>2021-09-23T00:07:32.279975</dc:date>
    <dc:format>image/svg+xml</dc:format>
    <dc:creator>
     <cc:Agent>
      <dc:title>Matplotlib v3.3.1, https://matplotlib.org/</dc:title>
     </cc:Agent>
    </dc:creator>
   </cc:Work>
  </rdf:RDF>
 </metadata>
 <defs>
  <style type="text/css">*{stroke-linecap:butt;stroke-linejoin:round;}</style>
 </defs>
 <g id="figure_1">
  <g id="patch_1">
   <path d="M 0 300.989344 
L 405.987188 300.989344 
L 405.987188 0 
L 0 0 
z
" style="fill:#ffffff;"/>
  </g>
  <g id="axes_1">
   <g id="patch_2">
    <path d="M 35.304688 277.111219 
L 392.424688 277.111219 
L 392.424688 10.999219 
L 35.304688 10.999219 
z
" style="fill:#ffffff;"/>
   </g>
   <g id="matplotlib.axis_1">
    <g id="xtick_1">
     <g id="line2d_1">
      <defs>
       <path d="M 0 0 
L 0 3.5 
" id="m97eeceb27d" style="stroke:#000000;stroke-width:0.8;"/>
      </defs>
      <g>
       <use style="stroke:#000000;stroke-width:0.8;" x="35.304687" xlink:href="#m97eeceb27d" y="277.111219"/>
      </g>
     </g>
     <g id="text_1">
      <!-- −20 -->
      <g transform="translate(24.752344 291.709656)scale(0.1 -0.1)">
       <defs>
        <path d="M 10.59375 35.5 
L 73.1875 35.5 
L 73.1875 27.203125 
L 10.59375 27.203125 
z
" id="DejaVuSans-8722"/>
        <path d="M 19.1875 8.296875 
L 53.609375 8.296875 
L 53.609375 0 
L 7.328125 0 
L 7.328125 8.296875 
Q 12.9375 14.109375 22.625 23.890625 
Q 32.328125 33.6875 34.8125 36.53125 
Q 39.546875 41.84375 41.421875 45.53125 
Q 43.3125 49.21875 43.3125 52.78125 
Q 43.3125 58.59375 39.234375 62.25 
Q 35.15625 65.921875 28.609375 65.921875 
Q 23.96875 65.921875 18.8125 64.3125 
Q 13.671875 62.703125 7.8125 59.421875 
L 7.8125 69.390625 
Q 13.765625 71.78125 18.9375 73 
Q 24.125 74.21875 28.421875 74.21875 
Q 39.75 74.21875 46.484375 68.546875 
Q 53.21875 62.890625 53.21875 53.421875 
Q 53.21875 48.921875 51.53125 44.890625 
Q 49.859375 40.875 45.40625 35.40625 
Q 44.1875 33.984375 37.640625 27.21875 
Q 31.109375 20.453125 19.1875 8.296875 
z
" id="DejaVuSans-50"/>
        <path d="M 31.78125 66.40625 
Q 24.171875 66.40625 20.328125 58.90625 
Q 16.5 51.421875 16.5 36.375 
Q 16.5 21.390625 20.328125 13.890625 
Q 24.171875 6.390625 31.78125 6.390625 
Q 39.453125 6.390625 43.28125 13.890625 
Q 47.125 21.390625 47.125 36.375 
Q 47.125 51.421875 43.28125 58.90625 
Q 39.453125 66.40625 31.78125 66.40625 
z
M 31.78125 74.21875 
Q 44.046875 74.21875 50.515625 64.515625 
Q 56.984375 54.828125 56.984375 36.375 
Q 56.984375 17.96875 50.515625 8.265625 
Q 44.046875 -1.421875 31.78125 -1.421875 
Q 19.53125 -1.421875 13.0625 8.265625 
Q 6.59375 17.96875 6.59375 36.375 
Q 6.59375 54.828125 13.0625 64.515625 
Q 19.53125 74.21875 31.78125 74.21875 
z
" id="DejaVuSans-48"/>
       </defs>
       <use xlink:href="#DejaVuSans-8722"/>
       <use x="83.789062" xlink:href="#DejaVuSans-50"/>
       <use x="147.412109" xlink:href="#DejaVuSans-48"/>
      </g>
     </g>
    </g>
    <g id="xtick_2">
     <g id="line2d_2">
      <g>
       <use style="stroke:#000000;stroke-width:0.8;" x="74.984687" xlink:href="#m97eeceb27d" y="277.111219"/>
      </g>
     </g>
     <g id="text_2">
      <!-- −15 -->
      <g transform="translate(64.432344 291.709656)scale(0.1 -0.1)">
       <defs>
        <path d="M 12.40625 8.296875 
L 28.515625 8.296875 
L 28.515625 63.921875 
L 10.984375 60.40625 
L 10.984375 69.390625 
L 28.421875 72.90625 
L 38.28125 72.90625 
L 38.28125 8.296875 
L 54.390625 8.296875 
L 54.390625 0 
L 12.40625 0 
z
" id="DejaVuSans-49"/>
        <path d="M 10.796875 72.90625 
L 49.515625 72.90625 
L 49.515625 64.59375 
L 19.828125 64.59375 
L 19.828125 46.734375 
Q 21.96875 47.46875 24.109375 47.828125 
Q 26.265625 48.1875 28.421875 48.1875 
Q 40.625 48.1875 47.75 41.5 
Q 54.890625 34.8125 54.890625 23.390625 
Q 54.890625 11.625 47.5625 5.09375 
Q 40.234375 -1.421875 26.90625 -1.421875 
Q 22.3125 -1.421875 17.546875 -0.640625 
Q 12.796875 0.140625 7.71875 1.703125 
L 7.71875 11.625 
Q 12.109375 9.234375 16.796875 8.0625 
Q 21.484375 6.890625 26.703125 6.890625 
Q 35.15625 6.890625 40.078125 11.328125 
Q 45.015625 15.765625 45.015625 23.390625 
Q 45.015625 31 40.078125 35.4375 
Q 35.15625 39.890625 26.703125 39.890625 
Q 22.75 39.890625 18.8125 39.015625 
Q 14.890625 38.140625 10.796875 36.28125 
z
" id="DejaVuSans-53"/>
       </defs>
       <use xlink:href="#DejaVuSans-8722"/>
       <use x="83.789062" xlink:href="#DejaVuSans-49"/>
       <use x="147.412109" xlink:href="#DejaVuSans-53"/>
      </g>
     </g>
    </g>
    <g id="xtick_3">
     <g id="line2d_3">
      <g>
       <use style="stroke:#000000;stroke-width:0.8;" x="114.664687" xlink:href="#m97eeceb27d" y="277.111219"/>
      </g>
     </g>
     <g id="text_3">
      <!-- −10 -->
      <g transform="translate(104.112344 291.709656)scale(0.1 -0.1)">
       <use xlink:href="#DejaVuSans-8722"/>
       <use x="83.789062" xlink:href="#DejaVuSans-49"/>
       <use x="147.412109" xlink:href="#DejaVuSans-48"/>
      </g>
     </g>
    </g>
    <g id="xtick_4">
     <g id="line2d_4">
      <g>
       <use style="stroke:#000000;stroke-width:0.8;" x="154.344687" xlink:href="#m97eeceb27d" y="277.111219"/>
      </g>
     </g>
     <g id="text_4">
      <!-- −5 -->
      <g transform="translate(146.973594 291.709656)scale(0.1 -0.1)">
       <use xlink:href="#DejaVuSans-8722"/>
       <use x="83.789062" xlink:href="#DejaVuSans-53"/>
      </g>
     </g>
    </g>
    <g id="xtick_5">
     <g id="line2d_5">
      <g>
       <use style="stroke:#000000;stroke-width:0.8;" x="194.024687" xlink:href="#m97eeceb27d" y="277.111219"/>
      </g>
     </g>
     <g id="text_5">
      <!-- 0 -->
      <g transform="translate(190.843437 291.709656)scale(0.1 -0.1)">
       <use xlink:href="#DejaVuSans-48"/>
      </g>
     </g>
    </g>
    <g id="xtick_6">
     <g id="line2d_6">
      <g>
       <use style="stroke:#000000;stroke-width:0.8;" x="233.704688" xlink:href="#m97eeceb27d" y="277.111219"/>
      </g>
     </g>
     <g id="text_6">
      <!-- 5 -->
      <g transform="translate(230.523438 291.709656)scale(0.1 -0.1)">
       <use xlink:href="#DejaVuSans-53"/>
      </g>
     </g>
    </g>
    <g id="xtick_7">
     <g id="line2d_7">
      <g>
       <use style="stroke:#000000;stroke-width:0.8;" x="273.384688" xlink:href="#m97eeceb27d" y="277.111219"/>
      </g>
     </g>
     <g id="text_7">
      <!-- 10 -->
      <g transform="translate(267.022188 291.709656)scale(0.1 -0.1)">
       <use xlink:href="#DejaVuSans-49"/>
       <use x="63.623047" xlink:href="#DejaVuSans-48"/>
      </g>
     </g>
    </g>
    <g id="xtick_8">
     <g id="line2d_8">
      <g>
       <use style="stroke:#000000;stroke-width:0.8;" x="313.064687" xlink:href="#m97eeceb27d" y="277.111219"/>
      </g>
     </g>
     <g id="text_8">
      <!-- 15 -->
      <g transform="translate(306.702187 291.709656)scale(0.1 -0.1)">
       <use xlink:href="#DejaVuSans-49"/>
       <use x="63.623047" xlink:href="#DejaVuSans-53"/>
      </g>
     </g>
    </g>
    <g id="xtick_9">
     <g id="line2d_9">
      <g>
       <use style="stroke:#000000;stroke-width:0.8;" x="352.744688" xlink:href="#m97eeceb27d" y="277.111219"/>
      </g>
     </g>
     <g id="text_9">
      <!-- 20 -->
      <g transform="translate(346.382188 291.709656)scale(0.1 -0.1)">
       <use xlink:href="#DejaVuSans-50"/>
       <use x="63.623047" xlink:href="#DejaVuSans-48"/>
      </g>
     </g>
    </g>
    <g id="xtick_10">
     <g id="line2d_10">
      <g>
       <use style="stroke:#000000;stroke-width:0.8;" x="392.424688" xlink:href="#m97eeceb27d" y="277.111219"/>
      </g>
     </g>
     <g id="text_10">
      <!-- 25 -->
      <g transform="translate(386.062187 291.709656)scale(0.1 -0.1)">
       <use xlink:href="#DejaVuSans-50"/>
       <use x="63.623047" xlink:href="#DejaVuSans-53"/>
      </g>
     </g>
    </g>
   </g>
   <g id="matplotlib.axis_2">
    <g id="ytick_1">
     <g id="line2d_11">
      <defs>
       <path d="M 0 0 
L -3.5 0 
" id="m15226b8841" style="stroke:#000000;stroke-width:0.8;"/>
      </defs>
      <g>
       <use style="stroke:#000000;stroke-width:0.8;" x="35.304688" xlink:href="#m15226b8841" y="277.111219"/>
      </g>
     </g>
     <g id="text_11">
      <!-- −20 -->
      <g transform="translate(7.2 280.910437)scale(0.1 -0.1)">
       <use xlink:href="#DejaVuSans-8722"/>
       <use x="83.789062" xlink:href="#DejaVuSans-50"/>
       <use x="147.412109" xlink:href="#DejaVuSans-48"/>
      </g>
     </g>
    </g>
    <g id="ytick_2">
     <g id="line2d_12">
      <g>
       <use style="stroke:#000000;stroke-width:0.8;" x="35.304688" xlink:href="#m15226b8841" y="243.847219"/>
      </g>
     </g>
     <g id="text_12">
      <!-- −15 -->
      <g transform="translate(7.2 247.646437)scale(0.1 -0.1)">
       <use xlink:href="#DejaVuSans-8722"/>
       <use x="83.789062" xlink:href="#DejaVuSans-49"/>
       <use x="147.412109" xlink:href="#DejaVuSans-53"/>
      </g>
     </g>
    </g>
    <g id="ytick_3">
     <g id="line2d_13">
      <g>
       <use style="stroke:#000000;stroke-width:0.8;" x="35.304688" xlink:href="#m15226b8841" y="210.583219"/>
      </g>
     </g>
     <g id="text_13">
      <!-- −10 -->
      <g transform="translate(7.2 214.382437)scale(0.1 -0.1)">
       <use xlink:href="#DejaVuSans-8722"/>
       <use x="83.789062" xlink:href="#DejaVuSans-49"/>
       <use x="147.412109" xlink:href="#DejaVuSans-48"/>
      </g>
     </g>
    </g>
    <g id="ytick_4">
     <g id="line2d_14">
      <g>
       <use style="stroke:#000000;stroke-width:0.8;" x="35.304688" xlink:href="#m15226b8841" y="177.319219"/>
      </g>
     </g>
     <g id="text_14">
      <!-- −5 -->
      <g transform="translate(13.5625 181.118437)scale(0.1 -0.1)">
       <use xlink:href="#DejaVuSans-8722"/>
       <use x="83.789062" xlink:href="#DejaVuSans-53"/>
      </g>
     </g>
    </g>
    <g id="ytick_5">
     <g id="line2d_15">
      <g>
       <use style="stroke:#000000;stroke-width:0.8;" x="35.304688" xlink:href="#m15226b8841" y="144.055219"/>
      </g>
     </g>
     <g id="text_15">
      <!-- 0 -->
      <g transform="translate(21.942187 147.854437)scale(0.1 -0.1)">
       <use xlink:href="#DejaVuSans-48"/>
      </g>
     </g>
    </g>
    <g id="ytick_6">
     <g id="line2d_16">
      <g>
       <use style="stroke:#000000;stroke-width:0.8;" x="35.304688" xlink:href="#m15226b8841" y="110.791219"/>
      </g>
     </g>
     <g id="text_16">
      <!-- 5 -->
      <g transform="translate(21.942187 114.590437)scale(0.1 -0.1)">
       <use xlink:href="#DejaVuSans-53"/>
      </g>
     </g>
    </g>
    <g id="ytick_7">
     <g id="line2d_17">
      <g>
       <use style="stroke:#000000;stroke-width:0.8;" x="35.304688" xlink:href="#m15226b8841" y="77.527219"/>
      </g>
     </g>
     <g id="text_17">
      <!-- 10 -->
      <g transform="translate(15.579687 81.326437)scale(0.1 -0.1)">
       <use xlink:href="#DejaVuSans-49"/>
       <use x="63.623047" xlink:href="#DejaVuSans-48"/>
      </g>
     </g>
    </g>
    <g id="ytick_8">
     <g id="line2d_18">
      <g>
       <use style="stroke:#000000;stroke-width:0.8;" x="35.304688" xlink:href="#m15226b8841" y="44.263219"/>
      </g>
     </g>
     <g id="text_18">
      <!-- 15 -->
      <g transform="translate(15.579687 48.062437)scale(0.1 -0.1)">
       <use xlink:href="#DejaVuSans-49"/>
       <use x="63.623047" xlink:href="#DejaVuSans-53"/>
      </g>
     </g>
    </g>
    <g id="ytick_9">
     <g id="line2d_19">
      <g>
       <use style="stroke:#000000;stroke-width:0.8;" x="35.304688" xlink:href="#m15226b8841" y="10.999219"/>
      </g>
     </g>
     <g id="text_19">
      <!-- 20 -->
      <g transform="translate(15.579687 14.798437)scale(0.1 -0.1)">
       <use xlink:href="#DejaVuSans-50"/>
       <use x="63.623047" xlink:href="#DejaVuSans-48"/>
      </g>
     </g>
    </g>
   </g>
   <g id="LineCollection_1"/>
   <g id="LineCollection_2"/>
   <g id="LineCollection_3"/>
   <g id="LineCollection_4">
    <path clip-path="url(#p1085632d67)" d="M 190.056688 154.644723 
L 188.474826 152.925619 
L 187.016566 144.055219 
L 190.056688 137.336086 
L 193.018079 144.055219 
L 190.327849 152.925619 
L 190.056688 154.644723 
" style="fill:none;stroke:#453781;stroke-width:1.5;"/>
   </g>
   <g id="LineCollection_5">
    <path clip-path="url(#p1085632d67)" d="M 201.263164 138.676708 
L 197.15734 144.055219 
L 191.128709 152.925619 
L 190.056688 159.722004 
L 183.802886 152.925619 
L 182.767261 144.055219 
L 185.973981 135.184819 
L 190.056688 130.086813 
L 199.049223 126.314419 
L 199.866502 124.324843 
" style="fill:none;stroke:#404688;stroke-width:1.5;"/>
    <path clip-path="url(#p1085632d67)" d="M 190.056688 67.815986 
L 189.93428 64.221619 
L 190.056688 64.112572 
L 190.062181 64.221619 
L 190.056688 67.815986 
" style="fill:none;stroke:#404688;stroke-width:1.5;"/>
   </g>
   <g id="LineCollection_6">
    <path clip-path="url(#p1085632d67)" d="M 166.525996 10.999219 
L 168.472057 19.869619 
L 178.152687 28.715507 
L 178.156118 28.740019 
L 178.940493 37.610419 
L 180.228434 46.480819 
L 190.056688 55.327093 
L 190.058652 55.351219 
L 190.507191 64.221619 
L 191.074044 73.092019 
L 191.887303 81.962419 
L 190.814185 86.717851 
" style="fill:none;stroke:#39558c;stroke-width:1.5;"/>
    <path clip-path="url(#p1085632d67)" d="M 181.731789 70.043154 
L 180.017895 64.221619 
L 178.152687 60.838229 
L 171.249959 55.351219 
L 166.641664 46.480819 
L 166.248687 45.655056 
L 164.762171 46.480819 
L 157.765208 55.351219 
L 155.608895 64.221619 
L 154.344687 72.858596 
L 154.289528 73.092019 
L 152.342844 81.962419 
L 150.381033 90.832819 
L 148.476728 99.703219 
L 146.710094 108.573619 
L 145.653454 117.444019 
L 144.59796 126.314419 
L 144.078069 135.184819 
L 143.819314 144.055219 
L 143.594261 152.925619 
L 142.727223 161.796019 
L 142.440687 163.269583 
L 140.126281 170.666419 
L 136.901826 179.536819 
L 131.486228 188.407219 
L 130.536687 188.674056 
L 118.632687 188.407327 
L 118.632376 188.407219 
L 110.820379 179.536819 
L 106.728687 174.029722 
L 105.612575 170.666419 
L 103.184367 161.796019 
L 100.975212 152.925619 
L 99.525622 144.055219 
L 99.032414 135.184819 
L 99.357838 126.314419 
L 100.099945 117.444019 
L 101.163637 108.573619 
L 102.396806 99.703219 
L 103.732956 90.832819 
L 105.113528 81.962419 
L 106.671916 73.092019 
L 106.728687 72.825282 
L 108.904925 64.221619 
L 111.244476 55.351219 
L 113.830455 46.480819 
L 116.620158 37.610419 
L 118.632687 32.168547 
L 120.127766 28.740019 
L 124.572862 19.869619 
L 129.010924 10.999219 
" style="fill:none;stroke:#39558c;stroke-width:1.5;"/>
    <path clip-path="url(#p1085632d67)" d="M 202.651217 103.421487 
L 202.800798 108.573619 
L 202.877193 117.444019 
L 202.69417 126.314419 
L 202.266921 135.184819 
L 201.960688 143.185283 
L 201.2966 144.055219 
L 191.92957 152.925619 
L 190.134764 161.796019 
L 190.056688 162.309039 
L 186.155377 161.796019 
L 179.130945 152.925619 
L 178.517956 144.055219 
L 180.678211 135.184819 
L 186.121578 126.314419 
L 190.056688 119.214707 
L 191.258964 117.444019 
L 191.938692 108.573619 
L 191.274367 99.703219 
L 190.81904 90.832819 
L 191.265717 90.762099 
" style="fill:none;stroke:#39558c;stroke-width:1.5;"/>
   </g>
   <g id="LineCollection_7">
    <path clip-path="url(#p1085632d67)" d="M 168.319379 10.999219 
L 173.283406 19.869619 
L 178.152687 24.319032 
L 178.77143 28.740019 
L 180.170483 37.610419 
L 183.48848 46.480819 
L 190.056688 52.392771 
L 190.29755 55.351219 
L 190.952201 64.221619 
L 192.110175 73.092019 
L 196.294868 81.962419 
L 201.960688 85.959445 
L 202.419944 90.832819 
L 203.164087 99.703219 
L 203.745088 108.573619 
L 203.838351 117.444019 
L 203.3133 126.314419 
L 202.474471 135.184819 
L 202.007783 144.055219 
L 201.960688 144.657505 
L 192.730431 152.925619 
L 190.266758 161.796019 
L 190.056688 163.176343 
L 179.559874 161.796019 
L 178.152687 159.910946 
L 173.690391 161.796019 
L 166.248687 169.370532 
L 165.140373 170.666419 
L 166.248687 174.094303 
L 166.519333 179.536819 
L 166.248687 180.09726 
L 154.344687 183.768085 
L 150.403535 188.407219 
L 142.440687 192.336041 
L 131.119328 197.277619 
L 130.536687 197.413719 
L 129.83606 197.41507 
" style="fill:none;stroke:#33638d;stroke-width:1.5;"/>
    <path clip-path="url(#p1085632d67)" d="M 105.927603 192.362755 
L 103.303873 188.407219 
L 95.968411 179.536819 
L 94.824687 178.079538 
L 93.017748 170.666419 
L 89.661416 161.796019 
L 84.577014 152.925619 
L 82.920687 150.007152 
L 82.46408 144.055219 
L 81.563937 135.184819 
L 80.089204 126.314419 
L 78.059636 117.444019 
L 75.68549 108.573619 
L 73.915813 99.703219 
L 73.836517 90.832819 
L 75.172948 81.962419 
L 77.150572 73.092019 
L 79.094256 64.221619 
L 80.901359 55.351219 
L 82.320743 46.480819 
L 82.920687 39.719697 
L 84.1 37.610419 
L 89.949787 28.740019 
L 94.330721 19.869619 
L 94.824687 17.932429 
L 100.79808 10.999219 
" style="fill:none;stroke:#33638d;stroke-width:1.5;"/>
    <path clip-path="url(#p1085632d67)" d="M 178.152687 117.790882 
L 178.222899 117.444019 
L 178.152687 116.042809 
L 177.962753 117.444019 
L 178.152687 117.790882 
" style="fill:none;stroke:#33638d;stroke-width:1.5;"/>
   </g>
   <g id="LineCollection_8">
    <path clip-path="url(#p1085632d67)" d="M 170.112763 10.999219 
L 178.094754 19.869619 
L 178.152687 19.922556 
L 179.386743 28.740019 
L 181.400474 37.610419 
L 186.748525 46.480819 
L 190.056688 49.45845 
L 190.536447 55.351219 
L 191.39721 64.221619 
L 193.146305 73.092019 
L 200.702434 81.962419 
L 201.960688 82.85007 
L 202.712965 90.832819 
L 203.784908 99.703219 
L 204.689378 108.573619 
L 204.79951 117.444019 
L 203.932429 126.314419 
L 202.68202 135.184819 
L 202.063878 144.055219 
L 201.960688 145.374886 
L 193.531291 152.925619 
L 190.398753 161.796019 
L 190.056688 164.043648 
L 179.084546 170.666419 
L 178.152687 172.179117 
L 169.319583 179.536819 
L 166.248687 185.895905 
L 161.594487 188.407219 
L 154.344687 191.0876 
L 143.631126 197.277619 
L 142.440687 197.616534 
L 130.536687 200.611943 
L 118.632687 200.436897 
L 106.728687 198.155673 
L 105.105108 197.277619 
L 98.922906 190.354265 
" style="fill:none;stroke:#2d718e;stroke-width:1.5;"/>
    <path clip-path="url(#p1085632d67)" d="M 87.642807 168.262636 
L 83.015638 161.796019 
L 82.920687 161.650363 
L 82.102134 152.925619 
L 80.911349 144.055219 
L 78.924141 135.184819 
L 75.473496 126.314419 
L 71.016687 117.902363 
L 71.000135 117.444019 
L 70.766056 108.573619 
L 70.577734 99.703219 
L 70.518636 90.832819 
L 70.5674 81.962419 
L 70.736497 73.092019 
L 70.946441 64.221619 
L 71.016687 61.731036 
L 73.919459 55.351219 
L 78.243379 46.480819 
L 81.034231 37.610419 
L 82.40782 28.740019 
L 82.920687 23.686575 
L 86.568203 19.869619 
L 93.072733 10.999219 
" style="fill:none;stroke:#2d718e;stroke-width:1.5;"/>
   </g>
   <g id="LineCollection_9">
    <path clip-path="url(#p1085632d67)" d="M 180.460244 30.286322 
L 182.630464 37.610419 
L 190.00857 46.480819 
L 190.056688 46.524129 
L 190.775345 55.351219 
L 191.84222 64.221619 
L 194.182436 73.092019 
L 201.960688 81.191503 
L 202.065245 81.962419 
L 203.005986 90.832819 
L 204.405729 99.703219 
L 205.633668 108.573619 
L 205.760668 117.444019 
L 204.551559 126.314419 
L 202.88957 135.184819 
L 202.119973 144.055219 
L 201.960688 146.092266 
L 194.332152 152.925619 
L 190.530747 161.796019 
L 190.056688 164.910953 
L 180.521436 170.666419 
L 178.152687 174.511638 
L 172.119833 179.536819 
L 166.383563 188.407219 
L 166.248687 188.574479 
L 154.344687 195.060807 
L 150.507873 197.277619 
L 142.440687 199.57433 
L 130.536687 203.810167 
L 118.632687 203.437118 
L 106.728687 199.623551 
L 102.390907 197.277619 
L 94.824687 190.009227 
L 94.289482 188.407219 
L 91.290661 179.536819 
L 85.707907 170.666419 
L 82.920687 166.797239 
L 82.306037 161.796019 
L 81.145664 152.925619 
L 79.358617 144.055219 
L 76.284344 135.184819 
L 71.016687 126.464856 
L 71.009546 126.314419 
L 70.685515 117.444019 
L 70.329113 108.573619 
L 70.02491 99.703219 
L 69.906221 90.832819 
L 69.930581 81.962419 
L 70.162282 73.092019 
L 70.513638 64.221619 
L 70.854625 55.351219 
L 71.016687 51.53113 
L 74.166016 46.480819 
L 79.057012 37.610419 
L 81.583415 28.740019 
L 82.756974 19.869619 
L 82.920687 18.695531 
L 90.804098 10.999219 
" style="fill:none;stroke:#287d8e;stroke-width:1.5;"/>
   </g>
   <g id="LineCollection_10">
    <path clip-path="url(#p1085632d67)" d="M 173.69953 10.999219 
L 178.152687 15.925592 
L 178.838905 19.869619 
L 180.617368 28.740019 
L 183.860454 37.610419 
L 190.056688 45.02977 
L 190.198248 46.480819 
L 191.014243 55.351219 
L 192.28723 64.221619 
L 195.218566 73.092019 
L 201.960688 80.112582 
L 202.211576 81.962419 
L 203.299007 90.832819 
L 205.02655 99.703219 
L 206.577958 108.573619 
L 206.721827 117.444019 
L 205.170689 126.314419 
L 203.097119 135.184819 
L 202.176068 144.055219 
L 201.960688 146.809647 
L 195.133012 152.925619 
L 190.662742 161.796019 
L 190.056688 165.778258 
L 181.958325 170.666419 
L 178.152687 176.844159 
L 174.920083 179.536819 
L 166.621476 188.407219 
L 166.248687 188.869516 
L 154.526518 197.277619 
L 154.344687 197.415157 
L 142.440687 201.532126 
L 131.755838 206.148019 
L 130.536687 206.201624 
L 118.632687 206.175209 
L 118.308527 206.148019 
L 106.728687 201.091429 
L 99.676705 197.277619 
L 94.824687 192.61659 
L 93.418403 188.407219 
L 89.433397 179.536819 
L 82.920687 171.228886 
L 82.824882 170.666419 
L 81.682477 161.796019 
L 80.189194 152.925619 
L 77.805885 144.055219 
L 73.644548 135.184819 
L 71.016687 130.834717 
L 70.802109 126.314419 
L 70.370895 117.444019 
L 69.892171 108.573619 
L 69.472086 99.703219 
L 69.293805 90.832819 
L 69.293763 81.962419 
L 69.588067 73.092019 
L 70.080835 64.221619 
L 70.577236 55.351219 
L 70.982752 46.480819 
L 71.016687 45.867914 
L 77.079794 37.610419 
L 80.75901 28.740019 
L 82.199071 21.177617 
" style="fill:none;stroke:#238a8d;stroke-width:1.5;"/>
   </g>
   <g id="LineCollection_11">
    <path clip-path="url(#p1085632d67)" d="M 175.492913 10.999219 
L 178.152687 13.941635 
L 179.184091 19.869619 
L 181.23268 28.740019 
L 185.090445 37.610419 
L 190.056688 43.556983 
L 190.341928 46.480819 
L 191.253141 55.351219 
L 192.73224 64.221619 
L 196.254697 73.092019 
L 201.48373 78.537005 
" style="fill:none;stroke:#1f968b;stroke-width:1.5;"/>
    <path clip-path="url(#p1085632d67)" d="M 206.370034 103.122274 
L 207.522249 108.573619 
L 207.682985 117.444019 
L 205.789819 126.314419 
L 203.304669 135.184819 
L 202.232163 144.055219 
L 201.960688 147.527027 
L 195.933873 152.925619 
L 190.794736 161.796019 
L 190.056688 166.645562 
L 183.395215 170.666419 
L 178.152687 179.176681 
L 177.720333 179.536819 
L 166.859388 188.407219 
L 166.248687 189.164554 
L 154.937845 197.277619 
L 154.344687 197.726287 
L 142.440687 203.489921 
L 136.287735 206.148019 
L 130.536687 206.400887 
L 118.632687 206.457174 
L 114.947014 206.148019 
L 106.728687 202.559307 
L 96.962504 197.277619 
L 94.824687 195.223952 
L 92.547324 188.407219 
L 87.576133 179.536819 
L 82.920687 173.598103 
L 82.42133 170.666419 
L 81.058918 161.796019 
L 79.232724 152.925619 
L 76.253153 144.055219 
L 71.016687 135.196696 
L 71.016061 135.184819 
L 70.594671 126.314419 
L 70.056274 117.444019 
L 69.455229 108.573619 
L 68.919262 99.703219 
L 68.68139 90.832819 
L 68.656945 81.962419 
L 69.013852 73.092019 
L 69.648032 64.221619 
L 70.299847 55.351219 
L 70.833654 46.480819 
L 71.016687 43.175091 
L 75.102575 37.610419 
L 79.934604 28.740019 
L 82.139317 19.869619 
L 82.920687 14.265945 
L 86.266828 10.999219 
" style="fill:none;stroke:#1f968b;stroke-width:1.5;"/>
   </g>
   <g id="LineCollection_12">
    <path clip-path="url(#p1085632d67)" d="M 177.286296 10.999219 
L 178.152687 11.957677 
L 179.529278 19.869619 
L 181.847993 28.740019 
L 186.320435 37.610419 
L 190.056688 42.084196 
L 190.485609 46.480819 
L 191.492039 55.351219 
L 193.17725 64.221619 
L 197.290827 73.092019 
L 201.960688 77.954739 
L 202.017349 78.372515 
" style="fill:none;stroke:#20a386;stroke-width:1.5;"/>
    <path clip-path="url(#p1085632d67)" d="M 207.089689 103.017987 
L 208.466539 108.573619 
L 208.644143 117.444019 
L 206.408948 126.314419 
L 203.512219 135.184819 
L 202.288259 144.055219 
L 201.960688 148.244407 
L 196.734733 152.925619 
L 190.926731 161.796019 
L 190.056688 167.512867 
L 184.832104 170.666419 
L 178.223326 179.536819 
L 178.152687 179.695352 
L 167.097301 188.407219 
L 166.248687 189.459591 
L 155.349171 197.277619 
L 154.344687 198.037417 
L 142.440687 205.447717 
L 140.819632 206.148019 
L 130.536687 206.60015 
L 118.632687 206.739139 
L 111.585502 206.148019 
L 106.728687 204.027185 
L 94.824687 197.422376 
L 94.717143 197.277619 
L 91.676246 188.407219 
L 85.718869 179.536819 
L 82.920687 175.96732 
L 82.017779 170.666419 
L 80.435358 161.796019 
L 78.276254 152.925619 
L 74.700421 144.055219 
L 71.016687 137.823451 
L 70.87757 135.184819 
L 70.387234 126.314419 
L 69.741654 117.444019 
L 69.018286 108.573619 
L 68.366438 99.703219 
L 68.068975 90.832819 
L 68.020126 81.962419 
L 68.439637 73.092019 
L 69.215228 64.221619 
L 70.022458 55.351219 
L 70.684557 46.480819 
L 71.016687 40.482268 
L 73.125357 37.610419 
L 79.110199 28.740019 
L 81.830488 19.869619 
L 82.920687 12.051152 
L 83.998193 10.999219 
" style="fill:none;stroke:#20a386;stroke-width:1.5;"/>
   </g>
   <g id="LineCollection_13">
    <path clip-path="url(#p1085632d67)" d="M 178.258223 10.999219 
L 179.874465 19.869619 
L 182.463305 28.740019 
L 187.550425 37.610419 
L 190.056688 40.611409 
L 190.62929 46.480819 
L 191.730937 55.351219 
L 193.62226 64.221619 
L 198.326958 73.092019 
L 201.960688 76.875818 
L 202.65057 81.962419 
L 203.613873 87.556451 
" style="fill:none;stroke:#29af7f;stroke-width:1.5;"/>
    <path clip-path="url(#p1085632d67)" d="M 209.484872 111.950901 
L 209.605302 117.444019 
L 207.028078 126.314419 
L 203.719768 135.184819 
L 202.344354 144.055219 
L 201.960688 148.961788 
L 197.535594 152.925619 
L 191.058725 161.796019 
L 190.056688 168.380172 
L 186.268994 170.666419 
L 178.306863 179.536819 
L 178.152687 179.882832 
L 167.335213 188.407219 
L 166.248687 189.754628 
L 155.760498 197.277619 
L 154.344687 198.348547 
L 142.738074 206.148019 
L 142.440687 206.19695 
L 130.536687 206.799414 
L 118.632687 207.021103 
L 108.223989 206.148019 
L 106.728687 205.495063 
L 94.824687 198.104037 
L 94.210716 197.277619 
L 90.805167 188.407219 
L 83.861605 179.536819 
L 82.920687 178.336538 
L 81.614227 170.666419 
L 79.811799 161.796019 
L 77.319784 152.925619 
L 73.147689 144.055219 
L 71.016687 140.450205 
L 70.739078 135.184819 
L 70.179796 126.314419 
L 69.427034 117.444019 
L 68.581344 108.573619 
L 67.813614 99.703219 
L 67.456559 90.832819 
L 67.383308 81.962419 
L 67.865422 73.092019 
L 68.782425 64.221619 
L 69.745069 55.351219 
L 70.53546 46.480819 
L 71.016688 37.789446 
L 71.148139 37.610419 
L 78.285794 28.740019 
L 81.52166 19.869619 
L 82.863587 10.999219 
" style="fill:none;stroke:#29af7f;stroke-width:1.5;"/>
   </g>
   <g id="LineCollection_14">
    <path clip-path="url(#p1085632d67)" d="M 178.462395 10.999219 
L 180.219651 19.869619 
L 183.078618 28.740019 
L 188.780416 37.610419 
L 190.056688 39.138623 
L 190.77297 46.480819 
L 191.969835 55.351219 
L 194.06727 64.221619 
L 199.363088 73.092019 
L 201.960688 75.796896 
L 202.796901 81.962419 
L 203.873238 87.665202 
" style="fill:none;stroke:#3dbc74;stroke-width:1.5;"/>
    <path clip-path="url(#p1085632d67)" d="M 210.43335 111.857128 
L 210.56646 117.444019 
L 207.647208 126.314419 
L 203.927318 135.184819 
L 202.400449 144.055219 
L 201.960688 149.679168 
L 198.336454 152.925619 
L 191.19072 161.796019 
L 190.056688 169.247476 
L 187.705883 170.666419 
L 178.3904 179.536819 
L 178.152687 180.070312 
L 167.573126 188.407219 
L 166.248687 190.049665 
L 156.171824 197.277619 
L 154.344687 198.659676 
L 143.201075 206.148019 
L 142.440687 206.273132 
L 130.536687 206.998677 
L 118.632687 207.303068 
L 106.728687 206.314908 
L 106.146713 206.148019 
L 94.824687 198.785698 
L 93.704288 197.277619 
L 89.934088 188.407219 
L 82.920687 180.049005 
L 82.825262 179.536819 
L 81.210676 170.666419 
L 79.188239 161.796019 
L 76.363315 152.925619 
L 71.594958 144.055219 
L 71.016687 143.07696 
L 70.600587 135.184819 
L 69.972359 126.314419 
L 69.112413 117.444019 
L 68.144401 108.573619 
L 67.26079 99.703219 
L 66.844144 90.832819 
L 66.74649 81.962419 
L 67.291207 73.092019 
L 68.349622 64.221619 
L 69.46768 55.351219 
L 70.386362 46.480819 
L 70.950659 37.610419 
L 71.016687 36.664155 
L 77.461389 28.740019 
L 81.212831 19.869619 
L 82.754834 10.999219 
" style="fill:none;stroke:#3dbc74;stroke-width:1.5;"/>
   </g>
   <g id="LineCollection_15">
    <path clip-path="url(#p1085632d67)" d="M 178.666567 10.999219 
L 180.564838 19.869619 
L 183.69393 28.740019 
L 190.010406 37.610419 
L 190.056688 37.665836 
L 190.916651 46.480819 
L 192.208733 55.351219 
L 194.51228 64.221619 
L 200.399218 73.092019 
L 201.960688 74.717975 
L 202.943232 81.962419 
L 204.138293 87.78415 
" style="fill:none;stroke:#56c667;stroke-width:1.5;"/>
    <path clip-path="url(#p1085632d67)" d="M 211.38121 111.753172 
L 211.527619 117.444019 
L 208.266338 126.314419 
L 204.134867 135.184819 
L 202.456544 144.055219 
L 201.960688 150.396549 
L 199.137315 152.925619 
L 191.322714 161.796019 
L 190.056688 170.114781 
L 189.142773 170.666419 
L 178.473937 179.536819 
L 178.152687 180.257792 
L 167.811038 188.407219 
L 166.248687 190.344702 
L 156.583151 197.277619 
L 154.344687 198.970806 
L 143.664076 206.148019 
L 142.440687 206.349314 
L 130.536687 207.19794 
L 118.632687 207.585032 
L 106.728687 206.615517 
L 105.098432 206.148019 
L 94.824687 199.467359 
L 93.197861 197.277619 
L 89.063009 188.407219 
L 82.920687 181.087113 
L 82.631853 179.536819 
L 80.807125 170.666419 
L 78.56468 161.796019 
L 75.406845 152.925619 
L 71.016687 145.122173 
L 70.960276 144.055219 
L 70.462095 135.184819 
L 69.764922 126.314419 
L 68.797793 117.444019 
L 67.707459 108.573619 
L 66.707965 99.703219 
L 66.231729 90.832819 
L 66.109672 81.962419 
L 66.716992 73.092019 
L 67.916819 64.221619 
L 69.190291 55.351219 
L 70.237265 46.480819 
L 70.879929 37.610419 
L 71.016687 35.650501 
L 76.636984 28.740019 
L 80.904003 19.869619 
L 82.64608 10.999219 
" style="fill:none;stroke:#56c667;stroke-width:1.5;"/>
   </g>
   <g id="LineCollection_16">
    <path clip-path="url(#p1085632d67)" d="M 178.870739 10.999219 
L 180.910025 19.869619 
L 184.309243 28.740019 
L 190.056688 36.781866 
L 190.145872 37.610419 
L 191.060332 46.480819 
L 192.44763 55.351219 
L 194.95729 64.221619 
L 201.435349 73.092019 
L 201.960688 73.639053 
L 203.089563 81.962419 
L 204.409424 87.912754 
" style="fill:none;stroke:#75d054;stroke-width:1.5;"/>
    <path clip-path="url(#p1085632d67)" d="M 212.328402 111.639368 
L 212.488777 117.444019 
L 208.885467 126.314419 
L 204.342417 135.184819 
L 202.512639 144.055219 
L 201.960688 151.113929 
L 199.938175 152.925619 
L 191.454709 161.796019 
L 190.062153 170.666419 
L 190.056688 170.689811 
L 178.557474 179.536819 
L 178.152687 180.445271 
L 168.048951 188.407219 
L 166.248687 190.639739 
L 156.994477 197.277619 
L 154.344687 199.281936 
L 144.127077 206.148019 
L 142.440687 206.425496 
L 130.536687 207.397204 
L 118.632687 207.866997 
L 106.728687 206.916127 
L 104.05015 206.148019 
L 94.824687 200.14902 
L 92.691433 197.277619 
L 88.191931 188.407219 
L 82.920687 182.12522 
L 82.438443 179.536819 
L 80.403573 170.666419 
L 77.94112 161.796019 
L 74.450375 152.925619 
L 71.016687 146.822285 
L 70.870388 144.055219 
L 70.323604 135.184819 
L 69.557484 126.314419 
L 68.483173 117.444019 
L 67.270517 108.573619 
L 66.155141 99.703219 
L 65.619313 90.832819 
L 65.472853 81.962419 
L 66.142777 73.092019 
L 67.484016 64.221619 
L 68.912902 55.351219 
L 70.088167 46.480819 
L 70.809199 37.610419 
L 71.016687 34.636847 
L 75.812579 28.740019 
L 80.595175 19.869619 
L 82.537327 10.999219 
" style="fill:none;stroke:#75d054;stroke-width:1.5;"/>
   </g>
   <g id="LineCollection_17">
    <path clip-path="url(#p1085632d67)" d="M 179.074911 10.999219 
L 181.255212 19.869619 
L 184.924555 28.740019 
L 190.056688 35.920919 
L 190.238543 37.610419 
L 191.204013 46.480819 
L 192.686528 55.351219 
L 195.4023 64.221619 
L 201.960688 72.804904 
L 202.000249 73.092019 
L 203.235895 81.962419 
L 204.686977 88.050455 
" style="fill:none;stroke:#95d840;stroke-width:1.5;"/>
    <path clip-path="url(#p1085632d67)" d="M 213.274881 111.516068 
L 213.449935 117.444019 
L 209.504597 126.314419 
L 204.549967 135.184819 
L 202.568734 144.055219 
L 201.960688 151.83131 
L 200.739036 152.925619 
L 191.586703 161.796019 
L 190.077168 170.666419 
L 190.056688 170.75408 
L 178.641011 179.536819 
L 178.152687 180.632751 
L 168.286864 188.407219 
L 166.248687 190.934776 
L 157.405803 197.277619 
L 154.344687 199.593066 
L 144.590078 206.148019 
L 142.440687 206.501678 
L 130.536687 207.596467 
L 118.632687 208.148962 
L 106.728687 207.216736 
L 103.001868 206.148019 
L 94.824687 200.830681 
L 92.185005 197.277619 
L 87.320852 188.407219 
L 82.920687 183.163327 
L 82.245034 179.536819 
L 80.000022 170.666419 
L 77.317561 161.796019 
L 73.493905 152.925619 
L 71.016687 148.522398 
L 70.780501 144.055219 
L 70.185112 135.184819 
L 69.350047 126.314419 
L 68.168552 117.444019 
L 66.833574 108.573619 
L 65.602317 99.703219 
L 65.006898 90.832819 
L 64.836035 81.962419 
L 65.568562 73.092019 
L 67.051212 64.221619 
L 68.635513 55.351219 
L 69.93907 46.480819 
L 70.738468 37.610419 
L 71.016687 33.623193 
L 74.988174 28.740019 
L 80.286346 19.869619 
L 82.428573 10.999219 
" style="fill:none;stroke:#95d840;stroke-width:1.5;"/>
   </g>
   <g id="LineCollection_18">
    <path clip-path="url(#p1085632d67)" d="M 179.279083 10.999219 
L 181.600398 19.869619 
L 185.539867 28.740019 
L 190.056688 35.059971 
L 190.331214 37.610419 
L 191.347693 46.480819 
L 192.925426 55.351219 
L 195.84731 64.221619 
L 201.960688 72.222497 
L 202.080498 73.092019 
L 203.382226 81.962419 
L 205.643174 90.832819 
L 209.993118 99.703219 
L 213.864688 108.188059 
L 213.877985 108.573619 
L 213.882045 117.444019 
L 213.864688 118.20682 
L 210.123727 126.314419 
L 204.757516 135.184819 
L 202.624829 144.055219 
L 201.960688 152.54869 
L 201.539896 152.925619 
L 191.718698 161.796019 
L 190.092184 170.666419 
L 190.056688 170.81835 
L 178.724548 179.536819 
L 178.152687 180.820231 
L 168.524776 188.407219 
L 166.248687 191.229813 
L 157.81713 197.277619 
L 154.344687 199.904196 
L 145.05308 206.148019 
L 142.440687 206.577859 
L 130.536687 207.79573 
L 118.632687 208.430926 
L 106.728687 207.517345 
L 105.891309 207.277215 
" style="fill:none;stroke:#bade28;stroke-width:1.5;"/>
    <path clip-path="url(#p1085632d67)" d="M 87.959138 190.967779 
L 86.449773 188.407219 
L 82.920687 184.201434 
L 82.051624 179.536819 
L 79.59647 170.666419 
L 76.694001 161.796019 
L 72.537435 152.925619 
L 71.016687 150.22251 
L 70.690613 144.055219 
L 70.046621 135.184819 
L 69.142609 126.314419 
L 67.853932 117.444019 
L 66.396632 108.573619 
L 65.049493 99.703219 
L 64.394483 90.832819 
L 64.199217 81.962419 
L 64.994347 73.092019 
L 66.618409 64.221619 
L 68.358124 55.351219 
L 69.789972 46.480819 
L 70.667738 37.610419 
L 71.016687 32.609539 
L 74.163769 28.740019 
L 79.977518 19.869619 
L 82.31982 10.999219 
" style="fill:none;stroke:#bade28;stroke-width:1.5;"/>
   </g>
   <g id="LineCollection_19">
    <path clip-path="url(#p1085632d67)" d="M 179.483255 10.999219 
L 181.945585 19.869619 
L 186.15518 28.740019 
L 190.056688 34.199024 
L 190.423886 37.610419 
L 191.491374 46.480819 
L 193.164324 55.351219 
L 196.29232 64.221619 
L 201.960688 71.640091 
L 202.160747 73.092019 
L 203.528557 81.962419 
L 205.262527 88.350843 
" style="fill:none;stroke:#dde318;stroke-width:1.5;"/>
    <path clip-path="url(#p1085632d67)" d="M 213.920707 111.595573 
L 213.912578 117.444019 
L 213.864688 119.548629 
L 210.742856 126.314419 
L 204.965066 135.184819 
L 202.680924 144.055219 
L 201.966696 152.925619 
L 201.960688 152.980241 
L 191.850692 161.796019 
L 190.107199 170.666419 
L 190.056688 170.88262 
L 178.808085 179.536819 
L 178.152687 181.007711 
L 168.762689 188.407219 
L 166.248687 191.52485 
L 158.228456 197.277619 
L 154.344687 200.215326 
L 145.516081 206.148019 
L 142.440687 206.654041 
L 130.536687 207.994994 
L 118.632687 208.712891 
L 106.728687 207.817954 
L 100.905305 206.148019 
L 94.824687 202.194004 
L 91.17215 197.277619 
L 85.578694 188.407219 
L 82.920687 185.239542 
L 81.858215 179.536819 
L 79.192919 170.666419 
L 76.070441 161.796019 
L 71.580965 152.925619 
L 71.016687 151.922622 
L 70.600726 144.055219 
L 69.90813 135.184819 
L 68.935172 126.314419 
L 67.539312 117.444019 
L 65.95969 108.573619 
L 64.496669 99.703219 
L 63.782067 90.832819 
L 63.562398 81.962419 
L 64.420132 73.092019 
L 66.185606 64.221619 
L 68.080735 55.351219 
L 69.640875 46.480819 
L 70.597008 37.610419 
L 71.016687 31.595885 
L 73.339364 28.740019 
L 79.668689 19.869619 
L 82.211066 10.999219 
" style="fill:none;stroke:#dde318;stroke-width:1.5;"/>
   </g>
   <g id="LineCollection_20">
    <path clip-path="url(#p1085632d67)" d="M 179.687427 10.999219 
L 182.290772 19.869619 
L 186.770492 28.740019 
L 190.056688 33.338076 
L 190.516557 37.610419 
L 191.635055 46.480819 
L 193.403222 55.351219 
L 196.737329 64.221619 
L 201.960688 71.057685 
L 202.240996 73.092019 
L 203.674888 81.962419 
L 205.561017 88.512368 
" style="fill:none;stroke:#fde725;stroke-width:1.5;"/>
    <path clip-path="url(#p1085632d67)" d="M 213.961612 111.729696 
L 213.943111 117.444019 
L 213.864688 120.890438 
L 211.361986 126.314419 
L 205.172615 135.184819 
L 202.737019 144.055219 
L 201.979356 152.925619 
L 201.960688 153.095339 
L 191.982687 161.796019 
L 190.122215 170.666419 
L 190.056688 170.94689 
L 178.891622 179.536819 
L 178.152687 181.195191 
L 169.000601 188.407219 
L 166.248687 191.819887 
L 158.639783 197.277619 
L 154.344687 200.526456 
L 145.979082 206.148019 
L 142.440687 206.730223 
L 130.536687 208.194257 
L 118.632687 208.994855 
L 106.728687 208.118564 
L 99.857024 206.148019 
L 94.824687 202.875665 
L 90.665723 197.277619 
L 84.707616 188.407219 
L 82.920687 186.277649 
L 81.664805 179.536819 
L 78.789367 170.666419 
L 75.446882 161.796019 
L 71.016687 153.409632 
L 70.994602 152.925619 
L 70.510838 144.055219 
L 69.769638 135.184819 
L 68.727734 126.314419 
L 67.224692 117.444019 
L 65.522747 108.573619 
L 63.943845 99.703219 
L 63.169652 90.832819 
L 62.92558 81.962419 
L 63.845917 73.092019 
L 65.752803 64.221619 
L 67.803346 55.351219 
L 69.491777 46.480819 
L 70.526277 37.610419 
L 71.016687 30.582231 
L 72.514959 28.740019 
L 79.359861 19.869619 
L 82.102313 10.999219 
" style="fill:none;stroke:#fde725;stroke-width:1.5;"/>
   </g>
   <g id="LineCollection_21">
    <path clip-path="url(#p1085632d67)" d="M 179.891599 10.999219 
L 182.635958 19.869619 
L 187.385805 28.740019 
L 190.056688 32.477128 
L 190.609228 37.610419 
L 191.778735 46.480819 
L 193.64212 55.351219 
L 197.182339 64.221619 
L 201.960688 70.475278 
L 202.321245 73.092019 
L 203.82122 81.962419 
L 206.522236 90.832819 
L 209.232664 95.340793 
" style="fill:none;stroke:#440154;stroke-width:1.5;"/>
    <path clip-path="url(#p1085632d67)" d="M 213.554646 122.904185 
L 211.981116 126.314419 
L 205.380165 135.184819 
L 202.793115 144.055219 
L 201.992016 152.925619 
L 201.960688 153.210436 
L 192.114682 161.796019 
L 190.13723 170.666419 
L 190.056688 171.01116 
L 178.975159 179.536819 
L 178.152687 181.382671 
L 169.238514 188.407219 
L 166.248687 192.114925 
L 159.051109 197.277619 
L 154.344687 200.837586 
L 146.442083 206.148019 
L 142.440687 206.806405 
L 130.536687 208.39352 
L 118.632687 209.27682 
L 106.728687 208.419173 
L 98.808742 206.148019 
L 94.824687 203.557326 
L 90.159295 197.277619 
L 83.836537 188.407219 
L 82.920687 187.315756 
L 81.471396 179.536819 
L 78.385816 170.666419 
L 74.823322 161.796019 
L 71.016687 154.590034 
L 70.94074 152.925619 
L 70.420951 144.055219 
L 69.631147 135.184819 
L 68.520297 126.314419 
L 66.910071 117.444019 
L 65.085805 108.573619 
L 63.391021 99.703219 
L 62.557237 90.832819 
L 62.288762 81.962419 
L 63.271702 73.092019 
L 65.319999 64.221619 
L 67.525957 55.351219 
L 69.34268 46.480819 
L 70.455547 37.610419 
L 71.016687 29.568577 
L 71.690554 28.740019 
L 79.051032 19.869619 
L 81.993559 10.999219 
" style="fill:none;stroke:#440154;stroke-width:1.5;"/>
   </g>
   <g id="LineCollection_22">
    <path clip-path="url(#p1085632d67)" d="M 193.835071 10.999219 
L 196.860996 19.869619 
L 201.010352 28.740019 
L 201.960688 30.598285 
L 202.577533 37.610419 
L 203.795378 46.480819 
L 205.93678 55.351219 
L 209.782192 64.221619 
L 213.864688 70.516116 
L 214.344943 73.092019 
L 216.298323 81.962419 
L 218.845333 90.832819 
L 221.537667 99.703219 
L 222.464908 108.573619 
L 219.469584 117.444019 
L 216.418917 126.314419 
L 216.263296 127.073505 
" style="fill:none;stroke:#440154;stroke-width:1.5;"/>
    <path clip-path="url(#p1085632d67)" d="M 203.716639 155.308283 
L 202.207524 161.796019 
L 201.960688 163.107699 
L 192.840027 170.666419 
L 190.123856 179.536819 
L 190.056688 179.741885 
L 178.944359 188.407219 
L 178.152687 190.361191 
L 169.148788 197.277619 
L 166.248687 202.086745 
L 160.806306 206.148019 
L 154.344687 209.448754 
L 144.916743 215.018419 
L 142.440687 215.661132 
L 130.536687 219.002575 
L 118.632687 223.825091 
L 118.354869 223.888819 
L 106.728687 224.836704 
L 102.217757 223.888819 
L 94.824687 220.331977 
L 82.920687 216.232324 
L 82.460078 215.018419 
L 80.027128 206.148019 
L 75.666592 197.277619 
L 71.016687 190.978736 
L 70.789676 188.407219 
L 69.818797 179.536819 
L 68.257549 170.666419 
L 65.764108 161.796019 
L 61.245567 152.925619 
L 59.112687 149.180637 
L 58.995311 144.055219 
L 58.705244 135.184819 
L 58.184096 126.314419 
L 57.520873 117.444019 
L 57.197926 108.573619 
L 56.917596 99.703219 
L 56.859762 90.832819 
L 56.773119 81.962419 
L 56.795331 73.092019 
L 57.296753 64.221619 
L 58.165478 55.351219 
L 58.747982 46.480819 
L 59.083139 37.610419 
L 59.112687 36.861897 
L 65.578233 28.740019 
L 69.30533 19.869619 
L 70.736718 10.999219 
" style="fill:none;stroke:#440154;stroke-width:1.5;"/>
   </g>
   <g id="LineCollection_23">
    <path clip-path="url(#p1085632d67)" d="M 206.77287 10.999219 
L 209.985924 19.869619 
L 213.864688 27.693639 
L 213.952881 28.740019 
L 214.927182 37.610419 
L 216.807309 46.480819 
L 220.333803 55.351219 
L 225.768687 63.309978 
L 225.862772 64.221619 
L 226.716664 73.092019 
L 227.583627 81.962419 
L 228.207837 90.832819 
L 228.51894 99.703219 
L 228.252948 108.573619 
L 227.238067 117.444019 
L 226.270158 126.314419 
L 225.768687 133.295186 
L 224.119264 135.184819 
L 216.650292 144.055219 
L 214.270098 152.925619 
L 213.864688 155.116265 
L 206.422706 161.796019 
L 202.412391 170.666419 
L 201.960688 172.033857 
L 192.677477 179.536819 
L 190.056688 187.538145 
L 188.942197 188.407219 
L 178.86249 197.277619 
L 178.152687 198.827458 
L 168.792232 206.148019 
L 166.248687 209.497482 
L 158.600476 215.018419 
L 154.344687 217.607327 
L 144.718672 223.888819 
L 142.440687 224.888142 
L 130.536687 231.3036 
L 127.747659 232.759219 
L 118.632687 235.273268 
L 106.728687 239.084473 
L 94.824687 236.771144 
L 82.920687 232.996244 
L 82.646629 232.759219 
L 77.057789 223.888819 
L 71.016687 217.091863 
L 70.700828 215.018419 
L 69.069588 206.148019 
L 66.30406 197.277619 
L 61.36656 188.407219 
L 59.112687 184.950798 
L 58.984043 179.536819 
L 58.670294 170.666419 
L 58.091521 161.796019 
L 57.006452 152.925619 
L 55.096865 144.055219 
L 51.656709 135.184819 
L 47.208687 127.690296 
L 47.197932 126.57307 
" style="fill:none;stroke:#440154;stroke-width:1.5;"/>
    <path clip-path="url(#p1085632d67)" d="M 47.017348 90.573667 
L 47.004297 81.962419 
L 47.017195 73.092019 
L 47.111177 64.221619 
L 47.204411 55.351219 
L 47.208687 55.011324 
L 52.854394 46.480819 
L 56.373956 37.610419 
L 58.167262 28.740019 
L 58.935358 19.869619 
L 59.112687 16.559073 
L 64.363026 10.999219 
" style="fill:none;stroke:#440154;stroke-width:1.5;"/>
   </g>
   <g id="LineCollection_24">
    <path clip-path="url(#p1085632d67)" d="M 217.521504 10.999219 
L 221.426055 19.869619 
L 225.768687 26.447327 
L 225.91735 28.740019 
L 226.743552 37.610419 
L 228.529041 46.480819 
L 231.941708 55.351219 
L 237.513077 64.221619 
L 237.672687 64.517911 
L 237.827592 73.092019 
L 237.945096 81.962419 
L 238.009246 90.832819 
L 238.009149 99.703219 
L 237.922427 108.573619 
L 237.770614 117.444019 
L 237.672687 121.42701 
L 234.103965 126.314419 
L 228.665314 135.184819 
L 226.381053 144.055219 
L 225.768687 148.603446 
L 224.142503 150.166488 
" style="fill:none;stroke:#440154;stroke-width:1.5;"/>
    <path clip-path="url(#p1085632d67)" d="M 201.185681 181.624726 
L 192.842782 188.407219 
L 190.056688 196.211741 
L 188.72479 197.277619 
L 178.843377 206.148019 
L 178.152687 207.623306 
L 168.676656 215.018419 
L 166.248687 217.467795 
L 157.479463 223.888819 
L 154.344687 226.202417 
L 145.000674 232.759219 
L 142.440687 234.418313 
L 131.899525 241.629619 
L 130.536687 242.445803 
L 118.632687 249.255696 
L 115.997792 250.500019 
L 106.728687 252.539887 
L 94.824687 252.881788 
L 86.372981 250.500019 
L 82.920687 248.685852 
L 71.016687 244.394653 
L 70.559646 241.629619 
L 69.187839 232.759219 
L 65.86197 223.888819 
L 59.112687 215.473976 
L 59.091746 215.018419 
L 58.759751 206.148019 
L 58.228002 197.277619 
L 57.290132 188.407219 
L 55.550322 179.536819 
L 52.37005 170.666419 
L 47.208687 162.444848 
L 47.201481 161.796019 
L 47.09921 152.925619 
L 46.914921 144.055219 
L 46.594678 135.184819 
L 46.052135 126.314419 
L 45.084287 117.444019 
L 44.155745 108.573619 
L 44.013297 99.703219 
L 43.753728 90.832819 
L 43.612011 81.962419 
L 43.841308 73.092019 
L 45.116 64.221619 
L 46.08386 55.351219 
L 46.690725 46.480819 
L 47.034866 37.610419 
L 47.208687 29.024681 
L 47.443943 28.740019 
L 55.320031 19.869619 
L 58.1915 10.999219 
" style="fill:none;stroke:#440154;stroke-width:1.5;"/>
   </g>
   <g id="LineCollection_25">
    <path clip-path="url(#p1085632d67)" d="M 35.304687 55.022191 
L 39.282107 49.017486 
" style="fill:none;stroke:#440154;stroke-width:1.5;"/>
    <path clip-path="url(#p1085632d67)" d="M 226.979417 10.999219 
L 229.056254 19.869619 
L 233.694815 28.740019 
L 237.672687 33.981617 
L 237.803024 37.610419 
L 238.256696 46.480819 
L 239.081229 55.351219 
L 240.31361 64.221619 
L 241.734817 73.092019 
L 242.658468 81.962419 
L 243.121077 90.832819 
L 242.91963 99.703219 
L 241.851286 108.573619 
L 240.40833 117.444019 
L 239.138877 126.314419 
L 238.17751 135.184819 
L 237.672687 141.733694 
L 235.442131 144.055219 
L 227.963624 152.925619 
L 225.92206 161.796019 
L 225.768687 162.493676 
L 216.414765 170.666419 
L 215.304957 173.922554 
" style="fill:none;stroke:#440154;stroke-width:1.5;"/>
    <path clip-path="url(#p1085632d67)" d="M 188.815618 206.567157 
L 178.895644 215.018419 
L 178.152687 216.329994 
L 168.246588 223.888819 
L 166.248687 225.86463 
L 156.988492 232.759219 
L 154.344687 234.951693 
L 145.258448 241.629619 
L 142.440687 244.133303 
L 133.645794 250.500019 
L 130.536687 253.046154 
L 121.373265 259.370419 
L 118.632687 261.049599 
L 106.728687 267.083892 
L 101.049412 268.240819 
L 94.824687 268.592981 
L 92.930855 268.240819 
L 82.920687 263.481473 
L 71.016687 260.461587 
L 70.276488 259.370419 
L 66.126135 250.500019 
L 59.112687 241.808271 
L 59.101691 241.629619 
L 58.587523 232.759219 
L 57.604401 223.888819 
L 55.86804 215.018419 
L 52.97152 206.148019 
L 47.897804 197.277619 
L 47.208687 196.154336 
L 47.119136 188.407219 
L 46.940364 179.536819 
L 46.63096 170.666419 
L 46.086765 161.796019 
L 45.090655 152.925619 
L 43.232062 144.055219 
L 40.041015 135.184819 
L 35.304687 126.994072 
" style="fill:none;stroke:#440154;stroke-width:1.5;"/>
   </g>
   <g id="LineCollection_26">
    <path clip-path="url(#p1085632d67)" d="M 76.677941 277.111219 
L 71.016687 274.394833 
L 63.735943 268.240819 
L 59.112687 263.921561 
L 58.704743 259.370419 
L 57.513754 250.500019 
L 57.279726 249.667169 
" style="fill:none;stroke:#450457;stroke-width:1.5;"/>
    <path clip-path="url(#p1085632d67)" d="M 46.664347 205.387568 
L 46.178455 197.277619 
L 45.172704 188.407219 
L 43.396111 179.536819 
L 40.338157 170.666419 
L 35.304687 162.144934 
" style="fill:none;stroke:#450457;stroke-width:1.5;"/>
    <path clip-path="url(#p1085632d67)" d="M 35.304687 29.126684 
L 35.618558 28.740019 
L 43.850159 19.869619 
L 46.397162 10.999219 
" style="fill:none;stroke:#450457;stroke-width:1.5;"/>
    <path clip-path="url(#p1085632d67)" d="M 237.724214 10.999219 
L 238.09072 19.869619 
L 239.120745 28.740019 
L 241.483925 37.610419 
L 246.190931 46.480819 
L 249.576687 51.555565 
L 249.598963 55.351219 
L 249.66952 64.221619 
L 249.781888 73.092019 
L 249.913521 81.962419 
L 250.034611 90.832819 
L 249.984299 99.703219 
L 249.871252 108.573619 
L 249.741287 117.444019 
L 249.625994 126.314419 
L 249.576687 129.514141 
L 245.447129 135.184819 
L 240.034018 144.055219 
L 238.059524 152.925619 
L 237.949261 153.738915 
" style="fill:none;stroke:#450457;stroke-width:1.5;"/>
    <path clip-path="url(#p1085632d67)" d="M 211.260515 190.641832 
L 203.082186 197.277619 
L 201.960688 199.632935 
L 193.926731 206.148019 
L 190.056688 214.972083 
L 189.998801 215.018419 
L 178.835489 223.888819 
L 178.152687 224.923485 
L 167.860425 232.759219 
L 166.248687 234.410118 
L 156.646986 241.629619 
L 154.344687 243.7969 
L 145.490438 250.500019 
L 142.440687 253.831939 
L 135.085128 259.370419 
L 130.536687 264.289786 
L 125.068059 268.240819 
L 118.632687 273.02214 
L 111.99216 277.111219 
" style="fill:none;stroke:#450457;stroke-width:1.5;"/>
   </g>
   <g id="LineCollection_27">
    <path clip-path="url(#p1085632d67)" d="M 58.335263 277.111219 
L 56.102771 268.240819 
L 50.799087 259.370419 
L 49.128796 257.274454 
" style="fill:none;stroke:#482475;stroke-width:1.5;"/>
    <path clip-path="url(#p1085632d67)" d="M 41.814809 208.102457 
L 41.17062 206.148019 
L 35.806947 197.277619 
L 35.304687 196.484253 
" style="fill:none;stroke:#482475;stroke-width:1.5;"/>
    <path clip-path="url(#p1085632d67)" d="M 35.304687 13.907286 
L 38.204867 10.999219 
" style="fill:none;stroke:#482475;stroke-width:1.5;"/>
    <path clip-path="url(#p1085632d67)" d="M 239.493699 10.999219 
L 243.647581 19.869619 
L 249.576687 26.718841 
L 249.590983 28.740019 
L 249.671179 37.610419 
L 249.867531 46.480819 
L 250.296877 55.351219 
L 251.09831 64.221619 
L 252.349151 73.092019 
L 253.86131 81.962419 
L 255.275736 90.832819 
L 254.699665 99.703219 
L 253.537871 108.573619 
L 252.264223 117.444019 
L 251.164279 126.314419 
L 250.362373 135.184819 
L 249.80533 144.055219 
L 249.576687 148.0338 
L 248.356596 149.247733 
" style="fill:none;stroke:#482475;stroke-width:1.5;"/>
    <path clip-path="url(#p1085632d67)" d="M 219.444215 188.568853 
L 214.06138 197.277619 
L 213.864688 197.686906 
L 203.380299 206.148019 
L 201.960688 208.865546 
L 194.310509 215.018419 
L 190.056688 223.80401 
L 189.949458 223.888819 
L 178.728727 232.759219 
L 178.152687 233.550167 
L 167.568947 241.629619 
L 166.248687 242.977207 
L 156.335113 250.500019 
L 154.344687 252.648802 
L 145.604358 259.370419 
L 142.440687 263.493851 
L 136.295269 268.240819 
L 130.536687 275.427505 
L 128.276314 277.111219 
" style="fill:none;stroke:#482475;stroke-width:1.5;"/>
   </g>
   <g id="LineCollection_28">
    <path clip-path="url(#p1085632d67)" d="M 47.197228 277.111219 
L 46.973068 268.240819 
L 46.479786 259.370419 
L 45.461092 250.500019 
L 43.382769 241.629619 
L 39.169601 232.759219 
L 35.304687 227.116488 
" style="fill:none;stroke:#fde725;stroke-width:1.5;"/>
    <path clip-path="url(#p1085632d67)" d="M 249.602205 10.999219 
L 249.723799 19.869619 
L 250.045 28.740019 
L 250.882393 37.610419 
L 252.905615 46.480819 
L 257.276021 55.351219 
L 261.480687 61.45311 
L 261.493046 64.221619 
L 261.553016 73.092019 
L 261.65618 81.962419 
L 261.780709 90.832819 
L 261.809867 99.703219 
L 261.699275 108.573619 
L 261.606339 117.444019 
L 261.524056 126.314419 
L 261.480687 130.713768 
L 258.692419 135.184819 
L 253.579396 144.055219 
L 252.413355 147.889836 
" style="fill:none;stroke:#fde725;stroke-width:1.5;"/>
    <path clip-path="url(#p1085632d67)" d="M 226.25567 192.258914 
L 225.768687 193.408054 
L 220.996439 197.277619 
L 214.209855 206.148019 
L 213.864688 206.790022 
L 203.555564 215.018419 
L 201.960688 218.057321 
L 194.678631 223.888819 
L 190.056688 232.323889 
L 189.501259 232.759219 
L 178.625341 241.629619 
L 178.152687 242.228644 
L 167.319938 250.500019 
L 166.248687 251.587773 
L 156.088912 259.370419 
L 154.344687 261.453971 
L 145.612331 268.240819 
L 142.440687 272.909448 
L 137.046889 277.111219 
" style="fill:none;stroke:#fde725;stroke-width:1.5;"/>
   </g>
   <g id="line2d_20">
    <path clip-path="url(#p1085632d67)" d="M 406.987188 36.760113 
L 405.127119 36.453252 
L 366.351901 30.038222 
L 334.441821 25.066197 
L 308.414869 21.487205 
L 287.837726 18.955048 
L 271.960277 17.739612 
L 259.793344 17.53675 
L 250.684355 18.248665 
L 243.922786 19.442948 
L 238.696547 21.08247 
L 234.632031 23.229687 
L 231.150116 25.514773 
L 228.273909 27.743645 
L 226.259106 30.772965 
L 224.163942 33.803123 
L 222.284786 36.676582 
L 220.631071 39.815264 
L 219.163551 43.097341 
L 218.277883 46.429229 
L 217.382924 49.815084 
L 216.120507 53.363386 
L 215.115605 56.889686 
L 213.857698 60.014848 
L 213.502014 63.988842 
L 212.503745 67.783581 
L 211.801897 71.255926 
L 210.936489 74.686105 
L 210.321405 78.30449 
L 209.623285 81.865894 
L 209.019149 85.460201 
L 208.342646 89.078072 
L 207.56653 92.340198 
L 206.770199 95.492125 
L 206.498782 99.444474 
L 205.911999 102.929651 
L 205.126377 106.515247 
L 204.585769 110.513293 
L 203.844221 114.305774 
L 202.900296 118.547747 
L 202.34064 123.351773 
L 201.263425 128.644179 
L 201.287388 129.547687 
L 200.847218 130.243105 
L 200.335637 130.850911 
L 199.885419 131.4863 
L 199.395316 132.06249 
L 198.976678 132.650978 
L 198.51614 133.194122 
L 198.097769 133.737345 
L 197.67513 134.260308 
L 197.340942 134.854408 
L 197.022743 135.429514 
L 196.714343 136.03387 
L 196.435415 136.658684 
L 196.114036 137.205142 
L 195.886806 137.77698 
L 195.674236 138.356911 
L 195.45359 138.907552 
L 195.292244 139.511417 
L 195.114191 140.029524 
L 194.983873 140.58935 
L 194.833762 141.148387 
L 194.727843 141.709429 
L 194.648124 142.319045 
L 194.557869 142.895868 
L 194.494521 143.56236 
L 194.497576 143.656958 
L 194.484117 143.754 
L 194.468246 143.835168 
L 194.447826 143.897956 
L 194.422738 143.954338 
L 194.403605 144.006452 
L 194.380211 144.045729 
L 194.354544 144.066769 
L 194.318776 144.075508 
L 194.288665 144.090109 
L 194.272785 144.126373 
L 194.248179 144.138306 
L 194.231626 144.15276 
L 194.209705 144.163577 
L 194.185008 144.167432 
L 194.16863 144.177256 
L 194.148114 144.174222 
L 194.125584 144.166839 
L 194.111087 144.153754 
L 194.098777 144.14501 
L 194.080871 144.140398 
L 194.070049 144.120858 
L 194.052638 144.106021 
L 194.034193 144.077418 
" style="fill:none;stroke:#1f77b4;stroke-linecap:square;stroke-width:1.5;"/>
    <defs>
     <path d="M 0 1.5 
C 0.397805 1.5 0.77937 1.341951 1.06066 1.06066 
C 1.341951 0.77937 1.5 0.397805 1.5 0 
C 1.5 -0.397805 1.341951 -0.77937 1.06066 -1.06066 
C 0.77937 -1.341951 0.397805 -1.5 0 -1.5 
C -0.397805 -1.5 -0.77937 -1.341951 -1.06066 -1.06066 
C -1.341951 -0.77937 -1.5 -0.397805 -1.5 0 
C -1.5 0.397805 -1.341951 0.77937 -1.06066 1.06066 
C -0.77937 1.341951 -0.397805 1.5 0 1.5 
z
" id="mdd2cb1d750" style="stroke:#1f77b4;"/>
    </defs>
    <g clip-path="url(#p1085632d67)">
     <use style="fill:#1f77b4;stroke:#1f77b4;" x="1354.517801" xlink:href="#mdd2cb1d750" y="179.728969"/>
     <use style="fill:#1f77b4;stroke:#1f77b4;" x="1161.249875" xlink:href="#mdd2cb1d750" y="154.704725"/>
     <use style="fill:#1f77b4;stroke:#1f77b4;" x="999.048248" xlink:href="#mdd2cb1d750" y="132.193656"/>
     <use style="fill:#1f77b4;stroke:#1f77b4;" x="863.086607" xlink:href="#mdd2cb1d750" y="112.044694"/>
     <use style="fill:#1f77b4;stroke:#1f77b4;" x="749.207502" xlink:href="#mdd2cb1d750" y="94.188061"/>
     <use style="fill:#1f77b4;stroke:#1f77b4;" x="653.879505" xlink:href="#mdd2cb1d750" y="78.673676"/>
     <use style="fill:#1f77b4;stroke:#1f77b4;" x="574.125829" xlink:href="#mdd2cb1d750" y="65.285571"/>
     <use style="fill:#1f77b4;stroke:#1f77b4;" x="507.388127" xlink:href="#mdd2cb1d750" y="53.841015"/>
     <use style="fill:#1f77b4;stroke:#1f77b4;" x="451.672771" xlink:href="#mdd2cb1d750" y="44.132044"/>
     <use style="fill:#1f77b4;stroke:#1f77b4;" x="405.127119" xlink:href="#mdd2cb1d750" y="36.453252"/>
     <use style="fill:#1f77b4;stroke:#1f77b4;" x="366.351901" xlink:href="#mdd2cb1d750" y="30.038222"/>
     <use style="fill:#1f77b4;stroke:#1f77b4;" x="334.441821" xlink:href="#mdd2cb1d750" y="25.066197"/>
     <use style="fill:#1f77b4;stroke:#1f77b4;" x="308.414869" xlink:href="#mdd2cb1d750" y="21.487205"/>
     <use style="fill:#1f77b4;stroke:#1f77b4;" x="287.837726" xlink:href="#mdd2cb1d750" y="18.955048"/>
     <use style="fill:#1f77b4;stroke:#1f77b4;" x="271.960277" xlink:href="#mdd2cb1d750" y="17.739612"/>
     <use style="fill:#1f77b4;stroke:#1f77b4;" x="259.793344" xlink:href="#mdd2cb1d750" y="17.53675"/>
     <use style="fill:#1f77b4;stroke:#1f77b4;" x="250.684355" xlink:href="#mdd2cb1d750" y="18.248665"/>
     <use style="fill:#1f77b4;stroke:#1f77b4;" x="243.922786" xlink:href="#mdd2cb1d750" y="19.442948"/>
     <use style="fill:#1f77b4;stroke:#1f77b4;" x="238.696547" xlink:href="#mdd2cb1d750" y="21.08247"/>
     <use style="fill:#1f77b4;stroke:#1f77b4;" x="234.632031" xlink:href="#mdd2cb1d750" y="23.229687"/>
     <use style="fill:#1f77b4;stroke:#1f77b4;" x="231.150116" xlink:href="#mdd2cb1d750" y="25.514773"/>
     <use style="fill:#1f77b4;stroke:#1f77b4;" x="228.273909" xlink:href="#mdd2cb1d750" y="27.743645"/>
     <use style="fill:#1f77b4;stroke:#1f77b4;" x="226.259106" xlink:href="#mdd2cb1d750" y="30.772965"/>
     <use style="fill:#1f77b4;stroke:#1f77b4;" x="224.163942" xlink:href="#mdd2cb1d750" y="33.803123"/>
     <use style="fill:#1f77b4;stroke:#1f77b4;" x="222.284786" xlink:href="#mdd2cb1d750" y="36.676582"/>
     <use style="fill:#1f77b4;stroke:#1f77b4;" x="220.631071" xlink:href="#mdd2cb1d750" y="39.815264"/>
     <use style="fill:#1f77b4;stroke:#1f77b4;" x="219.163551" xlink:href="#mdd2cb1d750" y="43.097341"/>
     <use style="fill:#1f77b4;stroke:#1f77b4;" x="218.277883" xlink:href="#mdd2cb1d750" y="46.429229"/>
     <use style="fill:#1f77b4;stroke:#1f77b4;" x="217.382924" xlink:href="#mdd2cb1d750" y="49.815084"/>
     <use style="fill:#1f77b4;stroke:#1f77b4;" x="216.120507" xlink:href="#mdd2cb1d750" y="53.363386"/>
     <use style="fill:#1f77b4;stroke:#1f77b4;" x="215.115605" xlink:href="#mdd2cb1d750" y="56.889686"/>
     <use style="fill:#1f77b4;stroke:#1f77b4;" x="213.857698" xlink:href="#mdd2cb1d750" y="60.014848"/>
     <use style="fill:#1f77b4;stroke:#1f77b4;" x="213.502014" xlink:href="#mdd2cb1d750" y="63.988842"/>
     <use style="fill:#1f77b4;stroke:#1f77b4;" x="212.503745" xlink:href="#mdd2cb1d750" y="67.783581"/>
     <use style="fill:#1f77b4;stroke:#1f77b4;" x="211.801897" xlink:href="#mdd2cb1d750" y="71.255926"/>
     <use style="fill:#1f77b4;stroke:#1f77b4;" x="210.936489" xlink:href="#mdd2cb1d750" y="74.686105"/>
     <use style="fill:#1f77b4;stroke:#1f77b4;" x="210.321405" xlink:href="#mdd2cb1d750" y="78.30449"/>
     <use style="fill:#1f77b4;stroke:#1f77b4;" x="209.623285" xlink:href="#mdd2cb1d750" y="81.865894"/>
     <use style="fill:#1f77b4;stroke:#1f77b4;" x="209.019149" xlink:href="#mdd2cb1d750" y="85.460201"/>
     <use style="fill:#1f77b4;stroke:#1f77b4;" x="208.342646" xlink:href="#mdd2cb1d750" y="89.078072"/>
     <use style="fill:#1f77b4;stroke:#1f77b4;" x="207.56653" xlink:href="#mdd2cb1d750" y="92.340198"/>
     <use style="fill:#1f77b4;stroke:#1f77b4;" x="206.770199" xlink:href="#mdd2cb1d750" y="95.492125"/>
     <use style="fill:#1f77b4;stroke:#1f77b4;" x="206.498782" xlink:href="#mdd2cb1d750" y="99.444474"/>
     <use style="fill:#1f77b4;stroke:#1f77b4;" x="205.911999" xlink:href="#mdd2cb1d750" y="102.929651"/>
     <use style="fill:#1f77b4;stroke:#1f77b4;" x="205.126377" xlink:href="#mdd2cb1d750" y="106.515247"/>
     <use style="fill:#1f77b4;stroke:#1f77b4;" x="204.585769" xlink:href="#mdd2cb1d750" y="110.513293"/>
     <use style="fill:#1f77b4;stroke:#1f77b4;" x="203.844221" xlink:href="#mdd2cb1d750" y="114.305774"/>
     <use style="fill:#1f77b4;stroke:#1f77b4;" x="202.900296" xlink:href="#mdd2cb1d750" y="118.547747"/>
     <use style="fill:#1f77b4;stroke:#1f77b4;" x="202.34064" xlink:href="#mdd2cb1d750" y="123.351773"/>
     <use style="fill:#1f77b4;stroke:#1f77b4;" x="201.263425" xlink:href="#mdd2cb1d750" y="128.644179"/>
     <use style="fill:#1f77b4;stroke:#1f77b4;" x="201.287388" xlink:href="#mdd2cb1d750" y="129.547687"/>
     <use style="fill:#1f77b4;stroke:#1f77b4;" x="200.847218" xlink:href="#mdd2cb1d750" y="130.243105"/>
     <use style="fill:#1f77b4;stroke:#1f77b4;" x="200.335637" xlink:href="#mdd2cb1d750" y="130.850911"/>
     <use style="fill:#1f77b4;stroke:#1f77b4;" x="199.885419" xlink:href="#mdd2cb1d750" y="131.4863"/>
     <use style="fill:#1f77b4;stroke:#1f77b4;" x="199.395316" xlink:href="#mdd2cb1d750" y="132.06249"/>
     <use style="fill:#1f77b4;stroke:#1f77b4;" x="198.976678" xlink:href="#mdd2cb1d750" y="132.650978"/>
     <use style="fill:#1f77b4;stroke:#1f77b4;" x="198.51614" xlink:href="#mdd2cb1d750" y="133.194122"/>
     <use style="fill:#1f77b4;stroke:#1f77b4;" x="198.097769" xlink:href="#mdd2cb1d750" y="133.737345"/>
     <use style="fill:#1f77b4;stroke:#1f77b4;" x="197.67513" xlink:href="#mdd2cb1d750" y="134.260308"/>
     <use style="fill:#1f77b4;stroke:#1f77b4;" x="197.340942" xlink:href="#mdd2cb1d750" y="134.854408"/>
     <use style="fill:#1f77b4;stroke:#1f77b4;" x="197.022743" xlink:href="#mdd2cb1d750" y="135.429514"/>
     <use style="fill:#1f77b4;stroke:#1f77b4;" x="196.714343" xlink:href="#mdd2cb1d750" y="136.03387"/>
     <use style="fill:#1f77b4;stroke:#1f77b4;" x="196.435415" xlink:href="#mdd2cb1d750" y="136.658684"/>
     <use style="fill:#1f77b4;stroke:#1f77b4;" x="196.114036" xlink:href="#mdd2cb1d750" y="137.205142"/>
     <use style="fill:#1f77b4;stroke:#1f77b4;" x="195.886806" xlink:href="#mdd2cb1d750" y="137.77698"/>
     <use style="fill:#1f77b4;stroke:#1f77b4;" x="195.674236" xlink:href="#mdd2cb1d750" y="138.356911"/>
     <use style="fill:#1f77b4;stroke:#1f77b4;" x="195.45359" xlink:href="#mdd2cb1d750" y="138.907552"/>
     <use style="fill:#1f77b4;stroke:#1f77b4;" x="195.292244" xlink:href="#mdd2cb1d750" y="139.511417"/>
     <use style="fill:#1f77b4;stroke:#1f77b4;" x="195.114191" xlink:href="#mdd2cb1d750" y="140.029524"/>
     <use style="fill:#1f77b4;stroke:#1f77b4;" x="194.983873" xlink:href="#mdd2cb1d750" y="140.58935"/>
     <use style="fill:#1f77b4;stroke:#1f77b4;" x="194.833762" xlink:href="#mdd2cb1d750" y="141.148387"/>
     <use style="fill:#1f77b4;stroke:#1f77b4;" x="194.727843" xlink:href="#mdd2cb1d750" y="141.709429"/>
     <use style="fill:#1f77b4;stroke:#1f77b4;" x="194.648124" xlink:href="#mdd2cb1d750" y="142.319045"/>
     <use style="fill:#1f77b4;stroke:#1f77b4;" x="194.557869" xlink:href="#mdd2cb1d750" y="142.895868"/>
     <use style="fill:#1f77b4;stroke:#1f77b4;" x="194.494521" xlink:href="#mdd2cb1d750" y="143.56236"/>
     <use style="fill:#1f77b4;stroke:#1f77b4;" x="194.497576" xlink:href="#mdd2cb1d750" y="143.656958"/>
     <use style="fill:#1f77b4;stroke:#1f77b4;" x="194.484117" xlink:href="#mdd2cb1d750" y="143.754"/>
     <use style="fill:#1f77b4;stroke:#1f77b4;" x="194.468246" xlink:href="#mdd2cb1d750" y="143.835168"/>
     <use style="fill:#1f77b4;stroke:#1f77b4;" x="194.447826" xlink:href="#mdd2cb1d750" y="143.897956"/>
     <use style="fill:#1f77b4;stroke:#1f77b4;" x="194.422738" xlink:href="#mdd2cb1d750" y="143.954338"/>
     <use style="fill:#1f77b4;stroke:#1f77b4;" x="194.403605" xlink:href="#mdd2cb1d750" y="144.006452"/>
     <use style="fill:#1f77b4;stroke:#1f77b4;" x="194.380211" xlink:href="#mdd2cb1d750" y="144.045729"/>
     <use style="fill:#1f77b4;stroke:#1f77b4;" x="194.354544" xlink:href="#mdd2cb1d750" y="144.066769"/>
     <use style="fill:#1f77b4;stroke:#1f77b4;" x="194.318776" xlink:href="#mdd2cb1d750" y="144.075508"/>
     <use style="fill:#1f77b4;stroke:#1f77b4;" x="194.288665" xlink:href="#mdd2cb1d750" y="144.090109"/>
     <use style="fill:#1f77b4;stroke:#1f77b4;" x="194.272785" xlink:href="#mdd2cb1d750" y="144.126373"/>
     <use style="fill:#1f77b4;stroke:#1f77b4;" x="194.248179" xlink:href="#mdd2cb1d750" y="144.138306"/>
     <use style="fill:#1f77b4;stroke:#1f77b4;" x="194.231626" xlink:href="#mdd2cb1d750" y="144.15276"/>
     <use style="fill:#1f77b4;stroke:#1f77b4;" x="194.209705" xlink:href="#mdd2cb1d750" y="144.163577"/>
     <use style="fill:#1f77b4;stroke:#1f77b4;" x="194.185008" xlink:href="#mdd2cb1d750" y="144.167432"/>
     <use style="fill:#1f77b4;stroke:#1f77b4;" x="194.16863" xlink:href="#mdd2cb1d750" y="144.177256"/>
     <use style="fill:#1f77b4;stroke:#1f77b4;" x="194.148114" xlink:href="#mdd2cb1d750" y="144.174222"/>
     <use style="fill:#1f77b4;stroke:#1f77b4;" x="194.125584" xlink:href="#mdd2cb1d750" y="144.166839"/>
     <use style="fill:#1f77b4;stroke:#1f77b4;" x="194.111087" xlink:href="#mdd2cb1d750" y="144.153754"/>
     <use style="fill:#1f77b4;stroke:#1f77b4;" x="194.098777" xlink:href="#mdd2cb1d750" y="144.14501"/>
     <use style="fill:#1f77b4;stroke:#1f77b4;" x="194.080871" xlink:href="#mdd2cb1d750" y="144.140398"/>
     <use style="fill:#1f77b4;stroke:#1f77b4;" x="194.070049" xlink:href="#mdd2cb1d750" y="144.120858"/>
     <use style="fill:#1f77b4;stroke:#1f77b4;" x="194.052638" xlink:href="#mdd2cb1d750" y="144.106021"/>
     <use style="fill:#1f77b4;stroke:#1f77b4;" x="194.034193" xlink:href="#mdd2cb1d750" y="144.077418"/>
    </g>
   </g>
   <g id="patch_3">
    <path d="M 35.304688 277.111219 
L 35.304688 10.999219 
" style="fill:none;stroke:#000000;stroke-linecap:square;stroke-linejoin:miter;stroke-width:0.8;"/>
   </g>
   <g id="patch_4">
    <path d="M 392.424688 277.111219 
L 392.424688 10.999219 
" style="fill:none;stroke:#000000;stroke-linecap:square;stroke-linejoin:miter;stroke-width:0.8;"/>
   </g>
   <g id="patch_5">
    <path d="M 35.304687 277.111219 
L 392.424688 277.111219 
" style="fill:none;stroke:#000000;stroke-linecap:square;stroke-linejoin:miter;stroke-width:0.8;"/>
   </g>
   <g id="patch_6">
    <path d="M 35.304687 10.999219 
L 392.424688 10.999219 
" style="fill:none;stroke:#000000;stroke-linecap:square;stroke-linejoin:miter;stroke-width:0.8;"/>
   </g>
   <g id="text_20">
    <g clip-path="url(#p1085632d67)">
     <!-- 2.000 -->
     <g style="fill:#404688;" transform="translate(199.931103 117.834685)rotate(-273.277516)scale(0.06 -0.06)">
      <defs>
       <path d="M 10.6875 12.40625 
L 21 12.40625 
L 21 0 
L 10.6875 0 
z
" id="DejaVuSans-46"/>
      </defs>
      <use xlink:href="#DejaVuSans-50"/>
      <use x="63.623047" xlink:href="#DejaVuSans-46"/>
      <use x="95.410156" xlink:href="#DejaVuSans-48"/>
      <use x="159.033203" xlink:href="#DejaVuSans-48"/>
      <use x="222.65625" xlink:href="#DejaVuSans-48"/>
     </g>
    </g>
   </g>
   <g id="text_21">
    <g clip-path="url(#p1085632d67)">
     <!-- 2.500 -->
     <g style="fill:#39558c;" transform="translate(180.839755 74.761913)rotate(-293.678431)scale(0.06 -0.06)">
      <use xlink:href="#DejaVuSans-50"/>
      <use x="63.623047" xlink:href="#DejaVuSans-46"/>
      <use x="95.410156" xlink:href="#DejaVuSans-53"/>
      <use x="159.033203" xlink:href="#DejaVuSans-48"/>
      <use x="222.65625" xlink:href="#DejaVuSans-48"/>
     </g>
    </g>
   </g>
   <g id="text_22">
    <g clip-path="url(#p1085632d67)">
     <!-- 2.500 -->
     <g style="fill:#39558c;" transform="translate(195.459539 85.171693)rotate(-308.754888)scale(0.06 -0.06)">
      <use xlink:href="#DejaVuSans-50"/>
      <use x="63.623047" xlink:href="#DejaVuSans-46"/>
      <use x="95.410156" xlink:href="#DejaVuSans-53"/>
      <use x="159.033203" xlink:href="#DejaVuSans-48"/>
      <use x="222.65625" xlink:href="#DejaVuSans-48"/>
     </g>
    </g>
   </g>
   <g id="text_23">
    <g clip-path="url(#p1085632d67)">
     <!-- 3.000 -->
     <g style="fill:#33638d;" transform="translate(108.499331 197.390294)rotate(-349.826844)scale(0.06 -0.06)">
      <defs>
       <path d="M 40.578125 39.3125 
Q 47.65625 37.796875 51.625 33 
Q 55.609375 28.21875 55.609375 21.1875 
Q 55.609375 10.40625 48.1875 4.484375 
Q 40.765625 -1.421875 27.09375 -1.421875 
Q 22.515625 -1.421875 17.65625 -0.515625 
Q 12.796875 0.390625 7.625 2.203125 
L 7.625 11.71875 
Q 11.71875 9.328125 16.59375 8.109375 
Q 21.484375 6.890625 26.8125 6.890625 
Q 36.078125 6.890625 40.9375 10.546875 
Q 45.796875 14.203125 45.796875 21.1875 
Q 45.796875 27.640625 41.28125 31.265625 
Q 36.765625 34.90625 28.71875 34.90625 
L 20.21875 34.90625 
L 20.21875 43.015625 
L 29.109375 43.015625 
Q 36.375 43.015625 40.234375 45.921875 
Q 44.09375 48.828125 44.09375 54.296875 
Q 44.09375 59.90625 40.109375 62.90625 
Q 36.140625 65.921875 28.71875 65.921875 
Q 24.65625 65.921875 20.015625 65.03125 
Q 15.375 64.15625 9.8125 62.3125 
L 9.8125 71.09375 
Q 15.4375 72.65625 20.34375 73.4375 
Q 25.25 74.21875 29.59375 74.21875 
Q 40.828125 74.21875 47.359375 69.109375 
Q 53.90625 64.015625 53.90625 55.328125 
Q 53.90625 49.265625 50.4375 45.09375 
Q 46.96875 40.921875 40.578125 39.3125 
z
" id="DejaVuSans-51"/>
      </defs>
      <use xlink:href="#DejaVuSans-51"/>
      <use x="63.623047" xlink:href="#DejaVuSans-46"/>
      <use x="95.410156" xlink:href="#DejaVuSans-48"/>
      <use x="159.033203" xlink:href="#DejaVuSans-48"/>
      <use x="222.65625" xlink:href="#DejaVuSans-48"/>
     </g>
    </g>
   </g>
   <g id="text_24">
    <g clip-path="url(#p1085632d67)">
     <!-- 3.500 -->
     <g style="fill:#2d718e;" transform="translate(88.288386 172.264458)rotate(-292.840382)scale(0.06 -0.06)">
      <use xlink:href="#DejaVuSans-51"/>
      <use x="63.623047" xlink:href="#DejaVuSans-46"/>
      <use x="95.410156" xlink:href="#DejaVuSans-53"/>
      <use x="159.033203" xlink:href="#DejaVuSans-48"/>
      <use x="222.65625" xlink:href="#DejaVuSans-48"/>
     </g>
    </g>
   </g>
   <g id="text_25">
    <g clip-path="url(#p1085632d67)">
     <!-- 4.000 -->
     <g style="fill:#287d8e;" transform="translate(172.911258 10.907424)rotate(-295.905355)scale(0.06 -0.06)">
      <defs>
       <path d="M 37.796875 64.3125 
L 12.890625 25.390625 
L 37.796875 25.390625 
z
M 35.203125 72.90625 
L 47.609375 72.90625 
L 47.609375 25.390625 
L 58.015625 25.390625 
L 58.015625 17.1875 
L 47.609375 17.1875 
L 47.609375 0 
L 37.796875 0 
L 37.796875 17.1875 
L 4.890625 17.1875 
L 4.890625 26.703125 
z
" id="DejaVuSans-52"/>
      </defs>
      <use xlink:href="#DejaVuSans-52"/>
      <use x="63.623047" xlink:href="#DejaVuSans-46"/>
      <use x="95.410156" xlink:href="#DejaVuSans-48"/>
      <use x="159.033203" xlink:href="#DejaVuSans-48"/>
      <use x="222.65625" xlink:href="#DejaVuSans-48"/>
     </g>
    </g>
   </g>
   <g id="text_26">
    <g clip-path="url(#p1085632d67)">
     <!-- 4.500 -->
     <g style="fill:#238a8d;" transform="translate(84.139937 18.561078)rotate(-48.920327)scale(0.06 -0.06)">
      <use xlink:href="#DejaVuSans-52"/>
      <use x="63.623047" xlink:href="#DejaVuSans-46"/>
      <use x="95.410156" xlink:href="#DejaVuSans-53"/>
      <use x="159.033203" xlink:href="#DejaVuSans-48"/>
      <use x="222.65625" xlink:href="#DejaVuSans-48"/>
     </g>
    </g>
   </g>
   <g id="text_27">
    <g clip-path="url(#p1085632d67)">
     <!-- 5.000 -->
     <g style="fill:#1f968b;" transform="translate(200.401473 82.688943)rotate(-280.482655)scale(0.06 -0.06)">
      <use xlink:href="#DejaVuSans-53"/>
      <use x="63.623047" xlink:href="#DejaVuSans-46"/>
      <use x="95.410156" xlink:href="#DejaVuSans-48"/>
      <use x="159.033203" xlink:href="#DejaVuSans-48"/>
      <use x="222.65625" xlink:href="#DejaVuSans-48"/>
     </g>
    </g>
   </g>
   <g id="text_28">
    <g clip-path="url(#p1085632d67)">
     <!-- 5.500 -->
     <g style="fill:#20a386;" transform="translate(200.488179 82.772817)rotate(-281.941606)scale(0.06 -0.06)">
      <use xlink:href="#DejaVuSans-53"/>
      <use x="63.623047" xlink:href="#DejaVuSans-46"/>
      <use x="95.410156" xlink:href="#DejaVuSans-53"/>
      <use x="159.033203" xlink:href="#DejaVuSans-48"/>
      <use x="222.65625" xlink:href="#DejaVuSans-48"/>
     </g>
    </g>
   </g>
   <g id="text_29">
    <g clip-path="url(#p1085632d67)">
     <!-- 6.000 -->
     <g style="fill:#29af7f;" transform="translate(202.871519 91.933914)rotate(-286.432127)scale(0.06 -0.06)">
      <defs>
       <path d="M 33.015625 40.375 
Q 26.375 40.375 22.484375 35.828125 
Q 18.609375 31.296875 18.609375 23.390625 
Q 18.609375 15.53125 22.484375 10.953125 
Q 26.375 6.390625 33.015625 6.390625 
Q 39.65625 6.390625 43.53125 10.953125 
Q 47.40625 15.53125 47.40625 23.390625 
Q 47.40625 31.296875 43.53125 35.828125 
Q 39.65625 40.375 33.015625 40.375 
z
M 52.59375 71.296875 
L 52.59375 62.3125 
Q 48.875 64.0625 45.09375 64.984375 
Q 41.3125 65.921875 37.59375 65.921875 
Q 27.828125 65.921875 22.671875 59.328125 
Q 17.53125 52.734375 16.796875 39.40625 
Q 19.671875 43.65625 24.015625 45.921875 
Q 28.375 48.1875 33.59375 48.1875 
Q 44.578125 48.1875 50.953125 41.515625 
Q 57.328125 34.859375 57.328125 23.390625 
Q 57.328125 12.15625 50.6875 5.359375 
Q 44.046875 -1.421875 33.015625 -1.421875 
Q 20.359375 -1.421875 13.671875 8.265625 
Q 6.984375 17.96875 6.984375 36.375 
Q 6.984375 53.65625 15.1875 63.9375 
Q 23.390625 74.21875 37.203125 74.21875 
Q 40.921875 74.21875 44.703125 73.484375 
Q 48.484375 72.75 52.59375 71.296875 
z
" id="DejaVuSans-54"/>
      </defs>
      <use xlink:href="#DejaVuSans-54"/>
      <use x="63.623047" xlink:href="#DejaVuSans-46"/>
      <use x="95.410156" xlink:href="#DejaVuSans-48"/>
      <use x="159.033203" xlink:href="#DejaVuSans-48"/>
      <use x="222.65625" xlink:href="#DejaVuSans-48"/>
     </g>
    </g>
   </g>
   <g id="text_30">
    <g clip-path="url(#p1085632d67)">
     <!-- 6.500 -->
     <g style="fill:#3dbc74;" transform="translate(203.23496 92.072504)rotate(-288.34712)scale(0.06 -0.06)">
      <use xlink:href="#DejaVuSans-54"/>
      <use x="63.623047" xlink:href="#DejaVuSans-46"/>
      <use x="95.410156" xlink:href="#DejaVuSans-53"/>
      <use x="159.033203" xlink:href="#DejaVuSans-48"/>
      <use x="222.65625" xlink:href="#DejaVuSans-48"/>
     </g>
    </g>
   </g>
   <g id="text_31">
    <g clip-path="url(#p1085632d67)">
     <!-- 7.000 -->
     <g style="fill:#56c667;" transform="translate(203.608599 92.216339)rotate(-290.220591)scale(0.06 -0.06)">
      <defs>
       <path d="M 8.203125 72.90625 
L 55.078125 72.90625 
L 55.078125 68.703125 
L 28.609375 0 
L 18.3125 0 
L 43.21875 64.59375 
L 8.203125 64.59375 
z
" id="DejaVuSans-55"/>
      </defs>
      <use xlink:href="#DejaVuSans-55"/>
      <use x="63.623047" xlink:href="#DejaVuSans-46"/>
      <use x="95.410156" xlink:href="#DejaVuSans-48"/>
      <use x="159.033203" xlink:href="#DejaVuSans-48"/>
      <use x="222.65625" xlink:href="#DejaVuSans-48"/>
     </g>
    </g>
   </g>
   <g id="text_32">
    <g clip-path="url(#p1085632d67)">
     <!-- 7.500 -->
     <g style="fill:#75d054;" transform="translate(203.992715 92.364517)rotate(-292.050007)scale(0.06 -0.06)">
      <use xlink:href="#DejaVuSans-55"/>
      <use x="63.623047" xlink:href="#DejaVuSans-46"/>
      <use x="95.410156" xlink:href="#DejaVuSans-53"/>
      <use x="159.033203" xlink:href="#DejaVuSans-48"/>
      <use x="222.65625" xlink:href="#DejaVuSans-48"/>
     </g>
    </g>
   </g>
   <g id="text_33">
    <g clip-path="url(#p1085632d67)">
     <!-- 8.000 -->
     <g style="fill:#95d840;" transform="translate(204.387464 92.516161)rotate(-293.833311)scale(0.06 -0.06)">
      <defs>
       <path d="M 31.78125 34.625 
Q 24.75 34.625 20.71875 30.859375 
Q 16.703125 27.09375 16.703125 20.515625 
Q 16.703125 13.921875 20.71875 10.15625 
Q 24.75 6.390625 31.78125 6.390625 
Q 38.8125 6.390625 42.859375 10.171875 
Q 46.921875 13.96875 46.921875 20.515625 
Q 46.921875 27.09375 42.890625 30.859375 
Q 38.875 34.625 31.78125 34.625 
z
M 21.921875 38.8125 
Q 15.578125 40.375 12.03125 44.71875 
Q 8.5 49.078125 8.5 55.328125 
Q 8.5 64.0625 14.71875 69.140625 
Q 20.953125 74.21875 31.78125 74.21875 
Q 42.671875 74.21875 48.875 69.140625 
Q 55.078125 64.0625 55.078125 55.328125 
Q 55.078125 49.078125 51.53125 44.71875 
Q 48 40.375 41.703125 38.8125 
Q 48.828125 37.15625 52.796875 32.3125 
Q 56.78125 27.484375 56.78125 20.515625 
Q 56.78125 9.90625 50.3125 4.234375 
Q 43.84375 -1.421875 31.78125 -1.421875 
Q 19.734375 -1.421875 13.25 4.234375 
Q 6.78125 9.90625 6.78125 20.515625 
Q 6.78125 27.484375 10.78125 32.3125 
Q 14.796875 37.15625 21.921875 38.8125 
z
M 18.3125 54.390625 
Q 18.3125 48.734375 21.84375 45.5625 
Q 25.390625 42.390625 31.78125 42.390625 
Q 38.140625 42.390625 41.71875 45.5625 
Q 45.3125 48.734375 45.3125 54.390625 
Q 45.3125 60.0625 41.71875 63.234375 
Q 38.140625 66.40625 31.78125 66.40625 
Q 25.390625 66.40625 21.84375 63.234375 
Q 18.3125 60.0625 18.3125 54.390625 
z
" id="DejaVuSans-56"/>
      </defs>
      <use xlink:href="#DejaVuSans-56"/>
      <use x="63.623047" xlink:href="#DejaVuSans-46"/>
      <use x="95.410156" xlink:href="#DejaVuSans-48"/>
      <use x="159.033203" xlink:href="#DejaVuSans-48"/>
      <use x="222.65625" xlink:href="#DejaVuSans-48"/>
     </g>
    </g>
   </g>
   <g id="text_34">
    <g clip-path="url(#p1085632d67)">
     <!-- 8.500 -->
     <g style="fill:#bade28;" transform="translate(87.497775 196.73545)rotate(-315.985775)scale(0.06 -0.06)">
      <use xlink:href="#DejaVuSans-56"/>
      <use x="63.623047" xlink:href="#DejaVuSans-46"/>
      <use x="95.410156" xlink:href="#DejaVuSans-53"/>
      <use x="159.033203" xlink:href="#DejaVuSans-48"/>
      <use x="222.65625" xlink:href="#DejaVuSans-48"/>
     </g>
    </g>
   </g>
   <g id="text_35">
    <g clip-path="url(#p1085632d67)">
     <!-- 9.000 -->
     <g style="fill:#dde318;" transform="translate(205.516147 92.595837)rotate(-294.738829)scale(0.06 -0.06)">
      <defs>
       <path d="M 10.984375 1.515625 
L 10.984375 10.5 
Q 14.703125 8.734375 18.5 7.8125 
Q 22.3125 6.890625 25.984375 6.890625 
Q 35.75 6.890625 40.890625 13.453125 
Q 46.046875 20.015625 46.78125 33.40625 
Q 43.953125 29.203125 39.59375 26.953125 
Q 35.25 24.703125 29.984375 24.703125 
Q 19.046875 24.703125 12.671875 31.3125 
Q 6.296875 37.9375 6.296875 49.421875 
Q 6.296875 60.640625 12.9375 67.421875 
Q 19.578125 74.21875 30.609375 74.21875 
Q 43.265625 74.21875 49.921875 64.515625 
Q 56.59375 54.828125 56.59375 36.375 
Q 56.59375 19.140625 48.40625 8.859375 
Q 40.234375 -1.421875 26.421875 -1.421875 
Q 22.703125 -1.421875 18.890625 -0.6875 
Q 15.09375 0.046875 10.984375 1.515625 
z
M 30.609375 32.421875 
Q 37.25 32.421875 41.125 36.953125 
Q 45.015625 41.5 45.015625 49.421875 
Q 45.015625 57.28125 41.125 61.84375 
Q 37.25 66.40625 30.609375 66.40625 
Q 23.96875 66.40625 20.09375 61.84375 
Q 16.21875 57.28125 16.21875 49.421875 
Q 16.21875 41.5 20.09375 36.953125 
Q 23.96875 32.421875 30.609375 32.421875 
z
" id="DejaVuSans-57"/>
      </defs>
      <use xlink:href="#DejaVuSans-57"/>
      <use x="63.623047" xlink:href="#DejaVuSans-46"/>
      <use x="95.410156" xlink:href="#DejaVuSans-48"/>
      <use x="159.033203" xlink:href="#DejaVuSans-48"/>
      <use x="222.65625" xlink:href="#DejaVuSans-48"/>
     </g>
    </g>
   </g>
   <g id="text_36">
    <g clip-path="url(#p1085632d67)">
     <!-- 9.500 -->
     <g style="fill:#fde725;" transform="translate(206.264799 92.505869)rotate(-293.714837)scale(0.06 -0.06)">
      <use xlink:href="#DejaVuSans-57"/>
      <use x="63.623047" xlink:href="#DejaVuSans-46"/>
      <use x="95.410156" xlink:href="#DejaVuSans-53"/>
      <use x="159.033203" xlink:href="#DejaVuSans-48"/>
      <use x="222.65625" xlink:href="#DejaVuSans-48"/>
     </g>
    </g>
   </g>
   <g id="text_37">
    <g clip-path="url(#p1085632d67)">
     <!-- 10.000 -->
     <g style="fill:#440154;" transform="translate(210.966843 98.394332)rotate(-277.726656)scale(0.06 -0.06)">
      <use xlink:href="#DejaVuSans-49"/>
      <use x="63.623047" xlink:href="#DejaVuSans-48"/>
      <use x="127.246094" xlink:href="#DejaVuSans-46"/>
      <use x="159.033203" xlink:href="#DejaVuSans-48"/>
      <use x="222.65625" xlink:href="#DejaVuSans-48"/>
      <use x="286.279297" xlink:href="#DejaVuSans-48"/>
     </g>
    </g>
   </g>
   <g id="text_38">
    <g clip-path="url(#p1085632d67)">
     <!-- 100.000 -->
     <g style="fill:#440154;" transform="translate(209.923225 154.949668)rotate(-64.042818)scale(0.06 -0.06)">
      <use xlink:href="#DejaVuSans-49"/>
      <use x="63.623047" xlink:href="#DejaVuSans-48"/>
      <use x="127.246094" xlink:href="#DejaVuSans-48"/>
      <use x="190.869141" xlink:href="#DejaVuSans-46"/>
      <use x="222.65625" xlink:href="#DejaVuSans-48"/>
      <use x="286.279297" xlink:href="#DejaVuSans-48"/>
      <use x="349.902344" xlink:href="#DejaVuSans-48"/>
     </g>
    </g>
   </g>
   <g id="text_39">
    <g clip-path="url(#p1085632d67)">
     <!-- 1000.000 -->
     <g style="fill:#440154;" transform="translate(45.331886 94.267303)rotate(-270.283638)scale(0.06 -0.06)">
      <use xlink:href="#DejaVuSans-49"/>
      <use x="63.623047" xlink:href="#DejaVuSans-48"/>
      <use x="127.246094" xlink:href="#DejaVuSans-48"/>
      <use x="190.869141" xlink:href="#DejaVuSans-48"/>
      <use x="254.492188" xlink:href="#DejaVuSans-46"/>
      <use x="286.279297" xlink:href="#DejaVuSans-48"/>
      <use x="349.902344" xlink:href="#DejaVuSans-48"/>
      <use x="413.525391" xlink:href="#DejaVuSans-48"/>
     </g>
    </g>
   </g>
   <g id="text_40">
    <g clip-path="url(#p1085632d67)">
     <!-- 10000.000 -->
     <g style="fill:#440154;" transform="translate(205.873777 180.870768)rotate(-54.831917)scale(0.06 -0.06)">
      <use xlink:href="#DejaVuSans-49"/>
      <use x="63.623047" xlink:href="#DejaVuSans-48"/>
      <use x="127.246094" xlink:href="#DejaVuSans-48"/>
      <use x="190.869141" xlink:href="#DejaVuSans-48"/>
      <use x="254.492188" xlink:href="#DejaVuSans-48"/>
      <use x="318.115234" xlink:href="#DejaVuSans-46"/>
      <use x="349.902344" xlink:href="#DejaVuSans-48"/>
      <use x="413.525391" xlink:href="#DejaVuSans-48"/>
      <use x="477.148438" xlink:href="#DejaVuSans-48"/>
     </g>
    </g>
   </g>
   <g id="text_41">
    <g clip-path="url(#p1085632d67)">
     <!-- 100000.000 -->
     <g style="fill:#440154;" transform="translate(44.273496 46.849939)rotate(-78.844784)scale(0.06 -0.06)">
      <use xlink:href="#DejaVuSans-49"/>
      <use x="63.623047" xlink:href="#DejaVuSans-48"/>
      <use x="127.246094" xlink:href="#DejaVuSans-48"/>
      <use x="190.869141" xlink:href="#DejaVuSans-48"/>
      <use x="254.492188" xlink:href="#DejaVuSans-48"/>
      <use x="318.115234" xlink:href="#DejaVuSans-48"/>
      <use x="381.738281" xlink:href="#DejaVuSans-46"/>
      <use x="413.525391" xlink:href="#DejaVuSans-48"/>
      <use x="477.148438" xlink:href="#DejaVuSans-48"/>
      <use x="540.771484" xlink:href="#DejaVuSans-48"/>
     </g>
    </g>
   </g>
   <g id="text_42">
    <g clip-path="url(#p1085632d67)">
     <!-- 100000.000 -->
     <g style="fill:#440154;" transform="translate(191.18104 204.941147)rotate(-48.480925)scale(0.06 -0.06)">
      <use xlink:href="#DejaVuSans-49"/>
      <use x="63.623047" xlink:href="#DejaVuSans-48"/>
      <use x="127.246094" xlink:href="#DejaVuSans-48"/>
      <use x="190.869141" xlink:href="#DejaVuSans-48"/>
      <use x="254.492188" xlink:href="#DejaVuSans-48"/>
      <use x="318.115234" xlink:href="#DejaVuSans-48"/>
      <use x="381.738281" xlink:href="#DejaVuSans-46"/>
      <use x="413.525391" xlink:href="#DejaVuSans-48"/>
      <use x="477.148438" xlink:href="#DejaVuSans-48"/>
      <use x="540.771484" xlink:href="#DejaVuSans-48"/>
     </g>
    </g>
   </g>
   <g id="text_43">
    <g clip-path="url(#p1085632d67)">
     <!-- 1000000.000 -->
     <g style="fill:#450457;" transform="translate(40.645682 209.771812)rotate(-284.325882)scale(0.06 -0.06)">
      <use xlink:href="#DejaVuSans-49"/>
      <use x="63.623047" xlink:href="#DejaVuSans-48"/>
      <use x="127.246094" xlink:href="#DejaVuSans-48"/>
      <use x="190.869141" xlink:href="#DejaVuSans-48"/>
      <use x="254.492188" xlink:href="#DejaVuSans-48"/>
      <use x="318.115234" xlink:href="#DejaVuSans-48"/>
      <use x="381.738281" xlink:href="#DejaVuSans-48"/>
      <use x="445.361328" xlink:href="#DejaVuSans-46"/>
      <use x="477.148438" xlink:href="#DejaVuSans-48"/>
      <use x="540.771484" xlink:href="#DejaVuSans-48"/>
      <use x="604.394531" xlink:href="#DejaVuSans-48"/>
     </g>
    </g>
   </g>
   <g id="text_44">
    <g clip-path="url(#p1085632d67)">
     <!-- 1000000.000 -->
     <g style="fill:#450457;" transform="translate(215.434921 190.253046)rotate(-54.354619)scale(0.06 -0.06)">
      <use xlink:href="#DejaVuSans-49"/>
      <use x="63.623047" xlink:href="#DejaVuSans-48"/>
      <use x="127.246094" xlink:href="#DejaVuSans-48"/>
      <use x="190.869141" xlink:href="#DejaVuSans-48"/>
      <use x="254.492188" xlink:href="#DejaVuSans-48"/>
      <use x="318.115234" xlink:href="#DejaVuSans-48"/>
      <use x="381.738281" xlink:href="#DejaVuSans-48"/>
      <use x="445.361328" xlink:href="#DejaVuSans-46"/>
      <use x="477.148438" xlink:href="#DejaVuSans-48"/>
      <use x="540.771484" xlink:href="#DejaVuSans-48"/>
      <use x="604.394531" xlink:href="#DejaVuSans-48"/>
     </g>
    </g>
   </g>
   <g id="text_45">
    <g clip-path="url(#p1085632d67)">
     <!-- 10000000.000 -->
     <g style="fill:#482475;" transform="translate(42.679869 211.081058)rotate(-275.678448)scale(0.06 -0.06)">
      <use xlink:href="#DejaVuSans-49"/>
      <use x="63.623047" xlink:href="#DejaVuSans-48"/>
      <use x="127.246094" xlink:href="#DejaVuSans-48"/>
      <use x="190.869141" xlink:href="#DejaVuSans-48"/>
      <use x="254.492188" xlink:href="#DejaVuSans-48"/>
      <use x="318.115234" xlink:href="#DejaVuSans-48"/>
      <use x="381.738281" xlink:href="#DejaVuSans-48"/>
      <use x="445.361328" xlink:href="#DejaVuSans-48"/>
      <use x="508.984375" xlink:href="#DejaVuSans-46"/>
      <use x="540.771484" xlink:href="#DejaVuSans-48"/>
      <use x="604.394531" xlink:href="#DejaVuSans-48"/>
      <use x="668.017578" xlink:href="#DejaVuSans-48"/>
     </g>
    </g>
   </g>
   <g id="text_46">
    <g clip-path="url(#p1085632d67)">
     <!-- 10000000.000 -->
     <g style="fill:#482475;" transform="translate(225.526128 189.706118)rotate(-55.565447)scale(0.06 -0.06)">
      <use xlink:href="#DejaVuSans-49"/>
      <use x="63.623047" xlink:href="#DejaVuSans-48"/>
      <use x="127.246094" xlink:href="#DejaVuSans-48"/>
      <use x="190.869141" xlink:href="#DejaVuSans-48"/>
      <use x="254.492188" xlink:href="#DejaVuSans-48"/>
      <use x="318.115234" xlink:href="#DejaVuSans-48"/>
      <use x="381.738281" xlink:href="#DejaVuSans-48"/>
      <use x="445.361328" xlink:href="#DejaVuSans-48"/>
      <use x="508.984375" xlink:href="#DejaVuSans-46"/>
      <use x="540.771484" xlink:href="#DejaVuSans-48"/>
      <use x="604.394531" xlink:href="#DejaVuSans-48"/>
      <use x="668.017578" xlink:href="#DejaVuSans-48"/>
     </g>
    </g>
   </g>
   <g id="text_47">
    <g clip-path="url(#p1085632d67)">
     <!-- 100000000.000 -->
     <g style="fill:#fde725;" transform="translate(229.451138 191.732925)rotate(-57.776793)scale(0.06 -0.06)">
      <use xlink:href="#DejaVuSans-49"/>
      <use x="63.623047" xlink:href="#DejaVuSans-48"/>
      <use x="127.246094" xlink:href="#DejaVuSans-48"/>
      <use x="190.869141" xlink:href="#DejaVuSans-48"/>
      <use x="254.492188" xlink:href="#DejaVuSans-48"/>
      <use x="318.115234" xlink:href="#DejaVuSans-48"/>
      <use x="381.738281" xlink:href="#DejaVuSans-48"/>
      <use x="445.361328" xlink:href="#DejaVuSans-48"/>
      <use x="508.984375" xlink:href="#DejaVuSans-48"/>
      <use x="572.607422" xlink:href="#DejaVuSans-46"/>
      <use x="604.394531" xlink:href="#DejaVuSans-48"/>
      <use x="668.017578" xlink:href="#DejaVuSans-48"/>
      <use x="731.640625" xlink:href="#DejaVuSans-48"/>
     </g>
    </g>
   </g>
  </g>
 </g>
 <defs>
  <clipPath id="p1085632d67">
   <rect height="266.112" width="357.12" x="35.304688" y="10.999219"/>
  </clipPath>
 </defs>
</svg>
