<?xml version="1.0" encoding="utf-8" standalone="no"?>
<!DOCTYPE svg PUBLIC "-//W3C//DTD SVG 1.1//EN"
  "http://www.w3.org/Graphics/SVG/1.1/DTD/svg11.dtd">
<!-- Created with matplotlib (https://matplotlib.org/) -->
<svg height="610.001144pt" version="1.1" viewBox="0 0 1185.590987 610.001144" width="1185.590987pt" xmlns="http://www.w3.org/2000/svg" xmlns:xlink="http://www.w3.org/1999/xlink">
 <metadata>
  <rdf:RDF xmlns:cc="http://creativecommons.org/ns#" xmlns:dc="http://purl.org/dc/elements/1.1/" xmlns:rdf="http://www.w3.org/1999/02/22-rdf-syntax-ns#">
   <cc:Work>
    <dc:type rdf:resource="http://purl.org/dc/dcmitype/StillImage"/>
    <dc:date>2021-09-22T23:52:04.861640</dc:date>
    <dc:format>image/svg+xml</dc:format>
    <dc:creator>
     <cc:Agent>
      <dc:title>Matplotlib v3.3.1, https://matplotlib.org/</dc:title>
     </cc:Agent>
    </dc:creator>
   </cc:Work>
  </rdf:RDF>
 </metadata>
 <defs>
  <style type="text/css">*{stroke-linecap:butt;stroke-linejoin:round;}</style>
 </defs>
 <g id="figure_1">
  <g id="patch_1">
   <path d="M 0 610.001144 
L 1185.590987 610.001144 
L 1185.590987 0 
L 0 0 
z
" style="fill:#ffffff;"/>
  </g>
  <g id="axes_1">
   <g id="patch_2">
    <path d="M 56.028488 565.399219 
L 1172.028487 565.399219 
L 1172.028487 10.999219 
L 56.028488 10.999219 
z
" style="fill:#ffffff;"/>
   </g>
   <g id="matplotlib.axis_1">
    <g id="xtick_1">
     <g id="line2d_1">
      <defs>
       <path d="M 0 0 
L 0 3.5 
" id="m714fdf9743" style="stroke:#000000;stroke-width:0.8;"/>
      </defs>
      <g>
       <use style="stroke:#000000;stroke-width:0.8;" x="56.028488" xlink:href="#m714fdf9743" y="565.399219"/>
      </g>
     </g>
     <g id="text_1">
      <!-- −20 -->
      <g transform="translate(45.476144 579.997656)scale(0.1 -0.1)">
       <defs>
        <path d="M 10.59375 35.5 
L 73.1875 35.5 
L 73.1875 27.203125 
L 10.59375 27.203125 
z
" id="DejaVuSans-8722"/>
        <path d="M 19.1875 8.296875 
L 53.609375 8.296875 
L 53.609375 0 
L 7.328125 0 
L 7.328125 8.296875 
Q 12.9375 14.109375 22.625 23.890625 
Q 32.328125 33.6875 34.8125 36.53125 
Q 39.546875 41.84375 41.421875 45.53125 
Q 43.3125 49.21875 43.3125 52.78125 
Q 43.3125 58.59375 39.234375 62.25 
Q 35.15625 65.921875 28.609375 65.921875 
Q 23.96875 65.921875 18.8125 64.3125 
Q 13.671875 62.703125 7.8125 59.421875 
L 7.8125 69.390625 
Q 13.765625 71.78125 18.9375 73 
Q 24.125 74.21875 28.421875 74.21875 
Q 39.75 74.21875 46.484375 68.546875 
Q 53.21875 62.890625 53.21875 53.421875 
Q 53.21875 48.921875 51.53125 44.890625 
Q 49.859375 40.875 45.40625 35.40625 
Q 44.1875 33.984375 37.640625 27.21875 
Q 31.109375 20.453125 19.1875 8.296875 
z
" id="DejaVuSans-50"/>
        <path d="M 31.78125 66.40625 
Q 24.171875 66.40625 20.328125 58.90625 
Q 16.5 51.421875 16.5 36.375 
Q 16.5 21.390625 20.328125 13.890625 
Q 24.171875 6.390625 31.78125 6.390625 
Q 39.453125 6.390625 43.28125 13.890625 
Q 47.125 21.390625 47.125 36.375 
Q 47.125 51.421875 43.28125 58.90625 
Q 39.453125 66.40625 31.78125 66.40625 
z
M 31.78125 74.21875 
Q 44.046875 74.21875 50.515625 64.515625 
Q 56.984375 54.828125 56.984375 36.375 
Q 56.984375 17.96875 50.515625 8.265625 
Q 44.046875 -1.421875 31.78125 -1.421875 
Q 19.53125 -1.421875 13.0625 8.265625 
Q 6.59375 17.96875 6.59375 36.375 
Q 6.59375 54.828125 13.0625 64.515625 
Q 19.53125 74.21875 31.78125 74.21875 
z
" id="DejaVuSans-48"/>
       </defs>
       <use xlink:href="#DejaVuSans-8722"/>
       <use x="83.789062" xlink:href="#DejaVuSans-50"/>
       <use x="147.412109" xlink:href="#DejaVuSans-48"/>
      </g>
     </g>
    </g>
    <g id="xtick_2">
     <g id="line2d_2">
      <g>
       <use style="stroke:#000000;stroke-width:0.8;" x="180.028488" xlink:href="#m714fdf9743" y="565.399219"/>
      </g>
     </g>
     <g id="text_2">
      <!-- −15 -->
      <g transform="translate(169.476144 579.997656)scale(0.1 -0.1)">
       <defs>
        <path d="M 12.40625 8.296875 
L 28.515625 8.296875 
L 28.515625 63.921875 
L 10.984375 60.40625 
L 10.984375 69.390625 
L 28.421875 72.90625 
L 38.28125 72.90625 
L 38.28125 8.296875 
L 54.390625 8.296875 
L 54.390625 0 
L 12.40625 0 
z
" id="DejaVuSans-49"/>
        <path d="M 10.796875 72.90625 
L 49.515625 72.90625 
L 49.515625 64.59375 
L 19.828125 64.59375 
L 19.828125 46.734375 
Q 21.96875 47.46875 24.109375 47.828125 
Q 26.265625 48.1875 28.421875 48.1875 
Q 40.625 48.1875 47.75 41.5 
Q 54.890625 34.8125 54.890625 23.390625 
Q 54.890625 11.625 47.5625 5.09375 
Q 40.234375 -1.421875 26.90625 -1.421875 
Q 22.3125 -1.421875 17.546875 -0.640625 
Q 12.796875 0.140625 7.71875 1.703125 
L 7.71875 11.625 
Q 12.109375 9.234375 16.796875 8.0625 
Q 21.484375 6.890625 26.703125 6.890625 
Q 35.15625 6.890625 40.078125 11.328125 
Q 45.015625 15.765625 45.015625 23.390625 
Q 45.015625 31 40.078125 35.4375 
Q 35.15625 39.890625 26.703125 39.890625 
Q 22.75 39.890625 18.8125 39.015625 
Q 14.890625 38.140625 10.796875 36.28125 
z
" id="DejaVuSans-53"/>
       </defs>
       <use xlink:href="#DejaVuSans-8722"/>
       <use x="83.789062" xlink:href="#DejaVuSans-49"/>
       <use x="147.412109" xlink:href="#DejaVuSans-53"/>
      </g>
     </g>
    </g>
    <g id="xtick_3">
     <g id="line2d_3">
      <g>
       <use style="stroke:#000000;stroke-width:0.8;" x="304.028488" xlink:href="#m714fdf9743" y="565.399219"/>
      </g>
     </g>
     <g id="text_3">
      <!-- −10 -->
      <g transform="translate(293.476144 579.997656)scale(0.1 -0.1)">
       <use xlink:href="#DejaVuSans-8722"/>
       <use x="83.789062" xlink:href="#DejaVuSans-49"/>
       <use x="147.412109" xlink:href="#DejaVuSans-48"/>
      </g>
     </g>
    </g>
    <g id="xtick_4">
     <g id="line2d_4">
      <g>
       <use style="stroke:#000000;stroke-width:0.8;" x="428.028488" xlink:href="#m714fdf9743" y="565.399219"/>
      </g>
     </g>
     <g id="text_4">
      <!-- −5 -->
      <g transform="translate(420.657394 579.997656)scale(0.1 -0.1)">
       <use xlink:href="#DejaVuSans-8722"/>
       <use x="83.789062" xlink:href="#DejaVuSans-53"/>
      </g>
     </g>
    </g>
    <g id="xtick_5">
     <g id="line2d_5">
      <g>
       <use style="stroke:#000000;stroke-width:0.8;" x="552.028488" xlink:href="#m714fdf9743" y="565.399219"/>
      </g>
     </g>
     <g id="text_5">
      <!-- 0 -->
      <g transform="translate(548.847238 579.997656)scale(0.1 -0.1)">
       <use xlink:href="#DejaVuSans-48"/>
      </g>
     </g>
    </g>
    <g id="xtick_6">
     <g id="line2d_6">
      <g>
       <use style="stroke:#000000;stroke-width:0.8;" x="676.028488" xlink:href="#m714fdf9743" y="565.399219"/>
      </g>
     </g>
     <g id="text_6">
      <!-- 5 -->
      <g transform="translate(672.847238 579.997656)scale(0.1 -0.1)">
       <use xlink:href="#DejaVuSans-53"/>
      </g>
     </g>
    </g>
    <g id="xtick_7">
     <g id="line2d_7">
      <g>
       <use style="stroke:#000000;stroke-width:0.8;" x="800.028488" xlink:href="#m714fdf9743" y="565.399219"/>
      </g>
     </g>
     <g id="text_7">
      <!-- 10 -->
      <g transform="translate(793.665988 579.997656)scale(0.1 -0.1)">
       <use xlink:href="#DejaVuSans-49"/>
       <use x="63.623047" xlink:href="#DejaVuSans-48"/>
      </g>
     </g>
    </g>
    <g id="xtick_8">
     <g id="line2d_8">
      <g>
       <use style="stroke:#000000;stroke-width:0.8;" x="924.028488" xlink:href="#m714fdf9743" y="565.399219"/>
      </g>
     </g>
     <g id="text_8">
      <!-- 15 -->
      <g transform="translate(917.665988 579.997656)scale(0.1 -0.1)">
       <use xlink:href="#DejaVuSans-49"/>
       <use x="63.623047" xlink:href="#DejaVuSans-53"/>
      </g>
     </g>
    </g>
    <g id="xtick_9">
     <g id="line2d_9">
      <g>
       <use style="stroke:#000000;stroke-width:0.8;" x="1048.028488" xlink:href="#m714fdf9743" y="565.399219"/>
      </g>
     </g>
     <g id="text_9">
      <!-- 20 -->
      <g transform="translate(1041.665988 579.997656)scale(0.1 -0.1)">
       <use xlink:href="#DejaVuSans-50"/>
       <use x="63.623047" xlink:href="#DejaVuSans-48"/>
      </g>
     </g>
    </g>
    <g id="xtick_10">
     <g id="line2d_10">
      <g>
       <use style="stroke:#000000;stroke-width:0.8;" x="1172.028488" xlink:href="#m714fdf9743" y="565.399219"/>
      </g>
     </g>
     <g id="text_10">
      <!-- 25 -->
      <g transform="translate(1165.665988 579.997656)scale(0.1 -0.1)">
       <use xlink:href="#DejaVuSans-50"/>
       <use x="63.623047" xlink:href="#DejaVuSans-53"/>
      </g>
     </g>
    </g>
    <g id="text_11">
     <!-- 1st PC: 84.40 % -->
     <g transform="translate(545.308087 599.207444)scale(0.1728 -0.1728)">
      <defs>
       <path d="M 44.28125 53.078125 
L 44.28125 44.578125 
Q 40.484375 46.53125 36.375 47.5 
Q 32.28125 48.484375 27.875 48.484375 
Q 21.1875 48.484375 17.84375 46.4375 
Q 14.5 44.390625 14.5 40.28125 
Q 14.5 37.15625 16.890625 35.375 
Q 19.28125 33.59375 26.515625 31.984375 
L 29.59375 31.296875 
Q 39.15625 29.25 43.1875 25.515625 
Q 47.21875 21.78125 47.21875 15.09375 
Q 47.21875 7.46875 41.1875 3.015625 
Q 35.15625 -1.421875 24.609375 -1.421875 
Q 20.21875 -1.421875 15.453125 -0.5625 
Q 10.6875 0.296875 5.421875 2 
L 5.421875 11.28125 
Q 10.40625 8.6875 15.234375 7.390625 
Q 20.0625 6.109375 24.8125 6.109375 
Q 31.15625 6.109375 34.5625 8.28125 
Q 37.984375 10.453125 37.984375 14.40625 
Q 37.984375 18.0625 35.515625 20.015625 
Q 33.0625 21.96875 24.703125 23.78125 
L 21.578125 24.515625 
Q 13.234375 26.265625 9.515625 29.90625 
Q 5.8125 33.546875 5.8125 39.890625 
Q 5.8125 47.609375 11.28125 51.796875 
Q 16.75 56 26.8125 56 
Q 31.78125 56 36.171875 55.265625 
Q 40.578125 54.546875 44.28125 53.078125 
z
" id="DejaVuSans-115"/>
       <path d="M 18.3125 70.21875 
L 18.3125 54.6875 
L 36.8125 54.6875 
L 36.8125 47.703125 
L 18.3125 47.703125 
L 18.3125 18.015625 
Q 18.3125 11.328125 20.140625 9.421875 
Q 21.96875 7.515625 27.59375 7.515625 
L 36.8125 7.515625 
L 36.8125 0 
L 27.59375 0 
Q 17.1875 0 13.234375 3.875 
Q 9.28125 7.765625 9.28125 18.015625 
L 9.28125 47.703125 
L 2.6875 47.703125 
L 2.6875 54.6875 
L 9.28125 54.6875 
L 9.28125 70.21875 
z
" id="DejaVuSans-116"/>
       <path id="DejaVuSans-32"/>
       <path d="M 19.671875 64.796875 
L 19.671875 37.40625 
L 32.078125 37.40625 
Q 38.96875 37.40625 42.71875 40.96875 
Q 46.484375 44.53125 46.484375 51.125 
Q 46.484375 57.671875 42.71875 61.234375 
Q 38.96875 64.796875 32.078125 64.796875 
z
M 9.8125 72.90625 
L 32.078125 72.90625 
Q 44.34375 72.90625 50.609375 67.359375 
Q 56.890625 61.8125 56.890625 51.125 
Q 56.890625 40.328125 50.609375 34.8125 
Q 44.34375 29.296875 32.078125 29.296875 
L 19.671875 29.296875 
L 19.671875 0 
L 9.8125 0 
z
" id="DejaVuSans-80"/>
       <path d="M 64.40625 67.28125 
L 64.40625 56.890625 
Q 59.421875 61.53125 53.78125 63.8125 
Q 48.140625 66.109375 41.796875 66.109375 
Q 29.296875 66.109375 22.65625 58.46875 
Q 16.015625 50.828125 16.015625 36.375 
Q 16.015625 21.96875 22.65625 14.328125 
Q 29.296875 6.6875 41.796875 6.6875 
Q 48.140625 6.6875 53.78125 8.984375 
Q 59.421875 11.28125 64.40625 15.921875 
L 64.40625 5.609375 
Q 59.234375 2.09375 53.4375 0.328125 
Q 47.65625 -1.421875 41.21875 -1.421875 
Q 24.65625 -1.421875 15.125 8.703125 
Q 5.609375 18.84375 5.609375 36.375 
Q 5.609375 53.953125 15.125 64.078125 
Q 24.65625 74.21875 41.21875 74.21875 
Q 47.75 74.21875 53.53125 72.484375 
Q 59.328125 70.75 64.40625 67.28125 
z
" id="DejaVuSans-67"/>
       <path d="M 11.71875 12.40625 
L 22.015625 12.40625 
L 22.015625 0 
L 11.71875 0 
z
M 11.71875 51.703125 
L 22.015625 51.703125 
L 22.015625 39.3125 
L 11.71875 39.3125 
z
" id="DejaVuSans-58"/>
       <path d="M 31.78125 34.625 
Q 24.75 34.625 20.71875 30.859375 
Q 16.703125 27.09375 16.703125 20.515625 
Q 16.703125 13.921875 20.71875 10.15625 
Q 24.75 6.390625 31.78125 6.390625 
Q 38.8125 6.390625 42.859375 10.171875 
Q 46.921875 13.96875 46.921875 20.515625 
Q 46.921875 27.09375 42.890625 30.859375 
Q 38.875 34.625 31.78125 34.625 
z
M 21.921875 38.8125 
Q 15.578125 40.375 12.03125 44.71875 
Q 8.5 49.078125 8.5 55.328125 
Q 8.5 64.0625 14.71875 69.140625 
Q 20.953125 74.21875 31.78125 74.21875 
Q 42.671875 74.21875 48.875 69.140625 
Q 55.078125 64.0625 55.078125 55.328125 
Q 55.078125 49.078125 51.53125 44.71875 
Q 48 40.375 41.703125 38.8125 
Q 48.828125 37.15625 52.796875 32.3125 
Q 56.78125 27.484375 56.78125 20.515625 
Q 56.78125 9.90625 50.3125 4.234375 
Q 43.84375 -1.421875 31.78125 -1.421875 
Q 19.734375 -1.421875 13.25 4.234375 
Q 6.78125 9.90625 6.78125 20.515625 
Q 6.78125 27.484375 10.78125 32.3125 
Q 14.796875 37.15625 21.921875 38.8125 
z
M 18.3125 54.390625 
Q 18.3125 48.734375 21.84375 45.5625 
Q 25.390625 42.390625 31.78125 42.390625 
Q 38.140625 42.390625 41.71875 45.5625 
Q 45.3125 48.734375 45.3125 54.390625 
Q 45.3125 60.0625 41.71875 63.234375 
Q 38.140625 66.40625 31.78125 66.40625 
Q 25.390625 66.40625 21.84375 63.234375 
Q 18.3125 60.0625 18.3125 54.390625 
z
" id="DejaVuSans-56"/>
       <path d="M 37.796875 64.3125 
L 12.890625 25.390625 
L 37.796875 25.390625 
z
M 35.203125 72.90625 
L 47.609375 72.90625 
L 47.609375 25.390625 
L 58.015625 25.390625 
L 58.015625 17.1875 
L 47.609375 17.1875 
L 47.609375 0 
L 37.796875 0 
L 37.796875 17.1875 
L 4.890625 17.1875 
L 4.890625 26.703125 
z
" id="DejaVuSans-52"/>
       <path d="M 10.6875 12.40625 
L 21 12.40625 
L 21 0 
L 10.6875 0 
z
" id="DejaVuSans-46"/>
       <path d="M 72.703125 32.078125 
Q 68.453125 32.078125 66.03125 28.46875 
Q 63.625 24.859375 63.625 18.40625 
Q 63.625 12.0625 66.03125 8.421875 
Q 68.453125 4.78125 72.703125 4.78125 
Q 76.859375 4.78125 79.265625 8.421875 
Q 81.6875 12.0625 81.6875 18.40625 
Q 81.6875 24.8125 79.265625 28.4375 
Q 76.859375 32.078125 72.703125 32.078125 
z
M 72.703125 38.28125 
Q 80.421875 38.28125 84.953125 32.90625 
Q 89.5 27.546875 89.5 18.40625 
Q 89.5 9.28125 84.9375 3.921875 
Q 80.375 -1.421875 72.703125 -1.421875 
Q 64.890625 -1.421875 60.34375 3.921875 
Q 55.8125 9.28125 55.8125 18.40625 
Q 55.8125 27.59375 60.375 32.9375 
Q 64.9375 38.28125 72.703125 38.28125 
z
M 22.3125 68.015625 
Q 18.109375 68.015625 15.6875 64.375 
Q 13.28125 60.75 13.28125 54.390625 
Q 13.28125 47.953125 15.671875 44.328125 
Q 18.0625 40.71875 22.3125 40.71875 
Q 26.5625 40.71875 28.96875 44.328125 
Q 31.390625 47.953125 31.390625 54.390625 
Q 31.390625 60.6875 28.953125 64.34375 
Q 26.515625 68.015625 22.3125 68.015625 
z
M 66.40625 74.21875 
L 74.21875 74.21875 
L 28.609375 -1.421875 
L 20.796875 -1.421875 
z
M 22.3125 74.21875 
Q 30.03125 74.21875 34.609375 68.875 
Q 39.203125 63.53125 39.203125 54.390625 
Q 39.203125 45.171875 34.640625 39.84375 
Q 30.078125 34.515625 22.3125 34.515625 
Q 14.546875 34.515625 10.03125 39.859375 
Q 5.515625 45.21875 5.515625 54.390625 
Q 5.515625 63.484375 10.046875 68.84375 
Q 14.59375 74.21875 22.3125 74.21875 
z
" id="DejaVuSans-37"/>
      </defs>
      <use xlink:href="#DejaVuSans-49"/>
      <use x="63.623047" xlink:href="#DejaVuSans-115"/>
      <use x="115.722656" xlink:href="#DejaVuSans-116"/>
      <use x="154.931641" xlink:href="#DejaVuSans-32"/>
      <use x="186.71875" xlink:href="#DejaVuSans-80"/>
      <use x="247.021484" xlink:href="#DejaVuSans-67"/>
      <use x="316.845703" xlink:href="#DejaVuSans-58"/>
      <use x="350.537109" xlink:href="#DejaVuSans-32"/>
      <use x="382.324219" xlink:href="#DejaVuSans-56"/>
      <use x="445.947266" xlink:href="#DejaVuSans-52"/>
      <use x="509.570312" xlink:href="#DejaVuSans-46"/>
      <use x="541.357422" xlink:href="#DejaVuSans-52"/>
      <use x="604.980469" xlink:href="#DejaVuSans-48"/>
      <use x="668.603516" xlink:href="#DejaVuSans-32"/>
      <use x="700.390625" xlink:href="#DejaVuSans-37"/>
     </g>
    </g>
   </g>
   <g id="matplotlib.axis_2">
    <g id="ytick_1">
     <g id="line2d_11">
      <defs>
       <path d="M 0 0 
L -3.5 0 
" id="m0fa33c5917" style="stroke:#000000;stroke-width:0.8;"/>
      </defs>
      <g>
       <use style="stroke:#000000;stroke-width:0.8;" x="56.028488" xlink:href="#m0fa33c5917" y="565.399219"/>
      </g>
     </g>
     <g id="text_12">
      <!-- −20 -->
      <g transform="translate(27.9238 569.198438)scale(0.1 -0.1)">
       <use xlink:href="#DejaVuSans-8722"/>
       <use x="83.789062" xlink:href="#DejaVuSans-50"/>
       <use x="147.412109" xlink:href="#DejaVuSans-48"/>
      </g>
     </g>
    </g>
    <g id="ytick_2">
     <g id="line2d_12">
      <g>
       <use style="stroke:#000000;stroke-width:0.8;" x="56.028488" xlink:href="#m0fa33c5917" y="496.099219"/>
      </g>
     </g>
     <g id="text_13">
      <!-- −15 -->
      <g transform="translate(27.9238 499.898438)scale(0.1 -0.1)">
       <use xlink:href="#DejaVuSans-8722"/>
       <use x="83.789062" xlink:href="#DejaVuSans-49"/>
       <use x="147.412109" xlink:href="#DejaVuSans-53"/>
      </g>
     </g>
    </g>
    <g id="ytick_3">
     <g id="line2d_13">
      <g>
       <use style="stroke:#000000;stroke-width:0.8;" x="56.028488" xlink:href="#m0fa33c5917" y="426.799219"/>
      </g>
     </g>
     <g id="text_14">
      <!-- −10 -->
      <g transform="translate(27.9238 430.598438)scale(0.1 -0.1)">
       <use xlink:href="#DejaVuSans-8722"/>
       <use x="83.789062" xlink:href="#DejaVuSans-49"/>
       <use x="147.412109" xlink:href="#DejaVuSans-48"/>
      </g>
     </g>
    </g>
    <g id="ytick_4">
     <g id="line2d_14">
      <g>
       <use style="stroke:#000000;stroke-width:0.8;" x="56.028488" xlink:href="#m0fa33c5917" y="357.499219"/>
      </g>
     </g>
     <g id="text_15">
      <!-- −5 -->
      <g transform="translate(34.2863 361.298438)scale(0.1 -0.1)">
       <use xlink:href="#DejaVuSans-8722"/>
       <use x="83.789062" xlink:href="#DejaVuSans-53"/>
      </g>
     </g>
    </g>
    <g id="ytick_5">
     <g id="line2d_15">
      <g>
       <use style="stroke:#000000;stroke-width:0.8;" x="56.028488" xlink:href="#m0fa33c5917" y="288.199219"/>
      </g>
     </g>
     <g id="text_16">
      <!-- 0 -->
      <g transform="translate(42.665988 291.998438)scale(0.1 -0.1)">
       <use xlink:href="#DejaVuSans-48"/>
      </g>
     </g>
    </g>
    <g id="ytick_6">
     <g id="line2d_16">
      <g>
       <use style="stroke:#000000;stroke-width:0.8;" x="56.028488" xlink:href="#m0fa33c5917" y="218.899219"/>
      </g>
     </g>
     <g id="text_17">
      <!-- 5 -->
      <g transform="translate(42.665988 222.698438)scale(0.1 -0.1)">
       <use xlink:href="#DejaVuSans-53"/>
      </g>
     </g>
    </g>
    <g id="ytick_7">
     <g id="line2d_17">
      <g>
       <use style="stroke:#000000;stroke-width:0.8;" x="56.028488" xlink:href="#m0fa33c5917" y="149.599219"/>
      </g>
     </g>
     <g id="text_18">
      <!-- 10 -->
      <g transform="translate(36.303488 153.398438)scale(0.1 -0.1)">
       <use xlink:href="#DejaVuSans-49"/>
       <use x="63.623047" xlink:href="#DejaVuSans-48"/>
      </g>
     </g>
    </g>
    <g id="ytick_8">
     <g id="line2d_18">
      <g>
       <use style="stroke:#000000;stroke-width:0.8;" x="56.028488" xlink:href="#m0fa33c5917" y="80.299219"/>
      </g>
     </g>
     <g id="text_19">
      <!-- 15 -->
      <g transform="translate(36.303488 84.098438)scale(0.1 -0.1)">
       <use xlink:href="#DejaVuSans-49"/>
       <use x="63.623047" xlink:href="#DejaVuSans-53"/>
      </g>
     </g>
    </g>
    <g id="ytick_9">
     <g id="line2d_19">
      <g>
       <use style="stroke:#000000;stroke-width:0.8;" x="56.028488" xlink:href="#m0fa33c5917" y="10.999219"/>
      </g>
     </g>
     <g id="text_20">
      <!-- 20 -->
      <g transform="translate(36.303488 14.798438)scale(0.1 -0.1)">
       <use xlink:href="#DejaVuSans-50"/>
       <use x="63.623047" xlink:href="#DejaVuSans-48"/>
      </g>
     </g>
    </g>
    <g id="text_21">
     <!-- 2nd PC: 13.46 % -->
     <g transform="translate(20.3301 359.992219)rotate(-90)scale(0.1728 -0.1728)">
      <defs>
       <path d="M 54.890625 33.015625 
L 54.890625 0 
L 45.90625 0 
L 45.90625 32.71875 
Q 45.90625 40.484375 42.875 44.328125 
Q 39.84375 48.1875 33.796875 48.1875 
Q 26.515625 48.1875 22.3125 43.546875 
Q 18.109375 38.921875 18.109375 30.90625 
L 18.109375 0 
L 9.078125 0 
L 9.078125 54.6875 
L 18.109375 54.6875 
L 18.109375 46.1875 
Q 21.34375 51.125 25.703125 53.5625 
Q 30.078125 56 35.796875 56 
Q 45.21875 56 50.046875 50.171875 
Q 54.890625 44.34375 54.890625 33.015625 
z
" id="DejaVuSans-110"/>
       <path d="M 45.40625 46.390625 
L 45.40625 75.984375 
L 54.390625 75.984375 
L 54.390625 0 
L 45.40625 0 
L 45.40625 8.203125 
Q 42.578125 3.328125 38.25 0.953125 
Q 33.9375 -1.421875 27.875 -1.421875 
Q 17.96875 -1.421875 11.734375 6.484375 
Q 5.515625 14.40625 5.515625 27.296875 
Q 5.515625 40.1875 11.734375 48.09375 
Q 17.96875 56 27.875 56 
Q 33.9375 56 38.25 53.625 
Q 42.578125 51.265625 45.40625 46.390625 
z
M 14.796875 27.296875 
Q 14.796875 17.390625 18.875 11.75 
Q 22.953125 6.109375 30.078125 6.109375 
Q 37.203125 6.109375 41.296875 11.75 
Q 45.40625 17.390625 45.40625 27.296875 
Q 45.40625 37.203125 41.296875 42.84375 
Q 37.203125 48.484375 30.078125 48.484375 
Q 22.953125 48.484375 18.875 42.84375 
Q 14.796875 37.203125 14.796875 27.296875 
z
" id="DejaVuSans-100"/>
       <path d="M 40.578125 39.3125 
Q 47.65625 37.796875 51.625 33 
Q 55.609375 28.21875 55.609375 21.1875 
Q 55.609375 10.40625 48.1875 4.484375 
Q 40.765625 -1.421875 27.09375 -1.421875 
Q 22.515625 -1.421875 17.65625 -0.515625 
Q 12.796875 0.390625 7.625 2.203125 
L 7.625 11.71875 
Q 11.71875 9.328125 16.59375 8.109375 
Q 21.484375 6.890625 26.8125 6.890625 
Q 36.078125 6.890625 40.9375 10.546875 
Q 45.796875 14.203125 45.796875 21.1875 
Q 45.796875 27.640625 41.28125 31.265625 
Q 36.765625 34.90625 28.71875 34.90625 
L 20.21875 34.90625 
L 20.21875 43.015625 
L 29.109375 43.015625 
Q 36.375 43.015625 40.234375 45.921875 
Q 44.09375 48.828125 44.09375 54.296875 
Q 44.09375 59.90625 40.109375 62.90625 
Q 36.140625 65.921875 28.71875 65.921875 
Q 24.65625 65.921875 20.015625 65.03125 
Q 15.375 64.15625 9.8125 62.3125 
L 9.8125 71.09375 
Q 15.4375 72.65625 20.34375 73.4375 
Q 25.25 74.21875 29.59375 74.21875 
Q 40.828125 74.21875 47.359375 69.109375 
Q 53.90625 64.015625 53.90625 55.328125 
Q 53.90625 49.265625 50.4375 45.09375 
Q 46.96875 40.921875 40.578125 39.3125 
z
" id="DejaVuSans-51"/>
       <path d="M 33.015625 40.375 
Q 26.375 40.375 22.484375 35.828125 
Q 18.609375 31.296875 18.609375 23.390625 
Q 18.609375 15.53125 22.484375 10.953125 
Q 26.375 6.390625 33.015625 6.390625 
Q 39.65625 6.390625 43.53125 10.953125 
Q 47.40625 15.53125 47.40625 23.390625 
Q 47.40625 31.296875 43.53125 35.828125 
Q 39.65625 40.375 33.015625 40.375 
z
M 52.59375 71.296875 
L 52.59375 62.3125 
Q 48.875 64.0625 45.09375 64.984375 
Q 41.3125 65.921875 37.59375 65.921875 
Q 27.828125 65.921875 22.671875 59.328125 
Q 17.53125 52.734375 16.796875 39.40625 
Q 19.671875 43.65625 24.015625 45.921875 
Q 28.375 48.1875 33.59375 48.1875 
Q 44.578125 48.1875 50.953125 41.515625 
Q 57.328125 34.859375 57.328125 23.390625 
Q 57.328125 12.15625 50.6875 5.359375 
Q 44.046875 -1.421875 33.015625 -1.421875 
Q 20.359375 -1.421875 13.671875 8.265625 
Q 6.984375 17.96875 6.984375 36.375 
Q 6.984375 53.65625 15.1875 63.9375 
Q 23.390625 74.21875 37.203125 74.21875 
Q 40.921875 74.21875 44.703125 73.484375 
Q 48.484375 72.75 52.59375 71.296875 
z
" id="DejaVuSans-54"/>
      </defs>
      <use xlink:href="#DejaVuSans-50"/>
      <use x="63.623047" xlink:href="#DejaVuSans-110"/>
      <use x="127.001953" xlink:href="#DejaVuSans-100"/>
      <use x="190.478516" xlink:href="#DejaVuSans-32"/>
      <use x="222.265625" xlink:href="#DejaVuSans-80"/>
      <use x="282.568359" xlink:href="#DejaVuSans-67"/>
      <use x="352.392578" xlink:href="#DejaVuSans-58"/>
      <use x="386.083984" xlink:href="#DejaVuSans-32"/>
      <use x="417.871094" xlink:href="#DejaVuSans-49"/>
      <use x="481.494141" xlink:href="#DejaVuSans-51"/>
      <use x="545.117188" xlink:href="#DejaVuSans-46"/>
      <use x="576.904297" xlink:href="#DejaVuSans-52"/>
      <use x="640.527344" xlink:href="#DejaVuSans-54"/>
      <use x="704.150391" xlink:href="#DejaVuSans-32"/>
      <use x="735.9375" xlink:href="#DejaVuSans-37"/>
     </g>
    </g>
   </g>
   <g id="LineCollection_1"/>
   <g id="LineCollection_2"/>
   <g id="LineCollection_3"/>
   <g id="LineCollection_4"/>
   <g id="LineCollection_5"/>
   <g id="LineCollection_6">
    <path clip-path="url(#pea6350372f)" d="M 808.295154 417.56882 
L 807.887023 417.559219 
L 808.295154 416.631206 
L 808.547116 417.559219 
L 808.295154 417.56882 
" style="fill:none;stroke:#39558c;stroke-width:1.5;"/>
    <path clip-path="url(#pea6350372f)" d="M 586.087939 266.202973 
L 631.481855 251.239219 
L 634.695154 247.71699 
L 678.030149 232.759219 
L 687.987501 214.279219 
L 690.630976 195.799219 
L 691.757876 177.319219 
L 692.482078 158.839219 
L 692.561821 144.96626 
L 709.281824 140.359219 
L 750.428488 130.37478 
L 808.295154 127.494737 
L 866.161821 135.544114 
L 924.028488 132.299059 
L 954.984971 140.359219 
L 981.895154 148.424723 
L 994.44416 158.839219 
L 1014.57945 177.319219 
L 1031.885566 195.799219 
L 1039.761821 204.066541 
L 1044.923608 214.279219 
L 1060.042647 232.759219 
L 1081.158808 251.239219 
L 1097.628488 264.994722 
L 1101.855597 269.719219 
L 1112.941396 288.199219 
L 1111.596244 306.679219 
L 1097.628488 316.549954 
L 1074.281089 325.159219 
L 1039.761821 331.409129 
L 981.895154 338.630359 
L 924.028488 339.606548 
L 866.161821 335.275582 
L 808.295154 329.792436 
L 750.428488 326.788729 
L 692.561821 332.630817 
L 675.25901 343.639219 
L 657.889907 362.119219 
L 657.29986 380.599219 
L 634.695154 382.892783 
L 632.594177 380.599219 
L 625.588692 362.119219 
L 576.828488 349.490746 
L 569.596148 343.639219 
L 522.668029 325.159219 
L 518.961821 323.744704 
L 514.855839 306.679219 
L 514.809456 288.199219 
L 518.961821 284.972046 
L 561.873463 273.083337 
" style="fill:none;stroke:#39558c;stroke-width:1.5;"/>
   </g>
   <g id="LineCollection_7">
    <path clip-path="url(#pea6350372f)" d="M 969.685637 389.183732 
L 930.868317 399.079219 
L 924.028488 402.475912 
L 905.400134 417.559219 
L 866.161821 435.0119 
L 808.295154 424.172717 
L 750.428488 421.245312 
L 704.267239 417.559219 
L 692.561821 414.170087 
L 634.695154 400.391854 
L 631.703789 399.079219 
L 611.820519 380.599219 
L 576.828488 364.953439 
L 574.309147 362.119219 
L 547.133542 343.639219 
L 518.961821 333.138955 
L 512.156185 325.159219 
L 507.598183 306.679219 
L 506.436516 288.199219 
L 518.961821 278.464688 
L 550.528111 269.719219 
L 576.828488 265.380696 
L 619.727951 251.239219 
L 634.695154 234.833051 
L 640.703371 232.759219 
L 676.143732 214.279219 
L 685.411703 195.799219 
L 689.454759 177.319219 
L 692.195512 158.839219 
L 692.519964 140.359219 
L 692.561821 139.765961 
L 748.771806 121.879219 
L 750.428488 119.568336 
L 808.295154 105.144793 
L 821.662333 103.399219 
L 866.161821 92.866258 
L 887.278512 84.919219 
L 917.314354 66.439219 
L 924.028488 66.054461 
L 930.402401 66.439219 
L 956.426082 84.919219 
L 981.895154 92.905196 
L 1007.819339 103.399219 
L 1039.761821 117.164933 
L 1050.856141 121.879219 
L 1075.81371 140.359219 
L 1096.185676 158.839219 
L 1097.628488 160.887277 
L 1104.199046 177.319219 
L 1114.5905 195.799219 
L 1132.548393 214.279219 
L 1155.495154 228.067891 
L 1164.725214 232.759219 
L 1186.590987 242.938036 
M 1186.590987 359.082137 
L 1169.763862 362.119219 
L 1155.495154 363.759951 
L 1097.628488 370.867527 
L 1039.761821 377.883929 
L 1023.091651 380.599219 
L 994.385453 384.412178 
" style="fill:none;stroke:#33638d;stroke-width:1.5;"/>
   </g>
   <g id="LineCollection_8">
    <path clip-path="url(#pea6350372f)" d="M 999.188259 70.363495 
L 1039.761821 83.661567 
L 1055.787258 84.919219 
L 1097.628488 102.16713 
L 1099.296443 103.399219 
L 1134.378032 121.879219 
L 1143.893753 140.359219 
L 1148.998275 158.839219 
L 1147.173707 177.319219 
L 1155.495154 190.2544 
L 1158.836048 195.799219 
L 1183.650646 214.279219 
L 1186.590987 215.529436 
M 1186.590987 382.604569 
L 1155.495154 385.196359 
L 1097.628488 390.754485 
L 1039.761821 397.496974 
L 1030.847092 399.079219 
L 981.895154 407.701131 
L 956.489649 417.559219 
L 942.31901 436.039219 
L 924.028488 439.992596 
L 866.161821 438.230669 
L 834.531836 436.039219 
L 808.295154 430.776615 
L 750.428488 425.880051 
L 692.561821 420.211135 
L 679.519363 417.559219 
L 634.695154 404.977548 
L 621.253455 399.079219 
L 591.04686 380.599219 
L 576.828488 374.241842 
L 566.052677 362.119219 
L 524.670936 343.639219 
L 518.961821 341.511297 
L 505.015709 325.159219 
L 500.340527 306.679219 
L 498.063575 288.199219 
L 518.961821 271.95733 
L 527.04016 269.719219 
L 576.828488 261.506112 
L 607.974046 251.239219 
L 632.760128 232.759219 
L 634.695154 228.115 
L 664.299962 214.279219 
L 680.192431 195.799219 
L 687.151641 177.319219 
L 691.908947 158.839219 
L 692.473846 140.359219 
L 692.561821 139.112297 
L 746.717636 121.879219 
L 750.428488 116.703001 
L 798.897521 103.399219 
L 808.295154 96.226545 
L 846.164442 84.919219 
L 860.187985 66.439219 
L 866.161821 56.218302 
L 924.028488 53.220304 
L 974.902756 63.765072 
" style="fill:none;stroke:#2d718e;stroke-width:1.5;"/>
   </g>
   <g id="LineCollection_9">
    <path clip-path="url(#pea6350372f)" d="M 962.781486 452.47334 
L 924.028488 446.096338 
L 866.161821 440.511753 
L 808.295154 436.371609 
L 799.87041 436.039219 
L 750.428488 430.514789 
L 692.561821 423.532983 
L 663.1821 417.559219 
L 634.695154 409.563241 
L 610.803121 399.079219 
L 576.828488 382.234244 
L 575.501296 380.599219 
L 557.796208 362.119219 
L 518.961821 346.168531 
L 512.8311 343.639219 
L 497.875234 325.159219 
L 493.082871 306.679219 
L 489.690635 288.199219 
L 514.210686 269.719219 
L 518.961821 268.960169 
L 576.828488 257.631528 
L 596.220142 251.239219 
L 630.453883 232.759219 
L 634.695154 222.579825 
L 652.456193 214.279219 
L 674.973159 195.799219 
L 684.848523 177.319219 
L 691.622382 158.839219 
L 692.427727 140.359219 
L 692.561821 138.458634 
L 744.663466 121.879219 
L 750.428488 113.837667 
L 788.458386 103.399219 
L 808.295154 88.258952 
L 819.480233 84.919219 
L 852.445836 66.439219 
L 865.94279 47.959219 
L 866.161821 47.367253 
L 924.028488 47.357307 
L 927.354571 47.959219 
L 981.895154 63.59812 
L 994.23494 66.439219 
L 1039.761821 81.360752 
L 1085.105064 84.919219 
L 1097.628488 90.08166 
L 1115.657295 103.399219 
L 1155.495154 116.949274 
L 1156.569831 121.879219 
L 1158.369991 140.359219 
L 1165.331277 158.839219 
L 1186.590987 171.217933 
M 1186.590987 397.339315 
L 1166.131221 399.079219 
L 1155.495154 399.74526 
L 1097.628488 404.672897 
L 1039.761821 411.011616 
L 1009.733573 417.559219 
L 981.895154 427.480733 
L 970.558313 436.039219 
L 981.895154 448.7959 
L 983.901028 452.277416 
" style="fill:none;stroke:#287d8e;stroke-width:1.5;"/>
   </g>
   <g id="LineCollection_10">
    <path clip-path="url(#pea6350372f)" d="M 925.689087 452.47334 
L 924.028488 452.200079 
L 866.161821 442.792837 
L 808.295154 438.008143 
L 758.390948 436.039219 
L 750.428488 435.149527 
L 692.561821 426.854831 
L 646.844837 417.559219 
L 634.695154 414.148934 
L 600.352786 399.079219 
L 576.828488 387.415628 
L 571.295433 380.599219 
L 549.539738 362.119219 
L 518.961821 349.559762 
L 504.611204 343.639219 
L 490.734758 325.159219 
L 485.825215 306.679219 
L 481.317695 288.199219 
L 506.968814 269.719219 
L 518.961821 267.803195 
L 576.828488 253.756944 
L 584.466237 251.239219 
L 628.147637 232.759219 
L 634.695154 217.044649 
L 640.612424 214.279219 
L 669.753887 195.799219 
L 682.545405 177.319219 
L 691.335816 158.839219 
L 692.381608 140.359219 
L 692.561821 137.80497 
L 742.609296 121.879219 
L 750.428488 110.972333 
L 778.01925 103.399219 
L 807.840787 84.919219 
L 808.295154 82.887632 
L 844.703686 66.439219 
L 865.361041 47.959219 
L 866.161821 45.794982 
L 924.028488 46.33724 
L 932.991317 47.959219 
L 981.895154 61.981846 
L 1001.254927 66.439219 
L 1039.761821 79.059936 
L 1097.628488 84.549112 
L 1098.913814 84.919219 
L 1132.018146 103.399219 
L 1155.495154 111.384456 
L 1157.782903 121.879219 
L 1161.83041 140.359219 
L 1176.56053 158.839219 
L 1186.590987 163.006351 
M 1186.590987 408.664195 
L 1155.495154 410.560936 
L 1097.628488 416.226423 
L 1086.745108 417.559219 
L 1039.761821 422.66459 
L 1000.094218 436.039219 
L 1003.500382 454.519219 
L 981.895154 457.075128 
L 950.700458 455.253678 
" style="fill:none;stroke:#238a8d;stroke-width:1.5;"/>
   </g>
   <g id="LineCollection_11">
    <path clip-path="url(#pea6350372f)" d="M 904.108046 452.195183 
L 866.161821 445.073921 
L 808.295154 439.644677 
L 750.428488 437.28885 
L 732.254897 436.039219 
L 692.561821 430.176679 
L 634.695154 418.083904 
L 633.005989 417.559219 
L 589.902452 399.079219 
L 576.828488 392.597012 
L 567.08957 380.599219 
L 541.283269 362.119219 
L 518.961821 352.950993 
L 496.391308 343.639219 
L 483.594283 325.159219 
L 478.567559 306.679219 
L 472.944755 288.199219 
L 499.726943 269.719219 
L 518.961821 266.646222 
L 575.34573 251.239219 
L 576.828488 250.939642 
L 625.841392 232.759219 
L 634.356566 214.279219 
L 634.695154 212.791947 
L 664.534615 195.799219 
L 680.242288 177.319219 
L 691.049251 158.839219 
L 692.33549 140.359219 
L 692.561821 137.151307 
L 740.555125 121.879219 
L 750.428488 108.106998 
L 767.580115 103.399219 
L 807.058522 84.919219 
L 808.295154 79.389933 
L 836.961537 66.439219 
L 864.779293 47.959219 
L 866.161821 44.222712 
L 924.028488 45.317174 
L 938.628063 47.959219 
L 981.895154 60.365573 
L 1008.274914 66.439219 
L 1039.761821 76.75912 
L 1097.628488 83.903019 
L 1101.157598 84.919219 
L 1148.378998 103.399219 
L 1155.495154 105.819638 
L 1158.995976 121.879219 
L 1165.290828 140.359219 
L 1186.590987 157.854562 
M 1186.590987 419.187464 
L 1155.495154 420.691809 
L 1097.628488 425.371868 
L 1039.761821 432.91636 
L 1030.499782 436.039219 
L 1021.808123 454.519219 
L 981.895154 459.240943 
L 929.039114 455.648762 
" style="fill:none;stroke:#1f968b;stroke-width:1.5;"/>
   </g>
   <g id="LineCollection_12">
    <path clip-path="url(#pea6350372f)" d="M 878.756722 43.008844 
L 924.028488 44.297107 
L 944.264809 47.959219 
L 981.895154 58.749299 
L 1015.294901 66.439219 
L 1039.761821 74.458304 
L 1097.628488 83.256926 
L 1103.401382 84.919219 
L 1155.495154 102.960142 
L 1155.738647 103.399219 
L 1160.209048 121.879219 
L 1168.751247 140.359219 
L 1186.590987 151.251273 
M 1186.590987 427.991026 
L 1155.495154 429.567261 
L 1097.628488 434.203295 
L 1084.310604 436.039219 
L 1040.287408 454.519219 
L 1039.761821 457.039182 
L 981.895154 461.406758 
L 924.028488 456.580739 
L 904.336917 454.519219 
L 866.161821 447.355005 
L 808.295154 441.28121 
L 750.428488 438.83535 
L 709.763901 436.039219 
L 692.561821 433.498527 
L 634.695154 420.130889 
L 626.415946 417.559219 
L 579.452117 399.079219 
L 576.828488 397.778396 
L 562.883707 380.599219 
L 533.026799 362.119219 
L 518.961821 356.342224 
L 488.171412 343.639219 
L 476.453807 325.159219 
L 471.309903 306.679219 
L 464.571815 288.199219 
L 492.485071 269.719219 
L 518.961821 265.489248 
L 571.111636 251.239219 
L 576.828488 250.084183 
L 623.535147 232.759219 
L 633.679916 214.279219 
L 634.695154 209.819719 
L 659.315343 195.799219 
L 677.93917 177.319219 
L 690.762685 158.839219 
L 692.289371 140.359219 
L 692.561821 136.497644 
L 738.500955 121.879219 
L 750.428488 105.241664 
L 757.140979 103.399219 
L 806.276257 84.919219 
L 808.295154 75.892235 
L 829.219387 66.439219 
L 858.061774 51.200929 
" style="fill:none;stroke:#20a386;stroke-width:1.5;"/>
   </g>
   <g id="LineCollection_13">
    <path clip-path="url(#pea6350372f)" d="M 1186.590987 436.833255 
L 1155.495154 438.584134 
L 1097.628488 443.735778 
L 1067.465716 454.519219 
L 1097.628488 465.625465 
L 1122.76004 472.999219 
L 1097.628488 474.168623 
L 1039.761821 473.822211 
L 1030.052586 472.999219 
L 981.895154 463.572573 
L 924.028488 457.853246 
L 892.181974 454.519219 
L 866.161821 449.63609 
L 808.295154 442.917744 
L 750.428488 440.381849 
L 692.561821 436.403787 
L 690.619727 436.039219 
L 634.695154 422.177875 
L 619.825903 417.559219 
L 576.828488 400.982069 
L 574.679901 399.079219 
L 558.677844 380.599219 
L 524.770329 362.119219 
L 518.961821 359.733454 
L 479.951515 343.639219 
L 469.313332 325.159219 
L 464.052247 306.679219 
L 461.095154 299.090593 
L 457.334814 288.199219 
L 461.095154 285.441918 
L 485.2432 269.719219 
L 518.961821 264.332274 
L 566.877541 251.239219 
L 576.828488 249.228724 
L 621.228901 232.759219 
L 633.003266 214.279219 
L 634.695154 206.847492 
L 654.096071 195.799219 
L 675.636052 177.319219 
L 690.47612 158.839219 
L 692.243253 140.359219 
L 692.561821 135.84398 
L 736.446785 121.879219 
L 750.407441 103.399219 
L 750.428488 103.305972 
L 805.493992 84.919219 
L 808.295154 72.394536 
L 821.477238 66.439219 
L 863.615795 47.959219 
L 866.161821 41.078171 
L 924.028488 43.277041 
L 949.901556 47.959219 
L 981.895154 57.133025 
L 1022.314888 66.439219 
L 1039.761821 72.157488 
L 1097.628488 82.610834 
L 1105.645166 84.919219 
L 1155.495154 102.183083 
L 1156.169571 103.399219 
L 1161.422121 121.879219 
L 1172.211666 140.359219 
L 1186.590987 147.345377 
" style="fill:none;stroke:#29af7f;stroke-width:1.5;"/>
   </g>
   <g id="LineCollection_14">
    <path clip-path="url(#pea6350372f)" d="M 1186.590987 446.102543 
L 1155.495154 447.981812 
L 1097.628488 453.452249 
L 1094.644025 454.519219 
L 1097.628488 455.618129 
L 1155.495154 471.988786 
L 1158.67337 472.999219 
L 1155.495154 473.129852 
L 1097.628488 475.755688 
L 1039.761821 474.760071 
L 1018.988195 472.999219 
L 981.895154 465.738389 
L 924.028488 459.125752 
L 880.027032 454.519219 
L 866.161821 451.917174 
L 808.295154 444.554278 
L 750.428488 441.928349 
L 692.561821 437.954105 
L 682.36102 436.039219 
L 634.695154 424.22486 
L 613.23586 417.559219 
L 576.828488 403.522783 
L 571.811075 399.079219 
L 554.471981 380.599219 
L 518.961821 362.746158 
L 516.931104 362.119219 
L 471.731619 343.639219 
L 462.172856 325.159219 
L 461.095154 321.407745 
L 458.371486 306.679219 
L 450.904401 288.199219 
L 461.095154 280.726763 
L 478.001328 269.719219 
L 518.961821 263.1753 
L 562.643446 251.239219 
L 576.828488 248.373266 
L 618.922656 232.759219 
L 632.326616 214.279219 
L 634.695154 203.875264 
L 648.876799 195.799219 
L 673.332934 177.319219 
L 690.189554 158.839219 
L 692.197134 140.359219 
L 692.561821 135.190317 
L 734.392615 121.879219 
L 750.348484 103.399219 
L 750.428488 103.044769 
L 804.711727 84.919219 
L 808.295154 68.896837 
L 813.735088 66.439219 
L 863.034047 47.959219 
L 866.161821 39.5059 
L 924.028488 42.256974 
L 955.538302 47.959219 
L 981.895154 55.516751 
L 1029.334875 66.439219 
L 1039.761821 69.856673 
L 1097.628488 81.964741 
L 1107.88895 84.919219 
L 1155.495154 101.406024 
L 1156.600494 103.399219 
L 1162.635193 121.879219 
L 1175.672084 140.359219 
L 1186.590987 145.379818 
" style="fill:none;stroke:#3dbc74;stroke-width:1.5;"/>
   </g>
   <g id="LineCollection_15">
    <path clip-path="url(#pea6350372f)" d="M 1186.590987 475.383881 
L 1155.495154 476.37655 
L 1097.628488 477.342753 
L 1039.761821 475.697932 
L 1007.923803 472.999219 
L 981.895154 467.904204 
L 924.028488 460.398259 
L 867.872089 454.519219 
L 866.161821 454.198258 
L 808.295154 446.190812 
L 750.428488 443.474848 
L 692.561821 439.504423 
L 674.102312 436.039219 
L 634.695154 426.271846 
L 606.645817 417.559219 
L 576.828488 406.063496 
L 568.942249 399.079219 
L 550.266118 380.599219 
L 518.961821 364.860694 
L 510.081912 362.119219 
L 463.511723 343.639219 
L 461.095154 338.886248 
L 458.069791 325.159219 
L 453.775006 306.679219 
L 444.473988 288.199219 
L 461.095154 276.011609 
L 470.759457 269.719219 
L 518.961821 262.018326 
L 558.409352 251.239219 
L 576.828488 247.517807 
L 616.616411 232.759219 
L 631.649966 214.279219 
L 634.695154 200.903036 
L 643.657527 195.799219 
L 671.029816 177.319219 
L 689.902989 158.839219 
L 692.151015 140.359219 
L 692.561821 134.536653 
L 732.338445 121.879219 
L 750.289527 103.399219 
L 750.428488 102.783565 
L 803.929462 84.919219 
L 808.26484 66.439219 
L 808.295154 66.380378 
L 862.452298 47.959219 
L 866.161821 37.93363 
L 924.028488 41.236908 
L 961.175048 47.959219 
L 981.895154 53.900477 
L 1036.354862 66.439219 
L 1039.761821 67.555857 
L 1097.628488 81.318648 
L 1110.132734 84.919219 
L 1155.495154 100.628965 
L 1157.031418 103.399219 
L 1163.848266 121.879219 
L 1179.132503 140.359219 
L 1186.590987 143.78869 
" style="fill:none;stroke:#56c667;stroke-width:1.5;"/>
    <path clip-path="url(#pea6350372f)" style="fill:none;stroke:#56c667;stroke-width:1.5;"/>
   </g>
   <g id="LineCollection_16">
    <path clip-path="url(#pea6350372f)" d="M 1186.590987 479.558401 
L 1155.495154 479.623248 
L 1097.628488 478.929818 
L 1039.761821 476.635792 
L 996.859412 472.999219 
L 981.895154 470.070019 
L 924.028488 461.670766 
L 866.161821 455.464601 
L 856.113111 454.519219 
L 808.295154 447.827346 
L 750.428488 445.021348 
L 692.561821 441.054741 
L 665.843604 436.039219 
L 634.695154 428.318831 
L 600.055774 417.559219 
L 576.828488 408.60421 
L 566.073423 399.079219 
L 546.060255 380.599219 
L 518.961821 366.975231 
L 503.232721 362.119219 
L 461.095154 345.54162 
L 458.976657 343.639219 
L 454.506648 325.159219 
L 449.178526 306.679219 
L 438.043575 288.199219 
L 461.095154 271.296454 
L 463.517586 269.719219 
L 518.961821 260.861352 
L 554.175257 251.239219 
L 576.828488 246.662348 
L 614.310165 232.759219 
L 630.973317 214.279219 
L 634.695154 197.930809 
L 638.438255 195.799219 
L 668.726699 177.319219 
L 689.616424 158.839219 
L 692.104897 140.359219 
L 692.561821 133.88299 
L 730.284275 121.879219 
L 750.23057 103.399219 
L 750.428488 102.522361 
L 803.147198 84.919219 
L 808.162898 66.439219 
L 808.295154 66.1825 
L 861.870549 47.959219 
L 866.161821 36.361359 
L 924.028488 40.216841 
L 966.811794 47.959219 
L 981.895154 52.284203 
L 1039.761821 66.278013 
L 1041.082879 66.439219 
L 1097.628488 80.672556 
L 1112.376518 84.919219 
L 1155.495154 99.851906 
L 1157.462342 103.399219 
L 1165.061338 121.879219 
L 1182.592921 140.359219 
L 1186.590987 142.197562 
" style="fill:none;stroke:#75d054;stroke-width:1.5;"/>
   </g>
   <g id="LineCollection_17">
    <path clip-path="url(#pea6350372f)" d="M 762.379839 98.270519 
L 802.364933 84.919219 
L 808.060956 66.439219 
L 808.295154 65.984622 
L 861.288801 47.959219 
L 866.161821 34.789089 
L 924.028488 39.196775 
L 972.44854 47.959219 
L 981.895154 50.66793 
L 1039.761821 65.964795 
L 1043.649649 66.439219 
L 1097.628488 80.026463 
L 1114.620302 84.919219 
L 1155.495154 99.074847 
L 1157.893265 103.399219 
L 1166.27441 121.879219 
L 1186.05334 140.359219 
L 1186.590987 140.606433 
M 1186.590987 483.73292 
L 1155.495154 482.869946 
L 1097.628488 480.516883 
L 1039.761821 477.573653 
L 985.795021 472.999219 
L 981.895154 472.235834 
L 924.028488 462.943273 
L 866.161821 456.564786 
L 844.418972 454.519219 
L 808.295154 449.463879 
L 750.428488 446.567847 
L 692.561821 442.605058 
L 657.584896 436.039219 
L 634.695154 430.365817 
L 593.465731 417.559219 
L 576.828488 411.144924 
L 563.204597 399.079219 
L 541.854392 380.599219 
L 518.961821 369.089767 
L 496.383529 362.119219 
L 461.095154 348.236203 
L 455.975994 343.639219 
L 450.943505 325.159219 
L 444.582046 306.679219 
L 431.613162 288.199219 
L 452.547738 269.719219 
L 461.095154 269.09513 
L 518.961821 259.704379 
L 549.941163 251.239219 
L 576.828488 245.806889 
L 612.00392 232.759219 
L 630.296667 214.279219 
L 634.615781 195.799219 
L 634.695154 195.427452 
L 666.423581 177.319219 
L 689.329858 158.839219 
L 692.058778 140.359219 
L 692.561821 133.229327 
L 728.230105 121.879219 
L 741.426725 110.764507 
" style="fill:none;stroke:#95d840;stroke-width:1.5;"/>
   </g>
   <g id="LineCollection_18">
    <path clip-path="url(#pea6350372f)" d="M 1186.590987 487.90744 
L 1155.495154 486.116645 
L 1097.628488 482.103948 
L 1039.761821 478.511513 
L 981.895154 473.536682 
L 976.932187 472.999219 
L 924.028488 464.21578 
L 866.161821 457.66497 
L 832.724832 454.519219 
L 808.295154 451.100413 
L 750.428488 448.114347 
L 692.561821 444.155376 
L 649.326189 436.039219 
L 634.695154 432.412802 
L 586.875688 417.559219 
L 576.828488 413.685638 
L 560.335771 399.079219 
L 537.648529 380.599219 
L 518.961821 371.204304 
L 489.534338 362.119219 
L 461.095154 350.930785 
L 452.975331 343.639219 
L 447.380362 325.159219 
L 439.985566 306.679219 
L 425.182749 288.199219 
L 439.704069 269.719219 
L 461.095154 268.15735 
L 518.961821 258.547405 
L 545.707068 251.239219 
L 576.828488 244.951431 
L 609.697675 232.759219 
L 629.620017 214.279219 
L 634.335142 195.799219 
L 634.695154 194.113003 
L 664.120463 177.319219 
L 689.043293 158.839219 
L 692.01266 140.359219 
L 692.561821 132.575663 
L 726.175935 121.879219 
L 750.112656 103.399219 
L 750.428488 101.999954 
L 801.582668 84.919219 
L 807.959014 66.439219 
L 808.295154 65.786745 
L 860.707052 47.959219 
L 866.161821 33.216818 
L 924.028488 38.176708 
L 978.085286 47.959219 
L 981.895154 49.051656 
L 1039.761821 65.651578 
L 1046.216419 66.439219 
L 1097.628488 79.38037 
L 1116.864086 84.919219 
L 1155.495154 98.297788 
L 1158.324189 103.399219 
L 1167.487483 121.879219 
L 1186.590987 137.90702 
" style="fill:none;stroke:#bade28;stroke-width:1.5;"/>
   </g>
   <g id="LineCollection_19">
    <path clip-path="url(#pea6350372f)" style="fill:none;stroke:#dde318;stroke-width:1.5;"/>
    <path clip-path="url(#pea6350372f)" d="M 1186.590987 491.493067 
L 1185.822038 491.479219 
L 1155.495154 489.363343 
L 1097.628488 483.691013 
L 1039.761821 479.449373 
L 981.895154 474.366702 
L 969.267726 472.999219 
L 924.028488 465.488287 
L 866.161821 458.765154 
L 821.030692 454.519219 
L 808.295154 452.736947 
L 750.428488 449.660846 
L 692.561821 445.705694 
L 641.067481 436.039219 
L 634.695154 434.459788 
L 580.285645 417.559219 
L 576.828488 416.226352 
L 557.466945 399.079219 
L 533.442666 380.599219 
L 518.961821 373.31884 
L 482.685146 362.119219 
L 461.095154 353.625368 
L 449.974668 343.639219 
L 443.817219 325.159219 
L 435.389087 306.679219 
L 418.752336 288.199219 
L 426.860401 269.719219 
L 461.095154 267.21957 
L 518.961821 257.390431 
L 541.472973 251.239219 
L 576.828488 244.095972 
L 607.391429 232.759219 
L 628.943367 214.279219 
L 634.054503 195.799219 
L 634.695154 192.798554 
L 661.817345 177.319219 
L 688.756727 158.839219 
L 691.966541 140.359219 
L 692.561821 131.922 
L 724.121765 121.879219 
L 750.0537 103.399219 
L 750.428488 101.73875 
L 800.800403 84.919219 
L 807.857071 66.439219 
L 808.295154 65.588867 
L 860.125303 47.959219 
L 866.161821 31.644548 
L 924.028488 37.156642 
L 981.895154 47.878164 
L 982.231199 47.959219 
L 1039.761821 65.338361 
L 1048.78319 66.439219 
L 1097.628488 78.734277 
L 1119.10787 84.919219 
L 1155.495154 97.520729 
L 1158.755112 103.399219 
L 1168.700555 121.879219 
L 1186.590987 135.499567 
" style="fill:none;stroke:#dde318;stroke-width:1.5;"/>
   </g>
   <g id="LineCollection_20">
    <path clip-path="url(#pea6350372f)" style="fill:none;stroke:#fde725;stroke-width:1.5;"/>
    <path clip-path="url(#pea6350372f)" d="M 1186.590987 492.31519 
L 1155.495154 491.736621 
L 1150.759063 491.479219 
L 1097.628488 485.278078 
L 1039.761821 480.387234 
L 981.895154 475.196722 
L 961.603266 472.999219 
L 924.028487 466.760794 
L 866.161821 459.865339 
L 809.336552 454.519219 
L 808.295154 454.373481 
L 750.428488 451.207346 
L 692.561821 447.256012 
L 634.695154 436.335823 
L 633.586491 436.039219 
L 576.828488 418.281168 
L 575.673811 417.559219 
L 554.598119 399.079219 
L 529.236803 380.599219 
L 518.961821 375.433376 
L 475.835955 362.119219 
L 461.095154 356.31995 
L 446.974006 343.639219 
L 440.254075 325.159219 
L 430.792607 306.679219 
L 412.321922 288.199219 
L 414.016733 269.719219 
L 461.095154 266.28179 
L 518.961821 256.233457 
L 537.238879 251.239219 
L 576.828488 243.240513 
L 605.085184 232.759219 
L 628.266717 214.279219 
L 633.773864 195.799219 
L 634.695154 191.484106 
L 659.514228 177.319219 
L 688.470162 158.839219 
L 691.920422 140.359219 
L 692.561821 131.268336 
L 722.067595 121.879219 
L 749.994743 103.399219 
L 750.428488 101.477546 
L 800.018138 84.919219 
L 807.755129 66.439219 
L 808.295154 65.39099 
L 859.543554 47.959219 
L 866.161821 30.072277 
L 924.028488 36.136575 
L 981.895154 47.628075 
L 983.268051 47.959219 
L 1039.761821 65.025143 
L 1051.34996 66.439219 
L 1097.628488 78.088185 
L 1121.351654 84.919219 
L 1155.495154 96.74367 
L 1159.186036 103.399219 
L 1169.913628 121.879219 
L 1186.590987 133.500122 
" style="fill:none;stroke:#fde725;stroke-width:1.5;"/>
   </g>
   <g id="LineCollection_21">
    <path clip-path="url(#pea6350372f)" d="M 1186.590987 493.107448 
L 1155.495154 492.475649 
L 1137.161294 491.479219 
L 1097.628488 486.865143 
L 1039.761821 481.325094 
L 981.895154 476.026742 
L 953.938805 472.999219 
L 924.028488 468.0333 
L 866.161821 460.965523 
L 808.295154 455.428902 
L 782.61228 454.519219 
L 750.428488 452.753846 
L 692.561821 448.80633 
L 634.695154 437.634378 
L 628.732687 436.039219 
L 576.828488 419.799792 
L 573.244941 417.559219 
L 551.729293 399.079219 
L 525.03094 380.599219 
L 518.961821 377.547913 
L 468.986763 362.119219 
L 461.095154 359.014532 
L 443.973343 343.639219 
L 436.690932 325.159219 
L 426.196127 306.679219 
L 405.891509 288.199219 
L 403.228488 274.870068 
L 399.041904 269.719219 
L 403.228488 269.356592 
L 461.095154 265.34401 
L 518.961821 255.076483 
L 533.004784 251.239219 
L 576.828488 242.385055 
L 602.778939 232.759219 
L 627.590068 214.279219 
L 633.493225 195.799219 
L 634.695154 190.169657 
L 657.21111 177.319219 
L 688.183596 158.839219 
L 691.874304 140.359219 
L 692.561821 130.614673 
L 720.013424 121.879219 
L 749.935786 103.399219 
L 750.428488 101.216343 
L 799.235873 84.919219 
L 807.653187 66.439219 
L 808.295154 65.193112 
L 858.961806 47.959219 
L 866.133979 29.479219 
L 866.161821 29.396679 
L 872.022658 29.479219 
L 924.028488 35.116508 
L 981.895154 47.377985 
L 984.304903 47.959219 
L 1039.761821 64.711926 
L 1053.91673 66.439219 
L 1097.628488 77.442092 
L 1123.595438 84.919219 
L 1149.919068 94.035521 
" style="fill:none;stroke:#440154;stroke-width:1.5;"/>
    <path clip-path="url(#pea6350372f)" d="M 1167.229786 115.622347 
L 1171.1267 121.879219 
L 1186.590987 131.813066 
" style="fill:none;stroke:#440154;stroke-width:1.5;"/>
   </g>
   <g id="LineCollection_22">
    <path clip-path="url(#pea6350372f)" d="M 1162.564635 565.399219 
L 1155.495154 565.031605 
L 1097.628488 561.571975 
L 1039.761821 557.480214 
L 981.895154 552.906655 
L 924.028488 549.02064 
L 875.593709 546.919219 
L 866.161821 546.373681 
L 808.295154 543.25648 
L 750.428488 539.595411 
L 692.561821 535.533344 
L 634.695154 530.47495 
L 618.183508 528.439219 
L 576.828488 521.670475 
L 518.961821 510.35421 
L 517.710119 509.959219 
L 474.667374 496.48296 
" style="fill:none;stroke:#440154;stroke-width:1.5;"/>
    <path clip-path="url(#pea6350372f)" d="M 444.237626 485.431774 
L 413.340635 472.999219 
L 403.228488 469.24175 
L 384.85384 454.519219 
L 356.403833 436.039219 
L 345.361821 430.640327 
L 321.301326 417.559219 
L 287.495154 403.75202 
L 281.209043 399.079219 
L 276.14625 380.599219 
L 267.137238 362.119219 
L 244.785042 343.639219 
L 229.628488 336.489696 
L 214.732395 325.159219 
L 216.572932 306.679219 
L 226.384524 288.199219 
L 229.628488 281.559408 
L 248.503531 269.719219 
L 277.787533 251.239219 
L 287.495154 243.750346 
L 317.406391 232.759219 
L 345.361821 230.572788 
L 403.228488 217.942321 
L 461.095154 219.070619 
L 518.961821 220.070926 
L 537.801448 214.279219 
L 576.828488 198.99051 
L 582.978195 195.799219 
L 610.598204 177.319219 
L 634.695154 159.534372 
L 636.60182 158.839219 
L 683.572959 140.359219 
L 691.61433 121.879219 
L 692.561821 118.670765 
L 739.323555 103.399219 
L 749.740607 84.919219 
L 750.428488 80.56331 
L 789.30358 66.439219 
L 807.061006 47.959219 
L 808.295154 46.536453 
L 858.087358 29.479219 
L 865.939728 10.999219 
" style="fill:none;stroke:#440154;stroke-width:1.5;"/>
    <path clip-path="url(#pea6350372f)" d="M 939.463303 10.999219 
L 981.895154 23.420564 
L 1007.796885 29.479219 
L 1039.761821 38.97827 
L 1097.628488 47.10326 
L 1101.819442 47.959219 
L 1155.495154 63.924068 
L 1159.379953 66.439219 
L 1183.346125 84.919219 
L 1186.590987 86.44495 
" style="fill:none;stroke:#440154;stroke-width:1.5;"/>
    <path clip-path="url(#pea6350372f)" style="fill:none;stroke:#440154;stroke-width:1.5;"/>
   </g>
   <g id="LineCollection_23">
    <path clip-path="url(#pea6350372f)" d="M 401.723539 565.399219 
L 363.054991 546.919219 
L 345.361821 539.755907 
L 331.417312 528.439219 
L 300.204323 509.959219 
L 287.495154 503.435384 
L 273.921112 491.479219 
L 242.42611 472.999219 
L 231.598814 467.567159 
" style="fill:none;stroke:#440154;stroke-width:1.5;"/>
    <path clip-path="url(#pea6350372f)" d="M 204.868407 443.933901 
L 194.01044 436.039219 
L 171.761821 424.992659 
L 162.835615 417.559219 
L 127.004142 399.079219 
L 113.895154 392.780722 
L 106.994547 380.599219 
L 101.608879 362.119219 
L 103.750583 343.639219 
L 110.077807 325.159219 
L 113.895154 318.024056 
L 134.438269 306.679219 
L 162.00099 288.199219 
L 171.761821 273.021737 
L 179.074929 269.719219 
L 223.52612 251.239219 
L 229.628488 247.226709 
L 272.233179 232.759219 
L 287.495154 230.54755 
L 342.136354 214.279219 
L 345.361821 214.133688 
L 403.228488 210.225317 
L 453.765334 195.799219 
L 461.095154 194.798946 
L 518.961821 181.976833 
L 532.417378 177.319219 
L 576.828488 164.26222 
L 592.196935 158.839219 
L 633.071935 140.359219 
L 634.695154 138.831012 
L 681.37955 121.879219 
L 691.63826 103.399219 
L 692.561821 101.327857 
L 739.212507 84.919219 
L 749.109076 66.439219 
L 750.428488 59.685691 
L 783.150181 47.959219 
L 807.137305 29.479219 
L 808.295154 28.154909 
L 856.232443 10.999219 
" style="fill:none;stroke:#440154;stroke-width:1.5;"/>
    <path clip-path="url(#pea6350372f)" d="M 1049.862366 10.999219 
L 1097.628488 23.113393 
L 1136.839668 29.479219 
L 1155.495154 34.69984 
L 1186.257338 47.959219 
L 1186.590987 48.089065 
" style="fill:none;stroke:#440154;stroke-width:1.5;"/>
    <path clip-path="url(#pea6350372f)" style="fill:none;stroke:#440154;stroke-width:1.5;"/>
   </g>
   <g id="LineCollection_24">
    <path clip-path="url(#pea6350372f)" d="M 266.426292 565.399219 
L 230.423917 546.919219 
L 229.628488 546.519246 
L 214.937824 528.439219 
L 186.608332 509.959219 
L 177.585405 505.185788 
" style="fill:none;stroke:#440154;stroke-width:1.5;"/>
    <path clip-path="url(#pea6350372f)" d="M 149.378889 478.030349 
L 143.942711 472.999219 
L 113.895154 457.354375 
L 112.036991 454.519219 
L 96.119478 436.039219 
L 61.018089 417.559219 
L 56.028488 415.062941 
" style="fill:none;stroke:#440154;stroke-width:1.5;"/>
    <path clip-path="url(#pea6350372f)" d="M 56.028488 310.313363 
L 63.518021 306.679219 
L 104.20238 288.199219 
L 113.895154 279.449039 
L 139.110786 269.719219 
L 170.088162 251.239219 
L 171.761821 250.450012 
L 225.190631 232.759219 
L 229.628488 231.580792 
L 285.809693 214.279219 
L 287.495154 214.081918 
L 345.361821 210.464117 
L 395.122592 195.799219 
L 403.228488 194.313818 
L 442.145408 182.707356 
" style="fill:none;stroke:#440154;stroke-width:1.5;"/>
    <path clip-path="url(#pea6350372f)" d="M 480.234086 171.903669 
L 518.961821 161.637238 
L 527.798353 158.839219 
L 576.828488 146.011935 
L 593.597364 140.359219 
L 630.708216 121.879219 
L 634.695154 118.520788 
L 675.127226 103.399219 
L 690.28694 84.919219 
L 692.561821 81.412433 
L 732.368296 66.439219 
L 747.712994 47.959219 
L 750.428488 38.740028 
L 776.763779 29.479219 
L 806.106933 10.999219 
" style="fill:none;stroke:#440154;stroke-width:1.5;"/>
    <path clip-path="url(#pea6350372f)" d="M 1185.085932 10.999219 
L 1186.590987 11.467926 
" style="fill:none;stroke:#440154;stroke-width:1.5;"/>
    <path clip-path="url(#pea6350372f)" style="fill:none;stroke:#440154;stroke-width:1.5;"/>
   </g>
   <g id="LineCollection_25">
    <path clip-path="url(#pea6350372f)" d="M 165.791608 565.399219 
L 145.788669 546.919219 
L 131.311488 539.234591 
" style="fill:none;stroke:#440154;stroke-width:1.5;"/>
    <path clip-path="url(#pea6350372f)" d="M 101.400711 510.109773 
L 101.306846 509.959219 
L 82.03479 491.479219 
L 56.028488 476.464617 
" style="fill:none;stroke:#440154;stroke-width:1.5;"/>
    <path clip-path="url(#pea6350372f)" d="M 56.028488 282.975601 
L 93.316359 269.719219 
L 113.895154 256.24791 
L 128.262024 251.239219 
L 171.394109 232.759219 
L 171.761821 232.633414 
L 229.628488 215.763612 
L 234.448568 214.279219 
L 287.495154 208.069552 
L 332.208358 195.799219 
L 345.361821 193.35484 
L 399.707245 177.319219 
L 403.228488 175.940526 
L 440.540146 163.56307 
" style="fill:none;stroke:#440154;stroke-width:1.5;"/>
    <path clip-path="url(#pea6350372f)" d="M 481.821616 150.850726 
L 517.583158 140.359219 
L 518.961821 139.957485 
L 572.959948 121.879219 
L 576.828488 119.975434 
L 620.427529 103.399219 
L 634.695154 90.895226 
L 649.437461 84.919219 
L 684.09118 66.439219 
L 692.561821 57.143275 
L 716.252766 47.959219 
L 743.781605 29.479219 
L 750.428488 15.428882 
L 762.87616 10.999219 
" style="fill:none;stroke:#440154;stroke-width:1.5;"/>
   </g>
   <g id="LineCollection_26">
    <path clip-path="url(#pea6350372f)" d="M 73.863317 565.399219 
L 56.028488 555.353151 
" style="fill:none;stroke:#450457;stroke-width:1.5;"/>
    <path clip-path="url(#pea6350372f)" d="M 56.028488 262.634595 
L 89.651213 251.239219 
L 113.895154 239.921851 
L 135.70595 232.759219 
L 171.761821 220.423507 
L 191.255082 214.279219 
L 229.628488 204.15697 
L 258.956552 195.799219 
L 287.495154 188.932692 
L 327.395363 177.319219 
L 345.361821 171.211378 
L 382.53583 158.839219 
L 403.228488 150.37193 
L 412.694573 147.389972 
" style="fill:none;stroke:#450457;stroke-width:1.5;"/>
    <path clip-path="url(#pea6350372f)" d="M 457.590319 134.207702 
L 461.095154 133.252743 
L 497.40631 121.879219 
L 518.961821 113.496231 
L 547.699403 103.399219 
L 576.828488 87.040891 
L 582.256283 84.919219 
L 626.485451 66.439219 
L 634.695154 60.472502 
L 666.955912 47.959219 
L 690.453358 29.479219 
L 692.561821 26.998822 
L 730.92806 10.999219 
" style="fill:none;stroke:#450457;stroke-width:1.5;"/>
   </g>
   <g id="LineCollection_27">
    <path clip-path="url(#pea6350372f)" d="M 56.028488 241.626022 
L 82.629948 232.759219 
L 113.895154 219.384805 
L 129.750437 214.279219 
L 171.761821 199.15251 
L 182.554789 195.799219 
L 229.628488 179.960596 
L 238.328409 177.319219 
L 287.495154 160.991372 
L 294.153783 158.839219 
L 341.144964 140.359219 
L 345.361821 139.184498 
L 378.688729 129.146741 
" style="fill:none;stroke:#482475;stroke-width:1.5;"/>
    <path clip-path="url(#pea6350372f)" d="M 426.775863 114.065429 
L 459.431451 103.399219 
L 461.095154 102.689715 
L 512.614241 84.919219 
L 518.961821 81.477197 
L 560.219292 66.439219 
L 576.828488 56.705486 
L 600.154194 47.959219 
L 632.359308 29.479219 
L 634.695154 27.700315 
L 676.095013 10.999219 
" style="fill:none;stroke:#482475;stroke-width:1.5;"/>
   </g>
   <g id="LineCollection_28">
    <path clip-path="url(#pea6350372f)" d="M 56.028488 216.735054 
L 63.412024 214.279219 
L 112.198638 195.799219 
L 113.895154 194.966301 
L 166.610237 177.319219 
L 171.761821 174.968262 
L 220.373568 158.839219 
L 229.628488 153.963567 
L 268.255639 140.359219 
L 287.495154 132.924355 
L 319.285229 123.094857 
" style="fill:none;stroke:#fde725;stroke-width:1.5;"/>
    <path clip-path="url(#pea6350372f)" d="M 371.114639 107.996377 
L 385.710392 103.399219 
L 403.228488 97.127246 
L 439.230126 84.919219 
L 461.095154 74.138064 
L 482.639029 66.439219 
L 517.442381 47.959219 
L 518.961821 47.013241 
L 567.077786 29.479219 
L 576.828488 23.679067 
L 609.870326 10.999219 
" style="fill:none;stroke:#fde725;stroke-width:1.5;"/>
   </g>
   <g id="line2d_20">
    <path clip-path="url(#pea6350372f)" d="M 1186.590987 246.236411 
L 1144.924442 240.663472 
L 933.709673 217.090537 
L 792.465331 202.494061 
L 699.326736 193.937807 
L 638.239539 189.128894 
L 598.296476 186.705103 
L 572.331966 185.796721 
L 555.516798 186.030308 
L 544.744576 186.951009 
L 537.912375 188.344205 
L 533.690861 190.01318 
L 531.167022 191.888004 
L 529.733727 193.983726 
L 529.025274 196.192111 
L 528.738411 198.606728 
L 528.726393 201.173365 
L 528.899509 203.836691 
L 529.165305 206.6532 
L 529.500178 209.55782 
L 529.924784 212.480409 
L 530.393201 215.404802 
L 530.91963 218.296045 
L 531.508945 221.116903 
L 532.088076 223.955776 
L 532.715023 226.701853 
L 533.399126 229.328156 
L 534.118033 231.869058 
L 534.882146 234.327664 
L 535.626576 236.830548 
L 536.339496 239.441773 
L 537.051888 242.112963 
L 537.782503 244.7442 
L 538.524693 247.294397 
L 539.275429 249.878353 
L 540.048299 252.434478 
L 540.827853 254.961895 
L 541.625871 257.416014 
L 542.427419 259.931114 
L 543.23859 262.38265 
L 544.038165 264.888332 
L 544.816233 267.526229 
L 545.61044 270.145914 
L 546.390987 272.697746 
L 547.188842 275.112335 
L 547.994348 277.525195 
L 548.818207 279.905705 
L 549.618124 282.292818 
L 549.699938 282.523748 
L 549.782304 282.751714 
L 549.866465 282.97303 
L 549.951756 283.188266 
L 550.039158 283.405198 
L 550.126723 283.61956 
L 550.212113 283.840909 
L 550.298303 284.060929 
L 550.387229 284.281013 
L 550.475086 284.504574 
L 550.560358 284.729948 
L 550.650652 284.946768 
L 550.736516 285.17097 
L 550.824909 285.384071 
L 550.911861 285.596429 
L 550.999375 285.812106 
L 551.085257 286.032755 
L 551.170115 286.255123 
L 551.256873 286.472289 
L 551.347152 286.678754 
L 551.437341 286.882873 
L 551.527591 287.0916 
L 551.619266 287.291754 
L 551.711816 287.492133 
L 551.807134 287.68571 
L 551.816519 287.705094 
L 551.825403 287.725891 
L 551.83408 287.746808 
L 551.842514 287.768564 
L 551.850837 287.790569 
L 551.859415 287.811836 
L 551.868041 287.832538 
L 551.876673 287.853113 
L 551.885172 287.874304 
L 551.893469 287.895568 
L 551.901698 287.917341 
L 551.910089 287.938074 
L 551.919016 287.957589 
L 551.928155 287.977701 
L 551.937145 287.997434 
L 551.946166 288.017465 
L 551.955415 288.036465 
L 551.964672 288.056538 
L 551.973989 288.07695 
L 551.98314 288.097082 
L 551.991966 288.117521 
L 552.001106 288.13795 
L 552.010222 288.158405 
L 552.019202 288.179075 
" style="fill:none;stroke:#1f77b4;stroke-linecap:square;stroke-width:1.5;"/>
    <defs>
     <path d="M 0 1.5 
C 0.397805 1.5 0.77937 1.341951 1.06066 1.06066 
C 1.341951 0.77937 1.5 0.397805 1.5 0 
C 1.5 -0.397805 1.341951 -0.77937 1.06066 -1.06066 
C 0.77937 -1.341951 0.397805 -1.5 0 -1.5 
C -0.397805 -1.5 -0.77937 -1.341951 -1.06066 -1.06066 
C -1.341951 -0.77937 -1.5 -0.397805 -1.5 0 
C -1.5 0.397805 -1.341951 0.77937 -1.06066 1.06066 
C -0.77937 1.341951 -0.397805 1.5 0 1.5 
z
" id="m073e9bdf9d" style="stroke:#1f77b4;"/>
    </defs>
    <g clip-path="url(#pea6350372f)">
     <use style="fill:#1f77b4;stroke:#1f77b4;" x="1408.044747" xlink:href="#m073e9bdf9d" y="280.585833"/>
     <use style="fill:#1f77b4;stroke:#1f77b4;" x="1389.098873" xlink:href="#m073e9bdf9d" y="276.237741"/>
     <use style="fill:#1f77b4;stroke:#1f77b4;" x="1342.351908" xlink:href="#m073e9bdf9d" y="267.069578"/>
     <use style="fill:#1f77b4;stroke:#1f77b4;" x="1144.924442" xlink:href="#m073e9bdf9d" y="240.663472"/>
     <use style="fill:#1f77b4;stroke:#1f77b4;" x="933.709673" xlink:href="#m073e9bdf9d" y="217.090537"/>
     <use style="fill:#1f77b4;stroke:#1f77b4;" x="792.465331" xlink:href="#m073e9bdf9d" y="202.494061"/>
     <use style="fill:#1f77b4;stroke:#1f77b4;" x="699.326736" xlink:href="#m073e9bdf9d" y="193.937807"/>
     <use style="fill:#1f77b4;stroke:#1f77b4;" x="638.239539" xlink:href="#m073e9bdf9d" y="189.128894"/>
     <use style="fill:#1f77b4;stroke:#1f77b4;" x="598.296476" xlink:href="#m073e9bdf9d" y="186.705103"/>
     <use style="fill:#1f77b4;stroke:#1f77b4;" x="572.331966" xlink:href="#m073e9bdf9d" y="185.796721"/>
     <use style="fill:#1f77b4;stroke:#1f77b4;" x="555.516798" xlink:href="#m073e9bdf9d" y="186.030308"/>
     <use style="fill:#1f77b4;stroke:#1f77b4;" x="544.744576" xlink:href="#m073e9bdf9d" y="186.951009"/>
     <use style="fill:#1f77b4;stroke:#1f77b4;" x="537.912375" xlink:href="#m073e9bdf9d" y="188.344205"/>
     <use style="fill:#1f77b4;stroke:#1f77b4;" x="533.690861" xlink:href="#m073e9bdf9d" y="190.01318"/>
     <use style="fill:#1f77b4;stroke:#1f77b4;" x="531.167022" xlink:href="#m073e9bdf9d" y="191.888004"/>
     <use style="fill:#1f77b4;stroke:#1f77b4;" x="529.733727" xlink:href="#m073e9bdf9d" y="193.983726"/>
     <use style="fill:#1f77b4;stroke:#1f77b4;" x="529.025274" xlink:href="#m073e9bdf9d" y="196.192111"/>
     <use style="fill:#1f77b4;stroke:#1f77b4;" x="528.738411" xlink:href="#m073e9bdf9d" y="198.606728"/>
     <use style="fill:#1f77b4;stroke:#1f77b4;" x="528.726393" xlink:href="#m073e9bdf9d" y="201.173365"/>
     <use style="fill:#1f77b4;stroke:#1f77b4;" x="528.899509" xlink:href="#m073e9bdf9d" y="203.836691"/>
     <use style="fill:#1f77b4;stroke:#1f77b4;" x="529.165305" xlink:href="#m073e9bdf9d" y="206.6532"/>
     <use style="fill:#1f77b4;stroke:#1f77b4;" x="529.500178" xlink:href="#m073e9bdf9d" y="209.55782"/>
     <use style="fill:#1f77b4;stroke:#1f77b4;" x="529.924784" xlink:href="#m073e9bdf9d" y="212.480409"/>
     <use style="fill:#1f77b4;stroke:#1f77b4;" x="530.393201" xlink:href="#m073e9bdf9d" y="215.404802"/>
     <use style="fill:#1f77b4;stroke:#1f77b4;" x="530.91963" xlink:href="#m073e9bdf9d" y="218.296045"/>
     <use style="fill:#1f77b4;stroke:#1f77b4;" x="531.508945" xlink:href="#m073e9bdf9d" y="221.116903"/>
     <use style="fill:#1f77b4;stroke:#1f77b4;" x="532.088076" xlink:href="#m073e9bdf9d" y="223.955776"/>
     <use style="fill:#1f77b4;stroke:#1f77b4;" x="532.715023" xlink:href="#m073e9bdf9d" y="226.701853"/>
     <use style="fill:#1f77b4;stroke:#1f77b4;" x="533.399126" xlink:href="#m073e9bdf9d" y="229.328156"/>
     <use style="fill:#1f77b4;stroke:#1f77b4;" x="534.118033" xlink:href="#m073e9bdf9d" y="231.869058"/>
     <use style="fill:#1f77b4;stroke:#1f77b4;" x="534.882146" xlink:href="#m073e9bdf9d" y="234.327664"/>
     <use style="fill:#1f77b4;stroke:#1f77b4;" x="535.626576" xlink:href="#m073e9bdf9d" y="236.830548"/>
     <use style="fill:#1f77b4;stroke:#1f77b4;" x="536.339496" xlink:href="#m073e9bdf9d" y="239.441773"/>
     <use style="fill:#1f77b4;stroke:#1f77b4;" x="537.051888" xlink:href="#m073e9bdf9d" y="242.112963"/>
     <use style="fill:#1f77b4;stroke:#1f77b4;" x="537.782503" xlink:href="#m073e9bdf9d" y="244.7442"/>
     <use style="fill:#1f77b4;stroke:#1f77b4;" x="538.524693" xlink:href="#m073e9bdf9d" y="247.294397"/>
     <use style="fill:#1f77b4;stroke:#1f77b4;" x="539.275429" xlink:href="#m073e9bdf9d" y="249.878353"/>
     <use style="fill:#1f77b4;stroke:#1f77b4;" x="540.048299" xlink:href="#m073e9bdf9d" y="252.434478"/>
     <use style="fill:#1f77b4;stroke:#1f77b4;" x="540.827853" xlink:href="#m073e9bdf9d" y="254.961895"/>
     <use style="fill:#1f77b4;stroke:#1f77b4;" x="541.625871" xlink:href="#m073e9bdf9d" y="257.416014"/>
     <use style="fill:#1f77b4;stroke:#1f77b4;" x="542.427419" xlink:href="#m073e9bdf9d" y="259.931114"/>
     <use style="fill:#1f77b4;stroke:#1f77b4;" x="543.23859" xlink:href="#m073e9bdf9d" y="262.38265"/>
     <use style="fill:#1f77b4;stroke:#1f77b4;" x="544.038165" xlink:href="#m073e9bdf9d" y="264.888332"/>
     <use style="fill:#1f77b4;stroke:#1f77b4;" x="544.816233" xlink:href="#m073e9bdf9d" y="267.526229"/>
     <use style="fill:#1f77b4;stroke:#1f77b4;" x="545.61044" xlink:href="#m073e9bdf9d" y="270.145914"/>
     <use style="fill:#1f77b4;stroke:#1f77b4;" x="546.390987" xlink:href="#m073e9bdf9d" y="272.697746"/>
     <use style="fill:#1f77b4;stroke:#1f77b4;" x="547.188842" xlink:href="#m073e9bdf9d" y="275.112335"/>
     <use style="fill:#1f77b4;stroke:#1f77b4;" x="547.994348" xlink:href="#m073e9bdf9d" y="277.525195"/>
     <use style="fill:#1f77b4;stroke:#1f77b4;" x="548.818207" xlink:href="#m073e9bdf9d" y="279.905705"/>
     <use style="fill:#1f77b4;stroke:#1f77b4;" x="549.618124" xlink:href="#m073e9bdf9d" y="282.292818"/>
     <use style="fill:#1f77b4;stroke:#1f77b4;" x="549.699938" xlink:href="#m073e9bdf9d" y="282.523748"/>
     <use style="fill:#1f77b4;stroke:#1f77b4;" x="549.782304" xlink:href="#m073e9bdf9d" y="282.751714"/>
     <use style="fill:#1f77b4;stroke:#1f77b4;" x="549.866465" xlink:href="#m073e9bdf9d" y="282.97303"/>
     <use style="fill:#1f77b4;stroke:#1f77b4;" x="549.951756" xlink:href="#m073e9bdf9d" y="283.188266"/>
     <use style="fill:#1f77b4;stroke:#1f77b4;" x="550.039158" xlink:href="#m073e9bdf9d" y="283.405198"/>
     <use style="fill:#1f77b4;stroke:#1f77b4;" x="550.126723" xlink:href="#m073e9bdf9d" y="283.61956"/>
     <use style="fill:#1f77b4;stroke:#1f77b4;" x="550.212113" xlink:href="#m073e9bdf9d" y="283.840909"/>
     <use style="fill:#1f77b4;stroke:#1f77b4;" x="550.298303" xlink:href="#m073e9bdf9d" y="284.060929"/>
     <use style="fill:#1f77b4;stroke:#1f77b4;" x="550.387229" xlink:href="#m073e9bdf9d" y="284.281013"/>
     <use style="fill:#1f77b4;stroke:#1f77b4;" x="550.475086" xlink:href="#m073e9bdf9d" y="284.504574"/>
     <use style="fill:#1f77b4;stroke:#1f77b4;" x="550.560358" xlink:href="#m073e9bdf9d" y="284.729948"/>
     <use style="fill:#1f77b4;stroke:#1f77b4;" x="550.650652" xlink:href="#m073e9bdf9d" y="284.946768"/>
     <use style="fill:#1f77b4;stroke:#1f77b4;" x="550.736516" xlink:href="#m073e9bdf9d" y="285.17097"/>
     <use style="fill:#1f77b4;stroke:#1f77b4;" x="550.824909" xlink:href="#m073e9bdf9d" y="285.384071"/>
     <use style="fill:#1f77b4;stroke:#1f77b4;" x="550.911861" xlink:href="#m073e9bdf9d" y="285.596429"/>
     <use style="fill:#1f77b4;stroke:#1f77b4;" x="550.999375" xlink:href="#m073e9bdf9d" y="285.812106"/>
     <use style="fill:#1f77b4;stroke:#1f77b4;" x="551.085257" xlink:href="#m073e9bdf9d" y="286.032755"/>
     <use style="fill:#1f77b4;stroke:#1f77b4;" x="551.170115" xlink:href="#m073e9bdf9d" y="286.255123"/>
     <use style="fill:#1f77b4;stroke:#1f77b4;" x="551.256873" xlink:href="#m073e9bdf9d" y="286.472289"/>
     <use style="fill:#1f77b4;stroke:#1f77b4;" x="551.347152" xlink:href="#m073e9bdf9d" y="286.678754"/>
     <use style="fill:#1f77b4;stroke:#1f77b4;" x="551.437341" xlink:href="#m073e9bdf9d" y="286.882873"/>
     <use style="fill:#1f77b4;stroke:#1f77b4;" x="551.527591" xlink:href="#m073e9bdf9d" y="287.0916"/>
     <use style="fill:#1f77b4;stroke:#1f77b4;" x="551.619266" xlink:href="#m073e9bdf9d" y="287.291754"/>
     <use style="fill:#1f77b4;stroke:#1f77b4;" x="551.711816" xlink:href="#m073e9bdf9d" y="287.492133"/>
     <use style="fill:#1f77b4;stroke:#1f77b4;" x="551.807134" xlink:href="#m073e9bdf9d" y="287.68571"/>
     <use style="fill:#1f77b4;stroke:#1f77b4;" x="551.816519" xlink:href="#m073e9bdf9d" y="287.705094"/>
     <use style="fill:#1f77b4;stroke:#1f77b4;" x="551.825403" xlink:href="#m073e9bdf9d" y="287.725891"/>
     <use style="fill:#1f77b4;stroke:#1f77b4;" x="551.83408" xlink:href="#m073e9bdf9d" y="287.746808"/>
     <use style="fill:#1f77b4;stroke:#1f77b4;" x="551.842514" xlink:href="#m073e9bdf9d" y="287.768564"/>
     <use style="fill:#1f77b4;stroke:#1f77b4;" x="551.850837" xlink:href="#m073e9bdf9d" y="287.790569"/>
     <use style="fill:#1f77b4;stroke:#1f77b4;" x="551.859415" xlink:href="#m073e9bdf9d" y="287.811836"/>
     <use style="fill:#1f77b4;stroke:#1f77b4;" x="551.868041" xlink:href="#m073e9bdf9d" y="287.832538"/>
     <use style="fill:#1f77b4;stroke:#1f77b4;" x="551.876673" xlink:href="#m073e9bdf9d" y="287.853113"/>
     <use style="fill:#1f77b4;stroke:#1f77b4;" x="551.885172" xlink:href="#m073e9bdf9d" y="287.874304"/>
     <use style="fill:#1f77b4;stroke:#1f77b4;" x="551.893469" xlink:href="#m073e9bdf9d" y="287.895568"/>
     <use style="fill:#1f77b4;stroke:#1f77b4;" x="551.901698" xlink:href="#m073e9bdf9d" y="287.917341"/>
     <use style="fill:#1f77b4;stroke:#1f77b4;" x="551.910089" xlink:href="#m073e9bdf9d" y="287.938074"/>
     <use style="fill:#1f77b4;stroke:#1f77b4;" x="551.919016" xlink:href="#m073e9bdf9d" y="287.957589"/>
     <use style="fill:#1f77b4;stroke:#1f77b4;" x="551.928155" xlink:href="#m073e9bdf9d" y="287.977701"/>
     <use style="fill:#1f77b4;stroke:#1f77b4;" x="551.937145" xlink:href="#m073e9bdf9d" y="287.997434"/>
     <use style="fill:#1f77b4;stroke:#1f77b4;" x="551.946166" xlink:href="#m073e9bdf9d" y="288.017465"/>
     <use style="fill:#1f77b4;stroke:#1f77b4;" x="551.955415" xlink:href="#m073e9bdf9d" y="288.036465"/>
     <use style="fill:#1f77b4;stroke:#1f77b4;" x="551.964672" xlink:href="#m073e9bdf9d" y="288.056538"/>
     <use style="fill:#1f77b4;stroke:#1f77b4;" x="551.973989" xlink:href="#m073e9bdf9d" y="288.07695"/>
     <use style="fill:#1f77b4;stroke:#1f77b4;" x="551.98314" xlink:href="#m073e9bdf9d" y="288.097082"/>
     <use style="fill:#1f77b4;stroke:#1f77b4;" x="551.991966" xlink:href="#m073e9bdf9d" y="288.117521"/>
     <use style="fill:#1f77b4;stroke:#1f77b4;" x="552.001106" xlink:href="#m073e9bdf9d" y="288.13795"/>
     <use style="fill:#1f77b4;stroke:#1f77b4;" x="552.010222" xlink:href="#m073e9bdf9d" y="288.158405"/>
     <use style="fill:#1f77b4;stroke:#1f77b4;" x="552.019202" xlink:href="#m073e9bdf9d" y="288.179075"/>
    </g>
   </g>
   <g id="patch_3">
    <path d="M 56.028488 565.399219 
L 56.028488 10.999219 
" style="fill:none;stroke:#000000;stroke-linecap:square;stroke-linejoin:miter;stroke-width:0.8;"/>
   </g>
   <g id="patch_4">
    <path d="M 1172.028487 565.399219 
L 1172.028487 10.999219 
" style="fill:none;stroke:#000000;stroke-linecap:square;stroke-linejoin:miter;stroke-width:0.8;"/>
   </g>
   <g id="patch_5">
    <path d="M 56.028488 565.399219 
L 1172.028488 565.399219 
" style="fill:none;stroke:#000000;stroke-linecap:square;stroke-linejoin:miter;stroke-width:0.8;"/>
   </g>
   <g id="patch_6">
    <path d="M 56.028488 10.999219 
L 1172.028488 10.999219 
" style="fill:none;stroke:#000000;stroke-linecap:square;stroke-linejoin:miter;stroke-width:0.8;"/>
   </g>
   <g id="text_22">
    <g clip-path="url(#pea6350372f)">
     <!-- 2.500 -->
     <g style="fill:#39558c;" transform="translate(566.179754 273.604401)rotate(-15.460592)scale(0.06 -0.06)">
      <use xlink:href="#DejaVuSans-50"/>
      <use x="63.623047" xlink:href="#DejaVuSans-46"/>
      <use x="95.410156" xlink:href="#DejaVuSans-53"/>
      <use x="159.033203" xlink:href="#DejaVuSans-48"/>
      <use x="222.65625" xlink:href="#DejaVuSans-48"/>
     </g>
    </g>
   </g>
   <g id="text_23">
    <g clip-path="url(#pea6350372f)">
     <!-- 3.000 -->
     <g style="fill:#33638d;" transform="translate(973.776654 389.325809)rotate(-10.933815)scale(0.06 -0.06)">
      <use xlink:href="#DejaVuSans-51"/>
      <use x="63.623047" xlink:href="#DejaVuSans-46"/>
      <use x="95.410156" xlink:href="#DejaVuSans-48"/>
      <use x="159.033203" xlink:href="#DejaVuSans-48"/>
      <use x="222.65625" xlink:href="#DejaVuSans-48"/>
     </g>
    </g>
   </g>
   <g id="text_24">
    <g clip-path="url(#pea6350372f)">
     <!-- 3.500 -->
     <g style="fill:#2d718e;" transform="translate(978.494146 65.768499)rotate(-344.690749)scale(0.06 -0.06)">
      <use xlink:href="#DejaVuSans-51"/>
      <use x="63.623047" xlink:href="#DejaVuSans-46"/>
      <use x="95.410156" xlink:href="#DejaVuSans-53"/>
      <use x="159.033203" xlink:href="#DejaVuSans-48"/>
      <use x="222.65625" xlink:href="#DejaVuSans-48"/>
     </g>
    </g>
   </g>
   <g id="text_25">
    <g clip-path="url(#pea6350372f)">
     <!-- 4.000 -->
     <g style="fill:#287d8e;" transform="translate(966.513312 455.41113)rotate(-354.941511)scale(0.06 -0.06)">
      <use xlink:href="#DejaVuSans-52"/>
      <use x="63.623047" xlink:href="#DejaVuSans-46"/>
      <use x="95.410156" xlink:href="#DejaVuSans-48"/>
      <use x="159.033203" xlink:href="#DejaVuSans-48"/>
      <use x="222.65625" xlink:href="#DejaVuSans-48"/>
     </g>
    </g>
   </g>
   <g id="text_26">
    <g clip-path="url(#pea6350372f)">
     <!-- 4.500 -->
     <g style="fill:#238a8d;" transform="translate(929.403105 455.215836)rotate(-353.656872)scale(0.06 -0.06)">
      <use xlink:href="#DejaVuSans-52"/>
      <use x="63.623047" xlink:href="#DejaVuSans-46"/>
      <use x="95.410156" xlink:href="#DejaVuSans-53"/>
      <use x="159.033203" xlink:href="#DejaVuSans-48"/>
      <use x="222.65625" xlink:href="#DejaVuSans-48"/>
     </g>
    </g>
   </g>
   <g id="text_27">
    <g clip-path="url(#pea6350372f)">
     <!-- 5.000 -->
     <g style="fill:#1f968b;" transform="translate(907.755543 454.942436)rotate(-351.86216)scale(0.06 -0.06)">
      <use xlink:href="#DejaVuSans-53"/>
      <use x="63.623047" xlink:href="#DejaVuSans-46"/>
      <use x="95.410156" xlink:href="#DejaVuSans-48"/>
      <use x="159.033203" xlink:href="#DejaVuSans-48"/>
      <use x="222.65625" xlink:href="#DejaVuSans-48"/>
     </g>
    </g>
   </g>
   <g id="text_28">
    <g clip-path="url(#pea6350372f)">
     <!-- 5.500 -->
     <g style="fill:#20a386;" transform="translate(859.115633 47.832486)rotate(-25.420958)scale(0.06 -0.06)">
      <use xlink:href="#DejaVuSans-53"/>
      <use x="63.623047" xlink:href="#DejaVuSans-46"/>
      <use x="95.410156" xlink:href="#DejaVuSans-53"/>
      <use x="159.033203" xlink:href="#DejaVuSans-48"/>
      <use x="222.65625" xlink:href="#DejaVuSans-48"/>
     </g>
    </g>
   </g>
   <g id="text_29">
    <g clip-path="url(#pea6350372f)">
     <!-- 6.000 -->
     <g style="fill:#29af7f;" transform="translate(1192.20723 438.158417)rotate(-3.110419)scale(0.06 -0.06)">
      <use xlink:href="#DejaVuSans-54"/>
      <use x="63.623047" xlink:href="#DejaVuSans-46"/>
      <use x="95.410156" xlink:href="#DejaVuSans-48"/>
      <use x="159.033203" xlink:href="#DejaVuSans-48"/>
      <use x="222.65625" xlink:href="#DejaVuSans-48"/>
     </g>
    </g>
   </g>
   <g id="text_30">
    <g clip-path="url(#pea6350372f)">
     <!-- 6.500 -->
     <g style="fill:#3dbc74;" transform="translate(1494.031893 205.255558)rotate(-341.174861)scale(0.06 -0.06)">
      <use xlink:href="#DejaVuSans-54"/>
      <use x="63.623047" xlink:href="#DejaVuSans-46"/>
      <use x="95.410156" xlink:href="#DejaVuSans-53"/>
      <use x="159.033203" xlink:href="#DejaVuSans-48"/>
      <use x="222.65625" xlink:href="#DejaVuSans-48"/>
     </g>
    </g>
   </g>
   <g id="text_31">
    <g clip-path="url(#pea6350372f)">
     <!-- 7.000 -->
     <g style="fill:#56c667;" transform="translate(1378.726805 472.564232)rotate(-8.781234)scale(0.06 -0.06)">
      <defs>
       <path d="M 8.203125 72.90625 
L 55.078125 72.90625 
L 55.078125 68.703125 
L 28.609375 0 
L 18.3125 0 
L 43.21875 64.59375 
L 8.203125 64.59375 
z
" id="DejaVuSans-55"/>
      </defs>
      <use xlink:href="#DejaVuSans-55"/>
      <use x="63.623047" xlink:href="#DejaVuSans-46"/>
      <use x="95.410156" xlink:href="#DejaVuSans-48"/>
      <use x="159.033203" xlink:href="#DejaVuSans-48"/>
      <use x="222.65625" xlink:href="#DejaVuSans-48"/>
     </g>
    </g>
   </g>
   <g id="text_32">
    <g clip-path="url(#pea6350372f)">
     <!-- 7.000 -->
     <g style="fill:#56c667;" transform="translate(1204.826244 455.533306)rotate(-1.698923)scale(0.06 -0.06)">
      <use xlink:href="#DejaVuSans-55"/>
      <use x="63.623047" xlink:href="#DejaVuSans-46"/>
      <use x="95.410156" xlink:href="#DejaVuSans-48"/>
      <use x="159.033203" xlink:href="#DejaVuSans-48"/>
      <use x="222.65625" xlink:href="#DejaVuSans-48"/>
     </g>
    </g>
   </g>
   <g id="text_33">
    <g clip-path="url(#pea6350372f)">
     <!-- 7.500 -->
     <g style="fill:#75d054;" transform="translate(1436.324294 476.767844)rotate(-2.608372)scale(0.06 -0.06)">
      <use xlink:href="#DejaVuSans-55"/>
      <use x="63.623047" xlink:href="#DejaVuSans-46"/>
      <use x="95.410156" xlink:href="#DejaVuSans-53"/>
      <use x="159.033203" xlink:href="#DejaVuSans-48"/>
      <use x="222.65625" xlink:href="#DejaVuSans-48"/>
     </g>
    </g>
   </g>
   <g id="text_34">
    <g clip-path="url(#pea6350372f)">
     <!-- 8.000 -->
     <g style="fill:#95d840;" transform="translate(743.963298 108.152141)rotate(-31.428037)scale(0.06 -0.06)">
      <use xlink:href="#DejaVuSans-56"/>
      <use x="63.623047" xlink:href="#DejaVuSans-46"/>
      <use x="95.410156" xlink:href="#DejaVuSans-48"/>
      <use x="159.033203" xlink:href="#DejaVuSans-48"/>
      <use x="222.65625" xlink:href="#DejaVuSans-48"/>
     </g>
    </g>
   </g>
   <g id="text_35">
    <g clip-path="url(#pea6350372f)">
     <!-- 8.500 -->
     <g style="fill:#bade28;" transform="translate(1320.446097 176.946052)rotate(-357.651926)scale(0.06 -0.06)">
      <use xlink:href="#DejaVuSans-56"/>
      <use x="63.623047" xlink:href="#DejaVuSans-46"/>
      <use x="95.410156" xlink:href="#DejaVuSans-53"/>
      <use x="159.033203" xlink:href="#DejaVuSans-48"/>
      <use x="222.65625" xlink:href="#DejaVuSans-48"/>
     </g>
    </g>
   </g>
   <g id="text_36">
    <g clip-path="url(#pea6350372f)">
     <!-- 9.000 -->
     <g style="fill:#dde318;" transform="translate(1320.528056 493.630176)rotate(-0.715324)scale(0.06 -0.06)">
      <defs>
       <path d="M 10.984375 1.515625 
L 10.984375 10.5 
Q 14.703125 8.734375 18.5 7.8125 
Q 22.3125 6.890625 25.984375 6.890625 
Q 35.75 6.890625 40.890625 13.453125 
Q 46.046875 20.015625 46.78125 33.40625 
Q 43.953125 29.203125 39.59375 26.953125 
Q 35.25 24.703125 29.984375 24.703125 
Q 19.046875 24.703125 12.671875 31.3125 
Q 6.296875 37.9375 6.296875 49.421875 
Q 6.296875 60.640625 12.9375 67.421875 
Q 19.578125 74.21875 30.609375 74.21875 
Q 43.265625 74.21875 49.921875 64.515625 
Q 56.59375 54.828125 56.59375 36.375 
Q 56.59375 19.140625 48.40625 8.859375 
Q 40.234375 -1.421875 26.421875 -1.421875 
Q 22.703125 -1.421875 18.890625 -0.6875 
Q 15.09375 0.046875 10.984375 1.515625 
z
M 30.609375 32.421875 
Q 37.25 32.421875 41.125 36.953125 
Q 45.015625 41.5 45.015625 49.421875 
Q 45.015625 57.28125 41.125 61.84375 
Q 37.25 66.40625 30.609375 66.40625 
Q 23.96875 66.40625 20.09375 61.84375 
Q 16.21875 57.28125 16.21875 49.421875 
Q 16.21875 41.5 20.09375 36.953125 
Q 23.96875 32.421875 30.609375 32.421875 
z
" id="DejaVuSans-57"/>
      </defs>
      <use xlink:href="#DejaVuSans-57"/>
      <use x="63.623047" xlink:href="#DejaVuSans-46"/>
      <use x="95.410156" xlink:href="#DejaVuSans-48"/>
      <use x="159.033203" xlink:href="#DejaVuSans-48"/>
      <use x="222.65625" xlink:href="#DejaVuSans-48"/>
     </g>
    </g>
   </g>
   <g id="text_37">
    <g clip-path="url(#pea6350372f)">
     <!-- 9.500 -->
     <g style="fill:#fde725;" transform="translate(1378.395853 493.845599)rotate(-0.752009)scale(0.06 -0.06)">
      <use xlink:href="#DejaVuSans-57"/>
      <use x="63.623047" xlink:href="#DejaVuSans-46"/>
      <use x="95.410156" xlink:href="#DejaVuSans-53"/>
      <use x="159.033203" xlink:href="#DejaVuSans-48"/>
      <use x="222.65625" xlink:href="#DejaVuSans-48"/>
     </g>
    </g>
   </g>
   <g id="text_38">
    <g clip-path="url(#pea6350372f)">
     <!-- 10.000 -->
     <g style="fill:#440154;" transform="translate(1152.282965 95.708668)rotate(-304.677629)scale(0.06 -0.06)">
      <use xlink:href="#DejaVuSans-49"/>
      <use x="63.623047" xlink:href="#DejaVuSans-48"/>
      <use x="127.246094" xlink:href="#DejaVuSans-46"/>
      <use x="159.033203" xlink:href="#DejaVuSans-48"/>
      <use x="222.65625" xlink:href="#DejaVuSans-48"/>
      <use x="286.279297" xlink:href="#DejaVuSans-48"/>
     </g>
    </g>
   </g>
   <g id="text_39">
    <g clip-path="url(#pea6350372f)">
     <!-- 100.000 -->
     <g style="fill:#440154;" transform="translate(447.044747 488.781808)rotate(-339.952614)scale(0.06 -0.06)">
      <use xlink:href="#DejaVuSans-49"/>
      <use x="63.623047" xlink:href="#DejaVuSans-48"/>
      <use x="127.246094" xlink:href="#DejaVuSans-48"/>
      <use x="190.869141" xlink:href="#DejaVuSans-46"/>
      <use x="222.65625" xlink:href="#DejaVuSans-48"/>
      <use x="286.279297" xlink:href="#DejaVuSans-48"/>
      <use x="349.902344" xlink:href="#DejaVuSans-48"/>
     </g>
    </g>
   </g>
   <g id="text_40">
    <g clip-path="url(#pea6350372f)">
     <!-- 100.000 -->
     <g style="fill:#440154;" transform="translate(1316.672821 126.483215)rotate(-359.409818)scale(0.06 -0.06)">
      <use xlink:href="#DejaVuSans-49"/>
      <use x="63.623047" xlink:href="#DejaVuSans-48"/>
      <use x="127.246094" xlink:href="#DejaVuSans-48"/>
      <use x="190.869141" xlink:href="#DejaVuSans-46"/>
      <use x="222.65625" xlink:href="#DejaVuSans-48"/>
      <use x="286.279297" xlink:href="#DejaVuSans-48"/>
      <use x="349.902344" xlink:href="#DejaVuSans-48"/>
     </g>
    </g>
   </g>
   <g id="text_41">
    <g clip-path="url(#pea6350372f)">
     <!-- 1000.000 -->
     <g style="fill:#440154;" transform="translate(207.81315 445.98862)rotate(-317.104396)scale(0.06 -0.06)">
      <use xlink:href="#DejaVuSans-49"/>
      <use x="63.623047" xlink:href="#DejaVuSans-48"/>
      <use x="127.246094" xlink:href="#DejaVuSans-48"/>
      <use x="190.869141" xlink:href="#DejaVuSans-48"/>
      <use x="254.492188" xlink:href="#DejaVuSans-46"/>
      <use x="286.279297" xlink:href="#DejaVuSans-48"/>
      <use x="349.902344" xlink:href="#DejaVuSans-48"/>
      <use x="413.525391" xlink:href="#DejaVuSans-48"/>
     </g>
    </g>
   </g>
   <g id="text_42">
    <g clip-path="url(#pea6350372f)">
     <!-- 1000.000 -->
     <g style="fill:#440154;" transform="translate(1372.951782 74.804706)rotate(-6.935222)scale(0.06 -0.06)">
      <use xlink:href="#DejaVuSans-49"/>
      <use x="63.623047" xlink:href="#DejaVuSans-48"/>
      <use x="127.246094" xlink:href="#DejaVuSans-48"/>
      <use x="190.869141" xlink:href="#DejaVuSans-48"/>
      <use x="254.492188" xlink:href="#DejaVuSans-46"/>
      <use x="286.279297" xlink:href="#DejaVuSans-48"/>
      <use x="349.902344" xlink:href="#DejaVuSans-48"/>
      <use x="413.525391" xlink:href="#DejaVuSans-48"/>
     </g>
    </g>
   </g>
   <g id="text_43">
    <g clip-path="url(#pea6350372f)">
     <!-- 10000.000 -->
     <g style="fill:#440154;" transform="translate(151.415555 480.999848)rotate(-314.186887)scale(0.06 -0.06)">
      <use xlink:href="#DejaVuSans-49"/>
      <use x="63.623047" xlink:href="#DejaVuSans-48"/>
      <use x="127.246094" xlink:href="#DejaVuSans-48"/>
      <use x="190.869141" xlink:href="#DejaVuSans-48"/>
      <use x="254.492188" xlink:href="#DejaVuSans-48"/>
      <use x="318.115234" xlink:href="#DejaVuSans-46"/>
      <use x="349.902344" xlink:href="#DejaVuSans-48"/>
      <use x="413.525391" xlink:href="#DejaVuSans-48"/>
      <use x="477.148438" xlink:href="#DejaVuSans-48"/>
     </g>
    </g>
   </g>
   <g id="text_44">
    <g clip-path="url(#pea6350372f)">
     <!-- 10000.000 -->
     <g style="fill:#440154;" transform="translate(445.941763 183.003511)rotate(-15.859959)scale(0.06 -0.06)">
      <use xlink:href="#DejaVuSans-49"/>
      <use x="63.623047" xlink:href="#DejaVuSans-48"/>
      <use x="127.246094" xlink:href="#DejaVuSans-48"/>
      <use x="190.869141" xlink:href="#DejaVuSans-48"/>
      <use x="254.492188" xlink:href="#DejaVuSans-48"/>
      <use x="318.115234" xlink:href="#DejaVuSans-46"/>
      <use x="349.902344" xlink:href="#DejaVuSans-48"/>
      <use x="413.525391" xlink:href="#DejaVuSans-48"/>
      <use x="477.148438" xlink:href="#DejaVuSans-48"/>
     </g>
    </g>
   </g>
   <g id="text_45">
    <g clip-path="url(#pea6350372f)">
     <!-- 10000.000 -->
     <g style="fill:#440154;" transform="translate(1312.967681 30.058615)rotate(-2.699132)scale(0.06 -0.06)">
      <use xlink:href="#DejaVuSans-49"/>
      <use x="63.623047" xlink:href="#DejaVuSans-48"/>
      <use x="127.246094" xlink:href="#DejaVuSans-48"/>
      <use x="190.869141" xlink:href="#DejaVuSans-48"/>
      <use x="254.492188" xlink:href="#DejaVuSans-48"/>
      <use x="318.115234" xlink:href="#DejaVuSans-46"/>
      <use x="349.902344" xlink:href="#DejaVuSans-48"/>
      <use x="413.525391" xlink:href="#DejaVuSans-48"/>
      <use x="477.148438" xlink:href="#DejaVuSans-48"/>
     </g>
    </g>
   </g>
   <g id="text_46">
    <g clip-path="url(#pea6350372f)">
     <!-- 100000.000 -->
     <g style="fill:#440154;" transform="translate(98.73165 516.915341)rotate(-315.517338)scale(0.06 -0.06)">
      <use xlink:href="#DejaVuSans-49"/>
      <use x="63.623047" xlink:href="#DejaVuSans-48"/>
      <use x="127.246094" xlink:href="#DejaVuSans-48"/>
      <use x="190.869141" xlink:href="#DejaVuSans-48"/>
      <use x="254.492188" xlink:href="#DejaVuSans-48"/>
      <use x="318.115234" xlink:href="#DejaVuSans-48"/>
      <use x="381.738281" xlink:href="#DejaVuSans-46"/>
      <use x="413.525391" xlink:href="#DejaVuSans-48"/>
      <use x="477.148438" xlink:href="#DejaVuSans-48"/>
      <use x="540.771484" xlink:href="#DejaVuSans-48"/>
     </g>
    </g>
   </g>
   <g id="text_47">
    <g clip-path="url(#pea6350372f)">
     <!-- 100000.000 -->
     <g style="fill:#440154;" transform="translate(444.24759 163.836177)rotate(-17.068764)scale(0.06 -0.06)">
      <use xlink:href="#DejaVuSans-49"/>
      <use x="63.623047" xlink:href="#DejaVuSans-48"/>
      <use x="127.246094" xlink:href="#DejaVuSans-48"/>
      <use x="190.869141" xlink:href="#DejaVuSans-48"/>
      <use x="254.492188" xlink:href="#DejaVuSans-48"/>
      <use x="318.115234" xlink:href="#DejaVuSans-48"/>
      <use x="381.738281" xlink:href="#DejaVuSans-46"/>
      <use x="413.525391" xlink:href="#DejaVuSans-48"/>
      <use x="477.148438" xlink:href="#DejaVuSans-48"/>
      <use x="540.771484" xlink:href="#DejaVuSans-48"/>
     </g>
    </g>
   </g>
   <g id="text_48">
    <g clip-path="url(#pea6350372f)">
     <!-- 1000000.000 -->
     <g style="fill:#450457;" transform="translate(416.250624 147.593844)rotate(-16.363271)scale(0.06 -0.06)">
      <use xlink:href="#DejaVuSans-49"/>
      <use x="63.623047" xlink:href="#DejaVuSans-48"/>
      <use x="127.246094" xlink:href="#DejaVuSans-48"/>
      <use x="190.869141" xlink:href="#DejaVuSans-48"/>
      <use x="254.492188" xlink:href="#DejaVuSans-48"/>
      <use x="318.115234" xlink:href="#DejaVuSans-48"/>
      <use x="381.738281" xlink:href="#DejaVuSans-48"/>
      <use x="445.361328" xlink:href="#DejaVuSans-46"/>
      <use x="477.148438" xlink:href="#DejaVuSans-48"/>
      <use x="540.771484" xlink:href="#DejaVuSans-48"/>
      <use x="604.394531" xlink:href="#DejaVuSans-48"/>
     </g>
    </g>
   </g>
   <g id="text_49">
    <g clip-path="url(#pea6350372f)">
     <!-- 10000000.000 -->
     <g style="fill:#482475;" transform="translate(382.369365 130.026733)rotate(-17.410642)scale(0.06 -0.06)">
      <use xlink:href="#DejaVuSans-49"/>
      <use x="63.623047" xlink:href="#DejaVuSans-48"/>
      <use x="127.246094" xlink:href="#DejaVuSans-48"/>
      <use x="190.869141" xlink:href="#DejaVuSans-48"/>
      <use x="254.492188" xlink:href="#DejaVuSans-48"/>
      <use x="318.115234" xlink:href="#DejaVuSans-48"/>
      <use x="381.738281" xlink:href="#DejaVuSans-48"/>
      <use x="445.361328" xlink:href="#DejaVuSans-48"/>
      <use x="508.984375" xlink:href="#DejaVuSans-46"/>
      <use x="540.771484" xlink:href="#DejaVuSans-48"/>
      <use x="604.394531" xlink:href="#DejaVuSans-48"/>
      <use x="668.017578" xlink:href="#DejaVuSans-48"/>
     </g>
    </g>
   </g>
   <g id="text_50">
    <g clip-path="url(#pea6350372f)">
     <!-- 100000000.000 -->
     <g style="fill:#fde725;" transform="translate(322.894479 124.304253)rotate(-16.073582)scale(0.06 -0.06)">
      <use xlink:href="#DejaVuSans-49"/>
      <use x="63.623047" xlink:href="#DejaVuSans-48"/>
      <use x="127.246094" xlink:href="#DejaVuSans-48"/>
      <use x="190.869141" xlink:href="#DejaVuSans-48"/>
      <use x="254.492188" xlink:href="#DejaVuSans-48"/>
      <use x="318.115234" xlink:href="#DejaVuSans-48"/>
      <use x="381.738281" xlink:href="#DejaVuSans-48"/>
      <use x="445.361328" xlink:href="#DejaVuSans-48"/>
      <use x="508.984375" xlink:href="#DejaVuSans-48"/>
      <use x="572.607422" xlink:href="#DejaVuSans-46"/>
      <use x="604.394531" xlink:href="#DejaVuSans-48"/>
      <use x="668.017578" xlink:href="#DejaVuSans-48"/>
      <use x="731.640625" xlink:href="#DejaVuSans-48"/>
     </g>
    </g>
   </g>
  </g>
 </g>
 <defs>
  <clipPath id="pea6350372f">
   <rect height="554.4" width="1116" x="56.028488" y="10.999219"/>
  </clipPath>
 </defs>
</svg>
