<?xml version="1.0" encoding="utf-8" standalone="no"?>
<!DOCTYPE svg PUBLIC "-//W3C//DTD SVG 1.1//EN"
  "http://www.w3.org/Graphics/SVG/1.1/DTD/svg11.dtd">
<!-- Created with matplotlib (https://matplotlib.org/) -->
<svg height="300.989344pt" version="1.1" viewBox="0 0 405.987188 300.989344" width="405.987188pt" xmlns="http://www.w3.org/2000/svg" xmlns:xlink="http://www.w3.org/1999/xlink">
 <metadata>
  <rdf:RDF xmlns:cc="http://creativecommons.org/ns#" xmlns:dc="http://purl.org/dc/elements/1.1/" xmlns:rdf="http://www.w3.org/1999/02/22-rdf-syntax-ns#">
   <cc:Work>
    <dc:type rdf:resource="http://purl.org/dc/dcmitype/StillImage"/>
    <dc:date>2021-09-23T00:08:15.353360</dc:date>
    <dc:format>image/svg+xml</dc:format>
    <dc:creator>
     <cc:Agent>
      <dc:title>Matplotlib v3.3.1, https://matplotlib.org/</dc:title>
     </cc:Agent>
    </dc:creator>
   </cc:Work>
  </rdf:RDF>
 </metadata>
 <defs>
  <style type="text/css">*{stroke-linecap:butt;stroke-linejoin:round;}</style>
 </defs>
 <g id="figure_1">
  <g id="patch_1">
   <path d="M 0 300.989344 
L 405.987188 300.989344 
L 405.987188 0 
L 0 0 
z
" style="fill:#ffffff;"/>
  </g>
  <g id="axes_1">
   <g id="patch_2">
    <path d="M 35.304688 277.111219 
L 392.424688 277.111219 
L 392.424688 10.999219 
L 35.304688 10.999219 
z
" style="fill:#ffffff;"/>
   </g>
   <g id="matplotlib.axis_1">
    <g id="xtick_1">
     <g id="line2d_1">
      <defs>
       <path d="M 0 0 
L 0 3.5 
" id="me91514004a" style="stroke:#000000;stroke-width:0.8;"/>
      </defs>
      <g>
       <use style="stroke:#000000;stroke-width:0.8;" x="35.304687" xlink:href="#me91514004a" y="277.111219"/>
      </g>
     </g>
     <g id="text_1">
      <!-- −20 -->
      <g transform="translate(24.752344 291.709656)scale(0.1 -0.1)">
       <defs>
        <path d="M 10.59375 35.5 
L 73.1875 35.5 
L 73.1875 27.203125 
L 10.59375 27.203125 
z
" id="DejaVuSans-8722"/>
        <path d="M 19.1875 8.296875 
L 53.609375 8.296875 
L 53.609375 0 
L 7.328125 0 
L 7.328125 8.296875 
Q 12.9375 14.109375 22.625 23.890625 
Q 32.328125 33.6875 34.8125 36.53125 
Q 39.546875 41.84375 41.421875 45.53125 
Q 43.3125 49.21875 43.3125 52.78125 
Q 43.3125 58.59375 39.234375 62.25 
Q 35.15625 65.921875 28.609375 65.921875 
Q 23.96875 65.921875 18.8125 64.3125 
Q 13.671875 62.703125 7.8125 59.421875 
L 7.8125 69.390625 
Q 13.765625 71.78125 18.9375 73 
Q 24.125 74.21875 28.421875 74.21875 
Q 39.75 74.21875 46.484375 68.546875 
Q 53.21875 62.890625 53.21875 53.421875 
Q 53.21875 48.921875 51.53125 44.890625 
Q 49.859375 40.875 45.40625 35.40625 
Q 44.1875 33.984375 37.640625 27.21875 
Q 31.109375 20.453125 19.1875 8.296875 
z
" id="DejaVuSans-50"/>
        <path d="M 31.78125 66.40625 
Q 24.171875 66.40625 20.328125 58.90625 
Q 16.5 51.421875 16.5 36.375 
Q 16.5 21.390625 20.328125 13.890625 
Q 24.171875 6.390625 31.78125 6.390625 
Q 39.453125 6.390625 43.28125 13.890625 
Q 47.125 21.390625 47.125 36.375 
Q 47.125 51.421875 43.28125 58.90625 
Q 39.453125 66.40625 31.78125 66.40625 
z
M 31.78125 74.21875 
Q 44.046875 74.21875 50.515625 64.515625 
Q 56.984375 54.828125 56.984375 36.375 
Q 56.984375 17.96875 50.515625 8.265625 
Q 44.046875 -1.421875 31.78125 -1.421875 
Q 19.53125 -1.421875 13.0625 8.265625 
Q 6.59375 17.96875 6.59375 36.375 
Q 6.59375 54.828125 13.0625 64.515625 
Q 19.53125 74.21875 31.78125 74.21875 
z
" id="DejaVuSans-48"/>
       </defs>
       <use xlink:href="#DejaVuSans-8722"/>
       <use x="83.789062" xlink:href="#DejaVuSans-50"/>
       <use x="147.412109" xlink:href="#DejaVuSans-48"/>
      </g>
     </g>
    </g>
    <g id="xtick_2">
     <g id="line2d_2">
      <g>
       <use style="stroke:#000000;stroke-width:0.8;" x="74.984687" xlink:href="#me91514004a" y="277.111219"/>
      </g>
     </g>
     <g id="text_2">
      <!-- −15 -->
      <g transform="translate(64.432344 291.709656)scale(0.1 -0.1)">
       <defs>
        <path d="M 12.40625 8.296875 
L 28.515625 8.296875 
L 28.515625 63.921875 
L 10.984375 60.40625 
L 10.984375 69.390625 
L 28.421875 72.90625 
L 38.28125 72.90625 
L 38.28125 8.296875 
L 54.390625 8.296875 
L 54.390625 0 
L 12.40625 0 
z
" id="DejaVuSans-49"/>
        <path d="M 10.796875 72.90625 
L 49.515625 72.90625 
L 49.515625 64.59375 
L 19.828125 64.59375 
L 19.828125 46.734375 
Q 21.96875 47.46875 24.109375 47.828125 
Q 26.265625 48.1875 28.421875 48.1875 
Q 40.625 48.1875 47.75 41.5 
Q 54.890625 34.8125 54.890625 23.390625 
Q 54.890625 11.625 47.5625 5.09375 
Q 40.234375 -1.421875 26.90625 -1.421875 
Q 22.3125 -1.421875 17.546875 -0.640625 
Q 12.796875 0.140625 7.71875 1.703125 
L 7.71875 11.625 
Q 12.109375 9.234375 16.796875 8.0625 
Q 21.484375 6.890625 26.703125 6.890625 
Q 35.15625 6.890625 40.078125 11.328125 
Q 45.015625 15.765625 45.015625 23.390625 
Q 45.015625 31 40.078125 35.4375 
Q 35.15625 39.890625 26.703125 39.890625 
Q 22.75 39.890625 18.8125 39.015625 
Q 14.890625 38.140625 10.796875 36.28125 
z
" id="DejaVuSans-53"/>
       </defs>
       <use xlink:href="#DejaVuSans-8722"/>
       <use x="83.789062" xlink:href="#DejaVuSans-49"/>
       <use x="147.412109" xlink:href="#DejaVuSans-53"/>
      </g>
     </g>
    </g>
    <g id="xtick_3">
     <g id="line2d_3">
      <g>
       <use style="stroke:#000000;stroke-width:0.8;" x="114.664687" xlink:href="#me91514004a" y="277.111219"/>
      </g>
     </g>
     <g id="text_3">
      <!-- −10 -->
      <g transform="translate(104.112344 291.709656)scale(0.1 -0.1)">
       <use xlink:href="#DejaVuSans-8722"/>
       <use x="83.789062" xlink:href="#DejaVuSans-49"/>
       <use x="147.412109" xlink:href="#DejaVuSans-48"/>
      </g>
     </g>
    </g>
    <g id="xtick_4">
     <g id="line2d_4">
      <g>
       <use style="stroke:#000000;stroke-width:0.8;" x="154.344687" xlink:href="#me91514004a" y="277.111219"/>
      </g>
     </g>
     <g id="text_4">
      <!-- −5 -->
      <g transform="translate(146.973594 291.709656)scale(0.1 -0.1)">
       <use xlink:href="#DejaVuSans-8722"/>
       <use x="83.789062" xlink:href="#DejaVuSans-53"/>
      </g>
     </g>
    </g>
    <g id="xtick_5">
     <g id="line2d_5">
      <g>
       <use style="stroke:#000000;stroke-width:0.8;" x="194.024687" xlink:href="#me91514004a" y="277.111219"/>
      </g>
     </g>
     <g id="text_5">
      <!-- 0 -->
      <g transform="translate(190.843437 291.709656)scale(0.1 -0.1)">
       <use xlink:href="#DejaVuSans-48"/>
      </g>
     </g>
    </g>
    <g id="xtick_6">
     <g id="line2d_6">
      <g>
       <use style="stroke:#000000;stroke-width:0.8;" x="233.704688" xlink:href="#me91514004a" y="277.111219"/>
      </g>
     </g>
     <g id="text_6">
      <!-- 5 -->
      <g transform="translate(230.523438 291.709656)scale(0.1 -0.1)">
       <use xlink:href="#DejaVuSans-53"/>
      </g>
     </g>
    </g>
    <g id="xtick_7">
     <g id="line2d_7">
      <g>
       <use style="stroke:#000000;stroke-width:0.8;" x="273.384688" xlink:href="#me91514004a" y="277.111219"/>
      </g>
     </g>
     <g id="text_7">
      <!-- 10 -->
      <g transform="translate(267.022188 291.709656)scale(0.1 -0.1)">
       <use xlink:href="#DejaVuSans-49"/>
       <use x="63.623047" xlink:href="#DejaVuSans-48"/>
      </g>
     </g>
    </g>
    <g id="xtick_8">
     <g id="line2d_8">
      <g>
       <use style="stroke:#000000;stroke-width:0.8;" x="313.064687" xlink:href="#me91514004a" y="277.111219"/>
      </g>
     </g>
     <g id="text_8">
      <!-- 15 -->
      <g transform="translate(306.702187 291.709656)scale(0.1 -0.1)">
       <use xlink:href="#DejaVuSans-49"/>
       <use x="63.623047" xlink:href="#DejaVuSans-53"/>
      </g>
     </g>
    </g>
    <g id="xtick_9">
     <g id="line2d_9">
      <g>
       <use style="stroke:#000000;stroke-width:0.8;" x="352.744688" xlink:href="#me91514004a" y="277.111219"/>
      </g>
     </g>
     <g id="text_9">
      <!-- 20 -->
      <g transform="translate(346.382188 291.709656)scale(0.1 -0.1)">
       <use xlink:href="#DejaVuSans-50"/>
       <use x="63.623047" xlink:href="#DejaVuSans-48"/>
      </g>
     </g>
    </g>
    <g id="xtick_10">
     <g id="line2d_10">
      <g>
       <use style="stroke:#000000;stroke-width:0.8;" x="392.424688" xlink:href="#me91514004a" y="277.111219"/>
      </g>
     </g>
     <g id="text_10">
      <!-- 25 -->
      <g transform="translate(386.062187 291.709656)scale(0.1 -0.1)">
       <use xlink:href="#DejaVuSans-50"/>
       <use x="63.623047" xlink:href="#DejaVuSans-53"/>
      </g>
     </g>
    </g>
   </g>
   <g id="matplotlib.axis_2">
    <g id="ytick_1">
     <g id="line2d_11">
      <defs>
       <path d="M 0 0 
L -3.5 0 
" id="me06c6fb7de" style="stroke:#000000;stroke-width:0.8;"/>
      </defs>
      <g>
       <use style="stroke:#000000;stroke-width:0.8;" x="35.304688" xlink:href="#me06c6fb7de" y="277.111219"/>
      </g>
     </g>
     <g id="text_11">
      <!-- −20 -->
      <g transform="translate(7.2 280.910437)scale(0.1 -0.1)">
       <use xlink:href="#DejaVuSans-8722"/>
       <use x="83.789062" xlink:href="#DejaVuSans-50"/>
       <use x="147.412109" xlink:href="#DejaVuSans-48"/>
      </g>
     </g>
    </g>
    <g id="ytick_2">
     <g id="line2d_12">
      <g>
       <use style="stroke:#000000;stroke-width:0.8;" x="35.304688" xlink:href="#me06c6fb7de" y="243.847219"/>
      </g>
     </g>
     <g id="text_12">
      <!-- −15 -->
      <g transform="translate(7.2 247.646437)scale(0.1 -0.1)">
       <use xlink:href="#DejaVuSans-8722"/>
       <use x="83.789062" xlink:href="#DejaVuSans-49"/>
       <use x="147.412109" xlink:href="#DejaVuSans-53"/>
      </g>
     </g>
    </g>
    <g id="ytick_3">
     <g id="line2d_13">
      <g>
       <use style="stroke:#000000;stroke-width:0.8;" x="35.304688" xlink:href="#me06c6fb7de" y="210.583219"/>
      </g>
     </g>
     <g id="text_13">
      <!-- −10 -->
      <g transform="translate(7.2 214.382437)scale(0.1 -0.1)">
       <use xlink:href="#DejaVuSans-8722"/>
       <use x="83.789062" xlink:href="#DejaVuSans-49"/>
       <use x="147.412109" xlink:href="#DejaVuSans-48"/>
      </g>
     </g>
    </g>
    <g id="ytick_4">
     <g id="line2d_14">
      <g>
       <use style="stroke:#000000;stroke-width:0.8;" x="35.304688" xlink:href="#me06c6fb7de" y="177.319219"/>
      </g>
     </g>
     <g id="text_14">
      <!-- −5 -->
      <g transform="translate(13.5625 181.118437)scale(0.1 -0.1)">
       <use xlink:href="#DejaVuSans-8722"/>
       <use x="83.789062" xlink:href="#DejaVuSans-53"/>
      </g>
     </g>
    </g>
    <g id="ytick_5">
     <g id="line2d_15">
      <g>
       <use style="stroke:#000000;stroke-width:0.8;" x="35.304688" xlink:href="#me06c6fb7de" y="144.055219"/>
      </g>
     </g>
     <g id="text_15">
      <!-- 0 -->
      <g transform="translate(21.942187 147.854437)scale(0.1 -0.1)">
       <use xlink:href="#DejaVuSans-48"/>
      </g>
     </g>
    </g>
    <g id="ytick_6">
     <g id="line2d_16">
      <g>
       <use style="stroke:#000000;stroke-width:0.8;" x="35.304688" xlink:href="#me06c6fb7de" y="110.791219"/>
      </g>
     </g>
     <g id="text_16">
      <!-- 5 -->
      <g transform="translate(21.942187 114.590437)scale(0.1 -0.1)">
       <use xlink:href="#DejaVuSans-53"/>
      </g>
     </g>
    </g>
    <g id="ytick_7">
     <g id="line2d_17">
      <g>
       <use style="stroke:#000000;stroke-width:0.8;" x="35.304688" xlink:href="#me06c6fb7de" y="77.527219"/>
      </g>
     </g>
     <g id="text_17">
      <!-- 10 -->
      <g transform="translate(15.579687 81.326437)scale(0.1 -0.1)">
       <use xlink:href="#DejaVuSans-49"/>
       <use x="63.623047" xlink:href="#DejaVuSans-48"/>
      </g>
     </g>
    </g>
    <g id="ytick_8">
     <g id="line2d_18">
      <g>
       <use style="stroke:#000000;stroke-width:0.8;" x="35.304688" xlink:href="#me06c6fb7de" y="44.263219"/>
      </g>
     </g>
     <g id="text_18">
      <!-- 15 -->
      <g transform="translate(15.579687 48.062437)scale(0.1 -0.1)">
       <use xlink:href="#DejaVuSans-49"/>
       <use x="63.623047" xlink:href="#DejaVuSans-53"/>
      </g>
     </g>
    </g>
    <g id="ytick_9">
     <g id="line2d_19">
      <g>
       <use style="stroke:#000000;stroke-width:0.8;" x="35.304688" xlink:href="#me06c6fb7de" y="10.999219"/>
      </g>
     </g>
     <g id="text_19">
      <!-- 20 -->
      <g transform="translate(15.579687 14.798437)scale(0.1 -0.1)">
       <use xlink:href="#DejaVuSans-50"/>
       <use x="63.623047" xlink:href="#DejaVuSans-48"/>
      </g>
     </g>
    </g>
   </g>
   <g id="LineCollection_1"/>
   <g id="LineCollection_2"/>
   <g id="LineCollection_3"/>
   <g id="LineCollection_4"/>
   <g id="LineCollection_5"/>
   <g id="LineCollection_6">
    <path clip-path="url(#p058527a71e)" d="M 106.730655 169.322532 
L 106.728687 169.323216 
L 102.079531 170.666419 
L 94.824687 172.186572 
L 82.920687 173.090763 
L 74.450032 170.666419 
L 75.31415 161.796019 
L 80.613634 152.925619 
L 82.920687 149.664293 
L 87.221375 144.055219 
L 93.516101 135.184819 
L 94.824687 133.230397 
L 100.005664 126.314419 
L 106.48872 117.444019 
L 106.728687 117.102899 
L 113.814302 108.573619 
L 118.632687 102.953498 
L 122.060126 99.703219 
L 130.536687 91.905887 
L 132.044864 90.832819 
L 142.440687 83.630375 
L 145.844727 81.962419 
L 154.344687 77.753533 
L 166.248687 73.946995 
L 169.679855 73.092019 
L 178.152687 71.093492 
L 190.056688 68.95632 
L 201.960688 67.234164 
L 213.864688 65.668707 
L 224.974744 64.221619 
L 225.768687 64.137619 
L 237.672687 62.768601 
L 249.576687 61.627084 
L 261.480687 60.851481 
L 273.384688 60.626848 
L 285.288688 61.129013 
L 297.192688 62.371515 
L 309.096688 64.120905 
L 309.378703 64.221619 
L 314.258025 73.092019 
L 310.188434 81.962419 
L 309.096688 83.38094 
L 299.430138 90.832819 
L 297.192688 91.802779 
L 285.288688 99.464665 
L 284.973439 99.703219 
L 273.384688 105.312879 
L 269.029747 108.573619 
L 261.480687 113.743957 
L 256.439387 117.444019 
L 249.576687 121.877339 
L 242.954915 126.314419 
L 237.672687 129.342634 
L 228.484303 135.184819 
L 225.768687 136.706491 
L 213.938413 144.055219 
L 213.864688 144.093157 
L 201.960688 146.039145 
L 190.056688 145.368415 
L 178.152687 146.847624 
L 166.248687 149.307541 
L 154.730759 152.925619 
L 154.344687 153.040966 
L 142.440687 156.796908 
L 130.609018 161.277185 
" style="fill:none;stroke:#39558c;stroke-width:1.5;"/>
   </g>
   <g id="LineCollection_7">
    <path clip-path="url(#p058527a71e)" d="M 165.048203 10.999219 
L 166.248687 11.401816 
L 178.152687 15.496805 
L 190.056688 19.061938 
L 192.874347 19.869619 
L 201.960688 23.221538 
L 213.864688 27.010239 
L 220.07531 28.740019 
L 225.768687 30.605864 
L 237.672687 33.971294 
L 249.576687 36.62354 
L 254.590568 37.610419 
L 261.480687 39.01324 
L 273.384688 41.223583 
L 285.288688 43.36887 
L 297.192688 45.760285 
L 299.917435 46.480819 
L 309.096688 48.943002 
L 321.000688 52.877811 
L 322.862513 55.351219 
L 323.607705 64.221619 
L 321.756317 73.092019 
L 321.000688 75.324466 
L 314.085547 81.962419 
L 309.096688 88.444513 
L 305.998586 90.832819 
L 297.192688 94.650275 
L 289.528705 99.703219 
L 285.288688 101.618662 
L 275.123424 108.573619 
L 273.384688 109.614086 
L 262.683755 117.444019 
L 261.480687 118.263403 
L 250.325788 126.314419 
L 249.576687 126.806095 
L 237.672687 135.097741 
L 237.535735 135.184819 
L 236.760662 135.619124 
" style="fill:none;stroke:#33638d;stroke-width:1.5;"/>
    <path clip-path="url(#p058527a71e)" d="M 214.73645 147.846139 
L 213.864688 148.294738 
L 206.374192 152.925619 
L 201.960688 154.564118 
L 190.402836 161.796019 
L 190.056688 161.912986 
L 178.152687 165.044242 
L 168.311736 170.666419 
L 166.248687 171.268601 
L 154.344687 174.783354 
L 143.819199 179.536819 
L 142.440687 179.847416 
L 130.536687 182.580074 
L 118.632687 187.173502 
L 115.274491 188.407219 
L 106.728687 190.291762 
L 94.824687 193.139522 
L 82.920687 195.85049 
L 76.174711 197.277619 
L 71.016687 197.935691 
L 59.112687 199.142965 
L 47.208687 200.027574 
L 35.304687 200.373314 
" style="fill:none;stroke:#33638d;stroke-width:1.5;"/>
   </g>
   <g id="LineCollection_8">
    <path clip-path="url(#p058527a71e)" d="M 216.527835 10.999219 
L 225.768687 14.112899 
L 237.672687 17.566833 
L 246.957441 19.869619 
L 249.576687 20.697493 
L 261.480687 24.16888 
L 273.384688 27.10676 
L 280.346804 28.740019 
L 285.288688 30.092079 
L 297.192688 33.548579 
L 309.096688 37.385513 
L 309.595017 37.610419 
L 321.000688 42.587029 
L 325.584111 46.480819 
L 331.030495 55.351219 
L 327.042061 64.221619 
L 323.022521 73.092019 
L 321.000688 79.065367 
L 317.98266 81.962419 
L 309.584601 90.832819 
L 309.096688 91.203207 
L 297.192688 97.49777 
L 293.847604 99.703219 
L 285.288688 103.569741 
L 277.975093 108.573619 
L 273.384688 111.320537 
L 265.01591 117.444019 
L 261.480687 119.851783 
L 252.526532 126.314419 
L 249.576687 128.250566 
L 239.699142 135.184819 
L 237.672687 136.472094 
L 226.801329 144.055219 
L 225.768687 144.697316 
L 213.864688 152.496319 
L 213.170291 152.925619 
L 205.450555 155.791545 
" style="fill:none;stroke:#2d718e;stroke-width:1.5;"/>
    <path clip-path="url(#p058527a71e)" d="M 183.148878 167.267627 
L 178.152687 170.154984 
L 177.257482 170.666419 
L 166.248687 173.879771 
L 156.676035 179.536819 
L 154.344687 180.298279 
L 142.440687 184.867915 
L 135.241872 188.407219 
L 130.536687 189.355381 
L 118.632687 193.229888 
L 109.696661 197.277619 
L 106.728687 197.786552 
L 94.824687 200.547738 
L 82.920687 204.090855 
L 72.123006 206.148019 
L 71.016687 206.265364 
L 59.112687 207.52284 
L 47.208687 208.719508 
L 35.304687 209.706957 
" style="fill:none;stroke:#2d718e;stroke-width:1.5;"/>
   </g>
   <g id="LineCollection_9">
    <path clip-path="url(#p058527a71e)" d="M 249.679703 10.999219 
L 261.480687 14.518514 
L 273.384688 17.499415 
L 284.031588 19.869619 
L 285.142382 20.189311 
" style="fill:none;stroke:#287d8e;stroke-width:1.5;"/>
    <path clip-path="url(#p058527a71e)" d="M 309.145676 27.855176 
L 311.118491 28.740019 
L 321.000688 33.61908 
L 325.751003 37.610419 
L 332.904688 43.599572 
L 333.42734 46.480819 
L 333.529588 55.351219 
L 332.904688 59.976996 
L 330.476417 64.221619 
L 324.288725 73.092019 
L 321.104894 81.962419 
L 321.000688 82.135099 
L 310.508091 90.832819 
L 309.096688 91.904255 
L 297.429167 99.703219 
L 297.192688 99.823193 
L 285.288688 105.520819 
L 280.826761 108.573619 
L 273.384688 113.026987 
L 267.348064 117.444019 
L 261.480687 121.440164 
L 254.727277 126.314419 
L 249.576687 129.695036 
L 241.756728 135.184819 
L 237.672687 137.779147 
L 228.675152 144.055219 
L 225.768687 145.862461 
L 215.400306 152.925619 
L 213.864688 153.545142 
L 201.960688 159.610177 
L 198.467328 161.796019 
L 190.056688 164.638061 
L 180.164742 170.666419 
L 178.152687 171.358853 
L 166.248687 176.49094 
L 161.094562 179.536819 
L 154.344687 181.741451 
L 143.155406 188.407219 
L 142.440687 188.633926 
L 130.536687 191.413149 
L 119.510233 197.277619 
L 118.632687 197.445077 
L 106.728687 199.768354 
L 94.824687 205.466669 
L 92.923606 206.148019 
L 82.920687 207.405351 
L 71.016687 210.488865 
L 59.112687 213.118012 
L 47.208687 214.569376 
L 43.211547 215.018419 
L 35.304687 215.613763 
" style="fill:none;stroke:#287d8e;stroke-width:1.5;"/>
   </g>
   <g id="LineCollection_10">
    <path clip-path="url(#p058527a71e)" d="M 276.266979 10.999219 
L 285.288688 13.486588 
L 297.192688 16.686505 
L 308.190572 19.869619 
L 309.096688 20.205833 
L 321.000688 26.046522 
L 323.13983 27.684725 
" style="fill:none;stroke:#238a8d;stroke-width:1.5;"/>
    <path clip-path="url(#p058527a71e)" d="M 334.839817 48.02341 
L 334.340573 55.351219 
L 333.037498 64.221619 
L 332.904688 64.647786 
L 325.554929 73.092019 
L 321.566857 81.962419 
L 321.000688 82.900616 
L 311.431582 90.832819 
L 309.096688 92.605303 
L 298.477959 99.703219 
L 297.192688 100.355281 
L 285.288688 107.471898 
L 283.678429 108.573619 
L 273.384688 114.733438 
L 269.680218 117.444019 
L 261.480687 123.028545 
L 256.928021 126.314419 
L 249.576687 131.139507 
L 243.814315 135.184819 
L 237.672687 139.086199 
L 230.548975 144.055219 
L 225.768687 147.027606 
L 217.110684 152.925619 
L 213.864688 154.235169 
L 202.104128 161.796019 
L 201.960688 161.854145 
L 190.056688 166.000598 
L 182.400532 170.666419 
L 178.152687 172.128284 
L 166.248687 179.10211 
L 165.513089 179.536819 
L 154.344687 183.184622 
L 145.57794 188.407219 
L 142.440687 189.402347 
L 130.536687 193.470916 
L 123.379275 197.277619 
L 118.632687 198.18339 
L 106.728687 201.750156 
L 98.153611 206.148019 
L 94.824687 206.650652 
L 82.920687 209.130494 
L 71.016687 214.712366 
L 69.839561 215.018419 
L 59.112687 215.815314 
L 47.208687 217.690646 
L 35.304687 219.534535 
" style="fill:none;stroke:#238a8d;stroke-width:1.5;"/>
   </g>
   <g id="LineCollection_11">
    <path clip-path="url(#p058527a71e)" d="M 297.853197 10.999219 
L 309.096688 14.900304 
L 321.000688 19.703059 
L 321.257355 19.869619 
L 332.904688 28.734435 
L 332.907358 28.740019 
L 336.005988 37.610419 
L 336.462487 46.480819 
L 335.151559 55.351219 
L 333.490858 64.221619 
L 332.904688 66.102544 
L 326.821133 73.092019 
L 322.028821 81.962419 
L 321.000688 83.666133 
L 312.355072 90.832819 
L 309.096688 93.306351 
L 299.526751 99.703219 
L 297.192688 100.887368 
L 285.636931 108.573619 
L 285.288688 108.774962 
L 273.384688 116.439888 
L 272.012372 117.444019 
L 261.480687 124.616926 
L 259.128765 126.314419 
L 249.576687 132.583978 
L 245.871901 135.184819 
L 237.672687 140.393251 
L 232.422798 144.055219 
L 225.768687 148.192751 
L 218.821062 152.925619 
L 213.864688 154.925197 
L 203.177435 161.796019 
L 201.960688 162.289076 
L 190.056688 167.363136 
L 184.636323 170.666419 
L 178.152687 172.897716 
L 177.093378 173.545585 
" style="fill:none;stroke:#1f968b;stroke-width:1.5;"/>
    <path clip-path="url(#p058527a71e)" d="M 154.531098 184.5541 
L 154.344687 184.627793 
L 148.000474 188.407219 
L 142.440687 190.170768 
L 130.536687 195.528684 
L 127.248316 197.277619 
L 118.632687 198.921703 
L 106.728687 203.731957 
L 102.017784 206.148019 
L 94.824687 207.234102 
L 82.920687 210.855637 
L 74.321955 215.018419 
L 71.016687 215.395267 
L 59.112687 217.022092 
L 47.208687 220.585052 
L 35.304687 223.455308 
" style="fill:none;stroke:#1f968b;stroke-width:1.5;"/>
   </g>
   <g id="LineCollection_12">
    <path clip-path="url(#p058527a71e)" d="M 311.369456 10.999219 
L 321.000688 15.47295 
L 327.775922 19.869619 
L 332.904688 23.773136 
L 335.279669 28.740019 
L 338.421131 37.610419 
L 337.98006 46.480819 
L 335.964533 55.342475 
" style="fill:none;stroke:#20a386;stroke-width:1.5;"/>
    <path clip-path="url(#p058527a71e)" d="M 325.279319 77.542659 
L 322.490784 81.962419 
L 321.000688 84.43165 
L 313.278563 90.832819 
L 309.096688 94.007399 
L 300.575543 99.703219 
L 297.192688 101.419456 
L 286.436889 108.573619 
L 285.288688 109.237472 
L 273.654546 117.444019 
L 273.384688 117.62073 
L 261.480687 126.205306 
L 261.329509 126.314419 
L 249.576687 134.028448 
L 247.929487 135.184819 
L 237.672687 141.700303 
L 234.296621 144.055219 
L 225.768687 149.357896 
L 220.53144 152.925619 
L 213.864688 155.615224 
L 204.250741 161.796019 
L 201.960688 162.724007 
L 190.056688 168.725673 
L 186.872114 170.666419 
L 178.152687 173.667147 
L 168.555386 179.536819 
L 166.248687 180.383702 
L 154.344687 186.070965 
L 150.423009 188.407219 
L 142.440687 190.939189 
L 130.749406 197.277619 
L 130.536687 197.326214 
L 118.632687 199.660015 
L 106.728687 205.713759 
L 105.881956 206.148019 
L 94.824687 207.817552 
L 82.920687 212.58078 
L 77.885448 215.018419 
L 71.016687 215.801556 
L 59.112687 218.228871 
L 47.208687 223.479457 
L 45.575489 223.888819 
L 35.304687 224.429698 
" style="fill:none;stroke:#20a386;stroke-width:1.5;"/>
   </g>
   <g id="LineCollection_13">
    <path clip-path="url(#p058527a71e)" d="M 320.476205 10.999219 
L 321.000688 11.242842 
L 332.904688 19.211507 
L 333.337076 19.869619 
L 337.651981 28.740019 
L 340.836273 37.610419 
L 339.497634 46.480819 
L 336.77353 55.351219 
L 334.397577 64.221619 
L 332.904688 69.012061 
L 329.353541 73.092019 
L 322.952747 81.962419 
L 321.000688 85.197167 
L 314.202053 90.832819 
L 309.096688 94.708447 
L 301.624335 99.703219 
L 297.192688 101.951544 
L 287.236847 108.573619 
L 285.288688 109.699981 
L 274.31023 117.444019 
L 273.384688 118.050092 
L 262.030077 126.314419 
L 261.480687 126.702519 
L 249.692201 135.184819 
L 249.576687 135.268014 
L 237.672687 143.007355 
L 236.170444 144.055219 
L 225.768687 150.523041 
L 222.241817 152.925619 
L 213.864688 156.305251 
L 205.324047 161.796019 
L 201.960688 163.158938 
L 190.056688 170.088211 
L 189.107905 170.666419 
L 178.152687 174.436579 
L 169.813458 179.536819 
L 166.248687 180.845591 
L 165.337356 181.356113 
" style="fill:none;stroke:#29af7f;stroke-width:1.5;"/>
    <path clip-path="url(#p058527a71e)" d="M 142.498596 191.689242 
L 142.440687 191.70761 
L 132.166765 197.277619 
L 130.536687 197.65001 
L 118.632687 200.398328 
L 107.813541 206.148019 
L 106.728687 206.332954 
L 94.824687 208.401002 
L 82.920687 214.305923 
L 81.448941 215.018419 
L 71.016687 216.207846 
L 59.112687 219.43565 
L 49.455571 223.888819 
L 47.208687 224.0923 
L 35.304687 225.037815 
" style="fill:none;stroke:#29af7f;stroke-width:1.5;"/>
   </g>
   <g id="LineCollection_14">
    <path clip-path="url(#p058527a71e)" d="M 325.310624 10.999219 
L 332.904688 16.124775 
L 335.365103 19.869619 
L 340.024292 28.740019 
L 343.251416 37.610419 
L 341.015207 46.480819 
L 337.584515 55.351219 
L 334.850937 64.221619 
L 332.904688 70.466819 
L 330.619745 73.092019 
L 323.601685 81.732226 
" style="fill:none;stroke:#3dbc74;stroke-width:1.5;"/>
    <path clip-path="url(#p058527a71e)" d="M 304.914238 98.205184 
L 302.673127 99.703219 
L 297.192688 102.483631 
L 288.036805 108.573619 
L 285.288688 110.162491 
L 274.965914 117.444019 
L 273.384688 118.479454 
L 262.619991 126.314419 
L 261.480687 127.119246 
L 250.271357 135.184819 
L 249.576687 135.685138 
L 237.789175 144.055219 
L 237.672687 144.13314 
L 225.768687 151.688186 
L 223.952195 152.925619 
L 213.864688 156.995278 
L 206.397353 161.796019 
L 201.960688 163.59387 
L 190.463674 170.666419 
L 190.056688 170.814942 
L 178.152687 175.20601 
L 171.071529 179.536819 
L 166.248687 181.307481 
L 154.632736 188.407219 
L 154.344687 188.510146 
L 142.440687 192.476031 
L 133.584123 197.277619 
L 130.536687 197.973805 
L 118.632687 201.136641 
L 109.202819 206.148019 
L 106.728687 206.569785 
L 94.824687 208.984453 
L 83.560056 215.018419 
L 82.920687 215.112581 
L 71.016687 216.614136 
L 59.112687 220.642428 
L 52.072584 223.888819 
L 47.208687 224.329301 
L 35.304687 225.645932 
" style="fill:none;stroke:#3dbc74;stroke-width:1.5;"/>
   </g>
   <g id="LineCollection_15">
    <path clip-path="url(#p058527a71e)" d="M 329.88395 10.999219 
L 332.904688 13.038043 
L 337.393131 19.869619 
L 342.396604 28.740019 
L 344.808688 35.313859 
L 345.00124 37.610419 
L 344.808688 39.309055 
L 342.532781 46.480819 
L 338.395501 55.351219 
L 335.304297 64.221619 
L 332.904688 71.921577 
L 331.885949 73.092019 
L 323.876673 81.962419 
L 321.000688 86.728202 
L 316.049034 90.832819 
L 309.096688 96.110543 
L 303.721919 99.703219 
L 297.192688 103.015719 
L 288.836762 108.573619 
L 285.288688 110.625001 
L 275.621598 117.444019 
L 273.384688 118.908816 
L 263.209904 126.314419 
L 261.480687 127.535973 
L 250.850514 135.184819 
L 249.576687 136.102262 
L 238.376607 144.055219 
L 237.672687 144.526086 
L 225.768687 152.853331 
L 225.662573 152.925619 
L 213.864688 157.685306 
L 207.470659 161.796019 
L 201.960688 164.028801 
L 191.17069 170.666419 
L 190.056688 171.072958 
L 178.152687 175.975442 
L 177.552442 176.342549 
" style="fill:none;stroke:#56c667;stroke-width:1.5;"/>
    <path clip-path="url(#p058527a71e)" d="M 155.49779 188.340382 
L 155.388437 188.407219 
L 154.344687 188.78018 
L 142.440687 193.244452 
L 135.001482 197.277619 
L 130.536687 198.2976 
L 118.632687 201.874954 
L 110.592096 206.148019 
L 106.728687 206.806616 
L 94.824687 209.567903 
L 84.649281 215.018419 
L 82.920687 215.272996 
L 71.016687 217.020425 
L 59.112687 221.849207 
L 54.689597 223.888819 
L 47.208687 224.566302 
L 35.304687 226.254049 
" style="fill:none;stroke:#56c667;stroke-width:1.5;"/>
   </g>
   <g id="LineCollection_16">
    <path clip-path="url(#p058527a71e)" d="M 333.463985 10.999219 
L 339.421158 19.869619 
L 344.768915 28.740019 
L 344.808688 28.848413 
L 345.543328 37.610419 
L 344.808688 44.091184 
L 344.050354 46.480819 
L 339.206486 55.351219 
L 335.757656 64.221619 
L 332.950315 73.092019 
L 332.904688 73.184537 
L 324.338636 81.962419 
L 321.000688 87.493719 
L 316.972525 90.832819 
L 309.096688 96.81159 
L 304.770711 99.703219 
L 297.192688 103.547807 
L 289.63672 108.573619 
L 285.288688 111.08751 
L 276.277282 117.444019 
L 273.384688 119.338178 
L 263.799817 126.314419 
L 261.480687 127.9527 
L 251.429671 135.184819 
L 249.576687 136.519386 
L 238.964039 144.055219 
L 237.672687 144.919032 
L 226.292549 152.925619 
L 225.768687 153.140951 
L 213.864688 158.375333 
L 208.543965 161.796019 
L 201.960688 164.463732 
L 191.877707 170.666419 
L 190.056688 171.330973 
L 178.152687 176.744873 
L 173.587672 179.536819 
L 166.959794 181.970183 
" style="fill:none;stroke:#75d054;stroke-width:1.5;"/>
    <path clip-path="url(#p058527a71e)" d="M 144.478592 193.163291 
L 142.440687 194.012873 
L 136.41884 197.277619 
L 130.536687 198.621395 
L 118.632687 202.613267 
L 111.981373 206.148019 
L 106.728687 207.043447 
L 94.824687 210.151353 
L 85.738507 215.018419 
L 82.920687 215.433411 
L 71.016687 217.426715 
L 59.112687 223.055986 
L 57.306611 223.888819 
L 47.208687 224.803303 
L 35.304687 226.862166 
" style="fill:none;stroke:#75d054;stroke-width:1.5;"/>
   </g>
   <g id="LineCollection_17">
    <path clip-path="url(#p058527a71e)" d="M 335.111458 10.999219 
L 341.449185 19.869619 
L 344.808688 25.436064 
L 345.384515 28.740019 
L 346.085417 37.610419 
L 344.987686 46.480819 
L 344.808688 47.173347 
L 340.017472 55.351219 
L 336.211016 64.221619 
L 333.183778 73.092019 
L 332.904688 73.657924 
L 324.8006 81.962419 
L 321.000688 88.259236 
L 317.896015 90.832819 
L 309.096688 97.512638 
L 305.819503 99.703219 
L 297.192688 104.079895 
L 290.436678 108.573619 
L 285.288688 111.55002 
L 276.932967 117.444019 
L 273.384688 119.76754 
L 264.389731 126.314419 
L 261.480687 128.369428 
L 252.008828 135.184819 
L 249.576687 136.93651 
L 239.551471 144.055219 
L 237.672687 145.311978 
L 226.851062 152.925619 
L 225.768687 153.370527 
L 213.864688 159.06536 
L 209.617272 161.796019 
L 201.960688 164.898663 
L 192.584724 170.666419 
L 190.056688 171.588988 
L 178.152687 177.514305 
L 174.845743 179.536819 
L 167.79121 182.126826 
" style="fill:none;stroke:#95d840;stroke-width:1.5;"/>
    <path clip-path="url(#p058527a71e)" d="M 145.358552 193.442702 
L 142.440687 194.781294 
L 137.836199 197.277619 
L 130.536687 198.945191 
L 118.632687 203.351579 
L 113.37065 206.148019 
L 106.728687 207.280278 
L 94.824687 210.734803 
L 86.827733 215.018419 
L 82.920687 215.593826 
L 71.016687 217.833004 
L 59.355125 223.888819 
L 59.112687 223.920164 
L 47.208687 225.040305 
L 35.304687 227.470283 
" style="fill:none;stroke:#95d840;stroke-width:1.5;"/>
   </g>
   <g id="LineCollection_18">
    <path clip-path="url(#p058527a71e)" d="M 336.758931 10.999219 
L 343.477212 19.869619 
L 344.808688 22.075774 
L 345.970162 28.740019 
L 346.627505 37.610419 
L 345.345469 46.480819 
L 344.808688 48.557575 
L 340.828458 55.351219 
L 336.664376 64.221619 
L 333.41724 73.092019 
L 332.904688 74.131311 
L 325.262563 81.962419 
L 321.000688 89.024753 
L 318.819506 90.832819 
L 309.096688 98.213686 
L 306.868295 99.703219 
L 297.192688 104.611982 
L 291.236636 108.573619 
L 285.288688 112.01253 
L 277.588651 117.444019 
L 273.384688 120.196901 
L 264.979644 126.314419 
L 261.480687 128.786155 
L 252.587985 135.184819 
L 249.576687 137.353633 
L 240.138903 144.055219 
L 237.672687 145.704924 
L 227.409575 152.925619 
L 225.768687 153.600103 
L 213.864688 159.755387 
L 210.690578 161.796019 
L 201.960688 165.333594 
L 193.29174 170.666419 
L 190.056688 171.847003 
L 178.152687 178.283736 
L 176.103815 179.536819 
L 168.622625 182.283469 
" style="fill:none;stroke:#bade28;stroke-width:1.5;"/>
    <path clip-path="url(#p058527a71e)" d="M 146.221632 193.656882 
L 142.440687 195.549716 
L 139.253557 197.277619 
L 130.536687 199.268986 
L 118.632687 204.089892 
L 114.759927 206.148019 
L 106.728687 207.517109 
L 94.824687 211.318253 
L 87.916959 215.018419 
L 82.920687 215.754241 
L 71.016687 218.239294 
L 60.137509 223.888819 
L 59.112687 224.021319 
L 47.208687 225.277306 
L 35.304687 228.0784 
" style="fill:none;stroke:#bade28;stroke-width:1.5;"/>
   </g>
   <g id="LineCollection_19">
    <path clip-path="url(#p058527a71e)" d="M 338.406405 10.999219 
L 344.808688 19.149299 
L 344.977495 19.869619 
L 346.555808 28.740019 
L 347.169593 37.610419 
L 345.703252 46.480819 
L 344.808688 49.941803 
L 341.639443 55.351219 
L 337.117735 64.221619 
L 333.650702 73.092019 
L 332.904688 74.604698 
L 325.724526 81.962419 
L 321.000688 89.79027 
L 319.742996 90.832819 
L 309.096688 98.914734 
L 307.917087 99.703219 
L 297.192688 105.14407 
L 292.036594 108.573619 
L 285.288688 112.475039 
L 278.244335 117.444019 
L 273.384688 120.626263 
L 265.569558 126.314419 
L 261.480687 129.202882 
L 253.167142 135.184819 
L 249.576687 137.770757 
L 240.726335 144.055219 
L 237.672687 146.09787 
L 227.968087 152.925619 
L 225.768687 153.829678 
L 213.864688 160.445415 
L 211.763884 161.796019 
L 201.960688 165.768526 
L 193.998757 170.666419 
L 190.056688 172.105019 
L 178.152687 179.053168 
L 177.361886 179.536819 
L 169.45404 182.440111 
" style="fill:none;stroke:#dde318;stroke-width:1.5;"/>
    <path clip-path="url(#p058527a71e)" d="M 147.065239 193.809355 
L 142.440687 196.318137 
L 140.670916 197.277619 
L 130.536687 199.592781 
L 118.632687 204.828205 
L 116.149204 206.148019 
L 106.728687 207.75394 
L 94.824687 211.901703 
L 89.006184 215.018419 
L 82.920687 215.914656 
L 71.016687 218.645583 
L 60.919893 223.888819 
L 59.112687 224.122474 
L 47.208687 225.514307 
L 35.304687 228.686517 
" style="fill:none;stroke:#dde318;stroke-width:1.5;"/>
   </g>
   <g id="LineCollection_20">
    <path clip-path="url(#p058527a71e)" d="M 340.053878 10.999219 
L 344.808688 17.052072 
L 345.468983 19.869619 
L 347.141454 28.740019 
L 347.711682 37.610419 
L 346.061036 46.480819 
L 344.808688 51.326032 
L 342.450429 55.351219 
L 337.571095 64.221619 
L 333.884165 73.092019 
L 332.904688 75.078086 
L 326.186489 81.962419 
L 321.000688 90.555787 
L 320.666487 90.832819 
L 309.096688 99.615782 
L 308.965879 99.703219 
L 297.192688 105.676158 
L 292.836552 108.573619 
L 285.288688 112.937549 
L 278.900019 117.444019 
L 273.384688 121.055625 
L 266.159471 126.314419 
L 261.480687 129.619609 
L 253.746299 135.184819 
L 249.576687 138.187881 
L 241.313767 144.055219 
L 237.672687 146.490816 
L 228.5266 152.925619 
L 225.768687 154.059254 
L 213.864688 161.135442 
L 212.83719 161.796019 
L 201.960688 166.203457 
L 194.705774 170.666419 
L 190.056688 172.363034 
L 178.309612 179.536819 
L 178.152687 179.596491 
L 170.273081 182.563474 
" style="fill:none;stroke:#fde725;stroke-width:1.5;"/>
    <path clip-path="url(#p058527a71e)" d="M 147.887261 193.903803 
L 142.440687 197.086558 
L 142.088274 197.277619 
L 130.536687 199.916577 
L 118.632687 205.566518 
L 117.538482 206.148019 
L 106.728687 207.990771 
L 94.824687 212.485153 
L 90.09541 215.018419 
L 82.920687 216.075071 
L 71.016687 219.051873 
L 61.702277 223.888819 
L 59.112687 224.22363 
L 47.208687 225.751308 
L 35.304687 229.294634 
" style="fill:none;stroke:#fde725;stroke-width:1.5;"/>
   </g>
   <g id="LineCollection_21">
    <path clip-path="url(#p058527a71e)" d="M 341.701352 10.999219 
L 344.808688 14.954845 
L 345.960471 19.869619 
L 347.727101 28.740019 
L 348.25377 37.610419 
L 346.418819 46.480819 
L 344.808688 52.71026 
L 343.261414 55.351219 
L 338.024455 64.221619 
L 334.117627 73.092019 
L 332.904688 75.551473 
L 326.648452 81.962419 
L 321.120343 90.832819 
L 321.000688 90.952186 
L 320.841469 91.071423 
" style="fill:none;stroke:#440154;stroke-width:1.5;"/>
    <path clip-path="url(#p058527a71e)" d="M 296.65846 106.563584 
L 293.636509 108.573619 
L 285.288688 113.400059 
L 279.555703 117.444019 
L 273.384688 121.484987 
L 266.749384 126.314419 
L 261.480687 130.036336 
L 254.325455 135.184819 
L 249.576687 138.605005 
L 241.901199 144.055219 
L 237.672687 146.883762 
L 229.085113 152.925619 
L 225.768687 154.28883 
L 213.880204 161.796019 
L 213.864688 161.802648 
L 201.960688 166.638388 
L 195.41279 170.666419 
L 190.056688 172.621049 
L 178.732112 179.536819 
L 178.152687 179.75715 
L 166.248687 184.540706 
L 159.922648 188.407219 
L 154.344687 190.40038 
L 142.781815 197.277619 
L 142.440687 197.376202 
L 130.536687 200.240372 
L 118.769669 206.148019 
L 118.632687 206.171952 
L 106.728687 208.227602 
L 94.824687 213.068604 
L 91.184636 215.018419 
L 82.920687 216.235487 
L 71.016687 219.458163 
L 62.484661 223.888819 
L 59.112687 224.324785 
L 47.208687 225.988309 
L 35.304687 229.902751 
" style="fill:none;stroke:#440154;stroke-width:1.5;"/>
   </g>
   <g id="LineCollection_22">
    <path clip-path="url(#p058527a71e)" d="M 374.799658 10.999219 
L 377.157217 19.869619 
L 379.614566 28.740019 
L 380.520688 33.935878 
L 380.844941 37.610419 
L 380.520688 38.69738 
L 376.235464 46.480819 
L 369.78935 55.351219 
L 368.616688 56.863796 
L 362.156906 64.221619 
L 356.712688 72.017501 
L 355.766923 73.092019 
L 347.650436 81.962419 
L 344.808688 85.661484 
L 339.587254 90.832819 
L 332.904688 97.628396 
L 330.384973 99.703219 
L 321.000688 106.09004 
L 317.512626 108.573619 
L 309.096688 112.988554 
L 302.773299 117.444019 
L 297.192688 120.414768 
L 288.887176 126.314419 
L 285.288688 128.553306 
L 276.147998 135.184819 
L 273.384688 137.158756 
L 264.059555 144.055219 
L 261.480687 145.7676 
L 251.733669 152.925619 
L 249.576687 154.518405 
L 239.441903 161.796019 
L 237.672687 163.035224 
L 225.768687 170.050084 
L 224.791076 170.666419 
L 213.864688 175.209808 
L 206.641683 179.536819 
L 201.960688 181.192931 
L 190.079119 188.407219 
L 190.056688 188.416142 
L 178.152687 193.181236 
L 171.421349 197.277619 
L 166.248687 198.828443 
L 154.344687 204.938349 
L 152.232856 206.148019 
L 142.440687 208.546663 
L 130.536687 214.857424 
L 130.196019 215.018419 
L 118.632687 217.113375 
L 106.728687 220.930915 
L 100.016439 223.888819 
L 94.824687 224.716196 
L 86.200137 226.551753 
" style="fill:none;stroke:#440154;stroke-width:1.5;"/>
    <path clip-path="url(#p058527a71e)" d="M 55.212784 235.36714 
L 47.208687 237.435332 
L 37.257085 241.629619 
L 35.304687 241.91891 
" style="fill:none;stroke:#440154;stroke-width:1.5;"/>
   </g>
   <g id="LineCollection_23">
    <path clip-path="url(#p058527a71e)" d="M 392.424688 69.125206 
L 387.593058 73.092019 
L 380.520688 78.912865 
L 376.98535 81.962419 
L 368.616688 88.203764 
L 365.523233 90.832819 
L 356.712688 95.932969 
L 351.771552 99.703219 
L 344.808688 103.695066 
L 337.906775 108.573619 
L 332.904688 111.264649 
L 323.872019 117.444019 
L 321.000688 119.01349 
L 310.362393 126.314419 
L 309.096688 127.074023 
L 297.62785 135.184819 
L 297.192688 135.47263 
L 288.357775 141.896523 
" style="fill:none;stroke:#440154;stroke-width:1.5;"/>
    <path clip-path="url(#p058527a71e)" d="M 258.540801 162.049563 
L 249.576687 169.515973 
L 248.008057 170.666419 
L 237.672687 177.726384 
L 234.812037 179.536819 
L 225.768687 183.642943 
L 217.817814 188.407219 
L 213.864688 189.834013 
L 201.960688 196.70379 
L 201.016924 197.277619 
L 190.056688 200.205321 
L 179.819254 206.148019 
L 178.152687 206.549179 
L 166.248687 210.264478 
L 157.843556 215.018419 
L 154.344687 215.884584 
L 142.440687 220.221206 
L 135.684505 223.888819 
L 130.536687 225.106124 
L 118.632687 229.490533 
L 111.587711 232.759219 
L 106.728687 233.73496 
L 94.824687 236.596772 
L 82.920687 241.363784 
L 82.262719 241.629619 
L 71.016687 243.473598 
L 59.112687 246.638072 
L 49.407696 250.500019 
L 47.208687 250.866333 
L 35.304687 253.054131 
" style="fill:none;stroke:#440154;stroke-width:1.5;"/>
   </g>
   <g id="LineCollection_24">
    <path clip-path="url(#p058527a71e)" d="M 392.424688 90.968488 
L 380.520688 96.226102 
L 375.288042 99.703219 
L 368.616688 102.800826 
L 360.092344 108.573619 
L 356.712688 110.265141 
L 346.173482 117.444019 
L 344.808688 118.179193 
L 333.008196 126.314419 
L 332.904688 126.37489 
L 321.000688 133.563513 
L 318.698661 135.184819 
L 309.096688 141.484531 
L 305.534432 144.055219 
L 297.192688 149.299764 
L 292.088535 152.925619 
L 285.288688 156.920888 
L 278.402188 161.796019 
L 273.384688 165.056566 
L 265.800615 170.666419 
L 265.177317 171.149525 
" style="fill:none;stroke:#440154;stroke-width:1.5;"/>
    <path clip-path="url(#p058527a71e)" d="M 232.487723 193.004134 
L 225.768687 197.049978 
L 225.419633 197.277619 
L 213.864688 200.456119 
L 204.707969 206.148019 
L 201.960688 206.930902 
L 190.056688 211.912251 
L 184.54917 215.018419 
L 178.152687 216.579663 
L 166.248687 222.393941 
L 163.626481 223.888819 
L 154.344687 226.285696 
L 142.93961 232.759219 
L 142.440687 232.890721 
L 130.536687 236.134988 
L 120.59989 241.629619 
L 118.632687 242.143331 
L 106.728687 245.846422 
L 97.452308 250.500019 
L 94.824687 251.128215 
L 82.920687 254.121291 
L 71.016687 258.940412 
L 69.934975 259.370419 
L 59.112687 261.316948 
L 47.208687 264.629016 
L 37.968986 268.240819 
L 35.304687 268.725703 
" style="fill:none;stroke:#440154;stroke-width:1.5;"/>
   </g>
   <g id="LineCollection_25">
    <path clip-path="url(#p058527a71e)" d="M 392.424688 103.119364 
L 383.884666 108.573619 
L 380.520688 110.058588 
L 369.312881 117.444019 
L 368.616688 117.792017 
L 356.712688 124.754446 
L 354.431782 126.314419 
L 344.808688 131.854207 
L 340.035374 135.184819 
L 332.904688 139.636175 
L 326.731817 144.055219 
L 321.000688 147.732274 
L 313.755108 152.925619 
L 309.096688 155.798754 
L 300.544588 161.796019 
L 297.192688 163.838404 
L 287.517091 170.666419 
L 285.288688 172.143369 
L 275.216886 179.536819 
L 273.384688 180.882868 
L 263.418448 188.407219 
L 261.480687 189.461483 
L 257.46299 191.625753 
" style="fill:none;stroke:#440154;stroke-width:1.5;"/>
    <path clip-path="url(#p058527a71e)" d="M 218.300724 209.160145 
L 213.864688 210.716613 
L 206.801449 215.018419 
L 201.960688 216.445718 
L 190.056688 223.198427 
L 188.89781 223.888819 
L 178.152687 227.038478 
L 168.398276 232.759219 
L 166.248687 233.405903 
L 154.344687 237.784495 
L 147.632827 241.629619 
L 142.440687 243.08793 
L 130.536687 248.896053 
L 127.699561 250.500019 
L 118.632687 253.073863 
L 107.475421 259.370419 
L 106.728687 259.589422 
L 94.824687 263.216907 
L 85.411354 268.240819 
L 82.920687 268.930306 
L 71.016687 272.647084 
L 61.399781 277.111219 
" style="fill:none;stroke:#440154;stroke-width:1.5;"/>
   </g>
   <g id="LineCollection_26">
    <path clip-path="url(#p058527a71e)" d="M 392.424688 117.882653 
L 380.520688 124.461243 
L 377.743157 126.314419 
L 368.616688 131.375113 
L 363.083075 135.184819 
L 356.712688 138.916041 
L 349.382654 144.055219 
L 344.808688 146.79898 
L 336.164611 152.925619 
L 332.904688 154.909987 
L 323.16453 161.796019 
L 321.000688 163.162283 
L 310.442185 170.666419 
L 309.096688 171.565221 
L 297.950244 179.536819 
L 297.192688 180.054065 
L 285.82147 188.407219 
L 285.288688 188.779878 
L 273.618067 197.143266 
" style="fill:none;stroke:#450457;stroke-width:1.5;"/>
    <path clip-path="url(#p058527a71e)" d="M 230.693218 215.162899 
L 225.768687 216.551181 
L 213.864688 222.84883 
L 212.122158 223.888819 
L 201.960688 226.941352 
L 192.259837 232.759219 
L 190.056688 233.447072 
L 178.152687 238.56461 
L 173.106512 241.629619 
L 166.248687 243.851812 
L 155.08696 250.500019 
L 154.344687 250.745243 
L 142.440687 254.739904 
L 134.433435 259.370419 
L 130.536687 260.577225 
L 118.632687 266.207917 
L 115.099905 268.240819 
L 106.728687 270.875123 
L 95.863282 277.111219 
" style="fill:none;stroke:#450457;stroke-width:1.5;"/>
   </g>
   <g id="LineCollection_27">
    <path clip-path="url(#p058527a71e)" d="M 392.424688 131.819955 
L 387.458799 135.184819 
L 380.520688 139.145954 
L 373.394565 144.055219 
L 368.616688 146.751879 
L 359.684217 152.925619 
L 356.712688 154.653322 
L 346.466802 161.796019 
L 344.808688 162.813345 
L 333.693803 170.666419 
L 332.904688 171.181829 
L 321.29866 179.536819 
L 321.000688 179.738286 
L 309.108153 188.407219 
L 309.096688 188.415726 
L 297.192688 196.952197 
L 296.747306 197.277619 
L 285.288688 202.092066 
L 284.044517 202.845982 
" style="fill:none;stroke:#482475;stroke-width:1.5;"/>
    <path clip-path="url(#p058527a71e)" d="M 238.588865 223.951428 
L 237.672687 224.214147 
L 225.768687 228.188089 
L 217.858103 232.759219 
L 213.864688 233.977227 
L 201.960688 239.684051 
L 198.661521 241.629619 
L 190.056688 244.380405 
L 179.758601 250.500019 
L 178.152687 251.027437 
L 166.248687 255.948159 
L 160.596935 259.370419 
L 154.344687 261.531089 
L 143.260804 268.240819 
L 142.440687 268.531755 
L 130.536687 272.973342 
L 123.455606 277.111219 
" style="fill:none;stroke:#482475;stroke-width:1.5;"/>
   </g>
   <g id="LineCollection_28">
    <path clip-path="url(#p058527a71e)" d="M 392.424688 147.431581 
L 384.354077 152.925619 
L 380.520688 155.077871 
L 370.74511 161.796019 
L 368.616688 163.054135 
L 357.712415 170.666419 
L 356.712688 171.294079 
L 345.104349 179.536819 
L 344.808688 179.732196 
L 332.904688 188.011106 
L 332.35699 188.407219 
L 321.000688 196.346623 
L 319.749716 197.277619 
L 309.096688 203.36224 
L 304.850497 206.148019 
L 297.892783 208.646796 
" style="fill:none;stroke:#fde725;stroke-width:1.5;"/>
    <path clip-path="url(#p058527a71e)" d="M 249.197892 231.532788 
L 247.024431 232.759219 
L 237.672687 235.579056 
L 227.024242 241.629619 
L 225.768687 242.018193 
L 213.864688 246.3499 
L 206.7126 250.500019 
L 201.960688 252.053875 
L 190.056688 258.41598 
L 188.425713 259.370419 
L 178.152687 262.815215 
L 168.925389 268.240819 
L 166.248687 269.162711 
L 154.344687 274.854516 
L 150.615496 277.111219 
" style="fill:none;stroke:#fde725;stroke-width:1.5;"/>
   </g>
   <g id="line2d_20">
    <path clip-path="url(#p058527a71e)" d="M 365.507545 49.123884 
L 361.900298 80.209629 
L 358.137613 105.816484 
L 354.706724 123.249283 
L 351.490308 135.078661 
L 348.407321 143.167772 
L 345.404847 148.814599 
L 342.473122 152.757204 
L 339.557215 155.565296 
L 336.662847 157.572822 
L 333.77293 159.032476 
L 330.850771 160.144083 
L 327.886229 161.041422 
L 324.878125 161.780868 
L 321.842501 162.360911 
L 318.805417 162.821739 
L 315.706317 163.220109 
L 312.592278 163.554298 
L 309.465812 163.818508 
L 306.343182 164.000466 
L 303.197674 164.119429 
L 300.037944 164.169006 
L 296.811356 164.177928 
L 293.52858 164.135064 
L 290.193771 164.007853 
L 286.839316 163.833535 
L 283.496719 163.610949 
L 280.116486 163.367027 
L 276.747211 163.073589 
L 273.322809 162.717297 
L 269.887288 162.302809 
L 266.425097 161.828737 
L 262.961823 161.3001 
L 259.475125 160.740252 
L 255.972685 160.12631 
L 252.392522 159.441004 
L 248.762241 158.714297 
L 245.110103 157.913519 
L 241.438419 157.024462 
L 237.793085 156.1344 
L 234.167731 155.236215 
L 230.529738 154.279838 
L 226.857854 153.253392 
L 223.195313 152.218402 
L 219.574939 151.184186 
L 215.852362 150.017891 
L 212.018583 148.706527 
L 208.285687 147.485243 
L 204.698604 146.390869 
L 201.343649 145.415496 
L 201.033364 145.331026 
L 200.739965 145.262954 
L 200.457155 145.206276 
L 200.178482 145.156318 
L 199.902995 145.109272 
L 199.631324 145.062565 
L 199.358322 145.01745 
L 199.083215 144.969479 
L 198.812091 144.919241 
L 198.540625 144.868236 
L 198.270636 144.818379 
L 198.00301 144.769793 
L 197.735367 144.720174 
L 197.467669 144.669585 
L 197.201211 144.620238 
L 196.939939 144.570903 
L 196.680878 144.525368 
L 196.421089 144.480958 
L 196.162592 144.435476 
L 195.904368 144.384833 
L 195.645605 144.332212 
L 195.3893 144.280742 
L 195.138367 144.232131 
L 194.889708 144.189675 
L 194.640832 144.14883 
L 194.615816 144.144788 
L 194.590976 144.140924 
L 194.565902 144.137009 
L 194.540689 144.133315 
L 194.515786 144.12988 
L 194.491422 144.126577 
L 194.467281 144.123017 
L 194.443 144.119426 
L 194.41851 144.115901 
L 194.39393 144.112456 
L 194.369281 144.109117 
L 194.344941 144.10585 
L 194.320759 144.102307 
L 194.296515 144.098648 
L 194.272222 144.095123 
L 194.247513 144.091456 
L 194.222789 144.08759 
L 194.198012 144.083671 
L 194.173202 144.079877 
L 194.148915 144.075928 
L 194.124373 144.071794 
L 194.099531 144.067522 
L 194.074679 144.063192 
L 194.049517 144.059127 
" style="fill:none;stroke:#1f77b4;stroke-linecap:square;stroke-width:1.5;"/>
    <defs>
     <path d="M 0 1.5 
C 0.397805 1.5 0.77937 1.341951 1.06066 1.06066 
C 1.341951 0.77937 1.5 0.397805 1.5 0 
C 1.5 -0.397805 1.341951 -0.77937 1.06066 -1.06066 
C 0.77937 -1.341951 0.397805 -1.5 0 -1.5 
C -0.397805 -1.5 -0.77937 -1.341951 -1.06066 -1.06066 
C -1.341951 -0.77937 -1.5 -0.397805 -1.5 0 
C -1.5 0.397805 -1.341951 0.77937 -1.06066 1.06066 
C -0.77937 1.341951 -0.397805 1.5 0 1.5 
z
" id="m402143e547" style="stroke:#1f77b4;"/>
    </defs>
    <g clip-path="url(#p058527a71e)">
     <use style="fill:#1f77b4;stroke:#1f77b4;" x="365.507545" xlink:href="#m402143e547" y="49.123884"/>
     <use style="fill:#1f77b4;stroke:#1f77b4;" x="361.900298" xlink:href="#m402143e547" y="80.209629"/>
     <use style="fill:#1f77b4;stroke:#1f77b4;" x="358.137613" xlink:href="#m402143e547" y="105.816484"/>
     <use style="fill:#1f77b4;stroke:#1f77b4;" x="354.706724" xlink:href="#m402143e547" y="123.249283"/>
     <use style="fill:#1f77b4;stroke:#1f77b4;" x="351.490308" xlink:href="#m402143e547" y="135.078661"/>
     <use style="fill:#1f77b4;stroke:#1f77b4;" x="348.407321" xlink:href="#m402143e547" y="143.167772"/>
     <use style="fill:#1f77b4;stroke:#1f77b4;" x="345.404847" xlink:href="#m402143e547" y="148.814599"/>
     <use style="fill:#1f77b4;stroke:#1f77b4;" x="342.473122" xlink:href="#m402143e547" y="152.757204"/>
     <use style="fill:#1f77b4;stroke:#1f77b4;" x="339.557215" xlink:href="#m402143e547" y="155.565296"/>
     <use style="fill:#1f77b4;stroke:#1f77b4;" x="336.662847" xlink:href="#m402143e547" y="157.572822"/>
     <use style="fill:#1f77b4;stroke:#1f77b4;" x="333.77293" xlink:href="#m402143e547" y="159.032476"/>
     <use style="fill:#1f77b4;stroke:#1f77b4;" x="330.850771" xlink:href="#m402143e547" y="160.144083"/>
     <use style="fill:#1f77b4;stroke:#1f77b4;" x="327.886229" xlink:href="#m402143e547" y="161.041422"/>
     <use style="fill:#1f77b4;stroke:#1f77b4;" x="324.878125" xlink:href="#m402143e547" y="161.780868"/>
     <use style="fill:#1f77b4;stroke:#1f77b4;" x="321.842501" xlink:href="#m402143e547" y="162.360911"/>
     <use style="fill:#1f77b4;stroke:#1f77b4;" x="318.805417" xlink:href="#m402143e547" y="162.821739"/>
     <use style="fill:#1f77b4;stroke:#1f77b4;" x="315.706317" xlink:href="#m402143e547" y="163.220109"/>
     <use style="fill:#1f77b4;stroke:#1f77b4;" x="312.592278" xlink:href="#m402143e547" y="163.554298"/>
     <use style="fill:#1f77b4;stroke:#1f77b4;" x="309.465812" xlink:href="#m402143e547" y="163.818508"/>
     <use style="fill:#1f77b4;stroke:#1f77b4;" x="306.343182" xlink:href="#m402143e547" y="164.000466"/>
     <use style="fill:#1f77b4;stroke:#1f77b4;" x="303.197674" xlink:href="#m402143e547" y="164.119429"/>
     <use style="fill:#1f77b4;stroke:#1f77b4;" x="300.037944" xlink:href="#m402143e547" y="164.169006"/>
     <use style="fill:#1f77b4;stroke:#1f77b4;" x="296.811356" xlink:href="#m402143e547" y="164.177928"/>
     <use style="fill:#1f77b4;stroke:#1f77b4;" x="293.52858" xlink:href="#m402143e547" y="164.135064"/>
     <use style="fill:#1f77b4;stroke:#1f77b4;" x="290.193771" xlink:href="#m402143e547" y="164.007853"/>
     <use style="fill:#1f77b4;stroke:#1f77b4;" x="286.839316" xlink:href="#m402143e547" y="163.833535"/>
     <use style="fill:#1f77b4;stroke:#1f77b4;" x="283.496719" xlink:href="#m402143e547" y="163.610949"/>
     <use style="fill:#1f77b4;stroke:#1f77b4;" x="280.116486" xlink:href="#m402143e547" y="163.367027"/>
     <use style="fill:#1f77b4;stroke:#1f77b4;" x="276.747211" xlink:href="#m402143e547" y="163.073589"/>
     <use style="fill:#1f77b4;stroke:#1f77b4;" x="273.322809" xlink:href="#m402143e547" y="162.717297"/>
     <use style="fill:#1f77b4;stroke:#1f77b4;" x="269.887288" xlink:href="#m402143e547" y="162.302809"/>
     <use style="fill:#1f77b4;stroke:#1f77b4;" x="266.425097" xlink:href="#m402143e547" y="161.828737"/>
     <use style="fill:#1f77b4;stroke:#1f77b4;" x="262.961823" xlink:href="#m402143e547" y="161.3001"/>
     <use style="fill:#1f77b4;stroke:#1f77b4;" x="259.475125" xlink:href="#m402143e547" y="160.740252"/>
     <use style="fill:#1f77b4;stroke:#1f77b4;" x="255.972685" xlink:href="#m402143e547" y="160.12631"/>
     <use style="fill:#1f77b4;stroke:#1f77b4;" x="252.392522" xlink:href="#m402143e547" y="159.441004"/>
     <use style="fill:#1f77b4;stroke:#1f77b4;" x="248.762241" xlink:href="#m402143e547" y="158.714297"/>
     <use style="fill:#1f77b4;stroke:#1f77b4;" x="245.110103" xlink:href="#m402143e547" y="157.913519"/>
     <use style="fill:#1f77b4;stroke:#1f77b4;" x="241.438419" xlink:href="#m402143e547" y="157.024462"/>
     <use style="fill:#1f77b4;stroke:#1f77b4;" x="237.793085" xlink:href="#m402143e547" y="156.1344"/>
     <use style="fill:#1f77b4;stroke:#1f77b4;" x="234.167731" xlink:href="#m402143e547" y="155.236215"/>
     <use style="fill:#1f77b4;stroke:#1f77b4;" x="230.529738" xlink:href="#m402143e547" y="154.279838"/>
     <use style="fill:#1f77b4;stroke:#1f77b4;" x="226.857854" xlink:href="#m402143e547" y="153.253392"/>
     <use style="fill:#1f77b4;stroke:#1f77b4;" x="223.195313" xlink:href="#m402143e547" y="152.218402"/>
     <use style="fill:#1f77b4;stroke:#1f77b4;" x="219.574939" xlink:href="#m402143e547" y="151.184186"/>
     <use style="fill:#1f77b4;stroke:#1f77b4;" x="215.852362" xlink:href="#m402143e547" y="150.017891"/>
     <use style="fill:#1f77b4;stroke:#1f77b4;" x="212.018583" xlink:href="#m402143e547" y="148.706527"/>
     <use style="fill:#1f77b4;stroke:#1f77b4;" x="208.285687" xlink:href="#m402143e547" y="147.485243"/>
     <use style="fill:#1f77b4;stroke:#1f77b4;" x="204.698604" xlink:href="#m402143e547" y="146.390869"/>
     <use style="fill:#1f77b4;stroke:#1f77b4;" x="201.343649" xlink:href="#m402143e547" y="145.415496"/>
     <use style="fill:#1f77b4;stroke:#1f77b4;" x="201.033364" xlink:href="#m402143e547" y="145.331026"/>
     <use style="fill:#1f77b4;stroke:#1f77b4;" x="200.739965" xlink:href="#m402143e547" y="145.262954"/>
     <use style="fill:#1f77b4;stroke:#1f77b4;" x="200.457155" xlink:href="#m402143e547" y="145.206276"/>
     <use style="fill:#1f77b4;stroke:#1f77b4;" x="200.178482" xlink:href="#m402143e547" y="145.156318"/>
     <use style="fill:#1f77b4;stroke:#1f77b4;" x="199.902995" xlink:href="#m402143e547" y="145.109272"/>
     <use style="fill:#1f77b4;stroke:#1f77b4;" x="199.631324" xlink:href="#m402143e547" y="145.062565"/>
     <use style="fill:#1f77b4;stroke:#1f77b4;" x="199.358322" xlink:href="#m402143e547" y="145.01745"/>
     <use style="fill:#1f77b4;stroke:#1f77b4;" x="199.083215" xlink:href="#m402143e547" y="144.969479"/>
     <use style="fill:#1f77b4;stroke:#1f77b4;" x="198.812091" xlink:href="#m402143e547" y="144.919241"/>
     <use style="fill:#1f77b4;stroke:#1f77b4;" x="198.540625" xlink:href="#m402143e547" y="144.868236"/>
     <use style="fill:#1f77b4;stroke:#1f77b4;" x="198.270636" xlink:href="#m402143e547" y="144.818379"/>
     <use style="fill:#1f77b4;stroke:#1f77b4;" x="198.00301" xlink:href="#m402143e547" y="144.769793"/>
     <use style="fill:#1f77b4;stroke:#1f77b4;" x="197.735367" xlink:href="#m402143e547" y="144.720174"/>
     <use style="fill:#1f77b4;stroke:#1f77b4;" x="197.467669" xlink:href="#m402143e547" y="144.669585"/>
     <use style="fill:#1f77b4;stroke:#1f77b4;" x="197.201211" xlink:href="#m402143e547" y="144.620238"/>
     <use style="fill:#1f77b4;stroke:#1f77b4;" x="196.939939" xlink:href="#m402143e547" y="144.570903"/>
     <use style="fill:#1f77b4;stroke:#1f77b4;" x="196.680878" xlink:href="#m402143e547" y="144.525368"/>
     <use style="fill:#1f77b4;stroke:#1f77b4;" x="196.421089" xlink:href="#m402143e547" y="144.480958"/>
     <use style="fill:#1f77b4;stroke:#1f77b4;" x="196.162592" xlink:href="#m402143e547" y="144.435476"/>
     <use style="fill:#1f77b4;stroke:#1f77b4;" x="195.904368" xlink:href="#m402143e547" y="144.384833"/>
     <use style="fill:#1f77b4;stroke:#1f77b4;" x="195.645605" xlink:href="#m402143e547" y="144.332212"/>
     <use style="fill:#1f77b4;stroke:#1f77b4;" x="195.3893" xlink:href="#m402143e547" y="144.280742"/>
     <use style="fill:#1f77b4;stroke:#1f77b4;" x="195.138367" xlink:href="#m402143e547" y="144.232131"/>
     <use style="fill:#1f77b4;stroke:#1f77b4;" x="194.889708" xlink:href="#m402143e547" y="144.189675"/>
     <use style="fill:#1f77b4;stroke:#1f77b4;" x="194.640832" xlink:href="#m402143e547" y="144.14883"/>
     <use style="fill:#1f77b4;stroke:#1f77b4;" x="194.615816" xlink:href="#m402143e547" y="144.144788"/>
     <use style="fill:#1f77b4;stroke:#1f77b4;" x="194.590976" xlink:href="#m402143e547" y="144.140924"/>
     <use style="fill:#1f77b4;stroke:#1f77b4;" x="194.565902" xlink:href="#m402143e547" y="144.137009"/>
     <use style="fill:#1f77b4;stroke:#1f77b4;" x="194.540689" xlink:href="#m402143e547" y="144.133315"/>
     <use style="fill:#1f77b4;stroke:#1f77b4;" x="194.515786" xlink:href="#m402143e547" y="144.12988"/>
     <use style="fill:#1f77b4;stroke:#1f77b4;" x="194.491422" xlink:href="#m402143e547" y="144.126577"/>
     <use style="fill:#1f77b4;stroke:#1f77b4;" x="194.467281" xlink:href="#m402143e547" y="144.123017"/>
     <use style="fill:#1f77b4;stroke:#1f77b4;" x="194.443" xlink:href="#m402143e547" y="144.119426"/>
     <use style="fill:#1f77b4;stroke:#1f77b4;" x="194.41851" xlink:href="#m402143e547" y="144.115901"/>
     <use style="fill:#1f77b4;stroke:#1f77b4;" x="194.39393" xlink:href="#m402143e547" y="144.112456"/>
     <use style="fill:#1f77b4;stroke:#1f77b4;" x="194.369281" xlink:href="#m402143e547" y="144.109117"/>
     <use style="fill:#1f77b4;stroke:#1f77b4;" x="194.344941" xlink:href="#m402143e547" y="144.10585"/>
     <use style="fill:#1f77b4;stroke:#1f77b4;" x="194.320759" xlink:href="#m402143e547" y="144.102307"/>
     <use style="fill:#1f77b4;stroke:#1f77b4;" x="194.296515" xlink:href="#m402143e547" y="144.098648"/>
     <use style="fill:#1f77b4;stroke:#1f77b4;" x="194.272222" xlink:href="#m402143e547" y="144.095123"/>
     <use style="fill:#1f77b4;stroke:#1f77b4;" x="194.247513" xlink:href="#m402143e547" y="144.091456"/>
     <use style="fill:#1f77b4;stroke:#1f77b4;" x="194.222789" xlink:href="#m402143e547" y="144.08759"/>
     <use style="fill:#1f77b4;stroke:#1f77b4;" x="194.198012" xlink:href="#m402143e547" y="144.083671"/>
     <use style="fill:#1f77b4;stroke:#1f77b4;" x="194.173202" xlink:href="#m402143e547" y="144.079877"/>
     <use style="fill:#1f77b4;stroke:#1f77b4;" x="194.148915" xlink:href="#m402143e547" y="144.075928"/>
     <use style="fill:#1f77b4;stroke:#1f77b4;" x="194.124373" xlink:href="#m402143e547" y="144.071794"/>
     <use style="fill:#1f77b4;stroke:#1f77b4;" x="194.099531" xlink:href="#m402143e547" y="144.067522"/>
     <use style="fill:#1f77b4;stroke:#1f77b4;" x="194.074679" xlink:href="#m402143e547" y="144.063192"/>
     <use style="fill:#1f77b4;stroke:#1f77b4;" x="194.049517" xlink:href="#m402143e547" y="144.059127"/>
    </g>
   </g>
   <g id="patch_3">
    <path d="M 35.304688 277.111219 
L 35.304688 10.999219 
" style="fill:none;stroke:#000000;stroke-linecap:square;stroke-linejoin:miter;stroke-width:0.8;"/>
   </g>
   <g id="patch_4">
    <path d="M 392.424688 277.111219 
L 392.424688 10.999219 
" style="fill:none;stroke:#000000;stroke-linecap:square;stroke-linejoin:miter;stroke-width:0.8;"/>
   </g>
   <g id="patch_5">
    <path d="M 35.304687 277.111219 
L 392.424688 277.111219 
" style="fill:none;stroke:#000000;stroke-linecap:square;stroke-linejoin:miter;stroke-width:0.8;"/>
   </g>
   <g id="patch_6">
    <path d="M 35.304687 10.999219 
L 392.424688 10.999219 
" style="fill:none;stroke:#000000;stroke-linecap:square;stroke-linejoin:miter;stroke-width:0.8;"/>
   </g>
   <g id="text_20">
    <g clip-path="url(#p058527a71e)">
     <!-- 2.500 -->
     <g style="fill:#39558c;" transform="translate(111.010017 169.476321)rotate(-18.454756)scale(0.06 -0.06)">
      <defs>
       <path d="M 10.6875 12.40625 
L 21 12.40625 
L 21 0 
L 10.6875 0 
z
" id="DejaVuSans-46"/>
      </defs>
      <use xlink:href="#DejaVuSans-50"/>
      <use x="63.623047" xlink:href="#DejaVuSans-46"/>
      <use x="95.410156" xlink:href="#DejaVuSans-53"/>
      <use x="159.033203" xlink:href="#DejaVuSans-48"/>
      <use x="222.65625" xlink:href="#DejaVuSans-48"/>
     </g>
    </g>
   </g>
   <g id="text_21">
    <g clip-path="url(#p058527a71e)">
     <!-- 3.000 -->
     <g style="fill:#33638d;" transform="translate(219.094505 147.431493)rotate(-29.353706)scale(0.06 -0.06)">
      <defs>
       <path d="M 40.578125 39.3125 
Q 47.65625 37.796875 51.625 33 
Q 55.609375 28.21875 55.609375 21.1875 
Q 55.609375 10.40625 48.1875 4.484375 
Q 40.765625 -1.421875 27.09375 -1.421875 
Q 22.515625 -1.421875 17.65625 -0.515625 
Q 12.796875 0.390625 7.625 2.203125 
L 7.625 11.71875 
Q 11.71875 9.328125 16.59375 8.109375 
Q 21.484375 6.890625 26.8125 6.890625 
Q 36.078125 6.890625 40.9375 10.546875 
Q 45.796875 14.203125 45.796875 21.1875 
Q 45.796875 27.640625 41.28125 31.265625 
Q 36.765625 34.90625 28.71875 34.90625 
L 20.21875 34.90625 
L 20.21875 43.015625 
L 29.109375 43.015625 
Q 36.375 43.015625 40.234375 45.921875 
Q 44.09375 48.828125 44.09375 54.296875 
Q 44.09375 59.90625 40.109375 62.90625 
Q 36.140625 65.921875 28.71875 65.921875 
Q 24.65625 65.921875 20.015625 65.03125 
Q 15.375 64.15625 9.8125 62.3125 
L 9.8125 71.09375 
Q 15.4375 72.65625 20.34375 73.4375 
Q 25.25 74.21875 29.59375 74.21875 
Q 40.828125 74.21875 47.359375 69.109375 
Q 53.90625 64.015625 53.90625 55.328125 
Q 53.90625 49.265625 50.4375 45.09375 
Q 46.96875 40.921875 40.578125 39.3125 
z
" id="DejaVuSans-51"/>
      </defs>
      <use xlink:href="#DejaVuSans-51"/>
      <use x="63.623047" xlink:href="#DejaVuSans-46"/>
      <use x="95.410156" xlink:href="#DejaVuSans-48"/>
      <use x="159.033203" xlink:href="#DejaVuSans-48"/>
      <use x="222.65625" xlink:href="#DejaVuSans-48"/>
     </g>
    </g>
   </g>
   <g id="text_22">
    <g clip-path="url(#p058527a71e)">
     <!-- 3.500 -->
     <g style="fill:#2d718e;" transform="translate(187.63344 167.295111)rotate(-28.044088)scale(0.06 -0.06)">
      <use xlink:href="#DejaVuSans-51"/>
      <use x="63.623047" xlink:href="#DejaVuSans-46"/>
      <use x="95.410156" xlink:href="#DejaVuSans-53"/>
      <use x="159.033203" xlink:href="#DejaVuSans-48"/>
      <use x="222.65625" xlink:href="#DejaVuSans-48"/>
     </g>
    </g>
   </g>
   <g id="text_23">
    <g clip-path="url(#p058527a71e)">
     <!-- 4.000 -->
     <g style="fill:#287d8e;" transform="translate(288.507544 22.835577)rotate(-342.294747)scale(0.06 -0.06)">
      <defs>
       <path d="M 37.796875 64.3125 
L 12.890625 25.390625 
L 37.796875 25.390625 
z
M 35.203125 72.90625 
L 47.609375 72.90625 
L 47.609375 25.390625 
L 58.015625 25.390625 
L 58.015625 17.1875 
L 47.609375 17.1875 
L 47.609375 0 
L 37.796875 0 
L 37.796875 17.1875 
L 4.890625 17.1875 
L 4.890625 26.703125 
z
" id="DejaVuSans-52"/>
      </defs>
      <use xlink:href="#DejaVuSans-52"/>
      <use x="63.623047" xlink:href="#DejaVuSans-46"/>
      <use x="95.410156" xlink:href="#DejaVuSans-48"/>
      <use x="159.033203" xlink:href="#DejaVuSans-48"/>
      <use x="222.65625" xlink:href="#DejaVuSans-48"/>
     </g>
    </g>
   </g>
   <g id="text_24">
    <g clip-path="url(#p058527a71e)">
     <!-- 4.500 -->
     <g style="fill:#238a8d;" transform="translate(327.078597 29.122407)rotate(-300.855547)scale(0.06 -0.06)">
      <use xlink:href="#DejaVuSans-52"/>
      <use x="63.623047" xlink:href="#DejaVuSans-46"/>
      <use x="95.410156" xlink:href="#DejaVuSans-53"/>
      <use x="159.033203" xlink:href="#DejaVuSans-48"/>
      <use x="222.65625" xlink:href="#DejaVuSans-48"/>
     </g>
    </g>
   </g>
   <g id="text_25">
    <g clip-path="url(#p058527a71e)">
     <!-- 5.000 -->
     <g style="fill:#1f968b;" transform="translate(159.237658 185.151326)rotate(-25.807911)scale(0.06 -0.06)">
      <use xlink:href="#DejaVuSans-53"/>
      <use x="63.623047" xlink:href="#DejaVuSans-46"/>
      <use x="95.410156" xlink:href="#DejaVuSans-48"/>
      <use x="159.033203" xlink:href="#DejaVuSans-48"/>
      <use x="222.65625" xlink:href="#DejaVuSans-48"/>
     </g>
    </g>
   </g>
   <g id="text_26">
    <g clip-path="url(#p058527a71e)">
     <!-- 5.500 -->
     <g style="fill:#20a386;" transform="translate(330.483392 75.962044)rotate(-63.017731)scale(0.06 -0.06)">
      <use xlink:href="#DejaVuSans-53"/>
      <use x="63.623047" xlink:href="#DejaVuSans-46"/>
      <use x="95.410156" xlink:href="#DejaVuSans-53"/>
      <use x="159.033203" xlink:href="#DejaVuSans-48"/>
      <use x="222.65625" xlink:href="#DejaVuSans-48"/>
     </g>
    </g>
   </g>
   <g id="text_27">
    <g clip-path="url(#p058527a71e)">
     <!-- 6.000 -->
     <g style="fill:#29af7f;" transform="translate(147.234752 192.608365)rotate(-24.710114)scale(0.06 -0.06)">
      <defs>
       <path d="M 33.015625 40.375 
Q 26.375 40.375 22.484375 35.828125 
Q 18.609375 31.296875 18.609375 23.390625 
Q 18.609375 15.53125 22.484375 10.953125 
Q 26.375 6.390625 33.015625 6.390625 
Q 39.65625 6.390625 43.53125 10.953125 
Q 47.40625 15.53125 47.40625 23.390625 
Q 47.40625 31.296875 43.53125 35.828125 
Q 39.65625 40.375 33.015625 40.375 
z
M 52.59375 71.296875 
L 52.59375 62.3125 
Q 48.875 64.0625 45.09375 64.984375 
Q 41.3125 65.921875 37.59375 65.921875 
Q 27.828125 65.921875 22.671875 59.328125 
Q 17.53125 52.734375 16.796875 39.40625 
Q 19.671875 43.65625 24.015625 45.921875 
Q 28.375 48.1875 33.59375 48.1875 
Q 44.578125 48.1875 50.953125 41.515625 
Q 57.328125 34.859375 57.328125 23.390625 
Q 57.328125 12.15625 50.6875 5.359375 
Q 44.046875 -1.421875 33.015625 -1.421875 
Q 20.359375 -1.421875 13.671875 8.265625 
Q 6.984375 17.96875 6.984375 36.375 
Q 6.984375 53.65625 15.1875 63.9375 
Q 23.390625 74.21875 37.203125 74.21875 
Q 40.921875 74.21875 44.703125 73.484375 
Q 48.484375 72.75 52.59375 71.296875 
z
" id="DejaVuSans-54"/>
      </defs>
      <use xlink:href="#DejaVuSans-54"/>
      <use x="63.623047" xlink:href="#DejaVuSans-46"/>
      <use x="95.410156" xlink:href="#DejaVuSans-48"/>
      <use x="159.033203" xlink:href="#DejaVuSans-48"/>
      <use x="222.65625" xlink:href="#DejaVuSans-48"/>
     </g>
    </g>
   </g>
   <g id="text_28">
    <g clip-path="url(#p058527a71e)">
     <!-- 6.500 -->
     <g style="fill:#3dbc74;" transform="translate(309.562471 97.582231)rotate(-39.592331)scale(0.06 -0.06)">
      <use xlink:href="#DejaVuSans-54"/>
      <use x="63.623047" xlink:href="#DejaVuSans-46"/>
      <use x="95.410156" xlink:href="#DejaVuSans-53"/>
      <use x="159.033203" xlink:href="#DejaVuSans-48"/>
      <use x="222.65625" xlink:href="#DejaVuSans-48"/>
     </g>
    </g>
   </g>
   <g id="text_29">
    <g clip-path="url(#p058527a71e)">
     <!-- 7.000 -->
     <g style="fill:#56c667;" transform="translate(159.384099 187.189682)rotate(-27.38352)scale(0.06 -0.06)">
      <defs>
       <path d="M 8.203125 72.90625 
L 55.078125 72.90625 
L 55.078125 68.703125 
L 28.609375 0 
L 18.3125 0 
L 43.21875 64.59375 
L 8.203125 64.59375 
z
" id="DejaVuSans-55"/>
      </defs>
      <use xlink:href="#DejaVuSans-55"/>
      <use x="63.623047" xlink:href="#DejaVuSans-46"/>
      <use x="95.410156" xlink:href="#DejaVuSans-48"/>
      <use x="159.033203" xlink:href="#DejaVuSans-48"/>
      <use x="222.65625" xlink:href="#DejaVuSans-48"/>
     </g>
    </g>
   </g>
   <g id="text_30">
    <g clip-path="url(#p058527a71e)">
     <!-- 7.500 -->
     <g style="fill:#75d054;" transform="translate(149.217029 193.747396)rotate(-26.717706)scale(0.06 -0.06)">
      <use xlink:href="#DejaVuSans-55"/>
      <use x="63.623047" xlink:href="#DejaVuSans-46"/>
      <use x="95.410156" xlink:href="#DejaVuSans-53"/>
      <use x="159.033203" xlink:href="#DejaVuSans-48"/>
      <use x="222.65625" xlink:href="#DejaVuSans-48"/>
     </g>
    </g>
   </g>
   <g id="text_31">
    <g clip-path="url(#p058527a71e)">
     <!-- 8.000 -->
     <g style="fill:#95d840;" transform="translate(150.026389 193.816287)rotate(-27.289731)scale(0.06 -0.06)">
      <defs>
       <path d="M 31.78125 34.625 
Q 24.75 34.625 20.71875 30.859375 
Q 16.703125 27.09375 16.703125 20.515625 
Q 16.703125 13.921875 20.71875 10.15625 
Q 24.75 6.390625 31.78125 6.390625 
Q 38.8125 6.390625 42.859375 10.171875 
Q 46.921875 13.96875 46.921875 20.515625 
Q 46.921875 27.09375 42.890625 30.859375 
Q 38.875 34.625 31.78125 34.625 
z
M 21.921875 38.8125 
Q 15.578125 40.375 12.03125 44.71875 
Q 8.5 49.078125 8.5 55.328125 
Q 8.5 64.0625 14.71875 69.140625 
Q 20.953125 74.21875 31.78125 74.21875 
Q 42.671875 74.21875 48.875 69.140625 
Q 55.078125 64.0625 55.078125 55.328125 
Q 55.078125 49.078125 51.53125 44.71875 
Q 48 40.375 41.703125 38.8125 
Q 48.828125 37.15625 52.796875 32.3125 
Q 56.78125 27.484375 56.78125 20.515625 
Q 56.78125 9.90625 50.3125 4.234375 
Q 43.84375 -1.421875 31.78125 -1.421875 
Q 19.734375 -1.421875 13.25 4.234375 
Q 6.78125 9.90625 6.78125 20.515625 
Q 6.78125 27.484375 10.78125 32.3125 
Q 14.796875 37.15625 21.921875 38.8125 
z
M 18.3125 54.390625 
Q 18.3125 48.734375 21.84375 45.5625 
Q 25.390625 42.390625 31.78125 42.390625 
Q 38.140625 42.390625 41.71875 45.5625 
Q 45.3125 48.734375 45.3125 54.390625 
Q 45.3125 60.0625 41.71875 63.234375 
Q 38.140625 66.40625 31.78125 66.40625 
Q 25.390625 66.40625 21.84375 63.234375 
Q 18.3125 60.0625 18.3125 54.390625 
z
" id="DejaVuSans-56"/>
      </defs>
      <use xlink:href="#DejaVuSans-56"/>
      <use x="63.623047" xlink:href="#DejaVuSans-46"/>
      <use x="95.410156" xlink:href="#DejaVuSans-48"/>
      <use x="159.033203" xlink:href="#DejaVuSans-48"/>
      <use x="222.65625" xlink:href="#DejaVuSans-48"/>
     </g>
    </g>
   </g>
   <g id="text_32">
    <g clip-path="url(#p058527a71e)">
     <!-- 8.500 -->
     <g style="fill:#bade28;" transform="translate(150.817535 193.861026)rotate(-27.66363)scale(0.06 -0.06)">
      <use xlink:href="#DejaVuSans-56"/>
      <use x="63.623047" xlink:href="#DejaVuSans-46"/>
      <use x="95.410156" xlink:href="#DejaVuSans-53"/>
      <use x="159.033203" xlink:href="#DejaVuSans-48"/>
      <use x="222.65625" xlink:href="#DejaVuSans-48"/>
     </g>
    </g>
   </g>
   <g id="text_33">
    <g clip-path="url(#p058527a71e)">
     <!-- 9.000 -->
     <g style="fill:#dde318;" transform="translate(151.590716 193.882869)rotate(-27.846888)scale(0.06 -0.06)">
      <defs>
       <path d="M 10.984375 1.515625 
L 10.984375 10.5 
Q 14.703125 8.734375 18.5 7.8125 
Q 22.3125 6.890625 25.984375 6.890625 
Q 35.75 6.890625 40.890625 13.453125 
Q 46.046875 20.015625 46.78125 33.40625 
Q 43.953125 29.203125 39.59375 26.953125 
Q 35.25 24.703125 29.984375 24.703125 
Q 19.046875 24.703125 12.671875 31.3125 
Q 6.296875 37.9375 6.296875 49.421875 
Q 6.296875 60.640625 12.9375 67.421875 
Q 19.578125 74.21875 30.609375 74.21875 
Q 43.265625 74.21875 49.921875 64.515625 
Q 56.59375 54.828125 56.59375 36.375 
Q 56.59375 19.140625 48.40625 8.859375 
Q 40.234375 -1.421875 26.421875 -1.421875 
Q 22.703125 -1.421875 18.890625 -0.6875 
Q 15.09375 0.046875 10.984375 1.515625 
z
M 30.609375 32.421875 
Q 37.25 32.421875 41.125 36.953125 
Q 45.015625 41.5 45.015625 49.421875 
Q 45.015625 57.28125 41.125 61.84375 
Q 37.25 66.40625 30.609375 66.40625 
Q 23.96875 66.40625 20.09375 61.84375 
Q 16.21875 57.28125 16.21875 49.421875 
Q 16.21875 41.5 20.09375 36.953125 
Q 23.96875 32.421875 30.609375 32.421875 
z
" id="DejaVuSans-57"/>
      </defs>
      <use xlink:href="#DejaVuSans-57"/>
      <use x="63.623047" xlink:href="#DejaVuSans-46"/>
      <use x="95.410156" xlink:href="#DejaVuSans-48"/>
      <use x="159.033203" xlink:href="#DejaVuSans-48"/>
      <use x="222.65625" xlink:href="#DejaVuSans-48"/>
     </g>
    </g>
   </g>
   <g id="text_34">
    <g clip-path="url(#p058527a71e)">
     <!-- 9.500 -->
     <g style="fill:#fde725;" transform="translate(152.306396 193.832641)rotate(-27.426188)scale(0.06 -0.06)">
      <use xlink:href="#DejaVuSans-57"/>
      <use x="63.623047" xlink:href="#DejaVuSans-46"/>
      <use x="95.410156" xlink:href="#DejaVuSans-53"/>
      <use x="159.033203" xlink:href="#DejaVuSans-48"/>
      <use x="222.65625" xlink:href="#DejaVuSans-48"/>
     </g>
    </g>
   </g>
   <g id="text_35">
    <g clip-path="url(#p058527a71e)">
     <!-- 10.000 -->
     <g style="fill:#440154;" transform="translate(301.355926 106.74453)rotate(-32.534809)scale(0.06 -0.06)">
      <use xlink:href="#DejaVuSans-49"/>
      <use x="63.623047" xlink:href="#DejaVuSans-48"/>
      <use x="127.246094" xlink:href="#DejaVuSans-46"/>
      <use x="159.033203" xlink:href="#DejaVuSans-48"/>
      <use x="222.65625" xlink:href="#DejaVuSans-48"/>
      <use x="286.279297" xlink:href="#DejaVuSans-48"/>
     </g>
    </g>
   </g>
   <g id="text_36">
    <g clip-path="url(#p058527a71e)">
     <!-- 100.000 -->
     <g style="fill:#440154;" transform="translate(59.595123 237.199377)rotate(-16.536637)scale(0.06 -0.06)">
      <use xlink:href="#DejaVuSans-49"/>
      <use x="63.623047" xlink:href="#DejaVuSans-48"/>
      <use x="127.246094" xlink:href="#DejaVuSans-48"/>
      <use x="190.869141" xlink:href="#DejaVuSans-46"/>
      <use x="222.65625" xlink:href="#DejaVuSans-48"/>
      <use x="286.279297" xlink:href="#DejaVuSans-48"/>
      <use x="349.902344" xlink:href="#DejaVuSans-48"/>
     </g>
    </g>
   </g>
   <g id="text_37">
    <g clip-path="url(#p058527a71e)">
     <!-- 1000.000 -->
     <g style="fill:#440154;" transform="translate(262.352412 161.15035)rotate(-33.442797)scale(0.06 -0.06)">
      <use xlink:href="#DejaVuSans-49"/>
      <use x="63.623047" xlink:href="#DejaVuSans-48"/>
      <use x="127.246094" xlink:href="#DejaVuSans-48"/>
      <use x="190.869141" xlink:href="#DejaVuSans-48"/>
      <use x="254.492188" xlink:href="#DejaVuSans-46"/>
      <use x="286.279297" xlink:href="#DejaVuSans-48"/>
      <use x="349.902344" xlink:href="#DejaVuSans-48"/>
      <use x="413.525391" xlink:href="#DejaVuSans-48"/>
     </g>
    </g>
   </g>
   <g id="text_38">
    <g clip-path="url(#p058527a71e)">
     <!-- 10000.000 -->
     <g style="fill:#440154;" transform="translate(236.983475 193.702702)rotate(-33.618937)scale(0.06 -0.06)">
      <use xlink:href="#DejaVuSans-49"/>
      <use x="63.623047" xlink:href="#DejaVuSans-48"/>
      <use x="127.246094" xlink:href="#DejaVuSans-48"/>
      <use x="190.869141" xlink:href="#DejaVuSans-48"/>
      <use x="254.492188" xlink:href="#DejaVuSans-48"/>
      <use x="318.115234" xlink:href="#DejaVuSans-46"/>
      <use x="349.902344" xlink:href="#DejaVuSans-48"/>
      <use x="413.525391" xlink:href="#DejaVuSans-48"/>
      <use x="477.148438" xlink:href="#DejaVuSans-48"/>
     </g>
    </g>
   </g>
   <g id="text_39">
    <g clip-path="url(#p058527a71e)">
     <!-- 100000.000 -->
     <g style="fill:#440154;" transform="translate(221.809442 208.813786)rotate(-24.179549)scale(0.06 -0.06)">
      <use xlink:href="#DejaVuSans-49"/>
      <use x="63.623047" xlink:href="#DejaVuSans-48"/>
      <use x="127.246094" xlink:href="#DejaVuSans-48"/>
      <use x="190.869141" xlink:href="#DejaVuSans-48"/>
      <use x="254.492188" xlink:href="#DejaVuSans-48"/>
      <use x="318.115234" xlink:href="#DejaVuSans-48"/>
      <use x="381.738281" xlink:href="#DejaVuSans-46"/>
      <use x="413.525391" xlink:href="#DejaVuSans-48"/>
      <use x="477.148438" xlink:href="#DejaVuSans-48"/>
      <use x="540.771484" xlink:href="#DejaVuSans-48"/>
     </g>
    </g>
   </g>
   <g id="text_40">
    <g clip-path="url(#p058527a71e)">
     <!-- 1000000.000 -->
     <g style="fill:#450457;" transform="translate(234.330237 215.416063)rotate(-22.721664)scale(0.06 -0.06)">
      <use xlink:href="#DejaVuSans-49"/>
      <use x="63.623047" xlink:href="#DejaVuSans-48"/>
      <use x="127.246094" xlink:href="#DejaVuSans-48"/>
      <use x="190.869141" xlink:href="#DejaVuSans-48"/>
      <use x="254.492188" xlink:href="#DejaVuSans-48"/>
      <use x="318.115234" xlink:href="#DejaVuSans-48"/>
      <use x="381.738281" xlink:href="#DejaVuSans-48"/>
      <use x="445.361328" xlink:href="#DejaVuSans-46"/>
      <use x="477.148438" xlink:href="#DejaVuSans-48"/>
      <use x="540.771484" xlink:href="#DejaVuSans-48"/>
      <use x="604.394531" xlink:href="#DejaVuSans-48"/>
     </g>
    </g>
   </g>
   <g id="text_41">
    <g clip-path="url(#p058527a71e)">
     <!-- 10000000.000 -->
     <g style="fill:#482475;" transform="translate(242.114242 224.299248)rotate(-24.066818)scale(0.06 -0.06)">
      <use xlink:href="#DejaVuSans-49"/>
      <use x="63.623047" xlink:href="#DejaVuSans-48"/>
      <use x="127.246094" xlink:href="#DejaVuSans-48"/>
      <use x="190.869141" xlink:href="#DejaVuSans-48"/>
      <use x="254.492188" xlink:href="#DejaVuSans-48"/>
      <use x="318.115234" xlink:href="#DejaVuSans-48"/>
      <use x="381.738281" xlink:href="#DejaVuSans-48"/>
      <use x="445.361328" xlink:href="#DejaVuSans-48"/>
      <use x="508.984375" xlink:href="#DejaVuSans-46"/>
      <use x="540.771484" xlink:href="#DejaVuSans-48"/>
      <use x="604.394531" xlink:href="#DejaVuSans-48"/>
      <use x="668.017578" xlink:href="#DejaVuSans-48"/>
     </g>
    </g>
   </g>
   <g id="text_42">
    <g clip-path="url(#p058527a71e)">
     <!-- 100000000.000 -->
     <g style="fill:#fde725;" transform="translate(252.427709 231.227608)rotate(-24.833425)scale(0.06 -0.06)">
      <use xlink:href="#DejaVuSans-49"/>
      <use x="63.623047" xlink:href="#DejaVuSans-48"/>
      <use x="127.246094" xlink:href="#DejaVuSans-48"/>
      <use x="190.869141" xlink:href="#DejaVuSans-48"/>
      <use x="254.492188" xlink:href="#DejaVuSans-48"/>
      <use x="318.115234" xlink:href="#DejaVuSans-48"/>
      <use x="381.738281" xlink:href="#DejaVuSans-48"/>
      <use x="445.361328" xlink:href="#DejaVuSans-48"/>
      <use x="508.984375" xlink:href="#DejaVuSans-48"/>
      <use x="572.607422" xlink:href="#DejaVuSans-46"/>
      <use x="604.394531" xlink:href="#DejaVuSans-48"/>
      <use x="668.017578" xlink:href="#DejaVuSans-48"/>
      <use x="731.640625" xlink:href="#DejaVuSans-48"/>
     </g>
    </g>
   </g>
  </g>
 </g>
 <defs>
  <clipPath id="p058527a71e">
   <rect height="266.112" width="357.12" x="35.304688" y="10.999219"/>
  </clipPath>
 </defs>
</svg>
