<?xml version="1.0" encoding="utf-8" standalone="no"?>
<!DOCTYPE svg PUBLIC "-//W3C//DTD SVG 1.1//EN"
  "http://www.w3.org/Graphics/SVG/1.1/DTD/svg11.dtd">
<!-- Created with matplotlib (https://matplotlib.org/) -->
<svg height="300.989344pt" version="1.1" viewBox="0 0 405.987188 300.989344" width="405.987188pt" xmlns="http://www.w3.org/2000/svg" xmlns:xlink="http://www.w3.org/1999/xlink">
 <metadata>
  <rdf:RDF xmlns:cc="http://creativecommons.org/ns#" xmlns:dc="http://purl.org/dc/elements/1.1/" xmlns:rdf="http://www.w3.org/1999/02/22-rdf-syntax-ns#">
   <cc:Work>
    <dc:type rdf:resource="http://purl.org/dc/dcmitype/StillImage"/>
    <dc:date>2021-09-23T00:07:31.830817</dc:date>
    <dc:format>image/svg+xml</dc:format>
    <dc:creator>
     <cc:Agent>
      <dc:title>Matplotlib v3.3.1, https://matplotlib.org/</dc:title>
     </cc:Agent>
    </dc:creator>
   </cc:Work>
  </rdf:RDF>
 </metadata>
 <defs>
  <style type="text/css">*{stroke-linecap:butt;stroke-linejoin:round;}</style>
 </defs>
 <g id="figure_1">
  <g id="patch_1">
   <path d="M 0 300.989344 
L 405.987188 300.989344 
L 405.987188 0 
L 0 0 
z
" style="fill:#ffffff;"/>
  </g>
  <g id="axes_1">
   <g id="patch_2">
    <path d="M 35.304688 277.111219 
L 392.424688 277.111219 
L 392.424688 10.999219 
L 35.304688 10.999219 
z
" style="fill:#ffffff;"/>
   </g>
   <g id="matplotlib.axis_1">
    <g id="xtick_1">
     <g id="line2d_1">
      <defs>
       <path d="M 0 0 
L 0 3.5 
" id="m5a52fe7f9a" style="stroke:#000000;stroke-width:0.8;"/>
      </defs>
      <g>
       <use style="stroke:#000000;stroke-width:0.8;" x="35.304687" xlink:href="#m5a52fe7f9a" y="277.111219"/>
      </g>
     </g>
     <g id="text_1">
      <!-- −20 -->
      <g transform="translate(24.752344 291.709656)scale(0.1 -0.1)">
       <defs>
        <path d="M 10.59375 35.5 
L 73.1875 35.5 
L 73.1875 27.203125 
L 10.59375 27.203125 
z
" id="DejaVuSans-8722"/>
        <path d="M 19.1875 8.296875 
L 53.609375 8.296875 
L 53.609375 0 
L 7.328125 0 
L 7.328125 8.296875 
Q 12.9375 14.109375 22.625 23.890625 
Q 32.328125 33.6875 34.8125 36.53125 
Q 39.546875 41.84375 41.421875 45.53125 
Q 43.3125 49.21875 43.3125 52.78125 
Q 43.3125 58.59375 39.234375 62.25 
Q 35.15625 65.921875 28.609375 65.921875 
Q 23.96875 65.921875 18.8125 64.3125 
Q 13.671875 62.703125 7.8125 59.421875 
L 7.8125 69.390625 
Q 13.765625 71.78125 18.9375 73 
Q 24.125 74.21875 28.421875 74.21875 
Q 39.75 74.21875 46.484375 68.546875 
Q 53.21875 62.890625 53.21875 53.421875 
Q 53.21875 48.921875 51.53125 44.890625 
Q 49.859375 40.875 45.40625 35.40625 
Q 44.1875 33.984375 37.640625 27.21875 
Q 31.109375 20.453125 19.1875 8.296875 
z
" id="DejaVuSans-50"/>
        <path d="M 31.78125 66.40625 
Q 24.171875 66.40625 20.328125 58.90625 
Q 16.5 51.421875 16.5 36.375 
Q 16.5 21.390625 20.328125 13.890625 
Q 24.171875 6.390625 31.78125 6.390625 
Q 39.453125 6.390625 43.28125 13.890625 
Q 47.125 21.390625 47.125 36.375 
Q 47.125 51.421875 43.28125 58.90625 
Q 39.453125 66.40625 31.78125 66.40625 
z
M 31.78125 74.21875 
Q 44.046875 74.21875 50.515625 64.515625 
Q 56.984375 54.828125 56.984375 36.375 
Q 56.984375 17.96875 50.515625 8.265625 
Q 44.046875 -1.421875 31.78125 -1.421875 
Q 19.53125 -1.421875 13.0625 8.265625 
Q 6.59375 17.96875 6.59375 36.375 
Q 6.59375 54.828125 13.0625 64.515625 
Q 19.53125 74.21875 31.78125 74.21875 
z
" id="DejaVuSans-48"/>
       </defs>
       <use xlink:href="#DejaVuSans-8722"/>
       <use x="83.789062" xlink:href="#DejaVuSans-50"/>
       <use x="147.412109" xlink:href="#DejaVuSans-48"/>
      </g>
     </g>
    </g>
    <g id="xtick_2">
     <g id="line2d_2">
      <g>
       <use style="stroke:#000000;stroke-width:0.8;" x="74.984687" xlink:href="#m5a52fe7f9a" y="277.111219"/>
      </g>
     </g>
     <g id="text_2">
      <!-- −15 -->
      <g transform="translate(64.432344 291.709656)scale(0.1 -0.1)">
       <defs>
        <path d="M 12.40625 8.296875 
L 28.515625 8.296875 
L 28.515625 63.921875 
L 10.984375 60.40625 
L 10.984375 69.390625 
L 28.421875 72.90625 
L 38.28125 72.90625 
L 38.28125 8.296875 
L 54.390625 8.296875 
L 54.390625 0 
L 12.40625 0 
z
" id="DejaVuSans-49"/>
        <path d="M 10.796875 72.90625 
L 49.515625 72.90625 
L 49.515625 64.59375 
L 19.828125 64.59375 
L 19.828125 46.734375 
Q 21.96875 47.46875 24.109375 47.828125 
Q 26.265625 48.1875 28.421875 48.1875 
Q 40.625 48.1875 47.75 41.5 
Q 54.890625 34.8125 54.890625 23.390625 
Q 54.890625 11.625 47.5625 5.09375 
Q 40.234375 -1.421875 26.90625 -1.421875 
Q 22.3125 -1.421875 17.546875 -0.640625 
Q 12.796875 0.140625 7.71875 1.703125 
L 7.71875 11.625 
Q 12.109375 9.234375 16.796875 8.0625 
Q 21.484375 6.890625 26.703125 6.890625 
Q 35.15625 6.890625 40.078125 11.328125 
Q 45.015625 15.765625 45.015625 23.390625 
Q 45.015625 31 40.078125 35.4375 
Q 35.15625 39.890625 26.703125 39.890625 
Q 22.75 39.890625 18.8125 39.015625 
Q 14.890625 38.140625 10.796875 36.28125 
z
" id="DejaVuSans-53"/>
       </defs>
       <use xlink:href="#DejaVuSans-8722"/>
       <use x="83.789062" xlink:href="#DejaVuSans-49"/>
       <use x="147.412109" xlink:href="#DejaVuSans-53"/>
      </g>
     </g>
    </g>
    <g id="xtick_3">
     <g id="line2d_3">
      <g>
       <use style="stroke:#000000;stroke-width:0.8;" x="114.664687" xlink:href="#m5a52fe7f9a" y="277.111219"/>
      </g>
     </g>
     <g id="text_3">
      <!-- −10 -->
      <g transform="translate(104.112344 291.709656)scale(0.1 -0.1)">
       <use xlink:href="#DejaVuSans-8722"/>
       <use x="83.789062" xlink:href="#DejaVuSans-49"/>
       <use x="147.412109" xlink:href="#DejaVuSans-48"/>
      </g>
     </g>
    </g>
    <g id="xtick_4">
     <g id="line2d_4">
      <g>
       <use style="stroke:#000000;stroke-width:0.8;" x="154.344687" xlink:href="#m5a52fe7f9a" y="277.111219"/>
      </g>
     </g>
     <g id="text_4">
      <!-- −5 -->
      <g transform="translate(146.973594 291.709656)scale(0.1 -0.1)">
       <use xlink:href="#DejaVuSans-8722"/>
       <use x="83.789062" xlink:href="#DejaVuSans-53"/>
      </g>
     </g>
    </g>
    <g id="xtick_5">
     <g id="line2d_5">
      <g>
       <use style="stroke:#000000;stroke-width:0.8;" x="194.024687" xlink:href="#m5a52fe7f9a" y="277.111219"/>
      </g>
     </g>
     <g id="text_5">
      <!-- 0 -->
      <g transform="translate(190.843437 291.709656)scale(0.1 -0.1)">
       <use xlink:href="#DejaVuSans-48"/>
      </g>
     </g>
    </g>
    <g id="xtick_6">
     <g id="line2d_6">
      <g>
       <use style="stroke:#000000;stroke-width:0.8;" x="233.704688" xlink:href="#m5a52fe7f9a" y="277.111219"/>
      </g>
     </g>
     <g id="text_6">
      <!-- 5 -->
      <g transform="translate(230.523438 291.709656)scale(0.1 -0.1)">
       <use xlink:href="#DejaVuSans-53"/>
      </g>
     </g>
    </g>
    <g id="xtick_7">
     <g id="line2d_7">
      <g>
       <use style="stroke:#000000;stroke-width:0.8;" x="273.384688" xlink:href="#m5a52fe7f9a" y="277.111219"/>
      </g>
     </g>
     <g id="text_7">
      <!-- 10 -->
      <g transform="translate(267.022188 291.709656)scale(0.1 -0.1)">
       <use xlink:href="#DejaVuSans-49"/>
       <use x="63.623047" xlink:href="#DejaVuSans-48"/>
      </g>
     </g>
    </g>
    <g id="xtick_8">
     <g id="line2d_8">
      <g>
       <use style="stroke:#000000;stroke-width:0.8;" x="313.064687" xlink:href="#m5a52fe7f9a" y="277.111219"/>
      </g>
     </g>
     <g id="text_8">
      <!-- 15 -->
      <g transform="translate(306.702187 291.709656)scale(0.1 -0.1)">
       <use xlink:href="#DejaVuSans-49"/>
       <use x="63.623047" xlink:href="#DejaVuSans-53"/>
      </g>
     </g>
    </g>
    <g id="xtick_9">
     <g id="line2d_9">
      <g>
       <use style="stroke:#000000;stroke-width:0.8;" x="352.744688" xlink:href="#m5a52fe7f9a" y="277.111219"/>
      </g>
     </g>
     <g id="text_9">
      <!-- 20 -->
      <g transform="translate(346.382188 291.709656)scale(0.1 -0.1)">
       <use xlink:href="#DejaVuSans-50"/>
       <use x="63.623047" xlink:href="#DejaVuSans-48"/>
      </g>
     </g>
    </g>
    <g id="xtick_10">
     <g id="line2d_10">
      <g>
       <use style="stroke:#000000;stroke-width:0.8;" x="392.424688" xlink:href="#m5a52fe7f9a" y="277.111219"/>
      </g>
     </g>
     <g id="text_10">
      <!-- 25 -->
      <g transform="translate(386.062187 291.709656)scale(0.1 -0.1)">
       <use xlink:href="#DejaVuSans-50"/>
       <use x="63.623047" xlink:href="#DejaVuSans-53"/>
      </g>
     </g>
    </g>
   </g>
   <g id="matplotlib.axis_2">
    <g id="ytick_1">
     <g id="line2d_11">
      <defs>
       <path d="M 0 0 
L -3.5 0 
" id="m3ffb18d388" style="stroke:#000000;stroke-width:0.8;"/>
      </defs>
      <g>
       <use style="stroke:#000000;stroke-width:0.8;" x="35.304688" xlink:href="#m3ffb18d388" y="277.111219"/>
      </g>
     </g>
     <g id="text_11">
      <!-- −20 -->
      <g transform="translate(7.2 280.910437)scale(0.1 -0.1)">
       <use xlink:href="#DejaVuSans-8722"/>
       <use x="83.789062" xlink:href="#DejaVuSans-50"/>
       <use x="147.412109" xlink:href="#DejaVuSans-48"/>
      </g>
     </g>
    </g>
    <g id="ytick_2">
     <g id="line2d_12">
      <g>
       <use style="stroke:#000000;stroke-width:0.8;" x="35.304688" xlink:href="#m3ffb18d388" y="243.847219"/>
      </g>
     </g>
     <g id="text_12">
      <!-- −15 -->
      <g transform="translate(7.2 247.646437)scale(0.1 -0.1)">
       <use xlink:href="#DejaVuSans-8722"/>
       <use x="83.789062" xlink:href="#DejaVuSans-49"/>
       <use x="147.412109" xlink:href="#DejaVuSans-53"/>
      </g>
     </g>
    </g>
    <g id="ytick_3">
     <g id="line2d_13">
      <g>
       <use style="stroke:#000000;stroke-width:0.8;" x="35.304688" xlink:href="#m3ffb18d388" y="210.583219"/>
      </g>
     </g>
     <g id="text_13">
      <!-- −10 -->
      <g transform="translate(7.2 214.382437)scale(0.1 -0.1)">
       <use xlink:href="#DejaVuSans-8722"/>
       <use x="83.789062" xlink:href="#DejaVuSans-49"/>
       <use x="147.412109" xlink:href="#DejaVuSans-48"/>
      </g>
     </g>
    </g>
    <g id="ytick_4">
     <g id="line2d_14">
      <g>
       <use style="stroke:#000000;stroke-width:0.8;" x="35.304688" xlink:href="#m3ffb18d388" y="177.319219"/>
      </g>
     </g>
     <g id="text_14">
      <!-- −5 -->
      <g transform="translate(13.5625 181.118437)scale(0.1 -0.1)">
       <use xlink:href="#DejaVuSans-8722"/>
       <use x="83.789062" xlink:href="#DejaVuSans-53"/>
      </g>
     </g>
    </g>
    <g id="ytick_5">
     <g id="line2d_15">
      <g>
       <use style="stroke:#000000;stroke-width:0.8;" x="35.304688" xlink:href="#m3ffb18d388" y="144.055219"/>
      </g>
     </g>
     <g id="text_15">
      <!-- 0 -->
      <g transform="translate(21.942187 147.854437)scale(0.1 -0.1)">
       <use xlink:href="#DejaVuSans-48"/>
      </g>
     </g>
    </g>
    <g id="ytick_6">
     <g id="line2d_16">
      <g>
       <use style="stroke:#000000;stroke-width:0.8;" x="35.304688" xlink:href="#m3ffb18d388" y="110.791219"/>
      </g>
     </g>
     <g id="text_16">
      <!-- 5 -->
      <g transform="translate(21.942187 114.590437)scale(0.1 -0.1)">
       <use xlink:href="#DejaVuSans-53"/>
      </g>
     </g>
    </g>
    <g id="ytick_7">
     <g id="line2d_17">
      <g>
       <use style="stroke:#000000;stroke-width:0.8;" x="35.304688" xlink:href="#m3ffb18d388" y="77.527219"/>
      </g>
     </g>
     <g id="text_17">
      <!-- 10 -->
      <g transform="translate(15.579687 81.326437)scale(0.1 -0.1)">
       <use xlink:href="#DejaVuSans-49"/>
       <use x="63.623047" xlink:href="#DejaVuSans-48"/>
      </g>
     </g>
    </g>
    <g id="ytick_8">
     <g id="line2d_18">
      <g>
       <use style="stroke:#000000;stroke-width:0.8;" x="35.304688" xlink:href="#m3ffb18d388" y="44.263219"/>
      </g>
     </g>
     <g id="text_18">
      <!-- 15 -->
      <g transform="translate(15.579687 48.062437)scale(0.1 -0.1)">
       <use xlink:href="#DejaVuSans-49"/>
       <use x="63.623047" xlink:href="#DejaVuSans-53"/>
      </g>
     </g>
    </g>
    <g id="ytick_9">
     <g id="line2d_19">
      <g>
       <use style="stroke:#000000;stroke-width:0.8;" x="35.304688" xlink:href="#m3ffb18d388" y="10.999219"/>
      </g>
     </g>
     <g id="text_19">
      <!-- 20 -->
      <g transform="translate(15.579687 14.798437)scale(0.1 -0.1)">
       <use xlink:href="#DejaVuSans-50"/>
       <use x="63.623047" xlink:href="#DejaVuSans-48"/>
      </g>
     </g>
    </g>
   </g>
   <g id="LineCollection_1"/>
   <g id="LineCollection_2"/>
   <g id="LineCollection_3"/>
   <g id="LineCollection_4"/>
   <g id="LineCollection_5">
    <path clip-path="url(#p20f6326f87)" d="M 198.118707 145.730687 
L 195.222709 152.925619 
L 190.056688 154.136874 
L 178.152687 155.166253 
L 166.248687 153.93213 
L 164.002819 152.925619 
L 166.248687 150.343428 
L 170.717253 144.055219 
L 176.996973 135.184819 
L 178.152687 134.260064 
L 180.998542 133.924772 
" style="fill:none;stroke:#404688;stroke-width:1.5;"/>
   </g>
   <g id="LineCollection_6">
    <path clip-path="url(#p20f6326f87)" d="M 35.304687 137.564582 
L 47.208687 139.185652 
L 59.112687 140.478463 
L 71.016687 141.114133 
L 82.920687 140.869297 
L 94.824687 139.316166 
L 106.728687 135.610301 
L 107.56194 135.184819 
L 118.632687 129.347532 
L 123.161349 126.314419 
L 130.536687 124.442762 
L 141.767516 122.459867 
" style="fill:none;stroke:#39558c;stroke-width:1.5;"/>
    <path clip-path="url(#p20f6326f87)" d="M 166.941553 122.053569 
L 178.152687 122.706739 
L 190.056688 125.96807 
L 190.489695 126.314419 
L 201.960688 135.151729 
L 201.978335 135.184819 
L 203.241834 144.055219 
L 204.13499 152.925619 
L 201.960688 159.698697 
L 190.056688 161.418047 
L 188.411224 161.796019 
L 178.152687 162.570073 
L 166.248687 163.319457 
L 154.344687 163.607179 
L 142.440687 163.35657 
L 130.536687 162.834527 
L 118.632687 162.3975 
L 106.728687 162.163475 
L 94.824687 162.065858 
L 82.920687 162.039183 
L 71.016687 162.064587 
L 59.112687 162.124738 
L 47.208687 162.178391 
L 35.304687 162.19621 
" style="fill:none;stroke:#39558c;stroke-width:1.5;"/>
   </g>
   <g id="LineCollection_7">
    <path clip-path="url(#p20f6326f87)" d="M 35.304687 116.109404 
L 47.208687 116.09859 
L 59.112687 115.329632 
L 71.016687 113.815139 
L 82.920687 111.875995 
L 94.824687 110.276352 
L 106.728687 110.052946 
L 118.632687 111.332875 
L 130.536687 113.13089 
L 142.440687 114.648205 
L 154.344687 115.796442 
L 165.169983 116.609797 
" style="fill:none;stroke:#33638d;stroke-width:1.5;"/>
    <path clip-path="url(#p20f6326f87)" d="M 188.661021 123.69559 
L 190.056688 124.513151 
L 192.308644 126.314419 
L 201.960688 133.750401 
L 202.72571 135.184819 
L 204.734259 144.055219 
L 206.911784 152.925619 
L 207.371486 161.796019 
L 201.960688 164.152892 
L 190.056688 164.188805 
L 178.152687 164.961826 
L 166.248687 165.869345 
L 154.344687 166.459603 
L 142.440687 166.497307 
L 130.536687 166.138397 
L 118.632687 165.810986 
L 106.728687 165.757614 
L 94.824687 165.929915 
L 82.920687 166.210025 
L 71.016687 166.540693 
L 59.112687 166.872954 
L 47.208687 167.209303 
L 35.304687 167.550642 
" style="fill:none;stroke:#33638d;stroke-width:1.5;"/>
   </g>
   <g id="LineCollection_8">
    <path clip-path="url(#p20f6326f87)" d="M 35.304687 108.690622 
L 38.792822 108.573619 
L 47.208687 108.520996 
L 59.112687 108.238917 
L 71.016687 107.402407 
L 82.920687 106.76108 
L 94.824687 106.842848 
L 106.728687 107.278994 
L 118.632687 107.857545 
L 130.536687 108.469542 
L 132.220152 108.573619 
L 142.440687 111.267804 
L 154.344687 113.58418 
L 166.248687 115.242655 
L 178.152687 116.677603 
L 180.566413 117.444019 
L 190.056688 123.058232 
L 194.127594 126.314419 
L 201.960688 132.349074 
L 203.473084 135.184819 
L 206.226685 144.055219 
L 209.688579 152.925619 
L 213.864688 161.29029 
L 213.93799 161.796019 
L 213.864688 162.909444 
L 201.960688 167.264146 
L 190.056688 166.712603 
L 178.152687 167.353579 
L 166.248687 168.419233 
L 154.344687 169.312026 
L 142.440687 169.638044 
L 130.536687 169.442267 
L 118.632687 169.224473 
L 106.728687 169.351753 
L 94.824687 169.793972 
L 83.607986 170.34698 
" style="fill:none;stroke:#2d718e;stroke-width:1.5;"/>
    <path clip-path="url(#p20f6326f87)" d="M 58.417554 170.896242 
L 47.208687 171.030483 
L 35.304687 171.184554 
" style="fill:none;stroke:#2d718e;stroke-width:1.5;"/>
   </g>
   <g id="LineCollection_9">
    <path clip-path="url(#p20f6326f87)" d="M 35.304687 107.5379 
L 47.208687 107.13806 
L 59.112687 106.199369 
L 71.016687 104.626899 
L 82.920687 104.126524 
L 94.824687 104.808255 
L 106.728687 105.76881 
L 118.632687 106.753473 
L 130.536687 107.676743 
L 142.440687 108.459509 
L 144.08691 108.573619 
L 153.908624 111.25296 
" style="fill:none;stroke:#287d8e;stroke-width:1.5;"/>
    <path clip-path="url(#p20f6326f87)" d="M 178.640489 116.051575 
L 183.025811 117.444019 
L 190.056688 121.603313 
L 195.946543 126.314419 
L 201.960688 130.947746 
L 204.220459 135.184819 
L 207.71911 144.055219 
L 212.465373 152.925619 
L 213.864688 155.72842 
L 214.744147 161.796019 
L 214.853299 170.666419 
L 213.864688 171.441837 
L 204.380941 170.666419 
L 201.960688 170.375399 
L 190.056688 169.236401 
L 178.152687 169.745333 
L 169.053543 170.666419 
L 166.248687 170.795623 
L 154.344687 171.216797 
L 142.440687 171.352456 
L 130.536687 171.286765 
L 118.632687 171.221352 
L 106.728687 171.271739 
L 94.824687 171.417488 
L 82.920687 171.6016 
L 71.016687 171.797252 
L 59.112687 171.989483 
L 47.208687 172.194275 
L 35.304687 172.423833 
" style="fill:none;stroke:#287d8e;stroke-width:1.5;"/>
   </g>
   <g id="LineCollection_10">
    <path clip-path="url(#p20f6326f87)" d="M 35.304687 106.485585 
L 47.208687 105.755123 
L 59.112687 104.159822 
L 71.016687 101.851391 
L 82.920687 101.491968 
L 94.824687 102.773662 
L 106.728687 104.258626 
L 118.632687 105.649401 
L 130.536687 106.883944 
L 142.440687 107.897386 
L 152.196441 108.573619 
L 154.077587 109.086791 
" style="fill:none;stroke:#238a8d;stroke-width:1.5;"/>
    <path clip-path="url(#p20f6326f87)" d="M 178.513039 115.230189 
L 185.485208 117.444019 
L 190.056688 120.148394 
L 197.765492 126.314419 
L 201.960688 129.546418 
L 204.967833 135.184819 
L 209.211536 144.055219 
L 213.864688 151.708012 
L 214.038456 152.925619 
L 215.550305 161.796019 
L 217.550544 170.666419 
L 213.864688 173.557424 
L 201.960688 172.233691 
L 190.056688 171.253869 
L 178.152687 171.387588 
L 166.248687 171.884007 
L 154.344687 172.26478 
L 142.440687 172.372481 
L 130.536687 172.272257 
L 118.632687 172.182154 
L 106.728687 172.226171 
L 94.824687 172.387593 
L 82.920687 172.605513 
L 71.016687 172.845993 
L 59.112687 173.091048 
L 47.208687 173.358068 
L 35.304687 173.663112 
" style="fill:none;stroke:#238a8d;stroke-width:1.5;"/>
   </g>
   <g id="LineCollection_11">
    <path clip-path="url(#p20f6326f87)" d="M 35.304687 105.433269 
L 47.208687 104.372187 
L 59.112687 102.120274 
L 69.109968 99.703219 
L 71.016687 99.649231 
L 82.920687 99.549997 
L 87.524243 99.703219 
L 94.824687 100.73907 
L 106.728687 102.748443 
L 118.632687 104.545328 
L 130.536687 106.091145 
L 141.787598 107.267007 
" style="fill:none;stroke:#1f968b;stroke-width:1.5;"/>
    <path clip-path="url(#p20f6326f87)" d="M 166.596344 110.998456 
L 178.152687 114.334852 
L 187.944606 117.444019 
L 190.056688 118.693475 
L 199.584442 126.314419 
L 201.960688 128.145091 
L 205.715207 135.184819 
L 210.703961 144.055219 
L 213.864688 149.253498 
L 214.388748 152.925619 
L 216.356463 161.796019 
L 220.247789 170.666419 
L 213.864688 175.67301 
L 201.960688 173.96269 
L 190.056688 172.609355 
L 178.152687 172.56043 
L 166.248687 172.972391 
L 154.344687 173.312763 
L 142.440687 173.392506 
L 130.536687 173.257748 
L 118.632687 173.142955 
L 106.728687 173.180603 
L 94.824687 173.357698 
L 82.920687 173.609427 
L 71.016687 173.894733 
L 59.112687 174.192613 
L 47.208687 174.52186 
L 35.304687 174.902392 
" style="fill:none;stroke:#1f968b;stroke-width:1.5;"/>
   </g>
   <g id="LineCollection_12">
    <path clip-path="url(#p20f6326f87)" d="M 35.304687 104.380954 
L 47.208687 102.989251 
L 59.112687 100.080727 
L 60.674115 99.703219 
L 71.016687 99.410376 
L 82.920687 99.072735 
L 94.824687 99.451503 
L 98.701346 99.703219 
L 106.728687 101.238259 
L 118.632687 103.441256 
L 130.536687 105.298346 
L 141.806322 106.694548 
" style="fill:none;stroke:#20a386;stroke-width:1.5;"/>
    <path clip-path="url(#p20f6326f87)" d="M 166.769393 109.629414 
L 178.152687 113.553934 
L 190.056688 117.417456 
L 190.090147 117.444019 
L 201.403391 126.314419 
L 201.960688 126.743763 
L 206.462582 135.184819 
L 212.196387 144.055219 
L 213.864688 146.798985 
L 214.73904 152.925619 
L 217.162621 161.796019 
L 222.945033 170.666419 
L 213.864688 177.788596 
L 201.960688 175.691689 
L 190.056688 173.964841 
L 178.152687 173.733272 
L 166.248687 174.060775 
L 154.344687 174.360746 
L 142.440687 174.412531 
L 130.536687 174.24324 
L 118.632687 174.103757 
L 106.728687 174.135035 
L 94.824687 174.327803 
L 82.920687 174.61334 
L 71.016687 174.943474 
L 59.112687 175.294179 
L 47.208687 175.685653 
L 35.304687 176.141671 
" style="fill:none;stroke:#20a386;stroke-width:1.5;"/>
   </g>
   <g id="LineCollection_13">
    <path clip-path="url(#p20f6326f87)" d="M 35.304687 103.328639 
L 47.208687 101.606314 
L 54.685259 99.703219 
L 59.112687 99.584503 
L 71.016687 99.171521 
L 82.920687 98.595472 
L 94.824687 98.938718 
L 106.598702 99.703219 
L 106.728687 99.728075 
L 118.632687 102.337184 
L 130.536687 104.505547 
L 142.440687 106.211017 
L 154.344687 107.57049 
L 166.248687 108.502888 
L 167.06309 108.573619 
L 178.152687 112.773017 
L 190.056688 117.229362 
L 190.327082 117.444019 
L 201.960688 126.190857 
L 202.105335 126.314419 
L 207.209956 135.184819 
L 213.688813 144.055219 
L 213.864688 144.344471 
L 215.089332 152.925619 
L 217.968778 161.796019 
L 225.642278 170.666419 
L 215.83494 179.536819 
L 213.864688 179.701999 
L 212.38561 179.536819 
L 201.960688 177.420688 
L 190.056688 175.320327 
L 178.152687 174.906114 
L 166.248687 175.149159 
L 154.344687 175.408729 
L 142.440687 175.432555 
L 130.536687 175.228731 
L 119.328595 175.074156 
" style="fill:none;stroke:#29af7f;stroke-width:1.5;"/>
    <path clip-path="url(#p20f6326f87)" d="M 94.130762 175.316524 
L 82.920687 175.617253 
L 71.016687 175.992214 
L 59.112687 176.395744 
L 47.208687 176.849445 
L 35.304687 177.38095 
" style="fill:none;stroke:#29af7f;stroke-width:1.5;"/>
   </g>
   <g id="LineCollection_14">
    <path clip-path="url(#p20f6326f87)" d="M 35.304687 102.276324 
L 47.208687 100.223378 
L 49.252204 99.703219 
L 59.112687 99.438822 
L 71.016687 98.932666 
L 82.920687 98.11821 
L 94.824687 98.425933 
L 106.728687 99.345743 
L 111.670421 99.703219 
L 118.632687 101.233112 
L 130.536687 103.712748 
L 142.440687 105.648894 
L 154.344687 107.203728 
L 166.248687 108.323786 
L 169.125304 108.573619 
L 178.152687 111.9921 
L 190.056688 117.041268 
L 190.564016 117.444019 
L 201.960688 126.012716 
L 202.313876 126.314419 
L 207.957331 135.184819 
L 213.864688 143.16462 
L 214.017981 144.055219 
L 215.439625 152.925619 
L 218.774936 161.796019 
L 225.768687 169.788334 
L 226.135389 170.666419 
L 225.911151 179.536819 
L 225.768687 179.625593 
L 213.864688 180.653243 
L 203.867857 179.536819 
L 201.960688 179.149687 
L 190.056688 176.675813 
L 178.152687 176.078956 
L 166.248687 176.237543 
L 154.344687 176.456712 
L 143.134301 176.452821 
" style="fill:none;stroke:#3dbc74;stroke-width:1.5;"/>
    <path clip-path="url(#p20f6326f87)" d="M 117.938186 176.026441 
L 106.728687 176.0439 
L 94.824687 176.268013 
L 82.920687 176.621166 
L 71.016687 177.040955 
L 59.112687 177.49731 
L 47.208687 178.013238 
L 35.304687 178.620229 
" style="fill:none;stroke:#3dbc74;stroke-width:1.5;"/>
   </g>
   <g id="LineCollection_15">
    <path clip-path="url(#p20f6326f87)" d="M 35.304687 101.224008 
L 43.61933 99.703219 
L 47.208687 99.631214 
L 59.112687 99.293141 
L 71.016687 98.693811 
L 82.920687 97.640948 
L 94.824687 97.913148 
L 106.728687 98.982286 
L 116.694854 99.703219 
L 118.632687 100.12904 
L 130.536687 102.919949 
L 141.881844 104.985048 
" style="fill:none;stroke:#56c667;stroke-width:1.5;"/>
    <path clip-path="url(#p20f6326f87)" d="M 166.870731 108.198708 
L 171.187518 108.573619 
L 178.152687 111.211183 
L 190.056688 116.853175 
L 190.80095 117.444019 
L 201.960688 125.834575 
L 202.522417 126.314419 
L 208.704705 135.184819 
L 213.864688 142.155049 
L 214.191753 144.055219 
L 215.789917 152.925619 
L 219.581094 161.796019 
L 225.768687 168.867074 
L 226.520122 170.666419 
L 227.055454 179.536819 
L 225.768687 180.338653 
L 213.864688 181.604487 
L 201.960688 180.283501 
L 197.064184 179.536819 
L 190.056688 178.031299 
L 178.152687 177.251798 
L 166.248687 177.325927 
L 154.344687 177.504695 
L 142.440687 177.472605 
L 130.536687 177.199715 
L 118.632687 176.986161 
L 106.728687 176.998332 
L 94.824687 177.238118 
L 82.920687 177.62508 
L 71.016687 178.089695 
L 59.112687 178.598875 
L 47.208688 179.17703 
L 40.747045 179.536819 
L 35.304687 179.696331 
" style="fill:none;stroke:#56c667;stroke-width:1.5;"/>
   </g>
   <g id="LineCollection_16">
    <path clip-path="url(#p20f6326f87)" d="M 35.304687 100.171693 
L 37.865986 99.703219 
L 47.208687 99.515798 
L 59.112687 99.14746 
L 71.016687 98.454956 
L 82.920687 97.163686 
L 94.824687 97.400363 
L 106.728687 98.618828 
L 118.632687 99.56298 
L 120.624336 99.703219 
L 130.536687 102.12715 
L 141.913219 104.418415 
" style="fill:none;stroke:#75d054;stroke-width:1.5;"/>
    <path clip-path="url(#p20f6326f87)" d="M 166.848871 108.017707 
L 173.249731 108.573619 
L 178.152687 110.430265 
L 190.056688 116.665081 
L 191.037884 117.444019 
L 201.960688 125.656433 
L 202.730957 126.314419 
L 209.452079 135.184819 
L 213.864688 141.145477 
L 214.365524 144.055219 
L 216.140209 152.925619 
L 220.387251 161.796019 
L 225.768687 167.945813 
L 226.904854 170.666419 
L 228.199756 179.536819 
L 225.768687 181.051712 
L 213.864688 182.555731 
L 201.960688 181.245603 
L 190.755027 179.536819 
L 190.056688 179.386785 
L 178.152687 178.424639 
L 166.248687 178.414311 
L 154.344687 178.552678 
L 142.440687 178.49263 
L 130.536687 178.185206 
L 118.632687 177.946962 
L 106.728687 177.952764 
L 94.824687 178.208223 
L 82.920687 178.628993 
L 71.016687 179.138436 
L 62.458935 179.536819 
L 59.112687 179.619794 
L 47.208687 179.940027 
L 35.304687 180.308934 
" style="fill:none;stroke:#75d054;stroke-width:1.5;"/>
   </g>
   <g id="LineCollection_17">
    <path clip-path="url(#p20f6326f87)" d="M 35.304687 99.646459 
L 47.208687 99.400383 
L 59.112687 99.001779 
L 71.016687 98.216101 
L 82.920687 96.686424 
L 94.824687 96.887578 
L 106.728687 98.25537 
L 118.632687 99.334697 
L 123.866383 99.703219 
L 130.536687 101.334351 
L 142.440687 103.962526 
L 153.776197 106.0012 
" style="fill:none;stroke:#95d840;stroke-width:1.5;"/>
    <path clip-path="url(#p20f6326f87)" d="M 178.556072 109.880713 
L 190.056688 116.476987 
L 191.274818 117.444019 
L 201.960688 125.478292 
L 202.939498 126.314419 
L 210.199454 135.184819 
L 213.864688 140.135906 
L 214.539296 144.055219 
L 216.490501 152.925619 
L 221.193409 161.796019 
L 225.768687 167.024553 
L 227.289587 170.666419 
L 229.344059 179.536819 
L 225.768687 181.764772 
L 213.864688 183.506975 
L 201.960688 182.207705 
L 190.056688 180.261118 
L 178.152687 179.574037 
L 170.741296 179.536819 
L 166.248687 179.502695 
L 162.203867 179.536819 
L 154.344687 179.573849 
L 145.773636 179.536819 
L 142.440687 179.512655 
L 130.536687 179.170698 
L 118.632687 178.907764 
L 106.728687 178.907197 
L 94.824687 179.178327 
L 85.369615 179.536819 
L 82.920687 179.587464 
L 71.016687 179.872794 
L 59.112687 180.178418 
L 47.208687 180.523669 
L 35.304687 180.921537 
" style="fill:none;stroke:#95d840;stroke-width:1.5;"/>
   </g>
   <g id="LineCollection_18">
    <path clip-path="url(#p20f6326f87)" d="M 35.304687 99.544156 
L 47.208687 99.284967 
L 59.112687 98.856099 
L 71.016687 97.977246 
L 82.920687 96.209161 
L 94.824687 96.374794 
L 106.728687 97.891912 
L 118.632687 99.106413 
L 127.108431 99.703219 
L 130.536687 100.541552 
L 142.440687 103.400403 
L 153.805074 105.630776 
" style="fill:none;stroke:#bade28;stroke-width:1.5;"/>
    <path clip-path="url(#p20f6326f87)" d="M 178.662006 109.185919 
L 190.056688 116.288893 
L 191.511753 117.444019 
L 201.960688 125.300151 
L 203.148039 126.314419 
L 210.946828 135.184819 
L 213.864688 139.126334 
L 214.713067 144.055219 
L 216.840793 152.925619 
L 221.999567 161.796019 
L 225.768687 166.103293 
L 227.67432 170.666419 
L 230.488362 179.536819 
L 225.768687 182.477832 
L 213.864688 184.458219 
L 201.960688 183.169807 
L 190.056688 181.075566 
L 178.152687 180.293611 
L 166.248687 180.172344 
L 154.344687 180.181709 
L 142.440687 180.102701 
L 130.536687 179.888308 
L 118.632687 179.723511 
L 106.728687 179.716912 
L 94.824687 179.867262 
L 82.920687 180.116596 
L 71.016687 180.414575 
L 59.112687 180.737042 
L 47.208687 181.107311 
L 35.304687 181.53414 
" style="fill:none;stroke:#bade28;stroke-width:1.5;"/>
   </g>
   <g id="LineCollection_19">
    <path clip-path="url(#p20f6326f87)" d="M 35.304687 99.441852 
L 47.208687 99.169552 
L 59.112687 98.710418 
L 71.016687 97.738391 
L 82.920687 95.731899 
L 94.824687 95.862009 
L 106.728687 97.528454 
L 118.632687 98.87813 
L 130.350479 99.703219 
L 130.536687 99.748753 
L 142.440687 102.83828 
L 153.836696 105.261883 
" style="fill:none;stroke:#dde318;stroke-width:1.5;"/>
    <path clip-path="url(#p20f6326f87)" d="M 178.720596 108.821222 
L 190.056688 116.100799 
L 191.748687 117.444019 
L 201.960688 125.122009 
L 203.35658 126.314419 
L 211.694203 135.184819 
L 213.864688 138.116762 
L 214.886839 144.055219 
L 217.191085 152.925619 
L 222.805724 161.796019 
L 225.768687 165.182032 
L 228.059052 170.666419 
L 231.632664 179.536819 
L 225.768687 183.190891 
L 213.864688 185.409463 
L 201.960688 184.131909 
L 190.056688 181.890014 
L 178.152687 181.013185 
L 166.248687 180.82844 
L 154.344687 180.789568 
L 142.440687 180.682314 
L 130.536687 180.44757 
L 118.632687 180.264207 
L 106.728687 180.246104 
L 94.824687 180.391392 
L 82.920687 180.645729 
L 71.016687 180.956356 
L 59.112687 181.295666 
L 47.208687 181.690953 
L 35.304687 182.146743 
" style="fill:none;stroke:#dde318;stroke-width:1.5;"/>
   </g>
   <g id="LineCollection_20">
    <path clip-path="url(#p20f6326f87)" d="M 35.304687 99.339549 
L 47.208687 99.054136 
L 59.112687 98.564737 
L 71.016687 97.499536 
L 82.920687 95.254637 
L 94.824687 95.349224 
L 106.728687 97.164997 
L 118.632687 98.649846 
L 130.536687 99.564953 
L 132.569442 99.703219 
L 142.440687 102.276157 
L 153.870991 104.894641 
" style="fill:none;stroke:#fde725;stroke-width:1.5;"/>
    <path clip-path="url(#p20f6326f87)" d="M 178.751909 108.653236 
L 190.056688 115.912705 
L 191.985621 117.444019 
L 201.960688 124.943868 
L 203.565121 126.314419 
L 212.441577 135.184819 
L 213.864688 137.107191 
L 215.06061 144.055219 
L 217.541377 152.925619 
L 223.611882 161.796019 
L 225.768687 164.260772 
L 228.443785 170.666419 
L 232.776967 179.536819 
L 225.768687 183.903951 
L 213.864688 186.360707 
L 201.960688 185.094011 
L 190.056688 182.704462 
L 178.152687 181.732758 
L 166.248687 181.484536 
L 154.344687 181.397427 
L 142.440687 181.261927 
L 130.536687 181.006832 
L 118.632687 180.804903 
L 106.728687 180.775296 
L 94.824687 180.915522 
L 82.920687 181.174861 
L 71.016687 181.498137 
L 59.112687 181.85429 
L 47.208687 182.274595 
L 35.304687 182.759346 
" style="fill:none;stroke:#fde725;stroke-width:1.5;"/>
   </g>
   <g id="LineCollection_21">
    <path clip-path="url(#p20f6326f87)" d="M 35.304687 99.237245 
L 47.208687 98.938721 
L 59.112687 98.419056 
L 71.016687 97.260682 
L 82.920687 94.777375 
L 94.824687 94.836439 
L 106.728687 96.801539 
L 118.632687 98.421563 
L 130.536687 99.418261 
L 134.726062 99.703219 
L 142.440687 101.714035 
L 154.344687 104.636394 
L 164.646488 106.742514 
" style="fill:none;stroke:#440154;stroke-width:1.5;"/>
    <path clip-path="url(#p20f6326f87)" d="M 190.969754 116.449463 
L 192.222555 117.444019 
L 201.960688 124.765727 
L 203.773662 126.314419 
L 213.188951 135.184819 
L 213.864688 136.097619 
L 215.234382 144.055219 
L 217.891669 152.925619 
L 224.41804 161.796019 
L 225.768687 163.339511 
L 228.828517 170.666419 
L 233.92127 179.536819 
L 225.768687 184.61701 
L 213.864688 187.311951 
L 201.960688 186.056113 
L 190.056688 183.51891 
L 178.152687 182.452332 
L 166.248687 182.140632 
L 154.344687 182.005287 
L 142.440687 181.841539 
L 130.536687 181.566094 
L 118.632687 181.345599 
L 106.728687 181.304488 
L 94.824687 181.439652 
L 82.920687 181.703994 
L 71.016687 182.039918 
L 59.112687 182.412914 
L 47.208687 182.858237 
L 35.304687 183.371949 
" style="fill:none;stroke:#440154;stroke-width:1.5;"/>
   </g>
   <g id="LineCollection_22">
    <path clip-path="url(#p20f6326f87)" d="M 35.304687 86.358492 
L 47.208687 85.396566 
L 59.112687 83.457722 
L 64.809755 81.962419 
L 71.016687 81.418422 
L 82.920687 81.236607 
L 94.824687 81.733874 
L 99.2627 81.962419 
L 106.728687 83.921938 
L 118.632687 86.536421 
L 130.536687 88.543223 
L 142.440687 90.183434 
L 149.245071 90.832819 
L 154.344687 93.119936 
L 166.248687 97.959128 
L 178.152687 99.540622 
L 179.172527 99.703219 
L 190.056688 106.416357 
L 194.516001 108.573619 
L 201.960688 114.166596 
L 206.690801 117.444019 
L 213.864688 122.90355 
L 216.702295 126.314419 
L 225.768687 134.904112 
L 225.847911 135.184819 
L 227.999957 144.055219 
L 234.048836 152.925619 
L 237.672687 156.82011 
L 239.564857 161.796019 
L 247.929018 170.666419 
L 249.576687 172.257514 
L 252.759333 179.536819 
L 256.18203 188.407219 
L 249.576687 194.364264 
L 245.282278 197.277619 
L 237.672687 200.783775 
L 228.572356 206.148019 
L 225.768687 207.026745 
L 213.864688 210.763573 
L 201.960688 213.832011 
L 190.056688 214.553152 
L 178.152687 213.753555 
L 166.248687 213.183129 
L 154.344687 213.257374 
L 142.440687 213.882538 
L 130.536687 214.888752 
L 128.933852 215.018419 
L 118.632687 215.35659 
L 106.728687 215.727455 
L 94.824687 215.97403 
L 82.920687 216.075656 
L 75.300681 216.219461 
" style="fill:none;stroke:#440154;stroke-width:1.5;"/>
    <path clip-path="url(#p20f6326f87)" d="M 42.970082 218.166588 
L 35.304687 218.961007 
" style="fill:none;stroke:#440154;stroke-width:1.5;"/>
   </g>
   <g id="LineCollection_23">
    <path clip-path="url(#p20f6326f87)" d="M 35.304688 64.087468 
L 41.123954 64.221619 
L 47.208687 64.97268 
L 59.112687 67.586151 
L 71.016687 69.684541 
L 82.920687 71.171368 
L 94.824687 72.229384 
L 106.728687 72.94855 
L 109.217176 73.092019 
L 118.632687 75.808948 
L 130.536687 79.279076 
L 142.440687 81.376336 
L 146.516956 81.962419 
L 154.344687 86.180725 
L 166.248687 89.676621 
L 175.142835 90.832819 
L 178.152687 92.471065 
L 185.860961 95.976834 
" style="fill:none;stroke:#440154;stroke-width:1.5;"/>
    <path clip-path="url(#p20f6326f87)" d="M 216.931563 113.518538 
L 221.51392 117.444019 
L 225.768687 120.908436 
L 228.291936 126.314419 
L 236.224979 135.184819 
L 237.672687 136.637295 
L 239.783066 144.055219 
L 248.360208 152.925619 
L 249.576687 154.06721 
L 252.443625 161.796019 
L 261.480687 169.966357 
L 261.718444 170.666419 
L 264.969403 179.536819 
L 273.384688 187.90778 
L 273.522159 188.407219 
L 273.798472 197.277619 
L 273.384688 197.712395 
L 261.480687 203.610465 
L 257.40776 206.148019 
L 249.576687 209.204734 
L 240.456045 215.018419 
L 237.672687 215.96611 
L 225.768687 220.055734 
L 217.895799 223.888819 
L 213.864688 224.513968 
L 201.960688 225.703061 
L 190.056688 226.878655 
L 178.152687 227.716272 
L 166.248687 228.258752 
L 154.344687 228.258544 
L 142.440687 229.064498 
L 130.536687 231.017732 
L 123.67352 232.759219 
L 118.632687 233.06623 
L 106.728687 234.084519 
L 94.824687 235.78598 
L 82.920687 238.684072 
L 74.741716 241.629619 
L 71.016687 241.982214 
L 59.112687 243.251765 
L 47.208687 245.062524 
L 35.304687 247.798229 
" style="fill:none;stroke:#440154;stroke-width:1.5;"/>
   </g>
   <g id="LineCollection_24">
    <path clip-path="url(#p20f6326f87)" d="M 35.304687 54.05141 
L 47.208687 54.881139 
L 56.77667 55.351219 
L 59.112687 55.973995 
L 71.016687 58.991042 
L 82.920687 61.110332 
L 94.824687 62.57665 
L 106.728687 63.59262 
L 116.040271 64.221619 
L 118.632687 65.043049 
L 130.536687 69.899996 
L 142.440687 72.483514 
L 145.739301 73.092019 
L 154.344687 77.554525 
L 166.248687 80.778511 
L 174.254348 81.962419 
L 178.152687 83.85234 
L 190.056688 88.751275 
L 198.857012 90.832819 
L 201.960688 92.707564 
L 213.864688 99.303925 
L 214.498274 99.703219 
L 225.768687 108.037552 
L 226.265352 108.573619 
L 234.60562 117.444019 
L 237.672687 120.245146 
L 239.60834 126.314419 
L 246.125438 135.184819 
L 249.576687 138.516339 
L 251.216708 144.055219 
L 258.8323 152.925619 
L 261.480687 155.317816 
L 263.760146 161.796019 
L 273.384688 170.61773 
L 273.400305 170.666419 
L 275.830456 179.536819 
L 285.110173 188.407219 
L 285.288688 188.634717 
L 286.795351 197.277619 
L 285.288687 203.519681 
L 282.222209 206.148019 
L 273.384688 209.84751 
L 265.025038 215.018419 
L 261.480687 216.343112 
L 249.576687 223.638574 
L 249.160307 223.888819 
L 237.672687 227.010568 
L 226.34814 232.759219 
L 225.768687 232.857123 
L 213.864688 234.486003 
L 201.960688 235.918027 
L 190.056688 237.701717 
L 178.152687 239.911086 
L 167.85891 241.629619 
L 166.248687 241.682677 
L 154.344687 241.650212 
L 142.440687 242.004885 
L 130.536687 242.713278 
L 118.632687 243.911526 
L 106.728687 245.887666 
L 94.824687 249.053858 
L 90.256914 250.500019 
L 82.920687 251.137953 
L 71.016687 252.583782 
L 64.703008 253.83862 
" style="fill:none;stroke:#440154;stroke-width:1.5;"/>
   </g>
   <g id="LineCollection_25">
    <path clip-path="url(#p20f6326f87)" d="M 35.304687 44.715927 
L 41.77364 45.24187 
" style="fill:none;stroke:#440154;stroke-width:1.5;"/>
    <path clip-path="url(#p20f6326f87)" d="M 84.341888 51.453787 
L 94.824687 52.991519 
L 106.728687 54.14688 
L 118.632687 55.15364 
L 120.542813 55.351219 
L 130.536687 59.627785 
L 142.440687 62.82885 
L 150.227587 64.221619 
L 154.344687 66.28188 
L 166.248687 70.818919 
L 178.152687 72.974559 
L 178.799245 73.092019 
L 190.056688 78.737295 
L 201.960688 81.745613 
L 202.619316 81.962419 
L 213.864688 89.178177 
L 216.756322 90.832819 
L 225.768687 97.338821 
L 228.256847 99.703219 
L 237.672687 107.172589 
L 238.607062 108.573619 
L 245.859993 117.444019 
L 249.576687 121.080726 
L 251.03467 126.314419 
L 256.520286 135.184819 
L 261.480687 139.986033 
L 262.64395 144.055219 
L 268.54439 152.925619 
L 273.384688 157.325918 
L 274.953985 161.796019 
L 282.144944 170.666419 
L 285.288688 173.704441 
L 286.915991 179.536819 
L 294.265822 188.407219 
L 297.192688 191.54029 
L 298.545749 197.277619 
L 299.026895 206.148019 
L 297.192688 208.493037 
L 287.929395 215.018419 
L 285.288688 216.149177 
L 273.384688 223.81087 
L 273.260954 223.888819 
L 261.480687 227.979457 
L 253.69215 232.759219 
L 249.576687 234.000074 
L 237.672687 238.443733 
L 231.140947 241.629619 
L 225.768687 242.467778 
L 213.864688 244.709864 
L 201.960688 246.897867 
L 190.056688 250.038136 
L 188.43654 250.500019 
L 178.152687 251.234313 
L 166.248687 251.616614 
L 154.344687 251.836028 
L 142.440687 252.570426 
L 130.536687 253.90548 
L 118.632687 256.116367 
L 107.436216 259.370419 
L 106.728687 259.423648 
L 94.824687 260.438177 
L 82.920687 262.098984 
L 71.016687 264.888243 
L 61.656774 268.240819 
L 59.112687 268.515595 
L 47.208687 270.103235 
L 35.304687 273.059734 
" style="fill:none;stroke:#440154;stroke-width:1.5;"/>
   </g>
   <g id="LineCollection_26">
    <path clip-path="url(#p20f6326f87)" d="M 35.304687 35.953834 
L 47.208687 36.828453 
L 59.112687 37.407813 
L 64.211978 37.610419 
L 71.016687 39.54012 
L 82.920687 42.155544 
L 94.824687 43.823934 
L 106.728687 44.878867 
L 118.632687 46.019976 
L 124.335331 46.480819 
L 130.536687 48.98048 
L 142.440687 52.688145 
L 154.344687 54.852952 
L 157.361759 55.351219 
L 166.248687 59.695912 
L 178.152687 63.221339 
L 183.395909 64.221619 
L 190.056688 67.623107 
L 201.960688 72.08229 
L 205.223098 73.092019 
L 213.864688 78.460896 
L 221.012659 81.962419 
L 225.768687 85.325062 
L 232.136458 90.832819 
L 234.051877 92.321825 
" style="fill:none;stroke:#450457;stroke-width:1.5;"/>
    <path clip-path="url(#p20f6326f87)" d="M 263.299412 127.768406 
L 267.140356 135.184819 
L 273.384688 141.298158 
L 274.149014 144.055219 
L 278.849755 152.925619 
L 285.288688 158.822507 
L 286.327152 161.796019 
L 291.976269 170.666419 
L 297.192688 175.734595 
L 298.292468 179.536819 
L 304.079012 188.407219 
L 309.096688 193.449606 
L 310.116563 197.277619 
L 311.722088 206.148019 
L 309.568087 215.018419 
L 309.096688 215.390137 
L 297.192688 222.045794 
L 294.37213 223.888819 
L 285.288688 227.511965 
L 277.026578 232.759219 
L 273.384688 234.014613 
L 261.480687 240.754688 
L 260.017335 241.629619 
L 249.576687 244.433844 
L 237.867284 250.500019 
L 237.672687 250.538528 
L 225.768687 252.531116 
L 213.864688 256.129326 
L 203.741039 259.370419 
L 201.960688 259.531275 
L 190.056688 260.506776 
L 178.152687 261.831959 
L 166.248687 262.411683 
L 154.344687 262.889297 
L 142.440687 264.217203 
L 130.536687 266.582045 
L 124.444776 268.240819 
L 118.632687 268.645937 
L 106.728687 269.787735 
L 94.824687 271.646111 
L 82.920687 274.724472 
L 76.026848 277.111219 
" style="fill:none;stroke:#450457;stroke-width:1.5;"/>
   </g>
   <g id="LineCollection_27">
    <path clip-path="url(#p20f6326f87)" d="M 35.304687 27.380166 
L 47.208687 28.114478 
L 59.112687 28.614304 
L 62.517003 28.740019 
L 71.016688 31.026936 
L 82.920687 33.387195 
L 94.824687 34.922405 
L 106.728687 35.936063 
L 118.632687 37.06922 
L 126.666868 37.610419 
L 130.536687 39.069596 
L 142.440687 42.952426 
L 154.344687 45.263905 
L 163.571602 46.480819 
L 166.248687 47.800195 
L 178.152687 53.299933 
L 189.907578 55.351219 
L 190.056688 55.429796 
L 201.960688 62.289697 
L 209.140769 64.221619 
L 213.864688 67.136781 
L 225.768687 72.871384 
L 226.145217 73.092019 
L 237.672687 81.716278 
L 237.892651 81.962419 
L 245.435293 90.369374 
" style="fill:none;stroke:#482475;stroke-width:1.5;"/>
    <path clip-path="url(#p20f6326f87)" d="M 275.548026 129.608855 
L 277.982245 135.184819 
L 285.288688 142.41066 
L 285.733274 144.055219 
L 289.591991 152.925619 
L 297.192688 159.926564 
L 297.840405 161.796019 
L 302.572059 170.666419 
L 309.096688 177.014094 
L 309.838433 179.536819 
L 314.304747 188.407219 
L 321.000688 194.934946 
L 321.631526 197.277619 
L 323.306764 206.148019 
L 323.458135 215.018419 
L 321.000688 219.460483 
L 315.157036 223.888819 
L 309.096688 226.598305 
L 299.599012 232.759219 
L 297.192688 233.665249 
L 285.288688 240.061374 
L 282.777577 241.629619 
L 273.384688 244.700848 
L 263.85783 250.500019 
L 261.480687 251.244053 
L 249.576687 255.719363 
L 242.568371 259.370419 
L 237.672687 260.43226 
L 225.768687 263.825658 
L 215.861394 268.240819 
L 213.864688 268.539674 
L 201.960688 269.984847 
L 190.056688 271.710941 
L 178.152687 273.764361 
L 166.248687 274.893876 
L 154.344687 275.994838 
L 148.112544 277.111219 
" style="fill:none;stroke:#482475;stroke-width:1.5;"/>
   </g>
   <g id="LineCollection_28">
    <path clip-path="url(#p20f6326f87)" d="M 35.304688 18.725292 
L 47.208687 19.368891 
L 59.112687 19.816961 
L 60.596349 19.869619 
L 71.016687 22.510249 
L 82.920687 24.651274 
L 94.824687 26.068197 
L 106.728687 27.124768 
L 118.632687 28.202645 
L 127.322229 28.740019 
L 130.536687 29.886466 
L 142.440687 33.672889 
L 154.344687 36.304941 
L 165.139969 37.610419 
L 166.248687 38.174669 
L 178.152687 44.001844 
L 190.056688 46.297439 
L 191.006325 46.480819 
L 201.960688 52.797858 
L 211.793725 55.351219 
L 213.864688 56.628193 
L 225.768687 63.417106 
L 227.543184 64.221619 
L 237.672687 71.458357 
L 239.519927 73.092019 
L 249.576687 81.097746 
L 250.239499 81.962419 
L 258.841023 90.832819 
L 261.480687 93.042656 
L 263.045813 95.807785 
" style="fill:none;stroke:#fde725;stroke-width:1.5;"/>
    <path clip-path="url(#p20f6326f87)" d="M 293.077587 139.272865 
L 297.192688 143.359617 
L 297.37855 144.055219 
L 300.58934 152.925619 
L 309.096688 160.788419 
L 309.448055 161.796019 
L 313.501954 170.666419 
L 321.000688 177.950404 
L 321.479598 179.536819 
L 324.991112 188.407219 
L 332.904688 196.231025 
L 333.158267 197.277619 
L 334.650896 206.148019 
L 335.787279 215.018419 
L 333.77614 223.888819 
L 332.904688 224.900365 
L 321.836811 232.759219 
L 321.000688 233.093593 
L 309.096688 238.562434 
L 304.315212 241.629619 
L 297.192688 244.209601 
L 287.111858 250.500019 
L 285.288688 251.153954 
L 273.384688 256.617301 
L 268.840962 259.370419 
L 261.480687 261.796722 
L 250.258348 268.240819 
L 249.576687 268.433647 
L 237.672687 271.373381 
L 225.777657 277.111219 
" style="fill:none;stroke:#fde725;stroke-width:1.5;"/>
   </g>
   <g id="line2d_20">
    <path clip-path="url(#p20f6326f87)" d="M 406.987188 169.942137 
L 399.338157 170.16417 
L 389.436699 170.410752 
L 379.705182 170.463883 
L 370.137686 170.314407 
L 360.755554 170.084044 
L 351.522155 169.674242 
L 342.482371 169.314377 
L 333.579573 168.806368 
L 324.841978 168.08078 
L 316.227641 167.383289 
L 307.791675 166.427714 
L 299.491153 165.3198 
L 291.382829 164.309307 
L 283.388454 163.118092 
L 275.556012 161.766882 
L 267.907269 160.548454 
L 260.310089 159.219829 
L 252.959498 157.763719 
L 245.697835 156.406049 
L 238.548324 154.820704 
L 231.563943 153.343398 
L 224.686255 151.705744 
L 217.940436 149.82926 
L 211.377182 148.256295 
L 210.715781 148.165976 
L 210.052002 148.029288 
L 209.398804 147.860662 
L 208.748939 147.669307 
L 208.100879 147.508219 
L 207.455175 147.329282 
L 206.814219 147.166187 
L 206.174942 146.995666 
L 205.539492 146.841248 
L 204.906826 146.674998 
L 204.26848 146.489031 
L 203.641079 146.317751 
L 203.014962 146.1637 
L 202.37885 146.012218 
L 201.754231 145.844526 
L 201.130906 145.716137 
L 200.500131 145.557647 
L 199.875367 145.425275 
L 199.25343 145.240753 
L 198.633905 145.097186 
L 198.022756 144.963033 
L 197.402064 144.817258 
L 196.793005 144.68251 
L 196.173064 144.529112 
L 195.558203 144.372916 
L 195.49614 144.361569 
L 195.43472 144.350083 
L 195.373806 144.335079 
L 195.311889 144.324927 
L 195.251443 144.310742 
L 195.190065 144.297026 
L 195.128478 144.284967 
L 195.066901 144.269286 
L 195.005594 144.256862 
L 194.944011 144.248039 
L 194.882694 144.232624 
L 194.821679 144.219575 
L 194.759663 144.205503 
L 194.697551 144.196755 
L 194.635203 144.183203 
L 194.576238 144.171079 
L 194.515597 144.156917 
L 194.453683 144.142116 
L 194.392531 144.132176 
L 194.331359 144.118722 
L 194.270955 144.106465 
L 194.209707 144.093236 
L 194.148295 144.080646 
L 194.086208 144.06704 
" style="fill:none;stroke:#1f77b4;stroke-linecap:square;stroke-width:1.5;"/>
    <defs>
     <path d="M 0 1.5 
C 0.397805 1.5 0.77937 1.341951 1.06066 1.06066 
C 1.341951 0.77937 1.5 0.397805 1.5 0 
C 1.5 -0.397805 1.341951 -0.77937 1.06066 -1.06066 
C 0.77937 -1.341951 0.397805 -1.5 0 -1.5 
C -0.397805 -1.5 -0.77937 -1.341951 -1.06066 -1.06066 
C -1.341951 -0.77937 -1.5 -0.397805 -1.5 0 
C -1.5 0.397805 -1.341951 0.77937 -1.06066 1.06066 
C -0.77937 1.341951 -0.397805 1.5 0 1.5 
z
" id="me13d8df059" style="stroke:#1f77b4;"/>
    </defs>
    <g clip-path="url(#p20f6326f87)">
     <use style="fill:#1f77b4;stroke:#1f77b4;" x="689.726888" xlink:href="#me13d8df059" y="120.215445"/>
     <use style="fill:#1f77b4;stroke:#1f77b4;" x="710.898162" xlink:href="#me13d8df059" y="127.395079"/>
     <use style="fill:#1f77b4;stroke:#1f77b4;" x="696.546161" xlink:href="#me13d8df059" y="130.082634"/>
     <use style="fill:#1f77b4;stroke:#1f77b4;" x="681.603404" xlink:href="#me13d8df059" y="132.57459"/>
     <use style="fill:#1f77b4;stroke:#1f77b4;" x="666.944915" xlink:href="#me13d8df059" y="134.736192"/>
     <use style="fill:#1f77b4;stroke:#1f77b4;" x="652.561884" xlink:href="#me13d8df059" y="136.651847"/>
     <use style="fill:#1f77b4;stroke:#1f77b4;" x="638.396942" xlink:href="#me13d8df059" y="138.49963"/>
     <use style="fill:#1f77b4;stroke:#1f77b4;" x="624.482665" xlink:href="#me13d8df059" y="140.375309"/>
     <use style="fill:#1f77b4;stroke:#1f77b4;" x="610.781846" xlink:href="#me13d8df059" y="142.397866"/>
     <use style="fill:#1f77b4;stroke:#1f77b4;" x="597.300357" xlink:href="#me13d8df059" y="144.463416"/>
     <use style="fill:#1f77b4;stroke:#1f77b4;" x="584.037988" xlink:href="#me13d8df059" y="146.618555"/>
     <use style="fill:#1f77b4;stroke:#1f77b4;" x="570.99822" xlink:href="#me13d8df059" y="148.688197"/>
     <use style="fill:#1f77b4;stroke:#1f77b4;" x="558.177146" xlink:href="#me13d8df059" y="150.742809"/>
     <use style="fill:#1f77b4;stroke:#1f77b4;" x="545.559844" xlink:href="#me13d8df059" y="152.809621"/>
     <use style="fill:#1f77b4;stroke:#1f77b4;" x="533.185243" xlink:href="#me13d8df059" y="154.744847"/>
     <use style="fill:#1f77b4;stroke:#1f77b4;" x="520.948175" xlink:href="#me13d8df059" y="156.791465"/>
     <use style="fill:#1f77b4;stroke:#1f77b4;" x="508.9529" xlink:href="#me13d8df059" y="158.652845"/>
     <use style="fill:#1f77b4;stroke:#1f77b4;" x="497.083533" xlink:href="#me13d8df059" y="160.709569"/>
     <use style="fill:#1f77b4;stroke:#1f77b4;" x="485.444002" xlink:href="#me13d8df059" y="162.415066"/>
     <use style="fill:#1f77b4;stroke:#1f77b4;" x="473.981843" xlink:href="#me13d8df059" y="164.181232"/>
     <use style="fill:#1f77b4;stroke:#1f77b4;" x="462.727026" xlink:href="#me13d8df059" y="165.692439"/>
     <use style="fill:#1f77b4;stroke:#1f77b4;" x="451.659905" xlink:href="#me13d8df059" y="166.974604"/>
     <use style="fill:#1f77b4;stroke:#1f77b4;" x="440.831521" xlink:href="#me13d8df059" y="167.958638"/>
     <use style="fill:#1f77b4;stroke:#1f77b4;" x="430.193162" xlink:href="#me13d8df059" y="168.772932"/>
     <use style="fill:#1f77b4;stroke:#1f77b4;" x="419.74486" xlink:href="#me13d8df059" y="169.373785"/>
     <use style="fill:#1f77b4;stroke:#1f77b4;" x="409.436422" xlink:href="#me13d8df059" y="169.871042"/>
     <use style="fill:#1f77b4;stroke:#1f77b4;" x="399.338157" xlink:href="#me13d8df059" y="170.16417"/>
     <use style="fill:#1f77b4;stroke:#1f77b4;" x="389.436699" xlink:href="#me13d8df059" y="170.410752"/>
     <use style="fill:#1f77b4;stroke:#1f77b4;" x="379.705182" xlink:href="#me13d8df059" y="170.463883"/>
     <use style="fill:#1f77b4;stroke:#1f77b4;" x="370.137686" xlink:href="#me13d8df059" y="170.314407"/>
     <use style="fill:#1f77b4;stroke:#1f77b4;" x="360.755554" xlink:href="#me13d8df059" y="170.084044"/>
     <use style="fill:#1f77b4;stroke:#1f77b4;" x="351.522155" xlink:href="#me13d8df059" y="169.674242"/>
     <use style="fill:#1f77b4;stroke:#1f77b4;" x="342.482371" xlink:href="#me13d8df059" y="169.314377"/>
     <use style="fill:#1f77b4;stroke:#1f77b4;" x="333.579573" xlink:href="#me13d8df059" y="168.806368"/>
     <use style="fill:#1f77b4;stroke:#1f77b4;" x="324.841978" xlink:href="#me13d8df059" y="168.08078"/>
     <use style="fill:#1f77b4;stroke:#1f77b4;" x="316.227641" xlink:href="#me13d8df059" y="167.383289"/>
     <use style="fill:#1f77b4;stroke:#1f77b4;" x="307.791675" xlink:href="#me13d8df059" y="166.427714"/>
     <use style="fill:#1f77b4;stroke:#1f77b4;" x="299.491153" xlink:href="#me13d8df059" y="165.3198"/>
     <use style="fill:#1f77b4;stroke:#1f77b4;" x="291.382829" xlink:href="#me13d8df059" y="164.309307"/>
     <use style="fill:#1f77b4;stroke:#1f77b4;" x="283.388454" xlink:href="#me13d8df059" y="163.118092"/>
     <use style="fill:#1f77b4;stroke:#1f77b4;" x="275.556012" xlink:href="#me13d8df059" y="161.766882"/>
     <use style="fill:#1f77b4;stroke:#1f77b4;" x="267.907269" xlink:href="#me13d8df059" y="160.548454"/>
     <use style="fill:#1f77b4;stroke:#1f77b4;" x="260.310089" xlink:href="#me13d8df059" y="159.219829"/>
     <use style="fill:#1f77b4;stroke:#1f77b4;" x="252.959498" xlink:href="#me13d8df059" y="157.763719"/>
     <use style="fill:#1f77b4;stroke:#1f77b4;" x="245.697835" xlink:href="#me13d8df059" y="156.406049"/>
     <use style="fill:#1f77b4;stroke:#1f77b4;" x="238.548324" xlink:href="#me13d8df059" y="154.820704"/>
     <use style="fill:#1f77b4;stroke:#1f77b4;" x="231.563943" xlink:href="#me13d8df059" y="153.343398"/>
     <use style="fill:#1f77b4;stroke:#1f77b4;" x="224.686255" xlink:href="#me13d8df059" y="151.705744"/>
     <use style="fill:#1f77b4;stroke:#1f77b4;" x="217.940436" xlink:href="#me13d8df059" y="149.82926"/>
     <use style="fill:#1f77b4;stroke:#1f77b4;" x="211.377182" xlink:href="#me13d8df059" y="148.256295"/>
     <use style="fill:#1f77b4;stroke:#1f77b4;" x="210.715781" xlink:href="#me13d8df059" y="148.165976"/>
     <use style="fill:#1f77b4;stroke:#1f77b4;" x="210.052002" xlink:href="#me13d8df059" y="148.029288"/>
     <use style="fill:#1f77b4;stroke:#1f77b4;" x="209.398804" xlink:href="#me13d8df059" y="147.860662"/>
     <use style="fill:#1f77b4;stroke:#1f77b4;" x="208.748939" xlink:href="#me13d8df059" y="147.669307"/>
     <use style="fill:#1f77b4;stroke:#1f77b4;" x="208.100879" xlink:href="#me13d8df059" y="147.508219"/>
     <use style="fill:#1f77b4;stroke:#1f77b4;" x="207.455175" xlink:href="#me13d8df059" y="147.329282"/>
     <use style="fill:#1f77b4;stroke:#1f77b4;" x="206.814219" xlink:href="#me13d8df059" y="147.166187"/>
     <use style="fill:#1f77b4;stroke:#1f77b4;" x="206.174942" xlink:href="#me13d8df059" y="146.995666"/>
     <use style="fill:#1f77b4;stroke:#1f77b4;" x="205.539492" xlink:href="#me13d8df059" y="146.841248"/>
     <use style="fill:#1f77b4;stroke:#1f77b4;" x="204.906826" xlink:href="#me13d8df059" y="146.674998"/>
     <use style="fill:#1f77b4;stroke:#1f77b4;" x="204.26848" xlink:href="#me13d8df059" y="146.489031"/>
     <use style="fill:#1f77b4;stroke:#1f77b4;" x="203.641079" xlink:href="#me13d8df059" y="146.317751"/>
     <use style="fill:#1f77b4;stroke:#1f77b4;" x="203.014962" xlink:href="#me13d8df059" y="146.1637"/>
     <use style="fill:#1f77b4;stroke:#1f77b4;" x="202.37885" xlink:href="#me13d8df059" y="146.012218"/>
     <use style="fill:#1f77b4;stroke:#1f77b4;" x="201.754231" xlink:href="#me13d8df059" y="145.844526"/>
     <use style="fill:#1f77b4;stroke:#1f77b4;" x="201.130906" xlink:href="#me13d8df059" y="145.716137"/>
     <use style="fill:#1f77b4;stroke:#1f77b4;" x="200.500131" xlink:href="#me13d8df059" y="145.557647"/>
     <use style="fill:#1f77b4;stroke:#1f77b4;" x="199.875367" xlink:href="#me13d8df059" y="145.425275"/>
     <use style="fill:#1f77b4;stroke:#1f77b4;" x="199.25343" xlink:href="#me13d8df059" y="145.240753"/>
     <use style="fill:#1f77b4;stroke:#1f77b4;" x="198.633905" xlink:href="#me13d8df059" y="145.097186"/>
     <use style="fill:#1f77b4;stroke:#1f77b4;" x="198.022756" xlink:href="#me13d8df059" y="144.963033"/>
     <use style="fill:#1f77b4;stroke:#1f77b4;" x="197.402064" xlink:href="#me13d8df059" y="144.817258"/>
     <use style="fill:#1f77b4;stroke:#1f77b4;" x="196.793005" xlink:href="#me13d8df059" y="144.68251"/>
     <use style="fill:#1f77b4;stroke:#1f77b4;" x="196.173064" xlink:href="#me13d8df059" y="144.529112"/>
     <use style="fill:#1f77b4;stroke:#1f77b4;" x="195.558203" xlink:href="#me13d8df059" y="144.372916"/>
     <use style="fill:#1f77b4;stroke:#1f77b4;" x="195.49614" xlink:href="#me13d8df059" y="144.361569"/>
     <use style="fill:#1f77b4;stroke:#1f77b4;" x="195.43472" xlink:href="#me13d8df059" y="144.350083"/>
     <use style="fill:#1f77b4;stroke:#1f77b4;" x="195.373806" xlink:href="#me13d8df059" y="144.335079"/>
     <use style="fill:#1f77b4;stroke:#1f77b4;" x="195.311889" xlink:href="#me13d8df059" y="144.324927"/>
     <use style="fill:#1f77b4;stroke:#1f77b4;" x="195.251443" xlink:href="#me13d8df059" y="144.310742"/>
     <use style="fill:#1f77b4;stroke:#1f77b4;" x="195.190065" xlink:href="#me13d8df059" y="144.297026"/>
     <use style="fill:#1f77b4;stroke:#1f77b4;" x="195.128478" xlink:href="#me13d8df059" y="144.284967"/>
     <use style="fill:#1f77b4;stroke:#1f77b4;" x="195.066901" xlink:href="#me13d8df059" y="144.269286"/>
     <use style="fill:#1f77b4;stroke:#1f77b4;" x="195.005594" xlink:href="#me13d8df059" y="144.256862"/>
     <use style="fill:#1f77b4;stroke:#1f77b4;" x="194.944011" xlink:href="#me13d8df059" y="144.248039"/>
     <use style="fill:#1f77b4;stroke:#1f77b4;" x="194.882694" xlink:href="#me13d8df059" y="144.232624"/>
     <use style="fill:#1f77b4;stroke:#1f77b4;" x="194.821679" xlink:href="#me13d8df059" y="144.219575"/>
     <use style="fill:#1f77b4;stroke:#1f77b4;" x="194.759663" xlink:href="#me13d8df059" y="144.205503"/>
     <use style="fill:#1f77b4;stroke:#1f77b4;" x="194.697551" xlink:href="#me13d8df059" y="144.196755"/>
     <use style="fill:#1f77b4;stroke:#1f77b4;" x="194.635203" xlink:href="#me13d8df059" y="144.183203"/>
     <use style="fill:#1f77b4;stroke:#1f77b4;" x="194.576238" xlink:href="#me13d8df059" y="144.171079"/>
     <use style="fill:#1f77b4;stroke:#1f77b4;" x="194.515597" xlink:href="#me13d8df059" y="144.156917"/>
     <use style="fill:#1f77b4;stroke:#1f77b4;" x="194.453683" xlink:href="#me13d8df059" y="144.142116"/>
     <use style="fill:#1f77b4;stroke:#1f77b4;" x="194.392531" xlink:href="#me13d8df059" y="144.132176"/>
     <use style="fill:#1f77b4;stroke:#1f77b4;" x="194.331359" xlink:href="#me13d8df059" y="144.118722"/>
     <use style="fill:#1f77b4;stroke:#1f77b4;" x="194.270955" xlink:href="#me13d8df059" y="144.106465"/>
     <use style="fill:#1f77b4;stroke:#1f77b4;" x="194.209707" xlink:href="#me13d8df059" y="144.093236"/>
     <use style="fill:#1f77b4;stroke:#1f77b4;" x="194.148295" xlink:href="#me13d8df059" y="144.080646"/>
     <use style="fill:#1f77b4;stroke:#1f77b4;" x="194.086208" xlink:href="#me13d8df059" y="144.06704"/>
    </g>
   </g>
   <g id="patch_3">
    <path d="M 35.304688 277.111219 
L 35.304688 10.999219 
" style="fill:none;stroke:#000000;stroke-linecap:square;stroke-linejoin:miter;stroke-width:0.8;"/>
   </g>
   <g id="patch_4">
    <path d="M 392.424688 277.111219 
L 392.424688 10.999219 
" style="fill:none;stroke:#000000;stroke-linecap:square;stroke-linejoin:miter;stroke-width:0.8;"/>
   </g>
   <g id="patch_5">
    <path d="M 35.304687 277.111219 
L 392.424688 277.111219 
" style="fill:none;stroke:#000000;stroke-linecap:square;stroke-linejoin:miter;stroke-width:0.8;"/>
   </g>
   <g id="patch_6">
    <path d="M 35.304687 10.999219 
L 392.424688 10.999219 
" style="fill:none;stroke:#000000;stroke-linecap:square;stroke-linejoin:miter;stroke-width:0.8;"/>
   </g>
   <g id="text_20">
    <g clip-path="url(#p20f6326f87)">
     <!-- 2.000 -->
     <g style="fill:#404688;" transform="translate(184.628547 131.681706)rotate(-325.478469)scale(0.06 -0.06)">
      <defs>
       <path d="M 10.6875 12.40625 
L 21 12.40625 
L 21 0 
L 10.6875 0 
z
" id="DejaVuSans-46"/>
      </defs>
      <use xlink:href="#DejaVuSans-50"/>
      <use x="63.623047" xlink:href="#DejaVuSans-46"/>
      <use x="95.410156" xlink:href="#DejaVuSans-48"/>
      <use x="159.033203" xlink:href="#DejaVuSans-48"/>
      <use x="222.65625" xlink:href="#DejaVuSans-48"/>
     </g>
    </g>
   </g>
   <g id="text_21">
    <g clip-path="url(#p20f6326f87)">
     <!-- 2.500 -->
     <g style="fill:#39558c;" transform="translate(145.779833 123.570763)rotate(-0.788049)scale(0.06 -0.06)">
      <use xlink:href="#DejaVuSans-50"/>
      <use x="63.623047" xlink:href="#DejaVuSans-46"/>
      <use x="95.410156" xlink:href="#DejaVuSans-53"/>
      <use x="159.033203" xlink:href="#DejaVuSans-48"/>
      <use x="222.65625" xlink:href="#DejaVuSans-48"/>
     </g>
    </g>
   </g>
   <g id="text_22">
    <g clip-path="url(#p20f6326f87)">
     <!-- 3.000 -->
     <g style="fill:#33638d;" transform="translate(169.039481 116.570269)rotate(-343.355523)scale(0.06 -0.06)">
      <defs>
       <path d="M 40.578125 39.3125 
Q 47.65625 37.796875 51.625 33 
Q 55.609375 28.21875 55.609375 21.1875 
Q 55.609375 10.40625 48.1875 4.484375 
Q 40.765625 -1.421875 27.09375 -1.421875 
Q 22.515625 -1.421875 17.65625 -0.515625 
Q 12.796875 0.390625 7.625 2.203125 
L 7.625 11.71875 
Q 11.71875 9.328125 16.59375 8.109375 
Q 21.484375 6.890625 26.8125 6.890625 
Q 36.078125 6.890625 40.9375 10.546875 
Q 45.796875 14.203125 45.796875 21.1875 
Q 45.796875 27.640625 41.28125 31.265625 
Q 36.765625 34.90625 28.71875 34.90625 
L 20.21875 34.90625 
L 20.21875 43.015625 
L 29.109375 43.015625 
Q 36.375 43.015625 40.234375 45.921875 
Q 44.09375 48.828125 44.09375 54.296875 
Q 44.09375 59.90625 40.109375 62.90625 
Q 36.140625 65.921875 28.71875 65.921875 
Q 24.65625 65.921875 20.015625 65.03125 
Q 15.375 64.15625 9.8125 62.3125 
L 9.8125 71.09375 
Q 15.4375 72.65625 20.34375 73.4375 
Q 25.25 74.21875 29.59375 74.21875 
Q 40.828125 74.21875 47.359375 69.109375 
Q 53.90625 64.015625 53.90625 55.328125 
Q 53.90625 49.265625 50.4375 45.09375 
Q 46.96875 40.921875 40.578125 39.3125 
z
" id="DejaVuSans-51"/>
      </defs>
      <use xlink:href="#DejaVuSans-51"/>
      <use x="63.623047" xlink:href="#DejaVuSans-46"/>
      <use x="95.410156" xlink:href="#DejaVuSans-48"/>
      <use x="159.033203" xlink:href="#DejaVuSans-48"/>
      <use x="222.65625" xlink:href="#DejaVuSans-48"/>
     </g>
    </g>
   </g>
   <g id="text_23">
    <g clip-path="url(#p20f6326f87)">
     <!-- 3.500 -->
     <g style="fill:#2d718e;" transform="translate(62.459398 172.558248)rotate(-1.029956)scale(0.06 -0.06)">
      <use xlink:href="#DejaVuSans-51"/>
      <use x="63.623047" xlink:href="#DejaVuSans-46"/>
      <use x="95.410156" xlink:href="#DejaVuSans-53"/>
      <use x="159.033203" xlink:href="#DejaVuSans-48"/>
      <use x="222.65625" xlink:href="#DejaVuSans-48"/>
     </g>
    </g>
   </g>
   <g id="text_24">
    <g clip-path="url(#p20f6326f87)">
     <!-- 4.000 -->
     <g style="fill:#287d8e;" transform="translate(157.502156 113.817705)rotate(-349.240969)scale(0.06 -0.06)">
      <defs>
       <path d="M 37.796875 64.3125 
L 12.890625 25.390625 
L 37.796875 25.390625 
z
M 35.203125 72.90625 
L 47.609375 72.90625 
L 47.609375 25.390625 
L 58.015625 25.390625 
L 58.015625 17.1875 
L 47.609375 17.1875 
L 47.609375 0 
L 37.796875 0 
L 37.796875 17.1875 
L 4.890625 17.1875 
L 4.890625 26.703125 
z
" id="DejaVuSans-52"/>
      </defs>
      <use xlink:href="#DejaVuSans-52"/>
      <use x="63.623047" xlink:href="#DejaVuSans-46"/>
      <use x="95.410156" xlink:href="#DejaVuSans-48"/>
      <use x="159.033203" xlink:href="#DejaVuSans-48"/>
      <use x="222.65625" xlink:href="#DejaVuSans-48"/>
     </g>
    </g>
   </g>
   <g id="text_25">
    <g clip-path="url(#p20f6326f87)">
     <!-- 4.500 -->
     <g style="fill:#238a8d;" transform="translate(157.515176 111.868639)rotate(-345.958336)scale(0.06 -0.06)">
      <use xlink:href="#DejaVuSans-52"/>
      <use x="63.623047" xlink:href="#DejaVuSans-46"/>
      <use x="95.410156" xlink:href="#DejaVuSans-53"/>
      <use x="159.033203" xlink:href="#DejaVuSans-48"/>
      <use x="222.65625" xlink:href="#DejaVuSans-48"/>
     </g>
    </g>
   </g>
   <g id="text_26">
    <g clip-path="url(#p20f6326f87)">
     <!-- 5.000 -->
     <g style="fill:#1f968b;" transform="translate(145.610897 108.776509)rotate(-352.18539)scale(0.06 -0.06)">
      <use xlink:href="#DejaVuSans-53"/>
      <use x="63.623047" xlink:href="#DejaVuSans-46"/>
      <use x="95.410156" xlink:href="#DejaVuSans-48"/>
      <use x="159.033203" xlink:href="#DejaVuSans-48"/>
      <use x="222.65625" xlink:href="#DejaVuSans-48"/>
     </g>
    </g>
   </g>
   <g id="text_27">
    <g clip-path="url(#p20f6326f87)">
     <!-- 5.500 -->
     <g style="fill:#20a386;" transform="translate(145.645379 108.845212)rotate(-355.047205)scale(0.06 -0.06)">
      <use xlink:href="#DejaVuSans-53"/>
      <use x="63.623047" xlink:href="#DejaVuSans-46"/>
      <use x="95.410156" xlink:href="#DejaVuSans-53"/>
      <use x="159.033203" xlink:href="#DejaVuSans-48"/>
      <use x="222.65625" xlink:href="#DejaVuSans-48"/>
     </g>
    </g>
   </g>
   <g id="text_28">
    <g clip-path="url(#p20f6326f87)">
     <!-- 6.000 -->
     <g style="fill:#29af7f;" transform="translate(98.156888 176.829182)rotate(-0.561523)scale(0.06 -0.06)">
      <defs>
       <path d="M 33.015625 40.375 
Q 26.375 40.375 22.484375 35.828125 
Q 18.609375 31.296875 18.609375 23.390625 
Q 18.609375 15.53125 22.484375 10.953125 
Q 26.375 6.390625 33.015625 6.390625 
Q 39.65625 6.390625 43.53125 10.953125 
Q 47.40625 15.53125 47.40625 23.390625 
Q 47.40625 31.296875 43.53125 35.828125 
Q 39.65625 40.375 33.015625 40.375 
z
M 52.59375 71.296875 
L 52.59375 62.3125 
Q 48.875 64.0625 45.09375 64.984375 
Q 41.3125 65.921875 37.59375 65.921875 
Q 27.828125 65.921875 22.671875 59.328125 
Q 17.53125 52.734375 16.796875 39.40625 
Q 19.671875 43.65625 24.015625 45.921875 
Q 28.375 48.1875 33.59375 48.1875 
Q 44.578125 48.1875 50.953125 41.515625 
Q 57.328125 34.859375 57.328125 23.390625 
Q 57.328125 12.15625 50.6875 5.359375 
Q 44.046875 -1.421875 33.015625 -1.421875 
Q 20.359375 -1.421875 13.671875 8.265625 
Q 6.984375 17.96875 6.984375 36.375 
Q 6.984375 53.65625 15.1875 63.9375 
Q 23.390625 74.21875 37.203125 74.21875 
Q 40.921875 74.21875 44.703125 73.484375 
Q 48.484375 72.75 52.59375 71.296875 
z
" id="DejaVuSans-54"/>
      </defs>
      <use xlink:href="#DejaVuSans-54"/>
      <use x="63.623047" xlink:href="#DejaVuSans-46"/>
      <use x="95.410156" xlink:href="#DejaVuSans-48"/>
      <use x="159.033203" xlink:href="#DejaVuSans-48"/>
      <use x="222.65625" xlink:href="#DejaVuSans-48"/>
     </g>
    </g>
   </g>
   <g id="text_29">
    <g clip-path="url(#p20f6326f87)">
     <!-- 6.500 -->
     <g style="fill:#3dbc74;" transform="translate(121.919928 177.715492)rotate(-358.971975)scale(0.06 -0.06)">
      <use xlink:href="#DejaVuSans-54"/>
      <use x="63.623047" xlink:href="#DejaVuSans-46"/>
      <use x="95.410156" xlink:href="#DejaVuSans-53"/>
      <use x="159.033203" xlink:href="#DejaVuSans-48"/>
      <use x="222.65625" xlink:href="#DejaVuSans-48"/>
     </g>
    </g>
   </g>
   <g id="text_30">
    <g clip-path="url(#p20f6326f87)">
     <!-- 7.000 -->
     <g style="fill:#56c667;" transform="translate(145.615334 107.38536)rotate(-352.683431)scale(0.06 -0.06)">
      <defs>
       <path d="M 8.203125 72.90625 
L 55.078125 72.90625 
L 55.078125 68.703125 
L 28.609375 0 
L 18.3125 0 
L 43.21875 64.59375 
L 8.203125 64.59375 
z
" id="DejaVuSans-55"/>
      </defs>
      <use xlink:href="#DejaVuSans-55"/>
      <use x="63.623047" xlink:href="#DejaVuSans-46"/>
      <use x="95.410156" xlink:href="#DejaVuSans-48"/>
      <use x="159.033203" xlink:href="#DejaVuSans-48"/>
      <use x="222.65625" xlink:href="#DejaVuSans-48"/>
     </g>
    </g>
   </g>
   <g id="text_31">
    <g clip-path="url(#p20f6326f87)">
     <!-- 7.500 -->
     <g style="fill:#75d054;" transform="translate(145.607765 106.880728)rotate(-351.778917)scale(0.06 -0.06)">
      <use xlink:href="#DejaVuSans-55"/>
      <use x="63.623047" xlink:href="#DejaVuSans-46"/>
      <use x="95.410156" xlink:href="#DejaVuSans-53"/>
      <use x="159.033203" xlink:href="#DejaVuSans-48"/>
      <use x="222.65625" xlink:href="#DejaVuSans-48"/>
     </g>
    </g>
   </g>
   <g id="text_32">
    <g clip-path="url(#p20f6326f87)">
     <!-- 8.000 -->
     <g style="fill:#95d840;" transform="translate(157.527971 108.458383)rotate(-353.494483)scale(0.06 -0.06)">
      <defs>
       <path d="M 31.78125 34.625 
Q 24.75 34.625 20.71875 30.859375 
Q 16.703125 27.09375 16.703125 20.515625 
Q 16.703125 13.921875 20.71875 10.15625 
Q 24.75 6.390625 31.78125 6.390625 
Q 38.8125 6.390625 42.859375 10.171875 
Q 46.921875 13.96875 46.921875 20.515625 
Q 46.921875 27.09375 42.890625 30.859375 
Q 38.875 34.625 31.78125 34.625 
z
M 21.921875 38.8125 
Q 15.578125 40.375 12.03125 44.71875 
Q 8.5 49.078125 8.5 55.328125 
Q 8.5 64.0625 14.71875 69.140625 
Q 20.953125 74.21875 31.78125 74.21875 
Q 42.671875 74.21875 48.875 69.140625 
Q 55.078125 64.0625 55.078125 55.328125 
Q 55.078125 49.078125 51.53125 44.71875 
Q 48 40.375 41.703125 38.8125 
Q 48.828125 37.15625 52.796875 32.3125 
Q 56.78125 27.484375 56.78125 20.515625 
Q 56.78125 9.90625 50.3125 4.234375 
Q 43.84375 -1.421875 31.78125 -1.421875 
Q 19.734375 -1.421875 13.25 4.234375 
Q 6.78125 9.90625 6.78125 20.515625 
Q 6.78125 27.484375 10.78125 32.3125 
Q 14.796875 37.15625 21.921875 38.8125 
z
M 18.3125 54.390625 
Q 18.3125 48.734375 21.84375 45.5625 
Q 25.390625 42.390625 31.78125 42.390625 
Q 38.140625 42.390625 41.71875 45.5625 
Q 45.3125 48.734375 45.3125 54.390625 
Q 45.3125 60.0625 41.71875 63.234375 
Q 38.140625 66.40625 31.78125 66.40625 
Q 25.390625 66.40625 21.84375 63.234375 
Q 18.3125 60.0625 18.3125 54.390625 
z
" id="DejaVuSans-56"/>
      </defs>
      <use xlink:href="#DejaVuSans-56"/>
      <use x="63.623047" xlink:href="#DejaVuSans-46"/>
      <use x="95.410156" xlink:href="#DejaVuSans-48"/>
      <use x="159.033203" xlink:href="#DejaVuSans-48"/>
      <use x="222.65625" xlink:href="#DejaVuSans-48"/>
     </g>
    </g>
   </g>
   <g id="text_33">
    <g clip-path="url(#p20f6326f87)">
     <!-- 8.500 -->
     <g style="fill:#bade28;" transform="translate(157.52305 108.212023)rotate(-353.052717)scale(0.06 -0.06)">
      <use xlink:href="#DejaVuSans-56"/>
      <use x="63.623047" xlink:href="#DejaVuSans-46"/>
      <use x="95.410156" xlink:href="#DejaVuSans-53"/>
      <use x="159.033203" xlink:href="#DejaVuSans-48"/>
      <use x="222.65625" xlink:href="#DejaVuSans-48"/>
     </g>
    </g>
   </g>
   <g id="text_34">
    <g clip-path="url(#p20f6326f87)">
     <!-- 9.000 -->
     <g style="fill:#dde318;" transform="translate(157.517085 107.939617)rotate(-352.440269)scale(0.06 -0.06)">
      <defs>
       <path d="M 10.984375 1.515625 
L 10.984375 10.5 
Q 14.703125 8.734375 18.5 7.8125 
Q 22.3125 6.890625 25.984375 6.890625 
Q 35.75 6.890625 40.890625 13.453125 
Q 46.046875 20.015625 46.78125 33.40625 
Q 43.953125 29.203125 39.59375 26.953125 
Q 35.25 24.703125 29.984375 24.703125 
Q 19.046875 24.703125 12.671875 31.3125 
Q 6.296875 37.9375 6.296875 49.421875 
Q 6.296875 60.640625 12.9375 67.421875 
Q 19.578125 74.21875 30.609375 74.21875 
Q 43.265625 74.21875 49.921875 64.515625 
Q 56.59375 54.828125 56.59375 36.375 
Q 56.59375 19.140625 48.40625 8.859375 
Q 40.234375 -1.421875 26.421875 -1.421875 
Q 22.703125 -1.421875 18.890625 -0.6875 
Q 15.09375 0.046875 10.984375 1.515625 
z
M 30.609375 32.421875 
Q 37.25 32.421875 41.125 36.953125 
Q 45.015625 41.5 45.015625 49.421875 
Q 45.015625 57.28125 41.125 61.84375 
Q 37.25 66.40625 30.609375 66.40625 
Q 23.96875 66.40625 20.09375 61.84375 
Q 16.21875 57.28125 16.21875 49.421875 
Q 16.21875 41.5 20.09375 36.953125 
Q 23.96875 32.421875 30.609375 32.421875 
z
" id="DejaVuSans-57"/>
      </defs>
      <use xlink:href="#DejaVuSans-57"/>
      <use x="63.623047" xlink:href="#DejaVuSans-46"/>
      <use x="95.410156" xlink:href="#DejaVuSans-48"/>
      <use x="159.033203" xlink:href="#DejaVuSans-48"/>
      <use x="222.65625" xlink:href="#DejaVuSans-48"/>
     </g>
    </g>
   </g>
   <g id="text_35">
    <g clip-path="url(#p20f6326f87)">
     <!-- 9.500 -->
     <g style="fill:#fde725;" transform="translate(157.511387 107.651588)rotate(-351.725745)scale(0.06 -0.06)">
      <use xlink:href="#DejaVuSans-57"/>
      <use x="63.623047" xlink:href="#DejaVuSans-46"/>
      <use x="95.410156" xlink:href="#DejaVuSans-53"/>
      <use x="159.033203" xlink:href="#DejaVuSans-48"/>
      <use x="222.65625" xlink:href="#DejaVuSans-48"/>
     </g>
    </g>
   </g>
   <g id="text_36">
    <g clip-path="url(#p20f6326f87)">
     <!-- 10.000 -->
     <g style="fill:#440154;" transform="translate(168.482388 106.580907)rotate(-340.229301)scale(0.06 -0.06)">
      <use xlink:href="#DejaVuSans-49"/>
      <use x="63.623047" xlink:href="#DejaVuSans-48"/>
      <use x="127.246094" xlink:href="#DejaVuSans-46"/>
      <use x="159.033203" xlink:href="#DejaVuSans-48"/>
      <use x="222.65625" xlink:href="#DejaVuSans-48"/>
      <use x="286.279297" xlink:href="#DejaVuSans-48"/>
     </g>
    </g>
   </g>
   <g id="text_37">
    <g clip-path="url(#p20f6326f87)">
     <!-- 100.000 -->
     <g style="fill:#440154;" transform="translate(46.828091 219.213039)rotate(-3.431517)scale(0.06 -0.06)">
      <use xlink:href="#DejaVuSans-49"/>
      <use x="63.623047" xlink:href="#DejaVuSans-48"/>
      <use x="127.246094" xlink:href="#DejaVuSans-48"/>
      <use x="190.869141" xlink:href="#DejaVuSans-46"/>
      <use x="222.65625" xlink:href="#DejaVuSans-48"/>
      <use x="286.279297" xlink:href="#DejaVuSans-48"/>
      <use x="349.902344" xlink:href="#DejaVuSans-48"/>
     </g>
    </g>
   </g>
   <g id="text_38">
    <g clip-path="url(#p20f6326f87)">
     <!-- 1000.000 -->
     <g style="fill:#440154;" transform="translate(188.607796 98.217626)rotate(-331.318487)scale(0.06 -0.06)">
      <use xlink:href="#DejaVuSans-49"/>
      <use x="63.623047" xlink:href="#DejaVuSans-48"/>
      <use x="127.246094" xlink:href="#DejaVuSans-48"/>
      <use x="190.869141" xlink:href="#DejaVuSans-48"/>
      <use x="254.492188" xlink:href="#DejaVuSans-46"/>
      <use x="286.279297" xlink:href="#DejaVuSans-48"/>
      <use x="349.902344" xlink:href="#DejaVuSans-48"/>
      <use x="413.525391" xlink:href="#DejaVuSans-48"/>
     </g>
    </g>
   </g>
   <g id="text_39">
    <g clip-path="url(#p20f6326f87)">
     <!-- 10000.000 -->
     <g style="fill:#440154;" transform="translate(30.319174 264.72232)rotate(-13.331556)scale(0.06 -0.06)">
      <use xlink:href="#DejaVuSans-49"/>
      <use x="63.623047" xlink:href="#DejaVuSans-48"/>
      <use x="127.246094" xlink:href="#DejaVuSans-48"/>
      <use x="190.869141" xlink:href="#DejaVuSans-48"/>
      <use x="254.492188" xlink:href="#DejaVuSans-48"/>
      <use x="318.115234" xlink:href="#DejaVuSans-46"/>
      <use x="349.902344" xlink:href="#DejaVuSans-48"/>
      <use x="413.525391" xlink:href="#DejaVuSans-48"/>
      <use x="477.148438" xlink:href="#DejaVuSans-48"/>
     </g>
    </g>
   </g>
   <g id="text_40">
    <g clip-path="url(#p20f6326f87)">
     <!-- 100000.000 -->
     <g style="fill:#440154;" transform="translate(45.156715 45.463432)rotate(-351.579685)scale(0.06 -0.06)">
      <use xlink:href="#DejaVuSans-49"/>
      <use x="63.623047" xlink:href="#DejaVuSans-48"/>
      <use x="127.246094" xlink:href="#DejaVuSans-48"/>
      <use x="190.869141" xlink:href="#DejaVuSans-48"/>
      <use x="254.492188" xlink:href="#DejaVuSans-48"/>
      <use x="318.115234" xlink:href="#DejaVuSans-48"/>
      <use x="381.738281" xlink:href="#DejaVuSans-46"/>
      <use x="413.525391" xlink:href="#DejaVuSans-48"/>
      <use x="477.148438" xlink:href="#DejaVuSans-48"/>
      <use x="540.771484" xlink:href="#DejaVuSans-48"/>
     </g>
    </g>
   </g>
   <g id="text_41">
    <g clip-path="url(#p20f6326f87)">
     <!-- 1000000.000 -->
     <g style="fill:#450457;" transform="translate(236.40835 94.308735)rotate(-310.09366)scale(0.06 -0.06)">
      <use xlink:href="#DejaVuSans-49"/>
      <use x="63.623047" xlink:href="#DejaVuSans-48"/>
      <use x="127.246094" xlink:href="#DejaVuSans-48"/>
      <use x="190.869141" xlink:href="#DejaVuSans-48"/>
      <use x="254.492188" xlink:href="#DejaVuSans-48"/>
      <use x="318.115234" xlink:href="#DejaVuSans-48"/>
      <use x="381.738281" xlink:href="#DejaVuSans-48"/>
      <use x="445.361328" xlink:href="#DejaVuSans-46"/>
      <use x="477.148438" xlink:href="#DejaVuSans-48"/>
      <use x="540.771484" xlink:href="#DejaVuSans-48"/>
      <use x="604.394531" xlink:href="#DejaVuSans-48"/>
     </g>
    </g>
   </g>
   <g id="text_42">
    <g clip-path="url(#p20f6326f87)">
     <!-- 10000000.000 -->
     <g style="fill:#482475;" transform="translate(247.663469 92.218246)rotate(-307.697188)scale(0.06 -0.06)">
      <use xlink:href="#DejaVuSans-49"/>
      <use x="63.623047" xlink:href="#DejaVuSans-48"/>
      <use x="127.246094" xlink:href="#DejaVuSans-48"/>
      <use x="190.869141" xlink:href="#DejaVuSans-48"/>
      <use x="254.492188" xlink:href="#DejaVuSans-48"/>
      <use x="318.115234" xlink:href="#DejaVuSans-48"/>
      <use x="381.738281" xlink:href="#DejaVuSans-48"/>
      <use x="445.361328" xlink:href="#DejaVuSans-48"/>
      <use x="508.984375" xlink:href="#DejaVuSans-46"/>
      <use x="540.771484" xlink:href="#DejaVuSans-48"/>
      <use x="604.394531" xlink:href="#DejaVuSans-48"/>
      <use x="668.017578" xlink:href="#DejaVuSans-48"/>
     </g>
    </g>
   </g>
   <g id="text_43">
    <g clip-path="url(#p20f6326f87)">
     <!-- 100000000.000 -->
     <g style="fill:#fde725;" transform="translate(263.554933 98.646686)rotate(-304.21906)scale(0.06 -0.06)">
      <use xlink:href="#DejaVuSans-49"/>
      <use x="63.623047" xlink:href="#DejaVuSans-48"/>
      <use x="127.246094" xlink:href="#DejaVuSans-48"/>
      <use x="190.869141" xlink:href="#DejaVuSans-48"/>
      <use x="254.492188" xlink:href="#DejaVuSans-48"/>
      <use x="318.115234" xlink:href="#DejaVuSans-48"/>
      <use x="381.738281" xlink:href="#DejaVuSans-48"/>
      <use x="445.361328" xlink:href="#DejaVuSans-48"/>
      <use x="508.984375" xlink:href="#DejaVuSans-48"/>
      <use x="572.607422" xlink:href="#DejaVuSans-46"/>
      <use x="604.394531" xlink:href="#DejaVuSans-48"/>
      <use x="668.017578" xlink:href="#DejaVuSans-48"/>
      <use x="731.640625" xlink:href="#DejaVuSans-48"/>
     </g>
    </g>
   </g>
  </g>
 </g>
 <defs>
  <clipPath id="p20f6326f87">
   <rect height="266.112" width="357.12" x="35.304688" y="10.999219"/>
  </clipPath>
 </defs>
</svg>
