<?xml version="1.0" encoding="utf-8" standalone="no"?>
<!DOCTYPE svg PUBLIC "-//W3C//DTD SVG 1.1//EN"
  "http://www.w3.org/Graphics/SVG/1.1/DTD/svg11.dtd">
<!-- Created with matplotlib (https://matplotlib.org/) -->
<svg height="610.001144pt" version="1.1" viewBox="0 0 1185.590987 610.001144" width="1185.590987pt" xmlns="http://www.w3.org/2000/svg" xmlns:xlink="http://www.w3.org/1999/xlink">
 <metadata>
  <rdf:RDF xmlns:cc="http://creativecommons.org/ns#" xmlns:dc="http://purl.org/dc/elements/1.1/" xmlns:rdf="http://www.w3.org/1999/02/22-rdf-syntax-ns#">
   <cc:Work>
    <dc:type rdf:resource="http://purl.org/dc/dcmitype/StillImage"/>
    <dc:date>2021-09-22T23:51:52.101238</dc:date>
    <dc:format>image/svg+xml</dc:format>
    <dc:creator>
     <cc:Agent>
      <dc:title>Matplotlib v3.3.1, https://matplotlib.org/</dc:title>
     </cc:Agent>
    </dc:creator>
   </cc:Work>
  </rdf:RDF>
 </metadata>
 <defs>
  <style type="text/css">*{stroke-linecap:butt;stroke-linejoin:round;}</style>
 </defs>
 <g id="figure_1">
  <g id="patch_1">
   <path d="M 0 610.001144 
L 1185.590987 610.001144 
L 1185.590987 0 
L 0 0 
z
" style="fill:#ffffff;"/>
  </g>
  <g id="axes_1">
   <g id="patch_2">
    <path d="M 56.028488 565.399219 
L 1172.028487 565.399219 
L 1172.028487 10.999219 
L 56.028488 10.999219 
z
" style="fill:#ffffff;"/>
   </g>
   <g id="matplotlib.axis_1">
    <g id="xtick_1">
     <g id="line2d_1">
      <defs>
       <path d="M 0 0 
L 0 3.5 
" id="m7be87503d9" style="stroke:#000000;stroke-width:0.8;"/>
      </defs>
      <g>
       <use style="stroke:#000000;stroke-width:0.8;" x="56.028488" xlink:href="#m7be87503d9" y="565.399219"/>
      </g>
     </g>
     <g id="text_1">
      <!-- −20 -->
      <g transform="translate(45.476144 579.997656)scale(0.1 -0.1)">
       <defs>
        <path d="M 10.59375 35.5 
L 73.1875 35.5 
L 73.1875 27.203125 
L 10.59375 27.203125 
z
" id="DejaVuSans-8722"/>
        <path d="M 19.1875 8.296875 
L 53.609375 8.296875 
L 53.609375 0 
L 7.328125 0 
L 7.328125 8.296875 
Q 12.9375 14.109375 22.625 23.890625 
Q 32.328125 33.6875 34.8125 36.53125 
Q 39.546875 41.84375 41.421875 45.53125 
Q 43.3125 49.21875 43.3125 52.78125 
Q 43.3125 58.59375 39.234375 62.25 
Q 35.15625 65.921875 28.609375 65.921875 
Q 23.96875 65.921875 18.8125 64.3125 
Q 13.671875 62.703125 7.8125 59.421875 
L 7.8125 69.390625 
Q 13.765625 71.78125 18.9375 73 
Q 24.125 74.21875 28.421875 74.21875 
Q 39.75 74.21875 46.484375 68.546875 
Q 53.21875 62.890625 53.21875 53.421875 
Q 53.21875 48.921875 51.53125 44.890625 
Q 49.859375 40.875 45.40625 35.40625 
Q 44.1875 33.984375 37.640625 27.21875 
Q 31.109375 20.453125 19.1875 8.296875 
z
" id="DejaVuSans-50"/>
        <path d="M 31.78125 66.40625 
Q 24.171875 66.40625 20.328125 58.90625 
Q 16.5 51.421875 16.5 36.375 
Q 16.5 21.390625 20.328125 13.890625 
Q 24.171875 6.390625 31.78125 6.390625 
Q 39.453125 6.390625 43.28125 13.890625 
Q 47.125 21.390625 47.125 36.375 
Q 47.125 51.421875 43.28125 58.90625 
Q 39.453125 66.40625 31.78125 66.40625 
z
M 31.78125 74.21875 
Q 44.046875 74.21875 50.515625 64.515625 
Q 56.984375 54.828125 56.984375 36.375 
Q 56.984375 17.96875 50.515625 8.265625 
Q 44.046875 -1.421875 31.78125 -1.421875 
Q 19.53125 -1.421875 13.0625 8.265625 
Q 6.59375 17.96875 6.59375 36.375 
Q 6.59375 54.828125 13.0625 64.515625 
Q 19.53125 74.21875 31.78125 74.21875 
z
" id="DejaVuSans-48"/>
       </defs>
       <use xlink:href="#DejaVuSans-8722"/>
       <use x="83.789062" xlink:href="#DejaVuSans-50"/>
       <use x="147.412109" xlink:href="#DejaVuSans-48"/>
      </g>
     </g>
    </g>
    <g id="xtick_2">
     <g id="line2d_2">
      <g>
       <use style="stroke:#000000;stroke-width:0.8;" x="180.028488" xlink:href="#m7be87503d9" y="565.399219"/>
      </g>
     </g>
     <g id="text_2">
      <!-- −15 -->
      <g transform="translate(169.476144 579.997656)scale(0.1 -0.1)">
       <defs>
        <path d="M 12.40625 8.296875 
L 28.515625 8.296875 
L 28.515625 63.921875 
L 10.984375 60.40625 
L 10.984375 69.390625 
L 28.421875 72.90625 
L 38.28125 72.90625 
L 38.28125 8.296875 
L 54.390625 8.296875 
L 54.390625 0 
L 12.40625 0 
z
" id="DejaVuSans-49"/>
        <path d="M 10.796875 72.90625 
L 49.515625 72.90625 
L 49.515625 64.59375 
L 19.828125 64.59375 
L 19.828125 46.734375 
Q 21.96875 47.46875 24.109375 47.828125 
Q 26.265625 48.1875 28.421875 48.1875 
Q 40.625 48.1875 47.75 41.5 
Q 54.890625 34.8125 54.890625 23.390625 
Q 54.890625 11.625 47.5625 5.09375 
Q 40.234375 -1.421875 26.90625 -1.421875 
Q 22.3125 -1.421875 17.546875 -0.640625 
Q 12.796875 0.140625 7.71875 1.703125 
L 7.71875 11.625 
Q 12.109375 9.234375 16.796875 8.0625 
Q 21.484375 6.890625 26.703125 6.890625 
Q 35.15625 6.890625 40.078125 11.328125 
Q 45.015625 15.765625 45.015625 23.390625 
Q 45.015625 31 40.078125 35.4375 
Q 35.15625 39.890625 26.703125 39.890625 
Q 22.75 39.890625 18.8125 39.015625 
Q 14.890625 38.140625 10.796875 36.28125 
z
" id="DejaVuSans-53"/>
       </defs>
       <use xlink:href="#DejaVuSans-8722"/>
       <use x="83.789062" xlink:href="#DejaVuSans-49"/>
       <use x="147.412109" xlink:href="#DejaVuSans-53"/>
      </g>
     </g>
    </g>
    <g id="xtick_3">
     <g id="line2d_3">
      <g>
       <use style="stroke:#000000;stroke-width:0.8;" x="304.028488" xlink:href="#m7be87503d9" y="565.399219"/>
      </g>
     </g>
     <g id="text_3">
      <!-- −10 -->
      <g transform="translate(293.476144 579.997656)scale(0.1 -0.1)">
       <use xlink:href="#DejaVuSans-8722"/>
       <use x="83.789062" xlink:href="#DejaVuSans-49"/>
       <use x="147.412109" xlink:href="#DejaVuSans-48"/>
      </g>
     </g>
    </g>
    <g id="xtick_4">
     <g id="line2d_4">
      <g>
       <use style="stroke:#000000;stroke-width:0.8;" x="428.028488" xlink:href="#m7be87503d9" y="565.399219"/>
      </g>
     </g>
     <g id="text_4">
      <!-- −5 -->
      <g transform="translate(420.657394 579.997656)scale(0.1 -0.1)">
       <use xlink:href="#DejaVuSans-8722"/>
       <use x="83.789062" xlink:href="#DejaVuSans-53"/>
      </g>
     </g>
    </g>
    <g id="xtick_5">
     <g id="line2d_5">
      <g>
       <use style="stroke:#000000;stroke-width:0.8;" x="552.028488" xlink:href="#m7be87503d9" y="565.399219"/>
      </g>
     </g>
     <g id="text_5">
      <!-- 0 -->
      <g transform="translate(548.847238 579.997656)scale(0.1 -0.1)">
       <use xlink:href="#DejaVuSans-48"/>
      </g>
     </g>
    </g>
    <g id="xtick_6">
     <g id="line2d_6">
      <g>
       <use style="stroke:#000000;stroke-width:0.8;" x="676.028488" xlink:href="#m7be87503d9" y="565.399219"/>
      </g>
     </g>
     <g id="text_6">
      <!-- 5 -->
      <g transform="translate(672.847238 579.997656)scale(0.1 -0.1)">
       <use xlink:href="#DejaVuSans-53"/>
      </g>
     </g>
    </g>
    <g id="xtick_7">
     <g id="line2d_7">
      <g>
       <use style="stroke:#000000;stroke-width:0.8;" x="800.028488" xlink:href="#m7be87503d9" y="565.399219"/>
      </g>
     </g>
     <g id="text_7">
      <!-- 10 -->
      <g transform="translate(793.665988 579.997656)scale(0.1 -0.1)">
       <use xlink:href="#DejaVuSans-49"/>
       <use x="63.623047" xlink:href="#DejaVuSans-48"/>
      </g>
     </g>
    </g>
    <g id="xtick_8">
     <g id="line2d_8">
      <g>
       <use style="stroke:#000000;stroke-width:0.8;" x="924.028488" xlink:href="#m7be87503d9" y="565.399219"/>
      </g>
     </g>
     <g id="text_8">
      <!-- 15 -->
      <g transform="translate(917.665988 579.997656)scale(0.1 -0.1)">
       <use xlink:href="#DejaVuSans-49"/>
       <use x="63.623047" xlink:href="#DejaVuSans-53"/>
      </g>
     </g>
    </g>
    <g id="xtick_9">
     <g id="line2d_9">
      <g>
       <use style="stroke:#000000;stroke-width:0.8;" x="1048.028488" xlink:href="#m7be87503d9" y="565.399219"/>
      </g>
     </g>
     <g id="text_9">
      <!-- 20 -->
      <g transform="translate(1041.665988 579.997656)scale(0.1 -0.1)">
       <use xlink:href="#DejaVuSans-50"/>
       <use x="63.623047" xlink:href="#DejaVuSans-48"/>
      </g>
     </g>
    </g>
    <g id="xtick_10">
     <g id="line2d_10">
      <g>
       <use style="stroke:#000000;stroke-width:0.8;" x="1172.028488" xlink:href="#m7be87503d9" y="565.399219"/>
      </g>
     </g>
     <g id="text_10">
      <!-- 25 -->
      <g transform="translate(1165.665988 579.997656)scale(0.1 -0.1)">
       <use xlink:href="#DejaVuSans-50"/>
       <use x="63.623047" xlink:href="#DejaVuSans-53"/>
      </g>
     </g>
    </g>
    <g id="text_11">
     <!-- 1st PC: 88.90 % -->
     <g transform="translate(545.308087 599.207444)scale(0.1728 -0.1728)">
      <defs>
       <path d="M 44.28125 53.078125 
L 44.28125 44.578125 
Q 40.484375 46.53125 36.375 47.5 
Q 32.28125 48.484375 27.875 48.484375 
Q 21.1875 48.484375 17.84375 46.4375 
Q 14.5 44.390625 14.5 40.28125 
Q 14.5 37.15625 16.890625 35.375 
Q 19.28125 33.59375 26.515625 31.984375 
L 29.59375 31.296875 
Q 39.15625 29.25 43.1875 25.515625 
Q 47.21875 21.78125 47.21875 15.09375 
Q 47.21875 7.46875 41.1875 3.015625 
Q 35.15625 -1.421875 24.609375 -1.421875 
Q 20.21875 -1.421875 15.453125 -0.5625 
Q 10.6875 0.296875 5.421875 2 
L 5.421875 11.28125 
Q 10.40625 8.6875 15.234375 7.390625 
Q 20.0625 6.109375 24.8125 6.109375 
Q 31.15625 6.109375 34.5625 8.28125 
Q 37.984375 10.453125 37.984375 14.40625 
Q 37.984375 18.0625 35.515625 20.015625 
Q 33.0625 21.96875 24.703125 23.78125 
L 21.578125 24.515625 
Q 13.234375 26.265625 9.515625 29.90625 
Q 5.8125 33.546875 5.8125 39.890625 
Q 5.8125 47.609375 11.28125 51.796875 
Q 16.75 56 26.8125 56 
Q 31.78125 56 36.171875 55.265625 
Q 40.578125 54.546875 44.28125 53.078125 
z
" id="DejaVuSans-115"/>
       <path d="M 18.3125 70.21875 
L 18.3125 54.6875 
L 36.8125 54.6875 
L 36.8125 47.703125 
L 18.3125 47.703125 
L 18.3125 18.015625 
Q 18.3125 11.328125 20.140625 9.421875 
Q 21.96875 7.515625 27.59375 7.515625 
L 36.8125 7.515625 
L 36.8125 0 
L 27.59375 0 
Q 17.1875 0 13.234375 3.875 
Q 9.28125 7.765625 9.28125 18.015625 
L 9.28125 47.703125 
L 2.6875 47.703125 
L 2.6875 54.6875 
L 9.28125 54.6875 
L 9.28125 70.21875 
z
" id="DejaVuSans-116"/>
       <path id="DejaVuSans-32"/>
       <path d="M 19.671875 64.796875 
L 19.671875 37.40625 
L 32.078125 37.40625 
Q 38.96875 37.40625 42.71875 40.96875 
Q 46.484375 44.53125 46.484375 51.125 
Q 46.484375 57.671875 42.71875 61.234375 
Q 38.96875 64.796875 32.078125 64.796875 
z
M 9.8125 72.90625 
L 32.078125 72.90625 
Q 44.34375 72.90625 50.609375 67.359375 
Q 56.890625 61.8125 56.890625 51.125 
Q 56.890625 40.328125 50.609375 34.8125 
Q 44.34375 29.296875 32.078125 29.296875 
L 19.671875 29.296875 
L 19.671875 0 
L 9.8125 0 
z
" id="DejaVuSans-80"/>
       <path d="M 64.40625 67.28125 
L 64.40625 56.890625 
Q 59.421875 61.53125 53.78125 63.8125 
Q 48.140625 66.109375 41.796875 66.109375 
Q 29.296875 66.109375 22.65625 58.46875 
Q 16.015625 50.828125 16.015625 36.375 
Q 16.015625 21.96875 22.65625 14.328125 
Q 29.296875 6.6875 41.796875 6.6875 
Q 48.140625 6.6875 53.78125 8.984375 
Q 59.421875 11.28125 64.40625 15.921875 
L 64.40625 5.609375 
Q 59.234375 2.09375 53.4375 0.328125 
Q 47.65625 -1.421875 41.21875 -1.421875 
Q 24.65625 -1.421875 15.125 8.703125 
Q 5.609375 18.84375 5.609375 36.375 
Q 5.609375 53.953125 15.125 64.078125 
Q 24.65625 74.21875 41.21875 74.21875 
Q 47.75 74.21875 53.53125 72.484375 
Q 59.328125 70.75 64.40625 67.28125 
z
" id="DejaVuSans-67"/>
       <path d="M 11.71875 12.40625 
L 22.015625 12.40625 
L 22.015625 0 
L 11.71875 0 
z
M 11.71875 51.703125 
L 22.015625 51.703125 
L 22.015625 39.3125 
L 11.71875 39.3125 
z
" id="DejaVuSans-58"/>
       <path d="M 31.78125 34.625 
Q 24.75 34.625 20.71875 30.859375 
Q 16.703125 27.09375 16.703125 20.515625 
Q 16.703125 13.921875 20.71875 10.15625 
Q 24.75 6.390625 31.78125 6.390625 
Q 38.8125 6.390625 42.859375 10.171875 
Q 46.921875 13.96875 46.921875 20.515625 
Q 46.921875 27.09375 42.890625 30.859375 
Q 38.875 34.625 31.78125 34.625 
z
M 21.921875 38.8125 
Q 15.578125 40.375 12.03125 44.71875 
Q 8.5 49.078125 8.5 55.328125 
Q 8.5 64.0625 14.71875 69.140625 
Q 20.953125 74.21875 31.78125 74.21875 
Q 42.671875 74.21875 48.875 69.140625 
Q 55.078125 64.0625 55.078125 55.328125 
Q 55.078125 49.078125 51.53125 44.71875 
Q 48 40.375 41.703125 38.8125 
Q 48.828125 37.15625 52.796875 32.3125 
Q 56.78125 27.484375 56.78125 20.515625 
Q 56.78125 9.90625 50.3125 4.234375 
Q 43.84375 -1.421875 31.78125 -1.421875 
Q 19.734375 -1.421875 13.25 4.234375 
Q 6.78125 9.90625 6.78125 20.515625 
Q 6.78125 27.484375 10.78125 32.3125 
Q 14.796875 37.15625 21.921875 38.8125 
z
M 18.3125 54.390625 
Q 18.3125 48.734375 21.84375 45.5625 
Q 25.390625 42.390625 31.78125 42.390625 
Q 38.140625 42.390625 41.71875 45.5625 
Q 45.3125 48.734375 45.3125 54.390625 
Q 45.3125 60.0625 41.71875 63.234375 
Q 38.140625 66.40625 31.78125 66.40625 
Q 25.390625 66.40625 21.84375 63.234375 
Q 18.3125 60.0625 18.3125 54.390625 
z
" id="DejaVuSans-56"/>
       <path d="M 10.6875 12.40625 
L 21 12.40625 
L 21 0 
L 10.6875 0 
z
" id="DejaVuSans-46"/>
       <path d="M 10.984375 1.515625 
L 10.984375 10.5 
Q 14.703125 8.734375 18.5 7.8125 
Q 22.3125 6.890625 25.984375 6.890625 
Q 35.75 6.890625 40.890625 13.453125 
Q 46.046875 20.015625 46.78125 33.40625 
Q 43.953125 29.203125 39.59375 26.953125 
Q 35.25 24.703125 29.984375 24.703125 
Q 19.046875 24.703125 12.671875 31.3125 
Q 6.296875 37.9375 6.296875 49.421875 
Q 6.296875 60.640625 12.9375 67.421875 
Q 19.578125 74.21875 30.609375 74.21875 
Q 43.265625 74.21875 49.921875 64.515625 
Q 56.59375 54.828125 56.59375 36.375 
Q 56.59375 19.140625 48.40625 8.859375 
Q 40.234375 -1.421875 26.421875 -1.421875 
Q 22.703125 -1.421875 18.890625 -0.6875 
Q 15.09375 0.046875 10.984375 1.515625 
z
M 30.609375 32.421875 
Q 37.25 32.421875 41.125 36.953125 
Q 45.015625 41.5 45.015625 49.421875 
Q 45.015625 57.28125 41.125 61.84375 
Q 37.25 66.40625 30.609375 66.40625 
Q 23.96875 66.40625 20.09375 61.84375 
Q 16.21875 57.28125 16.21875 49.421875 
Q 16.21875 41.5 20.09375 36.953125 
Q 23.96875 32.421875 30.609375 32.421875 
z
" id="DejaVuSans-57"/>
       <path d="M 72.703125 32.078125 
Q 68.453125 32.078125 66.03125 28.46875 
Q 63.625 24.859375 63.625 18.40625 
Q 63.625 12.0625 66.03125 8.421875 
Q 68.453125 4.78125 72.703125 4.78125 
Q 76.859375 4.78125 79.265625 8.421875 
Q 81.6875 12.0625 81.6875 18.40625 
Q 81.6875 24.8125 79.265625 28.4375 
Q 76.859375 32.078125 72.703125 32.078125 
z
M 72.703125 38.28125 
Q 80.421875 38.28125 84.953125 32.90625 
Q 89.5 27.546875 89.5 18.40625 
Q 89.5 9.28125 84.9375 3.921875 
Q 80.375 -1.421875 72.703125 -1.421875 
Q 64.890625 -1.421875 60.34375 3.921875 
Q 55.8125 9.28125 55.8125 18.40625 
Q 55.8125 27.59375 60.375 32.9375 
Q 64.9375 38.28125 72.703125 38.28125 
z
M 22.3125 68.015625 
Q 18.109375 68.015625 15.6875 64.375 
Q 13.28125 60.75 13.28125 54.390625 
Q 13.28125 47.953125 15.671875 44.328125 
Q 18.0625 40.71875 22.3125 40.71875 
Q 26.5625 40.71875 28.96875 44.328125 
Q 31.390625 47.953125 31.390625 54.390625 
Q 31.390625 60.6875 28.953125 64.34375 
Q 26.515625 68.015625 22.3125 68.015625 
z
M 66.40625 74.21875 
L 74.21875 74.21875 
L 28.609375 -1.421875 
L 20.796875 -1.421875 
z
M 22.3125 74.21875 
Q 30.03125 74.21875 34.609375 68.875 
Q 39.203125 63.53125 39.203125 54.390625 
Q 39.203125 45.171875 34.640625 39.84375 
Q 30.078125 34.515625 22.3125 34.515625 
Q 14.546875 34.515625 10.03125 39.859375 
Q 5.515625 45.21875 5.515625 54.390625 
Q 5.515625 63.484375 10.046875 68.84375 
Q 14.59375 74.21875 22.3125 74.21875 
z
" id="DejaVuSans-37"/>
      </defs>
      <use xlink:href="#DejaVuSans-49"/>
      <use x="63.623047" xlink:href="#DejaVuSans-115"/>
      <use x="115.722656" xlink:href="#DejaVuSans-116"/>
      <use x="154.931641" xlink:href="#DejaVuSans-32"/>
      <use x="186.71875" xlink:href="#DejaVuSans-80"/>
      <use x="247.021484" xlink:href="#DejaVuSans-67"/>
      <use x="316.845703" xlink:href="#DejaVuSans-58"/>
      <use x="350.537109" xlink:href="#DejaVuSans-32"/>
      <use x="382.324219" xlink:href="#DejaVuSans-56"/>
      <use x="445.947266" xlink:href="#DejaVuSans-56"/>
      <use x="509.570312" xlink:href="#DejaVuSans-46"/>
      <use x="541.357422" xlink:href="#DejaVuSans-57"/>
      <use x="604.980469" xlink:href="#DejaVuSans-48"/>
      <use x="668.603516" xlink:href="#DejaVuSans-32"/>
      <use x="700.390625" xlink:href="#DejaVuSans-37"/>
     </g>
    </g>
   </g>
   <g id="matplotlib.axis_2">
    <g id="ytick_1">
     <g id="line2d_11">
      <defs>
       <path d="M 0 0 
L -3.5 0 
" id="m128fb51c38" style="stroke:#000000;stroke-width:0.8;"/>
      </defs>
      <g>
       <use style="stroke:#000000;stroke-width:0.8;" x="56.028488" xlink:href="#m128fb51c38" y="565.399219"/>
      </g>
     </g>
     <g id="text_12">
      <!-- −20 -->
      <g transform="translate(27.9238 569.198438)scale(0.1 -0.1)">
       <use xlink:href="#DejaVuSans-8722"/>
       <use x="83.789062" xlink:href="#DejaVuSans-50"/>
       <use x="147.412109" xlink:href="#DejaVuSans-48"/>
      </g>
     </g>
    </g>
    <g id="ytick_2">
     <g id="line2d_12">
      <g>
       <use style="stroke:#000000;stroke-width:0.8;" x="56.028488" xlink:href="#m128fb51c38" y="496.099219"/>
      </g>
     </g>
     <g id="text_13">
      <!-- −15 -->
      <g transform="translate(27.9238 499.898438)scale(0.1 -0.1)">
       <use xlink:href="#DejaVuSans-8722"/>
       <use x="83.789062" xlink:href="#DejaVuSans-49"/>
       <use x="147.412109" xlink:href="#DejaVuSans-53"/>
      </g>
     </g>
    </g>
    <g id="ytick_3">
     <g id="line2d_13">
      <g>
       <use style="stroke:#000000;stroke-width:0.8;" x="56.028488" xlink:href="#m128fb51c38" y="426.799219"/>
      </g>
     </g>
     <g id="text_14">
      <!-- −10 -->
      <g transform="translate(27.9238 430.598438)scale(0.1 -0.1)">
       <use xlink:href="#DejaVuSans-8722"/>
       <use x="83.789062" xlink:href="#DejaVuSans-49"/>
       <use x="147.412109" xlink:href="#DejaVuSans-48"/>
      </g>
     </g>
    </g>
    <g id="ytick_4">
     <g id="line2d_14">
      <g>
       <use style="stroke:#000000;stroke-width:0.8;" x="56.028488" xlink:href="#m128fb51c38" y="357.499219"/>
      </g>
     </g>
     <g id="text_15">
      <!-- −5 -->
      <g transform="translate(34.2863 361.298438)scale(0.1 -0.1)">
       <use xlink:href="#DejaVuSans-8722"/>
       <use x="83.789062" xlink:href="#DejaVuSans-53"/>
      </g>
     </g>
    </g>
    <g id="ytick_5">
     <g id="line2d_15">
      <g>
       <use style="stroke:#000000;stroke-width:0.8;" x="56.028488" xlink:href="#m128fb51c38" y="288.199219"/>
      </g>
     </g>
     <g id="text_16">
      <!-- 0 -->
      <g transform="translate(42.665988 291.998438)scale(0.1 -0.1)">
       <use xlink:href="#DejaVuSans-48"/>
      </g>
     </g>
    </g>
    <g id="ytick_6">
     <g id="line2d_16">
      <g>
       <use style="stroke:#000000;stroke-width:0.8;" x="56.028488" xlink:href="#m128fb51c38" y="218.899219"/>
      </g>
     </g>
     <g id="text_17">
      <!-- 5 -->
      <g transform="translate(42.665988 222.698438)scale(0.1 -0.1)">
       <use xlink:href="#DejaVuSans-53"/>
      </g>
     </g>
    </g>
    <g id="ytick_7">
     <g id="line2d_17">
      <g>
       <use style="stroke:#000000;stroke-width:0.8;" x="56.028488" xlink:href="#m128fb51c38" y="149.599219"/>
      </g>
     </g>
     <g id="text_18">
      <!-- 10 -->
      <g transform="translate(36.303488 153.398438)scale(0.1 -0.1)">
       <use xlink:href="#DejaVuSans-49"/>
       <use x="63.623047" xlink:href="#DejaVuSans-48"/>
      </g>
     </g>
    </g>
    <g id="ytick_8">
     <g id="line2d_18">
      <g>
       <use style="stroke:#000000;stroke-width:0.8;" x="56.028488" xlink:href="#m128fb51c38" y="80.299219"/>
      </g>
     </g>
     <g id="text_19">
      <!-- 15 -->
      <g transform="translate(36.303488 84.098438)scale(0.1 -0.1)">
       <use xlink:href="#DejaVuSans-49"/>
       <use x="63.623047" xlink:href="#DejaVuSans-53"/>
      </g>
     </g>
    </g>
    <g id="ytick_9">
     <g id="line2d_19">
      <g>
       <use style="stroke:#000000;stroke-width:0.8;" x="56.028488" xlink:href="#m128fb51c38" y="10.999219"/>
      </g>
     </g>
     <g id="text_20">
      <!-- 20 -->
      <g transform="translate(36.303488 14.798438)scale(0.1 -0.1)">
       <use xlink:href="#DejaVuSans-50"/>
       <use x="63.623047" xlink:href="#DejaVuSans-48"/>
      </g>
     </g>
    </g>
    <g id="text_21">
     <!-- 2nd PC: 7.69 % -->
     <g transform="translate(20.3301 354.495019)rotate(-90)scale(0.1728 -0.1728)">
      <defs>
       <path d="M 54.890625 33.015625 
L 54.890625 0 
L 45.90625 0 
L 45.90625 32.71875 
Q 45.90625 40.484375 42.875 44.328125 
Q 39.84375 48.1875 33.796875 48.1875 
Q 26.515625 48.1875 22.3125 43.546875 
Q 18.109375 38.921875 18.109375 30.90625 
L 18.109375 0 
L 9.078125 0 
L 9.078125 54.6875 
L 18.109375 54.6875 
L 18.109375 46.1875 
Q 21.34375 51.125 25.703125 53.5625 
Q 30.078125 56 35.796875 56 
Q 45.21875 56 50.046875 50.171875 
Q 54.890625 44.34375 54.890625 33.015625 
z
" id="DejaVuSans-110"/>
       <path d="M 45.40625 46.390625 
L 45.40625 75.984375 
L 54.390625 75.984375 
L 54.390625 0 
L 45.40625 0 
L 45.40625 8.203125 
Q 42.578125 3.328125 38.25 0.953125 
Q 33.9375 -1.421875 27.875 -1.421875 
Q 17.96875 -1.421875 11.734375 6.484375 
Q 5.515625 14.40625 5.515625 27.296875 
Q 5.515625 40.1875 11.734375 48.09375 
Q 17.96875 56 27.875 56 
Q 33.9375 56 38.25 53.625 
Q 42.578125 51.265625 45.40625 46.390625 
z
M 14.796875 27.296875 
Q 14.796875 17.390625 18.875 11.75 
Q 22.953125 6.109375 30.078125 6.109375 
Q 37.203125 6.109375 41.296875 11.75 
Q 45.40625 17.390625 45.40625 27.296875 
Q 45.40625 37.203125 41.296875 42.84375 
Q 37.203125 48.484375 30.078125 48.484375 
Q 22.953125 48.484375 18.875 42.84375 
Q 14.796875 37.203125 14.796875 27.296875 
z
" id="DejaVuSans-100"/>
       <path d="M 8.203125 72.90625 
L 55.078125 72.90625 
L 55.078125 68.703125 
L 28.609375 0 
L 18.3125 0 
L 43.21875 64.59375 
L 8.203125 64.59375 
z
" id="DejaVuSans-55"/>
       <path d="M 33.015625 40.375 
Q 26.375 40.375 22.484375 35.828125 
Q 18.609375 31.296875 18.609375 23.390625 
Q 18.609375 15.53125 22.484375 10.953125 
Q 26.375 6.390625 33.015625 6.390625 
Q 39.65625 6.390625 43.53125 10.953125 
Q 47.40625 15.53125 47.40625 23.390625 
Q 47.40625 31.296875 43.53125 35.828125 
Q 39.65625 40.375 33.015625 40.375 
z
M 52.59375 71.296875 
L 52.59375 62.3125 
Q 48.875 64.0625 45.09375 64.984375 
Q 41.3125 65.921875 37.59375 65.921875 
Q 27.828125 65.921875 22.671875 59.328125 
Q 17.53125 52.734375 16.796875 39.40625 
Q 19.671875 43.65625 24.015625 45.921875 
Q 28.375 48.1875 33.59375 48.1875 
Q 44.578125 48.1875 50.953125 41.515625 
Q 57.328125 34.859375 57.328125 23.390625 
Q 57.328125 12.15625 50.6875 5.359375 
Q 44.046875 -1.421875 33.015625 -1.421875 
Q 20.359375 -1.421875 13.671875 8.265625 
Q 6.984375 17.96875 6.984375 36.375 
Q 6.984375 53.65625 15.1875 63.9375 
Q 23.390625 74.21875 37.203125 74.21875 
Q 40.921875 74.21875 44.703125 73.484375 
Q 48.484375 72.75 52.59375 71.296875 
z
" id="DejaVuSans-54"/>
      </defs>
      <use xlink:href="#DejaVuSans-50"/>
      <use x="63.623047" xlink:href="#DejaVuSans-110"/>
      <use x="127.001953" xlink:href="#DejaVuSans-100"/>
      <use x="190.478516" xlink:href="#DejaVuSans-32"/>
      <use x="222.265625" xlink:href="#DejaVuSans-80"/>
      <use x="282.568359" xlink:href="#DejaVuSans-67"/>
      <use x="352.392578" xlink:href="#DejaVuSans-58"/>
      <use x="386.083984" xlink:href="#DejaVuSans-32"/>
      <use x="417.871094" xlink:href="#DejaVuSans-55"/>
      <use x="481.494141" xlink:href="#DejaVuSans-46"/>
      <use x="513.28125" xlink:href="#DejaVuSans-54"/>
      <use x="576.904297" xlink:href="#DejaVuSans-57"/>
      <use x="640.527344" xlink:href="#DejaVuSans-32"/>
      <use x="672.314453" xlink:href="#DejaVuSans-37"/>
     </g>
    </g>
   </g>
   <g id="LineCollection_1"/>
   <g id="LineCollection_2"/>
   <g id="LineCollection_3"/>
   <g id="LineCollection_4"/>
   <g id="LineCollection_5"/>
   <g id="LineCollection_6">
    <path clip-path="url(#pd5c30eebae)" style="fill:none;stroke:#39558c;stroke-width:1.5;"/>
    <path clip-path="url(#pd5c30eebae)" d="M 1170.140296 379.562775 
L 1155.495154 378.354007 
L 1097.628488 372.91277 
L 1039.761821 369.183822 
L 981.895154 366.205743 
L 924.028488 363.284194 
L 905.128658 362.119219 
L 866.161821 355.082073 
L 808.295154 348.379947 
L 750.428488 343.907979 
L 747.053211 343.639219 
L 692.561821 333.991208 
L 634.695154 328.722263 
L 576.828488 325.867673 
L 560.736383 325.159219 
L 518.961821 319.990913 
L 461.095154 308.901358 
L 458.016766 306.679219 
L 459.835895 288.199219 
L 461.095154 287.663978 
L 517.30428 269.719219 
L 518.961821 269.370242 
L 576.828488 255.103108 
L 593.86065 251.239219 
L 633.054293 232.759219 
L 634.695154 231.099246 
L 684.740884 214.279219 
L 691.94897 195.799219 
L 692.561821 192.335108 
L 738.424253 177.319219 
L 750.008079 158.839219 
L 750.400951 140.359219 
L 750.428488 139.374632 
L 805.535112 121.879219 
L 808.204486 103.399219 
L 808.291982 84.919219 
L 808.295031 66.439219 
L 808.295154 66.383754 
L 866.161821 63.684954 
L 924.028488 60.86791 
L 981.895154 55.458647 
L 1038.061502 47.959219 
L 1039.761821 47.913633 
L 1097.628488 47.055763 
L 1155.495154 46.315677 
L 1186.590987 46.785452 
" style="fill:none;stroke:#39558c;stroke-width:1.5;"/>
   </g>
   <g id="LineCollection_7">
    <path clip-path="url(#pd5c30eebae)" d="M 1186.590987 384.39004 
L 1155.495154 383.67883 
L 1110.224331 382.515699 
" style="fill:none;stroke:#33638d;stroke-width:1.5;"/>
    <path clip-path="url(#pd5c30eebae)" d="M 1085.03365 381.83143 
L 1042.001309 380.599219 
L 1039.761821 380.346881 
L 981.895154 373.810551 
L 924.028488 368.757057 
L 866.161821 364.428308 
L 835.025575 362.119219 
L 808.295154 357.652423 
L 750.428488 350.113047 
L 692.561821 345.003849 
L 673.609511 343.639219 
L 634.695154 337.944433 
L 576.828488 333.377659 
L 518.961821 330.30933 
L 461.095154 325.509962 
L 459.974601 325.159219 
L 434.13008 306.679219 
L 446.658852 288.199219 
L 461.095154 282.063153 
L 499.760581 269.719219 
L 518.961821 265.676616 
L 566.466966 251.239219 
L 576.828488 249.243809 
L 626.063745 232.759219 
L 634.695154 224.027275 
L 663.699187 214.279219 
L 690.130383 195.799219 
L 692.561821 182.055626 
L 707.02804 177.319219 
L 748.869478 158.839219 
L 750.321478 140.359219 
L 750.428488 136.532988 
L 796.58457 121.879219 
L 807.864458 103.399219 
L 808.277357 84.919219 
L 808.293693 66.439219 
L 808.295154 65.781524 
L 865.64271 47.959219 
L 866.161821 47.313786 
L 924.028488 45.14103 
L 981.895154 40.803571 
L 1039.761821 31.133564 
L 1048.621963 29.479219 
L 1097.628488 27.166105 
L 1155.495154 22.647119 
L 1186.590987 18.571406 
" style="fill:none;stroke:#33638d;stroke-width:1.5;"/>
   </g>
   <g id="LineCollection_8">
    <path clip-path="url(#pd5c30eebae)" d="M 1186.590987 388.110331 
L 1168.087386 387.460288 
" style="fill:none;stroke:#2d718e;stroke-width:1.5;"/>
    <path clip-path="url(#pd5c30eebae)" d="M 1142.90259 386.585088 
L 1097.628488 385.028944 
L 1039.761821 383.018831 
L 981.895154 380.830849 
L 977.009535 380.599219 
L 924.028488 374.22992 
L 866.161821 368.543404 
L 808.295154 363.754842 
L 787.657001 362.119219 
L 750.428488 356.318115 
L 692.561821 349.541368 
L 634.695154 344.994225 
L 605.139741 343.639219 
L 576.828488 340.887646 
L 518.961821 337.129679 
L 461.095154 331.65116 
L 440.35472 325.159219 
L 410.243393 306.679219 
L 433.481809 288.199219 
L 461.095154 276.462329 
L 482.216882 269.719219 
L 518.961821 261.982989 
L 554.313372 251.239219 
L 576.828488 246.903285 
L 619.073197 232.759219 
L 634.695154 216.955305 
L 642.657489 214.279219 
L 688.311796 195.799219 
L 692.451996 177.319219 
L 692.561821 177.115819 
L 747.730877 158.839219 
L 750.242005 140.359219 
L 750.428488 133.691343 
L 787.634029 121.879219 
L 807.52443 103.399219 
L 808.262731 84.919219 
L 808.292355 66.439219 
L 808.295154 65.179295 
L 863.704891 47.959219 
L 866.161821 44.904413 
L 924.028488 41.01463 
L 981.895154 32.942474 
L 1000.892294 29.479219 
L 1039.761821 27.652932 
L 1097.628488 22.924294 
L 1155.495154 13.86524 
L 1172.870611 10.999219 
" style="fill:none;stroke:#2d718e;stroke-width:1.5;"/>
    <path clip-path="url(#pd5c30eebae)" style="fill:none;stroke:#2d718e;stroke-width:1.5;"/>
    <path clip-path="url(#pd5c30eebae)" style="fill:none;stroke:#2d718e;stroke-width:1.5;"/>
   </g>
   <g id="LineCollection_9">
    <path clip-path="url(#pd5c30eebae)" d="M 1186.590987 391.830622 
L 1155.495154 390.357001 
L 1097.628488 387.865812 
L 1039.761821 385.494403 
L 981.895154 382.989188 
L 931.485211 380.599219 
L 924.028487 379.702783 
L 866.161821 372.6585 
L 808.295154 366.910748 
L 750.428488 362.280193 
L 748.377799 362.119219 
L 692.561821 354.078887 
L 634.695154 348.53682 
L 576.828488 345.599242 
L 518.961821 343.772368 
L 516.318564 343.639219 
L 461.095154 337.792359 
L 420.734839 325.159219 
L 403.228488 314.844416 
L 400.552444 306.679219 
L 403.228488 300.160061 
L 420.304767 288.199219 
L 461.095154 270.861504 
L 464.673183 269.719219 
L 518.961821 258.289363 
L 542.159778 251.239219 
L 564.455829 246.945472 
" style="fill:none;stroke:#287d8e;stroke-width:1.5;"/>
    <path clip-path="url(#pd5c30eebae)" d="M 588.776584 240.562386 
L 612.082649 232.759219 
L 634.195746 214.279219 
L 634.695154 213.884532 
L 686.493208 195.799219 
L 692.248329 177.319219 
L 692.561821 176.738619 
L 746.592276 158.839219 
L 750.162531 140.359219 
L 750.428488 130.849699 
L 778.683487 121.879219 
L 807.184401 103.399219 
L 808.248105 84.919219 
L 808.291017 66.439219 
L 808.295154 64.577065 
L 861.767072 47.959219 
L 866.161821 42.49504 
L 924.028488 36.88823 
L 968.148354 29.479219 
L 981.895154 28.885662 
L 1039.761821 25.626898 
L 1097.628488 18.682483 
L 1139.80818 10.999219 
" style="fill:none;stroke:#287d8e;stroke-width:1.5;"/>
    <path clip-path="url(#pd5c30eebae)" style="fill:none;stroke:#287d8e;stroke-width:1.5;"/>
    <path clip-path="url(#pd5c30eebae)" style="fill:none;stroke:#287d8e;stroke-width:1.5;"/>
   </g>
   <g id="LineCollection_10">
    <path clip-path="url(#pd5c30eebae)" style="fill:none;stroke:#238a8d;stroke-width:1.5;"/>
    <path clip-path="url(#pd5c30eebae)" d="M 1186.590987 395.550913 
L 1155.495154 393.696086 
L 1097.628488 390.702679 
L 1039.761821 387.969975 
L 981.895154 385.147527 
L 924.028488 382.1822 
L 896.626354 380.599219 
L 866.161821 376.773596 
L 808.295154 370.066653 
L 750.428488 364.752829 
L 716.878347 362.119219 
L 692.561821 358.616406 
L 634.695154 352.079415 
L 576.828488 348.692658 
L 518.961821 346.694189 
L 461.095154 343.768221 
L 460.46052 343.639219 
L 403.228488 325.608598 
L 402.901353 325.159219 
L 396.763762 306.679219 
L 403.228488 290.930385 
L 407.127724 288.199219 
L 459.155559 269.719219 
L 461.095154 269.263496 
L 518.961821 254.595737 
L 530.006185 251.239219 
L 576.828488 242.222236 
L 605.092102 232.759219 
L 633.392312 214.279219 
L 634.695154 213.249571 
L 684.674621 195.799219 
L 692.044661 177.319219 
L 692.561821 176.361419 
L 745.453676 158.839219 
L 750.083058 140.359219 
L 750.428488 128.008055 
L 769.732945 121.879219 
L 806.844373 103.399219 
L 808.23348 84.919219 
L 808.28968 66.439219 
L 808.295154 63.974835 
L 859.829254 47.959219 
L 866.161821 40.085666 
L 924.028488 32.761831 
L 943.576089 29.479219 
L 981.895154 27.824685 
L 1039.761821 23.600865 
L 1097.628488 14.440673 
L 1116.521428 10.999219 
" style="fill:none;stroke:#238a8d;stroke-width:1.5;"/>
    <path clip-path="url(#pd5c30eebae)" style="fill:none;stroke:#238a8d;stroke-width:1.5;"/>
    <path clip-path="url(#pd5c30eebae)" style="fill:none;stroke:#238a8d;stroke-width:1.5;"/>
   </g>
   <g id="LineCollection_11">
    <path clip-path="url(#pd5c30eebae)" d="M 1186.590987 399.071865 
L 1155.495154 397.035171 
L 1097.628488 393.539546 
L 1039.761821 390.445547 
L 981.895154 387.305866 
L 924.028488 384.075258 
L 866.161821 380.713961 
L 864.471207 380.599219 
L 808.295154 373.222559 
L 750.428488 367.225465 
L 692.561821 362.571902 
L 686.162618 362.119219 
L 634.695154 355.62201 
L 576.828488 351.786073 
L 518.961821 349.616009 
L 461.095154 346.459774 
L 447.21925 343.639219 
L 403.228488 329.780184 
L 399.864561 325.159219 
L 392.975079 306.679219 
L 401.453694 288.199219 
L 403.228488 287.624953 
L 456.719036 269.719219 
L 461.095154 268.691015 
L 506.897082 254.836424 
" style="fill:none;stroke:#1f968b;stroke-width:1.5;"/>
    <path clip-path="url(#pd5c30eebae)" d="M 531.327254 248.786362 
L 576.828488 239.881712 
L 598.101554 232.759219 
L 632.588878 214.279219 
L 634.695154 212.614611 
L 682.856034 195.799219 
L 691.840994 177.319219 
L 692.561821 175.98422 
L 744.315075 158.839219 
L 750.003585 140.359219 
L 750.428488 125.16641 
L 760.782403 121.879219 
L 806.504345 103.399219 
L 808.218854 84.919219 
L 808.288342 66.439219 
L 808.295154 63.372606 
L 857.891435 47.959219 
L 866.161821 37.676293 
L 920.747634 29.479219 
L 924.028488 29.355721 
L 981.895154 26.763707 
L 1039.761821 21.574831 
L 1095.609746 10.999219 
" style="fill:none;stroke:#1f968b;stroke-width:1.5;"/>
    <path clip-path="url(#pd5c30eebae)" style="fill:none;stroke:#1f968b;stroke-width:1.5;"/>
    <path clip-path="url(#pd5c30eebae)" style="fill:none;stroke:#1f968b;stroke-width:1.5;"/>
   </g>
   <g id="LineCollection_12">
    <path clip-path="url(#pd5c30eebae)" style="fill:none;stroke:#20a386;stroke-width:1.5;"/>
    <path clip-path="url(#pd5c30eebae)" d="M 1186.590987 400.194499 
L 1155.495154 399.484936 
L 1138.753861 399.079219 
L 1097.628488 396.376413 
L 1039.761821 392.921118 
L 981.895154 389.464205 
L 924.028488 385.968315 
L 866.161821 382.345118 
L 840.437791 380.599219 
L 808.295154 376.378465 
L 750.428488 369.698101 
L 692.561821 364.557064 
L 658.100044 362.119219 
L 634.695154 359.164606 
L 576.828488 354.879488 
L 518.961821 352.53783 
L 461.095154 349.151328 
L 433.977979 343.639219 
L 403.228488 333.951769 
L 396.82777 325.159219 
L 389.186397 306.679219 
L 398.932997 288.199219 
L 403.228488 286.809337 
L 454.282513 269.719219 
L 461.095154 268.118535 
L 516.896527 251.239219 
L 518.961821 250.84554 
L 576.828488 237.541188 
L 591.111006 232.759219 
L 631.785444 214.279219 
L 634.695154 211.97965 
L 681.037446 195.799219 
L 691.637326 177.319219 
L 692.561821 175.60702 
L 743.176474 158.839219 
L 749.924111 140.359219 
L 750.428488 122.324766 
L 751.831861 121.879219 
L 806.164317 103.399219 
L 808.204228 84.919219 
L 808.287004 66.439219 
L 808.295154 62.770376 
L 855.953616 47.959219 
L 866.161821 35.26692 
L 904.703177 29.479219 
L 924.028488 28.751776 
L 981.895154 25.70273 
L 1039.761821 19.548797 
L 1084.910624 10.999219 
" style="fill:none;stroke:#20a386;stroke-width:1.5;"/>
    <path clip-path="url(#pd5c30eebae)" style="fill:none;stroke:#20a386;stroke-width:1.5;"/>
    <path clip-path="url(#pd5c30eebae)" style="fill:none;stroke:#20a386;stroke-width:1.5;"/>
   </g>
   <g id="LineCollection_13">
    <path clip-path="url(#pd5c30eebae)" d="M 1186.590987 401.287534 
L 1168.091427 400.837471 
" style="fill:none;stroke:#29af7f;stroke-width:1.5;"/>
    <path clip-path="url(#pd5c30eebae)" d="M 1142.898867 400.225182 
L 1097.628488 399.126 
L 1095.846757 399.079219 
L 1039.761821 395.39669 
L 981.895154 391.622544 
L 924.028488 387.861373 
L 866.161821 383.976275 
L 816.404374 380.599219 
L 808.295154 379.534371 
L 750.428488 372.170737 
L 692.561821 366.542225 
L 634.695154 362.388652 
L 628.319173 362.119219 
L 576.828488 357.972904 
L 518.961821 355.45965 
L 461.095154 351.842881 
L 420.736709 343.639219 
L 403.228488 338.123355 
L 393.790979 325.159219 
L 385.397715 306.679219 
L 396.412301 288.199219 
L 403.228488 285.993722 
L 451.84599 269.719219 
L 461.095154 267.546055 
L 515.003964 251.239219 
L 518.961821 250.484786 
L 576.828488 235.200663 
L 584.120458 232.759219 
L 630.98201 214.279219 
L 634.695154 211.34469 
L 679.218859 195.799219 
L 691.433659 177.319219 
L 692.561821 175.22982 
L 742.037873 158.839219 
L 749.844638 140.359219 
L 750.420381 121.879219 
L 750.428488 121.784063 
L 805.824289 103.399219 
L 808.189603 84.919219 
L 808.285666 66.439219 
L 808.295154 62.168146 
L 854.015797 47.959219 
L 866.161821 32.857546 
L 888.658721 29.479219 
L 924.028488 28.147832 
L 981.895154 24.641753 
L 1039.761821 17.522764 
L 1074.211501 10.999219 
" style="fill:none;stroke:#29af7f;stroke-width:1.5;"/>
    <path clip-path="url(#pd5c30eebae)" style="fill:none;stroke:#29af7f;stroke-width:1.5;"/>
    <path clip-path="url(#pd5c30eebae)" style="fill:none;stroke:#29af7f;stroke-width:1.5;"/>
   </g>
   <g id="LineCollection_14">
    <path clip-path="url(#pd5c30eebae)" d="M 1186.590987 402.380569 
L 1168.09095 401.902564 
" style="fill:none;stroke:#3dbc74;stroke-width:1.5;"/>
    <path clip-path="url(#pd5c30eebae)" d="M 1142.899169 401.259055 
L 1097.628488 400.115935 
L 1058.143778 399.079219 
L 1039.761821 397.872262 
L 981.895154 393.780883 
L 924.028488 389.75443 
L 866.161821 385.607432 
L 808.295154 381.504449 
L 795.811267 380.599219 
L 750.428488 374.643373 
L 692.561821 368.527387 
L 634.695154 364.01199 
L 589.90384 362.119219 
L 576.828488 361.066319 
L 518.961821 358.38147 
L 461.095154 354.534434 
L 407.495439 343.639219 
L 403.228488 342.29494 
L 390.754188 325.159219 
L 381.609033 306.679219 
L 393.891605 288.199219 
L 403.228488 285.178106 
L 449.409467 269.719219 
L 461.095154 266.973575 
L 513.1114 251.239219 
L 518.961821 250.124032 
L 576.828488 232.860139 
L 577.12991 232.759219 
L 630.178576 214.279219 
L 634.695154 210.709729 
L 677.400272 195.799219 
L 691.229992 177.319219 
L 692.561821 174.852621 
L 740.899272 158.839219 
L 749.765165 140.359219 
L 750.410768 121.879219 
L 750.428488 121.671214 
L 805.48426 103.399219 
L 808.174977 84.919219 
L 808.284328 66.439219 
L 808.295154 61.565917 
L 852.077978 47.959219 
L 866.161821 30.448173 
L 872.614264 29.479219 
L 924.028488 27.543887 
L 981.895154 23.580776 
L 1039.761821 15.49673 
L 1063.512379 10.999219 
" style="fill:none;stroke:#3dbc74;stroke-width:1.5;"/>
    <path clip-path="url(#pd5c30eebae)" style="fill:none;stroke:#3dbc74;stroke-width:1.5;"/>
    <path clip-path="url(#pd5c30eebae)" style="fill:none;stroke:#3dbc74;stroke-width:1.5;"/>
   </g>
   <g id="LineCollection_15">
    <path clip-path="url(#pd5c30eebae)" d="M 1186.590987 403.473604 
L 1168.090445 402.967655 
" style="fill:none;stroke:#56c667;stroke-width:1.5;"/>
    <path clip-path="url(#pd5c30eebae)" d="M 1142.899484 402.292928 
L 1097.628488 401.105869 
L 1039.761821 399.568613 
L 1024.688187 399.079219 
L 981.895154 395.939222 
L 924.028488 391.647488 
L 866.161821 387.238589 
L 808.295154 382.870658 
L 776.970099 380.599219 
L 750.428488 377.116009 
L 692.561821 370.512549 
L 634.695154 365.635327 
L 576.828488 363.067382 
L 536.173141 362.119219 
L 518.961821 361.303291 
L 461.095154 357.225988 
L 403.228488 344.962201 
L 401.771162 343.639219 
L 387.717397 325.159219 
L 377.820351 306.679219 
L 391.370908 288.199219 
L 403.228488 284.36249 
L 446.972944 269.719219 
L 461.095154 266.401095 
L 511.218837 251.239219 
L 518.961821 249.763278 
L 575.677113 232.759219 
L 576.828488 232.492743 
L 629.375142 214.279219 
L 634.695154 210.074769 
L 675.581685 195.799219 
L 691.026324 177.319219 
L 692.561821 174.475421 
L 739.760672 158.839219 
L 749.685691 140.359219 
L 750.401155 121.879219 
L 750.428488 121.558365 
L 805.144232 103.399219 
L 808.160351 84.919219 
L 808.28299 66.439219 
L 808.295154 60.963687 
L 850.140159 47.959219 
L 866.157846 29.479219 
L 866.161821 29.271439 
L 924.028488 26.939943 
L 981.895154 22.519799 
L 1039.761821 13.470697 
L 1052.813256 10.999219 
" style="fill:none;stroke:#56c667;stroke-width:1.5;"/>
    <path clip-path="url(#pd5c30eebae)" style="fill:none;stroke:#56c667;stroke-width:1.5;"/>
    <path clip-path="url(#pd5c30eebae)" style="fill:none;stroke:#56c667;stroke-width:1.5;"/>
   </g>
   <g id="LineCollection_16">
    <path clip-path="url(#pd5c30eebae)" d="M 1186.590987 404.566639 
L 1168.089911 404.032744 
" style="fill:none;stroke:#75d054;stroke-width:1.5;"/>
    <path clip-path="url(#pd5c30eebae)" d="M 1142.89981 403.326803 
L 1097.628488 402.095803 
L 1039.761821 400.523616 
L 995.273545 399.079219 
L 981.895154 398.097561 
L 924.028488 393.540545 
L 866.161821 388.869746 
L 808.295154 384.236866 
L 758.128931 380.599219 
L 750.428488 379.588645 
L 692.561821 372.49771 
L 634.695154 367.258665 
L 576.828488 364.504794 
L 518.961821 363.117153 
L 491.857074 362.119219 
L 461.095154 359.917541 
L 403.228488 346.914212 
L 399.620932 343.639219 
L 384.680605 325.159219 
L 374.031669 306.679219 
L 388.850212 288.199219 
L 403.228488 283.546874 
L 444.536421 269.719219 
L 461.095154 265.828615 
L 509.326273 251.239219 
L 518.961821 249.402525 
L 574.473856 232.759219 
L 576.828488 232.21426 
L 628.571708 214.279219 
L 634.695154 209.439808 
L 673.763097 195.799219 
L 690.822657 177.319219 
L 692.561821 174.098221 
L 738.622071 158.839219 
L 749.606218 140.359219 
L 750.391541 121.879219 
L 750.428488 121.445516 
L 804.804204 103.399219 
L 808.145726 84.919219 
L 808.281652 66.439219 
L 808.295154 60.361457 
L 848.20234 47.959219 
L 866.151196 29.479219 
L 866.161821 28.923889 
L 924.028488 26.335998 
L 981.895154 21.458822 
L 1039.761821 11.444663 
L 1042.114133 10.999219 
" style="fill:none;stroke:#75d054;stroke-width:1.5;"/>
    <path clip-path="url(#pd5c30eebae)" style="fill:none;stroke:#75d054;stroke-width:1.5;"/>
    <path clip-path="url(#pd5c30eebae)" style="fill:none;stroke:#75d054;stroke-width:1.5;"/>
   </g>
   <g id="LineCollection_17">
    <path clip-path="url(#pd5c30eebae)" style="fill:none;stroke:#95d840;stroke-width:1.5;"/>
    <path clip-path="url(#pd5c30eebae)" d="M 1186.590987 405.659674 
L 1155.495154 404.715379 
L 1097.628488 403.085738 
L 1039.761821 401.478619 
L 981.895154 399.577336 
L 969.127773 399.079219 
L 924.028488 395.433603 
L 866.161821 390.500903 
L 808.295154 385.603075 
L 750.428488 381.272788 
L 741.111135 380.599219 
L 692.561821 374.482872 
L 634.695154 368.882002 
L 576.828488 365.942207 
L 518.961821 364.501736 
L 461.095154 362.351986 
L 459.584412 362.119219 
L 403.228488 348.866223 
L 397.470703 343.639219 
L 381.643814 325.159219 
L 370.242986 306.679219 
L 386.329515 288.199219 
L 403.228488 282.731259 
L 442.099898 269.719219 
L 461.095154 265.256134 
L 507.43371 251.239219 
L 518.961821 249.041771 
L 573.270598 232.759219 
L 576.828488 231.935777 
L 627.768274 214.279219 
L 634.695154 208.804848 
L 671.94451 195.799219 
L 690.61899 177.319219 
L 692.561821 173.721021 
L 737.48347 158.839219 
L 749.526745 140.359219 
L 750.381928 121.879219 
L 750.428488 121.332667 
L 804.464176 103.399219 
L 808.1311 84.919219 
L 808.280315 66.439219 
L 808.295154 59.759227 
L 846.264521 47.959219 
L 866.144547 29.479219 
L 866.161821 28.576338 
L 924.028488 25.732054 
L 981.895154 20.397845 
L 1035.078145 10.999219 
" style="fill:none;stroke:#95d840;stroke-width:1.5;"/>
    <path clip-path="url(#pd5c30eebae)" style="fill:none;stroke:#95d840;stroke-width:1.5;"/>
    <path clip-path="url(#pd5c30eebae)" style="fill:none;stroke:#95d840;stroke-width:1.5;"/>
   </g>
   <g id="LineCollection_18">
    <path clip-path="url(#pd5c30eebae)" d="M 1186.590987 406.752709 
L 1168.088757 406.162914 
" style="fill:none;stroke:#bade28;stroke-width:1.5;"/>
    <path clip-path="url(#pd5c30eebae)" d="M 1142.900498 405.394554 
L 1097.628488 404.075672 
L 1039.761821 402.433622 
L 981.895154 400.491013 
L 945.709086 399.079219 
L 924.028487 397.32666 
L 866.161821 392.13206 
L 808.295154 386.969284 
L 750.428488 382.411926 
L 725.35365 380.599219 
L 692.561821 376.468034 
L 634.695154 370.50534 
L 576.828488 367.379619 
L 518.961821 365.88632 
L 461.095154 363.630891 
L 451.283846 362.119219 
L 403.228488 350.818233 
L 395.320473 343.639219 
L 378.607023 325.159219 
L 366.454304 306.679219 
L 383.808819 288.199219 
L 403.228488 281.915643 
L 439.663375 269.719219 
L 461.095154 264.683654 
L 505.541146 251.239219 
L 518.961821 248.681017 
L 572.067341 232.759219 
L 576.828488 231.657293 
L 626.96484 214.279219 
L 634.695154 208.169887 
L 670.125923 195.799219 
L 690.415322 177.319219 
L 692.561821 173.343822 
L 736.344869 158.839219 
L 749.447271 140.359219 
L 750.372315 121.879219 
L 750.428488 121.219818 
L 804.124148 103.399219 
L 808.116474 84.919219 
L 808.278977 66.439219 
L 808.295154 59.156998 
L 844.326703 47.959219 
L 866.137897 29.479219 
L 866.161821 28.228788 
L 924.028488 25.128109 
L 981.895154 19.336867 
L 1029.074508 10.999219 
" style="fill:none;stroke:#bade28;stroke-width:1.5;"/>
    <path clip-path="url(#pd5c30eebae)" style="fill:none;stroke:#bade28;stroke-width:1.5;"/>
    <path clip-path="url(#pd5c30eebae)" style="fill:none;stroke:#bade28;stroke-width:1.5;"/>
   </g>
   <g id="LineCollection_19">
    <path clip-path="url(#pd5c30eebae)" d="M 1186.590987 407.845744 
L 1168.088138 407.227994 
" style="fill:none;stroke:#dde318;stroke-width:1.5;"/>
    <path clip-path="url(#pd5c30eebae)" d="M 1142.900859 406.428432 
L 1097.628488 405.065606 
L 1039.761821 403.388625 
L 981.895154 401.404689 
L 924.028488 399.142535 
L 922.740033 399.079219 
L 866.161821 393.763217 
L 808.295154 388.335492 
L 750.428488 383.551064 
L 709.596165 380.599219 
L 692.561821 378.453196 
L 634.695154 372.128677 
L 576.828488 368.817031 
L 518.961821 367.270903 
L 461.095154 364.909797 
L 442.98328 362.119219 
L 403.228488 352.770244 
L 393.170244 343.639219 
L 375.570232 325.159219 
L 362.665622 306.679219 
L 381.288123 288.199219 
L 403.228488 281.100027 
L 437.226852 269.719219 
L 461.095154 264.111174 
L 503.648582 251.239219 
L 518.961821 248.320263 
L 570.864084 232.759219 
L 576.828488 231.37881 
L 626.161406 214.279219 
L 634.695154 207.534927 
L 668.307335 195.799219 
L 690.211655 177.319219 
L 692.561821 172.966622 
L 735.206268 158.839219 
L 749.367798 140.359219 
L 750.362702 121.879219 
L 750.428488 121.106969 
L 803.784119 103.399219 
L 808.101849 84.919219 
L 808.277639 66.439219 
L 808.295154 58.554768 
L 842.388884 47.959219 
L 866.131248 29.479219 
L 866.161821 27.881237 
L 924.028488 24.524165 
L 981.895154 18.27589 
L 1023.070871 10.999219 
" style="fill:none;stroke:#dde318;stroke-width:1.5;"/>
    <path clip-path="url(#pd5c30eebae)" style="fill:none;stroke:#dde318;stroke-width:1.5;"/>
    <path clip-path="url(#pd5c30eebae)" style="fill:none;stroke:#dde318;stroke-width:1.5;"/>
   </g>
   <g id="LineCollection_20">
    <path clip-path="url(#pd5c30eebae)" d="M 1186.590987 408.938779 
L 1168.087489 408.293072 
" style="fill:none;stroke:#fde725;stroke-width:1.5;"/>
    <path clip-path="url(#pd5c30eebae)" d="M 1142.901233 407.462311 
L 1097.628488 406.055541 
L 1039.761821 404.343628 
L 981.895154 402.318365 
L 924.028488 399.995648 
L 905.379626 399.079219 
L 866.161821 395.394374 
L 808.295154 389.701701 
L 750.428488 384.690202 
L 693.83868 380.599219 
L 692.561821 380.438357 
L 634.695154 373.752015 
L 576.828488 370.254444 
L 518.961821 368.655487 
L 461.095154 366.188702 
L 434.682714 362.119219 
L 403.228488 354.722255 
L 391.020015 343.639219 
L 372.53344 325.159219 
L 358.87694 306.679219 
L 378.767426 288.199219 
L 403.228488 280.284411 
L 434.790329 269.719219 
L 461.095154 263.538694 
L 501.756019 251.239219 
L 518.961821 247.959509 
L 569.660827 232.759219 
L 576.828488 231.100327 
L 625.357972 214.279219 
L 634.695154 206.899966 
L 666.488748 195.799219 
L 690.007988 177.319219 
L 692.561821 172.589422 
L 734.067668 158.839219 
L 749.288325 140.359219 
L 750.353088 121.879219 
L 750.428488 120.99412 
L 803.444091 103.399219 
L 808.087223 84.919219 
L 808.276301 66.439219 
L 808.295154 57.952538 
L 840.451065 47.959219 
L 866.124599 29.479219 
L 866.161821 27.533687 
L 924.028488 23.92022 
L 981.895154 17.214913 
L 1017.067234 10.999219 
" style="fill:none;stroke:#fde725;stroke-width:1.5;"/>
    <path clip-path="url(#pd5c30eebae)" style="fill:none;stroke:#fde725;stroke-width:1.5;"/>
    <path clip-path="url(#pd5c30eebae)" style="fill:none;stroke:#fde725;stroke-width:1.5;"/>
   </g>
   <g id="LineCollection_21">
    <path clip-path="url(#pd5c30eebae)" d="M 1186.590987 410.031814 
L 1155.495154 408.899733 
L 1112.0211 407.506667 
" style="fill:none;stroke:#440154;stroke-width:1.5;"/>
    <path clip-path="url(#pd5c30eebae)" d="M 1083.235044 406.610975 
L 1039.761821 405.298631 
L 981.895154 403.232042 
L 924.028488 400.848761 
L 888.01922 399.079219 
L 866.161821 397.025531 
L 808.295154 391.06791 
L 750.428488 385.82934 
L 692.561821 381.470483 
L 679.707506 380.599219 
L 634.695154 375.375352 
L 576.828488 371.691856 
L 518.961821 370.04007 
L 461.095154 367.467607 
L 426.382148 362.119219 
L 403.228488 356.674266 
L 388.869785 343.639219 
L 369.496649 325.159219 
L 355.088258 306.679219 
L 376.24673 288.199219 
L 403.228488 279.468796 
L 432.353806 269.719219 
L 461.095154 262.966214 
L 499.863455 251.239219 
L 518.961821 247.598755 
L 568.45757 232.759219 
L 576.828488 230.821844 
L 624.554538 214.279219 
L 634.695154 206.265005 
L 664.670161 195.799219 
L 689.80432 177.319219 
L 692.561821 172.212223 
L 732.929067 158.839219 
L 749.208851 140.359219 
L 750.343475 121.879219 
L 750.428488 120.881271 
L 803.104063 103.399219 
L 808.072597 84.919219 
L 808.274963 66.439219 
L 808.295154 57.350309 
L 838.513246 47.959219 
L 866.117949 29.479219 
L 866.161821 27.186136 
L 924.028488 23.316276 
L 981.895154 16.153936 
L 1011.063597 10.999219 
" style="fill:none;stroke:#440154;stroke-width:1.5;"/>
    <path clip-path="url(#pd5c30eebae)" style="fill:none;stroke:#440154;stroke-width:1.5;"/>
    <path clip-path="url(#pd5c30eebae)" style="fill:none;stroke:#440154;stroke-width:1.5;"/>
   </g>
   <g id="LineCollection_22">
    <path clip-path="url(#pd5c30eebae)" d="M 1186.590987 472.295765 
L 1155.495154 470.515142 
L 1097.628488 467.542838 
L 1039.761821 465.17638 
L 981.895154 463.036645 
L 940.215216 461.348468 
" style="fill:none;stroke:#440154;stroke-width:1.5;"/>
    <path clip-path="url(#pd5c30eebae)" d="M 907.850287 459.852725 
L 866.161821 457.687862 
L 812.32906 454.519219 
L 808.295154 454.155749 
L 750.428488 448.452563 
L 692.561821 443.289606 
L 634.695154 439.062457 
L 576.828488 436.457684 
L 529.793676 436.039219 
L 518.961821 435.872388 
L 461.095154 434.57941 
L 403.228488 424.139878 
L 386.976273 417.559219 
L 345.361821 403.001707 
L 339.173348 399.079219 
L 315.759394 380.599219 
L 295.292903 362.119219 
L 287.495154 354.151436 
L 284.625935 343.639219 
L 276.941941 325.159219 
L 271.277665 306.679219 
L 277.30795 288.199219 
L 287.495154 283.134393 
L 327.467204 269.719219 
L 345.361821 267.863018 
L 403.228488 254.616841 
L 414.262652 251.239219 
L 461.095154 242.78933 
L 494.478647 232.759219 
L 518.961821 227.241642 
L 561.210635 214.279219 
L 576.828488 209.371894 
L 615.659022 195.799219 
L 634.695154 183.907118 
L 653.144197 177.319219 
L 688.570831 158.839219 
L 692.561821 154.89545 
L 734.903654 140.359219 
L 748.613076 121.879219 
L 750.390712 103.399219 
L 750.428488 103.276789 
L 805.439977 84.919219 
L 808.03415 66.439219 
L 808.26213 47.959219 
L 808.295154 47.609208 
L 864.92106 29.479219 
L 866.095872 10.999219 
" style="fill:none;stroke:#440154;stroke-width:1.5;"/>
    <path clip-path="url(#pd5c30eebae)" style="fill:none;stroke:#440154;stroke-width:1.5;"/>
    <path clip-path="url(#pd5c30eebae)" style="fill:none;stroke:#440154;stroke-width:1.5;"/>
   </g>
   <g id="LineCollection_23">
    <path clip-path="url(#pd5c30eebae)" d="M 1186.590987 549.314226 
L 1155.495154 548.379744 
L 1105.932693 546.919219 
L 1097.628488 546.534141 
L 1039.761821 543.542683 
L 981.895154 540.062877 
L 924.028488 535.942484 
L 866.161821 531.685146 
L 821.369993 528.439219 
L 808.295154 527.049235 
L 750.428488 521.081593 
L 692.561821 516.047598 
L 634.695154 512.28162 
L 594.81574 510.779957 
" style="fill:none;stroke:#440154;stroke-width:1.5;"/>
    <path clip-path="url(#pd5c30eebae)" d="M 558.828559 510.051824 
L 526.029849 509.959219 
L 518.961821 509.925068 
L 515.162766 509.959219 
L 461.095154 510.248241 
L 458.504964 509.959219 
L 403.228488 501.187326 
L 383.090367 491.479219 
L 345.361821 476.123999 
L 341.344945 472.999219 
L 313.114075 454.519219 
L 287.495154 443.023413 
L 278.596409 436.039219 
L 248.042932 417.559219 
L 229.628488 407.247571 
L 223.425421 399.079219 
L 214.233388 380.599219 
L 207.353855 362.119219 
L 198.509223 343.639219 
L 181.437731 325.159219 
L 171.761821 309.730837 
L 171.203315 306.679219 
L 171.761821 300.566438 
L 175.987868 288.199219 
L 213.772968 269.719219 
L 229.628488 267.283246 
L 287.495154 257.013922 
L 311.103398 251.239219 
L 345.361821 248.951738 
L 403.228488 235.756859 
L 413.344863 232.759219 
L 461.095154 223.447225 
L 491.087503 214.279219 
L 518.961821 206.597948 
L 552.845909 195.799219 
L 576.828488 187.143605 
L 605.376359 177.319219 
L 634.695154 160.341718 
L 638.872119 158.839219 
L 686.867321 140.359219 
L 692.561821 135.938851 
L 731.309091 121.879219 
L 747.680087 103.399219 
L 750.428488 94.491622 
L 779.113774 84.919219 
L 805.626022 66.439219 
L 807.900563 47.959219 
L 808.295154 43.777111 
L 852.952166 29.479219 
L 865.206178 10.999219 
" style="fill:none;stroke:#440154;stroke-width:1.5;"/>
    <path clip-path="url(#pd5c30eebae)" style="fill:none;stroke:#440154;stroke-width:1.5;"/>
    <path clip-path="url(#pd5c30eebae)" style="fill:none;stroke:#440154;stroke-width:1.5;"/>
   </g>
   <g id="LineCollection_24">
    <path clip-path="url(#pd5c30eebae)" d="M 344.716899 565.399219 
L 321.057223 546.919219 
L 287.495154 529.038112 
L 286.91058 528.439219 
L 268.035154 509.959219 
L 237.533097 491.479219 
L 229.628488 487.262971 
L 216.110782 472.999219 
L 188.682283 454.519219 
L 171.761821 445.638268 
L 162.383854 436.039219 
L 139.509938 417.559219 
L 113.895154 399.759955 
L 113.48444 399.079219 
L 108.169232 380.599219 
L 103.672473 362.119219 
L 97.346586 343.639219 
L 88.328357 325.943492 
" style="fill:none;stroke:#440154;stroke-width:1.5;"/>
    <path clip-path="url(#pd5c30eebae)" d="M 90.475442 288.029992 
L 106.660931 269.719219 
L 113.895154 267.05427 
L 169.62959 251.239219 
L 171.761821 251.113113 
L 229.628488 247.813398 
L 287.495154 239.166457 
L 314.52932 232.759219 
L 345.361821 230.516662 
L 403.228488 215.952716 
L 408.8276 214.279219 
L 461.095154 202.216437 
L 481.585609 195.799219 
L 518.961821 183.787954 
L 538.886206 177.319219 
L 576.828488 162.348007 
L 587.048645 158.839219 
L 631.969272 140.359219 
L 634.695154 138.615761 
L 681.828042 121.879219 
L 692.561821 113.953279 
L 720.573828 103.399219 
L 745.915052 84.919219 
L 750.428488 77.376802 
L 781.544737 66.439219 
L 804.284891 47.959219 
L 807.865662 29.479219 
L 808.295154 27.555955 
L 856.30924 10.999219 
" style="fill:none;stroke:#440154;stroke-width:1.5;"/>
    <path clip-path="url(#pd5c30eebae)" style="fill:none;stroke:#440154;stroke-width:1.5;"/>
    <path clip-path="url(#pd5c30eebae)" style="fill:none;stroke:#440154;stroke-width:1.5;"/>
   </g>
   <g id="LineCollection_25">
    <path clip-path="url(#pd5c30eebae)" d="M 211.457497 565.399219 
L 187.586585 546.919219 
L 171.761821 537.110684 
L 164.749054 528.439219 
L 145.795015 509.959219 
L 134.392468 502.876447 
" style="fill:none;stroke:#440154;stroke-width:1.5;"/>
    <path clip-path="url(#pd5c30eebae)" d="M 101.37461 475.786012 
L 98.958327 472.999219 
L 73.955663 454.519219 
L 56.028488 444.323815 
" style="fill:none;stroke:#440154;stroke-width:1.5;"/>
    <path clip-path="url(#pd5c30eebae)" d="M 56.028488 250.173201 
L 113.895154 244.59396 
L 169.976262 232.759219 
L 171.761821 232.691682 
L 229.628488 230.091408 
L 287.495154 221.971524 
L 318.66532 214.279219 
L 345.361821 211.681883 
L 401.696446 195.799219 
L 403.228488 195.550948 
L 461.095154 178.631477 
L 465.200816 177.319219 
L 498.579217 165.713823 
" style="fill:none;stroke:#440154;stroke-width:1.5;"/>
    <path clip-path="url(#pd5c30eebae)" d="M 539.461408 151.764515 
L 573.812066 140.359219 
L 576.828488 139.126303 
L 626.407047 121.879219 
L 634.695154 116.698382 
L 672.519581 103.399219 
L 692.561821 85.956008 
L 695.261434 84.919219 
L 741.412123 66.439219 
L 750.428488 54.609492 
L 768.128172 47.959219 
L 801.014516 29.479219 
L 807.634646 10.999219 
" style="fill:none;stroke:#440154;stroke-width:1.5;"/>
   </g>
   <g id="LineCollection_26">
    <path clip-path="url(#pd5c30eebae)" d="M 88.081931 565.399219 
L 61.947665 546.919219 
L 56.028488 543.064213 
" style="fill:none;stroke:#450457;stroke-width:1.5;"/>
    <path clip-path="url(#pd5c30eebae)" d="M 56.028488 231.581282 
L 113.895154 227.94296 
L 171.761821 218.321571 
L 190.39039 214.279219 
L 229.628488 211.872414 
L 287.495154 202.503298 
L 313.605326 195.799219 
L 345.361821 192.209989 
L 397.537183 177.319219 
L 403.228488 176.301849 
L 457.914029 158.839219 
L 461.095154 157.704792 
L 491.056384 147.742449 
" style="fill:none;stroke:#450457;stroke-width:1.5;"/>
    <path clip-path="url(#pd5c30eebae)" d="M 535.140432 132.187814 
L 566.26989 121.879219 
L 576.828488 117.270868 
L 616.580471 103.399219 
L 634.695154 92.782937 
L 656.8124 84.919219 
L 689.332942 66.439219 
L 692.561821 63.120989 
L 734.07158 47.959219 
L 749.707535 29.479219 
L 750.428488 27.990811 
L 793.286067 10.999219 
" style="fill:none;stroke:#450457;stroke-width:1.5;"/>
   </g>
   <g id="LineCollection_27">
    <path clip-path="url(#pd5c30eebae)" d="M 56.028488 213.789153 
L 113.895154 210.438152 
L 171.761821 200.654428 
L 192.843425 195.799219 
L 229.628488 192.779035 
L 287.495154 180.821353 
L 300.931028 177.319219 
L 345.361821 171.687399 
L 389.927079 158.839219 
L 403.228488 156.171048 
L 437.193181 145.15012 
" style="fill:none;stroke:#482475;stroke-width:1.5;"/>
    <path clip-path="url(#pd5c30eebae)" d="M 484.977578 129.129431 
L 506.509272 121.879219 
L 518.961821 114.888201 
L 553.347488 103.399219 
L 576.828488 91.930413 
L 596.939287 84.919219 
L 633.851646 66.439219 
L 634.695154 65.981697 
L 683.677474 47.959219 
L 692.561821 40.308685 
L 722.152554 29.479219 
L 746.954793 10.999219 
" style="fill:none;stroke:#482475;stroke-width:1.5;"/>
   </g>
   <g id="LineCollection_28">
    <path clip-path="url(#pd5c30eebae)" d="M 56.028488 195.675761 
L 113.895154 191.685177 
L 171.761821 179.604228 
L 181.293918 177.319219 
L 229.628488 172.628232 
L 284.16537 158.839219 
L 287.495154 158.423243 
L 345.361821 148.696096 
L 373.880264 140.359219 
L 403.228488 133.938414 
L 435.475382 123.489299 
" style="fill:none;stroke:#fde725;stroke-width:1.5;"/>
    <path clip-path="url(#pd5c30eebae)" d="M 486.63378 106.205411 
L 494.81268 103.399219 
L 518.961821 88.728935 
L 530.185201 84.919219 
L 574.294315 66.439219 
L 576.828488 64.819103 
L 625.127201 47.959219 
L 634.695154 42.582377 
L 670.204071 29.479219 
L 692.561821 12.829958 
L 697.423373 10.999219 
" style="fill:none;stroke:#fde725;stroke-width:1.5;"/>
   </g>
   <g id="line2d_20">
    <path clip-path="url(#pd5c30eebae)" d="M 1186.590987 198.802499 
L 1112.435983 193.531448 
L 905.334876 180.578878 
L 768.786939 173.246564 
L 675.098419 171.581066 
L 612.609071 172.243773 
L 571.956086 173.675539 
L 545.583964 175.681901 
L 528.72933 177.928116 
L 518.045407 180.48819 
L 511.465922 183.142832 
L 507.601854 185.951503 
L 505.41639 189.02052 
L 504.24573 192.420005 
L 504.009255 195.504554 
L 504.39399 198.39998 
L 505.20933 201.147128 
L 506.303168 203.821497 
L 507.570632 206.449386 
L 508.930897 209.113843 
L 510.356054 211.751929 
L 511.831875 214.449397 
L 513.351436 217.107998 
L 514.875556 219.842113 
L 516.418003 222.570009 
L 517.960417 225.31105 
L 519.497435 228.001023 
L 521.010862 230.743571 
L 522.524578 233.532312 
L 524.032931 236.376225 
L 525.522186 239.23435 
L 527.005721 242.134386 
L 528.467756 245.082281 
L 529.91033 248.125864 
L 531.400515 251.102025 
L 532.899385 254.017556 
L 534.382432 256.912348 
L 535.861989 259.745439 
L 537.343968 262.572723 
L 538.805777 265.470949 
L 540.275225 268.272703 
L 541.763127 271.033158 
L 543.270313 273.725021 
L 544.767932 276.399068 
L 546.268339 279.021755 
L 547.757582 281.653533 
L 547.908746 281.911268 
L 548.062057 282.163526 
L 548.216146 282.410936 
L 548.369538 282.656278 
L 548.523757 282.89859 
L 548.67922 283.136236 
L 548.834804 283.372323 
L 548.989611 283.610856 
L 549.144325 283.853622 
L 549.298849 284.094935 
L 549.455143 284.334424 
L 549.612306 284.566632 
L 549.76796 284.80272 
L 549.922005 285.035176 
L 550.075793 285.271715 
L 550.229534 285.512245 
L 550.383885 285.757903 
L 550.538917 286.001316 
L 550.694645 286.238207 
L 550.852493 286.474383 
L 551.008618 286.710213 
L 551.166091 286.941981 
L 551.32447 287.166671 
L 551.482207 287.388947 
L 551.638962 287.615086 
L 551.654572 287.638414 
L 551.669923 287.662772 
L 551.685223 287.687531 
L 551.70057 287.712415 
L 551.716057 287.736573 
L 551.731526 287.760404 
L 551.747053 287.783869 
L 551.762584 287.807544 
L 551.778126 287.830873 
L 551.793663 287.853964 
L 551.809279 287.876906 
L 551.824928 287.900243 
L 551.840733 287.923258 
L 551.85638 287.946784 
L 551.871876 287.970697 
L 551.887265 287.995244 
L 551.902864 288.018812 
L 551.91855 288.04211 
L 551.934297 288.064417 
L 551.950083 288.086098 
L 551.965771 288.108294 
L 551.981378 288.131206 
L 551.997091 288.153789 
L 552.01278 288.176327 
" style="fill:none;stroke:#1f77b4;stroke-linecap:square;stroke-width:1.5;"/>
    <defs>
     <path d="M 0 1.5 
C 0.397805 1.5 0.77937 1.341951 1.06066 1.06066 
C 1.341951 0.77937 1.5 0.397805 1.5 0 
C 1.5 -0.397805 1.341951 -0.77937 1.06066 -1.06066 
C 0.77937 -1.341951 0.397805 -1.5 0 -1.5 
C -0.397805 -1.5 -0.77937 -1.341951 -1.06066 -1.06066 
C -1.341951 -0.77937 -1.5 -0.397805 -1.5 0 
C -1.5 0.397805 -1.341951 0.77937 -1.06066 1.06066 
C -0.77937 1.341951 -0.397805 1.5 0 1.5 
z
" id="me758ebac18" style="stroke:#1f77b4;"/>
    </defs>
    <g clip-path="url(#pd5c30eebae)">
     <use style="fill:#1f77b4;stroke:#1f77b4;" x="1705.777856" xlink:href="#me758ebac18" y="310.260818"/>
     <use style="fill:#1f77b4;stroke:#1f77b4;" x="1670.147628" xlink:href="#me758ebac18" y="286.530416"/>
     <use style="fill:#1f77b4;stroke:#1f77b4;" x="1628.475201" xlink:href="#me758ebac18" y="262.352521"/>
     <use style="fill:#1f77b4;stroke:#1f77b4;" x="1581.348919" xlink:href="#me758ebac18" y="241.745029"/>
     <use style="fill:#1f77b4;stroke:#1f77b4;" x="1420.242672" xlink:href="#me758ebac18" y="215.410816"/>
     <use style="fill:#1f77b4;stroke:#1f77b4;" x="1112.435983" xlink:href="#me758ebac18" y="193.531448"/>
     <use style="fill:#1f77b4;stroke:#1f77b4;" x="905.334876" xlink:href="#me758ebac18" y="180.578878"/>
     <use style="fill:#1f77b4;stroke:#1f77b4;" x="768.786939" xlink:href="#me758ebac18" y="173.246564"/>
     <use style="fill:#1f77b4;stroke:#1f77b4;" x="675.098419" xlink:href="#me758ebac18" y="171.581066"/>
     <use style="fill:#1f77b4;stroke:#1f77b4;" x="612.609071" xlink:href="#me758ebac18" y="172.243773"/>
     <use style="fill:#1f77b4;stroke:#1f77b4;" x="571.956086" xlink:href="#me758ebac18" y="173.675539"/>
     <use style="fill:#1f77b4;stroke:#1f77b4;" x="545.583964" xlink:href="#me758ebac18" y="175.681901"/>
     <use style="fill:#1f77b4;stroke:#1f77b4;" x="528.72933" xlink:href="#me758ebac18" y="177.928116"/>
     <use style="fill:#1f77b4;stroke:#1f77b4;" x="518.045407" xlink:href="#me758ebac18" y="180.48819"/>
     <use style="fill:#1f77b4;stroke:#1f77b4;" x="511.465922" xlink:href="#me758ebac18" y="183.142832"/>
     <use style="fill:#1f77b4;stroke:#1f77b4;" x="507.601854" xlink:href="#me758ebac18" y="185.951503"/>
     <use style="fill:#1f77b4;stroke:#1f77b4;" x="505.41639" xlink:href="#me758ebac18" y="189.02052"/>
     <use style="fill:#1f77b4;stroke:#1f77b4;" x="504.24573" xlink:href="#me758ebac18" y="192.420005"/>
     <use style="fill:#1f77b4;stroke:#1f77b4;" x="504.009255" xlink:href="#me758ebac18" y="195.504554"/>
     <use style="fill:#1f77b4;stroke:#1f77b4;" x="504.39399" xlink:href="#me758ebac18" y="198.39998"/>
     <use style="fill:#1f77b4;stroke:#1f77b4;" x="505.20933" xlink:href="#me758ebac18" y="201.147128"/>
     <use style="fill:#1f77b4;stroke:#1f77b4;" x="506.303168" xlink:href="#me758ebac18" y="203.821497"/>
     <use style="fill:#1f77b4;stroke:#1f77b4;" x="507.570632" xlink:href="#me758ebac18" y="206.449386"/>
     <use style="fill:#1f77b4;stroke:#1f77b4;" x="508.930897" xlink:href="#me758ebac18" y="209.113843"/>
     <use style="fill:#1f77b4;stroke:#1f77b4;" x="510.356054" xlink:href="#me758ebac18" y="211.751929"/>
     <use style="fill:#1f77b4;stroke:#1f77b4;" x="511.831875" xlink:href="#me758ebac18" y="214.449397"/>
     <use style="fill:#1f77b4;stroke:#1f77b4;" x="513.351436" xlink:href="#me758ebac18" y="217.107998"/>
     <use style="fill:#1f77b4;stroke:#1f77b4;" x="514.875556" xlink:href="#me758ebac18" y="219.842113"/>
     <use style="fill:#1f77b4;stroke:#1f77b4;" x="516.418003" xlink:href="#me758ebac18" y="222.570009"/>
     <use style="fill:#1f77b4;stroke:#1f77b4;" x="517.960417" xlink:href="#me758ebac18" y="225.31105"/>
     <use style="fill:#1f77b4;stroke:#1f77b4;" x="519.497435" xlink:href="#me758ebac18" y="228.001023"/>
     <use style="fill:#1f77b4;stroke:#1f77b4;" x="521.010862" xlink:href="#me758ebac18" y="230.743571"/>
     <use style="fill:#1f77b4;stroke:#1f77b4;" x="522.524578" xlink:href="#me758ebac18" y="233.532312"/>
     <use style="fill:#1f77b4;stroke:#1f77b4;" x="524.032931" xlink:href="#me758ebac18" y="236.376225"/>
     <use style="fill:#1f77b4;stroke:#1f77b4;" x="525.522186" xlink:href="#me758ebac18" y="239.23435"/>
     <use style="fill:#1f77b4;stroke:#1f77b4;" x="527.005721" xlink:href="#me758ebac18" y="242.134386"/>
     <use style="fill:#1f77b4;stroke:#1f77b4;" x="528.467756" xlink:href="#me758ebac18" y="245.082281"/>
     <use style="fill:#1f77b4;stroke:#1f77b4;" x="529.91033" xlink:href="#me758ebac18" y="248.125864"/>
     <use style="fill:#1f77b4;stroke:#1f77b4;" x="531.400515" xlink:href="#me758ebac18" y="251.102025"/>
     <use style="fill:#1f77b4;stroke:#1f77b4;" x="532.899385" xlink:href="#me758ebac18" y="254.017556"/>
     <use style="fill:#1f77b4;stroke:#1f77b4;" x="534.382432" xlink:href="#me758ebac18" y="256.912348"/>
     <use style="fill:#1f77b4;stroke:#1f77b4;" x="535.861989" xlink:href="#me758ebac18" y="259.745439"/>
     <use style="fill:#1f77b4;stroke:#1f77b4;" x="537.343968" xlink:href="#me758ebac18" y="262.572723"/>
     <use style="fill:#1f77b4;stroke:#1f77b4;" x="538.805777" xlink:href="#me758ebac18" y="265.470949"/>
     <use style="fill:#1f77b4;stroke:#1f77b4;" x="540.275225" xlink:href="#me758ebac18" y="268.272703"/>
     <use style="fill:#1f77b4;stroke:#1f77b4;" x="541.763127" xlink:href="#me758ebac18" y="271.033158"/>
     <use style="fill:#1f77b4;stroke:#1f77b4;" x="543.270313" xlink:href="#me758ebac18" y="273.725021"/>
     <use style="fill:#1f77b4;stroke:#1f77b4;" x="544.767932" xlink:href="#me758ebac18" y="276.399068"/>
     <use style="fill:#1f77b4;stroke:#1f77b4;" x="546.268339" xlink:href="#me758ebac18" y="279.021755"/>
     <use style="fill:#1f77b4;stroke:#1f77b4;" x="547.757582" xlink:href="#me758ebac18" y="281.653533"/>
     <use style="fill:#1f77b4;stroke:#1f77b4;" x="547.908746" xlink:href="#me758ebac18" y="281.911268"/>
     <use style="fill:#1f77b4;stroke:#1f77b4;" x="548.062057" xlink:href="#me758ebac18" y="282.163526"/>
     <use style="fill:#1f77b4;stroke:#1f77b4;" x="548.216146" xlink:href="#me758ebac18" y="282.410936"/>
     <use style="fill:#1f77b4;stroke:#1f77b4;" x="548.369538" xlink:href="#me758ebac18" y="282.656278"/>
     <use style="fill:#1f77b4;stroke:#1f77b4;" x="548.523757" xlink:href="#me758ebac18" y="282.89859"/>
     <use style="fill:#1f77b4;stroke:#1f77b4;" x="548.67922" xlink:href="#me758ebac18" y="283.136236"/>
     <use style="fill:#1f77b4;stroke:#1f77b4;" x="548.834804" xlink:href="#me758ebac18" y="283.372323"/>
     <use style="fill:#1f77b4;stroke:#1f77b4;" x="548.989611" xlink:href="#me758ebac18" y="283.610856"/>
     <use style="fill:#1f77b4;stroke:#1f77b4;" x="549.144325" xlink:href="#me758ebac18" y="283.853622"/>
     <use style="fill:#1f77b4;stroke:#1f77b4;" x="549.298849" xlink:href="#me758ebac18" y="284.094935"/>
     <use style="fill:#1f77b4;stroke:#1f77b4;" x="549.455143" xlink:href="#me758ebac18" y="284.334424"/>
     <use style="fill:#1f77b4;stroke:#1f77b4;" x="549.612306" xlink:href="#me758ebac18" y="284.566632"/>
     <use style="fill:#1f77b4;stroke:#1f77b4;" x="549.76796" xlink:href="#me758ebac18" y="284.80272"/>
     <use style="fill:#1f77b4;stroke:#1f77b4;" x="549.922005" xlink:href="#me758ebac18" y="285.035176"/>
     <use style="fill:#1f77b4;stroke:#1f77b4;" x="550.075793" xlink:href="#me758ebac18" y="285.271715"/>
     <use style="fill:#1f77b4;stroke:#1f77b4;" x="550.229534" xlink:href="#me758ebac18" y="285.512245"/>
     <use style="fill:#1f77b4;stroke:#1f77b4;" x="550.383885" xlink:href="#me758ebac18" y="285.757903"/>
     <use style="fill:#1f77b4;stroke:#1f77b4;" x="550.538917" xlink:href="#me758ebac18" y="286.001316"/>
     <use style="fill:#1f77b4;stroke:#1f77b4;" x="550.694645" xlink:href="#me758ebac18" y="286.238207"/>
     <use style="fill:#1f77b4;stroke:#1f77b4;" x="550.852493" xlink:href="#me758ebac18" y="286.474383"/>
     <use style="fill:#1f77b4;stroke:#1f77b4;" x="551.008618" xlink:href="#me758ebac18" y="286.710213"/>
     <use style="fill:#1f77b4;stroke:#1f77b4;" x="551.166091" xlink:href="#me758ebac18" y="286.941981"/>
     <use style="fill:#1f77b4;stroke:#1f77b4;" x="551.32447" xlink:href="#me758ebac18" y="287.166671"/>
     <use style="fill:#1f77b4;stroke:#1f77b4;" x="551.482207" xlink:href="#me758ebac18" y="287.388947"/>
     <use style="fill:#1f77b4;stroke:#1f77b4;" x="551.638962" xlink:href="#me758ebac18" y="287.615086"/>
     <use style="fill:#1f77b4;stroke:#1f77b4;" x="551.654572" xlink:href="#me758ebac18" y="287.638414"/>
     <use style="fill:#1f77b4;stroke:#1f77b4;" x="551.669923" xlink:href="#me758ebac18" y="287.662772"/>
     <use style="fill:#1f77b4;stroke:#1f77b4;" x="551.685223" xlink:href="#me758ebac18" y="287.687531"/>
     <use style="fill:#1f77b4;stroke:#1f77b4;" x="551.70057" xlink:href="#me758ebac18" y="287.712415"/>
     <use style="fill:#1f77b4;stroke:#1f77b4;" x="551.716057" xlink:href="#me758ebac18" y="287.736573"/>
     <use style="fill:#1f77b4;stroke:#1f77b4;" x="551.731526" xlink:href="#me758ebac18" y="287.760404"/>
     <use style="fill:#1f77b4;stroke:#1f77b4;" x="551.747053" xlink:href="#me758ebac18" y="287.783869"/>
     <use style="fill:#1f77b4;stroke:#1f77b4;" x="551.762584" xlink:href="#me758ebac18" y="287.807544"/>
     <use style="fill:#1f77b4;stroke:#1f77b4;" x="551.778126" xlink:href="#me758ebac18" y="287.830873"/>
     <use style="fill:#1f77b4;stroke:#1f77b4;" x="551.793663" xlink:href="#me758ebac18" y="287.853964"/>
     <use style="fill:#1f77b4;stroke:#1f77b4;" x="551.809279" xlink:href="#me758ebac18" y="287.876906"/>
     <use style="fill:#1f77b4;stroke:#1f77b4;" x="551.824928" xlink:href="#me758ebac18" y="287.900243"/>
     <use style="fill:#1f77b4;stroke:#1f77b4;" x="551.840733" xlink:href="#me758ebac18" y="287.923258"/>
     <use style="fill:#1f77b4;stroke:#1f77b4;" x="551.85638" xlink:href="#me758ebac18" y="287.946784"/>
     <use style="fill:#1f77b4;stroke:#1f77b4;" x="551.871876" xlink:href="#me758ebac18" y="287.970697"/>
     <use style="fill:#1f77b4;stroke:#1f77b4;" x="551.887265" xlink:href="#me758ebac18" y="287.995244"/>
     <use style="fill:#1f77b4;stroke:#1f77b4;" x="551.902864" xlink:href="#me758ebac18" y="288.018812"/>
     <use style="fill:#1f77b4;stroke:#1f77b4;" x="551.91855" xlink:href="#me758ebac18" y="288.04211"/>
     <use style="fill:#1f77b4;stroke:#1f77b4;" x="551.934297" xlink:href="#me758ebac18" y="288.064417"/>
     <use style="fill:#1f77b4;stroke:#1f77b4;" x="551.950083" xlink:href="#me758ebac18" y="288.086098"/>
     <use style="fill:#1f77b4;stroke:#1f77b4;" x="551.965771" xlink:href="#me758ebac18" y="288.108294"/>
     <use style="fill:#1f77b4;stroke:#1f77b4;" x="551.981378" xlink:href="#me758ebac18" y="288.131206"/>
     <use style="fill:#1f77b4;stroke:#1f77b4;" x="551.997091" xlink:href="#me758ebac18" y="288.153789"/>
     <use style="fill:#1f77b4;stroke:#1f77b4;" x="552.01278" xlink:href="#me758ebac18" y="288.176327"/>
    </g>
   </g>
   <g id="patch_3">
    <path d="M 56.028488 565.399219 
L 56.028488 10.999219 
" style="fill:none;stroke:#000000;stroke-linecap:square;stroke-linejoin:miter;stroke-width:0.8;"/>
   </g>
   <g id="patch_4">
    <path d="M 1172.028487 565.399219 
L 1172.028487 10.999219 
" style="fill:none;stroke:#000000;stroke-linecap:square;stroke-linejoin:miter;stroke-width:0.8;"/>
   </g>
   <g id="patch_5">
    <path d="M 56.028488 565.399219 
L 1172.028488 565.399219 
" style="fill:none;stroke:#000000;stroke-linecap:square;stroke-linejoin:miter;stroke-width:0.8;"/>
   </g>
   <g id="patch_6">
    <path d="M 56.028488 10.999219 
L 1172.028488 10.999219 
" style="fill:none;stroke:#000000;stroke-linecap:square;stroke-linejoin:miter;stroke-width:0.8;"/>
   </g>
   <g id="text_22">
    <g clip-path="url(#pd5c30eebae)">
     <!-- 2.500 -->
     <g style="fill:#39558c;" transform="translate(1174.040911 381.849875)rotate(-357.309531)scale(0.06 -0.06)">
      <use xlink:href="#DejaVuSans-50"/>
      <use x="63.623047" xlink:href="#DejaVuSans-46"/>
      <use x="95.410156" xlink:href="#DejaVuSans-53"/>
      <use x="159.033203" xlink:href="#DejaVuSans-48"/>
      <use x="222.65625" xlink:href="#DejaVuSans-48"/>
     </g>
    </g>
   </g>
   <g id="text_23">
    <g clip-path="url(#pd5c30eebae)">
     <!-- 3.000 -->
     <g style="fill:#33638d;" transform="translate(1088.998261 383.613885)rotate(-358.444024)scale(0.06 -0.06)">
      <defs>
       <path d="M 40.578125 39.3125 
Q 47.65625 37.796875 51.625 33 
Q 55.609375 28.21875 55.609375 21.1875 
Q 55.609375 10.40625 48.1875 4.484375 
Q 40.765625 -1.421875 27.09375 -1.421875 
Q 22.515625 -1.421875 17.65625 -0.515625 
Q 12.796875 0.390625 7.625 2.203125 
L 7.625 11.71875 
Q 11.71875 9.328125 16.59375 8.109375 
Q 21.484375 6.890625 26.8125 6.890625 
Q 36.078125 6.890625 40.9375 10.546875 
Q 45.796875 14.203125 45.796875 21.1875 
Q 45.796875 27.640625 41.28125 31.265625 
Q 36.765625 34.90625 28.71875 34.90625 
L 20.21875 34.90625 
L 20.21875 43.015625 
L 29.109375 43.015625 
Q 36.375 43.015625 40.234375 45.921875 
Q 44.09375 48.828125 44.09375 54.296875 
Q 44.09375 59.90625 40.109375 62.90625 
Q 36.140625 65.921875 28.71875 65.921875 
Q 24.65625 65.921875 20.015625 65.03125 
Q 15.375 64.15625 9.8125 62.3125 
L 9.8125 71.09375 
Q 15.4375 72.65625 20.34375 73.4375 
Q 25.25 74.21875 29.59375 74.21875 
Q 40.828125 74.21875 47.359375 69.109375 
Q 53.90625 64.015625 53.90625 55.328125 
Q 53.90625 49.265625 50.4375 45.09375 
Q 46.96875 40.921875 40.578125 39.3125 
z
" id="DejaVuSans-51"/>
      </defs>
      <use xlink:href="#DejaVuSans-51"/>
      <use x="63.623047" xlink:href="#DejaVuSans-46"/>
      <use x="95.410156" xlink:href="#DejaVuSans-48"/>
      <use x="159.033203" xlink:href="#DejaVuSans-48"/>
      <use x="222.65625" xlink:href="#DejaVuSans-48"/>
     </g>
    </g>
   </g>
   <g id="text_24">
    <g clip-path="url(#pd5c30eebae)">
     <!-- 3.500 -->
     <g style="fill:#2d718e;" transform="translate(1146.854398 388.374264)rotate(-358.009709)scale(0.06 -0.06)">
      <use xlink:href="#DejaVuSans-51"/>
      <use x="63.623047" xlink:href="#DejaVuSans-46"/>
      <use x="95.410156" xlink:href="#DejaVuSans-53"/>
      <use x="159.033203" xlink:href="#DejaVuSans-48"/>
      <use x="222.65625" xlink:href="#DejaVuSans-48"/>
     </g>
    </g>
   </g>
   <g id="text_25">
    <g clip-path="url(#pd5c30eebae)">
     <!-- 3.500 -->
     <g style="fill:#2d718e;" transform="translate(1551.864776 66.715831)rotate(-355.188338)scale(0.06 -0.06)">
      <use xlink:href="#DejaVuSans-51"/>
      <use x="63.623047" xlink:href="#DejaVuSans-46"/>
      <use x="95.410156" xlink:href="#DejaVuSans-53"/>
      <use x="159.033203" xlink:href="#DejaVuSans-48"/>
      <use x="222.65625" xlink:href="#DejaVuSans-48"/>
     </g>
    </g>
   </g>
   <g id="text_26">
    <g clip-path="url(#pd5c30eebae)">
     <!-- 4.000 -->
     <g style="fill:#287d8e;" transform="translate(568.941683 248.344383)rotate(-14.705853)scale(0.06 -0.06)">
      <defs>
       <path d="M 37.796875 64.3125 
L 12.890625 25.390625 
L 37.796875 25.390625 
z
M 35.203125 72.90625 
L 47.609375 72.90625 
L 47.609375 25.390625 
L 58.015625 25.390625 
L 58.015625 17.1875 
L 47.609375 17.1875 
L 47.609375 0 
L 37.796875 0 
L 37.796875 17.1875 
L 4.890625 17.1875 
L 4.890625 26.703125 
z
" id="DejaVuSans-52"/>
      </defs>
      <use xlink:href="#DejaVuSans-52"/>
      <use x="63.623047" xlink:href="#DejaVuSans-46"/>
      <use x="95.410156" xlink:href="#DejaVuSans-48"/>
      <use x="159.033203" xlink:href="#DejaVuSans-48"/>
      <use x="222.65625" xlink:href="#DejaVuSans-48"/>
     </g>
    </g>
   </g>
   <g id="text_27">
    <g clip-path="url(#pd5c30eebae)">
     <!-- 4.000 -->
     <g style="fill:#287d8e;" transform="translate(1551.835594 65.686285)rotate(-352.996465)scale(0.06 -0.06)">
      <use xlink:href="#DejaVuSans-52"/>
      <use x="63.623047" xlink:href="#DejaVuSans-46"/>
      <use x="95.410156" xlink:href="#DejaVuSans-48"/>
      <use x="159.033203" xlink:href="#DejaVuSans-48"/>
      <use x="222.65625" xlink:href="#DejaVuSans-48"/>
     </g>
    </g>
   </g>
   <g id="text_28">
    <g clip-path="url(#pd5c30eebae)">
     <!-- 4.500 -->
     <g style="fill:#238a8d;" transform="translate(1667.666626 410.006585)rotate(-358.512231)scale(0.06 -0.06)">
      <use xlink:href="#DejaVuSans-52"/>
      <use x="63.623047" xlink:href="#DejaVuSans-46"/>
      <use x="95.410156" xlink:href="#DejaVuSans-53"/>
      <use x="159.033203" xlink:href="#DejaVuSans-48"/>
      <use x="222.65625" xlink:href="#DejaVuSans-48"/>
     </g>
    </g>
   </g>
   <g id="text_29">
    <g clip-path="url(#pd5c30eebae)">
     <!-- 4.500 -->
     <g style="fill:#238a8d;" transform="translate(1551.820331 64.691819)rotate(-351.040226)scale(0.06 -0.06)">
      <use xlink:href="#DejaVuSans-52"/>
      <use x="63.623047" xlink:href="#DejaVuSans-46"/>
      <use x="95.410156" xlink:href="#DejaVuSans-53"/>
      <use x="159.033203" xlink:href="#DejaVuSans-48"/>
      <use x="222.65625" xlink:href="#DejaVuSans-48"/>
     </g>
    </g>
   </g>
   <g id="text_30">
    <g clip-path="url(#pd5c30eebae)">
     <!-- 5.000 -->
     <g style="fill:#1f968b;" transform="translate(511.022125 254.87557)rotate(-13.892427)scale(0.06 -0.06)">
      <use xlink:href="#DejaVuSans-53"/>
      <use x="63.623047" xlink:href="#DejaVuSans-46"/>
      <use x="95.410156" xlink:href="#DejaVuSans-48"/>
      <use x="159.033203" xlink:href="#DejaVuSans-48"/>
      <use x="222.65625" xlink:href="#DejaVuSans-48"/>
     </g>
    </g>
   </g>
   <g id="text_31">
    <g clip-path="url(#pd5c30eebae)">
     <!-- 5.000 -->
     <g style="fill:#1f968b;" transform="translate(1551.819043 63.954998)rotate(-350.774251)scale(0.06 -0.06)">
      <use xlink:href="#DejaVuSans-53"/>
      <use x="63.623047" xlink:href="#DejaVuSans-46"/>
      <use x="95.410156" xlink:href="#DejaVuSans-48"/>
      <use x="159.033203" xlink:href="#DejaVuSans-48"/>
      <use x="222.65625" xlink:href="#DejaVuSans-48"/>
     </g>
    </g>
   </g>
   <g id="text_32">
    <g clip-path="url(#pd5c30eebae)">
     <!-- 5.500 -->
     <g style="fill:#20a386;" transform="translate(1711.616259 418.944204)rotate(-358.199642)scale(0.06 -0.06)">
      <use xlink:href="#DejaVuSans-53"/>
      <use x="63.623047" xlink:href="#DejaVuSans-46"/>
      <use x="95.410156" xlink:href="#DejaVuSans-53"/>
      <use x="159.033203" xlink:href="#DejaVuSans-48"/>
      <use x="222.65625" xlink:href="#DejaVuSans-48"/>
     </g>
    </g>
   </g>
   <g id="text_33">
    <g clip-path="url(#pd5c30eebae)">
     <!-- 5.500 -->
     <g style="fill:#20a386;" transform="translate(1551.817944 63.218205)rotate(-350.508495)scale(0.06 -0.06)">
      <use xlink:href="#DejaVuSans-53"/>
      <use x="63.623047" xlink:href="#DejaVuSans-46"/>
      <use x="95.410156" xlink:href="#DejaVuSans-53"/>
      <use x="159.033203" xlink:href="#DejaVuSans-48"/>
      <use x="222.65625" xlink:href="#DejaVuSans-48"/>
     </g>
    </g>
   </g>
   <g id="text_34">
    <g clip-path="url(#pd5c30eebae)">
     <!-- 6.000 -->
     <g style="fill:#29af7f;" transform="translate(1146.869025 401.977486)rotate(-358.607737)scale(0.06 -0.06)">
      <use xlink:href="#DejaVuSans-54"/>
      <use x="63.623047" xlink:href="#DejaVuSans-46"/>
      <use x="95.410156" xlink:href="#DejaVuSans-48"/>
      <use x="159.033203" xlink:href="#DejaVuSans-48"/>
      <use x="222.65625" xlink:href="#DejaVuSans-48"/>
     </g>
    </g>
   </g>
   <g id="text_35">
    <g clip-path="url(#pd5c30eebae)">
     <!-- 6.000 -->
     <g style="fill:#29af7f;" transform="translate(1551.817033 62.481447)rotate(-350.243002)scale(0.06 -0.06)">
      <use xlink:href="#DejaVuSans-54"/>
      <use x="63.623047" xlink:href="#DejaVuSans-46"/>
      <use x="95.410156" xlink:href="#DejaVuSans-48"/>
      <use x="159.033203" xlink:href="#DejaVuSans-48"/>
      <use x="222.65625" xlink:href="#DejaVuSans-48"/>
     </g>
    </g>
   </g>
   <g id="text_36">
    <g clip-path="url(#pd5c30eebae)">
     <!-- 6.500 -->
     <g style="fill:#3dbc74;" transform="translate(1146.867239 403.012883)rotate(-358.536731)scale(0.06 -0.06)">
      <use xlink:href="#DejaVuSans-54"/>
      <use x="63.623047" xlink:href="#DejaVuSans-46"/>
      <use x="95.410156" xlink:href="#DejaVuSans-53"/>
      <use x="159.033203" xlink:href="#DejaVuSans-48"/>
      <use x="222.65625" xlink:href="#DejaVuSans-48"/>
     </g>
    </g>
   </g>
   <g id="text_37">
    <g clip-path="url(#pd5c30eebae)">
     <!-- 6.500 -->
     <g style="fill:#3dbc74;" transform="translate(1551.816312 61.744733)rotate(-349.977819)scale(0.06 -0.06)">
      <use xlink:href="#DejaVuSans-54"/>
      <use x="63.623047" xlink:href="#DejaVuSans-46"/>
      <use x="95.410156" xlink:href="#DejaVuSans-53"/>
      <use x="159.033203" xlink:href="#DejaVuSans-48"/>
      <use x="222.65625" xlink:href="#DejaVuSans-48"/>
     </g>
    </g>
   </g>
   <g id="text_38">
    <g clip-path="url(#pd5c30eebae)">
     <!-- 7.000 -->
     <g style="fill:#56c667;" transform="translate(1146.865467 404.048279)rotate(-358.465729)scale(0.06 -0.06)">
      <use xlink:href="#DejaVuSans-55"/>
      <use x="63.623047" xlink:href="#DejaVuSans-46"/>
      <use x="95.410156" xlink:href="#DejaVuSans-48"/>
      <use x="159.033203" xlink:href="#DejaVuSans-48"/>
      <use x="222.65625" xlink:href="#DejaVuSans-48"/>
     </g>
    </g>
   </g>
   <g id="text_39">
    <g clip-path="url(#pd5c30eebae)">
     <!-- 7.000 -->
     <g style="fill:#56c667;" transform="translate(1551.815778 61.00807)rotate(-349.712989)scale(0.06 -0.06)">
      <use xlink:href="#DejaVuSans-55"/>
      <use x="63.623047" xlink:href="#DejaVuSans-46"/>
      <use x="95.410156" xlink:href="#DejaVuSans-48"/>
      <use x="159.033203" xlink:href="#DejaVuSans-48"/>
      <use x="222.65625" xlink:href="#DejaVuSans-48"/>
     </g>
    </g>
   </g>
   <g id="text_40">
    <g clip-path="url(#pd5c30eebae)">
     <!-- 7.500 -->
     <g style="fill:#75d054;" transform="translate(1146.863707 405.083673)rotate(-358.394732)scale(0.06 -0.06)">
      <use xlink:href="#DejaVuSans-55"/>
      <use x="63.623047" xlink:href="#DejaVuSans-46"/>
      <use x="95.410156" xlink:href="#DejaVuSans-53"/>
      <use x="159.033203" xlink:href="#DejaVuSans-48"/>
      <use x="222.65625" xlink:href="#DejaVuSans-48"/>
     </g>
    </g>
   </g>
   <g id="text_41">
    <g clip-path="url(#pd5c30eebae)">
     <!-- 7.500 -->
     <g style="fill:#75d054;" transform="translate(1551.815431 60.271466)rotate(-349.448557)scale(0.06 -0.06)">
      <use xlink:href="#DejaVuSans-55"/>
      <use x="63.623047" xlink:href="#DejaVuSans-46"/>
      <use x="95.410156" xlink:href="#DejaVuSans-53"/>
      <use x="159.033203" xlink:href="#DejaVuSans-48"/>
      <use x="222.65625" xlink:href="#DejaVuSans-48"/>
     </g>
    </g>
   </g>
   <g id="text_42">
    <g clip-path="url(#pd5c30eebae)">
     <!-- 8.000 -->
     <g style="fill:#95d840;" transform="translate(1609.794476 423.556273)rotate(-358.290268)scale(0.06 -0.06)">
      <use xlink:href="#DejaVuSans-56"/>
      <use x="63.623047" xlink:href="#DejaVuSans-46"/>
      <use x="95.410156" xlink:href="#DejaVuSans-48"/>
      <use x="159.033203" xlink:href="#DejaVuSans-48"/>
      <use x="222.65625" xlink:href="#DejaVuSans-48"/>
     </g>
    </g>
   </g>
   <g id="text_43">
    <g clip-path="url(#pd5c30eebae)">
     <!-- 8.000 -->
     <g style="fill:#95d840;" transform="translate(1551.815271 59.534928)rotate(-349.184568)scale(0.06 -0.06)">
      <use xlink:href="#DejaVuSans-56"/>
      <use x="63.623047" xlink:href="#DejaVuSans-46"/>
      <use x="95.410156" xlink:href="#DejaVuSans-48"/>
      <use x="159.033203" xlink:href="#DejaVuSans-48"/>
      <use x="222.65625" xlink:href="#DejaVuSans-48"/>
     </g>
    </g>
   </g>
   <g id="text_44">
    <g clip-path="url(#pd5c30eebae)">
     <!-- 8.500 -->
     <g style="fill:#bade28;" transform="translate(1146.860229 407.154457)rotate(-358.252754)scale(0.06 -0.06)">
      <use xlink:href="#DejaVuSans-56"/>
      <use x="63.623047" xlink:href="#DejaVuSans-46"/>
      <use x="95.410156" xlink:href="#DejaVuSans-53"/>
      <use x="159.033203" xlink:href="#DejaVuSans-48"/>
      <use x="222.65625" xlink:href="#DejaVuSans-48"/>
     </g>
    </g>
   </g>
   <g id="text_45">
    <g clip-path="url(#pd5c30eebae)">
     <!-- 8.500 -->
     <g style="fill:#bade28;" transform="translate(1551.815296 58.798464)rotate(-348.921065)scale(0.06 -0.06)">
      <use xlink:href="#DejaVuSans-56"/>
      <use x="63.623047" xlink:href="#DejaVuSans-46"/>
      <use x="95.410156" xlink:href="#DejaVuSans-53"/>
      <use x="159.033203" xlink:href="#DejaVuSans-48"/>
      <use x="222.65625" xlink:href="#DejaVuSans-48"/>
     </g>
    </g>
   </g>
   <g id="text_46">
    <g clip-path="url(#pd5c30eebae)">
     <!-- 9.000 -->
     <g style="fill:#dde318;" transform="translate(1146.85851 408.189847)rotate(-358.181774)scale(0.06 -0.06)">
      <use xlink:href="#DejaVuSans-57"/>
      <use x="63.623047" xlink:href="#DejaVuSans-46"/>
      <use x="95.410156" xlink:href="#DejaVuSans-48"/>
      <use x="159.033203" xlink:href="#DejaVuSans-48"/>
      <use x="222.65625" xlink:href="#DejaVuSans-48"/>
     </g>
    </g>
   </g>
   <g id="text_47">
    <g clip-path="url(#pd5c30eebae)">
     <!-- 9.000 -->
     <g style="fill:#dde318;" transform="translate(1551.815506 58.062081)rotate(-348.65809)scale(0.06 -0.06)">
      <use xlink:href="#DejaVuSans-57"/>
      <use x="63.623047" xlink:href="#DejaVuSans-46"/>
      <use x="95.410156" xlink:href="#DejaVuSans-48"/>
      <use x="159.033203" xlink:href="#DejaVuSans-48"/>
      <use x="222.65625" xlink:href="#DejaVuSans-48"/>
     </g>
    </g>
   </g>
   <g id="text_48">
    <g clip-path="url(#pd5c30eebae)">
     <!-- 9.500 -->
     <g style="fill:#fde725;" transform="translate(1146.856804 409.225236)rotate(-358.110799)scale(0.06 -0.06)">
      <use xlink:href="#DejaVuSans-57"/>
      <use x="63.623047" xlink:href="#DejaVuSans-46"/>
      <use x="95.410156" xlink:href="#DejaVuSans-53"/>
      <use x="159.033203" xlink:href="#DejaVuSans-48"/>
      <use x="222.65625" xlink:href="#DejaVuSans-48"/>
     </g>
    </g>
   </g>
   <g id="text_49">
    <g clip-path="url(#pd5c30eebae)">
     <!-- 9.500 -->
     <g style="fill:#fde725;" transform="translate(1551.815898 57.325787)rotate(-348.395687)scale(0.06 -0.06)">
      <use xlink:href="#DejaVuSans-57"/>
      <use x="63.623047" xlink:href="#DejaVuSans-46"/>
      <use x="95.410156" xlink:href="#DejaVuSans-53"/>
      <use x="159.033203" xlink:href="#DejaVuSans-48"/>
      <use x="222.65625" xlink:href="#DejaVuSans-48"/>
     </g>
    </g>
   </g>
   <g id="text_50">
    <g clip-path="url(#pd5c30eebae)">
     <!-- 10.000 -->
     <g style="fill:#440154;" transform="translate(1087.084887 408.373832)rotate(-358.217789)scale(0.06 -0.06)">
      <use xlink:href="#DejaVuSans-49"/>
      <use x="63.623047" xlink:href="#DejaVuSans-48"/>
      <use x="127.246094" xlink:href="#DejaVuSans-46"/>
      <use x="159.033203" xlink:href="#DejaVuSans-48"/>
      <use x="222.65625" xlink:href="#DejaVuSans-48"/>
      <use x="286.279297" xlink:href="#DejaVuSans-48"/>
     </g>
    </g>
   </g>
   <g id="text_51">
    <g clip-path="url(#pd5c30eebae)">
     <!-- 10.000 -->
     <g style="fill:#440154;" transform="translate(1549.948511 56.197101)rotate(-348.133898)scale(0.06 -0.06)">
      <use xlink:href="#DejaVuSans-49"/>
      <use x="63.623047" xlink:href="#DejaVuSans-48"/>
      <use x="127.246094" xlink:href="#DejaVuSans-46"/>
      <use x="159.033203" xlink:href="#DejaVuSans-48"/>
      <use x="222.65625" xlink:href="#DejaVuSans-48"/>
      <use x="286.279297" xlink:href="#DejaVuSans-48"/>
     </g>
    </g>
   </g>
   <g id="text_52">
    <g clip-path="url(#pd5c30eebae)">
     <!-- 100.000 -->
     <g style="fill:#440154;" transform="translate(911.559344 461.773983)rotate(-357.353962)scale(0.06 -0.06)">
      <use xlink:href="#DejaVuSans-49"/>
      <use x="63.623047" xlink:href="#DejaVuSans-48"/>
      <use x="127.246094" xlink:href="#DejaVuSans-48"/>
      <use x="190.869141" xlink:href="#DejaVuSans-46"/>
      <use x="222.65625" xlink:href="#DejaVuSans-48"/>
      <use x="286.279297" xlink:href="#DejaVuSans-48"/>
      <use x="349.902344" xlink:href="#DejaVuSans-48"/>
     </g>
    </g>
   </g>
   <g id="text_53">
    <g clip-path="url(#pd5c30eebae)">
     <!-- 100.000 -->
     <g style="fill:#440154;" transform="translate(1605.925857 47.061486)rotate(-355.03966)scale(0.06 -0.06)">
      <use xlink:href="#DejaVuSans-49"/>
      <use x="63.623047" xlink:href="#DejaVuSans-48"/>
      <use x="127.246094" xlink:href="#DejaVuSans-48"/>
      <use x="190.869141" xlink:href="#DejaVuSans-46"/>
      <use x="222.65625" xlink:href="#DejaVuSans-48"/>
      <use x="286.279297" xlink:href="#DejaVuSans-48"/>
      <use x="349.902344" xlink:href="#DejaVuSans-48"/>
     </g>
    </g>
   </g>
   <g id="text_54">
    <g clip-path="url(#pd5c30eebae)">
     <!-- 1000.000 -->
     <g style="fill:#440154;" transform="translate(562.483238 511.468361)rotate(-358.840885)scale(0.06 -0.06)">
      <use xlink:href="#DejaVuSans-49"/>
      <use x="63.623047" xlink:href="#DejaVuSans-48"/>
      <use x="127.246094" xlink:href="#DejaVuSans-48"/>
      <use x="190.869141" xlink:href="#DejaVuSans-48"/>
      <use x="254.492188" xlink:href="#DejaVuSans-46"/>
      <use x="286.279297" xlink:href="#DejaVuSans-48"/>
      <use x="349.902344" xlink:href="#DejaVuSans-48"/>
      <use x="413.525391" xlink:href="#DejaVuSans-48"/>
     </g>
    </g>
   </g>
   <g id="text_55">
    <g clip-path="url(#pd5c30eebae)">
     <!-- 1000.000 -->
     <g style="fill:#440154;" transform="translate(1661.931424 32.433159)rotate(-348.804168)scale(0.06 -0.06)">
      <use xlink:href="#DejaVuSans-49"/>
      <use x="63.623047" xlink:href="#DejaVuSans-48"/>
      <use x="127.246094" xlink:href="#DejaVuSans-48"/>
      <use x="190.869141" xlink:href="#DejaVuSans-48"/>
      <use x="254.492188" xlink:href="#DejaVuSans-46"/>
      <use x="286.279297" xlink:href="#DejaVuSans-48"/>
      <use x="349.902344" xlink:href="#DejaVuSans-48"/>
      <use x="413.525391" xlink:href="#DejaVuSans-48"/>
     </g>
    </g>
   </g>
   <g id="text_56">
    <g clip-path="url(#pd5c30eebae)">
     <!-- 10000.000 -->
     <g style="fill:#440154;" transform="translate(84.553798 322.972709)rotate(-86.564898)scale(0.06 -0.06)">
      <use xlink:href="#DejaVuSans-49"/>
      <use x="63.623047" xlink:href="#DejaVuSans-48"/>
      <use x="127.246094" xlink:href="#DejaVuSans-48"/>
      <use x="190.869141" xlink:href="#DejaVuSans-48"/>
      <use x="254.492188" xlink:href="#DejaVuSans-48"/>
      <use x="318.115234" xlink:href="#DejaVuSans-46"/>
      <use x="349.902344" xlink:href="#DejaVuSans-48"/>
      <use x="413.525391" xlink:href="#DejaVuSans-48"/>
      <use x="477.148438" xlink:href="#DejaVuSans-48"/>
     </g>
    </g>
   </g>
   <g id="text_57">
    <g clip-path="url(#pd5c30eebae)">
     <!-- 10000.000 -->
     <g style="fill:#440154;" transform="translate(1717.880616 20.871108)rotate(-350.906657)scale(0.06 -0.06)">
      <use xlink:href="#DejaVuSans-49"/>
      <use x="63.623047" xlink:href="#DejaVuSans-48"/>
      <use x="127.246094" xlink:href="#DejaVuSans-48"/>
      <use x="190.869141" xlink:href="#DejaVuSans-48"/>
      <use x="254.492188" xlink:href="#DejaVuSans-48"/>
      <use x="318.115234" xlink:href="#DejaVuSans-46"/>
      <use x="349.902344" xlink:href="#DejaVuSans-48"/>
      <use x="413.525391" xlink:href="#DejaVuSans-48"/>
      <use x="477.148438" xlink:href="#DejaVuSans-48"/>
     </g>
    </g>
   </g>
   <g id="text_58">
    <g clip-path="url(#pd5c30eebae)">
     <!-- 100000.000 -->
     <g style="fill:#440154;" transform="translate(100.937325 481.315403)rotate(-320.850231)scale(0.06 -0.06)">
      <use xlink:href="#DejaVuSans-49"/>
      <use x="63.623047" xlink:href="#DejaVuSans-48"/>
      <use x="127.246094" xlink:href="#DejaVuSans-48"/>
      <use x="190.869141" xlink:href="#DejaVuSans-48"/>
      <use x="254.492188" xlink:href="#DejaVuSans-48"/>
      <use x="318.115234" xlink:href="#DejaVuSans-48"/>
      <use x="381.738281" xlink:href="#DejaVuSans-46"/>
      <use x="413.525391" xlink:href="#DejaVuSans-48"/>
      <use x="477.148438" xlink:href="#DejaVuSans-48"/>
      <use x="540.771484" xlink:href="#DejaVuSans-48"/>
     </g>
    </g>
   </g>
   <g id="text_59">
    <g clip-path="url(#pd5c30eebae)">
     <!-- 100000.000 -->
     <g style="fill:#440154;" transform="translate(502.33755 165.997271)rotate(-18.854065)scale(0.06 -0.06)">
      <use xlink:href="#DejaVuSans-49"/>
      <use x="63.623047" xlink:href="#DejaVuSans-48"/>
      <use x="127.246094" xlink:href="#DejaVuSans-48"/>
      <use x="190.869141" xlink:href="#DejaVuSans-48"/>
      <use x="254.492188" xlink:href="#DejaVuSans-48"/>
      <use x="318.115234" xlink:href="#DejaVuSans-48"/>
      <use x="381.738281" xlink:href="#DejaVuSans-46"/>
      <use x="413.525391" xlink:href="#DejaVuSans-48"/>
      <use x="477.148438" xlink:href="#DejaVuSans-48"/>
      <use x="540.771484" xlink:href="#DejaVuSans-48"/>
     </g>
    </g>
   </g>
   <g id="text_60">
    <g clip-path="url(#pd5c30eebae)">
     <!-- 1000000.000 -->
     <g style="fill:#450457;" transform="translate(494.941225 148.651607)rotate(-19.631054)scale(0.06 -0.06)">
      <use xlink:href="#DejaVuSans-49"/>
      <use x="63.623047" xlink:href="#DejaVuSans-48"/>
      <use x="127.246094" xlink:href="#DejaVuSans-48"/>
      <use x="190.869141" xlink:href="#DejaVuSans-48"/>
      <use x="254.492188" xlink:href="#DejaVuSans-48"/>
      <use x="318.115234" xlink:href="#DejaVuSans-48"/>
      <use x="381.738281" xlink:href="#DejaVuSans-48"/>
      <use x="445.361328" xlink:href="#DejaVuSans-46"/>
      <use x="477.148438" xlink:href="#DejaVuSans-48"/>
      <use x="540.771484" xlink:href="#DejaVuSans-48"/>
      <use x="604.394531" xlink:href="#DejaVuSans-48"/>
     </g>
    </g>
   </g>
   <g id="text_61">
    <g clip-path="url(#pd5c30eebae)">
     <!-- 10000000.000 -->
     <g style="fill:#482475;" transform="translate(440.816273 145.732545)rotate(-18.574997)scale(0.06 -0.06)">
      <use xlink:href="#DejaVuSans-49"/>
      <use x="63.623047" xlink:href="#DejaVuSans-48"/>
      <use x="127.246094" xlink:href="#DejaVuSans-48"/>
      <use x="190.869141" xlink:href="#DejaVuSans-48"/>
      <use x="254.492188" xlink:href="#DejaVuSans-48"/>
      <use x="318.115234" xlink:href="#DejaVuSans-48"/>
      <use x="381.738281" xlink:href="#DejaVuSans-48"/>
      <use x="445.361328" xlink:href="#DejaVuSans-48"/>
      <use x="508.984375" xlink:href="#DejaVuSans-46"/>
      <use x="540.771484" xlink:href="#DejaVuSans-48"/>
      <use x="604.394531" xlink:href="#DejaVuSans-48"/>
      <use x="668.017578" xlink:href="#DejaVuSans-48"/>
     </g>
    </g>
   </g>
   <g id="text_62">
    <g clip-path="url(#pd5c30eebae)">
     <!-- 100000000.000 -->
     <g style="fill:#fde725;" transform="translate(439.027286 124.185955)rotate(-18.701703)scale(0.06 -0.06)">
      <use xlink:href="#DejaVuSans-49"/>
      <use x="63.623047" xlink:href="#DejaVuSans-48"/>
      <use x="127.246094" xlink:href="#DejaVuSans-48"/>
      <use x="190.869141" xlink:href="#DejaVuSans-48"/>
      <use x="254.492188" xlink:href="#DejaVuSans-48"/>
      <use x="318.115234" xlink:href="#DejaVuSans-48"/>
      <use x="381.738281" xlink:href="#DejaVuSans-48"/>
      <use x="445.361328" xlink:href="#DejaVuSans-48"/>
      <use x="508.984375" xlink:href="#DejaVuSans-48"/>
      <use x="572.607422" xlink:href="#DejaVuSans-46"/>
      <use x="604.394531" xlink:href="#DejaVuSans-48"/>
      <use x="668.017578" xlink:href="#DejaVuSans-48"/>
      <use x="731.640625" xlink:href="#DejaVuSans-48"/>
     </g>
    </g>
   </g>
  </g>
 </g>
 <defs>
  <clipPath id="pd5c30eebae">
   <rect height="554.4" width="1116" x="56.028488" y="10.999219"/>
  </clipPath>
 </defs>
</svg>
