<?xml version="1.0" encoding="utf-8" standalone="no"?>
<!DOCTYPE svg PUBLIC "-//W3C//DTD SVG 1.1//EN"
  "http://www.w3.org/Graphics/SVG/1.1/DTD/svg11.dtd">
<!-- Created with matplotlib (https://matplotlib.org/) -->
<svg height="300.989344pt" version="1.1" viewBox="0 0 405.987188 300.989344" width="405.987188pt" xmlns="http://www.w3.org/2000/svg" xmlns:xlink="http://www.w3.org/1999/xlink">
 <metadata>
  <rdf:RDF xmlns:cc="http://creativecommons.org/ns#" xmlns:dc="http://purl.org/dc/elements/1.1/" xmlns:rdf="http://www.w3.org/1999/02/22-rdf-syntax-ns#">
   <cc:Work>
    <dc:type rdf:resource="http://purl.org/dc/dcmitype/StillImage"/>
    <dc:date>2021-09-23T00:07:12.616771</dc:date>
    <dc:format>image/svg+xml</dc:format>
    <dc:creator>
     <cc:Agent>
      <dc:title>Matplotlib v3.3.1, https://matplotlib.org/</dc:title>
     </cc:Agent>
    </dc:creator>
   </cc:Work>
  </rdf:RDF>
 </metadata>
 <defs>
  <style type="text/css">*{stroke-linecap:butt;stroke-linejoin:round;}</style>
 </defs>
 <g id="figure_1">
  <g id="patch_1">
   <path d="M 0 300.989344 
L 405.987188 300.989344 
L 405.987188 0 
L 0 0 
z
" style="fill:#ffffff;"/>
  </g>
  <g id="axes_1">
   <g id="patch_2">
    <path d="M 35.304688 277.111219 
L 392.424688 277.111219 
L 392.424688 10.999219 
L 35.304688 10.999219 
z
" style="fill:#ffffff;"/>
   </g>
   <g id="matplotlib.axis_1">
    <g id="xtick_1">
     <g id="line2d_1">
      <defs>
       <path d="M 0 0 
L 0 3.5 
" id="m35d33a50cf" style="stroke:#000000;stroke-width:0.8;"/>
      </defs>
      <g>
       <use style="stroke:#000000;stroke-width:0.8;" x="35.304687" xlink:href="#m35d33a50cf" y="277.111219"/>
      </g>
     </g>
     <g id="text_1">
      <!-- −20 -->
      <g transform="translate(24.752344 291.709656)scale(0.1 -0.1)">
       <defs>
        <path d="M 10.59375 35.5 
L 73.1875 35.5 
L 73.1875 27.203125 
L 10.59375 27.203125 
z
" id="DejaVuSans-8722"/>
        <path d="M 19.1875 8.296875 
L 53.609375 8.296875 
L 53.609375 0 
L 7.328125 0 
L 7.328125 8.296875 
Q 12.9375 14.109375 22.625 23.890625 
Q 32.328125 33.6875 34.8125 36.53125 
Q 39.546875 41.84375 41.421875 45.53125 
Q 43.3125 49.21875 43.3125 52.78125 
Q 43.3125 58.59375 39.234375 62.25 
Q 35.15625 65.921875 28.609375 65.921875 
Q 23.96875 65.921875 18.8125 64.3125 
Q 13.671875 62.703125 7.8125 59.421875 
L 7.8125 69.390625 
Q 13.765625 71.78125 18.9375 73 
Q 24.125 74.21875 28.421875 74.21875 
Q 39.75 74.21875 46.484375 68.546875 
Q 53.21875 62.890625 53.21875 53.421875 
Q 53.21875 48.921875 51.53125 44.890625 
Q 49.859375 40.875 45.40625 35.40625 
Q 44.1875 33.984375 37.640625 27.21875 
Q 31.109375 20.453125 19.1875 8.296875 
z
" id="DejaVuSans-50"/>
        <path d="M 31.78125 66.40625 
Q 24.171875 66.40625 20.328125 58.90625 
Q 16.5 51.421875 16.5 36.375 
Q 16.5 21.390625 20.328125 13.890625 
Q 24.171875 6.390625 31.78125 6.390625 
Q 39.453125 6.390625 43.28125 13.890625 
Q 47.125 21.390625 47.125 36.375 
Q 47.125 51.421875 43.28125 58.90625 
Q 39.453125 66.40625 31.78125 66.40625 
z
M 31.78125 74.21875 
Q 44.046875 74.21875 50.515625 64.515625 
Q 56.984375 54.828125 56.984375 36.375 
Q 56.984375 17.96875 50.515625 8.265625 
Q 44.046875 -1.421875 31.78125 -1.421875 
Q 19.53125 -1.421875 13.0625 8.265625 
Q 6.59375 17.96875 6.59375 36.375 
Q 6.59375 54.828125 13.0625 64.515625 
Q 19.53125 74.21875 31.78125 74.21875 
z
" id="DejaVuSans-48"/>
       </defs>
       <use xlink:href="#DejaVuSans-8722"/>
       <use x="83.789062" xlink:href="#DejaVuSans-50"/>
       <use x="147.412109" xlink:href="#DejaVuSans-48"/>
      </g>
     </g>
    </g>
    <g id="xtick_2">
     <g id="line2d_2">
      <g>
       <use style="stroke:#000000;stroke-width:0.8;" x="74.984687" xlink:href="#m35d33a50cf" y="277.111219"/>
      </g>
     </g>
     <g id="text_2">
      <!-- −15 -->
      <g transform="translate(64.432344 291.709656)scale(0.1 -0.1)">
       <defs>
        <path d="M 12.40625 8.296875 
L 28.515625 8.296875 
L 28.515625 63.921875 
L 10.984375 60.40625 
L 10.984375 69.390625 
L 28.421875 72.90625 
L 38.28125 72.90625 
L 38.28125 8.296875 
L 54.390625 8.296875 
L 54.390625 0 
L 12.40625 0 
z
" id="DejaVuSans-49"/>
        <path d="M 10.796875 72.90625 
L 49.515625 72.90625 
L 49.515625 64.59375 
L 19.828125 64.59375 
L 19.828125 46.734375 
Q 21.96875 47.46875 24.109375 47.828125 
Q 26.265625 48.1875 28.421875 48.1875 
Q 40.625 48.1875 47.75 41.5 
Q 54.890625 34.8125 54.890625 23.390625 
Q 54.890625 11.625 47.5625 5.09375 
Q 40.234375 -1.421875 26.90625 -1.421875 
Q 22.3125 -1.421875 17.546875 -0.640625 
Q 12.796875 0.140625 7.71875 1.703125 
L 7.71875 11.625 
Q 12.109375 9.234375 16.796875 8.0625 
Q 21.484375 6.890625 26.703125 6.890625 
Q 35.15625 6.890625 40.078125 11.328125 
Q 45.015625 15.765625 45.015625 23.390625 
Q 45.015625 31 40.078125 35.4375 
Q 35.15625 39.890625 26.703125 39.890625 
Q 22.75 39.890625 18.8125 39.015625 
Q 14.890625 38.140625 10.796875 36.28125 
z
" id="DejaVuSans-53"/>
       </defs>
       <use xlink:href="#DejaVuSans-8722"/>
       <use x="83.789062" xlink:href="#DejaVuSans-49"/>
       <use x="147.412109" xlink:href="#DejaVuSans-53"/>
      </g>
     </g>
    </g>
    <g id="xtick_3">
     <g id="line2d_3">
      <g>
       <use style="stroke:#000000;stroke-width:0.8;" x="114.664687" xlink:href="#m35d33a50cf" y="277.111219"/>
      </g>
     </g>
     <g id="text_3">
      <!-- −10 -->
      <g transform="translate(104.112344 291.709656)scale(0.1 -0.1)">
       <use xlink:href="#DejaVuSans-8722"/>
       <use x="83.789062" xlink:href="#DejaVuSans-49"/>
       <use x="147.412109" xlink:href="#DejaVuSans-48"/>
      </g>
     </g>
    </g>
    <g id="xtick_4">
     <g id="line2d_4">
      <g>
       <use style="stroke:#000000;stroke-width:0.8;" x="154.344687" xlink:href="#m35d33a50cf" y="277.111219"/>
      </g>
     </g>
     <g id="text_4">
      <!-- −5 -->
      <g transform="translate(146.973594 291.709656)scale(0.1 -0.1)">
       <use xlink:href="#DejaVuSans-8722"/>
       <use x="83.789062" xlink:href="#DejaVuSans-53"/>
      </g>
     </g>
    </g>
    <g id="xtick_5">
     <g id="line2d_5">
      <g>
       <use style="stroke:#000000;stroke-width:0.8;" x="194.024687" xlink:href="#m35d33a50cf" y="277.111219"/>
      </g>
     </g>
     <g id="text_5">
      <!-- 0 -->
      <g transform="translate(190.843437 291.709656)scale(0.1 -0.1)">
       <use xlink:href="#DejaVuSans-48"/>
      </g>
     </g>
    </g>
    <g id="xtick_6">
     <g id="line2d_6">
      <g>
       <use style="stroke:#000000;stroke-width:0.8;" x="233.704688" xlink:href="#m35d33a50cf" y="277.111219"/>
      </g>
     </g>
     <g id="text_6">
      <!-- 5 -->
      <g transform="translate(230.523438 291.709656)scale(0.1 -0.1)">
       <use xlink:href="#DejaVuSans-53"/>
      </g>
     </g>
    </g>
    <g id="xtick_7">
     <g id="line2d_7">
      <g>
       <use style="stroke:#000000;stroke-width:0.8;" x="273.384688" xlink:href="#m35d33a50cf" y="277.111219"/>
      </g>
     </g>
     <g id="text_7">
      <!-- 10 -->
      <g transform="translate(267.022188 291.709656)scale(0.1 -0.1)">
       <use xlink:href="#DejaVuSans-49"/>
       <use x="63.623047" xlink:href="#DejaVuSans-48"/>
      </g>
     </g>
    </g>
    <g id="xtick_8">
     <g id="line2d_8">
      <g>
       <use style="stroke:#000000;stroke-width:0.8;" x="313.064687" xlink:href="#m35d33a50cf" y="277.111219"/>
      </g>
     </g>
     <g id="text_8">
      <!-- 15 -->
      <g transform="translate(306.702187 291.709656)scale(0.1 -0.1)">
       <use xlink:href="#DejaVuSans-49"/>
       <use x="63.623047" xlink:href="#DejaVuSans-53"/>
      </g>
     </g>
    </g>
    <g id="xtick_9">
     <g id="line2d_9">
      <g>
       <use style="stroke:#000000;stroke-width:0.8;" x="352.744688" xlink:href="#m35d33a50cf" y="277.111219"/>
      </g>
     </g>
     <g id="text_9">
      <!-- 20 -->
      <g transform="translate(346.382188 291.709656)scale(0.1 -0.1)">
       <use xlink:href="#DejaVuSans-50"/>
       <use x="63.623047" xlink:href="#DejaVuSans-48"/>
      </g>
     </g>
    </g>
    <g id="xtick_10">
     <g id="line2d_10">
      <g>
       <use style="stroke:#000000;stroke-width:0.8;" x="392.424688" xlink:href="#m35d33a50cf" y="277.111219"/>
      </g>
     </g>
     <g id="text_10">
      <!-- 25 -->
      <g transform="translate(386.062187 291.709656)scale(0.1 -0.1)">
       <use xlink:href="#DejaVuSans-50"/>
       <use x="63.623047" xlink:href="#DejaVuSans-53"/>
      </g>
     </g>
    </g>
   </g>
   <g id="matplotlib.axis_2">
    <g id="ytick_1">
     <g id="line2d_11">
      <defs>
       <path d="M 0 0 
L -3.5 0 
" id="meaae86193f" style="stroke:#000000;stroke-width:0.8;"/>
      </defs>
      <g>
       <use style="stroke:#000000;stroke-width:0.8;" x="35.304688" xlink:href="#meaae86193f" y="277.111219"/>
      </g>
     </g>
     <g id="text_11">
      <!-- −20 -->
      <g transform="translate(7.2 280.910437)scale(0.1 -0.1)">
       <use xlink:href="#DejaVuSans-8722"/>
       <use x="83.789062" xlink:href="#DejaVuSans-50"/>
       <use x="147.412109" xlink:href="#DejaVuSans-48"/>
      </g>
     </g>
    </g>
    <g id="ytick_2">
     <g id="line2d_12">
      <g>
       <use style="stroke:#000000;stroke-width:0.8;" x="35.304688" xlink:href="#meaae86193f" y="243.847219"/>
      </g>
     </g>
     <g id="text_12">
      <!-- −15 -->
      <g transform="translate(7.2 247.646437)scale(0.1 -0.1)">
       <use xlink:href="#DejaVuSans-8722"/>
       <use x="83.789062" xlink:href="#DejaVuSans-49"/>
       <use x="147.412109" xlink:href="#DejaVuSans-53"/>
      </g>
     </g>
    </g>
    <g id="ytick_3">
     <g id="line2d_13">
      <g>
       <use style="stroke:#000000;stroke-width:0.8;" x="35.304688" xlink:href="#meaae86193f" y="210.583219"/>
      </g>
     </g>
     <g id="text_13">
      <!-- −10 -->
      <g transform="translate(7.2 214.382437)scale(0.1 -0.1)">
       <use xlink:href="#DejaVuSans-8722"/>
       <use x="83.789062" xlink:href="#DejaVuSans-49"/>
       <use x="147.412109" xlink:href="#DejaVuSans-48"/>
      </g>
     </g>
    </g>
    <g id="ytick_4">
     <g id="line2d_14">
      <g>
       <use style="stroke:#000000;stroke-width:0.8;" x="35.304688" xlink:href="#meaae86193f" y="177.319219"/>
      </g>
     </g>
     <g id="text_14">
      <!-- −5 -->
      <g transform="translate(13.5625 181.118437)scale(0.1 -0.1)">
       <use xlink:href="#DejaVuSans-8722"/>
       <use x="83.789062" xlink:href="#DejaVuSans-53"/>
      </g>
     </g>
    </g>
    <g id="ytick_5">
     <g id="line2d_15">
      <g>
       <use style="stroke:#000000;stroke-width:0.8;" x="35.304688" xlink:href="#meaae86193f" y="144.055219"/>
      </g>
     </g>
     <g id="text_15">
      <!-- 0 -->
      <g transform="translate(21.942187 147.854437)scale(0.1 -0.1)">
       <use xlink:href="#DejaVuSans-48"/>
      </g>
     </g>
    </g>
    <g id="ytick_6">
     <g id="line2d_16">
      <g>
       <use style="stroke:#000000;stroke-width:0.8;" x="35.304688" xlink:href="#meaae86193f" y="110.791219"/>
      </g>
     </g>
     <g id="text_16">
      <!-- 5 -->
      <g transform="translate(21.942187 114.590437)scale(0.1 -0.1)">
       <use xlink:href="#DejaVuSans-53"/>
      </g>
     </g>
    </g>
    <g id="ytick_7">
     <g id="line2d_17">
      <g>
       <use style="stroke:#000000;stroke-width:0.8;" x="35.304688" xlink:href="#meaae86193f" y="77.527219"/>
      </g>
     </g>
     <g id="text_17">
      <!-- 10 -->
      <g transform="translate(15.579687 81.326437)scale(0.1 -0.1)">
       <use xlink:href="#DejaVuSans-49"/>
       <use x="63.623047" xlink:href="#DejaVuSans-48"/>
      </g>
     </g>
    </g>
    <g id="ytick_8">
     <g id="line2d_18">
      <g>
       <use style="stroke:#000000;stroke-width:0.8;" x="35.304688" xlink:href="#meaae86193f" y="44.263219"/>
      </g>
     </g>
     <g id="text_18">
      <!-- 15 -->
      <g transform="translate(15.579687 48.062437)scale(0.1 -0.1)">
       <use xlink:href="#DejaVuSans-49"/>
       <use x="63.623047" xlink:href="#DejaVuSans-53"/>
      </g>
     </g>
    </g>
    <g id="ytick_9">
     <g id="line2d_19">
      <g>
       <use style="stroke:#000000;stroke-width:0.8;" x="35.304688" xlink:href="#meaae86193f" y="10.999219"/>
      </g>
     </g>
     <g id="text_19">
      <!-- 20 -->
      <g transform="translate(15.579687 14.798437)scale(0.1 -0.1)">
       <use xlink:href="#DejaVuSans-50"/>
       <use x="63.623047" xlink:href="#DejaVuSans-48"/>
      </g>
     </g>
    </g>
   </g>
   <g id="LineCollection_1"/>
   <g id="LineCollection_2"/>
   <g id="LineCollection_3"/>
   <g id="LineCollection_4">
    <path clip-path="url(#p9d5448ab8a)" d="M 191.403261 131.498148 
L 193.997335 135.184819 
L 201.960688 141.292414 
L 205.263427 144.055219 
L 211.044719 152.925619 
L 213.293419 161.796019 
L 201.960688 163.655923 
L 191.269671 161.796019 
L 190.056688 161.448915 
L 185.907354 152.925619 
L 181.886657 144.055219 
L 178.152687 137.15538 
L 177.304842 135.281391 
" style="fill:none;stroke:#453781;stroke-width:1.5;"/>
   </g>
   <g id="LineCollection_5">
    <path clip-path="url(#p9d5448ab8a)" d="M 166.297457 167.125557 
L 166.709967 161.796019 
L 166.665044 152.925619 
L 166.248687 149.613871 
L 165.208895 144.055219 
L 162.185579 135.184819 
L 160.498536 126.314419 
L 166.248687 125.062328 
L 178.152687 123.794547 
L 190.056688 125.981598 
L 190.268596 126.314419 
L 199.260225 135.184819 
L 201.960688 137.255973 
L 210.088707 144.055219 
L 213.864688 148.279264 
L 214.678709 152.925619 
L 224.580562 161.796019 
L 225.768687 164.388649 
L 226.688784 170.666419 
L 225.768687 179.210112 
L 225.236006 179.536819 
L 213.864688 182.999682 
L 201.960688 184.059426 
L 194.718013 188.407219 
L 190.056688 190.288496 
L 178.152687 195.432819 
L 169.777849 197.277619 
L 166.248687 197.737866 
L 161.895816 197.277619 
L 161.499516 191.66571 
" style="fill:none;stroke:#404688;stroke-width:1.5;"/>
   </g>
   <g id="LineCollection_6">
    <path clip-path="url(#p9d5448ab8a)" d="M 35.304687 132.119796 
L 47.208687 126.583314 
L 47.818574 126.314419 
L 59.112687 125.66094 
L 71.016687 125.149916 
L 82.920687 124.620348 
L 94.824687 122.822362 
L 106.728687 119.383931 
L 118.632687 117.579687 
L 130.536687 118.479426 
L 142.440687 120.117927 
L 154.344687 120.747781 
L 166.248687 120.342616 
L 178.152687 121.499499 
L 190.056688 125.390242 
L 190.645116 126.314419 
L 201.960688 135.043402 
L 202.108202 135.184819 
L 213.864688 144.005785 
L 213.959196 144.055219 
L 215.624391 152.925619 
L 225.768687 161.116751 
L 226.490109 161.796019 
L 230.129349 170.666419 
L 228.250308 179.536819 
L 226.447044 188.407219 
L 225.768687 191.049764 
L 213.864688 194.162153 
L 201.960688 193.964257 
L 195.066288 197.277619 
L 190.056688 198.684775 
L 178.152687 203.428323 
L 171.814701 206.148019 
L 166.248687 207.764618 
L 154.344687 210.614756 
L 142.925682 213.605868 
" style="fill:none;stroke:#39558c;stroke-width:1.5;"/>
    <path clip-path="url(#p9d5448ab8a)" d="M 117.975574 216.760817 
L 106.728687 217.394093 
L 94.824687 217.823089 
L 82.920687 217.9441 
L 71.016687 217.387146 
L 59.112687 215.461463 
L 57.403036 215.018419 
L 47.208687 209.902153 
L 36.064335 206.148019 
L 35.304687 205.785914 
" style="fill:none;stroke:#39558c;stroke-width:1.5;"/>
   </g>
   <g id="LineCollection_7">
    <path clip-path="url(#p9d5448ab8a)" d="M 35.304688 125.206297 
L 47.208687 122.892401 
L 59.112687 119.147569 
L 71.016687 117.578566 
L 71.828376 117.444019 
L 82.920687 117.313237 
L 94.824687 117.113783 
L 106.728687 117.085967 
L 118.632687 117.122295 
L 130.536687 117.176048 
L 142.440687 117.241624 
L 153.648738 117.291074 
" style="fill:none;stroke:#33638d;stroke-width:1.5;"/>
    <path clip-path="url(#p9d5448ab8a)" d="M 178.606085 119.417531 
L 190.056688 124.798886 
L 191.021636 126.314419 
L 201.960688 134.752949 
L 202.411179 135.184819 
L 213.864688 143.77846 
L 214.393799 144.055219 
L 216.570073 152.925619 
L 225.768687 160.353149 
L 227.301098 161.796019 
L 233.569914 170.666419 
L 230.757569 179.536819 
L 227.870557 188.407219 
L 225.768687 196.595072 
L 223.856571 197.277619 
L 213.864688 200.696705 
L 201.960688 199.757003 
L 190.056688 203.256091 
L 183.921339 206.148019 
L 178.152687 208.131362 
L 166.248687 212.307744 
L 158.727449 215.018419 
L 154.344687 216.152651 
L 142.440687 218.567729 
L 130.536687 220.862366 
L 118.632687 223.079854 
L 113.490622 223.888819 
L 106.728687 224.52223 
L 94.824687 225.386473 
L 82.920687 226.015683 
L 71.016687 226.209194 
L 59.112687 225.691097 
L 47.208687 224.375065 
L 44.384384 223.888819 
L 35.304687 220.181384 
" style="fill:none;stroke:#33638d;stroke-width:1.5;"/>
   </g>
   <g id="LineCollection_8">
    <path clip-path="url(#p9d5448ab8a)" d="M 35.304687 123.784124 
L 47.208687 119.451742 
L 52.463166 117.444019 
L 59.112687 117.182995 
L 71.016687 116.966525 
L 82.920687 116.774703 
L 94.824687 116.644445 
L 106.728687 116.705446 
L 118.632687 116.799309 
L 130.536687 116.895924 
L 142.440687 116.9886 
L 153.648698 117.030874 
" style="fill:none;stroke:#2d718e;stroke-width:1.5;"/>
    <path clip-path="url(#p9d5448ab8a)" d="M 178.772561 117.665634 
L 190.056688 124.207531 
L 191.398156 126.314419 
L 201.960688 134.462497 
L 202.714155 135.184819 
L 213.864688 143.551135 
L 214.828402 144.055219 
L 217.515755 152.925619 
L 225.768687 159.589547 
L 228.112087 161.796019 
L 237.010479 170.666419 
L 233.26483 179.536819 
L 229.29407 188.407219 
L 226.375731 197.277619 
L 225.768687 198.705975 
L 213.864688 206.012525 
L 201.960688 204.058781 
L 195.183313 206.148019 
L 190.056688 207.300591 
L 178.152687 211.465755 
L 169.517622 215.018419 
L 166.248687 216.117027 
L 154.344687 219.414928 
L 142.440687 222.615878 
L 137.239538 223.888819 
L 130.536687 225.090112 
L 118.632687 226.874793 
L 106.728687 228.306735 
L 94.824687 229.498175 
L 82.920687 230.366028 
L 71.016687 230.606999 
L 59.112687 229.98141 
L 47.208687 228.409864 
L 35.304687 226.102635 
" style="fill:none;stroke:#2d718e;stroke-width:1.5;"/>
   </g>
   <g id="LineCollection_9">
    <path clip-path="url(#p9d5448ab8a)" d="M 35.304687 122.36195 
L 45.929127 117.444019 
L 47.208687 117.334666 
L 59.112687 116.829522 
L 71.016687 116.480393 
L 82.920687 116.236169 
L 94.824687 116.175107 
L 106.728687 116.324924 
L 118.632687 116.476323 
L 130.536687 116.615801 
L 142.440687 116.735575 
L 154.344687 116.772853 
L 166.248687 116.716829 
L 178.152687 117.04885 
L 179.410327 117.444019 
L 190.056688 123.616175 
L 191.774675 126.314419 
L 201.960688 134.172045 
L 203.017131 135.184819 
L 213.864688 143.32381 
L 215.263005 144.055219 
L 218.461437 152.925619 
L 225.768687 158.825945 
L 228.923077 161.796019 
L 237.672687 170.048715 
L 237.89129 170.666419 
L 237.672687 175.241827 
L 235.77209 179.536819 
L 230.717583 188.407219 
L 227.06798 197.277619 
L 225.768687 200.334819 
L 216.417956 206.148019 
L 213.864688 208.609191 
L 201.960688 207.906057 
L 190.056688 210.437904 
L 178.178729 214.790605 
" style="fill:none;stroke:#287d8e;stroke-width:1.5;"/>
    <path clip-path="url(#p9d5448ab8a)" d="M 154.2553 222.703097 
L 150.161752 223.888819 
L 142.440687 225.563972 
L 130.536687 228.054515 
L 118.632687 230.29623 
L 106.728687 232.09124 
L 101.248382 232.759219 
L 94.824687 233.5102 
L 82.920687 234.387696 
L 71.016687 234.373462 
L 59.112687 233.683505 
L 49.364415 232.759219 
L 47.208687 232.444664 
L 35.304687 229.716619 
" style="fill:none;stroke:#287d8e;stroke-width:1.5;"/>
   </g>
   <g id="LineCollection_10">
    <path clip-path="url(#p9d5448ab8a)" d="M 35.304687 120.939777 
L 42.856739 117.444019 
L 47.208687 117.072095 
L 59.112687 116.476049 
L 71.016687 115.99426 
L 82.920687 115.697635 
L 94.824687 115.705769 
L 106.728687 115.944403 
L 118.632687 116.153338 
L 130.536687 116.335678 
L 142.440687 116.482551 
L 154.344687 116.512206 
L 166.248687 116.412037 
L 178.152687 116.728341 
L 180.430357 117.444019 
L 190.056688 123.024819 
L 192.151195 126.314419 
L 201.960688 133.881592 
L 203.320107 135.184819 
L 213.864688 143.096485 
L 215.697608 144.055219 
L 219.407119 152.925619 
L 225.768687 158.062342 
L 229.734066 161.796019 
L 237.672687 169.283784 
L 238.161995 170.666419 
L 237.72767 179.536819 
L 237.672687 180.056778 
L 232.141096 188.407219 
L 227.760229 197.277619 
L 225.768687 201.963662 
L 219.038006 206.148019 
L 213.864688 211.134736 
L 201.960688 211.324162 
L 190.056688 213.575217 
L 186.12999 215.018419 
L 178.176121 217.502956 
" style="fill:none;stroke:#238a8d;stroke-width:1.5;"/>
    <path clip-path="url(#p9d5448ab8a)" d="M 154.193481 225.194625 
L 142.440687 228.007488 
L 130.536687 231.018919 
L 122.478039 232.759219 
L 118.632687 233.353781 
L 106.728687 235.217617 
L 94.824687 237.140101 
L 82.920687 238.007463 
L 71.016687 237.534833 
L 59.112687 236.305298 
L 47.208687 234.814704 
L 35.304687 233.07427 
" style="fill:none;stroke:#238a8d;stroke-width:1.5;"/>
   </g>
   <g id="LineCollection_11">
    <path clip-path="url(#p9d5448ab8a)" d="M 35.304687 119.517604 
L 39.784352 117.444019 
L 47.208687 116.809525 
L 59.112687 116.122576 
L 71.016687 115.508128 
L 82.920687 115.159101 
L 94.824687 115.236431 
L 106.728687 115.563881 
L 118.632687 115.830352 
L 130.536687 116.055555 
L 142.440687 116.229526 
L 153.649563 116.250273 
" style="fill:none;stroke:#1f968b;stroke-width:1.5;"/>
    <path clip-path="url(#p9d5448ab8a)" d="M 178.813061 116.615331 
L 181.450388 117.444019 
L 190.056688 122.433463 
L 192.527715 126.314419 
L 201.960688 133.59114 
L 203.623083 135.184819 
L 213.864688 142.86916 
L 216.132211 144.055219 
L 220.352801 152.925619 
L 225.768687 157.29874 
L 230.545056 161.796019 
L 237.672687 168.518853 
L 238.432699 170.666419 
L 237.954908 179.536819 
L 237.672687 182.2057 
L 233.564609 188.407219 
L 228.452479 197.277619 
L 225.768687 203.592505 
L 221.658057 206.148019 
L 213.864688 213.660281 
L 201.960688 214.742267 
L 200.411447 215.018419 
L 190.056688 216.561419 
L 178.152687 220.176676 
L 167.383076 223.888819 
L 166.248687 224.147685 
L 154.344687 227.178192 
L 142.440687 230.451005 
L 134.157567 232.759219 
L 130.536687 233.349529 
L 118.632687 235.476227 
L 106.728687 238.202935 
L 94.824687 240.770003 
L 82.920687 241.62723 
L 71.016687 240.696204 
L 59.112687 238.927092 
L 47.208687 237.043985 
L 35.304687 235.066959 
" style="fill:none;stroke:#1f968b;stroke-width:1.5;"/>
   </g>
   <g id="LineCollection_12">
    <path clip-path="url(#p9d5448ab8a)" d="M 35.304687 118.095431 
L 36.711964 117.444019 
L 47.208687 116.546954 
L 59.112687 115.769103 
L 71.016687 115.021995 
L 82.920687 114.620566 
L 94.824687 114.767093 
L 106.728687 115.18336 
L 117.939962 115.488512 
" style="fill:none;stroke:#20a386;stroke-width:1.5;"/>
    <path clip-path="url(#p9d5448ab8a)" d="M 143.134989 115.977342 
L 154.344687 115.990914 
L 166.248687 115.802452 
L 178.152687 116.087323 
L 182.470418 117.444019 
L 190.056688 121.842107 
L 192.904235 126.314419 
L 201.960688 133.300688 
L 203.92606 135.184819 
L 213.864688 142.641835 
L 216.566814 144.055219 
L 221.298483 152.925619 
L 225.768687 156.535138 
L 231.356045 161.796019 
L 237.672687 167.753921 
L 238.703404 170.666419 
L 238.182146 179.536819 
L 237.672687 184.354622 
L 234.988122 188.407219 
L 229.144728 197.277619 
L 225.768687 205.221349 
L 224.278107 206.148019 
L 214.163411 215.018419 
L 213.864688 215.253919 
L 201.960688 216.991041 
L 190.056688 219.41889 
L 178.152687 222.843077 
L 175.118797 223.888819 
L 166.248687 225.912968 
L 154.344687 229.197949 
L 142.803138 232.759219 
L 142.440687 232.813556 
L 130.536687 234.77908 
L 118.632687 237.598674 
L 106.728687 241.188254 
L 104.796864 241.629619 
L 94.824687 242.723418 
L 82.920687 243.4574 
L 71.016687 242.943034 
L 59.611046 241.629619 
L 59.112688 241.548886 
L 47.208687 239.273266 
L 35.304687 237.059648 
" style="fill:none;stroke:#20a386;stroke-width:1.5;"/>
   </g>
   <g id="LineCollection_13">
    <path clip-path="url(#p9d5448ab8a)" d="M 35.304687 117.320332 
L 47.208687 116.284383 
L 59.112687 115.41563 
L 71.016687 114.535862 
L 82.920687 114.082032 
L 94.824687 114.297755 
L 106.728687 114.802838 
L 118.632687 115.184381 
L 130.536687 115.495308 
L 142.440687 115.723477 
L 154.344687 115.730268 
L 166.248687 115.497659 
L 178.152687 115.766815 
L 183.490449 117.444019 
L 190.056688 121.250752 
L 193.280754 126.314419 
L 201.960688 133.010235 
L 204.229036 135.184819 
L 213.864688 142.41451 
L 217.001418 144.055219 
L 222.244165 152.925619 
L 225.768687 155.771536 
L 232.167034 161.796019 
L 237.672687 166.98899 
L 238.974109 170.666419 
L 238.409383 179.536819 
L 237.672687 186.503545 
L 236.411635 188.407219 
L 229.836977 197.277619 
L 225.902076 206.148019 
L 225.768687 206.367924 
L 214.809663 215.018419 
L 213.864688 215.763395 
L 201.960688 219.13704 
L 190.056688 222.276361 
L 184.325645 223.888819 
L 178.509745 224.78057 
" style="fill:none;stroke:#29af7f;stroke-width:1.5;"/>
    <path clip-path="url(#p9d5448ab8a)" d="M 154.171787 231.271056 
L 149.348871 232.759219 
L 142.440687 233.794869 
L 130.536687 236.208631 
L 118.632687 239.72112 
L 112.520811 241.629619 
L 106.728687 242.484314 
L 94.824687 244.156622 
L 82.920687 245.286388 
L 71.016687 244.806711 
L 59.112687 243.231411 
L 47.869901 241.629619 
L 47.208687 241.502547 
L 35.304687 239.052336 
" style="fill:none;stroke:#29af7f;stroke-width:1.5;"/>
   </g>
   <g id="LineCollection_14">
    <path clip-path="url(#p9d5448ab8a)" d="M 35.304687 117.092111 
L 47.208687 116.021813 
L 59.112687 115.062156 
L 71.016687 114.04973 
L 82.920687 113.543498 
L 94.824687 113.828418 
L 106.728687 114.422317 
L 118.632687 114.861395 
L 130.536687 115.215185 
L 142.440687 115.470452 
L 154.344687 115.469621 
L 166.248687 115.192867 
L 178.152687 115.446306 
L 184.510479 117.444019 
L 190.056688 120.659396 
L 193.657274 126.314419 
L 201.960688 132.719783 
L 204.532012 135.184819 
L 213.864688 142.187185 
L 217.436021 144.055219 
L 223.189847 152.925619 
L 225.768687 155.007934 
L 232.978024 161.796019 
L 237.672687 166.224059 
L 239.244814 170.666419 
L 238.636621 179.536819 
L 237.689618 188.407219 
L 237.672687 188.504249 
L 230.529226 197.277619 
L 226.2115 206.148019 
L 225.768687 206.878043 
L 215.455915 215.018419 
L 213.864688 216.272871 
L 201.960688 221.28304 
L 193.200185 223.888819 
L 190.056688 224.372384 
L 178.459536 226.340477 
" style="fill:none;stroke:#3dbc74;stroke-width:1.5;"/>
    <path clip-path="url(#p9d5448ab8a)" d="M 154.169113 232.954396 
L 142.440687 234.776183 
L 130.536687 237.638183 
L 119.04748 241.629619 
L 118.632687 241.698021 
L 106.728687 243.487295 
L 94.824687 245.589826 
L 82.920687 247.115376 
L 71.016687 246.670389 
L 59.112687 244.884095 
L 47.208687 242.951301 
L 38.129307 241.629619 
L 35.304687 241.045025 
" style="fill:none;stroke:#3dbc74;stroke-width:1.5;"/>
   </g>
   <g id="LineCollection_15">
    <path clip-path="url(#p9d5448ab8a)" d="M 35.304687 116.86389 
L 47.208687 115.759242 
L 59.112687 114.708683 
L 71.016687 113.563597 
L 82.920687 113.004964 
L 94.824687 113.35908 
L 106.728687 114.041795 
L 118.632687 114.53841 
L 130.536687 114.935062 
L 142.440687 115.217428 
L 154.344687 115.208975 
L 166.248687 114.888075 
L 178.152687 115.125797 
L 185.530509 117.444019 
L 190.056688 120.06804 
L 194.033794 126.314419 
L 201.960688 132.42933 
L 204.834988 135.184819 
L 213.864688 141.95986 
L 217.870624 144.055219 
L 224.135529 152.925619 
L 225.768687 154.244332 
L 233.789013 161.796019 
L 237.672687 165.459128 
L 239.515519 170.666419 
L 238.863858 179.536819 
L 237.837969 188.407219 
L 237.672687 189.354447 
L 231.221476 197.277619 
L 226.520924 206.148019 
L 225.768687 207.388161 
L 216.102167 215.018419 
L 213.864688 216.782347 
L 201.960688 223.429039 
L 200.414931 223.888819 
L 190.056688 225.482231 
L 178.405255 227.89743 
" style="fill:none;stroke:#56c667;stroke-width:1.5;"/>
    <path clip-path="url(#p9d5448ab8a)" d="M 153.947415 233.707028 
L 142.440687 235.757496 
L 130.536687 239.067734 
L 123.162392 241.629619 
L 118.632687 242.376602 
L 106.728687 244.490275 
L 94.824687 247.023029 
L 82.920687 248.944364 
L 71.016687 248.534067 
L 59.112687 246.536778 
L 47.208687 244.352874 
L 35.304687 242.445902 
" style="fill:none;stroke:#56c667;stroke-width:1.5;"/>
   </g>
   <g id="LineCollection_16">
    <path clip-path="url(#p9d5448ab8a)" d="M 35.304687 116.635669 
L 47.208687 115.496672 
L 59.112687 114.35521 
L 71.016687 113.077465 
L 82.920687 112.46643 
L 94.824687 112.889742 
L 106.728687 113.661274 
L 118.632687 114.215424 
L 130.536687 114.654939 
L 142.440687 114.964403 
L 154.344687 114.948329 
L 166.248687 114.583282 
L 178.152687 114.805289 
L 186.55054 117.444019 
L 190.056688 119.476684 
L 194.410313 126.314419 
L 201.960688 132.138878 
L 205.137964 135.184819 
L 213.864688 141.732535 
L 218.305227 144.055219 
L 225.081211 152.925619 
L 225.768687 153.480729 
L 234.600003 161.796019 
L 237.672687 164.694197 
L 239.786224 170.666419 
L 239.091096 179.536819 
L 237.986319 188.407219 
L 237.672687 190.204645 
L 231.913725 197.277619 
L 226.830348 206.148019 
L 225.768687 207.89828 
L 216.74842 215.018419 
L 213.864688 217.291823 
L 202.641723 223.888819 
L 201.960688 224.253338 
L 190.056688 226.592078 
L 179.01803 229.29512 
" style="fill:none;stroke:#75d054;stroke-width:1.5;"/>
    <path clip-path="url(#p9d5448ab8a)" d="M 154.403749 234.337817 
L 154.344687 234.345346 
L 142.440687 236.738809 
L 130.536687 240.497285 
L 127.277304 241.629619 
L 118.632687 243.055182 
L 106.728687 245.493256 
L 94.824687 248.456233 
L 84.049871 250.500019 
L 82.920687 250.594227 
L 74.213902 250.500019 
L 71.016688 250.397744 
L 59.112687 248.189462 
L 47.208687 245.754447 
L 35.304687 243.601078 
" style="fill:none;stroke:#75d054;stroke-width:1.5;"/>
   </g>
   <g id="LineCollection_17">
    <path clip-path="url(#p9d5448ab8a)" d="M 35.304687 116.407448 
L 47.208687 115.234101 
L 59.112687 114.001737 
L 71.016687 112.591332 
L 82.920687 111.927895 
L 94.824687 112.420404 
L 106.728687 113.280752 
L 118.632687 113.892438 
L 130.536687 114.374816 
L 142.440687 114.711379 
L 154.344687 114.687683 
L 166.248687 114.27849 
L 178.152687 114.48478 
L 187.57057 117.444019 
L 190.056688 118.885328 
L 194.786833 126.314419 
L 201.960688 131.848426 
L 205.440941 135.184819 
L 213.864688 141.50521 
L 218.73983 144.055219 
L 225.768687 152.778353 
L 225.775265 152.925619 
L 235.410992 161.796019 
L 237.672687 163.929266 
L 240.056929 170.666419 
L 239.318333 179.536819 
L 238.13467 188.407219 
L 237.672687 191.054844 
L 232.605974 197.277619 
L 227.139772 206.148019 
L 225.768687 208.408398 
L 217.394672 215.018419 
L 213.864688 217.801299 
L 203.508455 223.888819 
L 201.960688 224.71725 
L 190.056688 227.701925 
L 184.405555 229.298107 
" style="fill:none;stroke:#95d840;stroke-width:1.5;"/>
    <path clip-path="url(#p9d5448ab8a)" d="M 159.786053 234.29422 
L 154.344687 235.054458 
L 142.440687 237.720123 
L 131.127107 241.629619 
L 130.536687 241.727429 
L 118.632687 243.733763 
L 106.728687 246.496237 
L 94.824687 249.889437 
L 91.605707 250.500019 
L 82.920687 251.224616 
L 71.016687 251.075789 
L 62.640532 250.500019 
L 59.112687 249.842145 
L 47.208687 247.156021 
L 35.304687 244.756255 
" style="fill:none;stroke:#95d840;stroke-width:1.5;"/>
   </g>
   <g id="LineCollection_18">
    <path clip-path="url(#p9d5448ab8a)" d="M 35.304687 116.179227 
L 47.208687 114.971531 
L 59.112687 113.648264 
L 71.016687 112.1052 
L 82.920687 111.389361 
L 94.824687 111.951066 
L 106.728687 112.900231 
L 118.632687 113.569453 
L 130.536687 114.094692 
L 142.440687 114.458354 
L 154.344687 114.427036 
L 166.248687 113.973698 
L 178.152687 114.164271 
L 188.590601 117.444019 
L 190.056688 118.293973 
L 195.163353 126.314419 
L 201.960688 131.557973 
L 205.743917 135.184819 
L 213.864688 141.277885 
L 219.174433 144.055219 
L 225.768687 152.238991 
L 225.799357 152.925619 
L 236.221981 161.796019 
L 237.672687 163.164335 
L 240.327634 170.666419 
L 239.545571 179.536819 
L 238.28302 188.407219 
L 237.672687 191.905042 
L 233.298223 197.277619 
L 227.449196 206.148019 
L 225.768687 208.918517 
L 218.040924 215.018419 
L 213.864688 218.310775 
L 204.375188 223.888819 
L 201.960688 225.181162 
L 190.056688 228.811772 
L 189.68081 228.932066 
" style="fill:none;stroke:#bade28;stroke-width:1.5;"/>
    <path clip-path="url(#p9d5448ab8a)" d="M 165.151273 234.12153 
L 154.344687 235.763569 
L 142.440687 238.701436 
L 133.966902 241.629619 
L 130.536687 242.197877 
L 118.632687 244.412343 
L 106.728687 247.499218 
L 96.740802 250.500019 
L 94.824687 250.790599 
L 82.920687 251.855005 
L 71.016687 251.68499 
L 59.112687 250.822867 
L 55.50802 250.500019 
L 47.208687 248.557594 
L 35.304687 245.911431 
" style="fill:none;stroke:#bade28;stroke-width:1.5;"/>
   </g>
   <g id="LineCollection_19">
    <path clip-path="url(#p9d5448ab8a)" d="M 35.304687 115.951007 
L 47.208687 114.70896 
L 59.112687 113.294791 
L 71.016687 111.619067 
L 82.920687 110.850827 
L 94.824687 111.481728 
L 106.728687 112.519709 
L 118.632687 113.246467 
L 130.536687 113.814569 
L 142.440687 114.20533 
L 154.344687 114.16639 
L 166.248687 113.668905 
L 178.152687 113.843762 
L 189.610631 117.444019 
L 190.056688 117.702617 
L 195.539873 126.314419 
L 201.960688 131.267521 
L 206.046893 135.184819 
L 213.864688 141.05056 
L 219.609036 144.055219 
L 225.768687 151.699628 
L 225.823448 152.925619 
L 237.032971 161.796019 
L 237.672687 162.399404 
L 240.598339 170.666419 
L 239.772808 179.536819 
L 238.43137 188.407219 
L 237.672687 192.75524 
L 233.990472 197.277619 
L 227.75862 206.148019 
L 225.768687 209.428635 
L 218.687176 215.018419 
L 213.864688 218.820251 
L 205.24192 223.888819 
L 201.960688 225.645074 
L 190.264696 229.846891 
" style="fill:none;stroke:#dde318;stroke-width:1.5;"/>
    <path clip-path="url(#p9d5448ab8a)" d="M 165.636358 234.618799 
L 154.344687 236.47268 
L 142.440687 239.682749 
L 136.806697 241.629619 
L 130.536687 242.668324 
L 118.632687 245.090923 
L 106.728687 248.502199 
L 100.079131 250.500019 
L 94.824687 251.296859 
L 82.920687 252.485395 
L 71.016687 252.294192 
L 59.112687 251.359216 
L 49.519564 250.500019 
L 47.208687 249.959168 
L 35.304687 247.066608 
" style="fill:none;stroke:#dde318;stroke-width:1.5;"/>
   </g>
   <g id="LineCollection_20">
    <path clip-path="url(#p9d5448ab8a)" d="M 35.304687 115.722786 
L 47.208687 114.44639 
L 59.112687 112.941318 
L 71.016687 111.132935 
L 82.920687 110.312293 
L 94.824687 111.01239 
L 106.728687 112.139188 
L 118.632687 112.923482 
L 130.536687 113.534446 
L 142.440687 113.952305 
L 154.344687 113.905744 
L 166.248687 113.364113 
L 178.152687 113.523254 
L 190.056688 117.394304 
L 190.077918 117.444019 
L 195.916392 126.314419 
L 201.960688 130.977069 
L 206.349869 135.184819 
L 213.864688 140.823235 
L 220.043639 144.055219 
L 225.768687 151.160266 
L 225.84754 152.925619 
L 237.672687 161.792204 
L 237.676389 161.796019 
L 240.869044 170.666419 
L 240.000046 179.536819 
L 238.579721 188.407219 
L 237.672687 193.605439 
L 234.682722 197.277619 
L 228.068044 206.148019 
L 225.768687 209.938754 
L 219.333428 215.018419 
L 213.864688 219.329727 
L 206.108653 223.888819 
L 201.960688 226.108987 
L 190.394662 230.891708 
" style="fill:none;stroke:#fde725;stroke-width:1.5;"/>
    <path clip-path="url(#p9d5448ab8a)" d="M 165.649825 235.187399 
L 154.344687 237.181791 
L 142.440687 240.664063 
L 139.646492 241.629619 
L 130.536687 243.138772 
L 118.632687 245.769504 
L 106.728688 249.50518 
L 103.417459 250.500019 
L 94.824687 251.803118 
L 82.920687 253.115784 
L 71.016687 252.903394 
L 59.112687 251.895565 
L 47.208687 250.792404 
L 44.382116 250.500019 
L 35.304687 248.221785 
" style="fill:none;stroke:#fde725;stroke-width:1.5;"/>
   </g>
   <g id="LineCollection_21">
    <path clip-path="url(#p9d5448ab8a)" d="M 35.304687 115.494565 
L 47.208687 114.183819 
L 59.112687 112.587845 
L 71.016687 110.646802 
L 82.920687 109.773759 
L 94.824687 110.543052 
L 106.728687 111.758666 
L 118.632687 112.600496 
L 130.536687 113.254323 
L 142.440687 113.699281 
L 154.344687 113.645098 
L 166.248687 113.05932 
L 176.494263 113.182763 
" style="fill:none;stroke:#440154;stroke-width:1.5;"/>
    <path clip-path="url(#p9d5448ab8a)" d="M 199.135926 128.507558 
L 201.960688 130.686616 
L 206.652845 135.184819 
L 213.864688 140.59591 
L 220.478242 144.055219 
L 225.768687 150.620904 
L 225.871631 152.925619 
L 237.672687 161.77414 
L 237.693917 161.796019 
L 241.139749 170.666419 
L 240.227284 179.536819 
L 238.728071 188.407219 
L 237.672687 194.455637 
L 235.374971 197.277619 
L 228.377468 206.148019 
L 225.768687 210.448872 
L 219.979681 215.018419 
L 213.864688 219.839203 
L 206.975385 223.888819 
L 201.960688 226.572899 
L 190.056688 232.141312 
L 188.145798 232.759219 
L 178.152687 234.089406 
L 166.248687 235.645236 
L 154.344687 237.890902 
L 142.476831 241.629619 
L 142.440687 241.635145 
L 130.536687 243.609219 
L 118.632687 246.448084 
L 106.744849 250.500019 
L 106.728687 250.502942 
L 94.824687 252.309378 
L 82.920687 253.746173 
L 71.016687 253.512595 
L 59.112687 252.431914 
L 47.208687 251.268516 
L 39.779414 250.500019 
L 35.304687 249.376961 
" style="fill:none;stroke:#440154;stroke-width:1.5;"/>
   </g>
   <g id="LineCollection_22">
    <path clip-path="url(#p9d5448ab8a)" d="M 57.925096 277.111219 
L 47.208687 275.081628 
L 35.304687 272.928448 
" style="fill:none;stroke:#440154;stroke-width:1.5;"/>
    <path clip-path="url(#p9d5448ab8a)" d="M 35.304687 99.216242 
L 47.208687 99.575038 
L 51.376282 99.703219 
L 59.112687 101.616081 
L 71.016687 103.300762 
L 82.920687 104.129084 
L 94.824687 104.523062 
L 106.728687 104.642292 
L 118.632687 104.708676 
L 130.536687 104.848599 
L 142.440687 104.853665 
L 154.344687 104.789367 
L 166.248687 104.199695 
L 178.152687 103.26453 
L 190.056688 107.586137 
L 190.445303 108.573619 
L 196.90699 117.444019 
L 201.960688 121.419185 
L 205.810613 126.314419 
L 213.864688 132.420769 
L 220.660936 135.184819 
L 225.768687 138.835717 
L 226.43601 144.055219 
L 230.208101 152.925619 
L 237.672687 158.522622 
L 240.848882 161.796019 
L 249.576687 168.625212 
L 251.887894 170.666419 
L 253.18152 179.536819 
L 251.569517 188.407219 
L 249.994385 197.277619 
L 249.576687 199.540259 
L 244.64264 206.148019 
L 239.479643 215.018419 
L 237.672687 218.249941 
L 231.112126 223.888819 
L 225.768687 228.75319 
L 220.073917 232.759219 
L 213.864688 236.207795 
L 205.380672 241.629619 
L 201.960688 243.104377 
L 191.062141 250.500019 
L 190.056688 250.981109 
L 178.152687 255.770757 
L 168.707998 259.370419 
L 166.248687 259.910578 
L 154.344687 261.457734 
L 142.440687 264.05072 
L 130.536687 267.915613 
L 129.608062 268.240819 
L 118.632687 270.215054 
L 110.4228 272.13321 
" style="fill:none;stroke:#440154;stroke-width:1.5;"/>
   </g>
   <g id="LineCollection_23">
    <path clip-path="url(#p9d5448ab8a)" d="M 35.304687 90.185034 
L 47.208687 90.762614 
L 49.290069 90.832819 
L 59.112687 92.661423 
L 71.016687 93.50511 
L 82.920687 93.892542 
L 94.824687 94.14699 
L 100.633325 94.215836 
" style="fill:none;stroke:#440154;stroke-width:1.5;"/>
    <path clip-path="url(#p9d5448ab8a)" d="M 136.631069 94.446884 
L 142.440687 94.373995 
L 154.344687 93.514378 
L 166.248687 91.246667 
L 178.152687 92.398026 
L 190.056688 98.620174 
L 191.053203 99.703219 
L 199.064038 108.573619 
L 201.960688 110.936537 
L 205.405039 117.444019 
L 213.864688 123.987755 
L 216.785364 126.314419 
L 225.768687 132.760931 
L 229.342682 135.184819 
L 233.593271 144.055219 
L 237.672687 147.672138 
L 238.386661 152.925619 
L 249.576687 161.327605 
L 250.060803 161.796019 
L 261.480687 170.337634 
L 261.874501 170.666419 
L 265.065882 179.536819 
L 264.317807 188.407219 
L 262.69167 197.277619 
L 261.480687 205.564426 
L 261.097306 206.148019 
L 254.463397 215.018419 
L 250.214005 223.888819 
L 249.576687 225.045794 
L 240.829323 232.759219 
L 237.672687 235.893251 
L 229.980117 241.629619 
L 225.768687 244.361322 
L 216.654547 250.500019 
L 213.864688 251.965433 
L 202.096248 259.370419 
L 201.960688 259.429203 
L 190.056688 264.576715 
L 184.771359 268.240819 
L 178.152687 271.740498 
L 169.001563 277.111219 
" style="fill:none;stroke:#440154;stroke-width:1.5;"/>
   </g>
   <g id="LineCollection_24">
    <path clip-path="url(#p9d5448ab8a)" d="M 35.304687 80.264821 
L 47.208687 80.927854 
L 59.112687 81.215213 
L 71.016687 81.232622 
L 82.920687 81.131829 
L 94.824687 81.024556 
L 106.728687 80.948444 
L 118.632687 81.0701 
L 130.536687 81.26132 
L 142.440687 81.062065 
L 154.344687 80.479399 
L 166.248687 81.308154 
L 171.893347 81.962419 
L 178.152687 85.013445 
L 190.056688 90.408797 
L 190.764667 90.832819 
L 201.960688 99.40262 
L 202.081779 99.703219 
L 205.890087 108.573619 
L 212.475421 113.82847 
" style="fill:none;stroke:#440154;stroke-width:1.5;"/>
    <path clip-path="url(#p9d5448ab8a)" d="M 238.155473 141.05702 
L 238.345538 144.055219 
L 247.010936 152.925619 
L 249.576687 154.852103 
L 256.753376 161.796019 
L 261.480687 165.331858 
L 267.870355 170.666419 
L 273.384688 175.38513 
L 275.184887 179.536819 
L 276.847655 188.407219 
L 275.494059 197.277619 
L 274.046474 206.148019 
L 273.384688 210.3479 
L 270.22011 215.018419 
L 264.490134 223.888819 
L 261.480687 230.995502 
L 259.669018 232.759219 
L 250.790442 241.629619 
L 249.576687 242.814008 
L 239.41289 250.500019 
L 237.672687 251.716835 
L 226.882228 259.370419 
L 225.768687 260.012647 
L 213.864688 267.562962 
L 212.7974 268.240819 
L 201.960688 272.824329 
L 195.104614 277.111219 
" style="fill:none;stroke:#440154;stroke-width:1.5;"/>
   </g>
   <g id="LineCollection_25">
    <path clip-path="url(#p9d5448ab8a)" d="M 35.304687 55.310567 
L 47.208687 55.29337 
L 57.579645 55.351219 
L 59.112687 55.460677 
L 71.016688 56.501912 
L 82.920687 57.536778 
L 94.824687 58.412136 
L 106.728687 59.226522 
L 118.632687 62.388427 
L 130.536687 64.068238 
L 132.757171 64.221619 
L 142.440687 68.851427 
L 154.344687 70.863423 
L 166.248687 72.783838 
L 168.148572 73.092019 
L 178.152687 79.291704 
L 189.181992 81.962419 
L 190.056688 82.553397 
L 201.960688 90.782034 
L 201.99343 90.832819 
L 206.125998 99.703219 
L 213.864688 105.949529 
L 215.162737 108.573619 
L 220.503621 112.692698 
" style="fill:none;stroke:#440154;stroke-width:1.5;"/>
    <path clip-path="url(#p9d5448ab8a)" d="M 246.41549 144.807725 
L 249.576687 147.352547 
L 251.685775 152.925619 
L 261.480687 160.27931 
L 263.174178 161.796019 
L 273.384688 169.429424 
L 274.801732 170.666419 
L 285.288688 178.870432 
L 285.666468 179.536819 
L 288.34891 188.407219 
L 288.327788 197.277619 
L 286.830165 206.148019 
L 285.525783 215.018419 
L 285.288688 216.257854 
L 279.581224 223.888819 
L 274.884321 232.759219 
L 273.384688 235.99185 
L 267.470638 241.629619 
L 261.480687 248.894218 
L 259.475219 250.500019 
L 249.576687 258.297489 
L 248.113721 259.370419 
L 237.672687 265.96904 
L 234.42462 268.240819 
L 225.768687 272.799563 
L 219.305457 277.111219 
" style="fill:none;stroke:#440154;stroke-width:1.5;"/>
   </g>
   <g id="LineCollection_26">
    <path clip-path="url(#p9d5448ab8a)" d="M 35.304688 46.224905 
L 47.208687 46.354443 
L 56.795272 46.480819 
L 59.112688 46.717544 
L 71.016687 48.14159 
L 82.920687 48.923095 
L 94.824687 51.214051 
L 106.728687 53.472325 
L 118.632687 54.845565 
L 127.952137 55.351219 
L 130.536687 56.724534 
L 142.440687 60.175576 
L 154.344687 62.852395 
L 164.167482 64.221619 
L 166.248687 65.414651 
L 178.152687 72.080078 
L 181.699663 73.092019 
L 190.056688 78.851296 
L 194.717806 81.962419 
L 201.960688 87.312754 
L 204.230232 90.832819 
L 213.864688 98.301112 
L 214.695489 99.703219 
L 225.768687 108.299892 
L 225.877903 108.573619 
L 226.154338 108.781175 
" style="fill:none;stroke:#450457;stroke-width:1.5;"/>
    <path clip-path="url(#p9d5448ab8a)" d="M 251.048046 144.442571 
L 261.480687 152.489877 
L 261.78483 152.925619 
L 273.384688 161.613723 
L 273.595832 161.796019 
L 285.288688 170.548508 
L 285.418012 170.666419 
L 292.587531 179.536819 
L 297.192688 183.661444 
L 298.464597 188.407219 
L 300.571353 197.277619 
L 299.796189 206.148019 
L 298.268749 215.018419 
L 297.192687 221.798689 
L 295.796381 223.888819 
L 289.42892 232.759219 
L 285.607302 241.629619 
L 285.288688 242.187168 
L 276.028472 250.500019 
L 273.384688 253.208949 
L 265.484835 259.370419 
L 261.480687 262.160246 
L 253.107483 268.240819 
L 249.576687 270.362332 
L 239.99047 277.111219 
" style="fill:none;stroke:#450457;stroke-width:1.5;"/>
   </g>
   <g id="LineCollection_27">
    <path clip-path="url(#p9d5448ab8a)" d="M 35.304687 37.238801 
L 47.208687 37.438065 
L 59.112687 37.609771 
L 59.138131 37.610419 
L 71.016687 40.860583 
L 82.920687 42.806987 
L 94.824687 44.689507 
L 106.728687 46.016149 
L 116.845742 46.480819 
L 118.632687 47.346752 
L 130.536687 51.552293 
L 142.440687 53.722242 
L 154.344687 55.079898 
L 157.650811 55.351219 
L 166.248687 60.72499 
L 178.152687 64.073002 
L 178.672009 64.221619 
L 190.056688 72.326877 
L 191.158872 73.092019 
L 201.960688 81.114264 
L 202.75459 81.962419 
L 213.864688 90.425761 
L 214.194565 90.832819 
L 224.969448 99.703219 
L 225.768687 100.323708 
L 229.060363 108.573619 
L 231.127391 110.12561 
" style="fill:none;stroke:#482475;stroke-width:1.5;"/>
    <path clip-path="url(#p9d5448ab8a)" d="M 262.398684 145.873869 
L 267.320718 152.925619 
L 273.384688 157.467433 
L 278.398263 161.796019 
L 285.288688 166.95373 
L 289.360773 170.666419 
L 297.192688 176.70101 
L 298.936829 179.536819 
L 309.096688 187.856359 
L 309.286388 188.407219 
L 311.167939 197.277619 
L 312.487473 206.148019 
L 311.323149 215.018419 
L 309.803941 223.888819 
L 309.096688 227.164943 
L 304.839624 232.759219 
L 299.613883 241.629619 
L 297.192688 246.744067 
L 293.22779 250.500019 
L 285.370517 259.370419 
L 285.288688 259.436281 
L 273.440909 268.240819 
L 273.384688 268.27617 
L 261.480687 275.874809 
L 259.744882 277.111219 
" style="fill:none;stroke:#482475;stroke-width:1.5;"/>
   </g>
   <g id="LineCollection_28">
    <path clip-path="url(#p9d5448ab8a)" d="M 35.304687 28.513775 
L 44.287531 28.740019 
L 47.208687 29.45414 
L 59.112687 32.259756 
L 71.016687 34.040955 
L 82.920687 35.560771 
L 94.824687 37.036304 
L 104.110225 37.610419 
L 106.728688 38.908769 
L 118.632687 43.288228 
L 130.536687 45.126014 
L 142.440687 46.177982 
L 147.409149 46.480819 
L 154.344687 50.41315 
L 166.248687 54.716201 
L 170.918744 55.351219 
L 178.152687 60.30517 
L 190.056688 64.192104 
L 190.105976 64.221619 
L 201.960688 73.037833 
L 202.034792 73.092019 
L 212.141227 81.962419 
L 213.864688 83.2753 
L 219.989252 90.832819 
L 225.768687 95.279493 
L 226.681241 99.703219 
L 232.882229 104.419734 
" style="fill:none;stroke:#fde725;stroke-width:1.5;"/>
    <path clip-path="url(#p9d5448ab8a)" d="M 265.065958 145.37193 
L 273.384688 151.672228 
L 274.594822 152.925619 
L 285.288688 160.925268 
L 286.28137 161.796019 
L 297.192688 169.970613 
L 297.921071 170.666419 
L 309.096688 179.219438 
L 309.321171 179.536819 
L 314.555344 188.407219 
L 321.000688 194.294059 
L 321.657548 197.277619 
L 323.469069 206.148019 
L 324.141225 215.018419 
L 322.913988 223.888819 
L 321.13026 232.759219 
L 321.000688 233.298957 
L 314.353459 241.629619 
L 309.906759 250.500019 
L 309.096688 251.83974 
L 300.362886 259.370419 
L 297.192688 262.246282 
L 289.287239 268.240819 
L 285.288688 270.71913 
L 276.416487 277.111219 
" style="fill:none;stroke:#fde725;stroke-width:1.5;"/>
   </g>
   <g id="line2d_20">
    <path clip-path="url(#p9d5448ab8a)" d="M 406.987188 162.668183 
L 405.686375 162.993519 
L 397.752268 164.875816 
L 389.947034 166.568743 
L 382.248938 168.133362 
L 374.658721 169.617002 
L 367.204114 171.043279 
L 359.837603 172.328613 
L 352.605763 173.388184 
L 345.444354 174.327532 
L 338.488381 175.111122 
L 331.615766 175.589543 
L 324.786699 176.072866 
L 318.214002 176.320445 
L 311.700884 176.443013 
L 305.244317 176.328953 
L 298.93777 176.279887 
L 292.741909 176.037428 
L 286.698158 175.706975 
L 280.712403 175.064004 
L 274.858958 174.352479 
L 269.083029 173.563625 
L 263.177741 172.034649 
L 257.629104 171.060254 
L 252.268817 170.107803 
L 246.96437 168.913189 
L 241.700455 167.52689 
L 236.707124 166.104294 
L 231.707965 164.864931 
L 224.83546 154.019066 
L 219.576748 151.384695 
L 214.77876 149.972405 
L 210.153098 148.47812 
L 205.729939 147.349634 
L 205.294536 147.322844 
L 204.83764 147.260993 
L 204.392108 147.161908 
L 203.950085 147.036446 
L 203.506834 146.919239 
L 203.058521 146.7911 
L 202.63206 146.652614 
L 202.199869 146.505486 
L 201.764785 146.389978 
L 201.334002 146.255656 
L 200.89698 146.115469 
L 200.465331 145.980522 
L 200.039783 145.831211 
L 199.619231 145.694746 
L 199.188869 145.559082 
L 198.768695 145.427232 
L 198.354974 145.309242 
L 197.946013 145.195522 
L 197.525177 145.054751 
L 197.104192 144.936593 
L 196.695373 144.807275 
L 196.282198 144.676381 
L 195.874003 144.555396 
L 195.453928 144.436651 
L 195.051442 144.317832 
L 195.012497 144.309653 
L 194.969173 144.300065 
L 194.925613 144.289169 
L 194.882854 144.273923 
L 194.841956 144.263527 
L 194.800432 144.252582 
L 194.76021 144.242455 
L 194.720175 144.22975 
L 194.677861 144.217347 
L 194.636136 144.204861 
L 194.595662 144.194533 
L 194.554591 144.184155 
L 194.512248 144.174027 
L 194.4707 144.161953 
L 194.430108 144.155272 
L 194.392811 144.145169 
L 194.352041 144.134577 
L 194.30905 144.126605 
L 194.26874 144.11711 
L 194.22953 144.106655 
L 194.189019 144.093912 
L 194.14951 144.084909 
L 194.10743 144.075904 
L 194.065471 144.065194 
" style="fill:none;stroke:#1f77b4;stroke-linecap:square;stroke-width:1.5;"/>
    <defs>
     <path d="M 0 1.5 
C 0.397805 1.5 0.77937 1.341951 1.06066 1.06066 
C 1.341951 0.77937 1.5 0.397805 1.5 0 
C 1.5 -0.397805 1.341951 -0.77937 1.06066 -1.06066 
C 0.77937 -1.341951 0.397805 -1.5 0 -1.5 
C -0.397805 -1.5 -0.77937 -1.341951 -1.06066 -1.06066 
C -1.341951 -0.77937 -1.5 -0.397805 -1.5 0 
C -1.5 0.397805 -1.341951 0.77937 -1.06066 1.06066 
C -0.77937 1.341951 -0.397805 1.5 0 1.5 
z
" id="ma38a2ba30d" style="stroke:#1f77b4;"/>
    </defs>
    <g clip-path="url(#p9d5448ab8a)">
     <use style="fill:#1f77b4;stroke:#1f77b4;" x="557.624535" xlink:href="#ma38a2ba30d" y="120.768607"/>
     <use style="fill:#1f77b4;stroke:#1f77b4;" x="549.724167" xlink:href="#ma38a2ba30d" y="123.087919"/>
     <use style="fill:#1f77b4;stroke:#1f77b4;" x="539.806468" xlink:href="#ma38a2ba30d" y="125.672106"/>
     <use style="fill:#1f77b4;stroke:#1f77b4;" x="529.983403" xlink:href="#ma38a2ba30d" y="128.183283"/>
     <use style="fill:#1f77b4;stroke:#1f77b4;" x="520.247647" xlink:href="#ma38a2ba30d" y="131.078396"/>
     <use style="fill:#1f77b4;stroke:#1f77b4;" x="510.681181" xlink:href="#ma38a2ba30d" y="133.906319"/>
     <use style="fill:#1f77b4;stroke:#1f77b4;" x="501.222033" xlink:href="#ma38a2ba30d" y="136.639545"/>
     <use style="fill:#1f77b4;stroke:#1f77b4;" x="491.882466" xlink:href="#ma38a2ba30d" y="139.381532"/>
     <use style="fill:#1f77b4;stroke:#1f77b4;" x="482.674134" xlink:href="#ma38a2ba30d" y="141.995211"/>
     <use style="fill:#1f77b4;stroke:#1f77b4;" x="473.583989" xlink:href="#ma38a2ba30d" y="144.61366"/>
     <use style="fill:#1f77b4;stroke:#1f77b4;" x="464.654354" xlink:href="#ma38a2ba30d" y="147.108173"/>
     <use style="fill:#1f77b4;stroke:#1f77b4;" x="455.86089" xlink:href="#ma38a2ba30d" y="149.586786"/>
     <use style="fill:#1f77b4;stroke:#1f77b4;" x="447.186884" xlink:href="#ma38a2ba30d" y="151.992571"/>
     <use style="fill:#1f77b4;stroke:#1f77b4;" x="438.679034" xlink:href="#ma38a2ba30d" y="154.31472"/>
     <use style="fill:#1f77b4;stroke:#1f77b4;" x="430.209131" xlink:href="#ma38a2ba30d" y="156.645349"/>
     <use style="fill:#1f77b4;stroke:#1f77b4;" x="421.889627" xlink:href="#ma38a2ba30d" y="158.96364"/>
     <use style="fill:#1f77b4;stroke:#1f77b4;" x="413.746194" xlink:href="#ma38a2ba30d" y="160.977738"/>
     <use style="fill:#1f77b4;stroke:#1f77b4;" x="405.686375" xlink:href="#ma38a2ba30d" y="162.993519"/>
     <use style="fill:#1f77b4;stroke:#1f77b4;" x="397.752268" xlink:href="#ma38a2ba30d" y="164.875816"/>
     <use style="fill:#1f77b4;stroke:#1f77b4;" x="389.947034" xlink:href="#ma38a2ba30d" y="166.568743"/>
     <use style="fill:#1f77b4;stroke:#1f77b4;" x="382.248938" xlink:href="#ma38a2ba30d" y="168.133362"/>
     <use style="fill:#1f77b4;stroke:#1f77b4;" x="374.658721" xlink:href="#ma38a2ba30d" y="169.617002"/>
     <use style="fill:#1f77b4;stroke:#1f77b4;" x="367.204114" xlink:href="#ma38a2ba30d" y="171.043279"/>
     <use style="fill:#1f77b4;stroke:#1f77b4;" x="359.837603" xlink:href="#ma38a2ba30d" y="172.328613"/>
     <use style="fill:#1f77b4;stroke:#1f77b4;" x="352.605763" xlink:href="#ma38a2ba30d" y="173.388184"/>
     <use style="fill:#1f77b4;stroke:#1f77b4;" x="345.444354" xlink:href="#ma38a2ba30d" y="174.327532"/>
     <use style="fill:#1f77b4;stroke:#1f77b4;" x="338.488381" xlink:href="#ma38a2ba30d" y="175.111122"/>
     <use style="fill:#1f77b4;stroke:#1f77b4;" x="331.615766" xlink:href="#ma38a2ba30d" y="175.589543"/>
     <use style="fill:#1f77b4;stroke:#1f77b4;" x="324.786699" xlink:href="#ma38a2ba30d" y="176.072866"/>
     <use style="fill:#1f77b4;stroke:#1f77b4;" x="318.214002" xlink:href="#ma38a2ba30d" y="176.320445"/>
     <use style="fill:#1f77b4;stroke:#1f77b4;" x="311.700884" xlink:href="#ma38a2ba30d" y="176.443013"/>
     <use style="fill:#1f77b4;stroke:#1f77b4;" x="305.244317" xlink:href="#ma38a2ba30d" y="176.328953"/>
     <use style="fill:#1f77b4;stroke:#1f77b4;" x="298.93777" xlink:href="#ma38a2ba30d" y="176.279887"/>
     <use style="fill:#1f77b4;stroke:#1f77b4;" x="292.741909" xlink:href="#ma38a2ba30d" y="176.037428"/>
     <use style="fill:#1f77b4;stroke:#1f77b4;" x="286.698158" xlink:href="#ma38a2ba30d" y="175.706975"/>
     <use style="fill:#1f77b4;stroke:#1f77b4;" x="280.712403" xlink:href="#ma38a2ba30d" y="175.064004"/>
     <use style="fill:#1f77b4;stroke:#1f77b4;" x="274.858958" xlink:href="#ma38a2ba30d" y="174.352479"/>
     <use style="fill:#1f77b4;stroke:#1f77b4;" x="269.083029" xlink:href="#ma38a2ba30d" y="173.563625"/>
     <use style="fill:#1f77b4;stroke:#1f77b4;" x="263.177741" xlink:href="#ma38a2ba30d" y="172.034649"/>
     <use style="fill:#1f77b4;stroke:#1f77b4;" x="257.629104" xlink:href="#ma38a2ba30d" y="171.060254"/>
     <use style="fill:#1f77b4;stroke:#1f77b4;" x="252.268817" xlink:href="#ma38a2ba30d" y="170.107803"/>
     <use style="fill:#1f77b4;stroke:#1f77b4;" x="246.96437" xlink:href="#ma38a2ba30d" y="168.913189"/>
     <use style="fill:#1f77b4;stroke:#1f77b4;" x="241.700455" xlink:href="#ma38a2ba30d" y="167.52689"/>
     <use style="fill:#1f77b4;stroke:#1f77b4;" x="236.707124" xlink:href="#ma38a2ba30d" y="166.104294"/>
     <use style="fill:#1f77b4;stroke:#1f77b4;" x="231.707965" xlink:href="#ma38a2ba30d" y="164.864931"/>
     <use style="fill:#1f77b4;stroke:#1f77b4;" x="224.83546" xlink:href="#ma38a2ba30d" y="154.019066"/>
     <use style="fill:#1f77b4;stroke:#1f77b4;" x="219.576748" xlink:href="#ma38a2ba30d" y="151.384695"/>
     <use style="fill:#1f77b4;stroke:#1f77b4;" x="214.77876" xlink:href="#ma38a2ba30d" y="149.972405"/>
     <use style="fill:#1f77b4;stroke:#1f77b4;" x="210.153098" xlink:href="#ma38a2ba30d" y="148.47812"/>
     <use style="fill:#1f77b4;stroke:#1f77b4;" x="205.729939" xlink:href="#ma38a2ba30d" y="147.349634"/>
     <use style="fill:#1f77b4;stroke:#1f77b4;" x="205.294536" xlink:href="#ma38a2ba30d" y="147.322844"/>
     <use style="fill:#1f77b4;stroke:#1f77b4;" x="204.83764" xlink:href="#ma38a2ba30d" y="147.260993"/>
     <use style="fill:#1f77b4;stroke:#1f77b4;" x="204.392108" xlink:href="#ma38a2ba30d" y="147.161908"/>
     <use style="fill:#1f77b4;stroke:#1f77b4;" x="203.950085" xlink:href="#ma38a2ba30d" y="147.036446"/>
     <use style="fill:#1f77b4;stroke:#1f77b4;" x="203.506834" xlink:href="#ma38a2ba30d" y="146.919239"/>
     <use style="fill:#1f77b4;stroke:#1f77b4;" x="203.058521" xlink:href="#ma38a2ba30d" y="146.7911"/>
     <use style="fill:#1f77b4;stroke:#1f77b4;" x="202.63206" xlink:href="#ma38a2ba30d" y="146.652614"/>
     <use style="fill:#1f77b4;stroke:#1f77b4;" x="202.199869" xlink:href="#ma38a2ba30d" y="146.505486"/>
     <use style="fill:#1f77b4;stroke:#1f77b4;" x="201.764785" xlink:href="#ma38a2ba30d" y="146.389978"/>
     <use style="fill:#1f77b4;stroke:#1f77b4;" x="201.334002" xlink:href="#ma38a2ba30d" y="146.255656"/>
     <use style="fill:#1f77b4;stroke:#1f77b4;" x="200.89698" xlink:href="#ma38a2ba30d" y="146.115469"/>
     <use style="fill:#1f77b4;stroke:#1f77b4;" x="200.465331" xlink:href="#ma38a2ba30d" y="145.980522"/>
     <use style="fill:#1f77b4;stroke:#1f77b4;" x="200.039783" xlink:href="#ma38a2ba30d" y="145.831211"/>
     <use style="fill:#1f77b4;stroke:#1f77b4;" x="199.619231" xlink:href="#ma38a2ba30d" y="145.694746"/>
     <use style="fill:#1f77b4;stroke:#1f77b4;" x="199.188869" xlink:href="#ma38a2ba30d" y="145.559082"/>
     <use style="fill:#1f77b4;stroke:#1f77b4;" x="198.768695" xlink:href="#ma38a2ba30d" y="145.427232"/>
     <use style="fill:#1f77b4;stroke:#1f77b4;" x="198.354974" xlink:href="#ma38a2ba30d" y="145.309242"/>
     <use style="fill:#1f77b4;stroke:#1f77b4;" x="197.946013" xlink:href="#ma38a2ba30d" y="145.195522"/>
     <use style="fill:#1f77b4;stroke:#1f77b4;" x="197.525177" xlink:href="#ma38a2ba30d" y="145.054751"/>
     <use style="fill:#1f77b4;stroke:#1f77b4;" x="197.104192" xlink:href="#ma38a2ba30d" y="144.936593"/>
     <use style="fill:#1f77b4;stroke:#1f77b4;" x="196.695373" xlink:href="#ma38a2ba30d" y="144.807275"/>
     <use style="fill:#1f77b4;stroke:#1f77b4;" x="196.282198" xlink:href="#ma38a2ba30d" y="144.676381"/>
     <use style="fill:#1f77b4;stroke:#1f77b4;" x="195.874003" xlink:href="#ma38a2ba30d" y="144.555396"/>
     <use style="fill:#1f77b4;stroke:#1f77b4;" x="195.453928" xlink:href="#ma38a2ba30d" y="144.436651"/>
     <use style="fill:#1f77b4;stroke:#1f77b4;" x="195.051442" xlink:href="#ma38a2ba30d" y="144.317832"/>
     <use style="fill:#1f77b4;stroke:#1f77b4;" x="195.012497" xlink:href="#ma38a2ba30d" y="144.309653"/>
     <use style="fill:#1f77b4;stroke:#1f77b4;" x="194.969173" xlink:href="#ma38a2ba30d" y="144.300065"/>
     <use style="fill:#1f77b4;stroke:#1f77b4;" x="194.925613" xlink:href="#ma38a2ba30d" y="144.289169"/>
     <use style="fill:#1f77b4;stroke:#1f77b4;" x="194.882854" xlink:href="#ma38a2ba30d" y="144.273923"/>
     <use style="fill:#1f77b4;stroke:#1f77b4;" x="194.841956" xlink:href="#ma38a2ba30d" y="144.263527"/>
     <use style="fill:#1f77b4;stroke:#1f77b4;" x="194.800432" xlink:href="#ma38a2ba30d" y="144.252582"/>
     <use style="fill:#1f77b4;stroke:#1f77b4;" x="194.76021" xlink:href="#ma38a2ba30d" y="144.242455"/>
     <use style="fill:#1f77b4;stroke:#1f77b4;" x="194.720175" xlink:href="#ma38a2ba30d" y="144.22975"/>
     <use style="fill:#1f77b4;stroke:#1f77b4;" x="194.677861" xlink:href="#ma38a2ba30d" y="144.217347"/>
     <use style="fill:#1f77b4;stroke:#1f77b4;" x="194.636136" xlink:href="#ma38a2ba30d" y="144.204861"/>
     <use style="fill:#1f77b4;stroke:#1f77b4;" x="194.595662" xlink:href="#ma38a2ba30d" y="144.194533"/>
     <use style="fill:#1f77b4;stroke:#1f77b4;" x="194.554591" xlink:href="#ma38a2ba30d" y="144.184155"/>
     <use style="fill:#1f77b4;stroke:#1f77b4;" x="194.512248" xlink:href="#ma38a2ba30d" y="144.174027"/>
     <use style="fill:#1f77b4;stroke:#1f77b4;" x="194.4707" xlink:href="#ma38a2ba30d" y="144.161953"/>
     <use style="fill:#1f77b4;stroke:#1f77b4;" x="194.430108" xlink:href="#ma38a2ba30d" y="144.155272"/>
     <use style="fill:#1f77b4;stroke:#1f77b4;" x="194.392811" xlink:href="#ma38a2ba30d" y="144.145169"/>
     <use style="fill:#1f77b4;stroke:#1f77b4;" x="194.352041" xlink:href="#ma38a2ba30d" y="144.134577"/>
     <use style="fill:#1f77b4;stroke:#1f77b4;" x="194.30905" xlink:href="#ma38a2ba30d" y="144.126605"/>
     <use style="fill:#1f77b4;stroke:#1f77b4;" x="194.26874" xlink:href="#ma38a2ba30d" y="144.11711"/>
     <use style="fill:#1f77b4;stroke:#1f77b4;" x="194.22953" xlink:href="#ma38a2ba30d" y="144.106655"/>
     <use style="fill:#1f77b4;stroke:#1f77b4;" x="194.189019" xlink:href="#ma38a2ba30d" y="144.093912"/>
     <use style="fill:#1f77b4;stroke:#1f77b4;" x="194.14951" xlink:href="#ma38a2ba30d" y="144.084909"/>
     <use style="fill:#1f77b4;stroke:#1f77b4;" x="194.10743" xlink:href="#ma38a2ba30d" y="144.075904"/>
     <use style="fill:#1f77b4;stroke:#1f77b4;" x="194.065471" xlink:href="#ma38a2ba30d" y="144.065194"/>
    </g>
   </g>
   <g id="patch_3">
    <path d="M 35.304688 277.111219 
L 35.304688 10.999219 
" style="fill:none;stroke:#000000;stroke-linecap:square;stroke-linejoin:miter;stroke-width:0.8;"/>
   </g>
   <g id="patch_4">
    <path d="M 392.424688 277.111219 
L 392.424688 10.999219 
" style="fill:none;stroke:#000000;stroke-linecap:square;stroke-linejoin:miter;stroke-width:0.8;"/>
   </g>
   <g id="patch_5">
    <path d="M 35.304687 277.111219 
L 392.424688 277.111219 
" style="fill:none;stroke:#000000;stroke-linecap:square;stroke-linejoin:miter;stroke-width:0.8;"/>
   </g>
   <g id="patch_6">
    <path d="M 35.304687 10.999219 
L 392.424688 10.999219 
" style="fill:none;stroke:#000000;stroke-linecap:square;stroke-linejoin:miter;stroke-width:0.8;"/>
   </g>
   <g id="text_20">
    <g clip-path="url(#p9d5448ab8a)">
     <!-- 1.500 -->
     <g style="fill:#453781;" transform="translate(172.276658 129.722931)rotate(-12.024399)scale(0.06 -0.06)">
      <defs>
       <path d="M 10.6875 12.40625 
L 21 12.40625 
L 21 0 
L 10.6875 0 
z
" id="DejaVuSans-46"/>
      </defs>
      <use xlink:href="#DejaVuSans-49"/>
      <use x="63.623047" xlink:href="#DejaVuSans-46"/>
      <use x="95.410156" xlink:href="#DejaVuSans-53"/>
      <use x="159.033203" xlink:href="#DejaVuSans-48"/>
      <use x="222.65625" xlink:href="#DejaVuSans-48"/>
     </g>
    </g>
   </g>
   <g id="text_21">
    <g clip-path="url(#p9d5448ab8a)">
     <!-- 2.000 -->
     <g style="fill:#404688;" transform="translate(163.618232 188.265798)rotate(-75.455106)scale(0.06 -0.06)">
      <use xlink:href="#DejaVuSans-50"/>
      <use x="63.623047" xlink:href="#DejaVuSans-46"/>
      <use x="95.410156" xlink:href="#DejaVuSans-48"/>
      <use x="159.033203" xlink:href="#DejaVuSans-48"/>
      <use x="222.65625" xlink:href="#DejaVuSans-48"/>
     </g>
    </g>
   </g>
   <g id="text_22">
    <g clip-path="url(#p9d5448ab8a)">
     <!-- 2.500 -->
     <g style="fill:#39558c;" transform="translate(122.191484 218.39299)rotate(-6.513225)scale(0.06 -0.06)">
      <use xlink:href="#DejaVuSans-50"/>
      <use x="63.623047" xlink:href="#DejaVuSans-46"/>
      <use x="95.410156" xlink:href="#DejaVuSans-53"/>
      <use x="159.033203" xlink:href="#DejaVuSans-48"/>
      <use x="222.65625" xlink:href="#DejaVuSans-48"/>
     </g>
    </g>
   </g>
   <g id="text_23">
    <g clip-path="url(#p9d5448ab8a)">
     <!-- 3.000 -->
     <g style="fill:#33638d;" transform="translate(157.56687 118.38867)rotate(-356.064432)scale(0.06 -0.06)">
      <defs>
       <path d="M 40.578125 39.3125 
Q 47.65625 37.796875 51.625 33 
Q 55.609375 28.21875 55.609375 21.1875 
Q 55.609375 10.40625 48.1875 4.484375 
Q 40.765625 -1.421875 27.09375 -1.421875 
Q 22.515625 -1.421875 17.65625 -0.515625 
Q 12.796875 0.390625 7.625 2.203125 
L 7.625 11.71875 
Q 11.71875 9.328125 16.59375 8.109375 
Q 21.484375 6.890625 26.8125 6.890625 
Q 36.078125 6.890625 40.9375 10.546875 
Q 45.796875 14.203125 45.796875 21.1875 
Q 45.796875 27.640625 41.28125 31.265625 
Q 36.765625 34.90625 28.71875 34.90625 
L 20.21875 34.90625 
L 20.21875 43.015625 
L 29.109375 43.015625 
Q 36.375 43.015625 40.234375 45.921875 
Q 44.09375 48.828125 44.09375 54.296875 
Q 44.09375 59.90625 40.109375 62.90625 
Q 36.140625 65.921875 28.71875 65.921875 
Q 24.65625 65.921875 20.015625 65.03125 
Q 15.375 64.15625 9.8125 62.3125 
L 9.8125 71.09375 
Q 15.4375 72.65625 20.34375 73.4375 
Q 25.25 74.21875 29.59375 74.21875 
Q 40.828125 74.21875 47.359375 69.109375 
Q 53.90625 64.015625 53.90625 55.328125 
Q 53.90625 49.265625 50.4375 45.09375 
Q 46.96875 40.921875 40.578125 39.3125 
z
" id="DejaVuSans-51"/>
      </defs>
      <use xlink:href="#DejaVuSans-51"/>
      <use x="63.623047" xlink:href="#DejaVuSans-46"/>
      <use x="95.410156" xlink:href="#DejaVuSans-48"/>
      <use x="159.033203" xlink:href="#DejaVuSans-48"/>
      <use x="222.65625" xlink:href="#DejaVuSans-48"/>
     </g>
    </g>
   </g>
   <g id="text_24">
    <g clip-path="url(#p9d5448ab8a)">
     <!-- 3.500 -->
     <g style="fill:#2d718e;" transform="translate(157.637756 118.555964)rotate(-359.191966)scale(0.06 -0.06)">
      <use xlink:href="#DejaVuSans-51"/>
      <use x="63.623047" xlink:href="#DejaVuSans-46"/>
      <use x="95.410156" xlink:href="#DejaVuSans-53"/>
      <use x="159.033203" xlink:href="#DejaVuSans-48"/>
      <use x="222.65625" xlink:href="#DejaVuSans-48"/>
     </g>
    </g>
   </g>
   <g id="text_25">
    <g clip-path="url(#p9d5448ab8a)">
     <!-- 4.000 -->
     <g style="fill:#287d8e;" transform="translate(158.608485 223.098657)rotate(-18.219706)scale(0.06 -0.06)">
      <defs>
       <path d="M 37.796875 64.3125 
L 12.890625 25.390625 
L 37.796875 25.390625 
z
M 35.203125 72.90625 
L 47.609375 72.90625 
L 47.609375 25.390625 
L 58.015625 25.390625 
L 58.015625 17.1875 
L 47.609375 17.1875 
L 47.609375 0 
L 37.796875 0 
L 37.796875 17.1875 
L 4.890625 17.1875 
L 4.890625 26.703125 
z
" id="DejaVuSans-52"/>
      </defs>
      <use xlink:href="#DejaVuSans-52"/>
      <use x="63.623047" xlink:href="#DejaVuSans-46"/>
      <use x="95.410156" xlink:href="#DejaVuSans-48"/>
      <use x="159.033203" xlink:href="#DejaVuSans-48"/>
      <use x="222.65625" xlink:href="#DejaVuSans-48"/>
     </g>
    </g>
   </g>
   <g id="text_26">
    <g clip-path="url(#p9d5448ab8a)">
     <!-- 4.500 -->
     <g style="fill:#238a8d;" transform="translate(158.615782 225.83546)rotate(-18.317745)scale(0.06 -0.06)">
      <use xlink:href="#DejaVuSans-52"/>
      <use x="63.623047" xlink:href="#DejaVuSans-46"/>
      <use x="95.410156" xlink:href="#DejaVuSans-53"/>
      <use x="159.033203" xlink:href="#DejaVuSans-48"/>
      <use x="222.65625" xlink:href="#DejaVuSans-48"/>
     </g>
    </g>
   </g>
   <g id="text_27">
    <g clip-path="url(#p9d5448ab8a)">
     <!-- 5.000 -->
     <g style="fill:#1f968b;" transform="translate(157.649572 117.706481)rotate(-359.624056)scale(0.06 -0.06)">
      <use xlink:href="#DejaVuSans-53"/>
      <use x="63.623047" xlink:href="#DejaVuSans-46"/>
      <use x="95.410156" xlink:href="#DejaVuSans-48"/>
      <use x="159.033203" xlink:href="#DejaVuSans-48"/>
      <use x="222.65625" xlink:href="#DejaVuSans-48"/>
     </g>
    </g>
   </g>
   <g id="text_28">
    <g clip-path="url(#p9d5448ab8a)">
     <!-- 5.500 -->
     <g style="fill:#20a386;" transform="translate(121.917299 117.261535)rotate(-358.871146)scale(0.06 -0.06)">
      <use xlink:href="#DejaVuSans-53"/>
      <use x="63.623047" xlink:href="#DejaVuSans-46"/>
      <use x="95.410156" xlink:href="#DejaVuSans-53"/>
      <use x="159.033203" xlink:href="#DejaVuSans-48"/>
      <use x="222.65625" xlink:href="#DejaVuSans-48"/>
     </g>
    </g>
   </g>
   <g id="text_29">
    <g clip-path="url(#p9d5448ab8a)">
     <!-- 6.000 -->
     <g style="fill:#29af7f;" transform="translate(158.381096 231.499685)rotate(-14.995423)scale(0.06 -0.06)">
      <defs>
       <path d="M 33.015625 40.375 
Q 26.375 40.375 22.484375 35.828125 
Q 18.609375 31.296875 18.609375 23.390625 
Q 18.609375 15.53125 22.484375 10.953125 
Q 26.375 6.390625 33.015625 6.390625 
Q 39.65625 6.390625 43.53125 10.953125 
Q 47.40625 15.53125 47.40625 23.390625 
Q 47.40625 31.296875 43.53125 35.828125 
Q 39.65625 40.375 33.015625 40.375 
z
M 52.59375 71.296875 
L 52.59375 62.3125 
Q 48.875 64.0625 45.09375 64.984375 
Q 41.3125 65.921875 37.59375 65.921875 
Q 27.828125 65.921875 22.671875 59.328125 
Q 17.53125 52.734375 16.796875 39.40625 
Q 19.671875 43.65625 24.015625 45.921875 
Q 28.375 48.1875 33.59375 48.1875 
Q 44.578125 48.1875 50.953125 41.515625 
Q 57.328125 34.859375 57.328125 23.390625 
Q 57.328125 12.15625 50.6875 5.359375 
Q 44.046875 -1.421875 33.015625 -1.421875 
Q 20.359375 -1.421875 13.671875 8.265625 
Q 6.984375 17.96875 6.984375 36.375 
Q 6.984375 53.65625 15.1875 63.9375 
Q 23.390625 74.21875 37.203125 74.21875 
Q 40.921875 74.21875 44.703125 73.484375 
Q 48.484375 72.75 52.59375 71.296875 
z
" id="DejaVuSans-54"/>
      </defs>
      <use xlink:href="#DejaVuSans-54"/>
      <use x="63.623047" xlink:href="#DejaVuSans-46"/>
      <use x="95.410156" xlink:href="#DejaVuSans-48"/>
      <use x="159.033203" xlink:href="#DejaVuSans-48"/>
      <use x="222.65625" xlink:href="#DejaVuSans-48"/>
     </g>
    </g>
   </g>
   <g id="text_30">
    <g clip-path="url(#p9d5448ab8a)">
     <!-- 6.500 -->
     <g style="fill:#3dbc74;" transform="translate(158.44204 233.387976)rotate(-15.894688)scale(0.06 -0.06)">
      <use xlink:href="#DejaVuSans-54"/>
      <use x="63.623047" xlink:href="#DejaVuSans-46"/>
      <use x="95.410156" xlink:href="#DejaVuSans-53"/>
      <use x="159.033203" xlink:href="#DejaVuSans-48"/>
      <use x="222.65625" xlink:href="#DejaVuSans-48"/>
     </g>
    </g>
   </g>
   <g id="text_31">
    <g clip-path="url(#p9d5448ab8a)">
     <!-- 7.000 -->
     <g style="fill:#56c667;" transform="translate(158.328437 234.919882)rotate(-14.194343)scale(0.06 -0.06)">
      <defs>
       <path d="M 8.203125 72.90625 
L 55.078125 72.90625 
L 55.078125 68.703125 
L 28.609375 0 
L 18.3125 0 
L 43.21875 64.59375 
L 8.203125 64.59375 
z
" id="DejaVuSans-55"/>
      </defs>
      <use xlink:href="#DejaVuSans-55"/>
      <use x="63.623047" xlink:href="#DejaVuSans-46"/>
      <use x="95.410156" xlink:href="#DejaVuSans-48"/>
      <use x="159.033203" xlink:href="#DejaVuSans-48"/>
      <use x="222.65625" xlink:href="#DejaVuSans-48"/>
     </g>
    </g>
   </g>
   <g id="text_32">
    <g clip-path="url(#p9d5448ab8a)">
     <!-- 7.500 -->
     <g style="fill:#75d054;" transform="translate(158.827017 236.114765)rotate(-11.648172)scale(0.06 -0.06)">
      <use xlink:href="#DejaVuSans-55"/>
      <use x="63.623047" xlink:href="#DejaVuSans-46"/>
      <use x="95.410156" xlink:href="#DejaVuSans-53"/>
      <use x="159.033203" xlink:href="#DejaVuSans-48"/>
      <use x="222.65625" xlink:href="#DejaVuSans-48"/>
     </g>
    </g>
   </g>
   <g id="text_33">
    <g clip-path="url(#p9d5448ab8a)">
     <!-- 8.000 -->
     <g style="fill:#95d840;" transform="translate(164.193618 236.067686)rotate(-11.314618)scale(0.06 -0.06)">
      <defs>
       <path d="M 31.78125 34.625 
Q 24.75 34.625 20.71875 30.859375 
Q 16.703125 27.09375 16.703125 20.515625 
Q 16.703125 13.921875 20.71875 10.15625 
Q 24.75 6.390625 31.78125 6.390625 
Q 38.8125 6.390625 42.859375 10.171875 
Q 46.921875 13.96875 46.921875 20.515625 
Q 46.921875 27.09375 42.890625 30.859375 
Q 38.875 34.625 31.78125 34.625 
z
M 21.921875 38.8125 
Q 15.578125 40.375 12.03125 44.71875 
Q 8.5 49.078125 8.5 55.328125 
Q 8.5 64.0625 14.71875 69.140625 
Q 20.953125 74.21875 31.78125 74.21875 
Q 42.671875 74.21875 48.875 69.140625 
Q 55.078125 64.0625 55.078125 55.328125 
Q 55.078125 49.078125 51.53125 44.71875 
Q 48 40.375 41.703125 38.8125 
Q 48.828125 37.15625 52.796875 32.3125 
Q 56.78125 27.484375 56.78125 20.515625 
Q 56.78125 9.90625 50.3125 4.234375 
Q 43.84375 -1.421875 31.78125 -1.421875 
Q 19.734375 -1.421875 13.25 4.234375 
Q 6.78125 9.90625 6.78125 20.515625 
Q 6.78125 27.484375 10.78125 32.3125 
Q 14.796875 37.15625 21.921875 38.8125 
z
M 18.3125 54.390625 
Q 18.3125 48.734375 21.84375 45.5625 
Q 25.390625 42.390625 31.78125 42.390625 
Q 38.140625 42.390625 41.71875 45.5625 
Q 45.3125 48.734375 45.3125 54.390625 
Q 45.3125 60.0625 41.71875 63.234375 
Q 38.140625 66.40625 31.78125 66.40625 
Q 25.390625 66.40625 21.84375 63.234375 
Q 18.3125 60.0625 18.3125 54.390625 
z
" id="DejaVuSans-56"/>
      </defs>
      <use xlink:href="#DejaVuSans-56"/>
      <use x="63.623047" xlink:href="#DejaVuSans-46"/>
      <use x="95.410156" xlink:href="#DejaVuSans-48"/>
      <use x="159.033203" xlink:href="#DejaVuSans-48"/>
      <use x="222.65625" xlink:href="#DejaVuSans-48"/>
     </g>
    </g>
   </g>
   <g id="text_34">
    <g clip-path="url(#p9d5448ab8a)">
     <!-- 8.500 -->
     <g style="fill:#bade28;" transform="translate(169.60881 236.138251)rotate(-11.814867)scale(0.06 -0.06)">
      <use xlink:href="#DejaVuSans-56"/>
      <use x="63.623047" xlink:href="#DejaVuSans-46"/>
      <use x="95.410156" xlink:href="#DejaVuSans-53"/>
      <use x="159.033203" xlink:href="#DejaVuSans-48"/>
      <use x="222.65625" xlink:href="#DejaVuSans-48"/>
     </g>
    </g>
   </g>
   <g id="text_35">
    <g clip-path="url(#p9d5448ab8a)">
     <!-- 9.000 -->
     <g style="fill:#dde318;" transform="translate(170.001948 236.348656)rotate(-10.359063)scale(0.06 -0.06)">
      <defs>
       <path d="M 10.984375 1.515625 
L 10.984375 10.5 
Q 14.703125 8.734375 18.5 7.8125 
Q 22.3125 6.890625 25.984375 6.890625 
Q 35.75 6.890625 40.890625 13.453125 
Q 46.046875 20.015625 46.78125 33.40625 
Q 43.953125 29.203125 39.59375 26.953125 
Q 35.25 24.703125 29.984375 24.703125 
Q 19.046875 24.703125 12.671875 31.3125 
Q 6.296875 37.9375 6.296875 49.421875 
Q 6.296875 60.640625 12.9375 67.421875 
Q 19.578125 74.21875 30.609375 74.21875 
Q 43.265625 74.21875 49.921875 64.515625 
Q 56.59375 54.828125 56.59375 36.375 
Q 56.59375 19.140625 48.40625 8.859375 
Q 40.234375 -1.421875 26.421875 -1.421875 
Q 22.703125 -1.421875 18.890625 -0.6875 
Q 15.09375 0.046875 10.984375 1.515625 
z
M 30.609375 32.421875 
Q 37.25 32.421875 41.125 36.953125 
Q 45.015625 41.5 45.015625 49.421875 
Q 45.015625 57.28125 41.125 61.84375 
Q 37.25 66.40625 30.609375 66.40625 
Q 23.96875 66.40625 20.09375 61.84375 
Q 16.21875 57.28125 16.21875 49.421875 
Q 16.21875 41.5 20.09375 36.953125 
Q 23.96875 32.421875 30.609375 32.421875 
z
" id="DejaVuSans-57"/>
      </defs>
      <use xlink:href="#DejaVuSans-57"/>
      <use x="63.623047" xlink:href="#DejaVuSans-46"/>
      <use x="95.410156" xlink:href="#DejaVuSans-48"/>
      <use x="159.033203" xlink:href="#DejaVuSans-48"/>
      <use x="222.65625" xlink:href="#DejaVuSans-48"/>
     </g>
    </g>
   </g>
   <g id="text_36">
    <g clip-path="url(#p9d5448ab8a)">
     <!-- 9.500 -->
     <g style="fill:#fde725;" transform="translate(169.909607 236.55726)rotate(-8.623867)scale(0.06 -0.06)">
      <use xlink:href="#DejaVuSans-57"/>
      <use x="63.623047" xlink:href="#DejaVuSans-46"/>
      <use x="95.410156" xlink:href="#DejaVuSans-53"/>
      <use x="159.033203" xlink:href="#DejaVuSans-48"/>
      <use x="222.65625" xlink:href="#DejaVuSans-48"/>
     </g>
    </g>
   </g>
   <g id="text_37">
    <g clip-path="url(#p9d5448ab8a)">
     <!-- 10.000 -->
     <g style="fill:#440154;" transform="translate(180.7728 112.380104)rotate(-322.578971)scale(0.06 -0.06)">
      <use xlink:href="#DejaVuSans-49"/>
      <use x="63.623047" xlink:href="#DejaVuSans-48"/>
      <use x="127.246094" xlink:href="#DejaVuSans-46"/>
      <use x="159.033203" xlink:href="#DejaVuSans-48"/>
      <use x="222.65625" xlink:href="#DejaVuSans-48"/>
      <use x="286.279297" xlink:href="#DejaVuSans-48"/>
     </g>
    </g>
   </g>
   <g id="text_38">
    <g clip-path="url(#p9d5448ab8a)">
     <!-- 100.000 -->
     <g style="fill:#440154;" transform="translate(83.362889 281.518574)rotate(-16.082207)scale(0.06 -0.06)">
      <use xlink:href="#DejaVuSans-49"/>
      <use x="63.623047" xlink:href="#DejaVuSans-48"/>
      <use x="127.246094" xlink:href="#DejaVuSans-48"/>
      <use x="190.869141" xlink:href="#DejaVuSans-46"/>
      <use x="222.65625" xlink:href="#DejaVuSans-48"/>
      <use x="286.279297" xlink:href="#DejaVuSans-48"/>
      <use x="349.902344" xlink:href="#DejaVuSans-48"/>
     </g>
    </g>
   </g>
   <g id="text_39">
    <g clip-path="url(#p9d5448ab8a)">
     <!-- 1000.000 -->
     <g style="fill:#440154;" transform="translate(104.305044 95.89819)rotate(-359.535358)scale(0.06 -0.06)">
      <use xlink:href="#DejaVuSans-49"/>
      <use x="63.623047" xlink:href="#DejaVuSans-48"/>
      <use x="127.246094" xlink:href="#DejaVuSans-48"/>
      <use x="190.869141" xlink:href="#DejaVuSans-48"/>
      <use x="254.492188" xlink:href="#DejaVuSans-46"/>
      <use x="286.279297" xlink:href="#DejaVuSans-48"/>
      <use x="349.902344" xlink:href="#DejaVuSans-48"/>
      <use x="413.525391" xlink:href="#DejaVuSans-48"/>
     </g>
    </g>
   </g>
   <g id="text_40">
    <g clip-path="url(#p9d5448ab8a)">
     <!-- 10000.000 -->
     <g style="fill:#440154;" transform="translate(214.575406 116.591596)rotate(-317.574075)scale(0.06 -0.06)">
      <use xlink:href="#DejaVuSans-49"/>
      <use x="63.623047" xlink:href="#DejaVuSans-48"/>
      <use x="127.246094" xlink:href="#DejaVuSans-48"/>
      <use x="190.869141" xlink:href="#DejaVuSans-48"/>
      <use x="254.492188" xlink:href="#DejaVuSans-48"/>
      <use x="318.115234" xlink:href="#DejaVuSans-46"/>
      <use x="349.902344" xlink:href="#DejaVuSans-48"/>
      <use x="413.525391" xlink:href="#DejaVuSans-48"/>
      <use x="477.148438" xlink:href="#DejaVuSans-48"/>
     </g>
    </g>
   </g>
   <g id="text_41">
    <g clip-path="url(#p9d5448ab8a)">
     <!-- 100000.000 -->
     <g style="fill:#440154;" transform="translate(225.363456 112.361981)rotate(-307.318492)scale(0.06 -0.06)">
      <use xlink:href="#DejaVuSans-49"/>
      <use x="63.623047" xlink:href="#DejaVuSans-48"/>
      <use x="127.246094" xlink:href="#DejaVuSans-48"/>
      <use x="190.869141" xlink:href="#DejaVuSans-48"/>
      <use x="254.492188" xlink:href="#DejaVuSans-48"/>
      <use x="318.115234" xlink:href="#DejaVuSans-48"/>
      <use x="381.738281" xlink:href="#DejaVuSans-46"/>
      <use x="413.525391" xlink:href="#DejaVuSans-48"/>
      <use x="477.148438" xlink:href="#DejaVuSans-48"/>
      <use x="540.771484" xlink:href="#DejaVuSans-48"/>
     </g>
    </g>
   </g>
   <g id="text_42">
    <g clip-path="url(#p9d5448ab8a)">
     <!-- 1000000.000 -->
     <g style="fill:#450457;" transform="translate(226.207039 110.868946)rotate(-305.095644)scale(0.06 -0.06)">
      <use xlink:href="#DejaVuSans-49"/>
      <use x="63.623047" xlink:href="#DejaVuSans-48"/>
      <use x="127.246094" xlink:href="#DejaVuSans-48"/>
      <use x="190.869141" xlink:href="#DejaVuSans-48"/>
      <use x="254.492188" xlink:href="#DejaVuSans-48"/>
      <use x="318.115234" xlink:href="#DejaVuSans-48"/>
      <use x="381.738281" xlink:href="#DejaVuSans-48"/>
      <use x="445.361328" xlink:href="#DejaVuSans-46"/>
      <use x="477.148438" xlink:href="#DejaVuSans-48"/>
      <use x="540.771484" xlink:href="#DejaVuSans-48"/>
      <use x="604.394531" xlink:href="#DejaVuSans-48"/>
     </g>
    </g>
   </g>
   <g id="text_43">
    <g clip-path="url(#p9d5448ab8a)">
     <!-- 10000000.000 -->
     <g style="fill:#482475;" transform="translate(234.23035 110.489335)rotate(-309.887584)scale(0.06 -0.06)">
      <use xlink:href="#DejaVuSans-49"/>
      <use x="63.623047" xlink:href="#DejaVuSans-48"/>
      <use x="127.246094" xlink:href="#DejaVuSans-48"/>
      <use x="190.869141" xlink:href="#DejaVuSans-48"/>
      <use x="254.492188" xlink:href="#DejaVuSans-48"/>
      <use x="318.115234" xlink:href="#DejaVuSans-48"/>
      <use x="381.738281" xlink:href="#DejaVuSans-48"/>
      <use x="445.361328" xlink:href="#DejaVuSans-48"/>
      <use x="508.984375" xlink:href="#DejaVuSans-46"/>
      <use x="540.771484" xlink:href="#DejaVuSans-48"/>
      <use x="604.394531" xlink:href="#DejaVuSans-48"/>
      <use x="668.017578" xlink:href="#DejaVuSans-48"/>
     </g>
    </g>
   </g>
   <g id="text_44">
    <g clip-path="url(#p9d5448ab8a)">
     <!-- 100000000.000 -->
     <g style="fill:#fde725;" transform="translate(233.943919 106.057425)rotate(-306.848388)scale(0.06 -0.06)">
      <use xlink:href="#DejaVuSans-49"/>
      <use x="63.623047" xlink:href="#DejaVuSans-48"/>
      <use x="127.246094" xlink:href="#DejaVuSans-48"/>
      <use x="190.869141" xlink:href="#DejaVuSans-48"/>
      <use x="254.492188" xlink:href="#DejaVuSans-48"/>
      <use x="318.115234" xlink:href="#DejaVuSans-48"/>
      <use x="381.738281" xlink:href="#DejaVuSans-48"/>
      <use x="445.361328" xlink:href="#DejaVuSans-48"/>
      <use x="508.984375" xlink:href="#DejaVuSans-48"/>
      <use x="572.607422" xlink:href="#DejaVuSans-46"/>
      <use x="604.394531" xlink:href="#DejaVuSans-48"/>
      <use x="668.017578" xlink:href="#DejaVuSans-48"/>
      <use x="731.640625" xlink:href="#DejaVuSans-48"/>
     </g>
    </g>
   </g>
  </g>
 </g>
 <defs>
  <clipPath id="p9d5448ab8a">
   <rect height="266.112" width="357.12" x="35.304688" y="10.999219"/>
  </clipPath>
 </defs>
</svg>
