<?xml version="1.0" encoding="utf-8" standalone="no"?>
<!DOCTYPE svg PUBLIC "-//W3C//DTD SVG 1.1//EN"
  "http://www.w3.org/Graphics/SVG/1.1/DTD/svg11.dtd">
<!-- Created with matplotlib (https://matplotlib.org/) -->
<svg height="321.713144pt" version="1.1" viewBox="0 0 426.710987 321.713144" width="426.710987pt" xmlns="http://www.w3.org/2000/svg" xmlns:xlink="http://www.w3.org/1999/xlink">
 <metadata>
  <rdf:RDF xmlns:cc="http://creativecommons.org/ns#" xmlns:dc="http://purl.org/dc/elements/1.1/" xmlns:rdf="http://www.w3.org/1999/02/22-rdf-syntax-ns#">
   <cc:Work>
    <dc:type rdf:resource="http://purl.org/dc/dcmitype/StillImage"/>
    <dc:date>2021-09-22T09:25:58.960759</dc:date>
    <dc:format>image/svg+xml</dc:format>
    <dc:creator>
     <cc:Agent>
      <dc:title>Matplotlib v3.3.1, https://matplotlib.org/</dc:title>
     </cc:Agent>
    </dc:creator>
   </cc:Work>
  </rdf:RDF>
 </metadata>
 <defs>
  <style type="text/css">*{stroke-linecap:butt;stroke-linejoin:round;}</style>
 </defs>
 <g id="figure_1">
  <g id="patch_1">
   <path d="M 0 321.713144 
L 426.710987 321.713144 
L 426.710987 0 
L 0 0 
z
" style="fill:#ffffff;"/>
  </g>
  <g id="axes_1">
   <g id="patch_2">
    <path d="M 56.028488 277.111219 
L 413.148488 277.111219 
L 413.148488 10.999219 
L 56.028488 10.999219 
z
" style="fill:#ffffff;"/>
   </g>
   <g id="matplotlib.axis_1">
    <g id="xtick_1">
     <g id="line2d_1">
      <defs>
       <path d="M 0 0 
L 0 3.5 
" id="mf3850cad68" style="stroke:#000000;stroke-width:0.8;"/>
      </defs>
      <g>
       <use style="stroke:#000000;stroke-width:0.8;" x="56.028488" xlink:href="#mf3850cad68" y="277.111219"/>
      </g>
     </g>
     <g id="text_1">
      <!-- −20 -->
      <g transform="translate(45.476144 291.709656)scale(0.1 -0.1)">
       <defs>
        <path d="M 10.59375 35.5 
L 73.1875 35.5 
L 73.1875 27.203125 
L 10.59375 27.203125 
z
" id="DejaVuSans-8722"/>
        <path d="M 19.1875 8.296875 
L 53.609375 8.296875 
L 53.609375 0 
L 7.328125 0 
L 7.328125 8.296875 
Q 12.9375 14.109375 22.625 23.890625 
Q 32.328125 33.6875 34.8125 36.53125 
Q 39.546875 41.84375 41.421875 45.53125 
Q 43.3125 49.21875 43.3125 52.78125 
Q 43.3125 58.59375 39.234375 62.25 
Q 35.15625 65.921875 28.609375 65.921875 
Q 23.96875 65.921875 18.8125 64.3125 
Q 13.671875 62.703125 7.8125 59.421875 
L 7.8125 69.390625 
Q 13.765625 71.78125 18.9375 73 
Q 24.125 74.21875 28.421875 74.21875 
Q 39.75 74.21875 46.484375 68.546875 
Q 53.21875 62.890625 53.21875 53.421875 
Q 53.21875 48.921875 51.53125 44.890625 
Q 49.859375 40.875 45.40625 35.40625 
Q 44.1875 33.984375 37.640625 27.21875 
Q 31.109375 20.453125 19.1875 8.296875 
z
" id="DejaVuSans-50"/>
        <path d="M 31.78125 66.40625 
Q 24.171875 66.40625 20.328125 58.90625 
Q 16.5 51.421875 16.5 36.375 
Q 16.5 21.390625 20.328125 13.890625 
Q 24.171875 6.390625 31.78125 6.390625 
Q 39.453125 6.390625 43.28125 13.890625 
Q 47.125 21.390625 47.125 36.375 
Q 47.125 51.421875 43.28125 58.90625 
Q 39.453125 66.40625 31.78125 66.40625 
z
M 31.78125 74.21875 
Q 44.046875 74.21875 50.515625 64.515625 
Q 56.984375 54.828125 56.984375 36.375 
Q 56.984375 17.96875 50.515625 8.265625 
Q 44.046875 -1.421875 31.78125 -1.421875 
Q 19.53125 -1.421875 13.0625 8.265625 
Q 6.59375 17.96875 6.59375 36.375 
Q 6.59375 54.828125 13.0625 64.515625 
Q 19.53125 74.21875 31.78125 74.21875 
z
" id="DejaVuSans-48"/>
       </defs>
       <use xlink:href="#DejaVuSans-8722"/>
       <use x="83.789062" xlink:href="#DejaVuSans-50"/>
       <use x="147.412109" xlink:href="#DejaVuSans-48"/>
      </g>
     </g>
    </g>
    <g id="xtick_2">
     <g id="line2d_2">
      <g>
       <use style="stroke:#000000;stroke-width:0.8;" x="95.708488" xlink:href="#mf3850cad68" y="277.111219"/>
      </g>
     </g>
     <g id="text_2">
      <!-- −15 -->
      <g transform="translate(85.156144 291.709656)scale(0.1 -0.1)">
       <defs>
        <path d="M 12.40625 8.296875 
L 28.515625 8.296875 
L 28.515625 63.921875 
L 10.984375 60.40625 
L 10.984375 69.390625 
L 28.421875 72.90625 
L 38.28125 72.90625 
L 38.28125 8.296875 
L 54.390625 8.296875 
L 54.390625 0 
L 12.40625 0 
z
" id="DejaVuSans-49"/>
        <path d="M 10.796875 72.90625 
L 49.515625 72.90625 
L 49.515625 64.59375 
L 19.828125 64.59375 
L 19.828125 46.734375 
Q 21.96875 47.46875 24.109375 47.828125 
Q 26.265625 48.1875 28.421875 48.1875 
Q 40.625 48.1875 47.75 41.5 
Q 54.890625 34.8125 54.890625 23.390625 
Q 54.890625 11.625 47.5625 5.09375 
Q 40.234375 -1.421875 26.90625 -1.421875 
Q 22.3125 -1.421875 17.546875 -0.640625 
Q 12.796875 0.140625 7.71875 1.703125 
L 7.71875 11.625 
Q 12.109375 9.234375 16.796875 8.0625 
Q 21.484375 6.890625 26.703125 6.890625 
Q 35.15625 6.890625 40.078125 11.328125 
Q 45.015625 15.765625 45.015625 23.390625 
Q 45.015625 31 40.078125 35.4375 
Q 35.15625 39.890625 26.703125 39.890625 
Q 22.75 39.890625 18.8125 39.015625 
Q 14.890625 38.140625 10.796875 36.28125 
z
" id="DejaVuSans-53"/>
       </defs>
       <use xlink:href="#DejaVuSans-8722"/>
       <use x="83.789062" xlink:href="#DejaVuSans-49"/>
       <use x="147.412109" xlink:href="#DejaVuSans-53"/>
      </g>
     </g>
    </g>
    <g id="xtick_3">
     <g id="line2d_3">
      <g>
       <use style="stroke:#000000;stroke-width:0.8;" x="135.388488" xlink:href="#mf3850cad68" y="277.111219"/>
      </g>
     </g>
     <g id="text_3">
      <!-- −10 -->
      <g transform="translate(124.836144 291.709656)scale(0.1 -0.1)">
       <use xlink:href="#DejaVuSans-8722"/>
       <use x="83.789062" xlink:href="#DejaVuSans-49"/>
       <use x="147.412109" xlink:href="#DejaVuSans-48"/>
      </g>
     </g>
    </g>
    <g id="xtick_4">
     <g id="line2d_4">
      <g>
       <use style="stroke:#000000;stroke-width:0.8;" x="175.068488" xlink:href="#mf3850cad68" y="277.111219"/>
      </g>
     </g>
     <g id="text_4">
      <!-- −5 -->
      <g transform="translate(167.697394 291.709656)scale(0.1 -0.1)">
       <use xlink:href="#DejaVuSans-8722"/>
       <use x="83.789062" xlink:href="#DejaVuSans-53"/>
      </g>
     </g>
    </g>
    <g id="xtick_5">
     <g id="line2d_5">
      <g>
       <use style="stroke:#000000;stroke-width:0.8;" x="214.748488" xlink:href="#mf3850cad68" y="277.111219"/>
      </g>
     </g>
     <g id="text_5">
      <!-- 0 -->
      <g transform="translate(211.567238 291.709656)scale(0.1 -0.1)">
       <use xlink:href="#DejaVuSans-48"/>
      </g>
     </g>
    </g>
    <g id="xtick_6">
     <g id="line2d_6">
      <g>
       <use style="stroke:#000000;stroke-width:0.8;" x="254.428488" xlink:href="#mf3850cad68" y="277.111219"/>
      </g>
     </g>
     <g id="text_6">
      <!-- 5 -->
      <g transform="translate(251.247238 291.709656)scale(0.1 -0.1)">
       <use xlink:href="#DejaVuSans-53"/>
      </g>
     </g>
    </g>
    <g id="xtick_7">
     <g id="line2d_7">
      <g>
       <use style="stroke:#000000;stroke-width:0.8;" x="294.108488" xlink:href="#mf3850cad68" y="277.111219"/>
      </g>
     </g>
     <g id="text_7">
      <!-- 10 -->
      <g transform="translate(287.745988 291.709656)scale(0.1 -0.1)">
       <use xlink:href="#DejaVuSans-49"/>
       <use x="63.623047" xlink:href="#DejaVuSans-48"/>
      </g>
     </g>
    </g>
    <g id="xtick_8">
     <g id="line2d_8">
      <g>
       <use style="stroke:#000000;stroke-width:0.8;" x="333.788488" xlink:href="#mf3850cad68" y="277.111219"/>
      </g>
     </g>
     <g id="text_8">
      <!-- 15 -->
      <g transform="translate(327.425988 291.709656)scale(0.1 -0.1)">
       <use xlink:href="#DejaVuSans-49"/>
       <use x="63.623047" xlink:href="#DejaVuSans-53"/>
      </g>
     </g>
    </g>
    <g id="xtick_9">
     <g id="line2d_9">
      <g>
       <use style="stroke:#000000;stroke-width:0.8;" x="373.468488" xlink:href="#mf3850cad68" y="277.111219"/>
      </g>
     </g>
     <g id="text_9">
      <!-- 20 -->
      <g transform="translate(367.105988 291.709656)scale(0.1 -0.1)">
       <use xlink:href="#DejaVuSans-50"/>
       <use x="63.623047" xlink:href="#DejaVuSans-48"/>
      </g>
     </g>
    </g>
    <g id="xtick_10">
     <g id="line2d_10">
      <g>
       <use style="stroke:#000000;stroke-width:0.8;" x="413.148488" xlink:href="#mf3850cad68" y="277.111219"/>
      </g>
     </g>
     <g id="text_10">
      <!-- 25 -->
      <g transform="translate(406.785988 291.709656)scale(0.1 -0.1)">
       <use xlink:href="#DejaVuSans-50"/>
       <use x="63.623047" xlink:href="#DejaVuSans-53"/>
      </g>
     </g>
    </g>
    <g id="text_11">
     <!-- 1st PC: 98.29 % -->
     <g transform="translate(165.868088 310.919444)scale(0.1728 -0.1728)">
      <defs>
       <path d="M 44.28125 53.078125 
L 44.28125 44.578125 
Q 40.484375 46.53125 36.375 47.5 
Q 32.28125 48.484375 27.875 48.484375 
Q 21.1875 48.484375 17.84375 46.4375 
Q 14.5 44.390625 14.5 40.28125 
Q 14.5 37.15625 16.890625 35.375 
Q 19.28125 33.59375 26.515625 31.984375 
L 29.59375 31.296875 
Q 39.15625 29.25 43.1875 25.515625 
Q 47.21875 21.78125 47.21875 15.09375 
Q 47.21875 7.46875 41.1875 3.015625 
Q 35.15625 -1.421875 24.609375 -1.421875 
Q 20.21875 -1.421875 15.453125 -0.5625 
Q 10.6875 0.296875 5.421875 2 
L 5.421875 11.28125 
Q 10.40625 8.6875 15.234375 7.390625 
Q 20.0625 6.109375 24.8125 6.109375 
Q 31.15625 6.109375 34.5625 8.28125 
Q 37.984375 10.453125 37.984375 14.40625 
Q 37.984375 18.0625 35.515625 20.015625 
Q 33.0625 21.96875 24.703125 23.78125 
L 21.578125 24.515625 
Q 13.234375 26.265625 9.515625 29.90625 
Q 5.8125 33.546875 5.8125 39.890625 
Q 5.8125 47.609375 11.28125 51.796875 
Q 16.75 56 26.8125 56 
Q 31.78125 56 36.171875 55.265625 
Q 40.578125 54.546875 44.28125 53.078125 
z
" id="DejaVuSans-115"/>
       <path d="M 18.3125 70.21875 
L 18.3125 54.6875 
L 36.8125 54.6875 
L 36.8125 47.703125 
L 18.3125 47.703125 
L 18.3125 18.015625 
Q 18.3125 11.328125 20.140625 9.421875 
Q 21.96875 7.515625 27.59375 7.515625 
L 36.8125 7.515625 
L 36.8125 0 
L 27.59375 0 
Q 17.1875 0 13.234375 3.875 
Q 9.28125 7.765625 9.28125 18.015625 
L 9.28125 47.703125 
L 2.6875 47.703125 
L 2.6875 54.6875 
L 9.28125 54.6875 
L 9.28125 70.21875 
z
" id="DejaVuSans-116"/>
       <path id="DejaVuSans-32"/>
       <path d="M 19.671875 64.796875 
L 19.671875 37.40625 
L 32.078125 37.40625 
Q 38.96875 37.40625 42.71875 40.96875 
Q 46.484375 44.53125 46.484375 51.125 
Q 46.484375 57.671875 42.71875 61.234375 
Q 38.96875 64.796875 32.078125 64.796875 
z
M 9.8125 72.90625 
L 32.078125 72.90625 
Q 44.34375 72.90625 50.609375 67.359375 
Q 56.890625 61.8125 56.890625 51.125 
Q 56.890625 40.328125 50.609375 34.8125 
Q 44.34375 29.296875 32.078125 29.296875 
L 19.671875 29.296875 
L 19.671875 0 
L 9.8125 0 
z
" id="DejaVuSans-80"/>
       <path d="M 64.40625 67.28125 
L 64.40625 56.890625 
Q 59.421875 61.53125 53.78125 63.8125 
Q 48.140625 66.109375 41.796875 66.109375 
Q 29.296875 66.109375 22.65625 58.46875 
Q 16.015625 50.828125 16.015625 36.375 
Q 16.015625 21.96875 22.65625 14.328125 
Q 29.296875 6.6875 41.796875 6.6875 
Q 48.140625 6.6875 53.78125 8.984375 
Q 59.421875 11.28125 64.40625 15.921875 
L 64.40625 5.609375 
Q 59.234375 2.09375 53.4375 0.328125 
Q 47.65625 -1.421875 41.21875 -1.421875 
Q 24.65625 -1.421875 15.125 8.703125 
Q 5.609375 18.84375 5.609375 36.375 
Q 5.609375 53.953125 15.125 64.078125 
Q 24.65625 74.21875 41.21875 74.21875 
Q 47.75 74.21875 53.53125 72.484375 
Q 59.328125 70.75 64.40625 67.28125 
z
" id="DejaVuSans-67"/>
       <path d="M 11.71875 12.40625 
L 22.015625 12.40625 
L 22.015625 0 
L 11.71875 0 
z
M 11.71875 51.703125 
L 22.015625 51.703125 
L 22.015625 39.3125 
L 11.71875 39.3125 
z
" id="DejaVuSans-58"/>
       <path d="M 10.984375 1.515625 
L 10.984375 10.5 
Q 14.703125 8.734375 18.5 7.8125 
Q 22.3125 6.890625 25.984375 6.890625 
Q 35.75 6.890625 40.890625 13.453125 
Q 46.046875 20.015625 46.78125 33.40625 
Q 43.953125 29.203125 39.59375 26.953125 
Q 35.25 24.703125 29.984375 24.703125 
Q 19.046875 24.703125 12.671875 31.3125 
Q 6.296875 37.9375 6.296875 49.421875 
Q 6.296875 60.640625 12.9375 67.421875 
Q 19.578125 74.21875 30.609375 74.21875 
Q 43.265625 74.21875 49.921875 64.515625 
Q 56.59375 54.828125 56.59375 36.375 
Q 56.59375 19.140625 48.40625 8.859375 
Q 40.234375 -1.421875 26.421875 -1.421875 
Q 22.703125 -1.421875 18.890625 -0.6875 
Q 15.09375 0.046875 10.984375 1.515625 
z
M 30.609375 32.421875 
Q 37.25 32.421875 41.125 36.953125 
Q 45.015625 41.5 45.015625 49.421875 
Q 45.015625 57.28125 41.125 61.84375 
Q 37.25 66.40625 30.609375 66.40625 
Q 23.96875 66.40625 20.09375 61.84375 
Q 16.21875 57.28125 16.21875 49.421875 
Q 16.21875 41.5 20.09375 36.953125 
Q 23.96875 32.421875 30.609375 32.421875 
z
" id="DejaVuSans-57"/>
       <path d="M 31.78125 34.625 
Q 24.75 34.625 20.71875 30.859375 
Q 16.703125 27.09375 16.703125 20.515625 
Q 16.703125 13.921875 20.71875 10.15625 
Q 24.75 6.390625 31.78125 6.390625 
Q 38.8125 6.390625 42.859375 10.171875 
Q 46.921875 13.96875 46.921875 20.515625 
Q 46.921875 27.09375 42.890625 30.859375 
Q 38.875 34.625 31.78125 34.625 
z
M 21.921875 38.8125 
Q 15.578125 40.375 12.03125 44.71875 
Q 8.5 49.078125 8.5 55.328125 
Q 8.5 64.0625 14.71875 69.140625 
Q 20.953125 74.21875 31.78125 74.21875 
Q 42.671875 74.21875 48.875 69.140625 
Q 55.078125 64.0625 55.078125 55.328125 
Q 55.078125 49.078125 51.53125 44.71875 
Q 48 40.375 41.703125 38.8125 
Q 48.828125 37.15625 52.796875 32.3125 
Q 56.78125 27.484375 56.78125 20.515625 
Q 56.78125 9.90625 50.3125 4.234375 
Q 43.84375 -1.421875 31.78125 -1.421875 
Q 19.734375 -1.421875 13.25 4.234375 
Q 6.78125 9.90625 6.78125 20.515625 
Q 6.78125 27.484375 10.78125 32.3125 
Q 14.796875 37.15625 21.921875 38.8125 
z
M 18.3125 54.390625 
Q 18.3125 48.734375 21.84375 45.5625 
Q 25.390625 42.390625 31.78125 42.390625 
Q 38.140625 42.390625 41.71875 45.5625 
Q 45.3125 48.734375 45.3125 54.390625 
Q 45.3125 60.0625 41.71875 63.234375 
Q 38.140625 66.40625 31.78125 66.40625 
Q 25.390625 66.40625 21.84375 63.234375 
Q 18.3125 60.0625 18.3125 54.390625 
z
" id="DejaVuSans-56"/>
       <path d="M 10.6875 12.40625 
L 21 12.40625 
L 21 0 
L 10.6875 0 
z
" id="DejaVuSans-46"/>
       <path d="M 72.703125 32.078125 
Q 68.453125 32.078125 66.03125 28.46875 
Q 63.625 24.859375 63.625 18.40625 
Q 63.625 12.0625 66.03125 8.421875 
Q 68.453125 4.78125 72.703125 4.78125 
Q 76.859375 4.78125 79.265625 8.421875 
Q 81.6875 12.0625 81.6875 18.40625 
Q 81.6875 24.8125 79.265625 28.4375 
Q 76.859375 32.078125 72.703125 32.078125 
z
M 72.703125 38.28125 
Q 80.421875 38.28125 84.953125 32.90625 
Q 89.5 27.546875 89.5 18.40625 
Q 89.5 9.28125 84.9375 3.921875 
Q 80.375 -1.421875 72.703125 -1.421875 
Q 64.890625 -1.421875 60.34375 3.921875 
Q 55.8125 9.28125 55.8125 18.40625 
Q 55.8125 27.59375 60.375 32.9375 
Q 64.9375 38.28125 72.703125 38.28125 
z
M 22.3125 68.015625 
Q 18.109375 68.015625 15.6875 64.375 
Q 13.28125 60.75 13.28125 54.390625 
Q 13.28125 47.953125 15.671875 44.328125 
Q 18.0625 40.71875 22.3125 40.71875 
Q 26.5625 40.71875 28.96875 44.328125 
Q 31.390625 47.953125 31.390625 54.390625 
Q 31.390625 60.6875 28.953125 64.34375 
Q 26.515625 68.015625 22.3125 68.015625 
z
M 66.40625 74.21875 
L 74.21875 74.21875 
L 28.609375 -1.421875 
L 20.796875 -1.421875 
z
M 22.3125 74.21875 
Q 30.03125 74.21875 34.609375 68.875 
Q 39.203125 63.53125 39.203125 54.390625 
Q 39.203125 45.171875 34.640625 39.84375 
Q 30.078125 34.515625 22.3125 34.515625 
Q 14.546875 34.515625 10.03125 39.859375 
Q 5.515625 45.21875 5.515625 54.390625 
Q 5.515625 63.484375 10.046875 68.84375 
Q 14.59375 74.21875 22.3125 74.21875 
z
" id="DejaVuSans-37"/>
      </defs>
      <use xlink:href="#DejaVuSans-49"/>
      <use x="63.623047" xlink:href="#DejaVuSans-115"/>
      <use x="115.722656" xlink:href="#DejaVuSans-116"/>
      <use x="154.931641" xlink:href="#DejaVuSans-32"/>
      <use x="186.71875" xlink:href="#DejaVuSans-80"/>
      <use x="247.021484" xlink:href="#DejaVuSans-67"/>
      <use x="316.845703" xlink:href="#DejaVuSans-58"/>
      <use x="350.537109" xlink:href="#DejaVuSans-32"/>
      <use x="382.324219" xlink:href="#DejaVuSans-57"/>
      <use x="445.947266" xlink:href="#DejaVuSans-56"/>
      <use x="509.570312" xlink:href="#DejaVuSans-46"/>
      <use x="541.357422" xlink:href="#DejaVuSans-50"/>
      <use x="604.980469" xlink:href="#DejaVuSans-57"/>
      <use x="668.603516" xlink:href="#DejaVuSans-32"/>
      <use x="700.390625" xlink:href="#DejaVuSans-37"/>
     </g>
    </g>
   </g>
   <g id="matplotlib.axis_2">
    <g id="ytick_1">
     <g id="line2d_11">
      <defs>
       <path d="M 0 0 
L -3.5 0 
" id="m375b738716" style="stroke:#000000;stroke-width:0.8;"/>
      </defs>
      <g>
       <use style="stroke:#000000;stroke-width:0.8;" x="56.028488" xlink:href="#m375b738716" y="277.111219"/>
      </g>
     </g>
     <g id="text_12">
      <!-- −20 -->
      <g transform="translate(27.9238 280.910437)scale(0.1 -0.1)">
       <use xlink:href="#DejaVuSans-8722"/>
       <use x="83.789062" xlink:href="#DejaVuSans-50"/>
       <use x="147.412109" xlink:href="#DejaVuSans-48"/>
      </g>
     </g>
    </g>
    <g id="ytick_2">
     <g id="line2d_12">
      <g>
       <use style="stroke:#000000;stroke-width:0.8;" x="56.028488" xlink:href="#m375b738716" y="243.847219"/>
      </g>
     </g>
     <g id="text_13">
      <!-- −15 -->
      <g transform="translate(27.9238 247.646437)scale(0.1 -0.1)">
       <use xlink:href="#DejaVuSans-8722"/>
       <use x="83.789062" xlink:href="#DejaVuSans-49"/>
       <use x="147.412109" xlink:href="#DejaVuSans-53"/>
      </g>
     </g>
    </g>
    <g id="ytick_3">
     <g id="line2d_13">
      <g>
       <use style="stroke:#000000;stroke-width:0.8;" x="56.028488" xlink:href="#m375b738716" y="210.583219"/>
      </g>
     </g>
     <g id="text_14">
      <!-- −10 -->
      <g transform="translate(27.9238 214.382437)scale(0.1 -0.1)">
       <use xlink:href="#DejaVuSans-8722"/>
       <use x="83.789062" xlink:href="#DejaVuSans-49"/>
       <use x="147.412109" xlink:href="#DejaVuSans-48"/>
      </g>
     </g>
    </g>
    <g id="ytick_4">
     <g id="line2d_14">
      <g>
       <use style="stroke:#000000;stroke-width:0.8;" x="56.028488" xlink:href="#m375b738716" y="177.319219"/>
      </g>
     </g>
     <g id="text_15">
      <!-- −5 -->
      <g transform="translate(34.2863 181.118437)scale(0.1 -0.1)">
       <use xlink:href="#DejaVuSans-8722"/>
       <use x="83.789062" xlink:href="#DejaVuSans-53"/>
      </g>
     </g>
    </g>
    <g id="ytick_5">
     <g id="line2d_15">
      <g>
       <use style="stroke:#000000;stroke-width:0.8;" x="56.028488" xlink:href="#m375b738716" y="144.055219"/>
      </g>
     </g>
     <g id="text_16">
      <!-- 0 -->
      <g transform="translate(42.665987 147.854437)scale(0.1 -0.1)">
       <use xlink:href="#DejaVuSans-48"/>
      </g>
     </g>
    </g>
    <g id="ytick_6">
     <g id="line2d_16">
      <g>
       <use style="stroke:#000000;stroke-width:0.8;" x="56.028488" xlink:href="#m375b738716" y="110.791219"/>
      </g>
     </g>
     <g id="text_17">
      <!-- 5 -->
      <g transform="translate(42.665987 114.590437)scale(0.1 -0.1)">
       <use xlink:href="#DejaVuSans-53"/>
      </g>
     </g>
    </g>
    <g id="ytick_7">
     <g id="line2d_17">
      <g>
       <use style="stroke:#000000;stroke-width:0.8;" x="56.028488" xlink:href="#m375b738716" y="77.527219"/>
      </g>
     </g>
     <g id="text_18">
      <!-- 10 -->
      <g transform="translate(36.303488 81.326437)scale(0.1 -0.1)">
       <use xlink:href="#DejaVuSans-49"/>
       <use x="63.623047" xlink:href="#DejaVuSans-48"/>
      </g>
     </g>
    </g>
    <g id="ytick_8">
     <g id="line2d_18">
      <g>
       <use style="stroke:#000000;stroke-width:0.8;" x="56.028488" xlink:href="#m375b738716" y="44.263219"/>
      </g>
     </g>
     <g id="text_19">
      <!-- 15 -->
      <g transform="translate(36.303488 48.062437)scale(0.1 -0.1)">
       <use xlink:href="#DejaVuSans-49"/>
       <use x="63.623047" xlink:href="#DejaVuSans-53"/>
      </g>
     </g>
    </g>
    <g id="ytick_9">
     <g id="line2d_19">
      <g>
       <use style="stroke:#000000;stroke-width:0.8;" x="56.028488" xlink:href="#m375b738716" y="10.999219"/>
      </g>
     </g>
     <g id="text_20">
      <!-- 20 -->
      <g transform="translate(36.303488 14.798437)scale(0.1 -0.1)">
       <use xlink:href="#DejaVuSans-50"/>
       <use x="63.623047" xlink:href="#DejaVuSans-48"/>
      </g>
     </g>
    </g>
    <g id="text_21">
     <!-- 2nd PC: 0.80 % -->
     <g transform="translate(20.3301 210.351019)rotate(-90)scale(0.1728 -0.1728)">
      <defs>
       <path d="M 54.890625 33.015625 
L 54.890625 0 
L 45.90625 0 
L 45.90625 32.71875 
Q 45.90625 40.484375 42.875 44.328125 
Q 39.84375 48.1875 33.796875 48.1875 
Q 26.515625 48.1875 22.3125 43.546875 
Q 18.109375 38.921875 18.109375 30.90625 
L 18.109375 0 
L 9.078125 0 
L 9.078125 54.6875 
L 18.109375 54.6875 
L 18.109375 46.1875 
Q 21.34375 51.125 25.703125 53.5625 
Q 30.078125 56 35.796875 56 
Q 45.21875 56 50.046875 50.171875 
Q 54.890625 44.34375 54.890625 33.015625 
z
" id="DejaVuSans-110"/>
       <path d="M 45.40625 46.390625 
L 45.40625 75.984375 
L 54.390625 75.984375 
L 54.390625 0 
L 45.40625 0 
L 45.40625 8.203125 
Q 42.578125 3.328125 38.25 0.953125 
Q 33.9375 -1.421875 27.875 -1.421875 
Q 17.96875 -1.421875 11.734375 6.484375 
Q 5.515625 14.40625 5.515625 27.296875 
Q 5.515625 40.1875 11.734375 48.09375 
Q 17.96875 56 27.875 56 
Q 33.9375 56 38.25 53.625 
Q 42.578125 51.265625 45.40625 46.390625 
z
M 14.796875 27.296875 
Q 14.796875 17.390625 18.875 11.75 
Q 22.953125 6.109375 30.078125 6.109375 
Q 37.203125 6.109375 41.296875 11.75 
Q 45.40625 17.390625 45.40625 27.296875 
Q 45.40625 37.203125 41.296875 42.84375 
Q 37.203125 48.484375 30.078125 48.484375 
Q 22.953125 48.484375 18.875 42.84375 
Q 14.796875 37.203125 14.796875 27.296875 
z
" id="DejaVuSans-100"/>
      </defs>
      <use xlink:href="#DejaVuSans-50"/>
      <use x="63.623047" xlink:href="#DejaVuSans-110"/>
      <use x="127.001953" xlink:href="#DejaVuSans-100"/>
      <use x="190.478516" xlink:href="#DejaVuSans-32"/>
      <use x="222.265625" xlink:href="#DejaVuSans-80"/>
      <use x="282.568359" xlink:href="#DejaVuSans-67"/>
      <use x="352.392578" xlink:href="#DejaVuSans-58"/>
      <use x="386.083984" xlink:href="#DejaVuSans-32"/>
      <use x="417.871094" xlink:href="#DejaVuSans-48"/>
      <use x="481.494141" xlink:href="#DejaVuSans-46"/>
      <use x="513.28125" xlink:href="#DejaVuSans-56"/>
      <use x="576.904297" xlink:href="#DejaVuSans-48"/>
      <use x="640.527344" xlink:href="#DejaVuSans-32"/>
      <use x="672.314453" xlink:href="#DejaVuSans-37"/>
     </g>
    </g>
   </g>
   <g id="LineCollection_1"/>
   <g id="LineCollection_2"/>
   <g id="LineCollection_3">
    <path clip-path="url(#p7343b860a0)" d="M 220.838879 128.972148 
L 222.684488 130.266491 
L 225.267582 135.184819 
L 232.117083 144.055219 
L 234.588488 149.265826 
L 234.837552 152.925619 
L 234.588488 161.692937 
L 234.557594 161.796019 
L 228.417674 170.666419 
L 223.560103 179.536819 
L 222.684488 181.332825 
L 212.430846 188.407219 
L 210.780488 190.268065 
L 207.130635 188.407219 
L 201.387094 179.536819 
L 199.448178 170.666419 
L 198.876488 165.940378 
L 198.628101 161.796019 
L 198.243972 152.925619 
L 197.999793 144.055219 
L 197.94992 135.184819 
L 198.245973 126.314419 
L 198.783043 122.371612 
" style="fill:none;stroke:#482576;stroke-width:1.5;"/>
   </g>
   <g id="LineCollection_4">
    <path clip-path="url(#p7343b860a0)" d="M 184.677164 113.731914 
L 185.119078 108.573619 
L 186.972488 103.576686 
L 198.876488 106.431841 
L 200.595217 108.573619 
L 210.780488 115.875117 
L 212.815643 117.444019 
L 222.684488 124.879627 
L 223.91571 126.314419 
L 230.617477 135.184819 
L 234.588488 139.363338 
L 235.818309 144.055219 
L 236.966687 152.925619 
L 237.665136 161.796019 
L 236.62071 170.666419 
L 234.588488 178.313777 
L 233.601045 179.536819 
L 226.703423 188.407219 
L 222.684488 196.492225 
L 221.797108 197.277619 
L 213.506875 206.148019 
L 210.780488 210.955683 
L 205.291017 215.018419 
L 198.876488 222.920217 
L 194.304589 223.888819 
L 186.972488 226.074255 
L 184.711303 223.888819 
L 182.252547 215.018419 
L 182.006296 206.148019 
L 182.274113 197.277619 
L 182.660618 188.407219 
L 183.036413 179.536819 
L 183.35349 170.666419 
L 183.606886 161.796019 
L 183.788896 152.925619 
L 183.897158 144.055219 
L 183.944312 138.913482 
" style="fill:none;stroke:#453781;stroke-width:1.5;"/>
   </g>
   <g id="LineCollection_5">
    <path clip-path="url(#p7343b860a0)" d="M 167.858965 158.072188 
L 167.936383 152.925619 
L 167.891905 144.055219 
L 167.6842 135.184819 
L 167.327335 126.314419 
L 166.842071 117.444019 
L 166.285926 108.573619 
L 165.796099 99.703219 
L 165.812964 90.832819 
L 175.068488 82.656459 
L 186.972488 90.687293 
L 187.052361 90.832819 
L 194.08869 99.703219 
L 198.876488 102.262244 
L 203.941228 108.573619 
L 210.780488 113.476468 
L 215.927135 117.444019 
L 222.684488 122.535296 
L 225.927427 126.314419 
L 234.588488 134.683781 
L 234.777661 135.184819 
L 237.293886 144.055219 
L 239.095822 152.925619 
L 240.746021 161.796019 
L 239.925653 170.666419 
L 237.020188 179.536819 
L 234.588488 186.259543 
L 232.825138 188.407219 
L 226.315339 197.277619 
L 222.684488 204.116951 
L 220.687938 206.148019 
L 213.691766 215.018419 
L 210.780488 220.036463 
L 206.57382 223.888819 
L 199.909901 232.759219 
L 198.876488 234.308603 
L 189.542667 241.629619 
L 186.972488 244.682697 
L 175.068488 250.12303 
L 163.164488 250.146956 
L 155.80681 241.629619 
L 157.663233 232.759219 
L 160.254219 223.888819 
L 162.757238 215.018419 
L 163.164488 213.335243 
L 164.363064 206.148019 
L 165.491008 197.277619 
L 166.362061 188.407219 
L 166.745616 183.243555 
" style="fill:none;stroke:#404688;stroke-width:1.5;"/>
   </g>
   <g id="LineCollection_6">
    <path clip-path="url(#p7343b860a0)" d="M 145.892064 277.111219 
L 139.356488 270.027334 
L 127.962425 270.688147 
" style="fill:none;stroke:#39558c;stroke-width:1.5;"/>
    <path clip-path="url(#p7343b860a0)" d="M 103.55553 276.689205 
L 102.423969 277.111219 
" style="fill:none;stroke:#39558c;stroke-width:1.5;"/>
    <path clip-path="url(#p7343b860a0)" d="M 56.028488 268.03994 
L 67.932487 260.316142 
L 69.296376 259.370419 
L 79.836488 252.264609 
L 82.353638 250.500019 
L 91.740488 243.489752 
L 94.115543 241.629619 
L 103.644488 233.342312 
L 104.26505 232.759219 
L 112.323878 223.888819 
L 115.548488 219.592091 
L 116.969405 217.337301 
" style="fill:none;stroke:#39558c;stroke-width:1.5;"/>
    <path clip-path="url(#p7343b860a0)" d="M 126.698175 194.200509 
L 127.452488 191.185902 
L 127.963908 188.407219 
L 129.006258 179.536819 
L 129.555735 170.666419 
L 129.705081 161.796019 
L 129.517245 152.925619 
L 128.99894 144.055219 
L 128.076244 135.184819 
L 127.452488 131.28942 
L 126.449194 126.314419 
L 124.038525 117.444019 
L 121.055339 108.573619 
L 117.532316 99.703219 
L 115.548488 95.348621 
L 113.20639 90.832819 
L 108.228798 81.962419 
L 103.644488 74.119131 
L 103.007211 73.092019 
L 97.307464 64.221619 
L 91.740488 55.586612 
L 91.588645 55.351219 
L 86.031201 46.480819 
L 80.623969 37.610419 
L 79.836488 36.089932 
L 75.908925 28.740019 
L 72.046135 19.869619 
L 69.830144 10.999219 
" style="fill:none;stroke:#39558c;stroke-width:1.5;"/>
    <path clip-path="url(#p7343b860a0)" d="M 85.173825 10.999219 
L 91.740488 13.696439 
L 103.644488 19.226819 
L 104.722161 19.869619 
L 115.548488 27.095481 
L 117.92665 28.740019 
L 127.452488 35.330049 
L 130.128014 37.610419 
L 139.356488 44.297978 
L 141.47692 46.480819 
L 151.260488 53.920258 
L 152.489092 55.351219 
L 153.26997 55.96689 
" style="fill:none;stroke:#39558c;stroke-width:1.5;"/>
    <path clip-path="url(#p7343b860a0)" d="M 171.584051 73.128734 
L 175.068488 75.325306 
L 178.067195 81.962419 
L 186.972488 88.447289 
L 188.281809 90.832819 
L 198.876488 99.322672 
L 199.158376 99.703219 
L 207.287238 108.573619 
L 210.780488 111.077819 
L 219.038627 117.444019 
L 222.684488 120.190966 
L 227.939143 126.314419 
L 234.588488 132.739818 
L 235.511631 135.184819 
L 238.769463 144.055219 
L 241.224957 152.925619 
L 243.826907 161.796019 
L 243.230596 170.666419 
L 239.717107 179.536819 
L 235.972184 188.407219 
L 234.588488 191.829758 
L 230.193518 197.277619 
L 224.576484 206.148019 
L 222.684488 209.667069 
L 217.978329 215.018419 
L 212.154257 223.888819 
L 210.780488 226.393368 
L 204.814341 232.759219 
L 198.887993 241.629619 
L 198.876488 241.646494 
L 189.023649 250.500019 
L 186.972488 252.88065 
L 178.449903 259.370419 
L 175.068488 262.501035 
L 166.508302 268.240819 
L 163.164488 270.68265 
L 153.281098 277.111219 
" style="fill:none;stroke:#39558c;stroke-width:1.5;"/>
   </g>
   <g id="LineCollection_7">
    <path clip-path="url(#p7343b860a0)" d="M 101.003551 10.999219 
L 103.644488 12.731769 
L 115.548488 19.865656 
L 115.554224 19.869619 
L 127.452488 28.671153 
L 127.547789 28.740019 
L 138.658795 37.610419 
L 139.356488 38.116013 
L 147.482137 46.480819 
L 151.260488 49.353882 
L 156.409723 55.351219 
L 163.164488 60.676913 
L 165.437038 64.221619 
L 175.068488 72.014518 
L 175.462452 73.092019 
L 181.143261 81.962419 
L 186.972488 86.207286 
L 189.511257 90.832819 
L 198.876488 98.337476 
L 199.888155 99.703219 
L 210.633249 108.573619 
L 210.780488 108.679169 
L 222.150119 117.444019 
L 222.684488 117.846635 
L 229.95086 126.314419 
L 234.588488 130.795854 
L 236.245601 135.184819 
L 240.24504 144.055219 
L 243.354092 152.925619 
L 246.492488 161.052784 
L 246.535847 161.796019 
L 246.498082 170.666419 
L 246.492488 170.742173 
L 242.414027 179.536819 
L 237.91571 188.407219 
L 234.796302 196.122997 
" style="fill:none;stroke:#33638d;stroke-width:1.5;"/>
    <path clip-path="url(#p7343b860a0)" d="M 220.725066 216.904933 
L 215.024617 223.888819 
L 210.780488 231.626383 
L 209.718781 232.759219 
L 201.51892 241.629619 
L 198.876488 245.505465 
L 193.318189 250.500019 
L 186.972488 257.865004 
L 184.995526 259.370419 
L 175.171225 268.240819 
L 175.068488 268.325722 
L 163.220745 277.111219 
" style="fill:none;stroke:#33638d;stroke-width:1.5;"/>
   </g>
   <g id="LineCollection_8">
    <path clip-path="url(#p7343b860a0)" d="M 104.334933 10.999219 
L 115.548488 19.178801 
L 116.548445 19.869619 
L 127.452488 27.935695 
L 128.565573 28.740019 
L 139.356488 36.903428 
L 140.237751 37.610419 
L 151.260488 46.203372 
L 151.562544 46.480819 
L 160.330355 55.351219 
L 163.164488 57.585749 
L 165.92922 61.898156 
" style="fill:none;stroke:#2d718e;stroke-width:1.5;"/>
    <path clip-path="url(#p7343b860a0)" d="M 182.651243 80.260031 
L 184.219326 81.962419 
L 186.972488 83.967282 
L 190.740705 90.832819 
L 198.876488 97.35228 
L 200.617934 99.703219 
L 210.780488 108.00378 
L 211.557047 108.573619 
L 222.684488 116.938267 
L 223.222197 117.444019 
L 231.962576 126.314419 
L 234.588488 128.851891 
L 236.979571 135.184819 
L 241.720617 144.055219 
L 245.483227 152.925619 
L 246.492488 155.539193 
L 246.857506 161.796019 
L 246.927557 170.666419 
L 246.492488 176.557713 
L 245.110946 179.536819 
L 239.859236 188.407219 
L 235.666676 197.277619 
L 234.588488 200.13868 
L 229.817686 206.148019 
L 224.153954 215.018419 
L 222.684488 218.131204 
L 217.894977 223.888819 
L 211.98868 232.759219 
L 210.780488 234.862909 
L 204.149847 241.629619 
L 198.876488 249.364436 
L 197.61273 250.500019 
L 188.060258 259.370419 
L 186.972488 260.443414 
L 177.114737 268.240819 
L 175.068488 269.931853 
L 165.386704 277.111219 
" style="fill:none;stroke:#2d718e;stroke-width:1.5;"/>
   </g>
   <g id="LineCollection_9">
    <path clip-path="url(#p7343b860a0)" d="M 105.276556 10.999219 
L 115.548488 18.491947 
L 117.542667 19.869619 
L 127.452488 27.200237 
L 129.583358 28.740019 
L 139.356488 36.133467 
L 141.197508 37.610419 
L 151.260488 45.455178 
L 152.377101 46.480819 
L 163.164488 55.169405 
L 163.293679 55.351219 
L 166.389936 59.848582 
" style="fill:none;stroke:#287d8e;stroke-width:1.5;"/>
    <path clip-path="url(#p7343b860a0)" d="M 182.750511 78.308563 
L 186.972488 81.909922 
L 187.000709 81.962419 
L 191.970153 90.832819 
L 198.876488 96.367084 
L 201.347713 99.703219 
L 210.780488 107.407712 
L 212.369351 108.573619 
L 222.684488 116.327647 
L 223.8714 117.444019 
L 233.974292 126.314419 
L 234.588488 126.907928 
L 237.713541 135.184819 
L 243.196194 144.055219 
L 246.492488 151.235102 
L 246.620661 152.925619 
L 247.179165 161.796019 
L 247.357032 170.666419 
L 246.714977 179.536819 
L 246.492488 181.028302 
L 241.802762 188.407219 
L 236.910628 197.277619 
L 234.588488 203.439609 
L 232.438287 206.148019 
L 225.782868 215.018419 
L 222.684488 221.58175 
L 220.765337 223.888819 
L 213.530683 232.759219 
L 210.780488 237.547826 
L 206.780774 241.629619 
L 199.65791 250.500019 
L 198.876488 251.441953 
L 189.618731 259.370419 
L 186.972488 261.980717 
L 179.05825 268.240819 
L 175.068488 271.537985 
L 167.552664 277.111219 
" style="fill:none;stroke:#287d8e;stroke-width:1.5;"/>
   </g>
   <g id="LineCollection_10">
    <path clip-path="url(#p7343b860a0)" d="M 106.218178 10.999219 
L 115.548488 17.805092 
L 118.536888 19.869619 
L 127.452488 26.464779 
L 130.601142 28.740019 
L 139.356488 35.363505 
L 142.157265 37.610419 
L 151.260488 44.706983 
L 153.191659 46.480819 
L 163.164488 54.513328 
L 163.759867 55.351219 
L 166.260705 58.261472 
" style="fill:none;stroke:#238a8d;stroke-width:1.5;"/>
    <path clip-path="url(#p7343b860a0)" d="M 182.037859 77.200573 
L 186.972488 81.409826 
L 187.269555 81.962419 
L 193.199601 90.832819 
L 198.876488 95.381889 
L 202.077492 99.703219 
L 210.780488 106.811644 
L 213.181656 108.573619 
L 222.684488 115.717026 
L 224.520603 117.444019 
L 234.588488 125.934101 
L 234.850081 126.314419 
L 238.447511 135.184819 
L 244.671771 144.055219 
L 246.492488 148.021046 
L 246.864349 152.925619 
L 247.500824 161.796019 
L 247.786507 170.666419 
L 247.171147 179.536819 
L 246.492488 184.086288 
L 243.746288 188.407219 
L 238.15458 197.277619 
L 234.720016 206.148019 
L 234.588488 206.495267 
L 227.411783 215.018419 
L 222.967955 223.888819 
L 222.684488 224.446855 
L 215.072686 232.759219 
L 210.780488 240.232743 
L 209.411701 241.629619 
L 200.765166 250.500019 
L 198.876488 252.77665 
L 191.177204 259.370419 
L 186.972488 263.51802 
L 181.001762 268.240819 
L 175.068488 273.144116 
L 169.718624 277.111219 
" style="fill:none;stroke:#238a8d;stroke-width:1.5;"/>
   </g>
   <g id="LineCollection_11">
    <path clip-path="url(#p7343b860a0)" d="M 107.159801 10.999219 
L 115.548488 17.118238 
L 119.531109 19.869619 
L 127.452488 25.729321 
L 131.618927 28.740019 
L 139.356488 34.593543 
L 143.117022 37.610419 
L 151.260488 43.958789 
L 154.006217 46.480819 
L 163.164488 53.857251 
L 164.226055 55.351219 
L 165.896256 56.972491 
" style="fill:none;stroke:#1f968b;stroke-width:1.5;"/>
    <path clip-path="url(#p7343b860a0)" d="M 181.325207 76.092582 
L 186.972488 80.90973 
L 187.538402 81.962419 
L 194.429049 90.832819 
L 198.876488 94.396693 
L 202.80727 99.703219 
L 210.780488 106.215576 
L 213.99396 108.573619 
L 222.684488 115.106406 
L 225.169807 117.444019 
L 234.588488 125.386639 
L 235.226643 126.314419 
L 239.181481 135.184819 
L 246.147348 144.055219 
L 246.492488 144.80699 
L 247.108036 152.925619 
L 247.822484 161.796019 
L 248.215982 170.666419 
L 247.627317 179.536819 
L 246.492488 187.144274 
L 245.689814 188.407219 
L 239.398532 197.277619 
L 235.452764 206.148019 
L 234.588488 208.429788 
L 229.040697 215.018419 
L 223.823343 223.888819 
L 222.684488 226.130778 
L 216.614688 232.759219 
L 211.124244 241.629619 
L 210.780488 242.128793 
L 201.872422 250.500019 
L 198.876488 254.111347 
L 192.735677 259.370419 
L 186.972488 265.055324 
L 182.945274 268.240819 
L 175.068488 274.750248 
L 171.884584 277.111219 
" style="fill:none;stroke:#1f968b;stroke-width:1.5;"/>
   </g>
   <g id="LineCollection_12">
    <path clip-path="url(#p7343b860a0)" d="M 108.101424 10.999219 
L 115.548488 16.431383 
L 120.52533 19.869619 
L 127.452488 24.993863 
L 132.636711 28.740019 
L 139.356488 33.823581 
L 144.076779 37.610419 
L 151.260488 43.210595 
L 154.820775 46.480819 
L 163.164488 53.201174 
L 164.692243 55.351219 
L 165.51095 56.046737 
" style="fill:none;stroke:#20a386;stroke-width:1.5;"/>
    <path clip-path="url(#p7343b860a0)" d="M 180.778246 75.125926 
L 186.972488 80.409634 
L 187.807248 81.962419 
L 195.658497 90.832819 
L 198.876488 93.411497 
L 203.537049 99.703219 
L 210.780488 105.619507 
L 214.806264 108.573619 
L 222.684488 114.495786 
L 225.81901 117.444019 
L 234.588488 124.839176 
L 235.603204 126.314419 
L 239.915451 135.184819 
L 246.492488 143.356586 
L 246.658233 144.055219 
L 247.351723 152.925619 
L 248.144143 161.796019 
L 248.645457 170.666419 
L 248.083488 179.536819 
L 246.702344 188.407219 
L 246.492488 189.391562 
L 240.642484 197.277619 
L 236.185512 206.148019 
L 234.588488 210.364308 
L 230.669611 215.018419 
L 224.678732 223.888819 
L 222.684488 227.814701 
L 218.156691 232.759219 
L 211.840803 241.629619 
L 210.780488 243.169321 
L 202.979678 250.500019 
L 198.876488 255.446044 
L 194.29415 259.370419 
L 186.972488 266.592627 
L 184.888786 268.240819 
L 175.068488 276.356379 
L 174.050544 277.111219 
" style="fill:none;stroke:#20a386;stroke-width:1.5;"/>
   </g>
   <g id="LineCollection_13">
    <path clip-path="url(#p7343b860a0)" d="M 109.043046 10.999219 
L 115.548488 15.744529 
L 121.519552 19.869619 
L 127.452488 24.258405 
L 133.654496 28.740019 
L 139.356488 33.053619 
L 145.036536 37.610419 
L 151.260488 42.462401 
L 155.635332 46.480819 
L 163.164488 52.545097 
L 165.158431 55.351219 
L 165.833193 55.92445 
" style="fill:none;stroke:#29af7f;stroke-width:1.5;"/>
    <path clip-path="url(#p7343b860a0)" d="M 181.241476 75.020967 
L 186.972488 79.909537 
L 188.076094 81.962419 
L 196.887945 90.832819 
L 198.876488 92.426301 
L 204.266828 99.703219 
L 210.780488 105.023439 
L 215.618569 108.573619 
L 222.684488 113.885166 
L 226.468214 117.444019 
L 234.588488 124.291713 
L 235.979766 126.314419 
L 240.649421 135.184819 
L 246.492488 142.444651 
L 246.874584 144.055219 
L 247.595411 152.925619 
L 248.465802 161.796019 
L 249.074932 170.666419 
L 248.539658 179.536819 
L 247.05985 188.407219 
L 246.492488 191.068463 
L 241.886436 197.277619 
L 236.91826 206.148019 
L 234.588488 212.298829 
L 232.298526 215.018419 
L 225.53412 223.888819 
L 222.684488 229.498624 
L 219.698694 232.759219 
L 212.557362 241.629619 
L 210.780488 244.209848 
L 204.086933 250.500019 
L 198.876488 256.780741 
L 195.852623 259.370419 
L 186.972488 268.12993 
L 186.832298 268.240819 
L 175.445204 277.111219 
" style="fill:none;stroke:#29af7f;stroke-width:1.5;"/>
   </g>
   <g id="LineCollection_14">
    <path clip-path="url(#p7343b860a0)" d="M 109.984669 10.999219 
L 115.548488 15.057674 
L 122.513773 19.869619 
L 127.452488 23.522947 
L 134.67228 28.740019 
L 139.356488 32.283657 
L 145.996293 37.610419 
L 151.260488 41.714207 
L 156.44989 46.480819 
L 163.164488 51.88902 
L 165.62462 55.351219 
L 166.155435 55.802164 
" style="fill:none;stroke:#3dbc74;stroke-width:1.5;"/>
    <path clip-path="url(#p7343b860a0)" d="M 181.691829 74.905023 
L 186.972488 79.409441 
L 188.34494 81.962419 
L 198.117392 90.832819 
L 198.876488 91.441106 
L 204.996607 99.703219 
L 210.780488 104.427371 
L 216.430873 108.573619 
L 222.684488 113.274546 
L 227.117417 117.444019 
L 234.588488 123.74425 
L 236.356327 126.314419 
L 241.383391 135.184819 
L 246.492488 141.532716 
L 247.090935 144.055219 
L 247.839098 152.925619 
L 248.787461 161.796019 
L 249.504407 170.666419 
L 248.995828 179.536819 
L 247.417356 188.407219 
L 246.492488 192.745364 
L 243.130388 197.277619 
L 237.651008 206.148019 
L 234.588488 214.23335 
L 233.92744 215.018419 
L 226.389509 223.888819 
L 222.684488 231.182547 
L 221.240697 232.759219 
L 213.273921 241.629619 
L 210.780488 245.250376 
L 205.194189 250.500019 
L 198.876488 258.115438 
L 197.411096 259.370419 
L 187.534559 268.240819 
L 186.972488 268.750567 
L 176.155955 277.111219 
" style="fill:none;stroke:#3dbc74;stroke-width:1.5;"/>
   </g>
   <g id="LineCollection_15">
    <path clip-path="url(#p7343b860a0)" d="M 110.926291 10.999219 
L 115.548488 14.37082 
L 123.507994 19.869619 
L 127.452488 22.787489 
L 135.690065 28.740019 
L 139.356488 31.513696 
L 146.95605 37.610419 
L 151.260488 40.966013 
L 157.264448 46.480819 
L 163.164488 51.232943 
L 166.090808 55.351219 
L 166.477678 55.679877 
" style="fill:none;stroke:#56c667;stroke-width:1.5;"/>
    <path clip-path="url(#p7343b860a0)" d="M 182.129995 74.778684 
L 186.972488 78.909345 
L 188.613786 81.962419 
L 198.876488 90.744801 
L 198.942502 90.832819 
L 205.726386 99.703219 
L 210.780488 103.831303 
L 217.243177 108.573619 
L 222.684488 112.663925 
L 227.766621 117.444019 
L 234.588488 123.196788 
L 236.732889 126.314419 
L 242.117361 135.184819 
L 246.492488 140.62078 
L 247.307285 144.055219 
L 248.082785 152.925619 
L 249.10912 161.796019 
L 249.933881 170.666419 
L 249.451998 179.536819 
L 247.774862 188.407219 
L 246.492488 194.422265 
L 244.37434 197.277619 
L 238.383756 206.148019 
L 234.846788 215.018419 
L 234.588488 215.592604 
L 227.244897 223.888819 
L 222.712012 232.759219 
L 222.684488 232.80554 
L 213.99048 241.629619 
L 210.780488 246.290904 
L 206.301445 250.500019 
L 198.904637 259.370419 
L 198.876488 259.400211 
L 188.140327 268.240819 
L 186.972488 269.299943 
L 176.866706 277.111219 
" style="fill:none;stroke:#56c667;stroke-width:1.5;"/>
   </g>
   <g id="LineCollection_16">
    <path clip-path="url(#p7343b860a0)" d="M 111.867914 10.999219 
L 115.548488 13.683965 
L 124.502216 19.869619 
L 127.452488 22.052031 
L 136.70785 28.740019 
L 139.356488 30.743734 
L 147.915807 37.610419 
L 151.260488 40.217819 
L 158.079006 46.480819 
L 163.164488 50.576866 
L 166.556996 55.351219 
L 166.79992 55.557591 
" style="fill:none;stroke:#75d054;stroke-width:1.5;"/>
    <path clip-path="url(#p7343b860a0)" d="M 182.556669 74.642542 
L 186.972488 78.409249 
L 188.882632 81.962419 
L 198.876488 90.514734 
L 199.115055 90.832819 
L 206.456165 99.703219 
L 210.780488 103.235235 
L 218.055482 108.573619 
L 222.684488 112.053305 
L 228.415824 117.444019 
L 234.588488 122.649325 
L 237.10945 126.314419 
L 242.851331 135.184819 
L 246.492488 139.708845 
L 247.523636 144.055219 
L 248.326473 152.925619 
L 249.430779 161.796019 
L 250.363356 170.666419 
L 249.908168 179.536819 
L 248.132369 188.407219 
L 246.492488 196.099166 
L 245.618293 197.277619 
L 239.116503 206.148019 
L 235.281506 215.018419 
L 234.588488 216.558955 
L 228.100285 223.888819 
L 223.144164 232.759219 
L 222.684488 233.53282 
L 214.707039 241.629619 
L 210.780488 247.331431 
L 207.408701 250.500019 
L 199.375954 259.370419 
L 198.876488 259.899025 
L 188.746094 268.240819 
L 186.972488 269.849319 
L 177.577457 277.111219 
" style="fill:none;stroke:#75d054;stroke-width:1.5;"/>
   </g>
   <g id="LineCollection_17">
    <path clip-path="url(#p7343b860a0)" d="M 112.809537 10.999219 
L 115.548488 12.997111 
L 125.496437 19.869619 
L 127.452488 21.316573 
L 137.725634 28.740019 
L 139.356488 29.973772 
L 148.875564 37.610419 
L 151.260488 39.469624 
L 158.893563 46.480819 
L 163.164488 49.920789 
L 167.023184 55.351219 
L 167.122163 55.435305 
" style="fill:none;stroke:#95d840;stroke-width:1.5;"/>
    <path clip-path="url(#p7343b860a0)" d="M 182.972546 74.49719 
L 186.972488 77.909153 
L 189.151479 81.962419 
L 198.876488 90.284667 
L 199.287608 90.832819 
L 207.185944 99.703219 
L 210.780488 102.639167 
L 218.867786 108.573619 
L 222.684488 111.442685 
L 229.065028 117.444019 
L 234.588488 122.101862 
L 237.486012 126.314419 
L 243.585301 135.184819 
L 246.492488 138.79691 
L 247.739987 144.055219 
L 248.57016 152.925619 
L 249.752438 161.796019 
L 250.792831 170.666419 
L 250.364339 179.536819 
L 248.489875 188.407219 
L 246.566688 197.277619 
L 246.492488 197.559211 
L 239.849251 206.148019 
L 235.716224 215.018419 
L 234.588488 217.525306 
L 228.955674 223.888819 
L 223.576316 232.759219 
L 222.684488 234.260099 
L 215.423599 241.629619 
L 210.780488 248.371959 
L 208.515957 250.500019 
L 199.84727 259.370419 
L 198.876488 260.397839 
L 189.351861 268.240819 
L 186.972488 270.398694 
L 178.288208 277.111219 
" style="fill:none;stroke:#95d840;stroke-width:1.5;"/>
   </g>
   <g id="LineCollection_18">
    <path clip-path="url(#p7343b860a0)" d="M 113.751159 10.999219 
L 115.548488 12.310256 
L 126.490658 19.869619 
L 127.452488 20.581115 
L 138.743419 28.740019 
L 139.356488 29.20381 
L 149.835321 37.610419 
L 151.260488 38.72143 
L 159.708121 46.480819 
L 163.164488 49.264712 
L 167.455196 55.303122 
" style="fill:none;stroke:#bade28;stroke-width:1.5;"/>
    <path clip-path="url(#p7343b860a0)" d="M 183.378306 74.343208 
L 186.972488 77.409056 
L 189.420325 81.962419 
L 198.876488 90.0546 
L 199.460161 90.832819 
L 207.915723 99.703219 
L 210.780488 102.043099 
L 219.68009 108.573619 
L 222.684488 110.832065 
L 229.714231 117.444019 
L 234.588488 121.5544 
L 237.862573 126.314419 
L 244.319271 135.184819 
L 246.492488 137.884975 
L 247.956337 144.055219 
L 248.813847 152.925619 
L 250.074097 161.796019 
L 251.222306 170.666419 
L 250.820509 179.536819 
L 248.847381 188.407219 
L 246.816318 197.277619 
L 246.492488 198.506555 
L 240.581999 206.148019 
L 236.150942 215.018419 
L 234.588488 218.491657 
L 229.811062 223.888819 
L 224.008468 232.759219 
L 222.684488 234.987379 
L 216.140158 241.629619 
L 210.780488 249.412486 
L 209.623212 250.500019 
L 200.318586 259.370419 
L 198.876488 260.896653 
L 189.957628 268.240819 
L 186.972488 270.94807 
L 178.998959 277.111219 
" style="fill:none;stroke:#bade28;stroke-width:1.5;"/>
   </g>
   <g id="LineCollection_19">
    <path clip-path="url(#p7343b860a0)" d="M 114.692782 10.999219 
L 115.548488 11.623402 
L 127.452488 19.86527 
L 127.458422 19.869619 
L 139.356488 28.68635 
L 139.427593 28.740019 
L 150.795078 37.610419 
L 151.260488 37.973236 
L 160.522679 46.480819 
L 163.164488 48.608636 
L 167.811981 55.149157 
" style="fill:none;stroke:#dde318;stroke-width:1.5;"/>
    <path clip-path="url(#p7343b860a0)" d="M 183.774606 74.181157 
L 186.972488 76.90896 
L 189.689171 81.962419 
L 198.876488 89.824533 
L 199.632714 90.832819 
L 208.645502 99.703219 
L 210.780488 101.44703 
L 220.492395 108.573619 
L 222.684488 110.221445 
L 230.363435 117.444019 
L 234.588488 121.006937 
L 238.239135 126.314419 
L 245.05324 135.184819 
L 246.492488 136.973039 
L 248.172688 144.055219 
L 249.057535 152.925619 
L 250.395756 161.796019 
L 251.651781 170.666419 
L 251.276679 179.536819 
L 249.204887 188.407219 
L 247.065948 197.277619 
L 246.492488 199.453899 
L 241.314747 206.148019 
L 236.58566 215.018419 
L 234.588488 219.458008 
L 230.66645 223.888819 
L 224.44062 232.759219 
L 222.684488 235.714659 
L 216.856717 241.629619 
L 210.780488 250.453014 
L 210.730468 250.500019 
L 200.789903 259.370419 
L 198.876488 261.395468 
L 190.563395 268.240819 
L 186.972488 271.497446 
L 179.70971 277.111219 
" style="fill:none;stroke:#dde318;stroke-width:1.5;"/>
   </g>
   <g id="LineCollection_20">
    <path clip-path="url(#p7343b860a0)" d="M 115.565066 10.999219 
L 127.452488 19.731796 
L 127.640558 19.869619 
L 139.356488 28.551382 
L 139.60641 28.740019 
L 151.260488 37.540864 
L 151.345395 37.610419 
L 161.337237 46.480819 
L 163.164488 47.952559 
L 168.421748 55.351219 
L 175.068488 60.997838 
L 175.777713 62.894432 
" style="fill:none;stroke:#fde725;stroke-width:1.5;"/>
    <path clip-path="url(#p7343b860a0)" d="M 190.857523 82.732177 
L 198.876488 89.594466 
L 199.805267 90.832819 
L 209.375281 99.703219 
L 210.780488 100.850962 
L 221.304699 108.573619 
L 222.684488 109.610825 
L 231.012638 117.444019 
L 234.588488 120.459474 
L 238.615696 126.314419 
L 245.78721 135.184819 
L 246.492488 136.061104 
L 248.389039 144.055219 
L 249.301222 152.925619 
L 250.717415 161.796019 
L 252.081256 170.666419 
L 251.732849 179.536819 
L 249.562393 188.407219 
L 247.315577 197.277619 
L 246.492488 200.401243 
L 242.047495 206.148019 
L 237.020378 215.018419 
L 234.588488 220.424359 
L 231.521839 223.888819 
L 224.872771 232.759219 
L 222.684488 236.441938 
L 217.573276 241.629619 
L 211.097601 250.500019 
L 210.780488 250.900438 
L 201.261219 259.370419 
L 198.876488 261.894282 
L 191.169162 268.240819 
L 186.972488 272.046822 
L 180.420461 277.111219 
" style="fill:none;stroke:#fde725;stroke-width:1.5;"/>
   </g>
   <g id="LineCollection_21">
    <path clip-path="url(#p7343b860a0)" d="M 115.746761 10.999219 
L 127.452488 19.598322 
L 127.822695 19.869619 
L 139.356488 28.416415 
L 139.785226 28.740019 
L 151.260488 37.405827 
L 151.510239 37.610419 
L 162.151794 46.480819 
L 163.164488 47.296482 
L 168.887936 55.351219 
L 175.068488 60.601796 
L 176.422108 64.221619 
L 181.653941 70.624354 
" style="fill:none;stroke:#440154;stroke-width:1.5;"/>
    <path clip-path="url(#p7343b860a0)" d="M 200.865491 91.610325 
L 210.10506 99.703219 
L 210.780488 100.254894 
L 222.117003 108.573619 
L 222.684488 109.000204 
L 231.661842 117.444019 
L 234.588488 119.912012 
L 238.992258 126.314419 
L 246.492488 135.167443 
L 246.498763 135.184819 
L 248.605389 144.055219 
L 249.544909 152.925619 
L 251.039074 161.796019 
L 252.510731 170.666419 
L 252.18902 179.536819 
L 249.919899 188.407219 
L 247.565207 197.277619 
L 246.492488 201.348587 
L 242.780243 206.148019 
L 237.455096 215.018419 
L 234.588488 221.39071 
L 232.377227 223.888819 
L 225.304923 232.759219 
L 222.684488 237.169218 
L 218.289835 241.629619 
L 211.429717 250.500019 
L 210.780488 251.319803 
L 201.732535 259.370419 
L 198.876488 262.393096 
L 191.774929 268.240819 
L 186.972488 272.596198 
L 181.131212 277.111219 
" style="fill:none;stroke:#440154;stroke-width:1.5;"/>
   </g>
   <g id="LineCollection_22">
    <path clip-path="url(#p7343b860a0)" d="M 131.434656 10.999219 
L 139.356488 16.883521 
L 143.252899 19.869619 
L 151.260488 25.8508 
L 154.922957 28.740019 
L 163.164488 34.98961 
L 165.924161 37.610419 
L 175.068488 45.037127 
L 175.952758 46.480819 
L 182.017073 55.351219 
L 186.972488 59.984184 
L 189.156606 64.221619 
L 198.876488 73.01915 
L 198.929668 73.092019 
L 205.649205 81.962419 
L 210.308416 85.894863 
" style="fill:none;stroke:#440154;stroke-width:1.5;"/>
    <path clip-path="url(#p7343b860a0)" d="M 236.568213 104.515529 
L 241.742893 108.573619 
L 246.492488 112.604312 
L 250.228301 117.444019 
L 258.396488 125.630651 
L 258.788879 126.314419 
L 262.687031 135.184819 
L 264.137765 144.055219 
L 264.884176 152.925619 
L 266.809134 161.796019 
L 269.159369 170.666419 
L 270.300488 176.453662 
L 270.447855 179.536819 
L 270.31266 188.407219 
L 270.300488 188.52987 
L 267.126077 197.277619 
L 263.432349 206.148019 
L 260.320096 215.018419 
L 258.396488 221.28504 
L 256.604855 223.888819 
L 249.64158 232.759219 
L 246.492488 237.819914 
L 242.868841 241.629619 
L 235.5845 250.500019 
L 234.588488 251.811516 
L 226.518977 259.370419 
L 222.684488 264.058672 
L 217.929296 268.240819 
L 210.780488 275.901959 
L 209.33188 277.111219 
" style="fill:none;stroke:#440154;stroke-width:1.5;"/>
   </g>
   <g id="LineCollection_23">
    <path clip-path="url(#p7343b860a0)" d="M 151.658305 10.999219 
L 163.164488 19.688297 
L 163.374274 19.869619 
L 173.819726 28.740019 
L 175.068488 29.728933 
L 180.914083 37.610419 
L 186.972488 43.088871 
L 188.966193 46.480819 
L 197.652677 55.351219 
L 198.876488 56.483853 
L 204.236464 64.221619 
L 210.780488 69.892223 
L 213.751186 73.092019 
L 222.684488 80.356804 
L 224.738221 81.962419 
L 234.588488 88.948204 
L 239.636116 90.832819 
L 243.677877 93.344085 
" style="fill:none;stroke:#440154;stroke-width:1.5;"/>
    <path clip-path="url(#p7343b860a0)" d="M 270.747258 116.696194 
L 271.302915 117.444019 
L 277.860107 126.314419 
L 282.204488 131.345331 
L 283.72744 135.184819 
L 283.340976 144.055219 
L 283.493682 152.925619 
L 284.139688 161.796019 
L 284.796949 170.666419 
L 285.531676 179.536819 
L 286.150079 188.407219 
L 286.294633 197.277619 
L 285.516853 206.148019 
L 283.944743 215.018419 
L 282.204488 223.111437 
L 281.791776 223.888819 
L 276.155346 232.759219 
L 270.300488 241.545252 
L 270.21906 241.629619 
L 261.117773 250.500019 
L 258.396488 253.833706 
L 252.56276 259.370419 
L 246.492488 266.687087 
L 244.829677 268.240819 
L 235.969498 277.111219 
" style="fill:none;stroke:#440154;stroke-width:1.5;"/>
   </g>
   <g id="LineCollection_24">
    <path clip-path="url(#p7343b860a0)" d="M 171.953395 10.999219 
L 175.068488 13.426437 
L 180.918348 19.869619 
L 186.972488 25.059679 
L 189.513728 28.740019 
L 198.876488 37.360233 
L 199.04079 37.610419 
L 205.143304 46.480819 
L 210.780488 51.5801 
L 213.791282 55.351219 
L 222.684488 62.870741 
L 224.072839 64.221619 
L 234.588488 72.44728 
L 235.571226 73.092019 
L 246.492488 80.319325 
L 251.782673 81.962419 
L 258.396488 85.795902 
L 266.598636 90.832819 
L 270.300488 93.779571 
L 275.3396 99.703219 
L 279.65368 103.889393 
" style="fill:none;stroke:#440154;stroke-width:1.5;"/>
    <path clip-path="url(#p7343b860a0)" d="M 301.63025 135.61436 
L 300.170034 144.055219 
L 300.246634 152.925619 
L 301.156419 161.796019 
L 301.857778 170.666419 
L 302.806736 179.536819 
L 303.909564 188.407219 
L 304.929758 197.277619 
L 305.606897 206.148019 
L 305.641636 215.018419 
L 304.676771 223.888819 
L 302.674647 232.759219 
L 298.018835 241.629619 
L 294.108488 248.048314 
L 291.669992 250.500019 
L 283.565153 259.370419 
L 282.204488 261.032697 
L 274.50565 268.240819 
L 270.300488 273.06216 
L 265.89623 277.111219 
" style="fill:none;stroke:#440154;stroke-width:1.5;"/>
   </g>
   <g id="LineCollection_25">
    <path clip-path="url(#p7343b860a0)" d="M 190.847429 10.999219 
L 198.876488 18.148145 
L 200.073271 19.869619 
L 207.989159 28.740019 
L 210.780488 31.30395 
L 215.44591 37.610419 
L 222.684488 43.994369 
L 224.895425 46.480819 
L 234.588488 54.5355 
L 235.500339 55.351219 
L 246.492488 63.708928 
L 247.410073 64.221619 
L 258.396488 70.970279 
L 265.912774 73.092019 
L 270.300488 75.539982 
L 281.151597 81.962419 
L 282.204488 82.79011 
L 289.256996 90.832819 
L 294.108488 95.496793 
L 296.317946 99.703219 
L 297.089277 100.481952 
" style="fill:none;stroke:#440154;stroke-width:1.5;"/>
    <path clip-path="url(#p7343b860a0)" d="M 318.478519 136.68322 
L 318.15648 144.055219 
L 318.226528 152.925619 
L 318.532838 161.796019 
L 318.749851 170.666419 
L 319.049722 179.536819 
L 319.478427 188.407219 
L 319.923339 197.277619 
L 320.362153 206.148019 
L 320.760152 215.018419 
L 321.077905 223.888819 
L 321.225631 232.759219 
L 320.815524 241.629619 
L 318.578582 250.500019 
L 317.916488 252.452239 
L 312.214596 259.370419 
L 306.563569 268.240819 
L 306.012488 269.047648 
L 297.550957 277.111219 
" style="fill:none;stroke:#440154;stroke-width:1.5;"/>
   </g>
   <g id="LineCollection_26">
    <path clip-path="url(#p7343b860a0)" d="M 211.327023 10.999219 
L 218.744486 19.869619 
L 222.684488 23.415206 
L 227.033701 28.740019 
L 234.588488 35.254416 
L 236.893901 37.610419 
L 246.492488 45.38501 
L 247.908029 46.480819 
L 258.396488 54.123976 
L 260.922666 55.351219 
L 270.300488 60.747731 
L 282.204488 64.076106 
L 282.561757 64.221619 
L 294.108488 72.385256 
L 294.660389 73.092019 
L 301.734934 81.962419 
L 306.012488 86.224693 
L 307.842932 90.832819 
L 313.889148 99.703219 
L 316.529165 102.359658 
" style="fill:none;stroke:#450457;stroke-width:1.5;"/>
    <path clip-path="url(#p7343b860a0)" d="M 332.019359 144.532963 
L 332.364186 152.925619 
L 333.100601 161.796019 
L 333.690354 170.666419 
L 334.418757 179.536819 
L 335.500869 188.407219 
L 336.720644 197.277619 
L 337.947768 206.148019 
L 339.140313 215.018419 
L 340.252506 223.888819 
L 341.124686 232.759219 
L 341.724488 241.483222 
L 341.726905 241.629619 
L 341.724488 241.657499 
L 338.857868 250.500019 
L 335.130649 259.370419 
L 331.480604 268.240819 
L 329.820488 271.972536 
L 325.280458 277.111219 
" style="fill:none;stroke:#450457;stroke-width:1.5;"/>
   </g>
   <g id="LineCollection_27">
    <path clip-path="url(#p7343b860a0)" d="M 230.479504 10.999219 
L 234.588488 14.578192 
L 239.472881 19.869619 
L 246.492488 25.743984 
L 249.83541 28.740019 
L 258.396488 35.371905 
L 261.742665 37.610419 
L 270.300488 43.560066 
L 276.587173 46.480819 
L 282.204488 49.653607 
L 294.108488 54.434128 
L 295.649549 55.351219 
L 306.012488 63.842862 
L 306.232063 64.221619 
L 311.005489 73.092019 
L 317.916488 80.171671 
L 318.603625 81.962419 
L 322.808913 90.832819 
L 327.08008 95.349178 
" style="fill:none;stroke:#482475;stroke-width:1.5;"/>
    <path clip-path="url(#p7343b860a0)" d="M 347.499081 139.716719 
L 347.31619 144.055219 
L 348.335171 152.925619 
L 349.953991 161.796019 
L 351.4577 170.666419 
L 353.233171 179.536819 
L 353.628488 181.092773 
L 354.075726 188.407219 
L 354.765555 197.277619 
L 355.53598 206.148019 
L 356.343367 215.018419 
L 357.104234 223.888819 
L 357.741169 232.759219 
L 358.238066 241.629619 
L 357.983027 250.500019 
L 356.2657 259.370419 
L 354.350086 268.240819 
L 353.628488 270.643634 
L 349.067653 277.111219 
" style="fill:none;stroke:#482475;stroke-width:1.5;"/>
   </g>
   <g id="LineCollection_28">
    <path clip-path="url(#p7343b860a0)" d="M 252.129094 10.999219 
L 258.396488 16.037131 
L 263.238984 19.869619 
L 270.300488 25.060678 
L 276.185823 28.740019 
L 282.204488 32.848864 
L 290.844733 37.610419 
L 294.108488 39.640705 
L 306.012488 46.150989 
L 306.475929 46.480819 
L 314.914545 55.351219 
L 317.916488 58.224423 
L 320.658487 64.221619 
L 327.913908 73.092019 
L 329.820488 75.100535 
L 332.451489 81.962419 
L 339.451516 90.832819 
L 341.724488 93.187014 
L 342.594248 95.228064 
" style="fill:none;stroke:#fde725;stroke-width:1.5;"/>
    <path clip-path="url(#p7343b860a0)" d="M 365.587348 142.04481 
L 365.577784 144.055219 
L 366.043354 152.925619 
L 366.726267 161.796019 
L 367.459105 170.666419 
L 368.338274 179.536819 
L 369.60753 188.407219 
L 371.361194 197.277619 
L 373.458159 206.148019 
L 375.695673 215.018419 
L 377.436488 222.256392 
L 377.540925 223.888819 
L 377.98601 232.759219 
L 378.332316 241.629619 
L 378.675472 250.500019 
L 377.939148 259.370419 
L 377.436488 263.272889 
L 375.482952 268.240819 
L 370.727613 277.111219 
" style="fill:none;stroke:#fde725;stroke-width:1.5;"/>
   </g>
   <g id="line2d_20">
    <path clip-path="url(#p7343b860a0)" d="M 427.710987 191.527239 
L 420.732695 190.913073 
L 406.585009 189.491488 
L 392.660303 187.701155 
L 378.997113 185.75293 
L 365.584951 183.46276 
L 352.363618 180.825431 
L 339.449567 178.121849 
L 326.752751 175.246005 
L 314.264482 172.178773 
L 302.014789 169.049301 
L 289.955487 165.443406 
L 278.127719 161.779815 
L 266.511657 158.059774 
L 254.972906 153.521971 
L 243.816249 149.912178 
L 242.749128 149.824154 
L 241.66872 149.68954 
L 240.579603 149.505495 
L 239.499779 149.307705 
L 238.420705 149.094088 
L 237.341342 148.868117 
L 236.265089 148.636942 
L 235.189156 148.418123 
L 234.120772 148.181129 
L 233.054466 147.949863 
L 231.989814 147.71998 
L 230.930351 147.471979 
L 229.867207 147.240663 
L 228.805033 147.009412 
L 227.748911 146.769771 
L 226.693386 146.531884 
L 225.642247 146.318072 
L 224.592969 146.072347 
L 223.54938 145.841183 
L 222.504253 145.589784 
L 221.466158 145.356148 
L 220.424474 145.090488 
L 219.384679 144.874576 
L 218.349473 144.598694 
L 217.317166 144.371261 
L 217.215615 144.357492 
L 217.112618 144.342967 
L 217.008964 144.327851 
L 216.905504 144.31233 
L 216.802571 144.299424 
L 216.698301 144.285302 
L 216.595521 144.27188 
L 216.492765 144.259398 
L 216.389518 144.249307 
L 216.285988 144.23828 
L 216.183113 144.224133 
L 216.080565 144.208635 
L 215.977812 144.194933 
L 215.874398 144.181011 
L 215.771774 144.17045 
L 215.669235 144.156072 
L 215.567324 144.142423 
L 215.464544 144.132236 
L 215.361945 144.122923 
L 215.258928 144.112418 
L 215.156497 144.097406 
L 215.0543 144.084806 
L 214.952667 144.073903 
L 214.850478 144.065578 
" style="fill:none;stroke:#1f77b4;stroke-linecap:square;stroke-width:1.5;"/>
    <defs>
     <path d="M 0 1.5 
C 0.397805 1.5 0.77937 1.341951 1.06066 1.06066 
C 1.341951 0.77937 1.5 0.397805 1.5 0 
C 1.5 -0.397805 1.341951 -0.77937 1.06066 -1.06066 
C 0.77937 -1.341951 0.397805 -1.5 0 -1.5 
C -0.397805 -1.5 -0.77937 -1.341951 -1.06066 -1.06066 
C -1.341951 -0.77937 -1.5 -0.397805 -1.5 0 
C -1.5 0.397805 -1.341951 0.77937 -1.06066 1.06066 
C -0.77937 1.341951 -0.397805 1.5 0 1.5 
z
" id="m0c68d57dfc" style="stroke:#1f77b4;"/>
    </defs>
    <g clip-path="url(#p7343b860a0)">
     <use style="fill:#1f77b4;stroke:#1f77b4;" x="1107.082277" xlink:href="#m0c68d57dfc" y="113.520392"/>
     <use style="fill:#1f77b4;stroke:#1f77b4;" x="1083.816413" xlink:href="#m0c68d57dfc" y="116.365699"/>
     <use style="fill:#1f77b4;stroke:#1f77b4;" x="1058.575511" xlink:href="#m0c68d57dfc" y="119.283105"/>
     <use style="fill:#1f77b4;stroke:#1f77b4;" x="1033.671552" xlink:href="#m0c68d57dfc" y="122.33342"/>
     <use style="fill:#1f77b4;stroke:#1f77b4;" x="1009.162661" xlink:href="#m0c68d57dfc" y="125.618575"/>
     <use style="fill:#1f77b4;stroke:#1f77b4;" x="985.046296" xlink:href="#m0c68d57dfc" y="129.07097"/>
     <use style="fill:#1f77b4;stroke:#1f77b4;" x="961.325423" xlink:href="#m0c68d57dfc" y="132.559212"/>
     <use style="fill:#1f77b4;stroke:#1f77b4;" x="937.976913" xlink:href="#m0c68d57dfc" y="136.379482"/>
     <use style="fill:#1f77b4;stroke:#1f77b4;" x="915.010515" xlink:href="#m0c68d57dfc" y="140.071568"/>
     <use style="fill:#1f77b4;stroke:#1f77b4;" x="892.418599" xlink:href="#m0c68d57dfc" y="143.745258"/>
     <use style="fill:#1f77b4;stroke:#1f77b4;" x="870.167441" xlink:href="#m0c68d57dfc" y="147.722155"/>
     <use style="fill:#1f77b4;stroke:#1f77b4;" x="848.262792" xlink:href="#m0c68d57dfc" y="151.557999"/>
     <use style="fill:#1f77b4;stroke:#1f77b4;" x="826.737409" xlink:href="#m0c68d57dfc" y="155.258235"/>
     <use style="fill:#1f77b4;stroke:#1f77b4;" x="805.57555" xlink:href="#m0c68d57dfc" y="158.817917"/>
     <use style="fill:#1f77b4;stroke:#1f77b4;" x="784.714972" xlink:href="#m0c68d57dfc" y="162.488907"/>
     <use style="fill:#1f77b4;stroke:#1f77b4;" x="764.22046" xlink:href="#m0c68d57dfc" y="166.017681"/>
     <use style="fill:#1f77b4;stroke:#1f77b4;" x="744.078271" xlink:href="#m0c68d57dfc" y="169.292672"/>
     <use style="fill:#1f77b4;stroke:#1f77b4;" x="724.267939" xlink:href="#m0c68d57dfc" y="172.425781"/>
     <use style="fill:#1f77b4;stroke:#1f77b4;" x="704.781684" xlink:href="#m0c68d57dfc" y="175.455913"/>
     <use style="fill:#1f77b4;stroke:#1f77b4;" x="685.670154" xlink:href="#m0c68d57dfc" y="178.193943"/>
     <use style="fill:#1f77b4;stroke:#1f77b4;" x="666.849006" xlink:href="#m0c68d57dfc" y="180.856361"/>
     <use style="fill:#1f77b4;stroke:#1f77b4;" x="648.360321" xlink:href="#m0c68d57dfc" y="183.184057"/>
     <use style="fill:#1f77b4;stroke:#1f77b4;" x="630.199074" xlink:href="#m0c68d57dfc" y="185.351053"/>
     <use style="fill:#1f77b4;stroke:#1f77b4;" x="612.342984" xlink:href="#m0c68d57dfc" y="187.287665"/>
     <use style="fill:#1f77b4;stroke:#1f77b4;" x="594.778365" xlink:href="#m0c68d57dfc" y="189.019491"/>
     <use style="fill:#1f77b4;stroke:#1f77b4;" x="577.514302" xlink:href="#m0c68d57dfc" y="190.593242"/>
     <use style="fill:#1f77b4;stroke:#1f77b4;" x="560.598655" xlink:href="#m0c68d57dfc" y="191.688289"/>
     <use style="fill:#1f77b4;stroke:#1f77b4;" x="543.920746" xlink:href="#m0c68d57dfc" y="192.584991"/>
     <use style="fill:#1f77b4;stroke:#1f77b4;" x="527.500888" xlink:href="#m0c68d57dfc" y="193.298943"/>
     <use style="fill:#1f77b4;stroke:#1f77b4;" x="511.435592" xlink:href="#m0c68d57dfc" y="193.831962"/>
     <use style="fill:#1f77b4;stroke:#1f77b4;" x="495.593654" xlink:href="#m0c68d57dfc" y="194.016641"/>
     <use style="fill:#1f77b4;stroke:#1f77b4;" x="480.085873" xlink:href="#m0c68d57dfc" y="193.842558"/>
     <use style="fill:#1f77b4;stroke:#1f77b4;" x="464.842683" xlink:href="#m0c68d57dfc" y="193.676713"/>
     <use style="fill:#1f77b4;stroke:#1f77b4;" x="449.863583" xlink:href="#m0c68d57dfc" y="193.214042"/>
     <use style="fill:#1f77b4;stroke:#1f77b4;" x="435.193166" xlink:href="#m0c68d57dfc" y="192.185753"/>
     <use style="fill:#1f77b4;stroke:#1f77b4;" x="420.732695" xlink:href="#m0c68d57dfc" y="190.913073"/>
     <use style="fill:#1f77b4;stroke:#1f77b4;" x="406.585009" xlink:href="#m0c68d57dfc" y="189.491488"/>
     <use style="fill:#1f77b4;stroke:#1f77b4;" x="392.660303" xlink:href="#m0c68d57dfc" y="187.701155"/>
     <use style="fill:#1f77b4;stroke:#1f77b4;" x="378.997113" xlink:href="#m0c68d57dfc" y="185.75293"/>
     <use style="fill:#1f77b4;stroke:#1f77b4;" x="365.584951" xlink:href="#m0c68d57dfc" y="183.46276"/>
     <use style="fill:#1f77b4;stroke:#1f77b4;" x="352.363618" xlink:href="#m0c68d57dfc" y="180.825431"/>
     <use style="fill:#1f77b4;stroke:#1f77b4;" x="339.449567" xlink:href="#m0c68d57dfc" y="178.121849"/>
     <use style="fill:#1f77b4;stroke:#1f77b4;" x="326.752751" xlink:href="#m0c68d57dfc" y="175.246005"/>
     <use style="fill:#1f77b4;stroke:#1f77b4;" x="314.264482" xlink:href="#m0c68d57dfc" y="172.178773"/>
     <use style="fill:#1f77b4;stroke:#1f77b4;" x="302.014789" xlink:href="#m0c68d57dfc" y="169.049301"/>
     <use style="fill:#1f77b4;stroke:#1f77b4;" x="289.955487" xlink:href="#m0c68d57dfc" y="165.443406"/>
     <use style="fill:#1f77b4;stroke:#1f77b4;" x="278.127719" xlink:href="#m0c68d57dfc" y="161.779815"/>
     <use style="fill:#1f77b4;stroke:#1f77b4;" x="266.511657" xlink:href="#m0c68d57dfc" y="158.059774"/>
     <use style="fill:#1f77b4;stroke:#1f77b4;" x="254.972906" xlink:href="#m0c68d57dfc" y="153.521971"/>
     <use style="fill:#1f77b4;stroke:#1f77b4;" x="243.816249" xlink:href="#m0c68d57dfc" y="149.912178"/>
     <use style="fill:#1f77b4;stroke:#1f77b4;" x="242.749128" xlink:href="#m0c68d57dfc" y="149.824154"/>
     <use style="fill:#1f77b4;stroke:#1f77b4;" x="241.66872" xlink:href="#m0c68d57dfc" y="149.68954"/>
     <use style="fill:#1f77b4;stroke:#1f77b4;" x="240.579603" xlink:href="#m0c68d57dfc" y="149.505495"/>
     <use style="fill:#1f77b4;stroke:#1f77b4;" x="239.499779" xlink:href="#m0c68d57dfc" y="149.307705"/>
     <use style="fill:#1f77b4;stroke:#1f77b4;" x="238.420705" xlink:href="#m0c68d57dfc" y="149.094088"/>
     <use style="fill:#1f77b4;stroke:#1f77b4;" x="237.341342" xlink:href="#m0c68d57dfc" y="148.868117"/>
     <use style="fill:#1f77b4;stroke:#1f77b4;" x="236.265089" xlink:href="#m0c68d57dfc" y="148.636942"/>
     <use style="fill:#1f77b4;stroke:#1f77b4;" x="235.189156" xlink:href="#m0c68d57dfc" y="148.418123"/>
     <use style="fill:#1f77b4;stroke:#1f77b4;" x="234.120772" xlink:href="#m0c68d57dfc" y="148.181129"/>
     <use style="fill:#1f77b4;stroke:#1f77b4;" x="233.054466" xlink:href="#m0c68d57dfc" y="147.949863"/>
     <use style="fill:#1f77b4;stroke:#1f77b4;" x="231.989814" xlink:href="#m0c68d57dfc" y="147.71998"/>
     <use style="fill:#1f77b4;stroke:#1f77b4;" x="230.930351" xlink:href="#m0c68d57dfc" y="147.471979"/>
     <use style="fill:#1f77b4;stroke:#1f77b4;" x="229.867207" xlink:href="#m0c68d57dfc" y="147.240663"/>
     <use style="fill:#1f77b4;stroke:#1f77b4;" x="228.805033" xlink:href="#m0c68d57dfc" y="147.009412"/>
     <use style="fill:#1f77b4;stroke:#1f77b4;" x="227.748911" xlink:href="#m0c68d57dfc" y="146.769771"/>
     <use style="fill:#1f77b4;stroke:#1f77b4;" x="226.693386" xlink:href="#m0c68d57dfc" y="146.531884"/>
     <use style="fill:#1f77b4;stroke:#1f77b4;" x="225.642247" xlink:href="#m0c68d57dfc" y="146.318072"/>
     <use style="fill:#1f77b4;stroke:#1f77b4;" x="224.592969" xlink:href="#m0c68d57dfc" y="146.072347"/>
     <use style="fill:#1f77b4;stroke:#1f77b4;" x="223.54938" xlink:href="#m0c68d57dfc" y="145.841183"/>
     <use style="fill:#1f77b4;stroke:#1f77b4;" x="222.504253" xlink:href="#m0c68d57dfc" y="145.589784"/>
     <use style="fill:#1f77b4;stroke:#1f77b4;" x="221.466158" xlink:href="#m0c68d57dfc" y="145.356148"/>
     <use style="fill:#1f77b4;stroke:#1f77b4;" x="220.424474" xlink:href="#m0c68d57dfc" y="145.090488"/>
     <use style="fill:#1f77b4;stroke:#1f77b4;" x="219.384679" xlink:href="#m0c68d57dfc" y="144.874576"/>
     <use style="fill:#1f77b4;stroke:#1f77b4;" x="218.349473" xlink:href="#m0c68d57dfc" y="144.598694"/>
     <use style="fill:#1f77b4;stroke:#1f77b4;" x="217.317166" xlink:href="#m0c68d57dfc" y="144.371261"/>
     <use style="fill:#1f77b4;stroke:#1f77b4;" x="217.215615" xlink:href="#m0c68d57dfc" y="144.357492"/>
     <use style="fill:#1f77b4;stroke:#1f77b4;" x="217.112618" xlink:href="#m0c68d57dfc" y="144.342967"/>
     <use style="fill:#1f77b4;stroke:#1f77b4;" x="217.008964" xlink:href="#m0c68d57dfc" y="144.327851"/>
     <use style="fill:#1f77b4;stroke:#1f77b4;" x="216.905504" xlink:href="#m0c68d57dfc" y="144.31233"/>
     <use style="fill:#1f77b4;stroke:#1f77b4;" x="216.802571" xlink:href="#m0c68d57dfc" y="144.299424"/>
     <use style="fill:#1f77b4;stroke:#1f77b4;" x="216.698301" xlink:href="#m0c68d57dfc" y="144.285302"/>
     <use style="fill:#1f77b4;stroke:#1f77b4;" x="216.595521" xlink:href="#m0c68d57dfc" y="144.27188"/>
     <use style="fill:#1f77b4;stroke:#1f77b4;" x="216.492765" xlink:href="#m0c68d57dfc" y="144.259398"/>
     <use style="fill:#1f77b4;stroke:#1f77b4;" x="216.389518" xlink:href="#m0c68d57dfc" y="144.249307"/>
     <use style="fill:#1f77b4;stroke:#1f77b4;" x="216.285988" xlink:href="#m0c68d57dfc" y="144.23828"/>
     <use style="fill:#1f77b4;stroke:#1f77b4;" x="216.183113" xlink:href="#m0c68d57dfc" y="144.224133"/>
     <use style="fill:#1f77b4;stroke:#1f77b4;" x="216.080565" xlink:href="#m0c68d57dfc" y="144.208635"/>
     <use style="fill:#1f77b4;stroke:#1f77b4;" x="215.977812" xlink:href="#m0c68d57dfc" y="144.194933"/>
     <use style="fill:#1f77b4;stroke:#1f77b4;" x="215.874398" xlink:href="#m0c68d57dfc" y="144.181011"/>
     <use style="fill:#1f77b4;stroke:#1f77b4;" x="215.771774" xlink:href="#m0c68d57dfc" y="144.17045"/>
     <use style="fill:#1f77b4;stroke:#1f77b4;" x="215.669235" xlink:href="#m0c68d57dfc" y="144.156072"/>
     <use style="fill:#1f77b4;stroke:#1f77b4;" x="215.567324" xlink:href="#m0c68d57dfc" y="144.142423"/>
     <use style="fill:#1f77b4;stroke:#1f77b4;" x="215.464544" xlink:href="#m0c68d57dfc" y="144.132236"/>
     <use style="fill:#1f77b4;stroke:#1f77b4;" x="215.361945" xlink:href="#m0c68d57dfc" y="144.122923"/>
     <use style="fill:#1f77b4;stroke:#1f77b4;" x="215.258928" xlink:href="#m0c68d57dfc" y="144.112418"/>
     <use style="fill:#1f77b4;stroke:#1f77b4;" x="215.156497" xlink:href="#m0c68d57dfc" y="144.097406"/>
     <use style="fill:#1f77b4;stroke:#1f77b4;" x="215.0543" xlink:href="#m0c68d57dfc" y="144.084806"/>
     <use style="fill:#1f77b4;stroke:#1f77b4;" x="214.952667" xlink:href="#m0c68d57dfc" y="144.073903"/>
     <use style="fill:#1f77b4;stroke:#1f77b4;" x="214.850478" xlink:href="#m0c68d57dfc" y="144.065578"/>
    </g>
   </g>
   <g id="patch_3">
    <path d="M 56.028488 277.111219 
L 56.028488 10.999219 
" style="fill:none;stroke:#000000;stroke-linecap:square;stroke-linejoin:miter;stroke-width:0.8;"/>
   </g>
   <g id="patch_4">
    <path d="M 413.148488 277.111219 
L 413.148488 10.999219 
" style="fill:none;stroke:#000000;stroke-linecap:square;stroke-linejoin:miter;stroke-width:0.8;"/>
   </g>
   <g id="patch_5">
    <path d="M 56.028488 277.111219 
L 413.148488 277.111219 
" style="fill:none;stroke:#000000;stroke-linecap:square;stroke-linejoin:miter;stroke-width:0.8;"/>
   </g>
   <g id="patch_6">
    <path d="M 56.028488 10.999219 
L 413.148488 10.999219 
" style="fill:none;stroke:#000000;stroke-linecap:square;stroke-linejoin:miter;stroke-width:0.8;"/>
   </g>
   <g id="text_22">
    <g clip-path="url(#p7343b860a0)">
     <!-- 1.000 -->
     <g style="fill:#482576;" transform="translate(202.104318 120.28312)rotate(-341.814687)scale(0.06 -0.06)">
      <use xlink:href="#DejaVuSans-49"/>
      <use x="63.623047" xlink:href="#DejaVuSans-46"/>
      <use x="95.410156" xlink:href="#DejaVuSans-48"/>
      <use x="159.033203" xlink:href="#DejaVuSans-48"/>
      <use x="222.65625" xlink:href="#DejaVuSans-48"/>
     </g>
    </g>
   </g>
   <g id="text_23">
    <g clip-path="url(#p7343b860a0)">
     <!-- 1.500 -->
     <g style="fill:#453781;" transform="translate(185.564087 134.936922)rotate(-88.750314)scale(0.06 -0.06)">
      <use xlink:href="#DejaVuSans-49"/>
      <use x="63.623047" xlink:href="#DejaVuSans-46"/>
      <use x="95.410156" xlink:href="#DejaVuSans-53"/>
      <use x="159.033203" xlink:href="#DejaVuSans-48"/>
      <use x="222.65625" xlink:href="#DejaVuSans-48"/>
     </g>
    </g>
   </g>
   <g id="text_24">
    <g clip-path="url(#p7343b860a0)">
     <!-- 2.000 -->
     <g style="fill:#404688;" transform="translate(168.770739 179.319426)rotate(-87.476366)scale(0.06 -0.06)">
      <use xlink:href="#DejaVuSans-50"/>
      <use x="63.623047" xlink:href="#DejaVuSans-46"/>
      <use x="95.410156" xlink:href="#DejaVuSans-48"/>
      <use x="159.033203" xlink:href="#DejaVuSans-48"/>
      <use x="222.65625" xlink:href="#DejaVuSans-48"/>
     </g>
    </g>
   </g>
   <g id="text_25">
    <g clip-path="url(#p7343b860a0)">
     <!-- 2.500 -->
     <g style="fill:#39558c;" transform="translate(107.611792 276.501484)rotate(-13.939228)scale(0.06 -0.06)">
      <use xlink:href="#DejaVuSans-50"/>
      <use x="63.623047" xlink:href="#DejaVuSans-46"/>
      <use x="95.410156" xlink:href="#DejaVuSans-53"/>
      <use x="159.033203" xlink:href="#DejaVuSans-48"/>
      <use x="222.65625" xlink:href="#DejaVuSans-48"/>
     </g>
    </g>
   </g>
   <g id="text_26">
    <g clip-path="url(#p7343b860a0)">
     <!-- 2.500 -->
     <g style="fill:#39558c;" transform="translate(120.925793 214.705651)rotate(-67.158345)scale(0.06 -0.06)">
      <use xlink:href="#DejaVuSans-50"/>
      <use x="63.623047" xlink:href="#DejaVuSans-46"/>
      <use x="95.410156" xlink:href="#DejaVuSans-53"/>
      <use x="159.033203" xlink:href="#DejaVuSans-48"/>
      <use x="222.65625" xlink:href="#DejaVuSans-48"/>
     </g>
    </g>
   </g>
   <g id="text_27">
    <g clip-path="url(#p7343b860a0)">
     <!-- 2.500 -->
     <g style="fill:#39558c;" transform="translate(155.775616 59.087593)rotate(-316.736493)scale(0.06 -0.06)">
      <use xlink:href="#DejaVuSans-50"/>
      <use x="63.623047" xlink:href="#DejaVuSans-46"/>
      <use x="95.410156" xlink:href="#DejaVuSans-53"/>
      <use x="159.033203" xlink:href="#DejaVuSans-48"/>
      <use x="222.65625" xlink:href="#DejaVuSans-48"/>
     </g>
    </g>
   </g>
   <g id="text_28">
    <g clip-path="url(#p7343b860a0)">
     <!-- 3.000 -->
     <g style="fill:#33638d;" transform="translate(223.905158 214.251449)rotate(-56.979836)scale(0.06 -0.06)">
      <defs>
       <path d="M 40.578125 39.3125 
Q 47.65625 37.796875 51.625 33 
Q 55.609375 28.21875 55.609375 21.1875 
Q 55.609375 10.40625 48.1875 4.484375 
Q 40.765625 -1.421875 27.09375 -1.421875 
Q 22.515625 -1.421875 17.65625 -0.515625 
Q 12.796875 0.390625 7.625 2.203125 
L 7.625 11.71875 
Q 11.71875 9.328125 16.59375 8.109375 
Q 21.484375 6.890625 26.8125 6.890625 
Q 36.078125 6.890625 40.9375 10.546875 
Q 45.796875 14.203125 45.796875 21.1875 
Q 45.796875 27.640625 41.28125 31.265625 
Q 36.765625 34.90625 28.71875 34.90625 
L 20.21875 34.90625 
L 20.21875 43.015625 
L 29.109375 43.015625 
Q 36.375 43.015625 40.234375 45.921875 
Q 44.09375 48.828125 44.09375 54.296875 
Q 44.09375 59.90625 40.109375 62.90625 
Q 36.140625 65.921875 28.71875 65.921875 
Q 24.65625 65.921875 20.015625 65.03125 
Q 15.375 64.15625 9.8125 62.3125 
L 9.8125 71.09375 
Q 15.4375 72.65625 20.34375 73.4375 
Q 25.25 74.21875 29.59375 74.21875 
Q 40.828125 74.21875 47.359375 69.109375 
Q 53.90625 64.015625 53.90625 55.328125 
Q 53.90625 49.265625 50.4375 45.09375 
Q 46.96875 40.921875 40.578125 39.3125 
z
" id="DejaVuSans-51"/>
      </defs>
      <use xlink:href="#DejaVuSans-51"/>
      <use x="63.623047" xlink:href="#DejaVuSans-46"/>
      <use x="95.410156" xlink:href="#DejaVuSans-48"/>
      <use x="159.033203" xlink:href="#DejaVuSans-48"/>
      <use x="222.65625" xlink:href="#DejaVuSans-48"/>
     </g>
    </g>
   </g>
   <g id="text_29">
    <g clip-path="url(#p7343b860a0)">
     <!-- 3.500 -->
     <g style="fill:#2d718e;" transform="translate(167.969312 65.301827)rotate(-313.346495)scale(0.06 -0.06)">
      <use xlink:href="#DejaVuSans-51"/>
      <use x="63.623047" xlink:href="#DejaVuSans-46"/>
      <use x="95.410156" xlink:href="#DejaVuSans-53"/>
      <use x="159.033203" xlink:href="#DejaVuSans-48"/>
      <use x="222.65625" xlink:href="#DejaVuSans-48"/>
     </g>
    </g>
   </g>
   <g id="text_30">
    <g clip-path="url(#p7343b860a0)">
     <!-- 4.000 -->
     <g style="fill:#287d8e;" transform="translate(168.151647 63.45409)rotate(-311.349691)scale(0.06 -0.06)">
      <defs>
       <path d="M 37.796875 64.3125 
L 12.890625 25.390625 
L 37.796875 25.390625 
z
M 35.203125 72.90625 
L 47.609375 72.90625 
L 47.609375 25.390625 
L 58.015625 25.390625 
L 58.015625 17.1875 
L 47.609375 17.1875 
L 47.609375 0 
L 37.796875 0 
L 37.796875 17.1875 
L 4.890625 17.1875 
L 4.890625 26.703125 
z
" id="DejaVuSans-52"/>
      </defs>
      <use xlink:href="#DejaVuSans-52"/>
      <use x="63.623047" xlink:href="#DejaVuSans-46"/>
      <use x="95.410156" xlink:href="#DejaVuSans-48"/>
      <use x="159.033203" xlink:href="#DejaVuSans-48"/>
      <use x="222.65625" xlink:href="#DejaVuSans-48"/>
     </g>
    </g>
   </g>
   <g id="text_31">
    <g clip-path="url(#p7343b860a0)">
     <!-- 4.500 -->
     <g style="fill:#238a8d;" transform="translate(168.514262 61.412326)rotate(-307.622723)scale(0.06 -0.06)">
      <use xlink:href="#DejaVuSans-52"/>
      <use x="63.623047" xlink:href="#DejaVuSans-46"/>
      <use x="95.410156" xlink:href="#DejaVuSans-53"/>
      <use x="159.033203" xlink:href="#DejaVuSans-48"/>
      <use x="222.65625" xlink:href="#DejaVuSans-48"/>
     </g>
    </g>
   </g>
   <g id="text_32">
    <g clip-path="url(#p7343b860a0)">
     <!-- 5.000 -->
     <g style="fill:#1f968b;" transform="translate(168.754744 59.547592)rotate(-305.296511)scale(0.06 -0.06)">
      <use xlink:href="#DejaVuSans-53"/>
      <use x="63.623047" xlink:href="#DejaVuSans-46"/>
      <use x="95.410156" xlink:href="#DejaVuSans-48"/>
      <use x="159.033203" xlink:href="#DejaVuSans-48"/>
      <use x="222.65625" xlink:href="#DejaVuSans-48"/>
     </g>
    </g>
   </g>
   <g id="text_33">
    <g clip-path="url(#p7343b860a0)">
     <!-- 5.500 -->
     <g style="fill:#20a386;" transform="translate(168.812858 58.129852)rotate(-304.943812)scale(0.06 -0.06)">
      <use xlink:href="#DejaVuSans-53"/>
      <use x="63.623047" xlink:href="#DejaVuSans-46"/>
      <use x="95.410156" xlink:href="#DejaVuSans-53"/>
      <use x="159.033203" xlink:href="#DejaVuSans-48"/>
      <use x="222.65625" xlink:href="#DejaVuSans-48"/>
     </g>
    </g>
   </g>
   <g id="text_34">
    <g clip-path="url(#p7343b860a0)">
     <!-- 6.000 -->
     <g style="fill:#29af7f;" transform="translate(168.905252 58.187775)rotate(-305.470241)scale(0.06 -0.06)">
      <defs>
       <path d="M 33.015625 40.375 
Q 26.375 40.375 22.484375 35.828125 
Q 18.609375 31.296875 18.609375 23.390625 
Q 18.609375 15.53125 22.484375 10.953125 
Q 26.375 6.390625 33.015625 6.390625 
Q 39.65625 6.390625 43.53125 10.953125 
Q 47.40625 15.53125 47.40625 23.390625 
Q 47.40625 31.296875 43.53125 35.828125 
Q 39.65625 40.375 33.015625 40.375 
z
M 52.59375 71.296875 
L 52.59375 62.3125 
Q 48.875 64.0625 45.09375 64.984375 
Q 41.3125 65.921875 37.59375 65.921875 
Q 27.828125 65.921875 22.671875 59.328125 
Q 17.53125 52.734375 16.796875 39.40625 
Q 19.671875 43.65625 24.015625 45.921875 
Q 28.375 48.1875 33.59375 48.1875 
Q 44.578125 48.1875 50.953125 41.515625 
Q 57.328125 34.859375 57.328125 23.390625 
Q 57.328125 12.15625 50.6875 5.359375 
Q 44.046875 -1.421875 33.015625 -1.421875 
Q 20.359375 -1.421875 13.671875 8.265625 
Q 6.984375 17.96875 6.984375 36.375 
Q 6.984375 53.65625 15.1875 63.9375 
Q 23.390625 74.21875 37.203125 74.21875 
Q 40.921875 74.21875 44.703125 73.484375 
Q 48.484375 72.75 52.59375 71.296875 
z
" id="DejaVuSans-54"/>
      </defs>
      <use xlink:href="#DejaVuSans-54"/>
      <use x="63.623047" xlink:href="#DejaVuSans-46"/>
      <use x="95.410156" xlink:href="#DejaVuSans-48"/>
      <use x="159.033203" xlink:href="#DejaVuSans-48"/>
      <use x="222.65625" xlink:href="#DejaVuSans-48"/>
     </g>
    </g>
   </g>
   <g id="text_35">
    <g clip-path="url(#p7343b860a0)">
     <!-- 6.500 -->
     <g style="fill:#3dbc74;" transform="translate(169.001935 58.242197)rotate(-305.960679)scale(0.06 -0.06)">
      <use xlink:href="#DejaVuSans-54"/>
      <use x="63.623047" xlink:href="#DejaVuSans-46"/>
      <use x="95.410156" xlink:href="#DejaVuSans-53"/>
      <use x="159.033203" xlink:href="#DejaVuSans-48"/>
      <use x="222.65625" xlink:href="#DejaVuSans-48"/>
     </g>
    </g>
   </g>
   <g id="text_36">
    <g clip-path="url(#p7343b860a0)">
     <!-- 7.000 -->
     <g style="fill:#56c667;" transform="translate(169.103105 58.292694)rotate(-306.412263)scale(0.06 -0.06)">
      <defs>
       <path d="M 8.203125 72.90625 
L 55.078125 72.90625 
L 55.078125 68.703125 
L 28.609375 0 
L 18.3125 0 
L 43.21875 64.59375 
L 8.203125 64.59375 
z
" id="DejaVuSans-55"/>
      </defs>
      <use xlink:href="#DejaVuSans-55"/>
      <use x="63.623047" xlink:href="#DejaVuSans-46"/>
      <use x="95.410156" xlink:href="#DejaVuSans-48"/>
      <use x="159.033203" xlink:href="#DejaVuSans-48"/>
      <use x="222.65625" xlink:href="#DejaVuSans-48"/>
     </g>
    </g>
   </g>
   <g id="text_37">
    <g clip-path="url(#p7343b860a0)">
     <!-- 7.500 -->
     <g style="fill:#75d054;" transform="translate(169.208876 58.338933)rotate(-306.822903)scale(0.06 -0.06)">
      <use xlink:href="#DejaVuSans-55"/>
      <use x="63.623047" xlink:href="#DejaVuSans-46"/>
      <use x="95.410156" xlink:href="#DejaVuSans-53"/>
      <use x="159.033203" xlink:href="#DejaVuSans-48"/>
      <use x="222.65625" xlink:href="#DejaVuSans-48"/>
     </g>
    </g>
   </g>
   <g id="text_38">
    <g clip-path="url(#p7343b860a0)">
     <!-- 8.000 -->
     <g style="fill:#95d840;" transform="translate(169.319293 58.380662)rotate(-307.191212)scale(0.06 -0.06)">
      <use xlink:href="#DejaVuSans-56"/>
      <use x="63.623047" xlink:href="#DejaVuSans-46"/>
      <use x="95.410156" xlink:href="#DejaVuSans-48"/>
      <use x="159.033203" xlink:href="#DejaVuSans-48"/>
      <use x="222.65625" xlink:href="#DejaVuSans-48"/>
     </g>
    </g>
   </g>
   <g id="text_39">
    <g clip-path="url(#p7343b860a0)">
     <!-- 8.500 -->
     <g style="fill:#bade28;" transform="translate(169.434345 58.417708)rotate(-307.516411)scale(0.06 -0.06)">
      <use xlink:href="#DejaVuSans-56"/>
      <use x="63.623047" xlink:href="#DejaVuSans-46"/>
      <use x="95.410156" xlink:href="#DejaVuSans-53"/>
      <use x="159.033203" xlink:href="#DejaVuSans-48"/>
      <use x="222.65625" xlink:href="#DejaVuSans-48"/>
     </g>
    </g>
   </g>
   <g id="text_40">
    <g clip-path="url(#p7343b860a0)">
     <!-- 9.000 -->
     <g style="fill:#dde318;" transform="translate(169.553974 58.449964)rotate(-307.798242)scale(0.06 -0.06)">
      <use xlink:href="#DejaVuSans-57"/>
      <use x="63.623047" xlink:href="#DejaVuSans-46"/>
      <use x="95.410156" xlink:href="#DejaVuSans-48"/>
      <use x="159.033203" xlink:href="#DejaVuSans-48"/>
      <use x="222.65625" xlink:href="#DejaVuSans-48"/>
     </g>
    </g>
   </g>
   <g id="text_41">
    <g clip-path="url(#p7343b860a0)">
     <!-- 9.500 -->
     <g style="fill:#fde725;" transform="translate(176.399912 67.450691)rotate(-308.924805)scale(0.06 -0.06)">
      <use xlink:href="#DejaVuSans-57"/>
      <use x="63.623047" xlink:href="#DejaVuSans-46"/>
      <use x="95.410156" xlink:href="#DejaVuSans-53"/>
      <use x="159.033203" xlink:href="#DejaVuSans-48"/>
      <use x="222.65625" xlink:href="#DejaVuSans-48"/>
     </g>
    </g>
   </g>
   <g id="text_42">
    <g clip-path="url(#p7343b860a0)">
     <!-- 10.000 -->
     <g style="fill:#440154;" transform="translate(181.884502 75.379331)rotate(-312.759577)scale(0.06 -0.06)">
      <use xlink:href="#DejaVuSans-49"/>
      <use x="63.623047" xlink:href="#DejaVuSans-48"/>
      <use x="127.246094" xlink:href="#DejaVuSans-46"/>
      <use x="159.033203" xlink:href="#DejaVuSans-48"/>
      <use x="222.65625" xlink:href="#DejaVuSans-48"/>
      <use x="286.279297" xlink:href="#DejaVuSans-48"/>
     </g>
    </g>
   </g>
   <g id="text_43">
    <g clip-path="url(#p7343b860a0)">
     <!-- 100.000 -->
     <g style="fill:#440154;" transform="translate(211.468102 90.753851)rotate(-326.057551)scale(0.06 -0.06)">
      <use xlink:href="#DejaVuSans-49"/>
      <use x="63.623047" xlink:href="#DejaVuSans-48"/>
      <use x="127.246094" xlink:href="#DejaVuSans-48"/>
      <use x="190.869141" xlink:href="#DejaVuSans-46"/>
      <use x="222.65625" xlink:href="#DejaVuSans-48"/>
      <use x="286.279297" xlink:href="#DejaVuSans-48"/>
      <use x="349.902344" xlink:href="#DejaVuSans-48"/>
     </g>
    </g>
   </g>
   <g id="text_44">
    <g clip-path="url(#p7343b860a0)">
     <!-- 1000.000 -->
     <g style="fill:#440154;" transform="translate(246.549845 95.456382)rotate(-318.698716)scale(0.06 -0.06)">
      <use xlink:href="#DejaVuSans-49"/>
      <use x="63.623047" xlink:href="#DejaVuSans-48"/>
      <use x="127.246094" xlink:href="#DejaVuSans-48"/>
      <use x="190.869141" xlink:href="#DejaVuSans-48"/>
      <use x="254.492188" xlink:href="#DejaVuSans-46"/>
      <use x="286.279297" xlink:href="#DejaVuSans-48"/>
      <use x="349.902344" xlink:href="#DejaVuSans-48"/>
      <use x="413.525391" xlink:href="#DejaVuSans-48"/>
     </g>
    </g>
   </g>
   <g id="text_45">
    <g clip-path="url(#p7343b860a0)">
     <!-- 10000.000 -->
     <g style="fill:#440154;" transform="translate(283.322761 105.105756)rotate(-305.008445)scale(0.06 -0.06)">
      <use xlink:href="#DejaVuSans-49"/>
      <use x="63.623047" xlink:href="#DejaVuSans-48"/>
      <use x="127.246094" xlink:href="#DejaVuSans-48"/>
      <use x="190.869141" xlink:href="#DejaVuSans-48"/>
      <use x="254.492188" xlink:href="#DejaVuSans-48"/>
      <use x="318.115234" xlink:href="#DejaVuSans-46"/>
      <use x="349.902344" xlink:href="#DejaVuSans-48"/>
      <use x="413.525391" xlink:href="#DejaVuSans-48"/>
      <use x="477.148438" xlink:href="#DejaVuSans-48"/>
     </g>
    </g>
   </g>
   <g id="text_46">
    <g clip-path="url(#p7343b860a0)">
     <!-- 100000.000 -->
     <g style="fill:#440154;" transform="translate(299.039991 102.915751)rotate(-301.850694)scale(0.06 -0.06)">
      <use xlink:href="#DejaVuSans-49"/>
      <use x="63.623047" xlink:href="#DejaVuSans-48"/>
      <use x="127.246094" xlink:href="#DejaVuSans-48"/>
      <use x="190.869141" xlink:href="#DejaVuSans-48"/>
      <use x="254.492188" xlink:href="#DejaVuSans-48"/>
      <use x="318.115234" xlink:href="#DejaVuSans-48"/>
      <use x="381.738281" xlink:href="#DejaVuSans-46"/>
      <use x="413.525391" xlink:href="#DejaVuSans-48"/>
      <use x="477.148438" xlink:href="#DejaVuSans-48"/>
      <use x="540.771484" xlink:href="#DejaVuSans-48"/>
     </g>
    </g>
   </g>
   <g id="text_47">
    <g clip-path="url(#p7343b860a0)">
     <!-- 1000000.000 -->
     <g style="fill:#450457;" transform="translate(321.136248 103.276377)rotate(-290.862664)scale(0.06 -0.06)">
      <use xlink:href="#DejaVuSans-49"/>
      <use x="63.623047" xlink:href="#DejaVuSans-48"/>
      <use x="127.246094" xlink:href="#DejaVuSans-48"/>
      <use x="190.869141" xlink:href="#DejaVuSans-48"/>
      <use x="254.492188" xlink:href="#DejaVuSans-48"/>
      <use x="318.115234" xlink:href="#DejaVuSans-48"/>
      <use x="381.738281" xlink:href="#DejaVuSans-48"/>
      <use x="445.361328" xlink:href="#DejaVuSans-46"/>
      <use x="477.148438" xlink:href="#DejaVuSans-48"/>
      <use x="540.771484" xlink:href="#DejaVuSans-48"/>
      <use x="604.394531" xlink:href="#DejaVuSans-48"/>
     </g>
    </g>
   </g>
   <g id="text_48">
    <g clip-path="url(#p7343b860a0)">
     <!-- 10000000.000 -->
     <g style="fill:#482475;" transform="translate(330.822239 96.404224)rotate(-295.375044)scale(0.06 -0.06)">
      <use xlink:href="#DejaVuSans-49"/>
      <use x="63.623047" xlink:href="#DejaVuSans-48"/>
      <use x="127.246094" xlink:href="#DejaVuSans-48"/>
      <use x="190.869141" xlink:href="#DejaVuSans-48"/>
      <use x="254.492188" xlink:href="#DejaVuSans-48"/>
      <use x="318.115234" xlink:href="#DejaVuSans-48"/>
      <use x="381.738281" xlink:href="#DejaVuSans-48"/>
      <use x="445.361328" xlink:href="#DejaVuSans-48"/>
      <use x="508.984375" xlink:href="#DejaVuSans-46"/>
      <use x="540.771484" xlink:href="#DejaVuSans-48"/>
      <use x="604.394531" xlink:href="#DejaVuSans-48"/>
      <use x="668.017578" xlink:href="#DejaVuSans-48"/>
     </g>
    </g>
   </g>
   <g id="text_49">
    <g clip-path="url(#p7343b860a0)">
     <!-- 100000000.000 -->
     <g style="fill:#fde725;" transform="translate(344.28641 97.249999)rotate(-298.424898)scale(0.06 -0.06)">
      <use xlink:href="#DejaVuSans-49"/>
      <use x="63.623047" xlink:href="#DejaVuSans-48"/>
      <use x="127.246094" xlink:href="#DejaVuSans-48"/>
      <use x="190.869141" xlink:href="#DejaVuSans-48"/>
      <use x="254.492188" xlink:href="#DejaVuSans-48"/>
      <use x="318.115234" xlink:href="#DejaVuSans-48"/>
      <use x="381.738281" xlink:href="#DejaVuSans-48"/>
      <use x="445.361328" xlink:href="#DejaVuSans-48"/>
      <use x="508.984375" xlink:href="#DejaVuSans-48"/>
      <use x="572.607422" xlink:href="#DejaVuSans-46"/>
      <use x="604.394531" xlink:href="#DejaVuSans-48"/>
      <use x="668.017578" xlink:href="#DejaVuSans-48"/>
      <use x="731.640625" xlink:href="#DejaVuSans-48"/>
     </g>
    </g>
   </g>
  </g>
 </g>
 <defs>
  <clipPath id="p7343b860a0">
   <rect height="266.112" width="357.12" x="56.028488" y="10.999219"/>
  </clipPath>
 </defs>
</svg>
