<?xml version="1.0" encoding="utf-8" standalone="no"?>
<!DOCTYPE svg PUBLIC "-//W3C//DTD SVG 1.1//EN"
  "http://www.w3.org/Graphics/SVG/1.1/DTD/svg11.dtd">
<!-- Created with matplotlib (https://matplotlib.org/) -->
<svg height="300.989344pt" version="1.1" viewBox="0 0 405.987188 300.989344" width="405.987188pt" xmlns="http://www.w3.org/2000/svg" xmlns:xlink="http://www.w3.org/1999/xlink">
 <metadata>
  <rdf:RDF xmlns:cc="http://creativecommons.org/ns#" xmlns:dc="http://purl.org/dc/elements/1.1/" xmlns:rdf="http://www.w3.org/1999/02/22-rdf-syntax-ns#">
   <cc:Work>
    <dc:type rdf:resource="http://purl.org/dc/dcmitype/StillImage"/>
    <dc:date>2021-09-23T00:07:27.634312</dc:date>
    <dc:format>image/svg+xml</dc:format>
    <dc:creator>
     <cc:Agent>
      <dc:title>Matplotlib v3.3.1, https://matplotlib.org/</dc:title>
     </cc:Agent>
    </dc:creator>
   </cc:Work>
  </rdf:RDF>
 </metadata>
 <defs>
  <style type="text/css">*{stroke-linecap:butt;stroke-linejoin:round;}</style>
 </defs>
 <g id="figure_1">
  <g id="patch_1">
   <path d="M 0 300.989344 
L 405.987188 300.989344 
L 405.987188 0 
L 0 0 
z
" style="fill:#ffffff;"/>
  </g>
  <g id="axes_1">
   <g id="patch_2">
    <path d="M 35.304688 277.111219 
L 392.424688 277.111219 
L 392.424688 10.999219 
L 35.304688 10.999219 
z
" style="fill:#ffffff;"/>
   </g>
   <g id="matplotlib.axis_1">
    <g id="xtick_1">
     <g id="line2d_1">
      <defs>
       <path d="M 0 0 
L 0 3.5 
" id="me633c86822" style="stroke:#000000;stroke-width:0.8;"/>
      </defs>
      <g>
       <use style="stroke:#000000;stroke-width:0.8;" x="35.304687" xlink:href="#me633c86822" y="277.111219"/>
      </g>
     </g>
     <g id="text_1">
      <!-- −20 -->
      <g transform="translate(24.752344 291.709656)scale(0.1 -0.1)">
       <defs>
        <path d="M 10.59375 35.5 
L 73.1875 35.5 
L 73.1875 27.203125 
L 10.59375 27.203125 
z
" id="DejaVuSans-8722"/>
        <path d="M 19.1875 8.296875 
L 53.609375 8.296875 
L 53.609375 0 
L 7.328125 0 
L 7.328125 8.296875 
Q 12.9375 14.109375 22.625 23.890625 
Q 32.328125 33.6875 34.8125 36.53125 
Q 39.546875 41.84375 41.421875 45.53125 
Q 43.3125 49.21875 43.3125 52.78125 
Q 43.3125 58.59375 39.234375 62.25 
Q 35.15625 65.921875 28.609375 65.921875 
Q 23.96875 65.921875 18.8125 64.3125 
Q 13.671875 62.703125 7.8125 59.421875 
L 7.8125 69.390625 
Q 13.765625 71.78125 18.9375 73 
Q 24.125 74.21875 28.421875 74.21875 
Q 39.75 74.21875 46.484375 68.546875 
Q 53.21875 62.890625 53.21875 53.421875 
Q 53.21875 48.921875 51.53125 44.890625 
Q 49.859375 40.875 45.40625 35.40625 
Q 44.1875 33.984375 37.640625 27.21875 
Q 31.109375 20.453125 19.1875 8.296875 
z
" id="DejaVuSans-50"/>
        <path d="M 31.78125 66.40625 
Q 24.171875 66.40625 20.328125 58.90625 
Q 16.5 51.421875 16.5 36.375 
Q 16.5 21.390625 20.328125 13.890625 
Q 24.171875 6.390625 31.78125 6.390625 
Q 39.453125 6.390625 43.28125 13.890625 
Q 47.125 21.390625 47.125 36.375 
Q 47.125 51.421875 43.28125 58.90625 
Q 39.453125 66.40625 31.78125 66.40625 
z
M 31.78125 74.21875 
Q 44.046875 74.21875 50.515625 64.515625 
Q 56.984375 54.828125 56.984375 36.375 
Q 56.984375 17.96875 50.515625 8.265625 
Q 44.046875 -1.421875 31.78125 -1.421875 
Q 19.53125 -1.421875 13.0625 8.265625 
Q 6.59375 17.96875 6.59375 36.375 
Q 6.59375 54.828125 13.0625 64.515625 
Q 19.53125 74.21875 31.78125 74.21875 
z
" id="DejaVuSans-48"/>
       </defs>
       <use xlink:href="#DejaVuSans-8722"/>
       <use x="83.789062" xlink:href="#DejaVuSans-50"/>
       <use x="147.412109" xlink:href="#DejaVuSans-48"/>
      </g>
     </g>
    </g>
    <g id="xtick_2">
     <g id="line2d_2">
      <g>
       <use style="stroke:#000000;stroke-width:0.8;" x="74.984687" xlink:href="#me633c86822" y="277.111219"/>
      </g>
     </g>
     <g id="text_2">
      <!-- −15 -->
      <g transform="translate(64.432344 291.709656)scale(0.1 -0.1)">
       <defs>
        <path d="M 12.40625 8.296875 
L 28.515625 8.296875 
L 28.515625 63.921875 
L 10.984375 60.40625 
L 10.984375 69.390625 
L 28.421875 72.90625 
L 38.28125 72.90625 
L 38.28125 8.296875 
L 54.390625 8.296875 
L 54.390625 0 
L 12.40625 0 
z
" id="DejaVuSans-49"/>
        <path d="M 10.796875 72.90625 
L 49.515625 72.90625 
L 49.515625 64.59375 
L 19.828125 64.59375 
L 19.828125 46.734375 
Q 21.96875 47.46875 24.109375 47.828125 
Q 26.265625 48.1875 28.421875 48.1875 
Q 40.625 48.1875 47.75 41.5 
Q 54.890625 34.8125 54.890625 23.390625 
Q 54.890625 11.625 47.5625 5.09375 
Q 40.234375 -1.421875 26.90625 -1.421875 
Q 22.3125 -1.421875 17.546875 -0.640625 
Q 12.796875 0.140625 7.71875 1.703125 
L 7.71875 11.625 
Q 12.109375 9.234375 16.796875 8.0625 
Q 21.484375 6.890625 26.703125 6.890625 
Q 35.15625 6.890625 40.078125 11.328125 
Q 45.015625 15.765625 45.015625 23.390625 
Q 45.015625 31 40.078125 35.4375 
Q 35.15625 39.890625 26.703125 39.890625 
Q 22.75 39.890625 18.8125 39.015625 
Q 14.890625 38.140625 10.796875 36.28125 
z
" id="DejaVuSans-53"/>
       </defs>
       <use xlink:href="#DejaVuSans-8722"/>
       <use x="83.789062" xlink:href="#DejaVuSans-49"/>
       <use x="147.412109" xlink:href="#DejaVuSans-53"/>
      </g>
     </g>
    </g>
    <g id="xtick_3">
     <g id="line2d_3">
      <g>
       <use style="stroke:#000000;stroke-width:0.8;" x="114.664687" xlink:href="#me633c86822" y="277.111219"/>
      </g>
     </g>
     <g id="text_3">
      <!-- −10 -->
      <g transform="translate(104.112344 291.709656)scale(0.1 -0.1)">
       <use xlink:href="#DejaVuSans-8722"/>
       <use x="83.789062" xlink:href="#DejaVuSans-49"/>
       <use x="147.412109" xlink:href="#DejaVuSans-48"/>
      </g>
     </g>
    </g>
    <g id="xtick_4">
     <g id="line2d_4">
      <g>
       <use style="stroke:#000000;stroke-width:0.8;" x="154.344687" xlink:href="#me633c86822" y="277.111219"/>
      </g>
     </g>
     <g id="text_4">
      <!-- −5 -->
      <g transform="translate(146.973594 291.709656)scale(0.1 -0.1)">
       <use xlink:href="#DejaVuSans-8722"/>
       <use x="83.789062" xlink:href="#DejaVuSans-53"/>
      </g>
     </g>
    </g>
    <g id="xtick_5">
     <g id="line2d_5">
      <g>
       <use style="stroke:#000000;stroke-width:0.8;" x="194.024687" xlink:href="#me633c86822" y="277.111219"/>
      </g>
     </g>
     <g id="text_5">
      <!-- 0 -->
      <g transform="translate(190.843437 291.709656)scale(0.1 -0.1)">
       <use xlink:href="#DejaVuSans-48"/>
      </g>
     </g>
    </g>
    <g id="xtick_6">
     <g id="line2d_6">
      <g>
       <use style="stroke:#000000;stroke-width:0.8;" x="233.704688" xlink:href="#me633c86822" y="277.111219"/>
      </g>
     </g>
     <g id="text_6">
      <!-- 5 -->
      <g transform="translate(230.523438 291.709656)scale(0.1 -0.1)">
       <use xlink:href="#DejaVuSans-53"/>
      </g>
     </g>
    </g>
    <g id="xtick_7">
     <g id="line2d_7">
      <g>
       <use style="stroke:#000000;stroke-width:0.8;" x="273.384688" xlink:href="#me633c86822" y="277.111219"/>
      </g>
     </g>
     <g id="text_7">
      <!-- 10 -->
      <g transform="translate(267.022188 291.709656)scale(0.1 -0.1)">
       <use xlink:href="#DejaVuSans-49"/>
       <use x="63.623047" xlink:href="#DejaVuSans-48"/>
      </g>
     </g>
    </g>
    <g id="xtick_8">
     <g id="line2d_8">
      <g>
       <use style="stroke:#000000;stroke-width:0.8;" x="313.064687" xlink:href="#me633c86822" y="277.111219"/>
      </g>
     </g>
     <g id="text_8">
      <!-- 15 -->
      <g transform="translate(306.702187 291.709656)scale(0.1 -0.1)">
       <use xlink:href="#DejaVuSans-49"/>
       <use x="63.623047" xlink:href="#DejaVuSans-53"/>
      </g>
     </g>
    </g>
    <g id="xtick_9">
     <g id="line2d_9">
      <g>
       <use style="stroke:#000000;stroke-width:0.8;" x="352.744688" xlink:href="#me633c86822" y="277.111219"/>
      </g>
     </g>
     <g id="text_9">
      <!-- 20 -->
      <g transform="translate(346.382188 291.709656)scale(0.1 -0.1)">
       <use xlink:href="#DejaVuSans-50"/>
       <use x="63.623047" xlink:href="#DejaVuSans-48"/>
      </g>
     </g>
    </g>
    <g id="xtick_10">
     <g id="line2d_10">
      <g>
       <use style="stroke:#000000;stroke-width:0.8;" x="392.424688" xlink:href="#me633c86822" y="277.111219"/>
      </g>
     </g>
     <g id="text_10">
      <!-- 25 -->
      <g transform="translate(386.062187 291.709656)scale(0.1 -0.1)">
       <use xlink:href="#DejaVuSans-50"/>
       <use x="63.623047" xlink:href="#DejaVuSans-53"/>
      </g>
     </g>
    </g>
   </g>
   <g id="matplotlib.axis_2">
    <g id="ytick_1">
     <g id="line2d_11">
      <defs>
       <path d="M 0 0 
L -3.5 0 
" id="m95185b7764" style="stroke:#000000;stroke-width:0.8;"/>
      </defs>
      <g>
       <use style="stroke:#000000;stroke-width:0.8;" x="35.304688" xlink:href="#m95185b7764" y="277.111219"/>
      </g>
     </g>
     <g id="text_11">
      <!-- −20 -->
      <g transform="translate(7.2 280.910437)scale(0.1 -0.1)">
       <use xlink:href="#DejaVuSans-8722"/>
       <use x="83.789062" xlink:href="#DejaVuSans-50"/>
       <use x="147.412109" xlink:href="#DejaVuSans-48"/>
      </g>
     </g>
    </g>
    <g id="ytick_2">
     <g id="line2d_12">
      <g>
       <use style="stroke:#000000;stroke-width:0.8;" x="35.304688" xlink:href="#m95185b7764" y="243.847219"/>
      </g>
     </g>
     <g id="text_12">
      <!-- −15 -->
      <g transform="translate(7.2 247.646437)scale(0.1 -0.1)">
       <use xlink:href="#DejaVuSans-8722"/>
       <use x="83.789062" xlink:href="#DejaVuSans-49"/>
       <use x="147.412109" xlink:href="#DejaVuSans-53"/>
      </g>
     </g>
    </g>
    <g id="ytick_3">
     <g id="line2d_13">
      <g>
       <use style="stroke:#000000;stroke-width:0.8;" x="35.304688" xlink:href="#m95185b7764" y="210.583219"/>
      </g>
     </g>
     <g id="text_13">
      <!-- −10 -->
      <g transform="translate(7.2 214.382437)scale(0.1 -0.1)">
       <use xlink:href="#DejaVuSans-8722"/>
       <use x="83.789062" xlink:href="#DejaVuSans-49"/>
       <use x="147.412109" xlink:href="#DejaVuSans-48"/>
      </g>
     </g>
    </g>
    <g id="ytick_4">
     <g id="line2d_14">
      <g>
       <use style="stroke:#000000;stroke-width:0.8;" x="35.304688" xlink:href="#m95185b7764" y="177.319219"/>
      </g>
     </g>
     <g id="text_14">
      <!-- −5 -->
      <g transform="translate(13.5625 181.118437)scale(0.1 -0.1)">
       <use xlink:href="#DejaVuSans-8722"/>
       <use x="83.789062" xlink:href="#DejaVuSans-53"/>
      </g>
     </g>
    </g>
    <g id="ytick_5">
     <g id="line2d_15">
      <g>
       <use style="stroke:#000000;stroke-width:0.8;" x="35.304688" xlink:href="#m95185b7764" y="144.055219"/>
      </g>
     </g>
     <g id="text_15">
      <!-- 0 -->
      <g transform="translate(21.942187 147.854437)scale(0.1 -0.1)">
       <use xlink:href="#DejaVuSans-48"/>
      </g>
     </g>
    </g>
    <g id="ytick_6">
     <g id="line2d_16">
      <g>
       <use style="stroke:#000000;stroke-width:0.8;" x="35.304688" xlink:href="#m95185b7764" y="110.791219"/>
      </g>
     </g>
     <g id="text_16">
      <!-- 5 -->
      <g transform="translate(21.942187 114.590437)scale(0.1 -0.1)">
       <use xlink:href="#DejaVuSans-53"/>
      </g>
     </g>
    </g>
    <g id="ytick_7">
     <g id="line2d_17">
      <g>
       <use style="stroke:#000000;stroke-width:0.8;" x="35.304688" xlink:href="#m95185b7764" y="77.527219"/>
      </g>
     </g>
     <g id="text_17">
      <!-- 10 -->
      <g transform="translate(15.579687 81.326437)scale(0.1 -0.1)">
       <use xlink:href="#DejaVuSans-49"/>
       <use x="63.623047" xlink:href="#DejaVuSans-48"/>
      </g>
     </g>
    </g>
    <g id="ytick_8">
     <g id="line2d_18">
      <g>
       <use style="stroke:#000000;stroke-width:0.8;" x="35.304688" xlink:href="#m95185b7764" y="44.263219"/>
      </g>
     </g>
     <g id="text_18">
      <!-- 15 -->
      <g transform="translate(15.579687 48.062437)scale(0.1 -0.1)">
       <use xlink:href="#DejaVuSans-49"/>
       <use x="63.623047" xlink:href="#DejaVuSans-53"/>
      </g>
     </g>
    </g>
    <g id="ytick_9">
     <g id="line2d_19">
      <g>
       <use style="stroke:#000000;stroke-width:0.8;" x="35.304688" xlink:href="#m95185b7764" y="10.999219"/>
      </g>
     </g>
     <g id="text_19">
      <!-- 20 -->
      <g transform="translate(15.579687 14.798437)scale(0.1 -0.1)">
       <use xlink:href="#DejaVuSans-50"/>
       <use x="63.623047" xlink:href="#DejaVuSans-48"/>
      </g>
     </g>
    </g>
   </g>
   <g id="LineCollection_1"/>
   <g id="LineCollection_2"/>
   <g id="LineCollection_3">
    <path clip-path="url(#p6994790ee4)" d="M 202.277333 147.781319 
L 202.44562 152.925619 
L 201.960688 156.112879 
L 190.07315 161.796019 
L 190.056688 161.80682 
L 190.041802 161.796019 
L 187.166992 152.925619 
L 185.883843 144.055219 
L 186.108906 135.184819 
L 190.056688 132.905219 
L 190.081854 132.908763 
" style="fill:none;stroke:#482576;stroke-width:1.5;"/>
   </g>
   <g id="LineCollection_4">
    <path clip-path="url(#p6994790ee4)" d="M 203.132938 147.715173 
L 204.076845 152.925619 
L 203.295535 161.796019 
L 201.960688 163.460548 
L 192.00398 170.666419 
L 190.056688 172.072527 
L 178.152687 175.108388 
L 174.637928 170.666419 
L 174.938309 161.796019 
L 175.701347 152.925619 
L 176.060838 144.055219 
L 177.549991 135.184819 
L 178.152687 134.839499 
L 190.056688 127.71333 
L 192.134537 128.726861 
" style="fill:none;stroke:#453781;stroke-width:1.5;"/>
   </g>
   <g id="LineCollection_5">
    <path clip-path="url(#p6994790ee4)" d="M 201.980094 132.832266 
L 202.10208 135.184819 
L 202.784386 144.055219 
L 205.70807 152.925619 
L 206.136094 161.796019 
L 201.960688 167.002669 
L 196.898304 170.666419 
L 190.056688 175.606639 
L 182.392992 179.536819 
L 178.152687 181.19348 
L 169.414092 179.536819 
L 166.248687 172.987307 
L 165.789672 170.666419 
L 166.248687 167.115598 
L 167.16809 161.796019 
L 168.493467 152.925619 
L 169.294689 144.055219 
L 172.314409 135.184819 
L 178.152687 131.839731 
L 180.074667 130.5938 
" style="fill:none;stroke:#404688;stroke-width:1.5;"/>
   </g>
   <g id="LineCollection_6">
    <path clip-path="url(#p6994790ee4)" d="M 203.086826 143.941876 
L 203.098859 144.055219 
L 207.339296 152.925619 
L 208.976652 161.796019 
L 201.960688 170.544791 
L 201.792628 170.666419 
L 190.056688 179.140751 
L 189.284371 179.536819 
L 178.152687 183.885899 
L 166.248687 185.331811 
L 159.699372 179.536819 
L 159.977973 170.666419 
L 160.02385 161.796019 
L 160.347779 152.925619 
L 161.371679 144.055219 
L 166.248687 137.1703 
L 167.078826 135.184819 
L 178.152687 128.839963 
L 182.048604 126.314419 
L 190.056688 125.877821 
L 190.753707 125.974083 
" style="fill:none;stroke:#39558c;stroke-width:1.5;"/>
   </g>
   <g id="LineCollection_7">
    <path clip-path="url(#p6994790ee4)" d="M 170.456381 131.128934 
L 177.783529 126.314419 
L 178.152687 126.273155 
L 190.056688 125.625534 
L 195.04482 126.314419 
L 201.960688 130.334341 
L 202.212199 135.184819 
L 203.413331 144.055219 
L 208.970521 152.925619 
L 211.817211 161.796019 
L 204.26387 170.666419 
L 201.960688 172.433388 
L 192.272599 179.536819 
L 190.056688 180.850819 
L 178.152687 186.578318 
L 171.769889 188.407219 
L 166.248687 190.497069 
L 163.601752 188.407219 
L 154.344687 180.873602 
L 154.267103 179.536819 
L 154.330585 170.666419 
L 154.135445 161.796019 
L 153.576424 152.925619 
L 153.587114 146.259857 
" style="fill:none;stroke:#33638d;stroke-width:1.5;"/>
   </g>
   <g id="LineCollection_8">
    <path clip-path="url(#p6994790ee4)" d="M 156.475603 134.416206 
L 166.248687 132.359335 
L 175.448368 126.314419 
L 178.152687 126.012137 
L 190.056688 125.373247 
L 196.871601 126.314419 
L 201.960688 129.272505 
L 202.267258 135.184819 
L 203.727804 144.055219 
L 210.601747 152.925619 
L 213.864688 160.709549 
L 213.875209 161.796019 
L 213.864688 162.54547 
L 206.648951 170.666419 
L 201.960688 174.263188 
L 194.768191 179.536819 
L 190.056688 182.330665 
L 179.015109 188.407219 
L 178.152687 188.767929 
L 166.248687 194.053755 
L 159.096972 188.407219 
L 154.344687 184.539698 
L 154.054331 179.536819 
L 153.871216 170.666419 
L 153.065764 161.796019 
L 151.838914 156.498784 
" style="fill:none;stroke:#2d718e;stroke-width:1.5;"/>
   </g>
   <g id="LineCollection_9">
    <path clip-path="url(#p6994790ee4)" d="M 150.652111 158.437625 
L 148.446299 152.925619 
L 146.333324 144.055219 
L 151.969291 135.184819 
L 154.344687 134.221468 
L 166.248687 130.82495 
L 173.113206 126.314419 
L 178.152687 125.75112 
L 190.056688 125.120959 
L 198.698382 126.314419 
L 201.960688 128.210669 
L 202.322318 135.184819 
L 204.042277 144.055219 
L 212.232972 152.925619 
L 213.864688 156.818168 
L 213.912894 161.796019 
L 213.864688 165.229758 
L 209.034031 170.666419 
L 201.960688 176.092988 
L 197.263782 179.536819 
L 190.056688 183.810512 
L 181.704108 188.407219 
L 178.152687 189.892611 
L 166.415948 197.277619 
L 166.248687 197.399127 
L 166.189046 197.277619 
L 154.592192 188.407219 
L 154.344687 188.205794 
L 154.05705 183.249768 
" style="fill:none;stroke:#287d8e;stroke-width:1.5;"/>
   </g>
   <g id="LineCollection_10">
    <path clip-path="url(#p6994790ee4)" d="M 149.195459 158.752678 
L 145.881237 152.925619 
L 142.704661 144.055219 
L 150.383272 135.184819 
L 154.344687 133.578253 
L 166.248687 129.290565 
L 170.778045 126.314419 
L 178.152687 125.490102 
L 190.056688 124.868672 
L 200.525163 126.314419 
L 201.960688 127.148833 
L 202.377377 135.184819 
L 204.356749 144.055219 
L 213.864197 152.925619 
L 213.864688 152.926788 
L 213.950578 161.796019 
L 213.864688 167.914046 
L 211.419112 170.666419 
L 201.960688 177.922788 
L 199.759374 179.536819 
L 190.056688 185.290358 
L 184.393106 188.407219 
L 178.152687 191.017293 
L 168.203366 197.277619 
L 166.248687 198.697618 
L 165.551692 197.277619 
L 154.344687 188.859654 
L 154.249722 188.407219 
L 153.887426 183.231633 
" style="fill:none;stroke:#238a8d;stroke-width:1.5;"/>
   </g>
   <g id="LineCollection_11">
    <path clip-path="url(#p6994790ee4)" d="M 153.033188 175.857333 
L 152.493108 170.666419 
L 149.856721 161.796019 
L 143.316175 152.925619 
L 142.440687 150.539005 
L 142.421816 144.055219 
L 142.440687 142.388574 
L 148.797253 135.184819 
L 154.344687 132.935037 
L 166.248687 127.756179 
L 168.442884 126.314419 
L 178.152687 125.229084 
L 190.056688 124.616385 
L 201.960688 126.306518 
L 201.963031 126.314419 
L 202.432436 135.184819 
L 204.671222 144.055219 
L 213.864688 152.632318 
L 213.877196 152.925619 
L 213.988263 161.796019 
L 213.864688 170.598335 
L 213.804193 170.666419 
L 202.165499 179.536819 
L 201.960688 179.655165 
L 190.056688 186.770205 
L 187.082104 188.407219 
L 178.152687 192.141974 
L 169.990784 197.277619 
L 166.248687 199.996109 
L 164.914338 197.277619 
L 163.658443 196.334272 
" style="fill:none;stroke:#1f968b;stroke-width:1.5;"/>
   </g>
   <g id="LineCollection_12">
    <path clip-path="url(#p6994790ee4)" d="M 152.720993 175.879077 
L 152.033739 170.666419 
L 148.78704 161.796019 
L 142.440687 153.812019 
L 142.419941 152.925619 
L 142.401464 144.055219 
L 142.440687 140.591173 
L 147.211234 135.184819 
L 154.344687 132.291822 
L 166.17186 126.314419 
L 166.248687 126.302602 
L 178.152687 124.968066 
L 190.056688 124.364098 
L 201.960688 126.269629 
L 201.973973 126.314419 
L 202.487496 135.184819 
L 204.985695 144.055219 
L 213.864688 152.338928 
L 213.889709 152.925619 
L 214.025947 161.796019 
L 213.952462 170.666419 
L 213.864688 171.954778 
L 203.902374 179.536819 
L 201.960688 180.658786 
L 190.056688 188.250051 
L 189.771102 188.407219 
L 178.152687 193.266656 
L 171.778202 197.277619 
L 166.248687 201.2946 
L 164.276984 197.277619 
L 163.267319 196.519225 
" style="fill:none;stroke:#20a386;stroke-width:1.5;"/>
   </g>
   <g id="LineCollection_13">
    <path clip-path="url(#p6994790ee4)" d="M 152.410637 175.904771 
L 151.574369 170.666419 
L 147.71736 161.796019 
L 142.440687 155.157726 
L 142.388443 152.925619 
L 142.381113 144.055219 
L 142.440687 138.793773 
L 145.625215 135.184819 
L 154.344687 131.648607 
L 164.899163 126.314419 
L 166.248687 126.106846 
L 178.152687 124.707048 
L 190.056688 124.11181 
L 201.960688 126.23274 
L 201.984915 126.314419 
L 202.542555 135.184819 
L 205.300168 144.055219 
L 213.864688 152.045539 
L 213.902221 152.925619 
L 214.063632 161.796019 
L 214.042521 170.666419 
L 213.864688 173.276665 
L 205.639249 179.536819 
L 201.960688 181.662406 
L 191.454028 188.407219 
L 190.056688 189.044452 
L 178.152687 194.391337 
L 173.56562 197.277619 
L 166.248687 202.593091 
L 163.639631 197.277619 
L 162.876196 196.704177 
" style="fill:none;stroke:#29af7f;stroke-width:1.5;"/>
   </g>
   <g id="LineCollection_14">
    <path clip-path="url(#p6994790ee4)" d="M 152.102423 175.934272 
L 151.115 170.666419 
L 146.647679 161.796019 
L 142.440687 156.503433 
L 142.356946 152.925619 
L 142.360761 144.055219 
L 142.440687 136.996373 
L 144.039196 135.184819 
L 154.344687 131.005391 
L 163.626467 126.314419 
L 166.248687 125.911089 
L 178.152687 124.44603 
L 190.056688 123.859523 
L 201.960688 126.195851 
L 201.995857 126.314419 
L 202.597614 135.184819 
L 205.61464 144.055219 
L 213.864688 151.75215 
L 213.914734 152.925619 
L 214.101317 161.796019 
L 214.13258 170.666419 
L 213.864688 174.598553 
L 207.376124 179.536819 
L 201.960688 182.666027 
L 193.017407 188.407219 
L 190.056688 189.757405 
L 178.152687 195.516019 
L 175.353037 197.277619 
L 166.248687 203.891581 
L 163.002277 197.277619 
L 162.485072 196.889129 
" style="fill:none;stroke:#3dbc74;stroke-width:1.5;"/>
   </g>
   <g id="LineCollection_15">
    <path clip-path="url(#p6994790ee4)" d="M 151.796635 175.967421 
L 150.655631 170.666419 
L 145.577998 161.796019 
L 142.440687 157.84914 
L 142.325449 152.925619 
L 142.340409 144.055219 
L 142.440687 135.198973 
L 142.453177 135.184819 
L 154.344687 130.362176 
L 162.35377 126.314419 
L 166.248687 125.715333 
L 178.152687 124.185013 
L 190.056688 123.607236 
L 201.960688 126.158961 
L 202.006799 126.314419 
L 202.652674 135.184819 
L 205.929113 144.055219 
L 213.864688 151.458761 
L 213.927246 152.925619 
L 214.139001 161.796019 
L 214.222638 170.666419 
L 213.864688 175.92044 
L 209.112999 179.536819 
L 201.960688 183.669648 
L 194.580787 188.407219 
L 190.056688 190.470357 
L 178.152687 196.640701 
L 177.140455 197.277619 
L 166.248687 205.190072 
L 162.364923 197.277619 
L 162.093949 197.074081 
" style="fill:none;stroke:#56c667;stroke-width:1.5;"/>
   </g>
   <g id="LineCollection_16">
    <path clip-path="url(#p6994790ee4)" d="M 159.599182 195.678914 
L 154.344687 191.732084 
L 153.646805 188.407219 
L 152.352151 179.536819 
L 150.196261 170.666419 
L 144.508317 161.796019 
L 142.440687 159.194847 
L 142.293951 152.925619 
L 142.320057 144.055219 
L 142.428943 135.184819 
L 142.440687 135.117282 
L 154.344687 129.71896 
L 161.081074 126.314419 
L 166.248687 125.519577 
L 178.152687 123.923995 
L 190.056688 123.354949 
L 201.960688 126.122072 
L 202.017741 126.314419 
L 202.707733 135.184819 
L 206.243586 144.055219 
L 213.864688 151.165372 
L 213.939759 152.925619 
L 214.176686 161.796019 
L 214.312697 170.666419 
L 213.864688 177.242328 
L 210.849874 179.536819 
L 201.960688 184.673268 
L 196.144166 188.407219 
L 190.056688 191.18331 
L 178.727485 197.277619 
L 178.152687 197.495691 
L 176.355936 198.82155 
" style="fill:none;stroke:#75d054;stroke-width:1.5;"/>
   </g>
   <g id="LineCollection_17">
    <path clip-path="url(#p6994790ee4)" d="M 159.144119 195.81584 
L 154.344687 192.210822 
L 153.546319 188.407219 
L 152.139379 179.536819 
L 149.736892 170.666419 
L 143.438636 161.796019 
L 142.440687 160.540554 
L 142.262454 152.925619 
L 142.299705 144.055219 
L 142.417105 135.184819 
L 142.440687 135.049209 
L 154.344687 129.075745 
L 159.808377 126.314419 
L 166.248687 125.323821 
L 178.152687 123.662977 
L 190.056688 123.102662 
L 201.960688 126.085183 
L 202.028683 126.314419 
L 202.762792 135.184819 
L 206.558058 144.055219 
L 213.864688 150.871982 
L 213.952271 152.925619 
L 214.214371 161.796019 
L 214.402756 170.666419 
L 213.864688 178.564215 
L 212.586749 179.536819 
L 201.960688 185.676889 
L 197.707546 188.407219 
L 190.056688 191.896263 
L 180.052851 197.277619 
L 178.152687 197.998519 
L 176.236844 199.412259 
" style="fill:none;stroke:#95d840;stroke-width:1.5;"/>
   </g>
   <g id="LineCollection_18">
    <path clip-path="url(#p6994790ee4)" d="M 158.703153 195.963353 
L 154.344687 192.689561 
L 153.445833 188.407219 
L 151.926606 179.536819 
L 149.277523 170.666419 
L 142.440687 161.835807 
L 142.438673 161.796019 
L 142.230957 152.925619 
L 142.279354 144.055219 
L 142.405268 135.184819 
L 142.440687 134.981137 
L 154.344687 128.432529 
L 158.535681 126.314419 
L 166.248687 125.128065 
L 178.152687 123.401959 
L 190.056688 122.850374 
L 201.960688 126.048294 
L 202.039625 126.314419 
L 202.817852 135.184819 
L 206.872531 144.055219 
L 213.864688 150.578593 
L 213.964783 152.925619 
L 214.252055 161.796019 
L 214.492815 170.666419 
L 213.905042 179.536819 
L 213.864688 179.694594 
L 201.960688 186.68051 
L 199.270925 188.407219 
L 190.056688 192.609215 
L 181.378216 197.277619 
L 178.152687 198.501348 
L 176.117752 200.002968 
" style="fill:none;stroke:#bade28;stroke-width:1.5;"/>
   </g>
   <g id="LineCollection_19">
    <path clip-path="url(#p6994790ee4)" d="M 158.275309 196.120723 
L 154.344687 193.168299 
L 153.345347 188.407219 
L 151.713834 179.536819 
L 148.818153 170.666419 
L 142.440687 162.429139 
L 142.40864 161.796019 
L 142.199459 152.925619 
L 142.259002 144.055219 
L 142.39343 135.184819 
L 142.440687 134.913064 
L 154.344687 127.789314 
L 157.262984 126.314419 
L 166.248687 124.932309 
L 178.152687 123.140941 
L 190.056688 122.598087 
L 201.960688 126.011405 
L 202.050567 126.314419 
L 202.872911 135.184819 
L 207.187004 144.055219 
L 213.864688 150.285204 
L 213.977296 152.925619 
L 214.28974 161.796019 
L 214.582874 170.666419 
L 214.057765 179.536819 
L 213.864688 180.291704 
L 201.960688 187.68413 
L 200.834304 188.407219 
L 190.056688 193.322168 
L 182.703581 197.277619 
L 178.152687 199.004177 
L 175.99866 200.593677 
" style="fill:none;stroke:#dde318;stroke-width:1.5;"/>
   </g>
   <g id="LineCollection_20">
    <path clip-path="url(#p6994790ee4)" d="M 157.859646 196.287243 
L 154.344687 193.647037 
L 153.244861 188.407219 
L 151.501061 179.536819 
L 148.358784 170.666419 
L 142.440687 163.022471 
L 142.378607 161.796019 
L 142.167962 152.925619 
L 142.23865 144.055219 
L 142.381593 135.184819 
L 142.440687 134.844991 
L 154.344687 127.146098 
L 155.990288 126.314419 
L 166.248687 124.736552 
L 178.152687 122.879924 
L 190.056688 122.3458 
L 201.960688 125.974516 
L 202.061509 126.314419 
L 202.92797 135.184819 
L 207.501477 144.055219 
L 213.864688 149.991815 
L 213.989808 152.925619 
L 214.327424 161.796019 
L 214.672932 170.666419 
L 214.210488 179.536819 
L 213.864688 180.888814 
L 202.219211 188.407219 
L 201.960688 188.530901 
L 190.056688 194.035121 
L 184.028946 197.277619 
L 178.152687 199.507005 
L 175.879568 201.184386 
" style="fill:none;stroke:#fde725;stroke-width:1.5;"/>
   </g>
   <g id="LineCollection_21">
    <path clip-path="url(#p6994790ee4)" d="M 142.170643 149.220826 
L 142.218298 144.055219 
L 142.369755 135.184819 
L 142.440687 134.776918 
L 154.344687 126.502883 
L 154.717591 126.314419 
L 166.248687 124.540796 
L 178.152687 122.618906 
L 190.056688 122.093513 
L 201.960688 125.937627 
L 202.072451 126.314419 
L 202.983029 135.184819 
L 207.815949 144.055219 
L 213.864688 149.698426 
L 214.002321 152.925619 
L 214.365109 161.796019 
L 214.762991 170.666419 
L 214.363212 179.536819 
L 213.864688 181.485924 
L 203.144091 188.407219 
L 201.960688 188.973383 
L 190.056688 194.748073 
L 185.354311 197.277619 
L 178.152687 200.009834 
L 169.834463 206.148019 
L 166.248687 207.357782 
L 165.447767 206.148019 
L 158.540799 197.277619 
L 154.344687 194.125775 
L 153.144375 188.407219 
L 151.288289 179.536819 
L 149.856294 175.788564 
" style="fill:none;stroke:#440154;stroke-width:1.5;"/>
   </g>
   <g id="LineCollection_22">
    <path clip-path="url(#p6994790ee4)" d="M 170.268113 116.069835 
L 178.152687 115.736417 
L 190.056688 116.26004 
L 199.136848 117.444019 
L 201.960688 119.297582 
L 204.04201 126.314419 
L 212.893707 135.184819 
L 213.864688 136.061671 
L 214.393195 144.055219 
L 216.254564 152.925619 
L 221.14834 161.796019 
L 225.768687 167.824629 
L 225.888994 170.666419 
L 226.216603 179.536819 
L 226.362649 188.407219 
L 225.968317 197.277619 
L 225.768687 198.493971 
L 215.043184 206.148019 
L 213.864688 206.784344 
L 201.960688 212.94003 
L 198.101249 215.018419 
L 190.056688 217.889364 
L 180.0925 223.888819 
L 178.152687 224.914837 
L 172.141394 223.888819 
L 166.248687 222.466858 
L 159.559716 215.018419 
L 154.344687 210.43685 
L 152.502235 206.148019 
L 146.680547 197.277619 
L 142.440687 192.254583 
L 141.925854 188.407219 
L 140.647692 179.536819 
L 138.894757 170.666419 
L 136.942603 161.796019 
L 136.466945 152.925619 
L 138.554976 144.055219 
L 140.238982 135.184819 
L 141.847782 127.816475 
" style="fill:none;stroke:#440154;stroke-width:1.5;"/>
   </g>
   <g id="LineCollection_23">
    <path clip-path="url(#p6994790ee4)" d="M 137.864329 198.792861 
L 137.200971 197.277619 
L 130.536687 189.068008 
L 130.482018 188.407219 
L 129.931286 179.536819 
L 129.046571 170.666419 
L 127.890661 161.796019 
L 128.259024 152.925619 
L 129.31406 144.055219 
L 130.120185 135.184819 
L 130.536687 129.838389 
L 133.611306 126.314419 
L 141.99396 117.444019 
L 142.440687 117.053887 
L 154.344687 111.680522 
L 160.543943 108.573619 
L 166.248687 107.97392 
L 178.152687 107.840855 
L 190.056688 108.213732 
L 192.12184 108.573619 
L 201.960688 114.53095 
L 204.214335 117.444019 
L 213.864688 125.361018 
L 213.96829 126.314419 
L 215.053888 135.184819 
L 220.3106 144.055219 
L 225.768687 149.50998 
L 225.941874 152.925619 
L 226.952563 161.796019 
L 229.635946 170.666419 
L 233.871863 179.536819 
L 236.636143 188.407219 
L 235.986463 197.277619 
L 232.171167 206.148019 
L 226.922722 215.018419 
L 225.768687 216.151999 
L 214.513053 223.888819 
L 213.864688 224.263587 
L 201.960688 231.950189 
L 200.557067 232.759219 
L 190.056688 236.940422 
L 183.045209 241.629619 
L 178.152687 243.423734 
L 175.576976 241.629619 
L 166.248687 235.026998 
L 163.333787 232.759219 
L 157.1118 227.963338 
" style="fill:none;stroke:#440154;stroke-width:1.5;"/>
   </g>
   <g id="LineCollection_24">
    <path clip-path="url(#p6994790ee4)" d="M 131.353076 209.999333 
L 130.536687 209.171356 
L 130.023979 206.148019 
L 128.082659 197.277619 
L 124.841158 188.407219 
L 119.241853 179.536819 
L 118.632687 178.549464 
L 118.311233 170.666419 
L 118.097365 161.796019 
L 118.194471 152.925619 
L 118.450107 144.055219 
L 118.632687 140.618915 
L 122.473154 135.184819 
L 127.384742 126.314419 
L 130.068649 117.444019 
L 130.536687 116.317826 
L 140.635863 108.573619 
L 142.440687 107.406952 
L 154.344687 101.919891 
L 160.234514 99.703219 
L 166.248687 99.280546 
L 178.152687 99.356434 
L 190.056688 99.692598 
L 190.102408 99.703219 
L 201.960688 106.897383 
L 203.365774 108.573619 
L 213.864688 116.655934 
L 214.044995 117.444019 
L 216.035077 126.314419 
L 225.768687 134.986288 
L 225.778207 135.184819 
L 226.265706 144.055219 
L 228.940412 152.925619 
L 237.672687 161.344549 
L 237.687454 161.796019 
L 237.953262 170.666419 
L 238.631869 179.536819 
L 239.537993 188.407219 
L 239.662311 197.277619 
L 239.024566 206.148019 
L 238.225213 215.018419 
L 237.672687 222.238236 
L 235.636576 223.888819 
L 225.768687 230.219568 
L 222.149476 232.759219 
L 213.864688 237.766124 
L 208.605144 241.629619 
L 201.960688 247.49797 
L 197.201765 250.500019 
L 190.056688 254.178953 
L 178.152687 257.23354 
L 168.172874 250.500019 
L 166.248687 249.08613 
L 159.81044 241.629619 
L 156.914817 239.459003 
" style="fill:none;stroke:#440154;stroke-width:1.5;"/>
   </g>
   <g id="LineCollection_25">
    <path clip-path="url(#p6994790ee4)" d="M 129.556462 220.570567 
L 127.934821 215.018419 
L 119.228058 206.148019 
L 118.632687 205.465218 
L 117.685859 197.277619 
L 116.231282 188.407219 
L 114.030963 179.536819 
L 111.24615 170.666419 
L 110.356772 161.796019 
L 111.144288 152.925619 
L 112.701011 144.055219 
L 115.324625 135.184819 
L 117.456815 126.314419 
L 118.618958 117.444019 
L 118.632687 117.380636 
L 128.348067 108.573619 
L 130.536687 105.142554 
L 138.034209 99.703219 
L 142.440687 97.664543 
L 154.344687 92.050351 
L 157.937529 90.832819 
L 166.248687 90.415961 
L 178.152687 90.547126 
L 186.541572 90.832819 
L 190.056688 91.681541 
L 201.960688 98.750745 
L 202.781078 99.703219 
L 213.864688 108.189412 
L 213.977303 108.573619 
L 217.133815 117.444019 
L 225.768687 124.902853 
L 225.837925 126.314419 
L 226.661169 135.184819 
L 231.740916 144.055219 
L 237.672687 149.417479 
L 237.813704 152.925619 
L 238.633015 161.796019 
L 241.525122 170.666419 
L 248.724796 179.536819 
L 249.576687 180.894015 
L 249.625313 188.407219 
L 249.663372 197.277619 
L 249.630527 206.148019 
L 249.576687 209.475246 
L 245.982502 215.018419 
L 240.934971 223.888819 
L 238.292748 232.759219 
L 237.672687 235.192337 
L 228.483434 241.629619 
L 225.768687 243.21172 
L 215.579606 250.500019 
L 213.864688 251.583485 
L 204.043509 259.370419 
L 201.960688 261.774982 
L 192.862568 268.240819 
L 190.056688 269.848704 
L 178.152687 269.024152 
L 177.437967 268.240819 
L 166.248687 259.923603 
L 165.783638 259.370419 
L 159.013075 250.813856 
" style="fill:none;stroke:#440154;stroke-width:1.5;"/>
   </g>
   <g id="LineCollection_26">
    <path clip-path="url(#p6994790ee4)" d="M 177.424984 277.111219 
L 166.248687 268.588616 
L 165.681626 268.240819 
L 154.79303 259.370419 
L 154.344687 259.002188 
L 144.8205 250.500019 
L 142.440687 248.678619 
L 139.828438 241.629619 
L 130.581699 233.916332 
" style="fill:none;stroke:#450457;stroke-width:1.5;"/>
    <path clip-path="url(#p6994790ee4)" d="M 106.302996 195.097735 
L 105.673771 188.407219 
L 104.639006 179.536819 
L 104.455526 170.666419 
L 104.796301 161.796019 
L 105.231173 152.925619 
L 105.692208 144.055219 
L 106.089283 135.184819 
L 106.55688 126.314419 
L 106.728687 124.114184 
L 112.691999 117.444019 
L 117.37179 108.573619 
L 118.632687 105.578713 
L 125.781108 99.703219 
L 130.536687 92.959314 
L 133.69254 90.832819 
L 142.440687 88.109817 
L 154.344687 82.434223 
L 156.324802 81.962419 
L 166.248687 81.665069 
L 178.152687 81.734498 
L 185.990935 81.962419 
L 190.056688 82.95472 
L 201.960688 90.383466 
L 202.345191 90.832819 
L 213.864688 99.629867 
L 213.888807 99.703219 
L 216.783345 108.573619 
L 225.768687 115.814825 
L 225.902217 117.444019 
L 227.146646 126.314419 
L 235.49078 135.184819 
L 237.672687 137.109685 
L 237.98123 144.055219 
L 239.80327 152.925619 
L 248.08862 161.796019 
L 249.576687 163.29391 
L 249.700721 170.666419 
L 250.016049 179.536819 
L 250.665981 188.407219 
L 251.362786 197.277619 
L 251.566452 206.148019 
L 250.760047 215.018419 
L 249.933012 223.888819 
L 249.576687 232.286676 
L 249.125956 232.759219 
L 239.825826 241.629619 
L 237.672687 248.249648 
L 234.500203 250.500019 
L 225.768687 256.042536 
L 221.145484 259.370419 
L 213.864688 264.079621 
L 208.673679 268.240819 
L 201.960688 276.050643 
L 200.450824 277.111219 
" style="fill:none;stroke:#450457;stroke-width:1.5;"/>
   </g>
   <g id="LineCollection_27">
    <path clip-path="url(#p6994790ee4)" d="M 166.010153 277.111219 
L 154.344687 268.674348 
L 153.754669 268.240819 
L 142.440687 259.715271 
L 142.324082 259.370419 
L 138.642602 250.500019 
L 130.536687 243.802289 
L 129.73381 241.629619 
L 121.54358 232.759219 
L 118.632687 230.285877 
L 116.404046 223.888819 
L 106.823298 215.616371 
" style="fill:none;stroke:#482475;stroke-width:1.5;"/>
    <path clip-path="url(#p6994790ee4)" d="M 94.328248 168.357469 
L 94.448823 161.796019 
L 94.645033 152.925619 
L 94.804673 144.055219 
L 94.824687 142.671657 
L 97.600132 135.184819 
L 101.380167 126.314419 
L 104.48308 117.444019 
L 106.274773 108.573619 
L 106.728687 106.767151 
L 114.567999 99.703219 
L 118.632687 93.264015 
L 121.631366 90.832819 
L 130.422314 81.962419 
L 130.536687 81.872575 
L 142.440687 78.58238 
L 154.153036 73.092019 
L 154.344687 73.070917 
L 166.248687 72.888672 
L 178.152687 73.017103 
L 180.063572 73.092019 
L 190.056688 75.933025 
L 201.960688 81.870045 
L 202.0432 81.962419 
L 210.804102 90.832819 
L 213.864688 93.170084 
L 216.012939 99.703219 
L 225.768687 107.429976 
L 225.914744 108.573619 
L 227.755648 117.444019 
L 237.672687 126.001431 
L 237.686617 126.314419 
L 238.177468 135.184819 
L 241.441543 144.055219 
L 249.576687 151.347524 
L 249.632266 152.925619 
L 250.043876 161.796019 
L 251.302016 170.666419 
L 254.447061 179.536819 
L 261.072663 188.407219 
L 261.480687 189.190826 
L 261.512777 197.277619 
L 261.536956 206.148019 
L 261.498543 215.018419 
L 261.480687 215.80586 
L 254.752011 223.888819 
L 251.045659 232.759219 
L 249.815971 241.629619 
L 249.576687 244.177858 
L 242.299288 250.500019 
L 237.930928 259.370419 
L 237.672687 260.046251 
L 226.460138 268.240819 
L 225.768687 268.667163 
L 214.18518 277.111219 
" style="fill:none;stroke:#482475;stroke-width:1.5;"/>
   </g>
   <g id="LineCollection_28">
    <path clip-path="url(#p6994790ee4)" d="M 152.959997 277.111219 
L 142.440687 269.287717 
L 142.069911 268.240819 
L 136.810306 259.370419 
L 130.536687 254.139382 
L 129.231251 250.500019 
L 118.632687 241.718825 
L 118.599009 241.629619 
L 114.806062 232.759219 
L 106.728687 225.955729 
L 106.101536 223.888819 
L 99.593569 215.018419 
L 94.824687 210.98986 
L 93.612969 206.148019 
L 89.019312 197.277619 
L 85.37686 188.407219 
L 84.297064 179.536819 
L 85.355485 170.666419 
L 87.052257 161.796019 
L 89.49152 152.925619 
L 91.491992 144.055219 
L 92.695121 136.489971 
" style="fill:none;stroke:#fde725;stroke-width:1.5;"/>
    <path clip-path="url(#p6994790ee4)" d="M 111.910556 88.988896 
L 118.313736 81.962419 
L 118.632687 81.574949 
L 129.925506 73.092019 
L 130.536687 72.744334 
L 142.440687 69.177678 
L 153.535034 64.221619 
L 154.344687 64.142932 
L 166.248687 64.093011 
L 175.339067 64.221619 
L 178.152687 64.59759 
L 190.056688 69.365484 
L 198.394536 73.092019 
L 201.960688 75.634785 
L 207.612799 81.962419 
L 213.864688 86.734957 
L 215.303313 90.832819 
L 225.768687 99.06811 
L 225.862467 99.703219 
L 228.063317 108.573619 
L 237.672687 116.608724 
L 237.715725 117.444019 
L 238.398403 126.314419 
L 243.353172 135.184819 
L 249.576687 140.606425 
L 249.729468 144.055219 
L 250.724686 152.925619 
L 254.790456 161.796019 
L 261.480687 168.844427 
L 261.513677 170.666419 
L 261.671854 179.536819 
L 261.954527 188.407219 
L 262.305842 197.277619 
L 262.690271 206.148019 
L 262.811166 215.018419 
L 262.237842 223.888819 
L 261.571408 232.759219 
L 261.480687 233.890566 
L 253.702271 241.629619 
L 250.333463 250.500019 
L 249.576687 256.485806 
L 246.200331 259.370419 
L 238.577008 268.240819 
L 237.672687 270.162069 
L 228.066301 277.111219 
" style="fill:none;stroke:#fde725;stroke-width:1.5;"/>
   </g>
   <g id="line2d_20">
    <path clip-path="url(#p6994790ee4)" d="M 406.987188 202.742331 
L 389.904424 207.82211 
L 362.020317 215.99516 
L 338.625126 222.581469 
L 318.975319 228.202382 
L 302.543843 232.656402 
L 288.603689 236.056641 
L 276.828738 238.663969 
L 266.971797 240.280929 
L 258.559596 241.487711 
L 251.430852 242.129074 
L 245.444481 242.288794 
L 240.096882 241.866021 
L 235.550039 241.124622 
L 231.496596 239.866734 
L 227.851152 238.575436 
L 224.755437 236.749973 
L 221.925702 234.817597 
L 219.28764 232.811648 
L 217.027861 230.515155 
L 214.93491 227.992471 
L 212.968917 225.620084 
L 211.255221 223.004927 
L 209.484918 220.216447 
L 207.959643 217.49281 
L 206.445398 214.716767 
L 205.143609 211.810716 
L 203.920398 208.874528 
L 202.764509 206.072389 
L 201.617012 203.253595 
L 200.729891 200.230747 
L 199.760458 197.341369 
L 198.899383 194.373674 
L 198.082141 191.515243 
L 197.246659 188.544442 
L 196.514417 185.686122 
L 195.760638 183.006446 
L 195.121012 180.266814 
L 194.302458 177.412624 
L 193.651118 174.507972 
L 193.007115 171.432203 
L 192.202756 168.273673 
L 191.402544 164.605797 
L 190.649251 160.635908 
L 190.801792 159.676111 
L 190.958445 158.770994 
L 191.100662 157.958357 
L 191.246477 157.171495 
L 191.382259 156.441928 
L 191.512047 155.676247 
L 191.643131 154.997564 
L 191.772028 154.324503 
L 191.879858 153.663155 
L 191.979423 153.03011 
L 192.087616 152.420776 
L 192.167902 151.803156 
L 192.261652 151.189132 
L 192.328133 150.640191 
L 192.419961 150.06302 
L 192.478515 149.521969 
L 192.52137 148.979834 
L 192.59182 148.447595 
L 192.632641 147.928347 
L 192.683575 147.426426 
L 192.724428 146.924216 
L 192.756997 146.442156 
L 192.790613 145.94226 
L 192.814543 145.419416 
L 192.819621 144.895815 
L 192.855803 144.794206 
L 192.89955 144.694628 
L 192.941943 144.608071 
L 192.987313 144.534319 
L 193.03282 144.470321 
L 193.082372 144.416378 
L 193.129007 144.368296 
L 193.17654 144.327086 
L 193.223885 144.282626 
L 193.273525 144.242695 
L 193.321642 144.209617 
L 193.372499 144.18346 
L 193.421826 144.161778 
L 193.467901 144.14587 
L 193.518058 144.124378 
L 193.567442 144.102451 
L 193.617127 144.091519 
L 193.664658 144.078434 
L 193.716718 144.071165 
L 193.768399 144.060202 
L 193.818843 144.056794 
L 193.869015 144.058213 
L 193.921451 144.057109 
L 193.973119 144.058631 
" style="fill:none;stroke:#1f77b4;stroke-linecap:square;stroke-width:1.5;"/>
    <defs>
     <path d="M 0 1.5 
C 0.397805 1.5 0.77937 1.341951 1.06066 1.06066 
C 1.341951 0.77937 1.5 0.397805 1.5 0 
C 1.5 -0.397805 1.341951 -0.77937 1.06066 -1.06066 
C 0.77937 -1.341951 0.397805 -1.5 0 -1.5 
C -0.397805 -1.5 -0.77937 -1.341951 -1.06066 -1.06066 
C -1.341951 -0.77937 -1.5 -0.397805 -1.5 0 
C -1.5 0.397805 -1.341951 0.77937 -1.06066 1.06066 
C -0.77937 1.341951 -0.397805 1.5 0 1.5 
z
" id="md06f84793a" style="stroke:#1f77b4;"/>
    </defs>
    <g clip-path="url(#p6994790ee4)">
     <use style="fill:#1f77b4;stroke:#1f77b4;" x="806.984418" xlink:href="#md06f84793a" y="107.501091"/>
     <use style="fill:#1f77b4;stroke:#1f77b4;" x="712.588268" xlink:href="#md06f84793a" y="126.339768"/>
     <use style="fill:#1f77b4;stroke:#1f77b4;" x="633.153068" xlink:href="#md06f84793a" y="143.64441"/>
     <use style="fill:#1f77b4;stroke:#1f77b4;" x="566.257702" xlink:href="#md06f84793a" y="159.2856"/>
     <use style="fill:#1f77b4;stroke:#1f77b4;" x="510.161265" xlink:href="#md06f84793a" y="173.821384"/>
     <use style="fill:#1f77b4;stroke:#1f77b4;" x="462.870644" xlink:href="#md06f84793a" y="186.595805"/>
     <use style="fill:#1f77b4;stroke:#1f77b4;" x="423.181531" xlink:href="#md06f84793a" y="197.926735"/>
     <use style="fill:#1f77b4;stroke:#1f77b4;" x="389.904424" xlink:href="#md06f84793a" y="207.82211"/>
     <use style="fill:#1f77b4;stroke:#1f77b4;" x="362.020317" xlink:href="#md06f84793a" y="215.99516"/>
     <use style="fill:#1f77b4;stroke:#1f77b4;" x="338.625126" xlink:href="#md06f84793a" y="222.581469"/>
     <use style="fill:#1f77b4;stroke:#1f77b4;" x="318.975319" xlink:href="#md06f84793a" y="228.202382"/>
     <use style="fill:#1f77b4;stroke:#1f77b4;" x="302.543843" xlink:href="#md06f84793a" y="232.656402"/>
     <use style="fill:#1f77b4;stroke:#1f77b4;" x="288.603689" xlink:href="#md06f84793a" y="236.056641"/>
     <use style="fill:#1f77b4;stroke:#1f77b4;" x="276.828738" xlink:href="#md06f84793a" y="238.663969"/>
     <use style="fill:#1f77b4;stroke:#1f77b4;" x="266.971797" xlink:href="#md06f84793a" y="240.280929"/>
     <use style="fill:#1f77b4;stroke:#1f77b4;" x="258.559596" xlink:href="#md06f84793a" y="241.487711"/>
     <use style="fill:#1f77b4;stroke:#1f77b4;" x="251.430852" xlink:href="#md06f84793a" y="242.129074"/>
     <use style="fill:#1f77b4;stroke:#1f77b4;" x="245.444481" xlink:href="#md06f84793a" y="242.288794"/>
     <use style="fill:#1f77b4;stroke:#1f77b4;" x="240.096882" xlink:href="#md06f84793a" y="241.866021"/>
     <use style="fill:#1f77b4;stroke:#1f77b4;" x="235.550039" xlink:href="#md06f84793a" y="241.124622"/>
     <use style="fill:#1f77b4;stroke:#1f77b4;" x="231.496596" xlink:href="#md06f84793a" y="239.866734"/>
     <use style="fill:#1f77b4;stroke:#1f77b4;" x="227.851152" xlink:href="#md06f84793a" y="238.575436"/>
     <use style="fill:#1f77b4;stroke:#1f77b4;" x="224.755437" xlink:href="#md06f84793a" y="236.749973"/>
     <use style="fill:#1f77b4;stroke:#1f77b4;" x="221.925702" xlink:href="#md06f84793a" y="234.817597"/>
     <use style="fill:#1f77b4;stroke:#1f77b4;" x="219.28764" xlink:href="#md06f84793a" y="232.811648"/>
     <use style="fill:#1f77b4;stroke:#1f77b4;" x="217.027861" xlink:href="#md06f84793a" y="230.515155"/>
     <use style="fill:#1f77b4;stroke:#1f77b4;" x="214.93491" xlink:href="#md06f84793a" y="227.992471"/>
     <use style="fill:#1f77b4;stroke:#1f77b4;" x="212.968917" xlink:href="#md06f84793a" y="225.620084"/>
     <use style="fill:#1f77b4;stroke:#1f77b4;" x="211.255221" xlink:href="#md06f84793a" y="223.004927"/>
     <use style="fill:#1f77b4;stroke:#1f77b4;" x="209.484918" xlink:href="#md06f84793a" y="220.216447"/>
     <use style="fill:#1f77b4;stroke:#1f77b4;" x="207.959643" xlink:href="#md06f84793a" y="217.49281"/>
     <use style="fill:#1f77b4;stroke:#1f77b4;" x="206.445398" xlink:href="#md06f84793a" y="214.716767"/>
     <use style="fill:#1f77b4;stroke:#1f77b4;" x="205.143609" xlink:href="#md06f84793a" y="211.810716"/>
     <use style="fill:#1f77b4;stroke:#1f77b4;" x="203.920398" xlink:href="#md06f84793a" y="208.874528"/>
     <use style="fill:#1f77b4;stroke:#1f77b4;" x="202.764509" xlink:href="#md06f84793a" y="206.072389"/>
     <use style="fill:#1f77b4;stroke:#1f77b4;" x="201.617012" xlink:href="#md06f84793a" y="203.253595"/>
     <use style="fill:#1f77b4;stroke:#1f77b4;" x="200.729891" xlink:href="#md06f84793a" y="200.230747"/>
     <use style="fill:#1f77b4;stroke:#1f77b4;" x="199.760458" xlink:href="#md06f84793a" y="197.341369"/>
     <use style="fill:#1f77b4;stroke:#1f77b4;" x="198.899383" xlink:href="#md06f84793a" y="194.373674"/>
     <use style="fill:#1f77b4;stroke:#1f77b4;" x="198.082141" xlink:href="#md06f84793a" y="191.515243"/>
     <use style="fill:#1f77b4;stroke:#1f77b4;" x="197.246659" xlink:href="#md06f84793a" y="188.544442"/>
     <use style="fill:#1f77b4;stroke:#1f77b4;" x="196.514417" xlink:href="#md06f84793a" y="185.686122"/>
     <use style="fill:#1f77b4;stroke:#1f77b4;" x="195.760638" xlink:href="#md06f84793a" y="183.006446"/>
     <use style="fill:#1f77b4;stroke:#1f77b4;" x="195.121012" xlink:href="#md06f84793a" y="180.266814"/>
     <use style="fill:#1f77b4;stroke:#1f77b4;" x="194.302458" xlink:href="#md06f84793a" y="177.412624"/>
     <use style="fill:#1f77b4;stroke:#1f77b4;" x="193.651118" xlink:href="#md06f84793a" y="174.507972"/>
     <use style="fill:#1f77b4;stroke:#1f77b4;" x="193.007115" xlink:href="#md06f84793a" y="171.432203"/>
     <use style="fill:#1f77b4;stroke:#1f77b4;" x="192.202756" xlink:href="#md06f84793a" y="168.273673"/>
     <use style="fill:#1f77b4;stroke:#1f77b4;" x="191.402544" xlink:href="#md06f84793a" y="164.605797"/>
     <use style="fill:#1f77b4;stroke:#1f77b4;" x="190.649251" xlink:href="#md06f84793a" y="160.635908"/>
     <use style="fill:#1f77b4;stroke:#1f77b4;" x="190.801792" xlink:href="#md06f84793a" y="159.676111"/>
     <use style="fill:#1f77b4;stroke:#1f77b4;" x="190.958445" xlink:href="#md06f84793a" y="158.770994"/>
     <use style="fill:#1f77b4;stroke:#1f77b4;" x="191.100662" xlink:href="#md06f84793a" y="157.958357"/>
     <use style="fill:#1f77b4;stroke:#1f77b4;" x="191.246477" xlink:href="#md06f84793a" y="157.171495"/>
     <use style="fill:#1f77b4;stroke:#1f77b4;" x="191.382259" xlink:href="#md06f84793a" y="156.441928"/>
     <use style="fill:#1f77b4;stroke:#1f77b4;" x="191.512047" xlink:href="#md06f84793a" y="155.676247"/>
     <use style="fill:#1f77b4;stroke:#1f77b4;" x="191.643131" xlink:href="#md06f84793a" y="154.997564"/>
     <use style="fill:#1f77b4;stroke:#1f77b4;" x="191.772028" xlink:href="#md06f84793a" y="154.324503"/>
     <use style="fill:#1f77b4;stroke:#1f77b4;" x="191.879858" xlink:href="#md06f84793a" y="153.663155"/>
     <use style="fill:#1f77b4;stroke:#1f77b4;" x="191.979423" xlink:href="#md06f84793a" y="153.03011"/>
     <use style="fill:#1f77b4;stroke:#1f77b4;" x="192.087616" xlink:href="#md06f84793a" y="152.420776"/>
     <use style="fill:#1f77b4;stroke:#1f77b4;" x="192.167902" xlink:href="#md06f84793a" y="151.803156"/>
     <use style="fill:#1f77b4;stroke:#1f77b4;" x="192.261652" xlink:href="#md06f84793a" y="151.189132"/>
     <use style="fill:#1f77b4;stroke:#1f77b4;" x="192.328133" xlink:href="#md06f84793a" y="150.640191"/>
     <use style="fill:#1f77b4;stroke:#1f77b4;" x="192.419961" xlink:href="#md06f84793a" y="150.06302"/>
     <use style="fill:#1f77b4;stroke:#1f77b4;" x="192.478515" xlink:href="#md06f84793a" y="149.521969"/>
     <use style="fill:#1f77b4;stroke:#1f77b4;" x="192.52137" xlink:href="#md06f84793a" y="148.979834"/>
     <use style="fill:#1f77b4;stroke:#1f77b4;" x="192.59182" xlink:href="#md06f84793a" y="148.447595"/>
     <use style="fill:#1f77b4;stroke:#1f77b4;" x="192.632641" xlink:href="#md06f84793a" y="147.928347"/>
     <use style="fill:#1f77b4;stroke:#1f77b4;" x="192.683575" xlink:href="#md06f84793a" y="147.426426"/>
     <use style="fill:#1f77b4;stroke:#1f77b4;" x="192.724428" xlink:href="#md06f84793a" y="146.924216"/>
     <use style="fill:#1f77b4;stroke:#1f77b4;" x="192.756997" xlink:href="#md06f84793a" y="146.442156"/>
     <use style="fill:#1f77b4;stroke:#1f77b4;" x="192.790613" xlink:href="#md06f84793a" y="145.94226"/>
     <use style="fill:#1f77b4;stroke:#1f77b4;" x="192.814543" xlink:href="#md06f84793a" y="145.419416"/>
     <use style="fill:#1f77b4;stroke:#1f77b4;" x="192.819621" xlink:href="#md06f84793a" y="144.895815"/>
     <use style="fill:#1f77b4;stroke:#1f77b4;" x="192.855803" xlink:href="#md06f84793a" y="144.794206"/>
     <use style="fill:#1f77b4;stroke:#1f77b4;" x="192.89955" xlink:href="#md06f84793a" y="144.694628"/>
     <use style="fill:#1f77b4;stroke:#1f77b4;" x="192.941943" xlink:href="#md06f84793a" y="144.608071"/>
     <use style="fill:#1f77b4;stroke:#1f77b4;" x="192.987313" xlink:href="#md06f84793a" y="144.534319"/>
     <use style="fill:#1f77b4;stroke:#1f77b4;" x="193.03282" xlink:href="#md06f84793a" y="144.470321"/>
     <use style="fill:#1f77b4;stroke:#1f77b4;" x="193.082372" xlink:href="#md06f84793a" y="144.416378"/>
     <use style="fill:#1f77b4;stroke:#1f77b4;" x="193.129007" xlink:href="#md06f84793a" y="144.368296"/>
     <use style="fill:#1f77b4;stroke:#1f77b4;" x="193.17654" xlink:href="#md06f84793a" y="144.327086"/>
     <use style="fill:#1f77b4;stroke:#1f77b4;" x="193.223885" xlink:href="#md06f84793a" y="144.282626"/>
     <use style="fill:#1f77b4;stroke:#1f77b4;" x="193.273525" xlink:href="#md06f84793a" y="144.242695"/>
     <use style="fill:#1f77b4;stroke:#1f77b4;" x="193.321642" xlink:href="#md06f84793a" y="144.209617"/>
     <use style="fill:#1f77b4;stroke:#1f77b4;" x="193.372499" xlink:href="#md06f84793a" y="144.18346"/>
     <use style="fill:#1f77b4;stroke:#1f77b4;" x="193.421826" xlink:href="#md06f84793a" y="144.161778"/>
     <use style="fill:#1f77b4;stroke:#1f77b4;" x="193.467901" xlink:href="#md06f84793a" y="144.14587"/>
     <use style="fill:#1f77b4;stroke:#1f77b4;" x="193.518058" xlink:href="#md06f84793a" y="144.124378"/>
     <use style="fill:#1f77b4;stroke:#1f77b4;" x="193.567442" xlink:href="#md06f84793a" y="144.102451"/>
     <use style="fill:#1f77b4;stroke:#1f77b4;" x="193.617127" xlink:href="#md06f84793a" y="144.091519"/>
     <use style="fill:#1f77b4;stroke:#1f77b4;" x="193.664658" xlink:href="#md06f84793a" y="144.078434"/>
     <use style="fill:#1f77b4;stroke:#1f77b4;" x="193.716718" xlink:href="#md06f84793a" y="144.071165"/>
     <use style="fill:#1f77b4;stroke:#1f77b4;" x="193.768399" xlink:href="#md06f84793a" y="144.060202"/>
     <use style="fill:#1f77b4;stroke:#1f77b4;" x="193.818843" xlink:href="#md06f84793a" y="144.056794"/>
     <use style="fill:#1f77b4;stroke:#1f77b4;" x="193.869015" xlink:href="#md06f84793a" y="144.058213"/>
     <use style="fill:#1f77b4;stroke:#1f77b4;" x="193.921451" xlink:href="#md06f84793a" y="144.057109"/>
     <use style="fill:#1f77b4;stroke:#1f77b4;" x="193.973119" xlink:href="#md06f84793a" y="144.058631"/>
    </g>
   </g>
   <g id="patch_3">
    <path d="M 35.304688 277.111219 
L 35.304688 10.999219 
" style="fill:none;stroke:#000000;stroke-linecap:square;stroke-linejoin:miter;stroke-width:0.8;"/>
   </g>
   <g id="patch_4">
    <path d="M 392.424688 277.111219 
L 392.424688 10.999219 
" style="fill:none;stroke:#000000;stroke-linecap:square;stroke-linejoin:miter;stroke-width:0.8;"/>
   </g>
   <g id="patch_5">
    <path d="M 35.304687 277.111219 
L 392.424688 277.111219 
" style="fill:none;stroke:#000000;stroke-linecap:square;stroke-linejoin:miter;stroke-width:0.8;"/>
   </g>
   <g id="patch_6">
    <path d="M 35.304687 10.999219 
L 392.424688 10.999219 
" style="fill:none;stroke:#000000;stroke-linecap:square;stroke-linejoin:miter;stroke-width:0.8;"/>
   </g>
   <g id="text_20">
    <g clip-path="url(#p6994790ee4)">
     <!-- 1.000 -->
     <g style="fill:#482576;" transform="translate(195.367972 129.472979)rotate(-308.317663)scale(0.06 -0.06)">
      <defs>
       <path d="M 10.6875 12.40625 
L 21 12.40625 
L 21 0 
L 10.6875 0 
z
" id="DejaVuSans-46"/>
      </defs>
      <use xlink:href="#DejaVuSans-49"/>
      <use x="63.623047" xlink:href="#DejaVuSans-46"/>
      <use x="95.410156" xlink:href="#DejaVuSans-48"/>
      <use x="159.033203" xlink:href="#DejaVuSans-48"/>
      <use x="222.65625" xlink:href="#DejaVuSans-48"/>
     </g>
    </g>
   </g>
   <g id="text_21">
    <g clip-path="url(#p6994790ee4)">
     <!-- 1.500 -->
     <g style="fill:#453781;" transform="translate(196.651062 128.301071)rotate(-297.18054)scale(0.06 -0.06)">
      <use xlink:href="#DejaVuSans-49"/>
      <use x="63.623047" xlink:href="#DejaVuSans-46"/>
      <use x="95.410156" xlink:href="#DejaVuSans-53"/>
      <use x="159.033203" xlink:href="#DejaVuSans-48"/>
      <use x="222.65625" xlink:href="#DejaVuSans-48"/>
     </g>
    </g>
   </g>
   <g id="text_22">
    <g clip-path="url(#p6994790ee4)">
     <!-- 2.000 -->
     <g style="fill:#404688;" transform="translate(182.657604 126.78945)rotate(-352.202027)scale(0.06 -0.06)">
      <use xlink:href="#DejaVuSans-50"/>
      <use x="63.623047" xlink:href="#DejaVuSans-46"/>
      <use x="95.410156" xlink:href="#DejaVuSans-48"/>
      <use x="159.033203" xlink:href="#DejaVuSans-48"/>
      <use x="222.65625" xlink:href="#DejaVuSans-48"/>
     </g>
    </g>
   </g>
   <g id="text_23">
    <g clip-path="url(#p6994790ee4)">
     <!-- 2.500 -->
     <g style="fill:#39558c;" transform="translate(195.972015 125.021371)rotate(-302.299856)scale(0.06 -0.06)">
      <use xlink:href="#DejaVuSans-50"/>
      <use x="63.623047" xlink:href="#DejaVuSans-46"/>
      <use x="95.410156" xlink:href="#DejaVuSans-53"/>
      <use x="159.033203" xlink:href="#DejaVuSans-48"/>
      <use x="222.65625" xlink:href="#DejaVuSans-48"/>
     </g>
    </g>
   </g>
   <g id="text_24">
    <g clip-path="url(#p6994790ee4)">
     <!-- 3.000 -->
     <g style="fill:#33638d;" transform="translate(152.764766 141.520872)rotate(-35.508093)scale(0.06 -0.06)">
      <defs>
       <path d="M 40.578125 39.3125 
Q 47.65625 37.796875 51.625 33 
Q 55.609375 28.21875 55.609375 21.1875 
Q 55.609375 10.40625 48.1875 4.484375 
Q 40.765625 -1.421875 27.09375 -1.421875 
Q 22.515625 -1.421875 17.65625 -0.515625 
Q 12.796875 0.390625 7.625 2.203125 
L 7.625 11.71875 
Q 11.71875 9.328125 16.59375 8.109375 
Q 21.484375 6.890625 26.8125 6.890625 
Q 36.078125 6.890625 40.9375 10.546875 
Q 45.796875 14.203125 45.796875 21.1875 
Q 45.796875 27.640625 41.28125 31.265625 
Q 36.765625 34.90625 28.71875 34.90625 
L 20.21875 34.90625 
L 20.21875 43.015625 
L 29.109375 43.015625 
Q 36.375 43.015625 40.234375 45.921875 
Q 44.09375 48.828125 44.09375 54.296875 
Q 44.09375 59.90625 40.109375 62.90625 
Q 36.140625 65.921875 28.71875 65.921875 
Q 24.65625 65.921875 20.015625 65.03125 
Q 15.375 64.15625 9.8125 62.3125 
L 9.8125 71.09375 
Q 15.4375 72.65625 20.34375 73.4375 
Q 25.25 74.21875 29.59375 74.21875 
Q 40.828125 74.21875 47.359375 69.109375 
Q 53.90625 64.015625 53.90625 55.328125 
Q 53.90625 49.265625 50.4375 45.09375 
Q 46.96875 40.921875 40.578125 39.3125 
z
" id="DejaVuSans-51"/>
      </defs>
      <use xlink:href="#DejaVuSans-51"/>
      <use x="63.623047" xlink:href="#DejaVuSans-46"/>
      <use x="95.410156" xlink:href="#DejaVuSans-48"/>
      <use x="159.033203" xlink:href="#DejaVuSans-48"/>
      <use x="222.65625" xlink:href="#DejaVuSans-48"/>
     </g>
    </g>
   </g>
   <g id="text_25">
    <g clip-path="url(#p6994790ee4)">
     <!-- 3.500 -->
     <g style="fill:#2d718e;" transform="translate(150.462692 152.787438)rotate(-82.370471)scale(0.06 -0.06)">
      <use xlink:href="#DejaVuSans-51"/>
      <use x="63.623047" xlink:href="#DejaVuSans-46"/>
      <use x="95.410156" xlink:href="#DejaVuSans-53"/>
      <use x="159.033203" xlink:href="#DejaVuSans-48"/>
      <use x="222.65625" xlink:href="#DejaVuSans-48"/>
     </g>
    </g>
   </g>
   <g id="text_26">
    <g clip-path="url(#p6994790ee4)">
     <!-- 4.000 -->
     <g style="fill:#287d8e;" transform="translate(150.876823 162.295277)rotate(-275.936554)scale(0.06 -0.06)">
      <defs>
       <path d="M 37.796875 64.3125 
L 12.890625 25.390625 
L 37.796875 25.390625 
z
M 35.203125 72.90625 
L 47.609375 72.90625 
L 47.609375 25.390625 
L 58.015625 25.390625 
L 58.015625 17.1875 
L 47.609375 17.1875 
L 47.609375 0 
L 37.796875 0 
L 37.796875 17.1875 
L 4.890625 17.1875 
L 4.890625 26.703125 
z
" id="DejaVuSans-52"/>
      </defs>
      <use xlink:href="#DejaVuSans-52"/>
      <use x="63.623047" xlink:href="#DejaVuSans-46"/>
      <use x="95.410156" xlink:href="#DejaVuSans-48"/>
      <use x="159.033203" xlink:href="#DejaVuSans-48"/>
      <use x="222.65625" xlink:href="#DejaVuSans-48"/>
     </g>
    </g>
   </g>
   <g id="text_27">
    <g clip-path="url(#p6994790ee4)">
     <!-- 4.500 -->
     <g style="fill:#238a8d;" transform="translate(150.029609 162.422682)rotate(-278.611007)scale(0.06 -0.06)">
      <use xlink:href="#DejaVuSans-52"/>
      <use x="63.623047" xlink:href="#DejaVuSans-46"/>
      <use x="95.410156" xlink:href="#DejaVuSans-53"/>
      <use x="159.033203" xlink:href="#DejaVuSans-48"/>
      <use x="222.65625" xlink:href="#DejaVuSans-48"/>
     </g>
    </g>
   </g>
   <g id="text_28">
    <g clip-path="url(#p6994790ee4)">
     <!-- 5.000 -->
     <g style="fill:#1f968b;" transform="translate(148.824826 181.467982)rotate(-296.587409)scale(0.06 -0.06)">
      <use xlink:href="#DejaVuSans-53"/>
      <use x="63.623047" xlink:href="#DejaVuSans-46"/>
      <use x="95.410156" xlink:href="#DejaVuSans-48"/>
      <use x="159.033203" xlink:href="#DejaVuSans-48"/>
      <use x="222.65625" xlink:href="#DejaVuSans-48"/>
     </g>
    </g>
   </g>
   <g id="text_29">
    <g clip-path="url(#p6994790ee4)">
     <!-- 5.500 -->
     <g style="fill:#20a386;" transform="translate(148.823994 181.392643)rotate(-295.769045)scale(0.06 -0.06)">
      <use xlink:href="#DejaVuSans-53"/>
      <use x="63.623047" xlink:href="#DejaVuSans-46"/>
      <use x="95.410156" xlink:href="#DejaVuSans-53"/>
      <use x="159.033203" xlink:href="#DejaVuSans-48"/>
      <use x="222.65625" xlink:href="#DejaVuSans-48"/>
     </g>
    </g>
   </g>
   <g id="text_30">
    <g clip-path="url(#p6994790ee4)">
     <!-- 6.000 -->
     <g style="fill:#29af7f;" transform="translate(148.823304 181.319402)rotate(-294.958142)scale(0.06 -0.06)">
      <defs>
       <path d="M 33.015625 40.375 
Q 26.375 40.375 22.484375 35.828125 
Q 18.609375 31.296875 18.609375 23.390625 
Q 18.609375 15.53125 22.484375 10.953125 
Q 26.375 6.390625 33.015625 6.390625 
Q 39.65625 6.390625 43.53125 10.953125 
Q 47.40625 15.53125 47.40625 23.390625 
Q 47.40625 31.296875 43.53125 35.828125 
Q 39.65625 40.375 33.015625 40.375 
z
M 52.59375 71.296875 
L 52.59375 62.3125 
Q 48.875 64.0625 45.09375 64.984375 
Q 41.3125 65.921875 37.59375 65.921875 
Q 27.828125 65.921875 22.671875 59.328125 
Q 17.53125 52.734375 16.796875 39.40625 
Q 19.671875 43.65625 24.015625 45.921875 
Q 28.375 48.1875 33.59375 48.1875 
Q 44.578125 48.1875 50.953125 41.515625 
Q 57.328125 34.859375 57.328125 23.390625 
Q 57.328125 12.15625 50.6875 5.359375 
Q 44.046875 -1.421875 33.015625 -1.421875 
Q 20.359375 -1.421875 13.671875 8.265625 
Q 6.984375 17.96875 6.984375 36.375 
Q 6.984375 53.65625 15.1875 63.9375 
Q 23.390625 74.21875 37.203125 74.21875 
Q 40.921875 74.21875 44.703125 73.484375 
Q 48.484375 72.75 52.59375 71.296875 
z
" id="DejaVuSans-54"/>
      </defs>
      <use xlink:href="#DejaVuSans-54"/>
      <use x="63.623047" xlink:href="#DejaVuSans-46"/>
      <use x="95.410156" xlink:href="#DejaVuSans-48"/>
      <use x="159.033203" xlink:href="#DejaVuSans-48"/>
      <use x="222.65625" xlink:href="#DejaVuSans-48"/>
     </g>
    </g>
   </g>
   <g id="text_31">
    <g clip-path="url(#p6994790ee4)">
     <!-- 6.500 -->
     <g style="fill:#3dbc74;" transform="translate(148.82276 181.2482)rotate(-294.154288)scale(0.06 -0.06)">
      <use xlink:href="#DejaVuSans-54"/>
      <use x="63.623047" xlink:href="#DejaVuSans-46"/>
      <use x="95.410156" xlink:href="#DejaVuSans-53"/>
      <use x="159.033203" xlink:href="#DejaVuSans-48"/>
      <use x="222.65625" xlink:href="#DejaVuSans-48"/>
     </g>
    </g>
   </g>
   <g id="text_32">
    <g clip-path="url(#p6994790ee4)">
     <!-- 7.000 -->
     <g style="fill:#56c667;" transform="translate(148.822367 181.178977)rotate(-293.357083)scale(0.06 -0.06)">
      <defs>
       <path d="M 8.203125 72.90625 
L 55.078125 72.90625 
L 55.078125 68.703125 
L 28.609375 0 
L 18.3125 0 
L 43.21875 64.59375 
L 8.203125 64.59375 
z
" id="DejaVuSans-55"/>
      </defs>
      <use xlink:href="#DejaVuSans-55"/>
      <use x="63.623047" xlink:href="#DejaVuSans-46"/>
      <use x="95.410156" xlink:href="#DejaVuSans-48"/>
      <use x="159.033203" xlink:href="#DejaVuSans-48"/>
      <use x="222.65625" xlink:href="#DejaVuSans-48"/>
     </g>
    </g>
   </g>
   <g id="text_33">
    <g clip-path="url(#p6994790ee4)">
     <!-- 7.500 -->
     <g style="fill:#75d054;" transform="translate(157.475899 205.658847)rotate(-345.882651)scale(0.06 -0.06)">
      <use xlink:href="#DejaVuSans-55"/>
      <use x="63.623047" xlink:href="#DejaVuSans-46"/>
      <use x="95.410156" xlink:href="#DejaVuSans-53"/>
      <use x="159.033203" xlink:href="#DejaVuSans-48"/>
      <use x="222.65625" xlink:href="#DejaVuSans-48"/>
     </g>
    </g>
   </g>
   <g id="text_34">
    <g clip-path="url(#p6994790ee4)">
     <!-- 8.000 -->
     <g style="fill:#95d840;" transform="translate(157.338913 205.437523)rotate(-344.429373)scale(0.06 -0.06)">
      <defs>
       <path d="M 31.78125 34.625 
Q 24.75 34.625 20.71875 30.859375 
Q 16.703125 27.09375 16.703125 20.515625 
Q 16.703125 13.921875 20.71875 10.15625 
Q 24.75 6.390625 31.78125 6.390625 
Q 38.8125 6.390625 42.859375 10.171875 
Q 46.921875 13.96875 46.921875 20.515625 
Q 46.921875 27.09375 42.890625 30.859375 
Q 38.875 34.625 31.78125 34.625 
z
M 21.921875 38.8125 
Q 15.578125 40.375 12.03125 44.71875 
Q 8.5 49.078125 8.5 55.328125 
Q 8.5 64.0625 14.71875 69.140625 
Q 20.953125 74.21875 31.78125 74.21875 
Q 42.671875 74.21875 48.875 69.140625 
Q 55.078125 64.0625 55.078125 55.328125 
Q 55.078125 49.078125 51.53125 44.71875 
Q 48 40.375 41.703125 38.8125 
Q 48.828125 37.15625 52.796875 32.3125 
Q 56.78125 27.484375 56.78125 20.515625 
Q 56.78125 9.90625 50.3125 4.234375 
Q 43.84375 -1.421875 31.78125 -1.421875 
Q 19.734375 -1.421875 13.25 4.234375 
Q 6.78125 9.90625 6.78125 20.515625 
Q 6.78125 27.484375 10.78125 32.3125 
Q 14.796875 37.15625 21.921875 38.8125 
z
M 18.3125 54.390625 
Q 18.3125 48.734375 21.84375 45.5625 
Q 25.390625 42.390625 31.78125 42.390625 
Q 38.140625 42.390625 41.71875 45.5625 
Q 45.3125 48.734375 45.3125 54.390625 
Q 45.3125 60.0625 41.71875 63.234375 
Q 38.140625 66.40625 31.78125 66.40625 
Q 25.390625 66.40625 21.84375 63.234375 
Q 18.3125 60.0625 18.3125 54.390625 
z
" id="DejaVuSans-56"/>
      </defs>
      <use xlink:href="#DejaVuSans-56"/>
      <use x="63.623047" xlink:href="#DejaVuSans-46"/>
      <use x="95.410156" xlink:href="#DejaVuSans-48"/>
      <use x="159.033203" xlink:href="#DejaVuSans-48"/>
      <use x="222.65625" xlink:href="#DejaVuSans-48"/>
     </g>
    </g>
   </g>
   <g id="text_35">
    <g clip-path="url(#p6994790ee4)">
     <!-- 8.500 -->
     <g style="fill:#bade28;" transform="translate(157.205924 205.231832)rotate(-343.076064)scale(0.06 -0.06)">
      <use xlink:href="#DejaVuSans-56"/>
      <use x="63.623047" xlink:href="#DejaVuSans-46"/>
      <use x="95.410156" xlink:href="#DejaVuSans-53"/>
      <use x="159.033203" xlink:href="#DejaVuSans-48"/>
      <use x="222.65625" xlink:href="#DejaVuSans-48"/>
     </g>
    </g>
   </g>
   <g id="text_36">
    <g clip-path="url(#p6994790ee4)">
     <!-- 9.000 -->
     <g style="fill:#dde318;" transform="translate(157.076314 205.038113)rotate(-341.798453)scale(0.06 -0.06)">
      <defs>
       <path d="M 10.984375 1.515625 
L 10.984375 10.5 
Q 14.703125 8.734375 18.5 7.8125 
Q 22.3125 6.890625 25.984375 6.890625 
Q 35.75 6.890625 40.890625 13.453125 
Q 46.046875 20.015625 46.78125 33.40625 
Q 43.953125 29.203125 39.59375 26.953125 
Q 35.25 24.703125 29.984375 24.703125 
Q 19.046875 24.703125 12.671875 31.3125 
Q 6.296875 37.9375 6.296875 49.421875 
Q 6.296875 60.640625 12.9375 67.421875 
Q 19.578125 74.21875 30.609375 74.21875 
Q 43.265625 74.21875 49.921875 64.515625 
Q 56.59375 54.828125 56.59375 36.375 
Q 56.59375 19.140625 48.40625 8.859375 
Q 40.234375 -1.421875 26.421875 -1.421875 
Q 22.703125 -1.421875 18.890625 -0.6875 
Q 15.09375 0.046875 10.984375 1.515625 
z
M 30.609375 32.421875 
Q 37.25 32.421875 41.125 36.953125 
Q 45.015625 41.5 45.015625 49.421875 
Q 45.015625 57.28125 41.125 61.84375 
Q 37.25 66.40625 30.609375 66.40625 
Q 23.96875 66.40625 20.09375 61.84375 
Q 16.21875 57.28125 16.21875 49.421875 
Q 16.21875 41.5 20.09375 36.953125 
Q 23.96875 32.421875 30.609375 32.421875 
z
" id="DejaVuSans-57"/>
      </defs>
      <use xlink:href="#DejaVuSans-57"/>
      <use x="63.623047" xlink:href="#DejaVuSans-46"/>
      <use x="95.410156" xlink:href="#DejaVuSans-48"/>
      <use x="159.033203" xlink:href="#DejaVuSans-48"/>
      <use x="222.65625" xlink:href="#DejaVuSans-48"/>
     </g>
    </g>
   </g>
   <g id="text_37">
    <g clip-path="url(#p6994790ee4)">
     <!-- 9.500 -->
     <g style="fill:#fde725;" transform="translate(156.949724 204.853559)rotate(-340.577893)scale(0.06 -0.06)">
      <use xlink:href="#DejaVuSans-57"/>
      <use x="63.623047" xlink:href="#DejaVuSans-46"/>
      <use x="95.410156" xlink:href="#DejaVuSans-53"/>
      <use x="159.033203" xlink:href="#DejaVuSans-48"/>
      <use x="222.65625" xlink:href="#DejaVuSans-48"/>
     </g>
    </g>
   </g>
   <g id="text_38">
    <g clip-path="url(#p6994790ee4)">
     <!-- 10.000 -->
     <g style="fill:#440154;" transform="translate(137.594348 154.158264)rotate(-288.169121)scale(0.06 -0.06)">
      <use xlink:href="#DejaVuSans-49"/>
      <use x="63.623047" xlink:href="#DejaVuSans-48"/>
      <use x="127.246094" xlink:href="#DejaVuSans-46"/>
      <use x="159.033203" xlink:href="#DejaVuSans-48"/>
      <use x="222.65625" xlink:href="#DejaVuSans-48"/>
      <use x="286.279297" xlink:href="#DejaVuSans-48"/>
     </g>
    </g>
   </g>
   <g id="text_39">
    <g clip-path="url(#p6994790ee4)">
     <!-- 100.000 -->
     <g style="fill:#440154;" transform="translate(143.373909 124.201085)rotate(-21.170126)scale(0.06 -0.06)">
      <use xlink:href="#DejaVuSans-49"/>
      <use x="63.623047" xlink:href="#DejaVuSans-48"/>
      <use x="127.246094" xlink:href="#DejaVuSans-48"/>
      <use x="190.869141" xlink:href="#DejaVuSans-46"/>
      <use x="222.65625" xlink:href="#DejaVuSans-48"/>
      <use x="286.279297" xlink:href="#DejaVuSans-48"/>
      <use x="349.902344" xlink:href="#DejaVuSans-48"/>
     </g>
    </g>
   </g>
   <g id="text_40">
    <g clip-path="url(#p6994790ee4)">
     <!-- 1000.000 -->
     <g style="fill:#440154;" transform="translate(135.650667 203.810072)rotate(-302.341935)scale(0.06 -0.06)">
      <use xlink:href="#DejaVuSans-49"/>
      <use x="63.623047" xlink:href="#DejaVuSans-48"/>
      <use x="127.246094" xlink:href="#DejaVuSans-48"/>
      <use x="190.869141" xlink:href="#DejaVuSans-48"/>
      <use x="254.492188" xlink:href="#DejaVuSans-46"/>
      <use x="286.279297" xlink:href="#DejaVuSans-48"/>
      <use x="349.902344" xlink:href="#DejaVuSans-48"/>
      <use x="413.525391" xlink:href="#DejaVuSans-48"/>
     </g>
    </g>
   </g>
   <g id="text_41">
    <g clip-path="url(#p6994790ee4)">
     <!-- 10000.000 -->
     <g style="fill:#440154;" transform="translate(130.872413 214.638936)rotate(-309.35715)scale(0.06 -0.06)">
      <use xlink:href="#DejaVuSans-49"/>
      <use x="63.623047" xlink:href="#DejaVuSans-48"/>
      <use x="127.246094" xlink:href="#DejaVuSans-48"/>
      <use x="190.869141" xlink:href="#DejaVuSans-48"/>
      <use x="254.492188" xlink:href="#DejaVuSans-48"/>
      <use x="318.115234" xlink:href="#DejaVuSans-46"/>
      <use x="349.902344" xlink:href="#DejaVuSans-48"/>
      <use x="413.525391" xlink:href="#DejaVuSans-48"/>
      <use x="477.148438" xlink:href="#DejaVuSans-48"/>
     </g>
    </g>
   </g>
   <g id="text_42">
    <g clip-path="url(#p6994790ee4)">
     <!-- 100000.000 -->
     <g style="fill:#440154;" transform="translate(128.204712 225.640181)rotate(-316.214908)scale(0.06 -0.06)">
      <use xlink:href="#DejaVuSans-49"/>
      <use x="63.623047" xlink:href="#DejaVuSans-48"/>
      <use x="127.246094" xlink:href="#DejaVuSans-48"/>
      <use x="190.869141" xlink:href="#DejaVuSans-48"/>
      <use x="254.492188" xlink:href="#DejaVuSans-48"/>
      <use x="318.115234" xlink:href="#DejaVuSans-48"/>
      <use x="381.738281" xlink:href="#DejaVuSans-46"/>
      <use x="413.525391" xlink:href="#DejaVuSans-48"/>
      <use x="477.148438" xlink:href="#DejaVuSans-48"/>
      <use x="540.771484" xlink:href="#DejaVuSans-48"/>
     </g>
    </g>
   </g>
   <g id="text_43">
    <g clip-path="url(#p6994790ee4)">
     <!-- 1000000.000 -->
     <g style="fill:#450457;" transform="translate(104.843201 199.528691)rotate(-304.898326)scale(0.06 -0.06)">
      <use xlink:href="#DejaVuSans-49"/>
      <use x="63.623047" xlink:href="#DejaVuSans-48"/>
      <use x="127.246094" xlink:href="#DejaVuSans-48"/>
      <use x="190.869141" xlink:href="#DejaVuSans-48"/>
      <use x="254.492188" xlink:href="#DejaVuSans-48"/>
      <use x="318.115234" xlink:href="#DejaVuSans-48"/>
      <use x="381.738281" xlink:href="#DejaVuSans-48"/>
      <use x="445.361328" xlink:href="#DejaVuSans-46"/>
      <use x="477.148438" xlink:href="#DejaVuSans-48"/>
      <use x="540.771484" xlink:href="#DejaVuSans-48"/>
      <use x="604.394531" xlink:href="#DejaVuSans-48"/>
     </g>
    </g>
   </g>
   <g id="text_44">
    <g clip-path="url(#p6994790ee4)">
     <!-- 10000000.000 -->
     <g style="fill:#482475;" transform="translate(87.407599 172.818125)rotate(-285.377977)scale(0.06 -0.06)">
      <use xlink:href="#DejaVuSans-49"/>
      <use x="63.623047" xlink:href="#DejaVuSans-48"/>
      <use x="127.246094" xlink:href="#DejaVuSans-48"/>
      <use x="190.869141" xlink:href="#DejaVuSans-48"/>
      <use x="254.492188" xlink:href="#DejaVuSans-48"/>
      <use x="318.115234" xlink:href="#DejaVuSans-48"/>
      <use x="381.738281" xlink:href="#DejaVuSans-48"/>
      <use x="445.361328" xlink:href="#DejaVuSans-48"/>
      <use x="508.984375" xlink:href="#DejaVuSans-46"/>
      <use x="540.771484" xlink:href="#DejaVuSans-48"/>
      <use x="604.394531" xlink:href="#DejaVuSans-48"/>
      <use x="668.017578" xlink:href="#DejaVuSans-48"/>
     </g>
    </g>
   </g>
   <g id="text_45">
    <g clip-path="url(#p6994790ee4)">
     <!-- 100000000.000 -->
     <g style="fill:#fde725;" transform="translate(87.642399 132.393606)rotate(-68.553847)scale(0.06 -0.06)">
      <use xlink:href="#DejaVuSans-49"/>
      <use x="63.623047" xlink:href="#DejaVuSans-48"/>
      <use x="127.246094" xlink:href="#DejaVuSans-48"/>
      <use x="190.869141" xlink:href="#DejaVuSans-48"/>
      <use x="254.492188" xlink:href="#DejaVuSans-48"/>
      <use x="318.115234" xlink:href="#DejaVuSans-48"/>
      <use x="381.738281" xlink:href="#DejaVuSans-48"/>
      <use x="445.361328" xlink:href="#DejaVuSans-48"/>
      <use x="508.984375" xlink:href="#DejaVuSans-48"/>
      <use x="572.607422" xlink:href="#DejaVuSans-46"/>
      <use x="604.394531" xlink:href="#DejaVuSans-48"/>
      <use x="668.017578" xlink:href="#DejaVuSans-48"/>
      <use x="731.640625" xlink:href="#DejaVuSans-48"/>
     </g>
    </g>
   </g>
  </g>
 </g>
 <defs>
  <clipPath id="p6994790ee4">
   <rect height="266.112" width="357.12" x="35.304688" y="10.999219"/>
  </clipPath>
 </defs>
</svg>
