<?xml version="1.0" encoding="utf-8" standalone="no"?>
<!DOCTYPE svg PUBLIC "-//W3C//DTD SVG 1.1//EN"
  "http://www.w3.org/Graphics/SVG/1.1/DTD/svg11.dtd">
<!-- Created with matplotlib (https://matplotlib.org/) -->
<svg height="300.989344pt" version="1.1" viewBox="0 0 405.987188 300.989344" width="405.987188pt" xmlns="http://www.w3.org/2000/svg" xmlns:xlink="http://www.w3.org/1999/xlink">
 <metadata>
  <rdf:RDF xmlns:cc="http://creativecommons.org/ns#" xmlns:dc="http://purl.org/dc/elements/1.1/" xmlns:rdf="http://www.w3.org/1999/02/22-rdf-syntax-ns#">
   <cc:Work>
    <dc:type rdf:resource="http://purl.org/dc/dcmitype/StillImage"/>
    <dc:date>2021-09-23T00:07:11.152578</dc:date>
    <dc:format>image/svg+xml</dc:format>
    <dc:creator>
     <cc:Agent>
      <dc:title>Matplotlib v3.3.1, https://matplotlib.org/</dc:title>
     </cc:Agent>
    </dc:creator>
   </cc:Work>
  </rdf:RDF>
 </metadata>
 <defs>
  <style type="text/css">*{stroke-linecap:butt;stroke-linejoin:round;}</style>
 </defs>
 <g id="figure_1">
  <g id="patch_1">
   <path d="M 0 300.989344 
L 405.987188 300.989344 
L 405.987188 0 
L 0 0 
z
" style="fill:#ffffff;"/>
  </g>
  <g id="axes_1">
   <g id="patch_2">
    <path d="M 35.304688 277.111219 
L 392.424688 277.111219 
L 392.424688 10.999219 
L 35.304688 10.999219 
z
" style="fill:#ffffff;"/>
   </g>
   <g id="matplotlib.axis_1">
    <g id="xtick_1">
     <g id="line2d_1">
      <defs>
       <path d="M 0 0 
L 0 3.5 
" id="mfae6d81db3" style="stroke:#000000;stroke-width:0.8;"/>
      </defs>
      <g>
       <use style="stroke:#000000;stroke-width:0.8;" x="35.304687" xlink:href="#mfae6d81db3" y="277.111219"/>
      </g>
     </g>
     <g id="text_1">
      <!-- −20 -->
      <g transform="translate(24.752344 291.709656)scale(0.1 -0.1)">
       <defs>
        <path d="M 10.59375 35.5 
L 73.1875 35.5 
L 73.1875 27.203125 
L 10.59375 27.203125 
z
" id="DejaVuSans-8722"/>
        <path d="M 19.1875 8.296875 
L 53.609375 8.296875 
L 53.609375 0 
L 7.328125 0 
L 7.328125 8.296875 
Q 12.9375 14.109375 22.625 23.890625 
Q 32.328125 33.6875 34.8125 36.53125 
Q 39.546875 41.84375 41.421875 45.53125 
Q 43.3125 49.21875 43.3125 52.78125 
Q 43.3125 58.59375 39.234375 62.25 
Q 35.15625 65.921875 28.609375 65.921875 
Q 23.96875 65.921875 18.8125 64.3125 
Q 13.671875 62.703125 7.8125 59.421875 
L 7.8125 69.390625 
Q 13.765625 71.78125 18.9375 73 
Q 24.125 74.21875 28.421875 74.21875 
Q 39.75 74.21875 46.484375 68.546875 
Q 53.21875 62.890625 53.21875 53.421875 
Q 53.21875 48.921875 51.53125 44.890625 
Q 49.859375 40.875 45.40625 35.40625 
Q 44.1875 33.984375 37.640625 27.21875 
Q 31.109375 20.453125 19.1875 8.296875 
z
" id="DejaVuSans-50"/>
        <path d="M 31.78125 66.40625 
Q 24.171875 66.40625 20.328125 58.90625 
Q 16.5 51.421875 16.5 36.375 
Q 16.5 21.390625 20.328125 13.890625 
Q 24.171875 6.390625 31.78125 6.390625 
Q 39.453125 6.390625 43.28125 13.890625 
Q 47.125 21.390625 47.125 36.375 
Q 47.125 51.421875 43.28125 58.90625 
Q 39.453125 66.40625 31.78125 66.40625 
z
M 31.78125 74.21875 
Q 44.046875 74.21875 50.515625 64.515625 
Q 56.984375 54.828125 56.984375 36.375 
Q 56.984375 17.96875 50.515625 8.265625 
Q 44.046875 -1.421875 31.78125 -1.421875 
Q 19.53125 -1.421875 13.0625 8.265625 
Q 6.59375 17.96875 6.59375 36.375 
Q 6.59375 54.828125 13.0625 64.515625 
Q 19.53125 74.21875 31.78125 74.21875 
z
" id="DejaVuSans-48"/>
       </defs>
       <use xlink:href="#DejaVuSans-8722"/>
       <use x="83.789062" xlink:href="#DejaVuSans-50"/>
       <use x="147.412109" xlink:href="#DejaVuSans-48"/>
      </g>
     </g>
    </g>
    <g id="xtick_2">
     <g id="line2d_2">
      <g>
       <use style="stroke:#000000;stroke-width:0.8;" x="74.984687" xlink:href="#mfae6d81db3" y="277.111219"/>
      </g>
     </g>
     <g id="text_2">
      <!-- −15 -->
      <g transform="translate(64.432344 291.709656)scale(0.1 -0.1)">
       <defs>
        <path d="M 12.40625 8.296875 
L 28.515625 8.296875 
L 28.515625 63.921875 
L 10.984375 60.40625 
L 10.984375 69.390625 
L 28.421875 72.90625 
L 38.28125 72.90625 
L 38.28125 8.296875 
L 54.390625 8.296875 
L 54.390625 0 
L 12.40625 0 
z
" id="DejaVuSans-49"/>
        <path d="M 10.796875 72.90625 
L 49.515625 72.90625 
L 49.515625 64.59375 
L 19.828125 64.59375 
L 19.828125 46.734375 
Q 21.96875 47.46875 24.109375 47.828125 
Q 26.265625 48.1875 28.421875 48.1875 
Q 40.625 48.1875 47.75 41.5 
Q 54.890625 34.8125 54.890625 23.390625 
Q 54.890625 11.625 47.5625 5.09375 
Q 40.234375 -1.421875 26.90625 -1.421875 
Q 22.3125 -1.421875 17.546875 -0.640625 
Q 12.796875 0.140625 7.71875 1.703125 
L 7.71875 11.625 
Q 12.109375 9.234375 16.796875 8.0625 
Q 21.484375 6.890625 26.703125 6.890625 
Q 35.15625 6.890625 40.078125 11.328125 
Q 45.015625 15.765625 45.015625 23.390625 
Q 45.015625 31 40.078125 35.4375 
Q 35.15625 39.890625 26.703125 39.890625 
Q 22.75 39.890625 18.8125 39.015625 
Q 14.890625 38.140625 10.796875 36.28125 
z
" id="DejaVuSans-53"/>
       </defs>
       <use xlink:href="#DejaVuSans-8722"/>
       <use x="83.789062" xlink:href="#DejaVuSans-49"/>
       <use x="147.412109" xlink:href="#DejaVuSans-53"/>
      </g>
     </g>
    </g>
    <g id="xtick_3">
     <g id="line2d_3">
      <g>
       <use style="stroke:#000000;stroke-width:0.8;" x="114.664687" xlink:href="#mfae6d81db3" y="277.111219"/>
      </g>
     </g>
     <g id="text_3">
      <!-- −10 -->
      <g transform="translate(104.112344 291.709656)scale(0.1 -0.1)">
       <use xlink:href="#DejaVuSans-8722"/>
       <use x="83.789062" xlink:href="#DejaVuSans-49"/>
       <use x="147.412109" xlink:href="#DejaVuSans-48"/>
      </g>
     </g>
    </g>
    <g id="xtick_4">
     <g id="line2d_4">
      <g>
       <use style="stroke:#000000;stroke-width:0.8;" x="154.344687" xlink:href="#mfae6d81db3" y="277.111219"/>
      </g>
     </g>
     <g id="text_4">
      <!-- −5 -->
      <g transform="translate(146.973594 291.709656)scale(0.1 -0.1)">
       <use xlink:href="#DejaVuSans-8722"/>
       <use x="83.789062" xlink:href="#DejaVuSans-53"/>
      </g>
     </g>
    </g>
    <g id="xtick_5">
     <g id="line2d_5">
      <g>
       <use style="stroke:#000000;stroke-width:0.8;" x="194.024687" xlink:href="#mfae6d81db3" y="277.111219"/>
      </g>
     </g>
     <g id="text_5">
      <!-- 0 -->
      <g transform="translate(190.843437 291.709656)scale(0.1 -0.1)">
       <use xlink:href="#DejaVuSans-48"/>
      </g>
     </g>
    </g>
    <g id="xtick_6">
     <g id="line2d_6">
      <g>
       <use style="stroke:#000000;stroke-width:0.8;" x="233.704688" xlink:href="#mfae6d81db3" y="277.111219"/>
      </g>
     </g>
     <g id="text_6">
      <!-- 5 -->
      <g transform="translate(230.523438 291.709656)scale(0.1 -0.1)">
       <use xlink:href="#DejaVuSans-53"/>
      </g>
     </g>
    </g>
    <g id="xtick_7">
     <g id="line2d_7">
      <g>
       <use style="stroke:#000000;stroke-width:0.8;" x="273.384688" xlink:href="#mfae6d81db3" y="277.111219"/>
      </g>
     </g>
     <g id="text_7">
      <!-- 10 -->
      <g transform="translate(267.022188 291.709656)scale(0.1 -0.1)">
       <use xlink:href="#DejaVuSans-49"/>
       <use x="63.623047" xlink:href="#DejaVuSans-48"/>
      </g>
     </g>
    </g>
    <g id="xtick_8">
     <g id="line2d_8">
      <g>
       <use style="stroke:#000000;stroke-width:0.8;" x="313.064687" xlink:href="#mfae6d81db3" y="277.111219"/>
      </g>
     </g>
     <g id="text_8">
      <!-- 15 -->
      <g transform="translate(306.702187 291.709656)scale(0.1 -0.1)">
       <use xlink:href="#DejaVuSans-49"/>
       <use x="63.623047" xlink:href="#DejaVuSans-53"/>
      </g>
     </g>
    </g>
    <g id="xtick_9">
     <g id="line2d_9">
      <g>
       <use style="stroke:#000000;stroke-width:0.8;" x="352.744688" xlink:href="#mfae6d81db3" y="277.111219"/>
      </g>
     </g>
     <g id="text_9">
      <!-- 20 -->
      <g transform="translate(346.382188 291.709656)scale(0.1 -0.1)">
       <use xlink:href="#DejaVuSans-50"/>
       <use x="63.623047" xlink:href="#DejaVuSans-48"/>
      </g>
     </g>
    </g>
    <g id="xtick_10">
     <g id="line2d_10">
      <g>
       <use style="stroke:#000000;stroke-width:0.8;" x="392.424688" xlink:href="#mfae6d81db3" y="277.111219"/>
      </g>
     </g>
     <g id="text_10">
      <!-- 25 -->
      <g transform="translate(386.062187 291.709656)scale(0.1 -0.1)">
       <use xlink:href="#DejaVuSans-50"/>
       <use x="63.623047" xlink:href="#DejaVuSans-53"/>
      </g>
     </g>
    </g>
   </g>
   <g id="matplotlib.axis_2">
    <g id="ytick_1">
     <g id="line2d_11">
      <defs>
       <path d="M 0 0 
L -3.5 0 
" id="m37ea32f950" style="stroke:#000000;stroke-width:0.8;"/>
      </defs>
      <g>
       <use style="stroke:#000000;stroke-width:0.8;" x="35.304688" xlink:href="#m37ea32f950" y="277.111219"/>
      </g>
     </g>
     <g id="text_11">
      <!-- −20 -->
      <g transform="translate(7.2 280.910437)scale(0.1 -0.1)">
       <use xlink:href="#DejaVuSans-8722"/>
       <use x="83.789062" xlink:href="#DejaVuSans-50"/>
       <use x="147.412109" xlink:href="#DejaVuSans-48"/>
      </g>
     </g>
    </g>
    <g id="ytick_2">
     <g id="line2d_12">
      <g>
       <use style="stroke:#000000;stroke-width:0.8;" x="35.304688" xlink:href="#m37ea32f950" y="243.847219"/>
      </g>
     </g>
     <g id="text_12">
      <!-- −15 -->
      <g transform="translate(7.2 247.646437)scale(0.1 -0.1)">
       <use xlink:href="#DejaVuSans-8722"/>
       <use x="83.789062" xlink:href="#DejaVuSans-49"/>
       <use x="147.412109" xlink:href="#DejaVuSans-53"/>
      </g>
     </g>
    </g>
    <g id="ytick_3">
     <g id="line2d_13">
      <g>
       <use style="stroke:#000000;stroke-width:0.8;" x="35.304688" xlink:href="#m37ea32f950" y="210.583219"/>
      </g>
     </g>
     <g id="text_13">
      <!-- −10 -->
      <g transform="translate(7.2 214.382437)scale(0.1 -0.1)">
       <use xlink:href="#DejaVuSans-8722"/>
       <use x="83.789062" xlink:href="#DejaVuSans-49"/>
       <use x="147.412109" xlink:href="#DejaVuSans-48"/>
      </g>
     </g>
    </g>
    <g id="ytick_4">
     <g id="line2d_14">
      <g>
       <use style="stroke:#000000;stroke-width:0.8;" x="35.304688" xlink:href="#m37ea32f950" y="177.319219"/>
      </g>
     </g>
     <g id="text_14">
      <!-- −5 -->
      <g transform="translate(13.5625 181.118437)scale(0.1 -0.1)">
       <use xlink:href="#DejaVuSans-8722"/>
       <use x="83.789062" xlink:href="#DejaVuSans-53"/>
      </g>
     </g>
    </g>
    <g id="ytick_5">
     <g id="line2d_15">
      <g>
       <use style="stroke:#000000;stroke-width:0.8;" x="35.304688" xlink:href="#m37ea32f950" y="144.055219"/>
      </g>
     </g>
     <g id="text_15">
      <!-- 0 -->
      <g transform="translate(21.942187 147.854437)scale(0.1 -0.1)">
       <use xlink:href="#DejaVuSans-48"/>
      </g>
     </g>
    </g>
    <g id="ytick_6">
     <g id="line2d_16">
      <g>
       <use style="stroke:#000000;stroke-width:0.8;" x="35.304688" xlink:href="#m37ea32f950" y="110.791219"/>
      </g>
     </g>
     <g id="text_16">
      <!-- 5 -->
      <g transform="translate(21.942187 114.590437)scale(0.1 -0.1)">
       <use xlink:href="#DejaVuSans-53"/>
      </g>
     </g>
    </g>
    <g id="ytick_7">
     <g id="line2d_17">
      <g>
       <use style="stroke:#000000;stroke-width:0.8;" x="35.304688" xlink:href="#m37ea32f950" y="77.527219"/>
      </g>
     </g>
     <g id="text_17">
      <!-- 10 -->
      <g transform="translate(15.579687 81.326437)scale(0.1 -0.1)">
       <use xlink:href="#DejaVuSans-49"/>
       <use x="63.623047" xlink:href="#DejaVuSans-48"/>
      </g>
     </g>
    </g>
    <g id="ytick_8">
     <g id="line2d_18">
      <g>
       <use style="stroke:#000000;stroke-width:0.8;" x="35.304688" xlink:href="#m37ea32f950" y="44.263219"/>
      </g>
     </g>
     <g id="text_18">
      <!-- 15 -->
      <g transform="translate(15.579687 48.062437)scale(0.1 -0.1)">
       <use xlink:href="#DejaVuSans-49"/>
       <use x="63.623047" xlink:href="#DejaVuSans-53"/>
      </g>
     </g>
    </g>
    <g id="ytick_9">
     <g id="line2d_19">
      <g>
       <use style="stroke:#000000;stroke-width:0.8;" x="35.304688" xlink:href="#m37ea32f950" y="10.999219"/>
      </g>
     </g>
     <g id="text_19">
      <!-- 20 -->
      <g transform="translate(15.579687 14.798437)scale(0.1 -0.1)">
       <use xlink:href="#DejaVuSans-50"/>
       <use x="63.623047" xlink:href="#DejaVuSans-48"/>
      </g>
     </g>
    </g>
   </g>
   <g id="LineCollection_1"/>
   <g id="LineCollection_2"/>
   <g id="LineCollection_3">
    <path clip-path="url(#p7c9bf6c9bb)" d="M 190.056688 154.061275 
L 189.276642 152.925619 
L 188.374593 144.055219 
L 190.056688 139.794991 
L 192.33042 144.055219 
L 190.218965 152.925619 
L 190.056688 154.061275 
" style="fill:none;stroke:#482576;stroke-width:1.5;"/>
   </g>
   <g id="LineCollection_4">
    <path clip-path="url(#p7c9bf6c9bb)" d="M 201.969901 138.911213 
L 201.960688 139.133606 
L 197.001888 144.055219 
L 190.946503 152.925619 
L 190.056688 159.152775 
L 185.779456 152.925619 
L 184.918667 144.055219 
L 188.077362 135.184819 
L 190.056688 132.631716 
L 196.78627 128.226155 
" style="fill:none;stroke:#453781;stroke-width:1.5;"/>
   </g>
   <g id="LineCollection_5">
    <path clip-path="url(#p7c9bf6c9bb)" d="M 202.419692 112.299932 
L 202.572383 117.444019 
L 202.663262 126.314419 
L 202.31637 135.184819 
L 201.960688 143.770043 
L 201.673357 144.055219 
L 191.674042 152.925619 
L 190.115536 161.796019 
L 190.056688 162.16737 
L 187.924128 161.796019 
L 182.28227 152.925619 
L 181.462741 144.055219 
L 183.895319 135.184819 
L 190.056688 127.237361 
L 191.466501 126.314419 
L 196.766653 117.444019 
L 198.70926 108.573619 
L 199.271856 101.267243 
" style="fill:none;stroke:#404688;stroke-width:1.5;"/>
    <path clip-path="url(#p7c9bf6c9bb)" d="M 190.056688 73.312783 
L 189.951904 73.092019 
L 189.414506 64.221619 
L 190.056688 63.57652 
L 190.088382 64.221619 
L 190.072128 73.092019 
L 190.056688 73.312783 
" style="fill:none;stroke:#404688;stroke-width:1.5;"/>
   </g>
   <g id="LineCollection_6">
    <path clip-path="url(#p7c9bf6c9bb)" d="M 166.563624 10.999219 
L 168.583965 19.869619 
L 178.152687 28.526036 
L 178.183247 28.740019 
L 179.007449 37.610419 
L 180.414248 46.480819 
L 190.056688 54.936384 
L 190.090315 55.351219 
L 190.555414 64.221619 
L 191.1685 73.092019 
L 192.234156 81.962419 
L 201.960688 88.299215 
L 202.20631 90.832819 
L 202.761839 99.703219 
L 203.185419 108.573619 
L 203.438974 117.444019 
L 203.214921 126.314419 
L 202.508455 135.184819 
L 202.010881 144.055219 
L 201.960688 144.646576 
L 192.40158 152.925619 
L 190.237919 161.796019 
L 190.056688 162.939648 
L 183.489164 161.796019 
L 178.785083 152.925619 
L 178.152687 145.733907 
L 177.312171 144.055219 
L 178.152687 143.15383 
L 179.713277 135.184819 
L 184.020781 126.314419 
L 189.071375 117.444019 
L 190.056688 112.093537 
L 190.530815 108.573619 
L 190.368794 99.703219 
L 190.056688 94.596608 
L 189.695478 90.832819 
L 186.919834 84.881483 
" style="fill:none;stroke:#39558c;stroke-width:1.5;"/>
    <path clip-path="url(#p7c9bf6c9bb)" d="M 178.381148 61.242663 
L 178.152687 60.809311 
L 171.261937 55.351219 
L 166.643461 46.480819 
L 166.248687 45.64768 
L 164.739023 46.480819 
L 157.761322 55.351219 
L 155.61665 64.221619 
L 154.344687 72.930567 
L 154.30666 73.092019 
L 152.36109 81.962419 
L 150.400644 90.832819 
L 148.486221 99.703219 
L 146.719741 108.573619 
L 145.673676 117.444019 
L 144.624342 126.314419 
L 144.110001 135.184819 
L 143.856547 144.055219 
L 143.648646 152.925619 
L 142.782414 161.796019 
L 142.440687 163.561765 
L 140.233462 170.666419 
L 137.002088 179.536819 
L 131.479306 188.407219 
L 130.536687 188.671979 
L 118.632687 188.42004 
L 118.595557 188.407219 
L 110.773726 179.536819 
L 106.728687 174.059105 
L 105.604153 170.666419 
L 103.182652 161.796019 
L 100.986499 152.925619 
L 99.539453 144.055219 
L 99.039568 135.184819 
L 99.362914 126.314419 
L 100.107067 117.444019 
L 101.168888 108.573619 
L 102.400346 99.703219 
L 103.737832 90.832819 
L 105.120969 81.962419 
L 106.68444 73.092019 
L 106.728687 72.8848 
L 108.925731 64.221619 
L 111.268094 55.351219 
L 113.857462 46.480819 
L 116.64752 37.610419 
L 118.632687 32.244775 
L 120.162083 28.740019 
L 124.597523 19.869619 
L 129.029135 10.999219 
" style="fill:none;stroke:#39558c;stroke-width:1.5;"/>
   </g>
   <g id="LineCollection_7">
    <path clip-path="url(#p7c9bf6c9bb)" d="M 168.389128 10.999219 
L 173.527726 19.869619 
L 178.152687 24.053625 
L 178.821968 28.740019 
L 180.297494 37.610419 
L 183.925938 46.480819 
L 190.056688 51.856943 
L 190.339938 55.351219 
L 191.022447 64.221619 
L 192.264872 73.092019 
L 197.092271 81.962419 
L 201.960688 85.134173 
L 202.513149 90.832819 
L 203.38548 99.703219 
L 204.061754 108.573619 
L 204.305566 117.444019 
L 203.76658 126.314419 
L 202.700541 135.184819 
L 202.064363 144.055219 
L 201.960688 145.276689 
L 193.129119 152.925619 
L 190.360302 161.796019 
L 190.056688 163.711926 
L 179.0542 161.796019 
L 178.152687 160.032478 
L 173.859162 161.796019 
L 166.248687 169.352402 
L 165.117199 170.666419 
L 166.248687 173.887809 
L 166.548031 179.536819 
L 166.248687 180.156042 
L 154.344687 183.70776 
L 150.320858 188.407219 
L 142.440687 192.313016 
L 131.12246 197.277619 
L 130.536687 197.419531 
L 129.53464 197.423587 
" style="fill:none;stroke:#33638d;stroke-width:1.5;"/>
    <path clip-path="url(#p7c9bf6c9bb)" d="M 105.743233 192.25658 
L 103.210406 188.407219 
L 95.812657 179.536819 
L 94.824687 178.273862 
L 92.966693 170.666419 
L 89.570661 161.796019 
L 84.438383 152.925619 
L 82.920687 150.241586 
L 82.44578 144.055219 
L 81.530846 135.184819 
L 80.035431 126.314419 
L 77.976819 117.444019 
L 75.574086 108.573619 
L 73.782373 99.703219 
L 73.694439 90.832819 
L 75.033797 81.962419 
L 77.033015 73.092019 
L 78.996928 64.221619 
L 80.844753 55.351219 
L 82.302937 46.480819 
L 82.920687 39.644441 
L 84.064674 37.610419 
L 89.945476 28.740019 
L 94.351161 19.869619 
L 94.824687 18.051145 
L 100.912346 10.999219 
" style="fill:none;stroke:#33638d;stroke-width:1.5;"/>
   </g>
   <g id="LineCollection_8">
    <path clip-path="url(#p7c9bf6c9bb)" d="M 170.214631 10.999219 
L 178.152687 19.739996 
L 178.175663 19.869619 
L 179.46069 28.740019 
L 181.587539 37.610419 
L 187.437628 46.480819 
L 190.056688 48.777502 
L 190.589562 55.351219 
L 191.489479 64.221619 
L 193.361245 73.092019 
L 201.950385 81.962419 
L 201.960688 81.969131 
L 202.819987 90.832819 
L 204.009121 99.703219 
L 204.938089 108.573619 
L 205.172157 117.444019 
L 204.318238 126.314419 
L 202.892627 135.184819 
L 202.117846 144.055219 
L 201.960688 145.906803 
L 193.856658 152.925619 
L 190.482686 161.796019 
L 190.056688 164.484205 
L 179.112749 170.666419 
L 178.152687 172.23878 
L 169.272454 179.536819 
L 166.248687 185.7918 
L 161.352202 188.407219 
L 154.344687 191.010916 
L 143.548278 197.277619 
L 142.440687 197.60542 
L 130.536687 200.69941 
L 118.632687 200.554665 
L 106.728687 198.222654 
L 104.996207 197.277619 
L 98.785088 190.393598 
" style="fill:none;stroke:#2d718e;stroke-width:1.5;"/>
    <path clip-path="url(#p7c9bf6c9bb)" d="M 87.531619 168.285051 
L 82.920687 161.874941 
L 82.911008 161.796019 
L 82.07425 152.925619 
L 80.865196 144.055219 
L 78.844054 135.184819 
L 75.346454 126.314419 
L 71.016687 118.134119 
L 70.991833 117.444019 
L 70.755209 108.573619 
L 70.56416 99.703219 
L 70.502614 90.832819 
L 70.549668 81.962419 
L 70.720143 73.092019 
L 70.932853 64.221619 
L 71.016687 61.227145 
L 73.692958 55.351219 
L 78.147892 46.480819 
L 81.001372 37.610419 
L 82.397945 28.740019 
L 82.920687 23.597925 
L 86.489304 19.869619 
L 93.063087 10.999219 
" style="fill:none;stroke:#2d718e;stroke-width:1.5;"/>
   </g>
   <g id="LineCollection_9">
    <path clip-path="url(#p7c9bf6c9bb)" d="M 180.52355 30.094249 
L 182.877584 37.610419 
L 190.056688 46.09335 
L 190.094725 46.480819 
L 190.839186 55.351219 
L 191.956511 64.221619 
L 194.457617 73.092019 
L 201.960688 80.833594 
L 202.113866 81.962419 
L 203.126826 90.832819 
L 204.632763 99.703219 
L 205.814424 108.573619 
L 206.038748 117.444019 
L 204.869897 126.314419 
L 203.084712 135.184819 
L 202.171329 144.055219 
L 201.960688 146.536916 
L 194.584196 152.925619 
L 190.605069 161.796019 
L 190.056688 165.256483 
L 180.479859 170.666419 
L 178.152687 174.477791 
L 171.996877 179.536819 
L 166.374096 188.407219 
L 166.248687 188.562466 
L 154.344687 194.93124 
L 150.302296 197.277619 
L 142.440687 199.604336 
L 130.536687 203.979289 
L 118.632687 203.64162 
L 106.728687 199.729571 
L 102.23366 197.277619 
L 94.824687 190.140411 
L 94.245202 188.407219 
L 91.19064 179.536819 
L 85.522482 170.666419 
L 82.920687 167.049407 
L 82.276402 161.796019 
L 81.100931 152.925619 
L 79.284611 144.055219 
L 76.157261 135.184819 
L 71.016687 126.655917 
L 71.000581 126.314419 
L 70.672771 117.444019 
L 70.311809 108.573619 
L 70.002843 99.703219 
L 69.879683 90.832819 
L 69.901214 81.962419 
L 70.135393 73.092019 
L 70.493245 64.221619 
L 70.840726 55.351219 
L 71.016687 51.215051 
L 73.992846 46.480819 
L 78.993225 37.610419 
L 81.562947 28.740019 
L 82.750392 19.869619 
L 82.920687 18.646016 
L 90.764634 10.999219 
" style="fill:none;stroke:#287d8e;stroke-width:1.5;"/>
   </g>
   <g id="LineCollection_10">
    <path clip-path="url(#p7c9bf6c9bb)" d="M 173.865638 10.999219 
L 178.152687 15.719789 
L 178.888254 19.869619 
L 180.738132 28.740019 
L 184.167629 37.610419 
L 190.056688 44.569015 
L 190.24437 46.480819 
L 191.088809 55.351219 
L 192.423544 64.221619 
L 195.553989 73.092019 
L 201.960688 79.702371 
L 202.26737 81.962419 
L 203.433664 90.832819 
L 205.256404 99.703219 
L 206.690759 108.573619 
L 206.905339 117.444019 
L 205.421555 126.314419 
L 203.276798 135.184819 
L 202.224811 144.055219 
L 201.960688 147.16703 
L 195.311735 152.925619 
L 190.727453 161.796019 
L 190.056688 166.028761 
L 181.846969 170.666419 
L 178.152687 176.716803 
L 174.7213 179.536819 
L 166.608099 188.407219 
L 166.248687 188.852147 
L 154.506769 197.277619 
L 154.344687 197.403197 
L 142.440687 201.603251 
L 132.080408 206.148019 
L 130.536687 206.217405 
L 118.632687 206.202217 
L 117.983281 206.148019 
L 106.728687 201.236488 
L 99.471114 197.277619 
L 94.824687 192.801626 
L 93.355437 188.407219 
L 89.295072 179.536819 
L 82.920687 171.395145 
L 82.797041 170.666419 
L 81.641796 161.796019 
L 80.127611 152.925619 
L 77.704026 144.055219 
L 73.470469 135.184819 
L 71.016687 131.113666 
L 70.790341 126.314419 
L 70.35371 117.444019 
L 69.868409 108.573619 
L 69.441526 99.703219 
L 69.256752 90.832819 
L 69.252761 81.962419 
L 69.550644 73.092019 
L 70.053638 64.221619 
L 70.559543 55.351219 
L 70.973784 46.480819 
L 71.016687 45.707818 
L 76.985079 37.610419 
L 80.72795 28.740019 
L 82.181451 21.202796 
" style="fill:none;stroke:#238a8d;stroke-width:1.5;"/>
   </g>
   <g id="LineCollection_11">
    <path clip-path="url(#p7c9bf6c9bb)" d="M 175.691141 10.999219 
L 178.152687 13.709685 
L 179.244549 19.869619 
L 181.376854 28.740019 
L 185.457673 37.610419 
L 190.056688 43.044679 
L 190.394014 46.480819 
L 191.338433 55.351219 
L 192.890576 64.221619 
L 196.650361 73.092019 
L 201.814796 78.420619 
" style="fill:none;stroke:#1f968b;stroke-width:1.5;"/>
    <path clip-path="url(#p7c9bf6c9bb)" d="M 206.529353 103.11724 
L 207.567094 108.573619 
L 207.77193 117.444019 
L 205.973214 126.314419 
L 203.468883 135.184819 
L 202.278294 144.055219 
L 201.960688 147.797144 
L 196.039273 152.925619 
L 190.849836 161.796019 
L 190.056688 166.801039 
L 183.214078 170.666419 
L 178.152687 178.955815 
L 177.445723 179.536819 
L 166.842103 188.407219 
L 166.248687 189.141828 
L 154.910474 197.277619 
L 154.344687 197.715981 
L 142.440687 203.602167 
L 136.637148 206.148019 
L 130.536687 206.422219 
L 118.632687 206.490399 
L 114.530235 206.148019 
L 106.728687 202.743406 
L 96.708567 197.277619 
L 94.824687 195.462841 
L 92.465671 188.407219 
L 87.399504 179.536819 
L 82.920687 173.816257 
L 82.38624 170.666419 
L 81.00719 161.796019 
L 79.154292 152.925619 
L 76.123441 144.055219 
L 71.016687 135.416694 
L 71.004518 135.184819 
L 70.5801 126.314419 
L 70.034648 117.444019 
L 69.425009 108.573619 
L 68.88021 99.703219 
L 68.633821 90.832819 
L 68.604307 81.962419 
L 68.965894 73.092019 
L 69.614031 64.221619 
L 70.27836 55.351219 
L 70.822569 46.480819 
L 71.016687 42.983338 
L 74.976932 37.610419 
L 79.892953 28.740019 
L 82.126697 19.869619 
L 82.920687 14.164648 
L 86.167728 10.999219 
" style="fill:none;stroke:#1f968b;stroke-width:1.5;"/>
   </g>
   <g id="LineCollection_12">
    <path clip-path="url(#p7c9bf6c9bb)" d="M 177.516644 10.999219 
L 178.152687 11.699581 
L 179.600844 19.869619 
L 182.015575 28.740019 
L 186.747718 37.610419 
L 190.056688 41.520344 
L 190.543658 46.480819 
L 191.588057 55.351219 
L 193.357608 64.221619 
L 197.746734 73.092019 
L 201.960688 77.439924 
L 202.08921 78.387051 
" style="fill:none;stroke:#20a386;stroke-width:1.5;"/>
    <path clip-path="url(#p7c9bf6c9bb)" d="M 207.22912 103.02061 
L 208.443429 108.573619 
L 208.638521 117.444019 
L 206.524872 126.314419 
L 203.660969 135.184819 
L 202.331777 144.055219 
L 201.960688 148.427257 
L 196.766812 152.925619 
L 190.972219 161.796019 
L 190.056688 167.573317 
L 184.581188 170.666419 
L 178.212182 179.536819 
L 178.152687 179.67345 
L 167.076107 188.407219 
L 166.248687 189.431508 
L 155.31418 197.277619 
L 154.344687 198.028766 
L 142.440687 205.601082 
L 141.193888 206.148019 
L 130.536687 206.627033 
L 118.632687 206.778582 
L 111.077189 206.148019 
L 106.728687 204.250323 
L 94.824687 197.499414 
L 94.660161 197.277619 
L 91.575906 188.407219 
L 85.503936 179.536819 
L 82.920687 176.237368 
L 81.975438 170.666419 
L 80.372584 161.796019 
L 78.180973 152.925619 
L 74.542856 144.055219 
L 71.016687 138.090393 
L 70.864199 135.184819 
L 70.369859 126.314419 
L 69.715587 117.444019 
L 68.981609 108.573619 
L 68.318893 99.703219 
L 68.01089 90.832819 
L 67.955854 81.962419 
L 68.381145 73.092019 
L 69.174424 64.221619 
L 69.997177 55.351219 
L 70.671353 46.480819 
L 71.016687 40.258858 
L 72.968786 37.610419 
L 79.057955 28.740019 
L 81.814849 19.869619 
L 82.920687 11.923965 
L 83.869275 10.999219 
" style="fill:none;stroke:#20a386;stroke-width:1.5;"/>
   </g>
   <g id="LineCollection_13">
    <path clip-path="url(#p7c9bf6c9bb)" d="M 178.28945 10.999219 
L 179.95714 19.869619 
L 182.654296 28.740019 
L 188.037763 37.610419 
L 190.056688 39.996008 
L 190.693302 46.480819 
L 191.83768 55.351219 
L 193.824641 64.221619 
L 198.843106 73.092019 
L 201.960688 76.308701 
L 202.727883 81.962419 
L 203.757956 87.580803 
" style="fill:none;stroke:#29af7f;stroke-width:1.5;"/>
    <path clip-path="url(#p7c9bf6c9bb)" d="M 209.392101 112.035535 
L 209.505113 117.444019 
L 207.076531 126.314419 
L 203.853055 135.184819 
L 202.385259 144.055219 
L 201.960688 149.057371 
L 197.494351 152.925619 
L 191.094603 161.796019 
L 190.056688 168.345596 
L 185.948298 170.666419 
L 178.292524 179.536819 
L 178.152687 179.857959 
L 167.310111 188.407219 
L 166.248687 189.721189 
L 155.717885 197.277619 
L 154.344687 198.34155 
L 142.777346 206.148019 
L 142.440687 206.20499 
L 130.536687 206.831847 
L 118.632687 207.066764 
L 107.624143 206.148019 
L 106.728687 205.75724 
L 94.824687 198.19674 
L 94.142887 197.277619 
L 90.68614 188.407219 
L 83.608368 179.536819 
L 82.920687 178.65848 
L 81.564637 170.666419 
L 79.737977 161.796019 
L 77.207654 152.925619 
L 72.962271 144.055219 
L 71.016687 140.764092 
L 70.72388 135.184819 
L 70.159618 126.314419 
L 69.396525 117.444019 
L 68.538209 108.573619 
L 67.757576 99.703219 
L 67.387959 90.832819 
L 67.307401 81.962419 
L 67.796395 73.092019 
L 68.734816 64.221619 
L 69.715994 55.351219 
L 70.520138 46.480819 
L 71.01469 37.610419 
L 71.016687 37.581824 
L 78.222958 28.740019 
L 81.503002 19.869619 
L 82.856152 10.999219 
" style="fill:none;stroke:#29af7f;stroke-width:1.5;"/>
   </g>
   <g id="LineCollection_14">
    <path clip-path="url(#p7c9bf6c9bb)" d="M 178.499343 10.999219 
L 180.313435 19.869619 
L 183.293017 28.740019 
L 189.327808 37.610419 
L 190.056688 38.471673 
L 190.842946 46.480819 
L 192.087304 55.351219 
L 194.291673 64.221619 
L 199.939478 73.092019 
L 201.960688 75.177478 
L 202.881387 81.962419 
L 204.030217 87.68865 
" style="fill:none;stroke:#3dbc74;stroke-width:1.5;"/>
    <path clip-path="url(#p7c9bf6c9bb)" d="M 210.26337 111.971722 
L 210.371704 117.444019 
L 207.628189 126.314419 
L 204.04514 135.184819 
L 202.438742 144.055219 
L 201.960688 149.687484 
L 198.221889 152.925619 
L 191.216986 161.796019 
L 190.056688 169.117874 
L 187.315407 170.666419 
L 178.372867 179.536819 
L 178.152687 180.042469 
L 167.544114 188.407219 
L 166.248687 190.01087 
L 156.121591 197.277619 
L 154.344687 198.654335 
L 143.240819 206.148019 
L 142.440687 206.283422 
L 130.536687 207.036661 
L 118.632687 207.354947 
L 106.728687 206.374963 
L 105.937441 206.148019 
L 94.824687 198.894067 
L 93.625613 197.277619 
L 89.796374 188.407219 
L 82.920687 180.212556 
L 82.795221 179.536819 
L 81.153836 170.666419 
L 79.103371 161.796019 
L 76.234335 152.925619 
L 71.381686 144.055219 
L 71.016687 143.437791 
L 70.583561 135.184819 
L 69.949377 126.314419 
L 69.077463 117.444019 
L 68.094809 108.573619 
L 67.19626 99.703219 
L 66.765028 90.832819 
L 66.658947 81.962419 
L 67.211646 73.092019 
L 68.295209 64.221619 
L 69.434811 55.351219 
L 70.368922 46.480819 
L 70.94314 37.610419 
L 71.016687 36.557316 
L 77.387961 28.740019 
L 81.191154 19.869619 
L 82.746267 10.999219 
" style="fill:none;stroke:#3dbc74;stroke-width:1.5;"/>
   </g>
   <g id="LineCollection_15">
    <path clip-path="url(#p7c9bf6c9bb)" d="M 178.709237 10.999219 
L 180.66973 19.869619 
L 183.931739 28.740019 
L 190.056688 37.225498 
L 190.098582 37.610419 
L 190.992591 46.480819 
L 192.336927 55.351219 
L 194.758705 64.221619 
L 201.03585 73.092019 
L 201.960688 74.046254 
L 203.034891 81.962419 
L 204.308267 87.805955 
" style="fill:none;stroke:#56c667;stroke-width:1.5;"/>
    <path clip-path="url(#p7c9bf6c9bb)" d="M 211.134658 111.901454 
L 211.238295 117.444019 
L 208.179848 126.314419 
L 204.237226 135.184819 
L 202.492225 144.055219 
L 201.960688 150.317598 
L 198.949428 152.925619 
L 191.339369 161.796019 
L 190.056688 169.890152 
L 188.682517 170.666419 
L 178.453209 179.536819 
L 178.152687 180.226978 
L 167.778118 188.407219 
L 166.248687 190.300551 
L 156.525296 197.277619 
L 154.344687 198.967119 
L 143.704292 206.148019 
L 142.440687 206.361854 
L 130.536687 207.241475 
L 118.632687 207.643129 
L 106.728687 206.681363 
L 104.869165 206.148019 
L 94.824687 199.591394 
L 93.10834 197.277619 
L 88.906609 188.407219 
L 82.920687 181.273007 
L 82.598323 179.536819 
L 80.743034 170.666419 
L 78.468765 161.796019 
L 75.261015 152.925619 
L 71.016687 145.385107 
L 70.946577 144.055219 
L 70.443242 135.184819 
L 69.739137 126.314419 
L 68.758402 117.444019 
L 67.651409 108.573619 
L 66.634943 99.703219 
L 66.142098 90.832819 
L 66.010494 81.962419 
L 66.626896 73.092019 
L 67.855602 64.221619 
L 69.153628 55.351219 
L 70.217707 46.480819 
L 70.87159 37.610419 
L 71.016687 35.532808 
L 76.552964 28.740019 
L 80.879307 19.869619 
L 82.636381 10.999219 
" style="fill:none;stroke:#56c667;stroke-width:1.5;"/>
   </g>
   <g id="LineCollection_16">
    <path clip-path="url(#p7c9bf6c9bb)" d="M 178.919131 10.999219 
L 181.026026 19.869619 
L 184.57046 28.740019 
L 190.056688 36.340616 
L 190.194892 37.610419 
L 191.142235 46.480819 
L 192.586551 55.351219 
L 195.225738 64.221619 
L 201.960688 72.996813 
L 201.9738 73.092019 
L 203.188395 81.962419 
L 204.592476 87.9322 
" style="fill:none;stroke:#75d054;stroke-width:1.5;"/>
    <path clip-path="url(#p7c9bf6c9bb)" d="M 212.00599 111.824878 
L 212.104886 117.444019 
L 208.731506 126.314419 
L 204.429312 135.184819 
L 202.545707 144.055219 
L 201.960688 150.947712 
L 199.676966 152.925619 
L 191.461753 161.796019 
L 190.056688 170.66243 
L 190.049627 170.666419 
L 178.533552 179.536819 
L 178.152687 180.411488 
L 168.012122 188.407219 
L 166.248687 190.590232 
L 156.929002 197.277619 
L 154.344687 199.279904 
L 144.167764 206.148019 
L 142.440687 206.440285 
L 130.536687 207.446289 
L 118.632687 207.931311 
L 106.728687 206.987764 
L 103.800889 206.148019 
L 94.824687 200.288721 
L 92.591066 197.277619 
L 88.016843 188.407219 
L 82.920687 182.333458 
L 82.401426 179.536819 
L 80.332233 170.666419 
L 77.834159 161.796019 
L 74.287696 152.925619 
L 71.016687 147.114315 
L 70.855416 144.055219 
L 70.302923 135.184819 
L 69.528896 126.314419 
L 68.43934 117.444019 
L 67.208009 108.573619 
L 66.073626 99.703219 
L 65.519167 90.832819 
L 65.36204 81.962419 
L 66.042147 73.092019 
L 67.415994 64.221619 
L 68.872445 55.351219 
L 70.066491 46.480819 
L 70.800039 37.610419 
L 71.016687 34.5083 
L 75.717966 28.740019 
L 80.567459 19.869619 
L 82.526495 10.999219 
" style="fill:none;stroke:#75d054;stroke-width:1.5;"/>
   </g>
   <g id="LineCollection_17">
    <path clip-path="url(#p7c9bf6c9bb)" d="M 179.129024 10.999219 
L 181.382321 19.869619 
L 185.209181 28.740019 
L 190.056688 35.455734 
L 190.291202 37.610419 
L 191.291879 46.480819 
L 192.836175 55.351219 
L 195.69277 64.221619 
L 201.960688 72.3883 
L 202.057605 73.092019 
L 203.341899 81.962419 
L 204.883171 88.06685 
" style="fill:none;stroke:#95d840;stroke-width:1.5;"/>
    <path clip-path="url(#p7c9bf6c9bb)" d="M 212.877388 111.742146 
L 212.971477 117.444019 
L 209.283165 126.314419 
L 204.621397 135.184819 
L 202.59919 144.055219 
L 201.960688 151.577825 
L 200.404505 152.925619 
L 191.584136 161.796019 
L 190.071007 170.666419 
L 190.056688 170.727948 
L 178.613895 179.536819 
L 178.152687 180.595997 
L 168.246125 188.407219 
L 166.248687 190.879913 
L 157.332707 197.277619 
L 154.344687 199.592688 
L 144.631237 206.148019 
L 142.440687 206.518717 
L 130.536687 207.651102 
L 118.632687 208.219494 
L 106.728687 207.294165 
L 102.732614 206.148019 
L 94.824687 200.986047 
L 92.073792 197.277619 
L 87.127078 188.407219 
L 82.920687 183.393909 
L 82.204528 179.536819 
L 79.921431 170.666419 
L 77.199553 161.796019 
L 73.314377 152.925619 
L 71.016687 148.843522 
L 70.764254 144.055219 
L 70.162604 135.184819 
L 69.318655 126.314419 
L 68.120278 117.444019 
L 66.764609 108.573619 
L 65.51231 99.703219 
L 64.896236 90.832819 
L 64.713587 81.962419 
L 65.457397 73.092019 
L 66.976387 64.221619 
L 68.591262 55.351219 
L 69.915276 46.480819 
L 70.728489 37.610419 
L 71.016687 33.483791 
L 74.882969 28.740019 
L 80.255611 19.869619 
L 82.416609 10.999219 
" style="fill:none;stroke:#95d840;stroke-width:1.5;"/>
   </g>
   <g id="LineCollection_18">
    <path clip-path="url(#p7c9bf6c9bb)" d="M 179.338918 10.999219 
L 181.738616 19.869619 
L 185.847903 28.740019 
L 190.056688 34.570852 
L 190.387512 37.610419 
L 191.441523 46.480819 
L 193.085798 55.351219 
L 196.159802 64.221619 
L 201.960688 71.779788 
L 202.141411 73.092019 
L 203.495404 81.962419 
L 205.180642 88.20936 
" style="fill:none;stroke:#bade28;stroke-width:1.5;"/>
    <path clip-path="url(#p7c9bf6c9bb)" d="M 213.748876 111.653418 
L 213.838069 117.444019 
L 209.834823 126.314419 
L 204.813483 135.184819 
L 202.652673 144.055219 
L 201.960688 152.207939 
L 201.132044 152.925619 
L 191.706519 161.796019 
L 190.085401 170.666419 
L 190.056688 170.789798 
L 178.694237 179.536819 
L 178.152687 180.780507 
L 168.480129 188.407219 
L 166.248687 191.169594 
L 157.736413 197.277619 
L 154.344687 199.905473 
L 145.09471 206.148019 
L 142.440687 206.597149 
L 130.536687 207.855916 
L 118.632687 208.507676 
L 106.728687 207.600566 
L 101.664338 206.148019 
L 94.824687 201.683374 
L 91.556518 197.277619 
L 86.237312 188.407219 
L 82.920687 184.45436 
L 82.00763 179.536819 
L 79.51063 170.666419 
L 76.564947 161.796019 
L 72.341058 152.925619 
L 71.016687 150.57273 
L 70.673092 144.055219 
L 70.022285 135.184819 
L 69.108414 126.314419 
L 67.801217 117.444019 
L 66.321209 108.573619 
L 64.950993 99.703219 
L 64.273305 90.832819 
L 64.065133 81.962419 
L 64.872647 73.092019 
L 66.53678 64.221619 
L 68.310079 55.351219 
L 69.76406 46.480819 
L 70.656938 37.610419 
L 71.016688 32.459283 
L 74.047972 28.740019 
L 79.943764 19.869619 
L 82.306724 10.999219 
" style="fill:none;stroke:#bade28;stroke-width:1.5;"/>
   </g>
   <g id="LineCollection_19">
    <path clip-path="url(#p7c9bf6c9bb)" d="M 179.548812 10.999219 
L 182.094911 19.869619 
L 186.486624 28.740019 
L 190.056688 33.68597 
L 190.483822 37.610419 
L 191.591167 46.480819 
L 193.335422 55.351219 
L 196.626835 64.221619 
L 201.960688 71.171276 
L 202.225217 73.092019 
L 203.648908 81.962419 
L 206.195211 90.832819 
L 210.869176 99.703219 
L 213.864688 107.288591 
L 213.902965 108.573619 
L 213.893902 117.444019 
L 213.864688 118.625981 
L 210.386482 126.314419 
L 205.005568 135.184819 
L 202.706156 144.055219 
L 201.960688 152.838052 
L 201.859582 152.925619 
L 191.828903 161.796019 
L 190.099794 170.666419 
L 190.056688 170.851647 
L 178.77458 179.536819 
L 178.152687 180.965016 
L 168.714133 188.407219 
L 166.248687 191.459275 
L 158.140118 197.277619 
L 154.344687 200.218257 
L 145.558182 206.148019 
L 142.440687 206.67558 
L 130.536687 208.06073 
L 118.632687 208.795859 
L 106.728687 207.906966 
L 106.082714 207.721689 
" style="fill:none;stroke:#dde318;stroke-width:1.5;"/>
    <path clip-path="url(#p7c9bf6c9bb)" d="M 87.666064 192.020583 
L 85.347547 188.407219 
L 82.920687 185.514811 
L 81.810733 179.536819 
L 79.099829 170.666419 
L 75.93034 161.796019 
L 71.367739 152.925619 
L 71.016687 152.301938 
L 70.581931 144.055219 
L 69.881966 135.184819 
L 68.898173 126.314419 
L 67.482155 117.444019 
L 65.877809 108.573619 
L 64.389676 99.703219 
L 63.650374 90.832819 
L 63.41668 81.962419 
L 64.287898 73.092019 
L 66.097172 64.221619 
L 68.028896 55.351219 
L 69.612845 46.480819 
L 70.585388 37.610419 
L 71.016687 31.434775 
L 73.212974 28.740019 
L 79.631916 19.869619 
L 82.196838 10.999219 
" style="fill:none;stroke:#dde318;stroke-width:1.5;"/>
   </g>
   <g id="LineCollection_20">
    <path clip-path="url(#p7c9bf6c9bb)" d="M 179.758705 10.999219 
L 182.451207 19.869619 
L 187.125345 28.740019 
L 190.056688 32.801089 
L 190.580132 37.610419 
L 191.740812 46.480819 
L 193.585046 55.351219 
L 197.093867 64.221619 
L 201.960688 70.562764 
L 202.309023 73.092019 
L 203.802412 81.962419 
L 205.796869 88.515755 
" style="fill:none;stroke:#fde725;stroke-width:1.5;"/>
    <path clip-path="url(#p7c9bf6c9bb)" d="M 213.940414 111.850562 
L 213.924042 117.444019 
L 213.864688 119.845401 
L 210.93814 126.314419 
L 205.197654 135.184819 
L 202.759638 144.055219 
L 201.97122 152.925619 
L 201.960688 153.018031 
L 191.951286 161.796019 
L 190.114188 170.666419 
L 190.056688 170.913496 
L 178.854922 179.536819 
L 178.152687 181.149526 
L 168.948136 188.407219 
L 166.248687 191.748956 
L 158.543824 197.277619 
L 154.344687 200.531042 
L 146.021655 206.148019 
L 142.440687 206.754012 
L 130.536687 208.265544 
L 118.632687 209.084041 
L 106.728687 208.213367 
L 99.527787 206.148019 
L 94.824687 203.078028 
L 90.52197 197.277619 
L 84.457781 188.407219 
L 82.920687 186.575262 
L 81.613835 179.536819 
L 78.689027 170.666419 
L 75.295734 161.796019 
L 71.016687 153.693832 
L 70.981754 152.925619 
L 70.490769 144.055219 
L 69.741647 135.184819 
L 68.687933 126.314419 
L 67.163093 117.444019 
L 65.434409 108.573619 
L 63.82836 99.703219 
L 63.027443 90.832819 
L 62.768226 81.962419 
L 63.703148 73.092019 
L 65.657565 64.221619 
L 67.747713 55.351219 
L 69.46163 46.480819 
L 70.513837 37.610419 
L 71.016687 30.410267 
L 72.377977 28.740019 
L 79.320069 19.869619 
L 82.086952 10.999219 
" style="fill:none;stroke:#fde725;stroke-width:1.5;"/>
   </g>
   <g id="LineCollection_21">
    <path clip-path="url(#p7c9bf6c9bb)" d="M 179.968599 10.999219 
L 182.807502 19.869619 
L 187.764066 28.740019 
L 190.056688 31.916207 
L 190.676442 37.610419 
L 191.890456 46.480819 
L 193.834669 55.351219 
L 197.560899 64.221619 
L 201.960688 69.954252 
L 202.392829 73.092019 
L 203.955916 81.962419 
L 206.808888 90.832819 
L 209.449108 95.245348 
" style="fill:none;stroke:#440154;stroke-width:1.5;"/>
    <path clip-path="url(#p7c9bf6c9bb)" d="M 213.078421 122.802831 
L 211.489799 126.314419 
L 205.38974 135.184819 
L 202.813121 144.055219 
L 201.983451 152.925619 
L 201.960688 153.125358 
L 192.073669 161.796019 
L 190.128582 170.666419 
L 190.056688 170.975345 
L 178.935265 179.536819 
L 178.152687 181.334035 
L 169.18214 188.407219 
L 166.248687 192.038636 
L 158.947529 197.277619 
L 154.344687 200.843826 
L 146.485128 206.148019 
L 142.440687 206.832444 
L 130.536687 208.470358 
L 118.632687 209.372224 
L 106.728687 208.519768 
L 98.459511 206.148019 
L 94.824687 203.775354 
L 90.004697 197.277619 
L 83.568015 188.407219 
L 82.920687 187.635713 
L 81.416937 179.536819 
L 78.278226 170.666419 
L 74.661128 161.796019 
L 71.016687 154.895431 
L 70.927112 152.925619 
L 70.399607 144.055219 
L 69.601328 135.184819 
L 68.477692 126.314419 
L 66.844032 117.444019 
L 64.991009 108.573619 
L 63.267043 99.703219 
L 62.404512 90.832819 
L 62.119773 81.962419 
L 63.118399 73.092019 
L 65.217958 64.221619 
L 67.46653 55.351219 
L 69.310414 46.480819 
L 70.442287 37.610419 
L 71.016687 29.385758 
L 71.54298 28.740019 
L 79.008221 19.869619 
L 81.977066 10.999219 
" style="fill:none;stroke:#440154;stroke-width:1.5;"/>
   </g>
   <g id="LineCollection_22">
    <path clip-path="url(#p7c9bf6c9bb)" d="M 193.999343 10.999219 
L 197.143269 19.869619 
L 201.46322 28.740019 
L 201.960688 29.707671 
L 202.660016 37.610419 
L 203.930061 46.480819 
L 206.162964 55.351219 
L 210.174297 64.221619 
L 213.864688 69.898528 
L 214.462887 73.092019 
L 216.492539 81.962419 
L 219.098838 90.832819 
L 221.775267 99.703219 
L 222.464275 108.573619 
L 219.379455 117.444019 
L 216.362672 126.314419 
L 216.303458 126.60787 
" style="fill:none;stroke:#440154;stroke-width:1.5;"/>
    <path clip-path="url(#p7c9bf6c9bb)" d="M 203.735223 154.922779 
L 202.18665 161.796019 
L 201.960688 162.983287 
L 192.719452 170.666419 
L 190.114273 179.536819 
L 190.056688 179.715896 
L 178.933614 188.407219 
L 178.152687 190.323665 
L 169.100106 197.277619 
L 166.248687 202.070129 
L 160.796705 206.148019 
L 154.344687 209.553545 
L 145.110081 215.018419 
L 142.440687 215.711423 
L 130.536687 219.135154 
L 118.816109 223.888819 
L 118.632687 223.92073 
L 106.728687 224.904797 
L 101.893763 223.888819 
L 94.824687 220.491175 
L 82.920687 216.32946 
L 82.42349 215.018419 
L 79.943713 206.148019 
L 75.50388 197.277619 
L 71.016687 191.193192 
L 70.771597 188.407219 
L 69.788078 179.536819 
L 68.20558 170.666419 
L 65.675987 161.796019 
L 61.091623 152.925619 
L 59.112687 149.448991 
L 58.989344 144.055219 
L 58.695585 135.184819 
L 58.167397 126.314419 
L 57.494951 117.444019 
L 57.167896 108.573619 
L 56.88543 99.703219 
L 56.822863 90.832819 
L 56.730225 81.962419 
L 56.756127 73.092019 
L 57.271392 64.221619 
L 58.151138 55.351219 
L 58.740282 46.480819 
L 59.079736 37.610419 
L 59.112687 36.776479 
L 65.514422 28.740019 
L 69.283223 19.869619 
L 70.729719 10.999219 
" style="fill:none;stroke:#440154;stroke-width:1.5;"/>
   </g>
   <g id="LineCollection_23">
    <path clip-path="url(#p7c9bf6c9bb)" d="M 206.95957 10.999219 
L 210.296766 19.869619 
L 213.864688 27.024207 
L 214.009653 28.740019 
L 215.027611 37.610419 
L 216.988171 46.480819 
L 220.678155 55.351219 
L 225.768687 62.774871 
L 225.916497 64.221619 
L 226.787129 73.092019 
L 227.66217 81.962419 
L 228.283055 90.832819 
L 228.574033 99.703219 
L 228.268585 108.573619 
L 227.229871 117.444019 
L 226.261366 126.314419 
L 225.768687 133.105904 
L 223.952724 135.184819 
L 216.597759 144.055219 
L 214.251527 152.925619 
L 213.864688 154.989051 
L 206.286245 161.796019 
L 202.389112 170.666419 
L 201.960688 171.964855 
L 192.607436 179.536819 
L 190.056688 187.469099 
L 188.85609 188.407219 
L 178.854635 197.277619 
L 178.152687 198.814785 
L 168.786464 206.148019 
L 166.248687 209.583144 
L 158.737855 215.018419 
L 154.344687 217.712988 
L 144.877583 223.888819 
L 142.440687 224.954752 
L 130.536687 231.538456 
L 128.190567 232.759219 
L 118.632687 235.379229 
L 106.728687 239.260871 
L 94.824687 236.901324 
L 82.920687 233.07194 
L 82.557971 232.759219 
L 76.895427 223.888819 
L 71.016687 217.271783 
L 70.674136 215.018419 
L 69.018175 206.148019 
L 66.209414 197.277619 
L 61.195711 188.407219 
L 59.112687 185.210489 
L 58.978195 179.536819 
L 58.659945 170.666419 
L 58.072792 161.796019 
L 56.972656 152.925619 
L 55.037998 144.055219 
L 51.562347 135.184819 
L 47.208687 127.848177 
L 47.19641 126.573049 
" style="fill:none;stroke:#440154;stroke-width:1.5;"/>
    <path clip-path="url(#p7c9bf6c9bb)" d="M 47.012312 90.573669 
L 46.998441 81.962419 
L 47.012579 73.092019 
L 47.108613 64.221619 
L 47.203037 55.351219 
L 47.208687 54.903033 
L 52.78506 46.480819 
L 56.340834 37.610419 
L 58.156204 28.740019 
L 58.931438 19.869619 
L 59.112687 16.484307 
L 64.293572 10.999219 
" style="fill:none;stroke:#440154;stroke-width:1.5;"/>
   </g>
   <g id="LineCollection_24">
    <path clip-path="url(#p7c9bf6c9bb)" d="M 217.635165 10.999219 
L 221.65507 19.869619 
L 225.768687 26.075602 
L 225.941915 28.740019 
L 226.796004 37.610419 
L 228.634454 46.480819 
L 232.141887 55.351219 
L 237.672687 64.052553 
L 237.676959 64.221619 
L 237.838456 73.092019 
L 237.957277 81.962419 
L 238.020895 90.832819 
L 238.017945 99.703219 
L 237.926084 108.573619 
L 237.770589 117.444019 
L 237.672687 121.37206 
L 234.051225 126.314419 
L 228.638008 135.184819 
L 226.370754 144.055219 
L 225.768687 148.493904 
L 224.177859 150.021923 
" style="fill:none;stroke:#440154;stroke-width:1.5;"/>
    <path clip-path="url(#p7c9bf6c9bb)" d="M 201.262719 181.520721 
L 192.805305 188.407219 
L 190.056688 196.175815 
L 188.680033 197.277619 
L 178.840152 206.148019 
L 178.152687 207.639242 
L 168.718375 215.018419 
L 166.248687 217.557575 
L 157.608061 223.888819 
L 154.344687 226.303613 
L 145.1414 232.759219 
L 142.440687 234.503631 
L 132.018545 241.629619 
L 130.536687 242.516257 
L 118.632687 249.492122 
L 116.490739 250.500019 
L 106.728687 252.632942 
L 94.824687 252.971816 
L 86.029268 250.500019 
L 82.920687 248.869066 
L 71.016687 244.591875 
L 70.52912 241.629619 
L 69.129403 232.759219 
L 65.742439 223.888819 
L 59.112687 215.618495 
L 59.085179 215.018419 
L 58.748957 206.148019 
L 58.209976 197.277619 
L 57.258981 188.407219 
L 55.494613 179.536819 
L 52.268008 170.666419 
L 47.208687 162.606219 
L 47.199694 161.796019 
L 47.096099 152.925619 
L 46.909437 144.055219 
L 46.585638 135.184819 
L 46.03656 126.314419 
L 45.056825 117.444019 
L 44.114144 108.573619 
L 43.967954 99.703219 
L 43.705204 90.832819 
L 43.555422 81.962419 
L 43.799144 73.092019 
L 45.089622 64.221619 
L 46.069121 55.351219 
L 46.683442 46.480819 
L 47.031542 37.610419 
L 47.208687 28.895067 
L 47.336988 28.740019 
L 55.283199 19.869619 
L 58.181574 10.999219 
" style="fill:none;stroke:#440154;stroke-width:1.5;"/>
   </g>
   <g id="LineCollection_25">
    <path clip-path="url(#p7c9bf6c9bb)" d="M 35.304687 54.907913 
L 39.217545 49.002454 
" style="fill:none;stroke:#440154;stroke-width:1.5;"/>
    <path clip-path="url(#p7c9bf6c9bb)" d="M 227.015588 10.999219 
L 229.144616 19.869619 
L 233.903321 28.740019 
L 237.672687 33.706191 
L 237.812816 37.610419 
L 238.277498 46.480819 
L 239.12087 55.351219 
L 240.381831 64.221619 
L 241.832776 73.092019 
L 242.772563 81.962419 
L 243.233049 90.832819 
L 243.008769 99.703219 
L 241.894706 108.573619 
L 240.420263 117.444019 
L 239.138527 126.314419 
L 238.17399 135.184819 
L 237.672687 141.653688 
L 235.364719 144.055219 
L 227.940583 152.925619 
L 225.913849 161.796019 
L 225.768687 162.451085 
L 216.362483 170.666419 
L 215.275665 173.844925 
" style="fill:none;stroke:#440154;stroke-width:1.5;"/>
    <path clip-path="url(#p7c9bf6c9bb)" d="M 188.814791 206.536845 
L 178.900774 215.018419 
L 178.152687 216.371554 
L 168.31682 223.888819 
L 166.248687 225.949126 
L 157.104048 232.759219 
L 154.344687 235.047703 
L 145.386018 241.629619 
L 142.440687 244.240561 
L 133.792861 250.500019 
L 130.536687 253.169414 
L 121.545342 259.370419 
L 118.632687 261.1504 
L 106.728687 267.304114 
L 102.03297 268.240819 
L 94.824687 268.637662 
L 92.702651 268.240819 
L 82.920687 263.57889 
L 71.016687 260.542183 
L 70.216656 259.370419 
L 65.983738 250.500019 
L 59.112687 241.973215 
L 59.091659 241.629619 
L 58.569429 232.759219 
L 57.571225 223.888819 
L 55.807833 215.018419 
L 52.867558 206.148019 
L 47.720975 197.277619 
L 47.208688 196.442004 
L 47.115938 188.407219 
L 46.934675 179.536819 
L 46.62096 170.666419 
L 46.069364 161.796019 
L 45.059865 152.925619 
L 43.177469 144.055219 
L 39.950162 135.184819 
L 35.304687 127.149193 
" style="fill:none;stroke:#440154;stroke-width:1.5;"/>
   </g>
   <g id="LineCollection_26">
    <path clip-path="url(#p7c9bf6c9bb)" d="M 76.435117 277.111219 
L 71.016687 274.524981 
L 63.502361 268.240819 
L 59.112687 264.146858 
L 58.684638 259.370419 
L 57.469867 250.500019 
L 57.299675 249.904975 
" style="fill:none;stroke:#450457;stroke-width:1.5;"/>
    <path clip-path="url(#p7c9bf6c9bb)" d="M 46.669002 205.633045 
L 46.161187 197.277619 
L 45.140949 188.407219 
L 43.339381 179.536819 
L 40.238501 170.666419 
L 35.304687 162.311071 
" style="fill:none;stroke:#450457;stroke-width:1.5;"/>
    <path clip-path="url(#p7c9bf6c9bb)" d="M 35.304687 28.901027 
L 35.435045 28.740019 
L 43.807661 19.869619 
L 46.386713 10.999219 
" style="fill:none;stroke:#450457;stroke-width:1.5;"/>
    <path clip-path="url(#p7c9bf6c9bb)" d="M 237.728318 10.999219 
L 238.104347 19.869619 
L 239.159318 28.740019 
L 241.577549 37.610419 
L 246.392831 46.480819 
L 249.576687 51.254549 
L 249.600665 55.351219 
L 249.672888 64.221619 
L 249.787579 73.092019 
L 249.921578 81.962419 
L 250.044398 90.832819 
L 249.992139 99.703219 
L 249.875423 108.573619 
L 249.742958 117.444019 
L 249.626267 126.314419 
L 249.576687 129.502105 
L 245.426378 135.184819 
L 240.023072 144.055219 
L 238.055516 152.925619 
L 237.952916 153.678069 
" style="fill:none;stroke:#450457;stroke-width:1.5;"/>
    <path clip-path="url(#p7c9bf6c9bb)" d="M 211.303935 190.591543 
L 203.070372 197.277619 
L 201.960688 199.614961 
L 193.907891 206.148019 
L 190.056688 214.975456 
L 190.003061 215.018419 
L 178.852584 223.888819 
L 178.152687 224.969625 
L 167.926489 232.759219 
L 166.248687 234.486448 
L 156.748575 241.629619 
L 154.344687 243.892034 
L 145.614372 250.500019 
L 142.440687 253.961931 
L 135.258588 259.370419 
L 130.536687 264.486777 
L 125.33828 268.240819 
L 118.632687 273.212808 
L 112.287448 277.111219 
" style="fill:none;stroke:#450457;stroke-width:1.5;"/>
   </g>
   <g id="LineCollection_27">
    <path clip-path="url(#p7c9bf6c9bb)" d="M 58.306676 277.111219 
L 56.024323 268.240819 
L 50.606471 259.370419 
L 48.979125 257.326756 
" style="fill:none;stroke:#482475;stroke-width:1.5;"/>
    <path clip-path="url(#p7c9bf6c9bb)" d="M 41.734376 208.118062 
L 41.075204 206.148019 
L 35.634766 197.277619 
L 35.304687 196.756069 
" style="fill:none;stroke:#482475;stroke-width:1.5;"/>
    <path clip-path="url(#p7c9bf6c9bb)" d="M 35.304687 13.799175 
L 38.097667 10.999219 
" style="fill:none;stroke:#482475;stroke-width:1.5;"/>
    <path clip-path="url(#p7c9bf6c9bb)" d="M 239.534593 10.999219 
L 243.782667 19.869619 
L 249.576687 26.560215 
L 249.592068 28.740019 
L 249.673992 37.610419 
L 249.874633 46.480819 
L 250.312841 55.351219 
L 251.130329 64.221619 
L 252.403692 73.092019 
L 253.938021 81.962419 
L 255.369627 90.832819 
L 254.776239 99.703219 
L 253.579837 108.573619 
L 252.283643 117.444019 
L 251.170734 126.314419 
L 250.363283 135.184819 
L 249.804667 144.055219 
L 249.576687 148.008857 
L 248.304791 149.274327 
" style="fill:none;stroke:#482475;stroke-width:1.5;"/>
    <path clip-path="url(#p7c9bf6c9bb)" d="M 219.338651 188.584655 
L 214.055082 197.277619 
L 213.864688 197.676128 
L 203.369096 206.148019 
L 201.960688 208.852079 
L 194.295934 215.018419 
L 190.056688 223.874793 
L 190.03898 223.888819 
L 178.749975 232.759219 
L 178.152687 233.592793 
L 167.628445 241.629619 
L 166.248687 243.042958 
L 156.421497 250.500019 
L 154.344687 252.741052 
L 145.723138 259.370419 
L 142.440687 263.64644 
L 136.493715 268.240819 
L 130.536687 275.694048 
L 128.633653 277.111219 
" style="fill:none;stroke:#482475;stroke-width:1.5;"/>
   </g>
   <g id="LineCollection_28">
    <path clip-path="url(#p7c9bf6c9bb)" d="M 47.194147 277.111219 
L 46.965578 268.240819 
L 46.463114 259.370419 
L 45.426833 250.500019 
L 43.315636 241.629619 
L 39.03704 232.759219 
L 35.304687 227.308222 
" style="fill:none;stroke:#fde725;stroke-width:1.5;"/>
    <path clip-path="url(#p7c9bf6c9bb)" d="M 249.603476 10.999219 
L 249.72719 19.869619 
L 250.054731 28.740019 
L 250.909571 37.610419 
L 252.975748 46.480819 
L 257.4346 55.351219 
L 261.480687 61.225108 
L 261.494058 64.221619 
L 261.555307 73.092019 
L 261.659925 81.962419 
L 261.785751 90.832819 
L 261.815339 99.703219 
L 261.702593 108.573619 
L 261.608053 117.444019 
L 261.524724 126.314419 
L 261.480687 130.74951 
L 258.706706 135.184819 
L 253.579405 144.055219 
L 252.410794 147.896861 
" style="fill:none;stroke:#fde725;stroke-width:1.5;"/>
    <path clip-path="url(#p7c9bf6c9bb)" d="M 226.229813 192.249186 
L 225.768687 193.333758 
L 220.908837 197.277619 
L 214.204601 206.148019 
L 213.864688 206.779877 
L 203.544502 215.018419 
L 201.960688 218.050471 
L 194.674554 223.888819 
L 190.056688 232.422976 
L 189.628159 232.759219 
L 178.648764 241.629619 
L 178.152687 242.266845 
L 167.372384 250.500019 
L 166.248687 251.644646 
L 156.162622 259.370419 
L 154.344687 261.540267 
L 145.722625 268.240819 
L 142.440687 273.077502 
L 137.263588 277.111219 
" style="fill:none;stroke:#fde725;stroke-width:1.5;"/>
   </g>
   <g id="line2d_20">
    <path clip-path="url(#p7c9bf6c9bb)" d="M 406.987188 36.760113 
L 405.127119 36.453252 
L 366.351901 30.038222 
L 334.441821 25.066197 
L 308.414869 21.487205 
L 287.837726 18.955048 
L 271.960277 17.739612 
L 259.793344 17.53675 
L 250.684355 18.248665 
L 243.922786 19.442948 
L 238.696547 21.08247 
L 234.632031 23.229687 
L 231.150116 25.514773 
L 228.273909 27.743645 
L 226.259106 30.772965 
L 224.163942 33.803123 
L 222.284786 36.676582 
L 220.631071 39.815264 
L 219.163551 43.097341 
L 218.277883 46.429229 
L 217.382924 49.815084 
L 216.120507 53.363386 
L 215.115605 56.889686 
L 213.857698 60.014848 
L 213.502014 63.988842 
L 212.503745 67.783581 
L 211.801897 71.255926 
L 210.936489 74.686105 
L 210.321405 78.30449 
L 209.623285 81.865894 
L 209.019149 85.460201 
L 208.342646 89.078072 
L 207.56653 92.340198 
L 206.770199 95.492125 
L 206.498782 99.444474 
L 205.911999 102.929651 
L 205.126377 106.515247 
L 204.585769 110.513293 
L 203.844221 114.305774 
L 202.900296 118.547747 
L 202.34064 123.351773 
L 201.263425 128.644179 
L 201.287388 129.547687 
L 200.847218 130.243105 
L 200.335637 130.850911 
L 199.885419 131.4863 
L 199.395316 132.06249 
L 198.976678 132.650978 
L 198.51614 133.194122 
L 198.097769 133.737345 
L 197.67513 134.260308 
L 197.340942 134.854408 
L 197.022743 135.429514 
L 196.714343 136.03387 
L 196.435415 136.658684 
L 196.114036 137.205142 
L 195.886806 137.77698 
L 195.674236 138.356911 
L 195.45359 138.907552 
L 195.292244 139.511417 
L 195.114191 140.029524 
L 194.983873 140.58935 
L 194.833762 141.148387 
L 194.727843 141.709429 
L 194.648124 142.319045 
L 194.557869 142.895868 
L 194.494521 143.56236 
L 194.497576 143.656958 
L 194.484117 143.754 
L 194.468246 143.835168 
L 194.447826 143.897956 
L 194.422738 143.954338 
L 194.403605 144.006452 
L 194.380211 144.045729 
L 194.354544 144.066769 
L 194.318776 144.075508 
L 194.288665 144.090109 
L 194.272785 144.126373 
L 194.248179 144.138306 
L 194.231626 144.15276 
L 194.209705 144.163577 
L 194.185008 144.167432 
L 194.16863 144.177256 
L 194.148114 144.174222 
L 194.125584 144.166839 
L 194.111087 144.153754 
L 194.098777 144.14501 
L 194.080871 144.140398 
L 194.070049 144.120858 
L 194.052638 144.106021 
L 194.034193 144.077418 
" style="fill:none;stroke:#1f77b4;stroke-linecap:square;stroke-width:1.5;"/>
    <defs>
     <path d="M 0 1.5 
C 0.397805 1.5 0.77937 1.341951 1.06066 1.06066 
C 1.341951 0.77937 1.5 0.397805 1.5 0 
C 1.5 -0.397805 1.341951 -0.77937 1.06066 -1.06066 
C 0.77937 -1.341951 0.397805 -1.5 0 -1.5 
C -0.397805 -1.5 -0.77937 -1.341951 -1.06066 -1.06066 
C -1.341951 -0.77937 -1.5 -0.397805 -1.5 0 
C -1.5 0.397805 -1.341951 0.77937 -1.06066 1.06066 
C -0.77937 1.341951 -0.397805 1.5 0 1.5 
z
" id="m17852fc3eb" style="stroke:#1f77b4;"/>
    </defs>
    <g clip-path="url(#p7c9bf6c9bb)">
     <use style="fill:#1f77b4;stroke:#1f77b4;" x="1354.517801" xlink:href="#m17852fc3eb" y="179.728969"/>
     <use style="fill:#1f77b4;stroke:#1f77b4;" x="1161.249875" xlink:href="#m17852fc3eb" y="154.704725"/>
     <use style="fill:#1f77b4;stroke:#1f77b4;" x="999.048248" xlink:href="#m17852fc3eb" y="132.193656"/>
     <use style="fill:#1f77b4;stroke:#1f77b4;" x="863.086607" xlink:href="#m17852fc3eb" y="112.044694"/>
     <use style="fill:#1f77b4;stroke:#1f77b4;" x="749.207502" xlink:href="#m17852fc3eb" y="94.188061"/>
     <use style="fill:#1f77b4;stroke:#1f77b4;" x="653.879505" xlink:href="#m17852fc3eb" y="78.673676"/>
     <use style="fill:#1f77b4;stroke:#1f77b4;" x="574.125829" xlink:href="#m17852fc3eb" y="65.285571"/>
     <use style="fill:#1f77b4;stroke:#1f77b4;" x="507.388127" xlink:href="#m17852fc3eb" y="53.841015"/>
     <use style="fill:#1f77b4;stroke:#1f77b4;" x="451.672771" xlink:href="#m17852fc3eb" y="44.132044"/>
     <use style="fill:#1f77b4;stroke:#1f77b4;" x="405.127119" xlink:href="#m17852fc3eb" y="36.453252"/>
     <use style="fill:#1f77b4;stroke:#1f77b4;" x="366.351901" xlink:href="#m17852fc3eb" y="30.038222"/>
     <use style="fill:#1f77b4;stroke:#1f77b4;" x="334.441821" xlink:href="#m17852fc3eb" y="25.066197"/>
     <use style="fill:#1f77b4;stroke:#1f77b4;" x="308.414869" xlink:href="#m17852fc3eb" y="21.487205"/>
     <use style="fill:#1f77b4;stroke:#1f77b4;" x="287.837726" xlink:href="#m17852fc3eb" y="18.955048"/>
     <use style="fill:#1f77b4;stroke:#1f77b4;" x="271.960277" xlink:href="#m17852fc3eb" y="17.739612"/>
     <use style="fill:#1f77b4;stroke:#1f77b4;" x="259.793344" xlink:href="#m17852fc3eb" y="17.53675"/>
     <use style="fill:#1f77b4;stroke:#1f77b4;" x="250.684355" xlink:href="#m17852fc3eb" y="18.248665"/>
     <use style="fill:#1f77b4;stroke:#1f77b4;" x="243.922786" xlink:href="#m17852fc3eb" y="19.442948"/>
     <use style="fill:#1f77b4;stroke:#1f77b4;" x="238.696547" xlink:href="#m17852fc3eb" y="21.08247"/>
     <use style="fill:#1f77b4;stroke:#1f77b4;" x="234.632031" xlink:href="#m17852fc3eb" y="23.229687"/>
     <use style="fill:#1f77b4;stroke:#1f77b4;" x="231.150116" xlink:href="#m17852fc3eb" y="25.514773"/>
     <use style="fill:#1f77b4;stroke:#1f77b4;" x="228.273909" xlink:href="#m17852fc3eb" y="27.743645"/>
     <use style="fill:#1f77b4;stroke:#1f77b4;" x="226.259106" xlink:href="#m17852fc3eb" y="30.772965"/>
     <use style="fill:#1f77b4;stroke:#1f77b4;" x="224.163942" xlink:href="#m17852fc3eb" y="33.803123"/>
     <use style="fill:#1f77b4;stroke:#1f77b4;" x="222.284786" xlink:href="#m17852fc3eb" y="36.676582"/>
     <use style="fill:#1f77b4;stroke:#1f77b4;" x="220.631071" xlink:href="#m17852fc3eb" y="39.815264"/>
     <use style="fill:#1f77b4;stroke:#1f77b4;" x="219.163551" xlink:href="#m17852fc3eb" y="43.097341"/>
     <use style="fill:#1f77b4;stroke:#1f77b4;" x="218.277883" xlink:href="#m17852fc3eb" y="46.429229"/>
     <use style="fill:#1f77b4;stroke:#1f77b4;" x="217.382924" xlink:href="#m17852fc3eb" y="49.815084"/>
     <use style="fill:#1f77b4;stroke:#1f77b4;" x="216.120507" xlink:href="#m17852fc3eb" y="53.363386"/>
     <use style="fill:#1f77b4;stroke:#1f77b4;" x="215.115605" xlink:href="#m17852fc3eb" y="56.889686"/>
     <use style="fill:#1f77b4;stroke:#1f77b4;" x="213.857698" xlink:href="#m17852fc3eb" y="60.014848"/>
     <use style="fill:#1f77b4;stroke:#1f77b4;" x="213.502014" xlink:href="#m17852fc3eb" y="63.988842"/>
     <use style="fill:#1f77b4;stroke:#1f77b4;" x="212.503745" xlink:href="#m17852fc3eb" y="67.783581"/>
     <use style="fill:#1f77b4;stroke:#1f77b4;" x="211.801897" xlink:href="#m17852fc3eb" y="71.255926"/>
     <use style="fill:#1f77b4;stroke:#1f77b4;" x="210.936489" xlink:href="#m17852fc3eb" y="74.686105"/>
     <use style="fill:#1f77b4;stroke:#1f77b4;" x="210.321405" xlink:href="#m17852fc3eb" y="78.30449"/>
     <use style="fill:#1f77b4;stroke:#1f77b4;" x="209.623285" xlink:href="#m17852fc3eb" y="81.865894"/>
     <use style="fill:#1f77b4;stroke:#1f77b4;" x="209.019149" xlink:href="#m17852fc3eb" y="85.460201"/>
     <use style="fill:#1f77b4;stroke:#1f77b4;" x="208.342646" xlink:href="#m17852fc3eb" y="89.078072"/>
     <use style="fill:#1f77b4;stroke:#1f77b4;" x="207.56653" xlink:href="#m17852fc3eb" y="92.340198"/>
     <use style="fill:#1f77b4;stroke:#1f77b4;" x="206.770199" xlink:href="#m17852fc3eb" y="95.492125"/>
     <use style="fill:#1f77b4;stroke:#1f77b4;" x="206.498782" xlink:href="#m17852fc3eb" y="99.444474"/>
     <use style="fill:#1f77b4;stroke:#1f77b4;" x="205.911999" xlink:href="#m17852fc3eb" y="102.929651"/>
     <use style="fill:#1f77b4;stroke:#1f77b4;" x="205.126377" xlink:href="#m17852fc3eb" y="106.515247"/>
     <use style="fill:#1f77b4;stroke:#1f77b4;" x="204.585769" xlink:href="#m17852fc3eb" y="110.513293"/>
     <use style="fill:#1f77b4;stroke:#1f77b4;" x="203.844221" xlink:href="#m17852fc3eb" y="114.305774"/>
     <use style="fill:#1f77b4;stroke:#1f77b4;" x="202.900296" xlink:href="#m17852fc3eb" y="118.547747"/>
     <use style="fill:#1f77b4;stroke:#1f77b4;" x="202.34064" xlink:href="#m17852fc3eb" y="123.351773"/>
     <use style="fill:#1f77b4;stroke:#1f77b4;" x="201.263425" xlink:href="#m17852fc3eb" y="128.644179"/>
     <use style="fill:#1f77b4;stroke:#1f77b4;" x="201.287388" xlink:href="#m17852fc3eb" y="129.547687"/>
     <use style="fill:#1f77b4;stroke:#1f77b4;" x="200.847218" xlink:href="#m17852fc3eb" y="130.243105"/>
     <use style="fill:#1f77b4;stroke:#1f77b4;" x="200.335637" xlink:href="#m17852fc3eb" y="130.850911"/>
     <use style="fill:#1f77b4;stroke:#1f77b4;" x="199.885419" xlink:href="#m17852fc3eb" y="131.4863"/>
     <use style="fill:#1f77b4;stroke:#1f77b4;" x="199.395316" xlink:href="#m17852fc3eb" y="132.06249"/>
     <use style="fill:#1f77b4;stroke:#1f77b4;" x="198.976678" xlink:href="#m17852fc3eb" y="132.650978"/>
     <use style="fill:#1f77b4;stroke:#1f77b4;" x="198.51614" xlink:href="#m17852fc3eb" y="133.194122"/>
     <use style="fill:#1f77b4;stroke:#1f77b4;" x="198.097769" xlink:href="#m17852fc3eb" y="133.737345"/>
     <use style="fill:#1f77b4;stroke:#1f77b4;" x="197.67513" xlink:href="#m17852fc3eb" y="134.260308"/>
     <use style="fill:#1f77b4;stroke:#1f77b4;" x="197.340942" xlink:href="#m17852fc3eb" y="134.854408"/>
     <use style="fill:#1f77b4;stroke:#1f77b4;" x="197.022743" xlink:href="#m17852fc3eb" y="135.429514"/>
     <use style="fill:#1f77b4;stroke:#1f77b4;" x="196.714343" xlink:href="#m17852fc3eb" y="136.03387"/>
     <use style="fill:#1f77b4;stroke:#1f77b4;" x="196.435415" xlink:href="#m17852fc3eb" y="136.658684"/>
     <use style="fill:#1f77b4;stroke:#1f77b4;" x="196.114036" xlink:href="#m17852fc3eb" y="137.205142"/>
     <use style="fill:#1f77b4;stroke:#1f77b4;" x="195.886806" xlink:href="#m17852fc3eb" y="137.77698"/>
     <use style="fill:#1f77b4;stroke:#1f77b4;" x="195.674236" xlink:href="#m17852fc3eb" y="138.356911"/>
     <use style="fill:#1f77b4;stroke:#1f77b4;" x="195.45359" xlink:href="#m17852fc3eb" y="138.907552"/>
     <use style="fill:#1f77b4;stroke:#1f77b4;" x="195.292244" xlink:href="#m17852fc3eb" y="139.511417"/>
     <use style="fill:#1f77b4;stroke:#1f77b4;" x="195.114191" xlink:href="#m17852fc3eb" y="140.029524"/>
     <use style="fill:#1f77b4;stroke:#1f77b4;" x="194.983873" xlink:href="#m17852fc3eb" y="140.58935"/>
     <use style="fill:#1f77b4;stroke:#1f77b4;" x="194.833762" xlink:href="#m17852fc3eb" y="141.148387"/>
     <use style="fill:#1f77b4;stroke:#1f77b4;" x="194.727843" xlink:href="#m17852fc3eb" y="141.709429"/>
     <use style="fill:#1f77b4;stroke:#1f77b4;" x="194.648124" xlink:href="#m17852fc3eb" y="142.319045"/>
     <use style="fill:#1f77b4;stroke:#1f77b4;" x="194.557869" xlink:href="#m17852fc3eb" y="142.895868"/>
     <use style="fill:#1f77b4;stroke:#1f77b4;" x="194.494521" xlink:href="#m17852fc3eb" y="143.56236"/>
     <use style="fill:#1f77b4;stroke:#1f77b4;" x="194.497576" xlink:href="#m17852fc3eb" y="143.656958"/>
     <use style="fill:#1f77b4;stroke:#1f77b4;" x="194.484117" xlink:href="#m17852fc3eb" y="143.754"/>
     <use style="fill:#1f77b4;stroke:#1f77b4;" x="194.468246" xlink:href="#m17852fc3eb" y="143.835168"/>
     <use style="fill:#1f77b4;stroke:#1f77b4;" x="194.447826" xlink:href="#m17852fc3eb" y="143.897956"/>
     <use style="fill:#1f77b4;stroke:#1f77b4;" x="194.422738" xlink:href="#m17852fc3eb" y="143.954338"/>
     <use style="fill:#1f77b4;stroke:#1f77b4;" x="194.403605" xlink:href="#m17852fc3eb" y="144.006452"/>
     <use style="fill:#1f77b4;stroke:#1f77b4;" x="194.380211" xlink:href="#m17852fc3eb" y="144.045729"/>
     <use style="fill:#1f77b4;stroke:#1f77b4;" x="194.354544" xlink:href="#m17852fc3eb" y="144.066769"/>
     <use style="fill:#1f77b4;stroke:#1f77b4;" x="194.318776" xlink:href="#m17852fc3eb" y="144.075508"/>
     <use style="fill:#1f77b4;stroke:#1f77b4;" x="194.288665" xlink:href="#m17852fc3eb" y="144.090109"/>
     <use style="fill:#1f77b4;stroke:#1f77b4;" x="194.272785" xlink:href="#m17852fc3eb" y="144.126373"/>
     <use style="fill:#1f77b4;stroke:#1f77b4;" x="194.248179" xlink:href="#m17852fc3eb" y="144.138306"/>
     <use style="fill:#1f77b4;stroke:#1f77b4;" x="194.231626" xlink:href="#m17852fc3eb" y="144.15276"/>
     <use style="fill:#1f77b4;stroke:#1f77b4;" x="194.209705" xlink:href="#m17852fc3eb" y="144.163577"/>
     <use style="fill:#1f77b4;stroke:#1f77b4;" x="194.185008" xlink:href="#m17852fc3eb" y="144.167432"/>
     <use style="fill:#1f77b4;stroke:#1f77b4;" x="194.16863" xlink:href="#m17852fc3eb" y="144.177256"/>
     <use style="fill:#1f77b4;stroke:#1f77b4;" x="194.148114" xlink:href="#m17852fc3eb" y="144.174222"/>
     <use style="fill:#1f77b4;stroke:#1f77b4;" x="194.125584" xlink:href="#m17852fc3eb" y="144.166839"/>
     <use style="fill:#1f77b4;stroke:#1f77b4;" x="194.111087" xlink:href="#m17852fc3eb" y="144.153754"/>
     <use style="fill:#1f77b4;stroke:#1f77b4;" x="194.098777" xlink:href="#m17852fc3eb" y="144.14501"/>
     <use style="fill:#1f77b4;stroke:#1f77b4;" x="194.080871" xlink:href="#m17852fc3eb" y="144.140398"/>
     <use style="fill:#1f77b4;stroke:#1f77b4;" x="194.070049" xlink:href="#m17852fc3eb" y="144.120858"/>
     <use style="fill:#1f77b4;stroke:#1f77b4;" x="194.052638" xlink:href="#m17852fc3eb" y="144.106021"/>
     <use style="fill:#1f77b4;stroke:#1f77b4;" x="194.034193" xlink:href="#m17852fc3eb" y="144.077418"/>
    </g>
   </g>
   <g id="patch_3">
    <path d="M 35.304688 277.111219 
L 35.304688 10.999219 
" style="fill:none;stroke:#000000;stroke-linecap:square;stroke-linejoin:miter;stroke-width:0.8;"/>
   </g>
   <g id="patch_4">
    <path d="M 392.424688 277.111219 
L 392.424688 10.999219 
" style="fill:none;stroke:#000000;stroke-linecap:square;stroke-linejoin:miter;stroke-width:0.8;"/>
   </g>
   <g id="patch_5">
    <path d="M 35.304687 277.111219 
L 392.424688 277.111219 
" style="fill:none;stroke:#000000;stroke-linecap:square;stroke-linejoin:miter;stroke-width:0.8;"/>
   </g>
   <g id="patch_6">
    <path d="M 35.304687 10.999219 
L 392.424688 10.999219 
" style="fill:none;stroke:#000000;stroke-linecap:square;stroke-linejoin:miter;stroke-width:0.8;"/>
   </g>
   <g id="text_20">
    <g clip-path="url(#p7c9bf6c9bb)">
     <!-- 1.500 -->
     <g style="fill:#453781;" transform="translate(198.351294 118.41743)rotate(-284.551119)scale(0.06 -0.06)">
      <defs>
       <path d="M 10.6875 12.40625 
L 21 12.40625 
L 21 0 
L 10.6875 0 
z
" id="DejaVuSans-46"/>
      </defs>
      <use xlink:href="#DejaVuSans-49"/>
      <use x="63.623047" xlink:href="#DejaVuSans-46"/>
      <use x="95.410156" xlink:href="#DejaVuSans-53"/>
      <use x="159.033203" xlink:href="#DejaVuSans-48"/>
      <use x="222.65625" xlink:href="#DejaVuSans-48"/>
     </g>
    </g>
   </g>
   <g id="text_21">
    <g clip-path="url(#p7c9bf6c9bb)">
     <!-- 2.000 -->
     <g style="fill:#404688;" transform="translate(198.932365 91.565345)rotate(-280.59018)scale(0.06 -0.06)">
      <use xlink:href="#DejaVuSans-50"/>
      <use x="63.623047" xlink:href="#DejaVuSans-46"/>
      <use x="95.410156" xlink:href="#DejaVuSans-48"/>
      <use x="159.033203" xlink:href="#DejaVuSans-48"/>
      <use x="222.65625" xlink:href="#DejaVuSans-48"/>
     </g>
    </g>
   </g>
   <g id="text_22">
    <g clip-path="url(#p7c9bf6c9bb)">
     <!-- 2.500 -->
     <g style="fill:#39558c;" transform="translate(178.346373 65.400919)rotate(-287.52728)scale(0.06 -0.06)">
      <use xlink:href="#DejaVuSans-50"/>
      <use x="63.623047" xlink:href="#DejaVuSans-46"/>
      <use x="95.410156" xlink:href="#DejaVuSans-53"/>
      <use x="159.033203" xlink:href="#DejaVuSans-48"/>
      <use x="222.65625" xlink:href="#DejaVuSans-48"/>
     </g>
    </g>
   </g>
   <g id="text_23">
    <g clip-path="url(#p7c9bf6c9bb)">
     <!-- 3.000 -->
     <g style="fill:#33638d;" transform="translate(108.199876 197.412154)rotate(-349.970059)scale(0.06 -0.06)">
      <defs>
       <path d="M 40.578125 39.3125 
Q 47.65625 37.796875 51.625 33 
Q 55.609375 28.21875 55.609375 21.1875 
Q 55.609375 10.40625 48.1875 4.484375 
Q 40.765625 -1.421875 27.09375 -1.421875 
Q 22.515625 -1.421875 17.65625 -0.515625 
Q 12.796875 0.390625 7.625 2.203125 
L 7.625 11.71875 
Q 11.71875 9.328125 16.59375 8.109375 
Q 21.484375 6.890625 26.8125 6.890625 
Q 36.078125 6.890625 40.9375 10.546875 
Q 45.796875 14.203125 45.796875 21.1875 
Q 45.796875 27.640625 41.28125 31.265625 
Q 36.765625 34.90625 28.71875 34.90625 
L 20.21875 34.90625 
L 20.21875 43.015625 
L 29.109375 43.015625 
Q 36.375 43.015625 40.234375 45.921875 
Q 44.09375 48.828125 44.09375 54.296875 
Q 44.09375 59.90625 40.109375 62.90625 
Q 36.140625 65.921875 28.71875 65.921875 
Q 24.65625 65.921875 20.015625 65.03125 
Q 15.375 64.15625 9.8125 62.3125 
L 9.8125 71.09375 
Q 15.4375 72.65625 20.34375 73.4375 
Q 25.25 74.21875 29.59375 74.21875 
Q 40.828125 74.21875 47.359375 69.109375 
Q 53.90625 64.015625 53.90625 55.328125 
Q 53.90625 49.265625 50.4375 45.09375 
Q 46.96875 40.921875 40.578125 39.3125 
z
" id="DejaVuSans-51"/>
      </defs>
      <use xlink:href="#DejaVuSans-51"/>
      <use x="63.623047" xlink:href="#DejaVuSans-46"/>
      <use x="95.410156" xlink:href="#DejaVuSans-48"/>
      <use x="159.033203" xlink:href="#DejaVuSans-48"/>
      <use x="222.65625" xlink:href="#DejaVuSans-48"/>
     </g>
    </g>
   </g>
   <g id="text_24">
    <g clip-path="url(#p7c9bf6c9bb)">
     <!-- 3.500 -->
     <g style="fill:#2d718e;" transform="translate(88.246851 172.251012)rotate(-292.681518)scale(0.06 -0.06)">
      <use xlink:href="#DejaVuSans-51"/>
      <use x="63.623047" xlink:href="#DejaVuSans-46"/>
      <use x="95.410156" xlink:href="#DejaVuSans-53"/>
      <use x="159.033203" xlink:href="#DejaVuSans-48"/>
      <use x="222.65625" xlink:href="#DejaVuSans-48"/>
     </g>
    </g>
   </g>
   <g id="text_25">
    <g clip-path="url(#p7c9bf6c9bb)">
     <!-- 4.000 -->
     <g style="fill:#287d8e;" transform="translate(172.883054 10.748967)rotate(-296.136486)scale(0.06 -0.06)">
      <defs>
       <path d="M 37.796875 64.3125 
L 12.890625 25.390625 
L 37.796875 25.390625 
z
M 35.203125 72.90625 
L 47.609375 72.90625 
L 47.609375 25.390625 
L 58.015625 25.390625 
L 58.015625 17.1875 
L 47.609375 17.1875 
L 47.609375 0 
L 37.796875 0 
L 37.796875 17.1875 
L 4.890625 17.1875 
L 4.890625 26.703125 
z
" id="DejaVuSans-52"/>
      </defs>
      <use xlink:href="#DejaVuSans-52"/>
      <use x="63.623047" xlink:href="#DejaVuSans-46"/>
      <use x="95.410156" xlink:href="#DejaVuSans-48"/>
      <use x="159.033203" xlink:href="#DejaVuSans-48"/>
      <use x="222.65625" xlink:href="#DejaVuSans-48"/>
     </g>
    </g>
   </g>
   <g id="text_26">
    <g clip-path="url(#p7c9bf6c9bb)">
     <!-- 4.500 -->
     <g style="fill:#238a8d;" transform="translate(84.121493 18.5904)rotate(-49.304768)scale(0.06 -0.06)">
      <use xlink:href="#DejaVuSans-52"/>
      <use x="63.623047" xlink:href="#DejaVuSans-46"/>
      <use x="95.410156" xlink:href="#DejaVuSans-53"/>
      <use x="159.033203" xlink:href="#DejaVuSans-48"/>
      <use x="222.65625" xlink:href="#DejaVuSans-48"/>
     </g>
    </g>
   </g>
   <g id="text_27">
    <g clip-path="url(#p7c9bf6c9bb)">
     <!-- 5.000 -->
     <g style="fill:#1f968b;" transform="translate(200.475141 82.718648)rotate(-281.009914)scale(0.06 -0.06)">
      <use xlink:href="#DejaVuSans-53"/>
      <use x="63.623047" xlink:href="#DejaVuSans-46"/>
      <use x="95.410156" xlink:href="#DejaVuSans-48"/>
      <use x="159.033203" xlink:href="#DejaVuSans-48"/>
      <use x="222.65625" xlink:href="#DejaVuSans-48"/>
     </g>
    </g>
   </g>
   <g id="text_28">
    <g clip-path="url(#p7c9bf6c9bb)">
     <!-- 5.500 -->
     <g style="fill:#20a386;" transform="translate(200.578752 82.80342)rotate(-282.452406)scale(0.06 -0.06)">
      <use xlink:href="#DejaVuSans-53"/>
      <use x="63.623047" xlink:href="#DejaVuSans-46"/>
      <use x="95.410156" xlink:href="#DejaVuSans-53"/>
      <use x="159.033203" xlink:href="#DejaVuSans-48"/>
      <use x="222.65625" xlink:href="#DejaVuSans-48"/>
     </g>
    </g>
   </g>
   <g id="text_29">
    <g clip-path="url(#p7c9bf6c9bb)">
     <!-- 6.000 -->
     <g style="fill:#29af7f;" transform="translate(203.22009 91.877885)rotate(-285.62197)scale(0.06 -0.06)">
      <defs>
       <path d="M 33.015625 40.375 
Q 26.375 40.375 22.484375 35.828125 
Q 18.609375 31.296875 18.609375 23.390625 
Q 18.609375 15.53125 22.484375 10.953125 
Q 26.375 6.390625 33.015625 6.390625 
Q 39.65625 6.390625 43.53125 10.953125 
Q 47.40625 15.53125 47.40625 23.390625 
Q 47.40625 31.296875 43.53125 35.828125 
Q 39.65625 40.375 33.015625 40.375 
z
M 52.59375 71.296875 
L 52.59375 62.3125 
Q 48.875 64.0625 45.09375 64.984375 
Q 41.3125 65.921875 37.59375 65.921875 
Q 27.828125 65.921875 22.671875 59.328125 
Q 17.53125 52.734375 16.796875 39.40625 
Q 19.671875 43.65625 24.015625 45.921875 
Q 28.375 48.1875 33.59375 48.1875 
Q 44.578125 48.1875 50.953125 41.515625 
Q 57.328125 34.859375 57.328125 23.390625 
Q 57.328125 12.15625 50.6875 5.359375 
Q 44.046875 -1.421875 33.015625 -1.421875 
Q 20.359375 -1.421875 13.671875 8.265625 
Q 6.984375 17.96875 6.984375 36.375 
Q 6.984375 53.65625 15.1875 63.9375 
Q 23.390625 74.21875 37.203125 74.21875 
Q 40.921875 74.21875 44.703125 73.484375 
Q 48.484375 72.75 52.59375 71.296875 
z
" id="DejaVuSans-54"/>
      </defs>
      <use xlink:href="#DejaVuSans-54"/>
      <use x="63.623047" xlink:href="#DejaVuSans-46"/>
      <use x="95.410156" xlink:href="#DejaVuSans-48"/>
      <use x="159.033203" xlink:href="#DejaVuSans-48"/>
      <use x="222.65625" xlink:href="#DejaVuSans-48"/>
     </g>
    </g>
   </g>
   <g id="text_30">
    <g clip-path="url(#p7c9bf6c9bb)">
     <!-- 6.500 -->
     <g style="fill:#3dbc74;" transform="translate(203.615157 91.996247)rotate(-287.308184)scale(0.06 -0.06)">
      <use xlink:href="#DejaVuSans-54"/>
      <use x="63.623047" xlink:href="#DejaVuSans-46"/>
      <use x="95.410156" xlink:href="#DejaVuSans-53"/>
      <use x="159.033203" xlink:href="#DejaVuSans-48"/>
      <use x="222.65625" xlink:href="#DejaVuSans-48"/>
     </g>
    </g>
   </g>
   <g id="text_31">
    <g clip-path="url(#p7c9bf6c9bb)">
     <!-- 7.000 -->
     <g style="fill:#56c667;" transform="translate(204.017948 92.118903)rotate(-288.963105)scale(0.06 -0.06)">
      <defs>
       <path d="M 8.203125 72.90625 
L 55.078125 72.90625 
L 55.078125 68.703125 
L 28.609375 0 
L 18.3125 0 
L 43.21875 64.59375 
L 8.203125 64.59375 
z
" id="DejaVuSans-55"/>
      </defs>
      <use xlink:href="#DejaVuSans-55"/>
      <use x="63.623047" xlink:href="#DejaVuSans-46"/>
      <use x="95.410156" xlink:href="#DejaVuSans-48"/>
      <use x="159.033203" xlink:href="#DejaVuSans-48"/>
      <use x="222.65625" xlink:href="#DejaVuSans-48"/>
     </g>
    </g>
   </g>
   <g id="text_32">
    <g clip-path="url(#p7c9bf6c9bb)">
     <!-- 7.500 -->
     <g style="fill:#75d054;" transform="translate(204.428685 92.245242)rotate(-290.584887)scale(0.06 -0.06)">
      <use xlink:href="#DejaVuSans-55"/>
      <use x="63.623047" xlink:href="#DejaVuSans-46"/>
      <use x="95.410156" xlink:href="#DejaVuSans-53"/>
      <use x="159.033203" xlink:href="#DejaVuSans-48"/>
      <use x="222.65625" xlink:href="#DejaVuSans-48"/>
     </g>
    </g>
   </g>
   <g id="text_33">
    <g clip-path="url(#p7c9bf6c9bb)">
     <!-- 8.000 -->
     <g style="fill:#95d840;" transform="translate(204.84752 92.374664)rotate(-292.17198)scale(0.06 -0.06)">
      <defs>
       <path d="M 31.78125 34.625 
Q 24.75 34.625 20.71875 30.859375 
Q 16.703125 27.09375 16.703125 20.515625 
Q 16.703125 13.921875 20.71875 10.15625 
Q 24.75 6.390625 31.78125 6.390625 
Q 38.8125 6.390625 42.859375 10.171875 
Q 46.921875 13.96875 46.921875 20.515625 
Q 46.921875 27.09375 42.890625 30.859375 
Q 38.875 34.625 31.78125 34.625 
z
M 21.921875 38.8125 
Q 15.578125 40.375 12.03125 44.71875 
Q 8.5 49.078125 8.5 55.328125 
Q 8.5 64.0625 14.71875 69.140625 
Q 20.953125 74.21875 31.78125 74.21875 
Q 42.671875 74.21875 48.875 69.140625 
Q 55.078125 64.0625 55.078125 55.328125 
Q 55.078125 49.078125 51.53125 44.71875 
Q 48 40.375 41.703125 38.8125 
Q 48.828125 37.15625 52.796875 32.3125 
Q 56.78125 27.484375 56.78125 20.515625 
Q 56.78125 9.90625 50.3125 4.234375 
Q 43.84375 -1.421875 31.78125 -1.421875 
Q 19.734375 -1.421875 13.25 4.234375 
Q 6.78125 9.90625 6.78125 20.515625 
Q 6.78125 27.484375 10.78125 32.3125 
Q 14.796875 37.15625 21.921875 38.8125 
z
M 18.3125 54.390625 
Q 18.3125 48.734375 21.84375 45.5625 
Q 25.390625 42.390625 31.78125 42.390625 
Q 38.140625 42.390625 41.71875 45.5625 
Q 45.3125 48.734375 45.3125 54.390625 
Q 45.3125 60.0625 41.71875 63.234375 
Q 38.140625 66.40625 31.78125 66.40625 
Q 25.390625 66.40625 21.84375 63.234375 
Q 18.3125 60.0625 18.3125 54.390625 
z
" id="DejaVuSans-56"/>
      </defs>
      <use xlink:href="#DejaVuSans-56"/>
      <use x="63.623047" xlink:href="#DejaVuSans-46"/>
      <use x="95.410156" xlink:href="#DejaVuSans-48"/>
      <use x="159.033203" xlink:href="#DejaVuSans-48"/>
      <use x="222.65625" xlink:href="#DejaVuSans-48"/>
     </g>
    </g>
   </g>
   <g id="text_34">
    <g clip-path="url(#p7c9bf6c9bb)">
     <!-- 8.500 -->
     <g style="fill:#bade28;" transform="translate(205.274532 92.506588)rotate(-293.723125)scale(0.06 -0.06)">
      <use xlink:href="#DejaVuSans-56"/>
      <use x="63.623047" xlink:href="#DejaVuSans-46"/>
      <use x="95.410156" xlink:href="#DejaVuSans-53"/>
      <use x="159.033203" xlink:href="#DejaVuSans-48"/>
      <use x="222.65625" xlink:href="#DejaVuSans-48"/>
     </g>
    </g>
   </g>
   <g id="text_35">
    <g clip-path="url(#p7c9bf6c9bb)">
     <!-- 9.000 -->
     <g style="fill:#dde318;" transform="translate(87.327233 197.8762)rotate(-318.091111)scale(0.06 -0.06)">
      <defs>
       <path d="M 10.984375 1.515625 
L 10.984375 10.5 
Q 14.703125 8.734375 18.5 7.8125 
Q 22.3125 6.890625 25.984375 6.890625 
Q 35.75 6.890625 40.890625 13.453125 
Q 46.046875 20.015625 46.78125 33.40625 
Q 43.953125 29.203125 39.59375 26.953125 
Q 35.25 24.703125 29.984375 24.703125 
Q 19.046875 24.703125 12.671875 31.3125 
Q 6.296875 37.9375 6.296875 49.421875 
Q 6.296875 60.640625 12.9375 67.421875 
Q 19.578125 74.21875 30.609375 74.21875 
Q 43.265625 74.21875 49.921875 64.515625 
Q 56.59375 54.828125 56.59375 36.375 
Q 56.59375 19.140625 48.40625 8.859375 
Q 40.234375 -1.421875 26.421875 -1.421875 
Q 22.703125 -1.421875 18.890625 -0.6875 
Q 15.09375 0.046875 10.984375 1.515625 
z
M 30.609375 32.421875 
Q 37.25 32.421875 41.125 36.953125 
Q 45.015625 41.5 45.015625 49.421875 
Q 45.015625 57.28125 41.125 61.84375 
Q 37.25 66.40625 30.609375 66.40625 
Q 23.96875 66.40625 20.09375 61.84375 
Q 16.21875 57.28125 16.21875 49.421875 
Q 16.21875 41.5 20.09375 36.953125 
Q 23.96875 32.421875 30.609375 32.421875 
z
" id="DejaVuSans-57"/>
      </defs>
      <use xlink:href="#DejaVuSans-57"/>
      <use x="63.623047" xlink:href="#DejaVuSans-46"/>
      <use x="95.410156" xlink:href="#DejaVuSans-48"/>
      <use x="159.033203" xlink:href="#DejaVuSans-48"/>
      <use x="222.65625" xlink:href="#DejaVuSans-48"/>
     </g>
    </g>
   </g>
   <g id="text_36">
    <g clip-path="url(#p7c9bf6c9bb)">
     <!-- 9.500 -->
     <g style="fill:#fde725;" transform="translate(206.649559 92.420005)rotate(-292.7122)scale(0.06 -0.06)">
      <use xlink:href="#DejaVuSans-57"/>
      <use x="63.623047" xlink:href="#DejaVuSans-46"/>
      <use x="95.410156" xlink:href="#DejaVuSans-53"/>
      <use x="159.033203" xlink:href="#DejaVuSans-48"/>
      <use x="222.65625" xlink:href="#DejaVuSans-48"/>
     </g>
    </g>
   </g>
   <g id="text_37">
    <g clip-path="url(#p7c9bf6c9bb)">
     <!-- 10.000 -->
     <g style="fill:#440154;" transform="translate(211.062143 98.359981)rotate(-277.069173)scale(0.06 -0.06)">
      <use xlink:href="#DejaVuSans-49"/>
      <use x="63.623047" xlink:href="#DejaVuSans-48"/>
      <use x="127.246094" xlink:href="#DejaVuSans-46"/>
      <use x="159.033203" xlink:href="#DejaVuSans-48"/>
      <use x="222.65625" xlink:href="#DejaVuSans-48"/>
      <use x="286.279297" xlink:href="#DejaVuSans-48"/>
     </g>
    </g>
   </g>
   <g id="text_38">
    <g clip-path="url(#p7c9bf6c9bb)">
     <!-- 100.000 -->
     <g style="fill:#440154;" transform="translate(210.008813 154.50844)rotate(-64.455143)scale(0.06 -0.06)">
      <use xlink:href="#DejaVuSans-49"/>
      <use x="63.623047" xlink:href="#DejaVuSans-48"/>
      <use x="127.246094" xlink:href="#DejaVuSans-48"/>
      <use x="190.869141" xlink:href="#DejaVuSans-46"/>
      <use x="222.65625" xlink:href="#DejaVuSans-48"/>
      <use x="286.279297" xlink:href="#DejaVuSans-48"/>
      <use x="349.902344" xlink:href="#DejaVuSans-48"/>
     </g>
    </g>
   </g>
   <g id="text_39">
    <g clip-path="url(#p7c9bf6c9bb)">
     <!-- 1000.000 -->
     <g style="fill:#440154;" transform="translate(45.326308 94.267469)rotate(-270.289158)scale(0.06 -0.06)">
      <use xlink:href="#DejaVuSans-49"/>
      <use x="63.623047" xlink:href="#DejaVuSans-48"/>
      <use x="127.246094" xlink:href="#DejaVuSans-48"/>
      <use x="190.869141" xlink:href="#DejaVuSans-48"/>
      <use x="254.492188" xlink:href="#DejaVuSans-46"/>
      <use x="286.279297" xlink:href="#DejaVuSans-48"/>
      <use x="349.902344" xlink:href="#DejaVuSans-48"/>
      <use x="413.525391" xlink:href="#DejaVuSans-48"/>
     </g>
    </g>
   </g>
   <g id="text_40">
    <g clip-path="url(#p7c9bf6c9bb)">
     <!-- 10000.000 -->
     <g style="fill:#440154;" transform="translate(205.886161 180.719106)rotate(-54.88182)scale(0.06 -0.06)">
      <use xlink:href="#DejaVuSans-49"/>
      <use x="63.623047" xlink:href="#DejaVuSans-48"/>
      <use x="127.246094" xlink:href="#DejaVuSans-48"/>
      <use x="190.869141" xlink:href="#DejaVuSans-48"/>
      <use x="254.492188" xlink:href="#DejaVuSans-48"/>
      <use x="318.115234" xlink:href="#DejaVuSans-46"/>
      <use x="349.902344" xlink:href="#DejaVuSans-48"/>
      <use x="413.525391" xlink:href="#DejaVuSans-48"/>
      <use x="477.148438" xlink:href="#DejaVuSans-48"/>
     </g>
    </g>
   </g>
   <g id="text_41">
    <g clip-path="url(#p7c9bf6c9bb)">
     <!-- 100000.000 -->
     <g style="fill:#440154;" transform="translate(44.259455 46.850312)rotate(-78.85614)scale(0.06 -0.06)">
      <use xlink:href="#DejaVuSans-49"/>
      <use x="63.623047" xlink:href="#DejaVuSans-48"/>
      <use x="127.246094" xlink:href="#DejaVuSans-48"/>
      <use x="190.869141" xlink:href="#DejaVuSans-48"/>
      <use x="254.492188" xlink:href="#DejaVuSans-48"/>
      <use x="318.115234" xlink:href="#DejaVuSans-48"/>
      <use x="381.738281" xlink:href="#DejaVuSans-46"/>
      <use x="413.525391" xlink:href="#DejaVuSans-48"/>
      <use x="477.148438" xlink:href="#DejaVuSans-48"/>
      <use x="540.771484" xlink:href="#DejaVuSans-48"/>
     </g>
    </g>
   </g>
   <g id="text_42">
    <g clip-path="url(#p7c9bf6c9bb)">
     <!-- 100000.000 -->
     <g style="fill:#440154;" transform="translate(191.203483 204.930562)rotate(-48.568505)scale(0.06 -0.06)">
      <use xlink:href="#DejaVuSans-49"/>
      <use x="63.623047" xlink:href="#DejaVuSans-48"/>
      <use x="127.246094" xlink:href="#DejaVuSans-48"/>
      <use x="190.869141" xlink:href="#DejaVuSans-48"/>
      <use x="254.492188" xlink:href="#DejaVuSans-48"/>
      <use x="318.115234" xlink:href="#DejaVuSans-48"/>
      <use x="381.738281" xlink:href="#DejaVuSans-46"/>
      <use x="413.525391" xlink:href="#DejaVuSans-48"/>
      <use x="477.148438" xlink:href="#DejaVuSans-48"/>
      <use x="540.771484" xlink:href="#DejaVuSans-48"/>
     </g>
    </g>
   </g>
   <g id="text_43">
    <g clip-path="url(#p7c9bf6c9bb)">
     <!-- 1000000.000 -->
     <g style="fill:#450457;" transform="translate(40.643355 210.018305)rotate(-284.332897)scale(0.06 -0.06)">
      <use xlink:href="#DejaVuSans-49"/>
      <use x="63.623047" xlink:href="#DejaVuSans-48"/>
      <use x="127.246094" xlink:href="#DejaVuSans-48"/>
      <use x="190.869141" xlink:href="#DejaVuSans-48"/>
      <use x="254.492188" xlink:href="#DejaVuSans-48"/>
      <use x="318.115234" xlink:href="#DejaVuSans-48"/>
      <use x="381.738281" xlink:href="#DejaVuSans-48"/>
      <use x="445.361328" xlink:href="#DejaVuSans-46"/>
      <use x="477.148438" xlink:href="#DejaVuSans-48"/>
      <use x="540.771484" xlink:href="#DejaVuSans-48"/>
      <use x="604.394531" xlink:href="#DejaVuSans-48"/>
     </g>
    </g>
   </g>
   <g id="text_44">
    <g clip-path="url(#p7c9bf6c9bb)">
     <!-- 1000000.000 -->
     <g style="fill:#450457;" transform="translate(215.435865 190.188063)rotate(-54.357755)scale(0.06 -0.06)">
      <use xlink:href="#DejaVuSans-49"/>
      <use x="63.623047" xlink:href="#DejaVuSans-48"/>
      <use x="127.246094" xlink:href="#DejaVuSans-48"/>
      <use x="190.869141" xlink:href="#DejaVuSans-48"/>
      <use x="254.492188" xlink:href="#DejaVuSans-48"/>
      <use x="318.115234" xlink:href="#DejaVuSans-48"/>
      <use x="381.738281" xlink:href="#DejaVuSans-48"/>
      <use x="445.361328" xlink:href="#DejaVuSans-46"/>
      <use x="477.148438" xlink:href="#DejaVuSans-48"/>
      <use x="540.771484" xlink:href="#DejaVuSans-48"/>
      <use x="604.394531" xlink:href="#DejaVuSans-48"/>
     </g>
    </g>
   </g>
   <g id="text_45">
    <g clip-path="url(#p7c9bf6c9bb)">
     <!-- 10000000.000 -->
     <g style="fill:#482475;" transform="translate(42.635284 211.086572)rotate(-275.760824)scale(0.06 -0.06)">
      <use xlink:href="#DejaVuSans-49"/>
      <use x="63.623047" xlink:href="#DejaVuSans-48"/>
      <use x="127.246094" xlink:href="#DejaVuSans-48"/>
      <use x="190.869141" xlink:href="#DejaVuSans-48"/>
      <use x="254.492188" xlink:href="#DejaVuSans-48"/>
      <use x="318.115234" xlink:href="#DejaVuSans-48"/>
      <use x="381.738281" xlink:href="#DejaVuSans-48"/>
      <use x="445.361328" xlink:href="#DejaVuSans-48"/>
      <use x="508.984375" xlink:href="#DejaVuSans-46"/>
      <use x="540.771484" xlink:href="#DejaVuSans-48"/>
      <use x="604.394531" xlink:href="#DejaVuSans-48"/>
      <use x="668.017578" xlink:href="#DejaVuSans-48"/>
     </g>
    </g>
   </g>
   <g id="text_46">
    <g clip-path="url(#p7c9bf6c9bb)">
     <!-- 10000000.000 -->
     <g style="fill:#482475;" transform="translate(225.395461 189.690714)rotate(-55.485648)scale(0.06 -0.06)">
      <use xlink:href="#DejaVuSans-49"/>
      <use x="63.623047" xlink:href="#DejaVuSans-48"/>
      <use x="127.246094" xlink:href="#DejaVuSans-48"/>
      <use x="190.869141" xlink:href="#DejaVuSans-48"/>
      <use x="254.492188" xlink:href="#DejaVuSans-48"/>
      <use x="318.115234" xlink:href="#DejaVuSans-48"/>
      <use x="381.738281" xlink:href="#DejaVuSans-48"/>
      <use x="445.361328" xlink:href="#DejaVuSans-48"/>
      <use x="508.984375" xlink:href="#DejaVuSans-46"/>
      <use x="540.771484" xlink:href="#DejaVuSans-48"/>
      <use x="604.394531" xlink:href="#DejaVuSans-48"/>
      <use x="668.017578" xlink:href="#DejaVuSans-48"/>
     </g>
    </g>
   </g>
   <g id="text_47">
    <g clip-path="url(#p7c9bf6c9bb)">
     <!-- 100000000.000 -->
     <g style="fill:#fde725;" transform="translate(229.424929 191.726784)rotate(-57.74573)scale(0.06 -0.06)">
      <use xlink:href="#DejaVuSans-49"/>
      <use x="63.623047" xlink:href="#DejaVuSans-48"/>
      <use x="127.246094" xlink:href="#DejaVuSans-48"/>
      <use x="190.869141" xlink:href="#DejaVuSans-48"/>
      <use x="254.492188" xlink:href="#DejaVuSans-48"/>
      <use x="318.115234" xlink:href="#DejaVuSans-48"/>
      <use x="381.738281" xlink:href="#DejaVuSans-48"/>
      <use x="445.361328" xlink:href="#DejaVuSans-48"/>
      <use x="508.984375" xlink:href="#DejaVuSans-48"/>
      <use x="572.607422" xlink:href="#DejaVuSans-46"/>
      <use x="604.394531" xlink:href="#DejaVuSans-48"/>
      <use x="668.017578" xlink:href="#DejaVuSans-48"/>
      <use x="731.640625" xlink:href="#DejaVuSans-48"/>
     </g>
    </g>
   </g>
  </g>
 </g>
 <defs>
  <clipPath id="p7c9bf6c9bb">
   <rect height="266.112" width="357.12" x="35.304688" y="10.999219"/>
  </clipPath>
 </defs>
</svg>
