<?xml version="1.0" encoding="utf-8" standalone="no"?>
<!DOCTYPE svg PUBLIC "-//W3C//DTD SVG 1.1//EN"
  "http://www.w3.org/Graphics/SVG/1.1/DTD/svg11.dtd">
<!-- Created with matplotlib (https://matplotlib.org/) -->
<svg height="300.989344pt" version="1.1" viewBox="0 0 405.987188 300.989344" width="405.987188pt" xmlns="http://www.w3.org/2000/svg" xmlns:xlink="http://www.w3.org/1999/xlink">
 <metadata>
  <rdf:RDF xmlns:cc="http://creativecommons.org/ns#" xmlns:dc="http://purl.org/dc/elements/1.1/" xmlns:rdf="http://www.w3.org/1999/02/22-rdf-syntax-ns#">
   <cc:Work>
    <dc:type rdf:resource="http://purl.org/dc/dcmitype/StillImage"/>
    <dc:date>2021-09-23T00:07:47.552133</dc:date>
    <dc:format>image/svg+xml</dc:format>
    <dc:creator>
     <cc:Agent>
      <dc:title>Matplotlib v3.3.1, https://matplotlib.org/</dc:title>
     </cc:Agent>
    </dc:creator>
   </cc:Work>
  </rdf:RDF>
 </metadata>
 <defs>
  <style type="text/css">*{stroke-linecap:butt;stroke-linejoin:round;}</style>
 </defs>
 <g id="figure_1">
  <g id="patch_1">
   <path d="M 0 300.989344 
L 405.987188 300.989344 
L 405.987188 0 
L 0 0 
z
" style="fill:#ffffff;"/>
  </g>
  <g id="axes_1">
   <g id="patch_2">
    <path d="M 35.304688 277.111219 
L 392.424688 277.111219 
L 392.424688 10.999219 
L 35.304688 10.999219 
z
" style="fill:#ffffff;"/>
   </g>
   <g id="matplotlib.axis_1">
    <g id="xtick_1">
     <g id="line2d_1">
      <defs>
       <path d="M 0 0 
L 0 3.5 
" id="mf0abb8bcb9" style="stroke:#000000;stroke-width:0.8;"/>
      </defs>
      <g>
       <use style="stroke:#000000;stroke-width:0.8;" x="35.304687" xlink:href="#mf0abb8bcb9" y="277.111219"/>
      </g>
     </g>
     <g id="text_1">
      <!-- −20 -->
      <g transform="translate(24.752344 291.709656)scale(0.1 -0.1)">
       <defs>
        <path d="M 10.59375 35.5 
L 73.1875 35.5 
L 73.1875 27.203125 
L 10.59375 27.203125 
z
" id="DejaVuSans-8722"/>
        <path d="M 19.1875 8.296875 
L 53.609375 8.296875 
L 53.609375 0 
L 7.328125 0 
L 7.328125 8.296875 
Q 12.9375 14.109375 22.625 23.890625 
Q 32.328125 33.6875 34.8125 36.53125 
Q 39.546875 41.84375 41.421875 45.53125 
Q 43.3125 49.21875 43.3125 52.78125 
Q 43.3125 58.59375 39.234375 62.25 
Q 35.15625 65.921875 28.609375 65.921875 
Q 23.96875 65.921875 18.8125 64.3125 
Q 13.671875 62.703125 7.8125 59.421875 
L 7.8125 69.390625 
Q 13.765625 71.78125 18.9375 73 
Q 24.125 74.21875 28.421875 74.21875 
Q 39.75 74.21875 46.484375 68.546875 
Q 53.21875 62.890625 53.21875 53.421875 
Q 53.21875 48.921875 51.53125 44.890625 
Q 49.859375 40.875 45.40625 35.40625 
Q 44.1875 33.984375 37.640625 27.21875 
Q 31.109375 20.453125 19.1875 8.296875 
z
" id="DejaVuSans-50"/>
        <path d="M 31.78125 66.40625 
Q 24.171875 66.40625 20.328125 58.90625 
Q 16.5 51.421875 16.5 36.375 
Q 16.5 21.390625 20.328125 13.890625 
Q 24.171875 6.390625 31.78125 6.390625 
Q 39.453125 6.390625 43.28125 13.890625 
Q 47.125 21.390625 47.125 36.375 
Q 47.125 51.421875 43.28125 58.90625 
Q 39.453125 66.40625 31.78125 66.40625 
z
M 31.78125 74.21875 
Q 44.046875 74.21875 50.515625 64.515625 
Q 56.984375 54.828125 56.984375 36.375 
Q 56.984375 17.96875 50.515625 8.265625 
Q 44.046875 -1.421875 31.78125 -1.421875 
Q 19.53125 -1.421875 13.0625 8.265625 
Q 6.59375 17.96875 6.59375 36.375 
Q 6.59375 54.828125 13.0625 64.515625 
Q 19.53125 74.21875 31.78125 74.21875 
z
" id="DejaVuSans-48"/>
       </defs>
       <use xlink:href="#DejaVuSans-8722"/>
       <use x="83.789062" xlink:href="#DejaVuSans-50"/>
       <use x="147.412109" xlink:href="#DejaVuSans-48"/>
      </g>
     </g>
    </g>
    <g id="xtick_2">
     <g id="line2d_2">
      <g>
       <use style="stroke:#000000;stroke-width:0.8;" x="74.984687" xlink:href="#mf0abb8bcb9" y="277.111219"/>
      </g>
     </g>
     <g id="text_2">
      <!-- −15 -->
      <g transform="translate(64.432344 291.709656)scale(0.1 -0.1)">
       <defs>
        <path d="M 12.40625 8.296875 
L 28.515625 8.296875 
L 28.515625 63.921875 
L 10.984375 60.40625 
L 10.984375 69.390625 
L 28.421875 72.90625 
L 38.28125 72.90625 
L 38.28125 8.296875 
L 54.390625 8.296875 
L 54.390625 0 
L 12.40625 0 
z
" id="DejaVuSans-49"/>
        <path d="M 10.796875 72.90625 
L 49.515625 72.90625 
L 49.515625 64.59375 
L 19.828125 64.59375 
L 19.828125 46.734375 
Q 21.96875 47.46875 24.109375 47.828125 
Q 26.265625 48.1875 28.421875 48.1875 
Q 40.625 48.1875 47.75 41.5 
Q 54.890625 34.8125 54.890625 23.390625 
Q 54.890625 11.625 47.5625 5.09375 
Q 40.234375 -1.421875 26.90625 -1.421875 
Q 22.3125 -1.421875 17.546875 -0.640625 
Q 12.796875 0.140625 7.71875 1.703125 
L 7.71875 11.625 
Q 12.109375 9.234375 16.796875 8.0625 
Q 21.484375 6.890625 26.703125 6.890625 
Q 35.15625 6.890625 40.078125 11.328125 
Q 45.015625 15.765625 45.015625 23.390625 
Q 45.015625 31 40.078125 35.4375 
Q 35.15625 39.890625 26.703125 39.890625 
Q 22.75 39.890625 18.8125 39.015625 
Q 14.890625 38.140625 10.796875 36.28125 
z
" id="DejaVuSans-53"/>
       </defs>
       <use xlink:href="#DejaVuSans-8722"/>
       <use x="83.789062" xlink:href="#DejaVuSans-49"/>
       <use x="147.412109" xlink:href="#DejaVuSans-53"/>
      </g>
     </g>
    </g>
    <g id="xtick_3">
     <g id="line2d_3">
      <g>
       <use style="stroke:#000000;stroke-width:0.8;" x="114.664687" xlink:href="#mf0abb8bcb9" y="277.111219"/>
      </g>
     </g>
     <g id="text_3">
      <!-- −10 -->
      <g transform="translate(104.112344 291.709656)scale(0.1 -0.1)">
       <use xlink:href="#DejaVuSans-8722"/>
       <use x="83.789062" xlink:href="#DejaVuSans-49"/>
       <use x="147.412109" xlink:href="#DejaVuSans-48"/>
      </g>
     </g>
    </g>
    <g id="xtick_4">
     <g id="line2d_4">
      <g>
       <use style="stroke:#000000;stroke-width:0.8;" x="154.344687" xlink:href="#mf0abb8bcb9" y="277.111219"/>
      </g>
     </g>
     <g id="text_4">
      <!-- −5 -->
      <g transform="translate(146.973594 291.709656)scale(0.1 -0.1)">
       <use xlink:href="#DejaVuSans-8722"/>
       <use x="83.789062" xlink:href="#DejaVuSans-53"/>
      </g>
     </g>
    </g>
    <g id="xtick_5">
     <g id="line2d_5">
      <g>
       <use style="stroke:#000000;stroke-width:0.8;" x="194.024687" xlink:href="#mf0abb8bcb9" y="277.111219"/>
      </g>
     </g>
     <g id="text_5">
      <!-- 0 -->
      <g transform="translate(190.843437 291.709656)scale(0.1 -0.1)">
       <use xlink:href="#DejaVuSans-48"/>
      </g>
     </g>
    </g>
    <g id="xtick_6">
     <g id="line2d_6">
      <g>
       <use style="stroke:#000000;stroke-width:0.8;" x="233.704688" xlink:href="#mf0abb8bcb9" y="277.111219"/>
      </g>
     </g>
     <g id="text_6">
      <!-- 5 -->
      <g transform="translate(230.523438 291.709656)scale(0.1 -0.1)">
       <use xlink:href="#DejaVuSans-53"/>
      </g>
     </g>
    </g>
    <g id="xtick_7">
     <g id="line2d_7">
      <g>
       <use style="stroke:#000000;stroke-width:0.8;" x="273.384688" xlink:href="#mf0abb8bcb9" y="277.111219"/>
      </g>
     </g>
     <g id="text_7">
      <!-- 10 -->
      <g transform="translate(267.022188 291.709656)scale(0.1 -0.1)">
       <use xlink:href="#DejaVuSans-49"/>
       <use x="63.623047" xlink:href="#DejaVuSans-48"/>
      </g>
     </g>
    </g>
    <g id="xtick_8">
     <g id="line2d_8">
      <g>
       <use style="stroke:#000000;stroke-width:0.8;" x="313.064687" xlink:href="#mf0abb8bcb9" y="277.111219"/>
      </g>
     </g>
     <g id="text_8">
      <!-- 15 -->
      <g transform="translate(306.702187 291.709656)scale(0.1 -0.1)">
       <use xlink:href="#DejaVuSans-49"/>
       <use x="63.623047" xlink:href="#DejaVuSans-53"/>
      </g>
     </g>
    </g>
    <g id="xtick_9">
     <g id="line2d_9">
      <g>
       <use style="stroke:#000000;stroke-width:0.8;" x="352.744688" xlink:href="#mf0abb8bcb9" y="277.111219"/>
      </g>
     </g>
     <g id="text_9">
      <!-- 20 -->
      <g transform="translate(346.382188 291.709656)scale(0.1 -0.1)">
       <use xlink:href="#DejaVuSans-50"/>
       <use x="63.623047" xlink:href="#DejaVuSans-48"/>
      </g>
     </g>
    </g>
    <g id="xtick_10">
     <g id="line2d_10">
      <g>
       <use style="stroke:#000000;stroke-width:0.8;" x="392.424688" xlink:href="#mf0abb8bcb9" y="277.111219"/>
      </g>
     </g>
     <g id="text_10">
      <!-- 25 -->
      <g transform="translate(386.062187 291.709656)scale(0.1 -0.1)">
       <use xlink:href="#DejaVuSans-50"/>
       <use x="63.623047" xlink:href="#DejaVuSans-53"/>
      </g>
     </g>
    </g>
   </g>
   <g id="matplotlib.axis_2">
    <g id="ytick_1">
     <g id="line2d_11">
      <defs>
       <path d="M 0 0 
L -3.5 0 
" id="m83efab9e81" style="stroke:#000000;stroke-width:0.8;"/>
      </defs>
      <g>
       <use style="stroke:#000000;stroke-width:0.8;" x="35.304688" xlink:href="#m83efab9e81" y="277.111219"/>
      </g>
     </g>
     <g id="text_11">
      <!-- −20 -->
      <g transform="translate(7.2 280.910437)scale(0.1 -0.1)">
       <use xlink:href="#DejaVuSans-8722"/>
       <use x="83.789062" xlink:href="#DejaVuSans-50"/>
       <use x="147.412109" xlink:href="#DejaVuSans-48"/>
      </g>
     </g>
    </g>
    <g id="ytick_2">
     <g id="line2d_12">
      <g>
       <use style="stroke:#000000;stroke-width:0.8;" x="35.304688" xlink:href="#m83efab9e81" y="243.847219"/>
      </g>
     </g>
     <g id="text_12">
      <!-- −15 -->
      <g transform="translate(7.2 247.646437)scale(0.1 -0.1)">
       <use xlink:href="#DejaVuSans-8722"/>
       <use x="83.789062" xlink:href="#DejaVuSans-49"/>
       <use x="147.412109" xlink:href="#DejaVuSans-53"/>
      </g>
     </g>
    </g>
    <g id="ytick_3">
     <g id="line2d_13">
      <g>
       <use style="stroke:#000000;stroke-width:0.8;" x="35.304688" xlink:href="#m83efab9e81" y="210.583219"/>
      </g>
     </g>
     <g id="text_13">
      <!-- −10 -->
      <g transform="translate(7.2 214.382437)scale(0.1 -0.1)">
       <use xlink:href="#DejaVuSans-8722"/>
       <use x="83.789062" xlink:href="#DejaVuSans-49"/>
       <use x="147.412109" xlink:href="#DejaVuSans-48"/>
      </g>
     </g>
    </g>
    <g id="ytick_4">
     <g id="line2d_14">
      <g>
       <use style="stroke:#000000;stroke-width:0.8;" x="35.304688" xlink:href="#m83efab9e81" y="177.319219"/>
      </g>
     </g>
     <g id="text_14">
      <!-- −5 -->
      <g transform="translate(13.5625 181.118437)scale(0.1 -0.1)">
       <use xlink:href="#DejaVuSans-8722"/>
       <use x="83.789062" xlink:href="#DejaVuSans-53"/>
      </g>
     </g>
    </g>
    <g id="ytick_5">
     <g id="line2d_15">
      <g>
       <use style="stroke:#000000;stroke-width:0.8;" x="35.304688" xlink:href="#m83efab9e81" y="144.055219"/>
      </g>
     </g>
     <g id="text_15">
      <!-- 0 -->
      <g transform="translate(21.942187 147.854437)scale(0.1 -0.1)">
       <use xlink:href="#DejaVuSans-48"/>
      </g>
     </g>
    </g>
    <g id="ytick_6">
     <g id="line2d_16">
      <g>
       <use style="stroke:#000000;stroke-width:0.8;" x="35.304688" xlink:href="#m83efab9e81" y="110.791219"/>
      </g>
     </g>
     <g id="text_16">
      <!-- 5 -->
      <g transform="translate(21.942187 114.590437)scale(0.1 -0.1)">
       <use xlink:href="#DejaVuSans-53"/>
      </g>
     </g>
    </g>
    <g id="ytick_7">
     <g id="line2d_17">
      <g>
       <use style="stroke:#000000;stroke-width:0.8;" x="35.304688" xlink:href="#m83efab9e81" y="77.527219"/>
      </g>
     </g>
     <g id="text_17">
      <!-- 10 -->
      <g transform="translate(15.579687 81.326437)scale(0.1 -0.1)">
       <use xlink:href="#DejaVuSans-49"/>
       <use x="63.623047" xlink:href="#DejaVuSans-48"/>
      </g>
     </g>
    </g>
    <g id="ytick_8">
     <g id="line2d_18">
      <g>
       <use style="stroke:#000000;stroke-width:0.8;" x="35.304688" xlink:href="#m83efab9e81" y="44.263219"/>
      </g>
     </g>
     <g id="text_18">
      <!-- 15 -->
      <g transform="translate(15.579687 48.062437)scale(0.1 -0.1)">
       <use xlink:href="#DejaVuSans-49"/>
       <use x="63.623047" xlink:href="#DejaVuSans-53"/>
      </g>
     </g>
    </g>
    <g id="ytick_9">
     <g id="line2d_19">
      <g>
       <use style="stroke:#000000;stroke-width:0.8;" x="35.304688" xlink:href="#m83efab9e81" y="10.999219"/>
      </g>
     </g>
     <g id="text_19">
      <!-- 20 -->
      <g transform="translate(15.579687 14.798437)scale(0.1 -0.1)">
       <use xlink:href="#DejaVuSans-50"/>
       <use x="63.623047" xlink:href="#DejaVuSans-48"/>
      </g>
     </g>
    </g>
   </g>
   <g id="LineCollection_1"/>
   <g id="LineCollection_2"/>
   <g id="LineCollection_3"/>
   <g id="LineCollection_4">
    <path clip-path="url(#p30892fae9b)" d="M 249.920291 107.027788 
L 251.025354 108.573619 
L 249.576687 111.906975 
L 246.800613 117.444019 
L 237.920549 126.314419 
L 237.672687 126.475115 
L 225.768687 134.922588 
L 225.397708 135.184819 
L 213.864688 140.432821 
L 207.558835 144.055219 
L 201.960688 146.144123 
L 190.056688 151.19084 
L 178.152687 148.818405 
L 173.827687 144.055219 
L 177.650093 135.184819 
L 178.152687 134.724134 
L 187.22213 126.314419 
L 190.056688 124.262897 
L 200.003791 117.444019 
L 201.960688 116.342268 
L 213.864688 110.616741 
L 219.46978 108.573619 
L 225.219176 106.835604 
" style="fill:none;stroke:#453781;stroke-width:1.5;"/>
   </g>
   <g id="LineCollection_5">
    <path clip-path="url(#p30892fae9b)" d="M 149.33135 109.868448 
L 151.086058 108.573619 
L 154.344687 106.3362 
L 164.868706 99.703219 
L 166.248687 98.877425 
L 178.152687 92.357143 
L 181.2283 90.832819 
L 190.056688 86.654693 
L 201.697688 81.962419 
L 201.960688 81.860374 
L 213.864688 77.767684 
L 225.768687 74.546987 
L 232.613676 73.092019 
L 237.672687 72.119744 
L 249.576687 70.671647 
L 261.480687 70.227078 
L 273.384688 70.955943 
L 285.288688 73.013969 
L 285.57286 73.092019 
L 297.192688 78.868375 
L 299.166022 81.962419 
L 297.192688 85.862853 
L 294.834185 90.832819 
L 285.288688 96.28281 
L 281.894973 99.703219 
L 273.384688 104.710919 
L 269.061019 108.573619 
L 261.480687 114.539704 
L 258.13983 117.444019 
L 249.576687 123.898026 
L 246.532898 126.314419 
L 237.672687 132.058762 
L 233.379046 135.184819 
L 225.768687 139.855246 
L 219.620826 144.055219 
L 213.864688 147.213408 
L 205.034036 152.925619 
L 201.960688 154.140816 
L 190.056688 161.234531 
L 189.029645 161.796019 
L 178.152687 164.82765 
L 167.806823 170.666419 
L 166.248687 171.144783 
L 154.344687 174.352318 
L 142.440687 179.320606 
L 141.480263 179.536819 
L 130.536687 180.866426 
L 118.632687 182.383359 
L 106.728687 182.807069 
L 94.824687 181.537666 
L 87.726513 179.536819 
L 84.59244 170.666419 
L 90.255793 161.796019 
L 94.824687 157.036107 
L 98.644813 152.925619 
L 106.728687 145.496327 
L 108.275734 144.055219 
L 118.349237 135.184819 
L 118.632687 134.93006 
L 128.60659 126.314419 
L 129.565617 125.486667 
" style="fill:none;stroke:#404688;stroke-width:1.5;"/>
   </g>
   <g id="LineCollection_6">
    <path clip-path="url(#p30892fae9b)" d="M 35.304687 174.127229 
L 37.559264 170.666419 
L 44.683516 161.796019 
L 47.208687 158.679412 
L 52.313267 152.925619 
L 59.112687 144.721614 
L 59.719629 144.055219 
L 66.671924 135.184819 
L 71.016687 128.913781 
L 73.014094 126.314419 
L 77.514263 119.351408 
" style="fill:none;stroke:#39558c;stroke-width:1.5;"/>
    <path clip-path="url(#p30892fae9b)" d="M 89.712686 97.330547 
L 92.610889 90.832819 
L 94.824687 84.927438 
L 96.212454 81.962419 
L 99.346794 73.092019 
L 102.432429 64.221619 
L 106.653003 55.351219 
L 106.728687 55.256409 
L 118.632687 46.616861 
L 119.021389 46.480819 
L 130.536687 44.241606 
L 142.440687 43.507611 
L 154.344687 43.608874 
L 166.248687 44.15346 
L 178.152687 44.902946 
L 190.056688 45.716486 
L 201.878213 46.480819 
L 201.960688 46.485502 
L 213.864688 47.194684 
L 225.768687 47.828714 
L 237.672687 48.465112 
L 249.576687 49.174517 
L 261.480687 50.061415 
L 273.384688 51.277245 
L 285.288688 52.986841 
L 297.192688 55.260482 
L 297.553282 55.351219 
L 309.096688 58.731645 
L 320.651158 64.221619 
L 318.042642 73.092019 
L 311.349121 81.962419 
L 309.096688 85.317675 
L 302.660901 90.832819 
L 297.192688 93.653226 
L 288.671921 99.703219 
L 285.288688 101.283592 
L 275.014467 108.573619 
L 273.384688 109.563365 
L 262.938553 117.444019 
L 261.480687 118.464654 
L 250.974807 126.314419 
L 249.576687 127.253696 
L 238.560764 135.184819 
L 237.672687 135.7554 
L 225.965485 144.055219 
L 225.768687 144.177827 
L 213.864688 150.993331 
L 210.877515 152.925619 
L 201.960688 156.451319 
L 193.481597 161.796019 
L 190.056688 162.997646 
L 178.152687 169.189034 
L 175.534872 170.666419 
L 166.248687 173.517379 
L 155.85845 179.536819 
L 154.344687 180.04012 
L 142.440687 183.935119 
L 132.968087 188.407219 
L 130.536687 188.906751 
L 118.632687 191.68291 
L 106.728687 196.021795 
L 101.111453 197.277619 
L 94.824687 197.99367 
L 82.920687 198.976402 
L 71.016687 199.395963 
L 59.112687 199.315138 
L 47.208687 198.612249 
L 38.247084 197.277619 
L 35.304687 195.415155 
" style="fill:none;stroke:#39558c;stroke-width:1.5;"/>
   </g>
   <g id="LineCollection_7">
    <path clip-path="url(#p30892fae9b)" d="M 177.129973 10.999219 
L 178.152687 11.321252 
L 190.056688 15.13437 
L 201.960688 18.440044 
L 207.519919 19.869619 
L 213.864688 21.86777 
L 225.768687 25.28508 
L 237.672687 28.172673 
L 240.1269 28.740019 
L 249.576687 31.155614 
L 261.480687 33.8865 
L 273.384688 36.406093 
L 278.744036 37.610419 
L 285.288688 39.112493 
L 297.192688 42.245063 
L 309.096688 45.84515 
L 310.656348 46.480819 
L 321.000688 50.642336 
L 324.309795 55.351219 
L 324.101599 64.221619 
L 321.920154 73.092019 
L 321.000688 75.765097 
L 314.797774 81.962419 
L 309.096688 90.454835 
L 308.655607 90.832819 
L 297.192688 96.745188 
L 293.026618 99.703219 
L 285.288688 103.317755 
L 277.88132 108.573619 
L 273.384688 111.304372 
L 265.24633 117.444019 
L 261.480687 120.080304 
L 253.137142 126.314419 
L 249.576687 128.706386 
L 240.578476 135.184819 
L 237.672687 137.051762 
L 236.126274 138.148091 
" style="fill:none;stroke:#33638d;stroke-width:1.5;"/>
    <path clip-path="url(#p30892fae9b)" d="M 215.378195 152.444302 
L 214.676505 152.925619 
L 213.864688 153.254089 
L 201.960688 158.761821 
L 197.14709 161.796019 
L 190.056688 164.283683 
L 179.552243 170.666419 
L 178.152687 171.156852 
L 166.248687 175.889975 
L 159.953821 179.536819 
L 154.344687 181.401765 
L 142.440687 188.384507 
L 142.39258 188.407219 
L 130.536687 190.843016 
L 118.632687 196.71272 
L 117.274956 197.277619 
L 106.728687 198.952033 
L 94.824687 203.006758 
L 84.794384 206.148019 
L 82.920687 206.348161 
L 71.016687 207.341904 
L 59.112687 208.215927 
L 47.208687 208.705595 
L 35.304687 208.940458 
" style="fill:none;stroke:#33638d;stroke-width:1.5;"/>
   </g>
   <g id="LineCollection_8">
    <path clip-path="url(#p30892fae9b)" d="M 224.010944 10.999219 
L 225.768687 11.564383 
L 237.672687 15.237237 
L 249.576687 18.345795 
L 256.064777 19.869619 
L 261.480687 21.445923 
L 273.384688 24.682327 
L 285.288688 27.684433 
L 289.149272 28.740019 
L 297.192688 31.252313 
L 309.096688 35.510486 
L 313.598747 37.610419 
L 321.000688 40.973051 
L 327.248139 46.480819 
L 331.668385 55.351219 
L 327.235233 64.221619 
L 323.105329 73.092019 
L 321.000688 79.210641 
L 318.246428 81.962419 
L 309.923468 90.832819 
L 309.096688 91.523871 
L 297.239527 99.703219 
L 297.192688 99.727282 
L 285.288688 105.351917 
L 280.748173 108.573619 
L 273.384688 113.045379 
L 267.554107 117.444019 
L 261.480687 121.695953 
L 255.299477 126.314419 
L 249.576687 130.159075 
L 242.596187 135.184819 
L 237.672687 138.348123 
L 229.622617 144.055219 
L 225.768687 146.456283 
L 216.337334 152.925619 
L 213.864688 153.926078 
L 211.59997 155.28564 
" style="fill:none;stroke:#2d718e;stroke-width:1.5;"/>
    <path clip-path="url(#p30892fae9b)" d="M 189.03004 166.193533 
L 181.668749 170.666419 
L 178.152687 171.89852 
L 166.248687 178.262571 
L 164.049192 179.536819 
L 154.344687 182.76341 
L 144.744934 188.407219 
L 142.440687 189.148959 
L 130.536687 192.779282 
L 121.923692 197.277619 
L 118.632687 197.915568 
L 106.728687 200.871407 
L 96.248157 206.148019 
L 94.824687 206.3618 
L 82.920687 208.058004 
L 71.016687 211.723567 
L 59.112687 214.203359 
L 47.208687 214.990074 
L 46.704621 215.018419 
L 35.304687 215.442413 
" style="fill:none;stroke:#2d718e;stroke-width:1.5;"/>
   </g>
   <g id="LineCollection_9">
    <path clip-path="url(#p30892fae9b)" d="M 254.961584 10.999219 
L 261.480687 12.926308 
L 273.384688 16.09601 
L 285.10675 18.88179 
" style="fill:none;stroke:#287d8e;stroke-width:1.5;"/>
    <path clip-path="url(#p30892fae9b)" d="M 309.060722 26.655813 
L 309.096688 26.668637 
L 313.609944 28.740019 
L 321.000688 32.458181 
L 327.042739 37.610419 
L 332.904688 42.705504 
L 333.572583 46.480819 
L 333.561109 55.351219 
L 332.904688 59.84794 
L 330.368868 64.221619 
L 324.290503 73.092019 
L 321.090233 81.962419 
L 321.000688 82.116211 
L 310.815914 90.832819 
L 309.096688 92.269808 
L 298.320872 99.703219 
L 297.192688 100.28282 
L 285.288688 107.38608 
L 283.615026 108.573619 
L 273.384688 114.786386 
L 269.861885 117.444019 
L 261.480687 123.311603 
L 257.461812 126.314419 
L 249.576687 131.611765 
L 244.613898 135.184819 
L 237.672687 139.644485 
L 231.451183 144.055219 
L 225.768687 147.595511 
L 217.998163 152.925619 
L 213.864688 154.598067 
L 202.677945 161.796019 
L 201.960688 162.088769 
L 190.056688 166.855755 
L 183.785254 170.666419 
L 178.152687 172.640187 
L 166.813211 179.536819 
L 166.248687 179.746296 
L 154.344687 184.125055 
L 147.061004 188.407219 
L 142.440687 189.894504 
L 130.536687 194.715548 
L 125.631074 197.277619 
L 118.632687 198.634229 
L 106.728687 202.79078 
L 100.060461 206.148019 
L 94.824687 206.934345 
L 82.920687 209.767846 
L 71.906346 215.018419 
L 71.016687 215.117852 
L 59.112687 216.053936 
L 47.208687 217.988296 
L 35.304687 219.599009 
" style="fill:none;stroke:#287d8e;stroke-width:1.5;"/>
   </g>
   <g id="LineCollection_10">
    <path clip-path="url(#p30892fae9b)" d="M 280.202692 10.999219 
L 285.288688 12.420103 
L 297.192688 15.805813 
L 309.096688 19.428416 
L 310.178149 19.869619 
L 321.000688 25.296631 
L 325.444767 28.740019 
L 332.904688 34.970823 
L 333.816212 37.610419 
L 335.042379 46.480819 
L 334.350084 55.351219 
L 332.989265 64.221619 
L 332.904688 64.483613 
L 325.475678 73.092019 
L 321.534956 81.962419 
L 321.000688 82.880007 
L 311.708359 90.832819 
L 309.096688 93.015745 
L 299.402216 99.703219 
L 297.192688 100.838359 
L 285.634185 108.573619 
L 285.288688 108.771127 
L 273.384688 116.527393 
L 272.169662 117.444019 
L 261.480687 124.927252 
L 259.624147 126.314419 
L 249.576687 133.064454 
L 246.631609 135.184819 
L 237.672687 140.940846 
L 233.279749 144.055219 
L 225.768687 148.734739 
L 219.658992 152.925619 
L 213.864688 155.270056 
L 203.722321 161.796019 
L 201.960688 162.515033 
L 190.056688 168.141791 
L 189.652562 168.387347 
" style="fill:none;stroke:#238a8d;stroke-width:1.5;"/>
    <path clip-path="url(#p30892fae9b)" d="M 167.324605 179.799558 
L 166.248687 180.198797 
L 154.344687 185.486699 
L 149.377073 188.407219 
L 142.440687 190.64005 
L 130.536687 196.651814 
L 129.338455 197.277619 
L 118.632687 199.352891 
L 106.728687 204.710153 
L 103.872765 206.148019 
L 94.824687 207.50689 
L 82.920687 211.477688 
L 75.493151 215.018419 
L 71.016687 215.518734 
L 59.112687 217.25263 
L 47.208687 220.97163 
L 35.304687 223.755605 
" style="fill:none;stroke:#238a8d;stroke-width:1.5;"/>
   </g>
   <g id="LineCollection_11">
    <path clip-path="url(#p30892fae9b)" d="M 299.822789 10.999219 
L 309.096688 14.277109 
L 321.000688 19.267301 
L 321.918897 19.869619 
L 332.904688 28.309921 
L 333.108227 28.740019 
L 336.173203 37.610419 
L 336.37379 42.85951 
" style="fill:none;stroke:#1f968b;stroke-width:1.5;"/>
    <path clip-path="url(#p30892fae9b)" d="M 331.696967 67.256393 
L 326.660852 73.092019 
L 321.979678 81.962419 
L 321.000688 83.643804 
L 312.600805 90.832819 
L 309.096688 93.761682 
L 300.483561 99.703219 
L 297.192688 101.393897 
L 286.464304 108.573619 
L 285.288688 109.245676 
L 273.702252 117.444019 
L 273.384688 117.652669 
L 261.565717 126.314419 
L 261.480687 126.374745 
L 249.576687 134.517143 
L 248.64932 135.184819 
L 237.672687 142.237208 
L 235.108315 144.055219 
L 225.768687 149.873967 
L 221.319821 152.925619 
L 213.864688 155.942045 
L 204.766697 161.796019 
L 201.960688 162.941297 
L 190.056688 169.427827 
L 188.018265 170.666419 
L 178.152687 174.123522 
L 169.252118 179.536819 
L 166.248687 180.651299 
L 154.344687 186.848344 
L 151.693143 188.407219 
L 142.440687 191.385595 
L 131.475711 197.277619 
L 130.536687 197.494736 
L 118.632687 200.071553 
L 107.071702 206.148019 
L 106.728687 206.206821 
L 94.824687 208.079435 
L 82.920687 213.18753 
L 79.079957 215.018419 
L 71.016687 215.919616 
L 59.112687 218.451324 
L 47.266587 223.888819 
L 47.208687 223.894013 
L 35.304687 224.470297 
" style="fill:none;stroke:#1f968b;stroke-width:1.5;"/>
   </g>
   <g id="LineCollection_12">
    <path clip-path="url(#p30892fae9b)" d="M 312.363861 10.999219 
L 321.000688 15.051879 
L 328.345141 19.869619 
L 332.904688 23.372685 
L 335.444721 28.740019 
L 338.530194 37.610419 
L 337.981969 46.480819 
L 335.928035 55.351219 
L 333.875948 64.221619 
L 332.904688 67.230268 
L 327.846026 73.092019 
L 322.424401 81.962419 
L 321.000688 84.407601 
L 313.49325 90.832819 
L 309.096688 94.507619 
L 301.564906 99.703219 
L 297.192688 101.949435 
L 287.294424 108.573619 
L 285.288688 109.720225 
L 274.372916 117.444019 
L 273.384688 118.093315 
L 262.16698 126.314419 
L 261.480687 126.801323 
L 249.895247 135.184819 
L 249.576687 135.41403 
L 237.672687 143.533569 
L 236.936881 144.055219 
L 225.768687 151.013194 
L 222.98065 152.925619 
L 213.864688 156.614034 
L 205.811073 161.796019 
L 201.960688 163.367561 
L 190.08228 170.666419 
L 190.056688 170.675817 
L 178.152687 174.86519 
L 170.471571 179.536819 
L 166.248687 181.1038 
L 165.163591 181.751557 
" style="fill:none;stroke:#20a386;stroke-width:1.5;"/>
    <path clip-path="url(#p30892fae9b)" d="M 142.389842 192.158463 
L 132.863161 197.277619 
L 130.536687 197.815537 
L 118.632687 200.790215 
L 108.439016 206.148019 
L 106.728687 206.441219 
L 94.824687 208.65198 
L 82.920687 214.897372 
L 82.666763 215.018419 
L 71.016687 216.320497 
L 59.112687 219.650018 
L 49.878056 223.888819 
L 47.208687 224.128277 
L 35.304687 225.071028 
" style="fill:none;stroke:#20a386;stroke-width:1.5;"/>
   </g>
   <g id="LineCollection_13">
    <path clip-path="url(#p30892fae9b)" d="M 321.17642 10.999219 
L 332.904688 18.970998 
L 333.489256 19.869619 
L 337.781215 28.740019 
L 340.887185 37.610419 
L 339.451765 46.480819 
L 336.71701 55.351219 
L 334.319289 64.221619 
L 332.904688 68.603595 
L 329.031201 73.092019 
L 322.971714 81.814739 
" style="fill:none;stroke:#29af7f;stroke-width:1.5;"/>
    <path clip-path="url(#p30892fae9b)" d="M 304.399165 98.494017 
L 302.646251 99.703219 
L 297.192688 102.504973 
L 288.124543 108.573619 
L 285.288688 110.194774 
L 275.04358 117.444019 
L 273.384688 118.533962 
L 262.768243 126.314419 
L 261.480687 127.227901 
L 250.48475 135.184819 
L 249.576687 135.838191 
L 238.028916 144.055219 
L 237.672687 144.291564 
L 225.768687 152.152422 
L 224.641479 152.925619 
L 213.864688 157.286024 
L 206.85545 161.796019 
L 201.960688 163.793825 
L 190.775997 170.666419 
L 190.056688 170.930564 
L 178.152687 175.606857 
L 171.691025 179.536819 
L 166.248687 181.556301 
L 154.98111 188.407219 
L 154.344687 188.636651 
L 142.440687 192.876686 
L 134.250611 197.277619 
L 130.536687 198.136338 
L 118.632687 201.508876 
L 109.80633 206.148019 
L 106.728687 206.675616 
L 94.824687 209.224524 
L 83.92182 215.018419 
L 82.920687 215.165891 
L 71.016687 216.721379 
L 59.112687 220.848712 
L 52.489525 223.888819 
L 47.208687 224.362542 
L 35.304687 225.671759 
" style="fill:none;stroke:#29af7f;stroke-width:1.5;"/>
   </g>
   <g id="LineCollection_14">
    <path clip-path="url(#p30892fae9b)" d="M 325.727746 10.999219 
L 332.904688 15.877432 
L 335.501675 19.869619 
L 340.117709 28.740019 
L 343.244176 37.610419 
L 340.92156 46.480819 
L 337.505986 55.351219 
L 334.762631 64.221619 
L 332.904688 69.976923 
L 330.216375 73.092019 
L 323.313846 81.962419 
L 321.000688 85.935194 
L 315.278141 90.832819 
L 309.096688 95.999493 
L 303.727596 99.703219 
L 297.192688 103.060511 
L 288.954662 108.573619 
L 285.288688 110.669323 
L 275.714243 117.444019 
L 273.384688 118.974608 
L 263.369506 126.314419 
L 261.480687 127.654479 
L 251.074253 135.184819 
L 249.576687 136.262352 
L 238.625009 144.055219 
L 237.672687 144.687051 
L 225.949502 152.925619 
L 225.768687 152.998901 
L 213.864688 157.958013 
L 207.899826 161.796019 
L 201.960688 164.220089 
L 191.469713 170.666419 
L 190.056688 171.185311 
L 178.152687 176.348525 
L 172.910478 179.536819 
L 166.248687 182.008803 
L 165.237445 182.623659 
" style="fill:none;stroke:#3dbc74;stroke-width:1.5;"/>
    <path clip-path="url(#p30892fae9b)" d="M 142.630905 193.546853 
L 142.440687 193.622232 
L 135.638062 197.277619 
L 130.536687 198.457139 
L 118.632687 202.227538 
L 111.173644 206.148019 
L 106.728687 206.910013 
L 94.824687 209.797069 
L 84.999227 215.018419 
L 82.920687 215.324598 
L 71.016687 217.122261 
L 59.112687 222.047406 
L 55.100994 223.888819 
L 47.208687 224.596807 
L 35.304687 226.272489 
" style="fill:none;stroke:#3dbc74;stroke-width:1.5;"/>
   </g>
   <g id="LineCollection_15">
    <path clip-path="url(#p30892fae9b)" d="M 330.279073 10.999219 
L 332.904688 12.783866 
L 337.514095 19.869619 
L 342.454203 28.740019 
L 344.808688 35.39121 
L 344.990189 37.610419 
L 344.808688 39.116024 
L 342.391355 46.480819 
L 338.294961 55.351219 
L 335.205972 64.221619 
L 332.904688 71.35025 
L 331.40155 73.092019 
L 323.758569 81.962419 
L 321.000688 86.698991 
L 316.170586 90.832819 
L 309.096688 96.74543 
L 304.80894 99.703219 
L 297.192688 103.616049 
L 289.784782 108.573619 
L 285.288688 111.143872 
L 276.384907 117.444019 
L 273.384688 119.415255 
L 263.970769 126.314419 
L 261.480687 128.081057 
L 251.663756 135.184819 
L 249.576687 136.686512 
L 239.221102 144.055219 
L 237.672687 145.082538 
L 226.512267 152.925619 
L 225.768687 153.226985 
L 213.864688 158.630002 
L 208.944202 161.796019 
L 201.960688 164.646353 
L 192.16343 170.666419 
L 190.056688 171.440058 
L 178.152687 177.090192 
L 177.71294 177.357645 
" style="fill:none;stroke:#56c667;stroke-width:1.5;"/>
    <path clip-path="url(#p30892fae9b)" d="M 155.382893 188.798963 
L 154.344687 189.173239 
L 142.440687 194.367777 
L 137.025512 197.277619 
L 130.536687 198.77794 
L 118.632687 202.9462 
L 112.540959 206.148019 
L 106.728687 207.14441 
L 94.824687 210.369614 
L 86.076633 215.018419 
L 82.920687 215.483306 
L 71.016687 217.523143 
L 59.112687 223.2461 
L 57.712463 223.888819 
L 47.208687 224.831072 
L 35.304687 226.87322 
" style="fill:none;stroke:#56c667;stroke-width:1.5;"/>
   </g>
   <g id="LineCollection_16">
    <path clip-path="url(#p30892fae9b)" d="M 333.601227 10.999219 
L 339.526514 19.869619 
L 344.790697 28.740019 
L 344.808688 28.79084 
L 345.53001 37.610419 
L 344.808688 43.593994 
L 343.861151 46.480819 
L 339.083937 55.351219 
L 335.649314 64.221619 
L 332.904688 72.723577 
L 332.586724 73.092019 
L 324.203291 81.962419 
L 321.000688 87.462788 
L 317.063032 90.832819 
L 309.096688 97.491367 
L 305.890285 99.703219 
L 297.192688 104.171587 
L 290.614901 108.573619 
L 285.288688 111.618421 
L 277.055571 117.444019 
L 273.384688 119.855902 
L 264.572032 126.314419 
L 261.480687 128.507635 
L 252.253259 135.184819 
L 249.576687 137.110673 
L 239.817195 144.055219 
L 237.672687 145.478025 
L 227.075031 152.925619 
L 225.768687 153.455068 
L 213.864688 159.301991 
L 209.988579 161.796019 
L 201.960688 165.072617 
L 192.857146 170.666419 
L 190.056688 171.694805 
L 178.152687 177.83186 
L 175.349386 179.536819 
L 168.148231 182.208944 
" style="fill:none;stroke:#75d054;stroke-width:1.5;"/>
    <path clip-path="url(#p30892fae9b)" d="M 145.72312 193.549373 
L 142.440687 195.113323 
L 138.412962 197.277619 
L 130.536687 199.09874 
L 118.632687 203.664862 
L 113.908273 206.148019 
L 106.728687 207.378808 
L 94.824687 210.942159 
L 87.15404 215.018419 
L 82.920687 215.642014 
L 71.016687 217.924024 
L 59.472544 223.888819 
L 59.112687 223.93529 
L 47.208687 225.065337 
L 35.304687 227.473951 
" style="fill:none;stroke:#75d054;stroke-width:1.5;"/>
   </g>
   <g id="LineCollection_17">
    <path clip-path="url(#p30892fae9b)" d="M 335.247465 10.999219 
L 341.538934 19.869619 
L 344.808688 25.3767 
L 345.388639 28.740019 
L 346.069832 37.610419 
L 344.9354 46.480819 
L 344.808688 46.957565 
L 339.872912 55.351219 
L 336.092655 64.221619 
L 333.072684 73.092019 
L 332.904688 73.428362 
L 324.648014 81.962419 
L 321.000688 88.226585 
L 317.955477 90.832819 
L 309.096688 98.237304 
L 306.97163 99.703219 
L 297.192688 104.727125 
L 291.44502 108.573619 
L 285.288688 112.09297 
L 277.726234 117.444019 
L 273.384688 120.296548 
L 265.173295 126.314419 
L 261.480687 128.934213 
L 252.842761 135.184819 
L 249.576687 137.534834 
L 240.413288 144.055219 
L 237.672687 145.873513 
L 227.637795 152.925619 
L 225.768687 153.683151 
L 213.864688 159.97398 
L 211.032955 161.796019 
L 201.960688 165.498881 
L 193.550863 170.666419 
L 190.056688 171.949552 
L 178.152687 178.573528 
L 176.568839 179.536819 
L 168.964814 182.358437 
" style="fill:none;stroke:#95d840;stroke-width:1.5;"/>
    <path clip-path="url(#p30892fae9b)" d="M 146.562543 193.729713 
L 142.440687 195.858868 
L 139.800412 197.277619 
L 130.536687 199.419541 
L 118.632687 204.383523 
L 115.275587 206.148019 
L 106.728687 207.613205 
L 94.824687 211.514704 
L 88.231447 215.018419 
L 82.920687 215.800721 
L 71.016687 218.324906 
L 60.248403 223.888819 
L 59.112687 224.035483 
L 47.208687 225.299601 
L 35.304687 228.074682 
" style="fill:none;stroke:#95d840;stroke-width:1.5;"/>
   </g>
   <g id="LineCollection_18">
    <path clip-path="url(#p30892fae9b)" d="M 336.893703 10.999219 
L 343.551353 19.869619 
L 344.808688 21.987283 
L 345.973091 28.740019 
L 346.609653 37.610419 
L 345.292009 46.480819 
L 344.808688 48.299277 
L 340.661887 55.351219 
L 336.535996 64.221619 
L 333.302277 73.092019 
L 332.904688 73.888025 
L 325.092737 81.962419 
L 321.000688 88.990381 
L 318.847923 90.832819 
L 309.096688 98.983241 
L 308.052975 99.703219 
L 297.192688 105.282663 
L 292.275139 108.573619 
L 285.288688 112.567519 
L 278.396898 117.444019 
L 273.384688 120.737195 
L 265.774558 126.314419 
L 261.480687 129.360791 
L 253.432264 135.184819 
L 249.576687 137.958995 
L 241.009381 144.055219 
L 237.672687 146.269 
L 228.200559 152.925619 
L 225.768687 153.911235 
L 213.864688 160.64597 
L 212.077331 161.796019 
L 201.960688 165.925145 
L 194.244579 170.666419 
L 190.056688 172.204299 
L 178.152687 179.315195 
L 177.788293 179.536819 
L 169.781397 182.507929 
" style="fill:none;stroke:#bade28;stroke-width:1.5;"/>
    <path clip-path="url(#p30892fae9b)" d="M 147.382655 193.853496 
L 142.440687 196.604414 
L 141.187862 197.277619 
L 130.536687 199.740342 
L 118.632687 205.102185 
L 116.642901 206.148019 
L 106.728687 207.847602 
L 94.824687 212.087249 
L 89.308853 215.018419 
L 82.920687 215.959429 
L 71.016687 218.725788 
L 61.024261 223.888819 
L 59.112687 224.135676 
L 47.208687 225.533866 
L 35.304687 228.675413 
" style="fill:none;stroke:#bade28;stroke-width:1.5;"/>
   </g>
   <g id="LineCollection_19">
    <path clip-path="url(#p30892fae9b)" d="M 338.539941 10.999219 
L 344.808688 19.073975 
L 344.993166 19.869619 
L 346.557543 28.740019 
L 347.149474 37.610419 
L 345.648617 46.480819 
L 344.808688 49.640988 
L 341.450863 55.351219 
L 336.979338 64.221619 
L 333.531869 73.092019 
L 332.904688 74.347688 
L 325.537459 81.962419 
L 321.000688 89.754178 
L 319.740368 90.832819 
L 309.105621 99.703219 
L 309.096688 99.708997 
L 297.192688 105.838202 
L 293.105259 108.573619 
L 285.288688 113.042068 
L 279.067562 117.444019 
L 273.384688 121.177841 
L 266.375821 126.314419 
L 261.480687 129.78737 
L 254.021767 135.184819 
L 249.576687 138.383156 
L 241.605474 144.055219 
L 237.672687 146.664487 
L 228.763323 152.925619 
L 225.768687 154.139318 
L 213.864688 161.317959 
L 213.121707 161.796019 
L 201.960688 166.351409 
L 194.938296 170.666419 
L 190.056688 172.459046 
L 178.445717 179.536819 
L 178.152687 179.649001 
L 170.573185 182.592113 
" style="fill:none;stroke:#dde318;stroke-width:1.5;"/>
    <path clip-path="url(#p30892fae9b)" d="M 148.171183 193.906352 
L 142.484599 197.277619 
L 142.440687 197.290365 
L 130.536687 200.061143 
L 118.632687 205.820847 
L 118.010216 206.148019 
L 106.728687 208.081999 
L 94.824687 212.659793 
L 90.38626 215.018419 
L 82.920687 216.118136 
L 71.016687 219.12667 
L 61.80012 223.888819 
L 59.112687 224.235869 
L 47.208687 225.768131 
L 35.304687 229.276144 
" style="fill:none;stroke:#dde318;stroke-width:1.5;"/>
   </g>
   <g id="LineCollection_20">
    <path clip-path="url(#p30892fae9b)" d="M 340.186179 10.999219 
L 344.808688 16.95346 
L 345.484829 19.869619 
L 347.141995 28.740019 
L 347.689296 37.610419 
L 346.005226 46.480819 
L 344.808688 50.9827 
L 342.239838 55.351219 
L 337.422679 64.221619 
L 333.761462 73.092019 
L 332.904688 74.807351 
L 325.982182 81.962419 
L 321.000688 90.517975 
L 320.632813 90.832819 
L 309.362329 99.703219 
L 309.096688 99.875019 
L 297.192688 106.39374 
L 293.935378 108.573619 
L 285.288688 113.516617 
L 279.738226 117.444019 
L 273.384688 121.618488 
L 266.977084 126.314419 
L 261.480687 130.213948 
L 254.61127 135.184819 
L 249.576687 138.807317 
L 242.201567 144.055219 
L 237.672687 147.059974 
L 229.326087 152.925619 
L 225.768687 154.367402 
L 213.969238 161.796019 
L 213.864688 161.840608 
L 201.960688 166.777673 
L 195.632012 170.666419 
L 190.056688 172.713793 
L 178.863625 179.536819 
L 178.152687 179.808992 
L 171.341733 182.621039 
" style="fill:none;stroke:#fde725;stroke-width:1.5;"/>
    <path clip-path="url(#p30892fae9b)" d="M 148.851687 193.771211 
L 142.937152 197.277619 
L 142.440687 197.421731 
L 130.536687 200.381944 
L 118.982856 206.148019 
L 118.632687 206.209217 
L 106.728687 208.316397 
L 94.824687 213.232338 
L 91.463667 215.018419 
L 82.920687 216.276844 
L 71.016687 219.527551 
L 62.575978 223.888819 
L 59.112687 224.336062 
L 47.208687 226.002396 
L 35.304687 229.876874 
" style="fill:none;stroke:#fde725;stroke-width:1.5;"/>
   </g>
   <g id="LineCollection_21">
    <path clip-path="url(#p30892fae9b)" d="M 341.832416 10.999219 
L 344.808688 14.832946 
L 345.976492 19.869619 
L 347.726447 28.740019 
L 348.229117 37.610419 
L 346.361834 46.480819 
L 344.808688 52.324411 
L 343.028814 55.351219 
L 337.86602 64.221619 
L 333.991055 73.092019 
L 332.904688 75.267014 
L 326.426904 81.962419 
L 321.110116 90.832819 
L 321.028825 90.919036 
" style="fill:none;stroke:#440154;stroke-width:1.5;"/>
    <path clip-path="url(#p30892fae9b)" d="M 297.180546 106.957403 
L 294.765497 108.573619 
L 285.288688 113.991166 
L 280.408889 117.444019 
L 273.384688 122.059135 
L 267.578346 126.314419 
L 261.480687 130.640526 
L 255.200773 135.184819 
L 249.576687 139.231478 
L 242.79766 144.055219 
L 237.672687 147.455462 
L 229.888851 152.925619 
L 225.768687 154.595485 
L 214.331521 161.796019 
L 213.864688 161.995117 
L 201.960688 167.203938 
L 196.325729 170.666419 
L 190.056688 172.96854 
L 179.281534 179.536819 
L 178.152687 179.968982 
L 166.248687 185.176313 
L 160.934876 188.407219 
L 154.344687 190.783003 
L 143.389704 197.277619 
L 142.440687 197.553097 
L 130.536687 200.702745 
L 119.625664 206.148019 
L 118.632687 206.321559 
L 106.728687 208.550794 
L 94.824687 213.804883 
L 92.541073 215.018419 
L 82.920687 216.435551 
L 71.016687 219.928433 
L 63.351837 223.888819 
L 59.112687 224.436255 
L 47.208687 226.236661 
L 35.304687 230.477605 
" style="fill:none;stroke:#440154;stroke-width:1.5;"/>
   </g>
   <g id="LineCollection_22">
    <path clip-path="url(#p30892fae9b)" d="M 374.892245 10.999219 
L 377.241333 19.869619 
L 379.687207 28.740019 
L 380.520688 33.538887 
L 380.878446 37.610419 
L 380.520688 38.802553 
L 376.268064 46.480819 
L 369.773155 55.351219 
L 368.616688 56.828864 
L 362.089199 64.221619 
L 356.712688 71.844023 
L 355.608328 73.092019 
L 347.553895 81.962419 
L 344.808688 85.594299 
L 339.576431 90.832819 
L 332.904688 97.93137 
L 330.801305 99.703219 
L 321.000688 106.494347 
L 318.094586 108.573619 
L 309.096688 113.23875 
L 303.113878 117.444019 
L 297.192688 120.563321 
L 289.086092 126.314419 
L 285.288688 128.673142 
L 276.318762 135.184819 
L 273.384688 137.275889 
L 264.21116 144.055219 
L 261.480687 145.847808 
L 251.818184 152.925619 
L 249.576687 154.569063 
L 239.491576 161.796019 
L 237.672687 163.072038 
L 225.768687 170.10738 
L 224.880861 170.666419 
L 213.864688 175.249712 
L 206.699861 179.536819 
L 201.960688 181.218311 
L 190.124291 188.407219 
L 190.056688 188.434332 
L 178.152687 193.267169 
L 171.567813 197.277619 
L 166.248687 198.875902 
L 154.344687 205.058397 
L 152.440493 206.148019 
L 142.440687 208.591241 
L 130.536687 214.940145 
L 130.370621 215.018419 
L 118.632687 217.140541 
L 106.728687 220.960884 
L 100.059259 223.888819 
L 94.824687 224.720754 
L 86.204505 226.553868 
" style="fill:none;stroke:#440154;stroke-width:1.5;"/>
    <path clip-path="url(#p30892fae9b)" d="M 55.213945 235.362989 
L 47.208687 237.427238 
L 37.219581 241.629619 
L 35.304687 241.913872 
" style="fill:none;stroke:#440154;stroke-width:1.5;"/>
   </g>
   <g id="LineCollection_23">
    <path clip-path="url(#p30892fae9b)" d="M 392.424688 69.15152 
L 387.612021 73.092019 
L 380.520688 78.922287 
L 376.994904 81.962419 
L 368.616688 88.277015 
L 365.626493 90.832819 
L 356.712688 96.09112 
L 352.017134 99.703219 
L 344.808688 103.881392 
L 338.192956 108.573619 
L 332.904688 111.412757 
L 324.076411 117.444019 
L 321.000688 119.11455 
L 310.487783 126.314419 
L 309.096688 127.147674 
L 297.726472 135.184819 
L 297.192688 135.536684 
L 288.338677 141.968267 
" style="fill:none;stroke:#440154;stroke-width:1.5;"/>
    <path clip-path="url(#p30892fae9b)" d="M 258.514946 162.111241 
L 249.576687 169.574315 
L 248.08815 170.666419 
L 237.672687 177.835802 
L 234.982468 179.536819 
L 225.768687 183.745993 
L 217.978311 188.407219 
L 213.864688 189.899163 
L 201.960688 196.879977 
L 201.307186 197.277619 
L 190.056688 200.282239 
L 179.945801 206.148019 
L 178.152687 206.577622 
L 166.248687 210.332345 
L 157.952988 215.018419 
L 154.344687 215.909379 
L 142.440687 220.278952 
L 135.782893 223.888819 
L 130.536687 225.127655 
L 118.632687 229.534643 
L 111.665879 232.759219 
L 106.728687 233.748375 
L 94.824687 236.612577 
L 82.920687 241.367613 
L 82.270629 241.629619 
L 71.016687 243.474127 
L 59.112687 246.637217 
L 49.394365 250.500019 
L 47.208687 250.86451 
L 35.304687 253.053417 
" style="fill:none;stroke:#440154;stroke-width:1.5;"/>
   </g>
   <g id="LineCollection_24">
    <path clip-path="url(#p30892fae9b)" d="M 392.424688 90.994202 
L 380.520688 96.356677 
L 375.502255 99.703219 
L 368.616688 102.924098 
L 360.294659 108.573619 
L 356.712688 110.369111 
L 346.328347 117.444019 
L 344.808688 118.260812 
L 333.116003 126.314419 
L 332.904688 126.437513 
L 321.000688 133.763103 
L 318.981193 135.184819 
L 309.096688 141.65421 
L 305.766689 144.055219 
L 297.192688 149.413857 
L 292.237593 152.925619 
L 285.288688 156.979721 
L 278.472213 161.796019 
L 273.384688 165.096685 
L 265.855446 170.666419 
L 265.142854 171.221403 
" style="fill:none;stroke:#440154;stroke-width:1.5;"/>
    <path clip-path="url(#p30892fae9b)" d="M 232.497765 193.123985 
L 225.768687 197.266041 
L 225.750958 197.277619 
L 213.864688 200.534875 
L 204.839591 206.148019 
L 201.960688 206.966445 
L 190.056688 212.034285 
L 184.75796 215.018419 
L 178.152687 216.622578 
L 166.248687 222.500457 
L 163.811273 223.888819 
L 154.344687 226.327359 
L 143.007246 232.759219 
L 142.440687 232.908317 
L 130.536687 236.179227 
L 120.675083 241.629619 
L 118.632687 242.162391 
L 106.728687 245.891452 
L 97.534744 250.500019 
L 94.824687 251.147041 
L 82.920687 254.156203 
L 71.016687 258.991383 
L 70.062453 259.370419 
L 59.112687 261.338384 
L 47.208687 264.663819 
L 38.058043 268.240819 
L 35.304687 268.74197 
" style="fill:none;stroke:#440154;stroke-width:1.5;"/>
   </g>
   <g id="LineCollection_25">
    <path clip-path="url(#p30892fae9b)" d="M 392.424688 103.225863 
L 384.063989 108.573619 
L 380.520688 110.141072 
L 369.443822 117.444019 
L 368.616688 117.857274 
L 356.712688 124.961571 
L 354.733732 126.314419 
L 344.808688 132.015157 
L 340.262914 135.184819 
L 332.904688 139.767936 
L 326.91244 144.055219 
L 321.000688 147.837756 
L 313.895369 152.925619 
L 309.096688 155.873318 
L 300.638744 161.796019 
L 297.192688 163.889908 
L 287.58278 170.666419 
L 285.288688 172.186399 
L 275.279072 179.536819 
L 273.384688 180.932889 
L 263.504093 188.407219 
L 261.480687 189.513306 
L 257.466224 191.709933 
" style="fill:none;stroke:#440154;stroke-width:1.5;"/>
    <path clip-path="url(#p30892fae9b)" d="M 218.298116 209.219783 
L 213.864688 210.794002 
L 206.928527 215.018419 
L 201.960688 216.480823 
L 190.056688 223.313653 
L 189.090972 223.888819 
L 178.152687 227.091385 
L 168.485299 232.759219 
L 166.248687 233.431478 
L 154.344687 237.850287 
L 147.745255 241.629619 
L 142.440687 243.117752 
L 130.536687 248.973738 
L 127.836235 250.500019 
L 118.632687 253.110399 
L 107.536844 259.370419 
L 106.728687 259.607217 
L 94.824687 263.258932 
L 85.486339 268.240819 
L 82.920687 268.950473 
L 71.016687 272.690425 
L 61.487343 277.111219 
" style="fill:none;stroke:#440154;stroke-width:1.5;"/>
   </g>
   <g id="LineCollection_26">
    <path clip-path="url(#p30892fae9b)" d="M 392.424688 117.946151 
L 380.520688 124.653546 
L 378.031113 126.314419 
L 368.616688 131.526107 
L 363.299841 135.184819 
L 356.712688 139.033144 
L 349.545142 144.055219 
L 344.808688 146.889755 
L 336.287689 152.925619 
L 332.904688 154.979806 
L 323.255506 161.796019 
L 321.000688 163.216759 
L 310.511387 170.666419 
L 309.096688 171.610705 
L 298.011335 179.536819 
L 297.192688 180.096181 
L 285.884283 188.407219 
L 285.288688 188.824693 
L 273.728379 197.11651 
" style="fill:none;stroke:#450457;stroke-width:1.5;"/>
    <path clip-path="url(#p30892fae9b)" d="M 230.810136 215.16566 
L 225.768687 216.585293 
L 213.864688 222.944393 
L 212.282107 223.888819 
L 201.960688 226.986814 
L 192.335682 232.759219 
L 190.056688 233.470574 
L 178.152687 238.635529 
L 173.223437 241.629619 
L 166.248687 243.888645 
L 155.147387 250.500019 
L 154.344687 250.765026 
L 142.440687 254.792264 
L 134.522362 259.370419 
L 130.536687 260.603701 
L 118.632687 266.275488 
L 115.216524 268.240819 
L 106.728687 270.909699 
L 95.921269 277.111219 
" style="fill:none;stroke:#450457;stroke-width:1.5;"/>
   </g>
   <g id="LineCollection_27">
    <path clip-path="url(#p30892fae9b)" d="M 392.424688 131.983351 
L 387.698354 135.184819 
L 380.520688 139.272345 
L 373.572175 144.055219 
L 368.616688 146.844758 
L 359.812485 152.925619 
L 356.712688 154.723455 
L 346.560819 161.796019 
L 344.808688 162.869189 
L 333.766933 170.666419 
L 332.904688 171.22911 
L 321.361697 179.536819 
L 321.000688 179.780908 
L 309.167367 188.407219 
L 309.096688 188.459719 
L 297.192687 197.104482 
L 296.955881 197.277619 
L 285.288688 202.177845 
L 284.040311 202.934137 
" style="fill:none;stroke:#482475;stroke-width:1.5;"/>
    <path clip-path="url(#p30892fae9b)" d="M 238.563318 223.978883 
L 237.672687 224.234095 
L 225.768687 228.238806 
L 217.946629 232.759219 
L 213.864688 234.004094 
L 201.960688 239.757531 
L 198.786478 241.629619 
L 190.056688 244.419976 
L 179.825872 250.500019 
L 178.152687 251.049362 
L 166.248687 256.007768 
L 160.695131 259.370419 
L 154.344687 261.563848 
L 143.314479 268.240819 
L 142.440687 268.550643 
L 130.536687 273.023827 
L 123.540837 277.111219 
" style="fill:none;stroke:#482475;stroke-width:1.5;"/>
   </g>
   <g id="LineCollection_28">
    <path clip-path="url(#p30892fae9b)" d="M 392.424688 147.541897 
L 384.510178 152.925619 
L 380.520688 155.160548 
L 370.8583 161.796019 
L 368.616688 163.118812 
L 357.798781 170.666419 
L 356.712688 171.347723 
L 345.176138 179.536819 
L 344.808688 179.779457 
L 332.904688 188.151263 
L 332.550782 188.407219 
L 321.000688 196.485563 
L 319.936733 197.277619 
L 309.096688 203.471573 
L 305.01706 206.148019 
L 297.89477 208.698287 
" style="fill:none;stroke:#fde725;stroke-width:1.5;"/>
    <path clip-path="url(#p30892fae9b)" d="M 249.204194 231.594953 
L 247.140834 232.759219 
L 237.672687 235.613204 
L 227.085605 241.629619 
L 225.768687 242.037187 
L 213.864688 246.39815 
L 206.79675 250.500019 
L 201.960688 252.081241 
L 190.056688 258.488006 
L 188.548939 259.370419 
L 178.152687 262.855547 
L 168.994464 268.240819 
L 166.248687 269.186297 
L 154.344687 274.915056 
L 150.715315 277.111219 
" style="fill:none;stroke:#fde725;stroke-width:1.5;"/>
   </g>
   <g id="line2d_20">
    <path clip-path="url(#p30892fae9b)" d="M 365.507545 49.123884 
L 361.900298 80.209629 
L 358.137613 105.816484 
L 354.706724 123.249283 
L 351.490308 135.078661 
L 348.407321 143.167772 
L 345.404847 148.814599 
L 342.473122 152.757204 
L 339.557215 155.565296 
L 336.662847 157.572822 
L 333.77293 159.032476 
L 330.850771 160.144083 
L 327.886229 161.041422 
L 324.878125 161.780868 
L 321.842501 162.360911 
L 318.805417 162.821739 
L 315.706317 163.220109 
L 312.592278 163.554298 
L 309.465812 163.818508 
L 306.343182 164.000466 
L 303.197674 164.119429 
L 300.037944 164.169006 
L 296.811356 164.177928 
L 293.52858 164.135064 
L 290.193771 164.007853 
L 286.839316 163.833535 
L 283.496719 163.610949 
L 280.116486 163.367027 
L 276.747211 163.073589 
L 273.322809 162.717297 
L 269.887288 162.302809 
L 266.425097 161.828737 
L 262.961823 161.3001 
L 259.475125 160.740252 
L 255.972685 160.12631 
L 252.392522 159.441004 
L 248.762241 158.714297 
L 245.110103 157.913519 
L 241.438419 157.024462 
L 237.793085 156.1344 
L 234.167731 155.236215 
L 230.529738 154.279838 
L 226.857854 153.253392 
L 223.195313 152.218402 
L 219.574939 151.184186 
L 215.852362 150.017891 
L 212.018583 148.706527 
L 208.285687 147.485243 
L 204.698604 146.390869 
L 201.343649 145.415496 
L 201.033364 145.331026 
L 200.739965 145.262954 
L 200.457155 145.206276 
L 200.178482 145.156318 
L 199.902995 145.109272 
L 199.631324 145.062565 
L 199.358322 145.01745 
L 199.083215 144.969479 
L 198.812091 144.919241 
L 198.540625 144.868236 
L 198.270636 144.818379 
L 198.00301 144.769793 
L 197.735367 144.720174 
L 197.467669 144.669585 
L 197.201211 144.620238 
L 196.939939 144.570903 
L 196.680878 144.525368 
L 196.421089 144.480958 
L 196.162592 144.435476 
L 195.904368 144.384833 
L 195.645605 144.332212 
L 195.3893 144.280742 
L 195.138367 144.232131 
L 194.889708 144.189675 
L 194.640832 144.14883 
L 194.615816 144.144788 
L 194.590976 144.140924 
L 194.565902 144.137009 
L 194.540689 144.133315 
L 194.515786 144.12988 
L 194.491422 144.126577 
L 194.467281 144.123017 
L 194.443 144.119426 
L 194.41851 144.115901 
L 194.39393 144.112456 
L 194.369281 144.109117 
L 194.344941 144.10585 
L 194.320759 144.102307 
L 194.296515 144.098648 
L 194.272222 144.095123 
L 194.247513 144.091456 
L 194.222789 144.08759 
L 194.198012 144.083671 
L 194.173202 144.079877 
L 194.148915 144.075928 
L 194.124373 144.071794 
L 194.099531 144.067522 
L 194.074679 144.063192 
L 194.049517 144.059127 
" style="fill:none;stroke:#1f77b4;stroke-linecap:square;stroke-width:1.5;"/>
    <defs>
     <path d="M 0 1.5 
C 0.397805 1.5 0.77937 1.341951 1.06066 1.06066 
C 1.341951 0.77937 1.5 0.397805 1.5 0 
C 1.5 -0.397805 1.341951 -0.77937 1.06066 -1.06066 
C 0.77937 -1.341951 0.397805 -1.5 0 -1.5 
C -0.397805 -1.5 -0.77937 -1.341951 -1.06066 -1.06066 
C -1.341951 -0.77937 -1.5 -0.397805 -1.5 0 
C -1.5 0.397805 -1.341951 0.77937 -1.06066 1.06066 
C -0.77937 1.341951 -0.397805 1.5 0 1.5 
z
" id="m9a3b7feb64" style="stroke:#1f77b4;"/>
    </defs>
    <g clip-path="url(#p30892fae9b)">
     <use style="fill:#1f77b4;stroke:#1f77b4;" x="365.507545" xlink:href="#m9a3b7feb64" y="49.123884"/>
     <use style="fill:#1f77b4;stroke:#1f77b4;" x="361.900298" xlink:href="#m9a3b7feb64" y="80.209629"/>
     <use style="fill:#1f77b4;stroke:#1f77b4;" x="358.137613" xlink:href="#m9a3b7feb64" y="105.816484"/>
     <use style="fill:#1f77b4;stroke:#1f77b4;" x="354.706724" xlink:href="#m9a3b7feb64" y="123.249283"/>
     <use style="fill:#1f77b4;stroke:#1f77b4;" x="351.490308" xlink:href="#m9a3b7feb64" y="135.078661"/>
     <use style="fill:#1f77b4;stroke:#1f77b4;" x="348.407321" xlink:href="#m9a3b7feb64" y="143.167772"/>
     <use style="fill:#1f77b4;stroke:#1f77b4;" x="345.404847" xlink:href="#m9a3b7feb64" y="148.814599"/>
     <use style="fill:#1f77b4;stroke:#1f77b4;" x="342.473122" xlink:href="#m9a3b7feb64" y="152.757204"/>
     <use style="fill:#1f77b4;stroke:#1f77b4;" x="339.557215" xlink:href="#m9a3b7feb64" y="155.565296"/>
     <use style="fill:#1f77b4;stroke:#1f77b4;" x="336.662847" xlink:href="#m9a3b7feb64" y="157.572822"/>
     <use style="fill:#1f77b4;stroke:#1f77b4;" x="333.77293" xlink:href="#m9a3b7feb64" y="159.032476"/>
     <use style="fill:#1f77b4;stroke:#1f77b4;" x="330.850771" xlink:href="#m9a3b7feb64" y="160.144083"/>
     <use style="fill:#1f77b4;stroke:#1f77b4;" x="327.886229" xlink:href="#m9a3b7feb64" y="161.041422"/>
     <use style="fill:#1f77b4;stroke:#1f77b4;" x="324.878125" xlink:href="#m9a3b7feb64" y="161.780868"/>
     <use style="fill:#1f77b4;stroke:#1f77b4;" x="321.842501" xlink:href="#m9a3b7feb64" y="162.360911"/>
     <use style="fill:#1f77b4;stroke:#1f77b4;" x="318.805417" xlink:href="#m9a3b7feb64" y="162.821739"/>
     <use style="fill:#1f77b4;stroke:#1f77b4;" x="315.706317" xlink:href="#m9a3b7feb64" y="163.220109"/>
     <use style="fill:#1f77b4;stroke:#1f77b4;" x="312.592278" xlink:href="#m9a3b7feb64" y="163.554298"/>
     <use style="fill:#1f77b4;stroke:#1f77b4;" x="309.465812" xlink:href="#m9a3b7feb64" y="163.818508"/>
     <use style="fill:#1f77b4;stroke:#1f77b4;" x="306.343182" xlink:href="#m9a3b7feb64" y="164.000466"/>
     <use style="fill:#1f77b4;stroke:#1f77b4;" x="303.197674" xlink:href="#m9a3b7feb64" y="164.119429"/>
     <use style="fill:#1f77b4;stroke:#1f77b4;" x="300.037944" xlink:href="#m9a3b7feb64" y="164.169006"/>
     <use style="fill:#1f77b4;stroke:#1f77b4;" x="296.811356" xlink:href="#m9a3b7feb64" y="164.177928"/>
     <use style="fill:#1f77b4;stroke:#1f77b4;" x="293.52858" xlink:href="#m9a3b7feb64" y="164.135064"/>
     <use style="fill:#1f77b4;stroke:#1f77b4;" x="290.193771" xlink:href="#m9a3b7feb64" y="164.007853"/>
     <use style="fill:#1f77b4;stroke:#1f77b4;" x="286.839316" xlink:href="#m9a3b7feb64" y="163.833535"/>
     <use style="fill:#1f77b4;stroke:#1f77b4;" x="283.496719" xlink:href="#m9a3b7feb64" y="163.610949"/>
     <use style="fill:#1f77b4;stroke:#1f77b4;" x="280.116486" xlink:href="#m9a3b7feb64" y="163.367027"/>
     <use style="fill:#1f77b4;stroke:#1f77b4;" x="276.747211" xlink:href="#m9a3b7feb64" y="163.073589"/>
     <use style="fill:#1f77b4;stroke:#1f77b4;" x="273.322809" xlink:href="#m9a3b7feb64" y="162.717297"/>
     <use style="fill:#1f77b4;stroke:#1f77b4;" x="269.887288" xlink:href="#m9a3b7feb64" y="162.302809"/>
     <use style="fill:#1f77b4;stroke:#1f77b4;" x="266.425097" xlink:href="#m9a3b7feb64" y="161.828737"/>
     <use style="fill:#1f77b4;stroke:#1f77b4;" x="262.961823" xlink:href="#m9a3b7feb64" y="161.3001"/>
     <use style="fill:#1f77b4;stroke:#1f77b4;" x="259.475125" xlink:href="#m9a3b7feb64" y="160.740252"/>
     <use style="fill:#1f77b4;stroke:#1f77b4;" x="255.972685" xlink:href="#m9a3b7feb64" y="160.12631"/>
     <use style="fill:#1f77b4;stroke:#1f77b4;" x="252.392522" xlink:href="#m9a3b7feb64" y="159.441004"/>
     <use style="fill:#1f77b4;stroke:#1f77b4;" x="248.762241" xlink:href="#m9a3b7feb64" y="158.714297"/>
     <use style="fill:#1f77b4;stroke:#1f77b4;" x="245.110103" xlink:href="#m9a3b7feb64" y="157.913519"/>
     <use style="fill:#1f77b4;stroke:#1f77b4;" x="241.438419" xlink:href="#m9a3b7feb64" y="157.024462"/>
     <use style="fill:#1f77b4;stroke:#1f77b4;" x="237.793085" xlink:href="#m9a3b7feb64" y="156.1344"/>
     <use style="fill:#1f77b4;stroke:#1f77b4;" x="234.167731" xlink:href="#m9a3b7feb64" y="155.236215"/>
     <use style="fill:#1f77b4;stroke:#1f77b4;" x="230.529738" xlink:href="#m9a3b7feb64" y="154.279838"/>
     <use style="fill:#1f77b4;stroke:#1f77b4;" x="226.857854" xlink:href="#m9a3b7feb64" y="153.253392"/>
     <use style="fill:#1f77b4;stroke:#1f77b4;" x="223.195313" xlink:href="#m9a3b7feb64" y="152.218402"/>
     <use style="fill:#1f77b4;stroke:#1f77b4;" x="219.574939" xlink:href="#m9a3b7feb64" y="151.184186"/>
     <use style="fill:#1f77b4;stroke:#1f77b4;" x="215.852362" xlink:href="#m9a3b7feb64" y="150.017891"/>
     <use style="fill:#1f77b4;stroke:#1f77b4;" x="212.018583" xlink:href="#m9a3b7feb64" y="148.706527"/>
     <use style="fill:#1f77b4;stroke:#1f77b4;" x="208.285687" xlink:href="#m9a3b7feb64" y="147.485243"/>
     <use style="fill:#1f77b4;stroke:#1f77b4;" x="204.698604" xlink:href="#m9a3b7feb64" y="146.390869"/>
     <use style="fill:#1f77b4;stroke:#1f77b4;" x="201.343649" xlink:href="#m9a3b7feb64" y="145.415496"/>
     <use style="fill:#1f77b4;stroke:#1f77b4;" x="201.033364" xlink:href="#m9a3b7feb64" y="145.331026"/>
     <use style="fill:#1f77b4;stroke:#1f77b4;" x="200.739965" xlink:href="#m9a3b7feb64" y="145.262954"/>
     <use style="fill:#1f77b4;stroke:#1f77b4;" x="200.457155" xlink:href="#m9a3b7feb64" y="145.206276"/>
     <use style="fill:#1f77b4;stroke:#1f77b4;" x="200.178482" xlink:href="#m9a3b7feb64" y="145.156318"/>
     <use style="fill:#1f77b4;stroke:#1f77b4;" x="199.902995" xlink:href="#m9a3b7feb64" y="145.109272"/>
     <use style="fill:#1f77b4;stroke:#1f77b4;" x="199.631324" xlink:href="#m9a3b7feb64" y="145.062565"/>
     <use style="fill:#1f77b4;stroke:#1f77b4;" x="199.358322" xlink:href="#m9a3b7feb64" y="145.01745"/>
     <use style="fill:#1f77b4;stroke:#1f77b4;" x="199.083215" xlink:href="#m9a3b7feb64" y="144.969479"/>
     <use style="fill:#1f77b4;stroke:#1f77b4;" x="198.812091" xlink:href="#m9a3b7feb64" y="144.919241"/>
     <use style="fill:#1f77b4;stroke:#1f77b4;" x="198.540625" xlink:href="#m9a3b7feb64" y="144.868236"/>
     <use style="fill:#1f77b4;stroke:#1f77b4;" x="198.270636" xlink:href="#m9a3b7feb64" y="144.818379"/>
     <use style="fill:#1f77b4;stroke:#1f77b4;" x="198.00301" xlink:href="#m9a3b7feb64" y="144.769793"/>
     <use style="fill:#1f77b4;stroke:#1f77b4;" x="197.735367" xlink:href="#m9a3b7feb64" y="144.720174"/>
     <use style="fill:#1f77b4;stroke:#1f77b4;" x="197.467669" xlink:href="#m9a3b7feb64" y="144.669585"/>
     <use style="fill:#1f77b4;stroke:#1f77b4;" x="197.201211" xlink:href="#m9a3b7feb64" y="144.620238"/>
     <use style="fill:#1f77b4;stroke:#1f77b4;" x="196.939939" xlink:href="#m9a3b7feb64" y="144.570903"/>
     <use style="fill:#1f77b4;stroke:#1f77b4;" x="196.680878" xlink:href="#m9a3b7feb64" y="144.525368"/>
     <use style="fill:#1f77b4;stroke:#1f77b4;" x="196.421089" xlink:href="#m9a3b7feb64" y="144.480958"/>
     <use style="fill:#1f77b4;stroke:#1f77b4;" x="196.162592" xlink:href="#m9a3b7feb64" y="144.435476"/>
     <use style="fill:#1f77b4;stroke:#1f77b4;" x="195.904368" xlink:href="#m9a3b7feb64" y="144.384833"/>
     <use style="fill:#1f77b4;stroke:#1f77b4;" x="195.645605" xlink:href="#m9a3b7feb64" y="144.332212"/>
     <use style="fill:#1f77b4;stroke:#1f77b4;" x="195.3893" xlink:href="#m9a3b7feb64" y="144.280742"/>
     <use style="fill:#1f77b4;stroke:#1f77b4;" x="195.138367" xlink:href="#m9a3b7feb64" y="144.232131"/>
     <use style="fill:#1f77b4;stroke:#1f77b4;" x="194.889708" xlink:href="#m9a3b7feb64" y="144.189675"/>
     <use style="fill:#1f77b4;stroke:#1f77b4;" x="194.640832" xlink:href="#m9a3b7feb64" y="144.14883"/>
     <use style="fill:#1f77b4;stroke:#1f77b4;" x="194.615816" xlink:href="#m9a3b7feb64" y="144.144788"/>
     <use style="fill:#1f77b4;stroke:#1f77b4;" x="194.590976" xlink:href="#m9a3b7feb64" y="144.140924"/>
     <use style="fill:#1f77b4;stroke:#1f77b4;" x="194.565902" xlink:href="#m9a3b7feb64" y="144.137009"/>
     <use style="fill:#1f77b4;stroke:#1f77b4;" x="194.540689" xlink:href="#m9a3b7feb64" y="144.133315"/>
     <use style="fill:#1f77b4;stroke:#1f77b4;" x="194.515786" xlink:href="#m9a3b7feb64" y="144.12988"/>
     <use style="fill:#1f77b4;stroke:#1f77b4;" x="194.491422" xlink:href="#m9a3b7feb64" y="144.126577"/>
     <use style="fill:#1f77b4;stroke:#1f77b4;" x="194.467281" xlink:href="#m9a3b7feb64" y="144.123017"/>
     <use style="fill:#1f77b4;stroke:#1f77b4;" x="194.443" xlink:href="#m9a3b7feb64" y="144.119426"/>
     <use style="fill:#1f77b4;stroke:#1f77b4;" x="194.41851" xlink:href="#m9a3b7feb64" y="144.115901"/>
     <use style="fill:#1f77b4;stroke:#1f77b4;" x="194.39393" xlink:href="#m9a3b7feb64" y="144.112456"/>
     <use style="fill:#1f77b4;stroke:#1f77b4;" x="194.369281" xlink:href="#m9a3b7feb64" y="144.109117"/>
     <use style="fill:#1f77b4;stroke:#1f77b4;" x="194.344941" xlink:href="#m9a3b7feb64" y="144.10585"/>
     <use style="fill:#1f77b4;stroke:#1f77b4;" x="194.320759" xlink:href="#m9a3b7feb64" y="144.102307"/>
     <use style="fill:#1f77b4;stroke:#1f77b4;" x="194.296515" xlink:href="#m9a3b7feb64" y="144.098648"/>
     <use style="fill:#1f77b4;stroke:#1f77b4;" x="194.272222" xlink:href="#m9a3b7feb64" y="144.095123"/>
     <use style="fill:#1f77b4;stroke:#1f77b4;" x="194.247513" xlink:href="#m9a3b7feb64" y="144.091456"/>
     <use style="fill:#1f77b4;stroke:#1f77b4;" x="194.222789" xlink:href="#m9a3b7feb64" y="144.08759"/>
     <use style="fill:#1f77b4;stroke:#1f77b4;" x="194.198012" xlink:href="#m9a3b7feb64" y="144.083671"/>
     <use style="fill:#1f77b4;stroke:#1f77b4;" x="194.173202" xlink:href="#m9a3b7feb64" y="144.079877"/>
     <use style="fill:#1f77b4;stroke:#1f77b4;" x="194.148915" xlink:href="#m9a3b7feb64" y="144.075928"/>
     <use style="fill:#1f77b4;stroke:#1f77b4;" x="194.124373" xlink:href="#m9a3b7feb64" y="144.071794"/>
     <use style="fill:#1f77b4;stroke:#1f77b4;" x="194.099531" xlink:href="#m9a3b7feb64" y="144.067522"/>
     <use style="fill:#1f77b4;stroke:#1f77b4;" x="194.074679" xlink:href="#m9a3b7feb64" y="144.063192"/>
     <use style="fill:#1f77b4;stroke:#1f77b4;" x="194.049517" xlink:href="#m9a3b7feb64" y="144.059127"/>
    </g>
   </g>
   <g id="patch_3">
    <path d="M 35.304688 277.111219 
L 35.304688 10.999219 
" style="fill:none;stroke:#000000;stroke-linecap:square;stroke-linejoin:miter;stroke-width:0.8;"/>
   </g>
   <g id="patch_4">
    <path d="M 392.424688 277.111219 
L 392.424688 10.999219 
" style="fill:none;stroke:#000000;stroke-linecap:square;stroke-linejoin:miter;stroke-width:0.8;"/>
   </g>
   <g id="patch_5">
    <path d="M 35.304687 277.111219 
L 392.424688 277.111219 
" style="fill:none;stroke:#000000;stroke-linecap:square;stroke-linejoin:miter;stroke-width:0.8;"/>
   </g>
   <g id="patch_6">
    <path d="M 35.304687 10.999219 
L 392.424688 10.999219 
" style="fill:none;stroke:#000000;stroke-linecap:square;stroke-linejoin:miter;stroke-width:0.8;"/>
   </g>
   <g id="text_20">
    <g clip-path="url(#p30892fae9b)">
     <!-- 1.500 -->
     <g style="fill:#453781;" transform="translate(229.092708 106.660256)rotate(-0.288923)scale(0.06 -0.06)">
      <defs>
       <path d="M 10.6875 12.40625 
L 21 12.40625 
L 21 0 
L 10.6875 0 
z
" id="DejaVuSans-46"/>
      </defs>
      <use xlink:href="#DejaVuSans-49"/>
      <use x="63.623047" xlink:href="#DejaVuSans-46"/>
      <use x="95.410156" xlink:href="#DejaVuSans-53"/>
      <use x="159.033203" xlink:href="#DejaVuSans-48"/>
      <use x="222.65625" xlink:href="#DejaVuSans-48"/>
     </g>
    </g>
   </g>
   <g id="text_21">
    <g clip-path="url(#p30892fae9b)">
     <!-- 2.000 -->
     <g style="fill:#404688;" transform="translate(133.557368 124.072045)rotate(-38.358163)scale(0.06 -0.06)">
      <use xlink:href="#DejaVuSans-50"/>
      <use x="63.623047" xlink:href="#DejaVuSans-46"/>
      <use x="95.410156" xlink:href="#DejaVuSans-48"/>
      <use x="159.033203" xlink:href="#DejaVuSans-48"/>
      <use x="222.65625" xlink:href="#DejaVuSans-48"/>
     </g>
    </g>
   </g>
   <g id="text_22">
    <g clip-path="url(#p30892fae9b)">
     <!-- 2.500 -->
     <g style="fill:#39558c;" transform="translate(81.287793 116.878169)rotate(-60.795836)scale(0.06 -0.06)">
      <use xlink:href="#DejaVuSans-50"/>
      <use x="63.623047" xlink:href="#DejaVuSans-46"/>
      <use x="95.410156" xlink:href="#DejaVuSans-53"/>
      <use x="159.033203" xlink:href="#DejaVuSans-48"/>
      <use x="222.65625" xlink:href="#DejaVuSans-48"/>
     </g>
    </g>
   </g>
   <g id="text_23">
    <g clip-path="url(#p30892fae9b)">
     <!-- 3.000 -->
     <g style="fill:#33638d;" transform="translate(219.621872 151.539515)rotate(-34.43912)scale(0.06 -0.06)">
      <defs>
       <path d="M 40.578125 39.3125 
Q 47.65625 37.796875 51.625 33 
Q 55.609375 28.21875 55.609375 21.1875 
Q 55.609375 10.40625 48.1875 4.484375 
Q 40.765625 -1.421875 27.09375 -1.421875 
Q 22.515625 -1.421875 17.65625 -0.515625 
Q 12.796875 0.390625 7.625 2.203125 
L 7.625 11.71875 
Q 11.71875 9.328125 16.59375 8.109375 
Q 21.484375 6.890625 26.8125 6.890625 
Q 36.078125 6.890625 40.9375 10.546875 
Q 45.796875 14.203125 45.796875 21.1875 
Q 45.796875 27.640625 41.28125 31.265625 
Q 36.765625 34.90625 28.71875 34.90625 
L 20.21875 34.90625 
L 20.21875 43.015625 
L 29.109375 43.015625 
Q 36.375 43.015625 40.234375 45.921875 
Q 44.09375 48.828125 44.09375 54.296875 
Q 44.09375 59.90625 40.109375 62.90625 
Q 36.140625 65.921875 28.71875 65.921875 
Q 24.65625 65.921875 20.015625 65.03125 
Q 15.375 64.15625 9.8125 62.3125 
L 9.8125 71.09375 
Q 15.4375 72.65625 20.34375 73.4375 
Q 25.25 74.21875 29.59375 74.21875 
Q 40.828125 74.21875 47.359375 69.109375 
Q 53.90625 64.015625 53.90625 55.328125 
Q 53.90625 49.265625 50.4375 45.09375 
Q 46.96875 40.921875 40.578125 39.3125 
z
" id="DejaVuSans-51"/>
      </defs>
      <use xlink:href="#DejaVuSans-51"/>
      <use x="63.623047" xlink:href="#DejaVuSans-46"/>
      <use x="95.410156" xlink:href="#DejaVuSans-48"/>
      <use x="159.033203" xlink:href="#DejaVuSans-48"/>
      <use x="222.65625" xlink:href="#DejaVuSans-48"/>
     </g>
    </g>
   </g>
   <g id="text_24">
    <g clip-path="url(#p30892fae9b)">
     <!-- 3.500 -->
     <g style="fill:#2d718e;" transform="translate(193.750905 166.956935)rotate(-25.249341)scale(0.06 -0.06)">
      <use xlink:href="#DejaVuSans-51"/>
      <use x="63.623047" xlink:href="#DejaVuSans-46"/>
      <use x="95.410156" xlink:href="#DejaVuSans-53"/>
      <use x="159.033203" xlink:href="#DejaVuSans-48"/>
      <use x="222.65625" xlink:href="#DejaVuSans-48"/>
     </g>
    </g>
   </g>
   <g id="text_25">
    <g clip-path="url(#p30892fae9b)">
     <!-- 4.000 -->
     <g style="fill:#287d8e;" transform="translate(288.522237 21.272456)rotate(-341.524566)scale(0.06 -0.06)">
      <defs>
       <path d="M 37.796875 64.3125 
L 12.890625 25.390625 
L 37.796875 25.390625 
z
M 35.203125 72.90625 
L 47.609375 72.90625 
L 47.609375 25.390625 
L 58.015625 25.390625 
L 58.015625 17.1875 
L 47.609375 17.1875 
L 47.609375 0 
L 37.796875 0 
L 37.796875 17.1875 
L 4.890625 17.1875 
L 4.890625 26.703125 
z
" id="DejaVuSans-52"/>
      </defs>
      <use xlink:href="#DejaVuSans-52"/>
      <use x="63.623047" xlink:href="#DejaVuSans-46"/>
      <use x="95.410156" xlink:href="#DejaVuSans-48"/>
      <use x="159.033203" xlink:href="#DejaVuSans-48"/>
      <use x="222.65625" xlink:href="#DejaVuSans-48"/>
     </g>
    </g>
   </g>
   <g id="text_26">
    <g clip-path="url(#p30892fae9b)">
     <!-- 4.500 -->
     <g style="fill:#238a8d;" transform="translate(171.144252 178.614844)rotate(-25.836325)scale(0.06 -0.06)">
      <use xlink:href="#DejaVuSans-52"/>
      <use x="63.623047" xlink:href="#DejaVuSans-46"/>
      <use x="95.410156" xlink:href="#DejaVuSans-53"/>
      <use x="159.033203" xlink:href="#DejaVuSans-48"/>
      <use x="222.65625" xlink:href="#DejaVuSans-48"/>
     </g>
    </g>
   </g>
   <g id="text_27">
    <g clip-path="url(#p30892fae9b)">
     <!-- 5.000 -->
     <g style="fill:#1f968b;" transform="translate(335.304137 64.096223)rotate(-80.170156)scale(0.06 -0.06)">
      <use xlink:href="#DejaVuSans-53"/>
      <use x="63.623047" xlink:href="#DejaVuSans-46"/>
      <use x="95.410156" xlink:href="#DejaVuSans-48"/>
      <use x="159.033203" xlink:href="#DejaVuSans-48"/>
      <use x="222.65625" xlink:href="#DejaVuSans-48"/>
     </g>
    </g>
   </g>
   <g id="text_28">
    <g clip-path="url(#p30892fae9b)">
     <!-- 5.500 -->
     <g style="fill:#20a386;" transform="translate(147.226147 193.292187)rotate(-24.613221)scale(0.06 -0.06)">
      <use xlink:href="#DejaVuSans-53"/>
      <use x="63.623047" xlink:href="#DejaVuSans-46"/>
      <use x="95.410156" xlink:href="#DejaVuSans-53"/>
      <use x="159.033203" xlink:href="#DejaVuSans-48"/>
      <use x="222.65625" xlink:href="#DejaVuSans-48"/>
     </g>
    </g>
   </g>
   <g id="text_29">
    <g clip-path="url(#p30892fae9b)">
     <!-- 6.000 -->
     <g style="fill:#29af7f;" transform="translate(308.860431 97.613218)rotate(-39.912557)scale(0.06 -0.06)">
      <defs>
       <path d="M 33.015625 40.375 
Q 26.375 40.375 22.484375 35.828125 
Q 18.609375 31.296875 18.609375 23.390625 
Q 18.609375 15.53125 22.484375 10.953125 
Q 26.375 6.390625 33.015625 6.390625 
Q 39.65625 6.390625 43.53125 10.953125 
Q 47.40625 15.53125 47.40625 23.390625 
Q 47.40625 31.296875 43.53125 35.828125 
Q 39.65625 40.375 33.015625 40.375 
z
M 52.59375 71.296875 
L 52.59375 62.3125 
Q 48.875 64.0625 45.09375 64.984375 
Q 41.3125 65.921875 37.59375 65.921875 
Q 27.828125 65.921875 22.671875 59.328125 
Q 17.53125 52.734375 16.796875 39.40625 
Q 19.671875 43.65625 24.015625 45.921875 
Q 28.375 48.1875 33.59375 48.1875 
Q 44.578125 48.1875 50.953125 41.515625 
Q 57.328125 34.859375 57.328125 23.390625 
Q 57.328125 12.15625 50.6875 5.359375 
Q 44.046875 -1.421875 33.015625 -1.421875 
Q 20.359375 -1.421875 13.671875 8.265625 
Q 6.984375 17.96875 6.984375 36.375 
Q 6.984375 53.65625 15.1875 63.9375 
Q 23.390625 74.21875 37.203125 74.21875 
Q 40.921875 74.21875 44.703125 73.484375 
Q 48.484375 72.75 52.59375 71.296875 
z
" id="DejaVuSans-54"/>
      </defs>
      <use xlink:href="#DejaVuSans-54"/>
      <use x="63.623047" xlink:href="#DejaVuSans-46"/>
      <use x="95.410156" xlink:href="#DejaVuSans-48"/>
      <use x="159.033203" xlink:href="#DejaVuSans-48"/>
      <use x="222.65625" xlink:href="#DejaVuSans-48"/>
     </g>
    </g>
   </g>
   <g id="text_30">
    <g clip-path="url(#p30892fae9b)">
     <!-- 6.500 -->
     <g style="fill:#3dbc74;" transform="translate(147.307591 194.09933)rotate(-25.521364)scale(0.06 -0.06)">
      <use xlink:href="#DejaVuSans-54"/>
      <use x="63.623047" xlink:href="#DejaVuSans-46"/>
      <use x="95.410156" xlink:href="#DejaVuSans-53"/>
      <use x="159.033203" xlink:href="#DejaVuSans-48"/>
      <use x="222.65625" xlink:href="#DejaVuSans-48"/>
     </g>
    </g>
   </g>
   <g id="text_31">
    <g clip-path="url(#p30892fae9b)">
     <!-- 7.000 -->
     <g style="fill:#56c667;" transform="translate(159.272836 187.737652)rotate(-26.191612)scale(0.06 -0.06)">
      <defs>
       <path d="M 8.203125 72.90625 
L 55.078125 72.90625 
L 55.078125 68.703125 
L 28.609375 0 
L 18.3125 0 
L 43.21875 64.59375 
L 8.203125 64.59375 
z
" id="DejaVuSans-55"/>
      </defs>
      <use xlink:href="#DejaVuSans-55"/>
      <use x="63.623047" xlink:href="#DejaVuSans-46"/>
      <use x="95.410156" xlink:href="#DejaVuSans-48"/>
      <use x="159.033203" xlink:href="#DejaVuSans-48"/>
      <use x="222.65625" xlink:href="#DejaVuSans-48"/>
     </g>
    </g>
   </g>
   <g id="text_32">
    <g clip-path="url(#p30892fae9b)">
     <!-- 7.500 -->
     <g style="fill:#75d054;" transform="translate(150.353876 193.833467)rotate(-27.433084)scale(0.06 -0.06)">
      <use xlink:href="#DejaVuSans-55"/>
      <use x="63.623047" xlink:href="#DejaVuSans-46"/>
      <use x="95.410156" xlink:href="#DejaVuSans-53"/>
      <use x="159.033203" xlink:href="#DejaVuSans-48"/>
      <use x="222.65625" xlink:href="#DejaVuSans-48"/>
     </g>
    </g>
   </g>
   <g id="text_33">
    <g clip-path="url(#p30892fae9b)">
     <!-- 8.000 -->
     <g style="fill:#95d840;" transform="translate(151.124837 193.867102)rotate(-27.714561)scale(0.06 -0.06)">
      <defs>
       <path d="M 31.78125 34.625 
Q 24.75 34.625 20.71875 30.859375 
Q 16.703125 27.09375 16.703125 20.515625 
Q 16.703125 13.921875 20.71875 10.15625 
Q 24.75 6.390625 31.78125 6.390625 
Q 38.8125 6.390625 42.859375 10.171875 
Q 46.921875 13.96875 46.921875 20.515625 
Q 46.921875 27.09375 42.890625 30.859375 
Q 38.875 34.625 31.78125 34.625 
z
M 21.921875 38.8125 
Q 15.578125 40.375 12.03125 44.71875 
Q 8.5 49.078125 8.5 55.328125 
Q 8.5 64.0625 14.71875 69.140625 
Q 20.953125 74.21875 31.78125 74.21875 
Q 42.671875 74.21875 48.875 69.140625 
Q 55.078125 64.0625 55.078125 55.328125 
Q 55.078125 49.078125 51.53125 44.71875 
Q 48 40.375 41.703125 38.8125 
Q 48.828125 37.15625 52.796875 32.3125 
Q 56.78125 27.484375 56.78125 20.515625 
Q 56.78125 9.90625 50.3125 4.234375 
Q 43.84375 -1.421875 31.78125 -1.421875 
Q 19.734375 -1.421875 13.25 4.234375 
Q 6.78125 9.90625 6.78125 20.515625 
Q 6.78125 27.484375 10.78125 32.3125 
Q 14.796875 37.15625 21.921875 38.8125 
z
M 18.3125 54.390625 
Q 18.3125 48.734375 21.84375 45.5625 
Q 25.390625 42.390625 31.78125 42.390625 
Q 38.140625 42.390625 41.71875 45.5625 
Q 45.3125 48.734375 45.3125 54.390625 
Q 45.3125 60.0625 41.71875 63.234375 
Q 38.140625 66.40625 31.78125 66.40625 
Q 25.390625 66.40625 21.84375 63.234375 
Q 18.3125 60.0625 18.3125 54.390625 
z
" id="DejaVuSans-56"/>
      </defs>
      <use xlink:href="#DejaVuSans-56"/>
      <use x="63.623047" xlink:href="#DejaVuSans-46"/>
      <use x="95.410156" xlink:href="#DejaVuSans-48"/>
      <use x="159.033203" xlink:href="#DejaVuSans-48"/>
      <use x="222.65625" xlink:href="#DejaVuSans-48"/>
     </g>
    </g>
   </g>
   <g id="text_34">
    <g clip-path="url(#p30892fae9b)">
     <!-- 8.500 -->
     <g style="fill:#bade28;" transform="translate(151.869298 193.867403)rotate(-27.717084)scale(0.06 -0.06)">
      <use xlink:href="#DejaVuSans-56"/>
      <use x="63.623047" xlink:href="#DejaVuSans-46"/>
      <use x="95.410156" xlink:href="#DejaVuSans-53"/>
      <use x="159.033203" xlink:href="#DejaVuSans-48"/>
      <use x="222.65625" xlink:href="#DejaVuSans-48"/>
     </g>
    </g>
   </g>
   <g id="text_35">
    <g clip-path="url(#p30892fae9b)">
     <!-- 9.000 -->
     <g style="fill:#dde318;" transform="translate(152.558738 193.798136)rotate(-27.138584)scale(0.06 -0.06)">
      <defs>
       <path d="M 10.984375 1.515625 
L 10.984375 10.5 
Q 14.703125 8.734375 18.5 7.8125 
Q 22.3125 6.890625 25.984375 6.890625 
Q 35.75 6.890625 40.890625 13.453125 
Q 46.046875 20.015625 46.78125 33.40625 
Q 43.953125 29.203125 39.59375 26.953125 
Q 35.25 24.703125 29.984375 24.703125 
Q 19.046875 24.703125 12.671875 31.3125 
Q 6.296875 37.9375 6.296875 49.421875 
Q 6.296875 60.640625 12.9375 67.421875 
Q 19.578125 74.21875 30.609375 74.21875 
Q 43.265625 74.21875 49.921875 64.515625 
Q 56.59375 54.828125 56.59375 36.375 
Q 56.59375 19.140625 48.40625 8.859375 
Q 40.234375 -1.421875 26.421875 -1.421875 
Q 22.703125 -1.421875 18.890625 -0.6875 
Q 15.09375 0.046875 10.984375 1.515625 
z
M 30.609375 32.421875 
Q 37.25 32.421875 41.125 36.953125 
Q 45.015625 41.5 45.015625 49.421875 
Q 45.015625 57.28125 41.125 61.84375 
Q 37.25 66.40625 30.609375 66.40625 
Q 23.96875 66.40625 20.09375 61.84375 
Q 16.21875 57.28125 16.21875 49.421875 
Q 16.21875 41.5 20.09375 36.953125 
Q 23.96875 32.421875 30.609375 32.421875 
z
" id="DejaVuSans-57"/>
      </defs>
      <use xlink:href="#DejaVuSans-57"/>
      <use x="63.623047" xlink:href="#DejaVuSans-46"/>
      <use x="95.410156" xlink:href="#DejaVuSans-48"/>
      <use x="159.033203" xlink:href="#DejaVuSans-48"/>
      <use x="222.65625" xlink:href="#DejaVuSans-48"/>
     </g>
    </g>
   </g>
   <g id="text_36">
    <g clip-path="url(#p30892fae9b)">
     <!-- 9.500 -->
     <g style="fill:#fde725;" transform="translate(153.224862 193.696839)rotate(-26.300702)scale(0.06 -0.06)">
      <use xlink:href="#DejaVuSans-57"/>
      <use x="63.623047" xlink:href="#DejaVuSans-46"/>
      <use x="95.410156" xlink:href="#DejaVuSans-53"/>
      <use x="159.033203" xlink:href="#DejaVuSans-48"/>
      <use x="222.65625" xlink:href="#DejaVuSans-48"/>
     </g>
    </g>
   </g>
   <g id="text_37">
    <g clip-path="url(#p30892fae9b)">
     <!-- 10.000 -->
     <g style="fill:#440154;" transform="translate(301.833028 106.935791)rotate(-33.926692)scale(0.06 -0.06)">
      <use xlink:href="#DejaVuSans-49"/>
      <use x="63.623047" xlink:href="#DejaVuSans-48"/>
      <use x="127.246094" xlink:href="#DejaVuSans-46"/>
      <use x="159.033203" xlink:href="#DejaVuSans-48"/>
      <use x="222.65625" xlink:href="#DejaVuSans-48"/>
      <use x="286.279297" xlink:href="#DejaVuSans-48"/>
     </g>
    </g>
   </g>
   <g id="text_38">
    <g clip-path="url(#p30892fae9b)">
     <!-- 100.000 -->
     <g style="fill:#440154;" transform="translate(59.594386 237.18863)rotate(-16.528386)scale(0.06 -0.06)">
      <use xlink:href="#DejaVuSans-49"/>
      <use x="63.623047" xlink:href="#DejaVuSans-48"/>
      <use x="127.246094" xlink:href="#DejaVuSans-48"/>
      <use x="190.869141" xlink:href="#DejaVuSans-46"/>
      <use x="222.65625" xlink:href="#DejaVuSans-48"/>
      <use x="286.279297" xlink:href="#DejaVuSans-48"/>
      <use x="349.902344" xlink:href="#DejaVuSans-48"/>
     </g>
    </g>
   </g>
   <g id="text_39">
    <g clip-path="url(#p30892fae9b)">
     <!-- 1000.000 -->
     <g style="fill:#440154;" transform="translate(262.349117 161.247691)rotate(-33.422423)scale(0.06 -0.06)">
      <use xlink:href="#DejaVuSans-49"/>
      <use x="63.623047" xlink:href="#DejaVuSans-48"/>
      <use x="127.246094" xlink:href="#DejaVuSans-48"/>
      <use x="190.869141" xlink:href="#DejaVuSans-48"/>
      <use x="254.492188" xlink:href="#DejaVuSans-46"/>
      <use x="286.279297" xlink:href="#DejaVuSans-48"/>
      <use x="349.902344" xlink:href="#DejaVuSans-48"/>
      <use x="413.525391" xlink:href="#DejaVuSans-48"/>
     </g>
    </g>
   </g>
   <g id="text_40">
    <g clip-path="url(#p30892fae9b)">
     <!-- 10000.000 -->
     <g style="fill:#440154;" transform="translate(236.990263 193.826404)rotate(-33.656461)scale(0.06 -0.06)">
      <use xlink:href="#DejaVuSans-49"/>
      <use x="63.623047" xlink:href="#DejaVuSans-48"/>
      <use x="127.246094" xlink:href="#DejaVuSans-48"/>
      <use x="190.869141" xlink:href="#DejaVuSans-48"/>
      <use x="254.492188" xlink:href="#DejaVuSans-48"/>
      <use x="318.115234" xlink:href="#DejaVuSans-46"/>
      <use x="349.902344" xlink:href="#DejaVuSans-48"/>
      <use x="413.525391" xlink:href="#DejaVuSans-48"/>
      <use x="477.148438" xlink:href="#DejaVuSans-48"/>
     </g>
    </g>
   </g>
   <g id="text_41">
    <g clip-path="url(#p30892fae9b)">
     <!-- 100000.000 -->
     <g style="fill:#440154;" transform="translate(221.794016 208.846731)rotate(-24.080498)scale(0.06 -0.06)">
      <use xlink:href="#DejaVuSans-49"/>
      <use x="63.623047" xlink:href="#DejaVuSans-48"/>
      <use x="127.246094" xlink:href="#DejaVuSans-48"/>
      <use x="190.869141" xlink:href="#DejaVuSans-48"/>
      <use x="254.492188" xlink:href="#DejaVuSans-48"/>
      <use x="318.115234" xlink:href="#DejaVuSans-48"/>
      <use x="381.738281" xlink:href="#DejaVuSans-46"/>
      <use x="413.525391" xlink:href="#DejaVuSans-48"/>
      <use x="477.148438" xlink:href="#DejaVuSans-48"/>
      <use x="540.771484" xlink:href="#DejaVuSans-48"/>
     </g>
    </g>
   </g>
   <g id="text_42">
    <g clip-path="url(#p30892fae9b)">
     <!-- 1000000.000 -->
     <g style="fill:#450457;" transform="translate(234.44836 215.417596)rotate(-22.726585)scale(0.06 -0.06)">
      <use xlink:href="#DejaVuSans-49"/>
      <use x="63.623047" xlink:href="#DejaVuSans-48"/>
      <use x="127.246094" xlink:href="#DejaVuSans-48"/>
      <use x="190.869141" xlink:href="#DejaVuSans-48"/>
      <use x="254.492188" xlink:href="#DejaVuSans-48"/>
      <use x="318.115234" xlink:href="#DejaVuSans-48"/>
      <use x="381.738281" xlink:href="#DejaVuSans-48"/>
      <use x="445.361328" xlink:href="#DejaVuSans-46"/>
      <use x="477.148438" xlink:href="#DejaVuSans-48"/>
      <use x="540.771484" xlink:href="#DejaVuSans-48"/>
      <use x="604.394531" xlink:href="#DejaVuSans-48"/>
     </g>
    </g>
   </g>
   <g id="text_43">
    <g clip-path="url(#p30892fae9b)">
     <!-- 10000000.000 -->
     <g style="fill:#482475;" transform="translate(242.104469 224.370732)rotate(-24.013254)scale(0.06 -0.06)">
      <use xlink:href="#DejaVuSans-49"/>
      <use x="63.623047" xlink:href="#DejaVuSans-48"/>
      <use x="127.246094" xlink:href="#DejaVuSans-48"/>
      <use x="190.869141" xlink:href="#DejaVuSans-48"/>
      <use x="254.492188" xlink:href="#DejaVuSans-48"/>
      <use x="318.115234" xlink:href="#DejaVuSans-48"/>
      <use x="381.738281" xlink:href="#DejaVuSans-48"/>
      <use x="445.361328" xlink:href="#DejaVuSans-48"/>
      <use x="508.984375" xlink:href="#DejaVuSans-46"/>
      <use x="540.771484" xlink:href="#DejaVuSans-48"/>
      <use x="604.394531" xlink:href="#DejaVuSans-48"/>
      <use x="668.017578" xlink:href="#DejaVuSans-48"/>
     </g>
    </g>
   </g>
   <g id="text_44">
    <g clip-path="url(#p30892fae9b)">
     <!-- 100000000.000 -->
     <g style="fill:#fde725;" transform="translate(252.429058 231.282069)rotate(-24.840132)scale(0.06 -0.06)">
      <use xlink:href="#DejaVuSans-49"/>
      <use x="63.623047" xlink:href="#DejaVuSans-48"/>
      <use x="127.246094" xlink:href="#DejaVuSans-48"/>
      <use x="190.869141" xlink:href="#DejaVuSans-48"/>
      <use x="254.492188" xlink:href="#DejaVuSans-48"/>
      <use x="318.115234" xlink:href="#DejaVuSans-48"/>
      <use x="381.738281" xlink:href="#DejaVuSans-48"/>
      <use x="445.361328" xlink:href="#DejaVuSans-48"/>
      <use x="508.984375" xlink:href="#DejaVuSans-48"/>
      <use x="572.607422" xlink:href="#DejaVuSans-46"/>
      <use x="604.394531" xlink:href="#DejaVuSans-48"/>
      <use x="668.017578" xlink:href="#DejaVuSans-48"/>
      <use x="731.640625" xlink:href="#DejaVuSans-48"/>
     </g>
    </g>
   </g>
  </g>
 </g>
 <defs>
  <clipPath id="p30892fae9b">
   <rect height="266.112" width="357.12" x="35.304688" y="10.999219"/>
  </clipPath>
 </defs>
</svg>
