<?xml version="1.0" encoding="utf-8" standalone="no"?>
<!DOCTYPE svg PUBLIC "-//W3C//DTD SVG 1.1//EN"
  "http://www.w3.org/Graphics/SVG/1.1/DTD/svg11.dtd">
<!-- Created with matplotlib (https://matplotlib.org/) -->
<svg height="610.001144pt" version="1.1" viewBox="0 0 1185.590987 610.001144" width="1185.590987pt" xmlns="http://www.w3.org/2000/svg" xmlns:xlink="http://www.w3.org/1999/xlink">
 <metadata>
  <rdf:RDF xmlns:cc="http://creativecommons.org/ns#" xmlns:dc="http://purl.org/dc/elements/1.1/" xmlns:rdf="http://www.w3.org/1999/02/22-rdf-syntax-ns#">
   <cc:Work>
    <dc:type rdf:resource="http://purl.org/dc/dcmitype/StillImage"/>
    <dc:date>2021-09-22T23:51:57.399019</dc:date>
    <dc:format>image/svg+xml</dc:format>
    <dc:creator>
     <cc:Agent>
      <dc:title>Matplotlib v3.3.1, https://matplotlib.org/</dc:title>
     </cc:Agent>
    </dc:creator>
   </cc:Work>
  </rdf:RDF>
 </metadata>
 <defs>
  <style type="text/css">*{stroke-linecap:butt;stroke-linejoin:round;}</style>
 </defs>
 <g id="figure_1">
  <g id="patch_1">
   <path d="M 0 610.001144 
L 1185.590987 610.001144 
L 1185.590987 0 
L 0 0 
z
" style="fill:#ffffff;"/>
  </g>
  <g id="axes_1">
   <g id="patch_2">
    <path d="M 56.028488 565.399219 
L 1172.028487 565.399219 
L 1172.028487 10.999219 
L 56.028488 10.999219 
z
" style="fill:#ffffff;"/>
   </g>
   <g id="matplotlib.axis_1">
    <g id="xtick_1">
     <g id="line2d_1">
      <defs>
       <path d="M 0 0 
L 0 3.5 
" id="mea468a6848" style="stroke:#000000;stroke-width:0.8;"/>
      </defs>
      <g>
       <use style="stroke:#000000;stroke-width:0.8;" x="56.028488" xlink:href="#mea468a6848" y="565.399219"/>
      </g>
     </g>
     <g id="text_1">
      <!-- −20 -->
      <g transform="translate(45.476144 579.997656)scale(0.1 -0.1)">
       <defs>
        <path d="M 10.59375 35.5 
L 73.1875 35.5 
L 73.1875 27.203125 
L 10.59375 27.203125 
z
" id="DejaVuSans-8722"/>
        <path d="M 19.1875 8.296875 
L 53.609375 8.296875 
L 53.609375 0 
L 7.328125 0 
L 7.328125 8.296875 
Q 12.9375 14.109375 22.625 23.890625 
Q 32.328125 33.6875 34.8125 36.53125 
Q 39.546875 41.84375 41.421875 45.53125 
Q 43.3125 49.21875 43.3125 52.78125 
Q 43.3125 58.59375 39.234375 62.25 
Q 35.15625 65.921875 28.609375 65.921875 
Q 23.96875 65.921875 18.8125 64.3125 
Q 13.671875 62.703125 7.8125 59.421875 
L 7.8125 69.390625 
Q 13.765625 71.78125 18.9375 73 
Q 24.125 74.21875 28.421875 74.21875 
Q 39.75 74.21875 46.484375 68.546875 
Q 53.21875 62.890625 53.21875 53.421875 
Q 53.21875 48.921875 51.53125 44.890625 
Q 49.859375 40.875 45.40625 35.40625 
Q 44.1875 33.984375 37.640625 27.21875 
Q 31.109375 20.453125 19.1875 8.296875 
z
" id="DejaVuSans-50"/>
        <path d="M 31.78125 66.40625 
Q 24.171875 66.40625 20.328125 58.90625 
Q 16.5 51.421875 16.5 36.375 
Q 16.5 21.390625 20.328125 13.890625 
Q 24.171875 6.390625 31.78125 6.390625 
Q 39.453125 6.390625 43.28125 13.890625 
Q 47.125 21.390625 47.125 36.375 
Q 47.125 51.421875 43.28125 58.90625 
Q 39.453125 66.40625 31.78125 66.40625 
z
M 31.78125 74.21875 
Q 44.046875 74.21875 50.515625 64.515625 
Q 56.984375 54.828125 56.984375 36.375 
Q 56.984375 17.96875 50.515625 8.265625 
Q 44.046875 -1.421875 31.78125 -1.421875 
Q 19.53125 -1.421875 13.0625 8.265625 
Q 6.59375 17.96875 6.59375 36.375 
Q 6.59375 54.828125 13.0625 64.515625 
Q 19.53125 74.21875 31.78125 74.21875 
z
" id="DejaVuSans-48"/>
       </defs>
       <use xlink:href="#DejaVuSans-8722"/>
       <use x="83.789062" xlink:href="#DejaVuSans-50"/>
       <use x="147.412109" xlink:href="#DejaVuSans-48"/>
      </g>
     </g>
    </g>
    <g id="xtick_2">
     <g id="line2d_2">
      <g>
       <use style="stroke:#000000;stroke-width:0.8;" x="180.028488" xlink:href="#mea468a6848" y="565.399219"/>
      </g>
     </g>
     <g id="text_2">
      <!-- −15 -->
      <g transform="translate(169.476144 579.997656)scale(0.1 -0.1)">
       <defs>
        <path d="M 12.40625 8.296875 
L 28.515625 8.296875 
L 28.515625 63.921875 
L 10.984375 60.40625 
L 10.984375 69.390625 
L 28.421875 72.90625 
L 38.28125 72.90625 
L 38.28125 8.296875 
L 54.390625 8.296875 
L 54.390625 0 
L 12.40625 0 
z
" id="DejaVuSans-49"/>
        <path d="M 10.796875 72.90625 
L 49.515625 72.90625 
L 49.515625 64.59375 
L 19.828125 64.59375 
L 19.828125 46.734375 
Q 21.96875 47.46875 24.109375 47.828125 
Q 26.265625 48.1875 28.421875 48.1875 
Q 40.625 48.1875 47.75 41.5 
Q 54.890625 34.8125 54.890625 23.390625 
Q 54.890625 11.625 47.5625 5.09375 
Q 40.234375 -1.421875 26.90625 -1.421875 
Q 22.3125 -1.421875 17.546875 -0.640625 
Q 12.796875 0.140625 7.71875 1.703125 
L 7.71875 11.625 
Q 12.109375 9.234375 16.796875 8.0625 
Q 21.484375 6.890625 26.703125 6.890625 
Q 35.15625 6.890625 40.078125 11.328125 
Q 45.015625 15.765625 45.015625 23.390625 
Q 45.015625 31 40.078125 35.4375 
Q 35.15625 39.890625 26.703125 39.890625 
Q 22.75 39.890625 18.8125 39.015625 
Q 14.890625 38.140625 10.796875 36.28125 
z
" id="DejaVuSans-53"/>
       </defs>
       <use xlink:href="#DejaVuSans-8722"/>
       <use x="83.789062" xlink:href="#DejaVuSans-49"/>
       <use x="147.412109" xlink:href="#DejaVuSans-53"/>
      </g>
     </g>
    </g>
    <g id="xtick_3">
     <g id="line2d_3">
      <g>
       <use style="stroke:#000000;stroke-width:0.8;" x="304.028488" xlink:href="#mea468a6848" y="565.399219"/>
      </g>
     </g>
     <g id="text_3">
      <!-- −10 -->
      <g transform="translate(293.476144 579.997656)scale(0.1 -0.1)">
       <use xlink:href="#DejaVuSans-8722"/>
       <use x="83.789062" xlink:href="#DejaVuSans-49"/>
       <use x="147.412109" xlink:href="#DejaVuSans-48"/>
      </g>
     </g>
    </g>
    <g id="xtick_4">
     <g id="line2d_4">
      <g>
       <use style="stroke:#000000;stroke-width:0.8;" x="428.028488" xlink:href="#mea468a6848" y="565.399219"/>
      </g>
     </g>
     <g id="text_4">
      <!-- −5 -->
      <g transform="translate(420.657394 579.997656)scale(0.1 -0.1)">
       <use xlink:href="#DejaVuSans-8722"/>
       <use x="83.789062" xlink:href="#DejaVuSans-53"/>
      </g>
     </g>
    </g>
    <g id="xtick_5">
     <g id="line2d_5">
      <g>
       <use style="stroke:#000000;stroke-width:0.8;" x="552.028488" xlink:href="#mea468a6848" y="565.399219"/>
      </g>
     </g>
     <g id="text_5">
      <!-- 0 -->
      <g transform="translate(548.847238 579.997656)scale(0.1 -0.1)">
       <use xlink:href="#DejaVuSans-48"/>
      </g>
     </g>
    </g>
    <g id="xtick_6">
     <g id="line2d_6">
      <g>
       <use style="stroke:#000000;stroke-width:0.8;" x="676.028488" xlink:href="#mea468a6848" y="565.399219"/>
      </g>
     </g>
     <g id="text_6">
      <!-- 5 -->
      <g transform="translate(672.847238 579.997656)scale(0.1 -0.1)">
       <use xlink:href="#DejaVuSans-53"/>
      </g>
     </g>
    </g>
    <g id="xtick_7">
     <g id="line2d_7">
      <g>
       <use style="stroke:#000000;stroke-width:0.8;" x="800.028488" xlink:href="#mea468a6848" y="565.399219"/>
      </g>
     </g>
     <g id="text_7">
      <!-- 10 -->
      <g transform="translate(793.665988 579.997656)scale(0.1 -0.1)">
       <use xlink:href="#DejaVuSans-49"/>
       <use x="63.623047" xlink:href="#DejaVuSans-48"/>
      </g>
     </g>
    </g>
    <g id="xtick_8">
     <g id="line2d_8">
      <g>
       <use style="stroke:#000000;stroke-width:0.8;" x="924.028488" xlink:href="#mea468a6848" y="565.399219"/>
      </g>
     </g>
     <g id="text_8">
      <!-- 15 -->
      <g transform="translate(917.665988 579.997656)scale(0.1 -0.1)">
       <use xlink:href="#DejaVuSans-49"/>
       <use x="63.623047" xlink:href="#DejaVuSans-53"/>
      </g>
     </g>
    </g>
    <g id="xtick_9">
     <g id="line2d_9">
      <g>
       <use style="stroke:#000000;stroke-width:0.8;" x="1048.028488" xlink:href="#mea468a6848" y="565.399219"/>
      </g>
     </g>
     <g id="text_9">
      <!-- 20 -->
      <g transform="translate(1041.665988 579.997656)scale(0.1 -0.1)">
       <use xlink:href="#DejaVuSans-50"/>
       <use x="63.623047" xlink:href="#DejaVuSans-48"/>
      </g>
     </g>
    </g>
    <g id="xtick_10">
     <g id="line2d_10">
      <g>
       <use style="stroke:#000000;stroke-width:0.8;" x="1172.028488" xlink:href="#mea468a6848" y="565.399219"/>
      </g>
     </g>
     <g id="text_10">
      <!-- 25 -->
      <g transform="translate(1165.665988 579.997656)scale(0.1 -0.1)">
       <use xlink:href="#DejaVuSans-50"/>
       <use x="63.623047" xlink:href="#DejaVuSans-53"/>
      </g>
     </g>
    </g>
    <g id="text_11">
     <!-- 1st PC: 85.66 % -->
     <g transform="translate(545.308087 599.207444)scale(0.1728 -0.1728)">
      <defs>
       <path d="M 44.28125 53.078125 
L 44.28125 44.578125 
Q 40.484375 46.53125 36.375 47.5 
Q 32.28125 48.484375 27.875 48.484375 
Q 21.1875 48.484375 17.84375 46.4375 
Q 14.5 44.390625 14.5 40.28125 
Q 14.5 37.15625 16.890625 35.375 
Q 19.28125 33.59375 26.515625 31.984375 
L 29.59375 31.296875 
Q 39.15625 29.25 43.1875 25.515625 
Q 47.21875 21.78125 47.21875 15.09375 
Q 47.21875 7.46875 41.1875 3.015625 
Q 35.15625 -1.421875 24.609375 -1.421875 
Q 20.21875 -1.421875 15.453125 -0.5625 
Q 10.6875 0.296875 5.421875 2 
L 5.421875 11.28125 
Q 10.40625 8.6875 15.234375 7.390625 
Q 20.0625 6.109375 24.8125 6.109375 
Q 31.15625 6.109375 34.5625 8.28125 
Q 37.984375 10.453125 37.984375 14.40625 
Q 37.984375 18.0625 35.515625 20.015625 
Q 33.0625 21.96875 24.703125 23.78125 
L 21.578125 24.515625 
Q 13.234375 26.265625 9.515625 29.90625 
Q 5.8125 33.546875 5.8125 39.890625 
Q 5.8125 47.609375 11.28125 51.796875 
Q 16.75 56 26.8125 56 
Q 31.78125 56 36.171875 55.265625 
Q 40.578125 54.546875 44.28125 53.078125 
z
" id="DejaVuSans-115"/>
       <path d="M 18.3125 70.21875 
L 18.3125 54.6875 
L 36.8125 54.6875 
L 36.8125 47.703125 
L 18.3125 47.703125 
L 18.3125 18.015625 
Q 18.3125 11.328125 20.140625 9.421875 
Q 21.96875 7.515625 27.59375 7.515625 
L 36.8125 7.515625 
L 36.8125 0 
L 27.59375 0 
Q 17.1875 0 13.234375 3.875 
Q 9.28125 7.765625 9.28125 18.015625 
L 9.28125 47.703125 
L 2.6875 47.703125 
L 2.6875 54.6875 
L 9.28125 54.6875 
L 9.28125 70.21875 
z
" id="DejaVuSans-116"/>
       <path id="DejaVuSans-32"/>
       <path d="M 19.671875 64.796875 
L 19.671875 37.40625 
L 32.078125 37.40625 
Q 38.96875 37.40625 42.71875 40.96875 
Q 46.484375 44.53125 46.484375 51.125 
Q 46.484375 57.671875 42.71875 61.234375 
Q 38.96875 64.796875 32.078125 64.796875 
z
M 9.8125 72.90625 
L 32.078125 72.90625 
Q 44.34375 72.90625 50.609375 67.359375 
Q 56.890625 61.8125 56.890625 51.125 
Q 56.890625 40.328125 50.609375 34.8125 
Q 44.34375 29.296875 32.078125 29.296875 
L 19.671875 29.296875 
L 19.671875 0 
L 9.8125 0 
z
" id="DejaVuSans-80"/>
       <path d="M 64.40625 67.28125 
L 64.40625 56.890625 
Q 59.421875 61.53125 53.78125 63.8125 
Q 48.140625 66.109375 41.796875 66.109375 
Q 29.296875 66.109375 22.65625 58.46875 
Q 16.015625 50.828125 16.015625 36.375 
Q 16.015625 21.96875 22.65625 14.328125 
Q 29.296875 6.6875 41.796875 6.6875 
Q 48.140625 6.6875 53.78125 8.984375 
Q 59.421875 11.28125 64.40625 15.921875 
L 64.40625 5.609375 
Q 59.234375 2.09375 53.4375 0.328125 
Q 47.65625 -1.421875 41.21875 -1.421875 
Q 24.65625 -1.421875 15.125 8.703125 
Q 5.609375 18.84375 5.609375 36.375 
Q 5.609375 53.953125 15.125 64.078125 
Q 24.65625 74.21875 41.21875 74.21875 
Q 47.75 74.21875 53.53125 72.484375 
Q 59.328125 70.75 64.40625 67.28125 
z
" id="DejaVuSans-67"/>
       <path d="M 11.71875 12.40625 
L 22.015625 12.40625 
L 22.015625 0 
L 11.71875 0 
z
M 11.71875 51.703125 
L 22.015625 51.703125 
L 22.015625 39.3125 
L 11.71875 39.3125 
z
" id="DejaVuSans-58"/>
       <path d="M 31.78125 34.625 
Q 24.75 34.625 20.71875 30.859375 
Q 16.703125 27.09375 16.703125 20.515625 
Q 16.703125 13.921875 20.71875 10.15625 
Q 24.75 6.390625 31.78125 6.390625 
Q 38.8125 6.390625 42.859375 10.171875 
Q 46.921875 13.96875 46.921875 20.515625 
Q 46.921875 27.09375 42.890625 30.859375 
Q 38.875 34.625 31.78125 34.625 
z
M 21.921875 38.8125 
Q 15.578125 40.375 12.03125 44.71875 
Q 8.5 49.078125 8.5 55.328125 
Q 8.5 64.0625 14.71875 69.140625 
Q 20.953125 74.21875 31.78125 74.21875 
Q 42.671875 74.21875 48.875 69.140625 
Q 55.078125 64.0625 55.078125 55.328125 
Q 55.078125 49.078125 51.53125 44.71875 
Q 48 40.375 41.703125 38.8125 
Q 48.828125 37.15625 52.796875 32.3125 
Q 56.78125 27.484375 56.78125 20.515625 
Q 56.78125 9.90625 50.3125 4.234375 
Q 43.84375 -1.421875 31.78125 -1.421875 
Q 19.734375 -1.421875 13.25 4.234375 
Q 6.78125 9.90625 6.78125 20.515625 
Q 6.78125 27.484375 10.78125 32.3125 
Q 14.796875 37.15625 21.921875 38.8125 
z
M 18.3125 54.390625 
Q 18.3125 48.734375 21.84375 45.5625 
Q 25.390625 42.390625 31.78125 42.390625 
Q 38.140625 42.390625 41.71875 45.5625 
Q 45.3125 48.734375 45.3125 54.390625 
Q 45.3125 60.0625 41.71875 63.234375 
Q 38.140625 66.40625 31.78125 66.40625 
Q 25.390625 66.40625 21.84375 63.234375 
Q 18.3125 60.0625 18.3125 54.390625 
z
" id="DejaVuSans-56"/>
       <path d="M 10.6875 12.40625 
L 21 12.40625 
L 21 0 
L 10.6875 0 
z
" id="DejaVuSans-46"/>
       <path d="M 33.015625 40.375 
Q 26.375 40.375 22.484375 35.828125 
Q 18.609375 31.296875 18.609375 23.390625 
Q 18.609375 15.53125 22.484375 10.953125 
Q 26.375 6.390625 33.015625 6.390625 
Q 39.65625 6.390625 43.53125 10.953125 
Q 47.40625 15.53125 47.40625 23.390625 
Q 47.40625 31.296875 43.53125 35.828125 
Q 39.65625 40.375 33.015625 40.375 
z
M 52.59375 71.296875 
L 52.59375 62.3125 
Q 48.875 64.0625 45.09375 64.984375 
Q 41.3125 65.921875 37.59375 65.921875 
Q 27.828125 65.921875 22.671875 59.328125 
Q 17.53125 52.734375 16.796875 39.40625 
Q 19.671875 43.65625 24.015625 45.921875 
Q 28.375 48.1875 33.59375 48.1875 
Q 44.578125 48.1875 50.953125 41.515625 
Q 57.328125 34.859375 57.328125 23.390625 
Q 57.328125 12.15625 50.6875 5.359375 
Q 44.046875 -1.421875 33.015625 -1.421875 
Q 20.359375 -1.421875 13.671875 8.265625 
Q 6.984375 17.96875 6.984375 36.375 
Q 6.984375 53.65625 15.1875 63.9375 
Q 23.390625 74.21875 37.203125 74.21875 
Q 40.921875 74.21875 44.703125 73.484375 
Q 48.484375 72.75 52.59375 71.296875 
z
" id="DejaVuSans-54"/>
       <path d="M 72.703125 32.078125 
Q 68.453125 32.078125 66.03125 28.46875 
Q 63.625 24.859375 63.625 18.40625 
Q 63.625 12.0625 66.03125 8.421875 
Q 68.453125 4.78125 72.703125 4.78125 
Q 76.859375 4.78125 79.265625 8.421875 
Q 81.6875 12.0625 81.6875 18.40625 
Q 81.6875 24.8125 79.265625 28.4375 
Q 76.859375 32.078125 72.703125 32.078125 
z
M 72.703125 38.28125 
Q 80.421875 38.28125 84.953125 32.90625 
Q 89.5 27.546875 89.5 18.40625 
Q 89.5 9.28125 84.9375 3.921875 
Q 80.375 -1.421875 72.703125 -1.421875 
Q 64.890625 -1.421875 60.34375 3.921875 
Q 55.8125 9.28125 55.8125 18.40625 
Q 55.8125 27.59375 60.375 32.9375 
Q 64.9375 38.28125 72.703125 38.28125 
z
M 22.3125 68.015625 
Q 18.109375 68.015625 15.6875 64.375 
Q 13.28125 60.75 13.28125 54.390625 
Q 13.28125 47.953125 15.671875 44.328125 
Q 18.0625 40.71875 22.3125 40.71875 
Q 26.5625 40.71875 28.96875 44.328125 
Q 31.390625 47.953125 31.390625 54.390625 
Q 31.390625 60.6875 28.953125 64.34375 
Q 26.515625 68.015625 22.3125 68.015625 
z
M 66.40625 74.21875 
L 74.21875 74.21875 
L 28.609375 -1.421875 
L 20.796875 -1.421875 
z
M 22.3125 74.21875 
Q 30.03125 74.21875 34.609375 68.875 
Q 39.203125 63.53125 39.203125 54.390625 
Q 39.203125 45.171875 34.640625 39.84375 
Q 30.078125 34.515625 22.3125 34.515625 
Q 14.546875 34.515625 10.03125 39.859375 
Q 5.515625 45.21875 5.515625 54.390625 
Q 5.515625 63.484375 10.046875 68.84375 
Q 14.59375 74.21875 22.3125 74.21875 
z
" id="DejaVuSans-37"/>
      </defs>
      <use xlink:href="#DejaVuSans-49"/>
      <use x="63.623047" xlink:href="#DejaVuSans-115"/>
      <use x="115.722656" xlink:href="#DejaVuSans-116"/>
      <use x="154.931641" xlink:href="#DejaVuSans-32"/>
      <use x="186.71875" xlink:href="#DejaVuSans-80"/>
      <use x="247.021484" xlink:href="#DejaVuSans-67"/>
      <use x="316.845703" xlink:href="#DejaVuSans-58"/>
      <use x="350.537109" xlink:href="#DejaVuSans-32"/>
      <use x="382.324219" xlink:href="#DejaVuSans-56"/>
      <use x="445.947266" xlink:href="#DejaVuSans-53"/>
      <use x="509.570312" xlink:href="#DejaVuSans-46"/>
      <use x="541.357422" xlink:href="#DejaVuSans-54"/>
      <use x="604.980469" xlink:href="#DejaVuSans-54"/>
      <use x="668.603516" xlink:href="#DejaVuSans-32"/>
      <use x="700.390625" xlink:href="#DejaVuSans-37"/>
     </g>
    </g>
   </g>
   <g id="matplotlib.axis_2">
    <g id="ytick_1">
     <g id="line2d_11">
      <defs>
       <path d="M 0 0 
L -3.5 0 
" id="m82cbbf4041" style="stroke:#000000;stroke-width:0.8;"/>
      </defs>
      <g>
       <use style="stroke:#000000;stroke-width:0.8;" x="56.028488" xlink:href="#m82cbbf4041" y="565.399219"/>
      </g>
     </g>
     <g id="text_12">
      <!-- −20 -->
      <g transform="translate(27.9238 569.198438)scale(0.1 -0.1)">
       <use xlink:href="#DejaVuSans-8722"/>
       <use x="83.789062" xlink:href="#DejaVuSans-50"/>
       <use x="147.412109" xlink:href="#DejaVuSans-48"/>
      </g>
     </g>
    </g>
    <g id="ytick_2">
     <g id="line2d_12">
      <g>
       <use style="stroke:#000000;stroke-width:0.8;" x="56.028488" xlink:href="#m82cbbf4041" y="496.099219"/>
      </g>
     </g>
     <g id="text_13">
      <!-- −15 -->
      <g transform="translate(27.9238 499.898438)scale(0.1 -0.1)">
       <use xlink:href="#DejaVuSans-8722"/>
       <use x="83.789062" xlink:href="#DejaVuSans-49"/>
       <use x="147.412109" xlink:href="#DejaVuSans-53"/>
      </g>
     </g>
    </g>
    <g id="ytick_3">
     <g id="line2d_13">
      <g>
       <use style="stroke:#000000;stroke-width:0.8;" x="56.028488" xlink:href="#m82cbbf4041" y="426.799219"/>
      </g>
     </g>
     <g id="text_14">
      <!-- −10 -->
      <g transform="translate(27.9238 430.598438)scale(0.1 -0.1)">
       <use xlink:href="#DejaVuSans-8722"/>
       <use x="83.789062" xlink:href="#DejaVuSans-49"/>
       <use x="147.412109" xlink:href="#DejaVuSans-48"/>
      </g>
     </g>
    </g>
    <g id="ytick_4">
     <g id="line2d_14">
      <g>
       <use style="stroke:#000000;stroke-width:0.8;" x="56.028488" xlink:href="#m82cbbf4041" y="357.499219"/>
      </g>
     </g>
     <g id="text_15">
      <!-- −5 -->
      <g transform="translate(34.2863 361.298438)scale(0.1 -0.1)">
       <use xlink:href="#DejaVuSans-8722"/>
       <use x="83.789062" xlink:href="#DejaVuSans-53"/>
      </g>
     </g>
    </g>
    <g id="ytick_5">
     <g id="line2d_15">
      <g>
       <use style="stroke:#000000;stroke-width:0.8;" x="56.028488" xlink:href="#m82cbbf4041" y="288.199219"/>
      </g>
     </g>
     <g id="text_16">
      <!-- 0 -->
      <g transform="translate(42.665988 291.998438)scale(0.1 -0.1)">
       <use xlink:href="#DejaVuSans-48"/>
      </g>
     </g>
    </g>
    <g id="ytick_6">
     <g id="line2d_16">
      <g>
       <use style="stroke:#000000;stroke-width:0.8;" x="56.028488" xlink:href="#m82cbbf4041" y="218.899219"/>
      </g>
     </g>
     <g id="text_17">
      <!-- 5 -->
      <g transform="translate(42.665988 222.698438)scale(0.1 -0.1)">
       <use xlink:href="#DejaVuSans-53"/>
      </g>
     </g>
    </g>
    <g id="ytick_7">
     <g id="line2d_17">
      <g>
       <use style="stroke:#000000;stroke-width:0.8;" x="56.028488" xlink:href="#m82cbbf4041" y="149.599219"/>
      </g>
     </g>
     <g id="text_18">
      <!-- 10 -->
      <g transform="translate(36.303488 153.398438)scale(0.1 -0.1)">
       <use xlink:href="#DejaVuSans-49"/>
       <use x="63.623047" xlink:href="#DejaVuSans-48"/>
      </g>
     </g>
    </g>
    <g id="ytick_8">
     <g id="line2d_18">
      <g>
       <use style="stroke:#000000;stroke-width:0.8;" x="56.028488" xlink:href="#m82cbbf4041" y="80.299219"/>
      </g>
     </g>
     <g id="text_19">
      <!-- 15 -->
      <g transform="translate(36.303488 84.098438)scale(0.1 -0.1)">
       <use xlink:href="#DejaVuSans-49"/>
       <use x="63.623047" xlink:href="#DejaVuSans-53"/>
      </g>
     </g>
    </g>
    <g id="ytick_9">
     <g id="line2d_19">
      <g>
       <use style="stroke:#000000;stroke-width:0.8;" x="56.028488" xlink:href="#m82cbbf4041" y="10.999219"/>
      </g>
     </g>
     <g id="text_20">
      <!-- 20 -->
      <g transform="translate(36.303488 14.798438)scale(0.1 -0.1)">
       <use xlink:href="#DejaVuSans-50"/>
       <use x="63.623047" xlink:href="#DejaVuSans-48"/>
      </g>
     </g>
    </g>
    <g id="text_21">
     <!-- 2nd PC: 9.18 % -->
     <g transform="translate(20.3301 354.495019)rotate(-90)scale(0.1728 -0.1728)">
      <defs>
       <path d="M 54.890625 33.015625 
L 54.890625 0 
L 45.90625 0 
L 45.90625 32.71875 
Q 45.90625 40.484375 42.875 44.328125 
Q 39.84375 48.1875 33.796875 48.1875 
Q 26.515625 48.1875 22.3125 43.546875 
Q 18.109375 38.921875 18.109375 30.90625 
L 18.109375 0 
L 9.078125 0 
L 9.078125 54.6875 
L 18.109375 54.6875 
L 18.109375 46.1875 
Q 21.34375 51.125 25.703125 53.5625 
Q 30.078125 56 35.796875 56 
Q 45.21875 56 50.046875 50.171875 
Q 54.890625 44.34375 54.890625 33.015625 
z
" id="DejaVuSans-110"/>
       <path d="M 45.40625 46.390625 
L 45.40625 75.984375 
L 54.390625 75.984375 
L 54.390625 0 
L 45.40625 0 
L 45.40625 8.203125 
Q 42.578125 3.328125 38.25 0.953125 
Q 33.9375 -1.421875 27.875 -1.421875 
Q 17.96875 -1.421875 11.734375 6.484375 
Q 5.515625 14.40625 5.515625 27.296875 
Q 5.515625 40.1875 11.734375 48.09375 
Q 17.96875 56 27.875 56 
Q 33.9375 56 38.25 53.625 
Q 42.578125 51.265625 45.40625 46.390625 
z
M 14.796875 27.296875 
Q 14.796875 17.390625 18.875 11.75 
Q 22.953125 6.109375 30.078125 6.109375 
Q 37.203125 6.109375 41.296875 11.75 
Q 45.40625 17.390625 45.40625 27.296875 
Q 45.40625 37.203125 41.296875 42.84375 
Q 37.203125 48.484375 30.078125 48.484375 
Q 22.953125 48.484375 18.875 42.84375 
Q 14.796875 37.203125 14.796875 27.296875 
z
" id="DejaVuSans-100"/>
       <path d="M 10.984375 1.515625 
L 10.984375 10.5 
Q 14.703125 8.734375 18.5 7.8125 
Q 22.3125 6.890625 25.984375 6.890625 
Q 35.75 6.890625 40.890625 13.453125 
Q 46.046875 20.015625 46.78125 33.40625 
Q 43.953125 29.203125 39.59375 26.953125 
Q 35.25 24.703125 29.984375 24.703125 
Q 19.046875 24.703125 12.671875 31.3125 
Q 6.296875 37.9375 6.296875 49.421875 
Q 6.296875 60.640625 12.9375 67.421875 
Q 19.578125 74.21875 30.609375 74.21875 
Q 43.265625 74.21875 49.921875 64.515625 
Q 56.59375 54.828125 56.59375 36.375 
Q 56.59375 19.140625 48.40625 8.859375 
Q 40.234375 -1.421875 26.421875 -1.421875 
Q 22.703125 -1.421875 18.890625 -0.6875 
Q 15.09375 0.046875 10.984375 1.515625 
z
M 30.609375 32.421875 
Q 37.25 32.421875 41.125 36.953125 
Q 45.015625 41.5 45.015625 49.421875 
Q 45.015625 57.28125 41.125 61.84375 
Q 37.25 66.40625 30.609375 66.40625 
Q 23.96875 66.40625 20.09375 61.84375 
Q 16.21875 57.28125 16.21875 49.421875 
Q 16.21875 41.5 20.09375 36.953125 
Q 23.96875 32.421875 30.609375 32.421875 
z
" id="DejaVuSans-57"/>
      </defs>
      <use xlink:href="#DejaVuSans-50"/>
      <use x="63.623047" xlink:href="#DejaVuSans-110"/>
      <use x="127.001953" xlink:href="#DejaVuSans-100"/>
      <use x="190.478516" xlink:href="#DejaVuSans-32"/>
      <use x="222.265625" xlink:href="#DejaVuSans-80"/>
      <use x="282.568359" xlink:href="#DejaVuSans-67"/>
      <use x="352.392578" xlink:href="#DejaVuSans-58"/>
      <use x="386.083984" xlink:href="#DejaVuSans-32"/>
      <use x="417.871094" xlink:href="#DejaVuSans-57"/>
      <use x="481.494141" xlink:href="#DejaVuSans-46"/>
      <use x="513.28125" xlink:href="#DejaVuSans-49"/>
      <use x="576.904297" xlink:href="#DejaVuSans-56"/>
      <use x="640.527344" xlink:href="#DejaVuSans-32"/>
      <use x="672.314453" xlink:href="#DejaVuSans-37"/>
     </g>
    </g>
   </g>
   <g id="LineCollection_1"/>
   <g id="LineCollection_2"/>
   <g id="LineCollection_3"/>
   <g id="LineCollection_4">
    <path clip-path="url(#p808228d151)" d="M 700.97909 207.868265 
L 725.628488 210.057376 
L 730.15557 214.279219 
L 725.628488 221.223711 
L 716.953255 232.759219 
L 689.203054 251.239219 
L 688.428488 251.574002 
L 651.228488 269.172904 
L 650.069177 269.719219 
L 614.028488 280.652557 
L 594.322698 288.199219 
L 576.828488 292.551103 
L 539.628488 303.065096 
L 502.428488 298.122523 
L 488.912861 288.199219 
L 500.857881 269.719219 
L 502.428488 268.759459 
L 530.770494 251.239219 
L 539.628488 246.965215 
L 570.713186 232.759219 
L 576.828488 230.463906 
L 614.028488 218.535724 
L 631.544402 214.279219 
L 651.228488 210.312282 
L 675.885748 207.953513 
" style="fill:none;stroke:#453781;stroke-width:1.5;"/>
   </g>
   <g id="LineCollection_5">
    <path clip-path="url(#p808228d151)" d="M 392.084549 226.952071 
L 417.845271 214.279219 
L 428.028488 209.61793 
L 460.916047 195.799219 
L 465.228488 194.078816 
L 502.428488 180.494894 
L 512.039776 177.319219 
L 539.628488 168.61479 
L 576.006615 158.839219 
L 576.828488 158.626625 
L 614.028488 150.100187 
L 651.228488 143.390402 
L 672.619077 140.359219 
L 688.428488 138.333646 
L 725.628488 135.316779 
L 762.828488 134.390591 
L 800.028488 135.90906 
L 837.228488 140.196615 
L 838.116525 140.359219 
L 874.428488 152.393295 
L 880.595157 158.839219 
L 874.428488 166.965124 
L 867.058167 177.319219 
L 837.228488 188.673367 
L 826.623131 195.799219 
L 800.028488 206.231928 
L 786.517023 214.279219 
L 762.828488 226.708564 
L 752.388306 232.759219 
L 725.628488 246.205068 
L 716.116644 251.239219 
L 688.428488 263.206601 
L 675.010858 269.719219 
L 651.228488 279.449276 
L 632.016421 288.199219 
L 614.028488 294.77878 
L 586.432701 306.679219 
L 576.828488 309.21088 
L 539.628488 323.989453 
L 536.418981 325.159219 
L 502.428488 331.475117 
L 470.09766 343.639219 
L 465.228488 344.635812 
L 428.028488 351.318176 
L 390.828488 361.668775 
L 387.827162 362.119219 
L 353.628488 364.889234 
L 316.428488 368.049511 
L 279.228488 368.932241 
L 242.028488 366.287651 
L 219.846691 362.119219 
L 210.052715 343.639219 
L 227.750692 325.159219 
L 242.028488 315.242736 
L 253.96638 306.679219 
L 279.228488 291.201527 
L 284.063009 288.199219 
L 315.542705 269.719219 
L 316.428488 269.188471 
L 347.596933 251.239219 
L 353.628488 247.768595 
L 369.864093 238.834007 
" style="fill:none;stroke:#404688;stroke-width:1.5;"/>
   </g>
   <g id="LineCollection_6">
    <path clip-path="url(#p808228d151)" d="M 56.028488 350.84924 
L 63.074038 343.639219 
L 85.337327 325.159219 
L 93.228488 318.666288 
L 109.180298 306.679219 
L 130.428488 289.587543 
L 132.325178 288.199219 
L 154.051103 269.719219 
L 167.628488 256.654558 
L 173.870382 251.239219 
L 191.78572 232.759219 
L 204.828488 217.774401 
L 208.304831 214.279219 
L 222.746324 195.799219 
L 235.110368 177.319219 
L 242.028488 165.016342 
L 246.365257 158.839219 
L 256.160069 140.359219 
L 265.802678 121.879219 
L 278.991975 103.399219 
L 279.228488 103.201699 
L 316.428488 85.202639 
L 317.643179 84.919219 
L 353.628488 80.254192 
L 390.828488 78.725036 
L 428.028488 78.936 
L 465.228488 80.070555 
L 502.428488 81.631984 
L 539.628488 83.326858 
L 576.570754 84.919219 
L 576.828488 84.928975 
L 614.028488 86.406438 
L 651.228488 87.727335 
L 688.428488 89.053162 
L 725.628488 90.53109 
L 762.828488 92.378793 
L 800.028488 94.911773 
L 837.228488 98.473431 
L 874.428488 103.210183 
L 875.555346 103.399219 
L 911.628488 110.441773 
L 947.736207 121.879219 
L 939.584595 140.359219 
L 918.667343 158.839219 
L 911.628488 165.829335 
L 891.516655 177.319219 
L 874.428488 183.195066 
L 847.801092 195.799219 
L 837.228488 199.091663 
L 805.121549 214.279219 
L 800.028488 216.341191 
L 767.384317 232.759219 
L 762.828488 234.885543 
L 729.99761 251.239219 
L 725.628488 253.196047 
L 691.203728 269.719219 
L 688.428488 270.90793 
L 651.843478 288.199219 
L 651.228488 288.454652 
L 614.028488 302.653619 
L 604.693572 306.679219 
L 576.828488 314.024427 
L 561.947368 320.277859 
" style="fill:none;stroke:#39558c;stroke-width:1.5;"/>
    <path clip-path="url(#p808228d151)" d="M 538.108957 328.189492 
L 502.428488 340.561335 
L 494.247814 343.639219 
L 465.228488 349.57872 
L 432.758996 362.119219 
L 428.028488 363.167764 
L 390.828488 371.282343 
L 361.22661 380.599219 
L 353.628488 381.63991 
L 316.428488 387.423577 
L 279.228488 396.46292 
L 261.674631 399.079219 
L 242.028488 400.570992 
L 204.828488 402.618351 
L 167.628488 403.492436 
L 130.428488 403.324051 
L 93.228488 401.859698 
L 65.223477 399.079219 
L 56.028488 395.199087 
" style="fill:none;stroke:#39558c;stroke-width:1.5;"/>
   </g>
   <g id="LineCollection_7">
    <path clip-path="url(#p808228d151)" d="M 499.232503 10.999219 
L 502.428488 11.670121 
L 539.628488 19.614118 
L 576.828488 26.500938 
L 594.201085 29.479219 
L 614.028488 33.642033 
L 651.228488 40.76143 
L 688.428488 46.777249 
L 696.0979 47.959219 
L 725.628488 52.991709 
L 762.828488 58.681055 
L 800.028488 63.930206 
L 816.776453 66.439219 
L 837.228488 69.56854 
L 874.428488 76.094727 
L 911.628488 83.594908 
L 916.502426 84.919219 
L 948.828488 93.589047 
L 959.169448 103.399219 
L 958.518835 121.879219 
L 951.701821 140.359219 
L 948.828488 145.928131 
L 929.444384 158.839219 
L 911.628488 176.531753 
L 910.250111 177.319219 
L 874.428488 189.636654 
L 861.40952 195.799219 
L 837.228488 203.329502 
L 814.080464 214.279219 
L 800.028488 219.968288 
L 774.596121 232.759219 
L 762.828488 238.251479 
L 736.754907 251.239219 
L 725.628488 256.222483 
L 697.509075 269.719219 
L 688.428488 273.608683 
L 662.753202 285.743675 
" style="fill:none;stroke:#33638d;stroke-width:1.5;"/>
    <path clip-path="url(#p808228d151)" d="M 639.769759 296.068038 
L 616.565416 306.679219 
L 614.028488 307.363531 
L 576.828488 318.837974 
L 561.785995 325.159219 
L 539.628488 330.341852 
L 506.8021 343.639219 
L 502.428488 344.660955 
L 465.228488 354.521628 
L 445.557029 362.119219 
L 428.028488 366.004524 
L 390.828488 380.551902 
L 390.678151 380.599219 
L 353.628488 385.673797 
L 316.428488 397.902347 
L 312.185576 399.079219 
L 279.228488 402.567582 
L 242.028488 411.014926 
L 210.68379 417.559219 
L 204.828488 417.976183 
L 167.628488 420.04648 
L 130.428488 421.86736 
L 93.228488 422.887502 
L 56.028488 423.376801 
" style="fill:none;stroke:#33638d;stroke-width:1.5;"/>
   </g>
   <g id="LineCollection_8">
    <path clip-path="url(#p808228d151)" d="M 645.73554 10.999219 
L 651.228488 12.176645 
L 688.428488 19.828423 
L 725.628488 26.304586 
L 745.903767 29.479219 
L 762.828488 32.763187 
L 800.028488 39.505695 
L 837.228488 45.760081 
L 849.292814 47.959219 
L 874.428488 53.193166 
L 911.628488 62.064359 
L 925.697423 66.439219 
L 948.828488 73.444703 
L 968.351774 84.919219 
L 982.165043 103.399219 
L 968.311443 121.879219 
L 955.405491 140.359219 
L 948.828488 153.106349 
L 940.221425 158.839219 
L 914.212177 177.319219 
L 911.628488 178.758911 
L 874.57486 195.799219 
L 874.428488 195.849351 
L 837.228488 207.56734 
L 823.03938 214.279219 
L 800.028488 223.595386 
L 781.807925 232.759219 
L 762.828488 241.617416 
L 743.512204 251.239219 
L 725.628488 259.24892 
L 703.814423 269.719219 
L 688.428488 276.309436 
L 663.272016 288.199219 
L 651.228488 293.201435 
L 621.755507 306.679219 
L 614.028488 308.763508 
L 584.913301 320.415854 
" style="fill:none;stroke:#2d718e;stroke-width:1.5;"/>
    <path clip-path="url(#p808228d151)" d="M 560.9718 328.028901 
L 539.628488 333.021094 
L 513.416179 343.639219 
L 502.428488 346.206096 
L 465.228488 359.464537 
L 458.355063 362.119219 
L 428.028488 368.841283 
L 398.029259 380.599219 
L 390.828488 382.14451 
L 353.628488 389.707684 
L 326.712878 399.079219 
L 316.428488 400.408279 
L 279.228488 406.566277 
L 246.47683 417.559219 
L 242.028488 418.004597 
L 204.828488 421.538354 
L 167.628488 429.174945 
L 130.428488 434.341177 
L 93.228488 435.980167 
L 91.653279 436.039219 
L 56.028488 436.922539 
" style="fill:none;stroke:#2d718e;stroke-width:1.5;"/>
   </g>
   <g id="LineCollection_9">
    <path clip-path="url(#p808228d151)" d="M 742.45629 10.999219 
L 762.828488 15.013988 
L 800.028488 21.617534 
L 837.228488 27.511322 
L 849.171034 29.479219 
L 862.099144 32.202921 
" style="fill:none;stroke:#287d8e;stroke-width:1.5;"/>
    <path clip-path="url(#p808228d151)" d="M 886.686868 37.714597 
L 911.628488 43.643841 
L 925.732414 47.959219 
L 948.828488 55.705391 
L 967.709897 66.439219 
L 986.028488 77.05398 
L 988.115662 84.919219 
L 988.079804 103.399219 
L 986.028488 112.767389 
L 978.104052 121.879219 
L 959.109161 140.359219 
L 949.108318 158.839219 
L 948.828488 159.159619 
L 917.001069 177.319219 
L 911.628488 180.312946 
L 877.954063 195.799219 
L 874.428488 197.006722 
L 837.228488 211.805179 
L 831.998295 214.279219 
L 800.028488 227.222484 
L 789.019729 232.759219 
L 762.828488 244.983352 
L 750.269502 251.239219 
L 725.628488 262.275356 
L 710.119771 269.719219 
L 688.428488 279.010189 
L 668.986286 288.199219 
L 651.228488 295.574827 
L 626.945598 306.679219 
L 614.028488 310.163486 
L 579.069916 325.159219 
L 576.828488 325.769114 
L 539.628488 335.700336 
L 520.030258 343.639219 
L 502.428488 347.751237 
L 466.992622 362.119219 
L 465.228488 362.555629 
L 428.028488 371.678043 
L 405.266976 380.599219 
L 390.828488 383.69773 
L 353.628488 393.741572 
L 338.298444 399.079219 
L 316.428488 401.905491 
L 279.228488 410.564971 
L 258.39028 417.559219 
L 242.028488 419.197399 
L 204.828488 425.100525 
L 170.408669 436.039219 
L 167.628488 436.246371 
L 130.428488 438.196547 
L 93.228488 442.226464 
L 56.028488 445.582115 
" style="fill:none;stroke:#287d8e;stroke-width:1.5;"/>
   </g>
   <g id="LineCollection_10">
    <path clip-path="url(#p808228d151)" d="M 821.334753 10.999219 
L 837.228488 13.959395 
L 874.428488 21.012956 
L 911.628488 28.560045 
L 915.008053 29.479219 
L 948.828488 40.785495 
L 962.716236 47.959219 
L 986.028488 60.94006 
L 988.877001 66.439219 
L 992.708772 84.919219 
L 990.545352 103.399219 
L 986.292793 121.879219 
L 986.028488 122.425041 
L 962.812831 140.359219 
L 950.498076 158.839219 
L 948.828488 160.750862 
L 919.789961 177.319219 
L 911.628488 181.866982 
L 881.333265 195.799219 
L 874.428488 198.164093 
L 838.308168 214.279219 
L 837.228488 214.690695 
L 800.028488 230.849582 
L 796.231532 232.759219 
L 762.828488 248.349289 
L 757.026799 251.239219 
L 725.628488 265.301792 
L 716.425118 269.719219 
L 688.428488 281.710942 
L 674.700555 288.199219 
L 651.228488 297.948218 
L 632.135689 306.679219 
L 614.028488 311.563463 
L 582.333592 325.159219 
L 576.828488 326.657164 
L 539.628488 338.379578 
L 526.644337 343.639219 
L 514.698125 346.43002 
" style="fill:none;stroke:#238a8d;stroke-width:1.5;"/>
    <path clip-path="url(#p808228d151)" d="M 490.751813 354.030853 
L 470.803415 362.119219 
L 465.228488 363.49834 
L 428.028488 374.514803 
L 412.504693 380.599219 
L 390.828488 385.25095 
L 353.628488 397.775459 
L 349.88401 399.079219 
L 316.428488 403.402703 
L 279.228488 414.563665 
L 270.303731 417.559219 
L 242.028488 420.3902 
L 204.828488 428.662696 
L 181.617437 436.039219 
L 167.628488 437.081542 
L 130.428488 440.693826 
L 93.228488 448.441741 
L 56.028488 454.241691 
" style="fill:none;stroke:#238a8d;stroke-width:1.5;"/>
   </g>
   <g id="LineCollection_11">
    <path clip-path="url(#p808228d151)" d="M 882.647554 10.999219 
L 911.628488 17.828156 
L 948.828488 28.224391 
L 951.697891 29.479219 
L 986.028488 47.063181 
L 986.664548 47.959219 
L 996.242598 66.439219 
L 997.301883 84.919219 
L 993.0109 103.399219 
L 987.678235 121.879219 
L 986.028488 125.28614 
L 966.516502 140.359219 
L 951.887834 158.839219 
L 948.828488 162.342105 
L 922.578853 177.319219 
L 911.628488 183.421017 
L 884.712468 195.799219 
L 874.428488 199.321464 
L 840.902291 214.279219 
L 837.228488 215.679338 
L 801.020877 232.759219 
L 800.028488 233.193906 
L 763.094206 251.239219 
L 762.828488 251.364898 
L 725.628488 268.328228 
L 722.730466 269.719219 
L 688.428488 284.411695 
L 680.414824 288.199219 
L 651.228488 300.32161 
L 637.32578 306.679219 
L 614.028488 312.963441 
L 585.597267 325.159219 
L 576.828488 327.545214 
L 539.628488 341.05882 
L 533.258416 343.639219 
L 502.428488 350.841518 
L 477.330756 361.017755 
" style="fill:none;stroke:#1f968b;stroke-width:1.5;"/>
    <path clip-path="url(#p808228d151)" d="M 453.324989 368.572241 
L 428.028488 377.351563 
L 419.742409 380.599219 
L 390.828488 386.80417 
L 356.562936 399.079219 
L 353.628488 399.531547 
L 316.428488 404.899915 
L 280.300407 417.559219 
L 279.228488 417.681724 
L 242.028488 421.583002 
L 204.828488 432.224867 
L 192.826206 436.039219 
L 167.628488 437.916712 
L 130.428488 443.191105 
L 93.409423 454.519219 
L 93.228488 454.530039 
L 56.028488 455.730632 
" style="fill:none;stroke:#1f968b;stroke-width:1.5;"/>
   </g>
   <g id="LineCollection_12">
    <path clip-path="url(#p808228d151)" d="M 921.838404 10.999219 
L 948.828488 19.442261 
L 971.779905 29.479219 
L 986.028488 36.777273 
L 993.966092 47.959219 
L 1003.608195 66.439219 
L 1001.894993 84.919219 
L 995.476448 103.399219 
L 989.063677 121.879219 
L 986.028488 128.147238 
L 970.220172 140.359219 
L 953.277592 158.839219 
L 948.828488 163.933348 
L 925.367745 177.319219 
L 911.628488 184.975053 
L 888.09167 195.799219 
L 874.428488 200.478835 
L 843.496413 214.279219 
L 837.228488 216.667982 
L 803.116702 232.759219 
L 800.028488 234.11192 
L 764.973152 251.239219 
L 762.828488 252.253603 
L 726.623986 269.719219 
L 725.628488 270.196741 
L 688.428488 287.112449 
L 686.129093 288.199219 
L 651.228488 302.695002 
L 642.515871 306.679219 
L 614.028488 314.363418 
L 588.860943 325.159219 
L 576.828488 328.433265 
L 539.708465 343.639219 
L 539.628488 343.658798 
L 502.428488 352.386659 
L 478.424999 362.119219 
L 465.228488 365.383763 
L 439.735463 375.529274 
" style="fill:none;stroke:#20a386;stroke-width:1.5;"/>
    <path clip-path="url(#p808228d151)" d="M 415.761555 383.006733 
L 390.828488 388.357389 
L 360.898718 399.079219 
L 353.628488 400.199882 
L 316.428488 406.397127 
L 284.573264 417.559219 
L 279.228488 418.170052 
L 242.028488 422.775804 
L 204.828488 435.787038 
L 204.034974 436.039219 
L 167.628488 438.751882 
L 130.428488 445.688384 
L 101.570264 454.519219 
L 93.228488 455.018091 
L 56.028488 456.982154 
" style="fill:none;stroke:#20a386;stroke-width:1.5;"/>
   </g>
   <g id="LineCollection_13">
    <path clip-path="url(#p808228d151)" d="M 949.37765 10.999219 
L 986.028488 27.607093 
L 987.855264 29.479219 
L 1001.267636 47.959219 
L 1010.973792 66.439219 
L 1006.488104 84.919219 
L 997.941996 103.399219 
L 990.449119 121.879219 
L 986.028488 131.008336 
L 973.923842 140.359219 
L 963.7583 150.114849 
" style="fill:none;stroke:#29af7f;stroke-width:1.5;"/>
    <path clip-path="url(#p808228d151)" d="M 945.594101 167.370018 
L 928.156637 177.319219 
L 911.628488 186.529088 
L 891.470873 195.799219 
L 874.428488 201.636207 
L 846.090536 214.279219 
L 837.228488 217.656626 
L 805.212526 232.759219 
L 800.028488 235.029933 
L 766.852099 251.239219 
L 762.828488 253.142307 
L 728.466182 269.719219 
L 725.628488 271.08041 
L 689.5417 288.199219 
L 688.428488 288.691604 
L 651.228488 305.068393 
L 647.705962 306.679219 
L 614.028488 315.763396 
L 592.124619 325.159219 
L 576.828488 329.321315 
L 541.876329 343.639219 
L 539.628488 344.189521 
L 502.428488 353.931799 
L 482.235792 362.119219 
L 465.228488 366.326474 
L 430.017308 380.599219 
L 428.028488 381.077203 
L 390.828488 389.910609 
L 365.2345 399.079219 
L 353.628488 400.868217 
L 316.428488 407.894339 
L 288.846121 417.559219 
L 279.228488 418.658379 
L 242.028488 423.968605 
L 207.957027 436.039219 
L 204.828488 436.346452 
L 167.628488 439.587053 
L 130.428488 448.185663 
L 109.731104 454.519219 
L 93.228488 455.506143 
L 56.028488 458.233677 
" style="fill:none;stroke:#29af7f;stroke-width:1.5;"/>
   </g>
   <g id="LineCollection_14">
    <path clip-path="url(#p808228d151)" d="M 963.600546 10.999219 
L 986.028488 21.162164 
L 994.144075 29.479219 
L 1008.569179 47.959219 
L 1018.339388 66.439219 
L 1011.081214 84.919219 
L 1000.407545 103.399219 
L 991.83456 121.879219 
L 986.028488 133.869435 
L 977.627512 140.359219 
L 956.057109 158.839219 
L 948.828488 167.115835 
L 941.889463 171.074997 
" style="fill:none;stroke:#3dbc74;stroke-width:1.5;"/>
    <path clip-path="url(#p808228d151)" d="M 919.938949 183.452341 
L 911.628488 188.083124 
L 894.850075 195.799219 
L 874.428488 202.793578 
L 848.684659 214.279219 
L 837.228488 218.645269 
L 807.30835 232.759219 
L 800.028488 235.947947 
L 768.731046 251.239219 
L 762.828488 254.031011 
L 730.308379 269.719219 
L 725.628488 271.964079 
L 691.404491 288.199219 
L 688.428488 289.515536 
L 651.793534 306.679219 
L 651.228488 306.831891 
L 614.028488 317.163373 
L 595.388295 325.159219 
L 576.828488 330.209365 
L 544.044193 343.639219 
L 539.628488 344.720244 
L 502.428488 355.47694 
L 486.046584 362.119219 
L 465.228488 367.269185 
L 432.342998 380.599219 
L 428.028488 381.636149 
L 390.828488 391.463829 
L 369.570282 399.079219 
L 353.628488 401.536552 
L 316.428488 409.391551 
L 293.118978 417.559219 
L 279.228488 419.146707 
L 242.028488 425.161407 
L 211.323923 436.039219 
L 204.828488 436.677093 
L 167.628488 440.422223 
L 130.428488 450.682942 
L 117.891945 454.519219 
L 93.228488 455.994194 
L 56.028488 459.485199 
" style="fill:none;stroke:#3dbc74;stroke-width:1.5;"/>
   </g>
   <g id="LineCollection_15">
    <path clip-path="url(#p808228d151)" d="M 977.823442 10.999219 
L 986.028488 14.717234 
L 1000.432885 29.479219 
L 1015.870723 47.959219 
L 1023.228488 61.815866 
L 1023.795679 66.439219 
L 1023.228488 69.575897 
L 1015.674324 84.919219 
L 1010.047936 93.041535 
" style="fill:none;stroke:#56c667;stroke-width:1.5;"/>
    <path clip-path="url(#p808228d151)" d="M 997.039369 114.567373 
L 993.220002 121.879219 
L 986.028488 136.730533 
L 981.331182 140.359219 
L 957.446867 158.839219 
L 948.828488 168.707078 
L 933.734421 177.319219 
L 911.628488 189.637159 
L 898.229278 195.799219 
L 874.428488 203.950949 
L 851.278781 214.279219 
L 837.228488 219.633913 
L 809.404174 232.759219 
L 800.028488 236.865961 
L 770.609992 251.239219 
L 762.828488 254.919716 
L 732.150576 269.719219 
L 725.628488 272.847747 
L 693.267282 288.199219 
L 688.428488 290.339468 
L 653.552172 306.679219 
L 651.228488 307.307065 
L 614.028488 318.56335 
L 598.651971 325.159219 
L 576.828488 331.097415 
L 546.212057 343.639219 
L 539.628488 345.250967 
L 502.428488 357.022081 
L 489.857376 362.119219 
L 465.228488 368.211897 
L 434.668688 380.599219 
L 428.028488 382.195095 
L 390.828488 393.017049 
L 373.906063 399.079219 
L 353.628488 402.204887 
L 316.428488 410.888763 
L 297.391835 417.559219 
L 279.228488 419.635035 
L 242.028488 426.354209 
L 214.690819 436.039219 
L 204.828488 437.007734 
L 167.628488 441.257393 
L 130.428488 453.180221 
L 126.052786 454.519219 
L 93.228488 456.482246 
L 56.028488 460.736722 
" style="fill:none;stroke:#56c667;stroke-width:1.5;"/>
   </g>
   <g id="LineCollection_16">
    <path clip-path="url(#p808228d151)" d="M 988.205174 10.999219 
L 1006.721696 29.479219 
L 1023.172267 47.959219 
L 1023.228488 48.065097 
L 1025.482621 66.439219 
L 1023.228488 78.905001 
L 1020.267435 84.919219 
L 1005.338641 103.399219 
L 994.605444 121.879219 
L 991.519893 128.251241 
" style="fill:none;stroke:#75d054;stroke-width:1.5;"/>
    <path clip-path="url(#p808228d151)" d="M 975.764688 146.898312 
L 958.836625 158.839219 
L 948.828488 170.298321 
L 936.523313 177.319219 
L 911.628488 191.191195 
L 901.60848 195.799219 
L 874.428488 205.10832 
L 853.872904 214.279219 
L 837.228488 220.622557 
L 811.499998 232.759219 
L 800.028488 237.783975 
L 772.488939 251.239219 
L 762.828488 255.80842 
L 733.992772 269.719219 
L 725.628488 273.731416 
L 695.130073 288.199219 
L 688.428488 291.163399 
L 655.31081 306.679219 
L 651.228488 307.782238 
L 614.028488 319.963328 
L 601.915647 325.159219 
L 576.828488 331.985465 
L 548.379921 343.639219 
L 539.628488 345.78169 
L 502.428488 358.567221 
L 493.668169 362.119219 
L 465.228488 369.154608 
L 436.994377 380.599219 
L 428.028488 382.754041 
L 390.828488 394.570269 
L 378.241845 399.079219 
L 353.628488 402.873222 
L 316.428488 412.385975 
L 301.664692 417.559219 
L 279.228488 420.123362 
L 242.028488 427.547011 
L 218.057714 436.039219 
L 204.828488 437.338375 
L 167.628488 442.092564 
L 131.553039 454.519219 
L 130.428488 454.616034 
L 93.228488 456.970298 
L 56.028488 461.988244 
" style="fill:none;stroke:#75d054;stroke-width:1.5;"/>
   </g>
   <g id="LineCollection_17">
    <path clip-path="url(#p808228d151)" d="M 993.349667 10.999219 
L 1013.010507 29.479219 
L 1023.228488 40.952305 
L 1025.040837 47.959219 
L 1027.169563 66.439219 
L 1023.624465 84.919219 
L 1023.228488 85.912441 
L 1007.804189 103.399219 
L 995.990886 121.879219 
L 986.553477 140.359219 
L 986.028488 141.059933 
L 960.226383 158.839219 
L 948.828488 171.889564 
L 939.312205 177.319219 
L 911.628488 192.74523 
L 904.987683 195.799219 
L 874.428488 206.265691 
L 856.467027 214.279219 
L 837.228488 221.6112 
L 813.595822 232.759219 
L 800.028488 238.701988 
L 774.367885 251.239219 
L 762.828488 256.697124 
L 735.834969 269.719219 
L 725.628488 274.615085 
L 696.992864 288.199219 
L 688.428488 291.987331 
L 657.069447 306.679219 
L 651.228488 308.257412 
L 614.028488 321.363305 
L 605.179323 325.159219 
L 576.828488 332.873515 
L 550.547785 343.639219 
L 539.628488 346.312413 
L 502.428488 360.112362 
L 497.478961 362.119219 
L 465.228488 370.097319 
L 450.997219 375.865921 
" style="fill:none;stroke:#95d840;stroke-width:1.5;"/>
    <path clip-path="url(#p808228d151)" d="M 427.095376 383.634321 
L 390.828488 396.123489 
L 382.577627 399.079219 
L 353.628488 403.541557 
L 316.428488 413.883187 
L 305.937549 417.559219 
L 279.228488 420.61169 
L 242.028488 428.739812 
L 221.42461 436.039219 
L 204.828488 437.669015 
L 167.628488 442.927734 
L 133.977597 454.519219 
L 130.428488 454.824769 
L 93.228488 457.458349 
L 56.028488 463.239767 
" style="fill:none;stroke:#95d840;stroke-width:1.5;"/>
   </g>
   <g id="LineCollection_18">
    <path clip-path="url(#p808228d151)" d="M 998.494161 10.999219 
L 1019.299318 29.479219 
L 1023.228488 33.89102 
L 1026.867249 47.959219 
L 1028.856504 66.439219 
L 1024.738866 84.919219 
L 1023.228488 88.707673 
L 1010.269737 103.399219 
L 997.376328 121.879219 
L 987.270954 140.359219 
L 986.028488 142.017564 
L 961.616141 158.839219 
L 948.828488 173.480808 
L 942.101097 177.319219 
L 911.628488 194.299266 
L 908.366885 195.799219 
L 874.428488 207.423062 
L 859.06115 214.279219 
L 837.228488 222.599844 
L 815.691646 232.759219 
L 800.028488 239.620002 
L 776.246832 251.239219 
L 762.828488 257.585829 
L 737.677165 269.719219 
L 725.628488 275.498753 
L 698.855655 288.199219 
L 688.428488 292.811263 
L 658.828085 306.679219 
L 651.228488 308.732586 
L 614.028488 322.763283 
L 608.442999 325.159219 
L 576.828488 333.761566 
L 552.715649 343.639219 
L 539.628488 346.843136 
L 502.428488 361.657503 
L 501.289754 362.119219 
L 465.228488 371.040031 
L 453.322909 375.865921 
" style="fill:none;stroke:#bade28;stroke-width:1.5;"/>
    <path clip-path="url(#p808228d151)" d="M 429.39461 383.543605 
L 428.028488 383.871932 
L 390.828488 397.676709 
L 386.913409 399.079219 
L 353.628488 404.209892 
L 316.428488 415.380399 
L 310.210406 417.559219 
L 279.228488 421.100017 
L 242.028488 429.932614 
L 224.791506 436.039219 
L 204.828488 437.999656 
L 167.628488 443.762905 
L 136.402155 454.519219 
L 130.428488 455.033505 
L 93.228488 457.946401 
L 56.028488 464.49129 
" style="fill:none;stroke:#bade28;stroke-width:1.5;"/>
   </g>
   <g id="LineCollection_19">
    <path clip-path="url(#p808228d151)" d="M 1003.638654 10.999219 
L 1023.228488 27.821627 
L 1023.804982 29.479219 
L 1028.693662 47.959219 
L 1030.543446 66.439219 
L 1025.853268 84.919219 
L 1023.228488 91.502905 
L 1012.735285 103.399219 
L 998.761769 121.879219 
L 987.988431 140.359219 
L 986.028488 142.975196 
L 963.005899 158.839219 
L 948.828488 175.072051 
L 944.889989 177.319219 
L 911.656405 195.799219 
L 911.628488 195.811256 
L 874.428488 208.580433 
L 861.655272 214.279219 
L 837.228488 223.588488 
L 817.78747 232.759219 
L 800.028488 240.538016 
L 778.125778 251.239219 
L 762.828488 258.474533 
L 739.519362 269.719219 
L 725.628488 276.382422 
L 700.718446 288.199219 
L 688.428488 293.635194 
L 660.586723 306.679219 
L 651.228488 309.207759 
L 614.028488 324.16326 
L 611.706675 325.159219 
L 576.828488 334.649616 
L 554.883514 343.639219 
L 539.628488 347.373858 
L 503.344205 362.119219 
L 502.428488 362.352932 
L 465.228488 371.982742 
L 455.648599 375.865921 
" style="fill:none;stroke:#dde318;stroke-width:1.5;"/>
    <path clip-path="url(#p808228d151)" d="M 431.7203 383.543605 
L 428.028488 384.430878 
L 390.965711 399.079219 
L 390.828488 399.105774 
L 353.628488 404.878227 
L 316.428488 416.877611 
L 314.483263 417.559219 
L 279.228488 421.588345 
L 242.028488 431.125416 
L 228.158402 436.039219 
L 204.828488 438.330297 
L 167.628488 444.598075 
L 138.826713 454.519219 
L 130.428488 455.242241 
L 93.228488 458.434453 
L 56.028488 465.742812 
" style="fill:none;stroke:#dde318;stroke-width:1.5;"/>
   </g>
   <g id="LineCollection_20">
    <path clip-path="url(#p808228d151)" d="M 1008.783147 10.999219 
L 1023.228488 23.403889 
L 1025.341429 29.479219 
L 1030.520074 47.959219 
L 1032.230388 66.439219 
L 1026.967669 84.919219 
L 1023.228488 94.298137 
L 1015.200833 103.399219 
L 1000.147211 121.879219 
L 988.705908 140.359219 
L 986.028488 143.932827 
L 964.395657 158.839219 
L 948.828488 176.663294 
L 947.678881 177.319219 
L 912.458618 195.799219 
L 911.628488 196.157137 
L 874.428488 209.737804 
L 864.249395 214.279219 
L 837.228488 224.577131 
L 819.883294 232.759219 
L 800.028488 241.45603 
L 780.004725 251.239219 
L 762.828488 259.363237 
L 741.361558 269.719219 
L 725.628488 277.266091 
L 702.581237 288.199219 
L 688.428488 294.459126 
L 662.34536 306.679219 
L 651.228488 309.682933 
L 614.355209 325.159219 
L 614.028488 325.252114 
L 576.828488 335.537666 
L 557.051378 343.639219 
L 539.628488 347.904581 
L 504.650169 362.119219 
L 502.428488 362.686246 
L 465.228488 372.925453 
L 457.974289 375.865921 
" style="fill:none;stroke:#fde725;stroke-width:1.5;"/>
    <path clip-path="url(#p808228d151)" d="M 434.04599 383.543605 
L 428.028488 384.989824 
L 392.379938 399.079219 
L 390.828488 399.379453 
L 353.628488 405.546563 
L 317.522765 417.559219 
L 316.428488 417.686715 
L 279.228488 422.076673 
L 242.028488 432.318218 
L 231.525297 436.039219 
L 204.828488 438.660938 
L 167.628488 445.433245 
L 141.251271 454.519219 
L 130.428488 455.450976 
L 93.228488 458.922504 
L 56.028488 466.994335 
" style="fill:none;stroke:#fde725;stroke-width:1.5;"/>
   </g>
   <g id="LineCollection_21">
    <path clip-path="url(#p808228d151)" d="M 1013.92764 10.999219 
L 1023.228488 18.98615 
L 1026.877876 29.479219 
L 1032.346487 47.959219 
L 1033.917329 66.439219 
L 1028.08207 84.919219 
L 1023.228488 97.093369 
L 1017.666382 103.399219 
L 1001.532653 121.879219 
L 989.423385 140.359219 
L 986.028488 144.890459 
L 965.785415 158.839219 
L 949.170452 177.319219 
L 948.828488 177.561009 
L 926.074438 189.22872 
" style="fill:none;stroke:#440154;stroke-width:1.5;"/>
    <path clip-path="url(#p808228d151)" d="M 899.856409 201.05747 
L 874.428488 210.895175 
L 866.843518 214.279219 
L 837.228488 225.565775 
L 821.979118 232.759219 
L 800.028488 242.374043 
L 781.883672 251.239219 
L 762.828488 260.251942 
L 743.203755 269.719219 
L 725.628488 278.149759 
L 704.444028 288.199219 
L 688.428488 295.283058 
L 664.103998 306.679219 
L 651.228488 310.158106 
L 615.487342 325.159219 
L 614.028488 325.574007 
L 576.828488 336.425716 
L 559.219242 343.639219 
L 539.628488 348.435304 
L 505.956132 362.119219 
L 502.428488 363.019559 
L 465.228488 373.868164 
L 448.622826 380.599219 
L 428.028488 385.54877 
L 393.794166 399.079219 
L 390.828488 399.653131 
L 353.628488 406.214898 
L 319.53154 417.559219 
L 316.428488 417.92076 
L 279.228488 422.565 
L 242.028488 433.511019 
L 234.892193 436.039219 
L 204.828488 438.991579 
L 167.628488 446.268416 
L 143.675829 454.519219 
L 130.428488 455.659712 
L 93.228488 459.410556 
L 56.028488 468.245857 
" style="fill:none;stroke:#440154;stroke-width:1.5;"/>
   </g>
   <g id="LineCollection_22">
    <path clip-path="url(#p808228d151)" d="M 1117.239603 10.999219 
L 1124.580504 29.479219 
L 1132.223859 47.959219 
L 1134.828488 57.956861 
L 1135.946482 66.439219 
L 1134.828488 68.922831 
L 1121.539038 84.919219 
L 1101.242448 103.399219 
L 1097.628488 106.477647 
L 1077.230087 121.879219 
L 1060.428488 137.759228 
L 1056.977364 140.359219 
L 1031.807261 158.839219 
L 1023.228488 166.405636 
L 1006.877687 177.319219 
L 986.028488 192.107868 
L 979.455418 195.799219 
L 948.828488 209.947403 
L 939.746921 214.279219 
L 911.628488 223.998242 
L 892.932208 232.759219 
L 874.428488 239.257764 
L 849.095378 251.239219 
L 837.228488 256.153226 
L 809.197471 269.719219 
L 800.028488 274.075614 
L 771.361213 288.199219 
L 762.828488 291.933779 
L 732.633164 306.679219 
L 725.628488 310.10306 
L 694.112514 325.159219 
L 688.428488 327.817593 
L 651.228488 342.474554 
L 648.454028 343.639219 
L 614.028488 353.187746 
L 591.638403 362.119219 
L 576.828488 365.622327 
L 539.839747 380.599219 
L 539.628488 380.655705 
L 502.428488 390.724115 
L 481.850755 399.079219 
L 465.228488 402.408975 
L 428.028488 415.289173 
L 422.07788 417.559219 
L 390.828488 422.649265 
L 353.628488 435.876149 
L 353.109529 436.039219 
L 316.428488 440.460306 
L 279.228488 448.419355 
L 258.386523 454.519219 
L 242.028488 456.252417 
L 204.828488 461.526229 
L 183.268715 467.345852 
" style="fill:none;stroke:#440154;stroke-width:1.5;"/>
    <path clip-path="url(#p808228d151)" d="M 151.697015 474.144775 
L 130.428488 476.329289 
L 93.228488 482.724259 
L 62.012531 491.479219 
L 56.028488 492.071412 
" style="fill:none;stroke:#440154;stroke-width:1.5;"/>
   </g>
   <g id="LineCollection_23">
    <path clip-path="url(#p808228d151)" d="M 1172.028488 132.149847 
L 1156.988905 140.359219 
L 1134.828488 152.505611 
L 1123.810414 158.839219 
L 1097.628488 171.994628 
L 1088.28413 177.319219 
L 1060.428488 188.274013 
L 1045.754882 195.799219 
L 1023.228488 204.503746 
L 1002.554325 214.279219 
L 986.028488 220.194091 
L 958.440123 232.759219 
L 948.828488 236.239492 
L 915.975662 251.239219 
L 911.628488 252.975167 
L 876.096563 269.719219 
L 874.428488 270.452271 
L 837.781601 288.199219 
L 837.228488 288.427028 
L 816.517742 297.493371 
" style="fill:none;stroke:#440154;stroke-width:1.5;"/>
    <path clip-path="url(#p808228d151)" d="M 783.605307 312.073511 
L 762.828488 321.156023 
L 754.740326 325.159219 
L 725.628488 341.364003 
L 720.976807 343.639219 
L 688.428488 358.575433 
L 680.021553 362.119219 
L 651.228488 370.888331 
L 626.883561 380.599219 
L 614.028488 383.707435 
L 576.828488 398.250799 
L 574.786294 399.079219 
L 539.628488 405.338845 
L 508.031967 417.559219 
L 502.428488 418.454225 
L 465.228488 426.276566 
L 439.304428 436.039219 
L 428.028488 437.895385 
L 390.828488 446.998663 
L 370.022881 454.519219 
L 353.628488 457.100127 
L 316.428488 466.281353 
L 294.657212 472.999219 
L 279.228488 475.059961 
L 242.028488 481.027048 
L 204.828488 490.933374 
L 202.797055 491.479219 
L 167.628488 495.321944 
L 130.428488 501.911716 
L 100.05873 509.959219 
L 93.228488 510.718575 
L 56.028488 515.278799 
" style="fill:none;stroke:#440154;stroke-width:1.5;"/>
   </g>
   <g id="LineCollection_24">
    <path clip-path="url(#p808228d151)" d="M 1172.028488 177.655434 
L 1134.828488 188.827256 
L 1119.145887 195.799219 
L 1097.628488 202.509384 
L 1071.622148 214.279219 
L 1060.428488 218.019829 
L 1027.977424 232.759219 
L 1023.228488 234.460872 
L 986.688849 251.239219 
L 986.028488 251.495666 
L 948.828488 266.75731 
L 942.517567 269.719219 
L 911.628488 283.197117 
L 901.222243 288.199219 
L 874.428488 299.363048 
L 858.943817 306.679219 
L 837.228488 315.125266 
L 815.927005 325.159219 
L 800.028488 332.035606 
L 776.499606 343.639219 
L 762.828488 350.737501 
L 743.094877 360.961378 
" style="fill:none;stroke:#440154;stroke-width:1.5;"/>
    <path clip-path="url(#p808228d151)" d="M 707.760308 378.816852 
L 704.026889 380.599219 
L 688.428488 383.789561 
L 651.228488 399.055097 
L 651.173084 399.079219 
L 614.028488 405.865169 
L 585.82506 417.559219 
L 576.828488 419.264273 
L 539.628488 429.822273 
L 523.069963 436.039219 
L 502.428488 439.381216 
L 465.228488 451.626798 
L 457.611568 454.519219 
L 428.028488 459.599511 
L 392.598982 472.999219 
L 390.828488 473.30984 
L 353.628488 480.124236 
L 322.810972 491.479219 
L 316.428488 492.589161 
L 279.228488 500.358039 
L 250.497413 509.959219 
L 242.028488 511.307182 
L 204.828488 517.57627 
L 167.628488 527.649562 
L 164.646503 528.439219 
L 130.428488 532.539147 
L 93.228488 539.467137 
L 64.632724 546.919219 
L 56.028488 547.963283 
" style="fill:none;stroke:#440154;stroke-width:1.5;"/>
   </g>
   <g id="LineCollection_25">
    <path clip-path="url(#p808228d151)" d="M 1172.028488 203.138061 
L 1145.901304 214.279219 
L 1134.828488 217.544746 
L 1100.213284 232.759219 
L 1097.628488 233.620168 
L 1060.428488 248.420787 
L 1054.244252 251.239219 
L 1023.228488 263.115757 
L 1009.022946 269.719219 
L 986.028488 279.267379 
L 967.302715 288.199219 
L 948.828488 296.079505 
L 926.624367 306.679219 
L 911.628488 312.820258 
L 885.197415 325.159219 
L 874.428488 329.521487 
L 844.397525 343.639219 
L 837.228488 346.805845 
L 805.94844 362.119219 
L 800.028488 365.027699 
L 769.15163 380.599219 
L 762.828488 382.903567 
L 725.628488 396.473586 
L 719.185022 399.079219 
L 709.686366 400.79021 
" style="fill:none;stroke:#440154;stroke-width:1.5;"/>
    <path clip-path="url(#p808228d151)" d="M 668.354537 412.59413 
L 655.856461 417.559219 
L 651.228488 418.432381 
L 614.028488 427.23835 
L 592.352986 436.039219 
L 576.828488 439.085895 
L 539.628488 453.320958 
L 536.610627 454.519219 
L 502.428488 461.191231 
L 472.217898 472.999219 
L 465.228488 474.399759 
L 428.028488 483.605612 
L 407.405262 491.479219 
L 390.828488 494.579497 
L 353.628488 506.779467 
L 345.189574 509.959219 
L 316.428488 515.397511 
L 281.753976 528.439219 
L 279.228488 528.932548 
L 242.028488 536.540288 
L 212.846149 546.919219 
L 204.828488 548.397665 
L 167.628488 556.189231 
L 137.849284 565.399219 
" style="fill:none;stroke:#440154;stroke-width:1.5;"/>
   </g>
   <g id="LineCollection_26">
    <path clip-path="url(#p808228d151)" d="M 1172.028488 233.805328 
L 1134.828488 247.779067 
L 1127.048568 251.239219 
L 1097.628488 262.096902 
L 1081.013344 269.719219 
L 1060.428488 277.736564 
L 1038.029907 288.199219 
L 1023.228488 294.104503 
L 996.600368 306.679219 
L 986.028488 310.958776 
L 955.874795 325.159219 
L 948.828488 328.119094 
L 916.049424 343.639219 
L 911.628488 345.606481 
L 876.98676 362.119219 
L 874.428488 363.284557 
L 839.089723 380.599219 
L 837.228488 381.468957 
L 800.400602 399.079219 
L 800.028488 399.168694 
L 762.828488 406.767612 
L 756.02275 409.325827 
" style="fill:none;stroke:#450457;stroke-width:1.5;"/>
    <path clip-path="url(#p808228d151)" d="M 711.293218 422.651307 
L 688.428488 428.368348 
L 668.617036 436.039219 
L 651.228488 439.303539 
L 614.028488 452.551665 
L 609.082923 454.519219 
L 576.828488 460.973377 
L 546.750345 472.999219 
L 539.628488 474.481209 
L 502.428488 485.241532 
L 487.024579 491.479219 
L 465.228488 496.185523 
L 430.536924 509.959219 
L 428.028488 510.511317 
L 390.828488 518.901396 
L 366.083719 528.439219 
L 353.628488 531.008557 
L 316.428488 542.824779 
L 305.752976 546.919219 
L 279.228488 552.479386 
L 245.455306 565.399219 
" style="fill:none;stroke:#450457;stroke-width:1.5;"/>
   </g>
   <g id="LineCollection_27">
    <path clip-path="url(#p808228d151)" d="M 1172.028488 263.049493 
L 1157.258694 269.719219 
L 1134.828488 278.234898 
L 1113.114384 288.199219 
L 1097.628488 294.01076 
L 1070.115356 306.679219 
L 1060.428488 310.424712 
L 1028.703898 325.159219 
L 1023.228488 327.39499 
L 988.723005 343.639219 
L 986.028488 344.811493 
L 949.956642 362.119219 
L 948.828488 362.627737 
L 911.849362 380.599219 
L 911.628488 380.708594 
L 874.428488 398.718518 
L 873.688468 399.079219 
L 837.228488 409.288023 
L 816.749166 417.559219 
L 800.028488 420.880407 
L 786.640938 425.516737 
" style="fill:none;stroke:#482475;stroke-width:1.5;"/>
    <path clip-path="url(#p808228d151)" d="M 738.368889 439.517767 
L 725.628488 441.923015 
L 692.193903 454.519219 
L 688.428488 455.238545 
L 651.228488 463.581691 
L 626.784553 472.999219 
L 614.028488 475.592708 
L 576.828488 487.579036 
L 566.909082 491.479219 
L 539.628488 497.292463 
L 507.657188 509.959219 
L 502.428488 511.103683 
L 465.228488 521.433697 
L 447.873624 528.439219 
L 428.028488 533.008862 
L 393.559087 546.919219 
L 390.828488 547.564685 
L 353.628488 556.88382 
L 331.766455 565.399219 
" style="fill:none;stroke:#482475;stroke-width:1.5;"/>
   </g>
   <g id="LineCollection_28">
    <path clip-path="url(#p808228d151)" d="M 1172.028488 295.463132 
L 1147.295646 306.679219 
L 1134.828488 311.335321 
L 1104.633527 325.159219 
L 1097.628488 327.915038 
L 1063.82253 343.639219 
L 1060.428488 345.058602 
L 1024.376772 362.119219 
L 1023.228488 362.624715 
L 986.028488 380.065978 
L 984.922533 380.599219 
L 948.828488 397.429102 
L 945.503631 399.079219 
L 911.628488 411.98329 
L 898.879653 417.559219 
L 874.428488 423.396014 
L 841.535374 436.039219 
L 837.228488 436.899539 
L 826.269491 439.55435 
" style="fill:none;stroke:#fde725;stroke-width:1.5;"/>
    <path clip-path="url(#p808228d151)" d="M 774.703709 455.169233 
L 762.828488 457.676352 
L 725.628488 470.135787 
L 718.016446 472.999219 
L 688.428488 478.945021 
L 655.343855 491.479219 
L 651.228488 492.328318 
L 614.028488 501.41366 
L 591.941182 509.959219 
L 576.828488 513.253431 
L 539.628488 526.600858 
L 534.916772 528.439219 
L 502.428488 535.699902 
L 473.809039 546.919219 
L 465.228488 548.888965 
L 428.028488 560.82388 
L 416.686698 565.399219 
" style="fill:none;stroke:#fde725;stroke-width:1.5;"/>
   </g>
   <g id="line2d_20">
    <path clip-path="url(#p808228d151)" d="M 1087.912417 90.425604 
L 1076.639771 155.187573 
L 1064.881379 208.535188 
L 1054.159852 244.853519 
L 1044.10855 269.498056 
L 1034.474218 286.350372 
L 1025.091486 298.114594 
L 1015.929846 306.328354 
L 1006.817635 312.178547 
L 997.772736 316.360892 
L 988.741744 319.401838 
L 979.609998 321.717685 
L 970.345806 323.587143 
L 960.945478 325.127655 
L 951.459155 326.336078 
L 941.968266 327.296136 
L 932.283581 328.126073 
L 922.552208 328.8223 
L 912.782 329.372738 
L 903.023783 329.751818 
L 893.194069 329.999657 
L 883.319914 330.102942 
L 873.236826 330.12153 
L 862.978151 330.03223 
L 852.556875 329.767207 
L 842.074201 329.404044 
L 831.628587 328.940323 
L 821.065357 328.432153 
L 810.536374 327.820824 
L 799.835116 327.078549 
L 789.099114 326.215031 
L 778.279766 325.227381 
L 767.457036 324.126054 
L 756.561105 322.959704 
L 745.615981 321.680658 
L 734.427971 320.252937 
L 723.083343 318.738966 
L 711.670411 317.070679 
L 700.196399 315.218475 
L 688.80473 313.36418 
L 677.475499 311.492962 
L 666.10677 309.500508 
L 654.632132 307.36208 
L 643.186692 305.20585 
L 631.873023 303.051234 
L 620.23997 300.621453 
L 608.259411 297.889444 
L 596.594109 295.345102 
L 585.384476 293.065156 
L 574.900242 291.033131 
L 573.930601 290.857151 
L 573.01373 290.715334 
L 572.129949 290.597255 
L 571.259096 290.493176 
L 570.398198 290.395164 
L 569.549226 290.297857 
L 568.696096 290.203867 
L 567.836385 290.103927 
L 566.989122 289.999264 
L 566.140792 289.893005 
L 565.297078 289.789136 
L 564.460746 289.687916 
L 563.624361 289.584542 
L 562.787804 289.479148 
L 561.955124 289.376342 
L 561.13865 289.27356 
L 560.329083 289.178696 
L 559.517241 289.086175 
L 558.709439 288.991422 
L 557.90249 288.885914 
L 557.093856 288.776287 
L 556.292902 288.669059 
L 555.508735 288.567786 
L 554.731677 288.479336 
L 553.953939 288.394243 
L 553.875763 288.385821 
L 553.798138 288.377772 
L 553.719782 288.369615 
L 553.640993 288.361918 
L 553.56317 288.354763 
L 553.487034 288.347882 
L 553.411593 288.340464 
L 553.335716 288.332984 
L 553.259184 288.325641 
L 553.18237 288.318463 
L 553.105343 288.311507 
L 553.029279 288.3047 
L 552.953711 288.29732 
L 552.877949 288.289697 
L 552.802034 288.282352 
L 552.724818 288.274714 
L 552.647553 288.266659 
L 552.570126 288.258495 
L 552.492596 288.25059 
L 552.416698 288.242362 
L 552.340006 288.233751 
L 552.262374 288.22485 
L 552.184711 288.215829 
L 552.106081 288.207361 
" style="fill:none;stroke:#1f77b4;stroke-linecap:square;stroke-width:1.5;"/>
    <defs>
     <path d="M 0 1.5 
C 0.397805 1.5 0.77937 1.341951 1.06066 1.06066 
C 1.341951 0.77937 1.5 0.397805 1.5 0 
C 1.5 -0.397805 1.341951 -0.77937 1.06066 -1.06066 
C 0.77937 -1.341951 0.397805 -1.5 0 -1.5 
C -0.397805 -1.5 -0.77937 -1.341951 -1.06066 -1.06066 
C -1.341951 -0.77937 -1.5 -0.397805 -1.5 0 
C -1.5 0.397805 -1.341951 0.77937 -1.06066 1.06066 
C -0.77937 1.341951 -0.397805 1.5 0 1.5 
z
" id="m89e665a7a0" style="stroke:#1f77b4;"/>
    </defs>
    <g clip-path="url(#p808228d151)">
     <use style="fill:#1f77b4;stroke:#1f77b4;" x="1087.912417" xlink:href="#m89e665a7a0" y="90.425604"/>
     <use style="fill:#1f77b4;stroke:#1f77b4;" x="1076.639771" xlink:href="#m89e665a7a0" y="155.187573"/>
     <use style="fill:#1f77b4;stroke:#1f77b4;" x="1064.881379" xlink:href="#m89e665a7a0" y="208.535188"/>
     <use style="fill:#1f77b4;stroke:#1f77b4;" x="1054.159852" xlink:href="#m89e665a7a0" y="244.853519"/>
     <use style="fill:#1f77b4;stroke:#1f77b4;" x="1044.10855" xlink:href="#m89e665a7a0" y="269.498056"/>
     <use style="fill:#1f77b4;stroke:#1f77b4;" x="1034.474218" xlink:href="#m89e665a7a0" y="286.350372"/>
     <use style="fill:#1f77b4;stroke:#1f77b4;" x="1025.091486" xlink:href="#m89e665a7a0" y="298.114594"/>
     <use style="fill:#1f77b4;stroke:#1f77b4;" x="1015.929846" xlink:href="#m89e665a7a0" y="306.328354"/>
     <use style="fill:#1f77b4;stroke:#1f77b4;" x="1006.817635" xlink:href="#m89e665a7a0" y="312.178547"/>
     <use style="fill:#1f77b4;stroke:#1f77b4;" x="997.772736" xlink:href="#m89e665a7a0" y="316.360892"/>
     <use style="fill:#1f77b4;stroke:#1f77b4;" x="988.741744" xlink:href="#m89e665a7a0" y="319.401838"/>
     <use style="fill:#1f77b4;stroke:#1f77b4;" x="979.609998" xlink:href="#m89e665a7a0" y="321.717685"/>
     <use style="fill:#1f77b4;stroke:#1f77b4;" x="970.345806" xlink:href="#m89e665a7a0" y="323.587143"/>
     <use style="fill:#1f77b4;stroke:#1f77b4;" x="960.945478" xlink:href="#m89e665a7a0" y="325.127655"/>
     <use style="fill:#1f77b4;stroke:#1f77b4;" x="951.459155" xlink:href="#m89e665a7a0" y="326.336078"/>
     <use style="fill:#1f77b4;stroke:#1f77b4;" x="941.968266" xlink:href="#m89e665a7a0" y="327.296136"/>
     <use style="fill:#1f77b4;stroke:#1f77b4;" x="932.283581" xlink:href="#m89e665a7a0" y="328.126073"/>
     <use style="fill:#1f77b4;stroke:#1f77b4;" x="922.552208" xlink:href="#m89e665a7a0" y="328.8223"/>
     <use style="fill:#1f77b4;stroke:#1f77b4;" x="912.782" xlink:href="#m89e665a7a0" y="329.372738"/>
     <use style="fill:#1f77b4;stroke:#1f77b4;" x="903.023783" xlink:href="#m89e665a7a0" y="329.751818"/>
     <use style="fill:#1f77b4;stroke:#1f77b4;" x="893.194069" xlink:href="#m89e665a7a0" y="329.999657"/>
     <use style="fill:#1f77b4;stroke:#1f77b4;" x="883.319914" xlink:href="#m89e665a7a0" y="330.102942"/>
     <use style="fill:#1f77b4;stroke:#1f77b4;" x="873.236826" xlink:href="#m89e665a7a0" y="330.12153"/>
     <use style="fill:#1f77b4;stroke:#1f77b4;" x="862.978151" xlink:href="#m89e665a7a0" y="330.03223"/>
     <use style="fill:#1f77b4;stroke:#1f77b4;" x="852.556875" xlink:href="#m89e665a7a0" y="329.767207"/>
     <use style="fill:#1f77b4;stroke:#1f77b4;" x="842.074201" xlink:href="#m89e665a7a0" y="329.404044"/>
     <use style="fill:#1f77b4;stroke:#1f77b4;" x="831.628587" xlink:href="#m89e665a7a0" y="328.940323"/>
     <use style="fill:#1f77b4;stroke:#1f77b4;" x="821.065357" xlink:href="#m89e665a7a0" y="328.432153"/>
     <use style="fill:#1f77b4;stroke:#1f77b4;" x="810.536374" xlink:href="#m89e665a7a0" y="327.820824"/>
     <use style="fill:#1f77b4;stroke:#1f77b4;" x="799.835116" xlink:href="#m89e665a7a0" y="327.078549"/>
     <use style="fill:#1f77b4;stroke:#1f77b4;" x="789.099114" xlink:href="#m89e665a7a0" y="326.215031"/>
     <use style="fill:#1f77b4;stroke:#1f77b4;" x="778.279766" xlink:href="#m89e665a7a0" y="325.227381"/>
     <use style="fill:#1f77b4;stroke:#1f77b4;" x="767.457036" xlink:href="#m89e665a7a0" y="324.126054"/>
     <use style="fill:#1f77b4;stroke:#1f77b4;" x="756.561105" xlink:href="#m89e665a7a0" y="322.959704"/>
     <use style="fill:#1f77b4;stroke:#1f77b4;" x="745.615981" xlink:href="#m89e665a7a0" y="321.680658"/>
     <use style="fill:#1f77b4;stroke:#1f77b4;" x="734.427971" xlink:href="#m89e665a7a0" y="320.252937"/>
     <use style="fill:#1f77b4;stroke:#1f77b4;" x="723.083343" xlink:href="#m89e665a7a0" y="318.738966"/>
     <use style="fill:#1f77b4;stroke:#1f77b4;" x="711.670411" xlink:href="#m89e665a7a0" y="317.070679"/>
     <use style="fill:#1f77b4;stroke:#1f77b4;" x="700.196399" xlink:href="#m89e665a7a0" y="315.218475"/>
     <use style="fill:#1f77b4;stroke:#1f77b4;" x="688.80473" xlink:href="#m89e665a7a0" y="313.36418"/>
     <use style="fill:#1f77b4;stroke:#1f77b4;" x="677.475499" xlink:href="#m89e665a7a0" y="311.492962"/>
     <use style="fill:#1f77b4;stroke:#1f77b4;" x="666.10677" xlink:href="#m89e665a7a0" y="309.500508"/>
     <use style="fill:#1f77b4;stroke:#1f77b4;" x="654.632132" xlink:href="#m89e665a7a0" y="307.36208"/>
     <use style="fill:#1f77b4;stroke:#1f77b4;" x="643.186692" xlink:href="#m89e665a7a0" y="305.20585"/>
     <use style="fill:#1f77b4;stroke:#1f77b4;" x="631.873023" xlink:href="#m89e665a7a0" y="303.051234"/>
     <use style="fill:#1f77b4;stroke:#1f77b4;" x="620.23997" xlink:href="#m89e665a7a0" y="300.621453"/>
     <use style="fill:#1f77b4;stroke:#1f77b4;" x="608.259411" xlink:href="#m89e665a7a0" y="297.889444"/>
     <use style="fill:#1f77b4;stroke:#1f77b4;" x="596.594109" xlink:href="#m89e665a7a0" y="295.345102"/>
     <use style="fill:#1f77b4;stroke:#1f77b4;" x="585.384476" xlink:href="#m89e665a7a0" y="293.065156"/>
     <use style="fill:#1f77b4;stroke:#1f77b4;" x="574.900242" xlink:href="#m89e665a7a0" y="291.033131"/>
     <use style="fill:#1f77b4;stroke:#1f77b4;" x="573.930601" xlink:href="#m89e665a7a0" y="290.857151"/>
     <use style="fill:#1f77b4;stroke:#1f77b4;" x="573.01373" xlink:href="#m89e665a7a0" y="290.715334"/>
     <use style="fill:#1f77b4;stroke:#1f77b4;" x="572.129949" xlink:href="#m89e665a7a0" y="290.597255"/>
     <use style="fill:#1f77b4;stroke:#1f77b4;" x="571.259096" xlink:href="#m89e665a7a0" y="290.493176"/>
     <use style="fill:#1f77b4;stroke:#1f77b4;" x="570.398198" xlink:href="#m89e665a7a0" y="290.395164"/>
     <use style="fill:#1f77b4;stroke:#1f77b4;" x="569.549226" xlink:href="#m89e665a7a0" y="290.297857"/>
     <use style="fill:#1f77b4;stroke:#1f77b4;" x="568.696096" xlink:href="#m89e665a7a0" y="290.203867"/>
     <use style="fill:#1f77b4;stroke:#1f77b4;" x="567.836385" xlink:href="#m89e665a7a0" y="290.103927"/>
     <use style="fill:#1f77b4;stroke:#1f77b4;" x="566.989122" xlink:href="#m89e665a7a0" y="289.999264"/>
     <use style="fill:#1f77b4;stroke:#1f77b4;" x="566.140792" xlink:href="#m89e665a7a0" y="289.893005"/>
     <use style="fill:#1f77b4;stroke:#1f77b4;" x="565.297078" xlink:href="#m89e665a7a0" y="289.789136"/>
     <use style="fill:#1f77b4;stroke:#1f77b4;" x="564.460746" xlink:href="#m89e665a7a0" y="289.687916"/>
     <use style="fill:#1f77b4;stroke:#1f77b4;" x="563.624361" xlink:href="#m89e665a7a0" y="289.584542"/>
     <use style="fill:#1f77b4;stroke:#1f77b4;" x="562.787804" xlink:href="#m89e665a7a0" y="289.479148"/>
     <use style="fill:#1f77b4;stroke:#1f77b4;" x="561.955124" xlink:href="#m89e665a7a0" y="289.376342"/>
     <use style="fill:#1f77b4;stroke:#1f77b4;" x="561.13865" xlink:href="#m89e665a7a0" y="289.27356"/>
     <use style="fill:#1f77b4;stroke:#1f77b4;" x="560.329083" xlink:href="#m89e665a7a0" y="289.178696"/>
     <use style="fill:#1f77b4;stroke:#1f77b4;" x="559.517241" xlink:href="#m89e665a7a0" y="289.086175"/>
     <use style="fill:#1f77b4;stroke:#1f77b4;" x="558.709439" xlink:href="#m89e665a7a0" y="288.991422"/>
     <use style="fill:#1f77b4;stroke:#1f77b4;" x="557.90249" xlink:href="#m89e665a7a0" y="288.885914"/>
     <use style="fill:#1f77b4;stroke:#1f77b4;" x="557.093856" xlink:href="#m89e665a7a0" y="288.776287"/>
     <use style="fill:#1f77b4;stroke:#1f77b4;" x="556.292902" xlink:href="#m89e665a7a0" y="288.669059"/>
     <use style="fill:#1f77b4;stroke:#1f77b4;" x="555.508735" xlink:href="#m89e665a7a0" y="288.567786"/>
     <use style="fill:#1f77b4;stroke:#1f77b4;" x="554.731677" xlink:href="#m89e665a7a0" y="288.479336"/>
     <use style="fill:#1f77b4;stroke:#1f77b4;" x="553.953939" xlink:href="#m89e665a7a0" y="288.394243"/>
     <use style="fill:#1f77b4;stroke:#1f77b4;" x="553.875763" xlink:href="#m89e665a7a0" y="288.385821"/>
     <use style="fill:#1f77b4;stroke:#1f77b4;" x="553.798138" xlink:href="#m89e665a7a0" y="288.377772"/>
     <use style="fill:#1f77b4;stroke:#1f77b4;" x="553.719782" xlink:href="#m89e665a7a0" y="288.369615"/>
     <use style="fill:#1f77b4;stroke:#1f77b4;" x="553.640993" xlink:href="#m89e665a7a0" y="288.361918"/>
     <use style="fill:#1f77b4;stroke:#1f77b4;" x="553.56317" xlink:href="#m89e665a7a0" y="288.354763"/>
     <use style="fill:#1f77b4;stroke:#1f77b4;" x="553.487034" xlink:href="#m89e665a7a0" y="288.347882"/>
     <use style="fill:#1f77b4;stroke:#1f77b4;" x="553.411593" xlink:href="#m89e665a7a0" y="288.340464"/>
     <use style="fill:#1f77b4;stroke:#1f77b4;" x="553.335716" xlink:href="#m89e665a7a0" y="288.332984"/>
     <use style="fill:#1f77b4;stroke:#1f77b4;" x="553.259184" xlink:href="#m89e665a7a0" y="288.325641"/>
     <use style="fill:#1f77b4;stroke:#1f77b4;" x="553.18237" xlink:href="#m89e665a7a0" y="288.318463"/>
     <use style="fill:#1f77b4;stroke:#1f77b4;" x="553.105343" xlink:href="#m89e665a7a0" y="288.311507"/>
     <use style="fill:#1f77b4;stroke:#1f77b4;" x="553.029279" xlink:href="#m89e665a7a0" y="288.3047"/>
     <use style="fill:#1f77b4;stroke:#1f77b4;" x="552.953711" xlink:href="#m89e665a7a0" y="288.29732"/>
     <use style="fill:#1f77b4;stroke:#1f77b4;" x="552.877949" xlink:href="#m89e665a7a0" y="288.289697"/>
     <use style="fill:#1f77b4;stroke:#1f77b4;" x="552.802034" xlink:href="#m89e665a7a0" y="288.282352"/>
     <use style="fill:#1f77b4;stroke:#1f77b4;" x="552.724818" xlink:href="#m89e665a7a0" y="288.274714"/>
     <use style="fill:#1f77b4;stroke:#1f77b4;" x="552.647553" xlink:href="#m89e665a7a0" y="288.266659"/>
     <use style="fill:#1f77b4;stroke:#1f77b4;" x="552.570126" xlink:href="#m89e665a7a0" y="288.258495"/>
     <use style="fill:#1f77b4;stroke:#1f77b4;" x="552.492596" xlink:href="#m89e665a7a0" y="288.25059"/>
     <use style="fill:#1f77b4;stroke:#1f77b4;" x="552.416698" xlink:href="#m89e665a7a0" y="288.242362"/>
     <use style="fill:#1f77b4;stroke:#1f77b4;" x="552.340006" xlink:href="#m89e665a7a0" y="288.233751"/>
     <use style="fill:#1f77b4;stroke:#1f77b4;" x="552.262374" xlink:href="#m89e665a7a0" y="288.22485"/>
     <use style="fill:#1f77b4;stroke:#1f77b4;" x="552.184711" xlink:href="#m89e665a7a0" y="288.215829"/>
     <use style="fill:#1f77b4;stroke:#1f77b4;" x="552.106081" xlink:href="#m89e665a7a0" y="288.207361"/>
    </g>
   </g>
   <g id="patch_3">
    <path d="M 56.028488 565.399219 
L 56.028488 10.999219 
" style="fill:none;stroke:#000000;stroke-linecap:square;stroke-linejoin:miter;stroke-width:0.8;"/>
   </g>
   <g id="patch_4">
    <path d="M 1172.028487 565.399219 
L 1172.028487 10.999219 
" style="fill:none;stroke:#000000;stroke-linecap:square;stroke-linejoin:miter;stroke-width:0.8;"/>
   </g>
   <g id="patch_5">
    <path d="M 56.028488 565.399219 
L 1172.028488 565.399219 
" style="fill:none;stroke:#000000;stroke-linecap:square;stroke-linejoin:miter;stroke-width:0.8;"/>
   </g>
   <g id="patch_6">
    <path d="M 56.028488 10.999219 
L 1172.028488 10.999219 
" style="fill:none;stroke:#000000;stroke-linecap:square;stroke-linejoin:miter;stroke-width:0.8;"/>
   </g>
   <g id="text_22">
    <g clip-path="url(#p808228d151)">
     <!-- 1.500 -->
     <g style="fill:#453781;" transform="translate(679.845724 208.438438)rotate(-0.194647)scale(0.06 -0.06)">
      <use xlink:href="#DejaVuSans-49"/>
      <use x="63.623047" xlink:href="#DejaVuSans-46"/>
      <use x="95.410156" xlink:href="#DejaVuSans-53"/>
      <use x="159.033203" xlink:href="#DejaVuSans-48"/>
      <use x="222.65625" xlink:href="#DejaVuSans-48"/>
     </g>
    </g>
   </g>
   <g id="text_23">
    <g clip-path="url(#p808228d151)">
     <!-- 2.000 -->
     <g style="fill:#404688;" transform="translate(374.117562 238.278323)rotate(-28.212862)scale(0.06 -0.06)">
      <use xlink:href="#DejaVuSans-50"/>
      <use x="63.623047" xlink:href="#DejaVuSans-46"/>
      <use x="95.410156" xlink:href="#DejaVuSans-48"/>
      <use x="159.033203" xlink:href="#DejaVuSans-48"/>
      <use x="222.65625" xlink:href="#DejaVuSans-48"/>
     </g>
    </g>
   </g>
   <g id="text_24">
    <g clip-path="url(#p808228d151)">
     <!-- 2.500 -->
     <g style="fill:#39558c;" transform="translate(542.673315 329.384992)rotate(-17.979099)scale(0.06 -0.06)">
      <use xlink:href="#DejaVuSans-50"/>
      <use x="63.623047" xlink:href="#DejaVuSans-46"/>
      <use x="95.410156" xlink:href="#DejaVuSans-53"/>
      <use x="159.033203" xlink:href="#DejaVuSans-48"/>
      <use x="222.65625" xlink:href="#DejaVuSans-48"/>
     </g>
    </g>
   </g>
   <g id="text_25">
    <g clip-path="url(#p808228d151)">
     <!-- 3.000 -->
     <g style="fill:#33638d;" transform="translate(644.046519 295.820205)rotate(-23.891757)scale(0.06 -0.06)">
      <defs>
       <path d="M 40.578125 39.3125 
Q 47.65625 37.796875 51.625 33 
Q 55.609375 28.21875 55.609375 21.1875 
Q 55.609375 10.40625 48.1875 4.484375 
Q 40.765625 -1.421875 27.09375 -1.421875 
Q 22.515625 -1.421875 17.65625 -0.515625 
Q 12.796875 0.390625 7.625 2.203125 
L 7.625 11.71875 
Q 11.71875 9.328125 16.59375 8.109375 
Q 21.484375 6.890625 26.8125 6.890625 
Q 36.078125 6.890625 40.9375 10.546875 
Q 45.796875 14.203125 45.796875 21.1875 
Q 45.796875 27.640625 41.28125 31.265625 
Q 36.765625 34.90625 28.71875 34.90625 
L 20.21875 34.90625 
L 20.21875 43.015625 
L 29.109375 43.015625 
Q 36.375 43.015625 40.234375 45.921875 
Q 44.09375 48.828125 44.09375 54.296875 
Q 44.09375 59.90625 40.109375 62.90625 
Q 36.140625 65.921875 28.71875 65.921875 
Q 24.65625 65.921875 20.015625 65.03125 
Q 15.375 64.15625 9.8125 62.3125 
L 9.8125 71.09375 
Q 15.4375 72.65625 20.34375 73.4375 
Q 25.25 74.21875 29.59375 74.21875 
Q 40.828125 74.21875 47.359375 69.109375 
Q 53.90625 64.015625 53.90625 55.328125 
Q 53.90625 49.265625 50.4375 45.09375 
Q 46.96875 40.921875 40.578125 39.3125 
z
" id="DejaVuSans-51"/>
      </defs>
      <use xlink:href="#DejaVuSans-51"/>
      <use x="63.623047" xlink:href="#DejaVuSans-46"/>
      <use x="95.410156" xlink:href="#DejaVuSans-48"/>
      <use x="159.033203" xlink:href="#DejaVuSans-48"/>
      <use x="222.65625" xlink:href="#DejaVuSans-48"/>
     </g>
    </g>
   </g>
   <g id="text_26">
    <g clip-path="url(#p808228d151)">
     <!-- 3.500 -->
     <g style="fill:#2d718e;" transform="translate(565.562189 329.347707)rotate(-17.700514)scale(0.06 -0.06)">
      <use xlink:href="#DejaVuSans-51"/>
      <use x="63.623047" xlink:href="#DejaVuSans-46"/>
      <use x="95.410156" xlink:href="#DejaVuSans-53"/>
      <use x="159.033203" xlink:href="#DejaVuSans-48"/>
      <use x="222.65625" xlink:href="#DejaVuSans-48"/>
     </g>
    </g>
   </g>
   <g id="text_27">
    <g clip-path="url(#p808228d151)">
     <!-- 4.000 -->
     <g style="fill:#287d8e;" transform="translate(865.685882 34.537411)rotate(-347.365231)scale(0.06 -0.06)">
      <defs>
       <path d="M 37.796875 64.3125 
L 12.890625 25.390625 
L 37.796875 25.390625 
z
M 35.203125 72.90625 
L 47.609375 72.90625 
L 47.609375 25.390625 
L 58.015625 25.390625 
L 58.015625 17.1875 
L 47.609375 17.1875 
L 47.609375 0 
L 37.796875 0 
L 37.796875 17.1875 
L 4.890625 17.1875 
L 4.890625 26.703125 
z
" id="DejaVuSans-52"/>
      </defs>
      <use xlink:href="#DejaVuSans-52"/>
      <use x="63.623047" xlink:href="#DejaVuSans-46"/>
      <use x="95.410156" xlink:href="#DejaVuSans-48"/>
      <use x="159.033203" xlink:href="#DejaVuSans-48"/>
      <use x="222.65625" xlink:href="#DejaVuSans-48"/>
     </g>
    </g>
   </g>
   <g id="text_28">
    <g clip-path="url(#p808228d151)">
     <!-- 4.500 -->
     <g style="fill:#238a8d;" transform="translate(494.743411 353.472734)rotate(-17.610034)scale(0.06 -0.06)">
      <use xlink:href="#DejaVuSans-52"/>
      <use x="63.623047" xlink:href="#DejaVuSans-46"/>
      <use x="95.410156" xlink:href="#DejaVuSans-53"/>
      <use x="159.033203" xlink:href="#DejaVuSans-48"/>
      <use x="222.65625" xlink:href="#DejaVuSans-48"/>
     </g>
    </g>
   </g>
   <g id="text_29">
    <g clip-path="url(#p808228d151)">
     <!-- 5.000 -->
     <g style="fill:#1f968b;" transform="translate(457.46516 368.470084)rotate(-16.517256)scale(0.06 -0.06)">
      <use xlink:href="#DejaVuSans-53"/>
      <use x="63.623047" xlink:href="#DejaVuSans-46"/>
      <use x="95.410156" xlink:href="#DejaVuSans-48"/>
      <use x="159.033203" xlink:href="#DejaVuSans-48"/>
      <use x="222.65625" xlink:href="#DejaVuSans-48"/>
     </g>
    </g>
   </g>
   <g id="text_30">
    <g clip-path="url(#p808228d151)">
     <!-- 5.500 -->
     <g style="fill:#20a386;" transform="translate(420.334615 384.348452)rotate(-17.48912)scale(0.06 -0.06)">
      <use xlink:href="#DejaVuSans-53"/>
      <use x="63.623047" xlink:href="#DejaVuSans-46"/>
      <use x="95.410156" xlink:href="#DejaVuSans-53"/>
      <use x="159.033203" xlink:href="#DejaVuSans-48"/>
      <use x="222.65625" xlink:href="#DejaVuSans-48"/>
     </g>
    </g>
   </g>
   <g id="text_31">
    <g clip-path="url(#p808228d151)">
     <!-- 6.000 -->
     <g style="fill:#29af7f;" transform="translate(949.919632 166.185069)rotate(-46.213616)scale(0.06 -0.06)">
      <use xlink:href="#DejaVuSans-54"/>
      <use x="63.623047" xlink:href="#DejaVuSans-46"/>
      <use x="95.410156" xlink:href="#DejaVuSans-48"/>
      <use x="159.033203" xlink:href="#DejaVuSans-48"/>
      <use x="222.65625" xlink:href="#DejaVuSans-48"/>
     </g>
    </g>
   </g>
   <g id="text_32">
    <g clip-path="url(#p808228d151)">
     <!-- 6.500 -->
     <g style="fill:#3dbc74;" transform="translate(924.277651 182.979762)rotate(-29.417561)scale(0.06 -0.06)">
      <use xlink:href="#DejaVuSans-54"/>
      <use x="63.623047" xlink:href="#DejaVuSans-46"/>
      <use x="95.410156" xlink:href="#DejaVuSans-53"/>
      <use x="159.033203" xlink:href="#DejaVuSans-48"/>
      <use x="222.65625" xlink:href="#DejaVuSans-48"/>
     </g>
    </g>
   </g>
   <g id="text_33">
    <g clip-path="url(#p808228d151)">
     <!-- 7.000 -->
     <g style="fill:#56c667;" transform="translate(999.84801 111.605998)rotate(-58.854451)scale(0.06 -0.06)">
      <defs>
       <path d="M 8.203125 72.90625 
L 55.078125 72.90625 
L 55.078125 68.703125 
L 28.609375 0 
L 18.3125 0 
L 43.21875 64.59375 
L 8.203125 64.59375 
z
" id="DejaVuSans-55"/>
      </defs>
      <use xlink:href="#DejaVuSans-55"/>
      <use x="63.623047" xlink:href="#DejaVuSans-46"/>
      <use x="95.410156" xlink:href="#DejaVuSans-48"/>
      <use x="159.033203" xlink:href="#DejaVuSans-48"/>
      <use x="222.65625" xlink:href="#DejaVuSans-48"/>
     </g>
    </g>
   </g>
   <g id="text_34">
    <g clip-path="url(#p808228d151)">
     <!-- 7.500 -->
     <g style="fill:#75d054;" transform="translate(981.75687 147.22417)rotate(-49.854779)scale(0.06 -0.06)">
      <use xlink:href="#DejaVuSans-55"/>
      <use x="63.623047" xlink:href="#DejaVuSans-46"/>
      <use x="95.410156" xlink:href="#DejaVuSans-53"/>
      <use x="159.033203" xlink:href="#DejaVuSans-48"/>
      <use x="222.65625" xlink:href="#DejaVuSans-48"/>
     </g>
    </g>
   </g>
   <g id="text_35">
    <g clip-path="url(#p808228d151)">
     <!-- 8.000 -->
     <g style="fill:#95d840;" transform="translate(431.648108 384.799623)rotate(-17.789466)scale(0.06 -0.06)">
      <use xlink:href="#DejaVuSans-56"/>
      <use x="63.623047" xlink:href="#DejaVuSans-46"/>
      <use x="95.410156" xlink:href="#DejaVuSans-48"/>
      <use x="159.033203" xlink:href="#DejaVuSans-48"/>
      <use x="222.65625" xlink:href="#DejaVuSans-48"/>
     </g>
    </g>
   </g>
   <g id="text_36">
    <g clip-path="url(#p808228d151)">
     <!-- 8.500 -->
     <g style="fill:#bade28;" transform="translate(433.973797 384.799623)rotate(-17.789466)scale(0.06 -0.06)">
      <use xlink:href="#DejaVuSans-56"/>
      <use x="63.623047" xlink:href="#DejaVuSans-46"/>
      <use x="95.410156" xlink:href="#DejaVuSans-53"/>
      <use x="159.033203" xlink:href="#DejaVuSans-48"/>
      <use x="222.65625" xlink:href="#DejaVuSans-48"/>
     </g>
    </g>
   </g>
   <g id="text_37">
    <g clip-path="url(#p808228d151)">
     <!-- 9.000 -->
     <g style="fill:#dde318;" transform="translate(436.299487 384.799623)rotate(-17.789466)scale(0.06 -0.06)">
      <use xlink:href="#DejaVuSans-57"/>
      <use x="63.623047" xlink:href="#DejaVuSans-46"/>
      <use x="95.410156" xlink:href="#DejaVuSans-48"/>
      <use x="159.033203" xlink:href="#DejaVuSans-48"/>
      <use x="222.65625" xlink:href="#DejaVuSans-48"/>
     </g>
    </g>
   </g>
   <g id="text_38">
    <g clip-path="url(#p808228d151)">
     <!-- 9.500 -->
     <g style="fill:#fde725;" transform="translate(438.625177 384.799623)rotate(-17.789466)scale(0.06 -0.06)">
      <use xlink:href="#DejaVuSans-57"/>
      <use x="63.623047" xlink:href="#DejaVuSans-46"/>
      <use x="95.410156" xlink:href="#DejaVuSans-53"/>
      <use x="159.033203" xlink:href="#DejaVuSans-48"/>
      <use x="222.65625" xlink:href="#DejaVuSans-48"/>
     </g>
    </g>
   </g>
   <g id="text_39">
    <g clip-path="url(#p808228d151)">
     <!-- 10.000 -->
     <g style="fill:#440154;" transform="translate(904.377836 201.632266)rotate(-24.32813)scale(0.06 -0.06)">
      <use xlink:href="#DejaVuSans-49"/>
      <use x="63.623047" xlink:href="#DejaVuSans-48"/>
      <use x="127.246094" xlink:href="#DejaVuSans-46"/>
      <use x="159.033203" xlink:href="#DejaVuSans-48"/>
      <use x="222.65625" xlink:href="#DejaVuSans-48"/>
      <use x="286.279297" xlink:href="#DejaVuSans-48"/>
     </g>
    </g>
   </g>
   <g id="text_40">
    <g clip-path="url(#p808228d151)">
     <!-- 100.000 -->
     <g style="fill:#440154;" transform="translate(155.884705 475.895656)rotate(-12.629362)scale(0.06 -0.06)">
      <use xlink:href="#DejaVuSans-49"/>
      <use x="63.623047" xlink:href="#DejaVuSans-48"/>
      <use x="127.246094" xlink:href="#DejaVuSans-48"/>
      <use x="190.869141" xlink:href="#DejaVuSans-46"/>
      <use x="222.65625" xlink:href="#DejaVuSans-48"/>
      <use x="286.279297" xlink:href="#DejaVuSans-48"/>
      <use x="349.902344" xlink:href="#DejaVuSans-48"/>
     </g>
    </g>
   </g>
   <g id="text_41">
    <g clip-path="url(#p808228d151)">
     <!-- 1000.000 -->
     <g style="fill:#440154;" transform="translate(787.619627 312.0378)rotate(-23.959774)scale(0.06 -0.06)">
      <use xlink:href="#DejaVuSans-49"/>
      <use x="63.623047" xlink:href="#DejaVuSans-48"/>
      <use x="127.246094" xlink:href="#DejaVuSans-48"/>
      <use x="190.869141" xlink:href="#DejaVuSans-48"/>
      <use x="254.492188" xlink:href="#DejaVuSans-46"/>
      <use x="286.279297" xlink:href="#DejaVuSans-48"/>
      <use x="349.902344" xlink:href="#DejaVuSans-48"/>
      <use x="413.525391" xlink:href="#DejaVuSans-48"/>
     </g>
    </g>
   </g>
   <g id="text_42">
    <g clip-path="url(#p808228d151)">
     <!-- 10000.000 -->
     <g style="fill:#440154;" transform="translate(711.903416 379.093436)rotate(-26.86026)scale(0.06 -0.06)">
      <use xlink:href="#DejaVuSans-49"/>
      <use x="63.623047" xlink:href="#DejaVuSans-48"/>
      <use x="127.246094" xlink:href="#DejaVuSans-48"/>
      <use x="190.869141" xlink:href="#DejaVuSans-48"/>
      <use x="254.492188" xlink:href="#DejaVuSans-48"/>
      <use x="318.115234" xlink:href="#DejaVuSans-46"/>
      <use x="349.902344" xlink:href="#DejaVuSans-48"/>
      <use x="413.525391" xlink:href="#DejaVuSans-48"/>
      <use x="477.148438" xlink:href="#DejaVuSans-48"/>
     </g>
    </g>
   </g>
   <g id="text_43">
    <g clip-path="url(#p808228d151)">
     <!-- 100000.000 -->
     <g style="fill:#440154;" transform="translate(671.44803 411.190641)rotate(-15.938765)scale(0.06 -0.06)">
      <use xlink:href="#DejaVuSans-49"/>
      <use x="63.623047" xlink:href="#DejaVuSans-48"/>
      <use x="127.246094" xlink:href="#DejaVuSans-48"/>
      <use x="190.869141" xlink:href="#DejaVuSans-48"/>
      <use x="254.492188" xlink:href="#DejaVuSans-48"/>
      <use x="318.115234" xlink:href="#DejaVuSans-48"/>
      <use x="381.738281" xlink:href="#DejaVuSans-46"/>
      <use x="413.525391" xlink:href="#DejaVuSans-48"/>
      <use x="477.148438" xlink:href="#DejaVuSans-48"/>
      <use x="540.771484" xlink:href="#DejaVuSans-48"/>
     </g>
    </g>
   </g>
   <g id="text_44">
    <g clip-path="url(#p808228d151)">
     <!-- 1000000.000 -->
     <g style="fill:#450457;" transform="translate(715.368129 424.824377)rotate(-16.456537)scale(0.06 -0.06)">
      <use xlink:href="#DejaVuSans-49"/>
      <use x="63.623047" xlink:href="#DejaVuSans-48"/>
      <use x="127.246094" xlink:href="#DejaVuSans-48"/>
      <use x="190.869141" xlink:href="#DejaVuSans-48"/>
      <use x="254.492188" xlink:href="#DejaVuSans-48"/>
      <use x="318.115234" xlink:href="#DejaVuSans-48"/>
      <use x="381.738281" xlink:href="#DejaVuSans-48"/>
      <use x="445.361328" xlink:href="#DejaVuSans-46"/>
      <use x="477.148438" xlink:href="#DejaVuSans-48"/>
      <use x="540.771484" xlink:href="#DejaVuSans-48"/>
      <use x="604.394531" xlink:href="#DejaVuSans-48"/>
     </g>
    </g>
   </g>
   <g id="text_45">
    <g clip-path="url(#p808228d151)">
     <!-- 10000000.000 -->
     <g style="fill:#482475;" transform="translate(742.237599 441.544463)rotate(-16.3875)scale(0.06 -0.06)">
      <use xlink:href="#DejaVuSans-49"/>
      <use x="63.623047" xlink:href="#DejaVuSans-48"/>
      <use x="127.246094" xlink:href="#DejaVuSans-48"/>
      <use x="190.869141" xlink:href="#DejaVuSans-48"/>
      <use x="254.492188" xlink:href="#DejaVuSans-48"/>
      <use x="318.115234" xlink:href="#DejaVuSans-48"/>
      <use x="381.738281" xlink:href="#DejaVuSans-48"/>
      <use x="445.361328" xlink:href="#DejaVuSans-48"/>
      <use x="508.984375" xlink:href="#DejaVuSans-46"/>
      <use x="540.771484" xlink:href="#DejaVuSans-48"/>
      <use x="604.394531" xlink:href="#DejaVuSans-48"/>
      <use x="668.017578" xlink:href="#DejaVuSans-48"/>
     </g>
    </g>
   </g>
   <g id="text_46">
    <g clip-path="url(#p808228d151)">
     <!-- 100000000.000 -->
     <g style="fill:#fde725;" transform="translate(777.754726 454.620158)rotate(-17.385675)scale(0.06 -0.06)">
      <use xlink:href="#DejaVuSans-49"/>
      <use x="63.623047" xlink:href="#DejaVuSans-48"/>
      <use x="127.246094" xlink:href="#DejaVuSans-48"/>
      <use x="190.869141" xlink:href="#DejaVuSans-48"/>
      <use x="254.492188" xlink:href="#DejaVuSans-48"/>
      <use x="318.115234" xlink:href="#DejaVuSans-48"/>
      <use x="381.738281" xlink:href="#DejaVuSans-48"/>
      <use x="445.361328" xlink:href="#DejaVuSans-48"/>
      <use x="508.984375" xlink:href="#DejaVuSans-48"/>
      <use x="572.607422" xlink:href="#DejaVuSans-46"/>
      <use x="604.394531" xlink:href="#DejaVuSans-48"/>
      <use x="668.017578" xlink:href="#DejaVuSans-48"/>
      <use x="731.640625" xlink:href="#DejaVuSans-48"/>
     </g>
    </g>
   </g>
  </g>
 </g>
 <defs>
  <clipPath id="p808228d151">
   <rect height="554.4" width="1116" x="56.028488" y="10.999219"/>
  </clipPath>
 </defs>
</svg>
