<?xml version="1.0" encoding="utf-8" standalone="no"?>
<!DOCTYPE svg PUBLIC "-//W3C//DTD SVG 1.1//EN"
  "http://www.w3.org/Graphics/SVG/1.1/DTD/svg11.dtd">
<!-- Created with matplotlib (https://matplotlib.org/) -->
<svg height="300.989344pt" version="1.1" viewBox="0 0 405.987188 300.989344" width="405.987188pt" xmlns="http://www.w3.org/2000/svg" xmlns:xlink="http://www.w3.org/1999/xlink">
 <metadata>
  <rdf:RDF xmlns:cc="http://creativecommons.org/ns#" xmlns:dc="http://purl.org/dc/elements/1.1/" xmlns:rdf="http://www.w3.org/1999/02/22-rdf-syntax-ns#">
   <cc:Work>
    <dc:type rdf:resource="http://purl.org/dc/dcmitype/StillImage"/>
    <dc:date>2021-09-23T00:07:32.525924</dc:date>
    <dc:format>image/svg+xml</dc:format>
    <dc:creator>
     <cc:Agent>
      <dc:title>Matplotlib v3.3.1, https://matplotlib.org/</dc:title>
     </cc:Agent>
    </dc:creator>
   </cc:Work>
  </rdf:RDF>
 </metadata>
 <defs>
  <style type="text/css">*{stroke-linecap:butt;stroke-linejoin:round;}</style>
 </defs>
 <g id="figure_1">
  <g id="patch_1">
   <path d="M 0 300.989344 
L 405.987188 300.989344 
L 405.987188 0 
L 0 0 
z
" style="fill:#ffffff;"/>
  </g>
  <g id="axes_1">
   <g id="patch_2">
    <path d="M 35.304688 277.111219 
L 392.424688 277.111219 
L 392.424688 10.999219 
L 35.304688 10.999219 
z
" style="fill:#ffffff;"/>
   </g>
   <g id="matplotlib.axis_1">
    <g id="xtick_1">
     <g id="line2d_1">
      <defs>
       <path d="M 0 0 
L 0 3.5 
" id="m29bb5f3342" style="stroke:#000000;stroke-width:0.8;"/>
      </defs>
      <g>
       <use style="stroke:#000000;stroke-width:0.8;" x="35.304687" xlink:href="#m29bb5f3342" y="277.111219"/>
      </g>
     </g>
     <g id="text_1">
      <!-- −20 -->
      <g transform="translate(24.752344 291.709656)scale(0.1 -0.1)">
       <defs>
        <path d="M 10.59375 35.5 
L 73.1875 35.5 
L 73.1875 27.203125 
L 10.59375 27.203125 
z
" id="DejaVuSans-8722"/>
        <path d="M 19.1875 8.296875 
L 53.609375 8.296875 
L 53.609375 0 
L 7.328125 0 
L 7.328125 8.296875 
Q 12.9375 14.109375 22.625 23.890625 
Q 32.328125 33.6875 34.8125 36.53125 
Q 39.546875 41.84375 41.421875 45.53125 
Q 43.3125 49.21875 43.3125 52.78125 
Q 43.3125 58.59375 39.234375 62.25 
Q 35.15625 65.921875 28.609375 65.921875 
Q 23.96875 65.921875 18.8125 64.3125 
Q 13.671875 62.703125 7.8125 59.421875 
L 7.8125 69.390625 
Q 13.765625 71.78125 18.9375 73 
Q 24.125 74.21875 28.421875 74.21875 
Q 39.75 74.21875 46.484375 68.546875 
Q 53.21875 62.890625 53.21875 53.421875 
Q 53.21875 48.921875 51.53125 44.890625 
Q 49.859375 40.875 45.40625 35.40625 
Q 44.1875 33.984375 37.640625 27.21875 
Q 31.109375 20.453125 19.1875 8.296875 
z
" id="DejaVuSans-50"/>
        <path d="M 31.78125 66.40625 
Q 24.171875 66.40625 20.328125 58.90625 
Q 16.5 51.421875 16.5 36.375 
Q 16.5 21.390625 20.328125 13.890625 
Q 24.171875 6.390625 31.78125 6.390625 
Q 39.453125 6.390625 43.28125 13.890625 
Q 47.125 21.390625 47.125 36.375 
Q 47.125 51.421875 43.28125 58.90625 
Q 39.453125 66.40625 31.78125 66.40625 
z
M 31.78125 74.21875 
Q 44.046875 74.21875 50.515625 64.515625 
Q 56.984375 54.828125 56.984375 36.375 
Q 56.984375 17.96875 50.515625 8.265625 
Q 44.046875 -1.421875 31.78125 -1.421875 
Q 19.53125 -1.421875 13.0625 8.265625 
Q 6.59375 17.96875 6.59375 36.375 
Q 6.59375 54.828125 13.0625 64.515625 
Q 19.53125 74.21875 31.78125 74.21875 
z
" id="DejaVuSans-48"/>
       </defs>
       <use xlink:href="#DejaVuSans-8722"/>
       <use x="83.789062" xlink:href="#DejaVuSans-50"/>
       <use x="147.412109" xlink:href="#DejaVuSans-48"/>
      </g>
     </g>
    </g>
    <g id="xtick_2">
     <g id="line2d_2">
      <g>
       <use style="stroke:#000000;stroke-width:0.8;" x="74.984687" xlink:href="#m29bb5f3342" y="277.111219"/>
      </g>
     </g>
     <g id="text_2">
      <!-- −15 -->
      <g transform="translate(64.432344 291.709656)scale(0.1 -0.1)">
       <defs>
        <path d="M 12.40625 8.296875 
L 28.515625 8.296875 
L 28.515625 63.921875 
L 10.984375 60.40625 
L 10.984375 69.390625 
L 28.421875 72.90625 
L 38.28125 72.90625 
L 38.28125 8.296875 
L 54.390625 8.296875 
L 54.390625 0 
L 12.40625 0 
z
" id="DejaVuSans-49"/>
        <path d="M 10.796875 72.90625 
L 49.515625 72.90625 
L 49.515625 64.59375 
L 19.828125 64.59375 
L 19.828125 46.734375 
Q 21.96875 47.46875 24.109375 47.828125 
Q 26.265625 48.1875 28.421875 48.1875 
Q 40.625 48.1875 47.75 41.5 
Q 54.890625 34.8125 54.890625 23.390625 
Q 54.890625 11.625 47.5625 5.09375 
Q 40.234375 -1.421875 26.90625 -1.421875 
Q 22.3125 -1.421875 17.546875 -0.640625 
Q 12.796875 0.140625 7.71875 1.703125 
L 7.71875 11.625 
Q 12.109375 9.234375 16.796875 8.0625 
Q 21.484375 6.890625 26.703125 6.890625 
Q 35.15625 6.890625 40.078125 11.328125 
Q 45.015625 15.765625 45.015625 23.390625 
Q 45.015625 31 40.078125 35.4375 
Q 35.15625 39.890625 26.703125 39.890625 
Q 22.75 39.890625 18.8125 39.015625 
Q 14.890625 38.140625 10.796875 36.28125 
z
" id="DejaVuSans-53"/>
       </defs>
       <use xlink:href="#DejaVuSans-8722"/>
       <use x="83.789062" xlink:href="#DejaVuSans-49"/>
       <use x="147.412109" xlink:href="#DejaVuSans-53"/>
      </g>
     </g>
    </g>
    <g id="xtick_3">
     <g id="line2d_3">
      <g>
       <use style="stroke:#000000;stroke-width:0.8;" x="114.664687" xlink:href="#m29bb5f3342" y="277.111219"/>
      </g>
     </g>
     <g id="text_3">
      <!-- −10 -->
      <g transform="translate(104.112344 291.709656)scale(0.1 -0.1)">
       <use xlink:href="#DejaVuSans-8722"/>
       <use x="83.789062" xlink:href="#DejaVuSans-49"/>
       <use x="147.412109" xlink:href="#DejaVuSans-48"/>
      </g>
     </g>
    </g>
    <g id="xtick_4">
     <g id="line2d_4">
      <g>
       <use style="stroke:#000000;stroke-width:0.8;" x="154.344687" xlink:href="#m29bb5f3342" y="277.111219"/>
      </g>
     </g>
     <g id="text_4">
      <!-- −5 -->
      <g transform="translate(146.973594 291.709656)scale(0.1 -0.1)">
       <use xlink:href="#DejaVuSans-8722"/>
       <use x="83.789062" xlink:href="#DejaVuSans-53"/>
      </g>
     </g>
    </g>
    <g id="xtick_5">
     <g id="line2d_5">
      <g>
       <use style="stroke:#000000;stroke-width:0.8;" x="194.024687" xlink:href="#m29bb5f3342" y="277.111219"/>
      </g>
     </g>
     <g id="text_5">
      <!-- 0 -->
      <g transform="translate(190.843437 291.709656)scale(0.1 -0.1)">
       <use xlink:href="#DejaVuSans-48"/>
      </g>
     </g>
    </g>
    <g id="xtick_6">
     <g id="line2d_6">
      <g>
       <use style="stroke:#000000;stroke-width:0.8;" x="233.704688" xlink:href="#m29bb5f3342" y="277.111219"/>
      </g>
     </g>
     <g id="text_6">
      <!-- 5 -->
      <g transform="translate(230.523438 291.709656)scale(0.1 -0.1)">
       <use xlink:href="#DejaVuSans-53"/>
      </g>
     </g>
    </g>
    <g id="xtick_7">
     <g id="line2d_7">
      <g>
       <use style="stroke:#000000;stroke-width:0.8;" x="273.384688" xlink:href="#m29bb5f3342" y="277.111219"/>
      </g>
     </g>
     <g id="text_7">
      <!-- 10 -->
      <g transform="translate(267.022188 291.709656)scale(0.1 -0.1)">
       <use xlink:href="#DejaVuSans-49"/>
       <use x="63.623047" xlink:href="#DejaVuSans-48"/>
      </g>
     </g>
    </g>
    <g id="xtick_8">
     <g id="line2d_8">
      <g>
       <use style="stroke:#000000;stroke-width:0.8;" x="313.064687" xlink:href="#m29bb5f3342" y="277.111219"/>
      </g>
     </g>
     <g id="text_8">
      <!-- 15 -->
      <g transform="translate(306.702187 291.709656)scale(0.1 -0.1)">
       <use xlink:href="#DejaVuSans-49"/>
       <use x="63.623047" xlink:href="#DejaVuSans-53"/>
      </g>
     </g>
    </g>
    <g id="xtick_9">
     <g id="line2d_9">
      <g>
       <use style="stroke:#000000;stroke-width:0.8;" x="352.744688" xlink:href="#m29bb5f3342" y="277.111219"/>
      </g>
     </g>
     <g id="text_9">
      <!-- 20 -->
      <g transform="translate(346.382188 291.709656)scale(0.1 -0.1)">
       <use xlink:href="#DejaVuSans-50"/>
       <use x="63.623047" xlink:href="#DejaVuSans-48"/>
      </g>
     </g>
    </g>
    <g id="xtick_10">
     <g id="line2d_10">
      <g>
       <use style="stroke:#000000;stroke-width:0.8;" x="392.424688" xlink:href="#m29bb5f3342" y="277.111219"/>
      </g>
     </g>
     <g id="text_10">
      <!-- 25 -->
      <g transform="translate(386.062187 291.709656)scale(0.1 -0.1)">
       <use xlink:href="#DejaVuSans-50"/>
       <use x="63.623047" xlink:href="#DejaVuSans-53"/>
      </g>
     </g>
    </g>
   </g>
   <g id="matplotlib.axis_2">
    <g id="ytick_1">
     <g id="line2d_11">
      <defs>
       <path d="M 0 0 
L -3.5 0 
" id="me7ec818204" style="stroke:#000000;stroke-width:0.8;"/>
      </defs>
      <g>
       <use style="stroke:#000000;stroke-width:0.8;" x="35.304688" xlink:href="#me7ec818204" y="277.111219"/>
      </g>
     </g>
     <g id="text_11">
      <!-- −20 -->
      <g transform="translate(7.2 280.910437)scale(0.1 -0.1)">
       <use xlink:href="#DejaVuSans-8722"/>
       <use x="83.789062" xlink:href="#DejaVuSans-50"/>
       <use x="147.412109" xlink:href="#DejaVuSans-48"/>
      </g>
     </g>
    </g>
    <g id="ytick_2">
     <g id="line2d_12">
      <g>
       <use style="stroke:#000000;stroke-width:0.8;" x="35.304688" xlink:href="#me7ec818204" y="243.847219"/>
      </g>
     </g>
     <g id="text_12">
      <!-- −15 -->
      <g transform="translate(7.2 247.646437)scale(0.1 -0.1)">
       <use xlink:href="#DejaVuSans-8722"/>
       <use x="83.789062" xlink:href="#DejaVuSans-49"/>
       <use x="147.412109" xlink:href="#DejaVuSans-53"/>
      </g>
     </g>
    </g>
    <g id="ytick_3">
     <g id="line2d_13">
      <g>
       <use style="stroke:#000000;stroke-width:0.8;" x="35.304688" xlink:href="#me7ec818204" y="210.583219"/>
      </g>
     </g>
     <g id="text_13">
      <!-- −10 -->
      <g transform="translate(7.2 214.382437)scale(0.1 -0.1)">
       <use xlink:href="#DejaVuSans-8722"/>
       <use x="83.789062" xlink:href="#DejaVuSans-49"/>
       <use x="147.412109" xlink:href="#DejaVuSans-48"/>
      </g>
     </g>
    </g>
    <g id="ytick_4">
     <g id="line2d_14">
      <g>
       <use style="stroke:#000000;stroke-width:0.8;" x="35.304688" xlink:href="#me7ec818204" y="177.319219"/>
      </g>
     </g>
     <g id="text_14">
      <!-- −5 -->
      <g transform="translate(13.5625 181.118437)scale(0.1 -0.1)">
       <use xlink:href="#DejaVuSans-8722"/>
       <use x="83.789062" xlink:href="#DejaVuSans-53"/>
      </g>
     </g>
    </g>
    <g id="ytick_5">
     <g id="line2d_15">
      <g>
       <use style="stroke:#000000;stroke-width:0.8;" x="35.304688" xlink:href="#me7ec818204" y="144.055219"/>
      </g>
     </g>
     <g id="text_15">
      <!-- 0 -->
      <g transform="translate(21.942187 147.854437)scale(0.1 -0.1)">
       <use xlink:href="#DejaVuSans-48"/>
      </g>
     </g>
    </g>
    <g id="ytick_6">
     <g id="line2d_16">
      <g>
       <use style="stroke:#000000;stroke-width:0.8;" x="35.304688" xlink:href="#me7ec818204" y="110.791219"/>
      </g>
     </g>
     <g id="text_16">
      <!-- 5 -->
      <g transform="translate(21.942187 114.590437)scale(0.1 -0.1)">
       <use xlink:href="#DejaVuSans-53"/>
      </g>
     </g>
    </g>
    <g id="ytick_7">
     <g id="line2d_17">
      <g>
       <use style="stroke:#000000;stroke-width:0.8;" x="35.304688" xlink:href="#me7ec818204" y="77.527219"/>
      </g>
     </g>
     <g id="text_17">
      <!-- 10 -->
      <g transform="translate(15.579687 81.326437)scale(0.1 -0.1)">
       <use xlink:href="#DejaVuSans-49"/>
       <use x="63.623047" xlink:href="#DejaVuSans-48"/>
      </g>
     </g>
    </g>
    <g id="ytick_8">
     <g id="line2d_18">
      <g>
       <use style="stroke:#000000;stroke-width:0.8;" x="35.304688" xlink:href="#me7ec818204" y="44.263219"/>
      </g>
     </g>
     <g id="text_18">
      <!-- 15 -->
      <g transform="translate(15.579687 48.062437)scale(0.1 -0.1)">
       <use xlink:href="#DejaVuSans-49"/>
       <use x="63.623047" xlink:href="#DejaVuSans-53"/>
      </g>
     </g>
    </g>
    <g id="ytick_9">
     <g id="line2d_19">
      <g>
       <use style="stroke:#000000;stroke-width:0.8;" x="35.304688" xlink:href="#me7ec818204" y="10.999219"/>
      </g>
     </g>
     <g id="text_19">
      <!-- 20 -->
      <g transform="translate(15.579687 14.798437)scale(0.1 -0.1)">
       <use xlink:href="#DejaVuSans-50"/>
       <use x="63.623047" xlink:href="#DejaVuSans-48"/>
      </g>
     </g>
    </g>
   </g>
   <g id="LineCollection_1"/>
   <g id="LineCollection_2"/>
   <g id="LineCollection_3">
    <path clip-path="url(#p0b78d94391)" d="M 200.115079 128.972148 
L 201.960688 130.266491 
L 204.543782 135.184819 
L 211.393283 144.055219 
L 213.864688 149.265826 
L 214.113752 152.925619 
L 213.864688 161.692937 
L 213.833794 161.796019 
L 207.693874 170.666419 
L 202.836303 179.536819 
L 201.960688 181.332825 
L 191.707046 188.407219 
L 190.056688 190.268065 
L 186.406835 188.407219 
L 180.663294 179.536819 
L 178.724378 170.666419 
L 178.152687 165.940378 
L 177.904301 161.796019 
L 177.520172 152.925619 
L 177.275993 144.055219 
L 177.22612 135.184819 
L 177.522173 126.314419 
L 178.059243 122.371612 
" style="fill:none;stroke:#482576;stroke-width:1.5;"/>
   </g>
   <g id="LineCollection_4">
    <path clip-path="url(#p0b78d94391)" d="M 163.953364 113.731914 
L 164.395278 108.573619 
L 166.248687 103.576686 
L 178.152687 106.431841 
L 179.871417 108.573619 
L 190.056688 115.875117 
L 192.091843 117.444019 
L 201.960688 124.879627 
L 203.19191 126.314419 
L 209.893677 135.184819 
L 213.864688 139.363338 
L 215.094509 144.055219 
L 216.242887 152.925619 
L 216.941336 161.796019 
L 215.89691 170.666419 
L 213.864688 178.313777 
L 212.877245 179.536819 
L 205.979623 188.407219 
L 201.960688 196.492225 
L 201.073308 197.277619 
L 192.783075 206.148019 
L 190.056688 210.955683 
L 184.567217 215.018419 
L 178.152687 222.920217 
L 173.580789 223.888819 
L 166.248687 226.074255 
L 163.987503 223.888819 
L 161.528747 215.018419 
L 161.282496 206.148019 
L 161.550313 197.277619 
L 161.936818 188.407219 
L 162.312613 179.536819 
L 162.62969 170.666419 
L 162.883086 161.796019 
L 163.065096 152.925619 
L 163.173358 144.055219 
L 163.220512 138.913482 
" style="fill:none;stroke:#453781;stroke-width:1.5;"/>
   </g>
   <g id="LineCollection_5">
    <path clip-path="url(#p0b78d94391)" d="M 147.135165 158.072188 
L 147.212583 152.925619 
L 147.168105 144.055219 
L 146.9604 135.184819 
L 146.603535 126.314419 
L 146.118271 117.444019 
L 145.562126 108.573619 
L 145.072299 99.703219 
L 145.089164 90.832819 
L 154.344687 82.656459 
L 166.248687 90.687293 
L 166.328561 90.832819 
L 173.36489 99.703219 
L 178.152687 102.262244 
L 183.217428 108.573619 
L 190.056688 113.476468 
L 195.203335 117.444019 
L 201.960688 122.535296 
L 205.203627 126.314419 
L 213.864688 134.683781 
L 214.053861 135.184819 
L 216.570086 144.055219 
L 218.372022 152.925619 
L 220.022221 161.796019 
L 219.201853 170.666419 
L 216.296388 179.536819 
L 213.864688 186.259543 
L 212.101338 188.407219 
L 205.591539 197.277619 
L 201.960688 204.116951 
L 199.964138 206.148019 
L 192.967966 215.018419 
L 190.056688 220.036463 
L 185.85002 223.888819 
L 179.186101 232.759219 
L 178.152687 234.308603 
L 168.818867 241.629619 
L 166.248687 244.682697 
L 154.344687 250.12303 
L 142.440687 250.146956 
L 135.08301 241.629619 
L 136.939433 232.759219 
L 139.530419 223.888819 
L 142.033438 215.018419 
L 142.440687 213.335243 
L 143.639264 206.148019 
L 144.767208 197.277619 
L 145.638261 188.407219 
L 146.021816 183.243555 
" style="fill:none;stroke:#404688;stroke-width:1.5;"/>
   </g>
   <g id="LineCollection_6">
    <path clip-path="url(#p0b78d94391)" d="M 125.168264 277.111219 
L 118.632687 270.027334 
L 107.238625 270.688147 
" style="fill:none;stroke:#39558c;stroke-width:1.5;"/>
    <path clip-path="url(#p0b78d94391)" d="M 82.83173 276.689205 
L 81.700169 277.111219 
" style="fill:none;stroke:#39558c;stroke-width:1.5;"/>
    <path clip-path="url(#p0b78d94391)" d="M 35.304687 268.03994 
L 47.208687 260.316142 
L 48.572576 259.370419 
L 59.112687 252.264609 
L 61.629838 250.500019 
L 71.016687 243.489752 
L 73.391743 241.629619 
L 82.920687 233.342312 
L 83.54125 232.759219 
L 91.600078 223.888819 
L 94.824687 219.592091 
L 96.245605 217.337301 
" style="fill:none;stroke:#39558c;stroke-width:1.5;"/>
    <path clip-path="url(#p0b78d94391)" d="M 105.974375 194.200509 
L 106.728687 191.185902 
L 107.240108 188.407219 
L 108.282458 179.536819 
L 108.831935 170.666419 
L 108.981281 161.796019 
L 108.793445 152.925619 
L 108.27514 144.055219 
L 107.352444 135.184819 
L 106.728687 131.28942 
L 105.725394 126.314419 
L 103.314725 117.444019 
L 100.331539 108.573619 
L 96.808516 99.703219 
L 94.824687 95.348621 
L 92.48259 90.832819 
L 87.504998 81.962419 
L 82.920687 74.119131 
L 82.283411 73.092019 
L 76.583664 64.221619 
L 71.016687 55.586612 
L 70.864845 55.351219 
L 65.307401 46.480819 
L 59.900169 37.610419 
L 59.112687 36.089932 
L 55.185125 28.740019 
L 51.322335 19.869619 
L 49.106344 10.999219 
" style="fill:none;stroke:#39558c;stroke-width:1.5;"/>
    <path clip-path="url(#p0b78d94391)" d="M 64.450025 10.999219 
L 71.016687 13.696439 
L 82.920687 19.226819 
L 83.998361 19.869619 
L 94.824687 27.095481 
L 97.20285 28.740019 
L 106.728687 35.330049 
L 109.404214 37.610419 
L 118.632687 44.297978 
L 120.75312 46.480819 
L 130.536687 53.920258 
L 131.765292 55.351219 
L 132.54617 55.96689 
" style="fill:none;stroke:#39558c;stroke-width:1.5;"/>
    <path clip-path="url(#p0b78d94391)" d="M 150.860251 73.128734 
L 154.344687 75.325306 
L 157.343395 81.962419 
L 166.248687 88.447289 
L 167.558009 90.832819 
L 178.152687 99.322672 
L 178.434576 99.703219 
L 186.563438 108.573619 
L 190.056688 111.077819 
L 198.314827 117.444019 
L 201.960688 120.190966 
L 207.215343 126.314419 
L 213.864688 132.739818 
L 214.787831 135.184819 
L 218.045663 144.055219 
L 220.501157 152.925619 
L 223.103107 161.796019 
L 222.506796 170.666419 
L 218.993307 179.536819 
L 215.248384 188.407219 
L 213.864688 191.829758 
L 209.469718 197.277619 
L 203.852684 206.148019 
L 201.960688 209.667069 
L 197.254529 215.018419 
L 191.430457 223.888819 
L 190.056688 226.393368 
L 184.090541 232.759219 
L 178.164193 241.629619 
L 178.152687 241.646494 
L 168.299849 250.500019 
L 166.248687 252.88065 
L 157.726103 259.370419 
L 154.344687 262.501035 
L 145.784502 268.240819 
L 142.440687 270.68265 
L 132.557298 277.111219 
" style="fill:none;stroke:#39558c;stroke-width:1.5;"/>
   </g>
   <g id="LineCollection_7">
    <path clip-path="url(#p0b78d94391)" d="M 80.279751 10.999219 
L 82.920687 12.731769 
L 94.824687 19.865656 
L 94.830424 19.869619 
L 106.728687 28.671153 
L 106.823989 28.740019 
L 117.934995 37.610419 
L 118.632687 38.116013 
L 126.758337 46.480819 
L 130.536687 49.353882 
L 135.685923 55.351219 
L 142.440687 60.676913 
L 144.713238 64.221619 
L 154.344687 72.014518 
L 154.738652 73.092019 
L 160.419461 81.962419 
L 166.248687 86.207286 
L 168.787457 90.832819 
L 178.152687 98.337476 
L 179.164355 99.703219 
L 189.909449 108.573619 
L 190.056688 108.679169 
L 201.426319 117.444019 
L 201.960688 117.846635 
L 209.22706 126.314419 
L 213.864688 130.795854 
L 215.521801 135.184819 
L 219.52124 144.055219 
L 222.630292 152.925619 
L 225.768687 161.052784 
L 225.812047 161.796019 
L 225.774282 170.666419 
L 225.768687 170.742173 
L 221.690227 179.536819 
L 217.19191 188.407219 
L 214.072502 196.122997 
" style="fill:none;stroke:#33638d;stroke-width:1.5;"/>
    <path clip-path="url(#p0b78d94391)" d="M 200.001266 216.904933 
L 194.300817 223.888819 
L 190.056688 231.626383 
L 188.994981 232.759219 
L 180.79512 241.629619 
L 178.152687 245.505465 
L 172.594389 250.500019 
L 166.248687 257.865004 
L 164.271726 259.370419 
L 154.447425 268.240819 
L 154.344687 268.325722 
L 142.496945 277.111219 
" style="fill:none;stroke:#33638d;stroke-width:1.5;"/>
   </g>
   <g id="LineCollection_8">
    <path clip-path="url(#p0b78d94391)" d="M 83.611133 10.999219 
L 94.824687 19.178801 
L 95.824645 19.869619 
L 106.728687 27.935695 
L 107.841773 28.740019 
L 118.632687 36.903428 
L 119.513951 37.610419 
L 130.536687 46.203372 
L 130.838744 46.480819 
L 139.606555 55.351219 
L 142.440687 57.585749 
L 145.20542 61.898156 
" style="fill:none;stroke:#2d718e;stroke-width:1.5;"/>
    <path clip-path="url(#p0b78d94391)" d="M 161.927443 80.260031 
L 163.495526 81.962419 
L 166.248687 83.967282 
L 170.016905 90.832819 
L 178.152687 97.35228 
L 179.894134 99.703219 
L 190.056688 108.00378 
L 190.833247 108.573619 
L 201.960688 116.938267 
L 202.498397 117.444019 
L 211.238776 126.314419 
L 213.864688 128.851891 
L 216.255771 135.184819 
L 220.996817 144.055219 
L 224.759427 152.925619 
L 225.768687 155.539193 
L 226.133706 161.796019 
L 226.203757 170.666419 
L 225.768687 176.557713 
L 224.387146 179.536819 
L 219.135436 188.407219 
L 214.942876 197.277619 
L 213.864688 200.13868 
L 209.093886 206.148019 
L 203.430154 215.018419 
L 201.960688 218.131204 
L 197.171177 223.888819 
L 191.26488 232.759219 
L 190.056688 234.862909 
L 183.426047 241.629619 
L 178.152687 249.364436 
L 176.88893 250.500019 
L 167.336458 259.370419 
L 166.248687 260.443414 
L 156.390937 268.240819 
L 154.344687 269.931853 
L 144.662904 277.111219 
" style="fill:none;stroke:#2d718e;stroke-width:1.5;"/>
   </g>
   <g id="LineCollection_9">
    <path clip-path="url(#p0b78d94391)" d="M 84.552756 10.999219 
L 94.824687 18.491947 
L 96.818867 19.869619 
L 106.728687 27.200237 
L 108.859558 28.740019 
L 118.632687 36.133467 
L 120.473708 37.610419 
L 130.536687 45.455178 
L 131.653301 46.480819 
L 142.440687 55.169405 
L 142.569879 55.351219 
L 145.666136 59.848582 
" style="fill:none;stroke:#287d8e;stroke-width:1.5;"/>
    <path clip-path="url(#p0b78d94391)" d="M 162.026711 78.308563 
L 166.248687 81.909922 
L 166.276909 81.962419 
L 171.246353 90.832819 
L 178.152687 96.367084 
L 180.623913 99.703219 
L 190.056688 107.407712 
L 191.645551 108.573619 
L 201.960688 116.327647 
L 203.1476 117.444019 
L 213.250492 126.314419 
L 213.864688 126.907928 
L 216.989741 135.184819 
L 222.472394 144.055219 
L 225.768687 151.235102 
L 225.896861 152.925619 
L 226.455365 161.796019 
L 226.633232 170.666419 
L 225.991177 179.536819 
L 225.768687 181.028302 
L 221.078962 188.407219 
L 216.186828 197.277619 
L 213.864688 203.439609 
L 211.714487 206.148019 
L 205.059068 215.018419 
L 201.960688 221.58175 
L 200.041537 223.888819 
L 192.806883 232.759219 
L 190.056688 237.547826 
L 186.056974 241.629619 
L 178.93411 250.500019 
L 178.152687 251.441953 
L 168.894931 259.370419 
L 166.248687 261.980717 
L 158.33445 268.240819 
L 154.344687 271.537985 
L 146.828864 277.111219 
" style="fill:none;stroke:#287d8e;stroke-width:1.5;"/>
   </g>
   <g id="LineCollection_10">
    <path clip-path="url(#p0b78d94391)" d="M 85.494378 10.999219 
L 94.824687 17.805092 
L 97.813088 19.869619 
L 106.728687 26.464779 
L 109.877342 28.740019 
L 118.632687 35.363505 
L 121.433465 37.610419 
L 130.536687 44.706983 
L 132.467859 46.480819 
L 142.440687 54.513328 
L 143.036067 55.351219 
L 145.536905 58.261472 
" style="fill:none;stroke:#238a8d;stroke-width:1.5;"/>
    <path clip-path="url(#p0b78d94391)" d="M 161.314059 77.200573 
L 166.248687 81.409826 
L 166.545755 81.962419 
L 172.475801 90.832819 
L 178.152687 95.381889 
L 181.353692 99.703219 
L 190.056688 106.811644 
L 192.457856 108.573619 
L 201.960688 115.717026 
L 203.796803 117.444019 
L 213.864688 125.934101 
L 214.126281 126.314419 
L 217.723711 135.184819 
L 223.947971 144.055219 
L 225.768687 148.021046 
L 226.140549 152.925619 
L 226.777024 161.796019 
L 227.062707 170.666419 
L 226.447347 179.536819 
L 225.768687 184.086288 
L 223.022488 188.407219 
L 217.43078 197.277619 
L 213.996216 206.148019 
L 213.864688 206.495267 
L 206.687983 215.018419 
L 202.244155 223.888819 
L 201.960688 224.446855 
L 194.348886 232.759219 
L 190.056688 240.232743 
L 188.687901 241.629619 
L 180.041366 250.500019 
L 178.152687 252.77665 
L 170.453404 259.370419 
L 166.248687 263.51802 
L 160.277962 268.240819 
L 154.344687 273.144116 
L 148.994824 277.111219 
" style="fill:none;stroke:#238a8d;stroke-width:1.5;"/>
   </g>
   <g id="LineCollection_11">
    <path clip-path="url(#p0b78d94391)" d="M 86.436001 10.999219 
L 94.824687 17.118238 
L 98.807309 19.869619 
L 106.728687 25.729321 
L 110.895127 28.740019 
L 118.632687 34.593543 
L 122.393222 37.610419 
L 130.536687 43.958789 
L 133.282417 46.480819 
L 142.440687 53.857251 
L 143.502255 55.351219 
L 145.172456 56.972491 
" style="fill:none;stroke:#1f968b;stroke-width:1.5;"/>
    <path clip-path="url(#p0b78d94391)" d="M 160.601407 76.092582 
L 166.248687 80.90973 
L 166.814602 81.962419 
L 173.705249 90.832819 
L 178.152687 94.396693 
L 182.08347 99.703219 
L 190.056688 106.215576 
L 193.27016 108.573619 
L 201.960688 115.106406 
L 204.446007 117.444019 
L 213.864688 125.386639 
L 214.502843 126.314419 
L 218.457681 135.184819 
L 225.423548 144.055219 
L 225.768687 144.80699 
L 226.384236 152.925619 
L 227.098684 161.796019 
L 227.492182 170.666419 
L 226.903517 179.536819 
L 225.768687 187.144274 
L 224.966014 188.407219 
L 218.674732 197.277619 
L 214.728964 206.148019 
L 213.864688 208.429788 
L 208.316897 215.018419 
L 203.099543 223.888819 
L 201.960688 226.130778 
L 195.890888 232.759219 
L 190.400444 241.629619 
L 190.056688 242.128793 
L 181.148622 250.500019 
L 178.152687 254.111347 
L 172.011877 259.370419 
L 166.248687 265.055324 
L 162.221474 268.240819 
L 154.344687 274.750248 
L 151.160784 277.111219 
" style="fill:none;stroke:#1f968b;stroke-width:1.5;"/>
   </g>
   <g id="LineCollection_12">
    <path clip-path="url(#p0b78d94391)" d="M 87.377624 10.999219 
L 94.824687 16.431383 
L 99.80153 19.869619 
L 106.728687 24.993863 
L 111.912911 28.740019 
L 118.632687 33.823581 
L 123.352979 37.610419 
L 130.536687 43.210595 
L 134.096975 46.480819 
L 142.440687 53.201174 
L 143.968443 55.351219 
L 144.78715 56.046737 
" style="fill:none;stroke:#20a386;stroke-width:1.5;"/>
    <path clip-path="url(#p0b78d94391)" d="M 160.054446 75.125926 
L 166.248687 80.409634 
L 167.083448 81.962419 
L 174.934697 90.832819 
L 178.152687 93.411497 
L 182.813249 99.703219 
L 190.056688 105.619507 
L 194.082464 108.573619 
L 201.960688 114.495786 
L 205.09521 117.444019 
L 213.864688 124.839176 
L 214.879404 126.314419 
L 219.191651 135.184819 
L 225.768687 143.356586 
L 225.934433 144.055219 
L 226.627923 152.925619 
L 227.420343 161.796019 
L 227.921657 170.666419 
L 227.359688 179.536819 
L 225.978544 188.407219 
L 225.768687 189.391562 
L 219.918684 197.277619 
L 215.461712 206.148019 
L 213.864688 210.364308 
L 209.945811 215.018419 
L 203.954932 223.888819 
L 201.960688 227.814701 
L 197.432891 232.759219 
L 191.117003 241.629619 
L 190.056688 243.169321 
L 182.255878 250.500019 
L 178.152687 255.446044 
L 173.57035 259.370419 
L 166.248687 266.592627 
L 164.164986 268.240819 
L 154.344687 276.356379 
L 153.326744 277.111219 
" style="fill:none;stroke:#20a386;stroke-width:1.5;"/>
   </g>
   <g id="LineCollection_13">
    <path clip-path="url(#p0b78d94391)" d="M 88.319246 10.999219 
L 94.824687 15.744529 
L 100.795752 19.869619 
L 106.728687 24.258405 
L 112.930696 28.740019 
L 118.632687 33.053619 
L 124.312736 37.610419 
L 130.536687 42.462401 
L 134.911532 46.480819 
L 142.440687 52.545097 
L 144.434631 55.351219 
L 145.109393 55.92445 
" style="fill:none;stroke:#29af7f;stroke-width:1.5;"/>
    <path clip-path="url(#p0b78d94391)" d="M 160.517676 75.020967 
L 166.248687 79.909537 
L 167.352294 81.962419 
L 176.164145 90.832819 
L 178.152687 92.426301 
L 183.543028 99.703219 
L 190.056688 105.023439 
L 194.894769 108.573619 
L 201.960688 113.885166 
L 205.744414 117.444019 
L 213.864688 124.291713 
L 215.255966 126.314419 
L 219.925621 135.184819 
L 225.768687 142.444651 
L 226.150784 144.055219 
L 226.871611 152.925619 
L 227.742002 161.796019 
L 228.351132 170.666419 
L 227.815858 179.536819 
L 226.33605 188.407219 
L 225.768687 191.068463 
L 221.162636 197.277619 
L 216.19446 206.148019 
L 213.864688 212.298829 
L 211.574726 215.018419 
L 204.81032 223.888819 
L 201.960688 229.498624 
L 198.974894 232.759219 
L 191.833562 241.629619 
L 190.056688 244.209848 
L 183.363133 250.500019 
L 178.152687 256.780741 
L 175.128823 259.370419 
L 166.248687 268.12993 
L 166.108498 268.240819 
L 154.721404 277.111219 
" style="fill:none;stroke:#29af7f;stroke-width:1.5;"/>
   </g>
   <g id="LineCollection_14">
    <path clip-path="url(#p0b78d94391)" d="M 89.260869 10.999219 
L 94.824687 15.057674 
L 101.789973 19.869619 
L 106.728687 23.522947 
L 113.94848 28.740019 
L 118.632687 32.283657 
L 125.272493 37.610419 
L 130.536687 41.714207 
L 135.72609 46.480819 
L 142.440687 51.88902 
L 144.90082 55.351219 
L 145.431635 55.802164 
" style="fill:none;stroke:#3dbc74;stroke-width:1.5;"/>
    <path clip-path="url(#p0b78d94391)" d="M 160.968029 74.905023 
L 166.248687 79.409441 
L 167.62114 81.962419 
L 177.393592 90.832819 
L 178.152687 91.441106 
L 184.272807 99.703219 
L 190.056688 104.427371 
L 195.707073 108.573619 
L 201.960688 113.274546 
L 206.393617 117.444019 
L 213.864688 123.74425 
L 215.632527 126.314419 
L 220.659591 135.184819 
L 225.768687 141.532716 
L 226.367135 144.055219 
L 227.115298 152.925619 
L 228.063661 161.796019 
L 228.780607 170.666419 
L 228.272028 179.536819 
L 226.693556 188.407219 
L 225.768687 192.745364 
L 222.406588 197.277619 
L 216.927208 206.148019 
L 213.864688 214.23335 
L 213.20364 215.018419 
L 205.665709 223.888819 
L 201.960688 231.182547 
L 200.516897 232.759219 
L 192.550121 241.629619 
L 190.056688 245.250376 
L 184.470389 250.500019 
L 178.152687 258.115438 
L 176.687296 259.370419 
L 166.810759 268.240819 
L 166.248687 268.750567 
L 155.432155 277.111219 
" style="fill:none;stroke:#3dbc74;stroke-width:1.5;"/>
   </g>
   <g id="LineCollection_15">
    <path clip-path="url(#p0b78d94391)" d="M 90.202491 10.999219 
L 94.824687 14.37082 
L 102.784194 19.869619 
L 106.728687 22.787489 
L 114.966265 28.740019 
L 118.632687 31.513696 
L 126.23225 37.610419 
L 130.536687 40.966013 
L 136.540648 46.480819 
L 142.440687 51.232943 
L 145.367008 55.351219 
L 145.753878 55.679877 
" style="fill:none;stroke:#56c667;stroke-width:1.5;"/>
    <path clip-path="url(#p0b78d94391)" d="M 161.406195 74.778684 
L 166.248687 78.909345 
L 167.889986 81.962419 
L 178.152687 90.744801 
L 178.218702 90.832819 
L 185.002586 99.703219 
L 190.056688 103.831303 
L 196.519377 108.573619 
L 201.960688 112.663925 
L 207.042821 117.444019 
L 213.864688 123.196788 
L 216.009089 126.314419 
L 221.393561 135.184819 
L 225.768687 140.62078 
L 226.583485 144.055219 
L 227.358985 152.925619 
L 228.38532 161.796019 
L 229.210081 170.666419 
L 228.728198 179.536819 
L 227.051062 188.407219 
L 225.768687 194.422265 
L 223.65054 197.277619 
L 217.659956 206.148019 
L 214.122988 215.018419 
L 213.864688 215.592604 
L 206.521097 223.888819 
L 201.988212 232.759219 
L 201.960688 232.80554 
L 193.26668 241.629619 
L 190.056688 246.290904 
L 185.577645 250.500019 
L 178.180837 259.370419 
L 178.152687 259.400211 
L 167.416527 268.240819 
L 166.248687 269.299943 
L 156.142906 277.111219 
" style="fill:none;stroke:#56c667;stroke-width:1.5;"/>
   </g>
   <g id="LineCollection_16">
    <path clip-path="url(#p0b78d94391)" d="M 91.144114 10.999219 
L 94.824687 13.683965 
L 103.778416 19.869619 
L 106.728687 22.052031 
L 115.98405 28.740019 
L 118.632687 30.743734 
L 127.192007 37.610419 
L 130.536687 40.217819 
L 137.355206 46.480819 
L 142.440687 50.576866 
L 145.833196 55.351219 
L 146.07612 55.557591 
" style="fill:none;stroke:#75d054;stroke-width:1.5;"/>
    <path clip-path="url(#p0b78d94391)" d="M 161.832869 74.642542 
L 166.248687 78.409249 
L 168.158832 81.962419 
L 178.152687 90.514734 
L 178.391255 90.832819 
L 185.732365 99.703219 
L 190.056688 103.235235 
L 197.331682 108.573619 
L 201.960688 112.053305 
L 207.692024 117.444019 
L 213.864688 122.649325 
L 216.38565 126.314419 
L 222.127531 135.184819 
L 225.768687 139.708845 
L 226.799836 144.055219 
L 227.602673 152.925619 
L 228.706979 161.796019 
L 229.639556 170.666419 
L 229.184368 179.536819 
L 227.408569 188.407219 
L 225.768687 196.099166 
L 224.894493 197.277619 
L 218.392703 206.148019 
L 214.557706 215.018419 
L 213.864688 216.558955 
L 207.376485 223.888819 
L 202.420364 232.759219 
L 201.960688 233.53282 
L 193.983239 241.629619 
L 190.056688 247.331431 
L 186.684901 250.500019 
L 178.652154 259.370419 
L 178.152687 259.899025 
L 168.022294 268.240819 
L 166.248687 269.849319 
L 156.853657 277.111219 
" style="fill:none;stroke:#75d054;stroke-width:1.5;"/>
   </g>
   <g id="LineCollection_17">
    <path clip-path="url(#p0b78d94391)" d="M 92.085737 10.999219 
L 94.824687 12.997111 
L 104.772637 19.869619 
L 106.728687 21.316573 
L 117.001834 28.740019 
L 118.632687 29.973772 
L 128.151764 37.610419 
L 130.536687 39.469624 
L 138.169763 46.480819 
L 142.440687 49.920789 
L 146.299384 55.351219 
L 146.398363 55.435305 
" style="fill:none;stroke:#95d840;stroke-width:1.5;"/>
    <path clip-path="url(#p0b78d94391)" d="M 162.248746 74.49719 
L 166.248687 77.909153 
L 168.427679 81.962419 
L 178.152687 90.284667 
L 178.563808 90.832819 
L 186.462144 99.703219 
L 190.056688 102.639167 
L 198.143986 108.573619 
L 201.960688 111.442685 
L 208.341228 117.444019 
L 213.864688 122.101862 
L 216.762212 126.314419 
L 222.861501 135.184819 
L 225.768687 138.79691 
L 227.016187 144.055219 
L 227.84636 152.925619 
L 229.028638 161.796019 
L 230.069031 170.666419 
L 229.640539 179.536819 
L 227.766075 188.407219 
L 225.842888 197.277619 
L 225.768687 197.559211 
L 219.125451 206.148019 
L 214.992424 215.018419 
L 213.864688 217.525306 
L 208.231874 223.888819 
L 202.852516 232.759219 
L 201.960688 234.260099 
L 194.699799 241.629619 
L 190.056688 248.371959 
L 187.792157 250.500019 
L 179.12347 259.370419 
L 178.152687 260.397839 
L 168.628061 268.240819 
L 166.248687 270.398694 
L 157.564408 277.111219 
" style="fill:none;stroke:#95d840;stroke-width:1.5;"/>
   </g>
   <g id="LineCollection_18">
    <path clip-path="url(#p0b78d94391)" d="M 93.027359 10.999219 
L 94.824687 12.310256 
L 105.766858 19.869619 
L 106.728687 20.581115 
L 118.019619 28.740019 
L 118.632687 29.20381 
L 129.111521 37.610419 
L 130.536687 38.72143 
L 138.984321 46.480819 
L 142.440687 49.264712 
L 146.731396 55.303122 
" style="fill:none;stroke:#bade28;stroke-width:1.5;"/>
    <path clip-path="url(#p0b78d94391)" d="M 162.654506 74.343208 
L 166.248687 77.409056 
L 168.696525 81.962419 
L 178.152687 90.0546 
L 178.736361 90.832819 
L 187.191923 99.703219 
L 190.056688 102.043099 
L 198.95629 108.573619 
L 201.960688 110.832065 
L 208.990431 117.444019 
L 213.864688 121.5544 
L 217.138773 126.314419 
L 223.595471 135.184819 
L 225.768687 137.884975 
L 227.232537 144.055219 
L 228.090047 152.925619 
L 229.350297 161.796019 
L 230.498506 170.666419 
L 230.096709 179.536819 
L 228.123581 188.407219 
L 226.092518 197.277619 
L 225.768687 198.506555 
L 219.858199 206.148019 
L 215.427142 215.018419 
L 213.864688 218.491657 
L 209.087262 223.888819 
L 203.284668 232.759219 
L 201.960688 234.987379 
L 195.416358 241.629619 
L 190.056688 249.412486 
L 188.899412 250.500019 
L 179.594786 259.370419 
L 178.152687 260.896653 
L 169.233828 268.240819 
L 166.248687 270.94807 
L 158.275159 277.111219 
" style="fill:none;stroke:#bade28;stroke-width:1.5;"/>
   </g>
   <g id="LineCollection_19">
    <path clip-path="url(#p0b78d94391)" d="M 93.968982 10.999219 
L 94.824687 11.623402 
L 106.728687 19.86527 
L 106.734622 19.869619 
L 118.632687 28.68635 
L 118.703793 28.740019 
L 130.071278 37.610419 
L 130.536687 37.973236 
L 139.798879 46.480819 
L 142.440687 48.608636 
L 147.088181 55.149157 
" style="fill:none;stroke:#dde318;stroke-width:1.5;"/>
    <path clip-path="url(#p0b78d94391)" d="M 163.050806 74.181157 
L 166.248687 76.90896 
L 168.965371 81.962419 
L 178.152687 89.824533 
L 178.908914 90.832819 
L 187.921702 99.703219 
L 190.056688 101.44703 
L 199.768595 108.573619 
L 201.960688 110.221445 
L 209.639635 117.444019 
L 213.864688 121.006937 
L 217.515335 126.314419 
L 224.32944 135.184819 
L 225.768687 136.973039 
L 227.448888 144.055219 
L 228.333735 152.925619 
L 229.671956 161.796019 
L 230.927981 170.666419 
L 230.552879 179.536819 
L 228.481087 188.407219 
L 226.342148 197.277619 
L 225.768687 199.453899 
L 220.590947 206.148019 
L 215.86186 215.018419 
L 213.864688 219.458008 
L 209.94265 223.888819 
L 203.71682 232.759219 
L 201.960688 235.714659 
L 196.132917 241.629619 
L 190.056688 250.453014 
L 190.006668 250.500019 
L 180.066103 259.370419 
L 178.152687 261.395468 
L 169.839595 268.240819 
L 166.248687 271.497446 
L 158.98591 277.111219 
" style="fill:none;stroke:#dde318;stroke-width:1.5;"/>
   </g>
   <g id="LineCollection_20">
    <path clip-path="url(#p0b78d94391)" d="M 94.841266 10.999219 
L 106.728687 19.731796 
L 106.916758 19.869619 
L 118.632687 28.551382 
L 118.88261 28.740019 
L 130.536687 37.540864 
L 130.621595 37.610419 
L 140.613437 46.480819 
L 142.440687 47.952559 
L 147.697948 55.351219 
L 154.344687 60.997838 
L 155.053913 62.894432 
" style="fill:none;stroke:#fde725;stroke-width:1.5;"/>
    <path clip-path="url(#p0b78d94391)" d="M 170.133723 82.732177 
L 178.152687 89.594466 
L 179.081467 90.832819 
L 188.651481 99.703219 
L 190.056688 100.850962 
L 200.580899 108.573619 
L 201.960688 109.610825 
L 210.288838 117.444019 
L 213.864688 120.459474 
L 217.891896 126.314419 
L 225.06341 135.184819 
L 225.768687 136.061104 
L 227.665239 144.055219 
L 228.577422 152.925619 
L 229.993615 161.796019 
L 231.357456 170.666419 
L 231.009049 179.536819 
L 228.838593 188.407219 
L 226.591777 197.277619 
L 225.768687 200.401243 
L 221.323695 206.148019 
L 216.296578 215.018419 
L 213.864688 220.424359 
L 210.798039 223.888819 
L 204.148971 232.759219 
L 201.960688 236.441938 
L 196.849476 241.629619 
L 190.373801 250.500019 
L 190.056688 250.900438 
L 180.537419 259.370419 
L 178.152687 261.894282 
L 170.445362 268.240819 
L 166.248687 272.046822 
L 159.696661 277.111219 
" style="fill:none;stroke:#fde725;stroke-width:1.5;"/>
   </g>
   <g id="LineCollection_21">
    <path clip-path="url(#p0b78d94391)" d="M 95.022961 10.999219 
L 106.728687 19.598322 
L 107.098895 19.869619 
L 118.632687 28.416415 
L 119.061426 28.740019 
L 130.536687 37.405827 
L 130.786439 37.610419 
L 141.427994 46.480819 
L 142.440687 47.296482 
L 148.164136 55.351219 
L 154.344687 60.601796 
L 155.698308 64.221619 
L 160.930141 70.624354 
" style="fill:none;stroke:#440154;stroke-width:1.5;"/>
    <path clip-path="url(#p0b78d94391)" d="M 180.141691 91.610325 
L 189.38126 99.703219 
L 190.056688 100.254894 
L 201.393203 108.573619 
L 201.960688 109.000204 
L 210.938042 117.444019 
L 213.864688 119.912012 
L 218.268458 126.314419 
L 225.768687 135.167443 
L 225.774963 135.184819 
L 227.881589 144.055219 
L 228.821109 152.925619 
L 230.315274 161.796019 
L 231.786931 170.666419 
L 231.46522 179.536819 
L 229.196099 188.407219 
L 226.841407 197.277619 
L 225.768687 201.348587 
L 222.056443 206.148019 
L 216.731296 215.018419 
L 213.864688 221.39071 
L 211.653427 223.888819 
L 204.581123 232.759219 
L 201.960688 237.169218 
L 197.566035 241.629619 
L 190.705917 250.500019 
L 190.056688 251.319803 
L 181.008735 259.370419 
L 178.152687 262.393096 
L 171.051129 268.240819 
L 166.248687 272.596198 
L 160.407412 277.111219 
" style="fill:none;stroke:#440154;stroke-width:1.5;"/>
   </g>
   <g id="LineCollection_22">
    <path clip-path="url(#p0b78d94391)" d="M 110.710856 10.999219 
L 118.632687 16.883521 
L 122.529099 19.869619 
L 130.536687 25.8508 
L 134.199157 28.740019 
L 142.440687 34.98961 
L 145.200361 37.610419 
L 154.344687 45.037127 
L 155.228958 46.480819 
L 161.293273 55.351219 
L 166.248687 59.984184 
L 168.432806 64.221619 
L 178.152687 73.01915 
L 178.205868 73.092019 
L 184.925405 81.962419 
L 189.584616 85.894863 
" style="fill:none;stroke:#440154;stroke-width:1.5;"/>
    <path clip-path="url(#p0b78d94391)" d="M 215.844413 104.515529 
L 221.019093 108.573619 
L 225.768687 112.604312 
L 229.504501 117.444019 
L 237.672687 125.630651 
L 238.065079 126.314419 
L 241.963231 135.184819 
L 243.413965 144.055219 
L 244.160376 152.925619 
L 246.085334 161.796019 
L 248.435569 170.666419 
L 249.576687 176.453662 
L 249.724055 179.536819 
L 249.58886 188.407219 
L 249.576687 188.52987 
L 246.402277 197.277619 
L 242.708549 206.148019 
L 239.596296 215.018419 
L 237.672687 221.28504 
L 235.881055 223.888819 
L 228.91778 232.759219 
L 225.768687 237.819914 
L 222.145041 241.629619 
L 214.8607 250.500019 
L 213.864688 251.811516 
L 205.795177 259.370419 
L 201.960688 264.058672 
L 197.205496 268.240819 
L 190.056688 275.901959 
L 188.60808 277.111219 
" style="fill:none;stroke:#440154;stroke-width:1.5;"/>
   </g>
   <g id="LineCollection_23">
    <path clip-path="url(#p0b78d94391)" d="M 130.934505 10.999219 
L 142.440687 19.688297 
L 142.650474 19.869619 
L 153.095926 28.740019 
L 154.344687 29.728933 
L 160.190283 37.610419 
L 166.248687 43.088871 
L 168.242393 46.480819 
L 176.928877 55.351219 
L 178.152687 56.483853 
L 183.512664 64.221619 
L 190.056688 69.892223 
L 193.027386 73.092019 
L 201.960688 80.356804 
L 204.014421 81.962419 
L 213.864688 88.948204 
L 218.912316 90.832819 
L 222.954077 93.344085 
" style="fill:none;stroke:#440154;stroke-width:1.5;"/>
    <path clip-path="url(#p0b78d94391)" d="M 250.023458 116.696194 
L 250.579115 117.444019 
L 257.136307 126.314419 
L 261.480687 131.345331 
L 263.00364 135.184819 
L 262.617176 144.055219 
L 262.769882 152.925619 
L 263.415888 161.796019 
L 264.073149 170.666419 
L 264.807876 179.536819 
L 265.426279 188.407219 
L 265.570833 197.277619 
L 264.793053 206.148019 
L 263.220943 215.018419 
L 261.480687 223.111437 
L 261.067976 223.888819 
L 255.431546 232.759219 
L 249.576687 241.545252 
L 249.49526 241.629619 
L 240.393973 250.500019 
L 237.672687 253.833706 
L 231.83896 259.370419 
L 225.768687 266.687087 
L 224.105877 268.240819 
L 215.245698 277.111219 
" style="fill:none;stroke:#440154;stroke-width:1.5;"/>
   </g>
   <g id="LineCollection_24">
    <path clip-path="url(#p0b78d94391)" d="M 151.229595 10.999219 
L 154.344687 13.426437 
L 160.194548 19.869619 
L 166.248687 25.059679 
L 168.789928 28.740019 
L 178.152687 37.360233 
L 178.31699 37.610419 
L 184.419504 46.480819 
L 190.056688 51.5801 
L 193.067482 55.351219 
L 201.960688 62.870741 
L 203.349039 64.221619 
L 213.864688 72.44728 
L 214.847426 73.092019 
L 225.768687 80.319325 
L 231.058873 81.962419 
L 237.672687 85.795902 
L 245.874836 90.832819 
L 249.576687 93.779571 
L 254.6158 99.703219 
L 258.92988 103.889393 
" style="fill:none;stroke:#440154;stroke-width:1.5;"/>
    <path clip-path="url(#p0b78d94391)" d="M 280.90645 135.61436 
L 279.446234 144.055219 
L 279.522834 152.925619 
L 280.432619 161.796019 
L 281.133978 170.666419 
L 282.082936 179.536819 
L 283.185764 188.407219 
L 284.205958 197.277619 
L 284.883097 206.148019 
L 284.917836 215.018419 
L 283.952971 223.888819 
L 281.950847 232.759219 
L 277.295035 241.629619 
L 273.384688 248.048314 
L 270.946192 250.500019 
L 262.841353 259.370419 
L 261.480687 261.032697 
L 253.78185 268.240819 
L 249.576687 273.06216 
L 245.17243 277.111219 
" style="fill:none;stroke:#440154;stroke-width:1.5;"/>
   </g>
   <g id="LineCollection_25">
    <path clip-path="url(#p0b78d94391)" d="M 170.123629 10.999219 
L 178.152687 18.148145 
L 179.349471 19.869619 
L 187.265359 28.740019 
L 190.056688 31.30395 
L 194.72211 37.610419 
L 201.960688 43.994369 
L 204.171625 46.480819 
L 213.864688 54.5355 
L 214.776539 55.351219 
L 225.768687 63.708928 
L 226.686273 64.221619 
L 237.672687 70.970279 
L 245.188974 73.092019 
L 249.576687 75.539982 
L 260.427797 81.962419 
L 261.480687 82.79011 
L 268.533196 90.832819 
L 273.384688 95.496793 
L 275.594146 99.703219 
L 276.365477 100.481952 
" style="fill:none;stroke:#440154;stroke-width:1.5;"/>
    <path clip-path="url(#p0b78d94391)" d="M 297.754719 136.68322 
L 297.43268 144.055219 
L 297.502728 152.925619 
L 297.809038 161.796019 
L 298.026051 170.666419 
L 298.325922 179.536819 
L 298.754627 188.407219 
L 299.199539 197.277619 
L 299.638353 206.148019 
L 300.036352 215.018419 
L 300.354105 223.888819 
L 300.501831 232.759219 
L 300.091724 241.629619 
L 297.854782 250.500019 
L 297.192688 252.452239 
L 291.490796 259.370419 
L 285.839769 268.240819 
L 285.288688 269.047648 
L 276.827157 277.111219 
" style="fill:none;stroke:#440154;stroke-width:1.5;"/>
   </g>
   <g id="LineCollection_26">
    <path clip-path="url(#p0b78d94391)" d="M 190.603223 10.999219 
L 198.020686 19.869619 
L 201.960688 23.415206 
L 206.309901 28.740019 
L 213.864688 35.254416 
L 216.170101 37.610419 
L 225.768687 45.38501 
L 227.184229 46.480819 
L 237.672687 54.123976 
L 240.198866 55.351219 
L 249.576687 60.747731 
L 261.480687 64.076106 
L 261.837957 64.221619 
L 273.384688 72.385256 
L 273.936589 73.092019 
L 281.011134 81.962419 
L 285.288688 86.224693 
L 287.119132 90.832819 
L 293.165348 99.703219 
L 295.805365 102.359658 
" style="fill:none;stroke:#450457;stroke-width:1.5;"/>
    <path clip-path="url(#p0b78d94391)" d="M 311.295559 144.532963 
L 311.640386 152.925619 
L 312.376801 161.796019 
L 312.966554 170.666419 
L 313.694957 179.536819 
L 314.777069 188.407219 
L 315.996844 197.277619 
L 317.223968 206.148019 
L 318.416513 215.018419 
L 319.528706 223.888819 
L 320.400886 232.759219 
L 321.000688 241.483222 
L 321.003105 241.629619 
L 321.000688 241.657499 
L 318.134068 250.500019 
L 314.406849 259.370419 
L 310.756804 268.240819 
L 309.096688 271.972536 
L 304.556658 277.111219 
" style="fill:none;stroke:#450457;stroke-width:1.5;"/>
   </g>
   <g id="LineCollection_27">
    <path clip-path="url(#p0b78d94391)" d="M 209.755704 10.999219 
L 213.864688 14.578192 
L 218.749081 19.869619 
L 225.768687 25.743984 
L 229.11161 28.740019 
L 237.672687 35.371905 
L 241.018865 37.610419 
L 249.576687 43.560066 
L 255.863373 46.480819 
L 261.480687 49.653607 
L 273.384688 54.434128 
L 274.925749 55.351219 
L 285.288688 63.842862 
L 285.508263 64.221619 
L 290.281689 73.092019 
L 297.192688 80.171671 
L 297.879825 81.962419 
L 302.085113 90.832819 
L 306.35628 95.349178 
" style="fill:none;stroke:#482475;stroke-width:1.5;"/>
    <path clip-path="url(#p0b78d94391)" d="M 326.775281 139.716719 
L 326.59239 144.055219 
L 327.611371 152.925619 
L 329.230191 161.796019 
L 330.7339 170.666419 
L 332.509371 179.536819 
L 332.904688 181.092773 
L 333.351926 188.407219 
L 334.041755 197.277619 
L 334.81218 206.148019 
L 335.619567 215.018419 
L 336.380434 223.888819 
L 337.017369 232.759219 
L 337.514266 241.629619 
L 337.259227 250.500019 
L 335.5419 259.370419 
L 333.626286 268.240819 
L 332.904688 270.643634 
L 328.343853 277.111219 
" style="fill:none;stroke:#482475;stroke-width:1.5;"/>
   </g>
   <g id="LineCollection_28">
    <path clip-path="url(#p0b78d94391)" d="M 231.405294 10.999219 
L 237.672687 16.037131 
L 242.515184 19.869619 
L 249.576687 25.060678 
L 255.462023 28.740019 
L 261.480687 32.848864 
L 270.120933 37.610419 
L 273.384688 39.640705 
L 285.288688 46.150989 
L 285.752129 46.480819 
L 294.190745 55.351219 
L 297.192688 58.224423 
L 299.934687 64.221619 
L 307.190108 73.092019 
L 309.096688 75.100535 
L 311.727689 81.962419 
L 318.727716 90.832819 
L 321.000688 93.187014 
L 321.870448 95.228064 
" style="fill:none;stroke:#fde725;stroke-width:1.5;"/>
    <path clip-path="url(#p0b78d94391)" d="M 344.863548 142.04481 
L 344.853984 144.055219 
L 345.319554 152.925619 
L 346.002467 161.796019 
L 346.735305 170.666419 
L 347.614474 179.536819 
L 348.88373 188.407219 
L 350.637394 197.277619 
L 352.734359 206.148019 
L 354.971873 215.018419 
L 356.712688 222.256392 
L 356.817125 223.888819 
L 357.26221 232.759219 
L 357.608516 241.629619 
L 357.951672 250.500019 
L 357.215348 259.370419 
L 356.712688 263.272889 
L 354.759152 268.240819 
L 350.003813 277.111219 
" style="fill:none;stroke:#fde725;stroke-width:1.5;"/>
   </g>
   <g id="line2d_20">
    <path clip-path="url(#p0b78d94391)" d="M 406.987188 191.527239 
L 400.008895 190.913073 
L 385.861209 189.491488 
L 371.936503 187.701155 
L 358.273313 185.75293 
L 344.861151 183.46276 
L 331.639818 180.825431 
L 318.725767 178.121849 
L 306.028951 175.246005 
L 293.540682 172.178773 
L 281.290989 169.049301 
L 269.231687 165.443406 
L 257.403919 161.779815 
L 245.787857 158.059774 
L 234.249106 153.521971 
L 223.092449 149.912178 
L 222.025328 149.824154 
L 220.94492 149.68954 
L 219.855803 149.505495 
L 218.775979 149.307705 
L 217.696905 149.094088 
L 216.617542 148.868117 
L 215.541289 148.636942 
L 214.465356 148.418123 
L 213.396972 148.181129 
L 212.330666 147.949863 
L 211.266014 147.71998 
L 210.206551 147.471979 
L 209.143407 147.240663 
L 208.081233 147.009412 
L 207.025111 146.769771 
L 205.969586 146.531884 
L 204.918447 146.318072 
L 203.869169 146.072347 
L 202.82558 145.841183 
L 201.780453 145.589784 
L 200.742358 145.356148 
L 199.700674 145.090488 
L 198.660879 144.874576 
L 197.625673 144.598694 
L 196.593366 144.371261 
L 196.491815 144.357492 
L 196.388818 144.342967 
L 196.285164 144.327851 
L 196.181704 144.31233 
L 196.078771 144.299424 
L 195.974501 144.285302 
L 195.871721 144.27188 
L 195.768965 144.259398 
L 195.665718 144.249307 
L 195.562188 144.23828 
L 195.459313 144.224133 
L 195.356765 144.208635 
L 195.254012 144.194933 
L 195.150598 144.181011 
L 195.047974 144.17045 
L 194.945435 144.156072 
L 194.843524 144.142423 
L 194.740744 144.132236 
L 194.638145 144.122923 
L 194.535128 144.112418 
L 194.432697 144.097406 
L 194.3305 144.084806 
L 194.228867 144.073903 
L 194.126678 144.065578 
" style="fill:none;stroke:#1f77b4;stroke-linecap:square;stroke-width:1.5;"/>
    <defs>
     <path d="M 0 1.5 
C 0.397805 1.5 0.77937 1.341951 1.06066 1.06066 
C 1.341951 0.77937 1.5 0.397805 1.5 0 
C 1.5 -0.397805 1.341951 -0.77937 1.06066 -1.06066 
C 0.77937 -1.341951 0.397805 -1.5 0 -1.5 
C -0.397805 -1.5 -0.77937 -1.341951 -1.06066 -1.06066 
C -1.341951 -0.77937 -1.5 -0.397805 -1.5 0 
C -1.5 0.397805 -1.341951 0.77937 -1.06066 1.06066 
C -0.77937 1.341951 -0.397805 1.5 0 1.5 
z
" id="m321ebcc0a7" style="stroke:#1f77b4;"/>
    </defs>
    <g clip-path="url(#p0b78d94391)">
     <use style="fill:#1f77b4;stroke:#1f77b4;" x="1086.358477" xlink:href="#m321ebcc0a7" y="113.520392"/>
     <use style="fill:#1f77b4;stroke:#1f77b4;" x="1063.092613" xlink:href="#m321ebcc0a7" y="116.365699"/>
     <use style="fill:#1f77b4;stroke:#1f77b4;" x="1037.851711" xlink:href="#m321ebcc0a7" y="119.283105"/>
     <use style="fill:#1f77b4;stroke:#1f77b4;" x="1012.947752" xlink:href="#m321ebcc0a7" y="122.33342"/>
     <use style="fill:#1f77b4;stroke:#1f77b4;" x="988.438861" xlink:href="#m321ebcc0a7" y="125.618575"/>
     <use style="fill:#1f77b4;stroke:#1f77b4;" x="964.322496" xlink:href="#m321ebcc0a7" y="129.07097"/>
     <use style="fill:#1f77b4;stroke:#1f77b4;" x="940.601623" xlink:href="#m321ebcc0a7" y="132.559212"/>
     <use style="fill:#1f77b4;stroke:#1f77b4;" x="917.253113" xlink:href="#m321ebcc0a7" y="136.379482"/>
     <use style="fill:#1f77b4;stroke:#1f77b4;" x="894.286715" xlink:href="#m321ebcc0a7" y="140.071568"/>
     <use style="fill:#1f77b4;stroke:#1f77b4;" x="871.694799" xlink:href="#m321ebcc0a7" y="143.745258"/>
     <use style="fill:#1f77b4;stroke:#1f77b4;" x="849.443641" xlink:href="#m321ebcc0a7" y="147.722155"/>
     <use style="fill:#1f77b4;stroke:#1f77b4;" x="827.538992" xlink:href="#m321ebcc0a7" y="151.557999"/>
     <use style="fill:#1f77b4;stroke:#1f77b4;" x="806.013609" xlink:href="#m321ebcc0a7" y="155.258235"/>
     <use style="fill:#1f77b4;stroke:#1f77b4;" x="784.85175" xlink:href="#m321ebcc0a7" y="158.817917"/>
     <use style="fill:#1f77b4;stroke:#1f77b4;" x="763.991172" xlink:href="#m321ebcc0a7" y="162.488907"/>
     <use style="fill:#1f77b4;stroke:#1f77b4;" x="743.49666" xlink:href="#m321ebcc0a7" y="166.017681"/>
     <use style="fill:#1f77b4;stroke:#1f77b4;" x="723.354471" xlink:href="#m321ebcc0a7" y="169.292672"/>
     <use style="fill:#1f77b4;stroke:#1f77b4;" x="703.544139" xlink:href="#m321ebcc0a7" y="172.425781"/>
     <use style="fill:#1f77b4;stroke:#1f77b4;" x="684.057884" xlink:href="#m321ebcc0a7" y="175.455913"/>
     <use style="fill:#1f77b4;stroke:#1f77b4;" x="664.946354" xlink:href="#m321ebcc0a7" y="178.193943"/>
     <use style="fill:#1f77b4;stroke:#1f77b4;" x="646.125206" xlink:href="#m321ebcc0a7" y="180.856361"/>
     <use style="fill:#1f77b4;stroke:#1f77b4;" x="627.636521" xlink:href="#m321ebcc0a7" y="183.184057"/>
     <use style="fill:#1f77b4;stroke:#1f77b4;" x="609.475274" xlink:href="#m321ebcc0a7" y="185.351053"/>
     <use style="fill:#1f77b4;stroke:#1f77b4;" x="591.619184" xlink:href="#m321ebcc0a7" y="187.287665"/>
     <use style="fill:#1f77b4;stroke:#1f77b4;" x="574.054565" xlink:href="#m321ebcc0a7" y="189.019491"/>
     <use style="fill:#1f77b4;stroke:#1f77b4;" x="556.790502" xlink:href="#m321ebcc0a7" y="190.593242"/>
     <use style="fill:#1f77b4;stroke:#1f77b4;" x="539.874855" xlink:href="#m321ebcc0a7" y="191.688289"/>
     <use style="fill:#1f77b4;stroke:#1f77b4;" x="523.196946" xlink:href="#m321ebcc0a7" y="192.584991"/>
     <use style="fill:#1f77b4;stroke:#1f77b4;" x="506.777088" xlink:href="#m321ebcc0a7" y="193.298943"/>
     <use style="fill:#1f77b4;stroke:#1f77b4;" x="490.711792" xlink:href="#m321ebcc0a7" y="193.831962"/>
     <use style="fill:#1f77b4;stroke:#1f77b4;" x="474.869854" xlink:href="#m321ebcc0a7" y="194.016641"/>
     <use style="fill:#1f77b4;stroke:#1f77b4;" x="459.362073" xlink:href="#m321ebcc0a7" y="193.842558"/>
     <use style="fill:#1f77b4;stroke:#1f77b4;" x="444.118883" xlink:href="#m321ebcc0a7" y="193.676713"/>
     <use style="fill:#1f77b4;stroke:#1f77b4;" x="429.139783" xlink:href="#m321ebcc0a7" y="193.214042"/>
     <use style="fill:#1f77b4;stroke:#1f77b4;" x="414.469366" xlink:href="#m321ebcc0a7" y="192.185753"/>
     <use style="fill:#1f77b4;stroke:#1f77b4;" x="400.008895" xlink:href="#m321ebcc0a7" y="190.913073"/>
     <use style="fill:#1f77b4;stroke:#1f77b4;" x="385.861209" xlink:href="#m321ebcc0a7" y="189.491488"/>
     <use style="fill:#1f77b4;stroke:#1f77b4;" x="371.936503" xlink:href="#m321ebcc0a7" y="187.701155"/>
     <use style="fill:#1f77b4;stroke:#1f77b4;" x="358.273313" xlink:href="#m321ebcc0a7" y="185.75293"/>
     <use style="fill:#1f77b4;stroke:#1f77b4;" x="344.861151" xlink:href="#m321ebcc0a7" y="183.46276"/>
     <use style="fill:#1f77b4;stroke:#1f77b4;" x="331.639818" xlink:href="#m321ebcc0a7" y="180.825431"/>
     <use style="fill:#1f77b4;stroke:#1f77b4;" x="318.725767" xlink:href="#m321ebcc0a7" y="178.121849"/>
     <use style="fill:#1f77b4;stroke:#1f77b4;" x="306.028951" xlink:href="#m321ebcc0a7" y="175.246005"/>
     <use style="fill:#1f77b4;stroke:#1f77b4;" x="293.540682" xlink:href="#m321ebcc0a7" y="172.178773"/>
     <use style="fill:#1f77b4;stroke:#1f77b4;" x="281.290989" xlink:href="#m321ebcc0a7" y="169.049301"/>
     <use style="fill:#1f77b4;stroke:#1f77b4;" x="269.231687" xlink:href="#m321ebcc0a7" y="165.443406"/>
     <use style="fill:#1f77b4;stroke:#1f77b4;" x="257.403919" xlink:href="#m321ebcc0a7" y="161.779815"/>
     <use style="fill:#1f77b4;stroke:#1f77b4;" x="245.787857" xlink:href="#m321ebcc0a7" y="158.059774"/>
     <use style="fill:#1f77b4;stroke:#1f77b4;" x="234.249106" xlink:href="#m321ebcc0a7" y="153.521971"/>
     <use style="fill:#1f77b4;stroke:#1f77b4;" x="223.092449" xlink:href="#m321ebcc0a7" y="149.912178"/>
     <use style="fill:#1f77b4;stroke:#1f77b4;" x="222.025328" xlink:href="#m321ebcc0a7" y="149.824154"/>
     <use style="fill:#1f77b4;stroke:#1f77b4;" x="220.94492" xlink:href="#m321ebcc0a7" y="149.68954"/>
     <use style="fill:#1f77b4;stroke:#1f77b4;" x="219.855803" xlink:href="#m321ebcc0a7" y="149.505495"/>
     <use style="fill:#1f77b4;stroke:#1f77b4;" x="218.775979" xlink:href="#m321ebcc0a7" y="149.307705"/>
     <use style="fill:#1f77b4;stroke:#1f77b4;" x="217.696905" xlink:href="#m321ebcc0a7" y="149.094088"/>
     <use style="fill:#1f77b4;stroke:#1f77b4;" x="216.617542" xlink:href="#m321ebcc0a7" y="148.868117"/>
     <use style="fill:#1f77b4;stroke:#1f77b4;" x="215.541289" xlink:href="#m321ebcc0a7" y="148.636942"/>
     <use style="fill:#1f77b4;stroke:#1f77b4;" x="214.465356" xlink:href="#m321ebcc0a7" y="148.418123"/>
     <use style="fill:#1f77b4;stroke:#1f77b4;" x="213.396972" xlink:href="#m321ebcc0a7" y="148.181129"/>
     <use style="fill:#1f77b4;stroke:#1f77b4;" x="212.330666" xlink:href="#m321ebcc0a7" y="147.949863"/>
     <use style="fill:#1f77b4;stroke:#1f77b4;" x="211.266014" xlink:href="#m321ebcc0a7" y="147.71998"/>
     <use style="fill:#1f77b4;stroke:#1f77b4;" x="210.206551" xlink:href="#m321ebcc0a7" y="147.471979"/>
     <use style="fill:#1f77b4;stroke:#1f77b4;" x="209.143407" xlink:href="#m321ebcc0a7" y="147.240663"/>
     <use style="fill:#1f77b4;stroke:#1f77b4;" x="208.081233" xlink:href="#m321ebcc0a7" y="147.009412"/>
     <use style="fill:#1f77b4;stroke:#1f77b4;" x="207.025111" xlink:href="#m321ebcc0a7" y="146.769771"/>
     <use style="fill:#1f77b4;stroke:#1f77b4;" x="205.969586" xlink:href="#m321ebcc0a7" y="146.531884"/>
     <use style="fill:#1f77b4;stroke:#1f77b4;" x="204.918447" xlink:href="#m321ebcc0a7" y="146.318072"/>
     <use style="fill:#1f77b4;stroke:#1f77b4;" x="203.869169" xlink:href="#m321ebcc0a7" y="146.072347"/>
     <use style="fill:#1f77b4;stroke:#1f77b4;" x="202.82558" xlink:href="#m321ebcc0a7" y="145.841183"/>
     <use style="fill:#1f77b4;stroke:#1f77b4;" x="201.780453" xlink:href="#m321ebcc0a7" y="145.589784"/>
     <use style="fill:#1f77b4;stroke:#1f77b4;" x="200.742358" xlink:href="#m321ebcc0a7" y="145.356148"/>
     <use style="fill:#1f77b4;stroke:#1f77b4;" x="199.700674" xlink:href="#m321ebcc0a7" y="145.090488"/>
     <use style="fill:#1f77b4;stroke:#1f77b4;" x="198.660879" xlink:href="#m321ebcc0a7" y="144.874576"/>
     <use style="fill:#1f77b4;stroke:#1f77b4;" x="197.625673" xlink:href="#m321ebcc0a7" y="144.598694"/>
     <use style="fill:#1f77b4;stroke:#1f77b4;" x="196.593366" xlink:href="#m321ebcc0a7" y="144.371261"/>
     <use style="fill:#1f77b4;stroke:#1f77b4;" x="196.491815" xlink:href="#m321ebcc0a7" y="144.357492"/>
     <use style="fill:#1f77b4;stroke:#1f77b4;" x="196.388818" xlink:href="#m321ebcc0a7" y="144.342967"/>
     <use style="fill:#1f77b4;stroke:#1f77b4;" x="196.285164" xlink:href="#m321ebcc0a7" y="144.327851"/>
     <use style="fill:#1f77b4;stroke:#1f77b4;" x="196.181704" xlink:href="#m321ebcc0a7" y="144.31233"/>
     <use style="fill:#1f77b4;stroke:#1f77b4;" x="196.078771" xlink:href="#m321ebcc0a7" y="144.299424"/>
     <use style="fill:#1f77b4;stroke:#1f77b4;" x="195.974501" xlink:href="#m321ebcc0a7" y="144.285302"/>
     <use style="fill:#1f77b4;stroke:#1f77b4;" x="195.871721" xlink:href="#m321ebcc0a7" y="144.27188"/>
     <use style="fill:#1f77b4;stroke:#1f77b4;" x="195.768965" xlink:href="#m321ebcc0a7" y="144.259398"/>
     <use style="fill:#1f77b4;stroke:#1f77b4;" x="195.665718" xlink:href="#m321ebcc0a7" y="144.249307"/>
     <use style="fill:#1f77b4;stroke:#1f77b4;" x="195.562188" xlink:href="#m321ebcc0a7" y="144.23828"/>
     <use style="fill:#1f77b4;stroke:#1f77b4;" x="195.459313" xlink:href="#m321ebcc0a7" y="144.224133"/>
     <use style="fill:#1f77b4;stroke:#1f77b4;" x="195.356765" xlink:href="#m321ebcc0a7" y="144.208635"/>
     <use style="fill:#1f77b4;stroke:#1f77b4;" x="195.254012" xlink:href="#m321ebcc0a7" y="144.194933"/>
     <use style="fill:#1f77b4;stroke:#1f77b4;" x="195.150598" xlink:href="#m321ebcc0a7" y="144.181011"/>
     <use style="fill:#1f77b4;stroke:#1f77b4;" x="195.047974" xlink:href="#m321ebcc0a7" y="144.17045"/>
     <use style="fill:#1f77b4;stroke:#1f77b4;" x="194.945435" xlink:href="#m321ebcc0a7" y="144.156072"/>
     <use style="fill:#1f77b4;stroke:#1f77b4;" x="194.843524" xlink:href="#m321ebcc0a7" y="144.142423"/>
     <use style="fill:#1f77b4;stroke:#1f77b4;" x="194.740744" xlink:href="#m321ebcc0a7" y="144.132236"/>
     <use style="fill:#1f77b4;stroke:#1f77b4;" x="194.638145" xlink:href="#m321ebcc0a7" y="144.122923"/>
     <use style="fill:#1f77b4;stroke:#1f77b4;" x="194.535128" xlink:href="#m321ebcc0a7" y="144.112418"/>
     <use style="fill:#1f77b4;stroke:#1f77b4;" x="194.432697" xlink:href="#m321ebcc0a7" y="144.097406"/>
     <use style="fill:#1f77b4;stroke:#1f77b4;" x="194.3305" xlink:href="#m321ebcc0a7" y="144.084806"/>
     <use style="fill:#1f77b4;stroke:#1f77b4;" x="194.228867" xlink:href="#m321ebcc0a7" y="144.073903"/>
     <use style="fill:#1f77b4;stroke:#1f77b4;" x="194.126678" xlink:href="#m321ebcc0a7" y="144.065578"/>
    </g>
   </g>
   <g id="patch_3">
    <path d="M 35.304688 277.111219 
L 35.304688 10.999219 
" style="fill:none;stroke:#000000;stroke-linecap:square;stroke-linejoin:miter;stroke-width:0.8;"/>
   </g>
   <g id="patch_4">
    <path d="M 392.424688 277.111219 
L 392.424688 10.999219 
" style="fill:none;stroke:#000000;stroke-linecap:square;stroke-linejoin:miter;stroke-width:0.8;"/>
   </g>
   <g id="patch_5">
    <path d="M 35.304687 277.111219 
L 392.424688 277.111219 
" style="fill:none;stroke:#000000;stroke-linecap:square;stroke-linejoin:miter;stroke-width:0.8;"/>
   </g>
   <g id="patch_6">
    <path d="M 35.304687 10.999219 
L 392.424688 10.999219 
" style="fill:none;stroke:#000000;stroke-linecap:square;stroke-linejoin:miter;stroke-width:0.8;"/>
   </g>
   <g id="text_20">
    <g clip-path="url(#p0b78d94391)">
     <!-- 1.000 -->
     <g style="fill:#482576;" transform="translate(181.380518 120.28312)rotate(-341.814687)scale(0.06 -0.06)">
      <defs>
       <path d="M 10.6875 12.40625 
L 21 12.40625 
L 21 0 
L 10.6875 0 
z
" id="DejaVuSans-46"/>
      </defs>
      <use xlink:href="#DejaVuSans-49"/>
      <use x="63.623047" xlink:href="#DejaVuSans-46"/>
      <use x="95.410156" xlink:href="#DejaVuSans-48"/>
      <use x="159.033203" xlink:href="#DejaVuSans-48"/>
      <use x="222.65625" xlink:href="#DejaVuSans-48"/>
     </g>
    </g>
   </g>
   <g id="text_21">
    <g clip-path="url(#p0b78d94391)">
     <!-- 1.500 -->
     <g style="fill:#453781;" transform="translate(164.840287 134.936922)rotate(-88.750314)scale(0.06 -0.06)">
      <use xlink:href="#DejaVuSans-49"/>
      <use x="63.623047" xlink:href="#DejaVuSans-46"/>
      <use x="95.410156" xlink:href="#DejaVuSans-53"/>
      <use x="159.033203" xlink:href="#DejaVuSans-48"/>
      <use x="222.65625" xlink:href="#DejaVuSans-48"/>
     </g>
    </g>
   </g>
   <g id="text_22">
    <g clip-path="url(#p0b78d94391)">
     <!-- 2.000 -->
     <g style="fill:#404688;" transform="translate(148.046939 179.319426)rotate(-87.476366)scale(0.06 -0.06)">
      <use xlink:href="#DejaVuSans-50"/>
      <use x="63.623047" xlink:href="#DejaVuSans-46"/>
      <use x="95.410156" xlink:href="#DejaVuSans-48"/>
      <use x="159.033203" xlink:href="#DejaVuSans-48"/>
      <use x="222.65625" xlink:href="#DejaVuSans-48"/>
     </g>
    </g>
   </g>
   <g id="text_23">
    <g clip-path="url(#p0b78d94391)">
     <!-- 2.500 -->
     <g style="fill:#39558c;" transform="translate(86.887992 276.501484)rotate(-13.939228)scale(0.06 -0.06)">
      <use xlink:href="#DejaVuSans-50"/>
      <use x="63.623047" xlink:href="#DejaVuSans-46"/>
      <use x="95.410156" xlink:href="#DejaVuSans-53"/>
      <use x="159.033203" xlink:href="#DejaVuSans-48"/>
      <use x="222.65625" xlink:href="#DejaVuSans-48"/>
     </g>
    </g>
   </g>
   <g id="text_24">
    <g clip-path="url(#p0b78d94391)">
     <!-- 2.500 -->
     <g style="fill:#39558c;" transform="translate(100.201993 214.705651)rotate(-67.158345)scale(0.06 -0.06)">
      <use xlink:href="#DejaVuSans-50"/>
      <use x="63.623047" xlink:href="#DejaVuSans-46"/>
      <use x="95.410156" xlink:href="#DejaVuSans-53"/>
      <use x="159.033203" xlink:href="#DejaVuSans-48"/>
      <use x="222.65625" xlink:href="#DejaVuSans-48"/>
     </g>
    </g>
   </g>
   <g id="text_25">
    <g clip-path="url(#p0b78d94391)">
     <!-- 2.500 -->
     <g style="fill:#39558c;" transform="translate(135.051816 59.087593)rotate(-316.736493)scale(0.06 -0.06)">
      <use xlink:href="#DejaVuSans-50"/>
      <use x="63.623047" xlink:href="#DejaVuSans-46"/>
      <use x="95.410156" xlink:href="#DejaVuSans-53"/>
      <use x="159.033203" xlink:href="#DejaVuSans-48"/>
      <use x="222.65625" xlink:href="#DejaVuSans-48"/>
     </g>
    </g>
   </g>
   <g id="text_26">
    <g clip-path="url(#p0b78d94391)">
     <!-- 3.000 -->
     <g style="fill:#33638d;" transform="translate(203.181358 214.251449)rotate(-56.979836)scale(0.06 -0.06)">
      <defs>
       <path d="M 40.578125 39.3125 
Q 47.65625 37.796875 51.625 33 
Q 55.609375 28.21875 55.609375 21.1875 
Q 55.609375 10.40625 48.1875 4.484375 
Q 40.765625 -1.421875 27.09375 -1.421875 
Q 22.515625 -1.421875 17.65625 -0.515625 
Q 12.796875 0.390625 7.625 2.203125 
L 7.625 11.71875 
Q 11.71875 9.328125 16.59375 8.109375 
Q 21.484375 6.890625 26.8125 6.890625 
Q 36.078125 6.890625 40.9375 10.546875 
Q 45.796875 14.203125 45.796875 21.1875 
Q 45.796875 27.640625 41.28125 31.265625 
Q 36.765625 34.90625 28.71875 34.90625 
L 20.21875 34.90625 
L 20.21875 43.015625 
L 29.109375 43.015625 
Q 36.375 43.015625 40.234375 45.921875 
Q 44.09375 48.828125 44.09375 54.296875 
Q 44.09375 59.90625 40.109375 62.90625 
Q 36.140625 65.921875 28.71875 65.921875 
Q 24.65625 65.921875 20.015625 65.03125 
Q 15.375 64.15625 9.8125 62.3125 
L 9.8125 71.09375 
Q 15.4375 72.65625 20.34375 73.4375 
Q 25.25 74.21875 29.59375 74.21875 
Q 40.828125 74.21875 47.359375 69.109375 
Q 53.90625 64.015625 53.90625 55.328125 
Q 53.90625 49.265625 50.4375 45.09375 
Q 46.96875 40.921875 40.578125 39.3125 
z
" id="DejaVuSans-51"/>
      </defs>
      <use xlink:href="#DejaVuSans-51"/>
      <use x="63.623047" xlink:href="#DejaVuSans-46"/>
      <use x="95.410156" xlink:href="#DejaVuSans-48"/>
      <use x="159.033203" xlink:href="#DejaVuSans-48"/>
      <use x="222.65625" xlink:href="#DejaVuSans-48"/>
     </g>
    </g>
   </g>
   <g id="text_27">
    <g clip-path="url(#p0b78d94391)">
     <!-- 3.500 -->
     <g style="fill:#2d718e;" transform="translate(147.245512 65.301827)rotate(-313.346495)scale(0.06 -0.06)">
      <use xlink:href="#DejaVuSans-51"/>
      <use x="63.623047" xlink:href="#DejaVuSans-46"/>
      <use x="95.410156" xlink:href="#DejaVuSans-53"/>
      <use x="159.033203" xlink:href="#DejaVuSans-48"/>
      <use x="222.65625" xlink:href="#DejaVuSans-48"/>
     </g>
    </g>
   </g>
   <g id="text_28">
    <g clip-path="url(#p0b78d94391)">
     <!-- 4.000 -->
     <g style="fill:#287d8e;" transform="translate(147.427847 63.45409)rotate(-311.349691)scale(0.06 -0.06)">
      <defs>
       <path d="M 37.796875 64.3125 
L 12.890625 25.390625 
L 37.796875 25.390625 
z
M 35.203125 72.90625 
L 47.609375 72.90625 
L 47.609375 25.390625 
L 58.015625 25.390625 
L 58.015625 17.1875 
L 47.609375 17.1875 
L 47.609375 0 
L 37.796875 0 
L 37.796875 17.1875 
L 4.890625 17.1875 
L 4.890625 26.703125 
z
" id="DejaVuSans-52"/>
      </defs>
      <use xlink:href="#DejaVuSans-52"/>
      <use x="63.623047" xlink:href="#DejaVuSans-46"/>
      <use x="95.410156" xlink:href="#DejaVuSans-48"/>
      <use x="159.033203" xlink:href="#DejaVuSans-48"/>
      <use x="222.65625" xlink:href="#DejaVuSans-48"/>
     </g>
    </g>
   </g>
   <g id="text_29">
    <g clip-path="url(#p0b78d94391)">
     <!-- 4.500 -->
     <g style="fill:#238a8d;" transform="translate(147.790462 61.412326)rotate(-307.622723)scale(0.06 -0.06)">
      <use xlink:href="#DejaVuSans-52"/>
      <use x="63.623047" xlink:href="#DejaVuSans-46"/>
      <use x="95.410156" xlink:href="#DejaVuSans-53"/>
      <use x="159.033203" xlink:href="#DejaVuSans-48"/>
      <use x="222.65625" xlink:href="#DejaVuSans-48"/>
     </g>
    </g>
   </g>
   <g id="text_30">
    <g clip-path="url(#p0b78d94391)">
     <!-- 5.000 -->
     <g style="fill:#1f968b;" transform="translate(148.030944 59.547592)rotate(-305.296511)scale(0.06 -0.06)">
      <use xlink:href="#DejaVuSans-53"/>
      <use x="63.623047" xlink:href="#DejaVuSans-46"/>
      <use x="95.410156" xlink:href="#DejaVuSans-48"/>
      <use x="159.033203" xlink:href="#DejaVuSans-48"/>
      <use x="222.65625" xlink:href="#DejaVuSans-48"/>
     </g>
    </g>
   </g>
   <g id="text_31">
    <g clip-path="url(#p0b78d94391)">
     <!-- 5.500 -->
     <g style="fill:#20a386;" transform="translate(148.089058 58.129852)rotate(-304.943812)scale(0.06 -0.06)">
      <use xlink:href="#DejaVuSans-53"/>
      <use x="63.623047" xlink:href="#DejaVuSans-46"/>
      <use x="95.410156" xlink:href="#DejaVuSans-53"/>
      <use x="159.033203" xlink:href="#DejaVuSans-48"/>
      <use x="222.65625" xlink:href="#DejaVuSans-48"/>
     </g>
    </g>
   </g>
   <g id="text_32">
    <g clip-path="url(#p0b78d94391)">
     <!-- 6.000 -->
     <g style="fill:#29af7f;" transform="translate(148.181452 58.187775)rotate(-305.470241)scale(0.06 -0.06)">
      <defs>
       <path d="M 33.015625 40.375 
Q 26.375 40.375 22.484375 35.828125 
Q 18.609375 31.296875 18.609375 23.390625 
Q 18.609375 15.53125 22.484375 10.953125 
Q 26.375 6.390625 33.015625 6.390625 
Q 39.65625 6.390625 43.53125 10.953125 
Q 47.40625 15.53125 47.40625 23.390625 
Q 47.40625 31.296875 43.53125 35.828125 
Q 39.65625 40.375 33.015625 40.375 
z
M 52.59375 71.296875 
L 52.59375 62.3125 
Q 48.875 64.0625 45.09375 64.984375 
Q 41.3125 65.921875 37.59375 65.921875 
Q 27.828125 65.921875 22.671875 59.328125 
Q 17.53125 52.734375 16.796875 39.40625 
Q 19.671875 43.65625 24.015625 45.921875 
Q 28.375 48.1875 33.59375 48.1875 
Q 44.578125 48.1875 50.953125 41.515625 
Q 57.328125 34.859375 57.328125 23.390625 
Q 57.328125 12.15625 50.6875 5.359375 
Q 44.046875 -1.421875 33.015625 -1.421875 
Q 20.359375 -1.421875 13.671875 8.265625 
Q 6.984375 17.96875 6.984375 36.375 
Q 6.984375 53.65625 15.1875 63.9375 
Q 23.390625 74.21875 37.203125 74.21875 
Q 40.921875 74.21875 44.703125 73.484375 
Q 48.484375 72.75 52.59375 71.296875 
z
" id="DejaVuSans-54"/>
      </defs>
      <use xlink:href="#DejaVuSans-54"/>
      <use x="63.623047" xlink:href="#DejaVuSans-46"/>
      <use x="95.410156" xlink:href="#DejaVuSans-48"/>
      <use x="159.033203" xlink:href="#DejaVuSans-48"/>
      <use x="222.65625" xlink:href="#DejaVuSans-48"/>
     </g>
    </g>
   </g>
   <g id="text_33">
    <g clip-path="url(#p0b78d94391)">
     <!-- 6.500 -->
     <g style="fill:#3dbc74;" transform="translate(148.278135 58.242197)rotate(-305.960679)scale(0.06 -0.06)">
      <use xlink:href="#DejaVuSans-54"/>
      <use x="63.623047" xlink:href="#DejaVuSans-46"/>
      <use x="95.410156" xlink:href="#DejaVuSans-53"/>
      <use x="159.033203" xlink:href="#DejaVuSans-48"/>
      <use x="222.65625" xlink:href="#DejaVuSans-48"/>
     </g>
    </g>
   </g>
   <g id="text_34">
    <g clip-path="url(#p0b78d94391)">
     <!-- 7.000 -->
     <g style="fill:#56c667;" transform="translate(148.379305 58.292694)rotate(-306.412263)scale(0.06 -0.06)">
      <defs>
       <path d="M 8.203125 72.90625 
L 55.078125 72.90625 
L 55.078125 68.703125 
L 28.609375 0 
L 18.3125 0 
L 43.21875 64.59375 
L 8.203125 64.59375 
z
" id="DejaVuSans-55"/>
      </defs>
      <use xlink:href="#DejaVuSans-55"/>
      <use x="63.623047" xlink:href="#DejaVuSans-46"/>
      <use x="95.410156" xlink:href="#DejaVuSans-48"/>
      <use x="159.033203" xlink:href="#DejaVuSans-48"/>
      <use x="222.65625" xlink:href="#DejaVuSans-48"/>
     </g>
    </g>
   </g>
   <g id="text_35">
    <g clip-path="url(#p0b78d94391)">
     <!-- 7.500 -->
     <g style="fill:#75d054;" transform="translate(148.485076 58.338933)rotate(-306.822903)scale(0.06 -0.06)">
      <use xlink:href="#DejaVuSans-55"/>
      <use x="63.623047" xlink:href="#DejaVuSans-46"/>
      <use x="95.410156" xlink:href="#DejaVuSans-53"/>
      <use x="159.033203" xlink:href="#DejaVuSans-48"/>
      <use x="222.65625" xlink:href="#DejaVuSans-48"/>
     </g>
    </g>
   </g>
   <g id="text_36">
    <g clip-path="url(#p0b78d94391)">
     <!-- 8.000 -->
     <g style="fill:#95d840;" transform="translate(148.595493 58.380662)rotate(-307.191212)scale(0.06 -0.06)">
      <defs>
       <path d="M 31.78125 34.625 
Q 24.75 34.625 20.71875 30.859375 
Q 16.703125 27.09375 16.703125 20.515625 
Q 16.703125 13.921875 20.71875 10.15625 
Q 24.75 6.390625 31.78125 6.390625 
Q 38.8125 6.390625 42.859375 10.171875 
Q 46.921875 13.96875 46.921875 20.515625 
Q 46.921875 27.09375 42.890625 30.859375 
Q 38.875 34.625 31.78125 34.625 
z
M 21.921875 38.8125 
Q 15.578125 40.375 12.03125 44.71875 
Q 8.5 49.078125 8.5 55.328125 
Q 8.5 64.0625 14.71875 69.140625 
Q 20.953125 74.21875 31.78125 74.21875 
Q 42.671875 74.21875 48.875 69.140625 
Q 55.078125 64.0625 55.078125 55.328125 
Q 55.078125 49.078125 51.53125 44.71875 
Q 48 40.375 41.703125 38.8125 
Q 48.828125 37.15625 52.796875 32.3125 
Q 56.78125 27.484375 56.78125 20.515625 
Q 56.78125 9.90625 50.3125 4.234375 
Q 43.84375 -1.421875 31.78125 -1.421875 
Q 19.734375 -1.421875 13.25 4.234375 
Q 6.78125 9.90625 6.78125 20.515625 
Q 6.78125 27.484375 10.78125 32.3125 
Q 14.796875 37.15625 21.921875 38.8125 
z
M 18.3125 54.390625 
Q 18.3125 48.734375 21.84375 45.5625 
Q 25.390625 42.390625 31.78125 42.390625 
Q 38.140625 42.390625 41.71875 45.5625 
Q 45.3125 48.734375 45.3125 54.390625 
Q 45.3125 60.0625 41.71875 63.234375 
Q 38.140625 66.40625 31.78125 66.40625 
Q 25.390625 66.40625 21.84375 63.234375 
Q 18.3125 60.0625 18.3125 54.390625 
z
" id="DejaVuSans-56"/>
      </defs>
      <use xlink:href="#DejaVuSans-56"/>
      <use x="63.623047" xlink:href="#DejaVuSans-46"/>
      <use x="95.410156" xlink:href="#DejaVuSans-48"/>
      <use x="159.033203" xlink:href="#DejaVuSans-48"/>
      <use x="222.65625" xlink:href="#DejaVuSans-48"/>
     </g>
    </g>
   </g>
   <g id="text_37">
    <g clip-path="url(#p0b78d94391)">
     <!-- 8.500 -->
     <g style="fill:#bade28;" transform="translate(148.710545 58.417708)rotate(-307.516411)scale(0.06 -0.06)">
      <use xlink:href="#DejaVuSans-56"/>
      <use x="63.623047" xlink:href="#DejaVuSans-46"/>
      <use x="95.410156" xlink:href="#DejaVuSans-53"/>
      <use x="159.033203" xlink:href="#DejaVuSans-48"/>
      <use x="222.65625" xlink:href="#DejaVuSans-48"/>
     </g>
    </g>
   </g>
   <g id="text_38">
    <g clip-path="url(#p0b78d94391)">
     <!-- 9.000 -->
     <g style="fill:#dde318;" transform="translate(148.830174 58.449964)rotate(-307.798242)scale(0.06 -0.06)">
      <defs>
       <path d="M 10.984375 1.515625 
L 10.984375 10.5 
Q 14.703125 8.734375 18.5 7.8125 
Q 22.3125 6.890625 25.984375 6.890625 
Q 35.75 6.890625 40.890625 13.453125 
Q 46.046875 20.015625 46.78125 33.40625 
Q 43.953125 29.203125 39.59375 26.953125 
Q 35.25 24.703125 29.984375 24.703125 
Q 19.046875 24.703125 12.671875 31.3125 
Q 6.296875 37.9375 6.296875 49.421875 
Q 6.296875 60.640625 12.9375 67.421875 
Q 19.578125 74.21875 30.609375 74.21875 
Q 43.265625 74.21875 49.921875 64.515625 
Q 56.59375 54.828125 56.59375 36.375 
Q 56.59375 19.140625 48.40625 8.859375 
Q 40.234375 -1.421875 26.421875 -1.421875 
Q 22.703125 -1.421875 18.890625 -0.6875 
Q 15.09375 0.046875 10.984375 1.515625 
z
M 30.609375 32.421875 
Q 37.25 32.421875 41.125 36.953125 
Q 45.015625 41.5 45.015625 49.421875 
Q 45.015625 57.28125 41.125 61.84375 
Q 37.25 66.40625 30.609375 66.40625 
Q 23.96875 66.40625 20.09375 61.84375 
Q 16.21875 57.28125 16.21875 49.421875 
Q 16.21875 41.5 20.09375 36.953125 
Q 23.96875 32.421875 30.609375 32.421875 
z
" id="DejaVuSans-57"/>
      </defs>
      <use xlink:href="#DejaVuSans-57"/>
      <use x="63.623047" xlink:href="#DejaVuSans-46"/>
      <use x="95.410156" xlink:href="#DejaVuSans-48"/>
      <use x="159.033203" xlink:href="#DejaVuSans-48"/>
      <use x="222.65625" xlink:href="#DejaVuSans-48"/>
     </g>
    </g>
   </g>
   <g id="text_39">
    <g clip-path="url(#p0b78d94391)">
     <!-- 9.500 -->
     <g style="fill:#fde725;" transform="translate(155.676112 67.450691)rotate(-308.924805)scale(0.06 -0.06)">
      <use xlink:href="#DejaVuSans-57"/>
      <use x="63.623047" xlink:href="#DejaVuSans-46"/>
      <use x="95.410156" xlink:href="#DejaVuSans-53"/>
      <use x="159.033203" xlink:href="#DejaVuSans-48"/>
      <use x="222.65625" xlink:href="#DejaVuSans-48"/>
     </g>
    </g>
   </g>
   <g id="text_40">
    <g clip-path="url(#p0b78d94391)">
     <!-- 10.000 -->
     <g style="fill:#440154;" transform="translate(161.160702 75.379331)rotate(-312.759577)scale(0.06 -0.06)">
      <use xlink:href="#DejaVuSans-49"/>
      <use x="63.623047" xlink:href="#DejaVuSans-48"/>
      <use x="127.246094" xlink:href="#DejaVuSans-46"/>
      <use x="159.033203" xlink:href="#DejaVuSans-48"/>
      <use x="222.65625" xlink:href="#DejaVuSans-48"/>
      <use x="286.279297" xlink:href="#DejaVuSans-48"/>
     </g>
    </g>
   </g>
   <g id="text_41">
    <g clip-path="url(#p0b78d94391)">
     <!-- 100.000 -->
     <g style="fill:#440154;" transform="translate(190.744302 90.753851)rotate(-326.057551)scale(0.06 -0.06)">
      <use xlink:href="#DejaVuSans-49"/>
      <use x="63.623047" xlink:href="#DejaVuSans-48"/>
      <use x="127.246094" xlink:href="#DejaVuSans-48"/>
      <use x="190.869141" xlink:href="#DejaVuSans-46"/>
      <use x="222.65625" xlink:href="#DejaVuSans-48"/>
      <use x="286.279297" xlink:href="#DejaVuSans-48"/>
      <use x="349.902344" xlink:href="#DejaVuSans-48"/>
     </g>
    </g>
   </g>
   <g id="text_42">
    <g clip-path="url(#p0b78d94391)">
     <!-- 1000.000 -->
     <g style="fill:#440154;" transform="translate(225.826045 95.456382)rotate(-318.698716)scale(0.06 -0.06)">
      <use xlink:href="#DejaVuSans-49"/>
      <use x="63.623047" xlink:href="#DejaVuSans-48"/>
      <use x="127.246094" xlink:href="#DejaVuSans-48"/>
      <use x="190.869141" xlink:href="#DejaVuSans-48"/>
      <use x="254.492188" xlink:href="#DejaVuSans-46"/>
      <use x="286.279297" xlink:href="#DejaVuSans-48"/>
      <use x="349.902344" xlink:href="#DejaVuSans-48"/>
      <use x="413.525391" xlink:href="#DejaVuSans-48"/>
     </g>
    </g>
   </g>
   <g id="text_43">
    <g clip-path="url(#p0b78d94391)">
     <!-- 10000.000 -->
     <g style="fill:#440154;" transform="translate(262.598961 105.105756)rotate(-305.008445)scale(0.06 -0.06)">
      <use xlink:href="#DejaVuSans-49"/>
      <use x="63.623047" xlink:href="#DejaVuSans-48"/>
      <use x="127.246094" xlink:href="#DejaVuSans-48"/>
      <use x="190.869141" xlink:href="#DejaVuSans-48"/>
      <use x="254.492188" xlink:href="#DejaVuSans-48"/>
      <use x="318.115234" xlink:href="#DejaVuSans-46"/>
      <use x="349.902344" xlink:href="#DejaVuSans-48"/>
      <use x="413.525391" xlink:href="#DejaVuSans-48"/>
      <use x="477.148438" xlink:href="#DejaVuSans-48"/>
     </g>
    </g>
   </g>
   <g id="text_44">
    <g clip-path="url(#p0b78d94391)">
     <!-- 100000.000 -->
     <g style="fill:#440154;" transform="translate(278.316191 102.915751)rotate(-301.850694)scale(0.06 -0.06)">
      <use xlink:href="#DejaVuSans-49"/>
      <use x="63.623047" xlink:href="#DejaVuSans-48"/>
      <use x="127.246094" xlink:href="#DejaVuSans-48"/>
      <use x="190.869141" xlink:href="#DejaVuSans-48"/>
      <use x="254.492188" xlink:href="#DejaVuSans-48"/>
      <use x="318.115234" xlink:href="#DejaVuSans-48"/>
      <use x="381.738281" xlink:href="#DejaVuSans-46"/>
      <use x="413.525391" xlink:href="#DejaVuSans-48"/>
      <use x="477.148438" xlink:href="#DejaVuSans-48"/>
      <use x="540.771484" xlink:href="#DejaVuSans-48"/>
     </g>
    </g>
   </g>
   <g id="text_45">
    <g clip-path="url(#p0b78d94391)">
     <!-- 1000000.000 -->
     <g style="fill:#450457;" transform="translate(300.412448 103.276377)rotate(-290.862664)scale(0.06 -0.06)">
      <use xlink:href="#DejaVuSans-49"/>
      <use x="63.623047" xlink:href="#DejaVuSans-48"/>
      <use x="127.246094" xlink:href="#DejaVuSans-48"/>
      <use x="190.869141" xlink:href="#DejaVuSans-48"/>
      <use x="254.492188" xlink:href="#DejaVuSans-48"/>
      <use x="318.115234" xlink:href="#DejaVuSans-48"/>
      <use x="381.738281" xlink:href="#DejaVuSans-48"/>
      <use x="445.361328" xlink:href="#DejaVuSans-46"/>
      <use x="477.148438" xlink:href="#DejaVuSans-48"/>
      <use x="540.771484" xlink:href="#DejaVuSans-48"/>
      <use x="604.394531" xlink:href="#DejaVuSans-48"/>
     </g>
    </g>
   </g>
   <g id="text_46">
    <g clip-path="url(#p0b78d94391)">
     <!-- 10000000.000 -->
     <g style="fill:#482475;" transform="translate(310.098439 96.404224)rotate(-295.375044)scale(0.06 -0.06)">
      <use xlink:href="#DejaVuSans-49"/>
      <use x="63.623047" xlink:href="#DejaVuSans-48"/>
      <use x="127.246094" xlink:href="#DejaVuSans-48"/>
      <use x="190.869141" xlink:href="#DejaVuSans-48"/>
      <use x="254.492188" xlink:href="#DejaVuSans-48"/>
      <use x="318.115234" xlink:href="#DejaVuSans-48"/>
      <use x="381.738281" xlink:href="#DejaVuSans-48"/>
      <use x="445.361328" xlink:href="#DejaVuSans-48"/>
      <use x="508.984375" xlink:href="#DejaVuSans-46"/>
      <use x="540.771484" xlink:href="#DejaVuSans-48"/>
      <use x="604.394531" xlink:href="#DejaVuSans-48"/>
      <use x="668.017578" xlink:href="#DejaVuSans-48"/>
     </g>
    </g>
   </g>
   <g id="text_47">
    <g clip-path="url(#p0b78d94391)">
     <!-- 100000000.000 -->
     <g style="fill:#fde725;" transform="translate(323.56261 97.249999)rotate(-298.424898)scale(0.06 -0.06)">
      <use xlink:href="#DejaVuSans-49"/>
      <use x="63.623047" xlink:href="#DejaVuSans-48"/>
      <use x="127.246094" xlink:href="#DejaVuSans-48"/>
      <use x="190.869141" xlink:href="#DejaVuSans-48"/>
      <use x="254.492188" xlink:href="#DejaVuSans-48"/>
      <use x="318.115234" xlink:href="#DejaVuSans-48"/>
      <use x="381.738281" xlink:href="#DejaVuSans-48"/>
      <use x="445.361328" xlink:href="#DejaVuSans-48"/>
      <use x="508.984375" xlink:href="#DejaVuSans-48"/>
      <use x="572.607422" xlink:href="#DejaVuSans-46"/>
      <use x="604.394531" xlink:href="#DejaVuSans-48"/>
      <use x="668.017578" xlink:href="#DejaVuSans-48"/>
      <use x="731.640625" xlink:href="#DejaVuSans-48"/>
     </g>
    </g>
   </g>
  </g>
 </g>
 <defs>
  <clipPath id="p0b78d94391">
   <rect height="266.112" width="357.12" x="35.304688" y="10.999219"/>
  </clipPath>
 </defs>
</svg>
