<?xml version="1.0" encoding="utf-8" standalone="no"?>
<!DOCTYPE svg PUBLIC "-//W3C//DTD SVG 1.1//EN"
  "http://www.w3.org/Graphics/SVG/1.1/DTD/svg11.dtd">
<!-- Created with matplotlib (https://matplotlib.org/) -->
<svg height="321.713144pt" version="1.1" viewBox="0 0 426.710987 321.713144" width="426.710987pt" xmlns="http://www.w3.org/2000/svg" xmlns:xlink="http://www.w3.org/1999/xlink">
 <metadata>
  <rdf:RDF xmlns:cc="http://creativecommons.org/ns#" xmlns:dc="http://purl.org/dc/elements/1.1/" xmlns:rdf="http://www.w3.org/1999/02/22-rdf-syntax-ns#">
   <cc:Work>
    <dc:type rdf:resource="http://purl.org/dc/dcmitype/StillImage"/>
    <dc:date>2021-09-22T09:25:25.873060</dc:date>
    <dc:format>image/svg+xml</dc:format>
    <dc:creator>
     <cc:Agent>
      <dc:title>Matplotlib v3.3.1, https://matplotlib.org/</dc:title>
     </cc:Agent>
    </dc:creator>
   </cc:Work>
  </rdf:RDF>
 </metadata>
 <defs>
  <style type="text/css">*{stroke-linecap:butt;stroke-linejoin:round;}</style>
 </defs>
 <g id="figure_1">
  <g id="patch_1">
   <path d="M 0 321.713144 
L 426.710987 321.713144 
L 426.710987 0 
L 0 0 
z
" style="fill:#ffffff;"/>
  </g>
  <g id="axes_1">
   <g id="patch_2">
    <path d="M 56.028488 277.111219 
L 413.148488 277.111219 
L 413.148488 10.999219 
L 56.028488 10.999219 
z
" style="fill:#ffffff;"/>
   </g>
   <g id="matplotlib.axis_1">
    <g id="xtick_1">
     <g id="line2d_1">
      <defs>
       <path d="M 0 0 
L 0 3.5 
" id="mc5486aba8c" style="stroke:#000000;stroke-width:0.8;"/>
      </defs>
      <g>
       <use style="stroke:#000000;stroke-width:0.8;" x="56.028488" xlink:href="#mc5486aba8c" y="277.111219"/>
      </g>
     </g>
     <g id="text_1">
      <!-- −20 -->
      <g transform="translate(45.476144 291.709656)scale(0.1 -0.1)">
       <defs>
        <path d="M 10.59375 35.5 
L 73.1875 35.5 
L 73.1875 27.203125 
L 10.59375 27.203125 
z
" id="DejaVuSans-8722"/>
        <path d="M 19.1875 8.296875 
L 53.609375 8.296875 
L 53.609375 0 
L 7.328125 0 
L 7.328125 8.296875 
Q 12.9375 14.109375 22.625 23.890625 
Q 32.328125 33.6875 34.8125 36.53125 
Q 39.546875 41.84375 41.421875 45.53125 
Q 43.3125 49.21875 43.3125 52.78125 
Q 43.3125 58.59375 39.234375 62.25 
Q 35.15625 65.921875 28.609375 65.921875 
Q 23.96875 65.921875 18.8125 64.3125 
Q 13.671875 62.703125 7.8125 59.421875 
L 7.8125 69.390625 
Q 13.765625 71.78125 18.9375 73 
Q 24.125 74.21875 28.421875 74.21875 
Q 39.75 74.21875 46.484375 68.546875 
Q 53.21875 62.890625 53.21875 53.421875 
Q 53.21875 48.921875 51.53125 44.890625 
Q 49.859375 40.875 45.40625 35.40625 
Q 44.1875 33.984375 37.640625 27.21875 
Q 31.109375 20.453125 19.1875 8.296875 
z
" id="DejaVuSans-50"/>
        <path d="M 31.78125 66.40625 
Q 24.171875 66.40625 20.328125 58.90625 
Q 16.5 51.421875 16.5 36.375 
Q 16.5 21.390625 20.328125 13.890625 
Q 24.171875 6.390625 31.78125 6.390625 
Q 39.453125 6.390625 43.28125 13.890625 
Q 47.125 21.390625 47.125 36.375 
Q 47.125 51.421875 43.28125 58.90625 
Q 39.453125 66.40625 31.78125 66.40625 
z
M 31.78125 74.21875 
Q 44.046875 74.21875 50.515625 64.515625 
Q 56.984375 54.828125 56.984375 36.375 
Q 56.984375 17.96875 50.515625 8.265625 
Q 44.046875 -1.421875 31.78125 -1.421875 
Q 19.53125 -1.421875 13.0625 8.265625 
Q 6.59375 17.96875 6.59375 36.375 
Q 6.59375 54.828125 13.0625 64.515625 
Q 19.53125 74.21875 31.78125 74.21875 
z
" id="DejaVuSans-48"/>
       </defs>
       <use xlink:href="#DejaVuSans-8722"/>
       <use x="83.789062" xlink:href="#DejaVuSans-50"/>
       <use x="147.412109" xlink:href="#DejaVuSans-48"/>
      </g>
     </g>
    </g>
    <g id="xtick_2">
     <g id="line2d_2">
      <g>
       <use style="stroke:#000000;stroke-width:0.8;" x="95.708488" xlink:href="#mc5486aba8c" y="277.111219"/>
      </g>
     </g>
     <g id="text_2">
      <!-- −15 -->
      <g transform="translate(85.156144 291.709656)scale(0.1 -0.1)">
       <defs>
        <path d="M 12.40625 8.296875 
L 28.515625 8.296875 
L 28.515625 63.921875 
L 10.984375 60.40625 
L 10.984375 69.390625 
L 28.421875 72.90625 
L 38.28125 72.90625 
L 38.28125 8.296875 
L 54.390625 8.296875 
L 54.390625 0 
L 12.40625 0 
z
" id="DejaVuSans-49"/>
        <path d="M 10.796875 72.90625 
L 49.515625 72.90625 
L 49.515625 64.59375 
L 19.828125 64.59375 
L 19.828125 46.734375 
Q 21.96875 47.46875 24.109375 47.828125 
Q 26.265625 48.1875 28.421875 48.1875 
Q 40.625 48.1875 47.75 41.5 
Q 54.890625 34.8125 54.890625 23.390625 
Q 54.890625 11.625 47.5625 5.09375 
Q 40.234375 -1.421875 26.90625 -1.421875 
Q 22.3125 -1.421875 17.546875 -0.640625 
Q 12.796875 0.140625 7.71875 1.703125 
L 7.71875 11.625 
Q 12.109375 9.234375 16.796875 8.0625 
Q 21.484375 6.890625 26.703125 6.890625 
Q 35.15625 6.890625 40.078125 11.328125 
Q 45.015625 15.765625 45.015625 23.390625 
Q 45.015625 31 40.078125 35.4375 
Q 35.15625 39.890625 26.703125 39.890625 
Q 22.75 39.890625 18.8125 39.015625 
Q 14.890625 38.140625 10.796875 36.28125 
z
" id="DejaVuSans-53"/>
       </defs>
       <use xlink:href="#DejaVuSans-8722"/>
       <use x="83.789062" xlink:href="#DejaVuSans-49"/>
       <use x="147.412109" xlink:href="#DejaVuSans-53"/>
      </g>
     </g>
    </g>
    <g id="xtick_3">
     <g id="line2d_3">
      <g>
       <use style="stroke:#000000;stroke-width:0.8;" x="135.388488" xlink:href="#mc5486aba8c" y="277.111219"/>
      </g>
     </g>
     <g id="text_3">
      <!-- −10 -->
      <g transform="translate(124.836144 291.709656)scale(0.1 -0.1)">
       <use xlink:href="#DejaVuSans-8722"/>
       <use x="83.789062" xlink:href="#DejaVuSans-49"/>
       <use x="147.412109" xlink:href="#DejaVuSans-48"/>
      </g>
     </g>
    </g>
    <g id="xtick_4">
     <g id="line2d_4">
      <g>
       <use style="stroke:#000000;stroke-width:0.8;" x="175.068488" xlink:href="#mc5486aba8c" y="277.111219"/>
      </g>
     </g>
     <g id="text_4">
      <!-- −5 -->
      <g transform="translate(167.697394 291.709656)scale(0.1 -0.1)">
       <use xlink:href="#DejaVuSans-8722"/>
       <use x="83.789062" xlink:href="#DejaVuSans-53"/>
      </g>
     </g>
    </g>
    <g id="xtick_5">
     <g id="line2d_5">
      <g>
       <use style="stroke:#000000;stroke-width:0.8;" x="214.748488" xlink:href="#mc5486aba8c" y="277.111219"/>
      </g>
     </g>
     <g id="text_5">
      <!-- 0 -->
      <g transform="translate(211.567238 291.709656)scale(0.1 -0.1)">
       <use xlink:href="#DejaVuSans-48"/>
      </g>
     </g>
    </g>
    <g id="xtick_6">
     <g id="line2d_6">
      <g>
       <use style="stroke:#000000;stroke-width:0.8;" x="254.428488" xlink:href="#mc5486aba8c" y="277.111219"/>
      </g>
     </g>
     <g id="text_6">
      <!-- 5 -->
      <g transform="translate(251.247238 291.709656)scale(0.1 -0.1)">
       <use xlink:href="#DejaVuSans-53"/>
      </g>
     </g>
    </g>
    <g id="xtick_7">
     <g id="line2d_7">
      <g>
       <use style="stroke:#000000;stroke-width:0.8;" x="294.108488" xlink:href="#mc5486aba8c" y="277.111219"/>
      </g>
     </g>
     <g id="text_7">
      <!-- 10 -->
      <g transform="translate(287.745988 291.709656)scale(0.1 -0.1)">
       <use xlink:href="#DejaVuSans-49"/>
       <use x="63.623047" xlink:href="#DejaVuSans-48"/>
      </g>
     </g>
    </g>
    <g id="xtick_8">
     <g id="line2d_8">
      <g>
       <use style="stroke:#000000;stroke-width:0.8;" x="333.788488" xlink:href="#mc5486aba8c" y="277.111219"/>
      </g>
     </g>
     <g id="text_8">
      <!-- 15 -->
      <g transform="translate(327.425988 291.709656)scale(0.1 -0.1)">
       <use xlink:href="#DejaVuSans-49"/>
       <use x="63.623047" xlink:href="#DejaVuSans-53"/>
      </g>
     </g>
    </g>
    <g id="xtick_9">
     <g id="line2d_9">
      <g>
       <use style="stroke:#000000;stroke-width:0.8;" x="373.468488" xlink:href="#mc5486aba8c" y="277.111219"/>
      </g>
     </g>
     <g id="text_9">
      <!-- 20 -->
      <g transform="translate(367.105988 291.709656)scale(0.1 -0.1)">
       <use xlink:href="#DejaVuSans-50"/>
       <use x="63.623047" xlink:href="#DejaVuSans-48"/>
      </g>
     </g>
    </g>
    <g id="xtick_10">
     <g id="line2d_10">
      <g>
       <use style="stroke:#000000;stroke-width:0.8;" x="413.148488" xlink:href="#mc5486aba8c" y="277.111219"/>
      </g>
     </g>
     <g id="text_10">
      <!-- 25 -->
      <g transform="translate(406.785988 291.709656)scale(0.1 -0.1)">
       <use xlink:href="#DejaVuSans-50"/>
       <use x="63.623047" xlink:href="#DejaVuSans-53"/>
      </g>
     </g>
    </g>
    <g id="text_11">
     <!-- 1st PC: 75.70 % -->
     <g transform="translate(165.868088 310.919444)scale(0.1728 -0.1728)">
      <defs>
       <path d="M 44.28125 53.078125 
L 44.28125 44.578125 
Q 40.484375 46.53125 36.375 47.5 
Q 32.28125 48.484375 27.875 48.484375 
Q 21.1875 48.484375 17.84375 46.4375 
Q 14.5 44.390625 14.5 40.28125 
Q 14.5 37.15625 16.890625 35.375 
Q 19.28125 33.59375 26.515625 31.984375 
L 29.59375 31.296875 
Q 39.15625 29.25 43.1875 25.515625 
Q 47.21875 21.78125 47.21875 15.09375 
Q 47.21875 7.46875 41.1875 3.015625 
Q 35.15625 -1.421875 24.609375 -1.421875 
Q 20.21875 -1.421875 15.453125 -0.5625 
Q 10.6875 0.296875 5.421875 2 
L 5.421875 11.28125 
Q 10.40625 8.6875 15.234375 7.390625 
Q 20.0625 6.109375 24.8125 6.109375 
Q 31.15625 6.109375 34.5625 8.28125 
Q 37.984375 10.453125 37.984375 14.40625 
Q 37.984375 18.0625 35.515625 20.015625 
Q 33.0625 21.96875 24.703125 23.78125 
L 21.578125 24.515625 
Q 13.234375 26.265625 9.515625 29.90625 
Q 5.8125 33.546875 5.8125 39.890625 
Q 5.8125 47.609375 11.28125 51.796875 
Q 16.75 56 26.8125 56 
Q 31.78125 56 36.171875 55.265625 
Q 40.578125 54.546875 44.28125 53.078125 
z
" id="DejaVuSans-115"/>
       <path d="M 18.3125 70.21875 
L 18.3125 54.6875 
L 36.8125 54.6875 
L 36.8125 47.703125 
L 18.3125 47.703125 
L 18.3125 18.015625 
Q 18.3125 11.328125 20.140625 9.421875 
Q 21.96875 7.515625 27.59375 7.515625 
L 36.8125 7.515625 
L 36.8125 0 
L 27.59375 0 
Q 17.1875 0 13.234375 3.875 
Q 9.28125 7.765625 9.28125 18.015625 
L 9.28125 47.703125 
L 2.6875 47.703125 
L 2.6875 54.6875 
L 9.28125 54.6875 
L 9.28125 70.21875 
z
" id="DejaVuSans-116"/>
       <path id="DejaVuSans-32"/>
       <path d="M 19.671875 64.796875 
L 19.671875 37.40625 
L 32.078125 37.40625 
Q 38.96875 37.40625 42.71875 40.96875 
Q 46.484375 44.53125 46.484375 51.125 
Q 46.484375 57.671875 42.71875 61.234375 
Q 38.96875 64.796875 32.078125 64.796875 
z
M 9.8125 72.90625 
L 32.078125 72.90625 
Q 44.34375 72.90625 50.609375 67.359375 
Q 56.890625 61.8125 56.890625 51.125 
Q 56.890625 40.328125 50.609375 34.8125 
Q 44.34375 29.296875 32.078125 29.296875 
L 19.671875 29.296875 
L 19.671875 0 
L 9.8125 0 
z
" id="DejaVuSans-80"/>
       <path d="M 64.40625 67.28125 
L 64.40625 56.890625 
Q 59.421875 61.53125 53.78125 63.8125 
Q 48.140625 66.109375 41.796875 66.109375 
Q 29.296875 66.109375 22.65625 58.46875 
Q 16.015625 50.828125 16.015625 36.375 
Q 16.015625 21.96875 22.65625 14.328125 
Q 29.296875 6.6875 41.796875 6.6875 
Q 48.140625 6.6875 53.78125 8.984375 
Q 59.421875 11.28125 64.40625 15.921875 
L 64.40625 5.609375 
Q 59.234375 2.09375 53.4375 0.328125 
Q 47.65625 -1.421875 41.21875 -1.421875 
Q 24.65625 -1.421875 15.125 8.703125 
Q 5.609375 18.84375 5.609375 36.375 
Q 5.609375 53.953125 15.125 64.078125 
Q 24.65625 74.21875 41.21875 74.21875 
Q 47.75 74.21875 53.53125 72.484375 
Q 59.328125 70.75 64.40625 67.28125 
z
" id="DejaVuSans-67"/>
       <path d="M 11.71875 12.40625 
L 22.015625 12.40625 
L 22.015625 0 
L 11.71875 0 
z
M 11.71875 51.703125 
L 22.015625 51.703125 
L 22.015625 39.3125 
L 11.71875 39.3125 
z
" id="DejaVuSans-58"/>
       <path d="M 8.203125 72.90625 
L 55.078125 72.90625 
L 55.078125 68.703125 
L 28.609375 0 
L 18.3125 0 
L 43.21875 64.59375 
L 8.203125 64.59375 
z
" id="DejaVuSans-55"/>
       <path d="M 10.6875 12.40625 
L 21 12.40625 
L 21 0 
L 10.6875 0 
z
" id="DejaVuSans-46"/>
       <path d="M 72.703125 32.078125 
Q 68.453125 32.078125 66.03125 28.46875 
Q 63.625 24.859375 63.625 18.40625 
Q 63.625 12.0625 66.03125 8.421875 
Q 68.453125 4.78125 72.703125 4.78125 
Q 76.859375 4.78125 79.265625 8.421875 
Q 81.6875 12.0625 81.6875 18.40625 
Q 81.6875 24.8125 79.265625 28.4375 
Q 76.859375 32.078125 72.703125 32.078125 
z
M 72.703125 38.28125 
Q 80.421875 38.28125 84.953125 32.90625 
Q 89.5 27.546875 89.5 18.40625 
Q 89.5 9.28125 84.9375 3.921875 
Q 80.375 -1.421875 72.703125 -1.421875 
Q 64.890625 -1.421875 60.34375 3.921875 
Q 55.8125 9.28125 55.8125 18.40625 
Q 55.8125 27.59375 60.375 32.9375 
Q 64.9375 38.28125 72.703125 38.28125 
z
M 22.3125 68.015625 
Q 18.109375 68.015625 15.6875 64.375 
Q 13.28125 60.75 13.28125 54.390625 
Q 13.28125 47.953125 15.671875 44.328125 
Q 18.0625 40.71875 22.3125 40.71875 
Q 26.5625 40.71875 28.96875 44.328125 
Q 31.390625 47.953125 31.390625 54.390625 
Q 31.390625 60.6875 28.953125 64.34375 
Q 26.515625 68.015625 22.3125 68.015625 
z
M 66.40625 74.21875 
L 74.21875 74.21875 
L 28.609375 -1.421875 
L 20.796875 -1.421875 
z
M 22.3125 74.21875 
Q 30.03125 74.21875 34.609375 68.875 
Q 39.203125 63.53125 39.203125 54.390625 
Q 39.203125 45.171875 34.640625 39.84375 
Q 30.078125 34.515625 22.3125 34.515625 
Q 14.546875 34.515625 10.03125 39.859375 
Q 5.515625 45.21875 5.515625 54.390625 
Q 5.515625 63.484375 10.046875 68.84375 
Q 14.59375 74.21875 22.3125 74.21875 
z
" id="DejaVuSans-37"/>
      </defs>
      <use xlink:href="#DejaVuSans-49"/>
      <use x="63.623047" xlink:href="#DejaVuSans-115"/>
      <use x="115.722656" xlink:href="#DejaVuSans-116"/>
      <use x="154.931641" xlink:href="#DejaVuSans-32"/>
      <use x="186.71875" xlink:href="#DejaVuSans-80"/>
      <use x="247.021484" xlink:href="#DejaVuSans-67"/>
      <use x="316.845703" xlink:href="#DejaVuSans-58"/>
      <use x="350.537109" xlink:href="#DejaVuSans-32"/>
      <use x="382.324219" xlink:href="#DejaVuSans-55"/>
      <use x="445.947266" xlink:href="#DejaVuSans-53"/>
      <use x="509.570312" xlink:href="#DejaVuSans-46"/>
      <use x="541.357422" xlink:href="#DejaVuSans-55"/>
      <use x="604.980469" xlink:href="#DejaVuSans-48"/>
      <use x="668.603516" xlink:href="#DejaVuSans-32"/>
      <use x="700.390625" xlink:href="#DejaVuSans-37"/>
     </g>
    </g>
   </g>
   <g id="matplotlib.axis_2">
    <g id="ytick_1">
     <g id="line2d_11">
      <defs>
       <path d="M 0 0 
L -3.5 0 
" id="md69f5aa2d5" style="stroke:#000000;stroke-width:0.8;"/>
      </defs>
      <g>
       <use style="stroke:#000000;stroke-width:0.8;" x="56.028488" xlink:href="#md69f5aa2d5" y="277.111219"/>
      </g>
     </g>
     <g id="text_12">
      <!-- −20 -->
      <g transform="translate(27.9238 280.910437)scale(0.1 -0.1)">
       <use xlink:href="#DejaVuSans-8722"/>
       <use x="83.789062" xlink:href="#DejaVuSans-50"/>
       <use x="147.412109" xlink:href="#DejaVuSans-48"/>
      </g>
     </g>
    </g>
    <g id="ytick_2">
     <g id="line2d_12">
      <g>
       <use style="stroke:#000000;stroke-width:0.8;" x="56.028488" xlink:href="#md69f5aa2d5" y="243.847219"/>
      </g>
     </g>
     <g id="text_13">
      <!-- −15 -->
      <g transform="translate(27.9238 247.646437)scale(0.1 -0.1)">
       <use xlink:href="#DejaVuSans-8722"/>
       <use x="83.789062" xlink:href="#DejaVuSans-49"/>
       <use x="147.412109" xlink:href="#DejaVuSans-53"/>
      </g>
     </g>
    </g>
    <g id="ytick_3">
     <g id="line2d_13">
      <g>
       <use style="stroke:#000000;stroke-width:0.8;" x="56.028488" xlink:href="#md69f5aa2d5" y="210.583219"/>
      </g>
     </g>
     <g id="text_14">
      <!-- −10 -->
      <g transform="translate(27.9238 214.382437)scale(0.1 -0.1)">
       <use xlink:href="#DejaVuSans-8722"/>
       <use x="83.789062" xlink:href="#DejaVuSans-49"/>
       <use x="147.412109" xlink:href="#DejaVuSans-48"/>
      </g>
     </g>
    </g>
    <g id="ytick_4">
     <g id="line2d_14">
      <g>
       <use style="stroke:#000000;stroke-width:0.8;" x="56.028488" xlink:href="#md69f5aa2d5" y="177.319219"/>
      </g>
     </g>
     <g id="text_15">
      <!-- −5 -->
      <g transform="translate(34.2863 181.118437)scale(0.1 -0.1)">
       <use xlink:href="#DejaVuSans-8722"/>
       <use x="83.789062" xlink:href="#DejaVuSans-53"/>
      </g>
     </g>
    </g>
    <g id="ytick_5">
     <g id="line2d_15">
      <g>
       <use style="stroke:#000000;stroke-width:0.8;" x="56.028488" xlink:href="#md69f5aa2d5" y="144.055219"/>
      </g>
     </g>
     <g id="text_16">
      <!-- 0 -->
      <g transform="translate(42.665987 147.854437)scale(0.1 -0.1)">
       <use xlink:href="#DejaVuSans-48"/>
      </g>
     </g>
    </g>
    <g id="ytick_6">
     <g id="line2d_16">
      <g>
       <use style="stroke:#000000;stroke-width:0.8;" x="56.028488" xlink:href="#md69f5aa2d5" y="110.791219"/>
      </g>
     </g>
     <g id="text_17">
      <!-- 5 -->
      <g transform="translate(42.665987 114.590437)scale(0.1 -0.1)">
       <use xlink:href="#DejaVuSans-53"/>
      </g>
     </g>
    </g>
    <g id="ytick_7">
     <g id="line2d_17">
      <g>
       <use style="stroke:#000000;stroke-width:0.8;" x="56.028488" xlink:href="#md69f5aa2d5" y="77.527219"/>
      </g>
     </g>
     <g id="text_18">
      <!-- 10 -->
      <g transform="translate(36.303488 81.326437)scale(0.1 -0.1)">
       <use xlink:href="#DejaVuSans-49"/>
       <use x="63.623047" xlink:href="#DejaVuSans-48"/>
      </g>
     </g>
    </g>
    <g id="ytick_8">
     <g id="line2d_18">
      <g>
       <use style="stroke:#000000;stroke-width:0.8;" x="56.028488" xlink:href="#md69f5aa2d5" y="44.263219"/>
      </g>
     </g>
     <g id="text_19">
      <!-- 15 -->
      <g transform="translate(36.303488 48.062437)scale(0.1 -0.1)">
       <use xlink:href="#DejaVuSans-49"/>
       <use x="63.623047" xlink:href="#DejaVuSans-53"/>
      </g>
     </g>
    </g>
    <g id="ytick_9">
     <g id="line2d_19">
      <g>
       <use style="stroke:#000000;stroke-width:0.8;" x="56.028488" xlink:href="#md69f5aa2d5" y="10.999219"/>
      </g>
     </g>
     <g id="text_20">
      <!-- 20 -->
      <g transform="translate(36.303488 14.798437)scale(0.1 -0.1)">
       <use xlink:href="#DejaVuSans-50"/>
       <use x="63.623047" xlink:href="#DejaVuSans-48"/>
      </g>
     </g>
    </g>
    <g id="text_21">
     <!-- 2nd PC: 12.20 % -->
     <g transform="translate(20.3301 215.848219)rotate(-90)scale(0.1728 -0.1728)">
      <defs>
       <path d="M 54.890625 33.015625 
L 54.890625 0 
L 45.90625 0 
L 45.90625 32.71875 
Q 45.90625 40.484375 42.875 44.328125 
Q 39.84375 48.1875 33.796875 48.1875 
Q 26.515625 48.1875 22.3125 43.546875 
Q 18.109375 38.921875 18.109375 30.90625 
L 18.109375 0 
L 9.078125 0 
L 9.078125 54.6875 
L 18.109375 54.6875 
L 18.109375 46.1875 
Q 21.34375 51.125 25.703125 53.5625 
Q 30.078125 56 35.796875 56 
Q 45.21875 56 50.046875 50.171875 
Q 54.890625 44.34375 54.890625 33.015625 
z
" id="DejaVuSans-110"/>
       <path d="M 45.40625 46.390625 
L 45.40625 75.984375 
L 54.390625 75.984375 
L 54.390625 0 
L 45.40625 0 
L 45.40625 8.203125 
Q 42.578125 3.328125 38.25 0.953125 
Q 33.9375 -1.421875 27.875 -1.421875 
Q 17.96875 -1.421875 11.734375 6.484375 
Q 5.515625 14.40625 5.515625 27.296875 
Q 5.515625 40.1875 11.734375 48.09375 
Q 17.96875 56 27.875 56 
Q 33.9375 56 38.25 53.625 
Q 42.578125 51.265625 45.40625 46.390625 
z
M 14.796875 27.296875 
Q 14.796875 17.390625 18.875 11.75 
Q 22.953125 6.109375 30.078125 6.109375 
Q 37.203125 6.109375 41.296875 11.75 
Q 45.40625 17.390625 45.40625 27.296875 
Q 45.40625 37.203125 41.296875 42.84375 
Q 37.203125 48.484375 30.078125 48.484375 
Q 22.953125 48.484375 18.875 42.84375 
Q 14.796875 37.203125 14.796875 27.296875 
z
" id="DejaVuSans-100"/>
      </defs>
      <use xlink:href="#DejaVuSans-50"/>
      <use x="63.623047" xlink:href="#DejaVuSans-110"/>
      <use x="127.001953" xlink:href="#DejaVuSans-100"/>
      <use x="190.478516" xlink:href="#DejaVuSans-32"/>
      <use x="222.265625" xlink:href="#DejaVuSans-80"/>
      <use x="282.568359" xlink:href="#DejaVuSans-67"/>
      <use x="352.392578" xlink:href="#DejaVuSans-58"/>
      <use x="386.083984" xlink:href="#DejaVuSans-32"/>
      <use x="417.871094" xlink:href="#DejaVuSans-49"/>
      <use x="481.494141" xlink:href="#DejaVuSans-50"/>
      <use x="545.117188" xlink:href="#DejaVuSans-46"/>
      <use x="576.904297" xlink:href="#DejaVuSans-50"/>
      <use x="640.527344" xlink:href="#DejaVuSans-48"/>
      <use x="704.150391" xlink:href="#DejaVuSans-32"/>
      <use x="735.9375" xlink:href="#DejaVuSans-37"/>
     </g>
    </g>
   </g>
   <g id="LineCollection_1"/>
   <g id="LineCollection_2"/>
   <g id="LineCollection_3">
    <path clip-path="url(#p0fc4c4c7ff)" d="M 223.001133 147.781319 
L 223.16942 152.925619 
L 222.684488 156.112879 
L 210.79695 161.796019 
L 210.780488 161.80682 
L 210.765602 161.796019 
L 207.890792 152.925619 
L 206.607643 144.055219 
L 206.832706 135.184819 
L 210.780488 132.905219 
L 210.805654 132.908763 
" style="fill:none;stroke:#482576;stroke-width:1.5;"/>
   </g>
   <g id="LineCollection_4">
    <path clip-path="url(#p0fc4c4c7ff)" d="M 223.856738 147.715173 
L 224.800645 152.925619 
L 224.019335 161.796019 
L 222.684488 163.460548 
L 212.72778 170.666419 
L 210.780488 172.072527 
L 198.876488 175.108388 
L 195.361728 170.666419 
L 195.662109 161.796019 
L 196.425147 152.925619 
L 196.784638 144.055219 
L 198.273791 135.184819 
L 198.876488 134.839499 
L 210.780488 127.71333 
L 212.858337 128.726861 
" style="fill:none;stroke:#453781;stroke-width:1.5;"/>
   </g>
   <g id="LineCollection_5">
    <path clip-path="url(#p0fc4c4c7ff)" d="M 222.703894 132.832266 
L 222.82588 135.184819 
L 223.508186 144.055219 
L 226.43187 152.925619 
L 226.859894 161.796019 
L 222.684488 167.002669 
L 217.622104 170.666419 
L 210.780488 175.606639 
L 203.116792 179.536819 
L 198.876488 181.19348 
L 190.137892 179.536819 
L 186.972488 172.987307 
L 186.513472 170.666419 
L 186.972488 167.115598 
L 187.89189 161.796019 
L 189.217267 152.925619 
L 190.018489 144.055219 
L 193.038209 135.184819 
L 198.876488 131.839731 
L 200.798467 130.5938 
" style="fill:none;stroke:#404688;stroke-width:1.5;"/>
   </g>
   <g id="LineCollection_6">
    <path clip-path="url(#p0fc4c4c7ff)" d="M 223.810626 143.941876 
L 223.822659 144.055219 
L 228.063096 152.925619 
L 229.700452 161.796019 
L 222.684488 170.544791 
L 222.516428 170.666419 
L 210.780488 179.140751 
L 210.008171 179.536819 
L 198.876488 183.885899 
L 186.972488 185.331811 
L 180.423172 179.536819 
L 180.701773 170.666419 
L 180.74765 161.796019 
L 181.071579 152.925619 
L 182.095479 144.055219 
L 186.972488 137.1703 
L 187.802626 135.184819 
L 198.876488 128.839963 
L 202.772404 126.314419 
L 210.780488 125.877821 
L 211.477507 125.974083 
" style="fill:none;stroke:#39558c;stroke-width:1.5;"/>
   </g>
   <g id="LineCollection_7">
    <path clip-path="url(#p0fc4c4c7ff)" d="M 191.180181 131.128934 
L 198.507329 126.314419 
L 198.876488 126.273155 
L 210.780488 125.625534 
L 215.76862 126.314419 
L 222.684488 130.334341 
L 222.935999 135.184819 
L 224.137131 144.055219 
L 229.694321 152.925619 
L 232.541011 161.796019 
L 224.98767 170.666419 
L 222.684488 172.433388 
L 212.996399 179.536819 
L 210.780488 180.850819 
L 198.876488 186.578318 
L 192.493689 188.407219 
L 186.972488 190.497069 
L 184.325552 188.407219 
L 175.068488 180.873602 
L 174.990903 179.536819 
L 175.054385 170.666419 
L 174.859245 161.796019 
L 174.300224 152.925619 
L 174.310914 146.259857 
" style="fill:none;stroke:#33638d;stroke-width:1.5;"/>
   </g>
   <g id="LineCollection_8">
    <path clip-path="url(#p0fc4c4c7ff)" d="M 177.199403 134.416206 
L 186.972488 132.359335 
L 196.172168 126.314419 
L 198.876488 126.012137 
L 210.780488 125.373247 
L 217.595401 126.314419 
L 222.684488 129.272505 
L 222.991058 135.184819 
L 224.451604 144.055219 
L 231.325547 152.925619 
L 234.588488 160.709549 
L 234.599009 161.796019 
L 234.588488 162.54547 
L 227.372751 170.666419 
L 222.684488 174.263188 
L 215.491991 179.536819 
L 210.780488 182.330665 
L 199.738909 188.407219 
L 198.876488 188.767929 
L 186.972488 194.053755 
L 179.820772 188.407219 
L 175.068488 184.539698 
L 174.778131 179.536819 
L 174.595016 170.666419 
L 173.789564 161.796019 
L 172.562714 156.498784 
" style="fill:none;stroke:#2d718e;stroke-width:1.5;"/>
   </g>
   <g id="LineCollection_9">
    <path clip-path="url(#p0fc4c4c7ff)" d="M 171.375911 158.437625 
L 169.170099 152.925619 
L 167.057124 144.055219 
L 172.693091 135.184819 
L 175.068488 134.221468 
L 186.972488 130.82495 
L 193.837006 126.314419 
L 198.876488 125.75112 
L 210.780488 125.120959 
L 219.422182 126.314419 
L 222.684488 128.210669 
L 223.046118 135.184819 
L 224.766077 144.055219 
L 232.956772 152.925619 
L 234.588488 156.818168 
L 234.636694 161.796019 
L 234.588488 165.229758 
L 229.757831 170.666419 
L 222.684488 176.092988 
L 217.987582 179.536819 
L 210.780488 183.810512 
L 202.427908 188.407219 
L 198.876488 189.892611 
L 187.139748 197.277619 
L 186.972488 197.399127 
L 186.912846 197.277619 
L 175.315992 188.407219 
L 175.068488 188.205794 
L 174.78085 183.249768 
" style="fill:none;stroke:#287d8e;stroke-width:1.5;"/>
   </g>
   <g id="LineCollection_10">
    <path clip-path="url(#p0fc4c4c7ff)" d="M 169.919259 158.752678 
L 166.605037 152.925619 
L 163.428461 144.055219 
L 171.107072 135.184819 
L 175.068488 133.578253 
L 186.972488 129.290565 
L 191.501845 126.314419 
L 198.876488 125.490102 
L 210.780488 124.868672 
L 221.248963 126.314419 
L 222.684488 127.148833 
L 223.101177 135.184819 
L 225.080549 144.055219 
L 234.587997 152.925619 
L 234.588488 152.926788 
L 234.674378 161.796019 
L 234.588488 167.914046 
L 232.142912 170.666419 
L 222.684488 177.922788 
L 220.483174 179.536819 
L 210.780488 185.290358 
L 205.116906 188.407219 
L 198.876488 191.017293 
L 188.927166 197.277619 
L 186.972488 198.697618 
L 186.275492 197.277619 
L 175.068488 188.859654 
L 174.973522 188.407219 
L 174.611226 183.231633 
" style="fill:none;stroke:#238a8d;stroke-width:1.5;"/>
   </g>
   <g id="LineCollection_11">
    <path clip-path="url(#p0fc4c4c7ff)" d="M 173.756988 175.857333 
L 173.216908 170.666419 
L 170.580521 161.796019 
L 164.039975 152.925619 
L 163.164488 150.539005 
L 163.145616 144.055219 
L 163.164488 142.388574 
L 169.521053 135.184819 
L 175.068488 132.935037 
L 186.972488 127.756179 
L 189.166684 126.314419 
L 198.876488 125.229084 
L 210.780488 124.616385 
L 222.684488 126.306518 
L 222.686831 126.314419 
L 223.156236 135.184819 
L 225.395022 144.055219 
L 234.588488 152.632318 
L 234.600996 152.925619 
L 234.712063 161.796019 
L 234.588488 170.598335 
L 234.527993 170.666419 
L 222.889299 179.536819 
L 222.684488 179.655165 
L 210.780488 186.770205 
L 207.805904 188.407219 
L 198.876488 192.141974 
L 190.714584 197.277619 
L 186.972488 199.996109 
L 185.638138 197.277619 
L 184.382243 196.334272 
" style="fill:none;stroke:#1f968b;stroke-width:1.5;"/>
   </g>
   <g id="LineCollection_12">
    <path clip-path="url(#p0fc4c4c7ff)" d="M 173.444793 175.879077 
L 172.757539 170.666419 
L 169.51084 161.796019 
L 163.164488 153.812019 
L 163.143741 152.925619 
L 163.125264 144.055219 
L 163.164488 140.591173 
L 167.935034 135.184819 
L 175.068488 132.291822 
L 186.89566 126.314419 
L 186.972488 126.302602 
L 198.876488 124.968066 
L 210.780488 124.364098 
L 222.684488 126.269629 
L 222.697773 126.314419 
L 223.211296 135.184819 
L 225.709495 144.055219 
L 234.588488 152.338928 
L 234.613509 152.925619 
L 234.749747 161.796019 
L 234.676262 170.666419 
L 234.588488 171.954778 
L 224.626174 179.536819 
L 222.684488 180.658786 
L 210.780488 188.250051 
L 210.494902 188.407219 
L 198.876488 193.266656 
L 192.502002 197.277619 
L 186.972488 201.2946 
L 185.000784 197.277619 
L 183.991119 196.519225 
" style="fill:none;stroke:#20a386;stroke-width:1.5;"/>
   </g>
   <g id="LineCollection_13">
    <path clip-path="url(#p0fc4c4c7ff)" d="M 173.134437 175.904771 
L 172.298169 170.666419 
L 168.44116 161.796019 
L 163.164488 155.157726 
L 163.112243 152.925619 
L 163.104913 144.055219 
L 163.164488 138.793773 
L 166.349015 135.184819 
L 175.068488 131.648607 
L 185.622963 126.314419 
L 186.972488 126.106846 
L 198.876488 124.707048 
L 210.780488 124.11181 
L 222.684488 126.23274 
L 222.708715 126.314419 
L 223.266355 135.184819 
L 226.023968 144.055219 
L 234.588488 152.045539 
L 234.626021 152.925619 
L 234.787432 161.796019 
L 234.766321 170.666419 
L 234.588488 173.276665 
L 226.363049 179.536819 
L 222.684488 181.662406 
L 212.177828 188.407219 
L 210.780488 189.044452 
L 198.876488 194.391337 
L 194.28942 197.277619 
L 186.972488 202.593091 
L 184.363431 197.277619 
L 183.599996 196.704177 
" style="fill:none;stroke:#29af7f;stroke-width:1.5;"/>
   </g>
   <g id="LineCollection_14">
    <path clip-path="url(#p0fc4c4c7ff)" d="M 172.826223 175.934272 
L 171.8388 170.666419 
L 167.371479 161.796019 
L 163.164488 156.503433 
L 163.080746 152.925619 
L 163.084561 144.055219 
L 163.164488 136.996373 
L 164.762996 135.184819 
L 175.068488 131.005391 
L 184.350267 126.314419 
L 186.972488 125.911089 
L 198.876488 124.44603 
L 210.780488 123.859523 
L 222.684488 126.195851 
L 222.719657 126.314419 
L 223.321414 135.184819 
L 226.33844 144.055219 
L 234.588488 151.75215 
L 234.638534 152.925619 
L 234.825117 161.796019 
L 234.85638 170.666419 
L 234.588488 174.598553 
L 228.099924 179.536819 
L 222.684488 182.666027 
L 213.741207 188.407219 
L 210.780488 189.757405 
L 198.876488 195.516019 
L 196.076837 197.277619 
L 186.972488 203.891581 
L 183.726077 197.277619 
L 183.208872 196.889129 
" style="fill:none;stroke:#3dbc74;stroke-width:1.5;"/>
   </g>
   <g id="LineCollection_15">
    <path clip-path="url(#p0fc4c4c7ff)" d="M 172.520435 175.967421 
L 171.379431 170.666419 
L 166.301798 161.796019 
L 163.164488 157.84914 
L 163.049249 152.925619 
L 163.064209 144.055219 
L 163.164488 135.198973 
L 163.176977 135.184819 
L 175.068488 130.362176 
L 183.07757 126.314419 
L 186.972488 125.715333 
L 198.876488 124.185013 
L 210.780488 123.607236 
L 222.684488 126.158961 
L 222.730599 126.314419 
L 223.376474 135.184819 
L 226.652913 144.055219 
L 234.588488 151.458761 
L 234.651046 152.925619 
L 234.862801 161.796019 
L 234.946438 170.666419 
L 234.588488 175.92044 
L 229.836799 179.536819 
L 222.684488 183.669648 
L 215.304587 188.407219 
L 210.780488 190.470357 
L 198.876488 196.640701 
L 197.864255 197.277619 
L 186.972488 205.190072 
L 183.088723 197.277619 
L 182.817749 197.074081 
" style="fill:none;stroke:#56c667;stroke-width:1.5;"/>
   </g>
   <g id="LineCollection_16">
    <path clip-path="url(#p0fc4c4c7ff)" d="M 180.322982 195.678914 
L 175.068488 191.732084 
L 174.370605 188.407219 
L 173.075951 179.536819 
L 170.920061 170.666419 
L 165.232117 161.796019 
L 163.164488 159.194847 
L 163.017751 152.925619 
L 163.043857 144.055219 
L 163.152743 135.184819 
L 163.164488 135.117282 
L 175.068488 129.71896 
L 181.804874 126.314419 
L 186.972488 125.519577 
L 198.876488 123.923995 
L 210.780488 123.354949 
L 222.684488 126.122072 
L 222.741541 126.314419 
L 223.431533 135.184819 
L 226.967386 144.055219 
L 234.588488 151.165372 
L 234.663559 152.925619 
L 234.900486 161.796019 
L 235.036497 170.666419 
L 234.588488 177.242328 
L 231.573674 179.536819 
L 222.684488 184.673268 
L 216.867966 188.407219 
L 210.780488 191.18331 
L 199.451285 197.277619 
L 198.876488 197.495691 
L 197.079736 198.82155 
" style="fill:none;stroke:#75d054;stroke-width:1.5;"/>
   </g>
   <g id="LineCollection_17">
    <path clip-path="url(#p0fc4c4c7ff)" d="M 179.867919 195.81584 
L 175.068488 192.210822 
L 174.270119 188.407219 
L 172.863179 179.536819 
L 170.460692 170.666419 
L 164.162436 161.796019 
L 163.164488 160.540554 
L 162.986254 152.925619 
L 163.023505 144.055219 
L 163.140905 135.184819 
L 163.164488 135.049209 
L 175.068488 129.075745 
L 180.532177 126.314419 
L 186.972488 125.323821 
L 198.876488 123.662977 
L 210.780488 123.102662 
L 222.684488 126.085183 
L 222.752483 126.314419 
L 223.486592 135.184819 
L 227.281858 144.055219 
L 234.588488 150.871982 
L 234.676071 152.925619 
L 234.938171 161.796019 
L 235.126556 170.666419 
L 234.588488 178.564215 
L 233.310549 179.536819 
L 222.684488 185.676889 
L 218.431346 188.407219 
L 210.780488 191.896263 
L 200.776651 197.277619 
L 198.876488 197.998519 
L 196.960644 199.412259 
" style="fill:none;stroke:#95d840;stroke-width:1.5;"/>
   </g>
   <g id="LineCollection_18">
    <path clip-path="url(#p0fc4c4c7ff)" d="M 179.426953 195.963353 
L 175.068488 192.689561 
L 174.169633 188.407219 
L 172.650406 179.536819 
L 170.001323 170.666419 
L 163.164488 161.835807 
L 163.162473 161.796019 
L 162.954757 152.925619 
L 163.003154 144.055219 
L 163.129068 135.184819 
L 163.164488 134.981137 
L 175.068488 128.432529 
L 179.259481 126.314419 
L 186.972488 125.128065 
L 198.876488 123.401959 
L 210.780488 122.850374 
L 222.684488 126.048294 
L 222.763425 126.314419 
L 223.541652 135.184819 
L 227.596331 144.055219 
L 234.588488 150.578593 
L 234.688583 152.925619 
L 234.975855 161.796019 
L 235.216615 170.666419 
L 234.628842 179.536819 
L 234.588488 179.694594 
L 222.684488 186.68051 
L 219.994725 188.407219 
L 210.780488 192.609215 
L 202.102016 197.277619 
L 198.876488 198.501348 
L 196.841552 200.002968 
" style="fill:none;stroke:#bade28;stroke-width:1.5;"/>
   </g>
   <g id="LineCollection_19">
    <path clip-path="url(#p0fc4c4c7ff)" d="M 178.999109 196.120723 
L 175.068488 193.168299 
L 174.069147 188.407219 
L 172.437634 179.536819 
L 169.541953 170.666419 
L 163.164488 162.429139 
L 163.13244 161.796019 
L 162.923259 152.925619 
L 162.982802 144.055219 
L 163.11723 135.184819 
L 163.164488 134.913064 
L 175.068488 127.789314 
L 177.986784 126.314419 
L 186.972488 124.932309 
L 198.876488 123.140941 
L 210.780488 122.598087 
L 222.684488 126.011405 
L 222.774367 126.314419 
L 223.596711 135.184819 
L 227.910804 144.055219 
L 234.588488 150.285204 
L 234.701096 152.925619 
L 235.01354 161.796019 
L 235.306674 170.666419 
L 234.781565 179.536819 
L 234.588488 180.291704 
L 222.684488 187.68413 
L 221.558104 188.407219 
L 210.780488 193.322168 
L 203.427381 197.277619 
L 198.876488 199.004177 
L 196.72246 200.593677 
" style="fill:none;stroke:#dde318;stroke-width:1.5;"/>
   </g>
   <g id="LineCollection_20">
    <path clip-path="url(#p0fc4c4c7ff)" d="M 178.583446 196.287243 
L 175.068488 193.647037 
L 173.968661 188.407219 
L 172.224861 179.536819 
L 169.082584 170.666419 
L 163.164488 163.022471 
L 163.102407 161.796019 
L 162.891762 152.925619 
L 162.96245 144.055219 
L 163.105393 135.184819 
L 163.164488 134.844991 
L 175.068488 127.146098 
L 176.714088 126.314419 
L 186.972488 124.736552 
L 198.876488 122.879924 
L 210.780488 122.3458 
L 222.684488 125.974516 
L 222.785309 126.314419 
L 223.65177 135.184819 
L 228.225277 144.055219 
L 234.588488 149.991815 
L 234.713608 152.925619 
L 235.051224 161.796019 
L 235.396732 170.666419 
L 234.934288 179.536819 
L 234.588488 180.888814 
L 222.943011 188.407219 
L 222.684488 188.530901 
L 210.780488 194.035121 
L 204.752746 197.277619 
L 198.876488 199.507005 
L 196.603368 201.184386 
" style="fill:none;stroke:#fde725;stroke-width:1.5;"/>
   </g>
   <g id="LineCollection_21">
    <path clip-path="url(#p0fc4c4c7ff)" d="M 162.894443 149.220826 
L 162.942098 144.055219 
L 163.093555 135.184819 
L 163.164488 134.776918 
L 175.068488 126.502883 
L 175.441391 126.314419 
L 186.972488 124.540796 
L 198.876488 122.618906 
L 210.780488 122.093513 
L 222.684488 125.937627 
L 222.796251 126.314419 
L 223.706829 135.184819 
L 228.539749 144.055219 
L 234.588488 149.698426 
L 234.726121 152.925619 
L 235.088909 161.796019 
L 235.486791 170.666419 
L 235.087012 179.536819 
L 234.588488 181.485924 
L 223.867891 188.407219 
L 222.684488 188.973383 
L 210.780488 194.748073 
L 206.078111 197.277619 
L 198.876488 200.009834 
L 190.558263 206.148019 
L 186.972488 207.357782 
L 186.171567 206.148019 
L 179.264599 197.277619 
L 175.068488 194.125775 
L 173.868175 188.407219 
L 172.012089 179.536819 
L 170.580094 175.788564 
" style="fill:none;stroke:#440154;stroke-width:1.5;"/>
   </g>
   <g id="LineCollection_22">
    <path clip-path="url(#p0fc4c4c7ff)" d="M 190.991913 116.069835 
L 198.876488 115.736417 
L 210.780488 116.26004 
L 219.860648 117.444019 
L 222.684488 119.297582 
L 224.76581 126.314419 
L 233.617507 135.184819 
L 234.588488 136.061671 
L 235.116995 144.055219 
L 236.978364 152.925619 
L 241.87214 161.796019 
L 246.492488 167.824629 
L 246.612794 170.666419 
L 246.940403 179.536819 
L 247.086449 188.407219 
L 246.692117 197.277619 
L 246.492488 198.493971 
L 235.766984 206.148019 
L 234.588488 206.784344 
L 222.684488 212.94003 
L 218.825049 215.018419 
L 210.780488 217.889364 
L 200.8163 223.888819 
L 198.876488 224.914837 
L 192.865194 223.888819 
L 186.972488 222.466858 
L 180.283516 215.018419 
L 175.068488 210.43685 
L 173.226035 206.148019 
L 167.404347 197.277619 
L 163.164488 192.254583 
L 162.649654 188.407219 
L 161.371492 179.536819 
L 159.618557 170.666419 
L 157.666403 161.796019 
L 157.190745 152.925619 
L 159.278776 144.055219 
L 160.962782 135.184819 
L 162.571582 127.816475 
" style="fill:none;stroke:#440154;stroke-width:1.5;"/>
   </g>
   <g id="LineCollection_23">
    <path clip-path="url(#p0fc4c4c7ff)" d="M 158.588129 198.792861 
L 157.924771 197.277619 
L 151.260488 189.068008 
L 151.205818 188.407219 
L 150.655086 179.536819 
L 149.770371 170.666419 
L 148.614461 161.796019 
L 148.982824 152.925619 
L 150.03786 144.055219 
L 150.843985 135.184819 
L 151.260488 129.838389 
L 154.335106 126.314419 
L 162.71776 117.444019 
L 163.164488 117.053887 
L 175.068488 111.680522 
L 181.267743 108.573619 
L 186.972488 107.97392 
L 198.876488 107.840855 
L 210.780488 108.213732 
L 212.84564 108.573619 
L 222.684488 114.53095 
L 224.938135 117.444019 
L 234.588488 125.361018 
L 234.69209 126.314419 
L 235.777688 135.184819 
L 241.0344 144.055219 
L 246.492488 149.50998 
L 246.665674 152.925619 
L 247.676363 161.796019 
L 250.359746 170.666419 
L 254.595663 179.536819 
L 257.359943 188.407219 
L 256.710263 197.277619 
L 252.894967 206.148019 
L 247.646522 215.018419 
L 246.492488 216.151999 
L 235.236853 223.888819 
L 234.588488 224.263587 
L 222.684488 231.950189 
L 221.280867 232.759219 
L 210.780488 236.940422 
L 203.769009 241.629619 
L 198.876488 243.423734 
L 196.300776 241.629619 
L 186.972488 235.026998 
L 184.057587 232.759219 
L 177.8356 227.963338 
" style="fill:none;stroke:#440154;stroke-width:1.5;"/>
   </g>
   <g id="LineCollection_24">
    <path clip-path="url(#p0fc4c4c7ff)" d="M 152.076876 209.999333 
L 151.260488 209.171356 
L 150.747779 206.148019 
L 148.806459 197.277619 
L 145.564958 188.407219 
L 139.965653 179.536819 
L 139.356488 178.549464 
L 139.035033 170.666419 
L 138.821165 161.796019 
L 138.918271 152.925619 
L 139.173907 144.055219 
L 139.356488 140.618915 
L 143.196954 135.184819 
L 148.108542 126.314419 
L 150.792449 117.444019 
L 151.260488 116.317826 
L 161.359663 108.573619 
L 163.164488 107.406952 
L 175.068488 101.919891 
L 180.958314 99.703219 
L 186.972488 99.280546 
L 198.876488 99.356434 
L 210.780488 99.692598 
L 210.826208 99.703219 
L 222.684488 106.897383 
L 224.089574 108.573619 
L 234.588488 116.655934 
L 234.768795 117.444019 
L 236.758877 126.314419 
L 246.492488 134.986288 
L 246.502007 135.184819 
L 246.989506 144.055219 
L 249.664212 152.925619 
L 258.396488 161.344549 
L 258.411254 161.796019 
L 258.677062 170.666419 
L 259.355669 179.536819 
L 260.261793 188.407219 
L 260.386111 197.277619 
L 259.748366 206.148019 
L 258.949013 215.018419 
L 258.396488 222.238236 
L 256.360376 223.888819 
L 246.492488 230.219568 
L 242.873276 232.759219 
L 234.588488 237.766124 
L 229.328944 241.629619 
L 222.684488 247.49797 
L 217.925565 250.500019 
L 210.780488 254.178953 
L 198.876488 257.23354 
L 188.896674 250.500019 
L 186.972488 249.08613 
L 180.53424 241.629619 
L 177.638617 239.459003 
" style="fill:none;stroke:#440154;stroke-width:1.5;"/>
   </g>
   <g id="LineCollection_25">
    <path clip-path="url(#p0fc4c4c7ff)" d="M 150.280262 220.570567 
L 148.658621 215.018419 
L 139.951858 206.148019 
L 139.356488 205.465218 
L 138.409659 197.277619 
L 136.955082 188.407219 
L 134.754763 179.536819 
L 131.96995 170.666419 
L 131.080572 161.796019 
L 131.868088 152.925619 
L 133.424811 144.055219 
L 136.048425 135.184819 
L 138.180615 126.314419 
L 139.342758 117.444019 
L 139.356488 117.380636 
L 149.071867 108.573619 
L 151.260488 105.142554 
L 158.758009 99.703219 
L 163.164488 97.664543 
L 175.068488 92.050351 
L 178.661329 90.832819 
L 186.972488 90.415961 
L 198.876488 90.547126 
L 207.265372 90.832819 
L 210.780488 91.681541 
L 222.684488 98.750745 
L 223.504878 99.703219 
L 234.588488 108.189412 
L 234.701103 108.573619 
L 237.857615 117.444019 
L 246.492488 124.902853 
L 246.561725 126.314419 
L 247.384969 135.184819 
L 252.464716 144.055219 
L 258.396488 149.417479 
L 258.537504 152.925619 
L 259.356815 161.796019 
L 262.248922 170.666419 
L 269.448596 179.536819 
L 270.300488 180.894015 
L 270.349113 188.407219 
L 270.387172 197.277619 
L 270.354327 206.148019 
L 270.300488 209.475246 
L 266.706302 215.018419 
L 261.658771 223.888819 
L 259.016548 232.759219 
L 258.396488 235.192337 
L 249.207234 241.629619 
L 246.492488 243.21172 
L 236.303406 250.500019 
L 234.588488 251.583485 
L 224.767309 259.370419 
L 222.684488 261.774982 
L 213.586368 268.240819 
L 210.780488 269.848704 
L 198.876488 269.024152 
L 198.161767 268.240819 
L 186.972488 259.923603 
L 186.507438 259.370419 
L 179.736875 250.813856 
" style="fill:none;stroke:#440154;stroke-width:1.5;"/>
   </g>
   <g id="LineCollection_26">
    <path clip-path="url(#p0fc4c4c7ff)" d="M 198.148784 277.111219 
L 186.972488 268.588616 
L 186.405426 268.240819 
L 175.51683 259.370419 
L 175.068488 259.002188 
L 165.5443 250.500019 
L 163.164488 248.678619 
L 160.552238 241.629619 
L 151.305499 233.916332 
" style="fill:none;stroke:#450457;stroke-width:1.5;"/>
    <path clip-path="url(#p0fc4c4c7ff)" d="M 127.026796 195.097735 
L 126.397571 188.407219 
L 125.362806 179.536819 
L 125.179326 170.666419 
L 125.520101 161.796019 
L 125.954973 152.925619 
L 126.416008 144.055219 
L 126.813083 135.184819 
L 127.28068 126.314419 
L 127.452488 124.114184 
L 133.415799 117.444019 
L 138.09559 108.573619 
L 139.356488 105.578713 
L 146.504908 99.703219 
L 151.260488 92.959314 
L 154.41634 90.832819 
L 163.164488 88.109817 
L 175.068488 82.434223 
L 177.048602 81.962419 
L 186.972488 81.665069 
L 198.876488 81.734498 
L 206.714735 81.962419 
L 210.780488 82.95472 
L 222.684488 90.383466 
L 223.068991 90.832819 
L 234.588488 99.629867 
L 234.612607 99.703219 
L 237.507145 108.573619 
L 246.492488 115.814825 
L 246.626017 117.444019 
L 247.870446 126.314419 
L 256.21458 135.184819 
L 258.396488 137.109685 
L 258.70503 144.055219 
L 260.52707 152.925619 
L 268.81242 161.796019 
L 270.300488 163.29391 
L 270.424521 170.666419 
L 270.739849 179.536819 
L 271.389781 188.407219 
L 272.086586 197.277619 
L 272.290252 206.148019 
L 271.483847 215.018419 
L 270.656812 223.888819 
L 270.300488 232.286676 
L 269.849756 232.759219 
L 260.549626 241.629619 
L 258.396488 248.249648 
L 255.224003 250.500019 
L 246.492488 256.042536 
L 241.869284 259.370419 
L 234.588488 264.079621 
L 229.397479 268.240819 
L 222.684488 276.050643 
L 221.174624 277.111219 
" style="fill:none;stroke:#450457;stroke-width:1.5;"/>
   </g>
   <g id="LineCollection_27">
    <path clip-path="url(#p0fc4c4c7ff)" d="M 186.733953 277.111219 
L 175.068488 268.674348 
L 174.478469 268.240819 
L 163.164488 259.715271 
L 163.047882 259.370419 
L 159.366402 250.500019 
L 151.260488 243.802289 
L 150.45761 241.629619 
L 142.26738 232.759219 
L 139.356488 230.285877 
L 137.127846 223.888819 
L 127.547098 215.616371 
" style="fill:none;stroke:#482475;stroke-width:1.5;"/>
    <path clip-path="url(#p0fc4c4c7ff)" d="M 115.052048 168.357469 
L 115.172623 161.796019 
L 115.368833 152.925619 
L 115.528473 144.055219 
L 115.548488 142.671657 
L 118.323932 135.184819 
L 122.103967 126.314419 
L 125.20688 117.444019 
L 126.998573 108.573619 
L 127.452488 106.767151 
L 135.291799 99.703219 
L 139.356488 93.264015 
L 142.355166 90.832819 
L 151.146114 81.962419 
L 151.260488 81.872575 
L 163.164488 78.58238 
L 174.876836 73.092019 
L 175.068488 73.070917 
L 186.972488 72.888672 
L 198.876488 73.017103 
L 200.787372 73.092019 
L 210.780488 75.933025 
L 222.684488 81.870045 
L 222.767 81.962419 
L 231.527902 90.832819 
L 234.588488 93.170084 
L 236.736739 99.703219 
L 246.492488 107.429976 
L 246.638544 108.573619 
L 248.479448 117.444019 
L 258.396488 126.001431 
L 258.410417 126.314419 
L 258.901268 135.184819 
L 262.165343 144.055219 
L 270.300488 151.347524 
L 270.356066 152.925619 
L 270.767676 161.796019 
L 272.025816 170.666419 
L 275.170861 179.536819 
L 281.796463 188.407219 
L 282.204488 189.190826 
L 282.236577 197.277619 
L 282.260756 206.148019 
L 282.222343 215.018419 
L 282.204488 215.80586 
L 275.475811 223.888819 
L 271.769459 232.759219 
L 270.539771 241.629619 
L 270.300488 244.177858 
L 263.023088 250.500019 
L 258.654728 259.370419 
L 258.396488 260.046251 
L 247.183938 268.240819 
L 246.492488 268.667163 
L 234.90898 277.111219 
" style="fill:none;stroke:#482475;stroke-width:1.5;"/>
   </g>
   <g id="LineCollection_28">
    <path clip-path="url(#p0fc4c4c7ff)" d="M 173.683797 277.111219 
L 163.164488 269.287717 
L 162.793711 268.240819 
L 157.534106 259.370419 
L 151.260488 254.139382 
L 149.955051 250.500019 
L 139.356488 241.718825 
L 139.322809 241.629619 
L 135.529862 232.759219 
L 127.452488 225.955729 
L 126.825336 223.888819 
L 120.317369 215.018419 
L 115.548488 210.98986 
L 114.336769 206.148019 
L 109.743112 197.277619 
L 106.10066 188.407219 
L 105.020864 179.536819 
L 106.079285 170.666419 
L 107.776057 161.796019 
L 110.21532 152.925619 
L 112.215792 144.055219 
L 113.418921 136.489971 
" style="fill:none;stroke:#fde725;stroke-width:1.5;"/>
    <path clip-path="url(#p0fc4c4c7ff)" d="M 132.634356 88.988896 
L 139.037536 81.962419 
L 139.356488 81.574949 
L 150.649306 73.092019 
L 151.260488 72.744334 
L 163.164488 69.177678 
L 174.258834 64.221619 
L 175.068488 64.142932 
L 186.972488 64.093011 
L 196.062867 64.221619 
L 198.876488 64.59759 
L 210.780488 69.365484 
L 219.118336 73.092019 
L 222.684488 75.634785 
L 228.336599 81.962419 
L 234.588488 86.734957 
L 236.027113 90.832819 
L 246.492488 99.06811 
L 246.586267 99.703219 
L 248.787117 108.573619 
L 258.396488 116.608724 
L 258.439525 117.444019 
L 259.122203 126.314419 
L 264.076972 135.184819 
L 270.300488 140.606425 
L 270.453268 144.055219 
L 271.448486 152.925619 
L 275.514256 161.796019 
L 282.204488 168.844427 
L 282.237477 170.666419 
L 282.395654 179.536819 
L 282.678327 188.407219 
L 283.029642 197.277619 
L 283.414071 206.148019 
L 283.534966 215.018419 
L 282.961642 223.888819 
L 282.295208 232.759219 
L 282.204488 233.890566 
L 274.426071 241.629619 
L 271.057263 250.500019 
L 270.300488 256.485806 
L 266.924131 259.370419 
L 259.300808 268.240819 
L 258.396488 270.162069 
L 248.790101 277.111219 
" style="fill:none;stroke:#fde725;stroke-width:1.5;"/>
   </g>
   <g id="line2d_20">
    <path clip-path="url(#p0fc4c4c7ff)" d="M 427.710987 202.742331 
L 410.628224 207.82211 
L 382.744117 215.99516 
L 359.348926 222.581469 
L 339.699119 228.202382 
L 323.267643 232.656402 
L 309.327489 236.056641 
L 297.552538 238.663969 
L 287.695597 240.280929 
L 279.283396 241.487711 
L 272.154652 242.129074 
L 266.168281 242.288794 
L 260.820682 241.866021 
L 256.273839 241.124622 
L 252.220396 239.866734 
L 248.574952 238.575436 
L 245.479237 236.749973 
L 242.649502 234.817597 
L 240.01144 232.811648 
L 237.751661 230.515155 
L 235.65871 227.992471 
L 233.692717 225.620084 
L 231.979021 223.004927 
L 230.208718 220.216447 
L 228.683443 217.49281 
L 227.169198 214.716767 
L 225.867409 211.810716 
L 224.644198 208.874528 
L 223.488309 206.072389 
L 222.340812 203.253595 
L 221.453691 200.230747 
L 220.484258 197.341369 
L 219.623183 194.373674 
L 218.805941 191.515243 
L 217.970459 188.544442 
L 217.238217 185.686122 
L 216.484438 183.006446 
L 215.844812 180.266814 
L 215.026258 177.412624 
L 214.374918 174.507972 
L 213.730915 171.432203 
L 212.926556 168.273673 
L 212.126344 164.605797 
L 211.373051 160.635908 
L 211.525592 159.676111 
L 211.682245 158.770994 
L 211.824462 157.958357 
L 211.970277 157.171495 
L 212.106059 156.441928 
L 212.235847 155.676247 
L 212.366931 154.997564 
L 212.495828 154.324503 
L 212.603658 153.663155 
L 212.703223 153.03011 
L 212.811416 152.420776 
L 212.891702 151.803156 
L 212.985452 151.189132 
L 213.051933 150.640191 
L 213.143761 150.06302 
L 213.202315 149.521969 
L 213.24517 148.979834 
L 213.31562 148.447595 
L 213.356441 147.928347 
L 213.407375 147.426426 
L 213.448228 146.924216 
L 213.480797 146.442156 
L 213.514413 145.94226 
L 213.538343 145.419416 
L 213.543421 144.895815 
L 213.579603 144.794206 
L 213.62335 144.694628 
L 213.665743 144.608071 
L 213.711113 144.534319 
L 213.75662 144.470321 
L 213.806172 144.416378 
L 213.852807 144.368296 
L 213.90034 144.327086 
L 213.947685 144.282626 
L 213.997325 144.242695 
L 214.045442 144.209617 
L 214.096299 144.18346 
L 214.145626 144.161778 
L 214.191701 144.14587 
L 214.241858 144.124378 
L 214.291242 144.102451 
L 214.340927 144.091519 
L 214.388458 144.078434 
L 214.440518 144.071165 
L 214.492199 144.060202 
L 214.542643 144.056794 
L 214.592815 144.058213 
L 214.645251 144.057109 
L 214.696919 144.058631 
" style="fill:none;stroke:#1f77b4;stroke-linecap:square;stroke-width:1.5;"/>
    <defs>
     <path d="M 0 1.5 
C 0.397805 1.5 0.77937 1.341951 1.06066 1.06066 
C 1.341951 0.77937 1.5 0.397805 1.5 0 
C 1.5 -0.397805 1.341951 -0.77937 1.06066 -1.06066 
C 0.77937 -1.341951 0.397805 -1.5 0 -1.5 
C -0.397805 -1.5 -0.77937 -1.341951 -1.06066 -1.06066 
C -1.341951 -0.77937 -1.5 -0.397805 -1.5 0 
C -1.5 0.397805 -1.341951 0.77937 -1.06066 1.06066 
C -0.77937 1.341951 -0.397805 1.5 0 1.5 
z
" id="m2143f9bce5" style="stroke:#1f77b4;"/>
    </defs>
    <g clip-path="url(#p0fc4c4c7ff)">
     <use style="fill:#1f77b4;stroke:#1f77b4;" x="827.708218" xlink:href="#m2143f9bce5" y="107.501091"/>
     <use style="fill:#1f77b4;stroke:#1f77b4;" x="733.312068" xlink:href="#m2143f9bce5" y="126.339768"/>
     <use style="fill:#1f77b4;stroke:#1f77b4;" x="653.876868" xlink:href="#m2143f9bce5" y="143.64441"/>
     <use style="fill:#1f77b4;stroke:#1f77b4;" x="586.981502" xlink:href="#m2143f9bce5" y="159.2856"/>
     <use style="fill:#1f77b4;stroke:#1f77b4;" x="530.885065" xlink:href="#m2143f9bce5" y="173.821384"/>
     <use style="fill:#1f77b4;stroke:#1f77b4;" x="483.594444" xlink:href="#m2143f9bce5" y="186.595805"/>
     <use style="fill:#1f77b4;stroke:#1f77b4;" x="443.905331" xlink:href="#m2143f9bce5" y="197.926735"/>
     <use style="fill:#1f77b4;stroke:#1f77b4;" x="410.628224" xlink:href="#m2143f9bce5" y="207.82211"/>
     <use style="fill:#1f77b4;stroke:#1f77b4;" x="382.744117" xlink:href="#m2143f9bce5" y="215.99516"/>
     <use style="fill:#1f77b4;stroke:#1f77b4;" x="359.348926" xlink:href="#m2143f9bce5" y="222.581469"/>
     <use style="fill:#1f77b4;stroke:#1f77b4;" x="339.699119" xlink:href="#m2143f9bce5" y="228.202382"/>
     <use style="fill:#1f77b4;stroke:#1f77b4;" x="323.267643" xlink:href="#m2143f9bce5" y="232.656402"/>
     <use style="fill:#1f77b4;stroke:#1f77b4;" x="309.327489" xlink:href="#m2143f9bce5" y="236.056641"/>
     <use style="fill:#1f77b4;stroke:#1f77b4;" x="297.552538" xlink:href="#m2143f9bce5" y="238.663969"/>
     <use style="fill:#1f77b4;stroke:#1f77b4;" x="287.695597" xlink:href="#m2143f9bce5" y="240.280929"/>
     <use style="fill:#1f77b4;stroke:#1f77b4;" x="279.283396" xlink:href="#m2143f9bce5" y="241.487711"/>
     <use style="fill:#1f77b4;stroke:#1f77b4;" x="272.154652" xlink:href="#m2143f9bce5" y="242.129074"/>
     <use style="fill:#1f77b4;stroke:#1f77b4;" x="266.168281" xlink:href="#m2143f9bce5" y="242.288794"/>
     <use style="fill:#1f77b4;stroke:#1f77b4;" x="260.820682" xlink:href="#m2143f9bce5" y="241.866021"/>
     <use style="fill:#1f77b4;stroke:#1f77b4;" x="256.273839" xlink:href="#m2143f9bce5" y="241.124622"/>
     <use style="fill:#1f77b4;stroke:#1f77b4;" x="252.220396" xlink:href="#m2143f9bce5" y="239.866734"/>
     <use style="fill:#1f77b4;stroke:#1f77b4;" x="248.574952" xlink:href="#m2143f9bce5" y="238.575436"/>
     <use style="fill:#1f77b4;stroke:#1f77b4;" x="245.479237" xlink:href="#m2143f9bce5" y="236.749973"/>
     <use style="fill:#1f77b4;stroke:#1f77b4;" x="242.649502" xlink:href="#m2143f9bce5" y="234.817597"/>
     <use style="fill:#1f77b4;stroke:#1f77b4;" x="240.01144" xlink:href="#m2143f9bce5" y="232.811648"/>
     <use style="fill:#1f77b4;stroke:#1f77b4;" x="237.751661" xlink:href="#m2143f9bce5" y="230.515155"/>
     <use style="fill:#1f77b4;stroke:#1f77b4;" x="235.65871" xlink:href="#m2143f9bce5" y="227.992471"/>
     <use style="fill:#1f77b4;stroke:#1f77b4;" x="233.692717" xlink:href="#m2143f9bce5" y="225.620084"/>
     <use style="fill:#1f77b4;stroke:#1f77b4;" x="231.979021" xlink:href="#m2143f9bce5" y="223.004927"/>
     <use style="fill:#1f77b4;stroke:#1f77b4;" x="230.208718" xlink:href="#m2143f9bce5" y="220.216447"/>
     <use style="fill:#1f77b4;stroke:#1f77b4;" x="228.683443" xlink:href="#m2143f9bce5" y="217.49281"/>
     <use style="fill:#1f77b4;stroke:#1f77b4;" x="227.169198" xlink:href="#m2143f9bce5" y="214.716767"/>
     <use style="fill:#1f77b4;stroke:#1f77b4;" x="225.867409" xlink:href="#m2143f9bce5" y="211.810716"/>
     <use style="fill:#1f77b4;stroke:#1f77b4;" x="224.644198" xlink:href="#m2143f9bce5" y="208.874528"/>
     <use style="fill:#1f77b4;stroke:#1f77b4;" x="223.488309" xlink:href="#m2143f9bce5" y="206.072389"/>
     <use style="fill:#1f77b4;stroke:#1f77b4;" x="222.340812" xlink:href="#m2143f9bce5" y="203.253595"/>
     <use style="fill:#1f77b4;stroke:#1f77b4;" x="221.453691" xlink:href="#m2143f9bce5" y="200.230747"/>
     <use style="fill:#1f77b4;stroke:#1f77b4;" x="220.484258" xlink:href="#m2143f9bce5" y="197.341369"/>
     <use style="fill:#1f77b4;stroke:#1f77b4;" x="219.623183" xlink:href="#m2143f9bce5" y="194.373674"/>
     <use style="fill:#1f77b4;stroke:#1f77b4;" x="218.805941" xlink:href="#m2143f9bce5" y="191.515243"/>
     <use style="fill:#1f77b4;stroke:#1f77b4;" x="217.970459" xlink:href="#m2143f9bce5" y="188.544442"/>
     <use style="fill:#1f77b4;stroke:#1f77b4;" x="217.238217" xlink:href="#m2143f9bce5" y="185.686122"/>
     <use style="fill:#1f77b4;stroke:#1f77b4;" x="216.484438" xlink:href="#m2143f9bce5" y="183.006446"/>
     <use style="fill:#1f77b4;stroke:#1f77b4;" x="215.844812" xlink:href="#m2143f9bce5" y="180.266814"/>
     <use style="fill:#1f77b4;stroke:#1f77b4;" x="215.026258" xlink:href="#m2143f9bce5" y="177.412624"/>
     <use style="fill:#1f77b4;stroke:#1f77b4;" x="214.374918" xlink:href="#m2143f9bce5" y="174.507972"/>
     <use style="fill:#1f77b4;stroke:#1f77b4;" x="213.730915" xlink:href="#m2143f9bce5" y="171.432203"/>
     <use style="fill:#1f77b4;stroke:#1f77b4;" x="212.926556" xlink:href="#m2143f9bce5" y="168.273673"/>
     <use style="fill:#1f77b4;stroke:#1f77b4;" x="212.126344" xlink:href="#m2143f9bce5" y="164.605797"/>
     <use style="fill:#1f77b4;stroke:#1f77b4;" x="211.373051" xlink:href="#m2143f9bce5" y="160.635908"/>
     <use style="fill:#1f77b4;stroke:#1f77b4;" x="211.525592" xlink:href="#m2143f9bce5" y="159.676111"/>
     <use style="fill:#1f77b4;stroke:#1f77b4;" x="211.682245" xlink:href="#m2143f9bce5" y="158.770994"/>
     <use style="fill:#1f77b4;stroke:#1f77b4;" x="211.824462" xlink:href="#m2143f9bce5" y="157.958357"/>
     <use style="fill:#1f77b4;stroke:#1f77b4;" x="211.970277" xlink:href="#m2143f9bce5" y="157.171495"/>
     <use style="fill:#1f77b4;stroke:#1f77b4;" x="212.106059" xlink:href="#m2143f9bce5" y="156.441928"/>
     <use style="fill:#1f77b4;stroke:#1f77b4;" x="212.235847" xlink:href="#m2143f9bce5" y="155.676247"/>
     <use style="fill:#1f77b4;stroke:#1f77b4;" x="212.366931" xlink:href="#m2143f9bce5" y="154.997564"/>
     <use style="fill:#1f77b4;stroke:#1f77b4;" x="212.495828" xlink:href="#m2143f9bce5" y="154.324503"/>
     <use style="fill:#1f77b4;stroke:#1f77b4;" x="212.603658" xlink:href="#m2143f9bce5" y="153.663155"/>
     <use style="fill:#1f77b4;stroke:#1f77b4;" x="212.703223" xlink:href="#m2143f9bce5" y="153.03011"/>
     <use style="fill:#1f77b4;stroke:#1f77b4;" x="212.811416" xlink:href="#m2143f9bce5" y="152.420776"/>
     <use style="fill:#1f77b4;stroke:#1f77b4;" x="212.891702" xlink:href="#m2143f9bce5" y="151.803156"/>
     <use style="fill:#1f77b4;stroke:#1f77b4;" x="212.985452" xlink:href="#m2143f9bce5" y="151.189132"/>
     <use style="fill:#1f77b4;stroke:#1f77b4;" x="213.051933" xlink:href="#m2143f9bce5" y="150.640191"/>
     <use style="fill:#1f77b4;stroke:#1f77b4;" x="213.143761" xlink:href="#m2143f9bce5" y="150.06302"/>
     <use style="fill:#1f77b4;stroke:#1f77b4;" x="213.202315" xlink:href="#m2143f9bce5" y="149.521969"/>
     <use style="fill:#1f77b4;stroke:#1f77b4;" x="213.24517" xlink:href="#m2143f9bce5" y="148.979834"/>
     <use style="fill:#1f77b4;stroke:#1f77b4;" x="213.31562" xlink:href="#m2143f9bce5" y="148.447595"/>
     <use style="fill:#1f77b4;stroke:#1f77b4;" x="213.356441" xlink:href="#m2143f9bce5" y="147.928347"/>
     <use style="fill:#1f77b4;stroke:#1f77b4;" x="213.407375" xlink:href="#m2143f9bce5" y="147.426426"/>
     <use style="fill:#1f77b4;stroke:#1f77b4;" x="213.448228" xlink:href="#m2143f9bce5" y="146.924216"/>
     <use style="fill:#1f77b4;stroke:#1f77b4;" x="213.480797" xlink:href="#m2143f9bce5" y="146.442156"/>
     <use style="fill:#1f77b4;stroke:#1f77b4;" x="213.514413" xlink:href="#m2143f9bce5" y="145.94226"/>
     <use style="fill:#1f77b4;stroke:#1f77b4;" x="213.538343" xlink:href="#m2143f9bce5" y="145.419416"/>
     <use style="fill:#1f77b4;stroke:#1f77b4;" x="213.543421" xlink:href="#m2143f9bce5" y="144.895815"/>
     <use style="fill:#1f77b4;stroke:#1f77b4;" x="213.579603" xlink:href="#m2143f9bce5" y="144.794206"/>
     <use style="fill:#1f77b4;stroke:#1f77b4;" x="213.62335" xlink:href="#m2143f9bce5" y="144.694628"/>
     <use style="fill:#1f77b4;stroke:#1f77b4;" x="213.665743" xlink:href="#m2143f9bce5" y="144.608071"/>
     <use style="fill:#1f77b4;stroke:#1f77b4;" x="213.711113" xlink:href="#m2143f9bce5" y="144.534319"/>
     <use style="fill:#1f77b4;stroke:#1f77b4;" x="213.75662" xlink:href="#m2143f9bce5" y="144.470321"/>
     <use style="fill:#1f77b4;stroke:#1f77b4;" x="213.806172" xlink:href="#m2143f9bce5" y="144.416378"/>
     <use style="fill:#1f77b4;stroke:#1f77b4;" x="213.852807" xlink:href="#m2143f9bce5" y="144.368296"/>
     <use style="fill:#1f77b4;stroke:#1f77b4;" x="213.90034" xlink:href="#m2143f9bce5" y="144.327086"/>
     <use style="fill:#1f77b4;stroke:#1f77b4;" x="213.947685" xlink:href="#m2143f9bce5" y="144.282626"/>
     <use style="fill:#1f77b4;stroke:#1f77b4;" x="213.997325" xlink:href="#m2143f9bce5" y="144.242695"/>
     <use style="fill:#1f77b4;stroke:#1f77b4;" x="214.045442" xlink:href="#m2143f9bce5" y="144.209617"/>
     <use style="fill:#1f77b4;stroke:#1f77b4;" x="214.096299" xlink:href="#m2143f9bce5" y="144.18346"/>
     <use style="fill:#1f77b4;stroke:#1f77b4;" x="214.145626" xlink:href="#m2143f9bce5" y="144.161778"/>
     <use style="fill:#1f77b4;stroke:#1f77b4;" x="214.191701" xlink:href="#m2143f9bce5" y="144.14587"/>
     <use style="fill:#1f77b4;stroke:#1f77b4;" x="214.241858" xlink:href="#m2143f9bce5" y="144.124378"/>
     <use style="fill:#1f77b4;stroke:#1f77b4;" x="214.291242" xlink:href="#m2143f9bce5" y="144.102451"/>
     <use style="fill:#1f77b4;stroke:#1f77b4;" x="214.340927" xlink:href="#m2143f9bce5" y="144.091519"/>
     <use style="fill:#1f77b4;stroke:#1f77b4;" x="214.388458" xlink:href="#m2143f9bce5" y="144.078434"/>
     <use style="fill:#1f77b4;stroke:#1f77b4;" x="214.440518" xlink:href="#m2143f9bce5" y="144.071165"/>
     <use style="fill:#1f77b4;stroke:#1f77b4;" x="214.492199" xlink:href="#m2143f9bce5" y="144.060202"/>
     <use style="fill:#1f77b4;stroke:#1f77b4;" x="214.542643" xlink:href="#m2143f9bce5" y="144.056794"/>
     <use style="fill:#1f77b4;stroke:#1f77b4;" x="214.592815" xlink:href="#m2143f9bce5" y="144.058213"/>
     <use style="fill:#1f77b4;stroke:#1f77b4;" x="214.645251" xlink:href="#m2143f9bce5" y="144.057109"/>
     <use style="fill:#1f77b4;stroke:#1f77b4;" x="214.696919" xlink:href="#m2143f9bce5" y="144.058631"/>
    </g>
   </g>
   <g id="patch_3">
    <path d="M 56.028488 277.111219 
L 56.028488 10.999219 
" style="fill:none;stroke:#000000;stroke-linecap:square;stroke-linejoin:miter;stroke-width:0.8;"/>
   </g>
   <g id="patch_4">
    <path d="M 413.148488 277.111219 
L 413.148488 10.999219 
" style="fill:none;stroke:#000000;stroke-linecap:square;stroke-linejoin:miter;stroke-width:0.8;"/>
   </g>
   <g id="patch_5">
    <path d="M 56.028488 277.111219 
L 413.148488 277.111219 
" style="fill:none;stroke:#000000;stroke-linecap:square;stroke-linejoin:miter;stroke-width:0.8;"/>
   </g>
   <g id="patch_6">
    <path d="M 56.028488 10.999219 
L 413.148488 10.999219 
" style="fill:none;stroke:#000000;stroke-linecap:square;stroke-linejoin:miter;stroke-width:0.8;"/>
   </g>
   <g id="text_22">
    <g clip-path="url(#p0fc4c4c7ff)">
     <!-- 1.000 -->
     <g style="fill:#482576;" transform="translate(216.091772 129.472979)rotate(-308.317663)scale(0.06 -0.06)">
      <use xlink:href="#DejaVuSans-49"/>
      <use x="63.623047" xlink:href="#DejaVuSans-46"/>
      <use x="95.410156" xlink:href="#DejaVuSans-48"/>
      <use x="159.033203" xlink:href="#DejaVuSans-48"/>
      <use x="222.65625" xlink:href="#DejaVuSans-48"/>
     </g>
    </g>
   </g>
   <g id="text_23">
    <g clip-path="url(#p0fc4c4c7ff)">
     <!-- 1.500 -->
     <g style="fill:#453781;" transform="translate(217.374862 128.301071)rotate(-297.18054)scale(0.06 -0.06)">
      <use xlink:href="#DejaVuSans-49"/>
      <use x="63.623047" xlink:href="#DejaVuSans-46"/>
      <use x="95.410156" xlink:href="#DejaVuSans-53"/>
      <use x="159.033203" xlink:href="#DejaVuSans-48"/>
      <use x="222.65625" xlink:href="#DejaVuSans-48"/>
     </g>
    </g>
   </g>
   <g id="text_24">
    <g clip-path="url(#p0fc4c4c7ff)">
     <!-- 2.000 -->
     <g style="fill:#404688;" transform="translate(203.381404 126.78945)rotate(-352.202027)scale(0.06 -0.06)">
      <use xlink:href="#DejaVuSans-50"/>
      <use x="63.623047" xlink:href="#DejaVuSans-46"/>
      <use x="95.410156" xlink:href="#DejaVuSans-48"/>
      <use x="159.033203" xlink:href="#DejaVuSans-48"/>
      <use x="222.65625" xlink:href="#DejaVuSans-48"/>
     </g>
    </g>
   </g>
   <g id="text_25">
    <g clip-path="url(#p0fc4c4c7ff)">
     <!-- 2.500 -->
     <g style="fill:#39558c;" transform="translate(216.695815 125.021371)rotate(-302.299856)scale(0.06 -0.06)">
      <use xlink:href="#DejaVuSans-50"/>
      <use x="63.623047" xlink:href="#DejaVuSans-46"/>
      <use x="95.410156" xlink:href="#DejaVuSans-53"/>
      <use x="159.033203" xlink:href="#DejaVuSans-48"/>
      <use x="222.65625" xlink:href="#DejaVuSans-48"/>
     </g>
    </g>
   </g>
   <g id="text_26">
    <g clip-path="url(#p0fc4c4c7ff)">
     <!-- 3.000 -->
     <g style="fill:#33638d;" transform="translate(173.488566 141.520872)rotate(-35.508093)scale(0.06 -0.06)">
      <defs>
       <path d="M 40.578125 39.3125 
Q 47.65625 37.796875 51.625 33 
Q 55.609375 28.21875 55.609375 21.1875 
Q 55.609375 10.40625 48.1875 4.484375 
Q 40.765625 -1.421875 27.09375 -1.421875 
Q 22.515625 -1.421875 17.65625 -0.515625 
Q 12.796875 0.390625 7.625 2.203125 
L 7.625 11.71875 
Q 11.71875 9.328125 16.59375 8.109375 
Q 21.484375 6.890625 26.8125 6.890625 
Q 36.078125 6.890625 40.9375 10.546875 
Q 45.796875 14.203125 45.796875 21.1875 
Q 45.796875 27.640625 41.28125 31.265625 
Q 36.765625 34.90625 28.71875 34.90625 
L 20.21875 34.90625 
L 20.21875 43.015625 
L 29.109375 43.015625 
Q 36.375 43.015625 40.234375 45.921875 
Q 44.09375 48.828125 44.09375 54.296875 
Q 44.09375 59.90625 40.109375 62.90625 
Q 36.140625 65.921875 28.71875 65.921875 
Q 24.65625 65.921875 20.015625 65.03125 
Q 15.375 64.15625 9.8125 62.3125 
L 9.8125 71.09375 
Q 15.4375 72.65625 20.34375 73.4375 
Q 25.25 74.21875 29.59375 74.21875 
Q 40.828125 74.21875 47.359375 69.109375 
Q 53.90625 64.015625 53.90625 55.328125 
Q 53.90625 49.265625 50.4375 45.09375 
Q 46.96875 40.921875 40.578125 39.3125 
z
" id="DejaVuSans-51"/>
      </defs>
      <use xlink:href="#DejaVuSans-51"/>
      <use x="63.623047" xlink:href="#DejaVuSans-46"/>
      <use x="95.410156" xlink:href="#DejaVuSans-48"/>
      <use x="159.033203" xlink:href="#DejaVuSans-48"/>
      <use x="222.65625" xlink:href="#DejaVuSans-48"/>
     </g>
    </g>
   </g>
   <g id="text_27">
    <g clip-path="url(#p0fc4c4c7ff)">
     <!-- 3.500 -->
     <g style="fill:#2d718e;" transform="translate(171.186492 152.787438)rotate(-82.370471)scale(0.06 -0.06)">
      <use xlink:href="#DejaVuSans-51"/>
      <use x="63.623047" xlink:href="#DejaVuSans-46"/>
      <use x="95.410156" xlink:href="#DejaVuSans-53"/>
      <use x="159.033203" xlink:href="#DejaVuSans-48"/>
      <use x="222.65625" xlink:href="#DejaVuSans-48"/>
     </g>
    </g>
   </g>
   <g id="text_28">
    <g clip-path="url(#p0fc4c4c7ff)">
     <!-- 4.000 -->
     <g style="fill:#287d8e;" transform="translate(171.600623 162.295277)rotate(-275.936554)scale(0.06 -0.06)">
      <defs>
       <path d="M 37.796875 64.3125 
L 12.890625 25.390625 
L 37.796875 25.390625 
z
M 35.203125 72.90625 
L 47.609375 72.90625 
L 47.609375 25.390625 
L 58.015625 25.390625 
L 58.015625 17.1875 
L 47.609375 17.1875 
L 47.609375 0 
L 37.796875 0 
L 37.796875 17.1875 
L 4.890625 17.1875 
L 4.890625 26.703125 
z
" id="DejaVuSans-52"/>
      </defs>
      <use xlink:href="#DejaVuSans-52"/>
      <use x="63.623047" xlink:href="#DejaVuSans-46"/>
      <use x="95.410156" xlink:href="#DejaVuSans-48"/>
      <use x="159.033203" xlink:href="#DejaVuSans-48"/>
      <use x="222.65625" xlink:href="#DejaVuSans-48"/>
     </g>
    </g>
   </g>
   <g id="text_29">
    <g clip-path="url(#p0fc4c4c7ff)">
     <!-- 4.500 -->
     <g style="fill:#238a8d;" transform="translate(170.753409 162.422682)rotate(-278.611007)scale(0.06 -0.06)">
      <use xlink:href="#DejaVuSans-52"/>
      <use x="63.623047" xlink:href="#DejaVuSans-46"/>
      <use x="95.410156" xlink:href="#DejaVuSans-53"/>
      <use x="159.033203" xlink:href="#DejaVuSans-48"/>
      <use x="222.65625" xlink:href="#DejaVuSans-48"/>
     </g>
    </g>
   </g>
   <g id="text_30">
    <g clip-path="url(#p0fc4c4c7ff)">
     <!-- 5.000 -->
     <g style="fill:#1f968b;" transform="translate(169.548626 181.467982)rotate(-296.587409)scale(0.06 -0.06)">
      <use xlink:href="#DejaVuSans-53"/>
      <use x="63.623047" xlink:href="#DejaVuSans-46"/>
      <use x="95.410156" xlink:href="#DejaVuSans-48"/>
      <use x="159.033203" xlink:href="#DejaVuSans-48"/>
      <use x="222.65625" xlink:href="#DejaVuSans-48"/>
     </g>
    </g>
   </g>
   <g id="text_31">
    <g clip-path="url(#p0fc4c4c7ff)">
     <!-- 5.500 -->
     <g style="fill:#20a386;" transform="translate(169.547794 181.392643)rotate(-295.769045)scale(0.06 -0.06)">
      <use xlink:href="#DejaVuSans-53"/>
      <use x="63.623047" xlink:href="#DejaVuSans-46"/>
      <use x="95.410156" xlink:href="#DejaVuSans-53"/>
      <use x="159.033203" xlink:href="#DejaVuSans-48"/>
      <use x="222.65625" xlink:href="#DejaVuSans-48"/>
     </g>
    </g>
   </g>
   <g id="text_32">
    <g clip-path="url(#p0fc4c4c7ff)">
     <!-- 6.000 -->
     <g style="fill:#29af7f;" transform="translate(169.547104 181.319402)rotate(-294.958142)scale(0.06 -0.06)">
      <defs>
       <path d="M 33.015625 40.375 
Q 26.375 40.375 22.484375 35.828125 
Q 18.609375 31.296875 18.609375 23.390625 
Q 18.609375 15.53125 22.484375 10.953125 
Q 26.375 6.390625 33.015625 6.390625 
Q 39.65625 6.390625 43.53125 10.953125 
Q 47.40625 15.53125 47.40625 23.390625 
Q 47.40625 31.296875 43.53125 35.828125 
Q 39.65625 40.375 33.015625 40.375 
z
M 52.59375 71.296875 
L 52.59375 62.3125 
Q 48.875 64.0625 45.09375 64.984375 
Q 41.3125 65.921875 37.59375 65.921875 
Q 27.828125 65.921875 22.671875 59.328125 
Q 17.53125 52.734375 16.796875 39.40625 
Q 19.671875 43.65625 24.015625 45.921875 
Q 28.375 48.1875 33.59375 48.1875 
Q 44.578125 48.1875 50.953125 41.515625 
Q 57.328125 34.859375 57.328125 23.390625 
Q 57.328125 12.15625 50.6875 5.359375 
Q 44.046875 -1.421875 33.015625 -1.421875 
Q 20.359375 -1.421875 13.671875 8.265625 
Q 6.984375 17.96875 6.984375 36.375 
Q 6.984375 53.65625 15.1875 63.9375 
Q 23.390625 74.21875 37.203125 74.21875 
Q 40.921875 74.21875 44.703125 73.484375 
Q 48.484375 72.75 52.59375 71.296875 
z
" id="DejaVuSans-54"/>
      </defs>
      <use xlink:href="#DejaVuSans-54"/>
      <use x="63.623047" xlink:href="#DejaVuSans-46"/>
      <use x="95.410156" xlink:href="#DejaVuSans-48"/>
      <use x="159.033203" xlink:href="#DejaVuSans-48"/>
      <use x="222.65625" xlink:href="#DejaVuSans-48"/>
     </g>
    </g>
   </g>
   <g id="text_33">
    <g clip-path="url(#p0fc4c4c7ff)">
     <!-- 6.500 -->
     <g style="fill:#3dbc74;" transform="translate(169.54656 181.2482)rotate(-294.154288)scale(0.06 -0.06)">
      <use xlink:href="#DejaVuSans-54"/>
      <use x="63.623047" xlink:href="#DejaVuSans-46"/>
      <use x="95.410156" xlink:href="#DejaVuSans-53"/>
      <use x="159.033203" xlink:href="#DejaVuSans-48"/>
      <use x="222.65625" xlink:href="#DejaVuSans-48"/>
     </g>
    </g>
   </g>
   <g id="text_34">
    <g clip-path="url(#p0fc4c4c7ff)">
     <!-- 7.000 -->
     <g style="fill:#56c667;" transform="translate(169.546167 181.178977)rotate(-293.357083)scale(0.06 -0.06)">
      <use xlink:href="#DejaVuSans-55"/>
      <use x="63.623047" xlink:href="#DejaVuSans-46"/>
      <use x="95.410156" xlink:href="#DejaVuSans-48"/>
      <use x="159.033203" xlink:href="#DejaVuSans-48"/>
      <use x="222.65625" xlink:href="#DejaVuSans-48"/>
     </g>
    </g>
   </g>
   <g id="text_35">
    <g clip-path="url(#p0fc4c4c7ff)">
     <!-- 7.500 -->
     <g style="fill:#75d054;" transform="translate(178.199699 205.658847)rotate(-345.882651)scale(0.06 -0.06)">
      <use xlink:href="#DejaVuSans-55"/>
      <use x="63.623047" xlink:href="#DejaVuSans-46"/>
      <use x="95.410156" xlink:href="#DejaVuSans-53"/>
      <use x="159.033203" xlink:href="#DejaVuSans-48"/>
      <use x="222.65625" xlink:href="#DejaVuSans-48"/>
     </g>
    </g>
   </g>
   <g id="text_36">
    <g clip-path="url(#p0fc4c4c7ff)">
     <!-- 8.000 -->
     <g style="fill:#95d840;" transform="translate(178.062713 205.437523)rotate(-344.429373)scale(0.06 -0.06)">
      <defs>
       <path d="M 31.78125 34.625 
Q 24.75 34.625 20.71875 30.859375 
Q 16.703125 27.09375 16.703125 20.515625 
Q 16.703125 13.921875 20.71875 10.15625 
Q 24.75 6.390625 31.78125 6.390625 
Q 38.8125 6.390625 42.859375 10.171875 
Q 46.921875 13.96875 46.921875 20.515625 
Q 46.921875 27.09375 42.890625 30.859375 
Q 38.875 34.625 31.78125 34.625 
z
M 21.921875 38.8125 
Q 15.578125 40.375 12.03125 44.71875 
Q 8.5 49.078125 8.5 55.328125 
Q 8.5 64.0625 14.71875 69.140625 
Q 20.953125 74.21875 31.78125 74.21875 
Q 42.671875 74.21875 48.875 69.140625 
Q 55.078125 64.0625 55.078125 55.328125 
Q 55.078125 49.078125 51.53125 44.71875 
Q 48 40.375 41.703125 38.8125 
Q 48.828125 37.15625 52.796875 32.3125 
Q 56.78125 27.484375 56.78125 20.515625 
Q 56.78125 9.90625 50.3125 4.234375 
Q 43.84375 -1.421875 31.78125 -1.421875 
Q 19.734375 -1.421875 13.25 4.234375 
Q 6.78125 9.90625 6.78125 20.515625 
Q 6.78125 27.484375 10.78125 32.3125 
Q 14.796875 37.15625 21.921875 38.8125 
z
M 18.3125 54.390625 
Q 18.3125 48.734375 21.84375 45.5625 
Q 25.390625 42.390625 31.78125 42.390625 
Q 38.140625 42.390625 41.71875 45.5625 
Q 45.3125 48.734375 45.3125 54.390625 
Q 45.3125 60.0625 41.71875 63.234375 
Q 38.140625 66.40625 31.78125 66.40625 
Q 25.390625 66.40625 21.84375 63.234375 
Q 18.3125 60.0625 18.3125 54.390625 
z
" id="DejaVuSans-56"/>
      </defs>
      <use xlink:href="#DejaVuSans-56"/>
      <use x="63.623047" xlink:href="#DejaVuSans-46"/>
      <use x="95.410156" xlink:href="#DejaVuSans-48"/>
      <use x="159.033203" xlink:href="#DejaVuSans-48"/>
      <use x="222.65625" xlink:href="#DejaVuSans-48"/>
     </g>
    </g>
   </g>
   <g id="text_37">
    <g clip-path="url(#p0fc4c4c7ff)">
     <!-- 8.500 -->
     <g style="fill:#bade28;" transform="translate(177.929724 205.231832)rotate(-343.076064)scale(0.06 -0.06)">
      <use xlink:href="#DejaVuSans-56"/>
      <use x="63.623047" xlink:href="#DejaVuSans-46"/>
      <use x="95.410156" xlink:href="#DejaVuSans-53"/>
      <use x="159.033203" xlink:href="#DejaVuSans-48"/>
      <use x="222.65625" xlink:href="#DejaVuSans-48"/>
     </g>
    </g>
   </g>
   <g id="text_38">
    <g clip-path="url(#p0fc4c4c7ff)">
     <!-- 9.000 -->
     <g style="fill:#dde318;" transform="translate(177.800114 205.038113)rotate(-341.798453)scale(0.06 -0.06)">
      <defs>
       <path d="M 10.984375 1.515625 
L 10.984375 10.5 
Q 14.703125 8.734375 18.5 7.8125 
Q 22.3125 6.890625 25.984375 6.890625 
Q 35.75 6.890625 40.890625 13.453125 
Q 46.046875 20.015625 46.78125 33.40625 
Q 43.953125 29.203125 39.59375 26.953125 
Q 35.25 24.703125 29.984375 24.703125 
Q 19.046875 24.703125 12.671875 31.3125 
Q 6.296875 37.9375 6.296875 49.421875 
Q 6.296875 60.640625 12.9375 67.421875 
Q 19.578125 74.21875 30.609375 74.21875 
Q 43.265625 74.21875 49.921875 64.515625 
Q 56.59375 54.828125 56.59375 36.375 
Q 56.59375 19.140625 48.40625 8.859375 
Q 40.234375 -1.421875 26.421875 -1.421875 
Q 22.703125 -1.421875 18.890625 -0.6875 
Q 15.09375 0.046875 10.984375 1.515625 
z
M 30.609375 32.421875 
Q 37.25 32.421875 41.125 36.953125 
Q 45.015625 41.5 45.015625 49.421875 
Q 45.015625 57.28125 41.125 61.84375 
Q 37.25 66.40625 30.609375 66.40625 
Q 23.96875 66.40625 20.09375 61.84375 
Q 16.21875 57.28125 16.21875 49.421875 
Q 16.21875 41.5 20.09375 36.953125 
Q 23.96875 32.421875 30.609375 32.421875 
z
" id="DejaVuSans-57"/>
      </defs>
      <use xlink:href="#DejaVuSans-57"/>
      <use x="63.623047" xlink:href="#DejaVuSans-46"/>
      <use x="95.410156" xlink:href="#DejaVuSans-48"/>
      <use x="159.033203" xlink:href="#DejaVuSans-48"/>
      <use x="222.65625" xlink:href="#DejaVuSans-48"/>
     </g>
    </g>
   </g>
   <g id="text_39">
    <g clip-path="url(#p0fc4c4c7ff)">
     <!-- 9.500 -->
     <g style="fill:#fde725;" transform="translate(177.673524 204.853559)rotate(-340.577893)scale(0.06 -0.06)">
      <use xlink:href="#DejaVuSans-57"/>
      <use x="63.623047" xlink:href="#DejaVuSans-46"/>
      <use x="95.410156" xlink:href="#DejaVuSans-53"/>
      <use x="159.033203" xlink:href="#DejaVuSans-48"/>
      <use x="222.65625" xlink:href="#DejaVuSans-48"/>
     </g>
    </g>
   </g>
   <g id="text_40">
    <g clip-path="url(#p0fc4c4c7ff)">
     <!-- 10.000 -->
     <g style="fill:#440154;" transform="translate(158.318148 154.158264)rotate(-288.169121)scale(0.06 -0.06)">
      <use xlink:href="#DejaVuSans-49"/>
      <use x="63.623047" xlink:href="#DejaVuSans-48"/>
      <use x="127.246094" xlink:href="#DejaVuSans-46"/>
      <use x="159.033203" xlink:href="#DejaVuSans-48"/>
      <use x="222.65625" xlink:href="#DejaVuSans-48"/>
      <use x="286.279297" xlink:href="#DejaVuSans-48"/>
     </g>
    </g>
   </g>
   <g id="text_41">
    <g clip-path="url(#p0fc4c4c7ff)">
     <!-- 100.000 -->
     <g style="fill:#440154;" transform="translate(164.097709 124.201085)rotate(-21.170126)scale(0.06 -0.06)">
      <use xlink:href="#DejaVuSans-49"/>
      <use x="63.623047" xlink:href="#DejaVuSans-48"/>
      <use x="127.246094" xlink:href="#DejaVuSans-48"/>
      <use x="190.869141" xlink:href="#DejaVuSans-46"/>
      <use x="222.65625" xlink:href="#DejaVuSans-48"/>
      <use x="286.279297" xlink:href="#DejaVuSans-48"/>
      <use x="349.902344" xlink:href="#DejaVuSans-48"/>
     </g>
    </g>
   </g>
   <g id="text_42">
    <g clip-path="url(#p0fc4c4c7ff)">
     <!-- 1000.000 -->
     <g style="fill:#440154;" transform="translate(156.374467 203.810072)rotate(-302.341935)scale(0.06 -0.06)">
      <use xlink:href="#DejaVuSans-49"/>
      <use x="63.623047" xlink:href="#DejaVuSans-48"/>
      <use x="127.246094" xlink:href="#DejaVuSans-48"/>
      <use x="190.869141" xlink:href="#DejaVuSans-48"/>
      <use x="254.492188" xlink:href="#DejaVuSans-46"/>
      <use x="286.279297" xlink:href="#DejaVuSans-48"/>
      <use x="349.902344" xlink:href="#DejaVuSans-48"/>
      <use x="413.525391" xlink:href="#DejaVuSans-48"/>
     </g>
    </g>
   </g>
   <g id="text_43">
    <g clip-path="url(#p0fc4c4c7ff)">
     <!-- 10000.000 -->
     <g style="fill:#440154;" transform="translate(151.596213 214.638936)rotate(-309.35715)scale(0.06 -0.06)">
      <use xlink:href="#DejaVuSans-49"/>
      <use x="63.623047" xlink:href="#DejaVuSans-48"/>
      <use x="127.246094" xlink:href="#DejaVuSans-48"/>
      <use x="190.869141" xlink:href="#DejaVuSans-48"/>
      <use x="254.492188" xlink:href="#DejaVuSans-48"/>
      <use x="318.115234" xlink:href="#DejaVuSans-46"/>
      <use x="349.902344" xlink:href="#DejaVuSans-48"/>
      <use x="413.525391" xlink:href="#DejaVuSans-48"/>
      <use x="477.148438" xlink:href="#DejaVuSans-48"/>
     </g>
    </g>
   </g>
   <g id="text_44">
    <g clip-path="url(#p0fc4c4c7ff)">
     <!-- 100000.000 -->
     <g style="fill:#440154;" transform="translate(148.928512 225.640181)rotate(-316.214908)scale(0.06 -0.06)">
      <use xlink:href="#DejaVuSans-49"/>
      <use x="63.623047" xlink:href="#DejaVuSans-48"/>
      <use x="127.246094" xlink:href="#DejaVuSans-48"/>
      <use x="190.869141" xlink:href="#DejaVuSans-48"/>
      <use x="254.492188" xlink:href="#DejaVuSans-48"/>
      <use x="318.115234" xlink:href="#DejaVuSans-48"/>
      <use x="381.738281" xlink:href="#DejaVuSans-46"/>
      <use x="413.525391" xlink:href="#DejaVuSans-48"/>
      <use x="477.148438" xlink:href="#DejaVuSans-48"/>
      <use x="540.771484" xlink:href="#DejaVuSans-48"/>
     </g>
    </g>
   </g>
   <g id="text_45">
    <g clip-path="url(#p0fc4c4c7ff)">
     <!-- 1000000.000 -->
     <g style="fill:#450457;" transform="translate(125.567001 199.528691)rotate(-304.898326)scale(0.06 -0.06)">
      <use xlink:href="#DejaVuSans-49"/>
      <use x="63.623047" xlink:href="#DejaVuSans-48"/>
      <use x="127.246094" xlink:href="#DejaVuSans-48"/>
      <use x="190.869141" xlink:href="#DejaVuSans-48"/>
      <use x="254.492188" xlink:href="#DejaVuSans-48"/>
      <use x="318.115234" xlink:href="#DejaVuSans-48"/>
      <use x="381.738281" xlink:href="#DejaVuSans-48"/>
      <use x="445.361328" xlink:href="#DejaVuSans-46"/>
      <use x="477.148438" xlink:href="#DejaVuSans-48"/>
      <use x="540.771484" xlink:href="#DejaVuSans-48"/>
      <use x="604.394531" xlink:href="#DejaVuSans-48"/>
     </g>
    </g>
   </g>
   <g id="text_46">
    <g clip-path="url(#p0fc4c4c7ff)">
     <!-- 10000000.000 -->
     <g style="fill:#482475;" transform="translate(108.131399 172.818125)rotate(-285.377977)scale(0.06 -0.06)">
      <use xlink:href="#DejaVuSans-49"/>
      <use x="63.623047" xlink:href="#DejaVuSans-48"/>
      <use x="127.246094" xlink:href="#DejaVuSans-48"/>
      <use x="190.869141" xlink:href="#DejaVuSans-48"/>
      <use x="254.492188" xlink:href="#DejaVuSans-48"/>
      <use x="318.115234" xlink:href="#DejaVuSans-48"/>
      <use x="381.738281" xlink:href="#DejaVuSans-48"/>
      <use x="445.361328" xlink:href="#DejaVuSans-48"/>
      <use x="508.984375" xlink:href="#DejaVuSans-46"/>
      <use x="540.771484" xlink:href="#DejaVuSans-48"/>
      <use x="604.394531" xlink:href="#DejaVuSans-48"/>
      <use x="668.017578" xlink:href="#DejaVuSans-48"/>
     </g>
    </g>
   </g>
   <g id="text_47">
    <g clip-path="url(#p0fc4c4c7ff)">
     <!-- 100000000.000 -->
     <g style="fill:#fde725;" transform="translate(108.366199 132.393606)rotate(-68.553847)scale(0.06 -0.06)">
      <use xlink:href="#DejaVuSans-49"/>
      <use x="63.623047" xlink:href="#DejaVuSans-48"/>
      <use x="127.246094" xlink:href="#DejaVuSans-48"/>
      <use x="190.869141" xlink:href="#DejaVuSans-48"/>
      <use x="254.492188" xlink:href="#DejaVuSans-48"/>
      <use x="318.115234" xlink:href="#DejaVuSans-48"/>
      <use x="381.738281" xlink:href="#DejaVuSans-48"/>
      <use x="445.361328" xlink:href="#DejaVuSans-48"/>
      <use x="508.984375" xlink:href="#DejaVuSans-48"/>
      <use x="572.607422" xlink:href="#DejaVuSans-46"/>
      <use x="604.394531" xlink:href="#DejaVuSans-48"/>
      <use x="668.017578" xlink:href="#DejaVuSans-48"/>
      <use x="731.640625" xlink:href="#DejaVuSans-48"/>
     </g>
    </g>
   </g>
  </g>
 </g>
 <defs>
  <clipPath id="p0fc4c4c7ff">
   <rect height="266.112" width="357.12" x="56.028488" y="10.999219"/>
  </clipPath>
 </defs>
</svg>
