<?xml version="1.0" encoding="utf-8" standalone="no"?>
<!DOCTYPE svg PUBLIC "-//W3C//DTD SVG 1.1//EN"
  "http://www.w3.org/Graphics/SVG/1.1/DTD/svg11.dtd">
<!-- Created with matplotlib (https://matplotlib.org/) -->
<svg height="317.913925pt" version="1.1" viewBox="0 0 413.985987 317.913925" width="413.985987pt" xmlns="http://www.w3.org/2000/svg" xmlns:xlink="http://www.w3.org/1999/xlink">
 <metadata>
  <rdf:RDF xmlns:cc="http://creativecommons.org/ns#" xmlns:dc="http://purl.org/dc/elements/1.1/" xmlns:rdf="http://www.w3.org/1999/02/22-rdf-syntax-ns#">
   <cc:Work>
    <dc:type rdf:resource="http://purl.org/dc/dcmitype/StillImage"/>
    <dc:date>2021-09-18T02:16:56.030727</dc:date>
    <dc:format>image/svg+xml</dc:format>
    <dc:creator>
     <cc:Agent>
      <dc:title>Matplotlib v3.3.1, https://matplotlib.org/</dc:title>
     </cc:Agent>
    </dc:creator>
   </cc:Work>
  </rdf:RDF>
 </metadata>
 <defs>
  <style type="text/css">*{stroke-linecap:butt;stroke-linejoin:round;}</style>
 </defs>
 <g id="figure_1">
  <g id="patch_1">
   <path d="M 0 317.913925 
L 413.985987 317.913925 
L 413.985987 0 
L 0 0 
z
" style="fill:#ffffff;"/>
  </g>
  <g id="axes_1">
   <g id="patch_2">
    <path d="M 49.665988 273.312 
L 406.785988 273.312 
L 406.785988 7.2 
L 49.665988 7.2 
z
" style="fill:#ffffff;"/>
   </g>
   <g id="matplotlib.axis_1">
    <g id="xtick_1">
     <g id="line2d_1">
      <defs>
       <path d="M 0 0 
L 0 3.5 
" id="maf601de602" style="stroke:#000000;stroke-width:0.8;"/>
      </defs>
      <g>
       <use style="stroke:#000000;stroke-width:0.8;" x="64.146175" xlink:href="#maf601de602" y="273.312"/>
      </g>
     </g>
     <g id="text_1">
      <!-- 0 -->
      <g transform="translate(60.964925 287.910437)scale(0.1 -0.1)">
       <defs>
        <path d="M 31.78125 66.40625 
Q 24.171875 66.40625 20.328125 58.90625 
Q 16.5 51.421875 16.5 36.375 
Q 16.5 21.390625 20.328125 13.890625 
Q 24.171875 6.390625 31.78125 6.390625 
Q 39.453125 6.390625 43.28125 13.890625 
Q 47.125 21.390625 47.125 36.375 
Q 47.125 51.421875 43.28125 58.90625 
Q 39.453125 66.40625 31.78125 66.40625 
z
M 31.78125 74.21875 
Q 44.046875 74.21875 50.515625 64.515625 
Q 56.984375 54.828125 56.984375 36.375 
Q 56.984375 17.96875 50.515625 8.265625 
Q 44.046875 -1.421875 31.78125 -1.421875 
Q 19.53125 -1.421875 13.0625 8.265625 
Q 6.59375 17.96875 6.59375 36.375 
Q 6.59375 54.828125 13.0625 64.515625 
Q 19.53125 74.21875 31.78125 74.21875 
z
" id="DejaVuSans-48"/>
       </defs>
       <use xlink:href="#DejaVuSans-48"/>
      </g>
     </g>
    </g>
    <g id="xtick_2">
     <g id="line2d_2">
      <g>
       <use style="stroke:#000000;stroke-width:0.8;" x="122.066927" xlink:href="#maf601de602" y="273.312"/>
      </g>
     </g>
     <g id="text_2">
      <!-- 20 -->
      <g transform="translate(115.704427 287.910437)scale(0.1 -0.1)">
       <defs>
        <path d="M 19.1875 8.296875 
L 53.609375 8.296875 
L 53.609375 0 
L 7.328125 0 
L 7.328125 8.296875 
Q 12.9375 14.109375 22.625 23.890625 
Q 32.328125 33.6875 34.8125 36.53125 
Q 39.546875 41.84375 41.421875 45.53125 
Q 43.3125 49.21875 43.3125 52.78125 
Q 43.3125 58.59375 39.234375 62.25 
Q 35.15625 65.921875 28.609375 65.921875 
Q 23.96875 65.921875 18.8125 64.3125 
Q 13.671875 62.703125 7.8125 59.421875 
L 7.8125 69.390625 
Q 13.765625 71.78125 18.9375 73 
Q 24.125 74.21875 28.421875 74.21875 
Q 39.75 74.21875 46.484375 68.546875 
Q 53.21875 62.890625 53.21875 53.421875 
Q 53.21875 48.921875 51.53125 44.890625 
Q 49.859375 40.875 45.40625 35.40625 
Q 44.1875 33.984375 37.640625 27.21875 
Q 31.109375 20.453125 19.1875 8.296875 
z
" id="DejaVuSans-50"/>
       </defs>
       <use xlink:href="#DejaVuSans-50"/>
       <use x="63.623047" xlink:href="#DejaVuSans-48"/>
      </g>
     </g>
    </g>
    <g id="xtick_3">
     <g id="line2d_3">
      <g>
       <use style="stroke:#000000;stroke-width:0.8;" x="179.987679" xlink:href="#maf601de602" y="273.312"/>
      </g>
     </g>
     <g id="text_3">
      <!-- 40 -->
      <g transform="translate(173.625179 287.910437)scale(0.1 -0.1)">
       <defs>
        <path d="M 37.796875 64.3125 
L 12.890625 25.390625 
L 37.796875 25.390625 
z
M 35.203125 72.90625 
L 47.609375 72.90625 
L 47.609375 25.390625 
L 58.015625 25.390625 
L 58.015625 17.1875 
L 47.609375 17.1875 
L 47.609375 0 
L 37.796875 0 
L 37.796875 17.1875 
L 4.890625 17.1875 
L 4.890625 26.703125 
z
" id="DejaVuSans-52"/>
       </defs>
       <use xlink:href="#DejaVuSans-52"/>
       <use x="63.623047" xlink:href="#DejaVuSans-48"/>
      </g>
     </g>
    </g>
    <g id="xtick_4">
     <g id="line2d_4">
      <g>
       <use style="stroke:#000000;stroke-width:0.8;" x="237.908431" xlink:href="#maf601de602" y="273.312"/>
      </g>
     </g>
     <g id="text_4">
      <!-- 60 -->
      <g transform="translate(231.545931 287.910437)scale(0.1 -0.1)">
       <defs>
        <path d="M 33.015625 40.375 
Q 26.375 40.375 22.484375 35.828125 
Q 18.609375 31.296875 18.609375 23.390625 
Q 18.609375 15.53125 22.484375 10.953125 
Q 26.375 6.390625 33.015625 6.390625 
Q 39.65625 6.390625 43.53125 10.953125 
Q 47.40625 15.53125 47.40625 23.390625 
Q 47.40625 31.296875 43.53125 35.828125 
Q 39.65625 40.375 33.015625 40.375 
z
M 52.59375 71.296875 
L 52.59375 62.3125 
Q 48.875 64.0625 45.09375 64.984375 
Q 41.3125 65.921875 37.59375 65.921875 
Q 27.828125 65.921875 22.671875 59.328125 
Q 17.53125 52.734375 16.796875 39.40625 
Q 19.671875 43.65625 24.015625 45.921875 
Q 28.375 48.1875 33.59375 48.1875 
Q 44.578125 48.1875 50.953125 41.515625 
Q 57.328125 34.859375 57.328125 23.390625 
Q 57.328125 12.15625 50.6875 5.359375 
Q 44.046875 -1.421875 33.015625 -1.421875 
Q 20.359375 -1.421875 13.671875 8.265625 
Q 6.984375 17.96875 6.984375 36.375 
Q 6.984375 53.65625 15.1875 63.9375 
Q 23.390625 74.21875 37.203125 74.21875 
Q 40.921875 74.21875 44.703125 73.484375 
Q 48.484375 72.75 52.59375 71.296875 
z
" id="DejaVuSans-54"/>
       </defs>
       <use xlink:href="#DejaVuSans-54"/>
       <use x="63.623047" xlink:href="#DejaVuSans-48"/>
      </g>
     </g>
    </g>
    <g id="xtick_5">
     <g id="line2d_5">
      <g>
       <use style="stroke:#000000;stroke-width:0.8;" x="295.829183" xlink:href="#maf601de602" y="273.312"/>
      </g>
     </g>
     <g id="text_5">
      <!-- 80 -->
      <g transform="translate(289.466683 287.910437)scale(0.1 -0.1)">
       <defs>
        <path d="M 31.78125 34.625 
Q 24.75 34.625 20.71875 30.859375 
Q 16.703125 27.09375 16.703125 20.515625 
Q 16.703125 13.921875 20.71875 10.15625 
Q 24.75 6.390625 31.78125 6.390625 
Q 38.8125 6.390625 42.859375 10.171875 
Q 46.921875 13.96875 46.921875 20.515625 
Q 46.921875 27.09375 42.890625 30.859375 
Q 38.875 34.625 31.78125 34.625 
z
M 21.921875 38.8125 
Q 15.578125 40.375 12.03125 44.71875 
Q 8.5 49.078125 8.5 55.328125 
Q 8.5 64.0625 14.71875 69.140625 
Q 20.953125 74.21875 31.78125 74.21875 
Q 42.671875 74.21875 48.875 69.140625 
Q 55.078125 64.0625 55.078125 55.328125 
Q 55.078125 49.078125 51.53125 44.71875 
Q 48 40.375 41.703125 38.8125 
Q 48.828125 37.15625 52.796875 32.3125 
Q 56.78125 27.484375 56.78125 20.515625 
Q 56.78125 9.90625 50.3125 4.234375 
Q 43.84375 -1.421875 31.78125 -1.421875 
Q 19.734375 -1.421875 13.25 4.234375 
Q 6.78125 9.90625 6.78125 20.515625 
Q 6.78125 27.484375 10.78125 32.3125 
Q 14.796875 37.15625 21.921875 38.8125 
z
M 18.3125 54.390625 
Q 18.3125 48.734375 21.84375 45.5625 
Q 25.390625 42.390625 31.78125 42.390625 
Q 38.140625 42.390625 41.71875 45.5625 
Q 45.3125 48.734375 45.3125 54.390625 
Q 45.3125 60.0625 41.71875 63.234375 
Q 38.140625 66.40625 31.78125 66.40625 
Q 25.390625 66.40625 21.84375 63.234375 
Q 18.3125 60.0625 18.3125 54.390625 
z
" id="DejaVuSans-56"/>
       </defs>
       <use xlink:href="#DejaVuSans-56"/>
       <use x="63.623047" xlink:href="#DejaVuSans-48"/>
      </g>
     </g>
    </g>
    <g id="xtick_6">
     <g id="line2d_6">
      <g>
       <use style="stroke:#000000;stroke-width:0.8;" x="353.749935" xlink:href="#maf601de602" y="273.312"/>
      </g>
     </g>
     <g id="text_6">
      <!-- 100 -->
      <g transform="translate(344.206185 287.910437)scale(0.1 -0.1)">
       <defs>
        <path d="M 12.40625 8.296875 
L 28.515625 8.296875 
L 28.515625 63.921875 
L 10.984375 60.40625 
L 10.984375 69.390625 
L 28.421875 72.90625 
L 38.28125 72.90625 
L 38.28125 8.296875 
L 54.390625 8.296875 
L 54.390625 0 
L 12.40625 0 
z
" id="DejaVuSans-49"/>
       </defs>
       <use xlink:href="#DejaVuSans-49"/>
       <use x="63.623047" xlink:href="#DejaVuSans-48"/>
       <use x="127.246094" xlink:href="#DejaVuSans-48"/>
      </g>
     </g>
    </g>
    <g id="text_7">
     <!-- 1st PC: 98.29 % -->
     <g transform="translate(159.505587 307.120225)scale(0.1728 -0.1728)">
      <defs>
       <path d="M 44.28125 53.078125 
L 44.28125 44.578125 
Q 40.484375 46.53125 36.375 47.5 
Q 32.28125 48.484375 27.875 48.484375 
Q 21.1875 48.484375 17.84375 46.4375 
Q 14.5 44.390625 14.5 40.28125 
Q 14.5 37.15625 16.890625 35.375 
Q 19.28125 33.59375 26.515625 31.984375 
L 29.59375 31.296875 
Q 39.15625 29.25 43.1875 25.515625 
Q 47.21875 21.78125 47.21875 15.09375 
Q 47.21875 7.46875 41.1875 3.015625 
Q 35.15625 -1.421875 24.609375 -1.421875 
Q 20.21875 -1.421875 15.453125 -0.5625 
Q 10.6875 0.296875 5.421875 2 
L 5.421875 11.28125 
Q 10.40625 8.6875 15.234375 7.390625 
Q 20.0625 6.109375 24.8125 6.109375 
Q 31.15625 6.109375 34.5625 8.28125 
Q 37.984375 10.453125 37.984375 14.40625 
Q 37.984375 18.0625 35.515625 20.015625 
Q 33.0625 21.96875 24.703125 23.78125 
L 21.578125 24.515625 
Q 13.234375 26.265625 9.515625 29.90625 
Q 5.8125 33.546875 5.8125 39.890625 
Q 5.8125 47.609375 11.28125 51.796875 
Q 16.75 56 26.8125 56 
Q 31.78125 56 36.171875 55.265625 
Q 40.578125 54.546875 44.28125 53.078125 
z
" id="DejaVuSans-115"/>
       <path d="M 18.3125 70.21875 
L 18.3125 54.6875 
L 36.8125 54.6875 
L 36.8125 47.703125 
L 18.3125 47.703125 
L 18.3125 18.015625 
Q 18.3125 11.328125 20.140625 9.421875 
Q 21.96875 7.515625 27.59375 7.515625 
L 36.8125 7.515625 
L 36.8125 0 
L 27.59375 0 
Q 17.1875 0 13.234375 3.875 
Q 9.28125 7.765625 9.28125 18.015625 
L 9.28125 47.703125 
L 2.6875 47.703125 
L 2.6875 54.6875 
L 9.28125 54.6875 
L 9.28125 70.21875 
z
" id="DejaVuSans-116"/>
       <path id="DejaVuSans-32"/>
       <path d="M 19.671875 64.796875 
L 19.671875 37.40625 
L 32.078125 37.40625 
Q 38.96875 37.40625 42.71875 40.96875 
Q 46.484375 44.53125 46.484375 51.125 
Q 46.484375 57.671875 42.71875 61.234375 
Q 38.96875 64.796875 32.078125 64.796875 
z
M 9.8125 72.90625 
L 32.078125 72.90625 
Q 44.34375 72.90625 50.609375 67.359375 
Q 56.890625 61.8125 56.890625 51.125 
Q 56.890625 40.328125 50.609375 34.8125 
Q 44.34375 29.296875 32.078125 29.296875 
L 19.671875 29.296875 
L 19.671875 0 
L 9.8125 0 
z
" id="DejaVuSans-80"/>
       <path d="M 64.40625 67.28125 
L 64.40625 56.890625 
Q 59.421875 61.53125 53.78125 63.8125 
Q 48.140625 66.109375 41.796875 66.109375 
Q 29.296875 66.109375 22.65625 58.46875 
Q 16.015625 50.828125 16.015625 36.375 
Q 16.015625 21.96875 22.65625 14.328125 
Q 29.296875 6.6875 41.796875 6.6875 
Q 48.140625 6.6875 53.78125 8.984375 
Q 59.421875 11.28125 64.40625 15.921875 
L 64.40625 5.609375 
Q 59.234375 2.09375 53.4375 0.328125 
Q 47.65625 -1.421875 41.21875 -1.421875 
Q 24.65625 -1.421875 15.125 8.703125 
Q 5.609375 18.84375 5.609375 36.375 
Q 5.609375 53.953125 15.125 64.078125 
Q 24.65625 74.21875 41.21875 74.21875 
Q 47.75 74.21875 53.53125 72.484375 
Q 59.328125 70.75 64.40625 67.28125 
z
" id="DejaVuSans-67"/>
       <path d="M 11.71875 12.40625 
L 22.015625 12.40625 
L 22.015625 0 
L 11.71875 0 
z
M 11.71875 51.703125 
L 22.015625 51.703125 
L 22.015625 39.3125 
L 11.71875 39.3125 
z
" id="DejaVuSans-58"/>
       <path d="M 10.984375 1.515625 
L 10.984375 10.5 
Q 14.703125 8.734375 18.5 7.8125 
Q 22.3125 6.890625 25.984375 6.890625 
Q 35.75 6.890625 40.890625 13.453125 
Q 46.046875 20.015625 46.78125 33.40625 
Q 43.953125 29.203125 39.59375 26.953125 
Q 35.25 24.703125 29.984375 24.703125 
Q 19.046875 24.703125 12.671875 31.3125 
Q 6.296875 37.9375 6.296875 49.421875 
Q 6.296875 60.640625 12.9375 67.421875 
Q 19.578125 74.21875 30.609375 74.21875 
Q 43.265625 74.21875 49.921875 64.515625 
Q 56.59375 54.828125 56.59375 36.375 
Q 56.59375 19.140625 48.40625 8.859375 
Q 40.234375 -1.421875 26.421875 -1.421875 
Q 22.703125 -1.421875 18.890625 -0.6875 
Q 15.09375 0.046875 10.984375 1.515625 
z
M 30.609375 32.421875 
Q 37.25 32.421875 41.125 36.953125 
Q 45.015625 41.5 45.015625 49.421875 
Q 45.015625 57.28125 41.125 61.84375 
Q 37.25 66.40625 30.609375 66.40625 
Q 23.96875 66.40625 20.09375 61.84375 
Q 16.21875 57.28125 16.21875 49.421875 
Q 16.21875 41.5 20.09375 36.953125 
Q 23.96875 32.421875 30.609375 32.421875 
z
" id="DejaVuSans-57"/>
       <path d="M 10.6875 12.40625 
L 21 12.40625 
L 21 0 
L 10.6875 0 
z
" id="DejaVuSans-46"/>
       <path d="M 72.703125 32.078125 
Q 68.453125 32.078125 66.03125 28.46875 
Q 63.625 24.859375 63.625 18.40625 
Q 63.625 12.0625 66.03125 8.421875 
Q 68.453125 4.78125 72.703125 4.78125 
Q 76.859375 4.78125 79.265625 8.421875 
Q 81.6875 12.0625 81.6875 18.40625 
Q 81.6875 24.8125 79.265625 28.4375 
Q 76.859375 32.078125 72.703125 32.078125 
z
M 72.703125 38.28125 
Q 80.421875 38.28125 84.953125 32.90625 
Q 89.5 27.546875 89.5 18.40625 
Q 89.5 9.28125 84.9375 3.921875 
Q 80.375 -1.421875 72.703125 -1.421875 
Q 64.890625 -1.421875 60.34375 3.921875 
Q 55.8125 9.28125 55.8125 18.40625 
Q 55.8125 27.59375 60.375 32.9375 
Q 64.9375 38.28125 72.703125 38.28125 
z
M 22.3125 68.015625 
Q 18.109375 68.015625 15.6875 64.375 
Q 13.28125 60.75 13.28125 54.390625 
Q 13.28125 47.953125 15.671875 44.328125 
Q 18.0625 40.71875 22.3125 40.71875 
Q 26.5625 40.71875 28.96875 44.328125 
Q 31.390625 47.953125 31.390625 54.390625 
Q 31.390625 60.6875 28.953125 64.34375 
Q 26.515625 68.015625 22.3125 68.015625 
z
M 66.40625 74.21875 
L 74.21875 74.21875 
L 28.609375 -1.421875 
L 20.796875 -1.421875 
z
M 22.3125 74.21875 
Q 30.03125 74.21875 34.609375 68.875 
Q 39.203125 63.53125 39.203125 54.390625 
Q 39.203125 45.171875 34.640625 39.84375 
Q 30.078125 34.515625 22.3125 34.515625 
Q 14.546875 34.515625 10.03125 39.859375 
Q 5.515625 45.21875 5.515625 54.390625 
Q 5.515625 63.484375 10.046875 68.84375 
Q 14.59375 74.21875 22.3125 74.21875 
z
" id="DejaVuSans-37"/>
      </defs>
      <use xlink:href="#DejaVuSans-49"/>
      <use x="63.623047" xlink:href="#DejaVuSans-115"/>
      <use x="115.722656" xlink:href="#DejaVuSans-116"/>
      <use x="154.931641" xlink:href="#DejaVuSans-32"/>
      <use x="186.71875" xlink:href="#DejaVuSans-80"/>
      <use x="247.021484" xlink:href="#DejaVuSans-67"/>
      <use x="316.845703" xlink:href="#DejaVuSans-58"/>
      <use x="350.537109" xlink:href="#DejaVuSans-32"/>
      <use x="382.324219" xlink:href="#DejaVuSans-57"/>
      <use x="445.947266" xlink:href="#DejaVuSans-56"/>
      <use x="509.570312" xlink:href="#DejaVuSans-46"/>
      <use x="541.357422" xlink:href="#DejaVuSans-50"/>
      <use x="604.980469" xlink:href="#DejaVuSans-57"/>
      <use x="668.603516" xlink:href="#DejaVuSans-32"/>
      <use x="700.390625" xlink:href="#DejaVuSans-37"/>
     </g>
    </g>
   </g>
   <g id="matplotlib.axis_2">
    <g id="ytick_1">
     <g id="line2d_7">
      <defs>
       <path d="M 0 0 
L -3.5 0 
" id="mb03a220aae" style="stroke:#000000;stroke-width:0.8;"/>
      </defs>
      <g>
       <use style="stroke:#000000;stroke-width:0.8;" x="49.665988" xlink:href="#mb03a220aae" y="271.016403"/>
      </g>
     </g>
     <g id="text_8">
      <!-- −8 -->
      <g transform="translate(27.9238 274.815622)scale(0.1 -0.1)">
       <defs>
        <path d="M 10.59375 35.5 
L 73.1875 35.5 
L 73.1875 27.203125 
L 10.59375 27.203125 
z
" id="DejaVuSans-8722"/>
       </defs>
       <use xlink:href="#DejaVuSans-8722"/>
       <use x="83.789062" xlink:href="#DejaVuSans-56"/>
      </g>
     </g>
    </g>
    <g id="ytick_2">
     <g id="line2d_8">
      <g>
       <use style="stroke:#000000;stroke-width:0.8;" x="49.665988" xlink:href="#mb03a220aae" y="231.02832"/>
      </g>
     </g>
     <g id="text_9">
      <!-- −6 -->
      <g transform="translate(27.9238 234.827538)scale(0.1 -0.1)">
       <use xlink:href="#DejaVuSans-8722"/>
       <use x="83.789062" xlink:href="#DejaVuSans-54"/>
      </g>
     </g>
    </g>
    <g id="ytick_3">
     <g id="line2d_9">
      <g>
       <use style="stroke:#000000;stroke-width:0.8;" x="49.665988" xlink:href="#mb03a220aae" y="191.040236"/>
      </g>
     </g>
     <g id="text_10">
      <!-- −4 -->
      <g transform="translate(27.9238 194.839455)scale(0.1 -0.1)">
       <use xlink:href="#DejaVuSans-8722"/>
       <use x="83.789062" xlink:href="#DejaVuSans-52"/>
      </g>
     </g>
    </g>
    <g id="ytick_4">
     <g id="line2d_10">
      <g>
       <use style="stroke:#000000;stroke-width:0.8;" x="49.665988" xlink:href="#mb03a220aae" y="151.052153"/>
      </g>
     </g>
     <g id="text_11">
      <!-- −2 -->
      <g transform="translate(27.9238 154.851371)scale(0.1 -0.1)">
       <use xlink:href="#DejaVuSans-8722"/>
       <use x="83.789062" xlink:href="#DejaVuSans-50"/>
      </g>
     </g>
    </g>
    <g id="ytick_5">
     <g id="line2d_11">
      <g>
       <use style="stroke:#000000;stroke-width:0.8;" x="49.665988" xlink:href="#mb03a220aae" y="111.064069"/>
      </g>
     </g>
     <g id="text_12">
      <!-- 0 -->
      <g transform="translate(36.303488 114.863288)scale(0.1 -0.1)">
       <use xlink:href="#DejaVuSans-48"/>
      </g>
     </g>
    </g>
    <g id="ytick_6">
     <g id="line2d_12">
      <g>
       <use style="stroke:#000000;stroke-width:0.8;" x="49.665988" xlink:href="#mb03a220aae" y="71.075985"/>
      </g>
     </g>
     <g id="text_13">
      <!-- 2 -->
      <g transform="translate(36.303488 74.875204)scale(0.1 -0.1)">
       <use xlink:href="#DejaVuSans-50"/>
      </g>
     </g>
    </g>
    <g id="ytick_7">
     <g id="line2d_13">
      <g>
       <use style="stroke:#000000;stroke-width:0.8;" x="49.665988" xlink:href="#mb03a220aae" y="31.087902"/>
      </g>
     </g>
     <g id="text_14">
      <!-- 4 -->
      <g transform="translate(36.303488 34.887121)scale(0.1 -0.1)">
       <use xlink:href="#DejaVuSans-52"/>
      </g>
     </g>
    </g>
    <g id="text_15">
     <!-- 2nd PC: 0.80 % -->
     <g transform="translate(20.3301 206.5518)rotate(-90)scale(0.1728 -0.1728)">
      <defs>
       <path d="M 54.890625 33.015625 
L 54.890625 0 
L 45.90625 0 
L 45.90625 32.71875 
Q 45.90625 40.484375 42.875 44.328125 
Q 39.84375 48.1875 33.796875 48.1875 
Q 26.515625 48.1875 22.3125 43.546875 
Q 18.109375 38.921875 18.109375 30.90625 
L 18.109375 0 
L 9.078125 0 
L 9.078125 54.6875 
L 18.109375 54.6875 
L 18.109375 46.1875 
Q 21.34375 51.125 25.703125 53.5625 
Q 30.078125 56 35.796875 56 
Q 45.21875 56 50.046875 50.171875 
Q 54.890625 44.34375 54.890625 33.015625 
z
" id="DejaVuSans-110"/>
       <path d="M 45.40625 46.390625 
L 45.40625 75.984375 
L 54.390625 75.984375 
L 54.390625 0 
L 45.40625 0 
L 45.40625 8.203125 
Q 42.578125 3.328125 38.25 0.953125 
Q 33.9375 -1.421875 27.875 -1.421875 
Q 17.96875 -1.421875 11.734375 6.484375 
Q 5.515625 14.40625 5.515625 27.296875 
Q 5.515625 40.1875 11.734375 48.09375 
Q 17.96875 56 27.875 56 
Q 33.9375 56 38.25 53.625 
Q 42.578125 51.265625 45.40625 46.390625 
z
M 14.796875 27.296875 
Q 14.796875 17.390625 18.875 11.75 
Q 22.953125 6.109375 30.078125 6.109375 
Q 37.203125 6.109375 41.296875 11.75 
Q 45.40625 17.390625 45.40625 27.296875 
Q 45.40625 37.203125 41.296875 42.84375 
Q 37.203125 48.484375 30.078125 48.484375 
Q 22.953125 48.484375 18.875 42.84375 
Q 14.796875 37.203125 14.796875 27.296875 
z
" id="DejaVuSans-100"/>
      </defs>
      <use xlink:href="#DejaVuSans-50"/>
      <use x="63.623047" xlink:href="#DejaVuSans-110"/>
      <use x="127.001953" xlink:href="#DejaVuSans-100"/>
      <use x="190.478516" xlink:href="#DejaVuSans-32"/>
      <use x="222.265625" xlink:href="#DejaVuSans-80"/>
      <use x="282.568359" xlink:href="#DejaVuSans-67"/>
      <use x="352.392578" xlink:href="#DejaVuSans-58"/>
      <use x="386.083984" xlink:href="#DejaVuSans-32"/>
      <use x="417.871094" xlink:href="#DejaVuSans-48"/>
      <use x="481.494141" xlink:href="#DejaVuSans-46"/>
      <use x="513.28125" xlink:href="#DejaVuSans-56"/>
      <use x="576.904297" xlink:href="#DejaVuSans-48"/>
      <use x="640.527344" xlink:href="#DejaVuSans-32"/>
      <use x="672.314453" xlink:href="#DejaVuSans-37"/>
     </g>
    </g>
   </g>
   <g id="LineCollection_1"/>
   <g id="LineCollection_2"/>
   <g id="LineCollection_3"/>
   <g id="LineCollection_4">
    <path clip-path="url(#p36eb0410d9)" d="M 55.449683 231.02832 
L 55.449995 225.696575 
L 55.454054 220.364831 
L 55.458063 217.441556 
L 55.461976 215.033086 
L 55.473556 209.701342 
L 55.48731 204.369597 
L 55.503024 199.037853 
L 55.520357 193.706108 
L 55.53902 188.374364 
L 55.55914 183.042619 
L 55.57147 179.949096 
" style="fill:none;stroke:#453781;stroke-width:1.5;"/>
    <path clip-path="url(#p36eb0410d9)" d="M 55.635964 164.80965 
L 55.649952 161.715642 
L 55.675015 156.383897 
L 55.700957 151.052153 
L 55.727898 145.720408 
L 55.755758 140.388664 
L 55.784517 135.056919 
L 55.814387 129.725175 
L 55.845722 124.39343 
L 55.878971 119.061686 
L 55.914788 113.729941 
L 55.953746 108.398197 
L 55.996508 103.066452 
L 56.04384 97.734708 
L 56.096768 92.402963 
L 56.156015 87.071219 
L 56.222523 81.739474 
L 56.297775 76.40773 
L 56.383449 71.075985 
" style="fill:none;stroke:#453781;stroke-width:1.5;"/>
    <path clip-path="url(#p36eb0410d9)" d="M 62.082522 71.075985 
L 62.215484 73.520792 
L 62.332605 76.40773 
L 62.530057 81.739474 
L 62.712217 87.071219 
L 62.878559 92.402963 
L 63.03206 97.734708 
L 63.177663 103.066452 
L 63.18083 103.185341 
L 63.290599 108.398197 
L 63.403661 113.729941 
L 63.475681 116.921081 
" style="fill:none;stroke:#453781;stroke-width:1.5;"/>
    <path clip-path="url(#p36eb0410d9)" d="M 63.79047 131.886439 
L 63.847806 135.056919 
L 63.928884 140.388664 
L 63.992398 145.720408 
L 64.03661 151.052153 
L 64.06059 156.383897 
L 64.063452 161.715642 
L 64.045004 167.047386 
L 64.004982 172.37913 
L 63.943861 177.710875 
L 63.862023 183.042619 
L 63.760846 188.374364 
L 63.642164 193.706108 
L 63.507672 199.037853 
L 63.358624 204.369597 
L 63.197329 209.701342 
L 63.18083 210.202861 
L 62.985237 215.033086 
L 62.760861 220.364831 
L 62.531032 225.696575 
L 62.297525 231.02832 
" style="fill:none;stroke:#453781;stroke-width:1.5;"/>
   </g>
   <g id="LineCollection_5">
    <path clip-path="url(#p36eb0410d9)" d="M 66.281898 71.075985 
L 66.647666 76.40773 
L 66.986171 81.739474 
L 67.042213 82.769678 
L 67.280171 87.071219 
L 67.548004 92.402963 
L 67.790989 97.734708 
L 68.006971 103.066452 
L 68.007559 103.08322 
L 68.200859 108.398197 
L 68.378815 113.729941 
L 68.477396 116.980295 
" style="fill:none;stroke:#404688;stroke-width:1.5;"/>
    <path clip-path="url(#p36eb0410d9)" d="M 68.863801 131.851502 
L 68.93369 135.056919 
L 68.972905 137.11043 
L 69.036602 140.388664 
L 69.12246 145.720408 
L 69.190567 151.052153 
L 69.240197 156.383897 
L 69.270807 161.715642 
L 69.281956 167.047386 
L 69.272826 172.37913 
L 69.243944 177.710875 
L 69.194656 183.042619 
L 69.125561 188.374364 
L 69.037014 193.706108 
L 68.972905 196.890936 
L 68.926676 199.037853 
L 68.790654 204.369597 
L 68.636584 209.701342 
L 68.466397 215.033086 
L 68.283017 220.364831 
L 68.089617 225.696575 
L 68.007559 227.820596 
L 67.871471 231.02832 
" style="fill:none;stroke:#404688;stroke-width:1.5;"/>
   </g>
   <g id="LineCollection_6">
    <path clip-path="url(#p36eb0410d9)" d="M 68.755312 71.075985 
L 68.972905 73.187629 
L 69.252931 76.40773 
L 69.728759 81.739474 
L 69.938251 84.066795 
L 70.15085 87.071219 
L 70.561097 92.402963 
L 70.903597 96.375756 
L 70.99458 97.734708 
L 71.34909 103.066452 
L 71.622131 106.802854 
" style="fill:none;stroke:#39558c;stroke-width:1.5;"/>
    <path clip-path="url(#p36eb0410d9)" d="M 72.340789 120.941683 
L 72.486209 124.39343 
L 72.697602 129.725175 
L 72.834288 133.539807 
L 72.86728 135.056919 
L 72.965144 140.388664 
L 73.04852 145.720408 
L 73.111855 151.052153 
L 73.146913 156.383897 
L 73.147527 161.715642 
L 73.112382 167.047386 
L 73.045111 172.37913 
L 72.951864 177.710875 
L 72.837777 183.042619 
L 72.834288 183.180104 
L 72.67684 188.374364 
L 72.500091 193.706108 
L 72.311794 199.037853 
L 72.115088 204.369597 
L 71.91169 209.701342 
L 71.868942 210.74889 
L 71.674072 215.033086 
L 71.424021 220.364831 
L 71.172023 225.696575 
L 70.918983 231.02832 
" style="fill:none;stroke:#39558c;stroke-width:1.5;"/>
   </g>
   <g id="LineCollection_7">
    <path clip-path="url(#p36eb0410d9)" d="M 70.113877 71.075985 
L 70.577913 76.40773 
L 70.903597 79.890362 
L 71.033847 81.739474 
L 71.434463 87.071219 
L 71.868942 91.837024 
L 71.908477 92.402963 
L 72.285251 97.734708 
L 72.735851 103.066452 
L 72.834288 104.31223 
L 73.064834 108.398197 
L 73.345566 113.729941 
L 73.615686 119.061686 
L 73.799634 122.961297 
L 73.840266 124.39343 
L 73.977194 129.725175 
L 74.120151 135.056919 
L 74.270672 140.388664 
L 74.425879 145.720408 
L 74.578883 151.052153 
L 74.722421 156.383897 
L 74.76498 158.348791 
L 74.807115 161.715642 
L 74.854059 167.047386 
L 74.875703 172.37913 
L 74.865518 177.710875 
L 74.820233 183.042619 
L 74.76498 186.798023 
L 74.726557 188.374364 
L 74.560079 193.706108 
L 74.370202 199.037853 
L 74.166484 204.369597 
L 73.955429 209.701342 
L 73.799634 213.537217 
L 73.723018 215.033086 
L 73.438457 220.364831 
L 73.249903 223.951596 
" style="fill:none;stroke:#33638d;stroke-width:1.5;"/>
   </g>
   <g id="LineCollection_8">
    <path clip-path="url(#p36eb0410d9)" d="M 70.972554 71.075985 
L 71.373826 76.40773 
L 71.84601 81.739474 
L 71.868942 81.993717 
L 72.219136 87.071219 
L 72.671922 92.402963 
L 72.834288 94.19245 
L 73.082011 97.734708 
L 73.490042 103.066452 
L 73.799634 107.180367 
L 73.864807 108.398197 
L 74.014911 111.808738 
" style="fill:none;stroke:#2d718e;stroke-width:1.5;"/>
    <path clip-path="url(#p36eb0410d9)" d="M 74.575072 126.373161 
L 74.701123 129.725175 
L 74.76498 131.369299 
L 74.850286 135.056919 
L 74.980164 140.388664 
L 75.118029 145.720408 
L 75.260589 151.052153 
L 75.404788 156.383897 
L 75.546961 161.715642 
L 75.678535 167.047386 
L 75.730326 169.75654 
L 75.758814 172.37913 
L 75.792321 177.710875 
L 75.797604 183.042619 
L 75.770621 188.374364 
L 75.730326 192.017512 
L 75.696218 193.706108 
L 75.54548 199.037853 
L 75.366012 204.369597 
L 75.170214 209.701342 
L 74.96723 215.033086 
L 74.76498 220.350611 
L 74.764221 220.364831 
L 74.463085 225.696575 
L 74.172117 231.02832 
" style="fill:none;stroke:#2d718e;stroke-width:1.5;"/>
   </g>
   <g id="LineCollection_9">
    <path clip-path="url(#p36eb0410d9)" d="M 72.065946 77.562052 
L 72.366521 81.739474 
L 72.834288 87.01682 
L 72.838039 87.071219 
L 73.213649 92.402963 
L 73.670441 97.734708 
L 73.799634 99.222488 
L 74.052489 103.066452 
L 74.373561 108.398197 
L 74.663151 113.729941 
L 74.76498 115.947056 
L 74.853621 119.061686 
L 74.985275 124.39343 
L 75.124771 129.725175 
L 75.281461 135.056919 
L 75.456313 140.388664 
L 75.647469 145.720408 
L 75.730326 148.020124 
L 75.795396 151.052153 
L 75.907023 156.383897 
L 76.019662 161.715642 
L 76.128891 167.047386 
L 76.227285 172.37913 
L 76.304639 177.710875 
L 76.349374 183.042619 
L 76.351974 188.374364 
L 76.308209 193.706108 
L 76.221341 199.037853 
L 76.100089 204.369597 
L 75.955604 209.701342 
L 75.798247 215.033086 
L 75.730326 217.166863 
L 75.573805 220.364831 
L 75.307684 225.696575 
L 75.051238 231.02832 
" style="fill:none;stroke:#287d8e;stroke-width:1.5;"/>
   </g>
   <g id="LineCollection_10">
    <path clip-path="url(#p36eb0410d9)" d="M 72.02441 71.075985 
L 72.4127 76.40773 
L 72.834288 81.307581 
L 72.863071 81.739474 
L 73.236307 87.071219 
L 73.695485 92.402963 
L 73.799634 93.559358 
L 74.094605 97.734708 
L 74.498235 103.066452 
L 74.76498 106.914973 
L 74.838207 108.398197 
L 75.039711 113.729941 
L 75.202907 119.061686 
L 75.352629 124.39343 
L 75.51937 129.725175 
L 75.712636 135.056919 
L 75.730326 135.526784 
L 75.842238 140.388664 
L 75.972659 145.720408 
L 76.110759 151.052153 
L 76.254781 156.383897 
L 76.404338 161.715642 
L 76.554171 167.047386 
L 76.695672 172.376225 
L 76.695717 172.37913 
L 76.759637 177.710875 
L 76.80375 183.042619 
L 76.821483 188.374364 
L 76.808238 193.706108 
L 76.763162 199.037853 
L 76.695672 203.90053 
L 76.684055 204.369597 
L 76.514659 209.701342 
L 76.324599 215.033086 
L 76.125026 220.364831 
L 75.997801 223.733475 
" style="fill:none;stroke:#238a8d;stroke-width:1.5;"/>
   </g>
   <g id="LineCollection_11">
    <path clip-path="url(#p36eb0410d9)" d="M 72.390757 71.075985 
L 72.834288 76.324796 
L 72.839693 76.40773 
L 73.195977 81.739474 
L 73.634576 87.071219 
L 73.799634 88.915251 
L 74.047236 92.402963 
L 74.472556 97.734708 
L 74.76498 101.244678 
L 74.880995 103.066452 
L 75.155713 108.398197 
L 75.293085 111.738046 
" style="fill:none;stroke:#1f968b;stroke-width:1.5;"/>
    <path clip-path="url(#p36eb0410d9)" d="M 75.767344 126.461336 
L 75.835848 129.725175 
L 75.963808 135.056919 
L 76.105856 140.388664 
L 76.259953 145.720408 
L 76.426122 151.052153 
L 76.602539 156.383897 
L 76.695672 159.181173 
L 76.746604 161.715642 
L 76.848482 167.047386 
L 76.945119 172.37913 
L 77.029831 177.710875 
L 77.093981 183.042619 
L 77.129243 188.374364 
L 77.128892 193.706108 
L 77.09043 199.037853 
L 77.016076 204.369597 
L 76.911822 209.701342 
L 76.78618 215.033086 
L 76.695672 218.44379 
L 76.614363 220.364831 
L 76.374196 225.696575 
L 76.137538 231.02832 
" style="fill:none;stroke:#1f968b;stroke-width:1.5;"/>
   </g>
   <g id="LineCollection_12">
    <path clip-path="url(#p36eb0410d9)" d="M 72.757104 71.075985 
L 72.834288 71.989399 
L 73.122232 76.40773 
L 73.528883 81.739474 
L 73.799634 84.839355 
L 73.954868 87.071219 
L 74.363116 92.402963 
L 74.76498 96.929547 
L 74.821707 97.734708 
L 75.169894 103.066452 
L 75.401818 107.143127 
" style="fill:none;stroke:#20a386;stroke-width:1.5;"/>
    <path clip-path="url(#p36eb0410d9)" d="M 75.886486 121.793217 
L 75.938687 124.39343 
L 76.062586 129.725175 
L 76.207278 135.056919 
L 76.369475 140.388664 
L 76.547247 145.720408 
L 76.695672 149.881952 
L 76.721527 151.052153 
L 76.836803 156.383897 
L 76.956503 161.715642 
L 77.077489 167.047386 
L 77.194522 172.37913 
L 77.300026 177.710875 
L 77.384213 183.042619 
L 77.437003 188.374364 
L 77.449545 193.706108 
L 77.417698 199.037853 
L 77.342983 204.369597 
L 77.231468 209.701342 
L 77.092977 215.033086 
L 76.937478 220.364831 
L 76.773286 225.696575 
L 76.695672 228.070134 
L 76.548832 231.02832 
" style="fill:none;stroke:#20a386;stroke-width:1.5;"/>
   </g>
   <g id="LineCollection_13">
    <path clip-path="url(#p36eb0410d9)" d="M 73.026572 71.075985 
L 73.404771 76.40773 
L 73.799634 81.111133 
L 73.841475 81.739474 
L 74.219971 87.071219 
L 74.678995 92.402963 
L 74.76498 93.371491 
L 75.072389 97.734708 
L 75.458793 103.066452 
L 75.730326 107.500712 
L 75.76844 108.398197 
L 75.860515 111.605719 
" style="fill:none;stroke:#29af7f;stroke-width:1.5;"/>
    <path clip-path="url(#p36eb0410d9)" d="M 76.207678 126.529898 
L 76.289324 129.725175 
L 76.450749 135.056919 
L 76.633093 140.388664 
L 76.695672 142.144692 
L 76.775635 145.720408 
L 76.899501 151.052153 
L 77.029555 156.383897 
L 77.166403 161.715642 
L 77.306495 167.047386 
L 77.443924 172.37913 
L 77.57022 177.710875 
L 77.661018 182.397446 
L 77.668449 183.042619 
L 77.70729 188.374364 
L 77.72165 193.706108 
L 77.708224 199.037853 
L 77.666095 204.369597 
L 77.661018 204.759664 
L 77.551115 209.701342 
L 77.399774 215.033086 
L 77.227469 220.364831 
L 77.044226 225.696575 
L 76.85718 231.02832 
" style="fill:none;stroke:#29af7f;stroke-width:1.5;"/>
   </g>
   <g id="LineCollection_14">
    <path clip-path="url(#p36eb0410d9)" d="M 73.27018 71.075985 
L 73.68731 76.40773 
L 73.799634 77.745671 
L 74.065576 81.739474 
L 74.485074 87.071219 
L 74.76498 90.227399 
L 74.919954 92.402963 
L 75.323071 97.734708 
L 75.730326 102.876209 
L 75.741842 103.066452 
L 75.968798 108.398197 
L 76.062815 111.611603 
" style="fill:none;stroke:#3dbc74;stroke-width:1.5;"/>
    <path clip-path="url(#p36eb0410d9)" d="M 76.426576 126.513937 
L 76.516063 129.725175 
L 76.694219 135.056919 
L 76.695672 135.0983 
L 76.813502 140.388664 
L 76.941063 145.720408 
L 77.077476 151.052153 
L 77.222307 156.383897 
L 77.376302 161.715642 
L 77.535501 167.047386 
L 77.661018 171.359849 
L 77.67921 172.37913 
L 77.76099 177.710875 
L 77.829093 183.042619 
L 77.877338 188.374364 
L 77.89972 193.706108 
L 77.892254 199.037853 
L 77.853185 204.369597 
L 77.783621 209.701342 
L 77.688245 215.033086 
L 77.661018 216.2633 
L 77.517461 220.364831 
L 77.315167 225.696575 
L 77.108367 231.02832 
" style="fill:none;stroke:#3dbc74;stroke-width:1.5;"/>
   </g>
   <g id="LineCollection_15">
    <path clip-path="url(#p36eb0410d9)" d="M 74.006157 77.704044 
L 74.289678 81.739474 
L 74.750177 87.071219 
L 74.76498 87.238137 
L 75.132892 92.402963 
L 75.573752 97.734708 
L 75.730326 99.711413 
L 75.933411 103.066452 
L 76.169155 108.398197 
L 76.328092 113.729941 
L 76.451979 119.061686 
L 76.581883 124.39343 
L 76.695672 128.224685 
L 76.724173 129.725175 
L 76.839828 135.056919 
L 76.968009 140.388664 
L 77.106492 145.720408 
L 77.25545 151.052153 
L 77.415059 156.383897 
L 77.586202 161.715642 
L 77.661018 164.066644 
L 77.720106 167.047386 
L 77.81964 172.37913 
L 77.91156 177.710875 
L 77.989736 183.042619 
L 78.047386 188.374364 
L 78.077791 193.706108 
L 78.076284 199.037853 
L 78.040275 204.369597 
L 77.970467 209.701342 
L 77.871619 215.033086 
L 77.75051 220.364831 
L 77.661018 223.810172 
L 77.586108 225.696575 
L 77.359554 231.02832 
" style="fill:none;stroke:#56c667;stroke-width:1.5;"/>
   </g>
   <g id="LineCollection_16">
    <path clip-path="url(#p36eb0410d9)" d="M 73.757398 71.075985 
L 73.799634 71.596536 
L 74.106709 76.40773 
L 74.51378 81.739474 
L 74.76498 84.63353 
L 74.935775 87.071219 
L 75.345829 92.402963 
L 75.730326 96.81701 
L 75.794513 97.734708 
L 76.124981 103.066452 
L 76.369513 108.398197 
L 76.467446 111.623786 
" style="fill:none;stroke:#75d054;stroke-width:1.5;"/>
    <path clip-path="url(#p36eb0410d9)" d="M 76.799515 126.56052 
L 76.861294 129.725175 
L 76.984849 135.056919 
L 77.122516 140.388664 
L 77.27192 145.720408 
L 77.433425 151.052153 
L 77.607811 156.383897 
L 77.661018 157.984332 
L 77.73933 161.715642 
L 77.85086 167.047386 
L 77.96007 172.37913 
L 78.06213 177.710875 
L 78.150379 183.042619 
L 78.217434 188.374364 
L 78.255861 193.706108 
L 78.260314 199.037853 
L 78.227366 204.369597 
L 78.157314 209.701342 
L 78.054993 215.033086 
L 77.927737 220.364831 
L 77.783316 225.696575 
L 77.661018 229.872957 
L 77.610741 231.02832 
" style="fill:none;stroke:#75d054;stroke-width:1.5;"/>
   </g>
   <g id="LineCollection_17">
    <path clip-path="url(#p36eb0410d9)" d="M 73.936902 71.075985 
L 74.218067 75.223615 
" style="fill:none;stroke:#95d840;stroke-width:1.5;"/>
    <path clip-path="url(#p36eb0410d9)" d="M 75.2259 88.388539 
L 75.558766 92.402963 
L 75.730326 94.372479 
L 75.965492 97.734708 
L 76.31655 103.066452 
L 76.56987 108.398197 
L 76.695672 112.48172 
L 76.719928 113.729941 
L 76.800415 119.061686 
L 76.888349 124.39343 
L 76.998415 129.725175 
L 77.12987 135.056919 
L 77.277023 140.388664 
L 77.437348 145.720408 
L 77.611399 151.052153 
L 77.661018 152.534534 
L 77.743281 156.383897 
L 77.861015 161.715642 
L 77.981614 167.047386 
L 78.100501 172.37913 
L 78.212701 177.710875 
L 78.311023 183.042619 
L 78.387482 188.374364 
L 78.433931 193.706108 
L 78.444344 199.037853 
L 78.414456 204.369597 
L 78.34416 209.701342 
L 78.238367 215.033086 
L 78.104964 220.364831 
L 77.952348 225.696575 
L 77.788676 231.02832 
" style="fill:none;stroke:#95d840;stroke-width:1.5;"/>
   </g>
   <g id="LineCollection_18">
    <path clip-path="url(#p36eb0410d9)" d="M 78.626363 199.443586 
L 78.601546 204.369597 
L 78.559718 207.531153 
" style="fill:none;stroke:#bade28;stroke-width:1.5;"/>
    <path clip-path="url(#p36eb0410d9)" d="M 78.219132 222.455576 
L 78.12138 225.696575 
L 77.948281 231.02832 
" style="fill:none;stroke:#bade28;stroke-width:1.5;"/>
    <path clip-path="url(#p36eb0410d9)" d="M 74.102961 71.075985 
L 74.489965 76.40773 
L 74.76498 79.714162 
L 74.900536 81.739474 
L 75.297568 87.071219 
L 75.730326 92.002419 
L 75.758768 92.402963 
L 76.037863 96.34273 
" style="fill:none;stroke:#bade28;stroke-width:1.5;"/>
    <path clip-path="url(#p36eb0410d9)" d="M 76.780525 110.336314 
L 76.846313 113.729941 
L 76.927922 119.061686 
L 77.019488 124.39343 
L 77.135535 129.725175 
L 77.274891 135.056919 
L 77.43153 140.388664 
L 77.602777 145.720408 
L 77.661018 147.469373 
L 77.738036 151.052153 
L 77.856911 156.383897 
L 77.9827 161.715642 
L 78.112368 167.047386 
L 78.240931 172.37913 
L 78.363271 177.710875 
L 78.471666 183.042619 
L 78.55753 188.374364 
L 78.612002 193.706108 
L 78.626363 198.401739 
" style="fill:none;stroke:#bade28;stroke-width:1.5;"/>
   </g>
   <g id="LineCollection_19">
    <path clip-path="url(#p36eb0410d9)" d="M 78.220843 227.728752 
L 78.107886 231.02832 
" style="fill:none;stroke:#dde318;stroke-width:1.5;"/>
    <path clip-path="url(#p36eb0410d9)" d="M 74.26902 71.075985 
L 74.681594 76.40773 
L 74.76498 77.410263 
L 75.054737 81.739474 
L 75.478464 87.071219 
L 75.730326 89.941137 
L 75.905137 92.402963 
L 76.307451 97.734708 
L 76.695672 103.017655 
L 76.698343 103.066452 
L 76.801498 106.270247 
" style="fill:none;stroke:#dde318;stroke-width:1.5;"/>
    <path clip-path="url(#p36eb0410d9)" d="M 77.094487 121.249222 
L 77.150627 124.39343 
L 77.272656 129.725175 
L 77.419912 135.056919 
L 77.586038 140.388664 
L 77.661018 142.671898 
L 77.726313 145.720408 
L 77.844827 151.052153 
L 77.970542 156.383897 
L 78.104385 161.715642 
L 78.243122 167.047386 
L 78.381361 172.37913 
L 78.513841 177.710875 
L 78.626363 182.791009 
" style="fill:none;stroke:#dde318;stroke-width:1.5;"/>
   </g>
   <g id="LineCollection_20">
    <path clip-path="url(#p36eb0410d9)" d="M 78.626363 220.660676 
L 78.459444 225.696575 
L 78.26749 231.02832 
" style="fill:none;stroke:#fde725;stroke-width:1.5;"/>
    <path clip-path="url(#p36eb0410d9)" d="M 74.435078 71.075985 
L 74.76498 75.227387 
L 74.839841 76.40773 
L 75.208939 81.739474 
L 75.659361 87.071219 
L 75.730326 87.879855 
L 76.051507 92.402963 
L 76.47843 97.734708 
L 76.695672 100.690953 
L 76.82572 103.066452 
L 76.997073 108.398197 
L 77.057301 111.546138 
" style="fill:none;stroke:#fde725;stroke-width:1.5;"/>
    <path clip-path="url(#p36eb0410d9)" d="M 77.333572 126.551201 
L 77.409776 129.725175 
L 77.564933 135.056919 
L 77.661018 138.057566 
L 77.710126 140.388664 
L 77.827086 145.720408 
L 77.951618 151.052153 
L 78.084172 156.383897 
L 78.22607 161.715642 
L 78.373876 167.047386 
L 78.521792 172.37913 
L 78.626363 176.359988 
" style="fill:none;stroke:#fde725;stroke-width:1.5;"/>
   </g>
   <g id="LineCollection_21">
    <path clip-path="url(#p36eb0410d9)" d="M 78.626363 225.749416 
L 78.427095 231.02832 
" style="fill:none;stroke:#440154;stroke-width:1.5;"/>
    <path clip-path="url(#p36eb0410d9)" d="M 74.601137 71.075985 
L 74.76498 73.137743 
L 74.972372 76.40773 
L 75.36314 81.739474 
L 75.730326 85.987173 
L 75.806576 87.071219 
L 76.197876 92.402963 
L 76.649409 97.734708 
L 76.695672 98.364251 
L 76.953097 103.066452 
L 77.124134 108.398197 
L 77.163613 110.475463 
" style="fill:none;stroke:#440154;stroke-width:1.5;"/>
    <path clip-path="url(#p36eb0410d9)" d="M 77.49369 127.608008 
L 77.546897 129.725175 
L 77.661018 133.518786 
L 77.691605 135.056919 
L 77.805535 140.388664 
L 77.927859 145.720408 
L 78.058409 151.052153 
L 78.197802 156.383897 
L 78.347755 161.715642 
L 78.504629 167.047386 
L 78.626363 171.231549 
" style="fill:none;stroke:#440154;stroke-width:1.5;"/>
   </g>
   <g id="LineCollection_22"/>
   <g id="LineCollection_23"/>
   <g id="LineCollection_24"/>
   <g id="LineCollection_25"/>
   <g id="LineCollection_26"/>
   <g id="LineCollection_27"/>
   <g id="LineCollection_28"/>
   <g id="line2d_14">
    <path clip-path="url(#p36eb0410d9)" d="M 389.780273 19.296 
L 381.289999 27.847167 
L 372.078986 36.615015 
L 362.990931 45.7823 
L 354.047047 55.655366 
L 345.246404 66.031045 
L 336.590086 76.514459 
L 328.069652 87.995737 
L 319.68866 99.091775 
L 311.444326 110.132525 
L 303.324342 122.084524 
L 295.330808 133.612605 
L 287.475677 144.733137 
L 279.753205 155.431255 
L 272.140677 166.463891 
L 264.661736 177.069118 
L 257.311366 186.911637 
L 250.082099 196.327748 
L 242.971095 205.434378 
L 235.996837 213.663137 
L 229.128547 221.664655 
L 222.38158 228.660213 
L 215.754104 235.172812 
L 209.237986 240.993021 
L 202.828234 246.197778 
L 196.528161 250.927461 
L 190.355234 254.218469 
L 184.269063 256.913379 
L 178.277061 259.05906 
L 172.414448 260.660974 
L 166.633343 261.216 
L 160.97418 260.692818 
L 155.411573 260.194395 
L 149.945338 258.803904 
L 144.59175 255.713527 
L 139.314775 251.888669 
L 134.151944 247.616299 
L 129.070483 242.235708 
L 124.084456 236.380595 
L 119.190035 229.497814 
L 114.365252 221.571699 
L 109.652604 213.44647 
L 105.01923 204.80353 
L 100.461959 195.5854 
L 95.991751 186.18022 
L 91.591021 175.343215 
L 87.274784 164.332816 
L 83.035803 153.152762 
L 78.825035 139.515044 
L 74.753702 128.666324 
L 74.364284 128.401782 
L 73.970017 127.997219 
L 73.572572 127.444098 
L 73.178518 126.849668 
L 72.784738 126.207673 
L 72.390852 125.528549 
L 71.998102 124.833785 
L 71.605468 124.176157 
L 71.215589 123.463905 
L 70.826468 122.768866 
L 70.437951 122.077988 
L 70.051327 121.332654 
L 69.66336 120.637468 
L 69.275748 119.942476 
L 68.890343 119.22227 
L 68.505157 118.507334 
L 68.121571 117.864752 
L 67.738664 117.126259 
L 67.357833 116.43153 
L 66.976441 115.675986 
L 66.597615 114.973826 
L 66.21748 114.175424 
L 65.838033 113.526531 
L 65.460262 112.697407 
L 65.083548 112.013889 
L 65.04649 111.972509 
L 65.008903 111.928854 
L 64.971078 111.883425 
L 64.933323 111.836781 
L 64.89576 111.797993 
L 64.857709 111.75555 
L 64.820202 111.715214 
L 64.782704 111.677701 
L 64.745027 111.647375 
L 64.707246 111.614233 
L 64.669705 111.571716 
L 64.632283 111.52514 
L 64.594785 111.483961 
L 64.557047 111.442119 
L 64.519598 111.410379 
L 64.482179 111.367168 
L 64.444988 111.32615 
L 64.407482 111.295532 
L 64.370041 111.267546 
L 64.332448 111.235972 
L 64.295068 111.190858 
L 64.257774 111.152989 
L 64.220685 111.120222 
L 64.183394 111.095201 
" style="fill:none;stroke:#1f77b4;stroke-linecap:square;stroke-width:1.5;"/>
    <defs>
     <path d="M 0 1.5 
C 0.397805 1.5 0.77937 1.341951 1.06066 1.06066 
C 1.341951 0.77937 1.5 0.397805 1.5 0 
C 1.5 -0.397805 1.341951 -0.77937 1.06066 -1.06066 
C 0.77937 -1.341951 0.397805 -1.5 0 -1.5 
C -0.397805 -1.5 -0.77937 -1.341951 -1.06066 -1.06066 
C -1.341951 -0.77937 -1.5 -0.397805 -1.5 0 
C -1.5 0.397805 -1.341951 0.77937 -1.06066 1.06066 
C -0.77937 1.341951 -0.397805 1.5 0 1.5 
z
" id="m10a200fe5d" style="stroke:#1f77b4;"/>
    </defs>
    <g clip-path="url(#p36eb0410d9)">
     <use style="fill:#1f77b4;stroke:#1f77b4;" x="389.780273" xlink:href="#m10a200fe5d" y="19.296"/>
     <use style="fill:#1f77b4;stroke:#1f77b4;" x="381.289999" xlink:href="#m10a200fe5d" y="27.847167"/>
     <use style="fill:#1f77b4;stroke:#1f77b4;" x="372.078986" xlink:href="#m10a200fe5d" y="36.615015"/>
     <use style="fill:#1f77b4;stroke:#1f77b4;" x="362.990931" xlink:href="#m10a200fe5d" y="45.7823"/>
     <use style="fill:#1f77b4;stroke:#1f77b4;" x="354.047047" xlink:href="#m10a200fe5d" y="55.655366"/>
     <use style="fill:#1f77b4;stroke:#1f77b4;" x="345.246404" xlink:href="#m10a200fe5d" y="66.031045"/>
     <use style="fill:#1f77b4;stroke:#1f77b4;" x="336.590086" xlink:href="#m10a200fe5d" y="76.514459"/>
     <use style="fill:#1f77b4;stroke:#1f77b4;" x="328.069652" xlink:href="#m10a200fe5d" y="87.995737"/>
     <use style="fill:#1f77b4;stroke:#1f77b4;" x="319.68866" xlink:href="#m10a200fe5d" y="99.091775"/>
     <use style="fill:#1f77b4;stroke:#1f77b4;" x="311.444326" xlink:href="#m10a200fe5d" y="110.132525"/>
     <use style="fill:#1f77b4;stroke:#1f77b4;" x="303.324342" xlink:href="#m10a200fe5d" y="122.084524"/>
     <use style="fill:#1f77b4;stroke:#1f77b4;" x="295.330808" xlink:href="#m10a200fe5d" y="133.612605"/>
     <use style="fill:#1f77b4;stroke:#1f77b4;" x="287.475677" xlink:href="#m10a200fe5d" y="144.733137"/>
     <use style="fill:#1f77b4;stroke:#1f77b4;" x="279.753205" xlink:href="#m10a200fe5d" y="155.431255"/>
     <use style="fill:#1f77b4;stroke:#1f77b4;" x="272.140677" xlink:href="#m10a200fe5d" y="166.463891"/>
     <use style="fill:#1f77b4;stroke:#1f77b4;" x="264.661736" xlink:href="#m10a200fe5d" y="177.069118"/>
     <use style="fill:#1f77b4;stroke:#1f77b4;" x="257.311366" xlink:href="#m10a200fe5d" y="186.911637"/>
     <use style="fill:#1f77b4;stroke:#1f77b4;" x="250.082099" xlink:href="#m10a200fe5d" y="196.327748"/>
     <use style="fill:#1f77b4;stroke:#1f77b4;" x="242.971095" xlink:href="#m10a200fe5d" y="205.434378"/>
     <use style="fill:#1f77b4;stroke:#1f77b4;" x="235.996837" xlink:href="#m10a200fe5d" y="213.663137"/>
     <use style="fill:#1f77b4;stroke:#1f77b4;" x="229.128547" xlink:href="#m10a200fe5d" y="221.664655"/>
     <use style="fill:#1f77b4;stroke:#1f77b4;" x="222.38158" xlink:href="#m10a200fe5d" y="228.660213"/>
     <use style="fill:#1f77b4;stroke:#1f77b4;" x="215.754104" xlink:href="#m10a200fe5d" y="235.172812"/>
     <use style="fill:#1f77b4;stroke:#1f77b4;" x="209.237986" xlink:href="#m10a200fe5d" y="240.993021"/>
     <use style="fill:#1f77b4;stroke:#1f77b4;" x="202.828234" xlink:href="#m10a200fe5d" y="246.197778"/>
     <use style="fill:#1f77b4;stroke:#1f77b4;" x="196.528161" xlink:href="#m10a200fe5d" y="250.927461"/>
     <use style="fill:#1f77b4;stroke:#1f77b4;" x="190.355234" xlink:href="#m10a200fe5d" y="254.218469"/>
     <use style="fill:#1f77b4;stroke:#1f77b4;" x="184.269063" xlink:href="#m10a200fe5d" y="256.913379"/>
     <use style="fill:#1f77b4;stroke:#1f77b4;" x="178.277061" xlink:href="#m10a200fe5d" y="259.05906"/>
     <use style="fill:#1f77b4;stroke:#1f77b4;" x="172.414448" xlink:href="#m10a200fe5d" y="260.660974"/>
     <use style="fill:#1f77b4;stroke:#1f77b4;" x="166.633343" xlink:href="#m10a200fe5d" y="261.216"/>
     <use style="fill:#1f77b4;stroke:#1f77b4;" x="160.97418" xlink:href="#m10a200fe5d" y="260.692818"/>
     <use style="fill:#1f77b4;stroke:#1f77b4;" x="155.411573" xlink:href="#m10a200fe5d" y="260.194395"/>
     <use style="fill:#1f77b4;stroke:#1f77b4;" x="149.945338" xlink:href="#m10a200fe5d" y="258.803904"/>
     <use style="fill:#1f77b4;stroke:#1f77b4;" x="144.59175" xlink:href="#m10a200fe5d" y="255.713527"/>
     <use style="fill:#1f77b4;stroke:#1f77b4;" x="139.314775" xlink:href="#m10a200fe5d" y="251.888669"/>
     <use style="fill:#1f77b4;stroke:#1f77b4;" x="134.151944" xlink:href="#m10a200fe5d" y="247.616299"/>
     <use style="fill:#1f77b4;stroke:#1f77b4;" x="129.070483" xlink:href="#m10a200fe5d" y="242.235708"/>
     <use style="fill:#1f77b4;stroke:#1f77b4;" x="124.084456" xlink:href="#m10a200fe5d" y="236.380595"/>
     <use style="fill:#1f77b4;stroke:#1f77b4;" x="119.190035" xlink:href="#m10a200fe5d" y="229.497814"/>
     <use style="fill:#1f77b4;stroke:#1f77b4;" x="114.365252" xlink:href="#m10a200fe5d" y="221.571699"/>
     <use style="fill:#1f77b4;stroke:#1f77b4;" x="109.652604" xlink:href="#m10a200fe5d" y="213.44647"/>
     <use style="fill:#1f77b4;stroke:#1f77b4;" x="105.01923" xlink:href="#m10a200fe5d" y="204.80353"/>
     <use style="fill:#1f77b4;stroke:#1f77b4;" x="100.461959" xlink:href="#m10a200fe5d" y="195.5854"/>
     <use style="fill:#1f77b4;stroke:#1f77b4;" x="95.991751" xlink:href="#m10a200fe5d" y="186.18022"/>
     <use style="fill:#1f77b4;stroke:#1f77b4;" x="91.591021" xlink:href="#m10a200fe5d" y="175.343215"/>
     <use style="fill:#1f77b4;stroke:#1f77b4;" x="87.274784" xlink:href="#m10a200fe5d" y="164.332816"/>
     <use style="fill:#1f77b4;stroke:#1f77b4;" x="83.035803" xlink:href="#m10a200fe5d" y="153.152762"/>
     <use style="fill:#1f77b4;stroke:#1f77b4;" x="78.825035" xlink:href="#m10a200fe5d" y="139.515044"/>
     <use style="fill:#1f77b4;stroke:#1f77b4;" x="74.753702" xlink:href="#m10a200fe5d" y="128.666324"/>
     <use style="fill:#1f77b4;stroke:#1f77b4;" x="74.364284" xlink:href="#m10a200fe5d" y="128.401782"/>
     <use style="fill:#1f77b4;stroke:#1f77b4;" x="73.970017" xlink:href="#m10a200fe5d" y="127.997219"/>
     <use style="fill:#1f77b4;stroke:#1f77b4;" x="73.572572" xlink:href="#m10a200fe5d" y="127.444098"/>
     <use style="fill:#1f77b4;stroke:#1f77b4;" x="73.178518" xlink:href="#m10a200fe5d" y="126.849668"/>
     <use style="fill:#1f77b4;stroke:#1f77b4;" x="72.784738" xlink:href="#m10a200fe5d" y="126.207673"/>
     <use style="fill:#1f77b4;stroke:#1f77b4;" x="72.390852" xlink:href="#m10a200fe5d" y="125.528549"/>
     <use style="fill:#1f77b4;stroke:#1f77b4;" x="71.998102" xlink:href="#m10a200fe5d" y="124.833785"/>
     <use style="fill:#1f77b4;stroke:#1f77b4;" x="71.605468" xlink:href="#m10a200fe5d" y="124.176157"/>
     <use style="fill:#1f77b4;stroke:#1f77b4;" x="71.215589" xlink:href="#m10a200fe5d" y="123.463905"/>
     <use style="fill:#1f77b4;stroke:#1f77b4;" x="70.826468" xlink:href="#m10a200fe5d" y="122.768866"/>
     <use style="fill:#1f77b4;stroke:#1f77b4;" x="70.437951" xlink:href="#m10a200fe5d" y="122.077988"/>
     <use style="fill:#1f77b4;stroke:#1f77b4;" x="70.051327" xlink:href="#m10a200fe5d" y="121.332654"/>
     <use style="fill:#1f77b4;stroke:#1f77b4;" x="69.66336" xlink:href="#m10a200fe5d" y="120.637468"/>
     <use style="fill:#1f77b4;stroke:#1f77b4;" x="69.275748" xlink:href="#m10a200fe5d" y="119.942476"/>
     <use style="fill:#1f77b4;stroke:#1f77b4;" x="68.890343" xlink:href="#m10a200fe5d" y="119.22227"/>
     <use style="fill:#1f77b4;stroke:#1f77b4;" x="68.505157" xlink:href="#m10a200fe5d" y="118.507334"/>
     <use style="fill:#1f77b4;stroke:#1f77b4;" x="68.121571" xlink:href="#m10a200fe5d" y="117.864752"/>
     <use style="fill:#1f77b4;stroke:#1f77b4;" x="67.738664" xlink:href="#m10a200fe5d" y="117.126259"/>
     <use style="fill:#1f77b4;stroke:#1f77b4;" x="67.357833" xlink:href="#m10a200fe5d" y="116.43153"/>
     <use style="fill:#1f77b4;stroke:#1f77b4;" x="66.976441" xlink:href="#m10a200fe5d" y="115.675986"/>
     <use style="fill:#1f77b4;stroke:#1f77b4;" x="66.597615" xlink:href="#m10a200fe5d" y="114.973826"/>
     <use style="fill:#1f77b4;stroke:#1f77b4;" x="66.21748" xlink:href="#m10a200fe5d" y="114.175424"/>
     <use style="fill:#1f77b4;stroke:#1f77b4;" x="65.838033" xlink:href="#m10a200fe5d" y="113.526531"/>
     <use style="fill:#1f77b4;stroke:#1f77b4;" x="65.460262" xlink:href="#m10a200fe5d" y="112.697407"/>
     <use style="fill:#1f77b4;stroke:#1f77b4;" x="65.083548" xlink:href="#m10a200fe5d" y="112.013889"/>
     <use style="fill:#1f77b4;stroke:#1f77b4;" x="65.04649" xlink:href="#m10a200fe5d" y="111.972509"/>
     <use style="fill:#1f77b4;stroke:#1f77b4;" x="65.008903" xlink:href="#m10a200fe5d" y="111.928854"/>
     <use style="fill:#1f77b4;stroke:#1f77b4;" x="64.971078" xlink:href="#m10a200fe5d" y="111.883425"/>
     <use style="fill:#1f77b4;stroke:#1f77b4;" x="64.933323" xlink:href="#m10a200fe5d" y="111.836781"/>
     <use style="fill:#1f77b4;stroke:#1f77b4;" x="64.89576" xlink:href="#m10a200fe5d" y="111.797993"/>
     <use style="fill:#1f77b4;stroke:#1f77b4;" x="64.857709" xlink:href="#m10a200fe5d" y="111.75555"/>
     <use style="fill:#1f77b4;stroke:#1f77b4;" x="64.820202" xlink:href="#m10a200fe5d" y="111.715214"/>
     <use style="fill:#1f77b4;stroke:#1f77b4;" x="64.782704" xlink:href="#m10a200fe5d" y="111.677701"/>
     <use style="fill:#1f77b4;stroke:#1f77b4;" x="64.745027" xlink:href="#m10a200fe5d" y="111.647375"/>
     <use style="fill:#1f77b4;stroke:#1f77b4;" x="64.707246" xlink:href="#m10a200fe5d" y="111.614233"/>
     <use style="fill:#1f77b4;stroke:#1f77b4;" x="64.669705" xlink:href="#m10a200fe5d" y="111.571716"/>
     <use style="fill:#1f77b4;stroke:#1f77b4;" x="64.632283" xlink:href="#m10a200fe5d" y="111.52514"/>
     <use style="fill:#1f77b4;stroke:#1f77b4;" x="64.594785" xlink:href="#m10a200fe5d" y="111.483961"/>
     <use style="fill:#1f77b4;stroke:#1f77b4;" x="64.557047" xlink:href="#m10a200fe5d" y="111.442119"/>
     <use style="fill:#1f77b4;stroke:#1f77b4;" x="64.519598" xlink:href="#m10a200fe5d" y="111.410379"/>
     <use style="fill:#1f77b4;stroke:#1f77b4;" x="64.482179" xlink:href="#m10a200fe5d" y="111.367168"/>
     <use style="fill:#1f77b4;stroke:#1f77b4;" x="64.444988" xlink:href="#m10a200fe5d" y="111.32615"/>
     <use style="fill:#1f77b4;stroke:#1f77b4;" x="64.407482" xlink:href="#m10a200fe5d" y="111.295532"/>
     <use style="fill:#1f77b4;stroke:#1f77b4;" x="64.370041" xlink:href="#m10a200fe5d" y="111.267546"/>
     <use style="fill:#1f77b4;stroke:#1f77b4;" x="64.332448" xlink:href="#m10a200fe5d" y="111.235972"/>
     <use style="fill:#1f77b4;stroke:#1f77b4;" x="64.295068" xlink:href="#m10a200fe5d" y="111.190858"/>
     <use style="fill:#1f77b4;stroke:#1f77b4;" x="64.257774" xlink:href="#m10a200fe5d" y="111.152989"/>
     <use style="fill:#1f77b4;stroke:#1f77b4;" x="64.220685" xlink:href="#m10a200fe5d" y="111.120222"/>
     <use style="fill:#1f77b4;stroke:#1f77b4;" x="64.183394" xlink:href="#m10a200fe5d" y="111.095201"/>
    </g>
   </g>
   <g id="patch_3">
    <path d="M 49.665988 273.312 
L 49.665988 7.2 
" style="fill:none;stroke:#000000;stroke-linecap:square;stroke-linejoin:miter;stroke-width:0.8;"/>
   </g>
   <g id="patch_4">
    <path d="M 406.785988 273.312 
L 406.785988 7.2 
" style="fill:none;stroke:#000000;stroke-linecap:square;stroke-linejoin:miter;stroke-width:0.8;"/>
   </g>
   <g id="patch_5">
    <path d="M 49.665988 273.312 
L 406.785988 273.312 
" style="fill:none;stroke:#000000;stroke-linecap:square;stroke-linejoin:miter;stroke-width:0.8;"/>
   </g>
   <g id="patch_6">
    <path d="M 49.665988 7.2 
L 406.785988 7.2 
" style="fill:none;stroke:#000000;stroke-linecap:square;stroke-linejoin:miter;stroke-width:0.8;"/>
   </g>
   <g id="text_16">
    <g clip-path="url(#p36eb0410d9)">
     <!-- 1.500 -->
     <g style="fill:#453781;" transform="translate(56.986256 181.015569)rotate(-88.190294)scale(0.06 -0.06)">
      <defs>
       <path d="M 10.796875 72.90625 
L 49.515625 72.90625 
L 49.515625 64.59375 
L 19.828125 64.59375 
L 19.828125 46.734375 
Q 21.96875 47.46875 24.109375 47.828125 
Q 26.265625 48.1875 28.421875 48.1875 
Q 40.625 48.1875 47.75 41.5 
Q 54.890625 34.8125 54.890625 23.390625 
Q 54.890625 11.625 47.5625 5.09375 
Q 40.234375 -1.421875 26.90625 -1.421875 
Q 22.3125 -1.421875 17.546875 -0.640625 
Q 12.796875 0.140625 7.71875 1.703125 
L 7.71875 11.625 
Q 12.109375 9.234375 16.796875 8.0625 
Q 21.484375 6.890625 26.703125 6.890625 
Q 35.15625 6.890625 40.078125 11.328125 
Q 45.015625 15.765625 45.015625 23.390625 
Q 45.015625 31 40.078125 35.4375 
Q 35.15625 39.890625 26.703125 39.890625 
Q 22.75 39.890625 18.8125 39.015625 
Q 14.890625 38.140625 10.796875 36.28125 
z
" id="DejaVuSans-53"/>
      </defs>
      <use xlink:href="#DejaVuSans-49"/>
      <use x="63.623047" xlink:href="#DejaVuSans-46"/>
      <use x="95.410156" xlink:href="#DejaVuSans-53"/>
      <use x="159.033203" xlink:href="#DejaVuSans-48"/>
      <use x="222.65625" xlink:href="#DejaVuSans-48"/>
     </g>
    </g>
   </g>
   <g id="text_17">
    <g clip-path="url(#p36eb0410d9)">
     <!-- 1.500 -->
     <g style="fill:#453781;" transform="translate(60.666226 116.168685)rotate(-278.979943)scale(0.06 -0.06)">
      <use xlink:href="#DejaVuSans-49"/>
      <use x="63.623047" xlink:href="#DejaVuSans-46"/>
      <use x="95.410156" xlink:href="#DejaVuSans-53"/>
      <use x="159.033203" xlink:href="#DejaVuSans-48"/>
      <use x="222.65625" xlink:href="#DejaVuSans-48"/>
     </g>
    </g>
   </g>
   <g id="text_18">
    <g clip-path="url(#p36eb0410d9)">
     <!-- 2.000 -->
     <g style="fill:#404688;" transform="translate(65.437394 116.272667)rotate(-280.893953)scale(0.06 -0.06)">
      <use xlink:href="#DejaVuSans-50"/>
      <use x="63.623047" xlink:href="#DejaVuSans-46"/>
      <use x="95.410156" xlink:href="#DejaVuSans-48"/>
      <use x="159.033203" xlink:href="#DejaVuSans-48"/>
      <use x="222.65625" xlink:href="#DejaVuSans-48"/>
     </g>
    </g>
   </g>
   <g id="text_19">
    <g clip-path="url(#p36eb0410d9)">
     <!-- 2.500 -->
     <g style="fill:#39558c;" transform="translate(67.561269 106.210398)rotate(-289.80423)scale(0.06 -0.06)">
      <use xlink:href="#DejaVuSans-50"/>
      <use x="63.623047" xlink:href="#DejaVuSans-46"/>
      <use x="95.410156" xlink:href="#DejaVuSans-53"/>
      <use x="159.033203" xlink:href="#DejaVuSans-48"/>
      <use x="222.65625" xlink:href="#DejaVuSans-48"/>
     </g>
    </g>
   </g>
   <g id="text_20">
    <g clip-path="url(#p36eb0410d9)">
     <!-- 3.000 -->
     <g style="fill:#33638d;" transform="translate(71.394739 239.646824)rotate(-69.2723)scale(0.06 -0.06)">
      <defs>
       <path d="M 40.578125 39.3125 
Q 47.65625 37.796875 51.625 33 
Q 55.609375 28.21875 55.609375 21.1875 
Q 55.609375 10.40625 48.1875 4.484375 
Q 40.765625 -1.421875 27.09375 -1.421875 
Q 22.515625 -1.421875 17.65625 -0.515625 
Q 12.796875 0.390625 7.625 2.203125 
L 7.625 11.71875 
Q 11.71875 9.328125 16.59375 8.109375 
Q 21.484375 6.890625 26.8125 6.890625 
Q 36.078125 6.890625 40.9375 10.546875 
Q 45.796875 14.203125 45.796875 21.1875 
Q 45.796875 27.640625 41.28125 31.265625 
Q 36.765625 34.90625 28.71875 34.90625 
L 20.21875 34.90625 
L 20.21875 43.015625 
L 29.109375 43.015625 
Q 36.375 43.015625 40.234375 45.921875 
Q 44.09375 48.828125 44.09375 54.296875 
Q 44.09375 59.90625 40.109375 62.90625 
Q 36.140625 65.921875 28.71875 65.921875 
Q 24.65625 65.921875 20.015625 65.03125 
Q 15.375 64.15625 9.8125 62.3125 
L 9.8125 71.09375 
Q 15.4375 72.65625 20.34375 73.4375 
Q 25.25 74.21875 29.59375 74.21875 
Q 40.828125 74.21875 47.359375 69.109375 
Q 53.90625 64.015625 53.90625 55.328125 
Q 53.90625 49.265625 50.4375 45.09375 
Q 46.96875 40.921875 40.578125 39.3125 
z
" id="DejaVuSans-51"/>
      </defs>
      <use xlink:href="#DejaVuSans-51"/>
      <use x="63.623047" xlink:href="#DejaVuSans-46"/>
      <use x="95.410156" xlink:href="#DejaVuSans-48"/>
      <use x="159.033203" xlink:href="#DejaVuSans-48"/>
      <use x="222.65625" xlink:href="#DejaVuSans-48"/>
     </g>
    </g>
   </g>
   <g id="text_21">
    <g clip-path="url(#p36eb0410d9)">
     <!-- 3.500 -->
     <g style="fill:#2d718e;" transform="translate(70.407362 111.233396)rotate(-285.578586)scale(0.06 -0.06)">
      <use xlink:href="#DejaVuSans-51"/>
      <use x="63.623047" xlink:href="#DejaVuSans-46"/>
      <use x="95.410156" xlink:href="#DejaVuSans-53"/>
      <use x="159.033203" xlink:href="#DejaVuSans-48"/>
      <use x="222.65625" xlink:href="#DejaVuSans-48"/>
     </g>
    </g>
   </g>
   <g id="text_22">
    <g clip-path="url(#p36eb0410d9)">
     <!-- 4.000 -->
     <g style="fill:#287d8e;" transform="translate(65.552237 64.701699)rotate(-302.304831)scale(0.06 -0.06)">
      <use xlink:href="#DejaVuSans-52"/>
      <use x="63.623047" xlink:href="#DejaVuSans-46"/>
      <use x="95.410156" xlink:href="#DejaVuSans-48"/>
      <use x="159.033203" xlink:href="#DejaVuSans-48"/>
      <use x="222.65625" xlink:href="#DejaVuSans-48"/>
     </g>
    </g>
   </g>
   <g id="text_23">
    <g clip-path="url(#p36eb0410d9)">
     <!-- 4.500 -->
     <g style="fill:#238a8d;" transform="translate(75.017501 239.74633)rotate(-74.457925)scale(0.06 -0.06)">
      <use xlink:href="#DejaVuSans-52"/>
      <use x="63.623047" xlink:href="#DejaVuSans-46"/>
      <use x="95.410156" xlink:href="#DejaVuSans-53"/>
      <use x="159.033203" xlink:href="#DejaVuSans-48"/>
      <use x="222.65625" xlink:href="#DejaVuSans-48"/>
     </g>
    </g>
   </g>
   <g id="text_24">
    <g clip-path="url(#p36eb0410d9)">
     <!-- 5.000 -->
     <g style="fill:#1f968b;" transform="translate(71.939694 111.095997)rotate(-283.48337)scale(0.06 -0.06)">
      <use xlink:href="#DejaVuSans-53"/>
      <use x="63.623047" xlink:href="#DejaVuSans-46"/>
      <use x="95.410156" xlink:href="#DejaVuSans-48"/>
      <use x="159.033203" xlink:href="#DejaVuSans-48"/>
      <use x="222.65625" xlink:href="#DejaVuSans-48"/>
     </g>
    </g>
   </g>
   <g id="text_25">
    <g clip-path="url(#p36eb0410d9)">
     <!-- 5.500 -->
     <g style="fill:#20a386;" transform="translate(72.13386 106.335817)rotate(-283.368098)scale(0.06 -0.06)">
      <use xlink:href="#DejaVuSans-53"/>
      <use x="63.623047" xlink:href="#DejaVuSans-46"/>
      <use x="95.410156" xlink:href="#DejaVuSans-53"/>
      <use x="159.033203" xlink:href="#DejaVuSans-48"/>
      <use x="222.65625" xlink:href="#DejaVuSans-48"/>
     </g>
    </g>
   </g>
   <g id="text_26">
    <g clip-path="url(#p36eb0410d9)">
     <!-- 6.000 -->
     <g style="fill:#29af7f;" transform="translate(73.03836 110.845728)rotate(-279.148446)scale(0.06 -0.06)">
      <use xlink:href="#DejaVuSans-54"/>
      <use x="63.623047" xlink:href="#DejaVuSans-46"/>
      <use x="95.410156" xlink:href="#DejaVuSans-48"/>
      <use x="159.033203" xlink:href="#DejaVuSans-48"/>
      <use x="222.65625" xlink:href="#DejaVuSans-48"/>
     </g>
    </g>
   </g>
   <g id="text_27">
    <g clip-path="url(#p36eb0410d9)">
     <!-- 6.500 -->
     <g style="fill:#3dbc74;" transform="translate(73.183864 110.868362)rotate(-279.576334)scale(0.06 -0.06)">
      <use xlink:href="#DejaVuSans-54"/>
      <use x="63.623047" xlink:href="#DejaVuSans-46"/>
      <use x="95.410156" xlink:href="#DejaVuSans-53"/>
      <use x="159.033203" xlink:href="#DejaVuSans-48"/>
      <use x="222.65625" xlink:href="#DejaVuSans-48"/>
     </g>
    </g>
   </g>
   <g id="text_28">
    <g clip-path="url(#p36eb0410d9)">
     <!-- 7.000 -->
     <g style="fill:#56c667;" transform="translate(67.825798 64.431506)rotate(-299.653829)scale(0.06 -0.06)">
      <defs>
       <path d="M 8.203125 72.90625 
L 55.078125 72.90625 
L 55.078125 68.703125 
L 28.609375 0 
L 18.3125 0 
L 43.21875 64.59375 
L 8.203125 64.59375 
z
" id="DejaVuSans-55"/>
      </defs>
      <use xlink:href="#DejaVuSans-55"/>
      <use x="63.623047" xlink:href="#DejaVuSans-46"/>
      <use x="95.410156" xlink:href="#DejaVuSans-48"/>
      <use x="159.033203" xlink:href="#DejaVuSans-48"/>
      <use x="222.65625" xlink:href="#DejaVuSans-48"/>
     </g>
    </g>
   </g>
   <g id="text_29">
    <g clip-path="url(#p36eb0410d9)">
     <!-- 7.500 -->
     <g style="fill:#75d054;" transform="translate(73.691702 110.833749)rotate(-278.918399)scale(0.06 -0.06)">
      <use xlink:href="#DejaVuSans-55"/>
      <use x="63.623047" xlink:href="#DejaVuSans-46"/>
      <use x="95.410156" xlink:href="#DejaVuSans-53"/>
      <use x="159.033203" xlink:href="#DejaVuSans-48"/>
      <use x="222.65625" xlink:href="#DejaVuSans-48"/>
     </g>
    </g>
   </g>
   <g id="text_30">
    <g clip-path="url(#p36eb0410d9)">
     <!-- 8.000 -->
     <g style="fill:#95d840;" transform="translate(69.054113 75.091383)rotate(-299.617428)scale(0.06 -0.06)">
      <use xlink:href="#DejaVuSans-56"/>
      <use x="63.623047" xlink:href="#DejaVuSans-46"/>
      <use x="95.410156" xlink:href="#DejaVuSans-48"/>
      <use x="159.033203" xlink:href="#DejaVuSans-48"/>
      <use x="222.65625" xlink:href="#DejaVuSans-48"/>
     </g>
    </g>
   </g>
   <g id="text_31">
    <g clip-path="url(#p36eb0410d9)">
     <!-- 8.500 -->
     <g style="fill:#bade28;" transform="translate(78.590878 223.778013)rotate(-80.196755)scale(0.06 -0.06)">
      <use xlink:href="#DejaVuSans-56"/>
      <use x="63.623047" xlink:href="#DejaVuSans-46"/>
      <use x="95.410156" xlink:href="#DejaVuSans-53"/>
      <use x="159.033203" xlink:href="#DejaVuSans-48"/>
      <use x="222.65625" xlink:href="#DejaVuSans-48"/>
     </g>
    </g>
   </g>
   <g id="text_32">
    <g clip-path="url(#p36eb0410d9)">
     <!-- 8.500 -->
     <g style="fill:#bade28;" transform="translate(71.654645 95.790043)rotate(-292.792611)scale(0.06 -0.06)">
      <use xlink:href="#DejaVuSans-56"/>
      <use x="63.623047" xlink:href="#DejaVuSans-46"/>
      <use x="95.410156" xlink:href="#DejaVuSans-53"/>
      <use x="159.033203" xlink:href="#DejaVuSans-48"/>
      <use x="222.65625" xlink:href="#DejaVuSans-48"/>
     </g>
    </g>
   </g>
   <g id="text_33">
    <g clip-path="url(#p36eb0410d9)">
     <!-- 9.000 -->
     <g style="fill:#dde318;" transform="translate(78.241977 229.10869)rotate(-77.664195)scale(0.06 -0.06)">
      <use xlink:href="#DejaVuSans-57"/>
      <use x="63.623047" xlink:href="#DejaVuSans-46"/>
      <use x="95.410156" xlink:href="#DejaVuSans-48"/>
      <use x="159.033203" xlink:href="#DejaVuSans-48"/>
      <use x="222.65625" xlink:href="#DejaVuSans-48"/>
     </g>
    </g>
   </g>
   <g id="text_34">
    <g clip-path="url(#p36eb0410d9)">
     <!-- 9.000 -->
     <g style="fill:#dde318;" transform="translate(74.230806 105.424257)rotate(-277.357933)scale(0.06 -0.06)">
      <use xlink:href="#DejaVuSans-57"/>
      <use x="63.623047" xlink:href="#DejaVuSans-46"/>
      <use x="95.410156" xlink:href="#DejaVuSans-48"/>
      <use x="159.033203" xlink:href="#DejaVuSans-48"/>
      <use x="222.65625" xlink:href="#DejaVuSans-48"/>
     </g>
    </g>
   </g>
   <g id="text_35">
    <g clip-path="url(#p36eb0410d9)">
     <!-- 9.500 -->
     <g style="fill:#fde725;" transform="translate(74.457094 110.750721)rotate(-277.247256)scale(0.06 -0.06)">
      <use xlink:href="#DejaVuSans-57"/>
      <use x="63.623047" xlink:href="#DejaVuSans-46"/>
      <use x="95.410156" xlink:href="#DejaVuSans-53"/>
      <use x="159.033203" xlink:href="#DejaVuSans-48"/>
      <use x="222.65625" xlink:href="#DejaVuSans-48"/>
     </g>
    </g>
   </g>
   <g id="text_36">
    <g clip-path="url(#p36eb0410d9)">
     <!-- 10.000 -->
     <g style="fill:#440154;" transform="translate(74.256002 108.883158)rotate(-277.740904)scale(0.06 -0.06)">
      <use xlink:href="#DejaVuSans-49"/>
      <use x="63.623047" xlink:href="#DejaVuSans-48"/>
      <use x="127.246094" xlink:href="#DejaVuSans-46"/>
      <use x="159.033203" xlink:href="#DejaVuSans-48"/>
      <use x="222.65625" xlink:href="#DejaVuSans-48"/>
      <use x="286.279297" xlink:href="#DejaVuSans-48"/>
     </g>
    </g>
   </g>
  </g>
 </g>
 <defs>
  <clipPath id="p36eb0410d9">
   <rect height="266.112" width="357.12" x="49.665988" y="7.2"/>
  </clipPath>
 </defs>
</svg>
