<?xml version="1.0" encoding="utf-8" standalone="no"?>
<!DOCTYPE svg PUBLIC "-//W3C//DTD SVG 1.1//EN"
  "http://www.w3.org/Graphics/SVG/1.1/DTD/svg11.dtd">
<!-- Created with matplotlib (https://matplotlib.org/) -->
<svg height="317.913925pt" version="1.1" viewBox="0 0 413.985987 317.913925" width="413.985987pt" xmlns="http://www.w3.org/2000/svg" xmlns:xlink="http://www.w3.org/1999/xlink">
 <metadata>
  <rdf:RDF xmlns:cc="http://creativecommons.org/ns#" xmlns:dc="http://purl.org/dc/elements/1.1/" xmlns:rdf="http://www.w3.org/1999/02/22-rdf-syntax-ns#">
   <cc:Work>
    <dc:type rdf:resource="http://purl.org/dc/dcmitype/StillImage"/>
    <dc:date>2021-09-18T02:18:51.664369</dc:date>
    <dc:format>image/svg+xml</dc:format>
    <dc:creator>
     <cc:Agent>
      <dc:title>Matplotlib v3.3.1, https://matplotlib.org/</dc:title>
     </cc:Agent>
    </dc:creator>
   </cc:Work>
  </rdf:RDF>
 </metadata>
 <defs>
  <style type="text/css">*{stroke-linecap:butt;stroke-linejoin:round;}</style>
 </defs>
 <g id="figure_1">
  <g id="patch_1">
   <path d="M 0 317.913925 
L 413.985987 317.913925 
L 413.985987 0 
L 0 0 
z
" style="fill:#ffffff;"/>
  </g>
  <g id="axes_1">
   <g id="patch_2">
    <path d="M 49.665988 273.312 
L 406.785988 273.312 
L 406.785988 7.2 
L 49.665988 7.2 
z
" style="fill:#ffffff;"/>
   </g>
   <g id="matplotlib.axis_1">
    <g id="xtick_1">
     <g id="line2d_1">
      <defs>
       <path d="M 0 0 
L 0 3.5 
" id="md37ac90b32" style="stroke:#000000;stroke-width:0.8;"/>
      </defs>
      <g>
       <use style="stroke:#000000;stroke-width:0.8;" x="49.665987" xlink:href="#md37ac90b32" y="273.312"/>
      </g>
     </g>
     <g id="text_1">
      <!-- −10 -->
      <g transform="translate(39.113644 287.910437)scale(0.1 -0.1)">
       <defs>
        <path d="M 10.59375 35.5 
L 73.1875 35.5 
L 73.1875 27.203125 
L 10.59375 27.203125 
z
" id="DejaVuSans-8722"/>
        <path d="M 12.40625 8.296875 
L 28.515625 8.296875 
L 28.515625 63.921875 
L 10.984375 60.40625 
L 10.984375 69.390625 
L 28.421875 72.90625 
L 38.28125 72.90625 
L 38.28125 8.296875 
L 54.390625 8.296875 
L 54.390625 0 
L 12.40625 0 
z
" id="DejaVuSans-49"/>
        <path d="M 31.78125 66.40625 
Q 24.171875 66.40625 20.328125 58.90625 
Q 16.5 51.421875 16.5 36.375 
Q 16.5 21.390625 20.328125 13.890625 
Q 24.171875 6.390625 31.78125 6.390625 
Q 39.453125 6.390625 43.28125 13.890625 
Q 47.125 21.390625 47.125 36.375 
Q 47.125 51.421875 43.28125 58.90625 
Q 39.453125 66.40625 31.78125 66.40625 
z
M 31.78125 74.21875 
Q 44.046875 74.21875 50.515625 64.515625 
Q 56.984375 54.828125 56.984375 36.375 
Q 56.984375 17.96875 50.515625 8.265625 
Q 44.046875 -1.421875 31.78125 -1.421875 
Q 19.53125 -1.421875 13.0625 8.265625 
Q 6.59375 17.96875 6.59375 36.375 
Q 6.59375 54.828125 13.0625 64.515625 
Q 19.53125 74.21875 31.78125 74.21875 
z
" id="DejaVuSans-48"/>
       </defs>
       <use xlink:href="#DejaVuSans-8722"/>
       <use x="83.789062" xlink:href="#DejaVuSans-49"/>
       <use x="147.412109" xlink:href="#DejaVuSans-48"/>
      </g>
     </g>
    </g>
    <g id="xtick_2">
     <g id="line2d_2">
      <g>
       <use style="stroke:#000000;stroke-width:0.8;" x="109.839614" xlink:href="#md37ac90b32" y="273.312"/>
      </g>
     </g>
     <g id="text_2">
      <!-- 0 -->
      <g transform="translate(106.658364 287.910437)scale(0.1 -0.1)">
       <use xlink:href="#DejaVuSans-48"/>
      </g>
     </g>
    </g>
    <g id="xtick_3">
     <g id="line2d_3">
      <g>
       <use style="stroke:#000000;stroke-width:0.8;" x="170.01324" xlink:href="#md37ac90b32" y="273.312"/>
      </g>
     </g>
     <g id="text_3">
      <!-- 10 -->
      <g transform="translate(163.65074 287.910437)scale(0.1 -0.1)">
       <use xlink:href="#DejaVuSans-49"/>
       <use x="63.623047" xlink:href="#DejaVuSans-48"/>
      </g>
     </g>
    </g>
    <g id="xtick_4">
     <g id="line2d_4">
      <g>
       <use style="stroke:#000000;stroke-width:0.8;" x="230.186867" xlink:href="#md37ac90b32" y="273.312"/>
      </g>
     </g>
     <g id="text_4">
      <!-- 20 -->
      <g transform="translate(223.824367 287.910437)scale(0.1 -0.1)">
       <defs>
        <path d="M 19.1875 8.296875 
L 53.609375 8.296875 
L 53.609375 0 
L 7.328125 0 
L 7.328125 8.296875 
Q 12.9375 14.109375 22.625 23.890625 
Q 32.328125 33.6875 34.8125 36.53125 
Q 39.546875 41.84375 41.421875 45.53125 
Q 43.3125 49.21875 43.3125 52.78125 
Q 43.3125 58.59375 39.234375 62.25 
Q 35.15625 65.921875 28.609375 65.921875 
Q 23.96875 65.921875 18.8125 64.3125 
Q 13.671875 62.703125 7.8125 59.421875 
L 7.8125 69.390625 
Q 13.765625 71.78125 18.9375 73 
Q 24.125 74.21875 28.421875 74.21875 
Q 39.75 74.21875 46.484375 68.546875 
Q 53.21875 62.890625 53.21875 53.421875 
Q 53.21875 48.921875 51.53125 44.890625 
Q 49.859375 40.875 45.40625 35.40625 
Q 44.1875 33.984375 37.640625 27.21875 
Q 31.109375 20.453125 19.1875 8.296875 
z
" id="DejaVuSans-50"/>
       </defs>
       <use xlink:href="#DejaVuSans-50"/>
       <use x="63.623047" xlink:href="#DejaVuSans-48"/>
      </g>
     </g>
    </g>
    <g id="xtick_5">
     <g id="line2d_5">
      <g>
       <use style="stroke:#000000;stroke-width:0.8;" x="290.360493" xlink:href="#md37ac90b32" y="273.312"/>
      </g>
     </g>
     <g id="text_5">
      <!-- 30 -->
      <g transform="translate(283.997993 287.910437)scale(0.1 -0.1)">
       <defs>
        <path d="M 40.578125 39.3125 
Q 47.65625 37.796875 51.625 33 
Q 55.609375 28.21875 55.609375 21.1875 
Q 55.609375 10.40625 48.1875 4.484375 
Q 40.765625 -1.421875 27.09375 -1.421875 
Q 22.515625 -1.421875 17.65625 -0.515625 
Q 12.796875 0.390625 7.625 2.203125 
L 7.625 11.71875 
Q 11.71875 9.328125 16.59375 8.109375 
Q 21.484375 6.890625 26.8125 6.890625 
Q 36.078125 6.890625 40.9375 10.546875 
Q 45.796875 14.203125 45.796875 21.1875 
Q 45.796875 27.640625 41.28125 31.265625 
Q 36.765625 34.90625 28.71875 34.90625 
L 20.21875 34.90625 
L 20.21875 43.015625 
L 29.109375 43.015625 
Q 36.375 43.015625 40.234375 45.921875 
Q 44.09375 48.828125 44.09375 54.296875 
Q 44.09375 59.90625 40.109375 62.90625 
Q 36.140625 65.921875 28.71875 65.921875 
Q 24.65625 65.921875 20.015625 65.03125 
Q 15.375 64.15625 9.8125 62.3125 
L 9.8125 71.09375 
Q 15.4375 72.65625 20.34375 73.4375 
Q 25.25 74.21875 29.59375 74.21875 
Q 40.828125 74.21875 47.359375 69.109375 
Q 53.90625 64.015625 53.90625 55.328125 
Q 53.90625 49.265625 50.4375 45.09375 
Q 46.96875 40.921875 40.578125 39.3125 
z
" id="DejaVuSans-51"/>
       </defs>
       <use xlink:href="#DejaVuSans-51"/>
       <use x="63.623047" xlink:href="#DejaVuSans-48"/>
      </g>
     </g>
    </g>
    <g id="xtick_6">
     <g id="line2d_6">
      <g>
       <use style="stroke:#000000;stroke-width:0.8;" x="350.53412" xlink:href="#md37ac90b32" y="273.312"/>
      </g>
     </g>
     <g id="text_6">
      <!-- 40 -->
      <g transform="translate(344.17162 287.910437)scale(0.1 -0.1)">
       <defs>
        <path d="M 37.796875 64.3125 
L 12.890625 25.390625 
L 37.796875 25.390625 
z
M 35.203125 72.90625 
L 47.609375 72.90625 
L 47.609375 25.390625 
L 58.015625 25.390625 
L 58.015625 17.1875 
L 47.609375 17.1875 
L 47.609375 0 
L 37.796875 0 
L 37.796875 17.1875 
L 4.890625 17.1875 
L 4.890625 26.703125 
z
" id="DejaVuSans-52"/>
       </defs>
       <use xlink:href="#DejaVuSans-52"/>
       <use x="63.623047" xlink:href="#DejaVuSans-48"/>
      </g>
     </g>
    </g>
    <g id="text_7">
     <!-- 1st PC: 88.90 % -->
     <g transform="translate(159.505587 307.120225)scale(0.1728 -0.1728)">
      <defs>
       <path d="M 44.28125 53.078125 
L 44.28125 44.578125 
Q 40.484375 46.53125 36.375 47.5 
Q 32.28125 48.484375 27.875 48.484375 
Q 21.1875 48.484375 17.84375 46.4375 
Q 14.5 44.390625 14.5 40.28125 
Q 14.5 37.15625 16.890625 35.375 
Q 19.28125 33.59375 26.515625 31.984375 
L 29.59375 31.296875 
Q 39.15625 29.25 43.1875 25.515625 
Q 47.21875 21.78125 47.21875 15.09375 
Q 47.21875 7.46875 41.1875 3.015625 
Q 35.15625 -1.421875 24.609375 -1.421875 
Q 20.21875 -1.421875 15.453125 -0.5625 
Q 10.6875 0.296875 5.421875 2 
L 5.421875 11.28125 
Q 10.40625 8.6875 15.234375 7.390625 
Q 20.0625 6.109375 24.8125 6.109375 
Q 31.15625 6.109375 34.5625 8.28125 
Q 37.984375 10.453125 37.984375 14.40625 
Q 37.984375 18.0625 35.515625 20.015625 
Q 33.0625 21.96875 24.703125 23.78125 
L 21.578125 24.515625 
Q 13.234375 26.265625 9.515625 29.90625 
Q 5.8125 33.546875 5.8125 39.890625 
Q 5.8125 47.609375 11.28125 51.796875 
Q 16.75 56 26.8125 56 
Q 31.78125 56 36.171875 55.265625 
Q 40.578125 54.546875 44.28125 53.078125 
z
" id="DejaVuSans-115"/>
       <path d="M 18.3125 70.21875 
L 18.3125 54.6875 
L 36.8125 54.6875 
L 36.8125 47.703125 
L 18.3125 47.703125 
L 18.3125 18.015625 
Q 18.3125 11.328125 20.140625 9.421875 
Q 21.96875 7.515625 27.59375 7.515625 
L 36.8125 7.515625 
L 36.8125 0 
L 27.59375 0 
Q 17.1875 0 13.234375 3.875 
Q 9.28125 7.765625 9.28125 18.015625 
L 9.28125 47.703125 
L 2.6875 47.703125 
L 2.6875 54.6875 
L 9.28125 54.6875 
L 9.28125 70.21875 
z
" id="DejaVuSans-116"/>
       <path id="DejaVuSans-32"/>
       <path d="M 19.671875 64.796875 
L 19.671875 37.40625 
L 32.078125 37.40625 
Q 38.96875 37.40625 42.71875 40.96875 
Q 46.484375 44.53125 46.484375 51.125 
Q 46.484375 57.671875 42.71875 61.234375 
Q 38.96875 64.796875 32.078125 64.796875 
z
M 9.8125 72.90625 
L 32.078125 72.90625 
Q 44.34375 72.90625 50.609375 67.359375 
Q 56.890625 61.8125 56.890625 51.125 
Q 56.890625 40.328125 50.609375 34.8125 
Q 44.34375 29.296875 32.078125 29.296875 
L 19.671875 29.296875 
L 19.671875 0 
L 9.8125 0 
z
" id="DejaVuSans-80"/>
       <path d="M 64.40625 67.28125 
L 64.40625 56.890625 
Q 59.421875 61.53125 53.78125 63.8125 
Q 48.140625 66.109375 41.796875 66.109375 
Q 29.296875 66.109375 22.65625 58.46875 
Q 16.015625 50.828125 16.015625 36.375 
Q 16.015625 21.96875 22.65625 14.328125 
Q 29.296875 6.6875 41.796875 6.6875 
Q 48.140625 6.6875 53.78125 8.984375 
Q 59.421875 11.28125 64.40625 15.921875 
L 64.40625 5.609375 
Q 59.234375 2.09375 53.4375 0.328125 
Q 47.65625 -1.421875 41.21875 -1.421875 
Q 24.65625 -1.421875 15.125 8.703125 
Q 5.609375 18.84375 5.609375 36.375 
Q 5.609375 53.953125 15.125 64.078125 
Q 24.65625 74.21875 41.21875 74.21875 
Q 47.75 74.21875 53.53125 72.484375 
Q 59.328125 70.75 64.40625 67.28125 
z
" id="DejaVuSans-67"/>
       <path d="M 11.71875 12.40625 
L 22.015625 12.40625 
L 22.015625 0 
L 11.71875 0 
z
M 11.71875 51.703125 
L 22.015625 51.703125 
L 22.015625 39.3125 
L 11.71875 39.3125 
z
" id="DejaVuSans-58"/>
       <path d="M 31.78125 34.625 
Q 24.75 34.625 20.71875 30.859375 
Q 16.703125 27.09375 16.703125 20.515625 
Q 16.703125 13.921875 20.71875 10.15625 
Q 24.75 6.390625 31.78125 6.390625 
Q 38.8125 6.390625 42.859375 10.171875 
Q 46.921875 13.96875 46.921875 20.515625 
Q 46.921875 27.09375 42.890625 30.859375 
Q 38.875 34.625 31.78125 34.625 
z
M 21.921875 38.8125 
Q 15.578125 40.375 12.03125 44.71875 
Q 8.5 49.078125 8.5 55.328125 
Q 8.5 64.0625 14.71875 69.140625 
Q 20.953125 74.21875 31.78125 74.21875 
Q 42.671875 74.21875 48.875 69.140625 
Q 55.078125 64.0625 55.078125 55.328125 
Q 55.078125 49.078125 51.53125 44.71875 
Q 48 40.375 41.703125 38.8125 
Q 48.828125 37.15625 52.796875 32.3125 
Q 56.78125 27.484375 56.78125 20.515625 
Q 56.78125 9.90625 50.3125 4.234375 
Q 43.84375 -1.421875 31.78125 -1.421875 
Q 19.734375 -1.421875 13.25 4.234375 
Q 6.78125 9.90625 6.78125 20.515625 
Q 6.78125 27.484375 10.78125 32.3125 
Q 14.796875 37.15625 21.921875 38.8125 
z
M 18.3125 54.390625 
Q 18.3125 48.734375 21.84375 45.5625 
Q 25.390625 42.390625 31.78125 42.390625 
Q 38.140625 42.390625 41.71875 45.5625 
Q 45.3125 48.734375 45.3125 54.390625 
Q 45.3125 60.0625 41.71875 63.234375 
Q 38.140625 66.40625 31.78125 66.40625 
Q 25.390625 66.40625 21.84375 63.234375 
Q 18.3125 60.0625 18.3125 54.390625 
z
" id="DejaVuSans-56"/>
       <path d="M 10.6875 12.40625 
L 21 12.40625 
L 21 0 
L 10.6875 0 
z
" id="DejaVuSans-46"/>
       <path d="M 10.984375 1.515625 
L 10.984375 10.5 
Q 14.703125 8.734375 18.5 7.8125 
Q 22.3125 6.890625 25.984375 6.890625 
Q 35.75 6.890625 40.890625 13.453125 
Q 46.046875 20.015625 46.78125 33.40625 
Q 43.953125 29.203125 39.59375 26.953125 
Q 35.25 24.703125 29.984375 24.703125 
Q 19.046875 24.703125 12.671875 31.3125 
Q 6.296875 37.9375 6.296875 49.421875 
Q 6.296875 60.640625 12.9375 67.421875 
Q 19.578125 74.21875 30.609375 74.21875 
Q 43.265625 74.21875 49.921875 64.515625 
Q 56.59375 54.828125 56.59375 36.375 
Q 56.59375 19.140625 48.40625 8.859375 
Q 40.234375 -1.421875 26.421875 -1.421875 
Q 22.703125 -1.421875 18.890625 -0.6875 
Q 15.09375 0.046875 10.984375 1.515625 
z
M 30.609375 32.421875 
Q 37.25 32.421875 41.125 36.953125 
Q 45.015625 41.5 45.015625 49.421875 
Q 45.015625 57.28125 41.125 61.84375 
Q 37.25 66.40625 30.609375 66.40625 
Q 23.96875 66.40625 20.09375 61.84375 
Q 16.21875 57.28125 16.21875 49.421875 
Q 16.21875 41.5 20.09375 36.953125 
Q 23.96875 32.421875 30.609375 32.421875 
z
" id="DejaVuSans-57"/>
       <path d="M 72.703125 32.078125 
Q 68.453125 32.078125 66.03125 28.46875 
Q 63.625 24.859375 63.625 18.40625 
Q 63.625 12.0625 66.03125 8.421875 
Q 68.453125 4.78125 72.703125 4.78125 
Q 76.859375 4.78125 79.265625 8.421875 
Q 81.6875 12.0625 81.6875 18.40625 
Q 81.6875 24.8125 79.265625 28.4375 
Q 76.859375 32.078125 72.703125 32.078125 
z
M 72.703125 38.28125 
Q 80.421875 38.28125 84.953125 32.90625 
Q 89.5 27.546875 89.5 18.40625 
Q 89.5 9.28125 84.9375 3.921875 
Q 80.375 -1.421875 72.703125 -1.421875 
Q 64.890625 -1.421875 60.34375 3.921875 
Q 55.8125 9.28125 55.8125 18.40625 
Q 55.8125 27.59375 60.375 32.9375 
Q 64.9375 38.28125 72.703125 38.28125 
z
M 22.3125 68.015625 
Q 18.109375 68.015625 15.6875 64.375 
Q 13.28125 60.75 13.28125 54.390625 
Q 13.28125 47.953125 15.671875 44.328125 
Q 18.0625 40.71875 22.3125 40.71875 
Q 26.5625 40.71875 28.96875 44.328125 
Q 31.390625 47.953125 31.390625 54.390625 
Q 31.390625 60.6875 28.953125 64.34375 
Q 26.515625 68.015625 22.3125 68.015625 
z
M 66.40625 74.21875 
L 74.21875 74.21875 
L 28.609375 -1.421875 
L 20.796875 -1.421875 
z
M 22.3125 74.21875 
Q 30.03125 74.21875 34.609375 68.875 
Q 39.203125 63.53125 39.203125 54.390625 
Q 39.203125 45.171875 34.640625 39.84375 
Q 30.078125 34.515625 22.3125 34.515625 
Q 14.546875 34.515625 10.03125 39.859375 
Q 5.515625 45.21875 5.515625 54.390625 
Q 5.515625 63.484375 10.046875 68.84375 
Q 14.59375 74.21875 22.3125 74.21875 
z
" id="DejaVuSans-37"/>
      </defs>
      <use xlink:href="#DejaVuSans-49"/>
      <use x="63.623047" xlink:href="#DejaVuSans-115"/>
      <use x="115.722656" xlink:href="#DejaVuSans-116"/>
      <use x="154.931641" xlink:href="#DejaVuSans-32"/>
      <use x="186.71875" xlink:href="#DejaVuSans-80"/>
      <use x="247.021484" xlink:href="#DejaVuSans-67"/>
      <use x="316.845703" xlink:href="#DejaVuSans-58"/>
      <use x="350.537109" xlink:href="#DejaVuSans-32"/>
      <use x="382.324219" xlink:href="#DejaVuSans-56"/>
      <use x="445.947266" xlink:href="#DejaVuSans-56"/>
      <use x="509.570312" xlink:href="#DejaVuSans-46"/>
      <use x="541.357422" xlink:href="#DejaVuSans-57"/>
      <use x="604.980469" xlink:href="#DejaVuSans-48"/>
      <use x="668.603516" xlink:href="#DejaVuSans-32"/>
      <use x="700.390625" xlink:href="#DejaVuSans-37"/>
     </g>
    </g>
   </g>
   <g id="matplotlib.axis_2">
    <g id="ytick_1">
     <g id="line2d_7">
      <defs>
       <path d="M 0 0 
L -3.5 0 
" id="mdf8a8a6cdf" style="stroke:#000000;stroke-width:0.8;"/>
      </defs>
      <g>
       <use style="stroke:#000000;stroke-width:0.8;" x="49.665988" xlink:href="#mdf8a8a6cdf" y="273.312"/>
      </g>
     </g>
     <g id="text_8">
      <!-- −2 -->
      <g transform="translate(27.9238 277.111219)scale(0.1 -0.1)">
       <use xlink:href="#DejaVuSans-8722"/>
       <use x="83.789062" xlink:href="#DejaVuSans-50"/>
      </g>
     </g>
    </g>
    <g id="ytick_2">
     <g id="line2d_8">
      <g>
       <use style="stroke:#000000;stroke-width:0.8;" x="49.665988" xlink:href="#mdf8a8a6cdf" y="224.639098"/>
      </g>
     </g>
     <g id="text_9">
      <!-- 0 -->
      <g transform="translate(36.303488 228.438317)scale(0.1 -0.1)">
       <use xlink:href="#DejaVuSans-48"/>
      </g>
     </g>
    </g>
    <g id="ytick_3">
     <g id="line2d_9">
      <g>
       <use style="stroke:#000000;stroke-width:0.8;" x="49.665988" xlink:href="#mdf8a8a6cdf" y="175.966196"/>
      </g>
     </g>
     <g id="text_10">
      <!-- 2 -->
      <g transform="translate(36.303488 179.765414)scale(0.1 -0.1)">
       <use xlink:href="#DejaVuSans-50"/>
      </g>
     </g>
    </g>
    <g id="ytick_4">
     <g id="line2d_10">
      <g>
       <use style="stroke:#000000;stroke-width:0.8;" x="49.665988" xlink:href="#mdf8a8a6cdf" y="127.293293"/>
      </g>
     </g>
     <g id="text_11">
      <!-- 4 -->
      <g transform="translate(36.303488 131.092512)scale(0.1 -0.1)">
       <use xlink:href="#DejaVuSans-52"/>
      </g>
     </g>
    </g>
    <g id="ytick_5">
     <g id="line2d_11">
      <g>
       <use style="stroke:#000000;stroke-width:0.8;" x="49.665988" xlink:href="#mdf8a8a6cdf" y="78.620391"/>
      </g>
     </g>
     <g id="text_12">
      <!-- 6 -->
      <g transform="translate(36.303488 82.41961)scale(0.1 -0.1)">
       <defs>
        <path d="M 33.015625 40.375 
Q 26.375 40.375 22.484375 35.828125 
Q 18.609375 31.296875 18.609375 23.390625 
Q 18.609375 15.53125 22.484375 10.953125 
Q 26.375 6.390625 33.015625 6.390625 
Q 39.65625 6.390625 43.53125 10.953125 
Q 47.40625 15.53125 47.40625 23.390625 
Q 47.40625 31.296875 43.53125 35.828125 
Q 39.65625 40.375 33.015625 40.375 
z
M 52.59375 71.296875 
L 52.59375 62.3125 
Q 48.875 64.0625 45.09375 64.984375 
Q 41.3125 65.921875 37.59375 65.921875 
Q 27.828125 65.921875 22.671875 59.328125 
Q 17.53125 52.734375 16.796875 39.40625 
Q 19.671875 43.65625 24.015625 45.921875 
Q 28.375 48.1875 33.59375 48.1875 
Q 44.578125 48.1875 50.953125 41.515625 
Q 57.328125 34.859375 57.328125 23.390625 
Q 57.328125 12.15625 50.6875 5.359375 
Q 44.046875 -1.421875 33.015625 -1.421875 
Q 20.359375 -1.421875 13.671875 8.265625 
Q 6.984375 17.96875 6.984375 36.375 
Q 6.984375 53.65625 15.1875 63.9375 
Q 23.390625 74.21875 37.203125 74.21875 
Q 40.921875 74.21875 44.703125 73.484375 
Q 48.484375 72.75 52.59375 71.296875 
z
" id="DejaVuSans-54"/>
       </defs>
       <use xlink:href="#DejaVuSans-54"/>
      </g>
     </g>
    </g>
    <g id="ytick_6">
     <g id="line2d_12">
      <g>
       <use style="stroke:#000000;stroke-width:0.8;" x="49.665988" xlink:href="#mdf8a8a6cdf" y="29.947489"/>
      </g>
     </g>
     <g id="text_13">
      <!-- 8 -->
      <g transform="translate(36.303488 33.746708)scale(0.1 -0.1)">
       <use xlink:href="#DejaVuSans-56"/>
      </g>
     </g>
    </g>
    <g id="text_14">
     <!-- 2nd PC: 7.69 % -->
     <g transform="translate(20.3301 206.5518)rotate(-90)scale(0.1728 -0.1728)">
      <defs>
       <path d="M 54.890625 33.015625 
L 54.890625 0 
L 45.90625 0 
L 45.90625 32.71875 
Q 45.90625 40.484375 42.875 44.328125 
Q 39.84375 48.1875 33.796875 48.1875 
Q 26.515625 48.1875 22.3125 43.546875 
Q 18.109375 38.921875 18.109375 30.90625 
L 18.109375 0 
L 9.078125 0 
L 9.078125 54.6875 
L 18.109375 54.6875 
L 18.109375 46.1875 
Q 21.34375 51.125 25.703125 53.5625 
Q 30.078125 56 35.796875 56 
Q 45.21875 56 50.046875 50.171875 
Q 54.890625 44.34375 54.890625 33.015625 
z
" id="DejaVuSans-110"/>
       <path d="M 45.40625 46.390625 
L 45.40625 75.984375 
L 54.390625 75.984375 
L 54.390625 0 
L 45.40625 0 
L 45.40625 8.203125 
Q 42.578125 3.328125 38.25 0.953125 
Q 33.9375 -1.421875 27.875 -1.421875 
Q 17.96875 -1.421875 11.734375 6.484375 
Q 5.515625 14.40625 5.515625 27.296875 
Q 5.515625 40.1875 11.734375 48.09375 
Q 17.96875 56 27.875 56 
Q 33.9375 56 38.25 53.625 
Q 42.578125 51.265625 45.40625 46.390625 
z
M 14.796875 27.296875 
Q 14.796875 17.390625 18.875 11.75 
Q 22.953125 6.109375 30.078125 6.109375 
Q 37.203125 6.109375 41.296875 11.75 
Q 45.40625 17.390625 45.40625 27.296875 
Q 45.40625 37.203125 41.296875 42.84375 
Q 37.203125 48.484375 30.078125 48.484375 
Q 22.953125 48.484375 18.875 42.84375 
Q 14.796875 37.203125 14.796875 27.296875 
z
" id="DejaVuSans-100"/>
       <path d="M 8.203125 72.90625 
L 55.078125 72.90625 
L 55.078125 68.703125 
L 28.609375 0 
L 18.3125 0 
L 43.21875 64.59375 
L 8.203125 64.59375 
z
" id="DejaVuSans-55"/>
      </defs>
      <use xlink:href="#DejaVuSans-50"/>
      <use x="63.623047" xlink:href="#DejaVuSans-110"/>
      <use x="127.001953" xlink:href="#DejaVuSans-100"/>
      <use x="190.478516" xlink:href="#DejaVuSans-32"/>
      <use x="222.265625" xlink:href="#DejaVuSans-80"/>
      <use x="282.568359" xlink:href="#DejaVuSans-67"/>
      <use x="352.392578" xlink:href="#DejaVuSans-58"/>
      <use x="386.083984" xlink:href="#DejaVuSans-32"/>
      <use x="417.871094" xlink:href="#DejaVuSans-55"/>
      <use x="481.494141" xlink:href="#DejaVuSans-46"/>
      <use x="513.28125" xlink:href="#DejaVuSans-54"/>
      <use x="576.904297" xlink:href="#DejaVuSans-57"/>
      <use x="640.527344" xlink:href="#DejaVuSans-32"/>
      <use x="672.314453" xlink:href="#DejaVuSans-37"/>
     </g>
    </g>
   </g>
   <g id="LineCollection_1"/>
   <g id="LineCollection_2"/>
   <g id="LineCollection_3"/>
   <g id="LineCollection_4"/>
   <g id="LineCollection_5"/>
   <g id="LineCollection_6">
    <path clip-path="url(#p691ed4f607)" d="M 107.110963 273.312 
L 105.828039 272.072524 
L 103.845496 270.06714 
L 101.816464 267.85407 
L 100.980341 266.82228 
L 98.575794 263.57742 
L 97.804889 262.434993 
L 96.674575 260.332559 
L 95.123508 257.087699 
L 93.793314 253.91677 
L 93.770808 253.842839 
L 93.260244 251.837454 
" style="fill:none;stroke:#39558c;stroke-width:1.5;"/>
    <path clip-path="url(#p691ed4f607)" d="M 91.66377 242.794808 
L 91.472952 240.863399 
L 91.323052 237.618538 
L 91.341344 234.373678 
L 91.525969 231.128818 
L 91.86775 227.883958 
L 92.355087 224.639098 
L 92.969387 221.394238 
L 93.689719 218.149377 
L 93.793314 217.765889 
L 94.829479 214.904517 
L 96.080016 211.659657 
L 97.334756 208.414797 
L 97.804889 207.267661 
L 98.941323 205.169937 
L 100.619755 201.925077 
L 101.816464 199.343126 
L 102.222087 198.680217 
L 104.161338 195.435356 
L 105.752087 192.190496 
L 105.828039 192.034235 
L 107.707205 188.945636 
L 109.30875 185.700776 
L 109.839614 184.526081 
L 111.02898 182.455916 
L 112.626763 179.211056 
L 113.851189 176.10731 
L 113.929396 175.966196 
" style="fill:none;stroke:#39558c;stroke-width:1.5;"/>
   </g>
   <g id="LineCollection_7">
    <path clip-path="url(#p691ed4f607)" d="M 86.357852 273.312 
L 85.770163 272.029682 
L 85.160008 270.06714 
L 84.250888 266.82228 
L 83.452087 263.57742 
L 82.774753 260.332559 
L 82.227217 257.087699 
L 81.814939 253.842839 
L 81.758588 253.179203 
L 81.633652 250.597979 
L 81.557932 247.353119 
L 81.559272 245.471569 
" style="fill:none;stroke:#33638d;stroke-width:1.5;"/>
    <path clip-path="url(#p691ed4f607)" d="M 81.940094 236.268696 
L 82.152915 234.373678 
L 82.629141 231.128818 
L 83.204077 227.883958 
L 83.857877 224.639098 
L 84.565366 221.394238 
L 85.299726 218.149377 
L 85.770163 216.174217 
L 86.250983 214.904517 
L 87.590111 211.659657 
L 88.892908 208.414797 
L 89.781738 206.155438 
L 90.313906 205.169937 
L 92.127307 201.925077 
L 93.722231 198.680217 
L 93.793314 198.537917 
L 95.708618 195.435356 
L 97.403932 192.190496 
L 97.804889 191.391645 
L 99.327968 188.945636 
L 101.083173 185.700776 
L 101.816464 184.216046 
L 102.915445 182.455916 
L 104.740048 179.211056 
L 105.828039 176.983551 
L 106.434167 175.966196 
" style="fill:none;stroke:#33638d;stroke-width:1.5;"/>
   </g>
   <g id="LineCollection_8">
    <path clip-path="url(#p691ed4f607)" d="M 79.62452 273.312 
L 78.917081 270.06714 
L 78.297899 266.82228 
L 77.781664 263.57742 
L 77.747013 263.298535 
L 77.538944 260.332559 
L 77.376332 257.087699 
L 77.280033 253.842839 
L 77.250534 250.597979 
L 77.2881 247.353119 
L 77.391265 244.108259 
L 77.555566 240.863399 
L 77.747013 238.04614 
L 77.794439 237.618538 
L 78.255868 234.373678 
L 78.793082 231.128818 
L 79.397705 227.883958 
L 80.054697 224.639098 
L 80.744938 221.394238 
L 81.449402 218.149377 
L 81.758588 216.838233 
L 82.485378 214.904517 
L 83.725727 211.659657 
L 84.872732 208.414797 
L 85.770163 205.670261 
L 86.035637 205.169937 
L 87.838991 201.925077 
L 89.383295 198.680217 
L 89.781738 197.803378 
L 91.286795 195.435356 
L 93.082426 192.190496 
L 93.793314 190.754729 
L 94.93535 188.945636 
L 96.792863 185.700776 
L 97.804889 183.700621 
L 98.583679 182.455916 
L 99.710304 180.527411 
" style="fill:none;stroke:#2d718e;stroke-width:1.5;"/>
   </g>
   <g id="LineCollection_9">
    <path clip-path="url(#p691ed4f607)" d="M 76.114965 273.312 
L 75.665392 270.06714 
L 75.276588 266.82228 
L 74.961179 263.57742 
L 74.725785 260.332559 
L 74.573517 257.087699 
L 74.509041 253.842839 
L 74.532389 250.597979 
L 74.642259 247.353119 
L 74.838649 244.108259 
L 75.116495 240.863399 
L 75.322566 238.943464 
" style="fill:none;stroke:#287d8e;stroke-width:1.5;"/>
    <path clip-path="url(#p691ed4f607)" d="M 76.551279 229.823457 
L 76.861742 227.883958 
L 77.428185 224.639098 
L 77.747013 223.008719 
L 78.216342 221.394238 
L 79.224917 218.149377 
L 80.219866 214.904517 
L 81.183877 211.659657 
L 81.758588 209.749719 
L 82.364135 208.414797 
L 83.838404 205.169937 
L 85.127895 201.925077 
L 85.770163 200.211165 
L 86.687808 198.680217 
L 88.493545 195.435356 
L 89.781738 192.589947 
L 90.038472 192.190496 
L 92.071931 188.945636 
L 93.675748 185.700776 
L 93.793314 185.452677 
L 95.703785 182.455916 
L 97.424858 179.211056 
L 97.804889 178.450897 
L 99.363816 175.966196 
" style="fill:none;stroke:#287d8e;stroke-width:1.5;"/>
   </g>
   <g id="LineCollection_10">
    <path clip-path="url(#p691ed4f607)" d="M 73.157671 268.723497 
L 73.007486 266.82228 
L 72.800138 263.57742 
L 72.647581 260.332559 
L 72.55325 257.087699 
L 72.523863 253.842839 
L 72.561409 250.597979 
L 72.665529 247.353119 
L 72.836909 244.108259 
L 73.073814 240.863399 
L 73.369385 237.618538 
L 73.717132 234.373678 
L 73.735438 234.232564 
L 74.324537 231.128818 
L 75.00003 227.883958 
L 75.727187 224.639098 
L 76.494574 221.394238 
L 77.285663 218.149377 
L 77.747013 216.373576 
L 78.284391 214.904517 
L 79.519817 211.659657 
L 80.685609 208.414797 
L 81.758588 205.197207 
L 81.771875 205.169937 
L 83.442696 201.925077 
L 84.870176 198.680217 
L 85.770163 196.378219 
L 86.349398 195.435356 
L 88.231278 192.190496 
L 89.70021 188.945636 
L 89.781738 188.759154 
L 91.730178 185.700776 
L 93.374947 182.455916 
L 93.793314 181.550797 
L 95.28642 179.211056 
L 97.076561 175.966196 
" style="fill:none;stroke:#238a8d;stroke-width:1.5;"/>
   </g>
   <g id="LineCollection_11">
    <path clip-path="url(#p691ed4f607)" d="M 71.998716 273.312 
L 71.665104 270.06714 
L 71.37389 266.82228 
L 71.139062 263.57742 
L 70.968684 260.332559 
L 70.866787 257.087699 
L 70.843036 253.842839 
L 70.900368 250.597979 
L 71.03771 247.353119 
L 71.254466 244.108259 
L 71.548551 240.863399 
L 71.764355 238.940397 
" style="fill:none;stroke:#1f968b;stroke-width:1.5;"/>
    <path clip-path="url(#p691ed4f607)" d="M 73.031579 229.826522 
L 73.34902 227.883958 
L 73.735438 225.767186 
L 74.02619 224.639098 
L 74.956691 221.394238 
L 75.91104 218.149377 
L 76.869423 214.904517 
L 77.747013 211.928856 
L 77.855758 211.659657 
L 79.271209 208.414797 
L 80.576092 205.169937 
L 81.757946 201.925077 
L 81.758588 201.923436 
L 83.505654 198.680217 
L 84.968436 195.435356 
L 85.770163 193.433973 
L 86.538003 192.190496 
L 88.365078 188.945636 
L 89.781738 185.70528 
L 89.784608 185.700776 
L 91.82604 182.455916 
L 93.421658 179.211056 
L 93.793314 178.388946 
L 95.338781 175.966196 
" style="fill:none;stroke:#1f968b;stroke-width:1.5;"/>
   </g>
   <g id="LineCollection_12">
    <path clip-path="url(#p691ed4f607)" d="M 70.438806 273.312 
L 70.066399 270.06714 
L 69.740293 266.82228 
L 69.723863 266.615829 
L 69.570369 263.57742 
L 69.450712 260.332559 
L 69.379636 257.087699 
L 69.365622 253.842839 
L 69.412564 250.597979 
L 69.52094 247.353119 
L 69.690189 244.108259 
L 69.723863 243.644219 
L 70.023289 240.863399 
L 70.456011 237.618538 
L 70.958969 234.373678 
L 71.524117 231.128818 
L 72.14424 227.883958 
L 72.814052 224.639098 
L 73.526482 221.394238 
L 73.735438 220.547046 
L 74.536417 218.149377 
L 75.654518 214.904517 
L 76.754211 211.659657 
L 77.747013 208.663632 
L 77.85681 208.414797 
L 79.385945 205.169937 
L 80.765899 201.925077 
L 81.758588 199.390365 
L 82.141133 198.680217 
L 83.869958 195.435356 
L 85.288508 192.190496 
L 85.770163 191.000353 
L 87.029946 188.945636 
L 88.728597 185.700776 
L 89.781738 183.243121 
L 90.277133 182.455916 
L 91.702872 180.037516 
" style="fill:none;stroke:#20a386;stroke-width:1.5;"/>
   </g>
   <g id="LineCollection_13">
    <path clip-path="url(#p691ed4f607)" d="M 69.205535 273.312 
L 68.949459 270.06714 
L 68.72153 266.82228 
L 68.533404 263.57742 
L 68.394232 260.332559 
L 68.311589 257.087699 
L 68.293536 253.842839 
L 68.345397 250.597979 
L 68.468861 247.353119 
L 68.662262 244.108259 
L 68.923345 240.863399 
L 69.114884 238.948805 
" style="fill:none;stroke:#29af7f;stroke-width:1.5;"/>
    <path clip-path="url(#p691ed4f607)" d="M 70.50588 229.865541 
L 70.93946 227.883958 
L 71.702704 224.639098 
L 72.511575 221.394238 
L 73.352707 218.149377 
L 73.735438 216.791086 
L 74.439613 214.904517 
L 75.691995 211.659657 
L 76.899988 208.414797 
L 77.747013 206.111547 
L 78.195797 205.169937 
L 79.773853 201.925077 
L 81.168443 198.680217 
L 81.758588 197.257844 
L 82.77148 195.435356 
L 84.407222 192.190496 
L 85.730285 188.945636 
L 85.770163 188.847258 
L 87.673899 185.700776 
L 89.212833 182.455916 
L 89.781738 181.10663 
L 90.958546 179.211056 
L 92.705857 175.966196 
" style="fill:none;stroke:#29af7f;stroke-width:1.5;"/>
   </g>
   <g id="LineCollection_14">
    <path clip-path="url(#p691ed4f607)" d="M 68.248641 273.312 
L 67.963888 270.06714 
L 67.709013 266.82228 
L 67.49644 263.57742 
L 67.337752 260.332559 
L 67.243541 257.087699 
L 67.22145 253.842839 
L 67.278231 250.597979 
L 67.416783 247.353119 
L 67.634335 244.108259 
L 67.927289 240.863399 
L 68.142968 238.940137 
" style="fill:none;stroke:#3dbc74;stroke-width:1.5;"/>
    <path clip-path="url(#p691ed4f607)" d="M 69.413777 229.82686 
L 69.723863 227.931067 
L 69.73468 227.883958 
L 70.591355 224.639098 
L 71.496668 221.394238 
L 72.435569 218.149377 
L 73.391041 214.904517 
L 73.735438 213.823911 
L 74.629778 211.659657 
L 75.981676 208.414797 
L 77.258013 205.169937 
L 77.747013 203.956688 
L 78.781806 201.925077 
L 80.348398 198.680217 
L 81.706141 195.435356 
L 81.758588 195.314004 
L 83.525935 192.190496 
L 85.02366 188.945636 
L 85.770163 187.104061 
L 86.619202 185.700776 
L 88.376409 182.455916 
L 89.752106 179.211056 
L 89.781738 179.140031 
L 91.726753 175.966196 
" style="fill:none;stroke:#3dbc74;stroke-width:1.5;"/>
   </g>
   <g id="LineCollection_15">
    <path clip-path="url(#p691ed4f607)" d="M 67.291746 273.312 
L 66.978318 270.06714 
L 66.696497 266.82228 
L 66.459475 263.57742 
L 66.281271 260.332559 
L 66.175494 257.087699 
L 66.149364 253.842839 
L 66.211064 250.597979 
L 66.364704 247.353119 
L 66.606408 244.108259 
L 66.931234 240.863399 
L 67.171378 238.930526 
" style="fill:none;stroke:#56c667;stroke-width:1.5;"/>
    <path clip-path="url(#p691ed4f607)" d="M 68.575642 229.840615 
L 68.92957 227.883958 
L 69.561138 224.639098 
L 69.723863 223.902183 
L 70.481762 221.394238 
L 71.51843 218.149377 
L 72.571802 214.904517 
L 73.621172 211.659657 
L 73.735438 211.339957 
L 75.063365 208.414797 
L 76.472998 205.169937 
L 77.747013 202.009001 
L 77.78976 201.925077 
L 79.528353 198.680217 
L 81.032983 195.435356 
L 81.758588 193.756469 
L 82.644648 192.190496 
L 84.317036 188.945636 
L 85.659484 185.700776 
L 85.770163 185.426979 
L 87.539986 182.455916 
L 89.08553 179.211056 
L 89.781738 177.542349 
L 90.747649 175.966196 
" style="fill:none;stroke:#56c667;stroke-width:1.5;"/>
   </g>
   <g id="LineCollection_16">
    <path clip-path="url(#p691ed4f607)" d="M 66.334852 273.312 
L 65.992747 270.06714 
L 65.712288 267.112559 
L 65.694108 266.82228 
L 65.526813 263.57742 
L 65.401171 260.332559 
L 65.326423 257.087699 
L 65.307274 253.842839 
L 65.349463 250.597979 
L 65.456657 247.353119 
L 65.556238 245.452571 
" style="fill:none;stroke:#75d054;stroke-width:1.5;"/>
    <path clip-path="url(#p691ed4f607)" d="M 66.587329 236.309214 
L 66.897379 234.373678 
L 67.484429 231.128818 
L 68.128082 227.883958 
L 68.819539 224.639098 
L 69.551736 221.394238 
L 69.723863 220.715105 
L 70.601291 218.149377 
L 71.752563 214.904517 
L 72.898167 211.659657 
L 73.735438 209.317099 
L 74.145053 208.414797 
L 75.687982 205.169937 
L 77.112009 201.925077 
L 77.747013 200.466734 
L 78.708308 198.680217 
L 80.359826 195.435356 
L 81.758588 192.198933 
L 81.763362 192.190496 
L 83.610412 188.945636 
L 85.091875 185.700776 
L 85.770163 184.022846 
L 86.703563 182.455916 
L 88.418954 179.211056 
L 89.774541 175.966196 
" style="fill:none;stroke:#75d054;stroke-width:1.5;"/>
   </g>
   <g id="LineCollection_17">
    <path clip-path="url(#p691ed4f607)" d="M 65.169493 268.716635 
L 65.043841 266.82228 
L 64.863091 263.57742 
L 64.726932 260.332559 
L 64.64505 257.087699 
L 64.62349 253.842839 
L 64.668251 250.597979 
L 64.783729 247.353119 
L 64.968981 244.108259 
L 65.218345 240.863399 
L 65.526336 237.618538 
L 65.712288 235.987982 
L 65.986902 234.373678 
L 66.626232 231.128818 
L 67.326593 227.883958 
L 68.077939 224.639098 
L 68.872021 221.394238 
L 69.697151 218.149377 
L 69.723863 218.056923 
L 70.933323 214.904517 
L 72.175163 211.659657 
L 73.386148 208.414797 
L 73.735438 207.534203 
L 74.902967 205.169937 
L 76.44841 201.925077 
L 77.747013 198.942722 
L 77.888263 198.680217 
L 79.686669 195.435356 
L 81.212367 192.190496 
L 81.758588 190.956469 
L 82.903787 188.945636 
L 84.524267 185.700776 
L 85.770163 182.618713 
L 85.867139 182.455916 
L 87.752377 179.211056 
L 89.240388 175.966196 
" style="fill:none;stroke:#95d840;stroke-width:1.5;"/>
   </g>
   <g id="LineCollection_18">
    <path clip-path="url(#p691ed4f607)" d="M 64.883186 273.312 
L 64.625587 270.06714 
L 64.393575 266.82228 
L 64.19937 263.57742 
L 64.052694 260.332559 
L 63.963678 257.087699 
L 63.939706 253.842839 
L 63.987038 250.597979 
L 64.110801 247.353119 
L 64.311287 244.108259 
L 64.582005 240.863399 
L 64.779241 238.946979 
" style="fill:none;stroke:#bade28;stroke-width:1.5;"/>
    <path clip-path="url(#p691ed4f607)" d="M 66.067782 229.844077 
L 66.525104 227.883958 
L 67.33634 224.639098 
L 68.192305 221.394238 
L 69.080228 218.149377 
L 69.723863 215.921612 
L 70.114084 214.904517 
L 71.452158 211.659657 
L 72.7556 208.414797 
L 73.735438 205.944533 
L 74.117951 205.169937 
L 75.784811 201.925077 
L 77.2876 198.680217 
L 77.747013 197.688795 
L 79.013511 195.435356 
L 80.66317 192.190496 
L 81.758588 189.715721 
L 82.197163 188.945636 
L 83.956659 185.700776 
L 85.365978 182.455916 
L 85.770163 181.452114 
L 87.085801 179.211056 
L 88.706234 175.966196 
" style="fill:none;stroke:#bade28;stroke-width:1.5;"/>
   </g>
   <g id="LineCollection_19">
    <path clip-path="url(#p691ed4f607)" d="M 64.268759 273.312 
L 63.992102 270.06714 
L 63.743308 266.82228 
L 63.535649 263.57742 
L 63.378456 260.332559 
L 63.282306 257.087699 
L 63.255922 253.842839 
L 63.305825 250.597979 
L 63.437872 247.353119 
L 63.653593 244.108259 
L 63.945666 240.863399 
L 64.158861 238.941353 
" style="fill:none;stroke:#dde318;stroke-width:1.5;"/>
    <path clip-path="url(#p691ed4f607)" d="M 65.408967 229.824608 
L 65.712288 227.932272 
L 65.723615 227.883958 
L 66.59474 224.639098 
L 67.512589 221.394238 
L 68.463304 218.149377 
L 69.433652 214.904517 
L 69.723863 214.016763 
L 70.729154 211.659657 
L 72.125052 208.414797 
L 73.456815 205.169937 
L 73.735438 204.530282 
L 75.121212 201.925077 
L 76.732587 198.680217 
L 77.747013 196.491068 
L 78.340354 195.435356 
L 80.113974 192.190496 
L 81.589301 188.945636 
L 81.758588 188.567114 
L 83.38905 185.700776 
L 84.908785 182.455916 
L 85.770163 180.316668 
L 86.419225 179.211056 
L 88.172081 175.966196 
" style="fill:none;stroke:#dde318;stroke-width:1.5;"/>
   </g>
   <g id="LineCollection_20">
    <path clip-path="url(#p691ed4f607)" d="M 63.654332 273.312 
L 63.358617 270.06714 
L 63.093042 266.82228 
L 62.871927 263.57742 
L 62.704217 260.332559 
L 62.600933 257.087699 
L 62.572138 253.842839 
L 62.624613 250.597979 
L 62.764944 247.353119 
L 62.995899 244.108259 
L 63.309326 240.863399 
L 63.538617 238.935334 
" style="fill:none;stroke:#fde725;stroke-width:1.5;"/>
    <path clip-path="url(#p691ed4f607)" d="M 64.873513 229.832886 
L 65.206718 227.883958 
L 65.712288 225.163253 
L 65.853141 224.639098 
L 66.832873 221.394238 
L 67.84638 218.149377 
L 68.879473 214.904517 
L 69.723863 212.321533 
L 70.006149 211.659657 
L 71.494504 208.414797 
L 72.913406 205.169937 
L 73.735438 203.282741 
L 74.457614 201.925077 
L 76.177575 198.680217 
L 77.692487 195.435356 
L 77.747013 195.323135 
L 79.564778 192.190496 
L 81.143031 188.945636 
L 81.758588 187.569264 
L 82.821442 185.700776 
L 84.451592 182.455916 
L 85.760456 179.211056 
L 85.770163 179.186854 
L 87.637928 175.966196 
" style="fill:none;stroke:#fde725;stroke-width:1.5;"/>
   </g>
   <g id="LineCollection_21">
    <path clip-path="url(#p691ed4f607)" d="M 63.039905 273.312 
L 62.725133 270.06714 
L 62.442775 266.82228 
L 62.208206 263.57742 
L 62.029979 260.332559 
L 61.919561 257.087699 
L 61.888354 253.842839 
L 61.9434 250.597979 
L 62.092016 247.353119 
L 62.338205 244.108259 
L 62.672987 240.863399 
L 63.084841 237.618538 
L 63.56475 234.373678 
L 63.783412 233.057871 
" style="fill:none;stroke:#440154;stroke-width:1.5;"/>
    <path clip-path="url(#p691ed4f607)" d="M 65.741542 222.74134 
L 66.153157 221.394238 
L 67.229457 218.149377 
L 68.325294 214.904517 
L 69.42398 211.659657 
L 69.723863 210.841531 
L 70.863957 208.414797 
L 72.369997 205.169937 
L 73.735438 202.035199 
L 73.794015 201.925077 
L 75.622562 198.680217 
L 77.232627 195.435356 
L 77.747013 194.376679 
L 79.015581 192.190496 
L 80.696762 188.945636 
L 81.758588 186.571413 
L 82.253834 185.700776 
L 83.994399 182.455916 
L 85.39101 179.211056 
L 85.770163 178.265793 
L 87.103774 175.966196 
" style="fill:none;stroke:#440154;stroke-width:1.5;"/>
   </g>
   <g id="LineCollection_22">
    <path clip-path="url(#p691ed4f607)" d="M 49.665987 199.112182 
L 49.895147 198.680217 
L 51.767457 195.435356 
L 53.587531 192.190496 
L 53.677563 192.043969 
L 54.445252 190.963428 
" style="fill:none;stroke:#440154;stroke-width:1.5;"/>
    <path clip-path="url(#p691ed4f607)" d="M 61.103427 181.57472 
L 61.700713 180.717307 
L 62.875541 179.211056 
L 65.222765 175.966196 
" style="fill:none;stroke:#440154;stroke-width:1.5;"/>
   </g>
   <g id="LineCollection_23"/>
   <g id="LineCollection_24"/>
   <g id="LineCollection_25"/>
   <g id="LineCollection_26"/>
   <g id="LineCollection_27"/>
   <g id="LineCollection_28"/>
   <g id="line2d_13">
    <path clip-path="url(#p691ed4f607)" d="M 389.780273 263.376546 
L 381.135112 221.708886 
L 371.023898 179.255483 
L 359.589385 143.071269 
L 320.499275 96.831638 
L 245.814417 58.414164 
L 195.564318 35.671049 
L 162.432929 22.79641 
L 139.700759 19.872 
L 124.53862 21.035632 
L 114.674758 23.549636 
L 108.275943 27.072561 
L 104.186409 31.016637 
L 101.594109 35.511812 
L 99.997692 40.173036 
L 99.060132 45.104715 
L 98.52986 50.493531 
L 98.245816 56.462608 
L 98.188439 61.878695 
L 98.28179 66.962707 
L 98.47962 71.786359 
L 98.745024 76.482223 
L 99.052556 81.096472 
L 99.382605 85.774928 
L 99.728398 90.407083 
L 100.086485 95.143504 
L 100.455185 99.81168 
L 100.824991 104.612448 
L 101.199243 109.402297 
L 101.573487 114.215227 
L 101.946423 118.938488 
L 102.313634 123.754064 
L 102.680915 128.65075 
L 103.046896 133.64431 
L 103.408242 138.662826 
L 103.7682 143.754932 
L 104.122942 148.931072 
L 104.472962 154.275228 
L 104.834534 159.501 
L 105.198213 164.620313 
L 105.558053 169.703211 
L 105.917046 174.677768 
L 106.276627 179.642132 
L 106.631314 184.731058 
L 106.987854 189.650593 
L 107.348872 194.497611 
L 107.714569 199.224192 
L 108.077945 203.919488 
L 108.441997 208.524603 
L 108.80334 213.14568 
L 108.840018 213.598232 
L 108.877217 214.041166 
L 108.914604 214.475586 
L 108.951823 214.906378 
L 108.989242 215.331848 
L 109.026962 215.749125 
L 109.064713 216.163663 
L 109.102274 216.582498 
L 109.139813 217.008766 
L 109.177307 217.432482 
L 109.215229 217.852995 
L 109.253362 218.260723 
L 109.291129 218.675264 
L 109.328506 219.08343 
L 109.365821 219.498762 
L 109.403124 219.921104 
L 109.440575 220.352449 
L 109.478191 220.779851 
L 109.515976 221.195804 
L 109.554276 221.610499 
L 109.592157 222.024587 
L 109.630366 222.431544 
L 109.668794 222.826072 
L 109.707067 223.216361 
L 109.745101 223.613432 
L 109.748889 223.654394 
L 109.752613 223.697164 
L 109.756326 223.740638 
L 109.76005 223.78433 
L 109.763807 223.826749 
L 109.76756 223.868593 
L 109.771328 223.909795 
L 109.775096 223.951365 
L 109.778867 223.992328 
L 109.782637 224.032872 
L 109.786426 224.073156 
L 109.790223 224.114134 
L 109.794058 224.154544 
L 109.797855 224.195854 
L 109.801615 224.237842 
L 109.805348 224.280944 
L 109.809133 224.322326 
L 109.812939 224.363234 
L 109.81676 224.402402 
L 109.82059 224.440472 
L 109.824397 224.479445 
L 109.828184 224.519675 
L 109.831996 224.559328 
L 109.835803 224.598902 
" style="fill:none;stroke:#1f77b4;stroke-linecap:square;stroke-width:1.5;"/>
    <defs>
     <path d="M 0 1.5 
C 0.397805 1.5 0.77937 1.341951 1.06066 1.06066 
C 1.341951 0.77937 1.5 0.397805 1.5 0 
C 1.5 -0.397805 1.341951 -0.77937 1.06066 -1.06066 
C 0.77937 -1.341951 0.397805 -1.5 0 -1.5 
C -0.397805 -1.5 -0.77937 -1.341951 -1.06066 -1.06066 
C -1.341951 -0.77937 -1.5 -0.397805 -1.5 0 
C -1.5 0.397805 -1.341951 0.77937 -1.06066 1.06066 
C -0.77937 1.341951 -0.397805 1.5 0 1.5 
z
" id="md32a06f1d2" style="stroke:#1f77b4;"/>
    </defs>
    <g clip-path="url(#p691ed4f607)">
     <use style="fill:#1f77b4;stroke:#1f77b4;" x="389.780273" xlink:href="#md32a06f1d2" y="263.376546"/>
     <use style="fill:#1f77b4;stroke:#1f77b4;" x="381.135112" xlink:href="#md32a06f1d2" y="221.708886"/>
     <use style="fill:#1f77b4;stroke:#1f77b4;" x="371.023898" xlink:href="#md32a06f1d2" y="179.255483"/>
     <use style="fill:#1f77b4;stroke:#1f77b4;" x="359.589385" xlink:href="#md32a06f1d2" y="143.071269"/>
     <use style="fill:#1f77b4;stroke:#1f77b4;" x="320.499275" xlink:href="#md32a06f1d2" y="96.831638"/>
     <use style="fill:#1f77b4;stroke:#1f77b4;" x="245.814417" xlink:href="#md32a06f1d2" y="58.414164"/>
     <use style="fill:#1f77b4;stroke:#1f77b4;" x="195.564318" xlink:href="#md32a06f1d2" y="35.671049"/>
     <use style="fill:#1f77b4;stroke:#1f77b4;" x="162.432929" xlink:href="#md32a06f1d2" y="22.79641"/>
     <use style="fill:#1f77b4;stroke:#1f77b4;" x="139.700759" xlink:href="#md32a06f1d2" y="19.872"/>
     <use style="fill:#1f77b4;stroke:#1f77b4;" x="124.53862" xlink:href="#md32a06f1d2" y="21.035632"/>
     <use style="fill:#1f77b4;stroke:#1f77b4;" x="114.674758" xlink:href="#md32a06f1d2" y="23.549636"/>
     <use style="fill:#1f77b4;stroke:#1f77b4;" x="108.275943" xlink:href="#md32a06f1d2" y="27.072561"/>
     <use style="fill:#1f77b4;stroke:#1f77b4;" x="104.186409" xlink:href="#md32a06f1d2" y="31.016637"/>
     <use style="fill:#1f77b4;stroke:#1f77b4;" x="101.594109" xlink:href="#md32a06f1d2" y="35.511812"/>
     <use style="fill:#1f77b4;stroke:#1f77b4;" x="99.997692" xlink:href="#md32a06f1d2" y="40.173036"/>
     <use style="fill:#1f77b4;stroke:#1f77b4;" x="99.060132" xlink:href="#md32a06f1d2" y="45.104715"/>
     <use style="fill:#1f77b4;stroke:#1f77b4;" x="98.52986" xlink:href="#md32a06f1d2" y="50.493531"/>
     <use style="fill:#1f77b4;stroke:#1f77b4;" x="98.245816" xlink:href="#md32a06f1d2" y="56.462608"/>
     <use style="fill:#1f77b4;stroke:#1f77b4;" x="98.188439" xlink:href="#md32a06f1d2" y="61.878695"/>
     <use style="fill:#1f77b4;stroke:#1f77b4;" x="98.28179" xlink:href="#md32a06f1d2" y="66.962707"/>
     <use style="fill:#1f77b4;stroke:#1f77b4;" x="98.47962" xlink:href="#md32a06f1d2" y="71.786359"/>
     <use style="fill:#1f77b4;stroke:#1f77b4;" x="98.745024" xlink:href="#md32a06f1d2" y="76.482223"/>
     <use style="fill:#1f77b4;stroke:#1f77b4;" x="99.052556" xlink:href="#md32a06f1d2" y="81.096472"/>
     <use style="fill:#1f77b4;stroke:#1f77b4;" x="99.382605" xlink:href="#md32a06f1d2" y="85.774928"/>
     <use style="fill:#1f77b4;stroke:#1f77b4;" x="99.728398" xlink:href="#md32a06f1d2" y="90.407083"/>
     <use style="fill:#1f77b4;stroke:#1f77b4;" x="100.086485" xlink:href="#md32a06f1d2" y="95.143504"/>
     <use style="fill:#1f77b4;stroke:#1f77b4;" x="100.455185" xlink:href="#md32a06f1d2" y="99.81168"/>
     <use style="fill:#1f77b4;stroke:#1f77b4;" x="100.824991" xlink:href="#md32a06f1d2" y="104.612448"/>
     <use style="fill:#1f77b4;stroke:#1f77b4;" x="101.199243" xlink:href="#md32a06f1d2" y="109.402297"/>
     <use style="fill:#1f77b4;stroke:#1f77b4;" x="101.573487" xlink:href="#md32a06f1d2" y="114.215227"/>
     <use style="fill:#1f77b4;stroke:#1f77b4;" x="101.946423" xlink:href="#md32a06f1d2" y="118.938488"/>
     <use style="fill:#1f77b4;stroke:#1f77b4;" x="102.313634" xlink:href="#md32a06f1d2" y="123.754064"/>
     <use style="fill:#1f77b4;stroke:#1f77b4;" x="102.680915" xlink:href="#md32a06f1d2" y="128.65075"/>
     <use style="fill:#1f77b4;stroke:#1f77b4;" x="103.046896" xlink:href="#md32a06f1d2" y="133.64431"/>
     <use style="fill:#1f77b4;stroke:#1f77b4;" x="103.408242" xlink:href="#md32a06f1d2" y="138.662826"/>
     <use style="fill:#1f77b4;stroke:#1f77b4;" x="103.7682" xlink:href="#md32a06f1d2" y="143.754932"/>
     <use style="fill:#1f77b4;stroke:#1f77b4;" x="104.122942" xlink:href="#md32a06f1d2" y="148.931072"/>
     <use style="fill:#1f77b4;stroke:#1f77b4;" x="104.472962" xlink:href="#md32a06f1d2" y="154.275228"/>
     <use style="fill:#1f77b4;stroke:#1f77b4;" x="104.834534" xlink:href="#md32a06f1d2" y="159.501"/>
     <use style="fill:#1f77b4;stroke:#1f77b4;" x="105.198213" xlink:href="#md32a06f1d2" y="164.620313"/>
     <use style="fill:#1f77b4;stroke:#1f77b4;" x="105.558053" xlink:href="#md32a06f1d2" y="169.703211"/>
     <use style="fill:#1f77b4;stroke:#1f77b4;" x="105.917046" xlink:href="#md32a06f1d2" y="174.677768"/>
     <use style="fill:#1f77b4;stroke:#1f77b4;" x="106.276627" xlink:href="#md32a06f1d2" y="179.642132"/>
     <use style="fill:#1f77b4;stroke:#1f77b4;" x="106.631314" xlink:href="#md32a06f1d2" y="184.731058"/>
     <use style="fill:#1f77b4;stroke:#1f77b4;" x="106.987854" xlink:href="#md32a06f1d2" y="189.650593"/>
     <use style="fill:#1f77b4;stroke:#1f77b4;" x="107.348872" xlink:href="#md32a06f1d2" y="194.497611"/>
     <use style="fill:#1f77b4;stroke:#1f77b4;" x="107.714569" xlink:href="#md32a06f1d2" y="199.224192"/>
     <use style="fill:#1f77b4;stroke:#1f77b4;" x="108.077945" xlink:href="#md32a06f1d2" y="203.919488"/>
     <use style="fill:#1f77b4;stroke:#1f77b4;" x="108.441997" xlink:href="#md32a06f1d2" y="208.524603"/>
     <use style="fill:#1f77b4;stroke:#1f77b4;" x="108.80334" xlink:href="#md32a06f1d2" y="213.14568"/>
     <use style="fill:#1f77b4;stroke:#1f77b4;" x="108.840018" xlink:href="#md32a06f1d2" y="213.598232"/>
     <use style="fill:#1f77b4;stroke:#1f77b4;" x="108.877217" xlink:href="#md32a06f1d2" y="214.041166"/>
     <use style="fill:#1f77b4;stroke:#1f77b4;" x="108.914604" xlink:href="#md32a06f1d2" y="214.475586"/>
     <use style="fill:#1f77b4;stroke:#1f77b4;" x="108.951823" xlink:href="#md32a06f1d2" y="214.906378"/>
     <use style="fill:#1f77b4;stroke:#1f77b4;" x="108.989242" xlink:href="#md32a06f1d2" y="215.331848"/>
     <use style="fill:#1f77b4;stroke:#1f77b4;" x="109.026962" xlink:href="#md32a06f1d2" y="215.749125"/>
     <use style="fill:#1f77b4;stroke:#1f77b4;" x="109.064713" xlink:href="#md32a06f1d2" y="216.163663"/>
     <use style="fill:#1f77b4;stroke:#1f77b4;" x="109.102274" xlink:href="#md32a06f1d2" y="216.582498"/>
     <use style="fill:#1f77b4;stroke:#1f77b4;" x="109.139813" xlink:href="#md32a06f1d2" y="217.008766"/>
     <use style="fill:#1f77b4;stroke:#1f77b4;" x="109.177307" xlink:href="#md32a06f1d2" y="217.432482"/>
     <use style="fill:#1f77b4;stroke:#1f77b4;" x="109.215229" xlink:href="#md32a06f1d2" y="217.852995"/>
     <use style="fill:#1f77b4;stroke:#1f77b4;" x="109.253362" xlink:href="#md32a06f1d2" y="218.260723"/>
     <use style="fill:#1f77b4;stroke:#1f77b4;" x="109.291129" xlink:href="#md32a06f1d2" y="218.675264"/>
     <use style="fill:#1f77b4;stroke:#1f77b4;" x="109.328506" xlink:href="#md32a06f1d2" y="219.08343"/>
     <use style="fill:#1f77b4;stroke:#1f77b4;" x="109.365821" xlink:href="#md32a06f1d2" y="219.498762"/>
     <use style="fill:#1f77b4;stroke:#1f77b4;" x="109.403124" xlink:href="#md32a06f1d2" y="219.921104"/>
     <use style="fill:#1f77b4;stroke:#1f77b4;" x="109.440575" xlink:href="#md32a06f1d2" y="220.352449"/>
     <use style="fill:#1f77b4;stroke:#1f77b4;" x="109.478191" xlink:href="#md32a06f1d2" y="220.779851"/>
     <use style="fill:#1f77b4;stroke:#1f77b4;" x="109.515976" xlink:href="#md32a06f1d2" y="221.195804"/>
     <use style="fill:#1f77b4;stroke:#1f77b4;" x="109.554276" xlink:href="#md32a06f1d2" y="221.610499"/>
     <use style="fill:#1f77b4;stroke:#1f77b4;" x="109.592157" xlink:href="#md32a06f1d2" y="222.024587"/>
     <use style="fill:#1f77b4;stroke:#1f77b4;" x="109.630366" xlink:href="#md32a06f1d2" y="222.431544"/>
     <use style="fill:#1f77b4;stroke:#1f77b4;" x="109.668794" xlink:href="#md32a06f1d2" y="222.826072"/>
     <use style="fill:#1f77b4;stroke:#1f77b4;" x="109.707067" xlink:href="#md32a06f1d2" y="223.216361"/>
     <use style="fill:#1f77b4;stroke:#1f77b4;" x="109.745101" xlink:href="#md32a06f1d2" y="223.613432"/>
     <use style="fill:#1f77b4;stroke:#1f77b4;" x="109.748889" xlink:href="#md32a06f1d2" y="223.654394"/>
     <use style="fill:#1f77b4;stroke:#1f77b4;" x="109.752613" xlink:href="#md32a06f1d2" y="223.697164"/>
     <use style="fill:#1f77b4;stroke:#1f77b4;" x="109.756326" xlink:href="#md32a06f1d2" y="223.740638"/>
     <use style="fill:#1f77b4;stroke:#1f77b4;" x="109.76005" xlink:href="#md32a06f1d2" y="223.78433"/>
     <use style="fill:#1f77b4;stroke:#1f77b4;" x="109.763807" xlink:href="#md32a06f1d2" y="223.826749"/>
     <use style="fill:#1f77b4;stroke:#1f77b4;" x="109.76756" xlink:href="#md32a06f1d2" y="223.868593"/>
     <use style="fill:#1f77b4;stroke:#1f77b4;" x="109.771328" xlink:href="#md32a06f1d2" y="223.909795"/>
     <use style="fill:#1f77b4;stroke:#1f77b4;" x="109.775096" xlink:href="#md32a06f1d2" y="223.951365"/>
     <use style="fill:#1f77b4;stroke:#1f77b4;" x="109.778867" xlink:href="#md32a06f1d2" y="223.992328"/>
     <use style="fill:#1f77b4;stroke:#1f77b4;" x="109.782637" xlink:href="#md32a06f1d2" y="224.032872"/>
     <use style="fill:#1f77b4;stroke:#1f77b4;" x="109.786426" xlink:href="#md32a06f1d2" y="224.073156"/>
     <use style="fill:#1f77b4;stroke:#1f77b4;" x="109.790223" xlink:href="#md32a06f1d2" y="224.114134"/>
     <use style="fill:#1f77b4;stroke:#1f77b4;" x="109.794058" xlink:href="#md32a06f1d2" y="224.154544"/>
     <use style="fill:#1f77b4;stroke:#1f77b4;" x="109.797855" xlink:href="#md32a06f1d2" y="224.195854"/>
     <use style="fill:#1f77b4;stroke:#1f77b4;" x="109.801615" xlink:href="#md32a06f1d2" y="224.237842"/>
     <use style="fill:#1f77b4;stroke:#1f77b4;" x="109.805348" xlink:href="#md32a06f1d2" y="224.280944"/>
     <use style="fill:#1f77b4;stroke:#1f77b4;" x="109.809133" xlink:href="#md32a06f1d2" y="224.322326"/>
     <use style="fill:#1f77b4;stroke:#1f77b4;" x="109.812939" xlink:href="#md32a06f1d2" y="224.363234"/>
     <use style="fill:#1f77b4;stroke:#1f77b4;" x="109.81676" xlink:href="#md32a06f1d2" y="224.402402"/>
     <use style="fill:#1f77b4;stroke:#1f77b4;" x="109.82059" xlink:href="#md32a06f1d2" y="224.440472"/>
     <use style="fill:#1f77b4;stroke:#1f77b4;" x="109.824397" xlink:href="#md32a06f1d2" y="224.479445"/>
     <use style="fill:#1f77b4;stroke:#1f77b4;" x="109.828184" xlink:href="#md32a06f1d2" y="224.519675"/>
     <use style="fill:#1f77b4;stroke:#1f77b4;" x="109.831996" xlink:href="#md32a06f1d2" y="224.559328"/>
     <use style="fill:#1f77b4;stroke:#1f77b4;" x="109.835803" xlink:href="#md32a06f1d2" y="224.598902"/>
    </g>
   </g>
   <g id="patch_3">
    <path d="M 49.665988 273.312 
L 49.665988 7.2 
" style="fill:none;stroke:#000000;stroke-linecap:square;stroke-linejoin:miter;stroke-width:0.8;"/>
   </g>
   <g id="patch_4">
    <path d="M 406.785988 273.312 
L 406.785988 7.2 
" style="fill:none;stroke:#000000;stroke-linecap:square;stroke-linejoin:miter;stroke-width:0.8;"/>
   </g>
   <g id="patch_5">
    <path d="M 49.665987 273.312 
L 406.785988 273.312 
" style="fill:none;stroke:#000000;stroke-linecap:square;stroke-linejoin:miter;stroke-width:0.8;"/>
   </g>
   <g id="patch_6">
    <path d="M 49.665987 7.2 
L 406.785988 7.2 
" style="fill:none;stroke:#000000;stroke-linecap:square;stroke-linejoin:miter;stroke-width:0.8;"/>
   </g>
   <g id="text_15">
    <g clip-path="url(#p691ed4f607)">
     <!-- 2.500 -->
     <g style="fill:#39558c;" transform="translate(89.035565 239.232038)rotate(-280.888338)scale(0.06 -0.06)">
      <defs>
       <path d="M 10.796875 72.90625 
L 49.515625 72.90625 
L 49.515625 64.59375 
L 19.828125 64.59375 
L 19.828125 46.734375 
Q 21.96875 47.46875 24.109375 47.828125 
Q 26.265625 48.1875 28.421875 48.1875 
Q 40.625 48.1875 47.75 41.5 
Q 54.890625 34.8125 54.890625 23.390625 
Q 54.890625 11.625 47.5625 5.09375 
Q 40.234375 -1.421875 26.90625 -1.421875 
Q 22.3125 -1.421875 17.546875 -0.640625 
Q 12.796875 0.140625 7.71875 1.703125 
L 7.71875 11.625 
Q 12.109375 9.234375 16.796875 8.0625 
Q 21.484375 6.890625 26.703125 6.890625 
Q 35.15625 6.890625 40.078125 11.328125 
Q 45.015625 15.765625 45.015625 23.390625 
Q 45.015625 31 40.078125 35.4375 
Q 35.15625 39.890625 26.703125 39.890625 
Q 22.75 39.890625 18.8125 39.015625 
Q 14.890625 38.140625 10.796875 36.28125 
z
" id="DejaVuSans-53"/>
      </defs>
      <use xlink:href="#DejaVuSans-50"/>
      <use x="63.623047" xlink:href="#DejaVuSans-46"/>
      <use x="95.410156" xlink:href="#DejaVuSans-53"/>
      <use x="159.033203" xlink:href="#DejaVuSans-48"/>
      <use x="222.65625" xlink:href="#DejaVuSans-48"/>
     </g>
    </g>
   </g>
   <g id="text_16">
    <g clip-path="url(#p691ed4f607)">
     <!-- 3.000 -->
     <g style="fill:#33638d;" transform="translate(82.959028 249.509116)rotate(-87.797624)scale(0.06 -0.06)">
      <use xlink:href="#DejaVuSans-51"/>
      <use x="63.623047" xlink:href="#DejaVuSans-46"/>
      <use x="95.410156" xlink:href="#DejaVuSans-48"/>
      <use x="159.033203" xlink:href="#DejaVuSans-48"/>
      <use x="222.65625" xlink:href="#DejaVuSans-48"/>
     </g>
    </g>
   </g>
   <g id="text_17">
    <g clip-path="url(#p691ed4f607)">
     <!-- 3.500 -->
     <g style="fill:#2d718e;" transform="translate(99.010444 184.812298)rotate(-60.376563)scale(0.06 -0.06)">
      <use xlink:href="#DejaVuSans-51"/>
      <use x="63.623047" xlink:href="#DejaVuSans-46"/>
      <use x="95.410156" xlink:href="#DejaVuSans-53"/>
      <use x="159.033203" xlink:href="#DejaVuSans-48"/>
      <use x="222.65625" xlink:href="#DejaVuSans-48"/>
     </g>
    </g>
   </g>
   <g id="text_18">
    <g clip-path="url(#p691ed4f607)">
     <!-- 4.000 -->
     <g style="fill:#287d8e;" transform="translate(76.266293 243.111488)rotate(-81.652113)scale(0.06 -0.06)">
      <use xlink:href="#DejaVuSans-52"/>
      <use x="63.623047" xlink:href="#DejaVuSans-46"/>
      <use x="95.410156" xlink:href="#DejaVuSans-48"/>
      <use x="159.033203" xlink:href="#DejaVuSans-48"/>
      <use x="222.65625" xlink:href="#DejaVuSans-48"/>
     </g>
    </g>
   </g>
   <g id="text_19">
    <g clip-path="url(#p691ed4f607)">
     <!-- 4.500 -->
     <g style="fill:#238a8d;" transform="translate(71.069081 264.927221)rotate(-275.625541)scale(0.06 -0.06)">
      <use xlink:href="#DejaVuSans-52"/>
      <use x="63.623047" xlink:href="#DejaVuSans-46"/>
      <use x="95.410156" xlink:href="#DejaVuSans-53"/>
      <use x="159.033203" xlink:href="#DejaVuSans-48"/>
      <use x="222.65625" xlink:href="#DejaVuSans-48"/>
     </g>
    </g>
   </g>
   <g id="text_20">
    <g clip-path="url(#p691ed4f607)">
     <!-- 5.000 -->
     <g style="fill:#1f968b;" transform="translate(72.688452 243.113219)rotate(-81.3847)scale(0.06 -0.06)">
      <use xlink:href="#DejaVuSans-53"/>
      <use x="63.623047" xlink:href="#DejaVuSans-46"/>
      <use x="95.410156" xlink:href="#DejaVuSans-48"/>
      <use x="159.033203" xlink:href="#DejaVuSans-48"/>
      <use x="222.65625" xlink:href="#DejaVuSans-48"/>
     </g>
    </g>
   </g>
   <g id="text_21">
    <g clip-path="url(#p691ed4f607)">
     <!-- 5.500 -->
     <g style="fill:#20a386;" transform="translate(91.324427 184.388204)rotate(-63.43152)scale(0.06 -0.06)">
      <use xlink:href="#DejaVuSans-53"/>
      <use x="63.623047" xlink:href="#DejaVuSans-46"/>
      <use x="95.410156" xlink:href="#DejaVuSans-53"/>
      <use x="159.033203" xlink:href="#DejaVuSans-48"/>
      <use x="222.65625" xlink:href="#DejaVuSans-48"/>
     </g>
    </g>
   </g>
   <g id="text_22">
    <g clip-path="url(#p691ed4f607)">
     <!-- 6.000 -->
     <g style="fill:#29af7f;" transform="translate(69.873941 243.116805)rotate(-80.694713)scale(0.06 -0.06)">
      <use xlink:href="#DejaVuSans-54"/>
      <use x="63.623047" xlink:href="#DejaVuSans-46"/>
      <use x="95.410156" xlink:href="#DejaVuSans-48"/>
      <use x="159.033203" xlink:href="#DejaVuSans-48"/>
      <use x="222.65625" xlink:href="#DejaVuSans-48"/>
     </g>
    </g>
   </g>
   <g id="text_23">
    <g clip-path="url(#p691ed4f607)">
     <!-- 6.500 -->
     <g style="fill:#3dbc74;" transform="translate(69.063633 243.113422)rotate(-81.351263)scale(0.06 -0.06)">
      <use xlink:href="#DejaVuSans-54"/>
      <use x="63.623047" xlink:href="#DejaVuSans-46"/>
      <use x="95.410156" xlink:href="#DejaVuSans-53"/>
      <use x="159.033203" xlink:href="#DejaVuSans-48"/>
      <use x="222.65625" xlink:href="#DejaVuSans-48"/>
     </g>
    </g>
   </g>
   <g id="text_24">
    <g clip-path="url(#p691ed4f607)">
     <!-- 7.000 -->
     <g style="fill:#56c667;" transform="translate(68.012569 243.117845)rotate(-80.429854)scale(0.06 -0.06)">
      <use xlink:href="#DejaVuSans-55"/>
      <use x="63.623047" xlink:href="#DejaVuSans-46"/>
      <use x="95.410156" xlink:href="#DejaVuSans-48"/>
      <use x="159.033203" xlink:href="#DejaVuSans-48"/>
      <use x="222.65625" xlink:href="#DejaVuSans-48"/>
     </g>
    </g>
   </g>
   <g id="text_25">
    <g clip-path="url(#p691ed4f607)">
     <!-- 7.500 -->
     <g style="fill:#75d054;" transform="translate(66.509498 249.591085)rotate(-82.853604)scale(0.06 -0.06)">
      <use xlink:href="#DejaVuSans-55"/>
      <use x="63.623047" xlink:href="#DejaVuSans-46"/>
      <use x="95.410156" xlink:href="#DejaVuSans-53"/>
      <use x="159.033203" xlink:href="#DejaVuSans-48"/>
      <use x="222.65625" xlink:href="#DejaVuSans-48"/>
     </g>
    </g>
   </g>
   <g id="text_26">
    <g clip-path="url(#p691ed4f607)">
     <!-- 8.000 -->
     <g style="fill:#95d840;" transform="translate(63.164792 264.882273)rotate(-274.557484)scale(0.06 -0.06)">
      <use xlink:href="#DejaVuSans-56"/>
      <use x="63.623047" xlink:href="#DejaVuSans-46"/>
      <use x="95.410156" xlink:href="#DejaVuSans-48"/>
      <use x="159.033203" xlink:href="#DejaVuSans-48"/>
      <use x="222.65625" xlink:href="#DejaVuSans-48"/>
     </g>
    </g>
   </g>
   <g id="text_27">
    <g clip-path="url(#p691ed4f607)">
     <!-- 8.500 -->
     <g style="fill:#bade28;" transform="translate(65.733636 243.109817)rotate(-81.886176)scale(0.06 -0.06)">
      <use xlink:href="#DejaVuSans-56"/>
      <use x="63.623047" xlink:href="#DejaVuSans-46"/>
      <use x="95.410156" xlink:href="#DejaVuSans-53"/>
      <use x="159.033203" xlink:href="#DejaVuSans-48"/>
      <use x="222.65625" xlink:href="#DejaVuSans-48"/>
     </g>
    </g>
   </g>
   <g id="text_28">
    <g clip-path="url(#p691ed4f607)">
     <!-- 9.000 -->
     <g style="fill:#dde318;" transform="translate(65.093261 243.11253)rotate(-81.494656)scale(0.06 -0.06)">
      <use xlink:href="#DejaVuSans-57"/>
      <use x="63.623047" xlink:href="#DejaVuSans-46"/>
      <use x="95.410156" xlink:href="#DejaVuSans-48"/>
      <use x="159.033203" xlink:href="#DejaVuSans-48"/>
      <use x="222.65625" xlink:href="#DejaVuSans-48"/>
     </g>
    </g>
   </g>
   <g id="text_29">
    <g clip-path="url(#p691ed4f607)">
     <!-- 9.500 -->
     <g style="fill:#fde725;" transform="translate(64.423516 243.115818)rotate(-80.91075)scale(0.06 -0.06)">
      <use xlink:href="#DejaVuSans-57"/>
      <use x="63.623047" xlink:href="#DejaVuSans-46"/>
      <use x="95.410156" xlink:href="#DejaVuSans-53"/>
      <use x="159.033203" xlink:href="#DejaVuSans-48"/>
      <use x="222.65625" xlink:href="#DejaVuSans-48"/>
     </g>
    </g>
   </g>
   <g id="text_30">
    <g clip-path="url(#p691ed4f607)">
     <!-- 10.000 -->
     <g style="fill:#440154;" transform="translate(64.210339 238.499899)rotate(-78.429052)scale(0.06 -0.06)">
      <use xlink:href="#DejaVuSans-49"/>
      <use x="63.623047" xlink:href="#DejaVuSans-48"/>
      <use x="127.246094" xlink:href="#DejaVuSans-46"/>
      <use x="159.033203" xlink:href="#DejaVuSans-48"/>
      <use x="222.65625" xlink:href="#DejaVuSans-48"/>
      <use x="286.279297" xlink:href="#DejaVuSans-48"/>
     </g>
    </g>
   </g>
   <g id="text_31">
    <g clip-path="url(#p691ed4f607)">
     <!-- 100.000 -->
     <g style="fill:#440154;" transform="translate(51.430366 197.036767)rotate(-52.39427)scale(0.06 -0.06)">
      <use xlink:href="#DejaVuSans-49"/>
      <use x="63.623047" xlink:href="#DejaVuSans-48"/>
      <use x="127.246094" xlink:href="#DejaVuSans-48"/>
      <use x="190.869141" xlink:href="#DejaVuSans-46"/>
      <use x="222.65625" xlink:href="#DejaVuSans-48"/>
      <use x="286.279297" xlink:href="#DejaVuSans-48"/>
      <use x="349.902344" xlink:href="#DejaVuSans-48"/>
     </g>
    </g>
   </g>
  </g>
 </g>
 <defs>
  <clipPath id="p691ed4f607">
   <rect height="266.112" width="357.12" x="49.665988" y="7.2"/>
  </clipPath>
 </defs>
</svg>
