<?xml version="1.0" encoding="utf-8" standalone="no"?>
<!DOCTYPE svg PUBLIC "-//W3C//DTD SVG 1.1//EN"
  "http://www.w3.org/Graphics/SVG/1.1/DTD/svg11.dtd">
<!-- Created with matplotlib (https://matplotlib.org/) -->
<svg height="319.368287pt" version="1.1" viewBox="0 0 413.985987 319.368287" width="413.985987pt" xmlns="http://www.w3.org/2000/svg" xmlns:xlink="http://www.w3.org/1999/xlink">
 <metadata>
  <rdf:RDF xmlns:cc="http://creativecommons.org/ns#" xmlns:dc="http://purl.org/dc/elements/1.1/" xmlns:rdf="http://www.w3.org/1999/02/22-rdf-syntax-ns#">
   <cc:Work>
    <dc:type rdf:resource="http://purl.org/dc/dcmitype/StillImage"/>
    <dc:date>2021-09-18T08:05:14.672295</dc:date>
    <dc:format>image/svg+xml</dc:format>
    <dc:creator>
     <cc:Agent>
      <dc:title>Matplotlib v3.3.1, https://matplotlib.org/</dc:title>
     </cc:Agent>
    </dc:creator>
   </cc:Work>
  </rdf:RDF>
 </metadata>
 <defs>
  <style type="text/css">*{stroke-linecap:butt;stroke-linejoin:round;}</style>
 </defs>
 <g id="figure_1">
  <g id="patch_1">
   <path d="M 0 319.368287 
L 413.985987 319.368287 
L 413.985987 0 
L 0 0 
z
" style="fill:#ffffff;"/>
  </g>
  <g id="axes_1">
   <g id="patch_2">
    <path d="M 49.665988 274.766362 
L 406.785988 274.766362 
L 406.785988 8.654362 
L 49.665988 8.654362 
z
" style="fill:#ffffff;"/>
   </g>
   <g id="matplotlib.axis_1">
    <g id="xtick_1">
     <g id="line2d_1">
      <defs>
       <path d="M 0 0 
L 0 3.5 
" id="me657a5217d" style="stroke:#000000;stroke-width:0.8;"/>
      </defs>
      <g>
       <use style="stroke:#000000;stroke-width:0.8;" x="71.435881" xlink:href="#me657a5217d" y="274.766362"/>
      </g>
     </g>
     <g id="text_1">
      <!-- 0 -->
      <g transform="translate(68.254631 289.364799)scale(0.1 -0.1)">
       <defs>
        <path d="M 31.78125 66.40625 
Q 24.171875 66.40625 20.328125 58.90625 
Q 16.5 51.421875 16.5 36.375 
Q 16.5 21.390625 20.328125 13.890625 
Q 24.171875 6.390625 31.78125 6.390625 
Q 39.453125 6.390625 43.28125 13.890625 
Q 47.125 21.390625 47.125 36.375 
Q 47.125 51.421875 43.28125 58.90625 
Q 39.453125 66.40625 31.78125 66.40625 
z
M 31.78125 74.21875 
Q 44.046875 74.21875 50.515625 64.515625 
Q 56.984375 54.828125 56.984375 36.375 
Q 56.984375 17.96875 50.515625 8.265625 
Q 44.046875 -1.421875 31.78125 -1.421875 
Q 19.53125 -1.421875 13.0625 8.265625 
Q 6.59375 17.96875 6.59375 36.375 
Q 6.59375 54.828125 13.0625 64.515625 
Q 19.53125 74.21875 31.78125 74.21875 
z
" id="DejaVuSans-48"/>
       </defs>
       <use xlink:href="#DejaVuSans-48"/>
      </g>
     </g>
    </g>
    <g id="xtick_2">
     <g id="line2d_2">
      <g>
       <use style="stroke:#000000;stroke-width:0.8;" x="114.975667" xlink:href="#me657a5217d" y="274.766362"/>
      </g>
     </g>
     <g id="text_2">
      <!-- 20 -->
      <g transform="translate(108.613167 289.364799)scale(0.1 -0.1)">
       <defs>
        <path d="M 19.1875 8.296875 
L 53.609375 8.296875 
L 53.609375 0 
L 7.328125 0 
L 7.328125 8.296875 
Q 12.9375 14.109375 22.625 23.890625 
Q 32.328125 33.6875 34.8125 36.53125 
Q 39.546875 41.84375 41.421875 45.53125 
Q 43.3125 49.21875 43.3125 52.78125 
Q 43.3125 58.59375 39.234375 62.25 
Q 35.15625 65.921875 28.609375 65.921875 
Q 23.96875 65.921875 18.8125 64.3125 
Q 13.671875 62.703125 7.8125 59.421875 
L 7.8125 69.390625 
Q 13.765625 71.78125 18.9375 73 
Q 24.125 74.21875 28.421875 74.21875 
Q 39.75 74.21875 46.484375 68.546875 
Q 53.21875 62.890625 53.21875 53.421875 
Q 53.21875 48.921875 51.53125 44.890625 
Q 49.859375 40.875 45.40625 35.40625 
Q 44.1875 33.984375 37.640625 27.21875 
Q 31.109375 20.453125 19.1875 8.296875 
z
" id="DejaVuSans-50"/>
       </defs>
       <use xlink:href="#DejaVuSans-50"/>
       <use x="63.623047" xlink:href="#DejaVuSans-48"/>
      </g>
     </g>
    </g>
    <g id="xtick_3">
     <g id="line2d_3">
      <g>
       <use style="stroke:#000000;stroke-width:0.8;" x="158.515453" xlink:href="#me657a5217d" y="274.766362"/>
      </g>
     </g>
     <g id="text_3">
      <!-- 40 -->
      <g transform="translate(152.152953 289.364799)scale(0.1 -0.1)">
       <defs>
        <path d="M 37.796875 64.3125 
L 12.890625 25.390625 
L 37.796875 25.390625 
z
M 35.203125 72.90625 
L 47.609375 72.90625 
L 47.609375 25.390625 
L 58.015625 25.390625 
L 58.015625 17.1875 
L 47.609375 17.1875 
L 47.609375 0 
L 37.796875 0 
L 37.796875 17.1875 
L 4.890625 17.1875 
L 4.890625 26.703125 
z
" id="DejaVuSans-52"/>
       </defs>
       <use xlink:href="#DejaVuSans-52"/>
       <use x="63.623047" xlink:href="#DejaVuSans-48"/>
      </g>
     </g>
    </g>
    <g id="xtick_4">
     <g id="line2d_4">
      <g>
       <use style="stroke:#000000;stroke-width:0.8;" x="202.055239" xlink:href="#me657a5217d" y="274.766362"/>
      </g>
     </g>
     <g id="text_4">
      <!-- 60 -->
      <g transform="translate(195.692739 289.364799)scale(0.1 -0.1)">
       <defs>
        <path d="M 33.015625 40.375 
Q 26.375 40.375 22.484375 35.828125 
Q 18.609375 31.296875 18.609375 23.390625 
Q 18.609375 15.53125 22.484375 10.953125 
Q 26.375 6.390625 33.015625 6.390625 
Q 39.65625 6.390625 43.53125 10.953125 
Q 47.40625 15.53125 47.40625 23.390625 
Q 47.40625 31.296875 43.53125 35.828125 
Q 39.65625 40.375 33.015625 40.375 
z
M 52.59375 71.296875 
L 52.59375 62.3125 
Q 48.875 64.0625 45.09375 64.984375 
Q 41.3125 65.921875 37.59375 65.921875 
Q 27.828125 65.921875 22.671875 59.328125 
Q 17.53125 52.734375 16.796875 39.40625 
Q 19.671875 43.65625 24.015625 45.921875 
Q 28.375 48.1875 33.59375 48.1875 
Q 44.578125 48.1875 50.953125 41.515625 
Q 57.328125 34.859375 57.328125 23.390625 
Q 57.328125 12.15625 50.6875 5.359375 
Q 44.046875 -1.421875 33.015625 -1.421875 
Q 20.359375 -1.421875 13.671875 8.265625 
Q 6.984375 17.96875 6.984375 36.375 
Q 6.984375 53.65625 15.1875 63.9375 
Q 23.390625 74.21875 37.203125 74.21875 
Q 40.921875 74.21875 44.703125 73.484375 
Q 48.484375 72.75 52.59375 71.296875 
z
" id="DejaVuSans-54"/>
       </defs>
       <use xlink:href="#DejaVuSans-54"/>
       <use x="63.623047" xlink:href="#DejaVuSans-48"/>
      </g>
     </g>
    </g>
    <g id="xtick_5">
     <g id="line2d_5">
      <g>
       <use style="stroke:#000000;stroke-width:0.8;" x="245.595025" xlink:href="#me657a5217d" y="274.766362"/>
      </g>
     </g>
     <g id="text_5">
      <!-- 80 -->
      <g transform="translate(239.232525 289.364799)scale(0.1 -0.1)">
       <defs>
        <path d="M 31.78125 34.625 
Q 24.75 34.625 20.71875 30.859375 
Q 16.703125 27.09375 16.703125 20.515625 
Q 16.703125 13.921875 20.71875 10.15625 
Q 24.75 6.390625 31.78125 6.390625 
Q 38.8125 6.390625 42.859375 10.171875 
Q 46.921875 13.96875 46.921875 20.515625 
Q 46.921875 27.09375 42.890625 30.859375 
Q 38.875 34.625 31.78125 34.625 
z
M 21.921875 38.8125 
Q 15.578125 40.375 12.03125 44.71875 
Q 8.5 49.078125 8.5 55.328125 
Q 8.5 64.0625 14.71875 69.140625 
Q 20.953125 74.21875 31.78125 74.21875 
Q 42.671875 74.21875 48.875 69.140625 
Q 55.078125 64.0625 55.078125 55.328125 
Q 55.078125 49.078125 51.53125 44.71875 
Q 48 40.375 41.703125 38.8125 
Q 48.828125 37.15625 52.796875 32.3125 
Q 56.78125 27.484375 56.78125 20.515625 
Q 56.78125 9.90625 50.3125 4.234375 
Q 43.84375 -1.421875 31.78125 -1.421875 
Q 19.734375 -1.421875 13.25 4.234375 
Q 6.78125 9.90625 6.78125 20.515625 
Q 6.78125 27.484375 10.78125 32.3125 
Q 14.796875 37.15625 21.921875 38.8125 
z
M 18.3125 54.390625 
Q 18.3125 48.734375 21.84375 45.5625 
Q 25.390625 42.390625 31.78125 42.390625 
Q 38.140625 42.390625 41.71875 45.5625 
Q 45.3125 48.734375 45.3125 54.390625 
Q 45.3125 60.0625 41.71875 63.234375 
Q 38.140625 66.40625 31.78125 66.40625 
Q 25.390625 66.40625 21.84375 63.234375 
Q 18.3125 60.0625 18.3125 54.390625 
z
" id="DejaVuSans-56"/>
       </defs>
       <use xlink:href="#DejaVuSans-56"/>
       <use x="63.623047" xlink:href="#DejaVuSans-48"/>
      </g>
     </g>
    </g>
    <g id="xtick_6">
     <g id="line2d_6">
      <g>
       <use style="stroke:#000000;stroke-width:0.8;" x="289.134811" xlink:href="#me657a5217d" y="274.766362"/>
      </g>
     </g>
     <g id="text_6">
      <!-- 100 -->
      <g transform="translate(279.591061 289.364799)scale(0.1 -0.1)">
       <defs>
        <path d="M 12.40625 8.296875 
L 28.515625 8.296875 
L 28.515625 63.921875 
L 10.984375 60.40625 
L 10.984375 69.390625 
L 28.421875 72.90625 
L 38.28125 72.90625 
L 38.28125 8.296875 
L 54.390625 8.296875 
L 54.390625 0 
L 12.40625 0 
z
" id="DejaVuSans-49"/>
       </defs>
       <use xlink:href="#DejaVuSans-49"/>
       <use x="63.623047" xlink:href="#DejaVuSans-48"/>
       <use x="127.246094" xlink:href="#DejaVuSans-48"/>
      </g>
     </g>
    </g>
    <g id="xtick_7">
     <g id="line2d_7">
      <g>
       <use style="stroke:#000000;stroke-width:0.8;" x="332.674598" xlink:href="#me657a5217d" y="274.766362"/>
      </g>
     </g>
     <g id="text_7">
      <!-- 120 -->
      <g transform="translate(323.130848 289.364799)scale(0.1 -0.1)">
       <use xlink:href="#DejaVuSans-49"/>
       <use x="63.623047" xlink:href="#DejaVuSans-50"/>
       <use x="127.246094" xlink:href="#DejaVuSans-48"/>
      </g>
     </g>
    </g>
    <g id="xtick_8">
     <g id="line2d_8">
      <g>
       <use style="stroke:#000000;stroke-width:0.8;" x="376.214384" xlink:href="#me657a5217d" y="274.766362"/>
      </g>
     </g>
     <g id="text_8">
      <!-- 140 -->
      <g transform="translate(366.670634 289.364799)scale(0.1 -0.1)">
       <use xlink:href="#DejaVuSans-49"/>
       <use x="63.623047" xlink:href="#DejaVuSans-52"/>
       <use x="127.246094" xlink:href="#DejaVuSans-48"/>
      </g>
     </g>
    </g>
    <g id="text_9">
     <!-- 1st PC: 85.65 % -->
     <g transform="translate(159.505587 308.574587)scale(0.1728 -0.1728)">
      <defs>
       <path d="M 44.28125 53.078125 
L 44.28125 44.578125 
Q 40.484375 46.53125 36.375 47.5 
Q 32.28125 48.484375 27.875 48.484375 
Q 21.1875 48.484375 17.84375 46.4375 
Q 14.5 44.390625 14.5 40.28125 
Q 14.5 37.15625 16.890625 35.375 
Q 19.28125 33.59375 26.515625 31.984375 
L 29.59375 31.296875 
Q 39.15625 29.25 43.1875 25.515625 
Q 47.21875 21.78125 47.21875 15.09375 
Q 47.21875 7.46875 41.1875 3.015625 
Q 35.15625 -1.421875 24.609375 -1.421875 
Q 20.21875 -1.421875 15.453125 -0.5625 
Q 10.6875 0.296875 5.421875 2 
L 5.421875 11.28125 
Q 10.40625 8.6875 15.234375 7.390625 
Q 20.0625 6.109375 24.8125 6.109375 
Q 31.15625 6.109375 34.5625 8.28125 
Q 37.984375 10.453125 37.984375 14.40625 
Q 37.984375 18.0625 35.515625 20.015625 
Q 33.0625 21.96875 24.703125 23.78125 
L 21.578125 24.515625 
Q 13.234375 26.265625 9.515625 29.90625 
Q 5.8125 33.546875 5.8125 39.890625 
Q 5.8125 47.609375 11.28125 51.796875 
Q 16.75 56 26.8125 56 
Q 31.78125 56 36.171875 55.265625 
Q 40.578125 54.546875 44.28125 53.078125 
z
" id="DejaVuSans-115"/>
       <path d="M 18.3125 70.21875 
L 18.3125 54.6875 
L 36.8125 54.6875 
L 36.8125 47.703125 
L 18.3125 47.703125 
L 18.3125 18.015625 
Q 18.3125 11.328125 20.140625 9.421875 
Q 21.96875 7.515625 27.59375 7.515625 
L 36.8125 7.515625 
L 36.8125 0 
L 27.59375 0 
Q 17.1875 0 13.234375 3.875 
Q 9.28125 7.765625 9.28125 18.015625 
L 9.28125 47.703125 
L 2.6875 47.703125 
L 2.6875 54.6875 
L 9.28125 54.6875 
L 9.28125 70.21875 
z
" id="DejaVuSans-116"/>
       <path id="DejaVuSans-32"/>
       <path d="M 19.671875 64.796875 
L 19.671875 37.40625 
L 32.078125 37.40625 
Q 38.96875 37.40625 42.71875 40.96875 
Q 46.484375 44.53125 46.484375 51.125 
Q 46.484375 57.671875 42.71875 61.234375 
Q 38.96875 64.796875 32.078125 64.796875 
z
M 9.8125 72.90625 
L 32.078125 72.90625 
Q 44.34375 72.90625 50.609375 67.359375 
Q 56.890625 61.8125 56.890625 51.125 
Q 56.890625 40.328125 50.609375 34.8125 
Q 44.34375 29.296875 32.078125 29.296875 
L 19.671875 29.296875 
L 19.671875 0 
L 9.8125 0 
z
" id="DejaVuSans-80"/>
       <path d="M 64.40625 67.28125 
L 64.40625 56.890625 
Q 59.421875 61.53125 53.78125 63.8125 
Q 48.140625 66.109375 41.796875 66.109375 
Q 29.296875 66.109375 22.65625 58.46875 
Q 16.015625 50.828125 16.015625 36.375 
Q 16.015625 21.96875 22.65625 14.328125 
Q 29.296875 6.6875 41.796875 6.6875 
Q 48.140625 6.6875 53.78125 8.984375 
Q 59.421875 11.28125 64.40625 15.921875 
L 64.40625 5.609375 
Q 59.234375 2.09375 53.4375 0.328125 
Q 47.65625 -1.421875 41.21875 -1.421875 
Q 24.65625 -1.421875 15.125 8.703125 
Q 5.609375 18.84375 5.609375 36.375 
Q 5.609375 53.953125 15.125 64.078125 
Q 24.65625 74.21875 41.21875 74.21875 
Q 47.75 74.21875 53.53125 72.484375 
Q 59.328125 70.75 64.40625 67.28125 
z
" id="DejaVuSans-67"/>
       <path d="M 11.71875 12.40625 
L 22.015625 12.40625 
L 22.015625 0 
L 11.71875 0 
z
M 11.71875 51.703125 
L 22.015625 51.703125 
L 22.015625 39.3125 
L 11.71875 39.3125 
z
" id="DejaVuSans-58"/>
       <path d="M 10.796875 72.90625 
L 49.515625 72.90625 
L 49.515625 64.59375 
L 19.828125 64.59375 
L 19.828125 46.734375 
Q 21.96875 47.46875 24.109375 47.828125 
Q 26.265625 48.1875 28.421875 48.1875 
Q 40.625 48.1875 47.75 41.5 
Q 54.890625 34.8125 54.890625 23.390625 
Q 54.890625 11.625 47.5625 5.09375 
Q 40.234375 -1.421875 26.90625 -1.421875 
Q 22.3125 -1.421875 17.546875 -0.640625 
Q 12.796875 0.140625 7.71875 1.703125 
L 7.71875 11.625 
Q 12.109375 9.234375 16.796875 8.0625 
Q 21.484375 6.890625 26.703125 6.890625 
Q 35.15625 6.890625 40.078125 11.328125 
Q 45.015625 15.765625 45.015625 23.390625 
Q 45.015625 31 40.078125 35.4375 
Q 35.15625 39.890625 26.703125 39.890625 
Q 22.75 39.890625 18.8125 39.015625 
Q 14.890625 38.140625 10.796875 36.28125 
z
" id="DejaVuSans-53"/>
       <path d="M 10.6875 12.40625 
L 21 12.40625 
L 21 0 
L 10.6875 0 
z
" id="DejaVuSans-46"/>
       <path d="M 72.703125 32.078125 
Q 68.453125 32.078125 66.03125 28.46875 
Q 63.625 24.859375 63.625 18.40625 
Q 63.625 12.0625 66.03125 8.421875 
Q 68.453125 4.78125 72.703125 4.78125 
Q 76.859375 4.78125 79.265625 8.421875 
Q 81.6875 12.0625 81.6875 18.40625 
Q 81.6875 24.8125 79.265625 28.4375 
Q 76.859375 32.078125 72.703125 32.078125 
z
M 72.703125 38.28125 
Q 80.421875 38.28125 84.953125 32.90625 
Q 89.5 27.546875 89.5 18.40625 
Q 89.5 9.28125 84.9375 3.921875 
Q 80.375 -1.421875 72.703125 -1.421875 
Q 64.890625 -1.421875 60.34375 3.921875 
Q 55.8125 9.28125 55.8125 18.40625 
Q 55.8125 27.59375 60.375 32.9375 
Q 64.9375 38.28125 72.703125 38.28125 
z
M 22.3125 68.015625 
Q 18.109375 68.015625 15.6875 64.375 
Q 13.28125 60.75 13.28125 54.390625 
Q 13.28125 47.953125 15.671875 44.328125 
Q 18.0625 40.71875 22.3125 40.71875 
Q 26.5625 40.71875 28.96875 44.328125 
Q 31.390625 47.953125 31.390625 54.390625 
Q 31.390625 60.6875 28.953125 64.34375 
Q 26.515625 68.015625 22.3125 68.015625 
z
M 66.40625 74.21875 
L 74.21875 74.21875 
L 28.609375 -1.421875 
L 20.796875 -1.421875 
z
M 22.3125 74.21875 
Q 30.03125 74.21875 34.609375 68.875 
Q 39.203125 63.53125 39.203125 54.390625 
Q 39.203125 45.171875 34.640625 39.84375 
Q 30.078125 34.515625 22.3125 34.515625 
Q 14.546875 34.515625 10.03125 39.859375 
Q 5.515625 45.21875 5.515625 54.390625 
Q 5.515625 63.484375 10.046875 68.84375 
Q 14.59375 74.21875 22.3125 74.21875 
z
" id="DejaVuSans-37"/>
      </defs>
      <use xlink:href="#DejaVuSans-49"/>
      <use x="63.623047" xlink:href="#DejaVuSans-115"/>
      <use x="115.722656" xlink:href="#DejaVuSans-116"/>
      <use x="154.931641" xlink:href="#DejaVuSans-32"/>
      <use x="186.71875" xlink:href="#DejaVuSans-80"/>
      <use x="247.021484" xlink:href="#DejaVuSans-67"/>
      <use x="316.845703" xlink:href="#DejaVuSans-58"/>
      <use x="350.537109" xlink:href="#DejaVuSans-32"/>
      <use x="382.324219" xlink:href="#DejaVuSans-56"/>
      <use x="445.947266" xlink:href="#DejaVuSans-53"/>
      <use x="509.570312" xlink:href="#DejaVuSans-46"/>
      <use x="541.357422" xlink:href="#DejaVuSans-54"/>
      <use x="604.980469" xlink:href="#DejaVuSans-53"/>
      <use x="668.603516" xlink:href="#DejaVuSans-32"/>
      <use x="700.390625" xlink:href="#DejaVuSans-37"/>
     </g>
    </g>
   </g>
   <g id="matplotlib.axis_2">
    <g id="ytick_1">
     <g id="line2d_9">
      <defs>
       <path d="M 0 0 
L -3.5 0 
" id="m3935602bf2" style="stroke:#000000;stroke-width:0.8;"/>
      </defs>
      <g>
       <use style="stroke:#000000;stroke-width:0.8;" x="49.665988" xlink:href="#m3935602bf2" y="259.076066"/>
      </g>
     </g>
     <g id="text_10">
      <!-- −5 -->
      <g transform="translate(27.9238 262.875285)scale(0.1 -0.1)">
       <defs>
        <path d="M 10.59375 35.5 
L 73.1875 35.5 
L 73.1875 27.203125 
L 10.59375 27.203125 
z
" id="DejaVuSans-8722"/>
       </defs>
       <use xlink:href="#DejaVuSans-8722"/>
       <use x="83.789062" xlink:href="#DejaVuSans-53"/>
      </g>
     </g>
    </g>
    <g id="ytick_2">
     <g id="line2d_10">
      <g>
       <use style="stroke:#000000;stroke-width:0.8;" x="49.665988" xlink:href="#m3935602bf2" y="209.460696"/>
      </g>
     </g>
     <g id="text_11">
      <!-- 0 -->
      <g transform="translate(36.303488 213.259915)scale(0.1 -0.1)">
       <use xlink:href="#DejaVuSans-48"/>
      </g>
     </g>
    </g>
    <g id="ytick_3">
     <g id="line2d_11">
      <g>
       <use style="stroke:#000000;stroke-width:0.8;" x="49.665988" xlink:href="#m3935602bf2" y="159.845327"/>
      </g>
     </g>
     <g id="text_12">
      <!-- 5 -->
      <g transform="translate(36.303488 163.644546)scale(0.1 -0.1)">
       <use xlink:href="#DejaVuSans-53"/>
      </g>
     </g>
    </g>
    <g id="ytick_4">
     <g id="line2d_12">
      <g>
       <use style="stroke:#000000;stroke-width:0.8;" x="49.665988" xlink:href="#m3935602bf2" y="110.229958"/>
      </g>
     </g>
     <g id="text_13">
      <!-- 10 -->
      <g transform="translate(29.940988 114.029176)scale(0.1 -0.1)">
       <use xlink:href="#DejaVuSans-49"/>
       <use x="63.623047" xlink:href="#DejaVuSans-48"/>
      </g>
     </g>
    </g>
    <g id="ytick_5">
     <g id="line2d_13">
      <g>
       <use style="stroke:#000000;stroke-width:0.8;" x="49.665988" xlink:href="#m3935602bf2" y="60.614588"/>
      </g>
     </g>
     <g id="text_14">
      <!-- 15 -->
      <g transform="translate(29.940988 64.413807)scale(0.1 -0.1)">
       <use xlink:href="#DejaVuSans-49"/>
       <use x="63.623047" xlink:href="#DejaVuSans-53"/>
      </g>
     </g>
    </g>
    <g id="ytick_6">
     <g id="line2d_14">
      <g>
       <use style="stroke:#000000;stroke-width:0.8;" x="49.665988" xlink:href="#m3935602bf2" y="10.999219"/>
      </g>
     </g>
     <g id="text_15">
      <!-- 20 -->
      <g transform="translate(29.940988 14.798438)scale(0.1 -0.1)">
       <use xlink:href="#DejaVuSans-50"/>
       <use x="63.623047" xlink:href="#DejaVuSans-48"/>
      </g>
     </g>
    </g>
    <g id="text_16">
     <!-- 2nd PC: 6.76 % -->
     <g transform="translate(20.3301 208.006162)rotate(-90)scale(0.1728 -0.1728)">
      <defs>
       <path d="M 54.890625 33.015625 
L 54.890625 0 
L 45.90625 0 
L 45.90625 32.71875 
Q 45.90625 40.484375 42.875 44.328125 
Q 39.84375 48.1875 33.796875 48.1875 
Q 26.515625 48.1875 22.3125 43.546875 
Q 18.109375 38.921875 18.109375 30.90625 
L 18.109375 0 
L 9.078125 0 
L 9.078125 54.6875 
L 18.109375 54.6875 
L 18.109375 46.1875 
Q 21.34375 51.125 25.703125 53.5625 
Q 30.078125 56 35.796875 56 
Q 45.21875 56 50.046875 50.171875 
Q 54.890625 44.34375 54.890625 33.015625 
z
" id="DejaVuSans-110"/>
       <path d="M 45.40625 46.390625 
L 45.40625 75.984375 
L 54.390625 75.984375 
L 54.390625 0 
L 45.40625 0 
L 45.40625 8.203125 
Q 42.578125 3.328125 38.25 0.953125 
Q 33.9375 -1.421875 27.875 -1.421875 
Q 17.96875 -1.421875 11.734375 6.484375 
Q 5.515625 14.40625 5.515625 27.296875 
Q 5.515625 40.1875 11.734375 48.09375 
Q 17.96875 56 27.875 56 
Q 33.9375 56 38.25 53.625 
Q 42.578125 51.265625 45.40625 46.390625 
z
M 14.796875 27.296875 
Q 14.796875 17.390625 18.875 11.75 
Q 22.953125 6.109375 30.078125 6.109375 
Q 37.203125 6.109375 41.296875 11.75 
Q 45.40625 17.390625 45.40625 27.296875 
Q 45.40625 37.203125 41.296875 42.84375 
Q 37.203125 48.484375 30.078125 48.484375 
Q 22.953125 48.484375 18.875 42.84375 
Q 14.796875 37.203125 14.796875 27.296875 
z
" id="DejaVuSans-100"/>
       <path d="M 8.203125 72.90625 
L 55.078125 72.90625 
L 55.078125 68.703125 
L 28.609375 0 
L 18.3125 0 
L 43.21875 64.59375 
L 8.203125 64.59375 
z
" id="DejaVuSans-55"/>
      </defs>
      <use xlink:href="#DejaVuSans-50"/>
      <use x="63.623047" xlink:href="#DejaVuSans-110"/>
      <use x="127.001953" xlink:href="#DejaVuSans-100"/>
      <use x="190.478516" xlink:href="#DejaVuSans-32"/>
      <use x="222.265625" xlink:href="#DejaVuSans-80"/>
      <use x="282.568359" xlink:href="#DejaVuSans-67"/>
      <use x="352.392578" xlink:href="#DejaVuSans-58"/>
      <use x="386.083984" xlink:href="#DejaVuSans-32"/>
      <use x="417.871094" xlink:href="#DejaVuSans-54"/>
      <use x="481.494141" xlink:href="#DejaVuSans-46"/>
      <use x="513.28125" xlink:href="#DejaVuSans-55"/>
      <use x="576.904297" xlink:href="#DejaVuSans-54"/>
      <use x="640.527344" xlink:href="#DejaVuSans-32"/>
      <use x="672.314453" xlink:href="#DejaVuSans-37"/>
     </g>
    </g>
   </g>
   <g id="LineCollection_1"/>
   <g id="LineCollection_2"/>
   <g id="LineCollection_3">
    <path clip-path="url(#p1063921690)" d="M 71.435881 214.502693 
L 71.159247 212.437619 
L 71.314394 206.814543 
L 71.435881 205.715407 
L 71.601831 206.814543 
L 71.558691 212.437619 
L 71.435881 214.502693 
" style="fill:none;stroke:#482576;stroke-width:1.5;"/>
   </g>
   <g id="LineCollection_4">
    <path clip-path="url(#p1063921690)" d="M 73.003159 203.46157 
L 72.894198 206.814543 
L 72.633944 212.437619 
L 72.524375 214.525679 
L 72.058167 218.060694 
L 71.492975 223.683769 
L 71.435881 224.391782 
L 70.347386 225.560027 
L 70.058542 223.683769 
L 69.584803 218.060694 
L 69.497085 212.437619 
L 69.686544 206.814543 
L 70.066171 201.191468 
L 70.347386 198.595384 
L 70.871832 195.568393 
L 71.435881 192.375935 
L 72.284479 190.666283 
" style="fill:none;stroke:#453781;stroke-width:1.5;"/>
   </g>
   <g id="LineCollection_5">
    <path clip-path="url(#p1063921690)" d="M 69.636835 229.306844 
L 69.258891 226.770069 
L 68.895816 223.683769 
L 68.542903 218.060694 
L 68.489566 212.437619 
L 68.593571 208.704957 
" style="fill:none;stroke:#404688;stroke-width:1.5;"/>
    <path clip-path="url(#p1063921690)" d="M 69.633488 194.663948 
L 70.261075 189.945318 
L 70.347386 189.270724 
L 71.071956 184.322243 
L 71.435881 180.827862 
L 71.784667 178.699167 
L 72.306399 173.076092 
L 72.524375 168.91635 
L 73.540993 173.076092 
L 73.61287 173.480772 
L 73.662371 178.699167 
L 73.720255 184.322243 
L 73.763394 189.945318 
L 73.761129 195.568393 
L 73.687717 201.191468 
L 73.61287 203.673303 
L 73.399166 206.814543 
L 72.920271 212.437619 
L 72.578706 218.060694 
L 72.524375 218.833889 
L 71.814395 223.683769 
L 71.435881 228.377603 
L 71.100105 229.306844 
" style="fill:none;stroke:#404688;stroke-width:1.5;"/>
    <path clip-path="url(#p1063921690)" d="M 71.966287 112.747972 
L 72.524375 116.576811 
L 72.534561 116.84534 
L 72.694762 122.468415 
L 72.866984 128.091491 
L 73.043665 133.714566 
L 73.01863 139.337641 
L 72.524375 142.328271 
L 72.428404 139.337641 
L 72.216623 133.714566 
L 71.978927 128.091491 
L 71.63349 122.468415 
L 71.435881 120.708554 
L 71.221324 116.84534 
L 70.943881 111.222265 
L 70.685484 105.59919 
L 70.794146 105.187185 
" style="fill:none;stroke:#404688;stroke-width:1.5;"/>
    <path clip-path="url(#p1063921690)" d="M 70.347386 102.340898 
L 70.237221 99.976115 
L 70.105479 94.353039 
L 70.347386 90.63307 
L 70.440634 94.353039 
L 70.620488 99.976115 
L 70.347386 102.340898 
" style="fill:none;stroke:#404688;stroke-width:1.5;"/>
   </g>
   <g id="LineCollection_6">
    <path clip-path="url(#p1063921690)" d="M 68.397401 229.306844 
L 68.170397 227.227619 
L 67.568763 223.683769 
L 67.159686 218.060694 
L 67.137979 212.437619 
L 67.319249 206.814543 
L 67.653243 201.191468 
L 68.170397 195.840525 
L 68.190134 195.568393 
L 68.797303 189.945318 
L 69.258891 186.649322 
L 69.536199 184.322243 
L 70.057868 178.699167 
L 70.347386 174.131727 
L 70.412016 173.076092 
L 70.590143 167.453017 
L 70.665377 161.829942 
L 70.671507 156.206867 
L 70.636398 150.583791 
L 70.58333 144.960716 
L 70.529594 139.337641 
L 70.471405 133.714566 
L 70.362268 128.091491 
L 70.347386 127.735518 
L 70.065309 122.468415 
L 69.713119 116.84534 
L 69.348267 111.222265 
L 69.258891 110.053802 
L 68.828202 105.59919 
L 68.377499 99.976115 
L 68.170397 97.375942 
L 67.847055 94.353039 
L 67.349971 88.729964 
L 67.081902 85.480024 
L 66.783326 83.106889 
L 66.212804 77.483814 
L 65.993407 75.06326 
L 65.478304 71.860739 
L 64.904913 67.106438 
L 64.632054 66.237663 
L 63.816418 62.66905 
L 62.727923 63.527608 
L 62.313784 66.237663 
L 61.773371 71.860739 
L 61.639429 74.005705 
L 61.438142 77.483814 
L 61.182515 83.106889 
L 60.976443 88.729964 
L 60.798251 94.353039 
L 60.63811 99.976115 
L 60.550934 103.271873 
L 60.479012 105.59919 
L 60.30836 111.222265 
L 60.131568 116.84534 
L 59.947634 122.468415 
L 59.762754 128.091491 
L 59.582101 133.714566 
L 59.462439 137.447887 
L 59.386858 139.337641 
L 59.1563 144.960716 
L 58.931751 150.583791 
L 58.806879 154.022977 
" style="fill:none;stroke:#39558c;stroke-width:1.5;"/>
    <path clip-path="url(#p1063921690)" d="M 58.396386 169.731523 
L 58.373945 170.755747 
L 58.309281 173.076092 
L 58.137122 178.699167 
L 57.985079 184.322243 
L 57.90305 189.945318 
L 57.856171 195.568393 
L 57.789648 201.191468 
L 57.754299 206.814543 
L 57.728963 212.437619 
L 57.69163 218.060694 
L 57.635703 223.683769 
L 57.546171 229.306844 
" style="fill:none;stroke:#39558c;stroke-width:1.5;"/>
    <path clip-path="url(#p1063921690)" d="M 69.021986 60.614588 
L 69.258891 62.406938 
L 69.426449 66.237663 
L 69.755954 71.860739 
L 70.347386 77.168333 
L 70.359624 77.483814 
L 70.569297 83.106889 
L 70.904892 88.729964 
L 71.435881 93.438834 
L 71.471674 94.353039 
L 71.699424 99.976115 
L 72.08581 105.59919 
L 72.524375 109.38694 
L 72.601592 111.222265 
L 72.862766 116.84534 
L 73.272757 122.468415 
L 73.61287 125.944059 
L 73.697858 128.091491 
L 73.892764 133.714566 
L 74.057663 139.337641 
L 74.153924 144.960716 
L 74.190141 150.583791 
L 74.209593 156.206867 
L 74.220507 161.829942 
L 74.226441 167.453017 
L 74.228838 173.076092 
L 74.226734 178.699167 
L 74.211624 184.322243 
L 74.168627 189.945318 
L 74.073898 195.568393 
L 73.911565 201.191468 
L 73.695417 206.814543 
L 73.61287 208.439719 
L 73.206598 212.437619 
L 72.732988 218.060694 
L 72.524375 221.029509 
L 72.242808 222.952893 
" style="fill:none;stroke:#39558c;stroke-width:1.5;"/>
   </g>
   <g id="LineCollection_7">
    <path clip-path="url(#p1063921690)" d="M 69.477517 60.614588 
L 69.827491 66.237663 
L 70.347386 71.457786 
L 70.363846 71.860739 
L 70.588402 77.483814 
L 70.912937 83.106889 
L 71.435881 88.432141 
L 71.447885 88.729964 
L 71.673192 94.353039 
L 72.013874 99.976115 
L 72.405706 103.790829 
" style="fill:none;stroke:#33638d;stroke-width:1.5;"/>
    <path clip-path="url(#p1063921690)" d="M 73.334483 118.294202 
L 73.61287 121.104716 
L 73.675384 122.468415 
L 73.931622 128.091491 
L 74.240401 133.714566 
L 74.532452 139.337641 
L 74.701365 144.157769 
L 74.71625 144.960716 
L 74.763544 150.583791 
L 74.789705 156.206867 
L 74.799919 161.829942 
L 74.796616 167.453017 
L 74.78114 173.076092 
L 74.751948 178.699167 
L 74.702294 184.322243 
L 74.701365 184.380851 
L 74.573859 189.945318 
L 74.386667 195.568393 
L 74.135414 201.191468 
L 73.83853 206.814543 
L 73.61287 211.257305 
L 73.492925 212.437619 
L 72.88727 218.060694 
L 72.524375 223.225128 
L 72.457234 223.683769 
L 71.693331 229.306844 
" style="fill:none;stroke:#33638d;stroke-width:1.5;"/>
    <path clip-path="url(#p1063921690)" d="M 67.081902 170.68367 
L 67.185478 167.453017 
L 67.081902 164.661071 
L 66.954333 167.453017 
L 67.081902 170.68367 
" style="fill:none;stroke:#33638d;stroke-width:1.5;"/>
   </g>
   <g id="LineCollection_8">
    <path clip-path="url(#p1063921690)" d="M 69.749267 60.614588 
L 70.228532 66.237663 
L 70.347386 67.431041 
L 70.528337 71.860739 
L 70.817181 77.483814 
L 71.256578 83.106889 
L 71.435881 84.932774 
L 71.588935 88.729964 
L 71.874709 94.353039 
L 72.328325 99.976115 
L 72.524375 101.884781 
L 72.606072 103.738226 
" style="fill:none;stroke:#2d718e;stroke-width:1.5;"/>
    <path clip-path="url(#p1063921690)" d="M 73.621109 117.970987 
L 73.827278 122.468415 
L 74.165385 128.091491 
L 74.588038 133.714566 
L 74.701365 135.603895 
L 74.818587 139.337641 
L 74.967421 144.960716 
L 75.069318 150.583791 
L 75.12089 156.206867 
L 75.141309 161.829942 
L 75.138392 167.453017 
L 75.116202 173.076092 
L 75.070087 178.699167 
L 74.982795 184.322243 
L 74.846674 189.945318 
L 74.701365 195.518265 
L 74.699436 195.568393 
L 74.359263 201.191468 
L 73.981643 206.814543 
L 73.659932 212.437619 
L 73.61287 213.200313 
L 73.041551 218.060694 
L 72.588696 223.683769 
L 72.524375 224.493392 
L 71.839042 229.306844 
" style="fill:none;stroke:#2d718e;stroke-width:1.5;"/>
   </g>
   <g id="LineCollection_9">
    <path clip-path="url(#p1063921690)" d="M 70.021017 60.614588 
L 70.347386 64.160302 
L 70.43496 66.237663 
L 70.692828 71.860739 
L 71.045959 77.483814 
L 71.435881 81.874823 
L 71.485869 83.106889 
L 71.729986 88.729964 
L 72.076226 94.353039 
L 72.524375 99.161914 
L 72.560571 99.976115 
L 72.744917 103.925477 
" style="fill:none;stroke:#287d8e;stroke-width:1.5;"/>
    <path clip-path="url(#p1063921690)" d="M 73.755643 118.184067 
L 73.979171 122.468415 
L 74.399149 128.091491 
L 74.701365 131.787614 
L 74.784407 133.714566 
L 75.000543 139.337641 
L 75.218591 144.960716 
L 75.375093 150.583791 
L 75.452076 156.206867 
L 75.482699 161.829942 
L 75.480168 167.453017 
L 75.451265 173.076092 
L 75.388226 178.699167 
L 75.263295 184.322243 
L 75.058697 189.945318 
L 74.829892 195.568393 
L 74.701365 199.239884 
L 74.583111 201.191468 
L 74.124756 206.814543 
L 73.740922 212.437619 
L 73.61287 214.512835 
L 73.195833 218.060694 
L 72.669999 223.683769 
L 72.524375 225.516793 
L 71.984752 229.306844 
" style="fill:none;stroke:#287d8e;stroke-width:1.5;"/>
   </g>
   <g id="LineCollection_10">
    <path clip-path="url(#p1063921690)" d="M 70.292766 60.614588 
L 70.347386 61.207983 
L 70.559419 66.237663 
L 70.857318 71.860739 
L 71.274737 77.483814 
L 71.435881 79.29849 
L 71.590399 83.106889 
L 71.871036 88.729964 
L 72.277743 94.353039 
L 72.524375 96.999532 
L 72.6567 99.976115 
L 72.957982 105.59919 
L 73.411886 111.222265 
L 73.61287 113.283444 
L 73.787863 116.84534 
L 74.131065 122.468415 
L 74.632912 128.091491 
L 74.701365 128.928667 
L 74.907613 133.714566 
L 75.182498 139.337641 
L 75.469762 144.960716 
L 75.680867 150.583791 
L 75.783261 156.206867 
L 75.789859 157.138934 
L 75.804822 161.829942 
L 75.803818 167.453017 
L 75.789859 172.508381 
L 75.786327 173.076092 
L 75.706366 178.699167 
L 75.543795 184.322243 
L 75.270719 189.945318 
L 74.959217 195.568393 
L 74.733546 201.191468 
L 74.701365 201.949174 
L 74.267869 206.814543 
L 73.920533 211.194106 
" style="fill:none;stroke:#238a8d;stroke-width:1.5;"/>
    <path clip-path="url(#p1063921690)" d="M 72.681864 224.557832 
L 72.524375 226.540193 
L 72.130463 229.306844 
" style="fill:none;stroke:#238a8d;stroke-width:1.5;"/>
   </g>
   <g id="LineCollection_11">
    <path clip-path="url(#p1063921690)" d="M 70.425412 60.614588 
L 70.683879 66.237663 
L 71.021809 71.860739 
L 71.435881 76.892834 
L 71.459673 77.483814 
L 71.694929 83.106889 
L 72.012087 88.729964 
L 72.47926 94.353039 
L 72.524375 94.837149 
L 72.75283 99.976115 
L 73.020099 104.395131 
" style="fill:none;stroke:#1f968b;stroke-width:1.5;"/>
    <path clip-path="url(#p1063921690)" d="M 74.018656 118.687042 
L 74.282959 122.468415 
L 74.701365 126.942802 
L 74.761327 128.091491 
L 75.03082 133.714566 
L 75.364454 139.337641 
L 75.720933 144.960716 
L 75.789859 146.641688 
L 75.868531 150.583791 
L 75.927536 156.206867 
L 75.954055 161.829942 
L 75.952516 167.453017 
L 75.924695 173.076092 
L 75.870156 178.699167 
L 75.798843 184.322243 
L 75.789859 184.761589 
L 75.482741 189.945318 
L 75.088541 195.568393 
L 74.801767 201.191468 
L 74.701365 203.555415 
L 74.410982 206.814543 
L 73.902902 212.437619 
L 73.61287 217.13788 
L 73.504397 218.060694 
L 72.832607 223.683769 
L 72.524375 227.563594 
L 72.276173 229.306844 
" style="fill:none;stroke:#1f968b;stroke-width:1.5;"/>
   </g>
   <g id="LineCollection_12">
    <path clip-path="url(#p1063921690)" d="M 70.523065 60.614588 
L 70.808338 66.237663 
L 71.186299 71.860739 
L 71.435881 74.893827 
L 71.540151 77.483814 
L 71.799459 83.106889 
L 72.153137 88.729964 
L 72.524375 93.072495 
L 72.580223 94.353039 
L 72.848959 99.976115 
L 73.136562 104.244257 
" style="fill:none;stroke:#20a386;stroke-width:1.5;"/>
    <path clip-path="url(#p1063921690)" d="M 74.128703 118.58117 
L 74.434853 122.468415 
L 74.701365 125.318464 
L 74.84612 128.091491 
L 75.154027 133.714566 
L 75.54641 139.337641 
L 75.789859 142.983535 
L 75.858899 144.960716 
L 75.990778 150.583791 
L 76.068012 156.206867 
L 76.103288 161.829942 
L 76.101213 167.453017 
L 76.060968 173.076092 
L 75.979024 178.699167 
L 75.87202 184.322243 
L 75.789859 188.340235 
L 75.694764 189.945318 
L 75.217866 195.568393 
L 74.869989 201.191468 
L 74.701365 205.161657 
L 74.554096 206.814543 
L 73.983892 212.437619 
L 73.625457 218.060694 
L 73.61287 218.248418 
L 72.913911 223.683769 
L 72.524375 228.586994 
L 72.421884 229.306844 
" style="fill:none;stroke:#20a386;stroke-width:1.5;"/>
   </g>
   <g id="LineCollection_13">
    <path clip-path="url(#p1063921690)" d="M 70.620718 60.614588 
L 70.932797 66.237663 
L 71.35079 71.860739 
L 71.435881 72.89482 
L 71.620629 77.483814 
L 71.903989 83.106889 
L 72.294187 88.729964 
L 72.524375 91.422569 
L 72.65218 94.353039 
L 72.945089 99.976115 
L 73.251498 104.100862 
" style="fill:none;stroke:#29af7f;stroke-width:1.5;"/>
    <path clip-path="url(#p1063921690)" d="M 74.236556 118.471668 
L 74.586747 122.468415 
L 74.701365 123.694126 
L 74.930912 128.091491 
L 75.277233 133.714566 
L 75.728366 139.337641 
L 75.789859 140.258567 
L 75.954051 144.960716 
L 76.113024 150.583791 
L 76.208488 156.206867 
L 76.252521 161.829942 
L 76.249911 167.453017 
L 76.197241 173.076092 
L 76.087892 178.699167 
L 75.945197 184.322243 
L 75.814127 189.945318 
L 75.789859 190.725568 
L 75.347191 195.568393 
L 74.93821 201.191468 
L 74.701365 206.767898 
L 74.697209 206.814543 
L 74.064882 212.437619 
L 73.667849 218.060694 
L 73.61287 218.880665 
L 72.995215 223.683769 
L 72.536477 229.306844 
" style="fill:none;stroke:#29af7f;stroke-width:1.5;"/>
   </g>
   <g id="LineCollection_14">
    <path clip-path="url(#p1063921690)" d="M 70.718372 60.614588 
L 71.057257 66.237663 
L 71.435881 71.0907 
L 71.466615 71.860739 
L 71.701107 77.483814 
L 72.008519 83.106889 
L 72.435238 88.729964 
L 72.524375 89.772643 
L 72.724138 94.353039 
L 73.041218 99.976115 
L 73.36507 103.965039 
" style="fill:none;stroke:#3dbc74;stroke-width:1.5;"/>
    <path clip-path="url(#p1063921690)" d="M 74.339953 118.370482 
L 74.701365 122.202815 
L 74.716298 122.468415 
L 75.015705 128.091491 
L 75.40044 133.714566 
L 75.789859 138.363808 
L 75.836061 139.337641 
L 76.049203 144.960716 
L 76.23527 150.583791 
L 76.348963 156.206867 
L 76.401754 161.829942 
L 76.398608 167.453017 
L 76.333513 173.076092 
L 76.19676 178.699167 
L 76.018374 184.322243 
L 75.858132 189.945318 
L 75.789859 192.14039 
L 75.476516 195.568393 
L 75.006431 201.191468 
L 74.735774 206.814543 
L 74.701365 207.511855 
L 74.145871 212.437619 
L 73.710242 218.060694 
L 73.61287 219.512913 
L 73.076519 223.683769 
L 72.577276 229.306844 
" style="fill:none;stroke:#3dbc74;stroke-width:1.5;"/>
   </g>
   <g id="LineCollection_15">
    <path clip-path="url(#p1063921690)" d="M 70.816025 60.614588 
L 71.181716 66.237663 
L 71.435881 69.495435 
L 71.530288 71.860739 
L 71.781586 77.483814 
L 72.113049 83.106889 
L 72.524375 88.249017 
L 72.544838 88.729964 
L 72.796095 94.353039 
L 73.137348 99.976115 
L 73.474229 103.844914 
" style="fill:none;stroke:#56c667;stroke-width:1.5;"/>
    <path clip-path="url(#p1063921690)" d="M 74.435208 118.298265 
L 74.701365 121.120537 
L 74.777152 122.468415 
L 75.100497 128.091491 
L 75.523647 133.714566 
L 75.789859 136.892855 
L 75.905849 139.337641 
L 76.144355 144.960716 
L 76.357517 150.583791 
L 76.489439 156.206867 
L 76.550987 161.829942 
L 76.547306 167.453017 
L 76.469786 173.076092 
L 76.305628 178.699167 
L 76.091551 184.322243 
L 75.902137 189.945318 
L 75.789859 193.555212 
L 75.60584 195.568393 
L 75.074652 201.191468 
L 74.771214 206.814543 
L 74.701365 208.230022 
L 74.226861 212.437619 
L 73.752634 218.060694 
L 73.61287 220.14516 
L 73.157823 223.683769 
L 72.618075 229.306844 
" style="fill:none;stroke:#56c667;stroke-width:1.5;"/>
   </g>
   <g id="LineCollection_16">
    <path clip-path="url(#p1063921690)" d="M 70.913679 60.614588 
L 71.306175 66.237663 
L 71.435881 67.90017 
L 71.59396 71.860739 
L 71.862064 77.483814 
L 72.217579 83.106889 
L 72.524375 86.942255 
L 72.600436 88.729964 
L 72.868052 94.353039 
L 73.233477 99.976115 
L 73.564404 103.776531 
" style="fill:none;stroke:#75d054;stroke-width:1.5;"/>
    <path clip-path="url(#p1063921690)" d="M 74.530039 118.221553 
L 74.701365 120.038259 
L 74.838005 122.468415 
L 75.18529 128.091491 
L 75.646853 133.714566 
L 75.789859 135.421902 
L 75.975636 139.337641 
L 76.239507 144.960716 
L 76.479763 150.583791 
L 76.629914 156.206867 
L 76.70022 161.829942 
L 76.696003 167.453017 
L 76.606059 173.076092 
L 76.414496 178.699167 
L 76.164728 184.322243 
L 75.946142 189.945318 
L 75.789859 194.970034 
L 75.735165 195.568393 
L 75.142874 201.191468 
L 74.806653 206.814543 
L 74.701365 208.948189 
L 74.307851 212.437619 
L 73.795027 218.060694 
L 73.61287 220.777408 
L 73.239126 223.683769 
L 72.658874 229.306844 
" style="fill:none;stroke:#75d054;stroke-width:1.5;"/>
   </g>
   <g id="LineCollection_17">
    <path clip-path="url(#p1063921690)" d="M 71.011332 60.614588 
L 71.430635 66.237663 
L 71.435881 66.304905 
L 71.657632 71.860739 
L 71.942542 77.483814 
L 72.322108 83.106889 
L 72.524375 85.635493 
L 72.656033 88.729964 
L 72.94001 94.353039 
L 73.329606 99.976115 
L 73.61287 103.229159 
L 73.638967 103.76115 
" style="fill:none;stroke:#95d840;stroke-width:1.5;"/>
    <path clip-path="url(#p1063921690)" d="M 74.624464 118.140538 
L 74.701365 118.955981 
L 74.898859 122.468415 
L 75.270082 128.091491 
L 75.77006 133.714566 
L 75.789859 133.950948 
L 76.045423 139.337641 
L 76.334658 144.960716 
L 76.602009 150.583791 
L 76.77039 156.206867 
L 76.849453 161.829942 
L 76.844701 167.453017 
L 76.742331 173.076092 
L 76.523365 178.699167 
L 76.237905 184.322243 
L 75.990147 189.945318 
L 75.804802 195.568393 
L 75.789859 195.926527 
L 75.211095 201.191468 
L 74.842092 206.814543 
L 74.701365 209.666356 
L 74.388841 212.437619 
L 73.837419 218.060694 
L 73.61287 221.409655 
L 73.32043 223.683769 
L 72.699674 229.306844 
" style="fill:none;stroke:#95d840;stroke-width:1.5;"/>
   </g>
   <g id="LineCollection_18">
    <path clip-path="url(#p1063921690)" d="M 71.108985 60.614588 
L 71.435881 64.98665 
L 71.485114 66.237663 
L 71.721305 71.860739 
L 72.02302 77.483814 
L 72.426638 83.106889 
L 72.524375 84.328731 
L 72.711631 88.729964 
L 73.011967 94.353039 
L 73.425736 99.976115 
L 73.61287 102.125193 
L 73.695367 103.806938 
" style="fill:none;stroke:#bade28;stroke-width:1.5;"/>
    <path clip-path="url(#p1063921690)" d="M 74.712738 118.075977 
L 74.959712 122.468415 
L 75.354874 128.091491 
L 75.789859 132.923945 
L 75.833199 133.714566 
L 76.11521 139.337641 
L 76.42981 144.960716 
L 76.724256 150.583791 
L 76.878354 155.334606 
L 76.89027 156.206867 
L 76.91929 161.829942 
L 76.912869 167.453017 
L 76.878418 173.076092 
L 76.878354 173.080651 
L 76.632233 178.699167 
L 76.311081 184.322243 
L 76.034151 189.945318 
L 75.830696 195.568393 
L 75.789859 196.547127 
L 75.279316 201.191468 
L 74.877531 206.814543 
L 74.701365 210.384522 
L 74.469831 212.437619 
L 73.879812 218.060694 
L 73.61287 222.041902 
L 73.401734 223.683769 
L 72.740473 229.306844 
" style="fill:none;stroke:#bade28;stroke-width:1.5;"/>
   </g>
   <g id="LineCollection_19">
    <path clip-path="url(#p1063921690)" d="M 71.206639 60.614588 
L 71.435881 63.680584 
L 71.536514 66.237663 
L 71.784977 71.860739 
L 72.103498 77.483814 
L 72.524375 83.037873 
L 72.527231 83.106889 
L 72.767229 88.729964 
L 73.083925 94.353039 
L 73.521865 99.976115 
L 73.61287 101.021226 
L 73.751875 103.854907 
" style="fill:none;stroke:#dde318;stroke-width:1.5;"/>
    <path clip-path="url(#p1063921690)" d="M 74.774444 118.101852 
L 75.020565 122.468415 
L 75.439667 128.091491 
L 75.789859 131.981946 
L 75.884836 133.714566 
L 76.184998 139.337641 
L 76.524962 144.960716 
L 76.846502 150.583791 
L 76.878354 151.565779 
L 76.941756 156.206867 
L 76.970057 161.829942 
L 76.95748 167.453017 
L 76.913245 173.076092 
L 76.878354 175.565922 
L 76.741101 178.699167 
L 76.384258 184.322243 
L 76.078156 189.945318 
L 75.85659 195.568393 
L 75.789859 197.167726 
L 75.347537 201.191468 
L 74.91297 206.814543 
L 74.701365 211.102689 
L 74.550821 212.437619 
L 73.922204 218.060694 
L 73.61287 222.67415 
L 73.483038 223.683769 
L 72.781272 229.306844 
" style="fill:none;stroke:#dde318;stroke-width:1.5;"/>
   </g>
   <g id="LineCollection_20">
    <path clip-path="url(#p1063921690)" d="M 71.304292 60.614588 
L 71.435881 62.374518 
L 71.587913 66.237663 
L 71.848649 71.860739 
L 72.183977 77.483814 
L 72.524375 81.97585 
L 72.571171 83.106889 
L 72.822827 88.729964 
L 73.155882 94.353039 
L 73.61287 99.929304 
L 73.615086 99.976115 
L 73.808306 103.905433 
" style="fill:none;stroke:#fde725;stroke-width:1.5;"/>
    <path clip-path="url(#p1063921690)" d="M 74.827432 118.173067 
L 75.081419 122.468415 
L 75.524459 128.091491 
L 75.789859 131.039946 
L 75.936474 133.714566 
L 76.254785 139.337641 
L 76.620114 144.960716 
L 76.878354 149.379783 
L 76.913216 150.583791 
L 76.993243 156.206867 
L 77.020825 161.829942 
L 77.002092 167.453017 
L 76.948072 173.076092 
L 76.878354 178.051192 
L 76.849969 178.699167 
L 76.457435 184.322243 
L 76.122161 189.945318 
L 75.882484 195.568393 
L 75.789859 197.788325 
L 75.415758 201.191468 
L 74.948409 206.814543 
L 74.701365 211.820856 
L 74.63181 212.437619 
L 73.964596 218.060694 
L 73.61287 223.306397 
L 73.564342 223.683769 
L 72.822072 229.306844 
" style="fill:none;stroke:#fde725;stroke-width:1.5;"/>
   </g>
   <g id="LineCollection_21">
    <path clip-path="url(#p1063921690)" d="M 71.401946 60.614588 
L 71.435881 61.068452 
L 71.639313 66.237663 
L 71.912322 71.860739 
L 72.264455 77.483814 
L 72.524375 80.913828 
L 72.615112 83.106889 
L 72.878425 88.729964 
L 73.227839 94.353039 
L 73.61287 99.051265 
L 73.656648 99.976115 
L 73.94575 105.59919 
L 74.17232 108.828488 
" style="fill:none;stroke:#440154;stroke-width:1.5;"/>
    <path clip-path="url(#p1063921690)" d="M 75.358866 125.07651 
L 75.609252 128.091491 
L 75.789859 130.097946 
L 75.988112 133.714566 
L 76.324572 139.337641 
L 76.715266 144.960716 
L 76.878354 147.751522 
L 76.960362 150.583791 
L 77.044729 156.206867 
L 77.071593 161.829942 
L 77.046703 167.453017 
L 76.982898 173.076092 
L 76.896821 178.699167 
L 76.878354 179.456176 
L 76.530612 184.322243 
L 76.166166 189.945318 
L 75.908378 195.568393 
L 75.789859 198.408924 
L 75.48398 201.191468 
L 74.983848 206.814543 
L 74.704032 212.437619 
L 74.701365 212.485677 
L 74.006989 218.060694 
L 73.621376 223.683769 
L 73.61287 223.804435 
L 72.862871 229.306844 
" style="fill:none;stroke:#440154;stroke-width:1.5;"/>
   </g>
   <g id="LineCollection_22">
    <path clip-path="url(#p1063921690)" d="M 74.532923 60.614588 
L 74.701365 63.236667 
L 74.818332 66.237663 
L 75.074096 71.860739 
L 75.401069 77.483814 
L 75.789859 82.75989 
L 75.806843 83.106889 
L 76.098385 88.729964 
L 76.477773 94.353039 
L 76.878354 99.129079 
L 76.927673 99.976115 
L 77.277454 105.59919 
L 77.729619 111.222265 
L 77.966849 113.865003 
L 78.152313 116.84534 
L 78.385442 120.344556 
" style="fill:none;stroke:#440154;stroke-width:1.5;"/>
    <path clip-path="url(#p1063921690)" d="M 79.418964 139.456351 
L 79.58902 144.960716 
L 79.703418 150.583791 
L 79.707559 156.206867 
L 79.587091 161.829942 
L 79.404899 167.453017 
L 79.214678 173.076092 
L 79.055343 178.100865 
L 79.012585 178.699167 
L 78.564871 184.322243 
L 78.213286 189.945318 
L 77.966849 195.105617 
L 77.921558 195.568393 
L 77.343031 201.191468 
L 76.967609 206.814543 
L 76.878354 208.274521 
L 76.394555 212.437619 
L 75.93418 218.060694 
L 75.789859 220.212039 
L 75.348485 223.683769 
L 74.824575 229.306844 
" style="fill:none;stroke:#440154;stroke-width:1.5;"/>
   </g>
   <g id="LineCollection_23">
    <path clip-path="url(#p1063921690)" d="M 78.146703 60.614588 
L 78.464122 66.237663 
L 78.877049 71.860739 
L 79.055343 74.027802 
L 79.249829 77.483814 
L 79.64008 83.106889 
L 80.143838 88.63803 
L 80.149012 88.729964 
L 80.461734 94.353039 
L 80.839473 99.976115 
L 81.232332 105.122626 
L 81.249361 105.59919 
L 81.424856 111.222265 
L 81.588214 116.84534 
L 81.734484 122.468415 
L 81.860663 128.091491 
L 81.964184 133.714566 
L 82.041774 139.181464 
" style="fill:none;stroke:#440154;stroke-width:1.5;"/>
    <path clip-path="url(#p1063921690)" d="M 81.819045 161.837352 
L 81.605691 167.453017 
L 81.403483 173.076092 
L 81.232332 178.361443 
L 81.206529 178.699167 
L 80.729248 184.322243 
L 80.364438 189.945318 
L 80.143838 194.251489 
L 80.008937 195.568393 
L 79.444585 201.191468 
L 79.07752 206.814543 
L 79.055343 207.138037 
L 78.41299 212.437619 
L 77.988379 218.060694 
L 77.966849 218.334169 
L 77.27071 223.683769 
L 76.878354 228.38716 
L 76.754406 229.306844 
" style="fill:none;stroke:#440154;stroke-width:1.5;"/>
   </g>
   <g id="LineCollection_24">
    <path clip-path="url(#p1063921690)" d="M 82.320827 194.227381 
L 82.18477 195.568393 
L 81.626352 201.191468 
L 81.57484 201.985628 
" style="fill:none;stroke:#440154;stroke-width:1.5;"/>
    <path clip-path="url(#p1063921690)" d="M 79.579846 222.672881 
L 79.446656 223.683769 
L 79.055343 228.268366 
L 78.913073 229.306844 
" style="fill:none;stroke:#440154;stroke-width:1.5;"/>
    <path clip-path="url(#p1063921690)" d="M 81.638843 60.614588 
L 82.01966 66.237663 
L 82.320827 69.95687 
" style="fill:none;stroke:#440154;stroke-width:1.5;"/>
   </g>
   <g id="LineCollection_25">
    <path clip-path="url(#p1063921690)" d="M 82.320827 218.680699 
L 81.672021 223.683769 
L 81.232332 229.065728 
L 81.199775 229.306844 
" style="fill:none;stroke:#440154;stroke-width:1.5;"/>
   </g>
   <g id="LineCollection_26"/>
   <g id="LineCollection_27"/>
   <g id="LineCollection_28"/>
   <g id="line2d_15">
    <path clip-path="url(#p1063921690)" d="M 389.780273 262.670362 
L 336.763362 225.345112 
L 292.268502 191.768422 
L 254.971748 161.714965 
L 223.732636 135.080663 
L 197.582431 111.939972 
L 175.704545 91.970762 
L 157.397178 74.900479 
L 142.113442 60.418933 
L 129.345122 48.965526 
L 118.708373 39.397102 
L 109.954857 31.98101 
L 102.81519 26.642717 
L 97.170505 22.865844 
L 92.815032 21.052944 
L 89.477421 20.750362 
L 86.978659 21.812229 
L 85.123838 23.593578 
L 83.690185 26.039029 
L 82.575214 29.24174 
L 81.620062 32.65009 
L 80.831066 35.974595 
L 80.278368 40.493018 
L 79.703627 45.012691 
L 79.18814 49.298637 
L 78.734496 53.980181 
L 78.331929 58.875607 
L 78.088974 63.84533 
L 77.84347 68.895548 
L 77.497166 74.188067 
L 77.221503 79.447766 
L 76.876437 84.109144 
L 76.778866 90.036608 
L 76.505023 95.696703 
L 76.312493 100.875926 
L 76.075096 105.992256 
L 75.906367 111.389307 
L 75.71486 116.701367 
L 75.549134 122.062505 
L 75.363557 127.45879 
L 75.150654 132.324458 
L 74.932207 137.025757 
L 74.857752 142.920937 
L 74.696787 148.119299 
L 74.481276 153.467444 
L 74.332978 159.430784 
L 74.129558 165.08751 
L 73.870621 171.414681 
L 73.717098 178.580192 
L 73.421598 186.474152 
L 73.428172 187.821792 
L 73.307425 188.859051 
L 73.167089 189.765633 
L 73.043586 190.713356 
L 72.909142 191.57278 
L 72.794302 192.450546 
L 72.667968 193.26068 
L 72.553201 194.070932 
L 72.437263 194.850965 
L 72.34559 195.737103 
L 72.258302 196.59491 
L 72.173702 197.496345 
L 72.097187 198.428294 
L 72.009027 199.243372 
L 71.946694 200.096304 
L 71.888382 200.961308 
L 71.827855 201.782624 
L 71.783594 202.683327 
L 71.734751 203.456116 
L 71.699003 204.291134 
L 71.657824 205.124973 
L 71.628769 205.961802 
L 71.606901 206.871084 
L 71.582142 207.731452 
L 71.564764 208.725566 
L 71.565603 208.866666 
L 71.561911 209.01141 
L 71.557557 209.132477 
L 71.551955 209.226129 
L 71.545073 209.310226 
L 71.539825 209.387957 
L 71.533407 209.446542 
L 71.526366 209.477924 
L 71.516554 209.490959 
L 71.508294 209.512737 
L 71.503938 209.566828 
L 71.497188 209.584626 
L 71.492648 209.606185 
L 71.486634 209.622319 
L 71.479859 209.62807 
L 71.475367 209.642723 
L 71.469739 209.638197 
L 71.463558 209.627185 
L 71.459581 209.607668 
L 71.456205 209.594626 
L 71.451293 209.587746 
L 71.448324 209.558602 
L 71.443548 209.536472 
L 71.438488 209.493807 
" style="fill:none;stroke:#1f77b4;stroke-linecap:square;stroke-width:1.5;"/>
    <defs>
     <path d="M 0 1.5 
C 0.397805 1.5 0.77937 1.341951 1.06066 1.06066 
C 1.341951 0.77937 1.5 0.397805 1.5 0 
C 1.5 -0.397805 1.341951 -0.77937 1.06066 -1.06066 
C 0.77937 -1.341951 0.397805 -1.5 0 -1.5 
C -0.397805 -1.5 -0.77937 -1.341951 -1.06066 -1.06066 
C -1.341951 -0.77937 -1.5 -0.397805 -1.5 0 
C -1.5 0.397805 -1.341951 0.77937 -1.06066 1.06066 
C -0.77937 1.341951 -0.397805 1.5 0 1.5 
z
" id="mc9f1de4445" style="stroke:#1f77b4;"/>
    </defs>
    <g clip-path="url(#p1063921690)">
     <use style="fill:#1f77b4;stroke:#1f77b4;" x="389.780273" xlink:href="#mc9f1de4445" y="262.670362"/>
     <use style="fill:#1f77b4;stroke:#1f77b4;" x="336.763362" xlink:href="#mc9f1de4445" y="225.345112"/>
     <use style="fill:#1f77b4;stroke:#1f77b4;" x="292.268502" xlink:href="#mc9f1de4445" y="191.768422"/>
     <use style="fill:#1f77b4;stroke:#1f77b4;" x="254.971748" xlink:href="#mc9f1de4445" y="161.714965"/>
     <use style="fill:#1f77b4;stroke:#1f77b4;" x="223.732636" xlink:href="#mc9f1de4445" y="135.080663"/>
     <use style="fill:#1f77b4;stroke:#1f77b4;" x="197.582431" xlink:href="#mc9f1de4445" y="111.939972"/>
     <use style="fill:#1f77b4;stroke:#1f77b4;" x="175.704545" xlink:href="#mc9f1de4445" y="91.970762"/>
     <use style="fill:#1f77b4;stroke:#1f77b4;" x="157.397178" xlink:href="#mc9f1de4445" y="74.900479"/>
     <use style="fill:#1f77b4;stroke:#1f77b4;" x="142.113442" xlink:href="#mc9f1de4445" y="60.418933"/>
     <use style="fill:#1f77b4;stroke:#1f77b4;" x="129.345122" xlink:href="#mc9f1de4445" y="48.965526"/>
     <use style="fill:#1f77b4;stroke:#1f77b4;" x="118.708373" xlink:href="#mc9f1de4445" y="39.397102"/>
     <use style="fill:#1f77b4;stroke:#1f77b4;" x="109.954857" xlink:href="#mc9f1de4445" y="31.98101"/>
     <use style="fill:#1f77b4;stroke:#1f77b4;" x="102.81519" xlink:href="#mc9f1de4445" y="26.642717"/>
     <use style="fill:#1f77b4;stroke:#1f77b4;" x="97.170505" xlink:href="#mc9f1de4445" y="22.865844"/>
     <use style="fill:#1f77b4;stroke:#1f77b4;" x="92.815032" xlink:href="#mc9f1de4445" y="21.052944"/>
     <use style="fill:#1f77b4;stroke:#1f77b4;" x="89.477421" xlink:href="#mc9f1de4445" y="20.750362"/>
     <use style="fill:#1f77b4;stroke:#1f77b4;" x="86.978659" xlink:href="#mc9f1de4445" y="21.812229"/>
     <use style="fill:#1f77b4;stroke:#1f77b4;" x="85.123838" xlink:href="#mc9f1de4445" y="23.593578"/>
     <use style="fill:#1f77b4;stroke:#1f77b4;" x="83.690185" xlink:href="#mc9f1de4445" y="26.039029"/>
     <use style="fill:#1f77b4;stroke:#1f77b4;" x="82.575214" xlink:href="#mc9f1de4445" y="29.24174"/>
     <use style="fill:#1f77b4;stroke:#1f77b4;" x="81.620062" xlink:href="#mc9f1de4445" y="32.65009"/>
     <use style="fill:#1f77b4;stroke:#1f77b4;" x="80.831066" xlink:href="#mc9f1de4445" y="35.974595"/>
     <use style="fill:#1f77b4;stroke:#1f77b4;" x="80.278368" xlink:href="#mc9f1de4445" y="40.493018"/>
     <use style="fill:#1f77b4;stroke:#1f77b4;" x="79.703627" xlink:href="#mc9f1de4445" y="45.012691"/>
     <use style="fill:#1f77b4;stroke:#1f77b4;" x="79.18814" xlink:href="#mc9f1de4445" y="49.298637"/>
     <use style="fill:#1f77b4;stroke:#1f77b4;" x="78.734496" xlink:href="#mc9f1de4445" y="53.980181"/>
     <use style="fill:#1f77b4;stroke:#1f77b4;" x="78.331929" xlink:href="#mc9f1de4445" y="58.875607"/>
     <use style="fill:#1f77b4;stroke:#1f77b4;" x="78.088974" xlink:href="#mc9f1de4445" y="63.84533"/>
     <use style="fill:#1f77b4;stroke:#1f77b4;" x="77.84347" xlink:href="#mc9f1de4445" y="68.895548"/>
     <use style="fill:#1f77b4;stroke:#1f77b4;" x="77.497166" xlink:href="#mc9f1de4445" y="74.188067"/>
     <use style="fill:#1f77b4;stroke:#1f77b4;" x="77.221503" xlink:href="#mc9f1de4445" y="79.447766"/>
     <use style="fill:#1f77b4;stroke:#1f77b4;" x="76.876437" xlink:href="#mc9f1de4445" y="84.109144"/>
     <use style="fill:#1f77b4;stroke:#1f77b4;" x="76.778866" xlink:href="#mc9f1de4445" y="90.036608"/>
     <use style="fill:#1f77b4;stroke:#1f77b4;" x="76.505023" xlink:href="#mc9f1de4445" y="95.696703"/>
     <use style="fill:#1f77b4;stroke:#1f77b4;" x="76.312493" xlink:href="#mc9f1de4445" y="100.875926"/>
     <use style="fill:#1f77b4;stroke:#1f77b4;" x="76.075096" xlink:href="#mc9f1de4445" y="105.992256"/>
     <use style="fill:#1f77b4;stroke:#1f77b4;" x="75.906367" xlink:href="#mc9f1de4445" y="111.389307"/>
     <use style="fill:#1f77b4;stroke:#1f77b4;" x="75.71486" xlink:href="#mc9f1de4445" y="116.701367"/>
     <use style="fill:#1f77b4;stroke:#1f77b4;" x="75.549134" xlink:href="#mc9f1de4445" y="122.062505"/>
     <use style="fill:#1f77b4;stroke:#1f77b4;" x="75.363557" xlink:href="#mc9f1de4445" y="127.45879"/>
     <use style="fill:#1f77b4;stroke:#1f77b4;" x="75.150654" xlink:href="#mc9f1de4445" y="132.324458"/>
     <use style="fill:#1f77b4;stroke:#1f77b4;" x="74.932207" xlink:href="#mc9f1de4445" y="137.025757"/>
     <use style="fill:#1f77b4;stroke:#1f77b4;" x="74.857752" xlink:href="#mc9f1de4445" y="142.920937"/>
     <use style="fill:#1f77b4;stroke:#1f77b4;" x="74.696787" xlink:href="#mc9f1de4445" y="148.119299"/>
     <use style="fill:#1f77b4;stroke:#1f77b4;" x="74.481276" xlink:href="#mc9f1de4445" y="153.467444"/>
     <use style="fill:#1f77b4;stroke:#1f77b4;" x="74.332978" xlink:href="#mc9f1de4445" y="159.430784"/>
     <use style="fill:#1f77b4;stroke:#1f77b4;" x="74.129558" xlink:href="#mc9f1de4445" y="165.08751"/>
     <use style="fill:#1f77b4;stroke:#1f77b4;" x="73.870621" xlink:href="#mc9f1de4445" y="171.414681"/>
     <use style="fill:#1f77b4;stroke:#1f77b4;" x="73.717098" xlink:href="#mc9f1de4445" y="178.580192"/>
     <use style="fill:#1f77b4;stroke:#1f77b4;" x="73.421598" xlink:href="#mc9f1de4445" y="186.474152"/>
     <use style="fill:#1f77b4;stroke:#1f77b4;" x="73.428172" xlink:href="#mc9f1de4445" y="187.821792"/>
     <use style="fill:#1f77b4;stroke:#1f77b4;" x="73.307425" xlink:href="#mc9f1de4445" y="188.859051"/>
     <use style="fill:#1f77b4;stroke:#1f77b4;" x="73.167089" xlink:href="#mc9f1de4445" y="189.765633"/>
     <use style="fill:#1f77b4;stroke:#1f77b4;" x="73.043586" xlink:href="#mc9f1de4445" y="190.713356"/>
     <use style="fill:#1f77b4;stroke:#1f77b4;" x="72.909142" xlink:href="#mc9f1de4445" y="191.57278"/>
     <use style="fill:#1f77b4;stroke:#1f77b4;" x="72.794302" xlink:href="#mc9f1de4445" y="192.450546"/>
     <use style="fill:#1f77b4;stroke:#1f77b4;" x="72.667968" xlink:href="#mc9f1de4445" y="193.26068"/>
     <use style="fill:#1f77b4;stroke:#1f77b4;" x="72.553201" xlink:href="#mc9f1de4445" y="194.070932"/>
     <use style="fill:#1f77b4;stroke:#1f77b4;" x="72.437263" xlink:href="#mc9f1de4445" y="194.850965"/>
     <use style="fill:#1f77b4;stroke:#1f77b4;" x="72.34559" xlink:href="#mc9f1de4445" y="195.737103"/>
     <use style="fill:#1f77b4;stroke:#1f77b4;" x="72.258302" xlink:href="#mc9f1de4445" y="196.59491"/>
     <use style="fill:#1f77b4;stroke:#1f77b4;" x="72.173702" xlink:href="#mc9f1de4445" y="197.496345"/>
     <use style="fill:#1f77b4;stroke:#1f77b4;" x="72.097187" xlink:href="#mc9f1de4445" y="198.428294"/>
     <use style="fill:#1f77b4;stroke:#1f77b4;" x="72.009027" xlink:href="#mc9f1de4445" y="199.243372"/>
     <use style="fill:#1f77b4;stroke:#1f77b4;" x="71.946694" xlink:href="#mc9f1de4445" y="200.096304"/>
     <use style="fill:#1f77b4;stroke:#1f77b4;" x="71.888382" xlink:href="#mc9f1de4445" y="200.961308"/>
     <use style="fill:#1f77b4;stroke:#1f77b4;" x="71.827855" xlink:href="#mc9f1de4445" y="201.782624"/>
     <use style="fill:#1f77b4;stroke:#1f77b4;" x="71.783594" xlink:href="#mc9f1de4445" y="202.683327"/>
     <use style="fill:#1f77b4;stroke:#1f77b4;" x="71.734751" xlink:href="#mc9f1de4445" y="203.456116"/>
     <use style="fill:#1f77b4;stroke:#1f77b4;" x="71.699003" xlink:href="#mc9f1de4445" y="204.291134"/>
     <use style="fill:#1f77b4;stroke:#1f77b4;" x="71.657824" xlink:href="#mc9f1de4445" y="205.124973"/>
     <use style="fill:#1f77b4;stroke:#1f77b4;" x="71.628769" xlink:href="#mc9f1de4445" y="205.961802"/>
     <use style="fill:#1f77b4;stroke:#1f77b4;" x="71.606901" xlink:href="#mc9f1de4445" y="206.871084"/>
     <use style="fill:#1f77b4;stroke:#1f77b4;" x="71.582142" xlink:href="#mc9f1de4445" y="207.731452"/>
     <use style="fill:#1f77b4;stroke:#1f77b4;" x="71.564764" xlink:href="#mc9f1de4445" y="208.725566"/>
     <use style="fill:#1f77b4;stroke:#1f77b4;" x="71.565603" xlink:href="#mc9f1de4445" y="208.866666"/>
     <use style="fill:#1f77b4;stroke:#1f77b4;" x="71.561911" xlink:href="#mc9f1de4445" y="209.01141"/>
     <use style="fill:#1f77b4;stroke:#1f77b4;" x="71.557557" xlink:href="#mc9f1de4445" y="209.132477"/>
     <use style="fill:#1f77b4;stroke:#1f77b4;" x="71.551955" xlink:href="#mc9f1de4445" y="209.226129"/>
     <use style="fill:#1f77b4;stroke:#1f77b4;" x="71.545073" xlink:href="#mc9f1de4445" y="209.310226"/>
     <use style="fill:#1f77b4;stroke:#1f77b4;" x="71.539825" xlink:href="#mc9f1de4445" y="209.387957"/>
     <use style="fill:#1f77b4;stroke:#1f77b4;" x="71.533407" xlink:href="#mc9f1de4445" y="209.446542"/>
     <use style="fill:#1f77b4;stroke:#1f77b4;" x="71.526366" xlink:href="#mc9f1de4445" y="209.477924"/>
     <use style="fill:#1f77b4;stroke:#1f77b4;" x="71.516554" xlink:href="#mc9f1de4445" y="209.490959"/>
     <use style="fill:#1f77b4;stroke:#1f77b4;" x="71.508294" xlink:href="#mc9f1de4445" y="209.512737"/>
     <use style="fill:#1f77b4;stroke:#1f77b4;" x="71.503938" xlink:href="#mc9f1de4445" y="209.566828"/>
     <use style="fill:#1f77b4;stroke:#1f77b4;" x="71.497188" xlink:href="#mc9f1de4445" y="209.584626"/>
     <use style="fill:#1f77b4;stroke:#1f77b4;" x="71.492648" xlink:href="#mc9f1de4445" y="209.606185"/>
     <use style="fill:#1f77b4;stroke:#1f77b4;" x="71.486634" xlink:href="#mc9f1de4445" y="209.622319"/>
     <use style="fill:#1f77b4;stroke:#1f77b4;" x="71.479859" xlink:href="#mc9f1de4445" y="209.62807"/>
     <use style="fill:#1f77b4;stroke:#1f77b4;" x="71.475367" xlink:href="#mc9f1de4445" y="209.642723"/>
     <use style="fill:#1f77b4;stroke:#1f77b4;" x="71.469739" xlink:href="#mc9f1de4445" y="209.638197"/>
     <use style="fill:#1f77b4;stroke:#1f77b4;" x="71.463558" xlink:href="#mc9f1de4445" y="209.627185"/>
     <use style="fill:#1f77b4;stroke:#1f77b4;" x="71.459581" xlink:href="#mc9f1de4445" y="209.607668"/>
     <use style="fill:#1f77b4;stroke:#1f77b4;" x="71.456205" xlink:href="#mc9f1de4445" y="209.594626"/>
     <use style="fill:#1f77b4;stroke:#1f77b4;" x="71.451293" xlink:href="#mc9f1de4445" y="209.587746"/>
     <use style="fill:#1f77b4;stroke:#1f77b4;" x="71.448324" xlink:href="#mc9f1de4445" y="209.558602"/>
     <use style="fill:#1f77b4;stroke:#1f77b4;" x="71.443548" xlink:href="#mc9f1de4445" y="209.536472"/>
     <use style="fill:#1f77b4;stroke:#1f77b4;" x="71.438488" xlink:href="#mc9f1de4445" y="209.493807"/>
    </g>
   </g>
   <g id="patch_3">
    <path d="M 49.665988 274.766362 
L 49.665988 8.654362 
" style="fill:none;stroke:#000000;stroke-linecap:square;stroke-linejoin:miter;stroke-width:0.8;"/>
   </g>
   <g id="patch_4">
    <path d="M 406.785988 274.766362 
L 406.785988 8.654362 
" style="fill:none;stroke:#000000;stroke-linecap:square;stroke-linejoin:miter;stroke-width:0.8;"/>
   </g>
   <g id="patch_5">
    <path d="M 49.665988 274.766362 
L 406.785988 274.766362 
" style="fill:none;stroke:#000000;stroke-linecap:square;stroke-linejoin:miter;stroke-width:0.8;"/>
   </g>
   <g id="patch_6">
    <path d="M 49.665988 8.654362 
L 406.785988 8.654362 
" style="fill:none;stroke:#000000;stroke-linecap:square;stroke-linejoin:miter;stroke-width:0.8;"/>
   </g>
   <g id="text_17">
    <g clip-path="url(#p1063921690)">
     <!-- 1.500 -->
     <g style="fill:#453781;" transform="translate(68.687336 187.949596)rotate(-288.506459)scale(0.06 -0.06)">
      <use xlink:href="#DejaVuSans-49"/>
      <use x="63.623047" xlink:href="#DejaVuSans-46"/>
      <use x="95.410156" xlink:href="#DejaVuSans-53"/>
      <use x="159.033203" xlink:href="#DejaVuSans-48"/>
      <use x="222.65625" xlink:href="#DejaVuSans-48"/>
     </g>
    </g>
   </g>
   <g id="text_18">
    <g clip-path="url(#p1063921690)">
     <!-- 2.000 -->
     <g style="fill:#404688;" transform="translate(66.443665 209.564359)rotate(-62.28048)scale(0.06 -0.06)">
      <use xlink:href="#DejaVuSans-50"/>
      <use x="63.623047" xlink:href="#DejaVuSans-46"/>
      <use x="95.410156" xlink:href="#DejaVuSans-48"/>
      <use x="159.033203" xlink:href="#DejaVuSans-48"/>
      <use x="222.65625" xlink:href="#DejaVuSans-48"/>
     </g>
    </g>
   </g>
   <g id="text_19">
    <g clip-path="url(#p1063921690)">
     <!-- 2.000 -->
     <g style="fill:#404688;" transform="translate(65.466208 99.294182)rotate(-302.963564)scale(0.06 -0.06)">
      <use xlink:href="#DejaVuSans-50"/>
      <use x="63.623047" xlink:href="#DejaVuSans-46"/>
      <use x="95.410156" xlink:href="#DejaVuSans-48"/>
      <use x="159.033203" xlink:href="#DejaVuSans-48"/>
      <use x="222.65625" xlink:href="#DejaVuSans-48"/>
     </g>
    </g>
   </g>
   <g id="text_20">
    <g clip-path="url(#p1063921690)">
     <!-- 2.500 -->
     <g style="fill:#39558c;" transform="translate(58.72971 170.574948)rotate(-80.169578)scale(0.06 -0.06)">
      <use xlink:href="#DejaVuSans-50"/>
      <use x="63.623047" xlink:href="#DejaVuSans-46"/>
      <use x="95.410156" xlink:href="#DejaVuSans-53"/>
      <use x="159.033203" xlink:href="#DejaVuSans-48"/>
      <use x="222.65625" xlink:href="#DejaVuSans-48"/>
     </g>
    </g>
   </g>
   <g id="text_21">
    <g clip-path="url(#p1063921690)">
     <!-- 2.500 -->
     <g style="fill:#39558c;" transform="translate(67.845979 237.231502)rotate(-54.051245)scale(0.06 -0.06)">
      <use xlink:href="#DejaVuSans-50"/>
      <use x="63.623047" xlink:href="#DejaVuSans-46"/>
      <use x="95.410156" xlink:href="#DejaVuSans-53"/>
      <use x="159.033203" xlink:href="#DejaVuSans-48"/>
      <use x="222.65625" xlink:href="#DejaVuSans-48"/>
     </g>
    </g>
   </g>
   <g id="text_22">
    <g clip-path="url(#p1063921690)">
     <!-- 3.000 -->
     <g style="fill:#33638d;" transform="translate(68.135992 103.82561)rotate(-291.345551)scale(0.06 -0.06)">
      <defs>
       <path d="M 40.578125 39.3125 
Q 47.65625 37.796875 51.625 33 
Q 55.609375 28.21875 55.609375 21.1875 
Q 55.609375 10.40625 48.1875 4.484375 
Q 40.765625 -1.421875 27.09375 -1.421875 
Q 22.515625 -1.421875 17.65625 -0.515625 
Q 12.796875 0.390625 7.625 2.203125 
L 7.625 11.71875 
Q 11.71875 9.328125 16.59375 8.109375 
Q 21.484375 6.890625 26.8125 6.890625 
Q 36.078125 6.890625 40.9375 10.546875 
Q 45.796875 14.203125 45.796875 21.1875 
Q 45.796875 27.640625 41.28125 31.265625 
Q 36.765625 34.90625 28.71875 34.90625 
L 20.21875 34.90625 
L 20.21875 43.015625 
L 29.109375 43.015625 
Q 36.375 43.015625 40.234375 45.921875 
Q 44.09375 48.828125 44.09375 54.296875 
Q 44.09375 59.90625 40.109375 62.90625 
Q 36.140625 65.921875 28.71875 65.921875 
Q 24.65625 65.921875 20.015625 65.03125 
Q 15.375 64.15625 9.8125 62.3125 
L 9.8125 71.09375 
Q 15.4375 72.65625 20.34375 73.4375 
Q 25.25 74.21875 29.59375 74.21875 
Q 40.828125 74.21875 47.359375 69.109375 
Q 53.90625 64.015625 53.90625 55.328125 
Q 53.90625 49.265625 50.4375 45.09375 
Q 46.96875 40.921875 40.578125 39.3125 
z
" id="DejaVuSans-51"/>
      </defs>
      <use xlink:href="#DejaVuSans-51"/>
      <use x="63.623047" xlink:href="#DejaVuSans-46"/>
      <use x="95.410156" xlink:href="#DejaVuSans-48"/>
      <use x="159.033203" xlink:href="#DejaVuSans-48"/>
      <use x="222.65625" xlink:href="#DejaVuSans-48"/>
     </g>
    </g>
   </g>
   <g id="text_23">
    <g clip-path="url(#p1063921690)">
     <!-- 3.500 -->
     <g style="fill:#2d718e;" transform="translate(67.648721 104.308945)rotate(-296.865423)scale(0.06 -0.06)">
      <use xlink:href="#DejaVuSans-51"/>
      <use x="63.623047" xlink:href="#DejaVuSans-46"/>
      <use x="95.410156" xlink:href="#DejaVuSans-53"/>
      <use x="159.033203" xlink:href="#DejaVuSans-48"/>
      <use x="222.65625" xlink:href="#DejaVuSans-48"/>
     </g>
    </g>
   </g>
   <g id="text_24">
    <g clip-path="url(#p1063921690)">
     <!-- 4.000 -->
     <g style="fill:#287d8e;" transform="translate(67.619294 104.495152)rotate(-298.814241)scale(0.06 -0.06)">
      <use xlink:href="#DejaVuSans-52"/>
      <use x="63.623047" xlink:href="#DejaVuSans-46"/>
      <use x="95.410156" xlink:href="#DejaVuSans-48"/>
      <use x="159.033203" xlink:href="#DejaVuSans-48"/>
      <use x="222.65625" xlink:href="#DejaVuSans-48"/>
     </g>
    </g>
   </g>
   <g id="text_25">
    <g clip-path="url(#p1063921690)">
     <!-- 4.500 -->
     <g style="fill:#238a8d;" transform="translate(69.93987 226.115045)rotate(-56.140728)scale(0.06 -0.06)">
      <use xlink:href="#DejaVuSans-52"/>
      <use x="63.623047" xlink:href="#DejaVuSans-46"/>
      <use x="95.410156" xlink:href="#DejaVuSans-53"/>
      <use x="159.033203" xlink:href="#DejaVuSans-48"/>
      <use x="222.65625" xlink:href="#DejaVuSans-48"/>
     </g>
    </g>
   </g>
   <g id="text_26">
    <g clip-path="url(#p1063921690)">
     <!-- 5.000 -->
     <g style="fill:#1f968b;" transform="translate(68.390498 104.206338)rotate(-295.75423)scale(0.06 -0.06)">
      <use xlink:href="#DejaVuSans-53"/>
      <use x="63.623047" xlink:href="#DejaVuSans-46"/>
      <use x="95.410156" xlink:href="#DejaVuSans-48"/>
      <use x="159.033203" xlink:href="#DejaVuSans-48"/>
      <use x="222.65625" xlink:href="#DejaVuSans-48"/>
     </g>
    </g>
   </g>
   <g id="text_27">
    <g clip-path="url(#p1063921690)">
     <!-- 5.500 -->
     <g style="fill:#20a386;" transform="translate(68.577418 104.122724)rotate(-294.826857)scale(0.06 -0.06)">
      <use xlink:href="#DejaVuSans-53"/>
      <use x="63.623047" xlink:href="#DejaVuSans-46"/>
      <use x="95.410156" xlink:href="#DejaVuSans-53"/>
      <use x="159.033203" xlink:href="#DejaVuSans-48"/>
      <use x="222.65625" xlink:href="#DejaVuSans-48"/>
     </g>
    </g>
   </g>
   <g id="text_28">
    <g clip-path="url(#p1063921690)">
     <!-- 6.000 -->
     <g style="fill:#29af7f;" transform="translate(68.767726 104.039545)rotate(-293.883129)scale(0.06 -0.06)">
      <use xlink:href="#DejaVuSans-54"/>
      <use x="63.623047" xlink:href="#DejaVuSans-46"/>
      <use x="95.410156" xlink:href="#DejaVuSans-48"/>
      <use x="159.033203" xlink:href="#DejaVuSans-48"/>
      <use x="222.65625" xlink:href="#DejaVuSans-48"/>
     </g>
    </g>
   </g>
   <g id="text_29">
    <g clip-path="url(#p1063921690)">
     <!-- 6.500 -->
     <g style="fill:#3dbc74;" transform="translate(68.961813 103.956688)rotate(-292.920274)scale(0.06 -0.06)">
      <use xlink:href="#DejaVuSans-54"/>
      <use x="63.623047" xlink:href="#DejaVuSans-46"/>
      <use x="95.410156" xlink:href="#DejaVuSans-53"/>
      <use x="159.033203" xlink:href="#DejaVuSans-48"/>
      <use x="222.65625" xlink:href="#DejaVuSans-48"/>
     </g>
    </g>
   </g>
   <g id="text_30">
    <g clip-path="url(#p1063921690)">
     <!-- 7.000 -->
     <g style="fill:#56c667;" transform="translate(69.077364 103.928139)rotate(-292.582888)scale(0.06 -0.06)">
      <use xlink:href="#DejaVuSans-55"/>
      <use x="63.623047" xlink:href="#DejaVuSans-46"/>
      <use x="95.410156" xlink:href="#DejaVuSans-48"/>
      <use x="159.033203" xlink:href="#DejaVuSans-48"/>
      <use x="222.65625" xlink:href="#DejaVuSans-48"/>
     </g>
    </g>
   </g>
   <g id="text_31">
    <g clip-path="url(#p1063921690)">
     <!-- 7.500 -->
     <g style="fill:#75d054;" transform="translate(68.972444 104.048826)rotate(-293.989536)scale(0.06 -0.06)">
      <use xlink:href="#DejaVuSans-55"/>
      <use x="63.623047" xlink:href="#DejaVuSans-46"/>
      <use x="95.410156" xlink:href="#DejaVuSans-53"/>
      <use x="159.033203" xlink:href="#DejaVuSans-48"/>
      <use x="222.65625" xlink:href="#DejaVuSans-48"/>
     </g>
    </g>
   </g>
   <g id="text_32">
    <g clip-path="url(#p1063921690)">
     <!-- 8.000 -->
     <g style="fill:#95d840;" transform="translate(68.874576 104.170873)rotate(-295.363378)scale(0.06 -0.06)">
      <use xlink:href="#DejaVuSans-56"/>
      <use x="63.623047" xlink:href="#DejaVuSans-46"/>
      <use x="95.410156" xlink:href="#DejaVuSans-48"/>
      <use x="159.033203" xlink:href="#DejaVuSans-48"/>
      <use x="222.65625" xlink:href="#DejaVuSans-48"/>
     </g>
    </g>
   </g>
   <g id="text_33">
    <g clip-path="url(#p1063921690)">
     <!-- 8.500 -->
     <g style="fill:#bade28;" transform="translate(68.7837 104.293877)rotate(-296.704002)scale(0.06 -0.06)">
      <use xlink:href="#DejaVuSans-56"/>
      <use x="63.623047" xlink:href="#DejaVuSans-46"/>
      <use x="95.410156" xlink:href="#DejaVuSans-53"/>
      <use x="159.033203" xlink:href="#DejaVuSans-48"/>
      <use x="222.65625" xlink:href="#DejaVuSans-48"/>
     </g>
    </g>
   </g>
   <g id="text_34">
    <g clip-path="url(#p1063921690)">
     <!-- 9.000 -->
     <g style="fill:#dde318;" transform="translate(68.704115 104.413917)rotate(-297.974166)scale(0.06 -0.06)">
      <defs>
       <path d="M 10.984375 1.515625 
L 10.984375 10.5 
Q 14.703125 8.734375 18.5 7.8125 
Q 22.3125 6.890625 25.984375 6.890625 
Q 35.75 6.890625 40.890625 13.453125 
Q 46.046875 20.015625 46.78125 33.40625 
Q 43.953125 29.203125 39.59375 26.953125 
Q 35.25 24.703125 29.984375 24.703125 
Q 19.046875 24.703125 12.671875 31.3125 
Q 6.296875 37.9375 6.296875 49.421875 
Q 6.296875 60.640625 12.9375 67.421875 
Q 19.578125 74.21875 30.609375 74.21875 
Q 43.265625 74.21875 49.921875 64.515625 
Q 56.59375 54.828125 56.59375 36.375 
Q 56.59375 19.140625 48.40625 8.859375 
Q 40.234375 -1.421875 26.421875 -1.421875 
Q 22.703125 -1.421875 18.890625 -0.6875 
Q 15.09375 0.046875 10.984375 1.515625 
z
M 30.609375 32.421875 
Q 37.25 32.421875 41.125 36.953125 
Q 45.015625 41.5 45.015625 49.421875 
Q 45.015625 57.28125 41.125 61.84375 
Q 37.25 66.40625 30.609375 66.40625 
Q 23.96875 66.40625 20.09375 61.84375 
Q 16.21875 57.28125 16.21875 49.421875 
Q 16.21875 41.5 20.09375 36.953125 
Q 23.96875 32.421875 30.609375 32.421875 
z
" id="DejaVuSans-57"/>
      </defs>
      <use xlink:href="#DejaVuSans-57"/>
      <use x="63.623047" xlink:href="#DejaVuSans-46"/>
      <use x="95.410156" xlink:href="#DejaVuSans-48"/>
      <use x="159.033203" xlink:href="#DejaVuSans-48"/>
      <use x="222.65625" xlink:href="#DejaVuSans-48"/>
     </g>
    </g>
   </g>
   <g id="text_35">
    <g clip-path="url(#p1063921690)">
     <!-- 9.500 -->
     <g style="fill:#fde725;" transform="translate(68.718751 104.461142)rotate(-298.464361)scale(0.06 -0.06)">
      <use xlink:href="#DejaVuSans-57"/>
      <use x="63.623047" xlink:href="#DejaVuSans-46"/>
      <use x="95.410156" xlink:href="#DejaVuSans-53"/>
      <use x="159.033203" xlink:href="#DejaVuSans-48"/>
      <use x="222.65625" xlink:href="#DejaVuSans-48"/>
     </g>
    </g>
   </g>
   <g id="text_36">
    <g clip-path="url(#p1063921690)">
     <!-- 10.000 -->
     <g style="fill:#440154;" transform="translate(68.63024 108.188703)rotate(-296.48997)scale(0.06 -0.06)">
      <use xlink:href="#DejaVuSans-49"/>
      <use x="63.623047" xlink:href="#DejaVuSans-48"/>
      <use x="127.246094" xlink:href="#DejaVuSans-46"/>
      <use x="159.033203" xlink:href="#DejaVuSans-48"/>
      <use x="222.65625" xlink:href="#DejaVuSans-48"/>
      <use x="286.279297" xlink:href="#DejaVuSans-48"/>
     </g>
    </g>
   </g>
   <g id="text_37">
    <g clip-path="url(#p1063921690)">
     <!-- 100.000 -->
     <g style="fill:#440154;" transform="translate(73.080862 118.503571)rotate(-290.911043)scale(0.06 -0.06)">
      <use xlink:href="#DejaVuSans-49"/>
      <use x="63.623047" xlink:href="#DejaVuSans-48"/>
      <use x="127.246094" xlink:href="#DejaVuSans-48"/>
      <use x="190.869141" xlink:href="#DejaVuSans-46"/>
      <use x="222.65625" xlink:href="#DejaVuSans-48"/>
      <use x="286.279297" xlink:href="#DejaVuSans-48"/>
      <use x="349.902344" xlink:href="#DejaVuSans-48"/>
     </g>
    </g>
   </g>
   <g id="text_38">
    <g clip-path="url(#p1063921690)">
     <!-- 1000.000 -->
     <g style="fill:#440154;" transform="translate(82.791294 164.976189)rotate(-86.243894)scale(0.06 -0.06)">
      <use xlink:href="#DejaVuSans-49"/>
      <use x="63.623047" xlink:href="#DejaVuSans-48"/>
      <use x="127.246094" xlink:href="#DejaVuSans-48"/>
      <use x="190.869141" xlink:href="#DejaVuSans-48"/>
      <use x="254.492188" xlink:href="#DejaVuSans-46"/>
      <use x="286.279297" xlink:href="#DejaVuSans-48"/>
      <use x="349.902344" xlink:href="#DejaVuSans-48"/>
      <use x="413.525391" xlink:href="#DejaVuSans-48"/>
     </g>
    </g>
   </g>
   <g id="text_39">
    <g clip-path="url(#p1063921690)">
     <!-- 10000.000 -->
     <g style="fill:#440154;" transform="translate(72.937934 226.83133)rotate(-56.134677)scale(0.06 -0.06)">
      <use xlink:href="#DejaVuSans-49"/>
      <use x="63.623047" xlink:href="#DejaVuSans-48"/>
      <use x="127.246094" xlink:href="#DejaVuSans-48"/>
      <use x="190.869141" xlink:href="#DejaVuSans-48"/>
      <use x="254.492188" xlink:href="#DejaVuSans-48"/>
      <use x="318.115234" xlink:href="#DejaVuSans-46"/>
      <use x="349.902344" xlink:href="#DejaVuSans-48"/>
      <use x="413.525391" xlink:href="#DejaVuSans-48"/>
      <use x="477.148438" xlink:href="#DejaVuSans-48"/>
     </g>
    </g>
   </g>
  </g>
 </g>
 <defs>
  <clipPath id="p1063921690">
   <rect height="266.112" width="357.12" x="49.665988" y="8.654362"/>
  </clipPath>
 </defs>
</svg>
