<?xml version="1.0" encoding="utf-8" standalone="no"?>
<!DOCTYPE svg PUBLIC "-//W3C//DTD SVG 1.1//EN"
  "http://www.w3.org/Graphics/SVG/1.1/DTD/svg11.dtd">
<!-- Created with matplotlib (https://matplotlib.org/) -->
<svg height="317.913925pt" version="1.1" viewBox="0 0 413.985987 317.913925" width="413.985987pt" xmlns="http://www.w3.org/2000/svg" xmlns:xlink="http://www.w3.org/1999/xlink">
 <metadata>
  <rdf:RDF xmlns:cc="http://creativecommons.org/ns#" xmlns:dc="http://purl.org/dc/elements/1.1/" xmlns:rdf="http://www.w3.org/1999/02/22-rdf-syntax-ns#">
   <cc:Work>
    <dc:type rdf:resource="http://purl.org/dc/dcmitype/StillImage"/>
    <dc:date>2021-09-18T02:14:43.408570</dc:date>
    <dc:format>image/svg+xml</dc:format>
    <dc:creator>
     <cc:Agent>
      <dc:title>Matplotlib v3.3.1, https://matplotlib.org/</dc:title>
     </cc:Agent>
    </dc:creator>
   </cc:Work>
  </rdf:RDF>
 </metadata>
 <defs>
  <style type="text/css">*{stroke-linecap:butt;stroke-linejoin:round;}</style>
 </defs>
 <g id="figure_1">
  <g id="patch_1">
   <path d="M 0 317.913925 
L 413.985987 317.913925 
L 413.985987 0 
L 0 0 
z
" style="fill:#ffffff;"/>
  </g>
  <g id="axes_1">
   <g id="patch_2">
    <path d="M 49.665988 273.312 
L 406.785988 273.312 
L 406.785988 7.2 
L 49.665988 7.2 
z
" style="fill:#ffffff;"/>
   </g>
   <g id="matplotlib.axis_1">
    <g id="xtick_1">
     <g id="line2d_1">
      <defs>
       <path d="M 0 0 
L 0 3.5 
" id="m31b41f81c5" style="stroke:#000000;stroke-width:0.8;"/>
      </defs>
      <g>
       <use style="stroke:#000000;stroke-width:0.8;" x="49.665987" xlink:href="#m31b41f81c5" y="273.312"/>
      </g>
     </g>
     <g id="text_1">
      <!-- −10 -->
      <g transform="translate(39.113644 287.910437)scale(0.1 -0.1)">
       <defs>
        <path d="M 10.59375 35.5 
L 73.1875 35.5 
L 73.1875 27.203125 
L 10.59375 27.203125 
z
" id="DejaVuSans-8722"/>
        <path d="M 12.40625 8.296875 
L 28.515625 8.296875 
L 28.515625 63.921875 
L 10.984375 60.40625 
L 10.984375 69.390625 
L 28.421875 72.90625 
L 38.28125 72.90625 
L 38.28125 8.296875 
L 54.390625 8.296875 
L 54.390625 0 
L 12.40625 0 
z
" id="DejaVuSans-49"/>
        <path d="M 31.78125 66.40625 
Q 24.171875 66.40625 20.328125 58.90625 
Q 16.5 51.421875 16.5 36.375 
Q 16.5 21.390625 20.328125 13.890625 
Q 24.171875 6.390625 31.78125 6.390625 
Q 39.453125 6.390625 43.28125 13.890625 
Q 47.125 21.390625 47.125 36.375 
Q 47.125 51.421875 43.28125 58.90625 
Q 39.453125 66.40625 31.78125 66.40625 
z
M 31.78125 74.21875 
Q 44.046875 74.21875 50.515625 64.515625 
Q 56.984375 54.828125 56.984375 36.375 
Q 56.984375 17.96875 50.515625 8.265625 
Q 44.046875 -1.421875 31.78125 -1.421875 
Q 19.53125 -1.421875 13.0625 8.265625 
Q 6.59375 17.96875 6.59375 36.375 
Q 6.59375 54.828125 13.0625 64.515625 
Q 19.53125 74.21875 31.78125 74.21875 
z
" id="DejaVuSans-48"/>
       </defs>
       <use xlink:href="#DejaVuSans-8722"/>
       <use x="83.789062" xlink:href="#DejaVuSans-49"/>
       <use x="147.412109" xlink:href="#DejaVuSans-48"/>
      </g>
     </g>
    </g>
    <g id="xtick_2">
     <g id="line2d_2">
      <g>
       <use style="stroke:#000000;stroke-width:0.8;" x="110.600336" xlink:href="#m31b41f81c5" y="273.312"/>
      </g>
     </g>
     <g id="text_2">
      <!-- 0 -->
      <g transform="translate(107.419086 287.910437)scale(0.1 -0.1)">
       <use xlink:href="#DejaVuSans-48"/>
      </g>
     </g>
    </g>
    <g id="xtick_3">
     <g id="line2d_3">
      <g>
       <use style="stroke:#000000;stroke-width:0.8;" x="171.534684" xlink:href="#m31b41f81c5" y="273.312"/>
      </g>
     </g>
     <g id="text_3">
      <!-- 10 -->
      <g transform="translate(165.172184 287.910437)scale(0.1 -0.1)">
       <use xlink:href="#DejaVuSans-49"/>
       <use x="63.623047" xlink:href="#DejaVuSans-48"/>
      </g>
     </g>
    </g>
    <g id="xtick_4">
     <g id="line2d_4">
      <g>
       <use style="stroke:#000000;stroke-width:0.8;" x="232.469033" xlink:href="#m31b41f81c5" y="273.312"/>
      </g>
     </g>
     <g id="text_4">
      <!-- 20 -->
      <g transform="translate(226.106533 287.910437)scale(0.1 -0.1)">
       <defs>
        <path d="M 19.1875 8.296875 
L 53.609375 8.296875 
L 53.609375 0 
L 7.328125 0 
L 7.328125 8.296875 
Q 12.9375 14.109375 22.625 23.890625 
Q 32.328125 33.6875 34.8125 36.53125 
Q 39.546875 41.84375 41.421875 45.53125 
Q 43.3125 49.21875 43.3125 52.78125 
Q 43.3125 58.59375 39.234375 62.25 
Q 35.15625 65.921875 28.609375 65.921875 
Q 23.96875 65.921875 18.8125 64.3125 
Q 13.671875 62.703125 7.8125 59.421875 
L 7.8125 69.390625 
Q 13.765625 71.78125 18.9375 73 
Q 24.125 74.21875 28.421875 74.21875 
Q 39.75 74.21875 46.484375 68.546875 
Q 53.21875 62.890625 53.21875 53.421875 
Q 53.21875 48.921875 51.53125 44.890625 
Q 49.859375 40.875 45.40625 35.40625 
Q 44.1875 33.984375 37.640625 27.21875 
Q 31.109375 20.453125 19.1875 8.296875 
z
" id="DejaVuSans-50"/>
       </defs>
       <use xlink:href="#DejaVuSans-50"/>
       <use x="63.623047" xlink:href="#DejaVuSans-48"/>
      </g>
     </g>
    </g>
    <g id="xtick_5">
     <g id="line2d_5">
      <g>
       <use style="stroke:#000000;stroke-width:0.8;" x="293.403381" xlink:href="#m31b41f81c5" y="273.312"/>
      </g>
     </g>
     <g id="text_5">
      <!-- 30 -->
      <g transform="translate(287.040881 287.910437)scale(0.1 -0.1)">
       <defs>
        <path d="M 40.578125 39.3125 
Q 47.65625 37.796875 51.625 33 
Q 55.609375 28.21875 55.609375 21.1875 
Q 55.609375 10.40625 48.1875 4.484375 
Q 40.765625 -1.421875 27.09375 -1.421875 
Q 22.515625 -1.421875 17.65625 -0.515625 
Q 12.796875 0.390625 7.625 2.203125 
L 7.625 11.71875 
Q 11.71875 9.328125 16.59375 8.109375 
Q 21.484375 6.890625 26.8125 6.890625 
Q 36.078125 6.890625 40.9375 10.546875 
Q 45.796875 14.203125 45.796875 21.1875 
Q 45.796875 27.640625 41.28125 31.265625 
Q 36.765625 34.90625 28.71875 34.90625 
L 20.21875 34.90625 
L 20.21875 43.015625 
L 29.109375 43.015625 
Q 36.375 43.015625 40.234375 45.921875 
Q 44.09375 48.828125 44.09375 54.296875 
Q 44.09375 59.90625 40.109375 62.90625 
Q 36.140625 65.921875 28.71875 65.921875 
Q 24.65625 65.921875 20.015625 65.03125 
Q 15.375 64.15625 9.8125 62.3125 
L 9.8125 71.09375 
Q 15.4375 72.65625 20.34375 73.4375 
Q 25.25 74.21875 29.59375 74.21875 
Q 40.828125 74.21875 47.359375 69.109375 
Q 53.90625 64.015625 53.90625 55.328125 
Q 53.90625 49.265625 50.4375 45.09375 
Q 46.96875 40.921875 40.578125 39.3125 
z
" id="DejaVuSans-51"/>
       </defs>
       <use xlink:href="#DejaVuSans-51"/>
       <use x="63.623047" xlink:href="#DejaVuSans-48"/>
      </g>
     </g>
    </g>
    <g id="xtick_6">
     <g id="line2d_6">
      <g>
       <use style="stroke:#000000;stroke-width:0.8;" x="354.33773" xlink:href="#m31b41f81c5" y="273.312"/>
      </g>
     </g>
     <g id="text_6">
      <!-- 40 -->
      <g transform="translate(347.97523 287.910437)scale(0.1 -0.1)">
       <defs>
        <path d="M 37.796875 64.3125 
L 12.890625 25.390625 
L 37.796875 25.390625 
z
M 35.203125 72.90625 
L 47.609375 72.90625 
L 47.609375 25.390625 
L 58.015625 25.390625 
L 58.015625 17.1875 
L 47.609375 17.1875 
L 47.609375 0 
L 37.796875 0 
L 37.796875 17.1875 
L 4.890625 17.1875 
L 4.890625 26.703125 
z
" id="DejaVuSans-52"/>
       </defs>
       <use xlink:href="#DejaVuSans-52"/>
       <use x="63.623047" xlink:href="#DejaVuSans-48"/>
      </g>
     </g>
    </g>
    <g id="text_7">
     <!-- 1st PC: 96.15 % -->
     <g transform="translate(159.505587 307.120225)scale(0.1728 -0.1728)">
      <defs>
       <path d="M 44.28125 53.078125 
L 44.28125 44.578125 
Q 40.484375 46.53125 36.375 47.5 
Q 32.28125 48.484375 27.875 48.484375 
Q 21.1875 48.484375 17.84375 46.4375 
Q 14.5 44.390625 14.5 40.28125 
Q 14.5 37.15625 16.890625 35.375 
Q 19.28125 33.59375 26.515625 31.984375 
L 29.59375 31.296875 
Q 39.15625 29.25 43.1875 25.515625 
Q 47.21875 21.78125 47.21875 15.09375 
Q 47.21875 7.46875 41.1875 3.015625 
Q 35.15625 -1.421875 24.609375 -1.421875 
Q 20.21875 -1.421875 15.453125 -0.5625 
Q 10.6875 0.296875 5.421875 2 
L 5.421875 11.28125 
Q 10.40625 8.6875 15.234375 7.390625 
Q 20.0625 6.109375 24.8125 6.109375 
Q 31.15625 6.109375 34.5625 8.28125 
Q 37.984375 10.453125 37.984375 14.40625 
Q 37.984375 18.0625 35.515625 20.015625 
Q 33.0625 21.96875 24.703125 23.78125 
L 21.578125 24.515625 
Q 13.234375 26.265625 9.515625 29.90625 
Q 5.8125 33.546875 5.8125 39.890625 
Q 5.8125 47.609375 11.28125 51.796875 
Q 16.75 56 26.8125 56 
Q 31.78125 56 36.171875 55.265625 
Q 40.578125 54.546875 44.28125 53.078125 
z
" id="DejaVuSans-115"/>
       <path d="M 18.3125 70.21875 
L 18.3125 54.6875 
L 36.8125 54.6875 
L 36.8125 47.703125 
L 18.3125 47.703125 
L 18.3125 18.015625 
Q 18.3125 11.328125 20.140625 9.421875 
Q 21.96875 7.515625 27.59375 7.515625 
L 36.8125 7.515625 
L 36.8125 0 
L 27.59375 0 
Q 17.1875 0 13.234375 3.875 
Q 9.28125 7.765625 9.28125 18.015625 
L 9.28125 47.703125 
L 2.6875 47.703125 
L 2.6875 54.6875 
L 9.28125 54.6875 
L 9.28125 70.21875 
z
" id="DejaVuSans-116"/>
       <path id="DejaVuSans-32"/>
       <path d="M 19.671875 64.796875 
L 19.671875 37.40625 
L 32.078125 37.40625 
Q 38.96875 37.40625 42.71875 40.96875 
Q 46.484375 44.53125 46.484375 51.125 
Q 46.484375 57.671875 42.71875 61.234375 
Q 38.96875 64.796875 32.078125 64.796875 
z
M 9.8125 72.90625 
L 32.078125 72.90625 
Q 44.34375 72.90625 50.609375 67.359375 
Q 56.890625 61.8125 56.890625 51.125 
Q 56.890625 40.328125 50.609375 34.8125 
Q 44.34375 29.296875 32.078125 29.296875 
L 19.671875 29.296875 
L 19.671875 0 
L 9.8125 0 
z
" id="DejaVuSans-80"/>
       <path d="M 64.40625 67.28125 
L 64.40625 56.890625 
Q 59.421875 61.53125 53.78125 63.8125 
Q 48.140625 66.109375 41.796875 66.109375 
Q 29.296875 66.109375 22.65625 58.46875 
Q 16.015625 50.828125 16.015625 36.375 
Q 16.015625 21.96875 22.65625 14.328125 
Q 29.296875 6.6875 41.796875 6.6875 
Q 48.140625 6.6875 53.78125 8.984375 
Q 59.421875 11.28125 64.40625 15.921875 
L 64.40625 5.609375 
Q 59.234375 2.09375 53.4375 0.328125 
Q 47.65625 -1.421875 41.21875 -1.421875 
Q 24.65625 -1.421875 15.125 8.703125 
Q 5.609375 18.84375 5.609375 36.375 
Q 5.609375 53.953125 15.125 64.078125 
Q 24.65625 74.21875 41.21875 74.21875 
Q 47.75 74.21875 53.53125 72.484375 
Q 59.328125 70.75 64.40625 67.28125 
z
" id="DejaVuSans-67"/>
       <path d="M 11.71875 12.40625 
L 22.015625 12.40625 
L 22.015625 0 
L 11.71875 0 
z
M 11.71875 51.703125 
L 22.015625 51.703125 
L 22.015625 39.3125 
L 11.71875 39.3125 
z
" id="DejaVuSans-58"/>
       <path d="M 10.984375 1.515625 
L 10.984375 10.5 
Q 14.703125 8.734375 18.5 7.8125 
Q 22.3125 6.890625 25.984375 6.890625 
Q 35.75 6.890625 40.890625 13.453125 
Q 46.046875 20.015625 46.78125 33.40625 
Q 43.953125 29.203125 39.59375 26.953125 
Q 35.25 24.703125 29.984375 24.703125 
Q 19.046875 24.703125 12.671875 31.3125 
Q 6.296875 37.9375 6.296875 49.421875 
Q 6.296875 60.640625 12.9375 67.421875 
Q 19.578125 74.21875 30.609375 74.21875 
Q 43.265625 74.21875 49.921875 64.515625 
Q 56.59375 54.828125 56.59375 36.375 
Q 56.59375 19.140625 48.40625 8.859375 
Q 40.234375 -1.421875 26.421875 -1.421875 
Q 22.703125 -1.421875 18.890625 -0.6875 
Q 15.09375 0.046875 10.984375 1.515625 
z
M 30.609375 32.421875 
Q 37.25 32.421875 41.125 36.953125 
Q 45.015625 41.5 45.015625 49.421875 
Q 45.015625 57.28125 41.125 61.84375 
Q 37.25 66.40625 30.609375 66.40625 
Q 23.96875 66.40625 20.09375 61.84375 
Q 16.21875 57.28125 16.21875 49.421875 
Q 16.21875 41.5 20.09375 36.953125 
Q 23.96875 32.421875 30.609375 32.421875 
z
" id="DejaVuSans-57"/>
       <path d="M 33.015625 40.375 
Q 26.375 40.375 22.484375 35.828125 
Q 18.609375 31.296875 18.609375 23.390625 
Q 18.609375 15.53125 22.484375 10.953125 
Q 26.375 6.390625 33.015625 6.390625 
Q 39.65625 6.390625 43.53125 10.953125 
Q 47.40625 15.53125 47.40625 23.390625 
Q 47.40625 31.296875 43.53125 35.828125 
Q 39.65625 40.375 33.015625 40.375 
z
M 52.59375 71.296875 
L 52.59375 62.3125 
Q 48.875 64.0625 45.09375 64.984375 
Q 41.3125 65.921875 37.59375 65.921875 
Q 27.828125 65.921875 22.671875 59.328125 
Q 17.53125 52.734375 16.796875 39.40625 
Q 19.671875 43.65625 24.015625 45.921875 
Q 28.375 48.1875 33.59375 48.1875 
Q 44.578125 48.1875 50.953125 41.515625 
Q 57.328125 34.859375 57.328125 23.390625 
Q 57.328125 12.15625 50.6875 5.359375 
Q 44.046875 -1.421875 33.015625 -1.421875 
Q 20.359375 -1.421875 13.671875 8.265625 
Q 6.984375 17.96875 6.984375 36.375 
Q 6.984375 53.65625 15.1875 63.9375 
Q 23.390625 74.21875 37.203125 74.21875 
Q 40.921875 74.21875 44.703125 73.484375 
Q 48.484375 72.75 52.59375 71.296875 
z
" id="DejaVuSans-54"/>
       <path d="M 10.6875 12.40625 
L 21 12.40625 
L 21 0 
L 10.6875 0 
z
" id="DejaVuSans-46"/>
       <path d="M 10.796875 72.90625 
L 49.515625 72.90625 
L 49.515625 64.59375 
L 19.828125 64.59375 
L 19.828125 46.734375 
Q 21.96875 47.46875 24.109375 47.828125 
Q 26.265625 48.1875 28.421875 48.1875 
Q 40.625 48.1875 47.75 41.5 
Q 54.890625 34.8125 54.890625 23.390625 
Q 54.890625 11.625 47.5625 5.09375 
Q 40.234375 -1.421875 26.90625 -1.421875 
Q 22.3125 -1.421875 17.546875 -0.640625 
Q 12.796875 0.140625 7.71875 1.703125 
L 7.71875 11.625 
Q 12.109375 9.234375 16.796875 8.0625 
Q 21.484375 6.890625 26.703125 6.890625 
Q 35.15625 6.890625 40.078125 11.328125 
Q 45.015625 15.765625 45.015625 23.390625 
Q 45.015625 31 40.078125 35.4375 
Q 35.15625 39.890625 26.703125 39.890625 
Q 22.75 39.890625 18.8125 39.015625 
Q 14.890625 38.140625 10.796875 36.28125 
z
" id="DejaVuSans-53"/>
       <path d="M 72.703125 32.078125 
Q 68.453125 32.078125 66.03125 28.46875 
Q 63.625 24.859375 63.625 18.40625 
Q 63.625 12.0625 66.03125 8.421875 
Q 68.453125 4.78125 72.703125 4.78125 
Q 76.859375 4.78125 79.265625 8.421875 
Q 81.6875 12.0625 81.6875 18.40625 
Q 81.6875 24.8125 79.265625 28.4375 
Q 76.859375 32.078125 72.703125 32.078125 
z
M 72.703125 38.28125 
Q 80.421875 38.28125 84.953125 32.90625 
Q 89.5 27.546875 89.5 18.40625 
Q 89.5 9.28125 84.9375 3.921875 
Q 80.375 -1.421875 72.703125 -1.421875 
Q 64.890625 -1.421875 60.34375 3.921875 
Q 55.8125 9.28125 55.8125 18.40625 
Q 55.8125 27.59375 60.375 32.9375 
Q 64.9375 38.28125 72.703125 38.28125 
z
M 22.3125 68.015625 
Q 18.109375 68.015625 15.6875 64.375 
Q 13.28125 60.75 13.28125 54.390625 
Q 13.28125 47.953125 15.671875 44.328125 
Q 18.0625 40.71875 22.3125 40.71875 
Q 26.5625 40.71875 28.96875 44.328125 
Q 31.390625 47.953125 31.390625 54.390625 
Q 31.390625 60.6875 28.953125 64.34375 
Q 26.515625 68.015625 22.3125 68.015625 
z
M 66.40625 74.21875 
L 74.21875 74.21875 
L 28.609375 -1.421875 
L 20.796875 -1.421875 
z
M 22.3125 74.21875 
Q 30.03125 74.21875 34.609375 68.875 
Q 39.203125 63.53125 39.203125 54.390625 
Q 39.203125 45.171875 34.640625 39.84375 
Q 30.078125 34.515625 22.3125 34.515625 
Q 14.546875 34.515625 10.03125 39.859375 
Q 5.515625 45.21875 5.515625 54.390625 
Q 5.515625 63.484375 10.046875 68.84375 
Q 14.59375 74.21875 22.3125 74.21875 
z
" id="DejaVuSans-37"/>
      </defs>
      <use xlink:href="#DejaVuSans-49"/>
      <use x="63.623047" xlink:href="#DejaVuSans-115"/>
      <use x="115.722656" xlink:href="#DejaVuSans-116"/>
      <use x="154.931641" xlink:href="#DejaVuSans-32"/>
      <use x="186.71875" xlink:href="#DejaVuSans-80"/>
      <use x="247.021484" xlink:href="#DejaVuSans-67"/>
      <use x="316.845703" xlink:href="#DejaVuSans-58"/>
      <use x="350.537109" xlink:href="#DejaVuSans-32"/>
      <use x="382.324219" xlink:href="#DejaVuSans-57"/>
      <use x="445.947266" xlink:href="#DejaVuSans-54"/>
      <use x="509.570312" xlink:href="#DejaVuSans-46"/>
      <use x="541.357422" xlink:href="#DejaVuSans-49"/>
      <use x="604.980469" xlink:href="#DejaVuSans-53"/>
      <use x="668.603516" xlink:href="#DejaVuSans-32"/>
      <use x="700.390625" xlink:href="#DejaVuSans-37"/>
     </g>
    </g>
   </g>
   <g id="matplotlib.axis_2">
    <g id="ytick_1">
     <g id="line2d_7">
      <defs>
       <path d="M 0 0 
L -3.5 0 
" id="me9110646f0" style="stroke:#000000;stroke-width:0.8;"/>
      </defs>
      <g>
       <use style="stroke:#000000;stroke-width:0.8;" x="49.665988" xlink:href="#me9110646f0" y="236.115172"/>
      </g>
     </g>
     <g id="text_8">
      <!-- −4 -->
      <g transform="translate(27.9238 239.914391)scale(0.1 -0.1)">
       <use xlink:href="#DejaVuSans-8722"/>
       <use x="83.789062" xlink:href="#DejaVuSans-52"/>
      </g>
     </g>
    </g>
    <g id="ytick_2">
     <g id="line2d_8">
      <g>
       <use style="stroke:#000000;stroke-width:0.8;" x="49.665988" xlink:href="#me9110646f0" y="178.298825"/>
      </g>
     </g>
     <g id="text_9">
      <!-- −2 -->
      <g transform="translate(27.9238 182.098044)scale(0.1 -0.1)">
       <use xlink:href="#DejaVuSans-8722"/>
       <use x="83.789062" xlink:href="#DejaVuSans-50"/>
      </g>
     </g>
    </g>
    <g id="ytick_3">
     <g id="line2d_9">
      <g>
       <use style="stroke:#000000;stroke-width:0.8;" x="49.665988" xlink:href="#me9110646f0" y="120.482478"/>
      </g>
     </g>
     <g id="text_10">
      <!-- 0 -->
      <g transform="translate(36.303488 124.281697)scale(0.1 -0.1)">
       <use xlink:href="#DejaVuSans-48"/>
      </g>
     </g>
    </g>
    <g id="ytick_4">
     <g id="line2d_10">
      <g>
       <use style="stroke:#000000;stroke-width:0.8;" x="49.665988" xlink:href="#me9110646f0" y="62.666131"/>
      </g>
     </g>
     <g id="text_11">
      <!-- 2 -->
      <g transform="translate(36.303488 66.46535)scale(0.1 -0.1)">
       <use xlink:href="#DejaVuSans-50"/>
      </g>
     </g>
    </g>
    <g id="text_12">
     <!-- 2nd PC: 2.10 % -->
     <g transform="translate(20.3301 206.5518)rotate(-90)scale(0.1728 -0.1728)">
      <defs>
       <path d="M 54.890625 33.015625 
L 54.890625 0 
L 45.90625 0 
L 45.90625 32.71875 
Q 45.90625 40.484375 42.875 44.328125 
Q 39.84375 48.1875 33.796875 48.1875 
Q 26.515625 48.1875 22.3125 43.546875 
Q 18.109375 38.921875 18.109375 30.90625 
L 18.109375 0 
L 9.078125 0 
L 9.078125 54.6875 
L 18.109375 54.6875 
L 18.109375 46.1875 
Q 21.34375 51.125 25.703125 53.5625 
Q 30.078125 56 35.796875 56 
Q 45.21875 56 50.046875 50.171875 
Q 54.890625 44.34375 54.890625 33.015625 
z
" id="DejaVuSans-110"/>
       <path d="M 45.40625 46.390625 
L 45.40625 75.984375 
L 54.390625 75.984375 
L 54.390625 0 
L 45.40625 0 
L 45.40625 8.203125 
Q 42.578125 3.328125 38.25 0.953125 
Q 33.9375 -1.421875 27.875 -1.421875 
Q 17.96875 -1.421875 11.734375 6.484375 
Q 5.515625 14.40625 5.515625 27.296875 
Q 5.515625 40.1875 11.734375 48.09375 
Q 17.96875 56 27.875 56 
Q 33.9375 56 38.25 53.625 
Q 42.578125 51.265625 45.40625 46.390625 
z
M 14.796875 27.296875 
Q 14.796875 17.390625 18.875 11.75 
Q 22.953125 6.109375 30.078125 6.109375 
Q 37.203125 6.109375 41.296875 11.75 
Q 45.40625 17.390625 45.40625 27.296875 
Q 45.40625 37.203125 41.296875 42.84375 
Q 37.203125 48.484375 30.078125 48.484375 
Q 22.953125 48.484375 18.875 42.84375 
Q 14.796875 37.203125 14.796875 27.296875 
z
" id="DejaVuSans-100"/>
      </defs>
      <use xlink:href="#DejaVuSans-50"/>
      <use x="63.623047" xlink:href="#DejaVuSans-110"/>
      <use x="127.001953" xlink:href="#DejaVuSans-100"/>
      <use x="190.478516" xlink:href="#DejaVuSans-32"/>
      <use x="222.265625" xlink:href="#DejaVuSans-80"/>
      <use x="282.568359" xlink:href="#DejaVuSans-67"/>
      <use x="352.392578" xlink:href="#DejaVuSans-58"/>
      <use x="386.083984" xlink:href="#DejaVuSans-32"/>
      <use x="417.871094" xlink:href="#DejaVuSans-50"/>
      <use x="481.494141" xlink:href="#DejaVuSans-46"/>
      <use x="513.28125" xlink:href="#DejaVuSans-49"/>
      <use x="576.904297" xlink:href="#DejaVuSans-48"/>
      <use x="640.527344" xlink:href="#DejaVuSans-32"/>
      <use x="672.314453" xlink:href="#DejaVuSans-37"/>
     </g>
    </g>
   </g>
   <g id="LineCollection_1"/>
   <g id="LineCollection_2"/>
   <g id="LineCollection_3"/>
   <g id="LineCollection_4"/>
   <g id="LineCollection_5">
    <path clip-path="url(#pdeb7fdc69f)" d="M 93.383362 236.115172 
L 93.414199 230.333537 
L 93.444061 224.551903 
L 93.471542 218.770268 
L 93.495169 212.988633 
L 93.514639 207.206998 
L 93.529401 201.425364 
L 93.537471 195.643729 
L 93.536008 189.862094 
L 93.522502 184.08046 
L 93.493716 178.298825 
L 93.466606 174.946428 
" style="fill:none;stroke:#404688;stroke-width:1.5;"/>
    <path clip-path="url(#pdeb7fdc69f)" d="M 93.249403 158.526872 
L 93.187455 155.172286 
L 93.059934 149.390652 
L 92.910794 143.609017 
L 92.739243 137.827382 
L 92.545701 132.045747 
L 92.332211 126.264113 
L 92.100485 120.482478 
L 91.851429 114.700843 
L 91.58636 108.919209 
L 91.307518 103.137574 
L 91.017742 97.355939 
L 90.718886 91.574305 
L 90.413476 85.79267 
L 90.288886 83.492601 
L 90.061543 80.011035 
L 89.690243 74.229401 
L 89.347206 68.447766 
L 89.060148 62.666131 
" style="fill:none;stroke:#404688;stroke-width:1.5;"/>
    <path clip-path="url(#pdeb7fdc69f)" d="M 107.967049 62.666131 
L 109.241844 68.447766 
L 110.600336 73.422386 
L 110.685743 74.229401 
L 111.338985 80.011035 
L 112.293882 85.79267 
L 113.651817 91.574305 
L 114.662626 95.346452 
L 114.89483 97.355939 
L 115.677163 103.137574 
L 116.795875 108.437707 
" style="fill:none;stroke:#404688;stroke-width:1.5;"/>
    <path clip-path="url(#pdeb7fdc69f)" d="M 119.715002 123.763981 
L 120.026364 126.264113 
L 120.707256 132.045747 
L 121.405407 137.827382 
L 122.224586 143.609017 
L 122.787206 147.198122 
L 122.902674 149.390652 
L 123.229228 155.172286 
L 123.653783 160.953921 
L 124.226689 166.735556 
L 125.020381 172.51719 
L 126.163687 178.298825 
L 126.849496 181.192897 
L 127.083907 184.08046 
L 127.636396 189.862094 
L 128.458688 195.643729 
L 129.806192 201.425364 
L 130.911785 205.093409 
L 131.077982 207.206998 
L 131.18725 212.988633 
L 130.911785 217.975441 
L 126.849496 213.358228 
L 126.590439 212.988633 
L 122.787206 208.364806 
L 120.965221 212.988633 
L 118.724916 218.220001 
L 118.632986 218.770268 
L 117.655435 224.551903 
L 116.679195 230.333537 
L 115.696039 236.115172 
" style="fill:none;stroke:#404688;stroke-width:1.5;"/>
   </g>
   <g id="LineCollection_6">
    <path clip-path="url(#pdeb7fdc69f)" d="M 110.963228 62.666131 
L 111.74059 68.447766 
L 112.880343 74.229401 
L 114.554971 80.011035 
L 114.662626 80.377266 
L 115.306557 85.79267 
L 116.298638 91.574305 
L 117.793877 97.355939 
L 118.724916 100.220455 
L 119.166256 103.137574 
L 120.336712 108.919209 
L 122.32342 114.700843 
L 122.787206 116.161373 
L 123.588996 120.482478 
L 124.37575 126.264113 
L 124.866676 132.045747 
L 125.34831 137.827382 
L 126.022773 143.609017 
L 126.849496 148.365967 
L 126.9059 149.390652 
L 127.306184 155.172286 
L 127.887047 160.953921 
L 128.765809 166.735556 
L 130.136896 172.51719 
L 130.911785 175.154178 
L 131.276642 178.298825 
L 132.205455 184.08046 
L 133.738536 189.862094 
L 134.974075 193.335522 
L 135.362059 195.643729 
L 136.700235 201.425364 
L 138.714313 207.206998 
L 139.036365 208.343405 
L 139.472445 212.988633 
L 139.856922 218.770268 
L 140.049632 224.551903 
L 140.073238 227.903621 
" style="fill:none;stroke:#39558c;stroke-width:1.5;"/>
   </g>
   <g id="LineCollection_7">
    <path clip-path="url(#pdeb7fdc69f)" d="M 111.993717 62.666131 
L 113.240712 68.447766 
L 114.662626 73.272986 
L 114.776146 74.229401 
L 115.517137 80.011035 
L 116.607459 85.79267 
L 118.224164 91.574305 
L 118.724916 93.175711 
L 119.328895 97.355939 
L 120.515711 103.137574 
L 122.007322 107.462374 
" style="fill:none;stroke:#33638d;stroke-width:1.5;"/>
    <path clip-path="url(#pdeb7fdc69f)" d="M 126.041668 121.925744 
L 126.849496 125.830576 
L 126.884453 126.264113 
L 127.070934 132.045747 
L 127.252852 137.827382 
L 127.536803 143.609017 
L 127.979421 149.390652 
L 128.651665 155.172286 
L 129.682434 160.953921 
L 130.911785 165.694347 
L 131.009036 166.735556 
L 131.66737 172.51719 
L 132.73917 178.298825 
L 134.491347 184.08046 
L 134.974075 185.482924 
L 135.618703 189.862094 
L 137.076208 195.643729 
L 139.036365 200.479018 
L 139.196335 201.425364 
L 140.112356 207.206998 
L 141.100694 212.988633 
L 141.871785 218.770268 
L 142.290447 224.551903 
L 142.40579 230.333537 
L 142.329624 236.115172 
" style="fill:none;stroke:#33638d;stroke-width:1.5;"/>
   </g>
   <g id="LineCollection_8">
    <path clip-path="url(#pdeb7fdc69f)" d="M 113.024205 62.666131 
L 114.662626 68.264203 
L 114.684323 68.447766 
L 115.380371 74.229401 
L 116.401243 80.011035 
L 117.908361 85.79267 
L 118.724916 88.446204 
L 119.163988 91.574305 
L 120.21861 97.355939 
L 121.865167 103.137574 
L 122.787206 105.677042 
L 123.232105 107.636941 
" style="fill:none;stroke:#2d718e;stroke-width:1.5;"/>
    <path clip-path="url(#pdeb7fdc69f)" d="M 127.37241 121.872533 
L 127.724033 126.264113 
L 127.86828 132.045747 
L 128.070298 137.827382 
L 128.445841 143.609017 
L 129.052943 149.390652 
L 129.997146 155.172286 
L 130.911785 159.122082 
L 131.056104 160.953921 
L 131.655663 166.735556 
L 132.622834 172.51719 
L 134.201697 178.298825 
L 134.974075 180.617354 
L 135.431112 184.08046 
L 136.596305 189.862094 
L 138.790357 195.643729 
L 139.036365 196.250579 
L 139.911106 201.425364 
L 141.263788 207.206998 
L 142.728943 212.988633 
L 143.098655 215.112363 
L 143.302132 218.770268 
L 143.479437 224.551903 
L 143.540413 230.333537 
L 143.52129 236.115172 
" style="fill:none;stroke:#2d718e;stroke-width:1.5;"/>
   </g>
   <g id="LineCollection_9">
    <path clip-path="url(#pdeb7fdc69f)" d="M 114.054694 62.666131 
L 114.662626 64.743283 
L 115.100494 68.447766 
L 115.984596 74.229401 
L 117.285349 80.011035 
L 118.724916 84.716687 
L 118.873447 85.79267 
L 119.757377 91.574305 
L 121.108324 97.355939 
L 122.787206 102.306602 
L 122.95895 103.137574 
L 124.194738 108.212357 
" style="fill:none;stroke:#287d8e;stroke-width:1.5;"/>
    <path clip-path="url(#pdeb7fdc69f)" d="M 128.257343 122.382592 
L 128.563613 126.264113 
L 128.665627 132.045747 
L 128.887743 137.827382 
L 129.354879 143.609017 
L 130.126464 149.390652 
L 130.911785 153.412024 
L 131.018904 155.172286 
L 131.513864 160.953921 
L 132.30229 166.735556 
L 133.578298 172.51719 
L 134.974075 176.8872 
L 135.140344 178.298825 
L 136.010504 184.08046 
L 137.573907 189.862094 
L 139.036365 193.538741 
L 139.378935 195.643729 
L 140.625877 201.425364 
L 142.415221 207.206998 
L 143.098655 209.718322 
L 143.41114 212.988633 
L 143.822413 218.770268 
L 144.075037 224.551903 
L 144.170808 230.333537 
L 144.157765 236.115172 
" style="fill:none;stroke:#287d8e;stroke-width:1.5;"/>
   </g>
   <g id="LineCollection_10">
    <path clip-path="url(#pdeb7fdc69f)" d="M 114.780971 62.666131 
L 115.516664 68.447766 
L 116.58882 74.229401 
L 118.169455 80.011035 
L 118.724916 81.826723 
L 119.272384 85.79267 
L 120.350767 91.574305 
L 121.998038 97.355939 
L 122.787206 99.683025 
L 123.501189 103.137574 
L 124.963635 108.084052 
" style="fill:none;stroke:#238a8d;stroke-width:1.5;"/>
    <path clip-path="url(#pdeb7fdc69f)" d="M 129.09172 122.257588 
L 129.403193 126.264113 
L 129.462973 132.045747 
L 129.705189 137.827382 
L 130.263916 143.609017 
L 130.911785 147.808697 
L 130.979545 149.390652 
L 131.353427 155.172286 
L 131.971624 160.953921 
L 132.948916 166.735556 
L 134.533762 172.51719 
L 134.974075 173.895758 
L 135.492693 178.298825 
L 136.589895 184.08046 
L 138.551509 189.862094 
L 139.036365 191.081033 
L 139.778907 195.643729 
L 141.340648 201.425364 
L 143.098655 206.387059 
L 143.208908 207.206998 
L 143.815422 212.988633 
L 144.342693 218.770268 
L 144.670638 224.551903 
L 144.801203 230.333537 
L 144.79424 236.115172 
" style="fill:none;stroke:#238a8d;stroke-width:1.5;"/>
   </g>
   <g id="LineCollection_11">
    <path clip-path="url(#pdeb7fdc69f)" d="M 115.069578 62.666131 
L 115.932835 68.447766 
L 117.193045 74.229401 
L 118.724916 79.271719 
L 118.825513 80.011035 
L 119.671322 85.79267 
L 120.944156 91.574305 
L 122.787206 97.152961 
L 122.827476 97.355939 
L 124.043427 103.137574 
L 125.71772 107.951626 
" style="fill:none;stroke:#1f968b;stroke-width:1.5;"/>
    <path clip-path="url(#pdeb7fdc69f)" d="M 129.923905 122.100176 
L 130.242773 126.264113 
L 130.26032 132.045747 
L 130.522634 137.827382 
L 130.911785 141.433012 
L 130.968963 143.609017 
L 131.231945 149.390652 
L 131.68795 155.172286 
L 132.429384 160.953921 
L 133.595543 166.735556 
L 134.974075 171.350141 
L 135.093906 172.51719 
L 135.845041 178.298825 
L 137.169287 184.08046 
L 139.036365 189.080092 
L 139.145706 189.862094 
L 140.178879 195.643729 
L 142.05542 201.425364 
L 143.098655 204.369731 
L 143.480166 207.206998 
L 144.219704 212.988633 
L 144.862974 218.770268 
L 145.266238 224.551903 
L 145.431599 230.333537 
L 145.430714 236.115172 
" style="fill:none;stroke:#1f968b;stroke-width:1.5;"/>
   </g>
   <g id="LineCollection_12">
    <path clip-path="url(#pdeb7fdc69f)" d="M 115.358186 62.666131 
L 116.349005 68.447766 
L 117.79727 74.229401 
L 118.724916 77.282848 
L 119.096134 80.011035 
L 120.070259 85.79267 
L 121.537545 91.574305 
L 122.787206 95.356854 
L 123.183822 97.355939 
L 124.585666 103.137574 
L 126.45498 107.8469 
" style="fill:none;stroke:#20a386;stroke-width:1.5;"/>
    <path clip-path="url(#pdeb7fdc69f)" d="M 130.755707 121.928295 
L 130.911785 123.99141 
L 130.944356 126.264113 
L 130.939982 132.045747 
L 130.99953 137.827382 
L 131.16798 143.609017 
L 131.484344 149.390652 
L 132.022473 155.172286 
L 132.887144 160.953921 
L 134.24217 166.735556 
L 134.974075 169.185582 
L 135.316159 172.51719 
L 136.19739 178.298825 
L 137.748678 184.08046 
L 139.036365 187.528608 
L 139.362636 189.862094 
L 140.57885 195.643729 
L 142.770191 201.425364 
L 143.098655 202.352402 
L 143.751425 207.206998 
L 144.623986 212.988633 
L 145.383255 218.770268 
L 145.861839 224.551903 
L 146.061994 230.333537 
L 146.067189 236.115172 
" style="fill:none;stroke:#20a386;stroke-width:1.5;"/>
   </g>
   <g id="LineCollection_13">
    <path clip-path="url(#pdeb7fdc69f)" d="M 115.646793 62.666131 
L 116.765176 68.447766 
L 118.401494 74.229401 
L 118.724916 75.293977 
L 119.366755 80.011035 
L 120.469196 85.79267 
L 122.130934 91.574305 
L 122.787206 93.560747 
L 123.540167 97.355939 
L 125.127904 103.137574 
L 126.849496 107.474745 
L 127.014576 107.979444 
" style="fill:none;stroke:#29af7f;stroke-width:1.5;"/>
    <path clip-path="url(#pdeb7fdc69f)" d="M 131.056977 122.113027 
L 131.104675 126.264113 
L 131.094099 132.045747 
L 131.167 137.827382 
L 131.366997 143.609017 
L 131.736743 149.390652 
L 132.356995 155.172286 
L 133.344904 160.953921 
L 134.888797 166.735556 
L 134.974075 167.021023 
L 135.538411 172.51719 
L 136.549738 178.298825 
L 138.328069 184.08046 
L 139.036365 185.977123 
L 139.579567 189.862094 
L 140.978822 195.643729 
L 143.098655 200.890341 
L 143.183252 201.425364 
L 144.022683 207.206998 
L 145.028267 212.988633 
L 145.903536 218.770268 
L 146.457439 224.551903 
L 146.692389 230.333537 
L 146.703664 236.115172 
" style="fill:none;stroke:#29af7f;stroke-width:1.5;"/>
   </g>
   <g id="LineCollection_14">
    <path clip-path="url(#pdeb7fdc69f)" d="M 115.935401 62.666131 
L 117.181347 68.447766 
L 118.724916 73.585629 
L 118.810771 74.229401 
L 119.637376 80.011035 
L 120.868133 85.79267 
L 122.724323 91.574305 
L 122.787206 91.764641 
L 123.896513 97.355939 
L 125.670143 103.137574 
L 126.849496 106.108695 
L 127.76878 108.919209 
L 130.146492 114.700843 
L 130.911785 117.050451 
L 131.222489 120.482478 
L 131.264994 126.264113 
L 131.248216 132.045747 
L 131.334469 137.827382 
L 131.566014 143.609017 
L 131.989143 149.390652 
L 132.691518 155.172286 
L 133.802664 160.953921 
L 134.974075 165.271023 
L 135.100444 166.735556 
L 135.760664 172.51719 
L 136.902087 178.298825 
L 138.907461 184.08046 
L 139.036365 184.425638 
L 139.796497 189.862094 
L 141.378794 195.643729 
L 143.098655 199.900406 
L 143.339778 201.425364 
L 144.293942 207.206998 
L 145.432549 212.988633 
L 146.423817 218.770268 
L 146.795122 222.18202 
" style="fill:none;stroke:#3dbc74;stroke-width:1.5;"/>
   </g>
   <g id="LineCollection_15">
    <path clip-path="url(#pdeb7fdc69f)" d="M 116.224008 62.666131 
L 117.597517 68.447766 
L 118.724916 72.20038 
L 118.995512 74.229401 
L 119.907998 80.011035 
L 121.267071 85.79267 
L 122.787206 90.475578 
L 122.998261 91.574305 
L 124.252858 97.355939 
L 126.212381 103.137574 
L 126.849496 104.742644 
L 128.049507 108.411422 
" style="fill:none;stroke:#56c667;stroke-width:1.5;"/>
    <path clip-path="url(#pdeb7fdc69f)" d="M 131.414107 122.776346 
L 131.425314 126.264113 
L 131.402333 132.045747 
L 131.501939 137.827382 
L 131.765031 143.609017 
L 132.241542 149.390652 
L 133.026041 155.172286 
L 134.260424 160.953921 
L 134.974075 163.584002 
L 135.24601 166.735556 
L 135.982917 172.51719 
L 137.254435 178.298825 
L 139.036365 183.310028 
L 139.13039 184.08046 
L 140.013427 189.862094 
L 141.778766 195.643729 
L 143.098655 198.91047 
L 143.496305 201.425364 
L 144.5652 207.206998 
L 145.836831 212.988633 
L 146.944098 218.770268 
L 147.160945 220.720485 
L 147.310536 224.551903 
L 147.420437 230.333537 
L 147.439093 236.115172 
" style="fill:none;stroke:#56c667;stroke-width:1.5;"/>
   </g>
   <g id="LineCollection_16">
    <path clip-path="url(#pdeb7fdc69f)" d="M 116.512616 62.666131 
L 118.013688 68.447766 
L 118.724916 70.815131 
L 119.180253 74.229401 
L 120.178619 80.011035 
L 121.666008 85.79267 
L 122.787206 89.246617 
L 123.234334 91.574305 
L 124.609203 97.355939 
L 126.754619 103.137574 
L 126.849496 103.376593 
L 128.20249 107.513084 
" style="fill:none;stroke:#75d054;stroke-width:1.5;"/>
    <path clip-path="url(#pdeb7fdc69f)" d="M 131.589634 121.942272 
L 131.585633 126.264113 
L 131.55645 132.045747 
L 131.669409 137.827382 
L 131.964048 143.609017 
L 132.493941 149.390652 
L 133.360564 155.172286 
L 134.718183 160.953921 
L 134.974075 161.896981 
L 135.391576 166.735556 
L 136.20517 172.51719 
L 137.606784 178.298825 
L 139.036365 182.319142 
L 139.251319 184.08046 
L 140.230358 189.862094 
L 142.178738 195.643729 
L 143.098655 197.920535 
L 143.652831 201.425364 
L 144.836459 207.206998 
L 146.241113 212.988633 
L 147.160945 217.590633 
L 147.244887 218.770268 
L 147.493225 224.551903 
L 147.626919 230.333537 
L 147.656134 236.115172 
" style="fill:none;stroke:#75d054;stroke-width:1.5;"/>
   </g>
   <g id="LineCollection_17">
    <path clip-path="url(#pdeb7fdc69f)" d="M 116.801223 62.666131 
L 118.429859 68.447766 
L 118.724916 69.429882 
L 119.364993 74.229401 
L 120.44924 80.011035 
L 122.064945 85.79267 
L 122.787206 88.017656 
L 123.470407 91.574305 
L 124.965549 97.355939 
L 126.849496 102.357125 
L 127.085517 103.137574 
L 128.24792 106.458487 
" style="fill:none;stroke:#95d840;stroke-width:1.5;"/>
    <path clip-path="url(#pdeb7fdc69f)" d="M 131.773143 120.895138 
L 131.745952 126.264113 
L 131.710567 132.045747 
L 131.836878 137.827382 
L 132.163064 143.609017 
L 132.746341 149.390652 
L 133.695087 155.172286 
L 134.974075 160.356017 
L 135.016909 160.953921 
L 135.537143 166.735556 
L 136.427423 172.51719 
L 137.959132 178.298825 
L 139.036365 181.328256 
L 139.372249 184.08046 
L 140.447288 189.862094 
L 142.57871 195.643729 
L 143.098655 196.9306 
L 143.809358 201.425364 
L 145.107717 207.206998 
L 146.645395 212.988633 
L 147.160945 215.567976 
L 147.388818 218.770268 
L 147.675915 224.551903 
L 147.833401 230.333537 
L 147.873176 236.115172 
" style="fill:none;stroke:#95d840;stroke-width:1.5;"/>
   </g>
   <g id="LineCollection_18">
    <path clip-path="url(#pdeb7fdc69f)" d="M 117.08983 62.666131 
L 118.724916 68.165288 
L 118.76174 68.447766 
L 119.549734 74.229401 
L 120.719861 80.011035 
L 122.463883 85.79267 
L 122.787206 86.788694 
L 123.706479 91.574305 
L 125.321894 97.355939 
L 126.849496 101.411159 
L 127.371594 103.137574 
L 128.25026 105.46315 
" style="fill:none;stroke:#bade28;stroke-width:1.5;"/>
    <path clip-path="url(#pdeb7fdc69f)" d="M 131.905299 119.856496 
L 131.959481 120.482478 
L 131.906272 126.264113 
L 131.864684 132.045747 
L 132.004348 137.827382 
L 132.362081 143.609017 
L 132.99874 149.390652 
L 134.029609 155.172286 
L 134.974075 159.000199 
L 135.11404 160.953921 
L 135.682709 166.735556 
L 136.649676 172.51719 
L 138.311481 178.298825 
L 139.036365 180.337369 
L 139.493178 184.08046 
L 140.664219 189.862094 
L 142.978682 195.643729 
L 143.098655 195.940664 
L 143.965884 201.425364 
L 145.378976 207.206998 
L 147.049677 212.988633 
L 147.160945 213.545319 
L 147.53275 218.770268 
L 147.858604 224.551903 
L 148.039883 230.333537 
L 148.090218 236.115172 
" style="fill:none;stroke:#bade28;stroke-width:1.5;"/>
   </g>
   <g id="LineCollection_19">
    <path clip-path="url(#pdeb7fdc69f)" d="M 117.378438 62.666131 
L 118.724916 67.194637 
L 118.888276 68.447766 
L 119.734475 74.229401 
L 120.990482 80.011035 
L 122.787206 85.632195 
L 122.816994 85.79267 
L 123.942552 91.574305 
L 125.678239 97.355939 
L 126.849496 100.465193 
L 127.657671 103.137574 
L 128.218745 104.520792 
" style="fill:none;stroke:#dde318;stroke-width:1.5;"/>
    <path clip-path="url(#pdeb7fdc69f)" d="M 132.002379 118.822616 
L 132.143729 120.482478 
L 132.066591 126.264113 
L 132.018801 132.045747 
L 132.171818 137.827382 
L 132.561098 143.609017 
L 133.251139 149.390652 
L 134.364132 155.172286 
L 134.974075 157.644381 
L 135.211171 160.953921 
L 135.828275 166.735556 
L 136.871929 172.51719 
L 138.663829 178.298825 
L 139.036365 179.346483 
L 139.614108 184.08046 
L 140.881149 189.862094 
L 143.098655 195.273163 
L 143.155077 195.643729 
L 144.122411 201.425364 
L 145.650234 207.206998 
L 147.160945 212.322863 
L 147.230884 212.988633 
L 147.676681 218.770268 
L 148.041293 224.551903 
L 148.246365 230.333537 
L 148.307259 236.115172 
" style="fill:none;stroke:#dde318;stroke-width:1.5;"/>
   </g>
   <g id="LineCollection_20">
    <path clip-path="url(#pdeb7fdc69f)" d="M 117.667045 62.666131 
L 118.724916 66.223985 
L 119.014812 68.447766 
L 119.919216 74.229401 
L 121.261103 80.011035 
L 122.787206 84.78554 
L 122.974157 85.79267 
L 124.178625 91.574305 
L 126.034585 97.355939 
L 126.849496 99.519227 
L 127.943748 103.137574 
L 128.15733 103.630344 
" style="fill:none;stroke:#fde725;stroke-width:1.5;"/>
    <path clip-path="url(#pdeb7fdc69f)" d="M 132.102272 117.787832 
L 132.327977 120.482478 
L 132.22691 126.264113 
L 132.172918 132.045747 
L 132.339288 137.827382 
L 132.760115 143.609017 
L 133.503539 149.390652 
L 134.698655 155.172286 
L 134.974075 156.288563 
L 135.308302 160.953921 
L 135.973841 166.735556 
L 137.094181 172.51719 
L 139.016178 178.298825 
L 139.036365 178.355596 
L 139.735037 184.08046 
L 141.098079 189.862094 
L 143.098655 194.743819 
L 143.235675 195.643729 
L 144.278937 201.425364 
L 145.921493 207.206998 
L 147.160945 211.404275 
L 147.327382 212.988633 
L 147.820612 218.770268 
L 148.223982 224.551903 
L 148.452847 230.333537 
L 148.524301 236.115172 
" style="fill:none;stroke:#fde725;stroke-width:1.5;"/>
   </g>
   <g id="LineCollection_21">
    <path clip-path="url(#pdeb7fdc69f)" d="M 117.955653 62.666131 
L 118.724916 65.253334 
L 119.141348 68.447766 
L 120.103957 74.229401 
L 121.531725 80.011035 
L 122.787206 83.938885 
L 123.13132 85.79267 
L 124.414697 91.574305 
L 126.39093 97.355939 
L 126.849496 98.573262 
L 128.229825 103.137574 
L 130.896507 108.919209 
L 130.911785 108.952832 
L 131.388704 111.391209 
" style="fill:none;stroke:#440154;stroke-width:1.5;"/>
    <path clip-path="url(#pdeb7fdc69f)" d="M 132.349764 129.86261 
L 132.327035 132.045747 
L 132.506757 137.827382 
L 132.959132 143.609017 
L 133.755938 149.390652 
L 134.974075 154.968109 
L 134.985703 155.172286 
L 135.405433 160.953921 
L 136.119408 166.735556 
L 137.316434 172.51719 
L 139.036365 177.670997 
L 139.10272 178.298825 
L 139.855966 184.08046 
L 141.31501 189.862094 
L 143.098655 194.214474 
L 143.316273 195.643729 
L 144.435464 201.425364 
L 146.192751 207.206998 
L 147.160945 210.485686 
L 147.42388 212.988633 
L 147.964543 218.770268 
L 148.406671 224.551903 
L 148.659329 230.333537 
L 148.741342 236.115172 
" style="fill:none;stroke:#440154;stroke-width:1.5;"/>
   </g>
   <g id="LineCollection_22">
    <path clip-path="url(#pdeb7fdc69f)" d="M 126.797142 62.666131 
L 126.849496 62.81833 
L 127.98283 68.447766 
L 129.872862 74.229401 
L 130.911785 76.813442 
L 131.755512 80.011035 
L 133.815967 85.79267 
L 134.974075 88.596722 
L 135.4408 91.574305 
L 136.553865 97.355939 
L 138.107461 103.137574 
L 139.036365 106.930756 
L 139.102702 108.919209 
L 139.0945 114.700843 
L 139.036365 118.816254 
L 138.836204 120.482478 
L 138.766291 121.532707 
" style="fill:none;stroke:#440154;stroke-width:1.5;"/>
    <path clip-path="url(#pdeb7fdc69f)" d="M 139.250267 142.503221 
L 139.291271 143.609017 
L 139.676231 149.390652 
L 140.336719 155.172286 
L 141.443175 160.953921 
L 143.098655 166.350241 
L 143.130444 166.735556 
L 143.672093 172.51719 
L 144.652901 178.298825 
L 146.499996 184.08046 
L 147.160945 185.761414 
L 147.669821 189.862094 
L 148.926128 195.643729 
L 151.223235 201.046233 
L 151.273852 201.425364 
L 152.065312 207.206998 
L 153.579795 212.988633 
L 155.285525 217.602157 
L 155.411295 218.770268 
L 156.008724 224.551903 
L 156.805507 230.333537 
L 157.582401 236.115172 
" style="fill:none;stroke:#440154;stroke-width:1.5;"/>
   </g>
   <g id="LineCollection_23">
    <path clip-path="url(#pdeb7fdc69f)" d="M 135.732312 62.666131 
L 137.319406 68.447766 
L 139.036365 73.156579 
L 139.172299 74.229401 
L 139.971163 80.011035 
L 141.146057 85.79267 
L 142.752215 91.574305 
L 143.098655 92.942275 
L 143.223578 97.355939 
L 143.281823 103.137574 
L 143.252717 108.919209 
L 143.187607 114.700843 
L 143.151944 120.482478 
L 143.182791 126.264113 
L 143.303038 132.045747 
L 143.549629 137.827382 
L 143.986605 143.609017 
L 144.625754 148.647103 
" style="fill:none;stroke:#440154;stroke-width:1.5;"/>
    <path clip-path="url(#pdeb7fdc69f)" d="M 148.595241 170.669723 
L 148.92182 172.51719 
L 150.720149 178.298825 
L 151.223235 179.678494 
L 151.739497 184.08046 
L 152.843111 189.862094 
L 154.888528 195.643729 
L 155.285525 196.644345 
L 155.904202 201.425364 
L 157.151822 207.206998 
L 159.347815 212.760926 
L 159.377173 212.988633 
L 160.109086 218.770268 
L 161.36711 224.551903 
L 163.410105 230.196701 
L 163.424889 230.333537 
L 163.962744 236.115172 
" style="fill:none;stroke:#440154;stroke-width:1.5;"/>
   </g>
   <g id="LineCollection_24">
    <path clip-path="url(#pdeb7fdc69f)" d="M 143.311496 62.666131 
L 143.896362 68.447766 
L 144.742519 74.229401 
L 145.868389 80.011035 
L 147.101116 85.79267 
L 147.160945 86.229701 
L 147.208825 91.574305 
L 147.231814 97.355939 
L 147.234873 103.137574 
L 147.234594 108.919209 
L 147.260939 114.700843 
L 147.348351 120.482478 
L 147.531666 126.264113 
L 147.851634 132.045747 
L 148.380469 137.827382 
L 149.17694 143.196788 
" style="fill:none;stroke:#440154;stroke-width:1.5;"/>
    <path clip-path="url(#pdeb7fdc69f)" d="M 153.60009 167.395789 
L 155.285525 172.431651 
L 155.294881 172.51719 
L 155.968347 178.298825 
L 157.135176 184.08046 
L 159.164015 189.862094 
L 159.347815 190.356929 
L 160.021001 195.643729 
L 161.250414 201.425364 
L 163.38229 207.206998 
L 163.410105 207.281363 
L 164.137444 212.988633 
L 165.358536 218.770268 
L 167.426237 224.551903 
L 167.472395 224.680009 
L 168.139086 230.333537 
L 169.210278 236.115172 
" style="fill:none;stroke:#440154;stroke-width:1.5;"/>
   </g>
   <g id="LineCollection_25">
    <path clip-path="url(#pdeb7fdc69f)" d="M 147.703377 62.666131 
L 148.130629 68.447766 
L 148.631991 74.229401 
L 149.138445 80.011035 
L 149.591314 85.79267 
L 150.001785 91.574305 
L 150.429302 97.355939 
L 150.957446 103.137574 
L 151.223235 105.451927 
L 151.278946 108.919209 
L 151.434623 114.700843 
L 151.703825 120.482478 
L 152.14505 126.264113 
L 152.665828 130.580168 
" style="fill:none;stroke:#440154;stroke-width:1.5;"/>
    <path clip-path="url(#pdeb7fdc69f)" d="M 157.211229 157.17185 
L 158.132682 160.953921 
L 159.347815 164.62511 
L 159.575527 166.735556 
L 160.380565 172.51719 
L 161.751827 178.298825 
L 163.410105 182.956379 
L 163.545799 184.08046 
L 164.353692 189.862094 
L 165.751938 195.643729 
L 167.472395 200.310196 
L 167.615747 201.425364 
L 168.457375 207.206998 
L 169.862059 212.988633 
L 171.534684 217.677606 
" style="fill:none;stroke:#440154;stroke-width:1.5;"/>
   </g>
   <g id="LineCollection_26">
    <path clip-path="url(#pdeb7fdc69f)" d="M 151.461576 62.666131 
L 151.660553 68.447766 
L 151.921214 74.229401 
L 152.25491 80.011035 
L 152.678834 85.79267 
L 153.23484 91.574305 
L 153.981918 97.355939 
L 155.000748 103.137574 
L 155.285525 104.553801 
L 155.447229 108.919209 
L 155.779743 114.700843 
L 156.323821 120.482478 
L 156.346333 120.631541 
" style="fill:none;stroke:#450457;stroke-width:1.5;"/>
    <path clip-path="url(#pdeb7fdc69f)" d="M 161.319262 149.432725 
L 163.06307 155.172286 
L 163.410105 156.21439 
L 163.915493 160.953921 
L 164.888751 166.735556 
L 166.534492 172.51719 
L 167.472395 175.177844 
L 167.837638 178.298825 
L 168.788749 184.08046 
L 170.4343 189.862094 
L 171.534684 192.865278 
" style="fill:none;stroke:#450457;stroke-width:1.5;"/>
   </g>
   <g id="LineCollection_27">
    <path clip-path="url(#pdeb7fdc69f)" d="M 155.301143 62.666131 
L 155.458121 68.447766 
L 155.689045 74.229401 
L 156.028628 80.011035 
L 156.531545 85.79267 
L 157.274771 91.574305 
L 158.359126 97.355939 
L 159.347815 101.381201 
L 159.437544 103.137574 
L 159.525431 104.508326 
" style="fill:none;stroke:#482475;stroke-width:1.5;"/>
    <path clip-path="url(#pdeb7fdc69f)" d="M 164.295496 135.757917 
L 164.571943 137.827382 
L 165.85875 143.609017 
L 167.472395 148.440535 
L 167.571766 149.390652 
L 168.260085 155.172286 
L 169.422625 160.953921 
L 171.37116 166.735556 
L 171.534684 167.202091 
" style="fill:none;stroke:#482475;stroke-width:1.5;"/>
   </g>
   <g id="LineCollection_28">
    <path clip-path="url(#pdeb7fdc69f)" d="M 158.320531 62.666131 
L 159.347815 66.731063 
L 159.421447 68.447766 
L 159.710032 74.229401 
L 160.158181 80.011035 
L 160.853771 85.79267 
L 161.001153 86.593814 
" style="fill:none;stroke:#fde725;stroke-width:1.5;"/>
    <path clip-path="url(#pdeb7fdc69f)" d="M 167.017926 119.49245 
L 167.321165 120.482478 
L 167.472395 120.952784 
L 167.964497 126.264113 
L 168.849441 132.045747 
L 170.349758 137.827382 
L 171.534684 141.280304 
" style="fill:none;stroke:#fde725;stroke-width:1.5;"/>
   </g>
   <g id="line2d_11">
    <path clip-path="url(#pdeb7fdc69f)" d="M 389.780273 19.296 
L 383.714197 29.374021 
L 376.09917 40.602998 
L 368.556806 51.514726 
L 361.081479 64.094756 
L 353.736136 76.382827 
L 346.473195 88.259417 
L 339.302071 100.174073 
L 332.231711 111.531199 
L 325.252099 122.909055 
L 318.39573 133.748372 
L 311.643914 144.518599 
L 304.983822 154.972371 
L 298.451309 165.062722 
L 291.947932 175.189919 
L 285.560034 185.263508 
L 279.307327 194.015295 
L 273.118822 202.774395 
L 267.02684 210.953472 
L 261.03381 218.309689 
L 255.123043 225.108373 
L 249.295108 231.55518 
L 243.571298 237.752728 
L 237.915129 243.337846 
L 232.362363 247.941962 
L 226.863677 252.023674 
L 221.522728 255.428581 
L 216.245783 257.507448 
L 211.002276 259.607612 
L 205.955616 260.683409 
L 200.954701 261.216 
L 195.997207 260.720379 
L 191.154901 260.507174 
L 186.397584 259.453625 
L 181.757059 258.017722 
L 177.161065 255.22384 
L 172.666662 252.132075 
L 168.231777 248.7043 
L 163.697567 242.060492 
L 159.437202 237.826489 
L 155.321456 233.68784 
L 151.248585 228.496925 
L 147.206836 222.473088 
L 143.372847 216.291537 
L 139.534383 210.906177 
L 134.257523 163.778025 
L 130.219768 152.330987 
L 126.535768 146.194214 
L 122.984083 139.701152 
L 119.587884 134.797582 
L 119.253573 134.681171 
L 118.902758 134.412414 
L 118.560669 133.981865 
L 118.221274 133.436698 
L 117.880936 132.927403 
L 117.536711 132.370607 
L 117.209265 131.768847 
L 116.87742 131.129536 
L 116.543352 130.627623 
L 116.212588 130.043961 
L 115.877033 129.43481 
L 115.545603 128.848431 
L 115.218858 128.199632 
L 114.895949 127.606657 
L 114.565507 127.017159 
L 114.242889 126.44424 
L 113.925225 125.93154 
L 113.611216 125.437398 
L 113.288089 124.825712 
L 112.964847 124.312284 
L 112.650947 123.750361 
L 112.333702 123.181592 
L 112.020281 122.655881 
L 111.697738 122.139901 
L 111.3887 121.623604 
L 111.358798 121.588062 
L 111.325533 121.546399 
L 111.292087 121.499053 
L 111.259255 121.432804 
L 111.227852 121.387634 
L 111.19597 121.340074 
L 111.165086 121.296071 
L 111.134346 121.240862 
L 111.101857 121.186969 
L 111.06982 121.132712 
L 111.038743 121.087835 
L 111.007208 121.042742 
L 110.974696 120.998732 
L 110.942794 120.946268 
L 110.911627 120.917236 
L 110.882989 120.873334 
L 110.851685 120.827309 
L 110.818676 120.79267 
L 110.787725 120.751414 
L 110.757619 120.705982 
L 110.726514 120.650612 
L 110.696177 120.611491 
L 110.663867 120.572359 
L 110.63165 120.525825 
" style="fill:none;stroke:#1f77b4;stroke-linecap:square;stroke-width:1.5;"/>
    <defs>
     <path d="M 0 1.5 
C 0.397805 1.5 0.77937 1.341951 1.06066 1.06066 
C 1.341951 0.77937 1.5 0.397805 1.5 0 
C 1.5 -0.397805 1.341951 -0.77937 1.06066 -1.06066 
C 0.77937 -1.341951 0.397805 -1.5 0 -1.5 
C -0.397805 -1.5 -0.77937 -1.341951 -1.06066 -1.06066 
C -1.341951 -0.77937 -1.5 -0.397805 -1.5 0 
C -1.5 0.397805 -1.341951 0.77937 -1.06066 1.06066 
C -0.77937 1.341951 -0.397805 1.5 0 1.5 
z
" id="m3138764b68" style="stroke:#1f77b4;"/>
    </defs>
    <g clip-path="url(#pdeb7fdc69f)">
     <use style="fill:#1f77b4;stroke:#1f77b4;" x="389.780273" xlink:href="#m3138764b68" y="19.296"/>
     <use style="fill:#1f77b4;stroke:#1f77b4;" x="383.714197" xlink:href="#m3138764b68" y="29.374021"/>
     <use style="fill:#1f77b4;stroke:#1f77b4;" x="376.09917" xlink:href="#m3138764b68" y="40.602998"/>
     <use style="fill:#1f77b4;stroke:#1f77b4;" x="368.556806" xlink:href="#m3138764b68" y="51.514726"/>
     <use style="fill:#1f77b4;stroke:#1f77b4;" x="361.081479" xlink:href="#m3138764b68" y="64.094756"/>
     <use style="fill:#1f77b4;stroke:#1f77b4;" x="353.736136" xlink:href="#m3138764b68" y="76.382827"/>
     <use style="fill:#1f77b4;stroke:#1f77b4;" x="346.473195" xlink:href="#m3138764b68" y="88.259417"/>
     <use style="fill:#1f77b4;stroke:#1f77b4;" x="339.302071" xlink:href="#m3138764b68" y="100.174073"/>
     <use style="fill:#1f77b4;stroke:#1f77b4;" x="332.231711" xlink:href="#m3138764b68" y="111.531199"/>
     <use style="fill:#1f77b4;stroke:#1f77b4;" x="325.252099" xlink:href="#m3138764b68" y="122.909055"/>
     <use style="fill:#1f77b4;stroke:#1f77b4;" x="318.39573" xlink:href="#m3138764b68" y="133.748372"/>
     <use style="fill:#1f77b4;stroke:#1f77b4;" x="311.643914" xlink:href="#m3138764b68" y="144.518599"/>
     <use style="fill:#1f77b4;stroke:#1f77b4;" x="304.983822" xlink:href="#m3138764b68" y="154.972371"/>
     <use style="fill:#1f77b4;stroke:#1f77b4;" x="298.451309" xlink:href="#m3138764b68" y="165.062722"/>
     <use style="fill:#1f77b4;stroke:#1f77b4;" x="291.947932" xlink:href="#m3138764b68" y="175.189919"/>
     <use style="fill:#1f77b4;stroke:#1f77b4;" x="285.560034" xlink:href="#m3138764b68" y="185.263508"/>
     <use style="fill:#1f77b4;stroke:#1f77b4;" x="279.307327" xlink:href="#m3138764b68" y="194.015295"/>
     <use style="fill:#1f77b4;stroke:#1f77b4;" x="273.118822" xlink:href="#m3138764b68" y="202.774395"/>
     <use style="fill:#1f77b4;stroke:#1f77b4;" x="267.02684" xlink:href="#m3138764b68" y="210.953472"/>
     <use style="fill:#1f77b4;stroke:#1f77b4;" x="261.03381" xlink:href="#m3138764b68" y="218.309689"/>
     <use style="fill:#1f77b4;stroke:#1f77b4;" x="255.123043" xlink:href="#m3138764b68" y="225.108373"/>
     <use style="fill:#1f77b4;stroke:#1f77b4;" x="249.295108" xlink:href="#m3138764b68" y="231.55518"/>
     <use style="fill:#1f77b4;stroke:#1f77b4;" x="243.571298" xlink:href="#m3138764b68" y="237.752728"/>
     <use style="fill:#1f77b4;stroke:#1f77b4;" x="237.915129" xlink:href="#m3138764b68" y="243.337846"/>
     <use style="fill:#1f77b4;stroke:#1f77b4;" x="232.362363" xlink:href="#m3138764b68" y="247.941962"/>
     <use style="fill:#1f77b4;stroke:#1f77b4;" x="226.863677" xlink:href="#m3138764b68" y="252.023674"/>
     <use style="fill:#1f77b4;stroke:#1f77b4;" x="221.522728" xlink:href="#m3138764b68" y="255.428581"/>
     <use style="fill:#1f77b4;stroke:#1f77b4;" x="216.245783" xlink:href="#m3138764b68" y="257.507448"/>
     <use style="fill:#1f77b4;stroke:#1f77b4;" x="211.002276" xlink:href="#m3138764b68" y="259.607612"/>
     <use style="fill:#1f77b4;stroke:#1f77b4;" x="205.955616" xlink:href="#m3138764b68" y="260.683409"/>
     <use style="fill:#1f77b4;stroke:#1f77b4;" x="200.954701" xlink:href="#m3138764b68" y="261.216"/>
     <use style="fill:#1f77b4;stroke:#1f77b4;" x="195.997207" xlink:href="#m3138764b68" y="260.720379"/>
     <use style="fill:#1f77b4;stroke:#1f77b4;" x="191.154901" xlink:href="#m3138764b68" y="260.507174"/>
     <use style="fill:#1f77b4;stroke:#1f77b4;" x="186.397584" xlink:href="#m3138764b68" y="259.453625"/>
     <use style="fill:#1f77b4;stroke:#1f77b4;" x="181.757059" xlink:href="#m3138764b68" y="258.017722"/>
     <use style="fill:#1f77b4;stroke:#1f77b4;" x="177.161065" xlink:href="#m3138764b68" y="255.22384"/>
     <use style="fill:#1f77b4;stroke:#1f77b4;" x="172.666662" xlink:href="#m3138764b68" y="252.132075"/>
     <use style="fill:#1f77b4;stroke:#1f77b4;" x="168.231777" xlink:href="#m3138764b68" y="248.7043"/>
     <use style="fill:#1f77b4;stroke:#1f77b4;" x="163.697567" xlink:href="#m3138764b68" y="242.060492"/>
     <use style="fill:#1f77b4;stroke:#1f77b4;" x="159.437202" xlink:href="#m3138764b68" y="237.826489"/>
     <use style="fill:#1f77b4;stroke:#1f77b4;" x="155.321456" xlink:href="#m3138764b68" y="233.68784"/>
     <use style="fill:#1f77b4;stroke:#1f77b4;" x="151.248585" xlink:href="#m3138764b68" y="228.496925"/>
     <use style="fill:#1f77b4;stroke:#1f77b4;" x="147.206836" xlink:href="#m3138764b68" y="222.473088"/>
     <use style="fill:#1f77b4;stroke:#1f77b4;" x="143.372847" xlink:href="#m3138764b68" y="216.291537"/>
     <use style="fill:#1f77b4;stroke:#1f77b4;" x="139.534383" xlink:href="#m3138764b68" y="210.906177"/>
     <use style="fill:#1f77b4;stroke:#1f77b4;" x="134.257523" xlink:href="#m3138764b68" y="163.778025"/>
     <use style="fill:#1f77b4;stroke:#1f77b4;" x="130.219768" xlink:href="#m3138764b68" y="152.330987"/>
     <use style="fill:#1f77b4;stroke:#1f77b4;" x="126.535768" xlink:href="#m3138764b68" y="146.194214"/>
     <use style="fill:#1f77b4;stroke:#1f77b4;" x="122.984083" xlink:href="#m3138764b68" y="139.701152"/>
     <use style="fill:#1f77b4;stroke:#1f77b4;" x="119.587884" xlink:href="#m3138764b68" y="134.797582"/>
     <use style="fill:#1f77b4;stroke:#1f77b4;" x="119.253573" xlink:href="#m3138764b68" y="134.681171"/>
     <use style="fill:#1f77b4;stroke:#1f77b4;" x="118.902758" xlink:href="#m3138764b68" y="134.412414"/>
     <use style="fill:#1f77b4;stroke:#1f77b4;" x="118.560669" xlink:href="#m3138764b68" y="133.981865"/>
     <use style="fill:#1f77b4;stroke:#1f77b4;" x="118.221274" xlink:href="#m3138764b68" y="133.436698"/>
     <use style="fill:#1f77b4;stroke:#1f77b4;" x="117.880936" xlink:href="#m3138764b68" y="132.927403"/>
     <use style="fill:#1f77b4;stroke:#1f77b4;" x="117.536711" xlink:href="#m3138764b68" y="132.370607"/>
     <use style="fill:#1f77b4;stroke:#1f77b4;" x="117.209265" xlink:href="#m3138764b68" y="131.768847"/>
     <use style="fill:#1f77b4;stroke:#1f77b4;" x="116.87742" xlink:href="#m3138764b68" y="131.129536"/>
     <use style="fill:#1f77b4;stroke:#1f77b4;" x="116.543352" xlink:href="#m3138764b68" y="130.627623"/>
     <use style="fill:#1f77b4;stroke:#1f77b4;" x="116.212588" xlink:href="#m3138764b68" y="130.043961"/>
     <use style="fill:#1f77b4;stroke:#1f77b4;" x="115.877033" xlink:href="#m3138764b68" y="129.43481"/>
     <use style="fill:#1f77b4;stroke:#1f77b4;" x="115.545603" xlink:href="#m3138764b68" y="128.848431"/>
     <use style="fill:#1f77b4;stroke:#1f77b4;" x="115.218858" xlink:href="#m3138764b68" y="128.199632"/>
     <use style="fill:#1f77b4;stroke:#1f77b4;" x="114.895949" xlink:href="#m3138764b68" y="127.606657"/>
     <use style="fill:#1f77b4;stroke:#1f77b4;" x="114.565507" xlink:href="#m3138764b68" y="127.017159"/>
     <use style="fill:#1f77b4;stroke:#1f77b4;" x="114.242889" xlink:href="#m3138764b68" y="126.44424"/>
     <use style="fill:#1f77b4;stroke:#1f77b4;" x="113.925225" xlink:href="#m3138764b68" y="125.93154"/>
     <use style="fill:#1f77b4;stroke:#1f77b4;" x="113.611216" xlink:href="#m3138764b68" y="125.437398"/>
     <use style="fill:#1f77b4;stroke:#1f77b4;" x="113.288089" xlink:href="#m3138764b68" y="124.825712"/>
     <use style="fill:#1f77b4;stroke:#1f77b4;" x="112.964847" xlink:href="#m3138764b68" y="124.312284"/>
     <use style="fill:#1f77b4;stroke:#1f77b4;" x="112.650947" xlink:href="#m3138764b68" y="123.750361"/>
     <use style="fill:#1f77b4;stroke:#1f77b4;" x="112.333702" xlink:href="#m3138764b68" y="123.181592"/>
     <use style="fill:#1f77b4;stroke:#1f77b4;" x="112.020281" xlink:href="#m3138764b68" y="122.655881"/>
     <use style="fill:#1f77b4;stroke:#1f77b4;" x="111.697738" xlink:href="#m3138764b68" y="122.139901"/>
     <use style="fill:#1f77b4;stroke:#1f77b4;" x="111.3887" xlink:href="#m3138764b68" y="121.623604"/>
     <use style="fill:#1f77b4;stroke:#1f77b4;" x="111.358798" xlink:href="#m3138764b68" y="121.588062"/>
     <use style="fill:#1f77b4;stroke:#1f77b4;" x="111.325533" xlink:href="#m3138764b68" y="121.546399"/>
     <use style="fill:#1f77b4;stroke:#1f77b4;" x="111.292087" xlink:href="#m3138764b68" y="121.499053"/>
     <use style="fill:#1f77b4;stroke:#1f77b4;" x="111.259255" xlink:href="#m3138764b68" y="121.432804"/>
     <use style="fill:#1f77b4;stroke:#1f77b4;" x="111.227852" xlink:href="#m3138764b68" y="121.387634"/>
     <use style="fill:#1f77b4;stroke:#1f77b4;" x="111.19597" xlink:href="#m3138764b68" y="121.340074"/>
     <use style="fill:#1f77b4;stroke:#1f77b4;" x="111.165086" xlink:href="#m3138764b68" y="121.296071"/>
     <use style="fill:#1f77b4;stroke:#1f77b4;" x="111.134346" xlink:href="#m3138764b68" y="121.240862"/>
     <use style="fill:#1f77b4;stroke:#1f77b4;" x="111.101857" xlink:href="#m3138764b68" y="121.186969"/>
     <use style="fill:#1f77b4;stroke:#1f77b4;" x="111.06982" xlink:href="#m3138764b68" y="121.132712"/>
     <use style="fill:#1f77b4;stroke:#1f77b4;" x="111.038743" xlink:href="#m3138764b68" y="121.087835"/>
     <use style="fill:#1f77b4;stroke:#1f77b4;" x="111.007208" xlink:href="#m3138764b68" y="121.042742"/>
     <use style="fill:#1f77b4;stroke:#1f77b4;" x="110.974696" xlink:href="#m3138764b68" y="120.998732"/>
     <use style="fill:#1f77b4;stroke:#1f77b4;" x="110.942794" xlink:href="#m3138764b68" y="120.946268"/>
     <use style="fill:#1f77b4;stroke:#1f77b4;" x="110.911627" xlink:href="#m3138764b68" y="120.917236"/>
     <use style="fill:#1f77b4;stroke:#1f77b4;" x="110.882989" xlink:href="#m3138764b68" y="120.873334"/>
     <use style="fill:#1f77b4;stroke:#1f77b4;" x="110.851685" xlink:href="#m3138764b68" y="120.827309"/>
     <use style="fill:#1f77b4;stroke:#1f77b4;" x="110.818676" xlink:href="#m3138764b68" y="120.79267"/>
     <use style="fill:#1f77b4;stroke:#1f77b4;" x="110.787725" xlink:href="#m3138764b68" y="120.751414"/>
     <use style="fill:#1f77b4;stroke:#1f77b4;" x="110.757619" xlink:href="#m3138764b68" y="120.705982"/>
     <use style="fill:#1f77b4;stroke:#1f77b4;" x="110.726514" xlink:href="#m3138764b68" y="120.650612"/>
     <use style="fill:#1f77b4;stroke:#1f77b4;" x="110.696177" xlink:href="#m3138764b68" y="120.611491"/>
     <use style="fill:#1f77b4;stroke:#1f77b4;" x="110.663867" xlink:href="#m3138764b68" y="120.572359"/>
     <use style="fill:#1f77b4;stroke:#1f77b4;" x="110.63165" xlink:href="#m3138764b68" y="120.525825"/>
    </g>
   </g>
   <g id="patch_3">
    <path d="M 49.665988 273.312 
L 49.665988 7.2 
" style="fill:none;stroke:#000000;stroke-linecap:square;stroke-linejoin:miter;stroke-width:0.8;"/>
   </g>
   <g id="patch_4">
    <path d="M 406.785988 273.312 
L 406.785988 7.2 
" style="fill:none;stroke:#000000;stroke-linecap:square;stroke-linejoin:miter;stroke-width:0.8;"/>
   </g>
   <g id="patch_5">
    <path d="M 49.665987 273.312 
L 406.785988 273.312 
" style="fill:none;stroke:#000000;stroke-linecap:square;stroke-linejoin:miter;stroke-width:0.8;"/>
   </g>
   <g id="patch_6">
    <path d="M 49.665987 7.2 
L 406.785988 7.2 
" style="fill:none;stroke:#000000;stroke-linecap:square;stroke-linejoin:miter;stroke-width:0.8;"/>
   </g>
   <g id="text_13">
    <g clip-path="url(#pdeb7fdc69f)">
     <!-- 2.000 -->
     <g style="fill:#404688;" transform="translate(91.508938 158.191608)rotate(-271.445254)scale(0.06 -0.06)">
      <use xlink:href="#DejaVuSans-50"/>
      <use x="63.623047" xlink:href="#DejaVuSans-46"/>
      <use x="95.410156" xlink:href="#DejaVuSans-48"/>
      <use x="159.033203" xlink:href="#DejaVuSans-48"/>
      <use x="222.65625" xlink:href="#DejaVuSans-48"/>
     </g>
    </g>
   </g>
   <g id="text_14">
    <g clip-path="url(#pdeb7fdc69f)">
     <!-- 2.000 -->
     <g style="fill:#404688;" transform="translate(114.227239 108.27057)rotate(-290.03421)scale(0.06 -0.06)">
      <use xlink:href="#DejaVuSans-50"/>
      <use x="63.623047" xlink:href="#DejaVuSans-46"/>
      <use x="95.410156" xlink:href="#DejaVuSans-48"/>
      <use x="159.033203" xlink:href="#DejaVuSans-48"/>
      <use x="222.65625" xlink:href="#DejaVuSans-48"/>
     </g>
    </g>
   </g>
   <g id="text_15">
    <g clip-path="url(#pdeb7fdc69f)">
     <!-- 2.500 -->
     <g style="fill:#39558c;" transform="translate(141.558802 244.728977)rotate(-89.084116)scale(0.06 -0.06)">
      <use xlink:href="#DejaVuSans-50"/>
      <use x="63.623047" xlink:href="#DejaVuSans-46"/>
      <use x="95.410156" xlink:href="#DejaVuSans-53"/>
      <use x="159.033203" xlink:href="#DejaVuSans-48"/>
      <use x="222.65625" xlink:href="#DejaVuSans-48"/>
     </g>
    </g>
   </g>
   <g id="text_16">
    <g clip-path="url(#pdeb7fdc69f)">
     <!-- 3.000 -->
     <g style="fill:#33638d;" transform="translate(118.565089 107.856984)rotate(-297.602109)scale(0.06 -0.06)">
      <use xlink:href="#DejaVuSans-51"/>
      <use x="63.623047" xlink:href="#DejaVuSans-46"/>
      <use x="95.410156" xlink:href="#DejaVuSans-48"/>
      <use x="159.033203" xlink:href="#DejaVuSans-48"/>
      <use x="222.65625" xlink:href="#DejaVuSans-48"/>
     </g>
    </g>
   </g>
   <g id="text_17">
    <g clip-path="url(#pdeb7fdc69f)">
     <!-- 3.500 -->
     <g style="fill:#2d718e;" transform="translate(119.415516 108.333477)rotate(-302.370992)scale(0.06 -0.06)">
      <use xlink:href="#DejaVuSans-51"/>
      <use x="63.623047" xlink:href="#DejaVuSans-46"/>
      <use x="95.410156" xlink:href="#DejaVuSans-53"/>
      <use x="159.033203" xlink:href="#DejaVuSans-48"/>
      <use x="222.65625" xlink:href="#DejaVuSans-48"/>
     </g>
    </g>
   </g>
   <g id="text_18">
    <g clip-path="url(#pdeb7fdc69f)">
     <!-- 4.000 -->
     <g style="fill:#287d8e;" transform="translate(120.963558 108.197726)rotate(-301.057835)scale(0.06 -0.06)">
      <use xlink:href="#DejaVuSans-52"/>
      <use x="63.623047" xlink:href="#DejaVuSans-46"/>
      <use x="95.410156" xlink:href="#DejaVuSans-48"/>
      <use x="159.033203" xlink:href="#DejaVuSans-48"/>
      <use x="222.65625" xlink:href="#DejaVuSans-48"/>
     </g>
    </g>
   </g>
   <g id="text_19">
    <g clip-path="url(#pdeb7fdc69f)">
     <!-- 4.500 -->
     <g style="fill:#238a8d;" transform="translate(121.636936 108.205759)rotate(-301.136463)scale(0.06 -0.06)">
      <use xlink:href="#DejaVuSans-52"/>
      <use x="63.623047" xlink:href="#DejaVuSans-46"/>
      <use x="95.410156" xlink:href="#DejaVuSans-53"/>
      <use x="159.033203" xlink:href="#DejaVuSans-48"/>
      <use x="222.65625" xlink:href="#DejaVuSans-48"/>
     </g>
    </g>
   </g>
   <g id="text_20">
    <g clip-path="url(#pdeb7fdc69f)">
     <!-- 5.000 -->
     <g style="fill:#1f968b;" transform="translate(122.292434 108.212431)rotate(-301.201675)scale(0.06 -0.06)">
      <use xlink:href="#DejaVuSans-53"/>
      <use x="63.623047" xlink:href="#DejaVuSans-46"/>
      <use x="95.410156" xlink:href="#DejaVuSans-48"/>
      <use x="159.033203" xlink:href="#DejaVuSans-48"/>
      <use x="222.65625" xlink:href="#DejaVuSans-48"/>
     </g>
    </g>
   </g>
   <g id="text_21">
    <g clip-path="url(#pdeb7fdc69f)">
     <!-- 5.500 -->
     <g style="fill:#20a386;" transform="translate(122.875335 108.285644)rotate(-301.911999)scale(0.06 -0.06)">
      <use xlink:href="#DejaVuSans-53"/>
      <use x="63.623047" xlink:href="#DejaVuSans-46"/>
      <use x="95.410156" xlink:href="#DejaVuSans-53"/>
      <use x="159.033203" xlink:href="#DejaVuSans-48"/>
      <use x="222.65625" xlink:href="#DejaVuSans-48"/>
     </g>
    </g>
   </g>
   <g id="text_22">
    <g clip-path="url(#pdeb7fdc69f)">
     <!-- 6.000 -->
     <g style="fill:#29af7f;" transform="translate(123.481418 108.33876)rotate(-302.421441)scale(0.06 -0.06)">
      <use xlink:href="#DejaVuSans-54"/>
      <use x="63.623047" xlink:href="#DejaVuSans-46"/>
      <use x="95.410156" xlink:href="#DejaVuSans-48"/>
      <use x="159.033203" xlink:href="#DejaVuSans-48"/>
      <use x="222.65625" xlink:href="#DejaVuSans-48"/>
     </g>
    </g>
   </g>
   <g id="text_23">
    <g clip-path="url(#pdeb7fdc69f)">
     <!-- 6.500 -->
     <g style="fill:#3dbc74;" transform="translate(145.309735 221.796776)rotate(-271.66333)scale(0.06 -0.06)">
      <use xlink:href="#DejaVuSans-54"/>
      <use x="63.623047" xlink:href="#DejaVuSans-46"/>
      <use x="95.410156" xlink:href="#DejaVuSans-53"/>
      <use x="159.033203" xlink:href="#DejaVuSans-48"/>
      <use x="222.65625" xlink:href="#DejaVuSans-48"/>
     </g>
    </g>
   </g>
   <g id="text_24">
    <g clip-path="url(#pdeb7fdc69f)">
     <!-- 7.000 -->
     <g style="fill:#56c667;" transform="translate(125.566586 107.699738)rotate(-295.916513)scale(0.06 -0.06)">
      <defs>
       <path d="M 8.203125 72.90625 
L 55.078125 72.90625 
L 55.078125 68.703125 
L 28.609375 0 
L 18.3125 0 
L 43.21875 64.59375 
L 8.203125 64.59375 
z
" id="DejaVuSans-55"/>
      </defs>
      <use xlink:href="#DejaVuSans-55"/>
      <use x="63.623047" xlink:href="#DejaVuSans-46"/>
      <use x="95.410156" xlink:href="#DejaVuSans-48"/>
      <use x="159.033203" xlink:href="#DejaVuSans-48"/>
      <use x="222.65625" xlink:href="#DejaVuSans-48"/>
     </g>
    </g>
   </g>
   <g id="text_25">
    <g clip-path="url(#pdeb7fdc69f)">
     <!-- 7.500 -->
     <g style="fill:#75d054;" transform="translate(125.640397 106.889831)rotate(-296.150892)scale(0.06 -0.06)">
      <use xlink:href="#DejaVuSans-55"/>
      <use x="63.623047" xlink:href="#DejaVuSans-46"/>
      <use x="95.410156" xlink:href="#DejaVuSans-53"/>
      <use x="159.033203" xlink:href="#DejaVuSans-48"/>
      <use x="222.65625" xlink:href="#DejaVuSans-48"/>
     </g>
    </g>
   </g>
   <g id="text_26">
    <g clip-path="url(#pdeb7fdc69f)">
     <!-- 8.000 -->
     <g style="fill:#95d840;" transform="translate(125.574 105.957158)rotate(-296.697926)scale(0.06 -0.06)">
      <defs>
       <path d="M 31.78125 34.625 
Q 24.75 34.625 20.71875 30.859375 
Q 16.703125 27.09375 16.703125 20.515625 
Q 16.703125 13.921875 20.71875 10.15625 
Q 24.75 6.390625 31.78125 6.390625 
Q 38.8125 6.390625 42.859375 10.171875 
Q 46.921875 13.96875 46.921875 20.515625 
Q 46.921875 27.09375 42.890625 30.859375 
Q 38.875 34.625 31.78125 34.625 
z
M 21.921875 38.8125 
Q 15.578125 40.375 12.03125 44.71875 
Q 8.5 49.078125 8.5 55.328125 
Q 8.5 64.0625 14.71875 69.140625 
Q 20.953125 74.21875 31.78125 74.21875 
Q 42.671875 74.21875 48.875 69.140625 
Q 55.078125 64.0625 55.078125 55.328125 
Q 55.078125 49.078125 51.53125 44.71875 
Q 48 40.375 41.703125 38.8125 
Q 48.828125 37.15625 52.796875 32.3125 
Q 56.78125 27.484375 56.78125 20.515625 
Q 56.78125 9.90625 50.3125 4.234375 
Q 43.84375 -1.421875 31.78125 -1.421875 
Q 19.734375 -1.421875 13.25 4.234375 
Q 6.78125 9.90625 6.78125 20.515625 
Q 6.78125 27.484375 10.78125 32.3125 
Q 14.796875 37.15625 21.921875 38.8125 
z
M 18.3125 54.390625 
Q 18.3125 48.734375 21.84375 45.5625 
Q 25.390625 42.390625 31.78125 42.390625 
Q 38.140625 42.390625 41.71875 45.5625 
Q 45.3125 48.734375 45.3125 54.390625 
Q 45.3125 60.0625 41.71875 63.234375 
Q 38.140625 66.40625 31.78125 66.40625 
Q 25.390625 66.40625 21.84375 63.234375 
Q 18.3125 60.0625 18.3125 54.390625 
z
" id="DejaVuSans-56"/>
      </defs>
      <use xlink:href="#DejaVuSans-56"/>
      <use x="63.623047" xlink:href="#DejaVuSans-46"/>
      <use x="95.410156" xlink:href="#DejaVuSans-48"/>
      <use x="159.033203" xlink:href="#DejaVuSans-48"/>
      <use x="222.65625" xlink:href="#DejaVuSans-48"/>
     </g>
    </g>
   </g>
   <g id="text_27">
    <g clip-path="url(#pdeb7fdc69f)">
     <!-- 8.500 -->
     <g style="fill:#bade28;" transform="translate(125.515786 105.019076)rotate(-297.180878)scale(0.06 -0.06)">
      <use xlink:href="#DejaVuSans-56"/>
      <use x="63.623047" xlink:href="#DejaVuSans-46"/>
      <use x="95.410156" xlink:href="#DejaVuSans-53"/>
      <use x="159.033203" xlink:href="#DejaVuSans-48"/>
      <use x="222.65625" xlink:href="#DejaVuSans-48"/>
     </g>
    </g>
   </g>
   <g id="text_28">
    <g clip-path="url(#pdeb7fdc69f)">
     <!-- 9.000 -->
     <g style="fill:#dde318;" transform="translate(125.404231 104.12468)rotate(-298.115405)scale(0.06 -0.06)">
      <use xlink:href="#DejaVuSans-57"/>
      <use x="63.623047" xlink:href="#DejaVuSans-46"/>
      <use x="95.410156" xlink:href="#DejaVuSans-48"/>
      <use x="159.033203" xlink:href="#DejaVuSans-48"/>
      <use x="222.65625" xlink:href="#DejaVuSans-48"/>
     </g>
    </g>
   </g>
   <g id="text_29">
    <g clip-path="url(#pdeb7fdc69f)">
     <!-- 9.500 -->
     <g style="fill:#fde725;" transform="translate(125.245993 103.272733)rotate(-299.462679)scale(0.06 -0.06)">
      <use xlink:href="#DejaVuSans-57"/>
      <use x="63.623047" xlink:href="#DejaVuSans-46"/>
      <use x="95.410156" xlink:href="#DejaVuSans-53"/>
      <use x="159.033203" xlink:href="#DejaVuSans-48"/>
      <use x="222.65625" xlink:href="#DejaVuSans-48"/>
     </g>
    </g>
   </g>
   <g id="text_30">
    <g clip-path="url(#pdeb7fdc69f)">
     <!-- 10.000 -->
     <g style="fill:#440154;" transform="translate(130.063916 110.141404)rotate(-274.356942)scale(0.06 -0.06)">
      <use xlink:href="#DejaVuSans-49"/>
      <use x="63.623047" xlink:href="#DejaVuSans-48"/>
      <use x="127.246094" xlink:href="#DejaVuSans-46"/>
      <use x="159.033203" xlink:href="#DejaVuSans-48"/>
      <use x="222.65625" xlink:href="#DejaVuSans-48"/>
      <use x="286.279297" xlink:href="#DejaVuSans-48"/>
     </g>
    </g>
   </g>
   <g id="text_31">
    <g clip-path="url(#pdeb7fdc69f)">
     <!-- 100.000 -->
     <g style="fill:#440154;" transform="translate(136.1562 119.772564)rotate(-273.701262)scale(0.06 -0.06)">
      <use xlink:href="#DejaVuSans-49"/>
      <use x="63.623047" xlink:href="#DejaVuSans-48"/>
      <use x="127.246094" xlink:href="#DejaVuSans-48"/>
      <use x="190.869141" xlink:href="#DejaVuSans-46"/>
      <use x="222.65625" xlink:href="#DejaVuSans-48"/>
      <use x="286.279297" xlink:href="#DejaVuSans-48"/>
      <use x="349.902344" xlink:href="#DejaVuSans-48"/>
     </g>
    </g>
   </g>
   <g id="text_32">
    <g clip-path="url(#pdeb7fdc69f)">
     <!-- 1000.000 -->
     <g style="fill:#440154;" transform="translate(140.930003 146.295878)rotate(-289.022536)scale(0.06 -0.06)">
      <use xlink:href="#DejaVuSans-49"/>
      <use x="63.623047" xlink:href="#DejaVuSans-48"/>
      <use x="127.246094" xlink:href="#DejaVuSans-48"/>
      <use x="190.869141" xlink:href="#DejaVuSans-48"/>
      <use x="254.492188" xlink:href="#DejaVuSans-46"/>
      <use x="286.279297" xlink:href="#DejaVuSans-48"/>
      <use x="349.902344" xlink:href="#DejaVuSans-48"/>
      <use x="413.525391" xlink:href="#DejaVuSans-48"/>
     </g>
    </g>
   </g>
   <g id="text_33">
    <g clip-path="url(#pdeb7fdc69f)">
     <!-- 10000.000 -->
     <g style="fill:#440154;" transform="translate(144.880792 140.280322)rotate(-288.223621)scale(0.06 -0.06)">
      <use xlink:href="#DejaVuSans-49"/>
      <use x="63.623047" xlink:href="#DejaVuSans-48"/>
      <use x="127.246094" xlink:href="#DejaVuSans-48"/>
      <use x="190.869141" xlink:href="#DejaVuSans-48"/>
      <use x="254.492188" xlink:href="#DejaVuSans-48"/>
      <use x="318.115234" xlink:href="#DejaVuSans-46"/>
      <use x="349.902344" xlink:href="#DejaVuSans-48"/>
      <use x="413.525391" xlink:href="#DejaVuSans-48"/>
      <use x="477.148438" xlink:href="#DejaVuSans-48"/>
     </g>
    </g>
   </g>
   <g id="text_34">
    <g clip-path="url(#pdeb7fdc69f)">
     <!-- 100000.000 -->
     <g style="fill:#440154;" transform="translate(148.258379 126.840055)rotate(-287.712203)scale(0.06 -0.06)">
      <use xlink:href="#DejaVuSans-49"/>
      <use x="63.623047" xlink:href="#DejaVuSans-48"/>
      <use x="127.246094" xlink:href="#DejaVuSans-48"/>
      <use x="190.869141" xlink:href="#DejaVuSans-48"/>
      <use x="254.492188" xlink:href="#DejaVuSans-48"/>
      <use x="318.115234" xlink:href="#DejaVuSans-48"/>
      <use x="381.738281" xlink:href="#DejaVuSans-46"/>
      <use x="413.525391" xlink:href="#DejaVuSans-48"/>
      <use x="477.148438" xlink:href="#DejaVuSans-48"/>
      <use x="540.771484" xlink:href="#DejaVuSans-48"/>
     </g>
    </g>
   </g>
   <g id="text_35">
    <g clip-path="url(#pdeb7fdc69f)">
     <!-- 1000000.000 -->
     <g style="fill:#450457;" transform="translate(151.47483 116.196293)rotate(-288.325973)scale(0.06 -0.06)">
      <use xlink:href="#DejaVuSans-49"/>
      <use x="63.623047" xlink:href="#DejaVuSans-48"/>
      <use x="127.246094" xlink:href="#DejaVuSans-48"/>
      <use x="190.869141" xlink:href="#DejaVuSans-48"/>
      <use x="254.492188" xlink:href="#DejaVuSans-48"/>
      <use x="318.115234" xlink:href="#DejaVuSans-48"/>
      <use x="381.738281" xlink:href="#DejaVuSans-48"/>
      <use x="445.361328" xlink:href="#DejaVuSans-46"/>
      <use x="477.148438" xlink:href="#DejaVuSans-48"/>
      <use x="540.771484" xlink:href="#DejaVuSans-48"/>
      <use x="604.394531" xlink:href="#DejaVuSans-48"/>
     </g>
    </g>
   </g>
   <g id="text_36">
    <g clip-path="url(#pdeb7fdc69f)">
     <!-- 10000000.000 -->
     <g style="fill:#482475;" transform="translate(153.338244 100.00312)rotate(-287.193767)scale(0.06 -0.06)">
      <use xlink:href="#DejaVuSans-49"/>
      <use x="63.623047" xlink:href="#DejaVuSans-48"/>
      <use x="127.246094" xlink:href="#DejaVuSans-48"/>
      <use x="190.869141" xlink:href="#DejaVuSans-48"/>
      <use x="254.492188" xlink:href="#DejaVuSans-48"/>
      <use x="318.115234" xlink:href="#DejaVuSans-48"/>
      <use x="381.738281" xlink:href="#DejaVuSans-48"/>
      <use x="445.361328" xlink:href="#DejaVuSans-48"/>
      <use x="508.984375" xlink:href="#DejaVuSans-46"/>
      <use x="540.771484" xlink:href="#DejaVuSans-48"/>
      <use x="604.394531" xlink:href="#DejaVuSans-48"/>
      <use x="668.017578" xlink:href="#DejaVuSans-48"/>
     </g>
    </g>
   </g>
   <g id="text_37">
    <g clip-path="url(#pdeb7fdc69f)">
     <!-- 100000000.000 -->
     <g style="fill:#fde725;" transform="translate(154.729442 81.020177)rotate(-288.391851)scale(0.06 -0.06)">
      <use xlink:href="#DejaVuSans-49"/>
      <use x="63.623047" xlink:href="#DejaVuSans-48"/>
      <use x="127.246094" xlink:href="#DejaVuSans-48"/>
      <use x="190.869141" xlink:href="#DejaVuSans-48"/>
      <use x="254.492188" xlink:href="#DejaVuSans-48"/>
      <use x="318.115234" xlink:href="#DejaVuSans-48"/>
      <use x="381.738281" xlink:href="#DejaVuSans-48"/>
      <use x="445.361328" xlink:href="#DejaVuSans-48"/>
      <use x="508.984375" xlink:href="#DejaVuSans-48"/>
      <use x="572.607422" xlink:href="#DejaVuSans-46"/>
      <use x="604.394531" xlink:href="#DejaVuSans-48"/>
      <use x="668.017578" xlink:href="#DejaVuSans-48"/>
      <use x="731.640625" xlink:href="#DejaVuSans-48"/>
     </g>
    </g>
   </g>
  </g>
 </g>
 <defs>
  <clipPath id="pdeb7fdc69f">
   <rect height="266.112" width="357.12" x="49.665988" y="7.2"/>
  </clipPath>
 </defs>
</svg>
