<?xml version="1.0" encoding="utf-8" standalone="no"?>
<!DOCTYPE svg PUBLIC "-//W3C//DTD SVG 1.1//EN"
  "http://www.w3.org/Graphics/SVG/1.1/DTD/svg11.dtd">
<!-- Created with matplotlib (https://matplotlib.org/) -->
<svg height="317.913925pt" version="1.1" viewBox="0 0 413.985987 317.913925" width="413.985987pt" xmlns="http://www.w3.org/2000/svg" xmlns:xlink="http://www.w3.org/1999/xlink">
 <metadata>
  <rdf:RDF xmlns:cc="http://creativecommons.org/ns#" xmlns:dc="http://purl.org/dc/elements/1.1/" xmlns:rdf="http://www.w3.org/1999/02/22-rdf-syntax-ns#">
   <cc:Work>
    <dc:type rdf:resource="http://purl.org/dc/dcmitype/StillImage"/>
    <dc:date>2021-09-17T20:18:15.990253</dc:date>
    <dc:format>image/svg+xml</dc:format>
    <dc:creator>
     <cc:Agent>
      <dc:title>Matplotlib v3.3.1, https://matplotlib.org/</dc:title>
     </cc:Agent>
    </dc:creator>
   </cc:Work>
  </rdf:RDF>
 </metadata>
 <defs>
  <style type="text/css">*{stroke-linecap:butt;stroke-linejoin:round;}</style>
 </defs>
 <g id="figure_1">
  <g id="patch_1">
   <path d="M 0 317.913925 
L 413.985987 317.913925 
L 413.985987 0 
L 0 0 
z
" style="fill:#ffffff;"/>
  </g>
  <g id="axes_1">
   <g id="patch_2">
    <path d="M 49.665988 273.312 
L 406.785988 273.312 
L 406.785988 7.2 
L 49.665988 7.2 
z
" style="fill:#ffffff;"/>
   </g>
   <g id="matplotlib.axis_1">
    <g id="xtick_1">
     <g id="line2d_1">
      <defs>
       <path d="M 0 0 
L 0 3.5 
" id="mc2350e6db9" style="stroke:#000000;stroke-width:0.8;"/>
      </defs>
      <g>
       <use style="stroke:#000000;stroke-width:0.8;" x="49.665988" xlink:href="#mc2350e6db9" y="273.312"/>
      </g>
     </g>
     <g id="text_1">
      <!-- −10 -->
      <g transform="translate(39.113644 287.910437)scale(0.1 -0.1)">
       <defs>
        <path d="M 10.59375 35.5 
L 73.1875 35.5 
L 73.1875 27.203125 
L 10.59375 27.203125 
z
" id="DejaVuSans-8722"/>
        <path d="M 12.40625 8.296875 
L 28.515625 8.296875 
L 28.515625 63.921875 
L 10.984375 60.40625 
L 10.984375 69.390625 
L 28.421875 72.90625 
L 38.28125 72.90625 
L 38.28125 8.296875 
L 54.390625 8.296875 
L 54.390625 0 
L 12.40625 0 
z
" id="DejaVuSans-49"/>
        <path d="M 31.78125 66.40625 
Q 24.171875 66.40625 20.328125 58.90625 
Q 16.5 51.421875 16.5 36.375 
Q 16.5 21.390625 20.328125 13.890625 
Q 24.171875 6.390625 31.78125 6.390625 
Q 39.453125 6.390625 43.28125 13.890625 
Q 47.125 21.390625 47.125 36.375 
Q 47.125 51.421875 43.28125 58.90625 
Q 39.453125 66.40625 31.78125 66.40625 
z
M 31.78125 74.21875 
Q 44.046875 74.21875 50.515625 64.515625 
Q 56.984375 54.828125 56.984375 36.375 
Q 56.984375 17.96875 50.515625 8.265625 
Q 44.046875 -1.421875 31.78125 -1.421875 
Q 19.53125 -1.421875 13.0625 8.265625 
Q 6.59375 17.96875 6.59375 36.375 
Q 6.59375 54.828125 13.0625 64.515625 
Q 19.53125 74.21875 31.78125 74.21875 
z
" id="DejaVuSans-48"/>
       </defs>
       <use xlink:href="#DejaVuSans-8722"/>
       <use x="83.789062" xlink:href="#DejaVuSans-49"/>
       <use x="147.412109" xlink:href="#DejaVuSans-48"/>
      </g>
     </g>
    </g>
    <g id="xtick_2">
     <g id="line2d_2">
      <g>
       <use style="stroke:#000000;stroke-width:0.8;" x="94.935954" xlink:href="#mc2350e6db9" y="273.312"/>
      </g>
     </g>
     <g id="text_2">
      <!-- 0 -->
      <g transform="translate(91.754704 287.910437)scale(0.1 -0.1)">
       <use xlink:href="#DejaVuSans-48"/>
      </g>
     </g>
    </g>
    <g id="xtick_3">
     <g id="line2d_3">
      <g>
       <use style="stroke:#000000;stroke-width:0.8;" x="140.205921" xlink:href="#mc2350e6db9" y="273.312"/>
      </g>
     </g>
     <g id="text_3">
      <!-- 10 -->
      <g transform="translate(133.843421 287.910437)scale(0.1 -0.1)">
       <use xlink:href="#DejaVuSans-49"/>
       <use x="63.623047" xlink:href="#DejaVuSans-48"/>
      </g>
     </g>
    </g>
    <g id="xtick_4">
     <g id="line2d_4">
      <g>
       <use style="stroke:#000000;stroke-width:0.8;" x="185.475888" xlink:href="#mc2350e6db9" y="273.312"/>
      </g>
     </g>
     <g id="text_4">
      <!-- 20 -->
      <g transform="translate(179.113388 287.910437)scale(0.1 -0.1)">
       <defs>
        <path d="M 19.1875 8.296875 
L 53.609375 8.296875 
L 53.609375 0 
L 7.328125 0 
L 7.328125 8.296875 
Q 12.9375 14.109375 22.625 23.890625 
Q 32.328125 33.6875 34.8125 36.53125 
Q 39.546875 41.84375 41.421875 45.53125 
Q 43.3125 49.21875 43.3125 52.78125 
Q 43.3125 58.59375 39.234375 62.25 
Q 35.15625 65.921875 28.609375 65.921875 
Q 23.96875 65.921875 18.8125 64.3125 
Q 13.671875 62.703125 7.8125 59.421875 
L 7.8125 69.390625 
Q 13.765625 71.78125 18.9375 73 
Q 24.125 74.21875 28.421875 74.21875 
Q 39.75 74.21875 46.484375 68.546875 
Q 53.21875 62.890625 53.21875 53.421875 
Q 53.21875 48.921875 51.53125 44.890625 
Q 49.859375 40.875 45.40625 35.40625 
Q 44.1875 33.984375 37.640625 27.21875 
Q 31.109375 20.453125 19.1875 8.296875 
z
" id="DejaVuSans-50"/>
       </defs>
       <use xlink:href="#DejaVuSans-50"/>
       <use x="63.623047" xlink:href="#DejaVuSans-48"/>
      </g>
     </g>
    </g>
    <g id="xtick_5">
     <g id="line2d_5">
      <g>
       <use style="stroke:#000000;stroke-width:0.8;" x="230.745855" xlink:href="#mc2350e6db9" y="273.312"/>
      </g>
     </g>
     <g id="text_5">
      <!-- 30 -->
      <g transform="translate(224.383355 287.910437)scale(0.1 -0.1)">
       <defs>
        <path d="M 40.578125 39.3125 
Q 47.65625 37.796875 51.625 33 
Q 55.609375 28.21875 55.609375 21.1875 
Q 55.609375 10.40625 48.1875 4.484375 
Q 40.765625 -1.421875 27.09375 -1.421875 
Q 22.515625 -1.421875 17.65625 -0.515625 
Q 12.796875 0.390625 7.625 2.203125 
L 7.625 11.71875 
Q 11.71875 9.328125 16.59375 8.109375 
Q 21.484375 6.890625 26.8125 6.890625 
Q 36.078125 6.890625 40.9375 10.546875 
Q 45.796875 14.203125 45.796875 21.1875 
Q 45.796875 27.640625 41.28125 31.265625 
Q 36.765625 34.90625 28.71875 34.90625 
L 20.21875 34.90625 
L 20.21875 43.015625 
L 29.109375 43.015625 
Q 36.375 43.015625 40.234375 45.921875 
Q 44.09375 48.828125 44.09375 54.296875 
Q 44.09375 59.90625 40.109375 62.90625 
Q 36.140625 65.921875 28.71875 65.921875 
Q 24.65625 65.921875 20.015625 65.03125 
Q 15.375 64.15625 9.8125 62.3125 
L 9.8125 71.09375 
Q 15.4375 72.65625 20.34375 73.4375 
Q 25.25 74.21875 29.59375 74.21875 
Q 40.828125 74.21875 47.359375 69.109375 
Q 53.90625 64.015625 53.90625 55.328125 
Q 53.90625 49.265625 50.4375 45.09375 
Q 46.96875 40.921875 40.578125 39.3125 
z
" id="DejaVuSans-51"/>
       </defs>
       <use xlink:href="#DejaVuSans-51"/>
       <use x="63.623047" xlink:href="#DejaVuSans-48"/>
      </g>
     </g>
    </g>
    <g id="xtick_6">
     <g id="line2d_6">
      <g>
       <use style="stroke:#000000;stroke-width:0.8;" x="276.015822" xlink:href="#mc2350e6db9" y="273.312"/>
      </g>
     </g>
     <g id="text_6">
      <!-- 40 -->
      <g transform="translate(269.653322 287.910437)scale(0.1 -0.1)">
       <defs>
        <path d="M 37.796875 64.3125 
L 12.890625 25.390625 
L 37.796875 25.390625 
z
M 35.203125 72.90625 
L 47.609375 72.90625 
L 47.609375 25.390625 
L 58.015625 25.390625 
L 58.015625 17.1875 
L 47.609375 17.1875 
L 47.609375 0 
L 37.796875 0 
L 37.796875 17.1875 
L 4.890625 17.1875 
L 4.890625 26.703125 
z
" id="DejaVuSans-52"/>
       </defs>
       <use xlink:href="#DejaVuSans-52"/>
       <use x="63.623047" xlink:href="#DejaVuSans-48"/>
      </g>
     </g>
    </g>
    <g id="xtick_7">
     <g id="line2d_7">
      <g>
       <use style="stroke:#000000;stroke-width:0.8;" x="321.285789" xlink:href="#mc2350e6db9" y="273.312"/>
      </g>
     </g>
     <g id="text_7">
      <!-- 50 -->
      <g transform="translate(314.923289 287.910437)scale(0.1 -0.1)">
       <defs>
        <path d="M 10.796875 72.90625 
L 49.515625 72.90625 
L 49.515625 64.59375 
L 19.828125 64.59375 
L 19.828125 46.734375 
Q 21.96875 47.46875 24.109375 47.828125 
Q 26.265625 48.1875 28.421875 48.1875 
Q 40.625 48.1875 47.75 41.5 
Q 54.890625 34.8125 54.890625 23.390625 
Q 54.890625 11.625 47.5625 5.09375 
Q 40.234375 -1.421875 26.90625 -1.421875 
Q 22.3125 -1.421875 17.546875 -0.640625 
Q 12.796875 0.140625 7.71875 1.703125 
L 7.71875 11.625 
Q 12.109375 9.234375 16.796875 8.0625 
Q 21.484375 6.890625 26.703125 6.890625 
Q 35.15625 6.890625 40.078125 11.328125 
Q 45.015625 15.765625 45.015625 23.390625 
Q 45.015625 31 40.078125 35.4375 
Q 35.15625 39.890625 26.703125 39.890625 
Q 22.75 39.890625 18.8125 39.015625 
Q 14.890625 38.140625 10.796875 36.28125 
z
" id="DejaVuSans-53"/>
       </defs>
       <use xlink:href="#DejaVuSans-53"/>
       <use x="63.623047" xlink:href="#DejaVuSans-48"/>
      </g>
     </g>
    </g>
    <g id="xtick_8">
     <g id="line2d_8">
      <g>
       <use style="stroke:#000000;stroke-width:0.8;" x="366.555756" xlink:href="#mc2350e6db9" y="273.312"/>
      </g>
     </g>
     <g id="text_8">
      <!-- 60 -->
      <g transform="translate(360.193256 287.910437)scale(0.1 -0.1)">
       <defs>
        <path d="M 33.015625 40.375 
Q 26.375 40.375 22.484375 35.828125 
Q 18.609375 31.296875 18.609375 23.390625 
Q 18.609375 15.53125 22.484375 10.953125 
Q 26.375 6.390625 33.015625 6.390625 
Q 39.65625 6.390625 43.53125 10.953125 
Q 47.40625 15.53125 47.40625 23.390625 
Q 47.40625 31.296875 43.53125 35.828125 
Q 39.65625 40.375 33.015625 40.375 
z
M 52.59375 71.296875 
L 52.59375 62.3125 
Q 48.875 64.0625 45.09375 64.984375 
Q 41.3125 65.921875 37.59375 65.921875 
Q 27.828125 65.921875 22.671875 59.328125 
Q 17.53125 52.734375 16.796875 39.40625 
Q 19.671875 43.65625 24.015625 45.921875 
Q 28.375 48.1875 33.59375 48.1875 
Q 44.578125 48.1875 50.953125 41.515625 
Q 57.328125 34.859375 57.328125 23.390625 
Q 57.328125 12.15625 50.6875 5.359375 
Q 44.046875 -1.421875 33.015625 -1.421875 
Q 20.359375 -1.421875 13.671875 8.265625 
Q 6.984375 17.96875 6.984375 36.375 
Q 6.984375 53.65625 15.1875 63.9375 
Q 23.390625 74.21875 37.203125 74.21875 
Q 40.921875 74.21875 44.703125 73.484375 
Q 48.484375 72.75 52.59375 71.296875 
z
" id="DejaVuSans-54"/>
       </defs>
       <use xlink:href="#DejaVuSans-54"/>
       <use x="63.623047" xlink:href="#DejaVuSans-48"/>
      </g>
     </g>
    </g>
    <g id="text_9">
     <!-- 1st PC: 98.74 % -->
     <g transform="translate(159.505587 307.120225)scale(0.1728 -0.1728)">
      <defs>
       <path d="M 44.28125 53.078125 
L 44.28125 44.578125 
Q 40.484375 46.53125 36.375 47.5 
Q 32.28125 48.484375 27.875 48.484375 
Q 21.1875 48.484375 17.84375 46.4375 
Q 14.5 44.390625 14.5 40.28125 
Q 14.5 37.15625 16.890625 35.375 
Q 19.28125 33.59375 26.515625 31.984375 
L 29.59375 31.296875 
Q 39.15625 29.25 43.1875 25.515625 
Q 47.21875 21.78125 47.21875 15.09375 
Q 47.21875 7.46875 41.1875 3.015625 
Q 35.15625 -1.421875 24.609375 -1.421875 
Q 20.21875 -1.421875 15.453125 -0.5625 
Q 10.6875 0.296875 5.421875 2 
L 5.421875 11.28125 
Q 10.40625 8.6875 15.234375 7.390625 
Q 20.0625 6.109375 24.8125 6.109375 
Q 31.15625 6.109375 34.5625 8.28125 
Q 37.984375 10.453125 37.984375 14.40625 
Q 37.984375 18.0625 35.515625 20.015625 
Q 33.0625 21.96875 24.703125 23.78125 
L 21.578125 24.515625 
Q 13.234375 26.265625 9.515625 29.90625 
Q 5.8125 33.546875 5.8125 39.890625 
Q 5.8125 47.609375 11.28125 51.796875 
Q 16.75 56 26.8125 56 
Q 31.78125 56 36.171875 55.265625 
Q 40.578125 54.546875 44.28125 53.078125 
z
" id="DejaVuSans-115"/>
       <path d="M 18.3125 70.21875 
L 18.3125 54.6875 
L 36.8125 54.6875 
L 36.8125 47.703125 
L 18.3125 47.703125 
L 18.3125 18.015625 
Q 18.3125 11.328125 20.140625 9.421875 
Q 21.96875 7.515625 27.59375 7.515625 
L 36.8125 7.515625 
L 36.8125 0 
L 27.59375 0 
Q 17.1875 0 13.234375 3.875 
Q 9.28125 7.765625 9.28125 18.015625 
L 9.28125 47.703125 
L 2.6875 47.703125 
L 2.6875 54.6875 
L 9.28125 54.6875 
L 9.28125 70.21875 
z
" id="DejaVuSans-116"/>
       <path id="DejaVuSans-32"/>
       <path d="M 19.671875 64.796875 
L 19.671875 37.40625 
L 32.078125 37.40625 
Q 38.96875 37.40625 42.71875 40.96875 
Q 46.484375 44.53125 46.484375 51.125 
Q 46.484375 57.671875 42.71875 61.234375 
Q 38.96875 64.796875 32.078125 64.796875 
z
M 9.8125 72.90625 
L 32.078125 72.90625 
Q 44.34375 72.90625 50.609375 67.359375 
Q 56.890625 61.8125 56.890625 51.125 
Q 56.890625 40.328125 50.609375 34.8125 
Q 44.34375 29.296875 32.078125 29.296875 
L 19.671875 29.296875 
L 19.671875 0 
L 9.8125 0 
z
" id="DejaVuSans-80"/>
       <path d="M 64.40625 67.28125 
L 64.40625 56.890625 
Q 59.421875 61.53125 53.78125 63.8125 
Q 48.140625 66.109375 41.796875 66.109375 
Q 29.296875 66.109375 22.65625 58.46875 
Q 16.015625 50.828125 16.015625 36.375 
Q 16.015625 21.96875 22.65625 14.328125 
Q 29.296875 6.6875 41.796875 6.6875 
Q 48.140625 6.6875 53.78125 8.984375 
Q 59.421875 11.28125 64.40625 15.921875 
L 64.40625 5.609375 
Q 59.234375 2.09375 53.4375 0.328125 
Q 47.65625 -1.421875 41.21875 -1.421875 
Q 24.65625 -1.421875 15.125 8.703125 
Q 5.609375 18.84375 5.609375 36.375 
Q 5.609375 53.953125 15.125 64.078125 
Q 24.65625 74.21875 41.21875 74.21875 
Q 47.75 74.21875 53.53125 72.484375 
Q 59.328125 70.75 64.40625 67.28125 
z
" id="DejaVuSans-67"/>
       <path d="M 11.71875 12.40625 
L 22.015625 12.40625 
L 22.015625 0 
L 11.71875 0 
z
M 11.71875 51.703125 
L 22.015625 51.703125 
L 22.015625 39.3125 
L 11.71875 39.3125 
z
" id="DejaVuSans-58"/>
       <path d="M 10.984375 1.515625 
L 10.984375 10.5 
Q 14.703125 8.734375 18.5 7.8125 
Q 22.3125 6.890625 25.984375 6.890625 
Q 35.75 6.890625 40.890625 13.453125 
Q 46.046875 20.015625 46.78125 33.40625 
Q 43.953125 29.203125 39.59375 26.953125 
Q 35.25 24.703125 29.984375 24.703125 
Q 19.046875 24.703125 12.671875 31.3125 
Q 6.296875 37.9375 6.296875 49.421875 
Q 6.296875 60.640625 12.9375 67.421875 
Q 19.578125 74.21875 30.609375 74.21875 
Q 43.265625 74.21875 49.921875 64.515625 
Q 56.59375 54.828125 56.59375 36.375 
Q 56.59375 19.140625 48.40625 8.859375 
Q 40.234375 -1.421875 26.421875 -1.421875 
Q 22.703125 -1.421875 18.890625 -0.6875 
Q 15.09375 0.046875 10.984375 1.515625 
z
M 30.609375 32.421875 
Q 37.25 32.421875 41.125 36.953125 
Q 45.015625 41.5 45.015625 49.421875 
Q 45.015625 57.28125 41.125 61.84375 
Q 37.25 66.40625 30.609375 66.40625 
Q 23.96875 66.40625 20.09375 61.84375 
Q 16.21875 57.28125 16.21875 49.421875 
Q 16.21875 41.5 20.09375 36.953125 
Q 23.96875 32.421875 30.609375 32.421875 
z
" id="DejaVuSans-57"/>
       <path d="M 31.78125 34.625 
Q 24.75 34.625 20.71875 30.859375 
Q 16.703125 27.09375 16.703125 20.515625 
Q 16.703125 13.921875 20.71875 10.15625 
Q 24.75 6.390625 31.78125 6.390625 
Q 38.8125 6.390625 42.859375 10.171875 
Q 46.921875 13.96875 46.921875 20.515625 
Q 46.921875 27.09375 42.890625 30.859375 
Q 38.875 34.625 31.78125 34.625 
z
M 21.921875 38.8125 
Q 15.578125 40.375 12.03125 44.71875 
Q 8.5 49.078125 8.5 55.328125 
Q 8.5 64.0625 14.71875 69.140625 
Q 20.953125 74.21875 31.78125 74.21875 
Q 42.671875 74.21875 48.875 69.140625 
Q 55.078125 64.0625 55.078125 55.328125 
Q 55.078125 49.078125 51.53125 44.71875 
Q 48 40.375 41.703125 38.8125 
Q 48.828125 37.15625 52.796875 32.3125 
Q 56.78125 27.484375 56.78125 20.515625 
Q 56.78125 9.90625 50.3125 4.234375 
Q 43.84375 -1.421875 31.78125 -1.421875 
Q 19.734375 -1.421875 13.25 4.234375 
Q 6.78125 9.90625 6.78125 20.515625 
Q 6.78125 27.484375 10.78125 32.3125 
Q 14.796875 37.15625 21.921875 38.8125 
z
M 18.3125 54.390625 
Q 18.3125 48.734375 21.84375 45.5625 
Q 25.390625 42.390625 31.78125 42.390625 
Q 38.140625 42.390625 41.71875 45.5625 
Q 45.3125 48.734375 45.3125 54.390625 
Q 45.3125 60.0625 41.71875 63.234375 
Q 38.140625 66.40625 31.78125 66.40625 
Q 25.390625 66.40625 21.84375 63.234375 
Q 18.3125 60.0625 18.3125 54.390625 
z
" id="DejaVuSans-56"/>
       <path d="M 10.6875 12.40625 
L 21 12.40625 
L 21 0 
L 10.6875 0 
z
" id="DejaVuSans-46"/>
       <path d="M 8.203125 72.90625 
L 55.078125 72.90625 
L 55.078125 68.703125 
L 28.609375 0 
L 18.3125 0 
L 43.21875 64.59375 
L 8.203125 64.59375 
z
" id="DejaVuSans-55"/>
       <path d="M 72.703125 32.078125 
Q 68.453125 32.078125 66.03125 28.46875 
Q 63.625 24.859375 63.625 18.40625 
Q 63.625 12.0625 66.03125 8.421875 
Q 68.453125 4.78125 72.703125 4.78125 
Q 76.859375 4.78125 79.265625 8.421875 
Q 81.6875 12.0625 81.6875 18.40625 
Q 81.6875 24.8125 79.265625 28.4375 
Q 76.859375 32.078125 72.703125 32.078125 
z
M 72.703125 38.28125 
Q 80.421875 38.28125 84.953125 32.90625 
Q 89.5 27.546875 89.5 18.40625 
Q 89.5 9.28125 84.9375 3.921875 
Q 80.375 -1.421875 72.703125 -1.421875 
Q 64.890625 -1.421875 60.34375 3.921875 
Q 55.8125 9.28125 55.8125 18.40625 
Q 55.8125 27.59375 60.375 32.9375 
Q 64.9375 38.28125 72.703125 38.28125 
z
M 22.3125 68.015625 
Q 18.109375 68.015625 15.6875 64.375 
Q 13.28125 60.75 13.28125 54.390625 
Q 13.28125 47.953125 15.671875 44.328125 
Q 18.0625 40.71875 22.3125 40.71875 
Q 26.5625 40.71875 28.96875 44.328125 
Q 31.390625 47.953125 31.390625 54.390625 
Q 31.390625 60.6875 28.953125 64.34375 
Q 26.515625 68.015625 22.3125 68.015625 
z
M 66.40625 74.21875 
L 74.21875 74.21875 
L 28.609375 -1.421875 
L 20.796875 -1.421875 
z
M 22.3125 74.21875 
Q 30.03125 74.21875 34.609375 68.875 
Q 39.203125 63.53125 39.203125 54.390625 
Q 39.203125 45.171875 34.640625 39.84375 
Q 30.078125 34.515625 22.3125 34.515625 
Q 14.546875 34.515625 10.03125 39.859375 
Q 5.515625 45.21875 5.515625 54.390625 
Q 5.515625 63.484375 10.046875 68.84375 
Q 14.59375 74.21875 22.3125 74.21875 
z
" id="DejaVuSans-37"/>
      </defs>
      <use xlink:href="#DejaVuSans-49"/>
      <use x="63.623047" xlink:href="#DejaVuSans-115"/>
      <use x="115.722656" xlink:href="#DejaVuSans-116"/>
      <use x="154.931641" xlink:href="#DejaVuSans-32"/>
      <use x="186.71875" xlink:href="#DejaVuSans-80"/>
      <use x="247.021484" xlink:href="#DejaVuSans-67"/>
      <use x="316.845703" xlink:href="#DejaVuSans-58"/>
      <use x="350.537109" xlink:href="#DejaVuSans-32"/>
      <use x="382.324219" xlink:href="#DejaVuSans-57"/>
      <use x="445.947266" xlink:href="#DejaVuSans-56"/>
      <use x="509.570312" xlink:href="#DejaVuSans-46"/>
      <use x="541.357422" xlink:href="#DejaVuSans-55"/>
      <use x="604.980469" xlink:href="#DejaVuSans-52"/>
      <use x="668.603516" xlink:href="#DejaVuSans-32"/>
      <use x="700.390625" xlink:href="#DejaVuSans-37"/>
     </g>
    </g>
   </g>
   <g id="matplotlib.axis_2">
    <g id="ytick_1">
     <g id="line2d_9">
      <defs>
       <path d="M 0 0 
L -3.5 0 
" id="mf7c0a7a8df" style="stroke:#000000;stroke-width:0.8;"/>
      </defs>
      <g>
       <use style="stroke:#000000;stroke-width:0.8;" x="49.665988" xlink:href="#mf7c0a7a8df" y="246.7008"/>
      </g>
     </g>
     <g id="text_10">
      <!-- −4 -->
      <g transform="translate(27.9238 250.500019)scale(0.1 -0.1)">
       <use xlink:href="#DejaVuSans-8722"/>
       <use x="83.789062" xlink:href="#DejaVuSans-52"/>
      </g>
     </g>
    </g>
    <g id="ytick_2">
     <g id="line2d_10">
      <g>
       <use style="stroke:#000000;stroke-width:0.8;" x="49.665988" xlink:href="#mf7c0a7a8df" y="193.4784"/>
      </g>
     </g>
     <g id="text_11">
      <!-- −2 -->
      <g transform="translate(27.9238 197.277619)scale(0.1 -0.1)">
       <use xlink:href="#DejaVuSans-8722"/>
       <use x="83.789062" xlink:href="#DejaVuSans-50"/>
      </g>
     </g>
    </g>
    <g id="ytick_3">
     <g id="line2d_11">
      <g>
       <use style="stroke:#000000;stroke-width:0.8;" x="49.665988" xlink:href="#mf7c0a7a8df" y="140.256"/>
      </g>
     </g>
     <g id="text_12">
      <!-- 0 -->
      <g transform="translate(36.303488 144.055219)scale(0.1 -0.1)">
       <use xlink:href="#DejaVuSans-48"/>
      </g>
     </g>
    </g>
    <g id="ytick_4">
     <g id="line2d_12">
      <g>
       <use style="stroke:#000000;stroke-width:0.8;" x="49.665988" xlink:href="#mf7c0a7a8df" y="87.0336"/>
      </g>
     </g>
     <g id="text_13">
      <!-- 2 -->
      <g transform="translate(36.303488 90.832819)scale(0.1 -0.1)">
       <use xlink:href="#DejaVuSans-50"/>
      </g>
     </g>
    </g>
    <g id="ytick_5">
     <g id="line2d_13">
      <g>
       <use style="stroke:#000000;stroke-width:0.8;" x="49.665988" xlink:href="#mf7c0a7a8df" y="33.8112"/>
      </g>
     </g>
     <g id="text_14">
      <!-- 4 -->
      <g transform="translate(36.303488 37.610419)scale(0.1 -0.1)">
       <use xlink:href="#DejaVuSans-52"/>
      </g>
     </g>
    </g>
    <g id="text_15">
     <!-- 2nd PC: 0.66 % -->
     <g transform="translate(20.3301 206.5518)rotate(-90)scale(0.1728 -0.1728)">
      <defs>
       <path d="M 54.890625 33.015625 
L 54.890625 0 
L 45.90625 0 
L 45.90625 32.71875 
Q 45.90625 40.484375 42.875 44.328125 
Q 39.84375 48.1875 33.796875 48.1875 
Q 26.515625 48.1875 22.3125 43.546875 
Q 18.109375 38.921875 18.109375 30.90625 
L 18.109375 0 
L 9.078125 0 
L 9.078125 54.6875 
L 18.109375 54.6875 
L 18.109375 46.1875 
Q 21.34375 51.125 25.703125 53.5625 
Q 30.078125 56 35.796875 56 
Q 45.21875 56 50.046875 50.171875 
Q 54.890625 44.34375 54.890625 33.015625 
z
" id="DejaVuSans-110"/>
       <path d="M 45.40625 46.390625 
L 45.40625 75.984375 
L 54.390625 75.984375 
L 54.390625 0 
L 45.40625 0 
L 45.40625 8.203125 
Q 42.578125 3.328125 38.25 0.953125 
Q 33.9375 -1.421875 27.875 -1.421875 
Q 17.96875 -1.421875 11.734375 6.484375 
Q 5.515625 14.40625 5.515625 27.296875 
Q 5.515625 40.1875 11.734375 48.09375 
Q 17.96875 56 27.875 56 
Q 33.9375 56 38.25 53.625 
Q 42.578125 51.265625 45.40625 46.390625 
z
M 14.796875 27.296875 
Q 14.796875 17.390625 18.875 11.75 
Q 22.953125 6.109375 30.078125 6.109375 
Q 37.203125 6.109375 41.296875 11.75 
Q 45.40625 17.390625 45.40625 27.296875 
Q 45.40625 37.203125 41.296875 42.84375 
Q 37.203125 48.484375 30.078125 48.484375 
Q 22.953125 48.484375 18.875 42.84375 
Q 14.796875 37.203125 14.796875 27.296875 
z
" id="DejaVuSans-100"/>
      </defs>
      <use xlink:href="#DejaVuSans-50"/>
      <use x="63.623047" xlink:href="#DejaVuSans-110"/>
      <use x="127.001953" xlink:href="#DejaVuSans-100"/>
      <use x="190.478516" xlink:href="#DejaVuSans-32"/>
      <use x="222.265625" xlink:href="#DejaVuSans-80"/>
      <use x="282.568359" xlink:href="#DejaVuSans-67"/>
      <use x="352.392578" xlink:href="#DejaVuSans-58"/>
      <use x="386.083984" xlink:href="#DejaVuSans-32"/>
      <use x="417.871094" xlink:href="#DejaVuSans-48"/>
      <use x="481.494141" xlink:href="#DejaVuSans-46"/>
      <use x="513.28125" xlink:href="#DejaVuSans-54"/>
      <use x="576.904297" xlink:href="#DejaVuSans-54"/>
      <use x="640.527344" xlink:href="#DejaVuSans-32"/>
      <use x="672.314453" xlink:href="#DejaVuSans-37"/>
     </g>
    </g>
   </g>
   <g id="LineCollection_1"/>
   <g id="LineCollection_2"/>
   <g id="LineCollection_3"/>
   <g id="LineCollection_4"/>
   <g id="LineCollection_5">
    <path clip-path="url(#p2a997c4696)" d="M 84.719248 110.355111 
L 85.27203 104.7744 
L 85.881961 99.200257 
L 86.269456 95.904 
L 87.703417 87.0336 
L 88.145459 85.362064 
L 90.408958 83.399327 
L 92.100018 87.0336 
L 92.672456 88.170591 
L 94.639212 95.904 
L 94.935954 96.995698 
L 96.160149 104.7744 
L 97.199453 111.156573 
L 97.400008 113.6448 
L 97.924604 122.5152 
L 98.332129 131.3856 
L 98.599909 140.256 
L 98.717746 149.1264 
L 98.625258 157.9968 
L 98.177269 166.8672 
L 97.199453 174.930518 
L 96.966088 175.7376 
L 94.935954 180.364906 
L 92.721014 184.608 
L 92.672456 184.675894 
L 90.408958 187.562028 
L 88.145459 190.316305 
L 85.881961 192.982408 
L 85.293736 193.4784 
L 83.618463 194.477121 
L 81.354964 194.952608 
L 79.091466 193.940892 
L 78.731096 193.4784 
L 77.348433 184.608 
L 77.770942 175.7376 
L 78.611292 166.8672 
L 79.091466 162.687056 
L 79.602964 157.9968 
L 80.622178 149.1264 
L 81.354964 142.81235 
L 81.637389 140.256 
L 82.465966 132.5926 
" style="fill:none;stroke:#404688;stroke-width:1.5;"/>
   </g>
   <g id="LineCollection_6">
    <path clip-path="url(#p2a997c4696)" d="M 49.665988 89.253778 
L 50.150658 87.0336 
L 51.929486 79.66762 
L 52.269037 78.1632 
L 54.192984 70.970562 
L 54.622223 69.2928 
L 56.456483 63.595776 
L 57.464376 60.4224 
L 58.719981 57.487895 
L 60.983479 52.469641 
L 61.418262 51.552 
L 63.163801 49.192936 
" style="fill:none;stroke:#39558c;stroke-width:1.5;"/>
    <path clip-path="url(#p2a997c4696)" d="M 67.884784 44.977669 
L 70.037473 44.084261 
L 72.300971 43.70837 
L 74.564469 43.723178 
L 76.827968 44.035941 
L 79.091466 44.605295 
L 81.354964 45.396035 
L 83.618463 46.348307 
L 85.881961 47.764079 
L 88.145459 50.505931 
L 88.519456 51.552 
L 90.408958 56.958641 
L 91.19279 60.4224 
L 92.672456 66.26359 
L 93.245508 69.2928 
L 94.935954 76.846004 
L 95.173056 78.1632 
L 96.92455 87.0336 
L 97.199453 88.377742 
L 98.200679 95.904 
L 99.462951 104.455685 
L 99.489601 104.7744 
L 100.053463 113.6448 
L 100.565698 122.5152 
L 101.023246 131.3856 
L 101.445356 140.256 
L 101.72645 146.707612 
L 101.779332 149.1264 
L 101.947738 157.9968 
L 102.103886 166.8672 
L 102.225417 175.7376 
L 102.253271 184.608 
L 102.076758 193.4784 
L 101.72645 199.134709 
L 101.007653 202.3488 
L 99.462951 205.772052 
L 97.199453 207.121245 
L 94.935954 208.416458 
L 92.672456 210.237255 
L 91.674382 211.2192 
L 90.408958 212.158573 
L 88.145459 214.057835 
L 85.881961 216.126412 
L 83.618463 218.283041 
L 81.706302 220.0896 
L 81.354964 220.33426 
L 79.091466 221.730011 
L 76.827968 222.955262 
L 74.564469 223.951245 
L 72.300971 224.657644 
L 70.037473 225.01856 
L 67.773974 225.015609 
L 65.510476 224.67851 
L 63.246978 224.056795 
L 60.983479 223.234021 
L 58.719981 222.310203 
L 56.456483 221.385164 
L 54.192984 220.546406 
L 52.737151 220.0896 
L 51.929486 219.509988 
L 49.665988 218.194404 
" style="fill:none;stroke:#39558c;stroke-width:1.5;"/>
   </g>
   <g id="LineCollection_7">
    <path clip-path="url(#p2a997c4696)" d="M 57.436566 7.2 
L 58.719981 8.361687 
L 60.983479 10.44308 
L 63.246978 12.396341 
L 65.510476 14.205691 
L 67.773974 15.886609 
L 68.009281 16.0704 
L 70.037473 18.360436 
L 72.300971 20.705778 
L 74.564469 22.814378 
L 76.744519 24.622281 
" style="fill:none;stroke:#33638d;stroke-width:1.5;"/>
    <path clip-path="url(#p2a997c4696)" d="M 81.444769 29.506038 
L 83.618463 31.576245 
L 85.71985 33.8112 
L 85.881961 34.031861 
L 88.145459 38.821528 
L 89.388357 42.6816 
L 90.408958 45.936999 
L 91.617371 51.552 
L 92.672456 55.990265 
L 93.478789 60.4224 
L 94.935954 67.221793 
L 95.29911 69.2928 
L 97.109175 78.1632 
L 97.199453 78.595452 
L 98.472226 87.0336 
L 99.462951 92.880342 
L 99.782089 95.904 
L 100.618205 104.7744 
L 101.458205 113.6448 
L 101.72645 117.002348 
L 101.960346 122.5152 
L 102.288602 131.3856 
L 102.608068 140.256 
L 102.938145 149.1264 
L 103.289385 157.9968 
L 103.674734 166.8672 
L 103.989948 173.837273 
L 104.038346 175.7376 
L 104.235538 184.608 
L 104.400716 193.4784 
L 104.484415 202.3488 
L 104.38705 211.2192 
L 103.989948 218.553288 
L 103.636313 220.0896 
L 101.72645 223.654671 
L 99.462951 223.446826 
L 97.199453 222.962502 
L 94.935954 223.067646 
L 92.672456 223.810698 
L 90.408958 224.983468 
L 88.145459 226.512762 
L 85.881961 228.283766 
L 85.07035 228.96 
L 83.618463 229.894537 
L 81.354964 231.328717 
L 79.091466 232.690214 
L 76.827968 233.92883 
L 74.564469 234.99728 
L 72.300971 235.856466 
L 70.037473 236.470174 
L 67.773974 236.823872 
L 65.510476 236.937894 
L 63.246978 236.853681 
L 60.983479 236.616057 
L 58.719981 236.294148 
L 56.456483 235.947553 
L 54.192984 235.638776 
L 51.929486 235.420424 
L 49.665988 235.303815 
" style="fill:none;stroke:#33638d;stroke-width:1.5;"/>
   </g>
   <g id="LineCollection_8">
    <path clip-path="url(#p2a997c4696)" d="M 68.975833 7.2 
L 70.037473 8.46524 
L 72.300971 11.04877 
L 74.564469 13.397509 
L 76.827968 15.525887 
L 77.415923 16.0704 
L 79.091466 18.164468 
L 81.354964 20.778563 
L 83.618463 23.257795 
L 84.957808 24.9408 
L 85.881961 26.422869 
L 86.728967 28.292072 
" style="fill:none;stroke:#2d718e;stroke-width:1.5;"/>
    <path clip-path="url(#p2a997c4696)" d="M 90.833699 41.015909 
L 91.18672 42.6816 
L 92.672456 49.134282 
L 93.10184 51.552 
L 94.935954 60.322061 
L 94.952978 60.4224 
L 96.518713 69.2928 
L 97.199453 72.56837 
L 98.094835 78.1632 
L 99.462951 85.554694 
L 99.649062 87.0336 
L 100.653046 95.904 
L 101.72645 104.646438 
L 101.735624 104.7744 
L 102.231664 113.6448 
L 102.706336 122.5152 
L 103.158717 131.3856 
L 103.611869 140.256 
L 103.989948 147.379812 
L 104.04084 149.1264 
L 104.294899 157.9968 
L 104.586528 166.8672 
L 104.922995 175.7376 
L 105.295778 184.608 
L 105.690426 193.4784 
L 106.084241 202.3488 
L 106.253446 207.11856 
L 106.343322 211.2192 
L 106.451431 220.0896 
L 106.381746 228.96 
L 106.253446 231.609472 
L 104.59845 237.8304 
L 103.989948 238.669799 
L 101.97742 237.8304 
L 101.72645 237.725055 
L 99.462951 235.78512 
L 97.199453 234.405397 
L 94.935954 233.835125 
L 92.672456 233.956037 
L 90.408958 234.607805 
L 88.145459 235.662761 
L 85.881961 236.980084 
L 84.583737 237.8304 
L 83.618463 238.334459 
L 81.354964 239.543435 
L 79.091466 240.700383 
L 76.827968 241.754185 
L 74.564469 242.659975 
L 72.300971 243.38631 
L 70.037473 243.91071 
L 67.773974 244.232752 
L 65.510476 244.362919 
L 63.246978 244.343389 
L 60.983479 244.215031 
L 58.719981 244.031428 
L 56.456483 243.840445 
L 54.192984 243.686307 
L 51.929486 243.609248 
L 49.665988 243.621432 
" style="fill:none;stroke:#2d718e;stroke-width:1.5;"/>
   </g>
   <g id="LineCollection_9">
    <path clip-path="url(#p2a997c4696)" d="M 75.057343 7.2 
L 76.827968 9.463639 
L 79.091466 12.151072 
L 81.354964 14.586793 
L 82.717445 16.0704 
L 83.618463 17.359111 
L 85.881961 21.147087 
L 87.754599 24.9408 
L 88.145459 25.870703 
L 90.408958 33.476627 
L 90.479989 33.8112 
L 90.865054 35.588878 
" style="fill:none;stroke:#287d8e;stroke-width:1.5;"/>
    <path clip-path="url(#p2a997c4696)" d="M 94.330407 52.946503 
L 94.935954 55.842008 
L 95.713067 60.4224 
L 97.199453 67.657989 
L 97.466271 69.2928 
L 99.03401 78.1632 
L 99.462951 80.480633 
L 100.287599 87.0336 
L 101.524003 95.904 
L 101.72645 97.552842 
L 102.244189 104.7744 
L 102.856123 113.6448 
L 103.452327 122.5152 
L 103.989948 130.867685 
L 104.008354 131.3856 
L 104.287543 140.256 
L 104.591947 149.1264 
L 104.933094 157.9968 
L 105.332872 166.8672 
L 105.807644 175.7376 
L 106.253446 183.179353 
L 106.304874 184.608 
L 106.618153 193.4784 
L 106.964799 202.3488 
L 107.331748 211.2192 
L 107.714407 220.0896 
L 108.085903 228.96 
L 108.353152 237.8304 
L 107.960177 246.7008 
L 106.253446 251.389008 
L 103.989948 250.635496 
L 101.72645 248.296056 
L 100.261232 246.7008 
L 99.462951 245.792885 
L 97.199453 243.823232 
L 94.935954 242.716021 
L 92.672456 242.312065 
L 90.408958 242.500221 
L 88.145459 243.127689 
L 85.881961 244.043512 
L 83.618463 245.143603 
L 81.354964 246.331906 
L 80.644192 246.7008 
L 79.091466 247.356773 
L 76.827968 248.232878 
L 74.564469 248.981219 
L 72.300971 249.574312 
L 70.037473 249.996166 
L 67.773974 250.252127 
L 65.510476 250.349962 
L 63.246978 250.320498 
L 60.983479 250.207347 
L 58.719981 250.052949 
L 56.456483 249.900334 
L 54.192984 249.786717 
L 51.929486 249.745293 
L 49.665988 249.785402 
" style="fill:none;stroke:#287d8e;stroke-width:1.5;"/>
   </g>
   <g id="LineCollection_10">
    <path clip-path="url(#p2a997c4696)" d="M 79.284446 7.2 
L 81.354964 10.096013 
L 83.618463 13.175827 
L 85.684401 16.0704 
L 85.881961 16.423423 
L 88.145459 22.047446 
L 89.00369 24.9408 
L 90.408958 29.864226 
L 91.246913 33.8112 
L 92.672456 40.06701 
L 93.128046 42.6816 
L 94.935954 51.431598 
L 94.955612 51.552 
L 96.473156 60.4224 
L 97.199453 63.957945 
L 98.070158 69.2928 
L 99.462951 76.472088 
L 99.704152 78.1632 
L 100.926136 87.0336 
L 101.72645 92.534953 
L 102.032555 95.904 
L 102.752754 104.7744 
L 103.480582 113.6448 
L 103.989948 120.252505 
L 104.087759 122.5152 
L 104.420246 131.3856 
L 104.764954 140.256 
L 105.143054 149.1264 
L 105.571289 157.9968 
L 106.079217 166.8672 
L 106.253446 169.705723 
L 106.472612 175.7376 
L 106.836459 184.608 
L 107.265424 193.4784 
L 107.760287 202.3488 
L 108.114853 207.966257 
" style="fill:none;stroke:#238a8d;stroke-width:1.5;"/>
    <path clip-path="url(#p2a997c4696)" d="M 109.321787 232.331486 
L 109.600303 237.8304 
L 110.050556 246.7008 
L 110.004715 255.5712 
L 108.516945 261.393516 
L 106.253446 261.990225 
L 103.989948 260.152172 
L 101.72645 257.327822 
L 100.350263 255.5712 
L 99.462951 254.384967 
L 97.199453 251.974369 
L 94.935954 250.414966 
L 92.672456 249.584254 
L 90.408958 249.388978 
L 88.145459 249.666402 
L 85.881961 250.265151 
L 83.618463 251.069283 
L 81.354964 251.974502 
L 79.091466 252.882536 
L 76.827968 253.731361 
L 74.564469 254.464825 
L 72.300971 255.045811 
L 70.037473 255.454278 
L 68.942983 255.5712 
L 67.773974 255.6734 
L 65.510476 255.738127 
L 63.246978 255.687544 
L 61.033058 255.5712 
L 60.983479 255.568014 
L 58.719981 255.37822 
L 56.456483 255.19487 
L 54.192984 255.061249 
L 51.929486 255.016469 
L 49.665988 255.070367 
" style="fill:none;stroke:#238a8d;stroke-width:1.5;"/>
   </g>
   <g id="LineCollection_11">
    <path clip-path="url(#p2a997c4696)" d="M 82.184858 7.2 
L 83.618463 9.47208 
L 85.881961 13.388686 
L 87.155299 16.0704 
L 88.145459 18.571401 
L 90.034759 24.9408 
L 90.408958 26.251825 
L 92.013837 33.8112 
L 92.672456 36.701464 
L 93.714489 42.6816 
L 94.935954 48.593304 
L 95.418999 51.552 
L 95.450718 51.708218 
" style="fill:none;stroke:#1f968b;stroke-width:1.5;"/>
    <path clip-path="url(#p2a997c4696)" d="M 98.774673 69.811503 
L 99.462951 73.359298 
L 100.148126 78.1632 
L 101.564673 87.0336 
L 101.72645 88.145652 
L 102.43136 95.904 
L 103.261319 104.7744 
L 103.989948 112.633753 
L 104.043938 113.6448 
L 104.437935 122.5152 
L 104.832137 131.3856 
L 105.242365 140.256 
L 105.694162 149.1264 
L 106.209484 157.9968 
L 106.253446 158.728198 
L 106.539574 166.8672 
L 106.914418 175.7376 
L 107.368045 184.608 
L 107.912696 193.4784 
L 108.516945 201.908022 
L 108.537159 202.3488 
L 108.931307 211.2192 
L 109.410084 220.0896 
L 109.999784 228.96 
L 110.758007 237.8304 
L 110.780443 238.116741 
L 111.28087 246.7008 
L 111.734517 255.5712 
L 111.435606 264.4416 
L 110.780443 267.43865 
L 108.516945 270.298588 
L 106.253446 270.115684 
L 103.989948 268.220277 
L 101.72645 265.299563 
L 101.11569 264.4416 
L 99.462951 261.994496 
L 97.199453 259.240668 
L 94.935954 257.319461 
L 92.672456 256.152036 
L 90.408958 255.651387 
L 88.145459 255.646739 
L 85.881961 255.99483 
L 83.618463 256.568109 
L 81.354964 257.257762 
L 79.091466 257.970296 
L 76.827968 258.643912 
L 74.564469 259.222629 
L 72.300971 259.673042 
L 70.037473 259.977294 
L 67.773974 260.140136 
L 65.510476 260.167591 
L 63.246978 260.070733 
L 60.983479 259.902136 
L 58.719981 259.701923 
L 56.456483 259.512727 
L 54.192984 259.372712 
L 51.929486 259.314397 
L 49.665988 259.346739 
" style="fill:none;stroke:#1f968b;stroke-width:1.5;"/>
   </g>
   <g id="LineCollection_12">
    <path clip-path="url(#p2a997c4696)" d="M 102.38952 273.312 
L 101.72645 272.385158 
L 99.462951 268.85492 
L 97.199453 265.866578 
L 95.772645 264.4416 
L 94.935954 263.570241 
L 92.672456 261.951443 
L 90.408958 261.110545 
L 88.277583 260.862479 
" style="fill:none;stroke:#20a386;stroke-width:1.5;"/>
    <path clip-path="url(#p2a997c4696)" d="M 83.487742 261.461428 
L 81.354964 262.007906 
L 79.091466 262.642968 
L 76.827968 263.261812 
L 74.564469 263.796981 
L 72.300971 264.210592 
L 70.361092 264.4416 
L 70.037473 264.474307 
L 67.773974 264.582569 
L 65.510476 264.573788 
L 63.246978 264.452063 
L 63.120566 264.4416 
L 60.983479 264.235647 
L 58.719981 263.987965 
L 56.456483 263.75585 
L 54.192984 263.581098 
L 51.929486 263.497856 
L 49.665988 263.517526 
" style="fill:none;stroke:#20a386;stroke-width:1.5;"/>
    <path clip-path="url(#p2a997c4696)" d="M 84.193399 7.2 
L 85.881961 10.490365 
L 88.145459 15.479469 
L 88.322481 16.0704 
L 90.408958 23.507692 
L 90.714895 24.9408 
L 92.672456 33.514188 
L 92.723145 33.8112 
L 94.300932 42.6816 
L 94.935954 45.75501 
L 95.882387 51.552 
L 95.886106 51.570316 
" style="fill:none;stroke:#20a386;stroke-width:1.5;"/>
    <path clip-path="url(#p2a997c4696)" d="M 99.283415 69.32107 
L 99.462951 70.246508 
L 100.5921 78.1632 
L 101.72645 85.027615 
L 101.95002 87.0336 
L 102.830164 95.904 
L 103.769884 104.7744 
L 103.989948 107.148116 
L 104.336873 113.6448 
L 104.788111 122.5152 
L 105.244028 131.3856 
L 105.719775 140.256 
L 106.245269 149.1264 
L 106.253446 149.26554 
L 106.550667 157.9968 
L 106.912838 166.8672 
L 107.356223 175.7376 
L 107.899631 184.608 
L 108.516945 192.998174 
L 108.539202 193.4784 
L 108.951264 202.3488 
L 109.448661 211.2192 
L 110.064606 220.0896 
L 110.780443 228.353706 
L 110.817453 228.96 
L 111.381949 237.8304 
L 112.142221 246.7008 
L 113.02481 255.5712 
L 113.043941 256.214917 
L 113.219393 264.4416 
L 113.043941 267.038548 
L 111.765915 273.312 
" style="fill:none;stroke:#20a386;stroke-width:1.5;"/>
   </g>
   <g id="LineCollection_13">
    <path clip-path="url(#p2a997c4696)" d="M 98.172553 273.312 
L 97.199453 271.860966 
L 94.935954 269.174041 
L 92.672456 267.363344 
L 90.408958 266.32169 
L 88.145459 265.860658 
L 85.881961 265.81997 
L 83.618463 266.063127 
L 81.354964 266.467413 
L 79.091466 266.941598 
L 76.958869 267.386861 
" style="fill:none;stroke:#29af7f;stroke-width:1.5;"/>
    <path clip-path="url(#p2a997c4696)" d="M 72.169416 268.144966 
L 70.037473 268.325277 
L 67.773974 268.392483 
L 65.510476 268.340298 
L 63.246978 268.173935 
L 60.983479 267.93532 
L 58.719981 267.676185 
L 56.456483 267.437311 
L 54.192984 267.256625 
L 51.929486 267.161975 
L 49.665988 267.162183 
" style="fill:none;stroke:#29af7f;stroke-width:1.5;"/>
    <path clip-path="url(#p2a997c4696)" d="M 85.68077 7.2 
L 85.881961 7.592044 
L 88.145459 13.372793 
L 88.953563 16.0704 
L 90.408958 21.258184 
L 91.195116 24.9408 
L 92.672456 31.411 
L 93.082084 33.8112 
L 94.887375 42.6816 
L 94.935954 42.916716 
L 96.307564 51.317954 
" style="fill:none;stroke:#29af7f;stroke-width:1.5;"/>
    <path clip-path="url(#p2a997c4696)" d="M 99.660998 69.272387 
L 99.664167 69.2928 
L 101.036073 78.1632 
L 101.72645 82.34095 
L 102.249455 87.0336 
L 103.228968 95.904 
L 103.989948 102.74161 
L 104.125519 104.7744 
L 104.629807 113.6448 
L 105.138286 122.5152 
L 105.655919 131.3856 
L 106.197186 140.256 
L 106.253446 141.203712 
L 106.523619 149.1264 
L 106.869876 157.9968 
L 107.286102 166.8672 
L 107.798029 175.7376 
L 108.431217 184.608 
L 108.516945 185.773166 
L 108.874065 193.4784 
L 109.36537 202.3488 
L 109.966015 211.2192 
L 110.719129 220.0896 
L 110.780443 220.797455 
L 111.278711 228.96 
L 111.995342 237.8304 
L 113.003573 246.7008 
L 113.043941 247.103616 
L 113.680325 255.5712 
L 114.145285 264.4416 
L 113.715754 273.312 
" style="fill:none;stroke:#29af7f;stroke-width:1.5;"/>
   </g>
   <g id="LineCollection_14">
    <path clip-path="url(#p2a997c4696)" d="M 93.567143 273.312 
L 92.672456 272.483654 
L 90.408958 271.14463 
L 88.145459 270.456077 
L 85.881961 270.234642 
L 83.618463 270.331634 
L 81.354964 270.621573 
L 79.091466 271.006144 
L 76.827968 271.406827 
L 74.696195 271.739306 
" style="fill:none;stroke:#3dbc74;stroke-width:1.5;"/>
    <path clip-path="url(#p2a997c4696)" d="M 69.905316 272.177774 
L 67.773974 272.202397 
L 65.510476 272.106808 
L 63.246978 271.895806 
L 60.983479 271.603366 
L 58.719981 271.293642 
L 56.456483 271.010501 
L 54.192984 270.795192 
L 51.929486 270.674809 
L 49.665988 270.657094 
" style="fill:none;stroke:#3dbc74;stroke-width:1.5;"/>
    <path clip-path="url(#p2a997c4696)" d="M 86.582295 7.2 
L 88.145459 11.266117 
L 89.584646 16.0704 
L 90.408958 19.008677 
L 91.675337 24.9408 
L 92.672456 29.307811 
L 93.441023 33.8112 
L 94.935954 41.080743 
L 95.188083 42.6816 
L 96.809163 51.552 
L 97.199453 53.474222 
L 98.329787 60.4224 
L 99.462951 66.127186 
L 99.954263 69.2928 
L 101.480047 78.1632 
L 101.72645 79.654285 
L 102.548889 87.0336 
L 103.627772 95.904 
L 103.989948 99.158246 
L 104.3645 104.7744 
L 104.922742 113.6448 
L 105.488462 122.5152 
L 106.067811 131.3856 
L 106.253446 134.385052 
L 106.461407 140.256 
L 106.797862 149.1264 
L 107.189086 157.9968 
L 107.659366 166.8672 
L 108.239834 175.7376 
L 108.516945 179.532884 
L 108.747091 184.608 
L 109.208927 193.4784 
L 109.779475 202.3488 
L 110.48337 211.2192 
L 110.780443 214.659521 
L 111.104106 220.0896 
L 111.564093 226.506496 
" style="fill:none;stroke:#3dbc74;stroke-width:1.5;"/>
    <path clip-path="url(#p2a997c4696)" d="M 113.700097 249.026419 
L 114.326286 255.5712 
L 115.071176 264.4416 
L 114.954717 273.312 
" style="fill:none;stroke:#3dbc74;stroke-width:1.5;"/>
   </g>
   <g id="LineCollection_15">
    <path clip-path="url(#p2a997c4696)" d="M 87.392178 7.2 
L 88.145459 9.159441 
L 90.215729 16.0704 
L 90.408958 16.759169 
L 92.155558 24.9408 
L 92.672456 27.204622 
L 93.799961 33.8112 
L 94.935954 39.335298 
L 95.462984 42.6816 
L 97.199453 51.335878 
L 97.234192 51.552 
L 97.820969 55.100335 
" style="fill:none;stroke:#56c667;stroke-width:1.5;"/>
    <path clip-path="url(#p2a997c4696)" d="M 101.045675 73.704455 
L 101.72645 77.45247 
L 101.820609 78.1632 
L 102.848323 87.0336 
L 103.989948 95.695338 
L 104.007194 95.904 
L 104.603482 104.7744 
L 105.215677 113.6448 
L 105.838638 122.5152 
L 106.253446 128.575375 
L 106.363926 131.3856 
L 106.697149 140.256 
L 107.072105 149.1264 
L 107.508295 157.9968 
L 108.03263 166.8672 
L 108.516945 173.757891 
L 108.601984 175.7376 
L 109.02149 184.608 
L 109.54379 193.4784 
L 110.193581 202.3488 
L 110.780443 209.169853 
L 110.899408 211.2192 
L 111.461224 220.0896 
L 112.201228 228.96 
L 113.043941 236.613483 
L 113.141067 237.8304 
L 113.932558 246.7008 
L 114.972247 255.5712 
L 115.30744 259.213505 
L 115.655356 264.4416 
L 115.748738 273.312 
" style="fill:none;stroke:#56c667;stroke-width:1.5;"/>
   </g>
   <g id="LineCollection_16">
    <path clip-path="url(#p2a997c4696)" d="M 88.171595 7.2 
L 90.408958 15.148634 
L 90.610895 16.0704 
L 92.635779 24.9408 
L 92.672456 25.101434 
L 94.1589 33.8112 
L 94.935954 37.589854 
L 95.737885 42.6816 
L 97.199453 49.965816 
L 97.454411 51.552 
L 99.072338 60.4224 
L 99.462951 62.388896 
L 100.534455 69.2928 
L 101.72645 75.855342 
L 102.0322 78.1632 
L 103.147757 87.0336 
L 103.989948 93.423472 
L 104.194967 95.904 
L 104.842464 104.7744 
L 105.508612 113.6448 
L 106.188814 122.5152 
L 106.253446 123.459451 
L 106.565052 131.3856 
L 106.93289 140.256 
L 107.346347 149.1264 
L 107.827504 157.9968 
L 108.405894 166.8672 
L 108.516945 168.447199 
L 108.830108 175.7376 
L 109.295889 184.608 
L 109.878652 193.4784 
L 110.607686 202.3488 
L 110.780443 204.356737 
L 111.178811 211.2192 
L 111.818341 220.0896 
L 112.429841 226.515333 
" style="fill:none;stroke:#75d054;stroke-width:1.5;"/>
    <path clip-path="url(#p2a997c4696)" d="M 114.655192 248.785719 
L 115.30744 253.866256 
L 115.470345 255.5712 
L 116.122466 264.4416 
L 116.365674 273.312 
" style="fill:none;stroke:#75d054;stroke-width:1.5;"/>
   </g>
   <g id="LineCollection_17">
    <path clip-path="url(#p2a997c4696)" d="M 88.545552 7.2 
L 90.408958 13.820084 
L 90.90195 16.0704 
L 92.672456 23.771502 
L 92.867989 24.9408 
L 94.517839 33.8112 
L 94.935954 35.844409 
L 96.012786 42.6816 
L 97.199453 48.595755 
L 97.67463 51.552 
L 99.443614 60.4224 
L 99.462951 60.519751 
L 100.824551 69.2928 
L 101.72645 74.258213 
L 102.243791 78.1632 
L 103.447191 87.0336 
L 103.989948 91.151606 
L 104.38274 95.904 
L 105.081445 104.7744 
L 105.801546 113.6448 
L 106.253446 119.447814 
L 106.391429 122.5152 
L 106.766178 131.3856 
L 107.168632 140.256 
L 107.62059 149.1264 
L 108.146714 157.9968 
L 108.516945 163.521197 
L 108.651429 166.8672 
L 109.058232 175.7376 
L 109.570287 184.608 
L 110.213515 193.4784 
L 110.780443 200.077176 
L 110.909332 202.3488 
L 111.458214 211.2192 
L 112.175459 220.0896 
L 112.831034 226.340719 
" style="fill:none;stroke:#95d840;stroke-width:1.5;"/>
    <path clip-path="url(#p2a997c4696)" d="M 115.076461 248.523217 
L 115.30744 250.322372 
L 115.808959 255.5712 
L 116.589576 264.4416 
L 116.982609 273.312 
" style="fill:none;stroke:#95d840;stroke-width:1.5;"/>
   </g>
   <g id="LineCollection_18">
    <path clip-path="url(#p2a997c4696)" d="M 88.919509 7.2 
L 90.408958 12.491534 
L 91.193005 16.0704 
L 92.672456 22.505513 
L 93.079692 24.9408 
L 94.876778 33.8112 
L 94.935954 34.098965 
L 96.287687 42.6816 
L 97.199453 47.225694 
L 97.89485 51.552 
L 99.462951 59.380279 
L 99.633505 60.4224 
L 101.114647 69.2928 
L 101.72645 72.661085 
L 102.455382 78.1632 
L 103.746625 87.0336 
L 103.989948 88.87974 
L 104.570513 95.904 
L 105.320427 104.7744 
L 106.094481 113.6448 
L 106.253446 115.686132 
L 106.560644 122.5152 
L 106.967303 131.3856 
L 107.404374 140.256 
L 107.894832 149.1264 
L 108.465923 157.9968 
L 108.516945 158.758117 
L 108.842871 166.8672 
L 109.286357 175.7376 
L 109.844686 184.608 
L 110.548378 193.4784 
L 110.780443 196.179533 
L 111.13048 202.3488 
L 111.737617 211.2192 
L 112.532576 220.0896 
L 113.043941 224.965628 
L 113.148677 226.375621 
" style="fill:none;stroke:#bade28;stroke-width:1.5;"/>
    <path clip-path="url(#p2a997c4696)" d="M 115.457726 248.351364 
L 116.147573 255.5712 
L 117.056687 264.4416 
L 117.570938 272.953496 
" style="fill:none;stroke:#bade28;stroke-width:1.5;"/>
   </g>
   <g id="LineCollection_19">
    <path clip-path="url(#p2a997c4696)" d="M 89.293467 7.2 
L 90.408958 11.162984 
L 91.484059 16.0704 
L 92.672456 21.239524 
L 93.291394 24.9408 
L 94.935954 32.950149 
L 95.068975 33.8112 
L 96.562588 42.6816 
L 97.199453 45.855633 
L 98.115069 51.552 
L 99.462951 58.280899 
L 99.813429 60.4224 
L 101.404743 69.2928 
L 101.72645 71.063957 
L 102.666974 78.1632 
L 103.989948 86.775486 
L 104.01628 87.0336 
L 104.758286 95.904 
L 105.559409 104.7744 
L 106.253446 112.437967 
L 106.317452 113.6448 
L 106.729858 122.5152 
L 107.168429 131.3856 
L 107.640115 140.256 
L 108.169075 149.1264 
L 108.516945 154.462491 
L 108.653429 157.9968 
L 109.034312 166.8672 
L 109.514481 175.7376 
L 110.119085 184.608 
L 110.780443 192.47624 
L 110.834963 193.4784 
L 111.351628 202.3488 
L 112.01702 211.2192 
L 112.889694 220.0896 
L 113.043941 221.5604 
L 113.414876 226.554059 
" style="fill:none;stroke:#dde318;stroke-width:1.5;"/>
    <path clip-path="url(#p2a997c4696)" d="M 115.74127 248.513754 
L 116.486187 255.5712 
L 117.523797 264.4416 
L 117.570938 265.221881 
" style="fill:none;stroke:#dde318;stroke-width:1.5;"/>
   </g>
   <g id="LineCollection_20">
    <path clip-path="url(#p2a997c4696)" d="M 89.667424 7.2 
L 90.408958 9.834434 
L 91.775114 16.0704 
L 92.672456 19.973535 
L 93.503097 24.9408 
L 94.935954 31.919114 
L 95.228256 33.8112 
L 96.837489 42.6816 
L 97.199453 44.485571 
L 98.335289 51.552 
L 99.462951 57.181519 
L 99.993354 60.4224 
L 101.694839 69.2928 
L 101.72645 69.466829 
L 102.878565 78.1632 
L 103.989948 85.398071 
L 104.156797 87.0336 
L 104.94606 95.904 
L 105.79839 104.7744 
L 106.253446 109.799131 
L 106.457405 113.6448 
L 106.899073 122.5152 
L 107.369555 131.3856 
L 107.875857 140.256 
L 108.443317 149.1264 
L 108.516945 150.255797 
L 108.815879 157.9968 
L 109.225753 166.8672 
L 109.742605 175.7376 
L 110.393483 184.608 
L 110.780443 189.211694 
L 111.012561 193.4784 
L 111.572775 202.3488 
L 112.296423 211.2192 
L 113.043941 218.536007 
L 113.15452 220.0896 
L 113.674969 226.760812 
" style="fill:none;stroke:#fde725;stroke-width:1.5;"/>
    <path clip-path="url(#p2a997c4696)" d="M 116.025856 248.670431 
L 116.824801 255.5712 
L 117.570938 261.8711 
" style="fill:none;stroke:#fde725;stroke-width:1.5;"/>
   </g>
   <g id="LineCollection_21">
    <path clip-path="url(#p2a997c4696)" d="M 90.041381 7.2 
L 90.408958 8.505884 
L 92.066168 16.0704 
L 92.672456 18.707546 
L 93.714799 24.9408 
L 94.935954 30.88808 
L 95.387537 33.8112 
L 97.112389 42.6816 
L 97.199453 43.11551 
L 98.555508 51.552 
L 99.462951 56.082139 
L 100.173278 60.4224 
L 101.409956 66.824434 
" style="fill:none;stroke:#440154;stroke-width:1.5;"/>
    <path clip-path="url(#p2a997c4696)" d="M 104.588846 90.124979 
L 105.133833 95.904 
L 106.037372 104.7744 
L 106.253446 107.160295 
L 106.597358 113.6448 
L 107.068288 122.5152 
L 107.57068 131.3856 
L 108.111598 140.256 
L 108.516945 146.478918 
L 108.618145 149.1264 
L 108.978328 157.9968 
L 109.417194 166.8672 
L 109.970729 175.7376 
L 110.667882 184.608 
L 110.780443 185.947148 
L 111.190159 193.4784 
L 111.793923 202.3488 
L 112.575826 211.2192 
L 113.043941 215.801175 
L 113.349176 220.0896 
L 114.099481 228.96 
L 115.147153 237.8304 
L 115.30744 239.060336 
L 116.045727 246.7008 
L 117.163415 255.5712 
L 117.570938 259.012064 
" style="fill:none;stroke:#440154;stroke-width:1.5;"/>
   </g>
   <g id="LineCollection_22">
    <path clip-path="url(#p2a997c4696)" d="M 98.297338 7.2 
L 99.462951 12.935178 
L 100.036968 16.0704 
L 101.72645 24.201261 
L 101.862923 24.9408 
L 103.549584 33.8112 
L 103.989948 35.942362 
L 105.16507 42.6816 
L 106.253446 48.131595 
L 106.789315 51.552 
L 108.341166 60.4224 
L 108.516945 61.455482 
L 108.927802 64.97697 
" style="fill:none;stroke:#440154;stroke-width:1.5;"/>
    <path clip-path="url(#p2a997c4696)" d="M 112.0183 92.813147 
L 112.317806 95.904 
L 113.043941 102.604382 
L 113.175135 104.7744 
L 113.715445 113.6448 
L 114.402099 122.5152 
L 115.26745 131.3856 
L 115.30744 131.805205 
L 115.794352 140.256 
L 116.447488 149.1264 
L 117.26194 157.9968 
L 117.570938 161.195925 
" style="fill:none;stroke:#440154;stroke-width:1.5;"/>
   </g>
   <g id="LineCollection_23">
    <path clip-path="url(#p2a997c4696)" d="M 106.900203 7.2 
L 108.516945 15.09158 
L 108.680126 16.0704 
L 110.20416 24.9408 
L 110.780443 27.965311 
L 110.924642 28.965655 
" style="fill:none;stroke:#440154;stroke-width:1.5;"/>
    <path clip-path="url(#p2a997c4696)" d="M 115.042708 57.593903 
L 115.30744 59.419657 
L 115.395744 60.4224 
L 116.140052 69.2928 
L 117.069524 78.1632 
L 117.570938 82.575566 
" style="fill:none;stroke:#440154;stroke-width:1.5;"/>
   </g>
   <g id="LineCollection_24">
    <path clip-path="url(#p2a997c4696)" d="M 115.358515 7.2 
L 116.519351 16.0704 
L 117.570938 22.475496 
" style="fill:none;stroke:#440154;stroke-width:1.5;"/>
   </g>
   <g id="LineCollection_25"/>
   <g id="LineCollection_26"/>
   <g id="LineCollection_27"/>
   <g id="LineCollection_28"/>
   <g id="line2d_14">
    <path clip-path="url(#p2a997c4696)" d="M 377.703372 44.896905 
L 389.780273 73.61544 
L 381.593345 84.365662 
L 373.069427 94.333483 
L 364.707667 102.979891 
L 356.503038 110.642514 
L 348.422816 118.033644 
L 340.485582 125.536362 
L 332.670113 133.62659 
L 324.979758 141.888788 
L 317.414398 150.509346 
L 309.976017 158.787914 
L 302.662388 167.006363 
L 295.464998 175.273607 
L 288.406055 183.014513 
L 281.425565 191.200985 
L 274.583003 198.646505 
L 267.812264 206.873402 
L 261.172632 213.695387 
L 254.63418 220.760053 
L 248.214004 226.804882 
L 241.900897 231.933543 
L 235.723973 235.869678 
L 229.655449 239.126852 
L 223.695339 241.530265 
L 217.815013 243.519292 
L 212.054578 244.691806 
L 206.40641 245.678132 
L 200.855181 245.890657 
L 195.397517 245.292755 
L 190.045592 244.371302 
L 184.77851 242.732091 
L 179.621872 241.292634 
L 174.543377 239.260597 
L 169.55912 236.358245 
L 164.645174 233.568281 
L 159.832978 229.74598 
L 155.098044 225.314325 
L 150.472747 221.272355 
L 145.912451 216.507493 
L 141.444528 211.102652 
L 137.081393 206.228942 
L 132.747673 200.914441 
L 128.554615 195.089999 
L 124.412286 189.659319 
L 120.333933 183.317941 
L 116.349776 177.408716 
L 112.426481 170.858102 
L 108.578409 163.352164 
L 104.834478 157.060307 
L 104.45719 156.699028 
L 104.078545 156.152276 
L 103.705936 155.477772 
L 103.335229 154.712353 
L 102.96555 154.067999 
L 102.597216 153.352252 
L 102.23159 152.699872 
L 101.866923 152.017787 
L 101.504438 151.400119 
L 101.143541 150.735116 
L 100.779404 149.99125 
L 100.42151 149.306129 
L 100.064349 148.689926 
L 99.701487 148.083997 
L 99.34518 147.413228 
L 98.989612 146.899674 
L 98.629794 146.265713 
L 98.273405 145.736223 
L 97.918628 144.998138 
L 97.565228 144.423871 
L 97.216605 143.887257 
L 96.862538 143.304159 
L 96.515108 142.765166 
L 96.16147 142.151574 
L 95.81073 141.52679 
L 95.775327 141.4814 
L 95.74029 141.435455 
L 95.705543 141.375439 
L 95.670223 141.334832 
L 95.635742 141.278092 
L 95.60073 141.223229 
L 95.565599 141.174991 
L 95.530473 141.112269 
L 95.495501 141.062571 
L 95.460371 141.02728 
L 95.425394 140.965622 
L 95.390589 140.913426 
L 95.355212 140.857136 
L 95.319781 140.822144 
L 95.284216 140.767938 
L 95.25058 140.719439 
L 95.215988 140.662795 
L 95.18067 140.60359 
L 95.145786 140.56383 
L 95.110892 140.510015 
L 95.076435 140.460987 
L 95.041497 140.40807 
L 95.006465 140.35771 
L 94.971048 140.303285 
" style="fill:none;stroke:#1f77b4;stroke-linecap:square;stroke-width:1.5;"/>
    <defs>
     <path d="M 0 1.5 
C 0.397805 1.5 0.77937 1.341951 1.06066 1.06066 
C 1.341951 0.77937 1.5 0.397805 1.5 0 
C 1.5 -0.397805 1.341951 -0.77937 1.06066 -1.06066 
C 0.77937 -1.341951 0.397805 -1.5 0 -1.5 
C -0.397805 -1.5 -0.77937 -1.341951 -1.06066 -1.06066 
C -1.341951 -0.77937 -1.5 -0.397805 -1.5 0 
C -1.5 0.397805 -1.341951 0.77937 -1.06066 1.06066 
C -0.77937 1.341951 -0.397805 1.5 0 1.5 
z
" id="mfe3a02f71e" style="stroke:#1f77b4;"/>
    </defs>
    <g clip-path="url(#p2a997c4696)">
     <use style="fill:#1f77b4;stroke:#1f77b4;" x="377.703372" xlink:href="#mfe3a02f71e" y="44.896905"/>
     <use style="fill:#1f77b4;stroke:#1f77b4;" x="389.780273" xlink:href="#mfe3a02f71e" y="73.61544"/>
     <use style="fill:#1f77b4;stroke:#1f77b4;" x="381.593345" xlink:href="#mfe3a02f71e" y="84.365662"/>
     <use style="fill:#1f77b4;stroke:#1f77b4;" x="373.069427" xlink:href="#mfe3a02f71e" y="94.333483"/>
     <use style="fill:#1f77b4;stroke:#1f77b4;" x="364.707667" xlink:href="#mfe3a02f71e" y="102.979891"/>
     <use style="fill:#1f77b4;stroke:#1f77b4;" x="356.503038" xlink:href="#mfe3a02f71e" y="110.642514"/>
     <use style="fill:#1f77b4;stroke:#1f77b4;" x="348.422816" xlink:href="#mfe3a02f71e" y="118.033644"/>
     <use style="fill:#1f77b4;stroke:#1f77b4;" x="340.485582" xlink:href="#mfe3a02f71e" y="125.536362"/>
     <use style="fill:#1f77b4;stroke:#1f77b4;" x="332.670113" xlink:href="#mfe3a02f71e" y="133.62659"/>
     <use style="fill:#1f77b4;stroke:#1f77b4;" x="324.979758" xlink:href="#mfe3a02f71e" y="141.888788"/>
     <use style="fill:#1f77b4;stroke:#1f77b4;" x="317.414398" xlink:href="#mfe3a02f71e" y="150.509346"/>
     <use style="fill:#1f77b4;stroke:#1f77b4;" x="309.976017" xlink:href="#mfe3a02f71e" y="158.787914"/>
     <use style="fill:#1f77b4;stroke:#1f77b4;" x="302.662388" xlink:href="#mfe3a02f71e" y="167.006363"/>
     <use style="fill:#1f77b4;stroke:#1f77b4;" x="295.464998" xlink:href="#mfe3a02f71e" y="175.273607"/>
     <use style="fill:#1f77b4;stroke:#1f77b4;" x="288.406055" xlink:href="#mfe3a02f71e" y="183.014513"/>
     <use style="fill:#1f77b4;stroke:#1f77b4;" x="281.425565" xlink:href="#mfe3a02f71e" y="191.200985"/>
     <use style="fill:#1f77b4;stroke:#1f77b4;" x="274.583003" xlink:href="#mfe3a02f71e" y="198.646505"/>
     <use style="fill:#1f77b4;stroke:#1f77b4;" x="267.812264" xlink:href="#mfe3a02f71e" y="206.873402"/>
     <use style="fill:#1f77b4;stroke:#1f77b4;" x="261.172632" xlink:href="#mfe3a02f71e" y="213.695387"/>
     <use style="fill:#1f77b4;stroke:#1f77b4;" x="254.63418" xlink:href="#mfe3a02f71e" y="220.760053"/>
     <use style="fill:#1f77b4;stroke:#1f77b4;" x="248.214004" xlink:href="#mfe3a02f71e" y="226.804882"/>
     <use style="fill:#1f77b4;stroke:#1f77b4;" x="241.900897" xlink:href="#mfe3a02f71e" y="231.933543"/>
     <use style="fill:#1f77b4;stroke:#1f77b4;" x="235.723973" xlink:href="#mfe3a02f71e" y="235.869678"/>
     <use style="fill:#1f77b4;stroke:#1f77b4;" x="229.655449" xlink:href="#mfe3a02f71e" y="239.126852"/>
     <use style="fill:#1f77b4;stroke:#1f77b4;" x="223.695339" xlink:href="#mfe3a02f71e" y="241.530265"/>
     <use style="fill:#1f77b4;stroke:#1f77b4;" x="217.815013" xlink:href="#mfe3a02f71e" y="243.519292"/>
     <use style="fill:#1f77b4;stroke:#1f77b4;" x="212.054578" xlink:href="#mfe3a02f71e" y="244.691806"/>
     <use style="fill:#1f77b4;stroke:#1f77b4;" x="206.40641" xlink:href="#mfe3a02f71e" y="245.678132"/>
     <use style="fill:#1f77b4;stroke:#1f77b4;" x="200.855181" xlink:href="#mfe3a02f71e" y="245.890657"/>
     <use style="fill:#1f77b4;stroke:#1f77b4;" x="195.397517" xlink:href="#mfe3a02f71e" y="245.292755"/>
     <use style="fill:#1f77b4;stroke:#1f77b4;" x="190.045592" xlink:href="#mfe3a02f71e" y="244.371302"/>
     <use style="fill:#1f77b4;stroke:#1f77b4;" x="184.77851" xlink:href="#mfe3a02f71e" y="242.732091"/>
     <use style="fill:#1f77b4;stroke:#1f77b4;" x="179.621872" xlink:href="#mfe3a02f71e" y="241.292634"/>
     <use style="fill:#1f77b4;stroke:#1f77b4;" x="174.543377" xlink:href="#mfe3a02f71e" y="239.260597"/>
     <use style="fill:#1f77b4;stroke:#1f77b4;" x="169.55912" xlink:href="#mfe3a02f71e" y="236.358245"/>
     <use style="fill:#1f77b4;stroke:#1f77b4;" x="164.645174" xlink:href="#mfe3a02f71e" y="233.568281"/>
     <use style="fill:#1f77b4;stroke:#1f77b4;" x="159.832978" xlink:href="#mfe3a02f71e" y="229.74598"/>
     <use style="fill:#1f77b4;stroke:#1f77b4;" x="155.098044" xlink:href="#mfe3a02f71e" y="225.314325"/>
     <use style="fill:#1f77b4;stroke:#1f77b4;" x="150.472747" xlink:href="#mfe3a02f71e" y="221.272355"/>
     <use style="fill:#1f77b4;stroke:#1f77b4;" x="145.912451" xlink:href="#mfe3a02f71e" y="216.507493"/>
     <use style="fill:#1f77b4;stroke:#1f77b4;" x="141.444528" xlink:href="#mfe3a02f71e" y="211.102652"/>
     <use style="fill:#1f77b4;stroke:#1f77b4;" x="137.081393" xlink:href="#mfe3a02f71e" y="206.228942"/>
     <use style="fill:#1f77b4;stroke:#1f77b4;" x="132.747673" xlink:href="#mfe3a02f71e" y="200.914441"/>
     <use style="fill:#1f77b4;stroke:#1f77b4;" x="128.554615" xlink:href="#mfe3a02f71e" y="195.089999"/>
     <use style="fill:#1f77b4;stroke:#1f77b4;" x="124.412286" xlink:href="#mfe3a02f71e" y="189.659319"/>
     <use style="fill:#1f77b4;stroke:#1f77b4;" x="120.333933" xlink:href="#mfe3a02f71e" y="183.317941"/>
     <use style="fill:#1f77b4;stroke:#1f77b4;" x="116.349776" xlink:href="#mfe3a02f71e" y="177.408716"/>
     <use style="fill:#1f77b4;stroke:#1f77b4;" x="112.426481" xlink:href="#mfe3a02f71e" y="170.858102"/>
     <use style="fill:#1f77b4;stroke:#1f77b4;" x="108.578409" xlink:href="#mfe3a02f71e" y="163.352164"/>
     <use style="fill:#1f77b4;stroke:#1f77b4;" x="104.834478" xlink:href="#mfe3a02f71e" y="157.060307"/>
     <use style="fill:#1f77b4;stroke:#1f77b4;" x="104.45719" xlink:href="#mfe3a02f71e" y="156.699028"/>
     <use style="fill:#1f77b4;stroke:#1f77b4;" x="104.078545" xlink:href="#mfe3a02f71e" y="156.152276"/>
     <use style="fill:#1f77b4;stroke:#1f77b4;" x="103.705936" xlink:href="#mfe3a02f71e" y="155.477772"/>
     <use style="fill:#1f77b4;stroke:#1f77b4;" x="103.335229" xlink:href="#mfe3a02f71e" y="154.712353"/>
     <use style="fill:#1f77b4;stroke:#1f77b4;" x="102.96555" xlink:href="#mfe3a02f71e" y="154.067999"/>
     <use style="fill:#1f77b4;stroke:#1f77b4;" x="102.597216" xlink:href="#mfe3a02f71e" y="153.352252"/>
     <use style="fill:#1f77b4;stroke:#1f77b4;" x="102.23159" xlink:href="#mfe3a02f71e" y="152.699872"/>
     <use style="fill:#1f77b4;stroke:#1f77b4;" x="101.866923" xlink:href="#mfe3a02f71e" y="152.017787"/>
     <use style="fill:#1f77b4;stroke:#1f77b4;" x="101.504438" xlink:href="#mfe3a02f71e" y="151.400119"/>
     <use style="fill:#1f77b4;stroke:#1f77b4;" x="101.143541" xlink:href="#mfe3a02f71e" y="150.735116"/>
     <use style="fill:#1f77b4;stroke:#1f77b4;" x="100.779404" xlink:href="#mfe3a02f71e" y="149.99125"/>
     <use style="fill:#1f77b4;stroke:#1f77b4;" x="100.42151" xlink:href="#mfe3a02f71e" y="149.306129"/>
     <use style="fill:#1f77b4;stroke:#1f77b4;" x="100.064349" xlink:href="#mfe3a02f71e" y="148.689926"/>
     <use style="fill:#1f77b4;stroke:#1f77b4;" x="99.701487" xlink:href="#mfe3a02f71e" y="148.083997"/>
     <use style="fill:#1f77b4;stroke:#1f77b4;" x="99.34518" xlink:href="#mfe3a02f71e" y="147.413228"/>
     <use style="fill:#1f77b4;stroke:#1f77b4;" x="98.989612" xlink:href="#mfe3a02f71e" y="146.899674"/>
     <use style="fill:#1f77b4;stroke:#1f77b4;" x="98.629794" xlink:href="#mfe3a02f71e" y="146.265713"/>
     <use style="fill:#1f77b4;stroke:#1f77b4;" x="98.273405" xlink:href="#mfe3a02f71e" y="145.736223"/>
     <use style="fill:#1f77b4;stroke:#1f77b4;" x="97.918628" xlink:href="#mfe3a02f71e" y="144.998138"/>
     <use style="fill:#1f77b4;stroke:#1f77b4;" x="97.565228" xlink:href="#mfe3a02f71e" y="144.423871"/>
     <use style="fill:#1f77b4;stroke:#1f77b4;" x="97.216605" xlink:href="#mfe3a02f71e" y="143.887257"/>
     <use style="fill:#1f77b4;stroke:#1f77b4;" x="96.862538" xlink:href="#mfe3a02f71e" y="143.304159"/>
     <use style="fill:#1f77b4;stroke:#1f77b4;" x="96.515108" xlink:href="#mfe3a02f71e" y="142.765166"/>
     <use style="fill:#1f77b4;stroke:#1f77b4;" x="96.16147" xlink:href="#mfe3a02f71e" y="142.151574"/>
     <use style="fill:#1f77b4;stroke:#1f77b4;" x="95.81073" xlink:href="#mfe3a02f71e" y="141.52679"/>
     <use style="fill:#1f77b4;stroke:#1f77b4;" x="95.775327" xlink:href="#mfe3a02f71e" y="141.4814"/>
     <use style="fill:#1f77b4;stroke:#1f77b4;" x="95.74029" xlink:href="#mfe3a02f71e" y="141.435455"/>
     <use style="fill:#1f77b4;stroke:#1f77b4;" x="95.705543" xlink:href="#mfe3a02f71e" y="141.375439"/>
     <use style="fill:#1f77b4;stroke:#1f77b4;" x="95.670223" xlink:href="#mfe3a02f71e" y="141.334832"/>
     <use style="fill:#1f77b4;stroke:#1f77b4;" x="95.635742" xlink:href="#mfe3a02f71e" y="141.278092"/>
     <use style="fill:#1f77b4;stroke:#1f77b4;" x="95.60073" xlink:href="#mfe3a02f71e" y="141.223229"/>
     <use style="fill:#1f77b4;stroke:#1f77b4;" x="95.565599" xlink:href="#mfe3a02f71e" y="141.174991"/>
     <use style="fill:#1f77b4;stroke:#1f77b4;" x="95.530473" xlink:href="#mfe3a02f71e" y="141.112269"/>
     <use style="fill:#1f77b4;stroke:#1f77b4;" x="95.495501" xlink:href="#mfe3a02f71e" y="141.062571"/>
     <use style="fill:#1f77b4;stroke:#1f77b4;" x="95.460371" xlink:href="#mfe3a02f71e" y="141.02728"/>
     <use style="fill:#1f77b4;stroke:#1f77b4;" x="95.425394" xlink:href="#mfe3a02f71e" y="140.965622"/>
     <use style="fill:#1f77b4;stroke:#1f77b4;" x="95.390589" xlink:href="#mfe3a02f71e" y="140.913426"/>
     <use style="fill:#1f77b4;stroke:#1f77b4;" x="95.355212" xlink:href="#mfe3a02f71e" y="140.857136"/>
     <use style="fill:#1f77b4;stroke:#1f77b4;" x="95.319781" xlink:href="#mfe3a02f71e" y="140.822144"/>
     <use style="fill:#1f77b4;stroke:#1f77b4;" x="95.284216" xlink:href="#mfe3a02f71e" y="140.767938"/>
     <use style="fill:#1f77b4;stroke:#1f77b4;" x="95.25058" xlink:href="#mfe3a02f71e" y="140.719439"/>
     <use style="fill:#1f77b4;stroke:#1f77b4;" x="95.215988" xlink:href="#mfe3a02f71e" y="140.662795"/>
     <use style="fill:#1f77b4;stroke:#1f77b4;" x="95.18067" xlink:href="#mfe3a02f71e" y="140.60359"/>
     <use style="fill:#1f77b4;stroke:#1f77b4;" x="95.145786" xlink:href="#mfe3a02f71e" y="140.56383"/>
     <use style="fill:#1f77b4;stroke:#1f77b4;" x="95.110892" xlink:href="#mfe3a02f71e" y="140.510015"/>
     <use style="fill:#1f77b4;stroke:#1f77b4;" x="95.076435" xlink:href="#mfe3a02f71e" y="140.460987"/>
     <use style="fill:#1f77b4;stroke:#1f77b4;" x="95.041497" xlink:href="#mfe3a02f71e" y="140.40807"/>
     <use style="fill:#1f77b4;stroke:#1f77b4;" x="95.006465" xlink:href="#mfe3a02f71e" y="140.35771"/>
     <use style="fill:#1f77b4;stroke:#1f77b4;" x="94.971048" xlink:href="#mfe3a02f71e" y="140.303285"/>
    </g>
   </g>
   <g id="patch_3">
    <path d="M 49.665988 273.312 
L 49.665988 7.2 
" style="fill:none;stroke:#000000;stroke-linecap:square;stroke-linejoin:miter;stroke-width:0.8;"/>
   </g>
   <g id="patch_4">
    <path d="M 406.785988 273.312 
L 406.785988 7.2 
" style="fill:none;stroke:#000000;stroke-linecap:square;stroke-linejoin:miter;stroke-width:0.8;"/>
   </g>
   <g id="patch_5">
    <path d="M 49.665988 273.312 
L 406.785988 273.312 
" style="fill:none;stroke:#000000;stroke-linecap:square;stroke-linejoin:miter;stroke-width:0.8;"/>
   </g>
   <g id="patch_6">
    <path d="M 49.665988 7.2 
L 406.785988 7.2 
" style="fill:none;stroke:#000000;stroke-linecap:square;stroke-linejoin:miter;stroke-width:0.8;"/>
   </g>
   <g id="text_16">
    <g clip-path="url(#p2a997c4696)">
     <!-- 2.000 -->
     <g style="fill:#404688;" transform="translate(81.053076 129.908294)rotate(-62.032962)scale(0.06 -0.06)">
      <use xlink:href="#DejaVuSans-50"/>
      <use x="63.623047" xlink:href="#DejaVuSans-46"/>
      <use x="95.410156" xlink:href="#DejaVuSans-48"/>
      <use x="159.033203" xlink:href="#DejaVuSans-48"/>
      <use x="222.65625" xlink:href="#DejaVuSans-48"/>
     </g>
    </g>
   </g>
   <g id="text_17">
    <g clip-path="url(#p2a997c4696)">
     <!-- 2.500 -->
     <g style="fill:#39558c;" transform="translate(57.321636 49.72954)rotate(-9.660096)scale(0.06 -0.06)">
      <use xlink:href="#DejaVuSans-50"/>
      <use x="63.623047" xlink:href="#DejaVuSans-46"/>
      <use x="95.410156" xlink:href="#DejaVuSans-53"/>
      <use x="159.033203" xlink:href="#DejaVuSans-48"/>
      <use x="222.65625" xlink:href="#DejaVuSans-48"/>
     </g>
    </g>
   </g>
   <g id="text_18">
    <g clip-path="url(#p2a997c4696)">
     <!-- 3.000 -->
     <g style="fill:#33638d;" transform="translate(70.345272 27.062109)rotate(-348.5627)scale(0.06 -0.06)">
      <use xlink:href="#DejaVuSans-51"/>
      <use x="63.623047" xlink:href="#DejaVuSans-46"/>
      <use x="95.410156" xlink:href="#DejaVuSans-48"/>
      <use x="159.033203" xlink:href="#DejaVuSans-48"/>
      <use x="222.65625" xlink:href="#DejaVuSans-48"/>
     </g>
    </g>
   </g>
   <g id="text_19">
    <g clip-path="url(#p2a997c4696)">
     <!-- 3.500 -->
     <g style="fill:#2d718e;" transform="translate(80.614169 30.93655)rotate(-329.901227)scale(0.06 -0.06)">
      <use xlink:href="#DejaVuSans-51"/>
      <use x="63.623047" xlink:href="#DejaVuSans-46"/>
      <use x="95.410156" xlink:href="#DejaVuSans-53"/>
      <use x="159.033203" xlink:href="#DejaVuSans-48"/>
      <use x="222.65625" xlink:href="#DejaVuSans-48"/>
     </g>
    </g>
   </g>
   <g id="text_20">
    <g clip-path="url(#p2a997c4696)">
     <!-- 4.000 -->
     <g style="fill:#287d8e;" transform="translate(85.339239 39.091527)rotate(-316.061471)scale(0.06 -0.06)">
      <use xlink:href="#DejaVuSans-52"/>
      <use x="63.623047" xlink:href="#DejaVuSans-46"/>
      <use x="95.410156" xlink:href="#DejaVuSans-48"/>
      <use x="159.033203" xlink:href="#DejaVuSans-48"/>
      <use x="222.65625" xlink:href="#DejaVuSans-48"/>
     </g>
    </g>
   </g>
   <g id="text_21">
    <g clip-path="url(#p2a997c4696)">
     <!-- 4.500 -->
     <g style="fill:#238a8d;" transform="translate(105.099393 212.14386)rotate(-283.797867)scale(0.06 -0.06)">
      <use xlink:href="#DejaVuSans-52"/>
      <use x="63.623047" xlink:href="#DejaVuSans-46"/>
      <use x="95.410156" xlink:href="#DejaVuSans-53"/>
      <use x="159.033203" xlink:href="#DejaVuSans-48"/>
      <use x="222.65625" xlink:href="#DejaVuSans-48"/>
     </g>
    </g>
   </g>
   <g id="text_22">
    <g clip-path="url(#p2a997c4696)">
     <!-- 5.000 -->
     <g style="fill:#1f968b;" transform="translate(90.054921 55.27534)rotate(-313.858314)scale(0.06 -0.06)">
      <use xlink:href="#DejaVuSans-53"/>
      <use x="63.623047" xlink:href="#DejaVuSans-46"/>
      <use x="95.410156" xlink:href="#DejaVuSans-48"/>
      <use x="159.033203" xlink:href="#DejaVuSans-48"/>
      <use x="222.65625" xlink:href="#DejaVuSans-48"/>
     </g>
    </g>
   </g>
   <g id="text_23">
    <g clip-path="url(#p2a997c4696)">
     <!-- 5.500 -->
     <g style="fill:#20a386;" transform="translate(77.336452 262.864078)rotate(-1.397354)scale(0.06 -0.06)">
      <use xlink:href="#DejaVuSans-53"/>
      <use x="63.623047" xlink:href="#DejaVuSans-46"/>
      <use x="95.410156" xlink:href="#DejaVuSans-53"/>
      <use x="159.033203" xlink:href="#DejaVuSans-48"/>
      <use x="222.65625" xlink:href="#DejaVuSans-48"/>
     </g>
    </g>
   </g>
   <g id="text_24">
    <g clip-path="url(#p2a997c4696)">
     <!-- 5.500 -->
     <g style="fill:#20a386;" transform="translate(90.354663 55.503838)rotate(-314.87079)scale(0.06 -0.06)">
      <use xlink:href="#DejaVuSans-53"/>
      <use x="63.623047" xlink:href="#DejaVuSans-46"/>
      <use x="95.410156" xlink:href="#DejaVuSans-53"/>
      <use x="159.033203" xlink:href="#DejaVuSans-48"/>
      <use x="222.65625" xlink:href="#DejaVuSans-48"/>
     </g>
    </g>
   </g>
   <g id="text_25">
    <g clip-path="url(#p2a997c4696)">
     <!-- 6.000 -->
     <g style="fill:#29af7f;" transform="translate(66.029974 269.73771)rotate(-1.731332)scale(0.06 -0.06)">
      <use xlink:href="#DejaVuSans-54"/>
      <use x="63.623047" xlink:href="#DejaVuSans-46"/>
      <use x="95.410156" xlink:href="#DejaVuSans-48"/>
      <use x="159.033203" xlink:href="#DejaVuSans-48"/>
      <use x="222.65625" xlink:href="#DejaVuSans-48"/>
     </g>
    </g>
   </g>
   <g id="text_26">
    <g clip-path="url(#p2a997c4696)">
     <!-- 6.000 -->
     <g style="fill:#29af7f;" transform="translate(90.766078 55.445326)rotate(-314.405976)scale(0.06 -0.06)">
      <use xlink:href="#DejaVuSans-54"/>
      <use x="63.623047" xlink:href="#DejaVuSans-46"/>
      <use x="95.410156" xlink:href="#DejaVuSans-48"/>
      <use x="159.033203" xlink:href="#DejaVuSans-48"/>
      <use x="222.65625" xlink:href="#DejaVuSans-48"/>
     </g>
    </g>
   </g>
   <g id="text_27">
    <g clip-path="url(#p2a997c4696)">
     <!-- 6.500 -->
     <g style="fill:#3dbc74;" transform="translate(63.742798 273.829691)rotate(-1.001966)scale(0.06 -0.06)">
      <use xlink:href="#DejaVuSans-54"/>
      <use x="63.623047" xlink:href="#DejaVuSans-46"/>
      <use x="95.410156" xlink:href="#DejaVuSans-53"/>
      <use x="159.033203" xlink:href="#DejaVuSans-48"/>
      <use x="222.65625" xlink:href="#DejaVuSans-48"/>
     </g>
    </g>
   </g>
   <g id="text_28">
    <g clip-path="url(#p2a997c4696)">
     <!-- 6.500 -->
     <g style="fill:#3dbc74;" transform="translate(107.183484 230.969715)rotate(-297.424759)scale(0.06 -0.06)">
      <use xlink:href="#DejaVuSans-54"/>
      <use x="63.623047" xlink:href="#DejaVuSans-46"/>
      <use x="95.410156" xlink:href="#DejaVuSans-53"/>
      <use x="159.033203" xlink:href="#DejaVuSans-48"/>
      <use x="222.65625" xlink:href="#DejaVuSans-48"/>
     </g>
    </g>
   </g>
   <g id="text_29">
    <g clip-path="url(#p2a997c4696)">
     <!-- 7.000 -->
     <g style="fill:#56c667;" transform="translate(92.453531 59.02637)rotate(-312.351904)scale(0.06 -0.06)">
      <use xlink:href="#DejaVuSans-55"/>
      <use x="63.623047" xlink:href="#DejaVuSans-46"/>
      <use x="95.410156" xlink:href="#DejaVuSans-48"/>
      <use x="159.033203" xlink:href="#DejaVuSans-48"/>
      <use x="222.65625" xlink:href="#DejaVuSans-48"/>
     </g>
    </g>
   </g>
   <g id="text_30">
    <g clip-path="url(#p2a997c4696)">
     <!-- 7.500 -->
     <g style="fill:#75d054;" transform="translate(108.117997 230.916615)rotate(-296.860444)scale(0.06 -0.06)">
      <use xlink:href="#DejaVuSans-55"/>
      <use x="63.623047" xlink:href="#DejaVuSans-46"/>
      <use x="95.410156" xlink:href="#DejaVuSans-53"/>
      <use x="159.033203" xlink:href="#DejaVuSans-48"/>
      <use x="222.65625" xlink:href="#DejaVuSans-48"/>
     </g>
    </g>
   </g>
   <g id="text_31">
    <g clip-path="url(#p2a997c4696)">
     <!-- 8.000 -->
     <g style="fill:#95d840;" transform="translate(108.396201 230.960487)rotate(-297.327194)scale(0.06 -0.06)">
      <use xlink:href="#DejaVuSans-56"/>
      <use x="63.623047" xlink:href="#DejaVuSans-46"/>
      <use x="95.410156" xlink:href="#DejaVuSans-48"/>
      <use x="159.033203" xlink:href="#DejaVuSans-48"/>
      <use x="222.65625" xlink:href="#DejaVuSans-48"/>
     </g>
    </g>
   </g>
   <g id="text_32">
    <g clip-path="url(#p2a997c4696)">
     <!-- 8.500 -->
     <g style="fill:#bade28;" transform="translate(108.425556 231.212206)rotate(-299.917898)scale(0.06 -0.06)">
      <use xlink:href="#DejaVuSans-56"/>
      <use x="63.623047" xlink:href="#DejaVuSans-46"/>
      <use x="95.410156" xlink:href="#DejaVuSans-53"/>
      <use x="159.033203" xlink:href="#DejaVuSans-48"/>
      <use x="222.65625" xlink:href="#DejaVuSans-48"/>
     </g>
    </g>
   </g>
   <g id="text_33">
    <g clip-path="url(#p2a997c4696)">
     <!-- 9.000 -->
     <g style="fill:#dde318;" transform="translate(108.690935 231.272433)rotate(-300.517701)scale(0.06 -0.06)">
      <use xlink:href="#DejaVuSans-57"/>
      <use x="63.623047" xlink:href="#DejaVuSans-46"/>
      <use x="95.410156" xlink:href="#DejaVuSans-48"/>
      <use x="159.033203" xlink:href="#DejaVuSans-48"/>
      <use x="222.65625" xlink:href="#DejaVuSans-48"/>
     </g>
    </g>
   </g>
   <g id="text_34">
    <g clip-path="url(#p2a997c4696)">
     <!-- 9.500 -->
     <g style="fill:#fde725;" transform="translate(109.051767 231.249155)rotate(-300.286726)scale(0.06 -0.06)">
      <use xlink:href="#DejaVuSans-57"/>
      <use x="63.623047" xlink:href="#DejaVuSans-46"/>
      <use x="95.410156" xlink:href="#DejaVuSans-53"/>
      <use x="159.033203" xlink:href="#DejaVuSans-48"/>
      <use x="222.65625" xlink:href="#DejaVuSans-48"/>
     </g>
    </g>
   </g>
   <g id="text_35">
    <g clip-path="url(#p2a997c4696)">
     <!-- 10.000 -->
     <g style="fill:#440154;" transform="translate(95.582223 70.642364)rotate(-305.987903)scale(0.06 -0.06)">
      <use xlink:href="#DejaVuSans-49"/>
      <use x="63.623047" xlink:href="#DejaVuSans-48"/>
      <use x="127.246094" xlink:href="#DejaVuSans-46"/>
      <use x="159.033203" xlink:href="#DejaVuSans-48"/>
      <use x="222.65625" xlink:href="#DejaVuSans-48"/>
      <use x="286.279297" xlink:href="#DejaVuSans-48"/>
     </g>
    </g>
   </g>
   <g id="text_36">
    <g clip-path="url(#p2a997c4696)">
     <!-- 100.000 -->
     <g style="fill:#440154;" transform="translate(102.976433 68.323749)rotate(-300.570967)scale(0.06 -0.06)">
      <use xlink:href="#DejaVuSans-49"/>
      <use x="63.623047" xlink:href="#DejaVuSans-48"/>
      <use x="127.246094" xlink:href="#DejaVuSans-48"/>
      <use x="190.869141" xlink:href="#DejaVuSans-46"/>
      <use x="222.65625" xlink:href="#DejaVuSans-48"/>
      <use x="286.279297" xlink:href="#DejaVuSans-48"/>
      <use x="349.902344" xlink:href="#DejaVuSans-48"/>
     </g>
    </g>
   </g>
   <g id="text_37">
    <g clip-path="url(#p2a997c4696)">
     <!-- 1000.000 -->
     <g style="fill:#440154;" transform="translate(103.183359 32.258388)rotate(-307.072749)scale(0.06 -0.06)">
      <use xlink:href="#DejaVuSans-49"/>
      <use x="63.623047" xlink:href="#DejaVuSans-48"/>
      <use x="127.246094" xlink:href="#DejaVuSans-48"/>
      <use x="190.869141" xlink:href="#DejaVuSans-48"/>
      <use x="254.492188" xlink:href="#DejaVuSans-46"/>
      <use x="286.279297" xlink:href="#DejaVuSans-48"/>
      <use x="349.902344" xlink:href="#DejaVuSans-48"/>
      <use x="413.525391" xlink:href="#DejaVuSans-48"/>
     </g>
    </g>
   </g>
  </g>
 </g>
 <defs>
  <clipPath id="p2a997c4696">
   <rect height="266.112" width="357.12" x="49.665988" y="7.2"/>
  </clipPath>
 </defs>
</svg>
