<?xml version="1.0" encoding="utf-8" standalone="no"?>
<!DOCTYPE svg PUBLIC "-//W3C//DTD SVG 1.1//EN"
  "http://www.w3.org/Graphics/SVG/1.1/DTD/svg11.dtd">
<!-- Created with matplotlib (https://matplotlib.org/) -->
<svg height="319.368287pt" version="1.1" viewBox="0 0 413.985987 319.368287" width="413.985987pt" xmlns="http://www.w3.org/2000/svg" xmlns:xlink="http://www.w3.org/1999/xlink">
 <metadata>
  <rdf:RDF xmlns:cc="http://creativecommons.org/ns#" xmlns:dc="http://purl.org/dc/elements/1.1/" xmlns:rdf="http://www.w3.org/1999/02/22-rdf-syntax-ns#">
   <cc:Work>
    <dc:type rdf:resource="http://purl.org/dc/dcmitype/StillImage"/>
    <dc:date>2021-09-18T07:57:26.199091</dc:date>
    <dc:format>image/svg+xml</dc:format>
    <dc:creator>
     <cc:Agent>
      <dc:title>Matplotlib v3.3.1, https://matplotlib.org/</dc:title>
     </cc:Agent>
    </dc:creator>
   </cc:Work>
  </rdf:RDF>
 </metadata>
 <defs>
  <style type="text/css">*{stroke-linecap:butt;stroke-linejoin:round;}</style>
 </defs>
 <g id="figure_1">
  <g id="patch_1">
   <path d="M 0 319.368287 
L 413.985987 319.368287 
L 413.985987 0 
L 0 0 
z
" style="fill:#ffffff;"/>
  </g>
  <g id="axes_1">
   <g id="patch_2">
    <path d="M 49.665988 274.766362 
L 406.785988 274.766362 
L 406.785988 8.654362 
L 49.665988 8.654362 
z
" style="fill:#ffffff;"/>
   </g>
   <g id="matplotlib.axis_1">
    <g id="xtick_1">
     <g id="line2d_1">
      <defs>
       <path d="M 0 0 
L 0 3.5 
" id="mffb737422f" style="stroke:#000000;stroke-width:0.8;"/>
      </defs>
      <g>
       <use style="stroke:#000000;stroke-width:0.8;" x="71.435881" xlink:href="#mffb737422f" y="274.766362"/>
      </g>
     </g>
     <g id="text_1">
      <!-- 0 -->
      <g transform="translate(68.254631 289.364799)scale(0.1 -0.1)">
       <defs>
        <path d="M 31.78125 66.40625 
Q 24.171875 66.40625 20.328125 58.90625 
Q 16.5 51.421875 16.5 36.375 
Q 16.5 21.390625 20.328125 13.890625 
Q 24.171875 6.390625 31.78125 6.390625 
Q 39.453125 6.390625 43.28125 13.890625 
Q 47.125 21.390625 47.125 36.375 
Q 47.125 51.421875 43.28125 58.90625 
Q 39.453125 66.40625 31.78125 66.40625 
z
M 31.78125 74.21875 
Q 44.046875 74.21875 50.515625 64.515625 
Q 56.984375 54.828125 56.984375 36.375 
Q 56.984375 17.96875 50.515625 8.265625 
Q 44.046875 -1.421875 31.78125 -1.421875 
Q 19.53125 -1.421875 13.0625 8.265625 
Q 6.59375 17.96875 6.59375 36.375 
Q 6.59375 54.828125 13.0625 64.515625 
Q 19.53125 74.21875 31.78125 74.21875 
z
" id="DejaVuSans-48"/>
       </defs>
       <use xlink:href="#DejaVuSans-48"/>
      </g>
     </g>
    </g>
    <g id="xtick_2">
     <g id="line2d_2">
      <g>
       <use style="stroke:#000000;stroke-width:0.8;" x="114.975667" xlink:href="#mffb737422f" y="274.766362"/>
      </g>
     </g>
     <g id="text_2">
      <!-- 20 -->
      <g transform="translate(108.613167 289.364799)scale(0.1 -0.1)">
       <defs>
        <path d="M 19.1875 8.296875 
L 53.609375 8.296875 
L 53.609375 0 
L 7.328125 0 
L 7.328125 8.296875 
Q 12.9375 14.109375 22.625 23.890625 
Q 32.328125 33.6875 34.8125 36.53125 
Q 39.546875 41.84375 41.421875 45.53125 
Q 43.3125 49.21875 43.3125 52.78125 
Q 43.3125 58.59375 39.234375 62.25 
Q 35.15625 65.921875 28.609375 65.921875 
Q 23.96875 65.921875 18.8125 64.3125 
Q 13.671875 62.703125 7.8125 59.421875 
L 7.8125 69.390625 
Q 13.765625 71.78125 18.9375 73 
Q 24.125 74.21875 28.421875 74.21875 
Q 39.75 74.21875 46.484375 68.546875 
Q 53.21875 62.890625 53.21875 53.421875 
Q 53.21875 48.921875 51.53125 44.890625 
Q 49.859375 40.875 45.40625 35.40625 
Q 44.1875 33.984375 37.640625 27.21875 
Q 31.109375 20.453125 19.1875 8.296875 
z
" id="DejaVuSans-50"/>
       </defs>
       <use xlink:href="#DejaVuSans-50"/>
       <use x="63.623047" xlink:href="#DejaVuSans-48"/>
      </g>
     </g>
    </g>
    <g id="xtick_3">
     <g id="line2d_3">
      <g>
       <use style="stroke:#000000;stroke-width:0.8;" x="158.515453" xlink:href="#mffb737422f" y="274.766362"/>
      </g>
     </g>
     <g id="text_3">
      <!-- 40 -->
      <g transform="translate(152.152953 289.364799)scale(0.1 -0.1)">
       <defs>
        <path d="M 37.796875 64.3125 
L 12.890625 25.390625 
L 37.796875 25.390625 
z
M 35.203125 72.90625 
L 47.609375 72.90625 
L 47.609375 25.390625 
L 58.015625 25.390625 
L 58.015625 17.1875 
L 47.609375 17.1875 
L 47.609375 0 
L 37.796875 0 
L 37.796875 17.1875 
L 4.890625 17.1875 
L 4.890625 26.703125 
z
" id="DejaVuSans-52"/>
       </defs>
       <use xlink:href="#DejaVuSans-52"/>
       <use x="63.623047" xlink:href="#DejaVuSans-48"/>
      </g>
     </g>
    </g>
    <g id="xtick_4">
     <g id="line2d_4">
      <g>
       <use style="stroke:#000000;stroke-width:0.8;" x="202.055239" xlink:href="#mffb737422f" y="274.766362"/>
      </g>
     </g>
     <g id="text_4">
      <!-- 60 -->
      <g transform="translate(195.692739 289.364799)scale(0.1 -0.1)">
       <defs>
        <path d="M 33.015625 40.375 
Q 26.375 40.375 22.484375 35.828125 
Q 18.609375 31.296875 18.609375 23.390625 
Q 18.609375 15.53125 22.484375 10.953125 
Q 26.375 6.390625 33.015625 6.390625 
Q 39.65625 6.390625 43.53125 10.953125 
Q 47.40625 15.53125 47.40625 23.390625 
Q 47.40625 31.296875 43.53125 35.828125 
Q 39.65625 40.375 33.015625 40.375 
z
M 52.59375 71.296875 
L 52.59375 62.3125 
Q 48.875 64.0625 45.09375 64.984375 
Q 41.3125 65.921875 37.59375 65.921875 
Q 27.828125 65.921875 22.671875 59.328125 
Q 17.53125 52.734375 16.796875 39.40625 
Q 19.671875 43.65625 24.015625 45.921875 
Q 28.375 48.1875 33.59375 48.1875 
Q 44.578125 48.1875 50.953125 41.515625 
Q 57.328125 34.859375 57.328125 23.390625 
Q 57.328125 12.15625 50.6875 5.359375 
Q 44.046875 -1.421875 33.015625 -1.421875 
Q 20.359375 -1.421875 13.671875 8.265625 
Q 6.984375 17.96875 6.984375 36.375 
Q 6.984375 53.65625 15.1875 63.9375 
Q 23.390625 74.21875 37.203125 74.21875 
Q 40.921875 74.21875 44.703125 73.484375 
Q 48.484375 72.75 52.59375 71.296875 
z
" id="DejaVuSans-54"/>
       </defs>
       <use xlink:href="#DejaVuSans-54"/>
       <use x="63.623047" xlink:href="#DejaVuSans-48"/>
      </g>
     </g>
    </g>
    <g id="xtick_5">
     <g id="line2d_5">
      <g>
       <use style="stroke:#000000;stroke-width:0.8;" x="245.595025" xlink:href="#mffb737422f" y="274.766362"/>
      </g>
     </g>
     <g id="text_5">
      <!-- 80 -->
      <g transform="translate(239.232525 289.364799)scale(0.1 -0.1)">
       <defs>
        <path d="M 31.78125 34.625 
Q 24.75 34.625 20.71875 30.859375 
Q 16.703125 27.09375 16.703125 20.515625 
Q 16.703125 13.921875 20.71875 10.15625 
Q 24.75 6.390625 31.78125 6.390625 
Q 38.8125 6.390625 42.859375 10.171875 
Q 46.921875 13.96875 46.921875 20.515625 
Q 46.921875 27.09375 42.890625 30.859375 
Q 38.875 34.625 31.78125 34.625 
z
M 21.921875 38.8125 
Q 15.578125 40.375 12.03125 44.71875 
Q 8.5 49.078125 8.5 55.328125 
Q 8.5 64.0625 14.71875 69.140625 
Q 20.953125 74.21875 31.78125 74.21875 
Q 42.671875 74.21875 48.875 69.140625 
Q 55.078125 64.0625 55.078125 55.328125 
Q 55.078125 49.078125 51.53125 44.71875 
Q 48 40.375 41.703125 38.8125 
Q 48.828125 37.15625 52.796875 32.3125 
Q 56.78125 27.484375 56.78125 20.515625 
Q 56.78125 9.90625 50.3125 4.234375 
Q 43.84375 -1.421875 31.78125 -1.421875 
Q 19.734375 -1.421875 13.25 4.234375 
Q 6.78125 9.90625 6.78125 20.515625 
Q 6.78125 27.484375 10.78125 32.3125 
Q 14.796875 37.15625 21.921875 38.8125 
z
M 18.3125 54.390625 
Q 18.3125 48.734375 21.84375 45.5625 
Q 25.390625 42.390625 31.78125 42.390625 
Q 38.140625 42.390625 41.71875 45.5625 
Q 45.3125 48.734375 45.3125 54.390625 
Q 45.3125 60.0625 41.71875 63.234375 
Q 38.140625 66.40625 31.78125 66.40625 
Q 25.390625 66.40625 21.84375 63.234375 
Q 18.3125 60.0625 18.3125 54.390625 
z
" id="DejaVuSans-56"/>
       </defs>
       <use xlink:href="#DejaVuSans-56"/>
       <use x="63.623047" xlink:href="#DejaVuSans-48"/>
      </g>
     </g>
    </g>
    <g id="xtick_6">
     <g id="line2d_6">
      <g>
       <use style="stroke:#000000;stroke-width:0.8;" x="289.134811" xlink:href="#mffb737422f" y="274.766362"/>
      </g>
     </g>
     <g id="text_6">
      <!-- 100 -->
      <g transform="translate(279.591061 289.364799)scale(0.1 -0.1)">
       <defs>
        <path d="M 12.40625 8.296875 
L 28.515625 8.296875 
L 28.515625 63.921875 
L 10.984375 60.40625 
L 10.984375 69.390625 
L 28.421875 72.90625 
L 38.28125 72.90625 
L 38.28125 8.296875 
L 54.390625 8.296875 
L 54.390625 0 
L 12.40625 0 
z
" id="DejaVuSans-49"/>
       </defs>
       <use xlink:href="#DejaVuSans-49"/>
       <use x="63.623047" xlink:href="#DejaVuSans-48"/>
       <use x="127.246094" xlink:href="#DejaVuSans-48"/>
      </g>
     </g>
    </g>
    <g id="xtick_7">
     <g id="line2d_7">
      <g>
       <use style="stroke:#000000;stroke-width:0.8;" x="332.674598" xlink:href="#mffb737422f" y="274.766362"/>
      </g>
     </g>
     <g id="text_7">
      <!-- 120 -->
      <g transform="translate(323.130848 289.364799)scale(0.1 -0.1)">
       <use xlink:href="#DejaVuSans-49"/>
       <use x="63.623047" xlink:href="#DejaVuSans-50"/>
       <use x="127.246094" xlink:href="#DejaVuSans-48"/>
      </g>
     </g>
    </g>
    <g id="xtick_8">
     <g id="line2d_8">
      <g>
       <use style="stroke:#000000;stroke-width:0.8;" x="376.214384" xlink:href="#mffb737422f" y="274.766362"/>
      </g>
     </g>
     <g id="text_8">
      <!-- 140 -->
      <g transform="translate(366.670634 289.364799)scale(0.1 -0.1)">
       <use xlink:href="#DejaVuSans-49"/>
       <use x="63.623047" xlink:href="#DejaVuSans-52"/>
       <use x="127.246094" xlink:href="#DejaVuSans-48"/>
      </g>
     </g>
    </g>
    <g id="text_9">
     <!-- 1st PC: 85.65 % -->
     <g transform="translate(159.505587 308.574587)scale(0.1728 -0.1728)">
      <defs>
       <path d="M 44.28125 53.078125 
L 44.28125 44.578125 
Q 40.484375 46.53125 36.375 47.5 
Q 32.28125 48.484375 27.875 48.484375 
Q 21.1875 48.484375 17.84375 46.4375 
Q 14.5 44.390625 14.5 40.28125 
Q 14.5 37.15625 16.890625 35.375 
Q 19.28125 33.59375 26.515625 31.984375 
L 29.59375 31.296875 
Q 39.15625 29.25 43.1875 25.515625 
Q 47.21875 21.78125 47.21875 15.09375 
Q 47.21875 7.46875 41.1875 3.015625 
Q 35.15625 -1.421875 24.609375 -1.421875 
Q 20.21875 -1.421875 15.453125 -0.5625 
Q 10.6875 0.296875 5.421875 2 
L 5.421875 11.28125 
Q 10.40625 8.6875 15.234375 7.390625 
Q 20.0625 6.109375 24.8125 6.109375 
Q 31.15625 6.109375 34.5625 8.28125 
Q 37.984375 10.453125 37.984375 14.40625 
Q 37.984375 18.0625 35.515625 20.015625 
Q 33.0625 21.96875 24.703125 23.78125 
L 21.578125 24.515625 
Q 13.234375 26.265625 9.515625 29.90625 
Q 5.8125 33.546875 5.8125 39.890625 
Q 5.8125 47.609375 11.28125 51.796875 
Q 16.75 56 26.8125 56 
Q 31.78125 56 36.171875 55.265625 
Q 40.578125 54.546875 44.28125 53.078125 
z
" id="DejaVuSans-115"/>
       <path d="M 18.3125 70.21875 
L 18.3125 54.6875 
L 36.8125 54.6875 
L 36.8125 47.703125 
L 18.3125 47.703125 
L 18.3125 18.015625 
Q 18.3125 11.328125 20.140625 9.421875 
Q 21.96875 7.515625 27.59375 7.515625 
L 36.8125 7.515625 
L 36.8125 0 
L 27.59375 0 
Q 17.1875 0 13.234375 3.875 
Q 9.28125 7.765625 9.28125 18.015625 
L 9.28125 47.703125 
L 2.6875 47.703125 
L 2.6875 54.6875 
L 9.28125 54.6875 
L 9.28125 70.21875 
z
" id="DejaVuSans-116"/>
       <path id="DejaVuSans-32"/>
       <path d="M 19.671875 64.796875 
L 19.671875 37.40625 
L 32.078125 37.40625 
Q 38.96875 37.40625 42.71875 40.96875 
Q 46.484375 44.53125 46.484375 51.125 
Q 46.484375 57.671875 42.71875 61.234375 
Q 38.96875 64.796875 32.078125 64.796875 
z
M 9.8125 72.90625 
L 32.078125 72.90625 
Q 44.34375 72.90625 50.609375 67.359375 
Q 56.890625 61.8125 56.890625 51.125 
Q 56.890625 40.328125 50.609375 34.8125 
Q 44.34375 29.296875 32.078125 29.296875 
L 19.671875 29.296875 
L 19.671875 0 
L 9.8125 0 
z
" id="DejaVuSans-80"/>
       <path d="M 64.40625 67.28125 
L 64.40625 56.890625 
Q 59.421875 61.53125 53.78125 63.8125 
Q 48.140625 66.109375 41.796875 66.109375 
Q 29.296875 66.109375 22.65625 58.46875 
Q 16.015625 50.828125 16.015625 36.375 
Q 16.015625 21.96875 22.65625 14.328125 
Q 29.296875 6.6875 41.796875 6.6875 
Q 48.140625 6.6875 53.78125 8.984375 
Q 59.421875 11.28125 64.40625 15.921875 
L 64.40625 5.609375 
Q 59.234375 2.09375 53.4375 0.328125 
Q 47.65625 -1.421875 41.21875 -1.421875 
Q 24.65625 -1.421875 15.125 8.703125 
Q 5.609375 18.84375 5.609375 36.375 
Q 5.609375 53.953125 15.125 64.078125 
Q 24.65625 74.21875 41.21875 74.21875 
Q 47.75 74.21875 53.53125 72.484375 
Q 59.328125 70.75 64.40625 67.28125 
z
" id="DejaVuSans-67"/>
       <path d="M 11.71875 12.40625 
L 22.015625 12.40625 
L 22.015625 0 
L 11.71875 0 
z
M 11.71875 51.703125 
L 22.015625 51.703125 
L 22.015625 39.3125 
L 11.71875 39.3125 
z
" id="DejaVuSans-58"/>
       <path d="M 10.796875 72.90625 
L 49.515625 72.90625 
L 49.515625 64.59375 
L 19.828125 64.59375 
L 19.828125 46.734375 
Q 21.96875 47.46875 24.109375 47.828125 
Q 26.265625 48.1875 28.421875 48.1875 
Q 40.625 48.1875 47.75 41.5 
Q 54.890625 34.8125 54.890625 23.390625 
Q 54.890625 11.625 47.5625 5.09375 
Q 40.234375 -1.421875 26.90625 -1.421875 
Q 22.3125 -1.421875 17.546875 -0.640625 
Q 12.796875 0.140625 7.71875 1.703125 
L 7.71875 11.625 
Q 12.109375 9.234375 16.796875 8.0625 
Q 21.484375 6.890625 26.703125 6.890625 
Q 35.15625 6.890625 40.078125 11.328125 
Q 45.015625 15.765625 45.015625 23.390625 
Q 45.015625 31 40.078125 35.4375 
Q 35.15625 39.890625 26.703125 39.890625 
Q 22.75 39.890625 18.8125 39.015625 
Q 14.890625 38.140625 10.796875 36.28125 
z
" id="DejaVuSans-53"/>
       <path d="M 10.6875 12.40625 
L 21 12.40625 
L 21 0 
L 10.6875 0 
z
" id="DejaVuSans-46"/>
       <path d="M 72.703125 32.078125 
Q 68.453125 32.078125 66.03125 28.46875 
Q 63.625 24.859375 63.625 18.40625 
Q 63.625 12.0625 66.03125 8.421875 
Q 68.453125 4.78125 72.703125 4.78125 
Q 76.859375 4.78125 79.265625 8.421875 
Q 81.6875 12.0625 81.6875 18.40625 
Q 81.6875 24.8125 79.265625 28.4375 
Q 76.859375 32.078125 72.703125 32.078125 
z
M 72.703125 38.28125 
Q 80.421875 38.28125 84.953125 32.90625 
Q 89.5 27.546875 89.5 18.40625 
Q 89.5 9.28125 84.9375 3.921875 
Q 80.375 -1.421875 72.703125 -1.421875 
Q 64.890625 -1.421875 60.34375 3.921875 
Q 55.8125 9.28125 55.8125 18.40625 
Q 55.8125 27.59375 60.375 32.9375 
Q 64.9375 38.28125 72.703125 38.28125 
z
M 22.3125 68.015625 
Q 18.109375 68.015625 15.6875 64.375 
Q 13.28125 60.75 13.28125 54.390625 
Q 13.28125 47.953125 15.671875 44.328125 
Q 18.0625 40.71875 22.3125 40.71875 
Q 26.5625 40.71875 28.96875 44.328125 
Q 31.390625 47.953125 31.390625 54.390625 
Q 31.390625 60.6875 28.953125 64.34375 
Q 26.515625 68.015625 22.3125 68.015625 
z
M 66.40625 74.21875 
L 74.21875 74.21875 
L 28.609375 -1.421875 
L 20.796875 -1.421875 
z
M 22.3125 74.21875 
Q 30.03125 74.21875 34.609375 68.875 
Q 39.203125 63.53125 39.203125 54.390625 
Q 39.203125 45.171875 34.640625 39.84375 
Q 30.078125 34.515625 22.3125 34.515625 
Q 14.546875 34.515625 10.03125 39.859375 
Q 5.515625 45.21875 5.515625 54.390625 
Q 5.515625 63.484375 10.046875 68.84375 
Q 14.59375 74.21875 22.3125 74.21875 
z
" id="DejaVuSans-37"/>
      </defs>
      <use xlink:href="#DejaVuSans-49"/>
      <use x="63.623047" xlink:href="#DejaVuSans-115"/>
      <use x="115.722656" xlink:href="#DejaVuSans-116"/>
      <use x="154.931641" xlink:href="#DejaVuSans-32"/>
      <use x="186.71875" xlink:href="#DejaVuSans-80"/>
      <use x="247.021484" xlink:href="#DejaVuSans-67"/>
      <use x="316.845703" xlink:href="#DejaVuSans-58"/>
      <use x="350.537109" xlink:href="#DejaVuSans-32"/>
      <use x="382.324219" xlink:href="#DejaVuSans-56"/>
      <use x="445.947266" xlink:href="#DejaVuSans-53"/>
      <use x="509.570312" xlink:href="#DejaVuSans-46"/>
      <use x="541.357422" xlink:href="#DejaVuSans-54"/>
      <use x="604.980469" xlink:href="#DejaVuSans-53"/>
      <use x="668.603516" xlink:href="#DejaVuSans-32"/>
      <use x="700.390625" xlink:href="#DejaVuSans-37"/>
     </g>
    </g>
   </g>
   <g id="matplotlib.axis_2">
    <g id="ytick_1">
     <g id="line2d_9">
      <defs>
       <path d="M 0 0 
L -3.5 0 
" id="m29e4355779" style="stroke:#000000;stroke-width:0.8;"/>
      </defs>
      <g>
       <use style="stroke:#000000;stroke-width:0.8;" x="49.665988" xlink:href="#m29e4355779" y="259.076066"/>
      </g>
     </g>
     <g id="text_10">
      <!-- −5 -->
      <g transform="translate(27.9238 262.875285)scale(0.1 -0.1)">
       <defs>
        <path d="M 10.59375 35.5 
L 73.1875 35.5 
L 73.1875 27.203125 
L 10.59375 27.203125 
z
" id="DejaVuSans-8722"/>
       </defs>
       <use xlink:href="#DejaVuSans-8722"/>
       <use x="83.789062" xlink:href="#DejaVuSans-53"/>
      </g>
     </g>
    </g>
    <g id="ytick_2">
     <g id="line2d_10">
      <g>
       <use style="stroke:#000000;stroke-width:0.8;" x="49.665988" xlink:href="#m29e4355779" y="209.460696"/>
      </g>
     </g>
     <g id="text_11">
      <!-- 0 -->
      <g transform="translate(36.303488 213.259915)scale(0.1 -0.1)">
       <use xlink:href="#DejaVuSans-48"/>
      </g>
     </g>
    </g>
    <g id="ytick_3">
     <g id="line2d_11">
      <g>
       <use style="stroke:#000000;stroke-width:0.8;" x="49.665988" xlink:href="#m29e4355779" y="159.845327"/>
      </g>
     </g>
     <g id="text_12">
      <!-- 5 -->
      <g transform="translate(36.303488 163.644546)scale(0.1 -0.1)">
       <use xlink:href="#DejaVuSans-53"/>
      </g>
     </g>
    </g>
    <g id="ytick_4">
     <g id="line2d_12">
      <g>
       <use style="stroke:#000000;stroke-width:0.8;" x="49.665988" xlink:href="#m29e4355779" y="110.229958"/>
      </g>
     </g>
     <g id="text_13">
      <!-- 10 -->
      <g transform="translate(29.940988 114.029176)scale(0.1 -0.1)">
       <use xlink:href="#DejaVuSans-49"/>
       <use x="63.623047" xlink:href="#DejaVuSans-48"/>
      </g>
     </g>
    </g>
    <g id="ytick_5">
     <g id="line2d_13">
      <g>
       <use style="stroke:#000000;stroke-width:0.8;" x="49.665988" xlink:href="#m29e4355779" y="60.614588"/>
      </g>
     </g>
     <g id="text_14">
      <!-- 15 -->
      <g transform="translate(29.940988 64.413807)scale(0.1 -0.1)">
       <use xlink:href="#DejaVuSans-49"/>
       <use x="63.623047" xlink:href="#DejaVuSans-53"/>
      </g>
     </g>
    </g>
    <g id="ytick_6">
     <g id="line2d_14">
      <g>
       <use style="stroke:#000000;stroke-width:0.8;" x="49.665988" xlink:href="#m29e4355779" y="10.999219"/>
      </g>
     </g>
     <g id="text_15">
      <!-- 20 -->
      <g transform="translate(29.940988 14.798438)scale(0.1 -0.1)">
       <use xlink:href="#DejaVuSans-50"/>
       <use x="63.623047" xlink:href="#DejaVuSans-48"/>
      </g>
     </g>
    </g>
    <g id="text_16">
     <!-- 2nd PC: 6.76 % -->
     <g transform="translate(20.3301 208.006162)rotate(-90)scale(0.1728 -0.1728)">
      <defs>
       <path d="M 54.890625 33.015625 
L 54.890625 0 
L 45.90625 0 
L 45.90625 32.71875 
Q 45.90625 40.484375 42.875 44.328125 
Q 39.84375 48.1875 33.796875 48.1875 
Q 26.515625 48.1875 22.3125 43.546875 
Q 18.109375 38.921875 18.109375 30.90625 
L 18.109375 0 
L 9.078125 0 
L 9.078125 54.6875 
L 18.109375 54.6875 
L 18.109375 46.1875 
Q 21.34375 51.125 25.703125 53.5625 
Q 30.078125 56 35.796875 56 
Q 45.21875 56 50.046875 50.171875 
Q 54.890625 44.34375 54.890625 33.015625 
z
" id="DejaVuSans-110"/>
       <path d="M 45.40625 46.390625 
L 45.40625 75.984375 
L 54.390625 75.984375 
L 54.390625 0 
L 45.40625 0 
L 45.40625 8.203125 
Q 42.578125 3.328125 38.25 0.953125 
Q 33.9375 -1.421875 27.875 -1.421875 
Q 17.96875 -1.421875 11.734375 6.484375 
Q 5.515625 14.40625 5.515625 27.296875 
Q 5.515625 40.1875 11.734375 48.09375 
Q 17.96875 56 27.875 56 
Q 33.9375 56 38.25 53.625 
Q 42.578125 51.265625 45.40625 46.390625 
z
M 14.796875 27.296875 
Q 14.796875 17.390625 18.875 11.75 
Q 22.953125 6.109375 30.078125 6.109375 
Q 37.203125 6.109375 41.296875 11.75 
Q 45.40625 17.390625 45.40625 27.296875 
Q 45.40625 37.203125 41.296875 42.84375 
Q 37.203125 48.484375 30.078125 48.484375 
Q 22.953125 48.484375 18.875 42.84375 
Q 14.796875 37.203125 14.796875 27.296875 
z
" id="DejaVuSans-100"/>
       <path d="M 8.203125 72.90625 
L 55.078125 72.90625 
L 55.078125 68.703125 
L 28.609375 0 
L 18.3125 0 
L 43.21875 64.59375 
L 8.203125 64.59375 
z
" id="DejaVuSans-55"/>
      </defs>
      <use xlink:href="#DejaVuSans-50"/>
      <use x="63.623047" xlink:href="#DejaVuSans-110"/>
      <use x="127.001953" xlink:href="#DejaVuSans-100"/>
      <use x="190.478516" xlink:href="#DejaVuSans-32"/>
      <use x="222.265625" xlink:href="#DejaVuSans-80"/>
      <use x="282.568359" xlink:href="#DejaVuSans-67"/>
      <use x="352.392578" xlink:href="#DejaVuSans-58"/>
      <use x="386.083984" xlink:href="#DejaVuSans-32"/>
      <use x="417.871094" xlink:href="#DejaVuSans-54"/>
      <use x="481.494141" xlink:href="#DejaVuSans-46"/>
      <use x="513.28125" xlink:href="#DejaVuSans-55"/>
      <use x="576.904297" xlink:href="#DejaVuSans-54"/>
      <use x="640.527344" xlink:href="#DejaVuSans-32"/>
      <use x="672.314453" xlink:href="#DejaVuSans-37"/>
     </g>
    </g>
   </g>
   <g id="LineCollection_1"/>
   <g id="LineCollection_2">
    <path clip-path="url(#p55b662c44a)" d="M 71.435881 216.670965 
L 71.197264 212.437619 
L 71.34979 206.814543 
L 71.435881 205.762251 
L 72.524375 203.122481 
L 72.556851 206.814543 
L 72.524375 208.000701 
L 71.803157 212.437619 
L 71.435881 216.670965 
" style="fill:none;stroke:#481467;stroke-width:1.5;"/>
   </g>
   <g id="LineCollection_3">
    <path clip-path="url(#p55b662c44a)" d="M 73.377313 195.910425 
L 73.359887 201.191468 
L 73.03906 206.814543 
L 72.714715 212.437619 
L 72.524375 216.265783 
L 72.232628 218.060694 
L 71.538817 223.683769 
L 71.435881 224.912881 
L 70.347386 224.969016 
L 70.222669 223.683769 
L 69.924976 218.060694 
L 69.859519 212.437619 
L 70.007431 206.814543 
L 70.334474 201.191468 
L 70.347386 201.057264 
L 71.130362 195.568393 
L 71.435881 193.611344 
L 71.620812 192.933929 
" style="fill:none;stroke:#482576;stroke-width:1.5;"/>
   </g>
   <g id="LineCollection_4">
    <path clip-path="url(#p55b662c44a)" d="M 69.875692 229.306844 
L 69.350181 223.683769 
L 69.258891 222.023309 
L 69.064131 218.060694 
L 68.999275 212.437619 
L 69.139871 206.814543 
L 69.258891 204.7171 
L 69.39755 202.417559 
" style="fill:none;stroke:#453781;stroke-width:1.5;"/>
    <path clip-path="url(#p55b662c44a)" d="M 70.792728 189.885953 
L 71.435881 185.223907 
L 71.621386 184.322243 
L 72.412176 178.699167 
L 72.524375 177.509252 
L 73.61287 177.283887 
L 73.642892 178.699167 
L 73.757569 184.322243 
L 73.828203 189.945318 
L 73.827783 195.568393 
L 73.741298 201.191468 
L 73.61287 205.624837 
L 73.521269 206.814543 
L 72.969153 212.437619 
L 72.611738 218.060694 
L 72.524375 219.352928 
L 71.84914 223.683769 
L 71.435881 228.618283 
L 71.14831 229.306844 
" style="fill:none;stroke:#453781;stroke-width:1.5;"/>
   </g>
   <g id="LineCollection_5">
    <path clip-path="url(#p55b662c44a)" d="M 68.99129 229.306844 
L 68.550292 223.683769 
L 68.28415 218.060694 
L 68.215887 212.437619 
L 68.327726 206.814543 
L 68.587616 201.191468 
L 69.024173 195.568393 
L 69.258891 193.590313 
L 69.68516 189.945318 
L 70.347386 184.662762 
L 70.394592 184.322243 
L 70.977658 178.699167 
L 71.410984 173.076092 
L 71.435881 172.600761 
L 71.7556 167.453017 
L 71.978375 161.829942 
L 72.10991 156.206867 
L 72.163539 150.583791 
L 72.146721 144.960716 
L 72.064797 139.337641 
L 71.92863 133.714566 
L 71.735115 128.091491 
L 71.435881 123.196446 
L 71.400457 122.468415 
L 71.11726 116.84534 
L 70.83674 111.222265 
L 70.508446 105.59919 
L 70.347386 103.748862 
L 70.173075 99.976115 
L 69.998952 94.353039 
L 70.181462 88.729964 
L 70.347386 88.318601 
L 70.360712 88.729964 
L 70.514138 94.353039 
L 71.021905 99.976115 
L 71.435881 100.979951 
L 71.525185 103.67344 
" style="fill:none;stroke:#404688;stroke-width:1.5;"/>
    <path clip-path="url(#p55b662c44a)" d="M 72.602621 117.208611 
L 72.799598 122.468415 
L 73.109277 128.091491 
L 73.61287 132.928106 
L 73.635836 133.714566 
L 73.725214 139.337641 
L 73.773719 144.960716 
L 73.810567 150.583791 
L 73.860789 156.206867 
L 73.924868 161.829942 
L 73.999197 167.453017 
L 74.077532 173.076092 
L 74.144608 178.699167 
L 74.17895 184.322243 
L 74.16457 189.945318 
L 74.08249 195.568393 
L 73.922725 201.191468 
L 73.708839 206.814543 
L 73.61287 208.76109 
L 73.223591 212.437619 
L 72.746298 218.060694 
L 72.524375 221.343284 
L 72.159463 223.683769 
L 71.542711 229.306844 
" style="fill:none;stroke:#404688;stroke-width:1.5;"/>
   </g>
   <g id="LineCollection_6">
    <path clip-path="url(#p55b662c44a)" d="M 68.156862 229.306844 
L 67.427994 223.683769 
L 67.081902 218.651198 
L 66.990251 218.060694 
L 66.859676 212.437619 
L 67.081902 207.965387 
L 67.110294 206.814543 
L 67.379317 201.191468 
L 67.80432 195.568393 
L 68.170397 192.538525 
L 68.414222 189.945318 
L 69.134342 184.322243 
L 69.258891 183.275995 
L 69.66608 178.699167 
L 70.039601 173.076092 
L 70.282596 167.453017 
L 70.347386 164.608036 
L 70.402845 161.829942 
L 70.444139 156.206867 
L 70.442233 150.583791 
L 70.417826 144.960716 
L 70.388389 139.337641 
L 70.354454 133.714566 
L 70.347386 133.275325 
L 70.228932 128.091491 
L 69.984107 122.468415 
L 69.671027 116.84534 
L 69.328376 111.222265 
L 69.258891 110.272852 
L 68.818839 105.59919 
L 68.376955 99.976115 
L 68.170397 97.344187 
L 67.851403 94.353039 
L 67.354633 88.729964 
L 67.081902 85.417825 
L 66.790466 83.106889 
L 66.217133 77.483814 
L 65.993407 75.022139 
L 65.483191 71.860739 
L 64.904913 67.086589 
L 64.637403 66.237663 
L 63.816418 62.657406 
L 62.727923 63.509404 
L 62.31012 66.237663 
L 61.771814 71.860739 
L 61.639429 73.990195 
L 61.43796 77.483814 
L 61.183654 83.106889 
L 60.978184 88.729964 
L 60.80044 94.353039 
L 60.640885 99.976115 
L 60.550934 103.383017 
L 60.482553 105.59919 
L 60.312118 111.222265 
L 60.135398 116.84534 
L 59.951505 122.468415 
L 59.766887 128.091491 
L 59.585912 133.714566 
L 59.462439 137.540268 
L 59.390128 139.337641 
L 59.158622 144.960716 
L 59.018287 148.473904 
" style="fill:none;stroke:#39558c;stroke-width:1.5;"/>
    <path clip-path="url(#p55b662c44a)" d="M 58.521925 164.060396 
L 58.451162 167.453017 
L 58.373945 170.97305 
L 58.31523 173.076092 
L 58.14349 178.699167 
L 57.992294 184.322243 
L 57.910935 189.945318 
L 57.864674 195.568393 
L 57.798982 201.191468 
L 57.764871 206.814543 
L 57.741328 212.437619 
L 57.705834 218.060694 
L 57.651577 223.683769 
L 57.563628 229.306844 
" style="fill:none;stroke:#39558c;stroke-width:1.5;"/>
    <path clip-path="url(#p55b662c44a)" d="M 69.139757 60.614588 
L 69.258891 61.488171 
L 69.468897 66.237663 
L 69.832673 71.860739 
L 70.347386 76.377983 
L 70.390313 77.483814 
L 70.615678 83.106889 
L 70.988934 88.729964 
L 71.435881 92.60994 
L 71.503921 94.353039 
L 71.751037 99.976115 
L 72.184968 105.59919 
L 72.524375 108.461572 
L 72.640925 111.222265 
L 72.93006 116.84534 
L 73.393852 122.468415 
L 73.61287 124.640282 
L 73.752005 128.091491 
L 73.976716 133.714566 
L 74.178622 139.337641 
L 74.324587 144.960716 
L 74.417129 150.583791 
L 74.492214 156.206867 
L 74.556467 161.829942 
L 74.607975 167.453017 
L 74.642751 173.076092 
L 74.646324 178.699167 
L 74.600331 184.322243 
L 74.500936 189.945318 
L 74.337198 195.568393 
L 74.104152 201.191468 
L 73.827314 206.814543 
L 73.61287 211.164119 
L 73.478029 212.437619 
L 72.880858 218.060694 
L 72.524375 223.33364 
L 72.481376 223.609431 
" style="fill:none;stroke:#39558c;stroke-width:1.5;"/>
   </g>
   <g id="LineCollection_7">
    <path clip-path="url(#p55b662c44a)" d="M 69.519684 60.614588 
L 69.895972 66.237663 
L 70.347386 70.697006 
L 70.395125 71.860739 
L 70.632459 77.483814 
L 70.982574 83.106889 
L 71.435881 87.665347 
L 71.478701 88.729964 
L 71.7168 94.353039 
L 72.084835 99.976115 
L 72.472385 103.712601 
" style="fill:none;stroke:#33638d;stroke-width:1.5;"/>
    <path clip-path="url(#p55b662c44a)" d="M 73.406792 118.21487 
L 73.61287 120.294859 
L 73.712508 122.468415 
L 73.989574 128.091491 
L 74.317596 133.714566 
L 74.63203 139.337641 
L 74.701365 141.171251 
L 74.777266 144.960716 
L 74.849913 150.583791 
L 74.898067 156.206867 
L 74.929447 161.829942 
L 74.945395 167.453017 
L 74.948447 173.076092 
L 74.930613 178.699167 
L 74.872757 184.322243 
L 74.770807 189.945318 
L 74.701365 192.670516 
L 74.591905 195.568393 
L 74.285578 201.191468 
L 73.945789 206.814543 
L 73.645679 212.437619 
L 73.61287 212.975918 
L 73.015419 218.060694 
L 72.583074 223.683769 
L 72.524375 224.418667 
L 71.805139 229.306844 
" style="fill:none;stroke:#33638d;stroke-width:1.5;"/>
   </g>
   <g id="LineCollection_8">
    <path clip-path="url(#p55b662c44a)" d="M 69.80641 60.614588 
L 70.323048 66.237663 
L 70.347386 66.478091 
L 70.568194 71.860739 
L 70.874605 77.483814 
L 71.34947 83.106889 
L 71.435881 83.975834 
L 71.627097 88.729964 
L 71.929679 94.353039 
L 72.418634 99.976115 
L 72.524375 100.995597 
L 72.647095 103.787348 
" style="fill:none;stroke:#2d718e;stroke-width:1.5;"/>
    <path clip-path="url(#p55b662c44a)" d="M 73.665151 117.993141 
L 73.870302 122.468415 
L 74.227143 128.091491 
L 74.658476 133.714566 
L 74.701365 134.44176 
L 74.855814 139.337641 
L 75.017438 144.960716 
L 75.129455 150.583791 
L 75.192196 156.206867 
L 75.225434 161.829942 
L 75.233644 167.453017 
L 75.224116 173.076092 
L 75.188109 178.699167 
L 75.098204 184.322243 
L 74.942635 189.945318 
L 74.763472 195.568393 
L 74.701365 197.290502 
L 74.467005 201.191468 
L 74.064264 206.814543 
L 73.71548 212.437619 
L 73.61287 214.12113 
L 73.149979 218.060694 
L 72.654302 223.683769 
L 72.524375 225.31044 
L 71.936352 229.306844 
" style="fill:none;stroke:#2d718e;stroke-width:1.5;"/>
   </g>
   <g id="LineCollection_9">
    <path clip-path="url(#p55b662c44a)" d="M 70.093135 60.614588 
L 70.347386 63.339659 
L 70.470375 66.237663 
L 70.741264 71.860739 
L 71.116751 77.483814 
L 71.435881 81.042574 
L 71.519674 83.106889 
L 71.775493 88.729964 
L 72.142557 94.353039 
L 72.524375 98.425012 
L 72.59314 99.976115 
L 72.789961 103.999645 
" style="fill:none;stroke:#287d8e;stroke-width:1.5;"/>
    <path clip-path="url(#p55b662c44a)" d="M 73.797944 118.276631 
L 74.028096 122.468415 
L 74.464712 128.091491 
L 74.701365 131.08636 
L 74.813018 133.714566 
L 75.038145 139.337641 
L 75.257609 144.960716 
L 75.408996 150.583791 
L 75.486325 156.206867 
L 75.52142 161.829942 
L 75.521893 167.453017 
L 75.499786 173.076092 
L 75.445606 178.699167 
L 75.323652 184.322243 
L 75.114463 189.945318 
L 74.872382 195.568393 
L 74.701365 200.310395 
L 74.648432 201.191468 
L 74.182739 206.814543 
L 73.785281 212.437619 
L 73.61287 215.266342 
L 73.284539 218.060694 
L 72.725531 223.683769 
L 72.524375 226.202212 
L 72.067566 229.306844 
" style="fill:none;stroke:#287d8e;stroke-width:1.5;"/>
   </g>
   <g id="LineCollection_10">
    <path clip-path="url(#p55b662c44a)" d="M 70.358939 60.614588 
L 70.600797 66.237663 
L 70.914333 71.860739 
L 71.358897 77.483814 
L 71.435881 78.342297 
L 71.629283 83.106889 
L 71.92389 88.729964 
L 72.355436 94.353039 
L 72.524375 96.154725 
L 72.693788 99.976115 
L 73.009675 105.59919 
L 73.015124 105.663032 
" style="fill:none;stroke:#238a8d;stroke-width:1.5;"/>
    <path clip-path="url(#p55b662c44a)" d="M 74.024177 119.941228 
L 74.18589 122.468415 
L 74.701365 128.084853 
L 74.701708 128.091491 
L 74.940742 133.714566 
L 75.220476 139.337641 
L 75.497781 144.960716 
L 75.688538 150.583791 
L 75.780454 156.206867 
L 75.789859 157.644789 
L 75.802832 161.829942 
L 75.799598 167.453017 
L 75.789859 170.679925 
L 75.775455 173.076092 
L 75.703103 178.699167 
L 75.549099 184.322243 
L 75.286291 189.945318 
L 74.981293 195.568393 
L 74.744218 201.191468 
L 74.701365 202.166196 
L 74.301213 206.814543 
L 73.855082 212.437619 
L 73.61287 216.411554 
L 73.419099 218.060694 
L 72.796759 223.683769 
L 72.524375 227.093984 
L 72.198779 229.306844 
" style="fill:none;stroke:#238a8d;stroke-width:1.5;"/>
   </g>
   <g id="LineCollection_11">
    <path clip-path="url(#p55b662c44a)" d="M 70.460944 60.614588 
L 70.731219 66.237663 
L 71.087402 71.860739 
L 71.435881 76.060986 
L 71.4933 77.483814 
L 71.738891 83.106889 
L 72.072286 88.729964 
L 72.524375 93.996239 
L 72.539907 94.353039 
L 72.794435 99.976115 
L 73.070561 104.328911 
" style="fill:none;stroke:#1f968b;stroke-width:1.5;"/>
    <path clip-path="url(#p55b662c44a)" d="M 74.064473 118.647436 
L 74.343684 122.468415 
L 74.701365 126.36558 
L 74.790559 128.091491 
L 75.068465 133.714566 
L 75.402807 139.337641 
L 75.737952 144.960716 
L 75.789859 146.384322 
L 75.86592 150.583791 
L 75.918354 156.206867 
L 75.942223 161.829942 
L 75.938006 167.453017 
L 75.909537 173.076092 
L 75.856346 178.699167 
L 75.789859 183.799758 
L 75.774546 184.322243 
L 75.45812 189.945318 
L 75.090204 195.568393 
L 74.804724 201.191468 
L 74.701365 203.542457 
L 74.419688 206.814543 
L 73.924882 212.437619 
L 73.61287 217.556765 
L 73.553659 218.060694 
L 72.867987 223.683769 
L 72.524375 227.985757 
L 72.329993 229.306844 
" style="fill:none;stroke:#1f968b;stroke-width:1.5;"/>
   </g>
   <g id="LineCollection_12">
    <path clip-path="url(#p55b662c44a)" d="M 70.562948 60.614588 
L 70.861641 66.237663 
L 71.260472 71.860739 
L 71.435881 73.97496 
L 71.577483 77.483814 
L 71.848499 83.106889 
L 72.220683 88.729964 
L 72.524375 92.267606 
L 72.615153 94.353039 
L 72.895083 99.976115 
L 73.19185 104.173918 
" style="fill:none;stroke:#20a386;stroke-width:1.5;"/>
    <path clip-path="url(#p55b662c44a)" d="M 74.178391 118.535858 
L 74.501478 122.468415 
L 74.701365 124.646307 
L 74.879411 128.091491 
L 75.196189 133.714566 
L 75.585138 139.337641 
L 75.789859 142.648952 
L 75.865755 144.960716 
L 75.985223 150.583791 
L 76.051093 156.206867 
L 76.081613 161.829942 
L 76.076414 167.453017 
L 76.035812 173.076092 
L 75.956616 178.699167 
L 75.852975 184.322243 
L 75.789859 187.135938 
L 75.629948 189.945318 
L 75.199115 195.568393 
L 74.86523 201.191468 
L 74.701365 204.918717 
L 74.538163 206.814543 
L 73.994683 212.437619 
L 73.634223 218.060694 
L 73.61287 218.375015 
L 72.939216 223.683769 
L 72.524375 228.877529 
L 72.461207 229.306844 
" style="fill:none;stroke:#20a386;stroke-width:1.5;"/>
   </g>
   <g id="LineCollection_13">
    <path clip-path="url(#p55b662c44a)" d="M 70.664953 60.614588 
L 70.992062 66.237663 
L 71.433541 71.860739 
L 71.435881 71.888935 
L 71.661666 77.483814 
L 71.958108 83.106889 
L 72.369079 88.729964 
L 72.524375 90.538973 
L 72.6904 94.353039 
L 72.995731 99.976115 
L 73.311538 104.02726 
" style="fill:none;stroke:#29af7f;stroke-width:1.5;"/>
    <path clip-path="url(#p55b662c44a)" d="M 74.289976 118.420932 
L 74.659273 122.468415 
L 74.701365 122.927034 
L 74.968263 128.091491 
L 75.323913 133.714566 
L 75.767469 139.337641 
L 75.789859 139.6998 
L 75.962577 144.960716 
L 76.104526 150.583791 
L 76.183833 156.206867 
L 76.221004 161.829942 
L 76.214822 167.453017 
L 76.162087 173.076092 
L 76.056886 178.699167 
L 75.920689 184.322243 
L 75.792724 189.945318 
L 75.789859 190.032105 
L 75.308026 195.568393 
L 74.925737 201.191468 
L 74.701365 206.294978 
L 74.656638 206.814543 
L 74.064484 212.437619 
L 73.672355 218.060694 
L 73.61287 218.936333 
L 73.010444 223.683769 
L 72.543466 229.306844 
" style="fill:none;stroke:#29af7f;stroke-width:1.5;"/>
   </g>
   <g id="LineCollection_14">
    <path clip-path="url(#p55b662c44a)" d="M 70.766958 60.614588 
L 71.122484 66.237663 
L 71.435881 70.22416 
L 71.50146 71.860739 
L 71.745848 77.483814 
L 72.067716 83.106889 
L 72.517475 88.729964 
L 72.524375 88.81034 
L 72.765646 94.353039 
L 73.096379 99.976115 
L 73.429811 103.888973 
" style="fill:none;stroke:#3dbc74;stroke-width:1.5;"/>
    <path clip-path="url(#p55b662c44a)" d="M 74.392521 118.335643 
L 74.701365 121.633 
L 74.748195 122.468415 
L 75.057115 128.091491 
L 75.451636 133.714566 
L 75.789859 137.938447 
L 75.853853 139.337641 
L 76.059399 144.960716 
L 76.223829 150.583791 
L 76.316572 156.206867 
L 76.360395 161.829942 
L 76.35323 167.453017 
L 76.288362 173.076092 
L 76.157155 178.699167 
L 75.988404 184.322243 
L 75.834026 189.945318 
L 75.789859 191.283498 
L 75.416937 195.568393 
L 74.986243 201.191468 
L 74.72171 206.814543 
L 74.701365 207.214721 
L 74.134285 212.437619 
L 73.710487 218.060694 
L 73.61287 219.497651 
L 73.081673 223.683769 
L 72.580279 229.306844 
" style="fill:none;stroke:#3dbc74;stroke-width:1.5;"/>
   </g>
   <g id="LineCollection_15">
    <path clip-path="url(#p55b662c44a)" d="M 70.868962 60.614588 
L 71.252906 66.237663 
L 71.435881 68.565156 
L 71.567937 71.860739 
L 71.830031 77.483814 
L 72.177325 83.106889 
L 72.524375 87.428531 
L 72.579743 88.729964 
L 72.840893 94.353039 
L 73.197027 99.976115 
L 73.530242 103.800478 
" style="fill:none;stroke:#56c667;stroke-width:1.5;"/>
    <path clip-path="url(#p55b662c44a)" d="M 74.491898 118.257305 
L 74.701365 120.493664 
L 74.812063 122.468415 
L 75.145967 128.091491 
L 75.57936 133.714566 
L 75.789859 136.343377 
L 75.926805 139.337641 
L 76.156221 144.960716 
L 76.343132 150.583791 
L 76.449311 156.206867 
L 76.499785 161.829942 
L 76.491638 167.453017 
L 76.414637 173.076092 
L 76.257425 178.699167 
L 76.056119 184.322243 
L 75.875329 189.945318 
L 75.789859 192.53489 
L 75.525848 195.568393 
L 75.04675 201.191468 
L 74.754394 206.814543 
L 74.701365 207.857598 
L 74.204085 212.437619 
L 73.74862 218.060694 
L 73.61287 220.058969 
L 73.152901 223.683769 
L 72.617092 229.306844 
" style="fill:none;stroke:#56c667;stroke-width:1.5;"/>
   </g>
   <g id="LineCollection_16">
    <path clip-path="url(#p55b662c44a)" d="M 70.970967 60.614588 
L 71.383328 66.237663 
L 71.435881 66.906153 
L 71.634415 71.860739 
L 71.914214 77.483814 
L 72.286933 83.106889 
L 72.524375 86.063635 
L 72.637811 88.729964 
L 72.916139 94.353039 
L 73.297675 99.976115 
L 73.61287 103.593658 
L 73.620251 103.744414 
" style="fill:none;stroke:#75d054;stroke-width:1.5;"/>
    <path clip-path="url(#p55b662c44a)" d="M 74.590825 118.174161 
L 74.701365 119.354329 
L 74.87593 122.468415 
L 75.234819 128.091491 
L 75.707083 133.714566 
L 75.789859 134.748307 
L 75.999757 139.337641 
L 76.253043 144.960716 
L 76.462435 150.583791 
L 76.58205 156.206867 
L 76.639176 161.829942 
L 76.630046 167.453017 
L 76.540913 173.076092 
L 76.357695 178.699167 
L 76.123833 184.322243 
L 75.916631 189.945318 
L 75.789859 193.786283 
L 75.634759 195.568393 
L 75.107256 201.191468 
L 74.787078 206.814543 
L 74.701365 208.500474 
L 74.273886 212.437619 
L 73.786752 218.060694 
L 73.61287 220.620287 
L 73.224129 223.683769 
L 72.653905 229.306844 
" style="fill:none;stroke:#75d054;stroke-width:1.5;"/>
   </g>
   <g id="LineCollection_17">
    <path clip-path="url(#p55b662c44a)" d="M 71.072972 60.614588 
L 71.435881 65.42962 
L 71.467866 66.237663 
L 71.700893 71.860739 
L 71.998397 77.483814 
L 72.396541 83.106889 
L 72.524375 84.698739 
L 72.695878 88.729964 
L 72.991386 94.353039 
L 73.398322 99.976115 
L 73.61287 102.438508 
L 73.679119 103.791617 
" style="fill:none;stroke:#95d840;stroke-width:1.5;"/>
    <path clip-path="url(#p55b662c44a)" d="M 74.689323 118.086431 
L 74.701365 118.214993 
L 74.939798 122.468415 
L 75.323671 128.091491 
L 75.789859 133.36112 
L 75.80899 133.714566 
L 76.072709 139.337641 
L 76.349865 144.960716 
L 76.581738 150.583791 
L 76.71479 156.206867 
L 76.778566 161.829942 
L 76.768454 167.453017 
L 76.667188 173.076092 
L 76.457965 178.699167 
L 76.191548 184.322243 
L 75.957934 189.945318 
L 75.789859 195.037676 
L 75.74367 195.568393 
L 75.167762 201.191468 
L 74.819761 206.814543 
L 74.701365 209.143351 
L 74.343687 212.437619 
L 73.824884 218.060694 
L 73.61287 221.181605 
L 73.295358 223.683769 
L 72.690718 229.306844 
" style="fill:none;stroke:#95d840;stroke-width:1.5;"/>
   </g>
   <g id="LineCollection_18">
    <path clip-path="url(#p55b662c44a)" d="M 71.174976 60.614588 
L 71.435881 64.076234 
L 71.521439 66.237663 
L 71.76737 71.860739 
L 72.08258 77.483814 
L 72.50615 83.106889 
L 72.524375 83.333843 
L 72.753946 88.729964 
L 73.066632 94.353039 
L 73.49897 99.976115 
L 73.61287 101.283358 
L 73.824176 105.59919 
L 74.176576 111.222265 
L 74.679792 116.84534 
L 74.701365 117.075657 
L 75.003665 122.468415 
L 75.412523 128.091491 
L 75.789859 132.35677 
L 75.863353 133.714566 
L 76.145661 139.337641 
L 76.446687 144.960716 
L 76.701041 150.583791 
L 76.847529 156.206867 
L 76.878354 158.735826 
L 76.892506 161.829942 
L 76.887277 167.453017 
L 76.878354 168.77179 
L 76.793463 173.076092 
L 76.558235 178.699167 
L 76.259263 184.322243 
L 75.999236 189.945318 
L 75.804064 195.568393 
L 75.789859 195.896909 
L 75.228269 201.191468 
L 74.852445 206.814543 
L 74.701365 209.786227 
L 74.516853 211.485613 
" style="fill:none;stroke:#bade28;stroke-width:1.5;"/>
    <path clip-path="url(#p55b662c44a)" d="M 73.247661 224.730198 
L 72.727532 229.306844 
" style="fill:none;stroke:#bade28;stroke-width:1.5;"/>
   </g>
   <g id="LineCollection_19">
    <path clip-path="url(#p55b662c44a)" d="M 71.276981 60.614588 
L 71.435881 62.722849 
L 71.575012 66.237663 
L 71.833848 71.860739 
L 72.166763 77.483814 
L 72.524375 82.184359 
L 72.5626 83.106889 
L 72.812014 88.729964 
L 73.141879 94.353039 
L 73.599618 99.976115 
L 73.61287 100.128208 
L 73.797207 103.893212 
" style="fill:none;stroke:#dde318;stroke-width:1.5;"/>
    <path clip-path="url(#p55b662c44a)" d="M 74.816016 118.160213 
L 75.067532 122.468415 
L 75.501374 128.091491 
L 75.789859 131.35242 
L 75.917716 133.714566 
L 76.218613 139.337641 
L 76.543509 144.960716 
L 76.820344 150.583791 
L 76.878354 152.764101 
L 76.917754 156.206867 
L 76.942318 161.829942 
L 76.930601 167.453017 
L 76.889408 173.076092 
L 76.878354 173.807299 
L 76.658505 178.699167 
L 76.326978 184.322243 
L 76.040539 189.945318 
L 75.828729 195.568393 
L 75.789859 196.467351 
L 75.288775 201.191468 
L 74.885129 206.814543 
L 74.701365 210.429103 
L 74.483289 212.437619 
L 73.901149 218.060694 
L 73.61287 222.304241 
L 73.437815 223.683769 
L 72.764345 229.306844 
" style="fill:none;stroke:#dde318;stroke-width:1.5;"/>
   </g>
   <g id="LineCollection_20">
    <path clip-path="url(#p55b662c44a)" d="M 71.378986 60.614588 
L 71.435881 61.369463 
L 71.628584 66.237663 
L 71.900326 71.860739 
L 72.250946 77.483814 
L 72.524375 81.077838 
L 72.608448 83.106889 
L 72.870081 88.729964 
L 73.217126 94.353039 
L 73.61287 99.17928 
L 73.650518 99.976115 
L 73.853422 103.954686 
" style="fill:none;stroke:#fde725;stroke-width:1.5;"/>
    <path clip-path="url(#p55b662c44a)" d="M 74.871802 118.233123 
L 75.1314 122.468415 
L 75.590226 128.091491 
L 75.789859 130.34807 
L 75.972079 133.714566 
L 76.291565 139.337641 
L 76.640331 144.960716 
L 76.878354 149.611782 
L 76.902995 150.583791 
L 76.96907 156.206867 
L 76.99213 161.829942 
L 76.973925 167.453017 
L 76.923137 173.076092 
L 76.878354 176.038404 
L 76.758774 178.699167 
L 76.394692 184.322243 
L 76.081841 189.945318 
L 75.853394 195.568393 
L 75.789859 197.037792 
L 75.349281 201.191468 
L 74.917813 206.814543 
L 74.701365 211.07198 
L 74.553089 212.437619 
L 73.939282 218.060694 
L 73.61287 222.865559 
L 73.509043 223.683769 
L 72.801158 229.306844 
" style="fill:none;stroke:#fde725;stroke-width:1.5;"/>
   </g>
   <g id="LineCollection_21">
    <path clip-path="url(#p55b662c44a)" d="M 71.455274 60.614588 
L 71.682157 66.237663 
L 71.966803 71.860739 
L 72.335129 77.483814 
L 72.524375 79.971316 
L 72.654296 83.106889 
L 72.928149 88.729964 
L 73.292372 94.353039 
L 73.61287 98.261622 
L 73.693874 99.976115 
L 73.993847 105.59919 
L 74.404514 111.222265 
L 74.666638 114.115591 
" style="fill:none;stroke:#440154;stroke-width:1.5;"/>
    <path clip-path="url(#p55b662c44a)" d="M 75.84621 130.384797 
L 76.026441 133.714566 
L 76.364517 139.337641 
L 76.737153 144.960716 
L 76.878354 147.719842 
L 76.950958 150.583791 
L 77.020386 156.206867 
L 77.041942 161.829942 
L 77.017248 167.453017 
L 76.956866 173.076092 
L 76.878354 178.269509 
L 76.859044 178.699167 
L 76.462407 184.322243 
L 76.123144 189.945318 
L 75.878059 195.568393 
L 75.789859 197.608233 
L 75.409788 201.191468 
L 74.950497 206.814543 
L 74.701365 211.714856 
L 74.62289 212.437619 
L 73.977414 218.060694 
L 73.61287 223.426877 
L 73.580272 223.683769 
L 72.837971 229.306844 
" style="fill:none;stroke:#440154;stroke-width:1.5;"/>
   </g>
   <g id="LineCollection_22">
    <path clip-path="url(#p55b662c44a)" d="M 74.608631 60.614588 
L 74.701365 62.053925 
L 74.864845 66.237663 
L 75.131477 71.860739 
L 75.472148 77.483814 
L 75.789859 81.791762 
L 75.854349 83.106889 
L 76.158751 88.729964 
L 76.555231 94.353039 
L 76.878354 98.193038 
L 76.982917 99.976115 
L 77.350606 105.59919 
L 77.828085 111.222265 
L 77.966849 112.754629 
L 78.222946 116.84534 
L 78.375507 119.052175 
" style="fill:none;stroke:#440154;stroke-width:1.5;"/>
    <path clip-path="url(#p55b662c44a)" d="M 79.41512 138.134875 
L 79.457374 139.337641 
L 79.622125 144.960716 
L 79.721107 150.583791 
L 79.707986 156.206867 
L 79.576687 161.829942 
L 79.390701 167.453017 
L 79.200995 173.076092 
L 79.055343 177.619107 
L 78.977777 178.699167 
L 78.538682 184.322243 
L 78.19347 189.945318 
L 77.966849 194.627598 
L 77.874268 195.568393 
L 77.31195 201.191468 
L 76.946826 206.814543 
L 76.878354 207.92129 
L 76.352631 212.437619 
L 75.909855 218.060694 
L 75.789859 219.831737 
L 75.299701 223.683769 
L 74.799002 229.306844 
" style="fill:none;stroke:#440154;stroke-width:1.5;"/>
   </g>
   <g id="LineCollection_23">
    <path clip-path="url(#p55b662c44a)" d="M 78.198366 60.614588 
L 78.529745 66.237663 
L 78.961704 71.860739 
L 79.055343 72.992451 
L 79.309615 77.483814 
L 79.719311 83.106889 
L 80.143838 87.751599 
L 80.198501 88.729964 
L 80.520819 94.353039 
L 80.908586 99.976115 
L 81.232332 104.260351 
L 81.279486 105.59919 
L 81.456816 111.222265 
L 81.620897 116.84534 
L 81.766954 122.468415 
L 81.892011 128.091491 
L 81.993092 133.714566 
L 82.067251 139.180478 
" style="fill:none;stroke:#440154;stroke-width:1.5;"/>
    <path clip-path="url(#p55b662c44a)" d="M 81.817751 161.821211 
L 81.817473 161.829942 
L 81.600868 167.453017 
L 81.39785 173.076092 
L 81.232332 178.128744 
L 81.188464 178.699167 
L 80.714937 184.322243 
L 80.35411 189.945318 
L 80.143838 194.030082 
L 79.985892 195.568393 
L 79.429391 201.191468 
L 79.067272 206.814543 
L 79.055343 206.987564 
L 78.392983 212.437619 
L 77.975223 218.060694 
L 77.966849 218.166165 
L 77.246852 223.683769 
L 76.878354 228.066566 
L 76.710867 229.306844 
" style="fill:none;stroke:#440154;stroke-width:1.5;"/>
   </g>
   <g id="LineCollection_24">
    <path clip-path="url(#p55b662c44a)" d="M 82.320827 194.088506 
L 82.170428 195.568393 
L 81.616879 201.191468 
L 81.56496 201.999091 
" style="fill:none;stroke:#440154;stroke-width:1.5;"/>
    <path clip-path="url(#p55b662c44a)" d="M 79.566647 222.662464 
L 79.431766 223.683769 
L 79.055343 228.065954 
L 78.884897 229.306844 
" style="fill:none;stroke:#440154;stroke-width:1.5;"/>
    <path clip-path="url(#p55b662c44a)" d="M 81.673826 60.614588 
L 82.065601 66.237663 
L 82.320827 69.39515 
" style="fill:none;stroke:#440154;stroke-width:1.5;"/>
   </g>
   <g id="LineCollection_25">
    <path clip-path="url(#p55b662c44a)" d="M 82.320827 218.609759 
L 81.661792 223.683769 
L 81.232332 228.919454 
L 81.179935 229.306844 
" style="fill:none;stroke:#440154;stroke-width:1.5;"/>
   </g>
   <g id="LineCollection_26"/>
   <g id="LineCollection_27"/>
   <g id="LineCollection_28"/>
   <g id="line2d_15">
    <path clip-path="url(#p55b662c44a)" d="M 389.780273 262.670362 
L 336.763362 225.345112 
L 292.268502 191.768422 
L 254.971748 161.714965 
L 223.732636 135.080663 
L 197.582431 111.939972 
L 175.704545 91.970762 
L 157.397178 74.900479 
L 142.113442 60.418933 
L 129.345122 48.965526 
L 118.708373 39.397102 
L 109.954857 31.98101 
L 102.81519 26.642717 
L 97.170505 22.865844 
L 92.815032 21.052944 
L 89.477421 20.750362 
L 86.978659 21.812229 
L 85.123838 23.593578 
L 83.690185 26.039029 
L 82.575214 29.24174 
L 81.620062 32.65009 
L 80.831066 35.974595 
L 80.278368 40.493018 
L 79.703627 45.012691 
L 79.18814 49.298637 
L 78.734496 53.980181 
L 78.331929 58.875607 
L 78.088974 63.84533 
L 77.84347 68.895548 
L 77.497166 74.188067 
L 77.221503 79.447766 
L 76.876437 84.109144 
L 76.778866 90.036608 
L 76.505023 95.696703 
L 76.312493 100.875926 
L 76.075096 105.992256 
L 75.906367 111.389307 
L 75.71486 116.701367 
L 75.549134 122.062505 
L 75.363557 127.45879 
L 75.150654 132.324458 
L 74.932207 137.025757 
L 74.857752 142.920937 
L 74.696787 148.119299 
L 74.481276 153.467444 
L 74.332978 159.430784 
L 74.129558 165.08751 
L 73.870621 171.414681 
L 73.717098 178.580192 
L 73.421598 186.474152 
L 73.428172 187.821792 
L 73.307425 188.859051 
L 73.167089 189.765633 
L 73.043586 190.713356 
L 72.909142 191.57278 
L 72.794302 192.450546 
L 72.667968 193.26068 
L 72.553201 194.070932 
L 72.437263 194.850965 
L 72.34559 195.737103 
L 72.258302 196.59491 
L 72.173702 197.496345 
L 72.097187 198.428294 
L 72.009027 199.243372 
L 71.946694 200.096304 
L 71.888382 200.961308 
L 71.827855 201.782624 
L 71.783594 202.683327 
L 71.734751 203.456116 
L 71.699003 204.291134 
L 71.657824 205.124973 
L 71.628769 205.961802 
L 71.606901 206.871084 
L 71.582142 207.731452 
L 71.564764 208.725566 
L 71.565603 208.866666 
L 71.561911 209.01141 
L 71.557557 209.132477 
L 71.551955 209.226129 
L 71.545073 209.310226 
L 71.539825 209.387957 
L 71.533407 209.446542 
L 71.526366 209.477924 
L 71.516554 209.490959 
L 71.508294 209.512737 
L 71.503938 209.566828 
L 71.497188 209.584626 
L 71.492648 209.606185 
L 71.486634 209.622319 
L 71.479859 209.62807 
L 71.475367 209.642723 
L 71.469739 209.638197 
L 71.463558 209.627185 
L 71.459581 209.607668 
L 71.456205 209.594626 
L 71.451293 209.587746 
L 71.448324 209.558602 
L 71.443548 209.536472 
L 71.438488 209.493807 
" style="fill:none;stroke:#1f77b4;stroke-linecap:square;stroke-width:1.5;"/>
    <defs>
     <path d="M 0 1.5 
C 0.397805 1.5 0.77937 1.341951 1.06066 1.06066 
C 1.341951 0.77937 1.5 0.397805 1.5 0 
C 1.5 -0.397805 1.341951 -0.77937 1.06066 -1.06066 
C 0.77937 -1.341951 0.397805 -1.5 0 -1.5 
C -0.397805 -1.5 -0.77937 -1.341951 -1.06066 -1.06066 
C -1.341951 -0.77937 -1.5 -0.397805 -1.5 0 
C -1.5 0.397805 -1.341951 0.77937 -1.06066 1.06066 
C -0.77937 1.341951 -0.397805 1.5 0 1.5 
z
" id="m46ee2f5993" style="stroke:#1f77b4;"/>
    </defs>
    <g clip-path="url(#p55b662c44a)">
     <use style="fill:#1f77b4;stroke:#1f77b4;" x="389.780273" xlink:href="#m46ee2f5993" y="262.670362"/>
     <use style="fill:#1f77b4;stroke:#1f77b4;" x="336.763362" xlink:href="#m46ee2f5993" y="225.345112"/>
     <use style="fill:#1f77b4;stroke:#1f77b4;" x="292.268502" xlink:href="#m46ee2f5993" y="191.768422"/>
     <use style="fill:#1f77b4;stroke:#1f77b4;" x="254.971748" xlink:href="#m46ee2f5993" y="161.714965"/>
     <use style="fill:#1f77b4;stroke:#1f77b4;" x="223.732636" xlink:href="#m46ee2f5993" y="135.080663"/>
     <use style="fill:#1f77b4;stroke:#1f77b4;" x="197.582431" xlink:href="#m46ee2f5993" y="111.939972"/>
     <use style="fill:#1f77b4;stroke:#1f77b4;" x="175.704545" xlink:href="#m46ee2f5993" y="91.970762"/>
     <use style="fill:#1f77b4;stroke:#1f77b4;" x="157.397178" xlink:href="#m46ee2f5993" y="74.900479"/>
     <use style="fill:#1f77b4;stroke:#1f77b4;" x="142.113442" xlink:href="#m46ee2f5993" y="60.418933"/>
     <use style="fill:#1f77b4;stroke:#1f77b4;" x="129.345122" xlink:href="#m46ee2f5993" y="48.965526"/>
     <use style="fill:#1f77b4;stroke:#1f77b4;" x="118.708373" xlink:href="#m46ee2f5993" y="39.397102"/>
     <use style="fill:#1f77b4;stroke:#1f77b4;" x="109.954857" xlink:href="#m46ee2f5993" y="31.98101"/>
     <use style="fill:#1f77b4;stroke:#1f77b4;" x="102.81519" xlink:href="#m46ee2f5993" y="26.642717"/>
     <use style="fill:#1f77b4;stroke:#1f77b4;" x="97.170505" xlink:href="#m46ee2f5993" y="22.865844"/>
     <use style="fill:#1f77b4;stroke:#1f77b4;" x="92.815032" xlink:href="#m46ee2f5993" y="21.052944"/>
     <use style="fill:#1f77b4;stroke:#1f77b4;" x="89.477421" xlink:href="#m46ee2f5993" y="20.750362"/>
     <use style="fill:#1f77b4;stroke:#1f77b4;" x="86.978659" xlink:href="#m46ee2f5993" y="21.812229"/>
     <use style="fill:#1f77b4;stroke:#1f77b4;" x="85.123838" xlink:href="#m46ee2f5993" y="23.593578"/>
     <use style="fill:#1f77b4;stroke:#1f77b4;" x="83.690185" xlink:href="#m46ee2f5993" y="26.039029"/>
     <use style="fill:#1f77b4;stroke:#1f77b4;" x="82.575214" xlink:href="#m46ee2f5993" y="29.24174"/>
     <use style="fill:#1f77b4;stroke:#1f77b4;" x="81.620062" xlink:href="#m46ee2f5993" y="32.65009"/>
     <use style="fill:#1f77b4;stroke:#1f77b4;" x="80.831066" xlink:href="#m46ee2f5993" y="35.974595"/>
     <use style="fill:#1f77b4;stroke:#1f77b4;" x="80.278368" xlink:href="#m46ee2f5993" y="40.493018"/>
     <use style="fill:#1f77b4;stroke:#1f77b4;" x="79.703627" xlink:href="#m46ee2f5993" y="45.012691"/>
     <use style="fill:#1f77b4;stroke:#1f77b4;" x="79.18814" xlink:href="#m46ee2f5993" y="49.298637"/>
     <use style="fill:#1f77b4;stroke:#1f77b4;" x="78.734496" xlink:href="#m46ee2f5993" y="53.980181"/>
     <use style="fill:#1f77b4;stroke:#1f77b4;" x="78.331929" xlink:href="#m46ee2f5993" y="58.875607"/>
     <use style="fill:#1f77b4;stroke:#1f77b4;" x="78.088974" xlink:href="#m46ee2f5993" y="63.84533"/>
     <use style="fill:#1f77b4;stroke:#1f77b4;" x="77.84347" xlink:href="#m46ee2f5993" y="68.895548"/>
     <use style="fill:#1f77b4;stroke:#1f77b4;" x="77.497166" xlink:href="#m46ee2f5993" y="74.188067"/>
     <use style="fill:#1f77b4;stroke:#1f77b4;" x="77.221503" xlink:href="#m46ee2f5993" y="79.447766"/>
     <use style="fill:#1f77b4;stroke:#1f77b4;" x="76.876437" xlink:href="#m46ee2f5993" y="84.109144"/>
     <use style="fill:#1f77b4;stroke:#1f77b4;" x="76.778866" xlink:href="#m46ee2f5993" y="90.036608"/>
     <use style="fill:#1f77b4;stroke:#1f77b4;" x="76.505023" xlink:href="#m46ee2f5993" y="95.696703"/>
     <use style="fill:#1f77b4;stroke:#1f77b4;" x="76.312493" xlink:href="#m46ee2f5993" y="100.875926"/>
     <use style="fill:#1f77b4;stroke:#1f77b4;" x="76.075096" xlink:href="#m46ee2f5993" y="105.992256"/>
     <use style="fill:#1f77b4;stroke:#1f77b4;" x="75.906367" xlink:href="#m46ee2f5993" y="111.389307"/>
     <use style="fill:#1f77b4;stroke:#1f77b4;" x="75.71486" xlink:href="#m46ee2f5993" y="116.701367"/>
     <use style="fill:#1f77b4;stroke:#1f77b4;" x="75.549134" xlink:href="#m46ee2f5993" y="122.062505"/>
     <use style="fill:#1f77b4;stroke:#1f77b4;" x="75.363557" xlink:href="#m46ee2f5993" y="127.45879"/>
     <use style="fill:#1f77b4;stroke:#1f77b4;" x="75.150654" xlink:href="#m46ee2f5993" y="132.324458"/>
     <use style="fill:#1f77b4;stroke:#1f77b4;" x="74.932207" xlink:href="#m46ee2f5993" y="137.025757"/>
     <use style="fill:#1f77b4;stroke:#1f77b4;" x="74.857752" xlink:href="#m46ee2f5993" y="142.920937"/>
     <use style="fill:#1f77b4;stroke:#1f77b4;" x="74.696787" xlink:href="#m46ee2f5993" y="148.119299"/>
     <use style="fill:#1f77b4;stroke:#1f77b4;" x="74.481276" xlink:href="#m46ee2f5993" y="153.467444"/>
     <use style="fill:#1f77b4;stroke:#1f77b4;" x="74.332978" xlink:href="#m46ee2f5993" y="159.430784"/>
     <use style="fill:#1f77b4;stroke:#1f77b4;" x="74.129558" xlink:href="#m46ee2f5993" y="165.08751"/>
     <use style="fill:#1f77b4;stroke:#1f77b4;" x="73.870621" xlink:href="#m46ee2f5993" y="171.414681"/>
     <use style="fill:#1f77b4;stroke:#1f77b4;" x="73.717098" xlink:href="#m46ee2f5993" y="178.580192"/>
     <use style="fill:#1f77b4;stroke:#1f77b4;" x="73.421598" xlink:href="#m46ee2f5993" y="186.474152"/>
     <use style="fill:#1f77b4;stroke:#1f77b4;" x="73.428172" xlink:href="#m46ee2f5993" y="187.821792"/>
     <use style="fill:#1f77b4;stroke:#1f77b4;" x="73.307425" xlink:href="#m46ee2f5993" y="188.859051"/>
     <use style="fill:#1f77b4;stroke:#1f77b4;" x="73.167089" xlink:href="#m46ee2f5993" y="189.765633"/>
     <use style="fill:#1f77b4;stroke:#1f77b4;" x="73.043586" xlink:href="#m46ee2f5993" y="190.713356"/>
     <use style="fill:#1f77b4;stroke:#1f77b4;" x="72.909142" xlink:href="#m46ee2f5993" y="191.57278"/>
     <use style="fill:#1f77b4;stroke:#1f77b4;" x="72.794302" xlink:href="#m46ee2f5993" y="192.450546"/>
     <use style="fill:#1f77b4;stroke:#1f77b4;" x="72.667968" xlink:href="#m46ee2f5993" y="193.26068"/>
     <use style="fill:#1f77b4;stroke:#1f77b4;" x="72.553201" xlink:href="#m46ee2f5993" y="194.070932"/>
     <use style="fill:#1f77b4;stroke:#1f77b4;" x="72.437263" xlink:href="#m46ee2f5993" y="194.850965"/>
     <use style="fill:#1f77b4;stroke:#1f77b4;" x="72.34559" xlink:href="#m46ee2f5993" y="195.737103"/>
     <use style="fill:#1f77b4;stroke:#1f77b4;" x="72.258302" xlink:href="#m46ee2f5993" y="196.59491"/>
     <use style="fill:#1f77b4;stroke:#1f77b4;" x="72.173702" xlink:href="#m46ee2f5993" y="197.496345"/>
     <use style="fill:#1f77b4;stroke:#1f77b4;" x="72.097187" xlink:href="#m46ee2f5993" y="198.428294"/>
     <use style="fill:#1f77b4;stroke:#1f77b4;" x="72.009027" xlink:href="#m46ee2f5993" y="199.243372"/>
     <use style="fill:#1f77b4;stroke:#1f77b4;" x="71.946694" xlink:href="#m46ee2f5993" y="200.096304"/>
     <use style="fill:#1f77b4;stroke:#1f77b4;" x="71.888382" xlink:href="#m46ee2f5993" y="200.961308"/>
     <use style="fill:#1f77b4;stroke:#1f77b4;" x="71.827855" xlink:href="#m46ee2f5993" y="201.782624"/>
     <use style="fill:#1f77b4;stroke:#1f77b4;" x="71.783594" xlink:href="#m46ee2f5993" y="202.683327"/>
     <use style="fill:#1f77b4;stroke:#1f77b4;" x="71.734751" xlink:href="#m46ee2f5993" y="203.456116"/>
     <use style="fill:#1f77b4;stroke:#1f77b4;" x="71.699003" xlink:href="#m46ee2f5993" y="204.291134"/>
     <use style="fill:#1f77b4;stroke:#1f77b4;" x="71.657824" xlink:href="#m46ee2f5993" y="205.124973"/>
     <use style="fill:#1f77b4;stroke:#1f77b4;" x="71.628769" xlink:href="#m46ee2f5993" y="205.961802"/>
     <use style="fill:#1f77b4;stroke:#1f77b4;" x="71.606901" xlink:href="#m46ee2f5993" y="206.871084"/>
     <use style="fill:#1f77b4;stroke:#1f77b4;" x="71.582142" xlink:href="#m46ee2f5993" y="207.731452"/>
     <use style="fill:#1f77b4;stroke:#1f77b4;" x="71.564764" xlink:href="#m46ee2f5993" y="208.725566"/>
     <use style="fill:#1f77b4;stroke:#1f77b4;" x="71.565603" xlink:href="#m46ee2f5993" y="208.866666"/>
     <use style="fill:#1f77b4;stroke:#1f77b4;" x="71.561911" xlink:href="#m46ee2f5993" y="209.01141"/>
     <use style="fill:#1f77b4;stroke:#1f77b4;" x="71.557557" xlink:href="#m46ee2f5993" y="209.132477"/>
     <use style="fill:#1f77b4;stroke:#1f77b4;" x="71.551955" xlink:href="#m46ee2f5993" y="209.226129"/>
     <use style="fill:#1f77b4;stroke:#1f77b4;" x="71.545073" xlink:href="#m46ee2f5993" y="209.310226"/>
     <use style="fill:#1f77b4;stroke:#1f77b4;" x="71.539825" xlink:href="#m46ee2f5993" y="209.387957"/>
     <use style="fill:#1f77b4;stroke:#1f77b4;" x="71.533407" xlink:href="#m46ee2f5993" y="209.446542"/>
     <use style="fill:#1f77b4;stroke:#1f77b4;" x="71.526366" xlink:href="#m46ee2f5993" y="209.477924"/>
     <use style="fill:#1f77b4;stroke:#1f77b4;" x="71.516554" xlink:href="#m46ee2f5993" y="209.490959"/>
     <use style="fill:#1f77b4;stroke:#1f77b4;" x="71.508294" xlink:href="#m46ee2f5993" y="209.512737"/>
     <use style="fill:#1f77b4;stroke:#1f77b4;" x="71.503938" xlink:href="#m46ee2f5993" y="209.566828"/>
     <use style="fill:#1f77b4;stroke:#1f77b4;" x="71.497188" xlink:href="#m46ee2f5993" y="209.584626"/>
     <use style="fill:#1f77b4;stroke:#1f77b4;" x="71.492648" xlink:href="#m46ee2f5993" y="209.606185"/>
     <use style="fill:#1f77b4;stroke:#1f77b4;" x="71.486634" xlink:href="#m46ee2f5993" y="209.622319"/>
     <use style="fill:#1f77b4;stroke:#1f77b4;" x="71.479859" xlink:href="#m46ee2f5993" y="209.62807"/>
     <use style="fill:#1f77b4;stroke:#1f77b4;" x="71.475367" xlink:href="#m46ee2f5993" y="209.642723"/>
     <use style="fill:#1f77b4;stroke:#1f77b4;" x="71.469739" xlink:href="#m46ee2f5993" y="209.638197"/>
     <use style="fill:#1f77b4;stroke:#1f77b4;" x="71.463558" xlink:href="#m46ee2f5993" y="209.627185"/>
     <use style="fill:#1f77b4;stroke:#1f77b4;" x="71.459581" xlink:href="#m46ee2f5993" y="209.607668"/>
     <use style="fill:#1f77b4;stroke:#1f77b4;" x="71.456205" xlink:href="#m46ee2f5993" y="209.594626"/>
     <use style="fill:#1f77b4;stroke:#1f77b4;" x="71.451293" xlink:href="#m46ee2f5993" y="209.587746"/>
     <use style="fill:#1f77b4;stroke:#1f77b4;" x="71.448324" xlink:href="#m46ee2f5993" y="209.558602"/>
     <use style="fill:#1f77b4;stroke:#1f77b4;" x="71.443548" xlink:href="#m46ee2f5993" y="209.536472"/>
     <use style="fill:#1f77b4;stroke:#1f77b4;" x="71.438488" xlink:href="#m46ee2f5993" y="209.493807"/>
    </g>
   </g>
   <g id="patch_3">
    <path d="M 49.665988 274.766362 
L 49.665988 8.654362 
" style="fill:none;stroke:#000000;stroke-linecap:square;stroke-linejoin:miter;stroke-width:0.8;"/>
   </g>
   <g id="patch_4">
    <path d="M 406.785988 274.766362 
L 406.785988 8.654362 
" style="fill:none;stroke:#000000;stroke-linecap:square;stroke-linejoin:miter;stroke-width:0.8;"/>
   </g>
   <g id="patch_5">
    <path d="M 49.665988 274.766362 
L 406.785988 274.766362 
" style="fill:none;stroke:#000000;stroke-linecap:square;stroke-linejoin:miter;stroke-width:0.8;"/>
   </g>
   <g id="patch_6">
    <path d="M 49.665988 8.654362 
L 406.785988 8.654362 
" style="fill:none;stroke:#000000;stroke-linecap:square;stroke-linejoin:miter;stroke-width:0.8;"/>
   </g>
   <g id="text_17">
    <g clip-path="url(#p55b662c44a)">
     <!-- 1.000 -->
     <g style="fill:#482576;" transform="translate(63.900968 189.412409)rotate(-345.595655)scale(0.06 -0.06)">
      <use xlink:href="#DejaVuSans-49"/>
      <use x="63.623047" xlink:href="#DejaVuSans-46"/>
      <use x="95.410156" xlink:href="#DejaVuSans-48"/>
      <use x="159.033203" xlink:href="#DejaVuSans-48"/>
      <use x="222.65625" xlink:href="#DejaVuSans-48"/>
     </g>
    </g>
   </g>
   <g id="text_18">
    <g clip-path="url(#p55b662c44a)">
     <!-- 1.500 -->
     <g style="fill:#453781;" transform="translate(66.024666 203.366561)rotate(-52.159853)scale(0.06 -0.06)">
      <use xlink:href="#DejaVuSans-49"/>
      <use x="63.623047" xlink:href="#DejaVuSans-46"/>
      <use x="95.410156" xlink:href="#DejaVuSans-53"/>
      <use x="159.033203" xlink:href="#DejaVuSans-48"/>
      <use x="222.65625" xlink:href="#DejaVuSans-48"/>
     </g>
    </g>
   </g>
   <g id="text_19">
    <g clip-path="url(#p55b662c44a)">
     <!-- 2.000 -->
     <g style="fill:#404688;" transform="translate(65.695475 105.052938)rotate(-304.231464)scale(0.06 -0.06)">
      <use xlink:href="#DejaVuSans-50"/>
      <use x="63.623047" xlink:href="#DejaVuSans-46"/>
      <use x="95.410156" xlink:href="#DejaVuSans-48"/>
      <use x="159.033203" xlink:href="#DejaVuSans-48"/>
      <use x="222.65625" xlink:href="#DejaVuSans-48"/>
     </g>
    </g>
   </g>
   <g id="text_20">
    <g clip-path="url(#p55b662c44a)">
     <!-- 2.500 -->
     <g style="fill:#39558c;" transform="translate(58.458408 164.949208)rotate(-77.308635)scale(0.06 -0.06)">
      <use xlink:href="#DejaVuSans-50"/>
      <use x="63.623047" xlink:href="#DejaVuSans-46"/>
      <use x="95.410156" xlink:href="#DejaVuSans-53"/>
      <use x="159.033203" xlink:href="#DejaVuSans-48"/>
      <use x="222.65625" xlink:href="#DejaVuSans-48"/>
     </g>
    </g>
   </g>
   <g id="text_21">
    <g clip-path="url(#p55b662c44a)">
     <!-- 2.500 -->
     <g style="fill:#39558c;" transform="translate(66.840616 236.596664)rotate(-45.543484)scale(0.06 -0.06)">
      <use xlink:href="#DejaVuSans-50"/>
      <use x="63.623047" xlink:href="#DejaVuSans-46"/>
      <use x="95.410156" xlink:href="#DejaVuSans-53"/>
      <use x="159.033203" xlink:href="#DejaVuSans-48"/>
      <use x="222.65625" xlink:href="#DejaVuSans-48"/>
     </g>
    </g>
   </g>
   <g id="text_22">
    <g clip-path="url(#p55b662c44a)">
     <!-- 3.000 -->
     <g style="fill:#33638d;" transform="translate(68.002646 103.943844)rotate(-292.768856)scale(0.06 -0.06)">
      <defs>
       <path d="M 40.578125 39.3125 
Q 47.65625 37.796875 51.625 33 
Q 55.609375 28.21875 55.609375 21.1875 
Q 55.609375 10.40625 48.1875 4.484375 
Q 40.765625 -1.421875 27.09375 -1.421875 
Q 22.515625 -1.421875 17.65625 -0.515625 
Q 12.796875 0.390625 7.625 2.203125 
L 7.625 11.71875 
Q 11.71875 9.328125 16.59375 8.109375 
Q 21.484375 6.890625 26.8125 6.890625 
Q 36.078125 6.890625 40.9375 10.546875 
Q 45.796875 14.203125 45.796875 21.1875 
Q 45.796875 27.640625 41.28125 31.265625 
Q 36.765625 34.90625 28.71875 34.90625 
L 20.21875 34.90625 
L 20.21875 43.015625 
L 29.109375 43.015625 
Q 36.375 43.015625 40.234375 45.921875 
Q 44.09375 48.828125 44.09375 54.296875 
Q 44.09375 59.90625 40.109375 62.90625 
Q 36.140625 65.921875 28.71875 65.921875 
Q 24.65625 65.921875 20.015625 65.03125 
Q 15.375 64.15625 9.8125 62.3125 
L 9.8125 71.09375 
Q 15.4375 72.65625 20.34375 73.4375 
Q 25.25 74.21875 29.59375 74.21875 
Q 40.828125 74.21875 47.359375 69.109375 
Q 53.90625 64.015625 53.90625 55.328125 
Q 53.90625 49.265625 50.4375 45.09375 
Q 46.96875 40.921875 40.578125 39.3125 
z
" id="DejaVuSans-51"/>
      </defs>
      <use xlink:href="#DejaVuSans-51"/>
      <use x="63.623047" xlink:href="#DejaVuSans-46"/>
      <use x="95.410156" xlink:href="#DejaVuSans-48"/>
      <use x="159.033203" xlink:href="#DejaVuSans-48"/>
      <use x="222.65625" xlink:href="#DejaVuSans-48"/>
     </g>
    </g>
   </g>
   <g id="text_23">
    <g clip-path="url(#p55b662c44a)">
     <!-- 3.500 -->
     <g style="fill:#2d718e;" transform="translate(67.533283 104.447359)rotate(-298.321821)scale(0.06 -0.06)">
      <use xlink:href="#DejaVuSans-51"/>
      <use x="63.623047" xlink:href="#DejaVuSans-46"/>
      <use x="95.410156" xlink:href="#DejaVuSans-53"/>
      <use x="159.033203" xlink:href="#DejaVuSans-48"/>
      <use x="222.65625" xlink:href="#DejaVuSans-48"/>
     </g>
    </g>
   </g>
   <g id="text_24">
    <g clip-path="url(#p55b662c44a)">
     <!-- 4.000 -->
     <g style="fill:#287d8e;" transform="translate(67.745524 104.447308)rotate(-298.321293)scale(0.06 -0.06)">
      <use xlink:href="#DejaVuSans-52"/>
      <use x="63.623047" xlink:href="#DejaVuSans-46"/>
      <use x="95.410156" xlink:href="#DejaVuSans-48"/>
      <use x="159.033203" xlink:href="#DejaVuSans-48"/>
      <use x="222.65625" xlink:href="#DejaVuSans-48"/>
     </g>
    </g>
   </g>
   <g id="text_25">
    <g clip-path="url(#p55b662c44a)">
     <!-- 4.500 -->
     <g style="fill:#238a8d;" transform="translate(68.404755 105.46182)rotate(-295.633232)scale(0.06 -0.06)">
      <use xlink:href="#DejaVuSans-52"/>
      <use x="63.623047" xlink:href="#DejaVuSans-46"/>
      <use x="95.410156" xlink:href="#DejaVuSans-53"/>
      <use x="159.033203" xlink:href="#DejaVuSans-48"/>
      <use x="222.65625" xlink:href="#DejaVuSans-48"/>
     </g>
    </g>
   </g>
   <g id="text_26">
    <g clip-path="url(#p55b662c44a)">
     <!-- 5.000 -->
     <g style="fill:#1f968b;" transform="translate(68.475226 104.166864)rotate(-295.318969)scale(0.06 -0.06)">
      <use xlink:href="#DejaVuSans-53"/>
      <use x="63.623047" xlink:href="#DejaVuSans-46"/>
      <use x="95.410156" xlink:href="#DejaVuSans-48"/>
      <use x="159.033203" xlink:href="#DejaVuSans-48"/>
      <use x="222.65625" xlink:href="#DejaVuSans-48"/>
     </g>
    </g>
   </g>
   <g id="text_27">
    <g clip-path="url(#p55b662c44a)">
     <!-- 5.500 -->
     <g style="fill:#20a386;" transform="translate(68.673577 104.078813)rotate(-294.3314)scale(0.06 -0.06)">
      <use xlink:href="#DejaVuSans-53"/>
      <use x="63.623047" xlink:href="#DejaVuSans-46"/>
      <use x="95.410156" xlink:href="#DejaVuSans-53"/>
      <use x="159.033203" xlink:href="#DejaVuSans-48"/>
      <use x="222.65625" xlink:href="#DejaVuSans-48"/>
     </g>
    </g>
   </g>
   <g id="text_28">
    <g clip-path="url(#p55b662c44a)">
     <!-- 6.000 -->
     <g style="fill:#29af7f;" transform="translate(68.875859 103.991229)rotate(-293.324558)scale(0.06 -0.06)">
      <use xlink:href="#DejaVuSans-54"/>
      <use x="63.623047" xlink:href="#DejaVuSans-46"/>
      <use x="95.410156" xlink:href="#DejaVuSans-48"/>
      <use x="159.033203" xlink:href="#DejaVuSans-48"/>
      <use x="222.65625" xlink:href="#DejaVuSans-48"/>
     </g>
    </g>
   </g>
   <g id="text_29">
    <g clip-path="url(#p55b662c44a)">
     <!-- 6.500 -->
     <g style="fill:#3dbc74;" transform="translate(69.082491 103.904024)rotate(-292.295546)scale(0.06 -0.06)">
      <use xlink:href="#DejaVuSans-54"/>
      <use x="63.623047" xlink:href="#DejaVuSans-46"/>
      <use x="95.410156" xlink:href="#DejaVuSans-53"/>
      <use x="159.033203" xlink:href="#DejaVuSans-48"/>
      <use x="222.65625" xlink:href="#DejaVuSans-48"/>
     </g>
    </g>
   </g>
   <g id="text_30">
    <g clip-path="url(#p55b662c44a)">
     <!-- 7.000 -->
     <g style="fill:#56c667;" transform="translate(69.01799 103.997927)rotate(-293.402462)scale(0.06 -0.06)">
      <use xlink:href="#DejaVuSans-55"/>
      <use x="63.623047" xlink:href="#DejaVuSans-46"/>
      <use x="95.410156" xlink:href="#DejaVuSans-48"/>
      <use x="159.033203" xlink:href="#DejaVuSans-48"/>
      <use x="222.65625" xlink:href="#DejaVuSans-48"/>
     </g>
    </g>
   </g>
   <g id="text_31">
    <g clip-path="url(#p55b662c44a)">
     <!-- 7.500 -->
     <g style="fill:#75d054;" transform="translate(68.912481 104.125194)rotate(-294.854545)scale(0.06 -0.06)">
      <use xlink:href="#DejaVuSans-55"/>
      <use x="63.623047" xlink:href="#DejaVuSans-46"/>
      <use x="95.410156" xlink:href="#DejaVuSans-53"/>
      <use x="159.033203" xlink:href="#DejaVuSans-48"/>
      <use x="222.65625" xlink:href="#DejaVuSans-48"/>
     </g>
    </g>
   </g>
   <g id="text_32">
    <g clip-path="url(#p55b662c44a)">
     <!-- 8.000 -->
     <g style="fill:#95d840;" transform="translate(68.814663 104.253674)rotate(-296.270384)scale(0.06 -0.06)">
      <use xlink:href="#DejaVuSans-56"/>
      <use x="63.623047" xlink:href="#DejaVuSans-46"/>
      <use x="95.410156" xlink:href="#DejaVuSans-48"/>
      <use x="159.033203" xlink:href="#DejaVuSans-48"/>
      <use x="222.65625" xlink:href="#DejaVuSans-48"/>
     </g>
    </g>
   </g>
   <g id="text_33">
    <g clip-path="url(#p55b662c44a)">
     <!-- 8.500 -->
     <g style="fill:#bade28;" transform="translate(70.715831 226.221428)rotate(-57.999603)scale(0.06 -0.06)">
      <use xlink:href="#DejaVuSans-56"/>
      <use x="63.623047" xlink:href="#DejaVuSans-46"/>
      <use x="95.410156" xlink:href="#DejaVuSans-53"/>
      <use x="159.033203" xlink:href="#DejaVuSans-48"/>
      <use x="222.65625" xlink:href="#DejaVuSans-48"/>
     </g>
    </g>
   </g>
   <g id="text_34">
    <g clip-path="url(#p55b662c44a)">
     <!-- 9.000 -->
     <g style="fill:#dde318;" transform="translate(68.713735 104.452935)rotate(-298.379538)scale(0.06 -0.06)">
      <defs>
       <path d="M 10.984375 1.515625 
L 10.984375 10.5 
Q 14.703125 8.734375 18.5 7.8125 
Q 22.3125 6.890625 25.984375 6.890625 
Q 35.75 6.890625 40.890625 13.453125 
Q 46.046875 20.015625 46.78125 33.40625 
Q 43.953125 29.203125 39.59375 26.953125 
Q 35.25 24.703125 29.984375 24.703125 
Q 19.046875 24.703125 12.671875 31.3125 
Q 6.296875 37.9375 6.296875 49.421875 
Q 6.296875 60.640625 12.9375 67.421875 
Q 19.578125 74.21875 30.609375 74.21875 
Q 43.265625 74.21875 49.921875 64.515625 
Q 56.59375 54.828125 56.59375 36.375 
Q 56.59375 19.140625 48.40625 8.859375 
Q 40.234375 -1.421875 26.421875 -1.421875 
Q 22.703125 -1.421875 18.890625 -0.6875 
Q 15.09375 0.046875 10.984375 1.515625 
z
M 30.609375 32.421875 
Q 37.25 32.421875 41.125 36.953125 
Q 45.015625 41.5 45.015625 49.421875 
Q 45.015625 57.28125 41.125 61.84375 
Q 37.25 66.40625 30.609375 66.40625 
Q 23.96875 66.40625 20.09375 61.84375 
Q 16.21875 57.28125 16.21875 49.421875 
Q 16.21875 41.5 20.09375 36.953125 
Q 23.96875 32.421875 30.609375 32.421875 
z
" id="DejaVuSans-57"/>
      </defs>
      <use xlink:href="#DejaVuSans-57"/>
      <use x="63.623047" xlink:href="#DejaVuSans-46"/>
      <use x="95.410156" xlink:href="#DejaVuSans-48"/>
      <use x="159.033203" xlink:href="#DejaVuSans-48"/>
      <use x="222.65625" xlink:href="#DejaVuSans-48"/>
     </g>
    </g>
   </g>
   <g id="text_35">
    <g clip-path="url(#p55b662c44a)">
     <!-- 9.500 -->
     <g style="fill:#fde725;" transform="translate(68.81706 104.430652)rotate(-298.148467)scale(0.06 -0.06)">
      <use xlink:href="#DejaVuSans-57"/>
      <use x="63.623047" xlink:href="#DejaVuSans-46"/>
      <use x="95.410156" xlink:href="#DejaVuSans-53"/>
      <use x="159.033203" xlink:href="#DejaVuSans-48"/>
      <use x="222.65625" xlink:href="#DejaVuSans-48"/>
     </g>
    </g>
   </g>
   <g id="text_36">
    <g clip-path="url(#p55b662c44a)">
     <!-- 10.000 -->
     <g style="fill:#440154;" transform="translate(68.910808 113.898841)rotate(-297.291388)scale(0.06 -0.06)">
      <use xlink:href="#DejaVuSans-49"/>
      <use x="63.623047" xlink:href="#DejaVuSans-48"/>
      <use x="127.246094" xlink:href="#DejaVuSans-46"/>
      <use x="159.033203" xlink:href="#DejaVuSans-48"/>
      <use x="222.65625" xlink:href="#DejaVuSans-48"/>
      <use x="286.279297" xlink:href="#DejaVuSans-48"/>
     </g>
    </g>
   </g>
   <g id="text_37">
    <g clip-path="url(#p55b662c44a)">
     <!-- 100.000 -->
     <g style="fill:#440154;" transform="translate(73.065809 117.183413)rotate(-290.98949)scale(0.06 -0.06)">
      <use xlink:href="#DejaVuSans-49"/>
      <use x="63.623047" xlink:href="#DejaVuSans-48"/>
      <use x="127.246094" xlink:href="#DejaVuSans-48"/>
      <use x="190.869141" xlink:href="#DejaVuSans-46"/>
      <use x="222.65625" xlink:href="#DejaVuSans-48"/>
      <use x="286.279297" xlink:href="#DejaVuSans-48"/>
      <use x="349.902344" xlink:href="#DejaVuSans-48"/>
     </g>
    </g>
   </g>
   <g id="text_38">
    <g clip-path="url(#p55b662c44a)">
     <!-- 1000.000 -->
     <g style="fill:#440154;" transform="translate(82.682025 164.981764)rotate(-85.754671)scale(0.06 -0.06)">
      <use xlink:href="#DejaVuSans-49"/>
      <use x="63.623047" xlink:href="#DejaVuSans-48"/>
      <use x="127.246094" xlink:href="#DejaVuSans-48"/>
      <use x="190.869141" xlink:href="#DejaVuSans-48"/>
      <use x="254.492188" xlink:href="#DejaVuSans-46"/>
      <use x="286.279297" xlink:href="#DejaVuSans-48"/>
      <use x="349.902344" xlink:href="#DejaVuSans-48"/>
      <use x="413.525391" xlink:href="#DejaVuSans-48"/>
     </g>
    </g>
   </g>
   <g id="text_39">
    <g clip-path="url(#p55b662c44a)">
     <!-- 10000.000 -->
     <g style="fill:#440154;" transform="translate(72.89948 226.817287)rotate(-56.029894)scale(0.06 -0.06)">
      <use xlink:href="#DejaVuSans-49"/>
      <use x="63.623047" xlink:href="#DejaVuSans-48"/>
      <use x="127.246094" xlink:href="#DejaVuSans-48"/>
      <use x="190.869141" xlink:href="#DejaVuSans-48"/>
      <use x="254.492188" xlink:href="#DejaVuSans-48"/>
      <use x="318.115234" xlink:href="#DejaVuSans-46"/>
      <use x="349.902344" xlink:href="#DejaVuSans-48"/>
      <use x="413.525391" xlink:href="#DejaVuSans-48"/>
      <use x="477.148438" xlink:href="#DejaVuSans-48"/>
     </g>
    </g>
   </g>
  </g>
 </g>
 <defs>
  <clipPath id="p55b662c44a">
   <rect height="266.112" width="357.12" x="49.665988" y="8.654362"/>
  </clipPath>
 </defs>
</svg>
