<?xml version="1.0" encoding="utf-8" standalone="no"?>
<!DOCTYPE svg PUBLIC "-//W3C//DTD SVG 1.1//EN"
  "http://www.w3.org/Graphics/SVG/1.1/DTD/svg11.dtd">
<!-- Created with matplotlib (https://matplotlib.org/) -->
<svg height="317.913925pt" version="1.1" viewBox="0 0 413.985987 317.913925" width="413.985987pt" xmlns="http://www.w3.org/2000/svg" xmlns:xlink="http://www.w3.org/1999/xlink">
 <metadata>
  <rdf:RDF xmlns:cc="http://creativecommons.org/ns#" xmlns:dc="http://purl.org/dc/elements/1.1/" xmlns:rdf="http://www.w3.org/1999/02/22-rdf-syntax-ns#">
   <cc:Work>
    <dc:type rdf:resource="http://purl.org/dc/dcmitype/StillImage"/>
    <dc:date>2021-09-17T20:06:55.666895</dc:date>
    <dc:format>image/svg+xml</dc:format>
    <dc:creator>
     <cc:Agent>
      <dc:title>Matplotlib v3.3.1, https://matplotlib.org/</dc:title>
     </cc:Agent>
    </dc:creator>
   </cc:Work>
  </rdf:RDF>
 </metadata>
 <defs>
  <style type="text/css">*{stroke-linecap:butt;stroke-linejoin:round;}</style>
 </defs>
 <g id="figure_1">
  <g id="patch_1">
   <path d="M 0 317.913925 
L 413.985987 317.913925 
L 413.985987 0 
L 0 0 
z
" style="fill:#ffffff;"/>
  </g>
  <g id="axes_1">
   <g id="patch_2">
    <path d="M 49.665988 273.312 
L 406.785988 273.312 
L 406.785988 7.2 
L 49.665988 7.2 
z
" style="fill:#ffffff;"/>
   </g>
   <g id="matplotlib.axis_1">
    <g id="xtick_1">
     <g id="line2d_1">
      <defs>
       <path d="M 0 0 
L 0 3.5 
" id="m5966bf8c76" style="stroke:#000000;stroke-width:0.8;"/>
      </defs>
      <g>
       <use style="stroke:#000000;stroke-width:0.8;" x="49.665988" xlink:href="#m5966bf8c76" y="273.312"/>
      </g>
     </g>
     <g id="text_1">
      <!-- −10 -->
      <g transform="translate(39.113644 287.910437)scale(0.1 -0.1)">
       <defs>
        <path d="M 10.59375 35.5 
L 73.1875 35.5 
L 73.1875 27.203125 
L 10.59375 27.203125 
z
" id="DejaVuSans-8722"/>
        <path d="M 12.40625 8.296875 
L 28.515625 8.296875 
L 28.515625 63.921875 
L 10.984375 60.40625 
L 10.984375 69.390625 
L 28.421875 72.90625 
L 38.28125 72.90625 
L 38.28125 8.296875 
L 54.390625 8.296875 
L 54.390625 0 
L 12.40625 0 
z
" id="DejaVuSans-49"/>
        <path d="M 31.78125 66.40625 
Q 24.171875 66.40625 20.328125 58.90625 
Q 16.5 51.421875 16.5 36.375 
Q 16.5 21.390625 20.328125 13.890625 
Q 24.171875 6.390625 31.78125 6.390625 
Q 39.453125 6.390625 43.28125 13.890625 
Q 47.125 21.390625 47.125 36.375 
Q 47.125 51.421875 43.28125 58.90625 
Q 39.453125 66.40625 31.78125 66.40625 
z
M 31.78125 74.21875 
Q 44.046875 74.21875 50.515625 64.515625 
Q 56.984375 54.828125 56.984375 36.375 
Q 56.984375 17.96875 50.515625 8.265625 
Q 44.046875 -1.421875 31.78125 -1.421875 
Q 19.53125 -1.421875 13.0625 8.265625 
Q 6.59375 17.96875 6.59375 36.375 
Q 6.59375 54.828125 13.0625 64.515625 
Q 19.53125 74.21875 31.78125 74.21875 
z
" id="DejaVuSans-48"/>
       </defs>
       <use xlink:href="#DejaVuSans-8722"/>
       <use x="83.789062" xlink:href="#DejaVuSans-49"/>
       <use x="147.412109" xlink:href="#DejaVuSans-48"/>
      </g>
     </g>
    </g>
    <g id="xtick_2">
     <g id="line2d_2">
      <g>
       <use style="stroke:#000000;stroke-width:0.8;" x="94.935954" xlink:href="#m5966bf8c76" y="273.312"/>
      </g>
     </g>
     <g id="text_2">
      <!-- 0 -->
      <g transform="translate(91.754704 287.910437)scale(0.1 -0.1)">
       <use xlink:href="#DejaVuSans-48"/>
      </g>
     </g>
    </g>
    <g id="xtick_3">
     <g id="line2d_3">
      <g>
       <use style="stroke:#000000;stroke-width:0.8;" x="140.205921" xlink:href="#m5966bf8c76" y="273.312"/>
      </g>
     </g>
     <g id="text_3">
      <!-- 10 -->
      <g transform="translate(133.843421 287.910437)scale(0.1 -0.1)">
       <use xlink:href="#DejaVuSans-49"/>
       <use x="63.623047" xlink:href="#DejaVuSans-48"/>
      </g>
     </g>
    </g>
    <g id="xtick_4">
     <g id="line2d_4">
      <g>
       <use style="stroke:#000000;stroke-width:0.8;" x="185.475888" xlink:href="#m5966bf8c76" y="273.312"/>
      </g>
     </g>
     <g id="text_4">
      <!-- 20 -->
      <g transform="translate(179.113388 287.910437)scale(0.1 -0.1)">
       <defs>
        <path d="M 19.1875 8.296875 
L 53.609375 8.296875 
L 53.609375 0 
L 7.328125 0 
L 7.328125 8.296875 
Q 12.9375 14.109375 22.625 23.890625 
Q 32.328125 33.6875 34.8125 36.53125 
Q 39.546875 41.84375 41.421875 45.53125 
Q 43.3125 49.21875 43.3125 52.78125 
Q 43.3125 58.59375 39.234375 62.25 
Q 35.15625 65.921875 28.609375 65.921875 
Q 23.96875 65.921875 18.8125 64.3125 
Q 13.671875 62.703125 7.8125 59.421875 
L 7.8125 69.390625 
Q 13.765625 71.78125 18.9375 73 
Q 24.125 74.21875 28.421875 74.21875 
Q 39.75 74.21875 46.484375 68.546875 
Q 53.21875 62.890625 53.21875 53.421875 
Q 53.21875 48.921875 51.53125 44.890625 
Q 49.859375 40.875 45.40625 35.40625 
Q 44.1875 33.984375 37.640625 27.21875 
Q 31.109375 20.453125 19.1875 8.296875 
z
" id="DejaVuSans-50"/>
       </defs>
       <use xlink:href="#DejaVuSans-50"/>
       <use x="63.623047" xlink:href="#DejaVuSans-48"/>
      </g>
     </g>
    </g>
    <g id="xtick_5">
     <g id="line2d_5">
      <g>
       <use style="stroke:#000000;stroke-width:0.8;" x="230.745855" xlink:href="#m5966bf8c76" y="273.312"/>
      </g>
     </g>
     <g id="text_5">
      <!-- 30 -->
      <g transform="translate(224.383355 287.910437)scale(0.1 -0.1)">
       <defs>
        <path d="M 40.578125 39.3125 
Q 47.65625 37.796875 51.625 33 
Q 55.609375 28.21875 55.609375 21.1875 
Q 55.609375 10.40625 48.1875 4.484375 
Q 40.765625 -1.421875 27.09375 -1.421875 
Q 22.515625 -1.421875 17.65625 -0.515625 
Q 12.796875 0.390625 7.625 2.203125 
L 7.625 11.71875 
Q 11.71875 9.328125 16.59375 8.109375 
Q 21.484375 6.890625 26.8125 6.890625 
Q 36.078125 6.890625 40.9375 10.546875 
Q 45.796875 14.203125 45.796875 21.1875 
Q 45.796875 27.640625 41.28125 31.265625 
Q 36.765625 34.90625 28.71875 34.90625 
L 20.21875 34.90625 
L 20.21875 43.015625 
L 29.109375 43.015625 
Q 36.375 43.015625 40.234375 45.921875 
Q 44.09375 48.828125 44.09375 54.296875 
Q 44.09375 59.90625 40.109375 62.90625 
Q 36.140625 65.921875 28.71875 65.921875 
Q 24.65625 65.921875 20.015625 65.03125 
Q 15.375 64.15625 9.8125 62.3125 
L 9.8125 71.09375 
Q 15.4375 72.65625 20.34375 73.4375 
Q 25.25 74.21875 29.59375 74.21875 
Q 40.828125 74.21875 47.359375 69.109375 
Q 53.90625 64.015625 53.90625 55.328125 
Q 53.90625 49.265625 50.4375 45.09375 
Q 46.96875 40.921875 40.578125 39.3125 
z
" id="DejaVuSans-51"/>
       </defs>
       <use xlink:href="#DejaVuSans-51"/>
       <use x="63.623047" xlink:href="#DejaVuSans-48"/>
      </g>
     </g>
    </g>
    <g id="xtick_6">
     <g id="line2d_6">
      <g>
       <use style="stroke:#000000;stroke-width:0.8;" x="276.015822" xlink:href="#m5966bf8c76" y="273.312"/>
      </g>
     </g>
     <g id="text_6">
      <!-- 40 -->
      <g transform="translate(269.653322 287.910437)scale(0.1 -0.1)">
       <defs>
        <path d="M 37.796875 64.3125 
L 12.890625 25.390625 
L 37.796875 25.390625 
z
M 35.203125 72.90625 
L 47.609375 72.90625 
L 47.609375 25.390625 
L 58.015625 25.390625 
L 58.015625 17.1875 
L 47.609375 17.1875 
L 47.609375 0 
L 37.796875 0 
L 37.796875 17.1875 
L 4.890625 17.1875 
L 4.890625 26.703125 
z
" id="DejaVuSans-52"/>
       </defs>
       <use xlink:href="#DejaVuSans-52"/>
       <use x="63.623047" xlink:href="#DejaVuSans-48"/>
      </g>
     </g>
    </g>
    <g id="xtick_7">
     <g id="line2d_7">
      <g>
       <use style="stroke:#000000;stroke-width:0.8;" x="321.285789" xlink:href="#m5966bf8c76" y="273.312"/>
      </g>
     </g>
     <g id="text_7">
      <!-- 50 -->
      <g transform="translate(314.923289 287.910437)scale(0.1 -0.1)">
       <defs>
        <path d="M 10.796875 72.90625 
L 49.515625 72.90625 
L 49.515625 64.59375 
L 19.828125 64.59375 
L 19.828125 46.734375 
Q 21.96875 47.46875 24.109375 47.828125 
Q 26.265625 48.1875 28.421875 48.1875 
Q 40.625 48.1875 47.75 41.5 
Q 54.890625 34.8125 54.890625 23.390625 
Q 54.890625 11.625 47.5625 5.09375 
Q 40.234375 -1.421875 26.90625 -1.421875 
Q 22.3125 -1.421875 17.546875 -0.640625 
Q 12.796875 0.140625 7.71875 1.703125 
L 7.71875 11.625 
Q 12.109375 9.234375 16.796875 8.0625 
Q 21.484375 6.890625 26.703125 6.890625 
Q 35.15625 6.890625 40.078125 11.328125 
Q 45.015625 15.765625 45.015625 23.390625 
Q 45.015625 31 40.078125 35.4375 
Q 35.15625 39.890625 26.703125 39.890625 
Q 22.75 39.890625 18.8125 39.015625 
Q 14.890625 38.140625 10.796875 36.28125 
z
" id="DejaVuSans-53"/>
       </defs>
       <use xlink:href="#DejaVuSans-53"/>
       <use x="63.623047" xlink:href="#DejaVuSans-48"/>
      </g>
     </g>
    </g>
    <g id="xtick_8">
     <g id="line2d_8">
      <g>
       <use style="stroke:#000000;stroke-width:0.8;" x="366.555756" xlink:href="#m5966bf8c76" y="273.312"/>
      </g>
     </g>
     <g id="text_8">
      <!-- 60 -->
      <g transform="translate(360.193256 287.910437)scale(0.1 -0.1)">
       <defs>
        <path d="M 33.015625 40.375 
Q 26.375 40.375 22.484375 35.828125 
Q 18.609375 31.296875 18.609375 23.390625 
Q 18.609375 15.53125 22.484375 10.953125 
Q 26.375 6.390625 33.015625 6.390625 
Q 39.65625 6.390625 43.53125 10.953125 
Q 47.40625 15.53125 47.40625 23.390625 
Q 47.40625 31.296875 43.53125 35.828125 
Q 39.65625 40.375 33.015625 40.375 
z
M 52.59375 71.296875 
L 52.59375 62.3125 
Q 48.875 64.0625 45.09375 64.984375 
Q 41.3125 65.921875 37.59375 65.921875 
Q 27.828125 65.921875 22.671875 59.328125 
Q 17.53125 52.734375 16.796875 39.40625 
Q 19.671875 43.65625 24.015625 45.921875 
Q 28.375 48.1875 33.59375 48.1875 
Q 44.578125 48.1875 50.953125 41.515625 
Q 57.328125 34.859375 57.328125 23.390625 
Q 57.328125 12.15625 50.6875 5.359375 
Q 44.046875 -1.421875 33.015625 -1.421875 
Q 20.359375 -1.421875 13.671875 8.265625 
Q 6.984375 17.96875 6.984375 36.375 
Q 6.984375 53.65625 15.1875 63.9375 
Q 23.390625 74.21875 37.203125 74.21875 
Q 40.921875 74.21875 44.703125 73.484375 
Q 48.484375 72.75 52.59375 71.296875 
z
" id="DejaVuSans-54"/>
       </defs>
       <use xlink:href="#DejaVuSans-54"/>
       <use x="63.623047" xlink:href="#DejaVuSans-48"/>
      </g>
     </g>
    </g>
    <g id="text_9">
     <!-- 1st PC: 98.74 % -->
     <g transform="translate(159.505587 307.120225)scale(0.1728 -0.1728)">
      <defs>
       <path d="M 44.28125 53.078125 
L 44.28125 44.578125 
Q 40.484375 46.53125 36.375 47.5 
Q 32.28125 48.484375 27.875 48.484375 
Q 21.1875 48.484375 17.84375 46.4375 
Q 14.5 44.390625 14.5 40.28125 
Q 14.5 37.15625 16.890625 35.375 
Q 19.28125 33.59375 26.515625 31.984375 
L 29.59375 31.296875 
Q 39.15625 29.25 43.1875 25.515625 
Q 47.21875 21.78125 47.21875 15.09375 
Q 47.21875 7.46875 41.1875 3.015625 
Q 35.15625 -1.421875 24.609375 -1.421875 
Q 20.21875 -1.421875 15.453125 -0.5625 
Q 10.6875 0.296875 5.421875 2 
L 5.421875 11.28125 
Q 10.40625 8.6875 15.234375 7.390625 
Q 20.0625 6.109375 24.8125 6.109375 
Q 31.15625 6.109375 34.5625 8.28125 
Q 37.984375 10.453125 37.984375 14.40625 
Q 37.984375 18.0625 35.515625 20.015625 
Q 33.0625 21.96875 24.703125 23.78125 
L 21.578125 24.515625 
Q 13.234375 26.265625 9.515625 29.90625 
Q 5.8125 33.546875 5.8125 39.890625 
Q 5.8125 47.609375 11.28125 51.796875 
Q 16.75 56 26.8125 56 
Q 31.78125 56 36.171875 55.265625 
Q 40.578125 54.546875 44.28125 53.078125 
z
" id="DejaVuSans-115"/>
       <path d="M 18.3125 70.21875 
L 18.3125 54.6875 
L 36.8125 54.6875 
L 36.8125 47.703125 
L 18.3125 47.703125 
L 18.3125 18.015625 
Q 18.3125 11.328125 20.140625 9.421875 
Q 21.96875 7.515625 27.59375 7.515625 
L 36.8125 7.515625 
L 36.8125 0 
L 27.59375 0 
Q 17.1875 0 13.234375 3.875 
Q 9.28125 7.765625 9.28125 18.015625 
L 9.28125 47.703125 
L 2.6875 47.703125 
L 2.6875 54.6875 
L 9.28125 54.6875 
L 9.28125 70.21875 
z
" id="DejaVuSans-116"/>
       <path id="DejaVuSans-32"/>
       <path d="M 19.671875 64.796875 
L 19.671875 37.40625 
L 32.078125 37.40625 
Q 38.96875 37.40625 42.71875 40.96875 
Q 46.484375 44.53125 46.484375 51.125 
Q 46.484375 57.671875 42.71875 61.234375 
Q 38.96875 64.796875 32.078125 64.796875 
z
M 9.8125 72.90625 
L 32.078125 72.90625 
Q 44.34375 72.90625 50.609375 67.359375 
Q 56.890625 61.8125 56.890625 51.125 
Q 56.890625 40.328125 50.609375 34.8125 
Q 44.34375 29.296875 32.078125 29.296875 
L 19.671875 29.296875 
L 19.671875 0 
L 9.8125 0 
z
" id="DejaVuSans-80"/>
       <path d="M 64.40625 67.28125 
L 64.40625 56.890625 
Q 59.421875 61.53125 53.78125 63.8125 
Q 48.140625 66.109375 41.796875 66.109375 
Q 29.296875 66.109375 22.65625 58.46875 
Q 16.015625 50.828125 16.015625 36.375 
Q 16.015625 21.96875 22.65625 14.328125 
Q 29.296875 6.6875 41.796875 6.6875 
Q 48.140625 6.6875 53.78125 8.984375 
Q 59.421875 11.28125 64.40625 15.921875 
L 64.40625 5.609375 
Q 59.234375 2.09375 53.4375 0.328125 
Q 47.65625 -1.421875 41.21875 -1.421875 
Q 24.65625 -1.421875 15.125 8.703125 
Q 5.609375 18.84375 5.609375 36.375 
Q 5.609375 53.953125 15.125 64.078125 
Q 24.65625 74.21875 41.21875 74.21875 
Q 47.75 74.21875 53.53125 72.484375 
Q 59.328125 70.75 64.40625 67.28125 
z
" id="DejaVuSans-67"/>
       <path d="M 11.71875 12.40625 
L 22.015625 12.40625 
L 22.015625 0 
L 11.71875 0 
z
M 11.71875 51.703125 
L 22.015625 51.703125 
L 22.015625 39.3125 
L 11.71875 39.3125 
z
" id="DejaVuSans-58"/>
       <path d="M 10.984375 1.515625 
L 10.984375 10.5 
Q 14.703125 8.734375 18.5 7.8125 
Q 22.3125 6.890625 25.984375 6.890625 
Q 35.75 6.890625 40.890625 13.453125 
Q 46.046875 20.015625 46.78125 33.40625 
Q 43.953125 29.203125 39.59375 26.953125 
Q 35.25 24.703125 29.984375 24.703125 
Q 19.046875 24.703125 12.671875 31.3125 
Q 6.296875 37.9375 6.296875 49.421875 
Q 6.296875 60.640625 12.9375 67.421875 
Q 19.578125 74.21875 30.609375 74.21875 
Q 43.265625 74.21875 49.921875 64.515625 
Q 56.59375 54.828125 56.59375 36.375 
Q 56.59375 19.140625 48.40625 8.859375 
Q 40.234375 -1.421875 26.421875 -1.421875 
Q 22.703125 -1.421875 18.890625 -0.6875 
Q 15.09375 0.046875 10.984375 1.515625 
z
M 30.609375 32.421875 
Q 37.25 32.421875 41.125 36.953125 
Q 45.015625 41.5 45.015625 49.421875 
Q 45.015625 57.28125 41.125 61.84375 
Q 37.25 66.40625 30.609375 66.40625 
Q 23.96875 66.40625 20.09375 61.84375 
Q 16.21875 57.28125 16.21875 49.421875 
Q 16.21875 41.5 20.09375 36.953125 
Q 23.96875 32.421875 30.609375 32.421875 
z
" id="DejaVuSans-57"/>
       <path d="M 31.78125 34.625 
Q 24.75 34.625 20.71875 30.859375 
Q 16.703125 27.09375 16.703125 20.515625 
Q 16.703125 13.921875 20.71875 10.15625 
Q 24.75 6.390625 31.78125 6.390625 
Q 38.8125 6.390625 42.859375 10.171875 
Q 46.921875 13.96875 46.921875 20.515625 
Q 46.921875 27.09375 42.890625 30.859375 
Q 38.875 34.625 31.78125 34.625 
z
M 21.921875 38.8125 
Q 15.578125 40.375 12.03125 44.71875 
Q 8.5 49.078125 8.5 55.328125 
Q 8.5 64.0625 14.71875 69.140625 
Q 20.953125 74.21875 31.78125 74.21875 
Q 42.671875 74.21875 48.875 69.140625 
Q 55.078125 64.0625 55.078125 55.328125 
Q 55.078125 49.078125 51.53125 44.71875 
Q 48 40.375 41.703125 38.8125 
Q 48.828125 37.15625 52.796875 32.3125 
Q 56.78125 27.484375 56.78125 20.515625 
Q 56.78125 9.90625 50.3125 4.234375 
Q 43.84375 -1.421875 31.78125 -1.421875 
Q 19.734375 -1.421875 13.25 4.234375 
Q 6.78125 9.90625 6.78125 20.515625 
Q 6.78125 27.484375 10.78125 32.3125 
Q 14.796875 37.15625 21.921875 38.8125 
z
M 18.3125 54.390625 
Q 18.3125 48.734375 21.84375 45.5625 
Q 25.390625 42.390625 31.78125 42.390625 
Q 38.140625 42.390625 41.71875 45.5625 
Q 45.3125 48.734375 45.3125 54.390625 
Q 45.3125 60.0625 41.71875 63.234375 
Q 38.140625 66.40625 31.78125 66.40625 
Q 25.390625 66.40625 21.84375 63.234375 
Q 18.3125 60.0625 18.3125 54.390625 
z
" id="DejaVuSans-56"/>
       <path d="M 10.6875 12.40625 
L 21 12.40625 
L 21 0 
L 10.6875 0 
z
" id="DejaVuSans-46"/>
       <path d="M 8.203125 72.90625 
L 55.078125 72.90625 
L 55.078125 68.703125 
L 28.609375 0 
L 18.3125 0 
L 43.21875 64.59375 
L 8.203125 64.59375 
z
" id="DejaVuSans-55"/>
       <path d="M 72.703125 32.078125 
Q 68.453125 32.078125 66.03125 28.46875 
Q 63.625 24.859375 63.625 18.40625 
Q 63.625 12.0625 66.03125 8.421875 
Q 68.453125 4.78125 72.703125 4.78125 
Q 76.859375 4.78125 79.265625 8.421875 
Q 81.6875 12.0625 81.6875 18.40625 
Q 81.6875 24.8125 79.265625 28.4375 
Q 76.859375 32.078125 72.703125 32.078125 
z
M 72.703125 38.28125 
Q 80.421875 38.28125 84.953125 32.90625 
Q 89.5 27.546875 89.5 18.40625 
Q 89.5 9.28125 84.9375 3.921875 
Q 80.375 -1.421875 72.703125 -1.421875 
Q 64.890625 -1.421875 60.34375 3.921875 
Q 55.8125 9.28125 55.8125 18.40625 
Q 55.8125 27.59375 60.375 32.9375 
Q 64.9375 38.28125 72.703125 38.28125 
z
M 22.3125 68.015625 
Q 18.109375 68.015625 15.6875 64.375 
Q 13.28125 60.75 13.28125 54.390625 
Q 13.28125 47.953125 15.671875 44.328125 
Q 18.0625 40.71875 22.3125 40.71875 
Q 26.5625 40.71875 28.96875 44.328125 
Q 31.390625 47.953125 31.390625 54.390625 
Q 31.390625 60.6875 28.953125 64.34375 
Q 26.515625 68.015625 22.3125 68.015625 
z
M 66.40625 74.21875 
L 74.21875 74.21875 
L 28.609375 -1.421875 
L 20.796875 -1.421875 
z
M 22.3125 74.21875 
Q 30.03125 74.21875 34.609375 68.875 
Q 39.203125 63.53125 39.203125 54.390625 
Q 39.203125 45.171875 34.640625 39.84375 
Q 30.078125 34.515625 22.3125 34.515625 
Q 14.546875 34.515625 10.03125 39.859375 
Q 5.515625 45.21875 5.515625 54.390625 
Q 5.515625 63.484375 10.046875 68.84375 
Q 14.59375 74.21875 22.3125 74.21875 
z
" id="DejaVuSans-37"/>
      </defs>
      <use xlink:href="#DejaVuSans-49"/>
      <use x="63.623047" xlink:href="#DejaVuSans-115"/>
      <use x="115.722656" xlink:href="#DejaVuSans-116"/>
      <use x="154.931641" xlink:href="#DejaVuSans-32"/>
      <use x="186.71875" xlink:href="#DejaVuSans-80"/>
      <use x="247.021484" xlink:href="#DejaVuSans-67"/>
      <use x="316.845703" xlink:href="#DejaVuSans-58"/>
      <use x="350.537109" xlink:href="#DejaVuSans-32"/>
      <use x="382.324219" xlink:href="#DejaVuSans-57"/>
      <use x="445.947266" xlink:href="#DejaVuSans-56"/>
      <use x="509.570312" xlink:href="#DejaVuSans-46"/>
      <use x="541.357422" xlink:href="#DejaVuSans-55"/>
      <use x="604.980469" xlink:href="#DejaVuSans-52"/>
      <use x="668.603516" xlink:href="#DejaVuSans-32"/>
      <use x="700.390625" xlink:href="#DejaVuSans-37"/>
     </g>
    </g>
   </g>
   <g id="matplotlib.axis_2">
    <g id="ytick_1">
     <g id="line2d_9">
      <defs>
       <path d="M 0 0 
L -3.5 0 
" id="mcb5f5f392e" style="stroke:#000000;stroke-width:0.8;"/>
      </defs>
      <g>
       <use style="stroke:#000000;stroke-width:0.8;" x="49.665988" xlink:href="#mcb5f5f392e" y="246.7008"/>
      </g>
     </g>
     <g id="text_10">
      <!-- −4 -->
      <g transform="translate(27.9238 250.500019)scale(0.1 -0.1)">
       <use xlink:href="#DejaVuSans-8722"/>
       <use x="83.789062" xlink:href="#DejaVuSans-52"/>
      </g>
     </g>
    </g>
    <g id="ytick_2">
     <g id="line2d_10">
      <g>
       <use style="stroke:#000000;stroke-width:0.8;" x="49.665988" xlink:href="#mcb5f5f392e" y="193.4784"/>
      </g>
     </g>
     <g id="text_11">
      <!-- −2 -->
      <g transform="translate(27.9238 197.277619)scale(0.1 -0.1)">
       <use xlink:href="#DejaVuSans-8722"/>
       <use x="83.789062" xlink:href="#DejaVuSans-50"/>
      </g>
     </g>
    </g>
    <g id="ytick_3">
     <g id="line2d_11">
      <g>
       <use style="stroke:#000000;stroke-width:0.8;" x="49.665988" xlink:href="#mcb5f5f392e" y="140.256"/>
      </g>
     </g>
     <g id="text_12">
      <!-- 0 -->
      <g transform="translate(36.303488 144.055219)scale(0.1 -0.1)">
       <use xlink:href="#DejaVuSans-48"/>
      </g>
     </g>
    </g>
    <g id="ytick_4">
     <g id="line2d_12">
      <g>
       <use style="stroke:#000000;stroke-width:0.8;" x="49.665988" xlink:href="#mcb5f5f392e" y="87.0336"/>
      </g>
     </g>
     <g id="text_13">
      <!-- 2 -->
      <g transform="translate(36.303488 90.832819)scale(0.1 -0.1)">
       <use xlink:href="#DejaVuSans-50"/>
      </g>
     </g>
    </g>
    <g id="ytick_5">
     <g id="line2d_13">
      <g>
       <use style="stroke:#000000;stroke-width:0.8;" x="49.665988" xlink:href="#mcb5f5f392e" y="33.8112"/>
      </g>
     </g>
     <g id="text_14">
      <!-- 4 -->
      <g transform="translate(36.303488 37.610419)scale(0.1 -0.1)">
       <use xlink:href="#DejaVuSans-52"/>
      </g>
     </g>
    </g>
    <g id="text_15">
     <!-- 2nd PC: 0.66 % -->
     <g transform="translate(20.3301 206.5518)rotate(-90)scale(0.1728 -0.1728)">
      <defs>
       <path d="M 54.890625 33.015625 
L 54.890625 0 
L 45.90625 0 
L 45.90625 32.71875 
Q 45.90625 40.484375 42.875 44.328125 
Q 39.84375 48.1875 33.796875 48.1875 
Q 26.515625 48.1875 22.3125 43.546875 
Q 18.109375 38.921875 18.109375 30.90625 
L 18.109375 0 
L 9.078125 0 
L 9.078125 54.6875 
L 18.109375 54.6875 
L 18.109375 46.1875 
Q 21.34375 51.125 25.703125 53.5625 
Q 30.078125 56 35.796875 56 
Q 45.21875 56 50.046875 50.171875 
Q 54.890625 44.34375 54.890625 33.015625 
z
" id="DejaVuSans-110"/>
       <path d="M 45.40625 46.390625 
L 45.40625 75.984375 
L 54.390625 75.984375 
L 54.390625 0 
L 45.40625 0 
L 45.40625 8.203125 
Q 42.578125 3.328125 38.25 0.953125 
Q 33.9375 -1.421875 27.875 -1.421875 
Q 17.96875 -1.421875 11.734375 6.484375 
Q 5.515625 14.40625 5.515625 27.296875 
Q 5.515625 40.1875 11.734375 48.09375 
Q 17.96875 56 27.875 56 
Q 33.9375 56 38.25 53.625 
Q 42.578125 51.265625 45.40625 46.390625 
z
M 14.796875 27.296875 
Q 14.796875 17.390625 18.875 11.75 
Q 22.953125 6.109375 30.078125 6.109375 
Q 37.203125 6.109375 41.296875 11.75 
Q 45.40625 17.390625 45.40625 27.296875 
Q 45.40625 37.203125 41.296875 42.84375 
Q 37.203125 48.484375 30.078125 48.484375 
Q 22.953125 48.484375 18.875 42.84375 
Q 14.796875 37.203125 14.796875 27.296875 
z
" id="DejaVuSans-100"/>
      </defs>
      <use xlink:href="#DejaVuSans-50"/>
      <use x="63.623047" xlink:href="#DejaVuSans-110"/>
      <use x="127.001953" xlink:href="#DejaVuSans-100"/>
      <use x="190.478516" xlink:href="#DejaVuSans-32"/>
      <use x="222.265625" xlink:href="#DejaVuSans-80"/>
      <use x="282.568359" xlink:href="#DejaVuSans-67"/>
      <use x="352.392578" xlink:href="#DejaVuSans-58"/>
      <use x="386.083984" xlink:href="#DejaVuSans-32"/>
      <use x="417.871094" xlink:href="#DejaVuSans-48"/>
      <use x="481.494141" xlink:href="#DejaVuSans-46"/>
      <use x="513.28125" xlink:href="#DejaVuSans-54"/>
      <use x="576.904297" xlink:href="#DejaVuSans-54"/>
      <use x="640.527344" xlink:href="#DejaVuSans-32"/>
      <use x="672.314453" xlink:href="#DejaVuSans-37"/>
     </g>
    </g>
   </g>
   <g id="LineCollection_1"/>
   <g id="LineCollection_2"/>
   <g id="LineCollection_3"/>
   <g id="LineCollection_4">
    <path clip-path="url(#pfedc54513d)" d="M 96.97524 133.305279 
L 97.129514 140.256 
L 95.64089 149.1264 
L 94.935954 151.070953 
L 94.454847 149.1264 
L 93.567501 140.256 
L 93.466791 131.3856 
L 93.955944 122.5152 
L 94.214847 121.082623 
" style="fill:none;stroke:#453781;stroke-width:1.5;"/>
   </g>
   <g id="LineCollection_5">
    <path clip-path="url(#pfedc54513d)" d="M 76.439526 147.724655 
L 76.827968 144.850209 
L 77.401712 140.256 
L 78.481402 131.3856 
L 79.091466 126.230133 
L 79.485798 122.5152 
L 80.393182 113.6448 
L 81.288378 104.7744 
L 81.354964 104.105473 
L 82.065008 95.904 
L 82.873669 87.0336 
L 83.618463 80.389838 
L 83.850074 78.1632 
L 85.31633 69.2928 
L 85.881961 67.437802 
L 88.145459 63.044306 
L 90.408958 64.914727 
L 91.903792 69.2928 
L 92.672456 71.270532 
L 94.378935 78.1632 
L 94.935954 80.079716 
L 96.374048 87.0336 
L 97.199453 90.574937 
L 97.952924 95.904 
L 99.310946 104.7744 
L 99.462951 105.917059 
L 99.966511 113.6448 
L 100.482317 122.5152 
L 100.945233 131.3856 
L 101.367004 140.256 
L 101.72645 148.499611 
L 101.73963 149.1264 
L 101.88745 157.9968 
L 102.012854 166.8672 
L 102.087431 175.7376 
L 102.039547 184.608 
L 101.730308 193.4784 
L 101.72645 193.530354 
L 99.462951 201.766077 
L 98.693935 202.3488 
L 97.199453 203.110565 
L 94.935954 203.881701 
L 92.672456 204.871803 
L 90.408958 205.995128 
L 88.145459 207.205046 
L 85.881961 208.476787 
L 83.618463 209.701189 
L 81.354964 210.692753 
L 79.120735 211.2192 
L 79.091466 211.223751 
L 79.00109 211.2192 
L 76.827968 210.982729 
L 74.564469 209.388146 
L 72.300971 205.540525 
L 71.159859 202.3488 
L 70.84453 193.4784 
L 71.55727 184.608 
L 72.300971 178.587651 
L 72.633898 175.7376 
L 73.645531 168.195485 
" style="fill:none;stroke:#404688;stroke-width:1.5;"/>
   </g>
   <g id="LineCollection_6">
    <path clip-path="url(#pfedc54513d)" d="M 49.665988 74.658493 
L 50.989017 69.2928 
L 51.929486 66.100887 
L 53.558846 60.4224 
L 54.192984 58.678425 
L 56.456483 52.522963 
L 56.820548 51.552 
L 58.719981 48.055593 
L 60.983479 44.343461 
L 62.150431 42.6816 
L 63.246978 41.808173 
L 65.510476 40.482713 
L 67.773974 39.712478 
L 70.037473 39.352251 
L 72.300971 39.281194 
L 74.564469 39.407063 
L 76.827968 39.619754 
L 79.091466 39.896904 
L 81.354964 40.227368 
L 83.618463 40.62409 
L 85.881961 41.411193 
L 87.166939 42.6816 
L 88.145459 43.826494 
L 90.408958 49.700176 
L 90.841021 51.552 
L 92.672456 58.602412 
L 93.025909 60.4224 
L 94.935954 68.744929 
L 95.03676 69.2928 
L 96.829121 78.1632 
L 97.199453 79.798761 
L 98.335487 87.0336 
L 99.462951 93.37264 
L 99.738874 95.904 
L 100.598013 104.7744 
L 101.482619 113.6448 
L 101.72645 116.536862 
L 101.990248 122.5152 
L 102.335139 131.3856 
L 102.669397 140.256 
L 103.01203 149.1264 
L 103.373231 157.9968 
L 103.7644 166.8672 
L 103.989948 172.072334 
L 104.077774 175.7376 
L 104.26206 184.608 
L 104.396724 193.4784 
L 104.41813 202.3488 
L 104.197635 211.2192 
L 103.989948 214.222184 
L 102.253618 220.0896 
L 101.72645 220.947428 
L 99.462951 221.120739 
L 97.199453 220.768937 
L 94.935954 220.778347 
L 92.672456 221.251089 
L 90.408958 221.998245 
L 88.145459 222.971199 
L 85.881961 224.099893 
L 83.618463 225.295695 
L 81.354964 226.47235 
L 79.216084 227.50691 
" style="fill:none;stroke:#39558c;stroke-width:1.5;"/>
    <path clip-path="url(#pfedc54513d)" d="M 74.435425 229.163524 
L 72.300971 229.415474 
L 70.037473 229.440421 
L 67.773974 229.218083 
L 66.369544 228.96 
L 65.510476 228.681591 
L 63.246978 227.674548 
L 60.983479 226.47389 
L 58.719981 225.198166 
L 56.456483 223.954695 
L 54.192984 222.839961 
L 51.929486 221.891117 
L 49.665988 221.108199 
" style="fill:none;stroke:#39558c;stroke-width:1.5;"/>
   </g>
   <g id="LineCollection_7">
    <path clip-path="url(#pfedc54513d)" d="M 58.397741 7.2 
L 58.719981 7.479864 
L 60.983479 9.594653 
L 63.246978 11.577074 
L 65.510476 13.408212 
L 67.773974 15.092709 
L 69.128804 16.0704 
L 70.037473 17.018796 
L 72.300971 19.355676 
L 74.564469 21.422961 
L 76.827968 23.229252 
L 76.950676 23.313426 
" style="fill:none;stroke:#33638d;stroke-width:1.5;"/>
    <path clip-path="url(#pfedc54513d)" d="M 81.687777 27.071326 
L 83.618463 28.727099 
L 85.881961 30.9683 
L 87.820101 33.8112 
L 88.145459 34.376383 
L 90.408958 41.282715 
L 90.718638 42.6816 
L 92.672456 50.751109 
L 92.820323 51.552 
L 94.637939 60.4224 
L 94.935954 61.720928 
L 96.329139 69.2928 
L 97.199453 73.276593 
L 98.000448 78.1632 
L 99.462951 85.83223 
L 99.617404 87.0336 
L 100.643593 95.904 
L 101.72645 104.386986 
L 101.755355 104.7744 
L 102.277408 113.6448 
L 102.783738 122.5152 
L 103.271424 131.3856 
L 103.761071 140.256 
L 103.989948 144.472182 
L 104.127322 149.1264 
L 104.394498 157.9968 
L 104.698487 166.8672 
L 105.046345 175.7376 
L 105.42715 184.608 
L 105.818818 193.4784 
L 106.185296 202.3488 
L 106.253446 204.905265 
L 106.357209 211.2192 
L 106.393044 220.0896 
L 106.253446 226.349503 
L 106.047546 228.96 
L 103.989948 235.59653 
L 101.72645 235.220932 
L 99.462951 233.782593 
L 97.199453 232.653337 
L 94.935954 232.12171 
L 92.672456 232.125646 
L 90.408958 232.514486 
L 88.145459 233.210372 
L 85.881961 234.108588 
L 83.618463 235.124945 
L 81.354964 236.175848 
L 79.091466 237.183683 
L 77.464357 237.8304 
L 76.827968 238.023203 
L 74.564469 238.563021 
L 72.300971 238.92933 
L 70.037473 239.108037 
L 67.773974 239.105232 
L 65.510476 238.942806 
L 63.246978 238.668712 
L 60.983479 238.321523 
L 58.719981 237.949357 
L 57.97114 237.8304 
L 56.456483 237.457151 
L 54.192984 236.969771 
L 51.929486 236.601055 
L 49.665988 236.35685 
" style="fill:none;stroke:#33638d;stroke-width:1.5;"/>
   </g>
   <g id="LineCollection_8">
    <path clip-path="url(#pfedc54513d)" d="M 69.607652 7.2 
L 70.037473 7.690866 
L 72.300971 10.239129 
L 74.564469 12.53136 
L 76.827968 14.591682 
L 78.62464 16.0704 
L 79.091466 16.589405 
L 81.354964 19.065108 
L 83.618463 21.408287 
L 85.881961 23.946585 
L 86.442388 24.9408 
L 87.783714 27.76341 
" style="fill:none;stroke:#2d718e;stroke-width:1.5;"/>
    <path clip-path="url(#pfedc54513d)" d="M 91.760547 41.572259 
L 92.00613 42.6816 
L 92.672456 45.43361 
L 93.80208 51.552 
L 94.935954 56.752219 
L 95.57708 60.4224 
L 97.199453 68.080342 
L 97.400027 69.2928 
L 98.970139 78.1632 
L 99.462951 80.747396 
L 100.271128 87.0336 
L 101.548312 95.904 
L 101.72645 97.299508 
L 102.28417 104.7744 
L 102.933956 113.6448 
L 103.577229 122.5152 
L 103.989948 128.644744 
L 104.091685 131.3856 
L 104.393549 140.256 
L 104.720888 149.1264 
L 105.086131 157.9968 
L 105.511751 166.8672 
L 106.014917 175.7376 
L 106.253446 179.805153 
L 106.421736 184.608 
L 106.744537 193.4784 
L 107.092468 202.3488 
L 107.446622 211.2192 
L 107.794312 220.0896 
L 108.08358 228.96 
L 108.14688 237.8304 
L 107.077042 246.7008 
L 106.253446 248.533072 
L 103.989948 248.205762 
L 102.224883 246.7008 
L 101.72645 246.258919 
L 99.462951 243.995941 
L 97.199453 242.322978 
L 94.935954 241.333216 
L 92.672456 240.893372 
L 90.408958 240.912682 
L 88.145459 241.290848 
L 85.881961 241.906403 
L 83.618463 242.670908 
L 81.354964 243.502178 
L 79.091466 244.308888 
L 76.827968 245.035456 
L 74.564469 245.628188 
L 72.300971 246.046354 
L 70.037473 246.270247 
L 67.773974 246.3085 
L 65.510476 246.172089 
L 63.246978 245.906573 
L 60.983479 245.562584 
L 58.719981 245.192967 
L 56.456483 244.845654 
L 54.192984 244.561235 
L 51.929486 244.375649 
L 49.665988 244.296915 
" style="fill:none;stroke:#2d718e;stroke-width:1.5;"/>
   </g>
   <g id="LineCollection_9">
    <path clip-path="url(#pfedc54513d)" d="M 75.720813 7.2 
L 76.827968 8.52686 
L 79.091466 11.125633 
L 81.354964 13.475919 
L 83.618463 15.697978 
L 83.918048 16.0704 
L 85.881961 19.192122 
L 88.145459 23.664179 
L 88.541711 24.9408 
L 90.408958 31.203361 
L 90.975682 33.8112 
L 92.672456 41.050717 
L 92.963027 42.6816 
L 94.783837 51.552 
L 94.935954 52.249648 
L 96.363612 60.4224 
L 97.199453 64.367747 
L 98.014192 69.2928 
L 99.462951 76.632934 
L 99.684142 78.1632 
L 100.924853 87.0336 
L 101.72645 92.393511 
L 102.056203 95.904 
L 102.812985 104.7744 
L 103.590505 113.6448 
L 103.989948 118.603817 
L 104.167163 122.5152 
L 104.529114 131.3856 
L 104.904214 140.256 
L 105.314453 149.1264 
L 105.777764 157.9968 
L 106.253446 165.86096 
L 106.288918 166.8672 
L 106.614567 175.7376 
L 107.000474 184.608 
L 107.451779 193.4784 
L 107.771693 199.00619 
" style="fill:none;stroke:#287d8e;stroke-width:1.5;"/>
    <path clip-path="url(#pfedc54513d)" d="M 109.005847 223.314203 
L 109.248266 228.96 
L 109.655721 237.8304 
L 109.990604 246.7008 
L 109.577864 255.5712 
L 108.516945 258.991695 
L 106.253446 259.602444 
L 103.989948 257.983685 
L 101.79178 255.5712 
L 101.72645 255.495301 
L 99.462951 252.742413 
L 97.199453 250.648449 
L 94.935954 249.251893 
L 92.672456 248.430901 
L 90.408958 248.121453 
L 88.145459 248.212643 
L 85.881961 248.578329 
L 83.618463 249.121431 
L 81.354964 249.754508 
L 79.091466 250.383474 
L 76.827968 250.954875 
L 74.564469 251.418545 
L 72.300971 251.738295 
L 70.037473 251.895785 
L 67.773974 251.903267 
L 65.510476 251.777721 
L 63.246978 251.540657 
L 60.983479 251.246566 
L 58.719981 250.937211 
L 56.456483 250.655038 
L 54.192984 250.434485 
L 51.929486 250.305661 
L 49.665988 250.273342 
" style="fill:none;stroke:#287d8e;stroke-width:1.5;"/>
   </g>
   <g id="LineCollection_10">
    <path clip-path="url(#pfedc54513d)" d="M 79.985903 7.2 
L 81.354964 8.968823 
L 83.618463 11.979681 
L 85.881961 15.069955 
L 86.396131 16.0704 
L 88.145459 20.162114 
L 89.628719 24.9408 
L 90.408958 27.557643 
L 91.767955 33.8112 
L 92.672456 37.67038 
L 93.565295 42.6816 
L 94.935954 49.150126 
L 95.334618 51.552 
L 97.150143 60.4224 
L 97.199453 60.655151 
L 98.628357 69.2928 
L 99.462951 73.521269 
L 100.133914 78.1632 
L 101.578578 87.0336 
L 101.72645 88.02235 
L 102.466802 95.904 
L 103.341799 104.7744 
L 103.989948 111.496936 
L 104.110077 113.6448 
L 104.536462 122.5152 
L 104.966544 131.3856 
L 105.414879 140.256 
L 105.908019 149.1264 
L 106.253446 154.899418 
L 106.360606 157.9968 
L 106.692004 166.8672 
L 107.093679 175.7376 
L 107.579211 184.608 
L 108.159021 193.4784 
L 108.516945 198.616076 
L 108.683413 202.3488 
L 109.095344 211.2192 
L 109.591 220.0896 
L 110.194295 228.96 
L 110.780443 236.215038 
L 110.874275 237.8304 
L 111.361422 246.7008 
L 111.740555 255.5712 
L 111.239742 264.4416 
L 110.780443 266.273441 
L 108.516945 268.608551 
L 106.253446 268.210589 
L 103.989948 266.356017 
L 102.405624 264.4416 
L 101.72645 263.560761 
L 99.462951 260.511669 
L 97.199453 258.066373 
L 94.935954 256.320855 
L 93.476817 255.5712 
L 92.672456 255.129413 
L 90.408958 254.457804 
L 88.145459 254.275961 
L 85.881961 254.451012 
L 83.618463 254.867053 
L 81.354964 255.41346 
L 80.740768 255.5712 
L 79.222072 255.896347 
" style="fill:none;stroke:#238a8d;stroke-width:1.5;"/>
    <path clip-path="url(#pfedc54513d)" d="M 74.433226 256.756133 
L 72.300971 256.987617 
L 70.037473 257.094452 
L 67.773974 257.073355 
L 65.510476 256.942846 
L 63.246978 256.711933 
L 60.983479 256.434372 
L 58.719981 256.147187 
L 56.456483 255.888725 
L 54.192984 255.690974 
L 51.929486 255.582436 
L 50.422012 255.5712 
L 49.665988 255.564089 
" style="fill:none;stroke:#238a8d;stroke-width:1.5;"/>
   </g>
   <g id="LineCollection_11">
    <path clip-path="url(#pfedc54513d)" d="M 103.601868 273.312 
L 101.72645 270.788619 
L 99.462951 267.554892 
L 97.199453 264.835278 
L 96.789972 264.4416 
L 94.935954 262.586729 
L 92.672456 261.015475 
L 90.408958 260.100709 
L 88.145459 259.693025 
L 85.881961 259.656982 
L 83.749756 259.863633 
" style="fill:none;stroke:#1f968b;stroke-width:1.5;"/>
    <path clip-path="url(#pfedc54513d)" d="M 78.96052 260.664751 
L 76.827968 261.038746 
L 74.564469 261.361575 
L 72.300971 261.570136 
L 70.037473 261.640962 
L 67.773974 261.579459 
L 65.510476 261.404276 
L 63.246978 261.123096 
L 60.983479 260.789681 
L 58.719981 260.450478 
L 56.456483 260.145678 
L 54.192984 259.911087 
L 51.929486 259.774836 
L 49.665988 259.743449 
" style="fill:none;stroke:#1f968b;stroke-width:1.5;"/>
    <path clip-path="url(#pfedc54513d)" d="M 82.894929 7.2 
L 83.618463 8.261383 
L 85.881961 12.156709 
L 87.893367 16.0704 
L 88.145459 16.660049 
L 90.408958 24.303867 
L 90.54673 24.9408 
L 92.560227 33.8112 
L 92.672456 34.290043 
L 94.167562 42.6816 
L 94.935954 46.307858 
L 95.475069 49.555924 
" style="fill:none;stroke:#1f968b;stroke-width:1.5;"/>
    <path clip-path="url(#pfedc54513d)" d="M 98.866918 67.324103 
L 99.242522 69.2928 
L 99.462951 70.409605 
L 100.583686 78.1632 
L 101.72645 84.96276 
L 101.96306 87.0336 
L 102.877401 95.904 
L 103.870614 104.7744 
L 103.989948 106.012119 
L 104.41684 113.6448 
L 104.905761 122.5152 
L 105.403973 131.3856 
L 105.925544 140.256 
L 106.253446 145.628566 
L 106.376143 149.1264 
L 106.703809 157.9968 
L 107.09509 166.8672 
L 107.572791 175.7376 
L 108.157949 184.608 
L 108.516945 189.546308 
L 108.696988 193.4784 
L 109.136155 202.3488 
L 109.663782 211.2192 
L 110.31461 220.0896 
L 110.780443 225.665241 
L 110.973849 228.96 
L 111.554448 237.8304 
L 112.323611 246.7008 
L 113.043941 254.459392 
L 113.119881 255.5712 
L 113.262477 264.4416 
L 113.043941 267.350027 
L 111.561386 273.312 
" style="fill:none;stroke:#1f968b;stroke-width:1.5;"/>
   </g>
   <g id="LineCollection_12">
    <path clip-path="url(#pfedc54513d)" d="M 98.926128 273.312 
L 97.199453 270.856567 
L 94.935954 268.331342 
L 92.672456 266.562765 
L 90.408958 265.460452 
L 88.145459 264.876309 
L 85.881961 264.6742 
L 83.618463 264.740663 
L 81.354964 264.956917 
L 79.091466 265.238764 
L 76.827968 265.529171 
L 74.696626 265.750032 
" style="fill:none;stroke:#20a386;stroke-width:1.5;"/>
    <path clip-path="url(#pfedc54513d)" d="M 69.90514 265.925558 
L 67.773974 265.841005 
L 65.510476 265.650467 
L 63.246978 265.367875 
L 60.983479 265.036392 
L 58.719981 264.704951 
L 56.710107 264.4416 
L 56.456483 264.402632 
L 54.192984 264.1312 
L 51.929486 263.967236 
L 49.665988 263.921313 
" style="fill:none;stroke:#20a386;stroke-width:1.5;"/>
    <path clip-path="url(#pfedc54513d)" d="M 84.760692 7.2 
L 85.881961 9.243464 
L 88.145459 14.317536 
L 88.686416 16.0704 
L 90.408958 22.046954 
L 91.034913 24.9408 
L 92.672456 32.003844 
L 92.984133 33.8112 
L 94.769829 42.6816 
L 94.935954 43.46559 
L 96.278139 51.552 
L 97.199453 56.005008 
L 97.924316 60.4224 
L 99.462951 68.096431 
L 99.650005 69.2928 
L 101.033458 78.1632 
L 101.72645 82.28657 
L 102.268836 87.0336 
L 103.288 95.904 
L 103.989948 102.009129 
L 104.182411 104.7744 
L 104.723603 113.6448 
L 105.275061 122.5152 
L 105.841403 131.3856 
L 106.253446 137.813695 
L 106.343309 140.256 
L 106.669644 149.1264 
L 107.047013 157.9968 
L 107.498175 166.8672 
L 108.051902 175.7376 
L 108.516945 182.113773 
L 108.629911 184.608 
L 109.061511 193.4784 
L 109.588896 202.3488 
L 110.23222 211.2192 
L 110.722686 217.014458 
" style="fill:none;stroke:#20a386;stroke-width:1.5;"/>
    <path clip-path="url(#pfedc54513d)" d="M 112.510477 240.326561 
L 113.043941 245.153739 
L 113.169045 246.7008 
L 113.82775 255.5712 
L 114.279214 264.4416 
L 113.816217 273.312 
" style="fill:none;stroke:#20a386;stroke-width:1.5;"/>
   </g>
   <g id="LineCollection_13">
    <path clip-path="url(#pfedc54513d)" d="M 94.391846 273.312 
L 92.672456 271.708763 
L 90.408958 270.311189 
L 88.145459 269.498683 
L 85.881961 269.119074 
L 83.618463 269.040925 
L 81.354964 269.143443 
L 79.091466 269.33678 
L 76.827968 269.553782 
L 74.696728 269.720366 
" style="fill:none;stroke:#29af7f;stroke-width:1.5;"/>
    <path clip-path="url(#pfedc54513d)" d="M 69.905141 269.801202 
L 67.773974 269.676775 
L 65.510476 269.437598 
L 63.246978 269.107333 
L 60.983479 268.719276 
L 58.719981 268.335278 
L 56.456483 267.993465 
L 54.192984 267.729724 
L 51.929486 267.566525 
L 49.665988 267.510044 
" style="fill:none;stroke:#29af7f;stroke-width:1.5;"/>
    <path clip-path="url(#pfedc54513d)" d="M 86.134556 7.2 
L 88.145459 12.209786 
L 89.336896 16.0704 
L 90.408958 19.790041 
L 91.523096 24.9408 
L 92.672456 29.898215 
L 93.347247 33.8112 
L 94.935954 41.421912 
L 95.136238 42.6816 
L 96.7499 51.552 
L 97.199453 53.724837 
L 97.781701 57.273119 
" style="fill:none;stroke:#29af7f;stroke-width:1.5;"/>
    <path clip-path="url(#pfedc54513d)" d="M 101.04945 75.666977 
L 101.48323 78.1632 
L 101.72645 79.61038 
L 102.574612 87.0336 
L 103.698599 95.904 
L 103.989948 98.437983 
L 104.430964 104.7744 
L 105.030366 113.6448 
L 105.64436 122.5152 
L 106.253446 131.084087 
L 106.265812 131.3856 
L 106.594396 140.256 
L 106.963144 149.1264 
L 107.390217 157.9968 
L 107.901261 166.8672 
L 108.516945 175.570279 
L 108.52418 175.7376 
L 108.927432 184.608 
L 109.426034 193.4784 
L 110.041638 202.3488 
L 110.780443 211.030015 
L 110.791305 211.2192 
L 111.312098 220.0896 
L 111.990674 228.96 
L 112.914792 237.8304 
L 113.043941 238.999036 
L 113.666747 246.7008 
L 114.535618 255.5712 
L 115.295952 264.4416 
L 115.19676 273.312 
" style="fill:none;stroke:#29af7f;stroke-width:1.5;"/>
   </g>
   <g id="LineCollection_14">
    <path clip-path="url(#pfedc54513d)" d="M 66.202925 273.312 
L 65.510476 273.224729 
L 63.246978 272.846791 
L 61.114208 272.42784 
" style="fill:none;stroke:#3dbc74;stroke-width:1.5;"/>
    <path clip-path="url(#pfedc54513d)" d="M 56.325381 271.560813 
L 54.192984 271.278899 
L 51.929486 271.090142 
L 49.665988 271.014971 
" style="fill:none;stroke:#3dbc74;stroke-width:1.5;"/>
    <path clip-path="url(#pfedc54513d)" d="M 86.980596 7.2 
L 88.145459 10.102037 
L 89.987375 16.0704 
L 90.408958 17.533129 
L 92.011279 24.9408 
L 92.672456 27.792585 
L 93.710361 33.8112 
L 94.935954 39.682412 
L 95.412808 42.6816 
L 97.199453 51.487831 
L 97.209845 51.552 
L 97.816541 55.231016 
" style="fill:none;stroke:#3dbc74;stroke-width:1.5;"/>
    <path clip-path="url(#pfedc54513d)" d="M 101.054514 73.768971 
L 101.72645 77.432613 
L 101.825004 78.1632 
L 102.880388 87.0336 
L 103.989948 95.246649 
L 104.04629 95.904 
L 104.679516 104.7744 
L 105.337129 113.6448 
L 106.013659 122.5152 
L 106.253446 125.888631 
L 106.478896 131.3856 
L 106.845484 140.256 
L 107.256645 149.1264 
L 107.73342 157.9968 
L 108.304346 166.8672 
L 108.516945 169.87241 
L 108.770565 175.7376 
L 109.224952 184.608 
L 109.790557 193.4784 
L 110.49438 202.3488 
L 110.780443 205.710143 
L 111.096745 211.2192 
L 111.704105 220.0896 
L 112.499087 228.96 
L 113.043941 234.011654 
L 113.339417 237.8304 
L 114.164449 246.7008 
L 115.243487 255.5712 
L 115.30744 256.313894 
L 115.799954 264.4416 
L 115.915042 273.312 
" style="fill:none;stroke:#3dbc74;stroke-width:1.5;"/>
   </g>
   <g id="LineCollection_15">
    <path clip-path="url(#pfedc54513d)" d="M 87.826637 7.2 
L 88.145459 7.994287 
L 90.408958 15.605095 
L 90.511814 16.0704 
L 92.499463 24.9408 
L 92.672456 25.686955 
L 94.073475 33.8112 
L 94.935954 37.942913 
L 95.689379 42.6816 
L 97.199453 50.124636 
L 97.430616 51.552 
L 97.786023 53.502648 
" style="fill:none;stroke:#56c667;stroke-width:1.5;"/>
    <path clip-path="url(#pfedc54513d)" d="M 101.02736 72.030052 
L 101.72645 75.841748 
L 102.039607 78.1632 
L 103.186165 87.0336 
L 103.989948 92.983269 
L 104.240288 95.904 
L 104.928069 104.7744 
L 105.643892 113.6448 
L 106.253446 121.184513 
L 106.315999 122.5152 
L 106.69198 131.3856 
L 107.096572 140.256 
L 107.550145 149.1264 
L 108.076624 157.9968 
L 108.516945 164.479389 
L 108.614269 166.8672 
L 109.01695 175.7376 
L 109.522473 184.608 
L 110.15508 193.4784 
L 110.780443 200.78157 
L 110.869026 202.3488 
L 111.402186 211.2192 
L 112.096112 220.0896 
L 113.0075 228.96 
L 113.043941 229.297869 
L 113.704145 237.8304 
L 114.662151 246.7008 
L 115.30744 251.913765 
L 115.636419 255.5712 
L 116.298097 264.4416 
L 116.575603 273.312 
" style="fill:none;stroke:#56c667;stroke-width:1.5;"/>
   </g>
   <g id="LineCollection_16">
    <path clip-path="url(#pfedc54513d)" d="M 88.381349 7.2 
L 90.408958 14.282791 
L 90.804112 16.0704 
L 92.672456 24.127014 
L 92.809247 24.9408 
L 94.436589 33.8112 
L 94.935954 36.203414 
L 95.965949 42.6816 
L 97.199453 48.761442 
L 97.651387 51.552 
L 99.420957 60.4224 
L 99.462951 60.631849 
L 100.817105 69.2928 
L 101.72645 74.250883 
L 102.254211 78.1632 
L 103.491941 87.0336 
L 103.989948 90.719888 
L 104.434286 95.904 
L 105.176621 104.7744 
L 105.950654 113.6448 
L 106.253446 117.390096 
L 106.494367 122.5152 
L 106.905063 131.3856 
L 107.34766 140.256 
L 107.843645 149.1264 
L 108.419827 157.9968 
L 108.516945 159.426602 
L 108.820216 166.8672 
L 109.263335 175.7376 
L 109.819994 184.608 
L 110.519603 193.4784 
L 110.780443 196.524567 
L 111.109641 202.3488 
L 111.707626 211.2192 
L 112.488119 220.0896 
L 113.043941 225.450259 
L 113.105684 226.298147 
" style="fill:none;stroke:#75d054;stroke-width:1.5;"/>
    <path clip-path="url(#pfedc54513d)" d="M 115.357287 248.447263 
L 115.998072 255.5712 
L 116.79624 264.4416 
L 117.236164 273.312 
" style="fill:none;stroke:#75d054;stroke-width:1.5;"/>
   </g>
   <g id="LineCollection_17">
    <path clip-path="url(#pfedc54513d)" d="M 88.759889 7.2 
L 90.408958 12.960487 
L 91.09641 16.0704 
L 92.672456 22.866577 
L 93.021116 24.9408 
L 94.799703 33.8112 
L 94.935954 34.463915 
L 96.24252 42.6816 
L 97.199453 47.398248 
L 97.872158 51.552 
L 99.462951 59.449406 
L 99.622925 60.4224 
L 101.10888 69.2928 
L 101.72645 72.660018 
L 102.468815 78.1632 
L 103.797717 87.0336 
L 103.989948 88.456508 
L 104.628284 95.904 
L 105.425174 104.7744 
L 106.253446 113.610474 
L 106.255345 113.6448 
L 106.672735 122.5152 
L 107.118147 131.3856 
L 107.598747 140.256 
L 108.137146 149.1264 
L 108.516945 154.834128 
L 108.641695 157.9968 
L 109.026162 166.8672 
L 109.50972 175.7376 
L 110.117515 184.608 
L 110.780443 192.474247 
L 110.835147 193.4784 
L 111.350256 202.3488 
L 112.013067 211.2192 
L 112.880126 220.0896 
L 113.043941 221.669527 
L 113.394889 226.488996 
" style="fill:none;stroke:#95d840;stroke-width:1.5;"/>
    <path clip-path="url(#pfedc54513d)" d="M 115.677018 248.573663 
L 116.359725 255.5712 
L 117.294382 264.4416 
L 117.570938 269.138995 
" style="fill:none;stroke:#95d840;stroke-width:1.5;"/>
   </g>
   <g id="LineCollection_18">
    <path clip-path="url(#pfedc54513d)" d="M 89.138428 7.2 
L 90.408958 11.638184 
L 91.388707 16.0704 
L 92.672456 21.60614 
L 93.232985 24.9408 
L 94.935954 33.171445 
L 95.035513 33.8112 
L 96.51909 42.6816 
L 97.199453 46.035054 
L 98.092929 51.552 
L 99.462951 58.3534 
L 99.803123 60.4224 
L 101.400655 69.2928 
L 101.72645 71.069153 
L 102.683418 78.1632 
L 103.989948 86.523666 
L 104.043456 87.0336 
L 104.822282 95.904 
L 105.673726 104.7744 
L 106.253446 110.958898 
L 106.402049 113.6448 
L 106.851102 122.5152 
L 107.331231 131.3856 
L 107.849835 140.256 
L 108.430646 149.1264 
L 108.516945 150.423315 
L 108.815679 157.9968 
L 109.232109 166.8672 
L 109.756105 175.7376 
L 110.415036 184.608 
L 110.780443 188.943892 
L 111.027475 193.4784 
L 111.590872 202.3488 
L 112.318507 211.2192 
L 113.043941 218.343476 
L 113.166938 220.0896 
L 113.677094 226.713313 
" style="fill:none;stroke:#bade28;stroke-width:1.5;"/>
    <path clip-path="url(#pfedc54513d)" d="M 115.982675 248.755967 
L 116.721378 255.5712 
L 117.570938 263.029328 
" style="fill:none;stroke:#bade28;stroke-width:1.5;"/>
   </g>
   <g id="LineCollection_19">
    <path clip-path="url(#pfedc54513d)" d="M 89.516967 7.2 
L 90.408958 10.31588 
L 91.681005 16.0704 
L 92.672456 20.345703 
L 93.444854 24.9408 
L 94.935954 32.147458 
L 95.194865 33.8112 
L 96.795661 42.6816 
L 97.199453 44.671859 
L 98.3137 51.552 
L 99.462951 57.257394 
L 99.983321 60.4224 
L 99.987159 60.442317 
" style="fill:none;stroke:#dde318;stroke-width:1.5;"/>
    <path clip-path="url(#pfedc54513d)" d="M 103.102513 79.471737 
L 103.989948 85.15042 
L 104.187552 87.0336 
L 105.01628 95.904 
L 105.922279 104.7744 
L 106.253446 108.307321 
L 106.548753 113.6448 
L 107.02947 122.5152 
L 107.544314 131.3856 
L 108.100923 140.256 
L 108.516945 146.47611 
L 108.621038 149.1264 
L 108.989662 157.9968 
L 109.438055 166.8672 
L 110.00249 175.7376 
L 110.712556 184.608 
L 110.780443 185.413537 
L 111.219802 193.4784 
L 111.831487 202.3488 
L 112.623948 211.2192 
L 113.043941 215.343834 
L 113.378232 220.0896 
L 114.125442 228.96 
L 115.163061 237.8304 
L 115.30744 238.963349 
L 116.025536 246.7008 
L 117.083031 255.5712 
L 117.570938 259.854445 
" style="fill:none;stroke:#dde318;stroke-width:1.5;"/>
   </g>
   <g id="LineCollection_20">
    <path clip-path="url(#pfedc54513d)" d="M 89.895506 7.2 
L 90.408958 8.993576 
L 91.973303 16.0704 
L 92.672456 19.085267 
L 93.656723 24.9408 
L 94.935954 31.123471 
L 95.354217 33.8112 
L 97.072231 42.6816 
L 97.199453 43.308665 
L 98.534471 51.552 
L 99.462951 56.161388 
L 100.027374 59.594332 
" style="fill:none;stroke:#fde725;stroke-width:1.5;"/>
    <path clip-path="url(#pfedc54513d)" d="M 103.169736 78.528649 
L 103.989948 83.777175 
L 104.331649 87.0336 
L 105.210278 95.904 
L 106.170831 104.7744 
L 106.253446 105.655745 
L 106.695457 113.6448 
L 107.207838 122.5152 
L 107.757398 131.3856 
L 108.352011 140.256 
L 108.516945 142.721994 
L 108.768486 149.1264 
L 109.163645 157.9968 
L 109.644002 166.8672 
L 110.248875 175.7376 
L 110.780443 182.270781 
L 110.901157 184.608 
L 111.412129 193.4784 
L 112.072102 202.3488 
L 112.929388 211.2192 
L 113.043941 212.344192 
L 113.589526 220.0896 
L 114.400751 228.96 
L 115.30744 236.455409 
L 115.427135 237.8304 
L 116.291156 246.7008 
L 117.444684 255.5712 
L 117.570938 256.679562 
" style="fill:none;stroke:#fde725;stroke-width:1.5;"/>
   </g>
   <g id="LineCollection_21">
    <path clip-path="url(#pfedc54513d)" d="M 90.274046 7.2 
L 90.408958 7.671272 
L 92.265601 16.0704 
L 92.672456 17.82483 
L 93.868592 24.9408 
L 94.935954 30.099483 
L 95.513569 33.8112 
L 97.199453 42.250826 
L 97.269097 42.6816 
L 98.755242 51.552 
L 99.462951 55.065382 
L 100.343717 60.4224 
L 101.611118 66.95061 
" style="fill:none;stroke:#440154;stroke-width:1.5;"/>
    <path clip-path="url(#pfedc54513d)" d="M 104.807973 90.207424 
L 105.404276 95.904 
L 106.253446 103.600523 
L 106.331474 104.7744 
L 106.842161 113.6448 
L 107.386206 122.5152 
L 107.970482 131.3856 
L 108.516945 139.209239 
L 108.559532 140.256 
L 108.915934 149.1264 
L 109.337629 157.9968 
L 109.849949 166.8672 
L 110.49526 175.7376 
L 110.780443 179.242611 
L 111.057558 184.608 
L 111.604457 193.4784 
L 112.312717 202.3488 
L 113.043941 209.706176 
L 113.146645 211.2192 
L 113.80082 220.0896 
L 114.676059 228.96 
L 115.30744 234.179491 
L 115.625258 237.8304 
L 116.556777 246.7008 
L 117.570938 254.279245 
" style="fill:none;stroke:#440154;stroke-width:1.5;"/>
   </g>
   <g id="LineCollection_22">
    <path clip-path="url(#pfedc54513d)" d="M 98.304867 7.2 
L 99.462951 12.894718 
L 100.046399 16.0704 
L 101.72645 24.142316 
L 101.8741 24.9408 
L 103.57134 33.8112 
L 103.989948 35.833047 
L 105.188413 42.6816 
L 106.253446 47.999508 
L 106.813157 51.552 
L 108.390396 60.4224 
L 108.516945 61.159215 
L 108.968417 64.973717 
" style="fill:none;stroke:#440154;stroke-width:1.5;"/>
    <path clip-path="url(#pfedc54513d)" d="M 112.10389 92.665344 
L 112.433618 95.904 
L 113.043941 101.438467 
L 113.24934 104.7744 
L 113.824069 113.6448 
L 114.558147 122.5152 
L 115.30744 130.007287 
L 115.388829 131.3856 
L 115.9345 140.256 
L 116.642099 149.1264 
L 117.527196 157.9968 
L 117.570938 158.443645 
" style="fill:none;stroke:#440154;stroke-width:1.5;"/>
   </g>
   <g id="LineCollection_23">
    <path clip-path="url(#pfedc54513d)" d="M 106.912978 7.2 
L 108.516945 15.023318 
L 108.691756 16.0704 
L 110.224586 24.9408 
L 110.780443 27.853956 
L 110.941074 28.96532 
" style="fill:none;stroke:#440154;stroke-width:1.5;"/>
    <path clip-path="url(#pfedc54513d)" d="M 115.07218 57.547678 
L 115.30744 59.159292 
L 115.419824 60.4224 
L 116.181533 69.2928 
L 117.135853 78.1632 
L 117.570938 81.958202 
" style="fill:none;stroke:#440154;stroke-width:1.5;"/>
   </g>
   <g id="LineCollection_24">
    <path clip-path="url(#pfedc54513d)" d="M 115.37556 7.2 
L 116.54608 16.0704 
L 117.570938 22.305275 
" style="fill:none;stroke:#440154;stroke-width:1.5;"/>
   </g>
   <g id="LineCollection_25"/>
   <g id="LineCollection_26"/>
   <g id="LineCollection_27"/>
   <g id="LineCollection_28"/>
   <g id="line2d_14">
    <path clip-path="url(#pfedc54513d)" d="M 377.703372 44.896905 
L 389.780273 73.61544 
L 381.593345 84.365662 
L 373.069427 94.333483 
L 364.707667 102.979891 
L 356.503038 110.642514 
L 348.422816 118.033644 
L 340.485582 125.536362 
L 332.670113 133.62659 
L 324.979758 141.888788 
L 317.414398 150.509346 
L 309.976017 158.787914 
L 302.662388 167.006363 
L 295.464998 175.273607 
L 288.406055 183.014513 
L 281.425565 191.200985 
L 274.583003 198.646505 
L 267.812264 206.873402 
L 261.172632 213.695387 
L 254.63418 220.760053 
L 248.214004 226.804882 
L 241.900897 231.933543 
L 235.723973 235.869678 
L 229.655449 239.126852 
L 223.695339 241.530265 
L 217.815013 243.519292 
L 212.054578 244.691806 
L 206.40641 245.678132 
L 200.855181 245.890657 
L 195.397517 245.292755 
L 190.045592 244.371302 
L 184.77851 242.732091 
L 179.621872 241.292634 
L 174.543377 239.260597 
L 169.55912 236.358245 
L 164.645174 233.568281 
L 159.832978 229.74598 
L 155.098044 225.314325 
L 150.472747 221.272355 
L 145.912451 216.507493 
L 141.444528 211.102652 
L 137.081393 206.228942 
L 132.747673 200.914441 
L 128.554615 195.089999 
L 124.412286 189.659319 
L 120.333933 183.317941 
L 116.349776 177.408716 
L 112.426481 170.858102 
L 108.578409 163.352164 
L 104.834478 157.060307 
L 104.45719 156.699028 
L 104.078545 156.152276 
L 103.705936 155.477772 
L 103.335229 154.712353 
L 102.96555 154.067999 
L 102.597216 153.352252 
L 102.23159 152.699872 
L 101.866923 152.017787 
L 101.504438 151.400119 
L 101.143541 150.735116 
L 100.779404 149.99125 
L 100.42151 149.306129 
L 100.064349 148.689926 
L 99.701487 148.083997 
L 99.34518 147.413228 
L 98.989612 146.899674 
L 98.629794 146.265713 
L 98.273405 145.736223 
L 97.918628 144.998138 
L 97.565228 144.423871 
L 97.216605 143.887257 
L 96.862538 143.304159 
L 96.515108 142.765166 
L 96.16147 142.151574 
L 95.81073 141.52679 
L 95.775327 141.4814 
L 95.74029 141.435455 
L 95.705543 141.375439 
L 95.670223 141.334832 
L 95.635742 141.278092 
L 95.60073 141.223229 
L 95.565599 141.174991 
L 95.530473 141.112269 
L 95.495501 141.062571 
L 95.460371 141.02728 
L 95.425394 140.965622 
L 95.390589 140.913426 
L 95.355212 140.857136 
L 95.319781 140.822144 
L 95.284216 140.767938 
L 95.25058 140.719439 
L 95.215988 140.662795 
L 95.18067 140.60359 
L 95.145786 140.56383 
L 95.110892 140.510015 
L 95.076435 140.460987 
L 95.041497 140.40807 
L 95.006465 140.35771 
L 94.971048 140.303285 
" style="fill:none;stroke:#1f77b4;stroke-linecap:square;stroke-width:1.5;"/>
    <defs>
     <path d="M 0 1.5 
C 0.397805 1.5 0.77937 1.341951 1.06066 1.06066 
C 1.341951 0.77937 1.5 0.397805 1.5 0 
C 1.5 -0.397805 1.341951 -0.77937 1.06066 -1.06066 
C 0.77937 -1.341951 0.397805 -1.5 0 -1.5 
C -0.397805 -1.5 -0.77937 -1.341951 -1.06066 -1.06066 
C -1.341951 -0.77937 -1.5 -0.397805 -1.5 0 
C -1.5 0.397805 -1.341951 0.77937 -1.06066 1.06066 
C -0.77937 1.341951 -0.397805 1.5 0 1.5 
z
" id="m9c9222f622" style="stroke:#1f77b4;"/>
    </defs>
    <g clip-path="url(#pfedc54513d)">
     <use style="fill:#1f77b4;stroke:#1f77b4;" x="377.703372" xlink:href="#m9c9222f622" y="44.896905"/>
     <use style="fill:#1f77b4;stroke:#1f77b4;" x="389.780273" xlink:href="#m9c9222f622" y="73.61544"/>
     <use style="fill:#1f77b4;stroke:#1f77b4;" x="381.593345" xlink:href="#m9c9222f622" y="84.365662"/>
     <use style="fill:#1f77b4;stroke:#1f77b4;" x="373.069427" xlink:href="#m9c9222f622" y="94.333483"/>
     <use style="fill:#1f77b4;stroke:#1f77b4;" x="364.707667" xlink:href="#m9c9222f622" y="102.979891"/>
     <use style="fill:#1f77b4;stroke:#1f77b4;" x="356.503038" xlink:href="#m9c9222f622" y="110.642514"/>
     <use style="fill:#1f77b4;stroke:#1f77b4;" x="348.422816" xlink:href="#m9c9222f622" y="118.033644"/>
     <use style="fill:#1f77b4;stroke:#1f77b4;" x="340.485582" xlink:href="#m9c9222f622" y="125.536362"/>
     <use style="fill:#1f77b4;stroke:#1f77b4;" x="332.670113" xlink:href="#m9c9222f622" y="133.62659"/>
     <use style="fill:#1f77b4;stroke:#1f77b4;" x="324.979758" xlink:href="#m9c9222f622" y="141.888788"/>
     <use style="fill:#1f77b4;stroke:#1f77b4;" x="317.414398" xlink:href="#m9c9222f622" y="150.509346"/>
     <use style="fill:#1f77b4;stroke:#1f77b4;" x="309.976017" xlink:href="#m9c9222f622" y="158.787914"/>
     <use style="fill:#1f77b4;stroke:#1f77b4;" x="302.662388" xlink:href="#m9c9222f622" y="167.006363"/>
     <use style="fill:#1f77b4;stroke:#1f77b4;" x="295.464998" xlink:href="#m9c9222f622" y="175.273607"/>
     <use style="fill:#1f77b4;stroke:#1f77b4;" x="288.406055" xlink:href="#m9c9222f622" y="183.014513"/>
     <use style="fill:#1f77b4;stroke:#1f77b4;" x="281.425565" xlink:href="#m9c9222f622" y="191.200985"/>
     <use style="fill:#1f77b4;stroke:#1f77b4;" x="274.583003" xlink:href="#m9c9222f622" y="198.646505"/>
     <use style="fill:#1f77b4;stroke:#1f77b4;" x="267.812264" xlink:href="#m9c9222f622" y="206.873402"/>
     <use style="fill:#1f77b4;stroke:#1f77b4;" x="261.172632" xlink:href="#m9c9222f622" y="213.695387"/>
     <use style="fill:#1f77b4;stroke:#1f77b4;" x="254.63418" xlink:href="#m9c9222f622" y="220.760053"/>
     <use style="fill:#1f77b4;stroke:#1f77b4;" x="248.214004" xlink:href="#m9c9222f622" y="226.804882"/>
     <use style="fill:#1f77b4;stroke:#1f77b4;" x="241.900897" xlink:href="#m9c9222f622" y="231.933543"/>
     <use style="fill:#1f77b4;stroke:#1f77b4;" x="235.723973" xlink:href="#m9c9222f622" y="235.869678"/>
     <use style="fill:#1f77b4;stroke:#1f77b4;" x="229.655449" xlink:href="#m9c9222f622" y="239.126852"/>
     <use style="fill:#1f77b4;stroke:#1f77b4;" x="223.695339" xlink:href="#m9c9222f622" y="241.530265"/>
     <use style="fill:#1f77b4;stroke:#1f77b4;" x="217.815013" xlink:href="#m9c9222f622" y="243.519292"/>
     <use style="fill:#1f77b4;stroke:#1f77b4;" x="212.054578" xlink:href="#m9c9222f622" y="244.691806"/>
     <use style="fill:#1f77b4;stroke:#1f77b4;" x="206.40641" xlink:href="#m9c9222f622" y="245.678132"/>
     <use style="fill:#1f77b4;stroke:#1f77b4;" x="200.855181" xlink:href="#m9c9222f622" y="245.890657"/>
     <use style="fill:#1f77b4;stroke:#1f77b4;" x="195.397517" xlink:href="#m9c9222f622" y="245.292755"/>
     <use style="fill:#1f77b4;stroke:#1f77b4;" x="190.045592" xlink:href="#m9c9222f622" y="244.371302"/>
     <use style="fill:#1f77b4;stroke:#1f77b4;" x="184.77851" xlink:href="#m9c9222f622" y="242.732091"/>
     <use style="fill:#1f77b4;stroke:#1f77b4;" x="179.621872" xlink:href="#m9c9222f622" y="241.292634"/>
     <use style="fill:#1f77b4;stroke:#1f77b4;" x="174.543377" xlink:href="#m9c9222f622" y="239.260597"/>
     <use style="fill:#1f77b4;stroke:#1f77b4;" x="169.55912" xlink:href="#m9c9222f622" y="236.358245"/>
     <use style="fill:#1f77b4;stroke:#1f77b4;" x="164.645174" xlink:href="#m9c9222f622" y="233.568281"/>
     <use style="fill:#1f77b4;stroke:#1f77b4;" x="159.832978" xlink:href="#m9c9222f622" y="229.74598"/>
     <use style="fill:#1f77b4;stroke:#1f77b4;" x="155.098044" xlink:href="#m9c9222f622" y="225.314325"/>
     <use style="fill:#1f77b4;stroke:#1f77b4;" x="150.472747" xlink:href="#m9c9222f622" y="221.272355"/>
     <use style="fill:#1f77b4;stroke:#1f77b4;" x="145.912451" xlink:href="#m9c9222f622" y="216.507493"/>
     <use style="fill:#1f77b4;stroke:#1f77b4;" x="141.444528" xlink:href="#m9c9222f622" y="211.102652"/>
     <use style="fill:#1f77b4;stroke:#1f77b4;" x="137.081393" xlink:href="#m9c9222f622" y="206.228942"/>
     <use style="fill:#1f77b4;stroke:#1f77b4;" x="132.747673" xlink:href="#m9c9222f622" y="200.914441"/>
     <use style="fill:#1f77b4;stroke:#1f77b4;" x="128.554615" xlink:href="#m9c9222f622" y="195.089999"/>
     <use style="fill:#1f77b4;stroke:#1f77b4;" x="124.412286" xlink:href="#m9c9222f622" y="189.659319"/>
     <use style="fill:#1f77b4;stroke:#1f77b4;" x="120.333933" xlink:href="#m9c9222f622" y="183.317941"/>
     <use style="fill:#1f77b4;stroke:#1f77b4;" x="116.349776" xlink:href="#m9c9222f622" y="177.408716"/>
     <use style="fill:#1f77b4;stroke:#1f77b4;" x="112.426481" xlink:href="#m9c9222f622" y="170.858102"/>
     <use style="fill:#1f77b4;stroke:#1f77b4;" x="108.578409" xlink:href="#m9c9222f622" y="163.352164"/>
     <use style="fill:#1f77b4;stroke:#1f77b4;" x="104.834478" xlink:href="#m9c9222f622" y="157.060307"/>
     <use style="fill:#1f77b4;stroke:#1f77b4;" x="104.45719" xlink:href="#m9c9222f622" y="156.699028"/>
     <use style="fill:#1f77b4;stroke:#1f77b4;" x="104.078545" xlink:href="#m9c9222f622" y="156.152276"/>
     <use style="fill:#1f77b4;stroke:#1f77b4;" x="103.705936" xlink:href="#m9c9222f622" y="155.477772"/>
     <use style="fill:#1f77b4;stroke:#1f77b4;" x="103.335229" xlink:href="#m9c9222f622" y="154.712353"/>
     <use style="fill:#1f77b4;stroke:#1f77b4;" x="102.96555" xlink:href="#m9c9222f622" y="154.067999"/>
     <use style="fill:#1f77b4;stroke:#1f77b4;" x="102.597216" xlink:href="#m9c9222f622" y="153.352252"/>
     <use style="fill:#1f77b4;stroke:#1f77b4;" x="102.23159" xlink:href="#m9c9222f622" y="152.699872"/>
     <use style="fill:#1f77b4;stroke:#1f77b4;" x="101.866923" xlink:href="#m9c9222f622" y="152.017787"/>
     <use style="fill:#1f77b4;stroke:#1f77b4;" x="101.504438" xlink:href="#m9c9222f622" y="151.400119"/>
     <use style="fill:#1f77b4;stroke:#1f77b4;" x="101.143541" xlink:href="#m9c9222f622" y="150.735116"/>
     <use style="fill:#1f77b4;stroke:#1f77b4;" x="100.779404" xlink:href="#m9c9222f622" y="149.99125"/>
     <use style="fill:#1f77b4;stroke:#1f77b4;" x="100.42151" xlink:href="#m9c9222f622" y="149.306129"/>
     <use style="fill:#1f77b4;stroke:#1f77b4;" x="100.064349" xlink:href="#m9c9222f622" y="148.689926"/>
     <use style="fill:#1f77b4;stroke:#1f77b4;" x="99.701487" xlink:href="#m9c9222f622" y="148.083997"/>
     <use style="fill:#1f77b4;stroke:#1f77b4;" x="99.34518" xlink:href="#m9c9222f622" y="147.413228"/>
     <use style="fill:#1f77b4;stroke:#1f77b4;" x="98.989612" xlink:href="#m9c9222f622" y="146.899674"/>
     <use style="fill:#1f77b4;stroke:#1f77b4;" x="98.629794" xlink:href="#m9c9222f622" y="146.265713"/>
     <use style="fill:#1f77b4;stroke:#1f77b4;" x="98.273405" xlink:href="#m9c9222f622" y="145.736223"/>
     <use style="fill:#1f77b4;stroke:#1f77b4;" x="97.918628" xlink:href="#m9c9222f622" y="144.998138"/>
     <use style="fill:#1f77b4;stroke:#1f77b4;" x="97.565228" xlink:href="#m9c9222f622" y="144.423871"/>
     <use style="fill:#1f77b4;stroke:#1f77b4;" x="97.216605" xlink:href="#m9c9222f622" y="143.887257"/>
     <use style="fill:#1f77b4;stroke:#1f77b4;" x="96.862538" xlink:href="#m9c9222f622" y="143.304159"/>
     <use style="fill:#1f77b4;stroke:#1f77b4;" x="96.515108" xlink:href="#m9c9222f622" y="142.765166"/>
     <use style="fill:#1f77b4;stroke:#1f77b4;" x="96.16147" xlink:href="#m9c9222f622" y="142.151574"/>
     <use style="fill:#1f77b4;stroke:#1f77b4;" x="95.81073" xlink:href="#m9c9222f622" y="141.52679"/>
     <use style="fill:#1f77b4;stroke:#1f77b4;" x="95.775327" xlink:href="#m9c9222f622" y="141.4814"/>
     <use style="fill:#1f77b4;stroke:#1f77b4;" x="95.74029" xlink:href="#m9c9222f622" y="141.435455"/>
     <use style="fill:#1f77b4;stroke:#1f77b4;" x="95.705543" xlink:href="#m9c9222f622" y="141.375439"/>
     <use style="fill:#1f77b4;stroke:#1f77b4;" x="95.670223" xlink:href="#m9c9222f622" y="141.334832"/>
     <use style="fill:#1f77b4;stroke:#1f77b4;" x="95.635742" xlink:href="#m9c9222f622" y="141.278092"/>
     <use style="fill:#1f77b4;stroke:#1f77b4;" x="95.60073" xlink:href="#m9c9222f622" y="141.223229"/>
     <use style="fill:#1f77b4;stroke:#1f77b4;" x="95.565599" xlink:href="#m9c9222f622" y="141.174991"/>
     <use style="fill:#1f77b4;stroke:#1f77b4;" x="95.530473" xlink:href="#m9c9222f622" y="141.112269"/>
     <use style="fill:#1f77b4;stroke:#1f77b4;" x="95.495501" xlink:href="#m9c9222f622" y="141.062571"/>
     <use style="fill:#1f77b4;stroke:#1f77b4;" x="95.460371" xlink:href="#m9c9222f622" y="141.02728"/>
     <use style="fill:#1f77b4;stroke:#1f77b4;" x="95.425394" xlink:href="#m9c9222f622" y="140.965622"/>
     <use style="fill:#1f77b4;stroke:#1f77b4;" x="95.390589" xlink:href="#m9c9222f622" y="140.913426"/>
     <use style="fill:#1f77b4;stroke:#1f77b4;" x="95.355212" xlink:href="#m9c9222f622" y="140.857136"/>
     <use style="fill:#1f77b4;stroke:#1f77b4;" x="95.319781" xlink:href="#m9c9222f622" y="140.822144"/>
     <use style="fill:#1f77b4;stroke:#1f77b4;" x="95.284216" xlink:href="#m9c9222f622" y="140.767938"/>
     <use style="fill:#1f77b4;stroke:#1f77b4;" x="95.25058" xlink:href="#m9c9222f622" y="140.719439"/>
     <use style="fill:#1f77b4;stroke:#1f77b4;" x="95.215988" xlink:href="#m9c9222f622" y="140.662795"/>
     <use style="fill:#1f77b4;stroke:#1f77b4;" x="95.18067" xlink:href="#m9c9222f622" y="140.60359"/>
     <use style="fill:#1f77b4;stroke:#1f77b4;" x="95.145786" xlink:href="#m9c9222f622" y="140.56383"/>
     <use style="fill:#1f77b4;stroke:#1f77b4;" x="95.110892" xlink:href="#m9c9222f622" y="140.510015"/>
     <use style="fill:#1f77b4;stroke:#1f77b4;" x="95.076435" xlink:href="#m9c9222f622" y="140.460987"/>
     <use style="fill:#1f77b4;stroke:#1f77b4;" x="95.041497" xlink:href="#m9c9222f622" y="140.40807"/>
     <use style="fill:#1f77b4;stroke:#1f77b4;" x="95.006465" xlink:href="#m9c9222f622" y="140.35771"/>
     <use style="fill:#1f77b4;stroke:#1f77b4;" x="94.971048" xlink:href="#m9c9222f622" y="140.303285"/>
    </g>
   </g>
   <g id="patch_3">
    <path d="M 49.665988 273.312 
L 49.665988 7.2 
" style="fill:none;stroke:#000000;stroke-linecap:square;stroke-linejoin:miter;stroke-width:0.8;"/>
   </g>
   <g id="patch_4">
    <path d="M 406.785988 273.312 
L 406.785988 7.2 
" style="fill:none;stroke:#000000;stroke-linecap:square;stroke-linejoin:miter;stroke-width:0.8;"/>
   </g>
   <g id="patch_5">
    <path d="M 49.665988 273.312 
L 406.785988 273.312 
" style="fill:none;stroke:#000000;stroke-linecap:square;stroke-linejoin:miter;stroke-width:0.8;"/>
   </g>
   <g id="patch_6">
    <path d="M 49.665988 7.2 
L 406.785988 7.2 
" style="fill:none;stroke:#000000;stroke-linecap:square;stroke-linejoin:miter;stroke-width:0.8;"/>
   </g>
   <g id="text_16">
    <g clip-path="url(#pfedc54513d)">
     <!-- 1.500 -->
     <g style="fill:#453781;" transform="translate(88.705001 117.408514)rotate(-313.366893)scale(0.06 -0.06)">
      <use xlink:href="#DejaVuSans-49"/>
      <use x="63.623047" xlink:href="#DejaVuSans-46"/>
      <use x="95.410156" xlink:href="#DejaVuSans-53"/>
      <use x="159.033203" xlink:href="#DejaVuSans-48"/>
      <use x="222.65625" xlink:href="#DejaVuSans-48"/>
     </g>
    </g>
   </g>
   <g id="text_17">
    <g clip-path="url(#pfedc54513d)">
     <!-- 2.000 -->
     <g style="fill:#404688;" transform="translate(71.390971 165.940268)rotate(-54.344009)scale(0.06 -0.06)">
      <use xlink:href="#DejaVuSans-50"/>
      <use x="63.623047" xlink:href="#DejaVuSans-46"/>
      <use x="95.410156" xlink:href="#DejaVuSans-48"/>
      <use x="159.033203" xlink:href="#DejaVuSans-48"/>
      <use x="222.65625" xlink:href="#DejaVuSans-48"/>
     </g>
    </g>
   </g>
   <g id="text_18">
    <g clip-path="url(#pfedc54513d)">
     <!-- 2.500 -->
     <g style="fill:#39558c;" transform="translate(68.372141 230.753641)rotate(-3.902924)scale(0.06 -0.06)">
      <use xlink:href="#DejaVuSans-50"/>
      <use x="63.623047" xlink:href="#DejaVuSans-46"/>
      <use x="95.410156" xlink:href="#DejaVuSans-53"/>
      <use x="159.033203" xlink:href="#DejaVuSans-48"/>
      <use x="222.65625" xlink:href="#DejaVuSans-48"/>
     </g>
    </g>
   </g>
   <g id="text_19">
    <g clip-path="url(#pfedc54513d)">
     <!-- 3.000 -->
     <g style="fill:#33638d;" transform="translate(70.586912 25.291314)rotate(-351.385441)scale(0.06 -0.06)">
      <use xlink:href="#DejaVuSans-51"/>
      <use x="63.623047" xlink:href="#DejaVuSans-46"/>
      <use x="95.410156" xlink:href="#DejaVuSans-48"/>
      <use x="159.033203" xlink:href="#DejaVuSans-48"/>
      <use x="222.65625" xlink:href="#DejaVuSans-48"/>
     </g>
    </g>
   </g>
   <g id="text_20">
    <g clip-path="url(#pfedc54513d)">
     <!-- 3.500 -->
     <g style="fill:#2d718e;" transform="translate(81.811869 30.43767)rotate(-326.401655)scale(0.06 -0.06)">
      <use xlink:href="#DejaVuSans-51"/>
      <use x="63.623047" xlink:href="#DejaVuSans-46"/>
      <use x="95.410156" xlink:href="#DejaVuSans-53"/>
      <use x="159.033203" xlink:href="#DejaVuSans-48"/>
      <use x="222.65625" xlink:href="#DejaVuSans-48"/>
     </g>
    </g>
   </g>
   <g id="text_21">
    <g clip-path="url(#pfedc54513d)">
     <!-- 4.000 -->
     <g style="fill:#287d8e;" transform="translate(104.693367 203.113447)rotate(-285.011039)scale(0.06 -0.06)">
      <use xlink:href="#DejaVuSans-52"/>
      <use x="63.623047" xlink:href="#DejaVuSans-46"/>
      <use x="95.410156" xlink:href="#DejaVuSans-48"/>
      <use x="159.033203" xlink:href="#DejaVuSans-48"/>
      <use x="222.65625" xlink:href="#DejaVuSans-48"/>
     </g>
    </g>
   </g>
   <g id="text_22">
    <g clip-path="url(#pfedc54513d)">
     <!-- 4.500 -->
     <g style="fill:#238a8d;" transform="translate(68.30141 258.325236)rotate(-1.966762)scale(0.06 -0.06)">
      <use xlink:href="#DejaVuSans-52"/>
      <use x="63.623047" xlink:href="#DejaVuSans-46"/>
      <use x="95.410156" xlink:href="#DejaVuSans-53"/>
      <use x="159.033203" xlink:href="#DejaVuSans-48"/>
      <use x="222.65625" xlink:href="#DejaVuSans-48"/>
     </g>
    </g>
   </g>
   <g id="text_23">
    <g clip-path="url(#pfedc54513d)">
     <!-- 5.000 -->
     <g style="fill:#1f968b;" transform="translate(72.824163 262.165533)rotate(-1.84142)scale(0.06 -0.06)">
      <use xlink:href="#DejaVuSans-53"/>
      <use x="63.623047" xlink:href="#DejaVuSans-46"/>
      <use x="95.410156" xlink:href="#DejaVuSans-48"/>
      <use x="159.033203" xlink:href="#DejaVuSans-48"/>
      <use x="222.65625" xlink:href="#DejaVuSans-48"/>
     </g>
    </g>
   </g>
   <g id="text_24">
    <g clip-path="url(#pfedc54513d)">
     <!-- 5.000 -->
     <g style="fill:#1f968b;" transform="translate(89.906379 53.45678)rotate(-315.582071)scale(0.06 -0.06)">
      <use xlink:href="#DejaVuSans-53"/>
      <use x="63.623047" xlink:href="#DejaVuSans-46"/>
      <use x="95.410156" xlink:href="#DejaVuSans-48"/>
      <use x="159.033203" xlink:href="#DejaVuSans-48"/>
      <use x="222.65625" xlink:href="#DejaVuSans-48"/>
     </g>
    </g>
   </g>
   <g id="text_25">
    <g clip-path="url(#pfedc54513d)">
     <!-- 5.500 -->
     <g style="fill:#20a386;" transform="translate(63.724363 267.620667)rotate(-0.402078)scale(0.06 -0.06)">
      <use xlink:href="#DejaVuSans-53"/>
      <use x="63.623047" xlink:href="#DejaVuSans-46"/>
      <use x="95.410156" xlink:href="#DejaVuSans-53"/>
      <use x="159.033203" xlink:href="#DejaVuSans-48"/>
      <use x="222.65625" xlink:href="#DejaVuSans-48"/>
     </g>
    </g>
   </g>
   <g id="text_26">
    <g clip-path="url(#pfedc54513d)">
     <!-- 5.500 -->
     <g style="fill:#20a386;" transform="translate(106.828167 221.554478)rotate(-291.236556)scale(0.06 -0.06)">
      <use xlink:href="#DejaVuSans-53"/>
      <use x="63.623047" xlink:href="#DejaVuSans-46"/>
      <use x="95.410156" xlink:href="#DejaVuSans-53"/>
      <use x="159.033203" xlink:href="#DejaVuSans-48"/>
      <use x="222.65625" xlink:href="#DejaVuSans-48"/>
     </g>
    </g>
   </g>
   <g id="text_27">
    <g clip-path="url(#pfedc54513d)">
     <!-- 6.000 -->
     <g style="fill:#29af7f;" transform="translate(63.718019 271.507399)rotate(-0.188247)scale(0.06 -0.06)">
      <use xlink:href="#DejaVuSans-54"/>
      <use x="63.623047" xlink:href="#DejaVuSans-46"/>
      <use x="95.410156" xlink:href="#DejaVuSans-48"/>
      <use x="159.033203" xlink:href="#DejaVuSans-48"/>
      <use x="222.65625" xlink:href="#DejaVuSans-48"/>
     </g>
    </g>
   </g>
   <g id="text_28">
    <g clip-path="url(#pfedc54513d)">
     <!-- 6.000 -->
     <g style="fill:#29af7f;" transform="translate(92.338248 61.156731)rotate(-313.633777)scale(0.06 -0.06)">
      <use xlink:href="#DejaVuSans-54"/>
      <use x="63.623047" xlink:href="#DejaVuSans-46"/>
      <use x="95.410156" xlink:href="#DejaVuSans-48"/>
      <use x="159.033203" xlink:href="#DejaVuSans-48"/>
      <use x="222.65625" xlink:href="#DejaVuSans-48"/>
     </g>
    </g>
   </g>
   <g id="text_29">
    <g clip-path="url(#pfedc54513d)">
     <!-- 6.500 -->
     <g style="fill:#3dbc74;" transform="translate(50.079415 273.323164)rotate(-358.017744)scale(0.06 -0.06)">
      <use xlink:href="#DejaVuSans-54"/>
      <use x="63.623047" xlink:href="#DejaVuSans-46"/>
      <use x="95.410156" xlink:href="#DejaVuSans-53"/>
      <use x="159.033203" xlink:href="#DejaVuSans-48"/>
      <use x="222.65625" xlink:href="#DejaVuSans-48"/>
     </g>
    </g>
   </g>
   <g id="text_30">
    <g clip-path="url(#pfedc54513d)">
     <!-- 6.500 -->
     <g style="fill:#3dbc74;" transform="translate(92.429257 59.16515)rotate(-312.618585)scale(0.06 -0.06)">
      <use xlink:href="#DejaVuSans-54"/>
      <use x="63.623047" xlink:href="#DejaVuSans-46"/>
      <use x="95.410156" xlink:href="#DejaVuSans-53"/>
      <use x="159.033203" xlink:href="#DejaVuSans-48"/>
      <use x="222.65625" xlink:href="#DejaVuSans-48"/>
     </g>
    </g>
   </g>
   <g id="text_31">
    <g clip-path="url(#pfedc54513d)">
     <!-- 7.000 -->
     <g style="fill:#56c667;" transform="translate(92.475356 57.237209)rotate(-312.113549)scale(0.06 -0.06)">
      <use xlink:href="#DejaVuSans-55"/>
      <use x="63.623047" xlink:href="#DejaVuSans-46"/>
      <use x="95.410156" xlink:href="#DejaVuSans-48"/>
      <use x="159.033203" xlink:href="#DejaVuSans-48"/>
      <use x="222.65625" xlink:href="#DejaVuSans-48"/>
     </g>
    </g>
   </g>
   <g id="text_32">
    <g clip-path="url(#pfedc54513d)">
     <!-- 7.500 -->
     <g style="fill:#75d054;" transform="translate(108.491377 231.092902)rotate(-298.707675)scale(0.06 -0.06)">
      <use xlink:href="#DejaVuSans-55"/>
      <use x="63.623047" xlink:href="#DejaVuSans-46"/>
      <use x="95.410156" xlink:href="#DejaVuSans-53"/>
      <use x="159.033203" xlink:href="#DejaVuSans-48"/>
      <use x="222.65625" xlink:href="#DejaVuSans-48"/>
     </g>
    </g>
   </g>
   <g id="text_33">
    <g clip-path="url(#pfedc54513d)">
     <!-- 8.000 -->
     <g style="fill:#95d840;" transform="translate(108.696033 231.228685)rotate(-300.082726)scale(0.06 -0.06)">
      <use xlink:href="#DejaVuSans-56"/>
      <use x="63.623047" xlink:href="#DejaVuSans-46"/>
      <use x="95.410156" xlink:href="#DejaVuSans-48"/>
      <use x="159.033203" xlink:href="#DejaVuSans-48"/>
      <use x="222.65625" xlink:href="#DejaVuSans-48"/>
     </g>
    </g>
   </g>
   <g id="text_34">
    <g clip-path="url(#pfedc54513d)">
     <!-- 8.500 -->
     <g style="fill:#bade28;" transform="translate(109.097193 231.197198)rotate(-299.767297)scale(0.06 -0.06)">
      <use xlink:href="#DejaVuSans-56"/>
      <use x="63.623047" xlink:href="#DejaVuSans-46"/>
      <use x="95.410156" xlink:href="#DejaVuSans-53"/>
      <use x="159.033203" xlink:href="#DejaVuSans-48"/>
      <use x="222.65625" xlink:href="#DejaVuSans-48"/>
     </g>
    </g>
   </g>
   <g id="text_35">
    <g clip-path="url(#pfedc54513d)">
     <!-- 9.000 -->
     <g style="fill:#dde318;" transform="translate(94.856722 63.836111)rotate(-310.489675)scale(0.06 -0.06)">
      <use xlink:href="#DejaVuSans-57"/>
      <use x="63.623047" xlink:href="#DejaVuSans-46"/>
      <use x="95.410156" xlink:href="#DejaVuSans-48"/>
      <use x="159.033203" xlink:href="#DejaVuSans-48"/>
      <use x="222.65625" xlink:href="#DejaVuSans-48"/>
     </g>
    </g>
   </g>
   <g id="text_36">
    <g clip-path="url(#pfedc54513d)">
     <!-- 9.500 -->
     <g style="fill:#fde725;" transform="translate(94.813655 63.114149)rotate(-311.306417)scale(0.06 -0.06)">
      <use xlink:href="#DejaVuSans-57"/>
      <use x="63.623047" xlink:href="#DejaVuSans-46"/>
      <use x="95.410156" xlink:href="#DejaVuSans-53"/>
      <use x="159.033203" xlink:href="#DejaVuSans-48"/>
      <use x="222.65625" xlink:href="#DejaVuSans-48"/>
     </g>
    </g>
   </g>
   <g id="text_37">
    <g clip-path="url(#pfedc54513d)">
     <!-- 10.000 -->
     <g style="fill:#440154;" transform="translate(95.780382 70.681413)rotate(-306.285133)scale(0.06 -0.06)">
      <use xlink:href="#DejaVuSans-49"/>
      <use x="63.623047" xlink:href="#DejaVuSans-48"/>
      <use x="127.246094" xlink:href="#DejaVuSans-46"/>
      <use x="159.033203" xlink:href="#DejaVuSans-48"/>
      <use x="222.65625" xlink:href="#DejaVuSans-48"/>
      <use x="286.279297" xlink:href="#DejaVuSans-48"/>
     </g>
    </g>
   </g>
   <g id="text_38">
    <g clip-path="url(#pfedc54513d)">
     <!-- 100.000 -->
     <g style="fill:#440154;" transform="translate(102.97422 68.266663)rotate(-300.985622)scale(0.06 -0.06)">
      <use xlink:href="#DejaVuSans-49"/>
      <use x="63.623047" xlink:href="#DejaVuSans-48"/>
      <use x="127.246094" xlink:href="#DejaVuSans-48"/>
      <use x="190.869141" xlink:href="#DejaVuSans-46"/>
      <use x="222.65625" xlink:href="#DejaVuSans-48"/>
      <use x="286.279297" xlink:href="#DejaVuSans-48"/>
      <use x="349.902344" xlink:href="#DejaVuSans-48"/>
     </g>
    </g>
   </g>
   <g id="text_39">
    <g clip-path="url(#pfedc54513d)">
     <!-- 1000.000 -->
     <g style="fill:#440154;" transform="translate(103.175435 32.281319)rotate(-307.204634)scale(0.06 -0.06)">
      <use xlink:href="#DejaVuSans-49"/>
      <use x="63.623047" xlink:href="#DejaVuSans-48"/>
      <use x="127.246094" xlink:href="#DejaVuSans-48"/>
      <use x="190.869141" xlink:href="#DejaVuSans-48"/>
      <use x="254.492188" xlink:href="#DejaVuSans-46"/>
      <use x="286.279297" xlink:href="#DejaVuSans-48"/>
      <use x="349.902344" xlink:href="#DejaVuSans-48"/>
      <use x="413.525391" xlink:href="#DejaVuSans-48"/>
     </g>
    </g>
   </g>
  </g>
 </g>
 <defs>
  <clipPath id="pfedc54513d">
   <rect height="266.112" width="357.12" x="49.665988" y="7.2"/>
  </clipPath>
 </defs>
</svg>
