<?xml version="1.0" encoding="utf-8" standalone="no"?>
<!DOCTYPE svg PUBLIC "-//W3C//DTD SVG 1.1//EN"
  "http://www.w3.org/Graphics/SVG/1.1/DTD/svg11.dtd">
<!-- Created with matplotlib (https://matplotlib.org/) -->
<svg height="321.713144pt" version="1.1" viewBox="0 0 429.889112 321.713144" width="429.889112pt" xmlns="http://www.w3.org/2000/svg" xmlns:xlink="http://www.w3.org/1999/xlink">
 <metadata>
  <rdf:RDF xmlns:cc="http://creativecommons.org/ns#" xmlns:dc="http://purl.org/dc/elements/1.1/" xmlns:rdf="http://www.w3.org/1999/02/22-rdf-syntax-ns#">
   <cc:Work>
    <dc:type rdf:resource="http://purl.org/dc/dcmitype/StillImage"/>
    <dc:date>2021-09-17T20:05:15.648389</dc:date>
    <dc:format>image/svg+xml</dc:format>
    <dc:creator>
     <cc:Agent>
      <dc:title>Matplotlib v3.3.1, https://matplotlib.org/</dc:title>
     </cc:Agent>
    </dc:creator>
   </cc:Work>
  </rdf:RDF>
 </metadata>
 <defs>
  <style type="text/css">*{stroke-linecap:butt;stroke-linejoin:round;}</style>
 </defs>
 <g id="figure_1">
  <g id="patch_1">
   <path d="M 0 321.713144 
L 429.889112 321.713144 
L 429.889112 0 
L 0 0 
z
" style="fill:#ffffff;"/>
  </g>
  <g id="axes_1">
   <g id="patch_2">
    <path d="M 65.569113 277.111219 
L 422.689113 277.111219 
L 422.689113 10.999219 
L 65.569113 10.999219 
z
" style="fill:#ffffff;"/>
   </g>
   <g id="matplotlib.axis_1">
    <g id="xtick_1">
     <g id="line2d_1">
      <defs>
       <path d="M 0 0 
L 0 3.5 
" id="m0470154988" style="stroke:#000000;stroke-width:0.8;"/>
      </defs>
      <g>
       <use style="stroke:#000000;stroke-width:0.8;" x="65.569112" xlink:href="#m0470154988" y="277.111219"/>
      </g>
     </g>
     <g id="text_1">
      <!-- −10 -->
      <g transform="translate(55.016769 291.709656)scale(0.1 -0.1)">
       <defs>
        <path d="M 10.59375 35.5 
L 73.1875 35.5 
L 73.1875 27.203125 
L 10.59375 27.203125 
z
" id="DejaVuSans-8722"/>
        <path d="M 12.40625 8.296875 
L 28.515625 8.296875 
L 28.515625 63.921875 
L 10.984375 60.40625 
L 10.984375 69.390625 
L 28.421875 72.90625 
L 38.28125 72.90625 
L 38.28125 8.296875 
L 54.390625 8.296875 
L 54.390625 0 
L 12.40625 0 
z
" id="DejaVuSans-49"/>
        <path d="M 31.78125 66.40625 
Q 24.171875 66.40625 20.328125 58.90625 
Q 16.5 51.421875 16.5 36.375 
Q 16.5 21.390625 20.328125 13.890625 
Q 24.171875 6.390625 31.78125 6.390625 
Q 39.453125 6.390625 43.28125 13.890625 
Q 47.125 21.390625 47.125 36.375 
Q 47.125 51.421875 43.28125 58.90625 
Q 39.453125 66.40625 31.78125 66.40625 
z
M 31.78125 74.21875 
Q 44.046875 74.21875 50.515625 64.515625 
Q 56.984375 54.828125 56.984375 36.375 
Q 56.984375 17.96875 50.515625 8.265625 
Q 44.046875 -1.421875 31.78125 -1.421875 
Q 19.53125 -1.421875 13.0625 8.265625 
Q 6.59375 17.96875 6.59375 36.375 
Q 6.59375 54.828125 13.0625 64.515625 
Q 19.53125 74.21875 31.78125 74.21875 
z
" id="DejaVuSans-48"/>
       </defs>
       <use xlink:href="#DejaVuSans-8722"/>
       <use x="83.789062" xlink:href="#DejaVuSans-49"/>
       <use x="147.412109" xlink:href="#DejaVuSans-48"/>
      </g>
     </g>
    </g>
    <g id="xtick_2">
     <g id="line2d_2">
      <g>
       <use style="stroke:#000000;stroke-width:0.8;" x="141.970472" xlink:href="#m0470154988" y="277.111219"/>
      </g>
     </g>
     <g id="text_2">
      <!-- 0 -->
      <g transform="translate(138.789222 291.709656)scale(0.1 -0.1)">
       <use xlink:href="#DejaVuSans-48"/>
      </g>
     </g>
    </g>
    <g id="xtick_3">
     <g id="line2d_3">
      <g>
       <use style="stroke:#000000;stroke-width:0.8;" x="218.371831" xlink:href="#m0470154988" y="277.111219"/>
      </g>
     </g>
     <g id="text_3">
      <!-- 10 -->
      <g transform="translate(212.009331 291.709656)scale(0.1 -0.1)">
       <use xlink:href="#DejaVuSans-49"/>
       <use x="63.623047" xlink:href="#DejaVuSans-48"/>
      </g>
     </g>
    </g>
    <g id="xtick_4">
     <g id="line2d_4">
      <g>
       <use style="stroke:#000000;stroke-width:0.8;" x="294.77319" xlink:href="#m0470154988" y="277.111219"/>
      </g>
     </g>
     <g id="text_4">
      <!-- 20 -->
      <g transform="translate(288.41069 291.709656)scale(0.1 -0.1)">
       <defs>
        <path d="M 19.1875 8.296875 
L 53.609375 8.296875 
L 53.609375 0 
L 7.328125 0 
L 7.328125 8.296875 
Q 12.9375 14.109375 22.625 23.890625 
Q 32.328125 33.6875 34.8125 36.53125 
Q 39.546875 41.84375 41.421875 45.53125 
Q 43.3125 49.21875 43.3125 52.78125 
Q 43.3125 58.59375 39.234375 62.25 
Q 35.15625 65.921875 28.609375 65.921875 
Q 23.96875 65.921875 18.8125 64.3125 
Q 13.671875 62.703125 7.8125 59.421875 
L 7.8125 69.390625 
Q 13.765625 71.78125 18.9375 73 
Q 24.125 74.21875 28.421875 74.21875 
Q 39.75 74.21875 46.484375 68.546875 
Q 53.21875 62.890625 53.21875 53.421875 
Q 53.21875 48.921875 51.53125 44.890625 
Q 49.859375 40.875 45.40625 35.40625 
Q 44.1875 33.984375 37.640625 27.21875 
Q 31.109375 20.453125 19.1875 8.296875 
z
" id="DejaVuSans-50"/>
       </defs>
       <use xlink:href="#DejaVuSans-50"/>
       <use x="63.623047" xlink:href="#DejaVuSans-48"/>
      </g>
     </g>
    </g>
    <g id="xtick_5">
     <g id="line2d_5">
      <g>
       <use style="stroke:#000000;stroke-width:0.8;" x="371.174549" xlink:href="#m0470154988" y="277.111219"/>
      </g>
     </g>
     <g id="text_5">
      <!-- 30 -->
      <g transform="translate(364.812049 291.709656)scale(0.1 -0.1)">
       <defs>
        <path d="M 40.578125 39.3125 
Q 47.65625 37.796875 51.625 33 
Q 55.609375 28.21875 55.609375 21.1875 
Q 55.609375 10.40625 48.1875 4.484375 
Q 40.765625 -1.421875 27.09375 -1.421875 
Q 22.515625 -1.421875 17.65625 -0.515625 
Q 12.796875 0.390625 7.625 2.203125 
L 7.625 11.71875 
Q 11.71875 9.328125 16.59375 8.109375 
Q 21.484375 6.890625 26.8125 6.890625 
Q 36.078125 6.890625 40.9375 10.546875 
Q 45.796875 14.203125 45.796875 21.1875 
Q 45.796875 27.640625 41.28125 31.265625 
Q 36.765625 34.90625 28.71875 34.90625 
L 20.21875 34.90625 
L 20.21875 43.015625 
L 29.109375 43.015625 
Q 36.375 43.015625 40.234375 45.921875 
Q 44.09375 48.828125 44.09375 54.296875 
Q 44.09375 59.90625 40.109375 62.90625 
Q 36.140625 65.921875 28.71875 65.921875 
Q 24.65625 65.921875 20.015625 65.03125 
Q 15.375 64.15625 9.8125 62.3125 
L 9.8125 71.09375 
Q 15.4375 72.65625 20.34375 73.4375 
Q 25.25 74.21875 29.59375 74.21875 
Q 40.828125 74.21875 47.359375 69.109375 
Q 53.90625 64.015625 53.90625 55.328125 
Q 53.90625 49.265625 50.4375 45.09375 
Q 46.96875 40.921875 40.578125 39.3125 
z
" id="DejaVuSans-51"/>
       </defs>
       <use xlink:href="#DejaVuSans-51"/>
       <use x="63.623047" xlink:href="#DejaVuSans-48"/>
      </g>
     </g>
    </g>
    <g id="text_6">
     <!-- 1st PC: 84.40 % -->
     <g transform="translate(175.408713 310.919444)scale(0.1728 -0.1728)">
      <defs>
       <path d="M 44.28125 53.078125 
L 44.28125 44.578125 
Q 40.484375 46.53125 36.375 47.5 
Q 32.28125 48.484375 27.875 48.484375 
Q 21.1875 48.484375 17.84375 46.4375 
Q 14.5 44.390625 14.5 40.28125 
Q 14.5 37.15625 16.890625 35.375 
Q 19.28125 33.59375 26.515625 31.984375 
L 29.59375 31.296875 
Q 39.15625 29.25 43.1875 25.515625 
Q 47.21875 21.78125 47.21875 15.09375 
Q 47.21875 7.46875 41.1875 3.015625 
Q 35.15625 -1.421875 24.609375 -1.421875 
Q 20.21875 -1.421875 15.453125 -0.5625 
Q 10.6875 0.296875 5.421875 2 
L 5.421875 11.28125 
Q 10.40625 8.6875 15.234375 7.390625 
Q 20.0625 6.109375 24.8125 6.109375 
Q 31.15625 6.109375 34.5625 8.28125 
Q 37.984375 10.453125 37.984375 14.40625 
Q 37.984375 18.0625 35.515625 20.015625 
Q 33.0625 21.96875 24.703125 23.78125 
L 21.578125 24.515625 
Q 13.234375 26.265625 9.515625 29.90625 
Q 5.8125 33.546875 5.8125 39.890625 
Q 5.8125 47.609375 11.28125 51.796875 
Q 16.75 56 26.8125 56 
Q 31.78125 56 36.171875 55.265625 
Q 40.578125 54.546875 44.28125 53.078125 
z
" id="DejaVuSans-115"/>
       <path d="M 18.3125 70.21875 
L 18.3125 54.6875 
L 36.8125 54.6875 
L 36.8125 47.703125 
L 18.3125 47.703125 
L 18.3125 18.015625 
Q 18.3125 11.328125 20.140625 9.421875 
Q 21.96875 7.515625 27.59375 7.515625 
L 36.8125 7.515625 
L 36.8125 0 
L 27.59375 0 
Q 17.1875 0 13.234375 3.875 
Q 9.28125 7.765625 9.28125 18.015625 
L 9.28125 47.703125 
L 2.6875 47.703125 
L 2.6875 54.6875 
L 9.28125 54.6875 
L 9.28125 70.21875 
z
" id="DejaVuSans-116"/>
       <path id="DejaVuSans-32"/>
       <path d="M 19.671875 64.796875 
L 19.671875 37.40625 
L 32.078125 37.40625 
Q 38.96875 37.40625 42.71875 40.96875 
Q 46.484375 44.53125 46.484375 51.125 
Q 46.484375 57.671875 42.71875 61.234375 
Q 38.96875 64.796875 32.078125 64.796875 
z
M 9.8125 72.90625 
L 32.078125 72.90625 
Q 44.34375 72.90625 50.609375 67.359375 
Q 56.890625 61.8125 56.890625 51.125 
Q 56.890625 40.328125 50.609375 34.8125 
Q 44.34375 29.296875 32.078125 29.296875 
L 19.671875 29.296875 
L 19.671875 0 
L 9.8125 0 
z
" id="DejaVuSans-80"/>
       <path d="M 64.40625 67.28125 
L 64.40625 56.890625 
Q 59.421875 61.53125 53.78125 63.8125 
Q 48.140625 66.109375 41.796875 66.109375 
Q 29.296875 66.109375 22.65625 58.46875 
Q 16.015625 50.828125 16.015625 36.375 
Q 16.015625 21.96875 22.65625 14.328125 
Q 29.296875 6.6875 41.796875 6.6875 
Q 48.140625 6.6875 53.78125 8.984375 
Q 59.421875 11.28125 64.40625 15.921875 
L 64.40625 5.609375 
Q 59.234375 2.09375 53.4375 0.328125 
Q 47.65625 -1.421875 41.21875 -1.421875 
Q 24.65625 -1.421875 15.125 8.703125 
Q 5.609375 18.84375 5.609375 36.375 
Q 5.609375 53.953125 15.125 64.078125 
Q 24.65625 74.21875 41.21875 74.21875 
Q 47.75 74.21875 53.53125 72.484375 
Q 59.328125 70.75 64.40625 67.28125 
z
" id="DejaVuSans-67"/>
       <path d="M 11.71875 12.40625 
L 22.015625 12.40625 
L 22.015625 0 
L 11.71875 0 
z
M 11.71875 51.703125 
L 22.015625 51.703125 
L 22.015625 39.3125 
L 11.71875 39.3125 
z
" id="DejaVuSans-58"/>
       <path d="M 31.78125 34.625 
Q 24.75 34.625 20.71875 30.859375 
Q 16.703125 27.09375 16.703125 20.515625 
Q 16.703125 13.921875 20.71875 10.15625 
Q 24.75 6.390625 31.78125 6.390625 
Q 38.8125 6.390625 42.859375 10.171875 
Q 46.921875 13.96875 46.921875 20.515625 
Q 46.921875 27.09375 42.890625 30.859375 
Q 38.875 34.625 31.78125 34.625 
z
M 21.921875 38.8125 
Q 15.578125 40.375 12.03125 44.71875 
Q 8.5 49.078125 8.5 55.328125 
Q 8.5 64.0625 14.71875 69.140625 
Q 20.953125 74.21875 31.78125 74.21875 
Q 42.671875 74.21875 48.875 69.140625 
Q 55.078125 64.0625 55.078125 55.328125 
Q 55.078125 49.078125 51.53125 44.71875 
Q 48 40.375 41.703125 38.8125 
Q 48.828125 37.15625 52.796875 32.3125 
Q 56.78125 27.484375 56.78125 20.515625 
Q 56.78125 9.90625 50.3125 4.234375 
Q 43.84375 -1.421875 31.78125 -1.421875 
Q 19.734375 -1.421875 13.25 4.234375 
Q 6.78125 9.90625 6.78125 20.515625 
Q 6.78125 27.484375 10.78125 32.3125 
Q 14.796875 37.15625 21.921875 38.8125 
z
M 18.3125 54.390625 
Q 18.3125 48.734375 21.84375 45.5625 
Q 25.390625 42.390625 31.78125 42.390625 
Q 38.140625 42.390625 41.71875 45.5625 
Q 45.3125 48.734375 45.3125 54.390625 
Q 45.3125 60.0625 41.71875 63.234375 
Q 38.140625 66.40625 31.78125 66.40625 
Q 25.390625 66.40625 21.84375 63.234375 
Q 18.3125 60.0625 18.3125 54.390625 
z
" id="DejaVuSans-56"/>
       <path d="M 37.796875 64.3125 
L 12.890625 25.390625 
L 37.796875 25.390625 
z
M 35.203125 72.90625 
L 47.609375 72.90625 
L 47.609375 25.390625 
L 58.015625 25.390625 
L 58.015625 17.1875 
L 47.609375 17.1875 
L 47.609375 0 
L 37.796875 0 
L 37.796875 17.1875 
L 4.890625 17.1875 
L 4.890625 26.703125 
z
" id="DejaVuSans-52"/>
       <path d="M 10.6875 12.40625 
L 21 12.40625 
L 21 0 
L 10.6875 0 
z
" id="DejaVuSans-46"/>
       <path d="M 72.703125 32.078125 
Q 68.453125 32.078125 66.03125 28.46875 
Q 63.625 24.859375 63.625 18.40625 
Q 63.625 12.0625 66.03125 8.421875 
Q 68.453125 4.78125 72.703125 4.78125 
Q 76.859375 4.78125 79.265625 8.421875 
Q 81.6875 12.0625 81.6875 18.40625 
Q 81.6875 24.8125 79.265625 28.4375 
Q 76.859375 32.078125 72.703125 32.078125 
z
M 72.703125 38.28125 
Q 80.421875 38.28125 84.953125 32.90625 
Q 89.5 27.546875 89.5 18.40625 
Q 89.5 9.28125 84.9375 3.921875 
Q 80.375 -1.421875 72.703125 -1.421875 
Q 64.890625 -1.421875 60.34375 3.921875 
Q 55.8125 9.28125 55.8125 18.40625 
Q 55.8125 27.59375 60.375 32.9375 
Q 64.9375 38.28125 72.703125 38.28125 
z
M 22.3125 68.015625 
Q 18.109375 68.015625 15.6875 64.375 
Q 13.28125 60.75 13.28125 54.390625 
Q 13.28125 47.953125 15.671875 44.328125 
Q 18.0625 40.71875 22.3125 40.71875 
Q 26.5625 40.71875 28.96875 44.328125 
Q 31.390625 47.953125 31.390625 54.390625 
Q 31.390625 60.6875 28.953125 64.34375 
Q 26.515625 68.015625 22.3125 68.015625 
z
M 66.40625 74.21875 
L 74.21875 74.21875 
L 28.609375 -1.421875 
L 20.796875 -1.421875 
z
M 22.3125 74.21875 
Q 30.03125 74.21875 34.609375 68.875 
Q 39.203125 63.53125 39.203125 54.390625 
Q 39.203125 45.171875 34.640625 39.84375 
Q 30.078125 34.515625 22.3125 34.515625 
Q 14.546875 34.515625 10.03125 39.859375 
Q 5.515625 45.21875 5.515625 54.390625 
Q 5.515625 63.484375 10.046875 68.84375 
Q 14.59375 74.21875 22.3125 74.21875 
z
" id="DejaVuSans-37"/>
      </defs>
      <use xlink:href="#DejaVuSans-49"/>
      <use x="63.623047" xlink:href="#DejaVuSans-115"/>
      <use x="115.722656" xlink:href="#DejaVuSans-116"/>
      <use x="154.931641" xlink:href="#DejaVuSans-32"/>
      <use x="186.71875" xlink:href="#DejaVuSans-80"/>
      <use x="247.021484" xlink:href="#DejaVuSans-67"/>
      <use x="316.845703" xlink:href="#DejaVuSans-58"/>
      <use x="350.537109" xlink:href="#DejaVuSans-32"/>
      <use x="382.324219" xlink:href="#DejaVuSans-56"/>
      <use x="445.947266" xlink:href="#DejaVuSans-52"/>
      <use x="509.570312" xlink:href="#DejaVuSans-46"/>
      <use x="541.357422" xlink:href="#DejaVuSans-52"/>
      <use x="604.980469" xlink:href="#DejaVuSans-48"/>
      <use x="668.603516" xlink:href="#DejaVuSans-32"/>
      <use x="700.390625" xlink:href="#DejaVuSans-37"/>
     </g>
    </g>
   </g>
   <g id="matplotlib.axis_2">
    <g id="ytick_1">
     <g id="line2d_6">
      <defs>
       <path d="M 0 0 
L -3.5 0 
" id="ma37365c1e0" style="stroke:#000000;stroke-width:0.8;"/>
      </defs>
      <g>
       <use style="stroke:#000000;stroke-width:0.8;" x="65.569113" xlink:href="#ma37365c1e0" y="277.111219"/>
      </g>
     </g>
     <g id="text_7">
      <!-- −10.0 -->
      <g transform="translate(27.9238 280.910437)scale(0.1 -0.1)">
       <use xlink:href="#DejaVuSans-8722"/>
       <use x="83.789062" xlink:href="#DejaVuSans-49"/>
       <use x="147.412109" xlink:href="#DejaVuSans-48"/>
       <use x="211.035156" xlink:href="#DejaVuSans-46"/>
       <use x="242.822266" xlink:href="#DejaVuSans-48"/>
      </g>
     </g>
    </g>
    <g id="ytick_2">
     <g id="line2d_7">
      <g>
       <use style="stroke:#000000;stroke-width:0.8;" x="65.569113" xlink:href="#ma37365c1e0" y="243.847219"/>
      </g>
     </g>
     <g id="text_8">
      <!-- −7.5 -->
      <g transform="translate(34.2863 247.646437)scale(0.1 -0.1)">
       <defs>
        <path d="M 8.203125 72.90625 
L 55.078125 72.90625 
L 55.078125 68.703125 
L 28.609375 0 
L 18.3125 0 
L 43.21875 64.59375 
L 8.203125 64.59375 
z
" id="DejaVuSans-55"/>
        <path d="M 10.796875 72.90625 
L 49.515625 72.90625 
L 49.515625 64.59375 
L 19.828125 64.59375 
L 19.828125 46.734375 
Q 21.96875 47.46875 24.109375 47.828125 
Q 26.265625 48.1875 28.421875 48.1875 
Q 40.625 48.1875 47.75 41.5 
Q 54.890625 34.8125 54.890625 23.390625 
Q 54.890625 11.625 47.5625 5.09375 
Q 40.234375 -1.421875 26.90625 -1.421875 
Q 22.3125 -1.421875 17.546875 -0.640625 
Q 12.796875 0.140625 7.71875 1.703125 
L 7.71875 11.625 
Q 12.109375 9.234375 16.796875 8.0625 
Q 21.484375 6.890625 26.703125 6.890625 
Q 35.15625 6.890625 40.078125 11.328125 
Q 45.015625 15.765625 45.015625 23.390625 
Q 45.015625 31 40.078125 35.4375 
Q 35.15625 39.890625 26.703125 39.890625 
Q 22.75 39.890625 18.8125 39.015625 
Q 14.890625 38.140625 10.796875 36.28125 
z
" id="DejaVuSans-53"/>
       </defs>
       <use xlink:href="#DejaVuSans-8722"/>
       <use x="83.789062" xlink:href="#DejaVuSans-55"/>
       <use x="147.412109" xlink:href="#DejaVuSans-46"/>
       <use x="179.199219" xlink:href="#DejaVuSans-53"/>
      </g>
     </g>
    </g>
    <g id="ytick_3">
     <g id="line2d_8">
      <g>
       <use style="stroke:#000000;stroke-width:0.8;" x="65.569113" xlink:href="#ma37365c1e0" y="210.583219"/>
      </g>
     </g>
     <g id="text_9">
      <!-- −5.0 -->
      <g transform="translate(34.2863 214.382437)scale(0.1 -0.1)">
       <use xlink:href="#DejaVuSans-8722"/>
       <use x="83.789062" xlink:href="#DejaVuSans-53"/>
       <use x="147.412109" xlink:href="#DejaVuSans-46"/>
       <use x="179.199219" xlink:href="#DejaVuSans-48"/>
      </g>
     </g>
    </g>
    <g id="ytick_4">
     <g id="line2d_9">
      <g>
       <use style="stroke:#000000;stroke-width:0.8;" x="65.569113" xlink:href="#ma37365c1e0" y="177.319219"/>
      </g>
     </g>
     <g id="text_10">
      <!-- −2.5 -->
      <g transform="translate(34.2863 181.118437)scale(0.1 -0.1)">
       <use xlink:href="#DejaVuSans-8722"/>
       <use x="83.789062" xlink:href="#DejaVuSans-50"/>
       <use x="147.412109" xlink:href="#DejaVuSans-46"/>
       <use x="179.199219" xlink:href="#DejaVuSans-53"/>
      </g>
     </g>
    </g>
    <g id="ytick_5">
     <g id="line2d_10">
      <g>
       <use style="stroke:#000000;stroke-width:0.8;" x="65.569113" xlink:href="#ma37365c1e0" y="144.055219"/>
      </g>
     </g>
     <g id="text_11">
      <!-- 0.0 -->
      <g transform="translate(42.665987 147.854437)scale(0.1 -0.1)">
       <use xlink:href="#DejaVuSans-48"/>
       <use x="63.623047" xlink:href="#DejaVuSans-46"/>
       <use x="95.410156" xlink:href="#DejaVuSans-48"/>
      </g>
     </g>
    </g>
    <g id="ytick_6">
     <g id="line2d_11">
      <g>
       <use style="stroke:#000000;stroke-width:0.8;" x="65.569113" xlink:href="#ma37365c1e0" y="110.791219"/>
      </g>
     </g>
     <g id="text_12">
      <!-- 2.5 -->
      <g transform="translate(42.665987 114.590437)scale(0.1 -0.1)">
       <use xlink:href="#DejaVuSans-50"/>
       <use x="63.623047" xlink:href="#DejaVuSans-46"/>
       <use x="95.410156" xlink:href="#DejaVuSans-53"/>
      </g>
     </g>
    </g>
    <g id="ytick_7">
     <g id="line2d_12">
      <g>
       <use style="stroke:#000000;stroke-width:0.8;" x="65.569113" xlink:href="#ma37365c1e0" y="77.527219"/>
      </g>
     </g>
     <g id="text_13">
      <!-- 5.0 -->
      <g transform="translate(42.665987 81.326437)scale(0.1 -0.1)">
       <use xlink:href="#DejaVuSans-53"/>
       <use x="63.623047" xlink:href="#DejaVuSans-46"/>
       <use x="95.410156" xlink:href="#DejaVuSans-48"/>
      </g>
     </g>
    </g>
    <g id="ytick_8">
     <g id="line2d_13">
      <g>
       <use style="stroke:#000000;stroke-width:0.8;" x="65.569113" xlink:href="#ma37365c1e0" y="44.263219"/>
      </g>
     </g>
     <g id="text_14">
      <!-- 7.5 -->
      <g transform="translate(42.665987 48.062437)scale(0.1 -0.1)">
       <use xlink:href="#DejaVuSans-55"/>
       <use x="63.623047" xlink:href="#DejaVuSans-46"/>
       <use x="95.410156" xlink:href="#DejaVuSans-53"/>
      </g>
     </g>
    </g>
    <g id="ytick_9">
     <g id="line2d_14">
      <g>
       <use style="stroke:#000000;stroke-width:0.8;" x="65.569113" xlink:href="#ma37365c1e0" y="10.999219"/>
      </g>
     </g>
     <g id="text_15">
      <!-- 10.0 -->
      <g transform="translate(36.303488 14.798437)scale(0.1 -0.1)">
       <use xlink:href="#DejaVuSans-49"/>
       <use x="63.623047" xlink:href="#DejaVuSans-48"/>
       <use x="127.246094" xlink:href="#DejaVuSans-46"/>
       <use x="159.033203" xlink:href="#DejaVuSans-48"/>
      </g>
     </g>
    </g>
    <g id="text_16">
     <!-- 2nd PC: 13.46 % -->
     <g transform="translate(20.3301 215.848219)rotate(-90)scale(0.1728 -0.1728)">
      <defs>
       <path d="M 54.890625 33.015625 
L 54.890625 0 
L 45.90625 0 
L 45.90625 32.71875 
Q 45.90625 40.484375 42.875 44.328125 
Q 39.84375 48.1875 33.796875 48.1875 
Q 26.515625 48.1875 22.3125 43.546875 
Q 18.109375 38.921875 18.109375 30.90625 
L 18.109375 0 
L 9.078125 0 
L 9.078125 54.6875 
L 18.109375 54.6875 
L 18.109375 46.1875 
Q 21.34375 51.125 25.703125 53.5625 
Q 30.078125 56 35.796875 56 
Q 45.21875 56 50.046875 50.171875 
Q 54.890625 44.34375 54.890625 33.015625 
z
" id="DejaVuSans-110"/>
       <path d="M 45.40625 46.390625 
L 45.40625 75.984375 
L 54.390625 75.984375 
L 54.390625 0 
L 45.40625 0 
L 45.40625 8.203125 
Q 42.578125 3.328125 38.25 0.953125 
Q 33.9375 -1.421875 27.875 -1.421875 
Q 17.96875 -1.421875 11.734375 6.484375 
Q 5.515625 14.40625 5.515625 27.296875 
Q 5.515625 40.1875 11.734375 48.09375 
Q 17.96875 56 27.875 56 
Q 33.9375 56 38.25 53.625 
Q 42.578125 51.265625 45.40625 46.390625 
z
M 14.796875 27.296875 
Q 14.796875 17.390625 18.875 11.75 
Q 22.953125 6.109375 30.078125 6.109375 
Q 37.203125 6.109375 41.296875 11.75 
Q 45.40625 17.390625 45.40625 27.296875 
Q 45.40625 37.203125 41.296875 42.84375 
Q 37.203125 48.484375 30.078125 48.484375 
Q 22.953125 48.484375 18.875 42.84375 
Q 14.796875 37.203125 14.796875 27.296875 
z
" id="DejaVuSans-100"/>
       <path d="M 33.015625 40.375 
Q 26.375 40.375 22.484375 35.828125 
Q 18.609375 31.296875 18.609375 23.390625 
Q 18.609375 15.53125 22.484375 10.953125 
Q 26.375 6.390625 33.015625 6.390625 
Q 39.65625 6.390625 43.53125 10.953125 
Q 47.40625 15.53125 47.40625 23.390625 
Q 47.40625 31.296875 43.53125 35.828125 
Q 39.65625 40.375 33.015625 40.375 
z
M 52.59375 71.296875 
L 52.59375 62.3125 
Q 48.875 64.0625 45.09375 64.984375 
Q 41.3125 65.921875 37.59375 65.921875 
Q 27.828125 65.921875 22.671875 59.328125 
Q 17.53125 52.734375 16.796875 39.40625 
Q 19.671875 43.65625 24.015625 45.921875 
Q 28.375 48.1875 33.59375 48.1875 
Q 44.578125 48.1875 50.953125 41.515625 
Q 57.328125 34.859375 57.328125 23.390625 
Q 57.328125 12.15625 50.6875 5.359375 
Q 44.046875 -1.421875 33.015625 -1.421875 
Q 20.359375 -1.421875 13.671875 8.265625 
Q 6.984375 17.96875 6.984375 36.375 
Q 6.984375 53.65625 15.1875 63.9375 
Q 23.390625 74.21875 37.203125 74.21875 
Q 40.921875 74.21875 44.703125 73.484375 
Q 48.484375 72.75 52.59375 71.296875 
z
" id="DejaVuSans-54"/>
      </defs>
      <use xlink:href="#DejaVuSans-50"/>
      <use x="63.623047" xlink:href="#DejaVuSans-110"/>
      <use x="127.001953" xlink:href="#DejaVuSans-100"/>
      <use x="190.478516" xlink:href="#DejaVuSans-32"/>
      <use x="222.265625" xlink:href="#DejaVuSans-80"/>
      <use x="282.568359" xlink:href="#DejaVuSans-67"/>
      <use x="352.392578" xlink:href="#DejaVuSans-58"/>
      <use x="386.083984" xlink:href="#DejaVuSans-32"/>
      <use x="417.871094" xlink:href="#DejaVuSans-49"/>
      <use x="481.494141" xlink:href="#DejaVuSans-51"/>
      <use x="545.117188" xlink:href="#DejaVuSans-46"/>
      <use x="576.904297" xlink:href="#DejaVuSans-52"/>
      <use x="640.527344" xlink:href="#DejaVuSans-54"/>
      <use x="704.150391" xlink:href="#DejaVuSans-32"/>
      <use x="735.9375" xlink:href="#DejaVuSans-37"/>
     </g>
    </g>
   </g>
   <g id="LineCollection_1"/>
   <g id="LineCollection_2"/>
   <g id="LineCollection_3"/>
   <g id="LineCollection_4"/>
   <g id="LineCollection_5">
    <path clip-path="url(#pe383024130)" d="M 147.330572 140.36851 
L 150.763886 144.055219 
L 150.892428 152.925619 
L 151.479743 161.796019 
L 151.344342 170.666419 
L 149.890342 179.536819 
L 147.063896 182.382014 
L 141.970472 180.058088 
L 141.440593 179.536819 
L 136.877048 173.611947 
L 134.602266 170.666419 
L 131.783624 165.084237 
L 131.211734 161.796019 
L 131.270764 152.925619 
L 131.783624 148.126503 
L 133.52189 144.055219 
L 136.643479 141.455564 
" style="fill:none;stroke:#404688;stroke-width:1.5;"/>
   </g>
   <g id="LineCollection_6">
    <path clip-path="url(#pe383024130)" d="M 218.371831 266.940721 
L 213.278407 263.336319 
L 211.441426 262.267012 
" style="fill:none;stroke:#39558c;stroke-width:1.5;"/>
    <path clip-path="url(#pe383024130)" d="M 211.203449 254.885104 
L 213.278407 253.491611 
L 218.371831 252.938329 
" style="fill:none;stroke:#39558c;stroke-width:1.5;"/>
    <path clip-path="url(#pe383024130)" d="M 218.371831 183.606223 
L 213.278407 182.507331 
L 208.184983 181.911895 
L 203.091559 182.102724 
L 197.998135 183.096016 
L 192.904711 184.80075 
L 187.811287 187.440822 
L 186.73449 188.407219 
L 182.717863 191.820785 
L 179.060634 197.277619 
L 177.624439 199.836927 
L 176.447342 203.584308 
" style="fill:none;stroke:#39558c;stroke-width:1.5;"/>
    <path clip-path="url(#pe383024130)" d="M 175.097589 227.36118 
L 175.966513 232.759219 
L 176.086091 241.629619 
L 172.531015 242.6341 
L 167.437591 242.258071 
L 166.351446 241.629619 
L 162.344168 238.033219 
L 159.511372 232.759219 
L 157.250744 228.34521 
L 155.867064 223.888819 
L 152.15732 216.700202 
L 151.553037 215.018419 
L 147.093918 206.148019 
L 147.063896 206.101761 
L 141.970472 198.59785 
L 140.773836 197.277619 
L 136.877048 192.308699 
L 133.00124 188.407219 
L 131.783624 186.811461 
L 126.6902 180.841979 
L 125.998863 179.536819 
L 124.995046 170.666419 
L 125.446739 161.796019 
L 126.169361 152.925619 
L 126.6902 149.041127 
L 128.023606 144.055219 
L 131.321414 135.184819 
L 131.783624 134.546344 
L 136.877048 130.462774 
L 141.970472 126.738018 
L 142.617905 126.314419 
L 147.063896 124.640549 
L 152.15732 121.724688 
L 156.399145 117.444019 
L 157.250744 116.801562 
L 162.344168 110.839931 
L 163.821265 108.573619 
L 167.437591 100.963788 
L 168.077264 99.703219 
L 171.184497 90.832819 
L 172.238198 81.962419 
L 172.531015 77.41102 
L 173.733041 73.092019 
L 175.30004 64.221619 
L 176.191485 55.351219 
L 176.735925 46.480819 
L 177.304118 37.610419 
L 177.624439 34.407235 
L 180.676018 28.740019 
L 182.466565 19.869619 
L 182.703037 10.999219 
" style="fill:none;stroke:#39558c;stroke-width:1.5;"/>
   </g>
   <g id="LineCollection_7">
    <path clip-path="url(#pe383024130)" d="M 209.754756 277.111219 
L 208.184983 276.50041 
L 203.091559 274.726319 
L 197.998135 272.847397 
L 192.904711 270.746366 
L 187.811287 268.607585 
L 187.080622 268.240819 
L 182.717863 264.406156 
L 177.624439 261.034419 
L 174.753983 259.370419 
L 172.531015 257.342878 
L 168.644099 254.270955 
" style="fill:none;stroke:#33638d;stroke-width:1.5;"/>
    <path clip-path="url(#pe383024130)" d="M 158.781236 244.439787 
L 157.250744 242.345219 
L 156.909561 241.629619 
L 153.697708 232.759219 
L 152.15732 229.095518 
L 150.482754 223.888819 
L 147.063896 216.057271 
L 146.630714 215.018419 
L 141.970472 206.752624 
L 141.514631 206.148019 
L 136.877048 200.033787 
L 134.073115 197.277619 
L 131.783624 194.48711 
L 126.6902 189.402017 
L 125.604136 188.407219 
L 121.596776 180.73095 
L 121.463652 179.536819 
L 121.596776 176.090582 
L 122.089781 170.666419 
L 123.382642 161.796019 
L 124.141047 152.925619 
L 125.110777 144.055219 
L 126.6902 138.521143 
L 128.023222 135.184819 
L 131.783624 129.990382 
L 135.24101 126.314419 
L 136.877048 125.298798 
L 141.970472 122.702257 
L 147.063896 119.034757 
L 148.882235 117.444019 
L 152.15732 115.568518 
L 157.250744 110.256025 
L 158.442654 108.573619 
L 162.344168 103.266203 
L 164.261458 99.703219 
L 167.275724 90.832819 
L 167.437591 90.098893 
L 170.034096 81.962419 
L 171.371034 73.092019 
L 172.073651 64.221619 
L 172.51571 55.351219 
L 172.531015 55.031438 
L 174.293417 46.480819 
L 176.147107 37.610419 
L 177.458251 28.740019 
L 177.624439 27.607276 
L 181.386935 19.869619 
L 182.466791 10.999219 
" style="fill:none;stroke:#33638d;stroke-width:1.5;"/>
   </g>
   <g id="LineCollection_8">
    <path clip-path="url(#pe383024130)" d="M 193.569121 277.111219 
L 192.904711 276.749094 
L 187.811287 273.49964 
L 182.717863 270.430637 
L 178.955638 268.240819 
L 177.624439 267.062665 
L 172.531015 262.871955 
L 167.437591 259.542831 
L 167.204377 259.370419 
L 162.344168 254.547108 
L 158.42887 250.500019 
L 157.926058 249.777862 
" style="fill:none;stroke:#2d718e;stroke-width:1.5;"/>
    <path clip-path="url(#pe383024130)" d="M 150.352668 232.032138 
L 147.153619 223.888819 
L 147.063896 223.683289 
L 143.450808 215.018419 
L 141.970472 212.392771 
L 137.262255 206.148019 
L 136.877048 205.640158 
L 131.783624 199.76592 
L 128.975246 197.277619 
L 126.6902 194.698179 
L 121.596776 189.798868 
L 121.085673 188.407219 
L 120.228902 179.536819 
L 120.573647 170.666419 
L 121.398724 161.796019 
L 121.596776 158.723628 
L 122.112733 152.925619 
L 122.754859 144.055219 
L 125.169374 135.184819 
L 126.6902 132.851065 
L 131.255269 126.314419 
L 131.783624 125.920594 
L 136.877048 122.638714 
L 141.970472 118.92589 
L 143.773305 117.444019 
L 147.063896 115.797288 
L 152.15732 111.899008 
L 154.956129 108.573619 
L 157.250744 106.366305 
L 161.516449 99.703219 
L 162.344168 98.258829 
L 165.75242 90.832819 
L 167.437591 83.192061 
L 167.829994 81.962419 
L 170.043722 73.092019 
L 171.212407 64.221619 
L 171.948529 55.351219 
L 172.423822 46.480819 
L 172.531015 45.453319 
L 174.990097 37.610419 
L 177.132506 28.740019 
L 177.624439 25.386994 
L 180.307306 19.869619 
L 182.230544 10.999219 
" style="fill:none;stroke:#2d718e;stroke-width:1.5;"/>
   </g>
   <g id="LineCollection_9">
    <path clip-path="url(#pe383024130)" d="M 186.403223 277.111219 
L 182.717863 274.395199 
L 177.624439 270.848466 
L 173.567363 268.240819 
L 172.531015 267.325527 
L 167.437591 263.007738 
L 162.517557 259.370419 
L 162.344168 259.198346 
L 157.250744 253.244091 
L 155.442469 250.500019 
L 152.15732 243.88674 
L 151.330744 241.629619 
L 148.287092 232.759219 
L 147.063896 229.668894 
L 145.08152 223.888819 
L 141.970472 217.318156 
L 140.610457 215.018419 
L 136.877048 209.542298 
L 133.670793 206.148019 
L 131.783624 203.922904 
L 126.6902 198.967959 
L 124.442523 197.277619 
L 121.596776 194.332952 
L 119.420468 188.407219 
L 118.994152 179.536819 
L 119.341415 170.666419 
L 119.929448 161.796019 
L 120.248968 152.925619 
L 120.505825 144.055219 
L 121.596776 139.088854 
L 122.616934 135.184819 
L 126.6902 128.93427 
L 128.519854 126.314419 
L 131.783624 123.881671 
L 136.877048 119.97863 
L 139.98721 117.444019 
L 141.836609 116.580053 
" style="fill:none;stroke:#287d8e;stroke-width:1.5;"/>
    <path clip-path="url(#pe383024130)" d="M 152.016202 108.520837 
L 152.15732 108.418148 
L 157.250744 103.395369 
L 159.614456 99.703219 
L 162.344168 94.939806 
L 164.229116 90.832819 
L 166.789965 81.962419 
L 167.437591 77.878715 
L 168.716411 73.092019 
L 170.351163 64.221619 
L 171.381347 55.351219 
L 172.038852 46.480819 
L 172.531015 41.763195 
L 173.833087 37.610419 
L 176.806761 28.740019 
L 177.624439 23.166713 
L 179.227677 19.869619 
L 181.994298 10.999219 
" style="fill:none;stroke:#287d8e;stroke-width:1.5;"/>
   </g>
   <g id="LineCollection_10">
    <path clip-path="url(#pe383024130)" d="M 181.431774 277.111219 
L 177.624439 274.089545 
L 172.531015 270.367534 
L 169.429651 268.240819 
L 167.437591 266.472645 
L 162.344168 262.105579 
L 159.299563 259.370419 
L 157.250744 256.961435 
L 152.992832 250.500019 
L 152.15732 248.818062 
L 149.815959 242.424535 
" style="fill:none;stroke:#238a8d;stroke-width:1.5;"/>
    <path clip-path="url(#pe383024130)" d="M 142.785978 223.343363 
L 141.970472 221.62098 
L 138.065862 215.018419 
L 136.877048 213.274681 
L 131.783624 207.451391 
L 130.343485 206.148019 
L 126.6902 202.263221 
L 121.596776 198.249794 
L 120.653492 197.277619 
L 117.755262 188.407219 
L 117.759402 179.536819 
L 118.109184 170.666419 
L 118.460172 161.796019 
L 118.441341 152.925619 
L 118.360128 144.055219 
L 120.225889 135.184819 
L 121.596776 133.05884 
L 125.935782 126.314419 
L 126.6902 125.763469 
L 131.783624 121.842748 
L 136.768069 117.444019 
L 136.877048 117.39341 
L 141.970472 114.992648 
L 147.063896 111.19898 
L 149.665403 108.573619 
L 152.15732 106.760302 
L 157.250744 100.424432 
L 157.712464 99.703219 
L 162.344168 91.620782 
L 162.705812 90.832819 
L 166.002068 81.962419 
L 167.421 73.092019 
L 167.437591 72.958076 
L 169.48992 64.221619 
L 170.814166 55.351219 
L 171.653882 46.480819 
L 172.531015 38.07307 
L 172.676076 37.610419 
L 176.481016 28.740019 
L 177.624439 20.946431 
L 178.148048 19.869619 
L 181.758051 10.999219 
" style="fill:none;stroke:#238a8d;stroke-width:1.5;"/>
   </g>
   <g id="LineCollection_11">
    <path clip-path="url(#pe383024130)" d="M 177.407166 277.111219 
L 172.531015 273.044394 
L 167.437591 269.358653 
L 165.925777 268.240819 
L 162.344168 264.945814 
L 157.250744 260.233884 
L 156.525442 259.370419 
L 152.15732 252.603562 
L 151.152929 250.500019 
L 147.718965 241.629619 
L 147.063896 239.883264 
L 144.908468 232.759219 
L 141.970472 225.573662 
L 141.18306 223.888819 
L 136.877048 216.53366 
L 135.660578 215.018419 
L 131.783624 210.255979 
L 127.244602 206.148019 
L 126.6902 205.558484 
L 121.596776 201.023089 
L 117.962615 197.277619 
L 116.503352 191.192292 
L 116.27425 188.407219 
L 116.503352 180.113267 
L 116.524652 179.536819 
L 116.876953 170.666419 
L 116.990895 161.796019 
L 116.633715 152.925619 
L 116.503352 149.831757 
L 116.23592 144.055219 
L 116.503352 142.493435 
L 117.942297 135.184819 
L 121.596776 129.517432 
L 123.657427 126.314419 
L 126.6902 124.09959 
L 131.721334 119.856359 
" style="fill:none;stroke:#1f968b;stroke-width:1.5;"/>
    <path clip-path="url(#pe383024130)" d="M 142.113866 113.339177 
L 147.063896 108.899826 
L 147.387139 108.573619 
L 152.15732 105.102455 
L 156.289871 99.703219 
L 157.250744 98.556112 
L 161.681447 90.832819 
L 162.344168 89.297249 
L 165.21417 81.962419 
L 166.966877 73.092019 
L 167.437591 69.291889 
L 168.628676 64.221619 
L 170.246984 55.351219 
L 171.268912 46.480819 
L 172.30643 37.610419 
L 172.531015 36.963933 
L 176.155271 28.740019 
L 177.571592 19.869619 
L 177.624439 19.601082 
L 181.521805 10.999219 
" style="fill:none;stroke:#1f968b;stroke-width:1.5;"/>
   </g>
   <g id="LineCollection_12">
    <path clip-path="url(#pe383024130)" d="M 174.197592 277.111219 
L 172.531015 275.721255 
L 167.437591 271.641387 
L 162.838494 268.240819 
L 162.344168 267.786049 
L 157.250744 262.687182 
L 154.464698 259.370419 
L 152.15732 255.795954 
L 149.628641 250.500019 
L 147.063896 244.06631 
L 146.336926 241.629619 
L 145.416799 238.800606 
" style="fill:none;stroke:#20a386;stroke-width:1.5;"/>
    <path clip-path="url(#pe383024130)" d="M 137.849864 221.039218 
L 136.877048 219.377538 
L 133.37745 215.018419 
L 131.783624 213.060566 
L 126.6902 208.023106 
L 124.184473 206.148019 
L 121.596776 203.796384 
L 116.503352 198.644936 
L 116.066891 197.277619 
L 115.351179 188.407219 
L 115.471015 179.536819 
L 115.645508 170.666419 
L 115.539246 161.796019 
L 114.910585 152.925619 
L 114.249812 144.055219 
L 115.721545 135.184819 
L 116.503352 134.010395 
L 121.403593 126.314419 
L 121.596776 126.177678 
L 126.6902 122.435711 
L 131.783624 117.764901 
L 132.147234 117.444019 
L 136.877048 115.247532 
L 141.970472 111.942908 
L 145.639117 108.573619 
L 147.063896 107.687352 
L 152.15732 103.444608 
L 155.020962 99.703219 
L 157.250744 97.041267 
L 160.81241 90.832819 
L 162.344168 87.283629 
L 164.426273 81.962419 
L 166.512753 73.092019 
L 167.437591 65.625703 
L 167.767432 64.221619 
L 169.679803 55.351219 
L 170.883942 46.480819 
L 172.049651 37.610419 
L 172.531015 36.224774 
L 175.829526 28.740019 
L 177.468977 19.869619 
L 177.624439 19.079663 
L 181.285559 10.999219 
" style="fill:none;stroke:#20a386;stroke-width:1.5;"/>
   </g>
   <g id="LineCollection_13">
    <path clip-path="url(#pe383024130)" d="M 171.226404 277.111219 
L 167.437591 273.924122 
L 162.344168 269.919416 
L 160.310593 268.240819 
L 157.250744 265.140481 
L 152.403954 259.370419 
L 152.15732 258.988346 
L 148.104352 250.500019 
L 147.063896 247.890016 
L 145.196149 241.629619 
L 141.995251 232.759219 
L 141.970472 232.698616 
L 137.853214 223.888819 
L 136.877048 222.221415 
L 131.783624 215.669282 
L 131.133447 215.018419 
L 126.6902 210.306744 
L 121.596776 206.444142 
L 121.131281 206.148019 
L 116.503352 201.632302 
L 115.113295 197.277619 
L 114.428107 188.407219 
L 114.420559 179.536819 
L 114.414405 170.666419 
L 114.096351 161.796019 
L 113.194022 152.925619 
L 112.263705 144.055219 
L 113.607847 135.184819 
L 116.503352 130.835219 
L 119.38187 126.314419 
L 121.596776 124.746635 
L 126.6902 120.771832 
L 130.273828 117.444019 
L 131.783624 116.735564 
L 136.877048 114.174594 
L 141.931465 110.446808 
" style="fill:none;stroke:#29af7f;stroke-width:1.5;"/>
    <path clip-path="url(#pe383024130)" d="M 152.054026 101.88548 
L 152.15732 101.786762 
L 153.752054 99.703219 
L 157.250744 95.526421 
L 159.943372 90.832819 
L 162.344168 85.27001 
L 163.638375 81.962419 
L 166.058629 73.092019 
L 167.262431 64.221619 
L 167.437591 62.688627 
L 169.112622 55.351219 
L 170.498971 46.480819 
L 171.792871 37.610419 
L 172.531015 35.485616 
L 175.503781 28.740019 
L 177.366362 19.869619 
L 177.624439 18.558245 
L 181.049312 10.999219 
" style="fill:none;stroke:#29af7f;stroke-width:1.5;"/>
   </g>
   <g id="LineCollection_14">
    <path clip-path="url(#pe383024130)" d="M 168.512696 277.111219 
L 167.437591 276.206856 
L 162.344168 271.918025 
L 157.889333 268.240819 
L 157.250744 267.593779 
L 152.15732 261.331576 
L 150.952283 259.370419 
L 147.063896 251.391594 
L 146.755541 250.500019 
L 144.055373 241.629619 
L 141.970472 235.861576 
L 140.783489 232.759219 
L 136.877048 224.894519 
L 136.223977 223.888819 
L 131.783624 217.825093 
L 128.979909 215.018419 
L 126.6902 212.590382 
L 121.596776 208.391771 
L 118.069681 206.148019 
L 116.503352 204.619669 
L 114.159699 197.277619 
L 113.505035 188.407219 
L 113.370102 179.536819 
L 113.183302 170.666419 
L 112.653456 161.796019 
L 111.47746 152.925619 
L 111.409928 152.353032 
L 110.288963 144.055219 
L 111.409928 135.764269 
L 111.49415 135.184819 
L 116.503352 127.660042 
L 117.360147 126.314419 
L 121.596776 123.315592 
L 126.6902 119.107953 
L 128.482043 117.444019 
L 131.783624 115.89479 
L 136.877048 113.101655 
L 136.887547 113.092979 
" style="fill:none;stroke:#3dbc74;stroke-width:1.5;"/>
    <path clip-path="url(#pe383024130)" d="M 147.160775 105.517271 
L 152.15732 100.128915 
L 152.483145 99.703219 
L 157.250744 94.011576 
L 159.074335 90.832819 
L 162.344168 83.25639 
L 162.850478 81.962419 
L 165.604505 73.092019 
L 166.978548 64.221619 
L 167.437591 60.20411 
L 168.54544 55.351219 
L 170.114001 46.480819 
L 171.536092 37.610419 
L 172.531015 34.746458 
L 175.178036 28.740019 
L 177.263747 19.869619 
L 177.624439 18.036826 
L 180.813066 10.999219 
" style="fill:none;stroke:#3dbc74;stroke-width:1.5;"/>
   </g>
   <g id="LineCollection_15">
    <path clip-path="url(#pe383024130)" d="M 166.041036 277.111219 
L 162.344168 273.916633 
L 157.250744 269.571281 
L 155.929205 268.240819 
L 152.15732 263.55936 
L 149.583418 259.370419 
L 147.063896 254.200455 
L 145.784086 250.500019 
L 142.914597 241.629619 
L 141.970472 239.017622 
L 139.575964 232.759219 
L 136.877048 227.325586 
L 134.645316 223.888819 
L 131.783624 219.980905 
L 126.826372 215.018419 
L 126.6902 214.874021 
L 121.596776 210.3394 
L 116.503352 207.025879 
L 115.851231 206.148019 
L 113.206103 197.277619 
L 112.581963 188.407219 
L 112.319645 179.536819 
L 111.952199 170.666419 
L 111.409928 163.914126 
L 111.212786 161.796019 
L 109.77905 152.925619 
L 108.322791 144.055219 
L 109.27514 135.184819 
L 111.409928 132.121125 
L 115.27846 126.314419 
L 116.503352 125.526827 
L 121.596776 121.88455 
L 126.6902 117.444073 
L 126.690259 117.444019 
L 131.783624 115.054016 
L 136.865286 112.035702 
" style="fill:none;stroke:#56c667;stroke-width:1.5;"/>
    <path clip-path="url(#pe383024130)" d="M 147.144605 104.499363 
L 151.46574 99.703219 
L 152.15732 99.076623 
L 157.250744 92.496731 
L 158.205298 90.832819 
L 162.186922 81.962419 
L 162.344168 81.477441 
L 165.150382 73.092019 
L 166.694665 64.221619 
L 167.437591 57.719593 
L 167.978259 55.351219 
L 169.729031 46.480819 
L 171.279312 37.610419 
L 172.531015 34.007299 
L 174.852291 28.740019 
L 177.161132 19.869619 
L 177.624439 17.515407 
L 180.576819 10.999219 
" style="fill:none;stroke:#56c667;stroke-width:1.5;"/>
   </g>
   <g id="LineCollection_16">
    <path clip-path="url(#pe383024130)" d="M 163.728187 277.111219 
L 162.344168 275.915242 
L 157.250744 271.378342 
L 154.134263 268.240819 
L 152.15732 265.787145 
L 151.382211 264.52568 
" style="fill:none;stroke:#75d054;stroke-width:1.5;"/>
    <path clip-path="url(#pe383024130)" d="M 143.688045 247.185473 
L 141.970472 242.123189 
L 141.807841 241.629619 
L 138.368439 232.759219 
L 136.877048 229.756653 
L 133.066656 223.888819 
L 131.783624 222.136717 
L 126.6902 216.690306 
L 124.650448 215.018419 
L 121.596776 212.287029 
L 116.503352 208.823315 
L 114.516001 206.148019 
L 112.252507 197.277619 
L 111.658891 188.407219 
L 111.409928 182.480792 
L 111.26541 179.536819 
L 110.724655 170.666419 
L 109.785995 161.796019 
L 108.081384 152.925619 
L 106.356618 144.055219 
L 107.05176 135.184819 
L 111.409928 128.930289 
L 113.152668 126.314419 
L 116.503352 124.159967 
L 121.596776 120.453507 
L 125.048787 117.444019 
L 126.6902 116.729204 
L 131.783624 114.213242 
L 136.877048 110.955777 
L 139.696662 108.573619 
L 141.970472 107.340712 
L 147.063896 103.556142 
L 150.535226 99.703219 
L 152.15732 98.233545 
L 157.250744 90.981886 
L 157.336261 90.832819 
L 161.74694 81.962419 
L 162.344168 80.120446 
L 164.696258 73.092019 
L 166.410781 64.221619 
L 167.428848 55.351219 
L 167.437591 55.268269 
L 169.344061 46.480819 
L 171.022533 37.610419 
L 172.531015 33.268141 
L 174.526546 28.740019 
L 177.058517 19.869619 
L 177.624439 16.993988 
L 180.340573 10.999219 
" style="fill:none;stroke:#75d054;stroke-width:1.5;"/>
   </g>
   <g id="LineCollection_17">
    <path clip-path="url(#pe383024130)" d="M 161.549517 277.111219 
L 157.250744 273.185403 
L 152.339321 268.240819 
L 152.15732 268.014929 
L 147.063896 259.701067 
L 146.921639 259.370419 
L 143.841177 250.500019 
L 141.970472 244.986403 
L 140.864418 241.629619 
L 137.160914 232.759219 
L 136.877048 232.18772 
L 135.991144 230.804536 
" style="fill:none;stroke:#95d840;stroke-width:1.5;"/>
    <path clip-path="url(#pe383024130)" d="M 126.629825 218.425558 
L 122.473014 215.018419 
L 121.596776 214.234658 
L 116.503352 210.620751 
L 113.180771 206.148019 
L 111.409928 197.99344 
L 111.305269 197.277619 
L 110.699074 188.407219 
L 110.186759 179.536819 
L 109.499912 170.666419 
L 108.359204 161.796019 
L 106.383718 152.925619 
L 106.316504 152.581034 
L 104.369729 144.055219 
L 104.545889 135.184819 
L 106.316504 132.463485 
L 110.867669 126.314419 
L 111.409928 126.047941 
L 116.503352 122.793107 
L 121.596776 119.022465 
L 123.40732 117.444019 
L 126.6902 116.014365 
L 131.783624 113.372467 
L 136.877048 109.882838 
L 138.426691 108.573619 
L 141.970472 106.652107 
L 147.063896 102.523339 
L 149.604712 99.703219 
L 152.15732 97.390467 
L 156.721676 90.832819 
L 157.250744 90.042601 
L 161.306958 81.962419 
L 162.344168 78.763451 
L 164.242134 73.092019 
L 166.126898 64.221619 
L 167.241806 55.351219 
L 167.437591 53.493834 
L 168.959091 46.480819 
L 170.765754 37.610419 
L 172.531015 32.528983 
L 174.200801 28.740019 
L 176.955903 19.869619 
L 177.624439 16.472569 
L 180.104326 10.999219 
" style="fill:none;stroke:#95d840;stroke-width:1.5;"/>
   </g>
   <g id="LineCollection_18">
    <path clip-path="url(#pe383024130)" d="M 159.570783 277.111219 
L 157.250744 274.992464 
L 152.15732 269.761682 
L 151.01755 268.240819 
L 147.063896 261.775287 
L 146.029234 259.370419 
L 142.869722 250.500019 
L 141.970472 247.849617 
L 139.920995 241.629619 
L 136.877048 234.459153 
L 135.986089 232.759219 
L 134.506082 230.408744 
" style="fill:none;stroke:#bade28;stroke-width:1.5;"/>
    <path clip-path="url(#pe383024130)" d="M 124.979157 218.80881 
L 121.596776 215.940533 
L 120.107824 215.018419 
L 116.503352 212.418187 
L 111.845541 206.148019 
L 111.409928 204.142061 
L 110.406291 197.277619 
L 109.725687 188.407219 
L 109.108109 179.536819 
L 108.275169 170.666419 
L 106.932413 161.796019 
L 106.316504 159.045376 
L 104.708853 152.925619 
L 102.382408 144.055219 
L 101.900444 135.184819 
L 106.316504 128.397588 
L 107.858339 126.314419 
L 111.409928 124.569089 
L 116.503352 121.426247 
L 121.596776 117.591422 
L 121.765854 117.444019 
L 126.6902 115.299527 
L 131.783624 112.531693 
L 136.877048 108.8099 
L 137.156719 108.573619 
L 141.970472 105.963502 
L 147.063896 101.490536 
L 148.674198 99.703219 
L 152.15732 96.547389 
L 156.134864 90.832819 
L 157.250744 89.166135 
L 160.866977 81.962419 
L 162.344168 77.406455 
L 163.78801 73.092019 
L 165.843015 64.221619 
L 167.054765 55.351219 
L 167.437591 51.719399 
L 168.574121 46.480819 
L 170.508974 37.610419 
L 172.531015 31.789824 
L 173.875056 28.740019 
L 176.853288 19.869619 
L 177.624439 15.951151 
L 179.86808 10.999219 
" style="fill:none;stroke:#bade28;stroke-width:1.5;"/>
   </g>
   <g id="LineCollection_19">
    <path clip-path="url(#pe383024130)" d="M 157.592049 277.111219 
L 157.250744 276.799525 
L 152.15732 271.454156 
L 149.74917 268.240819 
L 147.063896 263.849507 
L 145.13683 259.370419 
L 141.970472 250.682024 
L 141.912359 250.500019 
L 138.977572 241.629619 
L 136.877048 236.681525 
L 134.821314 232.759219 
L 133.04334 229.935528 
" style="fill:none;stroke:#dde318;stroke-width:1.5;"/>
    <path clip-path="url(#pe383024130)" d="M 123.35053 219.05401 
L 121.596776 217.483608 
L 117.616196 215.018419 
L 116.503352 214.215624 
L 111.409928 207.841385 
L 110.8212 206.148019 
L 109.507313 197.277619 
L 108.752299 188.407219 
L 108.029458 179.536819 
L 107.050426 170.666419 
L 106.316504 166.113767 
L 105.49425 161.796019 
L 103.034927 152.925619 
L 101.22308 146.520639 
L 100.419732 144.055219 
L 99.216174 135.184819 
L 101.22308 129.929199 
L 103.831046 126.314419 
L 106.316504 125.397903 
L 111.409928 123.090237 
L 116.503352 120.059387 
L 119.971112 117.444019 
L 121.596776 116.853106 
L 126.6902 114.584689 
L 131.783624 111.690919 
L 135.991964 108.573619 
L 136.877048 108.180086 
L 141.970472 105.274897 
L 147.063896 100.457734 
L 147.743684 99.703219 
L 152.15732 95.70431 
L 155.548051 90.832819 
L 157.250744 88.289669 
L 160.426995 81.962419 
L 162.344168 76.04946 
L 163.333887 73.092019 
L 165.559132 64.221619 
L 166.867724 55.351219 
L 167.437591 49.944964 
L 168.18915 46.480819 
L 170.252195 37.610419 
L 172.531015 31.050666 
L 173.549311 28.740019 
L 176.750673 19.869619 
L 177.624439 15.429732 
L 179.631833 10.999219 
" style="fill:none;stroke:#dde318;stroke-width:1.5;"/>
   </g>
   <g id="LineCollection_20">
    <path clip-path="url(#pe383024130)" d="M 155.921127 277.111219 
L 152.15732 273.14663 
L 148.480791 268.240819 
L 147.063896 265.923727 
L 144.244425 259.370419 
L 141.970472 253.130756 
L 141.130505 250.500019 
L 138.034149 241.629619 
L 136.877048 238.903897 
L 133.656538 232.759219 
L 131.783624 229.784748 
L 131.511708 229.466694 
" style="fill:none;stroke:#fde725;stroke-width:1.5;"/>
    <path clip-path="url(#pe383024130)" d="M 121.69053 219.115084 
L 121.596776 219.026684 
L 116.503352 215.784078 
L 115.333332 215.018419 
L 111.409928 210.354711 
L 109.947399 206.148019 
L 108.608335 197.277619 
L 107.778912 188.407219 
L 106.950807 179.536819 
L 106.316504 174.261512 
L 105.815322 170.666419 
L 104.047451 161.796019 
L 101.361001 152.925619 
L 101.22308 152.438059 
L 98.491564 144.055219 
L 96.518542 135.184819 
L 98.460863 126.314419 
L 101.22308 125.053904 
L 106.316504 123.518443 
L 111.409928 121.611385 
L 116.503352 118.692527 
L 118.158769 117.444019 
L 121.596776 116.194337 
L 126.6902 113.86985 
L 131.783624 110.850145 
L 134.856923 108.573619 
L 136.877048 107.675415 
L 141.970472 104.586292 
L 146.877444 99.703219 
L 147.063896 99.56436 
L 152.15732 94.861232 
L 154.961239 90.832819 
L 157.250744 87.413204 
L 159.987013 81.962419 
L 162.344168 74.692465 
L 162.879763 73.092019 
L 165.275249 64.221619 
L 166.680682 55.351219 
L 167.437591 48.170529 
L 167.80418 46.480819 
L 169.995416 37.610419 
L 172.531015 30.311508 
L 173.223566 28.740019 
L 176.648058 19.869619 
L 177.624439 14.908313 
L 179.395587 10.999219 
" style="fill:none;stroke:#fde725;stroke-width:1.5;"/>
   </g>
   <g id="LineCollection_21">
    <path clip-path="url(#pe383024130)" d="M 154.314366 277.111219 
L 152.15732 274.839105 
L 147.212411 268.240819 
L 147.063896 267.997946 
L 143.352021 259.370419 
L 141.970472 255.579488 
L 140.348651 250.500019 
L 137.090725 241.629619 
L 136.877048 241.12627 
L 132.491763 232.759219 
L 131.783624 231.634587 
L 126.6902 225.381037 
L 125.110938 223.888819 
L 122.397886 221.326393 
" style="fill:none;stroke:#440154;stroke-width:1.5;"/>
    <path clip-path="url(#pe383024130)" d="M 110.955183 211.56005 
L 109.073597 206.148019 
L 107.709357 197.277619 
L 106.805524 188.407219 
L 106.316504 183.533309 
L 105.867738 179.536819 
L 104.564726 170.666419 
L 102.600652 161.796019 
L 101.22308 157.278875 
L 99.800198 152.925619 
L 96.563395 144.055219 
L 96.129656 142.208993 
L 93.941103 135.184819 
L 92.536314 126.314419 
L 96.129656 123.909793 
L 101.22308 122.472552 
L 106.316504 121.638983 
L 111.409928 120.132534 
L 116.27179 117.444019 
L 116.503352 117.384768 
L 121.596776 115.535568 
L 126.6902 113.155012 
L 131.783624 110.009371 
L 133.721882 108.573619 
L 136.877048 107.170744 
L 141.970472 103.897687 
L 146.185469 99.703219 
L 147.063896 99.049015 
L 152.15732 94.018154 
L 154.374426 90.832819 
L 157.250744 86.536738 
L 159.547031 81.962419 
L 162.344168 73.335469 
L 162.425639 73.092019 
L 164.991366 64.221619 
L 166.493641 55.351219 
L 167.431424 46.480819 
L 167.437591 46.433805 
L 169.738636 37.610419 
L 172.531015 29.572349 
L 172.897821 28.740019 
L 176.545443 19.869619 
L 177.624439 14.386894 
L 179.15934 10.999219 
" style="fill:none;stroke:#440154;stroke-width:1.5;"/>
   </g>
   <g id="LineCollection_22">
    <path clip-path="url(#pe383024130)" d="M 76.707342 277.111219 
L 75.75596 275.806079 
L 70.662536 269.242201 
L 69.857907 268.240819 
L 65.569112 262.900098 
" style="fill:none;stroke:#440154;stroke-width:1.5;"/>
    <path clip-path="url(#pe383024130)" d="M 65.569112 90.631517 
L 70.662536 87.889257 
L 75.75596 82.345084 
L 76.129418 81.962419 
L 80.849384 81.049176 
L 85.942808 79.220197 
L 91.036232 76.779477 
L 96.129656 75.487185 
L 101.22308 75.38333 
L 106.316504 75.577343 
L 111.409928 76.084395 
L 116.503352 76.996044 
L 121.596776 77.965743 
L 126.6902 78.41481 
L 130.112643 77.761621 
" style="fill:none;stroke:#440154;stroke-width:1.5;"/>
    <path clip-path="url(#pe383024130)" d="M 143.244025 68.126175 
L 146.053117 64.221619 
L 147.063896 62.717201 
L 150.907981 55.351219 
L 152.15732 52.402181 
L 154.396801 46.480819 
L 156.80798 37.610419 
L 157.250744 36.969479 
L 162.344168 28.808239 
L 162.382969 28.740019 
L 167.437591 20.491173 
L 167.744957 19.869619 
L 172.046082 10.999219 
" style="fill:none;stroke:#440154;stroke-width:1.5;"/>
   </g>
   <g id="LineCollection_23">
    <path clip-path="url(#pe383024130)" d="M 65.569112 80.367085 
L 70.662536 77.721188 
L 75.388693 73.092019 
L 75.75596 73.031491 
L 80.849384 72.100384 
L 85.942808 69.921793 
L 90.981622 64.221619 
L 91.036232 64.205749 
L 96.129656 62.941861 
L 101.22308 59.971748 
L 105.865265 55.351219 
L 106.316504 55.211102 
L 108.970613 54.443026 
" style="fill:none;stroke:#440154;stroke-width:1.5;"/>
    <path clip-path="url(#pe383024130)" d="M 123.859523 45.705256 
L 126.6902 44.668434 
L 131.783624 40.666304 
L 134.406414 37.610419 
L 136.877048 35.845827 
L 141.915635 28.740019 
L 141.970472 28.708177 
L 147.063896 25.861089 
L 151.827614 19.869619 
L 152.15732 19.604451 
L 157.250744 14.417788 
L 159.53565 10.999219 
" style="fill:none;stroke:#440154;stroke-width:1.5;"/>
   </g>
   <g id="LineCollection_24">
    <path clip-path="url(#pe383024130)" d="M 65.569112 71.289291 
L 70.662536 69.108896 
L 75.75596 65.005337 
L 76.578402 64.221619 
L 80.849384 62.835973 
L 85.942808 60.242199 
L 90.781309 55.351219 
L 91.036232 55.220907 
L 96.129656 52.583991 
L 98.327137 50.523148 
" style="fill:none;stroke:#440154;stroke-width:1.5;"/>
    <path clip-path="url(#pe383024130)" d="M 114.225388 37.02707 
L 116.503352 35.55546 
L 121.596776 30.836113 
L 123.477976 28.740019 
L 126.6902 26.433649 
L 131.783624 21.691843 
L 133.486549 19.869619 
L 136.877048 17.973181 
L 141.970472 13.392257 
L 144.024237 10.999219 
" style="fill:none;stroke:#440154;stroke-width:1.5;"/>
   </g>
   <g id="LineCollection_25">
    <path clip-path="url(#pe383024130)" d="M 65.569112 60.063147 
L 70.662536 55.834673 
L 71.199132 55.351219 
L 75.75596 53.1128 
L 80.849384 49.408205 
L 83.827788 46.480819 
L 85.588195 45.353178 
" style="fill:none;stroke:#440154;stroke-width:1.5;"/>
    <path clip-path="url(#pe383024130)" d="M 102.618572 28.73011 
L 106.316504 24.694319 
L 110.027513 19.869619 
L 111.409928 18.729017 
L 116.503352 14.667642 
L 120.424076 10.999219 
" style="fill:none;stroke:#440154;stroke-width:1.5;"/>
   </g>
   <g id="LineCollection_26">
    <path clip-path="url(#pe383024130)" d="M 65.569112 41.689361 
L 69.571104 37.610419 
L 70.662536 36.785751 
L 71.650826 35.914263 
" style="fill:none;stroke:#450457;stroke-width:1.5;"/>
    <path clip-path="url(#pe383024130)" d="M 89.621398 15.452271 
L 91.036232 13.606596 
L 92.728036 10.999219 
" style="fill:none;stroke:#450457;stroke-width:1.5;"/>
   </g>
   <g id="LineCollection_27">
    <path clip-path="url(#pe383024130)" d="M 65.569112 15.80695 
L 69.153359 10.999219 
" style="fill:none;stroke:#482475;stroke-width:1.5;"/>
   </g>
   <g id="LineCollection_28"/>
   <g id="line2d_15">
    <path clip-path="url(#pe383024130)" d="M 405.683398 136.746368 
L 399.846743 132.5722 
L 385.445405 123.770763 
L 324.623927 98.420902 
L 259.554993 75.790884 
L 216.041849 61.778267 
L 187.348643 53.564263 
L 168.52951 48.947707 
L 156.224251 46.620867 
L 148.225364 45.748821 
L 143.045115 45.973064 
L 139.726517 46.856937 
L 137.621721 48.194405 
L 136.321199 49.796621 
L 135.54368 51.596452 
L 135.102125 53.608345 
L 134.883872 55.728395 
L 134.795498 58.046428 
L 134.791796 60.510399 
L 134.845127 63.067193 
L 134.927011 65.771041 
L 135.030175 68.559476 
L 135.160984 71.365161 
L 135.305289 74.172579 
L 135.467466 76.948172 
L 135.649016 79.656195 
L 135.827429 82.381514 
L 136.020573 85.017748 
L 136.231324 87.538998 
L 136.452798 89.978264 
L 136.688198 92.338527 
L 136.917535 94.741295 
L 137.137164 97.24807 
L 137.356631 99.812414 
L 137.581711 102.338401 
L 137.810358 104.78659 
L 138.041637 107.267187 
L 138.279735 109.721068 
L 138.519892 112.147387 
L 138.765738 114.503342 
L 139.012671 116.917838 
L 139.262568 119.271312 
L 139.508893 121.676768 
L 139.748593 124.209148 
L 139.993264 126.724047 
L 140.233727 129.173805 
L 140.479522 131.491811 
L 140.727674 133.808156 
L 140.981481 136.093446 
L 141.227911 138.385074 
L 141.253115 138.606767 
L 141.27849 138.825614 
L 141.304418 139.038077 
L 141.330693 139.244704 
L 141.357619 139.452959 
L 141.384595 139.658746 
L 141.410901 139.871242 
L 141.437454 140.082461 
L 141.464849 140.293741 
L 141.491915 140.50836 
L 141.518185 140.724719 
L 141.546002 140.932866 
L 141.572454 141.1481 
L 141.599685 141.352677 
L 141.626473 141.556541 
L 141.653433 141.763591 
L 141.679891 141.975414 
L 141.706033 142.188887 
L 141.73276 142.397366 
L 141.760573 142.595573 
L 141.788357 142.791527 
L 141.816161 142.991904 
L 141.844403 143.184053 
L 141.872915 143.376416 
L 141.902279 143.56225 
L 141.905171 143.580859 
L 141.907907 143.600824 
L 141.910581 143.620904 
L 141.913179 143.64179 
L 141.915743 143.662915 
L 141.918386 143.683331 
L 141.921043 143.703205 
L 141.923702 143.722957 
L 141.926321 143.743301 
L 141.928877 143.763714 
L 141.931412 143.784617 
L 141.933997 143.80452 
L 141.936747 143.823255 
L 141.939562 143.842561 
L 141.942332 143.861506 
L 141.945111 143.880735 
L 141.94796 143.898975 
L 141.950812 143.918245 
L 141.953682 143.937841 
L 141.956501 143.957168 
L 141.959221 143.976788 
L 141.962036 143.996401 
L 141.964845 144.016038 
L 141.967611 144.035881 
" style="fill:none;stroke:#1f77b4;stroke-linecap:square;stroke-width:1.5;"/>
    <defs>
     <path d="M 0 1.5 
C 0.397805 1.5 0.77937 1.341951 1.06066 1.06066 
C 1.341951 0.77937 1.5 0.397805 1.5 0 
C 1.5 -0.397805 1.341951 -0.77937 1.06066 -1.06066 
C 0.77937 -1.341951 0.397805 -1.5 0 -1.5 
C -0.397805 -1.5 -0.77937 -1.341951 -1.06066 -1.06066 
C -1.341951 -0.77937 -1.5 -0.397805 -1.5 0 
C -1.5 0.397805 -1.341951 0.77937 -1.06066 1.06066 
C -0.77937 1.341951 -0.397805 1.5 0 1.5 
z
" id="m2673c00f1f" style="stroke:#1f77b4;"/>
    </defs>
    <g clip-path="url(#pe383024130)">
     <use style="fill:#1f77b4;stroke:#1f77b4;" x="405.683398" xlink:href="#m2673c00f1f" y="136.746368"/>
     <use style="fill:#1f77b4;stroke:#1f77b4;" x="399.846743" xlink:href="#m2673c00f1f" y="132.5722"/>
     <use style="fill:#1f77b4;stroke:#1f77b4;" x="385.445405" xlink:href="#m2673c00f1f" y="123.770763"/>
     <use style="fill:#1f77b4;stroke:#1f77b4;" x="324.623927" xlink:href="#m2673c00f1f" y="98.420902"/>
     <use style="fill:#1f77b4;stroke:#1f77b4;" x="259.554993" xlink:href="#m2673c00f1f" y="75.790884"/>
     <use style="fill:#1f77b4;stroke:#1f77b4;" x="216.041849" xlink:href="#m2673c00f1f" y="61.778267"/>
     <use style="fill:#1f77b4;stroke:#1f77b4;" x="187.348643" xlink:href="#m2673c00f1f" y="53.564263"/>
     <use style="fill:#1f77b4;stroke:#1f77b4;" x="168.52951" xlink:href="#m2673c00f1f" y="48.947707"/>
     <use style="fill:#1f77b4;stroke:#1f77b4;" x="156.224251" xlink:href="#m2673c00f1f" y="46.620867"/>
     <use style="fill:#1f77b4;stroke:#1f77b4;" x="148.225364" xlink:href="#m2673c00f1f" y="45.748821"/>
     <use style="fill:#1f77b4;stroke:#1f77b4;" x="143.045115" xlink:href="#m2673c00f1f" y="45.973064"/>
     <use style="fill:#1f77b4;stroke:#1f77b4;" x="139.726517" xlink:href="#m2673c00f1f" y="46.856937"/>
     <use style="fill:#1f77b4;stroke:#1f77b4;" x="137.621721" xlink:href="#m2673c00f1f" y="48.194405"/>
     <use style="fill:#1f77b4;stroke:#1f77b4;" x="136.321199" xlink:href="#m2673c00f1f" y="49.796621"/>
     <use style="fill:#1f77b4;stroke:#1f77b4;" x="135.54368" xlink:href="#m2673c00f1f" y="51.596452"/>
     <use style="fill:#1f77b4;stroke:#1f77b4;" x="135.102125" xlink:href="#m2673c00f1f" y="53.608345"/>
     <use style="fill:#1f77b4;stroke:#1f77b4;" x="134.883872" xlink:href="#m2673c00f1f" y="55.728395"/>
     <use style="fill:#1f77b4;stroke:#1f77b4;" x="134.795498" xlink:href="#m2673c00f1f" y="58.046428"/>
     <use style="fill:#1f77b4;stroke:#1f77b4;" x="134.791796" xlink:href="#m2673c00f1f" y="60.510399"/>
     <use style="fill:#1f77b4;stroke:#1f77b4;" x="134.845127" xlink:href="#m2673c00f1f" y="63.067193"/>
     <use style="fill:#1f77b4;stroke:#1f77b4;" x="134.927011" xlink:href="#m2673c00f1f" y="65.771041"/>
     <use style="fill:#1f77b4;stroke:#1f77b4;" x="135.030175" xlink:href="#m2673c00f1f" y="68.559476"/>
     <use style="fill:#1f77b4;stroke:#1f77b4;" x="135.160984" xlink:href="#m2673c00f1f" y="71.365161"/>
     <use style="fill:#1f77b4;stroke:#1f77b4;" x="135.305289" xlink:href="#m2673c00f1f" y="74.172579"/>
     <use style="fill:#1f77b4;stroke:#1f77b4;" x="135.467466" xlink:href="#m2673c00f1f" y="76.948172"/>
     <use style="fill:#1f77b4;stroke:#1f77b4;" x="135.649016" xlink:href="#m2673c00f1f" y="79.656195"/>
     <use style="fill:#1f77b4;stroke:#1f77b4;" x="135.827429" xlink:href="#m2673c00f1f" y="82.381514"/>
     <use style="fill:#1f77b4;stroke:#1f77b4;" x="136.020573" xlink:href="#m2673c00f1f" y="85.017748"/>
     <use style="fill:#1f77b4;stroke:#1f77b4;" x="136.231324" xlink:href="#m2673c00f1f" y="87.538998"/>
     <use style="fill:#1f77b4;stroke:#1f77b4;" x="136.452798" xlink:href="#m2673c00f1f" y="89.978264"/>
     <use style="fill:#1f77b4;stroke:#1f77b4;" x="136.688198" xlink:href="#m2673c00f1f" y="92.338527"/>
     <use style="fill:#1f77b4;stroke:#1f77b4;" x="136.917535" xlink:href="#m2673c00f1f" y="94.741295"/>
     <use style="fill:#1f77b4;stroke:#1f77b4;" x="137.137164" xlink:href="#m2673c00f1f" y="97.24807"/>
     <use style="fill:#1f77b4;stroke:#1f77b4;" x="137.356631" xlink:href="#m2673c00f1f" y="99.812414"/>
     <use style="fill:#1f77b4;stroke:#1f77b4;" x="137.581711" xlink:href="#m2673c00f1f" y="102.338401"/>
     <use style="fill:#1f77b4;stroke:#1f77b4;" x="137.810358" xlink:href="#m2673c00f1f" y="104.78659"/>
     <use style="fill:#1f77b4;stroke:#1f77b4;" x="138.041637" xlink:href="#m2673c00f1f" y="107.267187"/>
     <use style="fill:#1f77b4;stroke:#1f77b4;" x="138.279735" xlink:href="#m2673c00f1f" y="109.721068"/>
     <use style="fill:#1f77b4;stroke:#1f77b4;" x="138.519892" xlink:href="#m2673c00f1f" y="112.147387"/>
     <use style="fill:#1f77b4;stroke:#1f77b4;" x="138.765738" xlink:href="#m2673c00f1f" y="114.503342"/>
     <use style="fill:#1f77b4;stroke:#1f77b4;" x="139.012671" xlink:href="#m2673c00f1f" y="116.917838"/>
     <use style="fill:#1f77b4;stroke:#1f77b4;" x="139.262568" xlink:href="#m2673c00f1f" y="119.271312"/>
     <use style="fill:#1f77b4;stroke:#1f77b4;" x="139.508893" xlink:href="#m2673c00f1f" y="121.676768"/>
     <use style="fill:#1f77b4;stroke:#1f77b4;" x="139.748593" xlink:href="#m2673c00f1f" y="124.209148"/>
     <use style="fill:#1f77b4;stroke:#1f77b4;" x="139.993264" xlink:href="#m2673c00f1f" y="126.724047"/>
     <use style="fill:#1f77b4;stroke:#1f77b4;" x="140.233727" xlink:href="#m2673c00f1f" y="129.173805"/>
     <use style="fill:#1f77b4;stroke:#1f77b4;" x="140.479522" xlink:href="#m2673c00f1f" y="131.491811"/>
     <use style="fill:#1f77b4;stroke:#1f77b4;" x="140.727674" xlink:href="#m2673c00f1f" y="133.808156"/>
     <use style="fill:#1f77b4;stroke:#1f77b4;" x="140.981481" xlink:href="#m2673c00f1f" y="136.093446"/>
     <use style="fill:#1f77b4;stroke:#1f77b4;" x="141.227911" xlink:href="#m2673c00f1f" y="138.385074"/>
     <use style="fill:#1f77b4;stroke:#1f77b4;" x="141.253115" xlink:href="#m2673c00f1f" y="138.606767"/>
     <use style="fill:#1f77b4;stroke:#1f77b4;" x="141.27849" xlink:href="#m2673c00f1f" y="138.825614"/>
     <use style="fill:#1f77b4;stroke:#1f77b4;" x="141.304418" xlink:href="#m2673c00f1f" y="139.038077"/>
     <use style="fill:#1f77b4;stroke:#1f77b4;" x="141.330693" xlink:href="#m2673c00f1f" y="139.244704"/>
     <use style="fill:#1f77b4;stroke:#1f77b4;" x="141.357619" xlink:href="#m2673c00f1f" y="139.452959"/>
     <use style="fill:#1f77b4;stroke:#1f77b4;" x="141.384595" xlink:href="#m2673c00f1f" y="139.658746"/>
     <use style="fill:#1f77b4;stroke:#1f77b4;" x="141.410901" xlink:href="#m2673c00f1f" y="139.871242"/>
     <use style="fill:#1f77b4;stroke:#1f77b4;" x="141.437454" xlink:href="#m2673c00f1f" y="140.082461"/>
     <use style="fill:#1f77b4;stroke:#1f77b4;" x="141.464849" xlink:href="#m2673c00f1f" y="140.293741"/>
     <use style="fill:#1f77b4;stroke:#1f77b4;" x="141.491915" xlink:href="#m2673c00f1f" y="140.50836"/>
     <use style="fill:#1f77b4;stroke:#1f77b4;" x="141.518185" xlink:href="#m2673c00f1f" y="140.724719"/>
     <use style="fill:#1f77b4;stroke:#1f77b4;" x="141.546002" xlink:href="#m2673c00f1f" y="140.932866"/>
     <use style="fill:#1f77b4;stroke:#1f77b4;" x="141.572454" xlink:href="#m2673c00f1f" y="141.1481"/>
     <use style="fill:#1f77b4;stroke:#1f77b4;" x="141.599685" xlink:href="#m2673c00f1f" y="141.352677"/>
     <use style="fill:#1f77b4;stroke:#1f77b4;" x="141.626473" xlink:href="#m2673c00f1f" y="141.556541"/>
     <use style="fill:#1f77b4;stroke:#1f77b4;" x="141.653433" xlink:href="#m2673c00f1f" y="141.763591"/>
     <use style="fill:#1f77b4;stroke:#1f77b4;" x="141.679891" xlink:href="#m2673c00f1f" y="141.975414"/>
     <use style="fill:#1f77b4;stroke:#1f77b4;" x="141.706033" xlink:href="#m2673c00f1f" y="142.188887"/>
     <use style="fill:#1f77b4;stroke:#1f77b4;" x="141.73276" xlink:href="#m2673c00f1f" y="142.397366"/>
     <use style="fill:#1f77b4;stroke:#1f77b4;" x="141.760573" xlink:href="#m2673c00f1f" y="142.595573"/>
     <use style="fill:#1f77b4;stroke:#1f77b4;" x="141.788357" xlink:href="#m2673c00f1f" y="142.791527"/>
     <use style="fill:#1f77b4;stroke:#1f77b4;" x="141.816161" xlink:href="#m2673c00f1f" y="142.991904"/>
     <use style="fill:#1f77b4;stroke:#1f77b4;" x="141.844403" xlink:href="#m2673c00f1f" y="143.184053"/>
     <use style="fill:#1f77b4;stroke:#1f77b4;" x="141.872915" xlink:href="#m2673c00f1f" y="143.376416"/>
     <use style="fill:#1f77b4;stroke:#1f77b4;" x="141.902279" xlink:href="#m2673c00f1f" y="143.56225"/>
     <use style="fill:#1f77b4;stroke:#1f77b4;" x="141.905171" xlink:href="#m2673c00f1f" y="143.580859"/>
     <use style="fill:#1f77b4;stroke:#1f77b4;" x="141.907907" xlink:href="#m2673c00f1f" y="143.600824"/>
     <use style="fill:#1f77b4;stroke:#1f77b4;" x="141.910581" xlink:href="#m2673c00f1f" y="143.620904"/>
     <use style="fill:#1f77b4;stroke:#1f77b4;" x="141.913179" xlink:href="#m2673c00f1f" y="143.64179"/>
     <use style="fill:#1f77b4;stroke:#1f77b4;" x="141.915743" xlink:href="#m2673c00f1f" y="143.662915"/>
     <use style="fill:#1f77b4;stroke:#1f77b4;" x="141.918386" xlink:href="#m2673c00f1f" y="143.683331"/>
     <use style="fill:#1f77b4;stroke:#1f77b4;" x="141.921043" xlink:href="#m2673c00f1f" y="143.703205"/>
     <use style="fill:#1f77b4;stroke:#1f77b4;" x="141.923702" xlink:href="#m2673c00f1f" y="143.722957"/>
     <use style="fill:#1f77b4;stroke:#1f77b4;" x="141.926321" xlink:href="#m2673c00f1f" y="143.743301"/>
     <use style="fill:#1f77b4;stroke:#1f77b4;" x="141.928877" xlink:href="#m2673c00f1f" y="143.763714"/>
     <use style="fill:#1f77b4;stroke:#1f77b4;" x="141.931412" xlink:href="#m2673c00f1f" y="143.784617"/>
     <use style="fill:#1f77b4;stroke:#1f77b4;" x="141.933997" xlink:href="#m2673c00f1f" y="143.80452"/>
     <use style="fill:#1f77b4;stroke:#1f77b4;" x="141.936747" xlink:href="#m2673c00f1f" y="143.823255"/>
     <use style="fill:#1f77b4;stroke:#1f77b4;" x="141.939562" xlink:href="#m2673c00f1f" y="143.842561"/>
     <use style="fill:#1f77b4;stroke:#1f77b4;" x="141.942332" xlink:href="#m2673c00f1f" y="143.861506"/>
     <use style="fill:#1f77b4;stroke:#1f77b4;" x="141.945111" xlink:href="#m2673c00f1f" y="143.880735"/>
     <use style="fill:#1f77b4;stroke:#1f77b4;" x="141.94796" xlink:href="#m2673c00f1f" y="143.898975"/>
     <use style="fill:#1f77b4;stroke:#1f77b4;" x="141.950812" xlink:href="#m2673c00f1f" y="143.918245"/>
     <use style="fill:#1f77b4;stroke:#1f77b4;" x="141.953682" xlink:href="#m2673c00f1f" y="143.937841"/>
     <use style="fill:#1f77b4;stroke:#1f77b4;" x="141.956501" xlink:href="#m2673c00f1f" y="143.957168"/>
     <use style="fill:#1f77b4;stroke:#1f77b4;" x="141.959221" xlink:href="#m2673c00f1f" y="143.976788"/>
     <use style="fill:#1f77b4;stroke:#1f77b4;" x="141.962036" xlink:href="#m2673c00f1f" y="143.996401"/>
     <use style="fill:#1f77b4;stroke:#1f77b4;" x="141.964845" xlink:href="#m2673c00f1f" y="144.016038"/>
     <use style="fill:#1f77b4;stroke:#1f77b4;" x="141.967611" xlink:href="#m2673c00f1f" y="144.035881"/>
    </g>
   </g>
   <g id="patch_3">
    <path d="M 65.569113 277.111219 
L 65.569113 10.999219 
" style="fill:none;stroke:#000000;stroke-linecap:square;stroke-linejoin:miter;stroke-width:0.8;"/>
   </g>
   <g id="patch_4">
    <path d="M 422.689113 277.111219 
L 422.689113 10.999219 
" style="fill:none;stroke:#000000;stroke-linecap:square;stroke-linejoin:miter;stroke-width:0.8;"/>
   </g>
   <g id="patch_5">
    <path d="M 65.569112 277.111219 
L 422.689112 277.111219 
" style="fill:none;stroke:#000000;stroke-linecap:square;stroke-linejoin:miter;stroke-width:0.8;"/>
   </g>
   <g id="patch_6">
    <path d="M 65.569112 10.999219 
L 422.689112 10.999219 
" style="fill:none;stroke:#000000;stroke-linecap:square;stroke-linejoin:miter;stroke-width:0.8;"/>
   </g>
   <g id="text_17">
    <g clip-path="url(#pe383024130)">
     <!-- 2.000 -->
     <g style="fill:#404688;" transform="translate(133.47359 141.666493)rotate(-2.81174)scale(0.06 -0.06)">
      <use xlink:href="#DejaVuSans-50"/>
      <use x="63.623047" xlink:href="#DejaVuSans-46"/>
      <use x="95.410156" xlink:href="#DejaVuSans-48"/>
      <use x="159.033203" xlink:href="#DejaVuSans-48"/>
      <use x="222.65625" xlink:href="#DejaVuSans-48"/>
     </g>
    </g>
   </g>
   <g id="text_18">
    <g clip-path="url(#pe383024130)">
     <!-- 2.500 -->
     <g style="fill:#39558c;" transform="translate(203.736749 250.976489)rotate(-275.413609)scale(0.06 -0.06)">
      <use xlink:href="#DejaVuSans-50"/>
      <use x="63.623047" xlink:href="#DejaVuSans-46"/>
      <use x="95.410156" xlink:href="#DejaVuSans-53"/>
      <use x="159.033203" xlink:href="#DejaVuSans-48"/>
      <use x="222.65625" xlink:href="#DejaVuSans-48"/>
     </g>
    </g>
   </g>
   <g id="text_19">
    <g clip-path="url(#pe383024130)">
     <!-- 2.500 -->
     <g style="fill:#39558c;" transform="translate(174.756359 223.752321)rotate(-82.17182)scale(0.06 -0.06)">
      <use xlink:href="#DejaVuSans-50"/>
      <use x="63.623047" xlink:href="#DejaVuSans-46"/>
      <use x="95.410156" xlink:href="#DejaVuSans-53"/>
      <use x="159.033203" xlink:href="#DejaVuSans-48"/>
      <use x="222.65625" xlink:href="#DejaVuSans-48"/>
     </g>
    </g>
   </g>
   <g id="text_20">
    <g clip-path="url(#pe383024130)">
     <!-- 3.000 -->
     <g style="fill:#33638d;" transform="translate(154.934852 248.729823)rotate(-337.412114)scale(0.06 -0.06)">
      <use xlink:href="#DejaVuSans-51"/>
      <use x="63.623047" xlink:href="#DejaVuSans-46"/>
      <use x="95.410156" xlink:href="#DejaVuSans-48"/>
      <use x="159.033203" xlink:href="#DejaVuSans-48"/>
      <use x="222.65625" xlink:href="#DejaVuSans-48"/>
     </g>
    </g>
   </g>
   <g id="text_21">
    <g clip-path="url(#pe383024130)">
     <!-- 3.500 -->
     <g style="fill:#2d718e;" transform="translate(146.618166 236.678179)rotate(-314.609929)scale(0.06 -0.06)">
      <use xlink:href="#DejaVuSans-51"/>
      <use x="63.623047" xlink:href="#DejaVuSans-46"/>
      <use x="95.410156" xlink:href="#DejaVuSans-53"/>
      <use x="159.033203" xlink:href="#DejaVuSans-48"/>
      <use x="222.65625" xlink:href="#DejaVuSans-48"/>
     </g>
    </g>
   </g>
   <g id="text_22">
    <g clip-path="url(#pe383024130)">
     <!-- 4.000 -->
     <g style="fill:#287d8e;" transform="translate(139.466725 117.832341)rotate(-18.793603)scale(0.06 -0.06)">
      <use xlink:href="#DejaVuSans-52"/>
      <use x="63.623047" xlink:href="#DejaVuSans-46"/>
      <use x="95.410156" xlink:href="#DejaVuSans-48"/>
      <use x="159.033203" xlink:href="#DejaVuSans-48"/>
      <use x="222.65625" xlink:href="#DejaVuSans-48"/>
     </g>
    </g>
   </g>
   <g id="text_23">
    <g clip-path="url(#pe383024130)">
     <!-- 4.500 -->
     <g style="fill:#238a8d;" transform="translate(139.549931 227.27687)rotate(-310.274273)scale(0.06 -0.06)">
      <use xlink:href="#DejaVuSans-52"/>
      <use x="63.623047" xlink:href="#DejaVuSans-46"/>
      <use x="95.410156" xlink:href="#DejaVuSans-53"/>
      <use x="159.033203" xlink:href="#DejaVuSans-48"/>
      <use x="222.65625" xlink:href="#DejaVuSans-48"/>
     </g>
    </g>
   </g>
   <g id="text_24">
    <g clip-path="url(#pe383024130)">
     <!-- 5.000 -->
     <g style="fill:#1f968b;" transform="translate(128.947671 120.011993)rotate(-14.053064)scale(0.06 -0.06)">
      <use xlink:href="#DejaVuSans-53"/>
      <use x="63.623047" xlink:href="#DejaVuSans-46"/>
      <use x="95.410156" xlink:href="#DejaVuSans-48"/>
      <use x="159.033203" xlink:href="#DejaVuSans-48"/>
      <use x="222.65625" xlink:href="#DejaVuSans-48"/>
     </g>
    </g>
   </g>
   <g id="text_25">
    <g clip-path="url(#pe383024130)">
     <!-- 5.500 -->
     <g style="fill:#20a386;" transform="translate(134.760088 224.185107)rotate(-314.613165)scale(0.06 -0.06)">
      <use xlink:href="#DejaVuSans-53"/>
      <use x="63.623047" xlink:href="#DejaVuSans-46"/>
      <use x="95.410156" xlink:href="#DejaVuSans-53"/>
      <use x="159.033203" xlink:href="#DejaVuSans-48"/>
      <use x="222.65625" xlink:href="#DejaVuSans-48"/>
     </g>
    </g>
   </g>
   <g id="text_26">
    <g clip-path="url(#pe383024130)">
     <!-- 6.000 -->
     <g style="fill:#29af7f;" transform="translate(139.492525 111.03367)rotate(-19.132907)scale(0.06 -0.06)">
      <use xlink:href="#DejaVuSans-54"/>
      <use x="63.623047" xlink:href="#DejaVuSans-46"/>
      <use x="95.410156" xlink:href="#DejaVuSans-48"/>
      <use x="159.033203" xlink:href="#DejaVuSans-48"/>
      <use x="222.65625" xlink:href="#DejaVuSans-48"/>
     </g>
    </g>
   </g>
   <g id="text_27">
    <g clip-path="url(#pe383024130)">
     <!-- 6.500 -->
     <g style="fill:#3dbc74;" transform="translate(134.27776 113.055445)rotate(-17.505106)scale(0.06 -0.06)">
      <use xlink:href="#DejaVuSans-54"/>
      <use x="63.623047" xlink:href="#DejaVuSans-46"/>
      <use x="95.410156" xlink:href="#DejaVuSans-53"/>
      <use x="159.033203" xlink:href="#DejaVuSans-48"/>
      <use x="222.65625" xlink:href="#DejaVuSans-48"/>
     </g>
    </g>
   </g>
   <g id="text_28">
    <g clip-path="url(#pe383024130)">
     <!-- 7.000 -->
     <g style="fill:#56c667;" transform="translate(134.247495 112.135165)rotate(-17.085654)scale(0.06 -0.06)">
      <use xlink:href="#DejaVuSans-55"/>
      <use x="63.623047" xlink:href="#DejaVuSans-46"/>
      <use x="95.410156" xlink:href="#DejaVuSans-48"/>
      <use x="159.033203" xlink:href="#DejaVuSans-48"/>
      <use x="222.65625" xlink:href="#DejaVuSans-48"/>
     </g>
    </g>
   </g>
   <g id="text_29">
    <g clip-path="url(#pe383024130)">
     <!-- 7.500 -->
     <g style="fill:#75d054;" transform="translate(139.757 252.201859)rotate(-315.746447)scale(0.06 -0.06)">
      <use xlink:href="#DejaVuSans-55"/>
      <use x="63.623047" xlink:href="#DejaVuSans-46"/>
      <use x="95.410156" xlink:href="#DejaVuSans-53"/>
      <use x="159.033203" xlink:href="#DejaVuSans-48"/>
      <use x="222.65625" xlink:href="#DejaVuSans-48"/>
     </g>
    </g>
   </g>
   <g id="text_30">
    <g clip-path="url(#pe383024130)">
     <!-- 8.000 -->
     <g style="fill:#95d840;" transform="translate(123.19483 221.107709)rotate(-330.548762)scale(0.06 -0.06)">
      <use xlink:href="#DejaVuSans-56"/>
      <use x="63.623047" xlink:href="#DejaVuSans-46"/>
      <use x="95.410156" xlink:href="#DejaVuSans-48"/>
      <use x="159.033203" xlink:href="#DejaVuSans-48"/>
      <use x="222.65625" xlink:href="#DejaVuSans-48"/>
     </g>
    </g>
   </g>
   <g id="text_31">
    <g clip-path="url(#pe383024130)">
     <!-- 8.500 -->
     <g style="fill:#bade28;" transform="translate(121.53208 221.362882)rotate(-332.303079)scale(0.06 -0.06)">
      <use xlink:href="#DejaVuSans-56"/>
      <use x="63.623047" xlink:href="#DejaVuSans-46"/>
      <use x="95.410156" xlink:href="#DejaVuSans-53"/>
      <use x="159.033203" xlink:href="#DejaVuSans-48"/>
      <use x="222.65625" xlink:href="#DejaVuSans-48"/>
     </g>
    </g>
   </g>
   <g id="text_32">
    <g clip-path="url(#pe383024130)">
     <!-- 9.000 -->
     <g style="fill:#dde318;" transform="translate(119.837655 221.773091)rotate(-335.090462)scale(0.06 -0.06)">
      <defs>
       <path d="M 10.984375 1.515625 
L 10.984375 10.5 
Q 14.703125 8.734375 18.5 7.8125 
Q 22.3125 6.890625 25.984375 6.890625 
Q 35.75 6.890625 40.890625 13.453125 
Q 46.046875 20.015625 46.78125 33.40625 
Q 43.953125 29.203125 39.59375 26.953125 
Q 35.25 24.703125 29.984375 24.703125 
Q 19.046875 24.703125 12.671875 31.3125 
Q 6.296875 37.9375 6.296875 49.421875 
Q 6.296875 60.640625 12.9375 67.421875 
Q 19.578125 74.21875 30.609375 74.21875 
Q 43.265625 74.21875 49.921875 64.515625 
Q 56.59375 54.828125 56.59375 36.375 
Q 56.59375 19.140625 48.40625 8.859375 
Q 40.234375 -1.421875 26.421875 -1.421875 
Q 22.703125 -1.421875 18.890625 -0.6875 
Q 15.09375 0.046875 10.984375 1.515625 
z
M 30.609375 32.421875 
Q 37.25 32.421875 41.125 36.953125 
Q 45.015625 41.5 45.015625 49.421875 
Q 45.015625 57.28125 41.125 61.84375 
Q 37.25 66.40625 30.609375 66.40625 
Q 23.96875 66.40625 20.09375 61.84375 
Q 16.21875 57.28125 16.21875 49.421875 
Q 16.21875 41.5 20.09375 36.953125 
Q 23.96875 32.421875 30.609375 32.421875 
z
" id="DejaVuSans-57"/>
      </defs>
      <use xlink:href="#DejaVuSans-57"/>
      <use x="63.623047" xlink:href="#DejaVuSans-46"/>
      <use x="95.410156" xlink:href="#DejaVuSans-48"/>
      <use x="159.033203" xlink:href="#DejaVuSans-48"/>
      <use x="222.65625" xlink:href="#DejaVuSans-48"/>
     </g>
    </g>
   </g>
   <g id="text_33">
    <g clip-path="url(#pe383024130)">
     <!-- 9.500 -->
     <g style="fill:#fde725;" transform="translate(118.180398 221.80797)rotate(-335.72715)scale(0.06 -0.06)">
      <use xlink:href="#DejaVuSans-57"/>
      <use x="63.623047" xlink:href="#DejaVuSans-46"/>
      <use x="95.410156" xlink:href="#DejaVuSans-53"/>
      <use x="159.033203" xlink:href="#DejaVuSans-48"/>
      <use x="222.65625" xlink:href="#DejaVuSans-48"/>
     </g>
    </g>
   </g>
   <g id="text_34">
    <g clip-path="url(#pe383024130)">
     <!-- 10.000 -->
     <g style="fill:#440154;" transform="translate(105.987953 215.632002)rotate(-342.728104)scale(0.06 -0.06)">
      <use xlink:href="#DejaVuSans-49"/>
      <use x="63.623047" xlink:href="#DejaVuSans-48"/>
      <use x="127.246094" xlink:href="#DejaVuSans-46"/>
      <use x="159.033203" xlink:href="#DejaVuSans-48"/>
      <use x="222.65625" xlink:href="#DejaVuSans-48"/>
      <use x="286.279297" xlink:href="#DejaVuSans-48"/>
     </g>
    </g>
   </g>
   <g id="text_35">
    <g clip-path="url(#pe383024130)">
     <!-- 100.000 -->
     <g style="fill:#440154;" transform="translate(125.534898 79.712187)rotate(-17.410797)scale(0.06 -0.06)">
      <use xlink:href="#DejaVuSans-49"/>
      <use x="63.623047" xlink:href="#DejaVuSans-48"/>
      <use x="127.246094" xlink:href="#DejaVuSans-48"/>
      <use x="190.869141" xlink:href="#DejaVuSans-46"/>
      <use x="222.65625" xlink:href="#DejaVuSans-48"/>
      <use x="286.279297" xlink:href="#DejaVuSans-48"/>
      <use x="349.902344" xlink:href="#DejaVuSans-48"/>
     </g>
    </g>
   </g>
   <g id="text_36">
    <g clip-path="url(#pe383024130)">
     <!-- 1000.000 -->
     <g style="fill:#440154;" transform="translate(103.163573 56.273077)rotate(-15.624843)scale(0.06 -0.06)">
      <use xlink:href="#DejaVuSans-49"/>
      <use x="63.623047" xlink:href="#DejaVuSans-48"/>
      <use x="127.246094" xlink:href="#DejaVuSans-48"/>
      <use x="190.869141" xlink:href="#DejaVuSans-48"/>
      <use x="254.492188" xlink:href="#DejaVuSans-46"/>
      <use x="286.279297" xlink:href="#DejaVuSans-48"/>
      <use x="349.902344" xlink:href="#DejaVuSans-48"/>
      <use x="413.525391" xlink:href="#DejaVuSans-48"/>
     </g>
    </g>
   </g>
   <g id="text_37">
    <g clip-path="url(#pe383024130)">
     <!-- 10000.000 -->
     <g style="fill:#440154;" transform="translate(91.625026 51.160273)rotate(-19.897461)scale(0.06 -0.06)">
      <use xlink:href="#DejaVuSans-49"/>
      <use x="63.623047" xlink:href="#DejaVuSans-48"/>
      <use x="127.246094" xlink:href="#DejaVuSans-48"/>
      <use x="190.869141" xlink:href="#DejaVuSans-48"/>
      <use x="254.492188" xlink:href="#DejaVuSans-48"/>
      <use x="318.115234" xlink:href="#DejaVuSans-46"/>
      <use x="349.902344" xlink:href="#DejaVuSans-48"/>
      <use x="413.525391" xlink:href="#DejaVuSans-48"/>
      <use x="477.148438" xlink:href="#DejaVuSans-48"/>
     </g>
    </g>
   </g>
   <g id="text_38">
    <g clip-path="url(#pe383024130)">
     <!-- 100000.000 -->
     <g style="fill:#440154;" transform="translate(78.125141 46.165151)rotate(-22.807014)scale(0.06 -0.06)">
      <use xlink:href="#DejaVuSans-49"/>
      <use x="63.623047" xlink:href="#DejaVuSans-48"/>
      <use x="127.246094" xlink:href="#DejaVuSans-48"/>
      <use x="190.869141" xlink:href="#DejaVuSans-48"/>
      <use x="254.492188" xlink:href="#DejaVuSans-48"/>
      <use x="318.115234" xlink:href="#DejaVuSans-48"/>
      <use x="381.738281" xlink:href="#DejaVuSans-46"/>
      <use x="413.525391" xlink:href="#DejaVuSans-48"/>
      <use x="477.148438" xlink:href="#DejaVuSans-48"/>
      <use x="540.771484" xlink:href="#DejaVuSans-48"/>
     </g>
    </g>
   </g>
   <g id="text_39">
    <g clip-path="url(#pe383024130)">
     <!-- 1000000.000 -->
     <g style="fill:#450457;" transform="translate(63.59244 37.055843)rotate(-26.166642)scale(0.06 -0.06)">
      <use xlink:href="#DejaVuSans-49"/>
      <use x="63.623047" xlink:href="#DejaVuSans-48"/>
      <use x="127.246094" xlink:href="#DejaVuSans-48"/>
      <use x="190.869141" xlink:href="#DejaVuSans-48"/>
      <use x="254.492188" xlink:href="#DejaVuSans-48"/>
      <use x="318.115234" xlink:href="#DejaVuSans-48"/>
      <use x="381.738281" xlink:href="#DejaVuSans-48"/>
      <use x="445.361328" xlink:href="#DejaVuSans-46"/>
      <use x="477.148438" xlink:href="#DejaVuSans-48"/>
      <use x="540.771484" xlink:href="#DejaVuSans-48"/>
      <use x="604.394531" xlink:href="#DejaVuSans-48"/>
     </g>
    </g>
   </g>
  </g>
 </g>
 <defs>
  <clipPath id="pe383024130">
   <rect height="266.112" width="357.12" x="65.569113" y="10.999219"/>
  </clipPath>
 </defs>
</svg>
