<?xml version="1.0" encoding="utf-8" standalone="no"?>
<!DOCTYPE svg PUBLIC "-//W3C//DTD SVG 1.1//EN"
  "http://www.w3.org/Graphics/SVG/1.1/DTD/svg11.dtd">
<!-- Created with matplotlib (https://matplotlib.org/) -->
<svg height="318.650596pt" version="1.1" viewBox="0 0 423.526612 318.650596" width="423.526612pt" xmlns="http://www.w3.org/2000/svg" xmlns:xlink="http://www.w3.org/1999/xlink">
 <metadata>
  <rdf:RDF xmlns:cc="http://creativecommons.org/ns#" xmlns:dc="http://purl.org/dc/elements/1.1/" xmlns:rdf="http://www.w3.org/1999/02/22-rdf-syntax-ns#">
   <cc:Work>
    <dc:type rdf:resource="http://purl.org/dc/dcmitype/StillImage"/>
    <dc:date>2021-09-17T20:09:07.228294</dc:date>
    <dc:format>image/svg+xml</dc:format>
    <dc:creator>
     <cc:Agent>
      <dc:title>Matplotlib v3.3.1, https://matplotlib.org/</dc:title>
     </cc:Agent>
    </dc:creator>
   </cc:Work>
  </rdf:RDF>
 </metadata>
 <defs>
  <style type="text/css">*{stroke-linecap:butt;stroke-linejoin:round;}</style>
 </defs>
 <g id="figure_1">
  <g id="patch_1">
   <path d="M 0 318.650596 
L 423.526612 318.650596 
L 423.526612 0 
L 0 0 
z
" style="fill:#ffffff;"/>
  </g>
  <g id="axes_1">
   <g id="patch_2">
    <path d="M 59.206613 274.048671 
L 416.326613 274.048671 
L 416.326613 7.936671 
L 59.206613 7.936671 
z
" style="fill:#ffffff;"/>
   </g>
   <g id="matplotlib.axis_1">
    <g id="xtick_1">
     <g id="line2d_1">
      <defs>
       <path d="M 0 0 
L 0 3.5 
" id="m9ba517f183" style="stroke:#000000;stroke-width:0.8;"/>
      </defs>
      <g>
       <use style="stroke:#000000;stroke-width:0.8;" x="59.206613" xlink:href="#m9ba517f183" y="274.048671"/>
      </g>
     </g>
     <g id="text_1">
      <!-- −5 -->
      <g transform="translate(51.835519 288.647108)scale(0.1 -0.1)">
       <defs>
        <path d="M 10.59375 35.5 
L 73.1875 35.5 
L 73.1875 27.203125 
L 10.59375 27.203125 
z
" id="DejaVuSans-8722"/>
        <path d="M 10.796875 72.90625 
L 49.515625 72.90625 
L 49.515625 64.59375 
L 19.828125 64.59375 
L 19.828125 46.734375 
Q 21.96875 47.46875 24.109375 47.828125 
Q 26.265625 48.1875 28.421875 48.1875 
Q 40.625 48.1875 47.75 41.5 
Q 54.890625 34.8125 54.890625 23.390625 
Q 54.890625 11.625 47.5625 5.09375 
Q 40.234375 -1.421875 26.90625 -1.421875 
Q 22.3125 -1.421875 17.546875 -0.640625 
Q 12.796875 0.140625 7.71875 1.703125 
L 7.71875 11.625 
Q 12.109375 9.234375 16.796875 8.0625 
Q 21.484375 6.890625 26.703125 6.890625 
Q 35.15625 6.890625 40.078125 11.328125 
Q 45.015625 15.765625 45.015625 23.390625 
Q 45.015625 31 40.078125 35.4375 
Q 35.15625 39.890625 26.703125 39.890625 
Q 22.75 39.890625 18.8125 39.015625 
Q 14.890625 38.140625 10.796875 36.28125 
z
" id="DejaVuSans-53"/>
       </defs>
       <use xlink:href="#DejaVuSans-8722"/>
       <use x="83.789062" xlink:href="#DejaVuSans-53"/>
      </g>
     </g>
    </g>
    <g id="xtick_2">
     <g id="line2d_2">
      <g>
       <use style="stroke:#000000;stroke-width:0.8;" x="123.118112" xlink:href="#m9ba517f183" y="274.048671"/>
      </g>
     </g>
     <g id="text_2">
      <!-- 0 -->
      <g transform="translate(119.936862 288.647108)scale(0.1 -0.1)">
       <defs>
        <path d="M 31.78125 66.40625 
Q 24.171875 66.40625 20.328125 58.90625 
Q 16.5 51.421875 16.5 36.375 
Q 16.5 21.390625 20.328125 13.890625 
Q 24.171875 6.390625 31.78125 6.390625 
Q 39.453125 6.390625 43.28125 13.890625 
Q 47.125 21.390625 47.125 36.375 
Q 47.125 51.421875 43.28125 58.90625 
Q 39.453125 66.40625 31.78125 66.40625 
z
M 31.78125 74.21875 
Q 44.046875 74.21875 50.515625 64.515625 
Q 56.984375 54.828125 56.984375 36.375 
Q 56.984375 17.96875 50.515625 8.265625 
Q 44.046875 -1.421875 31.78125 -1.421875 
Q 19.53125 -1.421875 13.0625 8.265625 
Q 6.59375 17.96875 6.59375 36.375 
Q 6.59375 54.828125 13.0625 64.515625 
Q 19.53125 74.21875 31.78125 74.21875 
z
" id="DejaVuSans-48"/>
       </defs>
       <use xlink:href="#DejaVuSans-48"/>
      </g>
     </g>
    </g>
    <g id="xtick_3">
     <g id="line2d_3">
      <g>
       <use style="stroke:#000000;stroke-width:0.8;" x="187.029612" xlink:href="#m9ba517f183" y="274.048671"/>
      </g>
     </g>
     <g id="text_3">
      <!-- 5 -->
      <g transform="translate(183.848362 288.647108)scale(0.1 -0.1)">
       <use xlink:href="#DejaVuSans-53"/>
      </g>
     </g>
    </g>
    <g id="xtick_4">
     <g id="line2d_4">
      <g>
       <use style="stroke:#000000;stroke-width:0.8;" x="250.941111" xlink:href="#m9ba517f183" y="274.048671"/>
      </g>
     </g>
     <g id="text_4">
      <!-- 10 -->
      <g transform="translate(244.578611 288.647108)scale(0.1 -0.1)">
       <defs>
        <path d="M 12.40625 8.296875 
L 28.515625 8.296875 
L 28.515625 63.921875 
L 10.984375 60.40625 
L 10.984375 69.390625 
L 28.421875 72.90625 
L 38.28125 72.90625 
L 38.28125 8.296875 
L 54.390625 8.296875 
L 54.390625 0 
L 12.40625 0 
z
" id="DejaVuSans-49"/>
       </defs>
       <use xlink:href="#DejaVuSans-49"/>
       <use x="63.623047" xlink:href="#DejaVuSans-48"/>
      </g>
     </g>
    </g>
    <g id="xtick_5">
     <g id="line2d_5">
      <g>
       <use style="stroke:#000000;stroke-width:0.8;" x="314.852611" xlink:href="#m9ba517f183" y="274.048671"/>
      </g>
     </g>
     <g id="text_5">
      <!-- 15 -->
      <g transform="translate(308.490111 288.647108)scale(0.1 -0.1)">
       <use xlink:href="#DejaVuSans-49"/>
       <use x="63.623047" xlink:href="#DejaVuSans-53"/>
      </g>
     </g>
    </g>
    <g id="xtick_6">
     <g id="line2d_6">
      <g>
       <use style="stroke:#000000;stroke-width:0.8;" x="378.76411" xlink:href="#m9ba517f183" y="274.048671"/>
      </g>
     </g>
     <g id="text_6">
      <!-- 20 -->
      <g transform="translate(372.40161 288.647108)scale(0.1 -0.1)">
       <defs>
        <path d="M 19.1875 8.296875 
L 53.609375 8.296875 
L 53.609375 0 
L 7.328125 0 
L 7.328125 8.296875 
Q 12.9375 14.109375 22.625 23.890625 
Q 32.328125 33.6875 34.8125 36.53125 
Q 39.546875 41.84375 41.421875 45.53125 
Q 43.3125 49.21875 43.3125 52.78125 
Q 43.3125 58.59375 39.234375 62.25 
Q 35.15625 65.921875 28.609375 65.921875 
Q 23.96875 65.921875 18.8125 64.3125 
Q 13.671875 62.703125 7.8125 59.421875 
L 7.8125 69.390625 
Q 13.765625 71.78125 18.9375 73 
Q 24.125 74.21875 28.421875 74.21875 
Q 39.75 74.21875 46.484375 68.546875 
Q 53.21875 62.890625 53.21875 53.421875 
Q 53.21875 48.921875 51.53125 44.890625 
Q 49.859375 40.875 45.40625 35.40625 
Q 44.1875 33.984375 37.640625 27.21875 
Q 31.109375 20.453125 19.1875 8.296875 
z
" id="DejaVuSans-50"/>
       </defs>
       <use xlink:href="#DejaVuSans-50"/>
       <use x="63.623047" xlink:href="#DejaVuSans-48"/>
      </g>
     </g>
    </g>
    <g id="text_7">
     <!-- 1st PC: 85.66 % -->
     <g transform="translate(169.046213 307.856896)scale(0.1728 -0.1728)">
      <defs>
       <path d="M 44.28125 53.078125 
L 44.28125 44.578125 
Q 40.484375 46.53125 36.375 47.5 
Q 32.28125 48.484375 27.875 48.484375 
Q 21.1875 48.484375 17.84375 46.4375 
Q 14.5 44.390625 14.5 40.28125 
Q 14.5 37.15625 16.890625 35.375 
Q 19.28125 33.59375 26.515625 31.984375 
L 29.59375 31.296875 
Q 39.15625 29.25 43.1875 25.515625 
Q 47.21875 21.78125 47.21875 15.09375 
Q 47.21875 7.46875 41.1875 3.015625 
Q 35.15625 -1.421875 24.609375 -1.421875 
Q 20.21875 -1.421875 15.453125 -0.5625 
Q 10.6875 0.296875 5.421875 2 
L 5.421875 11.28125 
Q 10.40625 8.6875 15.234375 7.390625 
Q 20.0625 6.109375 24.8125 6.109375 
Q 31.15625 6.109375 34.5625 8.28125 
Q 37.984375 10.453125 37.984375 14.40625 
Q 37.984375 18.0625 35.515625 20.015625 
Q 33.0625 21.96875 24.703125 23.78125 
L 21.578125 24.515625 
Q 13.234375 26.265625 9.515625 29.90625 
Q 5.8125 33.546875 5.8125 39.890625 
Q 5.8125 47.609375 11.28125 51.796875 
Q 16.75 56 26.8125 56 
Q 31.78125 56 36.171875 55.265625 
Q 40.578125 54.546875 44.28125 53.078125 
z
" id="DejaVuSans-115"/>
       <path d="M 18.3125 70.21875 
L 18.3125 54.6875 
L 36.8125 54.6875 
L 36.8125 47.703125 
L 18.3125 47.703125 
L 18.3125 18.015625 
Q 18.3125 11.328125 20.140625 9.421875 
Q 21.96875 7.515625 27.59375 7.515625 
L 36.8125 7.515625 
L 36.8125 0 
L 27.59375 0 
Q 17.1875 0 13.234375 3.875 
Q 9.28125 7.765625 9.28125 18.015625 
L 9.28125 47.703125 
L 2.6875 47.703125 
L 2.6875 54.6875 
L 9.28125 54.6875 
L 9.28125 70.21875 
z
" id="DejaVuSans-116"/>
       <path id="DejaVuSans-32"/>
       <path d="M 19.671875 64.796875 
L 19.671875 37.40625 
L 32.078125 37.40625 
Q 38.96875 37.40625 42.71875 40.96875 
Q 46.484375 44.53125 46.484375 51.125 
Q 46.484375 57.671875 42.71875 61.234375 
Q 38.96875 64.796875 32.078125 64.796875 
z
M 9.8125 72.90625 
L 32.078125 72.90625 
Q 44.34375 72.90625 50.609375 67.359375 
Q 56.890625 61.8125 56.890625 51.125 
Q 56.890625 40.328125 50.609375 34.8125 
Q 44.34375 29.296875 32.078125 29.296875 
L 19.671875 29.296875 
L 19.671875 0 
L 9.8125 0 
z
" id="DejaVuSans-80"/>
       <path d="M 64.40625 67.28125 
L 64.40625 56.890625 
Q 59.421875 61.53125 53.78125 63.8125 
Q 48.140625 66.109375 41.796875 66.109375 
Q 29.296875 66.109375 22.65625 58.46875 
Q 16.015625 50.828125 16.015625 36.375 
Q 16.015625 21.96875 22.65625 14.328125 
Q 29.296875 6.6875 41.796875 6.6875 
Q 48.140625 6.6875 53.78125 8.984375 
Q 59.421875 11.28125 64.40625 15.921875 
L 64.40625 5.609375 
Q 59.234375 2.09375 53.4375 0.328125 
Q 47.65625 -1.421875 41.21875 -1.421875 
Q 24.65625 -1.421875 15.125 8.703125 
Q 5.609375 18.84375 5.609375 36.375 
Q 5.609375 53.953125 15.125 64.078125 
Q 24.65625 74.21875 41.21875 74.21875 
Q 47.75 74.21875 53.53125 72.484375 
Q 59.328125 70.75 64.40625 67.28125 
z
" id="DejaVuSans-67"/>
       <path d="M 11.71875 12.40625 
L 22.015625 12.40625 
L 22.015625 0 
L 11.71875 0 
z
M 11.71875 51.703125 
L 22.015625 51.703125 
L 22.015625 39.3125 
L 11.71875 39.3125 
z
" id="DejaVuSans-58"/>
       <path d="M 31.78125 34.625 
Q 24.75 34.625 20.71875 30.859375 
Q 16.703125 27.09375 16.703125 20.515625 
Q 16.703125 13.921875 20.71875 10.15625 
Q 24.75 6.390625 31.78125 6.390625 
Q 38.8125 6.390625 42.859375 10.171875 
Q 46.921875 13.96875 46.921875 20.515625 
Q 46.921875 27.09375 42.890625 30.859375 
Q 38.875 34.625 31.78125 34.625 
z
M 21.921875 38.8125 
Q 15.578125 40.375 12.03125 44.71875 
Q 8.5 49.078125 8.5 55.328125 
Q 8.5 64.0625 14.71875 69.140625 
Q 20.953125 74.21875 31.78125 74.21875 
Q 42.671875 74.21875 48.875 69.140625 
Q 55.078125 64.0625 55.078125 55.328125 
Q 55.078125 49.078125 51.53125 44.71875 
Q 48 40.375 41.703125 38.8125 
Q 48.828125 37.15625 52.796875 32.3125 
Q 56.78125 27.484375 56.78125 20.515625 
Q 56.78125 9.90625 50.3125 4.234375 
Q 43.84375 -1.421875 31.78125 -1.421875 
Q 19.734375 -1.421875 13.25 4.234375 
Q 6.78125 9.90625 6.78125 20.515625 
Q 6.78125 27.484375 10.78125 32.3125 
Q 14.796875 37.15625 21.921875 38.8125 
z
M 18.3125 54.390625 
Q 18.3125 48.734375 21.84375 45.5625 
Q 25.390625 42.390625 31.78125 42.390625 
Q 38.140625 42.390625 41.71875 45.5625 
Q 45.3125 48.734375 45.3125 54.390625 
Q 45.3125 60.0625 41.71875 63.234375 
Q 38.140625 66.40625 31.78125 66.40625 
Q 25.390625 66.40625 21.84375 63.234375 
Q 18.3125 60.0625 18.3125 54.390625 
z
" id="DejaVuSans-56"/>
       <path d="M 10.6875 12.40625 
L 21 12.40625 
L 21 0 
L 10.6875 0 
z
" id="DejaVuSans-46"/>
       <path d="M 33.015625 40.375 
Q 26.375 40.375 22.484375 35.828125 
Q 18.609375 31.296875 18.609375 23.390625 
Q 18.609375 15.53125 22.484375 10.953125 
Q 26.375 6.390625 33.015625 6.390625 
Q 39.65625 6.390625 43.53125 10.953125 
Q 47.40625 15.53125 47.40625 23.390625 
Q 47.40625 31.296875 43.53125 35.828125 
Q 39.65625 40.375 33.015625 40.375 
z
M 52.59375 71.296875 
L 52.59375 62.3125 
Q 48.875 64.0625 45.09375 64.984375 
Q 41.3125 65.921875 37.59375 65.921875 
Q 27.828125 65.921875 22.671875 59.328125 
Q 17.53125 52.734375 16.796875 39.40625 
Q 19.671875 43.65625 24.015625 45.921875 
Q 28.375 48.1875 33.59375 48.1875 
Q 44.578125 48.1875 50.953125 41.515625 
Q 57.328125 34.859375 57.328125 23.390625 
Q 57.328125 12.15625 50.6875 5.359375 
Q 44.046875 -1.421875 33.015625 -1.421875 
Q 20.359375 -1.421875 13.671875 8.265625 
Q 6.984375 17.96875 6.984375 36.375 
Q 6.984375 53.65625 15.1875 63.9375 
Q 23.390625 74.21875 37.203125 74.21875 
Q 40.921875 74.21875 44.703125 73.484375 
Q 48.484375 72.75 52.59375 71.296875 
z
" id="DejaVuSans-54"/>
       <path d="M 72.703125 32.078125 
Q 68.453125 32.078125 66.03125 28.46875 
Q 63.625 24.859375 63.625 18.40625 
Q 63.625 12.0625 66.03125 8.421875 
Q 68.453125 4.78125 72.703125 4.78125 
Q 76.859375 4.78125 79.265625 8.421875 
Q 81.6875 12.0625 81.6875 18.40625 
Q 81.6875 24.8125 79.265625 28.4375 
Q 76.859375 32.078125 72.703125 32.078125 
z
M 72.703125 38.28125 
Q 80.421875 38.28125 84.953125 32.90625 
Q 89.5 27.546875 89.5 18.40625 
Q 89.5 9.28125 84.9375 3.921875 
Q 80.375 -1.421875 72.703125 -1.421875 
Q 64.890625 -1.421875 60.34375 3.921875 
Q 55.8125 9.28125 55.8125 18.40625 
Q 55.8125 27.59375 60.375 32.9375 
Q 64.9375 38.28125 72.703125 38.28125 
z
M 22.3125 68.015625 
Q 18.109375 68.015625 15.6875 64.375 
Q 13.28125 60.75 13.28125 54.390625 
Q 13.28125 47.953125 15.671875 44.328125 
Q 18.0625 40.71875 22.3125 40.71875 
Q 26.5625 40.71875 28.96875 44.328125 
Q 31.390625 47.953125 31.390625 54.390625 
Q 31.390625 60.6875 28.953125 64.34375 
Q 26.515625 68.015625 22.3125 68.015625 
z
M 66.40625 74.21875 
L 74.21875 74.21875 
L 28.609375 -1.421875 
L 20.796875 -1.421875 
z
M 22.3125 74.21875 
Q 30.03125 74.21875 34.609375 68.875 
Q 39.203125 63.53125 39.203125 54.390625 
Q 39.203125 45.171875 34.640625 39.84375 
Q 30.078125 34.515625 22.3125 34.515625 
Q 14.546875 34.515625 10.03125 39.859375 
Q 5.515625 45.21875 5.515625 54.390625 
Q 5.515625 63.484375 10.046875 68.84375 
Q 14.59375 74.21875 22.3125 74.21875 
z
" id="DejaVuSans-37"/>
      </defs>
      <use xlink:href="#DejaVuSans-49"/>
      <use x="63.623047" xlink:href="#DejaVuSans-115"/>
      <use x="115.722656" xlink:href="#DejaVuSans-116"/>
      <use x="154.931641" xlink:href="#DejaVuSans-32"/>
      <use x="186.71875" xlink:href="#DejaVuSans-80"/>
      <use x="247.021484" xlink:href="#DejaVuSans-67"/>
      <use x="316.845703" xlink:href="#DejaVuSans-58"/>
      <use x="350.537109" xlink:href="#DejaVuSans-32"/>
      <use x="382.324219" xlink:href="#DejaVuSans-56"/>
      <use x="445.947266" xlink:href="#DejaVuSans-53"/>
      <use x="509.570312" xlink:href="#DejaVuSans-46"/>
      <use x="541.357422" xlink:href="#DejaVuSans-54"/>
      <use x="604.980469" xlink:href="#DejaVuSans-54"/>
      <use x="668.603516" xlink:href="#DejaVuSans-32"/>
      <use x="700.390625" xlink:href="#DejaVuSans-37"/>
     </g>
    </g>
   </g>
   <g id="matplotlib.axis_2">
    <g id="ytick_1">
     <g id="line2d_7">
      <defs>
       <path d="M 0 0 
L -3.5 0 
" id="m96f4bfd00b" style="stroke:#000000;stroke-width:0.8;"/>
      </defs>
      <g>
       <use style="stroke:#000000;stroke-width:0.8;" x="59.206613" xlink:href="#m96f4bfd00b" y="274.048671"/>
      </g>
     </g>
     <g id="text_8">
      <!-- −5.0 -->
      <g transform="translate(27.9238 277.84789)scale(0.1 -0.1)">
       <use xlink:href="#DejaVuSans-8722"/>
       <use x="83.789062" xlink:href="#DejaVuSans-53"/>
       <use x="147.412109" xlink:href="#DejaVuSans-46"/>
       <use x="179.199219" xlink:href="#DejaVuSans-48"/>
      </g>
     </g>
    </g>
    <g id="ytick_2">
     <g id="line2d_8">
      <g>
       <use style="stroke:#000000;stroke-width:0.8;" x="59.206613" xlink:href="#m96f4bfd00b" y="241.167489"/>
      </g>
     </g>
     <g id="text_9">
      <!-- −2.5 -->
      <g transform="translate(27.9238 244.966708)scale(0.1 -0.1)">
       <use xlink:href="#DejaVuSans-8722"/>
       <use x="83.789062" xlink:href="#DejaVuSans-50"/>
       <use x="147.412109" xlink:href="#DejaVuSans-46"/>
       <use x="179.199219" xlink:href="#DejaVuSans-53"/>
      </g>
     </g>
    </g>
    <g id="ytick_3">
     <g id="line2d_9">
      <g>
       <use style="stroke:#000000;stroke-width:0.8;" x="59.206613" xlink:href="#m96f4bfd00b" y="208.286308"/>
      </g>
     </g>
     <g id="text_10">
      <!-- 0.0 -->
      <g transform="translate(36.303488 212.085527)scale(0.1 -0.1)">
       <use xlink:href="#DejaVuSans-48"/>
       <use x="63.623047" xlink:href="#DejaVuSans-46"/>
       <use x="95.410156" xlink:href="#DejaVuSans-48"/>
      </g>
     </g>
    </g>
    <g id="ytick_4">
     <g id="line2d_10">
      <g>
       <use style="stroke:#000000;stroke-width:0.8;" x="59.206613" xlink:href="#m96f4bfd00b" y="175.405126"/>
      </g>
     </g>
     <g id="text_11">
      <!-- 2.5 -->
      <g transform="translate(36.303488 179.204345)scale(0.1 -0.1)">
       <use xlink:href="#DejaVuSans-50"/>
       <use x="63.623047" xlink:href="#DejaVuSans-46"/>
       <use x="95.410156" xlink:href="#DejaVuSans-53"/>
      </g>
     </g>
    </g>
    <g id="ytick_5">
     <g id="line2d_11">
      <g>
       <use style="stroke:#000000;stroke-width:0.8;" x="59.206613" xlink:href="#m96f4bfd00b" y="142.523945"/>
      </g>
     </g>
     <g id="text_12">
      <!-- 5.0 -->
      <g transform="translate(36.303488 146.323164)scale(0.1 -0.1)">
       <use xlink:href="#DejaVuSans-53"/>
       <use x="63.623047" xlink:href="#DejaVuSans-46"/>
       <use x="95.410156" xlink:href="#DejaVuSans-48"/>
      </g>
     </g>
    </g>
    <g id="ytick_6">
     <g id="line2d_12">
      <g>
       <use style="stroke:#000000;stroke-width:0.8;" x="59.206613" xlink:href="#m96f4bfd00b" y="109.642763"/>
      </g>
     </g>
     <g id="text_13">
      <!-- 7.5 -->
      <g transform="translate(36.303488 113.441982)scale(0.1 -0.1)">
       <defs>
        <path d="M 8.203125 72.90625 
L 55.078125 72.90625 
L 55.078125 68.703125 
L 28.609375 0 
L 18.3125 0 
L 43.21875 64.59375 
L 8.203125 64.59375 
z
" id="DejaVuSans-55"/>
       </defs>
       <use xlink:href="#DejaVuSans-55"/>
       <use x="63.623047" xlink:href="#DejaVuSans-46"/>
       <use x="95.410156" xlink:href="#DejaVuSans-53"/>
      </g>
     </g>
    </g>
    <g id="ytick_7">
     <g id="line2d_13">
      <g>
       <use style="stroke:#000000;stroke-width:0.8;" x="59.206613" xlink:href="#m96f4bfd00b" y="76.761582"/>
      </g>
     </g>
     <g id="text_14">
      <!-- 10.0 -->
      <g transform="translate(29.940988 80.560801)scale(0.1 -0.1)">
       <use xlink:href="#DejaVuSans-49"/>
       <use x="63.623047" xlink:href="#DejaVuSans-48"/>
       <use x="127.246094" xlink:href="#DejaVuSans-46"/>
       <use x="159.033203" xlink:href="#DejaVuSans-48"/>
      </g>
     </g>
    </g>
    <g id="ytick_8">
     <g id="line2d_14">
      <g>
       <use style="stroke:#000000;stroke-width:0.8;" x="59.206613" xlink:href="#m96f4bfd00b" y="43.8804"/>
      </g>
     </g>
     <g id="text_15">
      <!-- 12.5 -->
      <g transform="translate(29.940988 47.679619)scale(0.1 -0.1)">
       <use xlink:href="#DejaVuSans-49"/>
       <use x="63.623047" xlink:href="#DejaVuSans-50"/>
       <use x="127.246094" xlink:href="#DejaVuSans-46"/>
       <use x="159.033203" xlink:href="#DejaVuSans-53"/>
      </g>
     </g>
    </g>
    <g id="ytick_9">
     <g id="line2d_15">
      <g>
       <use style="stroke:#000000;stroke-width:0.8;" x="59.206613" xlink:href="#m96f4bfd00b" y="10.999219"/>
      </g>
     </g>
     <g id="text_16">
      <!-- 15.0 -->
      <g transform="translate(29.940988 14.798437)scale(0.1 -0.1)">
       <use xlink:href="#DejaVuSans-49"/>
       <use x="63.623047" xlink:href="#DejaVuSans-53"/>
       <use x="127.246094" xlink:href="#DejaVuSans-46"/>
       <use x="159.033203" xlink:href="#DejaVuSans-48"/>
      </g>
     </g>
    </g>
    <g id="text_17">
     <!-- 2nd PC: 9.18 % -->
     <g transform="translate(20.3301 207.288471)rotate(-90)scale(0.1728 -0.1728)">
      <defs>
       <path d="M 54.890625 33.015625 
L 54.890625 0 
L 45.90625 0 
L 45.90625 32.71875 
Q 45.90625 40.484375 42.875 44.328125 
Q 39.84375 48.1875 33.796875 48.1875 
Q 26.515625 48.1875 22.3125 43.546875 
Q 18.109375 38.921875 18.109375 30.90625 
L 18.109375 0 
L 9.078125 0 
L 9.078125 54.6875 
L 18.109375 54.6875 
L 18.109375 46.1875 
Q 21.34375 51.125 25.703125 53.5625 
Q 30.078125 56 35.796875 56 
Q 45.21875 56 50.046875 50.171875 
Q 54.890625 44.34375 54.890625 33.015625 
z
" id="DejaVuSans-110"/>
       <path d="M 45.40625 46.390625 
L 45.40625 75.984375 
L 54.390625 75.984375 
L 54.390625 0 
L 45.40625 0 
L 45.40625 8.203125 
Q 42.578125 3.328125 38.25 0.953125 
Q 33.9375 -1.421875 27.875 -1.421875 
Q 17.96875 -1.421875 11.734375 6.484375 
Q 5.515625 14.40625 5.515625 27.296875 
Q 5.515625 40.1875 11.734375 48.09375 
Q 17.96875 56 27.875 56 
Q 33.9375 56 38.25 53.625 
Q 42.578125 51.265625 45.40625 46.390625 
z
M 14.796875 27.296875 
Q 14.796875 17.390625 18.875 11.75 
Q 22.953125 6.109375 30.078125 6.109375 
Q 37.203125 6.109375 41.296875 11.75 
Q 45.40625 17.390625 45.40625 27.296875 
Q 45.40625 37.203125 41.296875 42.84375 
Q 37.203125 48.484375 30.078125 48.484375 
Q 22.953125 48.484375 18.875 42.84375 
Q 14.796875 37.203125 14.796875 27.296875 
z
" id="DejaVuSans-100"/>
       <path d="M 10.984375 1.515625 
L 10.984375 10.5 
Q 14.703125 8.734375 18.5 7.8125 
Q 22.3125 6.890625 25.984375 6.890625 
Q 35.75 6.890625 40.890625 13.453125 
Q 46.046875 20.015625 46.78125 33.40625 
Q 43.953125 29.203125 39.59375 26.953125 
Q 35.25 24.703125 29.984375 24.703125 
Q 19.046875 24.703125 12.671875 31.3125 
Q 6.296875 37.9375 6.296875 49.421875 
Q 6.296875 60.640625 12.9375 67.421875 
Q 19.578125 74.21875 30.609375 74.21875 
Q 43.265625 74.21875 49.921875 64.515625 
Q 56.59375 54.828125 56.59375 36.375 
Q 56.59375 19.140625 48.40625 8.859375 
Q 40.234375 -1.421875 26.421875 -1.421875 
Q 22.703125 -1.421875 18.890625 -0.6875 
Q 15.09375 0.046875 10.984375 1.515625 
z
M 30.609375 32.421875 
Q 37.25 32.421875 41.125 36.953125 
Q 45.015625 41.5 45.015625 49.421875 
Q 45.015625 57.28125 41.125 61.84375 
Q 37.25 66.40625 30.609375 66.40625 
Q 23.96875 66.40625 20.09375 61.84375 
Q 16.21875 57.28125 16.21875 49.421875 
Q 16.21875 41.5 20.09375 36.953125 
Q 23.96875 32.421875 30.609375 32.421875 
z
" id="DejaVuSans-57"/>
      </defs>
      <use xlink:href="#DejaVuSans-50"/>
      <use x="63.623047" xlink:href="#DejaVuSans-110"/>
      <use x="127.001953" xlink:href="#DejaVuSans-100"/>
      <use x="190.478516" xlink:href="#DejaVuSans-32"/>
      <use x="222.265625" xlink:href="#DejaVuSans-80"/>
      <use x="282.568359" xlink:href="#DejaVuSans-67"/>
      <use x="352.392578" xlink:href="#DejaVuSans-58"/>
      <use x="386.083984" xlink:href="#DejaVuSans-32"/>
      <use x="417.871094" xlink:href="#DejaVuSans-57"/>
      <use x="481.494141" xlink:href="#DejaVuSans-46"/>
      <use x="513.28125" xlink:href="#DejaVuSans-49"/>
      <use x="576.904297" xlink:href="#DejaVuSans-56"/>
      <use x="640.527344" xlink:href="#DejaVuSans-32"/>
      <use x="672.314453" xlink:href="#DejaVuSans-37"/>
     </g>
    </g>
   </g>
   <g id="LineCollection_1"/>
   <g id="LineCollection_2"/>
   <g id="LineCollection_3"/>
   <g id="LineCollection_4">
    <path clip-path="url(#p885da7457b)" d="M 217.126312 142.523945 
L 215.451977 146.908102 
L 213.286864 151.29226 
L 212.594211 152.342395 
L 210.003437 155.676417 
L 206.800758 160.060575 
L 206.203061 160.77535 
L 202.645987 164.444732 
L 199.811911 167.667692 
L 198.629837 168.82889 
L 194.143226 173.213048 
L 194.044363 173.308442 
" style="fill:none;stroke:#453781;stroke-width:1.5;"/>
    <path clip-path="url(#p885da7457b)" d="M 184.238792 181.884461 
L 184.121918 181.981363 
L 180.638462 185.123402 
L 179.06757 186.36552 
L 174.247312 190.511344 
L 173.929033 190.749678 
L 168.249955 195.133835 
L 167.856162 195.453376 
L 162.237716 199.517993 
L 161.465012 200.114332 
L 155.966915 203.90215 
L 155.073862 204.547437 
L 149.347062 208.286308 
L 148.682712 208.735362 
L 142.3127 212.670465 
L 142.291562 212.683896 
L 135.900412 216.04096 
L 133.793657 217.054623 
L 129.509262 219.129322 
L 124.351268 221.43878 
L 123.118112 221.992437 
L 116.726962 223.880264 
L 110.335812 224.822156 
L 103.944662 223.546404 
L 99.530026 221.43878 
L 97.553512 220.080181 
L 93.922369 217.054623 
L 91.162362 213.086733 
L 90.924907 212.670465 
L 89.965866 208.286308 
L 90.348771 203.90215 
L 91.162362 201.352487 
L 91.743309 199.517993 
L 93.956552 195.133835 
L 96.683572 190.749678 
L 97.553512 189.57494 
L 99.947645 186.36552 
L 103.534215 181.981363 
L 103.944662 181.527208 
L 107.555769 177.597205 
L 110.335812 174.725776 
L 111.8358 173.213048 
L 116.405377 168.82889 
L 116.726962 168.536827 
L 121.381807 164.444732 
L 123.118112 162.979544 
L 126.711348 160.060575 
L 129.509262 157.873836 
L 132.457366 155.676417 
L 135.900412 153.210162 
L 138.732274 151.29226 
L 142.291562 148.972053 
L 145.678542 146.908102 
L 148.682712 145.145751 
L 153.51521 142.523945 
" style="fill:none;stroke:#453781;stroke-width:1.5;"/>
   </g>
   <g id="LineCollection_5">
    <path clip-path="url(#p885da7457b)" d="M 241.517924 142.523945 
L 238.158811 146.034613 
L 237.256538 146.908102 
L 232.792821 151.29226 
L 231.767661 152.351892 
L 228.204198 155.676417 
L 225.376511 158.616303 
L 223.817466 160.060575 
L 219.345708 164.444732 
L 218.985361 164.7904 
L 214.340534 168.82889 
L 214.247299 168.91577 
" style="fill:none;stroke:#404688;stroke-width:1.5;"/>
    <path clip-path="url(#p885da7457b)" d="M 204.484059 177.533993 
L 204.408441 177.597205 
L 199.811911 181.732132 
L 199.508778 181.981363 
L 194.202238 186.36552 
L 193.420761 187.049559 
L 188.835576 190.749678 
L 187.029612 192.325564 
L 183.516618 195.133835 
L 180.638462 197.611884 
L 178.207405 199.517993 
L 174.247312 202.857315 
L 172.885942 203.90215 
L 167.856162 208.027199 
L 167.509305 208.286308 
L 161.796575 212.670465 
L 161.465012 212.934156 
L 155.845394 217.054623 
L 155.073862 217.647121 
L 149.766316 221.43878 
L 148.682712 222.235786 
L 143.51812 225.822938 
L 142.291562 226.669758 
L 137.02285 230.207095 
L 135.900412 230.933072 
L 130.249795 234.591253 
L 129.509262 235.049297 
L 123.249427 238.975411 
L 123.118112 239.054125 
L 116.726962 242.745654 
L 115.673815 243.359568 
L 110.335812 246.294788 
L 107.778583 247.743726 
L 103.944662 249.775752 
L 99.703554 252.127883 
L 97.553512 253.241195 
L 91.607886 256.512041 
L 91.162362 256.741908 
L 84.771212 259.91053 
L 82.815365 260.896198 
L 78.380062 263.010084 
L 73.832096 265.280356 
L 71.988912 266.158207 
L 65.597762 269.150728 
L 64.336816 269.664513 
L 59.206613 271.654082 
" style="fill:none;stroke:#404688;stroke-width:1.5;"/>
   </g>
   <g id="LineCollection_6">
    <path clip-path="url(#p885da7457b)" d="M 250.178596 142.523945 
L 245.253185 146.908102 
L 244.549961 147.569426 
L 240.323468 151.29226 
L 238.158811 153.411751 
L 235.635979 155.676417 
L 231.767661 159.540048 
L 231.189949 160.060575 
L 226.353278 164.444732 
L 225.376511 165.376596 
L 221.345915 168.82889 
L 218.985361 171.007335 
L 216.360206 173.213048 
L 212.594211 176.620992 
L 211.41813 177.597205 
L 206.426864 181.981363 
L 206.203061 182.179823 
L 201.06085 186.36552 
L 199.811911 187.460594 
L 195.741409 190.749678 
L 193.420761 192.769894 
L 190.48724 195.133835 
L 187.029612 198.12984 
L 185.290488 199.517993 
L 180.638462 203.517642 
L 180.149869 203.90215 
L 174.753166 208.286308 
L 174.247312 208.715154 
L 169.144575 212.670465 
L 167.856162 213.736146 
L 163.479692 217.054623 
L 161.465012 218.667409 
L 157.722984 221.43878 
L 155.073862 223.459488 
L 151.786736 225.822938 
L 148.682712 228.000741 
L 147.765941 228.63228 
" style="fill:none;stroke:#39558c;stroke-width:1.5;"/>
    <path clip-path="url(#p885da7457b)" d="M 136.766395 235.882646 
L 135.900412 236.430258 
L 131.938761 238.975411 
L 129.509262 240.481627 
L 124.93803 243.359568 
L 123.118112 244.459688 
L 117.793494 247.743726 
L 116.726962 248.366889 
L 110.500684 252.127883 
L 110.335812 252.221893 
L 103.944662 255.76662 
L 102.64808 256.512041 
L 97.553512 259.271846 
L 94.719476 260.896198 
L 91.162362 262.833325 
L 86.907073 265.280356 
L 84.771212 266.456027 
L 79.217958 269.664513 
L 78.380062 270.130515 
L 71.988912 273.744663 
L 71.436099 274.048671 
" style="fill:none;stroke:#39558c;stroke-width:1.5;"/>
   </g>
   <g id="LineCollection_7">
    <path clip-path="url(#p885da7457b)" d="M 250.941111 146.543156 
L 250.511482 146.908102 
L 245.455458 151.29226 
L 244.549961 152.136446 
L 242.96264 153.514463 
" style="fill:none;stroke:#33638d;stroke-width:1.5;"/>
    <path clip-path="url(#p885da7457b)" d="M 233.383729 162.304889 
L 231.767661 163.872866 
L 231.114267 164.444732 
L 226.180099 168.82889 
L 225.376511 169.576814 
L 221.031392 173.213048 
L 218.985361 175.071099 
L 215.928941 177.597205 
L 212.594211 180.580087 
L 210.887023 181.981363 
L 206.203061 186.134948 
L 205.919799 186.36552 
L 200.59431 190.749678 
L 199.811911 191.431743 
L 195.220328 195.133835 
L 193.420761 196.69257 
L 189.904504 199.517993 
L 187.029612 201.998822 
L 184.646915 203.90215 
L 180.638462 207.349376 
L 179.453376 208.286308 
L 174.271936 212.670465 
L 174.247312 212.691373 
L 168.654303 217.054623 
L 167.856162 217.71715 
L 162.978392 221.43878 
L 161.465012 222.628032 
L 157.133586 225.822938 
L 155.073862 227.256158 
L 150.834823 230.207095 
L 148.682712 231.607532 
L 144.196125 234.591253 
L 142.291562 235.814124 
L 137.437935 238.975411 
L 135.900412 239.956175 
L 130.604817 243.359568 
L 129.509262 244.045696 
L 123.655471 247.743726 
L 123.118112 248.067263 
L 116.726962 251.961132 
L 116.450907 252.127883 
L 110.335812 255.614694 
L 108.823873 256.512041 
L 103.944662 259.256844 
L 101.162462 260.896198 
L 97.553512 262.920627 
L 93.560491 265.280356 
L 91.162362 266.639356 
L 86.075841 269.664513 
L 84.771212 270.413044 
L 78.695572 274.048671 
" style="fill:none;stroke:#33638d;stroke-width:1.5;"/>
   </g>
   <g id="LineCollection_8">
    <path clip-path="url(#p885da7457b)" d="M 250.941111 149.752142 
L 249.119205 151.29226 
L 244.549961 155.552123 
L 244.406788 155.676417 
L 239.337086 160.060575 
L 238.158811 161.173551 
L 234.372243 164.444732 
L 231.767661 166.91515 
L 229.529257 168.82889 
L 225.376511 172.69398 
L 224.756251 173.213048 
L 223.914561 173.936116 
" style="fill:none;stroke:#2d718e;stroke-width:1.5;"/>
    <path clip-path="url(#p885da7457b)" d="M 213.955036 182.364133 
L 212.594211 183.575899 
L 209.180265 186.36552 
L 206.203061 188.985186 
L 204.02623 190.749678 
L 199.811911 194.423562 
L 198.930983 195.133835 
L 193.740449 199.517993 
L 193.420761 199.795353 
L 188.310052 203.90215 
L 187.029612 205.009422 
L 182.941509 208.286308 
L 180.638462 210.268878 
L 177.612319 212.670465 
L 174.247312 215.527529 
L 172.289815 217.054623 
L 167.856162 220.734943 
L 166.933674 221.43878 
L 161.465012 225.736191 
L 161.347406 225.822938 
L 155.073862 230.188265 
L 155.046812 230.207095 
L 148.682712 234.348387 
L 148.317517 234.591253 
L 142.291562 238.460363 
L 141.500793 238.975411 
L 135.900412 242.547815 
L 134.637345 243.359568 
L 129.509262 246.5712 
L 127.653214 247.743726 
L 123.118112 250.47425 
L 120.441802 252.127883 
L 116.726962 254.295087 
L 113.083184 256.512041 
L 110.335812 258.099042 
L 105.698329 260.896198 
L 103.944662 261.908033 
L 98.339832 265.280356 
L 97.553512 265.735865 
L 91.162362 269.575101 
L 91.012024 269.664513 
L 84.771212 273.245179 
L 83.428466 274.048671 
" style="fill:none;stroke:#2d718e;stroke-width:1.5;"/>
   </g>
   <g id="LineCollection_9">
    <path clip-path="url(#p885da7457b)" d="M 250.941111 152.378398 
L 247.023185 155.676417 
L 244.549961 157.957969 
L 242.098094 160.060575 
L 238.158811 163.781544 
L 237.391135 164.444732 
L 232.478465 168.82889 
L 231.767661 169.492752 
L 227.355255 173.213048 
L 225.376511 175.035776 
L 222.288946 177.597205 
L 222.186104 177.690213 
" style="fill:none;stroke:#287d8e;stroke-width:1.5;"/>
    <path clip-path="url(#p885da7457b)" d="M 212.416811 186.304207 
L 212.341776 186.36552 
L 207.030333 190.749678 
L 206.203061 191.473553 
L 201.677994 195.133835 
L 199.811911 196.757532 
L 196.384245 199.517993 
L 193.420761 202.089104 
L 191.164513 203.90215 
L 187.029612 207.477841 
L 186.021003 208.286308 
L 180.849811 212.670465 
L 180.638462 212.852701 
L 175.368669 217.054623 
L 174.247312 218.007921 
L 169.874589 221.43878 
L 167.856162 223.056874 
L 164.186507 225.822938 
L 161.465012 227.68471 
L 157.822117 230.207095 
L 155.073862 231.979597 
L 151.134904 234.591253 
L 148.682712 236.174915 
L 144.421117 238.975411 
L 142.291562 240.357801 
L 137.702577 243.359568 
L 135.900412 244.527829 
L 130.92046 247.743726 
L 129.509262 248.623057 
L 123.935154 252.127883 
L 123.118112 252.611957 
L 116.788468 256.512041 
L 116.726962 256.547998 
L 110.335812 260.256717 
L 109.275598 260.896198 
L 103.944662 263.972052 
L 101.77025 265.280356 
L 97.553512 267.723084 
L 94.345764 269.664513 
L 91.162362 271.527031 
L 87.027528 274.048671 
" style="fill:none;stroke:#287d8e;stroke-width:1.5;"/>
   </g>
   <g id="LineCollection_10">
    <path clip-path="url(#p885da7457b)" d="M 250.941111 154.53892 
L 249.589806 155.676417 
L 244.752847 160.060575 
L 244.549961 160.246811 
L 239.616498 164.444732 
L 238.158811 165.80917 
L 234.621689 168.82889 
L 234.576121 168.871449 
" style="fill:none;stroke:#238a8d;stroke-width:1.5;"/>
    <path clip-path="url(#p885da7457b)" d="M 224.92555 177.596778 
L 224.925035 177.597205 
L 219.764442 181.981363 
L 218.985361 182.68675 
L 214.503233 186.36552 
L 212.594211 188.060685 
L 209.292428 190.749678 
L 206.203061 193.45292 
L 204.125011 195.133835 
L 199.811911 198.886705 
L 199.028041 199.517993 
L 193.823985 203.90215 
L 193.420761 204.253913 
L 188.427359 208.286308 
L 187.029612 209.503003 
L 183.096456 212.670465 
L 180.638462 214.789873 
L 177.798152 217.054623 
L 174.247312 220.073294 
L 172.506962 221.43878 
L 167.856162 225.167144 
L 166.986139 225.822938 
L 161.465012 229.599935 
L 160.588135 230.207095 
L 155.073862 233.763556 
L 153.825511 234.591253 
L 148.682712 237.912548 
L 147.065323 238.975411 
L 142.291562 242.074275 
L 140.326656 243.359568 
L 135.900412 246.228898 
L 133.554638 247.743726 
L 129.509262 250.264439 
L 126.545623 252.127883 
L 123.118112 254.158584 
L 119.298568 256.512041 
L 116.726962 258.015444 
L 112.022135 260.896198 
L 110.335812 261.886048 
L 104.786723 265.280356 
L 103.944662 265.776684 
L 97.604449 269.664513 
L 97.553512 269.694737 
L 91.162362 273.448056 
L 90.17751 274.048671 
" style="fill:none;stroke:#238a8d;stroke-width:1.5;"/>
   </g>
   <g id="LineCollection_11">
    <path clip-path="url(#p885da7457b)" d="M 250.941111 156.395077 
L 246.564871 160.060575 
L 244.549961 161.910137 
L 241.571264 164.444732 
L 238.158811 167.638888 
L 236.764913 168.82889 
L 231.985346 173.213048 
L 231.767661 173.414677 
L 226.78432 177.597205 
L 225.376511 178.888935 
L 221.64516 181.981363 
L 218.985361 184.389571 
L 216.57791 186.36552 
L 212.594211 189.902949 
L 211.554522 190.749678 
L 206.450989 195.133835 
L 206.203061 195.351049 
L 201.062231 199.517993 
L 199.811911 200.613393 
L 195.748028 203.90215 
L 193.420761 205.932403 
L 190.505869 208.286308 
L 187.029612 211.312279 
L 185.343102 212.670465 
L 180.638462 216.727045 
L 180.227634 217.054623 
L 174.859612 221.43878 
L 174.247312 221.931112 
L 169.164088 225.822938 
L 167.856162 226.703808 
L 162.739801 230.207095 
L 161.465012 231.024365 
L 156.047995 234.591253 
L 155.073862 235.218561 
L 149.372395 238.975411 
L 148.682712 239.425491 
L 147.786679 240.017864 
" style="fill:none;stroke:#1f968b;stroke-width:1.5;"/>
    <path clip-path="url(#p885da7457b)" d="M 136.794696 247.279743 
L 136.092056 247.743726 
L 135.900412 247.868143 
L 129.509262 251.905821 
L 129.156092 252.127883 
L 123.118112 255.705212 
L 121.808668 256.512041 
L 116.726962 259.48289 
L 114.418757 260.896198 
L 110.335812 263.292835 
L 107.086569 265.280356 
L 103.944662 267.132261 
L 99.815104 269.664513 
L 97.553512 271.006431 
L 92.623426 274.048671 
" style="fill:none;stroke:#1f968b;stroke-width:1.5;"/>
   </g>
   <g id="LineCollection_12">
    <path clip-path="url(#p885da7457b)" d="M 250.941111 157.912812 
L 248.376895 160.060575 
L 244.549961 163.573462 
L 243.52603 164.444732 
L 238.64907 168.82889 
L 238.158811 169.285056 
L 233.524639 173.213048 
L 231.767661 174.840441 
L 228.483069 177.597205 
L 225.376511 180.447615 
L 223.525878 181.981363 
L 223.490506 182.013388 
" style="fill:none;stroke:#20a386;stroke-width:1.5;"/>
    <path clip-path="url(#p885da7457b)" d="M 213.64443 190.551962 
L 213.407906 190.749678 
L 212.594211 191.472748 
L 208.095271 195.133835 
L 206.203061 196.791629 
L 202.8395 199.517993 
L 199.811911 202.170452 
L 197.67207 203.90215 
L 193.420761 207.610892 
L 192.584379 208.286308 
L 187.414487 212.670465 
L 187.029612 213.00756 
L 182.0271 217.054623 
L 180.638462 218.257223 
L 176.66652 221.43878 
L 174.247312 223.38399 
L 171.061732 225.822938 
L 167.856162 227.981845 
L 164.606305 230.207095 
L 161.465012 232.220983 
L 157.865294 234.591253 
L 155.073862 236.388838 
L 151.14843 238.975411 
L 148.682712 240.584516 
L 144.48512 243.359568 
L 142.291562 244.805796 
L 137.842467 247.743726 
L 135.900412 249.004526 
L 131.038784 252.127883 
L 129.509262 253.057191 
L 123.945909 256.512041 
L 123.118112 256.998606 
L 116.787911 260.896198 
L 116.726962 260.932095 
L 110.335812 264.699621 
L 109.386415 265.280356 
L 103.944662 268.487838 
L 102.025758 269.664513 
L 97.553512 272.318125 
L 94.749085 274.048671 
" style="fill:none;stroke:#20a386;stroke-width:1.5;"/>
   </g>
   <g id="LineCollection_13">
    <path clip-path="url(#p885da7457b)" d="M 250.941111 159.430547 
L 250.18892 160.060575 
L 245.166303 164.444732 
L 244.549961 165.011363 
L 240.05131 168.82889 
L 238.158811 170.589783 
L 235.063933 173.213048 
L 231.767661 176.266204 
L 230.181819 177.597205 
L 225.396161 181.981363 
L 225.376511 181.999454 
L 223.955544 183.181305 
" style="fill:none;stroke:#29af7f;stroke-width:1.5;"/>
    <path clip-path="url(#p885da7457b)" d="M 213.973132 191.585465 
L 212.594211 192.81081 
L 209.739553 195.133835 
L 206.203061 198.23221 
L 204.616769 199.517993 
L 199.811911 203.727512 
L 199.596113 203.90215 
L 194.274854 208.286308 
L 193.420761 209.037356 
L 188.958181 212.670465 
L 187.029612 214.35961 
L 183.698348 217.054623 
L 180.638462 219.70457 
L 178.473427 221.43878 
L 174.247312 224.836867 
L 172.959377 225.822938 
L 167.856162 229.259882 
L 166.472809 230.207095 
L 161.465012 233.417602 
L 159.682593 234.591253 
L 155.073862 237.559116 
L 152.924466 238.975411 
L 148.682712 241.743541 
L 146.238281 243.359568 
L 142.291562 245.961668 
L 139.592878 247.743726 
L 135.900412 250.14091 
L 132.807609 252.127883 
L 129.509262 254.131895 
L 125.676508 256.512041 
L 123.118112 258.015823 
L 118.440005 260.896198 
L 116.726962 261.905127 
L 111.261072 265.280356 
L 110.335812 265.831429 
L 104.144713 269.664513 
L 103.944662 269.78432 
L 97.553512 273.629819 
L 96.874743 274.048671 
" style="fill:none;stroke:#29af7f;stroke-width:1.5;"/>
   </g>
   <g id="LineCollection_14">
    <path clip-path="url(#p885da7457b)" d="M 250.941111 160.694266 
L 246.46063 164.444732 
L 244.549961 166.201296 
L 241.453551 168.82889 
L 238.158811 171.894511 
L 236.603226 173.213048 
L 231.841745 177.597205 
L 231.767661 177.665713 
L 226.624543 181.981363 
L 225.376511 183.130463 
L 221.486923 186.36552 
L 221.350665 186.489488 
" style="fill:none;stroke:#3dbc74;stroke-width:1.5;"/>
    <path clip-path="url(#p885da7457b)" d="M 211.509193 195.031822 
L 211.383834 195.133835 
L 206.333774 199.517993 
L 206.203061 199.633851 
L 200.982706 203.90215 
L 199.811911 204.936795 
L 195.704046 208.286308 
L 193.420761 210.29412 
L 190.501875 212.670465 
L 187.029612 215.71166 
L 185.369596 217.054623 
L 180.638462 221.151918 
L 180.280335 221.43878 
L 174.673478 225.822938 
L 174.247312 226.106499 
L 168.193432 230.207095 
L 167.856162 230.420751 
L 161.489197 234.591253 
L 161.465012 234.606714 
L 155.073862 238.729393 
L 154.700502 238.975411 
L 148.682712 242.902566 
L 147.991442 243.359568 
L 142.291562 247.11754 
L 141.343288 247.743726 
L 135.900412 251.277293 
L 134.576435 252.127883 
L 129.509262 255.2066 
L 127.407107 256.512041 
L 123.118112 259.03304 
L 120.092099 260.896198 
L 116.726962 262.878159 
L 112.836813 265.280356 
L 110.335812 266.769921 
L 105.660541 269.664513 
L 103.944662 270.692116 
L 98.547154 274.048671 
" style="fill:none;stroke:#3dbc74;stroke-width:1.5;"/>
   </g>
   <g id="LineCollection_15">
    <path clip-path="url(#p885da7457b)" d="M 250.941111 161.777705 
L 247.754957 164.444732 
L 244.549961 167.391228 
L 242.855791 168.82889 
L 238.158811 173.199238 
L 238.142519 173.213048 
L 232.956383 177.597205 
L 231.767661 178.696463 
L 227.852926 181.981363 
L 225.376511 184.261471 
L 222.846762 186.36552 
L 222.78618 186.420637 
" style="fill:none;stroke:#56c667;stroke-width:1.5;"/>
    <path clip-path="url(#p885da7457b)" d="M 213.009134 195.027621 
L 212.887076 195.133835 
L 212.594211 195.396151 
L 207.550211 199.517993 
L 206.203061 200.712053 
L 202.301404 203.90215 
L 199.811911 206.102144 
L 197.133238 208.286308 
L 193.420761 211.550883 
L 192.045569 212.670465 
L 187.03749 217.054623 
L 187.029612 217.061563 
L 181.655021 221.43878 
L 180.638462 222.256472 
L 175.999868 225.822938 
L 174.247312 226.989046 
L 169.496374 230.207095 
L 167.856162 231.246143 
L 162.749296 234.591253 
L 161.465012 235.412264 
L 156.042128 238.975411 
L 155.073862 239.604823 
L 149.410763 243.359568 
L 148.682712 243.840677 
L 142.836749 247.743726 
L 142.291562 248.107153 
L 136.202466 252.127883 
L 135.900412 252.318679 
L 129.509262 256.281304 
L 129.137706 256.512041 
L 123.118112 260.050257 
L 121.744193 260.896198 
L 116.726962 263.851191 
L 114.412553 265.280356 
L 110.335812 267.708413 
L 107.176369 269.664513 
L 103.944662 271.599912 
L 100.006936 274.048671 
" style="fill:none;stroke:#56c667;stroke-width:1.5;"/>
   </g>
   <g id="LineCollection_16">
    <path clip-path="url(#p885da7457b)" d="M 250.941111 162.861145 
L 249.049283 164.444732 
L 244.549961 168.581161 
L 244.258032 168.82889 
L 239.164222 173.213048 
L 238.158811 174.144539 
L 234.071021 177.597205 
L 231.767661 179.727213 
L 229.081309 181.981363 
L 225.376511 185.392479 
L 224.206601 186.36552 
L 223.844484 186.687819 
" style="fill:none;stroke:#75d054;stroke-width:1.5;"/>
    <path clip-path="url(#p885da7457b)" d="M 213.948296 195.177358 
L 212.594211 196.390196 
L 208.766649 199.517993 
L 206.203061 201.790256 
L 203.620103 203.90215 
L 199.811911 207.267494 
L 198.562431 208.286308 
L 193.539254 212.670465 
L 193.420761 212.775527 
L 188.209633 217.054623 
L 187.029612 218.094132 
L 182.922866 221.43878 
L 180.638462 223.27629 
L 177.326257 225.822938 
L 174.247312 227.871594 
L 170.799315 230.207095 
L 167.856162 232.071536 
L 164.009395 234.591253 
L 161.465012 236.217815 
L 157.268125 238.975411 
L 155.073862 240.40177 
L 150.612759 243.359568 
L 148.682712 244.634977 
L 144.026448 247.743726 
L 142.291562 248.900219 
L 137.403505 252.127883 
L 135.900412 253.077331 
L 130.453978 256.512041 
L 129.509262 257.074251 
L 123.313525 260.896198 
L 123.118112 261.011461 
L 116.726962 264.824222 
L 115.988294 265.280356 
L 110.335812 268.646905 
L 108.692197 269.664513 
L 103.944662 272.507708 
L 101.466718 274.048671 
" style="fill:none;stroke:#75d054;stroke-width:1.5;"/>
   </g>
   <g id="LineCollection_17">
    <path clip-path="url(#p885da7457b)" d="M 250.941111 163.944584 
L 250.34361 164.444732 
L 245.291624 168.82889 
L 244.549961 169.510649 
L 240.180388 173.213048 
L 238.158811 175.085995 
L 235.185659 177.597205 
L 231.767661 180.757963 
L 230.309691 181.981363 
L 225.50241 186.36552 
L 225.376511 186.482257 
L 223.933152 187.690615 
" style="fill:none;stroke:#95d840;stroke-width:1.5;"/>
    <path clip-path="url(#p885da7457b)" d="M 213.99024 196.133835 
L 212.594211 197.384241 
L 209.983086 199.517993 
L 206.203061 202.868458 
L 204.938801 203.90215 
L 199.937691 208.286308 
L 199.811911 208.39872 
L 194.624801 212.670465 
L 193.420761 213.738027 
L 189.381776 217.054623 
L 187.029612 219.1267 
L 184.190711 221.43878 
L 180.638462 224.296109 
L 178.652647 225.822938 
L 174.247312 228.754142 
L 172.102256 230.207095 
L 167.856162 232.896928 
L 165.269493 234.591253 
L 161.465012 237.023365 
L 158.494121 238.975411 
L 155.073862 241.198717 
L 151.814756 243.359568 
L 148.682712 245.429278 
L 145.216146 247.743726 
L 142.291562 249.693285 
L 138.604544 252.127883 
L 135.900412 253.835983 
L 131.656975 256.512041 
L 129.509262 257.790167 
L 124.474093 260.896198 
L 123.118112 261.696012 
L 117.315651 265.280356 
L 116.726962 265.630968 
L 110.335812 269.585397 
L 110.208025 269.664513 
L 103.944662 273.415505 
L 102.9265 274.048671 
" style="fill:none;stroke:#95d840;stroke-width:1.5;"/>
   </g>
   <g id="LineCollection_18">
    <path clip-path="url(#p885da7457b)" d="M 250.941111 164.868494 
L 246.228289 168.82889 
L 244.549961 170.371661 
L 241.196554 173.213048 
L 238.158811 176.02745 
L 236.300297 177.597205 
L 231.767661 181.788714 
L 231.538074 181.981363 
L 226.403816 186.36552 
L 225.376511 187.318065 
L 221.277519 190.749678 
L 221.144995 190.871153 
" style="fill:none;stroke:#bade28;stroke-width:1.5;"/>
    <path clip-path="url(#p885da7457b)" d="M 211.314723 199.423855 
L 211.199524 199.517993 
L 206.240849 203.90215 
L 206.203061 203.936267 
L 200.937975 208.286308 
L 199.811911 209.292702 
L 195.710348 212.670465 
L 193.420761 214.700528 
L 190.553919 217.054623 
L 187.029612 220.159269 
L 185.458556 221.43878 
L 180.638462 225.315927 
L 179.979036 225.822938 
L 174.247312 229.636689 
L 173.405198 230.207095 
L 167.856162 233.722321 
L 166.529592 234.591253 
L 161.465012 237.828915 
L 159.720118 238.975411 
L 155.073862 241.995664 
L 153.016752 243.359568 
L 148.682712 246.223579 
L 146.405845 247.743726 
L 142.291562 250.48635 
L 139.805583 252.127883 
L 135.900412 254.594634 
L 132.859973 256.512041 
L 129.509262 258.506084 
L 125.634661 260.896198 
L 123.118112 262.380562 
L 118.423826 265.280356 
L 116.726962 266.290977 
L 111.306828 269.664513 
L 110.335812 270.249416 
L 104.253995 274.048671 
" style="fill:none;stroke:#bade28;stroke-width:1.5;"/>
   </g>
   <g id="LineCollection_19">
    <path clip-path="url(#p885da7457b)" d="M 250.941111 165.655616 
L 247.164953 168.82889 
L 244.549961 171.232672 
L 242.212721 173.213048 
L 238.158811 176.968906 
L 237.414935 177.597205 
L 232.431676 181.981363 
L 231.767661 182.599853 
L 227.305222 186.36552 
L 225.376511 188.153874 
L 222.275876 190.749678 
L 222.20079 190.818503 
" style="fill:none;stroke:#dde318;stroke-width:1.5;"/>
    <path clip-path="url(#p885da7457b)" d="M 212.472736 199.471597 
L 212.415961 199.517993 
L 207.156221 203.90215 
L 206.203061 204.762707 
L 201.93826 208.286308 
L 199.811911 210.186683 
L 196.795895 212.670465 
L 193.420761 215.663028 
L 191.726062 217.054623 
L 187.029612 221.191838 
L 186.726402 221.43878 
L 181.108858 225.822938 
L 180.638462 226.137777 
L 174.57716 230.207095 
L 174.247312 230.414305 
L 167.856162 234.547713 
L 167.789691 234.591253 
L 161.465012 238.634465 
L 160.946114 238.975411 
L 155.073862 242.792612 
L 154.218749 243.359568 
L 148.682712 247.017879 
L 147.595544 247.743726 
L 142.291562 251.279416 
L 141.006622 252.127883 
L 135.900412 255.353286 
L 134.06297 256.512041 
L 129.509262 259.222 
L 126.795228 260.896198 
L 123.118112 263.065113 
L 119.532 265.280356 
L 116.726962 266.950985 
L 112.367239 269.664513 
L 110.335812 270.888167 
L 105.276503 274.048671 
" style="fill:none;stroke:#dde318;stroke-width:1.5;"/>
   </g>
   <g id="LineCollection_20">
    <path clip-path="url(#p885da7457b)" d="M 250.941111 166.442737 
L 248.101618 168.82889 
L 244.549961 172.093683 
L 243.228887 173.213048 
L 238.405452 177.597205 
L 238.158811 177.827018 
L 233.248324 181.981363 
L 231.767661 183.360512 
L 228.206629 186.36552 
L 225.376511 188.989682 
L 223.274232 190.749678 
L 223.256585 190.765853 
" style="fill:none;stroke:#fde725;stroke-width:1.5;"/>
    <path clip-path="url(#p885da7457b)" d="M 213.476292 199.368739 
L 213.301489 199.517993 
L 212.594211 200.163762 
L 208.071592 203.90215 
L 206.203061 205.589147 
L 202.938544 208.286308 
L 199.811911 211.080665 
L 197.881443 212.670465 
L 193.420761 216.625528 
L 192.898205 217.054623 
L 187.718807 221.43878 
L 187.029612 221.98651 
L 182.044332 225.822938 
L 180.638462 226.763896 
L 175.509773 230.207095 
L 174.247312 231.000167 
L 168.711633 234.591253 
L 167.856162 235.128273 
L 161.965659 238.975411 
L 161.465012 239.295737 
L 155.31637 243.359568 
L 155.073862 243.518553 
L 148.753731 247.743726 
L 148.682712 247.791244 
L 142.291562 252.072482 
L 142.207661 252.127883 
L 135.900412 256.111938 
L 135.265967 256.512041 
L 129.509262 259.937916 
L 127.955796 260.896198 
L 123.118112 263.749663 
L 120.640174 265.280356 
L 116.726962 267.610993 
L 113.427649 269.664513 
L 110.335812 271.526918 
L 106.299011 274.048671 
" style="fill:none;stroke:#fde725;stroke-width:1.5;"/>
   </g>
   <g id="LineCollection_21">
    <path clip-path="url(#p885da7457b)" d="M 250.941111 167.229858 
L 249.038283 168.82889 
L 244.549961 172.954695 
L 244.245053 173.213048 
L 239.146938 177.597205 
L 238.158811 178.517914 
L 234.064972 181.981363 
L 231.767661 184.121172 
L 229.108035 186.36552 
L 225.376511 189.825491 
L 224.272588 190.749678 
L 219.360567 195.133835 
L 218.985361 195.481823 
L 218.262515 196.082736 
" style="fill:none;stroke:#440154;stroke-width:1.5;"/>
    <path clip-path="url(#p885da7457b)" d="M 206.928521 205.760609 
L 206.203061 206.415587 
L 203.938829 208.286308 
L 199.811911 211.974646 
L 198.96699 212.670465 
L 193.888293 217.054623 
L 193.420761 217.470022 
L 188.624634 221.43878 
L 187.029612 222.706406 
L 182.979807 225.822938 
L 180.638462 227.390015 
L 176.442385 230.207095 
L 174.247312 231.58603 
L 169.614743 234.591253 
L 167.856162 235.695198 
L 162.8337 238.975411 
L 161.465012 239.851133 
L 156.156692 243.359568 
L 155.073862 244.069456 
L 149.577787 247.743726 
L 148.682712 248.342621 
L 143.054164 252.127883 
L 142.291562 252.632161 
L 136.296337 256.512041 
L 135.900412 256.753099 
L 129.509262 260.653832 
L 129.116363 260.896198 
L 123.118112 264.434214 
L 121.748348 265.280356 
L 116.726962 268.271002 
L 114.48806 269.664513 
L 110.335812 272.16567 
L 107.321518 274.048671 
" style="fill:none;stroke:#440154;stroke-width:1.5;"/>
   </g>
   <g id="LineCollection_22">
    <path clip-path="url(#p885da7457b)" d="M 250.941111 197.462407 
L 248.560565 199.517993 
L 244.549961 203.379988 
L 243.937896 203.90215 
L 238.91984 208.286308 
L 238.158811 208.979129 
L 233.685527 212.670465 
L 231.767661 214.399737 
L 228.537473 217.054623 
L 225.376511 219.95103 
L 223.592455 221.43878 
L 218.985361 225.783571 
L 218.939215 225.822938 
L 213.848907 230.207095 
L 212.594211 231.445263 
L 210.485597 233.285381 
" style="fill:none;stroke:#440154;stroke-width:1.5;"/>
    <path clip-path="url(#p885da7457b)" d="M 198.158982 244.548795 
L 193.686462 247.743726 
L 193.420761 247.937269 
L 187.029612 251.963761 
L 186.774089 252.127883 
L 180.638462 256.008647 
L 179.872467 256.512041 
L 174.247312 260.185632 
L 173.185048 260.896198 
L 167.856162 264.460239 
L 166.644898 265.280356 
L 161.465012 268.741101 
L 160.044732 269.664513 
L 155.073862 272.707611 
L 152.885926 274.048671 
" style="fill:none;stroke:#440154;stroke-width:1.5;"/>
   </g>
   <g id="LineCollection_23">
    <path clip-path="url(#p885da7457b)" d="M 250.941111 224.656425 
L 249.492666 225.822938 
L 244.549961 230.136399 
L 244.463262 230.207095 
L 239.104561 234.591253 
L 238.158811 235.434682 
L 233.885936 238.975411 
L 231.767661 240.944108 
L 231.185474 241.441416 
" style="fill:none;stroke:#440154;stroke-width:1.5;"/>
    <path clip-path="url(#p885da7457b)" d="M 217.717987 254.193967 
L 215.24977 256.512041 
L 212.594211 259.487587 
L 211.138783 260.896198 
L 207.034765 265.280356 
L 206.203061 266.243627 
L 202.243639 269.664513 
L 199.811911 271.938627 
L 196.695441 274.048671 
" style="fill:none;stroke:#440154;stroke-width:1.5;"/>
   </g>
   <g id="LineCollection_24">
    <path clip-path="url(#p885da7457b)" d="M 250.941111 252.636996 
L 246.368223 256.512041 
L 245.608965 257.234879 
" style="fill:none;stroke:#440154;stroke-width:1.5;"/>
    <path clip-path="url(#p885da7457b)" d="M 230.763984 271.237502 
L 227.690659 274.048671 
" style="fill:none;stroke:#440154;stroke-width:1.5;"/>
   </g>
   <g id="LineCollection_25"/>
   <g id="LineCollection_26"/>
   <g id="LineCollection_27"/>
   <g id="LineCollection_28"/>
   <g id="line2d_16">
    <path clip-path="url(#p885da7457b)" d="M 399.320898 20.608671 
L 393.510804 82.064661 
L 387.450348 132.688979 
L 381.924309 167.153326 
L 376.743714 190.539805 
L 371.778032 206.531841 
L 366.942028 217.695521 
L 362.219978 225.489985 
L 357.523406 231.041536 
L 352.861526 235.01038 
L 348.206814 237.896091 
L 343.500173 240.093718 
L 338.725266 241.867743 
L 333.880193 243.329616 
L 328.990797 244.476351 
L 324.099047 245.387399 
L 319.107412 246.174969 
L 314.091713 246.835656 
L 309.055999 247.357995 
L 304.026464 247.717724 
L 298.960079 247.952911 
L 293.870788 248.050924 
L 288.67381 248.068562 
L 283.386332 247.983821 
L 278.015047 247.732327 
L 272.612116 247.387703 
L 267.228287 246.947654 
L 261.783836 246.465426 
L 256.357037 245.885304 
L 250.841444 245.18092 
L 245.307945 244.361483 
L 239.731487 243.424251 
L 234.153286 242.379144 
L 228.537356 241.272335 
L 222.896071 240.058582 
L 217.1296 238.703743 
L 211.282405 237.267057 
L 205.400005 235.683933 
L 199.486124 233.926281 
L 193.614682 232.166645 
L 187.775423 230.390948 
L 181.915807 228.500206 
L 176.001602 226.470941 
L 170.102447 224.424782 
L 164.271209 222.380155 
L 158.275355 220.07441 
L 152.100391 217.481865 
L 146.087916 215.067407 
L 140.3103 212.903848 
L 134.906565 210.975554 
L 134.406797 210.808558 
L 133.934227 210.67398 
L 133.478713 210.561928 
L 133.029862 210.463163 
L 132.586142 210.370154 
L 132.148569 210.277814 
L 131.708853 210.188623 
L 131.265745 210.093784 
L 130.829052 209.994464 
L 130.39181 209.893629 
L 129.956947 209.795063 
L 129.525889 209.69901 
L 129.094803 209.600913 
L 128.663629 209.500899 
L 128.234453 209.403341 
L 127.813629 209.305806 
L 127.396366 209.215785 
L 126.97793 209.127986 
L 126.561577 209.03807 
L 126.145663 208.937949 
L 125.72888 208.833918 
L 125.316057 208.732163 
L 124.911885 208.63606 
L 124.511377 208.552126 
L 124.110519 208.471376 
L 124.070226 208.463384 
L 124.030217 208.455746 
L 123.989831 208.448006 
L 123.949222 208.440702 
L 123.909111 208.433911 
L 123.869869 208.427382 
L 123.830986 208.420343 
L 123.791877 208.413245 
L 123.752432 208.406276 
L 123.712841 208.399465 
L 123.67314 208.392864 
L 123.633935 208.386405 
L 123.594987 208.379401 
L 123.555938 208.372168 
L 123.51681 208.365198 
L 123.477011 208.357949 
L 123.437188 208.350306 
L 123.397281 208.342558 
L 123.357321 208.335057 
L 123.318202 208.327249 
L 123.278673 208.319078 
L 123.238661 208.310631 
L 123.198632 208.30207 
L 123.158105 208.294035 
" style="fill:none;stroke:#1f77b4;stroke-linecap:square;stroke-width:1.5;"/>
    <defs>
     <path d="M 0 1.5 
C 0.397805 1.5 0.77937 1.341951 1.06066 1.06066 
C 1.341951 0.77937 1.5 0.397805 1.5 0 
C 1.5 -0.397805 1.341951 -0.77937 1.06066 -1.06066 
C 0.77937 -1.341951 0.397805 -1.5 0 -1.5 
C -0.397805 -1.5 -0.77937 -1.341951 -1.06066 -1.06066 
C -1.341951 -0.77937 -1.5 -0.397805 -1.5 0 
C -1.5 0.397805 -1.341951 0.77937 -1.06066 1.06066 
C -0.77937 1.341951 -0.397805 1.5 0 1.5 
z
" id="m8a6601c7ae" style="stroke:#1f77b4;"/>
    </defs>
    <g clip-path="url(#p885da7457b)">
     <use style="fill:#1f77b4;stroke:#1f77b4;" x="399.320898" xlink:href="#m8a6601c7ae" y="20.608671"/>
     <use style="fill:#1f77b4;stroke:#1f77b4;" x="393.510804" xlink:href="#m8a6601c7ae" y="82.064661"/>
     <use style="fill:#1f77b4;stroke:#1f77b4;" x="387.450348" xlink:href="#m8a6601c7ae" y="132.688979"/>
     <use style="fill:#1f77b4;stroke:#1f77b4;" x="381.924309" xlink:href="#m8a6601c7ae" y="167.153326"/>
     <use style="fill:#1f77b4;stroke:#1f77b4;" x="376.743714" xlink:href="#m8a6601c7ae" y="190.539805"/>
     <use style="fill:#1f77b4;stroke:#1f77b4;" x="371.778032" xlink:href="#m8a6601c7ae" y="206.531841"/>
     <use style="fill:#1f77b4;stroke:#1f77b4;" x="366.942028" xlink:href="#m8a6601c7ae" y="217.695521"/>
     <use style="fill:#1f77b4;stroke:#1f77b4;" x="362.219978" xlink:href="#m8a6601c7ae" y="225.489985"/>
     <use style="fill:#1f77b4;stroke:#1f77b4;" x="357.523406" xlink:href="#m8a6601c7ae" y="231.041536"/>
     <use style="fill:#1f77b4;stroke:#1f77b4;" x="352.861526" xlink:href="#m8a6601c7ae" y="235.01038"/>
     <use style="fill:#1f77b4;stroke:#1f77b4;" x="348.206814" xlink:href="#m8a6601c7ae" y="237.896091"/>
     <use style="fill:#1f77b4;stroke:#1f77b4;" x="343.500173" xlink:href="#m8a6601c7ae" y="240.093718"/>
     <use style="fill:#1f77b4;stroke:#1f77b4;" x="338.725266" xlink:href="#m8a6601c7ae" y="241.867743"/>
     <use style="fill:#1f77b4;stroke:#1f77b4;" x="333.880193" xlink:href="#m8a6601c7ae" y="243.329616"/>
     <use style="fill:#1f77b4;stroke:#1f77b4;" x="328.990797" xlink:href="#m8a6601c7ae" y="244.476351"/>
     <use style="fill:#1f77b4;stroke:#1f77b4;" x="324.099047" xlink:href="#m8a6601c7ae" y="245.387399"/>
     <use style="fill:#1f77b4;stroke:#1f77b4;" x="319.107412" xlink:href="#m8a6601c7ae" y="246.174969"/>
     <use style="fill:#1f77b4;stroke:#1f77b4;" x="314.091713" xlink:href="#m8a6601c7ae" y="246.835656"/>
     <use style="fill:#1f77b4;stroke:#1f77b4;" x="309.055999" xlink:href="#m8a6601c7ae" y="247.357995"/>
     <use style="fill:#1f77b4;stroke:#1f77b4;" x="304.026464" xlink:href="#m8a6601c7ae" y="247.717724"/>
     <use style="fill:#1f77b4;stroke:#1f77b4;" x="298.960079" xlink:href="#m8a6601c7ae" y="247.952911"/>
     <use style="fill:#1f77b4;stroke:#1f77b4;" x="293.870788" xlink:href="#m8a6601c7ae" y="248.050924"/>
     <use style="fill:#1f77b4;stroke:#1f77b4;" x="288.67381" xlink:href="#m8a6601c7ae" y="248.068562"/>
     <use style="fill:#1f77b4;stroke:#1f77b4;" x="283.386332" xlink:href="#m8a6601c7ae" y="247.983821"/>
     <use style="fill:#1f77b4;stroke:#1f77b4;" x="278.015047" xlink:href="#m8a6601c7ae" y="247.732327"/>
     <use style="fill:#1f77b4;stroke:#1f77b4;" x="272.612116" xlink:href="#m8a6601c7ae" y="247.387703"/>
     <use style="fill:#1f77b4;stroke:#1f77b4;" x="267.228287" xlink:href="#m8a6601c7ae" y="246.947654"/>
     <use style="fill:#1f77b4;stroke:#1f77b4;" x="261.783836" xlink:href="#m8a6601c7ae" y="246.465426"/>
     <use style="fill:#1f77b4;stroke:#1f77b4;" x="256.357037" xlink:href="#m8a6601c7ae" y="245.885304"/>
     <use style="fill:#1f77b4;stroke:#1f77b4;" x="250.841444" xlink:href="#m8a6601c7ae" y="245.18092"/>
     <use style="fill:#1f77b4;stroke:#1f77b4;" x="245.307945" xlink:href="#m8a6601c7ae" y="244.361483"/>
     <use style="fill:#1f77b4;stroke:#1f77b4;" x="239.731487" xlink:href="#m8a6601c7ae" y="243.424251"/>
     <use style="fill:#1f77b4;stroke:#1f77b4;" x="234.153286" xlink:href="#m8a6601c7ae" y="242.379144"/>
     <use style="fill:#1f77b4;stroke:#1f77b4;" x="228.537356" xlink:href="#m8a6601c7ae" y="241.272335"/>
     <use style="fill:#1f77b4;stroke:#1f77b4;" x="222.896071" xlink:href="#m8a6601c7ae" y="240.058582"/>
     <use style="fill:#1f77b4;stroke:#1f77b4;" x="217.1296" xlink:href="#m8a6601c7ae" y="238.703743"/>
     <use style="fill:#1f77b4;stroke:#1f77b4;" x="211.282405" xlink:href="#m8a6601c7ae" y="237.267057"/>
     <use style="fill:#1f77b4;stroke:#1f77b4;" x="205.400005" xlink:href="#m8a6601c7ae" y="235.683933"/>
     <use style="fill:#1f77b4;stroke:#1f77b4;" x="199.486124" xlink:href="#m8a6601c7ae" y="233.926281"/>
     <use style="fill:#1f77b4;stroke:#1f77b4;" x="193.614682" xlink:href="#m8a6601c7ae" y="232.166645"/>
     <use style="fill:#1f77b4;stroke:#1f77b4;" x="187.775423" xlink:href="#m8a6601c7ae" y="230.390948"/>
     <use style="fill:#1f77b4;stroke:#1f77b4;" x="181.915807" xlink:href="#m8a6601c7ae" y="228.500206"/>
     <use style="fill:#1f77b4;stroke:#1f77b4;" x="176.001602" xlink:href="#m8a6601c7ae" y="226.470941"/>
     <use style="fill:#1f77b4;stroke:#1f77b4;" x="170.102447" xlink:href="#m8a6601c7ae" y="224.424782"/>
     <use style="fill:#1f77b4;stroke:#1f77b4;" x="164.271209" xlink:href="#m8a6601c7ae" y="222.380155"/>
     <use style="fill:#1f77b4;stroke:#1f77b4;" x="158.275355" xlink:href="#m8a6601c7ae" y="220.07441"/>
     <use style="fill:#1f77b4;stroke:#1f77b4;" x="152.100391" xlink:href="#m8a6601c7ae" y="217.481865"/>
     <use style="fill:#1f77b4;stroke:#1f77b4;" x="146.087916" xlink:href="#m8a6601c7ae" y="215.067407"/>
     <use style="fill:#1f77b4;stroke:#1f77b4;" x="140.3103" xlink:href="#m8a6601c7ae" y="212.903848"/>
     <use style="fill:#1f77b4;stroke:#1f77b4;" x="134.906565" xlink:href="#m8a6601c7ae" y="210.975554"/>
     <use style="fill:#1f77b4;stroke:#1f77b4;" x="134.406797" xlink:href="#m8a6601c7ae" y="210.808558"/>
     <use style="fill:#1f77b4;stroke:#1f77b4;" x="133.934227" xlink:href="#m8a6601c7ae" y="210.67398"/>
     <use style="fill:#1f77b4;stroke:#1f77b4;" x="133.478713" xlink:href="#m8a6601c7ae" y="210.561928"/>
     <use style="fill:#1f77b4;stroke:#1f77b4;" x="133.029862" xlink:href="#m8a6601c7ae" y="210.463163"/>
     <use style="fill:#1f77b4;stroke:#1f77b4;" x="132.586142" xlink:href="#m8a6601c7ae" y="210.370154"/>
     <use style="fill:#1f77b4;stroke:#1f77b4;" x="132.148569" xlink:href="#m8a6601c7ae" y="210.277814"/>
     <use style="fill:#1f77b4;stroke:#1f77b4;" x="131.708853" xlink:href="#m8a6601c7ae" y="210.188623"/>
     <use style="fill:#1f77b4;stroke:#1f77b4;" x="131.265745" xlink:href="#m8a6601c7ae" y="210.093784"/>
     <use style="fill:#1f77b4;stroke:#1f77b4;" x="130.829052" xlink:href="#m8a6601c7ae" y="209.994464"/>
     <use style="fill:#1f77b4;stroke:#1f77b4;" x="130.39181" xlink:href="#m8a6601c7ae" y="209.893629"/>
     <use style="fill:#1f77b4;stroke:#1f77b4;" x="129.956947" xlink:href="#m8a6601c7ae" y="209.795063"/>
     <use style="fill:#1f77b4;stroke:#1f77b4;" x="129.525889" xlink:href="#m8a6601c7ae" y="209.69901"/>
     <use style="fill:#1f77b4;stroke:#1f77b4;" x="129.094803" xlink:href="#m8a6601c7ae" y="209.600913"/>
     <use style="fill:#1f77b4;stroke:#1f77b4;" x="128.663629" xlink:href="#m8a6601c7ae" y="209.500899"/>
     <use style="fill:#1f77b4;stroke:#1f77b4;" x="128.234453" xlink:href="#m8a6601c7ae" y="209.403341"/>
     <use style="fill:#1f77b4;stroke:#1f77b4;" x="127.813629" xlink:href="#m8a6601c7ae" y="209.305806"/>
     <use style="fill:#1f77b4;stroke:#1f77b4;" x="127.396366" xlink:href="#m8a6601c7ae" y="209.215785"/>
     <use style="fill:#1f77b4;stroke:#1f77b4;" x="126.97793" xlink:href="#m8a6601c7ae" y="209.127986"/>
     <use style="fill:#1f77b4;stroke:#1f77b4;" x="126.561577" xlink:href="#m8a6601c7ae" y="209.03807"/>
     <use style="fill:#1f77b4;stroke:#1f77b4;" x="126.145663" xlink:href="#m8a6601c7ae" y="208.937949"/>
     <use style="fill:#1f77b4;stroke:#1f77b4;" x="125.72888" xlink:href="#m8a6601c7ae" y="208.833918"/>
     <use style="fill:#1f77b4;stroke:#1f77b4;" x="125.316057" xlink:href="#m8a6601c7ae" y="208.732163"/>
     <use style="fill:#1f77b4;stroke:#1f77b4;" x="124.911885" xlink:href="#m8a6601c7ae" y="208.63606"/>
     <use style="fill:#1f77b4;stroke:#1f77b4;" x="124.511377" xlink:href="#m8a6601c7ae" y="208.552126"/>
     <use style="fill:#1f77b4;stroke:#1f77b4;" x="124.110519" xlink:href="#m8a6601c7ae" y="208.471376"/>
     <use style="fill:#1f77b4;stroke:#1f77b4;" x="124.070226" xlink:href="#m8a6601c7ae" y="208.463384"/>
     <use style="fill:#1f77b4;stroke:#1f77b4;" x="124.030217" xlink:href="#m8a6601c7ae" y="208.455746"/>
     <use style="fill:#1f77b4;stroke:#1f77b4;" x="123.989831" xlink:href="#m8a6601c7ae" y="208.448006"/>
     <use style="fill:#1f77b4;stroke:#1f77b4;" x="123.949222" xlink:href="#m8a6601c7ae" y="208.440702"/>
     <use style="fill:#1f77b4;stroke:#1f77b4;" x="123.909111" xlink:href="#m8a6601c7ae" y="208.433911"/>
     <use style="fill:#1f77b4;stroke:#1f77b4;" x="123.869869" xlink:href="#m8a6601c7ae" y="208.427382"/>
     <use style="fill:#1f77b4;stroke:#1f77b4;" x="123.830986" xlink:href="#m8a6601c7ae" y="208.420343"/>
     <use style="fill:#1f77b4;stroke:#1f77b4;" x="123.791877" xlink:href="#m8a6601c7ae" y="208.413245"/>
     <use style="fill:#1f77b4;stroke:#1f77b4;" x="123.752432" xlink:href="#m8a6601c7ae" y="208.406276"/>
     <use style="fill:#1f77b4;stroke:#1f77b4;" x="123.712841" xlink:href="#m8a6601c7ae" y="208.399465"/>
     <use style="fill:#1f77b4;stroke:#1f77b4;" x="123.67314" xlink:href="#m8a6601c7ae" y="208.392864"/>
     <use style="fill:#1f77b4;stroke:#1f77b4;" x="123.633935" xlink:href="#m8a6601c7ae" y="208.386405"/>
     <use style="fill:#1f77b4;stroke:#1f77b4;" x="123.594987" xlink:href="#m8a6601c7ae" y="208.379401"/>
     <use style="fill:#1f77b4;stroke:#1f77b4;" x="123.555938" xlink:href="#m8a6601c7ae" y="208.372168"/>
     <use style="fill:#1f77b4;stroke:#1f77b4;" x="123.51681" xlink:href="#m8a6601c7ae" y="208.365198"/>
     <use style="fill:#1f77b4;stroke:#1f77b4;" x="123.477011" xlink:href="#m8a6601c7ae" y="208.357949"/>
     <use style="fill:#1f77b4;stroke:#1f77b4;" x="123.437188" xlink:href="#m8a6601c7ae" y="208.350306"/>
     <use style="fill:#1f77b4;stroke:#1f77b4;" x="123.397281" xlink:href="#m8a6601c7ae" y="208.342558"/>
     <use style="fill:#1f77b4;stroke:#1f77b4;" x="123.357321" xlink:href="#m8a6601c7ae" y="208.335057"/>
     <use style="fill:#1f77b4;stroke:#1f77b4;" x="123.318202" xlink:href="#m8a6601c7ae" y="208.327249"/>
     <use style="fill:#1f77b4;stroke:#1f77b4;" x="123.278673" xlink:href="#m8a6601c7ae" y="208.319078"/>
     <use style="fill:#1f77b4;stroke:#1f77b4;" x="123.238661" xlink:href="#m8a6601c7ae" y="208.310631"/>
     <use style="fill:#1f77b4;stroke:#1f77b4;" x="123.198632" xlink:href="#m8a6601c7ae" y="208.30207"/>
     <use style="fill:#1f77b4;stroke:#1f77b4;" x="123.158105" xlink:href="#m8a6601c7ae" y="208.294035"/>
    </g>
   </g>
   <g id="patch_3">
    <path d="M 59.206613 274.048671 
L 59.206613 7.936671 
" style="fill:none;stroke:#000000;stroke-linecap:square;stroke-linejoin:miter;stroke-width:0.8;"/>
   </g>
   <g id="patch_4">
    <path d="M 416.326613 274.048671 
L 416.326613 7.936671 
" style="fill:none;stroke:#000000;stroke-linecap:square;stroke-linejoin:miter;stroke-width:0.8;"/>
   </g>
   <g id="patch_5">
    <path d="M 59.206613 274.048671 
L 416.326613 274.048671 
" style="fill:none;stroke:#000000;stroke-linecap:square;stroke-linejoin:miter;stroke-width:0.8;"/>
   </g>
   <g id="patch_6">
    <path d="M 59.206613 7.936671 
L 416.326613 7.936671 
" style="fill:none;stroke:#000000;stroke-linecap:square;stroke-linejoin:miter;stroke-width:0.8;"/>
   </g>
   <g id="text_18">
    <g clip-path="url(#p885da7457b)">
     <!-- 1.500 -->
     <g style="fill:#453781;" transform="translate(184.066066 184.72081)rotate(-43.621373)scale(0.06 -0.06)">
      <use xlink:href="#DejaVuSans-49"/>
      <use x="63.623047" xlink:href="#DejaVuSans-46"/>
      <use x="95.410156" xlink:href="#DejaVuSans-53"/>
      <use x="159.033203" xlink:href="#DejaVuSans-48"/>
      <use x="222.65625" xlink:href="#DejaVuSans-48"/>
     </g>
    </g>
   </g>
   <g id="text_19">
    <g clip-path="url(#p885da7457b)">
     <!-- 2.000 -->
     <g style="fill:#404688;" transform="translate(204.300334 180.35232)rotate(-43.798632)scale(0.06 -0.06)">
      <use xlink:href="#DejaVuSans-50"/>
      <use x="63.623047" xlink:href="#DejaVuSans-46"/>
      <use x="95.410156" xlink:href="#DejaVuSans-48"/>
      <use x="159.033203" xlink:href="#DejaVuSans-48"/>
      <use x="222.65625" xlink:href="#DejaVuSans-48"/>
     </g>
    </g>
   </g>
   <g id="text_20">
    <g clip-path="url(#p885da7457b)">
     <!-- 2.500 -->
     <g style="fill:#39558c;" transform="translate(136.270556 238.634236)rotate(-35.586293)scale(0.06 -0.06)">
      <use xlink:href="#DejaVuSans-50"/>
      <use x="63.623047" xlink:href="#DejaVuSans-46"/>
      <use x="95.410156" xlink:href="#DejaVuSans-53"/>
      <use x="159.033203" xlink:href="#DejaVuSans-48"/>
      <use x="222.65625" xlink:href="#DejaVuSans-48"/>
     </g>
    </g>
   </g>
   <g id="text_21">
    <g clip-path="url(#p885da7457b)">
     <!-- 3.000 -->
     <g style="fill:#33638d;" transform="translate(233.245067 165.13221)rotate(-44.908948)scale(0.06 -0.06)">
      <defs>
       <path d="M 40.578125 39.3125 
Q 47.65625 37.796875 51.625 33 
Q 55.609375 28.21875 55.609375 21.1875 
Q 55.609375 10.40625 48.1875 4.484375 
Q 40.765625 -1.421875 27.09375 -1.421875 
Q 22.515625 -1.421875 17.65625 -0.515625 
Q 12.796875 0.390625 7.625 2.203125 
L 7.625 11.71875 
Q 11.71875 9.328125 16.59375 8.109375 
Q 21.484375 6.890625 26.8125 6.890625 
Q 36.078125 6.890625 40.9375 10.546875 
Q 45.796875 14.203125 45.796875 21.1875 
Q 45.796875 27.640625 41.28125 31.265625 
Q 36.765625 34.90625 28.71875 34.90625 
L 20.21875 34.90625 
L 20.21875 43.015625 
L 29.109375 43.015625 
Q 36.375 43.015625 40.234375 45.921875 
Q 44.09375 48.828125 44.09375 54.296875 
Q 44.09375 59.90625 40.109375 62.90625 
Q 36.140625 65.921875 28.71875 65.921875 
Q 24.65625 65.921875 20.015625 65.03125 
Q 15.375 64.15625 9.8125 62.3125 
L 9.8125 71.09375 
Q 15.4375 72.65625 20.34375 73.4375 
Q 25.25 74.21875 29.59375 74.21875 
Q 40.828125 74.21875 47.359375 69.109375 
Q 53.90625 64.015625 53.90625 55.328125 
Q 53.90625 49.265625 50.4375 45.09375 
Q 46.96875 40.921875 40.578125 39.3125 
z
" id="DejaVuSans-51"/>
      </defs>
      <use xlink:href="#DejaVuSans-51"/>
      <use x="63.623047" xlink:href="#DejaVuSans-46"/>
      <use x="95.410156" xlink:href="#DejaVuSans-48"/>
      <use x="159.033203" xlink:href="#DejaVuSans-48"/>
      <use x="222.65625" xlink:href="#DejaVuSans-48"/>
     </g>
    </g>
   </g>
   <g id="text_22">
    <g clip-path="url(#p885da7457b)">
     <!-- 3.500 -->
     <g style="fill:#2d718e;" transform="translate(213.775484 185.226509)rotate(-42.529842)scale(0.06 -0.06)">
      <use xlink:href="#DejaVuSans-51"/>
      <use x="63.623047" xlink:href="#DejaVuSans-46"/>
      <use x="95.410156" xlink:href="#DejaVuSans-53"/>
      <use x="159.033203" xlink:href="#DejaVuSans-48"/>
      <use x="222.65625" xlink:href="#DejaVuSans-48"/>
     </g>
    </g>
   </g>
   <g id="text_23">
    <g clip-path="url(#p885da7457b)">
     <!-- 4.000 -->
     <g style="fill:#287d8e;" transform="translate(212.211309 189.105244)rotate(-43.624495)scale(0.06 -0.06)">
      <defs>
       <path d="M 37.796875 64.3125 
L 12.890625 25.390625 
L 37.796875 25.390625 
z
M 35.203125 72.90625 
L 47.609375 72.90625 
L 47.609375 25.390625 
L 58.015625 25.390625 
L 58.015625 17.1875 
L 47.609375 17.1875 
L 47.609375 0 
L 37.796875 0 
L 37.796875 17.1875 
L 4.890625 17.1875 
L 4.890625 26.703125 
z
" id="DejaVuSans-52"/>
      </defs>
      <use xlink:href="#DejaVuSans-52"/>
      <use x="63.623047" xlink:href="#DejaVuSans-46"/>
      <use x="95.410156" xlink:href="#DejaVuSans-48"/>
      <use x="159.033203" xlink:href="#DejaVuSans-48"/>
      <use x="222.65625" xlink:href="#DejaVuSans-48"/>
     </g>
    </g>
   </g>
   <g id="text_24">
    <g clip-path="url(#p885da7457b)">
     <!-- 4.500 -->
     <g style="fill:#238a8d;" transform="translate(224.748836 180.403114)rotate(-44.378748)scale(0.06 -0.06)">
      <use xlink:href="#DejaVuSans-52"/>
      <use x="63.623047" xlink:href="#DejaVuSans-46"/>
      <use x="95.410156" xlink:href="#DejaVuSans-53"/>
      <use x="159.033203" xlink:href="#DejaVuSans-48"/>
      <use x="222.65625" xlink:href="#DejaVuSans-48"/>
     </g>
    </g>
   </g>
   <g id="text_25">
    <g clip-path="url(#p885da7457b)">
     <!-- 5.000 -->
     <g style="fill:#1f968b;" transform="translate(136.279182 250.002376)rotate(-35.66414)scale(0.06 -0.06)">
      <use xlink:href="#DejaVuSans-53"/>
      <use x="63.623047" xlink:href="#DejaVuSans-46"/>
      <use x="95.410156" xlink:href="#DejaVuSans-48"/>
      <use x="159.033203" xlink:href="#DejaVuSans-48"/>
      <use x="222.65625" xlink:href="#DejaVuSans-48"/>
     </g>
    </g>
   </g>
   <g id="text_26">
    <g clip-path="url(#p885da7457b)">
     <!-- 5.500 -->
     <g style="fill:#20a386;" transform="translate(213.531831 193.456374)rotate(-43.25328)scale(0.06 -0.06)">
      <use xlink:href="#DejaVuSans-53"/>
      <use x="63.623047" xlink:href="#DejaVuSans-46"/>
      <use x="95.410156" xlink:href="#DejaVuSans-53"/>
      <use x="159.033203" xlink:href="#DejaVuSans-48"/>
      <use x="222.65625" xlink:href="#DejaVuSans-48"/>
     </g>
    </g>
   </g>
   <g id="text_27">
    <g clip-path="url(#p885da7457b)">
     <!-- 6.000 -->
     <g style="fill:#29af7f;" transform="translate(213.753399 194.413462)rotate(-42.349526)scale(0.06 -0.06)">
      <use xlink:href="#DejaVuSans-54"/>
      <use x="63.623047" xlink:href="#DejaVuSans-46"/>
      <use x="95.410156" xlink:href="#DejaVuSans-48"/>
      <use x="159.033203" xlink:href="#DejaVuSans-48"/>
      <use x="222.65625" xlink:href="#DejaVuSans-48"/>
     </g>
    </g>
   </g>
   <g id="text_28">
    <g clip-path="url(#p885da7457b)">
     <!-- 6.500 -->
     <g style="fill:#3dbc74;" transform="translate(211.30309 197.843714)rotate(-43.28891)scale(0.06 -0.06)">
      <use xlink:href="#DejaVuSans-54"/>
      <use x="63.623047" xlink:href="#DejaVuSans-46"/>
      <use x="95.410156" xlink:href="#DejaVuSans-53"/>
      <use x="159.033203" xlink:href="#DejaVuSans-48"/>
      <use x="222.65625" xlink:href="#DejaVuSans-48"/>
     </g>
    </g>
   </g>
   <g id="text_29">
    <g clip-path="url(#p885da7457b)">
     <!-- 7.000 -->
     <g style="fill:#56c667;" transform="translate(212.847129 197.871162)rotate(-43.597439)scale(0.06 -0.06)">
      <use xlink:href="#DejaVuSans-55"/>
      <use x="63.623047" xlink:href="#DejaVuSans-46"/>
      <use x="95.410156" xlink:href="#DejaVuSans-48"/>
      <use x="159.033203" xlink:href="#DejaVuSans-48"/>
      <use x="222.65625" xlink:href="#DejaVuSans-48"/>
     </g>
    </g>
   </g>
   <g id="text_30">
    <g clip-path="url(#p885da7457b)">
     <!-- 7.500 -->
     <g style="fill:#75d054;" transform="translate(213.830723 198.086752)rotate(-42.979032)scale(0.06 -0.06)">
      <use xlink:href="#DejaVuSans-55"/>
      <use x="63.623047" xlink:href="#DejaVuSans-46"/>
      <use x="95.410156" xlink:href="#DejaVuSans-53"/>
      <use x="159.033203" xlink:href="#DejaVuSans-48"/>
      <use x="222.65625" xlink:href="#DejaVuSans-48"/>
     </g>
    </g>
   </g>
   <g id="text_31">
    <g clip-path="url(#p885da7457b)">
     <!-- 8.000 -->
     <g style="fill:#95d840;" transform="translate(213.778867 198.963749)rotate(-42.557433)scale(0.06 -0.06)">
      <use xlink:href="#DejaVuSans-56"/>
      <use x="63.623047" xlink:href="#DejaVuSans-46"/>
      <use x="95.410156" xlink:href="#DejaVuSans-48"/>
      <use x="159.033203" xlink:href="#DejaVuSans-48"/>
      <use x="222.65625" xlink:href="#DejaVuSans-48"/>
     </g>
    </g>
   </g>
   <g id="text_32">
    <g clip-path="url(#p885da7457b)">
     <!-- 8.500 -->
     <g style="fill:#bade28;" transform="translate(211.111735 202.236201)rotate(-43.38229)scale(0.06 -0.06)">
      <use xlink:href="#DejaVuSans-56"/>
      <use x="63.623047" xlink:href="#DejaVuSans-46"/>
      <use x="95.410156" xlink:href="#DejaVuSans-53"/>
      <use x="159.033203" xlink:href="#DejaVuSans-48"/>
      <use x="222.65625" xlink:href="#DejaVuSans-48"/>
     </g>
    </g>
   </g>
   <g id="text_33">
    <g clip-path="url(#p885da7457b)">
     <!-- 9.000 -->
     <g style="fill:#dde318;" transform="translate(212.279543 202.277528)rotate(-43.848795)scale(0.06 -0.06)">
      <use xlink:href="#DejaVuSans-57"/>
      <use x="63.623047" xlink:href="#DejaVuSans-46"/>
      <use x="95.410156" xlink:href="#DejaVuSans-48"/>
      <use x="159.033203" xlink:href="#DejaVuSans-48"/>
      <use x="222.65625" xlink:href="#DejaVuSans-48"/>
     </g>
    </g>
   </g>
   <g id="text_34">
    <g clip-path="url(#p885da7457b)">
     <!-- 9.500 -->
     <g style="fill:#fde725;" transform="translate(213.362204 202.25827)rotate(-43.630739)scale(0.06 -0.06)">
      <use xlink:href="#DejaVuSans-57"/>
      <use x="63.623047" xlink:href="#DejaVuSans-46"/>
      <use x="95.410156" xlink:href="#DejaVuSans-53"/>
      <use x="159.033203" xlink:href="#DejaVuSans-48"/>
      <use x="222.65625" xlink:href="#DejaVuSans-48"/>
     </g>
    </g>
   </g>
   <g id="text_35">
    <g clip-path="url(#p885da7457b)">
     <!-- 10.000 -->
     <g style="fill:#440154;" transform="translate(206.003776 209.256965)rotate(-42.709095)scale(0.06 -0.06)">
      <use xlink:href="#DejaVuSans-49"/>
      <use x="63.623047" xlink:href="#DejaVuSans-48"/>
      <use x="127.246094" xlink:href="#DejaVuSans-46"/>
      <use x="159.033203" xlink:href="#DejaVuSans-48"/>
      <use x="222.65625" xlink:href="#DejaVuSans-48"/>
      <use x="286.279297" xlink:href="#DejaVuSans-48"/>
     </g>
    </g>
   </g>
   <g id="text_36">
    <g clip-path="url(#p885da7457b)">
     <!-- 100.000 -->
     <g style="fill:#440154;" transform="translate(196.947334 249.045709)rotate(-45.970077)scale(0.06 -0.06)">
      <use xlink:href="#DejaVuSans-49"/>
      <use x="63.623047" xlink:href="#DejaVuSans-48"/>
      <use x="127.246094" xlink:href="#DejaVuSans-48"/>
      <use x="190.869141" xlink:href="#DejaVuSans-46"/>
      <use x="222.65625" xlink:href="#DejaVuSans-48"/>
      <use x="286.279297" xlink:href="#DejaVuSans-48"/>
      <use x="349.902344" xlink:href="#DejaVuSans-48"/>
     </g>
    </g>
   </g>
   <g id="text_37">
    <g clip-path="url(#p885da7457b)">
     <!-- 1000.000 -->
     <g style="fill:#440154;" transform="translate(215.654466 259.218245)rotate(-46.179078)scale(0.06 -0.06)">
      <use xlink:href="#DejaVuSans-49"/>
      <use x="63.623047" xlink:href="#DejaVuSans-48"/>
      <use x="127.246094" xlink:href="#DejaVuSans-48"/>
      <use x="190.869141" xlink:href="#DejaVuSans-48"/>
      <use x="254.492188" xlink:href="#DejaVuSans-46"/>
      <use x="286.279297" xlink:href="#DejaVuSans-48"/>
      <use x="349.902344" xlink:href="#DejaVuSans-48"/>
      <use x="413.525391" xlink:href="#DejaVuSans-48"/>
     </g>
    </g>
   </g>
   <g id="text_38">
    <g clip-path="url(#p885da7457b)">
     <!-- 10000.000 -->
     <g style="fill:#440154;" transform="translate(228.019269 276.981904)rotate(-45.727978)scale(0.06 -0.06)">
      <use xlink:href="#DejaVuSans-49"/>
      <use x="63.623047" xlink:href="#DejaVuSans-48"/>
      <use x="127.246094" xlink:href="#DejaVuSans-48"/>
      <use x="190.869141" xlink:href="#DejaVuSans-48"/>
      <use x="254.492188" xlink:href="#DejaVuSans-48"/>
      <use x="318.115234" xlink:href="#DejaVuSans-46"/>
      <use x="349.902344" xlink:href="#DejaVuSans-48"/>
      <use x="413.525391" xlink:href="#DejaVuSans-48"/>
      <use x="477.148438" xlink:href="#DejaVuSans-48"/>
     </g>
    </g>
   </g>
  </g>
 </g>
 <defs>
  <clipPath id="p885da7457b">
   <rect height="266.112" width="357.12" x="59.206613" y="7.936671"/>
  </clipPath>
 </defs>
</svg>
