<?xml version="1.0" encoding="utf-8" standalone="no"?>
<!DOCTYPE svg PUBLIC "-//W3C//DTD SVG 1.1//EN"
  "http://www.w3.org/Graphics/SVG/1.1/DTD/svg11.dtd">
<!-- Created with matplotlib (https://matplotlib.org/) -->
<svg height="317.913925pt" version="1.1" viewBox="0 0 413.985987 317.913925" width="413.985987pt" xmlns="http://www.w3.org/2000/svg" xmlns:xlink="http://www.w3.org/1999/xlink">
 <metadata>
  <rdf:RDF xmlns:cc="http://creativecommons.org/ns#" xmlns:dc="http://purl.org/dc/elements/1.1/" xmlns:rdf="http://www.w3.org/1999/02/22-rdf-syntax-ns#">
   <cc:Work>
    <dc:type rdf:resource="http://purl.org/dc/dcmitype/StillImage"/>
    <dc:date>2021-09-18T02:06:32.584373</dc:date>
    <dc:format>image/svg+xml</dc:format>
    <dc:creator>
     <cc:Agent>
      <dc:title>Matplotlib v3.3.1, https://matplotlib.org/</dc:title>
     </cc:Agent>
    </dc:creator>
   </cc:Work>
  </rdf:RDF>
 </metadata>
 <defs>
  <style type="text/css">*{stroke-linecap:butt;stroke-linejoin:round;}</style>
 </defs>
 <g id="figure_1">
  <g id="patch_1">
   <path d="M 0 317.913925 
L 413.985987 317.913925 
L 413.985987 0 
L 0 0 
z
" style="fill:#ffffff;"/>
  </g>
  <g id="axes_1">
   <g id="patch_2">
    <path d="M 49.665988 273.312 
L 406.785988 273.312 
L 406.785988 7.2 
L 49.665988 7.2 
z
" style="fill:#ffffff;"/>
   </g>
   <g id="matplotlib.axis_1">
    <g id="xtick_1">
     <g id="line2d_1">
      <defs>
       <path d="M 0 0 
L 0 3.5 
" id="m782a9ac3cb" style="stroke:#000000;stroke-width:0.8;"/>
      </defs>
      <g>
       <use style="stroke:#000000;stroke-width:0.8;" x="64.146175" xlink:href="#m782a9ac3cb" y="273.312"/>
      </g>
     </g>
     <g id="text_1">
      <!-- 0 -->
      <g transform="translate(60.964925 287.910437)scale(0.1 -0.1)">
       <defs>
        <path d="M 31.78125 66.40625 
Q 24.171875 66.40625 20.328125 58.90625 
Q 16.5 51.421875 16.5 36.375 
Q 16.5 21.390625 20.328125 13.890625 
Q 24.171875 6.390625 31.78125 6.390625 
Q 39.453125 6.390625 43.28125 13.890625 
Q 47.125 21.390625 47.125 36.375 
Q 47.125 51.421875 43.28125 58.90625 
Q 39.453125 66.40625 31.78125 66.40625 
z
M 31.78125 74.21875 
Q 44.046875 74.21875 50.515625 64.515625 
Q 56.984375 54.828125 56.984375 36.375 
Q 56.984375 17.96875 50.515625 8.265625 
Q 44.046875 -1.421875 31.78125 -1.421875 
Q 19.53125 -1.421875 13.0625 8.265625 
Q 6.59375 17.96875 6.59375 36.375 
Q 6.59375 54.828125 13.0625 64.515625 
Q 19.53125 74.21875 31.78125 74.21875 
z
" id="DejaVuSans-48"/>
       </defs>
       <use xlink:href="#DejaVuSans-48"/>
      </g>
     </g>
    </g>
    <g id="xtick_2">
     <g id="line2d_2">
      <g>
       <use style="stroke:#000000;stroke-width:0.8;" x="122.066927" xlink:href="#m782a9ac3cb" y="273.312"/>
      </g>
     </g>
     <g id="text_2">
      <!-- 20 -->
      <g transform="translate(115.704427 287.910437)scale(0.1 -0.1)">
       <defs>
        <path d="M 19.1875 8.296875 
L 53.609375 8.296875 
L 53.609375 0 
L 7.328125 0 
L 7.328125 8.296875 
Q 12.9375 14.109375 22.625 23.890625 
Q 32.328125 33.6875 34.8125 36.53125 
Q 39.546875 41.84375 41.421875 45.53125 
Q 43.3125 49.21875 43.3125 52.78125 
Q 43.3125 58.59375 39.234375 62.25 
Q 35.15625 65.921875 28.609375 65.921875 
Q 23.96875 65.921875 18.8125 64.3125 
Q 13.671875 62.703125 7.8125 59.421875 
L 7.8125 69.390625 
Q 13.765625 71.78125 18.9375 73 
Q 24.125 74.21875 28.421875 74.21875 
Q 39.75 74.21875 46.484375 68.546875 
Q 53.21875 62.890625 53.21875 53.421875 
Q 53.21875 48.921875 51.53125 44.890625 
Q 49.859375 40.875 45.40625 35.40625 
Q 44.1875 33.984375 37.640625 27.21875 
Q 31.109375 20.453125 19.1875 8.296875 
z
" id="DejaVuSans-50"/>
       </defs>
       <use xlink:href="#DejaVuSans-50"/>
       <use x="63.623047" xlink:href="#DejaVuSans-48"/>
      </g>
     </g>
    </g>
    <g id="xtick_3">
     <g id="line2d_3">
      <g>
       <use style="stroke:#000000;stroke-width:0.8;" x="179.987679" xlink:href="#m782a9ac3cb" y="273.312"/>
      </g>
     </g>
     <g id="text_3">
      <!-- 40 -->
      <g transform="translate(173.625179 287.910437)scale(0.1 -0.1)">
       <defs>
        <path d="M 37.796875 64.3125 
L 12.890625 25.390625 
L 37.796875 25.390625 
z
M 35.203125 72.90625 
L 47.609375 72.90625 
L 47.609375 25.390625 
L 58.015625 25.390625 
L 58.015625 17.1875 
L 47.609375 17.1875 
L 47.609375 0 
L 37.796875 0 
L 37.796875 17.1875 
L 4.890625 17.1875 
L 4.890625 26.703125 
z
" id="DejaVuSans-52"/>
       </defs>
       <use xlink:href="#DejaVuSans-52"/>
       <use x="63.623047" xlink:href="#DejaVuSans-48"/>
      </g>
     </g>
    </g>
    <g id="xtick_4">
     <g id="line2d_4">
      <g>
       <use style="stroke:#000000;stroke-width:0.8;" x="237.908431" xlink:href="#m782a9ac3cb" y="273.312"/>
      </g>
     </g>
     <g id="text_4">
      <!-- 60 -->
      <g transform="translate(231.545931 287.910437)scale(0.1 -0.1)">
       <defs>
        <path d="M 33.015625 40.375 
Q 26.375 40.375 22.484375 35.828125 
Q 18.609375 31.296875 18.609375 23.390625 
Q 18.609375 15.53125 22.484375 10.953125 
Q 26.375 6.390625 33.015625 6.390625 
Q 39.65625 6.390625 43.53125 10.953125 
Q 47.40625 15.53125 47.40625 23.390625 
Q 47.40625 31.296875 43.53125 35.828125 
Q 39.65625 40.375 33.015625 40.375 
z
M 52.59375 71.296875 
L 52.59375 62.3125 
Q 48.875 64.0625 45.09375 64.984375 
Q 41.3125 65.921875 37.59375 65.921875 
Q 27.828125 65.921875 22.671875 59.328125 
Q 17.53125 52.734375 16.796875 39.40625 
Q 19.671875 43.65625 24.015625 45.921875 
Q 28.375 48.1875 33.59375 48.1875 
Q 44.578125 48.1875 50.953125 41.515625 
Q 57.328125 34.859375 57.328125 23.390625 
Q 57.328125 12.15625 50.6875 5.359375 
Q 44.046875 -1.421875 33.015625 -1.421875 
Q 20.359375 -1.421875 13.671875 8.265625 
Q 6.984375 17.96875 6.984375 36.375 
Q 6.984375 53.65625 15.1875 63.9375 
Q 23.390625 74.21875 37.203125 74.21875 
Q 40.921875 74.21875 44.703125 73.484375 
Q 48.484375 72.75 52.59375 71.296875 
z
" id="DejaVuSans-54"/>
       </defs>
       <use xlink:href="#DejaVuSans-54"/>
       <use x="63.623047" xlink:href="#DejaVuSans-48"/>
      </g>
     </g>
    </g>
    <g id="xtick_5">
     <g id="line2d_5">
      <g>
       <use style="stroke:#000000;stroke-width:0.8;" x="295.829183" xlink:href="#m782a9ac3cb" y="273.312"/>
      </g>
     </g>
     <g id="text_5">
      <!-- 80 -->
      <g transform="translate(289.466683 287.910437)scale(0.1 -0.1)">
       <defs>
        <path d="M 31.78125 34.625 
Q 24.75 34.625 20.71875 30.859375 
Q 16.703125 27.09375 16.703125 20.515625 
Q 16.703125 13.921875 20.71875 10.15625 
Q 24.75 6.390625 31.78125 6.390625 
Q 38.8125 6.390625 42.859375 10.171875 
Q 46.921875 13.96875 46.921875 20.515625 
Q 46.921875 27.09375 42.890625 30.859375 
Q 38.875 34.625 31.78125 34.625 
z
M 21.921875 38.8125 
Q 15.578125 40.375 12.03125 44.71875 
Q 8.5 49.078125 8.5 55.328125 
Q 8.5 64.0625 14.71875 69.140625 
Q 20.953125 74.21875 31.78125 74.21875 
Q 42.671875 74.21875 48.875 69.140625 
Q 55.078125 64.0625 55.078125 55.328125 
Q 55.078125 49.078125 51.53125 44.71875 
Q 48 40.375 41.703125 38.8125 
Q 48.828125 37.15625 52.796875 32.3125 
Q 56.78125 27.484375 56.78125 20.515625 
Q 56.78125 9.90625 50.3125 4.234375 
Q 43.84375 -1.421875 31.78125 -1.421875 
Q 19.734375 -1.421875 13.25 4.234375 
Q 6.78125 9.90625 6.78125 20.515625 
Q 6.78125 27.484375 10.78125 32.3125 
Q 14.796875 37.15625 21.921875 38.8125 
z
M 18.3125 54.390625 
Q 18.3125 48.734375 21.84375 45.5625 
Q 25.390625 42.390625 31.78125 42.390625 
Q 38.140625 42.390625 41.71875 45.5625 
Q 45.3125 48.734375 45.3125 54.390625 
Q 45.3125 60.0625 41.71875 63.234375 
Q 38.140625 66.40625 31.78125 66.40625 
Q 25.390625 66.40625 21.84375 63.234375 
Q 18.3125 60.0625 18.3125 54.390625 
z
" id="DejaVuSans-56"/>
       </defs>
       <use xlink:href="#DejaVuSans-56"/>
       <use x="63.623047" xlink:href="#DejaVuSans-48"/>
      </g>
     </g>
    </g>
    <g id="xtick_6">
     <g id="line2d_6">
      <g>
       <use style="stroke:#000000;stroke-width:0.8;" x="353.749935" xlink:href="#m782a9ac3cb" y="273.312"/>
      </g>
     </g>
     <g id="text_6">
      <!-- 100 -->
      <g transform="translate(344.206185 287.910437)scale(0.1 -0.1)">
       <defs>
        <path d="M 12.40625 8.296875 
L 28.515625 8.296875 
L 28.515625 63.921875 
L 10.984375 60.40625 
L 10.984375 69.390625 
L 28.421875 72.90625 
L 38.28125 72.90625 
L 38.28125 8.296875 
L 54.390625 8.296875 
L 54.390625 0 
L 12.40625 0 
z
" id="DejaVuSans-49"/>
       </defs>
       <use xlink:href="#DejaVuSans-49"/>
       <use x="63.623047" xlink:href="#DejaVuSans-48"/>
       <use x="127.246094" xlink:href="#DejaVuSans-48"/>
      </g>
     </g>
    </g>
    <g id="text_7">
     <!-- 1st PC: 98.29 % -->
     <g transform="translate(159.505587 307.120225)scale(0.1728 -0.1728)">
      <defs>
       <path d="M 44.28125 53.078125 
L 44.28125 44.578125 
Q 40.484375 46.53125 36.375 47.5 
Q 32.28125 48.484375 27.875 48.484375 
Q 21.1875 48.484375 17.84375 46.4375 
Q 14.5 44.390625 14.5 40.28125 
Q 14.5 37.15625 16.890625 35.375 
Q 19.28125 33.59375 26.515625 31.984375 
L 29.59375 31.296875 
Q 39.15625 29.25 43.1875 25.515625 
Q 47.21875 21.78125 47.21875 15.09375 
Q 47.21875 7.46875 41.1875 3.015625 
Q 35.15625 -1.421875 24.609375 -1.421875 
Q 20.21875 -1.421875 15.453125 -0.5625 
Q 10.6875 0.296875 5.421875 2 
L 5.421875 11.28125 
Q 10.40625 8.6875 15.234375 7.390625 
Q 20.0625 6.109375 24.8125 6.109375 
Q 31.15625 6.109375 34.5625 8.28125 
Q 37.984375 10.453125 37.984375 14.40625 
Q 37.984375 18.0625 35.515625 20.015625 
Q 33.0625 21.96875 24.703125 23.78125 
L 21.578125 24.515625 
Q 13.234375 26.265625 9.515625 29.90625 
Q 5.8125 33.546875 5.8125 39.890625 
Q 5.8125 47.609375 11.28125 51.796875 
Q 16.75 56 26.8125 56 
Q 31.78125 56 36.171875 55.265625 
Q 40.578125 54.546875 44.28125 53.078125 
z
" id="DejaVuSans-115"/>
       <path d="M 18.3125 70.21875 
L 18.3125 54.6875 
L 36.8125 54.6875 
L 36.8125 47.703125 
L 18.3125 47.703125 
L 18.3125 18.015625 
Q 18.3125 11.328125 20.140625 9.421875 
Q 21.96875 7.515625 27.59375 7.515625 
L 36.8125 7.515625 
L 36.8125 0 
L 27.59375 0 
Q 17.1875 0 13.234375 3.875 
Q 9.28125 7.765625 9.28125 18.015625 
L 9.28125 47.703125 
L 2.6875 47.703125 
L 2.6875 54.6875 
L 9.28125 54.6875 
L 9.28125 70.21875 
z
" id="DejaVuSans-116"/>
       <path id="DejaVuSans-32"/>
       <path d="M 19.671875 64.796875 
L 19.671875 37.40625 
L 32.078125 37.40625 
Q 38.96875 37.40625 42.71875 40.96875 
Q 46.484375 44.53125 46.484375 51.125 
Q 46.484375 57.671875 42.71875 61.234375 
Q 38.96875 64.796875 32.078125 64.796875 
z
M 9.8125 72.90625 
L 32.078125 72.90625 
Q 44.34375 72.90625 50.609375 67.359375 
Q 56.890625 61.8125 56.890625 51.125 
Q 56.890625 40.328125 50.609375 34.8125 
Q 44.34375 29.296875 32.078125 29.296875 
L 19.671875 29.296875 
L 19.671875 0 
L 9.8125 0 
z
" id="DejaVuSans-80"/>
       <path d="M 64.40625 67.28125 
L 64.40625 56.890625 
Q 59.421875 61.53125 53.78125 63.8125 
Q 48.140625 66.109375 41.796875 66.109375 
Q 29.296875 66.109375 22.65625 58.46875 
Q 16.015625 50.828125 16.015625 36.375 
Q 16.015625 21.96875 22.65625 14.328125 
Q 29.296875 6.6875 41.796875 6.6875 
Q 48.140625 6.6875 53.78125 8.984375 
Q 59.421875 11.28125 64.40625 15.921875 
L 64.40625 5.609375 
Q 59.234375 2.09375 53.4375 0.328125 
Q 47.65625 -1.421875 41.21875 -1.421875 
Q 24.65625 -1.421875 15.125 8.703125 
Q 5.609375 18.84375 5.609375 36.375 
Q 5.609375 53.953125 15.125 64.078125 
Q 24.65625 74.21875 41.21875 74.21875 
Q 47.75 74.21875 53.53125 72.484375 
Q 59.328125 70.75 64.40625 67.28125 
z
" id="DejaVuSans-67"/>
       <path d="M 11.71875 12.40625 
L 22.015625 12.40625 
L 22.015625 0 
L 11.71875 0 
z
M 11.71875 51.703125 
L 22.015625 51.703125 
L 22.015625 39.3125 
L 11.71875 39.3125 
z
" id="DejaVuSans-58"/>
       <path d="M 10.984375 1.515625 
L 10.984375 10.5 
Q 14.703125 8.734375 18.5 7.8125 
Q 22.3125 6.890625 25.984375 6.890625 
Q 35.75 6.890625 40.890625 13.453125 
Q 46.046875 20.015625 46.78125 33.40625 
Q 43.953125 29.203125 39.59375 26.953125 
Q 35.25 24.703125 29.984375 24.703125 
Q 19.046875 24.703125 12.671875 31.3125 
Q 6.296875 37.9375 6.296875 49.421875 
Q 6.296875 60.640625 12.9375 67.421875 
Q 19.578125 74.21875 30.609375 74.21875 
Q 43.265625 74.21875 49.921875 64.515625 
Q 56.59375 54.828125 56.59375 36.375 
Q 56.59375 19.140625 48.40625 8.859375 
Q 40.234375 -1.421875 26.421875 -1.421875 
Q 22.703125 -1.421875 18.890625 -0.6875 
Q 15.09375 0.046875 10.984375 1.515625 
z
M 30.609375 32.421875 
Q 37.25 32.421875 41.125 36.953125 
Q 45.015625 41.5 45.015625 49.421875 
Q 45.015625 57.28125 41.125 61.84375 
Q 37.25 66.40625 30.609375 66.40625 
Q 23.96875 66.40625 20.09375 61.84375 
Q 16.21875 57.28125 16.21875 49.421875 
Q 16.21875 41.5 20.09375 36.953125 
Q 23.96875 32.421875 30.609375 32.421875 
z
" id="DejaVuSans-57"/>
       <path d="M 10.6875 12.40625 
L 21 12.40625 
L 21 0 
L 10.6875 0 
z
" id="DejaVuSans-46"/>
       <path d="M 72.703125 32.078125 
Q 68.453125 32.078125 66.03125 28.46875 
Q 63.625 24.859375 63.625 18.40625 
Q 63.625 12.0625 66.03125 8.421875 
Q 68.453125 4.78125 72.703125 4.78125 
Q 76.859375 4.78125 79.265625 8.421875 
Q 81.6875 12.0625 81.6875 18.40625 
Q 81.6875 24.8125 79.265625 28.4375 
Q 76.859375 32.078125 72.703125 32.078125 
z
M 72.703125 38.28125 
Q 80.421875 38.28125 84.953125 32.90625 
Q 89.5 27.546875 89.5 18.40625 
Q 89.5 9.28125 84.9375 3.921875 
Q 80.375 -1.421875 72.703125 -1.421875 
Q 64.890625 -1.421875 60.34375 3.921875 
Q 55.8125 9.28125 55.8125 18.40625 
Q 55.8125 27.59375 60.375 32.9375 
Q 64.9375 38.28125 72.703125 38.28125 
z
M 22.3125 68.015625 
Q 18.109375 68.015625 15.6875 64.375 
Q 13.28125 60.75 13.28125 54.390625 
Q 13.28125 47.953125 15.671875 44.328125 
Q 18.0625 40.71875 22.3125 40.71875 
Q 26.5625 40.71875 28.96875 44.328125 
Q 31.390625 47.953125 31.390625 54.390625 
Q 31.390625 60.6875 28.953125 64.34375 
Q 26.515625 68.015625 22.3125 68.015625 
z
M 66.40625 74.21875 
L 74.21875 74.21875 
L 28.609375 -1.421875 
L 20.796875 -1.421875 
z
M 22.3125 74.21875 
Q 30.03125 74.21875 34.609375 68.875 
Q 39.203125 63.53125 39.203125 54.390625 
Q 39.203125 45.171875 34.640625 39.84375 
Q 30.078125 34.515625 22.3125 34.515625 
Q 14.546875 34.515625 10.03125 39.859375 
Q 5.515625 45.21875 5.515625 54.390625 
Q 5.515625 63.484375 10.046875 68.84375 
Q 14.59375 74.21875 22.3125 74.21875 
z
" id="DejaVuSans-37"/>
      </defs>
      <use xlink:href="#DejaVuSans-49"/>
      <use x="63.623047" xlink:href="#DejaVuSans-115"/>
      <use x="115.722656" xlink:href="#DejaVuSans-116"/>
      <use x="154.931641" xlink:href="#DejaVuSans-32"/>
      <use x="186.71875" xlink:href="#DejaVuSans-80"/>
      <use x="247.021484" xlink:href="#DejaVuSans-67"/>
      <use x="316.845703" xlink:href="#DejaVuSans-58"/>
      <use x="350.537109" xlink:href="#DejaVuSans-32"/>
      <use x="382.324219" xlink:href="#DejaVuSans-57"/>
      <use x="445.947266" xlink:href="#DejaVuSans-56"/>
      <use x="509.570312" xlink:href="#DejaVuSans-46"/>
      <use x="541.357422" xlink:href="#DejaVuSans-50"/>
      <use x="604.980469" xlink:href="#DejaVuSans-57"/>
      <use x="668.603516" xlink:href="#DejaVuSans-32"/>
      <use x="700.390625" xlink:href="#DejaVuSans-37"/>
     </g>
    </g>
   </g>
   <g id="matplotlib.axis_2">
    <g id="ytick_1">
     <g id="line2d_7">
      <defs>
       <path d="M 0 0 
L -3.5 0 
" id="mc7846c9bf1" style="stroke:#000000;stroke-width:0.8;"/>
      </defs>
      <g>
       <use style="stroke:#000000;stroke-width:0.8;" x="49.665988" xlink:href="#mc7846c9bf1" y="271.016403"/>
      </g>
     </g>
     <g id="text_8">
      <!-- −8 -->
      <g transform="translate(27.9238 274.815622)scale(0.1 -0.1)">
       <defs>
        <path d="M 10.59375 35.5 
L 73.1875 35.5 
L 73.1875 27.203125 
L 10.59375 27.203125 
z
" id="DejaVuSans-8722"/>
       </defs>
       <use xlink:href="#DejaVuSans-8722"/>
       <use x="83.789062" xlink:href="#DejaVuSans-56"/>
      </g>
     </g>
    </g>
    <g id="ytick_2">
     <g id="line2d_8">
      <g>
       <use style="stroke:#000000;stroke-width:0.8;" x="49.665988" xlink:href="#mc7846c9bf1" y="231.02832"/>
      </g>
     </g>
     <g id="text_9">
      <!-- −6 -->
      <g transform="translate(27.9238 234.827538)scale(0.1 -0.1)">
       <use xlink:href="#DejaVuSans-8722"/>
       <use x="83.789062" xlink:href="#DejaVuSans-54"/>
      </g>
     </g>
    </g>
    <g id="ytick_3">
     <g id="line2d_9">
      <g>
       <use style="stroke:#000000;stroke-width:0.8;" x="49.665988" xlink:href="#mc7846c9bf1" y="191.040236"/>
      </g>
     </g>
     <g id="text_10">
      <!-- −4 -->
      <g transform="translate(27.9238 194.839455)scale(0.1 -0.1)">
       <use xlink:href="#DejaVuSans-8722"/>
       <use x="83.789062" xlink:href="#DejaVuSans-52"/>
      </g>
     </g>
    </g>
    <g id="ytick_4">
     <g id="line2d_10">
      <g>
       <use style="stroke:#000000;stroke-width:0.8;" x="49.665988" xlink:href="#mc7846c9bf1" y="151.052153"/>
      </g>
     </g>
     <g id="text_11">
      <!-- −2 -->
      <g transform="translate(27.9238 154.851371)scale(0.1 -0.1)">
       <use xlink:href="#DejaVuSans-8722"/>
       <use x="83.789062" xlink:href="#DejaVuSans-50"/>
      </g>
     </g>
    </g>
    <g id="ytick_5">
     <g id="line2d_11">
      <g>
       <use style="stroke:#000000;stroke-width:0.8;" x="49.665988" xlink:href="#mc7846c9bf1" y="111.064069"/>
      </g>
     </g>
     <g id="text_12">
      <!-- 0 -->
      <g transform="translate(36.303488 114.863288)scale(0.1 -0.1)">
       <use xlink:href="#DejaVuSans-48"/>
      </g>
     </g>
    </g>
    <g id="ytick_6">
     <g id="line2d_12">
      <g>
       <use style="stroke:#000000;stroke-width:0.8;" x="49.665988" xlink:href="#mc7846c9bf1" y="71.075985"/>
      </g>
     </g>
     <g id="text_13">
      <!-- 2 -->
      <g transform="translate(36.303488 74.875204)scale(0.1 -0.1)">
       <use xlink:href="#DejaVuSans-50"/>
      </g>
     </g>
    </g>
    <g id="ytick_7">
     <g id="line2d_13">
      <g>
       <use style="stroke:#000000;stroke-width:0.8;" x="49.665988" xlink:href="#mc7846c9bf1" y="31.087902"/>
      </g>
     </g>
     <g id="text_14">
      <!-- 4 -->
      <g transform="translate(36.303488 34.887121)scale(0.1 -0.1)">
       <use xlink:href="#DejaVuSans-52"/>
      </g>
     </g>
    </g>
    <g id="text_15">
     <!-- 2nd PC: 0.80 % -->
     <g transform="translate(20.3301 206.5518)rotate(-90)scale(0.1728 -0.1728)">
      <defs>
       <path d="M 54.890625 33.015625 
L 54.890625 0 
L 45.90625 0 
L 45.90625 32.71875 
Q 45.90625 40.484375 42.875 44.328125 
Q 39.84375 48.1875 33.796875 48.1875 
Q 26.515625 48.1875 22.3125 43.546875 
Q 18.109375 38.921875 18.109375 30.90625 
L 18.109375 0 
L 9.078125 0 
L 9.078125 54.6875 
L 18.109375 54.6875 
L 18.109375 46.1875 
Q 21.34375 51.125 25.703125 53.5625 
Q 30.078125 56 35.796875 56 
Q 45.21875 56 50.046875 50.171875 
Q 54.890625 44.34375 54.890625 33.015625 
z
" id="DejaVuSans-110"/>
       <path d="M 45.40625 46.390625 
L 45.40625 75.984375 
L 54.390625 75.984375 
L 54.390625 0 
L 45.40625 0 
L 45.40625 8.203125 
Q 42.578125 3.328125 38.25 0.953125 
Q 33.9375 -1.421875 27.875 -1.421875 
Q 17.96875 -1.421875 11.734375 6.484375 
Q 5.515625 14.40625 5.515625 27.296875 
Q 5.515625 40.1875 11.734375 48.09375 
Q 17.96875 56 27.875 56 
Q 33.9375 56 38.25 53.625 
Q 42.578125 51.265625 45.40625 46.390625 
z
M 14.796875 27.296875 
Q 14.796875 17.390625 18.875 11.75 
Q 22.953125 6.109375 30.078125 6.109375 
Q 37.203125 6.109375 41.296875 11.75 
Q 45.40625 17.390625 45.40625 27.296875 
Q 45.40625 37.203125 41.296875 42.84375 
Q 37.203125 48.484375 30.078125 48.484375 
Q 22.953125 48.484375 18.875 42.84375 
Q 14.796875 37.203125 14.796875 27.296875 
z
" id="DejaVuSans-100"/>
      </defs>
      <use xlink:href="#DejaVuSans-50"/>
      <use x="63.623047" xlink:href="#DejaVuSans-110"/>
      <use x="127.001953" xlink:href="#DejaVuSans-100"/>
      <use x="190.478516" xlink:href="#DejaVuSans-32"/>
      <use x="222.265625" xlink:href="#DejaVuSans-80"/>
      <use x="282.568359" xlink:href="#DejaVuSans-67"/>
      <use x="352.392578" xlink:href="#DejaVuSans-58"/>
      <use x="386.083984" xlink:href="#DejaVuSans-32"/>
      <use x="417.871094" xlink:href="#DejaVuSans-48"/>
      <use x="481.494141" xlink:href="#DejaVuSans-46"/>
      <use x="513.28125" xlink:href="#DejaVuSans-56"/>
      <use x="576.904297" xlink:href="#DejaVuSans-48"/>
      <use x="640.527344" xlink:href="#DejaVuSans-32"/>
      <use x="672.314453" xlink:href="#DejaVuSans-37"/>
     </g>
    </g>
   </g>
   <g id="LineCollection_1"/>
   <g id="LineCollection_2"/>
   <g id="LineCollection_3">
    <path clip-path="url(#peb06bf3d69)" d="M 59.339389 231.02832 
L 59.319446 230.55044 
L 59.168817 225.696575 
L 59.083174 222.487968 
" style="fill:none;stroke:#482576;stroke-width:1.5;"/>
    <path clip-path="url(#peb06bf3d69)" d="M 58.757231 207.537754 
L 58.700823 204.369597 
L 58.616554 199.037853 
L 58.541143 193.706108 
L 58.473208 188.374364 
L 58.411599 183.042619 
L 58.355104 177.710875 
L 58.3541 177.609366 
L 58.309538 172.37913 
L 58.267653 167.047386 
L 58.228919 161.715642 
L 58.193102 156.383897 
L 58.159837 151.052153 
L 58.129062 145.720408 
L 58.100676 140.388664 
L 58.074681 135.056919 
L 58.051021 129.725175 
L 58.029597 124.39343 
L 58.0106 119.061686 
L 57.994288 113.729941 
L 57.980977 108.398197 
L 57.970867 103.066452 
L 57.964592 97.734708 
L 57.962412 92.402963 
L 57.964612 87.071219 
L 57.971702 81.739474 
L 57.984349 76.40773 
L 58.003661 71.075985 
" style="fill:none;stroke:#482576;stroke-width:1.5;"/>
    <path clip-path="url(#peb06bf3d69)" d="M 67.767712 71.075985 
L 68.007559 72.988816 
L 68.342566 76.40773 
L 68.918895 81.739474 
L 68.972905 82.259071 
L 69.330723 87.071219 
L 69.795058 92.402963 
L 69.938251 94.045829 
L 70.163845 97.734708 
L 70.510119 103.066452 
L 70.75619 106.622113 
" style="fill:none;stroke:#482576;stroke-width:1.5;"/>
    <path clip-path="url(#peb06bf3d69)" d="M 71.35577 121.058615 
L 71.462352 124.39343 
L 71.600301 129.725175 
L 71.695605 135.056919 
L 71.740511 140.388664 
L 71.732968 145.720408 
L 71.672427 151.052153 
L 71.564553 156.383897 
L 71.417807 161.715642 
L 71.240314 167.047386 
L 71.040328 172.37913 
L 70.903597 175.711078 
L 70.788022 177.710875 
L 70.464122 183.042619 
L 70.144371 188.374364 
L 69.938251 191.822684 
L 69.787117 193.706108 
L 69.36395 199.037853 
L 68.974135 204.369597 
L 68.972905 204.386293 
L 68.460696 209.701342 
L 68.007559 214.984443 
L 68.002057 215.033086 
L 67.41531 220.364831 
L 67.042213 224.179579 
L 66.847081 225.696575 
L 66.215271 231.02832 
" style="fill:none;stroke:#482576;stroke-width:1.5;"/>
   </g>
   <g id="LineCollection_4">
    <path clip-path="url(#peb06bf3d69)" d="M 52.490404 231.02832 
L 52.523935 225.696575 
L 52.556355 220.364831 
L 52.562025 219.403474 
L 52.587943 215.033086 
L 52.618198 209.701342 
L 52.647075 204.369597 
L 52.674632 199.037853 
L 52.700915 193.706108 
L 52.726009 188.374364 
L 52.749943 183.042619 
L 52.763166 179.949063 
" style="fill:none;stroke:#453781;stroke-width:1.5;"/>
    <path clip-path="url(#peb06bf3d69)" d="M 52.823462 164.80867 
L 52.834805 161.715642 
L 52.853144 156.383897 
L 52.870193 151.052153 
L 52.885864 145.720408 
L 52.900191 140.388664 
L 52.913236 135.056919 
L 52.925061 129.725175 
L 52.935759 124.39343 
L 52.945366 119.061686 
L 52.954087 113.729941 
L 52.962088 108.398197 
L 52.969623 103.066452 
L 52.976948 97.734708 
L 52.984481 92.402963 
L 52.992316 87.071219 
L 53.000368 81.739474 
L 53.008774 76.40773 
L 53.017762 71.075985 
" style="fill:none;stroke:#453781;stroke-width:1.5;"/>
    <path clip-path="url(#peb06bf3d69)" d="M 69.522453 71.075985 
L 69.938251 75.029635 
L 70.046159 76.40773 
L 70.458498 81.739474 
L 70.903597 86.704161 
L 70.927989 87.071219 
L 71.279539 92.402963 
L 71.693715 97.734708 
L 71.868942 99.944619 
L 72.05191 103.066452 
L 72.352955 108.398197 
L 72.459101 110.315477 
" style="fill:none;stroke:#453781;stroke-width:1.5;"/>
    <path clip-path="url(#peb06bf3d69)" d="M 73.053653 124.755012 
L 73.181895 129.725175 
L 73.308845 135.056919 
L 73.420368 140.388664 
L 73.508111 145.720408 
L 73.565314 151.052153 
L 73.583435 156.383897 
L 73.555223 161.715642 
L 73.48117 167.047386 
L 73.36651 172.37913 
L 73.218856 177.710875 
L 73.046544 183.042619 
L 72.855754 188.374364 
L 72.834288 188.91678 
L 72.583081 193.706108 
L 72.298722 199.037853 
L 72.015694 204.369597 
L 71.868942 207.093505 
L 71.691905 209.701342 
L 71.333549 215.033086 
L 70.994294 220.364831 
L 70.903597 221.787058 
L 70.598468 225.696575 
L 70.20406 231.02832 
" style="fill:none;stroke:#453781;stroke-width:1.5;"/>
   </g>
   <g id="LineCollection_5">
    <path clip-path="url(#peb06bf3d69)" d="M 71.013753 77.399963 
L 71.314766 81.739474 
L 71.751976 87.071219 
L 71.868942 88.438921 
L 72.126805 92.402963 
L 72.514587 97.734708 
L 72.834288 101.780673 
L 72.911478 103.066452 
L 73.192642 108.398197 
L 73.457023 113.729941 
L 73.704814 119.061686 
L 73.799634 121.362236 
L 73.879825 124.39343 
L 74.006799 129.725175 
L 74.131443 135.056919 
L 74.252962 140.388664 
L 74.365909 145.720408 
L 74.462807 151.052153 
L 74.536743 156.383897 
L 74.579529 161.715642 
L 74.582907 167.047386 
L 74.541532 172.37913 
L 74.455689 177.710875 
L 74.3306 183.042619 
L 74.173472 188.374364 
L 73.992218 193.706108 
L 73.799634 198.889717 
L 73.792391 199.037853 
L 73.512713 204.369597 
L 73.229976 209.701342 
L 72.947424 215.033086 
L 72.834288 217.118887 
L 72.619523 220.364831 
L 72.271211 225.696575 
L 71.936593 231.02832 
" style="fill:none;stroke:#404688;stroke-width:1.5;"/>
   </g>
   <g id="LineCollection_6">
    <path clip-path="url(#peb06bf3d69)" d="M 71.113021 71.075985 
L 71.524262 76.40773 
L 71.868942 80.439417 
L 71.953839 81.739474 
L 72.318691 87.071219 
L 72.753566 92.402963 
L 72.834288 93.377615 
L 73.114555 97.734708 
L 73.484009 103.066452 
L 73.799634 107.776614 
L 73.830315 108.398197 
L 73.964981 111.753338 
" style="fill:none;stroke:#39558c;stroke-width:1.5;"/>
    <path clip-path="url(#peb06bf3d69)" d="M 74.465524 126.435709 
L 74.568744 129.725175 
L 74.742429 135.056919 
L 74.76498 135.781835 
L 74.856491 140.388664 
L 74.958705 145.720408 
L 75.053722 151.052153 
L 75.137927 156.383897 
L 75.206561 161.715642 
L 75.252493 167.047386 
L 75.26753 172.37913 
L 75.2446 177.710875 
L 75.181164 183.042619 
L 75.07937 188.374364 
L 74.944708 193.706108 
L 74.785327 199.037853 
L 74.76498 199.642817 
L 74.550505 204.369597 
L 74.296772 209.701342 
L 74.037053 215.033086 
L 73.799634 219.857051 
L 73.76866 220.364831 
L 73.433362 225.696575 
L 73.106358 231.02832 
" style="fill:none;stroke:#39558c;stroke-width:1.5;"/>
   </g>
   <g id="LineCollection_7">
    <path clip-path="url(#peb06bf3d69)" d="M 71.60946 71.075985 
L 71.868942 74.079918 
L 72.022218 76.40773 
L 72.396357 81.739474 
L 72.834288 86.984714 
L 72.839966 87.071219 
L 73.192059 92.402963 
L 73.601337 97.734708 
L 73.799634 100.271801 
L 73.969105 103.066452 
L 74.252039 108.398197 
L 74.503079 113.729941 
L 74.722668 119.061686 
L 74.76498 120.243811 
L 74.860486 124.39343 
L 74.982601 129.725175 
L 75.111555 135.056919 
L 75.246637 140.388664 
L 75.383704 145.720408 
L 75.51806 151.052153 
L 75.644576 156.383897 
L 75.730326 160.486503 
L 75.746813 161.715642 
L 75.801501 167.047386 
L 75.83767 172.37913 
L 75.848373 177.710875 
L 75.828376 183.042619 
L 75.775238 188.374364 
L 75.730326 191.220356 
L 75.668606 193.706108 
L 75.501106 199.037853 
L 75.308692 204.369597 
L 75.100183 209.701342 
L 74.882211 215.033086 
L 74.76498 217.793312 
L 74.622515 220.364831 
L 74.414731 224.033813 
" style="fill:none;stroke:#33638d;stroke-width:1.5;"/>
   </g>
   <g id="LineCollection_8">
    <path clip-path="url(#peb06bf3d69)" d="M 72.916294 82.94032 
L 73.18782 87.071219 
L 73.602721 92.402963 
L 73.799634 94.787533 
L 73.994076 97.734708 
L 74.346781 103.066452 
L 74.673763 108.398197 
L 74.76498 110.185022 
L 74.890541 113.729941 
L 75.041277 119.061686 
L 75.175635 124.39343 
L 75.316996 129.725175 
L 75.471412 135.056919 
L 75.636783 140.388664 
L 75.730326 143.402378 
L 75.777024 145.720408 
L 75.87929 151.052153 
L 75.978222 156.383897 
L 76.07196 161.715642 
L 76.155404 167.047386 
L 76.221488 172.37913 
L 76.261794 177.710875 
L 76.268176 183.042619 
L 76.235324 188.374364 
L 76.162289 193.706108 
L 76.053522 199.037853 
L 75.91685 204.369597 
L 75.761473 209.701342 
L 75.730326 210.670828 
L 75.531306 215.033086 
L 75.278894 220.364831 
L 75.025652 225.696575 
L 74.777459 231.02832 
" style="fill:none;stroke:#2d718e;stroke-width:1.5;"/>
   </g>
   <g id="LineCollection_9">
    <path clip-path="url(#peb06bf3d69)" d="M 72.352531 71.075985 
L 72.779054 76.40773 
L 72.834288 77.080744 
L 73.133801 81.739474 
L 73.535675 87.071219 
L 73.799634 90.233716 
L 73.945576 92.402963 
L 74.322173 97.734708 
L 74.724457 103.066452 
L 74.76498 103.708509 
L 74.984189 108.398197 
L 75.107238 111.695718 
" style="fill:none;stroke:#287d8e;stroke-width:1.5;"/>
    <path clip-path="url(#peb06bf3d69)" d="M 75.553445 126.473624 
L 75.65139 129.725175 
L 75.730326 132.161636 
L 75.791864 135.056919 
L 75.909048 140.388664 
L 76.030245 145.720408 
L 76.153695 151.052153 
L 76.276622 156.383897 
L 76.397106 161.715642 
L 76.509307 167.047386 
L 76.605306 172.37913 
L 76.675216 177.710875 
L 76.695672 181.116874 
L 76.70292 183.042619 
L 76.695672 188.26772 
L 76.695409 188.374364 
L 76.634514 193.706108 
L 76.528978 199.037853 
L 76.386959 204.369597 
L 76.218563 209.701342 
L 76.034072 215.033086 
L 75.842126 220.364831 
L 75.730326 223.367929 
L 75.608565 225.696575 
L 75.322815 231.02832 
" style="fill:none;stroke:#287d8e;stroke-width:1.5;"/>
   </g>
   <g id="LineCollection_10">
    <path clip-path="url(#peb06bf3d69)" d="M 72.679874 71.075985 
L 72.834288 72.973079 
L 73.052535 76.40773 
L 73.43024 81.739474 
L 73.799634 86.206619 
L 73.857468 87.071219 
L 74.225966 92.402963 
L 74.650269 97.734708 
L 74.76498 99.235202 
L 74.99523 103.066452 
L 75.263899 108.398197 
L 75.395925 111.720937 
" style="fill:none;stroke:#238a8d;stroke-width:1.5;"/>
    <path clip-path="url(#peb06bf3d69)" d="M 75.821441 126.518453 
L 75.887829 129.725175 
L 76.011246 135.056919 
L 76.144136 140.388664 
L 76.283466 145.720408 
L 76.428099 151.052153 
L 76.575023 156.383897 
L 76.695672 160.818914 
L 76.711453 161.715642 
L 76.794597 167.047386 
L 76.868287 172.37913 
L 76.926451 177.710875 
L 76.962002 183.042619 
L 76.968909 188.374364 
L 76.943035 193.706108 
L 76.884103 199.037853 
L 76.795494 204.369597 
L 76.695672 209.098153 
L 76.675654 209.701342 
L 76.472132 215.033086 
L 76.25715 220.364831 
L 76.038322 225.696575 
L 75.821802 231.02832 
" style="fill:none;stroke:#238a8d;stroke-width:1.5;"/>
   </g>
   <g id="LineCollection_11">
    <path clip-path="url(#peb06bf3d69)" d="M 72.952168 71.075985 
L 73.308082 76.40773 
L 73.726679 81.739474 
L 73.799634 82.62173 
L 74.097265 87.071219 
L 74.506356 92.402963 
L 74.76498 95.52988 
L 74.912998 97.734708 
L 75.253155 103.066452 
L 75.543609 108.398197 
L 75.678823 111.630029 
" style="fill:none;stroke:#1f968b;stroke-width:1.5;"/>
    <path clip-path="url(#peb06bf3d69)" d="M 76.0224 126.547622 
L 76.094 129.725175 
L 76.230627 135.056919 
L 76.379225 140.388664 
L 76.536687 145.720408 
L 76.695672 150.848777 
L 76.699807 151.052153 
L 76.80207 156.383897 
L 76.904501 161.715642 
L 77.003564 167.047386 
L 77.094057 172.37913 
L 77.169243 177.710875 
L 77.221083 183.042619 
L 77.242302 188.374364 
L 77.227201 193.706108 
L 77.174263 199.037853 
L 77.086251 204.369597 
L 76.969169 209.701342 
L 76.831212 215.033086 
L 76.695672 219.81226 
L 76.672173 220.364831 
L 76.42764 225.696575 
L 76.183708 231.02832 
" style="fill:none;stroke:#1f968b;stroke-width:1.5;"/>
   </g>
   <g id="LineCollection_12">
    <path clip-path="url(#peb06bf3d69)" d="M 73.175308 71.075985 
L 73.563628 76.40773 
L 73.799634 79.343199 
L 73.954931 81.739474 
L 74.337062 87.071219 
L 74.76498 92.180695 
L 74.780244 92.402963 
L 75.140588 97.734708 
L 75.51108 103.066452 
L 75.730326 106.899174 
L 75.792192 108.398197 
L 75.882675 111.602483 
" style="fill:none;stroke:#20a386;stroke-width:1.5;"/>
    <path clip-path="url(#peb06bf3d69)" d="M 76.222477 126.536176 
L 76.300171 129.725175 
L 76.450009 135.056919 
L 76.614313 140.388664 
L 76.695672 142.95776 
L 76.753475 145.720408 
L 76.865874 151.052153 
L 76.980686 156.383897 
L 77.097548 161.715642 
L 77.21253 167.047386 
L 77.319827 172.37913 
L 77.412036 177.710875 
L 77.480165 183.042619 
L 77.515695 188.374364 
L 77.511366 193.706108 
L 77.464424 199.037853 
L 77.377008 204.369597 
L 77.255194 209.701342 
L 77.107993 215.033086 
L 76.94475 220.364831 
L 76.773264 225.696575 
L 76.695672 227.983964 
L 76.545613 231.02832 
" style="fill:none;stroke:#20a386;stroke-width:1.5;"/>
   </g>
   <g id="LineCollection_13">
    <path clip-path="url(#peb06bf3d69)" d="M 73.398447 71.075985 
L 73.799634 76.190216 
L 73.81328 76.40773 
L 74.160924 81.739474 
L 74.576859 87.071219 
L 74.76498 89.317446 
L 74.976869 92.402963 
L 75.368177 97.734708 
L 75.730326 102.607258 
L 75.757184 103.066452 
L 75.978279 108.398197 
L 76.07002 111.606473 
" style="fill:none;stroke:#29af7f;stroke-width:1.5;"/>
    <path clip-path="url(#peb06bf3d69)" d="M 76.422494 126.524067 
L 76.506342 129.725175 
L 76.669391 135.056919 
L 76.695672 135.882437 
L 76.791054 140.388664 
L 76.908798 145.720408 
L 77.031941 151.052153 
L 77.159303 156.383897 
L 77.290596 161.715642 
L 77.421497 167.047386 
L 77.545597 172.37913 
L 77.654828 177.710875 
L 77.661018 178.125979 
L 77.707011 183.042619 
L 77.736334 188.374364 
L 77.740541 193.706108 
L 77.716928 199.037853 
L 77.665108 204.369597 
L 77.661018 204.649514 
L 77.541218 209.701342 
L 77.384773 215.033086 
L 77.208778 220.364831 
L 77.022325 225.696575 
L 76.832099 231.02832 
" style="fill:none;stroke:#29af7f;stroke-width:1.5;"/>
   </g>
   <g id="LineCollection_14">
    <path clip-path="url(#peb06bf3d69)" d="M 73.621587 71.075985 
L 73.799634 73.34569 
L 73.99173 76.40773 
L 74.366917 81.739474 
L 74.76498 86.536292 
L 74.801492 87.071219 
L 75.173495 92.402963 
L 75.595766 97.734708 
L 75.730326 99.545151 
L 75.936283 103.066452 
L 76.164365 108.398197 
L 76.25737 111.610532 
" style="fill:none;stroke:#3dbc74;stroke-width:1.5;"/>
    <path clip-path="url(#peb06bf3d69)" d="M 76.622145 126.511779 
L 76.695672 129.149595 
L 76.706349 129.725175 
L 76.816781 135.056919 
L 76.936917 140.388664 
L 77.06412 145.720408 
L 77.198008 151.052153 
L 77.337919 156.383897 
L 77.483643 161.715642 
L 77.630464 167.047386 
L 77.661018 168.275098 
L 77.726557 172.37913 
L 77.800616 177.710875 
L 77.859334 183.042619 
L 77.897114 188.374364 
L 77.908537 193.706108 
L 77.890312 199.037853 
L 77.841375 204.369597 
L 77.763451 209.701342 
L 77.661353 215.033086 
L 77.661018 215.047513 
L 77.472805 220.364831 
L 77.271386 225.696575 
L 77.065163 231.02832 
" style="fill:none;stroke:#3dbc74;stroke-width:1.5;"/>
   </g>
   <g id="LineCollection_15">
    <path clip-path="url(#peb06bf3d69)" d="M 74.676322 82.985638 
L 74.76498 84.054001 
L 74.970925 87.071219 
L 75.370121 92.402963 
L 75.730326 96.762062 
L 75.796304 97.734708 
L 76.115382 103.066452 
L 76.350452 108.398197 
L 76.506722 113.729941 
L 76.629522 119.061686 
L 76.695672 121.816 
L 76.736469 124.39343 
L 76.837058 129.725175 
L 76.954372 135.056919 
L 77.08278 140.388664 
L 77.219442 145.720408 
L 77.364075 151.052153 
L 77.516535 156.383897 
L 77.661018 161.229311 
L 77.670516 161.715642 
L 77.767981 167.047386 
L 77.860649 172.37913 
L 77.943867 177.710875 
L 78.011657 183.042619 
L 78.057893 188.374364 
L 78.076533 193.706108 
L 78.063695 199.037853 
L 78.017641 204.369597 
L 77.939711 209.701342 
L 77.834752 215.033086 
L 77.709294 220.364831 
L 77.661018 222.162737 
L 77.520448 225.696575 
L 77.298226 231.02832 
" style="fill:none;stroke:#56c667;stroke-width:1.5;"/>
   </g>
   <g id="LineCollection_16">
    <path clip-path="url(#peb06bf3d69)" d="M 73.987648 71.075985 
L 74.34863 76.40773 
L 74.76498 81.589376 
L 74.77486 81.739474 
L 75.140358 87.071219 
L 75.566747 92.402963 
L 75.730326 94.382553 
L 75.957715 97.734708 
L 76.294481 103.066452 
L 76.536538 108.398197 
L 76.630735 111.573368 
" style="fill:none;stroke:#75d054;stroke-width:1.5;"/>
    <path clip-path="url(#peb06bf3d69)" d="M 76.905238 126.573419 
L 76.967767 129.725175 
L 77.091964 135.056919 
L 77.228643 140.388664 
L 77.374765 145.720408 
L 77.530142 151.052153 
L 77.661018 155.343332 
L 77.681967 156.383897 
L 77.787513 161.715642 
L 77.893263 167.047386 
L 77.994741 172.37913 
L 78.087118 177.710875 
L 78.16398 183.042619 
L 78.218673 188.374364 
L 78.244529 193.706108 
L 78.237079 199.037853 
L 78.193907 204.369597 
L 78.11597 209.701342 
L 78.008151 215.033086 
L 77.877416 220.364831 
L 77.731114 225.696575 
L 77.661018 228.037298 
L 77.53129 231.02832 
" style="fill:none;stroke:#75d054;stroke-width:1.5;"/>
   </g>
   <g id="LineCollection_17">
    <path clip-path="url(#peb06bf3d69)" d="M 74.144055 71.075985 
L 74.52708 76.40773 
L 74.76498 79.368489 
L 74.92105 81.739474 
L 75.30979 87.071219 
L 75.730326 92.064826 
L 75.753804 92.402963 
L 76.119125 97.734708 
L 76.47358 103.066452 
L 76.695672 107.840571 
L 76.713422 108.398197 
L 76.774374 111.544557 
" style="fill:none;stroke:#95d840;stroke-width:1.5;"/>
    <path clip-path="url(#peb06bf3d69)" d="M 77.032774 126.568367 
L 77.098476 129.725175 
L 77.229556 135.056919 
L 77.374506 140.388664 
L 77.530087 145.720408 
L 77.661018 149.981077 
L 77.682913 151.052153 
L 77.791588 156.383897 
L 77.90451 161.715642 
L 78.018544 167.047386 
L 78.128833 172.37913 
L 78.230369 177.710875 
L 78.316303 183.042619 
L 78.379452 188.374364 
L 78.412525 193.706108 
L 78.410462 199.037853 
L 78.370174 204.369597 
L 78.29223 209.701342 
L 78.18155 215.033086 
L 78.045539 220.364831 
L 77.892033 225.696575 
L 77.728631 231.02832 
" style="fill:none;stroke:#95d840;stroke-width:1.5;"/>
   </g>
   <g id="LineCollection_18">
    <path clip-path="url(#peb06bf3d69)" d="M 74.300462 71.075985 
L 74.705531 76.40773 
L 74.76498 77.147602 
L 75.06724 81.739474 
L 75.479223 87.071219 
L 75.730326 90.052916 
L 75.8935 92.402963 
L 76.280536 97.734708 
L 76.652679 103.066452 
L 76.695672 103.990636 
L 76.835972 108.398197 
L 76.896403 111.544826 
" style="fill:none;stroke:#bade28;stroke-width:1.5;"/>
    <path clip-path="url(#peb06bf3d69)" d="M 77.160296 126.563124 
L 77.229185 129.725175 
L 77.367147 135.056919 
L 77.520369 140.388664 
L 77.661018 144.973687 
L 77.67637 145.720408 
L 77.786236 151.052153 
L 77.901209 156.383897 
L 78.021507 161.715642 
L 78.143826 167.047386 
L 78.262926 172.37913 
L 78.37362 177.710875 
L 78.468625 183.042619 
L 78.540231 188.374364 
L 78.580521 193.706108 
L 78.583846 199.037853 
L 78.54644 204.369597 
L 78.468489 209.701342 
L 78.354949 215.033086 
L 78.213662 220.364831 
L 78.052952 225.696575 
L 77.881125 231.02832 
" style="fill:none;stroke:#bade28;stroke-width:1.5;"/>
   </g>
   <g id="LineCollection_19">
    <path clip-path="url(#peb06bf3d69)" d="M 78.626363 210.531927 
L 78.574185 212.928115 
" style="fill:none;stroke:#dde318;stroke-width:1.5;"/>
    <path clip-path="url(#peb06bf3d69)" d="M 78.145057 227.732068 
L 78.033619 231.02832 
" style="fill:none;stroke:#dde318;stroke-width:1.5;"/>
    <path clip-path="url(#peb06bf3d69)" d="M 74.456869 71.075985 
L 74.76498 75.059304 
L 74.849622 76.40773 
L 75.21343 81.739474 
L 75.648655 87.071219 
L 75.730326 88.041005 
L 76.033195 92.402963 
L 76.441946 97.734708 
L 76.681586 101.129325 
" style="fill:none;stroke:#dde318;stroke-width:1.5;"/>
    <path clip-path="url(#peb06bf3d69)" d="M 77.093831 115.90449 
L 77.142909 119.061686 
L 77.238545 124.39343 
L 77.359894 129.725175 
L 77.504739 135.056919 
L 77.661018 140.225992 
L 77.664334 140.388664 
L 77.774134 145.720408 
L 77.88956 151.052153 
L 78.010831 156.383897 
L 78.138503 161.715642 
L 78.269108 167.047386 
L 78.397018 172.37913 
L 78.51687 177.710875 
L 78.620948 183.042619 
L 78.626363 183.421836 
" style="fill:none;stroke:#dde318;stroke-width:1.5;"/>
   </g>
   <g id="LineCollection_20">
    <path clip-path="url(#peb06bf3d69)" d="M 78.626363 217.638933 
L 78.607192 218.322458 
" style="fill:none;stroke:#fde725;stroke-width:1.5;"/>
    <path clip-path="url(#peb06bf3d69)" d="M 74.613276 71.075985 
L 74.76498 73.037244 
L 74.976548 76.40773 
L 75.359619 81.739474 
L 75.730326 86.166853 
L 75.79293 87.071219 
L 76.172891 92.402963 
L 76.603357 97.734708 
L 76.695672 99.042394 
L 76.91242 103.066452 
L 77.081072 108.398197 
L 77.140462 111.545391 
" style="fill:none;stroke:#fde725;stroke-width:1.5;"/>
    <path clip-path="url(#peb06bf3d69)" d="M 77.415296 126.552073 
L 77.490603 129.725175 
L 77.642331 135.056919 
L 77.661018 135.675002 
L 77.757123 140.388664 
L 77.871897 145.720408 
L 77.992883 151.052153 
L 78.120452 156.383897 
L 78.2555 161.715642 
L 78.394389 167.047386 
L 78.53111 172.37913 
L 78.626363 176.382728 
" style="fill:none;stroke:#fde725;stroke-width:1.5;"/>
   </g>
   <g id="LineCollection_21">
    <path clip-path="url(#peb06bf3d69)" d="M 78.626363 222.987131 
L 78.53571 225.696575 
L 78.338608 231.02832 
" style="fill:none;stroke:#440154;stroke-width:1.5;"/>
    <path clip-path="url(#peb06bf3d69)" d="M 74.768324 71.075985 
L 75.103474 76.40773 
L 75.505809 81.739474 
L 75.730326 84.420896 
L 75.913793 87.071219 
L 76.312586 92.402963 
L 76.695672 97.014795 
L 76.744828 97.734708 
L 77.035576 103.066452 
L 77.203622 108.398197 
L 77.242447 110.474009 
" style="fill:none;stroke:#440154;stroke-width:1.5;"/>
    <path clip-path="url(#peb06bf3d69)" d="M 77.569066 127.6105 
L 77.621312 129.725175 
L 77.661018 131.111882 
L 77.737392 135.056919 
L 77.849912 140.388664 
L 77.969661 145.720408 
L 78.096207 151.052153 
L 78.230073 156.383897 
L 78.372497 161.715642 
L 78.519671 167.047386 
L 78.626363 171.025998 
" style="fill:none;stroke:#440154;stroke-width:1.5;"/>
   </g>
   <g id="LineCollection_22"/>
   <g id="LineCollection_23"/>
   <g id="LineCollection_24"/>
   <g id="LineCollection_25"/>
   <g id="LineCollection_26"/>
   <g id="LineCollection_27"/>
   <g id="LineCollection_28"/>
   <g id="line2d_14">
    <path clip-path="url(#peb06bf3d69)" d="M 389.780273 19.296 
L 381.289999 27.847167 
L 372.078986 36.615015 
L 362.990931 45.7823 
L 354.047047 55.655366 
L 345.246404 66.031045 
L 336.590086 76.514459 
L 328.069652 87.995737 
L 319.68866 99.091775 
L 311.444326 110.132525 
L 303.324342 122.084524 
L 295.330808 133.612605 
L 287.475677 144.733137 
L 279.753205 155.431255 
L 272.140677 166.463891 
L 264.661736 177.069118 
L 257.311366 186.911637 
L 250.082099 196.327748 
L 242.971095 205.434378 
L 235.996837 213.663137 
L 229.128547 221.664655 
L 222.38158 228.660213 
L 215.754104 235.172812 
L 209.237986 240.993021 
L 202.828234 246.197778 
L 196.528161 250.927461 
L 190.355234 254.218469 
L 184.269063 256.913379 
L 178.277061 259.05906 
L 172.414448 260.660974 
L 166.633343 261.216 
L 160.97418 260.692818 
L 155.411573 260.194395 
L 149.945338 258.803904 
L 144.59175 255.713527 
L 139.314775 251.888669 
L 134.151944 247.616299 
L 129.070483 242.235708 
L 124.084456 236.380595 
L 119.190035 229.497814 
L 114.365252 221.571699 
L 109.652604 213.44647 
L 105.01923 204.80353 
L 100.461959 195.5854 
L 95.991751 186.18022 
L 91.591021 175.343215 
L 87.274784 164.332816 
L 83.035803 153.152762 
L 78.825035 139.515044 
L 74.753702 128.666324 
L 74.364284 128.401782 
L 73.970017 127.997219 
L 73.572572 127.444098 
L 73.178518 126.849668 
L 72.784738 126.207673 
L 72.390852 125.528549 
L 71.998102 124.833785 
L 71.605468 124.176157 
L 71.215589 123.463905 
L 70.826468 122.768866 
L 70.437951 122.077988 
L 70.051327 121.332654 
L 69.66336 120.637468 
L 69.275748 119.942476 
L 68.890343 119.22227 
L 68.505157 118.507334 
L 68.121571 117.864752 
L 67.738664 117.126259 
L 67.357833 116.43153 
L 66.976441 115.675986 
L 66.597615 114.973826 
L 66.21748 114.175424 
L 65.838033 113.526531 
L 65.460262 112.697407 
L 65.083548 112.013889 
L 65.04649 111.972509 
L 65.008903 111.928854 
L 64.971078 111.883425 
L 64.933323 111.836781 
L 64.89576 111.797993 
L 64.857709 111.75555 
L 64.820202 111.715214 
L 64.782704 111.677701 
L 64.745027 111.647375 
L 64.707246 111.614233 
L 64.669705 111.571716 
L 64.632283 111.52514 
L 64.594785 111.483961 
L 64.557047 111.442119 
L 64.519598 111.410379 
L 64.482179 111.367168 
L 64.444988 111.32615 
L 64.407482 111.295532 
L 64.370041 111.267546 
L 64.332448 111.235972 
L 64.295068 111.190858 
L 64.257774 111.152989 
L 64.220685 111.120222 
L 64.183394 111.095201 
" style="fill:none;stroke:#1f77b4;stroke-linecap:square;stroke-width:1.5;"/>
    <defs>
     <path d="M 0 1.5 
C 0.397805 1.5 0.77937 1.341951 1.06066 1.06066 
C 1.341951 0.77937 1.5 0.397805 1.5 0 
C 1.5 -0.397805 1.341951 -0.77937 1.06066 -1.06066 
C 0.77937 -1.341951 0.397805 -1.5 0 -1.5 
C -0.397805 -1.5 -0.77937 -1.341951 -1.06066 -1.06066 
C -1.341951 -0.77937 -1.5 -0.397805 -1.5 0 
C -1.5 0.397805 -1.341951 0.77937 -1.06066 1.06066 
C -0.77937 1.341951 -0.397805 1.5 0 1.5 
z
" id="mb007d07e6e" style="stroke:#1f77b4;"/>
    </defs>
    <g clip-path="url(#peb06bf3d69)">
     <use style="fill:#1f77b4;stroke:#1f77b4;" x="389.780273" xlink:href="#mb007d07e6e" y="19.296"/>
     <use style="fill:#1f77b4;stroke:#1f77b4;" x="381.289999" xlink:href="#mb007d07e6e" y="27.847167"/>
     <use style="fill:#1f77b4;stroke:#1f77b4;" x="372.078986" xlink:href="#mb007d07e6e" y="36.615015"/>
     <use style="fill:#1f77b4;stroke:#1f77b4;" x="362.990931" xlink:href="#mb007d07e6e" y="45.7823"/>
     <use style="fill:#1f77b4;stroke:#1f77b4;" x="354.047047" xlink:href="#mb007d07e6e" y="55.655366"/>
     <use style="fill:#1f77b4;stroke:#1f77b4;" x="345.246404" xlink:href="#mb007d07e6e" y="66.031045"/>
     <use style="fill:#1f77b4;stroke:#1f77b4;" x="336.590086" xlink:href="#mb007d07e6e" y="76.514459"/>
     <use style="fill:#1f77b4;stroke:#1f77b4;" x="328.069652" xlink:href="#mb007d07e6e" y="87.995737"/>
     <use style="fill:#1f77b4;stroke:#1f77b4;" x="319.68866" xlink:href="#mb007d07e6e" y="99.091775"/>
     <use style="fill:#1f77b4;stroke:#1f77b4;" x="311.444326" xlink:href="#mb007d07e6e" y="110.132525"/>
     <use style="fill:#1f77b4;stroke:#1f77b4;" x="303.324342" xlink:href="#mb007d07e6e" y="122.084524"/>
     <use style="fill:#1f77b4;stroke:#1f77b4;" x="295.330808" xlink:href="#mb007d07e6e" y="133.612605"/>
     <use style="fill:#1f77b4;stroke:#1f77b4;" x="287.475677" xlink:href="#mb007d07e6e" y="144.733137"/>
     <use style="fill:#1f77b4;stroke:#1f77b4;" x="279.753205" xlink:href="#mb007d07e6e" y="155.431255"/>
     <use style="fill:#1f77b4;stroke:#1f77b4;" x="272.140677" xlink:href="#mb007d07e6e" y="166.463891"/>
     <use style="fill:#1f77b4;stroke:#1f77b4;" x="264.661736" xlink:href="#mb007d07e6e" y="177.069118"/>
     <use style="fill:#1f77b4;stroke:#1f77b4;" x="257.311366" xlink:href="#mb007d07e6e" y="186.911637"/>
     <use style="fill:#1f77b4;stroke:#1f77b4;" x="250.082099" xlink:href="#mb007d07e6e" y="196.327748"/>
     <use style="fill:#1f77b4;stroke:#1f77b4;" x="242.971095" xlink:href="#mb007d07e6e" y="205.434378"/>
     <use style="fill:#1f77b4;stroke:#1f77b4;" x="235.996837" xlink:href="#mb007d07e6e" y="213.663137"/>
     <use style="fill:#1f77b4;stroke:#1f77b4;" x="229.128547" xlink:href="#mb007d07e6e" y="221.664655"/>
     <use style="fill:#1f77b4;stroke:#1f77b4;" x="222.38158" xlink:href="#mb007d07e6e" y="228.660213"/>
     <use style="fill:#1f77b4;stroke:#1f77b4;" x="215.754104" xlink:href="#mb007d07e6e" y="235.172812"/>
     <use style="fill:#1f77b4;stroke:#1f77b4;" x="209.237986" xlink:href="#mb007d07e6e" y="240.993021"/>
     <use style="fill:#1f77b4;stroke:#1f77b4;" x="202.828234" xlink:href="#mb007d07e6e" y="246.197778"/>
     <use style="fill:#1f77b4;stroke:#1f77b4;" x="196.528161" xlink:href="#mb007d07e6e" y="250.927461"/>
     <use style="fill:#1f77b4;stroke:#1f77b4;" x="190.355234" xlink:href="#mb007d07e6e" y="254.218469"/>
     <use style="fill:#1f77b4;stroke:#1f77b4;" x="184.269063" xlink:href="#mb007d07e6e" y="256.913379"/>
     <use style="fill:#1f77b4;stroke:#1f77b4;" x="178.277061" xlink:href="#mb007d07e6e" y="259.05906"/>
     <use style="fill:#1f77b4;stroke:#1f77b4;" x="172.414448" xlink:href="#mb007d07e6e" y="260.660974"/>
     <use style="fill:#1f77b4;stroke:#1f77b4;" x="166.633343" xlink:href="#mb007d07e6e" y="261.216"/>
     <use style="fill:#1f77b4;stroke:#1f77b4;" x="160.97418" xlink:href="#mb007d07e6e" y="260.692818"/>
     <use style="fill:#1f77b4;stroke:#1f77b4;" x="155.411573" xlink:href="#mb007d07e6e" y="260.194395"/>
     <use style="fill:#1f77b4;stroke:#1f77b4;" x="149.945338" xlink:href="#mb007d07e6e" y="258.803904"/>
     <use style="fill:#1f77b4;stroke:#1f77b4;" x="144.59175" xlink:href="#mb007d07e6e" y="255.713527"/>
     <use style="fill:#1f77b4;stroke:#1f77b4;" x="139.314775" xlink:href="#mb007d07e6e" y="251.888669"/>
     <use style="fill:#1f77b4;stroke:#1f77b4;" x="134.151944" xlink:href="#mb007d07e6e" y="247.616299"/>
     <use style="fill:#1f77b4;stroke:#1f77b4;" x="129.070483" xlink:href="#mb007d07e6e" y="242.235708"/>
     <use style="fill:#1f77b4;stroke:#1f77b4;" x="124.084456" xlink:href="#mb007d07e6e" y="236.380595"/>
     <use style="fill:#1f77b4;stroke:#1f77b4;" x="119.190035" xlink:href="#mb007d07e6e" y="229.497814"/>
     <use style="fill:#1f77b4;stroke:#1f77b4;" x="114.365252" xlink:href="#mb007d07e6e" y="221.571699"/>
     <use style="fill:#1f77b4;stroke:#1f77b4;" x="109.652604" xlink:href="#mb007d07e6e" y="213.44647"/>
     <use style="fill:#1f77b4;stroke:#1f77b4;" x="105.01923" xlink:href="#mb007d07e6e" y="204.80353"/>
     <use style="fill:#1f77b4;stroke:#1f77b4;" x="100.461959" xlink:href="#mb007d07e6e" y="195.5854"/>
     <use style="fill:#1f77b4;stroke:#1f77b4;" x="95.991751" xlink:href="#mb007d07e6e" y="186.18022"/>
     <use style="fill:#1f77b4;stroke:#1f77b4;" x="91.591021" xlink:href="#mb007d07e6e" y="175.343215"/>
     <use style="fill:#1f77b4;stroke:#1f77b4;" x="87.274784" xlink:href="#mb007d07e6e" y="164.332816"/>
     <use style="fill:#1f77b4;stroke:#1f77b4;" x="83.035803" xlink:href="#mb007d07e6e" y="153.152762"/>
     <use style="fill:#1f77b4;stroke:#1f77b4;" x="78.825035" xlink:href="#mb007d07e6e" y="139.515044"/>
     <use style="fill:#1f77b4;stroke:#1f77b4;" x="74.753702" xlink:href="#mb007d07e6e" y="128.666324"/>
     <use style="fill:#1f77b4;stroke:#1f77b4;" x="74.364284" xlink:href="#mb007d07e6e" y="128.401782"/>
     <use style="fill:#1f77b4;stroke:#1f77b4;" x="73.970017" xlink:href="#mb007d07e6e" y="127.997219"/>
     <use style="fill:#1f77b4;stroke:#1f77b4;" x="73.572572" xlink:href="#mb007d07e6e" y="127.444098"/>
     <use style="fill:#1f77b4;stroke:#1f77b4;" x="73.178518" xlink:href="#mb007d07e6e" y="126.849668"/>
     <use style="fill:#1f77b4;stroke:#1f77b4;" x="72.784738" xlink:href="#mb007d07e6e" y="126.207673"/>
     <use style="fill:#1f77b4;stroke:#1f77b4;" x="72.390852" xlink:href="#mb007d07e6e" y="125.528549"/>
     <use style="fill:#1f77b4;stroke:#1f77b4;" x="71.998102" xlink:href="#mb007d07e6e" y="124.833785"/>
     <use style="fill:#1f77b4;stroke:#1f77b4;" x="71.605468" xlink:href="#mb007d07e6e" y="124.176157"/>
     <use style="fill:#1f77b4;stroke:#1f77b4;" x="71.215589" xlink:href="#mb007d07e6e" y="123.463905"/>
     <use style="fill:#1f77b4;stroke:#1f77b4;" x="70.826468" xlink:href="#mb007d07e6e" y="122.768866"/>
     <use style="fill:#1f77b4;stroke:#1f77b4;" x="70.437951" xlink:href="#mb007d07e6e" y="122.077988"/>
     <use style="fill:#1f77b4;stroke:#1f77b4;" x="70.051327" xlink:href="#mb007d07e6e" y="121.332654"/>
     <use style="fill:#1f77b4;stroke:#1f77b4;" x="69.66336" xlink:href="#mb007d07e6e" y="120.637468"/>
     <use style="fill:#1f77b4;stroke:#1f77b4;" x="69.275748" xlink:href="#mb007d07e6e" y="119.942476"/>
     <use style="fill:#1f77b4;stroke:#1f77b4;" x="68.890343" xlink:href="#mb007d07e6e" y="119.22227"/>
     <use style="fill:#1f77b4;stroke:#1f77b4;" x="68.505157" xlink:href="#mb007d07e6e" y="118.507334"/>
     <use style="fill:#1f77b4;stroke:#1f77b4;" x="68.121571" xlink:href="#mb007d07e6e" y="117.864752"/>
     <use style="fill:#1f77b4;stroke:#1f77b4;" x="67.738664" xlink:href="#mb007d07e6e" y="117.126259"/>
     <use style="fill:#1f77b4;stroke:#1f77b4;" x="67.357833" xlink:href="#mb007d07e6e" y="116.43153"/>
     <use style="fill:#1f77b4;stroke:#1f77b4;" x="66.976441" xlink:href="#mb007d07e6e" y="115.675986"/>
     <use style="fill:#1f77b4;stroke:#1f77b4;" x="66.597615" xlink:href="#mb007d07e6e" y="114.973826"/>
     <use style="fill:#1f77b4;stroke:#1f77b4;" x="66.21748" xlink:href="#mb007d07e6e" y="114.175424"/>
     <use style="fill:#1f77b4;stroke:#1f77b4;" x="65.838033" xlink:href="#mb007d07e6e" y="113.526531"/>
     <use style="fill:#1f77b4;stroke:#1f77b4;" x="65.460262" xlink:href="#mb007d07e6e" y="112.697407"/>
     <use style="fill:#1f77b4;stroke:#1f77b4;" x="65.083548" xlink:href="#mb007d07e6e" y="112.013889"/>
     <use style="fill:#1f77b4;stroke:#1f77b4;" x="65.04649" xlink:href="#mb007d07e6e" y="111.972509"/>
     <use style="fill:#1f77b4;stroke:#1f77b4;" x="65.008903" xlink:href="#mb007d07e6e" y="111.928854"/>
     <use style="fill:#1f77b4;stroke:#1f77b4;" x="64.971078" xlink:href="#mb007d07e6e" y="111.883425"/>
     <use style="fill:#1f77b4;stroke:#1f77b4;" x="64.933323" xlink:href="#mb007d07e6e" y="111.836781"/>
     <use style="fill:#1f77b4;stroke:#1f77b4;" x="64.89576" xlink:href="#mb007d07e6e" y="111.797993"/>
     <use style="fill:#1f77b4;stroke:#1f77b4;" x="64.857709" xlink:href="#mb007d07e6e" y="111.75555"/>
     <use style="fill:#1f77b4;stroke:#1f77b4;" x="64.820202" xlink:href="#mb007d07e6e" y="111.715214"/>
     <use style="fill:#1f77b4;stroke:#1f77b4;" x="64.782704" xlink:href="#mb007d07e6e" y="111.677701"/>
     <use style="fill:#1f77b4;stroke:#1f77b4;" x="64.745027" xlink:href="#mb007d07e6e" y="111.647375"/>
     <use style="fill:#1f77b4;stroke:#1f77b4;" x="64.707246" xlink:href="#mb007d07e6e" y="111.614233"/>
     <use style="fill:#1f77b4;stroke:#1f77b4;" x="64.669705" xlink:href="#mb007d07e6e" y="111.571716"/>
     <use style="fill:#1f77b4;stroke:#1f77b4;" x="64.632283" xlink:href="#mb007d07e6e" y="111.52514"/>
     <use style="fill:#1f77b4;stroke:#1f77b4;" x="64.594785" xlink:href="#mb007d07e6e" y="111.483961"/>
     <use style="fill:#1f77b4;stroke:#1f77b4;" x="64.557047" xlink:href="#mb007d07e6e" y="111.442119"/>
     <use style="fill:#1f77b4;stroke:#1f77b4;" x="64.519598" xlink:href="#mb007d07e6e" y="111.410379"/>
     <use style="fill:#1f77b4;stroke:#1f77b4;" x="64.482179" xlink:href="#mb007d07e6e" y="111.367168"/>
     <use style="fill:#1f77b4;stroke:#1f77b4;" x="64.444988" xlink:href="#mb007d07e6e" y="111.32615"/>
     <use style="fill:#1f77b4;stroke:#1f77b4;" x="64.407482" xlink:href="#mb007d07e6e" y="111.295532"/>
     <use style="fill:#1f77b4;stroke:#1f77b4;" x="64.370041" xlink:href="#mb007d07e6e" y="111.267546"/>
     <use style="fill:#1f77b4;stroke:#1f77b4;" x="64.332448" xlink:href="#mb007d07e6e" y="111.235972"/>
     <use style="fill:#1f77b4;stroke:#1f77b4;" x="64.295068" xlink:href="#mb007d07e6e" y="111.190858"/>
     <use style="fill:#1f77b4;stroke:#1f77b4;" x="64.257774" xlink:href="#mb007d07e6e" y="111.152989"/>
     <use style="fill:#1f77b4;stroke:#1f77b4;" x="64.220685" xlink:href="#mb007d07e6e" y="111.120222"/>
     <use style="fill:#1f77b4;stroke:#1f77b4;" x="64.183394" xlink:href="#mb007d07e6e" y="111.095201"/>
    </g>
   </g>
   <g id="patch_3">
    <path d="M 49.665988 273.312 
L 49.665988 7.2 
" style="fill:none;stroke:#000000;stroke-linecap:square;stroke-linejoin:miter;stroke-width:0.8;"/>
   </g>
   <g id="patch_4">
    <path d="M 406.785988 273.312 
L 406.785988 7.2 
" style="fill:none;stroke:#000000;stroke-linecap:square;stroke-linejoin:miter;stroke-width:0.8;"/>
   </g>
   <g id="patch_5">
    <path d="M 49.665988 273.312 
L 406.785988 273.312 
" style="fill:none;stroke:#000000;stroke-linecap:square;stroke-linejoin:miter;stroke-width:0.8;"/>
   </g>
   <g id="patch_6">
    <path d="M 49.665988 7.2 
L 406.785988 7.2 
" style="fill:none;stroke:#000000;stroke-linecap:square;stroke-linejoin:miter;stroke-width:0.8;"/>
   </g>
   <g id="text_16">
    <g clip-path="url(#peb06bf3d69)">
     <!-- 1.000 -->
     <g style="fill:#482576;" transform="translate(55.908952 206.815093)rotate(-279.109525)scale(0.06 -0.06)">
      <use xlink:href="#DejaVuSans-49"/>
      <use x="63.623047" xlink:href="#DejaVuSans-46"/>
      <use x="95.410156" xlink:href="#DejaVuSans-48"/>
      <use x="159.033203" xlink:href="#DejaVuSans-48"/>
      <use x="222.65625" xlink:href="#DejaVuSans-48"/>
     </g>
    </g>
   </g>
   <g id="text_17">
    <g clip-path="url(#peb06bf3d69)">
     <!-- 1.000 -->
     <g style="fill:#482576;" transform="translate(67.152747 105.923923)rotate(-285.903825)scale(0.06 -0.06)">
      <use xlink:href="#DejaVuSans-49"/>
      <use x="63.623047" xlink:href="#DejaVuSans-46"/>
      <use x="95.410156" xlink:href="#DejaVuSans-48"/>
      <use x="159.033203" xlink:href="#DejaVuSans-48"/>
      <use x="222.65625" xlink:href="#DejaVuSans-48"/>
     </g>
    </g>
   </g>
   <g id="text_18">
    <g clip-path="url(#peb06bf3d69)">
     <!-- 1.500 -->
     <g style="fill:#453781;" transform="translate(54.195731 181.012726)rotate(-88.307295)scale(0.06 -0.06)">
      <defs>
       <path d="M 10.796875 72.90625 
L 49.515625 72.90625 
L 49.515625 64.59375 
L 19.828125 64.59375 
L 19.828125 46.734375 
Q 21.96875 47.46875 24.109375 47.828125 
Q 26.265625 48.1875 28.421875 48.1875 
Q 40.625 48.1875 47.75 41.5 
Q 54.890625 34.8125 54.890625 23.390625 
Q 54.890625 11.625 47.5625 5.09375 
Q 40.234375 -1.421875 26.90625 -1.421875 
Q 22.3125 -1.421875 17.546875 -0.640625 
Q 12.796875 0.140625 7.71875 1.703125 
L 7.71875 11.625 
Q 12.109375 9.234375 16.796875 8.0625 
Q 21.484375 6.890625 26.703125 6.890625 
Q 35.15625 6.890625 40.078125 11.328125 
Q 45.015625 15.765625 45.015625 23.390625 
Q 45.015625 31 40.078125 35.4375 
Q 35.15625 39.890625 26.703125 39.890625 
Q 22.75 39.890625 18.8125 39.015625 
Q 14.890625 38.140625 10.796875 36.28125 
z
" id="DejaVuSans-53"/>
      </defs>
      <use xlink:href="#DejaVuSans-49"/>
      <use x="63.623047" xlink:href="#DejaVuSans-46"/>
      <use x="95.410156" xlink:href="#DejaVuSans-53"/>
      <use x="159.033203" xlink:href="#DejaVuSans-48"/>
      <use x="222.65625" xlink:href="#DejaVuSans-48"/>
     </g>
    </g>
   </g>
   <g id="text_19">
    <g clip-path="url(#peb06bf3d69)">
     <!-- 1.500 -->
     <g style="fill:#453781;" transform="translate(68.747068 109.626401)rotate(-286.947542)scale(0.06 -0.06)">
      <use xlink:href="#DejaVuSans-49"/>
      <use x="63.623047" xlink:href="#DejaVuSans-46"/>
      <use x="95.410156" xlink:href="#DejaVuSans-53"/>
      <use x="159.033203" xlink:href="#DejaVuSans-48"/>
      <use x="222.65625" xlink:href="#DejaVuSans-48"/>
     </g>
    </g>
   </g>
   <g id="text_20">
    <g clip-path="url(#peb06bf3d69)">
     <!-- 2.000 -->
     <g style="fill:#404688;" transform="translate(64.16777 64.994959)rotate(-305.041775)scale(0.06 -0.06)">
      <use xlink:href="#DejaVuSans-50"/>
      <use x="63.623047" xlink:href="#DejaVuSans-46"/>
      <use x="95.410156" xlink:href="#DejaVuSans-48"/>
      <use x="159.033203" xlink:href="#DejaVuSans-48"/>
      <use x="222.65625" xlink:href="#DejaVuSans-48"/>
     </g>
    </g>
   </g>
   <g id="text_21">
    <g clip-path="url(#peb06bf3d69)">
     <!-- 2.500 -->
     <g style="fill:#39558c;" transform="translate(70.556898 111.124944)rotate(-283.938502)scale(0.06 -0.06)">
      <use xlink:href="#DejaVuSans-50"/>
      <use x="63.623047" xlink:href="#DejaVuSans-46"/>
      <use x="95.410156" xlink:href="#DejaVuSans-53"/>
      <use x="159.033203" xlink:href="#DejaVuSans-48"/>
      <use x="222.65625" xlink:href="#DejaVuSans-48"/>
     </g>
    </g>
   </g>
   <g id="text_22">
    <g clip-path="url(#peb06bf3d69)">
     <!-- 3.000 -->
     <g style="fill:#33638d;" transform="translate(72.268894 239.597205)rotate(-67.520356)scale(0.06 -0.06)">
      <defs>
       <path d="M 40.578125 39.3125 
Q 47.65625 37.796875 51.625 33 
Q 55.609375 28.21875 55.609375 21.1875 
Q 55.609375 10.40625 48.1875 4.484375 
Q 40.765625 -1.421875 27.09375 -1.421875 
Q 22.515625 -1.421875 17.65625 -0.515625 
Q 12.796875 0.390625 7.625 2.203125 
L 7.625 11.71875 
Q 11.71875 9.328125 16.59375 8.109375 
Q 21.484375 6.890625 26.8125 6.890625 
Q 36.078125 6.890625 40.9375 10.546875 
Q 45.796875 14.203125 45.796875 21.1875 
Q 45.796875 27.640625 41.28125 31.265625 
Q 36.765625 34.90625 28.71875 34.90625 
L 20.21875 34.90625 
L 20.21875 43.015625 
L 29.109375 43.015625 
Q 36.375 43.015625 40.234375 45.921875 
Q 44.09375 48.828125 44.09375 54.296875 
Q 44.09375 59.90625 40.109375 62.90625 
Q 36.140625 65.921875 28.71875 65.921875 
Q 24.65625 65.921875 20.015625 65.03125 
Q 15.375 64.15625 9.8125 62.3125 
L 9.8125 71.09375 
Q 15.4375 72.65625 20.34375 73.4375 
Q 25.25 74.21875 29.59375 74.21875 
Q 40.828125 74.21875 47.359375 69.109375 
Q 53.90625 64.015625 53.90625 55.328125 
Q 53.90625 49.265625 50.4375 45.09375 
Q 46.96875 40.921875 40.578125 39.3125 
z
" id="DejaVuSans-51"/>
      </defs>
      <use xlink:href="#DejaVuSans-51"/>
      <use x="63.623047" xlink:href="#DejaVuSans-46"/>
      <use x="95.410156" xlink:href="#DejaVuSans-48"/>
      <use x="159.033203" xlink:href="#DejaVuSans-48"/>
      <use x="222.65625" xlink:href="#DejaVuSans-48"/>
     </g>
    </g>
   </g>
   <g id="text_23">
    <g clip-path="url(#peb06bf3d69)">
     <!-- 3.500 -->
     <g style="fill:#2d718e;" transform="translate(66.737835 69.741769)rotate(-299.436961)scale(0.06 -0.06)">
      <use xlink:href="#DejaVuSans-51"/>
      <use x="63.623047" xlink:href="#DejaVuSans-46"/>
      <use x="95.410156" xlink:href="#DejaVuSans-53"/>
      <use x="159.033203" xlink:href="#DejaVuSans-48"/>
      <use x="222.65625" xlink:href="#DejaVuSans-48"/>
     </g>
    </g>
   </g>
   <g id="text_24">
    <g clip-path="url(#peb06bf3d69)">
     <!-- 4.000 -->
     <g style="fill:#287d8e;" transform="translate(71.928893 111.009259)rotate(-282.069037)scale(0.06 -0.06)">
      <use xlink:href="#DejaVuSans-52"/>
      <use x="63.623047" xlink:href="#DejaVuSans-46"/>
      <use x="95.410156" xlink:href="#DejaVuSans-48"/>
      <use x="159.033203" xlink:href="#DejaVuSans-48"/>
      <use x="222.65625" xlink:href="#DejaVuSans-48"/>
     </g>
    </g>
   </g>
   <g id="text_25">
    <g clip-path="url(#peb06bf3d69)">
     <!-- 4.500 -->
     <g style="fill:#238a8d;" transform="translate(72.263667 110.995608)rotate(-281.838907)scale(0.06 -0.06)">
      <use xlink:href="#DejaVuSans-52"/>
      <use x="63.623047" xlink:href="#DejaVuSans-46"/>
      <use x="95.410156" xlink:href="#DejaVuSans-53"/>
      <use x="159.033203" xlink:href="#DejaVuSans-48"/>
      <use x="222.65625" xlink:href="#DejaVuSans-48"/>
     </g>
    </g>
   </g>
   <g id="text_26">
    <g clip-path="url(#peb06bf3d69)">
     <!-- 5.000 -->
     <g style="fill:#1f968b;" transform="translate(72.937177 110.820675)rotate(-278.664367)scale(0.06 -0.06)">
      <use xlink:href="#DejaVuSans-53"/>
      <use x="63.623047" xlink:href="#DejaVuSans-46"/>
      <use x="95.410156" xlink:href="#DejaVuSans-48"/>
      <use x="159.033203" xlink:href="#DejaVuSans-48"/>
      <use x="222.65625" xlink:href="#DejaVuSans-48"/>
     </g>
    </g>
   </g>
   <g id="text_27">
    <g clip-path="url(#peb06bf3d69)">
     <!-- 5.500 -->
     <g style="fill:#20a386;" transform="translate(73.080717 110.837507)rotate(-278.990843)scale(0.06 -0.06)">
      <use xlink:href="#DejaVuSans-53"/>
      <use x="63.623047" xlink:href="#DejaVuSans-46"/>
      <use x="95.410156" xlink:href="#DejaVuSans-53"/>
      <use x="159.033203" xlink:href="#DejaVuSans-48"/>
      <use x="222.65625" xlink:href="#DejaVuSans-48"/>
     </g>
    </g>
   </g>
   <g id="text_28">
    <g clip-path="url(#peb06bf3d69)">
     <!-- 6.000 -->
     <g style="fill:#29af7f;" transform="translate(73.224494 110.854555)rotate(-279.316342)scale(0.06 -0.06)">
      <use xlink:href="#DejaVuSans-54"/>
      <use x="63.623047" xlink:href="#DejaVuSans-46"/>
      <use x="95.410156" xlink:href="#DejaVuSans-48"/>
      <use x="159.033203" xlink:href="#DejaVuSans-48"/>
      <use x="222.65625" xlink:href="#DejaVuSans-48"/>
     </g>
    </g>
   </g>
   <g id="text_29">
    <g clip-path="url(#peb06bf3d69)">
     <!-- 6.500 -->
     <g style="fill:#3dbc74;" transform="translate(73.368511 110.871813)rotate(-279.640839)scale(0.06 -0.06)">
      <use xlink:href="#DejaVuSans-54"/>
      <use x="63.623047" xlink:href="#DejaVuSans-46"/>
      <use x="95.410156" xlink:href="#DejaVuSans-53"/>
      <use x="159.033203" xlink:href="#DejaVuSans-48"/>
      <use x="222.65625" xlink:href="#DejaVuSans-48"/>
     </g>
    </g>
   </g>
   <g id="text_30">
    <g clip-path="url(#peb06bf3d69)">
     <!-- 7.000 -->
     <g style="fill:#56c667;" transform="translate(68.767577 69.529195)rotate(-297.235856)scale(0.06 -0.06)">
      <defs>
       <path d="M 8.203125 72.90625 
L 55.078125 72.90625 
L 55.078125 68.703125 
L 28.609375 0 
L 18.3125 0 
L 43.21875 64.59375 
L 8.203125 64.59375 
z
" id="DejaVuSans-55"/>
      </defs>
      <use xlink:href="#DejaVuSans-55"/>
      <use x="63.623047" xlink:href="#DejaVuSans-46"/>
      <use x="95.410156" xlink:href="#DejaVuSans-48"/>
      <use x="159.033203" xlink:href="#DejaVuSans-48"/>
      <use x="222.65625" xlink:href="#DejaVuSans-48"/>
     </g>
    </g>
   </g>
   <g id="text_31">
    <g clip-path="url(#peb06bf3d69)">
     <!-- 7.500 -->
     <g style="fill:#75d054;" transform="translate(74.134792 110.723307)rotate(-276.661897)scale(0.06 -0.06)">
      <use xlink:href="#DejaVuSans-55"/>
      <use x="63.623047" xlink:href="#DejaVuSans-46"/>
      <use x="95.410156" xlink:href="#DejaVuSans-53"/>
      <use x="159.033203" xlink:href="#DejaVuSans-48"/>
      <use x="222.65625" xlink:href="#DejaVuSans-48"/>
     </g>
    </g>
   </g>
   <g id="text_32">
    <g clip-path="url(#peb06bf3d69)">
     <!-- 8.000 -->
     <g style="fill:#95d840;" transform="translate(74.239636 110.7289)rotate(-276.782854)scale(0.06 -0.06)">
      <use xlink:href="#DejaVuSans-56"/>
      <use x="63.623047" xlink:href="#DejaVuSans-46"/>
      <use x="95.410156" xlink:href="#DejaVuSans-48"/>
      <use x="159.033203" xlink:href="#DejaVuSans-48"/>
      <use x="222.65625" xlink:href="#DejaVuSans-48"/>
     </g>
    </g>
   </g>
   <g id="text_33">
    <g clip-path="url(#peb06bf3d69)">
     <!-- 8.500 -->
     <g style="fill:#bade28;" transform="translate(74.340148 110.735928)rotate(-276.933705)scale(0.06 -0.06)">
      <use xlink:href="#DejaVuSans-56"/>
      <use x="63.623047" xlink:href="#DejaVuSans-46"/>
      <use x="95.410156" xlink:href="#DejaVuSans-53"/>
      <use x="159.033203" xlink:href="#DejaVuSans-48"/>
      <use x="222.65625" xlink:href="#DejaVuSans-48"/>
     </g>
    </g>
   </g>
   <g id="text_34">
    <g clip-path="url(#peb06bf3d69)">
     <!-- 9.000 -->
     <g style="fill:#dde318;" transform="translate(78.165583 229.108721)rotate(-77.672319)scale(0.06 -0.06)">
      <use xlink:href="#DejaVuSans-57"/>
      <use x="63.623047" xlink:href="#DejaVuSans-46"/>
      <use x="95.410156" xlink:href="#DejaVuSans-48"/>
      <use x="159.033203" xlink:href="#DejaVuSans-48"/>
      <use x="222.65625" xlink:href="#DejaVuSans-48"/>
     </g>
    </g>
   </g>
   <g id="text_35">
    <g clip-path="url(#peb06bf3d69)">
     <!-- 9.000 -->
     <g style="fill:#dde318;" transform="translate(73.746621 100.262716)rotate(-280.632917)scale(0.06 -0.06)">
      <use xlink:href="#DejaVuSans-57"/>
      <use x="63.623047" xlink:href="#DejaVuSans-46"/>
      <use x="95.410156" xlink:href="#DejaVuSans-48"/>
      <use x="159.033203" xlink:href="#DejaVuSans-48"/>
      <use x="222.65625" xlink:href="#DejaVuSans-48"/>
     </g>
    </g>
   </g>
   <g id="text_36">
    <g clip-path="url(#peb06bf3d69)">
     <!-- 9.500 -->
     <g style="fill:#fde725;" transform="translate(77.87461 234.428824)rotate(-75.810428)scale(0.06 -0.06)">
      <use xlink:href="#DejaVuSans-57"/>
      <use x="63.623047" xlink:href="#DejaVuSans-46"/>
      <use x="95.410156" xlink:href="#DejaVuSans-53"/>
      <use x="159.033203" xlink:href="#DejaVuSans-48"/>
      <use x="222.65625" xlink:href="#DejaVuSans-48"/>
     </g>
    </g>
   </g>
   <g id="text_37">
    <g clip-path="url(#peb06bf3d69)">
     <!-- 9.500 -->
     <g style="fill:#fde725;" transform="translate(74.541328 110.750124)rotate(-277.234713)scale(0.06 -0.06)">
      <use xlink:href="#DejaVuSans-57"/>
      <use x="63.623047" xlink:href="#DejaVuSans-46"/>
      <use x="95.410156" xlink:href="#DejaVuSans-53"/>
      <use x="159.033203" xlink:href="#DejaVuSans-48"/>
      <use x="222.65625" xlink:href="#DejaVuSans-48"/>
     </g>
    </g>
   </g>
   <g id="text_38">
    <g clip-path="url(#peb06bf3d69)">
     <!-- 10.000 -->
     <g style="fill:#440154;" transform="translate(74.344797 108.87973)rotate(-277.676477)scale(0.06 -0.06)">
      <use xlink:href="#DejaVuSans-49"/>
      <use x="63.623047" xlink:href="#DejaVuSans-48"/>
      <use x="127.246094" xlink:href="#DejaVuSans-46"/>
      <use x="159.033203" xlink:href="#DejaVuSans-48"/>
      <use x="222.65625" xlink:href="#DejaVuSans-48"/>
      <use x="286.279297" xlink:href="#DejaVuSans-48"/>
     </g>
    </g>
   </g>
  </g>
 </g>
 <defs>
  <clipPath id="peb06bf3d69">
   <rect height="266.112" width="357.12" x="49.665988" y="7.2"/>
  </clipPath>
 </defs>
</svg>
